<?xml version="1.0" encoding="UTF-8" standalone="no"?>
<svg
   xmlns:dc="http://purl.org/dc/elements/1.1/"
   xmlns:cc="http://creativecommons.org/ns#"
   xmlns:rdf="http://www.w3.org/1999/02/22-rdf-syntax-ns#"
   xmlns:svg="http://www.w3.org/2000/svg"
   xmlns="http://www.w3.org/2000/svg"
   xmlns:sodipodi="http://sodipodi.sourceforge.net/DTD/sodipodi-0.dtd"
   xmlns:inkscape="http://www.inkscape.org/namespaces/inkscape"
   width="83.0384605408mm"
   height="213.291001129mm"
   viewBox="0 0 83.0384605408 213.291001129"
   version="1.1"
   id="svg646"
   sodipodi:docname="plantilla34_offset.svg"
   inkscape:version="0.92.3 (2405546, 2018-03-11)">
  <metadata
     id="metadata652">
    <rdf:RDF>
      <cc:Work
         rdf:about="">
        <dc:format>image/svg+xml</dc:format>
        <dc:type
           rdf:resource="http://purl.org/dc/dcmitype/StillImage" />
      </cc:Work>
    </rdf:RDF>
  </metadata>
  <defs
     id="defs650" />
  <sodipodi:namedview
     pagecolor="#ffffff"
     bordercolor="#666666"
     borderopacity="1"
     objecttolerance="10"
     gridtolerance="10"
     guidetolerance="10"
     inkscape:pageopacity="0"
     inkscape:pageshadow="2"
     inkscape:window-width="1920"
     inkscape:window-height="1001"
     id="namedview648"
     showgrid="false"
     inkscape:zoom="0.82803167"
     inkscape:cx="-97.411144"
     inkscape:cy="495.7923"
     inkscape:window-x="-9"
     inkscape:window-y="-9"
     inkscape:window-maximized="1"
     inkscape:current-layer="plantilla34001_solid001" />
  <g
     id="plantilla34001_solid001"
     transform="translate(41.519230,106.647438) scale(1,-1)">
    <path
       id="plantilla34001_solid001_f0319"
       d="m -24.624095,-73.326272 -0.257715,-1.479798 -0.168867,-1.492538 -0.07942,-1.499962 0.01031,-1.502029 0.10001,-1.498734 0.189352,-1.490082 0.278014,-1.476112 0.365684,-1.456879 0.452049,-1.432426 0.536799,-1.40287 0.619635,-1.368302 0.700254,-1.32885 0.778374,-1.284652 0.853717,-1.235871 0.926009,-1.18267 0.995,-1.125244 1.06043,-1.063815 1.12207,-0.99856 1.17972,-0.92978 1.23315,-0.85764 1.28217,-0.782454 1.32661,-0.70449 1.3663304,-0.62398 1.40115,-0.54126 1.43099,-0.4566 1.4557,-0.37032 1.47522,-0.28271 1.48947,-0.19409 1.49841,-0.10477 1.50199002,-0.0151 1.50020998,0.0746 1.49307,0.16413 1.4806,0.253 1.46285,0.34099 1.43987,0.42776 1.41175,0.51299 1.3785896,0.5964 1.34051,0.67767 1.29763,0.756544 1.25013,0.83269 1.19817,0.90587 1.14191,0.97582 1.0816,1.042288 1.0174,1.105026 0.94959,1.163819 0.87838,1.21846 0.80404,1.268753 0.72682,1.314506 0.647,1.355576 0.56488,1.3918 0.48075,1.423057 0.39488,1.449234 0.30762,1.470223 0.21926,1.485977 0.13011,1.496422 0.0405,1.501518 -0.0493,1.501259 -0.13884,1.495636 -0.18604,1.623291 -0.1567,1.603798 -0.12836,1.586105 -0.10099,1.570198 -0.0746,1.556084 -0.0492,1.543762 -0.0248,1.533226 -0.001,1.524498 0.0633,3.030075 0.1397,3.027355 0.20261,3.050675 0.25451,3.095184 0.29541,3.1609 0.15961,1.611717 0.1657,1.636097 0.17034,1.663392 0.17395,1.692596 0.17771,1.720741 0.18169,1.74765 0.18587,1.773323 0.19027,1.797757 0.39468,3.663606 0.42375,3.723261 0.46912,3.729015 0.25606,1.85075 0.2728,1.833088 0.29133,1.80906 0.31166,1.778666 0.33381,1.741852 0.35727,1.699153 0.37931,1.655952 0.39939,1.6135353 0.41748,1.571899 0.4336,1.5310436 0.44772,1.490972 0.45981,1.451736 0.46779,1.4161821 0.47176,1.38739482 0.94196,2.71543188 0.91737,2.6812948 0.8658,2.7011652 0.40512,1.3749113 0.38215,1.40102 0.35644,1.437851 0.32831,1.481877 0.29778,1.532607 0.26485,1.590048 0.22952,1.654196 0.1918,1.725052 0.15167,1.802618 0.0601,0.932387 0.0494,0.953298 0.0386,0.97435 0.0277,0.995632 0.0167,1.017145 0.006,1.038887 -6e-5,1.01017 -2.4e-4,0.986483 -4.6e-4,0.963257 -7.6e-4,0.940492 -0.003,1.814539 -0.005,1.72902 -0.007,1.64719 -0.01,1.56905 -0.0134,1.494602 -0.0173,1.423839 -0.0217,1.356774 -0.0266,1.293396 -0.0321,1.233707 -0.038,1.177712 -0.0444,1.125335 -0.0511,1.075741 -0.0579,1.028439 -0.0649,0.983425 -0.0719,0.9407 -0.0791,0.900273 -0.0864,0.862125 -0.0938,0.826279 -0.10134,0.792717 -0.10898,0.761448 -0.11674,0.732467 -0.12463,0.705777 -0.13263,0.681381 -0.14075,0.659271 -0.3062,1.2612 -0.33904,1.195618 -0.37203,1.13969 -0.40523,1.093235 -0.43861,1.056259 -0.47223,1.028755 -0.50602,1.010735 -0.54006,1.001404 -0.57352,0.995491 -0.60549,0.991005 -0.63599,0.987968 -0.66496,0.986382 -0.69247,0.986229 -0.71845,0.987533 -0.74296,0.990273 -1.55312,1.99398 -1.62914,2.008949 -1.69399,2.018837 -1.74928,2.025162 -1.79503,2.027908 -1.8311,2.027153 -1.8626,2.019639 -1.90446,1.996719 -1.95884,1.957214 -1.00372,0.958603 -1.02198,0.94249 -1.04251,0.923393 -1.0690896,0.900452 -1.10259,0.873718 -1.14303,0.843193 -1.19038,0.808899 -1.24466,0.770821 -1.30588,0.728945 -1.37501,0.68386 -0.71761,0.3236 -0.74030998,0.3101 -0.76502,0.29569 -0.79170002,0.28031 -0.82037,0.26401 -0.85103,0.24676 -0.88367,0.22856 -0.9183,0.20943 -0.95492,0.18934 -0.99351,0.16832 -1.03411,0.14636 -1.07669,0.12343 -1.12204,0.0988 -1.1702004,0.0725 -1.22088,0.0446 -1.27409,0.0152 -0.94092,-0.004 -0.91696,-0.0119 -0.89307,-0.0208 -0.86928,-0.0306 -0.84557,-0.0411 -0.82194,-0.0526 -0.798397,-0.0648 -0.774936,-0.0779 -0.75156,-0.0918 -0.728268,-0.10647 -0.705059,-0.12203 -0.681934,-0.1384 -0.658892,-0.1556 -0.635937,-0.17362 -0.613062,-0.19249 -0.590648,-0.21153 -0.569726,-0.23023 -0.549877,-0.25041 -0.531067,-0.27213 -0.513301,-0.2954 -0.496579,-0.32024 -0.480896,-0.34662 -0.466255,-0.37454 -0.452658,-0.40403 -0.440201,-0.435064 -0.428587,-0.467651 -0.418116,-0.501793 -0.408283,-0.538605 -0.398144,-0.578605 -0.387832,-0.619896 -0.377354,-0.662476 -0.366715,-0.706306 -0.355899,-0.751427 -0.344929,-0.797813 -0.333786,-0.845467 -0.322476,-0.894409 -0.311004,-0.944603 -0.299362,-0.996086 -0.287556,-1.048828 -0.275585,-1.10286 -0.263443,-1.15815 -0.251141,-1.214698 -0.238659,-1.271653 -0.226242,-1.329216 -0.213947,-1.387817 -0.201782,-1.447456 -0.189747,-1.508141 -0.177841,-1.569855 -0.166066,-1.632621 -0.154415,-1.696427 -0.142894,-1.761261 -0.131508,-1.827148 -0.120243,-1.894074 -0.109112,-1.962044 -0.09811,-2.031044 -0.08723,-2.101085 -0.07649,-2.172173 -0.06587,-2.244301 -0.05539,-2.31747 -0.04502,-2.391674 -0.03479,-2.466923 -0.02469,-2.543209 -0.01472,-2.620541 -0.0049,-2.698909 0.01167,-1.037705 0.03473,-1.021732 0.05734,-1.006237 0.07951,-0.991223 0.10123,-0.976688 0.122509,-0.962635 0.143341,-0.949062 0.163735,-0.935975 0.183678,-0.923358 0.203186,-0.911229 0.463096,-1.78799 0.535786,-1.745234 0.604916,-1.706325 0.670135,-1.672032 0.728882,-1.643551 0.78006,-1.619499 0.823658,-1.599821 0.859687,-1.584513 0.888144,-1.573576 1.831343,-3.131838 1.854267,-3.140565 0.916792,-1.584485 0.899799,-1.5997834 0.874346,-1.6197825 0.839529,-1.6437206 0.79919,-1.6689583 0.75359,-1.695358 0.702728,-1.72291828 0.646603,-1.75164002 0.585215,-1.7815227 0.518924,-1.8119433 0.452444,-1.8397656 0.389058,-1.86497 0.32881,-1.8876503 0.27174,-1.907805 0.21782,-1.925436 0.16705,-1.94054 0.11945,-1.953123 0.075,-1.963171 0.0373,-1.970043 0.005,-1.974518 -0.0256,-1.977284 -0.0537,-1.978336 -0.0795,-1.97768 -0.10305,-1.975309 -0.26754,-3.936677 -0.33459,-3.906517 -0.39259,-3.862289 -0.448842,-3.808224 -0.503246,-3.745212 -0.271447,-1.846184 -0.284357,-1.827072 -0.297033,-1.806851 -0.309483,-1.785503 -0.321697,-1.763042 -0.333811,-1.739529 -0.346925,-1.715733 -0.360453,-1.691642 -0.374142,-1.66716 -0.388,-1.642266 -0.402029,-1.616989 -0.416222,-1.591309 z"
       style="fill:none;fill-rule:evenodd;stroke:#191919;stroke-width:0.34999999;stroke-miterlimit:4;stroke-dasharray:none"
       inkscape:connector-curvature="0"
       sodipodi:nodetypes="cccccccccccccccccccccccccccccccccccccccccccccccccccccccccccccccccccccccccccccccccccccccccccccccccccccccccccccccccccccccccccccccccccccccccccccccccccccccccccccccccccccccccccccccccccccccccccccccccccccccccccccccccccccccccccccccccccccccccccccccccccccccccccccccccccccccccccccccccccccccccccccccccccccccccccccccccccccccccccccccc" />
    <title
       id="title643">plantilla34001 (Solid)001</title>
  </g>
</svg>
