M48
;DRILL file {KiCad (5.0.0)} date 11/05/19 16:00:02
;FORMAT={-:-/ absolute / metric / decimal}
FMAT,2
METRIC,TZ
T1C0.370
T2C0.400
T3C0.500
%
G90
G05
M71
T1
X153.289Y-109.671
X154.259Y-88.111
X158.869Y-151.211
X159.789Y-130.851
X162.169Y-65.591
X163.539Y-166.621
X167.099Y-106.711
X167.869Y-86.991
X168.219Y-177.631
X168.339Y-113.921
X169.749Y-217.201
X169.939Y-238.531
X170.169Y-75.491
X171.819Y-195.971
X174.939Y-130.141
X175.089Y-140.701
X175.269Y-43.691
X175.719Y-262.771
X175.869Y-67.791
X177.069Y-94.291
X177.599Y-115.651
X179.069Y-52.991
X180.669Y-152.361
X181.259Y-156.641
X181.649Y-134.461
X182.369Y-72.591
X182.819Y-175.451
X183.649Y-114.041
X183.969Y-93.491
X183.989Y-166.961
X184.099Y-232.361
X184.519Y-137.011
X185.039Y-256.781
X185.129Y-189.621
X185.339Y-250.131
X185.602Y-179.191
X185.669Y-70.491
X186.249Y-198.121
X186.999Y-238.561
X187.769Y-48.991
X187.935Y-176.351
X188.249Y-155.751
X189.369Y-52.491
X190.229Y-230.051
X190.249Y-234.161
X190.469Y-95.591
X191.849Y-253.371
X192.169Y-26.691
X193.059Y-114.291
X193.269Y-104.491
X193.369Y-73.391
X194.029Y-210.341
X194.059Y-204.521
X194.149Y-207.781
X194.159Y-203.341
X195.469Y-183.641
X195.569Y-186.241
X195.719Y-166.791
X196.069Y-38.691
X196.069Y-164.721
X196.119Y-176.491
X196.519Y-159.321
X196.669Y-170.091
X197.049Y-166.151
X197.119Y-209.981
X197.149Y-264.221
X197.329Y-175.561
X197.369Y-203.821
X197.469Y-181.241
X197.619Y-205.221
X197.769Y-207.551
X197.949Y-176.011
X197.989Y-203.011
X198.079Y-82.821
X198.359Y-164.491
X198.469Y-179.341
X198.569Y-185.041
X198.619Y-171.641
X198.649Y-176.601
X198.669Y-169.666
X199.269Y-157.541
X199.329Y-175.921
X199.699Y-133.741
X199.769Y-193.991
X200.669Y-126.691
X200.994Y-160.566
X201.469Y-107.591
X201.499Y-55.121
X201.959Y-130.881
X201.959Y-147.961
X202.044Y-158.166
X202.069Y-34.991
X202.269Y-175.678
X202.939Y-184.211
X203.069Y-173.171
X203.669Y-168.641
X203.719Y-164.491
X203.839Y-154.761
X204.119Y-169.691
X204.239Y-217.231
X204.454Y-159.423
X204.719Y-149.651
X205.189Y-179.271
X205.319Y-188.041
X205.329Y-159.771
X205.519Y-187.091
X205.999Y-232.651
X206.294Y-166.366
X206.509Y-151.911
X206.649Y-157.601
X206.769Y-182.041
X206.844Y-163.166
X206.919Y-144.591
X206.999Y-148.161
X207.319Y-149.861
X207.439Y-185.531
X207.612Y-148.499
X207.619Y-152.491
X207.659Y-157.051
X207.859Y-144.582
X207.869Y-171.091
X207.894Y-145.366
X208.169Y-166.091
X208.419Y-252.771
X208.569Y-170.791
X208.639Y-149.241
X208.939Y-161.221
X209.069Y-171.591
X209.689Y-156.397
X209.719Y-160.381
X209.869Y-170.991
X209.919Y-195.291
X210.099Y-217.641
X210.169Y-139.491
X210.239Y-164.871
X210.344Y-157.866
X210.719Y-183.817
X210.84Y-176.591
X210.869Y-102.981
X210.869Y-148.091
X211.269Y-156.291
X211.444Y-149.241
X211.444Y-151.231
X211.469Y-195.091
X211.869Y-156.991
X212.139Y-150.551
X212.169Y-160.691
X212.169Y-192.991
X212.369Y-206.741
X212.869Y-145.691
X213.019Y-185.241
X213.069Y-207.941
X213.169Y-156.591
X213.269Y-167.421
X213.311Y-154.109
X213.359Y-154.958
X213.569Y-144.891
X213.569Y-172.991
X213.869Y-156.391
X214.963Y-165.788
X214.969Y-156.191
X215.069Y-181.091
X215.189Y-184.151
X215.319Y-192.941
X215.499Y-187.001
X215.619Y-147.691
X215.929Y-158.031
X216.169Y-149.691
X216.549Y-149.081
X216.579Y-130.081
X216.649Y-145.571
X216.919Y-189.791
X217.142Y-162.969
X217.209Y-124.775
X217.369Y-164.391
X217.519Y-264.121
X217.769Y-175.491
X217.869Y-40.391
X217.971Y-32.065
X218.265Y-189.341
X218.394Y-154.466
X218.799Y-257.011
X218.969Y-87.991
X219.159Y-193.211
X219.269Y-189.241
X219.749Y-135.697
X219.769Y-144.566
X219.969Y-156.591
X219.969Y-162.091
X219.994Y-147.641
X220.269Y-64.891
X220.327Y-147.005
X220.524Y-144.736
X220.669Y-159.591
X220.765Y-127.569
X220.975Y-145.272
X222.569Y-238.491
X222.789Y-233.261
X222.909Y-48.801
X225.169Y-35.491
X226.059Y-71.771
X226.569Y-38.691
X227.623Y-130.109
X229.369Y-60.691
X229.569Y-56.291
X230.169Y-83.891
X231.069Y-78.391
X232.769Y-103.291
X235.769Y-109.691
X239.769Y-102.691
T2
X203.519Y-191.091
X207.869Y-205.791
X208.169Y-197.091
X209.269Y-186.291
X210.569Y-203.441
X212.469Y-197.591
X212.669Y-204.091
X213.969Y-209.391
X215.519Y-194.941
X216.619Y-184.041
X216.719Y-193.941
X218.469Y-139.091
X220.718Y-206.972
X222.969Y-139.091
T3
X221.589Y-190.751
X221.659Y-191.748
T0
M30
