G04 #@! TF.GenerationSoftware,KiCad,Pcbnew,(5.0.0)*
G04 #@! TF.CreationDate,2019-11-05T15:59:09+01:00*
G04 #@! TF.ProjectId,Insole_PCB,496E736F6C655F5043422E6B69636164,rev?*
G04 #@! TF.SameCoordinates,Original*
G04 #@! TF.FileFunction,Paste,Top*
G04 #@! TF.FilePolarity,Positive*
%FSLAX46Y46*%
G04 Gerber Fmt 4.6, Leading zero omitted, Abs format (unit mm)*
G04 Created by KiCad (PCBNEW (5.0.0)) date 11/05/19 15:59:09*
%MOMM*%
%LPD*%
G01*
G04 APERTURE LIST*
%ADD10C,0.100000*%
%ADD11C,1.150000*%
%ADD12C,1.900000*%
%ADD13C,0.400000*%
G04 APERTURE END LIST*
D10*
G04 #@! TO.C,L2*
G36*
X216945625Y-145410634D02*
X216969763Y-145415026D01*
X216993353Y-145421762D01*
X217016170Y-145430779D01*
X217037993Y-145441988D01*
X217600912Y-145766989D01*
X217621532Y-145780284D01*
X217640749Y-145795536D01*
X217658378Y-145812598D01*
X217674250Y-145831305D01*
X217688213Y-145851478D01*
X217700130Y-145872923D01*
X217709888Y-145895433D01*
X217717393Y-145918790D01*
X217722573Y-145942771D01*
X217725377Y-145967144D01*
X217725778Y-145991675D01*
X217723773Y-146016126D01*
X217719381Y-146040264D01*
X217712645Y-146063854D01*
X217703628Y-146086671D01*
X217692419Y-146108494D01*
X217242418Y-146887919D01*
X217229123Y-146908539D01*
X217213871Y-146927756D01*
X217196809Y-146945385D01*
X217178102Y-146961258D01*
X217157928Y-146975220D01*
X217136484Y-146987137D01*
X217113974Y-146996896D01*
X217090617Y-147004400D01*
X217066636Y-147009580D01*
X217042263Y-147012384D01*
X217017732Y-147012785D01*
X216993281Y-147010780D01*
X216969143Y-147006388D01*
X216945553Y-146999652D01*
X216922736Y-146990635D01*
X216900913Y-146979426D01*
X216337994Y-146654425D01*
X216317374Y-146641130D01*
X216298157Y-146625878D01*
X216280528Y-146608816D01*
X216264656Y-146590109D01*
X216250693Y-146569936D01*
X216238776Y-146548491D01*
X216229018Y-146525981D01*
X216221513Y-146502624D01*
X216216333Y-146478643D01*
X216213529Y-146454270D01*
X216213128Y-146429739D01*
X216215133Y-146405288D01*
X216219525Y-146381150D01*
X216226261Y-146357560D01*
X216235278Y-146334743D01*
X216246487Y-146312920D01*
X216696488Y-145533495D01*
X216709783Y-145512875D01*
X216725035Y-145493658D01*
X216742097Y-145476029D01*
X216760804Y-145460156D01*
X216780978Y-145446194D01*
X216802422Y-145434277D01*
X216824932Y-145424518D01*
X216848289Y-145417014D01*
X216872270Y-145411834D01*
X216896643Y-145409030D01*
X216921174Y-145408629D01*
X216945625Y-145410634D01*
X216945625Y-145410634D01*
G37*
D11*
X216969453Y-146210707D03*
D10*
G36*
X215170273Y-144385634D02*
X215194411Y-144390026D01*
X215218001Y-144396762D01*
X215240818Y-144405779D01*
X215262641Y-144416988D01*
X215825560Y-144741989D01*
X215846180Y-144755284D01*
X215865397Y-144770536D01*
X215883026Y-144787598D01*
X215898898Y-144806305D01*
X215912861Y-144826478D01*
X215924778Y-144847923D01*
X215934536Y-144870433D01*
X215942041Y-144893790D01*
X215947221Y-144917771D01*
X215950025Y-144942144D01*
X215950426Y-144966675D01*
X215948421Y-144991126D01*
X215944029Y-145015264D01*
X215937293Y-145038854D01*
X215928276Y-145061671D01*
X215917067Y-145083494D01*
X215467066Y-145862919D01*
X215453771Y-145883539D01*
X215438519Y-145902756D01*
X215421457Y-145920385D01*
X215402750Y-145936258D01*
X215382576Y-145950220D01*
X215361132Y-145962137D01*
X215338622Y-145971896D01*
X215315265Y-145979400D01*
X215291284Y-145984580D01*
X215266911Y-145987384D01*
X215242380Y-145987785D01*
X215217929Y-145985780D01*
X215193791Y-145981388D01*
X215170201Y-145974652D01*
X215147384Y-145965635D01*
X215125561Y-145954426D01*
X214562642Y-145629425D01*
X214542022Y-145616130D01*
X214522805Y-145600878D01*
X214505176Y-145583816D01*
X214489304Y-145565109D01*
X214475341Y-145544936D01*
X214463424Y-145523491D01*
X214453666Y-145500981D01*
X214446161Y-145477624D01*
X214440981Y-145453643D01*
X214438177Y-145429270D01*
X214437776Y-145404739D01*
X214439781Y-145380288D01*
X214444173Y-145356150D01*
X214450909Y-145332560D01*
X214459926Y-145309743D01*
X214471135Y-145287920D01*
X214921136Y-144508495D01*
X214934431Y-144487875D01*
X214949683Y-144468658D01*
X214966745Y-144451029D01*
X214985452Y-144435156D01*
X215005626Y-144421194D01*
X215027070Y-144409277D01*
X215049580Y-144399518D01*
X215072937Y-144392014D01*
X215096918Y-144386834D01*
X215121291Y-144384030D01*
X215145822Y-144383629D01*
X215170273Y-144385634D01*
X215170273Y-144385634D01*
G37*
D11*
X215194101Y-145185707D03*
G04 #@! TD*
D10*
G04 #@! TO.C,L1*
G36*
X218370273Y-153665634D02*
X218394411Y-153670026D01*
X218418001Y-153676762D01*
X218440818Y-153685779D01*
X218462641Y-153696988D01*
X219025560Y-154021989D01*
X219046180Y-154035284D01*
X219065397Y-154050536D01*
X219083026Y-154067598D01*
X219098898Y-154086305D01*
X219112861Y-154106478D01*
X219124778Y-154127923D01*
X219134536Y-154150433D01*
X219142041Y-154173790D01*
X219147221Y-154197771D01*
X219150025Y-154222144D01*
X219150426Y-154246675D01*
X219148421Y-154271126D01*
X219144029Y-154295264D01*
X219137293Y-154318854D01*
X219128276Y-154341671D01*
X219117067Y-154363494D01*
X218667066Y-155142919D01*
X218653771Y-155163539D01*
X218638519Y-155182756D01*
X218621457Y-155200385D01*
X218602750Y-155216258D01*
X218582576Y-155230220D01*
X218561132Y-155242137D01*
X218538622Y-155251896D01*
X218515265Y-155259400D01*
X218491284Y-155264580D01*
X218466911Y-155267384D01*
X218442380Y-155267785D01*
X218417929Y-155265780D01*
X218393791Y-155261388D01*
X218370201Y-155254652D01*
X218347384Y-155245635D01*
X218325561Y-155234426D01*
X217762642Y-154909425D01*
X217742022Y-154896130D01*
X217722805Y-154880878D01*
X217705176Y-154863816D01*
X217689304Y-154845109D01*
X217675341Y-154824936D01*
X217663424Y-154803491D01*
X217653666Y-154780981D01*
X217646161Y-154757624D01*
X217640981Y-154733643D01*
X217638177Y-154709270D01*
X217637776Y-154684739D01*
X217639781Y-154660288D01*
X217644173Y-154636150D01*
X217650909Y-154612560D01*
X217659926Y-154589743D01*
X217671135Y-154567920D01*
X218121136Y-153788495D01*
X218134431Y-153767875D01*
X218149683Y-153748658D01*
X218166745Y-153731029D01*
X218185452Y-153715156D01*
X218205626Y-153701194D01*
X218227070Y-153689277D01*
X218249580Y-153679518D01*
X218272937Y-153672014D01*
X218296918Y-153666834D01*
X218321291Y-153664030D01*
X218345822Y-153663629D01*
X218370273Y-153665634D01*
X218370273Y-153665634D01*
G37*
D11*
X218394101Y-154465707D03*
D10*
G36*
X220145625Y-154690634D02*
X220169763Y-154695026D01*
X220193353Y-154701762D01*
X220216170Y-154710779D01*
X220237993Y-154721988D01*
X220800912Y-155046989D01*
X220821532Y-155060284D01*
X220840749Y-155075536D01*
X220858378Y-155092598D01*
X220874250Y-155111305D01*
X220888213Y-155131478D01*
X220900130Y-155152923D01*
X220909888Y-155175433D01*
X220917393Y-155198790D01*
X220922573Y-155222771D01*
X220925377Y-155247144D01*
X220925778Y-155271675D01*
X220923773Y-155296126D01*
X220919381Y-155320264D01*
X220912645Y-155343854D01*
X220903628Y-155366671D01*
X220892419Y-155388494D01*
X220442418Y-156167919D01*
X220429123Y-156188539D01*
X220413871Y-156207756D01*
X220396809Y-156225385D01*
X220378102Y-156241258D01*
X220357928Y-156255220D01*
X220336484Y-156267137D01*
X220313974Y-156276896D01*
X220290617Y-156284400D01*
X220266636Y-156289580D01*
X220242263Y-156292384D01*
X220217732Y-156292785D01*
X220193281Y-156290780D01*
X220169143Y-156286388D01*
X220145553Y-156279652D01*
X220122736Y-156270635D01*
X220100913Y-156259426D01*
X219537994Y-155934425D01*
X219517374Y-155921130D01*
X219498157Y-155905878D01*
X219480528Y-155888816D01*
X219464656Y-155870109D01*
X219450693Y-155849936D01*
X219438776Y-155828491D01*
X219429018Y-155805981D01*
X219421513Y-155782624D01*
X219416333Y-155758643D01*
X219413529Y-155734270D01*
X219413128Y-155709739D01*
X219415133Y-155685288D01*
X219419525Y-155661150D01*
X219426261Y-155637560D01*
X219435278Y-155614743D01*
X219446487Y-155592920D01*
X219896488Y-154813495D01*
X219909783Y-154792875D01*
X219925035Y-154773658D01*
X219942097Y-154756029D01*
X219960804Y-154740156D01*
X219980978Y-154726194D01*
X220002422Y-154714277D01*
X220024932Y-154704518D01*
X220048289Y-154697014D01*
X220072270Y-154691834D01*
X220096643Y-154689030D01*
X220121174Y-154688629D01*
X220145625Y-154690634D01*
X220145625Y-154690634D01*
G37*
D11*
X220169453Y-155490707D03*
G04 #@! TD*
D12*
G04 #@! TO.C,J1*
X222791261Y-206783597D03*
D10*
G36*
X221808685Y-205867330D02*
X223707528Y-205801021D01*
X223773837Y-207699864D01*
X221874994Y-207766173D01*
X221808685Y-205867330D01*
X221808685Y-205867330D01*
G37*
D12*
X218643789Y-206928430D03*
D10*
G36*
X217661213Y-206012163D02*
X219560056Y-205945854D01*
X219626365Y-207844697D01*
X217727522Y-207911006D01*
X217661213Y-206012163D01*
X217661213Y-206012163D01*
G37*
D12*
X222445756Y-196889628D03*
D10*
G36*
X221463180Y-195973361D02*
X223362023Y-195907052D01*
X223428332Y-197805895D01*
X221529489Y-197872204D01*
X221463180Y-195973361D01*
X221463180Y-195973361D01*
G37*
D12*
X218298284Y-197034461D03*
D10*
G36*
X217315708Y-196118194D02*
X219214551Y-196051885D01*
X219280860Y-197950728D01*
X217382017Y-198017037D01*
X217315708Y-196118194D01*
X217315708Y-196118194D01*
G37*
D13*
X218116650Y-203294614D03*
D10*
G36*
X217410097Y-203119165D02*
X218809244Y-203070306D01*
X218823203Y-203470063D01*
X217424056Y-203518922D01*
X217410097Y-203119165D01*
X217410097Y-203119165D01*
G37*
D13*
X218093965Y-202645010D03*
D10*
G36*
X217387412Y-202469561D02*
X218786559Y-202420702D01*
X218800518Y-202820459D01*
X217401371Y-202869318D01*
X217387412Y-202469561D01*
X217387412Y-202469561D01*
G37*
D13*
X218071281Y-201995405D03*
D10*
G36*
X217364728Y-201819956D02*
X218763875Y-201771097D01*
X218777834Y-202170854D01*
X217378687Y-202219713D01*
X217364728Y-201819956D01*
X217364728Y-201819956D01*
G37*
D13*
X218048596Y-201345801D03*
D10*
G36*
X217342043Y-201170352D02*
X218741190Y-201121493D01*
X218755149Y-201521250D01*
X217356002Y-201570109D01*
X217342043Y-201170352D01*
X217342043Y-201170352D01*
G37*
D13*
X218025911Y-200696197D03*
D10*
G36*
X217319358Y-200520748D02*
X218718505Y-200471889D01*
X218732464Y-200871646D01*
X217333317Y-200920505D01*
X217319358Y-200520748D01*
X217319358Y-200520748D01*
G37*
G04 #@! TD*
M02*
