G04 #@! TF.GenerationSoftware,KiCad,Pcbnew,(5.0.0)*
G04 #@! TF.CreationDate,2019-11-05T15:59:09+01:00*
G04 #@! TF.ProjectId,Insole_PCB,496E736F6C655F5043422E6B69636164,rev?*
G04 #@! TF.SameCoordinates,Original*
G04 #@! TF.FileFunction,Profile,NP*
%FSLAX46Y46*%
G04 Gerber Fmt 4.6, Leading zero omitted, Abs format (unit mm)*
G04 Created by KiCad (PCBNEW (5.0.0)) date 11/05/19 15:59:09*
%MOMM*%
%LPD*%
G01*
G04 APERTURE LIST*
%ADD10C,0.100000*%
G04 APERTURE END LIST*
D10*
X219289453Y-205370707D02*
X219099453Y-198510707D01*
X219288954Y-205374791D02*
G75*
G03X219639453Y-205670707I320499J24084D01*
G01*
X223699453Y-205510707D02*
X219629453Y-205670707D01*
X219399208Y-198217450D02*
G75*
G03X219099453Y-198560707I24329J-323757D01*
G01*
X224059952Y-205806623D02*
G75*
G03X223709453Y-205510707I-320499J-24084D01*
G01*
X223423537Y-198041206D02*
G75*
G03X223719453Y-197690707I-24084J320499D01*
G01*
X223734293Y-175922495D02*
X223652093Y-178412475D01*
X239519503Y-122078413D02*
X238548463Y-124170097D01*
X226339713Y-154220449D02*
X225832703Y-156542824D01*
X244435503Y-109027105D02*
X243765677Y-111285871D01*
X243765677Y-111285871D02*
X243025095Y-113504530D01*
X243025095Y-113504530D02*
X242221949Y-115688434D01*
X245028719Y-106722711D02*
X244435503Y-109027105D01*
X226914723Y-151927558D02*
X226339713Y-154220449D01*
X228260893Y-147430612D02*
X227556583Y-149664697D01*
X225007023Y-161267228D02*
X224679943Y-163664945D01*
X224404453Y-166083467D02*
X224176333Y-168520639D01*
X227058383Y-233518945D02*
X227478193Y-235636758D01*
X225389873Y-158892469D02*
X225007023Y-161267228D01*
X225832703Y-156542824D02*
X225389873Y-158892469D01*
X223845453Y-173442306D02*
X223734293Y-175922495D01*
X225125993Y-220137247D02*
X225383663Y-222442224D01*
X224059453Y-205800707D02*
X224166773Y-208253976D01*
X230703993Y-140888040D02*
X229839053Y-143043581D01*
X229023203Y-145224006D02*
X228260893Y-147430612D01*
X225383663Y-222442224D02*
X225665663Y-224719400D01*
X226306793Y-229183687D02*
X226668123Y-231367723D01*
X238548463Y-124170097D02*
X236550463Y-128324083D01*
X240460921Y-119970695D02*
X239519503Y-122078413D01*
X245541384Y-104369146D02*
X245028719Y-106722711D01*
X224166773Y-208253976D02*
X224488743Y-213072282D01*
X223991403Y-170974302D02*
X223845453Y-173442306D01*
X224891633Y-217806154D02*
X225125993Y-220137247D01*
X224176333Y-168520639D02*
X223991403Y-170974302D01*
X223556493Y-183411997D02*
X223544393Y-188423746D01*
X242221949Y-115688434D02*
X241364481Y-117842262D01*
X228408543Y-239769518D02*
X228811413Y-241663381D01*
X227928063Y-237720499D02*
X228408543Y-239769518D01*
X236550463Y-128324083D02*
X234532793Y-132470096D01*
X224679563Y-215450609D02*
X224891633Y-217806154D01*
X232561333Y-136645579D02*
X231613573Y-138756086D01*
X241364481Y-117842262D02*
X240460921Y-119970695D01*
X234532793Y-132470096D02*
X232561333Y-136645579D01*
X227478193Y-235636758D02*
X227928063Y-237720499D01*
X227556583Y-149664697D02*
X226914723Y-151927558D01*
X226668123Y-231367723D02*
X227058383Y-233518945D01*
X224679943Y-163664945D02*
X224404453Y-166083467D01*
X229839053Y-143043581D02*
X229023203Y-145224006D01*
X231613573Y-138756086D02*
X230703993Y-140888040D01*
X225973033Y-226967111D02*
X226306793Y-229183687D01*
X225665663Y-224719400D02*
X225973033Y-226967111D01*
X224488743Y-213072282D02*
X224679563Y-215450609D01*
X223439453Y-198040707D02*
X219389453Y-198220707D01*
X223599453Y-193030707D02*
X223719453Y-197680707D01*
X223544393Y-188423746D02*
X223599453Y-193050707D01*
X223652093Y-178412475D02*
X223556493Y-183411997D01*
X246347253Y-66750971D02*
X246445413Y-69542207D01*
X231308213Y-15312788D02*
X232013363Y-15674858D01*
X244314561Y-41750228D02*
X244574815Y-43615948D01*
X230579293Y-14980118D02*
X231308213Y-15312788D01*
X245262517Y-49682535D02*
X245461331Y-51865747D01*
X223778453Y-13229088D02*
X224727323Y-13368038D01*
X243746468Y-38245368D02*
X244038506Y-39960498D01*
X235220583Y-17991678D02*
X235805973Y-18569428D01*
X221794453Y-13008538D02*
X222800873Y-13109628D01*
X246734773Y-84910223D02*
X246753613Y-88275716D01*
X245048612Y-47580743D02*
X245262517Y-49682535D01*
X242044003Y-30748498D02*
X242416551Y-32108018D01*
X241655667Y-29455818D02*
X242044003Y-30748498D01*
X233997033Y-16956168D02*
X234617973Y-17454538D01*
X233356683Y-16494688D02*
X233997033Y-16956168D01*
X229045703Y-14395518D02*
X229825493Y-14674958D01*
X224727323Y-13368038D02*
X225647613Y-13527648D01*
X246703163Y-81643839D02*
X246734773Y-84910223D01*
X239946721Y-24921568D02*
X240397061Y-25962848D01*
X246600903Y-75402963D02*
X246658603Y-78475206D01*
X244038506Y-39960498D02*
X244314561Y-41750228D01*
X229825493Y-14674958D02*
X230579293Y-14980118D01*
X246658603Y-78475206D02*
X246703163Y-81643839D01*
X237994443Y-21329198D02*
X238504923Y-22144568D01*
X236375213Y-19189688D02*
X236929403Y-19854318D01*
X232013363Y-15674858D02*
X232695813Y-16068198D01*
X243438268Y-36603478D02*
X243746468Y-38245368D01*
X242773190Y-33535958D02*
X243113801Y-35033918D01*
X246235249Y-64050676D02*
X246347253Y-66750971D01*
X244574815Y-43615948D02*
X244819436Y-45559008D01*
X242416551Y-32108018D02*
X242773190Y-33535958D01*
X235805973Y-18569428D02*
X236375213Y-19189688D01*
X225647613Y-13527648D02*
X226539473Y-13709038D01*
X245968999Y-58917482D02*
X246109223Y-61439966D01*
X228238373Y-14141828D02*
X229045703Y-14395518D01*
X245969599Y-101962919D02*
X245541384Y-104369146D01*
X246309454Y-99500543D02*
X245969599Y-101962919D01*
X246109223Y-61439966D02*
X246235249Y-64050676D01*
X239000531Y-23014018D02*
X239481172Y-23939158D01*
X246557043Y-96978536D02*
X246309454Y-99500543D01*
X246645023Y-95694086D02*
X246557043Y-96978536D01*
X246708463Y-94393415D02*
X246645023Y-95694086D01*
X245814393Y-56481859D02*
X245968999Y-58917482D01*
X246753613Y-88275716D02*
X246759813Y-91741689D01*
X240397061Y-25962848D02*
X240832078Y-27064588D01*
X246746893Y-93076093D02*
X246708463Y-94393415D01*
X240832078Y-27064588D02*
X241251653Y-28228378D01*
X234617973Y-17454538D02*
X235220583Y-17991678D01*
X227403013Y-13913388D02*
X228238373Y-14141828D01*
X239481172Y-23939158D02*
X239946721Y-24921568D01*
X246445413Y-69542207D02*
X246529903Y-72425752D01*
X245645230Y-54131731D02*
X245814393Y-56481859D01*
X245461331Y-51865747D02*
X245645230Y-54131731D01*
X246529903Y-72425752D02*
X246600903Y-75402963D01*
X244819436Y-45559008D02*
X245048612Y-47580743D01*
X241251653Y-28228378D02*
X241655667Y-29455818D01*
X237469233Y-20566318D02*
X237994443Y-21329198D01*
X232695813Y-16068198D02*
X233356683Y-16494688D01*
X243113801Y-35033918D02*
X243438268Y-36603478D01*
X238504923Y-22144568D02*
X239000531Y-23014018D01*
X236929403Y-19854318D02*
X237469233Y-20566318D01*
X222800873Y-13109628D02*
X223778453Y-13229088D01*
X226539473Y-13709038D02*
X227403013Y-13913388D01*
X246759813Y-91741689D02*
X246746893Y-93076093D01*
X148542013Y-74664636D02*
X148984973Y-73127313D01*
X167125773Y-43535668D02*
X169434833Y-40650278D01*
X154101763Y-61859216D02*
X154928553Y-60481317D01*
X153313253Y-63236360D02*
X154101763Y-61859216D01*
X150002563Y-70192224D02*
X150577253Y-68775270D01*
X187443093Y-21391668D02*
X188989673Y-20223548D01*
X183133163Y-25162658D02*
X184521763Y-23866438D01*
X205024393Y-13438428D02*
X206359803Y-13226378D01*
X202507623Y-13957428D02*
X203741363Y-13682748D01*
X210711253Y-12803238D02*
X212287103Y-12739638D01*
X169434833Y-40650278D02*
X171787813Y-37760338D01*
X217477713Y-12764738D02*
X218600823Y-12803938D01*
X209200153Y-12906838D02*
X210711253Y-12803238D01*
X207750693Y-13048538D02*
X209200153Y-12906838D01*
X180465403Y-27846758D02*
X181783353Y-26491168D01*
X220759063Y-12924638D02*
X221794453Y-13008538D01*
X219694563Y-12856838D02*
X220759063Y-12924638D01*
X218600823Y-12803938D02*
X219694563Y-12856838D01*
X199070593Y-14945128D02*
X200175113Y-14590098D01*
X201320023Y-14260478D02*
X202507623Y-13957428D01*
X157619893Y-56327661D02*
X158581063Y-54931306D01*
X152564903Y-64614305D02*
X153313253Y-63236360D01*
X216325093Y-12738138D02*
X217477713Y-12764738D01*
X215142823Y-12723038D02*
X216325093Y-12738138D01*
X213930793Y-12718038D02*
X215142823Y-12723038D01*
X194080703Y-17064238D02*
X195014603Y-16598098D01*
X162688833Y-49272660D02*
X164872753Y-46411428D01*
X192294413Y-18052518D02*
X193174673Y-17549388D01*
X148142893Y-76261270D02*
X148542013Y-74664636D01*
X181783353Y-26491168D02*
X183133163Y-25162658D01*
X158581063Y-54931306D02*
X160587093Y-52114465D01*
X160587093Y-52114465D02*
X162688833Y-49272660D01*
X212287103Y-12739638D02*
X213930793Y-12718038D01*
X206359803Y-13226378D02*
X207750693Y-13048538D01*
X203741363Y-13682748D02*
X205024393Y-13438428D01*
X200175113Y-14590098D02*
X201320023Y-14260478D01*
X198004363Y-15324508D02*
X199070593Y-14945128D01*
X196974353Y-15727168D02*
X198004363Y-15324508D01*
X195978463Y-16152068D02*
X196974353Y-15727168D01*
X195014603Y-16598098D02*
X195978463Y-16152068D01*
X188989673Y-20223548D02*
X190602903Y-19108418D01*
X193174673Y-17549388D02*
X194080703Y-17064238D01*
X179172413Y-29224218D02*
X180465403Y-27846758D01*
X164872753Y-46411428D02*
X167125773Y-43535668D01*
X147082323Y-82528367D02*
X147203203Y-81549668D01*
X147474823Y-79685243D02*
X147787533Y-77928826D01*
X146971133Y-83541249D02*
X147082323Y-82528367D01*
X174187693Y-34879798D02*
X176645533Y-32027968D01*
X190602903Y-19108418D02*
X192294413Y-18052518D01*
X185956103Y-22607698D02*
X187443093Y-21391668D01*
X155791753Y-59101121D02*
X156689493Y-57717088D01*
X147333973Y-80602761D02*
X147474823Y-79685243D01*
X171787813Y-37760338D02*
X174187693Y-34879798D01*
X151195913Y-67379251D02*
X151858583Y-65994592D01*
X150577253Y-68775270D02*
X151195913Y-67379251D01*
X156689493Y-57717088D02*
X157619893Y-56327661D01*
X151858583Y-65994592D02*
X152564903Y-64614305D01*
X147203203Y-81549668D02*
X147333973Y-80602761D01*
X148984973Y-73127313D02*
X149471813Y-71639703D01*
X184521763Y-23866438D02*
X185956103Y-22607698D01*
X176645533Y-32027968D02*
X179172413Y-29224218D01*
X154928553Y-60481317D02*
X155791753Y-59101121D01*
X149471813Y-71639703D02*
X150002563Y-70192224D01*
X147787533Y-77928826D02*
X148142893Y-76261270D01*
X188244743Y-279325788D02*
X186385843Y-278782828D01*
X228461013Y-255120638D02*
X227959373Y-256991108D01*
X181045873Y-276511438D02*
X179365433Y-275548918D01*
X228851493Y-253223838D02*
X228461013Y-255120638D01*
X167551543Y-263010068D02*
X166690693Y-261275348D01*
X192042323Y-280078518D02*
X190132433Y-279758178D01*
X223857993Y-265725268D02*
X222739073Y-267305878D01*
X182780133Y-277373208D02*
X181045873Y-276511438D01*
X165282953Y-257668898D02*
X164740973Y-255809708D01*
X203593473Y-279612668D02*
X201690953Y-279974238D01*
X169572283Y-266312308D02*
X168513193Y-264690998D01*
X225806833Y-262380088D02*
X224881763Y-264081428D01*
X201690953Y-279974238D02*
X199770423Y-280223008D01*
X226629973Y-260627158D02*
X225806833Y-262380088D01*
X210892463Y-277069248D02*
X209127213Y-277865618D01*
X170725133Y-267868348D02*
X169572283Y-266312308D01*
X190132433Y-279758178D02*
X188244743Y-279325788D01*
X193967783Y-280285688D02*
X192042323Y-280078518D01*
X229129443Y-251307308D02*
X228851493Y-253223838D01*
X197838563Y-280358088D02*
X195902113Y-280378988D01*
X221528903Y-268817758D02*
X220231683Y-270255648D01*
X227959373Y-256991108D02*
X227348323Y-258828738D01*
X217394473Y-272889748D02*
X215864353Y-274076778D01*
X166690693Y-261275348D02*
X165933613Y-259492888D01*
X186385843Y-278782828D02*
X184562193Y-278131218D01*
X199770423Y-280223008D02*
X197838563Y-280358088D01*
X171967723Y-269353698D02*
X170725133Y-267868348D01*
X222739073Y-267305878D02*
X221528903Y-268817758D01*
X174704543Y-272091948D02*
X173295733Y-270763208D01*
X164194343Y-240142243D02*
X164311823Y-238106858D01*
X163849863Y-244283590D02*
X164040773Y-242200402D01*
X173295733Y-270763208D02*
X171967723Y-269353698D01*
X214266903Y-275171528D02*
X212607683Y-276170168D01*
X164040773Y-242200402D02*
X164194343Y-240142243D01*
X163713763Y-246215364D02*
X163849863Y-244283590D01*
X176189243Y-273335318D02*
X174704543Y-272091948D01*
X163691763Y-248151808D02*
X163713763Y-246215364D01*
X209127213Y-277865618D02*
X207318083Y-278556518D01*
X163784063Y-250086178D02*
X163691763Y-248151808D01*
X207318083Y-278556518D02*
X205471363Y-279139558D01*
X163990233Y-252011748D02*
X163784063Y-250086178D01*
X212607683Y-276170168D02*
X210892463Y-277069248D01*
X224881763Y-264081428D02*
X223857993Y-265725268D01*
X164309573Y-253921798D02*
X163990233Y-252011748D01*
X177744683Y-274488978D02*
X176189243Y-273335318D01*
X179365433Y-275548918D02*
X177744683Y-274488978D01*
X164740973Y-255809708D02*
X164309573Y-253921798D01*
X184562193Y-278131218D02*
X182780133Y-277373208D01*
X205471363Y-279139558D02*
X203593473Y-279612668D01*
X218851943Y-271614558D02*
X217394473Y-272889748D01*
X227348323Y-258828738D02*
X226629973Y-260627158D01*
X165933613Y-259492888D02*
X165282953Y-257668898D01*
X220231683Y-270255648D02*
X218851943Y-271614558D01*
X195902113Y-280378988D02*
X193967783Y-280285688D01*
X168513193Y-264690998D02*
X167551543Y-263010068D01*
X215864353Y-274076778D02*
X214266903Y-275171528D01*
X229293913Y-249377738D02*
X229129443Y-251307308D01*
X229344313Y-247441818D02*
X229293913Y-249377738D01*
X229280513Y-245506307D02*
X229344313Y-247441818D01*
X229102663Y-243577920D02*
X229280513Y-245506307D01*
X228811413Y-241663381D02*
X229102663Y-243577920D01*
X164311823Y-238106858D02*
X164394423Y-236092019D01*
X157611443Y-167311627D02*
X157207733Y-165078506D01*
X161505193Y-197764997D02*
X161244723Y-195520589D01*
X161762673Y-199975328D02*
X161505193Y-197764997D01*
X163208423Y-212531518D02*
X162753423Y-208469724D01*
X151612883Y-143754760D02*
X150546483Y-140258834D01*
X153801953Y-150911978D02*
X153257283Y-149082404D01*
X146278283Y-112115151D02*
X146272283Y-110769628D01*
X146330083Y-114724357D02*
X146297783Y-113433251D01*
X146496753Y-90470410D02*
X146553853Y-89202176D01*
X157207733Y-165078506D02*
X156780403Y-162897418D01*
X146447953Y-91789964D02*
X146496753Y-90470410D01*
X146274653Y-106596189D02*
X146277653Y-104645070D01*
X146272653Y-108636441D02*
X146274653Y-106596189D01*
X154862733Y-154698763D02*
X154338453Y-152781464D01*
X146406753Y-93164517D02*
X146447953Y-91789964D01*
X146372553Y-94597867D02*
X146406753Y-93164517D01*
X146344653Y-96093808D02*
X146372553Y-94597867D01*
X146677603Y-120790290D02*
X146502153Y-118440087D01*
X146375083Y-115988906D02*
X146330083Y-114724357D01*
X160178423Y-186218068D02*
X159616483Y-181433454D01*
X162016763Y-202151101D02*
X161762673Y-199975328D01*
X146322453Y-97656125D02*
X146344653Y-96093808D01*
X146305353Y-99288621D02*
X146322453Y-97656125D01*
X146292653Y-100995080D02*
X146305353Y-99288621D01*
X148208053Y-131219754D02*
X147824553Y-129282443D01*
X158350393Y-171914594D02*
X157991553Y-169593234D01*
X149068953Y-134936203D02*
X148623913Y-133101253D01*
X164401123Y-228193582D02*
X164228783Y-224307580D01*
X154338453Y-152781464D02*
X153801953Y-150911978D01*
X159616483Y-181433454D02*
X159012933Y-176643750D01*
X159012933Y-176643750D02*
X158350393Y-171914594D01*
X146283653Y-102779302D02*
X146292653Y-100995080D01*
X146277653Y-104645070D02*
X146283653Y-102779302D01*
X146272283Y-110769628D02*
X146272653Y-108636441D01*
X146297783Y-113433251D02*
X146278283Y-112115151D01*
X146502153Y-118440087D02*
X146375083Y-115988906D01*
X146900003Y-123043006D02*
X146677603Y-120790290D01*
X147167353Y-125203332D02*
X146900003Y-123043006D01*
X147476593Y-127280057D02*
X147167353Y-125203332D01*
X150546483Y-140258834D02*
X149540013Y-136733868D01*
X147824553Y-129282443D02*
X147476593Y-127280057D01*
X155370633Y-156669036D02*
X154862733Y-154698763D01*
X148623913Y-133101253D02*
X148208053Y-131219754D01*
X157991553Y-169593234D02*
X157611443Y-167311627D01*
X149540013Y-136733868D02*
X149068953Y-134936203D01*
X164460023Y-232115083D02*
X164445523Y-230148515D01*
X156330863Y-160768631D02*
X155860473Y-158692414D01*
X152708323Y-147284903D02*
X151612883Y-143754760D01*
X153257283Y-149082404D02*
X152708323Y-147284903D01*
X160981653Y-193242585D02*
X160716383Y-190931470D01*
X164443423Y-234095506D02*
X164460023Y-232115083D01*
X156780403Y-162897418D02*
X156330863Y-160768631D01*
X162513153Y-206397180D02*
X162267073Y-204291833D01*
X162753423Y-208469724D02*
X162513153Y-206397180D01*
X160716383Y-190931470D02*
X160178423Y-186218068D01*
X162267073Y-204291833D02*
X162016763Y-202151101D01*
X164394423Y-236092019D02*
X164443423Y-234095506D01*
X163961693Y-220421891D02*
X163616373Y-216506059D01*
X155860473Y-158692414D02*
X155370633Y-156669036D01*
X161244723Y-195520589D02*
X160981653Y-193242585D01*
X163616373Y-216506059D02*
X163208423Y-212531518D01*
X164228783Y-224307580D02*
X163961693Y-220421891D01*
X164445523Y-230148515D02*
X164401123Y-228193582D01*
X146777053Y-85679135D02*
X146869453Y-84590707D01*
X146693753Y-86808927D02*
X146777053Y-85679135D01*
X146553853Y-89202176D02*
X146619453Y-87982476D01*
X146619453Y-87982476D02*
X146693753Y-86808927D01*
X146869453Y-84590707D02*
X146971133Y-83541249D01*
M02*
