G04 #@! TF.GenerationSoftware,KiCad,Pcbnew,(5.0.0)*
G04 #@! TF.CreationDate,2019-11-05T15:59:09+01:00*
G04 #@! TF.ProjectId,Insole_PCB,496E736F6C655F5043422E6B69636164,rev?*
G04 #@! TF.SameCoordinates,Original*
G04 #@! TF.FileFunction,Paste,Bot*
G04 #@! TF.FilePolarity,Positive*
%FSLAX46Y46*%
G04 Gerber Fmt 4.6, Leading zero omitted, Abs format (unit mm)*
G04 Created by KiCad (PCBNEW (5.0.0)) date 11/05/19 15:59:09*
%MOMM*%
%LPD*%
G01*
G04 APERTURE LIST*
%ADD10C,0.100000*%
%ADD11C,0.875000*%
%ADD12C,0.800000*%
%ADD13C,1.800000*%
%ADD14C,0.500000*%
%ADD15C,0.400000*%
%ADD16C,0.410000*%
%ADD17C,0.650000*%
%ADD18R,0.800000X0.900000*%
%ADD19C,0.450000*%
%ADD20R,0.450000X1.500000*%
%ADD21R,1.500000X0.450000*%
%ADD22C,1.150000*%
%ADD23R,0.675000X0.250000*%
%ADD24R,0.250000X0.675000*%
G04 APERTURE END LIST*
D10*
G04 #@! TO.C,C16*
G36*
X212806818Y-190892753D02*
X212827955Y-190896504D01*
X212848623Y-190902308D01*
X212868622Y-190910111D01*
X212887760Y-190919836D01*
X212905852Y-190931390D01*
X212922725Y-190944661D01*
X212938216Y-190959523D01*
X212952175Y-190975832D01*
X212964469Y-190993430D01*
X212974979Y-191012148D01*
X212983603Y-191031807D01*
X212990259Y-191052216D01*
X212994883Y-191073179D01*
X212997429Y-191094495D01*
X213033179Y-191605747D01*
X213033624Y-191627209D01*
X213031963Y-191648612D01*
X213028212Y-191669749D01*
X213022408Y-191690416D01*
X213014605Y-191710415D01*
X213004880Y-191729553D01*
X212993326Y-191747646D01*
X212980055Y-191764519D01*
X212965193Y-191780010D01*
X212948884Y-191793969D01*
X212931286Y-191806263D01*
X212912568Y-191816773D01*
X212892909Y-191825397D01*
X212872500Y-191832053D01*
X212851537Y-191836677D01*
X212830221Y-191839223D01*
X212393787Y-191869741D01*
X212372325Y-191870186D01*
X212350922Y-191868525D01*
X212329785Y-191864774D01*
X212309117Y-191858970D01*
X212289118Y-191851167D01*
X212269980Y-191841442D01*
X212251888Y-191829888D01*
X212235015Y-191816617D01*
X212219524Y-191801755D01*
X212205565Y-191785446D01*
X212193271Y-191767848D01*
X212182761Y-191749130D01*
X212174137Y-191729471D01*
X212167481Y-191709062D01*
X212162857Y-191688099D01*
X212160311Y-191666783D01*
X212124561Y-191155531D01*
X212124116Y-191134069D01*
X212125777Y-191112666D01*
X212129528Y-191091529D01*
X212135332Y-191070862D01*
X212143135Y-191050863D01*
X212152860Y-191031725D01*
X212164414Y-191013632D01*
X212177685Y-190996759D01*
X212192547Y-190981268D01*
X212208856Y-190967309D01*
X212226454Y-190955015D01*
X212245172Y-190944505D01*
X212264831Y-190935881D01*
X212285240Y-190929225D01*
X212306203Y-190924601D01*
X212327519Y-190922055D01*
X212763953Y-190891537D01*
X212785415Y-190891092D01*
X212806818Y-190892753D01*
X212806818Y-190892753D01*
G37*
D11*
X212578870Y-191380639D03*
D10*
G36*
X214377982Y-190782887D02*
X214399119Y-190786638D01*
X214419787Y-190792442D01*
X214439786Y-190800245D01*
X214458924Y-190809970D01*
X214477016Y-190821524D01*
X214493889Y-190834795D01*
X214509380Y-190849657D01*
X214523339Y-190865966D01*
X214535633Y-190883564D01*
X214546143Y-190902282D01*
X214554767Y-190921941D01*
X214561423Y-190942350D01*
X214566047Y-190963313D01*
X214568593Y-190984629D01*
X214604343Y-191495881D01*
X214604788Y-191517343D01*
X214603127Y-191538746D01*
X214599376Y-191559883D01*
X214593572Y-191580550D01*
X214585769Y-191600549D01*
X214576044Y-191619687D01*
X214564490Y-191637780D01*
X214551219Y-191654653D01*
X214536357Y-191670144D01*
X214520048Y-191684103D01*
X214502450Y-191696397D01*
X214483732Y-191706907D01*
X214464073Y-191715531D01*
X214443664Y-191722187D01*
X214422701Y-191726811D01*
X214401385Y-191729357D01*
X213964951Y-191759875D01*
X213943489Y-191760320D01*
X213922086Y-191758659D01*
X213900949Y-191754908D01*
X213880281Y-191749104D01*
X213860282Y-191741301D01*
X213841144Y-191731576D01*
X213823052Y-191720022D01*
X213806179Y-191706751D01*
X213790688Y-191691889D01*
X213776729Y-191675580D01*
X213764435Y-191657982D01*
X213753925Y-191639264D01*
X213745301Y-191619605D01*
X213738645Y-191599196D01*
X213734021Y-191578233D01*
X213731475Y-191556917D01*
X213695725Y-191045665D01*
X213695280Y-191024203D01*
X213696941Y-191002800D01*
X213700692Y-190981663D01*
X213706496Y-190960996D01*
X213714299Y-190940997D01*
X213724024Y-190921859D01*
X213735578Y-190903766D01*
X213748849Y-190886893D01*
X213763711Y-190871402D01*
X213780020Y-190857443D01*
X213797618Y-190845149D01*
X213816336Y-190834639D01*
X213835995Y-190826015D01*
X213856404Y-190819359D01*
X213877367Y-190814735D01*
X213898683Y-190812189D01*
X214335117Y-190781671D01*
X214356579Y-190781226D01*
X214377982Y-190782887D01*
X214377982Y-190782887D01*
G37*
D11*
X214150034Y-191270773D03*
G04 #@! TD*
D10*
G04 #@! TO.C,C15*
G36*
X212926237Y-192462687D02*
X212947374Y-192466438D01*
X212968042Y-192472242D01*
X212988041Y-192480045D01*
X213007179Y-192489770D01*
X213025271Y-192501324D01*
X213042144Y-192514595D01*
X213057635Y-192529457D01*
X213071594Y-192545766D01*
X213083888Y-192563364D01*
X213094398Y-192582082D01*
X213103022Y-192601741D01*
X213109678Y-192622150D01*
X213114302Y-192643113D01*
X213116848Y-192664429D01*
X213152598Y-193175681D01*
X213153043Y-193197143D01*
X213151382Y-193218546D01*
X213147631Y-193239683D01*
X213141827Y-193260350D01*
X213134024Y-193280349D01*
X213124299Y-193299487D01*
X213112745Y-193317580D01*
X213099474Y-193334453D01*
X213084612Y-193349944D01*
X213068303Y-193363903D01*
X213050705Y-193376197D01*
X213031987Y-193386707D01*
X213012328Y-193395331D01*
X212991919Y-193401987D01*
X212970956Y-193406611D01*
X212949640Y-193409157D01*
X212513206Y-193439675D01*
X212491744Y-193440120D01*
X212470341Y-193438459D01*
X212449204Y-193434708D01*
X212428536Y-193428904D01*
X212408537Y-193421101D01*
X212389399Y-193411376D01*
X212371307Y-193399822D01*
X212354434Y-193386551D01*
X212338943Y-193371689D01*
X212324984Y-193355380D01*
X212312690Y-193337782D01*
X212302180Y-193319064D01*
X212293556Y-193299405D01*
X212286900Y-193278996D01*
X212282276Y-193258033D01*
X212279730Y-193236717D01*
X212243980Y-192725465D01*
X212243535Y-192704003D01*
X212245196Y-192682600D01*
X212248947Y-192661463D01*
X212254751Y-192640796D01*
X212262554Y-192620797D01*
X212272279Y-192601659D01*
X212283833Y-192583566D01*
X212297104Y-192566693D01*
X212311966Y-192551202D01*
X212328275Y-192537243D01*
X212345873Y-192524949D01*
X212364591Y-192514439D01*
X212384250Y-192505815D01*
X212404659Y-192499159D01*
X212425622Y-192494535D01*
X212446938Y-192491989D01*
X212883372Y-192461471D01*
X212904834Y-192461026D01*
X212926237Y-192462687D01*
X212926237Y-192462687D01*
G37*
D11*
X212698289Y-192950573D03*
D10*
G36*
X214497401Y-192352821D02*
X214518538Y-192356572D01*
X214539206Y-192362376D01*
X214559205Y-192370179D01*
X214578343Y-192379904D01*
X214596435Y-192391458D01*
X214613308Y-192404729D01*
X214628799Y-192419591D01*
X214642758Y-192435900D01*
X214655052Y-192453498D01*
X214665562Y-192472216D01*
X214674186Y-192491875D01*
X214680842Y-192512284D01*
X214685466Y-192533247D01*
X214688012Y-192554563D01*
X214723762Y-193065815D01*
X214724207Y-193087277D01*
X214722546Y-193108680D01*
X214718795Y-193129817D01*
X214712991Y-193150484D01*
X214705188Y-193170483D01*
X214695463Y-193189621D01*
X214683909Y-193207714D01*
X214670638Y-193224587D01*
X214655776Y-193240078D01*
X214639467Y-193254037D01*
X214621869Y-193266331D01*
X214603151Y-193276841D01*
X214583492Y-193285465D01*
X214563083Y-193292121D01*
X214542120Y-193296745D01*
X214520804Y-193299291D01*
X214084370Y-193329809D01*
X214062908Y-193330254D01*
X214041505Y-193328593D01*
X214020368Y-193324842D01*
X213999700Y-193319038D01*
X213979701Y-193311235D01*
X213960563Y-193301510D01*
X213942471Y-193289956D01*
X213925598Y-193276685D01*
X213910107Y-193261823D01*
X213896148Y-193245514D01*
X213883854Y-193227916D01*
X213873344Y-193209198D01*
X213864720Y-193189539D01*
X213858064Y-193169130D01*
X213853440Y-193148167D01*
X213850894Y-193126851D01*
X213815144Y-192615599D01*
X213814699Y-192594137D01*
X213816360Y-192572734D01*
X213820111Y-192551597D01*
X213825915Y-192530930D01*
X213833718Y-192510931D01*
X213843443Y-192491793D01*
X213854997Y-192473700D01*
X213868268Y-192456827D01*
X213883130Y-192441336D01*
X213899439Y-192427377D01*
X213917037Y-192415083D01*
X213935755Y-192404573D01*
X213955414Y-192395949D01*
X213975823Y-192389293D01*
X213996786Y-192384669D01*
X214018102Y-192382123D01*
X214454536Y-192351605D01*
X214475998Y-192351160D01*
X214497401Y-192352821D01*
X214497401Y-192352821D01*
G37*
D11*
X214269453Y-192840707D03*
G04 #@! TD*
D12*
G04 #@! TO.C,U9*
X214620929Y-209009825D03*
D10*
G36*
X215217336Y-208533591D02*
X215314832Y-209327628D01*
X214024522Y-209486059D01*
X213927026Y-208692022D01*
X215217336Y-208533591D01*
X215217336Y-208533591D01*
G37*
D12*
X214464936Y-207739366D03*
D10*
G36*
X215061343Y-207263132D02*
X215158839Y-208057169D01*
X213868529Y-208215600D01*
X213771033Y-207421563D01*
X215061343Y-207263132D01*
X215061343Y-207263132D01*
G37*
D12*
X220717977Y-206971589D03*
D10*
G36*
X221314384Y-206495355D02*
X221411880Y-207289392D01*
X220121570Y-207447823D01*
X220024074Y-206653786D01*
X221314384Y-206495355D01*
X221314384Y-206495355D01*
G37*
D12*
X220873970Y-208242048D03*
D10*
G36*
X221470377Y-207765814D02*
X221567873Y-208559851D01*
X220277563Y-208718282D01*
X220180067Y-207924245D01*
X221470377Y-207765814D01*
X221470377Y-207765814D01*
G37*
G04 #@! TD*
D12*
G04 #@! TO.C,U8*
X212135299Y-204524948D03*
D10*
G36*
X211530671Y-204990700D02*
X211447048Y-204195083D01*
X212739927Y-204059196D01*
X212823550Y-204854813D01*
X211530671Y-204990700D01*
X211530671Y-204990700D01*
G37*
D12*
X212269095Y-205797936D03*
D10*
G36*
X211664467Y-206263688D02*
X211580844Y-205468071D01*
X212873723Y-205332184D01*
X212957346Y-206127801D01*
X211664467Y-206263688D01*
X211664467Y-206263688D01*
G37*
D12*
X206003607Y-206456466D03*
D10*
G36*
X205398979Y-206922218D02*
X205315356Y-206126601D01*
X206608235Y-205990714D01*
X206691858Y-206786331D01*
X205398979Y-206922218D01*
X205398979Y-206922218D01*
G37*
D12*
X205869811Y-205183478D03*
D10*
G36*
X205265183Y-205649230D02*
X205181560Y-204853613D01*
X206474439Y-204717726D01*
X206558062Y-205513343D01*
X205265183Y-205649230D01*
X205265183Y-205649230D01*
G37*
G04 #@! TD*
D12*
G04 #@! TO.C,U7*
X208711279Y-196293024D03*
D10*
G36*
X209155646Y-196913538D02*
X208357595Y-196969343D01*
X208266912Y-195672510D01*
X209064963Y-195616705D01*
X209155646Y-196913538D01*
X209155646Y-196913538D01*
G37*
D12*
X209988161Y-196203736D03*
D10*
G36*
X210432528Y-196824250D02*
X209634477Y-196880055D01*
X209543794Y-195583222D01*
X210341845Y-195527417D01*
X210432528Y-196824250D01*
X210432528Y-196824250D01*
G37*
D12*
X210427627Y-202488390D03*
D10*
G36*
X210871994Y-203108904D02*
X210073943Y-203164709D01*
X209983260Y-201867876D01*
X210781311Y-201812071D01*
X210871994Y-203108904D01*
X210871994Y-203108904D01*
G37*
D12*
X209150745Y-202577678D03*
D10*
G36*
X209595112Y-203198192D02*
X208797061Y-203253997D01*
X208706378Y-201957164D01*
X209504429Y-201901359D01*
X209595112Y-203198192D01*
X209595112Y-203198192D01*
G37*
G04 #@! TD*
D12*
G04 #@! TO.C,U6*
X219451687Y-195578602D03*
D10*
G36*
X218839023Y-196033731D02*
X218769298Y-195236775D01*
X220064351Y-195123473D01*
X220134076Y-195920429D01*
X218839023Y-196033731D01*
X218839023Y-196033731D01*
G37*
D12*
X219563246Y-196853731D03*
D10*
G36*
X218950582Y-197308860D02*
X218880857Y-196511904D01*
X220175910Y-196398602D01*
X220245635Y-197195558D01*
X218950582Y-197308860D01*
X218950582Y-197308860D01*
G37*
D12*
X213287219Y-197402812D03*
D10*
G36*
X212674555Y-197857941D02*
X212604830Y-197060985D01*
X213899883Y-196947683D01*
X213969608Y-197744639D01*
X212674555Y-197857941D01*
X212674555Y-197857941D01*
G37*
D12*
X213175660Y-196127683D03*
D10*
G36*
X212562996Y-196582812D02*
X212493271Y-195785856D01*
X213788324Y-195672554D01*
X213858049Y-196469510D01*
X212562996Y-196582812D01*
X212562996Y-196582812D01*
G37*
G04 #@! TD*
D13*
G04 #@! TO.C,U5*
X217619453Y-186240707D03*
D10*
G36*
X218580041Y-187075734D02*
X216784426Y-187201295D01*
X216658865Y-185405680D01*
X218454480Y-185280119D01*
X218580041Y-187075734D01*
X218580041Y-187075734D01*
G37*
D14*
X216927741Y-184935780D03*
D10*
G36*
X217319267Y-185159012D02*
X216571094Y-185211330D01*
X216536215Y-184712548D01*
X217284388Y-184660230D01*
X217319267Y-185159012D01*
X217319267Y-185159012D01*
G37*
D15*
X217700853Y-184881718D03*
D10*
G36*
X217518779Y-185145060D02*
X217483901Y-184646278D01*
X217882927Y-184618376D01*
X217917805Y-185117158D01*
X217518779Y-185145060D01*
X217518779Y-185145060D01*
G37*
D15*
X218299391Y-184839865D03*
D10*
G36*
X218117317Y-185103207D02*
X218082439Y-184604425D01*
X218481465Y-184576523D01*
X218516343Y-185075305D01*
X218117317Y-185103207D01*
X218117317Y-185103207D01*
G37*
D15*
X218487734Y-187533287D03*
D10*
G36*
X218305660Y-187796629D02*
X218270782Y-187297847D01*
X218669808Y-187269945D01*
X218704686Y-187768727D01*
X218305660Y-187796629D01*
X218305660Y-187796629D01*
G37*
D15*
X217889200Y-187575141D03*
D10*
G36*
X217707126Y-187838483D02*
X217672248Y-187339701D01*
X218071274Y-187311799D01*
X218106152Y-187810581D01*
X217707126Y-187838483D01*
X217707126Y-187838483D01*
G37*
D14*
X217116083Y-187629203D03*
D10*
G36*
X217507609Y-187852435D02*
X216759436Y-187904753D01*
X216724557Y-187405971D01*
X217472730Y-187353653D01*
X217507609Y-187852435D01*
X217507609Y-187852435D01*
G37*
G04 #@! TD*
D16*
G04 #@! TO.C,U4*
X221498624Y-155224833D03*
D10*
G36*
X221571089Y-154689320D02*
X221926159Y-154894320D01*
X221426159Y-155760346D01*
X221071089Y-155555346D01*
X221571089Y-154689320D01*
X221571089Y-154689320D01*
G37*
D16*
X220831785Y-154839833D03*
D10*
G36*
X220904250Y-154304320D02*
X221259320Y-154509320D01*
X220759320Y-155375346D01*
X220404250Y-155170346D01*
X220904250Y-154304320D01*
X220904250Y-154304320D01*
G37*
D16*
X220173605Y-154459833D03*
D10*
G36*
X220246070Y-153924320D02*
X220601140Y-154129320D01*
X220101140Y-154995346D01*
X219746070Y-154790346D01*
X220246070Y-153924320D01*
X220246070Y-153924320D01*
G37*
D16*
X219515426Y-154079833D03*
D10*
G36*
X219587891Y-153544320D02*
X219942961Y-153749320D01*
X219442961Y-154615346D01*
X219087891Y-154410346D01*
X219587891Y-153544320D01*
X219587891Y-153544320D01*
G37*
D16*
X218857247Y-153699833D03*
D10*
G36*
X218929712Y-153164320D02*
X219284782Y-153369320D01*
X218784782Y-154235346D01*
X218429712Y-154030346D01*
X218929712Y-153164320D01*
X218929712Y-153164320D01*
G37*
D16*
X214758819Y-150698519D03*
D10*
G36*
X214223306Y-150626054D02*
X214428306Y-150270984D01*
X215294332Y-150770984D01*
X215089332Y-151126054D01*
X214223306Y-150626054D01*
X214223306Y-150626054D01*
G37*
D16*
X215138819Y-150040340D03*
D10*
G36*
X214603306Y-149967875D02*
X214808306Y-149612805D01*
X215674332Y-150112805D01*
X215469332Y-150467875D01*
X214603306Y-149967875D01*
X214603306Y-149967875D01*
G37*
D16*
X215523819Y-149373501D03*
D10*
G36*
X214988306Y-149301036D02*
X215193306Y-148945966D01*
X216059332Y-149445966D01*
X215854332Y-149801036D01*
X214988306Y-149301036D01*
X214988306Y-149301036D01*
G37*
D16*
X215903819Y-148715321D03*
D10*
G36*
X215368306Y-148642856D02*
X215573306Y-148287786D01*
X216439332Y-148787786D01*
X216234332Y-149142856D01*
X215368306Y-148642856D01*
X215368306Y-148642856D01*
G37*
D16*
X216283819Y-148057142D03*
D10*
G36*
X215748306Y-147984677D02*
X215953306Y-147629607D01*
X216819332Y-148129607D01*
X216614332Y-148484677D01*
X215748306Y-147984677D01*
X215748306Y-147984677D01*
G37*
D16*
X216663819Y-147398963D03*
D10*
G36*
X216128306Y-147326498D02*
X216333306Y-146971428D01*
X217199332Y-147471428D01*
X216994332Y-147826498D01*
X216128306Y-147326498D01*
X216128306Y-147326498D01*
G37*
D16*
X217043819Y-146740782D03*
D10*
G36*
X216508306Y-146668317D02*
X216713306Y-146313247D01*
X217579332Y-146813247D01*
X217374332Y-147168317D01*
X216508306Y-146668317D01*
X216508306Y-146668317D01*
G37*
D16*
X217428819Y-146073944D03*
D10*
G36*
X216893306Y-146001479D02*
X217098306Y-145646409D01*
X217964332Y-146146409D01*
X217759332Y-146501479D01*
X216893306Y-146001479D01*
X216893306Y-146001479D01*
G37*
D16*
X217808819Y-145415764D03*
D10*
G36*
X217273306Y-145343299D02*
X217478306Y-144988229D01*
X218344332Y-145488229D01*
X218139332Y-145843299D01*
X217273306Y-145343299D01*
X217273306Y-145343299D01*
G37*
D16*
X218188819Y-144757585D03*
D10*
G36*
X217653306Y-144685120D02*
X217858306Y-144330050D01*
X218724332Y-144830050D01*
X218519332Y-145185120D01*
X217653306Y-144685120D01*
X217653306Y-144685120D01*
G37*
D16*
X218568819Y-144099406D03*
D10*
G36*
X218033306Y-144026941D02*
X218238306Y-143671871D01*
X219104332Y-144171871D01*
X218899332Y-144526941D01*
X218033306Y-144026941D01*
X218033306Y-144026941D01*
G37*
D16*
X218948819Y-143441227D03*
D10*
G36*
X218413306Y-143368762D02*
X218618306Y-143013692D01*
X219484332Y-143513692D01*
X219279332Y-143868762D01*
X218413306Y-143368762D01*
X218413306Y-143368762D01*
G37*
D16*
X220302690Y-143576252D03*
D10*
G36*
X220375155Y-143040739D02*
X220730225Y-143245739D01*
X220230225Y-144111765D01*
X219875155Y-143906765D01*
X220375155Y-143040739D01*
X220375155Y-143040739D01*
G37*
D16*
X220960869Y-143956252D03*
D10*
G36*
X221033334Y-143420739D02*
X221388404Y-143625739D01*
X220888404Y-144491765D01*
X220533334Y-144286765D01*
X221033334Y-143420739D01*
X221033334Y-143420739D01*
G37*
D16*
X221619049Y-144336252D03*
D10*
G36*
X221691514Y-143800739D02*
X222046584Y-144005739D01*
X221546584Y-144871765D01*
X221191514Y-144666765D01*
X221691514Y-143800739D01*
X221691514Y-143800739D01*
G37*
D16*
X222277228Y-144716252D03*
D10*
G36*
X222349693Y-144180739D02*
X222704763Y-144385739D01*
X222204763Y-145251765D01*
X221849693Y-145046765D01*
X222349693Y-144180739D01*
X222349693Y-144180739D01*
G37*
D16*
X218199068Y-153319833D03*
D10*
G36*
X218271533Y-152784320D02*
X218626603Y-152989320D01*
X218126603Y-153855346D01*
X217771533Y-153650346D01*
X218271533Y-152784320D01*
X218271533Y-152784320D01*
G37*
G04 #@! TD*
D17*
G04 #@! TO.C,U3*
X211802195Y-181132221D03*
D10*
G36*
X212158675Y-181724376D02*
X211509565Y-181758394D01*
X211445715Y-180540066D01*
X212094825Y-180506048D01*
X212158675Y-181724376D01*
X212158675Y-181724376D01*
G37*
D17*
X213699591Y-181032783D03*
D10*
G36*
X214056071Y-181624938D02*
X213406961Y-181658956D01*
X213343111Y-180440628D01*
X213992221Y-180406610D01*
X214056071Y-181624938D01*
X214056071Y-181624938D01*
G37*
D17*
X213836711Y-183649193D03*
D10*
G36*
X214193191Y-184241348D02*
X213544081Y-184275366D01*
X213480231Y-183057038D01*
X214129341Y-183023020D01*
X214193191Y-184241348D01*
X214193191Y-184241348D01*
G37*
D17*
X212888013Y-183698912D03*
D10*
G36*
X213244493Y-184291067D02*
X212595383Y-184325085D01*
X212531533Y-183106757D01*
X213180643Y-183072739D01*
X213244493Y-184291067D01*
X213244493Y-184291067D01*
G37*
D17*
X211939315Y-183748631D03*
D10*
G36*
X212295795Y-184340786D02*
X211646685Y-184374804D01*
X211582835Y-183156476D01*
X212231945Y-183122458D01*
X212295795Y-184340786D01*
X212295795Y-184340786D01*
G37*
G04 #@! TD*
D17*
G04 #@! TO.C,U1*
X214186711Y-189349193D03*
D10*
G36*
X213830231Y-188757038D02*
X214479341Y-188723020D01*
X214543191Y-189941348D01*
X213894081Y-189975366D01*
X213830231Y-188757038D01*
X213830231Y-188757038D01*
G37*
D17*
X212289315Y-189448631D03*
D10*
G36*
X211932835Y-188856476D02*
X212581945Y-188822458D01*
X212645795Y-190040786D01*
X211996685Y-190074804D01*
X211932835Y-188856476D01*
X211932835Y-188856476D01*
G37*
D17*
X212152195Y-186832221D03*
D10*
G36*
X211795715Y-186240066D02*
X212444825Y-186206048D01*
X212508675Y-187424376D01*
X211859565Y-187458394D01*
X211795715Y-186240066D01*
X211795715Y-186240066D01*
G37*
D17*
X213100893Y-186782502D03*
D10*
G36*
X212744413Y-186190347D02*
X213393523Y-186156329D01*
X213457373Y-187374657D01*
X212808263Y-187408675D01*
X212744413Y-186190347D01*
X212744413Y-186190347D01*
G37*
D17*
X214049591Y-186732783D03*
D10*
G36*
X213693111Y-186140628D02*
X214342221Y-186106610D01*
X214406071Y-187324938D01*
X213756961Y-187358956D01*
X213693111Y-186140628D01*
X213693111Y-186140628D01*
G37*
G04 #@! TD*
G04 #@! TO.C,R14*
G36*
X218647144Y-167679260D02*
X218668379Y-167682410D01*
X218689203Y-167687626D01*
X218709415Y-167694858D01*
X218728821Y-167704037D01*
X218747234Y-167715073D01*
X218764477Y-167727861D01*
X218780383Y-167742277D01*
X218794799Y-167758183D01*
X218807587Y-167775426D01*
X218818623Y-167793839D01*
X218827802Y-167813245D01*
X218835034Y-167833457D01*
X218840250Y-167854281D01*
X218843400Y-167875516D01*
X218844453Y-167896957D01*
X218844453Y-168334457D01*
X218843400Y-168355898D01*
X218840250Y-168377133D01*
X218835034Y-168397957D01*
X218827802Y-168418169D01*
X218818623Y-168437575D01*
X218807587Y-168455988D01*
X218794799Y-168473231D01*
X218780383Y-168489137D01*
X218764477Y-168503553D01*
X218747234Y-168516341D01*
X218728821Y-168527377D01*
X218709415Y-168536556D01*
X218689203Y-168543788D01*
X218668379Y-168549004D01*
X218647144Y-168552154D01*
X218625703Y-168553207D01*
X218113203Y-168553207D01*
X218091762Y-168552154D01*
X218070527Y-168549004D01*
X218049703Y-168543788D01*
X218029491Y-168536556D01*
X218010085Y-168527377D01*
X217991672Y-168516341D01*
X217974429Y-168503553D01*
X217958523Y-168489137D01*
X217944107Y-168473231D01*
X217931319Y-168455988D01*
X217920283Y-168437575D01*
X217911104Y-168418169D01*
X217903872Y-168397957D01*
X217898656Y-168377133D01*
X217895506Y-168355898D01*
X217894453Y-168334457D01*
X217894453Y-167896957D01*
X217895506Y-167875516D01*
X217898656Y-167854281D01*
X217903872Y-167833457D01*
X217911104Y-167813245D01*
X217920283Y-167793839D01*
X217931319Y-167775426D01*
X217944107Y-167758183D01*
X217958523Y-167742277D01*
X217974429Y-167727861D01*
X217991672Y-167715073D01*
X218010085Y-167704037D01*
X218029491Y-167694858D01*
X218049703Y-167687626D01*
X218070527Y-167682410D01*
X218091762Y-167679260D01*
X218113203Y-167678207D01*
X218625703Y-167678207D01*
X218647144Y-167679260D01*
X218647144Y-167679260D01*
G37*
D11*
X218369453Y-168115707D03*
D10*
G36*
X218647144Y-169254260D02*
X218668379Y-169257410D01*
X218689203Y-169262626D01*
X218709415Y-169269858D01*
X218728821Y-169279037D01*
X218747234Y-169290073D01*
X218764477Y-169302861D01*
X218780383Y-169317277D01*
X218794799Y-169333183D01*
X218807587Y-169350426D01*
X218818623Y-169368839D01*
X218827802Y-169388245D01*
X218835034Y-169408457D01*
X218840250Y-169429281D01*
X218843400Y-169450516D01*
X218844453Y-169471957D01*
X218844453Y-169909457D01*
X218843400Y-169930898D01*
X218840250Y-169952133D01*
X218835034Y-169972957D01*
X218827802Y-169993169D01*
X218818623Y-170012575D01*
X218807587Y-170030988D01*
X218794799Y-170048231D01*
X218780383Y-170064137D01*
X218764477Y-170078553D01*
X218747234Y-170091341D01*
X218728821Y-170102377D01*
X218709415Y-170111556D01*
X218689203Y-170118788D01*
X218668379Y-170124004D01*
X218647144Y-170127154D01*
X218625703Y-170128207D01*
X218113203Y-170128207D01*
X218091762Y-170127154D01*
X218070527Y-170124004D01*
X218049703Y-170118788D01*
X218029491Y-170111556D01*
X218010085Y-170102377D01*
X217991672Y-170091341D01*
X217974429Y-170078553D01*
X217958523Y-170064137D01*
X217944107Y-170048231D01*
X217931319Y-170030988D01*
X217920283Y-170012575D01*
X217911104Y-169993169D01*
X217903872Y-169972957D01*
X217898656Y-169952133D01*
X217895506Y-169930898D01*
X217894453Y-169909457D01*
X217894453Y-169471957D01*
X217895506Y-169450516D01*
X217898656Y-169429281D01*
X217903872Y-169408457D01*
X217911104Y-169388245D01*
X217920283Y-169368839D01*
X217931319Y-169350426D01*
X217944107Y-169333183D01*
X217958523Y-169317277D01*
X217974429Y-169302861D01*
X217991672Y-169290073D01*
X218010085Y-169279037D01*
X218029491Y-169269858D01*
X218049703Y-169262626D01*
X218070527Y-169257410D01*
X218091762Y-169254260D01*
X218113203Y-169253207D01*
X218625703Y-169253207D01*
X218647144Y-169254260D01*
X218647144Y-169254260D01*
G37*
D11*
X218369453Y-169690707D03*
G04 #@! TD*
D10*
G04 #@! TO.C,R13*
G36*
X213847144Y-171541760D02*
X213868379Y-171544910D01*
X213889203Y-171550126D01*
X213909415Y-171557358D01*
X213928821Y-171566537D01*
X213947234Y-171577573D01*
X213964477Y-171590361D01*
X213980383Y-171604777D01*
X213994799Y-171620683D01*
X214007587Y-171637926D01*
X214018623Y-171656339D01*
X214027802Y-171675745D01*
X214035034Y-171695957D01*
X214040250Y-171716781D01*
X214043400Y-171738016D01*
X214044453Y-171759457D01*
X214044453Y-172196957D01*
X214043400Y-172218398D01*
X214040250Y-172239633D01*
X214035034Y-172260457D01*
X214027802Y-172280669D01*
X214018623Y-172300075D01*
X214007587Y-172318488D01*
X213994799Y-172335731D01*
X213980383Y-172351637D01*
X213964477Y-172366053D01*
X213947234Y-172378841D01*
X213928821Y-172389877D01*
X213909415Y-172399056D01*
X213889203Y-172406288D01*
X213868379Y-172411504D01*
X213847144Y-172414654D01*
X213825703Y-172415707D01*
X213313203Y-172415707D01*
X213291762Y-172414654D01*
X213270527Y-172411504D01*
X213249703Y-172406288D01*
X213229491Y-172399056D01*
X213210085Y-172389877D01*
X213191672Y-172378841D01*
X213174429Y-172366053D01*
X213158523Y-172351637D01*
X213144107Y-172335731D01*
X213131319Y-172318488D01*
X213120283Y-172300075D01*
X213111104Y-172280669D01*
X213103872Y-172260457D01*
X213098656Y-172239633D01*
X213095506Y-172218398D01*
X213094453Y-172196957D01*
X213094453Y-171759457D01*
X213095506Y-171738016D01*
X213098656Y-171716781D01*
X213103872Y-171695957D01*
X213111104Y-171675745D01*
X213120283Y-171656339D01*
X213131319Y-171637926D01*
X213144107Y-171620683D01*
X213158523Y-171604777D01*
X213174429Y-171590361D01*
X213191672Y-171577573D01*
X213210085Y-171566537D01*
X213229491Y-171557358D01*
X213249703Y-171550126D01*
X213270527Y-171544910D01*
X213291762Y-171541760D01*
X213313203Y-171540707D01*
X213825703Y-171540707D01*
X213847144Y-171541760D01*
X213847144Y-171541760D01*
G37*
D11*
X213569453Y-171978207D03*
D10*
G36*
X213847144Y-169966760D02*
X213868379Y-169969910D01*
X213889203Y-169975126D01*
X213909415Y-169982358D01*
X213928821Y-169991537D01*
X213947234Y-170002573D01*
X213964477Y-170015361D01*
X213980383Y-170029777D01*
X213994799Y-170045683D01*
X214007587Y-170062926D01*
X214018623Y-170081339D01*
X214027802Y-170100745D01*
X214035034Y-170120957D01*
X214040250Y-170141781D01*
X214043400Y-170163016D01*
X214044453Y-170184457D01*
X214044453Y-170621957D01*
X214043400Y-170643398D01*
X214040250Y-170664633D01*
X214035034Y-170685457D01*
X214027802Y-170705669D01*
X214018623Y-170725075D01*
X214007587Y-170743488D01*
X213994799Y-170760731D01*
X213980383Y-170776637D01*
X213964477Y-170791053D01*
X213947234Y-170803841D01*
X213928821Y-170814877D01*
X213909415Y-170824056D01*
X213889203Y-170831288D01*
X213868379Y-170836504D01*
X213847144Y-170839654D01*
X213825703Y-170840707D01*
X213313203Y-170840707D01*
X213291762Y-170839654D01*
X213270527Y-170836504D01*
X213249703Y-170831288D01*
X213229491Y-170824056D01*
X213210085Y-170814877D01*
X213191672Y-170803841D01*
X213174429Y-170791053D01*
X213158523Y-170776637D01*
X213144107Y-170760731D01*
X213131319Y-170743488D01*
X213120283Y-170725075D01*
X213111104Y-170705669D01*
X213103872Y-170685457D01*
X213098656Y-170664633D01*
X213095506Y-170643398D01*
X213094453Y-170621957D01*
X213094453Y-170184457D01*
X213095506Y-170163016D01*
X213098656Y-170141781D01*
X213103872Y-170120957D01*
X213111104Y-170100745D01*
X213120283Y-170081339D01*
X213131319Y-170062926D01*
X213144107Y-170045683D01*
X213158523Y-170029777D01*
X213174429Y-170015361D01*
X213191672Y-170002573D01*
X213210085Y-169991537D01*
X213229491Y-169982358D01*
X213249703Y-169975126D01*
X213270527Y-169969910D01*
X213291762Y-169966760D01*
X213313203Y-169965707D01*
X213825703Y-169965707D01*
X213847144Y-169966760D01*
X213847144Y-169966760D01*
G37*
D11*
X213569453Y-170403207D03*
G04 #@! TD*
D10*
G04 #@! TO.C,R12*
G36*
X215547144Y-169954260D02*
X215568379Y-169957410D01*
X215589203Y-169962626D01*
X215609415Y-169969858D01*
X215628821Y-169979037D01*
X215647234Y-169990073D01*
X215664477Y-170002861D01*
X215680383Y-170017277D01*
X215694799Y-170033183D01*
X215707587Y-170050426D01*
X215718623Y-170068839D01*
X215727802Y-170088245D01*
X215735034Y-170108457D01*
X215740250Y-170129281D01*
X215743400Y-170150516D01*
X215744453Y-170171957D01*
X215744453Y-170609457D01*
X215743400Y-170630898D01*
X215740250Y-170652133D01*
X215735034Y-170672957D01*
X215727802Y-170693169D01*
X215718623Y-170712575D01*
X215707587Y-170730988D01*
X215694799Y-170748231D01*
X215680383Y-170764137D01*
X215664477Y-170778553D01*
X215647234Y-170791341D01*
X215628821Y-170802377D01*
X215609415Y-170811556D01*
X215589203Y-170818788D01*
X215568379Y-170824004D01*
X215547144Y-170827154D01*
X215525703Y-170828207D01*
X215013203Y-170828207D01*
X214991762Y-170827154D01*
X214970527Y-170824004D01*
X214949703Y-170818788D01*
X214929491Y-170811556D01*
X214910085Y-170802377D01*
X214891672Y-170791341D01*
X214874429Y-170778553D01*
X214858523Y-170764137D01*
X214844107Y-170748231D01*
X214831319Y-170730988D01*
X214820283Y-170712575D01*
X214811104Y-170693169D01*
X214803872Y-170672957D01*
X214798656Y-170652133D01*
X214795506Y-170630898D01*
X214794453Y-170609457D01*
X214794453Y-170171957D01*
X214795506Y-170150516D01*
X214798656Y-170129281D01*
X214803872Y-170108457D01*
X214811104Y-170088245D01*
X214820283Y-170068839D01*
X214831319Y-170050426D01*
X214844107Y-170033183D01*
X214858523Y-170017277D01*
X214874429Y-170002861D01*
X214891672Y-169990073D01*
X214910085Y-169979037D01*
X214929491Y-169969858D01*
X214949703Y-169962626D01*
X214970527Y-169957410D01*
X214991762Y-169954260D01*
X215013203Y-169953207D01*
X215525703Y-169953207D01*
X215547144Y-169954260D01*
X215547144Y-169954260D01*
G37*
D11*
X215269453Y-170390707D03*
D10*
G36*
X215547144Y-171529260D02*
X215568379Y-171532410D01*
X215589203Y-171537626D01*
X215609415Y-171544858D01*
X215628821Y-171554037D01*
X215647234Y-171565073D01*
X215664477Y-171577861D01*
X215680383Y-171592277D01*
X215694799Y-171608183D01*
X215707587Y-171625426D01*
X215718623Y-171643839D01*
X215727802Y-171663245D01*
X215735034Y-171683457D01*
X215740250Y-171704281D01*
X215743400Y-171725516D01*
X215744453Y-171746957D01*
X215744453Y-172184457D01*
X215743400Y-172205898D01*
X215740250Y-172227133D01*
X215735034Y-172247957D01*
X215727802Y-172268169D01*
X215718623Y-172287575D01*
X215707587Y-172305988D01*
X215694799Y-172323231D01*
X215680383Y-172339137D01*
X215664477Y-172353553D01*
X215647234Y-172366341D01*
X215628821Y-172377377D01*
X215609415Y-172386556D01*
X215589203Y-172393788D01*
X215568379Y-172399004D01*
X215547144Y-172402154D01*
X215525703Y-172403207D01*
X215013203Y-172403207D01*
X214991762Y-172402154D01*
X214970527Y-172399004D01*
X214949703Y-172393788D01*
X214929491Y-172386556D01*
X214910085Y-172377377D01*
X214891672Y-172366341D01*
X214874429Y-172353553D01*
X214858523Y-172339137D01*
X214844107Y-172323231D01*
X214831319Y-172305988D01*
X214820283Y-172287575D01*
X214811104Y-172268169D01*
X214803872Y-172247957D01*
X214798656Y-172227133D01*
X214795506Y-172205898D01*
X214794453Y-172184457D01*
X214794453Y-171746957D01*
X214795506Y-171725516D01*
X214798656Y-171704281D01*
X214803872Y-171683457D01*
X214811104Y-171663245D01*
X214820283Y-171643839D01*
X214831319Y-171625426D01*
X214844107Y-171608183D01*
X214858523Y-171592277D01*
X214874429Y-171577861D01*
X214891672Y-171565073D01*
X214910085Y-171554037D01*
X214929491Y-171544858D01*
X214949703Y-171537626D01*
X214970527Y-171532410D01*
X214991762Y-171529260D01*
X215013203Y-171528207D01*
X215525703Y-171528207D01*
X215547144Y-171529260D01*
X215547144Y-171529260D01*
G37*
D11*
X215269453Y-171965707D03*
G04 #@! TD*
D10*
G04 #@! TO.C,R11*
G36*
X219688852Y-193230282D02*
X219710051Y-193233664D01*
X219730817Y-193239107D01*
X219750949Y-193246559D01*
X219770254Y-193255948D01*
X219788545Y-193267185D01*
X219805647Y-193280160D01*
X219821395Y-193294749D01*
X219835637Y-193310811D01*
X219848236Y-193328193D01*
X219859071Y-193346725D01*
X219868037Y-193366230D01*
X219875048Y-193386520D01*
X219880037Y-193407399D01*
X219882955Y-193428667D01*
X219927622Y-193939217D01*
X219928441Y-193960668D01*
X219927154Y-193982097D01*
X219923772Y-194003296D01*
X219918330Y-194024062D01*
X219910877Y-194044194D01*
X219901488Y-194063498D01*
X219890251Y-194081790D01*
X219877276Y-194098892D01*
X219862687Y-194114640D01*
X219846625Y-194128882D01*
X219829244Y-194141481D01*
X219810711Y-194152316D01*
X219791206Y-194161282D01*
X219770916Y-194168293D01*
X219750037Y-194173282D01*
X219728769Y-194176200D01*
X219292934Y-194214330D01*
X219271483Y-194215149D01*
X219250054Y-194213862D01*
X219228855Y-194210480D01*
X219208089Y-194205037D01*
X219187957Y-194197585D01*
X219168652Y-194188196D01*
X219150361Y-194176959D01*
X219133259Y-194163984D01*
X219117511Y-194149395D01*
X219103269Y-194133333D01*
X219090670Y-194115951D01*
X219079835Y-194097419D01*
X219070869Y-194077914D01*
X219063858Y-194057624D01*
X219058869Y-194036745D01*
X219055951Y-194015477D01*
X219011284Y-193504927D01*
X219010465Y-193483476D01*
X219011752Y-193462047D01*
X219015134Y-193440848D01*
X219020576Y-193420082D01*
X219028029Y-193399950D01*
X219037418Y-193380646D01*
X219048655Y-193362354D01*
X219061630Y-193345252D01*
X219076219Y-193329504D01*
X219092281Y-193315262D01*
X219109662Y-193302663D01*
X219128195Y-193291828D01*
X219147700Y-193282862D01*
X219167990Y-193275851D01*
X219188869Y-193270862D01*
X219210137Y-193267944D01*
X219645972Y-193229814D01*
X219667423Y-193228995D01*
X219688852Y-193230282D01*
X219688852Y-193230282D01*
G37*
D11*
X219469453Y-193722072D03*
D10*
G36*
X218119846Y-193367552D02*
X218141045Y-193370934D01*
X218161811Y-193376377D01*
X218181943Y-193383829D01*
X218201248Y-193393218D01*
X218219539Y-193404455D01*
X218236641Y-193417430D01*
X218252389Y-193432019D01*
X218266631Y-193448081D01*
X218279230Y-193465463D01*
X218290065Y-193483995D01*
X218299031Y-193503500D01*
X218306042Y-193523790D01*
X218311031Y-193544669D01*
X218313949Y-193565937D01*
X218358616Y-194076487D01*
X218359435Y-194097938D01*
X218358148Y-194119367D01*
X218354766Y-194140566D01*
X218349324Y-194161332D01*
X218341871Y-194181464D01*
X218332482Y-194200768D01*
X218321245Y-194219060D01*
X218308270Y-194236162D01*
X218293681Y-194251910D01*
X218277619Y-194266152D01*
X218260238Y-194278751D01*
X218241705Y-194289586D01*
X218222200Y-194298552D01*
X218201910Y-194305563D01*
X218181031Y-194310552D01*
X218159763Y-194313470D01*
X217723928Y-194351600D01*
X217702477Y-194352419D01*
X217681048Y-194351132D01*
X217659849Y-194347750D01*
X217639083Y-194342307D01*
X217618951Y-194334855D01*
X217599646Y-194325466D01*
X217581355Y-194314229D01*
X217564253Y-194301254D01*
X217548505Y-194286665D01*
X217534263Y-194270603D01*
X217521664Y-194253221D01*
X217510829Y-194234689D01*
X217501863Y-194215184D01*
X217494852Y-194194894D01*
X217489863Y-194174015D01*
X217486945Y-194152747D01*
X217442278Y-193642197D01*
X217441459Y-193620746D01*
X217442746Y-193599317D01*
X217446128Y-193578118D01*
X217451570Y-193557352D01*
X217459023Y-193537220D01*
X217468412Y-193517916D01*
X217479649Y-193499624D01*
X217492624Y-193482522D01*
X217507213Y-193466774D01*
X217523275Y-193452532D01*
X217540656Y-193439933D01*
X217559189Y-193429098D01*
X217578694Y-193420132D01*
X217598984Y-193413121D01*
X217619863Y-193408132D01*
X217641131Y-193405214D01*
X218076966Y-193367084D01*
X218098417Y-193366265D01*
X218119846Y-193367552D01*
X218119846Y-193367552D01*
G37*
D11*
X217900447Y-193859342D03*
G04 #@! TD*
D10*
G04 #@! TO.C,R10*
G36*
X216687644Y-181958760D02*
X216708879Y-181961910D01*
X216729703Y-181967126D01*
X216749915Y-181974358D01*
X216769321Y-181983537D01*
X216787734Y-181994573D01*
X216804977Y-182007361D01*
X216820883Y-182021777D01*
X216835299Y-182037683D01*
X216848087Y-182054926D01*
X216859123Y-182073339D01*
X216868302Y-182092745D01*
X216875534Y-182112957D01*
X216880750Y-182133781D01*
X216883900Y-182155016D01*
X216884953Y-182176457D01*
X216884953Y-182688957D01*
X216883900Y-182710398D01*
X216880750Y-182731633D01*
X216875534Y-182752457D01*
X216868302Y-182772669D01*
X216859123Y-182792075D01*
X216848087Y-182810488D01*
X216835299Y-182827731D01*
X216820883Y-182843637D01*
X216804977Y-182858053D01*
X216787734Y-182870841D01*
X216769321Y-182881877D01*
X216749915Y-182891056D01*
X216729703Y-182898288D01*
X216708879Y-182903504D01*
X216687644Y-182906654D01*
X216666203Y-182907707D01*
X216228703Y-182907707D01*
X216207262Y-182906654D01*
X216186027Y-182903504D01*
X216165203Y-182898288D01*
X216144991Y-182891056D01*
X216125585Y-182881877D01*
X216107172Y-182870841D01*
X216089929Y-182858053D01*
X216074023Y-182843637D01*
X216059607Y-182827731D01*
X216046819Y-182810488D01*
X216035783Y-182792075D01*
X216026604Y-182772669D01*
X216019372Y-182752457D01*
X216014156Y-182731633D01*
X216011006Y-182710398D01*
X216009953Y-182688957D01*
X216009953Y-182176457D01*
X216011006Y-182155016D01*
X216014156Y-182133781D01*
X216019372Y-182112957D01*
X216026604Y-182092745D01*
X216035783Y-182073339D01*
X216046819Y-182054926D01*
X216059607Y-182037683D01*
X216074023Y-182021777D01*
X216089929Y-182007361D01*
X216107172Y-181994573D01*
X216125585Y-181983537D01*
X216144991Y-181974358D01*
X216165203Y-181967126D01*
X216186027Y-181961910D01*
X216207262Y-181958760D01*
X216228703Y-181957707D01*
X216666203Y-181957707D01*
X216687644Y-181958760D01*
X216687644Y-181958760D01*
G37*
D11*
X216447453Y-182432707D03*
D10*
G36*
X218262644Y-181958760D02*
X218283879Y-181961910D01*
X218304703Y-181967126D01*
X218324915Y-181974358D01*
X218344321Y-181983537D01*
X218362734Y-181994573D01*
X218379977Y-182007361D01*
X218395883Y-182021777D01*
X218410299Y-182037683D01*
X218423087Y-182054926D01*
X218434123Y-182073339D01*
X218443302Y-182092745D01*
X218450534Y-182112957D01*
X218455750Y-182133781D01*
X218458900Y-182155016D01*
X218459953Y-182176457D01*
X218459953Y-182688957D01*
X218458900Y-182710398D01*
X218455750Y-182731633D01*
X218450534Y-182752457D01*
X218443302Y-182772669D01*
X218434123Y-182792075D01*
X218423087Y-182810488D01*
X218410299Y-182827731D01*
X218395883Y-182843637D01*
X218379977Y-182858053D01*
X218362734Y-182870841D01*
X218344321Y-182881877D01*
X218324915Y-182891056D01*
X218304703Y-182898288D01*
X218283879Y-182903504D01*
X218262644Y-182906654D01*
X218241203Y-182907707D01*
X217803703Y-182907707D01*
X217782262Y-182906654D01*
X217761027Y-182903504D01*
X217740203Y-182898288D01*
X217719991Y-182891056D01*
X217700585Y-182881877D01*
X217682172Y-182870841D01*
X217664929Y-182858053D01*
X217649023Y-182843637D01*
X217634607Y-182827731D01*
X217621819Y-182810488D01*
X217610783Y-182792075D01*
X217601604Y-182772669D01*
X217594372Y-182752457D01*
X217589156Y-182731633D01*
X217586006Y-182710398D01*
X217584953Y-182688957D01*
X217584953Y-182176457D01*
X217586006Y-182155016D01*
X217589156Y-182133781D01*
X217594372Y-182112957D01*
X217601604Y-182092745D01*
X217610783Y-182073339D01*
X217621819Y-182054926D01*
X217634607Y-182037683D01*
X217649023Y-182021777D01*
X217664929Y-182007361D01*
X217682172Y-181994573D01*
X217700585Y-181983537D01*
X217719991Y-181974358D01*
X217740203Y-181967126D01*
X217761027Y-181961910D01*
X217782262Y-181958760D01*
X217803703Y-181957707D01*
X218241203Y-181957707D01*
X218262644Y-181958760D01*
X218262644Y-181958760D01*
G37*
D11*
X218022453Y-182432707D03*
G04 #@! TD*
D10*
G04 #@! TO.C,R9*
G36*
X222547144Y-137066760D02*
X222568379Y-137069910D01*
X222589203Y-137075126D01*
X222609415Y-137082358D01*
X222628821Y-137091537D01*
X222647234Y-137102573D01*
X222664477Y-137115361D01*
X222680383Y-137129777D01*
X222694799Y-137145683D01*
X222707587Y-137162926D01*
X222718623Y-137181339D01*
X222727802Y-137200745D01*
X222735034Y-137220957D01*
X222740250Y-137241781D01*
X222743400Y-137263016D01*
X222744453Y-137284457D01*
X222744453Y-137721957D01*
X222743400Y-137743398D01*
X222740250Y-137764633D01*
X222735034Y-137785457D01*
X222727802Y-137805669D01*
X222718623Y-137825075D01*
X222707587Y-137843488D01*
X222694799Y-137860731D01*
X222680383Y-137876637D01*
X222664477Y-137891053D01*
X222647234Y-137903841D01*
X222628821Y-137914877D01*
X222609415Y-137924056D01*
X222589203Y-137931288D01*
X222568379Y-137936504D01*
X222547144Y-137939654D01*
X222525703Y-137940707D01*
X222013203Y-137940707D01*
X221991762Y-137939654D01*
X221970527Y-137936504D01*
X221949703Y-137931288D01*
X221929491Y-137924056D01*
X221910085Y-137914877D01*
X221891672Y-137903841D01*
X221874429Y-137891053D01*
X221858523Y-137876637D01*
X221844107Y-137860731D01*
X221831319Y-137843488D01*
X221820283Y-137825075D01*
X221811104Y-137805669D01*
X221803872Y-137785457D01*
X221798656Y-137764633D01*
X221795506Y-137743398D01*
X221794453Y-137721957D01*
X221794453Y-137284457D01*
X221795506Y-137263016D01*
X221798656Y-137241781D01*
X221803872Y-137220957D01*
X221811104Y-137200745D01*
X221820283Y-137181339D01*
X221831319Y-137162926D01*
X221844107Y-137145683D01*
X221858523Y-137129777D01*
X221874429Y-137115361D01*
X221891672Y-137102573D01*
X221910085Y-137091537D01*
X221929491Y-137082358D01*
X221949703Y-137075126D01*
X221970527Y-137069910D01*
X221991762Y-137066760D01*
X222013203Y-137065707D01*
X222525703Y-137065707D01*
X222547144Y-137066760D01*
X222547144Y-137066760D01*
G37*
D11*
X222269453Y-137503207D03*
D10*
G36*
X222547144Y-138641760D02*
X222568379Y-138644910D01*
X222589203Y-138650126D01*
X222609415Y-138657358D01*
X222628821Y-138666537D01*
X222647234Y-138677573D01*
X222664477Y-138690361D01*
X222680383Y-138704777D01*
X222694799Y-138720683D01*
X222707587Y-138737926D01*
X222718623Y-138756339D01*
X222727802Y-138775745D01*
X222735034Y-138795957D01*
X222740250Y-138816781D01*
X222743400Y-138838016D01*
X222744453Y-138859457D01*
X222744453Y-139296957D01*
X222743400Y-139318398D01*
X222740250Y-139339633D01*
X222735034Y-139360457D01*
X222727802Y-139380669D01*
X222718623Y-139400075D01*
X222707587Y-139418488D01*
X222694799Y-139435731D01*
X222680383Y-139451637D01*
X222664477Y-139466053D01*
X222647234Y-139478841D01*
X222628821Y-139489877D01*
X222609415Y-139499056D01*
X222589203Y-139506288D01*
X222568379Y-139511504D01*
X222547144Y-139514654D01*
X222525703Y-139515707D01*
X222013203Y-139515707D01*
X221991762Y-139514654D01*
X221970527Y-139511504D01*
X221949703Y-139506288D01*
X221929491Y-139499056D01*
X221910085Y-139489877D01*
X221891672Y-139478841D01*
X221874429Y-139466053D01*
X221858523Y-139451637D01*
X221844107Y-139435731D01*
X221831319Y-139418488D01*
X221820283Y-139400075D01*
X221811104Y-139380669D01*
X221803872Y-139360457D01*
X221798656Y-139339633D01*
X221795506Y-139318398D01*
X221794453Y-139296957D01*
X221794453Y-138859457D01*
X221795506Y-138838016D01*
X221798656Y-138816781D01*
X221803872Y-138795957D01*
X221811104Y-138775745D01*
X221820283Y-138756339D01*
X221831319Y-138737926D01*
X221844107Y-138720683D01*
X221858523Y-138704777D01*
X221874429Y-138690361D01*
X221891672Y-138677573D01*
X221910085Y-138666537D01*
X221929491Y-138657358D01*
X221949703Y-138650126D01*
X221970527Y-138644910D01*
X221991762Y-138641760D01*
X222013203Y-138640707D01*
X222525703Y-138640707D01*
X222547144Y-138641760D01*
X222547144Y-138641760D01*
G37*
D11*
X222269453Y-139078207D03*
G04 #@! TD*
D10*
G04 #@! TO.C,R8*
G36*
X219547144Y-137054260D02*
X219568379Y-137057410D01*
X219589203Y-137062626D01*
X219609415Y-137069858D01*
X219628821Y-137079037D01*
X219647234Y-137090073D01*
X219664477Y-137102861D01*
X219680383Y-137117277D01*
X219694799Y-137133183D01*
X219707587Y-137150426D01*
X219718623Y-137168839D01*
X219727802Y-137188245D01*
X219735034Y-137208457D01*
X219740250Y-137229281D01*
X219743400Y-137250516D01*
X219744453Y-137271957D01*
X219744453Y-137709457D01*
X219743400Y-137730898D01*
X219740250Y-137752133D01*
X219735034Y-137772957D01*
X219727802Y-137793169D01*
X219718623Y-137812575D01*
X219707587Y-137830988D01*
X219694799Y-137848231D01*
X219680383Y-137864137D01*
X219664477Y-137878553D01*
X219647234Y-137891341D01*
X219628821Y-137902377D01*
X219609415Y-137911556D01*
X219589203Y-137918788D01*
X219568379Y-137924004D01*
X219547144Y-137927154D01*
X219525703Y-137928207D01*
X219013203Y-137928207D01*
X218991762Y-137927154D01*
X218970527Y-137924004D01*
X218949703Y-137918788D01*
X218929491Y-137911556D01*
X218910085Y-137902377D01*
X218891672Y-137891341D01*
X218874429Y-137878553D01*
X218858523Y-137864137D01*
X218844107Y-137848231D01*
X218831319Y-137830988D01*
X218820283Y-137812575D01*
X218811104Y-137793169D01*
X218803872Y-137772957D01*
X218798656Y-137752133D01*
X218795506Y-137730898D01*
X218794453Y-137709457D01*
X218794453Y-137271957D01*
X218795506Y-137250516D01*
X218798656Y-137229281D01*
X218803872Y-137208457D01*
X218811104Y-137188245D01*
X218820283Y-137168839D01*
X218831319Y-137150426D01*
X218844107Y-137133183D01*
X218858523Y-137117277D01*
X218874429Y-137102861D01*
X218891672Y-137090073D01*
X218910085Y-137079037D01*
X218929491Y-137069858D01*
X218949703Y-137062626D01*
X218970527Y-137057410D01*
X218991762Y-137054260D01*
X219013203Y-137053207D01*
X219525703Y-137053207D01*
X219547144Y-137054260D01*
X219547144Y-137054260D01*
G37*
D11*
X219269453Y-137490707D03*
D10*
G36*
X219547144Y-138629260D02*
X219568379Y-138632410D01*
X219589203Y-138637626D01*
X219609415Y-138644858D01*
X219628821Y-138654037D01*
X219647234Y-138665073D01*
X219664477Y-138677861D01*
X219680383Y-138692277D01*
X219694799Y-138708183D01*
X219707587Y-138725426D01*
X219718623Y-138743839D01*
X219727802Y-138763245D01*
X219735034Y-138783457D01*
X219740250Y-138804281D01*
X219743400Y-138825516D01*
X219744453Y-138846957D01*
X219744453Y-139284457D01*
X219743400Y-139305898D01*
X219740250Y-139327133D01*
X219735034Y-139347957D01*
X219727802Y-139368169D01*
X219718623Y-139387575D01*
X219707587Y-139405988D01*
X219694799Y-139423231D01*
X219680383Y-139439137D01*
X219664477Y-139453553D01*
X219647234Y-139466341D01*
X219628821Y-139477377D01*
X219609415Y-139486556D01*
X219589203Y-139493788D01*
X219568379Y-139499004D01*
X219547144Y-139502154D01*
X219525703Y-139503207D01*
X219013203Y-139503207D01*
X218991762Y-139502154D01*
X218970527Y-139499004D01*
X218949703Y-139493788D01*
X218929491Y-139486556D01*
X218910085Y-139477377D01*
X218891672Y-139466341D01*
X218874429Y-139453553D01*
X218858523Y-139439137D01*
X218844107Y-139423231D01*
X218831319Y-139405988D01*
X218820283Y-139387575D01*
X218811104Y-139368169D01*
X218803872Y-139347957D01*
X218798656Y-139327133D01*
X218795506Y-139305898D01*
X218794453Y-139284457D01*
X218794453Y-138846957D01*
X218795506Y-138825516D01*
X218798656Y-138804281D01*
X218803872Y-138783457D01*
X218811104Y-138763245D01*
X218820283Y-138743839D01*
X218831319Y-138725426D01*
X218844107Y-138708183D01*
X218858523Y-138692277D01*
X218874429Y-138677861D01*
X218891672Y-138665073D01*
X218910085Y-138654037D01*
X218929491Y-138644858D01*
X218949703Y-138637626D01*
X218970527Y-138632410D01*
X218991762Y-138629260D01*
X219013203Y-138628207D01*
X219525703Y-138628207D01*
X219547144Y-138629260D01*
X219547144Y-138629260D01*
G37*
D11*
X219269453Y-139065707D03*
G04 #@! TD*
D10*
G04 #@! TO.C,R7*
G36*
X204322144Y-157566760D02*
X204343379Y-157569910D01*
X204364203Y-157575126D01*
X204384415Y-157582358D01*
X204403821Y-157591537D01*
X204422234Y-157602573D01*
X204439477Y-157615361D01*
X204455383Y-157629777D01*
X204469799Y-157645683D01*
X204482587Y-157662926D01*
X204493623Y-157681339D01*
X204502802Y-157700745D01*
X204510034Y-157720957D01*
X204515250Y-157741781D01*
X204518400Y-157763016D01*
X204519453Y-157784457D01*
X204519453Y-158296957D01*
X204518400Y-158318398D01*
X204515250Y-158339633D01*
X204510034Y-158360457D01*
X204502802Y-158380669D01*
X204493623Y-158400075D01*
X204482587Y-158418488D01*
X204469799Y-158435731D01*
X204455383Y-158451637D01*
X204439477Y-158466053D01*
X204422234Y-158478841D01*
X204403821Y-158489877D01*
X204384415Y-158499056D01*
X204364203Y-158506288D01*
X204343379Y-158511504D01*
X204322144Y-158514654D01*
X204300703Y-158515707D01*
X203863203Y-158515707D01*
X203841762Y-158514654D01*
X203820527Y-158511504D01*
X203799703Y-158506288D01*
X203779491Y-158499056D01*
X203760085Y-158489877D01*
X203741672Y-158478841D01*
X203724429Y-158466053D01*
X203708523Y-158451637D01*
X203694107Y-158435731D01*
X203681319Y-158418488D01*
X203670283Y-158400075D01*
X203661104Y-158380669D01*
X203653872Y-158360457D01*
X203648656Y-158339633D01*
X203645506Y-158318398D01*
X203644453Y-158296957D01*
X203644453Y-157784457D01*
X203645506Y-157763016D01*
X203648656Y-157741781D01*
X203653872Y-157720957D01*
X203661104Y-157700745D01*
X203670283Y-157681339D01*
X203681319Y-157662926D01*
X203694107Y-157645683D01*
X203708523Y-157629777D01*
X203724429Y-157615361D01*
X203741672Y-157602573D01*
X203760085Y-157591537D01*
X203779491Y-157582358D01*
X203799703Y-157575126D01*
X203820527Y-157569910D01*
X203841762Y-157566760D01*
X203863203Y-157565707D01*
X204300703Y-157565707D01*
X204322144Y-157566760D01*
X204322144Y-157566760D01*
G37*
D11*
X204081953Y-158040707D03*
D10*
G36*
X205897144Y-157566760D02*
X205918379Y-157569910D01*
X205939203Y-157575126D01*
X205959415Y-157582358D01*
X205978821Y-157591537D01*
X205997234Y-157602573D01*
X206014477Y-157615361D01*
X206030383Y-157629777D01*
X206044799Y-157645683D01*
X206057587Y-157662926D01*
X206068623Y-157681339D01*
X206077802Y-157700745D01*
X206085034Y-157720957D01*
X206090250Y-157741781D01*
X206093400Y-157763016D01*
X206094453Y-157784457D01*
X206094453Y-158296957D01*
X206093400Y-158318398D01*
X206090250Y-158339633D01*
X206085034Y-158360457D01*
X206077802Y-158380669D01*
X206068623Y-158400075D01*
X206057587Y-158418488D01*
X206044799Y-158435731D01*
X206030383Y-158451637D01*
X206014477Y-158466053D01*
X205997234Y-158478841D01*
X205978821Y-158489877D01*
X205959415Y-158499056D01*
X205939203Y-158506288D01*
X205918379Y-158511504D01*
X205897144Y-158514654D01*
X205875703Y-158515707D01*
X205438203Y-158515707D01*
X205416762Y-158514654D01*
X205395527Y-158511504D01*
X205374703Y-158506288D01*
X205354491Y-158499056D01*
X205335085Y-158489877D01*
X205316672Y-158478841D01*
X205299429Y-158466053D01*
X205283523Y-158451637D01*
X205269107Y-158435731D01*
X205256319Y-158418488D01*
X205245283Y-158400075D01*
X205236104Y-158380669D01*
X205228872Y-158360457D01*
X205223656Y-158339633D01*
X205220506Y-158318398D01*
X205219453Y-158296957D01*
X205219453Y-157784457D01*
X205220506Y-157763016D01*
X205223656Y-157741781D01*
X205228872Y-157720957D01*
X205236104Y-157700745D01*
X205245283Y-157681339D01*
X205256319Y-157662926D01*
X205269107Y-157645683D01*
X205283523Y-157629777D01*
X205299429Y-157615361D01*
X205316672Y-157602573D01*
X205335085Y-157591537D01*
X205354491Y-157582358D01*
X205374703Y-157575126D01*
X205395527Y-157569910D01*
X205416762Y-157566760D01*
X205438203Y-157565707D01*
X205875703Y-157565707D01*
X205897144Y-157566760D01*
X205897144Y-157566760D01*
G37*
D11*
X205656953Y-158040707D03*
G04 #@! TD*
D10*
G04 #@! TO.C,R6*
G36*
X212234644Y-174016760D02*
X212255879Y-174019910D01*
X212276703Y-174025126D01*
X212296915Y-174032358D01*
X212316321Y-174041537D01*
X212334734Y-174052573D01*
X212351977Y-174065361D01*
X212367883Y-174079777D01*
X212382299Y-174095683D01*
X212395087Y-174112926D01*
X212406123Y-174131339D01*
X212415302Y-174150745D01*
X212422534Y-174170957D01*
X212427750Y-174191781D01*
X212430900Y-174213016D01*
X212431953Y-174234457D01*
X212431953Y-174746957D01*
X212430900Y-174768398D01*
X212427750Y-174789633D01*
X212422534Y-174810457D01*
X212415302Y-174830669D01*
X212406123Y-174850075D01*
X212395087Y-174868488D01*
X212382299Y-174885731D01*
X212367883Y-174901637D01*
X212351977Y-174916053D01*
X212334734Y-174928841D01*
X212316321Y-174939877D01*
X212296915Y-174949056D01*
X212276703Y-174956288D01*
X212255879Y-174961504D01*
X212234644Y-174964654D01*
X212213203Y-174965707D01*
X211775703Y-174965707D01*
X211754262Y-174964654D01*
X211733027Y-174961504D01*
X211712203Y-174956288D01*
X211691991Y-174949056D01*
X211672585Y-174939877D01*
X211654172Y-174928841D01*
X211636929Y-174916053D01*
X211621023Y-174901637D01*
X211606607Y-174885731D01*
X211593819Y-174868488D01*
X211582783Y-174850075D01*
X211573604Y-174830669D01*
X211566372Y-174810457D01*
X211561156Y-174789633D01*
X211558006Y-174768398D01*
X211556953Y-174746957D01*
X211556953Y-174234457D01*
X211558006Y-174213016D01*
X211561156Y-174191781D01*
X211566372Y-174170957D01*
X211573604Y-174150745D01*
X211582783Y-174131339D01*
X211593819Y-174112926D01*
X211606607Y-174095683D01*
X211621023Y-174079777D01*
X211636929Y-174065361D01*
X211654172Y-174052573D01*
X211672585Y-174041537D01*
X211691991Y-174032358D01*
X211712203Y-174025126D01*
X211733027Y-174019910D01*
X211754262Y-174016760D01*
X211775703Y-174015707D01*
X212213203Y-174015707D01*
X212234644Y-174016760D01*
X212234644Y-174016760D01*
G37*
D11*
X211994453Y-174490707D03*
D10*
G36*
X213809644Y-174016760D02*
X213830879Y-174019910D01*
X213851703Y-174025126D01*
X213871915Y-174032358D01*
X213891321Y-174041537D01*
X213909734Y-174052573D01*
X213926977Y-174065361D01*
X213942883Y-174079777D01*
X213957299Y-174095683D01*
X213970087Y-174112926D01*
X213981123Y-174131339D01*
X213990302Y-174150745D01*
X213997534Y-174170957D01*
X214002750Y-174191781D01*
X214005900Y-174213016D01*
X214006953Y-174234457D01*
X214006953Y-174746957D01*
X214005900Y-174768398D01*
X214002750Y-174789633D01*
X213997534Y-174810457D01*
X213990302Y-174830669D01*
X213981123Y-174850075D01*
X213970087Y-174868488D01*
X213957299Y-174885731D01*
X213942883Y-174901637D01*
X213926977Y-174916053D01*
X213909734Y-174928841D01*
X213891321Y-174939877D01*
X213871915Y-174949056D01*
X213851703Y-174956288D01*
X213830879Y-174961504D01*
X213809644Y-174964654D01*
X213788203Y-174965707D01*
X213350703Y-174965707D01*
X213329262Y-174964654D01*
X213308027Y-174961504D01*
X213287203Y-174956288D01*
X213266991Y-174949056D01*
X213247585Y-174939877D01*
X213229172Y-174928841D01*
X213211929Y-174916053D01*
X213196023Y-174901637D01*
X213181607Y-174885731D01*
X213168819Y-174868488D01*
X213157783Y-174850075D01*
X213148604Y-174830669D01*
X213141372Y-174810457D01*
X213136156Y-174789633D01*
X213133006Y-174768398D01*
X213131953Y-174746957D01*
X213131953Y-174234457D01*
X213133006Y-174213016D01*
X213136156Y-174191781D01*
X213141372Y-174170957D01*
X213148604Y-174150745D01*
X213157783Y-174131339D01*
X213168819Y-174112926D01*
X213181607Y-174095683D01*
X213196023Y-174079777D01*
X213211929Y-174065361D01*
X213229172Y-174052573D01*
X213247585Y-174041537D01*
X213266991Y-174032358D01*
X213287203Y-174025126D01*
X213308027Y-174019910D01*
X213329262Y-174016760D01*
X213350703Y-174015707D01*
X213788203Y-174015707D01*
X213809644Y-174016760D01*
X213809644Y-174016760D01*
G37*
D11*
X213569453Y-174490707D03*
G04 #@! TD*
D10*
G04 #@! TO.C,R5*
G36*
X205382493Y-198352032D02*
X205403630Y-198355783D01*
X205424297Y-198361587D01*
X205444296Y-198369390D01*
X205463434Y-198379115D01*
X205481527Y-198390669D01*
X205498400Y-198403940D01*
X205513891Y-198418802D01*
X205527850Y-198435111D01*
X205540144Y-198452709D01*
X205550654Y-198471427D01*
X205559278Y-198491086D01*
X205565934Y-198511495D01*
X205570558Y-198532458D01*
X205573104Y-198553774D01*
X205603622Y-198990208D01*
X205604067Y-199011670D01*
X205602406Y-199033073D01*
X205598655Y-199054210D01*
X205592851Y-199074878D01*
X205585048Y-199094877D01*
X205575323Y-199114015D01*
X205563769Y-199132107D01*
X205550498Y-199148980D01*
X205535636Y-199164471D01*
X205519327Y-199178430D01*
X205501729Y-199190724D01*
X205483011Y-199201234D01*
X205463352Y-199209858D01*
X205442943Y-199216514D01*
X205421980Y-199221138D01*
X205400664Y-199223684D01*
X204889412Y-199259434D01*
X204867950Y-199259879D01*
X204846547Y-199258218D01*
X204825410Y-199254467D01*
X204804743Y-199248663D01*
X204784744Y-199240860D01*
X204765606Y-199231135D01*
X204747513Y-199219581D01*
X204730640Y-199206310D01*
X204715149Y-199191448D01*
X204701190Y-199175139D01*
X204688896Y-199157541D01*
X204678386Y-199138823D01*
X204669762Y-199119164D01*
X204663106Y-199098755D01*
X204658482Y-199077792D01*
X204655936Y-199056476D01*
X204625418Y-198620042D01*
X204624973Y-198598580D01*
X204626634Y-198577177D01*
X204630385Y-198556040D01*
X204636189Y-198535372D01*
X204643992Y-198515373D01*
X204653717Y-198496235D01*
X204665271Y-198478143D01*
X204678542Y-198461270D01*
X204693404Y-198445779D01*
X204709713Y-198431820D01*
X204727311Y-198419526D01*
X204746029Y-198409016D01*
X204765688Y-198400392D01*
X204786097Y-198393736D01*
X204807060Y-198389112D01*
X204828376Y-198386566D01*
X205339628Y-198350816D01*
X205361090Y-198350371D01*
X205382493Y-198352032D01*
X205382493Y-198352032D01*
G37*
D11*
X205114520Y-198805125D03*
D10*
G36*
X205492359Y-199923196D02*
X205513496Y-199926947D01*
X205534163Y-199932751D01*
X205554162Y-199940554D01*
X205573300Y-199950279D01*
X205591393Y-199961833D01*
X205608266Y-199975104D01*
X205623757Y-199989966D01*
X205637716Y-200006275D01*
X205650010Y-200023873D01*
X205660520Y-200042591D01*
X205669144Y-200062250D01*
X205675800Y-200082659D01*
X205680424Y-200103622D01*
X205682970Y-200124938D01*
X205713488Y-200561372D01*
X205713933Y-200582834D01*
X205712272Y-200604237D01*
X205708521Y-200625374D01*
X205702717Y-200646042D01*
X205694914Y-200666041D01*
X205685189Y-200685179D01*
X205673635Y-200703271D01*
X205660364Y-200720144D01*
X205645502Y-200735635D01*
X205629193Y-200749594D01*
X205611595Y-200761888D01*
X205592877Y-200772398D01*
X205573218Y-200781022D01*
X205552809Y-200787678D01*
X205531846Y-200792302D01*
X205510530Y-200794848D01*
X204999278Y-200830598D01*
X204977816Y-200831043D01*
X204956413Y-200829382D01*
X204935276Y-200825631D01*
X204914609Y-200819827D01*
X204894610Y-200812024D01*
X204875472Y-200802299D01*
X204857379Y-200790745D01*
X204840506Y-200777474D01*
X204825015Y-200762612D01*
X204811056Y-200746303D01*
X204798762Y-200728705D01*
X204788252Y-200709987D01*
X204779628Y-200690328D01*
X204772972Y-200669919D01*
X204768348Y-200648956D01*
X204765802Y-200627640D01*
X204735284Y-200191206D01*
X204734839Y-200169744D01*
X204736500Y-200148341D01*
X204740251Y-200127204D01*
X204746055Y-200106536D01*
X204753858Y-200086537D01*
X204763583Y-200067399D01*
X204775137Y-200049307D01*
X204788408Y-200032434D01*
X204803270Y-200016943D01*
X204819579Y-200002984D01*
X204837177Y-199990690D01*
X204855895Y-199980180D01*
X204875554Y-199971556D01*
X204895963Y-199964900D01*
X204916926Y-199960276D01*
X204938242Y-199957730D01*
X205449494Y-199921980D01*
X205470956Y-199921535D01*
X205492359Y-199923196D01*
X205492359Y-199923196D01*
G37*
D11*
X205224386Y-200376289D03*
G04 #@! TD*
D10*
G04 #@! TO.C,R4*
G36*
X218237144Y-179164760D02*
X218258379Y-179167910D01*
X218279203Y-179173126D01*
X218299415Y-179180358D01*
X218318821Y-179189537D01*
X218337234Y-179200573D01*
X218354477Y-179213361D01*
X218370383Y-179227777D01*
X218384799Y-179243683D01*
X218397587Y-179260926D01*
X218408623Y-179279339D01*
X218417802Y-179298745D01*
X218425034Y-179318957D01*
X218430250Y-179339781D01*
X218433400Y-179361016D01*
X218434453Y-179382457D01*
X218434453Y-179894957D01*
X218433400Y-179916398D01*
X218430250Y-179937633D01*
X218425034Y-179958457D01*
X218417802Y-179978669D01*
X218408623Y-179998075D01*
X218397587Y-180016488D01*
X218384799Y-180033731D01*
X218370383Y-180049637D01*
X218354477Y-180064053D01*
X218337234Y-180076841D01*
X218318821Y-180087877D01*
X218299415Y-180097056D01*
X218279203Y-180104288D01*
X218258379Y-180109504D01*
X218237144Y-180112654D01*
X218215703Y-180113707D01*
X217778203Y-180113707D01*
X217756762Y-180112654D01*
X217735527Y-180109504D01*
X217714703Y-180104288D01*
X217694491Y-180097056D01*
X217675085Y-180087877D01*
X217656672Y-180076841D01*
X217639429Y-180064053D01*
X217623523Y-180049637D01*
X217609107Y-180033731D01*
X217596319Y-180016488D01*
X217585283Y-179998075D01*
X217576104Y-179978669D01*
X217568872Y-179958457D01*
X217563656Y-179937633D01*
X217560506Y-179916398D01*
X217559453Y-179894957D01*
X217559453Y-179382457D01*
X217560506Y-179361016D01*
X217563656Y-179339781D01*
X217568872Y-179318957D01*
X217576104Y-179298745D01*
X217585283Y-179279339D01*
X217596319Y-179260926D01*
X217609107Y-179243683D01*
X217623523Y-179227777D01*
X217639429Y-179213361D01*
X217656672Y-179200573D01*
X217675085Y-179189537D01*
X217694491Y-179180358D01*
X217714703Y-179173126D01*
X217735527Y-179167910D01*
X217756762Y-179164760D01*
X217778203Y-179163707D01*
X218215703Y-179163707D01*
X218237144Y-179164760D01*
X218237144Y-179164760D01*
G37*
D11*
X217996953Y-179638707D03*
D10*
G36*
X216662144Y-179164760D02*
X216683379Y-179167910D01*
X216704203Y-179173126D01*
X216724415Y-179180358D01*
X216743821Y-179189537D01*
X216762234Y-179200573D01*
X216779477Y-179213361D01*
X216795383Y-179227777D01*
X216809799Y-179243683D01*
X216822587Y-179260926D01*
X216833623Y-179279339D01*
X216842802Y-179298745D01*
X216850034Y-179318957D01*
X216855250Y-179339781D01*
X216858400Y-179361016D01*
X216859453Y-179382457D01*
X216859453Y-179894957D01*
X216858400Y-179916398D01*
X216855250Y-179937633D01*
X216850034Y-179958457D01*
X216842802Y-179978669D01*
X216833623Y-179998075D01*
X216822587Y-180016488D01*
X216809799Y-180033731D01*
X216795383Y-180049637D01*
X216779477Y-180064053D01*
X216762234Y-180076841D01*
X216743821Y-180087877D01*
X216724415Y-180097056D01*
X216704203Y-180104288D01*
X216683379Y-180109504D01*
X216662144Y-180112654D01*
X216640703Y-180113707D01*
X216203203Y-180113707D01*
X216181762Y-180112654D01*
X216160527Y-180109504D01*
X216139703Y-180104288D01*
X216119491Y-180097056D01*
X216100085Y-180087877D01*
X216081672Y-180076841D01*
X216064429Y-180064053D01*
X216048523Y-180049637D01*
X216034107Y-180033731D01*
X216021319Y-180016488D01*
X216010283Y-179998075D01*
X216001104Y-179978669D01*
X215993872Y-179958457D01*
X215988656Y-179937633D01*
X215985506Y-179916398D01*
X215984453Y-179894957D01*
X215984453Y-179382457D01*
X215985506Y-179361016D01*
X215988656Y-179339781D01*
X215993872Y-179318957D01*
X216001104Y-179298745D01*
X216010283Y-179279339D01*
X216021319Y-179260926D01*
X216034107Y-179243683D01*
X216048523Y-179227777D01*
X216064429Y-179213361D01*
X216081672Y-179200573D01*
X216100085Y-179189537D01*
X216119491Y-179180358D01*
X216139703Y-179173126D01*
X216160527Y-179167910D01*
X216181762Y-179164760D01*
X216203203Y-179163707D01*
X216640703Y-179163707D01*
X216662144Y-179164760D01*
X216662144Y-179164760D01*
G37*
D11*
X216421953Y-179638707D03*
G04 #@! TD*
D10*
G04 #@! TO.C,R3*
G36*
X213822144Y-160716760D02*
X213843379Y-160719910D01*
X213864203Y-160725126D01*
X213884415Y-160732358D01*
X213903821Y-160741537D01*
X213922234Y-160752573D01*
X213939477Y-160765361D01*
X213955383Y-160779777D01*
X213969799Y-160795683D01*
X213982587Y-160812926D01*
X213993623Y-160831339D01*
X214002802Y-160850745D01*
X214010034Y-160870957D01*
X214015250Y-160891781D01*
X214018400Y-160913016D01*
X214019453Y-160934457D01*
X214019453Y-161446957D01*
X214018400Y-161468398D01*
X214015250Y-161489633D01*
X214010034Y-161510457D01*
X214002802Y-161530669D01*
X213993623Y-161550075D01*
X213982587Y-161568488D01*
X213969799Y-161585731D01*
X213955383Y-161601637D01*
X213939477Y-161616053D01*
X213922234Y-161628841D01*
X213903821Y-161639877D01*
X213884415Y-161649056D01*
X213864203Y-161656288D01*
X213843379Y-161661504D01*
X213822144Y-161664654D01*
X213800703Y-161665707D01*
X213363203Y-161665707D01*
X213341762Y-161664654D01*
X213320527Y-161661504D01*
X213299703Y-161656288D01*
X213279491Y-161649056D01*
X213260085Y-161639877D01*
X213241672Y-161628841D01*
X213224429Y-161616053D01*
X213208523Y-161601637D01*
X213194107Y-161585731D01*
X213181319Y-161568488D01*
X213170283Y-161550075D01*
X213161104Y-161530669D01*
X213153872Y-161510457D01*
X213148656Y-161489633D01*
X213145506Y-161468398D01*
X213144453Y-161446957D01*
X213144453Y-160934457D01*
X213145506Y-160913016D01*
X213148656Y-160891781D01*
X213153872Y-160870957D01*
X213161104Y-160850745D01*
X213170283Y-160831339D01*
X213181319Y-160812926D01*
X213194107Y-160795683D01*
X213208523Y-160779777D01*
X213224429Y-160765361D01*
X213241672Y-160752573D01*
X213260085Y-160741537D01*
X213279491Y-160732358D01*
X213299703Y-160725126D01*
X213320527Y-160719910D01*
X213341762Y-160716760D01*
X213363203Y-160715707D01*
X213800703Y-160715707D01*
X213822144Y-160716760D01*
X213822144Y-160716760D01*
G37*
D11*
X213581953Y-161190707D03*
D10*
G36*
X215397144Y-160716760D02*
X215418379Y-160719910D01*
X215439203Y-160725126D01*
X215459415Y-160732358D01*
X215478821Y-160741537D01*
X215497234Y-160752573D01*
X215514477Y-160765361D01*
X215530383Y-160779777D01*
X215544799Y-160795683D01*
X215557587Y-160812926D01*
X215568623Y-160831339D01*
X215577802Y-160850745D01*
X215585034Y-160870957D01*
X215590250Y-160891781D01*
X215593400Y-160913016D01*
X215594453Y-160934457D01*
X215594453Y-161446957D01*
X215593400Y-161468398D01*
X215590250Y-161489633D01*
X215585034Y-161510457D01*
X215577802Y-161530669D01*
X215568623Y-161550075D01*
X215557587Y-161568488D01*
X215544799Y-161585731D01*
X215530383Y-161601637D01*
X215514477Y-161616053D01*
X215497234Y-161628841D01*
X215478821Y-161639877D01*
X215459415Y-161649056D01*
X215439203Y-161656288D01*
X215418379Y-161661504D01*
X215397144Y-161664654D01*
X215375703Y-161665707D01*
X214938203Y-161665707D01*
X214916762Y-161664654D01*
X214895527Y-161661504D01*
X214874703Y-161656288D01*
X214854491Y-161649056D01*
X214835085Y-161639877D01*
X214816672Y-161628841D01*
X214799429Y-161616053D01*
X214783523Y-161601637D01*
X214769107Y-161585731D01*
X214756319Y-161568488D01*
X214745283Y-161550075D01*
X214736104Y-161530669D01*
X214728872Y-161510457D01*
X214723656Y-161489633D01*
X214720506Y-161468398D01*
X214719453Y-161446957D01*
X214719453Y-160934457D01*
X214720506Y-160913016D01*
X214723656Y-160891781D01*
X214728872Y-160870957D01*
X214736104Y-160850745D01*
X214745283Y-160831339D01*
X214756319Y-160812926D01*
X214769107Y-160795683D01*
X214783523Y-160779777D01*
X214799429Y-160765361D01*
X214816672Y-160752573D01*
X214835085Y-160741537D01*
X214854491Y-160732358D01*
X214874703Y-160725126D01*
X214895527Y-160719910D01*
X214916762Y-160716760D01*
X214938203Y-160715707D01*
X215375703Y-160715707D01*
X215397144Y-160716760D01*
X215397144Y-160716760D01*
G37*
D11*
X215156953Y-161190707D03*
G04 #@! TD*
D10*
G04 #@! TO.C,R2*
G36*
X213834644Y-159116760D02*
X213855879Y-159119910D01*
X213876703Y-159125126D01*
X213896915Y-159132358D01*
X213916321Y-159141537D01*
X213934734Y-159152573D01*
X213951977Y-159165361D01*
X213967883Y-159179777D01*
X213982299Y-159195683D01*
X213995087Y-159212926D01*
X214006123Y-159231339D01*
X214015302Y-159250745D01*
X214022534Y-159270957D01*
X214027750Y-159291781D01*
X214030900Y-159313016D01*
X214031953Y-159334457D01*
X214031953Y-159846957D01*
X214030900Y-159868398D01*
X214027750Y-159889633D01*
X214022534Y-159910457D01*
X214015302Y-159930669D01*
X214006123Y-159950075D01*
X213995087Y-159968488D01*
X213982299Y-159985731D01*
X213967883Y-160001637D01*
X213951977Y-160016053D01*
X213934734Y-160028841D01*
X213916321Y-160039877D01*
X213896915Y-160049056D01*
X213876703Y-160056288D01*
X213855879Y-160061504D01*
X213834644Y-160064654D01*
X213813203Y-160065707D01*
X213375703Y-160065707D01*
X213354262Y-160064654D01*
X213333027Y-160061504D01*
X213312203Y-160056288D01*
X213291991Y-160049056D01*
X213272585Y-160039877D01*
X213254172Y-160028841D01*
X213236929Y-160016053D01*
X213221023Y-160001637D01*
X213206607Y-159985731D01*
X213193819Y-159968488D01*
X213182783Y-159950075D01*
X213173604Y-159930669D01*
X213166372Y-159910457D01*
X213161156Y-159889633D01*
X213158006Y-159868398D01*
X213156953Y-159846957D01*
X213156953Y-159334457D01*
X213158006Y-159313016D01*
X213161156Y-159291781D01*
X213166372Y-159270957D01*
X213173604Y-159250745D01*
X213182783Y-159231339D01*
X213193819Y-159212926D01*
X213206607Y-159195683D01*
X213221023Y-159179777D01*
X213236929Y-159165361D01*
X213254172Y-159152573D01*
X213272585Y-159141537D01*
X213291991Y-159132358D01*
X213312203Y-159125126D01*
X213333027Y-159119910D01*
X213354262Y-159116760D01*
X213375703Y-159115707D01*
X213813203Y-159115707D01*
X213834644Y-159116760D01*
X213834644Y-159116760D01*
G37*
D11*
X213594453Y-159590707D03*
D10*
G36*
X215409644Y-159116760D02*
X215430879Y-159119910D01*
X215451703Y-159125126D01*
X215471915Y-159132358D01*
X215491321Y-159141537D01*
X215509734Y-159152573D01*
X215526977Y-159165361D01*
X215542883Y-159179777D01*
X215557299Y-159195683D01*
X215570087Y-159212926D01*
X215581123Y-159231339D01*
X215590302Y-159250745D01*
X215597534Y-159270957D01*
X215602750Y-159291781D01*
X215605900Y-159313016D01*
X215606953Y-159334457D01*
X215606953Y-159846957D01*
X215605900Y-159868398D01*
X215602750Y-159889633D01*
X215597534Y-159910457D01*
X215590302Y-159930669D01*
X215581123Y-159950075D01*
X215570087Y-159968488D01*
X215557299Y-159985731D01*
X215542883Y-160001637D01*
X215526977Y-160016053D01*
X215509734Y-160028841D01*
X215491321Y-160039877D01*
X215471915Y-160049056D01*
X215451703Y-160056288D01*
X215430879Y-160061504D01*
X215409644Y-160064654D01*
X215388203Y-160065707D01*
X214950703Y-160065707D01*
X214929262Y-160064654D01*
X214908027Y-160061504D01*
X214887203Y-160056288D01*
X214866991Y-160049056D01*
X214847585Y-160039877D01*
X214829172Y-160028841D01*
X214811929Y-160016053D01*
X214796023Y-160001637D01*
X214781607Y-159985731D01*
X214768819Y-159968488D01*
X214757783Y-159950075D01*
X214748604Y-159930669D01*
X214741372Y-159910457D01*
X214736156Y-159889633D01*
X214733006Y-159868398D01*
X214731953Y-159846957D01*
X214731953Y-159334457D01*
X214733006Y-159313016D01*
X214736156Y-159291781D01*
X214741372Y-159270957D01*
X214748604Y-159250745D01*
X214757783Y-159231339D01*
X214768819Y-159212926D01*
X214781607Y-159195683D01*
X214796023Y-159179777D01*
X214811929Y-159165361D01*
X214829172Y-159152573D01*
X214847585Y-159141537D01*
X214866991Y-159132358D01*
X214887203Y-159125126D01*
X214908027Y-159119910D01*
X214929262Y-159116760D01*
X214950703Y-159115707D01*
X215388203Y-159115707D01*
X215409644Y-159116760D01*
X215409644Y-159116760D01*
G37*
D11*
X215169453Y-159590707D03*
G04 #@! TD*
D10*
G04 #@! TO.C,R1*
G36*
X208777819Y-187841754D02*
X208798956Y-187845505D01*
X208819624Y-187851309D01*
X208839623Y-187859112D01*
X208858761Y-187868837D01*
X208876853Y-187880391D01*
X208893726Y-187893662D01*
X208909217Y-187908524D01*
X208923176Y-187924833D01*
X208935470Y-187942431D01*
X208945980Y-187961149D01*
X208954604Y-187980808D01*
X208961260Y-188001217D01*
X208965884Y-188022180D01*
X208968430Y-188043496D01*
X209004180Y-188554748D01*
X209004625Y-188576210D01*
X209002964Y-188597613D01*
X208999213Y-188618750D01*
X208993409Y-188639417D01*
X208985606Y-188659416D01*
X208975881Y-188678554D01*
X208964327Y-188696647D01*
X208951056Y-188713520D01*
X208936194Y-188729011D01*
X208919885Y-188742970D01*
X208902287Y-188755264D01*
X208883569Y-188765774D01*
X208863910Y-188774398D01*
X208843501Y-188781054D01*
X208822538Y-188785678D01*
X208801222Y-188788224D01*
X208364788Y-188818742D01*
X208343326Y-188819187D01*
X208321923Y-188817526D01*
X208300786Y-188813775D01*
X208280118Y-188807971D01*
X208260119Y-188800168D01*
X208240981Y-188790443D01*
X208222889Y-188778889D01*
X208206016Y-188765618D01*
X208190525Y-188750756D01*
X208176566Y-188734447D01*
X208164272Y-188716849D01*
X208153762Y-188698131D01*
X208145138Y-188678472D01*
X208138482Y-188658063D01*
X208133858Y-188637100D01*
X208131312Y-188615784D01*
X208095562Y-188104532D01*
X208095117Y-188083070D01*
X208096778Y-188061667D01*
X208100529Y-188040530D01*
X208106333Y-188019863D01*
X208114136Y-187999864D01*
X208123861Y-187980726D01*
X208135415Y-187962633D01*
X208148686Y-187945760D01*
X208163548Y-187930269D01*
X208179857Y-187916310D01*
X208197455Y-187904016D01*
X208216173Y-187893506D01*
X208235832Y-187884882D01*
X208256241Y-187878226D01*
X208277204Y-187873602D01*
X208298520Y-187871056D01*
X208734954Y-187840538D01*
X208756416Y-187840093D01*
X208777819Y-187841754D01*
X208777819Y-187841754D01*
G37*
D11*
X208549871Y-188329640D03*
D10*
G36*
X210348983Y-187731888D02*
X210370120Y-187735639D01*
X210390788Y-187741443D01*
X210410787Y-187749246D01*
X210429925Y-187758971D01*
X210448017Y-187770525D01*
X210464890Y-187783796D01*
X210480381Y-187798658D01*
X210494340Y-187814967D01*
X210506634Y-187832565D01*
X210517144Y-187851283D01*
X210525768Y-187870942D01*
X210532424Y-187891351D01*
X210537048Y-187912314D01*
X210539594Y-187933630D01*
X210575344Y-188444882D01*
X210575789Y-188466344D01*
X210574128Y-188487747D01*
X210570377Y-188508884D01*
X210564573Y-188529551D01*
X210556770Y-188549550D01*
X210547045Y-188568688D01*
X210535491Y-188586781D01*
X210522220Y-188603654D01*
X210507358Y-188619145D01*
X210491049Y-188633104D01*
X210473451Y-188645398D01*
X210454733Y-188655908D01*
X210435074Y-188664532D01*
X210414665Y-188671188D01*
X210393702Y-188675812D01*
X210372386Y-188678358D01*
X209935952Y-188708876D01*
X209914490Y-188709321D01*
X209893087Y-188707660D01*
X209871950Y-188703909D01*
X209851282Y-188698105D01*
X209831283Y-188690302D01*
X209812145Y-188680577D01*
X209794053Y-188669023D01*
X209777180Y-188655752D01*
X209761689Y-188640890D01*
X209747730Y-188624581D01*
X209735436Y-188606983D01*
X209724926Y-188588265D01*
X209716302Y-188568606D01*
X209709646Y-188548197D01*
X209705022Y-188527234D01*
X209702476Y-188505918D01*
X209666726Y-187994666D01*
X209666281Y-187973204D01*
X209667942Y-187951801D01*
X209671693Y-187930664D01*
X209677497Y-187909997D01*
X209685300Y-187889998D01*
X209695025Y-187870860D01*
X209706579Y-187852767D01*
X209719850Y-187835894D01*
X209734712Y-187820403D01*
X209751021Y-187806444D01*
X209768619Y-187794150D01*
X209787337Y-187783640D01*
X209806996Y-187775016D01*
X209827405Y-187768360D01*
X209848368Y-187763736D01*
X209869684Y-187761190D01*
X210306118Y-187730672D01*
X210327580Y-187730227D01*
X210348983Y-187731888D01*
X210348983Y-187731888D01*
G37*
D11*
X210121035Y-188219774D03*
G04 #@! TD*
D18*
G04 #@! TO.C,Q2*
X218769453Y-163290707D03*
X219719453Y-165290707D03*
X217819453Y-165290707D03*
G04 #@! TD*
D19*
G04 #@! TO.C,MUX4*
X195972693Y-187446710D03*
D10*
G36*
X196440639Y-188074525D02*
X196017777Y-188228434D01*
X195504747Y-186818895D01*
X195927609Y-186664986D01*
X196440639Y-188074525D01*
X196440639Y-188074525D01*
G37*
D19*
X196583493Y-187224397D03*
D10*
G36*
X197051439Y-187852212D02*
X196628577Y-188006121D01*
X196115547Y-186596582D01*
X196538409Y-186442673D01*
X197051439Y-187852212D01*
X197051439Y-187852212D01*
G37*
D19*
X197194293Y-187002083D03*
D10*
G36*
X197662239Y-187629898D02*
X197239377Y-187783807D01*
X196726347Y-186374268D01*
X197149209Y-186220359D01*
X197662239Y-187629898D01*
X197662239Y-187629898D01*
G37*
D19*
X197805093Y-186779770D03*
D10*
G36*
X198273039Y-187407585D02*
X197850177Y-187561494D01*
X197337147Y-186151955D01*
X197760009Y-185998046D01*
X198273039Y-187407585D01*
X198273039Y-187407585D01*
G37*
D19*
X198415894Y-186557457D03*
D10*
G36*
X198883840Y-187185272D02*
X198460978Y-187339181D01*
X197947948Y-185929642D01*
X198370810Y-185775733D01*
X198883840Y-187185272D01*
X198883840Y-187185272D01*
G37*
D19*
X199026694Y-186335144D03*
D10*
G36*
X199494640Y-186962959D02*
X199071778Y-187116868D01*
X198558748Y-185707329D01*
X198981610Y-185553420D01*
X199494640Y-186962959D01*
X199494640Y-186962959D01*
G37*
D19*
X199637494Y-186112831D03*
D10*
G36*
X200105440Y-186740646D02*
X199682578Y-186894555D01*
X199169548Y-185485016D01*
X199592410Y-185331107D01*
X200105440Y-186740646D01*
X200105440Y-186740646D01*
G37*
D19*
X200248294Y-185890518D03*
D10*
G36*
X200716240Y-186518333D02*
X200293378Y-186672242D01*
X199780348Y-185262703D01*
X200203210Y-185108794D01*
X200716240Y-186518333D01*
X200716240Y-186518333D01*
G37*
D19*
X202266213Y-191434704D03*
D10*
G36*
X202734159Y-192062519D02*
X202311297Y-192216428D01*
X201798267Y-190806889D01*
X202221129Y-190652980D01*
X202734159Y-192062519D01*
X202734159Y-192062519D01*
G37*
D19*
X201655413Y-191657017D03*
D10*
G36*
X202123359Y-192284832D02*
X201700497Y-192438741D01*
X201187467Y-191029202D01*
X201610329Y-190875293D01*
X202123359Y-192284832D01*
X202123359Y-192284832D01*
G37*
D19*
X201044613Y-191879331D03*
D10*
G36*
X201512559Y-192507146D02*
X201089697Y-192661055D01*
X200576667Y-191251516D01*
X200999529Y-191097607D01*
X201512559Y-192507146D01*
X201512559Y-192507146D01*
G37*
D19*
X200433813Y-192101644D03*
D10*
G36*
X200901759Y-192729459D02*
X200478897Y-192883368D01*
X199965867Y-191473829D01*
X200388729Y-191319920D01*
X200901759Y-192729459D01*
X200901759Y-192729459D01*
G37*
D19*
X199823012Y-192323957D03*
D10*
G36*
X200290958Y-192951772D02*
X199868096Y-193105681D01*
X199355066Y-191696142D01*
X199777928Y-191542233D01*
X200290958Y-192951772D01*
X200290958Y-192951772D01*
G37*
D19*
X199212212Y-192546270D03*
D10*
G36*
X199680158Y-193174085D02*
X199257296Y-193327994D01*
X198744266Y-191918455D01*
X199167128Y-191764546D01*
X199680158Y-193174085D01*
X199680158Y-193174085D01*
G37*
D19*
X198601412Y-192768583D03*
D10*
G36*
X199069358Y-193396398D02*
X198646496Y-193550307D01*
X198133466Y-192140768D01*
X198556328Y-191986859D01*
X199069358Y-193396398D01*
X199069358Y-193396398D01*
G37*
D19*
X197990612Y-192990896D03*
D10*
G36*
X198458558Y-193618711D02*
X198035696Y-193772620D01*
X197522666Y-192363081D01*
X197945528Y-192209172D01*
X198458558Y-193618711D01*
X198458558Y-193618711D01*
G37*
G04 #@! TD*
D20*
G04 #@! TO.C,MUX3*
X199944453Y-174090707D03*
X199294453Y-174090707D03*
X198644453Y-174090707D03*
X197994453Y-174090707D03*
X197344453Y-174090707D03*
X196694453Y-174090707D03*
X196044453Y-174090707D03*
X195394453Y-174090707D03*
X195394453Y-168190707D03*
X196044453Y-168190707D03*
X196694453Y-168190707D03*
X197344453Y-168190707D03*
X197994453Y-168190707D03*
X198644453Y-168190707D03*
X199294453Y-168190707D03*
X199944453Y-168190707D03*
G04 #@! TD*
D21*
G04 #@! TO.C,MUX2*
X202019453Y-164465707D03*
X202019453Y-163815707D03*
X202019453Y-163165707D03*
X202019453Y-162515707D03*
X202019453Y-161865707D03*
X202019453Y-161215707D03*
X202019453Y-160565707D03*
X202019453Y-159915707D03*
X207919453Y-159915707D03*
X207919453Y-160565707D03*
X207919453Y-161215707D03*
X207919453Y-161865707D03*
X207919453Y-162515707D03*
X207919453Y-163165707D03*
X207919453Y-163815707D03*
X207919453Y-164465707D03*
G04 #@! TD*
D19*
G04 #@! TO.C,MUX1*
X210064661Y-148082982D03*
D10*
G36*
X210244805Y-147320963D02*
X210634517Y-147545963D01*
X209884517Y-148845001D01*
X209494805Y-148620001D01*
X210244805Y-147320963D01*
X210244805Y-147320963D01*
G37*
D19*
X209501744Y-147757982D03*
D10*
G36*
X209681888Y-146995963D02*
X210071600Y-147220963D01*
X209321600Y-148520001D01*
X208931888Y-148295001D01*
X209681888Y-146995963D01*
X209681888Y-146995963D01*
G37*
D19*
X208938828Y-147432982D03*
D10*
G36*
X209118972Y-146670963D02*
X209508684Y-146895963D01*
X208758684Y-148195001D01*
X208368972Y-147970001D01*
X209118972Y-146670963D01*
X209118972Y-146670963D01*
G37*
D19*
X208375911Y-147107982D03*
D10*
G36*
X208556055Y-146345963D02*
X208945767Y-146570963D01*
X208195767Y-147870001D01*
X207806055Y-147645001D01*
X208556055Y-146345963D01*
X208556055Y-146345963D01*
G37*
D19*
X207812995Y-146782982D03*
D10*
G36*
X207993139Y-146020963D02*
X208382851Y-146245963D01*
X207632851Y-147545001D01*
X207243139Y-147320001D01*
X207993139Y-146020963D01*
X207993139Y-146020963D01*
G37*
D19*
X207250078Y-146457982D03*
D10*
G36*
X207430222Y-145695963D02*
X207819934Y-145920963D01*
X207069934Y-147220001D01*
X206680222Y-146995001D01*
X207430222Y-145695963D01*
X207430222Y-145695963D01*
G37*
D19*
X206687162Y-146132982D03*
D10*
G36*
X206867306Y-145370963D02*
X207257018Y-145595963D01*
X206507018Y-146895001D01*
X206117306Y-146670001D01*
X206867306Y-145370963D01*
X206867306Y-145370963D01*
G37*
D19*
X206124245Y-145807982D03*
D10*
G36*
X206304389Y-145045963D02*
X206694101Y-145270963D01*
X205944101Y-146570001D01*
X205554389Y-146345001D01*
X206304389Y-145045963D01*
X206304389Y-145045963D01*
G37*
D19*
X209074245Y-140698432D03*
D10*
G36*
X209254389Y-139936413D02*
X209644101Y-140161413D01*
X208894101Y-141460451D01*
X208504389Y-141235451D01*
X209254389Y-139936413D01*
X209254389Y-139936413D01*
G37*
D19*
X209637162Y-141023432D03*
D10*
G36*
X209817306Y-140261413D02*
X210207018Y-140486413D01*
X209457018Y-141785451D01*
X209067306Y-141560451D01*
X209817306Y-140261413D01*
X209817306Y-140261413D01*
G37*
D19*
X210200078Y-141348432D03*
D10*
G36*
X210380222Y-140586413D02*
X210769934Y-140811413D01*
X210019934Y-142110451D01*
X209630222Y-141885451D01*
X210380222Y-140586413D01*
X210380222Y-140586413D01*
G37*
D19*
X210762995Y-141673432D03*
D10*
G36*
X210943139Y-140911413D02*
X211332851Y-141136413D01*
X210582851Y-142435451D01*
X210193139Y-142210451D01*
X210943139Y-140911413D01*
X210943139Y-140911413D01*
G37*
D19*
X211325911Y-141998432D03*
D10*
G36*
X211506055Y-141236413D02*
X211895767Y-141461413D01*
X211145767Y-142760451D01*
X210756055Y-142535451D01*
X211506055Y-141236413D01*
X211506055Y-141236413D01*
G37*
D19*
X211888828Y-142323432D03*
D10*
G36*
X212068972Y-141561413D02*
X212458684Y-141786413D01*
X211708684Y-143085451D01*
X211318972Y-142860451D01*
X212068972Y-141561413D01*
X212068972Y-141561413D01*
G37*
D19*
X212451744Y-142648432D03*
D10*
G36*
X212631888Y-141886413D02*
X213021600Y-142111413D01*
X212271600Y-143410451D01*
X211881888Y-143185451D01*
X212631888Y-141886413D01*
X212631888Y-141886413D01*
G37*
D19*
X213014661Y-142973432D03*
D10*
G36*
X213194805Y-142211413D02*
X213584517Y-142436413D01*
X212834517Y-143735451D01*
X212444805Y-143510451D01*
X213194805Y-142211413D01*
X213194805Y-142211413D01*
G37*
G04 #@! TD*
G04 #@! TO.C,L3*
G36*
X214043822Y-177371131D02*
X214067978Y-177375417D01*
X214091598Y-177382051D01*
X214114454Y-177390968D01*
X214136326Y-177402082D01*
X214157003Y-177415287D01*
X214176286Y-177430454D01*
X214193990Y-177447439D01*
X214209944Y-177466077D01*
X214223994Y-177486189D01*
X214236005Y-177507582D01*
X214245861Y-177530049D01*
X214253468Y-177553373D01*
X214258752Y-177577331D01*
X214261662Y-177601692D01*
X214324443Y-178499502D01*
X214324951Y-178524030D01*
X214323053Y-178548491D01*
X214318767Y-178572647D01*
X214312133Y-178596267D01*
X214303216Y-178619123D01*
X214292102Y-178640995D01*
X214278897Y-178661672D01*
X214263730Y-178680955D01*
X214246745Y-178698659D01*
X214228107Y-178714613D01*
X214207995Y-178728663D01*
X214186602Y-178740674D01*
X214164135Y-178750530D01*
X214140811Y-178758137D01*
X214116853Y-178763421D01*
X214092492Y-178766331D01*
X213444073Y-178811673D01*
X213419545Y-178812181D01*
X213395084Y-178810283D01*
X213370928Y-178805997D01*
X213347308Y-178799363D01*
X213324452Y-178790446D01*
X213302580Y-178779332D01*
X213281903Y-178766127D01*
X213262620Y-178750960D01*
X213244916Y-178733975D01*
X213228962Y-178715337D01*
X213214912Y-178695225D01*
X213202901Y-178673832D01*
X213193045Y-178651365D01*
X213185438Y-178628041D01*
X213180154Y-178604083D01*
X213177244Y-178579722D01*
X213114463Y-177681912D01*
X213113955Y-177657384D01*
X213115853Y-177632923D01*
X213120139Y-177608767D01*
X213126773Y-177585147D01*
X213135690Y-177562291D01*
X213146804Y-177540419D01*
X213160009Y-177519742D01*
X213175176Y-177500459D01*
X213192161Y-177482755D01*
X213210799Y-177466801D01*
X213230911Y-177452751D01*
X213252304Y-177440740D01*
X213274771Y-177430884D01*
X213298095Y-177423277D01*
X213322053Y-177417993D01*
X213346414Y-177415083D01*
X213994833Y-177369741D01*
X214019361Y-177369233D01*
X214043822Y-177371131D01*
X214043822Y-177371131D01*
G37*
D22*
X213719453Y-178090707D03*
D10*
G36*
X211998816Y-177514131D02*
X212022972Y-177518417D01*
X212046592Y-177525051D01*
X212069448Y-177533968D01*
X212091320Y-177545082D01*
X212111997Y-177558287D01*
X212131280Y-177573454D01*
X212148984Y-177590439D01*
X212164938Y-177609077D01*
X212178988Y-177629189D01*
X212190999Y-177650582D01*
X212200855Y-177673049D01*
X212208462Y-177696373D01*
X212213746Y-177720331D01*
X212216656Y-177744692D01*
X212279437Y-178642502D01*
X212279945Y-178667030D01*
X212278047Y-178691491D01*
X212273761Y-178715647D01*
X212267127Y-178739267D01*
X212258210Y-178762123D01*
X212247096Y-178783995D01*
X212233891Y-178804672D01*
X212218724Y-178823955D01*
X212201739Y-178841659D01*
X212183101Y-178857613D01*
X212162989Y-178871663D01*
X212141596Y-178883674D01*
X212119129Y-178893530D01*
X212095805Y-178901137D01*
X212071847Y-178906421D01*
X212047486Y-178909331D01*
X211399067Y-178954673D01*
X211374539Y-178955181D01*
X211350078Y-178953283D01*
X211325922Y-178948997D01*
X211302302Y-178942363D01*
X211279446Y-178933446D01*
X211257574Y-178922332D01*
X211236897Y-178909127D01*
X211217614Y-178893960D01*
X211199910Y-178876975D01*
X211183956Y-178858337D01*
X211169906Y-178838225D01*
X211157895Y-178816832D01*
X211148039Y-178794365D01*
X211140432Y-178771041D01*
X211135148Y-178747083D01*
X211132238Y-178722722D01*
X211069457Y-177824912D01*
X211068949Y-177800384D01*
X211070847Y-177775923D01*
X211075133Y-177751767D01*
X211081767Y-177728147D01*
X211090684Y-177705291D01*
X211101798Y-177683419D01*
X211115003Y-177662742D01*
X211130170Y-177643459D01*
X211147155Y-177625755D01*
X211165793Y-177609801D01*
X211185905Y-177595751D01*
X211207298Y-177583740D01*
X211229765Y-177573884D01*
X211253089Y-177566277D01*
X211277047Y-177560993D01*
X211301408Y-177558083D01*
X211949827Y-177512741D01*
X211974355Y-177512233D01*
X211998816Y-177514131D01*
X211998816Y-177514131D01*
G37*
D22*
X211674447Y-178233707D03*
G04 #@! TD*
D10*
G04 #@! TO.C,C14*
G36*
X213922144Y-168416760D02*
X213943379Y-168419910D01*
X213964203Y-168425126D01*
X213984415Y-168432358D01*
X214003821Y-168441537D01*
X214022234Y-168452573D01*
X214039477Y-168465361D01*
X214055383Y-168479777D01*
X214069799Y-168495683D01*
X214082587Y-168512926D01*
X214093623Y-168531339D01*
X214102802Y-168550745D01*
X214110034Y-168570957D01*
X214115250Y-168591781D01*
X214118400Y-168613016D01*
X214119453Y-168634457D01*
X214119453Y-169146957D01*
X214118400Y-169168398D01*
X214115250Y-169189633D01*
X214110034Y-169210457D01*
X214102802Y-169230669D01*
X214093623Y-169250075D01*
X214082587Y-169268488D01*
X214069799Y-169285731D01*
X214055383Y-169301637D01*
X214039477Y-169316053D01*
X214022234Y-169328841D01*
X214003821Y-169339877D01*
X213984415Y-169349056D01*
X213964203Y-169356288D01*
X213943379Y-169361504D01*
X213922144Y-169364654D01*
X213900703Y-169365707D01*
X213463203Y-169365707D01*
X213441762Y-169364654D01*
X213420527Y-169361504D01*
X213399703Y-169356288D01*
X213379491Y-169349056D01*
X213360085Y-169339877D01*
X213341672Y-169328841D01*
X213324429Y-169316053D01*
X213308523Y-169301637D01*
X213294107Y-169285731D01*
X213281319Y-169268488D01*
X213270283Y-169250075D01*
X213261104Y-169230669D01*
X213253872Y-169210457D01*
X213248656Y-169189633D01*
X213245506Y-169168398D01*
X213244453Y-169146957D01*
X213244453Y-168634457D01*
X213245506Y-168613016D01*
X213248656Y-168591781D01*
X213253872Y-168570957D01*
X213261104Y-168550745D01*
X213270283Y-168531339D01*
X213281319Y-168512926D01*
X213294107Y-168495683D01*
X213308523Y-168479777D01*
X213324429Y-168465361D01*
X213341672Y-168452573D01*
X213360085Y-168441537D01*
X213379491Y-168432358D01*
X213399703Y-168425126D01*
X213420527Y-168419910D01*
X213441762Y-168416760D01*
X213463203Y-168415707D01*
X213900703Y-168415707D01*
X213922144Y-168416760D01*
X213922144Y-168416760D01*
G37*
D11*
X213681953Y-168890707D03*
D10*
G36*
X215497144Y-168416760D02*
X215518379Y-168419910D01*
X215539203Y-168425126D01*
X215559415Y-168432358D01*
X215578821Y-168441537D01*
X215597234Y-168452573D01*
X215614477Y-168465361D01*
X215630383Y-168479777D01*
X215644799Y-168495683D01*
X215657587Y-168512926D01*
X215668623Y-168531339D01*
X215677802Y-168550745D01*
X215685034Y-168570957D01*
X215690250Y-168591781D01*
X215693400Y-168613016D01*
X215694453Y-168634457D01*
X215694453Y-169146957D01*
X215693400Y-169168398D01*
X215690250Y-169189633D01*
X215685034Y-169210457D01*
X215677802Y-169230669D01*
X215668623Y-169250075D01*
X215657587Y-169268488D01*
X215644799Y-169285731D01*
X215630383Y-169301637D01*
X215614477Y-169316053D01*
X215597234Y-169328841D01*
X215578821Y-169339877D01*
X215559415Y-169349056D01*
X215539203Y-169356288D01*
X215518379Y-169361504D01*
X215497144Y-169364654D01*
X215475703Y-169365707D01*
X215038203Y-169365707D01*
X215016762Y-169364654D01*
X214995527Y-169361504D01*
X214974703Y-169356288D01*
X214954491Y-169349056D01*
X214935085Y-169339877D01*
X214916672Y-169328841D01*
X214899429Y-169316053D01*
X214883523Y-169301637D01*
X214869107Y-169285731D01*
X214856319Y-169268488D01*
X214845283Y-169250075D01*
X214836104Y-169230669D01*
X214828872Y-169210457D01*
X214823656Y-169189633D01*
X214820506Y-169168398D01*
X214819453Y-169146957D01*
X214819453Y-168634457D01*
X214820506Y-168613016D01*
X214823656Y-168591781D01*
X214828872Y-168570957D01*
X214836104Y-168550745D01*
X214845283Y-168531339D01*
X214856319Y-168512926D01*
X214869107Y-168495683D01*
X214883523Y-168479777D01*
X214899429Y-168465361D01*
X214916672Y-168452573D01*
X214935085Y-168441537D01*
X214954491Y-168432358D01*
X214974703Y-168425126D01*
X214995527Y-168419910D01*
X215016762Y-168416760D01*
X215038203Y-168415707D01*
X215475703Y-168415707D01*
X215497144Y-168416760D01*
X215497144Y-168416760D01*
G37*
D11*
X215256953Y-168890707D03*
G04 #@! TD*
D10*
G04 #@! TO.C,C13*
G36*
X212009644Y-167216760D02*
X212030879Y-167219910D01*
X212051703Y-167225126D01*
X212071915Y-167232358D01*
X212091321Y-167241537D01*
X212109734Y-167252573D01*
X212126977Y-167265361D01*
X212142883Y-167279777D01*
X212157299Y-167295683D01*
X212170087Y-167312926D01*
X212181123Y-167331339D01*
X212190302Y-167350745D01*
X212197534Y-167370957D01*
X212202750Y-167391781D01*
X212205900Y-167413016D01*
X212206953Y-167434457D01*
X212206953Y-167946957D01*
X212205900Y-167968398D01*
X212202750Y-167989633D01*
X212197534Y-168010457D01*
X212190302Y-168030669D01*
X212181123Y-168050075D01*
X212170087Y-168068488D01*
X212157299Y-168085731D01*
X212142883Y-168101637D01*
X212126977Y-168116053D01*
X212109734Y-168128841D01*
X212091321Y-168139877D01*
X212071915Y-168149056D01*
X212051703Y-168156288D01*
X212030879Y-168161504D01*
X212009644Y-168164654D01*
X211988203Y-168165707D01*
X211550703Y-168165707D01*
X211529262Y-168164654D01*
X211508027Y-168161504D01*
X211487203Y-168156288D01*
X211466991Y-168149056D01*
X211447585Y-168139877D01*
X211429172Y-168128841D01*
X211411929Y-168116053D01*
X211396023Y-168101637D01*
X211381607Y-168085731D01*
X211368819Y-168068488D01*
X211357783Y-168050075D01*
X211348604Y-168030669D01*
X211341372Y-168010457D01*
X211336156Y-167989633D01*
X211333006Y-167968398D01*
X211331953Y-167946957D01*
X211331953Y-167434457D01*
X211333006Y-167413016D01*
X211336156Y-167391781D01*
X211341372Y-167370957D01*
X211348604Y-167350745D01*
X211357783Y-167331339D01*
X211368819Y-167312926D01*
X211381607Y-167295683D01*
X211396023Y-167279777D01*
X211411929Y-167265361D01*
X211429172Y-167252573D01*
X211447585Y-167241537D01*
X211466991Y-167232358D01*
X211487203Y-167225126D01*
X211508027Y-167219910D01*
X211529262Y-167216760D01*
X211550703Y-167215707D01*
X211988203Y-167215707D01*
X212009644Y-167216760D01*
X212009644Y-167216760D01*
G37*
D11*
X211769453Y-167690707D03*
D10*
G36*
X210434644Y-167216760D02*
X210455879Y-167219910D01*
X210476703Y-167225126D01*
X210496915Y-167232358D01*
X210516321Y-167241537D01*
X210534734Y-167252573D01*
X210551977Y-167265361D01*
X210567883Y-167279777D01*
X210582299Y-167295683D01*
X210595087Y-167312926D01*
X210606123Y-167331339D01*
X210615302Y-167350745D01*
X210622534Y-167370957D01*
X210627750Y-167391781D01*
X210630900Y-167413016D01*
X210631953Y-167434457D01*
X210631953Y-167946957D01*
X210630900Y-167968398D01*
X210627750Y-167989633D01*
X210622534Y-168010457D01*
X210615302Y-168030669D01*
X210606123Y-168050075D01*
X210595087Y-168068488D01*
X210582299Y-168085731D01*
X210567883Y-168101637D01*
X210551977Y-168116053D01*
X210534734Y-168128841D01*
X210516321Y-168139877D01*
X210496915Y-168149056D01*
X210476703Y-168156288D01*
X210455879Y-168161504D01*
X210434644Y-168164654D01*
X210413203Y-168165707D01*
X209975703Y-168165707D01*
X209954262Y-168164654D01*
X209933027Y-168161504D01*
X209912203Y-168156288D01*
X209891991Y-168149056D01*
X209872585Y-168139877D01*
X209854172Y-168128841D01*
X209836929Y-168116053D01*
X209821023Y-168101637D01*
X209806607Y-168085731D01*
X209793819Y-168068488D01*
X209782783Y-168050075D01*
X209773604Y-168030669D01*
X209766372Y-168010457D01*
X209761156Y-167989633D01*
X209758006Y-167968398D01*
X209756953Y-167946957D01*
X209756953Y-167434457D01*
X209758006Y-167413016D01*
X209761156Y-167391781D01*
X209766372Y-167370957D01*
X209773604Y-167350745D01*
X209782783Y-167331339D01*
X209793819Y-167312926D01*
X209806607Y-167295683D01*
X209821023Y-167279777D01*
X209836929Y-167265361D01*
X209854172Y-167252573D01*
X209872585Y-167241537D01*
X209891991Y-167232358D01*
X209912203Y-167225126D01*
X209933027Y-167219910D01*
X209954262Y-167216760D01*
X209975703Y-167215707D01*
X210413203Y-167215707D01*
X210434644Y-167216760D01*
X210434644Y-167216760D01*
G37*
D11*
X210194453Y-167690707D03*
G04 #@! TD*
D10*
G04 #@! TO.C,C12*
G36*
X212009644Y-168816760D02*
X212030879Y-168819910D01*
X212051703Y-168825126D01*
X212071915Y-168832358D01*
X212091321Y-168841537D01*
X212109734Y-168852573D01*
X212126977Y-168865361D01*
X212142883Y-168879777D01*
X212157299Y-168895683D01*
X212170087Y-168912926D01*
X212181123Y-168931339D01*
X212190302Y-168950745D01*
X212197534Y-168970957D01*
X212202750Y-168991781D01*
X212205900Y-169013016D01*
X212206953Y-169034457D01*
X212206953Y-169546957D01*
X212205900Y-169568398D01*
X212202750Y-169589633D01*
X212197534Y-169610457D01*
X212190302Y-169630669D01*
X212181123Y-169650075D01*
X212170087Y-169668488D01*
X212157299Y-169685731D01*
X212142883Y-169701637D01*
X212126977Y-169716053D01*
X212109734Y-169728841D01*
X212091321Y-169739877D01*
X212071915Y-169749056D01*
X212051703Y-169756288D01*
X212030879Y-169761504D01*
X212009644Y-169764654D01*
X211988203Y-169765707D01*
X211550703Y-169765707D01*
X211529262Y-169764654D01*
X211508027Y-169761504D01*
X211487203Y-169756288D01*
X211466991Y-169749056D01*
X211447585Y-169739877D01*
X211429172Y-169728841D01*
X211411929Y-169716053D01*
X211396023Y-169701637D01*
X211381607Y-169685731D01*
X211368819Y-169668488D01*
X211357783Y-169650075D01*
X211348604Y-169630669D01*
X211341372Y-169610457D01*
X211336156Y-169589633D01*
X211333006Y-169568398D01*
X211331953Y-169546957D01*
X211331953Y-169034457D01*
X211333006Y-169013016D01*
X211336156Y-168991781D01*
X211341372Y-168970957D01*
X211348604Y-168950745D01*
X211357783Y-168931339D01*
X211368819Y-168912926D01*
X211381607Y-168895683D01*
X211396023Y-168879777D01*
X211411929Y-168865361D01*
X211429172Y-168852573D01*
X211447585Y-168841537D01*
X211466991Y-168832358D01*
X211487203Y-168825126D01*
X211508027Y-168819910D01*
X211529262Y-168816760D01*
X211550703Y-168815707D01*
X211988203Y-168815707D01*
X212009644Y-168816760D01*
X212009644Y-168816760D01*
G37*
D11*
X211769453Y-169290707D03*
D10*
G36*
X210434644Y-168816760D02*
X210455879Y-168819910D01*
X210476703Y-168825126D01*
X210496915Y-168832358D01*
X210516321Y-168841537D01*
X210534734Y-168852573D01*
X210551977Y-168865361D01*
X210567883Y-168879777D01*
X210582299Y-168895683D01*
X210595087Y-168912926D01*
X210606123Y-168931339D01*
X210615302Y-168950745D01*
X210622534Y-168970957D01*
X210627750Y-168991781D01*
X210630900Y-169013016D01*
X210631953Y-169034457D01*
X210631953Y-169546957D01*
X210630900Y-169568398D01*
X210627750Y-169589633D01*
X210622534Y-169610457D01*
X210615302Y-169630669D01*
X210606123Y-169650075D01*
X210595087Y-169668488D01*
X210582299Y-169685731D01*
X210567883Y-169701637D01*
X210551977Y-169716053D01*
X210534734Y-169728841D01*
X210516321Y-169739877D01*
X210496915Y-169749056D01*
X210476703Y-169756288D01*
X210455879Y-169761504D01*
X210434644Y-169764654D01*
X210413203Y-169765707D01*
X209975703Y-169765707D01*
X209954262Y-169764654D01*
X209933027Y-169761504D01*
X209912203Y-169756288D01*
X209891991Y-169749056D01*
X209872585Y-169739877D01*
X209854172Y-169728841D01*
X209836929Y-169716053D01*
X209821023Y-169701637D01*
X209806607Y-169685731D01*
X209793819Y-169668488D01*
X209782783Y-169650075D01*
X209773604Y-169630669D01*
X209766372Y-169610457D01*
X209761156Y-169589633D01*
X209758006Y-169568398D01*
X209756953Y-169546957D01*
X209756953Y-169034457D01*
X209758006Y-169013016D01*
X209761156Y-168991781D01*
X209766372Y-168970957D01*
X209773604Y-168950745D01*
X209782783Y-168931339D01*
X209793819Y-168912926D01*
X209806607Y-168895683D01*
X209821023Y-168879777D01*
X209836929Y-168865361D01*
X209854172Y-168852573D01*
X209872585Y-168841537D01*
X209891991Y-168832358D01*
X209912203Y-168825126D01*
X209933027Y-168819910D01*
X209954262Y-168816760D01*
X209975703Y-168815707D01*
X210413203Y-168815707D01*
X210434644Y-168816760D01*
X210434644Y-168816760D01*
G37*
D11*
X210194453Y-169290707D03*
G04 #@! TD*
D10*
G04 #@! TO.C,C11*
G36*
X210347144Y-150541760D02*
X210368379Y-150544910D01*
X210389203Y-150550126D01*
X210409415Y-150557358D01*
X210428821Y-150566537D01*
X210447234Y-150577573D01*
X210464477Y-150590361D01*
X210480383Y-150604777D01*
X210494799Y-150620683D01*
X210507587Y-150637926D01*
X210518623Y-150656339D01*
X210527802Y-150675745D01*
X210535034Y-150695957D01*
X210540250Y-150716781D01*
X210543400Y-150738016D01*
X210544453Y-150759457D01*
X210544453Y-151196957D01*
X210543400Y-151218398D01*
X210540250Y-151239633D01*
X210535034Y-151260457D01*
X210527802Y-151280669D01*
X210518623Y-151300075D01*
X210507587Y-151318488D01*
X210494799Y-151335731D01*
X210480383Y-151351637D01*
X210464477Y-151366053D01*
X210447234Y-151378841D01*
X210428821Y-151389877D01*
X210409415Y-151399056D01*
X210389203Y-151406288D01*
X210368379Y-151411504D01*
X210347144Y-151414654D01*
X210325703Y-151415707D01*
X209813203Y-151415707D01*
X209791762Y-151414654D01*
X209770527Y-151411504D01*
X209749703Y-151406288D01*
X209729491Y-151399056D01*
X209710085Y-151389877D01*
X209691672Y-151378841D01*
X209674429Y-151366053D01*
X209658523Y-151351637D01*
X209644107Y-151335731D01*
X209631319Y-151318488D01*
X209620283Y-151300075D01*
X209611104Y-151280669D01*
X209603872Y-151260457D01*
X209598656Y-151239633D01*
X209595506Y-151218398D01*
X209594453Y-151196957D01*
X209594453Y-150759457D01*
X209595506Y-150738016D01*
X209598656Y-150716781D01*
X209603872Y-150695957D01*
X209611104Y-150675745D01*
X209620283Y-150656339D01*
X209631319Y-150637926D01*
X209644107Y-150620683D01*
X209658523Y-150604777D01*
X209674429Y-150590361D01*
X209691672Y-150577573D01*
X209710085Y-150566537D01*
X209729491Y-150557358D01*
X209749703Y-150550126D01*
X209770527Y-150544910D01*
X209791762Y-150541760D01*
X209813203Y-150540707D01*
X210325703Y-150540707D01*
X210347144Y-150541760D01*
X210347144Y-150541760D01*
G37*
D11*
X210069453Y-150978207D03*
D10*
G36*
X210347144Y-152116760D02*
X210368379Y-152119910D01*
X210389203Y-152125126D01*
X210409415Y-152132358D01*
X210428821Y-152141537D01*
X210447234Y-152152573D01*
X210464477Y-152165361D01*
X210480383Y-152179777D01*
X210494799Y-152195683D01*
X210507587Y-152212926D01*
X210518623Y-152231339D01*
X210527802Y-152250745D01*
X210535034Y-152270957D01*
X210540250Y-152291781D01*
X210543400Y-152313016D01*
X210544453Y-152334457D01*
X210544453Y-152771957D01*
X210543400Y-152793398D01*
X210540250Y-152814633D01*
X210535034Y-152835457D01*
X210527802Y-152855669D01*
X210518623Y-152875075D01*
X210507587Y-152893488D01*
X210494799Y-152910731D01*
X210480383Y-152926637D01*
X210464477Y-152941053D01*
X210447234Y-152953841D01*
X210428821Y-152964877D01*
X210409415Y-152974056D01*
X210389203Y-152981288D01*
X210368379Y-152986504D01*
X210347144Y-152989654D01*
X210325703Y-152990707D01*
X209813203Y-152990707D01*
X209791762Y-152989654D01*
X209770527Y-152986504D01*
X209749703Y-152981288D01*
X209729491Y-152974056D01*
X209710085Y-152964877D01*
X209691672Y-152953841D01*
X209674429Y-152941053D01*
X209658523Y-152926637D01*
X209644107Y-152910731D01*
X209631319Y-152893488D01*
X209620283Y-152875075D01*
X209611104Y-152855669D01*
X209603872Y-152835457D01*
X209598656Y-152814633D01*
X209595506Y-152793398D01*
X209594453Y-152771957D01*
X209594453Y-152334457D01*
X209595506Y-152313016D01*
X209598656Y-152291781D01*
X209603872Y-152270957D01*
X209611104Y-152250745D01*
X209620283Y-152231339D01*
X209631319Y-152212926D01*
X209644107Y-152195683D01*
X209658523Y-152179777D01*
X209674429Y-152165361D01*
X209691672Y-152152573D01*
X209710085Y-152141537D01*
X209729491Y-152132358D01*
X209749703Y-152125126D01*
X209770527Y-152119910D01*
X209791762Y-152116760D01*
X209813203Y-152115707D01*
X210325703Y-152115707D01*
X210347144Y-152116760D01*
X210347144Y-152116760D01*
G37*
D11*
X210069453Y-152553207D03*
G04 #@! TD*
D10*
G04 #@! TO.C,C10*
G36*
X208722144Y-150529260D02*
X208743379Y-150532410D01*
X208764203Y-150537626D01*
X208784415Y-150544858D01*
X208803821Y-150554037D01*
X208822234Y-150565073D01*
X208839477Y-150577861D01*
X208855383Y-150592277D01*
X208869799Y-150608183D01*
X208882587Y-150625426D01*
X208893623Y-150643839D01*
X208902802Y-150663245D01*
X208910034Y-150683457D01*
X208915250Y-150704281D01*
X208918400Y-150725516D01*
X208919453Y-150746957D01*
X208919453Y-151184457D01*
X208918400Y-151205898D01*
X208915250Y-151227133D01*
X208910034Y-151247957D01*
X208902802Y-151268169D01*
X208893623Y-151287575D01*
X208882587Y-151305988D01*
X208869799Y-151323231D01*
X208855383Y-151339137D01*
X208839477Y-151353553D01*
X208822234Y-151366341D01*
X208803821Y-151377377D01*
X208784415Y-151386556D01*
X208764203Y-151393788D01*
X208743379Y-151399004D01*
X208722144Y-151402154D01*
X208700703Y-151403207D01*
X208188203Y-151403207D01*
X208166762Y-151402154D01*
X208145527Y-151399004D01*
X208124703Y-151393788D01*
X208104491Y-151386556D01*
X208085085Y-151377377D01*
X208066672Y-151366341D01*
X208049429Y-151353553D01*
X208033523Y-151339137D01*
X208019107Y-151323231D01*
X208006319Y-151305988D01*
X207995283Y-151287575D01*
X207986104Y-151268169D01*
X207978872Y-151247957D01*
X207973656Y-151227133D01*
X207970506Y-151205898D01*
X207969453Y-151184457D01*
X207969453Y-150746957D01*
X207970506Y-150725516D01*
X207973656Y-150704281D01*
X207978872Y-150683457D01*
X207986104Y-150663245D01*
X207995283Y-150643839D01*
X208006319Y-150625426D01*
X208019107Y-150608183D01*
X208033523Y-150592277D01*
X208049429Y-150577861D01*
X208066672Y-150565073D01*
X208085085Y-150554037D01*
X208104491Y-150544858D01*
X208124703Y-150537626D01*
X208145527Y-150532410D01*
X208166762Y-150529260D01*
X208188203Y-150528207D01*
X208700703Y-150528207D01*
X208722144Y-150529260D01*
X208722144Y-150529260D01*
G37*
D11*
X208444453Y-150965707D03*
D10*
G36*
X208722144Y-152104260D02*
X208743379Y-152107410D01*
X208764203Y-152112626D01*
X208784415Y-152119858D01*
X208803821Y-152129037D01*
X208822234Y-152140073D01*
X208839477Y-152152861D01*
X208855383Y-152167277D01*
X208869799Y-152183183D01*
X208882587Y-152200426D01*
X208893623Y-152218839D01*
X208902802Y-152238245D01*
X208910034Y-152258457D01*
X208915250Y-152279281D01*
X208918400Y-152300516D01*
X208919453Y-152321957D01*
X208919453Y-152759457D01*
X208918400Y-152780898D01*
X208915250Y-152802133D01*
X208910034Y-152822957D01*
X208902802Y-152843169D01*
X208893623Y-152862575D01*
X208882587Y-152880988D01*
X208869799Y-152898231D01*
X208855383Y-152914137D01*
X208839477Y-152928553D01*
X208822234Y-152941341D01*
X208803821Y-152952377D01*
X208784415Y-152961556D01*
X208764203Y-152968788D01*
X208743379Y-152974004D01*
X208722144Y-152977154D01*
X208700703Y-152978207D01*
X208188203Y-152978207D01*
X208166762Y-152977154D01*
X208145527Y-152974004D01*
X208124703Y-152968788D01*
X208104491Y-152961556D01*
X208085085Y-152952377D01*
X208066672Y-152941341D01*
X208049429Y-152928553D01*
X208033523Y-152914137D01*
X208019107Y-152898231D01*
X208006319Y-152880988D01*
X207995283Y-152862575D01*
X207986104Y-152843169D01*
X207978872Y-152822957D01*
X207973656Y-152802133D01*
X207970506Y-152780898D01*
X207969453Y-152759457D01*
X207969453Y-152321957D01*
X207970506Y-152300516D01*
X207973656Y-152279281D01*
X207978872Y-152258457D01*
X207986104Y-152238245D01*
X207995283Y-152218839D01*
X208006319Y-152200426D01*
X208019107Y-152183183D01*
X208033523Y-152167277D01*
X208049429Y-152152861D01*
X208066672Y-152140073D01*
X208085085Y-152129037D01*
X208104491Y-152119858D01*
X208124703Y-152112626D01*
X208145527Y-152107410D01*
X208166762Y-152104260D01*
X208188203Y-152103207D01*
X208700703Y-152103207D01*
X208722144Y-152104260D01*
X208722144Y-152104260D01*
G37*
D11*
X208444453Y-152540707D03*
G04 #@! TD*
D10*
G04 #@! TO.C,C9*
G36*
X202309644Y-165716760D02*
X202330879Y-165719910D01*
X202351703Y-165725126D01*
X202371915Y-165732358D01*
X202391321Y-165741537D01*
X202409734Y-165752573D01*
X202426977Y-165765361D01*
X202442883Y-165779777D01*
X202457299Y-165795683D01*
X202470087Y-165812926D01*
X202481123Y-165831339D01*
X202490302Y-165850745D01*
X202497534Y-165870957D01*
X202502750Y-165891781D01*
X202505900Y-165913016D01*
X202506953Y-165934457D01*
X202506953Y-166446957D01*
X202505900Y-166468398D01*
X202502750Y-166489633D01*
X202497534Y-166510457D01*
X202490302Y-166530669D01*
X202481123Y-166550075D01*
X202470087Y-166568488D01*
X202457299Y-166585731D01*
X202442883Y-166601637D01*
X202426977Y-166616053D01*
X202409734Y-166628841D01*
X202391321Y-166639877D01*
X202371915Y-166649056D01*
X202351703Y-166656288D01*
X202330879Y-166661504D01*
X202309644Y-166664654D01*
X202288203Y-166665707D01*
X201850703Y-166665707D01*
X201829262Y-166664654D01*
X201808027Y-166661504D01*
X201787203Y-166656288D01*
X201766991Y-166649056D01*
X201747585Y-166639877D01*
X201729172Y-166628841D01*
X201711929Y-166616053D01*
X201696023Y-166601637D01*
X201681607Y-166585731D01*
X201668819Y-166568488D01*
X201657783Y-166550075D01*
X201648604Y-166530669D01*
X201641372Y-166510457D01*
X201636156Y-166489633D01*
X201633006Y-166468398D01*
X201631953Y-166446957D01*
X201631953Y-165934457D01*
X201633006Y-165913016D01*
X201636156Y-165891781D01*
X201641372Y-165870957D01*
X201648604Y-165850745D01*
X201657783Y-165831339D01*
X201668819Y-165812926D01*
X201681607Y-165795683D01*
X201696023Y-165779777D01*
X201711929Y-165765361D01*
X201729172Y-165752573D01*
X201747585Y-165741537D01*
X201766991Y-165732358D01*
X201787203Y-165725126D01*
X201808027Y-165719910D01*
X201829262Y-165716760D01*
X201850703Y-165715707D01*
X202288203Y-165715707D01*
X202309644Y-165716760D01*
X202309644Y-165716760D01*
G37*
D11*
X202069453Y-166190707D03*
D10*
G36*
X203884644Y-165716760D02*
X203905879Y-165719910D01*
X203926703Y-165725126D01*
X203946915Y-165732358D01*
X203966321Y-165741537D01*
X203984734Y-165752573D01*
X204001977Y-165765361D01*
X204017883Y-165779777D01*
X204032299Y-165795683D01*
X204045087Y-165812926D01*
X204056123Y-165831339D01*
X204065302Y-165850745D01*
X204072534Y-165870957D01*
X204077750Y-165891781D01*
X204080900Y-165913016D01*
X204081953Y-165934457D01*
X204081953Y-166446957D01*
X204080900Y-166468398D01*
X204077750Y-166489633D01*
X204072534Y-166510457D01*
X204065302Y-166530669D01*
X204056123Y-166550075D01*
X204045087Y-166568488D01*
X204032299Y-166585731D01*
X204017883Y-166601637D01*
X204001977Y-166616053D01*
X203984734Y-166628841D01*
X203966321Y-166639877D01*
X203946915Y-166649056D01*
X203926703Y-166656288D01*
X203905879Y-166661504D01*
X203884644Y-166664654D01*
X203863203Y-166665707D01*
X203425703Y-166665707D01*
X203404262Y-166664654D01*
X203383027Y-166661504D01*
X203362203Y-166656288D01*
X203341991Y-166649056D01*
X203322585Y-166639877D01*
X203304172Y-166628841D01*
X203286929Y-166616053D01*
X203271023Y-166601637D01*
X203256607Y-166585731D01*
X203243819Y-166568488D01*
X203232783Y-166550075D01*
X203223604Y-166530669D01*
X203216372Y-166510457D01*
X203211156Y-166489633D01*
X203208006Y-166468398D01*
X203206953Y-166446957D01*
X203206953Y-165934457D01*
X203208006Y-165913016D01*
X203211156Y-165891781D01*
X203216372Y-165870957D01*
X203223604Y-165850745D01*
X203232783Y-165831339D01*
X203243819Y-165812926D01*
X203256607Y-165795683D01*
X203271023Y-165779777D01*
X203286929Y-165765361D01*
X203304172Y-165752573D01*
X203322585Y-165741537D01*
X203341991Y-165732358D01*
X203362203Y-165725126D01*
X203383027Y-165719910D01*
X203404262Y-165716760D01*
X203425703Y-165715707D01*
X203863203Y-165715707D01*
X203884644Y-165716760D01*
X203884644Y-165716760D01*
G37*
D11*
X203644453Y-166190707D03*
G04 #@! TD*
D10*
G04 #@! TO.C,C8*
G36*
X202309644Y-167316760D02*
X202330879Y-167319910D01*
X202351703Y-167325126D01*
X202371915Y-167332358D01*
X202391321Y-167341537D01*
X202409734Y-167352573D01*
X202426977Y-167365361D01*
X202442883Y-167379777D01*
X202457299Y-167395683D01*
X202470087Y-167412926D01*
X202481123Y-167431339D01*
X202490302Y-167450745D01*
X202497534Y-167470957D01*
X202502750Y-167491781D01*
X202505900Y-167513016D01*
X202506953Y-167534457D01*
X202506953Y-168046957D01*
X202505900Y-168068398D01*
X202502750Y-168089633D01*
X202497534Y-168110457D01*
X202490302Y-168130669D01*
X202481123Y-168150075D01*
X202470087Y-168168488D01*
X202457299Y-168185731D01*
X202442883Y-168201637D01*
X202426977Y-168216053D01*
X202409734Y-168228841D01*
X202391321Y-168239877D01*
X202371915Y-168249056D01*
X202351703Y-168256288D01*
X202330879Y-168261504D01*
X202309644Y-168264654D01*
X202288203Y-168265707D01*
X201850703Y-168265707D01*
X201829262Y-168264654D01*
X201808027Y-168261504D01*
X201787203Y-168256288D01*
X201766991Y-168249056D01*
X201747585Y-168239877D01*
X201729172Y-168228841D01*
X201711929Y-168216053D01*
X201696023Y-168201637D01*
X201681607Y-168185731D01*
X201668819Y-168168488D01*
X201657783Y-168150075D01*
X201648604Y-168130669D01*
X201641372Y-168110457D01*
X201636156Y-168089633D01*
X201633006Y-168068398D01*
X201631953Y-168046957D01*
X201631953Y-167534457D01*
X201633006Y-167513016D01*
X201636156Y-167491781D01*
X201641372Y-167470957D01*
X201648604Y-167450745D01*
X201657783Y-167431339D01*
X201668819Y-167412926D01*
X201681607Y-167395683D01*
X201696023Y-167379777D01*
X201711929Y-167365361D01*
X201729172Y-167352573D01*
X201747585Y-167341537D01*
X201766991Y-167332358D01*
X201787203Y-167325126D01*
X201808027Y-167319910D01*
X201829262Y-167316760D01*
X201850703Y-167315707D01*
X202288203Y-167315707D01*
X202309644Y-167316760D01*
X202309644Y-167316760D01*
G37*
D11*
X202069453Y-167790707D03*
D10*
G36*
X203884644Y-167316760D02*
X203905879Y-167319910D01*
X203926703Y-167325126D01*
X203946915Y-167332358D01*
X203966321Y-167341537D01*
X203984734Y-167352573D01*
X204001977Y-167365361D01*
X204017883Y-167379777D01*
X204032299Y-167395683D01*
X204045087Y-167412926D01*
X204056123Y-167431339D01*
X204065302Y-167450745D01*
X204072534Y-167470957D01*
X204077750Y-167491781D01*
X204080900Y-167513016D01*
X204081953Y-167534457D01*
X204081953Y-168046957D01*
X204080900Y-168068398D01*
X204077750Y-168089633D01*
X204072534Y-168110457D01*
X204065302Y-168130669D01*
X204056123Y-168150075D01*
X204045087Y-168168488D01*
X204032299Y-168185731D01*
X204017883Y-168201637D01*
X204001977Y-168216053D01*
X203984734Y-168228841D01*
X203966321Y-168239877D01*
X203946915Y-168249056D01*
X203926703Y-168256288D01*
X203905879Y-168261504D01*
X203884644Y-168264654D01*
X203863203Y-168265707D01*
X203425703Y-168265707D01*
X203404262Y-168264654D01*
X203383027Y-168261504D01*
X203362203Y-168256288D01*
X203341991Y-168249056D01*
X203322585Y-168239877D01*
X203304172Y-168228841D01*
X203286929Y-168216053D01*
X203271023Y-168201637D01*
X203256607Y-168185731D01*
X203243819Y-168168488D01*
X203232783Y-168150075D01*
X203223604Y-168130669D01*
X203216372Y-168110457D01*
X203211156Y-168089633D01*
X203208006Y-168068398D01*
X203206953Y-168046957D01*
X203206953Y-167534457D01*
X203208006Y-167513016D01*
X203211156Y-167491781D01*
X203216372Y-167470957D01*
X203223604Y-167450745D01*
X203232783Y-167431339D01*
X203243819Y-167412926D01*
X203256607Y-167395683D01*
X203271023Y-167379777D01*
X203286929Y-167365361D01*
X203304172Y-167352573D01*
X203322585Y-167341537D01*
X203341991Y-167332358D01*
X203362203Y-167325126D01*
X203383027Y-167319910D01*
X203404262Y-167316760D01*
X203425703Y-167315707D01*
X203863203Y-167315707D01*
X203884644Y-167316760D01*
X203884644Y-167316760D01*
G37*
D11*
X203644453Y-167790707D03*
G04 #@! TD*
D10*
G04 #@! TO.C,C7*
G36*
X201747144Y-173666760D02*
X201768379Y-173669910D01*
X201789203Y-173675126D01*
X201809415Y-173682358D01*
X201828821Y-173691537D01*
X201847234Y-173702573D01*
X201864477Y-173715361D01*
X201880383Y-173729777D01*
X201894799Y-173745683D01*
X201907587Y-173762926D01*
X201918623Y-173781339D01*
X201927802Y-173800745D01*
X201935034Y-173820957D01*
X201940250Y-173841781D01*
X201943400Y-173863016D01*
X201944453Y-173884457D01*
X201944453Y-174321957D01*
X201943400Y-174343398D01*
X201940250Y-174364633D01*
X201935034Y-174385457D01*
X201927802Y-174405669D01*
X201918623Y-174425075D01*
X201907587Y-174443488D01*
X201894799Y-174460731D01*
X201880383Y-174476637D01*
X201864477Y-174491053D01*
X201847234Y-174503841D01*
X201828821Y-174514877D01*
X201809415Y-174524056D01*
X201789203Y-174531288D01*
X201768379Y-174536504D01*
X201747144Y-174539654D01*
X201725703Y-174540707D01*
X201213203Y-174540707D01*
X201191762Y-174539654D01*
X201170527Y-174536504D01*
X201149703Y-174531288D01*
X201129491Y-174524056D01*
X201110085Y-174514877D01*
X201091672Y-174503841D01*
X201074429Y-174491053D01*
X201058523Y-174476637D01*
X201044107Y-174460731D01*
X201031319Y-174443488D01*
X201020283Y-174425075D01*
X201011104Y-174405669D01*
X201003872Y-174385457D01*
X200998656Y-174364633D01*
X200995506Y-174343398D01*
X200994453Y-174321957D01*
X200994453Y-173884457D01*
X200995506Y-173863016D01*
X200998656Y-173841781D01*
X201003872Y-173820957D01*
X201011104Y-173800745D01*
X201020283Y-173781339D01*
X201031319Y-173762926D01*
X201044107Y-173745683D01*
X201058523Y-173729777D01*
X201074429Y-173715361D01*
X201091672Y-173702573D01*
X201110085Y-173691537D01*
X201129491Y-173682358D01*
X201149703Y-173675126D01*
X201170527Y-173669910D01*
X201191762Y-173666760D01*
X201213203Y-173665707D01*
X201725703Y-173665707D01*
X201747144Y-173666760D01*
X201747144Y-173666760D01*
G37*
D11*
X201469453Y-174103207D03*
D10*
G36*
X201747144Y-175241760D02*
X201768379Y-175244910D01*
X201789203Y-175250126D01*
X201809415Y-175257358D01*
X201828821Y-175266537D01*
X201847234Y-175277573D01*
X201864477Y-175290361D01*
X201880383Y-175304777D01*
X201894799Y-175320683D01*
X201907587Y-175337926D01*
X201918623Y-175356339D01*
X201927802Y-175375745D01*
X201935034Y-175395957D01*
X201940250Y-175416781D01*
X201943400Y-175438016D01*
X201944453Y-175459457D01*
X201944453Y-175896957D01*
X201943400Y-175918398D01*
X201940250Y-175939633D01*
X201935034Y-175960457D01*
X201927802Y-175980669D01*
X201918623Y-176000075D01*
X201907587Y-176018488D01*
X201894799Y-176035731D01*
X201880383Y-176051637D01*
X201864477Y-176066053D01*
X201847234Y-176078841D01*
X201828821Y-176089877D01*
X201809415Y-176099056D01*
X201789203Y-176106288D01*
X201768379Y-176111504D01*
X201747144Y-176114654D01*
X201725703Y-176115707D01*
X201213203Y-176115707D01*
X201191762Y-176114654D01*
X201170527Y-176111504D01*
X201149703Y-176106288D01*
X201129491Y-176099056D01*
X201110085Y-176089877D01*
X201091672Y-176078841D01*
X201074429Y-176066053D01*
X201058523Y-176051637D01*
X201044107Y-176035731D01*
X201031319Y-176018488D01*
X201020283Y-176000075D01*
X201011104Y-175980669D01*
X201003872Y-175960457D01*
X200998656Y-175939633D01*
X200995506Y-175918398D01*
X200994453Y-175896957D01*
X200994453Y-175459457D01*
X200995506Y-175438016D01*
X200998656Y-175416781D01*
X201003872Y-175395957D01*
X201011104Y-175375745D01*
X201020283Y-175356339D01*
X201031319Y-175337926D01*
X201044107Y-175320683D01*
X201058523Y-175304777D01*
X201074429Y-175290361D01*
X201091672Y-175277573D01*
X201110085Y-175266537D01*
X201129491Y-175257358D01*
X201149703Y-175250126D01*
X201170527Y-175244910D01*
X201191762Y-175241760D01*
X201213203Y-175240707D01*
X201725703Y-175240707D01*
X201747144Y-175241760D01*
X201747144Y-175241760D01*
G37*
D11*
X201469453Y-175678207D03*
G04 #@! TD*
D10*
G04 #@! TO.C,C6*
G36*
X203347144Y-173654260D02*
X203368379Y-173657410D01*
X203389203Y-173662626D01*
X203409415Y-173669858D01*
X203428821Y-173679037D01*
X203447234Y-173690073D01*
X203464477Y-173702861D01*
X203480383Y-173717277D01*
X203494799Y-173733183D01*
X203507587Y-173750426D01*
X203518623Y-173768839D01*
X203527802Y-173788245D01*
X203535034Y-173808457D01*
X203540250Y-173829281D01*
X203543400Y-173850516D01*
X203544453Y-173871957D01*
X203544453Y-174309457D01*
X203543400Y-174330898D01*
X203540250Y-174352133D01*
X203535034Y-174372957D01*
X203527802Y-174393169D01*
X203518623Y-174412575D01*
X203507587Y-174430988D01*
X203494799Y-174448231D01*
X203480383Y-174464137D01*
X203464477Y-174478553D01*
X203447234Y-174491341D01*
X203428821Y-174502377D01*
X203409415Y-174511556D01*
X203389203Y-174518788D01*
X203368379Y-174524004D01*
X203347144Y-174527154D01*
X203325703Y-174528207D01*
X202813203Y-174528207D01*
X202791762Y-174527154D01*
X202770527Y-174524004D01*
X202749703Y-174518788D01*
X202729491Y-174511556D01*
X202710085Y-174502377D01*
X202691672Y-174491341D01*
X202674429Y-174478553D01*
X202658523Y-174464137D01*
X202644107Y-174448231D01*
X202631319Y-174430988D01*
X202620283Y-174412575D01*
X202611104Y-174393169D01*
X202603872Y-174372957D01*
X202598656Y-174352133D01*
X202595506Y-174330898D01*
X202594453Y-174309457D01*
X202594453Y-173871957D01*
X202595506Y-173850516D01*
X202598656Y-173829281D01*
X202603872Y-173808457D01*
X202611104Y-173788245D01*
X202620283Y-173768839D01*
X202631319Y-173750426D01*
X202644107Y-173733183D01*
X202658523Y-173717277D01*
X202674429Y-173702861D01*
X202691672Y-173690073D01*
X202710085Y-173679037D01*
X202729491Y-173669858D01*
X202749703Y-173662626D01*
X202770527Y-173657410D01*
X202791762Y-173654260D01*
X202813203Y-173653207D01*
X203325703Y-173653207D01*
X203347144Y-173654260D01*
X203347144Y-173654260D01*
G37*
D11*
X203069453Y-174090707D03*
D10*
G36*
X203347144Y-175229260D02*
X203368379Y-175232410D01*
X203389203Y-175237626D01*
X203409415Y-175244858D01*
X203428821Y-175254037D01*
X203447234Y-175265073D01*
X203464477Y-175277861D01*
X203480383Y-175292277D01*
X203494799Y-175308183D01*
X203507587Y-175325426D01*
X203518623Y-175343839D01*
X203527802Y-175363245D01*
X203535034Y-175383457D01*
X203540250Y-175404281D01*
X203543400Y-175425516D01*
X203544453Y-175446957D01*
X203544453Y-175884457D01*
X203543400Y-175905898D01*
X203540250Y-175927133D01*
X203535034Y-175947957D01*
X203527802Y-175968169D01*
X203518623Y-175987575D01*
X203507587Y-176005988D01*
X203494799Y-176023231D01*
X203480383Y-176039137D01*
X203464477Y-176053553D01*
X203447234Y-176066341D01*
X203428821Y-176077377D01*
X203409415Y-176086556D01*
X203389203Y-176093788D01*
X203368379Y-176099004D01*
X203347144Y-176102154D01*
X203325703Y-176103207D01*
X202813203Y-176103207D01*
X202791762Y-176102154D01*
X202770527Y-176099004D01*
X202749703Y-176093788D01*
X202729491Y-176086556D01*
X202710085Y-176077377D01*
X202691672Y-176066341D01*
X202674429Y-176053553D01*
X202658523Y-176039137D01*
X202644107Y-176023231D01*
X202631319Y-176005988D01*
X202620283Y-175987575D01*
X202611104Y-175968169D01*
X202603872Y-175947957D01*
X202598656Y-175927133D01*
X202595506Y-175905898D01*
X202594453Y-175884457D01*
X202594453Y-175446957D01*
X202595506Y-175425516D01*
X202598656Y-175404281D01*
X202603872Y-175383457D01*
X202611104Y-175363245D01*
X202620283Y-175343839D01*
X202631319Y-175325426D01*
X202644107Y-175308183D01*
X202658523Y-175292277D01*
X202674429Y-175277861D01*
X202691672Y-175265073D01*
X202710085Y-175254037D01*
X202729491Y-175244858D01*
X202749703Y-175237626D01*
X202770527Y-175232410D01*
X202791762Y-175229260D01*
X202813203Y-175228207D01*
X203325703Y-175228207D01*
X203347144Y-175229260D01*
X203347144Y-175229260D01*
G37*
D11*
X203069453Y-175665707D03*
G04 #@! TD*
D10*
G04 #@! TO.C,C5*
G36*
X196935690Y-184320961D02*
X196956767Y-184325034D01*
X196977343Y-184331153D01*
X196997221Y-184339260D01*
X197016208Y-184349276D01*
X197034122Y-184361105D01*
X197050790Y-184374633D01*
X197066052Y-184389730D01*
X197079761Y-184406249D01*
X197091785Y-184424033D01*
X197102008Y-184442910D01*
X197110331Y-184462698D01*
X197259965Y-184873813D01*
X197266308Y-184894321D01*
X197270611Y-184915353D01*
X197272832Y-184936705D01*
X197272949Y-184958172D01*
X197270961Y-184979546D01*
X197266888Y-185000624D01*
X197260769Y-185021200D01*
X197252662Y-185041078D01*
X197242646Y-185060065D01*
X197230817Y-185077979D01*
X197217289Y-185094647D01*
X197202192Y-185109909D01*
X197185673Y-185123618D01*
X197167889Y-185135642D01*
X197149012Y-185145865D01*
X197129224Y-185154188D01*
X196647632Y-185329473D01*
X196627123Y-185335816D01*
X196606092Y-185340119D01*
X196584740Y-185342340D01*
X196563273Y-185342457D01*
X196541898Y-185340469D01*
X196520821Y-185336396D01*
X196500245Y-185330277D01*
X196480367Y-185322170D01*
X196461380Y-185312154D01*
X196443466Y-185300325D01*
X196426798Y-185286797D01*
X196411536Y-185271700D01*
X196397827Y-185255181D01*
X196385803Y-185237397D01*
X196375580Y-185218520D01*
X196367257Y-185198732D01*
X196217623Y-184787617D01*
X196211280Y-184767109D01*
X196206977Y-184746077D01*
X196204756Y-184724725D01*
X196204639Y-184703258D01*
X196206627Y-184681884D01*
X196210700Y-184660806D01*
X196216819Y-184640230D01*
X196224926Y-184620352D01*
X196234942Y-184601365D01*
X196246771Y-184583451D01*
X196260299Y-184566783D01*
X196275396Y-184551521D01*
X196291915Y-184537812D01*
X196309699Y-184525788D01*
X196328576Y-184515565D01*
X196348364Y-184507242D01*
X196829956Y-184331957D01*
X196850465Y-184325614D01*
X196871496Y-184321311D01*
X196892848Y-184319090D01*
X196914315Y-184318973D01*
X196935690Y-184320961D01*
X196935690Y-184320961D01*
G37*
D11*
X196738794Y-184830715D03*
D10*
G36*
X196397008Y-182840945D02*
X196418085Y-182845018D01*
X196438661Y-182851137D01*
X196458539Y-182859244D01*
X196477526Y-182869260D01*
X196495440Y-182881089D01*
X196512108Y-182894617D01*
X196527370Y-182909714D01*
X196541079Y-182926233D01*
X196553103Y-182944017D01*
X196563326Y-182962894D01*
X196571649Y-182982682D01*
X196721283Y-183393797D01*
X196727626Y-183414305D01*
X196731929Y-183435337D01*
X196734150Y-183456689D01*
X196734267Y-183478156D01*
X196732279Y-183499530D01*
X196728206Y-183520608D01*
X196722087Y-183541184D01*
X196713980Y-183561062D01*
X196703964Y-183580049D01*
X196692135Y-183597963D01*
X196678607Y-183614631D01*
X196663510Y-183629893D01*
X196646991Y-183643602D01*
X196629207Y-183655626D01*
X196610330Y-183665849D01*
X196590542Y-183674172D01*
X196108950Y-183849457D01*
X196088441Y-183855800D01*
X196067410Y-183860103D01*
X196046058Y-183862324D01*
X196024591Y-183862441D01*
X196003216Y-183860453D01*
X195982139Y-183856380D01*
X195961563Y-183850261D01*
X195941685Y-183842154D01*
X195922698Y-183832138D01*
X195904784Y-183820309D01*
X195888116Y-183806781D01*
X195872854Y-183791684D01*
X195859145Y-183775165D01*
X195847121Y-183757381D01*
X195836898Y-183738504D01*
X195828575Y-183718716D01*
X195678941Y-183307601D01*
X195672598Y-183287093D01*
X195668295Y-183266061D01*
X195666074Y-183244709D01*
X195665957Y-183223242D01*
X195667945Y-183201868D01*
X195672018Y-183180790D01*
X195678137Y-183160214D01*
X195686244Y-183140336D01*
X195696260Y-183121349D01*
X195708089Y-183103435D01*
X195721617Y-183086767D01*
X195736714Y-183071505D01*
X195753233Y-183057796D01*
X195771017Y-183045772D01*
X195789894Y-183035549D01*
X195809682Y-183027226D01*
X196291274Y-182851941D01*
X196311783Y-182845598D01*
X196332814Y-182841295D01*
X196354166Y-182839074D01*
X196375633Y-182838957D01*
X196397008Y-182840945D01*
X196397008Y-182840945D01*
G37*
D11*
X196200112Y-183350699D03*
G04 #@! TD*
D10*
G04 #@! TO.C,C4*
G36*
X215468565Y-175742955D02*
X215489702Y-175746706D01*
X215510370Y-175752510D01*
X215530369Y-175760313D01*
X215549507Y-175770038D01*
X215567599Y-175781592D01*
X215584472Y-175794863D01*
X215599963Y-175809725D01*
X215613922Y-175826034D01*
X215626216Y-175843632D01*
X215636726Y-175862350D01*
X215645350Y-175882009D01*
X215652006Y-175902418D01*
X215656630Y-175923381D01*
X215659176Y-175944697D01*
X215694926Y-176455949D01*
X215695371Y-176477411D01*
X215693710Y-176498814D01*
X215689959Y-176519951D01*
X215684155Y-176540618D01*
X215676352Y-176560617D01*
X215666627Y-176579755D01*
X215655073Y-176597848D01*
X215641802Y-176614721D01*
X215626940Y-176630212D01*
X215610631Y-176644171D01*
X215593033Y-176656465D01*
X215574315Y-176666975D01*
X215554656Y-176675599D01*
X215534247Y-176682255D01*
X215513284Y-176686879D01*
X215491968Y-176689425D01*
X215055534Y-176719943D01*
X215034072Y-176720388D01*
X215012669Y-176718727D01*
X214991532Y-176714976D01*
X214970864Y-176709172D01*
X214950865Y-176701369D01*
X214931727Y-176691644D01*
X214913635Y-176680090D01*
X214896762Y-176666819D01*
X214881271Y-176651957D01*
X214867312Y-176635648D01*
X214855018Y-176618050D01*
X214844508Y-176599332D01*
X214835884Y-176579673D01*
X214829228Y-176559264D01*
X214824604Y-176538301D01*
X214822058Y-176516985D01*
X214786308Y-176005733D01*
X214785863Y-175984271D01*
X214787524Y-175962868D01*
X214791275Y-175941731D01*
X214797079Y-175921064D01*
X214804882Y-175901065D01*
X214814607Y-175881927D01*
X214826161Y-175863834D01*
X214839432Y-175846961D01*
X214854294Y-175831470D01*
X214870603Y-175817511D01*
X214888201Y-175805217D01*
X214906919Y-175794707D01*
X214926578Y-175786083D01*
X214946987Y-175779427D01*
X214967950Y-175774803D01*
X214989266Y-175772257D01*
X215425700Y-175741739D01*
X215447162Y-175741294D01*
X215468565Y-175742955D01*
X215468565Y-175742955D01*
G37*
D11*
X215240617Y-176230841D03*
D10*
G36*
X213897401Y-175852821D02*
X213918538Y-175856572D01*
X213939206Y-175862376D01*
X213959205Y-175870179D01*
X213978343Y-175879904D01*
X213996435Y-175891458D01*
X214013308Y-175904729D01*
X214028799Y-175919591D01*
X214042758Y-175935900D01*
X214055052Y-175953498D01*
X214065562Y-175972216D01*
X214074186Y-175991875D01*
X214080842Y-176012284D01*
X214085466Y-176033247D01*
X214088012Y-176054563D01*
X214123762Y-176565815D01*
X214124207Y-176587277D01*
X214122546Y-176608680D01*
X214118795Y-176629817D01*
X214112991Y-176650484D01*
X214105188Y-176670483D01*
X214095463Y-176689621D01*
X214083909Y-176707714D01*
X214070638Y-176724587D01*
X214055776Y-176740078D01*
X214039467Y-176754037D01*
X214021869Y-176766331D01*
X214003151Y-176776841D01*
X213983492Y-176785465D01*
X213963083Y-176792121D01*
X213942120Y-176796745D01*
X213920804Y-176799291D01*
X213484370Y-176829809D01*
X213462908Y-176830254D01*
X213441505Y-176828593D01*
X213420368Y-176824842D01*
X213399700Y-176819038D01*
X213379701Y-176811235D01*
X213360563Y-176801510D01*
X213342471Y-176789956D01*
X213325598Y-176776685D01*
X213310107Y-176761823D01*
X213296148Y-176745514D01*
X213283854Y-176727916D01*
X213273344Y-176709198D01*
X213264720Y-176689539D01*
X213258064Y-176669130D01*
X213253440Y-176648167D01*
X213250894Y-176626851D01*
X213215144Y-176115599D01*
X213214699Y-176094137D01*
X213216360Y-176072734D01*
X213220111Y-176051597D01*
X213225915Y-176030930D01*
X213233718Y-176010931D01*
X213243443Y-175991793D01*
X213254997Y-175973700D01*
X213268268Y-175956827D01*
X213283130Y-175941336D01*
X213299439Y-175927377D01*
X213317037Y-175915083D01*
X213335755Y-175904573D01*
X213355414Y-175895949D01*
X213375823Y-175889293D01*
X213396786Y-175884669D01*
X213418102Y-175882123D01*
X213854536Y-175851605D01*
X213875998Y-175851160D01*
X213897401Y-175852821D01*
X213897401Y-175852821D01*
G37*
D11*
X213669453Y-176340707D03*
G04 #@! TD*
D10*
G04 #@! TO.C,C3*
G36*
X210692862Y-183339518D02*
X210713930Y-183343637D01*
X210734493Y-183349801D01*
X210754353Y-183357951D01*
X210773318Y-183368009D01*
X210791207Y-183379877D01*
X210807845Y-183393441D01*
X210823074Y-183408571D01*
X210836747Y-183425121D01*
X210848732Y-183442931D01*
X210858914Y-183461830D01*
X210867194Y-183481636D01*
X210873492Y-183502158D01*
X210877749Y-183523199D01*
X210879923Y-183544555D01*
X210902820Y-183981455D01*
X210902890Y-184002922D01*
X210900856Y-184024293D01*
X210896737Y-184045361D01*
X210890573Y-184065924D01*
X210882423Y-184085784D01*
X210872365Y-184104749D01*
X210860497Y-184122638D01*
X210846933Y-184139276D01*
X210831803Y-184154505D01*
X210815254Y-184168178D01*
X210797443Y-184180163D01*
X210778544Y-184190345D01*
X210758738Y-184198624D01*
X210738216Y-184204923D01*
X210717175Y-184209180D01*
X210695818Y-184211354D01*
X210184021Y-184238176D01*
X210162554Y-184238246D01*
X210141184Y-184236212D01*
X210120116Y-184232093D01*
X210099553Y-184225929D01*
X210079693Y-184217779D01*
X210060728Y-184207721D01*
X210042839Y-184195853D01*
X210026201Y-184182289D01*
X210010972Y-184167159D01*
X209997299Y-184150609D01*
X209985314Y-184132799D01*
X209975132Y-184113900D01*
X209966852Y-184094094D01*
X209960554Y-184073572D01*
X209956297Y-184052531D01*
X209954123Y-184031175D01*
X209931226Y-183594275D01*
X209931156Y-183572808D01*
X209933190Y-183551437D01*
X209937309Y-183530369D01*
X209943473Y-183509806D01*
X209951623Y-183489946D01*
X209961681Y-183470981D01*
X209973549Y-183453092D01*
X209987113Y-183436454D01*
X210002243Y-183421225D01*
X210018792Y-183407552D01*
X210036603Y-183395567D01*
X210055502Y-183385385D01*
X210075308Y-183377106D01*
X210095830Y-183370807D01*
X210116871Y-183366550D01*
X210138228Y-183364376D01*
X210650025Y-183337554D01*
X210671492Y-183337484D01*
X210692862Y-183339518D01*
X210692862Y-183339518D01*
G37*
D11*
X210417023Y-183787865D03*
D10*
G36*
X210775292Y-184912360D02*
X210796360Y-184916479D01*
X210816923Y-184922643D01*
X210836783Y-184930793D01*
X210855748Y-184940851D01*
X210873637Y-184952719D01*
X210890275Y-184966283D01*
X210905504Y-184981413D01*
X210919177Y-184997963D01*
X210931162Y-185015773D01*
X210941344Y-185034672D01*
X210949624Y-185054478D01*
X210955922Y-185075000D01*
X210960179Y-185096041D01*
X210962353Y-185117397D01*
X210985250Y-185554297D01*
X210985320Y-185575764D01*
X210983286Y-185597135D01*
X210979167Y-185618203D01*
X210973003Y-185638766D01*
X210964853Y-185658626D01*
X210954795Y-185677591D01*
X210942927Y-185695480D01*
X210929363Y-185712118D01*
X210914233Y-185727347D01*
X210897684Y-185741020D01*
X210879873Y-185753005D01*
X210860974Y-185763187D01*
X210841168Y-185771466D01*
X210820646Y-185777765D01*
X210799605Y-185782022D01*
X210778248Y-185784196D01*
X210266451Y-185811018D01*
X210244984Y-185811088D01*
X210223614Y-185809054D01*
X210202546Y-185804935D01*
X210181983Y-185798771D01*
X210162123Y-185790621D01*
X210143158Y-185780563D01*
X210125269Y-185768695D01*
X210108631Y-185755131D01*
X210093402Y-185740001D01*
X210079729Y-185723451D01*
X210067744Y-185705641D01*
X210057562Y-185686742D01*
X210049282Y-185666936D01*
X210042984Y-185646414D01*
X210038727Y-185625373D01*
X210036553Y-185604017D01*
X210013656Y-185167117D01*
X210013586Y-185145650D01*
X210015620Y-185124279D01*
X210019739Y-185103211D01*
X210025903Y-185082648D01*
X210034053Y-185062788D01*
X210044111Y-185043823D01*
X210055979Y-185025934D01*
X210069543Y-185009296D01*
X210084673Y-184994067D01*
X210101222Y-184980394D01*
X210119033Y-184968409D01*
X210137932Y-184958227D01*
X210157738Y-184949948D01*
X210178260Y-184943649D01*
X210199301Y-184939392D01*
X210220658Y-184937218D01*
X210732455Y-184910396D01*
X210753922Y-184910326D01*
X210775292Y-184912360D01*
X210775292Y-184912360D01*
G37*
D11*
X210499453Y-185360707D03*
G04 #@! TD*
D10*
G04 #@! TO.C,C2*
G36*
X195485690Y-184870961D02*
X195506767Y-184875034D01*
X195527343Y-184881153D01*
X195547221Y-184889260D01*
X195566208Y-184899276D01*
X195584122Y-184911105D01*
X195600790Y-184924633D01*
X195616052Y-184939730D01*
X195629761Y-184956249D01*
X195641785Y-184974033D01*
X195652008Y-184992910D01*
X195660331Y-185012698D01*
X195809965Y-185423813D01*
X195816308Y-185444321D01*
X195820611Y-185465353D01*
X195822832Y-185486705D01*
X195822949Y-185508172D01*
X195820961Y-185529546D01*
X195816888Y-185550624D01*
X195810769Y-185571200D01*
X195802662Y-185591078D01*
X195792646Y-185610065D01*
X195780817Y-185627979D01*
X195767289Y-185644647D01*
X195752192Y-185659909D01*
X195735673Y-185673618D01*
X195717889Y-185685642D01*
X195699012Y-185695865D01*
X195679224Y-185704188D01*
X195197632Y-185879473D01*
X195177123Y-185885816D01*
X195156092Y-185890119D01*
X195134740Y-185892340D01*
X195113273Y-185892457D01*
X195091898Y-185890469D01*
X195070821Y-185886396D01*
X195050245Y-185880277D01*
X195030367Y-185872170D01*
X195011380Y-185862154D01*
X194993466Y-185850325D01*
X194976798Y-185836797D01*
X194961536Y-185821700D01*
X194947827Y-185805181D01*
X194935803Y-185787397D01*
X194925580Y-185768520D01*
X194917257Y-185748732D01*
X194767623Y-185337617D01*
X194761280Y-185317109D01*
X194756977Y-185296077D01*
X194754756Y-185274725D01*
X194754639Y-185253258D01*
X194756627Y-185231884D01*
X194760700Y-185210806D01*
X194766819Y-185190230D01*
X194774926Y-185170352D01*
X194784942Y-185151365D01*
X194796771Y-185133451D01*
X194810299Y-185116783D01*
X194825396Y-185101521D01*
X194841915Y-185087812D01*
X194859699Y-185075788D01*
X194878576Y-185065565D01*
X194898364Y-185057242D01*
X195379956Y-184881957D01*
X195400465Y-184875614D01*
X195421496Y-184871311D01*
X195442848Y-184869090D01*
X195464315Y-184868973D01*
X195485690Y-184870961D01*
X195485690Y-184870961D01*
G37*
D11*
X195288794Y-185380715D03*
D10*
G36*
X194947008Y-183390945D02*
X194968085Y-183395018D01*
X194988661Y-183401137D01*
X195008539Y-183409244D01*
X195027526Y-183419260D01*
X195045440Y-183431089D01*
X195062108Y-183444617D01*
X195077370Y-183459714D01*
X195091079Y-183476233D01*
X195103103Y-183494017D01*
X195113326Y-183512894D01*
X195121649Y-183532682D01*
X195271283Y-183943797D01*
X195277626Y-183964305D01*
X195281929Y-183985337D01*
X195284150Y-184006689D01*
X195284267Y-184028156D01*
X195282279Y-184049530D01*
X195278206Y-184070608D01*
X195272087Y-184091184D01*
X195263980Y-184111062D01*
X195253964Y-184130049D01*
X195242135Y-184147963D01*
X195228607Y-184164631D01*
X195213510Y-184179893D01*
X195196991Y-184193602D01*
X195179207Y-184205626D01*
X195160330Y-184215849D01*
X195140542Y-184224172D01*
X194658950Y-184399457D01*
X194638441Y-184405800D01*
X194617410Y-184410103D01*
X194596058Y-184412324D01*
X194574591Y-184412441D01*
X194553216Y-184410453D01*
X194532139Y-184406380D01*
X194511563Y-184400261D01*
X194491685Y-184392154D01*
X194472698Y-184382138D01*
X194454784Y-184370309D01*
X194438116Y-184356781D01*
X194422854Y-184341684D01*
X194409145Y-184325165D01*
X194397121Y-184307381D01*
X194386898Y-184288504D01*
X194378575Y-184268716D01*
X194228941Y-183857601D01*
X194222598Y-183837093D01*
X194218295Y-183816061D01*
X194216074Y-183794709D01*
X194215957Y-183773242D01*
X194217945Y-183751868D01*
X194222018Y-183730790D01*
X194228137Y-183710214D01*
X194236244Y-183690336D01*
X194246260Y-183671349D01*
X194258089Y-183653435D01*
X194271617Y-183636767D01*
X194286714Y-183621505D01*
X194303233Y-183607796D01*
X194321017Y-183595772D01*
X194339894Y-183585549D01*
X194359682Y-183577226D01*
X194841274Y-183401941D01*
X194861783Y-183395598D01*
X194882814Y-183391295D01*
X194904166Y-183389074D01*
X194925633Y-183388957D01*
X194947008Y-183390945D01*
X194947008Y-183390945D01*
G37*
D11*
X194750112Y-183900699D03*
G04 #@! TD*
D10*
G04 #@! TO.C,C1*
G36*
X216292359Y-191223196D02*
X216313496Y-191226947D01*
X216334163Y-191232751D01*
X216354162Y-191240554D01*
X216373300Y-191250279D01*
X216391393Y-191261833D01*
X216408266Y-191275104D01*
X216423757Y-191289966D01*
X216437716Y-191306275D01*
X216450010Y-191323873D01*
X216460520Y-191342591D01*
X216469144Y-191362250D01*
X216475800Y-191382659D01*
X216480424Y-191403622D01*
X216482970Y-191424938D01*
X216513488Y-191861372D01*
X216513933Y-191882834D01*
X216512272Y-191904237D01*
X216508521Y-191925374D01*
X216502717Y-191946042D01*
X216494914Y-191966041D01*
X216485189Y-191985179D01*
X216473635Y-192003271D01*
X216460364Y-192020144D01*
X216445502Y-192035635D01*
X216429193Y-192049594D01*
X216411595Y-192061888D01*
X216392877Y-192072398D01*
X216373218Y-192081022D01*
X216352809Y-192087678D01*
X216331846Y-192092302D01*
X216310530Y-192094848D01*
X215799278Y-192130598D01*
X215777816Y-192131043D01*
X215756413Y-192129382D01*
X215735276Y-192125631D01*
X215714609Y-192119827D01*
X215694610Y-192112024D01*
X215675472Y-192102299D01*
X215657379Y-192090745D01*
X215640506Y-192077474D01*
X215625015Y-192062612D01*
X215611056Y-192046303D01*
X215598762Y-192028705D01*
X215588252Y-192009987D01*
X215579628Y-191990328D01*
X215572972Y-191969919D01*
X215568348Y-191948956D01*
X215565802Y-191927640D01*
X215535284Y-191491206D01*
X215534839Y-191469744D01*
X215536500Y-191448341D01*
X215540251Y-191427204D01*
X215546055Y-191406536D01*
X215553858Y-191386537D01*
X215563583Y-191367399D01*
X215575137Y-191349307D01*
X215588408Y-191332434D01*
X215603270Y-191316943D01*
X215619579Y-191302984D01*
X215637177Y-191290690D01*
X215655895Y-191280180D01*
X215675554Y-191271556D01*
X215695963Y-191264900D01*
X215716926Y-191260276D01*
X215738242Y-191257730D01*
X216249494Y-191221980D01*
X216270956Y-191221535D01*
X216292359Y-191223196D01*
X216292359Y-191223196D01*
G37*
D11*
X216024386Y-191676289D03*
D10*
G36*
X216182493Y-189652032D02*
X216203630Y-189655783D01*
X216224297Y-189661587D01*
X216244296Y-189669390D01*
X216263434Y-189679115D01*
X216281527Y-189690669D01*
X216298400Y-189703940D01*
X216313891Y-189718802D01*
X216327850Y-189735111D01*
X216340144Y-189752709D01*
X216350654Y-189771427D01*
X216359278Y-189791086D01*
X216365934Y-189811495D01*
X216370558Y-189832458D01*
X216373104Y-189853774D01*
X216403622Y-190290208D01*
X216404067Y-190311670D01*
X216402406Y-190333073D01*
X216398655Y-190354210D01*
X216392851Y-190374878D01*
X216385048Y-190394877D01*
X216375323Y-190414015D01*
X216363769Y-190432107D01*
X216350498Y-190448980D01*
X216335636Y-190464471D01*
X216319327Y-190478430D01*
X216301729Y-190490724D01*
X216283011Y-190501234D01*
X216263352Y-190509858D01*
X216242943Y-190516514D01*
X216221980Y-190521138D01*
X216200664Y-190523684D01*
X215689412Y-190559434D01*
X215667950Y-190559879D01*
X215646547Y-190558218D01*
X215625410Y-190554467D01*
X215604743Y-190548663D01*
X215584744Y-190540860D01*
X215565606Y-190531135D01*
X215547513Y-190519581D01*
X215530640Y-190506310D01*
X215515149Y-190491448D01*
X215501190Y-190475139D01*
X215488896Y-190457541D01*
X215478386Y-190438823D01*
X215469762Y-190419164D01*
X215463106Y-190398755D01*
X215458482Y-190377792D01*
X215455936Y-190356476D01*
X215425418Y-189920042D01*
X215424973Y-189898580D01*
X215426634Y-189877177D01*
X215430385Y-189856040D01*
X215436189Y-189835372D01*
X215443992Y-189815373D01*
X215453717Y-189796235D01*
X215465271Y-189778143D01*
X215478542Y-189761270D01*
X215493404Y-189745779D01*
X215509713Y-189731820D01*
X215527311Y-189719526D01*
X215546029Y-189709016D01*
X215565688Y-189700392D01*
X215586097Y-189693736D01*
X215607060Y-189689112D01*
X215628376Y-189686566D01*
X216139628Y-189650816D01*
X216161090Y-189650371D01*
X216182493Y-189652032D01*
X216182493Y-189652032D01*
G37*
D11*
X215914520Y-190105125D03*
G04 #@! TD*
D23*
G04 #@! TO.C,U2*
X213931953Y-164440707D03*
X213931953Y-164940707D03*
X213931953Y-165440707D03*
X213931953Y-165940707D03*
X211406953Y-165940707D03*
X211406953Y-165440707D03*
X211406953Y-164940707D03*
X211406953Y-164440707D03*
D24*
X213169453Y-166203207D03*
X212669453Y-166203207D03*
X212169453Y-166203207D03*
X213169453Y-164178207D03*
X212169453Y-164178207D03*
X212669453Y-164178207D03*
G04 #@! TD*
M02*
