G04 #@! TF.GenerationSoftware,KiCad,Pcbnew,(5.0.0)*
G04 #@! TF.CreationDate,2019-11-05T15:59:09+01:00*
G04 #@! TF.ProjectId,Insole_PCB,496E736F6C655F5043422E6B69636164,rev?*
G04 #@! TF.SameCoordinates,Original*
G04 #@! TF.FileFunction,Legend,Top*
G04 #@! TF.FilePolarity,Positive*
%FSLAX46Y46*%
G04 Gerber Fmt 4.6, Leading zero omitted, Abs format (unit mm)*
G04 Created by KiCad (PCBNEW (5.0.0)) date 11/05/19 15:59:09*
%MOMM*%
%LPD*%
G01*
G04 APERTURE LIST*
%ADD10C,0.200000*%
%ADD11C,0.120000*%
%ADD12C,0.010000*%
%ADD13C,0.150000*%
G04 APERTURE END LIST*
D10*
G04 #@! TO.C,S31*
X205249453Y-219690707D02*
G75*
G03X205249453Y-219690707I-10500000J0D01*
G01*
G04 #@! TO.C,S30*
X185469453Y-227290707D02*
G75*
G03X185469453Y-227290707I-10500000J0D01*
G01*
G04 #@! TO.C,S29*
X206669453Y-243290707D02*
G75*
G03X206669453Y-243290707I-10500000J0D01*
G01*
G04 #@! TO.C,S28*
X184919453Y-248460707D02*
G75*
G03X184919453Y-248460707I-10500000J0D01*
G01*
G04 #@! TO.C,S27*
X196269453Y-266340707D02*
G75*
G03X196269453Y-266340707I-10500000J0D01*
G01*
G04 #@! TO.C,S26*
X218169453Y-266240707D02*
G75*
G03X218169453Y-266240707I-10500000J0D01*
G01*
G04 #@! TO.C,S25*
X228499453Y-247580707D02*
G75*
G03X228499453Y-247580707I-10500000J0D01*
G01*
G04 #@! TO.C,S24*
X225289453Y-226710707D02*
G75*
G03X225289453Y-226710707I-10500000J0D01*
G01*
G04 #@! TO.C,S23*
X187969453Y-205970707D02*
G75*
G03X187969453Y-205970707I-10500000J0D01*
G01*
G04 #@! TO.C,S22*
X186749453Y-184720707D02*
G75*
G03X186749453Y-184720707I-10500000J0D01*
G01*
G04 #@! TO.C,S21*
X183719453Y-163740707D02*
G75*
G03X183719453Y-163740707I-10500000J0D01*
G01*
G04 #@! TO.C,S20*
X175169453Y-143090707D02*
G75*
G03X175169453Y-143090707I-10500000J0D01*
G01*
G04 #@! TO.C,S19*
X199169453Y-146090707D02*
G75*
G03X199169453Y-146090707I-10500000J0D01*
G01*
G04 #@! TO.C,S18*
X194169453Y-125090707D02*
G75*
G03X194169453Y-125090707I-10500000J0D01*
G01*
G04 #@! TO.C,S17*
X170169453Y-121090707D02*
G75*
G03X170169453Y-121090707I-10500000J0D01*
G01*
G04 #@! TO.C,S16*
X169169453Y-100090707D02*
G75*
G03X169169453Y-100090707I-10500000J0D01*
G01*
G04 #@! TO.C,S15*
X193169453Y-103090707D02*
G75*
G03X193169453Y-103090707I-10500000J0D01*
G01*
G04 #@! TO.C,S14*
X216169453Y-117090707D02*
G75*
G03X216169453Y-117090707I-10500000J0D01*
G01*
G04 #@! TO.C,S13*
X171169453Y-79090707D02*
G75*
G03X171169453Y-79090707I-10500000J0D01*
G01*
G04 #@! TO.C,S12*
X194169453Y-82090707D02*
G75*
G03X194169453Y-82090707I-10500000J0D01*
G01*
G04 #@! TO.C,S11*
X181169453Y-59090707D02*
G75*
G03X181169453Y-59090707I-10500000J0D01*
G01*
G04 #@! TO.C,S10*
X202169453Y-62090707D02*
G75*
G03X202169453Y-62090707I-10500000J0D01*
G01*
G04 #@! TO.C,S9*
X196169453Y-39090707D02*
G75*
G03X196169453Y-39090707I-10500000J0D01*
G01*
G04 #@! TO.C,S8*
X215169453Y-25090707D02*
G75*
G03X215169453Y-25090707I-10500000J0D01*
G01*
G04 #@! TO.C,S7*
X220169453Y-93090707D02*
G75*
G03X220169453Y-93090707I-10500000J0D01*
G01*
G04 #@! TO.C,S6*
X221959453Y-70080707D02*
G75*
G03X221959453Y-70080707I-10500000J0D01*
G01*
G04 #@! TO.C,S5*
X220519453Y-47090707D02*
G75*
G03X220519453Y-47090707I-10500000J0D01*
G01*
G04 #@! TO.C,S4*
X237169453Y-26090707D02*
G75*
G03X237169453Y-26090707I-10500000J0D01*
G01*
G04 #@! TO.C,S3*
X244169453Y-47090707D02*
G75*
G03X244169453Y-47090707I-10500000J0D01*
G01*
G04 #@! TO.C,S2*
X246169453Y-69090707D02*
G75*
G03X246169453Y-69090707I-10500000J0D01*
G01*
G04 #@! TO.C,S1*
X246169453Y-93040707D02*
G75*
G03X246169453Y-93040707I-10500000J0D01*
G01*
G04 #@! TO.C,S0*
X238169453Y-117090707D02*
G75*
G03X238169453Y-117090707I-10500000J0D01*
G01*
D11*
G04 #@! TO.C,L2*
X216210526Y-144952703D02*
X216663028Y-145213955D01*
X215500526Y-146182459D02*
X215953028Y-146443711D01*
G04 #@! TO.C,L1*
X219153028Y-155723711D02*
X218700526Y-155462459D01*
X219863028Y-154493955D02*
X219410526Y-154232703D01*
G04 #@! TO.C,J1*
X222671936Y-197922364D02*
X219443904Y-198035089D01*
X218510092Y-199088320D02*
X218547783Y-200167662D01*
X218694234Y-204074932D02*
X218731926Y-205154274D01*
X222944850Y-205737600D02*
X219716818Y-205850325D01*
X218547783Y-200167662D02*
X218118045Y-200182669D01*
G04 #@! TO.C,J2*
X222234977Y-190018895D02*
X221541670Y-190067376D01*
X222282760Y-190702226D02*
X222234977Y-190018895D01*
X221030442Y-191476470D02*
X220943929Y-191482519D01*
X222330543Y-191385558D02*
X222244030Y-191391607D01*
X220943929Y-191482519D02*
X221004966Y-192355388D01*
X222330543Y-191385558D02*
X222391580Y-192258426D01*
X221304741Y-192334425D02*
X221004966Y-192355388D01*
X222391580Y-192258426D02*
X222091805Y-192279388D01*
D12*
G04 #@! TO.C,G\002A\002A\002A*
G36*
X209295600Y-129708978D02*
X210527206Y-129795346D01*
X211621482Y-129943122D01*
X212608039Y-130157235D01*
X213516490Y-130442618D01*
X214221653Y-130732245D01*
X214603611Y-130913619D01*
X214829078Y-131036521D01*
X214891200Y-131094277D01*
X214783123Y-131080211D01*
X214497993Y-130987648D01*
X214475653Y-130979649D01*
X213428454Y-130677188D01*
X212235408Y-130460864D01*
X210934416Y-130330054D01*
X209563377Y-130284137D01*
X208160192Y-130322488D01*
X206762761Y-130444486D01*
X205408984Y-130649508D01*
X204136761Y-130936932D01*
X203389075Y-131161751D01*
X202088684Y-131667408D01*
X200974633Y-132250971D01*
X200047310Y-132912087D01*
X199307106Y-133650407D01*
X198754409Y-134465578D01*
X198389607Y-135357249D01*
X198290095Y-135766707D01*
X198170284Y-136376307D01*
X197941149Y-135876152D01*
X197764382Y-135256164D01*
X197769277Y-134595948D01*
X197943634Y-133916168D01*
X198275252Y-133237489D01*
X198751932Y-132580576D01*
X199361473Y-131966095D01*
X200091676Y-131414709D01*
X200819658Y-131000414D01*
X201783091Y-130575282D01*
X202777761Y-130240039D01*
X203835491Y-129988742D01*
X204988102Y-129815450D01*
X206267415Y-129714224D01*
X207705254Y-129679122D01*
X207897053Y-129679086D01*
X209295600Y-129708978D01*
X209295600Y-129708978D01*
G37*
X209295600Y-129708978D02*
X210527206Y-129795346D01*
X211621482Y-129943122D01*
X212608039Y-130157235D01*
X213516490Y-130442618D01*
X214221653Y-130732245D01*
X214603611Y-130913619D01*
X214829078Y-131036521D01*
X214891200Y-131094277D01*
X214783123Y-131080211D01*
X214497993Y-130987648D01*
X214475653Y-130979649D01*
X213428454Y-130677188D01*
X212235408Y-130460864D01*
X210934416Y-130330054D01*
X209563377Y-130284137D01*
X208160192Y-130322488D01*
X206762761Y-130444486D01*
X205408984Y-130649508D01*
X204136761Y-130936932D01*
X203389075Y-131161751D01*
X202088684Y-131667408D01*
X200974633Y-132250971D01*
X200047310Y-132912087D01*
X199307106Y-133650407D01*
X198754409Y-134465578D01*
X198389607Y-135357249D01*
X198290095Y-135766707D01*
X198170284Y-136376307D01*
X197941149Y-135876152D01*
X197764382Y-135256164D01*
X197769277Y-134595948D01*
X197943634Y-133916168D01*
X198275252Y-133237489D01*
X198751932Y-132580576D01*
X199361473Y-131966095D01*
X200091676Y-131414709D01*
X200819658Y-131000414D01*
X201783091Y-130575282D01*
X202777761Y-130240039D01*
X203835491Y-129988742D01*
X204988102Y-129815450D01*
X206267415Y-129714224D01*
X207705254Y-129679122D01*
X207897053Y-129679086D01*
X209295600Y-129708978D01*
G36*
X218158653Y-138560707D02*
X216736253Y-138560707D01*
X216736253Y-133175907D01*
X218158653Y-133175907D01*
X218158653Y-138560707D01*
X218158653Y-138560707D01*
G37*
X218158653Y-138560707D02*
X216736253Y-138560707D01*
X216736253Y-133175907D01*
X218158653Y-133175907D01*
X218158653Y-138560707D01*
G36*
X215531447Y-134809070D02*
X215618967Y-134852469D01*
X215798233Y-134981205D01*
X215931591Y-135174486D01*
X216025047Y-135459742D01*
X216084607Y-135864406D01*
X216116278Y-136415908D01*
X216126067Y-137141679D01*
X216126086Y-137168555D01*
X216126653Y-138570403D01*
X214856653Y-138509907D01*
X214805853Y-137400458D01*
X214767976Y-136820718D01*
X214716566Y-136442391D01*
X214651416Y-136264127D01*
X214631449Y-136250123D01*
X214572863Y-136290063D01*
X214530013Y-136468568D01*
X214499996Y-136806761D01*
X214479913Y-137325766D01*
X214479049Y-137359572D01*
X214450253Y-138509907D01*
X213231053Y-138509907D01*
X213202256Y-137359572D01*
X213182629Y-136830133D01*
X213153227Y-136482655D01*
X213111149Y-136296014D01*
X213053494Y-136249085D01*
X213049856Y-136250123D01*
X212980963Y-136374615D01*
X212925864Y-136698806D01*
X212884355Y-137224044D01*
X212875453Y-137400458D01*
X212824653Y-138509907D01*
X211554653Y-138570403D01*
X211554653Y-134801507D01*
X212167441Y-134801507D01*
X212541877Y-134816755D01*
X212754082Y-134868573D01*
X212840394Y-134958293D01*
X212907020Y-135061105D01*
X213016237Y-135009393D01*
X213065806Y-134966208D01*
X213291380Y-134827551D01*
X213507895Y-134748250D01*
X213723765Y-134733113D01*
X213923242Y-134833253D01*
X214092095Y-134986519D01*
X214399453Y-135293876D01*
X214696437Y-134996891D01*
X214971922Y-134772054D01*
X215225051Y-134713393D01*
X215531447Y-134809070D01*
X215531447Y-134809070D01*
G37*
X215531447Y-134809070D02*
X215618967Y-134852469D01*
X215798233Y-134981205D01*
X215931591Y-135174486D01*
X216025047Y-135459742D01*
X216084607Y-135864406D01*
X216116278Y-136415908D01*
X216126067Y-137141679D01*
X216126086Y-137168555D01*
X216126653Y-138570403D01*
X214856653Y-138509907D01*
X214805853Y-137400458D01*
X214767976Y-136820718D01*
X214716566Y-136442391D01*
X214651416Y-136264127D01*
X214631449Y-136250123D01*
X214572863Y-136290063D01*
X214530013Y-136468568D01*
X214499996Y-136806761D01*
X214479913Y-137325766D01*
X214479049Y-137359572D01*
X214450253Y-138509907D01*
X213231053Y-138509907D01*
X213202256Y-137359572D01*
X213182629Y-136830133D01*
X213153227Y-136482655D01*
X213111149Y-136296014D01*
X213053494Y-136249085D01*
X213049856Y-136250123D01*
X212980963Y-136374615D01*
X212925864Y-136698806D01*
X212884355Y-137224044D01*
X212875453Y-137400458D01*
X212824653Y-138509907D01*
X211554653Y-138570403D01*
X211554653Y-134801507D01*
X212167441Y-134801507D01*
X212541877Y-134816755D01*
X212754082Y-134868573D01*
X212840394Y-134958293D01*
X212907020Y-135061105D01*
X213016237Y-135009393D01*
X213065806Y-134966208D01*
X213291380Y-134827551D01*
X213507895Y-134748250D01*
X213723765Y-134733113D01*
X213923242Y-134833253D01*
X214092095Y-134986519D01*
X214399453Y-135293876D01*
X214696437Y-134996891D01*
X214971922Y-134772054D01*
X215225051Y-134713393D01*
X215531447Y-134809070D01*
G36*
X209839732Y-133335624D02*
X209896221Y-133351229D01*
X209989302Y-133389476D01*
X210068665Y-133452055D01*
X210143363Y-133563685D01*
X210222450Y-133749084D01*
X210314978Y-134032970D01*
X210430002Y-134440060D01*
X210576574Y-134995073D01*
X210761267Y-135713038D01*
X210931209Y-136378577D01*
X211087180Y-136992715D01*
X211221037Y-137523119D01*
X211324635Y-137937455D01*
X211389829Y-138203390D01*
X211405421Y-138270331D01*
X211469198Y-138560707D01*
X210800725Y-138560707D01*
X210439910Y-138554164D01*
X210237791Y-138525878D01*
X210150051Y-138462857D01*
X210132253Y-138364764D01*
X210041944Y-138093265D01*
X209794966Y-137913192D01*
X209439195Y-137851062D01*
X209091970Y-137881149D01*
X208896261Y-137987160D01*
X208805855Y-138198199D01*
X208796295Y-138255907D01*
X208760608Y-138395852D01*
X208670243Y-138475895D01*
X208475779Y-138516979D01*
X208127798Y-138540052D01*
X208125653Y-138540155D01*
X207774652Y-138549400D01*
X207581588Y-138527996D01*
X207502233Y-138465782D01*
X207490653Y-138394284D01*
X207515439Y-138250074D01*
X207585088Y-137938565D01*
X207692533Y-137488912D01*
X207830707Y-136930268D01*
X207916927Y-136590110D01*
X209142777Y-136590110D01*
X209158108Y-136694433D01*
X209297082Y-136806944D01*
X209445998Y-136815232D01*
X209595087Y-136763540D01*
X209658538Y-136625570D01*
X209667617Y-136376307D01*
X209638560Y-135974413D01*
X209574858Y-135650128D01*
X209488388Y-135450964D01*
X209426320Y-135411107D01*
X209355419Y-135501425D01*
X209278084Y-135729223D01*
X209207845Y-136029762D01*
X209158233Y-136338303D01*
X209142777Y-136590110D01*
X207916927Y-136590110D01*
X207992544Y-136291788D01*
X208118962Y-135802055D01*
X208747271Y-133385946D01*
X209179411Y-133321143D01*
X209525635Y-133301864D01*
X209839732Y-133335624D01*
X209839732Y-133335624D01*
G37*
X209839732Y-133335624D02*
X209896221Y-133351229D01*
X209989302Y-133389476D01*
X210068665Y-133452055D01*
X210143363Y-133563685D01*
X210222450Y-133749084D01*
X210314978Y-134032970D01*
X210430002Y-134440060D01*
X210576574Y-134995073D01*
X210761267Y-135713038D01*
X210931209Y-136378577D01*
X211087180Y-136992715D01*
X211221037Y-137523119D01*
X211324635Y-137937455D01*
X211389829Y-138203390D01*
X211405421Y-138270331D01*
X211469198Y-138560707D01*
X210800725Y-138560707D01*
X210439910Y-138554164D01*
X210237791Y-138525878D01*
X210150051Y-138462857D01*
X210132253Y-138364764D01*
X210041944Y-138093265D01*
X209794966Y-137913192D01*
X209439195Y-137851062D01*
X209091970Y-137881149D01*
X208896261Y-137987160D01*
X208805855Y-138198199D01*
X208796295Y-138255907D01*
X208760608Y-138395852D01*
X208670243Y-138475895D01*
X208475779Y-138516979D01*
X208127798Y-138540052D01*
X208125653Y-138540155D01*
X207774652Y-138549400D01*
X207581588Y-138527996D01*
X207502233Y-138465782D01*
X207490653Y-138394284D01*
X207515439Y-138250074D01*
X207585088Y-137938565D01*
X207692533Y-137488912D01*
X207830707Y-136930268D01*
X207916927Y-136590110D01*
X209142777Y-136590110D01*
X209158108Y-136694433D01*
X209297082Y-136806944D01*
X209445998Y-136815232D01*
X209595087Y-136763540D01*
X209658538Y-136625570D01*
X209667617Y-136376307D01*
X209638560Y-135974413D01*
X209574858Y-135650128D01*
X209488388Y-135450964D01*
X209426320Y-135411107D01*
X209355419Y-135501425D01*
X209278084Y-135729223D01*
X209207845Y-136029762D01*
X209158233Y-136338303D01*
X209142777Y-136590110D01*
X207916927Y-136590110D01*
X207992544Y-136291788D01*
X208118962Y-135802055D01*
X208747271Y-133385946D01*
X209179411Y-133321143D01*
X209525635Y-133301864D01*
X209839732Y-133335624D01*
G36*
X207287103Y-132123389D02*
X207434091Y-132284113D01*
X207565669Y-132609656D01*
X207572940Y-133048602D01*
X207456237Y-133624666D01*
X207453023Y-133636365D01*
X207362417Y-133964348D01*
X207238681Y-134411620D01*
X207102988Y-134901662D01*
X207046284Y-135106307D01*
X206858272Y-135952201D01*
X206739841Y-136839184D01*
X206721858Y-137087507D01*
X206685661Y-137669930D01*
X206649257Y-138078447D01*
X206606791Y-138342272D01*
X206552410Y-138490620D01*
X206480262Y-138552706D01*
X206426692Y-138560707D01*
X206292365Y-138463873D01*
X206184836Y-138190244D01*
X206109832Y-137765132D01*
X206073081Y-137213845D01*
X206070321Y-136985907D01*
X206091201Y-136447515D01*
X206158735Y-135901102D01*
X206282161Y-135300335D01*
X206470718Y-134598880D01*
X206685737Y-133899387D01*
X206810766Y-133491307D01*
X206901734Y-133161265D01*
X206947204Y-132952817D01*
X206947249Y-132903436D01*
X206867939Y-132927862D01*
X206722033Y-133102202D01*
X206504172Y-133434655D01*
X206209000Y-133933421D01*
X205831157Y-134606699D01*
X205814253Y-134637368D01*
X205342172Y-135466234D01*
X204942326Y-136107409D01*
X204613468Y-136562652D01*
X204354350Y-136833721D01*
X204195007Y-136919433D01*
X204087828Y-136920655D01*
X204040967Y-136839851D01*
X204042776Y-136631907D01*
X204064006Y-136412100D01*
X204119339Y-136090755D01*
X204223988Y-135641753D01*
X204361853Y-135129819D01*
X204485693Y-134717021D01*
X204627098Y-134265615D01*
X204742800Y-133889846D01*
X204820787Y-133629173D01*
X204849053Y-133523221D01*
X204806375Y-133473048D01*
X204687727Y-133580675D01*
X204507184Y-133821745D01*
X204278825Y-134171899D01*
X204016725Y-134606780D01*
X203734961Y-135102029D01*
X203447611Y-135633289D01*
X203168750Y-136176201D01*
X202912455Y-136706408D01*
X202692804Y-137199552D01*
X202615585Y-137387946D01*
X202368024Y-137984463D01*
X202139036Y-138485712D01*
X201941419Y-138866741D01*
X201787972Y-139102600D01*
X201701316Y-139170307D01*
X201581897Y-139091226D01*
X201499827Y-138973786D01*
X201405308Y-138621189D01*
X201405334Y-138112864D01*
X201495959Y-137470818D01*
X201673238Y-136717060D01*
X201933226Y-135873598D01*
X202174649Y-135209536D01*
X202422175Y-134557095D01*
X202595498Y-134071017D01*
X202700180Y-133730773D01*
X202741786Y-133515838D01*
X202725879Y-133405685D01*
X202670781Y-133379107D01*
X202508331Y-133450845D01*
X202252269Y-133642859D01*
X201940288Y-133920344D01*
X201610081Y-134248497D01*
X201299340Y-134592516D01*
X201131699Y-134800201D01*
X200874743Y-135118894D01*
X200708648Y-135272541D01*
X200616949Y-135268636D01*
X200583177Y-135114675D01*
X200581853Y-135050461D01*
X200625828Y-134764347D01*
X200771603Y-134461733D01*
X201039944Y-134110711D01*
X201451623Y-133679374D01*
X201514045Y-133618367D01*
X202025247Y-133158156D01*
X202453860Y-132856750D01*
X202823474Y-132699704D01*
X203066007Y-132667907D01*
X203222602Y-132684813D01*
X203298769Y-132771049D01*
X203323061Y-132979888D01*
X203324676Y-133150507D01*
X203283269Y-133503635D01*
X203164348Y-134012132D01*
X202975241Y-134646727D01*
X202873207Y-134953907D01*
X202718371Y-135416519D01*
X202600686Y-135786515D01*
X202529022Y-136034422D01*
X202512247Y-136130770D01*
X202521597Y-136122307D01*
X202607112Y-135977788D01*
X202767584Y-135695105D01*
X202980452Y-135314365D01*
X203223155Y-134875672D01*
X203236015Y-134852307D01*
X203709753Y-134027246D01*
X204123510Y-133386218D01*
X204484219Y-132921387D01*
X204798811Y-132624919D01*
X205074220Y-132488981D01*
X205313690Y-132504302D01*
X205410803Y-132575979D01*
X205451419Y-132726594D01*
X205444957Y-133007453D01*
X205432704Y-133152658D01*
X205364402Y-133589277D01*
X205247934Y-134074727D01*
X205164788Y-134340785D01*
X205030383Y-134738603D01*
X204971566Y-134959478D01*
X204990043Y-135001851D01*
X205087525Y-134864162D01*
X205265719Y-134544853D01*
X205526333Y-134042365D01*
X205556196Y-133983553D01*
X205933964Y-133286513D01*
X206267725Y-132774552D01*
X206564973Y-132436188D01*
X206567220Y-132434153D01*
X206881842Y-132178554D01*
X207109355Y-132077120D01*
X207287103Y-132123389D01*
X207287103Y-132123389D01*
G37*
X207287103Y-132123389D02*
X207434091Y-132284113D01*
X207565669Y-132609656D01*
X207572940Y-133048602D01*
X207456237Y-133624666D01*
X207453023Y-133636365D01*
X207362417Y-133964348D01*
X207238681Y-134411620D01*
X207102988Y-134901662D01*
X207046284Y-135106307D01*
X206858272Y-135952201D01*
X206739841Y-136839184D01*
X206721858Y-137087507D01*
X206685661Y-137669930D01*
X206649257Y-138078447D01*
X206606791Y-138342272D01*
X206552410Y-138490620D01*
X206480262Y-138552706D01*
X206426692Y-138560707D01*
X206292365Y-138463873D01*
X206184836Y-138190244D01*
X206109832Y-137765132D01*
X206073081Y-137213845D01*
X206070321Y-136985907D01*
X206091201Y-136447515D01*
X206158735Y-135901102D01*
X206282161Y-135300335D01*
X206470718Y-134598880D01*
X206685737Y-133899387D01*
X206810766Y-133491307D01*
X206901734Y-133161265D01*
X206947204Y-132952817D01*
X206947249Y-132903436D01*
X206867939Y-132927862D01*
X206722033Y-133102202D01*
X206504172Y-133434655D01*
X206209000Y-133933421D01*
X205831157Y-134606699D01*
X205814253Y-134637368D01*
X205342172Y-135466234D01*
X204942326Y-136107409D01*
X204613468Y-136562652D01*
X204354350Y-136833721D01*
X204195007Y-136919433D01*
X204087828Y-136920655D01*
X204040967Y-136839851D01*
X204042776Y-136631907D01*
X204064006Y-136412100D01*
X204119339Y-136090755D01*
X204223988Y-135641753D01*
X204361853Y-135129819D01*
X204485693Y-134717021D01*
X204627098Y-134265615D01*
X204742800Y-133889846D01*
X204820787Y-133629173D01*
X204849053Y-133523221D01*
X204806375Y-133473048D01*
X204687727Y-133580675D01*
X204507184Y-133821745D01*
X204278825Y-134171899D01*
X204016725Y-134606780D01*
X203734961Y-135102029D01*
X203447611Y-135633289D01*
X203168750Y-136176201D01*
X202912455Y-136706408D01*
X202692804Y-137199552D01*
X202615585Y-137387946D01*
X202368024Y-137984463D01*
X202139036Y-138485712D01*
X201941419Y-138866741D01*
X201787972Y-139102600D01*
X201701316Y-139170307D01*
X201581897Y-139091226D01*
X201499827Y-138973786D01*
X201405308Y-138621189D01*
X201405334Y-138112864D01*
X201495959Y-137470818D01*
X201673238Y-136717060D01*
X201933226Y-135873598D01*
X202174649Y-135209536D01*
X202422175Y-134557095D01*
X202595498Y-134071017D01*
X202700180Y-133730773D01*
X202741786Y-133515838D01*
X202725879Y-133405685D01*
X202670781Y-133379107D01*
X202508331Y-133450845D01*
X202252269Y-133642859D01*
X201940288Y-133920344D01*
X201610081Y-134248497D01*
X201299340Y-134592516D01*
X201131699Y-134800201D01*
X200874743Y-135118894D01*
X200708648Y-135272541D01*
X200616949Y-135268636D01*
X200583177Y-135114675D01*
X200581853Y-135050461D01*
X200625828Y-134764347D01*
X200771603Y-134461733D01*
X201039944Y-134110711D01*
X201451623Y-133679374D01*
X201514045Y-133618367D01*
X202025247Y-133158156D01*
X202453860Y-132856750D01*
X202823474Y-132699704D01*
X203066007Y-132667907D01*
X203222602Y-132684813D01*
X203298769Y-132771049D01*
X203323061Y-132979888D01*
X203324676Y-133150507D01*
X203283269Y-133503635D01*
X203164348Y-134012132D01*
X202975241Y-134646727D01*
X202873207Y-134953907D01*
X202718371Y-135416519D01*
X202600686Y-135786515D01*
X202529022Y-136034422D01*
X202512247Y-136130770D01*
X202521597Y-136122307D01*
X202607112Y-135977788D01*
X202767584Y-135695105D01*
X202980452Y-135314365D01*
X203223155Y-134875672D01*
X203236015Y-134852307D01*
X203709753Y-134027246D01*
X204123510Y-133386218D01*
X204484219Y-132921387D01*
X204798811Y-132624919D01*
X205074220Y-132488981D01*
X205313690Y-132504302D01*
X205410803Y-132575979D01*
X205451419Y-132726594D01*
X205444957Y-133007453D01*
X205432704Y-133152658D01*
X205364402Y-133589277D01*
X205247934Y-134074727D01*
X205164788Y-134340785D01*
X205030383Y-134738603D01*
X204971566Y-134959478D01*
X204990043Y-135001851D01*
X205087525Y-134864162D01*
X205265719Y-134544853D01*
X205526333Y-134042365D01*
X205556196Y-133983553D01*
X205933964Y-133286513D01*
X206267725Y-132774552D01*
X206564973Y-132436188D01*
X206567220Y-132434153D01*
X206881842Y-132178554D01*
X207109355Y-132077120D01*
X207287103Y-132123389D01*
G36*
X203934653Y-140948307D02*
X203883853Y-140999107D01*
X203833053Y-140948307D01*
X203883853Y-140897507D01*
X203934653Y-140948307D01*
X203934653Y-140948307D01*
G37*
X203934653Y-140948307D02*
X203883853Y-140999107D01*
X203833053Y-140948307D01*
X203883853Y-140897507D01*
X203934653Y-140948307D01*
G36*
X220624748Y-135827887D02*
X220759416Y-136079698D01*
X220761636Y-136084995D01*
X220865189Y-136475489D01*
X220889455Y-136987255D01*
X220881440Y-137184507D01*
X220735878Y-137999089D01*
X220401103Y-138772138D01*
X219888705Y-139493241D01*
X219210274Y-140151986D01*
X218377401Y-140737958D01*
X217401675Y-141240744D01*
X216294687Y-141649932D01*
X215738264Y-141805461D01*
X214668656Y-142029542D01*
X213465591Y-142202053D01*
X212193359Y-142318182D01*
X210916247Y-142373120D01*
X209698546Y-142362056D01*
X208937247Y-142314376D01*
X208265930Y-142238564D01*
X207535312Y-142129138D01*
X206805152Y-141997246D01*
X206135209Y-141854036D01*
X205585243Y-141710655D01*
X205418936Y-141658035D01*
X205064024Y-141528692D01*
X204703653Y-141383109D01*
X204384191Y-141241991D01*
X204152005Y-141126043D01*
X204053465Y-141055971D01*
X204054384Y-141048708D01*
X204161260Y-141057313D01*
X204419174Y-141109346D01*
X204783016Y-141195177D01*
X205007988Y-141252275D01*
X205873033Y-141447014D01*
X206763683Y-141583481D01*
X207723620Y-141665462D01*
X208796526Y-141696747D01*
X209971848Y-141682640D01*
X211800634Y-141566991D01*
X213474281Y-141323933D01*
X214996833Y-140952357D01*
X216372334Y-140451151D01*
X217604828Y-139819202D01*
X218223784Y-139415092D01*
X218891753Y-138860773D01*
X219466749Y-138224083D01*
X219922985Y-137542761D01*
X220234675Y-136854544D01*
X220368573Y-136276239D01*
X220430560Y-135925557D01*
X220515540Y-135776307D01*
X220624748Y-135827887D01*
X220624748Y-135827887D01*
G37*
X220624748Y-135827887D02*
X220759416Y-136079698D01*
X220761636Y-136084995D01*
X220865189Y-136475489D01*
X220889455Y-136987255D01*
X220881440Y-137184507D01*
X220735878Y-137999089D01*
X220401103Y-138772138D01*
X219888705Y-139493241D01*
X219210274Y-140151986D01*
X218377401Y-140737958D01*
X217401675Y-141240744D01*
X216294687Y-141649932D01*
X215738264Y-141805461D01*
X214668656Y-142029542D01*
X213465591Y-142202053D01*
X212193359Y-142318182D01*
X210916247Y-142373120D01*
X209698546Y-142362056D01*
X208937247Y-142314376D01*
X208265930Y-142238564D01*
X207535312Y-142129138D01*
X206805152Y-141997246D01*
X206135209Y-141854036D01*
X205585243Y-141710655D01*
X205418936Y-141658035D01*
X205064024Y-141528692D01*
X204703653Y-141383109D01*
X204384191Y-141241991D01*
X204152005Y-141126043D01*
X204053465Y-141055971D01*
X204054384Y-141048708D01*
X204161260Y-141057313D01*
X204419174Y-141109346D01*
X204783016Y-141195177D01*
X205007988Y-141252275D01*
X205873033Y-141447014D01*
X206763683Y-141583481D01*
X207723620Y-141665462D01*
X208796526Y-141696747D01*
X209971848Y-141682640D01*
X211800634Y-141566991D01*
X213474281Y-141323933D01*
X214996833Y-140952357D01*
X216372334Y-140451151D01*
X217604828Y-139819202D01*
X218223784Y-139415092D01*
X218891753Y-138860773D01*
X219466749Y-138224083D01*
X219922985Y-137542761D01*
X220234675Y-136854544D01*
X220368573Y-136276239D01*
X220430560Y-135925557D01*
X220515540Y-135776307D01*
X220624748Y-135827887D01*
G36*
X203446800Y-195304393D02*
X203602425Y-195308590D01*
X203755834Y-195315525D01*
X203904294Y-195325139D01*
X204045073Y-195337373D01*
X204175439Y-195352167D01*
X204225939Y-195359058D01*
X204417458Y-195391937D01*
X204597567Y-195433742D01*
X204766346Y-195484531D01*
X204923876Y-195544360D01*
X205070235Y-195613286D01*
X205205503Y-195691367D01*
X205329759Y-195778659D01*
X205443085Y-195875220D01*
X205545558Y-195981106D01*
X205637258Y-196096375D01*
X205718266Y-196221083D01*
X205788661Y-196355287D01*
X205848522Y-196499045D01*
X205858851Y-196527842D01*
X205895753Y-196648433D01*
X205926236Y-196779967D01*
X205949984Y-196920218D01*
X205966682Y-197066960D01*
X205976012Y-197217967D01*
X205977739Y-197365250D01*
X205977688Y-197427348D01*
X205979339Y-197475155D01*
X205982690Y-197508623D01*
X205985308Y-197521084D01*
X205988987Y-197536841D01*
X205991798Y-197555892D01*
X205993740Y-197579572D01*
X205994816Y-197609216D01*
X205995028Y-197646161D01*
X205994376Y-197691741D01*
X205992863Y-197747293D01*
X205990490Y-197814151D01*
X205987258Y-197893653D01*
X205985796Y-197927678D01*
X205984120Y-197969589D01*
X205982614Y-198014796D01*
X205981271Y-198064136D01*
X205980083Y-198118447D01*
X205979043Y-198178565D01*
X205978144Y-198245327D01*
X205977380Y-198319571D01*
X205976743Y-198402134D01*
X205976226Y-198493853D01*
X205975822Y-198595564D01*
X205975524Y-198708106D01*
X205975325Y-198832315D01*
X205975218Y-198969029D01*
X205975195Y-199119083D01*
X205975209Y-199183164D01*
X205975328Y-199312353D01*
X205975605Y-199442885D01*
X205976030Y-199573948D01*
X205976592Y-199704730D01*
X205977283Y-199834417D01*
X205978094Y-199962197D01*
X205979014Y-200087259D01*
X205980035Y-200208789D01*
X205981147Y-200325974D01*
X205982340Y-200438003D01*
X205983606Y-200544063D01*
X205984934Y-200643341D01*
X205986315Y-200735025D01*
X205987740Y-200818302D01*
X205989200Y-200892360D01*
X205990685Y-200956387D01*
X205992185Y-201009569D01*
X205993691Y-201051094D01*
X205995194Y-201080151D01*
X205996684Y-201095925D01*
X205997446Y-201098605D01*
X206007133Y-201099757D01*
X206028611Y-201097412D01*
X206059723Y-201092080D01*
X206098309Y-201084273D01*
X206142212Y-201074500D01*
X206189273Y-201063273D01*
X206237334Y-201051103D01*
X206284237Y-201038501D01*
X206327823Y-201025977D01*
X206365935Y-201014043D01*
X206389705Y-201005757D01*
X206485866Y-200965098D01*
X206570674Y-200918827D01*
X206643539Y-200867396D01*
X206703871Y-200811259D01*
X206751078Y-200750868D01*
X206773425Y-200711630D01*
X206798882Y-200659993D01*
X206889387Y-199723821D01*
X206900525Y-199608522D01*
X206911270Y-199497112D01*
X206921539Y-199390455D01*
X206931251Y-199289416D01*
X206940322Y-199194860D01*
X206948670Y-199107652D01*
X206956213Y-199028657D01*
X206962867Y-198958739D01*
X206968550Y-198898764D01*
X206973181Y-198849597D01*
X206976675Y-198812102D01*
X206978951Y-198787144D01*
X206979927Y-198775589D01*
X206979958Y-198774950D01*
X206981300Y-198769630D01*
X206986813Y-198766032D01*
X206998825Y-198763827D01*
X207019664Y-198762686D01*
X207051659Y-198762280D01*
X207069937Y-198762250D01*
X207154650Y-198758657D01*
X207235623Y-198747436D01*
X207314314Y-198727923D01*
X207392177Y-198699454D01*
X207470667Y-198661367D01*
X207551240Y-198612997D01*
X207635352Y-198553681D01*
X207724458Y-198482756D01*
X207772020Y-198442137D01*
X207822167Y-198399008D01*
X207862776Y-198365942D01*
X207894827Y-198342997D01*
X207919303Y-198330235D01*
X207937182Y-198327715D01*
X207949445Y-198335498D01*
X207957074Y-198353645D01*
X207961047Y-198382215D01*
X207962347Y-198421268D01*
X207962204Y-198453821D01*
X207961561Y-198469169D01*
X207959876Y-198498123D01*
X207957214Y-198539817D01*
X207953640Y-198593386D01*
X207949217Y-198657963D01*
X207944011Y-198732682D01*
X207938085Y-198816678D01*
X207931504Y-198909084D01*
X207924331Y-199009035D01*
X207916632Y-199115664D01*
X207908471Y-199228106D01*
X207899911Y-199345495D01*
X207891018Y-199466965D01*
X207881855Y-199591650D01*
X207872487Y-199718683D01*
X207862977Y-199847200D01*
X207853392Y-199976333D01*
X207843794Y-200105218D01*
X207834247Y-200232987D01*
X207824817Y-200358776D01*
X207815568Y-200481718D01*
X207806564Y-200600948D01*
X207797868Y-200715598D01*
X207789546Y-200824805D01*
X207781662Y-200927700D01*
X207774280Y-201023419D01*
X207767464Y-201111096D01*
X207761279Y-201189865D01*
X207755789Y-201258859D01*
X207751058Y-201317212D01*
X207747150Y-201364060D01*
X207744131Y-201398535D01*
X207742063Y-201419773D01*
X207741812Y-201421993D01*
X207723748Y-201540186D01*
X207698101Y-201648410D01*
X207664082Y-201749517D01*
X207629688Y-201828495D01*
X207578667Y-201920855D01*
X207517820Y-202005848D01*
X207446707Y-202083756D01*
X207364887Y-202154863D01*
X207271919Y-202219451D01*
X207167363Y-202277805D01*
X207050778Y-202330207D01*
X206921724Y-202376940D01*
X206779760Y-202418287D01*
X206671511Y-202444391D01*
X206603335Y-202458704D01*
X206525378Y-202473609D01*
X206442305Y-202488307D01*
X206358783Y-202501996D01*
X206279477Y-202513877D01*
X206219839Y-202521836D01*
X206180927Y-202527531D01*
X206156198Y-202533204D01*
X206145802Y-202538817D01*
X206145453Y-202540037D01*
X206146251Y-202548244D01*
X206148581Y-202569999D01*
X206152345Y-202604428D01*
X206157444Y-202650655D01*
X206163783Y-202707807D01*
X206171262Y-202775009D01*
X206179785Y-202851387D01*
X206189254Y-202936065D01*
X206199572Y-203028170D01*
X206210640Y-203126826D01*
X206222361Y-203231160D01*
X206234637Y-203340296D01*
X206247157Y-203451449D01*
X206263678Y-203598053D01*
X206278654Y-203731022D01*
X206292159Y-203851144D01*
X206304270Y-203959207D01*
X206315063Y-204055999D01*
X206324613Y-204142310D01*
X206332997Y-204218926D01*
X206340290Y-204286636D01*
X206346568Y-204346228D01*
X206351909Y-204398491D01*
X206356386Y-204444212D01*
X206360077Y-204484180D01*
X206363057Y-204519184D01*
X206365402Y-204550010D01*
X206367189Y-204577448D01*
X206368492Y-204602285D01*
X206369389Y-204625310D01*
X206369955Y-204647312D01*
X206370265Y-204669077D01*
X206370397Y-204691395D01*
X206370425Y-204715053D01*
X206370425Y-204730645D01*
X206365952Y-204882864D01*
X206352440Y-205024047D01*
X206329744Y-205154624D01*
X206297723Y-205275029D01*
X206256234Y-205385690D01*
X206205132Y-205487042D01*
X206144277Y-205579513D01*
X206073524Y-205663537D01*
X206055215Y-205682332D01*
X205974728Y-205754107D01*
X205886113Y-205816518D01*
X205788761Y-205869791D01*
X205682067Y-205914154D01*
X205565423Y-205949832D01*
X205438221Y-205977052D01*
X205299856Y-205996041D01*
X205191139Y-206004855D01*
X205044110Y-206008310D01*
X204906209Y-206000511D01*
X204777360Y-205981426D01*
X204657485Y-205951023D01*
X204546509Y-205909269D01*
X204444354Y-205856133D01*
X204350945Y-205791583D01*
X204266204Y-205715587D01*
X204190056Y-205628113D01*
X204147860Y-205569207D01*
X204098419Y-205489014D01*
X204054782Y-205405228D01*
X204016556Y-205316473D01*
X203983348Y-205221374D01*
X203954764Y-205118557D01*
X203930411Y-205006647D01*
X203909894Y-204884269D01*
X203892821Y-204750049D01*
X203882017Y-204640535D01*
X203880199Y-204622017D01*
X203878744Y-204612735D01*
X203877604Y-204613508D01*
X203876733Y-204625153D01*
X203876084Y-204648488D01*
X203875609Y-204684333D01*
X203875262Y-204733504D01*
X203875134Y-204760278D01*
X203873900Y-205048659D01*
X203872722Y-205322864D01*
X203871598Y-205583233D01*
X203870527Y-205830105D01*
X203869507Y-206063818D01*
X203868536Y-206284713D01*
X203867612Y-206493128D01*
X203866734Y-206689401D01*
X203865900Y-206873873D01*
X203865107Y-207046881D01*
X203864355Y-207208765D01*
X203863642Y-207359865D01*
X203862965Y-207500518D01*
X203862323Y-207631064D01*
X203861714Y-207751843D01*
X203861137Y-207863192D01*
X203860589Y-207965452D01*
X203860069Y-208058960D01*
X203859574Y-208144057D01*
X203859105Y-208221080D01*
X203858657Y-208290370D01*
X203858231Y-208352265D01*
X203857823Y-208407104D01*
X203857432Y-208455226D01*
X203857057Y-208496971D01*
X203856695Y-208532676D01*
X203856345Y-208562682D01*
X203856006Y-208587327D01*
X203855674Y-208606950D01*
X203855349Y-208621890D01*
X203855029Y-208632487D01*
X203854811Y-208637407D01*
X203850799Y-208711793D01*
X203337421Y-208711793D01*
X203245474Y-208711721D01*
X203152531Y-208711514D01*
X203060453Y-208711184D01*
X202971105Y-208710743D01*
X202886350Y-208710204D01*
X202808049Y-208709579D01*
X202738067Y-208708880D01*
X202678265Y-208708120D01*
X202630507Y-208707311D01*
X202617848Y-208707038D01*
X202411653Y-208702284D01*
X202413953Y-208044824D01*
X202414202Y-207954027D01*
X202414365Y-207850367D01*
X202414445Y-207735493D01*
X202414443Y-207611057D01*
X202414363Y-207478709D01*
X202414207Y-207340099D01*
X202413977Y-207196878D01*
X202413678Y-207050697D01*
X202413310Y-206903206D01*
X202412877Y-206756054D01*
X202412381Y-206610894D01*
X202411825Y-206469375D01*
X202411249Y-206340755D01*
X202406244Y-205294146D01*
X202354520Y-205337215D01*
X202326936Y-205360369D01*
X202299363Y-205383822D01*
X202276690Y-205403408D01*
X202271766Y-205407738D01*
X202240735Y-205435193D01*
X202233784Y-206832193D01*
X202233067Y-206977424D01*
X202232369Y-207121001D01*
X202231694Y-207262056D01*
X202231046Y-207399720D01*
X202230428Y-207533127D01*
X202229844Y-207661406D01*
X202229298Y-207783691D01*
X202228794Y-207899113D01*
X202228336Y-208006804D01*
X202227926Y-208105896D01*
X202227570Y-208195520D01*
X202227270Y-208274809D01*
X202227031Y-208342894D01*
X202226856Y-208398907D01*
X202226749Y-208441980D01*
X202226714Y-208466864D01*
X202226596Y-208704535D01*
X201747625Y-208704535D01*
X201747625Y-207202307D01*
X201747612Y-207055757D01*
X201747577Y-206913108D01*
X201747518Y-206775035D01*
X201747439Y-206642213D01*
X201747339Y-206515318D01*
X201747220Y-206395025D01*
X201747083Y-206282009D01*
X201746929Y-206176946D01*
X201746760Y-206080510D01*
X201746577Y-205993377D01*
X201746380Y-205916223D01*
X201746171Y-205849723D01*
X201745951Y-205794552D01*
X201745722Y-205751385D01*
X201745483Y-205720897D01*
X201745238Y-205703765D01*
X201745057Y-205700078D01*
X201737763Y-205702527D01*
X201719215Y-205709304D01*
X201691720Y-205719550D01*
X201657579Y-205732410D01*
X201630757Y-205742586D01*
X201588453Y-205758497D01*
X201546455Y-205773972D01*
X201508569Y-205787629D01*
X201478602Y-205798087D01*
X201468225Y-205801541D01*
X201442645Y-205810264D01*
X201422563Y-205817927D01*
X201411959Y-205823001D01*
X201411560Y-205823318D01*
X201411269Y-205831788D01*
X201414163Y-205851884D01*
X201419785Y-205881183D01*
X201427681Y-205917259D01*
X201434895Y-205947606D01*
X201451856Y-206018969D01*
X201465497Y-206082429D01*
X201476161Y-206141038D01*
X201484192Y-206197844D01*
X201489933Y-206255899D01*
X201493728Y-206318253D01*
X201495920Y-206387956D01*
X201496854Y-206468059D01*
X201496946Y-206498364D01*
X201496930Y-206564112D01*
X201496596Y-206617835D01*
X201495820Y-206662020D01*
X201494476Y-206699154D01*
X201492438Y-206731726D01*
X201489580Y-206762223D01*
X201485778Y-206793133D01*
X201480906Y-206826943D01*
X201480110Y-206832193D01*
X201445242Y-207014671D01*
X201397205Y-207191151D01*
X201336065Y-207361479D01*
X201261891Y-207525502D01*
X201174751Y-207683067D01*
X201074711Y-207834023D01*
X200983909Y-207951785D01*
X200949217Y-207991789D01*
X200906356Y-208037840D01*
X200858078Y-208087253D01*
X200807133Y-208137343D01*
X200756272Y-208185423D01*
X200708247Y-208228810D01*
X200665809Y-208264818D01*
X200651796Y-208275948D01*
X200504346Y-208381494D01*
X200351822Y-208473443D01*
X200194199Y-208551802D01*
X200031455Y-208616581D01*
X199863566Y-208667790D01*
X199690508Y-208705437D01*
X199512259Y-208729532D01*
X199469245Y-208733257D01*
X199390118Y-208737752D01*
X199309191Y-208739393D01*
X199232677Y-208738117D01*
X199193110Y-208736039D01*
X199018477Y-208718056D01*
X198851436Y-208688437D01*
X198690337Y-208646731D01*
X198533526Y-208592490D01*
X198379351Y-208525264D01*
X198333139Y-208502383D01*
X198265391Y-208465816D01*
X198192370Y-208422743D01*
X198118206Y-208375820D01*
X198047024Y-208327706D01*
X197982955Y-208281057D01*
X197953375Y-208257902D01*
X197829484Y-208149133D01*
X197712206Y-208028626D01*
X197603003Y-207898210D01*
X197503340Y-207759720D01*
X197414683Y-207614986D01*
X197366031Y-207523213D01*
X197305842Y-207394199D01*
X197255500Y-207267167D01*
X197213948Y-207138653D01*
X197180127Y-207005194D01*
X197152980Y-206863326D01*
X197141647Y-206788650D01*
X197137204Y-206746935D01*
X197133725Y-206694040D01*
X197131217Y-206632866D01*
X197129685Y-206566310D01*
X197129134Y-206497270D01*
X197129220Y-206483734D01*
X198643536Y-206483734D01*
X198644378Y-206527393D01*
X198652715Y-206674203D01*
X198668079Y-206815192D01*
X198690158Y-206949670D01*
X198718637Y-207076950D01*
X198753203Y-207196343D01*
X198793541Y-207307160D01*
X198839339Y-207408714D01*
X198890283Y-207500316D01*
X198946060Y-207581277D01*
X199006354Y-207650910D01*
X199070854Y-207708527D01*
X199139244Y-207753438D01*
X199211213Y-207784956D01*
X199218510Y-207787319D01*
X199249014Y-207793375D01*
X199288414Y-207796332D01*
X199331435Y-207796230D01*
X199372804Y-207793107D01*
X199407246Y-207787003D01*
X199411322Y-207785882D01*
X199474471Y-207760429D01*
X199537254Y-207721574D01*
X199598577Y-207670414D01*
X199657344Y-207608043D01*
X199712459Y-207535555D01*
X199762827Y-207454045D01*
X199784623Y-207412782D01*
X199833793Y-207304568D01*
X199875913Y-207189673D01*
X199911461Y-207066420D01*
X199940912Y-206933131D01*
X199964743Y-206788130D01*
X199967277Y-206769647D01*
X199971422Y-206730869D01*
X199974747Y-206683668D01*
X199977274Y-206629865D01*
X199979020Y-206571280D01*
X199980008Y-206509732D01*
X199980257Y-206447041D01*
X199979787Y-206385027D01*
X199978618Y-206325510D01*
X199976771Y-206270311D01*
X199974265Y-206221249D01*
X199971121Y-206180144D01*
X199967360Y-206148815D01*
X199963000Y-206129084D01*
X199960121Y-206123584D01*
X199952091Y-206123062D01*
X199932058Y-206123825D01*
X199902463Y-206125722D01*
X199865744Y-206128601D01*
X199834304Y-206131379D01*
X199719667Y-206141464D01*
X199608956Y-206150093D01*
X199499356Y-206157411D01*
X199388053Y-206163566D01*
X199272231Y-206168705D01*
X199149076Y-206172975D01*
X199015772Y-206176523D01*
X198937389Y-206178214D01*
X198875750Y-206179555D01*
X198818735Y-206181001D01*
X198767959Y-206182494D01*
X198725035Y-206183979D01*
X198691579Y-206185398D01*
X198669204Y-206186696D01*
X198659524Y-206187815D01*
X198659286Y-206187941D01*
X198656058Y-206198092D01*
X198652989Y-206220474D01*
X198650179Y-206252803D01*
X198647730Y-206292796D01*
X198645740Y-206338169D01*
X198644311Y-206386638D01*
X198643543Y-206435921D01*
X198643536Y-206483734D01*
X197129220Y-206483734D01*
X197129570Y-206428646D01*
X197130998Y-206363334D01*
X197133424Y-206304236D01*
X197136853Y-206254247D01*
X197140571Y-206221015D01*
X197150761Y-206150495D01*
X197132350Y-206146940D01*
X197119937Y-206145701D01*
X197095364Y-206144201D01*
X197060982Y-206142547D01*
X197019139Y-206140847D01*
X196972187Y-206139211D01*
X196948839Y-206138489D01*
X196783739Y-206133593D01*
X196783739Y-208690021D01*
X196362865Y-208690021D01*
X196361030Y-207396435D01*
X196359196Y-206102850D01*
X196273786Y-206096336D01*
X196240231Y-206094024D01*
X196212374Y-206092573D01*
X196193158Y-206092102D01*
X196185548Y-206092708D01*
X196185221Y-206100150D01*
X196184847Y-206121377D01*
X196184429Y-206155661D01*
X196183972Y-206202273D01*
X196183480Y-206260483D01*
X196182959Y-206329563D01*
X196182412Y-206408784D01*
X196181844Y-206497418D01*
X196181260Y-206594734D01*
X196180665Y-206700006D01*
X196180063Y-206812502D01*
X196179458Y-206931496D01*
X196178855Y-207056257D01*
X196178259Y-207186057D01*
X196177675Y-207320168D01*
X196177371Y-207392807D01*
X196172022Y-208690021D01*
X194722710Y-208690021D01*
X194722636Y-206946493D01*
X194722621Y-206756272D01*
X194722592Y-206579908D01*
X194722543Y-206416742D01*
X194722470Y-206266119D01*
X194722368Y-206127378D01*
X194722233Y-205999864D01*
X194722173Y-205958537D01*
X198692368Y-205958537D01*
X198692368Y-205976887D01*
X198882868Y-205972458D01*
X198947118Y-205970817D01*
X199018550Y-205968745D01*
X199092150Y-205966403D01*
X199162908Y-205963954D01*
X199225812Y-205961558D01*
X199243910Y-205960811D01*
X199313580Y-205957626D01*
X199385832Y-205953893D01*
X199459150Y-205949725D01*
X199532022Y-205945233D01*
X199602932Y-205940532D01*
X199670367Y-205935734D01*
X199732812Y-205930951D01*
X199788753Y-205926297D01*
X199836677Y-205921884D01*
X199875069Y-205917826D01*
X199902414Y-205914235D01*
X199917199Y-205911224D01*
X199918875Y-205910504D01*
X199921314Y-205900863D01*
X199918850Y-205878984D01*
X199911793Y-205846174D01*
X199900456Y-205803742D01*
X199885149Y-205752994D01*
X199871027Y-205709591D01*
X199830123Y-205600112D01*
X199784189Y-205500471D01*
X199733732Y-205411167D01*
X199679260Y-205332698D01*
X199621279Y-205265560D01*
X199560297Y-205210252D01*
X199496821Y-205167271D01*
X199431359Y-205137115D01*
X199364419Y-205120281D01*
X199296506Y-205117268D01*
X199269875Y-205119945D01*
X199206821Y-205133734D01*
X199148210Y-205157230D01*
X199091873Y-205191662D01*
X199035643Y-205238258D01*
X199001522Y-205272075D01*
X198934361Y-205352136D01*
X198873425Y-205445138D01*
X198818825Y-205550858D01*
X198770672Y-205669075D01*
X198729075Y-205799566D01*
X198717209Y-205843719D01*
X198708027Y-205880680D01*
X198700378Y-205913961D01*
X198694956Y-205940351D01*
X198692456Y-205956638D01*
X198692368Y-205958537D01*
X194722173Y-205958537D01*
X194722061Y-205882918D01*
X194721847Y-205775883D01*
X194721586Y-205678101D01*
X194721275Y-205588915D01*
X194720907Y-205507666D01*
X194720480Y-205433697D01*
X194719989Y-205366350D01*
X194719429Y-205304969D01*
X194718795Y-205248894D01*
X194718083Y-205197469D01*
X194717289Y-205150036D01*
X194716408Y-205105937D01*
X194715435Y-205064515D01*
X194714367Y-205025111D01*
X194713198Y-204987069D01*
X194711925Y-204949730D01*
X194710542Y-204912437D01*
X194709045Y-204874532D01*
X194708381Y-204858250D01*
X194692735Y-204400844D01*
X194683733Y-203951457D01*
X194681363Y-203510836D01*
X194685613Y-203079725D01*
X194693468Y-202775370D01*
X194904139Y-202775370D01*
X195537325Y-202777224D01*
X196170510Y-202779078D01*
X196172341Y-204337550D01*
X196172554Y-204514866D01*
X196172761Y-204678238D01*
X196172969Y-204828234D01*
X196173183Y-204965424D01*
X196173408Y-205090376D01*
X196173648Y-205203661D01*
X196173911Y-205305847D01*
X196174200Y-205397503D01*
X196174522Y-205479200D01*
X196174881Y-205551506D01*
X196175282Y-205614991D01*
X196175732Y-205670223D01*
X196176236Y-205717773D01*
X196176797Y-205758209D01*
X196177423Y-205792100D01*
X196178119Y-205820017D01*
X196178888Y-205842528D01*
X196179738Y-205860202D01*
X196180673Y-205873610D01*
X196181698Y-205883319D01*
X196182819Y-205889900D01*
X196184041Y-205893922D01*
X196185370Y-205895953D01*
X196186810Y-205896564D01*
X196186856Y-205896567D01*
X196196186Y-205896983D01*
X196218737Y-205897996D01*
X196253229Y-205899548D01*
X196298386Y-205901582D01*
X196352926Y-205904040D01*
X196415572Y-205906864D01*
X196485045Y-205909997D01*
X196560067Y-205913381D01*
X196639357Y-205916958D01*
X196649482Y-205917415D01*
X196730443Y-205921047D01*
X196808251Y-205924498D01*
X196881497Y-205927708D01*
X196948769Y-205930616D01*
X197008658Y-205933164D01*
X197059755Y-205935290D01*
X197100647Y-205936935D01*
X197129927Y-205938039D01*
X197146182Y-205938542D01*
X197146596Y-205938549D01*
X197193768Y-205939382D01*
X197217827Y-205854201D01*
X197266993Y-205704543D01*
X197329386Y-205555351D01*
X197403804Y-205408623D01*
X197489040Y-205266361D01*
X197583891Y-205130562D01*
X197687152Y-205003227D01*
X197797617Y-204886353D01*
X197805804Y-204878408D01*
X197939990Y-204758760D01*
X198081440Y-204651653D01*
X198229935Y-204557194D01*
X198385255Y-204475486D01*
X198547178Y-204406637D01*
X198715486Y-204350751D01*
X198889959Y-204307934D01*
X199051596Y-204280724D01*
X199109475Y-204274779D01*
X199177944Y-204270640D01*
X199253190Y-204268309D01*
X199331401Y-204267789D01*
X199408764Y-204269083D01*
X199481467Y-204272194D01*
X199545697Y-204277123D01*
X199574110Y-204280358D01*
X199753729Y-204310714D01*
X199926934Y-204354049D01*
X200093609Y-204410307D01*
X200253639Y-204479432D01*
X200406908Y-204561369D01*
X200553301Y-204656063D01*
X200692702Y-204763457D01*
X200820141Y-204878745D01*
X200934942Y-204997968D01*
X201037004Y-205119625D01*
X201128103Y-205246188D01*
X201210016Y-205380130D01*
X201284517Y-205523924D01*
X201286560Y-205528214D01*
X201333653Y-205627323D01*
X201437225Y-205590911D01*
X201600557Y-205530237D01*
X201764414Y-205463112D01*
X201925590Y-205391011D01*
X202080879Y-205315410D01*
X202227078Y-205237786D01*
X202320939Y-205183842D01*
X202411653Y-205129853D01*
X202415995Y-204585837D01*
X202416689Y-204494578D01*
X202417418Y-204391026D01*
X202418168Y-204277400D01*
X202418926Y-204155922D01*
X202419680Y-204028813D01*
X202420417Y-203898293D01*
X202421125Y-203766582D01*
X202421791Y-203635901D01*
X202422114Y-203568418D01*
X203881225Y-203568418D01*
X203881225Y-204010667D01*
X203906380Y-203988581D01*
X203962836Y-203945233D01*
X204029558Y-203904287D01*
X204102300Y-203867933D01*
X204176815Y-203838363D01*
X204227555Y-203822925D01*
X204264130Y-203814203D01*
X204297597Y-203808528D01*
X204333245Y-203805286D01*
X204376365Y-203803860D01*
X204392853Y-203803685D01*
X204493963Y-203808914D01*
X204588245Y-203826432D01*
X204677438Y-203856812D01*
X204763282Y-203900626D01*
X204835740Y-203949477D01*
X204884314Y-203987506D01*
X204921209Y-204020950D01*
X204947548Y-204052066D01*
X204964455Y-204083109D01*
X204973052Y-204116334D01*
X204974463Y-204153997D01*
X204969809Y-204198353D01*
X204967323Y-204213746D01*
X204959617Y-204252139D01*
X204949592Y-204293128D01*
X204939148Y-204329084D01*
X204936922Y-204335735D01*
X204918250Y-204409586D01*
X204910053Y-204490603D01*
X204911942Y-204576327D01*
X204923528Y-204664301D01*
X204944423Y-204752065D01*
X204974237Y-204837160D01*
X205012581Y-204917130D01*
X205034820Y-204954407D01*
X205054805Y-204983902D01*
X205070689Y-205001915D01*
X205085072Y-205009837D01*
X205100551Y-205009061D01*
X205119725Y-205000980D01*
X205120742Y-205000453D01*
X205151549Y-204977161D01*
X205177641Y-204941730D01*
X205199011Y-204894067D01*
X205215653Y-204834076D01*
X205227561Y-204761663D01*
X205234730Y-204676734D01*
X205237152Y-204579195D01*
X205234822Y-204468951D01*
X205227733Y-204345907D01*
X205215880Y-204209970D01*
X205199257Y-204061044D01*
X205177857Y-203899036D01*
X205151673Y-203723851D01*
X205120701Y-203535394D01*
X205084934Y-203333572D01*
X205044366Y-203118289D01*
X204998990Y-202889452D01*
X204976812Y-202781115D01*
X204966588Y-202731880D01*
X204957154Y-202686914D01*
X204948957Y-202648317D01*
X204942446Y-202618190D01*
X204938069Y-202598633D01*
X204936470Y-202592207D01*
X204935060Y-202589777D01*
X204931782Y-202587678D01*
X204925647Y-202585885D01*
X204915663Y-202584374D01*
X204900840Y-202583121D01*
X204880186Y-202582102D01*
X204852711Y-202581294D01*
X204817424Y-202580672D01*
X204773335Y-202580212D01*
X204719452Y-202579890D01*
X204654785Y-202579683D01*
X204578343Y-202579566D01*
X204489135Y-202579516D01*
X204411685Y-202579507D01*
X203890838Y-202579507D01*
X203886031Y-202852837D01*
X203885113Y-202913210D01*
X203884252Y-202985584D01*
X203883466Y-203067445D01*
X203882771Y-203156280D01*
X203882184Y-203249575D01*
X203881722Y-203344818D01*
X203881402Y-203439494D01*
X203881241Y-203531091D01*
X203881225Y-203568418D01*
X202422114Y-203568418D01*
X202422402Y-203508471D01*
X202422946Y-203386513D01*
X202423252Y-203312478D01*
X202426168Y-202583135D01*
X201116253Y-202579507D01*
X199806339Y-202575878D01*
X199773682Y-202556630D01*
X199734494Y-202525233D01*
X199703513Y-202482567D01*
X199681444Y-202429788D01*
X199672121Y-202390078D01*
X199670287Y-202372326D01*
X199668770Y-202341994D01*
X199667567Y-202298813D01*
X199666675Y-202242517D01*
X199666092Y-202172839D01*
X199665815Y-202089511D01*
X199665840Y-201992267D01*
X199666165Y-201880838D01*
X199666280Y-201853793D01*
X199668453Y-201363935D01*
X199685024Y-201322954D01*
X199705605Y-201283492D01*
X199732994Y-201247079D01*
X199763713Y-201217827D01*
X199786191Y-201203381D01*
X199790795Y-201201327D01*
X199796421Y-201199484D01*
X199803861Y-201197836D01*
X199813906Y-201196368D01*
X199827348Y-201195065D01*
X199844976Y-201193912D01*
X199867583Y-201192892D01*
X199895959Y-201191992D01*
X199930896Y-201191195D01*
X199973185Y-201190487D01*
X200023616Y-201189852D01*
X200082982Y-201189274D01*
X200152072Y-201188739D01*
X200231679Y-201188231D01*
X200322594Y-201187736D01*
X200425606Y-201187236D01*
X200541509Y-201186718D01*
X200671092Y-201186166D01*
X200678421Y-201186135D01*
X201543246Y-201182507D01*
X201115084Y-199995964D01*
X201061179Y-199846565D01*
X201011990Y-199710186D01*
X200967299Y-199586198D01*
X200926887Y-199473971D01*
X200890539Y-199372875D01*
X200858034Y-199282280D01*
X200829156Y-199201558D01*
X200803687Y-199130077D01*
X200781408Y-199067209D01*
X200762103Y-199012324D01*
X200745553Y-198964791D01*
X200731540Y-198923982D01*
X200719847Y-198889267D01*
X200710255Y-198860015D01*
X200702548Y-198835597D01*
X200696506Y-198815384D01*
X200691913Y-198798746D01*
X200688550Y-198785052D01*
X200686199Y-198773674D01*
X200684644Y-198763981D01*
X200683665Y-198755345D01*
X200683045Y-198747134D01*
X200683038Y-198747022D01*
X200683789Y-198687012D01*
X200694409Y-198630997D01*
X200715755Y-198577104D01*
X200748685Y-198523457D01*
X200794055Y-198468181D01*
X200825364Y-198435669D01*
X200891780Y-198376161D01*
X200969214Y-198318579D01*
X201058218Y-198262632D01*
X201159344Y-198208030D01*
X201273144Y-198154481D01*
X201400169Y-198101696D01*
X201540970Y-198049383D01*
X201591596Y-198031817D01*
X201744639Y-197982739D01*
X201909667Y-197935671D01*
X202084225Y-197891126D01*
X202265863Y-197849617D01*
X202452127Y-197811657D01*
X202640565Y-197777759D01*
X202828723Y-197748436D01*
X203014149Y-197724203D01*
X203114427Y-197713194D01*
X203164057Y-197708135D01*
X203138838Y-197743521D01*
X203107831Y-197792653D01*
X203075949Y-197853603D01*
X203044307Y-197923810D01*
X203014018Y-198000714D01*
X202986199Y-198081755D01*
X202973575Y-198122989D01*
X202935315Y-198271649D01*
X202904222Y-198431971D01*
X202880338Y-198602970D01*
X202863705Y-198783665D01*
X202854367Y-198973071D01*
X202852366Y-199170205D01*
X202857742Y-199374083D01*
X202870540Y-199583722D01*
X202890802Y-199798139D01*
X202898594Y-199865335D01*
X202923487Y-200051454D01*
X202954116Y-200247124D01*
X202989818Y-200448867D01*
X203029932Y-200653207D01*
X203073795Y-200856667D01*
X203120744Y-201055768D01*
X203139804Y-201131707D01*
X203152784Y-201182507D01*
X203242054Y-201184551D01*
X203331323Y-201186595D01*
X203327896Y-201162780D01*
X203325311Y-201149388D01*
X203319812Y-201124062D01*
X203311897Y-201088975D01*
X203302060Y-201046300D01*
X203290797Y-200998213D01*
X203280281Y-200953907D01*
X203209814Y-200637305D01*
X203150661Y-200324195D01*
X203102100Y-200010194D01*
X203063411Y-199690920D01*
X203049847Y-199553278D01*
X203045962Y-199502426D01*
X203042524Y-199440496D01*
X203039568Y-199369936D01*
X203037130Y-199293193D01*
X203035243Y-199212714D01*
X203033943Y-199130945D01*
X203033265Y-199050334D01*
X203033250Y-198995613D01*
X204115980Y-198995613D01*
X204124849Y-199067250D01*
X204145596Y-199136817D01*
X204178256Y-199202533D01*
X204222861Y-199262616D01*
X204237028Y-199277713D01*
X204294430Y-199326083D01*
X204358033Y-199361572D01*
X204426803Y-199383877D01*
X204499705Y-199392700D01*
X204575706Y-199387741D01*
X204600633Y-199383169D01*
X204667346Y-199361924D01*
X204727924Y-199328665D01*
X204781412Y-199284937D01*
X204826857Y-199232284D01*
X204863302Y-199172251D01*
X204889793Y-199106382D01*
X204905376Y-199036223D01*
X204909094Y-198963317D01*
X204901484Y-198896507D01*
X204880367Y-198822064D01*
X204847324Y-198755536D01*
X204801698Y-198695687D01*
X204785399Y-198678793D01*
X204727777Y-198630499D01*
X204666477Y-198596011D01*
X204600317Y-198574838D01*
X204528114Y-198566487D01*
X204515057Y-198566307D01*
X204439732Y-198572428D01*
X204371178Y-198591118D01*
X204308118Y-198622869D01*
X204249273Y-198668172D01*
X204248621Y-198668769D01*
X204198608Y-198724019D01*
X204160303Y-198786111D01*
X204133741Y-198853262D01*
X204118955Y-198923690D01*
X204115980Y-198995613D01*
X203033250Y-198995613D01*
X203033243Y-198973329D01*
X203033913Y-198902376D01*
X203035309Y-198839921D01*
X203037465Y-198788414D01*
X203038690Y-198769507D01*
X203055255Y-198598236D01*
X203078488Y-198439605D01*
X203108500Y-198293305D01*
X203145401Y-198159026D01*
X203189303Y-198036459D01*
X203240317Y-197925295D01*
X203298554Y-197825225D01*
X203364126Y-197735938D01*
X203437143Y-197657127D01*
X203439411Y-197654958D01*
X203521114Y-197584991D01*
X203615971Y-197517839D01*
X203722815Y-197453965D01*
X203840477Y-197393832D01*
X203967790Y-197337902D01*
X204103585Y-197286639D01*
X204246695Y-197240505D01*
X204395952Y-197199962D01*
X204550187Y-197165475D01*
X204708233Y-197137506D01*
X204766596Y-197129017D01*
X204825733Y-197122282D01*
X204894158Y-197116758D01*
X204968519Y-197112536D01*
X205045459Y-197109706D01*
X205121627Y-197108356D01*
X205193668Y-197108576D01*
X205258229Y-197110457D01*
X205311954Y-197114087D01*
X205314856Y-197114372D01*
X205421620Y-197128463D01*
X205521027Y-197148359D01*
X205611147Y-197173569D01*
X205690050Y-197203605D01*
X205717817Y-197216748D01*
X205740386Y-197227541D01*
X205757369Y-197234538D01*
X205765204Y-197236277D01*
X205765270Y-197236224D01*
X205765847Y-197228313D01*
X205765419Y-197208578D01*
X205764092Y-197179663D01*
X205761974Y-197144215D01*
X205760922Y-197128706D01*
X205743843Y-196961642D01*
X205716621Y-196804364D01*
X205679134Y-196656759D01*
X205631257Y-196518714D01*
X205572867Y-196390119D01*
X205503841Y-196270860D01*
X205424055Y-196160826D01*
X205333385Y-196059904D01*
X205231709Y-195967982D01*
X205118902Y-195884949D01*
X204994841Y-195810691D01*
X204859403Y-195745098D01*
X204712464Y-195688056D01*
X204553901Y-195639454D01*
X204383590Y-195599179D01*
X204201407Y-195567119D01*
X204015482Y-195543993D01*
X203939290Y-195537191D01*
X203852545Y-195531060D01*
X203757641Y-195525660D01*
X203656972Y-195521051D01*
X203552933Y-195517293D01*
X203447917Y-195514446D01*
X203344319Y-195512571D01*
X203244533Y-195511727D01*
X203150953Y-195511975D01*
X203065975Y-195513375D01*
X202991991Y-195515987D01*
X202963196Y-195517557D01*
X202721894Y-195538359D01*
X202473501Y-195571119D01*
X202218695Y-195615533D01*
X201958155Y-195671298D01*
X201692558Y-195738114D01*
X201422584Y-195815675D01*
X201148911Y-195903681D01*
X200872216Y-196001828D01*
X200593179Y-196109815D01*
X200312477Y-196227337D01*
X200030789Y-196354093D01*
X199748793Y-196489780D01*
X199467168Y-196634096D01*
X199186592Y-196786737D01*
X198907743Y-196947402D01*
X198631300Y-197115787D01*
X198357941Y-197291590D01*
X198088344Y-197474509D01*
X197823187Y-197664240D01*
X197563149Y-197860482D01*
X197371547Y-198012029D01*
X197166345Y-198182247D01*
X196964072Y-198359073D01*
X196766699Y-198540622D01*
X196576192Y-198725007D01*
X196394522Y-198910342D01*
X196223656Y-199094742D01*
X196126461Y-199204935D01*
X195960872Y-199403628D01*
X195807203Y-199602818D01*
X195665671Y-199802094D01*
X195536498Y-200001043D01*
X195419902Y-200199252D01*
X195316104Y-200396309D01*
X195225323Y-200591801D01*
X195147778Y-200785316D01*
X195083691Y-200976441D01*
X195033279Y-201164764D01*
X195002660Y-201314754D01*
X194995513Y-201357585D01*
X194988887Y-201400839D01*
X194983460Y-201439850D01*
X194979913Y-201469948D01*
X194979590Y-201473354D01*
X194974571Y-201528734D01*
X195010975Y-201502580D01*
X195065634Y-201467910D01*
X195132832Y-201432992D01*
X195210628Y-201398566D01*
X195297081Y-201365370D01*
X195390249Y-201334144D01*
X195488192Y-201305628D01*
X195588968Y-201280562D01*
X195600825Y-201277895D01*
X195680882Y-201261698D01*
X195761509Y-201248384D01*
X195840769Y-201238079D01*
X195916730Y-201230908D01*
X195987457Y-201226998D01*
X196051016Y-201226473D01*
X196105475Y-201229459D01*
X196148897Y-201236081D01*
X196166866Y-201241140D01*
X196194856Y-201253346D01*
X196210767Y-201266711D01*
X196214500Y-201273221D01*
X196215911Y-201281864D01*
X196216978Y-201300676D01*
X196217699Y-201330117D01*
X196218072Y-201370648D01*
X196218095Y-201422729D01*
X196217767Y-201486821D01*
X196217086Y-201563385D01*
X196216051Y-201652881D01*
X196214659Y-201755771D01*
X196212908Y-201872513D01*
X196212057Y-201926364D01*
X196210499Y-202021075D01*
X196208934Y-202111593D01*
X196207383Y-202196872D01*
X196205870Y-202275866D01*
X196204417Y-202347528D01*
X196203046Y-202410811D01*
X196201781Y-202464670D01*
X196200643Y-202508058D01*
X196199655Y-202539928D01*
X196198840Y-202559234D01*
X196198293Y-202564993D01*
X196190667Y-202565557D01*
X196169569Y-202566146D01*
X196136040Y-202566751D01*
X196091122Y-202567362D01*
X196035857Y-202567968D01*
X195971287Y-202568561D01*
X195898453Y-202569131D01*
X195818397Y-202569668D01*
X195732161Y-202570163D01*
X195640787Y-202570605D01*
X195554001Y-202570954D01*
X194913295Y-202573287D01*
X194908780Y-202610868D01*
X194906626Y-202636413D01*
X194905013Y-202670006D01*
X194904232Y-202705186D01*
X194904202Y-202711910D01*
X194904139Y-202775370D01*
X194693468Y-202775370D01*
X194696475Y-202658871D01*
X194713936Y-202249020D01*
X194737985Y-201850916D01*
X194755579Y-201617935D01*
X194769953Y-201468455D01*
X194788116Y-201329858D01*
X194810730Y-201198855D01*
X194838455Y-201072154D01*
X194871952Y-200946467D01*
X194911883Y-200818503D01*
X194922529Y-200786993D01*
X194998700Y-200584463D01*
X195088970Y-200380119D01*
X195193079Y-200174273D01*
X195310769Y-199967236D01*
X195441780Y-199759319D01*
X195585853Y-199550831D01*
X195742728Y-199342086D01*
X195912147Y-199133392D01*
X196093851Y-198925062D01*
X196287579Y-198717406D01*
X196493074Y-198510736D01*
X196710075Y-198305361D01*
X196938323Y-198101594D01*
X197177560Y-197899745D01*
X197427526Y-197700124D01*
X197614682Y-197557442D01*
X197879224Y-197364857D01*
X198148916Y-197178760D01*
X198423021Y-196999474D01*
X198700801Y-196827319D01*
X198981519Y-196662617D01*
X199264436Y-196505691D01*
X199548814Y-196356861D01*
X199833917Y-196216450D01*
X200119006Y-196084779D01*
X200403343Y-195962169D01*
X200686191Y-195848943D01*
X200966813Y-195745422D01*
X201244470Y-195651928D01*
X201518424Y-195568782D01*
X201787938Y-195496306D01*
X202052275Y-195434822D01*
X202310696Y-195384652D01*
X202562464Y-195346116D01*
X202731083Y-195326563D01*
X202856796Y-195316177D01*
X202993957Y-195308827D01*
X203139833Y-195304452D01*
X203291691Y-195302994D01*
X203446800Y-195304393D01*
X203446800Y-195304393D01*
G37*
X203446800Y-195304393D02*
X203602425Y-195308590D01*
X203755834Y-195315525D01*
X203904294Y-195325139D01*
X204045073Y-195337373D01*
X204175439Y-195352167D01*
X204225939Y-195359058D01*
X204417458Y-195391937D01*
X204597567Y-195433742D01*
X204766346Y-195484531D01*
X204923876Y-195544360D01*
X205070235Y-195613286D01*
X205205503Y-195691367D01*
X205329759Y-195778659D01*
X205443085Y-195875220D01*
X205545558Y-195981106D01*
X205637258Y-196096375D01*
X205718266Y-196221083D01*
X205788661Y-196355287D01*
X205848522Y-196499045D01*
X205858851Y-196527842D01*
X205895753Y-196648433D01*
X205926236Y-196779967D01*
X205949984Y-196920218D01*
X205966682Y-197066960D01*
X205976012Y-197217967D01*
X205977739Y-197365250D01*
X205977688Y-197427348D01*
X205979339Y-197475155D01*
X205982690Y-197508623D01*
X205985308Y-197521084D01*
X205988987Y-197536841D01*
X205991798Y-197555892D01*
X205993740Y-197579572D01*
X205994816Y-197609216D01*
X205995028Y-197646161D01*
X205994376Y-197691741D01*
X205992863Y-197747293D01*
X205990490Y-197814151D01*
X205987258Y-197893653D01*
X205985796Y-197927678D01*
X205984120Y-197969589D01*
X205982614Y-198014796D01*
X205981271Y-198064136D01*
X205980083Y-198118447D01*
X205979043Y-198178565D01*
X205978144Y-198245327D01*
X205977380Y-198319571D01*
X205976743Y-198402134D01*
X205976226Y-198493853D01*
X205975822Y-198595564D01*
X205975524Y-198708106D01*
X205975325Y-198832315D01*
X205975218Y-198969029D01*
X205975195Y-199119083D01*
X205975209Y-199183164D01*
X205975328Y-199312353D01*
X205975605Y-199442885D01*
X205976030Y-199573948D01*
X205976592Y-199704730D01*
X205977283Y-199834417D01*
X205978094Y-199962197D01*
X205979014Y-200087259D01*
X205980035Y-200208789D01*
X205981147Y-200325974D01*
X205982340Y-200438003D01*
X205983606Y-200544063D01*
X205984934Y-200643341D01*
X205986315Y-200735025D01*
X205987740Y-200818302D01*
X205989200Y-200892360D01*
X205990685Y-200956387D01*
X205992185Y-201009569D01*
X205993691Y-201051094D01*
X205995194Y-201080151D01*
X205996684Y-201095925D01*
X205997446Y-201098605D01*
X206007133Y-201099757D01*
X206028611Y-201097412D01*
X206059723Y-201092080D01*
X206098309Y-201084273D01*
X206142212Y-201074500D01*
X206189273Y-201063273D01*
X206237334Y-201051103D01*
X206284237Y-201038501D01*
X206327823Y-201025977D01*
X206365935Y-201014043D01*
X206389705Y-201005757D01*
X206485866Y-200965098D01*
X206570674Y-200918827D01*
X206643539Y-200867396D01*
X206703871Y-200811259D01*
X206751078Y-200750868D01*
X206773425Y-200711630D01*
X206798882Y-200659993D01*
X206889387Y-199723821D01*
X206900525Y-199608522D01*
X206911270Y-199497112D01*
X206921539Y-199390455D01*
X206931251Y-199289416D01*
X206940322Y-199194860D01*
X206948670Y-199107652D01*
X206956213Y-199028657D01*
X206962867Y-198958739D01*
X206968550Y-198898764D01*
X206973181Y-198849597D01*
X206976675Y-198812102D01*
X206978951Y-198787144D01*
X206979927Y-198775589D01*
X206979958Y-198774950D01*
X206981300Y-198769630D01*
X206986813Y-198766032D01*
X206998825Y-198763827D01*
X207019664Y-198762686D01*
X207051659Y-198762280D01*
X207069937Y-198762250D01*
X207154650Y-198758657D01*
X207235623Y-198747436D01*
X207314314Y-198727923D01*
X207392177Y-198699454D01*
X207470667Y-198661367D01*
X207551240Y-198612997D01*
X207635352Y-198553681D01*
X207724458Y-198482756D01*
X207772020Y-198442137D01*
X207822167Y-198399008D01*
X207862776Y-198365942D01*
X207894827Y-198342997D01*
X207919303Y-198330235D01*
X207937182Y-198327715D01*
X207949445Y-198335498D01*
X207957074Y-198353645D01*
X207961047Y-198382215D01*
X207962347Y-198421268D01*
X207962204Y-198453821D01*
X207961561Y-198469169D01*
X207959876Y-198498123D01*
X207957214Y-198539817D01*
X207953640Y-198593386D01*
X207949217Y-198657963D01*
X207944011Y-198732682D01*
X207938085Y-198816678D01*
X207931504Y-198909084D01*
X207924331Y-199009035D01*
X207916632Y-199115664D01*
X207908471Y-199228106D01*
X207899911Y-199345495D01*
X207891018Y-199466965D01*
X207881855Y-199591650D01*
X207872487Y-199718683D01*
X207862977Y-199847200D01*
X207853392Y-199976333D01*
X207843794Y-200105218D01*
X207834247Y-200232987D01*
X207824817Y-200358776D01*
X207815568Y-200481718D01*
X207806564Y-200600948D01*
X207797868Y-200715598D01*
X207789546Y-200824805D01*
X207781662Y-200927700D01*
X207774280Y-201023419D01*
X207767464Y-201111096D01*
X207761279Y-201189865D01*
X207755789Y-201258859D01*
X207751058Y-201317212D01*
X207747150Y-201364060D01*
X207744131Y-201398535D01*
X207742063Y-201419773D01*
X207741812Y-201421993D01*
X207723748Y-201540186D01*
X207698101Y-201648410D01*
X207664082Y-201749517D01*
X207629688Y-201828495D01*
X207578667Y-201920855D01*
X207517820Y-202005848D01*
X207446707Y-202083756D01*
X207364887Y-202154863D01*
X207271919Y-202219451D01*
X207167363Y-202277805D01*
X207050778Y-202330207D01*
X206921724Y-202376940D01*
X206779760Y-202418287D01*
X206671511Y-202444391D01*
X206603335Y-202458704D01*
X206525378Y-202473609D01*
X206442305Y-202488307D01*
X206358783Y-202501996D01*
X206279477Y-202513877D01*
X206219839Y-202521836D01*
X206180927Y-202527531D01*
X206156198Y-202533204D01*
X206145802Y-202538817D01*
X206145453Y-202540037D01*
X206146251Y-202548244D01*
X206148581Y-202569999D01*
X206152345Y-202604428D01*
X206157444Y-202650655D01*
X206163783Y-202707807D01*
X206171262Y-202775009D01*
X206179785Y-202851387D01*
X206189254Y-202936065D01*
X206199572Y-203028170D01*
X206210640Y-203126826D01*
X206222361Y-203231160D01*
X206234637Y-203340296D01*
X206247157Y-203451449D01*
X206263678Y-203598053D01*
X206278654Y-203731022D01*
X206292159Y-203851144D01*
X206304270Y-203959207D01*
X206315063Y-204055999D01*
X206324613Y-204142310D01*
X206332997Y-204218926D01*
X206340290Y-204286636D01*
X206346568Y-204346228D01*
X206351909Y-204398491D01*
X206356386Y-204444212D01*
X206360077Y-204484180D01*
X206363057Y-204519184D01*
X206365402Y-204550010D01*
X206367189Y-204577448D01*
X206368492Y-204602285D01*
X206369389Y-204625310D01*
X206369955Y-204647312D01*
X206370265Y-204669077D01*
X206370397Y-204691395D01*
X206370425Y-204715053D01*
X206370425Y-204730645D01*
X206365952Y-204882864D01*
X206352440Y-205024047D01*
X206329744Y-205154624D01*
X206297723Y-205275029D01*
X206256234Y-205385690D01*
X206205132Y-205487042D01*
X206144277Y-205579513D01*
X206073524Y-205663537D01*
X206055215Y-205682332D01*
X205974728Y-205754107D01*
X205886113Y-205816518D01*
X205788761Y-205869791D01*
X205682067Y-205914154D01*
X205565423Y-205949832D01*
X205438221Y-205977052D01*
X205299856Y-205996041D01*
X205191139Y-206004855D01*
X205044110Y-206008310D01*
X204906209Y-206000511D01*
X204777360Y-205981426D01*
X204657485Y-205951023D01*
X204546509Y-205909269D01*
X204444354Y-205856133D01*
X204350945Y-205791583D01*
X204266204Y-205715587D01*
X204190056Y-205628113D01*
X204147860Y-205569207D01*
X204098419Y-205489014D01*
X204054782Y-205405228D01*
X204016556Y-205316473D01*
X203983348Y-205221374D01*
X203954764Y-205118557D01*
X203930411Y-205006647D01*
X203909894Y-204884269D01*
X203892821Y-204750049D01*
X203882017Y-204640535D01*
X203880199Y-204622017D01*
X203878744Y-204612735D01*
X203877604Y-204613508D01*
X203876733Y-204625153D01*
X203876084Y-204648488D01*
X203875609Y-204684333D01*
X203875262Y-204733504D01*
X203875134Y-204760278D01*
X203873900Y-205048659D01*
X203872722Y-205322864D01*
X203871598Y-205583233D01*
X203870527Y-205830105D01*
X203869507Y-206063818D01*
X203868536Y-206284713D01*
X203867612Y-206493128D01*
X203866734Y-206689401D01*
X203865900Y-206873873D01*
X203865107Y-207046881D01*
X203864355Y-207208765D01*
X203863642Y-207359865D01*
X203862965Y-207500518D01*
X203862323Y-207631064D01*
X203861714Y-207751843D01*
X203861137Y-207863192D01*
X203860589Y-207965452D01*
X203860069Y-208058960D01*
X203859574Y-208144057D01*
X203859105Y-208221080D01*
X203858657Y-208290370D01*
X203858231Y-208352265D01*
X203857823Y-208407104D01*
X203857432Y-208455226D01*
X203857057Y-208496971D01*
X203856695Y-208532676D01*
X203856345Y-208562682D01*
X203856006Y-208587327D01*
X203855674Y-208606950D01*
X203855349Y-208621890D01*
X203855029Y-208632487D01*
X203854811Y-208637407D01*
X203850799Y-208711793D01*
X203337421Y-208711793D01*
X203245474Y-208711721D01*
X203152531Y-208711514D01*
X203060453Y-208711184D01*
X202971105Y-208710743D01*
X202886350Y-208710204D01*
X202808049Y-208709579D01*
X202738067Y-208708880D01*
X202678265Y-208708120D01*
X202630507Y-208707311D01*
X202617848Y-208707038D01*
X202411653Y-208702284D01*
X202413953Y-208044824D01*
X202414202Y-207954027D01*
X202414365Y-207850367D01*
X202414445Y-207735493D01*
X202414443Y-207611057D01*
X202414363Y-207478709D01*
X202414207Y-207340099D01*
X202413977Y-207196878D01*
X202413678Y-207050697D01*
X202413310Y-206903206D01*
X202412877Y-206756054D01*
X202412381Y-206610894D01*
X202411825Y-206469375D01*
X202411249Y-206340755D01*
X202406244Y-205294146D01*
X202354520Y-205337215D01*
X202326936Y-205360369D01*
X202299363Y-205383822D01*
X202276690Y-205403408D01*
X202271766Y-205407738D01*
X202240735Y-205435193D01*
X202233784Y-206832193D01*
X202233067Y-206977424D01*
X202232369Y-207121001D01*
X202231694Y-207262056D01*
X202231046Y-207399720D01*
X202230428Y-207533127D01*
X202229844Y-207661406D01*
X202229298Y-207783691D01*
X202228794Y-207899113D01*
X202228336Y-208006804D01*
X202227926Y-208105896D01*
X202227570Y-208195520D01*
X202227270Y-208274809D01*
X202227031Y-208342894D01*
X202226856Y-208398907D01*
X202226749Y-208441980D01*
X202226714Y-208466864D01*
X202226596Y-208704535D01*
X201747625Y-208704535D01*
X201747625Y-207202307D01*
X201747612Y-207055757D01*
X201747577Y-206913108D01*
X201747518Y-206775035D01*
X201747439Y-206642213D01*
X201747339Y-206515318D01*
X201747220Y-206395025D01*
X201747083Y-206282009D01*
X201746929Y-206176946D01*
X201746760Y-206080510D01*
X201746577Y-205993377D01*
X201746380Y-205916223D01*
X201746171Y-205849723D01*
X201745951Y-205794552D01*
X201745722Y-205751385D01*
X201745483Y-205720897D01*
X201745238Y-205703765D01*
X201745057Y-205700078D01*
X201737763Y-205702527D01*
X201719215Y-205709304D01*
X201691720Y-205719550D01*
X201657579Y-205732410D01*
X201630757Y-205742586D01*
X201588453Y-205758497D01*
X201546455Y-205773972D01*
X201508569Y-205787629D01*
X201478602Y-205798087D01*
X201468225Y-205801541D01*
X201442645Y-205810264D01*
X201422563Y-205817927D01*
X201411959Y-205823001D01*
X201411560Y-205823318D01*
X201411269Y-205831788D01*
X201414163Y-205851884D01*
X201419785Y-205881183D01*
X201427681Y-205917259D01*
X201434895Y-205947606D01*
X201451856Y-206018969D01*
X201465497Y-206082429D01*
X201476161Y-206141038D01*
X201484192Y-206197844D01*
X201489933Y-206255899D01*
X201493728Y-206318253D01*
X201495920Y-206387956D01*
X201496854Y-206468059D01*
X201496946Y-206498364D01*
X201496930Y-206564112D01*
X201496596Y-206617835D01*
X201495820Y-206662020D01*
X201494476Y-206699154D01*
X201492438Y-206731726D01*
X201489580Y-206762223D01*
X201485778Y-206793133D01*
X201480906Y-206826943D01*
X201480110Y-206832193D01*
X201445242Y-207014671D01*
X201397205Y-207191151D01*
X201336065Y-207361479D01*
X201261891Y-207525502D01*
X201174751Y-207683067D01*
X201074711Y-207834023D01*
X200983909Y-207951785D01*
X200949217Y-207991789D01*
X200906356Y-208037840D01*
X200858078Y-208087253D01*
X200807133Y-208137343D01*
X200756272Y-208185423D01*
X200708247Y-208228810D01*
X200665809Y-208264818D01*
X200651796Y-208275948D01*
X200504346Y-208381494D01*
X200351822Y-208473443D01*
X200194199Y-208551802D01*
X200031455Y-208616581D01*
X199863566Y-208667790D01*
X199690508Y-208705437D01*
X199512259Y-208729532D01*
X199469245Y-208733257D01*
X199390118Y-208737752D01*
X199309191Y-208739393D01*
X199232677Y-208738117D01*
X199193110Y-208736039D01*
X199018477Y-208718056D01*
X198851436Y-208688437D01*
X198690337Y-208646731D01*
X198533526Y-208592490D01*
X198379351Y-208525264D01*
X198333139Y-208502383D01*
X198265391Y-208465816D01*
X198192370Y-208422743D01*
X198118206Y-208375820D01*
X198047024Y-208327706D01*
X197982955Y-208281057D01*
X197953375Y-208257902D01*
X197829484Y-208149133D01*
X197712206Y-208028626D01*
X197603003Y-207898210D01*
X197503340Y-207759720D01*
X197414683Y-207614986D01*
X197366031Y-207523213D01*
X197305842Y-207394199D01*
X197255500Y-207267167D01*
X197213948Y-207138653D01*
X197180127Y-207005194D01*
X197152980Y-206863326D01*
X197141647Y-206788650D01*
X197137204Y-206746935D01*
X197133725Y-206694040D01*
X197131217Y-206632866D01*
X197129685Y-206566310D01*
X197129134Y-206497270D01*
X197129220Y-206483734D01*
X198643536Y-206483734D01*
X198644378Y-206527393D01*
X198652715Y-206674203D01*
X198668079Y-206815192D01*
X198690158Y-206949670D01*
X198718637Y-207076950D01*
X198753203Y-207196343D01*
X198793541Y-207307160D01*
X198839339Y-207408714D01*
X198890283Y-207500316D01*
X198946060Y-207581277D01*
X199006354Y-207650910D01*
X199070854Y-207708527D01*
X199139244Y-207753438D01*
X199211213Y-207784956D01*
X199218510Y-207787319D01*
X199249014Y-207793375D01*
X199288414Y-207796332D01*
X199331435Y-207796230D01*
X199372804Y-207793107D01*
X199407246Y-207787003D01*
X199411322Y-207785882D01*
X199474471Y-207760429D01*
X199537254Y-207721574D01*
X199598577Y-207670414D01*
X199657344Y-207608043D01*
X199712459Y-207535555D01*
X199762827Y-207454045D01*
X199784623Y-207412782D01*
X199833793Y-207304568D01*
X199875913Y-207189673D01*
X199911461Y-207066420D01*
X199940912Y-206933131D01*
X199964743Y-206788130D01*
X199967277Y-206769647D01*
X199971422Y-206730869D01*
X199974747Y-206683668D01*
X199977274Y-206629865D01*
X199979020Y-206571280D01*
X199980008Y-206509732D01*
X199980257Y-206447041D01*
X199979787Y-206385027D01*
X199978618Y-206325510D01*
X199976771Y-206270311D01*
X199974265Y-206221249D01*
X199971121Y-206180144D01*
X199967360Y-206148815D01*
X199963000Y-206129084D01*
X199960121Y-206123584D01*
X199952091Y-206123062D01*
X199932058Y-206123825D01*
X199902463Y-206125722D01*
X199865744Y-206128601D01*
X199834304Y-206131379D01*
X199719667Y-206141464D01*
X199608956Y-206150093D01*
X199499356Y-206157411D01*
X199388053Y-206163566D01*
X199272231Y-206168705D01*
X199149076Y-206172975D01*
X199015772Y-206176523D01*
X198937389Y-206178214D01*
X198875750Y-206179555D01*
X198818735Y-206181001D01*
X198767959Y-206182494D01*
X198725035Y-206183979D01*
X198691579Y-206185398D01*
X198669204Y-206186696D01*
X198659524Y-206187815D01*
X198659286Y-206187941D01*
X198656058Y-206198092D01*
X198652989Y-206220474D01*
X198650179Y-206252803D01*
X198647730Y-206292796D01*
X198645740Y-206338169D01*
X198644311Y-206386638D01*
X198643543Y-206435921D01*
X198643536Y-206483734D01*
X197129220Y-206483734D01*
X197129570Y-206428646D01*
X197130998Y-206363334D01*
X197133424Y-206304236D01*
X197136853Y-206254247D01*
X197140571Y-206221015D01*
X197150761Y-206150495D01*
X197132350Y-206146940D01*
X197119937Y-206145701D01*
X197095364Y-206144201D01*
X197060982Y-206142547D01*
X197019139Y-206140847D01*
X196972187Y-206139211D01*
X196948839Y-206138489D01*
X196783739Y-206133593D01*
X196783739Y-208690021D01*
X196362865Y-208690021D01*
X196361030Y-207396435D01*
X196359196Y-206102850D01*
X196273786Y-206096336D01*
X196240231Y-206094024D01*
X196212374Y-206092573D01*
X196193158Y-206092102D01*
X196185548Y-206092708D01*
X196185221Y-206100150D01*
X196184847Y-206121377D01*
X196184429Y-206155661D01*
X196183972Y-206202273D01*
X196183480Y-206260483D01*
X196182959Y-206329563D01*
X196182412Y-206408784D01*
X196181844Y-206497418D01*
X196181260Y-206594734D01*
X196180665Y-206700006D01*
X196180063Y-206812502D01*
X196179458Y-206931496D01*
X196178855Y-207056257D01*
X196178259Y-207186057D01*
X196177675Y-207320168D01*
X196177371Y-207392807D01*
X196172022Y-208690021D01*
X194722710Y-208690021D01*
X194722636Y-206946493D01*
X194722621Y-206756272D01*
X194722592Y-206579908D01*
X194722543Y-206416742D01*
X194722470Y-206266119D01*
X194722368Y-206127378D01*
X194722233Y-205999864D01*
X194722173Y-205958537D01*
X198692368Y-205958537D01*
X198692368Y-205976887D01*
X198882868Y-205972458D01*
X198947118Y-205970817D01*
X199018550Y-205968745D01*
X199092150Y-205966403D01*
X199162908Y-205963954D01*
X199225812Y-205961558D01*
X199243910Y-205960811D01*
X199313580Y-205957626D01*
X199385832Y-205953893D01*
X199459150Y-205949725D01*
X199532022Y-205945233D01*
X199602932Y-205940532D01*
X199670367Y-205935734D01*
X199732812Y-205930951D01*
X199788753Y-205926297D01*
X199836677Y-205921884D01*
X199875069Y-205917826D01*
X199902414Y-205914235D01*
X199917199Y-205911224D01*
X199918875Y-205910504D01*
X199921314Y-205900863D01*
X199918850Y-205878984D01*
X199911793Y-205846174D01*
X199900456Y-205803742D01*
X199885149Y-205752994D01*
X199871027Y-205709591D01*
X199830123Y-205600112D01*
X199784189Y-205500471D01*
X199733732Y-205411167D01*
X199679260Y-205332698D01*
X199621279Y-205265560D01*
X199560297Y-205210252D01*
X199496821Y-205167271D01*
X199431359Y-205137115D01*
X199364419Y-205120281D01*
X199296506Y-205117268D01*
X199269875Y-205119945D01*
X199206821Y-205133734D01*
X199148210Y-205157230D01*
X199091873Y-205191662D01*
X199035643Y-205238258D01*
X199001522Y-205272075D01*
X198934361Y-205352136D01*
X198873425Y-205445138D01*
X198818825Y-205550858D01*
X198770672Y-205669075D01*
X198729075Y-205799566D01*
X198717209Y-205843719D01*
X198708027Y-205880680D01*
X198700378Y-205913961D01*
X198694956Y-205940351D01*
X198692456Y-205956638D01*
X198692368Y-205958537D01*
X194722173Y-205958537D01*
X194722061Y-205882918D01*
X194721847Y-205775883D01*
X194721586Y-205678101D01*
X194721275Y-205588915D01*
X194720907Y-205507666D01*
X194720480Y-205433697D01*
X194719989Y-205366350D01*
X194719429Y-205304969D01*
X194718795Y-205248894D01*
X194718083Y-205197469D01*
X194717289Y-205150036D01*
X194716408Y-205105937D01*
X194715435Y-205064515D01*
X194714367Y-205025111D01*
X194713198Y-204987069D01*
X194711925Y-204949730D01*
X194710542Y-204912437D01*
X194709045Y-204874532D01*
X194708381Y-204858250D01*
X194692735Y-204400844D01*
X194683733Y-203951457D01*
X194681363Y-203510836D01*
X194685613Y-203079725D01*
X194693468Y-202775370D01*
X194904139Y-202775370D01*
X195537325Y-202777224D01*
X196170510Y-202779078D01*
X196172341Y-204337550D01*
X196172554Y-204514866D01*
X196172761Y-204678238D01*
X196172969Y-204828234D01*
X196173183Y-204965424D01*
X196173408Y-205090376D01*
X196173648Y-205203661D01*
X196173911Y-205305847D01*
X196174200Y-205397503D01*
X196174522Y-205479200D01*
X196174881Y-205551506D01*
X196175282Y-205614991D01*
X196175732Y-205670223D01*
X196176236Y-205717773D01*
X196176797Y-205758209D01*
X196177423Y-205792100D01*
X196178119Y-205820017D01*
X196178888Y-205842528D01*
X196179738Y-205860202D01*
X196180673Y-205873610D01*
X196181698Y-205883319D01*
X196182819Y-205889900D01*
X196184041Y-205893922D01*
X196185370Y-205895953D01*
X196186810Y-205896564D01*
X196186856Y-205896567D01*
X196196186Y-205896983D01*
X196218737Y-205897996D01*
X196253229Y-205899548D01*
X196298386Y-205901582D01*
X196352926Y-205904040D01*
X196415572Y-205906864D01*
X196485045Y-205909997D01*
X196560067Y-205913381D01*
X196639357Y-205916958D01*
X196649482Y-205917415D01*
X196730443Y-205921047D01*
X196808251Y-205924498D01*
X196881497Y-205927708D01*
X196948769Y-205930616D01*
X197008658Y-205933164D01*
X197059755Y-205935290D01*
X197100647Y-205936935D01*
X197129927Y-205938039D01*
X197146182Y-205938542D01*
X197146596Y-205938549D01*
X197193768Y-205939382D01*
X197217827Y-205854201D01*
X197266993Y-205704543D01*
X197329386Y-205555351D01*
X197403804Y-205408623D01*
X197489040Y-205266361D01*
X197583891Y-205130562D01*
X197687152Y-205003227D01*
X197797617Y-204886353D01*
X197805804Y-204878408D01*
X197939990Y-204758760D01*
X198081440Y-204651653D01*
X198229935Y-204557194D01*
X198385255Y-204475486D01*
X198547178Y-204406637D01*
X198715486Y-204350751D01*
X198889959Y-204307934D01*
X199051596Y-204280724D01*
X199109475Y-204274779D01*
X199177944Y-204270640D01*
X199253190Y-204268309D01*
X199331401Y-204267789D01*
X199408764Y-204269083D01*
X199481467Y-204272194D01*
X199545697Y-204277123D01*
X199574110Y-204280358D01*
X199753729Y-204310714D01*
X199926934Y-204354049D01*
X200093609Y-204410307D01*
X200253639Y-204479432D01*
X200406908Y-204561369D01*
X200553301Y-204656063D01*
X200692702Y-204763457D01*
X200820141Y-204878745D01*
X200934942Y-204997968D01*
X201037004Y-205119625D01*
X201128103Y-205246188D01*
X201210016Y-205380130D01*
X201284517Y-205523924D01*
X201286560Y-205528214D01*
X201333653Y-205627323D01*
X201437225Y-205590911D01*
X201600557Y-205530237D01*
X201764414Y-205463112D01*
X201925590Y-205391011D01*
X202080879Y-205315410D01*
X202227078Y-205237786D01*
X202320939Y-205183842D01*
X202411653Y-205129853D01*
X202415995Y-204585837D01*
X202416689Y-204494578D01*
X202417418Y-204391026D01*
X202418168Y-204277400D01*
X202418926Y-204155922D01*
X202419680Y-204028813D01*
X202420417Y-203898293D01*
X202421125Y-203766582D01*
X202421791Y-203635901D01*
X202422114Y-203568418D01*
X203881225Y-203568418D01*
X203881225Y-204010667D01*
X203906380Y-203988581D01*
X203962836Y-203945233D01*
X204029558Y-203904287D01*
X204102300Y-203867933D01*
X204176815Y-203838363D01*
X204227555Y-203822925D01*
X204264130Y-203814203D01*
X204297597Y-203808528D01*
X204333245Y-203805286D01*
X204376365Y-203803860D01*
X204392853Y-203803685D01*
X204493963Y-203808914D01*
X204588245Y-203826432D01*
X204677438Y-203856812D01*
X204763282Y-203900626D01*
X204835740Y-203949477D01*
X204884314Y-203987506D01*
X204921209Y-204020950D01*
X204947548Y-204052066D01*
X204964455Y-204083109D01*
X204973052Y-204116334D01*
X204974463Y-204153997D01*
X204969809Y-204198353D01*
X204967323Y-204213746D01*
X204959617Y-204252139D01*
X204949592Y-204293128D01*
X204939148Y-204329084D01*
X204936922Y-204335735D01*
X204918250Y-204409586D01*
X204910053Y-204490603D01*
X204911942Y-204576327D01*
X204923528Y-204664301D01*
X204944423Y-204752065D01*
X204974237Y-204837160D01*
X205012581Y-204917130D01*
X205034820Y-204954407D01*
X205054805Y-204983902D01*
X205070689Y-205001915D01*
X205085072Y-205009837D01*
X205100551Y-205009061D01*
X205119725Y-205000980D01*
X205120742Y-205000453D01*
X205151549Y-204977161D01*
X205177641Y-204941730D01*
X205199011Y-204894067D01*
X205215653Y-204834076D01*
X205227561Y-204761663D01*
X205234730Y-204676734D01*
X205237152Y-204579195D01*
X205234822Y-204468951D01*
X205227733Y-204345907D01*
X205215880Y-204209970D01*
X205199257Y-204061044D01*
X205177857Y-203899036D01*
X205151673Y-203723851D01*
X205120701Y-203535394D01*
X205084934Y-203333572D01*
X205044366Y-203118289D01*
X204998990Y-202889452D01*
X204976812Y-202781115D01*
X204966588Y-202731880D01*
X204957154Y-202686914D01*
X204948957Y-202648317D01*
X204942446Y-202618190D01*
X204938069Y-202598633D01*
X204936470Y-202592207D01*
X204935060Y-202589777D01*
X204931782Y-202587678D01*
X204925647Y-202585885D01*
X204915663Y-202584374D01*
X204900840Y-202583121D01*
X204880186Y-202582102D01*
X204852711Y-202581294D01*
X204817424Y-202580672D01*
X204773335Y-202580212D01*
X204719452Y-202579890D01*
X204654785Y-202579683D01*
X204578343Y-202579566D01*
X204489135Y-202579516D01*
X204411685Y-202579507D01*
X203890838Y-202579507D01*
X203886031Y-202852837D01*
X203885113Y-202913210D01*
X203884252Y-202985584D01*
X203883466Y-203067445D01*
X203882771Y-203156280D01*
X203882184Y-203249575D01*
X203881722Y-203344818D01*
X203881402Y-203439494D01*
X203881241Y-203531091D01*
X203881225Y-203568418D01*
X202422114Y-203568418D01*
X202422402Y-203508471D01*
X202422946Y-203386513D01*
X202423252Y-203312478D01*
X202426168Y-202583135D01*
X201116253Y-202579507D01*
X199806339Y-202575878D01*
X199773682Y-202556630D01*
X199734494Y-202525233D01*
X199703513Y-202482567D01*
X199681444Y-202429788D01*
X199672121Y-202390078D01*
X199670287Y-202372326D01*
X199668770Y-202341994D01*
X199667567Y-202298813D01*
X199666675Y-202242517D01*
X199666092Y-202172839D01*
X199665815Y-202089511D01*
X199665840Y-201992267D01*
X199666165Y-201880838D01*
X199666280Y-201853793D01*
X199668453Y-201363935D01*
X199685024Y-201322954D01*
X199705605Y-201283492D01*
X199732994Y-201247079D01*
X199763713Y-201217827D01*
X199786191Y-201203381D01*
X199790795Y-201201327D01*
X199796421Y-201199484D01*
X199803861Y-201197836D01*
X199813906Y-201196368D01*
X199827348Y-201195065D01*
X199844976Y-201193912D01*
X199867583Y-201192892D01*
X199895959Y-201191992D01*
X199930896Y-201191195D01*
X199973185Y-201190487D01*
X200023616Y-201189852D01*
X200082982Y-201189274D01*
X200152072Y-201188739D01*
X200231679Y-201188231D01*
X200322594Y-201187736D01*
X200425606Y-201187236D01*
X200541509Y-201186718D01*
X200671092Y-201186166D01*
X200678421Y-201186135D01*
X201543246Y-201182507D01*
X201115084Y-199995964D01*
X201061179Y-199846565D01*
X201011990Y-199710186D01*
X200967299Y-199586198D01*
X200926887Y-199473971D01*
X200890539Y-199372875D01*
X200858034Y-199282280D01*
X200829156Y-199201558D01*
X200803687Y-199130077D01*
X200781408Y-199067209D01*
X200762103Y-199012324D01*
X200745553Y-198964791D01*
X200731540Y-198923982D01*
X200719847Y-198889267D01*
X200710255Y-198860015D01*
X200702548Y-198835597D01*
X200696506Y-198815384D01*
X200691913Y-198798746D01*
X200688550Y-198785052D01*
X200686199Y-198773674D01*
X200684644Y-198763981D01*
X200683665Y-198755345D01*
X200683045Y-198747134D01*
X200683038Y-198747022D01*
X200683789Y-198687012D01*
X200694409Y-198630997D01*
X200715755Y-198577104D01*
X200748685Y-198523457D01*
X200794055Y-198468181D01*
X200825364Y-198435669D01*
X200891780Y-198376161D01*
X200969214Y-198318579D01*
X201058218Y-198262632D01*
X201159344Y-198208030D01*
X201273144Y-198154481D01*
X201400169Y-198101696D01*
X201540970Y-198049383D01*
X201591596Y-198031817D01*
X201744639Y-197982739D01*
X201909667Y-197935671D01*
X202084225Y-197891126D01*
X202265863Y-197849617D01*
X202452127Y-197811657D01*
X202640565Y-197777759D01*
X202828723Y-197748436D01*
X203014149Y-197724203D01*
X203114427Y-197713194D01*
X203164057Y-197708135D01*
X203138838Y-197743521D01*
X203107831Y-197792653D01*
X203075949Y-197853603D01*
X203044307Y-197923810D01*
X203014018Y-198000714D01*
X202986199Y-198081755D01*
X202973575Y-198122989D01*
X202935315Y-198271649D01*
X202904222Y-198431971D01*
X202880338Y-198602970D01*
X202863705Y-198783665D01*
X202854367Y-198973071D01*
X202852366Y-199170205D01*
X202857742Y-199374083D01*
X202870540Y-199583722D01*
X202890802Y-199798139D01*
X202898594Y-199865335D01*
X202923487Y-200051454D01*
X202954116Y-200247124D01*
X202989818Y-200448867D01*
X203029932Y-200653207D01*
X203073795Y-200856667D01*
X203120744Y-201055768D01*
X203139804Y-201131707D01*
X203152784Y-201182507D01*
X203242054Y-201184551D01*
X203331323Y-201186595D01*
X203327896Y-201162780D01*
X203325311Y-201149388D01*
X203319812Y-201124062D01*
X203311897Y-201088975D01*
X203302060Y-201046300D01*
X203290797Y-200998213D01*
X203280281Y-200953907D01*
X203209814Y-200637305D01*
X203150661Y-200324195D01*
X203102100Y-200010194D01*
X203063411Y-199690920D01*
X203049847Y-199553278D01*
X203045962Y-199502426D01*
X203042524Y-199440496D01*
X203039568Y-199369936D01*
X203037130Y-199293193D01*
X203035243Y-199212714D01*
X203033943Y-199130945D01*
X203033265Y-199050334D01*
X203033250Y-198995613D01*
X204115980Y-198995613D01*
X204124849Y-199067250D01*
X204145596Y-199136817D01*
X204178256Y-199202533D01*
X204222861Y-199262616D01*
X204237028Y-199277713D01*
X204294430Y-199326083D01*
X204358033Y-199361572D01*
X204426803Y-199383877D01*
X204499705Y-199392700D01*
X204575706Y-199387741D01*
X204600633Y-199383169D01*
X204667346Y-199361924D01*
X204727924Y-199328665D01*
X204781412Y-199284937D01*
X204826857Y-199232284D01*
X204863302Y-199172251D01*
X204889793Y-199106382D01*
X204905376Y-199036223D01*
X204909094Y-198963317D01*
X204901484Y-198896507D01*
X204880367Y-198822064D01*
X204847324Y-198755536D01*
X204801698Y-198695687D01*
X204785399Y-198678793D01*
X204727777Y-198630499D01*
X204666477Y-198596011D01*
X204600317Y-198574838D01*
X204528114Y-198566487D01*
X204515057Y-198566307D01*
X204439732Y-198572428D01*
X204371178Y-198591118D01*
X204308118Y-198622869D01*
X204249273Y-198668172D01*
X204248621Y-198668769D01*
X204198608Y-198724019D01*
X204160303Y-198786111D01*
X204133741Y-198853262D01*
X204118955Y-198923690D01*
X204115980Y-198995613D01*
X203033250Y-198995613D01*
X203033243Y-198973329D01*
X203033913Y-198902376D01*
X203035309Y-198839921D01*
X203037465Y-198788414D01*
X203038690Y-198769507D01*
X203055255Y-198598236D01*
X203078488Y-198439605D01*
X203108500Y-198293305D01*
X203145401Y-198159026D01*
X203189303Y-198036459D01*
X203240317Y-197925295D01*
X203298554Y-197825225D01*
X203364126Y-197735938D01*
X203437143Y-197657127D01*
X203439411Y-197654958D01*
X203521114Y-197584991D01*
X203615971Y-197517839D01*
X203722815Y-197453965D01*
X203840477Y-197393832D01*
X203967790Y-197337902D01*
X204103585Y-197286639D01*
X204246695Y-197240505D01*
X204395952Y-197199962D01*
X204550187Y-197165475D01*
X204708233Y-197137506D01*
X204766596Y-197129017D01*
X204825733Y-197122282D01*
X204894158Y-197116758D01*
X204968519Y-197112536D01*
X205045459Y-197109706D01*
X205121627Y-197108356D01*
X205193668Y-197108576D01*
X205258229Y-197110457D01*
X205311954Y-197114087D01*
X205314856Y-197114372D01*
X205421620Y-197128463D01*
X205521027Y-197148359D01*
X205611147Y-197173569D01*
X205690050Y-197203605D01*
X205717817Y-197216748D01*
X205740386Y-197227541D01*
X205757369Y-197234538D01*
X205765204Y-197236277D01*
X205765270Y-197236224D01*
X205765847Y-197228313D01*
X205765419Y-197208578D01*
X205764092Y-197179663D01*
X205761974Y-197144215D01*
X205760922Y-197128706D01*
X205743843Y-196961642D01*
X205716621Y-196804364D01*
X205679134Y-196656759D01*
X205631257Y-196518714D01*
X205572867Y-196390119D01*
X205503841Y-196270860D01*
X205424055Y-196160826D01*
X205333385Y-196059904D01*
X205231709Y-195967982D01*
X205118902Y-195884949D01*
X204994841Y-195810691D01*
X204859403Y-195745098D01*
X204712464Y-195688056D01*
X204553901Y-195639454D01*
X204383590Y-195599179D01*
X204201407Y-195567119D01*
X204015482Y-195543993D01*
X203939290Y-195537191D01*
X203852545Y-195531060D01*
X203757641Y-195525660D01*
X203656972Y-195521051D01*
X203552933Y-195517293D01*
X203447917Y-195514446D01*
X203344319Y-195512571D01*
X203244533Y-195511727D01*
X203150953Y-195511975D01*
X203065975Y-195513375D01*
X202991991Y-195515987D01*
X202963196Y-195517557D01*
X202721894Y-195538359D01*
X202473501Y-195571119D01*
X202218695Y-195615533D01*
X201958155Y-195671298D01*
X201692558Y-195738114D01*
X201422584Y-195815675D01*
X201148911Y-195903681D01*
X200872216Y-196001828D01*
X200593179Y-196109815D01*
X200312477Y-196227337D01*
X200030789Y-196354093D01*
X199748793Y-196489780D01*
X199467168Y-196634096D01*
X199186592Y-196786737D01*
X198907743Y-196947402D01*
X198631300Y-197115787D01*
X198357941Y-197291590D01*
X198088344Y-197474509D01*
X197823187Y-197664240D01*
X197563149Y-197860482D01*
X197371547Y-198012029D01*
X197166345Y-198182247D01*
X196964072Y-198359073D01*
X196766699Y-198540622D01*
X196576192Y-198725007D01*
X196394522Y-198910342D01*
X196223656Y-199094742D01*
X196126461Y-199204935D01*
X195960872Y-199403628D01*
X195807203Y-199602818D01*
X195665671Y-199802094D01*
X195536498Y-200001043D01*
X195419902Y-200199252D01*
X195316104Y-200396309D01*
X195225323Y-200591801D01*
X195147778Y-200785316D01*
X195083691Y-200976441D01*
X195033279Y-201164764D01*
X195002660Y-201314754D01*
X194995513Y-201357585D01*
X194988887Y-201400839D01*
X194983460Y-201439850D01*
X194979913Y-201469948D01*
X194979590Y-201473354D01*
X194974571Y-201528734D01*
X195010975Y-201502580D01*
X195065634Y-201467910D01*
X195132832Y-201432992D01*
X195210628Y-201398566D01*
X195297081Y-201365370D01*
X195390249Y-201334144D01*
X195488192Y-201305628D01*
X195588968Y-201280562D01*
X195600825Y-201277895D01*
X195680882Y-201261698D01*
X195761509Y-201248384D01*
X195840769Y-201238079D01*
X195916730Y-201230908D01*
X195987457Y-201226998D01*
X196051016Y-201226473D01*
X196105475Y-201229459D01*
X196148897Y-201236081D01*
X196166866Y-201241140D01*
X196194856Y-201253346D01*
X196210767Y-201266711D01*
X196214500Y-201273221D01*
X196215911Y-201281864D01*
X196216978Y-201300676D01*
X196217699Y-201330117D01*
X196218072Y-201370648D01*
X196218095Y-201422729D01*
X196217767Y-201486821D01*
X196217086Y-201563385D01*
X196216051Y-201652881D01*
X196214659Y-201755771D01*
X196212908Y-201872513D01*
X196212057Y-201926364D01*
X196210499Y-202021075D01*
X196208934Y-202111593D01*
X196207383Y-202196872D01*
X196205870Y-202275866D01*
X196204417Y-202347528D01*
X196203046Y-202410811D01*
X196201781Y-202464670D01*
X196200643Y-202508058D01*
X196199655Y-202539928D01*
X196198840Y-202559234D01*
X196198293Y-202564993D01*
X196190667Y-202565557D01*
X196169569Y-202566146D01*
X196136040Y-202566751D01*
X196091122Y-202567362D01*
X196035857Y-202567968D01*
X195971287Y-202568561D01*
X195898453Y-202569131D01*
X195818397Y-202569668D01*
X195732161Y-202570163D01*
X195640787Y-202570605D01*
X195554001Y-202570954D01*
X194913295Y-202573287D01*
X194908780Y-202610868D01*
X194906626Y-202636413D01*
X194905013Y-202670006D01*
X194904232Y-202705186D01*
X194904202Y-202711910D01*
X194904139Y-202775370D01*
X194693468Y-202775370D01*
X194696475Y-202658871D01*
X194713936Y-202249020D01*
X194737985Y-201850916D01*
X194755579Y-201617935D01*
X194769953Y-201468455D01*
X194788116Y-201329858D01*
X194810730Y-201198855D01*
X194838455Y-201072154D01*
X194871952Y-200946467D01*
X194911883Y-200818503D01*
X194922529Y-200786993D01*
X194998700Y-200584463D01*
X195088970Y-200380119D01*
X195193079Y-200174273D01*
X195310769Y-199967236D01*
X195441780Y-199759319D01*
X195585853Y-199550831D01*
X195742728Y-199342086D01*
X195912147Y-199133392D01*
X196093851Y-198925062D01*
X196287579Y-198717406D01*
X196493074Y-198510736D01*
X196710075Y-198305361D01*
X196938323Y-198101594D01*
X197177560Y-197899745D01*
X197427526Y-197700124D01*
X197614682Y-197557442D01*
X197879224Y-197364857D01*
X198148916Y-197178760D01*
X198423021Y-196999474D01*
X198700801Y-196827319D01*
X198981519Y-196662617D01*
X199264436Y-196505691D01*
X199548814Y-196356861D01*
X199833917Y-196216450D01*
X200119006Y-196084779D01*
X200403343Y-195962169D01*
X200686191Y-195848943D01*
X200966813Y-195745422D01*
X201244470Y-195651928D01*
X201518424Y-195568782D01*
X201787938Y-195496306D01*
X202052275Y-195434822D01*
X202310696Y-195384652D01*
X202562464Y-195346116D01*
X202731083Y-195326563D01*
X202856796Y-195316177D01*
X202993957Y-195308827D01*
X203139833Y-195304452D01*
X203291691Y-195302994D01*
X203446800Y-195304393D01*
G04 #@! TO.C,S31*
D13*
X195797548Y-229775468D02*
X195654691Y-229823087D01*
X195416595Y-229823087D01*
X195321357Y-229775468D01*
X195273738Y-229727849D01*
X195226119Y-229632611D01*
X195226119Y-229537373D01*
X195273738Y-229442135D01*
X195321357Y-229394516D01*
X195416595Y-229346897D01*
X195607072Y-229299278D01*
X195702310Y-229251659D01*
X195749929Y-229204040D01*
X195797548Y-229108802D01*
X195797548Y-229013564D01*
X195749929Y-228918326D01*
X195702310Y-228870707D01*
X195607072Y-228823087D01*
X195368976Y-228823087D01*
X195226119Y-228870707D01*
X194892786Y-228823087D02*
X194273738Y-228823087D01*
X194607072Y-229204040D01*
X194464214Y-229204040D01*
X194368976Y-229251659D01*
X194321357Y-229299278D01*
X194273738Y-229394516D01*
X194273738Y-229632611D01*
X194321357Y-229727849D01*
X194368976Y-229775468D01*
X194464214Y-229823087D01*
X194749929Y-229823087D01*
X194845167Y-229775468D01*
X194892786Y-229727849D01*
X193321357Y-229823087D02*
X193892786Y-229823087D01*
X193607072Y-229823087D02*
X193607072Y-228823087D01*
X193702310Y-228965945D01*
X193797548Y-229061183D01*
X193892786Y-229108802D01*
G04 #@! TO.C,S30*
X176117548Y-237365468D02*
X175974691Y-237413087D01*
X175736595Y-237413087D01*
X175641357Y-237365468D01*
X175593738Y-237317849D01*
X175546119Y-237222611D01*
X175546119Y-237127373D01*
X175593738Y-237032135D01*
X175641357Y-236984516D01*
X175736595Y-236936897D01*
X175927072Y-236889278D01*
X176022310Y-236841659D01*
X176069929Y-236794040D01*
X176117548Y-236698802D01*
X176117548Y-236603564D01*
X176069929Y-236508326D01*
X176022310Y-236460707D01*
X175927072Y-236413087D01*
X175688976Y-236413087D01*
X175546119Y-236460707D01*
X175212786Y-236413087D02*
X174593738Y-236413087D01*
X174927072Y-236794040D01*
X174784214Y-236794040D01*
X174688976Y-236841659D01*
X174641357Y-236889278D01*
X174593738Y-236984516D01*
X174593738Y-237222611D01*
X174641357Y-237317849D01*
X174688976Y-237365468D01*
X174784214Y-237413087D01*
X175069929Y-237413087D01*
X175165167Y-237365468D01*
X175212786Y-237317849D01*
X173974691Y-236413087D02*
X173879453Y-236413087D01*
X173784214Y-236460707D01*
X173736595Y-236508326D01*
X173688976Y-236603564D01*
X173641357Y-236794040D01*
X173641357Y-237032135D01*
X173688976Y-237222611D01*
X173736595Y-237317849D01*
X173784214Y-237365468D01*
X173879453Y-237413087D01*
X173974691Y-237413087D01*
X174069929Y-237365468D01*
X174117548Y-237317849D01*
X174165167Y-237222611D01*
X174212786Y-237032135D01*
X174212786Y-236794040D01*
X174165167Y-236603564D01*
X174117548Y-236508326D01*
X174069929Y-236460707D01*
X173974691Y-236413087D01*
G04 #@! TO.C,S29*
X197187548Y-253345468D02*
X197044691Y-253393087D01*
X196806595Y-253393087D01*
X196711357Y-253345468D01*
X196663738Y-253297849D01*
X196616119Y-253202611D01*
X196616119Y-253107373D01*
X196663738Y-253012135D01*
X196711357Y-252964516D01*
X196806595Y-252916897D01*
X196997072Y-252869278D01*
X197092310Y-252821659D01*
X197139929Y-252774040D01*
X197187548Y-252678802D01*
X197187548Y-252583564D01*
X197139929Y-252488326D01*
X197092310Y-252440707D01*
X196997072Y-252393087D01*
X196758976Y-252393087D01*
X196616119Y-252440707D01*
X196235167Y-252488326D02*
X196187548Y-252440707D01*
X196092310Y-252393087D01*
X195854214Y-252393087D01*
X195758976Y-252440707D01*
X195711357Y-252488326D01*
X195663738Y-252583564D01*
X195663738Y-252678802D01*
X195711357Y-252821659D01*
X196282786Y-253393087D01*
X195663738Y-253393087D01*
X195187548Y-253393087D02*
X194997072Y-253393087D01*
X194901833Y-253345468D01*
X194854214Y-253297849D01*
X194758976Y-253154992D01*
X194711357Y-252964516D01*
X194711357Y-252583564D01*
X194758976Y-252488326D01*
X194806595Y-252440707D01*
X194901833Y-252393087D01*
X195092310Y-252393087D01*
X195187548Y-252440707D01*
X195235167Y-252488326D01*
X195282786Y-252583564D01*
X195282786Y-252821659D01*
X195235167Y-252916897D01*
X195187548Y-252964516D01*
X195092310Y-253012135D01*
X194901833Y-253012135D01*
X194806595Y-252964516D01*
X194758976Y-252916897D01*
X194711357Y-252821659D01*
G04 #@! TO.C,S28*
X175527548Y-258525468D02*
X175384691Y-258573087D01*
X175146595Y-258573087D01*
X175051357Y-258525468D01*
X175003738Y-258477849D01*
X174956119Y-258382611D01*
X174956119Y-258287373D01*
X175003738Y-258192135D01*
X175051357Y-258144516D01*
X175146595Y-258096897D01*
X175337072Y-258049278D01*
X175432310Y-258001659D01*
X175479929Y-257954040D01*
X175527548Y-257858802D01*
X175527548Y-257763564D01*
X175479929Y-257668326D01*
X175432310Y-257620707D01*
X175337072Y-257573087D01*
X175098976Y-257573087D01*
X174956119Y-257620707D01*
X174575167Y-257668326D02*
X174527548Y-257620707D01*
X174432310Y-257573087D01*
X174194214Y-257573087D01*
X174098976Y-257620707D01*
X174051357Y-257668326D01*
X174003738Y-257763564D01*
X174003738Y-257858802D01*
X174051357Y-258001659D01*
X174622786Y-258573087D01*
X174003738Y-258573087D01*
X173432310Y-258001659D02*
X173527548Y-257954040D01*
X173575167Y-257906421D01*
X173622786Y-257811183D01*
X173622786Y-257763564D01*
X173575167Y-257668326D01*
X173527548Y-257620707D01*
X173432310Y-257573087D01*
X173241833Y-257573087D01*
X173146595Y-257620707D01*
X173098976Y-257668326D01*
X173051357Y-257763564D01*
X173051357Y-257811183D01*
X173098976Y-257906421D01*
X173146595Y-257954040D01*
X173241833Y-258001659D01*
X173432310Y-258001659D01*
X173527548Y-258049278D01*
X173575167Y-258096897D01*
X173622786Y-258192135D01*
X173622786Y-258382611D01*
X173575167Y-258477849D01*
X173527548Y-258525468D01*
X173432310Y-258573087D01*
X173241833Y-258573087D01*
X173146595Y-258525468D01*
X173098976Y-258477849D01*
X173051357Y-258382611D01*
X173051357Y-258192135D01*
X173098976Y-258096897D01*
X173146595Y-258049278D01*
X173241833Y-258001659D01*
G04 #@! TO.C,S27*
X186557548Y-276395468D02*
X186414691Y-276443087D01*
X186176595Y-276443087D01*
X186081357Y-276395468D01*
X186033738Y-276347849D01*
X185986119Y-276252611D01*
X185986119Y-276157373D01*
X186033738Y-276062135D01*
X186081357Y-276014516D01*
X186176595Y-275966897D01*
X186367072Y-275919278D01*
X186462310Y-275871659D01*
X186509929Y-275824040D01*
X186557548Y-275728802D01*
X186557548Y-275633564D01*
X186509929Y-275538326D01*
X186462310Y-275490707D01*
X186367072Y-275443087D01*
X186128976Y-275443087D01*
X185986119Y-275490707D01*
X185605167Y-275538326D02*
X185557548Y-275490707D01*
X185462310Y-275443087D01*
X185224214Y-275443087D01*
X185128976Y-275490707D01*
X185081357Y-275538326D01*
X185033738Y-275633564D01*
X185033738Y-275728802D01*
X185081357Y-275871659D01*
X185652786Y-276443087D01*
X185033738Y-276443087D01*
X184700405Y-275443087D02*
X184033738Y-275443087D01*
X184462310Y-276443087D01*
G04 #@! TO.C,S26*
X208797548Y-276315468D02*
X208654691Y-276363087D01*
X208416595Y-276363087D01*
X208321357Y-276315468D01*
X208273738Y-276267849D01*
X208226119Y-276172611D01*
X208226119Y-276077373D01*
X208273738Y-275982135D01*
X208321357Y-275934516D01*
X208416595Y-275886897D01*
X208607072Y-275839278D01*
X208702310Y-275791659D01*
X208749929Y-275744040D01*
X208797548Y-275648802D01*
X208797548Y-275553564D01*
X208749929Y-275458326D01*
X208702310Y-275410707D01*
X208607072Y-275363087D01*
X208368976Y-275363087D01*
X208226119Y-275410707D01*
X207845167Y-275458326D02*
X207797548Y-275410707D01*
X207702310Y-275363087D01*
X207464214Y-275363087D01*
X207368976Y-275410707D01*
X207321357Y-275458326D01*
X207273738Y-275553564D01*
X207273738Y-275648802D01*
X207321357Y-275791659D01*
X207892786Y-276363087D01*
X207273738Y-276363087D01*
X206416595Y-275363087D02*
X206607072Y-275363087D01*
X206702310Y-275410707D01*
X206749929Y-275458326D01*
X206845167Y-275601183D01*
X206892786Y-275791659D01*
X206892786Y-276172611D01*
X206845167Y-276267849D01*
X206797548Y-276315468D01*
X206702310Y-276363087D01*
X206511833Y-276363087D01*
X206416595Y-276315468D01*
X206368976Y-276267849D01*
X206321357Y-276172611D01*
X206321357Y-275934516D01*
X206368976Y-275839278D01*
X206416595Y-275791659D01*
X206511833Y-275744040D01*
X206702310Y-275744040D01*
X206797548Y-275791659D01*
X206845167Y-275839278D01*
X206892786Y-275934516D01*
G04 #@! TO.C,S25*
X219137548Y-257695468D02*
X218994691Y-257743087D01*
X218756595Y-257743087D01*
X218661357Y-257695468D01*
X218613738Y-257647849D01*
X218566119Y-257552611D01*
X218566119Y-257457373D01*
X218613738Y-257362135D01*
X218661357Y-257314516D01*
X218756595Y-257266897D01*
X218947072Y-257219278D01*
X219042310Y-257171659D01*
X219089929Y-257124040D01*
X219137548Y-257028802D01*
X219137548Y-256933564D01*
X219089929Y-256838326D01*
X219042310Y-256790707D01*
X218947072Y-256743087D01*
X218708976Y-256743087D01*
X218566119Y-256790707D01*
X218185167Y-256838326D02*
X218137548Y-256790707D01*
X218042310Y-256743087D01*
X217804214Y-256743087D01*
X217708976Y-256790707D01*
X217661357Y-256838326D01*
X217613738Y-256933564D01*
X217613738Y-257028802D01*
X217661357Y-257171659D01*
X218232786Y-257743087D01*
X217613738Y-257743087D01*
X216708976Y-256743087D02*
X217185167Y-256743087D01*
X217232786Y-257219278D01*
X217185167Y-257171659D01*
X217089929Y-257124040D01*
X216851833Y-257124040D01*
X216756595Y-257171659D01*
X216708976Y-257219278D01*
X216661357Y-257314516D01*
X216661357Y-257552611D01*
X216708976Y-257647849D01*
X216756595Y-257695468D01*
X216851833Y-257743087D01*
X217089929Y-257743087D01*
X217185167Y-257695468D01*
X217232786Y-257647849D01*
G04 #@! TO.C,S24*
X216007548Y-236725468D02*
X215864691Y-236773087D01*
X215626595Y-236773087D01*
X215531357Y-236725468D01*
X215483738Y-236677849D01*
X215436119Y-236582611D01*
X215436119Y-236487373D01*
X215483738Y-236392135D01*
X215531357Y-236344516D01*
X215626595Y-236296897D01*
X215817072Y-236249278D01*
X215912310Y-236201659D01*
X215959929Y-236154040D01*
X216007548Y-236058802D01*
X216007548Y-235963564D01*
X215959929Y-235868326D01*
X215912310Y-235820707D01*
X215817072Y-235773087D01*
X215578976Y-235773087D01*
X215436119Y-235820707D01*
X215055167Y-235868326D02*
X215007548Y-235820707D01*
X214912310Y-235773087D01*
X214674214Y-235773087D01*
X214578976Y-235820707D01*
X214531357Y-235868326D01*
X214483738Y-235963564D01*
X214483738Y-236058802D01*
X214531357Y-236201659D01*
X215102786Y-236773087D01*
X214483738Y-236773087D01*
X213626595Y-236106421D02*
X213626595Y-236773087D01*
X213864691Y-235725468D02*
X214102786Y-236439754D01*
X213483738Y-236439754D01*
G04 #@! TO.C,S23*
X178687548Y-216065468D02*
X178544691Y-216113087D01*
X178306595Y-216113087D01*
X178211357Y-216065468D01*
X178163738Y-216017849D01*
X178116119Y-215922611D01*
X178116119Y-215827373D01*
X178163738Y-215732135D01*
X178211357Y-215684516D01*
X178306595Y-215636897D01*
X178497072Y-215589278D01*
X178592310Y-215541659D01*
X178639929Y-215494040D01*
X178687548Y-215398802D01*
X178687548Y-215303564D01*
X178639929Y-215208326D01*
X178592310Y-215160707D01*
X178497072Y-215113087D01*
X178258976Y-215113087D01*
X178116119Y-215160707D01*
X177735167Y-215208326D02*
X177687548Y-215160707D01*
X177592310Y-215113087D01*
X177354214Y-215113087D01*
X177258976Y-215160707D01*
X177211357Y-215208326D01*
X177163738Y-215303564D01*
X177163738Y-215398802D01*
X177211357Y-215541659D01*
X177782786Y-216113087D01*
X177163738Y-216113087D01*
X176830405Y-215113087D02*
X176211357Y-215113087D01*
X176544691Y-215494040D01*
X176401833Y-215494040D01*
X176306595Y-215541659D01*
X176258976Y-215589278D01*
X176211357Y-215684516D01*
X176211357Y-215922611D01*
X176258976Y-216017849D01*
X176306595Y-216065468D01*
X176401833Y-216113087D01*
X176687548Y-216113087D01*
X176782786Y-216065468D01*
X176830405Y-216017849D01*
G04 #@! TO.C,S22*
X177497548Y-194795468D02*
X177354691Y-194843087D01*
X177116595Y-194843087D01*
X177021357Y-194795468D01*
X176973738Y-194747849D01*
X176926119Y-194652611D01*
X176926119Y-194557373D01*
X176973738Y-194462135D01*
X177021357Y-194414516D01*
X177116595Y-194366897D01*
X177307072Y-194319278D01*
X177402310Y-194271659D01*
X177449929Y-194224040D01*
X177497548Y-194128802D01*
X177497548Y-194033564D01*
X177449929Y-193938326D01*
X177402310Y-193890707D01*
X177307072Y-193843087D01*
X177068976Y-193843087D01*
X176926119Y-193890707D01*
X176545167Y-193938326D02*
X176497548Y-193890707D01*
X176402310Y-193843087D01*
X176164214Y-193843087D01*
X176068976Y-193890707D01*
X176021357Y-193938326D01*
X175973738Y-194033564D01*
X175973738Y-194128802D01*
X176021357Y-194271659D01*
X176592786Y-194843087D01*
X175973738Y-194843087D01*
X175592786Y-193938326D02*
X175545167Y-193890707D01*
X175449929Y-193843087D01*
X175211833Y-193843087D01*
X175116595Y-193890707D01*
X175068976Y-193938326D01*
X175021357Y-194033564D01*
X175021357Y-194128802D01*
X175068976Y-194271659D01*
X175640405Y-194843087D01*
X175021357Y-194843087D01*
G04 #@! TO.C,S21*
X174457548Y-173775468D02*
X174314691Y-173823087D01*
X174076595Y-173823087D01*
X173981357Y-173775468D01*
X173933738Y-173727849D01*
X173886119Y-173632611D01*
X173886119Y-173537373D01*
X173933738Y-173442135D01*
X173981357Y-173394516D01*
X174076595Y-173346897D01*
X174267072Y-173299278D01*
X174362310Y-173251659D01*
X174409929Y-173204040D01*
X174457548Y-173108802D01*
X174457548Y-173013564D01*
X174409929Y-172918326D01*
X174362310Y-172870707D01*
X174267072Y-172823087D01*
X174028976Y-172823087D01*
X173886119Y-172870707D01*
X173505167Y-172918326D02*
X173457548Y-172870707D01*
X173362310Y-172823087D01*
X173124214Y-172823087D01*
X173028976Y-172870707D01*
X172981357Y-172918326D01*
X172933738Y-173013564D01*
X172933738Y-173108802D01*
X172981357Y-173251659D01*
X173552786Y-173823087D01*
X172933738Y-173823087D01*
X171981357Y-173823087D02*
X172552786Y-173823087D01*
X172267072Y-173823087D02*
X172267072Y-172823087D01*
X172362310Y-172965945D01*
X172457548Y-173061183D01*
X172552786Y-173108802D01*
G04 #@! TO.C,S20*
X165897548Y-153115468D02*
X165754691Y-153163087D01*
X165516595Y-153163087D01*
X165421357Y-153115468D01*
X165373738Y-153067849D01*
X165326119Y-152972611D01*
X165326119Y-152877373D01*
X165373738Y-152782135D01*
X165421357Y-152734516D01*
X165516595Y-152686897D01*
X165707072Y-152639278D01*
X165802310Y-152591659D01*
X165849929Y-152544040D01*
X165897548Y-152448802D01*
X165897548Y-152353564D01*
X165849929Y-152258326D01*
X165802310Y-152210707D01*
X165707072Y-152163087D01*
X165468976Y-152163087D01*
X165326119Y-152210707D01*
X164945167Y-152258326D02*
X164897548Y-152210707D01*
X164802310Y-152163087D01*
X164564214Y-152163087D01*
X164468976Y-152210707D01*
X164421357Y-152258326D01*
X164373738Y-152353564D01*
X164373738Y-152448802D01*
X164421357Y-152591659D01*
X164992786Y-153163087D01*
X164373738Y-153163087D01*
X163754691Y-152163087D02*
X163659453Y-152163087D01*
X163564214Y-152210707D01*
X163516595Y-152258326D01*
X163468976Y-152353564D01*
X163421357Y-152544040D01*
X163421357Y-152782135D01*
X163468976Y-152972611D01*
X163516595Y-153067849D01*
X163564214Y-153115468D01*
X163659453Y-153163087D01*
X163754691Y-153163087D01*
X163849929Y-153115468D01*
X163897548Y-153067849D01*
X163945167Y-152972611D01*
X163992786Y-152782135D01*
X163992786Y-152544040D01*
X163945167Y-152353564D01*
X163897548Y-152258326D01*
X163849929Y-152210707D01*
X163754691Y-152163087D01*
G04 #@! TO.C,S19*
X189827548Y-156115468D02*
X189684691Y-156163087D01*
X189446595Y-156163087D01*
X189351357Y-156115468D01*
X189303738Y-156067849D01*
X189256119Y-155972611D01*
X189256119Y-155877373D01*
X189303738Y-155782135D01*
X189351357Y-155734516D01*
X189446595Y-155686897D01*
X189637072Y-155639278D01*
X189732310Y-155591659D01*
X189779929Y-155544040D01*
X189827548Y-155448802D01*
X189827548Y-155353564D01*
X189779929Y-155258326D01*
X189732310Y-155210707D01*
X189637072Y-155163087D01*
X189398976Y-155163087D01*
X189256119Y-155210707D01*
X188303738Y-156163087D02*
X188875167Y-156163087D01*
X188589453Y-156163087D02*
X188589453Y-155163087D01*
X188684691Y-155305945D01*
X188779929Y-155401183D01*
X188875167Y-155448802D01*
X187827548Y-156163087D02*
X187637072Y-156163087D01*
X187541833Y-156115468D01*
X187494214Y-156067849D01*
X187398976Y-155924992D01*
X187351357Y-155734516D01*
X187351357Y-155353564D01*
X187398976Y-155258326D01*
X187446595Y-155210707D01*
X187541833Y-155163087D01*
X187732310Y-155163087D01*
X187827548Y-155210707D01*
X187875167Y-155258326D01*
X187922786Y-155353564D01*
X187922786Y-155591659D01*
X187875167Y-155686897D01*
X187827548Y-155734516D01*
X187732310Y-155782135D01*
X187541833Y-155782135D01*
X187446595Y-155734516D01*
X187398976Y-155686897D01*
X187351357Y-155591659D01*
G04 #@! TO.C,S18*
X184707548Y-135155468D02*
X184564691Y-135203087D01*
X184326595Y-135203087D01*
X184231357Y-135155468D01*
X184183738Y-135107849D01*
X184136119Y-135012611D01*
X184136119Y-134917373D01*
X184183738Y-134822135D01*
X184231357Y-134774516D01*
X184326595Y-134726897D01*
X184517072Y-134679278D01*
X184612310Y-134631659D01*
X184659929Y-134584040D01*
X184707548Y-134488802D01*
X184707548Y-134393564D01*
X184659929Y-134298326D01*
X184612310Y-134250707D01*
X184517072Y-134203087D01*
X184278976Y-134203087D01*
X184136119Y-134250707D01*
X183183738Y-135203087D02*
X183755167Y-135203087D01*
X183469453Y-135203087D02*
X183469453Y-134203087D01*
X183564691Y-134345945D01*
X183659929Y-134441183D01*
X183755167Y-134488802D01*
X182612310Y-134631659D02*
X182707548Y-134584040D01*
X182755167Y-134536421D01*
X182802786Y-134441183D01*
X182802786Y-134393564D01*
X182755167Y-134298326D01*
X182707548Y-134250707D01*
X182612310Y-134203087D01*
X182421833Y-134203087D01*
X182326595Y-134250707D01*
X182278976Y-134298326D01*
X182231357Y-134393564D01*
X182231357Y-134441183D01*
X182278976Y-134536421D01*
X182326595Y-134584040D01*
X182421833Y-134631659D01*
X182612310Y-134631659D01*
X182707548Y-134679278D01*
X182755167Y-134726897D01*
X182802786Y-134822135D01*
X182802786Y-135012611D01*
X182755167Y-135107849D01*
X182707548Y-135155468D01*
X182612310Y-135203087D01*
X182421833Y-135203087D01*
X182326595Y-135155468D01*
X182278976Y-135107849D01*
X182231357Y-135012611D01*
X182231357Y-134822135D01*
X182278976Y-134726897D01*
X182326595Y-134679278D01*
X182421833Y-134631659D01*
G04 #@! TO.C,S17*
X160687548Y-131145468D02*
X160544691Y-131193087D01*
X160306595Y-131193087D01*
X160211357Y-131145468D01*
X160163738Y-131097849D01*
X160116119Y-131002611D01*
X160116119Y-130907373D01*
X160163738Y-130812135D01*
X160211357Y-130764516D01*
X160306595Y-130716897D01*
X160497072Y-130669278D01*
X160592310Y-130621659D01*
X160639929Y-130574040D01*
X160687548Y-130478802D01*
X160687548Y-130383564D01*
X160639929Y-130288326D01*
X160592310Y-130240707D01*
X160497072Y-130193087D01*
X160258976Y-130193087D01*
X160116119Y-130240707D01*
X159163738Y-131193087D02*
X159735167Y-131193087D01*
X159449453Y-131193087D02*
X159449453Y-130193087D01*
X159544691Y-130335945D01*
X159639929Y-130431183D01*
X159735167Y-130478802D01*
X158830405Y-130193087D02*
X158163738Y-130193087D01*
X158592310Y-131193087D01*
G04 #@! TO.C,S16*
X159917548Y-110185468D02*
X159774691Y-110233087D01*
X159536595Y-110233087D01*
X159441357Y-110185468D01*
X159393738Y-110137849D01*
X159346119Y-110042611D01*
X159346119Y-109947373D01*
X159393738Y-109852135D01*
X159441357Y-109804516D01*
X159536595Y-109756897D01*
X159727072Y-109709278D01*
X159822310Y-109661659D01*
X159869929Y-109614040D01*
X159917548Y-109518802D01*
X159917548Y-109423564D01*
X159869929Y-109328326D01*
X159822310Y-109280707D01*
X159727072Y-109233087D01*
X159488976Y-109233087D01*
X159346119Y-109280707D01*
X158393738Y-110233087D02*
X158965167Y-110233087D01*
X158679453Y-110233087D02*
X158679453Y-109233087D01*
X158774691Y-109375945D01*
X158869929Y-109471183D01*
X158965167Y-109518802D01*
X157536595Y-109233087D02*
X157727072Y-109233087D01*
X157822310Y-109280707D01*
X157869929Y-109328326D01*
X157965167Y-109471183D01*
X158012786Y-109661659D01*
X158012786Y-110042611D01*
X157965167Y-110137849D01*
X157917548Y-110185468D01*
X157822310Y-110233087D01*
X157631833Y-110233087D01*
X157536595Y-110185468D01*
X157488976Y-110137849D01*
X157441357Y-110042611D01*
X157441357Y-109804516D01*
X157488976Y-109709278D01*
X157536595Y-109661659D01*
X157631833Y-109614040D01*
X157822310Y-109614040D01*
X157917548Y-109661659D01*
X157965167Y-109709278D01*
X158012786Y-109804516D01*
G04 #@! TO.C,S15*
X184007548Y-113145468D02*
X183864691Y-113193087D01*
X183626595Y-113193087D01*
X183531357Y-113145468D01*
X183483738Y-113097849D01*
X183436119Y-113002611D01*
X183436119Y-112907373D01*
X183483738Y-112812135D01*
X183531357Y-112764516D01*
X183626595Y-112716897D01*
X183817072Y-112669278D01*
X183912310Y-112621659D01*
X183959929Y-112574040D01*
X184007548Y-112478802D01*
X184007548Y-112383564D01*
X183959929Y-112288326D01*
X183912310Y-112240707D01*
X183817072Y-112193087D01*
X183578976Y-112193087D01*
X183436119Y-112240707D01*
X182483738Y-113193087D02*
X183055167Y-113193087D01*
X182769453Y-113193087D02*
X182769453Y-112193087D01*
X182864691Y-112335945D01*
X182959929Y-112431183D01*
X183055167Y-112478802D01*
X181578976Y-112193087D02*
X182055167Y-112193087D01*
X182102786Y-112669278D01*
X182055167Y-112621659D01*
X181959929Y-112574040D01*
X181721833Y-112574040D01*
X181626595Y-112621659D01*
X181578976Y-112669278D01*
X181531357Y-112764516D01*
X181531357Y-113002611D01*
X181578976Y-113097849D01*
X181626595Y-113145468D01*
X181721833Y-113193087D01*
X181959929Y-113193087D01*
X182055167Y-113145468D01*
X182102786Y-113097849D01*
G04 #@! TO.C,S14*
X206897548Y-127125468D02*
X206754691Y-127173087D01*
X206516595Y-127173087D01*
X206421357Y-127125468D01*
X206373738Y-127077849D01*
X206326119Y-126982611D01*
X206326119Y-126887373D01*
X206373738Y-126792135D01*
X206421357Y-126744516D01*
X206516595Y-126696897D01*
X206707072Y-126649278D01*
X206802310Y-126601659D01*
X206849929Y-126554040D01*
X206897548Y-126458802D01*
X206897548Y-126363564D01*
X206849929Y-126268326D01*
X206802310Y-126220707D01*
X206707072Y-126173087D01*
X206468976Y-126173087D01*
X206326119Y-126220707D01*
X205373738Y-127173087D02*
X205945167Y-127173087D01*
X205659453Y-127173087D02*
X205659453Y-126173087D01*
X205754691Y-126315945D01*
X205849929Y-126411183D01*
X205945167Y-126458802D01*
X204516595Y-126506421D02*
X204516595Y-127173087D01*
X204754691Y-126125468D02*
X204992786Y-126839754D01*
X204373738Y-126839754D01*
G04 #@! TO.C,S13*
X161377548Y-89105468D02*
X161234691Y-89153087D01*
X160996595Y-89153087D01*
X160901357Y-89105468D01*
X160853738Y-89057849D01*
X160806119Y-88962611D01*
X160806119Y-88867373D01*
X160853738Y-88772135D01*
X160901357Y-88724516D01*
X160996595Y-88676897D01*
X161187072Y-88629278D01*
X161282310Y-88581659D01*
X161329929Y-88534040D01*
X161377548Y-88438802D01*
X161377548Y-88343564D01*
X161329929Y-88248326D01*
X161282310Y-88200707D01*
X161187072Y-88153087D01*
X160948976Y-88153087D01*
X160806119Y-88200707D01*
X159853738Y-89153087D02*
X160425167Y-89153087D01*
X160139453Y-89153087D02*
X160139453Y-88153087D01*
X160234691Y-88295945D01*
X160329929Y-88391183D01*
X160425167Y-88438802D01*
X159520405Y-88153087D02*
X158901357Y-88153087D01*
X159234691Y-88534040D01*
X159091833Y-88534040D01*
X158996595Y-88581659D01*
X158948976Y-88629278D01*
X158901357Y-88724516D01*
X158901357Y-88962611D01*
X158948976Y-89057849D01*
X158996595Y-89105468D01*
X159091833Y-89153087D01*
X159377548Y-89153087D01*
X159472786Y-89105468D01*
X159520405Y-89057849D01*
G04 #@! TO.C,S12*
X184857548Y-92115468D02*
X184714691Y-92163087D01*
X184476595Y-92163087D01*
X184381357Y-92115468D01*
X184333738Y-92067849D01*
X184286119Y-91972611D01*
X184286119Y-91877373D01*
X184333738Y-91782135D01*
X184381357Y-91734516D01*
X184476595Y-91686897D01*
X184667072Y-91639278D01*
X184762310Y-91591659D01*
X184809929Y-91544040D01*
X184857548Y-91448802D01*
X184857548Y-91353564D01*
X184809929Y-91258326D01*
X184762310Y-91210707D01*
X184667072Y-91163087D01*
X184428976Y-91163087D01*
X184286119Y-91210707D01*
X183333738Y-92163087D02*
X183905167Y-92163087D01*
X183619453Y-92163087D02*
X183619453Y-91163087D01*
X183714691Y-91305945D01*
X183809929Y-91401183D01*
X183905167Y-91448802D01*
X182952786Y-91258326D02*
X182905167Y-91210707D01*
X182809929Y-91163087D01*
X182571833Y-91163087D01*
X182476595Y-91210707D01*
X182428976Y-91258326D01*
X182381357Y-91353564D01*
X182381357Y-91448802D01*
X182428976Y-91591659D01*
X183000405Y-92163087D01*
X182381357Y-92163087D01*
G04 #@! TO.C,S11*
X171967548Y-69165468D02*
X171824691Y-69213087D01*
X171586595Y-69213087D01*
X171491357Y-69165468D01*
X171443738Y-69117849D01*
X171396119Y-69022611D01*
X171396119Y-68927373D01*
X171443738Y-68832135D01*
X171491357Y-68784516D01*
X171586595Y-68736897D01*
X171777072Y-68689278D01*
X171872310Y-68641659D01*
X171919929Y-68594040D01*
X171967548Y-68498802D01*
X171967548Y-68403564D01*
X171919929Y-68308326D01*
X171872310Y-68260707D01*
X171777072Y-68213087D01*
X171538976Y-68213087D01*
X171396119Y-68260707D01*
X170443738Y-69213087D02*
X171015167Y-69213087D01*
X170729453Y-69213087D02*
X170729453Y-68213087D01*
X170824691Y-68355945D01*
X170919929Y-68451183D01*
X171015167Y-68498802D01*
X169491357Y-69213087D02*
X170062786Y-69213087D01*
X169777072Y-69213087D02*
X169777072Y-68213087D01*
X169872310Y-68355945D01*
X169967548Y-68451183D01*
X170062786Y-68498802D01*
G04 #@! TO.C,S10*
X192917548Y-72155468D02*
X192774691Y-72203087D01*
X192536595Y-72203087D01*
X192441357Y-72155468D01*
X192393738Y-72107849D01*
X192346119Y-72012611D01*
X192346119Y-71917373D01*
X192393738Y-71822135D01*
X192441357Y-71774516D01*
X192536595Y-71726897D01*
X192727072Y-71679278D01*
X192822310Y-71631659D01*
X192869929Y-71584040D01*
X192917548Y-71488802D01*
X192917548Y-71393564D01*
X192869929Y-71298326D01*
X192822310Y-71250707D01*
X192727072Y-71203087D01*
X192488976Y-71203087D01*
X192346119Y-71250707D01*
X191393738Y-72203087D02*
X191965167Y-72203087D01*
X191679453Y-72203087D02*
X191679453Y-71203087D01*
X191774691Y-71345945D01*
X191869929Y-71441183D01*
X191965167Y-71488802D01*
X190774691Y-71203087D02*
X190679453Y-71203087D01*
X190584214Y-71250707D01*
X190536595Y-71298326D01*
X190488976Y-71393564D01*
X190441357Y-71584040D01*
X190441357Y-71822135D01*
X190488976Y-72012611D01*
X190536595Y-72107849D01*
X190584214Y-72155468D01*
X190679453Y-72203087D01*
X190774691Y-72203087D01*
X190869929Y-72155468D01*
X190917548Y-72107849D01*
X190965167Y-72012611D01*
X191012786Y-71822135D01*
X191012786Y-71584040D01*
X190965167Y-71393564D01*
X190917548Y-71298326D01*
X190869929Y-71250707D01*
X190774691Y-71203087D01*
G04 #@! TO.C,S9*
X186471357Y-49195468D02*
X186328500Y-49243087D01*
X186090405Y-49243087D01*
X185995167Y-49195468D01*
X185947548Y-49147849D01*
X185899929Y-49052611D01*
X185899929Y-48957373D01*
X185947548Y-48862135D01*
X185995167Y-48814516D01*
X186090405Y-48766897D01*
X186280881Y-48719278D01*
X186376119Y-48671659D01*
X186423738Y-48624040D01*
X186471357Y-48528802D01*
X186471357Y-48433564D01*
X186423738Y-48338326D01*
X186376119Y-48290707D01*
X186280881Y-48243087D01*
X186042786Y-48243087D01*
X185899929Y-48290707D01*
X185423738Y-49243087D02*
X185233262Y-49243087D01*
X185138024Y-49195468D01*
X185090405Y-49147849D01*
X184995167Y-49004992D01*
X184947548Y-48814516D01*
X184947548Y-48433564D01*
X184995167Y-48338326D01*
X185042786Y-48290707D01*
X185138024Y-48243087D01*
X185328500Y-48243087D01*
X185423738Y-48290707D01*
X185471357Y-48338326D01*
X185518976Y-48433564D01*
X185518976Y-48671659D01*
X185471357Y-48766897D01*
X185423738Y-48814516D01*
X185328500Y-48862135D01*
X185138024Y-48862135D01*
X185042786Y-48814516D01*
X184995167Y-48766897D01*
X184947548Y-48671659D01*
G04 #@! TO.C,S8*
X205331357Y-35165468D02*
X205188500Y-35213087D01*
X204950405Y-35213087D01*
X204855167Y-35165468D01*
X204807548Y-35117849D01*
X204759929Y-35022611D01*
X204759929Y-34927373D01*
X204807548Y-34832135D01*
X204855167Y-34784516D01*
X204950405Y-34736897D01*
X205140881Y-34689278D01*
X205236119Y-34641659D01*
X205283738Y-34594040D01*
X205331357Y-34498802D01*
X205331357Y-34403564D01*
X205283738Y-34308326D01*
X205236119Y-34260707D01*
X205140881Y-34213087D01*
X204902786Y-34213087D01*
X204759929Y-34260707D01*
X204188500Y-34641659D02*
X204283738Y-34594040D01*
X204331357Y-34546421D01*
X204378976Y-34451183D01*
X204378976Y-34403564D01*
X204331357Y-34308326D01*
X204283738Y-34260707D01*
X204188500Y-34213087D01*
X203998024Y-34213087D01*
X203902786Y-34260707D01*
X203855167Y-34308326D01*
X203807548Y-34403564D01*
X203807548Y-34451183D01*
X203855167Y-34546421D01*
X203902786Y-34594040D01*
X203998024Y-34641659D01*
X204188500Y-34641659D01*
X204283738Y-34689278D01*
X204331357Y-34736897D01*
X204378976Y-34832135D01*
X204378976Y-35022611D01*
X204331357Y-35117849D01*
X204283738Y-35165468D01*
X204188500Y-35213087D01*
X203998024Y-35213087D01*
X203902786Y-35165468D01*
X203855167Y-35117849D01*
X203807548Y-35022611D01*
X203807548Y-34832135D01*
X203855167Y-34736897D01*
X203902786Y-34689278D01*
X203998024Y-34641659D01*
G04 #@! TO.C,S7*
X210331357Y-103225468D02*
X210188500Y-103273087D01*
X209950405Y-103273087D01*
X209855167Y-103225468D01*
X209807548Y-103177849D01*
X209759929Y-103082611D01*
X209759929Y-102987373D01*
X209807548Y-102892135D01*
X209855167Y-102844516D01*
X209950405Y-102796897D01*
X210140881Y-102749278D01*
X210236119Y-102701659D01*
X210283738Y-102654040D01*
X210331357Y-102558802D01*
X210331357Y-102463564D01*
X210283738Y-102368326D01*
X210236119Y-102320707D01*
X210140881Y-102273087D01*
X209902786Y-102273087D01*
X209759929Y-102320707D01*
X209426595Y-102273087D02*
X208759929Y-102273087D01*
X209188500Y-103273087D01*
G04 #@! TO.C,S6*
X212091357Y-80205468D02*
X211948500Y-80253087D01*
X211710405Y-80253087D01*
X211615167Y-80205468D01*
X211567548Y-80157849D01*
X211519929Y-80062611D01*
X211519929Y-79967373D01*
X211567548Y-79872135D01*
X211615167Y-79824516D01*
X211710405Y-79776897D01*
X211900881Y-79729278D01*
X211996119Y-79681659D01*
X212043738Y-79634040D01*
X212091357Y-79538802D01*
X212091357Y-79443564D01*
X212043738Y-79348326D01*
X211996119Y-79300707D01*
X211900881Y-79253087D01*
X211662786Y-79253087D01*
X211519929Y-79300707D01*
X210662786Y-79253087D02*
X210853262Y-79253087D01*
X210948500Y-79300707D01*
X210996119Y-79348326D01*
X211091357Y-79491183D01*
X211138976Y-79681659D01*
X211138976Y-80062611D01*
X211091357Y-80157849D01*
X211043738Y-80205468D01*
X210948500Y-80253087D01*
X210758024Y-80253087D01*
X210662786Y-80205468D01*
X210615167Y-80157849D01*
X210567548Y-80062611D01*
X210567548Y-79824516D01*
X210615167Y-79729278D01*
X210662786Y-79681659D01*
X210758024Y-79634040D01*
X210948500Y-79634040D01*
X211043738Y-79681659D01*
X211091357Y-79729278D01*
X211138976Y-79824516D01*
G04 #@! TO.C,S5*
X210751357Y-57245468D02*
X210608500Y-57293087D01*
X210370405Y-57293087D01*
X210275167Y-57245468D01*
X210227548Y-57197849D01*
X210179929Y-57102611D01*
X210179929Y-57007373D01*
X210227548Y-56912135D01*
X210275167Y-56864516D01*
X210370405Y-56816897D01*
X210560881Y-56769278D01*
X210656119Y-56721659D01*
X210703738Y-56674040D01*
X210751357Y-56578802D01*
X210751357Y-56483564D01*
X210703738Y-56388326D01*
X210656119Y-56340707D01*
X210560881Y-56293087D01*
X210322786Y-56293087D01*
X210179929Y-56340707D01*
X209275167Y-56293087D02*
X209751357Y-56293087D01*
X209798976Y-56769278D01*
X209751357Y-56721659D01*
X209656119Y-56674040D01*
X209418024Y-56674040D01*
X209322786Y-56721659D01*
X209275167Y-56769278D01*
X209227548Y-56864516D01*
X209227548Y-57102611D01*
X209275167Y-57197849D01*
X209322786Y-57245468D01*
X209418024Y-57293087D01*
X209656119Y-57293087D01*
X209751357Y-57245468D01*
X209798976Y-57197849D01*
G04 #@! TO.C,S4*
X227301357Y-36125468D02*
X227158500Y-36173087D01*
X226920405Y-36173087D01*
X226825167Y-36125468D01*
X226777548Y-36077849D01*
X226729929Y-35982611D01*
X226729929Y-35887373D01*
X226777548Y-35792135D01*
X226825167Y-35744516D01*
X226920405Y-35696897D01*
X227110881Y-35649278D01*
X227206119Y-35601659D01*
X227253738Y-35554040D01*
X227301357Y-35458802D01*
X227301357Y-35363564D01*
X227253738Y-35268326D01*
X227206119Y-35220707D01*
X227110881Y-35173087D01*
X226872786Y-35173087D01*
X226729929Y-35220707D01*
X225872786Y-35506421D02*
X225872786Y-36173087D01*
X226110881Y-35125468D02*
X226348976Y-35839754D01*
X225729929Y-35839754D01*
G04 #@! TO.C,S3*
X234411357Y-57145468D02*
X234268500Y-57193087D01*
X234030405Y-57193087D01*
X233935167Y-57145468D01*
X233887548Y-57097849D01*
X233839929Y-57002611D01*
X233839929Y-56907373D01*
X233887548Y-56812135D01*
X233935167Y-56764516D01*
X234030405Y-56716897D01*
X234220881Y-56669278D01*
X234316119Y-56621659D01*
X234363738Y-56574040D01*
X234411357Y-56478802D01*
X234411357Y-56383564D01*
X234363738Y-56288326D01*
X234316119Y-56240707D01*
X234220881Y-56193087D01*
X233982786Y-56193087D01*
X233839929Y-56240707D01*
X233506595Y-56193087D02*
X232887548Y-56193087D01*
X233220881Y-56574040D01*
X233078024Y-56574040D01*
X232982786Y-56621659D01*
X232935167Y-56669278D01*
X232887548Y-56764516D01*
X232887548Y-57002611D01*
X232935167Y-57097849D01*
X232982786Y-57145468D01*
X233078024Y-57193087D01*
X233363738Y-57193087D01*
X233458976Y-57145468D01*
X233506595Y-57097849D01*
G04 #@! TO.C,S2*
X236411357Y-79215468D02*
X236268500Y-79263087D01*
X236030405Y-79263087D01*
X235935167Y-79215468D01*
X235887548Y-79167849D01*
X235839929Y-79072611D01*
X235839929Y-78977373D01*
X235887548Y-78882135D01*
X235935167Y-78834516D01*
X236030405Y-78786897D01*
X236220881Y-78739278D01*
X236316119Y-78691659D01*
X236363738Y-78644040D01*
X236411357Y-78548802D01*
X236411357Y-78453564D01*
X236363738Y-78358326D01*
X236316119Y-78310707D01*
X236220881Y-78263087D01*
X235982786Y-78263087D01*
X235839929Y-78310707D01*
X235458976Y-78358326D02*
X235411357Y-78310707D01*
X235316119Y-78263087D01*
X235078024Y-78263087D01*
X234982786Y-78310707D01*
X234935167Y-78358326D01*
X234887548Y-78453564D01*
X234887548Y-78548802D01*
X234935167Y-78691659D01*
X235506595Y-79263087D01*
X234887548Y-79263087D01*
G04 #@! TO.C,S1*
X236431357Y-103135468D02*
X236288500Y-103183087D01*
X236050405Y-103183087D01*
X235955167Y-103135468D01*
X235907548Y-103087849D01*
X235859929Y-102992611D01*
X235859929Y-102897373D01*
X235907548Y-102802135D01*
X235955167Y-102754516D01*
X236050405Y-102706897D01*
X236240881Y-102659278D01*
X236336119Y-102611659D01*
X236383738Y-102564040D01*
X236431357Y-102468802D01*
X236431357Y-102373564D01*
X236383738Y-102278326D01*
X236336119Y-102230707D01*
X236240881Y-102183087D01*
X236002786Y-102183087D01*
X235859929Y-102230707D01*
X234907548Y-103183087D02*
X235478976Y-103183087D01*
X235193262Y-103183087D02*
X235193262Y-102183087D01*
X235288500Y-102325945D01*
X235383738Y-102421183D01*
X235478976Y-102468802D01*
G04 #@! TO.C,S0*
X228401357Y-127165468D02*
X228258500Y-127213087D01*
X228020405Y-127213087D01*
X227925167Y-127165468D01*
X227877548Y-127117849D01*
X227829929Y-127022611D01*
X227829929Y-126927373D01*
X227877548Y-126832135D01*
X227925167Y-126784516D01*
X228020405Y-126736897D01*
X228210881Y-126689278D01*
X228306119Y-126641659D01*
X228353738Y-126594040D01*
X228401357Y-126498802D01*
X228401357Y-126403564D01*
X228353738Y-126308326D01*
X228306119Y-126260707D01*
X228210881Y-126213087D01*
X227972786Y-126213087D01*
X227829929Y-126260707D01*
X227210881Y-126213087D02*
X227115643Y-126213087D01*
X227020405Y-126260707D01*
X226972786Y-126308326D01*
X226925167Y-126403564D01*
X226877548Y-126594040D01*
X226877548Y-126832135D01*
X226925167Y-127022611D01*
X226972786Y-127117849D01*
X227020405Y-127165468D01*
X227115643Y-127213087D01*
X227210881Y-127213087D01*
X227306119Y-127165468D01*
X227353738Y-127117849D01*
X227401357Y-127022611D01*
X227448976Y-126832135D01*
X227448976Y-126594040D01*
X227401357Y-126403564D01*
X227353738Y-126308326D01*
X227306119Y-126260707D01*
X227210881Y-126213087D01*
G04 #@! TO.C,L2*
X215174924Y-147602255D02*
X215587317Y-147840350D01*
X216087317Y-146974325D01*
X215379869Y-146675851D02*
X215362439Y-146610802D01*
X215303770Y-146521944D01*
X215097573Y-146402896D01*
X214991285Y-146396517D01*
X214926236Y-146413947D01*
X214837378Y-146472616D01*
X214789759Y-146555094D01*
X214759570Y-146702622D01*
X214968727Y-147483208D01*
X214432616Y-147173684D01*
G04 #@! TO.C,L1*
X220024924Y-154024371D02*
X220437317Y-154262466D01*
X220937317Y-153396441D01*
X219282616Y-153595800D02*
X219777488Y-153881514D01*
X219530052Y-153738657D02*
X220030052Y-152872632D01*
X220041102Y-153043969D01*
X220075962Y-153174066D01*
X220134631Y-153262925D01*
G04 #@! TO.C,J1*
X218199071Y-205093252D02*
X217485221Y-205118180D01*
X217344112Y-205170756D01*
X217252256Y-205269260D01*
X217209652Y-205413692D01*
X217212975Y-205508872D01*
X217164781Y-204128761D02*
X217184723Y-204699841D01*
X217174752Y-204414301D02*
X218174143Y-204379402D01*
X218034697Y-204479567D01*
X217942840Y-204578071D01*
X217898574Y-204674913D01*
G04 #@! TO.C,J2*
X221774954Y-188624969D02*
X221824780Y-189337515D01*
X221882248Y-189476702D01*
X221983898Y-189565065D01*
X222129729Y-189602603D01*
X222224735Y-189595959D01*
X221354070Y-188749871D02*
X221303245Y-188705690D01*
X221204917Y-188664830D01*
X220967402Y-188681439D01*
X220875718Y-188735585D01*
X220831536Y-188786410D01*
X220790677Y-188884738D01*
X220797320Y-188979744D01*
X220854789Y-189118931D01*
X221464686Y-189649107D01*
X220847146Y-189692290D01*
G04 #@! TD*
M02*
