G04 #@! TF.GenerationSoftware,KiCad,Pcbnew,(5.0.0)*
G04 #@! TF.CreationDate,2019-11-05T15:59:09+01:00*
G04 #@! TF.ProjectId,Insole_PCB,496E736F6C655F5043422E6B69636164,rev?*
G04 #@! TF.SameCoordinates,Original*
G04 #@! TF.FileFunction,Soldermask,Bot*
G04 #@! TF.FilePolarity,Negative*
%FSLAX46Y46*%
G04 Gerber Fmt 4.6, Leading zero omitted, Abs format (unit mm)*
G04 Created by KiCad (PCBNEW (5.0.0)) date 11/05/19 15:59:09*
%MOMM*%
%LPD*%
G01*
G04 APERTURE LIST*
%ADD10C,0.100000*%
%ADD11C,1.275000*%
%ADD12C,1.200000*%
%ADD13C,2.200000*%
%ADD14C,0.900000*%
%ADD15C,0.800000*%
%ADD16C,0.810000*%
%ADD17C,1.050000*%
%ADD18R,1.200000X1.300000*%
%ADD19C,0.850000*%
%ADD20R,0.850000X1.900000*%
%ADD21R,1.900000X0.850000*%
%ADD22C,1.550000*%
%ADD23C,0.500000*%
%ADD24R,1.075000X0.650000*%
%ADD25R,0.650000X1.075000*%
%ADD26C,1.250000*%
%ADD27C,1.250000*%
G04 APERTURE END LIST*
D10*
G04 #@! TO.C,C16*
G36*
X212912219Y-190686820D02*
X212943018Y-190692286D01*
X212973134Y-190700744D01*
X213002275Y-190712113D01*
X213030162Y-190726284D01*
X213056525Y-190743119D01*
X213081112Y-190762458D01*
X213103684Y-190784114D01*
X213124025Y-190807878D01*
X213141939Y-190833521D01*
X213157253Y-190860796D01*
X213169820Y-190889442D01*
X213179519Y-190919181D01*
X213186256Y-190949727D01*
X213189967Y-190980787D01*
X213239668Y-191691551D01*
X213240316Y-191722825D01*
X213237896Y-191754012D01*
X213232430Y-191784812D01*
X213223972Y-191814927D01*
X213212603Y-191844068D01*
X213198432Y-191871955D01*
X213181596Y-191898319D01*
X213162258Y-191922905D01*
X213140602Y-191945477D01*
X213116838Y-191965818D01*
X213091195Y-191983732D01*
X213063919Y-191999046D01*
X213035274Y-192011613D01*
X213005535Y-192021312D01*
X212974988Y-192028049D01*
X212943929Y-192031760D01*
X212307982Y-192076230D01*
X212276708Y-192076878D01*
X212245521Y-192074458D01*
X212214722Y-192068992D01*
X212184606Y-192060534D01*
X212155465Y-192049165D01*
X212127578Y-192034994D01*
X212101215Y-192018159D01*
X212076628Y-191998820D01*
X212054056Y-191977164D01*
X212033715Y-191953400D01*
X212015801Y-191927757D01*
X212000487Y-191900482D01*
X211987920Y-191871836D01*
X211978221Y-191842097D01*
X211971484Y-191811551D01*
X211967773Y-191780491D01*
X211918072Y-191069727D01*
X211917424Y-191038453D01*
X211919844Y-191007266D01*
X211925310Y-190976466D01*
X211933768Y-190946351D01*
X211945137Y-190917210D01*
X211959308Y-190889323D01*
X211976144Y-190862959D01*
X211995482Y-190838373D01*
X212017138Y-190815801D01*
X212040902Y-190795460D01*
X212066545Y-190777546D01*
X212093821Y-190762232D01*
X212122466Y-190749665D01*
X212152205Y-190739966D01*
X212182752Y-190733229D01*
X212213811Y-190729518D01*
X212849758Y-190685048D01*
X212881032Y-190684400D01*
X212912219Y-190686820D01*
X212912219Y-190686820D01*
G37*
D11*
X212578870Y-191380639D03*
D10*
G36*
X214483383Y-190576954D02*
X214514182Y-190582420D01*
X214544298Y-190590878D01*
X214573439Y-190602247D01*
X214601326Y-190616418D01*
X214627689Y-190633253D01*
X214652276Y-190652592D01*
X214674848Y-190674248D01*
X214695189Y-190698012D01*
X214713103Y-190723655D01*
X214728417Y-190750930D01*
X214740984Y-190779576D01*
X214750683Y-190809315D01*
X214757420Y-190839861D01*
X214761131Y-190870921D01*
X214810832Y-191581685D01*
X214811480Y-191612959D01*
X214809060Y-191644146D01*
X214803594Y-191674946D01*
X214795136Y-191705061D01*
X214783767Y-191734202D01*
X214769596Y-191762089D01*
X214752760Y-191788453D01*
X214733422Y-191813039D01*
X214711766Y-191835611D01*
X214688002Y-191855952D01*
X214662359Y-191873866D01*
X214635083Y-191889180D01*
X214606438Y-191901747D01*
X214576699Y-191911446D01*
X214546152Y-191918183D01*
X214515093Y-191921894D01*
X213879146Y-191966364D01*
X213847872Y-191967012D01*
X213816685Y-191964592D01*
X213785886Y-191959126D01*
X213755770Y-191950668D01*
X213726629Y-191939299D01*
X213698742Y-191925128D01*
X213672379Y-191908293D01*
X213647792Y-191888954D01*
X213625220Y-191867298D01*
X213604879Y-191843534D01*
X213586965Y-191817891D01*
X213571651Y-191790616D01*
X213559084Y-191761970D01*
X213549385Y-191732231D01*
X213542648Y-191701685D01*
X213538937Y-191670625D01*
X213489236Y-190959861D01*
X213488588Y-190928587D01*
X213491008Y-190897400D01*
X213496474Y-190866600D01*
X213504932Y-190836485D01*
X213516301Y-190807344D01*
X213530472Y-190779457D01*
X213547308Y-190753093D01*
X213566646Y-190728507D01*
X213588302Y-190705935D01*
X213612066Y-190685594D01*
X213637709Y-190667680D01*
X213664985Y-190652366D01*
X213693630Y-190639799D01*
X213723369Y-190630100D01*
X213753916Y-190623363D01*
X213784975Y-190619652D01*
X214420922Y-190575182D01*
X214452196Y-190574534D01*
X214483383Y-190576954D01*
X214483383Y-190576954D01*
G37*
D11*
X214150034Y-191270773D03*
G04 #@! TD*
D10*
G04 #@! TO.C,C15*
G36*
X213031638Y-192256754D02*
X213062437Y-192262220D01*
X213092553Y-192270678D01*
X213121694Y-192282047D01*
X213149581Y-192296218D01*
X213175944Y-192313053D01*
X213200531Y-192332392D01*
X213223103Y-192354048D01*
X213243444Y-192377812D01*
X213261358Y-192403455D01*
X213276672Y-192430730D01*
X213289239Y-192459376D01*
X213298938Y-192489115D01*
X213305675Y-192519661D01*
X213309386Y-192550721D01*
X213359087Y-193261485D01*
X213359735Y-193292759D01*
X213357315Y-193323946D01*
X213351849Y-193354746D01*
X213343391Y-193384861D01*
X213332022Y-193414002D01*
X213317851Y-193441889D01*
X213301015Y-193468253D01*
X213281677Y-193492839D01*
X213260021Y-193515411D01*
X213236257Y-193535752D01*
X213210614Y-193553666D01*
X213183338Y-193568980D01*
X213154693Y-193581547D01*
X213124954Y-193591246D01*
X213094407Y-193597983D01*
X213063348Y-193601694D01*
X212427401Y-193646164D01*
X212396127Y-193646812D01*
X212364940Y-193644392D01*
X212334141Y-193638926D01*
X212304025Y-193630468D01*
X212274884Y-193619099D01*
X212246997Y-193604928D01*
X212220634Y-193588093D01*
X212196047Y-193568754D01*
X212173475Y-193547098D01*
X212153134Y-193523334D01*
X212135220Y-193497691D01*
X212119906Y-193470416D01*
X212107339Y-193441770D01*
X212097640Y-193412031D01*
X212090903Y-193381485D01*
X212087192Y-193350425D01*
X212037491Y-192639661D01*
X212036843Y-192608387D01*
X212039263Y-192577200D01*
X212044729Y-192546400D01*
X212053187Y-192516285D01*
X212064556Y-192487144D01*
X212078727Y-192459257D01*
X212095563Y-192432893D01*
X212114901Y-192408307D01*
X212136557Y-192385735D01*
X212160321Y-192365394D01*
X212185964Y-192347480D01*
X212213240Y-192332166D01*
X212241885Y-192319599D01*
X212271624Y-192309900D01*
X212302171Y-192303163D01*
X212333230Y-192299452D01*
X212969177Y-192254982D01*
X213000451Y-192254334D01*
X213031638Y-192256754D01*
X213031638Y-192256754D01*
G37*
D11*
X212698289Y-192950573D03*
D10*
G36*
X214602802Y-192146888D02*
X214633601Y-192152354D01*
X214663717Y-192160812D01*
X214692858Y-192172181D01*
X214720745Y-192186352D01*
X214747108Y-192203187D01*
X214771695Y-192222526D01*
X214794267Y-192244182D01*
X214814608Y-192267946D01*
X214832522Y-192293589D01*
X214847836Y-192320864D01*
X214860403Y-192349510D01*
X214870102Y-192379249D01*
X214876839Y-192409795D01*
X214880550Y-192440855D01*
X214930251Y-193151619D01*
X214930899Y-193182893D01*
X214928479Y-193214080D01*
X214923013Y-193244880D01*
X214914555Y-193274995D01*
X214903186Y-193304136D01*
X214889015Y-193332023D01*
X214872179Y-193358387D01*
X214852841Y-193382973D01*
X214831185Y-193405545D01*
X214807421Y-193425886D01*
X214781778Y-193443800D01*
X214754502Y-193459114D01*
X214725857Y-193471681D01*
X214696118Y-193481380D01*
X214665571Y-193488117D01*
X214634512Y-193491828D01*
X213998565Y-193536298D01*
X213967291Y-193536946D01*
X213936104Y-193534526D01*
X213905305Y-193529060D01*
X213875189Y-193520602D01*
X213846048Y-193509233D01*
X213818161Y-193495062D01*
X213791798Y-193478227D01*
X213767211Y-193458888D01*
X213744639Y-193437232D01*
X213724298Y-193413468D01*
X213706384Y-193387825D01*
X213691070Y-193360550D01*
X213678503Y-193331904D01*
X213668804Y-193302165D01*
X213662067Y-193271619D01*
X213658356Y-193240559D01*
X213608655Y-192529795D01*
X213608007Y-192498521D01*
X213610427Y-192467334D01*
X213615893Y-192436534D01*
X213624351Y-192406419D01*
X213635720Y-192377278D01*
X213649891Y-192349391D01*
X213666727Y-192323027D01*
X213686065Y-192298441D01*
X213707721Y-192275869D01*
X213731485Y-192255528D01*
X213757128Y-192237614D01*
X213784404Y-192222300D01*
X213813049Y-192209733D01*
X213842788Y-192200034D01*
X213873335Y-192193297D01*
X213904394Y-192189586D01*
X214540341Y-192145116D01*
X214571615Y-192144468D01*
X214602802Y-192146888D01*
X214602802Y-192146888D01*
G37*
D11*
X214269453Y-192840707D03*
G04 #@! TD*
D12*
G04 #@! TO.C,U9*
X214620929Y-209009825D03*
D10*
G36*
X215391472Y-208310708D02*
X215537715Y-209501764D01*
X213850386Y-209708942D01*
X213704143Y-208517886D01*
X215391472Y-208310708D01*
X215391472Y-208310708D01*
G37*
D12*
X214464936Y-207739366D03*
D10*
G36*
X215235479Y-207040249D02*
X215381722Y-208231305D01*
X213694393Y-208438483D01*
X213548150Y-207247427D01*
X215235479Y-207040249D01*
X215235479Y-207040249D01*
G37*
D12*
X220717977Y-206971589D03*
D10*
G36*
X221488520Y-206272472D02*
X221634763Y-207463528D01*
X219947434Y-207670706D01*
X219801191Y-206479650D01*
X221488520Y-206272472D01*
X221488520Y-206272472D01*
G37*
D12*
X220873970Y-208242048D03*
D10*
G36*
X221644513Y-207542931D02*
X221790756Y-208733987D01*
X220103427Y-208941165D01*
X219957184Y-207750109D01*
X221644513Y-207542931D01*
X221644513Y-207542931D01*
G37*
G04 #@! TD*
D12*
G04 #@! TO.C,U8*
X212135299Y-204524948D03*
D10*
G36*
X211352672Y-205210510D02*
X211227238Y-204017084D01*
X212917926Y-203839386D01*
X213043360Y-205032812D01*
X211352672Y-205210510D01*
X211352672Y-205210510D01*
G37*
D12*
X212269095Y-205797936D03*
D10*
G36*
X211486468Y-206483498D02*
X211361034Y-205290072D01*
X213051722Y-205112374D01*
X213177156Y-206305800D01*
X211486468Y-206483498D01*
X211486468Y-206483498D01*
G37*
D12*
X206003607Y-206456466D03*
D10*
G36*
X205220980Y-207142028D02*
X205095546Y-205948602D01*
X206786234Y-205770904D01*
X206911668Y-206964330D01*
X205220980Y-207142028D01*
X205220980Y-207142028D01*
G37*
D12*
X205869811Y-205183478D03*
D10*
G36*
X205087184Y-205869040D02*
X204961750Y-204675614D01*
X206652438Y-204497916D01*
X206777872Y-205691342D01*
X205087184Y-205869040D01*
X205087184Y-205869040D01*
G37*
G04 #@! TD*
D12*
G04 #@! TO.C,U7*
X208711279Y-196293024D03*
D10*
G36*
X209369110Y-197099100D02*
X208172034Y-197182807D01*
X208053448Y-195486948D01*
X209250524Y-195403241D01*
X209369110Y-197099100D01*
X209369110Y-197099100D01*
G37*
D12*
X209988161Y-196203736D03*
D10*
G36*
X210645992Y-197009812D02*
X209448916Y-197093519D01*
X209330330Y-195397660D01*
X210527406Y-195313953D01*
X210645992Y-197009812D01*
X210645992Y-197009812D01*
G37*
D12*
X210427627Y-202488390D03*
D10*
G36*
X211085458Y-203294466D02*
X209888382Y-203378173D01*
X209769796Y-201682314D01*
X210966872Y-201598607D01*
X211085458Y-203294466D01*
X211085458Y-203294466D01*
G37*
D12*
X209150745Y-202577678D03*
D10*
G36*
X209808576Y-203383754D02*
X208611500Y-203467461D01*
X208492914Y-201771602D01*
X209689990Y-201687895D01*
X209808576Y-203383754D01*
X209808576Y-203383754D01*
G37*
G04 #@! TD*
D12*
G04 #@! TO.C,U6*
X219451687Y-195578602D03*
D10*
G36*
X218657215Y-196250401D02*
X218552628Y-195054968D01*
X220246159Y-194906803D01*
X220350746Y-196102236D01*
X218657215Y-196250401D01*
X218657215Y-196250401D01*
G37*
D12*
X219563246Y-196853731D03*
D10*
G36*
X218768774Y-197525530D02*
X218664187Y-196330097D01*
X220357718Y-196181932D01*
X220462305Y-197377365D01*
X218768774Y-197525530D01*
X218768774Y-197525530D01*
G37*
D12*
X213287219Y-197402812D03*
D10*
G36*
X212492747Y-198074611D02*
X212388160Y-196879178D01*
X214081691Y-196731013D01*
X214186278Y-197926446D01*
X212492747Y-198074611D01*
X212492747Y-198074611D01*
G37*
D12*
X213175660Y-196127683D03*
D10*
G36*
X212381188Y-196799482D02*
X212276601Y-195604049D01*
X213970132Y-195455884D01*
X214074719Y-196651317D01*
X212381188Y-196799482D01*
X212381188Y-196799482D01*
G37*
G04 #@! TD*
D13*
G04 #@! TO.C,U5*
X217619453Y-186240707D03*
D10*
G36*
X218793506Y-187261295D02*
X216598865Y-187414760D01*
X216445400Y-185220119D01*
X218640041Y-185066654D01*
X218793506Y-187261295D01*
X218793506Y-187261295D01*
G37*
D14*
X216927741Y-184935780D03*
D10*
G36*
X217532731Y-185344574D02*
X216385532Y-185424794D01*
X216322751Y-184526986D01*
X217469950Y-184446766D01*
X217532731Y-185344574D01*
X217532731Y-185344574D01*
G37*
D15*
X217700853Y-184881718D03*
D10*
G36*
X217333218Y-185358524D02*
X217270437Y-184460717D01*
X218068488Y-184404912D01*
X218131269Y-185302719D01*
X217333218Y-185358524D01*
X217333218Y-185358524D01*
G37*
D15*
X218299391Y-184839865D03*
D10*
G36*
X217931756Y-185316671D02*
X217868975Y-184418864D01*
X218667026Y-184363059D01*
X218729807Y-185260866D01*
X217931756Y-185316671D01*
X217931756Y-185316671D01*
G37*
D15*
X218487734Y-187533287D03*
D10*
G36*
X218120099Y-188010093D02*
X218057318Y-187112286D01*
X218855369Y-187056481D01*
X218918150Y-187954288D01*
X218120099Y-188010093D01*
X218120099Y-188010093D01*
G37*
D15*
X217889200Y-187575141D03*
D10*
G36*
X217521565Y-188051947D02*
X217458784Y-187154140D01*
X218256835Y-187098335D01*
X218319616Y-187996142D01*
X217521565Y-188051947D01*
X217521565Y-188051947D01*
G37*
D14*
X217116083Y-187629203D03*
D10*
G36*
X217721073Y-188037997D02*
X216573874Y-188118217D01*
X216511093Y-187220409D01*
X217658292Y-187140189D01*
X217721073Y-188037997D01*
X217721073Y-188037997D01*
G37*
G04 #@! TD*
D16*
G04 #@! TO.C,U4*
X221498624Y-155224833D03*
D10*
G36*
X221497884Y-154416115D02*
X222199364Y-154821115D01*
X221499364Y-156033551D01*
X220797884Y-155628551D01*
X221497884Y-154416115D01*
X221497884Y-154416115D01*
G37*
D16*
X220831785Y-154839833D03*
D10*
G36*
X220831045Y-154031115D02*
X221532525Y-154436115D01*
X220832525Y-155648551D01*
X220131045Y-155243551D01*
X220831045Y-154031115D01*
X220831045Y-154031115D01*
G37*
D16*
X220173605Y-154459833D03*
D10*
G36*
X220172865Y-153651115D02*
X220874345Y-154056115D01*
X220174345Y-155268551D01*
X219472865Y-154863551D01*
X220172865Y-153651115D01*
X220172865Y-153651115D01*
G37*
D16*
X219515426Y-154079833D03*
D10*
G36*
X219514686Y-153271115D02*
X220216166Y-153676115D01*
X219516166Y-154888551D01*
X218814686Y-154483551D01*
X219514686Y-153271115D01*
X219514686Y-153271115D01*
G37*
D16*
X218857247Y-153699833D03*
D10*
G36*
X218856507Y-152891115D02*
X219557987Y-153296115D01*
X218857987Y-154508551D01*
X218156507Y-154103551D01*
X218856507Y-152891115D01*
X218856507Y-152891115D01*
G37*
D16*
X214758819Y-150698519D03*
D10*
G36*
X213950101Y-150699259D02*
X214355101Y-149997779D01*
X215567537Y-150697779D01*
X215162537Y-151399259D01*
X213950101Y-150699259D01*
X213950101Y-150699259D01*
G37*
D16*
X215138819Y-150040340D03*
D10*
G36*
X214330101Y-150041080D02*
X214735101Y-149339600D01*
X215947537Y-150039600D01*
X215542537Y-150741080D01*
X214330101Y-150041080D01*
X214330101Y-150041080D01*
G37*
D16*
X215523819Y-149373501D03*
D10*
G36*
X214715101Y-149374241D02*
X215120101Y-148672761D01*
X216332537Y-149372761D01*
X215927537Y-150074241D01*
X214715101Y-149374241D01*
X214715101Y-149374241D01*
G37*
D16*
X215903819Y-148715321D03*
D10*
G36*
X215095101Y-148716061D02*
X215500101Y-148014581D01*
X216712537Y-148714581D01*
X216307537Y-149416061D01*
X215095101Y-148716061D01*
X215095101Y-148716061D01*
G37*
D16*
X216283819Y-148057142D03*
D10*
G36*
X215475101Y-148057882D02*
X215880101Y-147356402D01*
X217092537Y-148056402D01*
X216687537Y-148757882D01*
X215475101Y-148057882D01*
X215475101Y-148057882D01*
G37*
D16*
X216663819Y-147398963D03*
D10*
G36*
X215855101Y-147399703D02*
X216260101Y-146698223D01*
X217472537Y-147398223D01*
X217067537Y-148099703D01*
X215855101Y-147399703D01*
X215855101Y-147399703D01*
G37*
D16*
X217043819Y-146740782D03*
D10*
G36*
X216235101Y-146741522D02*
X216640101Y-146040042D01*
X217852537Y-146740042D01*
X217447537Y-147441522D01*
X216235101Y-146741522D01*
X216235101Y-146741522D01*
G37*
D16*
X217428819Y-146073944D03*
D10*
G36*
X216620101Y-146074684D02*
X217025101Y-145373204D01*
X218237537Y-146073204D01*
X217832537Y-146774684D01*
X216620101Y-146074684D01*
X216620101Y-146074684D01*
G37*
D16*
X217808819Y-145415764D03*
D10*
G36*
X217000101Y-145416504D02*
X217405101Y-144715024D01*
X218617537Y-145415024D01*
X218212537Y-146116504D01*
X217000101Y-145416504D01*
X217000101Y-145416504D01*
G37*
D16*
X218188819Y-144757585D03*
D10*
G36*
X217380101Y-144758325D02*
X217785101Y-144056845D01*
X218997537Y-144756845D01*
X218592537Y-145458325D01*
X217380101Y-144758325D01*
X217380101Y-144758325D01*
G37*
D16*
X218568819Y-144099406D03*
D10*
G36*
X217760101Y-144100146D02*
X218165101Y-143398666D01*
X219377537Y-144098666D01*
X218972537Y-144800146D01*
X217760101Y-144100146D01*
X217760101Y-144100146D01*
G37*
D16*
X218948819Y-143441227D03*
D10*
G36*
X218140101Y-143441967D02*
X218545101Y-142740487D01*
X219757537Y-143440487D01*
X219352537Y-144141967D01*
X218140101Y-143441967D01*
X218140101Y-143441967D01*
G37*
D16*
X220302690Y-143576252D03*
D10*
G36*
X220301950Y-142767534D02*
X221003430Y-143172534D01*
X220303430Y-144384970D01*
X219601950Y-143979970D01*
X220301950Y-142767534D01*
X220301950Y-142767534D01*
G37*
D16*
X220960869Y-143956252D03*
D10*
G36*
X220960129Y-143147534D02*
X221661609Y-143552534D01*
X220961609Y-144764970D01*
X220260129Y-144359970D01*
X220960129Y-143147534D01*
X220960129Y-143147534D01*
G37*
D16*
X221619049Y-144336252D03*
D10*
G36*
X221618309Y-143527534D02*
X222319789Y-143932534D01*
X221619789Y-145144970D01*
X220918309Y-144739970D01*
X221618309Y-143527534D01*
X221618309Y-143527534D01*
G37*
D16*
X222277228Y-144716252D03*
D10*
G36*
X222276488Y-143907534D02*
X222977968Y-144312534D01*
X222277968Y-145524970D01*
X221576488Y-145119970D01*
X222276488Y-143907534D01*
X222276488Y-143907534D01*
G37*
D16*
X218199068Y-153319833D03*
D10*
G36*
X218198328Y-152511115D02*
X218899808Y-152916115D01*
X218199808Y-154128551D01*
X217498328Y-153723551D01*
X218198328Y-152511115D01*
X218198328Y-152511115D01*
G37*
G04 #@! TD*
D17*
G04 #@! TO.C,U3*
X211802195Y-181132221D03*
D10*
G36*
X212368868Y-181913635D02*
X211320307Y-181968587D01*
X211235522Y-180350807D01*
X212284083Y-180295855D01*
X212368868Y-181913635D01*
X212368868Y-181913635D01*
G37*
D17*
X213699591Y-181032783D03*
D10*
G36*
X214266264Y-181814197D02*
X213217703Y-181869149D01*
X213132918Y-180251369D01*
X214181479Y-180196417D01*
X214266264Y-181814197D01*
X214266264Y-181814197D01*
G37*
D17*
X213836711Y-183649193D03*
D10*
G36*
X214403384Y-184430607D02*
X213354823Y-184485559D01*
X213270038Y-182867779D01*
X214318599Y-182812827D01*
X214403384Y-184430607D01*
X214403384Y-184430607D01*
G37*
D17*
X212888013Y-183698912D03*
D10*
G36*
X213454686Y-184480326D02*
X212406125Y-184535278D01*
X212321340Y-182917498D01*
X213369901Y-182862546D01*
X213454686Y-184480326D01*
X213454686Y-184480326D01*
G37*
D17*
X211939315Y-183748631D03*
D10*
G36*
X212505988Y-184530045D02*
X211457427Y-184584997D01*
X211372642Y-182967217D01*
X212421203Y-182912265D01*
X212505988Y-184530045D01*
X212505988Y-184530045D01*
G37*
G04 #@! TD*
D17*
G04 #@! TO.C,U1*
X214186711Y-189349193D03*
D10*
G36*
X213620038Y-188567779D02*
X214668599Y-188512827D01*
X214753384Y-190130607D01*
X213704823Y-190185559D01*
X213620038Y-188567779D01*
X213620038Y-188567779D01*
G37*
D17*
X212289315Y-189448631D03*
D10*
G36*
X211722642Y-188667217D02*
X212771203Y-188612265D01*
X212855988Y-190230045D01*
X211807427Y-190284997D01*
X211722642Y-188667217D01*
X211722642Y-188667217D01*
G37*
D17*
X212152195Y-186832221D03*
D10*
G36*
X211585522Y-186050807D02*
X212634083Y-185995855D01*
X212718868Y-187613635D01*
X211670307Y-187668587D01*
X211585522Y-186050807D01*
X211585522Y-186050807D01*
G37*
D17*
X213100893Y-186782502D03*
D10*
G36*
X212534220Y-186001088D02*
X213582781Y-185946136D01*
X213667566Y-187563916D01*
X212619005Y-187618868D01*
X212534220Y-186001088D01*
X212534220Y-186001088D01*
G37*
D17*
X214049591Y-186732783D03*
D10*
G36*
X213482918Y-185951369D02*
X214531479Y-185896417D01*
X214616264Y-187514197D01*
X213567703Y-187569149D01*
X213482918Y-185951369D01*
X213482918Y-185951369D01*
G37*
G04 #@! TD*
G04 #@! TO.C,R14*
G36*
X218756946Y-167479742D02*
X218787888Y-167484332D01*
X218818231Y-167491932D01*
X218847683Y-167502470D01*
X218875961Y-167515845D01*
X218902791Y-167531926D01*
X218927916Y-167550560D01*
X218951093Y-167571567D01*
X218972100Y-167594744D01*
X218990734Y-167619869D01*
X219006815Y-167646699D01*
X219020190Y-167674977D01*
X219030728Y-167704429D01*
X219038328Y-167734772D01*
X219042918Y-167765714D01*
X219044453Y-167796957D01*
X219044453Y-168434457D01*
X219042918Y-168465700D01*
X219038328Y-168496642D01*
X219030728Y-168526985D01*
X219020190Y-168556437D01*
X219006815Y-168584715D01*
X218990734Y-168611545D01*
X218972100Y-168636670D01*
X218951093Y-168659847D01*
X218927916Y-168680854D01*
X218902791Y-168699488D01*
X218875961Y-168715569D01*
X218847683Y-168728944D01*
X218818231Y-168739482D01*
X218787888Y-168747082D01*
X218756946Y-168751672D01*
X218725703Y-168753207D01*
X218013203Y-168753207D01*
X217981960Y-168751672D01*
X217951018Y-168747082D01*
X217920675Y-168739482D01*
X217891223Y-168728944D01*
X217862945Y-168715569D01*
X217836115Y-168699488D01*
X217810990Y-168680854D01*
X217787813Y-168659847D01*
X217766806Y-168636670D01*
X217748172Y-168611545D01*
X217732091Y-168584715D01*
X217718716Y-168556437D01*
X217708178Y-168526985D01*
X217700578Y-168496642D01*
X217695988Y-168465700D01*
X217694453Y-168434457D01*
X217694453Y-167796957D01*
X217695988Y-167765714D01*
X217700578Y-167734772D01*
X217708178Y-167704429D01*
X217718716Y-167674977D01*
X217732091Y-167646699D01*
X217748172Y-167619869D01*
X217766806Y-167594744D01*
X217787813Y-167571567D01*
X217810990Y-167550560D01*
X217836115Y-167531926D01*
X217862945Y-167515845D01*
X217891223Y-167502470D01*
X217920675Y-167491932D01*
X217951018Y-167484332D01*
X217981960Y-167479742D01*
X218013203Y-167478207D01*
X218725703Y-167478207D01*
X218756946Y-167479742D01*
X218756946Y-167479742D01*
G37*
D11*
X218369453Y-168115707D03*
D10*
G36*
X218756946Y-169054742D02*
X218787888Y-169059332D01*
X218818231Y-169066932D01*
X218847683Y-169077470D01*
X218875961Y-169090845D01*
X218902791Y-169106926D01*
X218927916Y-169125560D01*
X218951093Y-169146567D01*
X218972100Y-169169744D01*
X218990734Y-169194869D01*
X219006815Y-169221699D01*
X219020190Y-169249977D01*
X219030728Y-169279429D01*
X219038328Y-169309772D01*
X219042918Y-169340714D01*
X219044453Y-169371957D01*
X219044453Y-170009457D01*
X219042918Y-170040700D01*
X219038328Y-170071642D01*
X219030728Y-170101985D01*
X219020190Y-170131437D01*
X219006815Y-170159715D01*
X218990734Y-170186545D01*
X218972100Y-170211670D01*
X218951093Y-170234847D01*
X218927916Y-170255854D01*
X218902791Y-170274488D01*
X218875961Y-170290569D01*
X218847683Y-170303944D01*
X218818231Y-170314482D01*
X218787888Y-170322082D01*
X218756946Y-170326672D01*
X218725703Y-170328207D01*
X218013203Y-170328207D01*
X217981960Y-170326672D01*
X217951018Y-170322082D01*
X217920675Y-170314482D01*
X217891223Y-170303944D01*
X217862945Y-170290569D01*
X217836115Y-170274488D01*
X217810990Y-170255854D01*
X217787813Y-170234847D01*
X217766806Y-170211670D01*
X217748172Y-170186545D01*
X217732091Y-170159715D01*
X217718716Y-170131437D01*
X217708178Y-170101985D01*
X217700578Y-170071642D01*
X217695988Y-170040700D01*
X217694453Y-170009457D01*
X217694453Y-169371957D01*
X217695988Y-169340714D01*
X217700578Y-169309772D01*
X217708178Y-169279429D01*
X217718716Y-169249977D01*
X217732091Y-169221699D01*
X217748172Y-169194869D01*
X217766806Y-169169744D01*
X217787813Y-169146567D01*
X217810990Y-169125560D01*
X217836115Y-169106926D01*
X217862945Y-169090845D01*
X217891223Y-169077470D01*
X217920675Y-169066932D01*
X217951018Y-169059332D01*
X217981960Y-169054742D01*
X218013203Y-169053207D01*
X218725703Y-169053207D01*
X218756946Y-169054742D01*
X218756946Y-169054742D01*
G37*
D11*
X218369453Y-169690707D03*
G04 #@! TD*
D10*
G04 #@! TO.C,R13*
G36*
X213956946Y-171342242D02*
X213987888Y-171346832D01*
X214018231Y-171354432D01*
X214047683Y-171364970D01*
X214075961Y-171378345D01*
X214102791Y-171394426D01*
X214127916Y-171413060D01*
X214151093Y-171434067D01*
X214172100Y-171457244D01*
X214190734Y-171482369D01*
X214206815Y-171509199D01*
X214220190Y-171537477D01*
X214230728Y-171566929D01*
X214238328Y-171597272D01*
X214242918Y-171628214D01*
X214244453Y-171659457D01*
X214244453Y-172296957D01*
X214242918Y-172328200D01*
X214238328Y-172359142D01*
X214230728Y-172389485D01*
X214220190Y-172418937D01*
X214206815Y-172447215D01*
X214190734Y-172474045D01*
X214172100Y-172499170D01*
X214151093Y-172522347D01*
X214127916Y-172543354D01*
X214102791Y-172561988D01*
X214075961Y-172578069D01*
X214047683Y-172591444D01*
X214018231Y-172601982D01*
X213987888Y-172609582D01*
X213956946Y-172614172D01*
X213925703Y-172615707D01*
X213213203Y-172615707D01*
X213181960Y-172614172D01*
X213151018Y-172609582D01*
X213120675Y-172601982D01*
X213091223Y-172591444D01*
X213062945Y-172578069D01*
X213036115Y-172561988D01*
X213010990Y-172543354D01*
X212987813Y-172522347D01*
X212966806Y-172499170D01*
X212948172Y-172474045D01*
X212932091Y-172447215D01*
X212918716Y-172418937D01*
X212908178Y-172389485D01*
X212900578Y-172359142D01*
X212895988Y-172328200D01*
X212894453Y-172296957D01*
X212894453Y-171659457D01*
X212895988Y-171628214D01*
X212900578Y-171597272D01*
X212908178Y-171566929D01*
X212918716Y-171537477D01*
X212932091Y-171509199D01*
X212948172Y-171482369D01*
X212966806Y-171457244D01*
X212987813Y-171434067D01*
X213010990Y-171413060D01*
X213036115Y-171394426D01*
X213062945Y-171378345D01*
X213091223Y-171364970D01*
X213120675Y-171354432D01*
X213151018Y-171346832D01*
X213181960Y-171342242D01*
X213213203Y-171340707D01*
X213925703Y-171340707D01*
X213956946Y-171342242D01*
X213956946Y-171342242D01*
G37*
D11*
X213569453Y-171978207D03*
D10*
G36*
X213956946Y-169767242D02*
X213987888Y-169771832D01*
X214018231Y-169779432D01*
X214047683Y-169789970D01*
X214075961Y-169803345D01*
X214102791Y-169819426D01*
X214127916Y-169838060D01*
X214151093Y-169859067D01*
X214172100Y-169882244D01*
X214190734Y-169907369D01*
X214206815Y-169934199D01*
X214220190Y-169962477D01*
X214230728Y-169991929D01*
X214238328Y-170022272D01*
X214242918Y-170053214D01*
X214244453Y-170084457D01*
X214244453Y-170721957D01*
X214242918Y-170753200D01*
X214238328Y-170784142D01*
X214230728Y-170814485D01*
X214220190Y-170843937D01*
X214206815Y-170872215D01*
X214190734Y-170899045D01*
X214172100Y-170924170D01*
X214151093Y-170947347D01*
X214127916Y-170968354D01*
X214102791Y-170986988D01*
X214075961Y-171003069D01*
X214047683Y-171016444D01*
X214018231Y-171026982D01*
X213987888Y-171034582D01*
X213956946Y-171039172D01*
X213925703Y-171040707D01*
X213213203Y-171040707D01*
X213181960Y-171039172D01*
X213151018Y-171034582D01*
X213120675Y-171026982D01*
X213091223Y-171016444D01*
X213062945Y-171003069D01*
X213036115Y-170986988D01*
X213010990Y-170968354D01*
X212987813Y-170947347D01*
X212966806Y-170924170D01*
X212948172Y-170899045D01*
X212932091Y-170872215D01*
X212918716Y-170843937D01*
X212908178Y-170814485D01*
X212900578Y-170784142D01*
X212895988Y-170753200D01*
X212894453Y-170721957D01*
X212894453Y-170084457D01*
X212895988Y-170053214D01*
X212900578Y-170022272D01*
X212908178Y-169991929D01*
X212918716Y-169962477D01*
X212932091Y-169934199D01*
X212948172Y-169907369D01*
X212966806Y-169882244D01*
X212987813Y-169859067D01*
X213010990Y-169838060D01*
X213036115Y-169819426D01*
X213062945Y-169803345D01*
X213091223Y-169789970D01*
X213120675Y-169779432D01*
X213151018Y-169771832D01*
X213181960Y-169767242D01*
X213213203Y-169765707D01*
X213925703Y-169765707D01*
X213956946Y-169767242D01*
X213956946Y-169767242D01*
G37*
D11*
X213569453Y-170403207D03*
G04 #@! TD*
D10*
G04 #@! TO.C,R12*
G36*
X215656946Y-169754742D02*
X215687888Y-169759332D01*
X215718231Y-169766932D01*
X215747683Y-169777470D01*
X215775961Y-169790845D01*
X215802791Y-169806926D01*
X215827916Y-169825560D01*
X215851093Y-169846567D01*
X215872100Y-169869744D01*
X215890734Y-169894869D01*
X215906815Y-169921699D01*
X215920190Y-169949977D01*
X215930728Y-169979429D01*
X215938328Y-170009772D01*
X215942918Y-170040714D01*
X215944453Y-170071957D01*
X215944453Y-170709457D01*
X215942918Y-170740700D01*
X215938328Y-170771642D01*
X215930728Y-170801985D01*
X215920190Y-170831437D01*
X215906815Y-170859715D01*
X215890734Y-170886545D01*
X215872100Y-170911670D01*
X215851093Y-170934847D01*
X215827916Y-170955854D01*
X215802791Y-170974488D01*
X215775961Y-170990569D01*
X215747683Y-171003944D01*
X215718231Y-171014482D01*
X215687888Y-171022082D01*
X215656946Y-171026672D01*
X215625703Y-171028207D01*
X214913203Y-171028207D01*
X214881960Y-171026672D01*
X214851018Y-171022082D01*
X214820675Y-171014482D01*
X214791223Y-171003944D01*
X214762945Y-170990569D01*
X214736115Y-170974488D01*
X214710990Y-170955854D01*
X214687813Y-170934847D01*
X214666806Y-170911670D01*
X214648172Y-170886545D01*
X214632091Y-170859715D01*
X214618716Y-170831437D01*
X214608178Y-170801985D01*
X214600578Y-170771642D01*
X214595988Y-170740700D01*
X214594453Y-170709457D01*
X214594453Y-170071957D01*
X214595988Y-170040714D01*
X214600578Y-170009772D01*
X214608178Y-169979429D01*
X214618716Y-169949977D01*
X214632091Y-169921699D01*
X214648172Y-169894869D01*
X214666806Y-169869744D01*
X214687813Y-169846567D01*
X214710990Y-169825560D01*
X214736115Y-169806926D01*
X214762945Y-169790845D01*
X214791223Y-169777470D01*
X214820675Y-169766932D01*
X214851018Y-169759332D01*
X214881960Y-169754742D01*
X214913203Y-169753207D01*
X215625703Y-169753207D01*
X215656946Y-169754742D01*
X215656946Y-169754742D01*
G37*
D11*
X215269453Y-170390707D03*
D10*
G36*
X215656946Y-171329742D02*
X215687888Y-171334332D01*
X215718231Y-171341932D01*
X215747683Y-171352470D01*
X215775961Y-171365845D01*
X215802791Y-171381926D01*
X215827916Y-171400560D01*
X215851093Y-171421567D01*
X215872100Y-171444744D01*
X215890734Y-171469869D01*
X215906815Y-171496699D01*
X215920190Y-171524977D01*
X215930728Y-171554429D01*
X215938328Y-171584772D01*
X215942918Y-171615714D01*
X215944453Y-171646957D01*
X215944453Y-172284457D01*
X215942918Y-172315700D01*
X215938328Y-172346642D01*
X215930728Y-172376985D01*
X215920190Y-172406437D01*
X215906815Y-172434715D01*
X215890734Y-172461545D01*
X215872100Y-172486670D01*
X215851093Y-172509847D01*
X215827916Y-172530854D01*
X215802791Y-172549488D01*
X215775961Y-172565569D01*
X215747683Y-172578944D01*
X215718231Y-172589482D01*
X215687888Y-172597082D01*
X215656946Y-172601672D01*
X215625703Y-172603207D01*
X214913203Y-172603207D01*
X214881960Y-172601672D01*
X214851018Y-172597082D01*
X214820675Y-172589482D01*
X214791223Y-172578944D01*
X214762945Y-172565569D01*
X214736115Y-172549488D01*
X214710990Y-172530854D01*
X214687813Y-172509847D01*
X214666806Y-172486670D01*
X214648172Y-172461545D01*
X214632091Y-172434715D01*
X214618716Y-172406437D01*
X214608178Y-172376985D01*
X214600578Y-172346642D01*
X214595988Y-172315700D01*
X214594453Y-172284457D01*
X214594453Y-171646957D01*
X214595988Y-171615714D01*
X214600578Y-171584772D01*
X214608178Y-171554429D01*
X214618716Y-171524977D01*
X214632091Y-171496699D01*
X214648172Y-171469869D01*
X214666806Y-171444744D01*
X214687813Y-171421567D01*
X214710990Y-171400560D01*
X214736115Y-171381926D01*
X214762945Y-171365845D01*
X214791223Y-171352470D01*
X214820675Y-171341932D01*
X214851018Y-171334332D01*
X214881960Y-171329742D01*
X214913203Y-171328207D01*
X215625703Y-171328207D01*
X215656946Y-171329742D01*
X215656946Y-171329742D01*
G37*
D11*
X215269453Y-171965707D03*
G04 #@! TD*
D10*
G04 #@! TO.C,R11*
G36*
X219790642Y-193022542D02*
X219821532Y-193027469D01*
X219851791Y-193035400D01*
X219881126Y-193046258D01*
X219909256Y-193059940D01*
X219935909Y-193076313D01*
X219960829Y-193095220D01*
X219983776Y-193116479D01*
X220004529Y-193139884D01*
X220022888Y-193165210D01*
X220038676Y-193192215D01*
X220051741Y-193220636D01*
X220061957Y-193250201D01*
X220069226Y-193280626D01*
X220073478Y-193311616D01*
X220135576Y-194021404D01*
X220136770Y-194052662D01*
X220134894Y-194083886D01*
X220129967Y-194114777D01*
X220122036Y-194145035D01*
X220111177Y-194174371D01*
X220097496Y-194202500D01*
X220081122Y-194229154D01*
X220062216Y-194254074D01*
X220040957Y-194277021D01*
X220017552Y-194297773D01*
X219992225Y-194316132D01*
X219965221Y-194331920D01*
X219936800Y-194344985D01*
X219907234Y-194355201D01*
X219876810Y-194362470D01*
X219845820Y-194366722D01*
X219210746Y-194422284D01*
X219179488Y-194423478D01*
X219148264Y-194421602D01*
X219117374Y-194416675D01*
X219087115Y-194408744D01*
X219057780Y-194397886D01*
X219029650Y-194384204D01*
X219002997Y-194367831D01*
X218978077Y-194348924D01*
X218955130Y-194327665D01*
X218934377Y-194304260D01*
X218916018Y-194278934D01*
X218900230Y-194251929D01*
X218887165Y-194223508D01*
X218876949Y-194193943D01*
X218869680Y-194163518D01*
X218865428Y-194132528D01*
X218803330Y-193422740D01*
X218802136Y-193391482D01*
X218804012Y-193360258D01*
X218808939Y-193329367D01*
X218816870Y-193299109D01*
X218827729Y-193269773D01*
X218841410Y-193241644D01*
X218857784Y-193214990D01*
X218876690Y-193190070D01*
X218897949Y-193167123D01*
X218921354Y-193146371D01*
X218946681Y-193128012D01*
X218973685Y-193112224D01*
X219002106Y-193099159D01*
X219031672Y-193088943D01*
X219062096Y-193081674D01*
X219093086Y-193077422D01*
X219728160Y-193021860D01*
X219759418Y-193020666D01*
X219790642Y-193022542D01*
X219790642Y-193022542D01*
G37*
D11*
X219469453Y-193722072D03*
D10*
G36*
X218221636Y-193159812D02*
X218252526Y-193164739D01*
X218282785Y-193172670D01*
X218312120Y-193183528D01*
X218340250Y-193197210D01*
X218366903Y-193213583D01*
X218391823Y-193232490D01*
X218414770Y-193253749D01*
X218435523Y-193277154D01*
X218453882Y-193302480D01*
X218469670Y-193329485D01*
X218482735Y-193357906D01*
X218492951Y-193387471D01*
X218500220Y-193417896D01*
X218504472Y-193448886D01*
X218566570Y-194158674D01*
X218567764Y-194189932D01*
X218565888Y-194221156D01*
X218560961Y-194252047D01*
X218553030Y-194282305D01*
X218542171Y-194311641D01*
X218528490Y-194339770D01*
X218512116Y-194366424D01*
X218493210Y-194391344D01*
X218471951Y-194414291D01*
X218448546Y-194435043D01*
X218423219Y-194453402D01*
X218396215Y-194469190D01*
X218367794Y-194482255D01*
X218338228Y-194492471D01*
X218307804Y-194499740D01*
X218276814Y-194503992D01*
X217641740Y-194559554D01*
X217610482Y-194560748D01*
X217579258Y-194558872D01*
X217548368Y-194553945D01*
X217518109Y-194546014D01*
X217488774Y-194535156D01*
X217460644Y-194521474D01*
X217433991Y-194505101D01*
X217409071Y-194486194D01*
X217386124Y-194464935D01*
X217365371Y-194441530D01*
X217347012Y-194416204D01*
X217331224Y-194389199D01*
X217318159Y-194360778D01*
X217307943Y-194331213D01*
X217300674Y-194300788D01*
X217296422Y-194269798D01*
X217234324Y-193560010D01*
X217233130Y-193528752D01*
X217235006Y-193497528D01*
X217239933Y-193466637D01*
X217247864Y-193436379D01*
X217258723Y-193407043D01*
X217272404Y-193378914D01*
X217288778Y-193352260D01*
X217307684Y-193327340D01*
X217328943Y-193304393D01*
X217352348Y-193283641D01*
X217377675Y-193265282D01*
X217404679Y-193249494D01*
X217433100Y-193236429D01*
X217462666Y-193226213D01*
X217493090Y-193218944D01*
X217524080Y-193214692D01*
X218159154Y-193159130D01*
X218190412Y-193157936D01*
X218221636Y-193159812D01*
X218221636Y-193159812D01*
G37*
D11*
X217900447Y-193859342D03*
G04 #@! TD*
D10*
G04 #@! TO.C,R10*
G36*
X216797446Y-181759242D02*
X216828388Y-181763832D01*
X216858731Y-181771432D01*
X216888183Y-181781970D01*
X216916461Y-181795345D01*
X216943291Y-181811426D01*
X216968416Y-181830060D01*
X216991593Y-181851067D01*
X217012600Y-181874244D01*
X217031234Y-181899369D01*
X217047315Y-181926199D01*
X217060690Y-181954477D01*
X217071228Y-181983929D01*
X217078828Y-182014272D01*
X217083418Y-182045214D01*
X217084953Y-182076457D01*
X217084953Y-182788957D01*
X217083418Y-182820200D01*
X217078828Y-182851142D01*
X217071228Y-182881485D01*
X217060690Y-182910937D01*
X217047315Y-182939215D01*
X217031234Y-182966045D01*
X217012600Y-182991170D01*
X216991593Y-183014347D01*
X216968416Y-183035354D01*
X216943291Y-183053988D01*
X216916461Y-183070069D01*
X216888183Y-183083444D01*
X216858731Y-183093982D01*
X216828388Y-183101582D01*
X216797446Y-183106172D01*
X216766203Y-183107707D01*
X216128703Y-183107707D01*
X216097460Y-183106172D01*
X216066518Y-183101582D01*
X216036175Y-183093982D01*
X216006723Y-183083444D01*
X215978445Y-183070069D01*
X215951615Y-183053988D01*
X215926490Y-183035354D01*
X215903313Y-183014347D01*
X215882306Y-182991170D01*
X215863672Y-182966045D01*
X215847591Y-182939215D01*
X215834216Y-182910937D01*
X215823678Y-182881485D01*
X215816078Y-182851142D01*
X215811488Y-182820200D01*
X215809953Y-182788957D01*
X215809953Y-182076457D01*
X215811488Y-182045214D01*
X215816078Y-182014272D01*
X215823678Y-181983929D01*
X215834216Y-181954477D01*
X215847591Y-181926199D01*
X215863672Y-181899369D01*
X215882306Y-181874244D01*
X215903313Y-181851067D01*
X215926490Y-181830060D01*
X215951615Y-181811426D01*
X215978445Y-181795345D01*
X216006723Y-181781970D01*
X216036175Y-181771432D01*
X216066518Y-181763832D01*
X216097460Y-181759242D01*
X216128703Y-181757707D01*
X216766203Y-181757707D01*
X216797446Y-181759242D01*
X216797446Y-181759242D01*
G37*
D11*
X216447453Y-182432707D03*
D10*
G36*
X218372446Y-181759242D02*
X218403388Y-181763832D01*
X218433731Y-181771432D01*
X218463183Y-181781970D01*
X218491461Y-181795345D01*
X218518291Y-181811426D01*
X218543416Y-181830060D01*
X218566593Y-181851067D01*
X218587600Y-181874244D01*
X218606234Y-181899369D01*
X218622315Y-181926199D01*
X218635690Y-181954477D01*
X218646228Y-181983929D01*
X218653828Y-182014272D01*
X218658418Y-182045214D01*
X218659953Y-182076457D01*
X218659953Y-182788957D01*
X218658418Y-182820200D01*
X218653828Y-182851142D01*
X218646228Y-182881485D01*
X218635690Y-182910937D01*
X218622315Y-182939215D01*
X218606234Y-182966045D01*
X218587600Y-182991170D01*
X218566593Y-183014347D01*
X218543416Y-183035354D01*
X218518291Y-183053988D01*
X218491461Y-183070069D01*
X218463183Y-183083444D01*
X218433731Y-183093982D01*
X218403388Y-183101582D01*
X218372446Y-183106172D01*
X218341203Y-183107707D01*
X217703703Y-183107707D01*
X217672460Y-183106172D01*
X217641518Y-183101582D01*
X217611175Y-183093982D01*
X217581723Y-183083444D01*
X217553445Y-183070069D01*
X217526615Y-183053988D01*
X217501490Y-183035354D01*
X217478313Y-183014347D01*
X217457306Y-182991170D01*
X217438672Y-182966045D01*
X217422591Y-182939215D01*
X217409216Y-182910937D01*
X217398678Y-182881485D01*
X217391078Y-182851142D01*
X217386488Y-182820200D01*
X217384953Y-182788957D01*
X217384953Y-182076457D01*
X217386488Y-182045214D01*
X217391078Y-182014272D01*
X217398678Y-181983929D01*
X217409216Y-181954477D01*
X217422591Y-181926199D01*
X217438672Y-181899369D01*
X217457306Y-181874244D01*
X217478313Y-181851067D01*
X217501490Y-181830060D01*
X217526615Y-181811426D01*
X217553445Y-181795345D01*
X217581723Y-181781970D01*
X217611175Y-181771432D01*
X217641518Y-181763832D01*
X217672460Y-181759242D01*
X217703703Y-181757707D01*
X218341203Y-181757707D01*
X218372446Y-181759242D01*
X218372446Y-181759242D01*
G37*
D11*
X218022453Y-182432707D03*
G04 #@! TD*
D10*
G04 #@! TO.C,R9*
G36*
X222656946Y-136867242D02*
X222687888Y-136871832D01*
X222718231Y-136879432D01*
X222747683Y-136889970D01*
X222775961Y-136903345D01*
X222802791Y-136919426D01*
X222827916Y-136938060D01*
X222851093Y-136959067D01*
X222872100Y-136982244D01*
X222890734Y-137007369D01*
X222906815Y-137034199D01*
X222920190Y-137062477D01*
X222930728Y-137091929D01*
X222938328Y-137122272D01*
X222942918Y-137153214D01*
X222944453Y-137184457D01*
X222944453Y-137821957D01*
X222942918Y-137853200D01*
X222938328Y-137884142D01*
X222930728Y-137914485D01*
X222920190Y-137943937D01*
X222906815Y-137972215D01*
X222890734Y-137999045D01*
X222872100Y-138024170D01*
X222851093Y-138047347D01*
X222827916Y-138068354D01*
X222802791Y-138086988D01*
X222775961Y-138103069D01*
X222747683Y-138116444D01*
X222718231Y-138126982D01*
X222687888Y-138134582D01*
X222656946Y-138139172D01*
X222625703Y-138140707D01*
X221913203Y-138140707D01*
X221881960Y-138139172D01*
X221851018Y-138134582D01*
X221820675Y-138126982D01*
X221791223Y-138116444D01*
X221762945Y-138103069D01*
X221736115Y-138086988D01*
X221710990Y-138068354D01*
X221687813Y-138047347D01*
X221666806Y-138024170D01*
X221648172Y-137999045D01*
X221632091Y-137972215D01*
X221618716Y-137943937D01*
X221608178Y-137914485D01*
X221600578Y-137884142D01*
X221595988Y-137853200D01*
X221594453Y-137821957D01*
X221594453Y-137184457D01*
X221595988Y-137153214D01*
X221600578Y-137122272D01*
X221608178Y-137091929D01*
X221618716Y-137062477D01*
X221632091Y-137034199D01*
X221648172Y-137007369D01*
X221666806Y-136982244D01*
X221687813Y-136959067D01*
X221710990Y-136938060D01*
X221736115Y-136919426D01*
X221762945Y-136903345D01*
X221791223Y-136889970D01*
X221820675Y-136879432D01*
X221851018Y-136871832D01*
X221881960Y-136867242D01*
X221913203Y-136865707D01*
X222625703Y-136865707D01*
X222656946Y-136867242D01*
X222656946Y-136867242D01*
G37*
D11*
X222269453Y-137503207D03*
D10*
G36*
X222656946Y-138442242D02*
X222687888Y-138446832D01*
X222718231Y-138454432D01*
X222747683Y-138464970D01*
X222775961Y-138478345D01*
X222802791Y-138494426D01*
X222827916Y-138513060D01*
X222851093Y-138534067D01*
X222872100Y-138557244D01*
X222890734Y-138582369D01*
X222906815Y-138609199D01*
X222920190Y-138637477D01*
X222930728Y-138666929D01*
X222938328Y-138697272D01*
X222942918Y-138728214D01*
X222944453Y-138759457D01*
X222944453Y-139396957D01*
X222942918Y-139428200D01*
X222938328Y-139459142D01*
X222930728Y-139489485D01*
X222920190Y-139518937D01*
X222906815Y-139547215D01*
X222890734Y-139574045D01*
X222872100Y-139599170D01*
X222851093Y-139622347D01*
X222827916Y-139643354D01*
X222802791Y-139661988D01*
X222775961Y-139678069D01*
X222747683Y-139691444D01*
X222718231Y-139701982D01*
X222687888Y-139709582D01*
X222656946Y-139714172D01*
X222625703Y-139715707D01*
X221913203Y-139715707D01*
X221881960Y-139714172D01*
X221851018Y-139709582D01*
X221820675Y-139701982D01*
X221791223Y-139691444D01*
X221762945Y-139678069D01*
X221736115Y-139661988D01*
X221710990Y-139643354D01*
X221687813Y-139622347D01*
X221666806Y-139599170D01*
X221648172Y-139574045D01*
X221632091Y-139547215D01*
X221618716Y-139518937D01*
X221608178Y-139489485D01*
X221600578Y-139459142D01*
X221595988Y-139428200D01*
X221594453Y-139396957D01*
X221594453Y-138759457D01*
X221595988Y-138728214D01*
X221600578Y-138697272D01*
X221608178Y-138666929D01*
X221618716Y-138637477D01*
X221632091Y-138609199D01*
X221648172Y-138582369D01*
X221666806Y-138557244D01*
X221687813Y-138534067D01*
X221710990Y-138513060D01*
X221736115Y-138494426D01*
X221762945Y-138478345D01*
X221791223Y-138464970D01*
X221820675Y-138454432D01*
X221851018Y-138446832D01*
X221881960Y-138442242D01*
X221913203Y-138440707D01*
X222625703Y-138440707D01*
X222656946Y-138442242D01*
X222656946Y-138442242D01*
G37*
D11*
X222269453Y-139078207D03*
G04 #@! TD*
D10*
G04 #@! TO.C,R8*
G36*
X219656946Y-136854742D02*
X219687888Y-136859332D01*
X219718231Y-136866932D01*
X219747683Y-136877470D01*
X219775961Y-136890845D01*
X219802791Y-136906926D01*
X219827916Y-136925560D01*
X219851093Y-136946567D01*
X219872100Y-136969744D01*
X219890734Y-136994869D01*
X219906815Y-137021699D01*
X219920190Y-137049977D01*
X219930728Y-137079429D01*
X219938328Y-137109772D01*
X219942918Y-137140714D01*
X219944453Y-137171957D01*
X219944453Y-137809457D01*
X219942918Y-137840700D01*
X219938328Y-137871642D01*
X219930728Y-137901985D01*
X219920190Y-137931437D01*
X219906815Y-137959715D01*
X219890734Y-137986545D01*
X219872100Y-138011670D01*
X219851093Y-138034847D01*
X219827916Y-138055854D01*
X219802791Y-138074488D01*
X219775961Y-138090569D01*
X219747683Y-138103944D01*
X219718231Y-138114482D01*
X219687888Y-138122082D01*
X219656946Y-138126672D01*
X219625703Y-138128207D01*
X218913203Y-138128207D01*
X218881960Y-138126672D01*
X218851018Y-138122082D01*
X218820675Y-138114482D01*
X218791223Y-138103944D01*
X218762945Y-138090569D01*
X218736115Y-138074488D01*
X218710990Y-138055854D01*
X218687813Y-138034847D01*
X218666806Y-138011670D01*
X218648172Y-137986545D01*
X218632091Y-137959715D01*
X218618716Y-137931437D01*
X218608178Y-137901985D01*
X218600578Y-137871642D01*
X218595988Y-137840700D01*
X218594453Y-137809457D01*
X218594453Y-137171957D01*
X218595988Y-137140714D01*
X218600578Y-137109772D01*
X218608178Y-137079429D01*
X218618716Y-137049977D01*
X218632091Y-137021699D01*
X218648172Y-136994869D01*
X218666806Y-136969744D01*
X218687813Y-136946567D01*
X218710990Y-136925560D01*
X218736115Y-136906926D01*
X218762945Y-136890845D01*
X218791223Y-136877470D01*
X218820675Y-136866932D01*
X218851018Y-136859332D01*
X218881960Y-136854742D01*
X218913203Y-136853207D01*
X219625703Y-136853207D01*
X219656946Y-136854742D01*
X219656946Y-136854742D01*
G37*
D11*
X219269453Y-137490707D03*
D10*
G36*
X219656946Y-138429742D02*
X219687888Y-138434332D01*
X219718231Y-138441932D01*
X219747683Y-138452470D01*
X219775961Y-138465845D01*
X219802791Y-138481926D01*
X219827916Y-138500560D01*
X219851093Y-138521567D01*
X219872100Y-138544744D01*
X219890734Y-138569869D01*
X219906815Y-138596699D01*
X219920190Y-138624977D01*
X219930728Y-138654429D01*
X219938328Y-138684772D01*
X219942918Y-138715714D01*
X219944453Y-138746957D01*
X219944453Y-139384457D01*
X219942918Y-139415700D01*
X219938328Y-139446642D01*
X219930728Y-139476985D01*
X219920190Y-139506437D01*
X219906815Y-139534715D01*
X219890734Y-139561545D01*
X219872100Y-139586670D01*
X219851093Y-139609847D01*
X219827916Y-139630854D01*
X219802791Y-139649488D01*
X219775961Y-139665569D01*
X219747683Y-139678944D01*
X219718231Y-139689482D01*
X219687888Y-139697082D01*
X219656946Y-139701672D01*
X219625703Y-139703207D01*
X218913203Y-139703207D01*
X218881960Y-139701672D01*
X218851018Y-139697082D01*
X218820675Y-139689482D01*
X218791223Y-139678944D01*
X218762945Y-139665569D01*
X218736115Y-139649488D01*
X218710990Y-139630854D01*
X218687813Y-139609847D01*
X218666806Y-139586670D01*
X218648172Y-139561545D01*
X218632091Y-139534715D01*
X218618716Y-139506437D01*
X218608178Y-139476985D01*
X218600578Y-139446642D01*
X218595988Y-139415700D01*
X218594453Y-139384457D01*
X218594453Y-138746957D01*
X218595988Y-138715714D01*
X218600578Y-138684772D01*
X218608178Y-138654429D01*
X218618716Y-138624977D01*
X218632091Y-138596699D01*
X218648172Y-138569869D01*
X218666806Y-138544744D01*
X218687813Y-138521567D01*
X218710990Y-138500560D01*
X218736115Y-138481926D01*
X218762945Y-138465845D01*
X218791223Y-138452470D01*
X218820675Y-138441932D01*
X218851018Y-138434332D01*
X218881960Y-138429742D01*
X218913203Y-138428207D01*
X219625703Y-138428207D01*
X219656946Y-138429742D01*
X219656946Y-138429742D01*
G37*
D11*
X219269453Y-139065707D03*
G04 #@! TD*
D10*
G04 #@! TO.C,R7*
G36*
X204431946Y-157367242D02*
X204462888Y-157371832D01*
X204493231Y-157379432D01*
X204522683Y-157389970D01*
X204550961Y-157403345D01*
X204577791Y-157419426D01*
X204602916Y-157438060D01*
X204626093Y-157459067D01*
X204647100Y-157482244D01*
X204665734Y-157507369D01*
X204681815Y-157534199D01*
X204695190Y-157562477D01*
X204705728Y-157591929D01*
X204713328Y-157622272D01*
X204717918Y-157653214D01*
X204719453Y-157684457D01*
X204719453Y-158396957D01*
X204717918Y-158428200D01*
X204713328Y-158459142D01*
X204705728Y-158489485D01*
X204695190Y-158518937D01*
X204681815Y-158547215D01*
X204665734Y-158574045D01*
X204647100Y-158599170D01*
X204626093Y-158622347D01*
X204602916Y-158643354D01*
X204577791Y-158661988D01*
X204550961Y-158678069D01*
X204522683Y-158691444D01*
X204493231Y-158701982D01*
X204462888Y-158709582D01*
X204431946Y-158714172D01*
X204400703Y-158715707D01*
X203763203Y-158715707D01*
X203731960Y-158714172D01*
X203701018Y-158709582D01*
X203670675Y-158701982D01*
X203641223Y-158691444D01*
X203612945Y-158678069D01*
X203586115Y-158661988D01*
X203560990Y-158643354D01*
X203537813Y-158622347D01*
X203516806Y-158599170D01*
X203498172Y-158574045D01*
X203482091Y-158547215D01*
X203468716Y-158518937D01*
X203458178Y-158489485D01*
X203450578Y-158459142D01*
X203445988Y-158428200D01*
X203444453Y-158396957D01*
X203444453Y-157684457D01*
X203445988Y-157653214D01*
X203450578Y-157622272D01*
X203458178Y-157591929D01*
X203468716Y-157562477D01*
X203482091Y-157534199D01*
X203498172Y-157507369D01*
X203516806Y-157482244D01*
X203537813Y-157459067D01*
X203560990Y-157438060D01*
X203586115Y-157419426D01*
X203612945Y-157403345D01*
X203641223Y-157389970D01*
X203670675Y-157379432D01*
X203701018Y-157371832D01*
X203731960Y-157367242D01*
X203763203Y-157365707D01*
X204400703Y-157365707D01*
X204431946Y-157367242D01*
X204431946Y-157367242D01*
G37*
D11*
X204081953Y-158040707D03*
D10*
G36*
X206006946Y-157367242D02*
X206037888Y-157371832D01*
X206068231Y-157379432D01*
X206097683Y-157389970D01*
X206125961Y-157403345D01*
X206152791Y-157419426D01*
X206177916Y-157438060D01*
X206201093Y-157459067D01*
X206222100Y-157482244D01*
X206240734Y-157507369D01*
X206256815Y-157534199D01*
X206270190Y-157562477D01*
X206280728Y-157591929D01*
X206288328Y-157622272D01*
X206292918Y-157653214D01*
X206294453Y-157684457D01*
X206294453Y-158396957D01*
X206292918Y-158428200D01*
X206288328Y-158459142D01*
X206280728Y-158489485D01*
X206270190Y-158518937D01*
X206256815Y-158547215D01*
X206240734Y-158574045D01*
X206222100Y-158599170D01*
X206201093Y-158622347D01*
X206177916Y-158643354D01*
X206152791Y-158661988D01*
X206125961Y-158678069D01*
X206097683Y-158691444D01*
X206068231Y-158701982D01*
X206037888Y-158709582D01*
X206006946Y-158714172D01*
X205975703Y-158715707D01*
X205338203Y-158715707D01*
X205306960Y-158714172D01*
X205276018Y-158709582D01*
X205245675Y-158701982D01*
X205216223Y-158691444D01*
X205187945Y-158678069D01*
X205161115Y-158661988D01*
X205135990Y-158643354D01*
X205112813Y-158622347D01*
X205091806Y-158599170D01*
X205073172Y-158574045D01*
X205057091Y-158547215D01*
X205043716Y-158518937D01*
X205033178Y-158489485D01*
X205025578Y-158459142D01*
X205020988Y-158428200D01*
X205019453Y-158396957D01*
X205019453Y-157684457D01*
X205020988Y-157653214D01*
X205025578Y-157622272D01*
X205033178Y-157591929D01*
X205043716Y-157562477D01*
X205057091Y-157534199D01*
X205073172Y-157507369D01*
X205091806Y-157482244D01*
X205112813Y-157459067D01*
X205135990Y-157438060D01*
X205161115Y-157419426D01*
X205187945Y-157403345D01*
X205216223Y-157389970D01*
X205245675Y-157379432D01*
X205276018Y-157371832D01*
X205306960Y-157367242D01*
X205338203Y-157365707D01*
X205975703Y-157365707D01*
X206006946Y-157367242D01*
X206006946Y-157367242D01*
G37*
D11*
X205656953Y-158040707D03*
G04 #@! TD*
D10*
G04 #@! TO.C,R6*
G36*
X212344446Y-173817242D02*
X212375388Y-173821832D01*
X212405731Y-173829432D01*
X212435183Y-173839970D01*
X212463461Y-173853345D01*
X212490291Y-173869426D01*
X212515416Y-173888060D01*
X212538593Y-173909067D01*
X212559600Y-173932244D01*
X212578234Y-173957369D01*
X212594315Y-173984199D01*
X212607690Y-174012477D01*
X212618228Y-174041929D01*
X212625828Y-174072272D01*
X212630418Y-174103214D01*
X212631953Y-174134457D01*
X212631953Y-174846957D01*
X212630418Y-174878200D01*
X212625828Y-174909142D01*
X212618228Y-174939485D01*
X212607690Y-174968937D01*
X212594315Y-174997215D01*
X212578234Y-175024045D01*
X212559600Y-175049170D01*
X212538593Y-175072347D01*
X212515416Y-175093354D01*
X212490291Y-175111988D01*
X212463461Y-175128069D01*
X212435183Y-175141444D01*
X212405731Y-175151982D01*
X212375388Y-175159582D01*
X212344446Y-175164172D01*
X212313203Y-175165707D01*
X211675703Y-175165707D01*
X211644460Y-175164172D01*
X211613518Y-175159582D01*
X211583175Y-175151982D01*
X211553723Y-175141444D01*
X211525445Y-175128069D01*
X211498615Y-175111988D01*
X211473490Y-175093354D01*
X211450313Y-175072347D01*
X211429306Y-175049170D01*
X211410672Y-175024045D01*
X211394591Y-174997215D01*
X211381216Y-174968937D01*
X211370678Y-174939485D01*
X211363078Y-174909142D01*
X211358488Y-174878200D01*
X211356953Y-174846957D01*
X211356953Y-174134457D01*
X211358488Y-174103214D01*
X211363078Y-174072272D01*
X211370678Y-174041929D01*
X211381216Y-174012477D01*
X211394591Y-173984199D01*
X211410672Y-173957369D01*
X211429306Y-173932244D01*
X211450313Y-173909067D01*
X211473490Y-173888060D01*
X211498615Y-173869426D01*
X211525445Y-173853345D01*
X211553723Y-173839970D01*
X211583175Y-173829432D01*
X211613518Y-173821832D01*
X211644460Y-173817242D01*
X211675703Y-173815707D01*
X212313203Y-173815707D01*
X212344446Y-173817242D01*
X212344446Y-173817242D01*
G37*
D11*
X211994453Y-174490707D03*
D10*
G36*
X213919446Y-173817242D02*
X213950388Y-173821832D01*
X213980731Y-173829432D01*
X214010183Y-173839970D01*
X214038461Y-173853345D01*
X214065291Y-173869426D01*
X214090416Y-173888060D01*
X214113593Y-173909067D01*
X214134600Y-173932244D01*
X214153234Y-173957369D01*
X214169315Y-173984199D01*
X214182690Y-174012477D01*
X214193228Y-174041929D01*
X214200828Y-174072272D01*
X214205418Y-174103214D01*
X214206953Y-174134457D01*
X214206953Y-174846957D01*
X214205418Y-174878200D01*
X214200828Y-174909142D01*
X214193228Y-174939485D01*
X214182690Y-174968937D01*
X214169315Y-174997215D01*
X214153234Y-175024045D01*
X214134600Y-175049170D01*
X214113593Y-175072347D01*
X214090416Y-175093354D01*
X214065291Y-175111988D01*
X214038461Y-175128069D01*
X214010183Y-175141444D01*
X213980731Y-175151982D01*
X213950388Y-175159582D01*
X213919446Y-175164172D01*
X213888203Y-175165707D01*
X213250703Y-175165707D01*
X213219460Y-175164172D01*
X213188518Y-175159582D01*
X213158175Y-175151982D01*
X213128723Y-175141444D01*
X213100445Y-175128069D01*
X213073615Y-175111988D01*
X213048490Y-175093354D01*
X213025313Y-175072347D01*
X213004306Y-175049170D01*
X212985672Y-175024045D01*
X212969591Y-174997215D01*
X212956216Y-174968937D01*
X212945678Y-174939485D01*
X212938078Y-174909142D01*
X212933488Y-174878200D01*
X212931953Y-174846957D01*
X212931953Y-174134457D01*
X212933488Y-174103214D01*
X212938078Y-174072272D01*
X212945678Y-174041929D01*
X212956216Y-174012477D01*
X212969591Y-173984199D01*
X212985672Y-173957369D01*
X213004306Y-173932244D01*
X213025313Y-173909067D01*
X213048490Y-173888060D01*
X213073615Y-173869426D01*
X213100445Y-173853345D01*
X213128723Y-173839970D01*
X213158175Y-173829432D01*
X213188518Y-173821832D01*
X213219460Y-173817242D01*
X213250703Y-173815707D01*
X213888203Y-173815707D01*
X213919446Y-173817242D01*
X213919446Y-173817242D01*
G37*
D11*
X213569453Y-174490707D03*
G04 #@! TD*
D10*
G04 #@! TO.C,R5*
G36*
X205487893Y-198146099D02*
X205518693Y-198151565D01*
X205548808Y-198160023D01*
X205577949Y-198171392D01*
X205605836Y-198185563D01*
X205632200Y-198202399D01*
X205656786Y-198221737D01*
X205679358Y-198243393D01*
X205699699Y-198267157D01*
X205717613Y-198292800D01*
X205732927Y-198320076D01*
X205745494Y-198348721D01*
X205755193Y-198378460D01*
X205761930Y-198409007D01*
X205765641Y-198440066D01*
X205810111Y-199076013D01*
X205810759Y-199107287D01*
X205808339Y-199138474D01*
X205802873Y-199169273D01*
X205794415Y-199199389D01*
X205783046Y-199228530D01*
X205768875Y-199256417D01*
X205752040Y-199282780D01*
X205732701Y-199307367D01*
X205711045Y-199329939D01*
X205687281Y-199350280D01*
X205661638Y-199368194D01*
X205634363Y-199383508D01*
X205605717Y-199396075D01*
X205575978Y-199405774D01*
X205545432Y-199412511D01*
X205514372Y-199416222D01*
X204803608Y-199465923D01*
X204772334Y-199466571D01*
X204741147Y-199464151D01*
X204710347Y-199458685D01*
X204680232Y-199450227D01*
X204651091Y-199438858D01*
X204623204Y-199424687D01*
X204596840Y-199407851D01*
X204572254Y-199388513D01*
X204549682Y-199366857D01*
X204529341Y-199343093D01*
X204511427Y-199317450D01*
X204496113Y-199290174D01*
X204483546Y-199261529D01*
X204473847Y-199231790D01*
X204467110Y-199201243D01*
X204463399Y-199170184D01*
X204418929Y-198534237D01*
X204418281Y-198502963D01*
X204420701Y-198471776D01*
X204426167Y-198440977D01*
X204434625Y-198410861D01*
X204445994Y-198381720D01*
X204460165Y-198353833D01*
X204477000Y-198327470D01*
X204496339Y-198302883D01*
X204517995Y-198280311D01*
X204541759Y-198259970D01*
X204567402Y-198242056D01*
X204594677Y-198226742D01*
X204623323Y-198214175D01*
X204653062Y-198204476D01*
X204683608Y-198197739D01*
X204714668Y-198194028D01*
X205425432Y-198144327D01*
X205456706Y-198143679D01*
X205487893Y-198146099D01*
X205487893Y-198146099D01*
G37*
D11*
X205114520Y-198805125D03*
D10*
G36*
X205597759Y-199717263D02*
X205628559Y-199722729D01*
X205658674Y-199731187D01*
X205687815Y-199742556D01*
X205715702Y-199756727D01*
X205742066Y-199773563D01*
X205766652Y-199792901D01*
X205789224Y-199814557D01*
X205809565Y-199838321D01*
X205827479Y-199863964D01*
X205842793Y-199891240D01*
X205855360Y-199919885D01*
X205865059Y-199949624D01*
X205871796Y-199980171D01*
X205875507Y-200011230D01*
X205919977Y-200647177D01*
X205920625Y-200678451D01*
X205918205Y-200709638D01*
X205912739Y-200740437D01*
X205904281Y-200770553D01*
X205892912Y-200799694D01*
X205878741Y-200827581D01*
X205861906Y-200853944D01*
X205842567Y-200878531D01*
X205820911Y-200901103D01*
X205797147Y-200921444D01*
X205771504Y-200939358D01*
X205744229Y-200954672D01*
X205715583Y-200967239D01*
X205685844Y-200976938D01*
X205655298Y-200983675D01*
X205624238Y-200987386D01*
X204913474Y-201037087D01*
X204882200Y-201037735D01*
X204851013Y-201035315D01*
X204820213Y-201029849D01*
X204790098Y-201021391D01*
X204760957Y-201010022D01*
X204733070Y-200995851D01*
X204706706Y-200979015D01*
X204682120Y-200959677D01*
X204659548Y-200938021D01*
X204639207Y-200914257D01*
X204621293Y-200888614D01*
X204605979Y-200861338D01*
X204593412Y-200832693D01*
X204583713Y-200802954D01*
X204576976Y-200772407D01*
X204573265Y-200741348D01*
X204528795Y-200105401D01*
X204528147Y-200074127D01*
X204530567Y-200042940D01*
X204536033Y-200012141D01*
X204544491Y-199982025D01*
X204555860Y-199952884D01*
X204570031Y-199924997D01*
X204586866Y-199898634D01*
X204606205Y-199874047D01*
X204627861Y-199851475D01*
X204651625Y-199831134D01*
X204677268Y-199813220D01*
X204704543Y-199797906D01*
X204733189Y-199785339D01*
X204762928Y-199775640D01*
X204793474Y-199768903D01*
X204824534Y-199765192D01*
X205535298Y-199715491D01*
X205566572Y-199714843D01*
X205597759Y-199717263D01*
X205597759Y-199717263D01*
G37*
D11*
X205224386Y-200376289D03*
G04 #@! TD*
D10*
G04 #@! TO.C,R4*
G36*
X218346946Y-178965242D02*
X218377888Y-178969832D01*
X218408231Y-178977432D01*
X218437683Y-178987970D01*
X218465961Y-179001345D01*
X218492791Y-179017426D01*
X218517916Y-179036060D01*
X218541093Y-179057067D01*
X218562100Y-179080244D01*
X218580734Y-179105369D01*
X218596815Y-179132199D01*
X218610190Y-179160477D01*
X218620728Y-179189929D01*
X218628328Y-179220272D01*
X218632918Y-179251214D01*
X218634453Y-179282457D01*
X218634453Y-179994957D01*
X218632918Y-180026200D01*
X218628328Y-180057142D01*
X218620728Y-180087485D01*
X218610190Y-180116937D01*
X218596815Y-180145215D01*
X218580734Y-180172045D01*
X218562100Y-180197170D01*
X218541093Y-180220347D01*
X218517916Y-180241354D01*
X218492791Y-180259988D01*
X218465961Y-180276069D01*
X218437683Y-180289444D01*
X218408231Y-180299982D01*
X218377888Y-180307582D01*
X218346946Y-180312172D01*
X218315703Y-180313707D01*
X217678203Y-180313707D01*
X217646960Y-180312172D01*
X217616018Y-180307582D01*
X217585675Y-180299982D01*
X217556223Y-180289444D01*
X217527945Y-180276069D01*
X217501115Y-180259988D01*
X217475990Y-180241354D01*
X217452813Y-180220347D01*
X217431806Y-180197170D01*
X217413172Y-180172045D01*
X217397091Y-180145215D01*
X217383716Y-180116937D01*
X217373178Y-180087485D01*
X217365578Y-180057142D01*
X217360988Y-180026200D01*
X217359453Y-179994957D01*
X217359453Y-179282457D01*
X217360988Y-179251214D01*
X217365578Y-179220272D01*
X217373178Y-179189929D01*
X217383716Y-179160477D01*
X217397091Y-179132199D01*
X217413172Y-179105369D01*
X217431806Y-179080244D01*
X217452813Y-179057067D01*
X217475990Y-179036060D01*
X217501115Y-179017426D01*
X217527945Y-179001345D01*
X217556223Y-178987970D01*
X217585675Y-178977432D01*
X217616018Y-178969832D01*
X217646960Y-178965242D01*
X217678203Y-178963707D01*
X218315703Y-178963707D01*
X218346946Y-178965242D01*
X218346946Y-178965242D01*
G37*
D11*
X217996953Y-179638707D03*
D10*
G36*
X216771946Y-178965242D02*
X216802888Y-178969832D01*
X216833231Y-178977432D01*
X216862683Y-178987970D01*
X216890961Y-179001345D01*
X216917791Y-179017426D01*
X216942916Y-179036060D01*
X216966093Y-179057067D01*
X216987100Y-179080244D01*
X217005734Y-179105369D01*
X217021815Y-179132199D01*
X217035190Y-179160477D01*
X217045728Y-179189929D01*
X217053328Y-179220272D01*
X217057918Y-179251214D01*
X217059453Y-179282457D01*
X217059453Y-179994957D01*
X217057918Y-180026200D01*
X217053328Y-180057142D01*
X217045728Y-180087485D01*
X217035190Y-180116937D01*
X217021815Y-180145215D01*
X217005734Y-180172045D01*
X216987100Y-180197170D01*
X216966093Y-180220347D01*
X216942916Y-180241354D01*
X216917791Y-180259988D01*
X216890961Y-180276069D01*
X216862683Y-180289444D01*
X216833231Y-180299982D01*
X216802888Y-180307582D01*
X216771946Y-180312172D01*
X216740703Y-180313707D01*
X216103203Y-180313707D01*
X216071960Y-180312172D01*
X216041018Y-180307582D01*
X216010675Y-180299982D01*
X215981223Y-180289444D01*
X215952945Y-180276069D01*
X215926115Y-180259988D01*
X215900990Y-180241354D01*
X215877813Y-180220347D01*
X215856806Y-180197170D01*
X215838172Y-180172045D01*
X215822091Y-180145215D01*
X215808716Y-180116937D01*
X215798178Y-180087485D01*
X215790578Y-180057142D01*
X215785988Y-180026200D01*
X215784453Y-179994957D01*
X215784453Y-179282457D01*
X215785988Y-179251214D01*
X215790578Y-179220272D01*
X215798178Y-179189929D01*
X215808716Y-179160477D01*
X215822091Y-179132199D01*
X215838172Y-179105369D01*
X215856806Y-179080244D01*
X215877813Y-179057067D01*
X215900990Y-179036060D01*
X215926115Y-179017426D01*
X215952945Y-179001345D01*
X215981223Y-178987970D01*
X216010675Y-178977432D01*
X216041018Y-178969832D01*
X216071960Y-178965242D01*
X216103203Y-178963707D01*
X216740703Y-178963707D01*
X216771946Y-178965242D01*
X216771946Y-178965242D01*
G37*
D11*
X216421953Y-179638707D03*
G04 #@! TD*
D10*
G04 #@! TO.C,R3*
G36*
X213931946Y-160517242D02*
X213962888Y-160521832D01*
X213993231Y-160529432D01*
X214022683Y-160539970D01*
X214050961Y-160553345D01*
X214077791Y-160569426D01*
X214102916Y-160588060D01*
X214126093Y-160609067D01*
X214147100Y-160632244D01*
X214165734Y-160657369D01*
X214181815Y-160684199D01*
X214195190Y-160712477D01*
X214205728Y-160741929D01*
X214213328Y-160772272D01*
X214217918Y-160803214D01*
X214219453Y-160834457D01*
X214219453Y-161546957D01*
X214217918Y-161578200D01*
X214213328Y-161609142D01*
X214205728Y-161639485D01*
X214195190Y-161668937D01*
X214181815Y-161697215D01*
X214165734Y-161724045D01*
X214147100Y-161749170D01*
X214126093Y-161772347D01*
X214102916Y-161793354D01*
X214077791Y-161811988D01*
X214050961Y-161828069D01*
X214022683Y-161841444D01*
X213993231Y-161851982D01*
X213962888Y-161859582D01*
X213931946Y-161864172D01*
X213900703Y-161865707D01*
X213263203Y-161865707D01*
X213231960Y-161864172D01*
X213201018Y-161859582D01*
X213170675Y-161851982D01*
X213141223Y-161841444D01*
X213112945Y-161828069D01*
X213086115Y-161811988D01*
X213060990Y-161793354D01*
X213037813Y-161772347D01*
X213016806Y-161749170D01*
X212998172Y-161724045D01*
X212982091Y-161697215D01*
X212968716Y-161668937D01*
X212958178Y-161639485D01*
X212950578Y-161609142D01*
X212945988Y-161578200D01*
X212944453Y-161546957D01*
X212944453Y-160834457D01*
X212945988Y-160803214D01*
X212950578Y-160772272D01*
X212958178Y-160741929D01*
X212968716Y-160712477D01*
X212982091Y-160684199D01*
X212998172Y-160657369D01*
X213016806Y-160632244D01*
X213037813Y-160609067D01*
X213060990Y-160588060D01*
X213086115Y-160569426D01*
X213112945Y-160553345D01*
X213141223Y-160539970D01*
X213170675Y-160529432D01*
X213201018Y-160521832D01*
X213231960Y-160517242D01*
X213263203Y-160515707D01*
X213900703Y-160515707D01*
X213931946Y-160517242D01*
X213931946Y-160517242D01*
G37*
D11*
X213581953Y-161190707D03*
D10*
G36*
X215506946Y-160517242D02*
X215537888Y-160521832D01*
X215568231Y-160529432D01*
X215597683Y-160539970D01*
X215625961Y-160553345D01*
X215652791Y-160569426D01*
X215677916Y-160588060D01*
X215701093Y-160609067D01*
X215722100Y-160632244D01*
X215740734Y-160657369D01*
X215756815Y-160684199D01*
X215770190Y-160712477D01*
X215780728Y-160741929D01*
X215788328Y-160772272D01*
X215792918Y-160803214D01*
X215794453Y-160834457D01*
X215794453Y-161546957D01*
X215792918Y-161578200D01*
X215788328Y-161609142D01*
X215780728Y-161639485D01*
X215770190Y-161668937D01*
X215756815Y-161697215D01*
X215740734Y-161724045D01*
X215722100Y-161749170D01*
X215701093Y-161772347D01*
X215677916Y-161793354D01*
X215652791Y-161811988D01*
X215625961Y-161828069D01*
X215597683Y-161841444D01*
X215568231Y-161851982D01*
X215537888Y-161859582D01*
X215506946Y-161864172D01*
X215475703Y-161865707D01*
X214838203Y-161865707D01*
X214806960Y-161864172D01*
X214776018Y-161859582D01*
X214745675Y-161851982D01*
X214716223Y-161841444D01*
X214687945Y-161828069D01*
X214661115Y-161811988D01*
X214635990Y-161793354D01*
X214612813Y-161772347D01*
X214591806Y-161749170D01*
X214573172Y-161724045D01*
X214557091Y-161697215D01*
X214543716Y-161668937D01*
X214533178Y-161639485D01*
X214525578Y-161609142D01*
X214520988Y-161578200D01*
X214519453Y-161546957D01*
X214519453Y-160834457D01*
X214520988Y-160803214D01*
X214525578Y-160772272D01*
X214533178Y-160741929D01*
X214543716Y-160712477D01*
X214557091Y-160684199D01*
X214573172Y-160657369D01*
X214591806Y-160632244D01*
X214612813Y-160609067D01*
X214635990Y-160588060D01*
X214661115Y-160569426D01*
X214687945Y-160553345D01*
X214716223Y-160539970D01*
X214745675Y-160529432D01*
X214776018Y-160521832D01*
X214806960Y-160517242D01*
X214838203Y-160515707D01*
X215475703Y-160515707D01*
X215506946Y-160517242D01*
X215506946Y-160517242D01*
G37*
D11*
X215156953Y-161190707D03*
G04 #@! TD*
D10*
G04 #@! TO.C,R2*
G36*
X213944446Y-158917242D02*
X213975388Y-158921832D01*
X214005731Y-158929432D01*
X214035183Y-158939970D01*
X214063461Y-158953345D01*
X214090291Y-158969426D01*
X214115416Y-158988060D01*
X214138593Y-159009067D01*
X214159600Y-159032244D01*
X214178234Y-159057369D01*
X214194315Y-159084199D01*
X214207690Y-159112477D01*
X214218228Y-159141929D01*
X214225828Y-159172272D01*
X214230418Y-159203214D01*
X214231953Y-159234457D01*
X214231953Y-159946957D01*
X214230418Y-159978200D01*
X214225828Y-160009142D01*
X214218228Y-160039485D01*
X214207690Y-160068937D01*
X214194315Y-160097215D01*
X214178234Y-160124045D01*
X214159600Y-160149170D01*
X214138593Y-160172347D01*
X214115416Y-160193354D01*
X214090291Y-160211988D01*
X214063461Y-160228069D01*
X214035183Y-160241444D01*
X214005731Y-160251982D01*
X213975388Y-160259582D01*
X213944446Y-160264172D01*
X213913203Y-160265707D01*
X213275703Y-160265707D01*
X213244460Y-160264172D01*
X213213518Y-160259582D01*
X213183175Y-160251982D01*
X213153723Y-160241444D01*
X213125445Y-160228069D01*
X213098615Y-160211988D01*
X213073490Y-160193354D01*
X213050313Y-160172347D01*
X213029306Y-160149170D01*
X213010672Y-160124045D01*
X212994591Y-160097215D01*
X212981216Y-160068937D01*
X212970678Y-160039485D01*
X212963078Y-160009142D01*
X212958488Y-159978200D01*
X212956953Y-159946957D01*
X212956953Y-159234457D01*
X212958488Y-159203214D01*
X212963078Y-159172272D01*
X212970678Y-159141929D01*
X212981216Y-159112477D01*
X212994591Y-159084199D01*
X213010672Y-159057369D01*
X213029306Y-159032244D01*
X213050313Y-159009067D01*
X213073490Y-158988060D01*
X213098615Y-158969426D01*
X213125445Y-158953345D01*
X213153723Y-158939970D01*
X213183175Y-158929432D01*
X213213518Y-158921832D01*
X213244460Y-158917242D01*
X213275703Y-158915707D01*
X213913203Y-158915707D01*
X213944446Y-158917242D01*
X213944446Y-158917242D01*
G37*
D11*
X213594453Y-159590707D03*
D10*
G36*
X215519446Y-158917242D02*
X215550388Y-158921832D01*
X215580731Y-158929432D01*
X215610183Y-158939970D01*
X215638461Y-158953345D01*
X215665291Y-158969426D01*
X215690416Y-158988060D01*
X215713593Y-159009067D01*
X215734600Y-159032244D01*
X215753234Y-159057369D01*
X215769315Y-159084199D01*
X215782690Y-159112477D01*
X215793228Y-159141929D01*
X215800828Y-159172272D01*
X215805418Y-159203214D01*
X215806953Y-159234457D01*
X215806953Y-159946957D01*
X215805418Y-159978200D01*
X215800828Y-160009142D01*
X215793228Y-160039485D01*
X215782690Y-160068937D01*
X215769315Y-160097215D01*
X215753234Y-160124045D01*
X215734600Y-160149170D01*
X215713593Y-160172347D01*
X215690416Y-160193354D01*
X215665291Y-160211988D01*
X215638461Y-160228069D01*
X215610183Y-160241444D01*
X215580731Y-160251982D01*
X215550388Y-160259582D01*
X215519446Y-160264172D01*
X215488203Y-160265707D01*
X214850703Y-160265707D01*
X214819460Y-160264172D01*
X214788518Y-160259582D01*
X214758175Y-160251982D01*
X214728723Y-160241444D01*
X214700445Y-160228069D01*
X214673615Y-160211988D01*
X214648490Y-160193354D01*
X214625313Y-160172347D01*
X214604306Y-160149170D01*
X214585672Y-160124045D01*
X214569591Y-160097215D01*
X214556216Y-160068937D01*
X214545678Y-160039485D01*
X214538078Y-160009142D01*
X214533488Y-159978200D01*
X214531953Y-159946957D01*
X214531953Y-159234457D01*
X214533488Y-159203214D01*
X214538078Y-159172272D01*
X214545678Y-159141929D01*
X214556216Y-159112477D01*
X214569591Y-159084199D01*
X214585672Y-159057369D01*
X214604306Y-159032244D01*
X214625313Y-159009067D01*
X214648490Y-158988060D01*
X214673615Y-158969426D01*
X214700445Y-158953345D01*
X214728723Y-158939970D01*
X214758175Y-158929432D01*
X214788518Y-158921832D01*
X214819460Y-158917242D01*
X214850703Y-158915707D01*
X215488203Y-158915707D01*
X215519446Y-158917242D01*
X215519446Y-158917242D01*
G37*
D11*
X215169453Y-159590707D03*
G04 #@! TD*
D10*
G04 #@! TO.C,R1*
G36*
X208883220Y-187635821D02*
X208914019Y-187641287D01*
X208944135Y-187649745D01*
X208973276Y-187661114D01*
X209001163Y-187675285D01*
X209027526Y-187692120D01*
X209052113Y-187711459D01*
X209074685Y-187733115D01*
X209095026Y-187756879D01*
X209112940Y-187782522D01*
X209128254Y-187809797D01*
X209140821Y-187838443D01*
X209150520Y-187868182D01*
X209157257Y-187898728D01*
X209160968Y-187929788D01*
X209210669Y-188640552D01*
X209211317Y-188671826D01*
X209208897Y-188703013D01*
X209203431Y-188733813D01*
X209194973Y-188763928D01*
X209183604Y-188793069D01*
X209169433Y-188820956D01*
X209152597Y-188847320D01*
X209133259Y-188871906D01*
X209111603Y-188894478D01*
X209087839Y-188914819D01*
X209062196Y-188932733D01*
X209034920Y-188948047D01*
X209006275Y-188960614D01*
X208976536Y-188970313D01*
X208945989Y-188977050D01*
X208914930Y-188980761D01*
X208278983Y-189025231D01*
X208247709Y-189025879D01*
X208216522Y-189023459D01*
X208185723Y-189017993D01*
X208155607Y-189009535D01*
X208126466Y-188998166D01*
X208098579Y-188983995D01*
X208072216Y-188967160D01*
X208047629Y-188947821D01*
X208025057Y-188926165D01*
X208004716Y-188902401D01*
X207986802Y-188876758D01*
X207971488Y-188849483D01*
X207958921Y-188820837D01*
X207949222Y-188791098D01*
X207942485Y-188760552D01*
X207938774Y-188729492D01*
X207889073Y-188018728D01*
X207888425Y-187987454D01*
X207890845Y-187956267D01*
X207896311Y-187925467D01*
X207904769Y-187895352D01*
X207916138Y-187866211D01*
X207930309Y-187838324D01*
X207947145Y-187811960D01*
X207966483Y-187787374D01*
X207988139Y-187764802D01*
X208011903Y-187744461D01*
X208037546Y-187726547D01*
X208064822Y-187711233D01*
X208093467Y-187698666D01*
X208123206Y-187688967D01*
X208153753Y-187682230D01*
X208184812Y-187678519D01*
X208820759Y-187634049D01*
X208852033Y-187633401D01*
X208883220Y-187635821D01*
X208883220Y-187635821D01*
G37*
D11*
X208549871Y-188329640D03*
D10*
G36*
X210454384Y-187525955D02*
X210485183Y-187531421D01*
X210515299Y-187539879D01*
X210544440Y-187551248D01*
X210572327Y-187565419D01*
X210598690Y-187582254D01*
X210623277Y-187601593D01*
X210645849Y-187623249D01*
X210666190Y-187647013D01*
X210684104Y-187672656D01*
X210699418Y-187699931D01*
X210711985Y-187728577D01*
X210721684Y-187758316D01*
X210728421Y-187788862D01*
X210732132Y-187819922D01*
X210781833Y-188530686D01*
X210782481Y-188561960D01*
X210780061Y-188593147D01*
X210774595Y-188623947D01*
X210766137Y-188654062D01*
X210754768Y-188683203D01*
X210740597Y-188711090D01*
X210723761Y-188737454D01*
X210704423Y-188762040D01*
X210682767Y-188784612D01*
X210659003Y-188804953D01*
X210633360Y-188822867D01*
X210606084Y-188838181D01*
X210577439Y-188850748D01*
X210547700Y-188860447D01*
X210517153Y-188867184D01*
X210486094Y-188870895D01*
X209850147Y-188915365D01*
X209818873Y-188916013D01*
X209787686Y-188913593D01*
X209756887Y-188908127D01*
X209726771Y-188899669D01*
X209697630Y-188888300D01*
X209669743Y-188874129D01*
X209643380Y-188857294D01*
X209618793Y-188837955D01*
X209596221Y-188816299D01*
X209575880Y-188792535D01*
X209557966Y-188766892D01*
X209542652Y-188739617D01*
X209530085Y-188710971D01*
X209520386Y-188681232D01*
X209513649Y-188650686D01*
X209509938Y-188619626D01*
X209460237Y-187908862D01*
X209459589Y-187877588D01*
X209462009Y-187846401D01*
X209467475Y-187815601D01*
X209475933Y-187785486D01*
X209487302Y-187756345D01*
X209501473Y-187728458D01*
X209518309Y-187702094D01*
X209537647Y-187677508D01*
X209559303Y-187654936D01*
X209583067Y-187634595D01*
X209608710Y-187616681D01*
X209635986Y-187601367D01*
X209664631Y-187588800D01*
X209694370Y-187579101D01*
X209724917Y-187572364D01*
X209755976Y-187568653D01*
X210391923Y-187524183D01*
X210423197Y-187523535D01*
X210454384Y-187525955D01*
X210454384Y-187525955D01*
G37*
D11*
X210121035Y-188219774D03*
G04 #@! TD*
D18*
G04 #@! TO.C,Q2*
X218769453Y-163290707D03*
X219719453Y-165290707D03*
X217819453Y-165290707D03*
G04 #@! TD*
D19*
G04 #@! TO.C,MUX4*
X195972693Y-187446710D03*
D10*
G36*
X196696981Y-188194059D02*
X195898243Y-188484777D01*
X195248405Y-186699361D01*
X196047143Y-186408643D01*
X196696981Y-188194059D01*
X196696981Y-188194059D01*
G37*
D19*
X196583493Y-187224397D03*
D10*
G36*
X197307781Y-187971746D02*
X196509043Y-188262464D01*
X195859205Y-186477048D01*
X196657943Y-186186330D01*
X197307781Y-187971746D01*
X197307781Y-187971746D01*
G37*
D19*
X197194293Y-187002083D03*
D10*
G36*
X197918581Y-187749432D02*
X197119843Y-188040150D01*
X196470005Y-186254734D01*
X197268743Y-185964016D01*
X197918581Y-187749432D01*
X197918581Y-187749432D01*
G37*
D19*
X197805093Y-186779770D03*
D10*
G36*
X198529381Y-187527119D02*
X197730643Y-187817837D01*
X197080805Y-186032421D01*
X197879543Y-185741703D01*
X198529381Y-187527119D01*
X198529381Y-187527119D01*
G37*
D19*
X198415894Y-186557457D03*
D10*
G36*
X199140182Y-187304806D02*
X198341444Y-187595524D01*
X197691606Y-185810108D01*
X198490344Y-185519390D01*
X199140182Y-187304806D01*
X199140182Y-187304806D01*
G37*
D19*
X199026694Y-186335144D03*
D10*
G36*
X199750982Y-187082493D02*
X198952244Y-187373211D01*
X198302406Y-185587795D01*
X199101144Y-185297077D01*
X199750982Y-187082493D01*
X199750982Y-187082493D01*
G37*
D19*
X199637494Y-186112831D03*
D10*
G36*
X200361782Y-186860180D02*
X199563044Y-187150898D01*
X198913206Y-185365482D01*
X199711944Y-185074764D01*
X200361782Y-186860180D01*
X200361782Y-186860180D01*
G37*
D19*
X200248294Y-185890518D03*
D10*
G36*
X200972582Y-186637867D02*
X200173844Y-186928585D01*
X199524006Y-185143169D01*
X200322744Y-184852451D01*
X200972582Y-186637867D01*
X200972582Y-186637867D01*
G37*
D19*
X202266213Y-191434704D03*
D10*
G36*
X202990501Y-192182053D02*
X202191763Y-192472771D01*
X201541925Y-190687355D01*
X202340663Y-190396637D01*
X202990501Y-192182053D01*
X202990501Y-192182053D01*
G37*
D19*
X201655413Y-191657017D03*
D10*
G36*
X202379701Y-192404366D02*
X201580963Y-192695084D01*
X200931125Y-190909668D01*
X201729863Y-190618950D01*
X202379701Y-192404366D01*
X202379701Y-192404366D01*
G37*
D19*
X201044613Y-191879331D03*
D10*
G36*
X201768901Y-192626680D02*
X200970163Y-192917398D01*
X200320325Y-191131982D01*
X201119063Y-190841264D01*
X201768901Y-192626680D01*
X201768901Y-192626680D01*
G37*
D19*
X200433813Y-192101644D03*
D10*
G36*
X201158101Y-192848993D02*
X200359363Y-193139711D01*
X199709525Y-191354295D01*
X200508263Y-191063577D01*
X201158101Y-192848993D01*
X201158101Y-192848993D01*
G37*
D19*
X199823012Y-192323957D03*
D10*
G36*
X200547300Y-193071306D02*
X199748562Y-193362024D01*
X199098724Y-191576608D01*
X199897462Y-191285890D01*
X200547300Y-193071306D01*
X200547300Y-193071306D01*
G37*
D19*
X199212212Y-192546270D03*
D10*
G36*
X199936500Y-193293619D02*
X199137762Y-193584337D01*
X198487924Y-191798921D01*
X199286662Y-191508203D01*
X199936500Y-193293619D01*
X199936500Y-193293619D01*
G37*
D19*
X198601412Y-192768583D03*
D10*
G36*
X199325700Y-193515932D02*
X198526962Y-193806650D01*
X197877124Y-192021234D01*
X198675862Y-191730516D01*
X199325700Y-193515932D01*
X199325700Y-193515932D01*
G37*
D19*
X197990612Y-192990896D03*
D10*
G36*
X198714900Y-193738245D02*
X197916162Y-194028963D01*
X197266324Y-192243547D01*
X198065062Y-191952829D01*
X198714900Y-193738245D01*
X198714900Y-193738245D01*
G37*
G04 #@! TD*
D20*
G04 #@! TO.C,MUX3*
X199944453Y-174090707D03*
X199294453Y-174090707D03*
X198644453Y-174090707D03*
X197994453Y-174090707D03*
X197344453Y-174090707D03*
X196694453Y-174090707D03*
X196044453Y-174090707D03*
X195394453Y-174090707D03*
X195394453Y-168190707D03*
X196044453Y-168190707D03*
X196694453Y-168190707D03*
X197344453Y-168190707D03*
X197994453Y-168190707D03*
X198644453Y-168190707D03*
X199294453Y-168190707D03*
X199944453Y-168190707D03*
G04 #@! TD*
D21*
G04 #@! TO.C,MUX2*
X202019453Y-164465707D03*
X202019453Y-163815707D03*
X202019453Y-163165707D03*
X202019453Y-162515707D03*
X202019453Y-161865707D03*
X202019453Y-161215707D03*
X202019453Y-160565707D03*
X202019453Y-159915707D03*
X207919453Y-159915707D03*
X207919453Y-160565707D03*
X207919453Y-161215707D03*
X207919453Y-161865707D03*
X207919453Y-162515707D03*
X207919453Y-163165707D03*
X207919453Y-163815707D03*
X207919453Y-164465707D03*
G04 #@! TD*
D19*
G04 #@! TO.C,MUX1*
X210064661Y-148082982D03*
D10*
G36*
X210171600Y-147047758D02*
X210907722Y-147472758D01*
X209957722Y-149118206D01*
X209221600Y-148693206D01*
X210171600Y-147047758D01*
X210171600Y-147047758D01*
G37*
D19*
X209501744Y-147757982D03*
D10*
G36*
X209608683Y-146722758D02*
X210344805Y-147147758D01*
X209394805Y-148793206D01*
X208658683Y-148368206D01*
X209608683Y-146722758D01*
X209608683Y-146722758D01*
G37*
D19*
X208938828Y-147432982D03*
D10*
G36*
X209045767Y-146397758D02*
X209781889Y-146822758D01*
X208831889Y-148468206D01*
X208095767Y-148043206D01*
X209045767Y-146397758D01*
X209045767Y-146397758D01*
G37*
D19*
X208375911Y-147107982D03*
D10*
G36*
X208482850Y-146072758D02*
X209218972Y-146497758D01*
X208268972Y-148143206D01*
X207532850Y-147718206D01*
X208482850Y-146072758D01*
X208482850Y-146072758D01*
G37*
D19*
X207812995Y-146782982D03*
D10*
G36*
X207919934Y-145747758D02*
X208656056Y-146172758D01*
X207706056Y-147818206D01*
X206969934Y-147393206D01*
X207919934Y-145747758D01*
X207919934Y-145747758D01*
G37*
D19*
X207250078Y-146457982D03*
D10*
G36*
X207357017Y-145422758D02*
X208093139Y-145847758D01*
X207143139Y-147493206D01*
X206407017Y-147068206D01*
X207357017Y-145422758D01*
X207357017Y-145422758D01*
G37*
D19*
X206687162Y-146132982D03*
D10*
G36*
X206794101Y-145097758D02*
X207530223Y-145522758D01*
X206580223Y-147168206D01*
X205844101Y-146743206D01*
X206794101Y-145097758D01*
X206794101Y-145097758D01*
G37*
D19*
X206124245Y-145807982D03*
D10*
G36*
X206231184Y-144772758D02*
X206967306Y-145197758D01*
X206017306Y-146843206D01*
X205281184Y-146418206D01*
X206231184Y-144772758D01*
X206231184Y-144772758D01*
G37*
D19*
X209074245Y-140698432D03*
D10*
G36*
X209181184Y-139663208D02*
X209917306Y-140088208D01*
X208967306Y-141733656D01*
X208231184Y-141308656D01*
X209181184Y-139663208D01*
X209181184Y-139663208D01*
G37*
D19*
X209637162Y-141023432D03*
D10*
G36*
X209744101Y-139988208D02*
X210480223Y-140413208D01*
X209530223Y-142058656D01*
X208794101Y-141633656D01*
X209744101Y-139988208D01*
X209744101Y-139988208D01*
G37*
D19*
X210200078Y-141348432D03*
D10*
G36*
X210307017Y-140313208D02*
X211043139Y-140738208D01*
X210093139Y-142383656D01*
X209357017Y-141958656D01*
X210307017Y-140313208D01*
X210307017Y-140313208D01*
G37*
D19*
X210762995Y-141673432D03*
D10*
G36*
X210869934Y-140638208D02*
X211606056Y-141063208D01*
X210656056Y-142708656D01*
X209919934Y-142283656D01*
X210869934Y-140638208D01*
X210869934Y-140638208D01*
G37*
D19*
X211325911Y-141998432D03*
D10*
G36*
X211432850Y-140963208D02*
X212168972Y-141388208D01*
X211218972Y-143033656D01*
X210482850Y-142608656D01*
X211432850Y-140963208D01*
X211432850Y-140963208D01*
G37*
D19*
X211888828Y-142323432D03*
D10*
G36*
X211995767Y-141288208D02*
X212731889Y-141713208D01*
X211781889Y-143358656D01*
X211045767Y-142933656D01*
X211995767Y-141288208D01*
X211995767Y-141288208D01*
G37*
D19*
X212451744Y-142648432D03*
D10*
G36*
X212558683Y-141613208D02*
X213294805Y-142038208D01*
X212344805Y-143683656D01*
X211608683Y-143258656D01*
X212558683Y-141613208D01*
X212558683Y-141613208D01*
G37*
D19*
X213014661Y-142973432D03*
D10*
G36*
X213121600Y-141938208D02*
X213857722Y-142363208D01*
X212907722Y-144008656D01*
X212171600Y-143583656D01*
X213121600Y-141938208D01*
X213121600Y-141938208D01*
G37*
G04 #@! TD*
G04 #@! TO.C,L3*
G36*
X214159677Y-177164216D02*
X214192236Y-177169994D01*
X214224072Y-177178935D01*
X214254878Y-177190953D01*
X214284357Y-177205933D01*
X214312226Y-177223731D01*
X214338217Y-177244174D01*
X214362079Y-177267067D01*
X214383582Y-177292188D01*
X214402519Y-177319295D01*
X214418707Y-177348129D01*
X214431992Y-177378410D01*
X214442245Y-177409848D01*
X214449367Y-177442139D01*
X214453289Y-177474973D01*
X214531841Y-178598318D01*
X214532526Y-178631378D01*
X214529968Y-178664346D01*
X214524190Y-178696905D01*
X214515249Y-178728741D01*
X214503231Y-178759547D01*
X214488251Y-178789026D01*
X214470453Y-178816895D01*
X214450010Y-178842886D01*
X214427117Y-178866748D01*
X214401996Y-178888251D01*
X214374888Y-178907188D01*
X214346055Y-178923376D01*
X214315774Y-178936661D01*
X214284336Y-178946914D01*
X214252045Y-178954036D01*
X214219211Y-178957958D01*
X213345257Y-179019071D01*
X213312197Y-179019756D01*
X213279229Y-179017198D01*
X213246670Y-179011420D01*
X213214834Y-179002479D01*
X213184028Y-178990461D01*
X213154549Y-178975481D01*
X213126680Y-178957683D01*
X213100689Y-178937240D01*
X213076827Y-178914347D01*
X213055324Y-178889226D01*
X213036387Y-178862119D01*
X213020199Y-178833285D01*
X213006914Y-178803004D01*
X212996661Y-178771566D01*
X212989539Y-178739275D01*
X212985617Y-178706441D01*
X212907065Y-177583096D01*
X212906380Y-177550036D01*
X212908938Y-177517068D01*
X212914716Y-177484509D01*
X212923657Y-177452673D01*
X212935675Y-177421867D01*
X212950655Y-177392388D01*
X212968453Y-177364519D01*
X212988896Y-177338528D01*
X213011789Y-177314666D01*
X213036910Y-177293163D01*
X213064018Y-177274226D01*
X213092851Y-177258038D01*
X213123132Y-177244753D01*
X213154570Y-177234500D01*
X213186861Y-177227378D01*
X213219695Y-177223456D01*
X214093649Y-177162343D01*
X214126709Y-177161658D01*
X214159677Y-177164216D01*
X214159677Y-177164216D01*
G37*
D22*
X213719453Y-178090707D03*
D10*
G36*
X212114671Y-177307216D02*
X212147230Y-177312994D01*
X212179066Y-177321935D01*
X212209872Y-177333953D01*
X212239351Y-177348933D01*
X212267220Y-177366731D01*
X212293211Y-177387174D01*
X212317073Y-177410067D01*
X212338576Y-177435188D01*
X212357513Y-177462295D01*
X212373701Y-177491129D01*
X212386986Y-177521410D01*
X212397239Y-177552848D01*
X212404361Y-177585139D01*
X212408283Y-177617973D01*
X212486835Y-178741318D01*
X212487520Y-178774378D01*
X212484962Y-178807346D01*
X212479184Y-178839905D01*
X212470243Y-178871741D01*
X212458225Y-178902547D01*
X212443245Y-178932026D01*
X212425447Y-178959895D01*
X212405004Y-178985886D01*
X212382111Y-179009748D01*
X212356990Y-179031251D01*
X212329882Y-179050188D01*
X212301049Y-179066376D01*
X212270768Y-179079661D01*
X212239330Y-179089914D01*
X212207039Y-179097036D01*
X212174205Y-179100958D01*
X211300251Y-179162071D01*
X211267191Y-179162756D01*
X211234223Y-179160198D01*
X211201664Y-179154420D01*
X211169828Y-179145479D01*
X211139022Y-179133461D01*
X211109543Y-179118481D01*
X211081674Y-179100683D01*
X211055683Y-179080240D01*
X211031821Y-179057347D01*
X211010318Y-179032226D01*
X210991381Y-179005119D01*
X210975193Y-178976285D01*
X210961908Y-178946004D01*
X210951655Y-178914566D01*
X210944533Y-178882275D01*
X210940611Y-178849441D01*
X210862059Y-177726096D01*
X210861374Y-177693036D01*
X210863932Y-177660068D01*
X210869710Y-177627509D01*
X210878651Y-177595673D01*
X210890669Y-177564867D01*
X210905649Y-177535388D01*
X210923447Y-177507519D01*
X210943890Y-177481528D01*
X210966783Y-177457666D01*
X210991904Y-177436163D01*
X211019012Y-177417226D01*
X211047845Y-177401038D01*
X211078126Y-177387753D01*
X211109564Y-177377500D01*
X211141855Y-177370378D01*
X211174689Y-177366456D01*
X212048643Y-177305343D01*
X212081703Y-177304658D01*
X212114671Y-177307216D01*
X212114671Y-177307216D01*
G37*
D22*
X211674447Y-178233707D03*
G04 #@! TD*
D23*
G04 #@! TO.C,JP1*
X218369453Y-171890707D03*
D10*
G36*
X218375565Y-170941309D02*
X218393987Y-170941309D01*
X218413593Y-170942272D01*
X218462424Y-170947082D01*
X218481833Y-170949961D01*
X218529958Y-170959533D01*
X218549001Y-170964303D01*
X218595956Y-170978547D01*
X218614433Y-170985158D01*
X218659766Y-171003935D01*
X218677514Y-171012330D01*
X218720787Y-171035461D01*
X218737615Y-171045547D01*
X218778414Y-171072807D01*
X218794183Y-171084502D01*
X218832112Y-171115630D01*
X218846653Y-171128810D01*
X218881350Y-171163507D01*
X218894530Y-171178048D01*
X218925658Y-171215977D01*
X218937353Y-171231746D01*
X218964613Y-171272545D01*
X218974699Y-171289373D01*
X218997830Y-171332646D01*
X219006225Y-171350394D01*
X219025002Y-171395727D01*
X219031613Y-171414204D01*
X219045857Y-171461159D01*
X219050627Y-171480202D01*
X219060199Y-171528327D01*
X219063078Y-171547736D01*
X219067888Y-171596567D01*
X219068851Y-171616173D01*
X219068851Y-171634595D01*
X219069453Y-171640707D01*
X219069453Y-172140707D01*
X219068851Y-172146819D01*
X219068851Y-172165241D01*
X219067888Y-172184847D01*
X219063078Y-172233678D01*
X219060199Y-172253087D01*
X219050627Y-172301212D01*
X219045857Y-172320255D01*
X219031613Y-172367210D01*
X219025002Y-172385687D01*
X219006225Y-172431020D01*
X218997830Y-172448768D01*
X218974699Y-172492041D01*
X218964613Y-172508869D01*
X218937353Y-172549668D01*
X218925658Y-172565437D01*
X218894530Y-172603366D01*
X218881350Y-172617907D01*
X218846653Y-172652604D01*
X218832112Y-172665784D01*
X218794183Y-172696912D01*
X218778414Y-172708607D01*
X218737615Y-172735867D01*
X218720787Y-172745953D01*
X218677514Y-172769084D01*
X218659766Y-172777479D01*
X218614433Y-172796256D01*
X218595956Y-172802867D01*
X218549001Y-172817111D01*
X218529958Y-172821881D01*
X218481833Y-172831453D01*
X218462424Y-172834332D01*
X218413593Y-172839142D01*
X218393987Y-172840105D01*
X218375565Y-172840105D01*
X218369453Y-172840707D01*
X217869453Y-172840707D01*
X217830435Y-172836864D01*
X217792916Y-172825483D01*
X217758339Y-172807001D01*
X217728032Y-172782128D01*
X217703159Y-172751821D01*
X217684677Y-172717244D01*
X217673296Y-172679725D01*
X217669453Y-172640707D01*
X217669453Y-171140707D01*
X217673296Y-171101689D01*
X217684677Y-171064170D01*
X217703159Y-171029593D01*
X217728032Y-170999286D01*
X217758339Y-170974413D01*
X217792916Y-170955931D01*
X217830435Y-170944550D01*
X217869453Y-170940707D01*
X218369453Y-170940707D01*
X218375565Y-170941309D01*
X218375565Y-170941309D01*
G37*
D23*
X217069453Y-171890707D03*
D10*
G36*
X217608471Y-170944550D02*
X217645990Y-170955931D01*
X217680567Y-170974413D01*
X217710874Y-170999286D01*
X217735747Y-171029593D01*
X217754229Y-171064170D01*
X217765610Y-171101689D01*
X217769453Y-171140707D01*
X217769453Y-172640707D01*
X217765610Y-172679725D01*
X217754229Y-172717244D01*
X217735747Y-172751821D01*
X217710874Y-172782128D01*
X217680567Y-172807001D01*
X217645990Y-172825483D01*
X217608471Y-172836864D01*
X217569453Y-172840707D01*
X217069453Y-172840707D01*
X217063341Y-172840105D01*
X217044919Y-172840105D01*
X217025313Y-172839142D01*
X216976482Y-172834332D01*
X216957073Y-172831453D01*
X216908948Y-172821881D01*
X216889905Y-172817111D01*
X216842950Y-172802867D01*
X216824473Y-172796256D01*
X216779140Y-172777479D01*
X216761392Y-172769084D01*
X216718119Y-172745953D01*
X216701291Y-172735867D01*
X216660492Y-172708607D01*
X216644723Y-172696912D01*
X216606794Y-172665784D01*
X216592253Y-172652604D01*
X216557556Y-172617907D01*
X216544376Y-172603366D01*
X216513248Y-172565437D01*
X216501553Y-172549668D01*
X216474293Y-172508869D01*
X216464207Y-172492041D01*
X216441076Y-172448768D01*
X216432681Y-172431020D01*
X216413904Y-172385687D01*
X216407293Y-172367210D01*
X216393049Y-172320255D01*
X216388279Y-172301212D01*
X216378707Y-172253087D01*
X216375828Y-172233678D01*
X216371018Y-172184847D01*
X216370055Y-172165241D01*
X216370055Y-172146819D01*
X216369453Y-172140707D01*
X216369453Y-171640707D01*
X216370055Y-171634595D01*
X216370055Y-171616173D01*
X216371018Y-171596567D01*
X216375828Y-171547736D01*
X216378707Y-171528327D01*
X216388279Y-171480202D01*
X216393049Y-171461159D01*
X216407293Y-171414204D01*
X216413904Y-171395727D01*
X216432681Y-171350394D01*
X216441076Y-171332646D01*
X216464207Y-171289373D01*
X216474293Y-171272545D01*
X216501553Y-171231746D01*
X216513248Y-171215977D01*
X216544376Y-171178048D01*
X216557556Y-171163507D01*
X216592253Y-171128810D01*
X216606794Y-171115630D01*
X216644723Y-171084502D01*
X216660492Y-171072807D01*
X216701291Y-171045547D01*
X216718119Y-171035461D01*
X216761392Y-171012330D01*
X216779140Y-171003935D01*
X216824473Y-170985158D01*
X216842950Y-170978547D01*
X216889905Y-170964303D01*
X216908948Y-170959533D01*
X216957073Y-170949961D01*
X216976482Y-170947082D01*
X217025313Y-170942272D01*
X217044919Y-170941309D01*
X217063341Y-170941309D01*
X217069453Y-170940707D01*
X217569453Y-170940707D01*
X217608471Y-170944550D01*
X217608471Y-170944550D01*
G37*
G04 #@! TD*
G04 #@! TO.C,C14*
G36*
X214031946Y-168217242D02*
X214062888Y-168221832D01*
X214093231Y-168229432D01*
X214122683Y-168239970D01*
X214150961Y-168253345D01*
X214177791Y-168269426D01*
X214202916Y-168288060D01*
X214226093Y-168309067D01*
X214247100Y-168332244D01*
X214265734Y-168357369D01*
X214281815Y-168384199D01*
X214295190Y-168412477D01*
X214305728Y-168441929D01*
X214313328Y-168472272D01*
X214317918Y-168503214D01*
X214319453Y-168534457D01*
X214319453Y-169246957D01*
X214317918Y-169278200D01*
X214313328Y-169309142D01*
X214305728Y-169339485D01*
X214295190Y-169368937D01*
X214281815Y-169397215D01*
X214265734Y-169424045D01*
X214247100Y-169449170D01*
X214226093Y-169472347D01*
X214202916Y-169493354D01*
X214177791Y-169511988D01*
X214150961Y-169528069D01*
X214122683Y-169541444D01*
X214093231Y-169551982D01*
X214062888Y-169559582D01*
X214031946Y-169564172D01*
X214000703Y-169565707D01*
X213363203Y-169565707D01*
X213331960Y-169564172D01*
X213301018Y-169559582D01*
X213270675Y-169551982D01*
X213241223Y-169541444D01*
X213212945Y-169528069D01*
X213186115Y-169511988D01*
X213160990Y-169493354D01*
X213137813Y-169472347D01*
X213116806Y-169449170D01*
X213098172Y-169424045D01*
X213082091Y-169397215D01*
X213068716Y-169368937D01*
X213058178Y-169339485D01*
X213050578Y-169309142D01*
X213045988Y-169278200D01*
X213044453Y-169246957D01*
X213044453Y-168534457D01*
X213045988Y-168503214D01*
X213050578Y-168472272D01*
X213058178Y-168441929D01*
X213068716Y-168412477D01*
X213082091Y-168384199D01*
X213098172Y-168357369D01*
X213116806Y-168332244D01*
X213137813Y-168309067D01*
X213160990Y-168288060D01*
X213186115Y-168269426D01*
X213212945Y-168253345D01*
X213241223Y-168239970D01*
X213270675Y-168229432D01*
X213301018Y-168221832D01*
X213331960Y-168217242D01*
X213363203Y-168215707D01*
X214000703Y-168215707D01*
X214031946Y-168217242D01*
X214031946Y-168217242D01*
G37*
D11*
X213681953Y-168890707D03*
D10*
G36*
X215606946Y-168217242D02*
X215637888Y-168221832D01*
X215668231Y-168229432D01*
X215697683Y-168239970D01*
X215725961Y-168253345D01*
X215752791Y-168269426D01*
X215777916Y-168288060D01*
X215801093Y-168309067D01*
X215822100Y-168332244D01*
X215840734Y-168357369D01*
X215856815Y-168384199D01*
X215870190Y-168412477D01*
X215880728Y-168441929D01*
X215888328Y-168472272D01*
X215892918Y-168503214D01*
X215894453Y-168534457D01*
X215894453Y-169246957D01*
X215892918Y-169278200D01*
X215888328Y-169309142D01*
X215880728Y-169339485D01*
X215870190Y-169368937D01*
X215856815Y-169397215D01*
X215840734Y-169424045D01*
X215822100Y-169449170D01*
X215801093Y-169472347D01*
X215777916Y-169493354D01*
X215752791Y-169511988D01*
X215725961Y-169528069D01*
X215697683Y-169541444D01*
X215668231Y-169551982D01*
X215637888Y-169559582D01*
X215606946Y-169564172D01*
X215575703Y-169565707D01*
X214938203Y-169565707D01*
X214906960Y-169564172D01*
X214876018Y-169559582D01*
X214845675Y-169551982D01*
X214816223Y-169541444D01*
X214787945Y-169528069D01*
X214761115Y-169511988D01*
X214735990Y-169493354D01*
X214712813Y-169472347D01*
X214691806Y-169449170D01*
X214673172Y-169424045D01*
X214657091Y-169397215D01*
X214643716Y-169368937D01*
X214633178Y-169339485D01*
X214625578Y-169309142D01*
X214620988Y-169278200D01*
X214619453Y-169246957D01*
X214619453Y-168534457D01*
X214620988Y-168503214D01*
X214625578Y-168472272D01*
X214633178Y-168441929D01*
X214643716Y-168412477D01*
X214657091Y-168384199D01*
X214673172Y-168357369D01*
X214691806Y-168332244D01*
X214712813Y-168309067D01*
X214735990Y-168288060D01*
X214761115Y-168269426D01*
X214787945Y-168253345D01*
X214816223Y-168239970D01*
X214845675Y-168229432D01*
X214876018Y-168221832D01*
X214906960Y-168217242D01*
X214938203Y-168215707D01*
X215575703Y-168215707D01*
X215606946Y-168217242D01*
X215606946Y-168217242D01*
G37*
D11*
X215256953Y-168890707D03*
G04 #@! TD*
D10*
G04 #@! TO.C,C13*
G36*
X212119446Y-167017242D02*
X212150388Y-167021832D01*
X212180731Y-167029432D01*
X212210183Y-167039970D01*
X212238461Y-167053345D01*
X212265291Y-167069426D01*
X212290416Y-167088060D01*
X212313593Y-167109067D01*
X212334600Y-167132244D01*
X212353234Y-167157369D01*
X212369315Y-167184199D01*
X212382690Y-167212477D01*
X212393228Y-167241929D01*
X212400828Y-167272272D01*
X212405418Y-167303214D01*
X212406953Y-167334457D01*
X212406953Y-168046957D01*
X212405418Y-168078200D01*
X212400828Y-168109142D01*
X212393228Y-168139485D01*
X212382690Y-168168937D01*
X212369315Y-168197215D01*
X212353234Y-168224045D01*
X212334600Y-168249170D01*
X212313593Y-168272347D01*
X212290416Y-168293354D01*
X212265291Y-168311988D01*
X212238461Y-168328069D01*
X212210183Y-168341444D01*
X212180731Y-168351982D01*
X212150388Y-168359582D01*
X212119446Y-168364172D01*
X212088203Y-168365707D01*
X211450703Y-168365707D01*
X211419460Y-168364172D01*
X211388518Y-168359582D01*
X211358175Y-168351982D01*
X211328723Y-168341444D01*
X211300445Y-168328069D01*
X211273615Y-168311988D01*
X211248490Y-168293354D01*
X211225313Y-168272347D01*
X211204306Y-168249170D01*
X211185672Y-168224045D01*
X211169591Y-168197215D01*
X211156216Y-168168937D01*
X211145678Y-168139485D01*
X211138078Y-168109142D01*
X211133488Y-168078200D01*
X211131953Y-168046957D01*
X211131953Y-167334457D01*
X211133488Y-167303214D01*
X211138078Y-167272272D01*
X211145678Y-167241929D01*
X211156216Y-167212477D01*
X211169591Y-167184199D01*
X211185672Y-167157369D01*
X211204306Y-167132244D01*
X211225313Y-167109067D01*
X211248490Y-167088060D01*
X211273615Y-167069426D01*
X211300445Y-167053345D01*
X211328723Y-167039970D01*
X211358175Y-167029432D01*
X211388518Y-167021832D01*
X211419460Y-167017242D01*
X211450703Y-167015707D01*
X212088203Y-167015707D01*
X212119446Y-167017242D01*
X212119446Y-167017242D01*
G37*
D11*
X211769453Y-167690707D03*
D10*
G36*
X210544446Y-167017242D02*
X210575388Y-167021832D01*
X210605731Y-167029432D01*
X210635183Y-167039970D01*
X210663461Y-167053345D01*
X210690291Y-167069426D01*
X210715416Y-167088060D01*
X210738593Y-167109067D01*
X210759600Y-167132244D01*
X210778234Y-167157369D01*
X210794315Y-167184199D01*
X210807690Y-167212477D01*
X210818228Y-167241929D01*
X210825828Y-167272272D01*
X210830418Y-167303214D01*
X210831953Y-167334457D01*
X210831953Y-168046957D01*
X210830418Y-168078200D01*
X210825828Y-168109142D01*
X210818228Y-168139485D01*
X210807690Y-168168937D01*
X210794315Y-168197215D01*
X210778234Y-168224045D01*
X210759600Y-168249170D01*
X210738593Y-168272347D01*
X210715416Y-168293354D01*
X210690291Y-168311988D01*
X210663461Y-168328069D01*
X210635183Y-168341444D01*
X210605731Y-168351982D01*
X210575388Y-168359582D01*
X210544446Y-168364172D01*
X210513203Y-168365707D01*
X209875703Y-168365707D01*
X209844460Y-168364172D01*
X209813518Y-168359582D01*
X209783175Y-168351982D01*
X209753723Y-168341444D01*
X209725445Y-168328069D01*
X209698615Y-168311988D01*
X209673490Y-168293354D01*
X209650313Y-168272347D01*
X209629306Y-168249170D01*
X209610672Y-168224045D01*
X209594591Y-168197215D01*
X209581216Y-168168937D01*
X209570678Y-168139485D01*
X209563078Y-168109142D01*
X209558488Y-168078200D01*
X209556953Y-168046957D01*
X209556953Y-167334457D01*
X209558488Y-167303214D01*
X209563078Y-167272272D01*
X209570678Y-167241929D01*
X209581216Y-167212477D01*
X209594591Y-167184199D01*
X209610672Y-167157369D01*
X209629306Y-167132244D01*
X209650313Y-167109067D01*
X209673490Y-167088060D01*
X209698615Y-167069426D01*
X209725445Y-167053345D01*
X209753723Y-167039970D01*
X209783175Y-167029432D01*
X209813518Y-167021832D01*
X209844460Y-167017242D01*
X209875703Y-167015707D01*
X210513203Y-167015707D01*
X210544446Y-167017242D01*
X210544446Y-167017242D01*
G37*
D11*
X210194453Y-167690707D03*
G04 #@! TD*
D10*
G04 #@! TO.C,C12*
G36*
X212119446Y-168617242D02*
X212150388Y-168621832D01*
X212180731Y-168629432D01*
X212210183Y-168639970D01*
X212238461Y-168653345D01*
X212265291Y-168669426D01*
X212290416Y-168688060D01*
X212313593Y-168709067D01*
X212334600Y-168732244D01*
X212353234Y-168757369D01*
X212369315Y-168784199D01*
X212382690Y-168812477D01*
X212393228Y-168841929D01*
X212400828Y-168872272D01*
X212405418Y-168903214D01*
X212406953Y-168934457D01*
X212406953Y-169646957D01*
X212405418Y-169678200D01*
X212400828Y-169709142D01*
X212393228Y-169739485D01*
X212382690Y-169768937D01*
X212369315Y-169797215D01*
X212353234Y-169824045D01*
X212334600Y-169849170D01*
X212313593Y-169872347D01*
X212290416Y-169893354D01*
X212265291Y-169911988D01*
X212238461Y-169928069D01*
X212210183Y-169941444D01*
X212180731Y-169951982D01*
X212150388Y-169959582D01*
X212119446Y-169964172D01*
X212088203Y-169965707D01*
X211450703Y-169965707D01*
X211419460Y-169964172D01*
X211388518Y-169959582D01*
X211358175Y-169951982D01*
X211328723Y-169941444D01*
X211300445Y-169928069D01*
X211273615Y-169911988D01*
X211248490Y-169893354D01*
X211225313Y-169872347D01*
X211204306Y-169849170D01*
X211185672Y-169824045D01*
X211169591Y-169797215D01*
X211156216Y-169768937D01*
X211145678Y-169739485D01*
X211138078Y-169709142D01*
X211133488Y-169678200D01*
X211131953Y-169646957D01*
X211131953Y-168934457D01*
X211133488Y-168903214D01*
X211138078Y-168872272D01*
X211145678Y-168841929D01*
X211156216Y-168812477D01*
X211169591Y-168784199D01*
X211185672Y-168757369D01*
X211204306Y-168732244D01*
X211225313Y-168709067D01*
X211248490Y-168688060D01*
X211273615Y-168669426D01*
X211300445Y-168653345D01*
X211328723Y-168639970D01*
X211358175Y-168629432D01*
X211388518Y-168621832D01*
X211419460Y-168617242D01*
X211450703Y-168615707D01*
X212088203Y-168615707D01*
X212119446Y-168617242D01*
X212119446Y-168617242D01*
G37*
D11*
X211769453Y-169290707D03*
D10*
G36*
X210544446Y-168617242D02*
X210575388Y-168621832D01*
X210605731Y-168629432D01*
X210635183Y-168639970D01*
X210663461Y-168653345D01*
X210690291Y-168669426D01*
X210715416Y-168688060D01*
X210738593Y-168709067D01*
X210759600Y-168732244D01*
X210778234Y-168757369D01*
X210794315Y-168784199D01*
X210807690Y-168812477D01*
X210818228Y-168841929D01*
X210825828Y-168872272D01*
X210830418Y-168903214D01*
X210831953Y-168934457D01*
X210831953Y-169646957D01*
X210830418Y-169678200D01*
X210825828Y-169709142D01*
X210818228Y-169739485D01*
X210807690Y-169768937D01*
X210794315Y-169797215D01*
X210778234Y-169824045D01*
X210759600Y-169849170D01*
X210738593Y-169872347D01*
X210715416Y-169893354D01*
X210690291Y-169911988D01*
X210663461Y-169928069D01*
X210635183Y-169941444D01*
X210605731Y-169951982D01*
X210575388Y-169959582D01*
X210544446Y-169964172D01*
X210513203Y-169965707D01*
X209875703Y-169965707D01*
X209844460Y-169964172D01*
X209813518Y-169959582D01*
X209783175Y-169951982D01*
X209753723Y-169941444D01*
X209725445Y-169928069D01*
X209698615Y-169911988D01*
X209673490Y-169893354D01*
X209650313Y-169872347D01*
X209629306Y-169849170D01*
X209610672Y-169824045D01*
X209594591Y-169797215D01*
X209581216Y-169768937D01*
X209570678Y-169739485D01*
X209563078Y-169709142D01*
X209558488Y-169678200D01*
X209556953Y-169646957D01*
X209556953Y-168934457D01*
X209558488Y-168903214D01*
X209563078Y-168872272D01*
X209570678Y-168841929D01*
X209581216Y-168812477D01*
X209594591Y-168784199D01*
X209610672Y-168757369D01*
X209629306Y-168732244D01*
X209650313Y-168709067D01*
X209673490Y-168688060D01*
X209698615Y-168669426D01*
X209725445Y-168653345D01*
X209753723Y-168639970D01*
X209783175Y-168629432D01*
X209813518Y-168621832D01*
X209844460Y-168617242D01*
X209875703Y-168615707D01*
X210513203Y-168615707D01*
X210544446Y-168617242D01*
X210544446Y-168617242D01*
G37*
D11*
X210194453Y-169290707D03*
G04 #@! TD*
D10*
G04 #@! TO.C,C11*
G36*
X210456946Y-150342242D02*
X210487888Y-150346832D01*
X210518231Y-150354432D01*
X210547683Y-150364970D01*
X210575961Y-150378345D01*
X210602791Y-150394426D01*
X210627916Y-150413060D01*
X210651093Y-150434067D01*
X210672100Y-150457244D01*
X210690734Y-150482369D01*
X210706815Y-150509199D01*
X210720190Y-150537477D01*
X210730728Y-150566929D01*
X210738328Y-150597272D01*
X210742918Y-150628214D01*
X210744453Y-150659457D01*
X210744453Y-151296957D01*
X210742918Y-151328200D01*
X210738328Y-151359142D01*
X210730728Y-151389485D01*
X210720190Y-151418937D01*
X210706815Y-151447215D01*
X210690734Y-151474045D01*
X210672100Y-151499170D01*
X210651093Y-151522347D01*
X210627916Y-151543354D01*
X210602791Y-151561988D01*
X210575961Y-151578069D01*
X210547683Y-151591444D01*
X210518231Y-151601982D01*
X210487888Y-151609582D01*
X210456946Y-151614172D01*
X210425703Y-151615707D01*
X209713203Y-151615707D01*
X209681960Y-151614172D01*
X209651018Y-151609582D01*
X209620675Y-151601982D01*
X209591223Y-151591444D01*
X209562945Y-151578069D01*
X209536115Y-151561988D01*
X209510990Y-151543354D01*
X209487813Y-151522347D01*
X209466806Y-151499170D01*
X209448172Y-151474045D01*
X209432091Y-151447215D01*
X209418716Y-151418937D01*
X209408178Y-151389485D01*
X209400578Y-151359142D01*
X209395988Y-151328200D01*
X209394453Y-151296957D01*
X209394453Y-150659457D01*
X209395988Y-150628214D01*
X209400578Y-150597272D01*
X209408178Y-150566929D01*
X209418716Y-150537477D01*
X209432091Y-150509199D01*
X209448172Y-150482369D01*
X209466806Y-150457244D01*
X209487813Y-150434067D01*
X209510990Y-150413060D01*
X209536115Y-150394426D01*
X209562945Y-150378345D01*
X209591223Y-150364970D01*
X209620675Y-150354432D01*
X209651018Y-150346832D01*
X209681960Y-150342242D01*
X209713203Y-150340707D01*
X210425703Y-150340707D01*
X210456946Y-150342242D01*
X210456946Y-150342242D01*
G37*
D11*
X210069453Y-150978207D03*
D10*
G36*
X210456946Y-151917242D02*
X210487888Y-151921832D01*
X210518231Y-151929432D01*
X210547683Y-151939970D01*
X210575961Y-151953345D01*
X210602791Y-151969426D01*
X210627916Y-151988060D01*
X210651093Y-152009067D01*
X210672100Y-152032244D01*
X210690734Y-152057369D01*
X210706815Y-152084199D01*
X210720190Y-152112477D01*
X210730728Y-152141929D01*
X210738328Y-152172272D01*
X210742918Y-152203214D01*
X210744453Y-152234457D01*
X210744453Y-152871957D01*
X210742918Y-152903200D01*
X210738328Y-152934142D01*
X210730728Y-152964485D01*
X210720190Y-152993937D01*
X210706815Y-153022215D01*
X210690734Y-153049045D01*
X210672100Y-153074170D01*
X210651093Y-153097347D01*
X210627916Y-153118354D01*
X210602791Y-153136988D01*
X210575961Y-153153069D01*
X210547683Y-153166444D01*
X210518231Y-153176982D01*
X210487888Y-153184582D01*
X210456946Y-153189172D01*
X210425703Y-153190707D01*
X209713203Y-153190707D01*
X209681960Y-153189172D01*
X209651018Y-153184582D01*
X209620675Y-153176982D01*
X209591223Y-153166444D01*
X209562945Y-153153069D01*
X209536115Y-153136988D01*
X209510990Y-153118354D01*
X209487813Y-153097347D01*
X209466806Y-153074170D01*
X209448172Y-153049045D01*
X209432091Y-153022215D01*
X209418716Y-152993937D01*
X209408178Y-152964485D01*
X209400578Y-152934142D01*
X209395988Y-152903200D01*
X209394453Y-152871957D01*
X209394453Y-152234457D01*
X209395988Y-152203214D01*
X209400578Y-152172272D01*
X209408178Y-152141929D01*
X209418716Y-152112477D01*
X209432091Y-152084199D01*
X209448172Y-152057369D01*
X209466806Y-152032244D01*
X209487813Y-152009067D01*
X209510990Y-151988060D01*
X209536115Y-151969426D01*
X209562945Y-151953345D01*
X209591223Y-151939970D01*
X209620675Y-151929432D01*
X209651018Y-151921832D01*
X209681960Y-151917242D01*
X209713203Y-151915707D01*
X210425703Y-151915707D01*
X210456946Y-151917242D01*
X210456946Y-151917242D01*
G37*
D11*
X210069453Y-152553207D03*
G04 #@! TD*
D10*
G04 #@! TO.C,C10*
G36*
X208831946Y-150329742D02*
X208862888Y-150334332D01*
X208893231Y-150341932D01*
X208922683Y-150352470D01*
X208950961Y-150365845D01*
X208977791Y-150381926D01*
X209002916Y-150400560D01*
X209026093Y-150421567D01*
X209047100Y-150444744D01*
X209065734Y-150469869D01*
X209081815Y-150496699D01*
X209095190Y-150524977D01*
X209105728Y-150554429D01*
X209113328Y-150584772D01*
X209117918Y-150615714D01*
X209119453Y-150646957D01*
X209119453Y-151284457D01*
X209117918Y-151315700D01*
X209113328Y-151346642D01*
X209105728Y-151376985D01*
X209095190Y-151406437D01*
X209081815Y-151434715D01*
X209065734Y-151461545D01*
X209047100Y-151486670D01*
X209026093Y-151509847D01*
X209002916Y-151530854D01*
X208977791Y-151549488D01*
X208950961Y-151565569D01*
X208922683Y-151578944D01*
X208893231Y-151589482D01*
X208862888Y-151597082D01*
X208831946Y-151601672D01*
X208800703Y-151603207D01*
X208088203Y-151603207D01*
X208056960Y-151601672D01*
X208026018Y-151597082D01*
X207995675Y-151589482D01*
X207966223Y-151578944D01*
X207937945Y-151565569D01*
X207911115Y-151549488D01*
X207885990Y-151530854D01*
X207862813Y-151509847D01*
X207841806Y-151486670D01*
X207823172Y-151461545D01*
X207807091Y-151434715D01*
X207793716Y-151406437D01*
X207783178Y-151376985D01*
X207775578Y-151346642D01*
X207770988Y-151315700D01*
X207769453Y-151284457D01*
X207769453Y-150646957D01*
X207770988Y-150615714D01*
X207775578Y-150584772D01*
X207783178Y-150554429D01*
X207793716Y-150524977D01*
X207807091Y-150496699D01*
X207823172Y-150469869D01*
X207841806Y-150444744D01*
X207862813Y-150421567D01*
X207885990Y-150400560D01*
X207911115Y-150381926D01*
X207937945Y-150365845D01*
X207966223Y-150352470D01*
X207995675Y-150341932D01*
X208026018Y-150334332D01*
X208056960Y-150329742D01*
X208088203Y-150328207D01*
X208800703Y-150328207D01*
X208831946Y-150329742D01*
X208831946Y-150329742D01*
G37*
D11*
X208444453Y-150965707D03*
D10*
G36*
X208831946Y-151904742D02*
X208862888Y-151909332D01*
X208893231Y-151916932D01*
X208922683Y-151927470D01*
X208950961Y-151940845D01*
X208977791Y-151956926D01*
X209002916Y-151975560D01*
X209026093Y-151996567D01*
X209047100Y-152019744D01*
X209065734Y-152044869D01*
X209081815Y-152071699D01*
X209095190Y-152099977D01*
X209105728Y-152129429D01*
X209113328Y-152159772D01*
X209117918Y-152190714D01*
X209119453Y-152221957D01*
X209119453Y-152859457D01*
X209117918Y-152890700D01*
X209113328Y-152921642D01*
X209105728Y-152951985D01*
X209095190Y-152981437D01*
X209081815Y-153009715D01*
X209065734Y-153036545D01*
X209047100Y-153061670D01*
X209026093Y-153084847D01*
X209002916Y-153105854D01*
X208977791Y-153124488D01*
X208950961Y-153140569D01*
X208922683Y-153153944D01*
X208893231Y-153164482D01*
X208862888Y-153172082D01*
X208831946Y-153176672D01*
X208800703Y-153178207D01*
X208088203Y-153178207D01*
X208056960Y-153176672D01*
X208026018Y-153172082D01*
X207995675Y-153164482D01*
X207966223Y-153153944D01*
X207937945Y-153140569D01*
X207911115Y-153124488D01*
X207885990Y-153105854D01*
X207862813Y-153084847D01*
X207841806Y-153061670D01*
X207823172Y-153036545D01*
X207807091Y-153009715D01*
X207793716Y-152981437D01*
X207783178Y-152951985D01*
X207775578Y-152921642D01*
X207770988Y-152890700D01*
X207769453Y-152859457D01*
X207769453Y-152221957D01*
X207770988Y-152190714D01*
X207775578Y-152159772D01*
X207783178Y-152129429D01*
X207793716Y-152099977D01*
X207807091Y-152071699D01*
X207823172Y-152044869D01*
X207841806Y-152019744D01*
X207862813Y-151996567D01*
X207885990Y-151975560D01*
X207911115Y-151956926D01*
X207937945Y-151940845D01*
X207966223Y-151927470D01*
X207995675Y-151916932D01*
X208026018Y-151909332D01*
X208056960Y-151904742D01*
X208088203Y-151903207D01*
X208800703Y-151903207D01*
X208831946Y-151904742D01*
X208831946Y-151904742D01*
G37*
D11*
X208444453Y-152540707D03*
G04 #@! TD*
D10*
G04 #@! TO.C,C9*
G36*
X202419446Y-165517242D02*
X202450388Y-165521832D01*
X202480731Y-165529432D01*
X202510183Y-165539970D01*
X202538461Y-165553345D01*
X202565291Y-165569426D01*
X202590416Y-165588060D01*
X202613593Y-165609067D01*
X202634600Y-165632244D01*
X202653234Y-165657369D01*
X202669315Y-165684199D01*
X202682690Y-165712477D01*
X202693228Y-165741929D01*
X202700828Y-165772272D01*
X202705418Y-165803214D01*
X202706953Y-165834457D01*
X202706953Y-166546957D01*
X202705418Y-166578200D01*
X202700828Y-166609142D01*
X202693228Y-166639485D01*
X202682690Y-166668937D01*
X202669315Y-166697215D01*
X202653234Y-166724045D01*
X202634600Y-166749170D01*
X202613593Y-166772347D01*
X202590416Y-166793354D01*
X202565291Y-166811988D01*
X202538461Y-166828069D01*
X202510183Y-166841444D01*
X202480731Y-166851982D01*
X202450388Y-166859582D01*
X202419446Y-166864172D01*
X202388203Y-166865707D01*
X201750703Y-166865707D01*
X201719460Y-166864172D01*
X201688518Y-166859582D01*
X201658175Y-166851982D01*
X201628723Y-166841444D01*
X201600445Y-166828069D01*
X201573615Y-166811988D01*
X201548490Y-166793354D01*
X201525313Y-166772347D01*
X201504306Y-166749170D01*
X201485672Y-166724045D01*
X201469591Y-166697215D01*
X201456216Y-166668937D01*
X201445678Y-166639485D01*
X201438078Y-166609142D01*
X201433488Y-166578200D01*
X201431953Y-166546957D01*
X201431953Y-165834457D01*
X201433488Y-165803214D01*
X201438078Y-165772272D01*
X201445678Y-165741929D01*
X201456216Y-165712477D01*
X201469591Y-165684199D01*
X201485672Y-165657369D01*
X201504306Y-165632244D01*
X201525313Y-165609067D01*
X201548490Y-165588060D01*
X201573615Y-165569426D01*
X201600445Y-165553345D01*
X201628723Y-165539970D01*
X201658175Y-165529432D01*
X201688518Y-165521832D01*
X201719460Y-165517242D01*
X201750703Y-165515707D01*
X202388203Y-165515707D01*
X202419446Y-165517242D01*
X202419446Y-165517242D01*
G37*
D11*
X202069453Y-166190707D03*
D10*
G36*
X203994446Y-165517242D02*
X204025388Y-165521832D01*
X204055731Y-165529432D01*
X204085183Y-165539970D01*
X204113461Y-165553345D01*
X204140291Y-165569426D01*
X204165416Y-165588060D01*
X204188593Y-165609067D01*
X204209600Y-165632244D01*
X204228234Y-165657369D01*
X204244315Y-165684199D01*
X204257690Y-165712477D01*
X204268228Y-165741929D01*
X204275828Y-165772272D01*
X204280418Y-165803214D01*
X204281953Y-165834457D01*
X204281953Y-166546957D01*
X204280418Y-166578200D01*
X204275828Y-166609142D01*
X204268228Y-166639485D01*
X204257690Y-166668937D01*
X204244315Y-166697215D01*
X204228234Y-166724045D01*
X204209600Y-166749170D01*
X204188593Y-166772347D01*
X204165416Y-166793354D01*
X204140291Y-166811988D01*
X204113461Y-166828069D01*
X204085183Y-166841444D01*
X204055731Y-166851982D01*
X204025388Y-166859582D01*
X203994446Y-166864172D01*
X203963203Y-166865707D01*
X203325703Y-166865707D01*
X203294460Y-166864172D01*
X203263518Y-166859582D01*
X203233175Y-166851982D01*
X203203723Y-166841444D01*
X203175445Y-166828069D01*
X203148615Y-166811988D01*
X203123490Y-166793354D01*
X203100313Y-166772347D01*
X203079306Y-166749170D01*
X203060672Y-166724045D01*
X203044591Y-166697215D01*
X203031216Y-166668937D01*
X203020678Y-166639485D01*
X203013078Y-166609142D01*
X203008488Y-166578200D01*
X203006953Y-166546957D01*
X203006953Y-165834457D01*
X203008488Y-165803214D01*
X203013078Y-165772272D01*
X203020678Y-165741929D01*
X203031216Y-165712477D01*
X203044591Y-165684199D01*
X203060672Y-165657369D01*
X203079306Y-165632244D01*
X203100313Y-165609067D01*
X203123490Y-165588060D01*
X203148615Y-165569426D01*
X203175445Y-165553345D01*
X203203723Y-165539970D01*
X203233175Y-165529432D01*
X203263518Y-165521832D01*
X203294460Y-165517242D01*
X203325703Y-165515707D01*
X203963203Y-165515707D01*
X203994446Y-165517242D01*
X203994446Y-165517242D01*
G37*
D11*
X203644453Y-166190707D03*
G04 #@! TD*
D10*
G04 #@! TO.C,C8*
G36*
X202419446Y-167117242D02*
X202450388Y-167121832D01*
X202480731Y-167129432D01*
X202510183Y-167139970D01*
X202538461Y-167153345D01*
X202565291Y-167169426D01*
X202590416Y-167188060D01*
X202613593Y-167209067D01*
X202634600Y-167232244D01*
X202653234Y-167257369D01*
X202669315Y-167284199D01*
X202682690Y-167312477D01*
X202693228Y-167341929D01*
X202700828Y-167372272D01*
X202705418Y-167403214D01*
X202706953Y-167434457D01*
X202706953Y-168146957D01*
X202705418Y-168178200D01*
X202700828Y-168209142D01*
X202693228Y-168239485D01*
X202682690Y-168268937D01*
X202669315Y-168297215D01*
X202653234Y-168324045D01*
X202634600Y-168349170D01*
X202613593Y-168372347D01*
X202590416Y-168393354D01*
X202565291Y-168411988D01*
X202538461Y-168428069D01*
X202510183Y-168441444D01*
X202480731Y-168451982D01*
X202450388Y-168459582D01*
X202419446Y-168464172D01*
X202388203Y-168465707D01*
X201750703Y-168465707D01*
X201719460Y-168464172D01*
X201688518Y-168459582D01*
X201658175Y-168451982D01*
X201628723Y-168441444D01*
X201600445Y-168428069D01*
X201573615Y-168411988D01*
X201548490Y-168393354D01*
X201525313Y-168372347D01*
X201504306Y-168349170D01*
X201485672Y-168324045D01*
X201469591Y-168297215D01*
X201456216Y-168268937D01*
X201445678Y-168239485D01*
X201438078Y-168209142D01*
X201433488Y-168178200D01*
X201431953Y-168146957D01*
X201431953Y-167434457D01*
X201433488Y-167403214D01*
X201438078Y-167372272D01*
X201445678Y-167341929D01*
X201456216Y-167312477D01*
X201469591Y-167284199D01*
X201485672Y-167257369D01*
X201504306Y-167232244D01*
X201525313Y-167209067D01*
X201548490Y-167188060D01*
X201573615Y-167169426D01*
X201600445Y-167153345D01*
X201628723Y-167139970D01*
X201658175Y-167129432D01*
X201688518Y-167121832D01*
X201719460Y-167117242D01*
X201750703Y-167115707D01*
X202388203Y-167115707D01*
X202419446Y-167117242D01*
X202419446Y-167117242D01*
G37*
D11*
X202069453Y-167790707D03*
D10*
G36*
X203994446Y-167117242D02*
X204025388Y-167121832D01*
X204055731Y-167129432D01*
X204085183Y-167139970D01*
X204113461Y-167153345D01*
X204140291Y-167169426D01*
X204165416Y-167188060D01*
X204188593Y-167209067D01*
X204209600Y-167232244D01*
X204228234Y-167257369D01*
X204244315Y-167284199D01*
X204257690Y-167312477D01*
X204268228Y-167341929D01*
X204275828Y-167372272D01*
X204280418Y-167403214D01*
X204281953Y-167434457D01*
X204281953Y-168146957D01*
X204280418Y-168178200D01*
X204275828Y-168209142D01*
X204268228Y-168239485D01*
X204257690Y-168268937D01*
X204244315Y-168297215D01*
X204228234Y-168324045D01*
X204209600Y-168349170D01*
X204188593Y-168372347D01*
X204165416Y-168393354D01*
X204140291Y-168411988D01*
X204113461Y-168428069D01*
X204085183Y-168441444D01*
X204055731Y-168451982D01*
X204025388Y-168459582D01*
X203994446Y-168464172D01*
X203963203Y-168465707D01*
X203325703Y-168465707D01*
X203294460Y-168464172D01*
X203263518Y-168459582D01*
X203233175Y-168451982D01*
X203203723Y-168441444D01*
X203175445Y-168428069D01*
X203148615Y-168411988D01*
X203123490Y-168393354D01*
X203100313Y-168372347D01*
X203079306Y-168349170D01*
X203060672Y-168324045D01*
X203044591Y-168297215D01*
X203031216Y-168268937D01*
X203020678Y-168239485D01*
X203013078Y-168209142D01*
X203008488Y-168178200D01*
X203006953Y-168146957D01*
X203006953Y-167434457D01*
X203008488Y-167403214D01*
X203013078Y-167372272D01*
X203020678Y-167341929D01*
X203031216Y-167312477D01*
X203044591Y-167284199D01*
X203060672Y-167257369D01*
X203079306Y-167232244D01*
X203100313Y-167209067D01*
X203123490Y-167188060D01*
X203148615Y-167169426D01*
X203175445Y-167153345D01*
X203203723Y-167139970D01*
X203233175Y-167129432D01*
X203263518Y-167121832D01*
X203294460Y-167117242D01*
X203325703Y-167115707D01*
X203963203Y-167115707D01*
X203994446Y-167117242D01*
X203994446Y-167117242D01*
G37*
D11*
X203644453Y-167790707D03*
G04 #@! TD*
D10*
G04 #@! TO.C,C7*
G36*
X201856946Y-173467242D02*
X201887888Y-173471832D01*
X201918231Y-173479432D01*
X201947683Y-173489970D01*
X201975961Y-173503345D01*
X202002791Y-173519426D01*
X202027916Y-173538060D01*
X202051093Y-173559067D01*
X202072100Y-173582244D01*
X202090734Y-173607369D01*
X202106815Y-173634199D01*
X202120190Y-173662477D01*
X202130728Y-173691929D01*
X202138328Y-173722272D01*
X202142918Y-173753214D01*
X202144453Y-173784457D01*
X202144453Y-174421957D01*
X202142918Y-174453200D01*
X202138328Y-174484142D01*
X202130728Y-174514485D01*
X202120190Y-174543937D01*
X202106815Y-174572215D01*
X202090734Y-174599045D01*
X202072100Y-174624170D01*
X202051093Y-174647347D01*
X202027916Y-174668354D01*
X202002791Y-174686988D01*
X201975961Y-174703069D01*
X201947683Y-174716444D01*
X201918231Y-174726982D01*
X201887888Y-174734582D01*
X201856946Y-174739172D01*
X201825703Y-174740707D01*
X201113203Y-174740707D01*
X201081960Y-174739172D01*
X201051018Y-174734582D01*
X201020675Y-174726982D01*
X200991223Y-174716444D01*
X200962945Y-174703069D01*
X200936115Y-174686988D01*
X200910990Y-174668354D01*
X200887813Y-174647347D01*
X200866806Y-174624170D01*
X200848172Y-174599045D01*
X200832091Y-174572215D01*
X200818716Y-174543937D01*
X200808178Y-174514485D01*
X200800578Y-174484142D01*
X200795988Y-174453200D01*
X200794453Y-174421957D01*
X200794453Y-173784457D01*
X200795988Y-173753214D01*
X200800578Y-173722272D01*
X200808178Y-173691929D01*
X200818716Y-173662477D01*
X200832091Y-173634199D01*
X200848172Y-173607369D01*
X200866806Y-173582244D01*
X200887813Y-173559067D01*
X200910990Y-173538060D01*
X200936115Y-173519426D01*
X200962945Y-173503345D01*
X200991223Y-173489970D01*
X201020675Y-173479432D01*
X201051018Y-173471832D01*
X201081960Y-173467242D01*
X201113203Y-173465707D01*
X201825703Y-173465707D01*
X201856946Y-173467242D01*
X201856946Y-173467242D01*
G37*
D11*
X201469453Y-174103207D03*
D10*
G36*
X201856946Y-175042242D02*
X201887888Y-175046832D01*
X201918231Y-175054432D01*
X201947683Y-175064970D01*
X201975961Y-175078345D01*
X202002791Y-175094426D01*
X202027916Y-175113060D01*
X202051093Y-175134067D01*
X202072100Y-175157244D01*
X202090734Y-175182369D01*
X202106815Y-175209199D01*
X202120190Y-175237477D01*
X202130728Y-175266929D01*
X202138328Y-175297272D01*
X202142918Y-175328214D01*
X202144453Y-175359457D01*
X202144453Y-175996957D01*
X202142918Y-176028200D01*
X202138328Y-176059142D01*
X202130728Y-176089485D01*
X202120190Y-176118937D01*
X202106815Y-176147215D01*
X202090734Y-176174045D01*
X202072100Y-176199170D01*
X202051093Y-176222347D01*
X202027916Y-176243354D01*
X202002791Y-176261988D01*
X201975961Y-176278069D01*
X201947683Y-176291444D01*
X201918231Y-176301982D01*
X201887888Y-176309582D01*
X201856946Y-176314172D01*
X201825703Y-176315707D01*
X201113203Y-176315707D01*
X201081960Y-176314172D01*
X201051018Y-176309582D01*
X201020675Y-176301982D01*
X200991223Y-176291444D01*
X200962945Y-176278069D01*
X200936115Y-176261988D01*
X200910990Y-176243354D01*
X200887813Y-176222347D01*
X200866806Y-176199170D01*
X200848172Y-176174045D01*
X200832091Y-176147215D01*
X200818716Y-176118937D01*
X200808178Y-176089485D01*
X200800578Y-176059142D01*
X200795988Y-176028200D01*
X200794453Y-175996957D01*
X200794453Y-175359457D01*
X200795988Y-175328214D01*
X200800578Y-175297272D01*
X200808178Y-175266929D01*
X200818716Y-175237477D01*
X200832091Y-175209199D01*
X200848172Y-175182369D01*
X200866806Y-175157244D01*
X200887813Y-175134067D01*
X200910990Y-175113060D01*
X200936115Y-175094426D01*
X200962945Y-175078345D01*
X200991223Y-175064970D01*
X201020675Y-175054432D01*
X201051018Y-175046832D01*
X201081960Y-175042242D01*
X201113203Y-175040707D01*
X201825703Y-175040707D01*
X201856946Y-175042242D01*
X201856946Y-175042242D01*
G37*
D11*
X201469453Y-175678207D03*
G04 #@! TD*
D10*
G04 #@! TO.C,C6*
G36*
X203456946Y-173454742D02*
X203487888Y-173459332D01*
X203518231Y-173466932D01*
X203547683Y-173477470D01*
X203575961Y-173490845D01*
X203602791Y-173506926D01*
X203627916Y-173525560D01*
X203651093Y-173546567D01*
X203672100Y-173569744D01*
X203690734Y-173594869D01*
X203706815Y-173621699D01*
X203720190Y-173649977D01*
X203730728Y-173679429D01*
X203738328Y-173709772D01*
X203742918Y-173740714D01*
X203744453Y-173771957D01*
X203744453Y-174409457D01*
X203742918Y-174440700D01*
X203738328Y-174471642D01*
X203730728Y-174501985D01*
X203720190Y-174531437D01*
X203706815Y-174559715D01*
X203690734Y-174586545D01*
X203672100Y-174611670D01*
X203651093Y-174634847D01*
X203627916Y-174655854D01*
X203602791Y-174674488D01*
X203575961Y-174690569D01*
X203547683Y-174703944D01*
X203518231Y-174714482D01*
X203487888Y-174722082D01*
X203456946Y-174726672D01*
X203425703Y-174728207D01*
X202713203Y-174728207D01*
X202681960Y-174726672D01*
X202651018Y-174722082D01*
X202620675Y-174714482D01*
X202591223Y-174703944D01*
X202562945Y-174690569D01*
X202536115Y-174674488D01*
X202510990Y-174655854D01*
X202487813Y-174634847D01*
X202466806Y-174611670D01*
X202448172Y-174586545D01*
X202432091Y-174559715D01*
X202418716Y-174531437D01*
X202408178Y-174501985D01*
X202400578Y-174471642D01*
X202395988Y-174440700D01*
X202394453Y-174409457D01*
X202394453Y-173771957D01*
X202395988Y-173740714D01*
X202400578Y-173709772D01*
X202408178Y-173679429D01*
X202418716Y-173649977D01*
X202432091Y-173621699D01*
X202448172Y-173594869D01*
X202466806Y-173569744D01*
X202487813Y-173546567D01*
X202510990Y-173525560D01*
X202536115Y-173506926D01*
X202562945Y-173490845D01*
X202591223Y-173477470D01*
X202620675Y-173466932D01*
X202651018Y-173459332D01*
X202681960Y-173454742D01*
X202713203Y-173453207D01*
X203425703Y-173453207D01*
X203456946Y-173454742D01*
X203456946Y-173454742D01*
G37*
D11*
X203069453Y-174090707D03*
D10*
G36*
X203456946Y-175029742D02*
X203487888Y-175034332D01*
X203518231Y-175041932D01*
X203547683Y-175052470D01*
X203575961Y-175065845D01*
X203602791Y-175081926D01*
X203627916Y-175100560D01*
X203651093Y-175121567D01*
X203672100Y-175144744D01*
X203690734Y-175169869D01*
X203706815Y-175196699D01*
X203720190Y-175224977D01*
X203730728Y-175254429D01*
X203738328Y-175284772D01*
X203742918Y-175315714D01*
X203744453Y-175346957D01*
X203744453Y-175984457D01*
X203742918Y-176015700D01*
X203738328Y-176046642D01*
X203730728Y-176076985D01*
X203720190Y-176106437D01*
X203706815Y-176134715D01*
X203690734Y-176161545D01*
X203672100Y-176186670D01*
X203651093Y-176209847D01*
X203627916Y-176230854D01*
X203602791Y-176249488D01*
X203575961Y-176265569D01*
X203547683Y-176278944D01*
X203518231Y-176289482D01*
X203487888Y-176297082D01*
X203456946Y-176301672D01*
X203425703Y-176303207D01*
X202713203Y-176303207D01*
X202681960Y-176301672D01*
X202651018Y-176297082D01*
X202620675Y-176289482D01*
X202591223Y-176278944D01*
X202562945Y-176265569D01*
X202536115Y-176249488D01*
X202510990Y-176230854D01*
X202487813Y-176209847D01*
X202466806Y-176186670D01*
X202448172Y-176161545D01*
X202432091Y-176134715D01*
X202418716Y-176106437D01*
X202408178Y-176076985D01*
X202400578Y-176046642D01*
X202395988Y-176015700D01*
X202394453Y-175984457D01*
X202394453Y-175346957D01*
X202395988Y-175315714D01*
X202400578Y-175284772D01*
X202408178Y-175254429D01*
X202418716Y-175224977D01*
X202432091Y-175196699D01*
X202448172Y-175169869D01*
X202466806Y-175144744D01*
X202487813Y-175121567D01*
X202510990Y-175100560D01*
X202536115Y-175081926D01*
X202562945Y-175065845D01*
X202591223Y-175052470D01*
X202620675Y-175041932D01*
X202651018Y-175034332D01*
X202681960Y-175029742D01*
X202713203Y-175028207D01*
X203425703Y-175028207D01*
X203456946Y-175029742D01*
X203456946Y-175029742D01*
G37*
D11*
X203069453Y-175665707D03*
G04 #@! TD*
D10*
G04 #@! TO.C,C5*
G36*
X197009591Y-184093793D02*
X197040303Y-184099728D01*
X197070286Y-184108645D01*
X197099250Y-184120457D01*
X197126917Y-184135052D01*
X197153021Y-184152289D01*
X197177309Y-184172001D01*
X197199548Y-184193998D01*
X197219524Y-184218070D01*
X197237044Y-184243984D01*
X197251940Y-184271490D01*
X197264068Y-184300324D01*
X197482105Y-184899378D01*
X197491349Y-184929262D01*
X197497618Y-184959908D01*
X197500854Y-184991021D01*
X197501025Y-185022301D01*
X197498128Y-185053447D01*
X197492193Y-185084160D01*
X197483276Y-185114143D01*
X197471463Y-185143107D01*
X197456868Y-185170774D01*
X197439632Y-185196877D01*
X197419920Y-185221165D01*
X197397922Y-185243404D01*
X197373850Y-185263380D01*
X197347937Y-185280900D01*
X197320430Y-185295796D01*
X197291597Y-185307924D01*
X196622066Y-185551614D01*
X196592182Y-185560857D01*
X196561537Y-185567127D01*
X196530424Y-185570363D01*
X196499144Y-185570534D01*
X196467997Y-185567637D01*
X196437285Y-185561702D01*
X196407302Y-185552785D01*
X196378338Y-185540973D01*
X196350671Y-185526378D01*
X196324567Y-185509141D01*
X196300279Y-185489429D01*
X196278040Y-185467432D01*
X196258064Y-185443360D01*
X196240544Y-185417446D01*
X196225648Y-185389940D01*
X196213520Y-185361106D01*
X195995483Y-184762052D01*
X195986239Y-184732168D01*
X195979970Y-184701522D01*
X195976734Y-184670409D01*
X195976563Y-184639129D01*
X195979460Y-184607983D01*
X195985395Y-184577270D01*
X195994312Y-184547287D01*
X196006125Y-184518323D01*
X196020720Y-184490656D01*
X196037956Y-184464553D01*
X196057668Y-184440265D01*
X196079666Y-184418026D01*
X196103738Y-184398050D01*
X196129651Y-184380530D01*
X196157158Y-184365634D01*
X196185991Y-184353506D01*
X196855522Y-184109816D01*
X196885406Y-184100573D01*
X196916051Y-184094303D01*
X196947164Y-184091067D01*
X196978444Y-184090896D01*
X197009591Y-184093793D01*
X197009591Y-184093793D01*
G37*
D11*
X196738794Y-184830715D03*
D10*
G36*
X196470909Y-182613777D02*
X196501621Y-182619712D01*
X196531604Y-182628629D01*
X196560568Y-182640441D01*
X196588235Y-182655036D01*
X196614339Y-182672273D01*
X196638627Y-182691985D01*
X196660866Y-182713982D01*
X196680842Y-182738054D01*
X196698362Y-182763968D01*
X196713258Y-182791474D01*
X196725386Y-182820308D01*
X196943423Y-183419362D01*
X196952667Y-183449246D01*
X196958936Y-183479892D01*
X196962172Y-183511005D01*
X196962343Y-183542285D01*
X196959446Y-183573431D01*
X196953511Y-183604144D01*
X196944594Y-183634127D01*
X196932781Y-183663091D01*
X196918186Y-183690758D01*
X196900950Y-183716861D01*
X196881238Y-183741149D01*
X196859240Y-183763388D01*
X196835168Y-183783364D01*
X196809255Y-183800884D01*
X196781748Y-183815780D01*
X196752915Y-183827908D01*
X196083384Y-184071598D01*
X196053500Y-184080841D01*
X196022855Y-184087111D01*
X195991742Y-184090347D01*
X195960462Y-184090518D01*
X195929315Y-184087621D01*
X195898603Y-184081686D01*
X195868620Y-184072769D01*
X195839656Y-184060957D01*
X195811989Y-184046362D01*
X195785885Y-184029125D01*
X195761597Y-184009413D01*
X195739358Y-183987416D01*
X195719382Y-183963344D01*
X195701862Y-183937430D01*
X195686966Y-183909924D01*
X195674838Y-183881090D01*
X195456801Y-183282036D01*
X195447557Y-183252152D01*
X195441288Y-183221506D01*
X195438052Y-183190393D01*
X195437881Y-183159113D01*
X195440778Y-183127967D01*
X195446713Y-183097254D01*
X195455630Y-183067271D01*
X195467443Y-183038307D01*
X195482038Y-183010640D01*
X195499274Y-182984537D01*
X195518986Y-182960249D01*
X195540984Y-182938010D01*
X195565056Y-182918034D01*
X195590969Y-182900514D01*
X195618476Y-182885618D01*
X195647309Y-182873490D01*
X196316840Y-182629800D01*
X196346724Y-182620557D01*
X196377369Y-182614287D01*
X196408482Y-182611051D01*
X196439762Y-182610880D01*
X196470909Y-182613777D01*
X196470909Y-182613777D01*
G37*
D11*
X196200112Y-183350699D03*
G04 #@! TD*
D10*
G04 #@! TO.C,C4*
G36*
X215573966Y-175537022D02*
X215604765Y-175542488D01*
X215634881Y-175550946D01*
X215664022Y-175562315D01*
X215691909Y-175576486D01*
X215718272Y-175593321D01*
X215742859Y-175612660D01*
X215765431Y-175634316D01*
X215785772Y-175658080D01*
X215803686Y-175683723D01*
X215819000Y-175710998D01*
X215831567Y-175739644D01*
X215841266Y-175769383D01*
X215848003Y-175799929D01*
X215851714Y-175830989D01*
X215901415Y-176541753D01*
X215902063Y-176573027D01*
X215899643Y-176604214D01*
X215894177Y-176635014D01*
X215885719Y-176665129D01*
X215874350Y-176694270D01*
X215860179Y-176722157D01*
X215843343Y-176748521D01*
X215824005Y-176773107D01*
X215802349Y-176795679D01*
X215778585Y-176816020D01*
X215752942Y-176833934D01*
X215725666Y-176849248D01*
X215697021Y-176861815D01*
X215667282Y-176871514D01*
X215636735Y-176878251D01*
X215605676Y-176881962D01*
X214969729Y-176926432D01*
X214938455Y-176927080D01*
X214907268Y-176924660D01*
X214876469Y-176919194D01*
X214846353Y-176910736D01*
X214817212Y-176899367D01*
X214789325Y-176885196D01*
X214762962Y-176868361D01*
X214738375Y-176849022D01*
X214715803Y-176827366D01*
X214695462Y-176803602D01*
X214677548Y-176777959D01*
X214662234Y-176750684D01*
X214649667Y-176722038D01*
X214639968Y-176692299D01*
X214633231Y-176661753D01*
X214629520Y-176630693D01*
X214579819Y-175919929D01*
X214579171Y-175888655D01*
X214581591Y-175857468D01*
X214587057Y-175826668D01*
X214595515Y-175796553D01*
X214606884Y-175767412D01*
X214621055Y-175739525D01*
X214637891Y-175713161D01*
X214657229Y-175688575D01*
X214678885Y-175666003D01*
X214702649Y-175645662D01*
X214728292Y-175627748D01*
X214755568Y-175612434D01*
X214784213Y-175599867D01*
X214813952Y-175590168D01*
X214844499Y-175583431D01*
X214875558Y-175579720D01*
X215511505Y-175535250D01*
X215542779Y-175534602D01*
X215573966Y-175537022D01*
X215573966Y-175537022D01*
G37*
D11*
X215240617Y-176230841D03*
D10*
G36*
X214002802Y-175646888D02*
X214033601Y-175652354D01*
X214063717Y-175660812D01*
X214092858Y-175672181D01*
X214120745Y-175686352D01*
X214147108Y-175703187D01*
X214171695Y-175722526D01*
X214194267Y-175744182D01*
X214214608Y-175767946D01*
X214232522Y-175793589D01*
X214247836Y-175820864D01*
X214260403Y-175849510D01*
X214270102Y-175879249D01*
X214276839Y-175909795D01*
X214280550Y-175940855D01*
X214330251Y-176651619D01*
X214330899Y-176682893D01*
X214328479Y-176714080D01*
X214323013Y-176744880D01*
X214314555Y-176774995D01*
X214303186Y-176804136D01*
X214289015Y-176832023D01*
X214272179Y-176858387D01*
X214252841Y-176882973D01*
X214231185Y-176905545D01*
X214207421Y-176925886D01*
X214181778Y-176943800D01*
X214154502Y-176959114D01*
X214125857Y-176971681D01*
X214096118Y-176981380D01*
X214065571Y-176988117D01*
X214034512Y-176991828D01*
X213398565Y-177036298D01*
X213367291Y-177036946D01*
X213336104Y-177034526D01*
X213305305Y-177029060D01*
X213275189Y-177020602D01*
X213246048Y-177009233D01*
X213218161Y-176995062D01*
X213191798Y-176978227D01*
X213167211Y-176958888D01*
X213144639Y-176937232D01*
X213124298Y-176913468D01*
X213106384Y-176887825D01*
X213091070Y-176860550D01*
X213078503Y-176831904D01*
X213068804Y-176802165D01*
X213062067Y-176771619D01*
X213058356Y-176740559D01*
X213008655Y-176029795D01*
X213008007Y-175998521D01*
X213010427Y-175967334D01*
X213015893Y-175936534D01*
X213024351Y-175906419D01*
X213035720Y-175877278D01*
X213049891Y-175849391D01*
X213066727Y-175823027D01*
X213086065Y-175798441D01*
X213107721Y-175775869D01*
X213131485Y-175755528D01*
X213157128Y-175737614D01*
X213184404Y-175722300D01*
X213213049Y-175709733D01*
X213242788Y-175700034D01*
X213273335Y-175693297D01*
X213304394Y-175689586D01*
X213940341Y-175645116D01*
X213971615Y-175644468D01*
X214002802Y-175646888D01*
X214002802Y-175646888D01*
G37*
D11*
X213669453Y-176340707D03*
G04 #@! TD*
D10*
G04 #@! TO.C,C3*
G36*
X210801841Y-183135456D02*
X210832540Y-183141458D01*
X210862504Y-183150440D01*
X210891442Y-183162316D01*
X210919077Y-183176971D01*
X210945143Y-183194264D01*
X210969388Y-183214029D01*
X210991579Y-183236076D01*
X211011502Y-183260191D01*
X211028966Y-183286143D01*
X211043802Y-183313681D01*
X211055867Y-183342542D01*
X211065045Y-183372445D01*
X211071248Y-183403105D01*
X211074416Y-183434225D01*
X211107780Y-184070851D01*
X211107883Y-184102131D01*
X211104918Y-184133271D01*
X211098916Y-184163971D01*
X211089934Y-184193934D01*
X211078058Y-184222873D01*
X211063403Y-184250508D01*
X211046109Y-184276573D01*
X211026344Y-184300818D01*
X211004298Y-184323009D01*
X210980183Y-184342933D01*
X210954231Y-184360396D01*
X210926692Y-184375232D01*
X210897832Y-184387297D01*
X210867928Y-184396475D01*
X210837269Y-184402678D01*
X210806149Y-184405846D01*
X210094625Y-184443136D01*
X210063345Y-184443239D01*
X210032205Y-184440274D01*
X210001506Y-184434272D01*
X209971542Y-184425290D01*
X209942604Y-184413414D01*
X209914969Y-184398759D01*
X209888903Y-184381466D01*
X209864658Y-184361701D01*
X209842467Y-184339654D01*
X209822544Y-184315539D01*
X209805080Y-184289587D01*
X209790244Y-184262049D01*
X209778179Y-184233188D01*
X209769001Y-184203285D01*
X209762798Y-184172625D01*
X209759630Y-184141505D01*
X209726266Y-183504879D01*
X209726163Y-183473599D01*
X209729128Y-183442459D01*
X209735130Y-183411759D01*
X209744112Y-183381796D01*
X209755988Y-183352857D01*
X209770643Y-183325222D01*
X209787937Y-183299157D01*
X209807702Y-183274912D01*
X209829748Y-183252721D01*
X209853863Y-183232797D01*
X209879815Y-183215334D01*
X209907354Y-183200498D01*
X209936214Y-183188433D01*
X209966118Y-183179255D01*
X209996777Y-183173052D01*
X210027897Y-183169884D01*
X210739421Y-183132594D01*
X210770701Y-183132491D01*
X210801841Y-183135456D01*
X210801841Y-183135456D01*
G37*
D11*
X210417023Y-183787865D03*
D10*
G36*
X210884271Y-184708298D02*
X210914970Y-184714300D01*
X210944934Y-184723282D01*
X210973872Y-184735158D01*
X211001507Y-184749813D01*
X211027573Y-184767106D01*
X211051818Y-184786871D01*
X211074009Y-184808918D01*
X211093932Y-184833033D01*
X211111396Y-184858985D01*
X211126232Y-184886523D01*
X211138297Y-184915384D01*
X211147475Y-184945287D01*
X211153678Y-184975947D01*
X211156846Y-185007067D01*
X211190210Y-185643693D01*
X211190313Y-185674973D01*
X211187348Y-185706113D01*
X211181346Y-185736813D01*
X211172364Y-185766776D01*
X211160488Y-185795715D01*
X211145833Y-185823350D01*
X211128539Y-185849415D01*
X211108774Y-185873660D01*
X211086728Y-185895851D01*
X211062613Y-185915775D01*
X211036661Y-185933238D01*
X211009122Y-185948074D01*
X210980262Y-185960139D01*
X210950358Y-185969317D01*
X210919699Y-185975520D01*
X210888579Y-185978688D01*
X210177055Y-186015978D01*
X210145775Y-186016081D01*
X210114635Y-186013116D01*
X210083936Y-186007114D01*
X210053972Y-185998132D01*
X210025034Y-185986256D01*
X209997399Y-185971601D01*
X209971333Y-185954308D01*
X209947088Y-185934543D01*
X209924897Y-185912496D01*
X209904974Y-185888381D01*
X209887510Y-185862429D01*
X209872674Y-185834891D01*
X209860609Y-185806030D01*
X209851431Y-185776127D01*
X209845228Y-185745467D01*
X209842060Y-185714347D01*
X209808696Y-185077721D01*
X209808593Y-185046441D01*
X209811558Y-185015301D01*
X209817560Y-184984601D01*
X209826542Y-184954638D01*
X209838418Y-184925699D01*
X209853073Y-184898064D01*
X209870367Y-184871999D01*
X209890132Y-184847754D01*
X209912178Y-184825563D01*
X209936293Y-184805639D01*
X209962245Y-184788176D01*
X209989784Y-184773340D01*
X210018644Y-184761275D01*
X210048548Y-184752097D01*
X210079207Y-184745894D01*
X210110327Y-184742726D01*
X210821851Y-184705436D01*
X210853131Y-184705333D01*
X210884271Y-184708298D01*
X210884271Y-184708298D01*
G37*
D11*
X210499453Y-185360707D03*
G04 #@! TD*
D10*
G04 #@! TO.C,C2*
G36*
X195559591Y-184643793D02*
X195590303Y-184649728D01*
X195620286Y-184658645D01*
X195649250Y-184670457D01*
X195676917Y-184685052D01*
X195703021Y-184702289D01*
X195727309Y-184722001D01*
X195749548Y-184743998D01*
X195769524Y-184768070D01*
X195787044Y-184793984D01*
X195801940Y-184821490D01*
X195814068Y-184850324D01*
X196032105Y-185449378D01*
X196041349Y-185479262D01*
X196047618Y-185509908D01*
X196050854Y-185541021D01*
X196051025Y-185572301D01*
X196048128Y-185603447D01*
X196042193Y-185634160D01*
X196033276Y-185664143D01*
X196021463Y-185693107D01*
X196006868Y-185720774D01*
X195989632Y-185746877D01*
X195969920Y-185771165D01*
X195947922Y-185793404D01*
X195923850Y-185813380D01*
X195897937Y-185830900D01*
X195870430Y-185845796D01*
X195841597Y-185857924D01*
X195172066Y-186101614D01*
X195142182Y-186110857D01*
X195111537Y-186117127D01*
X195080424Y-186120363D01*
X195049144Y-186120534D01*
X195017997Y-186117637D01*
X194987285Y-186111702D01*
X194957302Y-186102785D01*
X194928338Y-186090973D01*
X194900671Y-186076378D01*
X194874567Y-186059141D01*
X194850279Y-186039429D01*
X194828040Y-186017432D01*
X194808064Y-185993360D01*
X194790544Y-185967446D01*
X194775648Y-185939940D01*
X194763520Y-185911106D01*
X194545483Y-185312052D01*
X194536239Y-185282168D01*
X194529970Y-185251522D01*
X194526734Y-185220409D01*
X194526563Y-185189129D01*
X194529460Y-185157983D01*
X194535395Y-185127270D01*
X194544312Y-185097287D01*
X194556125Y-185068323D01*
X194570720Y-185040656D01*
X194587956Y-185014553D01*
X194607668Y-184990265D01*
X194629666Y-184968026D01*
X194653738Y-184948050D01*
X194679651Y-184930530D01*
X194707158Y-184915634D01*
X194735991Y-184903506D01*
X195405522Y-184659816D01*
X195435406Y-184650573D01*
X195466051Y-184644303D01*
X195497164Y-184641067D01*
X195528444Y-184640896D01*
X195559591Y-184643793D01*
X195559591Y-184643793D01*
G37*
D11*
X195288794Y-185380715D03*
D10*
G36*
X195020909Y-183163777D02*
X195051621Y-183169712D01*
X195081604Y-183178629D01*
X195110568Y-183190441D01*
X195138235Y-183205036D01*
X195164339Y-183222273D01*
X195188627Y-183241985D01*
X195210866Y-183263982D01*
X195230842Y-183288054D01*
X195248362Y-183313968D01*
X195263258Y-183341474D01*
X195275386Y-183370308D01*
X195493423Y-183969362D01*
X195502667Y-183999246D01*
X195508936Y-184029892D01*
X195512172Y-184061005D01*
X195512343Y-184092285D01*
X195509446Y-184123431D01*
X195503511Y-184154144D01*
X195494594Y-184184127D01*
X195482781Y-184213091D01*
X195468186Y-184240758D01*
X195450950Y-184266861D01*
X195431238Y-184291149D01*
X195409240Y-184313388D01*
X195385168Y-184333364D01*
X195359255Y-184350884D01*
X195331748Y-184365780D01*
X195302915Y-184377908D01*
X194633384Y-184621598D01*
X194603500Y-184630841D01*
X194572855Y-184637111D01*
X194541742Y-184640347D01*
X194510462Y-184640518D01*
X194479315Y-184637621D01*
X194448603Y-184631686D01*
X194418620Y-184622769D01*
X194389656Y-184610957D01*
X194361989Y-184596362D01*
X194335885Y-184579125D01*
X194311597Y-184559413D01*
X194289358Y-184537416D01*
X194269382Y-184513344D01*
X194251862Y-184487430D01*
X194236966Y-184459924D01*
X194224838Y-184431090D01*
X194006801Y-183832036D01*
X193997557Y-183802152D01*
X193991288Y-183771506D01*
X193988052Y-183740393D01*
X193987881Y-183709113D01*
X193990778Y-183677967D01*
X193996713Y-183647254D01*
X194005630Y-183617271D01*
X194017443Y-183588307D01*
X194032038Y-183560640D01*
X194049274Y-183534537D01*
X194068986Y-183510249D01*
X194090984Y-183488010D01*
X194115056Y-183468034D01*
X194140969Y-183450514D01*
X194168476Y-183435618D01*
X194197309Y-183423490D01*
X194866840Y-183179800D01*
X194896724Y-183170557D01*
X194927369Y-183164287D01*
X194958482Y-183161051D01*
X194989762Y-183160880D01*
X195020909Y-183163777D01*
X195020909Y-183163777D01*
G37*
D11*
X194750112Y-183900699D03*
G04 #@! TD*
D10*
G04 #@! TO.C,C1*
G36*
X216397759Y-191017263D02*
X216428559Y-191022729D01*
X216458674Y-191031187D01*
X216487815Y-191042556D01*
X216515702Y-191056727D01*
X216542066Y-191073563D01*
X216566652Y-191092901D01*
X216589224Y-191114557D01*
X216609565Y-191138321D01*
X216627479Y-191163964D01*
X216642793Y-191191240D01*
X216655360Y-191219885D01*
X216665059Y-191249624D01*
X216671796Y-191280171D01*
X216675507Y-191311230D01*
X216719977Y-191947177D01*
X216720625Y-191978451D01*
X216718205Y-192009638D01*
X216712739Y-192040437D01*
X216704281Y-192070553D01*
X216692912Y-192099694D01*
X216678741Y-192127581D01*
X216661906Y-192153944D01*
X216642567Y-192178531D01*
X216620911Y-192201103D01*
X216597147Y-192221444D01*
X216571504Y-192239358D01*
X216544229Y-192254672D01*
X216515583Y-192267239D01*
X216485844Y-192276938D01*
X216455298Y-192283675D01*
X216424238Y-192287386D01*
X215713474Y-192337087D01*
X215682200Y-192337735D01*
X215651013Y-192335315D01*
X215620213Y-192329849D01*
X215590098Y-192321391D01*
X215560957Y-192310022D01*
X215533070Y-192295851D01*
X215506706Y-192279015D01*
X215482120Y-192259677D01*
X215459548Y-192238021D01*
X215439207Y-192214257D01*
X215421293Y-192188614D01*
X215405979Y-192161338D01*
X215393412Y-192132693D01*
X215383713Y-192102954D01*
X215376976Y-192072407D01*
X215373265Y-192041348D01*
X215328795Y-191405401D01*
X215328147Y-191374127D01*
X215330567Y-191342940D01*
X215336033Y-191312141D01*
X215344491Y-191282025D01*
X215355860Y-191252884D01*
X215370031Y-191224997D01*
X215386866Y-191198634D01*
X215406205Y-191174047D01*
X215427861Y-191151475D01*
X215451625Y-191131134D01*
X215477268Y-191113220D01*
X215504543Y-191097906D01*
X215533189Y-191085339D01*
X215562928Y-191075640D01*
X215593474Y-191068903D01*
X215624534Y-191065192D01*
X216335298Y-191015491D01*
X216366572Y-191014843D01*
X216397759Y-191017263D01*
X216397759Y-191017263D01*
G37*
D11*
X216024386Y-191676289D03*
D10*
G36*
X216287893Y-189446099D02*
X216318693Y-189451565D01*
X216348808Y-189460023D01*
X216377949Y-189471392D01*
X216405836Y-189485563D01*
X216432200Y-189502399D01*
X216456786Y-189521737D01*
X216479358Y-189543393D01*
X216499699Y-189567157D01*
X216517613Y-189592800D01*
X216532927Y-189620076D01*
X216545494Y-189648721D01*
X216555193Y-189678460D01*
X216561930Y-189709007D01*
X216565641Y-189740066D01*
X216610111Y-190376013D01*
X216610759Y-190407287D01*
X216608339Y-190438474D01*
X216602873Y-190469273D01*
X216594415Y-190499389D01*
X216583046Y-190528530D01*
X216568875Y-190556417D01*
X216552040Y-190582780D01*
X216532701Y-190607367D01*
X216511045Y-190629939D01*
X216487281Y-190650280D01*
X216461638Y-190668194D01*
X216434363Y-190683508D01*
X216405717Y-190696075D01*
X216375978Y-190705774D01*
X216345432Y-190712511D01*
X216314372Y-190716222D01*
X215603608Y-190765923D01*
X215572334Y-190766571D01*
X215541147Y-190764151D01*
X215510347Y-190758685D01*
X215480232Y-190750227D01*
X215451091Y-190738858D01*
X215423204Y-190724687D01*
X215396840Y-190707851D01*
X215372254Y-190688513D01*
X215349682Y-190666857D01*
X215329341Y-190643093D01*
X215311427Y-190617450D01*
X215296113Y-190590174D01*
X215283546Y-190561529D01*
X215273847Y-190531790D01*
X215267110Y-190501243D01*
X215263399Y-190470184D01*
X215218929Y-189834237D01*
X215218281Y-189802963D01*
X215220701Y-189771776D01*
X215226167Y-189740977D01*
X215234625Y-189710861D01*
X215245994Y-189681720D01*
X215260165Y-189653833D01*
X215277000Y-189627470D01*
X215296339Y-189602883D01*
X215317995Y-189580311D01*
X215341759Y-189559970D01*
X215367402Y-189542056D01*
X215394677Y-189526742D01*
X215423323Y-189514175D01*
X215453062Y-189504476D01*
X215483608Y-189497739D01*
X215514668Y-189494028D01*
X216225432Y-189444327D01*
X216256706Y-189443679D01*
X216287893Y-189446099D01*
X216287893Y-189446099D01*
G37*
D11*
X215914520Y-190105125D03*
G04 #@! TD*
D24*
G04 #@! TO.C,U2*
X213931953Y-164440707D03*
X213931953Y-164940707D03*
X213931953Y-165440707D03*
X213931953Y-165940707D03*
X211406953Y-165940707D03*
X211406953Y-165440707D03*
X211406953Y-164940707D03*
X211406953Y-164440707D03*
D25*
X213169453Y-166203207D03*
X212669453Y-166203207D03*
X212169453Y-166203207D03*
X213169453Y-164178207D03*
X212169453Y-164178207D03*
X212669453Y-164178207D03*
G04 #@! TD*
D26*
G04 #@! TO.C,J2*
X221659209Y-191748271D03*
D27*
X221659209Y-191748271D02*
X221659209Y-191748271D01*
D26*
X221589453Y-190750707D03*
D10*
G36*
X222169333Y-190083632D02*
X222256528Y-191330587D01*
X221009573Y-191417782D01*
X220922378Y-190170827D01*
X222169333Y-190083632D01*
X222169333Y-190083632D01*
G37*
G04 #@! TD*
M02*
