<?xml version="1.0" encoding="UTF-8" standalone="no"?>
<svg
   xmlns:dc="http://purl.org/dc/elements/1.1/"
   xmlns:cc="http://creativecommons.org/ns#"
   xmlns:rdf="http://www.w3.org/1999/02/22-rdf-syntax-ns#"
   xmlns:svg="http://www.w3.org/2000/svg"
   xmlns="http://www.w3.org/2000/svg"
   xmlns:sodipodi="http://sodipodi.sourceforge.net/DTD/sodipodi-0.dtd"
   xmlns:inkscape="http://www.inkscape.org/namespaces/inkscape"
   width="83.0384605408mm"
   height="213.291001129mm"
   viewBox="0 0 83.0384605408 213.291001129"
   version="1.1"
   id="svg646"
   sodipodi:docname="plantilla34.svg"
   inkscape:version="0.92.3 (2405546, 2018-03-11)">
  <metadata
     id="metadata652">
    <rdf:RDF>
      <cc:Work
         rdf:about="">
        <dc:format>image/svg+xml</dc:format>
        <dc:type
           rdf:resource="http://purl.org/dc/dcmitype/StillImage" />
      </cc:Work>
    </rdf:RDF>
  </metadata>
  <defs
     id="defs650" />
  <sodipodi:namedview
     pagecolor="#ffffff"
     bordercolor="#666666"
     borderopacity="1"
     objecttolerance="10"
     gridtolerance="10"
     guidetolerance="10"
     inkscape:pageopacity="0"
     inkscape:pageshadow="2"
     inkscape:window-width="1920"
     inkscape:window-height="1001"
     id="namedview648"
     showgrid="false"
     inkscape:zoom="0.82803167"
     inkscape:cx="-132.61289"
     inkscape:cy="330.7528"
     inkscape:window-x="-9"
     inkscape:window-y="-9"
     inkscape:window-maximized="1"
     inkscape:current-layer="plantilla34001_solid001" />
  <g
     id="plantilla34001_solid001"
     transform="translate(41.519230,106.647438) scale(1,-1)">
    <path
       id="plantilla34001_solid001_f0319"
       d="m -24.651785,-64.919977 0.355959,1.671006 0.342829,1.695903 0.329906,1.720211 0.317204,1.743828 0.304724,1.766678 0.292434,1.788677 0.280281,1.809716 0.268174,1.829712 0.499607,3.714653 0.448408,3.779312 0.39254,3.831863 0.330129,3.871243 0.259686,3.896812 0.178778,3.907686 0.05451,1.952837 0.02797,1.94911 -0.0017,1.942826 -0.03504,1.933776 -0.07239,1.921856 -0.113943,1.907048 -0.159681,1.88944 -0.209408,1.869219 -0.262745,1.846669 -0.319138,1.8221633 -0.377914,1.796135 -0.438292,1.7690652 -0.499376,1.7414856 -0.560165,1.7139737 -0.619551,1.68715722 -0.67634,1.66170038 -0.729374,1.6382434 -0.777643,1.6173482 -0.820288,1.5994962 -0.856607,1.585084 -0.886053,1.5744276 -0.908232,1.5677602 -1.852623,3.132274 -1.848393,3.157019 -0.902527,1.598959 -0.877269,1.618614 -0.843956,1.642769 -0.802685,1.671358 -0.753689,1.704266 -0.697269,1.741313 -0.633839,1.782286 -0.563904,1.826901 -0.253853,0.931226 -0.234207,0.943592 -0.213924,0.956315 -0.193066,0.969356 -0.171673,0.982704 -0.149799,0.996319 -0.127506,1.010166 -0.104843,1.024231 -0.08187,1.038456 -0.05866,1.052826 -0.03527,1.067295 -0.01177,1.081822 0.0048,2.706024 0.01451,2.62804 0.0244,2.551189 0.03447,2.475476 0.0447,2.400886 0.05511,2.327431 0.06569,2.255112 0.07645,2.183918 0.08738,2.113857 0.09849,2.044937 0.109768,1.977135 0.12122,1.910477 0.132846,1.84494 0.14465,1.78054 0.156624,1.71727 0.168773,1.655136 0.181096,1.594132 0.193592,1.534256 0.20626,1.475517 0.219109,1.4179 0.232124,1.361427 0.24532,1.306084 0.258682,1.251869 0.272224,1.198784 0.285942,1.146835 0.299824,1.096016 0.313889,1.046326 0.328125,0.997772 0.342537,0.950348 0.357116,0.904053 0.371876,0.858894 0.386807,0.814873 0.401912,0.771965 0.417195,0.730209 0.432643,0.689568 0.448273,0.650078 0.464073,0.611695 0.480049,0.57447 0.496197,0.53835 0.51252,0.50339 0.529017,0.46953 0.545686,0.43683 0.562533,0.40525 0.579549,0.3748 0.596743,0.34549 0.614109,0.31731 0.631649,0.29025 0.649365,0.26433 0.667251,0.23955 0.685313,0.21588 0.703548,0.19337 0.72196,0.17196 0.740541,0.15171 0.759301,0.13258 0.77823,0.11458 0.797337,0.0977 0.816616,0.082 0.836067,0.0674 0.8557,0.0539 0.8755,0.0416 1.81109,0.0507 1.89238,0.0149 1.32245,-0.0158 1.27073,-0.0464 1.2214504,-0.0756 1.1745,-0.10343 1.12984,-0.12988 1.08735,-0.15505 1.04701,-0.17894 1.00869,-0.20163 0.97237,-0.22314 0.93796,-0.24352 0.90537,-0.26281 0.87456002,-0.28104 0.84546,-0.29827 0.81798998,-0.31451 0.79209,-0.32982 0.76772,-0.34423 0.74478,-0.35778 0.72325,-0.37049 1.3871,-0.77598 1.31611,-0.81771 1.25415,-0.854013 1.20035,-0.885353 1.1538896,-0.912201 1.11398,-0.93502 1.07985,-0.954193 1.05081,-0.970162 1.02618,-0.983269 1.99283,-1.99617 1.93168,-2.022651 1.88503,-2.037346 1.84556,-2.043938 1.80712,-2.045372 1.76477,-2.043823 1.71471,-2.040726 1.65436,-2.036758 1.58217,-2.032555 0.76008,-1.015182 0.73726,-1.01519 0.71284,-1.01619 0.68686,-1.018601 0.65932,-1.022933 0.63035,-1.029763 0.59999,-1.039734 0.56836,-1.053573 0.53558,-1.072075 0.50179,-1.096108 0.46717,-1.126617 0.43189,-1.1646 0.39614,-1.211163 0.36017,-1.267452 0.32418,-1.334706 0.14867,-0.69635 0.1398,-0.717868 0.131,-0.741135 0.12229,-0.766243 0.1137,-0.793285 0.10525,-0.82235 0.097,-0.853542 0.0888,-0.886963 0.0809,-0.922703 0.0732,-0.960884 0.0657,-1.001595 0.0585,-1.044956 0.0516,-1.091072 0.045,-1.140064 0.0387,-1.19204 0.0328,-1.24712 0.0273,-1.305427 0.0223,-1.367081 0.0176,-1.432205 0.0135,-1.500935 0.01,-1.573383 0.007,-1.6497 0.004,-1.730007 0.002,-1.814444 8.1e-4,-1.903152 1e-4,-0.986214 10e-6,-1.010056 -0.006,-1.060606 -0.017,-1.039688 -0.0283,-1.018882 -0.0396,-0.99825 -0.0507,-0.977859 -0.0617,-0.957764 -0.15556,-1.856731 -0.19714,-1.781344 -0.23671,-1.710266 -0.2739,-1.644232 -0.30843,-1.583895 -0.34002,-1.5298 L 38.6219,10.55685 38.22837,9.1148514 37.81321,7.7060174 37.37996,6.3230175 36.93219,4.9585308 36.00733,2.256354 35.06669,-0.45628268 34.13727,-3.2315377 l -0.45252,-1.42609 -0.44044,-1.458847 -0.42574,-1.496085 -0.40874,-1.53687 -0.38992,-1.5800603 -0.36981,-1.624303 -0.34897,-1.668059 -0.32805,-1.709766 -0.30759,-1.748051 -0.28804,-1.781748 -0.26982,-1.809923 -0.25318,-1.831858 -0.46399,-3.702264 -0.42073,-3.707039 -0.39228,-3.659813 -0.18907,-1.798985 -0.18546,-1.773491 -0.18216,-1.74588 -0.17873,-1.717232 -0.17486,-1.688457 -0.17029,-1.660271 -0.16483,-1.633247 -0.15834,-1.607754 -0.15074,-1.584061 -0.14196,-1.5624 -0.25249,-3.069081 -0.20147,-3.012386 -0.13865,-2.979618 -0.0635,-2.972817 1.5e-4,-1.491966 0.0233,-1.499748 0.0477,-1.510284 0.0732,-1.523293 0.0997,-1.538399 0.12693,-1.555221 0.15477,-1.573334 0.18296,-1.592285 0.1465,-1.561562 0.056,-1.567428 -0.0346,-1.568039 -0.12513,-1.563431 -0.21526,-1.553581 -0.30464,-1.538559 -0.39303,-1.518379 -0.48009,-1.493142 -0.56556,-1.462913 -0.64912,-1.427796 -0.73053,-1.387901 -0.80949,-1.343384 -0.88575,-1.29438 -0.95905,-1.241035 -1.02915,-1.183562 -1.09581,-1.12213 -1.1588,-1.05694 -1.21793,-0.98823 -1.273,-0.916214 -1.32379,-0.84114 -1.37018,-0.76326 -1.41199,-0.68283 -1.4490796,-0.6001 -1.48133,-0.51539 -1.50863,-0.42895 -1.53089,-0.34107 -1.54804,-0.25205 -1.56002,-0.16221 -1.56677998,-0.0718 -1.56831002,0.0188 -1.5646,0.10941 -1.55568,0.19962 -1.54153,0.28916 -1.52226,0.37773 -1.4979,0.46505 -1.4685204,0.55081 -1.43425,0.63474 -1.39519,0.71653 -1.35146,0.79594 -1.30321,0.87269 -1.25062,0.946524 -1.19385,1.01719 -1.1331,1.08447 -1.068539,1.14811 -1.000429,1.207937 -0.928972,1.26371 -0.854413,1.31527 -0.776998,1.362434 -0.696989,1.405052 -0.614651,1.44297 -0.53026,1.476067 -0.444097,1.504242 -0.356451,1.527382 -0.267615,1.545425 -0.177883,1.558312 -0.08756,1.565979 0.0031,1.56842 0.09367,1.565628 0.18396,1.557594 0.273641,1.544373 0.362408,1.525978 0.410028,1.567368 0.396338,1.59365 0.38274,1.619774 z"
       style="fill:none;fill-rule:evenodd;stroke:#191919;stroke-width:0.34999999;stroke-miterlimit:4;stroke-dasharray:none"
       inkscape:connector-curvature="0"
       sodipodi:nodetypes="ccccccccccccccccccccccccccccccccccccccccccccccccccccccccccccccccccccccccccccccccccccccccccccccccccccccccccccccccccccccccccccccccccccccccccccccccccccccccccccccccccccccccccccccccccccccccccccccccccccccccccccccccccccccccccccccccccccccccccccccccccccccccccccccccccccccccccccccccccccccccccccccccccccccccccccccccccccccccccccccccc" />
    <title
       id="title643">plantilla34001 (Solid)001</title>
  </g>
</svg>
