G04 #@! TF.GenerationSoftware,KiCad,Pcbnew,(5.0.0)*
G04 #@! TF.CreationDate,2020-01-29T13:42:57+01:00*
G04 #@! TF.ProjectId,Insole_PCB,496E736F6C655F5043422E6B69636164,rev?*
G04 #@! TF.SameCoordinates,Original*
G04 #@! TF.FileFunction,Profile,NP*
%FSLAX46Y46*%
G04 Gerber Fmt 4.6, Leading zero omitted, Abs format (unit mm)*
G04 Created by KiCad (PCBNEW (5.0.0)) date 01/29/20 13:42:57*
%MOMM*%
%LPD*%
G01*
G04 APERTURE LIST*
%ADD10C,0.100000*%
G04 APERTURE END LIST*
D10*
X253816682Y-138789395D02*
X254148002Y-136943200D01*
X253054560Y-142306733D02*
X253451190Y-140574257D01*
X254908897Y-130956098D02*
X255076578Y-128788257D01*
X254696718Y-133033821D02*
X254908897Y-130956098D01*
X254442256Y-135027244D02*
X254696718Y-133033821D01*
X254148002Y-136943200D02*
X254442256Y-135027244D01*
X252629940Y-143996087D02*
X253054560Y-142306733D01*
X253451190Y-140574257D02*
X253816682Y-138789395D01*
X241388736Y-197934565D02*
X241627882Y-195791776D01*
X240232884Y-208159793D02*
X240457424Y-206181595D01*
X240013147Y-210110899D02*
X240013484Y-210107599D01*
X237309287Y-258847310D02*
X237859704Y-257203700D01*
X237859704Y-257203700D02*
X238315121Y-255531270D01*
X238519088Y-226673121D02*
X238742216Y-223120735D01*
X239161697Y-248664159D02*
X239126087Y-246931201D01*
X241152140Y-200046303D02*
X241388736Y-197934565D01*
X235107618Y-263551920D02*
X235930983Y-262026640D01*
X240917859Y-202124982D02*
X241152140Y-200046303D01*
X240457484Y-206181293D02*
X240686094Y-204169912D01*
X240457424Y-206181595D02*
X240457484Y-206181293D01*
X240232710Y-208161493D02*
X240232884Y-208159793D01*
X238745116Y-223081725D02*
X239041280Y-219490698D01*
X239595584Y-213919664D02*
X239800037Y-212031885D01*
X238347907Y-233907615D02*
X238350307Y-232119334D01*
X228475716Y-271498350D02*
X229764890Y-270339710D01*
X238935300Y-252121986D02*
X239098027Y-250396314D01*
X232133895Y-267810750D02*
X233205955Y-266448730D01*
X238315121Y-255531270D02*
X238674046Y-253835507D01*
X239043780Y-219462128D02*
X239398384Y-215804054D01*
X242634056Y-186986303D02*
X243188584Y-182572849D01*
X238521583Y-239457915D02*
X238433413Y-237623582D01*
X240013484Y-210107599D02*
X240232710Y-208161493D01*
X244147403Y-176018396D02*
X244500824Y-173931589D01*
X233205955Y-266448730D02*
X234198279Y-265027560D01*
X241627882Y-195791776D02*
X241627984Y-195790576D01*
X252180578Y-145651710D02*
X252629940Y-143996087D01*
X251709843Y-147282917D02*
X252180578Y-145651710D01*
X230985615Y-269109160D02*
X232133895Y-267810750D01*
X251222009Y-148896062D02*
X251709843Y-147282917D01*
X247610147Y-160454567D02*
X248114531Y-158745404D01*
X250203345Y-152122646D02*
X251222009Y-148896062D01*
X239098027Y-250396314D02*
X239161697Y-248664159D01*
X235930983Y-262026640D02*
X236665675Y-260456710D01*
X249161554Y-155373014D02*
X250203345Y-152122646D01*
X243492082Y-180349096D02*
X243806858Y-178189987D01*
X238800230Y-243255411D02*
X238646537Y-241379493D01*
X241627984Y-195790576D02*
X242117187Y-191430205D01*
X246627129Y-164045347D02*
X247103700Y-162254016D01*
X240686094Y-204169912D02*
X240917859Y-202124982D01*
X238644037Y-241346013D02*
X238523483Y-239491625D01*
X238381610Y-230267019D02*
X238519453Y-226670707D01*
X248122731Y-158718387D02*
X249156054Y-155390379D01*
X238350590Y-232088514D02*
X238380410Y-230309549D01*
X236665675Y-260456710D02*
X237309287Y-258847310D01*
X247111200Y-162226357D02*
X247603147Y-160478739D01*
X246160517Y-165914706D02*
X246619329Y-164075449D01*
X229764890Y-270339710D02*
X230985615Y-269109160D01*
X234198279Y-265027560D02*
X235107618Y-263551920D01*
X239399884Y-215788824D02*
X239594809Y-213926764D01*
X245713735Y-167836002D02*
X246152917Y-165946096D01*
X242118084Y-191422205D02*
X242631856Y-187004603D01*
X245288510Y-169809498D02*
X245706635Y-167867682D01*
X238374609Y-235740612D02*
X238348099Y-233939735D01*
X239126087Y-246931201D02*
X238988469Y-245166424D01*
X243191384Y-182551799D02*
X243489482Y-180367206D01*
X238674046Y-253835507D02*
X238935300Y-252121986D01*
X244505624Y-173904699D02*
X244880194Y-171862705D01*
X239800584Y-212026785D02*
X240013147Y-210110899D01*
X238988469Y-245166424D02*
X238803230Y-243288381D01*
X244885794Y-171833495D02*
X245282110Y-169840378D01*
X238432113Y-237590012D02*
X238375343Y-235773652D01*
X243810058Y-178168797D02*
X244143403Y-176042576D01*
X219554017Y-276745380D02*
X221158219Y-276088890D01*
X214553314Y-278150240D02*
X216246146Y-277777740D01*
X207652845Y-278657560D02*
X209386035Y-278679260D01*
X211117627Y-278601760D02*
X212841938Y-278425210D01*
X197536521Y-276469420D02*
X199161033Y-277073890D01*
X187489393Y-269809860D02*
X188749127Y-271000450D01*
X179726331Y-256475110D02*
X180235384Y-258132000D01*
X178778430Y-251368039D02*
X178996658Y-253087571D01*
X178895817Y-244449933D02*
X178717793Y-246174098D01*
X178996658Y-253087571D02*
X179312970Y-254791789D01*
X204204396Y-278316940D02*
X205923743Y-278536640D01*
X227122323Y-272581290D02*
X228475716Y-271498350D01*
X209386035Y-278679260D02*
X211117627Y-278601760D01*
X202500448Y-277999170D02*
X204204396Y-278316940D01*
X184146924Y-265833860D02*
X185184514Y-267222320D01*
X188749127Y-271000450D02*
X190074956Y-272116960D01*
X180235384Y-258132000D02*
X180838458Y-259757030D01*
X179172255Y-242738796D02*
X178895817Y-244449933D01*
X224240839Y-274506090D02*
X225709155Y-273584960D01*
X216246146Y-277777740D02*
X217914870Y-277308950D01*
X199161033Y-277073890D02*
X200817486Y-277584360D01*
X178659003Y-249638829D02*
X178778430Y-251368039D01*
X195949278Y-275772940D02*
X197536521Y-276469420D01*
X180838458Y-259757030D02*
X181533576Y-261344860D01*
X192907292Y-274113380D02*
X194404515Y-274986740D01*
X191462525Y-273155740D02*
X192907292Y-274113380D01*
X190074956Y-272116960D02*
X191462525Y-273155740D01*
X186299889Y-268549110D02*
X187489393Y-269809860D01*
X178717793Y-246174098D02*
X178638763Y-247905623D01*
X183190527Y-264388270D02*
X184146924Y-265833860D01*
X181533576Y-261344860D02*
X182318457Y-262890310D01*
X182318457Y-262890310D02*
X183190527Y-264388270D01*
X178638763Y-247905623D02*
X178659003Y-249638829D01*
X225709155Y-273584960D02*
X227122323Y-272581290D01*
X205923743Y-278536640D02*
X207652845Y-278657560D01*
X179312970Y-254791789D02*
X179726331Y-256475110D01*
X221158219Y-276088890D02*
X222722201Y-275341650D01*
X212841938Y-278425210D02*
X214553314Y-278150240D01*
X222722201Y-275341650D02*
X224240839Y-274506090D01*
X200817486Y-277584360D02*
X202500448Y-277999170D01*
X194404515Y-274986740D02*
X195949278Y-275772940D01*
X217914870Y-277308950D02*
X219554017Y-276745380D01*
X185184514Y-267222320D02*
X186299889Y-268549110D01*
X185490712Y-31280957D02*
X184561092Y-31374257D01*
X208431391Y-33722247D02*
X207481815Y-33360267D01*
X211938977Y-35356437D02*
X211101699Y-34921847D01*
X229484747Y-50927057D02*
X227212643Y-48360497D01*
X223681007Y-44597777D02*
X222460182Y-43380637D01*
X197140230Y-31188257D02*
X195743247Y-31094757D01*
X205480359Y-32699487D02*
X204423777Y-32403067D01*
X211101699Y-34921847D02*
X210239285Y-34504017D01*
X176733848Y-33410147D02*
X176087263Y-33744227D01*
X221210573Y-42188087D02*
X219927008Y-41024397D01*
X240130023Y-63891062D02*
X238108342Y-61311345D01*
X187432256Y-31141857D02*
X186447758Y-31203857D01*
X177402763Y-33102767D02*
X176733848Y-33410147D01*
X178095110Y-32820947D02*
X177402763Y-33102767D01*
X188438279Y-31094057D02*
X187432256Y-31141857D01*
X210239285Y-34504017D02*
X209349844Y-34103827D01*
X178811836Y-32563637D02*
X178095110Y-32820947D01*
X217233011Y-38802117D02*
X215807596Y-37753457D01*
X204423777Y-32403067D02*
X203326656Y-32131017D01*
X222460182Y-43380637D02*
X221210573Y-42188087D01*
X183658867Y-31484817D02*
X182783955Y-31613637D01*
X227212643Y-48360497D02*
X224872956Y-45830907D01*
X201000423Y-31665697D02*
X199765930Y-31475487D01*
X231708475Y-53517977D02*
X229484747Y-50927057D01*
X195743247Y-31094757D02*
X194286221Y-31037257D01*
X206498905Y-33018967D02*
X205480359Y-32699487D01*
X198480150Y-31315757D02*
X197140230Y-31188257D01*
X224872956Y-45830907D02*
X223681007Y-44597777D01*
X203326656Y-32131017D02*
X202186421Y-31884727D01*
X236024415Y-58718929D02*
X233888871Y-56118741D01*
X179553725Y-32329927D02*
X178811836Y-32563637D01*
X194286221Y-31037257D02*
X192761186Y-31017557D01*
X214318005Y-36753507D02*
X212742104Y-35800967D01*
X180321437Y-32118927D02*
X179553725Y-32329927D01*
X199765930Y-31475487D02*
X198480150Y-31315757D01*
X181115467Y-31929797D02*
X180321437Y-32118927D01*
X209349844Y-34103827D02*
X208431391Y-33722247D01*
X233888871Y-56118741D02*
X231708475Y-53517977D01*
X238108342Y-61311345D02*
X236024415Y-58718929D01*
X202186421Y-31884727D02*
X201000423Y-31665697D01*
X242076237Y-66454319D02*
X240130023Y-63891062D01*
X181936210Y-31761657D02*
X181115467Y-31929797D01*
X182783955Y-31613637D02*
X181936210Y-31761657D01*
X207481815Y-33360267D02*
X206498905Y-33018967D01*
X215807596Y-37753457D02*
X214318005Y-36753507D01*
X184561092Y-31374257D02*
X183658867Y-31484817D01*
X192761186Y-31017557D02*
X190552056Y-31034957D01*
X186447758Y-31203857D02*
X185490712Y-31280957D01*
X190552056Y-31034957D02*
X188438279Y-31094057D01*
X212742104Y-35800967D02*
X211938977Y-35356437D01*
X218603474Y-39894117D02*
X217233011Y-38802117D01*
X219927008Y-41024397D02*
X218603474Y-39894117D01*
X245682787Y-71521094D02*
X244822157Y-70262606D01*
X246512833Y-72774662D02*
X245682787Y-71521094D01*
X248800604Y-76516630D02*
X248073500Y-75270818D01*
X253198078Y-86976479D02*
X252790078Y-85556045D01*
X247310348Y-74024132D02*
X246512833Y-72774662D01*
X248073500Y-75270818D02*
X247310348Y-74024132D01*
X250752045Y-80279414D02*
X250140982Y-79016986D01*
X251322714Y-81557056D02*
X250752045Y-80279414D01*
X251852628Y-82856683D02*
X251322714Y-81557056D01*
X255295004Y-117623483D02*
X255292504Y-115719945D01*
X255289894Y-122946679D02*
X255296094Y-121698412D01*
X255134074Y-103231090D02*
X255088524Y-101957705D01*
X252341697Y-84186478D02*
X251852628Y-82856683D01*
X255076578Y-128788257D02*
X255198184Y-126520088D01*
X254651204Y-95328000D02*
X254548395Y-94365950D01*
X255296094Y-121698412D02*
X255295957Y-119616511D01*
X252790078Y-85556045D02*
X252341697Y-84186478D01*
X253566133Y-88460326D02*
X253198078Y-86976479D01*
X255231314Y-107400347D02*
X255205014Y-105949146D01*
X253894763Y-90021562D02*
X253566133Y-88460326D01*
X254185921Y-91683013D02*
X253894763Y-90021562D01*
X255088524Y-101957705D02*
X255035704Y-100737246D01*
X255292504Y-115719945D02*
X255287604Y-113901631D01*
X254548395Y-94365950D02*
X254436472Y-93437978D01*
X254745084Y-96326561D02*
X254651204Y-95328000D01*
X255271434Y-124164814D02*
X255289894Y-122946679D01*
X254906864Y-98443283D02*
X254830224Y-97364123D01*
X255287604Y-113901631D02*
X255279704Y-112164425D01*
X254975264Y-99566734D02*
X254906864Y-98443283D01*
X255035704Y-100737246D02*
X254975264Y-99566734D01*
X255172764Y-104560502D02*
X255134074Y-103231090D01*
X255198184Y-126520088D02*
X255240754Y-125357774D01*
X255252154Y-108917557D02*
X255231314Y-107400347D01*
X255279704Y-112164425D02*
X255268094Y-110504345D01*
X255268094Y-110504345D02*
X255252154Y-108917557D01*
X255240754Y-125357774D02*
X255271434Y-124164814D01*
X249490178Y-77764195D02*
X248800604Y-76516630D01*
X255295957Y-119616511D02*
X255295004Y-117623483D01*
X243936019Y-69003162D02*
X242076237Y-66454319D01*
X244822157Y-70262606D02*
X243936019Y-69003162D01*
X250140982Y-79016986D02*
X249490178Y-77764195D01*
X254436472Y-93437978D02*
X254315287Y-92541735D01*
X254830224Y-97364123D02*
X254745084Y-96326561D01*
X254315287Y-92541735D02*
X254185921Y-91683013D01*
X255205014Y-105949146D02*
X255172764Y-104560502D01*
X180001654Y-239165686D02*
X179554480Y-241010309D01*
X184558552Y-177278891D02*
X184677335Y-179544851D01*
X183069205Y-220742288D02*
X182817837Y-222877989D01*
X180494453Y-155370707D02*
X181194453Y-157520707D01*
X183619453Y-168220707D02*
X183944453Y-170470707D01*
X183521562Y-216360492D02*
X183306238Y-218544289D01*
X178119453Y-149320707D02*
X178951626Y-151267439D01*
X181593331Y-231264781D02*
X181236960Y-233257906D01*
X182844453Y-163845707D02*
X183269453Y-165995707D01*
X183304338Y-218562389D02*
X183071405Y-220722918D01*
X183944453Y-170470707D02*
X184194453Y-172695707D01*
X179744453Y-153295707D02*
X180494453Y-155370707D01*
X182541783Y-225030386D02*
X182250947Y-227112425D01*
X172406864Y-137732789D02*
X174367249Y-141534125D01*
X184678735Y-179575691D02*
X184763015Y-181856204D01*
X182247447Y-227136085D02*
X181935598Y-229189453D01*
X183269453Y-165995707D02*
X183619453Y-168220707D01*
X179554480Y-241010309D02*
X179172255Y-242738796D01*
X180436435Y-237236891D02*
X180008954Y-239134146D01*
X174378989Y-141557285D02*
X176294453Y-145395707D01*
X184398605Y-174995090D02*
X184556352Y-177243621D01*
X182815337Y-222898689D02*
X182544683Y-225008236D01*
X183919453Y-211845707D02*
X183523862Y-216335402D01*
X176298785Y-145402555D02*
X177194453Y-147320707D01*
X184818437Y-184208495D02*
X184850447Y-188817269D01*
X181931598Y-229214583D02*
X181597831Y-231238261D01*
X181795575Y-159563554D02*
X182344453Y-161645707D01*
X180846410Y-235276788D02*
X180443035Y-237206491D01*
X184763838Y-181882894D02*
X184817938Y-184175215D01*
X182344453Y-161645707D02*
X182844453Y-163845707D01*
X178944453Y-151270707D02*
X179744453Y-153295707D01*
X181231760Y-233285886D02*
X180852210Y-235247558D01*
X177194453Y-147320707D02*
X178119453Y-149320707D01*
X184850342Y-188853899D02*
X184794453Y-193495707D01*
X184194453Y-172695707D02*
X184395405Y-174955110D01*
X181193949Y-157520965D02*
X181795575Y-159563554D01*
X162712214Y-86188199D02*
X162646934Y-88944961D01*
X162609764Y-107734225D02*
X162693614Y-108921885D01*
X163100238Y-76016346D02*
X162983819Y-78433590D01*
X165875523Y-51574217D02*
X165575571Y-53025807D01*
X165019781Y-56131230D02*
X164763847Y-57787448D01*
X171576201Y-37573227D02*
X171080291Y-38226897D01*
X162506974Y-100865830D02*
X162501274Y-104067923D01*
X162513444Y-105311430D02*
X162549634Y-106530829D01*
X173699991Y-35376567D02*
X173146819Y-35867547D01*
X163229902Y-73680794D02*
X163100238Y-76016346D01*
X164522453Y-59514271D02*
X164295505Y-61312894D01*
X170128235Y-39674987D02*
X169672050Y-40473437D01*
X167222300Y-46414137D02*
X166863659Y-47609637D01*
X173146819Y-35867547D02*
X172608962Y-36395817D01*
X162983819Y-78433590D02*
X162880464Y-80933804D01*
X163700111Y-67151725D02*
X163529673Y-69249738D01*
X164763847Y-57787448D02*
X164522453Y-59514271D01*
X163884465Y-65130398D02*
X163700111Y-67151725D01*
X164082885Y-63184536D02*
X163884465Y-65130398D01*
X165290334Y-54544417D02*
X165019781Y-56131230D01*
X162880464Y-80933804D02*
X162789994Y-83518245D01*
X165575571Y-53025807D02*
X165290334Y-54544417D01*
X172608962Y-36395817D02*
X172085620Y-36963617D01*
X176087263Y-33744227D02*
X175461843Y-34106317D01*
X162593974Y-91789809D02*
X162553124Y-94724038D01*
X163529673Y-69249738D02*
X163372989Y-71425677D01*
X169672050Y-40473437D02*
X169229234Y-41323977D01*
X170458075Y-133911513D02*
X172406864Y-137732789D01*
X169515605Y-131995406D02*
X170458075Y-133911513D01*
X168601721Y-130062151D02*
X169515605Y-131995406D01*
X167725892Y-128110070D02*
X168601721Y-130062151D01*
X168384423Y-43188037D02*
X167982841Y-44204657D01*
X162646934Y-88944961D02*
X162593974Y-91789809D01*
X166895862Y-126134448D02*
X167725892Y-128110070D01*
X170597662Y-38926797D02*
X170128235Y-39674987D01*
X162549634Y-106530829D02*
X162609764Y-107734225D01*
X163372989Y-71425677D02*
X163229902Y-73680794D01*
X166863659Y-47609637D02*
X166519604Y-48867337D01*
X167595410Y-45279567D02*
X167222300Y-46414137D01*
X169229234Y-41323977D02*
X168799954Y-42228317D01*
X164295505Y-61312894D02*
X164082885Y-63184536D01*
X166519604Y-48867337D02*
X166190207Y-50188467D01*
X174856332Y-34497907D02*
X174269453Y-34920707D01*
X163676259Y-115737455D02*
X164175275Y-117901639D01*
X163084478Y-112393666D02*
X163258351Y-113511593D01*
X166119035Y-124130536D02*
X166895862Y-126134448D01*
X167982841Y-44204657D02*
X167595410Y-45279567D01*
X165402402Y-122093577D02*
X166119035Y-124130536D01*
X172085620Y-36963617D02*
X171576201Y-37573227D01*
X164752477Y-120018834D02*
X165402402Y-122093577D01*
X162789994Y-83518245D02*
X162712214Y-86188199D01*
X162553124Y-94724038D02*
X162524194Y-97748946D01*
X168799954Y-42228317D02*
X168384423Y-43188037D01*
X164175275Y-117901639D02*
X164752477Y-120018834D01*
X163258351Y-113511593D02*
X163676259Y-115737455D01*
X162931326Y-111251235D02*
X163084478Y-112393666D01*
X175461843Y-34106317D02*
X174856332Y-34497907D01*
X171080291Y-38226897D02*
X170597662Y-38926797D01*
X162800911Y-110094103D02*
X162931326Y-111251235D01*
X162501274Y-104067923D02*
X162513444Y-105311430D01*
X166190207Y-50188467D02*
X165875523Y-51574217D01*
X162693614Y-108921885D02*
X162800911Y-110094103D01*
X162524194Y-97748946D02*
X162506974Y-100865830D01*
X174269453Y-34920707D02*
X173699991Y-35376567D01*
X189909453Y-207530707D02*
X190159453Y-200400707D01*
X189909452Y-207529361D02*
G75*
G02X189463259Y-207890707I-401061J39080D01*
G01*
X184719453Y-207720707D02*
X189469453Y-207890707D01*
X189879269Y-200102814D02*
G75*
G02X190159453Y-200390707I-26761J-306331D01*
G01*
X184368954Y-208016623D02*
G75*
G02X184719453Y-207720707I320499J-24084D01*
G01*
X185015369Y-199930706D02*
G75*
G02X184719453Y-199580207I24084J320499D01*
G01*
X184369453Y-208020707D02*
X184272133Y-210273976D01*
X184272133Y-210273976D02*
X183919453Y-211845707D01*
X185019453Y-199930707D02*
X189879453Y-200100707D01*
X184794453Y-193495707D02*
X184719453Y-199570707D01*
M02*
