G04 #@! TF.GenerationSoftware,KiCad,Pcbnew,(5.0.0)*
G04 #@! TF.CreationDate,2020-01-29T13:42:56+01:00*
G04 #@! TF.ProjectId,Insole_PCB,496E736F6C655F5043422E6B69636164,rev?*
G04 #@! TF.SameCoordinates,Original*
G04 #@! TF.FileFunction,Glue,Top*
G04 #@! TF.FilePolarity,Positive*
%FSLAX46Y46*%
G04 Gerber Fmt 4.6, Leading zero omitted, Abs format (unit mm)*
G04 Created by KiCad (PCBNEW (5.0.0)) date 01/29/20 13:42:56*
%MOMM*%
%LPD*%
G01*
G04 APERTURE LIST*
%ADD10C,0.100000*%
%ADD11C,0.200000*%
G04 APERTURE END LIST*
D10*
X183300821Y-218566307D02*
X183067888Y-220726836D01*
X181928081Y-229218501D02*
X181594314Y-231242179D01*
X183065688Y-220746206D02*
X182814320Y-222881907D01*
X180432918Y-237240809D02*
X180005437Y-239138064D01*
X183779453Y-213570707D02*
X183520345Y-216339320D01*
X179998137Y-239169604D02*
X179550963Y-241014227D01*
X179550963Y-241014227D02*
X179168738Y-242742714D01*
X181589814Y-231268699D02*
X181233443Y-233261824D01*
X182538266Y-225034304D02*
X182247430Y-227116343D01*
X183518045Y-216364410D02*
X183302721Y-218548207D01*
X182243930Y-227140003D02*
X181932081Y-229193371D01*
X182811820Y-222902607D02*
X182541166Y-225012154D01*
X181228243Y-233289804D02*
X180848693Y-235251476D01*
X180842893Y-235280706D02*
X180439518Y-237210409D01*
X166892345Y-126138366D02*
X167722375Y-128113988D01*
X164079368Y-63188454D02*
X163880948Y-65134316D01*
X165016264Y-56135148D02*
X164760330Y-57791366D01*
X169225717Y-41327895D02*
X168796437Y-42232235D01*
X166186690Y-50192385D02*
X165872006Y-51578135D01*
X163254834Y-113515511D02*
X163672742Y-115741373D01*
X162708697Y-86192117D02*
X162643417Y-88948879D01*
X162497757Y-104071841D02*
X162509927Y-105315348D01*
X166115518Y-124134454D02*
X166892345Y-126138366D01*
X167722375Y-128113988D02*
X168598204Y-130066069D01*
X162927809Y-111255153D02*
X163080961Y-112397584D01*
X167979324Y-44208575D02*
X167591893Y-45283485D01*
X162876947Y-80937722D02*
X162786477Y-83522163D01*
X165398885Y-122097495D02*
X166115518Y-124134454D01*
X162546117Y-106534747D02*
X162606247Y-107738143D01*
X168796437Y-42232235D02*
X168380906Y-43191955D01*
X162690097Y-108925803D02*
X162797394Y-110098021D01*
X162786477Y-83522163D02*
X162708697Y-86192117D01*
X164291988Y-61316812D02*
X164079368Y-63188454D01*
X162520677Y-97752864D02*
X162503457Y-100869748D01*
X163369472Y-71429595D02*
X163226385Y-73684712D01*
X165286817Y-54548335D02*
X165016264Y-56135148D01*
X165572054Y-53029725D02*
X165286817Y-54548335D01*
X168380906Y-43191955D02*
X167979324Y-44208575D01*
X166860142Y-47613555D02*
X166516087Y-48871255D01*
X163096721Y-76020264D02*
X162980302Y-78437508D01*
X162606247Y-107738143D02*
X162690097Y-108925803D01*
X163880948Y-65134316D02*
X163696594Y-67155643D01*
X164518936Y-59518189D02*
X164291988Y-61316812D01*
X162980302Y-78437508D02*
X162876947Y-80937722D01*
X163672742Y-115741373D02*
X164171758Y-117905557D01*
X163696594Y-67155643D02*
X163526156Y-69253656D01*
X162797394Y-110098021D02*
X162927809Y-111255153D01*
X162509927Y-105315348D02*
X162546117Y-106534747D01*
X162549607Y-94727956D02*
X162520677Y-97752864D01*
X165872006Y-51578135D02*
X165572054Y-53029725D01*
X168598204Y-130066069D02*
X169512088Y-131999324D01*
X167218783Y-46418055D02*
X166860142Y-47613555D01*
X162503457Y-100869748D02*
X162497757Y-104071841D01*
X164760330Y-57791366D02*
X164518936Y-59518189D01*
X166516087Y-48871255D02*
X166186690Y-50192385D01*
X169512088Y-131999324D02*
X170869453Y-134690707D01*
X164171758Y-117905557D02*
X164748960Y-120022752D01*
X163080961Y-112397584D02*
X163254834Y-113515511D01*
X162590457Y-91793727D02*
X162549607Y-94727956D01*
X163226385Y-73684712D02*
X163096721Y-76020264D01*
X167591893Y-45283485D02*
X167218783Y-46418055D01*
X164748960Y-120022752D02*
X165398885Y-122097495D01*
X162643417Y-88948879D02*
X162590457Y-91793727D01*
X163526156Y-69253656D02*
X163369472Y-71429595D01*
X208427874Y-33726165D02*
X207478298Y-33364185D01*
X210235768Y-34507935D02*
X209346327Y-34107745D01*
X183655350Y-31488735D02*
X182780438Y-31617555D01*
X197136713Y-31192175D02*
X195739730Y-31098675D01*
X224869439Y-45834825D02*
X223677490Y-44601695D01*
X199762413Y-31479405D02*
X198476633Y-31319675D01*
X211098182Y-34925765D02*
X210235768Y-34507935D01*
X219923491Y-41028315D02*
X218599957Y-39898035D01*
X236020898Y-58722847D02*
X233885354Y-56122659D01*
X169668533Y-40477355D02*
X169225717Y-41327895D01*
X170124718Y-39678905D02*
X169668533Y-40477355D01*
X182780438Y-31617555D02*
X181932693Y-31765575D01*
X176730331Y-33414065D02*
X176083746Y-33748145D01*
X178091593Y-32824865D02*
X177399246Y-33106685D01*
X207478298Y-33364185D02*
X206495388Y-33022885D01*
X188434762Y-31097975D02*
X187428739Y-31145775D01*
X178808319Y-32567555D02*
X178091593Y-32824865D01*
X223677490Y-44601695D02*
X222456665Y-43384555D01*
X187428739Y-31145775D02*
X186444241Y-31207775D01*
X206495388Y-33022885D02*
X205476842Y-32703405D01*
X217229494Y-38806035D02*
X215804079Y-37757375D01*
X172605445Y-36399735D02*
X172082103Y-36967535D01*
X173143302Y-35871465D02*
X172605445Y-36399735D01*
X175458326Y-34110235D02*
X174852815Y-34501825D01*
X179550208Y-32333845D02*
X178808319Y-32567555D01*
X181932693Y-31765575D02*
X181111950Y-31933715D01*
X184557575Y-31378175D02*
X183655350Y-31488735D01*
X221207056Y-42192005D02*
X219923491Y-41028315D01*
X205476842Y-32703405D02*
X204420260Y-32406985D01*
X240126506Y-63894980D02*
X238104825Y-61315263D01*
X200996906Y-31669615D02*
X199762413Y-31479405D01*
X211935460Y-35360355D02*
X211098182Y-34925765D01*
X215804079Y-37757375D02*
X214314488Y-36757425D01*
X233885354Y-56122659D02*
X231704958Y-53521895D01*
X238104825Y-61315263D02*
X236020898Y-58722847D01*
X173696474Y-35380485D02*
X173143302Y-35871465D01*
X190548539Y-31038875D02*
X188434762Y-31097975D01*
X194282704Y-31041175D02*
X192757669Y-31021475D01*
X212738587Y-35804885D02*
X211935460Y-35360355D01*
X218599957Y-39898035D02*
X217229494Y-38806035D01*
X174852815Y-34501825D02*
X174265936Y-34924625D01*
X185487195Y-31284875D02*
X184557575Y-31378175D01*
X195739730Y-31098675D02*
X194282704Y-31041175D01*
X202182904Y-31888645D02*
X200996906Y-31669615D01*
X209346327Y-34107745D02*
X208427874Y-33726165D01*
X231704958Y-53521895D02*
X229481230Y-50930975D01*
X204420260Y-32406985D02*
X203323139Y-32134935D01*
X180317920Y-32122845D02*
X179550208Y-32333845D01*
X192757669Y-31021475D02*
X190548539Y-31038875D01*
X222456665Y-43384555D02*
X221207056Y-42192005D01*
X198476633Y-31319675D02*
X197136713Y-31192175D01*
X203323139Y-32134935D02*
X202182904Y-31888645D01*
X227209126Y-48364415D02*
X224869439Y-45834825D01*
X229481230Y-50930975D02*
X227209126Y-48364415D01*
X174265936Y-34924625D02*
X173696474Y-35380485D01*
X170594145Y-38930715D02*
X170124718Y-39678905D01*
X177399246Y-33106685D02*
X176730331Y-33414065D01*
X171076774Y-38230815D02*
X170594145Y-38930715D01*
X172082103Y-36967535D02*
X171572684Y-37577145D01*
X214314488Y-36757425D02*
X212738587Y-35804885D01*
X171572684Y-37577145D02*
X171076774Y-38230815D01*
X176083746Y-33748145D02*
X175458326Y-34110235D01*
X186444241Y-31207775D02*
X185487195Y-31284875D01*
X181111950Y-31933715D02*
X180317920Y-32122845D01*
X253562616Y-88464244D02*
X253194561Y-86980397D01*
X254544878Y-94369868D02*
X254432955Y-93441896D01*
X254647687Y-95331918D02*
X254544878Y-94369868D01*
X255201497Y-105953064D02*
X255169247Y-104564420D01*
X255085007Y-101961623D02*
X255032187Y-100741164D01*
X255248637Y-108921475D02*
X255227797Y-107404265D01*
X255264577Y-110508263D02*
X255248637Y-108921475D01*
X255276187Y-112168343D02*
X255264577Y-110508263D01*
X253813165Y-138793313D02*
X254144485Y-136947118D01*
X255286377Y-122950597D02*
X255292577Y-121702330D01*
X253447673Y-140578175D02*
X253813165Y-138793313D01*
X246157000Y-165918624D02*
X246615812Y-164079367D01*
X244818640Y-70266524D02*
X243932502Y-69007080D01*
X248797087Y-76520548D02*
X248069983Y-75274736D01*
X249486661Y-77768113D02*
X248797087Y-76520548D01*
X255227797Y-107404265D02*
X255201497Y-105953064D01*
X254438739Y-135031162D02*
X254693201Y-133037739D01*
X252338180Y-84190396D02*
X251849111Y-82860601D01*
X252786561Y-85559963D02*
X252338180Y-84190396D01*
X255073061Y-128792175D02*
X255194667Y-126524006D01*
X251706326Y-147286835D02*
X252177061Y-145655628D01*
X246509316Y-72778580D02*
X245679270Y-71525012D01*
X250748528Y-80283332D02*
X250137465Y-79020904D01*
X255169247Y-104564420D02*
X255130557Y-103235008D01*
X255237237Y-125361692D02*
X255267917Y-124168732D01*
X251849111Y-82860601D02*
X251319197Y-81560974D01*
X253194561Y-86980397D02*
X252786561Y-85559963D01*
X254741567Y-96330479D02*
X254647687Y-95331918D01*
X254432955Y-93441896D02*
X254311770Y-92545653D01*
X254826707Y-97368041D02*
X254741567Y-96330479D01*
X254903347Y-98447201D02*
X254826707Y-97368041D01*
X255291487Y-117627401D02*
X255288987Y-115723863D01*
X254693201Y-133037739D02*
X254905380Y-130960016D01*
X255292440Y-119620429D02*
X255291487Y-117627401D01*
X252177061Y-145655628D02*
X252626423Y-144000005D01*
X250199828Y-152126564D02*
X251218492Y-148899980D01*
X249158037Y-155376932D02*
X250199828Y-152126564D01*
X247606630Y-160458485D02*
X248111014Y-158749322D01*
X246623612Y-164049265D02*
X247100183Y-162257934D01*
X254182404Y-91686931D02*
X253891246Y-90025480D01*
X255284087Y-113905549D02*
X255276187Y-112168343D01*
X247306831Y-74028050D02*
X246509316Y-72778580D01*
X254971747Y-99570652D02*
X254903347Y-98447201D01*
X253891246Y-90025480D02*
X253562616Y-88464244D01*
X255130557Y-103235008D02*
X255085007Y-101961623D01*
X245679270Y-71525012D02*
X244818640Y-70266524D01*
X251319197Y-81560974D02*
X250748528Y-80283332D01*
X242072720Y-66458237D02*
X240126506Y-63894980D01*
X255032187Y-100741164D02*
X254971747Y-99570652D01*
X248119214Y-158722305D02*
X249152537Y-155394297D01*
X255288987Y-115723863D02*
X255284087Y-113905549D01*
X252626423Y-144000005D02*
X253051043Y-142310651D01*
X251218492Y-148899980D02*
X251706326Y-147286835D01*
X247107683Y-162230275D02*
X247599630Y-160482657D01*
X243932502Y-69007080D02*
X242072720Y-66458237D01*
X248069983Y-75274736D02*
X247306831Y-74028050D01*
X255267917Y-124168732D02*
X255286377Y-122950597D01*
X255194667Y-126524006D02*
X255237237Y-125361692D01*
X254144485Y-136947118D02*
X254438739Y-135031162D01*
X254311770Y-92545653D02*
X254182404Y-91686931D01*
X254905380Y-130960016D02*
X255073061Y-128792175D01*
X253051043Y-142310651D02*
X253447673Y-140578175D01*
X255292577Y-121702330D02*
X255292440Y-119620429D01*
X250137465Y-79020904D02*
X249486661Y-77768113D01*
X216242629Y-277781658D02*
X217911353Y-277312868D01*
X243488565Y-180353014D02*
X243803341Y-178193905D01*
X241148623Y-200050221D02*
X241385219Y-197938483D01*
X239592067Y-213923582D02*
X239796520Y-212035803D01*
X238931783Y-252125904D02*
X239094510Y-250400232D01*
X237305770Y-258851228D02*
X237856187Y-257207618D01*
X224237322Y-274510008D02*
X225705638Y-273588878D01*
X234194762Y-265031478D02*
X235104101Y-263555838D01*
X245710218Y-167839920D02*
X246149400Y-165950014D01*
X245284993Y-169813416D02*
X245703118Y-167871600D01*
X244143886Y-176022314D02*
X244497307Y-173935507D01*
X243187867Y-182555717D02*
X243485965Y-180371124D01*
X242114567Y-191426123D02*
X242628339Y-187008521D01*
X238741599Y-223085643D02*
X239037763Y-219494616D01*
X241624467Y-195794494D02*
X242113670Y-191434123D01*
X228472199Y-271502268D02*
X229761373Y-270343628D01*
X238428596Y-237593930D02*
X238371826Y-235777570D01*
X241385219Y-197938483D02*
X241624365Y-195795694D01*
X238378093Y-230270937D02*
X238513071Y-226726319D01*
X238347073Y-232092432D02*
X238376893Y-230313467D01*
X225705638Y-273588878D02*
X227118806Y-272585208D01*
X241624365Y-195795694D02*
X241624467Y-195794494D01*
X240009630Y-210114817D02*
X240009967Y-210111517D01*
X238670529Y-253839425D02*
X238931783Y-252125904D01*
X238344390Y-233911533D02*
X238346790Y-232123252D01*
X238984952Y-245170342D02*
X238799713Y-243292299D01*
X236662158Y-260460628D02*
X237305770Y-258851228D01*
X235927466Y-262030558D02*
X236662158Y-260460628D01*
X227118806Y-272585208D02*
X228472199Y-271502268D01*
X232130378Y-267814668D02*
X233202438Y-266452648D01*
X244882277Y-171837413D02*
X245278593Y-169844296D01*
X244502107Y-173908617D02*
X244876677Y-171866623D01*
X238796713Y-243259329D02*
X238643020Y-241383411D01*
X240009967Y-210111517D02*
X240229193Y-208165411D01*
X238515571Y-226677039D02*
X238738699Y-223124653D01*
X212838421Y-278429128D02*
X214549797Y-278154158D01*
X239396367Y-215792742D02*
X239591292Y-213930682D01*
X239094510Y-250400232D02*
X239158180Y-248668077D01*
X238311604Y-255535188D02*
X238670529Y-253839425D01*
X243806541Y-178172715D02*
X244139886Y-176046494D01*
X242630539Y-186990221D02*
X243185067Y-182576767D01*
X239158180Y-248668077D02*
X239122570Y-246935119D01*
X240682577Y-204173830D02*
X240914342Y-202128900D01*
X239797067Y-212030703D02*
X240009630Y-210114817D01*
X238371092Y-235744530D02*
X238344582Y-233943653D01*
X235104101Y-263555838D02*
X235927466Y-262030558D01*
X238518066Y-239461833D02*
X238429896Y-237627500D01*
X230982098Y-269113078D02*
X232130378Y-267814668D01*
X238640520Y-241349931D02*
X238519966Y-239495543D01*
X237856187Y-257207618D02*
X238311604Y-255535188D01*
X233202438Y-266452648D02*
X234194762Y-265031478D01*
X221154702Y-276092808D02*
X222718684Y-275345568D01*
X240914342Y-202128900D02*
X241148623Y-200050221D01*
X240453967Y-206185211D02*
X240682577Y-204173830D01*
X240453907Y-206185513D02*
X240453967Y-206185211D01*
X219550500Y-276749298D02*
X221154702Y-276092808D01*
X240229193Y-208165411D02*
X240229367Y-208163711D01*
X229761373Y-270343628D02*
X230982098Y-269113078D01*
X214549797Y-278154158D02*
X216242629Y-277781658D01*
X240229367Y-208163711D02*
X240453907Y-206185513D01*
X239040263Y-219466046D02*
X239394867Y-215807972D01*
X222718684Y-275345568D02*
X224237322Y-274510008D01*
X239122570Y-246935119D02*
X238984952Y-245170342D01*
X217911353Y-277312868D02*
X219550500Y-276749298D01*
X209382518Y-278683178D02*
X211114110Y-278605678D01*
X202496931Y-278003088D02*
X204200879Y-278320858D01*
X200813969Y-277588278D02*
X202496931Y-278003088D01*
X207649328Y-278661478D02*
X209382518Y-278683178D01*
X205920226Y-278540558D02*
X207649328Y-278661478D01*
X204200879Y-278320858D02*
X205920226Y-278540558D01*
X211114110Y-278605678D02*
X212838421Y-278429128D01*
X178774913Y-251371957D02*
X178993141Y-253091489D01*
X186296372Y-268553028D02*
X187485876Y-269813778D01*
X178655486Y-249642747D02*
X178774913Y-251371957D01*
X179168738Y-242742714D02*
X178892300Y-244453851D01*
X190071439Y-272120878D02*
X191459008Y-273159658D01*
X199157516Y-277077808D02*
X200813969Y-277588278D01*
X197533004Y-276473338D02*
X199157516Y-277077808D01*
X195945761Y-275776858D02*
X197533004Y-276473338D01*
X181530059Y-261348778D02*
X182314940Y-262894228D01*
X180231867Y-258135918D02*
X180834941Y-259760948D01*
X194400998Y-274990658D02*
X195945761Y-275776858D01*
X192903775Y-274117298D02*
X194400998Y-274990658D01*
X185180997Y-267226238D02*
X186296372Y-268553028D01*
X179722814Y-256479028D02*
X180231867Y-258135918D01*
X178635246Y-247909541D02*
X178655486Y-249642747D01*
X178892300Y-244453851D02*
X178714276Y-246178016D01*
X180834941Y-259760948D02*
X181530059Y-261348778D01*
X191459008Y-273159658D02*
X192903775Y-274117298D01*
X178993141Y-253091489D02*
X179309453Y-254795707D01*
X178714276Y-246178016D02*
X178635246Y-247909541D01*
X188745610Y-271004368D02*
X190071439Y-272120878D01*
X187485876Y-269813778D02*
X188745610Y-271004368D01*
X184143407Y-265837778D02*
X185180997Y-267226238D01*
X183187010Y-264392188D02*
X184143407Y-265837778D01*
X182314940Y-262894228D02*
X183187010Y-264392188D01*
X179309453Y-254795707D02*
X179722814Y-256479028D01*
X216018675Y-194374503D02*
G75*
G02X183779453Y-213570707I-24812068J5000516D01*
G01*
X170869927Y-134686062D02*
G75*
G02X216019453Y-194370707I3885383J-43980241D01*
G01*
D11*
G04 #@! TO.C,S0*
X192144453Y-126120707D02*
G75*
G03X192144453Y-126120707I-8800000J0D01*
G01*
G04 #@! TO.C,S1*
X183229453Y-107470707D02*
G75*
G03X183229453Y-107470707I-8800000J0D01*
G01*
G04 #@! TO.C,S2*
X182244453Y-85995707D02*
G75*
G03X182244453Y-85995707I-8800000J0D01*
G01*
G04 #@! TO.C,S3*
X183119453Y-65595707D02*
G75*
G03X183119453Y-65595707I-8800000J0D01*
G01*
G04 #@! TO.C,S4*
X188144453Y-44845707D02*
G75*
G03X188144453Y-44845707I-8800000J0D01*
G01*
G04 #@! TO.C,S5*
X203019453Y-61245707D02*
G75*
G03X203019453Y-61245707I-8800000J0D01*
G01*
G04 #@! TO.C,S6*
X202744453Y-85020707D02*
G75*
G03X202744453Y-85020707I-8800000J0D01*
G01*
G04 #@! TO.C,S7*
X209619453Y-105195707D02*
G75*
G03X209619453Y-105195707I-8800000J0D01*
G01*
G04 #@! TO.C,S8*
X208794453Y-41895707D02*
G75*
G03X208794453Y-41895707I-8800000J0D01*
G01*
G04 #@! TO.C,S9*
X225994453Y-52920707D02*
G75*
G03X225994453Y-52920707I-8800000J0D01*
G01*
G04 #@! TO.C,S10*
X219344453Y-73170707D02*
G75*
G03X219344453Y-73170707I-8800000J0D01*
G01*
G04 #@! TO.C,S11*
X239544453Y-68645707D02*
G75*
G03X239544453Y-68645707I-8800000J0D01*
G01*
G04 #@! TO.C,S12*
X229894453Y-90570707D02*
G75*
G03X229894453Y-90570707I-8800000J0D01*
G01*
G04 #@! TO.C,S13*
X250544453Y-86245707D02*
G75*
G03X250544453Y-86245707I-8800000J0D01*
G01*
G04 #@! TO.C,S14*
X213169453Y-126970707D02*
G75*
G03X213169453Y-126970707I-8800000J0D01*
G01*
G04 #@! TO.C,S15*
X232994453Y-110895707D02*
G75*
G03X232994453Y-110895707I-8800000J0D01*
G01*
G04 #@! TO.C,S16*
X253369453Y-106545707D02*
G75*
G03X253369453Y-106545707I-8800000J0D01*
G01*
G04 #@! TO.C,S17*
X253569453Y-127245707D02*
G75*
G03X253569453Y-127245707I-8800000J0D01*
G01*
G04 #@! TO.C,S18*
X233594453Y-131720707D02*
G75*
G03X233594453Y-131720707I-8800000J0D01*
G01*
G04 #@! TO.C,S19*
X229469453Y-151820707D02*
G75*
G03X229469453Y-151820707I-8800000J0D01*
G01*
G04 #@! TO.C,S20*
X249244453Y-147345707D02*
G75*
G03X249244453Y-147345707I-8800000J0D01*
G01*
G04 #@! TO.C,S21*
X244069453Y-166995707D02*
G75*
G03X244069453Y-166995707I-8800000J0D01*
G01*
G04 #@! TO.C,S22*
X240369453Y-187020707D02*
G75*
G03X240369453Y-187020707I-8800000J0D01*
G01*
G04 #@! TO.C,S23*
X237394453Y-207170707D02*
G75*
G03X237394453Y-207170707I-8800000J0D01*
G01*
G04 #@! TO.C,S24*
X201119453Y-228020707D02*
G75*
G03X201119453Y-228020707I-8800000J0D01*
G01*
G04 #@! TO.C,S25*
X198069453Y-247845707D02*
G75*
G03X198069453Y-247845707I-8800000J0D01*
G01*
G04 #@! TO.C,S26*
X207769453Y-265645707D02*
G75*
G03X207769453Y-265645707I-8800000J0D01*
G01*
G04 #@! TO.C,S27*
X227869453Y-265570707D02*
G75*
G03X227869453Y-265570707I-8800000J0D01*
G01*
G04 #@! TO.C,S28*
X237619453Y-247895707D02*
G75*
G03X237619453Y-247895707I-8800000J0D01*
G01*
G04 #@! TO.C,S29*
X217844453Y-244045707D02*
G75*
G03X217844453Y-244045707I-8800000J0D01*
G01*
G04 #@! TO.C,S30*
X237194453Y-227820707D02*
G75*
G03X237194453Y-227820707I-8800000J0D01*
G01*
G04 #@! TO.C,S31*
X219119453Y-219420707D02*
G75*
G03X219119453Y-219420707I-8800000J0D01*
G01*
G04 #@! TD*
M02*
