M48
;DRILL file {KiCad (5.0.0)} date 01/29/20 13:42:58
;FORMAT={-:-/ absolute / metric / decimal}
FMAT,2
METRIC,TZ
T1C0.370
T2C0.400
T3C0.500
%
G90
G05
M71
T1
X176.644Y-94.721
X180.919Y-114.246
X185.309Y-172.061
X185.319Y-172.991
X185.669Y-146.061
X185.999Y-167.501
X186.919Y-163.271
X186.999Y-177.271
X187.019Y-161.671
X187.109Y-182.491
X187.144Y-167.496
X187.444Y-147.292
X187.895Y-146.756
X188.092Y-149.025
X188.424Y-149.661
X188.649Y-146.586
X188.825Y-175.877
X188.969Y-174.421
X189.259Y-195.231
X190.154Y-191.361
X190.619Y-159.881
X191.049Y-166.411
X191.169Y-150.611
X191.277Y-164.989
X191.499Y-191.811
X191.594Y-138.246
X191.594Y-141.846
X191.809Y-161.086
X191.869Y-151.101
X192.119Y-143.721
X192.249Y-151.711
X192.489Y-160.051
X192.699Y-180.471
X192.919Y-189.021
X192.994Y-136.421
X193.369Y-184.896
X193.449Y-158.211
X193.594Y-168.521
X193.812Y-148.908
X193.909Y-165.321
X194.549Y-158.411
X194.849Y-175.011
X194.979Y-178.031
X195.06Y-156.978
X195.108Y-156.129
X195.119Y-133.796
X195.149Y-169.441
X195.249Y-158.611
X195.349Y-209.961
X195.494Y-150.771
X195.959Y-146.497
X196.049Y-208.761
X196.249Y-162.711
X196.249Y-195.011
X196.549Y-159.011
X196.949Y-197.111
X197.149Y-158.311
X197.219Y-150.096
X197.394Y-151.871
X197.579Y-178.611
X197.889Y-146.831
X198.074Y-159.886
X198.179Y-166.891
X198.249Y-141.511
X198.499Y-197.311
X198.549Y-173.011
X198.699Y-162.401
X198.73Y-158.417
X199.094Y-155.421
X199.349Y-173.611
X199.479Y-163.241
X199.849Y-172.811
X199.994Y-151.521
X200.144Y-150.571
X200.249Y-168.111
X200.524Y-147.386
X200.549Y-173.111
X200.559Y-146.602
X200.799Y-154.511
X200.944Y-150.571
X200.979Y-187.551
X201.244Y-158.771
X201.344Y-150.046
X201.499Y-146.611
X201.574Y-165.186
X201.649Y-184.061
X201.769Y-159.621
X201.909Y-153.931
X202.124Y-168.386
X202.899Y-189.111
X203.099Y-190.061
X203.169Y-158.546
X203.229Y-181.291
X203.394Y-161.246
X203.699Y-151.671
X203.744Y-156.121
X204.299Y-171.711
X204.594Y-155.371
X204.699Y-166.511
X204.749Y-170.661
X205.349Y-175.191
X205.479Y-186.231
X205.994Y-136.271
X206.149Y-177.698
X206.374Y-160.186
X207.424Y-162.586
X208.329Y-145.421
X208.649Y-196.011
X208.694Y-167.321
X209.144Y-177.846
X209.749Y-171.686
X209.799Y-173.661
X209.844Y-178.396
X209.849Y-187.061
X209.944Y-158.921
X209.949Y-181.361
X210.394Y-166.821
X210.419Y-177.871
X210.949Y-183.261
X211.069Y-177.396
X211.469Y-167.596
X211.749Y-172.111
X212.299Y-178.511
X212.699Y-168.811
X212.849Y-188.261
X212.949Y-185.661
X213.144Y-167.046
X213.194Y-140.271
X217.169Y-101.171
X221.619Y-140.271
X223.569Y-99.321
X225.219Y-258.471
X228.544Y-173.246
X229.694Y-99.621
X236.294Y-93.996
T2
X167.119Y-79.196
X167.269Y-92.921
X167.869Y-100.646
X168.044Y-114.196
X168.069Y-72.496
X168.169Y-58.846
X173.019Y-51.646
X174.869Y-122.596
X177.044Y-132.896
X183.294Y-240.821
X183.344Y-255.971
X183.519Y-67.821
X185.419Y-58.771
X185.449Y-141.111
X185.869Y-234.146
X185.894Y-51.921
X185.899Y-166.338
X186.019Y-89.771
X186.769Y-220.946
X186.919Y-211.621
X188.379Y-186.181
X189.949Y-141.111
X189.994Y-263.171
X191.699Y-195.961
X191.799Y-186.061
X192.119Y-100.321
X192.228Y-206.638
X192.406Y-201.541
X192.899Y-196.961
X193.669Y-48.821
X194.269Y-193.291
X194.449Y-211.411
X195.318Y-188.803
X195.749Y-206.111
X195.949Y-199.611
X196.372Y-187.481
X197.394Y-133.621
X197.399Y-180.511
X197.849Y-205.461
X198.844Y-248.396
X199.019Y-93.146
X199.719Y-69.046
X200.069Y-115.971
X200.249Y-199.111
X200.549Y-207.811
X201.644Y-216.046
X202.044Y-227.996
X203.094Y-252.971
X204.344Y-159.296
X204.444Y-80.721
X204.719Y-65.771
X204.869Y-114.396
X204.899Y-193.111
X205.794Y-49.696
X208.344Y-209.321
X208.469Y-264.371
X208.494Y-210.771
X209.694Y-266.771
X210.369Y-206.646
X210.519Y-59.821
X210.794Y-210.746
X211.019Y-208.071
X211.594Y-89.896
X214.094Y-257.846
X214.419Y-206.671
X214.519Y-110.746
X214.519Y-208.096
X214.644Y-209.346
X214.744Y-97.871
X214.844Y-62.046
X214.869Y-120.421
X215.444Y-143.821
X215.919Y-210.746
X216.044Y-238.571
X217.494Y-142.996
X217.594Y-138.646
X219.694Y-63.821
X219.944Y-160.096
X220.019Y-179.646
X220.569Y-80.096
X220.869Y-253.921
X221.223Y-142.996
X221.444Y-162.271
X221.919Y-235.071
X222.594Y-199.846
X224.069Y-194.596
X224.269Y-75.596
X224.319Y-180.796
X226.569Y-198.446
X227.019Y-172.846
X228.559Y-239.331
X229.044Y-78.296
X229.369Y-139.871
X229.619Y-219.396
X230.119Y-159.571
X233.644Y-153.896
X234.819Y-80.146
X235.169Y-138.621
X236.519Y-132.496
X238.444Y-113.671
X238.494Y-120.096
X242.744Y-135.471
X245.869Y-155.896
X247.669Y-114.921
T3
X186.859Y-192.861
X186.929Y-191.863
T0
M30
