G04 #@! TF.GenerationSoftware,KiCad,Pcbnew,(5.0.0)*
G04 #@! TF.CreationDate,2020-01-07T16:08:45+01:00*
G04 #@! TF.ProjectId,Insole_PCB,496E736F6C655F5043422E6B69636164,rev?*
G04 #@! TF.SameCoordinates,Original*
G04 #@! TF.FileFunction,Legend,Top*
G04 #@! TF.FilePolarity,Positive*
%FSLAX46Y46*%
G04 Gerber Fmt 4.6, Leading zero omitted, Abs format (unit mm)*
G04 Created by KiCad (PCBNEW (5.0.0)) date 01/07/20 16:08:45*
%MOMM*%
%LPD*%
G01*
G04 APERTURE LIST*
%ADD10C,0.100000*%
%ADD11C,0.120000*%
%ADD12C,0.010000*%
%ADD13C,0.150000*%
G04 APERTURE END LIST*
D10*
G04 #@! TO.C,S9*
X225079453Y-62690707D02*
G75*
G03X225079453Y-62690707I-8500000J0D01*
G01*
D11*
G04 #@! TO.C,J2*
X187504977Y-193592519D02*
X186811670Y-193544038D01*
X187552760Y-192909188D02*
X187504977Y-193592519D01*
X186300442Y-192134944D02*
X186213929Y-192128895D01*
X187600543Y-192225856D02*
X187514030Y-192219807D01*
X186213929Y-192128895D02*
X186274966Y-191256026D01*
X187600543Y-192225856D02*
X187661580Y-191352988D01*
X186574741Y-191276989D02*
X186274966Y-191256026D01*
X187661580Y-191352988D02*
X187361805Y-191332026D01*
D12*
G04 #@! TO.C,J1*
X191037937Y-200592742D02*
X193186628Y-200667776D01*
X190747161Y-207486794D02*
X192945821Y-207563573D01*
X191420560Y-208260767D02*
X191746871Y-198916462D01*
D11*
X186213577Y-199773875D02*
X189441609Y-199886601D01*
X190328814Y-201128320D02*
X190291123Y-202207662D01*
X190144672Y-206114932D02*
X190106980Y-207194274D01*
X185927401Y-207968880D02*
X189155433Y-208081606D01*
X190291123Y-202207662D02*
X190720861Y-202222669D01*
D10*
G04 #@! TO.C,S0*
X191029453Y-122750707D02*
G75*
G03X191029453Y-122750707I-8500000J0D01*
G01*
G04 #@! TO.C,S1*
X184509453Y-105510707D02*
G75*
G03X184509453Y-105510707I-8500000J0D01*
G01*
G04 #@! TO.C,S2*
X182699453Y-86210707D02*
G75*
G03X182699453Y-86210707I-8500000J0D01*
G01*
G04 #@! TO.C,S3*
X182989453Y-67430707D02*
G75*
G03X182989453Y-67430707I-8500000J0D01*
G01*
G04 #@! TO.C,S4*
X192189453Y-51060707D02*
G75*
G03X192189453Y-51060707I-8500000J0D01*
G01*
G04 #@! TO.C,S5*
X200699453Y-68050707D02*
G75*
G03X200699453Y-68050707I-8500000J0D01*
G01*
G04 #@! TO.C,S6*
X200649453Y-88510707D02*
G75*
G03X200649453Y-88510707I-8500000J0D01*
G01*
G04 #@! TO.C,S7*
X207349453Y-105160707D02*
G75*
G03X207349453Y-105160707I-8500000J0D01*
G01*
G04 #@! TO.C,S8*
X210499453Y-52300707D02*
G75*
G03X210499453Y-52300707I-8500000J0D01*
G01*
G04 #@! TO.C,S10*
X215729453Y-78260707D02*
G75*
G03X215729453Y-78260707I-8500000J0D01*
G01*
G04 #@! TO.C,S11*
X237159453Y-76150707D02*
G75*
G03X237159453Y-76150707I-8500000J0D01*
G01*
G04 #@! TO.C,S12*
X224979453Y-93770707D02*
G75*
G03X224979453Y-93770707I-8500000J0D01*
G01*
G04 #@! TO.C,S13*
X246349453Y-93140707D02*
G75*
G03X246349453Y-93140707I-8500000J0D01*
G01*
G04 #@! TO.C,S14*
X213179453Y-122670707D02*
G75*
G03X213179453Y-122670707I-8500000J0D01*
G01*
G04 #@! TO.C,S15*
X229929453Y-110990707D02*
G75*
G03X229929453Y-110990707I-8500000J0D01*
G01*
G04 #@! TO.C,S16*
X249839453Y-111880707D02*
G75*
G03X249839453Y-111880707I-8500000J0D01*
G01*
G04 #@! TO.C,S17*
X249549453Y-131070707D02*
G75*
G03X249549453Y-131070707I-8500000J0D01*
G01*
G04 #@! TO.C,S18*
X230159453Y-129720707D02*
G75*
G03X230159453Y-129720707I-8500000J0D01*
G01*
G04 #@! TO.C,S19*
X227929453Y-149480707D02*
G75*
G03X227929453Y-149480707I-8500000J0D01*
G01*
G04 #@! TO.C,S20*
X246359453Y-150260707D02*
G75*
G03X246359453Y-150260707I-8500000J0D01*
G01*
G04 #@! TO.C,S21*
X240669453Y-168670707D02*
G75*
G03X240669453Y-168670707I-8500000J0D01*
G01*
G04 #@! TO.C,S22*
X235809453Y-189130707D02*
G75*
G03X235809453Y-189130707I-8500000J0D01*
G01*
G04 #@! TO.C,S23*
X234609453Y-208340707D02*
G75*
G03X234609453Y-208340707I-8500000J0D01*
G01*
G04 #@! TO.C,S24*
X199999453Y-229030707D02*
G75*
G03X199999453Y-229030707I-8500000J0D01*
G01*
G04 #@! TO.C,S25*
X196509453Y-247000707D02*
G75*
G03X196509453Y-247000707I-8500000J0D01*
G01*
G04 #@! TO.C,S26*
X206469453Y-263520707D02*
G75*
G03X206469453Y-263520707I-8500000J0D01*
G01*
G04 #@! TO.C,S27*
X225169453Y-263600707D02*
G75*
G03X225169453Y-263600707I-8500000J0D01*
G01*
G04 #@! TO.C,S28*
X234029453Y-246810707D02*
G75*
G03X234029453Y-246810707I-8500000J0D01*
G01*
G04 #@! TO.C,S29*
X215809453Y-244810707D02*
G75*
G03X215809453Y-244810707I-8500000J0D01*
G01*
G04 #@! TO.C,S30*
X233859453Y-228950707D02*
G75*
G03X233859453Y-228950707I-8500000J0D01*
G01*
G04 #@! TO.C,S31*
X217009453Y-223530707D02*
G75*
G03X217009453Y-223530707I-8500000J0D01*
G01*
G04 #@! TO.C,S9*
D13*
X216317548Y-72395468D02*
X216460405Y-72443087D01*
X216698500Y-72443087D01*
X216793738Y-72395468D01*
X216841357Y-72347849D01*
X216888976Y-72252611D01*
X216888976Y-72157373D01*
X216841357Y-72062135D01*
X216793738Y-72014516D01*
X216698500Y-71966897D01*
X216508024Y-71919278D01*
X216412786Y-71871659D01*
X216365167Y-71824040D01*
X216317548Y-71728802D01*
X216317548Y-71633564D01*
X216365167Y-71538326D01*
X216412786Y-71490707D01*
X216508024Y-71443087D01*
X216746119Y-71443087D01*
X216888976Y-71490707D01*
X217365167Y-72443087D02*
X217555643Y-72443087D01*
X217650881Y-72395468D01*
X217698500Y-72347849D01*
X217793738Y-72204992D01*
X217841357Y-72014516D01*
X217841357Y-71633564D01*
X217793738Y-71538326D01*
X217746119Y-71490707D01*
X217650881Y-71443087D01*
X217460405Y-71443087D01*
X217365167Y-71490707D01*
X217317548Y-71538326D01*
X217269929Y-71633564D01*
X217269929Y-71871659D01*
X217317548Y-71966897D01*
X217365167Y-72014516D01*
X217460405Y-72062135D01*
X217650881Y-72062135D01*
X217746119Y-72014516D01*
X217793738Y-71966897D01*
X217841357Y-71871659D01*
G04 #@! TO.C,J2*
X186456311Y-193847369D02*
X186406485Y-194559915D01*
X186349017Y-194699102D01*
X186247367Y-194787465D01*
X186101536Y-194825003D01*
X186006530Y-194818359D01*
X186877195Y-193972271D02*
X186928020Y-193928090D01*
X187026348Y-193887230D01*
X187263863Y-193903839D01*
X187355547Y-193957985D01*
X187399729Y-194008810D01*
X187440588Y-194107138D01*
X187433945Y-194202144D01*
X187376476Y-194341331D01*
X186766579Y-194871507D01*
X187384119Y-194914690D01*
G04 #@! TO.C,J1*
X195905234Y-204548351D02*
X196619084Y-204573279D01*
X196760193Y-204625855D01*
X196852049Y-204724359D01*
X196894653Y-204868791D01*
X196891330Y-204963971D01*
X196939524Y-203583860D02*
X196919582Y-204154940D01*
X196929553Y-203869400D02*
X195930162Y-203834501D01*
X196069608Y-203934666D01*
X196161465Y-204033170D01*
X196205731Y-204130012D01*
G04 #@! TO.C,S0*
X182267548Y-132455468D02*
X182410405Y-132503087D01*
X182648500Y-132503087D01*
X182743738Y-132455468D01*
X182791357Y-132407849D01*
X182838976Y-132312611D01*
X182838976Y-132217373D01*
X182791357Y-132122135D01*
X182743738Y-132074516D01*
X182648500Y-132026897D01*
X182458024Y-131979278D01*
X182362786Y-131931659D01*
X182315167Y-131884040D01*
X182267548Y-131788802D01*
X182267548Y-131693564D01*
X182315167Y-131598326D01*
X182362786Y-131550707D01*
X182458024Y-131503087D01*
X182696119Y-131503087D01*
X182838976Y-131550707D01*
X183458024Y-131503087D02*
X183553262Y-131503087D01*
X183648500Y-131550707D01*
X183696119Y-131598326D01*
X183743738Y-131693564D01*
X183791357Y-131884040D01*
X183791357Y-132122135D01*
X183743738Y-132312611D01*
X183696119Y-132407849D01*
X183648500Y-132455468D01*
X183553262Y-132503087D01*
X183458024Y-132503087D01*
X183362786Y-132455468D01*
X183315167Y-132407849D01*
X183267548Y-132312611D01*
X183219929Y-132122135D01*
X183219929Y-131884040D01*
X183267548Y-131693564D01*
X183315167Y-131598326D01*
X183362786Y-131550707D01*
X183458024Y-131503087D01*
G04 #@! TO.C,S1*
X175747548Y-115215468D02*
X175890405Y-115263087D01*
X176128500Y-115263087D01*
X176223738Y-115215468D01*
X176271357Y-115167849D01*
X176318976Y-115072611D01*
X176318976Y-114977373D01*
X176271357Y-114882135D01*
X176223738Y-114834516D01*
X176128500Y-114786897D01*
X175938024Y-114739278D01*
X175842786Y-114691659D01*
X175795167Y-114644040D01*
X175747548Y-114548802D01*
X175747548Y-114453564D01*
X175795167Y-114358326D01*
X175842786Y-114310707D01*
X175938024Y-114263087D01*
X176176119Y-114263087D01*
X176318976Y-114310707D01*
X177271357Y-115263087D02*
X176699929Y-115263087D01*
X176985643Y-115263087D02*
X176985643Y-114263087D01*
X176890405Y-114405945D01*
X176795167Y-114501183D01*
X176699929Y-114548802D01*
G04 #@! TO.C,S2*
X173937548Y-95915468D02*
X174080405Y-95963087D01*
X174318500Y-95963087D01*
X174413738Y-95915468D01*
X174461357Y-95867849D01*
X174508976Y-95772611D01*
X174508976Y-95677373D01*
X174461357Y-95582135D01*
X174413738Y-95534516D01*
X174318500Y-95486897D01*
X174128024Y-95439278D01*
X174032786Y-95391659D01*
X173985167Y-95344040D01*
X173937548Y-95248802D01*
X173937548Y-95153564D01*
X173985167Y-95058326D01*
X174032786Y-95010707D01*
X174128024Y-94963087D01*
X174366119Y-94963087D01*
X174508976Y-95010707D01*
X174889929Y-95058326D02*
X174937548Y-95010707D01*
X175032786Y-94963087D01*
X175270881Y-94963087D01*
X175366119Y-95010707D01*
X175413738Y-95058326D01*
X175461357Y-95153564D01*
X175461357Y-95248802D01*
X175413738Y-95391659D01*
X174842310Y-95963087D01*
X175461357Y-95963087D01*
G04 #@! TO.C,S3*
X174227548Y-77135468D02*
X174370405Y-77183087D01*
X174608500Y-77183087D01*
X174703738Y-77135468D01*
X174751357Y-77087849D01*
X174798976Y-76992611D01*
X174798976Y-76897373D01*
X174751357Y-76802135D01*
X174703738Y-76754516D01*
X174608500Y-76706897D01*
X174418024Y-76659278D01*
X174322786Y-76611659D01*
X174275167Y-76564040D01*
X174227548Y-76468802D01*
X174227548Y-76373564D01*
X174275167Y-76278326D01*
X174322786Y-76230707D01*
X174418024Y-76183087D01*
X174656119Y-76183087D01*
X174798976Y-76230707D01*
X175132310Y-76183087D02*
X175751357Y-76183087D01*
X175418024Y-76564040D01*
X175560881Y-76564040D01*
X175656119Y-76611659D01*
X175703738Y-76659278D01*
X175751357Y-76754516D01*
X175751357Y-76992611D01*
X175703738Y-77087849D01*
X175656119Y-77135468D01*
X175560881Y-77183087D01*
X175275167Y-77183087D01*
X175179929Y-77135468D01*
X175132310Y-77087849D01*
G04 #@! TO.C,S4*
X183427548Y-60765468D02*
X183570405Y-60813087D01*
X183808500Y-60813087D01*
X183903738Y-60765468D01*
X183951357Y-60717849D01*
X183998976Y-60622611D01*
X183998976Y-60527373D01*
X183951357Y-60432135D01*
X183903738Y-60384516D01*
X183808500Y-60336897D01*
X183618024Y-60289278D01*
X183522786Y-60241659D01*
X183475167Y-60194040D01*
X183427548Y-60098802D01*
X183427548Y-60003564D01*
X183475167Y-59908326D01*
X183522786Y-59860707D01*
X183618024Y-59813087D01*
X183856119Y-59813087D01*
X183998976Y-59860707D01*
X184856119Y-60146421D02*
X184856119Y-60813087D01*
X184618024Y-59765468D02*
X184379929Y-60479754D01*
X184998976Y-60479754D01*
G04 #@! TO.C,S5*
X191937548Y-77755468D02*
X192080405Y-77803087D01*
X192318500Y-77803087D01*
X192413738Y-77755468D01*
X192461357Y-77707849D01*
X192508976Y-77612611D01*
X192508976Y-77517373D01*
X192461357Y-77422135D01*
X192413738Y-77374516D01*
X192318500Y-77326897D01*
X192128024Y-77279278D01*
X192032786Y-77231659D01*
X191985167Y-77184040D01*
X191937548Y-77088802D01*
X191937548Y-76993564D01*
X191985167Y-76898326D01*
X192032786Y-76850707D01*
X192128024Y-76803087D01*
X192366119Y-76803087D01*
X192508976Y-76850707D01*
X193413738Y-76803087D02*
X192937548Y-76803087D01*
X192889929Y-77279278D01*
X192937548Y-77231659D01*
X193032786Y-77184040D01*
X193270881Y-77184040D01*
X193366119Y-77231659D01*
X193413738Y-77279278D01*
X193461357Y-77374516D01*
X193461357Y-77612611D01*
X193413738Y-77707849D01*
X193366119Y-77755468D01*
X193270881Y-77803087D01*
X193032786Y-77803087D01*
X192937548Y-77755468D01*
X192889929Y-77707849D01*
G04 #@! TO.C,S6*
X191887548Y-98215468D02*
X192030405Y-98263087D01*
X192268500Y-98263087D01*
X192363738Y-98215468D01*
X192411357Y-98167849D01*
X192458976Y-98072611D01*
X192458976Y-97977373D01*
X192411357Y-97882135D01*
X192363738Y-97834516D01*
X192268500Y-97786897D01*
X192078024Y-97739278D01*
X191982786Y-97691659D01*
X191935167Y-97644040D01*
X191887548Y-97548802D01*
X191887548Y-97453564D01*
X191935167Y-97358326D01*
X191982786Y-97310707D01*
X192078024Y-97263087D01*
X192316119Y-97263087D01*
X192458976Y-97310707D01*
X193316119Y-97263087D02*
X193125643Y-97263087D01*
X193030405Y-97310707D01*
X192982786Y-97358326D01*
X192887548Y-97501183D01*
X192839929Y-97691659D01*
X192839929Y-98072611D01*
X192887548Y-98167849D01*
X192935167Y-98215468D01*
X193030405Y-98263087D01*
X193220881Y-98263087D01*
X193316119Y-98215468D01*
X193363738Y-98167849D01*
X193411357Y-98072611D01*
X193411357Y-97834516D01*
X193363738Y-97739278D01*
X193316119Y-97691659D01*
X193220881Y-97644040D01*
X193030405Y-97644040D01*
X192935167Y-97691659D01*
X192887548Y-97739278D01*
X192839929Y-97834516D01*
G04 #@! TO.C,S7*
X198587548Y-114865468D02*
X198730405Y-114913087D01*
X198968500Y-114913087D01*
X199063738Y-114865468D01*
X199111357Y-114817849D01*
X199158976Y-114722611D01*
X199158976Y-114627373D01*
X199111357Y-114532135D01*
X199063738Y-114484516D01*
X198968500Y-114436897D01*
X198778024Y-114389278D01*
X198682786Y-114341659D01*
X198635167Y-114294040D01*
X198587548Y-114198802D01*
X198587548Y-114103564D01*
X198635167Y-114008326D01*
X198682786Y-113960707D01*
X198778024Y-113913087D01*
X199016119Y-113913087D01*
X199158976Y-113960707D01*
X199492310Y-113913087D02*
X200158976Y-113913087D01*
X199730405Y-114913087D01*
G04 #@! TO.C,S8*
X201737548Y-62005468D02*
X201880405Y-62053087D01*
X202118500Y-62053087D01*
X202213738Y-62005468D01*
X202261357Y-61957849D01*
X202308976Y-61862611D01*
X202308976Y-61767373D01*
X202261357Y-61672135D01*
X202213738Y-61624516D01*
X202118500Y-61576897D01*
X201928024Y-61529278D01*
X201832786Y-61481659D01*
X201785167Y-61434040D01*
X201737548Y-61338802D01*
X201737548Y-61243564D01*
X201785167Y-61148326D01*
X201832786Y-61100707D01*
X201928024Y-61053087D01*
X202166119Y-61053087D01*
X202308976Y-61100707D01*
X202880405Y-61481659D02*
X202785167Y-61434040D01*
X202737548Y-61386421D01*
X202689929Y-61291183D01*
X202689929Y-61243564D01*
X202737548Y-61148326D01*
X202785167Y-61100707D01*
X202880405Y-61053087D01*
X203070881Y-61053087D01*
X203166119Y-61100707D01*
X203213738Y-61148326D01*
X203261357Y-61243564D01*
X203261357Y-61291183D01*
X203213738Y-61386421D01*
X203166119Y-61434040D01*
X203070881Y-61481659D01*
X202880405Y-61481659D01*
X202785167Y-61529278D01*
X202737548Y-61576897D01*
X202689929Y-61672135D01*
X202689929Y-61862611D01*
X202737548Y-61957849D01*
X202785167Y-62005468D01*
X202880405Y-62053087D01*
X203070881Y-62053087D01*
X203166119Y-62005468D01*
X203213738Y-61957849D01*
X203261357Y-61862611D01*
X203261357Y-61672135D01*
X203213738Y-61576897D01*
X203166119Y-61529278D01*
X203070881Y-61481659D01*
G04 #@! TO.C,S10*
X206491357Y-87965468D02*
X206634214Y-88013087D01*
X206872310Y-88013087D01*
X206967548Y-87965468D01*
X207015167Y-87917849D01*
X207062786Y-87822611D01*
X207062786Y-87727373D01*
X207015167Y-87632135D01*
X206967548Y-87584516D01*
X206872310Y-87536897D01*
X206681833Y-87489278D01*
X206586595Y-87441659D01*
X206538976Y-87394040D01*
X206491357Y-87298802D01*
X206491357Y-87203564D01*
X206538976Y-87108326D01*
X206586595Y-87060707D01*
X206681833Y-87013087D01*
X206919929Y-87013087D01*
X207062786Y-87060707D01*
X208015167Y-88013087D02*
X207443738Y-88013087D01*
X207729453Y-88013087D02*
X207729453Y-87013087D01*
X207634214Y-87155945D01*
X207538976Y-87251183D01*
X207443738Y-87298802D01*
X208634214Y-87013087D02*
X208729453Y-87013087D01*
X208824691Y-87060707D01*
X208872310Y-87108326D01*
X208919929Y-87203564D01*
X208967548Y-87394040D01*
X208967548Y-87632135D01*
X208919929Y-87822611D01*
X208872310Y-87917849D01*
X208824691Y-87965468D01*
X208729453Y-88013087D01*
X208634214Y-88013087D01*
X208538976Y-87965468D01*
X208491357Y-87917849D01*
X208443738Y-87822611D01*
X208396119Y-87632135D01*
X208396119Y-87394040D01*
X208443738Y-87203564D01*
X208491357Y-87108326D01*
X208538976Y-87060707D01*
X208634214Y-87013087D01*
G04 #@! TO.C,S11*
X227921357Y-85855468D02*
X228064214Y-85903087D01*
X228302310Y-85903087D01*
X228397548Y-85855468D01*
X228445167Y-85807849D01*
X228492786Y-85712611D01*
X228492786Y-85617373D01*
X228445167Y-85522135D01*
X228397548Y-85474516D01*
X228302310Y-85426897D01*
X228111833Y-85379278D01*
X228016595Y-85331659D01*
X227968976Y-85284040D01*
X227921357Y-85188802D01*
X227921357Y-85093564D01*
X227968976Y-84998326D01*
X228016595Y-84950707D01*
X228111833Y-84903087D01*
X228349929Y-84903087D01*
X228492786Y-84950707D01*
X229445167Y-85903087D02*
X228873738Y-85903087D01*
X229159453Y-85903087D02*
X229159453Y-84903087D01*
X229064214Y-85045945D01*
X228968976Y-85141183D01*
X228873738Y-85188802D01*
X230397548Y-85903087D02*
X229826119Y-85903087D01*
X230111833Y-85903087D02*
X230111833Y-84903087D01*
X230016595Y-85045945D01*
X229921357Y-85141183D01*
X229826119Y-85188802D01*
G04 #@! TO.C,S12*
X215741357Y-103475468D02*
X215884214Y-103523087D01*
X216122310Y-103523087D01*
X216217548Y-103475468D01*
X216265167Y-103427849D01*
X216312786Y-103332611D01*
X216312786Y-103237373D01*
X216265167Y-103142135D01*
X216217548Y-103094516D01*
X216122310Y-103046897D01*
X215931833Y-102999278D01*
X215836595Y-102951659D01*
X215788976Y-102904040D01*
X215741357Y-102808802D01*
X215741357Y-102713564D01*
X215788976Y-102618326D01*
X215836595Y-102570707D01*
X215931833Y-102523087D01*
X216169929Y-102523087D01*
X216312786Y-102570707D01*
X217265167Y-103523087D02*
X216693738Y-103523087D01*
X216979453Y-103523087D02*
X216979453Y-102523087D01*
X216884214Y-102665945D01*
X216788976Y-102761183D01*
X216693738Y-102808802D01*
X217646119Y-102618326D02*
X217693738Y-102570707D01*
X217788976Y-102523087D01*
X218027072Y-102523087D01*
X218122310Y-102570707D01*
X218169929Y-102618326D01*
X218217548Y-102713564D01*
X218217548Y-102808802D01*
X218169929Y-102951659D01*
X217598500Y-103523087D01*
X218217548Y-103523087D01*
G04 #@! TO.C,S13*
X237111357Y-102845468D02*
X237254214Y-102893087D01*
X237492310Y-102893087D01*
X237587548Y-102845468D01*
X237635167Y-102797849D01*
X237682786Y-102702611D01*
X237682786Y-102607373D01*
X237635167Y-102512135D01*
X237587548Y-102464516D01*
X237492310Y-102416897D01*
X237301833Y-102369278D01*
X237206595Y-102321659D01*
X237158976Y-102274040D01*
X237111357Y-102178802D01*
X237111357Y-102083564D01*
X237158976Y-101988326D01*
X237206595Y-101940707D01*
X237301833Y-101893087D01*
X237539929Y-101893087D01*
X237682786Y-101940707D01*
X238635167Y-102893087D02*
X238063738Y-102893087D01*
X238349453Y-102893087D02*
X238349453Y-101893087D01*
X238254214Y-102035945D01*
X238158976Y-102131183D01*
X238063738Y-102178802D01*
X238968500Y-101893087D02*
X239587548Y-101893087D01*
X239254214Y-102274040D01*
X239397072Y-102274040D01*
X239492310Y-102321659D01*
X239539929Y-102369278D01*
X239587548Y-102464516D01*
X239587548Y-102702611D01*
X239539929Y-102797849D01*
X239492310Y-102845468D01*
X239397072Y-102893087D01*
X239111357Y-102893087D01*
X239016119Y-102845468D01*
X238968500Y-102797849D01*
G04 #@! TO.C,S14*
X203941357Y-132375468D02*
X204084214Y-132423087D01*
X204322310Y-132423087D01*
X204417548Y-132375468D01*
X204465167Y-132327849D01*
X204512786Y-132232611D01*
X204512786Y-132137373D01*
X204465167Y-132042135D01*
X204417548Y-131994516D01*
X204322310Y-131946897D01*
X204131833Y-131899278D01*
X204036595Y-131851659D01*
X203988976Y-131804040D01*
X203941357Y-131708802D01*
X203941357Y-131613564D01*
X203988976Y-131518326D01*
X204036595Y-131470707D01*
X204131833Y-131423087D01*
X204369929Y-131423087D01*
X204512786Y-131470707D01*
X205465167Y-132423087D02*
X204893738Y-132423087D01*
X205179453Y-132423087D02*
X205179453Y-131423087D01*
X205084214Y-131565945D01*
X204988976Y-131661183D01*
X204893738Y-131708802D01*
X206322310Y-131756421D02*
X206322310Y-132423087D01*
X206084214Y-131375468D02*
X205846119Y-132089754D01*
X206465167Y-132089754D01*
G04 #@! TO.C,S15*
X220691357Y-120695468D02*
X220834214Y-120743087D01*
X221072310Y-120743087D01*
X221167548Y-120695468D01*
X221215167Y-120647849D01*
X221262786Y-120552611D01*
X221262786Y-120457373D01*
X221215167Y-120362135D01*
X221167548Y-120314516D01*
X221072310Y-120266897D01*
X220881833Y-120219278D01*
X220786595Y-120171659D01*
X220738976Y-120124040D01*
X220691357Y-120028802D01*
X220691357Y-119933564D01*
X220738976Y-119838326D01*
X220786595Y-119790707D01*
X220881833Y-119743087D01*
X221119929Y-119743087D01*
X221262786Y-119790707D01*
X222215167Y-120743087D02*
X221643738Y-120743087D01*
X221929453Y-120743087D02*
X221929453Y-119743087D01*
X221834214Y-119885945D01*
X221738976Y-119981183D01*
X221643738Y-120028802D01*
X223119929Y-119743087D02*
X222643738Y-119743087D01*
X222596119Y-120219278D01*
X222643738Y-120171659D01*
X222738976Y-120124040D01*
X222977072Y-120124040D01*
X223072310Y-120171659D01*
X223119929Y-120219278D01*
X223167548Y-120314516D01*
X223167548Y-120552611D01*
X223119929Y-120647849D01*
X223072310Y-120695468D01*
X222977072Y-120743087D01*
X222738976Y-120743087D01*
X222643738Y-120695468D01*
X222596119Y-120647849D01*
G04 #@! TO.C,S16*
X240601357Y-121585468D02*
X240744214Y-121633087D01*
X240982310Y-121633087D01*
X241077548Y-121585468D01*
X241125167Y-121537849D01*
X241172786Y-121442611D01*
X241172786Y-121347373D01*
X241125167Y-121252135D01*
X241077548Y-121204516D01*
X240982310Y-121156897D01*
X240791833Y-121109278D01*
X240696595Y-121061659D01*
X240648976Y-121014040D01*
X240601357Y-120918802D01*
X240601357Y-120823564D01*
X240648976Y-120728326D01*
X240696595Y-120680707D01*
X240791833Y-120633087D01*
X241029929Y-120633087D01*
X241172786Y-120680707D01*
X242125167Y-121633087D02*
X241553738Y-121633087D01*
X241839453Y-121633087D02*
X241839453Y-120633087D01*
X241744214Y-120775945D01*
X241648976Y-120871183D01*
X241553738Y-120918802D01*
X242982310Y-120633087D02*
X242791833Y-120633087D01*
X242696595Y-120680707D01*
X242648976Y-120728326D01*
X242553738Y-120871183D01*
X242506119Y-121061659D01*
X242506119Y-121442611D01*
X242553738Y-121537849D01*
X242601357Y-121585468D01*
X242696595Y-121633087D01*
X242887072Y-121633087D01*
X242982310Y-121585468D01*
X243029929Y-121537849D01*
X243077548Y-121442611D01*
X243077548Y-121204516D01*
X243029929Y-121109278D01*
X242982310Y-121061659D01*
X242887072Y-121014040D01*
X242696595Y-121014040D01*
X242601357Y-121061659D01*
X242553738Y-121109278D01*
X242506119Y-121204516D01*
G04 #@! TO.C,S17*
X240311357Y-140775468D02*
X240454214Y-140823087D01*
X240692310Y-140823087D01*
X240787548Y-140775468D01*
X240835167Y-140727849D01*
X240882786Y-140632611D01*
X240882786Y-140537373D01*
X240835167Y-140442135D01*
X240787548Y-140394516D01*
X240692310Y-140346897D01*
X240501833Y-140299278D01*
X240406595Y-140251659D01*
X240358976Y-140204040D01*
X240311357Y-140108802D01*
X240311357Y-140013564D01*
X240358976Y-139918326D01*
X240406595Y-139870707D01*
X240501833Y-139823087D01*
X240739929Y-139823087D01*
X240882786Y-139870707D01*
X241835167Y-140823087D02*
X241263738Y-140823087D01*
X241549453Y-140823087D02*
X241549453Y-139823087D01*
X241454214Y-139965945D01*
X241358976Y-140061183D01*
X241263738Y-140108802D01*
X242168500Y-139823087D02*
X242835167Y-139823087D01*
X242406595Y-140823087D01*
G04 #@! TO.C,S18*
X220921357Y-139425468D02*
X221064214Y-139473087D01*
X221302310Y-139473087D01*
X221397548Y-139425468D01*
X221445167Y-139377849D01*
X221492786Y-139282611D01*
X221492786Y-139187373D01*
X221445167Y-139092135D01*
X221397548Y-139044516D01*
X221302310Y-138996897D01*
X221111833Y-138949278D01*
X221016595Y-138901659D01*
X220968976Y-138854040D01*
X220921357Y-138758802D01*
X220921357Y-138663564D01*
X220968976Y-138568326D01*
X221016595Y-138520707D01*
X221111833Y-138473087D01*
X221349929Y-138473087D01*
X221492786Y-138520707D01*
X222445167Y-139473087D02*
X221873738Y-139473087D01*
X222159453Y-139473087D02*
X222159453Y-138473087D01*
X222064214Y-138615945D01*
X221968976Y-138711183D01*
X221873738Y-138758802D01*
X223016595Y-138901659D02*
X222921357Y-138854040D01*
X222873738Y-138806421D01*
X222826119Y-138711183D01*
X222826119Y-138663564D01*
X222873738Y-138568326D01*
X222921357Y-138520707D01*
X223016595Y-138473087D01*
X223207072Y-138473087D01*
X223302310Y-138520707D01*
X223349929Y-138568326D01*
X223397548Y-138663564D01*
X223397548Y-138711183D01*
X223349929Y-138806421D01*
X223302310Y-138854040D01*
X223207072Y-138901659D01*
X223016595Y-138901659D01*
X222921357Y-138949278D01*
X222873738Y-138996897D01*
X222826119Y-139092135D01*
X222826119Y-139282611D01*
X222873738Y-139377849D01*
X222921357Y-139425468D01*
X223016595Y-139473087D01*
X223207072Y-139473087D01*
X223302310Y-139425468D01*
X223349929Y-139377849D01*
X223397548Y-139282611D01*
X223397548Y-139092135D01*
X223349929Y-138996897D01*
X223302310Y-138949278D01*
X223207072Y-138901659D01*
G04 #@! TO.C,S19*
X218691357Y-159185468D02*
X218834214Y-159233087D01*
X219072310Y-159233087D01*
X219167548Y-159185468D01*
X219215167Y-159137849D01*
X219262786Y-159042611D01*
X219262786Y-158947373D01*
X219215167Y-158852135D01*
X219167548Y-158804516D01*
X219072310Y-158756897D01*
X218881833Y-158709278D01*
X218786595Y-158661659D01*
X218738976Y-158614040D01*
X218691357Y-158518802D01*
X218691357Y-158423564D01*
X218738976Y-158328326D01*
X218786595Y-158280707D01*
X218881833Y-158233087D01*
X219119929Y-158233087D01*
X219262786Y-158280707D01*
X220215167Y-159233087D02*
X219643738Y-159233087D01*
X219929453Y-159233087D02*
X219929453Y-158233087D01*
X219834214Y-158375945D01*
X219738976Y-158471183D01*
X219643738Y-158518802D01*
X220691357Y-159233087D02*
X220881833Y-159233087D01*
X220977072Y-159185468D01*
X221024691Y-159137849D01*
X221119929Y-158994992D01*
X221167548Y-158804516D01*
X221167548Y-158423564D01*
X221119929Y-158328326D01*
X221072310Y-158280707D01*
X220977072Y-158233087D01*
X220786595Y-158233087D01*
X220691357Y-158280707D01*
X220643738Y-158328326D01*
X220596119Y-158423564D01*
X220596119Y-158661659D01*
X220643738Y-158756897D01*
X220691357Y-158804516D01*
X220786595Y-158852135D01*
X220977072Y-158852135D01*
X221072310Y-158804516D01*
X221119929Y-158756897D01*
X221167548Y-158661659D01*
G04 #@! TO.C,S20*
X237121357Y-159965468D02*
X237264214Y-160013087D01*
X237502310Y-160013087D01*
X237597548Y-159965468D01*
X237645167Y-159917849D01*
X237692786Y-159822611D01*
X237692786Y-159727373D01*
X237645167Y-159632135D01*
X237597548Y-159584516D01*
X237502310Y-159536897D01*
X237311833Y-159489278D01*
X237216595Y-159441659D01*
X237168976Y-159394040D01*
X237121357Y-159298802D01*
X237121357Y-159203564D01*
X237168976Y-159108326D01*
X237216595Y-159060707D01*
X237311833Y-159013087D01*
X237549929Y-159013087D01*
X237692786Y-159060707D01*
X238073738Y-159108326D02*
X238121357Y-159060707D01*
X238216595Y-159013087D01*
X238454691Y-159013087D01*
X238549929Y-159060707D01*
X238597548Y-159108326D01*
X238645167Y-159203564D01*
X238645167Y-159298802D01*
X238597548Y-159441659D01*
X238026119Y-160013087D01*
X238645167Y-160013087D01*
X239264214Y-159013087D02*
X239359453Y-159013087D01*
X239454691Y-159060707D01*
X239502310Y-159108326D01*
X239549929Y-159203564D01*
X239597548Y-159394040D01*
X239597548Y-159632135D01*
X239549929Y-159822611D01*
X239502310Y-159917849D01*
X239454691Y-159965468D01*
X239359453Y-160013087D01*
X239264214Y-160013087D01*
X239168976Y-159965468D01*
X239121357Y-159917849D01*
X239073738Y-159822611D01*
X239026119Y-159632135D01*
X239026119Y-159394040D01*
X239073738Y-159203564D01*
X239121357Y-159108326D01*
X239168976Y-159060707D01*
X239264214Y-159013087D01*
G04 #@! TO.C,S21*
X231431357Y-178375468D02*
X231574214Y-178423087D01*
X231812310Y-178423087D01*
X231907548Y-178375468D01*
X231955167Y-178327849D01*
X232002786Y-178232611D01*
X232002786Y-178137373D01*
X231955167Y-178042135D01*
X231907548Y-177994516D01*
X231812310Y-177946897D01*
X231621833Y-177899278D01*
X231526595Y-177851659D01*
X231478976Y-177804040D01*
X231431357Y-177708802D01*
X231431357Y-177613564D01*
X231478976Y-177518326D01*
X231526595Y-177470707D01*
X231621833Y-177423087D01*
X231859929Y-177423087D01*
X232002786Y-177470707D01*
X232383738Y-177518326D02*
X232431357Y-177470707D01*
X232526595Y-177423087D01*
X232764691Y-177423087D01*
X232859929Y-177470707D01*
X232907548Y-177518326D01*
X232955167Y-177613564D01*
X232955167Y-177708802D01*
X232907548Y-177851659D01*
X232336119Y-178423087D01*
X232955167Y-178423087D01*
X233907548Y-178423087D02*
X233336119Y-178423087D01*
X233621833Y-178423087D02*
X233621833Y-177423087D01*
X233526595Y-177565945D01*
X233431357Y-177661183D01*
X233336119Y-177708802D01*
G04 #@! TO.C,S22*
X226571357Y-198835468D02*
X226714214Y-198883087D01*
X226952310Y-198883087D01*
X227047548Y-198835468D01*
X227095167Y-198787849D01*
X227142786Y-198692611D01*
X227142786Y-198597373D01*
X227095167Y-198502135D01*
X227047548Y-198454516D01*
X226952310Y-198406897D01*
X226761833Y-198359278D01*
X226666595Y-198311659D01*
X226618976Y-198264040D01*
X226571357Y-198168802D01*
X226571357Y-198073564D01*
X226618976Y-197978326D01*
X226666595Y-197930707D01*
X226761833Y-197883087D01*
X226999929Y-197883087D01*
X227142786Y-197930707D01*
X227523738Y-197978326D02*
X227571357Y-197930707D01*
X227666595Y-197883087D01*
X227904691Y-197883087D01*
X227999929Y-197930707D01*
X228047548Y-197978326D01*
X228095167Y-198073564D01*
X228095167Y-198168802D01*
X228047548Y-198311659D01*
X227476119Y-198883087D01*
X228095167Y-198883087D01*
X228476119Y-197978326D02*
X228523738Y-197930707D01*
X228618976Y-197883087D01*
X228857072Y-197883087D01*
X228952310Y-197930707D01*
X228999929Y-197978326D01*
X229047548Y-198073564D01*
X229047548Y-198168802D01*
X228999929Y-198311659D01*
X228428500Y-198883087D01*
X229047548Y-198883087D01*
G04 #@! TO.C,S23*
X225371357Y-218045468D02*
X225514214Y-218093087D01*
X225752310Y-218093087D01*
X225847548Y-218045468D01*
X225895167Y-217997849D01*
X225942786Y-217902611D01*
X225942786Y-217807373D01*
X225895167Y-217712135D01*
X225847548Y-217664516D01*
X225752310Y-217616897D01*
X225561833Y-217569278D01*
X225466595Y-217521659D01*
X225418976Y-217474040D01*
X225371357Y-217378802D01*
X225371357Y-217283564D01*
X225418976Y-217188326D01*
X225466595Y-217140707D01*
X225561833Y-217093087D01*
X225799929Y-217093087D01*
X225942786Y-217140707D01*
X226323738Y-217188326D02*
X226371357Y-217140707D01*
X226466595Y-217093087D01*
X226704691Y-217093087D01*
X226799929Y-217140707D01*
X226847548Y-217188326D01*
X226895167Y-217283564D01*
X226895167Y-217378802D01*
X226847548Y-217521659D01*
X226276119Y-218093087D01*
X226895167Y-218093087D01*
X227228500Y-217093087D02*
X227847548Y-217093087D01*
X227514214Y-217474040D01*
X227657072Y-217474040D01*
X227752310Y-217521659D01*
X227799929Y-217569278D01*
X227847548Y-217664516D01*
X227847548Y-217902611D01*
X227799929Y-217997849D01*
X227752310Y-218045468D01*
X227657072Y-218093087D01*
X227371357Y-218093087D01*
X227276119Y-218045468D01*
X227228500Y-217997849D01*
G04 #@! TO.C,S24*
X190761357Y-238735468D02*
X190904214Y-238783087D01*
X191142310Y-238783087D01*
X191237548Y-238735468D01*
X191285167Y-238687849D01*
X191332786Y-238592611D01*
X191332786Y-238497373D01*
X191285167Y-238402135D01*
X191237548Y-238354516D01*
X191142310Y-238306897D01*
X190951833Y-238259278D01*
X190856595Y-238211659D01*
X190808976Y-238164040D01*
X190761357Y-238068802D01*
X190761357Y-237973564D01*
X190808976Y-237878326D01*
X190856595Y-237830707D01*
X190951833Y-237783087D01*
X191189929Y-237783087D01*
X191332786Y-237830707D01*
X191713738Y-237878326D02*
X191761357Y-237830707D01*
X191856595Y-237783087D01*
X192094691Y-237783087D01*
X192189929Y-237830707D01*
X192237548Y-237878326D01*
X192285167Y-237973564D01*
X192285167Y-238068802D01*
X192237548Y-238211659D01*
X191666119Y-238783087D01*
X192285167Y-238783087D01*
X193142310Y-238116421D02*
X193142310Y-238783087D01*
X192904214Y-237735468D02*
X192666119Y-238449754D01*
X193285167Y-238449754D01*
G04 #@! TO.C,S25*
X187271357Y-256705468D02*
X187414214Y-256753087D01*
X187652310Y-256753087D01*
X187747548Y-256705468D01*
X187795167Y-256657849D01*
X187842786Y-256562611D01*
X187842786Y-256467373D01*
X187795167Y-256372135D01*
X187747548Y-256324516D01*
X187652310Y-256276897D01*
X187461833Y-256229278D01*
X187366595Y-256181659D01*
X187318976Y-256134040D01*
X187271357Y-256038802D01*
X187271357Y-255943564D01*
X187318976Y-255848326D01*
X187366595Y-255800707D01*
X187461833Y-255753087D01*
X187699929Y-255753087D01*
X187842786Y-255800707D01*
X188223738Y-255848326D02*
X188271357Y-255800707D01*
X188366595Y-255753087D01*
X188604691Y-255753087D01*
X188699929Y-255800707D01*
X188747548Y-255848326D01*
X188795167Y-255943564D01*
X188795167Y-256038802D01*
X188747548Y-256181659D01*
X188176119Y-256753087D01*
X188795167Y-256753087D01*
X189699929Y-255753087D02*
X189223738Y-255753087D01*
X189176119Y-256229278D01*
X189223738Y-256181659D01*
X189318976Y-256134040D01*
X189557072Y-256134040D01*
X189652310Y-256181659D01*
X189699929Y-256229278D01*
X189747548Y-256324516D01*
X189747548Y-256562611D01*
X189699929Y-256657849D01*
X189652310Y-256705468D01*
X189557072Y-256753087D01*
X189318976Y-256753087D01*
X189223738Y-256705468D01*
X189176119Y-256657849D01*
G04 #@! TO.C,S26*
X199361357Y-273195468D02*
X199504214Y-273243087D01*
X199742310Y-273243087D01*
X199837548Y-273195468D01*
X199885167Y-273147849D01*
X199932786Y-273052611D01*
X199932786Y-272957373D01*
X199885167Y-272862135D01*
X199837548Y-272814516D01*
X199742310Y-272766897D01*
X199551833Y-272719278D01*
X199456595Y-272671659D01*
X199408976Y-272624040D01*
X199361357Y-272528802D01*
X199361357Y-272433564D01*
X199408976Y-272338326D01*
X199456595Y-272290707D01*
X199551833Y-272243087D01*
X199789929Y-272243087D01*
X199932786Y-272290707D01*
X200313738Y-272338326D02*
X200361357Y-272290707D01*
X200456595Y-272243087D01*
X200694691Y-272243087D01*
X200789929Y-272290707D01*
X200837548Y-272338326D01*
X200885167Y-272433564D01*
X200885167Y-272528802D01*
X200837548Y-272671659D01*
X200266119Y-273243087D01*
X200885167Y-273243087D01*
X201742310Y-272243087D02*
X201551833Y-272243087D01*
X201456595Y-272290707D01*
X201408976Y-272338326D01*
X201313738Y-272481183D01*
X201266119Y-272671659D01*
X201266119Y-273052611D01*
X201313738Y-273147849D01*
X201361357Y-273195468D01*
X201456595Y-273243087D01*
X201647072Y-273243087D01*
X201742310Y-273195468D01*
X201789929Y-273147849D01*
X201837548Y-273052611D01*
X201837548Y-272814516D01*
X201789929Y-272719278D01*
X201742310Y-272671659D01*
X201647072Y-272624040D01*
X201456595Y-272624040D01*
X201361357Y-272671659D01*
X201313738Y-272719278D01*
X201266119Y-272814516D01*
G04 #@! TO.C,S27*
X212571357Y-273355468D02*
X212714214Y-273403087D01*
X212952310Y-273403087D01*
X213047548Y-273355468D01*
X213095167Y-273307849D01*
X213142786Y-273212611D01*
X213142786Y-273117373D01*
X213095167Y-273022135D01*
X213047548Y-272974516D01*
X212952310Y-272926897D01*
X212761833Y-272879278D01*
X212666595Y-272831659D01*
X212618976Y-272784040D01*
X212571357Y-272688802D01*
X212571357Y-272593564D01*
X212618976Y-272498326D01*
X212666595Y-272450707D01*
X212761833Y-272403087D01*
X212999929Y-272403087D01*
X213142786Y-272450707D01*
X213523738Y-272498326D02*
X213571357Y-272450707D01*
X213666595Y-272403087D01*
X213904691Y-272403087D01*
X213999929Y-272450707D01*
X214047548Y-272498326D01*
X214095167Y-272593564D01*
X214095167Y-272688802D01*
X214047548Y-272831659D01*
X213476119Y-273403087D01*
X214095167Y-273403087D01*
X214428500Y-272403087D02*
X215095167Y-272403087D01*
X214666595Y-273403087D01*
G04 #@! TO.C,S28*
X224791357Y-256515468D02*
X224934214Y-256563087D01*
X225172310Y-256563087D01*
X225267548Y-256515468D01*
X225315167Y-256467849D01*
X225362786Y-256372611D01*
X225362786Y-256277373D01*
X225315167Y-256182135D01*
X225267548Y-256134516D01*
X225172310Y-256086897D01*
X224981833Y-256039278D01*
X224886595Y-255991659D01*
X224838976Y-255944040D01*
X224791357Y-255848802D01*
X224791357Y-255753564D01*
X224838976Y-255658326D01*
X224886595Y-255610707D01*
X224981833Y-255563087D01*
X225219929Y-255563087D01*
X225362786Y-255610707D01*
X225743738Y-255658326D02*
X225791357Y-255610707D01*
X225886595Y-255563087D01*
X226124691Y-255563087D01*
X226219929Y-255610707D01*
X226267548Y-255658326D01*
X226315167Y-255753564D01*
X226315167Y-255848802D01*
X226267548Y-255991659D01*
X225696119Y-256563087D01*
X226315167Y-256563087D01*
X226886595Y-255991659D02*
X226791357Y-255944040D01*
X226743738Y-255896421D01*
X226696119Y-255801183D01*
X226696119Y-255753564D01*
X226743738Y-255658326D01*
X226791357Y-255610707D01*
X226886595Y-255563087D01*
X227077072Y-255563087D01*
X227172310Y-255610707D01*
X227219929Y-255658326D01*
X227267548Y-255753564D01*
X227267548Y-255801183D01*
X227219929Y-255896421D01*
X227172310Y-255944040D01*
X227077072Y-255991659D01*
X226886595Y-255991659D01*
X226791357Y-256039278D01*
X226743738Y-256086897D01*
X226696119Y-256182135D01*
X226696119Y-256372611D01*
X226743738Y-256467849D01*
X226791357Y-256515468D01*
X226886595Y-256563087D01*
X227077072Y-256563087D01*
X227172310Y-256515468D01*
X227219929Y-256467849D01*
X227267548Y-256372611D01*
X227267548Y-256182135D01*
X227219929Y-256086897D01*
X227172310Y-256039278D01*
X227077072Y-255991659D01*
G04 #@! TO.C,S29*
X206571357Y-254515468D02*
X206714214Y-254563087D01*
X206952310Y-254563087D01*
X207047548Y-254515468D01*
X207095167Y-254467849D01*
X207142786Y-254372611D01*
X207142786Y-254277373D01*
X207095167Y-254182135D01*
X207047548Y-254134516D01*
X206952310Y-254086897D01*
X206761833Y-254039278D01*
X206666595Y-253991659D01*
X206618976Y-253944040D01*
X206571357Y-253848802D01*
X206571357Y-253753564D01*
X206618976Y-253658326D01*
X206666595Y-253610707D01*
X206761833Y-253563087D01*
X206999929Y-253563087D01*
X207142786Y-253610707D01*
X207523738Y-253658326D02*
X207571357Y-253610707D01*
X207666595Y-253563087D01*
X207904691Y-253563087D01*
X207999929Y-253610707D01*
X208047548Y-253658326D01*
X208095167Y-253753564D01*
X208095167Y-253848802D01*
X208047548Y-253991659D01*
X207476119Y-254563087D01*
X208095167Y-254563087D01*
X208571357Y-254563087D02*
X208761833Y-254563087D01*
X208857072Y-254515468D01*
X208904691Y-254467849D01*
X208999929Y-254324992D01*
X209047548Y-254134516D01*
X209047548Y-253753564D01*
X208999929Y-253658326D01*
X208952310Y-253610707D01*
X208857072Y-253563087D01*
X208666595Y-253563087D01*
X208571357Y-253610707D01*
X208523738Y-253658326D01*
X208476119Y-253753564D01*
X208476119Y-253991659D01*
X208523738Y-254086897D01*
X208571357Y-254134516D01*
X208666595Y-254182135D01*
X208857072Y-254182135D01*
X208952310Y-254134516D01*
X208999929Y-254086897D01*
X209047548Y-253991659D01*
G04 #@! TO.C,S30*
X224381357Y-237145468D02*
X224524214Y-237193087D01*
X224762310Y-237193087D01*
X224857548Y-237145468D01*
X224905167Y-237097849D01*
X224952786Y-237002611D01*
X224952786Y-236907373D01*
X224905167Y-236812135D01*
X224857548Y-236764516D01*
X224762310Y-236716897D01*
X224571833Y-236669278D01*
X224476595Y-236621659D01*
X224428976Y-236574040D01*
X224381357Y-236478802D01*
X224381357Y-236383564D01*
X224428976Y-236288326D01*
X224476595Y-236240707D01*
X224571833Y-236193087D01*
X224809929Y-236193087D01*
X224952786Y-236240707D01*
X225286119Y-236193087D02*
X225905167Y-236193087D01*
X225571833Y-236574040D01*
X225714691Y-236574040D01*
X225809929Y-236621659D01*
X225857548Y-236669278D01*
X225905167Y-236764516D01*
X225905167Y-237002611D01*
X225857548Y-237097849D01*
X225809929Y-237145468D01*
X225714691Y-237193087D01*
X225428976Y-237193087D01*
X225333738Y-237145468D01*
X225286119Y-237097849D01*
X226524214Y-236193087D02*
X226619453Y-236193087D01*
X226714691Y-236240707D01*
X226762310Y-236288326D01*
X226809929Y-236383564D01*
X226857548Y-236574040D01*
X226857548Y-236812135D01*
X226809929Y-237002611D01*
X226762310Y-237097849D01*
X226714691Y-237145468D01*
X226619453Y-237193087D01*
X226524214Y-237193087D01*
X226428976Y-237145468D01*
X226381357Y-237097849D01*
X226333738Y-237002611D01*
X226286119Y-236812135D01*
X226286119Y-236574040D01*
X226333738Y-236383564D01*
X226381357Y-236288326D01*
X226428976Y-236240707D01*
X226524214Y-236193087D01*
G04 #@! TO.C,S31*
X207771357Y-233235468D02*
X207914214Y-233283087D01*
X208152310Y-233283087D01*
X208247548Y-233235468D01*
X208295167Y-233187849D01*
X208342786Y-233092611D01*
X208342786Y-232997373D01*
X208295167Y-232902135D01*
X208247548Y-232854516D01*
X208152310Y-232806897D01*
X207961833Y-232759278D01*
X207866595Y-232711659D01*
X207818976Y-232664040D01*
X207771357Y-232568802D01*
X207771357Y-232473564D01*
X207818976Y-232378326D01*
X207866595Y-232330707D01*
X207961833Y-232283087D01*
X208199929Y-232283087D01*
X208342786Y-232330707D01*
X208676119Y-232283087D02*
X209295167Y-232283087D01*
X208961833Y-232664040D01*
X209104691Y-232664040D01*
X209199929Y-232711659D01*
X209247548Y-232759278D01*
X209295167Y-232854516D01*
X209295167Y-233092611D01*
X209247548Y-233187849D01*
X209199929Y-233235468D01*
X209104691Y-233283087D01*
X208818976Y-233283087D01*
X208723738Y-233235468D01*
X208676119Y-233187849D01*
X210247548Y-233283087D02*
X209676119Y-233283087D01*
X209961833Y-233283087D02*
X209961833Y-232283087D01*
X209866595Y-232425945D01*
X209771357Y-232521183D01*
X209676119Y-232568802D01*
G04 #@! TD*
M02*
