G04 #@! TF.GenerationSoftware,KiCad,Pcbnew,(5.0.0)*
G04 #@! TF.CreationDate,2020-01-07T16:08:45+01:00*
G04 #@! TF.ProjectId,Insole_PCB,496E736F6C655F5043422E6B69636164,rev?*
G04 #@! TF.SameCoordinates,Original*
G04 #@! TF.FileFunction,Other,ECO2*
%FSLAX46Y46*%
G04 Gerber Fmt 4.6, Leading zero omitted, Abs format (unit mm)*
G04 Created by KiCad (PCBNEW (5.0.0)) date 01/07/20 16:08:45*
%MOMM*%
%LPD*%
G01*
G04 APERTURE LIST*
%ADD10C,0.100000*%
G04 APERTURE END LIST*
D10*
X169068316Y-134171726D02*
G75*
G02X215449453Y-193820707I5056994J-43924577D01*
G01*
X215449460Y-193820327D02*
G75*
G02X183709453Y-213230707I-24872853J5016340D01*
G01*
X249792461Y-96966756D02*
X248938460Y-93279067D01*
X250918475Y-119394000D02*
X250804851Y-114431047D01*
X244618361Y-82800959D02*
X242635479Y-79561805D01*
X214075497Y-47564985D02*
X210216067Y-45142095D01*
X228138918Y-61167591D02*
X224860939Y-57520115D01*
X240402762Y-76478709D02*
X237408679Y-72612068D01*
X231304423Y-64921849D02*
X228138918Y-61167591D01*
X250662246Y-109473854D02*
X250543687Y-104529199D01*
X250543687Y-104529199D02*
X250331855Y-100722656D01*
X242635479Y-79561805D02*
X240402762Y-76478709D01*
X248938460Y-93279067D02*
X247782806Y-89677158D01*
X250950095Y-124355936D02*
X250918475Y-119394000D01*
X192788731Y-40906695D02*
X188229936Y-40986495D01*
X210216067Y-45142095D02*
X206098587Y-43309905D01*
X217856896Y-50684145D02*
X214075497Y-47564985D01*
X224860939Y-57520115D02*
X221442820Y-54014075D01*
X234385121Y-68748228D02*
X231304423Y-64921849D01*
X250331855Y-100722656D02*
X249792461Y-96966756D01*
X250846677Y-129310075D02*
X250950095Y-124355936D01*
X188229936Y-40986495D02*
X183708533Y-41431645D01*
X206098587Y-43309905D02*
X201782144Y-42023315D01*
X221442820Y-54014075D02*
X217856896Y-50684145D01*
X197325829Y-41237275D02*
X192788731Y-40906695D01*
X201782144Y-42023315D02*
X197325829Y-41237275D01*
X237408679Y-72612068D02*
X234385121Y-68748228D01*
X247782806Y-89677158D02*
X246338455Y-86178599D01*
X250804851Y-114431047D02*
X250662246Y-109473854D01*
X246338455Y-86178599D02*
X244618361Y-82800959D01*
X178710641Y-250459846D02*
X179986735Y-255744695D01*
X249195948Y-144057930D02*
X250022631Y-139167850D01*
X235176689Y-222352157D02*
X235651770Y-216298068D01*
X204180020Y-275202835D02*
X209630223Y-275196835D01*
X242614654Y-166406798D02*
X243925388Y-161936120D01*
X189159997Y-269026375D02*
X193687826Y-272037505D01*
X209630223Y-275196835D02*
X214973089Y-274130845D01*
X243925388Y-161936120D02*
X245306824Y-157482639D01*
X250555198Y-134249639D02*
X250846677Y-129310075D01*
X250022631Y-139167850D02*
X250555198Y-134249639D01*
X239026732Y-186113925D02*
X239786053Y-180089471D01*
X179391791Y-239608954D02*
X178481168Y-245025420D01*
X248010043Y-148560289D02*
X249195948Y-144057930D01*
X240477047Y-175466729D02*
X241442560Y-170911420D01*
X239786053Y-180089471D02*
X240477047Y-175466729D01*
X234798602Y-235350499D02*
X234668703Y-231875139D01*
X238273505Y-192141574D02*
X239026732Y-186113925D01*
X220036197Y-272093765D02*
X224647127Y-269174015D01*
X235439772Y-249215265D02*
X235517052Y-245772089D01*
X236215504Y-210250663D02*
X236851379Y-204209245D01*
X234042630Y-256003041D02*
X234990932Y-252628502D01*
X179986735Y-255744695D02*
X182215976Y-260712425D01*
X236851379Y-204209245D02*
X237542883Y-198173114D01*
X235651770Y-216298068D02*
X236215504Y-210250663D01*
X234806771Y-228413628D02*
X235176689Y-222352157D01*
X234668703Y-231875139D02*
X234806771Y-228413628D01*
X224647127Y-269174015D02*
X228633456Y-265460035D01*
X214973089Y-274130845D02*
X220036197Y-272093765D01*
X246691022Y-153029610D02*
X248010043Y-148560289D01*
X237542883Y-198173114D02*
X238273505Y-192141574D01*
X228633456Y-265460035D02*
X231822764Y-261040235D01*
X245306824Y-157482639D02*
X246691022Y-153029610D01*
X241442560Y-170911420D02*
X242614654Y-166406798D01*
X235068563Y-238830948D02*
X234798602Y-235350499D01*
X235350681Y-242307731D02*
X235068563Y-238830948D01*
X235517052Y-245772089D02*
X235350681Y-242307731D01*
X234990932Y-252628502D02*
X235439772Y-249215265D01*
X231822764Y-261040235D02*
X234042630Y-256003041D01*
X198794902Y-274061365D02*
X204180020Y-275202835D01*
X193687826Y-272037505D02*
X198794902Y-274061365D01*
X185304889Y-265195495D02*
X189159997Y-269026375D01*
X182215976Y-260712425D02*
X185304889Y-265195495D01*
X178481168Y-245025420D02*
X178710641Y-250459846D01*
X163346174Y-94527525D02*
X163273894Y-101023877D01*
X163533110Y-88034051D02*
X163346174Y-94527525D01*
X166651101Y-59163744D02*
X166027480Y-62207963D01*
X183708533Y-41431645D02*
X179283613Y-42197035D01*
X166027480Y-62207963D02*
X165081884Y-68630412D01*
X171593937Y-47436525D02*
X169890133Y-50080615D01*
X167546977Y-130815764D02*
X169099453Y-134170707D01*
X164052980Y-119834241D02*
X165509419Y-125420014D01*
X163273894Y-101023877D02*
X163286254Y-107517156D01*
X169890133Y-50080615D02*
X168532008Y-52989935D01*
X173693838Y-45167815D02*
X171593937Y-47436525D01*
X179283613Y-42197035D02*
X176240256Y-43384605D01*
X165509419Y-125420014D02*
X167546977Y-130815764D01*
X163353264Y-114001411D02*
X164052980Y-119834241D01*
X163864704Y-81549407D02*
X163533110Y-88034051D01*
X165081884Y-68630412D02*
X164370960Y-75079543D01*
X163286254Y-107517156D02*
X163353264Y-114001411D01*
X164370960Y-75079543D02*
X163864704Y-81549407D01*
X167469137Y-56054355D02*
X166651101Y-59163744D01*
X176240256Y-43384605D02*
X173693838Y-45167815D01*
X168532008Y-52989935D02*
X167469137Y-56054355D01*
X182281045Y-225040487D02*
X181691805Y-228708075D01*
X183709453Y-213230707D02*
X183634182Y-213977433D01*
X180255582Y-235995440D02*
X179391782Y-239609330D01*
X183243825Y-217672222D02*
X182795582Y-221360888D01*
X181691805Y-228708075D02*
X181019453Y-232360707D01*
X182795582Y-221360888D02*
X182281045Y-225040487D01*
X183634182Y-213977433D02*
X183243825Y-217672222D01*
X181019453Y-232360707D02*
X180255582Y-235995440D01*
M02*
