<?xml version="1.0" encoding="UTF-8" standalone="no"?>
<svg
   xmlns:dc="http://purl.org/dc/elements/1.1/"
   xmlns:cc="http://creativecommons.org/ns#"
   xmlns:rdf="http://www.w3.org/1999/02/22-rdf-syntax-ns#"
   xmlns:svg="http://www.w3.org/2000/svg"
   xmlns="http://www.w3.org/2000/svg"
   xmlns:sodipodi="http://sodipodi.sourceforge.net/DTD/sodipodi-0.dtd"
   xmlns:inkscape="http://www.inkscape.org/namespaces/inkscape"
   width="106.57692627mm"
   height="273.75206665mm"
   viewBox="0 0 106.57692627 273.75206665"
   version="1.1"
   id="svg623"
   sodipodi:docname="plantilla43_exterior.svg"
   inkscape:version="0.92.3 (2405546, 2018-03-11)">
  <metadata
     id="metadata629">
    <rdf:RDF>
      <cc:Work
         rdf:about="">
        <dc:format>image/svg+xml</dc:format>
        <dc:type
           rdf:resource="http://purl.org/dc/dcmitype/StillImage" />
        <dc:title></dc:title>
      </cc:Work>
    </rdf:RDF>
  </metadata>
  <defs
     id="defs627" />
  <sodipodi:namedview
     pagecolor="#ffffff"
     bordercolor="#666666"
     borderopacity="1"
     objecttolerance="10"
     gridtolerance="10"
     guidetolerance="10"
     inkscape:pageopacity="0"
     inkscape:pageshadow="2"
     inkscape:window-width="1755"
     inkscape:window-height="961"
     id="namedview625"
     showgrid="false"
     inkscape:measure-start="-62.0009,542.508"
     inkscape:measure-end="0,0"
     inkscape:zoom="0.64515202"
     inkscape:cx="213.62828"
     inkscape:cy="499.30681"
     inkscape:window-x="0"
     inkscape:window-y="0"
     inkscape:window-maximized="0"
     inkscape:current-layer="insole43001001_solid" />
  <g
     id="insole43001001_solid"
     transform="translate(53.288463,136.878200) scale(1,-1)">
    <path
       id="insole43001001_solid_f0308"
       d="m -31.994306,-86.374933 0.38446,2.120087 0.35633,2.154304 0.32905,2.187607 0.30278,2.219864 0.2776,2.2509 0.25363,2.280602 0.23089,2.30883 0.20939,2.335442 0.18907,2.360336 0.32142,4.787792 0.25125,4.863545 0.18539,4.921554 0.12152,4.96093 0.0575,4.981381 -0.0104,4.982639 -0.0892,4.963785 -0.0803,2.468105 -0.10901,2.455119 -0.14204,2.439241 -0.17978,2.420559 -0.22234,2.399242 -0.26965,2.375552 -0.32135,2.349843 -0.37696,2.322552 -0.43577,2.294164 -0.49698,2.2651824 -0.5596,2.2361686 -0.62251,2.2076935 -0.68448,2.1803752 -0.74409,2.1548503 -0.80001,2.1317272 -0.85107,2.1115433 -0.89629,2.0947571 -0.93483,2.0817499 -1.95567,4.1410395 -2.01722,4.140615 -2.011713,4.17732 -0.982186,2.114327 -0.954738,2.137821 -0.918549,2.166061 -0.873726,2.198971 -0.820492,2.236407 -0.759166,2.278179 -0.69019,2.324054 -0.614097,2.373726 -0.531552,2.426853 -0.443298,2.483029 -0.350178,2.541817 -0.253105,2.602714 -0.0892,1.324707 -0.06391,1.340481 -0.03843,1.35635 -0.01283,1.372288 0.0062,3.473083 0.01863,3.372997 0.03132,3.274369 0.04423,3.177177 0.05737,3.081452 0.07073,2.987182 0.08432,2.894348 0.09812,2.802986 0.112148,2.713067 0.126408,2.624595 0.14088,2.537583 0.155583,2.452026 0.170505,2.36792 0.18565,2.285255 0.201023,2.204064 0.21661,2.124305 0.23243,2.046012 0.24847,1.96918 0.264733,1.89376 0.281215,1.81984 0.297924,1.74734 0.314858,1.67631 0.332012,1.60673 0.349392,1.53859 0.366989,1.47193 0.384819,1.40669 0.402866,1.34293 0.421135,1.28061 0.439633,1.21973 0.458347,1.16032 0.477287,1.10237 0.496457,1.04585 0.515838,0.9908 0.53545,0.93719 0.555287,0.88504 0.57534,0.83435 0.595621,0.78509 0.61613,0.7373 0.63685,0.69096 0.6578,0.64608 0.67897,0.60264 0.70037,0.56065 0.72199,0.52013 0.74384,0.48105 0.76589,0.44342 0.78819,0.40724 0.8107,0.37253 0.83343,0.33926 0.8564,0.30745 0.87957,0.27709 0.90298,0.24817 0.92661,0.22072 0.95046,0.1947 0.97454,0.17016 0.99883,0.14705 1.02335,0.12541 1.0481,0.10523 1.07307,0.0865 1.09825,0.0692 1.12367,0.0534 2.32448,0.065 2.4288,0.0191 1.69732,-0.0225 1.63094,-0.0663 1.56768,-0.10793 1.50744,-0.14761 1.4500997,-0.18536 1.39558,-0.22129 1.34379,-0.25537 1.29463,-0.28776 1.248,-0.31846 1.20383,-0.34753 1.16201,-0.37506 1.12246998,-0.40109 1.08511,-0.42566 1.04986002,-0.44885 1.01663,-0.47069 0.98534,-0.49124 0.95591,-0.51058 0.92825,-0.5287 1.7803,-1.1073 1.68918,-1.16682 1.6096603,-1.21853 1.5406,-1.26313 1.48098,-1.30133 1.42975,-1.33368 1.38596,-1.36085 1.34868,-1.38335 1.31705,-1.40173 2.55773,-2.84454 2.47924,-2.88021 2.41938,-2.89837 2.3687,-2.90409 2.31938,-2.90149 2.26502,-2.89348 2.20077,-2.881897 2.12331,-2.867553 2.03066,-2.850945 0.97553,-1.419044 0.94625,-1.415131 0.91492,-1.411926 0.88154,-1.409874 0.84623,-1.40947 0.80903,-1.411316 0.77006,-1.416061 0.72947,-1.424469 0.68739,-1.437332 0.64404,-1.455559 0.5996,-1.48011 0.55431,-1.512032 0.50844,-1.552444 0.46225,-1.602547 0.41608,-1.663612 0.37024,-1.736985 0.32509,-1.824104 0.14594,-0.949409 0.13508,-0.977036 0.12443,-1.00679 0.11399,-1.038818 0.10382,-1.073197 0.0939,-1.11005 0.0843,-1.149475 0.0751,-1.191601 0.0662,-1.236526 0.0577,-1.284382 0.0497,-1.335285 0.0422,-1.389351 0.0351,-1.446713 0.0286,-1.507488 0.0226,-1.571819 0.0173,-1.639828 0.0126,-1.711655 0.009,-1.78743 0.005,-1.867294 0.003,-1.951397 10e-4,-2.039871 1.5e-4,-2.132874 -0.007,-1.365154 -0.0196,-1.338703 -0.0783,-2.598673 -0.12947,-2.495584 -0.17929,-2.395804 -0.22725,-2.300455 -0.27293,-2.21056 -0.31592,-2.127046 -0.35586,-2.050736 -0.39249,-1.982319 -0.4255,-1.922361 -0.45475,-1.871277 -0.48006,-1.8293303 -1.02,-3.5698805 -1.073,-3.512514 -1.09436,-3.5256144 -1.08537,-3.6045913 -0.53033,-1.8508259 -0.51768,-1.8921578 -0.5021,-1.9391378 -0.48397,-1.990587 -0.46386,-2.045048 -0.44234,-2.100815 -0.42015,-2.155928 -0.39796,-2.20841 -0.37643,-2.256519 -0.35609,-2.298783 -0.33738,-2.334011 -0.32061,-2.361303 -0.59986,-4.769852 -0.56019,-4.773632 -0.53744,-4.711464 -0.26412,-2.315685 -0.26217,-2.282818 -0.26036,-2.247299 -0.25823,-2.210487 -0.25534,-2.17355 -0.25138,-2.137402 -0.24612,-2.102752 -0.23939,-2.070103 -0.23108,-2.039772 -0.2211,-2.012062 -0.4052,-3.952934 -0.34327,-3.880623 -0.26531,-3.839035 -0.17082,-3.830719 -0.045,-1.922623 -0.0155,-1.932686 0.0155,-1.946281 0.0481,-1.963028 0.082,-1.98246 0.11683,-2.004097 0.15248,-2.02739 0.1886,-2.05173 0.14158,-1.982164 0.0283,-1.986994 -0.0851,-1.98539 -0.19817,-1.9773 -0.31062,-1.96278 -0.42205,-1.94187 -0.53212,-1.91464 -0.64045,-1.88118 -0.74669,-1.84158 -0.85051,-1.79601 -0.95156,-1.74456 -1.04951,-1.68747 -1.14404,-1.62486 -1.23484,-1.55697 -1.32164,-1.48401 -1.40412,-1.40621 -1.48203,-1.32384 -1.55513,-1.23716 -1.62315,-1.14647 -1.6859,-1.05202 -1.74315,-0.95415 -1.79473,-0.85319 -1.84048,-0.74944 -1.88021,-0.64325 -1.9138503,-0.53497 -1.94124,-0.42494 -1.96232,-0.31354 -1.977,-0.20113 -1.98526,-0.088 -1.98704002,0.0253 -1.98236998,0.13862 -1.97123,0.25145 -1.95369,0.36348 -1.92977,0.47431 -1.8995897,0.58358 -1.8632,0.69098 -1.82077,0.79611 -1.7724,0.89867 -1.71826,0.99829 -1.65852,1.09467 -1.5934,1.18747 -1.52307,1.27641 -1.44781,1.3612 -1.36781,1.44156 -1.28337,1.51722 -1.19474,1.58794 -1.10224,1.6535 -1.00614,1.71368 -0.90677,1.76827 -0.80445,1.8171 -0.69949,1.86003 -0.59228,1.89689 -0.48313,1.92758 -0.37241,1.952 -0.26047,1.97006 -0.14769,1.98172 -0.0344,1.9869 0.079,1.985628 0.19207,1.97791 0.30455,1.963729 0.41607,1.943161 0.47236,2.01387 0.44265,2.049675 z"
       style="fill:none;fill-rule:evenodd;stroke:#191919;stroke-width:0.34999999;stroke-miterlimit:4;stroke-dasharray:none"
       inkscape:connector-curvature="0"
       sodipodi:nodetypes="ccccccccccccccccccccccccccccccccccccccccccccccccccccccccccccccccccccccccccccccccccccccccccccccccccccccccccccccccccccccccccccccccccccccccccccccccccccccccccccccccccccccccccccccccccccccccccccccccccccccccccccccccccccccccccccccccccccccccccccccccccccccccccccccccccccccccccccccccccccccccccccccccccccccccccccccccccccc" />
    <title
       id="title620">insole43002 (Solid)</title>
  </g>
</svg>
