  0
SECTION
  2
HEADER
  9
$ACADVER
  1
AC1014
  9
$HANDSEED
  5
FFFF
  9
$MEASUREMENT
 70
     1
  0
ENDSEC
  0
SECTION
  2
TABLES
  0
TABLE
  2
VPORT
  5
8
330
0
100
AcDbSymbolTable
 70
     4
  0
VPORT
  5
2E
330
8
100
AcDbSymbolTableRecord
100
AcDbViewportTableRecord
  2
*ACTIVE
 70
     0
 10
0.0
 20
0.0
 11
1.0
 21
1.0
 12
210.0
 22
148.5
 13
0.0
 23
0.0
 14
10.0
 24
10.0
 15
10.0
 25
10.0
 16
0.0
 26
0.0
 36
1.0
 17
0.0
 27
0.0
 37
0.0
 40
341.0
 41
1.24
 42
50.0
 43
0.0
 44
0.0
 50
0.0
 51
0.0
 71
     0
 72
   100
 73
     1
 74
     3
 75
     0
 76
     0
 77
     0
 78
     0
  0
ENDTAB
  0
TABLE
  2
LTYPE
  5
5
330
0
100
AcDbSymbolTable
 70
     1
  0
LTYPE
  5
14
330
5
100
AcDbSymbolTableRecord
100
AcDbLinetypeTableRecord
  2
BYBLOCK
 70
     0
  3

 72
    65
 73
     0
 40
0.0
  0
LTYPE
  5
15
330
5
100
AcDbSymbolTableRecord
100
AcDbLinetypeTableRecord
  2
BYLAYER
 70
     0
  3

 72
    65
 73
     0
 40
0.0
  0
LTYPE
  5
16
330
5
100
AcDbSymbolTableRecord
100
AcDbLinetypeTableRecord
  2
CONTINUOUS
 70
     0
  3
Solid line
 72
    65
 73
     0
 40
0.0
  0
ENDTAB
  0
TABLE
  2
LAYER
  5
2
100
AcDbSymbolTable
 70
1
  0
LAYER
  5
50
100
AcDbSymbolTableRecord
100
AcDbLayerTableRecord
  2
0
 70
0
  6
CONTINUOUS
  0
ENDTAB
  0
TABLE
  2
STYLE
  5
3
330
0
100
AcDbSymbolTable
 70
     1
  0
STYLE
  5
11
330
3
100
AcDbSymbolTableRecord
100
AcDbTextStyleTableRecord
  2
STANDARD
 70
     0
 40
0.0
 41
1.0
 50
0.0
 71
     0
 42
2.5
  3
txt
  4

  0
ENDTAB
  0
TABLE
  2
VIEW
  5
6
330
0
100
AcDbSymbolTable
 70
     0
  0
ENDTAB
  0
TABLE
  2
UCS
  5
7
330
0
100
AcDbSymbolTable
 70
     0
  0
ENDTAB
  0
TABLE
  2
APPID
  5
9
330
0
100
AcDbSymbolTable
 70
     2
  0
APPID
  5
12
330
9
100
AcDbSymbolTableRecord
100
AcDbRegAppTableRecord
  2
ACAD
 70
     0
  0
ENDTAB
  0
TABLE
  2
DIMSTYLE
  5
A
330
0
100
AcDbSymbolTable
 70
     1
  0
DIMSTYLE
105
27
330
A
100
AcDbSymbolTableRecord
100
AcDbDimStyleTableRecord
  2
ISO-25
 70
     0
  3

  4

  5

  6

  7

 40
1.0
 41
2.5
 42
0.625
 43
3.75
 44
1.25
 45
0.0
 46
0.0
 47
0.0
 48
0.0
140
2.5
141
2.5
142
0.0
143
0.03937007874016
144
1.0
145
0.0
146
1.0
147
0.625
 71
     0
 72
     0
 73
     0
 74
     0
 75
     0
 76
     0
 77
     1
 78
     8
170
     0
171
     3
172
     1
173
     0
174
     0
175
     0
176
     0
177
     0
178
     0
270
     2
271
     2
272
     2
273
     2
274
     3
340
11
275
     0
280
     0
281
     0
282
     0
283
     0
284
     8
285
     0
286
     0
287
     3
288
     0
  0
ENDTAB
  0
TABLE
  2
BLOCK_RECORD
  5
1
330
0
100
AcDbSymbolTable
 70
     1
  0
BLOCK_RECORD
  5
1F
330
1
100
AcDbSymbolTableRecord
100
AcDbBlockTableRecord
  2
*MODEL_SPACE
  0
BLOCK_RECORD
  5
1B
330
1
100
AcDbSymbolTableRecord
100
AcDbBlockTableRecord
  2
*PAPER_SPACE
  0
ENDTAB
  0
ENDSEC
  0
SECTION
  2
BLOCKS
  0
BLOCK
  5
20
330
1F
100
AcDbEntity
  8
0
100
AcDbBlockBegin
  2
*MODEL_SPACE
 70
     0
 10
0.0
 20
0.0
 30
0.0
  3
*MODEL_SPACE
  1

  0
ENDBLK
  5
21
330
1F
100
AcDbEntity
  8
0
100
AcDbBlockEnd
  0
BLOCK
  5
1C
330
1B
100
AcDbEntity
 67
     1
  8
0
100
AcDbBlockBegin
  2
*PAPER_SPACE
  1

  0
ENDBLK
  5
1D
330
1B
100
AcDbEntity
 67
     1
  8
0
100
AcDbBlockEnd
  0
ENDSEC
  0
SECTION
  2
ENTITIES
  0
LWPOLYLINE
  5
100
100
AcDbEntity
  8
0
 62
1
100
AcDbPolyline
 90
319
 70
1
 10
16.895135
 20
33.317291
 30
0.0
 10
16.637420
 20
31.837493
 30
0.0
 10
16.468553
 20
30.344955
 30
0.0
 10
16.389133
 20
28.844993
 30
0.0
 10
16.399443
 20
27.342964
 30
0.0
 10
16.499453
 20
25.844230
 30
0.0
 10
16.688805
 20
24.354148
 30
0.0
 10
16.966819
 20
22.878036
 30
0.0
 10
17.332503
 20
21.421157
 30
0.0
 10
17.784552
 20
19.988731
 30
0.0
 10
18.321351
 20
18.585861
 30
0.0
 10
18.940986
 20
17.217559
 30
0.0
 10
19.641240
 20
15.888709
 30
0.0
 10
20.419614
 20
14.604057
 30
0.0
 10
21.273331
 20
13.368186
 30
0.0
 10
22.199340
 20
12.185516
 30
0.0
 10
23.194340
 20
11.060272
 30
0.0
 10
24.254770
 20
9.996457
 30
0.0
 10
25.376840
 20
8.997897
 30
0.0
 10
26.556560
 20
8.068117
 30
0.0
 10
27.789710
 20
7.210477
 30
0.0
 10
29.071880
 20
6.428023
 30
0.0
 10
30.398490
 20
5.723533
 30
0.0
 10
31.764820
 20
5.099553
 30
0.0
 10
33.165970
 20
4.558293
 30
0.0
 10
34.596960
 20
4.101693
 30
0.0
 10
36.052660
 20
3.731373
 30
0.0
 10
37.527880
 20
3.448663
 30
0.0
 10
39.017350
 20
3.254573
 30
0.0
 10
40.515760
 20
3.149803
 30
0.0
 10
42.017750
 20
3.134703
 30
0.0
 10
43.517960
 20
3.209303
 30
0.0
 10
45.011030
 20
3.373433
 30
0.0
 10
46.491630
 20
3.626433
 30
0.0
 10
47.954480
 20
3.967423
 30
0.0
 10
49.394350
 20
4.395183
 30
0.0
 10
50.806100
 20
4.908173
 30
0.0
 10
52.184690
 20
5.504573
 30
0.0
 10
53.525200
 20
6.182243
 30
0.0
 10
54.822830
 20
6.938787
 30
0.0
 10
56.072960
 20
7.771477
 30
0.0
 10
57.271130
 20
8.677347
 30
0.0
 10
58.413040
 20
9.653167
 30
0.0
 10
59.494640
 20
10.695455
 30
0.0
 10
60.512040
 20
11.800481
 30
0.0
 10
61.461630
 20
12.964300
 30
0.0
 10
62.340010
 20
14.182760
 30
0.0
 10
63.144050
 20
15.451513
 30
0.0
 10
63.870870
 20
16.766019
 30
0.0
 10
64.517870
 20
18.121595
 30
0.0
 10
65.082750
 20
19.513395
 30
0.0
 10
65.563500
 20
20.936452
 30
0.0
 10
65.958380
 20
22.385686
 30
0.0
 10
66.266000
 20
23.855909
 30
0.0
 10
66.485260
 20
25.341886
 30
0.0
 10
66.615370
 20
26.838308
 30
0.0
 10
66.655870
 20
28.339826
 30
0.0
 10
66.606570
 20
29.841085
 30
0.0
 10
66.467730
 20
31.336721
 30
0.0
 10
66.281690
 20
32.960012
 30
0.0
 10
66.124990
 20
34.563810
 30
0.0
 10
65.996630
 20
36.149915
 30
0.0
 10
65.895640
 20
37.720113
 30
0.0
 10
65.821040
 20
39.276197
 30
0.0
 10
65.771840
 20
40.819959
 30
0.0
 10
65.747040
 20
42.353185
 30
0.0
 10
65.746040
 20
43.877683
 30
0.0
 10
65.809340
 20
46.907758
 30
0.0
 10
65.949040
 20
49.935113
 30
0.0
 10
66.151650
 20
52.985788
 30
0.0
 10
66.406160
 20
56.080972
 30
0.0
 10
66.701570
 20
59.241872
 30
0.0
 10
66.861180
 20
60.853589
 30
0.0
 10
67.026880
 20
62.489686
 30
0.0
 10
67.197220
 20
64.153078
 30
0.0
 10
67.371170
 20
65.845674
 30
0.0
 10
67.548880
 20
67.566415
 30
0.0
 10
67.730570
 20
69.314065
 30
0.0
 10
67.916440
 20
71.087388
 30
0.0
 10
68.106710
 20
72.885145
 30
0.0
 10
68.501390
 20
76.548751
 30
0.0
 10
68.925140
 20
80.272012
 30
0.0
 10
69.394260
 20
84.001027
 30
0.0
 10
69.650320
 20
85.851777
 30
0.0
 10
69.923120
 20
87.684865
 30
0.0
 10
70.214450
 20
89.493925
 30
0.0
 10
70.526110
 20
91.272591
 30
0.0
 10
70.859920
 20
93.014443
 30
0.0
 10
71.217190
 20
94.713596
 30
0.0
 10
71.596500
 20
96.369548
 30
0.0
 10
71.995890
 20
97.983083
 30
0.0
 10
72.413370
 20
99.554982
 30
0.0
 10
72.846970
 20
101.086026
 30
0.0
 10
73.294690
 20
102.576998
 30
0.0
 10
73.754500
 20
104.028734
 30
0.0
 10
74.222290
 20
105.444916
 30
0.0
 10
74.694050
 20
106.832311
 30
0.0
 10
75.636010
 20
109.547743
 30
0.0
 10
76.553380
 20
112.229038
 30
0.0
 10
77.419180
 20
114.930203
 30
0.0
 10
77.824300
 20
116.305114
 30
0.0
 10
78.206450
 20
117.706134
 30
0.0
 10
78.562890
 20
119.143985
 30
0.0
 10
78.891200
 20
120.625862
 30
0.0
 10
79.188980
 20
122.158469
 30
0.0
 10
79.453830
 20
123.748517
 30
0.0
 10
79.683350
 20
125.402713
 30
0.0
 10
79.875150
 20
127.127765
 30
0.0
 10
80.026820
 20
128.930383
 30
0.0
 10
80.086920
 20
129.862770
 30
0.0
 10
80.136320
 20
130.816068
 30
0.0
 10
80.174920
 20
131.790418
 30
0.0
 10
80.202620
 20
132.786050
 30
0.0
 10
80.219320
 20
133.803195
 30
0.0
 10
80.225320
 20
134.842082
 30
0.0
 10
80.225260
 20
135.852252
 30
0.0
 10
80.225020
 20
136.838735
 30
0.0
 10
80.224560
 20
137.801992
 30
0.0
 10
80.223800
 20
138.742484
 30
0.0
 10
80.220800
 20
140.557023
 30
0.0
 10
80.215800
 20
142.286043
 30
0.0
 10
80.208800
 20
143.933233
 30
0.0
 10
80.198800
 20
145.502283
 30
0.0
 10
80.185400
 20
146.996885
 30
0.0
 10
80.168100
 20
148.420724
 30
0.0
 10
80.146400
 20
149.777498
 30
0.0
 10
80.119800
 20
151.070894
 30
0.0
 10
80.087700
 20
152.304601
 30
0.0
 10
80.049700
 20
153.482313
 30
0.0
 10
80.005300
 20
154.607648
 30
0.0
 10
79.954200
 20
155.683389
 30
0.0
 10
79.896300
 20
156.711828
 30
0.0
 10
79.831400
 20
157.695253
 30
0.0
 10
79.759500
 20
158.635953
 30
0.0
 10
79.680400
 20
159.536226
 30
0.0
 10
79.594000
 20
160.398351
 30
0.0
 10
79.500200
 20
161.224630
 30
0.0
 10
79.398860
 20
162.017347
 30
0.0
 10
79.289880
 20
162.778795
 30
0.0
 10
79.173140
 20
163.511262
 30
0.0
 10
79.048510
 20
164.217039
 30
0.0
 10
78.915880
 20
164.898420
 30
0.0
 10
78.775130
 20
165.557691
 30
0.0
 10
78.468930
 20
166.818891
 30
0.0
 10
78.129890
 20
168.014509
 30
0.0
 10
77.757860
 20
169.154199
 30
0.0
 10
77.352630
 20
170.247434
 30
0.0
 10
76.914020
 20
171.303693
 30
0.0
 10
76.441790
 20
172.332448
 30
0.0
 10
75.935770
 20
173.343183
 30
0.0
 10
75.395710
 20
174.344587
 30
0.0
 10
74.822190
 20
175.340078
 30
0.0
 10
74.216700
 20
176.331083
 30
0.0
 10
73.580710
 20
177.319051
 30
0.0
 10
72.915750
 20
178.305433
 30
0.0
 10
72.223280
 20
179.291662
 30
0.0
 10
71.504830
 20
180.279195
 30
0.0
 10
70.761870
 20
181.269468
 30
0.0
 10
69.208750
 20
183.263448
 30
0.0
 10
67.579610
 20
185.272397
 30
0.0
 10
65.885620
 20
187.291234
 30
0.0
 10
64.136340
 20
189.316396
 30
0.0
 10
62.341310
 20
191.344304
 30
0.0
 10
60.510210
 20
193.371457
 30
0.0
 10
58.647610
 20
195.391096
 30
0.0
 10
56.743150
 20
197.387815
 30
0.0
 10
54.784310
 20
199.345029
 30
0.0
 10
53.780590
 20
200.303632
 30
0.0
 10
52.758610
 20
201.246122
 30
0.0
 10
51.716100
 20
202.169515
 30
0.0
 10
50.647010
 20
203.069967
 30
0.0
 10
49.544420
 20
203.943685
 30
0.0
 10
48.401390
 20
204.786878
 30
0.0
 10
47.211010
 20
205.595777
 30
0.0
 10
45.966350
 20
206.366598
 30
0.0
 10
44.660470
 20
207.095543
 30
0.0
 10
43.285460
 20
207.779403
 30
0.0
 10
42.567850
 20
208.103003
 30
0.0
 10
41.827540
 20
208.413103
 30
0.0
 10
41.062520
 20
208.708793
 30
0.0
 10
40.270820
 20
208.989103
 30
0.0
 10
39.450450
 20
209.253113
 30
0.0
 10
38.599420
 20
209.499873
 30
0.0
 10
37.715750
 20
209.728433
 30
0.0
 10
36.797450
 20
209.937863
 30
0.0
 10
35.842530
 20
210.127203
 30
0.0
 10
34.849020
 20
210.295523
 30
0.0
 10
33.814910
 20
210.441883
 30
0.0
 10
32.738220
 20
210.565313
 30
0.0
 10
31.616180
 20
210.664113
 30
0.0
 10
30.445980
 20
210.736613
 30
0.0
 10
29.225100
 20
210.781213
 30
0.0
 10
27.951010
 20
210.796413
 30
0.0
 10
27.010090
 20
210.792413
 30
0.0
 10
26.093130
 20
210.780513
 30
0.0
 10
25.200060
 20
210.759713
 30
0.0
 10
24.330780
 20
210.729113
 30
0.0
 10
23.485210
 20
210.688013
 30
0.0
 10
22.663270
 20
210.635413
 30
0.0
 10
21.864873
 20
210.570613
 30
0.0
 10
21.089937
 20
210.492713
 30
0.0
 10
20.338377
 20
210.400913
 30
0.0
 10
19.610109
 20
210.294443
 30
0.0
 10
18.905050
 20
210.172413
 30
0.0
 10
18.223116
 20
210.034013
 30
0.0
 10
17.564224
 20
209.878413
 30
0.0
 10
16.928287
 20
209.704793
 30
0.0
 10
16.315225
 20
209.512303
 30
0.0
 10
15.724577
 20
209.300773
 30
0.0
 10
15.154851
 20
209.070543
 30
0.0
 10
14.604974
 20
208.820133
 30
0.0
 10
14.073907
 20
208.548003
 30
0.0
 10
13.560606
 20
208.252603
 30
0.0
 10
13.064027
 20
207.932363
 30
0.0
 10
12.583131
 20
207.585743
 30
0.0
 10
12.116876
 20
207.211203
 30
0.0
 10
11.664218
 20
206.807173
 30
0.0
 10
11.224017
 20
206.372109
 30
0.0
 10
10.795430
 20
205.904458
 30
0.0
 10
10.377314
 20
205.402665
 30
0.0
 10
9.969031
 20
204.864060
 30
0.0
 10
9.570887
 20
204.285455
 30
0.0
 10
9.183055
 20
203.665559
 30
0.0
 10
8.805701
 20
203.003083
 30
0.0
 10
8.438986
 20
202.296777
 30
0.0
 10
8.083087
 20
201.545350
 30
0.0
 10
7.738158
 20
200.747537
 30
0.0
 10
7.404372
 20
199.902070
 30
0.0
 10
7.081896
 20
199.007661
 30
0.0
 10
6.770892
 20
198.063058
 30
0.0
 10
6.471530
 20
197.066972
 30
0.0
 10
6.183974
 20
196.018144
 30
0.0
 10
5.908389
 20
194.915284
 30
0.0
 10
5.644946
 20
193.757134
 30
0.0
 10
5.393805
 20
192.542436
 30
0.0
 10
5.155146
 20
191.270783
 30
0.0
 10
4.928904
 20
189.941567
 30
0.0
 10
4.714957
 20
188.553750
 30
0.0
 10
4.513175
 20
187.106294
 30
0.0
 10
4.323428
 20
185.598153
 30
0.0
 10
4.145587
 20
184.028298
 30
0.0
 10
3.979521
 20
182.395677
 30
0.0
 10
3.825106
 20
180.699250
 30
0.0
 10
3.682212
 20
178.937989
 30
0.0
 10
3.550704
 20
177.110841
 30
0.0
 10
3.430461
 20
175.216767
 30
0.0
 10
3.321349
 20
173.254723
 30
0.0
 10
3.223239
 20
171.223679
 30
0.0
 10
3.136009
 20
169.122594
 30
0.0
 10
3.059519
 20
166.950421
 30
0.0
 10
2.993649
 20
164.706120
 30
0.0
 10
2.938259
 20
162.388650
 30
0.0
 10
2.893239
 20
159.996976
 30
0.0
 10
2.858449
 20
157.530053
 30
0.0
 10
2.833759
 20
154.986844
 30
0.0
 10
2.819039
 20
152.366303
 30
0.0
 10
2.814139
 20
149.667394
 30
0.0
 10
2.825809
 20
148.629689
 30
0.0
 10
2.860539
 20
147.607957
 30
0.0
 10
2.917879
 20
146.601720
 30
0.0
 10
2.997389
 20
145.610497
 30
0.0
 10
3.098619
 20
144.633809
 30
0.0
 10
3.221128
 20
143.671174
 30
0.0
 10
3.364469
 20
142.722112
 30
0.0
 10
3.528204
 20
141.786137
 30
0.0
 10
3.711882
 20
140.862779
 30
0.0
 10
3.915068
 20
139.951550
 30
0.0
 10
4.378164
 20
138.163560
 30
0.0
 10
4.913950
 20
136.418326
 30
0.0
 10
5.518866
 20
134.712001
 30
0.0
 10
6.189001
 20
133.039969
 30
0.0
 10
6.917883
 20
131.396418
 30
0.0
 10
7.697943
 20
129.776919
 30
0.0
 10
8.521601
 20
128.177098
 30
0.0
 10
9.381288
 20
126.592585
 30
0.0
 10
10.269432
 20
125.019009
 30
0.0
 10
12.100775
 20
121.887171
 30
0.0
 10
13.955042
 20
118.746606
 30
0.0
 10
14.871834
 20
117.162121
 30
0.0
 10
15.771633
 20
115.562338
 30
0.0
 10
16.645979
 20
113.942555
 30
0.0
 10
17.485508
 20
112.298835
 30
0.0
 10
18.284698
 20
110.629876
 30
0.0
 10
19.038288
 20
108.934518
 30
0.0
 10
19.741016
 20
107.211600
 30
0.0
 10
20.387619
 20
105.459960
 30
0.0
 10
20.972834
 20
103.678437
 30
0.0
 10
21.491758
 20
101.866494
 30
0.0
 10
21.944202
 20
100.026728
 30
0.0
 10
22.333260
 20
98.161758
 30
0.0
 10
22.662070
 20
96.274108
 30
0.0
 10
22.933810
 20
94.366303
 30
0.0
 10
23.151630
 20
92.440867
 30
0.0
 10
23.318680
 20
90.500327
 30
0.0
 10
23.438130
 20
88.547204
 30
0.0
 10
23.513130
 20
86.584033
 30
0.0
 10
23.550430
 20
84.613990
 30
0.0
 10
23.555430
 20
82.639472
 30
0.0
 10
23.529830
 20
80.662188
 30
0.0
 10
23.476130
 20
78.683852
 30
0.0
 10
23.396630
 20
76.706172
 30
0.0
 10
23.293580
 20
74.730863
 30
0.0
 10
23.026040
 20
70.794186
 30
0.0
 10
22.691450
 20
66.887669
 30
0.0
 10
22.298860
 20
63.025380
 30
0.0
 10
21.850018
 20
59.217156
 30
0.0
 10
21.346772
 20
55.471944
 30
0.0
 10
21.075325
 20
53.625760
 30
0.0
 10
20.790968
 20
51.798688
 30
0.0
 10
20.493935
 20
49.991837
 30
0.0
 10
20.184452
 20
48.206334
 30
0.0
 10
19.862755
 20
46.443292
 30
0.0
 10
19.528944
 20
44.703763
 30
0.0
 10
19.182019
 20
42.988030
 30
0.0
 10
18.821566
 20
41.296388
 30
0.0
 10
18.447424
 20
39.629228
 30
0.0
 10
18.059424
 20
37.986962
 30
0.0
 10
17.657395
 20
36.369973
 30
0.0
 10
17.241173
 20
34.778664
 30
0.0
  0
ENDSEC
  0
SECTION
  2
OBJECTS
  0
DICTIONARY
  5
C
330
0
100
AcDbDictionary
  3
ACAD_GROUP
350
D
  3
ACAD_MLINESTYLE
350
17
  0
DICTIONARY
  5
D
330
C
100
AcDbDictionary
  0
DICTIONARY
  5
1A
330
C
100
AcDbDictionary
  0
DICTIONARY
  5
17
330
C
100
AcDbDictionary
  3
STANDARD
350
18
  0
DICTIONARY
  5
19
330
C
100
AcDbDictionary
  0
ENDSEC
  0
EOF
