  0
SECTION
  2
HEADER
  9
$ACADVER
  1
AC1014
  9
$HANDSEED
  5
FFFF
  9
$MEASUREMENT
 70
     1
  0
ENDSEC
  0
SECTION
  2
TABLES
  0
TABLE
  2
VPORT
  5
8
330
0
100
AcDbSymbolTable
 70
     4
  0
VPORT
  5
2E
330
8
100
AcDbSymbolTableRecord
100
AcDbViewportTableRecord
  2
*ACTIVE
 70
     0
 10
0.0
 20
0.0
 11
1.0
 21
1.0
 12
210.0
 22
148.5
 13
0.0
 23
0.0
 14
10.0
 24
10.0
 15
10.0
 25
10.0
 16
0.0
 26
0.0
 36
1.0
 17
0.0
 27
0.0
 37
0.0
 40
341.0
 41
1.24
 42
50.0
 43
0.0
 44
0.0
 50
0.0
 51
0.0
 71
     0
 72
   100
 73
     1
 74
     3
 75
     0
 76
     0
 77
     0
 78
     0
  0
ENDTAB
  0
TABLE
  2
LTYPE
  5
5
330
0
100
AcDbSymbolTable
 70
     1
  0
LTYPE
  5
14
330
5
100
AcDbSymbolTableRecord
100
AcDbLinetypeTableRecord
  2
BYBLOCK
 70
     0
  3

 72
    65
 73
     0
 40
0.0
  0
LTYPE
  5
15
330
5
100
AcDbSymbolTableRecord
100
AcDbLinetypeTableRecord
  2
BYLAYER
 70
     0
  3

 72
    65
 73
     0
 40
0.0
  0
LTYPE
  5
16
330
5
100
AcDbSymbolTableRecord
100
AcDbLinetypeTableRecord
  2
CONTINUOUS
 70
     0
  3
Solid line
 72
    65
 73
     0
 40
0.0
  0
ENDTAB
  0
TABLE
  2
LAYER
  5
2
100
AcDbSymbolTable
 70
1
  0
LAYER
  5
50
100
AcDbSymbolTableRecord
100
AcDbLayerTableRecord
  2
0
 70
0
  6
CONTINUOUS
  0
ENDTAB
  0
TABLE
  2
STYLE
  5
3
330
0
100
AcDbSymbolTable
 70
     1
  0
STYLE
  5
11
330
3
100
AcDbSymbolTableRecord
100
AcDbTextStyleTableRecord
  2
STANDARD
 70
     0
 40
0.0
 41
1.0
 50
0.0
 71
     0
 42
2.5
  3
txt
  4

  0
ENDTAB
  0
TABLE
  2
VIEW
  5
6
330
0
100
AcDbSymbolTable
 70
     0
  0
ENDTAB
  0
TABLE
  2
UCS
  5
7
330
0
100
AcDbSymbolTable
 70
     0
  0
ENDTAB
  0
TABLE
  2
APPID
  5
9
330
0
100
AcDbSymbolTable
 70
     2
  0
APPID
  5
12
330
9
100
AcDbSymbolTableRecord
100
AcDbRegAppTableRecord
  2
ACAD
 70
     0
  0
ENDTAB
  0
TABLE
  2
DIMSTYLE
  5
A
330
0
100
AcDbSymbolTable
 70
     1
  0
DIMSTYLE
105
27
330
A
100
AcDbSymbolTableRecord
100
AcDbDimStyleTableRecord
  2
ISO-25
 70
     0
  3

  4

  5

  6

  7

 40
1.0
 41
2.5
 42
0.625
 43
3.75
 44
1.25
 45
0.0
 46
0.0
 47
0.0
 48
0.0
140
2.5
141
2.5
142
0.0
143
0.03937007874016
144
1.0
145
0.0
146
1.0
147
0.625
 71
     0
 72
     0
 73
     0
 74
     0
 75
     0
 76
     0
 77
     1
 78
     8
170
     0
171
     3
172
     1
173
     0
174
     0
175
     0
176
     0
177
     0
178
     0
270
     2
271
     2
272
     2
273
     2
274
     3
340
11
275
     0
280
     0
281
     0
282
     0
283
     0
284
     8
285
     0
286
     0
287
     3
288
     0
  0
ENDTAB
  0
TABLE
  2
BLOCK_RECORD
  5
1
330
0
100
AcDbSymbolTable
 70
     1
  0
BLOCK_RECORD
  5
1F
330
1
100
AcDbSymbolTableRecord
100
AcDbBlockTableRecord
  2
*MODEL_SPACE
  0
BLOCK_RECORD
  5
1B
330
1
100
AcDbSymbolTableRecord
100
AcDbBlockTableRecord
  2
*PAPER_SPACE
  0
ENDTAB
  0
ENDSEC
  0
SECTION
  2
BLOCKS
  0
BLOCK
  5
20
330
1F
100
AcDbEntity
  8
0
100
AcDbBlockBegin
  2
*MODEL_SPACE
 70
     0
 10
0.0
 20
0.0
 30
0.0
  3
*MODEL_SPACE
  1

  0
ENDBLK
  5
21
330
1F
100
AcDbEntity
  8
0
100
AcDbBlockEnd
  0
BLOCK
  5
1C
330
1B
100
AcDbEntity
 67
     1
  8
0
100
AcDbBlockBegin
  2
*PAPER_SPACE
  1

  0
ENDBLK
  5
1D
330
1B
100
AcDbEntity
 67
     1
  8
0
100
AcDbBlockEnd
  0
ENDSEC
  0
SECTION
  2
ENTITIES
  0
LWPOLYLINE
  5
100
100
AcDbEntity
  8
0
 62
1
100
AcDbPolyline
 90
308
 70
1
 10
21.505167
 20
41.981844
 30
0.0
 10
21.213917
 20
40.067305
 30
0.0
 10
21.036067
 20
38.138918
 30
0.0
 10
20.972267
 20
36.203407
 30
0.0
 10
21.022667
 20
34.267487
 30
0.0
 10
21.187137
 20
32.337917
 30
0.0
 10
21.465087
 20
30.421387
 30
0.0
 10
21.855567
 20
28.524587
 30
0.0
 10
22.357207
 20
26.654117
 30
0.0
 10
22.968257
 20
24.816487
 30
0.0
 10
23.686607
 20
23.018067
 30
0.0
 10
24.509747
 20
21.265137
 30
0.0
 10
25.434817
 20
19.563797
 30
0.0
 10
26.458587
 20
17.919957
 30
0.0
 10
27.577507
 20
16.339347
 30
0.0
 10
28.787677
 20
14.827467
 30
0.0
 10
30.084897
 20
13.389577
 30
0.0
 10
31.464637
 20
12.030667
 30
0.0
 10
32.922107
 20
10.755477
 30
0.0
 10
34.452227
 20
9.568447
 30
0.0
 10
36.049677
 20
8.473697
 30
0.0
 10
37.708897
 20
7.475057
 30
0.0
 10
39.424117
 20
6.575977
 30
0.0
 10
41.189367
 20
5.779607
 30
0.0
 10
42.998497
 20
5.088707
 30
0.0
 10
44.845217
 20
4.505667
 30
0.0
 10
46.723107
 20
4.032557
 30
0.0
 10
48.625627
 20
3.670987
 30
0.0
 10
50.546157
 20
3.422217
 30
0.0
 10
52.478017
 20
3.287137
 30
0.0
 10
54.414467
 20
3.266237
 30
0.0
 10
56.348797
 20
3.359537
 30
0.0
 10
58.274257
 20
3.566707
 30
0.0
 10
60.184147
 20
3.887047
 30
0.0
 10
62.071837
 20
4.319437
 30
0.0
 10
63.930737
 20
4.862397
 30
0.0
 10
65.754387
 20
5.514007
 30
0.0
 10
67.536447
 20
6.272017
 30
0.0
 10
69.270707
 20
7.133787
 30
0.0
 10
70.951147
 20
8.096307
 30
0.0
 10
72.571897
 20
9.156247
 30
0.0
 10
74.127337
 20
10.309907
 30
0.0
 10
75.612037
 20
11.553277
 30
0.0
 10
77.020847
 20
12.882017
 30
0.0
 10
78.348857
 20
14.291527
 30
0.0
 10
79.591447
 20
15.776877
 30
0.0
 10
80.744297
 20
17.332917
 30
0.0
 10
81.803387
 20
18.954227
 30
0.0
 10
82.765037
 20
20.635157
 30
0.0
 10
83.625887
 20
22.369877
 30
0.0
 10
84.382967
 20
24.152337
 30
0.0
 10
85.033627
 20
25.976327
 30
0.0
 10
85.575607
 20
27.835517
 30
0.0
 10
86.007007
 20
29.723427
 30
0.0
 10
86.326347
 20
31.633477
 30
0.0
 10
86.532517
 20
33.559047
 30
0.0
 10
86.624817
 20
35.493417
 30
0.0
 10
86.602817
 20
37.429861
 30
0.0
 10
86.466717
 20
39.361635
 30
0.0
 10
86.275807
 20
41.444823
 30
0.0
 10
86.122237
 20
43.502982
 30
0.0
 10
86.004757
 20
45.538367
 30
0.0
 10
85.922157
 20
47.553206
 30
0.0
 10
85.873157
 20
49.549719
 30
0.0
 10
85.856557
 20
51.530142
 30
0.0
 10
85.871057
 20
53.496710
 30
0.0
 10
85.915457
 20
55.451643
 30
0.0
 10
86.087797
 20
59.337645
 30
0.0
 10
86.354887
 20
63.223334
 30
0.0
 10
86.700207
 20
67.139166
 30
0.0
 10
87.108157
 20
71.113707
 30
0.0
 10
87.563157
 20
75.175501
 30
0.0
 10
87.803427
 20
77.248045
 30
0.0
 10
88.049507
 20
79.353392
 30
0.0
 10
88.299817
 20
81.494124
 30
0.0
 10
88.553907
 20
83.669897
 30
0.0
 10
88.811387
 20
85.880228
 30
0.0
 10
89.071857
 20
88.124636
 30
0.0
 10
89.334927
 20
90.402640
 30
0.0
 10
89.600197
 20
92.713755
 30
0.0
 10
90.138157
 20
97.427157
 30
0.0
 10
90.700097
 20
102.211771
 30
0.0
 10
91.303647
 20
107.001475
 30
0.0
 10
91.966187
 20
111.730631
 30
0.0
 10
92.325027
 20
114.051991
 30
0.0
 10
92.705137
 20
116.333598
 30
0.0
 10
93.108847
 20
118.566719
 30
0.0
 10
93.536177
 20
120.747807
 30
0.0
 10
93.985717
 20
122.876594
 30
0.0
 10
94.456107
 20
124.952811
 30
0.0
 10
94.945947
 20
126.976189
 30
0.0
 10
95.453847
 20
128.946462
 30
0.0
 10
95.978127
 20
130.863761
 30
0.0
 10
96.514627
 20
132.733247
 30
0.0
 10
97.059297
 20
134.562821
 30
0.0
 10
97.608257
 20
136.360322
 30
0.0
 10
98.703697
 20
139.890465
 30
0.0
 10
99.770097
 20
143.386391
 30
0.0
 10
100.776567
 20
146.911357
 30
0.0
 10
101.247627
 20
148.709022
 30
0.0
 10
101.692667
 20
150.543972
 30
0.0
 10
102.108527
 20
152.425471
 30
0.0
 10
102.492027
 20
154.362782
 30
0.0
 10
102.839987
 20
156.365168
 30
0.0
 10
103.149227
 20
158.441893
 30
0.0
 10
103.416577
 20
160.602219
 30
0.0
 10
103.638977
 20
162.854935
 30
0.0
 10
103.814427
 20
165.205138
 30
0.0
 10
103.941497
 20
167.656319
 30
0.0
 10
103.986497
 20
168.920868
 30
0.0
 10
104.018797
 20
170.211974
 30
0.0
 10
104.038297
 20
171.530074
 30
0.0
 10
104.044297
 20
172.875597
 30
0.0
 10
104.043927
 20
175.008784
 30
0.0
 10
104.041927
 20
177.049036
 30
0.0
 10
104.038927
 20
179.000155
 30
0.0
 10
104.032927
 20
180.865923
 30
0.0
 10
104.023927
 20
182.650145
 30
0.0
 10
104.011227
 20
184.356604
 30
0.0
 10
103.994127
 20
185.989100
 30
0.0
 10
103.971927
 20
187.551417
 30
0.0
 10
103.944027
 20
189.047358
 30
0.0
 10
103.909827
 20
190.480708
 30
0.0
 10
103.868627
 20
191.855261
 30
0.0
 10
103.819827
 20
193.174815
 30
0.0
 10
103.762727
 20
194.443049
 30
0.0
 10
103.697127
 20
195.662749
 30
0.0
 10
103.622827
 20
196.836298
 30
0.0
 10
103.539527
 20
197.966090
 30
0.0
 10
103.447127
 20
199.054518
 30
0.0
 10
103.345447
 20
200.103976
 30
0.0
 10
103.234257
 20
201.116858
 30
0.0
 10
103.113377
 20
202.095557
 30
0.0
 10
102.982607
 20
203.042464
 30
0.0
 10
102.841757
 20
203.959982
 30
0.0
 10
102.529047
 20
205.716399
 30
0.0
 10
102.173687
 20
207.383955
 30
0.0
 10
101.774567
 20
208.980589
 30
0.0
 10
101.331607
 20
210.517912
 30
0.0
 10
100.844767
 20
212.005522
 30
0.0
 10
100.314017
 20
213.453001
 30
0.0
 10
99.739327
 20
214.869955
 30
0.0
 10
99.120667
 20
216.265974
 30
0.0
 10
98.457997
 20
217.650633
 30
0.0
 10
97.751677
 20
219.030920
 30
0.0
 10
97.003327
 20
220.408865
 30
0.0
 10
96.214817
 20
221.786009
 30
0.0
 10
95.388027
 20
223.163908
 30
0.0
 10
94.524827
 20
224.544104
 30
0.0
 10
93.627087
 20
225.928137
 30
0.0
 10
92.696687
 20
227.317564
 30
0.0
 10
91.735517
 20
228.713919
 30
0.0
 10
89.729487
 20
231.530760
 30
0.0
 10
87.627747
 20
234.372565
 30
0.0
 10
85.443827
 20
237.233797
 30
0.0
 10
83.190807
 20
240.109557
 30
0.0
 10
80.881747
 20
242.994947
 30
0.0
 10
78.528767
 20
245.884887
 30
0.0
 10
76.128887
 20
248.765427
 30
0.0
 10
73.671047
 20
251.617257
 30
0.0
 10
71.144167
 20
254.421007
 30
0.0
 10
69.851177
 20
255.798467
 30
0.0
 10
68.533227
 20
257.154057
 30
0.0
 10
67.183417
 20
258.482567
 30
0.0
 10
65.794817
 20
259.778787
 30
0.0
 10
64.360477
 20
261.037527
 30
0.0
 10
62.873487
 20
262.253557
 30
0.0
 10
61.326907
 20
263.421677
 30
0.0
 10
59.713677
 20
264.536807
 30
0.0
 10
58.022167
 20
265.592707
 30
0.0
 10
57.141907
 20
266.095837
 30
0.0
 10
56.235877
 20
266.580987
 30
0.0
 10
55.301977
 20
267.047127
 30
0.0
 10
54.338117
 20
267.493157
 30
0.0
 10
53.342227
 20
267.918057
 30
0.0
 10
52.312217
 20
268.320717
 30
0.0
 10
51.245987
 20
268.700097
 30
0.0
 10
50.141467
 20
269.055127
 30
0.0
 10
48.996557
 20
269.384747
 30
0.0
 10
47.808957
 20
269.687797
 30
0.0
 10
46.575217
 20
269.962477
 30
0.0
 10
45.292187
 20
270.206797
 30
0.0
 10
43.956777
 20
270.418847
 30
0.0
 10
42.565887
 20
270.596687
 30
0.0
 10
41.116427
 20
270.738387
 30
0.0
 10
39.605327
 20
270.841987
 30
0.0
 10
38.029477
 20
270.905587
 30
0.0
 10
36.385787
 20
270.927187
 30
0.0
 10
35.173757
 20
270.922187
 30
0.0
 10
33.991487
 20
270.907087
 30
0.0
 10
32.838867
 20
270.880487
 30
0.0
 10
31.715757
 20
270.841287
 30
0.0
 10
30.622017
 20
270.788387
 30
0.0
 10
29.557517
 20
270.720587
 30
0.0
 10
28.522127
 20
270.636687
 30
0.0
 10
27.515707
 20
270.535597
 30
0.0
 10
26.538127
 20
270.416137
 30
0.0
 10
25.589257
 20
270.277187
 30
0.0
 10
24.668967
 20
270.117577
 30
0.0
 10
23.777107
 20
269.936187
 30
0.0
 10
22.913567
 20
269.731837
 30
0.0
 10
22.078207
 20
269.503397
 30
0.0
 10
21.270877
 20
269.249707
 30
0.0
 10
20.491087
 20
268.970267
 30
0.0
 10
19.737287
 20
268.665107
 30
0.0
 10
19.008367
 20
268.332437
 30
0.0
 10
18.303217
 20
267.970367
 30
0.0
 10
17.620767
 20
267.577027
 30
0.0
 10
16.959897
 20
267.150537
 30
0.0
 10
16.319547
 20
266.689057
 30
0.0
 10
15.698607
 20
266.190687
 30
0.0
 10
15.095997
 20
265.653547
 30
0.0
 10
14.510607
 20
265.075797
 30
0.0
 10
13.941367
 20
264.455537
 30
0.0
 10
13.387177
 20
263.790907
 30
0.0
 10
12.847347
 20
263.078907
 30
0.0
 10
12.322137
 20
262.316027
 30
0.0
 10
11.811657
 20
261.500657
 30
0.0
 10
11.316049
 20
260.631207
 30
0.0
 10
10.835408
 20
259.706067
 30
0.0
 10
10.369859
 20
258.723657
 30
0.0
 10
9.919519
 20
257.682377
 30
0.0
 10
9.484502
 20
256.580637
 30
0.0
 10
9.064927
 20
255.416847
 30
0.0
 10
8.660913
 20
254.189407
 30
0.0
 10
8.272577
 20
252.896727
 30
0.0
 10
7.900029
 20
251.537207
 30
0.0
 10
7.543390
 20
250.109267
 30
0.0
 10
7.202779
 20
248.611307
 30
0.0
 10
6.878312
 20
247.041747
 30
0.0
 10
6.570112
 20
245.399857
 30
0.0
 10
6.278074
 20
243.684727
 30
0.0
 10
6.002019
 20
241.894997
 30
0.0
 10
5.741765
 20
240.029277
 30
0.0
 10
5.497144
 20
238.086217
 30
0.0
 10
5.267968
 20
236.064482
 30
0.0
 10
5.054063
 20
233.962690
 30
0.0
 10
4.855249
 20
231.779478
 30
0.0
 10
4.671350
 20
229.513494
 30
0.0
 10
4.502187
 20
227.163366
 30
0.0
 10
4.347581
 20
224.727743
 30
0.0
 10
4.207357
 20
222.205259
 30
0.0
 10
4.081331
 20
219.594549
 30
0.0
 10
3.969327
 20
216.894254
 30
0.0
 10
3.871167
 20
214.103018
 30
0.0
 10
3.786677
 20
211.219473
 30
0.0
 10
3.715677
 20
208.242262
 30
0.0
 10
3.657977
 20
205.170019
 30
0.0
 10
3.613417
 20
202.001386
 30
0.0
 10
3.581807
 20
198.735002
 30
0.0
 10
3.562967
 20
195.369509
 30
0.0
 10
3.556767
 20
191.903536
 30
0.0
 10
3.569687
 20
190.569132
 30
0.0
 10
3.608117
 20
189.251810
 30
0.0
 10
3.671557
 20
187.951139
 30
0.0
 10
3.759537
 20
186.666689
 30
0.0
 10
4.007126
 20
184.144682
 30
0.0
 10
4.346981
 20
181.682306
 30
0.0
 10
4.775196
 20
179.276079
 30
0.0
 10
5.287861
 20
176.922514
 30
0.0
 10
5.881077
 20
174.618120
 30
0.0
 10
6.550903
 20
172.359354
 30
0.0
 10
7.291485
 20
170.140695
 30
0.0
 10
8.094631
 20
167.956791
 30
0.0
 10
8.952099
 20
165.802963
 30
0.0
 10
9.855659
 20
163.674530
 30
0.0
 10
10.797077
 20
161.566812
 30
0.0
 10
11.768117
 20
159.475128
 30
0.0
 10
13.766117
 20
155.321142
 30
0.0
 10
15.783787
 20
151.175129
 30
0.0
 10
17.755247
 20
146.999646
 30
0.0
 10
18.703007
 20
144.889139
 30
0.0
 10
19.612587
 20
142.757185
 30
0.0
 10
20.477527
 20
140.601644
 30
0.0
 10
21.293377
 20
138.421219
 30
0.0
 10
22.055687
 20
136.214613
 30
0.0
 10
22.759997
 20
133.980528
 30
0.0
 10
23.401857
 20
131.717667
 30
0.0
 10
23.976867
 20
129.424776
 30
0.0
 10
24.483877
 20
127.102401
 30
0.0
 10
24.926707
 20
124.752756
 30
0.0
 10
25.309557
 20
122.377997
 30
0.0
 10
25.636637
 20
119.980280
 30
0.0
 10
25.912127
 20
117.561758
 30
0.0
 10
26.140247
 20
115.124586
 30
0.0
 10
26.325177
 20
112.670923
 30
0.0
 10
26.471127
 20
110.202919
 30
0.0
 10
26.582287
 20
107.722730
 30
0.0
 10
26.664487
 20
105.232750
 30
0.0
 10
26.760087
 20
100.233228
 30
0.0
 10
26.772187
 20
95.221479
 30
0.0
 10
26.710287
 20
90.214083
 30
0.0
 10
26.583817
 20
85.227625
 30
0.0
 10
26.399047
 20
80.280626
 30
0.0
 10
26.149807
 20
75.391249
 30
0.0
 10
25.827837
 20
70.572943
 30
0.0
 10
25.637017
 20
68.194616
 30
0.0
 10
25.424947
 20
65.839071
 30
0.0
 10
25.190587
 20
63.507978
 30
0.0
 10
24.932917
 20
61.203001
 30
0.0
 10
24.650917
 20
58.925825
 30
0.0
 10
24.343547
 20
56.678114
 30
0.0
 10
24.009787
 20
54.461538
 30
0.0
 10
23.648457
 20
52.277502
 30
0.0
 10
23.258197
 20
50.126280
 30
0.0
 10
22.838387
 20
48.008467
 30
0.0
 10
22.388517
 20
45.924726
 30
0.0
 10
21.908037
 20
43.875707
 30
0.0
  0
ENDSEC
  0
SECTION
  2
OBJECTS
  0
DICTIONARY
  5
C
330
0
100
AcDbDictionary
  3
ACAD_GROUP
350
D
  3
ACAD_MLINESTYLE
350
17
  0
DICTIONARY
  5
D
330
C
100
AcDbDictionary
  0
DICTIONARY
  5
1A
330
C
100
AcDbDictionary
  0
DICTIONARY
  5
17
330
C
100
AcDbDictionary
  3
STANDARD
350
18
  0
DICTIONARY
  5
19
330
C
100
AcDbDictionary
  0
ENDSEC
  0
EOF
