G04 #@! TF.GenerationSoftware,KiCad,Pcbnew,(5.0.0)*
G04 #@! TF.CreationDate,2018-11-26T10:25:21+01:00*
G04 #@! TF.ProjectId,Insole_PCB,496E736F6C655F5043422E6B69636164,rev?*
G04 #@! TF.SameCoordinates,Original*
G04 #@! TF.FileFunction,Legend,Bot*
G04 #@! TF.FilePolarity,Positive*
%FSLAX46Y46*%
G04 Gerber Fmt 4.6, Leading zero omitted, Abs format (unit mm)*
G04 Created by KiCad (PCBNEW (5.0.0)) date 11/26/18 10:25:21*
%MOMM*%
%LPD*%
G01*
G04 APERTURE LIST*
%ADD10C,0.150000*%
%ADD11C,0.120000*%
%ADD12C,0.010000*%
%ADD13C,0.100000*%
G04 APERTURE END LIST*
D10*
G04 #@! TO.C,U2*
X165600000Y-78725000D02*
X161200000Y-78725000D01*
X167175000Y-73200000D02*
X161200000Y-73200000D01*
G04 #@! TO.C,U4*
X152300000Y-68925000D02*
X147900000Y-68925000D01*
X153875000Y-63400000D02*
X147900000Y-63400000D01*
G04 #@! TO.C,U3*
X153675000Y-73200000D02*
X147700000Y-73200000D01*
X152100000Y-78725000D02*
X147700000Y-78725000D01*
D11*
G04 #@! TO.C,C1*
X147410000Y-84853733D02*
X147410000Y-85196267D01*
X146390000Y-84853733D02*
X146390000Y-85196267D01*
D10*
G04 #@! TO.C,U1*
X168175000Y-63400000D02*
X162200000Y-63400000D01*
X166600000Y-68925000D02*
X162200000Y-68925000D01*
D11*
G04 #@! TO.C,C2*
X145503733Y-71010000D02*
X145846267Y-71010000D01*
X145503733Y-69990000D02*
X145846267Y-69990000D01*
G04 #@! TO.C,C4*
X152010000Y-88546267D02*
X152010000Y-88203733D01*
X150990000Y-88546267D02*
X150990000Y-88203733D01*
G04 #@! TO.C,L1*
X146513748Y-80810000D02*
X147036252Y-80810000D01*
X146513748Y-79390000D02*
X147036252Y-79390000D01*
G04 #@! TO.C,L2*
X156213748Y-73990000D02*
X156736252Y-73990000D01*
X156213748Y-75410000D02*
X156736252Y-75410000D01*
G04 #@! TO.C,L3*
X149960000Y-88836252D02*
X149960000Y-88313748D01*
X148540000Y-88836252D02*
X148540000Y-88313748D01*
G04 #@! TO.C,R4*
X155590000Y-65353733D02*
X155590000Y-65696267D01*
X156610000Y-65353733D02*
X156610000Y-65696267D01*
G04 #@! TO.C,R5*
X155690000Y-70346267D02*
X155690000Y-70003733D01*
X156710000Y-70346267D02*
X156710000Y-70003733D01*
G04 #@! TO.C,R6*
X157390000Y-70346267D02*
X157390000Y-70003733D01*
X158410000Y-70346267D02*
X158410000Y-70003733D01*
G04 #@! TO.C,R7*
X157590000Y-65353733D02*
X157590000Y-65696267D01*
X158610000Y-65353733D02*
X158610000Y-65696267D01*
D12*
G04 #@! TO.C,G\002A\002A\002A*
G36*
X156311713Y-80687372D02*
X156264605Y-80688204D01*
X156217168Y-80689587D01*
X156170283Y-80691499D01*
X156124828Y-80693918D01*
X156081683Y-80696822D01*
X156041727Y-80700189D01*
X156005838Y-80703996D01*
X155996511Y-80705154D01*
X155921924Y-80716616D01*
X155851930Y-80731217D01*
X155786393Y-80749012D01*
X155725178Y-80770059D01*
X155668148Y-80794413D01*
X155615169Y-80822131D01*
X155566104Y-80853269D01*
X155520819Y-80887883D01*
X155490270Y-80915187D01*
X155452354Y-80955173D01*
X155417924Y-80999351D01*
X155387240Y-81047283D01*
X155360561Y-81098531D01*
X155338148Y-81152654D01*
X155323793Y-81196587D01*
X155315570Y-81226553D01*
X155308676Y-81255513D01*
X155302986Y-81284403D01*
X155298373Y-81314162D01*
X155294714Y-81345727D01*
X155291883Y-81380034D01*
X155289756Y-81418021D01*
X155288206Y-81460625D01*
X155288107Y-81464145D01*
X155287396Y-81486386D01*
X155286543Y-81507609D01*
X155285596Y-81526930D01*
X155284604Y-81543461D01*
X155283616Y-81556318D01*
X155282682Y-81564613D01*
X155282488Y-81565745D01*
X155281362Y-81573785D01*
X155280740Y-81584132D01*
X155280622Y-81597553D01*
X155281003Y-81614816D01*
X155281884Y-81636689D01*
X155282269Y-81644767D01*
X155284262Y-81690894D01*
X155285982Y-81742521D01*
X155287426Y-81799509D01*
X155288594Y-81861720D01*
X155289482Y-81929016D01*
X155290091Y-82001259D01*
X155290418Y-82078310D01*
X155290461Y-82160031D01*
X155290219Y-82246283D01*
X155290015Y-82286823D01*
X155289765Y-82326616D01*
X155289464Y-82367879D01*
X155289116Y-82410241D01*
X155288726Y-82453332D01*
X155288300Y-82496785D01*
X155287842Y-82540230D01*
X155287358Y-82583297D01*
X155286853Y-82625617D01*
X155286332Y-82666822D01*
X155285800Y-82706542D01*
X155285263Y-82744409D01*
X155284724Y-82780051D01*
X155284191Y-82813102D01*
X155283667Y-82843191D01*
X155283157Y-82869950D01*
X155282668Y-82893008D01*
X155282204Y-82911998D01*
X155281770Y-82926550D01*
X155281371Y-82936294D01*
X155281013Y-82940862D01*
X155280924Y-82941159D01*
X155277575Y-82941355D01*
X155269625Y-82940374D01*
X155257952Y-82938381D01*
X155243438Y-82935544D01*
X155226961Y-82932031D01*
X155209403Y-82928008D01*
X155200645Y-82925896D01*
X155155799Y-82913574D01*
X155116203Y-82899864D01*
X155081599Y-82884626D01*
X155051733Y-82867723D01*
X155026348Y-82849014D01*
X155005189Y-82828361D01*
X154993105Y-82813166D01*
X154989926Y-82808800D01*
X154987064Y-82804899D01*
X154984476Y-82801166D01*
X154982121Y-82797301D01*
X154979954Y-82793005D01*
X154977933Y-82787980D01*
X154976015Y-82781927D01*
X154974156Y-82774547D01*
X154972315Y-82765541D01*
X154970447Y-82754611D01*
X154968510Y-82741457D01*
X154966461Y-82725780D01*
X154964256Y-82707283D01*
X154961854Y-82685666D01*
X154959211Y-82660630D01*
X154956283Y-82631877D01*
X154953029Y-82599107D01*
X154949404Y-82562022D01*
X154945367Y-82520324D01*
X154940873Y-82473713D01*
X154935880Y-82421890D01*
X154933971Y-82402097D01*
X154929642Y-82357219D01*
X154925466Y-82313902D01*
X154921473Y-82272476D01*
X154917697Y-82233273D01*
X154914169Y-82196625D01*
X154910920Y-82162861D01*
X154907983Y-82132313D01*
X154905389Y-82105312D01*
X154903170Y-82082190D01*
X154901359Y-82063276D01*
X154899986Y-82048904D01*
X154899084Y-82039403D01*
X154898684Y-82035104D01*
X154898667Y-82034880D01*
X154896007Y-82034338D01*
X154888672Y-82033700D01*
X154877628Y-82033030D01*
X154863844Y-82032389D01*
X154855628Y-82032079D01*
X154824295Y-82029901D01*
X154794810Y-82025430D01*
X154766541Y-82018368D01*
X154738859Y-82008418D01*
X154711133Y-81995281D01*
X154682732Y-81978662D01*
X154653027Y-81958261D01*
X154621388Y-81933781D01*
X154588212Y-81905823D01*
X154572013Y-81891813D01*
X154559388Y-81881180D01*
X154549735Y-81873502D01*
X154542451Y-81868359D01*
X154536933Y-81865330D01*
X154532581Y-81863993D01*
X154528791Y-81863928D01*
X154528356Y-81863985D01*
X154522402Y-81867602D01*
X154518124Y-81876326D01*
X154515631Y-81889841D01*
X154515004Y-81902358D01*
X154515198Y-81906978D01*
X154515798Y-81916899D01*
X154516778Y-81931793D01*
X154518115Y-81951333D01*
X154519785Y-81975191D01*
X154521761Y-82003040D01*
X154524021Y-82034552D01*
X154526539Y-82069400D01*
X154529292Y-82107257D01*
X154532254Y-82147795D01*
X154535401Y-82190686D01*
X154538709Y-82235603D01*
X154542153Y-82282219D01*
X154545708Y-82330206D01*
X154549351Y-82379237D01*
X154553056Y-82428985D01*
X154556800Y-82479121D01*
X154560557Y-82529319D01*
X154564304Y-82579250D01*
X154568015Y-82628589D01*
X154571667Y-82677006D01*
X154575234Y-82724175D01*
X154578693Y-82769768D01*
X154582018Y-82813458D01*
X154585186Y-82854917D01*
X154588172Y-82893818D01*
X154590951Y-82929834D01*
X154593499Y-82962636D01*
X154595791Y-82991898D01*
X154597803Y-83017292D01*
X154599510Y-83038491D01*
X154600889Y-83055167D01*
X154601914Y-83066992D01*
X154602561Y-83073640D01*
X154602630Y-83074223D01*
X154611361Y-83125403D01*
X154624178Y-83172721D01*
X154641151Y-83216280D01*
X154662352Y-83256184D01*
X154687850Y-83292537D01*
X154717718Y-83325445D01*
X154752026Y-83355012D01*
X154790845Y-83381341D01*
X154823516Y-83399304D01*
X154866320Y-83418656D01*
X154914290Y-83436383D01*
X154967166Y-83452419D01*
X155024686Y-83466696D01*
X155086591Y-83479147D01*
X155152621Y-83489704D01*
X155192178Y-83494869D01*
X155204401Y-83496380D01*
X155214318Y-83497680D01*
X155220737Y-83498607D01*
X155222544Y-83498965D01*
X155222330Y-83501781D01*
X155221519Y-83509857D01*
X155220152Y-83522844D01*
X155218265Y-83540396D01*
X155215897Y-83562162D01*
X155213087Y-83587796D01*
X155209873Y-83616948D01*
X155206293Y-83649269D01*
X155202386Y-83684413D01*
X155198190Y-83722030D01*
X155193743Y-83761772D01*
X155189084Y-83803290D01*
X155186462Y-83826607D01*
X155181570Y-83870083D01*
X155176773Y-83912724D01*
X155172119Y-83954110D01*
X155167655Y-83993818D01*
X155163428Y-84031429D01*
X155159486Y-84066520D01*
X155155876Y-84098671D01*
X155152645Y-84127460D01*
X155149840Y-84152466D01*
X155147510Y-84173268D01*
X155145700Y-84189446D01*
X155144459Y-84200577D01*
X155144178Y-84203111D01*
X155138266Y-84266579D01*
X155135147Y-84325474D01*
X155134860Y-84380154D01*
X155137447Y-84430975D01*
X155142949Y-84478294D01*
X155151407Y-84522467D01*
X155162861Y-84563851D01*
X155177354Y-84602801D01*
X155194139Y-84638192D01*
X155217278Y-84676397D01*
X155244417Y-84710791D01*
X155275588Y-84741394D01*
X155310825Y-84768219D01*
X155350160Y-84791286D01*
X155393627Y-84810610D01*
X155441258Y-84826208D01*
X155493086Y-84838097D01*
X155549145Y-84846293D01*
X155609467Y-84850814D01*
X155614100Y-84851002D01*
X155669958Y-84850991D01*
X155722370Y-84846513D01*
X155771353Y-84837560D01*
X155816928Y-84824120D01*
X155859112Y-84806183D01*
X155897925Y-84783740D01*
X155933385Y-84756780D01*
X155965512Y-84725291D01*
X155994324Y-84689266D01*
X156019839Y-84648691D01*
X156034241Y-84620767D01*
X156054913Y-84571677D01*
X156072042Y-84518705D01*
X156085464Y-84462495D01*
X156095011Y-84403687D01*
X156098280Y-84373498D01*
X156099652Y-84359461D01*
X156101030Y-84347251D01*
X156102264Y-84338085D01*
X156103204Y-84333181D01*
X156103290Y-84332934D01*
X156103466Y-84333247D01*
X156103640Y-84335161D01*
X156103813Y-84338825D01*
X156103986Y-84344388D01*
X156104160Y-84351997D01*
X156104335Y-84361803D01*
X156104514Y-84373953D01*
X156104696Y-84388597D01*
X156104883Y-84405883D01*
X156105076Y-84425959D01*
X156105276Y-84448976D01*
X156105484Y-84475080D01*
X156105701Y-84504421D01*
X156105928Y-84537149D01*
X156106165Y-84573410D01*
X156106415Y-84613355D01*
X156106677Y-84657131D01*
X156106953Y-84704888D01*
X156107244Y-84756775D01*
X156107551Y-84812940D01*
X156107874Y-84873531D01*
X156108216Y-84938698D01*
X156108576Y-85008589D01*
X156108956Y-85083353D01*
X156109357Y-85163138D01*
X156109780Y-85248094D01*
X156110225Y-85338370D01*
X156110694Y-85434112D01*
X156110785Y-85452650D01*
X156112979Y-85902089D01*
X156398351Y-85901999D01*
X156445416Y-85901976D01*
X156487134Y-85901933D01*
X156523803Y-85901868D01*
X156555719Y-85901775D01*
X156583179Y-85901651D01*
X156606482Y-85901492D01*
X156625924Y-85901293D01*
X156641803Y-85901049D01*
X156654416Y-85900758D01*
X156664061Y-85900414D01*
X156671034Y-85900013D01*
X156675633Y-85899551D01*
X156678155Y-85899025D01*
X156678898Y-85898429D01*
X156678607Y-85898031D01*
X156678049Y-85897458D01*
X156677535Y-85896476D01*
X156677063Y-85894871D01*
X156676633Y-85892428D01*
X156676243Y-85888935D01*
X156675892Y-85884177D01*
X156675580Y-85877941D01*
X156675306Y-85870012D01*
X156675068Y-85860177D01*
X156674866Y-85848222D01*
X156674698Y-85833932D01*
X156674564Y-85817095D01*
X156674462Y-85797497D01*
X156674391Y-85774923D01*
X156674352Y-85749159D01*
X156674342Y-85719993D01*
X156674360Y-85687209D01*
X156674406Y-85650595D01*
X156674479Y-85609935D01*
X156674577Y-85565018D01*
X156674699Y-85515627D01*
X156674846Y-85461551D01*
X156675015Y-85402574D01*
X156675205Y-85338483D01*
X156675417Y-85269065D01*
X156675525Y-85233757D01*
X156677559Y-84573361D01*
X156709104Y-84600042D01*
X156740648Y-84626723D01*
X156742524Y-84906451D01*
X156742806Y-84950291D01*
X156743075Y-84995749D01*
X156743328Y-85042085D01*
X156743561Y-85088555D01*
X156743773Y-85134418D01*
X156743960Y-85178931D01*
X156744117Y-85221354D01*
X156744244Y-85260943D01*
X156744335Y-85296956D01*
X156744389Y-85328652D01*
X156744402Y-85350106D01*
X156744436Y-85384026D01*
X156744530Y-85422431D01*
X156744681Y-85464162D01*
X156744880Y-85508058D01*
X156745123Y-85552961D01*
X156745403Y-85597712D01*
X156745714Y-85641151D01*
X156746050Y-85682119D01*
X156746277Y-85706650D01*
X156748149Y-85899267D01*
X156933489Y-85899267D01*
X156933489Y-85314765D01*
X156933491Y-85247113D01*
X156933497Y-85184881D01*
X156933509Y-85127845D01*
X156933530Y-85075779D01*
X156933561Y-85028459D01*
X156933605Y-84985660D01*
X156933662Y-84947158D01*
X156933735Y-84912729D01*
X156933827Y-84882147D01*
X156933938Y-84855188D01*
X156934070Y-84831627D01*
X156934226Y-84811240D01*
X156934408Y-84793802D01*
X156934617Y-84779089D01*
X156934855Y-84766876D01*
X156935125Y-84756938D01*
X156935427Y-84749050D01*
X156935765Y-84742989D01*
X156936139Y-84738530D01*
X156936553Y-84735447D01*
X156937006Y-84733517D01*
X156937503Y-84732514D01*
X156938044Y-84732214D01*
X156938428Y-84732293D01*
X156948263Y-84736194D01*
X156961936Y-84741431D01*
X156977964Y-84747453D01*
X156994865Y-84753714D01*
X157011157Y-84759663D01*
X157025356Y-84764751D01*
X157035980Y-84768430D01*
X157036500Y-84768604D01*
X157047330Y-84772327D01*
X157056288Y-84775632D01*
X157061856Y-84777952D01*
X157062654Y-84778380D01*
X157063836Y-84780526D01*
X157063830Y-84785251D01*
X157062523Y-84793297D01*
X157059801Y-84805403D01*
X157056443Y-84818841D01*
X157045324Y-84866898D01*
X157037249Y-84913091D01*
X157031981Y-84959339D01*
X157029282Y-85007562D01*
X157028795Y-85042723D01*
X157031255Y-85112682D01*
X157038585Y-85180104D01*
X157050906Y-85245508D01*
X157068342Y-85309412D01*
X157091016Y-85372335D01*
X157119050Y-85434794D01*
X157124063Y-85444824D01*
X157157693Y-85505143D01*
X157195613Y-85562080D01*
X157237565Y-85615443D01*
X157283292Y-85665044D01*
X157332537Y-85710692D01*
X157385042Y-85752198D01*
X157440550Y-85789371D01*
X157498804Y-85822022D01*
X157559547Y-85849961D01*
X157622521Y-85872999D01*
X157687470Y-85890944D01*
X157743467Y-85901961D01*
X157805828Y-85909677D01*
X157868845Y-85912976D01*
X157930850Y-85911793D01*
X157953722Y-85910162D01*
X158020871Y-85901558D01*
X158086737Y-85887561D01*
X158151044Y-85868335D01*
X158213513Y-85844041D01*
X158273867Y-85814842D01*
X158331827Y-85780899D01*
X158387116Y-85742376D01*
X158439455Y-85699434D01*
X158488567Y-85652235D01*
X158534173Y-85600943D01*
X158574611Y-85547700D01*
X158611312Y-85490476D01*
X158643418Y-85430089D01*
X158670834Y-85366782D01*
X158693462Y-85300802D01*
X158711208Y-85232393D01*
X158722808Y-85169723D01*
X158727176Y-85132877D01*
X158729861Y-85092119D01*
X158730858Y-85048929D01*
X158730580Y-85031310D01*
X158140442Y-85031310D01*
X158138344Y-85090576D01*
X158132736Y-85149939D01*
X158123770Y-85208095D01*
X158111601Y-85263739D01*
X158100118Y-85304132D01*
X158084078Y-85349403D01*
X158065996Y-85390548D01*
X158046025Y-85427370D01*
X158024319Y-85459670D01*
X158001032Y-85487252D01*
X157976318Y-85509917D01*
X157950330Y-85527467D01*
X157923221Y-85539706D01*
X157914876Y-85542317D01*
X157898997Y-85545058D01*
X157880129Y-85545674D01*
X157860465Y-85544278D01*
X157842196Y-85540988D01*
X157832367Y-85537984D01*
X157805714Y-85525065D01*
X157780194Y-85506874D01*
X157755964Y-85483701D01*
X157733186Y-85455834D01*
X157712019Y-85423562D01*
X157692622Y-85387173D01*
X157675156Y-85346958D01*
X157659779Y-85303204D01*
X157646652Y-85256200D01*
X157635935Y-85206235D01*
X157630404Y-85172769D01*
X157622912Y-85105984D01*
X157619858Y-85038837D01*
X157620308Y-84996156D01*
X157621136Y-84975754D01*
X157622198Y-84955994D01*
X157623425Y-84937699D01*
X157624748Y-84921690D01*
X157626099Y-84908789D01*
X157627410Y-84899819D01*
X157628611Y-84895600D01*
X157628702Y-84895491D01*
X157631744Y-84895373D01*
X157639412Y-84895771D01*
X157650718Y-84896617D01*
X157664673Y-84897838D01*
X157673231Y-84898656D01*
X157729241Y-84903598D01*
X157790715Y-84907952D01*
X157857503Y-84911709D01*
X157929454Y-84914862D01*
X158006418Y-84917403D01*
X158056725Y-84918671D01*
X158077036Y-84919150D01*
X158095413Y-84919630D01*
X158111126Y-84920087D01*
X158123447Y-84920499D01*
X158131647Y-84920844D01*
X158134996Y-84921098D01*
X158135034Y-84921115D01*
X158135420Y-84924018D01*
X158136068Y-84931658D01*
X158136909Y-84943139D01*
X158137880Y-84957562D01*
X158138877Y-84973445D01*
X158140442Y-85031310D01*
X158730580Y-85031310D01*
X158730160Y-85004784D01*
X158727761Y-84961163D01*
X158723837Y-84921028D01*
X158722078Y-84906577D01*
X158740067Y-84904893D01*
X158748803Y-84904245D01*
X158761867Y-84903492D01*
X158777943Y-84902700D01*
X158795718Y-84901935D01*
X158810972Y-84901361D01*
X158863889Y-84899513D01*
X158863889Y-85893623D01*
X159026681Y-85893623D01*
X159028328Y-85392326D01*
X159028514Y-85339550D01*
X159028720Y-85288290D01*
X159028944Y-85238832D01*
X159029183Y-85191461D01*
X159029435Y-85146462D01*
X159029699Y-85104120D01*
X159029970Y-85064720D01*
X159030248Y-85028547D01*
X159030531Y-84995887D01*
X159030815Y-84967024D01*
X159031098Y-84942244D01*
X159031379Y-84921832D01*
X159031656Y-84906072D01*
X159031925Y-84895250D01*
X159032184Y-84889652D01*
X159032304Y-84888904D01*
X159035911Y-84887892D01*
X159043919Y-84886767D01*
X159055091Y-84885676D01*
X159066383Y-84884871D01*
X159098133Y-84882964D01*
X159098136Y-85191443D01*
X159098156Y-85237917D01*
X159098213Y-85286382D01*
X159098304Y-85336094D01*
X159098427Y-85386306D01*
X159098579Y-85436276D01*
X159098757Y-85485258D01*
X159098958Y-85532507D01*
X159099180Y-85577279D01*
X159099420Y-85618829D01*
X159099674Y-85656412D01*
X159099941Y-85689285D01*
X159100011Y-85696773D01*
X159101883Y-85893623D01*
X159665164Y-85893623D01*
X159666285Y-85178895D01*
X159666429Y-85094343D01*
X159666591Y-85014375D01*
X159666770Y-84939062D01*
X159666965Y-84868476D01*
X159667079Y-84832472D01*
X158121645Y-84832472D01*
X158121068Y-84833959D01*
X158118872Y-84835044D01*
X158114360Y-84835771D01*
X158106833Y-84836183D01*
X158095596Y-84836325D01*
X158079949Y-84836239D01*
X158064495Y-84836045D01*
X158045206Y-84835703D01*
X158021876Y-84835175D01*
X157996103Y-84834506D01*
X157969485Y-84833739D01*
X157943621Y-84832916D01*
X157928322Y-84832384D01*
X157902406Y-84831349D01*
X157875045Y-84830077D01*
X157846817Y-84828611D01*
X157818298Y-84826990D01*
X157790062Y-84825257D01*
X157762687Y-84823452D01*
X157736749Y-84821617D01*
X157712823Y-84819792D01*
X157691485Y-84818020D01*
X157673312Y-84816340D01*
X157658880Y-84814796D01*
X157648764Y-84813427D01*
X157643541Y-84812274D01*
X157643020Y-84811983D01*
X157643236Y-84808888D01*
X157644838Y-84801443D01*
X157647536Y-84790688D01*
X157651040Y-84777663D01*
X157655061Y-84763409D01*
X157659309Y-84748965D01*
X157663494Y-84735372D01*
X157667327Y-84723669D01*
X157668758Y-84719578D01*
X157684524Y-84680423D01*
X157702520Y-84644220D01*
X157722432Y-84611349D01*
X157743948Y-84582189D01*
X157766754Y-84557119D01*
X157790536Y-84536520D01*
X157814981Y-84520772D01*
X157839776Y-84510254D01*
X157842051Y-84509566D01*
X157861617Y-84505899D01*
X157883549Y-84505113D01*
X157905404Y-84507140D01*
X157924617Y-84511870D01*
X157950916Y-84524029D01*
X157976371Y-84541500D01*
X158000746Y-84563982D01*
X158023806Y-84591176D01*
X158045314Y-84622781D01*
X158065036Y-84658496D01*
X158082734Y-84698022D01*
X158093393Y-84726634D01*
X158097898Y-84740379D01*
X158102707Y-84756180D01*
X158107528Y-84772945D01*
X158112070Y-84789582D01*
X158116041Y-84805001D01*
X158119150Y-84818110D01*
X158121106Y-84827817D01*
X158121645Y-84832472D01*
X159667079Y-84832472D01*
X159667175Y-84802686D01*
X159667402Y-84741764D01*
X159667643Y-84685782D01*
X159667899Y-84634808D01*
X159668170Y-84588916D01*
X159668455Y-84548175D01*
X159668753Y-84512657D01*
X159669065Y-84482433D01*
X159669389Y-84457573D01*
X159669726Y-84438148D01*
X159670075Y-84424229D01*
X159670416Y-84416189D01*
X159672029Y-84386864D01*
X159673527Y-84352476D01*
X159674905Y-84313607D01*
X159676158Y-84270837D01*
X159677282Y-84224747D01*
X159678271Y-84175918D01*
X159679122Y-84124932D01*
X159679829Y-84072368D01*
X159680387Y-84018808D01*
X159680793Y-83964832D01*
X159681041Y-83911023D01*
X159681127Y-83857959D01*
X159681046Y-83806223D01*
X159680793Y-83756396D01*
X159680363Y-83709057D01*
X159679752Y-83664789D01*
X159678956Y-83624171D01*
X159678125Y-83593511D01*
X159594845Y-83593511D01*
X159100956Y-83593511D01*
X159100956Y-84807067D01*
X159090372Y-84807264D01*
X159085726Y-84807424D01*
X159075957Y-84807815D01*
X159061582Y-84808417D01*
X159043117Y-84809206D01*
X159021077Y-84810160D01*
X158995979Y-84811257D01*
X158968339Y-84812475D01*
X158938674Y-84813790D01*
X158907498Y-84815182D01*
X158903400Y-84815365D01*
X158872065Y-84816768D01*
X158842170Y-84818102D01*
X158814233Y-84819346D01*
X158788769Y-84820476D01*
X158766296Y-84821470D01*
X158747329Y-84822304D01*
X158732385Y-84822957D01*
X158721981Y-84823404D01*
X158716633Y-84823624D01*
X158716339Y-84823635D01*
X158708640Y-84823009D01*
X158704791Y-84820780D01*
X158704672Y-84820473D01*
X158703518Y-84816764D01*
X158700917Y-84808606D01*
X158697163Y-84796919D01*
X158692552Y-84782622D01*
X158687679Y-84767556D01*
X158664498Y-84703551D01*
X158637598Y-84643506D01*
X158606638Y-84586859D01*
X158571273Y-84533046D01*
X158531161Y-84481505D01*
X158485960Y-84431673D01*
X158478712Y-84424302D01*
X158450705Y-84396904D01*
X158424512Y-84373075D01*
X158398796Y-84351702D01*
X158372219Y-84331672D01*
X158344030Y-84312260D01*
X158285597Y-84276864D01*
X158225156Y-84246616D01*
X158163019Y-84221519D01*
X158099499Y-84201577D01*
X158034909Y-84186793D01*
X157969562Y-84177170D01*
X157903770Y-84172711D01*
X157837847Y-84173420D01*
X157772106Y-84179301D01*
X157706859Y-84190355D01*
X157642419Y-84206588D01*
X157579100Y-84228001D01*
X157517214Y-84254599D01*
X157457075Y-84286384D01*
X157430200Y-84302674D01*
X157374246Y-84341334D01*
X157321521Y-84384487D01*
X157272312Y-84431806D01*
X157226906Y-84482965D01*
X157185590Y-84537640D01*
X157148652Y-84595504D01*
X157116378Y-84656232D01*
X157114111Y-84660983D01*
X157107536Y-84674438D01*
X157101556Y-84685871D01*
X157096668Y-84694392D01*
X157093367Y-84699117D01*
X157092451Y-84699778D01*
X157087068Y-84698770D01*
X157077169Y-84695843D01*
X157063443Y-84691257D01*
X157046580Y-84685273D01*
X157027272Y-84678152D01*
X157006206Y-84670156D01*
X156984074Y-84661545D01*
X156961564Y-84652580D01*
X156939368Y-84643522D01*
X156918175Y-84634632D01*
X156903856Y-84628451D01*
X156884012Y-84619506D01*
X156861954Y-84609115D01*
X156838397Y-84597652D01*
X156814057Y-84585493D01*
X156789652Y-84573014D01*
X156765897Y-84560591D01*
X156743510Y-84548599D01*
X156723205Y-84537414D01*
X156705701Y-84527412D01*
X156691712Y-84518967D01*
X156681956Y-84512457D01*
X156680408Y-84511289D01*
X156674271Y-84506500D01*
X156672244Y-84011906D01*
X156672100Y-83976657D01*
X156103652Y-83976657D01*
X156103592Y-84003591D01*
X156103431Y-84025784D01*
X156103168Y-84043366D01*
X156102803Y-84056464D01*
X156102335Y-84065209D01*
X156101765Y-84069729D01*
X156101371Y-84070467D01*
X156097873Y-84068581D01*
X156093991Y-84064948D01*
X156089516Y-84061000D01*
X156081641Y-84054972D01*
X156071695Y-84047861D01*
X156065974Y-84043951D01*
X156030689Y-84023375D01*
X155993991Y-84007959D01*
X155956330Y-83997739D01*
X155918160Y-83992753D01*
X155879932Y-83993035D01*
X155842099Y-83998622D01*
X155805113Y-84009551D01*
X155778817Y-84020967D01*
X155759318Y-84031603D01*
X155740369Y-84043687D01*
X155722735Y-84056577D01*
X155707181Y-84069634D01*
X155694470Y-84082217D01*
X155685367Y-84093686D01*
X155680689Y-84103201D01*
X155678146Y-84118991D01*
X155678545Y-84137878D01*
X155681942Y-84160291D01*
X155688396Y-84186660D01*
X155694642Y-84207325D01*
X155698072Y-84218173D01*
X155700470Y-84226775D01*
X155701980Y-84234498D01*
X155702745Y-84242711D01*
X155702906Y-84252782D01*
X155702607Y-84266078D01*
X155702157Y-84279292D01*
X155700645Y-84305918D01*
X155697951Y-84328769D01*
X155693746Y-84349648D01*
X155687699Y-84370359D01*
X155683222Y-84382996D01*
X155677017Y-84398001D01*
X155669213Y-84414521D01*
X155660786Y-84430652D01*
X155652710Y-84444488D01*
X155648536Y-84450761D01*
X155641116Y-84459207D01*
X155633926Y-84462448D01*
X155625690Y-84460719D01*
X155618133Y-84456353D01*
X155606432Y-84445159D01*
X155596710Y-84428682D01*
X155588968Y-84406922D01*
X155583207Y-84379880D01*
X155579425Y-84347554D01*
X155577624Y-84309944D01*
X155577802Y-84267051D01*
X155579960Y-84218874D01*
X155584099Y-84165413D01*
X155590217Y-84106668D01*
X155598316Y-84042639D01*
X155608395Y-83973324D01*
X155620453Y-83898725D01*
X155634492Y-83818841D01*
X155650511Y-83733672D01*
X155668511Y-83643217D01*
X155676421Y-83604800D01*
X155680607Y-83584708D01*
X155684485Y-83566183D01*
X155687886Y-83550020D01*
X155690645Y-83537012D01*
X155692592Y-83527954D01*
X155693555Y-83523661D01*
X155695145Y-83517311D01*
X156100007Y-83517311D01*
X156101881Y-83708277D01*
X156102429Y-83766364D01*
X156102875Y-83818936D01*
X156103221Y-83866122D01*
X156103466Y-83908052D01*
X156103610Y-83944854D01*
X156103652Y-83976657D01*
X156672100Y-83976657D01*
X156670218Y-83517311D01*
X157686135Y-83517311D01*
X157698573Y-83510756D01*
X157710044Y-83502429D01*
X157721353Y-83490257D01*
X157731134Y-83475910D01*
X157737058Y-83463689D01*
X157738028Y-83460827D01*
X157738868Y-83457304D01*
X157739591Y-83452706D01*
X157740207Y-83446616D01*
X157740730Y-83438620D01*
X157741169Y-83428301D01*
X157741538Y-83415245D01*
X157741848Y-83399035D01*
X157742111Y-83379258D01*
X157742338Y-83355496D01*
X157742541Y-83327336D01*
X157742732Y-83294360D01*
X157742922Y-83256256D01*
X157743100Y-83216488D01*
X157743217Y-83181942D01*
X157743253Y-83152196D01*
X157743187Y-83126829D01*
X157742999Y-83105417D01*
X157742669Y-83087540D01*
X157742177Y-83072774D01*
X157741502Y-83060699D01*
X157740624Y-83050891D01*
X157739523Y-83042929D01*
X157738179Y-83036391D01*
X157736571Y-83030855D01*
X157734679Y-83025898D01*
X157732483Y-83021099D01*
X157731545Y-83019189D01*
X157723978Y-83007213D01*
X157713780Y-82995304D01*
X157702800Y-82985470D01*
X157696900Y-82981562D01*
X157695274Y-82980850D01*
X157692893Y-82980208D01*
X157689455Y-82979632D01*
X157684658Y-82979117D01*
X157678200Y-82978657D01*
X157669779Y-82978247D01*
X157659094Y-82977881D01*
X157645841Y-82977554D01*
X157629720Y-82977260D01*
X157610428Y-82976996D01*
X157587664Y-82976754D01*
X157561125Y-82976530D01*
X157530510Y-82976318D01*
X157495516Y-82976113D01*
X157455842Y-82975910D01*
X157411185Y-82975703D01*
X157361244Y-82975488D01*
X157350984Y-82975445D01*
X157013534Y-82974034D01*
X157179640Y-82512600D01*
X157201183Y-82452695D01*
X157221476Y-82396147D01*
X157240465Y-82343104D01*
X157258097Y-82293719D01*
X157274321Y-82248141D01*
X157289082Y-82206521D01*
X157302327Y-82169009D01*
X157314005Y-82135756D01*
X157324061Y-82106912D01*
X157332442Y-82082628D01*
X157339096Y-82063054D01*
X157343970Y-82048340D01*
X157347010Y-82038638D01*
X157348147Y-82034234D01*
X157349131Y-82012575D01*
X157345705Y-81990803D01*
X157337651Y-81967784D01*
X157333806Y-81959445D01*
X157328138Y-81948505D01*
X157322261Y-81939075D01*
X157315163Y-81929836D01*
X157305833Y-81919468D01*
X157293621Y-81907012D01*
X157268818Y-81884493D01*
X157240322Y-81862818D01*
X157207832Y-81841825D01*
X157171043Y-81821349D01*
X157129653Y-81801226D01*
X157083358Y-81781292D01*
X157031855Y-81761385D01*
X157008278Y-81752879D01*
X156962160Y-81737480D01*
X156911329Y-81722182D01*
X156856713Y-81707205D01*
X156799243Y-81692767D01*
X156739847Y-81679087D01*
X156679456Y-81666384D01*
X156618999Y-81654877D01*
X156559404Y-81644785D01*
X156531322Y-81640500D01*
X156513778Y-81638005D01*
X156494493Y-81635400D01*
X156474412Y-81632798D01*
X156454484Y-81630313D01*
X156435653Y-81628060D01*
X156418866Y-81626152D01*
X156405070Y-81624702D01*
X156395210Y-81623826D01*
X156390974Y-81623613D01*
X156383270Y-81623600D01*
X156396251Y-81643667D01*
X156415430Y-81677242D01*
X156432942Y-81716002D01*
X156448726Y-81759720D01*
X156462725Y-81808170D01*
X156474880Y-81861126D01*
X156485131Y-81918363D01*
X156493420Y-81979655D01*
X156499299Y-82039878D01*
X156500399Y-82057542D01*
X156501273Y-82079824D01*
X156501921Y-82105703D01*
X156502342Y-82134156D01*
X156502538Y-82164161D01*
X156502509Y-82194697D01*
X156502254Y-82224742D01*
X156501774Y-82253273D01*
X156501070Y-82279270D01*
X156500141Y-82301710D01*
X156499233Y-82316456D01*
X156489618Y-82420753D01*
X156476231Y-82527975D01*
X156459262Y-82637024D01*
X156438897Y-82746800D01*
X156415324Y-82856205D01*
X156388730Y-82964140D01*
X156388541Y-82964861D01*
X156385760Y-82975445D01*
X156353325Y-82975445D01*
X156338376Y-82975274D01*
X156328292Y-82974703D01*
X156322298Y-82973647D01*
X156319624Y-82972016D01*
X156319426Y-82971630D01*
X156319568Y-82967657D01*
X156320948Y-82959302D01*
X156323353Y-82947637D01*
X156326572Y-82933737D01*
X156328120Y-82927478D01*
X156346942Y-82848962D01*
X156364165Y-82769451D01*
X156379714Y-82689532D01*
X156393518Y-82609788D01*
X156405502Y-82530803D01*
X156415595Y-82453162D01*
X156423722Y-82377450D01*
X156429812Y-82304251D01*
X156433792Y-82234149D01*
X156435587Y-82167730D01*
X156435152Y-82108955D01*
X156011516Y-82108955D01*
X156010513Y-82138473D01*
X156004440Y-82167330D01*
X155994536Y-82192158D01*
X155978886Y-82217467D01*
X155959423Y-82238824D01*
X155936573Y-82255904D01*
X155910765Y-82268385D01*
X155884290Y-82275614D01*
X155868659Y-82277055D01*
X155850162Y-82276644D01*
X155831191Y-82274575D01*
X155814142Y-82271041D01*
X155809268Y-82269560D01*
X155787692Y-82260662D01*
X155769172Y-82249107D01*
X155751519Y-82233519D01*
X155750782Y-82232774D01*
X155733098Y-82210914D01*
X155719509Y-82185903D01*
X155710230Y-82158686D01*
X155705474Y-82130209D01*
X155705453Y-82101417D01*
X155710382Y-82073256D01*
X155712913Y-82064907D01*
X155724966Y-82037074D01*
X155741018Y-82012839D01*
X155760636Y-81992522D01*
X155783392Y-81976441D01*
X155808855Y-81964917D01*
X155836594Y-81958268D01*
X155858789Y-81956672D01*
X155886669Y-81959332D01*
X155913494Y-81967191D01*
X155938450Y-81979808D01*
X155960725Y-81996741D01*
X155979506Y-82017551D01*
X155984605Y-82024896D01*
X155998512Y-82051320D01*
X156007498Y-82079621D01*
X156011516Y-82108955D01*
X156435152Y-82108955D01*
X156435126Y-82105577D01*
X156434110Y-82078024D01*
X156429778Y-82012017D01*
X156423209Y-81950928D01*
X156414327Y-81894458D01*
X156403055Y-81842310D01*
X156389318Y-81794188D01*
X156373038Y-81749792D01*
X156354141Y-81708827D01*
X156332548Y-81670994D01*
X156327800Y-81663625D01*
X156304617Y-81632978D01*
X156276112Y-81603310D01*
X156242550Y-81574786D01*
X156204195Y-81547569D01*
X156161311Y-81521824D01*
X156114161Y-81497717D01*
X156063011Y-81475410D01*
X156008123Y-81455070D01*
X155976756Y-81444879D01*
X155917166Y-81427934D01*
X155857801Y-81413984D01*
X155799084Y-81403036D01*
X155741438Y-81395097D01*
X155685287Y-81390175D01*
X155631053Y-81388275D01*
X155579160Y-81389407D01*
X155530032Y-81393576D01*
X155484090Y-81400790D01*
X155441760Y-81411056D01*
X155403463Y-81424381D01*
X155380627Y-81434841D01*
X155370110Y-81440203D01*
X155371321Y-81432419D01*
X155371951Y-81426493D01*
X155372725Y-81416431D01*
X155373538Y-81403736D01*
X155374162Y-81392312D01*
X155379458Y-81333161D01*
X155389207Y-81275598D01*
X155403246Y-81220108D01*
X155421412Y-81167179D01*
X155443541Y-81117299D01*
X155469471Y-81070955D01*
X155493775Y-81035506D01*
X155525382Y-80997335D01*
X155560502Y-80962356D01*
X155599277Y-80930508D01*
X155641853Y-80901730D01*
X155688374Y-80875961D01*
X155738982Y-80853141D01*
X155793822Y-80833208D01*
X155853037Y-80816101D01*
X155916773Y-80801760D01*
X155985172Y-80790124D01*
X156058379Y-80781131D01*
X156104492Y-80776993D01*
X156122764Y-80775779D01*
X156145654Y-80774601D01*
X156172202Y-80773483D01*
X156201447Y-80772447D01*
X156232431Y-80771516D01*
X156264193Y-80770712D01*
X156295774Y-80770059D01*
X156326212Y-80769579D01*
X156354548Y-80769296D01*
X156379823Y-80769231D01*
X156401076Y-80769407D01*
X156412789Y-80769678D01*
X156503333Y-80774857D01*
X156596843Y-80784633D01*
X156693109Y-80798937D01*
X156791923Y-80817700D01*
X156893075Y-80840851D01*
X156996359Y-80868322D01*
X157101563Y-80900041D01*
X157208480Y-80935941D01*
X157316901Y-80975951D01*
X157426617Y-81020001D01*
X157537420Y-81068023D01*
X157649100Y-81119945D01*
X157761449Y-81175698D01*
X157874258Y-81235214D01*
X157973509Y-81290509D01*
X158090187Y-81359202D01*
X158204386Y-81430569D01*
X158315832Y-81504385D01*
X158424251Y-81580425D01*
X158529370Y-81658464D01*
X158630916Y-81738277D01*
X158728614Y-81819639D01*
X158822192Y-81902326D01*
X158911376Y-81986112D01*
X158995892Y-82070772D01*
X159075468Y-82156082D01*
X159149828Y-82241816D01*
X159189765Y-82290775D01*
X159247919Y-82366637D01*
X159301572Y-82442568D01*
X159350619Y-82518366D01*
X159394954Y-82593823D01*
X159434472Y-82668735D01*
X159469068Y-82742896D01*
X159498636Y-82816102D01*
X159523070Y-82888146D01*
X159542266Y-82958825D01*
X159549338Y-82990967D01*
X159552749Y-83008527D01*
X159556033Y-83026855D01*
X159559064Y-83045074D01*
X159561715Y-83062309D01*
X159563856Y-83077685D01*
X159565362Y-83090326D01*
X159566106Y-83099357D01*
X159565959Y-83103902D01*
X159565801Y-83104206D01*
X159562930Y-83103473D01*
X159556750Y-83100165D01*
X159548550Y-83094980D01*
X159547839Y-83094500D01*
X159521784Y-83078856D01*
X159490914Y-83063749D01*
X159456052Y-83049412D01*
X159418018Y-83036078D01*
X159377634Y-83023979D01*
X159335722Y-83013349D01*
X159293103Y-83004419D01*
X159250599Y-82997423D01*
X159209032Y-82992594D01*
X159181318Y-82990647D01*
X159154728Y-82990119D01*
X159131687Y-82991287D01*
X159112612Y-82994072D01*
X159097919Y-82998397D01*
X159088026Y-83004185D01*
X159084399Y-83008635D01*
X159083963Y-83012363D01*
X159083661Y-83021495D01*
X159083492Y-83035792D01*
X159083454Y-83055014D01*
X159083547Y-83078922D01*
X159083769Y-83107278D01*
X159084119Y-83139843D01*
X159084596Y-83176376D01*
X159085198Y-83216640D01*
X159085613Y-83242145D01*
X159086213Y-83278158D01*
X159086787Y-83312967D01*
X159087327Y-83346096D01*
X159087826Y-83377071D01*
X159088277Y-83405416D01*
X159088672Y-83430657D01*
X159089003Y-83452318D01*
X159089263Y-83469925D01*
X159089445Y-83483002D01*
X159089542Y-83491075D01*
X159089554Y-83492617D01*
X159089667Y-83514489D01*
X159591171Y-83514489D01*
X159592993Y-83542006D01*
X159593804Y-83555487D01*
X159594433Y-83568283D01*
X159594786Y-83578378D01*
X159594830Y-83581517D01*
X159594845Y-83593511D01*
X159678125Y-83593511D01*
X159677969Y-83587786D01*
X159677278Y-83568111D01*
X159675033Y-83513048D01*
X159672596Y-83458669D01*
X159669995Y-83405427D01*
X159667260Y-83353772D01*
X159664419Y-83304153D01*
X159661502Y-83257023D01*
X159658538Y-83212830D01*
X159655556Y-83172027D01*
X159652584Y-83135063D01*
X159649652Y-83102388D01*
X159646790Y-83074455D01*
X159644024Y-83051712D01*
X159644015Y-83051645D01*
X159631080Y-82976080D01*
X159612653Y-82899595D01*
X159588798Y-82822282D01*
X159559576Y-82744231D01*
X159525049Y-82665533D01*
X159485279Y-82586280D01*
X159440328Y-82506563D01*
X159390259Y-82426473D01*
X159335134Y-82346101D01*
X159275014Y-82265538D01*
X159209962Y-82184876D01*
X159140040Y-82104206D01*
X159065309Y-82023619D01*
X158985832Y-81943206D01*
X158901672Y-81863058D01*
X158812889Y-81783266D01*
X158735270Y-81716988D01*
X158626247Y-81628862D01*
X158513159Y-81543006D01*
X158396485Y-81459688D01*
X158276702Y-81379179D01*
X158154288Y-81301746D01*
X158029721Y-81227659D01*
X157903480Y-81157188D01*
X157776042Y-81090601D01*
X157647886Y-81028167D01*
X157519489Y-80970156D01*
X157391329Y-80916836D01*
X157263885Y-80868477D01*
X157170556Y-80836123D01*
X157060496Y-80801363D01*
X156953302Y-80771226D01*
X156848692Y-80745650D01*
X156746383Y-80724575D01*
X156646093Y-80707937D01*
X156547540Y-80695676D01*
X156511567Y-80692246D01*
X156479285Y-80689993D01*
X156442280Y-80688401D01*
X156401430Y-80687448D01*
X156357615Y-80687113D01*
X156311713Y-80687372D01*
X156311713Y-80687372D01*
G37*
X156311713Y-80687372D02*
X156264605Y-80688204D01*
X156217168Y-80689587D01*
X156170283Y-80691499D01*
X156124828Y-80693918D01*
X156081683Y-80696822D01*
X156041727Y-80700189D01*
X156005838Y-80703996D01*
X155996511Y-80705154D01*
X155921924Y-80716616D01*
X155851930Y-80731217D01*
X155786393Y-80749012D01*
X155725178Y-80770059D01*
X155668148Y-80794413D01*
X155615169Y-80822131D01*
X155566104Y-80853269D01*
X155520819Y-80887883D01*
X155490270Y-80915187D01*
X155452354Y-80955173D01*
X155417924Y-80999351D01*
X155387240Y-81047283D01*
X155360561Y-81098531D01*
X155338148Y-81152654D01*
X155323793Y-81196587D01*
X155315570Y-81226553D01*
X155308676Y-81255513D01*
X155302986Y-81284403D01*
X155298373Y-81314162D01*
X155294714Y-81345727D01*
X155291883Y-81380034D01*
X155289756Y-81418021D01*
X155288206Y-81460625D01*
X155288107Y-81464145D01*
X155287396Y-81486386D01*
X155286543Y-81507609D01*
X155285596Y-81526930D01*
X155284604Y-81543461D01*
X155283616Y-81556318D01*
X155282682Y-81564613D01*
X155282488Y-81565745D01*
X155281362Y-81573785D01*
X155280740Y-81584132D01*
X155280622Y-81597553D01*
X155281003Y-81614816D01*
X155281884Y-81636689D01*
X155282269Y-81644767D01*
X155284262Y-81690894D01*
X155285982Y-81742521D01*
X155287426Y-81799509D01*
X155288594Y-81861720D01*
X155289482Y-81929016D01*
X155290091Y-82001259D01*
X155290418Y-82078310D01*
X155290461Y-82160031D01*
X155290219Y-82246283D01*
X155290015Y-82286823D01*
X155289765Y-82326616D01*
X155289464Y-82367879D01*
X155289116Y-82410241D01*
X155288726Y-82453332D01*
X155288300Y-82496785D01*
X155287842Y-82540230D01*
X155287358Y-82583297D01*
X155286853Y-82625617D01*
X155286332Y-82666822D01*
X155285800Y-82706542D01*
X155285263Y-82744409D01*
X155284724Y-82780051D01*
X155284191Y-82813102D01*
X155283667Y-82843191D01*
X155283157Y-82869950D01*
X155282668Y-82893008D01*
X155282204Y-82911998D01*
X155281770Y-82926550D01*
X155281371Y-82936294D01*
X155281013Y-82940862D01*
X155280924Y-82941159D01*
X155277575Y-82941355D01*
X155269625Y-82940374D01*
X155257952Y-82938381D01*
X155243438Y-82935544D01*
X155226961Y-82932031D01*
X155209403Y-82928008D01*
X155200645Y-82925896D01*
X155155799Y-82913574D01*
X155116203Y-82899864D01*
X155081599Y-82884626D01*
X155051733Y-82867723D01*
X155026348Y-82849014D01*
X155005189Y-82828361D01*
X154993105Y-82813166D01*
X154989926Y-82808800D01*
X154987064Y-82804899D01*
X154984476Y-82801166D01*
X154982121Y-82797301D01*
X154979954Y-82793005D01*
X154977933Y-82787980D01*
X154976015Y-82781927D01*
X154974156Y-82774547D01*
X154972315Y-82765541D01*
X154970447Y-82754611D01*
X154968510Y-82741457D01*
X154966461Y-82725780D01*
X154964256Y-82707283D01*
X154961854Y-82685666D01*
X154959211Y-82660630D01*
X154956283Y-82631877D01*
X154953029Y-82599107D01*
X154949404Y-82562022D01*
X154945367Y-82520324D01*
X154940873Y-82473713D01*
X154935880Y-82421890D01*
X154933971Y-82402097D01*
X154929642Y-82357219D01*
X154925466Y-82313902D01*
X154921473Y-82272476D01*
X154917697Y-82233273D01*
X154914169Y-82196625D01*
X154910920Y-82162861D01*
X154907983Y-82132313D01*
X154905389Y-82105312D01*
X154903170Y-82082190D01*
X154901359Y-82063276D01*
X154899986Y-82048904D01*
X154899084Y-82039403D01*
X154898684Y-82035104D01*
X154898667Y-82034880D01*
X154896007Y-82034338D01*
X154888672Y-82033700D01*
X154877628Y-82033030D01*
X154863844Y-82032389D01*
X154855628Y-82032079D01*
X154824295Y-82029901D01*
X154794810Y-82025430D01*
X154766541Y-82018368D01*
X154738859Y-82008418D01*
X154711133Y-81995281D01*
X154682732Y-81978662D01*
X154653027Y-81958261D01*
X154621388Y-81933781D01*
X154588212Y-81905823D01*
X154572013Y-81891813D01*
X154559388Y-81881180D01*
X154549735Y-81873502D01*
X154542451Y-81868359D01*
X154536933Y-81865330D01*
X154532581Y-81863993D01*
X154528791Y-81863928D01*
X154528356Y-81863985D01*
X154522402Y-81867602D01*
X154518124Y-81876326D01*
X154515631Y-81889841D01*
X154515004Y-81902358D01*
X154515198Y-81906978D01*
X154515798Y-81916899D01*
X154516778Y-81931793D01*
X154518115Y-81951333D01*
X154519785Y-81975191D01*
X154521761Y-82003040D01*
X154524021Y-82034552D01*
X154526539Y-82069400D01*
X154529292Y-82107257D01*
X154532254Y-82147795D01*
X154535401Y-82190686D01*
X154538709Y-82235603D01*
X154542153Y-82282219D01*
X154545708Y-82330206D01*
X154549351Y-82379237D01*
X154553056Y-82428985D01*
X154556800Y-82479121D01*
X154560557Y-82529319D01*
X154564304Y-82579250D01*
X154568015Y-82628589D01*
X154571667Y-82677006D01*
X154575234Y-82724175D01*
X154578693Y-82769768D01*
X154582018Y-82813458D01*
X154585186Y-82854917D01*
X154588172Y-82893818D01*
X154590951Y-82929834D01*
X154593499Y-82962636D01*
X154595791Y-82991898D01*
X154597803Y-83017292D01*
X154599510Y-83038491D01*
X154600889Y-83055167D01*
X154601914Y-83066992D01*
X154602561Y-83073640D01*
X154602630Y-83074223D01*
X154611361Y-83125403D01*
X154624178Y-83172721D01*
X154641151Y-83216280D01*
X154662352Y-83256184D01*
X154687850Y-83292537D01*
X154717718Y-83325445D01*
X154752026Y-83355012D01*
X154790845Y-83381341D01*
X154823516Y-83399304D01*
X154866320Y-83418656D01*
X154914290Y-83436383D01*
X154967166Y-83452419D01*
X155024686Y-83466696D01*
X155086591Y-83479147D01*
X155152621Y-83489704D01*
X155192178Y-83494869D01*
X155204401Y-83496380D01*
X155214318Y-83497680D01*
X155220737Y-83498607D01*
X155222544Y-83498965D01*
X155222330Y-83501781D01*
X155221519Y-83509857D01*
X155220152Y-83522844D01*
X155218265Y-83540396D01*
X155215897Y-83562162D01*
X155213087Y-83587796D01*
X155209873Y-83616948D01*
X155206293Y-83649269D01*
X155202386Y-83684413D01*
X155198190Y-83722030D01*
X155193743Y-83761772D01*
X155189084Y-83803290D01*
X155186462Y-83826607D01*
X155181570Y-83870083D01*
X155176773Y-83912724D01*
X155172119Y-83954110D01*
X155167655Y-83993818D01*
X155163428Y-84031429D01*
X155159486Y-84066520D01*
X155155876Y-84098671D01*
X155152645Y-84127460D01*
X155149840Y-84152466D01*
X155147510Y-84173268D01*
X155145700Y-84189446D01*
X155144459Y-84200577D01*
X155144178Y-84203111D01*
X155138266Y-84266579D01*
X155135147Y-84325474D01*
X155134860Y-84380154D01*
X155137447Y-84430975D01*
X155142949Y-84478294D01*
X155151407Y-84522467D01*
X155162861Y-84563851D01*
X155177354Y-84602801D01*
X155194139Y-84638192D01*
X155217278Y-84676397D01*
X155244417Y-84710791D01*
X155275588Y-84741394D01*
X155310825Y-84768219D01*
X155350160Y-84791286D01*
X155393627Y-84810610D01*
X155441258Y-84826208D01*
X155493086Y-84838097D01*
X155549145Y-84846293D01*
X155609467Y-84850814D01*
X155614100Y-84851002D01*
X155669958Y-84850991D01*
X155722370Y-84846513D01*
X155771353Y-84837560D01*
X155816928Y-84824120D01*
X155859112Y-84806183D01*
X155897925Y-84783740D01*
X155933385Y-84756780D01*
X155965512Y-84725291D01*
X155994324Y-84689266D01*
X156019839Y-84648691D01*
X156034241Y-84620767D01*
X156054913Y-84571677D01*
X156072042Y-84518705D01*
X156085464Y-84462495D01*
X156095011Y-84403687D01*
X156098280Y-84373498D01*
X156099652Y-84359461D01*
X156101030Y-84347251D01*
X156102264Y-84338085D01*
X156103204Y-84333181D01*
X156103290Y-84332934D01*
X156103466Y-84333247D01*
X156103640Y-84335161D01*
X156103813Y-84338825D01*
X156103986Y-84344388D01*
X156104160Y-84351997D01*
X156104335Y-84361803D01*
X156104514Y-84373953D01*
X156104696Y-84388597D01*
X156104883Y-84405883D01*
X156105076Y-84425959D01*
X156105276Y-84448976D01*
X156105484Y-84475080D01*
X156105701Y-84504421D01*
X156105928Y-84537149D01*
X156106165Y-84573410D01*
X156106415Y-84613355D01*
X156106677Y-84657131D01*
X156106953Y-84704888D01*
X156107244Y-84756775D01*
X156107551Y-84812940D01*
X156107874Y-84873531D01*
X156108216Y-84938698D01*
X156108576Y-85008589D01*
X156108956Y-85083353D01*
X156109357Y-85163138D01*
X156109780Y-85248094D01*
X156110225Y-85338370D01*
X156110694Y-85434112D01*
X156110785Y-85452650D01*
X156112979Y-85902089D01*
X156398351Y-85901999D01*
X156445416Y-85901976D01*
X156487134Y-85901933D01*
X156523803Y-85901868D01*
X156555719Y-85901775D01*
X156583179Y-85901651D01*
X156606482Y-85901492D01*
X156625924Y-85901293D01*
X156641803Y-85901049D01*
X156654416Y-85900758D01*
X156664061Y-85900414D01*
X156671034Y-85900013D01*
X156675633Y-85899551D01*
X156678155Y-85899025D01*
X156678898Y-85898429D01*
X156678607Y-85898031D01*
X156678049Y-85897458D01*
X156677535Y-85896476D01*
X156677063Y-85894871D01*
X156676633Y-85892428D01*
X156676243Y-85888935D01*
X156675892Y-85884177D01*
X156675580Y-85877941D01*
X156675306Y-85870012D01*
X156675068Y-85860177D01*
X156674866Y-85848222D01*
X156674698Y-85833932D01*
X156674564Y-85817095D01*
X156674462Y-85797497D01*
X156674391Y-85774923D01*
X156674352Y-85749159D01*
X156674342Y-85719993D01*
X156674360Y-85687209D01*
X156674406Y-85650595D01*
X156674479Y-85609935D01*
X156674577Y-85565018D01*
X156674699Y-85515627D01*
X156674846Y-85461551D01*
X156675015Y-85402574D01*
X156675205Y-85338483D01*
X156675417Y-85269065D01*
X156675525Y-85233757D01*
X156677559Y-84573361D01*
X156709104Y-84600042D01*
X156740648Y-84626723D01*
X156742524Y-84906451D01*
X156742806Y-84950291D01*
X156743075Y-84995749D01*
X156743328Y-85042085D01*
X156743561Y-85088555D01*
X156743773Y-85134418D01*
X156743960Y-85178931D01*
X156744117Y-85221354D01*
X156744244Y-85260943D01*
X156744335Y-85296956D01*
X156744389Y-85328652D01*
X156744402Y-85350106D01*
X156744436Y-85384026D01*
X156744530Y-85422431D01*
X156744681Y-85464162D01*
X156744880Y-85508058D01*
X156745123Y-85552961D01*
X156745403Y-85597712D01*
X156745714Y-85641151D01*
X156746050Y-85682119D01*
X156746277Y-85706650D01*
X156748149Y-85899267D01*
X156933489Y-85899267D01*
X156933489Y-85314765D01*
X156933491Y-85247113D01*
X156933497Y-85184881D01*
X156933509Y-85127845D01*
X156933530Y-85075779D01*
X156933561Y-85028459D01*
X156933605Y-84985660D01*
X156933662Y-84947158D01*
X156933735Y-84912729D01*
X156933827Y-84882147D01*
X156933938Y-84855188D01*
X156934070Y-84831627D01*
X156934226Y-84811240D01*
X156934408Y-84793802D01*
X156934617Y-84779089D01*
X156934855Y-84766876D01*
X156935125Y-84756938D01*
X156935427Y-84749050D01*
X156935765Y-84742989D01*
X156936139Y-84738530D01*
X156936553Y-84735447D01*
X156937006Y-84733517D01*
X156937503Y-84732514D01*
X156938044Y-84732214D01*
X156938428Y-84732293D01*
X156948263Y-84736194D01*
X156961936Y-84741431D01*
X156977964Y-84747453D01*
X156994865Y-84753714D01*
X157011157Y-84759663D01*
X157025356Y-84764751D01*
X157035980Y-84768430D01*
X157036500Y-84768604D01*
X157047330Y-84772327D01*
X157056288Y-84775632D01*
X157061856Y-84777952D01*
X157062654Y-84778380D01*
X157063836Y-84780526D01*
X157063830Y-84785251D01*
X157062523Y-84793297D01*
X157059801Y-84805403D01*
X157056443Y-84818841D01*
X157045324Y-84866898D01*
X157037249Y-84913091D01*
X157031981Y-84959339D01*
X157029282Y-85007562D01*
X157028795Y-85042723D01*
X157031255Y-85112682D01*
X157038585Y-85180104D01*
X157050906Y-85245508D01*
X157068342Y-85309412D01*
X157091016Y-85372335D01*
X157119050Y-85434794D01*
X157124063Y-85444824D01*
X157157693Y-85505143D01*
X157195613Y-85562080D01*
X157237565Y-85615443D01*
X157283292Y-85665044D01*
X157332537Y-85710692D01*
X157385042Y-85752198D01*
X157440550Y-85789371D01*
X157498804Y-85822022D01*
X157559547Y-85849961D01*
X157622521Y-85872999D01*
X157687470Y-85890944D01*
X157743467Y-85901961D01*
X157805828Y-85909677D01*
X157868845Y-85912976D01*
X157930850Y-85911793D01*
X157953722Y-85910162D01*
X158020871Y-85901558D01*
X158086737Y-85887561D01*
X158151044Y-85868335D01*
X158213513Y-85844041D01*
X158273867Y-85814842D01*
X158331827Y-85780899D01*
X158387116Y-85742376D01*
X158439455Y-85699434D01*
X158488567Y-85652235D01*
X158534173Y-85600943D01*
X158574611Y-85547700D01*
X158611312Y-85490476D01*
X158643418Y-85430089D01*
X158670834Y-85366782D01*
X158693462Y-85300802D01*
X158711208Y-85232393D01*
X158722808Y-85169723D01*
X158727176Y-85132877D01*
X158729861Y-85092119D01*
X158730858Y-85048929D01*
X158730580Y-85031310D01*
X158140442Y-85031310D01*
X158138344Y-85090576D01*
X158132736Y-85149939D01*
X158123770Y-85208095D01*
X158111601Y-85263739D01*
X158100118Y-85304132D01*
X158084078Y-85349403D01*
X158065996Y-85390548D01*
X158046025Y-85427370D01*
X158024319Y-85459670D01*
X158001032Y-85487252D01*
X157976318Y-85509917D01*
X157950330Y-85527467D01*
X157923221Y-85539706D01*
X157914876Y-85542317D01*
X157898997Y-85545058D01*
X157880129Y-85545674D01*
X157860465Y-85544278D01*
X157842196Y-85540988D01*
X157832367Y-85537984D01*
X157805714Y-85525065D01*
X157780194Y-85506874D01*
X157755964Y-85483701D01*
X157733186Y-85455834D01*
X157712019Y-85423562D01*
X157692622Y-85387173D01*
X157675156Y-85346958D01*
X157659779Y-85303204D01*
X157646652Y-85256200D01*
X157635935Y-85206235D01*
X157630404Y-85172769D01*
X157622912Y-85105984D01*
X157619858Y-85038837D01*
X157620308Y-84996156D01*
X157621136Y-84975754D01*
X157622198Y-84955994D01*
X157623425Y-84937699D01*
X157624748Y-84921690D01*
X157626099Y-84908789D01*
X157627410Y-84899819D01*
X157628611Y-84895600D01*
X157628702Y-84895491D01*
X157631744Y-84895373D01*
X157639412Y-84895771D01*
X157650718Y-84896617D01*
X157664673Y-84897838D01*
X157673231Y-84898656D01*
X157729241Y-84903598D01*
X157790715Y-84907952D01*
X157857503Y-84911709D01*
X157929454Y-84914862D01*
X158006418Y-84917403D01*
X158056725Y-84918671D01*
X158077036Y-84919150D01*
X158095413Y-84919630D01*
X158111126Y-84920087D01*
X158123447Y-84920499D01*
X158131647Y-84920844D01*
X158134996Y-84921098D01*
X158135034Y-84921115D01*
X158135420Y-84924018D01*
X158136068Y-84931658D01*
X158136909Y-84943139D01*
X158137880Y-84957562D01*
X158138877Y-84973445D01*
X158140442Y-85031310D01*
X158730580Y-85031310D01*
X158730160Y-85004784D01*
X158727761Y-84961163D01*
X158723837Y-84921028D01*
X158722078Y-84906577D01*
X158740067Y-84904893D01*
X158748803Y-84904245D01*
X158761867Y-84903492D01*
X158777943Y-84902700D01*
X158795718Y-84901935D01*
X158810972Y-84901361D01*
X158863889Y-84899513D01*
X158863889Y-85893623D01*
X159026681Y-85893623D01*
X159028328Y-85392326D01*
X159028514Y-85339550D01*
X159028720Y-85288290D01*
X159028944Y-85238832D01*
X159029183Y-85191461D01*
X159029435Y-85146462D01*
X159029699Y-85104120D01*
X159029970Y-85064720D01*
X159030248Y-85028547D01*
X159030531Y-84995887D01*
X159030815Y-84967024D01*
X159031098Y-84942244D01*
X159031379Y-84921832D01*
X159031656Y-84906072D01*
X159031925Y-84895250D01*
X159032184Y-84889652D01*
X159032304Y-84888904D01*
X159035911Y-84887892D01*
X159043919Y-84886767D01*
X159055091Y-84885676D01*
X159066383Y-84884871D01*
X159098133Y-84882964D01*
X159098136Y-85191443D01*
X159098156Y-85237917D01*
X159098213Y-85286382D01*
X159098304Y-85336094D01*
X159098427Y-85386306D01*
X159098579Y-85436276D01*
X159098757Y-85485258D01*
X159098958Y-85532507D01*
X159099180Y-85577279D01*
X159099420Y-85618829D01*
X159099674Y-85656412D01*
X159099941Y-85689285D01*
X159100011Y-85696773D01*
X159101883Y-85893623D01*
X159665164Y-85893623D01*
X159666285Y-85178895D01*
X159666429Y-85094343D01*
X159666591Y-85014375D01*
X159666770Y-84939062D01*
X159666965Y-84868476D01*
X159667079Y-84832472D01*
X158121645Y-84832472D01*
X158121068Y-84833959D01*
X158118872Y-84835044D01*
X158114360Y-84835771D01*
X158106833Y-84836183D01*
X158095596Y-84836325D01*
X158079949Y-84836239D01*
X158064495Y-84836045D01*
X158045206Y-84835703D01*
X158021876Y-84835175D01*
X157996103Y-84834506D01*
X157969485Y-84833739D01*
X157943621Y-84832916D01*
X157928322Y-84832384D01*
X157902406Y-84831349D01*
X157875045Y-84830077D01*
X157846817Y-84828611D01*
X157818298Y-84826990D01*
X157790062Y-84825257D01*
X157762687Y-84823452D01*
X157736749Y-84821617D01*
X157712823Y-84819792D01*
X157691485Y-84818020D01*
X157673312Y-84816340D01*
X157658880Y-84814796D01*
X157648764Y-84813427D01*
X157643541Y-84812274D01*
X157643020Y-84811983D01*
X157643236Y-84808888D01*
X157644838Y-84801443D01*
X157647536Y-84790688D01*
X157651040Y-84777663D01*
X157655061Y-84763409D01*
X157659309Y-84748965D01*
X157663494Y-84735372D01*
X157667327Y-84723669D01*
X157668758Y-84719578D01*
X157684524Y-84680423D01*
X157702520Y-84644220D01*
X157722432Y-84611349D01*
X157743948Y-84582189D01*
X157766754Y-84557119D01*
X157790536Y-84536520D01*
X157814981Y-84520772D01*
X157839776Y-84510254D01*
X157842051Y-84509566D01*
X157861617Y-84505899D01*
X157883549Y-84505113D01*
X157905404Y-84507140D01*
X157924617Y-84511870D01*
X157950916Y-84524029D01*
X157976371Y-84541500D01*
X158000746Y-84563982D01*
X158023806Y-84591176D01*
X158045314Y-84622781D01*
X158065036Y-84658496D01*
X158082734Y-84698022D01*
X158093393Y-84726634D01*
X158097898Y-84740379D01*
X158102707Y-84756180D01*
X158107528Y-84772945D01*
X158112070Y-84789582D01*
X158116041Y-84805001D01*
X158119150Y-84818110D01*
X158121106Y-84827817D01*
X158121645Y-84832472D01*
X159667079Y-84832472D01*
X159667175Y-84802686D01*
X159667402Y-84741764D01*
X159667643Y-84685782D01*
X159667899Y-84634808D01*
X159668170Y-84588916D01*
X159668455Y-84548175D01*
X159668753Y-84512657D01*
X159669065Y-84482433D01*
X159669389Y-84457573D01*
X159669726Y-84438148D01*
X159670075Y-84424229D01*
X159670416Y-84416189D01*
X159672029Y-84386864D01*
X159673527Y-84352476D01*
X159674905Y-84313607D01*
X159676158Y-84270837D01*
X159677282Y-84224747D01*
X159678271Y-84175918D01*
X159679122Y-84124932D01*
X159679829Y-84072368D01*
X159680387Y-84018808D01*
X159680793Y-83964832D01*
X159681041Y-83911023D01*
X159681127Y-83857959D01*
X159681046Y-83806223D01*
X159680793Y-83756396D01*
X159680363Y-83709057D01*
X159679752Y-83664789D01*
X159678956Y-83624171D01*
X159678125Y-83593511D01*
X159594845Y-83593511D01*
X159100956Y-83593511D01*
X159100956Y-84807067D01*
X159090372Y-84807264D01*
X159085726Y-84807424D01*
X159075957Y-84807815D01*
X159061582Y-84808417D01*
X159043117Y-84809206D01*
X159021077Y-84810160D01*
X158995979Y-84811257D01*
X158968339Y-84812475D01*
X158938674Y-84813790D01*
X158907498Y-84815182D01*
X158903400Y-84815365D01*
X158872065Y-84816768D01*
X158842170Y-84818102D01*
X158814233Y-84819346D01*
X158788769Y-84820476D01*
X158766296Y-84821470D01*
X158747329Y-84822304D01*
X158732385Y-84822957D01*
X158721981Y-84823404D01*
X158716633Y-84823624D01*
X158716339Y-84823635D01*
X158708640Y-84823009D01*
X158704791Y-84820780D01*
X158704672Y-84820473D01*
X158703518Y-84816764D01*
X158700917Y-84808606D01*
X158697163Y-84796919D01*
X158692552Y-84782622D01*
X158687679Y-84767556D01*
X158664498Y-84703551D01*
X158637598Y-84643506D01*
X158606638Y-84586859D01*
X158571273Y-84533046D01*
X158531161Y-84481505D01*
X158485960Y-84431673D01*
X158478712Y-84424302D01*
X158450705Y-84396904D01*
X158424512Y-84373075D01*
X158398796Y-84351702D01*
X158372219Y-84331672D01*
X158344030Y-84312260D01*
X158285597Y-84276864D01*
X158225156Y-84246616D01*
X158163019Y-84221519D01*
X158099499Y-84201577D01*
X158034909Y-84186793D01*
X157969562Y-84177170D01*
X157903770Y-84172711D01*
X157837847Y-84173420D01*
X157772106Y-84179301D01*
X157706859Y-84190355D01*
X157642419Y-84206588D01*
X157579100Y-84228001D01*
X157517214Y-84254599D01*
X157457075Y-84286384D01*
X157430200Y-84302674D01*
X157374246Y-84341334D01*
X157321521Y-84384487D01*
X157272312Y-84431806D01*
X157226906Y-84482965D01*
X157185590Y-84537640D01*
X157148652Y-84595504D01*
X157116378Y-84656232D01*
X157114111Y-84660983D01*
X157107536Y-84674438D01*
X157101556Y-84685871D01*
X157096668Y-84694392D01*
X157093367Y-84699117D01*
X157092451Y-84699778D01*
X157087068Y-84698770D01*
X157077169Y-84695843D01*
X157063443Y-84691257D01*
X157046580Y-84685273D01*
X157027272Y-84678152D01*
X157006206Y-84670156D01*
X156984074Y-84661545D01*
X156961564Y-84652580D01*
X156939368Y-84643522D01*
X156918175Y-84634632D01*
X156903856Y-84628451D01*
X156884012Y-84619506D01*
X156861954Y-84609115D01*
X156838397Y-84597652D01*
X156814057Y-84585493D01*
X156789652Y-84573014D01*
X156765897Y-84560591D01*
X156743510Y-84548599D01*
X156723205Y-84537414D01*
X156705701Y-84527412D01*
X156691712Y-84518967D01*
X156681956Y-84512457D01*
X156680408Y-84511289D01*
X156674271Y-84506500D01*
X156672244Y-84011906D01*
X156672100Y-83976657D01*
X156103652Y-83976657D01*
X156103592Y-84003591D01*
X156103431Y-84025784D01*
X156103168Y-84043366D01*
X156102803Y-84056464D01*
X156102335Y-84065209D01*
X156101765Y-84069729D01*
X156101371Y-84070467D01*
X156097873Y-84068581D01*
X156093991Y-84064948D01*
X156089516Y-84061000D01*
X156081641Y-84054972D01*
X156071695Y-84047861D01*
X156065974Y-84043951D01*
X156030689Y-84023375D01*
X155993991Y-84007959D01*
X155956330Y-83997739D01*
X155918160Y-83992753D01*
X155879932Y-83993035D01*
X155842099Y-83998622D01*
X155805113Y-84009551D01*
X155778817Y-84020967D01*
X155759318Y-84031603D01*
X155740369Y-84043687D01*
X155722735Y-84056577D01*
X155707181Y-84069634D01*
X155694470Y-84082217D01*
X155685367Y-84093686D01*
X155680689Y-84103201D01*
X155678146Y-84118991D01*
X155678545Y-84137878D01*
X155681942Y-84160291D01*
X155688396Y-84186660D01*
X155694642Y-84207325D01*
X155698072Y-84218173D01*
X155700470Y-84226775D01*
X155701980Y-84234498D01*
X155702745Y-84242711D01*
X155702906Y-84252782D01*
X155702607Y-84266078D01*
X155702157Y-84279292D01*
X155700645Y-84305918D01*
X155697951Y-84328769D01*
X155693746Y-84349648D01*
X155687699Y-84370359D01*
X155683222Y-84382996D01*
X155677017Y-84398001D01*
X155669213Y-84414521D01*
X155660786Y-84430652D01*
X155652710Y-84444488D01*
X155648536Y-84450761D01*
X155641116Y-84459207D01*
X155633926Y-84462448D01*
X155625690Y-84460719D01*
X155618133Y-84456353D01*
X155606432Y-84445159D01*
X155596710Y-84428682D01*
X155588968Y-84406922D01*
X155583207Y-84379880D01*
X155579425Y-84347554D01*
X155577624Y-84309944D01*
X155577802Y-84267051D01*
X155579960Y-84218874D01*
X155584099Y-84165413D01*
X155590217Y-84106668D01*
X155598316Y-84042639D01*
X155608395Y-83973324D01*
X155620453Y-83898725D01*
X155634492Y-83818841D01*
X155650511Y-83733672D01*
X155668511Y-83643217D01*
X155676421Y-83604800D01*
X155680607Y-83584708D01*
X155684485Y-83566183D01*
X155687886Y-83550020D01*
X155690645Y-83537012D01*
X155692592Y-83527954D01*
X155693555Y-83523661D01*
X155695145Y-83517311D01*
X156100007Y-83517311D01*
X156101881Y-83708277D01*
X156102429Y-83766364D01*
X156102875Y-83818936D01*
X156103221Y-83866122D01*
X156103466Y-83908052D01*
X156103610Y-83944854D01*
X156103652Y-83976657D01*
X156672100Y-83976657D01*
X156670218Y-83517311D01*
X157686135Y-83517311D01*
X157698573Y-83510756D01*
X157710044Y-83502429D01*
X157721353Y-83490257D01*
X157731134Y-83475910D01*
X157737058Y-83463689D01*
X157738028Y-83460827D01*
X157738868Y-83457304D01*
X157739591Y-83452706D01*
X157740207Y-83446616D01*
X157740730Y-83438620D01*
X157741169Y-83428301D01*
X157741538Y-83415245D01*
X157741848Y-83399035D01*
X157742111Y-83379258D01*
X157742338Y-83355496D01*
X157742541Y-83327336D01*
X157742732Y-83294360D01*
X157742922Y-83256256D01*
X157743100Y-83216488D01*
X157743217Y-83181942D01*
X157743253Y-83152196D01*
X157743187Y-83126829D01*
X157742999Y-83105417D01*
X157742669Y-83087540D01*
X157742177Y-83072774D01*
X157741502Y-83060699D01*
X157740624Y-83050891D01*
X157739523Y-83042929D01*
X157738179Y-83036391D01*
X157736571Y-83030855D01*
X157734679Y-83025898D01*
X157732483Y-83021099D01*
X157731545Y-83019189D01*
X157723978Y-83007213D01*
X157713780Y-82995304D01*
X157702800Y-82985470D01*
X157696900Y-82981562D01*
X157695274Y-82980850D01*
X157692893Y-82980208D01*
X157689455Y-82979632D01*
X157684658Y-82979117D01*
X157678200Y-82978657D01*
X157669779Y-82978247D01*
X157659094Y-82977881D01*
X157645841Y-82977554D01*
X157629720Y-82977260D01*
X157610428Y-82976996D01*
X157587664Y-82976754D01*
X157561125Y-82976530D01*
X157530510Y-82976318D01*
X157495516Y-82976113D01*
X157455842Y-82975910D01*
X157411185Y-82975703D01*
X157361244Y-82975488D01*
X157350984Y-82975445D01*
X157013534Y-82974034D01*
X157179640Y-82512600D01*
X157201183Y-82452695D01*
X157221476Y-82396147D01*
X157240465Y-82343104D01*
X157258097Y-82293719D01*
X157274321Y-82248141D01*
X157289082Y-82206521D01*
X157302327Y-82169009D01*
X157314005Y-82135756D01*
X157324061Y-82106912D01*
X157332442Y-82082628D01*
X157339096Y-82063054D01*
X157343970Y-82048340D01*
X157347010Y-82038638D01*
X157348147Y-82034234D01*
X157349131Y-82012575D01*
X157345705Y-81990803D01*
X157337651Y-81967784D01*
X157333806Y-81959445D01*
X157328138Y-81948505D01*
X157322261Y-81939075D01*
X157315163Y-81929836D01*
X157305833Y-81919468D01*
X157293621Y-81907012D01*
X157268818Y-81884493D01*
X157240322Y-81862818D01*
X157207832Y-81841825D01*
X157171043Y-81821349D01*
X157129653Y-81801226D01*
X157083358Y-81781292D01*
X157031855Y-81761385D01*
X157008278Y-81752879D01*
X156962160Y-81737480D01*
X156911329Y-81722182D01*
X156856713Y-81707205D01*
X156799243Y-81692767D01*
X156739847Y-81679087D01*
X156679456Y-81666384D01*
X156618999Y-81654877D01*
X156559404Y-81644785D01*
X156531322Y-81640500D01*
X156513778Y-81638005D01*
X156494493Y-81635400D01*
X156474412Y-81632798D01*
X156454484Y-81630313D01*
X156435653Y-81628060D01*
X156418866Y-81626152D01*
X156405070Y-81624702D01*
X156395210Y-81623826D01*
X156390974Y-81623613D01*
X156383270Y-81623600D01*
X156396251Y-81643667D01*
X156415430Y-81677242D01*
X156432942Y-81716002D01*
X156448726Y-81759720D01*
X156462725Y-81808170D01*
X156474880Y-81861126D01*
X156485131Y-81918363D01*
X156493420Y-81979655D01*
X156499299Y-82039878D01*
X156500399Y-82057542D01*
X156501273Y-82079824D01*
X156501921Y-82105703D01*
X156502342Y-82134156D01*
X156502538Y-82164161D01*
X156502509Y-82194697D01*
X156502254Y-82224742D01*
X156501774Y-82253273D01*
X156501070Y-82279270D01*
X156500141Y-82301710D01*
X156499233Y-82316456D01*
X156489618Y-82420753D01*
X156476231Y-82527975D01*
X156459262Y-82637024D01*
X156438897Y-82746800D01*
X156415324Y-82856205D01*
X156388730Y-82964140D01*
X156388541Y-82964861D01*
X156385760Y-82975445D01*
X156353325Y-82975445D01*
X156338376Y-82975274D01*
X156328292Y-82974703D01*
X156322298Y-82973647D01*
X156319624Y-82972016D01*
X156319426Y-82971630D01*
X156319568Y-82967657D01*
X156320948Y-82959302D01*
X156323353Y-82947637D01*
X156326572Y-82933737D01*
X156328120Y-82927478D01*
X156346942Y-82848962D01*
X156364165Y-82769451D01*
X156379714Y-82689532D01*
X156393518Y-82609788D01*
X156405502Y-82530803D01*
X156415595Y-82453162D01*
X156423722Y-82377450D01*
X156429812Y-82304251D01*
X156433792Y-82234149D01*
X156435587Y-82167730D01*
X156435152Y-82108955D01*
X156011516Y-82108955D01*
X156010513Y-82138473D01*
X156004440Y-82167330D01*
X155994536Y-82192158D01*
X155978886Y-82217467D01*
X155959423Y-82238824D01*
X155936573Y-82255904D01*
X155910765Y-82268385D01*
X155884290Y-82275614D01*
X155868659Y-82277055D01*
X155850162Y-82276644D01*
X155831191Y-82274575D01*
X155814142Y-82271041D01*
X155809268Y-82269560D01*
X155787692Y-82260662D01*
X155769172Y-82249107D01*
X155751519Y-82233519D01*
X155750782Y-82232774D01*
X155733098Y-82210914D01*
X155719509Y-82185903D01*
X155710230Y-82158686D01*
X155705474Y-82130209D01*
X155705453Y-82101417D01*
X155710382Y-82073256D01*
X155712913Y-82064907D01*
X155724966Y-82037074D01*
X155741018Y-82012839D01*
X155760636Y-81992522D01*
X155783392Y-81976441D01*
X155808855Y-81964917D01*
X155836594Y-81958268D01*
X155858789Y-81956672D01*
X155886669Y-81959332D01*
X155913494Y-81967191D01*
X155938450Y-81979808D01*
X155960725Y-81996741D01*
X155979506Y-82017551D01*
X155984605Y-82024896D01*
X155998512Y-82051320D01*
X156007498Y-82079621D01*
X156011516Y-82108955D01*
X156435152Y-82108955D01*
X156435126Y-82105577D01*
X156434110Y-82078024D01*
X156429778Y-82012017D01*
X156423209Y-81950928D01*
X156414327Y-81894458D01*
X156403055Y-81842310D01*
X156389318Y-81794188D01*
X156373038Y-81749792D01*
X156354141Y-81708827D01*
X156332548Y-81670994D01*
X156327800Y-81663625D01*
X156304617Y-81632978D01*
X156276112Y-81603310D01*
X156242550Y-81574786D01*
X156204195Y-81547569D01*
X156161311Y-81521824D01*
X156114161Y-81497717D01*
X156063011Y-81475410D01*
X156008123Y-81455070D01*
X155976756Y-81444879D01*
X155917166Y-81427934D01*
X155857801Y-81413984D01*
X155799084Y-81403036D01*
X155741438Y-81395097D01*
X155685287Y-81390175D01*
X155631053Y-81388275D01*
X155579160Y-81389407D01*
X155530032Y-81393576D01*
X155484090Y-81400790D01*
X155441760Y-81411056D01*
X155403463Y-81424381D01*
X155380627Y-81434841D01*
X155370110Y-81440203D01*
X155371321Y-81432419D01*
X155371951Y-81426493D01*
X155372725Y-81416431D01*
X155373538Y-81403736D01*
X155374162Y-81392312D01*
X155379458Y-81333161D01*
X155389207Y-81275598D01*
X155403246Y-81220108D01*
X155421412Y-81167179D01*
X155443541Y-81117299D01*
X155469471Y-81070955D01*
X155493775Y-81035506D01*
X155525382Y-80997335D01*
X155560502Y-80962356D01*
X155599277Y-80930508D01*
X155641853Y-80901730D01*
X155688374Y-80875961D01*
X155738982Y-80853141D01*
X155793822Y-80833208D01*
X155853037Y-80816101D01*
X155916773Y-80801760D01*
X155985172Y-80790124D01*
X156058379Y-80781131D01*
X156104492Y-80776993D01*
X156122764Y-80775779D01*
X156145654Y-80774601D01*
X156172202Y-80773483D01*
X156201447Y-80772447D01*
X156232431Y-80771516D01*
X156264193Y-80770712D01*
X156295774Y-80770059D01*
X156326212Y-80769579D01*
X156354548Y-80769296D01*
X156379823Y-80769231D01*
X156401076Y-80769407D01*
X156412789Y-80769678D01*
X156503333Y-80774857D01*
X156596843Y-80784633D01*
X156693109Y-80798937D01*
X156791923Y-80817700D01*
X156893075Y-80840851D01*
X156996359Y-80868322D01*
X157101563Y-80900041D01*
X157208480Y-80935941D01*
X157316901Y-80975951D01*
X157426617Y-81020001D01*
X157537420Y-81068023D01*
X157649100Y-81119945D01*
X157761449Y-81175698D01*
X157874258Y-81235214D01*
X157973509Y-81290509D01*
X158090187Y-81359202D01*
X158204386Y-81430569D01*
X158315832Y-81504385D01*
X158424251Y-81580425D01*
X158529370Y-81658464D01*
X158630916Y-81738277D01*
X158728614Y-81819639D01*
X158822192Y-81902326D01*
X158911376Y-81986112D01*
X158995892Y-82070772D01*
X159075468Y-82156082D01*
X159149828Y-82241816D01*
X159189765Y-82290775D01*
X159247919Y-82366637D01*
X159301572Y-82442568D01*
X159350619Y-82518366D01*
X159394954Y-82593823D01*
X159434472Y-82668735D01*
X159469068Y-82742896D01*
X159498636Y-82816102D01*
X159523070Y-82888146D01*
X159542266Y-82958825D01*
X159549338Y-82990967D01*
X159552749Y-83008527D01*
X159556033Y-83026855D01*
X159559064Y-83045074D01*
X159561715Y-83062309D01*
X159563856Y-83077685D01*
X159565362Y-83090326D01*
X159566106Y-83099357D01*
X159565959Y-83103902D01*
X159565801Y-83104206D01*
X159562930Y-83103473D01*
X159556750Y-83100165D01*
X159548550Y-83094980D01*
X159547839Y-83094500D01*
X159521784Y-83078856D01*
X159490914Y-83063749D01*
X159456052Y-83049412D01*
X159418018Y-83036078D01*
X159377634Y-83023979D01*
X159335722Y-83013349D01*
X159293103Y-83004419D01*
X159250599Y-82997423D01*
X159209032Y-82992594D01*
X159181318Y-82990647D01*
X159154728Y-82990119D01*
X159131687Y-82991287D01*
X159112612Y-82994072D01*
X159097919Y-82998397D01*
X159088026Y-83004185D01*
X159084399Y-83008635D01*
X159083963Y-83012363D01*
X159083661Y-83021495D01*
X159083492Y-83035792D01*
X159083454Y-83055014D01*
X159083547Y-83078922D01*
X159083769Y-83107278D01*
X159084119Y-83139843D01*
X159084596Y-83176376D01*
X159085198Y-83216640D01*
X159085613Y-83242145D01*
X159086213Y-83278158D01*
X159086787Y-83312967D01*
X159087327Y-83346096D01*
X159087826Y-83377071D01*
X159088277Y-83405416D01*
X159088672Y-83430657D01*
X159089003Y-83452318D01*
X159089263Y-83469925D01*
X159089445Y-83483002D01*
X159089542Y-83491075D01*
X159089554Y-83492617D01*
X159089667Y-83514489D01*
X159591171Y-83514489D01*
X159592993Y-83542006D01*
X159593804Y-83555487D01*
X159594433Y-83568283D01*
X159594786Y-83578378D01*
X159594830Y-83581517D01*
X159594845Y-83593511D01*
X159678125Y-83593511D01*
X159677969Y-83587786D01*
X159677278Y-83568111D01*
X159675033Y-83513048D01*
X159672596Y-83458669D01*
X159669995Y-83405427D01*
X159667260Y-83353772D01*
X159664419Y-83304153D01*
X159661502Y-83257023D01*
X159658538Y-83212830D01*
X159655556Y-83172027D01*
X159652584Y-83135063D01*
X159649652Y-83102388D01*
X159646790Y-83074455D01*
X159644024Y-83051712D01*
X159644015Y-83051645D01*
X159631080Y-82976080D01*
X159612653Y-82899595D01*
X159588798Y-82822282D01*
X159559576Y-82744231D01*
X159525049Y-82665533D01*
X159485279Y-82586280D01*
X159440328Y-82506563D01*
X159390259Y-82426473D01*
X159335134Y-82346101D01*
X159275014Y-82265538D01*
X159209962Y-82184876D01*
X159140040Y-82104206D01*
X159065309Y-82023619D01*
X158985832Y-81943206D01*
X158901672Y-81863058D01*
X158812889Y-81783266D01*
X158735270Y-81716988D01*
X158626247Y-81628862D01*
X158513159Y-81543006D01*
X158396485Y-81459688D01*
X158276702Y-81379179D01*
X158154288Y-81301746D01*
X158029721Y-81227659D01*
X157903480Y-81157188D01*
X157776042Y-81090601D01*
X157647886Y-81028167D01*
X157519489Y-80970156D01*
X157391329Y-80916836D01*
X157263885Y-80868477D01*
X157170556Y-80836123D01*
X157060496Y-80801363D01*
X156953302Y-80771226D01*
X156848692Y-80745650D01*
X156746383Y-80724575D01*
X156646093Y-80707937D01*
X156547540Y-80695676D01*
X156511567Y-80692246D01*
X156479285Y-80689993D01*
X156442280Y-80688401D01*
X156401430Y-80687448D01*
X156357615Y-80687113D01*
X156311713Y-80687372D01*
G04 #@! TO.C,U2*
D13*
X163983333Y-72216666D02*
X163983333Y-72783333D01*
X163950000Y-72850000D01*
X163916666Y-72883333D01*
X163850000Y-72916666D01*
X163716666Y-72916666D01*
X163650000Y-72883333D01*
X163616666Y-72850000D01*
X163583333Y-72783333D01*
X163583333Y-72216666D01*
X163283333Y-72283333D02*
X163250000Y-72250000D01*
X163183333Y-72216666D01*
X163016666Y-72216666D01*
X162950000Y-72250000D01*
X162916666Y-72283333D01*
X162883333Y-72350000D01*
X162883333Y-72416666D01*
X162916666Y-72516666D01*
X163316666Y-72916666D01*
X162883333Y-72916666D01*
G04 #@! TO.C,U4*
X150383333Y-69366666D02*
X150383333Y-69933333D01*
X150350000Y-70000000D01*
X150316666Y-70033333D01*
X150250000Y-70066666D01*
X150116666Y-70066666D01*
X150050000Y-70033333D01*
X150016666Y-70000000D01*
X149983333Y-69933333D01*
X149983333Y-69366666D01*
X149350000Y-69600000D02*
X149350000Y-70066666D01*
X149516666Y-69333333D02*
X149683333Y-69833333D01*
X149250000Y-69833333D01*
G04 #@! TO.C,U3*
X150433333Y-72216666D02*
X150433333Y-72783333D01*
X150400000Y-72850000D01*
X150366666Y-72883333D01*
X150300000Y-72916666D01*
X150166666Y-72916666D01*
X150100000Y-72883333D01*
X150066666Y-72850000D01*
X150033333Y-72783333D01*
X150033333Y-72216666D01*
X149766666Y-72216666D02*
X149333333Y-72216666D01*
X149566666Y-72483333D01*
X149466666Y-72483333D01*
X149400000Y-72516666D01*
X149366666Y-72550000D01*
X149333333Y-72616666D01*
X149333333Y-72783333D01*
X149366666Y-72850000D01*
X149400000Y-72883333D01*
X149466666Y-72916666D01*
X149666666Y-72916666D01*
X149733333Y-72883333D01*
X149766666Y-72850000D01*
G04 #@! TO.C,C1*
X145720000Y-84908333D02*
X145753333Y-84875000D01*
X145786666Y-84775000D01*
X145786666Y-84708333D01*
X145753333Y-84608333D01*
X145686666Y-84541666D01*
X145620000Y-84508333D01*
X145486666Y-84475000D01*
X145386666Y-84475000D01*
X145253333Y-84508333D01*
X145186666Y-84541666D01*
X145120000Y-84608333D01*
X145086666Y-84708333D01*
X145086666Y-84775000D01*
X145120000Y-84875000D01*
X145153333Y-84908333D01*
X145786666Y-85575000D02*
X145786666Y-85175000D01*
X145786666Y-85375000D02*
X145086666Y-85375000D01*
X145186666Y-85308333D01*
X145253333Y-85241666D01*
X145286666Y-85175000D01*
G04 #@! TO.C,U1*
X164933333Y-69416666D02*
X164933333Y-69983333D01*
X164900000Y-70050000D01*
X164866666Y-70083333D01*
X164800000Y-70116666D01*
X164666666Y-70116666D01*
X164600000Y-70083333D01*
X164566666Y-70050000D01*
X164533333Y-69983333D01*
X164533333Y-69416666D01*
X163833333Y-70116666D02*
X164233333Y-70116666D01*
X164033333Y-70116666D02*
X164033333Y-69416666D01*
X164100000Y-69516666D01*
X164166666Y-69583333D01*
X164233333Y-69616666D01*
G04 #@! TO.C,C2*
X148066666Y-70750000D02*
X148100000Y-70783333D01*
X148200000Y-70816666D01*
X148266666Y-70816666D01*
X148366666Y-70783333D01*
X148433333Y-70716666D01*
X148466666Y-70650000D01*
X148500000Y-70516666D01*
X148500000Y-70416666D01*
X148466666Y-70283333D01*
X148433333Y-70216666D01*
X148366666Y-70150000D01*
X148266666Y-70116666D01*
X148200000Y-70116666D01*
X148100000Y-70150000D01*
X148066666Y-70183333D01*
X147800000Y-70183333D02*
X147766666Y-70150000D01*
X147700000Y-70116666D01*
X147533333Y-70116666D01*
X147466666Y-70150000D01*
X147433333Y-70183333D01*
X147400000Y-70250000D01*
X147400000Y-70316666D01*
X147433333Y-70416666D01*
X147833333Y-70816666D01*
X147400000Y-70816666D01*
G04 #@! TO.C,C4*
X151750000Y-85833333D02*
X151783333Y-85800000D01*
X151816666Y-85700000D01*
X151816666Y-85633333D01*
X151783333Y-85533333D01*
X151716666Y-85466666D01*
X151650000Y-85433333D01*
X151516666Y-85400000D01*
X151416666Y-85400000D01*
X151283333Y-85433333D01*
X151216666Y-85466666D01*
X151150000Y-85533333D01*
X151116666Y-85633333D01*
X151116666Y-85700000D01*
X151150000Y-85800000D01*
X151183333Y-85833333D01*
X151350000Y-86433333D02*
X151816666Y-86433333D01*
X151083333Y-86266666D02*
X151583333Y-86100000D01*
X151583333Y-86533333D01*
G04 #@! TO.C,L1*
X146891666Y-82066666D02*
X147225000Y-82066666D01*
X147225000Y-81366666D01*
X146291666Y-82066666D02*
X146691666Y-82066666D01*
X146491666Y-82066666D02*
X146491666Y-81366666D01*
X146558333Y-81466666D01*
X146625000Y-81533333D01*
X146691666Y-81566666D01*
G04 #@! TO.C,L2*
X156591666Y-76666666D02*
X156925000Y-76666666D01*
X156925000Y-75966666D01*
X156391666Y-76033333D02*
X156358333Y-76000000D01*
X156291666Y-75966666D01*
X156125000Y-75966666D01*
X156058333Y-76000000D01*
X156025000Y-76033333D01*
X155991666Y-76100000D01*
X155991666Y-76166666D01*
X156025000Y-76266666D01*
X156425000Y-76666666D01*
X155991666Y-76666666D01*
G04 #@! TO.C,L3*
X149566666Y-85833333D02*
X149566666Y-85500000D01*
X148866666Y-85500000D01*
X148866666Y-86000000D02*
X148866666Y-86433333D01*
X149133333Y-86200000D01*
X149133333Y-86300000D01*
X149166666Y-86366666D01*
X149200000Y-86400000D01*
X149266666Y-86433333D01*
X149433333Y-86433333D01*
X149500000Y-86400000D01*
X149533333Y-86366666D01*
X149566666Y-86300000D01*
X149566666Y-86100000D01*
X149533333Y-86033333D01*
X149500000Y-86000000D01*
G04 #@! TO.C,R4*
X155166666Y-65333333D02*
X154833333Y-65100000D01*
X155166666Y-64933333D02*
X154466666Y-64933333D01*
X154466666Y-65200000D01*
X154500000Y-65266666D01*
X154533333Y-65300000D01*
X154600000Y-65333333D01*
X154700000Y-65333333D01*
X154766666Y-65300000D01*
X154800000Y-65266666D01*
X154833333Y-65200000D01*
X154833333Y-64933333D01*
X154700000Y-65933333D02*
X155166666Y-65933333D01*
X154433333Y-65766666D02*
X154933333Y-65600000D01*
X154933333Y-66033333D01*
G04 #@! TO.C,R5*
X156566666Y-72383333D02*
X156233333Y-72150000D01*
X156566666Y-71983333D02*
X155866666Y-71983333D01*
X155866666Y-72250000D01*
X155900000Y-72316666D01*
X155933333Y-72350000D01*
X156000000Y-72383333D01*
X156100000Y-72383333D01*
X156166666Y-72350000D01*
X156200000Y-72316666D01*
X156233333Y-72250000D01*
X156233333Y-71983333D01*
X155866666Y-73016666D02*
X155866666Y-72683333D01*
X156200000Y-72650000D01*
X156166666Y-72683333D01*
X156133333Y-72750000D01*
X156133333Y-72916666D01*
X156166666Y-72983333D01*
X156200000Y-73016666D01*
X156266666Y-73050000D01*
X156433333Y-73050000D01*
X156500000Y-73016666D01*
X156533333Y-72983333D01*
X156566666Y-72916666D01*
X156566666Y-72750000D01*
X156533333Y-72683333D01*
X156500000Y-72650000D01*
G04 #@! TO.C,R6*
X158216666Y-72383333D02*
X157883333Y-72150000D01*
X158216666Y-71983333D02*
X157516666Y-71983333D01*
X157516666Y-72250000D01*
X157550000Y-72316666D01*
X157583333Y-72350000D01*
X157650000Y-72383333D01*
X157750000Y-72383333D01*
X157816666Y-72350000D01*
X157850000Y-72316666D01*
X157883333Y-72250000D01*
X157883333Y-71983333D01*
X157516666Y-72983333D02*
X157516666Y-72850000D01*
X157550000Y-72783333D01*
X157583333Y-72750000D01*
X157683333Y-72683333D01*
X157816666Y-72650000D01*
X158083333Y-72650000D01*
X158150000Y-72683333D01*
X158183333Y-72716666D01*
X158216666Y-72783333D01*
X158216666Y-72916666D01*
X158183333Y-72983333D01*
X158150000Y-73016666D01*
X158083333Y-73050000D01*
X157916666Y-73050000D01*
X157850000Y-73016666D01*
X157816666Y-72983333D01*
X157783333Y-72916666D01*
X157783333Y-72783333D01*
X157816666Y-72716666D01*
X157850000Y-72683333D01*
X157916666Y-72650000D01*
G04 #@! TO.C,R7*
X159866666Y-65283333D02*
X159533333Y-65050000D01*
X159866666Y-64883333D02*
X159166666Y-64883333D01*
X159166666Y-65150000D01*
X159200000Y-65216666D01*
X159233333Y-65250000D01*
X159300000Y-65283333D01*
X159400000Y-65283333D01*
X159466666Y-65250000D01*
X159500000Y-65216666D01*
X159533333Y-65150000D01*
X159533333Y-64883333D01*
X159166666Y-65516666D02*
X159166666Y-65983333D01*
X159866666Y-65683333D01*
G04 #@! TD*
M02*
