G04 #@! TF.GenerationSoftware,KiCad,Pcbnew,(5.0.0)*
G04 #@! TF.CreationDate,2018-11-26T10:25:21+01:00*
G04 #@! TF.ProjectId,Insole_PCB,496E736F6C655F5043422E6B69636164,rev?*
G04 #@! TF.SameCoordinates,Original*
G04 #@! TF.FileFunction,Legend,Top*
G04 #@! TF.FilePolarity,Positive*
%FSLAX46Y46*%
G04 Gerber Fmt 4.6, Leading zero omitted, Abs format (unit mm)*
G04 Created by KiCad (PCBNEW (5.0.0)) date 11/26/18 10:25:21*
%MOMM*%
%LPD*%
G01*
G04 APERTURE LIST*
%ADD10C,0.200000*%
%ADD11C,0.120000*%
%ADD12C,0.150000*%
%ADD13C,0.100000*%
G04 APERTURE END LIST*
D10*
X154990476Y-73202380D02*
X154657142Y-72726190D01*
X154419047Y-73202380D02*
X154419047Y-72202380D01*
X154800000Y-72202380D01*
X154895238Y-72250000D01*
X154942857Y-72297619D01*
X154990476Y-72392857D01*
X154990476Y-72535714D01*
X154942857Y-72630952D01*
X154895238Y-72678571D01*
X154800000Y-72726190D01*
X154419047Y-72726190D01*
X155800000Y-73154761D02*
X155704761Y-73202380D01*
X155514285Y-73202380D01*
X155419047Y-73154761D01*
X155371428Y-73059523D01*
X155371428Y-72678571D01*
X155419047Y-72583333D01*
X155514285Y-72535714D01*
X155704761Y-72535714D01*
X155800000Y-72583333D01*
X155847619Y-72678571D01*
X155847619Y-72773809D01*
X155371428Y-72869047D01*
X156180952Y-72535714D02*
X156419047Y-73202380D01*
X156657142Y-72535714D01*
X157038095Y-73107142D02*
X157085714Y-73154761D01*
X157038095Y-73202380D01*
X156990476Y-73154761D01*
X157038095Y-73107142D01*
X157038095Y-73202380D01*
X157038095Y-72583333D02*
X157085714Y-72630952D01*
X157038095Y-72678571D01*
X156990476Y-72630952D01*
X157038095Y-72583333D01*
X157038095Y-72678571D01*
X158704761Y-72535714D02*
X158704761Y-73202380D01*
X158466666Y-72154761D02*
X158228571Y-72869047D01*
X158847619Y-72869047D01*
X159228571Y-73107142D02*
X159276190Y-73154761D01*
X159228571Y-73202380D01*
X159180952Y-73154761D01*
X159228571Y-73107142D01*
X159228571Y-73202380D01*
X159895238Y-72202380D02*
X159990476Y-72202380D01*
X160085714Y-72250000D01*
X160133333Y-72297619D01*
X160180952Y-72392857D01*
X160228571Y-72583333D01*
X160228571Y-72821428D01*
X160180952Y-73011904D01*
X160133333Y-73107142D01*
X160085714Y-73154761D01*
X159990476Y-73202380D01*
X159895238Y-73202380D01*
X159800000Y-73154761D01*
X159752380Y-73107142D01*
X159704761Y-73011904D01*
X159657142Y-72821428D01*
X159657142Y-72583333D01*
X159704761Y-72392857D01*
X159752380Y-72297619D01*
X159800000Y-72250000D01*
X159895238Y-72202380D01*
D11*
G04 #@! TO.C,C3*
X146046267Y-86940000D02*
X145703733Y-86940000D01*
X146046267Y-87960000D02*
X145703733Y-87960000D01*
G04 #@! TO.C,J1*
X147560000Y-72795000D02*
X147560000Y-72494493D01*
X147560000Y-71705507D02*
X147560000Y-71405000D01*
X146685000Y-72795000D02*
X147560000Y-72795000D01*
X146685000Y-71405000D02*
X147560000Y-71405000D01*
X146685000Y-72795000D02*
X146685000Y-72708276D01*
X146685000Y-71491724D02*
X146685000Y-71405000D01*
X146000000Y-72795000D02*
X145315000Y-72795000D01*
X145315000Y-72795000D02*
X145315000Y-72100000D01*
G04 #@! TO.C,J2*
X147235000Y-88705000D02*
X147235000Y-89400000D01*
X146550000Y-88705000D02*
X147235000Y-88705000D01*
X145865000Y-90008276D02*
X145865000Y-90095000D01*
X145865000Y-88705000D02*
X145865000Y-88791724D01*
X145865000Y-90095000D02*
X144990000Y-90095000D01*
X145865000Y-88705000D02*
X144990000Y-88705000D01*
X144990000Y-89794493D02*
X144990000Y-90095000D01*
X144990000Y-88705000D02*
X144990000Y-89005507D01*
G04 #@! TO.C,J3*
X167405000Y-81760000D02*
X167705507Y-81760000D01*
X168494493Y-81760000D02*
X168795000Y-81760000D01*
X167405000Y-78885000D02*
X167405000Y-81760000D01*
X168795000Y-78885000D02*
X168795000Y-81760000D01*
X167405000Y-78885000D02*
X167491724Y-78885000D01*
X168708276Y-78885000D02*
X168795000Y-78885000D01*
X167405000Y-78200000D02*
X167405000Y-77515000D01*
X167405000Y-77515000D02*
X168100000Y-77515000D01*
G04 #@! TO.C,J4*
X166160000Y-69300000D02*
X167650000Y-69300000D01*
X167650000Y-69300000D02*
X167650000Y-67960000D01*
X147840000Y-69300000D02*
X146350000Y-69300000D01*
X146350000Y-69300000D02*
X146350000Y-67960000D01*
X167650000Y-65240000D02*
X167650000Y-63500000D01*
X167650000Y-63500000D02*
X146350000Y-63500000D01*
X146350000Y-63500000D02*
X146350000Y-65240000D01*
X166160000Y-69300000D02*
X166160000Y-70500000D01*
G04 #@! TO.C,R1*
X146403733Y-79190000D02*
X146746267Y-79190000D01*
X146403733Y-80210000D02*
X146746267Y-80210000D01*
G04 #@! TO.C,R2*
X145990000Y-85196267D02*
X145990000Y-84853733D01*
X147010000Y-85196267D02*
X147010000Y-84853733D01*
G04 #@! TO.C,R3*
X146653733Y-82410000D02*
X146996267Y-82410000D01*
X146653733Y-81390000D02*
X146996267Y-81390000D01*
G04 #@! TO.C,R9*
X165590000Y-79428733D02*
X165590000Y-79771267D01*
X166610000Y-79428733D02*
X166610000Y-79771267D01*
G04 #@! TO.C,R10*
X166610000Y-76103733D02*
X166610000Y-76446267D01*
X165590000Y-76103733D02*
X165590000Y-76446267D01*
D12*
G04 #@! TO.C,U5*
X151900000Y-86400000D02*
X161900000Y-86400000D01*
X161900000Y-86400000D02*
X161900000Y-76400000D01*
X161900000Y-76400000D02*
X151900000Y-76400000D01*
X151900000Y-76400000D02*
X151900000Y-86400000D01*
D11*
G04 #@! TO.C,U6*
X145190000Y-75720000D02*
X145190000Y-78150000D01*
X148260000Y-77480000D02*
X148260000Y-75720000D01*
D13*
G04 #@! TO.C,U7*
X147600000Y-83362500D02*
X148420000Y-83362500D01*
X147700000Y-86062500D02*
X148420000Y-86062500D01*
X147700000Y-86062500D02*
X147700000Y-85842500D01*
X150900000Y-85842500D02*
X150900000Y-86062500D01*
X150900000Y-86062500D02*
X150180000Y-86062500D01*
X150180000Y-83362500D02*
X150900000Y-83362500D01*
X150900000Y-83362500D02*
X150900000Y-83582500D01*
D11*
G04 #@! TO.C,U8*
X150980000Y-87040000D02*
X149220000Y-87040000D01*
X149220000Y-90110000D02*
X151650000Y-90110000D01*
G04 #@! TO.C,C3*
D13*
X144733333Y-86550000D02*
X144700000Y-86583333D01*
X144600000Y-86616666D01*
X144533333Y-86616666D01*
X144433333Y-86583333D01*
X144366666Y-86516666D01*
X144333333Y-86450000D01*
X144300000Y-86316666D01*
X144300000Y-86216666D01*
X144333333Y-86083333D01*
X144366666Y-86016666D01*
X144433333Y-85950000D01*
X144533333Y-85916666D01*
X144600000Y-85916666D01*
X144700000Y-85950000D01*
X144733333Y-85983333D01*
X144966666Y-85916666D02*
X145400000Y-85916666D01*
X145166666Y-86183333D01*
X145266666Y-86183333D01*
X145333333Y-86216666D01*
X145366666Y-86250000D01*
X145400000Y-86316666D01*
X145400000Y-86483333D01*
X145366666Y-86550000D01*
X145333333Y-86583333D01*
X145266666Y-86616666D01*
X145066666Y-86616666D01*
X145000000Y-86583333D01*
X144966666Y-86550000D01*
G04 #@! TO.C,J1*
X148616666Y-71716666D02*
X148616666Y-72216666D01*
X148583333Y-72316666D01*
X148516666Y-72383333D01*
X148416666Y-72416666D01*
X148350000Y-72416666D01*
X149316666Y-72416666D02*
X148916666Y-72416666D01*
X149116666Y-72416666D02*
X149116666Y-71716666D01*
X149050000Y-71816666D01*
X148983333Y-71883333D01*
X148916666Y-71916666D01*
G04 #@! TO.C,J2*
X146316666Y-90116666D02*
X146316666Y-90616666D01*
X146283333Y-90716666D01*
X146216666Y-90783333D01*
X146116666Y-90816666D01*
X146050000Y-90816666D01*
X146616666Y-90183333D02*
X146650000Y-90150000D01*
X146716666Y-90116666D01*
X146883333Y-90116666D01*
X146950000Y-90150000D01*
X146983333Y-90183333D01*
X147016666Y-90250000D01*
X147016666Y-90316666D01*
X146983333Y-90416666D01*
X146583333Y-90816666D01*
X147016666Y-90816666D01*
G04 #@! TO.C,J3*
X167916666Y-76366666D02*
X167916666Y-76866666D01*
X167883333Y-76966666D01*
X167816666Y-77033333D01*
X167716666Y-77066666D01*
X167650000Y-77066666D01*
X168183333Y-76366666D02*
X168616666Y-76366666D01*
X168383333Y-76633333D01*
X168483333Y-76633333D01*
X168550000Y-76666666D01*
X168583333Y-76700000D01*
X168616666Y-76766666D01*
X168616666Y-76933333D01*
X168583333Y-77000000D01*
X168550000Y-77033333D01*
X168483333Y-77066666D01*
X168283333Y-77066666D01*
X168216666Y-77033333D01*
X168183333Y-77000000D01*
G04 #@! TO.C,J4*
X156716666Y-70916666D02*
X156716666Y-71416666D01*
X156683333Y-71516666D01*
X156616666Y-71583333D01*
X156516666Y-71616666D01*
X156450000Y-71616666D01*
X157350000Y-71150000D02*
X157350000Y-71616666D01*
X157183333Y-70883333D02*
X157016666Y-71383333D01*
X157450000Y-71383333D01*
G04 #@! TO.C,R1*
X148783333Y-80016666D02*
X148550000Y-79683333D01*
X148383333Y-80016666D02*
X148383333Y-79316666D01*
X148650000Y-79316666D01*
X148716666Y-79350000D01*
X148750000Y-79383333D01*
X148783333Y-79450000D01*
X148783333Y-79550000D01*
X148750000Y-79616666D01*
X148716666Y-79650000D01*
X148650000Y-79683333D01*
X148383333Y-79683333D01*
X149450000Y-80016666D02*
X149050000Y-80016666D01*
X149250000Y-80016666D02*
X149250000Y-79316666D01*
X149183333Y-79416666D01*
X149116666Y-79483333D01*
X149050000Y-79516666D01*
G04 #@! TO.C,R2*
X145666666Y-85016666D02*
X145333333Y-85250000D01*
X145666666Y-85416666D02*
X144966666Y-85416666D01*
X144966666Y-85150000D01*
X145000000Y-85083333D01*
X145033333Y-85050000D01*
X145100000Y-85016666D01*
X145200000Y-85016666D01*
X145266666Y-85050000D01*
X145300000Y-85083333D01*
X145333333Y-85150000D01*
X145333333Y-85416666D01*
X145033333Y-84750000D02*
X145000000Y-84716666D01*
X144966666Y-84650000D01*
X144966666Y-84483333D01*
X145000000Y-84416666D01*
X145033333Y-84383333D01*
X145100000Y-84350000D01*
X145166666Y-84350000D01*
X145266666Y-84383333D01*
X145666666Y-84783333D01*
X145666666Y-84350000D01*
G04 #@! TO.C,R3*
X145116666Y-82016666D02*
X144783333Y-82250000D01*
X145116666Y-82416666D02*
X144416666Y-82416666D01*
X144416666Y-82150000D01*
X144450000Y-82083333D01*
X144483333Y-82050000D01*
X144550000Y-82016666D01*
X144650000Y-82016666D01*
X144716666Y-82050000D01*
X144750000Y-82083333D01*
X144783333Y-82150000D01*
X144783333Y-82416666D01*
X144416666Y-81783333D02*
X144416666Y-81350000D01*
X144683333Y-81583333D01*
X144683333Y-81483333D01*
X144716666Y-81416666D01*
X144750000Y-81383333D01*
X144816666Y-81350000D01*
X144983333Y-81350000D01*
X145050000Y-81383333D01*
X145083333Y-81416666D01*
X145116666Y-81483333D01*
X145116666Y-81683333D01*
X145083333Y-81750000D01*
X145050000Y-81783333D01*
G04 #@! TO.C,R9*
X165216666Y-79716666D02*
X164883333Y-79950000D01*
X165216666Y-80116666D02*
X164516666Y-80116666D01*
X164516666Y-79850000D01*
X164550000Y-79783333D01*
X164583333Y-79750000D01*
X164650000Y-79716666D01*
X164750000Y-79716666D01*
X164816666Y-79750000D01*
X164850000Y-79783333D01*
X164883333Y-79850000D01*
X164883333Y-80116666D01*
X165216666Y-79383333D02*
X165216666Y-79250000D01*
X165183333Y-79183333D01*
X165150000Y-79150000D01*
X165050000Y-79083333D01*
X164916666Y-79050000D01*
X164650000Y-79050000D01*
X164583333Y-79083333D01*
X164550000Y-79116666D01*
X164516666Y-79183333D01*
X164516666Y-79316666D01*
X164550000Y-79383333D01*
X164583333Y-79416666D01*
X164650000Y-79450000D01*
X164816666Y-79450000D01*
X164883333Y-79416666D01*
X164916666Y-79383333D01*
X164950000Y-79316666D01*
X164950000Y-79183333D01*
X164916666Y-79116666D01*
X164883333Y-79083333D01*
X164816666Y-79050000D01*
G04 #@! TO.C,R10*
X165216666Y-76725000D02*
X164883333Y-76958333D01*
X165216666Y-77125000D02*
X164516666Y-77125000D01*
X164516666Y-76858333D01*
X164550000Y-76791666D01*
X164583333Y-76758333D01*
X164650000Y-76725000D01*
X164750000Y-76725000D01*
X164816666Y-76758333D01*
X164850000Y-76791666D01*
X164883333Y-76858333D01*
X164883333Y-77125000D01*
X165216666Y-76058333D02*
X165216666Y-76458333D01*
X165216666Y-76258333D02*
X164516666Y-76258333D01*
X164616666Y-76325000D01*
X164683333Y-76391666D01*
X164716666Y-76458333D01*
X164516666Y-75625000D02*
X164516666Y-75558333D01*
X164550000Y-75491666D01*
X164583333Y-75458333D01*
X164650000Y-75425000D01*
X164783333Y-75391666D01*
X164950000Y-75391666D01*
X165083333Y-75425000D01*
X165150000Y-75458333D01*
X165183333Y-75491666D01*
X165216666Y-75558333D01*
X165216666Y-75625000D01*
X165183333Y-75691666D01*
X165150000Y-75725000D01*
X165083333Y-75758333D01*
X164950000Y-75791666D01*
X164783333Y-75791666D01*
X164650000Y-75758333D01*
X164583333Y-75725000D01*
X164550000Y-75691666D01*
X164516666Y-75625000D01*
G04 #@! TO.C,U5*
X156216666Y-74766666D02*
X156216666Y-75333333D01*
X156250000Y-75400000D01*
X156283333Y-75433333D01*
X156350000Y-75466666D01*
X156483333Y-75466666D01*
X156550000Y-75433333D01*
X156583333Y-75400000D01*
X156616666Y-75333333D01*
X156616666Y-74766666D01*
X157283333Y-74766666D02*
X156950000Y-74766666D01*
X156916666Y-75100000D01*
X156950000Y-75066666D01*
X157016666Y-75033333D01*
X157183333Y-75033333D01*
X157250000Y-75066666D01*
X157283333Y-75100000D01*
X157316666Y-75166666D01*
X157316666Y-75333333D01*
X157283333Y-75400000D01*
X157250000Y-75433333D01*
X157183333Y-75466666D01*
X157016666Y-75466666D01*
X156950000Y-75433333D01*
X156916666Y-75400000D01*
G04 #@! TO.C,U6*
X148566666Y-76216666D02*
X148566666Y-76783333D01*
X148600000Y-76850000D01*
X148633333Y-76883333D01*
X148700000Y-76916666D01*
X148833333Y-76916666D01*
X148900000Y-76883333D01*
X148933333Y-76850000D01*
X148966666Y-76783333D01*
X148966666Y-76216666D01*
X149600000Y-76216666D02*
X149466666Y-76216666D01*
X149400000Y-76250000D01*
X149366666Y-76283333D01*
X149300000Y-76383333D01*
X149266666Y-76516666D01*
X149266666Y-76783333D01*
X149300000Y-76850000D01*
X149333333Y-76883333D01*
X149400000Y-76916666D01*
X149533333Y-76916666D01*
X149600000Y-76883333D01*
X149633333Y-76850000D01*
X149666666Y-76783333D01*
X149666666Y-76616666D01*
X149633333Y-76550000D01*
X149600000Y-76516666D01*
X149533333Y-76483333D01*
X149400000Y-76483333D01*
X149333333Y-76516666D01*
X149300000Y-76550000D01*
X149266666Y-76616666D01*
G04 #@! TO.C,U7*
X148766666Y-82316666D02*
X148766666Y-82883333D01*
X148800000Y-82950000D01*
X148833333Y-82983333D01*
X148900000Y-83016666D01*
X149033333Y-83016666D01*
X149100000Y-82983333D01*
X149133333Y-82950000D01*
X149166666Y-82883333D01*
X149166666Y-82316666D01*
X149433333Y-82316666D02*
X149900000Y-82316666D01*
X149600000Y-83016666D01*
G04 #@! TO.C,U8*
X149416666Y-88266666D02*
X149416666Y-88833333D01*
X149450000Y-88900000D01*
X149483333Y-88933333D01*
X149550000Y-88966666D01*
X149683333Y-88966666D01*
X149750000Y-88933333D01*
X149783333Y-88900000D01*
X149816666Y-88833333D01*
X149816666Y-88266666D01*
X150250000Y-88566666D02*
X150183333Y-88533333D01*
X150150000Y-88500000D01*
X150116666Y-88433333D01*
X150116666Y-88400000D01*
X150150000Y-88333333D01*
X150183333Y-88300000D01*
X150250000Y-88266666D01*
X150383333Y-88266666D01*
X150450000Y-88300000D01*
X150483333Y-88333333D01*
X150516666Y-88400000D01*
X150516666Y-88433333D01*
X150483333Y-88500000D01*
X150450000Y-88533333D01*
X150383333Y-88566666D01*
X150250000Y-88566666D01*
X150183333Y-88600000D01*
X150150000Y-88633333D01*
X150116666Y-88700000D01*
X150116666Y-88833333D01*
X150150000Y-88900000D01*
X150183333Y-88933333D01*
X150250000Y-88966666D01*
X150383333Y-88966666D01*
X150450000Y-88933333D01*
X150483333Y-88900000D01*
X150516666Y-88833333D01*
X150516666Y-88700000D01*
X150483333Y-88633333D01*
X150450000Y-88600000D01*
X150383333Y-88566666D01*
G04 #@! TD*
M02*
