G04 #@! TF.GenerationSoftware,KiCad,Pcbnew,(5.0.0)*
G04 #@! TF.CreationDate,2018-11-26T10:25:21+01:00*
G04 #@! TF.ProjectId,Insole_PCB,496E736F6C655F5043422E6B69636164,rev?*
G04 #@! TF.SameCoordinates,Original*
G04 #@! TF.FileFunction,Soldermask,Top*
G04 #@! TF.FilePolarity,Negative*
%FSLAX46Y46*%
G04 Gerber Fmt 4.6, Leading zero omitted, Abs format (unit mm)*
G04 Created by KiCad (PCBNEW (5.0.0)) date 11/26/18 10:25:21*
%MOMM*%
%LPD*%
G01*
G04 APERTURE LIST*
%ADD10C,0.100000*%
%ADD11C,1.350000*%
%ADD12R,1.250000X1.250000*%
%ADD13O,1.250000X1.250000*%
%ADD14R,2.200000X2.600000*%
%ADD15R,0.700000X1.700000*%
%ADD16R,1.400000X0.810000*%
%ADD17R,0.810000X1.400000*%
%ADD18R,1.050000X1.620000*%
%ADD19R,0.650000X1.075000*%
%ADD20R,1.075000X0.650000*%
%ADD21R,1.620000X1.050000*%
G04 APERTURE END LIST*
D10*
G04 #@! TO.C,C3*
G36*
X145420581Y-86776625D02*
X145453343Y-86781485D01*
X145485471Y-86789533D01*
X145516656Y-86800691D01*
X145546596Y-86814852D01*
X145575005Y-86831879D01*
X145601608Y-86851609D01*
X145626149Y-86873851D01*
X145648391Y-86898392D01*
X145668121Y-86924995D01*
X145685148Y-86953404D01*
X145699309Y-86983344D01*
X145710467Y-87014529D01*
X145718515Y-87046657D01*
X145723375Y-87079419D01*
X145725000Y-87112500D01*
X145725000Y-87787500D01*
X145723375Y-87820581D01*
X145718515Y-87853343D01*
X145710467Y-87885471D01*
X145699309Y-87916656D01*
X145685148Y-87946596D01*
X145668121Y-87975005D01*
X145648391Y-88001608D01*
X145626149Y-88026149D01*
X145601608Y-88048391D01*
X145575005Y-88068121D01*
X145546596Y-88085148D01*
X145516656Y-88099309D01*
X145485471Y-88110467D01*
X145453343Y-88118515D01*
X145420581Y-88123375D01*
X145387500Y-88125000D01*
X144612500Y-88125000D01*
X144579419Y-88123375D01*
X144546657Y-88118515D01*
X144514529Y-88110467D01*
X144483344Y-88099309D01*
X144453404Y-88085148D01*
X144424995Y-88068121D01*
X144398392Y-88048391D01*
X144373851Y-88026149D01*
X144351609Y-88001608D01*
X144331879Y-87975005D01*
X144314852Y-87946596D01*
X144300691Y-87916656D01*
X144289533Y-87885471D01*
X144281485Y-87853343D01*
X144276625Y-87820581D01*
X144275000Y-87787500D01*
X144275000Y-87112500D01*
X144276625Y-87079419D01*
X144281485Y-87046657D01*
X144289533Y-87014529D01*
X144300691Y-86983344D01*
X144314852Y-86953404D01*
X144331879Y-86924995D01*
X144351609Y-86898392D01*
X144373851Y-86873851D01*
X144398392Y-86851609D01*
X144424995Y-86831879D01*
X144453404Y-86814852D01*
X144483344Y-86800691D01*
X144514529Y-86789533D01*
X144546657Y-86781485D01*
X144579419Y-86776625D01*
X144612500Y-86775000D01*
X145387500Y-86775000D01*
X145420581Y-86776625D01*
X145420581Y-86776625D01*
G37*
D11*
X145000000Y-87450000D03*
D10*
G36*
X147170581Y-86776625D02*
X147203343Y-86781485D01*
X147235471Y-86789533D01*
X147266656Y-86800691D01*
X147296596Y-86814852D01*
X147325005Y-86831879D01*
X147351608Y-86851609D01*
X147376149Y-86873851D01*
X147398391Y-86898392D01*
X147418121Y-86924995D01*
X147435148Y-86953404D01*
X147449309Y-86983344D01*
X147460467Y-87014529D01*
X147468515Y-87046657D01*
X147473375Y-87079419D01*
X147475000Y-87112500D01*
X147475000Y-87787500D01*
X147473375Y-87820581D01*
X147468515Y-87853343D01*
X147460467Y-87885471D01*
X147449309Y-87916656D01*
X147435148Y-87946596D01*
X147418121Y-87975005D01*
X147398391Y-88001608D01*
X147376149Y-88026149D01*
X147351608Y-88048391D01*
X147325005Y-88068121D01*
X147296596Y-88085148D01*
X147266656Y-88099309D01*
X147235471Y-88110467D01*
X147203343Y-88118515D01*
X147170581Y-88123375D01*
X147137500Y-88125000D01*
X146362500Y-88125000D01*
X146329419Y-88123375D01*
X146296657Y-88118515D01*
X146264529Y-88110467D01*
X146233344Y-88099309D01*
X146203404Y-88085148D01*
X146174995Y-88068121D01*
X146148392Y-88048391D01*
X146123851Y-88026149D01*
X146101609Y-88001608D01*
X146081879Y-87975005D01*
X146064852Y-87946596D01*
X146050691Y-87916656D01*
X146039533Y-87885471D01*
X146031485Y-87853343D01*
X146026625Y-87820581D01*
X146025000Y-87787500D01*
X146025000Y-87112500D01*
X146026625Y-87079419D01*
X146031485Y-87046657D01*
X146039533Y-87014529D01*
X146050691Y-86983344D01*
X146064852Y-86953404D01*
X146081879Y-86924995D01*
X146101609Y-86898392D01*
X146123851Y-86873851D01*
X146148392Y-86851609D01*
X146174995Y-86831879D01*
X146203404Y-86814852D01*
X146233344Y-86800691D01*
X146264529Y-86789533D01*
X146296657Y-86781485D01*
X146329419Y-86776625D01*
X146362500Y-86775000D01*
X147137500Y-86775000D01*
X147170581Y-86776625D01*
X147170581Y-86776625D01*
G37*
D11*
X146750000Y-87450000D03*
G04 #@! TD*
D12*
G04 #@! TO.C,J1*
X146000000Y-72100000D03*
D13*
X147000000Y-72100000D03*
G04 #@! TD*
G04 #@! TO.C,J2*
X145550000Y-89400000D03*
D12*
X146550000Y-89400000D03*
G04 #@! TD*
G04 #@! TO.C,J3*
X168100000Y-78200000D03*
D13*
X168100000Y-79200000D03*
X168100000Y-80200000D03*
X168100000Y-81200000D03*
G04 #@! TD*
D14*
G04 #@! TO.C,J4*
X146350000Y-66600000D03*
X167650000Y-66600000D03*
D15*
X165750000Y-69850000D03*
X165250000Y-69850000D03*
X164750000Y-69850000D03*
X164250000Y-69850000D03*
X163750000Y-69850000D03*
X163250000Y-69850000D03*
X162750000Y-69850000D03*
X162250000Y-69850000D03*
X161750000Y-69850000D03*
X161250000Y-69850000D03*
X160750000Y-69850000D03*
X160250000Y-69850000D03*
X159750000Y-69850000D03*
X159250000Y-69850000D03*
X158750000Y-69850000D03*
X158250000Y-69850000D03*
X157750000Y-69850000D03*
X157250000Y-69850000D03*
X156750000Y-69850000D03*
X156250000Y-69850000D03*
X155750000Y-69850000D03*
X155250000Y-69850000D03*
X154750000Y-69850000D03*
X154250000Y-69850000D03*
X153750000Y-69850000D03*
X153250000Y-69850000D03*
X152750000Y-69850000D03*
X152250000Y-69850000D03*
X151750000Y-69850000D03*
X151250000Y-69850000D03*
X150750000Y-69850000D03*
X150250000Y-69850000D03*
X149750000Y-69850000D03*
X149250000Y-69850000D03*
X148750000Y-69850000D03*
X148250000Y-69850000D03*
G04 #@! TD*
D10*
G04 #@! TO.C,R1*
G36*
X146120581Y-79026625D02*
X146153343Y-79031485D01*
X146185471Y-79039533D01*
X146216656Y-79050691D01*
X146246596Y-79064852D01*
X146275005Y-79081879D01*
X146301608Y-79101609D01*
X146326149Y-79123851D01*
X146348391Y-79148392D01*
X146368121Y-79174995D01*
X146385148Y-79203404D01*
X146399309Y-79233344D01*
X146410467Y-79264529D01*
X146418515Y-79296657D01*
X146423375Y-79329419D01*
X146425000Y-79362500D01*
X146425000Y-80037500D01*
X146423375Y-80070581D01*
X146418515Y-80103343D01*
X146410467Y-80135471D01*
X146399309Y-80166656D01*
X146385148Y-80196596D01*
X146368121Y-80225005D01*
X146348391Y-80251608D01*
X146326149Y-80276149D01*
X146301608Y-80298391D01*
X146275005Y-80318121D01*
X146246596Y-80335148D01*
X146216656Y-80349309D01*
X146185471Y-80360467D01*
X146153343Y-80368515D01*
X146120581Y-80373375D01*
X146087500Y-80375000D01*
X145312500Y-80375000D01*
X145279419Y-80373375D01*
X145246657Y-80368515D01*
X145214529Y-80360467D01*
X145183344Y-80349309D01*
X145153404Y-80335148D01*
X145124995Y-80318121D01*
X145098392Y-80298391D01*
X145073851Y-80276149D01*
X145051609Y-80251608D01*
X145031879Y-80225005D01*
X145014852Y-80196596D01*
X145000691Y-80166656D01*
X144989533Y-80135471D01*
X144981485Y-80103343D01*
X144976625Y-80070581D01*
X144975000Y-80037500D01*
X144975000Y-79362500D01*
X144976625Y-79329419D01*
X144981485Y-79296657D01*
X144989533Y-79264529D01*
X145000691Y-79233344D01*
X145014852Y-79203404D01*
X145031879Y-79174995D01*
X145051609Y-79148392D01*
X145073851Y-79123851D01*
X145098392Y-79101609D01*
X145124995Y-79081879D01*
X145153404Y-79064852D01*
X145183344Y-79050691D01*
X145214529Y-79039533D01*
X145246657Y-79031485D01*
X145279419Y-79026625D01*
X145312500Y-79025000D01*
X146087500Y-79025000D01*
X146120581Y-79026625D01*
X146120581Y-79026625D01*
G37*
D11*
X145700000Y-79700000D03*
D10*
G36*
X147870581Y-79026625D02*
X147903343Y-79031485D01*
X147935471Y-79039533D01*
X147966656Y-79050691D01*
X147996596Y-79064852D01*
X148025005Y-79081879D01*
X148051608Y-79101609D01*
X148076149Y-79123851D01*
X148098391Y-79148392D01*
X148118121Y-79174995D01*
X148135148Y-79203404D01*
X148149309Y-79233344D01*
X148160467Y-79264529D01*
X148168515Y-79296657D01*
X148173375Y-79329419D01*
X148175000Y-79362500D01*
X148175000Y-80037500D01*
X148173375Y-80070581D01*
X148168515Y-80103343D01*
X148160467Y-80135471D01*
X148149309Y-80166656D01*
X148135148Y-80196596D01*
X148118121Y-80225005D01*
X148098391Y-80251608D01*
X148076149Y-80276149D01*
X148051608Y-80298391D01*
X148025005Y-80318121D01*
X147996596Y-80335148D01*
X147966656Y-80349309D01*
X147935471Y-80360467D01*
X147903343Y-80368515D01*
X147870581Y-80373375D01*
X147837500Y-80375000D01*
X147062500Y-80375000D01*
X147029419Y-80373375D01*
X146996657Y-80368515D01*
X146964529Y-80360467D01*
X146933344Y-80349309D01*
X146903404Y-80335148D01*
X146874995Y-80318121D01*
X146848392Y-80298391D01*
X146823851Y-80276149D01*
X146801609Y-80251608D01*
X146781879Y-80225005D01*
X146764852Y-80196596D01*
X146750691Y-80166656D01*
X146739533Y-80135471D01*
X146731485Y-80103343D01*
X146726625Y-80070581D01*
X146725000Y-80037500D01*
X146725000Y-79362500D01*
X146726625Y-79329419D01*
X146731485Y-79296657D01*
X146739533Y-79264529D01*
X146750691Y-79233344D01*
X146764852Y-79203404D01*
X146781879Y-79174995D01*
X146801609Y-79148392D01*
X146823851Y-79123851D01*
X146848392Y-79101609D01*
X146874995Y-79081879D01*
X146903404Y-79064852D01*
X146933344Y-79050691D01*
X146964529Y-79039533D01*
X146996657Y-79031485D01*
X147029419Y-79026625D01*
X147062500Y-79025000D01*
X147837500Y-79025000D01*
X147870581Y-79026625D01*
X147870581Y-79026625D01*
G37*
D11*
X147450000Y-79700000D03*
G04 #@! TD*
D10*
G04 #@! TO.C,R2*
G36*
X146870581Y-85176625D02*
X146903343Y-85181485D01*
X146935471Y-85189533D01*
X146966656Y-85200691D01*
X146996596Y-85214852D01*
X147025005Y-85231879D01*
X147051608Y-85251609D01*
X147076149Y-85273851D01*
X147098391Y-85298392D01*
X147118121Y-85324995D01*
X147135148Y-85353404D01*
X147149309Y-85383344D01*
X147160467Y-85414529D01*
X147168515Y-85446657D01*
X147173375Y-85479419D01*
X147175000Y-85512500D01*
X147175000Y-86287500D01*
X147173375Y-86320581D01*
X147168515Y-86353343D01*
X147160467Y-86385471D01*
X147149309Y-86416656D01*
X147135148Y-86446596D01*
X147118121Y-86475005D01*
X147098391Y-86501608D01*
X147076149Y-86526149D01*
X147051608Y-86548391D01*
X147025005Y-86568121D01*
X146996596Y-86585148D01*
X146966656Y-86599309D01*
X146935471Y-86610467D01*
X146903343Y-86618515D01*
X146870581Y-86623375D01*
X146837500Y-86625000D01*
X146162500Y-86625000D01*
X146129419Y-86623375D01*
X146096657Y-86618515D01*
X146064529Y-86610467D01*
X146033344Y-86599309D01*
X146003404Y-86585148D01*
X145974995Y-86568121D01*
X145948392Y-86548391D01*
X145923851Y-86526149D01*
X145901609Y-86501608D01*
X145881879Y-86475005D01*
X145864852Y-86446596D01*
X145850691Y-86416656D01*
X145839533Y-86385471D01*
X145831485Y-86353343D01*
X145826625Y-86320581D01*
X145825000Y-86287500D01*
X145825000Y-85512500D01*
X145826625Y-85479419D01*
X145831485Y-85446657D01*
X145839533Y-85414529D01*
X145850691Y-85383344D01*
X145864852Y-85353404D01*
X145881879Y-85324995D01*
X145901609Y-85298392D01*
X145923851Y-85273851D01*
X145948392Y-85251609D01*
X145974995Y-85231879D01*
X146003404Y-85214852D01*
X146033344Y-85200691D01*
X146064529Y-85189533D01*
X146096657Y-85181485D01*
X146129419Y-85176625D01*
X146162500Y-85175000D01*
X146837500Y-85175000D01*
X146870581Y-85176625D01*
X146870581Y-85176625D01*
G37*
D11*
X146500000Y-85900000D03*
D10*
G36*
X146870581Y-83426625D02*
X146903343Y-83431485D01*
X146935471Y-83439533D01*
X146966656Y-83450691D01*
X146996596Y-83464852D01*
X147025005Y-83481879D01*
X147051608Y-83501609D01*
X147076149Y-83523851D01*
X147098391Y-83548392D01*
X147118121Y-83574995D01*
X147135148Y-83603404D01*
X147149309Y-83633344D01*
X147160467Y-83664529D01*
X147168515Y-83696657D01*
X147173375Y-83729419D01*
X147175000Y-83762500D01*
X147175000Y-84537500D01*
X147173375Y-84570581D01*
X147168515Y-84603343D01*
X147160467Y-84635471D01*
X147149309Y-84666656D01*
X147135148Y-84696596D01*
X147118121Y-84725005D01*
X147098391Y-84751608D01*
X147076149Y-84776149D01*
X147051608Y-84798391D01*
X147025005Y-84818121D01*
X146996596Y-84835148D01*
X146966656Y-84849309D01*
X146935471Y-84860467D01*
X146903343Y-84868515D01*
X146870581Y-84873375D01*
X146837500Y-84875000D01*
X146162500Y-84875000D01*
X146129419Y-84873375D01*
X146096657Y-84868515D01*
X146064529Y-84860467D01*
X146033344Y-84849309D01*
X146003404Y-84835148D01*
X145974995Y-84818121D01*
X145948392Y-84798391D01*
X145923851Y-84776149D01*
X145901609Y-84751608D01*
X145881879Y-84725005D01*
X145864852Y-84696596D01*
X145850691Y-84666656D01*
X145839533Y-84635471D01*
X145831485Y-84603343D01*
X145826625Y-84570581D01*
X145825000Y-84537500D01*
X145825000Y-83762500D01*
X145826625Y-83729419D01*
X145831485Y-83696657D01*
X145839533Y-83664529D01*
X145850691Y-83633344D01*
X145864852Y-83603404D01*
X145881879Y-83574995D01*
X145901609Y-83548392D01*
X145923851Y-83523851D01*
X145948392Y-83501609D01*
X145974995Y-83481879D01*
X146003404Y-83464852D01*
X146033344Y-83450691D01*
X146064529Y-83439533D01*
X146096657Y-83431485D01*
X146129419Y-83426625D01*
X146162500Y-83425000D01*
X146837500Y-83425000D01*
X146870581Y-83426625D01*
X146870581Y-83426625D01*
G37*
D11*
X146500000Y-84150000D03*
G04 #@! TD*
D10*
G04 #@! TO.C,R3*
G36*
X148120581Y-81226625D02*
X148153343Y-81231485D01*
X148185471Y-81239533D01*
X148216656Y-81250691D01*
X148246596Y-81264852D01*
X148275005Y-81281879D01*
X148301608Y-81301609D01*
X148326149Y-81323851D01*
X148348391Y-81348392D01*
X148368121Y-81374995D01*
X148385148Y-81403404D01*
X148399309Y-81433344D01*
X148410467Y-81464529D01*
X148418515Y-81496657D01*
X148423375Y-81529419D01*
X148425000Y-81562500D01*
X148425000Y-82237500D01*
X148423375Y-82270581D01*
X148418515Y-82303343D01*
X148410467Y-82335471D01*
X148399309Y-82366656D01*
X148385148Y-82396596D01*
X148368121Y-82425005D01*
X148348391Y-82451608D01*
X148326149Y-82476149D01*
X148301608Y-82498391D01*
X148275005Y-82518121D01*
X148246596Y-82535148D01*
X148216656Y-82549309D01*
X148185471Y-82560467D01*
X148153343Y-82568515D01*
X148120581Y-82573375D01*
X148087500Y-82575000D01*
X147312500Y-82575000D01*
X147279419Y-82573375D01*
X147246657Y-82568515D01*
X147214529Y-82560467D01*
X147183344Y-82549309D01*
X147153404Y-82535148D01*
X147124995Y-82518121D01*
X147098392Y-82498391D01*
X147073851Y-82476149D01*
X147051609Y-82451608D01*
X147031879Y-82425005D01*
X147014852Y-82396596D01*
X147000691Y-82366656D01*
X146989533Y-82335471D01*
X146981485Y-82303343D01*
X146976625Y-82270581D01*
X146975000Y-82237500D01*
X146975000Y-81562500D01*
X146976625Y-81529419D01*
X146981485Y-81496657D01*
X146989533Y-81464529D01*
X147000691Y-81433344D01*
X147014852Y-81403404D01*
X147031879Y-81374995D01*
X147051609Y-81348392D01*
X147073851Y-81323851D01*
X147098392Y-81301609D01*
X147124995Y-81281879D01*
X147153404Y-81264852D01*
X147183344Y-81250691D01*
X147214529Y-81239533D01*
X147246657Y-81231485D01*
X147279419Y-81226625D01*
X147312500Y-81225000D01*
X148087500Y-81225000D01*
X148120581Y-81226625D01*
X148120581Y-81226625D01*
G37*
D11*
X147700000Y-81900000D03*
D10*
G36*
X146370581Y-81226625D02*
X146403343Y-81231485D01*
X146435471Y-81239533D01*
X146466656Y-81250691D01*
X146496596Y-81264852D01*
X146525005Y-81281879D01*
X146551608Y-81301609D01*
X146576149Y-81323851D01*
X146598391Y-81348392D01*
X146618121Y-81374995D01*
X146635148Y-81403404D01*
X146649309Y-81433344D01*
X146660467Y-81464529D01*
X146668515Y-81496657D01*
X146673375Y-81529419D01*
X146675000Y-81562500D01*
X146675000Y-82237500D01*
X146673375Y-82270581D01*
X146668515Y-82303343D01*
X146660467Y-82335471D01*
X146649309Y-82366656D01*
X146635148Y-82396596D01*
X146618121Y-82425005D01*
X146598391Y-82451608D01*
X146576149Y-82476149D01*
X146551608Y-82498391D01*
X146525005Y-82518121D01*
X146496596Y-82535148D01*
X146466656Y-82549309D01*
X146435471Y-82560467D01*
X146403343Y-82568515D01*
X146370581Y-82573375D01*
X146337500Y-82575000D01*
X145562500Y-82575000D01*
X145529419Y-82573375D01*
X145496657Y-82568515D01*
X145464529Y-82560467D01*
X145433344Y-82549309D01*
X145403404Y-82535148D01*
X145374995Y-82518121D01*
X145348392Y-82498391D01*
X145323851Y-82476149D01*
X145301609Y-82451608D01*
X145281879Y-82425005D01*
X145264852Y-82396596D01*
X145250691Y-82366656D01*
X145239533Y-82335471D01*
X145231485Y-82303343D01*
X145226625Y-82270581D01*
X145225000Y-82237500D01*
X145225000Y-81562500D01*
X145226625Y-81529419D01*
X145231485Y-81496657D01*
X145239533Y-81464529D01*
X145250691Y-81433344D01*
X145264852Y-81403404D01*
X145281879Y-81374995D01*
X145301609Y-81348392D01*
X145323851Y-81323851D01*
X145348392Y-81301609D01*
X145374995Y-81281879D01*
X145403404Y-81264852D01*
X145433344Y-81250691D01*
X145464529Y-81239533D01*
X145496657Y-81231485D01*
X145529419Y-81226625D01*
X145562500Y-81225000D01*
X146337500Y-81225000D01*
X146370581Y-81226625D01*
X146370581Y-81226625D01*
G37*
D11*
X145950000Y-81900000D03*
G04 #@! TD*
D10*
G04 #@! TO.C,R9*
G36*
X166470581Y-79751625D02*
X166503343Y-79756485D01*
X166535471Y-79764533D01*
X166566656Y-79775691D01*
X166596596Y-79789852D01*
X166625005Y-79806879D01*
X166651608Y-79826609D01*
X166676149Y-79848851D01*
X166698391Y-79873392D01*
X166718121Y-79899995D01*
X166735148Y-79928404D01*
X166749309Y-79958344D01*
X166760467Y-79989529D01*
X166768515Y-80021657D01*
X166773375Y-80054419D01*
X166775000Y-80087500D01*
X166775000Y-80862500D01*
X166773375Y-80895581D01*
X166768515Y-80928343D01*
X166760467Y-80960471D01*
X166749309Y-80991656D01*
X166735148Y-81021596D01*
X166718121Y-81050005D01*
X166698391Y-81076608D01*
X166676149Y-81101149D01*
X166651608Y-81123391D01*
X166625005Y-81143121D01*
X166596596Y-81160148D01*
X166566656Y-81174309D01*
X166535471Y-81185467D01*
X166503343Y-81193515D01*
X166470581Y-81198375D01*
X166437500Y-81200000D01*
X165762500Y-81200000D01*
X165729419Y-81198375D01*
X165696657Y-81193515D01*
X165664529Y-81185467D01*
X165633344Y-81174309D01*
X165603404Y-81160148D01*
X165574995Y-81143121D01*
X165548392Y-81123391D01*
X165523851Y-81101149D01*
X165501609Y-81076608D01*
X165481879Y-81050005D01*
X165464852Y-81021596D01*
X165450691Y-80991656D01*
X165439533Y-80960471D01*
X165431485Y-80928343D01*
X165426625Y-80895581D01*
X165425000Y-80862500D01*
X165425000Y-80087500D01*
X165426625Y-80054419D01*
X165431485Y-80021657D01*
X165439533Y-79989529D01*
X165450691Y-79958344D01*
X165464852Y-79928404D01*
X165481879Y-79899995D01*
X165501609Y-79873392D01*
X165523851Y-79848851D01*
X165548392Y-79826609D01*
X165574995Y-79806879D01*
X165603404Y-79789852D01*
X165633344Y-79775691D01*
X165664529Y-79764533D01*
X165696657Y-79756485D01*
X165729419Y-79751625D01*
X165762500Y-79750000D01*
X166437500Y-79750000D01*
X166470581Y-79751625D01*
X166470581Y-79751625D01*
G37*
D11*
X166100000Y-80475000D03*
D10*
G36*
X166470581Y-78001625D02*
X166503343Y-78006485D01*
X166535471Y-78014533D01*
X166566656Y-78025691D01*
X166596596Y-78039852D01*
X166625005Y-78056879D01*
X166651608Y-78076609D01*
X166676149Y-78098851D01*
X166698391Y-78123392D01*
X166718121Y-78149995D01*
X166735148Y-78178404D01*
X166749309Y-78208344D01*
X166760467Y-78239529D01*
X166768515Y-78271657D01*
X166773375Y-78304419D01*
X166775000Y-78337500D01*
X166775000Y-79112500D01*
X166773375Y-79145581D01*
X166768515Y-79178343D01*
X166760467Y-79210471D01*
X166749309Y-79241656D01*
X166735148Y-79271596D01*
X166718121Y-79300005D01*
X166698391Y-79326608D01*
X166676149Y-79351149D01*
X166651608Y-79373391D01*
X166625005Y-79393121D01*
X166596596Y-79410148D01*
X166566656Y-79424309D01*
X166535471Y-79435467D01*
X166503343Y-79443515D01*
X166470581Y-79448375D01*
X166437500Y-79450000D01*
X165762500Y-79450000D01*
X165729419Y-79448375D01*
X165696657Y-79443515D01*
X165664529Y-79435467D01*
X165633344Y-79424309D01*
X165603404Y-79410148D01*
X165574995Y-79393121D01*
X165548392Y-79373391D01*
X165523851Y-79351149D01*
X165501609Y-79326608D01*
X165481879Y-79300005D01*
X165464852Y-79271596D01*
X165450691Y-79241656D01*
X165439533Y-79210471D01*
X165431485Y-79178343D01*
X165426625Y-79145581D01*
X165425000Y-79112500D01*
X165425000Y-78337500D01*
X165426625Y-78304419D01*
X165431485Y-78271657D01*
X165439533Y-78239529D01*
X165450691Y-78208344D01*
X165464852Y-78178404D01*
X165481879Y-78149995D01*
X165501609Y-78123392D01*
X165523851Y-78098851D01*
X165548392Y-78076609D01*
X165574995Y-78056879D01*
X165603404Y-78039852D01*
X165633344Y-78025691D01*
X165664529Y-78014533D01*
X165696657Y-78006485D01*
X165729419Y-78001625D01*
X165762500Y-78000000D01*
X166437500Y-78000000D01*
X166470581Y-78001625D01*
X166470581Y-78001625D01*
G37*
D11*
X166100000Y-78725000D03*
G04 #@! TD*
D10*
G04 #@! TO.C,R10*
G36*
X166470581Y-74676625D02*
X166503343Y-74681485D01*
X166535471Y-74689533D01*
X166566656Y-74700691D01*
X166596596Y-74714852D01*
X166625005Y-74731879D01*
X166651608Y-74751609D01*
X166676149Y-74773851D01*
X166698391Y-74798392D01*
X166718121Y-74824995D01*
X166735148Y-74853404D01*
X166749309Y-74883344D01*
X166760467Y-74914529D01*
X166768515Y-74946657D01*
X166773375Y-74979419D01*
X166775000Y-75012500D01*
X166775000Y-75787500D01*
X166773375Y-75820581D01*
X166768515Y-75853343D01*
X166760467Y-75885471D01*
X166749309Y-75916656D01*
X166735148Y-75946596D01*
X166718121Y-75975005D01*
X166698391Y-76001608D01*
X166676149Y-76026149D01*
X166651608Y-76048391D01*
X166625005Y-76068121D01*
X166596596Y-76085148D01*
X166566656Y-76099309D01*
X166535471Y-76110467D01*
X166503343Y-76118515D01*
X166470581Y-76123375D01*
X166437500Y-76125000D01*
X165762500Y-76125000D01*
X165729419Y-76123375D01*
X165696657Y-76118515D01*
X165664529Y-76110467D01*
X165633344Y-76099309D01*
X165603404Y-76085148D01*
X165574995Y-76068121D01*
X165548392Y-76048391D01*
X165523851Y-76026149D01*
X165501609Y-76001608D01*
X165481879Y-75975005D01*
X165464852Y-75946596D01*
X165450691Y-75916656D01*
X165439533Y-75885471D01*
X165431485Y-75853343D01*
X165426625Y-75820581D01*
X165425000Y-75787500D01*
X165425000Y-75012500D01*
X165426625Y-74979419D01*
X165431485Y-74946657D01*
X165439533Y-74914529D01*
X165450691Y-74883344D01*
X165464852Y-74853404D01*
X165481879Y-74824995D01*
X165501609Y-74798392D01*
X165523851Y-74773851D01*
X165548392Y-74751609D01*
X165574995Y-74731879D01*
X165603404Y-74714852D01*
X165633344Y-74700691D01*
X165664529Y-74689533D01*
X165696657Y-74681485D01*
X165729419Y-74676625D01*
X165762500Y-74675000D01*
X166437500Y-74675000D01*
X166470581Y-74676625D01*
X166470581Y-74676625D01*
G37*
D11*
X166100000Y-75400000D03*
D10*
G36*
X166470581Y-76426625D02*
X166503343Y-76431485D01*
X166535471Y-76439533D01*
X166566656Y-76450691D01*
X166596596Y-76464852D01*
X166625005Y-76481879D01*
X166651608Y-76501609D01*
X166676149Y-76523851D01*
X166698391Y-76548392D01*
X166718121Y-76574995D01*
X166735148Y-76603404D01*
X166749309Y-76633344D01*
X166760467Y-76664529D01*
X166768515Y-76696657D01*
X166773375Y-76729419D01*
X166775000Y-76762500D01*
X166775000Y-77537500D01*
X166773375Y-77570581D01*
X166768515Y-77603343D01*
X166760467Y-77635471D01*
X166749309Y-77666656D01*
X166735148Y-77696596D01*
X166718121Y-77725005D01*
X166698391Y-77751608D01*
X166676149Y-77776149D01*
X166651608Y-77798391D01*
X166625005Y-77818121D01*
X166596596Y-77835148D01*
X166566656Y-77849309D01*
X166535471Y-77860467D01*
X166503343Y-77868515D01*
X166470581Y-77873375D01*
X166437500Y-77875000D01*
X165762500Y-77875000D01*
X165729419Y-77873375D01*
X165696657Y-77868515D01*
X165664529Y-77860467D01*
X165633344Y-77849309D01*
X165603404Y-77835148D01*
X165574995Y-77818121D01*
X165548392Y-77798391D01*
X165523851Y-77776149D01*
X165501609Y-77751608D01*
X165481879Y-77725005D01*
X165464852Y-77696596D01*
X165450691Y-77666656D01*
X165439533Y-77635471D01*
X165431485Y-77603343D01*
X165426625Y-77570581D01*
X165425000Y-77537500D01*
X165425000Y-76762500D01*
X165426625Y-76729419D01*
X165431485Y-76696657D01*
X165439533Y-76664529D01*
X165450691Y-76633344D01*
X165464852Y-76603404D01*
X165481879Y-76574995D01*
X165501609Y-76548392D01*
X165523851Y-76523851D01*
X165548392Y-76501609D01*
X165574995Y-76481879D01*
X165603404Y-76464852D01*
X165633344Y-76450691D01*
X165664529Y-76439533D01*
X165696657Y-76431485D01*
X165729419Y-76426625D01*
X165762500Y-76425000D01*
X166437500Y-76425000D01*
X166470581Y-76426625D01*
X166470581Y-76426625D01*
G37*
D11*
X166100000Y-77150000D03*
G04 #@! TD*
D16*
G04 #@! TO.C,U5*
X152160000Y-80950000D03*
X161650000Y-80180000D03*
X161650000Y-79420000D03*
X161650000Y-78660000D03*
X161650000Y-77900000D03*
D17*
X161090000Y-76660000D03*
X160330000Y-76660000D03*
X159570000Y-76660000D03*
X158810000Y-76660000D03*
X158050000Y-76660000D03*
X157280000Y-76660000D03*
X156520000Y-76660000D03*
X155760000Y-76660000D03*
X155000000Y-76660000D03*
X154240000Y-76660000D03*
X153470000Y-76660000D03*
X152710000Y-76660000D03*
D16*
X152160000Y-81710000D03*
X152160000Y-82470000D03*
X152160000Y-83230000D03*
X152160000Y-83990000D03*
X152160000Y-84760000D03*
G04 #@! TD*
D18*
G04 #@! TO.C,U6*
X145750000Y-75290000D03*
X147650000Y-75290000D03*
X147650000Y-77910000D03*
X146700000Y-77910000D03*
X145750000Y-77910000D03*
G04 #@! TD*
D19*
G04 #@! TO.C,U7*
X149300000Y-83700000D03*
X148800000Y-83700000D03*
X149800000Y-83700000D03*
X148800000Y-85725000D03*
X149300000Y-85725000D03*
X149800000Y-85725000D03*
D20*
X148037500Y-83962500D03*
X148037500Y-84462500D03*
X148037500Y-84962500D03*
X148037500Y-85462500D03*
X150562500Y-85462500D03*
X150562500Y-84962500D03*
X150562500Y-84462500D03*
X150562500Y-83962500D03*
G04 #@! TD*
D21*
G04 #@! TO.C,U8*
X151410000Y-89550000D03*
X151410000Y-88600000D03*
X151410000Y-87650000D03*
X148790000Y-87650000D03*
X148790000Y-89550000D03*
G04 #@! TD*
M02*
