G04 #@! TF.GenerationSoftware,KiCad,Pcbnew,(5.0.0)*
G04 #@! TF.CreationDate,2018-11-26T10:25:21+01:00*
G04 #@! TF.ProjectId,Insole_PCB,496E736F6C655F5043422E6B69636164,rev?*
G04 #@! TF.SameCoordinates,Original*
G04 #@! TF.FileFunction,Soldermask,Bot*
G04 #@! TF.FilePolarity,Negative*
%FSLAX46Y46*%
G04 Gerber Fmt 4.6, Leading zero omitted, Abs format (unit mm)*
G04 Created by KiCad (PCBNEW (5.0.0)) date 11/26/18 10:25:21*
%MOMM*%
%LPD*%
G01*
G04 APERTURE LIST*
%ADD10R,1.900000X0.850000*%
%ADD11C,0.100000*%
%ADD12C,1.350000*%
%ADD13R,1.250000X1.250000*%
%ADD14O,1.250000X1.250000*%
%ADD15C,1.550000*%
G04 APERTURE END LIST*
D10*
G04 #@! TO.C,U2*
X166350000Y-73725000D03*
X166350000Y-74375000D03*
X166350000Y-75025000D03*
X166350000Y-75675000D03*
X166350000Y-76325000D03*
X166350000Y-76975000D03*
X166350000Y-77625000D03*
X166350000Y-78275000D03*
X160450000Y-78275000D03*
X160450000Y-77625000D03*
X160450000Y-76975000D03*
X160450000Y-76325000D03*
X160450000Y-75675000D03*
X160450000Y-75025000D03*
X160450000Y-74375000D03*
X160450000Y-73725000D03*
G04 #@! TD*
G04 #@! TO.C,U4*
X153050000Y-63925000D03*
X153050000Y-64575000D03*
X153050000Y-65225000D03*
X153050000Y-65875000D03*
X153050000Y-66525000D03*
X153050000Y-67175000D03*
X153050000Y-67825000D03*
X153050000Y-68475000D03*
X147150000Y-68475000D03*
X147150000Y-67825000D03*
X147150000Y-67175000D03*
X147150000Y-66525000D03*
X147150000Y-65875000D03*
X147150000Y-65225000D03*
X147150000Y-64575000D03*
X147150000Y-63925000D03*
G04 #@! TD*
G04 #@! TO.C,U3*
X146950000Y-73725000D03*
X146950000Y-74375000D03*
X146950000Y-75025000D03*
X146950000Y-75675000D03*
X146950000Y-76325000D03*
X146950000Y-76975000D03*
X146950000Y-77625000D03*
X146950000Y-78275000D03*
X152850000Y-78275000D03*
X152850000Y-77625000D03*
X152850000Y-76975000D03*
X152850000Y-76325000D03*
X152850000Y-75675000D03*
X152850000Y-75025000D03*
X152850000Y-74375000D03*
X152850000Y-73725000D03*
G04 #@! TD*
D11*
G04 #@! TO.C,C1*
G36*
X147270581Y-85176625D02*
X147303343Y-85181485D01*
X147335471Y-85189533D01*
X147366656Y-85200691D01*
X147396596Y-85214852D01*
X147425005Y-85231879D01*
X147451608Y-85251609D01*
X147476149Y-85273851D01*
X147498391Y-85298392D01*
X147518121Y-85324995D01*
X147535148Y-85353404D01*
X147549309Y-85383344D01*
X147560467Y-85414529D01*
X147568515Y-85446657D01*
X147573375Y-85479419D01*
X147575000Y-85512500D01*
X147575000Y-86287500D01*
X147573375Y-86320581D01*
X147568515Y-86353343D01*
X147560467Y-86385471D01*
X147549309Y-86416656D01*
X147535148Y-86446596D01*
X147518121Y-86475005D01*
X147498391Y-86501608D01*
X147476149Y-86526149D01*
X147451608Y-86548391D01*
X147425005Y-86568121D01*
X147396596Y-86585148D01*
X147366656Y-86599309D01*
X147335471Y-86610467D01*
X147303343Y-86618515D01*
X147270581Y-86623375D01*
X147237500Y-86625000D01*
X146562500Y-86625000D01*
X146529419Y-86623375D01*
X146496657Y-86618515D01*
X146464529Y-86610467D01*
X146433344Y-86599309D01*
X146403404Y-86585148D01*
X146374995Y-86568121D01*
X146348392Y-86548391D01*
X146323851Y-86526149D01*
X146301609Y-86501608D01*
X146281879Y-86475005D01*
X146264852Y-86446596D01*
X146250691Y-86416656D01*
X146239533Y-86385471D01*
X146231485Y-86353343D01*
X146226625Y-86320581D01*
X146225000Y-86287500D01*
X146225000Y-85512500D01*
X146226625Y-85479419D01*
X146231485Y-85446657D01*
X146239533Y-85414529D01*
X146250691Y-85383344D01*
X146264852Y-85353404D01*
X146281879Y-85324995D01*
X146301609Y-85298392D01*
X146323851Y-85273851D01*
X146348392Y-85251609D01*
X146374995Y-85231879D01*
X146403404Y-85214852D01*
X146433344Y-85200691D01*
X146464529Y-85189533D01*
X146496657Y-85181485D01*
X146529419Y-85176625D01*
X146562500Y-85175000D01*
X147237500Y-85175000D01*
X147270581Y-85176625D01*
X147270581Y-85176625D01*
G37*
D12*
X146900000Y-85900000D03*
D11*
G36*
X147270581Y-83426625D02*
X147303343Y-83431485D01*
X147335471Y-83439533D01*
X147366656Y-83450691D01*
X147396596Y-83464852D01*
X147425005Y-83481879D01*
X147451608Y-83501609D01*
X147476149Y-83523851D01*
X147498391Y-83548392D01*
X147518121Y-83574995D01*
X147535148Y-83603404D01*
X147549309Y-83633344D01*
X147560467Y-83664529D01*
X147568515Y-83696657D01*
X147573375Y-83729419D01*
X147575000Y-83762500D01*
X147575000Y-84537500D01*
X147573375Y-84570581D01*
X147568515Y-84603343D01*
X147560467Y-84635471D01*
X147549309Y-84666656D01*
X147535148Y-84696596D01*
X147518121Y-84725005D01*
X147498391Y-84751608D01*
X147476149Y-84776149D01*
X147451608Y-84798391D01*
X147425005Y-84818121D01*
X147396596Y-84835148D01*
X147366656Y-84849309D01*
X147335471Y-84860467D01*
X147303343Y-84868515D01*
X147270581Y-84873375D01*
X147237500Y-84875000D01*
X146562500Y-84875000D01*
X146529419Y-84873375D01*
X146496657Y-84868515D01*
X146464529Y-84860467D01*
X146433344Y-84849309D01*
X146403404Y-84835148D01*
X146374995Y-84818121D01*
X146348392Y-84798391D01*
X146323851Y-84776149D01*
X146301609Y-84751608D01*
X146281879Y-84725005D01*
X146264852Y-84696596D01*
X146250691Y-84666656D01*
X146239533Y-84635471D01*
X146231485Y-84603343D01*
X146226625Y-84570581D01*
X146225000Y-84537500D01*
X146225000Y-83762500D01*
X146226625Y-83729419D01*
X146231485Y-83696657D01*
X146239533Y-83664529D01*
X146250691Y-83633344D01*
X146264852Y-83603404D01*
X146281879Y-83574995D01*
X146301609Y-83548392D01*
X146323851Y-83523851D01*
X146348392Y-83501609D01*
X146374995Y-83481879D01*
X146403404Y-83464852D01*
X146433344Y-83450691D01*
X146464529Y-83439533D01*
X146496657Y-83431485D01*
X146529419Y-83426625D01*
X146562500Y-83425000D01*
X147237500Y-83425000D01*
X147270581Y-83426625D01*
X147270581Y-83426625D01*
G37*
D12*
X146900000Y-84150000D03*
G04 #@! TD*
D10*
G04 #@! TO.C,U1*
X161450000Y-63925000D03*
X161450000Y-64575000D03*
X161450000Y-65225000D03*
X161450000Y-65875000D03*
X161450000Y-66525000D03*
X161450000Y-67175000D03*
X161450000Y-67825000D03*
X161450000Y-68475000D03*
X167350000Y-68475000D03*
X167350000Y-67825000D03*
X167350000Y-67175000D03*
X167350000Y-66525000D03*
X167350000Y-65875000D03*
X167350000Y-65225000D03*
X167350000Y-64575000D03*
X167350000Y-63925000D03*
G04 #@! TD*
D11*
G04 #@! TO.C,C2*
G36*
X145220581Y-69826625D02*
X145253343Y-69831485D01*
X145285471Y-69839533D01*
X145316656Y-69850691D01*
X145346596Y-69864852D01*
X145375005Y-69881879D01*
X145401608Y-69901609D01*
X145426149Y-69923851D01*
X145448391Y-69948392D01*
X145468121Y-69974995D01*
X145485148Y-70003404D01*
X145499309Y-70033344D01*
X145510467Y-70064529D01*
X145518515Y-70096657D01*
X145523375Y-70129419D01*
X145525000Y-70162500D01*
X145525000Y-70837500D01*
X145523375Y-70870581D01*
X145518515Y-70903343D01*
X145510467Y-70935471D01*
X145499309Y-70966656D01*
X145485148Y-70996596D01*
X145468121Y-71025005D01*
X145448391Y-71051608D01*
X145426149Y-71076149D01*
X145401608Y-71098391D01*
X145375005Y-71118121D01*
X145346596Y-71135148D01*
X145316656Y-71149309D01*
X145285471Y-71160467D01*
X145253343Y-71168515D01*
X145220581Y-71173375D01*
X145187500Y-71175000D01*
X144412500Y-71175000D01*
X144379419Y-71173375D01*
X144346657Y-71168515D01*
X144314529Y-71160467D01*
X144283344Y-71149309D01*
X144253404Y-71135148D01*
X144224995Y-71118121D01*
X144198392Y-71098391D01*
X144173851Y-71076149D01*
X144151609Y-71051608D01*
X144131879Y-71025005D01*
X144114852Y-70996596D01*
X144100691Y-70966656D01*
X144089533Y-70935471D01*
X144081485Y-70903343D01*
X144076625Y-70870581D01*
X144075000Y-70837500D01*
X144075000Y-70162500D01*
X144076625Y-70129419D01*
X144081485Y-70096657D01*
X144089533Y-70064529D01*
X144100691Y-70033344D01*
X144114852Y-70003404D01*
X144131879Y-69974995D01*
X144151609Y-69948392D01*
X144173851Y-69923851D01*
X144198392Y-69901609D01*
X144224995Y-69881879D01*
X144253404Y-69864852D01*
X144283344Y-69850691D01*
X144314529Y-69839533D01*
X144346657Y-69831485D01*
X144379419Y-69826625D01*
X144412500Y-69825000D01*
X145187500Y-69825000D01*
X145220581Y-69826625D01*
X145220581Y-69826625D01*
G37*
D12*
X144800000Y-70500000D03*
D11*
G36*
X146970581Y-69826625D02*
X147003343Y-69831485D01*
X147035471Y-69839533D01*
X147066656Y-69850691D01*
X147096596Y-69864852D01*
X147125005Y-69881879D01*
X147151608Y-69901609D01*
X147176149Y-69923851D01*
X147198391Y-69948392D01*
X147218121Y-69974995D01*
X147235148Y-70003404D01*
X147249309Y-70033344D01*
X147260467Y-70064529D01*
X147268515Y-70096657D01*
X147273375Y-70129419D01*
X147275000Y-70162500D01*
X147275000Y-70837500D01*
X147273375Y-70870581D01*
X147268515Y-70903343D01*
X147260467Y-70935471D01*
X147249309Y-70966656D01*
X147235148Y-70996596D01*
X147218121Y-71025005D01*
X147198391Y-71051608D01*
X147176149Y-71076149D01*
X147151608Y-71098391D01*
X147125005Y-71118121D01*
X147096596Y-71135148D01*
X147066656Y-71149309D01*
X147035471Y-71160467D01*
X147003343Y-71168515D01*
X146970581Y-71173375D01*
X146937500Y-71175000D01*
X146162500Y-71175000D01*
X146129419Y-71173375D01*
X146096657Y-71168515D01*
X146064529Y-71160467D01*
X146033344Y-71149309D01*
X146003404Y-71135148D01*
X145974995Y-71118121D01*
X145948392Y-71098391D01*
X145923851Y-71076149D01*
X145901609Y-71051608D01*
X145881879Y-71025005D01*
X145864852Y-70996596D01*
X145850691Y-70966656D01*
X145839533Y-70935471D01*
X145831485Y-70903343D01*
X145826625Y-70870581D01*
X145825000Y-70837500D01*
X145825000Y-70162500D01*
X145826625Y-70129419D01*
X145831485Y-70096657D01*
X145839533Y-70064529D01*
X145850691Y-70033344D01*
X145864852Y-70003404D01*
X145881879Y-69974995D01*
X145901609Y-69948392D01*
X145923851Y-69923851D01*
X145948392Y-69901609D01*
X145974995Y-69881879D01*
X146003404Y-69864852D01*
X146033344Y-69850691D01*
X146064529Y-69839533D01*
X146096657Y-69831485D01*
X146129419Y-69826625D01*
X146162500Y-69825000D01*
X146937500Y-69825000D01*
X146970581Y-69826625D01*
X146970581Y-69826625D01*
G37*
D12*
X146550000Y-70500000D03*
G04 #@! TD*
D11*
G04 #@! TO.C,C4*
G36*
X151870581Y-88526625D02*
X151903343Y-88531485D01*
X151935471Y-88539533D01*
X151966656Y-88550691D01*
X151996596Y-88564852D01*
X152025005Y-88581879D01*
X152051608Y-88601609D01*
X152076149Y-88623851D01*
X152098391Y-88648392D01*
X152118121Y-88674995D01*
X152135148Y-88703404D01*
X152149309Y-88733344D01*
X152160467Y-88764529D01*
X152168515Y-88796657D01*
X152173375Y-88829419D01*
X152175000Y-88862500D01*
X152175000Y-89637500D01*
X152173375Y-89670581D01*
X152168515Y-89703343D01*
X152160467Y-89735471D01*
X152149309Y-89766656D01*
X152135148Y-89796596D01*
X152118121Y-89825005D01*
X152098391Y-89851608D01*
X152076149Y-89876149D01*
X152051608Y-89898391D01*
X152025005Y-89918121D01*
X151996596Y-89935148D01*
X151966656Y-89949309D01*
X151935471Y-89960467D01*
X151903343Y-89968515D01*
X151870581Y-89973375D01*
X151837500Y-89975000D01*
X151162500Y-89975000D01*
X151129419Y-89973375D01*
X151096657Y-89968515D01*
X151064529Y-89960467D01*
X151033344Y-89949309D01*
X151003404Y-89935148D01*
X150974995Y-89918121D01*
X150948392Y-89898391D01*
X150923851Y-89876149D01*
X150901609Y-89851608D01*
X150881879Y-89825005D01*
X150864852Y-89796596D01*
X150850691Y-89766656D01*
X150839533Y-89735471D01*
X150831485Y-89703343D01*
X150826625Y-89670581D01*
X150825000Y-89637500D01*
X150825000Y-88862500D01*
X150826625Y-88829419D01*
X150831485Y-88796657D01*
X150839533Y-88764529D01*
X150850691Y-88733344D01*
X150864852Y-88703404D01*
X150881879Y-88674995D01*
X150901609Y-88648392D01*
X150923851Y-88623851D01*
X150948392Y-88601609D01*
X150974995Y-88581879D01*
X151003404Y-88564852D01*
X151033344Y-88550691D01*
X151064529Y-88539533D01*
X151096657Y-88531485D01*
X151129419Y-88526625D01*
X151162500Y-88525000D01*
X151837500Y-88525000D01*
X151870581Y-88526625D01*
X151870581Y-88526625D01*
G37*
D12*
X151500000Y-89250000D03*
D11*
G36*
X151870581Y-86776625D02*
X151903343Y-86781485D01*
X151935471Y-86789533D01*
X151966656Y-86800691D01*
X151996596Y-86814852D01*
X152025005Y-86831879D01*
X152051608Y-86851609D01*
X152076149Y-86873851D01*
X152098391Y-86898392D01*
X152118121Y-86924995D01*
X152135148Y-86953404D01*
X152149309Y-86983344D01*
X152160467Y-87014529D01*
X152168515Y-87046657D01*
X152173375Y-87079419D01*
X152175000Y-87112500D01*
X152175000Y-87887500D01*
X152173375Y-87920581D01*
X152168515Y-87953343D01*
X152160467Y-87985471D01*
X152149309Y-88016656D01*
X152135148Y-88046596D01*
X152118121Y-88075005D01*
X152098391Y-88101608D01*
X152076149Y-88126149D01*
X152051608Y-88148391D01*
X152025005Y-88168121D01*
X151996596Y-88185148D01*
X151966656Y-88199309D01*
X151935471Y-88210467D01*
X151903343Y-88218515D01*
X151870581Y-88223375D01*
X151837500Y-88225000D01*
X151162500Y-88225000D01*
X151129419Y-88223375D01*
X151096657Y-88218515D01*
X151064529Y-88210467D01*
X151033344Y-88199309D01*
X151003404Y-88185148D01*
X150974995Y-88168121D01*
X150948392Y-88148391D01*
X150923851Y-88126149D01*
X150901609Y-88101608D01*
X150881879Y-88075005D01*
X150864852Y-88046596D01*
X150850691Y-88016656D01*
X150839533Y-87985471D01*
X150831485Y-87953343D01*
X150826625Y-87920581D01*
X150825000Y-87887500D01*
X150825000Y-87112500D01*
X150826625Y-87079419D01*
X150831485Y-87046657D01*
X150839533Y-87014529D01*
X150850691Y-86983344D01*
X150864852Y-86953404D01*
X150881879Y-86924995D01*
X150901609Y-86898392D01*
X150923851Y-86873851D01*
X150948392Y-86851609D01*
X150974995Y-86831879D01*
X151003404Y-86814852D01*
X151033344Y-86800691D01*
X151064529Y-86789533D01*
X151096657Y-86781485D01*
X151129419Y-86776625D01*
X151162500Y-86775000D01*
X151837500Y-86775000D01*
X151870581Y-86776625D01*
X151870581Y-86776625D01*
G37*
D12*
X151500000Y-87500000D03*
G04 #@! TD*
D13*
G04 #@! TO.C,J1*
X146000000Y-72100000D03*
D14*
X147000000Y-72100000D03*
G04 #@! TD*
G04 #@! TO.C,J2*
X145550000Y-89400000D03*
D13*
X146550000Y-89400000D03*
G04 #@! TD*
G04 #@! TO.C,J3*
X168100000Y-78200000D03*
D14*
X168100000Y-79200000D03*
X168100000Y-80200000D03*
X168100000Y-81200000D03*
G04 #@! TD*
D11*
G04 #@! TO.C,L1*
G36*
X146221071Y-79201623D02*
X146253781Y-79206475D01*
X146285857Y-79214509D01*
X146316991Y-79225649D01*
X146346884Y-79239787D01*
X146375247Y-79256787D01*
X146401807Y-79276485D01*
X146426308Y-79298692D01*
X146448515Y-79323193D01*
X146468213Y-79349753D01*
X146485213Y-79378116D01*
X146499351Y-79408009D01*
X146510491Y-79439143D01*
X146518525Y-79471219D01*
X146523377Y-79503929D01*
X146525000Y-79536956D01*
X146525000Y-80663044D01*
X146523377Y-80696071D01*
X146518525Y-80728781D01*
X146510491Y-80760857D01*
X146499351Y-80791991D01*
X146485213Y-80821884D01*
X146468213Y-80850247D01*
X146448515Y-80876807D01*
X146426308Y-80901308D01*
X146401807Y-80923515D01*
X146375247Y-80943213D01*
X146346884Y-80960213D01*
X146316991Y-80974351D01*
X146285857Y-80985491D01*
X146253781Y-80993525D01*
X146221071Y-80998377D01*
X146188044Y-81000000D01*
X145311956Y-81000000D01*
X145278929Y-80998377D01*
X145246219Y-80993525D01*
X145214143Y-80985491D01*
X145183009Y-80974351D01*
X145153116Y-80960213D01*
X145124753Y-80943213D01*
X145098193Y-80923515D01*
X145073692Y-80901308D01*
X145051485Y-80876807D01*
X145031787Y-80850247D01*
X145014787Y-80821884D01*
X145000649Y-80791991D01*
X144989509Y-80760857D01*
X144981475Y-80728781D01*
X144976623Y-80696071D01*
X144975000Y-80663044D01*
X144975000Y-79536956D01*
X144976623Y-79503929D01*
X144981475Y-79471219D01*
X144989509Y-79439143D01*
X145000649Y-79408009D01*
X145014787Y-79378116D01*
X145031787Y-79349753D01*
X145051485Y-79323193D01*
X145073692Y-79298692D01*
X145098193Y-79276485D01*
X145124753Y-79256787D01*
X145153116Y-79239787D01*
X145183009Y-79225649D01*
X145214143Y-79214509D01*
X145246219Y-79206475D01*
X145278929Y-79201623D01*
X145311956Y-79200000D01*
X146188044Y-79200000D01*
X146221071Y-79201623D01*
X146221071Y-79201623D01*
G37*
D15*
X145750000Y-80100000D03*
D11*
G36*
X148271071Y-79201623D02*
X148303781Y-79206475D01*
X148335857Y-79214509D01*
X148366991Y-79225649D01*
X148396884Y-79239787D01*
X148425247Y-79256787D01*
X148451807Y-79276485D01*
X148476308Y-79298692D01*
X148498515Y-79323193D01*
X148518213Y-79349753D01*
X148535213Y-79378116D01*
X148549351Y-79408009D01*
X148560491Y-79439143D01*
X148568525Y-79471219D01*
X148573377Y-79503929D01*
X148575000Y-79536956D01*
X148575000Y-80663044D01*
X148573377Y-80696071D01*
X148568525Y-80728781D01*
X148560491Y-80760857D01*
X148549351Y-80791991D01*
X148535213Y-80821884D01*
X148518213Y-80850247D01*
X148498515Y-80876807D01*
X148476308Y-80901308D01*
X148451807Y-80923515D01*
X148425247Y-80943213D01*
X148396884Y-80960213D01*
X148366991Y-80974351D01*
X148335857Y-80985491D01*
X148303781Y-80993525D01*
X148271071Y-80998377D01*
X148238044Y-81000000D01*
X147361956Y-81000000D01*
X147328929Y-80998377D01*
X147296219Y-80993525D01*
X147264143Y-80985491D01*
X147233009Y-80974351D01*
X147203116Y-80960213D01*
X147174753Y-80943213D01*
X147148193Y-80923515D01*
X147123692Y-80901308D01*
X147101485Y-80876807D01*
X147081787Y-80850247D01*
X147064787Y-80821884D01*
X147050649Y-80791991D01*
X147039509Y-80760857D01*
X147031475Y-80728781D01*
X147026623Y-80696071D01*
X147025000Y-80663044D01*
X147025000Y-79536956D01*
X147026623Y-79503929D01*
X147031475Y-79471219D01*
X147039509Y-79439143D01*
X147050649Y-79408009D01*
X147064787Y-79378116D01*
X147081787Y-79349753D01*
X147101485Y-79323193D01*
X147123692Y-79298692D01*
X147148193Y-79276485D01*
X147174753Y-79256787D01*
X147203116Y-79239787D01*
X147233009Y-79225649D01*
X147264143Y-79214509D01*
X147296219Y-79206475D01*
X147328929Y-79201623D01*
X147361956Y-79200000D01*
X148238044Y-79200000D01*
X148271071Y-79201623D01*
X148271071Y-79201623D01*
G37*
D15*
X147800000Y-80100000D03*
G04 #@! TD*
D11*
G04 #@! TO.C,L2*
G36*
X157971071Y-73801623D02*
X158003781Y-73806475D01*
X158035857Y-73814509D01*
X158066991Y-73825649D01*
X158096884Y-73839787D01*
X158125247Y-73856787D01*
X158151807Y-73876485D01*
X158176308Y-73898692D01*
X158198515Y-73923193D01*
X158218213Y-73949753D01*
X158235213Y-73978116D01*
X158249351Y-74008009D01*
X158260491Y-74039143D01*
X158268525Y-74071219D01*
X158273377Y-74103929D01*
X158275000Y-74136956D01*
X158275000Y-75263044D01*
X158273377Y-75296071D01*
X158268525Y-75328781D01*
X158260491Y-75360857D01*
X158249351Y-75391991D01*
X158235213Y-75421884D01*
X158218213Y-75450247D01*
X158198515Y-75476807D01*
X158176308Y-75501308D01*
X158151807Y-75523515D01*
X158125247Y-75543213D01*
X158096884Y-75560213D01*
X158066991Y-75574351D01*
X158035857Y-75585491D01*
X158003781Y-75593525D01*
X157971071Y-75598377D01*
X157938044Y-75600000D01*
X157061956Y-75600000D01*
X157028929Y-75598377D01*
X156996219Y-75593525D01*
X156964143Y-75585491D01*
X156933009Y-75574351D01*
X156903116Y-75560213D01*
X156874753Y-75543213D01*
X156848193Y-75523515D01*
X156823692Y-75501308D01*
X156801485Y-75476807D01*
X156781787Y-75450247D01*
X156764787Y-75421884D01*
X156750649Y-75391991D01*
X156739509Y-75360857D01*
X156731475Y-75328781D01*
X156726623Y-75296071D01*
X156725000Y-75263044D01*
X156725000Y-74136956D01*
X156726623Y-74103929D01*
X156731475Y-74071219D01*
X156739509Y-74039143D01*
X156750649Y-74008009D01*
X156764787Y-73978116D01*
X156781787Y-73949753D01*
X156801485Y-73923193D01*
X156823692Y-73898692D01*
X156848193Y-73876485D01*
X156874753Y-73856787D01*
X156903116Y-73839787D01*
X156933009Y-73825649D01*
X156964143Y-73814509D01*
X156996219Y-73806475D01*
X157028929Y-73801623D01*
X157061956Y-73800000D01*
X157938044Y-73800000D01*
X157971071Y-73801623D01*
X157971071Y-73801623D01*
G37*
D15*
X157500000Y-74700000D03*
D11*
G36*
X155921071Y-73801623D02*
X155953781Y-73806475D01*
X155985857Y-73814509D01*
X156016991Y-73825649D01*
X156046884Y-73839787D01*
X156075247Y-73856787D01*
X156101807Y-73876485D01*
X156126308Y-73898692D01*
X156148515Y-73923193D01*
X156168213Y-73949753D01*
X156185213Y-73978116D01*
X156199351Y-74008009D01*
X156210491Y-74039143D01*
X156218525Y-74071219D01*
X156223377Y-74103929D01*
X156225000Y-74136956D01*
X156225000Y-75263044D01*
X156223377Y-75296071D01*
X156218525Y-75328781D01*
X156210491Y-75360857D01*
X156199351Y-75391991D01*
X156185213Y-75421884D01*
X156168213Y-75450247D01*
X156148515Y-75476807D01*
X156126308Y-75501308D01*
X156101807Y-75523515D01*
X156075247Y-75543213D01*
X156046884Y-75560213D01*
X156016991Y-75574351D01*
X155985857Y-75585491D01*
X155953781Y-75593525D01*
X155921071Y-75598377D01*
X155888044Y-75600000D01*
X155011956Y-75600000D01*
X154978929Y-75598377D01*
X154946219Y-75593525D01*
X154914143Y-75585491D01*
X154883009Y-75574351D01*
X154853116Y-75560213D01*
X154824753Y-75543213D01*
X154798193Y-75523515D01*
X154773692Y-75501308D01*
X154751485Y-75476807D01*
X154731787Y-75450247D01*
X154714787Y-75421884D01*
X154700649Y-75391991D01*
X154689509Y-75360857D01*
X154681475Y-75328781D01*
X154676623Y-75296071D01*
X154675000Y-75263044D01*
X154675000Y-74136956D01*
X154676623Y-74103929D01*
X154681475Y-74071219D01*
X154689509Y-74039143D01*
X154700649Y-74008009D01*
X154714787Y-73978116D01*
X154731787Y-73949753D01*
X154751485Y-73923193D01*
X154773692Y-73898692D01*
X154798193Y-73876485D01*
X154824753Y-73856787D01*
X154853116Y-73839787D01*
X154883009Y-73825649D01*
X154914143Y-73814509D01*
X154946219Y-73806475D01*
X154978929Y-73801623D01*
X155011956Y-73800000D01*
X155888044Y-73800000D01*
X155921071Y-73801623D01*
X155921071Y-73801623D01*
G37*
D15*
X155450000Y-74700000D03*
G04 #@! TD*
D11*
G04 #@! TO.C,L3*
G36*
X149846071Y-88826623D02*
X149878781Y-88831475D01*
X149910857Y-88839509D01*
X149941991Y-88850649D01*
X149971884Y-88864787D01*
X150000247Y-88881787D01*
X150026807Y-88901485D01*
X150051308Y-88923692D01*
X150073515Y-88948193D01*
X150093213Y-88974753D01*
X150110213Y-89003116D01*
X150124351Y-89033009D01*
X150135491Y-89064143D01*
X150143525Y-89096219D01*
X150148377Y-89128929D01*
X150150000Y-89161956D01*
X150150000Y-90038044D01*
X150148377Y-90071071D01*
X150143525Y-90103781D01*
X150135491Y-90135857D01*
X150124351Y-90166991D01*
X150110213Y-90196884D01*
X150093213Y-90225247D01*
X150073515Y-90251807D01*
X150051308Y-90276308D01*
X150026807Y-90298515D01*
X150000247Y-90318213D01*
X149971884Y-90335213D01*
X149941991Y-90349351D01*
X149910857Y-90360491D01*
X149878781Y-90368525D01*
X149846071Y-90373377D01*
X149813044Y-90375000D01*
X148686956Y-90375000D01*
X148653929Y-90373377D01*
X148621219Y-90368525D01*
X148589143Y-90360491D01*
X148558009Y-90349351D01*
X148528116Y-90335213D01*
X148499753Y-90318213D01*
X148473193Y-90298515D01*
X148448692Y-90276308D01*
X148426485Y-90251807D01*
X148406787Y-90225247D01*
X148389787Y-90196884D01*
X148375649Y-90166991D01*
X148364509Y-90135857D01*
X148356475Y-90103781D01*
X148351623Y-90071071D01*
X148350000Y-90038044D01*
X148350000Y-89161956D01*
X148351623Y-89128929D01*
X148356475Y-89096219D01*
X148364509Y-89064143D01*
X148375649Y-89033009D01*
X148389787Y-89003116D01*
X148406787Y-88974753D01*
X148426485Y-88948193D01*
X148448692Y-88923692D01*
X148473193Y-88901485D01*
X148499753Y-88881787D01*
X148528116Y-88864787D01*
X148558009Y-88850649D01*
X148589143Y-88839509D01*
X148621219Y-88831475D01*
X148653929Y-88826623D01*
X148686956Y-88825000D01*
X149813044Y-88825000D01*
X149846071Y-88826623D01*
X149846071Y-88826623D01*
G37*
D15*
X149250000Y-89600000D03*
D11*
G36*
X149846071Y-86776623D02*
X149878781Y-86781475D01*
X149910857Y-86789509D01*
X149941991Y-86800649D01*
X149971884Y-86814787D01*
X150000247Y-86831787D01*
X150026807Y-86851485D01*
X150051308Y-86873692D01*
X150073515Y-86898193D01*
X150093213Y-86924753D01*
X150110213Y-86953116D01*
X150124351Y-86983009D01*
X150135491Y-87014143D01*
X150143525Y-87046219D01*
X150148377Y-87078929D01*
X150150000Y-87111956D01*
X150150000Y-87988044D01*
X150148377Y-88021071D01*
X150143525Y-88053781D01*
X150135491Y-88085857D01*
X150124351Y-88116991D01*
X150110213Y-88146884D01*
X150093213Y-88175247D01*
X150073515Y-88201807D01*
X150051308Y-88226308D01*
X150026807Y-88248515D01*
X150000247Y-88268213D01*
X149971884Y-88285213D01*
X149941991Y-88299351D01*
X149910857Y-88310491D01*
X149878781Y-88318525D01*
X149846071Y-88323377D01*
X149813044Y-88325000D01*
X148686956Y-88325000D01*
X148653929Y-88323377D01*
X148621219Y-88318525D01*
X148589143Y-88310491D01*
X148558009Y-88299351D01*
X148528116Y-88285213D01*
X148499753Y-88268213D01*
X148473193Y-88248515D01*
X148448692Y-88226308D01*
X148426485Y-88201807D01*
X148406787Y-88175247D01*
X148389787Y-88146884D01*
X148375649Y-88116991D01*
X148364509Y-88085857D01*
X148356475Y-88053781D01*
X148351623Y-88021071D01*
X148350000Y-87988044D01*
X148350000Y-87111956D01*
X148351623Y-87078929D01*
X148356475Y-87046219D01*
X148364509Y-87014143D01*
X148375649Y-86983009D01*
X148389787Y-86953116D01*
X148406787Y-86924753D01*
X148426485Y-86898193D01*
X148448692Y-86873692D01*
X148473193Y-86851485D01*
X148499753Y-86831787D01*
X148528116Y-86814787D01*
X148558009Y-86800649D01*
X148589143Y-86789509D01*
X148621219Y-86781475D01*
X148653929Y-86776623D01*
X148686956Y-86775000D01*
X149813044Y-86775000D01*
X149846071Y-86776623D01*
X149846071Y-86776623D01*
G37*
D15*
X149250000Y-87550000D03*
G04 #@! TD*
D11*
G04 #@! TO.C,R4*
G36*
X156470581Y-63926625D02*
X156503343Y-63931485D01*
X156535471Y-63939533D01*
X156566656Y-63950691D01*
X156596596Y-63964852D01*
X156625005Y-63981879D01*
X156651608Y-64001609D01*
X156676149Y-64023851D01*
X156698391Y-64048392D01*
X156718121Y-64074995D01*
X156735148Y-64103404D01*
X156749309Y-64133344D01*
X156760467Y-64164529D01*
X156768515Y-64196657D01*
X156773375Y-64229419D01*
X156775000Y-64262500D01*
X156775000Y-65037500D01*
X156773375Y-65070581D01*
X156768515Y-65103343D01*
X156760467Y-65135471D01*
X156749309Y-65166656D01*
X156735148Y-65196596D01*
X156718121Y-65225005D01*
X156698391Y-65251608D01*
X156676149Y-65276149D01*
X156651608Y-65298391D01*
X156625005Y-65318121D01*
X156596596Y-65335148D01*
X156566656Y-65349309D01*
X156535471Y-65360467D01*
X156503343Y-65368515D01*
X156470581Y-65373375D01*
X156437500Y-65375000D01*
X155762500Y-65375000D01*
X155729419Y-65373375D01*
X155696657Y-65368515D01*
X155664529Y-65360467D01*
X155633344Y-65349309D01*
X155603404Y-65335148D01*
X155574995Y-65318121D01*
X155548392Y-65298391D01*
X155523851Y-65276149D01*
X155501609Y-65251608D01*
X155481879Y-65225005D01*
X155464852Y-65196596D01*
X155450691Y-65166656D01*
X155439533Y-65135471D01*
X155431485Y-65103343D01*
X155426625Y-65070581D01*
X155425000Y-65037500D01*
X155425000Y-64262500D01*
X155426625Y-64229419D01*
X155431485Y-64196657D01*
X155439533Y-64164529D01*
X155450691Y-64133344D01*
X155464852Y-64103404D01*
X155481879Y-64074995D01*
X155501609Y-64048392D01*
X155523851Y-64023851D01*
X155548392Y-64001609D01*
X155574995Y-63981879D01*
X155603404Y-63964852D01*
X155633344Y-63950691D01*
X155664529Y-63939533D01*
X155696657Y-63931485D01*
X155729419Y-63926625D01*
X155762500Y-63925000D01*
X156437500Y-63925000D01*
X156470581Y-63926625D01*
X156470581Y-63926625D01*
G37*
D12*
X156100000Y-64650000D03*
D11*
G36*
X156470581Y-65676625D02*
X156503343Y-65681485D01*
X156535471Y-65689533D01*
X156566656Y-65700691D01*
X156596596Y-65714852D01*
X156625005Y-65731879D01*
X156651608Y-65751609D01*
X156676149Y-65773851D01*
X156698391Y-65798392D01*
X156718121Y-65824995D01*
X156735148Y-65853404D01*
X156749309Y-65883344D01*
X156760467Y-65914529D01*
X156768515Y-65946657D01*
X156773375Y-65979419D01*
X156775000Y-66012500D01*
X156775000Y-66787500D01*
X156773375Y-66820581D01*
X156768515Y-66853343D01*
X156760467Y-66885471D01*
X156749309Y-66916656D01*
X156735148Y-66946596D01*
X156718121Y-66975005D01*
X156698391Y-67001608D01*
X156676149Y-67026149D01*
X156651608Y-67048391D01*
X156625005Y-67068121D01*
X156596596Y-67085148D01*
X156566656Y-67099309D01*
X156535471Y-67110467D01*
X156503343Y-67118515D01*
X156470581Y-67123375D01*
X156437500Y-67125000D01*
X155762500Y-67125000D01*
X155729419Y-67123375D01*
X155696657Y-67118515D01*
X155664529Y-67110467D01*
X155633344Y-67099309D01*
X155603404Y-67085148D01*
X155574995Y-67068121D01*
X155548392Y-67048391D01*
X155523851Y-67026149D01*
X155501609Y-67001608D01*
X155481879Y-66975005D01*
X155464852Y-66946596D01*
X155450691Y-66916656D01*
X155439533Y-66885471D01*
X155431485Y-66853343D01*
X155426625Y-66820581D01*
X155425000Y-66787500D01*
X155425000Y-66012500D01*
X155426625Y-65979419D01*
X155431485Y-65946657D01*
X155439533Y-65914529D01*
X155450691Y-65883344D01*
X155464852Y-65853404D01*
X155481879Y-65824995D01*
X155501609Y-65798392D01*
X155523851Y-65773851D01*
X155548392Y-65751609D01*
X155574995Y-65731879D01*
X155603404Y-65714852D01*
X155633344Y-65700691D01*
X155664529Y-65689533D01*
X155696657Y-65681485D01*
X155729419Y-65676625D01*
X155762500Y-65675000D01*
X156437500Y-65675000D01*
X156470581Y-65676625D01*
X156470581Y-65676625D01*
G37*
D12*
X156100000Y-66400000D03*
G04 #@! TD*
D11*
G04 #@! TO.C,R5*
G36*
X156570581Y-68576625D02*
X156603343Y-68581485D01*
X156635471Y-68589533D01*
X156666656Y-68600691D01*
X156696596Y-68614852D01*
X156725005Y-68631879D01*
X156751608Y-68651609D01*
X156776149Y-68673851D01*
X156798391Y-68698392D01*
X156818121Y-68724995D01*
X156835148Y-68753404D01*
X156849309Y-68783344D01*
X156860467Y-68814529D01*
X156868515Y-68846657D01*
X156873375Y-68879419D01*
X156875000Y-68912500D01*
X156875000Y-69687500D01*
X156873375Y-69720581D01*
X156868515Y-69753343D01*
X156860467Y-69785471D01*
X156849309Y-69816656D01*
X156835148Y-69846596D01*
X156818121Y-69875005D01*
X156798391Y-69901608D01*
X156776149Y-69926149D01*
X156751608Y-69948391D01*
X156725005Y-69968121D01*
X156696596Y-69985148D01*
X156666656Y-69999309D01*
X156635471Y-70010467D01*
X156603343Y-70018515D01*
X156570581Y-70023375D01*
X156537500Y-70025000D01*
X155862500Y-70025000D01*
X155829419Y-70023375D01*
X155796657Y-70018515D01*
X155764529Y-70010467D01*
X155733344Y-69999309D01*
X155703404Y-69985148D01*
X155674995Y-69968121D01*
X155648392Y-69948391D01*
X155623851Y-69926149D01*
X155601609Y-69901608D01*
X155581879Y-69875005D01*
X155564852Y-69846596D01*
X155550691Y-69816656D01*
X155539533Y-69785471D01*
X155531485Y-69753343D01*
X155526625Y-69720581D01*
X155525000Y-69687500D01*
X155525000Y-68912500D01*
X155526625Y-68879419D01*
X155531485Y-68846657D01*
X155539533Y-68814529D01*
X155550691Y-68783344D01*
X155564852Y-68753404D01*
X155581879Y-68724995D01*
X155601609Y-68698392D01*
X155623851Y-68673851D01*
X155648392Y-68651609D01*
X155674995Y-68631879D01*
X155703404Y-68614852D01*
X155733344Y-68600691D01*
X155764529Y-68589533D01*
X155796657Y-68581485D01*
X155829419Y-68576625D01*
X155862500Y-68575000D01*
X156537500Y-68575000D01*
X156570581Y-68576625D01*
X156570581Y-68576625D01*
G37*
D12*
X156200000Y-69300000D03*
D11*
G36*
X156570581Y-70326625D02*
X156603343Y-70331485D01*
X156635471Y-70339533D01*
X156666656Y-70350691D01*
X156696596Y-70364852D01*
X156725005Y-70381879D01*
X156751608Y-70401609D01*
X156776149Y-70423851D01*
X156798391Y-70448392D01*
X156818121Y-70474995D01*
X156835148Y-70503404D01*
X156849309Y-70533344D01*
X156860467Y-70564529D01*
X156868515Y-70596657D01*
X156873375Y-70629419D01*
X156875000Y-70662500D01*
X156875000Y-71437500D01*
X156873375Y-71470581D01*
X156868515Y-71503343D01*
X156860467Y-71535471D01*
X156849309Y-71566656D01*
X156835148Y-71596596D01*
X156818121Y-71625005D01*
X156798391Y-71651608D01*
X156776149Y-71676149D01*
X156751608Y-71698391D01*
X156725005Y-71718121D01*
X156696596Y-71735148D01*
X156666656Y-71749309D01*
X156635471Y-71760467D01*
X156603343Y-71768515D01*
X156570581Y-71773375D01*
X156537500Y-71775000D01*
X155862500Y-71775000D01*
X155829419Y-71773375D01*
X155796657Y-71768515D01*
X155764529Y-71760467D01*
X155733344Y-71749309D01*
X155703404Y-71735148D01*
X155674995Y-71718121D01*
X155648392Y-71698391D01*
X155623851Y-71676149D01*
X155601609Y-71651608D01*
X155581879Y-71625005D01*
X155564852Y-71596596D01*
X155550691Y-71566656D01*
X155539533Y-71535471D01*
X155531485Y-71503343D01*
X155526625Y-71470581D01*
X155525000Y-71437500D01*
X155525000Y-70662500D01*
X155526625Y-70629419D01*
X155531485Y-70596657D01*
X155539533Y-70564529D01*
X155550691Y-70533344D01*
X155564852Y-70503404D01*
X155581879Y-70474995D01*
X155601609Y-70448392D01*
X155623851Y-70423851D01*
X155648392Y-70401609D01*
X155674995Y-70381879D01*
X155703404Y-70364852D01*
X155733344Y-70350691D01*
X155764529Y-70339533D01*
X155796657Y-70331485D01*
X155829419Y-70326625D01*
X155862500Y-70325000D01*
X156537500Y-70325000D01*
X156570581Y-70326625D01*
X156570581Y-70326625D01*
G37*
D12*
X156200000Y-71050000D03*
G04 #@! TD*
D11*
G04 #@! TO.C,R6*
G36*
X158270581Y-68576625D02*
X158303343Y-68581485D01*
X158335471Y-68589533D01*
X158366656Y-68600691D01*
X158396596Y-68614852D01*
X158425005Y-68631879D01*
X158451608Y-68651609D01*
X158476149Y-68673851D01*
X158498391Y-68698392D01*
X158518121Y-68724995D01*
X158535148Y-68753404D01*
X158549309Y-68783344D01*
X158560467Y-68814529D01*
X158568515Y-68846657D01*
X158573375Y-68879419D01*
X158575000Y-68912500D01*
X158575000Y-69687500D01*
X158573375Y-69720581D01*
X158568515Y-69753343D01*
X158560467Y-69785471D01*
X158549309Y-69816656D01*
X158535148Y-69846596D01*
X158518121Y-69875005D01*
X158498391Y-69901608D01*
X158476149Y-69926149D01*
X158451608Y-69948391D01*
X158425005Y-69968121D01*
X158396596Y-69985148D01*
X158366656Y-69999309D01*
X158335471Y-70010467D01*
X158303343Y-70018515D01*
X158270581Y-70023375D01*
X158237500Y-70025000D01*
X157562500Y-70025000D01*
X157529419Y-70023375D01*
X157496657Y-70018515D01*
X157464529Y-70010467D01*
X157433344Y-69999309D01*
X157403404Y-69985148D01*
X157374995Y-69968121D01*
X157348392Y-69948391D01*
X157323851Y-69926149D01*
X157301609Y-69901608D01*
X157281879Y-69875005D01*
X157264852Y-69846596D01*
X157250691Y-69816656D01*
X157239533Y-69785471D01*
X157231485Y-69753343D01*
X157226625Y-69720581D01*
X157225000Y-69687500D01*
X157225000Y-68912500D01*
X157226625Y-68879419D01*
X157231485Y-68846657D01*
X157239533Y-68814529D01*
X157250691Y-68783344D01*
X157264852Y-68753404D01*
X157281879Y-68724995D01*
X157301609Y-68698392D01*
X157323851Y-68673851D01*
X157348392Y-68651609D01*
X157374995Y-68631879D01*
X157403404Y-68614852D01*
X157433344Y-68600691D01*
X157464529Y-68589533D01*
X157496657Y-68581485D01*
X157529419Y-68576625D01*
X157562500Y-68575000D01*
X158237500Y-68575000D01*
X158270581Y-68576625D01*
X158270581Y-68576625D01*
G37*
D12*
X157900000Y-69300000D03*
D11*
G36*
X158270581Y-70326625D02*
X158303343Y-70331485D01*
X158335471Y-70339533D01*
X158366656Y-70350691D01*
X158396596Y-70364852D01*
X158425005Y-70381879D01*
X158451608Y-70401609D01*
X158476149Y-70423851D01*
X158498391Y-70448392D01*
X158518121Y-70474995D01*
X158535148Y-70503404D01*
X158549309Y-70533344D01*
X158560467Y-70564529D01*
X158568515Y-70596657D01*
X158573375Y-70629419D01*
X158575000Y-70662500D01*
X158575000Y-71437500D01*
X158573375Y-71470581D01*
X158568515Y-71503343D01*
X158560467Y-71535471D01*
X158549309Y-71566656D01*
X158535148Y-71596596D01*
X158518121Y-71625005D01*
X158498391Y-71651608D01*
X158476149Y-71676149D01*
X158451608Y-71698391D01*
X158425005Y-71718121D01*
X158396596Y-71735148D01*
X158366656Y-71749309D01*
X158335471Y-71760467D01*
X158303343Y-71768515D01*
X158270581Y-71773375D01*
X158237500Y-71775000D01*
X157562500Y-71775000D01*
X157529419Y-71773375D01*
X157496657Y-71768515D01*
X157464529Y-71760467D01*
X157433344Y-71749309D01*
X157403404Y-71735148D01*
X157374995Y-71718121D01*
X157348392Y-71698391D01*
X157323851Y-71676149D01*
X157301609Y-71651608D01*
X157281879Y-71625005D01*
X157264852Y-71596596D01*
X157250691Y-71566656D01*
X157239533Y-71535471D01*
X157231485Y-71503343D01*
X157226625Y-71470581D01*
X157225000Y-71437500D01*
X157225000Y-70662500D01*
X157226625Y-70629419D01*
X157231485Y-70596657D01*
X157239533Y-70564529D01*
X157250691Y-70533344D01*
X157264852Y-70503404D01*
X157281879Y-70474995D01*
X157301609Y-70448392D01*
X157323851Y-70423851D01*
X157348392Y-70401609D01*
X157374995Y-70381879D01*
X157403404Y-70364852D01*
X157433344Y-70350691D01*
X157464529Y-70339533D01*
X157496657Y-70331485D01*
X157529419Y-70326625D01*
X157562500Y-70325000D01*
X158237500Y-70325000D01*
X158270581Y-70326625D01*
X158270581Y-70326625D01*
G37*
D12*
X157900000Y-71050000D03*
G04 #@! TD*
D11*
G04 #@! TO.C,R7*
G36*
X158470581Y-63926625D02*
X158503343Y-63931485D01*
X158535471Y-63939533D01*
X158566656Y-63950691D01*
X158596596Y-63964852D01*
X158625005Y-63981879D01*
X158651608Y-64001609D01*
X158676149Y-64023851D01*
X158698391Y-64048392D01*
X158718121Y-64074995D01*
X158735148Y-64103404D01*
X158749309Y-64133344D01*
X158760467Y-64164529D01*
X158768515Y-64196657D01*
X158773375Y-64229419D01*
X158775000Y-64262500D01*
X158775000Y-65037500D01*
X158773375Y-65070581D01*
X158768515Y-65103343D01*
X158760467Y-65135471D01*
X158749309Y-65166656D01*
X158735148Y-65196596D01*
X158718121Y-65225005D01*
X158698391Y-65251608D01*
X158676149Y-65276149D01*
X158651608Y-65298391D01*
X158625005Y-65318121D01*
X158596596Y-65335148D01*
X158566656Y-65349309D01*
X158535471Y-65360467D01*
X158503343Y-65368515D01*
X158470581Y-65373375D01*
X158437500Y-65375000D01*
X157762500Y-65375000D01*
X157729419Y-65373375D01*
X157696657Y-65368515D01*
X157664529Y-65360467D01*
X157633344Y-65349309D01*
X157603404Y-65335148D01*
X157574995Y-65318121D01*
X157548392Y-65298391D01*
X157523851Y-65276149D01*
X157501609Y-65251608D01*
X157481879Y-65225005D01*
X157464852Y-65196596D01*
X157450691Y-65166656D01*
X157439533Y-65135471D01*
X157431485Y-65103343D01*
X157426625Y-65070581D01*
X157425000Y-65037500D01*
X157425000Y-64262500D01*
X157426625Y-64229419D01*
X157431485Y-64196657D01*
X157439533Y-64164529D01*
X157450691Y-64133344D01*
X157464852Y-64103404D01*
X157481879Y-64074995D01*
X157501609Y-64048392D01*
X157523851Y-64023851D01*
X157548392Y-64001609D01*
X157574995Y-63981879D01*
X157603404Y-63964852D01*
X157633344Y-63950691D01*
X157664529Y-63939533D01*
X157696657Y-63931485D01*
X157729419Y-63926625D01*
X157762500Y-63925000D01*
X158437500Y-63925000D01*
X158470581Y-63926625D01*
X158470581Y-63926625D01*
G37*
D12*
X158100000Y-64650000D03*
D11*
G36*
X158470581Y-65676625D02*
X158503343Y-65681485D01*
X158535471Y-65689533D01*
X158566656Y-65700691D01*
X158596596Y-65714852D01*
X158625005Y-65731879D01*
X158651608Y-65751609D01*
X158676149Y-65773851D01*
X158698391Y-65798392D01*
X158718121Y-65824995D01*
X158735148Y-65853404D01*
X158749309Y-65883344D01*
X158760467Y-65914529D01*
X158768515Y-65946657D01*
X158773375Y-65979419D01*
X158775000Y-66012500D01*
X158775000Y-66787500D01*
X158773375Y-66820581D01*
X158768515Y-66853343D01*
X158760467Y-66885471D01*
X158749309Y-66916656D01*
X158735148Y-66946596D01*
X158718121Y-66975005D01*
X158698391Y-67001608D01*
X158676149Y-67026149D01*
X158651608Y-67048391D01*
X158625005Y-67068121D01*
X158596596Y-67085148D01*
X158566656Y-67099309D01*
X158535471Y-67110467D01*
X158503343Y-67118515D01*
X158470581Y-67123375D01*
X158437500Y-67125000D01*
X157762500Y-67125000D01*
X157729419Y-67123375D01*
X157696657Y-67118515D01*
X157664529Y-67110467D01*
X157633344Y-67099309D01*
X157603404Y-67085148D01*
X157574995Y-67068121D01*
X157548392Y-67048391D01*
X157523851Y-67026149D01*
X157501609Y-67001608D01*
X157481879Y-66975005D01*
X157464852Y-66946596D01*
X157450691Y-66916656D01*
X157439533Y-66885471D01*
X157431485Y-66853343D01*
X157426625Y-66820581D01*
X157425000Y-66787500D01*
X157425000Y-66012500D01*
X157426625Y-65979419D01*
X157431485Y-65946657D01*
X157439533Y-65914529D01*
X157450691Y-65883344D01*
X157464852Y-65853404D01*
X157481879Y-65824995D01*
X157501609Y-65798392D01*
X157523851Y-65773851D01*
X157548392Y-65751609D01*
X157574995Y-65731879D01*
X157603404Y-65714852D01*
X157633344Y-65700691D01*
X157664529Y-65689533D01*
X157696657Y-65681485D01*
X157729419Y-65676625D01*
X157762500Y-65675000D01*
X158437500Y-65675000D01*
X158470581Y-65676625D01*
X158470581Y-65676625D01*
G37*
D12*
X158100000Y-66400000D03*
G04 #@! TD*
M02*
