G04 #@! TF.GenerationSoftware,KiCad,Pcbnew,(5.0.0)*
G04 #@! TF.CreationDate,2018-11-26T10:25:21+01:00*
G04 #@! TF.ProjectId,Insole_PCB,496E736F6C655F5043422E6B69636164,rev?*
G04 #@! TF.SameCoordinates,Original*
G04 #@! TF.FileFunction,Copper,L1,Top,Signal*
G04 #@! TF.FilePolarity,Positive*
%FSLAX46Y46*%
G04 Gerber Fmt 4.6, Leading zero omitted, Abs format (unit mm)*
G04 Created by KiCad (PCBNEW (5.0.0)) date 11/26/18 10:25:21*
%MOMM*%
%LPD*%
G01*
G04 APERTURE LIST*
G04 #@! TA.AperFunction,Conductor*
%ADD10C,0.100000*%
G04 #@! TD*
G04 #@! TA.AperFunction,SMDPad,CuDef*
%ADD11C,0.950000*%
G04 #@! TD*
G04 #@! TA.AperFunction,ComponentPad*
%ADD12R,0.850000X0.850000*%
G04 #@! TD*
G04 #@! TA.AperFunction,ComponentPad*
%ADD13O,0.850000X0.850000*%
G04 #@! TD*
G04 #@! TA.AperFunction,SMDPad,CuDef*
%ADD14R,1.800000X2.200000*%
G04 #@! TD*
G04 #@! TA.AperFunction,SMDPad,CuDef*
%ADD15R,0.300000X1.300000*%
G04 #@! TD*
G04 #@! TA.AperFunction,SMDPad,CuDef*
%ADD16R,1.000000X0.410000*%
G04 #@! TD*
G04 #@! TA.AperFunction,SMDPad,CuDef*
%ADD17R,0.410000X1.000000*%
G04 #@! TD*
G04 #@! TA.AperFunction,SMDPad,CuDef*
%ADD18R,0.650000X1.220000*%
G04 #@! TD*
G04 #@! TA.AperFunction,SMDPad,CuDef*
%ADD19R,0.250000X0.675000*%
G04 #@! TD*
G04 #@! TA.AperFunction,SMDPad,CuDef*
%ADD20R,0.675000X0.250000*%
G04 #@! TD*
G04 #@! TA.AperFunction,SMDPad,CuDef*
%ADD21R,1.220000X0.650000*%
G04 #@! TD*
G04 #@! TA.AperFunction,ViaPad*
%ADD22C,0.700000*%
G04 #@! TD*
G04 #@! TA.AperFunction,Conductor*
%ADD23C,0.250000*%
G04 #@! TD*
G04 #@! TA.AperFunction,Conductor*
%ADD24C,0.160000*%
G04 #@! TD*
G04 APERTURE END LIST*
D10*
G04 #@! TO.N,+BATT*
G04 #@! TO.C,C3*
G36*
X145310779Y-86976144D02*
X145333834Y-86979563D01*
X145356443Y-86985227D01*
X145378387Y-86993079D01*
X145399457Y-87003044D01*
X145419448Y-87015026D01*
X145438168Y-87028910D01*
X145455438Y-87044562D01*
X145471090Y-87061832D01*
X145484974Y-87080552D01*
X145496956Y-87100543D01*
X145506921Y-87121613D01*
X145514773Y-87143557D01*
X145520437Y-87166166D01*
X145523856Y-87189221D01*
X145525000Y-87212500D01*
X145525000Y-87687500D01*
X145523856Y-87710779D01*
X145520437Y-87733834D01*
X145514773Y-87756443D01*
X145506921Y-87778387D01*
X145496956Y-87799457D01*
X145484974Y-87819448D01*
X145471090Y-87838168D01*
X145455438Y-87855438D01*
X145438168Y-87871090D01*
X145419448Y-87884974D01*
X145399457Y-87896956D01*
X145378387Y-87906921D01*
X145356443Y-87914773D01*
X145333834Y-87920437D01*
X145310779Y-87923856D01*
X145287500Y-87925000D01*
X144712500Y-87925000D01*
X144689221Y-87923856D01*
X144666166Y-87920437D01*
X144643557Y-87914773D01*
X144621613Y-87906921D01*
X144600543Y-87896956D01*
X144580552Y-87884974D01*
X144561832Y-87871090D01*
X144544562Y-87855438D01*
X144528910Y-87838168D01*
X144515026Y-87819448D01*
X144503044Y-87799457D01*
X144493079Y-87778387D01*
X144485227Y-87756443D01*
X144479563Y-87733834D01*
X144476144Y-87710779D01*
X144475000Y-87687500D01*
X144475000Y-87212500D01*
X144476144Y-87189221D01*
X144479563Y-87166166D01*
X144485227Y-87143557D01*
X144493079Y-87121613D01*
X144503044Y-87100543D01*
X144515026Y-87080552D01*
X144528910Y-87061832D01*
X144544562Y-87044562D01*
X144561832Y-87028910D01*
X144580552Y-87015026D01*
X144600543Y-87003044D01*
X144621613Y-86993079D01*
X144643557Y-86985227D01*
X144666166Y-86979563D01*
X144689221Y-86976144D01*
X144712500Y-86975000D01*
X145287500Y-86975000D01*
X145310779Y-86976144D01*
X145310779Y-86976144D01*
G37*
D11*
G04 #@! TD*
G04 #@! TO.P,C3,2*
G04 #@! TO.N,+BATT*
X145000000Y-87450000D03*
D10*
G04 #@! TO.N,GND*
G04 #@! TO.C,C3*
G36*
X147060779Y-86976144D02*
X147083834Y-86979563D01*
X147106443Y-86985227D01*
X147128387Y-86993079D01*
X147149457Y-87003044D01*
X147169448Y-87015026D01*
X147188168Y-87028910D01*
X147205438Y-87044562D01*
X147221090Y-87061832D01*
X147234974Y-87080552D01*
X147246956Y-87100543D01*
X147256921Y-87121613D01*
X147264773Y-87143557D01*
X147270437Y-87166166D01*
X147273856Y-87189221D01*
X147275000Y-87212500D01*
X147275000Y-87687500D01*
X147273856Y-87710779D01*
X147270437Y-87733834D01*
X147264773Y-87756443D01*
X147256921Y-87778387D01*
X147246956Y-87799457D01*
X147234974Y-87819448D01*
X147221090Y-87838168D01*
X147205438Y-87855438D01*
X147188168Y-87871090D01*
X147169448Y-87884974D01*
X147149457Y-87896956D01*
X147128387Y-87906921D01*
X147106443Y-87914773D01*
X147083834Y-87920437D01*
X147060779Y-87923856D01*
X147037500Y-87925000D01*
X146462500Y-87925000D01*
X146439221Y-87923856D01*
X146416166Y-87920437D01*
X146393557Y-87914773D01*
X146371613Y-87906921D01*
X146350543Y-87896956D01*
X146330552Y-87884974D01*
X146311832Y-87871090D01*
X146294562Y-87855438D01*
X146278910Y-87838168D01*
X146265026Y-87819448D01*
X146253044Y-87799457D01*
X146243079Y-87778387D01*
X146235227Y-87756443D01*
X146229563Y-87733834D01*
X146226144Y-87710779D01*
X146225000Y-87687500D01*
X146225000Y-87212500D01*
X146226144Y-87189221D01*
X146229563Y-87166166D01*
X146235227Y-87143557D01*
X146243079Y-87121613D01*
X146253044Y-87100543D01*
X146265026Y-87080552D01*
X146278910Y-87061832D01*
X146294562Y-87044562D01*
X146311832Y-87028910D01*
X146330552Y-87015026D01*
X146350543Y-87003044D01*
X146371613Y-86993079D01*
X146393557Y-86985227D01*
X146416166Y-86979563D01*
X146439221Y-86976144D01*
X146462500Y-86975000D01*
X147037500Y-86975000D01*
X147060779Y-86976144D01*
X147060779Y-86976144D01*
G37*
D11*
G04 #@! TD*
G04 #@! TO.P,C3,1*
G04 #@! TO.N,GND*
X146750000Y-87450000D03*
D12*
G04 #@! TO.P,J1,1*
G04 #@! TO.N,GND*
X146000000Y-72100000D03*
D13*
G04 #@! TO.P,J1,2*
G04 #@! TO.N,+5V*
X147000000Y-72100000D03*
G04 #@! TD*
G04 #@! TO.P,J2,2*
G04 #@! TO.N,+BATT*
X145550000Y-89400000D03*
D12*
G04 #@! TO.P,J2,1*
G04 #@! TO.N,GND*
X146550000Y-89400000D03*
G04 #@! TD*
G04 #@! TO.P,J3,1*
G04 #@! TO.N,GND*
X168100000Y-78200000D03*
D13*
G04 #@! TO.P,J3,2*
G04 #@! TO.N,Net-(J3-Pad2)*
X168100000Y-79200000D03*
G04 #@! TO.P,J3,3*
G04 #@! TO.N,Net-(J3-Pad3)*
X168100000Y-80200000D03*
G04 #@! TO.P,J3,4*
G04 #@! TO.N,Net-(J3-Pad4)*
X168100000Y-81200000D03*
G04 #@! TD*
D14*
G04 #@! TO.P,J4,MP*
G04 #@! TO.N,N/C*
X146350000Y-66600000D03*
X167650000Y-66600000D03*
D15*
G04 #@! TO.P,J4,1*
G04 #@! TO.N,/U1_A7*
X165750000Y-69850000D03*
G04 #@! TO.P,J4,2*
G04 #@! TO.N,/U1_A6*
X165250000Y-69850000D03*
G04 #@! TO.P,J4,3*
G04 #@! TO.N,/U1_A5*
X164750000Y-69850000D03*
G04 #@! TO.P,J4,4*
G04 #@! TO.N,/U1_A4*
X164250000Y-69850000D03*
G04 #@! TO.P,J4,5*
G04 #@! TO.N,/U1_A3*
X163750000Y-69850000D03*
G04 #@! TO.P,J4,6*
G04 #@! TO.N,/U1_A2*
X163250000Y-69850000D03*
G04 #@! TO.P,J4,7*
G04 #@! TO.N,/U1_A1*
X162750000Y-69850000D03*
G04 #@! TO.P,J4,8*
G04 #@! TO.N,/U1_A0*
X162250000Y-69850000D03*
G04 #@! TO.P,J4,9*
G04 #@! TO.N,/U2_A7*
X161750000Y-69850000D03*
G04 #@! TO.P,J4,10*
G04 #@! TO.N,/U2_A6*
X161250000Y-69850000D03*
G04 #@! TO.P,J4,11*
G04 #@! TO.N,/U2_A5*
X160750000Y-69850000D03*
G04 #@! TO.P,J4,12*
G04 #@! TO.N,/U2_A4*
X160250000Y-69850000D03*
G04 #@! TO.P,J4,13*
G04 #@! TO.N,/U2_A3*
X159750000Y-69850000D03*
G04 #@! TO.P,J4,14*
G04 #@! TO.N,/U2_A2*
X159250000Y-69850000D03*
G04 #@! TO.P,J4,15*
G04 #@! TO.N,/U2_A1*
X158750000Y-69850000D03*
G04 #@! TO.P,J4,16*
G04 #@! TO.N,/U2_A0*
X158250000Y-69850000D03*
G04 #@! TO.P,J4,17*
G04 #@! TO.N,/U1_Data*
X157750000Y-69850000D03*
G04 #@! TO.P,J4,18*
G04 #@! TO.N,/U2_Data*
X157250000Y-69850000D03*
G04 #@! TO.P,J4,19*
G04 #@! TO.N,/U3_Data*
X156750000Y-69850000D03*
G04 #@! TO.P,J4,20*
G04 #@! TO.N,/U4_Data*
X156250000Y-69850000D03*
G04 #@! TO.P,J4,21*
G04 #@! TO.N,/U3_A7*
X155750000Y-69850000D03*
G04 #@! TO.P,J4,22*
G04 #@! TO.N,/U3_A6*
X155250000Y-69850000D03*
G04 #@! TO.P,J4,23*
G04 #@! TO.N,/U3_A5*
X154750000Y-69850000D03*
G04 #@! TO.P,J4,24*
G04 #@! TO.N,/U3_A4*
X154250000Y-69850000D03*
G04 #@! TO.P,J4,25*
G04 #@! TO.N,/U3_A3*
X153750000Y-69850000D03*
G04 #@! TO.P,J4,26*
G04 #@! TO.N,/U3_A2*
X153250000Y-69850000D03*
G04 #@! TO.P,J4,27*
G04 #@! TO.N,/U3_A1*
X152750000Y-69850000D03*
G04 #@! TO.P,J4,28*
G04 #@! TO.N,/U3_A0*
X152250000Y-69850000D03*
G04 #@! TO.P,J4,29*
G04 #@! TO.N,/U4_A7*
X151750000Y-69850000D03*
G04 #@! TO.P,J4,30*
G04 #@! TO.N,/U4_A6*
X151250000Y-69850000D03*
G04 #@! TO.P,J4,31*
G04 #@! TO.N,/U4_A5*
X150750000Y-69850000D03*
G04 #@! TO.P,J4,32*
G04 #@! TO.N,/U4_A4*
X150250000Y-69850000D03*
G04 #@! TO.P,J4,33*
G04 #@! TO.N,/U4_A3*
X149750000Y-69850000D03*
G04 #@! TO.P,J4,34*
G04 #@! TO.N,/U4_A2*
X149250000Y-69850000D03*
G04 #@! TO.P,J4,35*
G04 #@! TO.N,/U4_A1*
X148750000Y-69850000D03*
G04 #@! TO.P,J4,36*
G04 #@! TO.N,/U4_A0*
X148250000Y-69850000D03*
G04 #@! TD*
D10*
G04 #@! TO.N,Net-(R1-Pad1)*
G04 #@! TO.C,R1*
G36*
X146010779Y-79226144D02*
X146033834Y-79229563D01*
X146056443Y-79235227D01*
X146078387Y-79243079D01*
X146099457Y-79253044D01*
X146119448Y-79265026D01*
X146138168Y-79278910D01*
X146155438Y-79294562D01*
X146171090Y-79311832D01*
X146184974Y-79330552D01*
X146196956Y-79350543D01*
X146206921Y-79371613D01*
X146214773Y-79393557D01*
X146220437Y-79416166D01*
X146223856Y-79439221D01*
X146225000Y-79462500D01*
X146225000Y-79937500D01*
X146223856Y-79960779D01*
X146220437Y-79983834D01*
X146214773Y-80006443D01*
X146206921Y-80028387D01*
X146196956Y-80049457D01*
X146184974Y-80069448D01*
X146171090Y-80088168D01*
X146155438Y-80105438D01*
X146138168Y-80121090D01*
X146119448Y-80134974D01*
X146099457Y-80146956D01*
X146078387Y-80156921D01*
X146056443Y-80164773D01*
X146033834Y-80170437D01*
X146010779Y-80173856D01*
X145987500Y-80175000D01*
X145412500Y-80175000D01*
X145389221Y-80173856D01*
X145366166Y-80170437D01*
X145343557Y-80164773D01*
X145321613Y-80156921D01*
X145300543Y-80146956D01*
X145280552Y-80134974D01*
X145261832Y-80121090D01*
X145244562Y-80105438D01*
X145228910Y-80088168D01*
X145215026Y-80069448D01*
X145203044Y-80049457D01*
X145193079Y-80028387D01*
X145185227Y-80006443D01*
X145179563Y-79983834D01*
X145176144Y-79960779D01*
X145175000Y-79937500D01*
X145175000Y-79462500D01*
X145176144Y-79439221D01*
X145179563Y-79416166D01*
X145185227Y-79393557D01*
X145193079Y-79371613D01*
X145203044Y-79350543D01*
X145215026Y-79330552D01*
X145228910Y-79311832D01*
X145244562Y-79294562D01*
X145261832Y-79278910D01*
X145280552Y-79265026D01*
X145300543Y-79253044D01*
X145321613Y-79243079D01*
X145343557Y-79235227D01*
X145366166Y-79229563D01*
X145389221Y-79226144D01*
X145412500Y-79225000D01*
X145987500Y-79225000D01*
X146010779Y-79226144D01*
X146010779Y-79226144D01*
G37*
D11*
G04 #@! TD*
G04 #@! TO.P,R1,1*
G04 #@! TO.N,Net-(R1-Pad1)*
X145700000Y-79700000D03*
D10*
G04 #@! TO.N,GND*
G04 #@! TO.C,R1*
G36*
X147760779Y-79226144D02*
X147783834Y-79229563D01*
X147806443Y-79235227D01*
X147828387Y-79243079D01*
X147849457Y-79253044D01*
X147869448Y-79265026D01*
X147888168Y-79278910D01*
X147905438Y-79294562D01*
X147921090Y-79311832D01*
X147934974Y-79330552D01*
X147946956Y-79350543D01*
X147956921Y-79371613D01*
X147964773Y-79393557D01*
X147970437Y-79416166D01*
X147973856Y-79439221D01*
X147975000Y-79462500D01*
X147975000Y-79937500D01*
X147973856Y-79960779D01*
X147970437Y-79983834D01*
X147964773Y-80006443D01*
X147956921Y-80028387D01*
X147946956Y-80049457D01*
X147934974Y-80069448D01*
X147921090Y-80088168D01*
X147905438Y-80105438D01*
X147888168Y-80121090D01*
X147869448Y-80134974D01*
X147849457Y-80146956D01*
X147828387Y-80156921D01*
X147806443Y-80164773D01*
X147783834Y-80170437D01*
X147760779Y-80173856D01*
X147737500Y-80175000D01*
X147162500Y-80175000D01*
X147139221Y-80173856D01*
X147116166Y-80170437D01*
X147093557Y-80164773D01*
X147071613Y-80156921D01*
X147050543Y-80146956D01*
X147030552Y-80134974D01*
X147011832Y-80121090D01*
X146994562Y-80105438D01*
X146978910Y-80088168D01*
X146965026Y-80069448D01*
X146953044Y-80049457D01*
X146943079Y-80028387D01*
X146935227Y-80006443D01*
X146929563Y-79983834D01*
X146926144Y-79960779D01*
X146925000Y-79937500D01*
X146925000Y-79462500D01*
X146926144Y-79439221D01*
X146929563Y-79416166D01*
X146935227Y-79393557D01*
X146943079Y-79371613D01*
X146953044Y-79350543D01*
X146965026Y-79330552D01*
X146978910Y-79311832D01*
X146994562Y-79294562D01*
X147011832Y-79278910D01*
X147030552Y-79265026D01*
X147050543Y-79253044D01*
X147071613Y-79243079D01*
X147093557Y-79235227D01*
X147116166Y-79229563D01*
X147139221Y-79226144D01*
X147162500Y-79225000D01*
X147737500Y-79225000D01*
X147760779Y-79226144D01*
X147760779Y-79226144D01*
G37*
D11*
G04 #@! TD*
G04 #@! TO.P,R1,2*
G04 #@! TO.N,GND*
X147450000Y-79700000D03*
D10*
G04 #@! TO.N,+3V3*
G04 #@! TO.C,R2*
G36*
X146760779Y-85376144D02*
X146783834Y-85379563D01*
X146806443Y-85385227D01*
X146828387Y-85393079D01*
X146849457Y-85403044D01*
X146869448Y-85415026D01*
X146888168Y-85428910D01*
X146905438Y-85444562D01*
X146921090Y-85461832D01*
X146934974Y-85480552D01*
X146946956Y-85500543D01*
X146956921Y-85521613D01*
X146964773Y-85543557D01*
X146970437Y-85566166D01*
X146973856Y-85589221D01*
X146975000Y-85612500D01*
X146975000Y-86187500D01*
X146973856Y-86210779D01*
X146970437Y-86233834D01*
X146964773Y-86256443D01*
X146956921Y-86278387D01*
X146946956Y-86299457D01*
X146934974Y-86319448D01*
X146921090Y-86338168D01*
X146905438Y-86355438D01*
X146888168Y-86371090D01*
X146869448Y-86384974D01*
X146849457Y-86396956D01*
X146828387Y-86406921D01*
X146806443Y-86414773D01*
X146783834Y-86420437D01*
X146760779Y-86423856D01*
X146737500Y-86425000D01*
X146262500Y-86425000D01*
X146239221Y-86423856D01*
X146216166Y-86420437D01*
X146193557Y-86414773D01*
X146171613Y-86406921D01*
X146150543Y-86396956D01*
X146130552Y-86384974D01*
X146111832Y-86371090D01*
X146094562Y-86355438D01*
X146078910Y-86338168D01*
X146065026Y-86319448D01*
X146053044Y-86299457D01*
X146043079Y-86278387D01*
X146035227Y-86256443D01*
X146029563Y-86233834D01*
X146026144Y-86210779D01*
X146025000Y-86187500D01*
X146025000Y-85612500D01*
X146026144Y-85589221D01*
X146029563Y-85566166D01*
X146035227Y-85543557D01*
X146043079Y-85521613D01*
X146053044Y-85500543D01*
X146065026Y-85480552D01*
X146078910Y-85461832D01*
X146094562Y-85444562D01*
X146111832Y-85428910D01*
X146130552Y-85415026D01*
X146150543Y-85403044D01*
X146171613Y-85393079D01*
X146193557Y-85385227D01*
X146216166Y-85379563D01*
X146239221Y-85376144D01*
X146262500Y-85375000D01*
X146737500Y-85375000D01*
X146760779Y-85376144D01*
X146760779Y-85376144D01*
G37*
D11*
G04 #@! TD*
G04 #@! TO.P,R2,1*
G04 #@! TO.N,+3V3*
X146500000Y-85900000D03*
D10*
G04 #@! TO.N,Net-(R2-Pad2)*
G04 #@! TO.C,R2*
G36*
X146760779Y-83626144D02*
X146783834Y-83629563D01*
X146806443Y-83635227D01*
X146828387Y-83643079D01*
X146849457Y-83653044D01*
X146869448Y-83665026D01*
X146888168Y-83678910D01*
X146905438Y-83694562D01*
X146921090Y-83711832D01*
X146934974Y-83730552D01*
X146946956Y-83750543D01*
X146956921Y-83771613D01*
X146964773Y-83793557D01*
X146970437Y-83816166D01*
X146973856Y-83839221D01*
X146975000Y-83862500D01*
X146975000Y-84437500D01*
X146973856Y-84460779D01*
X146970437Y-84483834D01*
X146964773Y-84506443D01*
X146956921Y-84528387D01*
X146946956Y-84549457D01*
X146934974Y-84569448D01*
X146921090Y-84588168D01*
X146905438Y-84605438D01*
X146888168Y-84621090D01*
X146869448Y-84634974D01*
X146849457Y-84646956D01*
X146828387Y-84656921D01*
X146806443Y-84664773D01*
X146783834Y-84670437D01*
X146760779Y-84673856D01*
X146737500Y-84675000D01*
X146262500Y-84675000D01*
X146239221Y-84673856D01*
X146216166Y-84670437D01*
X146193557Y-84664773D01*
X146171613Y-84656921D01*
X146150543Y-84646956D01*
X146130552Y-84634974D01*
X146111832Y-84621090D01*
X146094562Y-84605438D01*
X146078910Y-84588168D01*
X146065026Y-84569448D01*
X146053044Y-84549457D01*
X146043079Y-84528387D01*
X146035227Y-84506443D01*
X146029563Y-84483834D01*
X146026144Y-84460779D01*
X146025000Y-84437500D01*
X146025000Y-83862500D01*
X146026144Y-83839221D01*
X146029563Y-83816166D01*
X146035227Y-83793557D01*
X146043079Y-83771613D01*
X146053044Y-83750543D01*
X146065026Y-83730552D01*
X146078910Y-83711832D01*
X146094562Y-83694562D01*
X146111832Y-83678910D01*
X146130552Y-83665026D01*
X146150543Y-83653044D01*
X146171613Y-83643079D01*
X146193557Y-83635227D01*
X146216166Y-83629563D01*
X146239221Y-83626144D01*
X146262500Y-83625000D01*
X146737500Y-83625000D01*
X146760779Y-83626144D01*
X146760779Y-83626144D01*
G37*
D11*
G04 #@! TD*
G04 #@! TO.P,R2,2*
G04 #@! TO.N,Net-(R2-Pad2)*
X146500000Y-84150000D03*
D10*
G04 #@! TO.N,Net-(R3-Pad2)*
G04 #@! TO.C,R3*
G36*
X148010779Y-81426144D02*
X148033834Y-81429563D01*
X148056443Y-81435227D01*
X148078387Y-81443079D01*
X148099457Y-81453044D01*
X148119448Y-81465026D01*
X148138168Y-81478910D01*
X148155438Y-81494562D01*
X148171090Y-81511832D01*
X148184974Y-81530552D01*
X148196956Y-81550543D01*
X148206921Y-81571613D01*
X148214773Y-81593557D01*
X148220437Y-81616166D01*
X148223856Y-81639221D01*
X148225000Y-81662500D01*
X148225000Y-82137500D01*
X148223856Y-82160779D01*
X148220437Y-82183834D01*
X148214773Y-82206443D01*
X148206921Y-82228387D01*
X148196956Y-82249457D01*
X148184974Y-82269448D01*
X148171090Y-82288168D01*
X148155438Y-82305438D01*
X148138168Y-82321090D01*
X148119448Y-82334974D01*
X148099457Y-82346956D01*
X148078387Y-82356921D01*
X148056443Y-82364773D01*
X148033834Y-82370437D01*
X148010779Y-82373856D01*
X147987500Y-82375000D01*
X147412500Y-82375000D01*
X147389221Y-82373856D01*
X147366166Y-82370437D01*
X147343557Y-82364773D01*
X147321613Y-82356921D01*
X147300543Y-82346956D01*
X147280552Y-82334974D01*
X147261832Y-82321090D01*
X147244562Y-82305438D01*
X147228910Y-82288168D01*
X147215026Y-82269448D01*
X147203044Y-82249457D01*
X147193079Y-82228387D01*
X147185227Y-82206443D01*
X147179563Y-82183834D01*
X147176144Y-82160779D01*
X147175000Y-82137500D01*
X147175000Y-81662500D01*
X147176144Y-81639221D01*
X147179563Y-81616166D01*
X147185227Y-81593557D01*
X147193079Y-81571613D01*
X147203044Y-81550543D01*
X147215026Y-81530552D01*
X147228910Y-81511832D01*
X147244562Y-81494562D01*
X147261832Y-81478910D01*
X147280552Y-81465026D01*
X147300543Y-81453044D01*
X147321613Y-81443079D01*
X147343557Y-81435227D01*
X147366166Y-81429563D01*
X147389221Y-81426144D01*
X147412500Y-81425000D01*
X147987500Y-81425000D01*
X148010779Y-81426144D01*
X148010779Y-81426144D01*
G37*
D11*
G04 #@! TD*
G04 #@! TO.P,R3,2*
G04 #@! TO.N,Net-(R3-Pad2)*
X147700000Y-81900000D03*
D10*
G04 #@! TO.N,+3V3*
G04 #@! TO.C,R3*
G36*
X146260779Y-81426144D02*
X146283834Y-81429563D01*
X146306443Y-81435227D01*
X146328387Y-81443079D01*
X146349457Y-81453044D01*
X146369448Y-81465026D01*
X146388168Y-81478910D01*
X146405438Y-81494562D01*
X146421090Y-81511832D01*
X146434974Y-81530552D01*
X146446956Y-81550543D01*
X146456921Y-81571613D01*
X146464773Y-81593557D01*
X146470437Y-81616166D01*
X146473856Y-81639221D01*
X146475000Y-81662500D01*
X146475000Y-82137500D01*
X146473856Y-82160779D01*
X146470437Y-82183834D01*
X146464773Y-82206443D01*
X146456921Y-82228387D01*
X146446956Y-82249457D01*
X146434974Y-82269448D01*
X146421090Y-82288168D01*
X146405438Y-82305438D01*
X146388168Y-82321090D01*
X146369448Y-82334974D01*
X146349457Y-82346956D01*
X146328387Y-82356921D01*
X146306443Y-82364773D01*
X146283834Y-82370437D01*
X146260779Y-82373856D01*
X146237500Y-82375000D01*
X145662500Y-82375000D01*
X145639221Y-82373856D01*
X145616166Y-82370437D01*
X145593557Y-82364773D01*
X145571613Y-82356921D01*
X145550543Y-82346956D01*
X145530552Y-82334974D01*
X145511832Y-82321090D01*
X145494562Y-82305438D01*
X145478910Y-82288168D01*
X145465026Y-82269448D01*
X145453044Y-82249457D01*
X145443079Y-82228387D01*
X145435227Y-82206443D01*
X145429563Y-82183834D01*
X145426144Y-82160779D01*
X145425000Y-82137500D01*
X145425000Y-81662500D01*
X145426144Y-81639221D01*
X145429563Y-81616166D01*
X145435227Y-81593557D01*
X145443079Y-81571613D01*
X145453044Y-81550543D01*
X145465026Y-81530552D01*
X145478910Y-81511832D01*
X145494562Y-81494562D01*
X145511832Y-81478910D01*
X145530552Y-81465026D01*
X145550543Y-81453044D01*
X145571613Y-81443079D01*
X145593557Y-81435227D01*
X145616166Y-81429563D01*
X145639221Y-81426144D01*
X145662500Y-81425000D01*
X146237500Y-81425000D01*
X146260779Y-81426144D01*
X146260779Y-81426144D01*
G37*
D11*
G04 #@! TD*
G04 #@! TO.P,R3,1*
G04 #@! TO.N,+3V3*
X145950000Y-81900000D03*
D10*
G04 #@! TO.N,+BATT*
G04 #@! TO.C,R9*
G36*
X166360779Y-79951144D02*
X166383834Y-79954563D01*
X166406443Y-79960227D01*
X166428387Y-79968079D01*
X166449457Y-79978044D01*
X166469448Y-79990026D01*
X166488168Y-80003910D01*
X166505438Y-80019562D01*
X166521090Y-80036832D01*
X166534974Y-80055552D01*
X166546956Y-80075543D01*
X166556921Y-80096613D01*
X166564773Y-80118557D01*
X166570437Y-80141166D01*
X166573856Y-80164221D01*
X166575000Y-80187500D01*
X166575000Y-80762500D01*
X166573856Y-80785779D01*
X166570437Y-80808834D01*
X166564773Y-80831443D01*
X166556921Y-80853387D01*
X166546956Y-80874457D01*
X166534974Y-80894448D01*
X166521090Y-80913168D01*
X166505438Y-80930438D01*
X166488168Y-80946090D01*
X166469448Y-80959974D01*
X166449457Y-80971956D01*
X166428387Y-80981921D01*
X166406443Y-80989773D01*
X166383834Y-80995437D01*
X166360779Y-80998856D01*
X166337500Y-81000000D01*
X165862500Y-81000000D01*
X165839221Y-80998856D01*
X165816166Y-80995437D01*
X165793557Y-80989773D01*
X165771613Y-80981921D01*
X165750543Y-80971956D01*
X165730552Y-80959974D01*
X165711832Y-80946090D01*
X165694562Y-80930438D01*
X165678910Y-80913168D01*
X165665026Y-80894448D01*
X165653044Y-80874457D01*
X165643079Y-80853387D01*
X165635227Y-80831443D01*
X165629563Y-80808834D01*
X165626144Y-80785779D01*
X165625000Y-80762500D01*
X165625000Y-80187500D01*
X165626144Y-80164221D01*
X165629563Y-80141166D01*
X165635227Y-80118557D01*
X165643079Y-80096613D01*
X165653044Y-80075543D01*
X165665026Y-80055552D01*
X165678910Y-80036832D01*
X165694562Y-80019562D01*
X165711832Y-80003910D01*
X165730552Y-79990026D01*
X165750543Y-79978044D01*
X165771613Y-79968079D01*
X165793557Y-79960227D01*
X165816166Y-79954563D01*
X165839221Y-79951144D01*
X165862500Y-79950000D01*
X166337500Y-79950000D01*
X166360779Y-79951144D01*
X166360779Y-79951144D01*
G37*
D11*
G04 #@! TD*
G04 #@! TO.P,R9,2*
G04 #@! TO.N,+BATT*
X166100000Y-80475000D03*
D10*
G04 #@! TO.N,Net-(R10-Pad2)*
G04 #@! TO.C,R9*
G36*
X166360779Y-78201144D02*
X166383834Y-78204563D01*
X166406443Y-78210227D01*
X166428387Y-78218079D01*
X166449457Y-78228044D01*
X166469448Y-78240026D01*
X166488168Y-78253910D01*
X166505438Y-78269562D01*
X166521090Y-78286832D01*
X166534974Y-78305552D01*
X166546956Y-78325543D01*
X166556921Y-78346613D01*
X166564773Y-78368557D01*
X166570437Y-78391166D01*
X166573856Y-78414221D01*
X166575000Y-78437500D01*
X166575000Y-79012500D01*
X166573856Y-79035779D01*
X166570437Y-79058834D01*
X166564773Y-79081443D01*
X166556921Y-79103387D01*
X166546956Y-79124457D01*
X166534974Y-79144448D01*
X166521090Y-79163168D01*
X166505438Y-79180438D01*
X166488168Y-79196090D01*
X166469448Y-79209974D01*
X166449457Y-79221956D01*
X166428387Y-79231921D01*
X166406443Y-79239773D01*
X166383834Y-79245437D01*
X166360779Y-79248856D01*
X166337500Y-79250000D01*
X165862500Y-79250000D01*
X165839221Y-79248856D01*
X165816166Y-79245437D01*
X165793557Y-79239773D01*
X165771613Y-79231921D01*
X165750543Y-79221956D01*
X165730552Y-79209974D01*
X165711832Y-79196090D01*
X165694562Y-79180438D01*
X165678910Y-79163168D01*
X165665026Y-79144448D01*
X165653044Y-79124457D01*
X165643079Y-79103387D01*
X165635227Y-79081443D01*
X165629563Y-79058834D01*
X165626144Y-79035779D01*
X165625000Y-79012500D01*
X165625000Y-78437500D01*
X165626144Y-78414221D01*
X165629563Y-78391166D01*
X165635227Y-78368557D01*
X165643079Y-78346613D01*
X165653044Y-78325543D01*
X165665026Y-78305552D01*
X165678910Y-78286832D01*
X165694562Y-78269562D01*
X165711832Y-78253910D01*
X165730552Y-78240026D01*
X165750543Y-78228044D01*
X165771613Y-78218079D01*
X165793557Y-78210227D01*
X165816166Y-78204563D01*
X165839221Y-78201144D01*
X165862500Y-78200000D01*
X166337500Y-78200000D01*
X166360779Y-78201144D01*
X166360779Y-78201144D01*
G37*
D11*
G04 #@! TD*
G04 #@! TO.P,R9,1*
G04 #@! TO.N,Net-(R10-Pad2)*
X166100000Y-78725000D03*
D10*
G04 #@! TO.N,GND*
G04 #@! TO.C,R10*
G36*
X166360779Y-74876144D02*
X166383834Y-74879563D01*
X166406443Y-74885227D01*
X166428387Y-74893079D01*
X166449457Y-74903044D01*
X166469448Y-74915026D01*
X166488168Y-74928910D01*
X166505438Y-74944562D01*
X166521090Y-74961832D01*
X166534974Y-74980552D01*
X166546956Y-75000543D01*
X166556921Y-75021613D01*
X166564773Y-75043557D01*
X166570437Y-75066166D01*
X166573856Y-75089221D01*
X166575000Y-75112500D01*
X166575000Y-75687500D01*
X166573856Y-75710779D01*
X166570437Y-75733834D01*
X166564773Y-75756443D01*
X166556921Y-75778387D01*
X166546956Y-75799457D01*
X166534974Y-75819448D01*
X166521090Y-75838168D01*
X166505438Y-75855438D01*
X166488168Y-75871090D01*
X166469448Y-75884974D01*
X166449457Y-75896956D01*
X166428387Y-75906921D01*
X166406443Y-75914773D01*
X166383834Y-75920437D01*
X166360779Y-75923856D01*
X166337500Y-75925000D01*
X165862500Y-75925000D01*
X165839221Y-75923856D01*
X165816166Y-75920437D01*
X165793557Y-75914773D01*
X165771613Y-75906921D01*
X165750543Y-75896956D01*
X165730552Y-75884974D01*
X165711832Y-75871090D01*
X165694562Y-75855438D01*
X165678910Y-75838168D01*
X165665026Y-75819448D01*
X165653044Y-75799457D01*
X165643079Y-75778387D01*
X165635227Y-75756443D01*
X165629563Y-75733834D01*
X165626144Y-75710779D01*
X165625000Y-75687500D01*
X165625000Y-75112500D01*
X165626144Y-75089221D01*
X165629563Y-75066166D01*
X165635227Y-75043557D01*
X165643079Y-75021613D01*
X165653044Y-75000543D01*
X165665026Y-74980552D01*
X165678910Y-74961832D01*
X165694562Y-74944562D01*
X165711832Y-74928910D01*
X165730552Y-74915026D01*
X165750543Y-74903044D01*
X165771613Y-74893079D01*
X165793557Y-74885227D01*
X165816166Y-74879563D01*
X165839221Y-74876144D01*
X165862500Y-74875000D01*
X166337500Y-74875000D01*
X166360779Y-74876144D01*
X166360779Y-74876144D01*
G37*
D11*
G04 #@! TD*
G04 #@! TO.P,R10,1*
G04 #@! TO.N,GND*
X166100000Y-75400000D03*
D10*
G04 #@! TO.N,Net-(R10-Pad2)*
G04 #@! TO.C,R10*
G36*
X166360779Y-76626144D02*
X166383834Y-76629563D01*
X166406443Y-76635227D01*
X166428387Y-76643079D01*
X166449457Y-76653044D01*
X166469448Y-76665026D01*
X166488168Y-76678910D01*
X166505438Y-76694562D01*
X166521090Y-76711832D01*
X166534974Y-76730552D01*
X166546956Y-76750543D01*
X166556921Y-76771613D01*
X166564773Y-76793557D01*
X166570437Y-76816166D01*
X166573856Y-76839221D01*
X166575000Y-76862500D01*
X166575000Y-77437500D01*
X166573856Y-77460779D01*
X166570437Y-77483834D01*
X166564773Y-77506443D01*
X166556921Y-77528387D01*
X166546956Y-77549457D01*
X166534974Y-77569448D01*
X166521090Y-77588168D01*
X166505438Y-77605438D01*
X166488168Y-77621090D01*
X166469448Y-77634974D01*
X166449457Y-77646956D01*
X166428387Y-77656921D01*
X166406443Y-77664773D01*
X166383834Y-77670437D01*
X166360779Y-77673856D01*
X166337500Y-77675000D01*
X165862500Y-77675000D01*
X165839221Y-77673856D01*
X165816166Y-77670437D01*
X165793557Y-77664773D01*
X165771613Y-77656921D01*
X165750543Y-77646956D01*
X165730552Y-77634974D01*
X165711832Y-77621090D01*
X165694562Y-77605438D01*
X165678910Y-77588168D01*
X165665026Y-77569448D01*
X165653044Y-77549457D01*
X165643079Y-77528387D01*
X165635227Y-77506443D01*
X165629563Y-77483834D01*
X165626144Y-77460779D01*
X165625000Y-77437500D01*
X165625000Y-76862500D01*
X165626144Y-76839221D01*
X165629563Y-76816166D01*
X165635227Y-76793557D01*
X165643079Y-76771613D01*
X165653044Y-76750543D01*
X165665026Y-76730552D01*
X165678910Y-76711832D01*
X165694562Y-76694562D01*
X165711832Y-76678910D01*
X165730552Y-76665026D01*
X165750543Y-76653044D01*
X165771613Y-76643079D01*
X165793557Y-76635227D01*
X165816166Y-76629563D01*
X165839221Y-76626144D01*
X165862500Y-76625000D01*
X166337500Y-76625000D01*
X166360779Y-76626144D01*
X166360779Y-76626144D01*
G37*
D11*
G04 #@! TD*
G04 #@! TO.P,R10,2*
G04 #@! TO.N,Net-(R10-Pad2)*
X166100000Y-77150000D03*
D16*
G04 #@! TO.P,U5,6*
G04 #@! TO.N,Net-(U5-Pad6)*
X152160000Y-80950000D03*
G04 #@! TO.P,U5,22*
G04 #@! TO.N,Net-(R10-Pad2)*
X161650000Y-80180000D03*
G04 #@! TO.P,U5,21*
G04 #@! TO.N,/S2*
X161650000Y-79420000D03*
G04 #@! TO.P,U5,20*
G04 #@! TO.N,/S1*
X161650000Y-78660000D03*
G04 #@! TO.P,U5,19*
G04 #@! TO.N,/S0*
X161650000Y-77900000D03*
D17*
G04 #@! TO.P,U5,18*
G04 #@! TO.N,/U1_Data*
X161090000Y-76660000D03*
G04 #@! TO.P,U5,17*
G04 #@! TO.N,/U2_Data*
X160330000Y-76660000D03*
G04 #@! TO.P,U5,16*
G04 #@! TO.N,/U3_Data*
X159570000Y-76660000D03*
G04 #@! TO.P,U5,15*
G04 #@! TO.N,Net-(J3-Pad2)*
X158810000Y-76660000D03*
G04 #@! TO.P,U5,14*
G04 #@! TO.N,Net-(L2-Pad2)*
X158050000Y-76660000D03*
G04 #@! TO.P,U5,13*
G04 #@! TO.N,/U4_Data*
X157280000Y-76660000D03*
G04 #@! TO.P,U5,12*
G04 #@! TO.N,Net-(J3-Pad4)*
X156520000Y-76660000D03*
G04 #@! TO.P,U5,11*
G04 #@! TO.N,GND*
X155760000Y-76660000D03*
G04 #@! TO.P,U5,10*
G04 #@! TO.N,Net-(R3-Pad2)*
X155000000Y-76660000D03*
G04 #@! TO.P,U5,9*
G04 #@! TO.N,Net-(R2-Pad2)*
X154240000Y-76660000D03*
G04 #@! TO.P,U5,8*
G04 #@! TO.N,Net-(J3-Pad3)*
X153470000Y-76660000D03*
G04 #@! TO.P,U5,7*
G04 #@! TO.N,/MUX_E*
X152710000Y-76660000D03*
D16*
G04 #@! TO.P,U5,5*
G04 #@! TO.N,Net-(L1-Pad2)*
X152160000Y-81710000D03*
G04 #@! TO.P,U5,4*
G04 #@! TO.N,Net-(U5-Pad4)*
X152160000Y-82470000D03*
G04 #@! TO.P,U5,3*
G04 #@! TO.N,Net-(U5-Pad3)*
X152160000Y-83230000D03*
G04 #@! TO.P,U5,2*
G04 #@! TO.N,Net-(U5-Pad2)*
X152160000Y-83990000D03*
G04 #@! TO.P,U5,1*
G04 #@! TO.N,GND*
X152160000Y-84760000D03*
G04 #@! TD*
D18*
G04 #@! TO.P,U6,5*
G04 #@! TO.N,Net-(R1-Pad1)*
X145750000Y-75290000D03*
G04 #@! TO.P,U6,4*
G04 #@! TO.N,+5V*
X147650000Y-75290000D03*
G04 #@! TO.P,U6,3*
G04 #@! TO.N,+BATT*
X147650000Y-77910000D03*
G04 #@! TO.P,U6,2*
G04 #@! TO.N,GND*
X146700000Y-77910000D03*
G04 #@! TO.P,U6,1*
G04 #@! TO.N,Net-(U6-Pad1)*
X145750000Y-77910000D03*
G04 #@! TD*
D19*
G04 #@! TO.P,U7,13*
G04 #@! TO.N,Net-(R3-Pad2)*
X149300000Y-83700000D03*
G04 #@! TO.P,U7,14*
G04 #@! TO.N,Net-(R2-Pad2)*
X148800000Y-83700000D03*
G04 #@! TO.P,U7,12*
G04 #@! TO.N,Net-(U7-Pad12)*
X149800000Y-83700000D03*
G04 #@! TO.P,U7,5*
G04 #@! TO.N,+3V3*
X148800000Y-85725000D03*
G04 #@! TO.P,U7,6*
G04 #@! TO.N,GND*
X149300000Y-85725000D03*
G04 #@! TO.P,U7,7*
X149800000Y-85725000D03*
D20*
G04 #@! TO.P,U7,1*
X148037500Y-83962500D03*
G04 #@! TO.P,U7,2*
X148037500Y-84462500D03*
G04 #@! TO.P,U7,3*
X148037500Y-84962500D03*
G04 #@! TO.P,U7,4*
G04 #@! TO.N,Net-(U7-Pad4)*
X148037500Y-85462500D03*
G04 #@! TO.P,U7,8*
G04 #@! TO.N,+3V3*
X150562500Y-85462500D03*
G04 #@! TO.P,U7,9*
G04 #@! TO.N,Net-(U7-Pad9)*
X150562500Y-84962500D03*
G04 #@! TO.P,U7,10*
G04 #@! TO.N,Net-(U7-Pad10)*
X150562500Y-84462500D03*
G04 #@! TO.P,U7,11*
G04 #@! TO.N,Net-(U7-Pad11)*
X150562500Y-83962500D03*
G04 #@! TD*
D21*
G04 #@! TO.P,U8,1*
G04 #@! TO.N,+BATT*
X151410000Y-89550000D03*
G04 #@! TO.P,U8,2*
G04 #@! TO.N,GND*
X151410000Y-88600000D03*
G04 #@! TO.P,U8,3*
G04 #@! TO.N,+BATT*
X151410000Y-87650000D03*
G04 #@! TO.P,U8,4*
G04 #@! TO.N,+3V3*
X148790000Y-87650000D03*
G04 #@! TO.P,U8,5*
G04 #@! TO.N,Net-(L3-Pad1)*
X148790000Y-89550000D03*
G04 #@! TD*
D22*
G04 #@! TO.N,GND*
X151458827Y-76967871D03*
X151600000Y-85600000D03*
X148987500Y-84700000D03*
X146800000Y-79100000D03*
X158565845Y-68075111D03*
X160000000Y-68000000D03*
X165000000Y-75200000D03*
G04 #@! TO.N,+3V3*
X149100000Y-63900000D03*
X154500000Y-64500000D03*
X168700000Y-64300000D03*
X159800000Y-64500000D03*
X145500000Y-85600000D03*
X167600000Y-75000000D03*
X147900000Y-87600000D03*
X145500000Y-64650000D03*
X145750000Y-73750000D03*
X145100000Y-82700000D03*
G04 #@! TO.N,+BATT*
X150270478Y-80279522D03*
X166270000Y-81328254D03*
X155950000Y-80050033D03*
G04 #@! TO.N,Net-(J3-Pad2)*
X158800000Y-77650000D03*
G04 #@! TO.N,Net-(J3-Pad3)*
X157900000Y-78000000D03*
G04 #@! TO.N,Net-(J3-Pad4)*
X156589091Y-77650000D03*
G04 #@! TO.N,/U1_A7*
X166100000Y-65900000D03*
G04 #@! TO.N,/U1_A6*
X165697507Y-65095014D03*
G04 #@! TO.N,/U1_A5*
X164717508Y-66800000D03*
G04 #@! TO.N,/U1_A4*
X164717508Y-65800000D03*
G04 #@! TO.N,/U1_A3*
X163200000Y-66300000D03*
G04 #@! TO.N,/U1_A2*
X162950000Y-65000000D03*
G04 #@! TO.N,/U1_A1*
X160050000Y-65450000D03*
G04 #@! TO.N,/U1_A0*
X159950000Y-66650000D03*
G04 #@! TO.N,/U2_A7*
X163000000Y-71300000D03*
G04 #@! TO.N,/U2_A6*
X164699911Y-72770000D03*
G04 #@! TO.N,/U2_A5*
X161254522Y-71645478D03*
G04 #@! TO.N,/U2_A4*
X165107299Y-71963197D03*
G04 #@! TO.N,/U2_A3*
X162490606Y-73581562D03*
G04 #@! TO.N,/U2_A2*
X162189460Y-74429686D03*
G04 #@! TO.N,/U2_A1*
X159200000Y-72600000D03*
G04 #@! TO.N,/U2_A0*
X158570000Y-73404986D03*
G04 #@! TO.N,/U1_Data*
X158500000Y-67000000D03*
G04 #@! TO.N,/U2_Data*
X157354640Y-67465077D03*
G04 #@! TO.N,/U3_Data*
X156500930Y-67750000D03*
G04 #@! TO.N,/U4_Data*
X155600927Y-67750000D03*
G04 #@! TO.N,/U3_A7*
X151300000Y-75300000D03*
G04 #@! TO.N,/U3_A6*
X154600000Y-73100000D03*
G04 #@! TO.N,/U3_A5*
X151017337Y-76173732D03*
G04 #@! TO.N,/U3_A4*
X152900000Y-72700000D03*
G04 #@! TO.N,/U3_A3*
X149620011Y-73630000D03*
G04 #@! TO.N,/U3_A2*
X148000000Y-73000000D03*
G04 #@! TO.N,/U3_A1*
X148218282Y-72126870D03*
G04 #@! TO.N,/U3_A0*
X147450000Y-69300000D03*
G04 #@! TO.N,/U4_A7*
X151761797Y-65895000D03*
G04 #@! TO.N,/U4_A6*
X151200000Y-65000000D03*
G04 #@! TO.N,/U4_A5*
X150870000Y-67500000D03*
G04 #@! TO.N,/U4_A4*
X150366902Y-64433098D03*
G04 #@! TO.N,/U4_A3*
X149740010Y-68310145D03*
G04 #@! TO.N,/U4_A2*
X150141786Y-66326020D03*
G04 #@! TO.N,/U4_A1*
X149606993Y-65496547D03*
G04 #@! TO.N,/U4_A0*
X148800000Y-65895000D03*
G04 #@! TO.N,Net-(L1-Pad2)*
X148700000Y-79600000D03*
G04 #@! TO.N,Net-(L2-Pad2)*
X157964532Y-75526696D03*
G04 #@! TO.N,Net-(L3-Pad1)*
X147850000Y-89600000D03*
G04 #@! TO.N,Net-(R2-Pad2)*
X146200000Y-83200000D03*
X154160000Y-77670000D03*
G04 #@! TO.N,Net-(R3-Pad2)*
X149300000Y-82200000D03*
X155230000Y-77710000D03*
G04 #@! TO.N,/S0*
X166900000Y-72100000D03*
X148375351Y-76559735D03*
X163545000Y-76300000D03*
G04 #@! TO.N,/S1*
X166006948Y-71988369D03*
X149900000Y-77400000D03*
X149260478Y-71269522D03*
X150709522Y-71309522D03*
X163770000Y-77200000D03*
G04 #@! TO.N,/S2*
X149500000Y-78300000D03*
X164500000Y-77800000D03*
X145750000Y-69150000D03*
X144929522Y-73320478D03*
X164772022Y-71127978D03*
G04 #@! TO.N,/MUX_E*
X166900000Y-82100000D03*
X167488910Y-77011090D03*
X154600000Y-66900000D03*
X163850000Y-63670000D03*
G04 #@! TD*
D23*
G04 #@! TO.N,GND*
X146700000Y-77050000D02*
X146700000Y-77910000D01*
X146700000Y-73475000D02*
X146700000Y-77050000D01*
X146000000Y-72775000D02*
X146700000Y-73475000D01*
X146000000Y-72100000D02*
X146000000Y-72775000D01*
D24*
X155760000Y-76000000D02*
X155260000Y-75500000D01*
X155760000Y-76660000D02*
X155760000Y-76000000D01*
X151458827Y-76702171D02*
X151458827Y-76967871D01*
X155260000Y-75500000D02*
X152660998Y-75500000D01*
X152660998Y-75500000D02*
X151458827Y-76702171D01*
X149800000Y-85725000D02*
X149300000Y-85725000D01*
X148037500Y-83962500D02*
X148037500Y-84462500D01*
X148037500Y-84462500D02*
X148037500Y-84962500D01*
X149800000Y-85512500D02*
X149800000Y-85725000D01*
X148037500Y-84462500D02*
X148750000Y-84462500D01*
X152160000Y-84760000D02*
X152160000Y-85040000D01*
X152160000Y-85040000D02*
X151600000Y-85600000D01*
X148750000Y-84462500D02*
X148987500Y-84700000D01*
X148987500Y-84700000D02*
X149800000Y-85512500D01*
X146850000Y-79100000D02*
X147450000Y-79700000D01*
X146800000Y-79100000D02*
X146850000Y-79100000D01*
X146800000Y-78010000D02*
X146700000Y-77910000D01*
X146800000Y-79100000D02*
X146800000Y-78010000D01*
X147949072Y-80199072D02*
X148299072Y-80199072D01*
X147450000Y-79700000D02*
X147949072Y-80199072D01*
X148299072Y-80199072D02*
X151300000Y-83200000D01*
X151500000Y-84760000D02*
X152160000Y-84760000D01*
X151300000Y-84560000D02*
X151500000Y-84760000D01*
X151300000Y-83200000D02*
X151300000Y-84560000D01*
X151410000Y-88600000D02*
X150250000Y-88600000D01*
X150250000Y-88600000D02*
X150100000Y-88450000D01*
X150100000Y-88450000D02*
X150100000Y-87400000D01*
X150100000Y-87400000D02*
X151050000Y-86450000D01*
X151050000Y-86450000D02*
X151500000Y-86450000D01*
X151600000Y-86350000D02*
X151600000Y-85600000D01*
X151500000Y-86450000D02*
X151600000Y-86350000D01*
X146550000Y-87650000D02*
X146750000Y-87450000D01*
X146750000Y-88600000D02*
X146550000Y-88800000D01*
X150250000Y-88600000D02*
X146750000Y-88600000D01*
X146550000Y-89400000D02*
X146550000Y-88800000D01*
X146550000Y-88800000D02*
X146550000Y-87650000D01*
X166675000Y-75400000D02*
X167225000Y-75950000D01*
X166100000Y-75400000D02*
X166675000Y-75400000D01*
X167225000Y-75950000D02*
X168050000Y-75950000D01*
X168050000Y-75950000D02*
X168400000Y-76300000D01*
X168100000Y-77615000D02*
X168100000Y-78200000D01*
X168400000Y-77315000D02*
X168100000Y-77615000D01*
X168400000Y-76300000D02*
X168400000Y-77315000D01*
X158565845Y-68075111D02*
X159924889Y-68075111D01*
X159924889Y-68075111D02*
X160000000Y-68000000D01*
X166100000Y-75400000D02*
X165200000Y-75400000D01*
X165200000Y-75400000D02*
X165000000Y-75200000D01*
G04 #@! TO.N,+3V3*
X149691877Y-63803097D02*
X151303097Y-63803097D01*
X149100000Y-63900000D02*
X149594974Y-63900000D01*
X149594974Y-63900000D02*
X149691877Y-63803097D01*
X151303097Y-63803097D02*
X152000000Y-64500000D01*
X152000000Y-64500000D02*
X154500000Y-64500000D01*
X145950000Y-82475000D02*
X145500000Y-82925000D01*
X145950000Y-81900000D02*
X145950000Y-82475000D01*
X145500000Y-82925000D02*
X145500000Y-85600000D01*
X145800000Y-85900000D02*
X146500000Y-85900000D01*
X145500000Y-85600000D02*
X145800000Y-85900000D01*
X147075000Y-85900000D02*
X147475000Y-86300000D01*
X146500000Y-85900000D02*
X147075000Y-85900000D01*
X148800000Y-85937500D02*
X148800000Y-85725000D01*
X148437500Y-86300000D02*
X148800000Y-85937500D01*
X148537500Y-86400000D02*
X150300000Y-86400000D01*
X148437500Y-86300000D02*
X148537500Y-86400000D01*
X150562500Y-86137500D02*
X150562500Y-85462500D01*
X150300000Y-86400000D02*
X150562500Y-86137500D01*
X167600000Y-74409131D02*
X168700000Y-73309131D01*
X167600000Y-75000000D02*
X167600000Y-74409131D01*
X168700000Y-73309131D02*
X168700000Y-69100000D01*
X168700000Y-69100000D02*
X169000000Y-68800000D01*
X169000000Y-68800000D02*
X169000000Y-65200000D01*
X168700000Y-64900000D02*
X168700000Y-64300000D01*
X169000000Y-65200000D02*
X168700000Y-64900000D01*
X168700000Y-64300000D02*
X161500000Y-64300000D01*
X161300000Y-64500000D02*
X159800000Y-64500000D01*
X161500000Y-64300000D02*
X161300000Y-64500000D01*
X147925000Y-86300000D02*
X147800000Y-86300000D01*
X148790000Y-87165000D02*
X147925000Y-86300000D01*
X148790000Y-87650000D02*
X148790000Y-87165000D01*
X147475000Y-86300000D02*
X147800000Y-86300000D01*
X147800000Y-86300000D02*
X148437500Y-86300000D01*
X148790000Y-87650000D02*
X147950000Y-87650000D01*
X147950000Y-87650000D02*
X147900000Y-87600000D01*
X145150000Y-82700000D02*
X145950000Y-81900000D01*
X145100000Y-82700000D02*
X145150000Y-82700000D01*
X144539990Y-74960010D02*
X145750000Y-73750000D01*
X144539990Y-79914990D02*
X144539990Y-74960010D01*
X145950000Y-81900000D02*
X145950000Y-81325000D01*
X145950000Y-81325000D02*
X144539990Y-79914990D01*
X145750000Y-73250000D02*
X145750000Y-73750000D01*
X145750000Y-73208554D02*
X145750000Y-73250000D01*
X144930000Y-72388554D02*
X145750000Y-73208554D01*
X145609131Y-70750000D02*
X144930000Y-71429131D01*
X146250000Y-70750000D02*
X145609131Y-70750000D01*
X146550000Y-70450000D02*
X146250000Y-70750000D01*
X145000000Y-65150000D02*
X145000000Y-67950000D01*
X145000000Y-67950000D02*
X145450000Y-68400000D01*
X145500000Y-64650000D02*
X145000000Y-65150000D01*
X145450000Y-68400000D02*
X145932402Y-68400000D01*
X144930000Y-71429131D02*
X144930000Y-72388554D01*
X145932402Y-68400000D02*
X146550000Y-69017598D01*
X146550000Y-69017598D02*
X146550000Y-70450000D01*
D23*
G04 #@! TO.N,+5V*
X147000000Y-72100000D02*
X147000000Y-73100000D01*
X147650000Y-73750000D02*
X147650000Y-75290000D01*
X147000000Y-73100000D02*
X147650000Y-73750000D01*
D24*
G04 #@! TO.N,+BATT*
X152180000Y-87650000D02*
X152450000Y-87920000D01*
X151410000Y-87650000D02*
X152180000Y-87650000D01*
X152180000Y-89550000D02*
X151410000Y-89550000D01*
X152450000Y-89280000D02*
X152180000Y-89550000D01*
X152450000Y-87920000D02*
X152450000Y-89280000D01*
X150270478Y-80045478D02*
X150270478Y-80279522D01*
X147650000Y-77910000D02*
X148135000Y-77910000D01*
X148135000Y-77910000D02*
X150270478Y-80045478D01*
X151410000Y-90035000D02*
X150945000Y-90500000D01*
X151410000Y-89550000D02*
X151410000Y-90035000D01*
X145550000Y-90001040D02*
X145550000Y-89400000D01*
X146048960Y-90500000D02*
X145550000Y-90001040D01*
X150945000Y-90500000D02*
X146048960Y-90500000D01*
X145000000Y-88850000D02*
X145550000Y-89400000D01*
X145000000Y-87450000D02*
X145000000Y-88850000D01*
X166100000Y-80475000D02*
X166100000Y-81158254D01*
X166100000Y-81158254D02*
X166270000Y-81328254D01*
X150499967Y-80050033D02*
X150270478Y-80279522D01*
X155950000Y-80050033D02*
X150499967Y-80050033D01*
G04 #@! TO.N,Net-(J3-Pad2)*
X158810000Y-77640000D02*
X158800000Y-77650000D01*
X158810000Y-76660000D02*
X158810000Y-77640000D01*
G04 #@! TO.N,Net-(J3-Pad3)*
X153470000Y-77320000D02*
X153470000Y-76660000D01*
X153320000Y-77470000D02*
X153470000Y-77320000D01*
X153230000Y-77470000D02*
X153320000Y-77470000D01*
X157900000Y-78000000D02*
X157405026Y-78000000D01*
X157405026Y-78000000D02*
X157065023Y-78340003D01*
X157065023Y-78340003D02*
X153200003Y-78340003D01*
X153200003Y-78340003D02*
X153030000Y-78170000D01*
X153030000Y-78170000D02*
X153030000Y-77670000D01*
X153030000Y-77670000D02*
X153230000Y-77470000D01*
G04 #@! TO.N,Net-(J3-Pad4)*
X156520000Y-77580909D02*
X156589091Y-77650000D01*
X156520000Y-76660000D02*
X156520000Y-77580909D01*
G04 #@! TO.N,/U1_A7*
X165750000Y-66250000D02*
X165750000Y-69850000D01*
X166100000Y-65900000D02*
X165750000Y-66250000D01*
G04 #@! TO.N,/U1_A6*
X165250000Y-69040000D02*
X165250000Y-69850000D01*
X165250000Y-68950000D02*
X165250000Y-69040000D01*
X165347508Y-68852492D02*
X165250000Y-68950000D01*
X165347508Y-65445013D02*
X165347508Y-68852492D01*
X165697507Y-65095014D02*
X165347508Y-65445013D01*
G04 #@! TO.N,/U1_A5*
X164750000Y-66832492D02*
X164717508Y-66800000D01*
X164750000Y-69850000D02*
X164750000Y-66832492D01*
G04 #@! TO.N,/U1_A4*
X164087507Y-65935027D02*
X164087507Y-67187507D01*
X164717508Y-65800000D02*
X164222534Y-65800000D01*
X164222534Y-65800000D02*
X164087507Y-65935027D01*
X164250000Y-67350000D02*
X164250000Y-69850000D01*
X164087507Y-67187507D02*
X164250000Y-67350000D01*
G04 #@! TO.N,/U1_A3*
X163200000Y-66300000D02*
X163700000Y-66800000D01*
X163700000Y-66800000D02*
X163700000Y-67400000D01*
X163750000Y-67450000D02*
X163750000Y-69850000D01*
X163700000Y-67400000D02*
X163750000Y-67450000D01*
G04 #@! TO.N,/U1_A2*
X162950000Y-65000000D02*
X162500000Y-65450000D01*
X162500000Y-66686764D02*
X162620020Y-66806784D01*
X162500000Y-65450000D02*
X162500000Y-66686764D01*
X162620020Y-66806784D02*
X162620020Y-68120020D01*
X163250000Y-68750000D02*
X163250000Y-69850000D01*
X162620020Y-68120020D02*
X163250000Y-68750000D01*
G04 #@! TO.N,/U1_A1*
X162750000Y-69040000D02*
X162750000Y-69850000D01*
X162750000Y-68940870D02*
X162750000Y-69040000D01*
X160580001Y-66770871D02*
X162750000Y-68940870D01*
X160580001Y-65980001D02*
X160580001Y-66770871D01*
X160050000Y-65450000D02*
X160580001Y-65980001D01*
G04 #@! TO.N,/U1_A0*
X162250000Y-68950000D02*
X162250000Y-69850000D01*
X159950000Y-66650000D02*
X162250000Y-68950000D01*
G04 #@! TO.N,/U2_A7*
X162390000Y-71300000D02*
X163000000Y-71300000D01*
X161750000Y-69850000D02*
X161750000Y-70660000D01*
X161750000Y-70660000D02*
X162390000Y-71300000D01*
G04 #@! TO.N,/U2_A6*
X161250000Y-69850000D02*
X161250000Y-70750000D01*
X161250000Y-70750000D02*
X163252797Y-72752797D01*
X164187734Y-72752797D02*
X163252797Y-72752797D01*
X164204937Y-72770000D02*
X164187734Y-72752797D01*
X164699911Y-72770000D02*
X164204937Y-72770000D01*
G04 #@! TO.N,/U2_A5*
X160750000Y-69850000D02*
X160750000Y-71140956D01*
X160750000Y-71140956D02*
X161254522Y-71645478D01*
G04 #@! TO.N,/U2_A4*
X162075479Y-72275479D02*
X160952121Y-72275479D01*
X163200000Y-73400000D02*
X162075479Y-72275479D01*
X160250000Y-71573358D02*
X160250000Y-70660000D01*
X160952121Y-72275479D02*
X160250000Y-71573358D01*
X160250000Y-70660000D02*
X160250000Y-69850000D01*
X165457298Y-72313196D02*
X165457298Y-72357298D01*
X165107299Y-71963197D02*
X165457298Y-72313196D01*
X165457298Y-72357298D02*
X166000000Y-72900000D01*
X166000000Y-72900000D02*
X166000000Y-73300000D01*
X165900000Y-73400000D02*
X163200000Y-73400000D01*
X166000000Y-73300000D02*
X165900000Y-73400000D01*
G04 #@! TO.N,/U2_A3*
X159750000Y-71582488D02*
X160967512Y-72800000D01*
X159750000Y-69850000D02*
X159750000Y-71582488D01*
X160967512Y-72800000D02*
X161709044Y-72800000D01*
X161709044Y-72800000D02*
X162490606Y-73581562D01*
G04 #@! TO.N,/U2_A2*
X159250000Y-69850000D02*
X159250000Y-71650000D01*
X160760010Y-73160010D02*
X161460010Y-73160010D01*
X159250000Y-71650000D02*
X160760010Y-73160010D01*
X161460010Y-73160010D02*
X161800000Y-73500000D01*
X161800000Y-73500000D02*
X161800000Y-74040226D01*
X161800000Y-74040226D02*
X162189460Y-74429686D01*
G04 #@! TO.N,/U2_A1*
X158750000Y-69850000D02*
X158750000Y-72150000D01*
X158750000Y-72150000D02*
X159200000Y-72600000D01*
G04 #@! TO.N,/U2_A0*
X158250000Y-69850000D02*
X158250000Y-73084986D01*
X158250000Y-73084986D02*
X158570000Y-73404986D01*
G04 #@! TO.N,/U1_Data*
X161090000Y-76000000D02*
X159290000Y-74200000D01*
X161090000Y-76660000D02*
X161090000Y-76000000D01*
X157750000Y-70660000D02*
X157750000Y-69850000D01*
X157750000Y-73517388D02*
X157750000Y-70660000D01*
X158432612Y-74200000D02*
X157750000Y-73517388D01*
X159290000Y-74200000D02*
X158432612Y-74200000D01*
X158150001Y-67349999D02*
X158150001Y-67599999D01*
X158500000Y-67000000D02*
X158150001Y-67349999D01*
X157750000Y-68000000D02*
X157750000Y-69850000D01*
X158150001Y-67599999D02*
X157750000Y-68000000D01*
G04 #@! TO.N,/U2_Data*
X157250000Y-70660000D02*
X157250000Y-69850000D01*
X157250000Y-73526519D02*
X157250000Y-70660000D01*
X158283491Y-74560010D02*
X157250000Y-73526519D01*
X158679012Y-74560010D02*
X158283491Y-74560010D01*
X160330000Y-76210998D02*
X158679012Y-74560010D01*
X160330000Y-76660000D02*
X160330000Y-76210998D01*
X157250000Y-69040000D02*
X157250000Y-69850000D01*
X157250000Y-68064691D02*
X157250000Y-69040000D01*
X157354640Y-67960051D02*
X157250000Y-68064691D01*
X157354640Y-67465077D02*
X157354640Y-67960051D01*
G04 #@! TO.N,/U3_Data*
X156750000Y-70660000D02*
X156750000Y-69850000D01*
X156750000Y-73535650D02*
X156750000Y-70660000D01*
X158134370Y-74920020D02*
X156750000Y-73535650D01*
X158490020Y-74920020D02*
X158134370Y-74920020D01*
X159570000Y-76000000D02*
X158490020Y-74920020D01*
X159570000Y-76660000D02*
X159570000Y-76000000D01*
X156750000Y-69040000D02*
X156750000Y-69850000D01*
X156750000Y-68494044D02*
X156750000Y-69040000D01*
X156500930Y-68244974D02*
X156750000Y-68494044D01*
X156500930Y-67750000D02*
X156500930Y-68244974D01*
G04 #@! TO.N,/U4_Data*
X156250000Y-70660000D02*
X156250000Y-69850000D01*
X156250000Y-74970000D02*
X156250000Y-70660000D01*
X157280000Y-76000000D02*
X156250000Y-74970000D01*
X157280000Y-76660000D02*
X157280000Y-76000000D01*
X156250000Y-69040000D02*
X156250000Y-69850000D01*
X156250000Y-68894047D02*
X156250000Y-69040000D01*
X155600927Y-68244974D02*
X156250000Y-68894047D01*
X155600927Y-67750000D02*
X155600927Y-68244974D01*
G04 #@! TO.N,/U3_A7*
X155750000Y-70660000D02*
X155750000Y-69850000D01*
X153682401Y-74950001D02*
X155750000Y-72882402D01*
X155750000Y-72882402D02*
X155750000Y-70660000D01*
X151649999Y-74950001D02*
X153682401Y-74950001D01*
X151300000Y-75300000D02*
X151649999Y-74950001D01*
G04 #@! TO.N,/U3_A6*
X155250000Y-69850000D02*
X155250000Y-72450000D01*
X155250000Y-72450000D02*
X154600000Y-73100000D01*
G04 #@! TO.N,/U3_A5*
X154750000Y-71782402D02*
X154750000Y-69850000D01*
X152832402Y-73700000D02*
X154750000Y-71782402D01*
X150500000Y-75656395D02*
X150500000Y-75167598D01*
X151017337Y-76173732D02*
X150500000Y-75656395D01*
X150500000Y-75167598D02*
X151250000Y-74417598D01*
X151250000Y-74417598D02*
X151250000Y-74000000D01*
X151250000Y-74000000D02*
X151550000Y-73700000D01*
X151550000Y-73700000D02*
X152832402Y-73700000D01*
G04 #@! TO.N,/U3_A4*
X154250000Y-69850000D02*
X154250000Y-71150000D01*
X154250000Y-71150000D02*
X152900000Y-72500000D01*
X152900000Y-72500000D02*
X152900000Y-72700000D01*
G04 #@! TO.N,/U3_A3*
X153750000Y-70660000D02*
X153750000Y-69850000D01*
X153750000Y-70859131D02*
X153750000Y-70660000D01*
X150979131Y-73630000D02*
X153750000Y-70859131D01*
X149620011Y-73630000D02*
X150979131Y-73630000D01*
G04 #@! TO.N,/U3_A2*
X148000000Y-73000000D02*
X151100000Y-73000000D01*
X153250000Y-70850000D02*
X153250000Y-69850000D01*
X151100000Y-73000000D02*
X153250000Y-70850000D01*
G04 #@! TO.N,/U3_A1*
X148218282Y-72126870D02*
X148731402Y-72639990D01*
X148731402Y-72639990D02*
X150860010Y-72639990D01*
X152750000Y-70750000D02*
X152750000Y-69850000D01*
X150860010Y-72639990D02*
X152750000Y-70750000D01*
G04 #@! TO.N,/U3_A0*
X152250000Y-70701446D02*
X152250000Y-69850000D01*
X151011923Y-71939523D02*
X152250000Y-70701446D01*
X148998077Y-71939523D02*
X151011923Y-71939523D01*
X147450000Y-70391446D02*
X148998077Y-71939523D01*
X147450000Y-69300000D02*
X147450000Y-70391446D01*
G04 #@! TO.N,/U4_A7*
X151750000Y-65906797D02*
X151761797Y-65895000D01*
X151761797Y-66389974D02*
X151900000Y-66528177D01*
X151761797Y-65895000D02*
X151761797Y-66389974D01*
X151900000Y-66528177D02*
X151900000Y-68800000D01*
X151750000Y-68950000D02*
X151750000Y-69850000D01*
X151900000Y-68800000D02*
X151750000Y-68950000D01*
G04 #@! TO.N,/U4_A6*
X151131797Y-65068203D02*
X151200000Y-65000000D01*
X151200000Y-65494974D02*
X151200000Y-65000000D01*
X151250000Y-68750000D02*
X151500000Y-68500000D01*
X151250000Y-69850000D02*
X151250000Y-68750000D01*
X151500000Y-68500000D02*
X151500000Y-66637308D01*
X151500000Y-66637308D02*
X151131797Y-66269105D01*
X151131797Y-66269105D02*
X151131797Y-65563177D01*
X151131797Y-65563177D02*
X151200000Y-65494974D01*
G04 #@! TO.N,/U4_A5*
X150750000Y-69040000D02*
X150750000Y-69850000D01*
X150750000Y-68114974D02*
X150750000Y-69040000D01*
X150870000Y-67994974D02*
X150750000Y-68114974D01*
X150870000Y-67500000D02*
X150870000Y-67994974D01*
G04 #@! TO.N,/U4_A4*
X150370011Y-68919989D02*
X150250000Y-69040000D01*
X150250000Y-69040000D02*
X150250000Y-69850000D01*
X150370011Y-68007744D02*
X150370011Y-68919989D01*
X150239999Y-67877732D02*
X150370011Y-68007744D01*
X150771787Y-66665811D02*
X150239999Y-67197599D01*
X150771787Y-66023619D02*
X150771787Y-66665811D01*
X150569999Y-65821831D02*
X150771787Y-66023619D01*
X150239999Y-67197599D02*
X150239999Y-67877732D01*
X150569999Y-65131169D02*
X150569999Y-65821831D01*
X150366902Y-64928072D02*
X150569999Y-65131169D01*
X150366902Y-64433098D02*
X150366902Y-64928072D01*
G04 #@! TO.N,/U4_A3*
X149740010Y-69840010D02*
X149750000Y-69850000D01*
X149740010Y-68310145D02*
X149740010Y-69840010D01*
G04 #@! TO.N,/U4_A2*
X149250000Y-68739990D02*
X149250000Y-69850000D01*
X149110010Y-68600000D02*
X149250000Y-68739990D01*
X149110010Y-66999120D02*
X149110010Y-68600000D01*
X150141786Y-66326020D02*
X149783111Y-66326020D01*
X149783111Y-66326020D02*
X149110010Y-66999120D01*
G04 #@! TO.N,/U4_A1*
X148750000Y-69040000D02*
X148750000Y-69850000D01*
X148750000Y-66850000D02*
X148750000Y-69040000D01*
X149606993Y-65993007D02*
X148750000Y-66850000D01*
X149606993Y-65496547D02*
X149606993Y-65993007D01*
G04 #@! TO.N,/U4_A0*
X148250000Y-66445000D02*
X148250000Y-69850000D01*
X148800000Y-65895000D02*
X148250000Y-66445000D01*
G04 #@! TO.N,Net-(L1-Pad2)*
X152160000Y-81710000D02*
X150810000Y-81710000D01*
X150810000Y-81710000D02*
X148700000Y-79600000D01*
G04 #@! TO.N,Net-(L2-Pad2)*
X157964532Y-75526696D02*
X157964532Y-75664532D01*
X158050000Y-75750000D02*
X158050000Y-76660000D01*
X157964532Y-75664532D02*
X158050000Y-75750000D01*
G04 #@! TO.N,Net-(L3-Pad1)*
X148790000Y-89550000D02*
X147900000Y-89550000D01*
X147900000Y-89550000D02*
X147850000Y-89600000D01*
G04 #@! TO.N,Net-(R1-Pad1)*
X145265000Y-75290000D02*
X144900000Y-75655000D01*
X145750000Y-75290000D02*
X145265000Y-75290000D01*
X144900000Y-78900000D02*
X145700000Y-79700000D01*
X144900000Y-75655000D02*
X144900000Y-78900000D01*
G04 #@! TO.N,Net-(R2-Pad2)*
X146500000Y-83525000D02*
X146925000Y-83100000D01*
X146500000Y-84150000D02*
X146500000Y-83525000D01*
X148800000Y-83487500D02*
X148800000Y-83700000D01*
X148412500Y-83100000D02*
X148800000Y-83487500D01*
X146925000Y-83100000D02*
X148412500Y-83100000D01*
X146200000Y-83225000D02*
X146500000Y-83525000D01*
X146200000Y-83200000D02*
X146200000Y-83225000D01*
X154240000Y-77590000D02*
X154160000Y-77670000D01*
X154240000Y-76660000D02*
X154240000Y-77590000D01*
G04 #@! TO.N,Net-(R3-Pad2)*
X147700000Y-81900000D02*
X149000000Y-81900000D01*
X149300000Y-82200000D02*
X149300000Y-83700000D01*
X149000000Y-81900000D02*
X149300000Y-82200000D01*
X155000000Y-76660000D02*
X155000000Y-77010002D01*
X155000000Y-77480000D02*
X155230000Y-77710000D01*
X155000000Y-76660000D02*
X155000000Y-77480000D01*
G04 #@! TO.N,Net-(R10-Pad2)*
X166100000Y-78725000D02*
X166100000Y-77150000D01*
X164084130Y-78725000D02*
X166100000Y-78725000D01*
X163029121Y-79780010D02*
X164084130Y-78725000D01*
X162498992Y-79780010D02*
X163029121Y-79780010D01*
X161650000Y-80180000D02*
X162099002Y-80180000D01*
X162099002Y-80180000D02*
X162498992Y-79780010D01*
G04 #@! TO.N,/S0*
X161945000Y-77900000D02*
X161650000Y-77900000D01*
X162700000Y-77145000D02*
X161945000Y-77900000D01*
X163545000Y-76300000D02*
X162700000Y-77145000D01*
X166900000Y-72945000D02*
X166900000Y-72100000D01*
X166045000Y-73800000D02*
X166900000Y-72945000D01*
X163400000Y-73800000D02*
X166045000Y-73800000D01*
X163195001Y-74004999D02*
X163400000Y-73800000D01*
X163545000Y-76300000D02*
X163195001Y-75950001D01*
X163195001Y-75950001D02*
X163195001Y-74004999D01*
X150118289Y-76559735D02*
X148375351Y-76559735D01*
X160990000Y-77900000D02*
X160600000Y-78290000D01*
X161650000Y-77900000D02*
X160990000Y-77900000D01*
X160600000Y-78290000D02*
X159200869Y-78290001D01*
X159200869Y-78290001D02*
X158790857Y-78700013D01*
X158790857Y-78700013D02*
X152258567Y-78700013D01*
X152258567Y-78700013D02*
X150118289Y-76559735D01*
G04 #@! TO.N,/S1*
X162310000Y-78660000D02*
X161650000Y-78660000D01*
X162900000Y-78070000D02*
X162310000Y-78660000D01*
X152054997Y-79060023D02*
X158939977Y-79060023D01*
X149900000Y-77400000D02*
X150394974Y-77400000D01*
X150394974Y-77400000D02*
X152054997Y-79060023D01*
X159340000Y-78660000D02*
X161650000Y-78660000D01*
X158939977Y-79060023D02*
X159340000Y-78660000D01*
X149260478Y-71269522D02*
X150669522Y-71269522D01*
X150669522Y-71269522D02*
X150709522Y-71309522D01*
X166525318Y-71469999D02*
X166006948Y-71988369D01*
X167202401Y-71469999D02*
X166525318Y-71469999D01*
X167530001Y-71797599D02*
X167202401Y-71469999D01*
X164550000Y-74200000D02*
X166300000Y-74200000D01*
X166300000Y-74200000D02*
X167530001Y-72969999D01*
X167530001Y-72969999D02*
X167530001Y-71797599D01*
X163770000Y-77200000D02*
X162900000Y-78070000D01*
X164175001Y-75984131D02*
X163900000Y-75709130D01*
X163770000Y-77200000D02*
X164175001Y-76794999D01*
X164175001Y-76794999D02*
X164175001Y-75984131D01*
X163900000Y-74850000D02*
X164550000Y-74200000D01*
X163900000Y-75709130D02*
X163900000Y-74850000D01*
G04 #@! TO.N,/S2*
X160990000Y-79420000D02*
X161650000Y-79420000D01*
X160989967Y-79420033D02*
X160990000Y-79420000D01*
X150620033Y-79420033D02*
X160989967Y-79420033D01*
X149500000Y-78300000D02*
X150620033Y-79420033D01*
X161650000Y-79420000D02*
X162880000Y-79420000D01*
X162880000Y-79420000D02*
X164500000Y-77800000D01*
X144839990Y-73230946D02*
X144929522Y-73320478D01*
X165394974Y-71000000D02*
X165266996Y-71127978D01*
X167500000Y-71000000D02*
X165394974Y-71000000D01*
X167890011Y-71390011D02*
X167500000Y-71000000D01*
X165266996Y-71127978D02*
X164772022Y-71127978D01*
X167890011Y-73589119D02*
X167890011Y-71390011D01*
X164500000Y-77800000D02*
X164849999Y-77450001D01*
X164849999Y-77450001D02*
X164849999Y-76149999D01*
X166919120Y-74560010D02*
X167890011Y-73589119D01*
X164849999Y-76149999D02*
X164300000Y-75600000D01*
X164300000Y-75600000D02*
X164300000Y-75000000D01*
X164300000Y-75000000D02*
X164739990Y-74560010D01*
X164739990Y-74560010D02*
X166919120Y-74560010D01*
X144579523Y-72970479D02*
X144929522Y-73320478D01*
X144569990Y-72960946D02*
X144579523Y-72970479D01*
X144569990Y-71280010D02*
X144569990Y-72960946D01*
X145400001Y-70449999D02*
X144569990Y-71280010D01*
X145400001Y-69499999D02*
X145400001Y-70449999D01*
X145750000Y-69150000D02*
X145400001Y-69499999D01*
G04 #@! TO.N,/MUX_E*
X166900000Y-82100000D02*
X166900000Y-77600000D01*
X166900000Y-77600000D02*
X167488910Y-77011090D01*
X154600000Y-66900000D02*
X157830000Y-63670000D01*
X157830000Y-63670000D02*
X163850000Y-63670000D01*
G04 #@! TD*
M02*
