M48
;DRILL file {KiCad (5.0.0)} date 11/26/18 10:25:25
;FORMAT={-:-/ absolute / inch / decimal}
FMAT,2
INCH,TZ
T1C0.0118
T2C0.0197
%
G90
G05
M72
T1
X5.7059Y-2.8866
X5.7126Y-3.2559
X5.7283Y-2.5453
X5.7283Y-3.3701
X5.7382Y-2.7224
X5.7382Y-2.9035
X5.7559Y-3.2756
X5.7795Y-3.1142
X5.8051Y-2.7283
X5.8209Y-3.5276
X5.8228Y-3.4488
X5.8268Y-2.874
X5.8354Y-2.8396
X5.8415Y-3.0142
X5.8543Y-3.1339
X5.8583Y-2.5943
X5.8656Y-3.3346
X5.8701Y-2.5157
X5.8764Y-2.8059
X5.878Y-3.2362
X5.8858Y-3.0827
X5.89Y-2.5786
X5.8906Y-2.8988
X5.8953Y-2.6894
X5.9016Y-3.0472
X5.9111Y-2.6113
X5.9162Y-3.1606
X5.92Y-2.5367
X5.9334Y-2.8075
X5.9398Y-2.6575
X5.9456Y-2.999
X5.9528Y-2.5591
X5.9567Y-2.9646
X5.9629Y-3.0302
X5.9685Y-3.3701
X5.9749Y-2.5943
X6.0197Y-2.8622
X6.0693Y-3.0579
X6.0827Y-2.5394
X6.0866Y-2.6339
X6.0866Y-2.878
X6.1114Y-3.0594
X6.126Y-2.6673
X6.1398Y-3.1516
X6.1615Y-2.6673
X6.1649Y-3.0571
X6.1951Y-2.6561
X6.2165Y-3.0709
X6.2191Y-2.9735
X6.2402Y-2.6378
X6.2427Y-2.6801
X6.2429Y-2.89
X6.252Y-3.0571
X6.2677Y-2.8583
X6.2913Y-2.5394
X6.2972Y-2.624
X6.2992Y-2.6772
X6.3012Y-2.5768
X6.3486Y-2.8207
X6.3854Y-2.9303
X6.3973Y-2.8969
X6.4154Y-2.5591
X6.4173Y-2.8071
X6.4252Y-2.6102
X6.4388Y-3.0039
X6.4476Y-3.0394
X6.4508Y-2.5067
X6.4764Y-3.063
X6.4842Y-2.865
X6.4849Y-2.5906
X6.4849Y-2.6299
X6.4871Y-2.8003
X6.4961Y-2.9606
X6.5003Y-2.8332
X6.5235Y-2.5628
X6.5357Y-2.8342
X6.5394Y-2.5945
X6.5461Y-3.2019
X6.5709Y-2.8386
X6.5709Y-3.2323
X6.5941Y-3.0319
X6.5984Y-2.9528
X6.6417Y-2.5315
T2
X5.748Y-2.8386
X5.7874Y-2.8386
X5.7303Y-3.5197
X5.7697Y-3.5197
X6.6181Y-3.0787
X6.6181Y-3.1181
X6.6181Y-3.1575
X6.6181Y-3.1969
T0
M30
