G04 #@! TF.FileFunction,Profile,NP*
%FSLAX46Y46*%
G04 Gerber Fmt 4.6, Leading zero omitted, Abs format (unit mm)*
G04 Created by KiCad (PCBNEW 4.0.6) date 04/30/18 13:43:07*
%MOMM*%
%LPD*%
G01*
G04 APERTURE LIST*
%ADD10C,0.100000*%
%ADD11C,0.150000*%
%ADD12C,0.010000*%
G04 APERTURE END LIST*
D10*
D11*
X61500000Y-295000000D02*
G75*
G03X61500000Y-295000000I-3000000J0D01*
G01*
X37400000Y-287800000D02*
X37400000Y-287900000D01*
D12*
G36*
X74974718Y-21967256D02*
X79945968Y-22939642D01*
X84710778Y-24737000D01*
X89155429Y-27347488D01*
X93166199Y-30759267D01*
X96392661Y-34620413D01*
X98264295Y-37537468D01*
X100293177Y-41151127D01*
X102344685Y-45184818D01*
X104284195Y-49361970D01*
X105977087Y-53406012D01*
X107255079Y-56936432D01*
X108619868Y-61375718D01*
X109658548Y-65393544D01*
X110409943Y-69254739D01*
X110912873Y-73224132D01*
X111206161Y-77566555D01*
X111328630Y-82546835D01*
X111338484Y-84792000D01*
X111324072Y-88688553D01*
X111270709Y-91786261D01*
X111163208Y-94301998D01*
X110986378Y-96452642D01*
X110725031Y-98455068D01*
X110363978Y-100526152D01*
X110166034Y-101532837D01*
X109137639Y-106127519D01*
X107912823Y-110568194D01*
X106404388Y-115121978D01*
X104525138Y-120055989D01*
X102640608Y-124586232D01*
X98760350Y-134313822D01*
X95179661Y-144615146D01*
X92002069Y-155150522D01*
X89331102Y-165580268D01*
X87519394Y-174200000D01*
X86096230Y-182486181D01*
X85021259Y-190339124D01*
X84265432Y-198082854D01*
X83799696Y-206041396D01*
X83595001Y-214538775D01*
X83579694Y-218142000D01*
X83777294Y-228761506D01*
X84375666Y-238762100D01*
X85405222Y-248470960D01*
X86896370Y-258215264D01*
X87716678Y-262650515D01*
X88517902Y-267899866D01*
X88719645Y-272543451D01*
X88297907Y-276812809D01*
X87228684Y-280939478D01*
X85487976Y-285154997D01*
X85355477Y-285428466D01*
X82807886Y-289545469D01*
X79444793Y-293274463D01*
X75433922Y-296483402D01*
X70942999Y-299040244D01*
X66139748Y-300812945D01*
X65650269Y-300941608D01*
X62746843Y-301431638D01*
X59313951Y-301638640D01*
X55778683Y-301563622D01*
X52568130Y-301207593D01*
X51152000Y-300907351D01*
X46091377Y-299077581D01*
X41447342Y-296409122D01*
X37329535Y-293010740D01*
X33847596Y-288991201D01*
X31111167Y-284459271D01*
X29229889Y-279523715D01*
X29097273Y-279028672D01*
X28920028Y-278221762D01*
X28770031Y-277229661D01*
X28645086Y-275967309D01*
X28542998Y-274349643D01*
X28461570Y-272291604D01*
X28398607Y-269708131D01*
X28351913Y-266514163D01*
X28319292Y-262624638D01*
X28298549Y-257954497D01*
X28287486Y-252418678D01*
X28284189Y-247532672D01*
X28245171Y-234328264D01*
X28130643Y-221940384D01*
X27933096Y-210171841D01*
X27645023Y-198825441D01*
X27258917Y-187703991D01*
X26767269Y-176610300D01*
X26162572Y-165347174D01*
X25437318Y-153717421D01*
X24583999Y-141523848D01*
X23906203Y-132544000D01*
X23322009Y-124042503D01*
X22960867Y-116428647D01*
X22824372Y-109673407D01*
X23301710Y-109673407D01*
X23421196Y-115785763D01*
X23735314Y-122562221D01*
X24236817Y-130149418D01*
X24417950Y-132544000D01*
X25368273Y-145294816D01*
X26184498Y-157350134D01*
X26874144Y-168907659D01*
X27444733Y-180165099D01*
X27903786Y-191320160D01*
X28258823Y-202570548D01*
X28517365Y-214113971D01*
X28686933Y-226148136D01*
X28775049Y-238870748D01*
X28792189Y-247532672D01*
X28795717Y-253962244D01*
X28807342Y-259465058D01*
X28834341Y-264130354D01*
X28883990Y-268047373D01*
X28963566Y-271305358D01*
X29080346Y-273993548D01*
X29241606Y-276201186D01*
X29454624Y-278017512D01*
X29726675Y-279531767D01*
X30065038Y-280833193D01*
X30476988Y-282011030D01*
X30969802Y-283154520D01*
X31550758Y-284352904D01*
X31841708Y-284931536D01*
X34690087Y-289469662D01*
X38318124Y-293381097D01*
X42679544Y-296630835D01*
X47728071Y-299183868D01*
X52930000Y-300884755D01*
X53838532Y-300975287D01*
X55504696Y-301019654D01*
X57671021Y-301014384D01*
X59534000Y-300973832D01*
X62840358Y-300793707D01*
X65449441Y-300449294D01*
X67673031Y-299894874D01*
X68283172Y-299690790D01*
X73015083Y-297503717D01*
X77382467Y-294462147D01*
X81203457Y-290711029D01*
X83650774Y-287442844D01*
X85795519Y-283527588D01*
X87240386Y-279428039D01*
X88003409Y-275006344D01*
X88102621Y-270124648D01*
X87556054Y-264645098D01*
X87034474Y-261576000D01*
X85596899Y-253319594D01*
X84511084Y-245426422D01*
X83748948Y-237585090D01*
X83282409Y-229484211D01*
X83083385Y-220812392D01*
X83071694Y-217634000D01*
X83360660Y-205112820D01*
X84231934Y-193031369D01*
X85717633Y-181235663D01*
X87849878Y-169571721D01*
X90660788Y-157885558D01*
X94182481Y-146023190D01*
X98447076Y-133830636D01*
X102905775Y-122546980D01*
X105174820Y-116887676D01*
X106984505Y-111885732D01*
X108381726Y-107317620D01*
X109413379Y-102959814D01*
X110126359Y-98588785D01*
X110567563Y-93981007D01*
X110783886Y-88912953D01*
X110826749Y-84792000D01*
X110813554Y-80891539D01*
X110760992Y-77790818D01*
X110654082Y-75273867D01*
X110477842Y-73124718D01*
X110217293Y-71127402D01*
X109857453Y-69065952D01*
X109669756Y-68112432D01*
X108134641Y-61690204D01*
X106168408Y-55383580D01*
X103840258Y-49339690D01*
X101219393Y-43705667D01*
X98375012Y-38628643D01*
X95376317Y-34255748D01*
X92292509Y-30734116D01*
X91921667Y-30377265D01*
X87666787Y-27045980D01*
X82928529Y-24558257D01*
X77842785Y-22952363D01*
X72545443Y-22266565D01*
X67172395Y-22539129D01*
X65274004Y-22873278D01*
X62122797Y-23807993D01*
X58682765Y-25274699D01*
X55370243Y-27073945D01*
X52790713Y-28853508D01*
X49973687Y-31509716D01*
X47034427Y-35040366D01*
X44037023Y-39321132D01*
X41045562Y-44227686D01*
X38124134Y-49635701D01*
X35336828Y-55420851D01*
X32747734Y-61458809D01*
X30420940Y-67625249D01*
X28420535Y-73795842D01*
X27078042Y-78733720D01*
X25877499Y-83940849D01*
X24915083Y-88932255D01*
X24183545Y-93854577D01*
X23675636Y-98854451D01*
X23384108Y-104078515D01*
X23301710Y-109673407D01*
X22824372Y-109673407D01*
X22822865Y-109598839D01*
X22908092Y-103449485D01*
X23216635Y-97876993D01*
X23748583Y-92777771D01*
X23941212Y-91396000D01*
X24717256Y-86960191D01*
X25795542Y-81953577D01*
X27084262Y-76739759D01*
X28491605Y-71682339D01*
X29925761Y-67144920D01*
X30418862Y-65742000D01*
X32325537Y-60892670D01*
X34561222Y-55880796D01*
X37039010Y-50857731D01*
X39671994Y-45974831D01*
X42373270Y-41383451D01*
X45055931Y-37234947D01*
X47633071Y-33680673D01*
X50017784Y-30871985D01*
X51002086Y-29894319D01*
X55299729Y-26564239D01*
X59959534Y-24118333D01*
X64867780Y-22544761D01*
X69910748Y-21831682D01*
X74974718Y-21967256D01*
X74974718Y-21967256D01*
G37*
X74974718Y-21967256D02*
X79945968Y-22939642D01*
X84710778Y-24737000D01*
X89155429Y-27347488D01*
X93166199Y-30759267D01*
X96392661Y-34620413D01*
X98264295Y-37537468D01*
X100293177Y-41151127D01*
X102344685Y-45184818D01*
X104284195Y-49361970D01*
X105977087Y-53406012D01*
X107255079Y-56936432D01*
X108619868Y-61375718D01*
X109658548Y-65393544D01*
X110409943Y-69254739D01*
X110912873Y-73224132D01*
X111206161Y-77566555D01*
X111328630Y-82546835D01*
X111338484Y-84792000D01*
X111324072Y-88688553D01*
X111270709Y-91786261D01*
X111163208Y-94301998D01*
X110986378Y-96452642D01*
X110725031Y-98455068D01*
X110363978Y-100526152D01*
X110166034Y-101532837D01*
X109137639Y-106127519D01*
X107912823Y-110568194D01*
X106404388Y-115121978D01*
X104525138Y-120055989D01*
X102640608Y-124586232D01*
X98760350Y-134313822D01*
X95179661Y-144615146D01*
X92002069Y-155150522D01*
X89331102Y-165580268D01*
X87519394Y-174200000D01*
X86096230Y-182486181D01*
X85021259Y-190339124D01*
X84265432Y-198082854D01*
X83799696Y-206041396D01*
X83595001Y-214538775D01*
X83579694Y-218142000D01*
X83777294Y-228761506D01*
X84375666Y-238762100D01*
X85405222Y-248470960D01*
X86896370Y-258215264D01*
X87716678Y-262650515D01*
X88517902Y-267899866D01*
X88719645Y-272543451D01*
X88297907Y-276812809D01*
X87228684Y-280939478D01*
X85487976Y-285154997D01*
X85355477Y-285428466D01*
X82807886Y-289545469D01*
X79444793Y-293274463D01*
X75433922Y-296483402D01*
X70942999Y-299040244D01*
X66139748Y-300812945D01*
X65650269Y-300941608D01*
X62746843Y-301431638D01*
X59313951Y-301638640D01*
X55778683Y-301563622D01*
X52568130Y-301207593D01*
X51152000Y-300907351D01*
X46091377Y-299077581D01*
X41447342Y-296409122D01*
X37329535Y-293010740D01*
X33847596Y-288991201D01*
X31111167Y-284459271D01*
X29229889Y-279523715D01*
X29097273Y-279028672D01*
X28920028Y-278221762D01*
X28770031Y-277229661D01*
X28645086Y-275967309D01*
X28542998Y-274349643D01*
X28461570Y-272291604D01*
X28398607Y-269708131D01*
X28351913Y-266514163D01*
X28319292Y-262624638D01*
X28298549Y-257954497D01*
X28287486Y-252418678D01*
X28284189Y-247532672D01*
X28245171Y-234328264D01*
X28130643Y-221940384D01*
X27933096Y-210171841D01*
X27645023Y-198825441D01*
X27258917Y-187703991D01*
X26767269Y-176610300D01*
X26162572Y-165347174D01*
X25437318Y-153717421D01*
X24583999Y-141523848D01*
X23906203Y-132544000D01*
X23322009Y-124042503D01*
X22960867Y-116428647D01*
X22824372Y-109673407D01*
X23301710Y-109673407D01*
X23421196Y-115785763D01*
X23735314Y-122562221D01*
X24236817Y-130149418D01*
X24417950Y-132544000D01*
X25368273Y-145294816D01*
X26184498Y-157350134D01*
X26874144Y-168907659D01*
X27444733Y-180165099D01*
X27903786Y-191320160D01*
X28258823Y-202570548D01*
X28517365Y-214113971D01*
X28686933Y-226148136D01*
X28775049Y-238870748D01*
X28792189Y-247532672D01*
X28795717Y-253962244D01*
X28807342Y-259465058D01*
X28834341Y-264130354D01*
X28883990Y-268047373D01*
X28963566Y-271305358D01*
X29080346Y-273993548D01*
X29241606Y-276201186D01*
X29454624Y-278017512D01*
X29726675Y-279531767D01*
X30065038Y-280833193D01*
X30476988Y-282011030D01*
X30969802Y-283154520D01*
X31550758Y-284352904D01*
X31841708Y-284931536D01*
X34690087Y-289469662D01*
X38318124Y-293381097D01*
X42679544Y-296630835D01*
X47728071Y-299183868D01*
X52930000Y-300884755D01*
X53838532Y-300975287D01*
X55504696Y-301019654D01*
X57671021Y-301014384D01*
X59534000Y-300973832D01*
X62840358Y-300793707D01*
X65449441Y-300449294D01*
X67673031Y-299894874D01*
X68283172Y-299690790D01*
X73015083Y-297503717D01*
X77382467Y-294462147D01*
X81203457Y-290711029D01*
X83650774Y-287442844D01*
X85795519Y-283527588D01*
X87240386Y-279428039D01*
X88003409Y-275006344D01*
X88102621Y-270124648D01*
X87556054Y-264645098D01*
X87034474Y-261576000D01*
X85596899Y-253319594D01*
X84511084Y-245426422D01*
X83748948Y-237585090D01*
X83282409Y-229484211D01*
X83083385Y-220812392D01*
X83071694Y-217634000D01*
X83360660Y-205112820D01*
X84231934Y-193031369D01*
X85717633Y-181235663D01*
X87849878Y-169571721D01*
X90660788Y-157885558D01*
X94182481Y-146023190D01*
X98447076Y-133830636D01*
X102905775Y-122546980D01*
X105174820Y-116887676D01*
X106984505Y-111885732D01*
X108381726Y-107317620D01*
X109413379Y-102959814D01*
X110126359Y-98588785D01*
X110567563Y-93981007D01*
X110783886Y-88912953D01*
X110826749Y-84792000D01*
X110813554Y-80891539D01*
X110760992Y-77790818D01*
X110654082Y-75273867D01*
X110477842Y-73124718D01*
X110217293Y-71127402D01*
X109857453Y-69065952D01*
X109669756Y-68112432D01*
X108134641Y-61690204D01*
X106168408Y-55383580D01*
X103840258Y-49339690D01*
X101219393Y-43705667D01*
X98375012Y-38628643D01*
X95376317Y-34255748D01*
X92292509Y-30734116D01*
X91921667Y-30377265D01*
X87666787Y-27045980D01*
X82928529Y-24558257D01*
X77842785Y-22952363D01*
X72545443Y-22266565D01*
X67172395Y-22539129D01*
X65274004Y-22873278D01*
X62122797Y-23807993D01*
X58682765Y-25274699D01*
X55370243Y-27073945D01*
X52790713Y-28853508D01*
X49973687Y-31509716D01*
X47034427Y-35040366D01*
X44037023Y-39321132D01*
X41045562Y-44227686D01*
X38124134Y-49635701D01*
X35336828Y-55420851D01*
X32747734Y-61458809D01*
X30420940Y-67625249D01*
X28420535Y-73795842D01*
X27078042Y-78733720D01*
X25877499Y-83940849D01*
X24915083Y-88932255D01*
X24183545Y-93854577D01*
X23675636Y-98854451D01*
X23384108Y-104078515D01*
X23301710Y-109673407D01*
X22824372Y-109673407D01*
X22822865Y-109598839D01*
X22908092Y-103449485D01*
X23216635Y-97876993D01*
X23748583Y-92777771D01*
X23941212Y-91396000D01*
X24717256Y-86960191D01*
X25795542Y-81953577D01*
X27084262Y-76739759D01*
X28491605Y-71682339D01*
X29925761Y-67144920D01*
X30418862Y-65742000D01*
X32325537Y-60892670D01*
X34561222Y-55880796D01*
X37039010Y-50857731D01*
X39671994Y-45974831D01*
X42373270Y-41383451D01*
X45055931Y-37234947D01*
X47633071Y-33680673D01*
X50017784Y-30871985D01*
X51002086Y-29894319D01*
X55299729Y-26564239D01*
X59959534Y-24118333D01*
X64867780Y-22544761D01*
X69910748Y-21831682D01*
X74974718Y-21967256D01*
M02*
