M48
;DRILL file {KiCad (5.0.0)} date 01/29/20 13:42:03
;FORMAT={-:-/ absolute / metric / decimal}
FMAT,2
METRIC,TZ
T1C0.370
T2C0.400
T3C0.500
%
G90
G05
M71
T1
X138.959Y-95.121
X149.449Y-95.101
X151.999Y-169.461
X154.179Y-252.901
X157.339Y-94.131
X157.779Y-134.701
X162.229Y-95.601
X166.204Y-134.701
X166.254Y-161.476
X166.449Y-180.091
X166.549Y-182.691
X166.699Y-163.241
X167.099Y-172.941
X167.649Y-166.541
X167.929Y-162.026
X168.329Y-171.826
X168.449Y-177.691
X168.979Y-172.301
X169.004Y-161.251
X169.449Y-175.791
X169.454Y-153.351
X169.549Y-181.491
X169.554Y-172.826
X169.599Y-168.091
X169.649Y-166.116
X170.254Y-172.276
X170.704Y-161.751
X170.749Y-190.441
X171.069Y-139.851
X171.974Y-157.016
X172.789Y-126.671
X173.024Y-154.616
X173.249Y-172.128
X173.919Y-180.661
X174.049Y-169.621
X174.649Y-165.091
X174.699Y-160.941
X174.804Y-149.801
X175.099Y-166.141
X175.654Y-150.551
X175.699Y-146.101
X176.004Y-155.676
X176.169Y-175.721
X176.229Y-152.976
X176.299Y-184.491
X176.499Y-183.541
X177.274Y-162.816
X177.489Y-148.361
X177.629Y-154.051
X177.749Y-178.491
X177.824Y-159.616
X177.899Y-141.041
X178.054Y-144.476
X178.154Y-153.201
X178.419Y-181.981
X178.454Y-145.001
X178.599Y-148.941
X178.839Y-141.032
X178.849Y-167.541
X178.874Y-141.816
X179.149Y-162.541
X179.254Y-145.001
X179.404Y-145.951
X179.549Y-167.241
X179.919Y-157.671
X180.049Y-168.041
X180.304Y-149.851
X180.459Y-173.601
X180.669Y-152.847
X180.699Y-156.831
X180.849Y-167.441
X180.899Y-191.741
X181.149Y-135.941
X181.219Y-161.321
X181.324Y-154.316
X181.509Y-141.261
X182.004Y-146.301
X182.049Y-171.671
X182.179Y-144.526
X182.249Y-152.741
X182.449Y-191.541
X182.849Y-153.441
X183.149Y-157.141
X183.149Y-189.441
X183.349Y-203.191
X183.44Y-140.927
X183.904Y-145.201
X184.049Y-204.391
X184.149Y-153.041
X184.249Y-163.871
X184.279Y-128.226
X184.291Y-150.559
X184.339Y-151.408
X184.549Y-169.441
X184.849Y-152.841
X185.579Y-159.861
X185.587Y-143.338
X185.609Y-163.071
X185.949Y-152.641
X186.069Y-179.331
X186.404Y-130.851
X186.479Y-183.451
X186.593Y-176.429
X186.909Y-154.481
X187.149Y-146.141
X187.279Y-138.151
X187.529Y-145.531
X187.669Y-155.516
X187.804Y-132.676
X187.804Y-136.276
X187.899Y-186.241
X188.122Y-159.419
X188.229Y-145.041
X188.349Y-160.841
X188.779Y-154.311
X189.245Y-185.791
X189.683Y-168.857
X190.139Y-189.661
X190.749Y-141.016
X190.974Y-144.091
X191.307Y-143.455
X191.504Y-141.186
X191.955Y-141.722
X192.199Y-155.961
X192.229Y-177.011
X192.299Y-162.001
X192.389Y-171.531
X193.499Y-157.693
X193.689Y-161.991
X193.779Y-140.411
X194.009Y-167.381
X194.069Y-166.481
X198.429Y-106.611
X202.219Y-88.981
T2
X131.729Y-109.351
X134.759Y-133.361
X138.389Y-152.661
X141.629Y-117.841
X144.229Y-133.051
X144.299Y-131.011
X144.529Y-111.251
X144.989Y-80.271
X147.679Y-149.801
X149.399Y-155.751
X149.779Y-213.826
X150.189Y-78.361
X150.839Y-233.761
X151.569Y-132.261
X152.829Y-192.876
X155.079Y-175.226
X156.579Y-190.261
X156.729Y-167.121
X156.804Y-194.276
X157.199Y-152.511
X157.939Y-136.391
X157.939Y-230.491
X157.954Y-156.701
X158.509Y-69.991
X158.529Y-248.351
X158.829Y-74.526
X159.379Y-174.076
X159.579Y-65.091
X161.804Y-133.076
X161.869Y-136.371
X163.354Y-233.001
X163.479Y-205.176
X163.889Y-136.661
X164.529Y-114.851
X164.629Y-95.701
X164.754Y-203.776
X164.879Y-202.526
X164.979Y-201.101
X165.089Y-250.911
X165.649Y-105.021
X167.929Y-45.461
X168.239Y-62.941
X168.379Y-202.501
X168.604Y-205.176
X169.029Y-201.076
X170.089Y-84.491
X170.119Y-261.341
X170.904Y-205.201
X170.929Y-258.801
X171.054Y-203.751
X171.139Y-58.271
X172.979Y-65.501
X173.579Y-107.211
X174.499Y-187.541
X175.054Y-153.726
X175.209Y-80.081
X176.304Y-247.401
X177.139Y-54.201
X177.354Y-222.426
X177.754Y-210.476
X178.849Y-202.241
X179.149Y-193.541
X179.329Y-110.401
X179.679Y-63.476
X180.379Y-87.576
X180.554Y-242.826
X181.549Y-199.891
X182.239Y-174.881
X182.259Y-121.631
X183.027Y-181.911
X183.449Y-194.041
X183.649Y-200.541
X184.081Y-183.233
X184.516Y-180.709
X184.949Y-205.841
X185.13Y-187.721
X186.499Y-191.391
X186.993Y-195.971
X187.171Y-201.068
X187.279Y-94.751
X187.599Y-180.491
X187.699Y-190.391
X188.659Y-49.761
X189.404Y-257.601
X189.449Y-135.541
X191.079Y-180.681
X192.069Y-170.211
X192.479Y-206.051
X192.629Y-215.376
X192.899Y-56.501
X193.499Y-160.768
X193.529Y-228.576
X193.949Y-135.541
X194.259Y-86.841
X196.054Y-250.401
X196.104Y-235.251
X196.739Y-62.251
X200.769Y-124.831
X204.089Y-46.121
X204.529Y-117.026
X209.759Y-54.901
X211.229Y-103.211
X211.329Y-66.926
X211.339Y-86.171
X211.529Y-95.076
X211.679Y-75.051
T3
X192.47Y-186.293
X192.539Y-187.291
T0
M30
