G04 #@! TF.GenerationSoftware,KiCad,Pcbnew,(5.0.0)*
G04 #@! TF.CreationDate,2020-01-29T13:42:07+01:00*
G04 #@! TF.ProjectId,Insole_PCB,496E736F6C655F5043422E6B69636164,rev?*
G04 #@! TF.SameCoordinates,Original*
G04 #@! TF.FileFunction,Soldermask,Bot*
G04 #@! TF.FilePolarity,Negative*
%FSLAX46Y46*%
G04 Gerber Fmt 4.6, Leading zero omitted, Abs format (unit mm)*
G04 Created by KiCad (PCBNEW (5.0.0)) date 01/29/20 13:42:07*
%MOMM*%
%LPD*%
G01*
G04 APERTURE LIST*
%ADD10C,1.250000*%
%ADD11C,1.250000*%
%ADD12C,0.100000*%
%ADD13R,1.075000X0.650000*%
%ADD14R,0.650000X1.075000*%
%ADD15C,1.275000*%
%ADD16C,1.550000*%
%ADD17C,0.850000*%
%ADD18R,1.900000X0.850000*%
%ADD19R,0.850000X1.900000*%
%ADD20R,1.200000X1.300000*%
%ADD21C,1.050000*%
%ADD22C,0.810000*%
%ADD23C,2.200000*%
%ADD24C,0.900000*%
%ADD25C,0.800000*%
%ADD26C,1.200000*%
%ADD27C,1.725000*%
%ADD28C,1.650000*%
%ADD29R,1.300000X1.200000*%
%ADD30C,1.375000*%
%ADD31R,1.200000X0.900000*%
G04 APERTURE END LIST*
D10*
G04 #@! TO.C,J2*
X192469697Y-186293143D03*
D11*
X192469697Y-186293143D02*
X192469697Y-186293143D01*
D10*
X192539453Y-187290707D03*
D12*
G36*
X191959573Y-187957782D02*
X191872378Y-186710827D01*
X193119333Y-186623632D01*
X193206528Y-187870587D01*
X191959573Y-187957782D01*
X191959573Y-187957782D01*
G37*
G04 #@! TD*
D13*
G04 #@! TO.C,U2*
X184911953Y-160890707D03*
X184911953Y-161390707D03*
X184911953Y-161890707D03*
X184911953Y-162390707D03*
X182386953Y-162390707D03*
X182386953Y-161890707D03*
X182386953Y-161390707D03*
X182386953Y-160890707D03*
D14*
X184149453Y-162653207D03*
X183649453Y-162653207D03*
X183149453Y-162653207D03*
X184149453Y-160628207D03*
X183149453Y-160628207D03*
X183649453Y-160628207D03*
G04 #@! TD*
D12*
G04 #@! TO.C,C1*
G36*
X187377759Y-187467263D02*
X187408559Y-187472729D01*
X187438674Y-187481187D01*
X187467815Y-187492556D01*
X187495702Y-187506727D01*
X187522066Y-187523563D01*
X187546652Y-187542901D01*
X187569224Y-187564557D01*
X187589565Y-187588321D01*
X187607479Y-187613964D01*
X187622793Y-187641240D01*
X187635360Y-187669885D01*
X187645059Y-187699624D01*
X187651796Y-187730171D01*
X187655507Y-187761230D01*
X187699977Y-188397177D01*
X187700625Y-188428451D01*
X187698205Y-188459638D01*
X187692739Y-188490437D01*
X187684281Y-188520553D01*
X187672912Y-188549694D01*
X187658741Y-188577581D01*
X187641906Y-188603944D01*
X187622567Y-188628531D01*
X187600911Y-188651103D01*
X187577147Y-188671444D01*
X187551504Y-188689358D01*
X187524229Y-188704672D01*
X187495583Y-188717239D01*
X187465844Y-188726938D01*
X187435298Y-188733675D01*
X187404238Y-188737386D01*
X186693474Y-188787087D01*
X186662200Y-188787735D01*
X186631013Y-188785315D01*
X186600213Y-188779849D01*
X186570098Y-188771391D01*
X186540957Y-188760022D01*
X186513070Y-188745851D01*
X186486706Y-188729015D01*
X186462120Y-188709677D01*
X186439548Y-188688021D01*
X186419207Y-188664257D01*
X186401293Y-188638614D01*
X186385979Y-188611338D01*
X186373412Y-188582693D01*
X186363713Y-188552954D01*
X186356976Y-188522407D01*
X186353265Y-188491348D01*
X186308795Y-187855401D01*
X186308147Y-187824127D01*
X186310567Y-187792940D01*
X186316033Y-187762141D01*
X186324491Y-187732025D01*
X186335860Y-187702884D01*
X186350031Y-187674997D01*
X186366866Y-187648634D01*
X186386205Y-187624047D01*
X186407861Y-187601475D01*
X186431625Y-187581134D01*
X186457268Y-187563220D01*
X186484543Y-187547906D01*
X186513189Y-187535339D01*
X186542928Y-187525640D01*
X186573474Y-187518903D01*
X186604534Y-187515192D01*
X187315298Y-187465491D01*
X187346572Y-187464843D01*
X187377759Y-187467263D01*
X187377759Y-187467263D01*
G37*
D15*
X187004386Y-188126289D03*
D12*
G36*
X187267893Y-185896099D02*
X187298693Y-185901565D01*
X187328808Y-185910023D01*
X187357949Y-185921392D01*
X187385836Y-185935563D01*
X187412200Y-185952399D01*
X187436786Y-185971737D01*
X187459358Y-185993393D01*
X187479699Y-186017157D01*
X187497613Y-186042800D01*
X187512927Y-186070076D01*
X187525494Y-186098721D01*
X187535193Y-186128460D01*
X187541930Y-186159007D01*
X187545641Y-186190066D01*
X187590111Y-186826013D01*
X187590759Y-186857287D01*
X187588339Y-186888474D01*
X187582873Y-186919273D01*
X187574415Y-186949389D01*
X187563046Y-186978530D01*
X187548875Y-187006417D01*
X187532040Y-187032780D01*
X187512701Y-187057367D01*
X187491045Y-187079939D01*
X187467281Y-187100280D01*
X187441638Y-187118194D01*
X187414363Y-187133508D01*
X187385717Y-187146075D01*
X187355978Y-187155774D01*
X187325432Y-187162511D01*
X187294372Y-187166222D01*
X186583608Y-187215923D01*
X186552334Y-187216571D01*
X186521147Y-187214151D01*
X186490347Y-187208685D01*
X186460232Y-187200227D01*
X186431091Y-187188858D01*
X186403204Y-187174687D01*
X186376840Y-187157851D01*
X186352254Y-187138513D01*
X186329682Y-187116857D01*
X186309341Y-187093093D01*
X186291427Y-187067450D01*
X186276113Y-187040174D01*
X186263546Y-187011529D01*
X186253847Y-186981790D01*
X186247110Y-186951243D01*
X186243399Y-186920184D01*
X186198929Y-186284237D01*
X186198281Y-186252963D01*
X186200701Y-186221776D01*
X186206167Y-186190977D01*
X186214625Y-186160861D01*
X186225994Y-186131720D01*
X186240165Y-186103833D01*
X186257000Y-186077470D01*
X186276339Y-186052883D01*
X186297995Y-186030311D01*
X186321759Y-186009970D01*
X186347402Y-185992056D01*
X186374677Y-185976742D01*
X186403323Y-185964175D01*
X186433062Y-185954476D01*
X186463608Y-185947739D01*
X186494668Y-185944028D01*
X187205432Y-185894327D01*
X187236706Y-185893679D01*
X187267893Y-185896099D01*
X187267893Y-185896099D01*
G37*
D15*
X186894520Y-186555125D03*
G04 #@! TD*
D12*
G04 #@! TO.C,C2*
G36*
X166539591Y-181093793D02*
X166570303Y-181099728D01*
X166600286Y-181108645D01*
X166629250Y-181120457D01*
X166656917Y-181135052D01*
X166683021Y-181152289D01*
X166707309Y-181172001D01*
X166729548Y-181193998D01*
X166749524Y-181218070D01*
X166767044Y-181243984D01*
X166781940Y-181271490D01*
X166794068Y-181300324D01*
X167012105Y-181899378D01*
X167021349Y-181929262D01*
X167027618Y-181959908D01*
X167030854Y-181991021D01*
X167031025Y-182022301D01*
X167028128Y-182053447D01*
X167022193Y-182084160D01*
X167013276Y-182114143D01*
X167001463Y-182143107D01*
X166986868Y-182170774D01*
X166969632Y-182196877D01*
X166949920Y-182221165D01*
X166927922Y-182243404D01*
X166903850Y-182263380D01*
X166877937Y-182280900D01*
X166850430Y-182295796D01*
X166821597Y-182307924D01*
X166152066Y-182551614D01*
X166122182Y-182560857D01*
X166091537Y-182567127D01*
X166060424Y-182570363D01*
X166029144Y-182570534D01*
X165997997Y-182567637D01*
X165967285Y-182561702D01*
X165937302Y-182552785D01*
X165908338Y-182540973D01*
X165880671Y-182526378D01*
X165854567Y-182509141D01*
X165830279Y-182489429D01*
X165808040Y-182467432D01*
X165788064Y-182443360D01*
X165770544Y-182417446D01*
X165755648Y-182389940D01*
X165743520Y-182361106D01*
X165525483Y-181762052D01*
X165516239Y-181732168D01*
X165509970Y-181701522D01*
X165506734Y-181670409D01*
X165506563Y-181639129D01*
X165509460Y-181607983D01*
X165515395Y-181577270D01*
X165524312Y-181547287D01*
X165536125Y-181518323D01*
X165550720Y-181490656D01*
X165567956Y-181464553D01*
X165587668Y-181440265D01*
X165609666Y-181418026D01*
X165633738Y-181398050D01*
X165659651Y-181380530D01*
X165687158Y-181365634D01*
X165715991Y-181353506D01*
X166385522Y-181109816D01*
X166415406Y-181100573D01*
X166446051Y-181094303D01*
X166477164Y-181091067D01*
X166508444Y-181090896D01*
X166539591Y-181093793D01*
X166539591Y-181093793D01*
G37*
D15*
X166268794Y-181830715D03*
D12*
G36*
X166000909Y-179613777D02*
X166031621Y-179619712D01*
X166061604Y-179628629D01*
X166090568Y-179640441D01*
X166118235Y-179655036D01*
X166144339Y-179672273D01*
X166168627Y-179691985D01*
X166190866Y-179713982D01*
X166210842Y-179738054D01*
X166228362Y-179763968D01*
X166243258Y-179791474D01*
X166255386Y-179820308D01*
X166473423Y-180419362D01*
X166482667Y-180449246D01*
X166488936Y-180479892D01*
X166492172Y-180511005D01*
X166492343Y-180542285D01*
X166489446Y-180573431D01*
X166483511Y-180604144D01*
X166474594Y-180634127D01*
X166462781Y-180663091D01*
X166448186Y-180690758D01*
X166430950Y-180716861D01*
X166411238Y-180741149D01*
X166389240Y-180763388D01*
X166365168Y-180783364D01*
X166339255Y-180800884D01*
X166311748Y-180815780D01*
X166282915Y-180827908D01*
X165613384Y-181071598D01*
X165583500Y-181080841D01*
X165552855Y-181087111D01*
X165521742Y-181090347D01*
X165490462Y-181090518D01*
X165459315Y-181087621D01*
X165428603Y-181081686D01*
X165398620Y-181072769D01*
X165369656Y-181060957D01*
X165341989Y-181046362D01*
X165315885Y-181029125D01*
X165291597Y-181009413D01*
X165269358Y-180987416D01*
X165249382Y-180963344D01*
X165231862Y-180937430D01*
X165216966Y-180909924D01*
X165204838Y-180881090D01*
X164986801Y-180282036D01*
X164977557Y-180252152D01*
X164971288Y-180221506D01*
X164968052Y-180190393D01*
X164967881Y-180159113D01*
X164970778Y-180127967D01*
X164976713Y-180097254D01*
X164985630Y-180067271D01*
X164997443Y-180038307D01*
X165012038Y-180010640D01*
X165029274Y-179984537D01*
X165048986Y-179960249D01*
X165070984Y-179938010D01*
X165095056Y-179918034D01*
X165120969Y-179900514D01*
X165148476Y-179885618D01*
X165177309Y-179873490D01*
X165846840Y-179629800D01*
X165876724Y-179620557D01*
X165907369Y-179614287D01*
X165938482Y-179611051D01*
X165969762Y-179610880D01*
X166000909Y-179613777D01*
X166000909Y-179613777D01*
G37*
D15*
X165730112Y-180350699D03*
G04 #@! TD*
D12*
G04 #@! TO.C,C3*
G36*
X187838438Y-176314027D02*
X187869138Y-176320029D01*
X187899101Y-176329011D01*
X187928040Y-176340887D01*
X187955675Y-176355542D01*
X187981740Y-176372836D01*
X188005985Y-176392601D01*
X188028176Y-176414647D01*
X188048100Y-176438762D01*
X188065563Y-176464714D01*
X188080399Y-176492253D01*
X188092464Y-176521113D01*
X188101642Y-176551017D01*
X188107845Y-176581676D01*
X188111013Y-176612796D01*
X188148303Y-177324320D01*
X188148406Y-177355600D01*
X188145441Y-177386740D01*
X188139439Y-177417439D01*
X188130457Y-177447403D01*
X188118581Y-177476341D01*
X188103926Y-177503976D01*
X188086633Y-177530042D01*
X188066868Y-177554287D01*
X188044821Y-177576478D01*
X188020706Y-177596401D01*
X187994754Y-177613865D01*
X187967216Y-177628701D01*
X187938355Y-177640766D01*
X187908452Y-177649944D01*
X187877792Y-177656147D01*
X187846672Y-177659315D01*
X187210046Y-177692679D01*
X187178766Y-177692782D01*
X187147626Y-177689817D01*
X187116926Y-177683815D01*
X187086963Y-177674833D01*
X187058024Y-177662957D01*
X187030389Y-177648302D01*
X187004324Y-177631008D01*
X186980079Y-177611243D01*
X186957888Y-177589197D01*
X186937964Y-177565082D01*
X186920501Y-177539130D01*
X186905665Y-177511591D01*
X186893600Y-177482731D01*
X186884422Y-177452827D01*
X186878219Y-177422168D01*
X186875051Y-177391048D01*
X186837761Y-176679524D01*
X186837658Y-176648244D01*
X186840623Y-176617104D01*
X186846625Y-176586405D01*
X186855607Y-176556441D01*
X186867483Y-176527503D01*
X186882138Y-176499868D01*
X186899431Y-176473802D01*
X186919196Y-176449557D01*
X186941243Y-176427366D01*
X186965358Y-176407443D01*
X186991310Y-176389979D01*
X187018848Y-176375143D01*
X187047709Y-176363078D01*
X187077612Y-176353900D01*
X187108272Y-176347697D01*
X187139392Y-176344529D01*
X187776018Y-176311165D01*
X187807298Y-176311062D01*
X187838438Y-176314027D01*
X187838438Y-176314027D01*
G37*
D15*
X187493032Y-177001922D03*
D12*
G36*
X189411280Y-176231597D02*
X189441980Y-176237599D01*
X189471943Y-176246581D01*
X189500882Y-176258457D01*
X189528517Y-176273112D01*
X189554582Y-176290406D01*
X189578827Y-176310171D01*
X189601018Y-176332217D01*
X189620942Y-176356332D01*
X189638405Y-176382284D01*
X189653241Y-176409823D01*
X189665306Y-176438683D01*
X189674484Y-176468587D01*
X189680687Y-176499246D01*
X189683855Y-176530366D01*
X189721145Y-177241890D01*
X189721248Y-177273170D01*
X189718283Y-177304310D01*
X189712281Y-177335009D01*
X189703299Y-177364973D01*
X189691423Y-177393911D01*
X189676768Y-177421546D01*
X189659475Y-177447612D01*
X189639710Y-177471857D01*
X189617663Y-177494048D01*
X189593548Y-177513971D01*
X189567596Y-177531435D01*
X189540058Y-177546271D01*
X189511197Y-177558336D01*
X189481294Y-177567514D01*
X189450634Y-177573717D01*
X189419514Y-177576885D01*
X188782888Y-177610249D01*
X188751608Y-177610352D01*
X188720468Y-177607387D01*
X188689768Y-177601385D01*
X188659805Y-177592403D01*
X188630866Y-177580527D01*
X188603231Y-177565872D01*
X188577166Y-177548578D01*
X188552921Y-177528813D01*
X188530730Y-177506767D01*
X188510806Y-177482652D01*
X188493343Y-177456700D01*
X188478507Y-177429161D01*
X188466442Y-177400301D01*
X188457264Y-177370397D01*
X188451061Y-177339738D01*
X188447893Y-177308618D01*
X188410603Y-176597094D01*
X188410500Y-176565814D01*
X188413465Y-176534674D01*
X188419467Y-176503975D01*
X188428449Y-176474011D01*
X188440325Y-176445073D01*
X188454980Y-176417438D01*
X188472273Y-176391372D01*
X188492038Y-176367127D01*
X188514085Y-176344936D01*
X188538200Y-176325013D01*
X188564152Y-176307549D01*
X188591690Y-176292713D01*
X188620551Y-176280648D01*
X188650454Y-176271470D01*
X188681114Y-176265267D01*
X188712234Y-176262099D01*
X189348860Y-176228735D01*
X189380140Y-176228632D01*
X189411280Y-176231597D01*
X189411280Y-176231597D01*
G37*
D15*
X189065874Y-176919492D03*
G04 #@! TD*
D12*
G04 #@! TO.C,C4*
G36*
X191889759Y-173555263D02*
X191920559Y-173560729D01*
X191950674Y-173569187D01*
X191979815Y-173580556D01*
X192007702Y-173594727D01*
X192034066Y-173611563D01*
X192058652Y-173630901D01*
X192081224Y-173652557D01*
X192101565Y-173676321D01*
X192119479Y-173701964D01*
X192134793Y-173729240D01*
X192147360Y-173757885D01*
X192157059Y-173787624D01*
X192163796Y-173818171D01*
X192167507Y-173849230D01*
X192211977Y-174485177D01*
X192212625Y-174516451D01*
X192210205Y-174547638D01*
X192204739Y-174578437D01*
X192196281Y-174608553D01*
X192184912Y-174637694D01*
X192170741Y-174665581D01*
X192153906Y-174691944D01*
X192134567Y-174716531D01*
X192112911Y-174739103D01*
X192089147Y-174759444D01*
X192063504Y-174777358D01*
X192036229Y-174792672D01*
X192007583Y-174805239D01*
X191977844Y-174814938D01*
X191947298Y-174821675D01*
X191916238Y-174825386D01*
X191205474Y-174875087D01*
X191174200Y-174875735D01*
X191143013Y-174873315D01*
X191112213Y-174867849D01*
X191082098Y-174859391D01*
X191052957Y-174848022D01*
X191025070Y-174833851D01*
X190998706Y-174817015D01*
X190974120Y-174797677D01*
X190951548Y-174776021D01*
X190931207Y-174752257D01*
X190913293Y-174726614D01*
X190897979Y-174699338D01*
X190885412Y-174670693D01*
X190875713Y-174640954D01*
X190868976Y-174610407D01*
X190865265Y-174579348D01*
X190820795Y-173943401D01*
X190820147Y-173912127D01*
X190822567Y-173880940D01*
X190828033Y-173850141D01*
X190836491Y-173820025D01*
X190847860Y-173790884D01*
X190862031Y-173762997D01*
X190878866Y-173736634D01*
X190898205Y-173712047D01*
X190919861Y-173689475D01*
X190943625Y-173669134D01*
X190969268Y-173651220D01*
X190996543Y-173635906D01*
X191025189Y-173623339D01*
X191054928Y-173613640D01*
X191085474Y-173606903D01*
X191116534Y-173603192D01*
X191827298Y-173553491D01*
X191858572Y-173552843D01*
X191889759Y-173555263D01*
X191889759Y-173555263D01*
G37*
D15*
X191516386Y-174214289D03*
D12*
G36*
X191779893Y-171984099D02*
X191810693Y-171989565D01*
X191840808Y-171998023D01*
X191869949Y-172009392D01*
X191897836Y-172023563D01*
X191924200Y-172040399D01*
X191948786Y-172059737D01*
X191971358Y-172081393D01*
X191991699Y-172105157D01*
X192009613Y-172130800D01*
X192024927Y-172158076D01*
X192037494Y-172186721D01*
X192047193Y-172216460D01*
X192053930Y-172247007D01*
X192057641Y-172278066D01*
X192102111Y-172914013D01*
X192102759Y-172945287D01*
X192100339Y-172976474D01*
X192094873Y-173007273D01*
X192086415Y-173037389D01*
X192075046Y-173066530D01*
X192060875Y-173094417D01*
X192044040Y-173120780D01*
X192024701Y-173145367D01*
X192003045Y-173167939D01*
X191979281Y-173188280D01*
X191953638Y-173206194D01*
X191926363Y-173221508D01*
X191897717Y-173234075D01*
X191867978Y-173243774D01*
X191837432Y-173250511D01*
X191806372Y-173254222D01*
X191095608Y-173303923D01*
X191064334Y-173304571D01*
X191033147Y-173302151D01*
X191002347Y-173296685D01*
X190972232Y-173288227D01*
X190943091Y-173276858D01*
X190915204Y-173262687D01*
X190888840Y-173245851D01*
X190864254Y-173226513D01*
X190841682Y-173204857D01*
X190821341Y-173181093D01*
X190803427Y-173155450D01*
X190788113Y-173128174D01*
X190775546Y-173099529D01*
X190765847Y-173069790D01*
X190759110Y-173039243D01*
X190755399Y-173008184D01*
X190710929Y-172372237D01*
X190710281Y-172340963D01*
X190712701Y-172309776D01*
X190718167Y-172278977D01*
X190726625Y-172248861D01*
X190737994Y-172219720D01*
X190752165Y-172191833D01*
X190769000Y-172165470D01*
X190788339Y-172140883D01*
X190809995Y-172118311D01*
X190833759Y-172097970D01*
X190859402Y-172080056D01*
X190886677Y-172064742D01*
X190915323Y-172052175D01*
X190945062Y-172042476D01*
X190975608Y-172035739D01*
X191006668Y-172032028D01*
X191717432Y-171982327D01*
X191748706Y-171981679D01*
X191779893Y-171984099D01*
X191779893Y-171984099D01*
G37*
D15*
X191406520Y-172643125D03*
G04 #@! TD*
D12*
G04 #@! TO.C,C5*
G36*
X167989591Y-180543793D02*
X168020303Y-180549728D01*
X168050286Y-180558645D01*
X168079250Y-180570457D01*
X168106917Y-180585052D01*
X168133021Y-180602289D01*
X168157309Y-180622001D01*
X168179548Y-180643998D01*
X168199524Y-180668070D01*
X168217044Y-180693984D01*
X168231940Y-180721490D01*
X168244068Y-180750324D01*
X168462105Y-181349378D01*
X168471349Y-181379262D01*
X168477618Y-181409908D01*
X168480854Y-181441021D01*
X168481025Y-181472301D01*
X168478128Y-181503447D01*
X168472193Y-181534160D01*
X168463276Y-181564143D01*
X168451463Y-181593107D01*
X168436868Y-181620774D01*
X168419632Y-181646877D01*
X168399920Y-181671165D01*
X168377922Y-181693404D01*
X168353850Y-181713380D01*
X168327937Y-181730900D01*
X168300430Y-181745796D01*
X168271597Y-181757924D01*
X167602066Y-182001614D01*
X167572182Y-182010857D01*
X167541537Y-182017127D01*
X167510424Y-182020363D01*
X167479144Y-182020534D01*
X167447997Y-182017637D01*
X167417285Y-182011702D01*
X167387302Y-182002785D01*
X167358338Y-181990973D01*
X167330671Y-181976378D01*
X167304567Y-181959141D01*
X167280279Y-181939429D01*
X167258040Y-181917432D01*
X167238064Y-181893360D01*
X167220544Y-181867446D01*
X167205648Y-181839940D01*
X167193520Y-181811106D01*
X166975483Y-181212052D01*
X166966239Y-181182168D01*
X166959970Y-181151522D01*
X166956734Y-181120409D01*
X166956563Y-181089129D01*
X166959460Y-181057983D01*
X166965395Y-181027270D01*
X166974312Y-180997287D01*
X166986125Y-180968323D01*
X167000720Y-180940656D01*
X167017956Y-180914553D01*
X167037668Y-180890265D01*
X167059666Y-180868026D01*
X167083738Y-180848050D01*
X167109651Y-180830530D01*
X167137158Y-180815634D01*
X167165991Y-180803506D01*
X167835522Y-180559816D01*
X167865406Y-180550573D01*
X167896051Y-180544303D01*
X167927164Y-180541067D01*
X167958444Y-180540896D01*
X167989591Y-180543793D01*
X167989591Y-180543793D01*
G37*
D15*
X167718794Y-181280715D03*
D12*
G36*
X167450909Y-179063777D02*
X167481621Y-179069712D01*
X167511604Y-179078629D01*
X167540568Y-179090441D01*
X167568235Y-179105036D01*
X167594339Y-179122273D01*
X167618627Y-179141985D01*
X167640866Y-179163982D01*
X167660842Y-179188054D01*
X167678362Y-179213968D01*
X167693258Y-179241474D01*
X167705386Y-179270308D01*
X167923423Y-179869362D01*
X167932667Y-179899246D01*
X167938936Y-179929892D01*
X167942172Y-179961005D01*
X167942343Y-179992285D01*
X167939446Y-180023431D01*
X167933511Y-180054144D01*
X167924594Y-180084127D01*
X167912781Y-180113091D01*
X167898186Y-180140758D01*
X167880950Y-180166861D01*
X167861238Y-180191149D01*
X167839240Y-180213388D01*
X167815168Y-180233364D01*
X167789255Y-180250884D01*
X167761748Y-180265780D01*
X167732915Y-180277908D01*
X167063384Y-180521598D01*
X167033500Y-180530841D01*
X167002855Y-180537111D01*
X166971742Y-180540347D01*
X166940462Y-180540518D01*
X166909315Y-180537621D01*
X166878603Y-180531686D01*
X166848620Y-180522769D01*
X166819656Y-180510957D01*
X166791989Y-180496362D01*
X166765885Y-180479125D01*
X166741597Y-180459413D01*
X166719358Y-180437416D01*
X166699382Y-180413344D01*
X166681862Y-180387430D01*
X166666966Y-180359924D01*
X166654838Y-180331090D01*
X166436801Y-179732036D01*
X166427557Y-179702152D01*
X166421288Y-179671506D01*
X166418052Y-179640393D01*
X166417881Y-179609113D01*
X166420778Y-179577967D01*
X166426713Y-179547254D01*
X166435630Y-179517271D01*
X166447443Y-179488307D01*
X166462038Y-179460640D01*
X166479274Y-179434537D01*
X166498986Y-179410249D01*
X166520984Y-179388010D01*
X166545056Y-179368034D01*
X166570969Y-179350514D01*
X166598476Y-179335618D01*
X166627309Y-179323490D01*
X167296840Y-179079800D01*
X167326724Y-179070557D01*
X167357369Y-179064287D01*
X167388482Y-179061051D01*
X167419762Y-179060880D01*
X167450909Y-179063777D01*
X167450909Y-179063777D01*
G37*
D15*
X167180112Y-179800699D03*
G04 #@! TD*
D12*
G04 #@! TO.C,C6*
G36*
X174436946Y-169904742D02*
X174467888Y-169909332D01*
X174498231Y-169916932D01*
X174527683Y-169927470D01*
X174555961Y-169940845D01*
X174582791Y-169956926D01*
X174607916Y-169975560D01*
X174631093Y-169996567D01*
X174652100Y-170019744D01*
X174670734Y-170044869D01*
X174686815Y-170071699D01*
X174700190Y-170099977D01*
X174710728Y-170129429D01*
X174718328Y-170159772D01*
X174722918Y-170190714D01*
X174724453Y-170221957D01*
X174724453Y-170859457D01*
X174722918Y-170890700D01*
X174718328Y-170921642D01*
X174710728Y-170951985D01*
X174700190Y-170981437D01*
X174686815Y-171009715D01*
X174670734Y-171036545D01*
X174652100Y-171061670D01*
X174631093Y-171084847D01*
X174607916Y-171105854D01*
X174582791Y-171124488D01*
X174555961Y-171140569D01*
X174527683Y-171153944D01*
X174498231Y-171164482D01*
X174467888Y-171172082D01*
X174436946Y-171176672D01*
X174405703Y-171178207D01*
X173693203Y-171178207D01*
X173661960Y-171176672D01*
X173631018Y-171172082D01*
X173600675Y-171164482D01*
X173571223Y-171153944D01*
X173542945Y-171140569D01*
X173516115Y-171124488D01*
X173490990Y-171105854D01*
X173467813Y-171084847D01*
X173446806Y-171061670D01*
X173428172Y-171036545D01*
X173412091Y-171009715D01*
X173398716Y-170981437D01*
X173388178Y-170951985D01*
X173380578Y-170921642D01*
X173375988Y-170890700D01*
X173374453Y-170859457D01*
X173374453Y-170221957D01*
X173375988Y-170190714D01*
X173380578Y-170159772D01*
X173388178Y-170129429D01*
X173398716Y-170099977D01*
X173412091Y-170071699D01*
X173428172Y-170044869D01*
X173446806Y-170019744D01*
X173467813Y-169996567D01*
X173490990Y-169975560D01*
X173516115Y-169956926D01*
X173542945Y-169940845D01*
X173571223Y-169927470D01*
X173600675Y-169916932D01*
X173631018Y-169909332D01*
X173661960Y-169904742D01*
X173693203Y-169903207D01*
X174405703Y-169903207D01*
X174436946Y-169904742D01*
X174436946Y-169904742D01*
G37*
D15*
X174049453Y-170540707D03*
D12*
G36*
X174436946Y-171479742D02*
X174467888Y-171484332D01*
X174498231Y-171491932D01*
X174527683Y-171502470D01*
X174555961Y-171515845D01*
X174582791Y-171531926D01*
X174607916Y-171550560D01*
X174631093Y-171571567D01*
X174652100Y-171594744D01*
X174670734Y-171619869D01*
X174686815Y-171646699D01*
X174700190Y-171674977D01*
X174710728Y-171704429D01*
X174718328Y-171734772D01*
X174722918Y-171765714D01*
X174724453Y-171796957D01*
X174724453Y-172434457D01*
X174722918Y-172465700D01*
X174718328Y-172496642D01*
X174710728Y-172526985D01*
X174700190Y-172556437D01*
X174686815Y-172584715D01*
X174670734Y-172611545D01*
X174652100Y-172636670D01*
X174631093Y-172659847D01*
X174607916Y-172680854D01*
X174582791Y-172699488D01*
X174555961Y-172715569D01*
X174527683Y-172728944D01*
X174498231Y-172739482D01*
X174467888Y-172747082D01*
X174436946Y-172751672D01*
X174405703Y-172753207D01*
X173693203Y-172753207D01*
X173661960Y-172751672D01*
X173631018Y-172747082D01*
X173600675Y-172739482D01*
X173571223Y-172728944D01*
X173542945Y-172715569D01*
X173516115Y-172699488D01*
X173490990Y-172680854D01*
X173467813Y-172659847D01*
X173446806Y-172636670D01*
X173428172Y-172611545D01*
X173412091Y-172584715D01*
X173398716Y-172556437D01*
X173388178Y-172526985D01*
X173380578Y-172496642D01*
X173375988Y-172465700D01*
X173374453Y-172434457D01*
X173374453Y-171796957D01*
X173375988Y-171765714D01*
X173380578Y-171734772D01*
X173388178Y-171704429D01*
X173398716Y-171674977D01*
X173412091Y-171646699D01*
X173428172Y-171619869D01*
X173446806Y-171594744D01*
X173467813Y-171571567D01*
X173490990Y-171550560D01*
X173516115Y-171531926D01*
X173542945Y-171515845D01*
X173571223Y-171502470D01*
X173600675Y-171491932D01*
X173631018Y-171484332D01*
X173661960Y-171479742D01*
X173693203Y-171478207D01*
X174405703Y-171478207D01*
X174436946Y-171479742D01*
X174436946Y-171479742D01*
G37*
D15*
X174049453Y-172115707D03*
G04 #@! TD*
D12*
G04 #@! TO.C,C7*
G36*
X172836946Y-169917242D02*
X172867888Y-169921832D01*
X172898231Y-169929432D01*
X172927683Y-169939970D01*
X172955961Y-169953345D01*
X172982791Y-169969426D01*
X173007916Y-169988060D01*
X173031093Y-170009067D01*
X173052100Y-170032244D01*
X173070734Y-170057369D01*
X173086815Y-170084199D01*
X173100190Y-170112477D01*
X173110728Y-170141929D01*
X173118328Y-170172272D01*
X173122918Y-170203214D01*
X173124453Y-170234457D01*
X173124453Y-170871957D01*
X173122918Y-170903200D01*
X173118328Y-170934142D01*
X173110728Y-170964485D01*
X173100190Y-170993937D01*
X173086815Y-171022215D01*
X173070734Y-171049045D01*
X173052100Y-171074170D01*
X173031093Y-171097347D01*
X173007916Y-171118354D01*
X172982791Y-171136988D01*
X172955961Y-171153069D01*
X172927683Y-171166444D01*
X172898231Y-171176982D01*
X172867888Y-171184582D01*
X172836946Y-171189172D01*
X172805703Y-171190707D01*
X172093203Y-171190707D01*
X172061960Y-171189172D01*
X172031018Y-171184582D01*
X172000675Y-171176982D01*
X171971223Y-171166444D01*
X171942945Y-171153069D01*
X171916115Y-171136988D01*
X171890990Y-171118354D01*
X171867813Y-171097347D01*
X171846806Y-171074170D01*
X171828172Y-171049045D01*
X171812091Y-171022215D01*
X171798716Y-170993937D01*
X171788178Y-170964485D01*
X171780578Y-170934142D01*
X171775988Y-170903200D01*
X171774453Y-170871957D01*
X171774453Y-170234457D01*
X171775988Y-170203214D01*
X171780578Y-170172272D01*
X171788178Y-170141929D01*
X171798716Y-170112477D01*
X171812091Y-170084199D01*
X171828172Y-170057369D01*
X171846806Y-170032244D01*
X171867813Y-170009067D01*
X171890990Y-169988060D01*
X171916115Y-169969426D01*
X171942945Y-169953345D01*
X171971223Y-169939970D01*
X172000675Y-169929432D01*
X172031018Y-169921832D01*
X172061960Y-169917242D01*
X172093203Y-169915707D01*
X172805703Y-169915707D01*
X172836946Y-169917242D01*
X172836946Y-169917242D01*
G37*
D15*
X172449453Y-170553207D03*
D12*
G36*
X172836946Y-171492242D02*
X172867888Y-171496832D01*
X172898231Y-171504432D01*
X172927683Y-171514970D01*
X172955961Y-171528345D01*
X172982791Y-171544426D01*
X173007916Y-171563060D01*
X173031093Y-171584067D01*
X173052100Y-171607244D01*
X173070734Y-171632369D01*
X173086815Y-171659199D01*
X173100190Y-171687477D01*
X173110728Y-171716929D01*
X173118328Y-171747272D01*
X173122918Y-171778214D01*
X173124453Y-171809457D01*
X173124453Y-172446957D01*
X173122918Y-172478200D01*
X173118328Y-172509142D01*
X173110728Y-172539485D01*
X173100190Y-172568937D01*
X173086815Y-172597215D01*
X173070734Y-172624045D01*
X173052100Y-172649170D01*
X173031093Y-172672347D01*
X173007916Y-172693354D01*
X172982791Y-172711988D01*
X172955961Y-172728069D01*
X172927683Y-172741444D01*
X172898231Y-172751982D01*
X172867888Y-172759582D01*
X172836946Y-172764172D01*
X172805703Y-172765707D01*
X172093203Y-172765707D01*
X172061960Y-172764172D01*
X172031018Y-172759582D01*
X172000675Y-172751982D01*
X171971223Y-172741444D01*
X171942945Y-172728069D01*
X171916115Y-172711988D01*
X171890990Y-172693354D01*
X171867813Y-172672347D01*
X171846806Y-172649170D01*
X171828172Y-172624045D01*
X171812091Y-172597215D01*
X171798716Y-172568937D01*
X171788178Y-172539485D01*
X171780578Y-172509142D01*
X171775988Y-172478200D01*
X171774453Y-172446957D01*
X171774453Y-171809457D01*
X171775988Y-171778214D01*
X171780578Y-171747272D01*
X171788178Y-171716929D01*
X171798716Y-171687477D01*
X171812091Y-171659199D01*
X171828172Y-171632369D01*
X171846806Y-171607244D01*
X171867813Y-171584067D01*
X171890990Y-171563060D01*
X171916115Y-171544426D01*
X171942945Y-171528345D01*
X171971223Y-171514970D01*
X172000675Y-171504432D01*
X172031018Y-171496832D01*
X172061960Y-171492242D01*
X172093203Y-171490707D01*
X172805703Y-171490707D01*
X172836946Y-171492242D01*
X172836946Y-171492242D01*
G37*
D15*
X172449453Y-172128207D03*
G04 #@! TD*
D12*
G04 #@! TO.C,C8*
G36*
X173399446Y-163567242D02*
X173430388Y-163571832D01*
X173460731Y-163579432D01*
X173490183Y-163589970D01*
X173518461Y-163603345D01*
X173545291Y-163619426D01*
X173570416Y-163638060D01*
X173593593Y-163659067D01*
X173614600Y-163682244D01*
X173633234Y-163707369D01*
X173649315Y-163734199D01*
X173662690Y-163762477D01*
X173673228Y-163791929D01*
X173680828Y-163822272D01*
X173685418Y-163853214D01*
X173686953Y-163884457D01*
X173686953Y-164596957D01*
X173685418Y-164628200D01*
X173680828Y-164659142D01*
X173673228Y-164689485D01*
X173662690Y-164718937D01*
X173649315Y-164747215D01*
X173633234Y-164774045D01*
X173614600Y-164799170D01*
X173593593Y-164822347D01*
X173570416Y-164843354D01*
X173545291Y-164861988D01*
X173518461Y-164878069D01*
X173490183Y-164891444D01*
X173460731Y-164901982D01*
X173430388Y-164909582D01*
X173399446Y-164914172D01*
X173368203Y-164915707D01*
X172730703Y-164915707D01*
X172699460Y-164914172D01*
X172668518Y-164909582D01*
X172638175Y-164901982D01*
X172608723Y-164891444D01*
X172580445Y-164878069D01*
X172553615Y-164861988D01*
X172528490Y-164843354D01*
X172505313Y-164822347D01*
X172484306Y-164799170D01*
X172465672Y-164774045D01*
X172449591Y-164747215D01*
X172436216Y-164718937D01*
X172425678Y-164689485D01*
X172418078Y-164659142D01*
X172413488Y-164628200D01*
X172411953Y-164596957D01*
X172411953Y-163884457D01*
X172413488Y-163853214D01*
X172418078Y-163822272D01*
X172425678Y-163791929D01*
X172436216Y-163762477D01*
X172449591Y-163734199D01*
X172465672Y-163707369D01*
X172484306Y-163682244D01*
X172505313Y-163659067D01*
X172528490Y-163638060D01*
X172553615Y-163619426D01*
X172580445Y-163603345D01*
X172608723Y-163589970D01*
X172638175Y-163579432D01*
X172668518Y-163571832D01*
X172699460Y-163567242D01*
X172730703Y-163565707D01*
X173368203Y-163565707D01*
X173399446Y-163567242D01*
X173399446Y-163567242D01*
G37*
D15*
X173049453Y-164240707D03*
D12*
G36*
X174974446Y-163567242D02*
X175005388Y-163571832D01*
X175035731Y-163579432D01*
X175065183Y-163589970D01*
X175093461Y-163603345D01*
X175120291Y-163619426D01*
X175145416Y-163638060D01*
X175168593Y-163659067D01*
X175189600Y-163682244D01*
X175208234Y-163707369D01*
X175224315Y-163734199D01*
X175237690Y-163762477D01*
X175248228Y-163791929D01*
X175255828Y-163822272D01*
X175260418Y-163853214D01*
X175261953Y-163884457D01*
X175261953Y-164596957D01*
X175260418Y-164628200D01*
X175255828Y-164659142D01*
X175248228Y-164689485D01*
X175237690Y-164718937D01*
X175224315Y-164747215D01*
X175208234Y-164774045D01*
X175189600Y-164799170D01*
X175168593Y-164822347D01*
X175145416Y-164843354D01*
X175120291Y-164861988D01*
X175093461Y-164878069D01*
X175065183Y-164891444D01*
X175035731Y-164901982D01*
X175005388Y-164909582D01*
X174974446Y-164914172D01*
X174943203Y-164915707D01*
X174305703Y-164915707D01*
X174274460Y-164914172D01*
X174243518Y-164909582D01*
X174213175Y-164901982D01*
X174183723Y-164891444D01*
X174155445Y-164878069D01*
X174128615Y-164861988D01*
X174103490Y-164843354D01*
X174080313Y-164822347D01*
X174059306Y-164799170D01*
X174040672Y-164774045D01*
X174024591Y-164747215D01*
X174011216Y-164718937D01*
X174000678Y-164689485D01*
X173993078Y-164659142D01*
X173988488Y-164628200D01*
X173986953Y-164596957D01*
X173986953Y-163884457D01*
X173988488Y-163853214D01*
X173993078Y-163822272D01*
X174000678Y-163791929D01*
X174011216Y-163762477D01*
X174024591Y-163734199D01*
X174040672Y-163707369D01*
X174059306Y-163682244D01*
X174080313Y-163659067D01*
X174103490Y-163638060D01*
X174128615Y-163619426D01*
X174155445Y-163603345D01*
X174183723Y-163589970D01*
X174213175Y-163579432D01*
X174243518Y-163571832D01*
X174274460Y-163567242D01*
X174305703Y-163565707D01*
X174943203Y-163565707D01*
X174974446Y-163567242D01*
X174974446Y-163567242D01*
G37*
D15*
X174624453Y-164240707D03*
G04 #@! TD*
D12*
G04 #@! TO.C,C9*
G36*
X173399446Y-161967242D02*
X173430388Y-161971832D01*
X173460731Y-161979432D01*
X173490183Y-161989970D01*
X173518461Y-162003345D01*
X173545291Y-162019426D01*
X173570416Y-162038060D01*
X173593593Y-162059067D01*
X173614600Y-162082244D01*
X173633234Y-162107369D01*
X173649315Y-162134199D01*
X173662690Y-162162477D01*
X173673228Y-162191929D01*
X173680828Y-162222272D01*
X173685418Y-162253214D01*
X173686953Y-162284457D01*
X173686953Y-162996957D01*
X173685418Y-163028200D01*
X173680828Y-163059142D01*
X173673228Y-163089485D01*
X173662690Y-163118937D01*
X173649315Y-163147215D01*
X173633234Y-163174045D01*
X173614600Y-163199170D01*
X173593593Y-163222347D01*
X173570416Y-163243354D01*
X173545291Y-163261988D01*
X173518461Y-163278069D01*
X173490183Y-163291444D01*
X173460731Y-163301982D01*
X173430388Y-163309582D01*
X173399446Y-163314172D01*
X173368203Y-163315707D01*
X172730703Y-163315707D01*
X172699460Y-163314172D01*
X172668518Y-163309582D01*
X172638175Y-163301982D01*
X172608723Y-163291444D01*
X172580445Y-163278069D01*
X172553615Y-163261988D01*
X172528490Y-163243354D01*
X172505313Y-163222347D01*
X172484306Y-163199170D01*
X172465672Y-163174045D01*
X172449591Y-163147215D01*
X172436216Y-163118937D01*
X172425678Y-163089485D01*
X172418078Y-163059142D01*
X172413488Y-163028200D01*
X172411953Y-162996957D01*
X172411953Y-162284457D01*
X172413488Y-162253214D01*
X172418078Y-162222272D01*
X172425678Y-162191929D01*
X172436216Y-162162477D01*
X172449591Y-162134199D01*
X172465672Y-162107369D01*
X172484306Y-162082244D01*
X172505313Y-162059067D01*
X172528490Y-162038060D01*
X172553615Y-162019426D01*
X172580445Y-162003345D01*
X172608723Y-161989970D01*
X172638175Y-161979432D01*
X172668518Y-161971832D01*
X172699460Y-161967242D01*
X172730703Y-161965707D01*
X173368203Y-161965707D01*
X173399446Y-161967242D01*
X173399446Y-161967242D01*
G37*
D15*
X173049453Y-162640707D03*
D12*
G36*
X174974446Y-161967242D02*
X175005388Y-161971832D01*
X175035731Y-161979432D01*
X175065183Y-161989970D01*
X175093461Y-162003345D01*
X175120291Y-162019426D01*
X175145416Y-162038060D01*
X175168593Y-162059067D01*
X175189600Y-162082244D01*
X175208234Y-162107369D01*
X175224315Y-162134199D01*
X175237690Y-162162477D01*
X175248228Y-162191929D01*
X175255828Y-162222272D01*
X175260418Y-162253214D01*
X175261953Y-162284457D01*
X175261953Y-162996957D01*
X175260418Y-163028200D01*
X175255828Y-163059142D01*
X175248228Y-163089485D01*
X175237690Y-163118937D01*
X175224315Y-163147215D01*
X175208234Y-163174045D01*
X175189600Y-163199170D01*
X175168593Y-163222347D01*
X175145416Y-163243354D01*
X175120291Y-163261988D01*
X175093461Y-163278069D01*
X175065183Y-163291444D01*
X175035731Y-163301982D01*
X175005388Y-163309582D01*
X174974446Y-163314172D01*
X174943203Y-163315707D01*
X174305703Y-163315707D01*
X174274460Y-163314172D01*
X174243518Y-163309582D01*
X174213175Y-163301982D01*
X174183723Y-163291444D01*
X174155445Y-163278069D01*
X174128615Y-163261988D01*
X174103490Y-163243354D01*
X174080313Y-163222347D01*
X174059306Y-163199170D01*
X174040672Y-163174045D01*
X174024591Y-163147215D01*
X174011216Y-163118937D01*
X174000678Y-163089485D01*
X173993078Y-163059142D01*
X173988488Y-163028200D01*
X173986953Y-162996957D01*
X173986953Y-162284457D01*
X173988488Y-162253214D01*
X173993078Y-162222272D01*
X174000678Y-162191929D01*
X174011216Y-162162477D01*
X174024591Y-162134199D01*
X174040672Y-162107369D01*
X174059306Y-162082244D01*
X174080313Y-162059067D01*
X174103490Y-162038060D01*
X174128615Y-162019426D01*
X174155445Y-162003345D01*
X174183723Y-161989970D01*
X174213175Y-161979432D01*
X174243518Y-161971832D01*
X174274460Y-161967242D01*
X174305703Y-161965707D01*
X174943203Y-161965707D01*
X174974446Y-161967242D01*
X174974446Y-161967242D01*
G37*
D15*
X174624453Y-162640707D03*
G04 #@! TD*
D12*
G04 #@! TO.C,C10*
G36*
X179811946Y-146779742D02*
X179842888Y-146784332D01*
X179873231Y-146791932D01*
X179902683Y-146802470D01*
X179930961Y-146815845D01*
X179957791Y-146831926D01*
X179982916Y-146850560D01*
X180006093Y-146871567D01*
X180027100Y-146894744D01*
X180045734Y-146919869D01*
X180061815Y-146946699D01*
X180075190Y-146974977D01*
X180085728Y-147004429D01*
X180093328Y-147034772D01*
X180097918Y-147065714D01*
X180099453Y-147096957D01*
X180099453Y-147734457D01*
X180097918Y-147765700D01*
X180093328Y-147796642D01*
X180085728Y-147826985D01*
X180075190Y-147856437D01*
X180061815Y-147884715D01*
X180045734Y-147911545D01*
X180027100Y-147936670D01*
X180006093Y-147959847D01*
X179982916Y-147980854D01*
X179957791Y-147999488D01*
X179930961Y-148015569D01*
X179902683Y-148028944D01*
X179873231Y-148039482D01*
X179842888Y-148047082D01*
X179811946Y-148051672D01*
X179780703Y-148053207D01*
X179068203Y-148053207D01*
X179036960Y-148051672D01*
X179006018Y-148047082D01*
X178975675Y-148039482D01*
X178946223Y-148028944D01*
X178917945Y-148015569D01*
X178891115Y-147999488D01*
X178865990Y-147980854D01*
X178842813Y-147959847D01*
X178821806Y-147936670D01*
X178803172Y-147911545D01*
X178787091Y-147884715D01*
X178773716Y-147856437D01*
X178763178Y-147826985D01*
X178755578Y-147796642D01*
X178750988Y-147765700D01*
X178749453Y-147734457D01*
X178749453Y-147096957D01*
X178750988Y-147065714D01*
X178755578Y-147034772D01*
X178763178Y-147004429D01*
X178773716Y-146974977D01*
X178787091Y-146946699D01*
X178803172Y-146919869D01*
X178821806Y-146894744D01*
X178842813Y-146871567D01*
X178865990Y-146850560D01*
X178891115Y-146831926D01*
X178917945Y-146815845D01*
X178946223Y-146802470D01*
X178975675Y-146791932D01*
X179006018Y-146784332D01*
X179036960Y-146779742D01*
X179068203Y-146778207D01*
X179780703Y-146778207D01*
X179811946Y-146779742D01*
X179811946Y-146779742D01*
G37*
D15*
X179424453Y-147415707D03*
D12*
G36*
X179811946Y-148354742D02*
X179842888Y-148359332D01*
X179873231Y-148366932D01*
X179902683Y-148377470D01*
X179930961Y-148390845D01*
X179957791Y-148406926D01*
X179982916Y-148425560D01*
X180006093Y-148446567D01*
X180027100Y-148469744D01*
X180045734Y-148494869D01*
X180061815Y-148521699D01*
X180075190Y-148549977D01*
X180085728Y-148579429D01*
X180093328Y-148609772D01*
X180097918Y-148640714D01*
X180099453Y-148671957D01*
X180099453Y-149309457D01*
X180097918Y-149340700D01*
X180093328Y-149371642D01*
X180085728Y-149401985D01*
X180075190Y-149431437D01*
X180061815Y-149459715D01*
X180045734Y-149486545D01*
X180027100Y-149511670D01*
X180006093Y-149534847D01*
X179982916Y-149555854D01*
X179957791Y-149574488D01*
X179930961Y-149590569D01*
X179902683Y-149603944D01*
X179873231Y-149614482D01*
X179842888Y-149622082D01*
X179811946Y-149626672D01*
X179780703Y-149628207D01*
X179068203Y-149628207D01*
X179036960Y-149626672D01*
X179006018Y-149622082D01*
X178975675Y-149614482D01*
X178946223Y-149603944D01*
X178917945Y-149590569D01*
X178891115Y-149574488D01*
X178865990Y-149555854D01*
X178842813Y-149534847D01*
X178821806Y-149511670D01*
X178803172Y-149486545D01*
X178787091Y-149459715D01*
X178773716Y-149431437D01*
X178763178Y-149401985D01*
X178755578Y-149371642D01*
X178750988Y-149340700D01*
X178749453Y-149309457D01*
X178749453Y-148671957D01*
X178750988Y-148640714D01*
X178755578Y-148609772D01*
X178763178Y-148579429D01*
X178773716Y-148549977D01*
X178787091Y-148521699D01*
X178803172Y-148494869D01*
X178821806Y-148469744D01*
X178842813Y-148446567D01*
X178865990Y-148425560D01*
X178891115Y-148406926D01*
X178917945Y-148390845D01*
X178946223Y-148377470D01*
X178975675Y-148366932D01*
X179006018Y-148359332D01*
X179036960Y-148354742D01*
X179068203Y-148353207D01*
X179780703Y-148353207D01*
X179811946Y-148354742D01*
X179811946Y-148354742D01*
G37*
D15*
X179424453Y-148990707D03*
G04 #@! TD*
D12*
G04 #@! TO.C,C11*
G36*
X181436946Y-146792242D02*
X181467888Y-146796832D01*
X181498231Y-146804432D01*
X181527683Y-146814970D01*
X181555961Y-146828345D01*
X181582791Y-146844426D01*
X181607916Y-146863060D01*
X181631093Y-146884067D01*
X181652100Y-146907244D01*
X181670734Y-146932369D01*
X181686815Y-146959199D01*
X181700190Y-146987477D01*
X181710728Y-147016929D01*
X181718328Y-147047272D01*
X181722918Y-147078214D01*
X181724453Y-147109457D01*
X181724453Y-147746957D01*
X181722918Y-147778200D01*
X181718328Y-147809142D01*
X181710728Y-147839485D01*
X181700190Y-147868937D01*
X181686815Y-147897215D01*
X181670734Y-147924045D01*
X181652100Y-147949170D01*
X181631093Y-147972347D01*
X181607916Y-147993354D01*
X181582791Y-148011988D01*
X181555961Y-148028069D01*
X181527683Y-148041444D01*
X181498231Y-148051982D01*
X181467888Y-148059582D01*
X181436946Y-148064172D01*
X181405703Y-148065707D01*
X180693203Y-148065707D01*
X180661960Y-148064172D01*
X180631018Y-148059582D01*
X180600675Y-148051982D01*
X180571223Y-148041444D01*
X180542945Y-148028069D01*
X180516115Y-148011988D01*
X180490990Y-147993354D01*
X180467813Y-147972347D01*
X180446806Y-147949170D01*
X180428172Y-147924045D01*
X180412091Y-147897215D01*
X180398716Y-147868937D01*
X180388178Y-147839485D01*
X180380578Y-147809142D01*
X180375988Y-147778200D01*
X180374453Y-147746957D01*
X180374453Y-147109457D01*
X180375988Y-147078214D01*
X180380578Y-147047272D01*
X180388178Y-147016929D01*
X180398716Y-146987477D01*
X180412091Y-146959199D01*
X180428172Y-146932369D01*
X180446806Y-146907244D01*
X180467813Y-146884067D01*
X180490990Y-146863060D01*
X180516115Y-146844426D01*
X180542945Y-146828345D01*
X180571223Y-146814970D01*
X180600675Y-146804432D01*
X180631018Y-146796832D01*
X180661960Y-146792242D01*
X180693203Y-146790707D01*
X181405703Y-146790707D01*
X181436946Y-146792242D01*
X181436946Y-146792242D01*
G37*
D15*
X181049453Y-147428207D03*
D12*
G36*
X181436946Y-148367242D02*
X181467888Y-148371832D01*
X181498231Y-148379432D01*
X181527683Y-148389970D01*
X181555961Y-148403345D01*
X181582791Y-148419426D01*
X181607916Y-148438060D01*
X181631093Y-148459067D01*
X181652100Y-148482244D01*
X181670734Y-148507369D01*
X181686815Y-148534199D01*
X181700190Y-148562477D01*
X181710728Y-148591929D01*
X181718328Y-148622272D01*
X181722918Y-148653214D01*
X181724453Y-148684457D01*
X181724453Y-149321957D01*
X181722918Y-149353200D01*
X181718328Y-149384142D01*
X181710728Y-149414485D01*
X181700190Y-149443937D01*
X181686815Y-149472215D01*
X181670734Y-149499045D01*
X181652100Y-149524170D01*
X181631093Y-149547347D01*
X181607916Y-149568354D01*
X181582791Y-149586988D01*
X181555961Y-149603069D01*
X181527683Y-149616444D01*
X181498231Y-149626982D01*
X181467888Y-149634582D01*
X181436946Y-149639172D01*
X181405703Y-149640707D01*
X180693203Y-149640707D01*
X180661960Y-149639172D01*
X180631018Y-149634582D01*
X180600675Y-149626982D01*
X180571223Y-149616444D01*
X180542945Y-149603069D01*
X180516115Y-149586988D01*
X180490990Y-149568354D01*
X180467813Y-149547347D01*
X180446806Y-149524170D01*
X180428172Y-149499045D01*
X180412091Y-149472215D01*
X180398716Y-149443937D01*
X180388178Y-149414485D01*
X180380578Y-149384142D01*
X180375988Y-149353200D01*
X180374453Y-149321957D01*
X180374453Y-148684457D01*
X180375988Y-148653214D01*
X180380578Y-148622272D01*
X180388178Y-148591929D01*
X180398716Y-148562477D01*
X180412091Y-148534199D01*
X180428172Y-148507369D01*
X180446806Y-148482244D01*
X180467813Y-148459067D01*
X180490990Y-148438060D01*
X180516115Y-148419426D01*
X180542945Y-148403345D01*
X180571223Y-148389970D01*
X180600675Y-148379432D01*
X180631018Y-148371832D01*
X180661960Y-148367242D01*
X180693203Y-148365707D01*
X181405703Y-148365707D01*
X181436946Y-148367242D01*
X181436946Y-148367242D01*
G37*
D15*
X181049453Y-149003207D03*
G04 #@! TD*
D12*
G04 #@! TO.C,C12*
G36*
X183099446Y-165067242D02*
X183130388Y-165071832D01*
X183160731Y-165079432D01*
X183190183Y-165089970D01*
X183218461Y-165103345D01*
X183245291Y-165119426D01*
X183270416Y-165138060D01*
X183293593Y-165159067D01*
X183314600Y-165182244D01*
X183333234Y-165207369D01*
X183349315Y-165234199D01*
X183362690Y-165262477D01*
X183373228Y-165291929D01*
X183380828Y-165322272D01*
X183385418Y-165353214D01*
X183386953Y-165384457D01*
X183386953Y-166096957D01*
X183385418Y-166128200D01*
X183380828Y-166159142D01*
X183373228Y-166189485D01*
X183362690Y-166218937D01*
X183349315Y-166247215D01*
X183333234Y-166274045D01*
X183314600Y-166299170D01*
X183293593Y-166322347D01*
X183270416Y-166343354D01*
X183245291Y-166361988D01*
X183218461Y-166378069D01*
X183190183Y-166391444D01*
X183160731Y-166401982D01*
X183130388Y-166409582D01*
X183099446Y-166414172D01*
X183068203Y-166415707D01*
X182430703Y-166415707D01*
X182399460Y-166414172D01*
X182368518Y-166409582D01*
X182338175Y-166401982D01*
X182308723Y-166391444D01*
X182280445Y-166378069D01*
X182253615Y-166361988D01*
X182228490Y-166343354D01*
X182205313Y-166322347D01*
X182184306Y-166299170D01*
X182165672Y-166274045D01*
X182149591Y-166247215D01*
X182136216Y-166218937D01*
X182125678Y-166189485D01*
X182118078Y-166159142D01*
X182113488Y-166128200D01*
X182111953Y-166096957D01*
X182111953Y-165384457D01*
X182113488Y-165353214D01*
X182118078Y-165322272D01*
X182125678Y-165291929D01*
X182136216Y-165262477D01*
X182149591Y-165234199D01*
X182165672Y-165207369D01*
X182184306Y-165182244D01*
X182205313Y-165159067D01*
X182228490Y-165138060D01*
X182253615Y-165119426D01*
X182280445Y-165103345D01*
X182308723Y-165089970D01*
X182338175Y-165079432D01*
X182368518Y-165071832D01*
X182399460Y-165067242D01*
X182430703Y-165065707D01*
X183068203Y-165065707D01*
X183099446Y-165067242D01*
X183099446Y-165067242D01*
G37*
D15*
X182749453Y-165740707D03*
D12*
G36*
X181524446Y-165067242D02*
X181555388Y-165071832D01*
X181585731Y-165079432D01*
X181615183Y-165089970D01*
X181643461Y-165103345D01*
X181670291Y-165119426D01*
X181695416Y-165138060D01*
X181718593Y-165159067D01*
X181739600Y-165182244D01*
X181758234Y-165207369D01*
X181774315Y-165234199D01*
X181787690Y-165262477D01*
X181798228Y-165291929D01*
X181805828Y-165322272D01*
X181810418Y-165353214D01*
X181811953Y-165384457D01*
X181811953Y-166096957D01*
X181810418Y-166128200D01*
X181805828Y-166159142D01*
X181798228Y-166189485D01*
X181787690Y-166218937D01*
X181774315Y-166247215D01*
X181758234Y-166274045D01*
X181739600Y-166299170D01*
X181718593Y-166322347D01*
X181695416Y-166343354D01*
X181670291Y-166361988D01*
X181643461Y-166378069D01*
X181615183Y-166391444D01*
X181585731Y-166401982D01*
X181555388Y-166409582D01*
X181524446Y-166414172D01*
X181493203Y-166415707D01*
X180855703Y-166415707D01*
X180824460Y-166414172D01*
X180793518Y-166409582D01*
X180763175Y-166401982D01*
X180733723Y-166391444D01*
X180705445Y-166378069D01*
X180678615Y-166361988D01*
X180653490Y-166343354D01*
X180630313Y-166322347D01*
X180609306Y-166299170D01*
X180590672Y-166274045D01*
X180574591Y-166247215D01*
X180561216Y-166218937D01*
X180550678Y-166189485D01*
X180543078Y-166159142D01*
X180538488Y-166128200D01*
X180536953Y-166096957D01*
X180536953Y-165384457D01*
X180538488Y-165353214D01*
X180543078Y-165322272D01*
X180550678Y-165291929D01*
X180561216Y-165262477D01*
X180574591Y-165234199D01*
X180590672Y-165207369D01*
X180609306Y-165182244D01*
X180630313Y-165159067D01*
X180653490Y-165138060D01*
X180678615Y-165119426D01*
X180705445Y-165103345D01*
X180733723Y-165089970D01*
X180763175Y-165079432D01*
X180793518Y-165071832D01*
X180824460Y-165067242D01*
X180855703Y-165065707D01*
X181493203Y-165065707D01*
X181524446Y-165067242D01*
X181524446Y-165067242D01*
G37*
D15*
X181174453Y-165740707D03*
G04 #@! TD*
D12*
G04 #@! TO.C,C13*
G36*
X183099446Y-163467242D02*
X183130388Y-163471832D01*
X183160731Y-163479432D01*
X183190183Y-163489970D01*
X183218461Y-163503345D01*
X183245291Y-163519426D01*
X183270416Y-163538060D01*
X183293593Y-163559067D01*
X183314600Y-163582244D01*
X183333234Y-163607369D01*
X183349315Y-163634199D01*
X183362690Y-163662477D01*
X183373228Y-163691929D01*
X183380828Y-163722272D01*
X183385418Y-163753214D01*
X183386953Y-163784457D01*
X183386953Y-164496957D01*
X183385418Y-164528200D01*
X183380828Y-164559142D01*
X183373228Y-164589485D01*
X183362690Y-164618937D01*
X183349315Y-164647215D01*
X183333234Y-164674045D01*
X183314600Y-164699170D01*
X183293593Y-164722347D01*
X183270416Y-164743354D01*
X183245291Y-164761988D01*
X183218461Y-164778069D01*
X183190183Y-164791444D01*
X183160731Y-164801982D01*
X183130388Y-164809582D01*
X183099446Y-164814172D01*
X183068203Y-164815707D01*
X182430703Y-164815707D01*
X182399460Y-164814172D01*
X182368518Y-164809582D01*
X182338175Y-164801982D01*
X182308723Y-164791444D01*
X182280445Y-164778069D01*
X182253615Y-164761988D01*
X182228490Y-164743354D01*
X182205313Y-164722347D01*
X182184306Y-164699170D01*
X182165672Y-164674045D01*
X182149591Y-164647215D01*
X182136216Y-164618937D01*
X182125678Y-164589485D01*
X182118078Y-164559142D01*
X182113488Y-164528200D01*
X182111953Y-164496957D01*
X182111953Y-163784457D01*
X182113488Y-163753214D01*
X182118078Y-163722272D01*
X182125678Y-163691929D01*
X182136216Y-163662477D01*
X182149591Y-163634199D01*
X182165672Y-163607369D01*
X182184306Y-163582244D01*
X182205313Y-163559067D01*
X182228490Y-163538060D01*
X182253615Y-163519426D01*
X182280445Y-163503345D01*
X182308723Y-163489970D01*
X182338175Y-163479432D01*
X182368518Y-163471832D01*
X182399460Y-163467242D01*
X182430703Y-163465707D01*
X183068203Y-163465707D01*
X183099446Y-163467242D01*
X183099446Y-163467242D01*
G37*
D15*
X182749453Y-164140707D03*
D12*
G36*
X181524446Y-163467242D02*
X181555388Y-163471832D01*
X181585731Y-163479432D01*
X181615183Y-163489970D01*
X181643461Y-163503345D01*
X181670291Y-163519426D01*
X181695416Y-163538060D01*
X181718593Y-163559067D01*
X181739600Y-163582244D01*
X181758234Y-163607369D01*
X181774315Y-163634199D01*
X181787690Y-163662477D01*
X181798228Y-163691929D01*
X181805828Y-163722272D01*
X181810418Y-163753214D01*
X181811953Y-163784457D01*
X181811953Y-164496957D01*
X181810418Y-164528200D01*
X181805828Y-164559142D01*
X181798228Y-164589485D01*
X181787690Y-164618937D01*
X181774315Y-164647215D01*
X181758234Y-164674045D01*
X181739600Y-164699170D01*
X181718593Y-164722347D01*
X181695416Y-164743354D01*
X181670291Y-164761988D01*
X181643461Y-164778069D01*
X181615183Y-164791444D01*
X181585731Y-164801982D01*
X181555388Y-164809582D01*
X181524446Y-164814172D01*
X181493203Y-164815707D01*
X180855703Y-164815707D01*
X180824460Y-164814172D01*
X180793518Y-164809582D01*
X180763175Y-164801982D01*
X180733723Y-164791444D01*
X180705445Y-164778069D01*
X180678615Y-164761988D01*
X180653490Y-164743354D01*
X180630313Y-164722347D01*
X180609306Y-164699170D01*
X180590672Y-164674045D01*
X180574591Y-164647215D01*
X180561216Y-164618937D01*
X180550678Y-164589485D01*
X180543078Y-164559142D01*
X180538488Y-164528200D01*
X180536953Y-164496957D01*
X180536953Y-163784457D01*
X180538488Y-163753214D01*
X180543078Y-163722272D01*
X180550678Y-163691929D01*
X180561216Y-163662477D01*
X180574591Y-163634199D01*
X180590672Y-163607369D01*
X180609306Y-163582244D01*
X180630313Y-163559067D01*
X180653490Y-163538060D01*
X180678615Y-163519426D01*
X180705445Y-163503345D01*
X180733723Y-163489970D01*
X180763175Y-163479432D01*
X180793518Y-163471832D01*
X180824460Y-163467242D01*
X180855703Y-163465707D01*
X181493203Y-163465707D01*
X181524446Y-163467242D01*
X181524446Y-163467242D01*
G37*
D15*
X181174453Y-164140707D03*
G04 #@! TD*
D12*
G04 #@! TO.C,C14*
G36*
X185011946Y-164667242D02*
X185042888Y-164671832D01*
X185073231Y-164679432D01*
X185102683Y-164689970D01*
X185130961Y-164703345D01*
X185157791Y-164719426D01*
X185182916Y-164738060D01*
X185206093Y-164759067D01*
X185227100Y-164782244D01*
X185245734Y-164807369D01*
X185261815Y-164834199D01*
X185275190Y-164862477D01*
X185285728Y-164891929D01*
X185293328Y-164922272D01*
X185297918Y-164953214D01*
X185299453Y-164984457D01*
X185299453Y-165696957D01*
X185297918Y-165728200D01*
X185293328Y-165759142D01*
X185285728Y-165789485D01*
X185275190Y-165818937D01*
X185261815Y-165847215D01*
X185245734Y-165874045D01*
X185227100Y-165899170D01*
X185206093Y-165922347D01*
X185182916Y-165943354D01*
X185157791Y-165961988D01*
X185130961Y-165978069D01*
X185102683Y-165991444D01*
X185073231Y-166001982D01*
X185042888Y-166009582D01*
X185011946Y-166014172D01*
X184980703Y-166015707D01*
X184343203Y-166015707D01*
X184311960Y-166014172D01*
X184281018Y-166009582D01*
X184250675Y-166001982D01*
X184221223Y-165991444D01*
X184192945Y-165978069D01*
X184166115Y-165961988D01*
X184140990Y-165943354D01*
X184117813Y-165922347D01*
X184096806Y-165899170D01*
X184078172Y-165874045D01*
X184062091Y-165847215D01*
X184048716Y-165818937D01*
X184038178Y-165789485D01*
X184030578Y-165759142D01*
X184025988Y-165728200D01*
X184024453Y-165696957D01*
X184024453Y-164984457D01*
X184025988Y-164953214D01*
X184030578Y-164922272D01*
X184038178Y-164891929D01*
X184048716Y-164862477D01*
X184062091Y-164834199D01*
X184078172Y-164807369D01*
X184096806Y-164782244D01*
X184117813Y-164759067D01*
X184140990Y-164738060D01*
X184166115Y-164719426D01*
X184192945Y-164703345D01*
X184221223Y-164689970D01*
X184250675Y-164679432D01*
X184281018Y-164671832D01*
X184311960Y-164667242D01*
X184343203Y-164665707D01*
X184980703Y-164665707D01*
X185011946Y-164667242D01*
X185011946Y-164667242D01*
G37*
D15*
X184661953Y-165340707D03*
D12*
G36*
X186586946Y-164667242D02*
X186617888Y-164671832D01*
X186648231Y-164679432D01*
X186677683Y-164689970D01*
X186705961Y-164703345D01*
X186732791Y-164719426D01*
X186757916Y-164738060D01*
X186781093Y-164759067D01*
X186802100Y-164782244D01*
X186820734Y-164807369D01*
X186836815Y-164834199D01*
X186850190Y-164862477D01*
X186860728Y-164891929D01*
X186868328Y-164922272D01*
X186872918Y-164953214D01*
X186874453Y-164984457D01*
X186874453Y-165696957D01*
X186872918Y-165728200D01*
X186868328Y-165759142D01*
X186860728Y-165789485D01*
X186850190Y-165818937D01*
X186836815Y-165847215D01*
X186820734Y-165874045D01*
X186802100Y-165899170D01*
X186781093Y-165922347D01*
X186757916Y-165943354D01*
X186732791Y-165961988D01*
X186705961Y-165978069D01*
X186677683Y-165991444D01*
X186648231Y-166001982D01*
X186617888Y-166009582D01*
X186586946Y-166014172D01*
X186555703Y-166015707D01*
X185918203Y-166015707D01*
X185886960Y-166014172D01*
X185856018Y-166009582D01*
X185825675Y-166001982D01*
X185796223Y-165991444D01*
X185767945Y-165978069D01*
X185741115Y-165961988D01*
X185715990Y-165943354D01*
X185692813Y-165922347D01*
X185671806Y-165899170D01*
X185653172Y-165874045D01*
X185637091Y-165847215D01*
X185623716Y-165818937D01*
X185613178Y-165789485D01*
X185605578Y-165759142D01*
X185600988Y-165728200D01*
X185599453Y-165696957D01*
X185599453Y-164984457D01*
X185600988Y-164953214D01*
X185605578Y-164922272D01*
X185613178Y-164891929D01*
X185623716Y-164862477D01*
X185637091Y-164834199D01*
X185653172Y-164807369D01*
X185671806Y-164782244D01*
X185692813Y-164759067D01*
X185715990Y-164738060D01*
X185741115Y-164719426D01*
X185767945Y-164703345D01*
X185796223Y-164689970D01*
X185825675Y-164679432D01*
X185856018Y-164671832D01*
X185886960Y-164667242D01*
X185918203Y-164665707D01*
X186555703Y-164665707D01*
X186586946Y-164667242D01*
X186586946Y-164667242D01*
G37*
D15*
X186236953Y-165340707D03*
G04 #@! TD*
D12*
G04 #@! TO.C,L1*
G36*
X189375524Y-151487330D02*
X189408234Y-151492182D01*
X189440310Y-151500216D01*
X189471444Y-151511356D01*
X189501337Y-151525494D01*
X189529700Y-151542494D01*
X189556260Y-151562192D01*
X189580761Y-151584399D01*
X189602968Y-151608900D01*
X189622666Y-151635460D01*
X189639666Y-151663823D01*
X189653804Y-151693716D01*
X189664944Y-151724850D01*
X189672978Y-151756926D01*
X189677830Y-151789636D01*
X189679453Y-151822663D01*
X189679453Y-152698751D01*
X189677830Y-152731778D01*
X189672978Y-152764488D01*
X189664944Y-152796564D01*
X189653804Y-152827698D01*
X189639666Y-152857591D01*
X189622666Y-152885954D01*
X189602968Y-152912514D01*
X189580761Y-152937015D01*
X189556260Y-152959222D01*
X189529700Y-152978920D01*
X189501337Y-152995920D01*
X189471444Y-153010058D01*
X189440310Y-153021198D01*
X189408234Y-153029232D01*
X189375524Y-153034084D01*
X189342497Y-153035707D01*
X188216409Y-153035707D01*
X188183382Y-153034084D01*
X188150672Y-153029232D01*
X188118596Y-153021198D01*
X188087462Y-153010058D01*
X188057569Y-152995920D01*
X188029206Y-152978920D01*
X188002646Y-152959222D01*
X187978145Y-152937015D01*
X187955938Y-152912514D01*
X187936240Y-152885954D01*
X187919240Y-152857591D01*
X187905102Y-152827698D01*
X187893962Y-152796564D01*
X187885928Y-152764488D01*
X187881076Y-152731778D01*
X187879453Y-152698751D01*
X187879453Y-151822663D01*
X187881076Y-151789636D01*
X187885928Y-151756926D01*
X187893962Y-151724850D01*
X187905102Y-151693716D01*
X187919240Y-151663823D01*
X187936240Y-151635460D01*
X187955938Y-151608900D01*
X187978145Y-151584399D01*
X188002646Y-151562192D01*
X188029206Y-151542494D01*
X188057569Y-151525494D01*
X188087462Y-151511356D01*
X188118596Y-151500216D01*
X188150672Y-151492182D01*
X188183382Y-151487330D01*
X188216409Y-151485707D01*
X189342497Y-151485707D01*
X189375524Y-151487330D01*
X189375524Y-151487330D01*
G37*
D16*
X188779453Y-152260707D03*
D12*
G36*
X189375524Y-153537330D02*
X189408234Y-153542182D01*
X189440310Y-153550216D01*
X189471444Y-153561356D01*
X189501337Y-153575494D01*
X189529700Y-153592494D01*
X189556260Y-153612192D01*
X189580761Y-153634399D01*
X189602968Y-153658900D01*
X189622666Y-153685460D01*
X189639666Y-153713823D01*
X189653804Y-153743716D01*
X189664944Y-153774850D01*
X189672978Y-153806926D01*
X189677830Y-153839636D01*
X189679453Y-153872663D01*
X189679453Y-154748751D01*
X189677830Y-154781778D01*
X189672978Y-154814488D01*
X189664944Y-154846564D01*
X189653804Y-154877698D01*
X189639666Y-154907591D01*
X189622666Y-154935954D01*
X189602968Y-154962514D01*
X189580761Y-154987015D01*
X189556260Y-155009222D01*
X189529700Y-155028920D01*
X189501337Y-155045920D01*
X189471444Y-155060058D01*
X189440310Y-155071198D01*
X189408234Y-155079232D01*
X189375524Y-155084084D01*
X189342497Y-155085707D01*
X188216409Y-155085707D01*
X188183382Y-155084084D01*
X188150672Y-155079232D01*
X188118596Y-155071198D01*
X188087462Y-155060058D01*
X188057569Y-155045920D01*
X188029206Y-155028920D01*
X188002646Y-155009222D01*
X187978145Y-154987015D01*
X187955938Y-154962514D01*
X187936240Y-154935954D01*
X187919240Y-154907591D01*
X187905102Y-154877698D01*
X187893962Y-154846564D01*
X187885928Y-154814488D01*
X187881076Y-154781778D01*
X187879453Y-154748751D01*
X187879453Y-153872663D01*
X187881076Y-153839636D01*
X187885928Y-153806926D01*
X187893962Y-153774850D01*
X187905102Y-153743716D01*
X187919240Y-153713823D01*
X187936240Y-153685460D01*
X187955938Y-153658900D01*
X187978145Y-153634399D01*
X188002646Y-153612192D01*
X188029206Y-153592494D01*
X188057569Y-153575494D01*
X188087462Y-153561356D01*
X188118596Y-153550216D01*
X188150672Y-153542182D01*
X188183382Y-153537330D01*
X188216409Y-153535707D01*
X189342497Y-153535707D01*
X189375524Y-153537330D01*
X189375524Y-153537330D01*
G37*
D16*
X188779453Y-154310707D03*
G04 #@! TD*
D12*
G04 #@! TO.C,L2*
G36*
X186387347Y-140568079D02*
X186419880Y-140573998D01*
X186451676Y-140583078D01*
X186482429Y-140595231D01*
X186511843Y-140610340D01*
X187487063Y-141173384D01*
X187514854Y-141191303D01*
X187540756Y-141211859D01*
X187564517Y-141234856D01*
X187585910Y-141260070D01*
X187604729Y-141287260D01*
X187620792Y-141316164D01*
X187633944Y-141346503D01*
X187644060Y-141377985D01*
X187651040Y-141410308D01*
X187654820Y-141443158D01*
X187655361Y-141476221D01*
X187652658Y-141509178D01*
X187646739Y-141541711D01*
X187637659Y-141573507D01*
X187625506Y-141604260D01*
X187610397Y-141633674D01*
X187172353Y-142392388D01*
X187154435Y-142420179D01*
X187133878Y-142446081D01*
X187110881Y-142469842D01*
X187085667Y-142491235D01*
X187058477Y-142510054D01*
X187029573Y-142526117D01*
X186999234Y-142539269D01*
X186967752Y-142549385D01*
X186935430Y-142556365D01*
X186902579Y-142560145D01*
X186869516Y-142560686D01*
X186836559Y-142557983D01*
X186804026Y-142552064D01*
X186772230Y-142542984D01*
X186741477Y-142530831D01*
X186712063Y-142515722D01*
X185736843Y-141952678D01*
X185709052Y-141934759D01*
X185683150Y-141914203D01*
X185659389Y-141891206D01*
X185637996Y-141865992D01*
X185619177Y-141838802D01*
X185603114Y-141809898D01*
X185589962Y-141779559D01*
X185579846Y-141748077D01*
X185572866Y-141715754D01*
X185569086Y-141682904D01*
X185568545Y-141649841D01*
X185571248Y-141616884D01*
X185577167Y-141584351D01*
X185586247Y-141552555D01*
X185598400Y-141521802D01*
X185613509Y-141492388D01*
X186051553Y-140733674D01*
X186069471Y-140705883D01*
X186090028Y-140679981D01*
X186113025Y-140656220D01*
X186138239Y-140634827D01*
X186165429Y-140616008D01*
X186194333Y-140599945D01*
X186224672Y-140586793D01*
X186256154Y-140576677D01*
X186288476Y-140569697D01*
X186321327Y-140565917D01*
X186354390Y-140565376D01*
X186387347Y-140568079D01*
X186387347Y-140568079D01*
G37*
D16*
X186611953Y-141563031D03*
D12*
G36*
X185362347Y-142343431D02*
X185394880Y-142349350D01*
X185426676Y-142358430D01*
X185457429Y-142370583D01*
X185486843Y-142385692D01*
X186462063Y-142948736D01*
X186489854Y-142966655D01*
X186515756Y-142987211D01*
X186539517Y-143010208D01*
X186560910Y-143035422D01*
X186579729Y-143062612D01*
X186595792Y-143091516D01*
X186608944Y-143121855D01*
X186619060Y-143153337D01*
X186626040Y-143185660D01*
X186629820Y-143218510D01*
X186630361Y-143251573D01*
X186627658Y-143284530D01*
X186621739Y-143317063D01*
X186612659Y-143348859D01*
X186600506Y-143379612D01*
X186585397Y-143409026D01*
X186147353Y-144167740D01*
X186129435Y-144195531D01*
X186108878Y-144221433D01*
X186085881Y-144245194D01*
X186060667Y-144266587D01*
X186033477Y-144285406D01*
X186004573Y-144301469D01*
X185974234Y-144314621D01*
X185942752Y-144324737D01*
X185910430Y-144331717D01*
X185877579Y-144335497D01*
X185844516Y-144336038D01*
X185811559Y-144333335D01*
X185779026Y-144327416D01*
X185747230Y-144318336D01*
X185716477Y-144306183D01*
X185687063Y-144291074D01*
X184711843Y-143728030D01*
X184684052Y-143710111D01*
X184658150Y-143689555D01*
X184634389Y-143666558D01*
X184612996Y-143641344D01*
X184594177Y-143614154D01*
X184578114Y-143585250D01*
X184564962Y-143554911D01*
X184554846Y-143523429D01*
X184547866Y-143491106D01*
X184544086Y-143458256D01*
X184543545Y-143425193D01*
X184546248Y-143392236D01*
X184552167Y-143359703D01*
X184561247Y-143327907D01*
X184573400Y-143297154D01*
X184588509Y-143267740D01*
X185026553Y-142509026D01*
X185044471Y-142481235D01*
X185065028Y-142455333D01*
X185088025Y-142431572D01*
X185113239Y-142410179D01*
X185140429Y-142391360D01*
X185169333Y-142375297D01*
X185199672Y-142362145D01*
X185231154Y-142352029D01*
X185263476Y-142345049D01*
X185296327Y-142341269D01*
X185329390Y-142340728D01*
X185362347Y-142343431D01*
X185362347Y-142343431D01*
G37*
D16*
X185586953Y-143338383D03*
G04 #@! TD*
D17*
G04 #@! TO.C,MUX1*
X181044661Y-144532982D03*
D12*
G36*
X181151600Y-143497758D02*
X181887722Y-143922758D01*
X180937722Y-145568206D01*
X180201600Y-145143206D01*
X181151600Y-143497758D01*
X181151600Y-143497758D01*
G37*
D17*
X180481744Y-144207982D03*
D12*
G36*
X180588683Y-143172758D02*
X181324805Y-143597758D01*
X180374805Y-145243206D01*
X179638683Y-144818206D01*
X180588683Y-143172758D01*
X180588683Y-143172758D01*
G37*
D17*
X179918828Y-143882982D03*
D12*
G36*
X180025767Y-142847758D02*
X180761889Y-143272758D01*
X179811889Y-144918206D01*
X179075767Y-144493206D01*
X180025767Y-142847758D01*
X180025767Y-142847758D01*
G37*
D17*
X179355911Y-143557982D03*
D12*
G36*
X179462850Y-142522758D02*
X180198972Y-142947758D01*
X179248972Y-144593206D01*
X178512850Y-144168206D01*
X179462850Y-142522758D01*
X179462850Y-142522758D01*
G37*
D17*
X178792995Y-143232982D03*
D12*
G36*
X178899934Y-142197758D02*
X179636056Y-142622758D01*
X178686056Y-144268206D01*
X177949934Y-143843206D01*
X178899934Y-142197758D01*
X178899934Y-142197758D01*
G37*
D17*
X178230078Y-142907982D03*
D12*
G36*
X178337017Y-141872758D02*
X179073139Y-142297758D01*
X178123139Y-143943206D01*
X177387017Y-143518206D01*
X178337017Y-141872758D01*
X178337017Y-141872758D01*
G37*
D17*
X177667162Y-142582982D03*
D12*
G36*
X177774101Y-141547758D02*
X178510223Y-141972758D01*
X177560223Y-143618206D01*
X176824101Y-143193206D01*
X177774101Y-141547758D01*
X177774101Y-141547758D01*
G37*
D17*
X177104245Y-142257982D03*
D12*
G36*
X177211184Y-141222758D02*
X177947306Y-141647758D01*
X176997306Y-143293206D01*
X176261184Y-142868206D01*
X177211184Y-141222758D01*
X177211184Y-141222758D01*
G37*
D17*
X180054245Y-137148432D03*
D12*
G36*
X180161184Y-136113208D02*
X180897306Y-136538208D01*
X179947306Y-138183656D01*
X179211184Y-137758656D01*
X180161184Y-136113208D01*
X180161184Y-136113208D01*
G37*
D17*
X180617162Y-137473432D03*
D12*
G36*
X180724101Y-136438208D02*
X181460223Y-136863208D01*
X180510223Y-138508656D01*
X179774101Y-138083656D01*
X180724101Y-136438208D01*
X180724101Y-136438208D01*
G37*
D17*
X181180078Y-137798432D03*
D12*
G36*
X181287017Y-136763208D02*
X182023139Y-137188208D01*
X181073139Y-138833656D01*
X180337017Y-138408656D01*
X181287017Y-136763208D01*
X181287017Y-136763208D01*
G37*
D17*
X181742995Y-138123432D03*
D12*
G36*
X181849934Y-137088208D02*
X182586056Y-137513208D01*
X181636056Y-139158656D01*
X180899934Y-138733656D01*
X181849934Y-137088208D01*
X181849934Y-137088208D01*
G37*
D17*
X182305911Y-138448432D03*
D12*
G36*
X182412850Y-137413208D02*
X183148972Y-137838208D01*
X182198972Y-139483656D01*
X181462850Y-139058656D01*
X182412850Y-137413208D01*
X182412850Y-137413208D01*
G37*
D17*
X182868828Y-138773432D03*
D12*
G36*
X182975767Y-137738208D02*
X183711889Y-138163208D01*
X182761889Y-139808656D01*
X182025767Y-139383656D01*
X182975767Y-137738208D01*
X182975767Y-137738208D01*
G37*
D17*
X183431744Y-139098432D03*
D12*
G36*
X183538683Y-138063208D02*
X184274805Y-138488208D01*
X183324805Y-140133656D01*
X182588683Y-139708656D01*
X183538683Y-138063208D01*
X183538683Y-138063208D01*
G37*
D17*
X183994661Y-139423432D03*
D12*
G36*
X184101600Y-138388208D02*
X184837722Y-138813208D01*
X183887722Y-140458656D01*
X183151600Y-140033656D01*
X184101600Y-138388208D01*
X184101600Y-138388208D01*
G37*
G04 #@! TD*
D18*
G04 #@! TO.C,MUX2*
X172999453Y-160915707D03*
X172999453Y-160265707D03*
X172999453Y-159615707D03*
X172999453Y-158965707D03*
X172999453Y-158315707D03*
X172999453Y-157665707D03*
X172999453Y-157015707D03*
X172999453Y-156365707D03*
X178899453Y-156365707D03*
X178899453Y-157015707D03*
X178899453Y-157665707D03*
X178899453Y-158315707D03*
X178899453Y-158965707D03*
X178899453Y-159615707D03*
X178899453Y-160265707D03*
X178899453Y-160915707D03*
G04 #@! TD*
D19*
G04 #@! TO.C,MUX3*
X170924453Y-170540707D03*
X170274453Y-170540707D03*
X169624453Y-170540707D03*
X168974453Y-170540707D03*
X168324453Y-170540707D03*
X167674453Y-170540707D03*
X167024453Y-170540707D03*
X166374453Y-170540707D03*
X166374453Y-164640707D03*
X167024453Y-164640707D03*
X167674453Y-164640707D03*
X168324453Y-164640707D03*
X168974453Y-164640707D03*
X169624453Y-164640707D03*
X170274453Y-164640707D03*
X170924453Y-164640707D03*
G04 #@! TD*
D17*
G04 #@! TO.C,MUX4*
X166952693Y-183896710D03*
D12*
G36*
X167676981Y-184644059D02*
X166878243Y-184934777D01*
X166228405Y-183149361D01*
X167027143Y-182858643D01*
X167676981Y-184644059D01*
X167676981Y-184644059D01*
G37*
D17*
X167563493Y-183674397D03*
D12*
G36*
X168287781Y-184421746D02*
X167489043Y-184712464D01*
X166839205Y-182927048D01*
X167637943Y-182636330D01*
X168287781Y-184421746D01*
X168287781Y-184421746D01*
G37*
D17*
X168174293Y-183452083D03*
D12*
G36*
X168898581Y-184199432D02*
X168099843Y-184490150D01*
X167450005Y-182704734D01*
X168248743Y-182414016D01*
X168898581Y-184199432D01*
X168898581Y-184199432D01*
G37*
D17*
X168785093Y-183229770D03*
D12*
G36*
X169509381Y-183977119D02*
X168710643Y-184267837D01*
X168060805Y-182482421D01*
X168859543Y-182191703D01*
X169509381Y-183977119D01*
X169509381Y-183977119D01*
G37*
D17*
X169395894Y-183007457D03*
D12*
G36*
X170120182Y-183754806D02*
X169321444Y-184045524D01*
X168671606Y-182260108D01*
X169470344Y-181969390D01*
X170120182Y-183754806D01*
X170120182Y-183754806D01*
G37*
D17*
X170006694Y-182785144D03*
D12*
G36*
X170730982Y-183532493D02*
X169932244Y-183823211D01*
X169282406Y-182037795D01*
X170081144Y-181747077D01*
X170730982Y-183532493D01*
X170730982Y-183532493D01*
G37*
D17*
X170617494Y-182562831D03*
D12*
G36*
X171341782Y-183310180D02*
X170543044Y-183600898D01*
X169893206Y-181815482D01*
X170691944Y-181524764D01*
X171341782Y-183310180D01*
X171341782Y-183310180D01*
G37*
D17*
X171228294Y-182340518D03*
D12*
G36*
X171952582Y-183087867D02*
X171153844Y-183378585D01*
X170504006Y-181593169D01*
X171302744Y-181302451D01*
X171952582Y-183087867D01*
X171952582Y-183087867D01*
G37*
D17*
X173246213Y-187884704D03*
D12*
G36*
X173970501Y-188632053D02*
X173171763Y-188922771D01*
X172521925Y-187137355D01*
X173320663Y-186846637D01*
X173970501Y-188632053D01*
X173970501Y-188632053D01*
G37*
D17*
X172635413Y-188107017D03*
D12*
G36*
X173359701Y-188854366D02*
X172560963Y-189145084D01*
X171911125Y-187359668D01*
X172709863Y-187068950D01*
X173359701Y-188854366D01*
X173359701Y-188854366D01*
G37*
D17*
X172024613Y-188329331D03*
D12*
G36*
X172748901Y-189076680D02*
X171950163Y-189367398D01*
X171300325Y-187581982D01*
X172099063Y-187291264D01*
X172748901Y-189076680D01*
X172748901Y-189076680D01*
G37*
D17*
X171413813Y-188551644D03*
D12*
G36*
X172138101Y-189298993D02*
X171339363Y-189589711D01*
X170689525Y-187804295D01*
X171488263Y-187513577D01*
X172138101Y-189298993D01*
X172138101Y-189298993D01*
G37*
D17*
X170803012Y-188773957D03*
D12*
G36*
X171527300Y-189521306D02*
X170728562Y-189812024D01*
X170078724Y-188026608D01*
X170877462Y-187735890D01*
X171527300Y-189521306D01*
X171527300Y-189521306D01*
G37*
D17*
X170192212Y-188996270D03*
D12*
G36*
X170916500Y-189743619D02*
X170117762Y-190034337D01*
X169467924Y-188248921D01*
X170266662Y-187958203D01*
X170916500Y-189743619D01*
X170916500Y-189743619D01*
G37*
D17*
X169581412Y-189218583D03*
D12*
G36*
X170305700Y-189965932D02*
X169506962Y-190256650D01*
X168857124Y-188471234D01*
X169655862Y-188180516D01*
X170305700Y-189965932D01*
X170305700Y-189965932D01*
G37*
D17*
X168970612Y-189440896D03*
D12*
G36*
X169694900Y-190188245D02*
X168896162Y-190478963D01*
X168246324Y-188693547D01*
X169045062Y-188402829D01*
X169694900Y-190188245D01*
X169694900Y-190188245D01*
G37*
G04 #@! TD*
D20*
G04 #@! TO.C,Q2*
X189749453Y-159740707D03*
X190699453Y-161740707D03*
X188799453Y-161740707D03*
G04 #@! TD*
D12*
G04 #@! TO.C,R1*
G36*
X180911841Y-183385456D02*
X180942540Y-183391458D01*
X180972504Y-183400440D01*
X181001442Y-183412316D01*
X181029077Y-183426971D01*
X181055143Y-183444264D01*
X181079388Y-183464029D01*
X181101579Y-183486076D01*
X181121502Y-183510191D01*
X181138966Y-183536143D01*
X181153802Y-183563681D01*
X181165867Y-183592542D01*
X181175045Y-183622445D01*
X181181248Y-183653105D01*
X181184416Y-183684225D01*
X181217780Y-184320851D01*
X181217883Y-184352131D01*
X181214918Y-184383271D01*
X181208916Y-184413971D01*
X181199934Y-184443934D01*
X181188058Y-184472873D01*
X181173403Y-184500508D01*
X181156109Y-184526573D01*
X181136344Y-184550818D01*
X181114298Y-184573009D01*
X181090183Y-184592933D01*
X181064231Y-184610396D01*
X181036692Y-184625232D01*
X181007832Y-184637297D01*
X180977928Y-184646475D01*
X180947269Y-184652678D01*
X180916149Y-184655846D01*
X180204625Y-184693136D01*
X180173345Y-184693239D01*
X180142205Y-184690274D01*
X180111506Y-184684272D01*
X180081542Y-184675290D01*
X180052604Y-184663414D01*
X180024969Y-184648759D01*
X179998903Y-184631466D01*
X179974658Y-184611701D01*
X179952467Y-184589654D01*
X179932544Y-184565539D01*
X179915080Y-184539587D01*
X179900244Y-184512049D01*
X179888179Y-184483188D01*
X179879001Y-184453285D01*
X179872798Y-184422625D01*
X179869630Y-184391505D01*
X179836266Y-183754879D01*
X179836163Y-183723599D01*
X179839128Y-183692459D01*
X179845130Y-183661759D01*
X179854112Y-183631796D01*
X179865988Y-183602857D01*
X179880643Y-183575222D01*
X179897937Y-183549157D01*
X179917702Y-183524912D01*
X179939748Y-183502721D01*
X179963863Y-183482797D01*
X179989815Y-183465334D01*
X180017354Y-183450498D01*
X180046214Y-183438433D01*
X180076118Y-183429255D01*
X180106777Y-183423052D01*
X180137897Y-183419884D01*
X180849421Y-183382594D01*
X180880701Y-183382491D01*
X180911841Y-183385456D01*
X180911841Y-183385456D01*
G37*
D15*
X180527023Y-184037865D03*
D12*
G36*
X180994271Y-184958298D02*
X181024970Y-184964300D01*
X181054934Y-184973282D01*
X181083872Y-184985158D01*
X181111507Y-184999813D01*
X181137573Y-185017106D01*
X181161818Y-185036871D01*
X181184009Y-185058918D01*
X181203932Y-185083033D01*
X181221396Y-185108985D01*
X181236232Y-185136523D01*
X181248297Y-185165384D01*
X181257475Y-185195287D01*
X181263678Y-185225947D01*
X181266846Y-185257067D01*
X181300210Y-185893693D01*
X181300313Y-185924973D01*
X181297348Y-185956113D01*
X181291346Y-185986813D01*
X181282364Y-186016776D01*
X181270488Y-186045715D01*
X181255833Y-186073350D01*
X181238539Y-186099415D01*
X181218774Y-186123660D01*
X181196728Y-186145851D01*
X181172613Y-186165775D01*
X181146661Y-186183238D01*
X181119122Y-186198074D01*
X181090262Y-186210139D01*
X181060358Y-186219317D01*
X181029699Y-186225520D01*
X180998579Y-186228688D01*
X180287055Y-186265978D01*
X180255775Y-186266081D01*
X180224635Y-186263116D01*
X180193936Y-186257114D01*
X180163972Y-186248132D01*
X180135034Y-186236256D01*
X180107399Y-186221601D01*
X180081333Y-186204308D01*
X180057088Y-186184543D01*
X180034897Y-186162496D01*
X180014974Y-186138381D01*
X179997510Y-186112429D01*
X179982674Y-186084891D01*
X179970609Y-186056030D01*
X179961431Y-186026127D01*
X179955228Y-185995467D01*
X179952060Y-185964347D01*
X179918696Y-185327721D01*
X179918593Y-185296441D01*
X179921558Y-185265301D01*
X179927560Y-185234601D01*
X179936542Y-185204638D01*
X179948418Y-185175699D01*
X179963073Y-185148064D01*
X179980367Y-185121999D01*
X180000132Y-185097754D01*
X180022178Y-185075563D01*
X180046293Y-185055639D01*
X180072245Y-185038176D01*
X180099784Y-185023340D01*
X180128644Y-185011275D01*
X180158548Y-185002097D01*
X180189207Y-184995894D01*
X180220327Y-184992726D01*
X180931851Y-184955436D01*
X180963131Y-184955333D01*
X180994271Y-184958298D01*
X180994271Y-184958298D01*
G37*
D15*
X180609453Y-185610707D03*
G04 #@! TD*
D12*
G04 #@! TO.C,R2*
G36*
X184924446Y-155367242D02*
X184955388Y-155371832D01*
X184985731Y-155379432D01*
X185015183Y-155389970D01*
X185043461Y-155403345D01*
X185070291Y-155419426D01*
X185095416Y-155438060D01*
X185118593Y-155459067D01*
X185139600Y-155482244D01*
X185158234Y-155507369D01*
X185174315Y-155534199D01*
X185187690Y-155562477D01*
X185198228Y-155591929D01*
X185205828Y-155622272D01*
X185210418Y-155653214D01*
X185211953Y-155684457D01*
X185211953Y-156396957D01*
X185210418Y-156428200D01*
X185205828Y-156459142D01*
X185198228Y-156489485D01*
X185187690Y-156518937D01*
X185174315Y-156547215D01*
X185158234Y-156574045D01*
X185139600Y-156599170D01*
X185118593Y-156622347D01*
X185095416Y-156643354D01*
X185070291Y-156661988D01*
X185043461Y-156678069D01*
X185015183Y-156691444D01*
X184985731Y-156701982D01*
X184955388Y-156709582D01*
X184924446Y-156714172D01*
X184893203Y-156715707D01*
X184255703Y-156715707D01*
X184224460Y-156714172D01*
X184193518Y-156709582D01*
X184163175Y-156701982D01*
X184133723Y-156691444D01*
X184105445Y-156678069D01*
X184078615Y-156661988D01*
X184053490Y-156643354D01*
X184030313Y-156622347D01*
X184009306Y-156599170D01*
X183990672Y-156574045D01*
X183974591Y-156547215D01*
X183961216Y-156518937D01*
X183950678Y-156489485D01*
X183943078Y-156459142D01*
X183938488Y-156428200D01*
X183936953Y-156396957D01*
X183936953Y-155684457D01*
X183938488Y-155653214D01*
X183943078Y-155622272D01*
X183950678Y-155591929D01*
X183961216Y-155562477D01*
X183974591Y-155534199D01*
X183990672Y-155507369D01*
X184009306Y-155482244D01*
X184030313Y-155459067D01*
X184053490Y-155438060D01*
X184078615Y-155419426D01*
X184105445Y-155403345D01*
X184133723Y-155389970D01*
X184163175Y-155379432D01*
X184193518Y-155371832D01*
X184224460Y-155367242D01*
X184255703Y-155365707D01*
X184893203Y-155365707D01*
X184924446Y-155367242D01*
X184924446Y-155367242D01*
G37*
D15*
X184574453Y-156040707D03*
D12*
G36*
X186499446Y-155367242D02*
X186530388Y-155371832D01*
X186560731Y-155379432D01*
X186590183Y-155389970D01*
X186618461Y-155403345D01*
X186645291Y-155419426D01*
X186670416Y-155438060D01*
X186693593Y-155459067D01*
X186714600Y-155482244D01*
X186733234Y-155507369D01*
X186749315Y-155534199D01*
X186762690Y-155562477D01*
X186773228Y-155591929D01*
X186780828Y-155622272D01*
X186785418Y-155653214D01*
X186786953Y-155684457D01*
X186786953Y-156396957D01*
X186785418Y-156428200D01*
X186780828Y-156459142D01*
X186773228Y-156489485D01*
X186762690Y-156518937D01*
X186749315Y-156547215D01*
X186733234Y-156574045D01*
X186714600Y-156599170D01*
X186693593Y-156622347D01*
X186670416Y-156643354D01*
X186645291Y-156661988D01*
X186618461Y-156678069D01*
X186590183Y-156691444D01*
X186560731Y-156701982D01*
X186530388Y-156709582D01*
X186499446Y-156714172D01*
X186468203Y-156715707D01*
X185830703Y-156715707D01*
X185799460Y-156714172D01*
X185768518Y-156709582D01*
X185738175Y-156701982D01*
X185708723Y-156691444D01*
X185680445Y-156678069D01*
X185653615Y-156661988D01*
X185628490Y-156643354D01*
X185605313Y-156622347D01*
X185584306Y-156599170D01*
X185565672Y-156574045D01*
X185549591Y-156547215D01*
X185536216Y-156518937D01*
X185525678Y-156489485D01*
X185518078Y-156459142D01*
X185513488Y-156428200D01*
X185511953Y-156396957D01*
X185511953Y-155684457D01*
X185513488Y-155653214D01*
X185518078Y-155622272D01*
X185525678Y-155591929D01*
X185536216Y-155562477D01*
X185549591Y-155534199D01*
X185565672Y-155507369D01*
X185584306Y-155482244D01*
X185605313Y-155459067D01*
X185628490Y-155438060D01*
X185653615Y-155419426D01*
X185680445Y-155403345D01*
X185708723Y-155389970D01*
X185738175Y-155379432D01*
X185768518Y-155371832D01*
X185799460Y-155367242D01*
X185830703Y-155365707D01*
X186468203Y-155365707D01*
X186499446Y-155367242D01*
X186499446Y-155367242D01*
G37*
D15*
X186149453Y-156040707D03*
G04 #@! TD*
D12*
G04 #@! TO.C,R3*
G36*
X184911946Y-156967242D02*
X184942888Y-156971832D01*
X184973231Y-156979432D01*
X185002683Y-156989970D01*
X185030961Y-157003345D01*
X185057791Y-157019426D01*
X185082916Y-157038060D01*
X185106093Y-157059067D01*
X185127100Y-157082244D01*
X185145734Y-157107369D01*
X185161815Y-157134199D01*
X185175190Y-157162477D01*
X185185728Y-157191929D01*
X185193328Y-157222272D01*
X185197918Y-157253214D01*
X185199453Y-157284457D01*
X185199453Y-157996957D01*
X185197918Y-158028200D01*
X185193328Y-158059142D01*
X185185728Y-158089485D01*
X185175190Y-158118937D01*
X185161815Y-158147215D01*
X185145734Y-158174045D01*
X185127100Y-158199170D01*
X185106093Y-158222347D01*
X185082916Y-158243354D01*
X185057791Y-158261988D01*
X185030961Y-158278069D01*
X185002683Y-158291444D01*
X184973231Y-158301982D01*
X184942888Y-158309582D01*
X184911946Y-158314172D01*
X184880703Y-158315707D01*
X184243203Y-158315707D01*
X184211960Y-158314172D01*
X184181018Y-158309582D01*
X184150675Y-158301982D01*
X184121223Y-158291444D01*
X184092945Y-158278069D01*
X184066115Y-158261988D01*
X184040990Y-158243354D01*
X184017813Y-158222347D01*
X183996806Y-158199170D01*
X183978172Y-158174045D01*
X183962091Y-158147215D01*
X183948716Y-158118937D01*
X183938178Y-158089485D01*
X183930578Y-158059142D01*
X183925988Y-158028200D01*
X183924453Y-157996957D01*
X183924453Y-157284457D01*
X183925988Y-157253214D01*
X183930578Y-157222272D01*
X183938178Y-157191929D01*
X183948716Y-157162477D01*
X183962091Y-157134199D01*
X183978172Y-157107369D01*
X183996806Y-157082244D01*
X184017813Y-157059067D01*
X184040990Y-157038060D01*
X184066115Y-157019426D01*
X184092945Y-157003345D01*
X184121223Y-156989970D01*
X184150675Y-156979432D01*
X184181018Y-156971832D01*
X184211960Y-156967242D01*
X184243203Y-156965707D01*
X184880703Y-156965707D01*
X184911946Y-156967242D01*
X184911946Y-156967242D01*
G37*
D15*
X184561953Y-157640707D03*
D12*
G36*
X186486946Y-156967242D02*
X186517888Y-156971832D01*
X186548231Y-156979432D01*
X186577683Y-156989970D01*
X186605961Y-157003345D01*
X186632791Y-157019426D01*
X186657916Y-157038060D01*
X186681093Y-157059067D01*
X186702100Y-157082244D01*
X186720734Y-157107369D01*
X186736815Y-157134199D01*
X186750190Y-157162477D01*
X186760728Y-157191929D01*
X186768328Y-157222272D01*
X186772918Y-157253214D01*
X186774453Y-157284457D01*
X186774453Y-157996957D01*
X186772918Y-158028200D01*
X186768328Y-158059142D01*
X186760728Y-158089485D01*
X186750190Y-158118937D01*
X186736815Y-158147215D01*
X186720734Y-158174045D01*
X186702100Y-158199170D01*
X186681093Y-158222347D01*
X186657916Y-158243354D01*
X186632791Y-158261988D01*
X186605961Y-158278069D01*
X186577683Y-158291444D01*
X186548231Y-158301982D01*
X186517888Y-158309582D01*
X186486946Y-158314172D01*
X186455703Y-158315707D01*
X185818203Y-158315707D01*
X185786960Y-158314172D01*
X185756018Y-158309582D01*
X185725675Y-158301982D01*
X185696223Y-158291444D01*
X185667945Y-158278069D01*
X185641115Y-158261988D01*
X185615990Y-158243354D01*
X185592813Y-158222347D01*
X185571806Y-158199170D01*
X185553172Y-158174045D01*
X185537091Y-158147215D01*
X185523716Y-158118937D01*
X185513178Y-158089485D01*
X185505578Y-158059142D01*
X185500988Y-158028200D01*
X185499453Y-157996957D01*
X185499453Y-157284457D01*
X185500988Y-157253214D01*
X185505578Y-157222272D01*
X185513178Y-157191929D01*
X185523716Y-157162477D01*
X185537091Y-157134199D01*
X185553172Y-157107369D01*
X185571806Y-157082244D01*
X185592813Y-157059067D01*
X185615990Y-157038060D01*
X185641115Y-157019426D01*
X185667945Y-157003345D01*
X185696223Y-156989970D01*
X185725675Y-156979432D01*
X185756018Y-156971832D01*
X185786960Y-156967242D01*
X185818203Y-156965707D01*
X186455703Y-156965707D01*
X186486946Y-156967242D01*
X186486946Y-156967242D01*
G37*
D15*
X186136953Y-157640707D03*
G04 #@! TD*
D12*
G04 #@! TO.C,R4*
G36*
X191446946Y-182662242D02*
X191477888Y-182666832D01*
X191508231Y-182674432D01*
X191537683Y-182684970D01*
X191565961Y-182698345D01*
X191592791Y-182714426D01*
X191617916Y-182733060D01*
X191641093Y-182754067D01*
X191662100Y-182777244D01*
X191680734Y-182802369D01*
X191696815Y-182829199D01*
X191710190Y-182857477D01*
X191720728Y-182886929D01*
X191728328Y-182917272D01*
X191732918Y-182948214D01*
X191734453Y-182979457D01*
X191734453Y-183616957D01*
X191732918Y-183648200D01*
X191728328Y-183679142D01*
X191720728Y-183709485D01*
X191710190Y-183738937D01*
X191696815Y-183767215D01*
X191680734Y-183794045D01*
X191662100Y-183819170D01*
X191641093Y-183842347D01*
X191617916Y-183863354D01*
X191592791Y-183881988D01*
X191565961Y-183898069D01*
X191537683Y-183911444D01*
X191508231Y-183921982D01*
X191477888Y-183929582D01*
X191446946Y-183934172D01*
X191415703Y-183935707D01*
X190703203Y-183935707D01*
X190671960Y-183934172D01*
X190641018Y-183929582D01*
X190610675Y-183921982D01*
X190581223Y-183911444D01*
X190552945Y-183898069D01*
X190526115Y-183881988D01*
X190500990Y-183863354D01*
X190477813Y-183842347D01*
X190456806Y-183819170D01*
X190438172Y-183794045D01*
X190422091Y-183767215D01*
X190408716Y-183738937D01*
X190398178Y-183709485D01*
X190390578Y-183679142D01*
X190385988Y-183648200D01*
X190384453Y-183616957D01*
X190384453Y-182979457D01*
X190385988Y-182948214D01*
X190390578Y-182917272D01*
X190398178Y-182886929D01*
X190408716Y-182857477D01*
X190422091Y-182829199D01*
X190438172Y-182802369D01*
X190456806Y-182777244D01*
X190477813Y-182754067D01*
X190500990Y-182733060D01*
X190526115Y-182714426D01*
X190552945Y-182698345D01*
X190581223Y-182684970D01*
X190610675Y-182674432D01*
X190641018Y-182666832D01*
X190671960Y-182662242D01*
X190703203Y-182660707D01*
X191415703Y-182660707D01*
X191446946Y-182662242D01*
X191446946Y-182662242D01*
G37*
D15*
X191059453Y-183298207D03*
D12*
G36*
X191446946Y-181087242D02*
X191477888Y-181091832D01*
X191508231Y-181099432D01*
X191537683Y-181109970D01*
X191565961Y-181123345D01*
X191592791Y-181139426D01*
X191617916Y-181158060D01*
X191641093Y-181179067D01*
X191662100Y-181202244D01*
X191680734Y-181227369D01*
X191696815Y-181254199D01*
X191710190Y-181282477D01*
X191720728Y-181311929D01*
X191728328Y-181342272D01*
X191732918Y-181373214D01*
X191734453Y-181404457D01*
X191734453Y-182041957D01*
X191732918Y-182073200D01*
X191728328Y-182104142D01*
X191720728Y-182134485D01*
X191710190Y-182163937D01*
X191696815Y-182192215D01*
X191680734Y-182219045D01*
X191662100Y-182244170D01*
X191641093Y-182267347D01*
X191617916Y-182288354D01*
X191592791Y-182306988D01*
X191565961Y-182323069D01*
X191537683Y-182336444D01*
X191508231Y-182346982D01*
X191477888Y-182354582D01*
X191446946Y-182359172D01*
X191415703Y-182360707D01*
X190703203Y-182360707D01*
X190671960Y-182359172D01*
X190641018Y-182354582D01*
X190610675Y-182346982D01*
X190581223Y-182336444D01*
X190552945Y-182323069D01*
X190526115Y-182306988D01*
X190500990Y-182288354D01*
X190477813Y-182267347D01*
X190456806Y-182244170D01*
X190438172Y-182219045D01*
X190422091Y-182192215D01*
X190408716Y-182163937D01*
X190398178Y-182134485D01*
X190390578Y-182104142D01*
X190385988Y-182073200D01*
X190384453Y-182041957D01*
X190384453Y-181404457D01*
X190385988Y-181373214D01*
X190390578Y-181342272D01*
X190398178Y-181311929D01*
X190408716Y-181282477D01*
X190422091Y-181254199D01*
X190438172Y-181227369D01*
X190456806Y-181202244D01*
X190477813Y-181179067D01*
X190500990Y-181158060D01*
X190526115Y-181139426D01*
X190552945Y-181123345D01*
X190581223Y-181109970D01*
X190610675Y-181099432D01*
X190641018Y-181091832D01*
X190671960Y-181087242D01*
X190703203Y-181085707D01*
X191415703Y-181085707D01*
X191446946Y-181087242D01*
X191446946Y-181087242D01*
G37*
D15*
X191059453Y-181723207D03*
G04 #@! TD*
D12*
G04 #@! TO.C,R5*
G36*
X176467893Y-194596099D02*
X176498693Y-194601565D01*
X176528808Y-194610023D01*
X176557949Y-194621392D01*
X176585836Y-194635563D01*
X176612200Y-194652399D01*
X176636786Y-194671737D01*
X176659358Y-194693393D01*
X176679699Y-194717157D01*
X176697613Y-194742800D01*
X176712927Y-194770076D01*
X176725494Y-194798721D01*
X176735193Y-194828460D01*
X176741930Y-194859007D01*
X176745641Y-194890066D01*
X176790111Y-195526013D01*
X176790759Y-195557287D01*
X176788339Y-195588474D01*
X176782873Y-195619273D01*
X176774415Y-195649389D01*
X176763046Y-195678530D01*
X176748875Y-195706417D01*
X176732040Y-195732780D01*
X176712701Y-195757367D01*
X176691045Y-195779939D01*
X176667281Y-195800280D01*
X176641638Y-195818194D01*
X176614363Y-195833508D01*
X176585717Y-195846075D01*
X176555978Y-195855774D01*
X176525432Y-195862511D01*
X176494372Y-195866222D01*
X175783608Y-195915923D01*
X175752334Y-195916571D01*
X175721147Y-195914151D01*
X175690347Y-195908685D01*
X175660232Y-195900227D01*
X175631091Y-195888858D01*
X175603204Y-195874687D01*
X175576840Y-195857851D01*
X175552254Y-195838513D01*
X175529682Y-195816857D01*
X175509341Y-195793093D01*
X175491427Y-195767450D01*
X175476113Y-195740174D01*
X175463546Y-195711529D01*
X175453847Y-195681790D01*
X175447110Y-195651243D01*
X175443399Y-195620184D01*
X175398929Y-194984237D01*
X175398281Y-194952963D01*
X175400701Y-194921776D01*
X175406167Y-194890977D01*
X175414625Y-194860861D01*
X175425994Y-194831720D01*
X175440165Y-194803833D01*
X175457000Y-194777470D01*
X175476339Y-194752883D01*
X175497995Y-194730311D01*
X175521759Y-194709970D01*
X175547402Y-194692056D01*
X175574677Y-194676742D01*
X175603323Y-194664175D01*
X175633062Y-194654476D01*
X175663608Y-194647739D01*
X175694668Y-194644028D01*
X176405432Y-194594327D01*
X176436706Y-194593679D01*
X176467893Y-194596099D01*
X176467893Y-194596099D01*
G37*
D15*
X176094520Y-195255125D03*
D12*
G36*
X176577759Y-196167263D02*
X176608559Y-196172729D01*
X176638674Y-196181187D01*
X176667815Y-196192556D01*
X176695702Y-196206727D01*
X176722066Y-196223563D01*
X176746652Y-196242901D01*
X176769224Y-196264557D01*
X176789565Y-196288321D01*
X176807479Y-196313964D01*
X176822793Y-196341240D01*
X176835360Y-196369885D01*
X176845059Y-196399624D01*
X176851796Y-196430171D01*
X176855507Y-196461230D01*
X176899977Y-197097177D01*
X176900625Y-197128451D01*
X176898205Y-197159638D01*
X176892739Y-197190437D01*
X176884281Y-197220553D01*
X176872912Y-197249694D01*
X176858741Y-197277581D01*
X176841906Y-197303944D01*
X176822567Y-197328531D01*
X176800911Y-197351103D01*
X176777147Y-197371444D01*
X176751504Y-197389358D01*
X176724229Y-197404672D01*
X176695583Y-197417239D01*
X176665844Y-197426938D01*
X176635298Y-197433675D01*
X176604238Y-197437386D01*
X175893474Y-197487087D01*
X175862200Y-197487735D01*
X175831013Y-197485315D01*
X175800213Y-197479849D01*
X175770098Y-197471391D01*
X175740957Y-197460022D01*
X175713070Y-197445851D01*
X175686706Y-197429015D01*
X175662120Y-197409677D01*
X175639548Y-197388021D01*
X175619207Y-197364257D01*
X175601293Y-197338614D01*
X175585979Y-197311338D01*
X175573412Y-197282693D01*
X175563713Y-197252954D01*
X175556976Y-197222407D01*
X175553265Y-197191348D01*
X175508795Y-196555401D01*
X175508147Y-196524127D01*
X175510567Y-196492940D01*
X175516033Y-196462141D01*
X175524491Y-196432025D01*
X175535860Y-196402884D01*
X175550031Y-196374997D01*
X175566866Y-196348634D01*
X175586205Y-196324047D01*
X175607861Y-196301475D01*
X175631625Y-196281134D01*
X175657268Y-196263220D01*
X175684543Y-196247906D01*
X175713189Y-196235339D01*
X175742928Y-196225640D01*
X175773474Y-196218903D01*
X175804534Y-196215192D01*
X176515298Y-196165491D01*
X176546572Y-196164843D01*
X176577759Y-196167263D01*
X176577759Y-196167263D01*
G37*
D15*
X176204386Y-196826289D03*
G04 #@! TD*
D12*
G04 #@! TO.C,R6*
G36*
X183324446Y-170267242D02*
X183355388Y-170271832D01*
X183385731Y-170279432D01*
X183415183Y-170289970D01*
X183443461Y-170303345D01*
X183470291Y-170319426D01*
X183495416Y-170338060D01*
X183518593Y-170359067D01*
X183539600Y-170382244D01*
X183558234Y-170407369D01*
X183574315Y-170434199D01*
X183587690Y-170462477D01*
X183598228Y-170491929D01*
X183605828Y-170522272D01*
X183610418Y-170553214D01*
X183611953Y-170584457D01*
X183611953Y-171296957D01*
X183610418Y-171328200D01*
X183605828Y-171359142D01*
X183598228Y-171389485D01*
X183587690Y-171418937D01*
X183574315Y-171447215D01*
X183558234Y-171474045D01*
X183539600Y-171499170D01*
X183518593Y-171522347D01*
X183495416Y-171543354D01*
X183470291Y-171561988D01*
X183443461Y-171578069D01*
X183415183Y-171591444D01*
X183385731Y-171601982D01*
X183355388Y-171609582D01*
X183324446Y-171614172D01*
X183293203Y-171615707D01*
X182655703Y-171615707D01*
X182624460Y-171614172D01*
X182593518Y-171609582D01*
X182563175Y-171601982D01*
X182533723Y-171591444D01*
X182505445Y-171578069D01*
X182478615Y-171561988D01*
X182453490Y-171543354D01*
X182430313Y-171522347D01*
X182409306Y-171499170D01*
X182390672Y-171474045D01*
X182374591Y-171447215D01*
X182361216Y-171418937D01*
X182350678Y-171389485D01*
X182343078Y-171359142D01*
X182338488Y-171328200D01*
X182336953Y-171296957D01*
X182336953Y-170584457D01*
X182338488Y-170553214D01*
X182343078Y-170522272D01*
X182350678Y-170491929D01*
X182361216Y-170462477D01*
X182374591Y-170434199D01*
X182390672Y-170407369D01*
X182409306Y-170382244D01*
X182430313Y-170359067D01*
X182453490Y-170338060D01*
X182478615Y-170319426D01*
X182505445Y-170303345D01*
X182533723Y-170289970D01*
X182563175Y-170279432D01*
X182593518Y-170271832D01*
X182624460Y-170267242D01*
X182655703Y-170265707D01*
X183293203Y-170265707D01*
X183324446Y-170267242D01*
X183324446Y-170267242D01*
G37*
D15*
X182974453Y-170940707D03*
D12*
G36*
X184899446Y-170267242D02*
X184930388Y-170271832D01*
X184960731Y-170279432D01*
X184990183Y-170289970D01*
X185018461Y-170303345D01*
X185045291Y-170319426D01*
X185070416Y-170338060D01*
X185093593Y-170359067D01*
X185114600Y-170382244D01*
X185133234Y-170407369D01*
X185149315Y-170434199D01*
X185162690Y-170462477D01*
X185173228Y-170491929D01*
X185180828Y-170522272D01*
X185185418Y-170553214D01*
X185186953Y-170584457D01*
X185186953Y-171296957D01*
X185185418Y-171328200D01*
X185180828Y-171359142D01*
X185173228Y-171389485D01*
X185162690Y-171418937D01*
X185149315Y-171447215D01*
X185133234Y-171474045D01*
X185114600Y-171499170D01*
X185093593Y-171522347D01*
X185070416Y-171543354D01*
X185045291Y-171561988D01*
X185018461Y-171578069D01*
X184990183Y-171591444D01*
X184960731Y-171601982D01*
X184930388Y-171609582D01*
X184899446Y-171614172D01*
X184868203Y-171615707D01*
X184230703Y-171615707D01*
X184199460Y-171614172D01*
X184168518Y-171609582D01*
X184138175Y-171601982D01*
X184108723Y-171591444D01*
X184080445Y-171578069D01*
X184053615Y-171561988D01*
X184028490Y-171543354D01*
X184005313Y-171522347D01*
X183984306Y-171499170D01*
X183965672Y-171474045D01*
X183949591Y-171447215D01*
X183936216Y-171418937D01*
X183925678Y-171389485D01*
X183918078Y-171359142D01*
X183913488Y-171328200D01*
X183911953Y-171296957D01*
X183911953Y-170584457D01*
X183913488Y-170553214D01*
X183918078Y-170522272D01*
X183925678Y-170491929D01*
X183936216Y-170462477D01*
X183949591Y-170434199D01*
X183965672Y-170407369D01*
X183984306Y-170382244D01*
X184005313Y-170359067D01*
X184028490Y-170338060D01*
X184053615Y-170319426D01*
X184080445Y-170303345D01*
X184108723Y-170289970D01*
X184138175Y-170279432D01*
X184168518Y-170271832D01*
X184199460Y-170267242D01*
X184230703Y-170265707D01*
X184868203Y-170265707D01*
X184899446Y-170267242D01*
X184899446Y-170267242D01*
G37*
D15*
X184549453Y-170940707D03*
G04 #@! TD*
D12*
G04 #@! TO.C,R7*
G36*
X175411946Y-153817242D02*
X175442888Y-153821832D01*
X175473231Y-153829432D01*
X175502683Y-153839970D01*
X175530961Y-153853345D01*
X175557791Y-153869426D01*
X175582916Y-153888060D01*
X175606093Y-153909067D01*
X175627100Y-153932244D01*
X175645734Y-153957369D01*
X175661815Y-153984199D01*
X175675190Y-154012477D01*
X175685728Y-154041929D01*
X175693328Y-154072272D01*
X175697918Y-154103214D01*
X175699453Y-154134457D01*
X175699453Y-154846957D01*
X175697918Y-154878200D01*
X175693328Y-154909142D01*
X175685728Y-154939485D01*
X175675190Y-154968937D01*
X175661815Y-154997215D01*
X175645734Y-155024045D01*
X175627100Y-155049170D01*
X175606093Y-155072347D01*
X175582916Y-155093354D01*
X175557791Y-155111988D01*
X175530961Y-155128069D01*
X175502683Y-155141444D01*
X175473231Y-155151982D01*
X175442888Y-155159582D01*
X175411946Y-155164172D01*
X175380703Y-155165707D01*
X174743203Y-155165707D01*
X174711960Y-155164172D01*
X174681018Y-155159582D01*
X174650675Y-155151982D01*
X174621223Y-155141444D01*
X174592945Y-155128069D01*
X174566115Y-155111988D01*
X174540990Y-155093354D01*
X174517813Y-155072347D01*
X174496806Y-155049170D01*
X174478172Y-155024045D01*
X174462091Y-154997215D01*
X174448716Y-154968937D01*
X174438178Y-154939485D01*
X174430578Y-154909142D01*
X174425988Y-154878200D01*
X174424453Y-154846957D01*
X174424453Y-154134457D01*
X174425988Y-154103214D01*
X174430578Y-154072272D01*
X174438178Y-154041929D01*
X174448716Y-154012477D01*
X174462091Y-153984199D01*
X174478172Y-153957369D01*
X174496806Y-153932244D01*
X174517813Y-153909067D01*
X174540990Y-153888060D01*
X174566115Y-153869426D01*
X174592945Y-153853345D01*
X174621223Y-153839970D01*
X174650675Y-153829432D01*
X174681018Y-153821832D01*
X174711960Y-153817242D01*
X174743203Y-153815707D01*
X175380703Y-153815707D01*
X175411946Y-153817242D01*
X175411946Y-153817242D01*
G37*
D15*
X175061953Y-154490707D03*
D12*
G36*
X176986946Y-153817242D02*
X177017888Y-153821832D01*
X177048231Y-153829432D01*
X177077683Y-153839970D01*
X177105961Y-153853345D01*
X177132791Y-153869426D01*
X177157916Y-153888060D01*
X177181093Y-153909067D01*
X177202100Y-153932244D01*
X177220734Y-153957369D01*
X177236815Y-153984199D01*
X177250190Y-154012477D01*
X177260728Y-154041929D01*
X177268328Y-154072272D01*
X177272918Y-154103214D01*
X177274453Y-154134457D01*
X177274453Y-154846957D01*
X177272918Y-154878200D01*
X177268328Y-154909142D01*
X177260728Y-154939485D01*
X177250190Y-154968937D01*
X177236815Y-154997215D01*
X177220734Y-155024045D01*
X177202100Y-155049170D01*
X177181093Y-155072347D01*
X177157916Y-155093354D01*
X177132791Y-155111988D01*
X177105961Y-155128069D01*
X177077683Y-155141444D01*
X177048231Y-155151982D01*
X177017888Y-155159582D01*
X176986946Y-155164172D01*
X176955703Y-155165707D01*
X176318203Y-155165707D01*
X176286960Y-155164172D01*
X176256018Y-155159582D01*
X176225675Y-155151982D01*
X176196223Y-155141444D01*
X176167945Y-155128069D01*
X176141115Y-155111988D01*
X176115990Y-155093354D01*
X176092813Y-155072347D01*
X176071806Y-155049170D01*
X176053172Y-155024045D01*
X176037091Y-154997215D01*
X176023716Y-154968937D01*
X176013178Y-154939485D01*
X176005578Y-154909142D01*
X176000988Y-154878200D01*
X175999453Y-154846957D01*
X175999453Y-154134457D01*
X176000988Y-154103214D01*
X176005578Y-154072272D01*
X176013178Y-154041929D01*
X176023716Y-154012477D01*
X176037091Y-153984199D01*
X176053172Y-153957369D01*
X176071806Y-153932244D01*
X176092813Y-153909067D01*
X176115990Y-153888060D01*
X176141115Y-153869426D01*
X176167945Y-153853345D01*
X176196223Y-153839970D01*
X176225675Y-153829432D01*
X176256018Y-153821832D01*
X176286960Y-153817242D01*
X176318203Y-153815707D01*
X176955703Y-153815707D01*
X176986946Y-153817242D01*
X176986946Y-153817242D01*
G37*
D15*
X176636953Y-154490707D03*
G04 #@! TD*
D12*
G04 #@! TO.C,R8*
G36*
X190636946Y-133304742D02*
X190667888Y-133309332D01*
X190698231Y-133316932D01*
X190727683Y-133327470D01*
X190755961Y-133340845D01*
X190782791Y-133356926D01*
X190807916Y-133375560D01*
X190831093Y-133396567D01*
X190852100Y-133419744D01*
X190870734Y-133444869D01*
X190886815Y-133471699D01*
X190900190Y-133499977D01*
X190910728Y-133529429D01*
X190918328Y-133559772D01*
X190922918Y-133590714D01*
X190924453Y-133621957D01*
X190924453Y-134259457D01*
X190922918Y-134290700D01*
X190918328Y-134321642D01*
X190910728Y-134351985D01*
X190900190Y-134381437D01*
X190886815Y-134409715D01*
X190870734Y-134436545D01*
X190852100Y-134461670D01*
X190831093Y-134484847D01*
X190807916Y-134505854D01*
X190782791Y-134524488D01*
X190755961Y-134540569D01*
X190727683Y-134553944D01*
X190698231Y-134564482D01*
X190667888Y-134572082D01*
X190636946Y-134576672D01*
X190605703Y-134578207D01*
X189893203Y-134578207D01*
X189861960Y-134576672D01*
X189831018Y-134572082D01*
X189800675Y-134564482D01*
X189771223Y-134553944D01*
X189742945Y-134540569D01*
X189716115Y-134524488D01*
X189690990Y-134505854D01*
X189667813Y-134484847D01*
X189646806Y-134461670D01*
X189628172Y-134436545D01*
X189612091Y-134409715D01*
X189598716Y-134381437D01*
X189588178Y-134351985D01*
X189580578Y-134321642D01*
X189575988Y-134290700D01*
X189574453Y-134259457D01*
X189574453Y-133621957D01*
X189575988Y-133590714D01*
X189580578Y-133559772D01*
X189588178Y-133529429D01*
X189598716Y-133499977D01*
X189612091Y-133471699D01*
X189628172Y-133444869D01*
X189646806Y-133419744D01*
X189667813Y-133396567D01*
X189690990Y-133375560D01*
X189716115Y-133356926D01*
X189742945Y-133340845D01*
X189771223Y-133327470D01*
X189800675Y-133316932D01*
X189831018Y-133309332D01*
X189861960Y-133304742D01*
X189893203Y-133303207D01*
X190605703Y-133303207D01*
X190636946Y-133304742D01*
X190636946Y-133304742D01*
G37*
D15*
X190249453Y-133940707D03*
D12*
G36*
X190636946Y-134879742D02*
X190667888Y-134884332D01*
X190698231Y-134891932D01*
X190727683Y-134902470D01*
X190755961Y-134915845D01*
X190782791Y-134931926D01*
X190807916Y-134950560D01*
X190831093Y-134971567D01*
X190852100Y-134994744D01*
X190870734Y-135019869D01*
X190886815Y-135046699D01*
X190900190Y-135074977D01*
X190910728Y-135104429D01*
X190918328Y-135134772D01*
X190922918Y-135165714D01*
X190924453Y-135196957D01*
X190924453Y-135834457D01*
X190922918Y-135865700D01*
X190918328Y-135896642D01*
X190910728Y-135926985D01*
X190900190Y-135956437D01*
X190886815Y-135984715D01*
X190870734Y-136011545D01*
X190852100Y-136036670D01*
X190831093Y-136059847D01*
X190807916Y-136080854D01*
X190782791Y-136099488D01*
X190755961Y-136115569D01*
X190727683Y-136128944D01*
X190698231Y-136139482D01*
X190667888Y-136147082D01*
X190636946Y-136151672D01*
X190605703Y-136153207D01*
X189893203Y-136153207D01*
X189861960Y-136151672D01*
X189831018Y-136147082D01*
X189800675Y-136139482D01*
X189771223Y-136128944D01*
X189742945Y-136115569D01*
X189716115Y-136099488D01*
X189690990Y-136080854D01*
X189667813Y-136059847D01*
X189646806Y-136036670D01*
X189628172Y-136011545D01*
X189612091Y-135984715D01*
X189598716Y-135956437D01*
X189588178Y-135926985D01*
X189580578Y-135896642D01*
X189575988Y-135865700D01*
X189574453Y-135834457D01*
X189574453Y-135196957D01*
X189575988Y-135165714D01*
X189580578Y-135134772D01*
X189588178Y-135104429D01*
X189598716Y-135074977D01*
X189612091Y-135046699D01*
X189628172Y-135019869D01*
X189646806Y-134994744D01*
X189667813Y-134971567D01*
X189690990Y-134950560D01*
X189716115Y-134931926D01*
X189742945Y-134915845D01*
X189771223Y-134902470D01*
X189800675Y-134891932D01*
X189831018Y-134884332D01*
X189861960Y-134879742D01*
X189893203Y-134878207D01*
X190605703Y-134878207D01*
X190636946Y-134879742D01*
X190636946Y-134879742D01*
G37*
D15*
X190249453Y-135515707D03*
G04 #@! TD*
D12*
G04 #@! TO.C,R9*
G36*
X193636946Y-133317242D02*
X193667888Y-133321832D01*
X193698231Y-133329432D01*
X193727683Y-133339970D01*
X193755961Y-133353345D01*
X193782791Y-133369426D01*
X193807916Y-133388060D01*
X193831093Y-133409067D01*
X193852100Y-133432244D01*
X193870734Y-133457369D01*
X193886815Y-133484199D01*
X193900190Y-133512477D01*
X193910728Y-133541929D01*
X193918328Y-133572272D01*
X193922918Y-133603214D01*
X193924453Y-133634457D01*
X193924453Y-134271957D01*
X193922918Y-134303200D01*
X193918328Y-134334142D01*
X193910728Y-134364485D01*
X193900190Y-134393937D01*
X193886815Y-134422215D01*
X193870734Y-134449045D01*
X193852100Y-134474170D01*
X193831093Y-134497347D01*
X193807916Y-134518354D01*
X193782791Y-134536988D01*
X193755961Y-134553069D01*
X193727683Y-134566444D01*
X193698231Y-134576982D01*
X193667888Y-134584582D01*
X193636946Y-134589172D01*
X193605703Y-134590707D01*
X192893203Y-134590707D01*
X192861960Y-134589172D01*
X192831018Y-134584582D01*
X192800675Y-134576982D01*
X192771223Y-134566444D01*
X192742945Y-134553069D01*
X192716115Y-134536988D01*
X192690990Y-134518354D01*
X192667813Y-134497347D01*
X192646806Y-134474170D01*
X192628172Y-134449045D01*
X192612091Y-134422215D01*
X192598716Y-134393937D01*
X192588178Y-134364485D01*
X192580578Y-134334142D01*
X192575988Y-134303200D01*
X192574453Y-134271957D01*
X192574453Y-133634457D01*
X192575988Y-133603214D01*
X192580578Y-133572272D01*
X192588178Y-133541929D01*
X192598716Y-133512477D01*
X192612091Y-133484199D01*
X192628172Y-133457369D01*
X192646806Y-133432244D01*
X192667813Y-133409067D01*
X192690990Y-133388060D01*
X192716115Y-133369426D01*
X192742945Y-133353345D01*
X192771223Y-133339970D01*
X192800675Y-133329432D01*
X192831018Y-133321832D01*
X192861960Y-133317242D01*
X192893203Y-133315707D01*
X193605703Y-133315707D01*
X193636946Y-133317242D01*
X193636946Y-133317242D01*
G37*
D15*
X193249453Y-133953207D03*
D12*
G36*
X193636946Y-134892242D02*
X193667888Y-134896832D01*
X193698231Y-134904432D01*
X193727683Y-134914970D01*
X193755961Y-134928345D01*
X193782791Y-134944426D01*
X193807916Y-134963060D01*
X193831093Y-134984067D01*
X193852100Y-135007244D01*
X193870734Y-135032369D01*
X193886815Y-135059199D01*
X193900190Y-135087477D01*
X193910728Y-135116929D01*
X193918328Y-135147272D01*
X193922918Y-135178214D01*
X193924453Y-135209457D01*
X193924453Y-135846957D01*
X193922918Y-135878200D01*
X193918328Y-135909142D01*
X193910728Y-135939485D01*
X193900190Y-135968937D01*
X193886815Y-135997215D01*
X193870734Y-136024045D01*
X193852100Y-136049170D01*
X193831093Y-136072347D01*
X193807916Y-136093354D01*
X193782791Y-136111988D01*
X193755961Y-136128069D01*
X193727683Y-136141444D01*
X193698231Y-136151982D01*
X193667888Y-136159582D01*
X193636946Y-136164172D01*
X193605703Y-136165707D01*
X192893203Y-136165707D01*
X192861960Y-136164172D01*
X192831018Y-136159582D01*
X192800675Y-136151982D01*
X192771223Y-136141444D01*
X192742945Y-136128069D01*
X192716115Y-136111988D01*
X192690990Y-136093354D01*
X192667813Y-136072347D01*
X192646806Y-136049170D01*
X192628172Y-136024045D01*
X192612091Y-135997215D01*
X192598716Y-135968937D01*
X192588178Y-135939485D01*
X192580578Y-135909142D01*
X192575988Y-135878200D01*
X192574453Y-135846957D01*
X192574453Y-135209457D01*
X192575988Y-135178214D01*
X192580578Y-135147272D01*
X192588178Y-135116929D01*
X192598716Y-135087477D01*
X192612091Y-135059199D01*
X192628172Y-135032369D01*
X192646806Y-135007244D01*
X192667813Y-134984067D01*
X192690990Y-134963060D01*
X192716115Y-134944426D01*
X192742945Y-134928345D01*
X192771223Y-134914970D01*
X192800675Y-134904432D01*
X192831018Y-134896832D01*
X192861960Y-134892242D01*
X192893203Y-134890707D01*
X193605703Y-134890707D01*
X193636946Y-134892242D01*
X193636946Y-134892242D01*
G37*
D15*
X193249453Y-135528207D03*
G04 #@! TD*
D12*
G04 #@! TO.C,R10*
G36*
X187777446Y-178209242D02*
X187808388Y-178213832D01*
X187838731Y-178221432D01*
X187868183Y-178231970D01*
X187896461Y-178245345D01*
X187923291Y-178261426D01*
X187948416Y-178280060D01*
X187971593Y-178301067D01*
X187992600Y-178324244D01*
X188011234Y-178349369D01*
X188027315Y-178376199D01*
X188040690Y-178404477D01*
X188051228Y-178433929D01*
X188058828Y-178464272D01*
X188063418Y-178495214D01*
X188064953Y-178526457D01*
X188064953Y-179238957D01*
X188063418Y-179270200D01*
X188058828Y-179301142D01*
X188051228Y-179331485D01*
X188040690Y-179360937D01*
X188027315Y-179389215D01*
X188011234Y-179416045D01*
X187992600Y-179441170D01*
X187971593Y-179464347D01*
X187948416Y-179485354D01*
X187923291Y-179503988D01*
X187896461Y-179520069D01*
X187868183Y-179533444D01*
X187838731Y-179543982D01*
X187808388Y-179551582D01*
X187777446Y-179556172D01*
X187746203Y-179557707D01*
X187108703Y-179557707D01*
X187077460Y-179556172D01*
X187046518Y-179551582D01*
X187016175Y-179543982D01*
X186986723Y-179533444D01*
X186958445Y-179520069D01*
X186931615Y-179503988D01*
X186906490Y-179485354D01*
X186883313Y-179464347D01*
X186862306Y-179441170D01*
X186843672Y-179416045D01*
X186827591Y-179389215D01*
X186814216Y-179360937D01*
X186803678Y-179331485D01*
X186796078Y-179301142D01*
X186791488Y-179270200D01*
X186789953Y-179238957D01*
X186789953Y-178526457D01*
X186791488Y-178495214D01*
X186796078Y-178464272D01*
X186803678Y-178433929D01*
X186814216Y-178404477D01*
X186827591Y-178376199D01*
X186843672Y-178349369D01*
X186862306Y-178324244D01*
X186883313Y-178301067D01*
X186906490Y-178280060D01*
X186931615Y-178261426D01*
X186958445Y-178245345D01*
X186986723Y-178231970D01*
X187016175Y-178221432D01*
X187046518Y-178213832D01*
X187077460Y-178209242D01*
X187108703Y-178207707D01*
X187746203Y-178207707D01*
X187777446Y-178209242D01*
X187777446Y-178209242D01*
G37*
D15*
X187427453Y-178882707D03*
D12*
G36*
X189352446Y-178209242D02*
X189383388Y-178213832D01*
X189413731Y-178221432D01*
X189443183Y-178231970D01*
X189471461Y-178245345D01*
X189498291Y-178261426D01*
X189523416Y-178280060D01*
X189546593Y-178301067D01*
X189567600Y-178324244D01*
X189586234Y-178349369D01*
X189602315Y-178376199D01*
X189615690Y-178404477D01*
X189626228Y-178433929D01*
X189633828Y-178464272D01*
X189638418Y-178495214D01*
X189639953Y-178526457D01*
X189639953Y-179238957D01*
X189638418Y-179270200D01*
X189633828Y-179301142D01*
X189626228Y-179331485D01*
X189615690Y-179360937D01*
X189602315Y-179389215D01*
X189586234Y-179416045D01*
X189567600Y-179441170D01*
X189546593Y-179464347D01*
X189523416Y-179485354D01*
X189498291Y-179503988D01*
X189471461Y-179520069D01*
X189443183Y-179533444D01*
X189413731Y-179543982D01*
X189383388Y-179551582D01*
X189352446Y-179556172D01*
X189321203Y-179557707D01*
X188683703Y-179557707D01*
X188652460Y-179556172D01*
X188621518Y-179551582D01*
X188591175Y-179543982D01*
X188561723Y-179533444D01*
X188533445Y-179520069D01*
X188506615Y-179503988D01*
X188481490Y-179485354D01*
X188458313Y-179464347D01*
X188437306Y-179441170D01*
X188418672Y-179416045D01*
X188402591Y-179389215D01*
X188389216Y-179360937D01*
X188378678Y-179331485D01*
X188371078Y-179301142D01*
X188366488Y-179270200D01*
X188364953Y-179238957D01*
X188364953Y-178526457D01*
X188366488Y-178495214D01*
X188371078Y-178464272D01*
X188378678Y-178433929D01*
X188389216Y-178404477D01*
X188402591Y-178376199D01*
X188418672Y-178349369D01*
X188437306Y-178324244D01*
X188458313Y-178301067D01*
X188481490Y-178280060D01*
X188506615Y-178261426D01*
X188533445Y-178245345D01*
X188561723Y-178231970D01*
X188591175Y-178221432D01*
X188621518Y-178213832D01*
X188652460Y-178209242D01*
X188683703Y-178207707D01*
X189321203Y-178207707D01*
X189352446Y-178209242D01*
X189352446Y-178209242D01*
G37*
D15*
X189002453Y-178882707D03*
G04 #@! TD*
D12*
G04 #@! TO.C,R11*
G36*
X190770642Y-189472542D02*
X190801532Y-189477469D01*
X190831791Y-189485400D01*
X190861126Y-189496258D01*
X190889256Y-189509940D01*
X190915909Y-189526313D01*
X190940829Y-189545220D01*
X190963776Y-189566479D01*
X190984529Y-189589884D01*
X191002888Y-189615210D01*
X191018676Y-189642215D01*
X191031741Y-189670636D01*
X191041957Y-189700201D01*
X191049226Y-189730626D01*
X191053478Y-189761616D01*
X191115576Y-190471404D01*
X191116770Y-190502662D01*
X191114894Y-190533886D01*
X191109967Y-190564777D01*
X191102036Y-190595035D01*
X191091177Y-190624371D01*
X191077496Y-190652500D01*
X191061122Y-190679154D01*
X191042216Y-190704074D01*
X191020957Y-190727021D01*
X190997552Y-190747773D01*
X190972225Y-190766132D01*
X190945221Y-190781920D01*
X190916800Y-190794985D01*
X190887234Y-190805201D01*
X190856810Y-190812470D01*
X190825820Y-190816722D01*
X190190746Y-190872284D01*
X190159488Y-190873478D01*
X190128264Y-190871602D01*
X190097374Y-190866675D01*
X190067115Y-190858744D01*
X190037780Y-190847886D01*
X190009650Y-190834204D01*
X189982997Y-190817831D01*
X189958077Y-190798924D01*
X189935130Y-190777665D01*
X189914377Y-190754260D01*
X189896018Y-190728934D01*
X189880230Y-190701929D01*
X189867165Y-190673508D01*
X189856949Y-190643943D01*
X189849680Y-190613518D01*
X189845428Y-190582528D01*
X189783330Y-189872740D01*
X189782136Y-189841482D01*
X189784012Y-189810258D01*
X189788939Y-189779367D01*
X189796870Y-189749109D01*
X189807729Y-189719773D01*
X189821410Y-189691644D01*
X189837784Y-189664990D01*
X189856690Y-189640070D01*
X189877949Y-189617123D01*
X189901354Y-189596371D01*
X189926681Y-189578012D01*
X189953685Y-189562224D01*
X189982106Y-189549159D01*
X190011672Y-189538943D01*
X190042096Y-189531674D01*
X190073086Y-189527422D01*
X190708160Y-189471860D01*
X190739418Y-189470666D01*
X190770642Y-189472542D01*
X190770642Y-189472542D01*
G37*
D15*
X190449453Y-190172072D03*
D12*
G36*
X189201636Y-189609812D02*
X189232526Y-189614739D01*
X189262785Y-189622670D01*
X189292120Y-189633528D01*
X189320250Y-189647210D01*
X189346903Y-189663583D01*
X189371823Y-189682490D01*
X189394770Y-189703749D01*
X189415523Y-189727154D01*
X189433882Y-189752480D01*
X189449670Y-189779485D01*
X189462735Y-189807906D01*
X189472951Y-189837471D01*
X189480220Y-189867896D01*
X189484472Y-189898886D01*
X189546570Y-190608674D01*
X189547764Y-190639932D01*
X189545888Y-190671156D01*
X189540961Y-190702047D01*
X189533030Y-190732305D01*
X189522171Y-190761641D01*
X189508490Y-190789770D01*
X189492116Y-190816424D01*
X189473210Y-190841344D01*
X189451951Y-190864291D01*
X189428546Y-190885043D01*
X189403219Y-190903402D01*
X189376215Y-190919190D01*
X189347794Y-190932255D01*
X189318228Y-190942471D01*
X189287804Y-190949740D01*
X189256814Y-190953992D01*
X188621740Y-191009554D01*
X188590482Y-191010748D01*
X188559258Y-191008872D01*
X188528368Y-191003945D01*
X188498109Y-190996014D01*
X188468774Y-190985156D01*
X188440644Y-190971474D01*
X188413991Y-190955101D01*
X188389071Y-190936194D01*
X188366124Y-190914935D01*
X188345371Y-190891530D01*
X188327012Y-190866204D01*
X188311224Y-190839199D01*
X188298159Y-190810778D01*
X188287943Y-190781213D01*
X188280674Y-190750788D01*
X188276422Y-190719798D01*
X188214324Y-190010010D01*
X188213130Y-189978752D01*
X188215006Y-189947528D01*
X188219933Y-189916637D01*
X188227864Y-189886379D01*
X188238723Y-189857043D01*
X188252404Y-189828914D01*
X188268778Y-189802260D01*
X188287684Y-189777340D01*
X188308943Y-189754393D01*
X188332348Y-189733641D01*
X188357675Y-189715282D01*
X188384679Y-189699494D01*
X188413100Y-189686429D01*
X188442666Y-189676213D01*
X188473090Y-189668944D01*
X188504080Y-189664692D01*
X189139154Y-189609130D01*
X189170412Y-189607936D01*
X189201636Y-189609812D01*
X189201636Y-189609812D01*
G37*
D15*
X188880447Y-190309342D03*
G04 #@! TD*
D12*
G04 #@! TO.C,R12*
G36*
X186636946Y-166204742D02*
X186667888Y-166209332D01*
X186698231Y-166216932D01*
X186727683Y-166227470D01*
X186755961Y-166240845D01*
X186782791Y-166256926D01*
X186807916Y-166275560D01*
X186831093Y-166296567D01*
X186852100Y-166319744D01*
X186870734Y-166344869D01*
X186886815Y-166371699D01*
X186900190Y-166399977D01*
X186910728Y-166429429D01*
X186918328Y-166459772D01*
X186922918Y-166490714D01*
X186924453Y-166521957D01*
X186924453Y-167159457D01*
X186922918Y-167190700D01*
X186918328Y-167221642D01*
X186910728Y-167251985D01*
X186900190Y-167281437D01*
X186886815Y-167309715D01*
X186870734Y-167336545D01*
X186852100Y-167361670D01*
X186831093Y-167384847D01*
X186807916Y-167405854D01*
X186782791Y-167424488D01*
X186755961Y-167440569D01*
X186727683Y-167453944D01*
X186698231Y-167464482D01*
X186667888Y-167472082D01*
X186636946Y-167476672D01*
X186605703Y-167478207D01*
X185893203Y-167478207D01*
X185861960Y-167476672D01*
X185831018Y-167472082D01*
X185800675Y-167464482D01*
X185771223Y-167453944D01*
X185742945Y-167440569D01*
X185716115Y-167424488D01*
X185690990Y-167405854D01*
X185667813Y-167384847D01*
X185646806Y-167361670D01*
X185628172Y-167336545D01*
X185612091Y-167309715D01*
X185598716Y-167281437D01*
X185588178Y-167251985D01*
X185580578Y-167221642D01*
X185575988Y-167190700D01*
X185574453Y-167159457D01*
X185574453Y-166521957D01*
X185575988Y-166490714D01*
X185580578Y-166459772D01*
X185588178Y-166429429D01*
X185598716Y-166399977D01*
X185612091Y-166371699D01*
X185628172Y-166344869D01*
X185646806Y-166319744D01*
X185667813Y-166296567D01*
X185690990Y-166275560D01*
X185716115Y-166256926D01*
X185742945Y-166240845D01*
X185771223Y-166227470D01*
X185800675Y-166216932D01*
X185831018Y-166209332D01*
X185861960Y-166204742D01*
X185893203Y-166203207D01*
X186605703Y-166203207D01*
X186636946Y-166204742D01*
X186636946Y-166204742D01*
G37*
D15*
X186249453Y-166840707D03*
D12*
G36*
X186636946Y-167779742D02*
X186667888Y-167784332D01*
X186698231Y-167791932D01*
X186727683Y-167802470D01*
X186755961Y-167815845D01*
X186782791Y-167831926D01*
X186807916Y-167850560D01*
X186831093Y-167871567D01*
X186852100Y-167894744D01*
X186870734Y-167919869D01*
X186886815Y-167946699D01*
X186900190Y-167974977D01*
X186910728Y-168004429D01*
X186918328Y-168034772D01*
X186922918Y-168065714D01*
X186924453Y-168096957D01*
X186924453Y-168734457D01*
X186922918Y-168765700D01*
X186918328Y-168796642D01*
X186910728Y-168826985D01*
X186900190Y-168856437D01*
X186886815Y-168884715D01*
X186870734Y-168911545D01*
X186852100Y-168936670D01*
X186831093Y-168959847D01*
X186807916Y-168980854D01*
X186782791Y-168999488D01*
X186755961Y-169015569D01*
X186727683Y-169028944D01*
X186698231Y-169039482D01*
X186667888Y-169047082D01*
X186636946Y-169051672D01*
X186605703Y-169053207D01*
X185893203Y-169053207D01*
X185861960Y-169051672D01*
X185831018Y-169047082D01*
X185800675Y-169039482D01*
X185771223Y-169028944D01*
X185742945Y-169015569D01*
X185716115Y-168999488D01*
X185690990Y-168980854D01*
X185667813Y-168959847D01*
X185646806Y-168936670D01*
X185628172Y-168911545D01*
X185612091Y-168884715D01*
X185598716Y-168856437D01*
X185588178Y-168826985D01*
X185580578Y-168796642D01*
X185575988Y-168765700D01*
X185574453Y-168734457D01*
X185574453Y-168096957D01*
X185575988Y-168065714D01*
X185580578Y-168034772D01*
X185588178Y-168004429D01*
X185598716Y-167974977D01*
X185612091Y-167946699D01*
X185628172Y-167919869D01*
X185646806Y-167894744D01*
X185667813Y-167871567D01*
X185690990Y-167850560D01*
X185716115Y-167831926D01*
X185742945Y-167815845D01*
X185771223Y-167802470D01*
X185800675Y-167791932D01*
X185831018Y-167784332D01*
X185861960Y-167779742D01*
X185893203Y-167778207D01*
X186605703Y-167778207D01*
X186636946Y-167779742D01*
X186636946Y-167779742D01*
G37*
D15*
X186249453Y-168415707D03*
G04 #@! TD*
D12*
G04 #@! TO.C,R13*
G36*
X184936946Y-167792242D02*
X184967888Y-167796832D01*
X184998231Y-167804432D01*
X185027683Y-167814970D01*
X185055961Y-167828345D01*
X185082791Y-167844426D01*
X185107916Y-167863060D01*
X185131093Y-167884067D01*
X185152100Y-167907244D01*
X185170734Y-167932369D01*
X185186815Y-167959199D01*
X185200190Y-167987477D01*
X185210728Y-168016929D01*
X185218328Y-168047272D01*
X185222918Y-168078214D01*
X185224453Y-168109457D01*
X185224453Y-168746957D01*
X185222918Y-168778200D01*
X185218328Y-168809142D01*
X185210728Y-168839485D01*
X185200190Y-168868937D01*
X185186815Y-168897215D01*
X185170734Y-168924045D01*
X185152100Y-168949170D01*
X185131093Y-168972347D01*
X185107916Y-168993354D01*
X185082791Y-169011988D01*
X185055961Y-169028069D01*
X185027683Y-169041444D01*
X184998231Y-169051982D01*
X184967888Y-169059582D01*
X184936946Y-169064172D01*
X184905703Y-169065707D01*
X184193203Y-169065707D01*
X184161960Y-169064172D01*
X184131018Y-169059582D01*
X184100675Y-169051982D01*
X184071223Y-169041444D01*
X184042945Y-169028069D01*
X184016115Y-169011988D01*
X183990990Y-168993354D01*
X183967813Y-168972347D01*
X183946806Y-168949170D01*
X183928172Y-168924045D01*
X183912091Y-168897215D01*
X183898716Y-168868937D01*
X183888178Y-168839485D01*
X183880578Y-168809142D01*
X183875988Y-168778200D01*
X183874453Y-168746957D01*
X183874453Y-168109457D01*
X183875988Y-168078214D01*
X183880578Y-168047272D01*
X183888178Y-168016929D01*
X183898716Y-167987477D01*
X183912091Y-167959199D01*
X183928172Y-167932369D01*
X183946806Y-167907244D01*
X183967813Y-167884067D01*
X183990990Y-167863060D01*
X184016115Y-167844426D01*
X184042945Y-167828345D01*
X184071223Y-167814970D01*
X184100675Y-167804432D01*
X184131018Y-167796832D01*
X184161960Y-167792242D01*
X184193203Y-167790707D01*
X184905703Y-167790707D01*
X184936946Y-167792242D01*
X184936946Y-167792242D01*
G37*
D15*
X184549453Y-168428207D03*
D12*
G36*
X184936946Y-166217242D02*
X184967888Y-166221832D01*
X184998231Y-166229432D01*
X185027683Y-166239970D01*
X185055961Y-166253345D01*
X185082791Y-166269426D01*
X185107916Y-166288060D01*
X185131093Y-166309067D01*
X185152100Y-166332244D01*
X185170734Y-166357369D01*
X185186815Y-166384199D01*
X185200190Y-166412477D01*
X185210728Y-166441929D01*
X185218328Y-166472272D01*
X185222918Y-166503214D01*
X185224453Y-166534457D01*
X185224453Y-167171957D01*
X185222918Y-167203200D01*
X185218328Y-167234142D01*
X185210728Y-167264485D01*
X185200190Y-167293937D01*
X185186815Y-167322215D01*
X185170734Y-167349045D01*
X185152100Y-167374170D01*
X185131093Y-167397347D01*
X185107916Y-167418354D01*
X185082791Y-167436988D01*
X185055961Y-167453069D01*
X185027683Y-167466444D01*
X184998231Y-167476982D01*
X184967888Y-167484582D01*
X184936946Y-167489172D01*
X184905703Y-167490707D01*
X184193203Y-167490707D01*
X184161960Y-167489172D01*
X184131018Y-167484582D01*
X184100675Y-167476982D01*
X184071223Y-167466444D01*
X184042945Y-167453069D01*
X184016115Y-167436988D01*
X183990990Y-167418354D01*
X183967813Y-167397347D01*
X183946806Y-167374170D01*
X183928172Y-167349045D01*
X183912091Y-167322215D01*
X183898716Y-167293937D01*
X183888178Y-167264485D01*
X183880578Y-167234142D01*
X183875988Y-167203200D01*
X183874453Y-167171957D01*
X183874453Y-166534457D01*
X183875988Y-166503214D01*
X183880578Y-166472272D01*
X183888178Y-166441929D01*
X183898716Y-166412477D01*
X183912091Y-166384199D01*
X183928172Y-166357369D01*
X183946806Y-166332244D01*
X183967813Y-166309067D01*
X183990990Y-166288060D01*
X184016115Y-166269426D01*
X184042945Y-166253345D01*
X184071223Y-166239970D01*
X184100675Y-166229432D01*
X184131018Y-166221832D01*
X184161960Y-166217242D01*
X184193203Y-166215707D01*
X184905703Y-166215707D01*
X184936946Y-166217242D01*
X184936946Y-166217242D01*
G37*
D15*
X184549453Y-166853207D03*
G04 #@! TD*
D12*
G04 #@! TO.C,R14*
G36*
X189736946Y-163929742D02*
X189767888Y-163934332D01*
X189798231Y-163941932D01*
X189827683Y-163952470D01*
X189855961Y-163965845D01*
X189882791Y-163981926D01*
X189907916Y-164000560D01*
X189931093Y-164021567D01*
X189952100Y-164044744D01*
X189970734Y-164069869D01*
X189986815Y-164096699D01*
X190000190Y-164124977D01*
X190010728Y-164154429D01*
X190018328Y-164184772D01*
X190022918Y-164215714D01*
X190024453Y-164246957D01*
X190024453Y-164884457D01*
X190022918Y-164915700D01*
X190018328Y-164946642D01*
X190010728Y-164976985D01*
X190000190Y-165006437D01*
X189986815Y-165034715D01*
X189970734Y-165061545D01*
X189952100Y-165086670D01*
X189931093Y-165109847D01*
X189907916Y-165130854D01*
X189882791Y-165149488D01*
X189855961Y-165165569D01*
X189827683Y-165178944D01*
X189798231Y-165189482D01*
X189767888Y-165197082D01*
X189736946Y-165201672D01*
X189705703Y-165203207D01*
X188993203Y-165203207D01*
X188961960Y-165201672D01*
X188931018Y-165197082D01*
X188900675Y-165189482D01*
X188871223Y-165178944D01*
X188842945Y-165165569D01*
X188816115Y-165149488D01*
X188790990Y-165130854D01*
X188767813Y-165109847D01*
X188746806Y-165086670D01*
X188728172Y-165061545D01*
X188712091Y-165034715D01*
X188698716Y-165006437D01*
X188688178Y-164976985D01*
X188680578Y-164946642D01*
X188675988Y-164915700D01*
X188674453Y-164884457D01*
X188674453Y-164246957D01*
X188675988Y-164215714D01*
X188680578Y-164184772D01*
X188688178Y-164154429D01*
X188698716Y-164124977D01*
X188712091Y-164096699D01*
X188728172Y-164069869D01*
X188746806Y-164044744D01*
X188767813Y-164021567D01*
X188790990Y-164000560D01*
X188816115Y-163981926D01*
X188842945Y-163965845D01*
X188871223Y-163952470D01*
X188900675Y-163941932D01*
X188931018Y-163934332D01*
X188961960Y-163929742D01*
X188993203Y-163928207D01*
X189705703Y-163928207D01*
X189736946Y-163929742D01*
X189736946Y-163929742D01*
G37*
D15*
X189349453Y-164565707D03*
D12*
G36*
X189736946Y-165504742D02*
X189767888Y-165509332D01*
X189798231Y-165516932D01*
X189827683Y-165527470D01*
X189855961Y-165540845D01*
X189882791Y-165556926D01*
X189907916Y-165575560D01*
X189931093Y-165596567D01*
X189952100Y-165619744D01*
X189970734Y-165644869D01*
X189986815Y-165671699D01*
X190000190Y-165699977D01*
X190010728Y-165729429D01*
X190018328Y-165759772D01*
X190022918Y-165790714D01*
X190024453Y-165821957D01*
X190024453Y-166459457D01*
X190022918Y-166490700D01*
X190018328Y-166521642D01*
X190010728Y-166551985D01*
X190000190Y-166581437D01*
X189986815Y-166609715D01*
X189970734Y-166636545D01*
X189952100Y-166661670D01*
X189931093Y-166684847D01*
X189907916Y-166705854D01*
X189882791Y-166724488D01*
X189855961Y-166740569D01*
X189827683Y-166753944D01*
X189798231Y-166764482D01*
X189767888Y-166772082D01*
X189736946Y-166776672D01*
X189705703Y-166778207D01*
X188993203Y-166778207D01*
X188961960Y-166776672D01*
X188931018Y-166772082D01*
X188900675Y-166764482D01*
X188871223Y-166753944D01*
X188842945Y-166740569D01*
X188816115Y-166724488D01*
X188790990Y-166705854D01*
X188767813Y-166684847D01*
X188746806Y-166661670D01*
X188728172Y-166636545D01*
X188712091Y-166609715D01*
X188698716Y-166581437D01*
X188688178Y-166551985D01*
X188680578Y-166521642D01*
X188675988Y-166490700D01*
X188674453Y-166459457D01*
X188674453Y-165821957D01*
X188675988Y-165790714D01*
X188680578Y-165759772D01*
X188688178Y-165729429D01*
X188698716Y-165699977D01*
X188712091Y-165671699D01*
X188728172Y-165644869D01*
X188746806Y-165619744D01*
X188767813Y-165596567D01*
X188790990Y-165575560D01*
X188816115Y-165556926D01*
X188842945Y-165540845D01*
X188871223Y-165527470D01*
X188900675Y-165516932D01*
X188931018Y-165509332D01*
X188961960Y-165504742D01*
X188993203Y-165503207D01*
X189705703Y-165503207D01*
X189736946Y-165504742D01*
X189736946Y-165504742D01*
G37*
D15*
X189349453Y-166140707D03*
G04 #@! TD*
D21*
G04 #@! TO.C,U1*
X185166711Y-185799193D03*
D12*
G36*
X184600038Y-185017779D02*
X185648599Y-184962827D01*
X185733384Y-186580607D01*
X184684823Y-186635559D01*
X184600038Y-185017779D01*
X184600038Y-185017779D01*
G37*
D21*
X183269315Y-185898631D03*
D12*
G36*
X182702642Y-185117217D02*
X183751203Y-185062265D01*
X183835988Y-186680045D01*
X182787427Y-186734997D01*
X182702642Y-185117217D01*
X182702642Y-185117217D01*
G37*
D21*
X183132195Y-183282221D03*
D12*
G36*
X182565522Y-182500807D02*
X183614083Y-182445855D01*
X183698868Y-184063635D01*
X182650307Y-184118587D01*
X182565522Y-182500807D01*
X182565522Y-182500807D01*
G37*
D21*
X184080893Y-183232502D03*
D12*
G36*
X183514220Y-182451088D02*
X184562781Y-182396136D01*
X184647566Y-184013916D01*
X183599005Y-184068868D01*
X183514220Y-182451088D01*
X183514220Y-182451088D01*
G37*
D21*
X185029591Y-183182783D03*
D12*
G36*
X184462918Y-182401369D02*
X185511479Y-182346417D01*
X185596264Y-183964197D01*
X184547703Y-184019149D01*
X184462918Y-182401369D01*
X184462918Y-182401369D01*
G37*
G04 #@! TD*
D21*
G04 #@! TO.C,U3*
X188052195Y-172912221D03*
D12*
G36*
X188618868Y-173693635D02*
X187570307Y-173748587D01*
X187485522Y-172130807D01*
X188534083Y-172075855D01*
X188618868Y-173693635D01*
X188618868Y-173693635D01*
G37*
D21*
X189949591Y-172812783D03*
D12*
G36*
X190516264Y-173594197D02*
X189467703Y-173649149D01*
X189382918Y-172031369D01*
X190431479Y-171976417D01*
X190516264Y-173594197D01*
X190516264Y-173594197D01*
G37*
D21*
X190086711Y-175429193D03*
D12*
G36*
X190653384Y-176210607D02*
X189604823Y-176265559D01*
X189520038Y-174647779D01*
X190568599Y-174592827D01*
X190653384Y-176210607D01*
X190653384Y-176210607D01*
G37*
D21*
X189138013Y-175478912D03*
D12*
G36*
X189704686Y-176260326D02*
X188656125Y-176315278D01*
X188571340Y-174697498D01*
X189619901Y-174642546D01*
X189704686Y-176260326D01*
X189704686Y-176260326D01*
G37*
D21*
X188189315Y-175528631D03*
D12*
G36*
X188755988Y-176310045D02*
X187707427Y-176364997D01*
X187622642Y-174747217D01*
X188671203Y-174692265D01*
X188755988Y-176310045D01*
X188755988Y-176310045D01*
G37*
G04 #@! TD*
D22*
G04 #@! TO.C,U4*
X192486638Y-151670571D03*
D12*
G36*
X192485898Y-150861853D02*
X193187378Y-151266853D01*
X192487378Y-152479289D01*
X191785898Y-152074289D01*
X192485898Y-150861853D01*
X192485898Y-150861853D01*
G37*
D22*
X191819798Y-151285571D03*
D12*
G36*
X191819058Y-150476853D02*
X192520538Y-150881853D01*
X191820538Y-152094289D01*
X191119058Y-151689289D01*
X191819058Y-150476853D01*
X191819058Y-150476853D01*
G37*
D22*
X191161619Y-150905571D03*
D12*
G36*
X191160879Y-150096853D02*
X191862359Y-150501853D01*
X191162359Y-151714289D01*
X190460879Y-151309289D01*
X191160879Y-150096853D01*
X191160879Y-150096853D01*
G37*
D22*
X190503440Y-150525571D03*
D12*
G36*
X190502700Y-149716853D02*
X191204180Y-150121853D01*
X190504180Y-151334289D01*
X189802700Y-150929289D01*
X190502700Y-149716853D01*
X190502700Y-149716853D01*
G37*
D22*
X189845260Y-150145571D03*
D12*
G36*
X189844520Y-149336853D02*
X190546000Y-149741853D01*
X189846000Y-150954289D01*
X189144520Y-150549289D01*
X189844520Y-149336853D01*
X189844520Y-149336853D01*
G37*
D22*
X185746832Y-147144257D03*
D12*
G36*
X184938114Y-147144997D02*
X185343114Y-146443517D01*
X186555550Y-147143517D01*
X186150550Y-147844997D01*
X184938114Y-147144997D01*
X184938114Y-147144997D01*
G37*
D22*
X186126832Y-146486078D03*
D12*
G36*
X185318114Y-146486818D02*
X185723114Y-145785338D01*
X186935550Y-146485338D01*
X186530550Y-147186818D01*
X185318114Y-146486818D01*
X185318114Y-146486818D01*
G37*
D22*
X186511832Y-145819238D03*
D12*
G36*
X185703114Y-145819978D02*
X186108114Y-145118498D01*
X187320550Y-145818498D01*
X186915550Y-146519978D01*
X185703114Y-145819978D01*
X185703114Y-145819978D01*
G37*
D22*
X186891832Y-145161059D03*
D12*
G36*
X186083114Y-145161799D02*
X186488114Y-144460319D01*
X187700550Y-145160319D01*
X187295550Y-145861799D01*
X186083114Y-145161799D01*
X186083114Y-145161799D01*
G37*
D22*
X187271832Y-144502880D03*
D12*
G36*
X186463114Y-144503620D02*
X186868114Y-143802140D01*
X188080550Y-144502140D01*
X187675550Y-145203620D01*
X186463114Y-144503620D01*
X186463114Y-144503620D01*
G37*
D22*
X187651832Y-143844700D03*
D12*
G36*
X186843114Y-143845440D02*
X187248114Y-143143960D01*
X188460550Y-143843960D01*
X188055550Y-144545440D01*
X186843114Y-143845440D01*
X186843114Y-143845440D01*
G37*
D22*
X188031832Y-143186521D03*
D12*
G36*
X187223114Y-143187261D02*
X187628114Y-142485781D01*
X188840550Y-143185781D01*
X188435550Y-143887261D01*
X187223114Y-143187261D01*
X187223114Y-143187261D01*
G37*
D22*
X188416832Y-142519682D03*
D12*
G36*
X187608114Y-142520422D02*
X188013114Y-141818942D01*
X189225550Y-142518942D01*
X188820550Y-143220422D01*
X187608114Y-142520422D01*
X187608114Y-142520422D01*
G37*
D22*
X188796832Y-141861502D03*
D12*
G36*
X187988114Y-141862242D02*
X188393114Y-141160762D01*
X189605550Y-141860762D01*
X189200550Y-142562242D01*
X187988114Y-141862242D01*
X187988114Y-141862242D01*
G37*
D22*
X189176832Y-141203323D03*
D12*
G36*
X188368114Y-141204063D02*
X188773114Y-140502583D01*
X189985550Y-141202583D01*
X189580550Y-141904063D01*
X188368114Y-141204063D01*
X188368114Y-141204063D01*
G37*
D22*
X189556832Y-140545144D03*
D12*
G36*
X188748114Y-140545884D02*
X189153114Y-139844404D01*
X190365550Y-140544404D01*
X189960550Y-141245884D01*
X188748114Y-140545884D01*
X188748114Y-140545884D01*
G37*
D22*
X189936832Y-139886964D03*
D12*
G36*
X189128114Y-139887704D02*
X189533114Y-139186224D01*
X190745550Y-139886224D01*
X190340550Y-140587704D01*
X189128114Y-139887704D01*
X189128114Y-139887704D01*
G37*
D22*
X191290703Y-140021990D03*
D12*
G36*
X191289963Y-139213272D02*
X191991443Y-139618272D01*
X191291443Y-140830708D01*
X190589963Y-140425708D01*
X191289963Y-139213272D01*
X191289963Y-139213272D01*
G37*
D22*
X191948883Y-140401990D03*
D12*
G36*
X191948143Y-139593272D02*
X192649623Y-139998272D01*
X191949623Y-141210708D01*
X191248143Y-140805708D01*
X191948143Y-139593272D01*
X191948143Y-139593272D01*
G37*
D22*
X192607062Y-140781990D03*
D12*
G36*
X192606322Y-139973272D02*
X193307802Y-140378272D01*
X192607802Y-141590708D01*
X191906322Y-141185708D01*
X192606322Y-139973272D01*
X192606322Y-139973272D01*
G37*
D22*
X193265241Y-141161990D03*
D12*
G36*
X193264501Y-140353272D02*
X193965981Y-140758272D01*
X193265981Y-141970708D01*
X192564501Y-141565708D01*
X193264501Y-140353272D01*
X193264501Y-140353272D01*
G37*
D22*
X189187081Y-149765571D03*
D12*
G36*
X189186341Y-148956853D02*
X189887821Y-149361853D01*
X189187821Y-150574289D01*
X188486341Y-150169289D01*
X189186341Y-148956853D01*
X189186341Y-148956853D01*
G37*
G04 #@! TD*
D23*
G04 #@! TO.C,U5*
X188599453Y-182690707D03*
D12*
G36*
X189773506Y-183711295D02*
X187578865Y-183864760D01*
X187425400Y-181670119D01*
X189620041Y-181516654D01*
X189773506Y-183711295D01*
X189773506Y-183711295D01*
G37*
D24*
X187907741Y-181385780D03*
D12*
G36*
X188512731Y-181794574D02*
X187365532Y-181874794D01*
X187302751Y-180976986D01*
X188449950Y-180896766D01*
X188512731Y-181794574D01*
X188512731Y-181794574D01*
G37*
D25*
X188680853Y-181331718D03*
D12*
G36*
X188313218Y-181808524D02*
X188250437Y-180910717D01*
X189048488Y-180854912D01*
X189111269Y-181752719D01*
X188313218Y-181808524D01*
X188313218Y-181808524D01*
G37*
D25*
X189279391Y-181289865D03*
D12*
G36*
X188911756Y-181766671D02*
X188848975Y-180868864D01*
X189647026Y-180813059D01*
X189709807Y-181710866D01*
X188911756Y-181766671D01*
X188911756Y-181766671D01*
G37*
D25*
X189467734Y-183983287D03*
D12*
G36*
X189100099Y-184460093D02*
X189037318Y-183562286D01*
X189835369Y-183506481D01*
X189898150Y-184404288D01*
X189100099Y-184460093D01*
X189100099Y-184460093D01*
G37*
D25*
X188869200Y-184025141D03*
D12*
G36*
X188501565Y-184501947D02*
X188438784Y-183604140D01*
X189236835Y-183548335D01*
X189299616Y-184446142D01*
X188501565Y-184501947D01*
X188501565Y-184501947D01*
G37*
D24*
X188096083Y-184079203D03*
D12*
G36*
X188701073Y-184487997D02*
X187553874Y-184568217D01*
X187491093Y-183670409D01*
X188638292Y-183590189D01*
X188701073Y-184487997D01*
X188701073Y-184487997D01*
G37*
G04 #@! TD*
D26*
G04 #@! TO.C,U6*
X190431687Y-192028602D03*
D12*
G36*
X189637215Y-192700401D02*
X189532628Y-191504968D01*
X191226159Y-191356803D01*
X191330746Y-192552236D01*
X189637215Y-192700401D01*
X189637215Y-192700401D01*
G37*
D26*
X190543246Y-193303731D03*
D12*
G36*
X189748774Y-193975530D02*
X189644187Y-192780097D01*
X191337718Y-192631932D01*
X191442305Y-193827365D01*
X189748774Y-193975530D01*
X189748774Y-193975530D01*
G37*
D26*
X184267219Y-193852812D03*
D12*
G36*
X183472747Y-194524611D02*
X183368160Y-193329178D01*
X185061691Y-193181013D01*
X185166278Y-194376446D01*
X183472747Y-194524611D01*
X183472747Y-194524611D01*
G37*
D26*
X184155660Y-192577683D03*
D12*
G36*
X183361188Y-193249482D02*
X183256601Y-192054049D01*
X184950132Y-191905884D01*
X185054719Y-193101317D01*
X183361188Y-193249482D01*
X183361188Y-193249482D01*
G37*
G04 #@! TD*
D26*
G04 #@! TO.C,U7*
X179691279Y-192743024D03*
D12*
G36*
X180349110Y-193549100D02*
X179152034Y-193632807D01*
X179033448Y-191936948D01*
X180230524Y-191853241D01*
X180349110Y-193549100D01*
X180349110Y-193549100D01*
G37*
D26*
X180968161Y-192653736D03*
D12*
G36*
X181625992Y-193459812D02*
X180428916Y-193543519D01*
X180310330Y-191847660D01*
X181507406Y-191763953D01*
X181625992Y-193459812D01*
X181625992Y-193459812D01*
G37*
D26*
X181407627Y-198938390D03*
D12*
G36*
X182065458Y-199744466D02*
X180868382Y-199828173D01*
X180749796Y-198132314D01*
X181946872Y-198048607D01*
X182065458Y-199744466D01*
X182065458Y-199744466D01*
G37*
D26*
X180130745Y-199027678D03*
D12*
G36*
X180788576Y-199833754D02*
X179591500Y-199917461D01*
X179472914Y-198221602D01*
X180669990Y-198137895D01*
X180788576Y-199833754D01*
X180788576Y-199833754D01*
G37*
G04 #@! TD*
D26*
G04 #@! TO.C,U8*
X183115299Y-200974948D03*
D12*
G36*
X182332672Y-201660510D02*
X182207238Y-200467084D01*
X183897926Y-200289386D01*
X184023360Y-201482812D01*
X182332672Y-201660510D01*
X182332672Y-201660510D01*
G37*
D26*
X183249095Y-202247936D03*
D12*
G36*
X182466468Y-202933498D02*
X182341034Y-201740072D01*
X184031722Y-201562374D01*
X184157156Y-202755800D01*
X182466468Y-202933498D01*
X182466468Y-202933498D01*
G37*
D26*
X176983607Y-202906466D03*
D12*
G36*
X176200980Y-203592028D02*
X176075546Y-202398602D01*
X177766234Y-202220904D01*
X177891668Y-203414330D01*
X176200980Y-203592028D01*
X176200980Y-203592028D01*
G37*
D26*
X176849811Y-201633478D03*
D12*
G36*
X176067184Y-202319040D02*
X175941750Y-201125614D01*
X177632438Y-200947916D01*
X177757872Y-202141342D01*
X176067184Y-202319040D01*
X176067184Y-202319040D01*
G37*
G04 #@! TD*
D26*
G04 #@! TO.C,U9*
X187553708Y-207600251D03*
D12*
G36*
X188382251Y-206970952D02*
X188424130Y-208170221D01*
X186725165Y-208229550D01*
X186683286Y-207030281D01*
X188382251Y-206970952D01*
X188382251Y-206970952D01*
G37*
D26*
X187509036Y-206321030D03*
D12*
G36*
X188337579Y-205691731D02*
X188379458Y-206891000D01*
X186680493Y-206950329D01*
X186638614Y-205751060D01*
X188337579Y-205691731D01*
X188337579Y-205691731D01*
G37*
D26*
X193805198Y-206101163D03*
D12*
G36*
X194633741Y-205471864D02*
X194675620Y-206671133D01*
X192976655Y-206730462D01*
X192934776Y-205531193D01*
X194633741Y-205471864D01*
X194633741Y-205471864D01*
G37*
D26*
X193849870Y-207380384D03*
D12*
G36*
X194678413Y-206751085D02*
X194720292Y-207950354D01*
X193021327Y-208009683D01*
X192979448Y-206810414D01*
X194678413Y-206751085D01*
X194678413Y-206751085D01*
G37*
G04 #@! TD*
G04 #@! TO.C,C15*
G36*
X184011638Y-188706754D02*
X184042437Y-188712220D01*
X184072553Y-188720678D01*
X184101694Y-188732047D01*
X184129581Y-188746218D01*
X184155944Y-188763053D01*
X184180531Y-188782392D01*
X184203103Y-188804048D01*
X184223444Y-188827812D01*
X184241358Y-188853455D01*
X184256672Y-188880730D01*
X184269239Y-188909376D01*
X184278938Y-188939115D01*
X184285675Y-188969661D01*
X184289386Y-189000721D01*
X184339087Y-189711485D01*
X184339735Y-189742759D01*
X184337315Y-189773946D01*
X184331849Y-189804746D01*
X184323391Y-189834861D01*
X184312022Y-189864002D01*
X184297851Y-189891889D01*
X184281015Y-189918253D01*
X184261677Y-189942839D01*
X184240021Y-189965411D01*
X184216257Y-189985752D01*
X184190614Y-190003666D01*
X184163338Y-190018980D01*
X184134693Y-190031547D01*
X184104954Y-190041246D01*
X184074407Y-190047983D01*
X184043348Y-190051694D01*
X183407401Y-190096164D01*
X183376127Y-190096812D01*
X183344940Y-190094392D01*
X183314141Y-190088926D01*
X183284025Y-190080468D01*
X183254884Y-190069099D01*
X183226997Y-190054928D01*
X183200634Y-190038093D01*
X183176047Y-190018754D01*
X183153475Y-189997098D01*
X183133134Y-189973334D01*
X183115220Y-189947691D01*
X183099906Y-189920416D01*
X183087339Y-189891770D01*
X183077640Y-189862031D01*
X183070903Y-189831485D01*
X183067192Y-189800425D01*
X183017491Y-189089661D01*
X183016843Y-189058387D01*
X183019263Y-189027200D01*
X183024729Y-188996400D01*
X183033187Y-188966285D01*
X183044556Y-188937144D01*
X183058727Y-188909257D01*
X183075563Y-188882893D01*
X183094901Y-188858307D01*
X183116557Y-188835735D01*
X183140321Y-188815394D01*
X183165964Y-188797480D01*
X183193240Y-188782166D01*
X183221885Y-188769599D01*
X183251624Y-188759900D01*
X183282171Y-188753163D01*
X183313230Y-188749452D01*
X183949177Y-188704982D01*
X183980451Y-188704334D01*
X184011638Y-188706754D01*
X184011638Y-188706754D01*
G37*
D15*
X183678289Y-189400573D03*
D12*
G36*
X185582802Y-188596888D02*
X185613601Y-188602354D01*
X185643717Y-188610812D01*
X185672858Y-188622181D01*
X185700745Y-188636352D01*
X185727108Y-188653187D01*
X185751695Y-188672526D01*
X185774267Y-188694182D01*
X185794608Y-188717946D01*
X185812522Y-188743589D01*
X185827836Y-188770864D01*
X185840403Y-188799510D01*
X185850102Y-188829249D01*
X185856839Y-188859795D01*
X185860550Y-188890855D01*
X185910251Y-189601619D01*
X185910899Y-189632893D01*
X185908479Y-189664080D01*
X185903013Y-189694880D01*
X185894555Y-189724995D01*
X185883186Y-189754136D01*
X185869015Y-189782023D01*
X185852179Y-189808387D01*
X185832841Y-189832973D01*
X185811185Y-189855545D01*
X185787421Y-189875886D01*
X185761778Y-189893800D01*
X185734502Y-189909114D01*
X185705857Y-189921681D01*
X185676118Y-189931380D01*
X185645571Y-189938117D01*
X185614512Y-189941828D01*
X184978565Y-189986298D01*
X184947291Y-189986946D01*
X184916104Y-189984526D01*
X184885305Y-189979060D01*
X184855189Y-189970602D01*
X184826048Y-189959233D01*
X184798161Y-189945062D01*
X184771798Y-189928227D01*
X184747211Y-189908888D01*
X184724639Y-189887232D01*
X184704298Y-189863468D01*
X184686384Y-189837825D01*
X184671070Y-189810550D01*
X184658503Y-189781904D01*
X184648804Y-189752165D01*
X184642067Y-189721619D01*
X184638356Y-189690559D01*
X184588655Y-188979795D01*
X184588007Y-188948521D01*
X184590427Y-188917334D01*
X184595893Y-188886534D01*
X184604351Y-188856419D01*
X184615720Y-188827278D01*
X184629891Y-188799391D01*
X184646727Y-188773027D01*
X184666065Y-188748441D01*
X184687721Y-188725869D01*
X184711485Y-188705528D01*
X184737128Y-188687614D01*
X184764404Y-188672300D01*
X184793049Y-188659733D01*
X184822788Y-188650034D01*
X184853335Y-188643297D01*
X184884394Y-188639586D01*
X185520341Y-188595116D01*
X185551615Y-188594468D01*
X185582802Y-188596888D01*
X185582802Y-188596888D01*
G37*
D15*
X185249453Y-189290707D03*
G04 #@! TD*
D12*
G04 #@! TO.C,C16*
G36*
X183892219Y-187136820D02*
X183923018Y-187142286D01*
X183953134Y-187150744D01*
X183982275Y-187162113D01*
X184010162Y-187176284D01*
X184036525Y-187193119D01*
X184061112Y-187212458D01*
X184083684Y-187234114D01*
X184104025Y-187257878D01*
X184121939Y-187283521D01*
X184137253Y-187310796D01*
X184149820Y-187339442D01*
X184159519Y-187369181D01*
X184166256Y-187399727D01*
X184169967Y-187430787D01*
X184219668Y-188141551D01*
X184220316Y-188172825D01*
X184217896Y-188204012D01*
X184212430Y-188234812D01*
X184203972Y-188264927D01*
X184192603Y-188294068D01*
X184178432Y-188321955D01*
X184161596Y-188348319D01*
X184142258Y-188372905D01*
X184120602Y-188395477D01*
X184096838Y-188415818D01*
X184071195Y-188433732D01*
X184043919Y-188449046D01*
X184015274Y-188461613D01*
X183985535Y-188471312D01*
X183954988Y-188478049D01*
X183923929Y-188481760D01*
X183287982Y-188526230D01*
X183256708Y-188526878D01*
X183225521Y-188524458D01*
X183194722Y-188518992D01*
X183164606Y-188510534D01*
X183135465Y-188499165D01*
X183107578Y-188484994D01*
X183081215Y-188468159D01*
X183056628Y-188448820D01*
X183034056Y-188427164D01*
X183013715Y-188403400D01*
X182995801Y-188377757D01*
X182980487Y-188350482D01*
X182967920Y-188321836D01*
X182958221Y-188292097D01*
X182951484Y-188261551D01*
X182947773Y-188230491D01*
X182898072Y-187519727D01*
X182897424Y-187488453D01*
X182899844Y-187457266D01*
X182905310Y-187426466D01*
X182913768Y-187396351D01*
X182925137Y-187367210D01*
X182939308Y-187339323D01*
X182956144Y-187312959D01*
X182975482Y-187288373D01*
X182997138Y-187265801D01*
X183020902Y-187245460D01*
X183046545Y-187227546D01*
X183073821Y-187212232D01*
X183102466Y-187199665D01*
X183132205Y-187189966D01*
X183162752Y-187183229D01*
X183193811Y-187179518D01*
X183829758Y-187135048D01*
X183861032Y-187134400D01*
X183892219Y-187136820D01*
X183892219Y-187136820D01*
G37*
D15*
X183558870Y-187830639D03*
D12*
G36*
X185463383Y-187026954D02*
X185494182Y-187032420D01*
X185524298Y-187040878D01*
X185553439Y-187052247D01*
X185581326Y-187066418D01*
X185607689Y-187083253D01*
X185632276Y-187102592D01*
X185654848Y-187124248D01*
X185675189Y-187148012D01*
X185693103Y-187173655D01*
X185708417Y-187200930D01*
X185720984Y-187229576D01*
X185730683Y-187259315D01*
X185737420Y-187289861D01*
X185741131Y-187320921D01*
X185790832Y-188031685D01*
X185791480Y-188062959D01*
X185789060Y-188094146D01*
X185783594Y-188124946D01*
X185775136Y-188155061D01*
X185763767Y-188184202D01*
X185749596Y-188212089D01*
X185732760Y-188238453D01*
X185713422Y-188263039D01*
X185691766Y-188285611D01*
X185668002Y-188305952D01*
X185642359Y-188323866D01*
X185615083Y-188339180D01*
X185586438Y-188351747D01*
X185556699Y-188361446D01*
X185526152Y-188368183D01*
X185495093Y-188371894D01*
X184859146Y-188416364D01*
X184827872Y-188417012D01*
X184796685Y-188414592D01*
X184765886Y-188409126D01*
X184735770Y-188400668D01*
X184706629Y-188389299D01*
X184678742Y-188375128D01*
X184652379Y-188358293D01*
X184627792Y-188338954D01*
X184605220Y-188317298D01*
X184584879Y-188293534D01*
X184566965Y-188267891D01*
X184551651Y-188240616D01*
X184539084Y-188211970D01*
X184529385Y-188182231D01*
X184522648Y-188151685D01*
X184518937Y-188120625D01*
X184469236Y-187409861D01*
X184468588Y-187378587D01*
X184471008Y-187347400D01*
X184476474Y-187316600D01*
X184484932Y-187286485D01*
X184496301Y-187257344D01*
X184510472Y-187229457D01*
X184527308Y-187203093D01*
X184546646Y-187178507D01*
X184568302Y-187155935D01*
X184592066Y-187135594D01*
X184617709Y-187117680D01*
X184644985Y-187102366D01*
X184673630Y-187089799D01*
X184703369Y-187080100D01*
X184733916Y-187073363D01*
X184764975Y-187069652D01*
X185400922Y-187025182D01*
X185432196Y-187024534D01*
X185463383Y-187026954D01*
X185463383Y-187026954D01*
G37*
D15*
X185130034Y-187720773D03*
G04 #@! TD*
D12*
G04 #@! TO.C,C17*
G36*
X194580884Y-159907274D02*
X194612478Y-159911961D01*
X194643461Y-159919722D01*
X194673534Y-159930482D01*
X194702408Y-159944138D01*
X194729804Y-159960559D01*
X194755459Y-159979586D01*
X194779125Y-160001035D01*
X194800574Y-160024701D01*
X194819601Y-160050356D01*
X194836022Y-160077752D01*
X194849678Y-160106626D01*
X194860438Y-160136699D01*
X194868199Y-160167682D01*
X194872886Y-160199276D01*
X194874453Y-160231178D01*
X194874453Y-161305236D01*
X194872886Y-161337138D01*
X194868199Y-161368732D01*
X194860438Y-161399715D01*
X194849678Y-161429788D01*
X194836022Y-161458662D01*
X194819601Y-161486058D01*
X194800574Y-161511713D01*
X194779125Y-161535379D01*
X194755459Y-161556828D01*
X194729804Y-161575855D01*
X194702408Y-161592276D01*
X194673534Y-161605932D01*
X194643461Y-161616692D01*
X194612478Y-161624453D01*
X194580884Y-161629140D01*
X194548982Y-161630707D01*
X192449924Y-161630707D01*
X192418022Y-161629140D01*
X192386428Y-161624453D01*
X192355445Y-161616692D01*
X192325372Y-161605932D01*
X192296498Y-161592276D01*
X192269102Y-161575855D01*
X192243447Y-161556828D01*
X192219781Y-161535379D01*
X192198332Y-161511713D01*
X192179305Y-161486058D01*
X192162884Y-161458662D01*
X192149228Y-161429788D01*
X192138468Y-161399715D01*
X192130707Y-161368732D01*
X192126020Y-161337138D01*
X192124453Y-161305236D01*
X192124453Y-160231178D01*
X192126020Y-160199276D01*
X192130707Y-160167682D01*
X192138468Y-160136699D01*
X192149228Y-160106626D01*
X192162884Y-160077752D01*
X192179305Y-160050356D01*
X192198332Y-160024701D01*
X192219781Y-160001035D01*
X192243447Y-159979586D01*
X192269102Y-159960559D01*
X192296498Y-159944138D01*
X192325372Y-159930482D01*
X192355445Y-159919722D01*
X192386428Y-159911961D01*
X192418022Y-159907274D01*
X192449924Y-159905707D01*
X194548982Y-159905707D01*
X194580884Y-159907274D01*
X194580884Y-159907274D01*
G37*
D27*
X193499453Y-160768207D03*
D12*
G36*
X194580884Y-156832274D02*
X194612478Y-156836961D01*
X194643461Y-156844722D01*
X194673534Y-156855482D01*
X194702408Y-156869138D01*
X194729804Y-156885559D01*
X194755459Y-156904586D01*
X194779125Y-156926035D01*
X194800574Y-156949701D01*
X194819601Y-156975356D01*
X194836022Y-157002752D01*
X194849678Y-157031626D01*
X194860438Y-157061699D01*
X194868199Y-157092682D01*
X194872886Y-157124276D01*
X194874453Y-157156178D01*
X194874453Y-158230236D01*
X194872886Y-158262138D01*
X194868199Y-158293732D01*
X194860438Y-158324715D01*
X194849678Y-158354788D01*
X194836022Y-158383662D01*
X194819601Y-158411058D01*
X194800574Y-158436713D01*
X194779125Y-158460379D01*
X194755459Y-158481828D01*
X194729804Y-158500855D01*
X194702408Y-158517276D01*
X194673534Y-158530932D01*
X194643461Y-158541692D01*
X194612478Y-158549453D01*
X194580884Y-158554140D01*
X194548982Y-158555707D01*
X192449924Y-158555707D01*
X192418022Y-158554140D01*
X192386428Y-158549453D01*
X192355445Y-158541692D01*
X192325372Y-158530932D01*
X192296498Y-158517276D01*
X192269102Y-158500855D01*
X192243447Y-158481828D01*
X192219781Y-158460379D01*
X192198332Y-158436713D01*
X192179305Y-158411058D01*
X192162884Y-158383662D01*
X192149228Y-158354788D01*
X192138468Y-158324715D01*
X192130707Y-158293732D01*
X192126020Y-158262138D01*
X192124453Y-158230236D01*
X192124453Y-157156178D01*
X192126020Y-157124276D01*
X192130707Y-157092682D01*
X192138468Y-157061699D01*
X192149228Y-157031626D01*
X192162884Y-157002752D01*
X192179305Y-156975356D01*
X192198332Y-156949701D01*
X192219781Y-156926035D01*
X192243447Y-156904586D01*
X192269102Y-156885559D01*
X192296498Y-156869138D01*
X192325372Y-156855482D01*
X192355445Y-156844722D01*
X192386428Y-156836961D01*
X192418022Y-156832274D01*
X192449924Y-156830707D01*
X194548982Y-156830707D01*
X194580884Y-156832274D01*
X194580884Y-156832274D01*
G37*
D27*
X193499453Y-157693207D03*
G04 #@! TD*
D12*
G04 #@! TO.C,L3*
G36*
X188280056Y-169357507D02*
X188311839Y-169363721D01*
X188342859Y-169373020D01*
X188372819Y-169385315D01*
X188401430Y-169400488D01*
X188428415Y-169418392D01*
X188453516Y-169438854D01*
X188476490Y-169461679D01*
X188497117Y-169486645D01*
X188515197Y-169513513D01*
X188530556Y-169542024D01*
X188543047Y-169571902D01*
X188552549Y-169602862D01*
X188558971Y-169634603D01*
X188562251Y-169666821D01*
X188640232Y-171154779D01*
X188640338Y-171187164D01*
X188637269Y-171219402D01*
X188631055Y-171251185D01*
X188621756Y-171282206D01*
X188609461Y-171312166D01*
X188594288Y-171340777D01*
X188576384Y-171367762D01*
X188555922Y-171392863D01*
X188533098Y-171415837D01*
X188508131Y-171436464D01*
X188481263Y-171454544D01*
X188452753Y-171469903D01*
X188422874Y-171482394D01*
X188391915Y-171491896D01*
X188360173Y-171498318D01*
X188327955Y-171501598D01*
X187339312Y-171553410D01*
X187306927Y-171553516D01*
X187274688Y-171550447D01*
X187242905Y-171544233D01*
X187211885Y-171534934D01*
X187181925Y-171522639D01*
X187153314Y-171507466D01*
X187126329Y-171489562D01*
X187101228Y-171469100D01*
X187078254Y-171446275D01*
X187057627Y-171421309D01*
X187039547Y-171394441D01*
X187024188Y-171365930D01*
X187011697Y-171336052D01*
X187002195Y-171305092D01*
X186995773Y-171273351D01*
X186992493Y-171241133D01*
X186914512Y-169753175D01*
X186914406Y-169720790D01*
X186917475Y-169688552D01*
X186923689Y-169656769D01*
X186932988Y-169625748D01*
X186945283Y-169595788D01*
X186960456Y-169567177D01*
X186978360Y-169540192D01*
X186998822Y-169515091D01*
X187021646Y-169492117D01*
X187046613Y-169471490D01*
X187073481Y-169453410D01*
X187101991Y-169438051D01*
X187131870Y-169425560D01*
X187162829Y-169416058D01*
X187194571Y-169409636D01*
X187226789Y-169406356D01*
X188215432Y-169354544D01*
X188247817Y-169354438D01*
X188280056Y-169357507D01*
X188280056Y-169357507D01*
G37*
D28*
X187777372Y-170453977D03*
D12*
G36*
X191076218Y-169210967D02*
X191108001Y-169217181D01*
X191139021Y-169226480D01*
X191168981Y-169238775D01*
X191197592Y-169253948D01*
X191224577Y-169271852D01*
X191249678Y-169292314D01*
X191272652Y-169315139D01*
X191293279Y-169340105D01*
X191311359Y-169366973D01*
X191326718Y-169395484D01*
X191339209Y-169425362D01*
X191348711Y-169456322D01*
X191355133Y-169488063D01*
X191358413Y-169520281D01*
X191436394Y-171008239D01*
X191436500Y-171040624D01*
X191433431Y-171072862D01*
X191427217Y-171104645D01*
X191417918Y-171135666D01*
X191405623Y-171165626D01*
X191390450Y-171194237D01*
X191372546Y-171221222D01*
X191352084Y-171246323D01*
X191329260Y-171269297D01*
X191304293Y-171289924D01*
X191277425Y-171308004D01*
X191248915Y-171323363D01*
X191219036Y-171335854D01*
X191188077Y-171345356D01*
X191156335Y-171351778D01*
X191124117Y-171355058D01*
X190135474Y-171406870D01*
X190103089Y-171406976D01*
X190070850Y-171403907D01*
X190039067Y-171397693D01*
X190008047Y-171388394D01*
X189978087Y-171376099D01*
X189949476Y-171360926D01*
X189922491Y-171343022D01*
X189897390Y-171322560D01*
X189874416Y-171299735D01*
X189853789Y-171274769D01*
X189835709Y-171247901D01*
X189820350Y-171219390D01*
X189807859Y-171189512D01*
X189798357Y-171158552D01*
X189791935Y-171126811D01*
X189788655Y-171094593D01*
X189710674Y-169606635D01*
X189710568Y-169574250D01*
X189713637Y-169542012D01*
X189719851Y-169510229D01*
X189729150Y-169479208D01*
X189741445Y-169449248D01*
X189756618Y-169420637D01*
X189774522Y-169393652D01*
X189794984Y-169368551D01*
X189817808Y-169345577D01*
X189842775Y-169324950D01*
X189869643Y-169306870D01*
X189898153Y-169291511D01*
X189928032Y-169279020D01*
X189958991Y-169269518D01*
X189990733Y-169263096D01*
X190022951Y-169259816D01*
X191011594Y-169208004D01*
X191043979Y-169207898D01*
X191076218Y-169210967D01*
X191076218Y-169210967D01*
G37*
D28*
X190573534Y-170307437D03*
G04 #@! TD*
D29*
G04 #@! TO.C,Q1*
X182749453Y-177850707D03*
X182749453Y-179750707D03*
X184749453Y-178800707D03*
G04 #@! TD*
D12*
G04 #@! TO.C,R15*
G36*
X181549396Y-175239862D02*
X181582765Y-175244812D01*
X181615488Y-175253009D01*
X181647250Y-175264373D01*
X181677746Y-175278797D01*
X181706680Y-175296139D01*
X181733776Y-175316235D01*
X181758771Y-175338889D01*
X181781425Y-175363884D01*
X181801521Y-175390980D01*
X181818863Y-175419914D01*
X181833287Y-175450410D01*
X181844651Y-175482172D01*
X181852848Y-175514895D01*
X181857798Y-175548264D01*
X181859453Y-175581957D01*
X181859453Y-176269457D01*
X181857798Y-176303150D01*
X181852848Y-176336519D01*
X181844651Y-176369242D01*
X181833287Y-176401004D01*
X181818863Y-176431500D01*
X181801521Y-176460434D01*
X181781425Y-176487530D01*
X181758771Y-176512525D01*
X181733776Y-176535179D01*
X181706680Y-176555275D01*
X181677746Y-176572617D01*
X181647250Y-176587041D01*
X181615488Y-176598405D01*
X181582765Y-176606602D01*
X181549396Y-176611552D01*
X181515703Y-176613207D01*
X180403203Y-176613207D01*
X180369510Y-176611552D01*
X180336141Y-176606602D01*
X180303418Y-176598405D01*
X180271656Y-176587041D01*
X180241160Y-176572617D01*
X180212226Y-176555275D01*
X180185130Y-176535179D01*
X180160135Y-176512525D01*
X180137481Y-176487530D01*
X180117385Y-176460434D01*
X180100043Y-176431500D01*
X180085619Y-176401004D01*
X180074255Y-176369242D01*
X180066058Y-176336519D01*
X180061108Y-176303150D01*
X180059453Y-176269457D01*
X180059453Y-175581957D01*
X180061108Y-175548264D01*
X180066058Y-175514895D01*
X180074255Y-175482172D01*
X180085619Y-175450410D01*
X180100043Y-175419914D01*
X180117385Y-175390980D01*
X180137481Y-175363884D01*
X180160135Y-175338889D01*
X180185130Y-175316235D01*
X180212226Y-175296139D01*
X180241160Y-175278797D01*
X180271656Y-175264373D01*
X180303418Y-175253009D01*
X180336141Y-175244812D01*
X180369510Y-175239862D01*
X180403203Y-175238207D01*
X181515703Y-175238207D01*
X181549396Y-175239862D01*
X181549396Y-175239862D01*
G37*
D30*
X180959453Y-175925707D03*
D12*
G36*
X181549396Y-177114862D02*
X181582765Y-177119812D01*
X181615488Y-177128009D01*
X181647250Y-177139373D01*
X181677746Y-177153797D01*
X181706680Y-177171139D01*
X181733776Y-177191235D01*
X181758771Y-177213889D01*
X181781425Y-177238884D01*
X181801521Y-177265980D01*
X181818863Y-177294914D01*
X181833287Y-177325410D01*
X181844651Y-177357172D01*
X181852848Y-177389895D01*
X181857798Y-177423264D01*
X181859453Y-177456957D01*
X181859453Y-178144457D01*
X181857798Y-178178150D01*
X181852848Y-178211519D01*
X181844651Y-178244242D01*
X181833287Y-178276004D01*
X181818863Y-178306500D01*
X181801521Y-178335434D01*
X181781425Y-178362530D01*
X181758771Y-178387525D01*
X181733776Y-178410179D01*
X181706680Y-178430275D01*
X181677746Y-178447617D01*
X181647250Y-178462041D01*
X181615488Y-178473405D01*
X181582765Y-178481602D01*
X181549396Y-178486552D01*
X181515703Y-178488207D01*
X180403203Y-178488207D01*
X180369510Y-178486552D01*
X180336141Y-178481602D01*
X180303418Y-178473405D01*
X180271656Y-178462041D01*
X180241160Y-178447617D01*
X180212226Y-178430275D01*
X180185130Y-178410179D01*
X180160135Y-178387525D01*
X180137481Y-178362530D01*
X180117385Y-178335434D01*
X180100043Y-178306500D01*
X180085619Y-178276004D01*
X180074255Y-178244242D01*
X180066058Y-178211519D01*
X180061108Y-178178150D01*
X180059453Y-178144457D01*
X180059453Y-177456957D01*
X180061108Y-177423264D01*
X180066058Y-177389895D01*
X180074255Y-177357172D01*
X180085619Y-177325410D01*
X180100043Y-177294914D01*
X180117385Y-177265980D01*
X180137481Y-177238884D01*
X180160135Y-177213889D01*
X180185130Y-177191235D01*
X180212226Y-177171139D01*
X180241160Y-177153797D01*
X180271656Y-177139373D01*
X180303418Y-177128009D01*
X180336141Y-177119812D01*
X180369510Y-177114862D01*
X180403203Y-177113207D01*
X181515703Y-177113207D01*
X181549396Y-177114862D01*
X181549396Y-177114862D01*
G37*
D30*
X180959453Y-177800707D03*
G04 #@! TD*
D12*
G04 #@! TO.C,JP2*
G36*
X189141946Y-166807242D02*
X189172888Y-166811832D01*
X189203231Y-166819432D01*
X189232683Y-166829970D01*
X189260961Y-166843345D01*
X189287791Y-166859426D01*
X189312916Y-166878060D01*
X189336093Y-166899067D01*
X189357100Y-166922244D01*
X189375734Y-166947369D01*
X189391815Y-166974199D01*
X189405190Y-167002477D01*
X189415728Y-167031929D01*
X189423328Y-167062272D01*
X189427918Y-167093214D01*
X189429453Y-167124457D01*
X189429453Y-167836957D01*
X189427918Y-167868200D01*
X189423328Y-167899142D01*
X189415728Y-167929485D01*
X189405190Y-167958937D01*
X189391815Y-167987215D01*
X189375734Y-168014045D01*
X189357100Y-168039170D01*
X189336093Y-168062347D01*
X189312916Y-168083354D01*
X189287791Y-168101988D01*
X189260961Y-168118069D01*
X189232683Y-168131444D01*
X189203231Y-168141982D01*
X189172888Y-168149582D01*
X189141946Y-168154172D01*
X189110703Y-168155707D01*
X188473203Y-168155707D01*
X188441960Y-168154172D01*
X188411018Y-168149582D01*
X188380675Y-168141982D01*
X188351223Y-168131444D01*
X188322945Y-168118069D01*
X188296115Y-168101988D01*
X188270990Y-168083354D01*
X188247813Y-168062347D01*
X188226806Y-168039170D01*
X188208172Y-168014045D01*
X188192091Y-167987215D01*
X188178716Y-167958937D01*
X188168178Y-167929485D01*
X188160578Y-167899142D01*
X188155988Y-167868200D01*
X188154453Y-167836957D01*
X188154453Y-167124457D01*
X188155988Y-167093214D01*
X188160578Y-167062272D01*
X188168178Y-167031929D01*
X188178716Y-167002477D01*
X188192091Y-166974199D01*
X188208172Y-166947369D01*
X188226806Y-166922244D01*
X188247813Y-166899067D01*
X188270990Y-166878060D01*
X188296115Y-166859426D01*
X188322945Y-166843345D01*
X188351223Y-166829970D01*
X188380675Y-166819432D01*
X188411018Y-166811832D01*
X188441960Y-166807242D01*
X188473203Y-166805707D01*
X189110703Y-166805707D01*
X189141946Y-166807242D01*
X189141946Y-166807242D01*
G37*
D15*
X188791953Y-167480707D03*
D12*
G36*
X190716946Y-166807242D02*
X190747888Y-166811832D01*
X190778231Y-166819432D01*
X190807683Y-166829970D01*
X190835961Y-166843345D01*
X190862791Y-166859426D01*
X190887916Y-166878060D01*
X190911093Y-166899067D01*
X190932100Y-166922244D01*
X190950734Y-166947369D01*
X190966815Y-166974199D01*
X190980190Y-167002477D01*
X190990728Y-167031929D01*
X190998328Y-167062272D01*
X191002918Y-167093214D01*
X191004453Y-167124457D01*
X191004453Y-167836957D01*
X191002918Y-167868200D01*
X190998328Y-167899142D01*
X190990728Y-167929485D01*
X190980190Y-167958937D01*
X190966815Y-167987215D01*
X190950734Y-168014045D01*
X190932100Y-168039170D01*
X190911093Y-168062347D01*
X190887916Y-168083354D01*
X190862791Y-168101988D01*
X190835961Y-168118069D01*
X190807683Y-168131444D01*
X190778231Y-168141982D01*
X190747888Y-168149582D01*
X190716946Y-168154172D01*
X190685703Y-168155707D01*
X190048203Y-168155707D01*
X190016960Y-168154172D01*
X189986018Y-168149582D01*
X189955675Y-168141982D01*
X189926223Y-168131444D01*
X189897945Y-168118069D01*
X189871115Y-168101988D01*
X189845990Y-168083354D01*
X189822813Y-168062347D01*
X189801806Y-168039170D01*
X189783172Y-168014045D01*
X189767091Y-167987215D01*
X189753716Y-167958937D01*
X189743178Y-167929485D01*
X189735578Y-167899142D01*
X189730988Y-167868200D01*
X189729453Y-167836957D01*
X189729453Y-167124457D01*
X189730988Y-167093214D01*
X189735578Y-167062272D01*
X189743178Y-167031929D01*
X189753716Y-167002477D01*
X189767091Y-166974199D01*
X189783172Y-166947369D01*
X189801806Y-166922244D01*
X189822813Y-166899067D01*
X189845990Y-166878060D01*
X189871115Y-166859426D01*
X189897945Y-166843345D01*
X189926223Y-166829970D01*
X189955675Y-166819432D01*
X189986018Y-166811832D01*
X190016960Y-166807242D01*
X190048203Y-166805707D01*
X190685703Y-166805707D01*
X190716946Y-166807242D01*
X190716946Y-166807242D01*
G37*
D15*
X190366953Y-167480707D03*
G04 #@! TD*
D12*
G04 #@! TO.C,JP3*
G36*
X194706946Y-163722242D02*
X194737888Y-163726832D01*
X194768231Y-163734432D01*
X194797683Y-163744970D01*
X194825961Y-163758345D01*
X194852791Y-163774426D01*
X194877916Y-163793060D01*
X194901093Y-163814067D01*
X194922100Y-163837244D01*
X194940734Y-163862369D01*
X194956815Y-163889199D01*
X194970190Y-163917477D01*
X194980728Y-163946929D01*
X194988328Y-163977272D01*
X194992918Y-164008214D01*
X194994453Y-164039457D01*
X194994453Y-164676957D01*
X194992918Y-164708200D01*
X194988328Y-164739142D01*
X194980728Y-164769485D01*
X194970190Y-164798937D01*
X194956815Y-164827215D01*
X194940734Y-164854045D01*
X194922100Y-164879170D01*
X194901093Y-164902347D01*
X194877916Y-164923354D01*
X194852791Y-164941988D01*
X194825961Y-164958069D01*
X194797683Y-164971444D01*
X194768231Y-164981982D01*
X194737888Y-164989582D01*
X194706946Y-164994172D01*
X194675703Y-164995707D01*
X193963203Y-164995707D01*
X193931960Y-164994172D01*
X193901018Y-164989582D01*
X193870675Y-164981982D01*
X193841223Y-164971444D01*
X193812945Y-164958069D01*
X193786115Y-164941988D01*
X193760990Y-164923354D01*
X193737813Y-164902347D01*
X193716806Y-164879170D01*
X193698172Y-164854045D01*
X193682091Y-164827215D01*
X193668716Y-164798937D01*
X193658178Y-164769485D01*
X193650578Y-164739142D01*
X193645988Y-164708200D01*
X193644453Y-164676957D01*
X193644453Y-164039457D01*
X193645988Y-164008214D01*
X193650578Y-163977272D01*
X193658178Y-163946929D01*
X193668716Y-163917477D01*
X193682091Y-163889199D01*
X193698172Y-163862369D01*
X193716806Y-163837244D01*
X193737813Y-163814067D01*
X193760990Y-163793060D01*
X193786115Y-163774426D01*
X193812945Y-163758345D01*
X193841223Y-163744970D01*
X193870675Y-163734432D01*
X193901018Y-163726832D01*
X193931960Y-163722242D01*
X193963203Y-163720707D01*
X194675703Y-163720707D01*
X194706946Y-163722242D01*
X194706946Y-163722242D01*
G37*
D15*
X194319453Y-164358207D03*
D12*
G36*
X194706946Y-162147242D02*
X194737888Y-162151832D01*
X194768231Y-162159432D01*
X194797683Y-162169970D01*
X194825961Y-162183345D01*
X194852791Y-162199426D01*
X194877916Y-162218060D01*
X194901093Y-162239067D01*
X194922100Y-162262244D01*
X194940734Y-162287369D01*
X194956815Y-162314199D01*
X194970190Y-162342477D01*
X194980728Y-162371929D01*
X194988328Y-162402272D01*
X194992918Y-162433214D01*
X194994453Y-162464457D01*
X194994453Y-163101957D01*
X194992918Y-163133200D01*
X194988328Y-163164142D01*
X194980728Y-163194485D01*
X194970190Y-163223937D01*
X194956815Y-163252215D01*
X194940734Y-163279045D01*
X194922100Y-163304170D01*
X194901093Y-163327347D01*
X194877916Y-163348354D01*
X194852791Y-163366988D01*
X194825961Y-163383069D01*
X194797683Y-163396444D01*
X194768231Y-163406982D01*
X194737888Y-163414582D01*
X194706946Y-163419172D01*
X194675703Y-163420707D01*
X193963203Y-163420707D01*
X193931960Y-163419172D01*
X193901018Y-163414582D01*
X193870675Y-163406982D01*
X193841223Y-163396444D01*
X193812945Y-163383069D01*
X193786115Y-163366988D01*
X193760990Y-163348354D01*
X193737813Y-163327347D01*
X193716806Y-163304170D01*
X193698172Y-163279045D01*
X193682091Y-163252215D01*
X193668716Y-163223937D01*
X193658178Y-163194485D01*
X193650578Y-163164142D01*
X193645988Y-163133200D01*
X193644453Y-163101957D01*
X193644453Y-162464457D01*
X193645988Y-162433214D01*
X193650578Y-162402272D01*
X193658178Y-162371929D01*
X193668716Y-162342477D01*
X193682091Y-162314199D01*
X193698172Y-162287369D01*
X193716806Y-162262244D01*
X193737813Y-162239067D01*
X193760990Y-162218060D01*
X193786115Y-162199426D01*
X193812945Y-162183345D01*
X193841223Y-162169970D01*
X193870675Y-162159432D01*
X193901018Y-162151832D01*
X193931960Y-162147242D01*
X193963203Y-162145707D01*
X194675703Y-162145707D01*
X194706946Y-162147242D01*
X194706946Y-162147242D01*
G37*
D15*
X194319453Y-162783207D03*
G04 #@! TD*
D12*
G04 #@! TO.C,JP5*
G36*
X193216946Y-162167242D02*
X193247888Y-162171832D01*
X193278231Y-162179432D01*
X193307683Y-162189970D01*
X193335961Y-162203345D01*
X193362791Y-162219426D01*
X193387916Y-162238060D01*
X193411093Y-162259067D01*
X193432100Y-162282244D01*
X193450734Y-162307369D01*
X193466815Y-162334199D01*
X193480190Y-162362477D01*
X193490728Y-162391929D01*
X193498328Y-162422272D01*
X193502918Y-162453214D01*
X193504453Y-162484457D01*
X193504453Y-163121957D01*
X193502918Y-163153200D01*
X193498328Y-163184142D01*
X193490728Y-163214485D01*
X193480190Y-163243937D01*
X193466815Y-163272215D01*
X193450734Y-163299045D01*
X193432100Y-163324170D01*
X193411093Y-163347347D01*
X193387916Y-163368354D01*
X193362791Y-163386988D01*
X193335961Y-163403069D01*
X193307683Y-163416444D01*
X193278231Y-163426982D01*
X193247888Y-163434582D01*
X193216946Y-163439172D01*
X193185703Y-163440707D01*
X192473203Y-163440707D01*
X192441960Y-163439172D01*
X192411018Y-163434582D01*
X192380675Y-163426982D01*
X192351223Y-163416444D01*
X192322945Y-163403069D01*
X192296115Y-163386988D01*
X192270990Y-163368354D01*
X192247813Y-163347347D01*
X192226806Y-163324170D01*
X192208172Y-163299045D01*
X192192091Y-163272215D01*
X192178716Y-163243937D01*
X192168178Y-163214485D01*
X192160578Y-163184142D01*
X192155988Y-163153200D01*
X192154453Y-163121957D01*
X192154453Y-162484457D01*
X192155988Y-162453214D01*
X192160578Y-162422272D01*
X192168178Y-162391929D01*
X192178716Y-162362477D01*
X192192091Y-162334199D01*
X192208172Y-162307369D01*
X192226806Y-162282244D01*
X192247813Y-162259067D01*
X192270990Y-162238060D01*
X192296115Y-162219426D01*
X192322945Y-162203345D01*
X192351223Y-162189970D01*
X192380675Y-162179432D01*
X192411018Y-162171832D01*
X192441960Y-162167242D01*
X192473203Y-162165707D01*
X193185703Y-162165707D01*
X193216946Y-162167242D01*
X193216946Y-162167242D01*
G37*
D15*
X192829453Y-162803207D03*
D12*
G36*
X193216946Y-163742242D02*
X193247888Y-163746832D01*
X193278231Y-163754432D01*
X193307683Y-163764970D01*
X193335961Y-163778345D01*
X193362791Y-163794426D01*
X193387916Y-163813060D01*
X193411093Y-163834067D01*
X193432100Y-163857244D01*
X193450734Y-163882369D01*
X193466815Y-163909199D01*
X193480190Y-163937477D01*
X193490728Y-163966929D01*
X193498328Y-163997272D01*
X193502918Y-164028214D01*
X193504453Y-164059457D01*
X193504453Y-164696957D01*
X193502918Y-164728200D01*
X193498328Y-164759142D01*
X193490728Y-164789485D01*
X193480190Y-164818937D01*
X193466815Y-164847215D01*
X193450734Y-164874045D01*
X193432100Y-164899170D01*
X193411093Y-164922347D01*
X193387916Y-164943354D01*
X193362791Y-164961988D01*
X193335961Y-164978069D01*
X193307683Y-164991444D01*
X193278231Y-165001982D01*
X193247888Y-165009582D01*
X193216946Y-165014172D01*
X193185703Y-165015707D01*
X192473203Y-165015707D01*
X192441960Y-165014172D01*
X192411018Y-165009582D01*
X192380675Y-165001982D01*
X192351223Y-164991444D01*
X192322945Y-164978069D01*
X192296115Y-164961988D01*
X192270990Y-164943354D01*
X192247813Y-164922347D01*
X192226806Y-164899170D01*
X192208172Y-164874045D01*
X192192091Y-164847215D01*
X192178716Y-164818937D01*
X192168178Y-164789485D01*
X192160578Y-164759142D01*
X192155988Y-164728200D01*
X192154453Y-164696957D01*
X192154453Y-164059457D01*
X192155988Y-164028214D01*
X192160578Y-163997272D01*
X192168178Y-163966929D01*
X192178716Y-163937477D01*
X192192091Y-163909199D01*
X192208172Y-163882369D01*
X192226806Y-163857244D01*
X192247813Y-163834067D01*
X192270990Y-163813060D01*
X192296115Y-163794426D01*
X192322945Y-163778345D01*
X192351223Y-163764970D01*
X192380675Y-163754432D01*
X192411018Y-163746832D01*
X192441960Y-163742242D01*
X192473203Y-163740707D01*
X193185703Y-163740707D01*
X193216946Y-163742242D01*
X193216946Y-163742242D01*
G37*
D15*
X192829453Y-164378207D03*
G04 #@! TD*
D12*
G04 #@! TO.C,R16*
G36*
X193616946Y-174737242D02*
X193647888Y-174741832D01*
X193678231Y-174749432D01*
X193707683Y-174759970D01*
X193735961Y-174773345D01*
X193762791Y-174789426D01*
X193787916Y-174808060D01*
X193811093Y-174829067D01*
X193832100Y-174852244D01*
X193850734Y-174877369D01*
X193866815Y-174904199D01*
X193880190Y-174932477D01*
X193890728Y-174961929D01*
X193898328Y-174992272D01*
X193902918Y-175023214D01*
X193904453Y-175054457D01*
X193904453Y-175691957D01*
X193902918Y-175723200D01*
X193898328Y-175754142D01*
X193890728Y-175784485D01*
X193880190Y-175813937D01*
X193866815Y-175842215D01*
X193850734Y-175869045D01*
X193832100Y-175894170D01*
X193811093Y-175917347D01*
X193787916Y-175938354D01*
X193762791Y-175956988D01*
X193735961Y-175973069D01*
X193707683Y-175986444D01*
X193678231Y-175996982D01*
X193647888Y-176004582D01*
X193616946Y-176009172D01*
X193585703Y-176010707D01*
X192873203Y-176010707D01*
X192841960Y-176009172D01*
X192811018Y-176004582D01*
X192780675Y-175996982D01*
X192751223Y-175986444D01*
X192722945Y-175973069D01*
X192696115Y-175956988D01*
X192670990Y-175938354D01*
X192647813Y-175917347D01*
X192626806Y-175894170D01*
X192608172Y-175869045D01*
X192592091Y-175842215D01*
X192578716Y-175813937D01*
X192568178Y-175784485D01*
X192560578Y-175754142D01*
X192555988Y-175723200D01*
X192554453Y-175691957D01*
X192554453Y-175054457D01*
X192555988Y-175023214D01*
X192560578Y-174992272D01*
X192568178Y-174961929D01*
X192578716Y-174932477D01*
X192592091Y-174904199D01*
X192608172Y-174877369D01*
X192626806Y-174852244D01*
X192647813Y-174829067D01*
X192670990Y-174808060D01*
X192696115Y-174789426D01*
X192722945Y-174773345D01*
X192751223Y-174759970D01*
X192780675Y-174749432D01*
X192811018Y-174741832D01*
X192841960Y-174737242D01*
X192873203Y-174735707D01*
X193585703Y-174735707D01*
X193616946Y-174737242D01*
X193616946Y-174737242D01*
G37*
D15*
X193229453Y-175373207D03*
D12*
G36*
X193616946Y-176312242D02*
X193647888Y-176316832D01*
X193678231Y-176324432D01*
X193707683Y-176334970D01*
X193735961Y-176348345D01*
X193762791Y-176364426D01*
X193787916Y-176383060D01*
X193811093Y-176404067D01*
X193832100Y-176427244D01*
X193850734Y-176452369D01*
X193866815Y-176479199D01*
X193880190Y-176507477D01*
X193890728Y-176536929D01*
X193898328Y-176567272D01*
X193902918Y-176598214D01*
X193904453Y-176629457D01*
X193904453Y-177266957D01*
X193902918Y-177298200D01*
X193898328Y-177329142D01*
X193890728Y-177359485D01*
X193880190Y-177388937D01*
X193866815Y-177417215D01*
X193850734Y-177444045D01*
X193832100Y-177469170D01*
X193811093Y-177492347D01*
X193787916Y-177513354D01*
X193762791Y-177531988D01*
X193735961Y-177548069D01*
X193707683Y-177561444D01*
X193678231Y-177571982D01*
X193647888Y-177579582D01*
X193616946Y-177584172D01*
X193585703Y-177585707D01*
X192873203Y-177585707D01*
X192841960Y-177584172D01*
X192811018Y-177579582D01*
X192780675Y-177571982D01*
X192751223Y-177561444D01*
X192722945Y-177548069D01*
X192696115Y-177531988D01*
X192670990Y-177513354D01*
X192647813Y-177492347D01*
X192626806Y-177469170D01*
X192608172Y-177444045D01*
X192592091Y-177417215D01*
X192578716Y-177388937D01*
X192568178Y-177359485D01*
X192560578Y-177329142D01*
X192555988Y-177298200D01*
X192554453Y-177266957D01*
X192554453Y-176629457D01*
X192555988Y-176598214D01*
X192560578Y-176567272D01*
X192568178Y-176536929D01*
X192578716Y-176507477D01*
X192592091Y-176479199D01*
X192608172Y-176452369D01*
X192626806Y-176427244D01*
X192647813Y-176404067D01*
X192670990Y-176383060D01*
X192696115Y-176364426D01*
X192722945Y-176348345D01*
X192751223Y-176334970D01*
X192780675Y-176324432D01*
X192811018Y-176316832D01*
X192841960Y-176312242D01*
X192873203Y-176310707D01*
X193585703Y-176310707D01*
X193616946Y-176312242D01*
X193616946Y-176312242D01*
G37*
D15*
X193229453Y-176948207D03*
G04 #@! TD*
D12*
G04 #@! TO.C,R17*
G36*
X193626946Y-171877242D02*
X193657888Y-171881832D01*
X193688231Y-171889432D01*
X193717683Y-171899970D01*
X193745961Y-171913345D01*
X193772791Y-171929426D01*
X193797916Y-171948060D01*
X193821093Y-171969067D01*
X193842100Y-171992244D01*
X193860734Y-172017369D01*
X193876815Y-172044199D01*
X193890190Y-172072477D01*
X193900728Y-172101929D01*
X193908328Y-172132272D01*
X193912918Y-172163214D01*
X193914453Y-172194457D01*
X193914453Y-172831957D01*
X193912918Y-172863200D01*
X193908328Y-172894142D01*
X193900728Y-172924485D01*
X193890190Y-172953937D01*
X193876815Y-172982215D01*
X193860734Y-173009045D01*
X193842100Y-173034170D01*
X193821093Y-173057347D01*
X193797916Y-173078354D01*
X193772791Y-173096988D01*
X193745961Y-173113069D01*
X193717683Y-173126444D01*
X193688231Y-173136982D01*
X193657888Y-173144582D01*
X193626946Y-173149172D01*
X193595703Y-173150707D01*
X192883203Y-173150707D01*
X192851960Y-173149172D01*
X192821018Y-173144582D01*
X192790675Y-173136982D01*
X192761223Y-173126444D01*
X192732945Y-173113069D01*
X192706115Y-173096988D01*
X192680990Y-173078354D01*
X192657813Y-173057347D01*
X192636806Y-173034170D01*
X192618172Y-173009045D01*
X192602091Y-172982215D01*
X192588716Y-172953937D01*
X192578178Y-172924485D01*
X192570578Y-172894142D01*
X192565988Y-172863200D01*
X192564453Y-172831957D01*
X192564453Y-172194457D01*
X192565988Y-172163214D01*
X192570578Y-172132272D01*
X192578178Y-172101929D01*
X192588716Y-172072477D01*
X192602091Y-172044199D01*
X192618172Y-172017369D01*
X192636806Y-171992244D01*
X192657813Y-171969067D01*
X192680990Y-171948060D01*
X192706115Y-171929426D01*
X192732945Y-171913345D01*
X192761223Y-171899970D01*
X192790675Y-171889432D01*
X192821018Y-171881832D01*
X192851960Y-171877242D01*
X192883203Y-171875707D01*
X193595703Y-171875707D01*
X193626946Y-171877242D01*
X193626946Y-171877242D01*
G37*
D15*
X193239453Y-172513207D03*
D12*
G36*
X193626946Y-173452242D02*
X193657888Y-173456832D01*
X193688231Y-173464432D01*
X193717683Y-173474970D01*
X193745961Y-173488345D01*
X193772791Y-173504426D01*
X193797916Y-173523060D01*
X193821093Y-173544067D01*
X193842100Y-173567244D01*
X193860734Y-173592369D01*
X193876815Y-173619199D01*
X193890190Y-173647477D01*
X193900728Y-173676929D01*
X193908328Y-173707272D01*
X193912918Y-173738214D01*
X193914453Y-173769457D01*
X193914453Y-174406957D01*
X193912918Y-174438200D01*
X193908328Y-174469142D01*
X193900728Y-174499485D01*
X193890190Y-174528937D01*
X193876815Y-174557215D01*
X193860734Y-174584045D01*
X193842100Y-174609170D01*
X193821093Y-174632347D01*
X193797916Y-174653354D01*
X193772791Y-174671988D01*
X193745961Y-174688069D01*
X193717683Y-174701444D01*
X193688231Y-174711982D01*
X193657888Y-174719582D01*
X193626946Y-174724172D01*
X193595703Y-174725707D01*
X192883203Y-174725707D01*
X192851960Y-174724172D01*
X192821018Y-174719582D01*
X192790675Y-174711982D01*
X192761223Y-174701444D01*
X192732945Y-174688069D01*
X192706115Y-174671988D01*
X192680990Y-174653354D01*
X192657813Y-174632347D01*
X192636806Y-174609170D01*
X192618172Y-174584045D01*
X192602091Y-174557215D01*
X192588716Y-174528937D01*
X192578178Y-174499485D01*
X192570578Y-174469142D01*
X192565988Y-174438200D01*
X192564453Y-174406957D01*
X192564453Y-173769457D01*
X192565988Y-173738214D01*
X192570578Y-173707272D01*
X192578178Y-173676929D01*
X192588716Y-173647477D01*
X192602091Y-173619199D01*
X192618172Y-173592369D01*
X192636806Y-173567244D01*
X192657813Y-173544067D01*
X192680990Y-173523060D01*
X192706115Y-173504426D01*
X192732945Y-173488345D01*
X192761223Y-173474970D01*
X192790675Y-173464432D01*
X192821018Y-173456832D01*
X192851960Y-173452242D01*
X192883203Y-173450707D01*
X193595703Y-173450707D01*
X193626946Y-173452242D01*
X193626946Y-173452242D01*
G37*
D15*
X193239453Y-174088207D03*
G04 #@! TD*
D31*
G04 #@! TO.C,U10*
X191959453Y-165560707D03*
X191959453Y-166460707D03*
X191959453Y-167360707D03*
X191959453Y-168260707D03*
X193159453Y-168260707D03*
X193159453Y-167360707D03*
X193159453Y-166460707D03*
X193159453Y-165560707D03*
G04 #@! TD*
M02*
