G04 #@! TF.GenerationSoftware,KiCad,Pcbnew,(5.0.0)*
G04 #@! TF.CreationDate,2020-01-29T13:42:07+01:00*
G04 #@! TF.ProjectId,Insole_PCB,496E736F6C655F5043422E6B69636164,rev?*
G04 #@! TF.SameCoordinates,Original*
G04 #@! TF.FileFunction,Legend,Top*
G04 #@! TF.FilePolarity,Positive*
%FSLAX46Y46*%
G04 Gerber Fmt 4.6, Leading zero omitted, Abs format (unit mm)*
G04 Created by KiCad (PCBNEW (5.0.0)) date 01/29/20 13:42:07*
%MOMM*%
%LPD*%
G01*
G04 APERTURE LIST*
%ADD10C,0.100000*%
%ADD11C,0.120000*%
%ADD12C,0.010000*%
%ADD13C,0.150000*%
G04 APERTURE END LIST*
D10*
G04 #@! TO.C,S9*
X171319453Y-57120707D02*
G75*
G03X171319453Y-57120707I-8500000J0D01*
G01*
D11*
G04 #@! TO.C,J2*
X191893929Y-188022519D02*
X192587236Y-187974038D01*
X191846146Y-187339188D02*
X191893929Y-188022519D01*
X193098464Y-186564944D02*
X193184977Y-186558895D01*
X191798363Y-186655856D02*
X191884876Y-186649807D01*
X193184977Y-186558895D02*
X193123940Y-185686026D01*
X191798363Y-186655856D02*
X191737326Y-185782988D01*
X192824165Y-185706989D02*
X193123940Y-185686026D01*
X191737326Y-185782988D02*
X192037101Y-185762026D01*
D12*
G04 #@! TO.C,J1*
X188360969Y-195022742D02*
X186212278Y-195097776D01*
X188651745Y-201916794D02*
X186453085Y-201993573D01*
X187978346Y-202690767D02*
X187652035Y-193346462D01*
D11*
X193185329Y-194203875D02*
X189957297Y-194316601D01*
X189070092Y-195558320D02*
X189107783Y-196637662D01*
X189254234Y-200544932D02*
X189291926Y-201624274D01*
X193471505Y-202398880D02*
X190243473Y-202511606D01*
X189107783Y-196637662D02*
X188678045Y-196652669D01*
D10*
G04 #@! TO.C,S0*
X205369453Y-117180707D02*
G75*
G03X205369453Y-117180707I-8500000J0D01*
G01*
G04 #@! TO.C,S1*
X211889453Y-99940707D02*
G75*
G03X211889453Y-99940707I-8500000J0D01*
G01*
G04 #@! TO.C,S2*
X213699453Y-80640707D02*
G75*
G03X213699453Y-80640707I-8500000J0D01*
G01*
G04 #@! TO.C,S3*
X213409453Y-61860707D02*
G75*
G03X213409453Y-61860707I-8500000J0D01*
G01*
G04 #@! TO.C,S4*
X204209453Y-45490707D02*
G75*
G03X204209453Y-45490707I-8500000J0D01*
G01*
G04 #@! TO.C,S5*
X195699453Y-62480707D02*
G75*
G03X195699453Y-62480707I-8500000J0D01*
G01*
G04 #@! TO.C,S6*
X195749453Y-82940707D02*
G75*
G03X195749453Y-82940707I-8500000J0D01*
G01*
G04 #@! TO.C,S7*
X189049453Y-99590707D02*
G75*
G03X189049453Y-99590707I-8500000J0D01*
G01*
G04 #@! TO.C,S8*
X185899453Y-46730707D02*
G75*
G03X185899453Y-46730707I-8500000J0D01*
G01*
G04 #@! TO.C,S10*
X180669453Y-72690707D02*
G75*
G03X180669453Y-72690707I-8500000J0D01*
G01*
G04 #@! TO.C,S11*
X159239453Y-70580707D02*
G75*
G03X159239453Y-70580707I-8500000J0D01*
G01*
G04 #@! TO.C,S12*
X171419453Y-88200707D02*
G75*
G03X171419453Y-88200707I-8500000J0D01*
G01*
G04 #@! TO.C,S13*
X150049453Y-87570707D02*
G75*
G03X150049453Y-87570707I-8500000J0D01*
G01*
G04 #@! TO.C,S14*
X183219453Y-117100707D02*
G75*
G03X183219453Y-117100707I-8500000J0D01*
G01*
G04 #@! TO.C,S15*
X166469453Y-105420707D02*
G75*
G03X166469453Y-105420707I-8500000J0D01*
G01*
G04 #@! TO.C,S16*
X146559453Y-106310707D02*
G75*
G03X146559453Y-106310707I-8500000J0D01*
G01*
G04 #@! TO.C,S17*
X146849453Y-125500707D02*
G75*
G03X146849453Y-125500707I-8500000J0D01*
G01*
G04 #@! TO.C,S18*
X166239453Y-124150707D02*
G75*
G03X166239453Y-124150707I-8500000J0D01*
G01*
G04 #@! TO.C,S19*
X168469453Y-143910707D02*
G75*
G03X168469453Y-143910707I-8500000J0D01*
G01*
G04 #@! TO.C,S20*
X150039453Y-144690707D02*
G75*
G03X150039453Y-144690707I-8500000J0D01*
G01*
G04 #@! TO.C,S21*
X155729453Y-163100707D02*
G75*
G03X155729453Y-163100707I-8500000J0D01*
G01*
G04 #@! TO.C,S22*
X160589453Y-183560707D02*
G75*
G03X160589453Y-183560707I-8500000J0D01*
G01*
G04 #@! TO.C,S23*
X161789453Y-202770707D02*
G75*
G03X161789453Y-202770707I-8500000J0D01*
G01*
G04 #@! TO.C,S24*
X196399453Y-223460707D02*
G75*
G03X196399453Y-223460707I-8500000J0D01*
G01*
G04 #@! TO.C,S25*
X199889453Y-241430707D02*
G75*
G03X199889453Y-241430707I-8500000J0D01*
G01*
G04 #@! TO.C,S26*
X189929453Y-257950707D02*
G75*
G03X189929453Y-257950707I-8500000J0D01*
G01*
G04 #@! TO.C,S27*
X171229453Y-258030707D02*
G75*
G03X171229453Y-258030707I-8500000J0D01*
G01*
G04 #@! TO.C,S28*
X162369453Y-241240707D02*
G75*
G03X162369453Y-241240707I-8500000J0D01*
G01*
G04 #@! TO.C,S29*
X180589453Y-239240707D02*
G75*
G03X180589453Y-239240707I-8500000J0D01*
G01*
G04 #@! TO.C,S30*
X162539453Y-223380707D02*
G75*
G03X162539453Y-223380707I-8500000J0D01*
G01*
G04 #@! TO.C,S31*
X179389453Y-217960707D02*
G75*
G03X179389453Y-217960707I-8500000J0D01*
G01*
G04 #@! TO.C,S9*
D13*
X161557548Y-66825468D02*
X161700405Y-66873087D01*
X161938500Y-66873087D01*
X162033738Y-66825468D01*
X162081357Y-66777849D01*
X162128976Y-66682611D01*
X162128976Y-66587373D01*
X162081357Y-66492135D01*
X162033738Y-66444516D01*
X161938500Y-66396897D01*
X161748024Y-66349278D01*
X161652786Y-66301659D01*
X161605167Y-66254040D01*
X161557548Y-66158802D01*
X161557548Y-66063564D01*
X161605167Y-65968326D01*
X161652786Y-65920707D01*
X161748024Y-65873087D01*
X161986119Y-65873087D01*
X162128976Y-65920707D01*
X162605167Y-66873087D02*
X162795643Y-66873087D01*
X162890881Y-66825468D01*
X162938500Y-66777849D01*
X163033738Y-66634992D01*
X163081357Y-66444516D01*
X163081357Y-66063564D01*
X163033738Y-65968326D01*
X162986119Y-65920707D01*
X162890881Y-65873087D01*
X162700405Y-65873087D01*
X162605167Y-65920707D01*
X162557548Y-65968326D01*
X162509929Y-66063564D01*
X162509929Y-66301659D01*
X162557548Y-66396897D01*
X162605167Y-66444516D01*
X162700405Y-66492135D01*
X162890881Y-66492135D01*
X162986119Y-66444516D01*
X163033738Y-66396897D01*
X163081357Y-66301659D01*
G04 #@! TO.C,J2*
X192277551Y-188323874D02*
X192327377Y-189036419D01*
X192289839Y-189182250D01*
X192201477Y-189283900D01*
X192062289Y-189341368D01*
X191967283Y-189348012D01*
X192711722Y-188388984D02*
X192755903Y-188338159D01*
X192847588Y-188284013D01*
X193085103Y-188267404D01*
X193183431Y-188308264D01*
X193234256Y-188352445D01*
X193288402Y-188444129D01*
X193295046Y-188539135D01*
X193257508Y-188684966D01*
X192727332Y-189294864D01*
X193344872Y-189251681D01*
G04 #@! TO.C,J1*
X183470405Y-198312091D02*
X182756554Y-198337019D01*
X182612122Y-198294414D01*
X182513618Y-198202558D01*
X182461043Y-198061450D01*
X182457719Y-197966270D01*
X182505913Y-199346381D02*
X182485971Y-198775300D01*
X182495942Y-199060841D02*
X183495333Y-199025941D01*
X183349239Y-198935747D01*
X183250735Y-198843890D01*
X183199821Y-198750372D01*
G04 #@! TO.C,S0*
X195607548Y-126885468D02*
X195750405Y-126933087D01*
X195988500Y-126933087D01*
X196083738Y-126885468D01*
X196131357Y-126837849D01*
X196178976Y-126742611D01*
X196178976Y-126647373D01*
X196131357Y-126552135D01*
X196083738Y-126504516D01*
X195988500Y-126456897D01*
X195798024Y-126409278D01*
X195702786Y-126361659D01*
X195655167Y-126314040D01*
X195607548Y-126218802D01*
X195607548Y-126123564D01*
X195655167Y-126028326D01*
X195702786Y-125980707D01*
X195798024Y-125933087D01*
X196036119Y-125933087D01*
X196178976Y-125980707D01*
X196798024Y-125933087D02*
X196893262Y-125933087D01*
X196988500Y-125980707D01*
X197036119Y-126028326D01*
X197083738Y-126123564D01*
X197131357Y-126314040D01*
X197131357Y-126552135D01*
X197083738Y-126742611D01*
X197036119Y-126837849D01*
X196988500Y-126885468D01*
X196893262Y-126933087D01*
X196798024Y-126933087D01*
X196702786Y-126885468D01*
X196655167Y-126837849D01*
X196607548Y-126742611D01*
X196559929Y-126552135D01*
X196559929Y-126314040D01*
X196607548Y-126123564D01*
X196655167Y-126028326D01*
X196702786Y-125980707D01*
X196798024Y-125933087D01*
G04 #@! TO.C,S1*
X202127548Y-109645468D02*
X202270405Y-109693087D01*
X202508500Y-109693087D01*
X202603738Y-109645468D01*
X202651357Y-109597849D01*
X202698976Y-109502611D01*
X202698976Y-109407373D01*
X202651357Y-109312135D01*
X202603738Y-109264516D01*
X202508500Y-109216897D01*
X202318024Y-109169278D01*
X202222786Y-109121659D01*
X202175167Y-109074040D01*
X202127548Y-108978802D01*
X202127548Y-108883564D01*
X202175167Y-108788326D01*
X202222786Y-108740707D01*
X202318024Y-108693087D01*
X202556119Y-108693087D01*
X202698976Y-108740707D01*
X203651357Y-109693087D02*
X203079929Y-109693087D01*
X203365643Y-109693087D02*
X203365643Y-108693087D01*
X203270405Y-108835945D01*
X203175167Y-108931183D01*
X203079929Y-108978802D01*
G04 #@! TO.C,S2*
X203937548Y-90345468D02*
X204080405Y-90393087D01*
X204318500Y-90393087D01*
X204413738Y-90345468D01*
X204461357Y-90297849D01*
X204508976Y-90202611D01*
X204508976Y-90107373D01*
X204461357Y-90012135D01*
X204413738Y-89964516D01*
X204318500Y-89916897D01*
X204128024Y-89869278D01*
X204032786Y-89821659D01*
X203985167Y-89774040D01*
X203937548Y-89678802D01*
X203937548Y-89583564D01*
X203985167Y-89488326D01*
X204032786Y-89440707D01*
X204128024Y-89393087D01*
X204366119Y-89393087D01*
X204508976Y-89440707D01*
X204889929Y-89488326D02*
X204937548Y-89440707D01*
X205032786Y-89393087D01*
X205270881Y-89393087D01*
X205366119Y-89440707D01*
X205413738Y-89488326D01*
X205461357Y-89583564D01*
X205461357Y-89678802D01*
X205413738Y-89821659D01*
X204842310Y-90393087D01*
X205461357Y-90393087D01*
G04 #@! TO.C,S3*
X203647548Y-71565468D02*
X203790405Y-71613087D01*
X204028500Y-71613087D01*
X204123738Y-71565468D01*
X204171357Y-71517849D01*
X204218976Y-71422611D01*
X204218976Y-71327373D01*
X204171357Y-71232135D01*
X204123738Y-71184516D01*
X204028500Y-71136897D01*
X203838024Y-71089278D01*
X203742786Y-71041659D01*
X203695167Y-70994040D01*
X203647548Y-70898802D01*
X203647548Y-70803564D01*
X203695167Y-70708326D01*
X203742786Y-70660707D01*
X203838024Y-70613087D01*
X204076119Y-70613087D01*
X204218976Y-70660707D01*
X204552310Y-70613087D02*
X205171357Y-70613087D01*
X204838024Y-70994040D01*
X204980881Y-70994040D01*
X205076119Y-71041659D01*
X205123738Y-71089278D01*
X205171357Y-71184516D01*
X205171357Y-71422611D01*
X205123738Y-71517849D01*
X205076119Y-71565468D01*
X204980881Y-71613087D01*
X204695167Y-71613087D01*
X204599929Y-71565468D01*
X204552310Y-71517849D01*
G04 #@! TO.C,S4*
X194447548Y-55195468D02*
X194590405Y-55243087D01*
X194828500Y-55243087D01*
X194923738Y-55195468D01*
X194971357Y-55147849D01*
X195018976Y-55052611D01*
X195018976Y-54957373D01*
X194971357Y-54862135D01*
X194923738Y-54814516D01*
X194828500Y-54766897D01*
X194638024Y-54719278D01*
X194542786Y-54671659D01*
X194495167Y-54624040D01*
X194447548Y-54528802D01*
X194447548Y-54433564D01*
X194495167Y-54338326D01*
X194542786Y-54290707D01*
X194638024Y-54243087D01*
X194876119Y-54243087D01*
X195018976Y-54290707D01*
X195876119Y-54576421D02*
X195876119Y-55243087D01*
X195638024Y-54195468D02*
X195399929Y-54909754D01*
X196018976Y-54909754D01*
G04 #@! TO.C,S5*
X185937548Y-72185468D02*
X186080405Y-72233087D01*
X186318500Y-72233087D01*
X186413738Y-72185468D01*
X186461357Y-72137849D01*
X186508976Y-72042611D01*
X186508976Y-71947373D01*
X186461357Y-71852135D01*
X186413738Y-71804516D01*
X186318500Y-71756897D01*
X186128024Y-71709278D01*
X186032786Y-71661659D01*
X185985167Y-71614040D01*
X185937548Y-71518802D01*
X185937548Y-71423564D01*
X185985167Y-71328326D01*
X186032786Y-71280707D01*
X186128024Y-71233087D01*
X186366119Y-71233087D01*
X186508976Y-71280707D01*
X187413738Y-71233087D02*
X186937548Y-71233087D01*
X186889929Y-71709278D01*
X186937548Y-71661659D01*
X187032786Y-71614040D01*
X187270881Y-71614040D01*
X187366119Y-71661659D01*
X187413738Y-71709278D01*
X187461357Y-71804516D01*
X187461357Y-72042611D01*
X187413738Y-72137849D01*
X187366119Y-72185468D01*
X187270881Y-72233087D01*
X187032786Y-72233087D01*
X186937548Y-72185468D01*
X186889929Y-72137849D01*
G04 #@! TO.C,S6*
X185987548Y-92645468D02*
X186130405Y-92693087D01*
X186368500Y-92693087D01*
X186463738Y-92645468D01*
X186511357Y-92597849D01*
X186558976Y-92502611D01*
X186558976Y-92407373D01*
X186511357Y-92312135D01*
X186463738Y-92264516D01*
X186368500Y-92216897D01*
X186178024Y-92169278D01*
X186082786Y-92121659D01*
X186035167Y-92074040D01*
X185987548Y-91978802D01*
X185987548Y-91883564D01*
X186035167Y-91788326D01*
X186082786Y-91740707D01*
X186178024Y-91693087D01*
X186416119Y-91693087D01*
X186558976Y-91740707D01*
X187416119Y-91693087D02*
X187225643Y-91693087D01*
X187130405Y-91740707D01*
X187082786Y-91788326D01*
X186987548Y-91931183D01*
X186939929Y-92121659D01*
X186939929Y-92502611D01*
X186987548Y-92597849D01*
X187035167Y-92645468D01*
X187130405Y-92693087D01*
X187320881Y-92693087D01*
X187416119Y-92645468D01*
X187463738Y-92597849D01*
X187511357Y-92502611D01*
X187511357Y-92264516D01*
X187463738Y-92169278D01*
X187416119Y-92121659D01*
X187320881Y-92074040D01*
X187130405Y-92074040D01*
X187035167Y-92121659D01*
X186987548Y-92169278D01*
X186939929Y-92264516D01*
G04 #@! TO.C,S7*
X179287548Y-109295468D02*
X179430405Y-109343087D01*
X179668500Y-109343087D01*
X179763738Y-109295468D01*
X179811357Y-109247849D01*
X179858976Y-109152611D01*
X179858976Y-109057373D01*
X179811357Y-108962135D01*
X179763738Y-108914516D01*
X179668500Y-108866897D01*
X179478024Y-108819278D01*
X179382786Y-108771659D01*
X179335167Y-108724040D01*
X179287548Y-108628802D01*
X179287548Y-108533564D01*
X179335167Y-108438326D01*
X179382786Y-108390707D01*
X179478024Y-108343087D01*
X179716119Y-108343087D01*
X179858976Y-108390707D01*
X180192310Y-108343087D02*
X180858976Y-108343087D01*
X180430405Y-109343087D01*
G04 #@! TO.C,S8*
X176137548Y-56435468D02*
X176280405Y-56483087D01*
X176518500Y-56483087D01*
X176613738Y-56435468D01*
X176661357Y-56387849D01*
X176708976Y-56292611D01*
X176708976Y-56197373D01*
X176661357Y-56102135D01*
X176613738Y-56054516D01*
X176518500Y-56006897D01*
X176328024Y-55959278D01*
X176232786Y-55911659D01*
X176185167Y-55864040D01*
X176137548Y-55768802D01*
X176137548Y-55673564D01*
X176185167Y-55578326D01*
X176232786Y-55530707D01*
X176328024Y-55483087D01*
X176566119Y-55483087D01*
X176708976Y-55530707D01*
X177280405Y-55911659D02*
X177185167Y-55864040D01*
X177137548Y-55816421D01*
X177089929Y-55721183D01*
X177089929Y-55673564D01*
X177137548Y-55578326D01*
X177185167Y-55530707D01*
X177280405Y-55483087D01*
X177470881Y-55483087D01*
X177566119Y-55530707D01*
X177613738Y-55578326D01*
X177661357Y-55673564D01*
X177661357Y-55721183D01*
X177613738Y-55816421D01*
X177566119Y-55864040D01*
X177470881Y-55911659D01*
X177280405Y-55911659D01*
X177185167Y-55959278D01*
X177137548Y-56006897D01*
X177089929Y-56102135D01*
X177089929Y-56292611D01*
X177137548Y-56387849D01*
X177185167Y-56435468D01*
X177280405Y-56483087D01*
X177470881Y-56483087D01*
X177566119Y-56435468D01*
X177613738Y-56387849D01*
X177661357Y-56292611D01*
X177661357Y-56102135D01*
X177613738Y-56006897D01*
X177566119Y-55959278D01*
X177470881Y-55911659D01*
G04 #@! TO.C,S10*
X170431357Y-82395468D02*
X170574214Y-82443087D01*
X170812310Y-82443087D01*
X170907548Y-82395468D01*
X170955167Y-82347849D01*
X171002786Y-82252611D01*
X171002786Y-82157373D01*
X170955167Y-82062135D01*
X170907548Y-82014516D01*
X170812310Y-81966897D01*
X170621833Y-81919278D01*
X170526595Y-81871659D01*
X170478976Y-81824040D01*
X170431357Y-81728802D01*
X170431357Y-81633564D01*
X170478976Y-81538326D01*
X170526595Y-81490707D01*
X170621833Y-81443087D01*
X170859929Y-81443087D01*
X171002786Y-81490707D01*
X171955167Y-82443087D02*
X171383738Y-82443087D01*
X171669453Y-82443087D02*
X171669453Y-81443087D01*
X171574214Y-81585945D01*
X171478976Y-81681183D01*
X171383738Y-81728802D01*
X172574214Y-81443087D02*
X172669453Y-81443087D01*
X172764691Y-81490707D01*
X172812310Y-81538326D01*
X172859929Y-81633564D01*
X172907548Y-81824040D01*
X172907548Y-82062135D01*
X172859929Y-82252611D01*
X172812310Y-82347849D01*
X172764691Y-82395468D01*
X172669453Y-82443087D01*
X172574214Y-82443087D01*
X172478976Y-82395468D01*
X172431357Y-82347849D01*
X172383738Y-82252611D01*
X172336119Y-82062135D01*
X172336119Y-81824040D01*
X172383738Y-81633564D01*
X172431357Y-81538326D01*
X172478976Y-81490707D01*
X172574214Y-81443087D01*
G04 #@! TO.C,S11*
X149001357Y-80285468D02*
X149144214Y-80333087D01*
X149382310Y-80333087D01*
X149477548Y-80285468D01*
X149525167Y-80237849D01*
X149572786Y-80142611D01*
X149572786Y-80047373D01*
X149525167Y-79952135D01*
X149477548Y-79904516D01*
X149382310Y-79856897D01*
X149191833Y-79809278D01*
X149096595Y-79761659D01*
X149048976Y-79714040D01*
X149001357Y-79618802D01*
X149001357Y-79523564D01*
X149048976Y-79428326D01*
X149096595Y-79380707D01*
X149191833Y-79333087D01*
X149429929Y-79333087D01*
X149572786Y-79380707D01*
X150525167Y-80333087D02*
X149953738Y-80333087D01*
X150239453Y-80333087D02*
X150239453Y-79333087D01*
X150144214Y-79475945D01*
X150048976Y-79571183D01*
X149953738Y-79618802D01*
X151477548Y-80333087D02*
X150906119Y-80333087D01*
X151191833Y-80333087D02*
X151191833Y-79333087D01*
X151096595Y-79475945D01*
X151001357Y-79571183D01*
X150906119Y-79618802D01*
G04 #@! TO.C,S12*
X161181357Y-97905468D02*
X161324214Y-97953087D01*
X161562310Y-97953087D01*
X161657548Y-97905468D01*
X161705167Y-97857849D01*
X161752786Y-97762611D01*
X161752786Y-97667373D01*
X161705167Y-97572135D01*
X161657548Y-97524516D01*
X161562310Y-97476897D01*
X161371833Y-97429278D01*
X161276595Y-97381659D01*
X161228976Y-97334040D01*
X161181357Y-97238802D01*
X161181357Y-97143564D01*
X161228976Y-97048326D01*
X161276595Y-97000707D01*
X161371833Y-96953087D01*
X161609929Y-96953087D01*
X161752786Y-97000707D01*
X162705167Y-97953087D02*
X162133738Y-97953087D01*
X162419453Y-97953087D02*
X162419453Y-96953087D01*
X162324214Y-97095945D01*
X162228976Y-97191183D01*
X162133738Y-97238802D01*
X163086119Y-97048326D02*
X163133738Y-97000707D01*
X163228976Y-96953087D01*
X163467072Y-96953087D01*
X163562310Y-97000707D01*
X163609929Y-97048326D01*
X163657548Y-97143564D01*
X163657548Y-97238802D01*
X163609929Y-97381659D01*
X163038500Y-97953087D01*
X163657548Y-97953087D01*
G04 #@! TO.C,S13*
X139811357Y-97275468D02*
X139954214Y-97323087D01*
X140192310Y-97323087D01*
X140287548Y-97275468D01*
X140335167Y-97227849D01*
X140382786Y-97132611D01*
X140382786Y-97037373D01*
X140335167Y-96942135D01*
X140287548Y-96894516D01*
X140192310Y-96846897D01*
X140001833Y-96799278D01*
X139906595Y-96751659D01*
X139858976Y-96704040D01*
X139811357Y-96608802D01*
X139811357Y-96513564D01*
X139858976Y-96418326D01*
X139906595Y-96370707D01*
X140001833Y-96323087D01*
X140239929Y-96323087D01*
X140382786Y-96370707D01*
X141335167Y-97323087D02*
X140763738Y-97323087D01*
X141049453Y-97323087D02*
X141049453Y-96323087D01*
X140954214Y-96465945D01*
X140858976Y-96561183D01*
X140763738Y-96608802D01*
X141668500Y-96323087D02*
X142287548Y-96323087D01*
X141954214Y-96704040D01*
X142097072Y-96704040D01*
X142192310Y-96751659D01*
X142239929Y-96799278D01*
X142287548Y-96894516D01*
X142287548Y-97132611D01*
X142239929Y-97227849D01*
X142192310Y-97275468D01*
X142097072Y-97323087D01*
X141811357Y-97323087D01*
X141716119Y-97275468D01*
X141668500Y-97227849D01*
G04 #@! TO.C,S14*
X172981357Y-126805468D02*
X173124214Y-126853087D01*
X173362310Y-126853087D01*
X173457548Y-126805468D01*
X173505167Y-126757849D01*
X173552786Y-126662611D01*
X173552786Y-126567373D01*
X173505167Y-126472135D01*
X173457548Y-126424516D01*
X173362310Y-126376897D01*
X173171833Y-126329278D01*
X173076595Y-126281659D01*
X173028976Y-126234040D01*
X172981357Y-126138802D01*
X172981357Y-126043564D01*
X173028976Y-125948326D01*
X173076595Y-125900707D01*
X173171833Y-125853087D01*
X173409929Y-125853087D01*
X173552786Y-125900707D01*
X174505167Y-126853087D02*
X173933738Y-126853087D01*
X174219453Y-126853087D02*
X174219453Y-125853087D01*
X174124214Y-125995945D01*
X174028976Y-126091183D01*
X173933738Y-126138802D01*
X175362310Y-126186421D02*
X175362310Y-126853087D01*
X175124214Y-125805468D02*
X174886119Y-126519754D01*
X175505167Y-126519754D01*
G04 #@! TO.C,S15*
X156231357Y-115125468D02*
X156374214Y-115173087D01*
X156612310Y-115173087D01*
X156707548Y-115125468D01*
X156755167Y-115077849D01*
X156802786Y-114982611D01*
X156802786Y-114887373D01*
X156755167Y-114792135D01*
X156707548Y-114744516D01*
X156612310Y-114696897D01*
X156421833Y-114649278D01*
X156326595Y-114601659D01*
X156278976Y-114554040D01*
X156231357Y-114458802D01*
X156231357Y-114363564D01*
X156278976Y-114268326D01*
X156326595Y-114220707D01*
X156421833Y-114173087D01*
X156659929Y-114173087D01*
X156802786Y-114220707D01*
X157755167Y-115173087D02*
X157183738Y-115173087D01*
X157469453Y-115173087D02*
X157469453Y-114173087D01*
X157374214Y-114315945D01*
X157278976Y-114411183D01*
X157183738Y-114458802D01*
X158659929Y-114173087D02*
X158183738Y-114173087D01*
X158136119Y-114649278D01*
X158183738Y-114601659D01*
X158278976Y-114554040D01*
X158517072Y-114554040D01*
X158612310Y-114601659D01*
X158659929Y-114649278D01*
X158707548Y-114744516D01*
X158707548Y-114982611D01*
X158659929Y-115077849D01*
X158612310Y-115125468D01*
X158517072Y-115173087D01*
X158278976Y-115173087D01*
X158183738Y-115125468D01*
X158136119Y-115077849D01*
G04 #@! TO.C,S16*
X136321357Y-116015468D02*
X136464214Y-116063087D01*
X136702310Y-116063087D01*
X136797548Y-116015468D01*
X136845167Y-115967849D01*
X136892786Y-115872611D01*
X136892786Y-115777373D01*
X136845167Y-115682135D01*
X136797548Y-115634516D01*
X136702310Y-115586897D01*
X136511833Y-115539278D01*
X136416595Y-115491659D01*
X136368976Y-115444040D01*
X136321357Y-115348802D01*
X136321357Y-115253564D01*
X136368976Y-115158326D01*
X136416595Y-115110707D01*
X136511833Y-115063087D01*
X136749929Y-115063087D01*
X136892786Y-115110707D01*
X137845167Y-116063087D02*
X137273738Y-116063087D01*
X137559453Y-116063087D02*
X137559453Y-115063087D01*
X137464214Y-115205945D01*
X137368976Y-115301183D01*
X137273738Y-115348802D01*
X138702310Y-115063087D02*
X138511833Y-115063087D01*
X138416595Y-115110707D01*
X138368976Y-115158326D01*
X138273738Y-115301183D01*
X138226119Y-115491659D01*
X138226119Y-115872611D01*
X138273738Y-115967849D01*
X138321357Y-116015468D01*
X138416595Y-116063087D01*
X138607072Y-116063087D01*
X138702310Y-116015468D01*
X138749929Y-115967849D01*
X138797548Y-115872611D01*
X138797548Y-115634516D01*
X138749929Y-115539278D01*
X138702310Y-115491659D01*
X138607072Y-115444040D01*
X138416595Y-115444040D01*
X138321357Y-115491659D01*
X138273738Y-115539278D01*
X138226119Y-115634516D01*
G04 #@! TO.C,S17*
X136611357Y-135205468D02*
X136754214Y-135253087D01*
X136992310Y-135253087D01*
X137087548Y-135205468D01*
X137135167Y-135157849D01*
X137182786Y-135062611D01*
X137182786Y-134967373D01*
X137135167Y-134872135D01*
X137087548Y-134824516D01*
X136992310Y-134776897D01*
X136801833Y-134729278D01*
X136706595Y-134681659D01*
X136658976Y-134634040D01*
X136611357Y-134538802D01*
X136611357Y-134443564D01*
X136658976Y-134348326D01*
X136706595Y-134300707D01*
X136801833Y-134253087D01*
X137039929Y-134253087D01*
X137182786Y-134300707D01*
X138135167Y-135253087D02*
X137563738Y-135253087D01*
X137849453Y-135253087D02*
X137849453Y-134253087D01*
X137754214Y-134395945D01*
X137658976Y-134491183D01*
X137563738Y-134538802D01*
X138468500Y-134253087D02*
X139135167Y-134253087D01*
X138706595Y-135253087D01*
G04 #@! TO.C,S18*
X156001357Y-133855468D02*
X156144214Y-133903087D01*
X156382310Y-133903087D01*
X156477548Y-133855468D01*
X156525167Y-133807849D01*
X156572786Y-133712611D01*
X156572786Y-133617373D01*
X156525167Y-133522135D01*
X156477548Y-133474516D01*
X156382310Y-133426897D01*
X156191833Y-133379278D01*
X156096595Y-133331659D01*
X156048976Y-133284040D01*
X156001357Y-133188802D01*
X156001357Y-133093564D01*
X156048976Y-132998326D01*
X156096595Y-132950707D01*
X156191833Y-132903087D01*
X156429929Y-132903087D01*
X156572786Y-132950707D01*
X157525167Y-133903087D02*
X156953738Y-133903087D01*
X157239453Y-133903087D02*
X157239453Y-132903087D01*
X157144214Y-133045945D01*
X157048976Y-133141183D01*
X156953738Y-133188802D01*
X158096595Y-133331659D02*
X158001357Y-133284040D01*
X157953738Y-133236421D01*
X157906119Y-133141183D01*
X157906119Y-133093564D01*
X157953738Y-132998326D01*
X158001357Y-132950707D01*
X158096595Y-132903087D01*
X158287072Y-132903087D01*
X158382310Y-132950707D01*
X158429929Y-132998326D01*
X158477548Y-133093564D01*
X158477548Y-133141183D01*
X158429929Y-133236421D01*
X158382310Y-133284040D01*
X158287072Y-133331659D01*
X158096595Y-133331659D01*
X158001357Y-133379278D01*
X157953738Y-133426897D01*
X157906119Y-133522135D01*
X157906119Y-133712611D01*
X157953738Y-133807849D01*
X158001357Y-133855468D01*
X158096595Y-133903087D01*
X158287072Y-133903087D01*
X158382310Y-133855468D01*
X158429929Y-133807849D01*
X158477548Y-133712611D01*
X158477548Y-133522135D01*
X158429929Y-133426897D01*
X158382310Y-133379278D01*
X158287072Y-133331659D01*
G04 #@! TO.C,S19*
X158231357Y-153615468D02*
X158374214Y-153663087D01*
X158612310Y-153663087D01*
X158707548Y-153615468D01*
X158755167Y-153567849D01*
X158802786Y-153472611D01*
X158802786Y-153377373D01*
X158755167Y-153282135D01*
X158707548Y-153234516D01*
X158612310Y-153186897D01*
X158421833Y-153139278D01*
X158326595Y-153091659D01*
X158278976Y-153044040D01*
X158231357Y-152948802D01*
X158231357Y-152853564D01*
X158278976Y-152758326D01*
X158326595Y-152710707D01*
X158421833Y-152663087D01*
X158659929Y-152663087D01*
X158802786Y-152710707D01*
X159755167Y-153663087D02*
X159183738Y-153663087D01*
X159469453Y-153663087D02*
X159469453Y-152663087D01*
X159374214Y-152805945D01*
X159278976Y-152901183D01*
X159183738Y-152948802D01*
X160231357Y-153663087D02*
X160421833Y-153663087D01*
X160517072Y-153615468D01*
X160564691Y-153567849D01*
X160659929Y-153424992D01*
X160707548Y-153234516D01*
X160707548Y-152853564D01*
X160659929Y-152758326D01*
X160612310Y-152710707D01*
X160517072Y-152663087D01*
X160326595Y-152663087D01*
X160231357Y-152710707D01*
X160183738Y-152758326D01*
X160136119Y-152853564D01*
X160136119Y-153091659D01*
X160183738Y-153186897D01*
X160231357Y-153234516D01*
X160326595Y-153282135D01*
X160517072Y-153282135D01*
X160612310Y-153234516D01*
X160659929Y-153186897D01*
X160707548Y-153091659D01*
G04 #@! TO.C,S20*
X139801357Y-154395468D02*
X139944214Y-154443087D01*
X140182310Y-154443087D01*
X140277548Y-154395468D01*
X140325167Y-154347849D01*
X140372786Y-154252611D01*
X140372786Y-154157373D01*
X140325167Y-154062135D01*
X140277548Y-154014516D01*
X140182310Y-153966897D01*
X139991833Y-153919278D01*
X139896595Y-153871659D01*
X139848976Y-153824040D01*
X139801357Y-153728802D01*
X139801357Y-153633564D01*
X139848976Y-153538326D01*
X139896595Y-153490707D01*
X139991833Y-153443087D01*
X140229929Y-153443087D01*
X140372786Y-153490707D01*
X140753738Y-153538326D02*
X140801357Y-153490707D01*
X140896595Y-153443087D01*
X141134691Y-153443087D01*
X141229929Y-153490707D01*
X141277548Y-153538326D01*
X141325167Y-153633564D01*
X141325167Y-153728802D01*
X141277548Y-153871659D01*
X140706119Y-154443087D01*
X141325167Y-154443087D01*
X141944214Y-153443087D02*
X142039453Y-153443087D01*
X142134691Y-153490707D01*
X142182310Y-153538326D01*
X142229929Y-153633564D01*
X142277548Y-153824040D01*
X142277548Y-154062135D01*
X142229929Y-154252611D01*
X142182310Y-154347849D01*
X142134691Y-154395468D01*
X142039453Y-154443087D01*
X141944214Y-154443087D01*
X141848976Y-154395468D01*
X141801357Y-154347849D01*
X141753738Y-154252611D01*
X141706119Y-154062135D01*
X141706119Y-153824040D01*
X141753738Y-153633564D01*
X141801357Y-153538326D01*
X141848976Y-153490707D01*
X141944214Y-153443087D01*
G04 #@! TO.C,S21*
X145491357Y-172805468D02*
X145634214Y-172853087D01*
X145872310Y-172853087D01*
X145967548Y-172805468D01*
X146015167Y-172757849D01*
X146062786Y-172662611D01*
X146062786Y-172567373D01*
X146015167Y-172472135D01*
X145967548Y-172424516D01*
X145872310Y-172376897D01*
X145681833Y-172329278D01*
X145586595Y-172281659D01*
X145538976Y-172234040D01*
X145491357Y-172138802D01*
X145491357Y-172043564D01*
X145538976Y-171948326D01*
X145586595Y-171900707D01*
X145681833Y-171853087D01*
X145919929Y-171853087D01*
X146062786Y-171900707D01*
X146443738Y-171948326D02*
X146491357Y-171900707D01*
X146586595Y-171853087D01*
X146824691Y-171853087D01*
X146919929Y-171900707D01*
X146967548Y-171948326D01*
X147015167Y-172043564D01*
X147015167Y-172138802D01*
X146967548Y-172281659D01*
X146396119Y-172853087D01*
X147015167Y-172853087D01*
X147967548Y-172853087D02*
X147396119Y-172853087D01*
X147681833Y-172853087D02*
X147681833Y-171853087D01*
X147586595Y-171995945D01*
X147491357Y-172091183D01*
X147396119Y-172138802D01*
G04 #@! TO.C,S22*
X150351357Y-193265468D02*
X150494214Y-193313087D01*
X150732310Y-193313087D01*
X150827548Y-193265468D01*
X150875167Y-193217849D01*
X150922786Y-193122611D01*
X150922786Y-193027373D01*
X150875167Y-192932135D01*
X150827548Y-192884516D01*
X150732310Y-192836897D01*
X150541833Y-192789278D01*
X150446595Y-192741659D01*
X150398976Y-192694040D01*
X150351357Y-192598802D01*
X150351357Y-192503564D01*
X150398976Y-192408326D01*
X150446595Y-192360707D01*
X150541833Y-192313087D01*
X150779929Y-192313087D01*
X150922786Y-192360707D01*
X151303738Y-192408326D02*
X151351357Y-192360707D01*
X151446595Y-192313087D01*
X151684691Y-192313087D01*
X151779929Y-192360707D01*
X151827548Y-192408326D01*
X151875167Y-192503564D01*
X151875167Y-192598802D01*
X151827548Y-192741659D01*
X151256119Y-193313087D01*
X151875167Y-193313087D01*
X152256119Y-192408326D02*
X152303738Y-192360707D01*
X152398976Y-192313087D01*
X152637072Y-192313087D01*
X152732310Y-192360707D01*
X152779929Y-192408326D01*
X152827548Y-192503564D01*
X152827548Y-192598802D01*
X152779929Y-192741659D01*
X152208500Y-193313087D01*
X152827548Y-193313087D01*
G04 #@! TO.C,S23*
X151551357Y-212475468D02*
X151694214Y-212523087D01*
X151932310Y-212523087D01*
X152027548Y-212475468D01*
X152075167Y-212427849D01*
X152122786Y-212332611D01*
X152122786Y-212237373D01*
X152075167Y-212142135D01*
X152027548Y-212094516D01*
X151932310Y-212046897D01*
X151741833Y-211999278D01*
X151646595Y-211951659D01*
X151598976Y-211904040D01*
X151551357Y-211808802D01*
X151551357Y-211713564D01*
X151598976Y-211618326D01*
X151646595Y-211570707D01*
X151741833Y-211523087D01*
X151979929Y-211523087D01*
X152122786Y-211570707D01*
X152503738Y-211618326D02*
X152551357Y-211570707D01*
X152646595Y-211523087D01*
X152884691Y-211523087D01*
X152979929Y-211570707D01*
X153027548Y-211618326D01*
X153075167Y-211713564D01*
X153075167Y-211808802D01*
X153027548Y-211951659D01*
X152456119Y-212523087D01*
X153075167Y-212523087D01*
X153408500Y-211523087D02*
X154027548Y-211523087D01*
X153694214Y-211904040D01*
X153837072Y-211904040D01*
X153932310Y-211951659D01*
X153979929Y-211999278D01*
X154027548Y-212094516D01*
X154027548Y-212332611D01*
X153979929Y-212427849D01*
X153932310Y-212475468D01*
X153837072Y-212523087D01*
X153551357Y-212523087D01*
X153456119Y-212475468D01*
X153408500Y-212427849D01*
G04 #@! TO.C,S24*
X186161357Y-233165468D02*
X186304214Y-233213087D01*
X186542310Y-233213087D01*
X186637548Y-233165468D01*
X186685167Y-233117849D01*
X186732786Y-233022611D01*
X186732786Y-232927373D01*
X186685167Y-232832135D01*
X186637548Y-232784516D01*
X186542310Y-232736897D01*
X186351833Y-232689278D01*
X186256595Y-232641659D01*
X186208976Y-232594040D01*
X186161357Y-232498802D01*
X186161357Y-232403564D01*
X186208976Y-232308326D01*
X186256595Y-232260707D01*
X186351833Y-232213087D01*
X186589929Y-232213087D01*
X186732786Y-232260707D01*
X187113738Y-232308326D02*
X187161357Y-232260707D01*
X187256595Y-232213087D01*
X187494691Y-232213087D01*
X187589929Y-232260707D01*
X187637548Y-232308326D01*
X187685167Y-232403564D01*
X187685167Y-232498802D01*
X187637548Y-232641659D01*
X187066119Y-233213087D01*
X187685167Y-233213087D01*
X188542310Y-232546421D02*
X188542310Y-233213087D01*
X188304214Y-232165468D02*
X188066119Y-232879754D01*
X188685167Y-232879754D01*
G04 #@! TO.C,S25*
X189651357Y-251135468D02*
X189794214Y-251183087D01*
X190032310Y-251183087D01*
X190127548Y-251135468D01*
X190175167Y-251087849D01*
X190222786Y-250992611D01*
X190222786Y-250897373D01*
X190175167Y-250802135D01*
X190127548Y-250754516D01*
X190032310Y-250706897D01*
X189841833Y-250659278D01*
X189746595Y-250611659D01*
X189698976Y-250564040D01*
X189651357Y-250468802D01*
X189651357Y-250373564D01*
X189698976Y-250278326D01*
X189746595Y-250230707D01*
X189841833Y-250183087D01*
X190079929Y-250183087D01*
X190222786Y-250230707D01*
X190603738Y-250278326D02*
X190651357Y-250230707D01*
X190746595Y-250183087D01*
X190984691Y-250183087D01*
X191079929Y-250230707D01*
X191127548Y-250278326D01*
X191175167Y-250373564D01*
X191175167Y-250468802D01*
X191127548Y-250611659D01*
X190556119Y-251183087D01*
X191175167Y-251183087D01*
X192079929Y-250183087D02*
X191603738Y-250183087D01*
X191556119Y-250659278D01*
X191603738Y-250611659D01*
X191698976Y-250564040D01*
X191937072Y-250564040D01*
X192032310Y-250611659D01*
X192079929Y-250659278D01*
X192127548Y-250754516D01*
X192127548Y-250992611D01*
X192079929Y-251087849D01*
X192032310Y-251135468D01*
X191937072Y-251183087D01*
X191698976Y-251183087D01*
X191603738Y-251135468D01*
X191556119Y-251087849D01*
G04 #@! TO.C,S26*
X177561357Y-267625468D02*
X177704214Y-267673087D01*
X177942310Y-267673087D01*
X178037548Y-267625468D01*
X178085167Y-267577849D01*
X178132786Y-267482611D01*
X178132786Y-267387373D01*
X178085167Y-267292135D01*
X178037548Y-267244516D01*
X177942310Y-267196897D01*
X177751833Y-267149278D01*
X177656595Y-267101659D01*
X177608976Y-267054040D01*
X177561357Y-266958802D01*
X177561357Y-266863564D01*
X177608976Y-266768326D01*
X177656595Y-266720707D01*
X177751833Y-266673087D01*
X177989929Y-266673087D01*
X178132786Y-266720707D01*
X178513738Y-266768326D02*
X178561357Y-266720707D01*
X178656595Y-266673087D01*
X178894691Y-266673087D01*
X178989929Y-266720707D01*
X179037548Y-266768326D01*
X179085167Y-266863564D01*
X179085167Y-266958802D01*
X179037548Y-267101659D01*
X178466119Y-267673087D01*
X179085167Y-267673087D01*
X179942310Y-266673087D02*
X179751833Y-266673087D01*
X179656595Y-266720707D01*
X179608976Y-266768326D01*
X179513738Y-266911183D01*
X179466119Y-267101659D01*
X179466119Y-267482611D01*
X179513738Y-267577849D01*
X179561357Y-267625468D01*
X179656595Y-267673087D01*
X179847072Y-267673087D01*
X179942310Y-267625468D01*
X179989929Y-267577849D01*
X180037548Y-267482611D01*
X180037548Y-267244516D01*
X179989929Y-267149278D01*
X179942310Y-267101659D01*
X179847072Y-267054040D01*
X179656595Y-267054040D01*
X179561357Y-267101659D01*
X179513738Y-267149278D01*
X179466119Y-267244516D01*
G04 #@! TO.C,S27*
X164351357Y-267785468D02*
X164494214Y-267833087D01*
X164732310Y-267833087D01*
X164827548Y-267785468D01*
X164875167Y-267737849D01*
X164922786Y-267642611D01*
X164922786Y-267547373D01*
X164875167Y-267452135D01*
X164827548Y-267404516D01*
X164732310Y-267356897D01*
X164541833Y-267309278D01*
X164446595Y-267261659D01*
X164398976Y-267214040D01*
X164351357Y-267118802D01*
X164351357Y-267023564D01*
X164398976Y-266928326D01*
X164446595Y-266880707D01*
X164541833Y-266833087D01*
X164779929Y-266833087D01*
X164922786Y-266880707D01*
X165303738Y-266928326D02*
X165351357Y-266880707D01*
X165446595Y-266833087D01*
X165684691Y-266833087D01*
X165779929Y-266880707D01*
X165827548Y-266928326D01*
X165875167Y-267023564D01*
X165875167Y-267118802D01*
X165827548Y-267261659D01*
X165256119Y-267833087D01*
X165875167Y-267833087D01*
X166208500Y-266833087D02*
X166875167Y-266833087D01*
X166446595Y-267833087D01*
G04 #@! TO.C,S28*
X152131357Y-250945468D02*
X152274214Y-250993087D01*
X152512310Y-250993087D01*
X152607548Y-250945468D01*
X152655167Y-250897849D01*
X152702786Y-250802611D01*
X152702786Y-250707373D01*
X152655167Y-250612135D01*
X152607548Y-250564516D01*
X152512310Y-250516897D01*
X152321833Y-250469278D01*
X152226595Y-250421659D01*
X152178976Y-250374040D01*
X152131357Y-250278802D01*
X152131357Y-250183564D01*
X152178976Y-250088326D01*
X152226595Y-250040707D01*
X152321833Y-249993087D01*
X152559929Y-249993087D01*
X152702786Y-250040707D01*
X153083738Y-250088326D02*
X153131357Y-250040707D01*
X153226595Y-249993087D01*
X153464691Y-249993087D01*
X153559929Y-250040707D01*
X153607548Y-250088326D01*
X153655167Y-250183564D01*
X153655167Y-250278802D01*
X153607548Y-250421659D01*
X153036119Y-250993087D01*
X153655167Y-250993087D01*
X154226595Y-250421659D02*
X154131357Y-250374040D01*
X154083738Y-250326421D01*
X154036119Y-250231183D01*
X154036119Y-250183564D01*
X154083738Y-250088326D01*
X154131357Y-250040707D01*
X154226595Y-249993087D01*
X154417072Y-249993087D01*
X154512310Y-250040707D01*
X154559929Y-250088326D01*
X154607548Y-250183564D01*
X154607548Y-250231183D01*
X154559929Y-250326421D01*
X154512310Y-250374040D01*
X154417072Y-250421659D01*
X154226595Y-250421659D01*
X154131357Y-250469278D01*
X154083738Y-250516897D01*
X154036119Y-250612135D01*
X154036119Y-250802611D01*
X154083738Y-250897849D01*
X154131357Y-250945468D01*
X154226595Y-250993087D01*
X154417072Y-250993087D01*
X154512310Y-250945468D01*
X154559929Y-250897849D01*
X154607548Y-250802611D01*
X154607548Y-250612135D01*
X154559929Y-250516897D01*
X154512310Y-250469278D01*
X154417072Y-250421659D01*
G04 #@! TO.C,S29*
X170351357Y-248945468D02*
X170494214Y-248993087D01*
X170732310Y-248993087D01*
X170827548Y-248945468D01*
X170875167Y-248897849D01*
X170922786Y-248802611D01*
X170922786Y-248707373D01*
X170875167Y-248612135D01*
X170827548Y-248564516D01*
X170732310Y-248516897D01*
X170541833Y-248469278D01*
X170446595Y-248421659D01*
X170398976Y-248374040D01*
X170351357Y-248278802D01*
X170351357Y-248183564D01*
X170398976Y-248088326D01*
X170446595Y-248040707D01*
X170541833Y-247993087D01*
X170779929Y-247993087D01*
X170922786Y-248040707D01*
X171303738Y-248088326D02*
X171351357Y-248040707D01*
X171446595Y-247993087D01*
X171684691Y-247993087D01*
X171779929Y-248040707D01*
X171827548Y-248088326D01*
X171875167Y-248183564D01*
X171875167Y-248278802D01*
X171827548Y-248421659D01*
X171256119Y-248993087D01*
X171875167Y-248993087D01*
X172351357Y-248993087D02*
X172541833Y-248993087D01*
X172637072Y-248945468D01*
X172684691Y-248897849D01*
X172779929Y-248754992D01*
X172827548Y-248564516D01*
X172827548Y-248183564D01*
X172779929Y-248088326D01*
X172732310Y-248040707D01*
X172637072Y-247993087D01*
X172446595Y-247993087D01*
X172351357Y-248040707D01*
X172303738Y-248088326D01*
X172256119Y-248183564D01*
X172256119Y-248421659D01*
X172303738Y-248516897D01*
X172351357Y-248564516D01*
X172446595Y-248612135D01*
X172637072Y-248612135D01*
X172732310Y-248564516D01*
X172779929Y-248516897D01*
X172827548Y-248421659D01*
G04 #@! TO.C,S30*
X152541357Y-231575468D02*
X152684214Y-231623087D01*
X152922310Y-231623087D01*
X153017548Y-231575468D01*
X153065167Y-231527849D01*
X153112786Y-231432611D01*
X153112786Y-231337373D01*
X153065167Y-231242135D01*
X153017548Y-231194516D01*
X152922310Y-231146897D01*
X152731833Y-231099278D01*
X152636595Y-231051659D01*
X152588976Y-231004040D01*
X152541357Y-230908802D01*
X152541357Y-230813564D01*
X152588976Y-230718326D01*
X152636595Y-230670707D01*
X152731833Y-230623087D01*
X152969929Y-230623087D01*
X153112786Y-230670707D01*
X153446119Y-230623087D02*
X154065167Y-230623087D01*
X153731833Y-231004040D01*
X153874691Y-231004040D01*
X153969929Y-231051659D01*
X154017548Y-231099278D01*
X154065167Y-231194516D01*
X154065167Y-231432611D01*
X154017548Y-231527849D01*
X153969929Y-231575468D01*
X153874691Y-231623087D01*
X153588976Y-231623087D01*
X153493738Y-231575468D01*
X153446119Y-231527849D01*
X154684214Y-230623087D02*
X154779453Y-230623087D01*
X154874691Y-230670707D01*
X154922310Y-230718326D01*
X154969929Y-230813564D01*
X155017548Y-231004040D01*
X155017548Y-231242135D01*
X154969929Y-231432611D01*
X154922310Y-231527849D01*
X154874691Y-231575468D01*
X154779453Y-231623087D01*
X154684214Y-231623087D01*
X154588976Y-231575468D01*
X154541357Y-231527849D01*
X154493738Y-231432611D01*
X154446119Y-231242135D01*
X154446119Y-231004040D01*
X154493738Y-230813564D01*
X154541357Y-230718326D01*
X154588976Y-230670707D01*
X154684214Y-230623087D01*
G04 #@! TO.C,S31*
X169151357Y-227665468D02*
X169294214Y-227713087D01*
X169532310Y-227713087D01*
X169627548Y-227665468D01*
X169675167Y-227617849D01*
X169722786Y-227522611D01*
X169722786Y-227427373D01*
X169675167Y-227332135D01*
X169627548Y-227284516D01*
X169532310Y-227236897D01*
X169341833Y-227189278D01*
X169246595Y-227141659D01*
X169198976Y-227094040D01*
X169151357Y-226998802D01*
X169151357Y-226903564D01*
X169198976Y-226808326D01*
X169246595Y-226760707D01*
X169341833Y-226713087D01*
X169579929Y-226713087D01*
X169722786Y-226760707D01*
X170056119Y-226713087D02*
X170675167Y-226713087D01*
X170341833Y-227094040D01*
X170484691Y-227094040D01*
X170579929Y-227141659D01*
X170627548Y-227189278D01*
X170675167Y-227284516D01*
X170675167Y-227522611D01*
X170627548Y-227617849D01*
X170579929Y-227665468D01*
X170484691Y-227713087D01*
X170198976Y-227713087D01*
X170103738Y-227665468D01*
X170056119Y-227617849D01*
X171627548Y-227713087D02*
X171056119Y-227713087D01*
X171341833Y-227713087D02*
X171341833Y-226713087D01*
X171246595Y-226855945D01*
X171151357Y-226951183D01*
X171056119Y-226998802D01*
G04 #@! TD*
M02*
