G04 #@! TF.GenerationSoftware,KiCad,Pcbnew,(5.0.0)*
G04 #@! TF.CreationDate,2020-01-29T13:42:07+01:00*
G04 #@! TF.ProjectId,Insole_PCB,496E736F6C655F5043422E6B69636164,rev?*
G04 #@! TF.SameCoordinates,Original*
G04 #@! TF.FileFunction,Other,ECO2*
%FSLAX46Y46*%
G04 Gerber Fmt 4.6, Leading zero omitted, Abs format (unit mm)*
G04 Created by KiCad (PCBNEW (5.0.0)) date 01/29/20 13:42:07*
%MOMM*%
%LPD*%
G01*
G04 APERTURE LIST*
%ADD10C,0.100000*%
G04 APERTURE END LIST*
D10*
X210330590Y-128601726D02*
G75*
G03X163949453Y-188250707I-5056994J-43924577D01*
G01*
X163949446Y-188250327D02*
G75*
G03X195689453Y-207660707I24872853J5016340D01*
G01*
X129606445Y-91396756D02*
X130460446Y-87709067D01*
X128480431Y-113824000D02*
X128594055Y-108861047D01*
X134780545Y-77230959D02*
X136763427Y-73991805D01*
X165323409Y-41994985D02*
X169182839Y-39572095D01*
X151259988Y-55597591D02*
X154537967Y-51950115D01*
X138996144Y-70908709D02*
X141990227Y-67042068D01*
X148094483Y-59351849D02*
X151259988Y-55597591D01*
X128736660Y-103903854D02*
X128855219Y-98959199D01*
X128855219Y-98959199D02*
X129067051Y-95152656D01*
X136763427Y-73991805D02*
X138996144Y-70908709D01*
X130460446Y-87709067D02*
X131616100Y-84107158D01*
X128448811Y-118785936D02*
X128480431Y-113824000D01*
X186610175Y-35336695D02*
X191168970Y-35416495D01*
X169182839Y-39572095D02*
X173300319Y-37739905D01*
X161542010Y-45114145D02*
X165323409Y-41994985D01*
X154537967Y-51950115D02*
X157956086Y-48444075D01*
X145013785Y-63178228D02*
X148094483Y-59351849D01*
X129067051Y-95152656D02*
X129606445Y-91396756D01*
X128552229Y-123740075D02*
X128448811Y-118785936D01*
X191168970Y-35416495D02*
X195690373Y-35861645D01*
X173300319Y-37739905D02*
X177616762Y-36453315D01*
X157956086Y-48444075D02*
X161542010Y-45114145D01*
X182073077Y-35667275D02*
X186610175Y-35336695D01*
X177616762Y-36453315D02*
X182073077Y-35667275D01*
X141990227Y-67042068D02*
X145013785Y-63178228D01*
X131616100Y-84107158D02*
X133060451Y-80608599D01*
X128594055Y-108861047D02*
X128736660Y-103903854D01*
X133060451Y-80608599D02*
X134780545Y-77230959D01*
X200688265Y-244889846D02*
X199412171Y-250174695D01*
X130202958Y-138487930D02*
X129376275Y-133597850D01*
X144222217Y-216782157D02*
X143747136Y-210728068D01*
X175218886Y-269632835D02*
X169768683Y-269626835D01*
X136784252Y-160836798D02*
X135473518Y-156366120D01*
X190238909Y-263456375D02*
X185711080Y-266467505D01*
X169768683Y-269626835D02*
X164425817Y-268560845D01*
X135473518Y-156366120D02*
X134092082Y-151912639D01*
X128843708Y-128679639D02*
X128552229Y-123740075D01*
X129376275Y-133597850D02*
X128843708Y-128679639D01*
X140372174Y-180543925D02*
X139612853Y-174519471D01*
X200007115Y-234038954D02*
X200917738Y-239455420D01*
X131388863Y-142990289D02*
X130202958Y-138487930D01*
X138921859Y-169896729D02*
X137956346Y-165341420D01*
X139612853Y-174519471D02*
X138921859Y-169896729D01*
X144600304Y-229780499D02*
X144730203Y-226305139D01*
X141125401Y-186571574D02*
X140372174Y-180543925D01*
X159362709Y-266523765D02*
X154751779Y-263604015D01*
X143959134Y-243645265D02*
X143881854Y-240202089D01*
X143183402Y-204680663D02*
X142547527Y-198639245D01*
X145356276Y-250433041D02*
X144407974Y-247058502D01*
X199412171Y-250174695D02*
X197182930Y-255142425D01*
X142547527Y-198639245D02*
X141856023Y-192603114D01*
X143747136Y-210728068D02*
X143183402Y-204680663D01*
X144592135Y-222843628D02*
X144222217Y-216782157D01*
X144730203Y-226305139D02*
X144592135Y-222843628D01*
X154751779Y-263604015D02*
X150765450Y-259890035D01*
X164425817Y-268560845D02*
X159362709Y-266523765D01*
X132707884Y-147459610D02*
X131388863Y-142990289D01*
X141856023Y-192603114D02*
X141125401Y-186571574D01*
X150765450Y-259890035D02*
X147576142Y-255470235D01*
X134092082Y-151912639D02*
X132707884Y-147459610D01*
X137956346Y-165341420D02*
X136784252Y-160836798D01*
X144330343Y-233260948D02*
X144600304Y-229780499D01*
X144048225Y-236737731D02*
X144330343Y-233260948D01*
X143881854Y-240202089D02*
X144048225Y-236737731D01*
X144407974Y-247058502D02*
X143959134Y-243645265D01*
X147576142Y-255470235D02*
X145356276Y-250433041D01*
X180604004Y-268491365D02*
X175218886Y-269632835D01*
X185711080Y-266467505D02*
X180604004Y-268491365D01*
X194094017Y-259625495D02*
X190238909Y-263456375D01*
X197182930Y-255142425D02*
X194094017Y-259625495D01*
X200917738Y-239455420D02*
X200688265Y-244889846D01*
X216052732Y-88957525D02*
X216125012Y-95453877D01*
X215865796Y-82464051D02*
X216052732Y-88957525D01*
X212747805Y-53593744D02*
X213371426Y-56637963D01*
X195690373Y-35861645D02*
X200115293Y-36627035D01*
X213371426Y-56637963D02*
X214317022Y-63060412D01*
X207804969Y-41866525D02*
X209508773Y-44510615D01*
X211851929Y-125245764D02*
X210299453Y-128600707D01*
X215345926Y-114264241D02*
X213889487Y-119850014D01*
X216125012Y-95453877D02*
X216112652Y-101947156D01*
X209508773Y-44510615D02*
X210866898Y-47419935D01*
X205705068Y-39597815D02*
X207804969Y-41866525D01*
X200115293Y-36627035D02*
X203158650Y-37814605D01*
X213889487Y-119850014D02*
X211851929Y-125245764D01*
X216045642Y-108431411D02*
X215345926Y-114264241D01*
X215534202Y-75979407D02*
X215865796Y-82464051D01*
X214317022Y-63060412D02*
X215027946Y-69509543D01*
X216112652Y-101947156D02*
X216045642Y-108431411D01*
X215027946Y-69509543D02*
X215534202Y-75979407D01*
X211929769Y-50484355D02*
X212747805Y-53593744D01*
X203158650Y-37814605D02*
X205705068Y-39597815D01*
X210866898Y-47419935D02*
X211929769Y-50484355D01*
X197117861Y-219470487D02*
X197707101Y-223138075D01*
X195689453Y-207660707D02*
X195764724Y-208407433D01*
X199143324Y-230425440D02*
X200007124Y-234039330D01*
X196155081Y-212102222D02*
X196603324Y-215790888D01*
X197707101Y-223138075D02*
X198379453Y-226790707D01*
X196603324Y-215790888D02*
X197117861Y-219470487D01*
X195764724Y-208407433D02*
X196155081Y-212102222D01*
X198379453Y-226790707D02*
X199143324Y-230425440D01*
M02*
