G04 #@! TF.GenerationSoftware,KiCad,Pcbnew,(5.0.0)*
G04 #@! TF.CreationDate,2020-01-29T13:42:07+01:00*
G04 #@! TF.ProjectId,Insole_PCB,496E736F6C655F5043422E6B69636164,rev?*
G04 #@! TF.SameCoordinates,Original*
G04 #@! TF.FileFunction,Legend,Bot*
G04 #@! TF.FilePolarity,Positive*
%FSLAX46Y46*%
G04 Gerber Fmt 4.6, Leading zero omitted, Abs format (unit mm)*
G04 Created by KiCad (PCBNEW (5.0.0)) date 01/29/20 13:42:07*
%MOMM*%
%LPD*%
G01*
G04 APERTURE LIST*
%ADD10C,0.200000*%
%ADD11C,0.100000*%
%ADD12C,0.120000*%
%ADD13C,0.400000*%
%ADD14C,0.150000*%
%ADD15C,0.300000*%
G04 APERTURE END LIST*
D10*
G04 #@! TO.C,U2*
X182849453Y-160890707D02*
G75*
G03X182849453Y-160890707I0J0D01*
G01*
D11*
X185249453Y-160290707D02*
X185249453Y-160510707D01*
X184529453Y-160290707D02*
X185249453Y-160290707D01*
X185249453Y-162990707D02*
X184529453Y-162990707D01*
X185249453Y-162770707D02*
X185249453Y-162990707D01*
X182049453Y-162990707D02*
X182049453Y-162770707D01*
X182049453Y-162990707D02*
X182769453Y-162990707D01*
X182349453Y-160690707D02*
X182699453Y-160340707D01*
D12*
G04 #@! TO.C,C1*
X186429340Y-187213900D02*
X186452050Y-187538665D01*
X187446856Y-187142749D02*
X187469566Y-187467514D01*
G04 #@! TO.C,C2*
X165464536Y-181112175D02*
X165575883Y-181418099D01*
X166423023Y-180763315D02*
X166534370Y-181069239D01*
G04 #@! TO.C,C3*
X188415318Y-176442887D02*
X188090206Y-176459925D01*
X188468700Y-177461489D02*
X188143588Y-177478527D01*
G04 #@! TO.C,C4*
X190941340Y-173301900D02*
X190964050Y-173626665D01*
X191958856Y-173230749D02*
X191981566Y-173555514D01*
G04 #@! TO.C,C5*
X166914536Y-180562175D02*
X167025883Y-180868099D01*
X167873023Y-180213315D02*
X167984370Y-180519239D01*
G04 #@! TO.C,C6*
X174559453Y-171490986D02*
X174559453Y-171165428D01*
X173539453Y-171490986D02*
X173539453Y-171165428D01*
G04 #@! TO.C,C7*
X172959453Y-171503486D02*
X172959453Y-171177928D01*
X171939453Y-171503486D02*
X171939453Y-171177928D01*
G04 #@! TO.C,C8*
X173999732Y-163730707D02*
X173674174Y-163730707D01*
X173999732Y-164750707D02*
X173674174Y-164750707D01*
G04 #@! TO.C,C9*
X173999732Y-162130707D02*
X173674174Y-162130707D01*
X173999732Y-163150707D02*
X173674174Y-163150707D01*
G04 #@! TO.C,C10*
X179934453Y-148365986D02*
X179934453Y-148040428D01*
X178914453Y-148365986D02*
X178914453Y-148040428D01*
G04 #@! TO.C,C11*
X181559453Y-148378486D02*
X181559453Y-148052928D01*
X180539453Y-148378486D02*
X180539453Y-148052928D01*
G04 #@! TO.C,C12*
X181799174Y-166250707D02*
X182124732Y-166250707D01*
X181799174Y-165230707D02*
X182124732Y-165230707D01*
G04 #@! TO.C,C13*
X181799174Y-164650707D02*
X182124732Y-164650707D01*
X181799174Y-163630707D02*
X182124732Y-163630707D01*
G04 #@! TO.C,C14*
X185612232Y-164830707D02*
X185286674Y-164830707D01*
X185612232Y-165850707D02*
X185286674Y-165850707D01*
G04 #@! TO.C,L1*
X189489453Y-153546959D02*
X189489453Y-153024455D01*
X188069453Y-153546959D02*
X188069453Y-153024455D01*
G04 #@! TO.C,L2*
X186583705Y-143031958D02*
X186844957Y-142579456D01*
X185353949Y-142321958D02*
X185615201Y-141869456D01*
D13*
G04 #@! TO.C,MUX1*
X183549425Y-140518464D02*
G75*
G03X183549425Y-140518464I-158114J0D01*
G01*
D14*
X184861824Y-138971461D02*
X181874324Y-144145963D01*
X179289534Y-137572951D02*
X177089534Y-141383463D01*
D13*
G04 #@! TO.C,MUX2*
X177807567Y-160940707D02*
G75*
G03X177807567Y-160940707I-158114J0D01*
G01*
D14*
X179724453Y-161440707D02*
X173749453Y-161440707D01*
X178149453Y-155915707D02*
X173749453Y-155915707D01*
D13*
G04 #@! TO.C,MUX3*
X171107567Y-165890707D02*
G75*
G03X171107567Y-165890707I-158114J0D01*
G01*
D14*
X171449453Y-163815707D02*
X171449453Y-169790707D01*
X165924453Y-165390707D02*
X165924453Y-169790707D01*
D13*
G04 #@! TO.C,MUX4*
X168677708Y-188274831D02*
G75*
G03X168677708Y-188274831I-158114J0D01*
G01*
D14*
X168759440Y-190395703D02*
X166715869Y-184781040D01*
X173412560Y-187026026D02*
X171907671Y-182891378D01*
D12*
G04 #@! TO.C,Q2*
X191329453Y-159980707D02*
X191329453Y-161440707D01*
X188169453Y-159980707D02*
X188169453Y-162140707D01*
X188169453Y-159980707D02*
X189099453Y-159980707D01*
X191329453Y-159980707D02*
X190399453Y-159980707D01*
G04 #@! TO.C,R1*
X181086058Y-184960151D02*
X181069020Y-184635039D01*
X180067456Y-185013533D02*
X180050418Y-184688421D01*
G04 #@! TO.C,R2*
X185524732Y-155530707D02*
X185199174Y-155530707D01*
X185524732Y-156550707D02*
X185199174Y-156550707D01*
G04 #@! TO.C,R3*
X185512232Y-157130707D02*
X185186674Y-157130707D01*
X185512232Y-158150707D02*
X185186674Y-158150707D01*
G04 #@! TO.C,R4*
X190549453Y-182347928D02*
X190549453Y-182673486D01*
X191569453Y-182347928D02*
X191569453Y-182673486D01*
G04 #@! TO.C,R5*
X176669566Y-196167514D02*
X176646856Y-195842749D01*
X175652050Y-196238665D02*
X175629340Y-195913900D01*
G04 #@! TO.C,R6*
X183924732Y-170430707D02*
X183599174Y-170430707D01*
X183924732Y-171450707D02*
X183599174Y-171450707D01*
G04 #@! TO.C,R7*
X176012232Y-153980707D02*
X175686674Y-153980707D01*
X176012232Y-155000707D02*
X175686674Y-155000707D01*
G04 #@! TO.C,R8*
X190759453Y-134890986D02*
X190759453Y-134565428D01*
X189739453Y-134890986D02*
X189739453Y-134565428D01*
G04 #@! TO.C,R9*
X193759453Y-134903486D02*
X193759453Y-134577928D01*
X192739453Y-134903486D02*
X192739453Y-134577928D01*
G04 #@! TO.C,R10*
X188377732Y-178372707D02*
X188052174Y-178372707D01*
X188377732Y-179392707D02*
X188052174Y-179392707D01*
G04 #@! TO.C,R11*
X189547240Y-190762953D02*
X189871559Y-190734579D01*
X189458341Y-189746835D02*
X189782660Y-189718461D01*
G04 #@! TO.C,R12*
X186759453Y-167790986D02*
X186759453Y-167465428D01*
X185739453Y-167790986D02*
X185739453Y-167465428D01*
G04 #@! TO.C,R13*
X184039453Y-167477928D02*
X184039453Y-167803486D01*
X185059453Y-167477928D02*
X185059453Y-167803486D01*
G04 #@! TO.C,R14*
X189859453Y-165515986D02*
X189859453Y-165190428D01*
X188839453Y-165515986D02*
X188839453Y-165190428D01*
D13*
G04 #@! TO.C,U1*
X185077217Y-184091536D02*
G75*
G03X185077217Y-184091536I0J0D01*
G01*
D12*
X185703439Y-185340474D02*
X185576263Y-182913804D01*
X182545535Y-183743557D02*
X182637647Y-185501145D01*
D13*
G04 #@! TO.C,U3*
X188141689Y-174619878D02*
G75*
G03X188141689Y-174619878I0J0D01*
G01*
D12*
X187515467Y-173370940D02*
X187642643Y-175797610D01*
X190673371Y-174967857D02*
X190581259Y-173210269D01*
D15*
G04 #@! TO.C,U4*
X192822977Y-151068014D02*
G75*
G03X192822977Y-151068014I0J0D01*
G01*
D14*
X185116665Y-147715738D02*
X193776919Y-152715738D01*
X190116665Y-139055484D02*
X185116665Y-147715738D01*
X198776919Y-144055484D02*
X190116665Y-139055484D01*
X193776919Y-152715738D02*
X198776919Y-144055484D01*
D10*
G04 #@! TO.C,U5*
X188040672Y-184734665D02*
G75*
G03X188240184Y-184720713I99756J6976D01*
G01*
X188240185Y-184720713D02*
G75*
G03X188040671Y-184734665I-99757J-6976D01*
G01*
X188240184Y-184720713D02*
X188240184Y-184720713D01*
X188040671Y-184734665D02*
X188040671Y-184734665D01*
D11*
X189527261Y-181623386D02*
X189666774Y-183618515D01*
X187532132Y-181762899D02*
X187671645Y-183758028D01*
D13*
G04 #@! TO.C,U6*
X185470742Y-192458776D02*
G75*
G03X185470742Y-192458776I-70710J0D01*
G01*
D12*
X185098906Y-194753754D02*
X189880641Y-194335407D01*
X184820008Y-191565931D02*
X189601743Y-191147584D01*
X184854870Y-191964409D02*
X183460198Y-192086427D01*
X184820008Y-191565931D02*
X184854870Y-191964409D01*
D13*
G04 #@! TO.C,U7*
X180104284Y-197781420D02*
G75*
G03X180104284Y-197781420I-70710J0D01*
G01*
D12*
X182322947Y-198122553D02*
X181988116Y-193334245D01*
X179130742Y-198345774D02*
X178795911Y-193557466D01*
X179529767Y-198317871D02*
X179627426Y-199714461D01*
X179130742Y-198345774D02*
X179529767Y-198317871D01*
D13*
G04 #@! TO.C,U8*
X178162628Y-201492872D02*
G75*
G03X178162628Y-201492872I-70710J0D01*
G01*
D12*
X177830891Y-203792756D02*
X182604596Y-203291019D01*
X177496400Y-200610285D02*
X182270105Y-200108549D01*
X177538212Y-201008094D02*
X176145881Y-201154434D01*
X177496400Y-200610285D02*
X177538212Y-201008094D01*
D13*
G04 #@! TO.C,U9*
X192671691Y-207434002D02*
G75*
G03X192671691Y-207434002I-70711J0D01*
G01*
D12*
X193021803Y-205157929D02*
X188224727Y-205325447D01*
X193133481Y-208355980D02*
X188336405Y-208523497D01*
X193119521Y-207956223D02*
X194518669Y-207907364D01*
X193133481Y-208355980D02*
X193119521Y-207956223D01*
G04 #@! TO.C,C15*
X184590678Y-188825527D02*
X184265913Y-188848237D01*
X184661829Y-189843043D02*
X184337064Y-189865753D01*
G04 #@! TO.C,C16*
X184471259Y-187255593D02*
X184146494Y-187278303D01*
X184542410Y-188273109D02*
X184217645Y-188295819D01*
G04 #@! TO.C,C17*
X191989453Y-156770707D02*
X191989453Y-160980707D01*
X195009453Y-156770707D02*
X191989453Y-156770707D01*
X195009453Y-160980707D02*
X195009453Y-156770707D01*
G04 #@! TO.C,L3*
X188526588Y-169503464D02*
X189729066Y-169440445D01*
X188621840Y-171320969D02*
X189824318Y-171257950D01*
G04 #@! TO.C,Q1*
X184509453Y-180380707D02*
X184509453Y-179450707D01*
X184509453Y-177220707D02*
X184509453Y-178150707D01*
X184509453Y-177220707D02*
X182349453Y-177220707D01*
X184509453Y-180380707D02*
X183049453Y-180380707D01*
G04 #@! TO.C,R15*
X181669453Y-176604629D02*
X181669453Y-177121785D01*
X180249453Y-176604629D02*
X180249453Y-177121785D01*
G04 #@! TO.C,JP2*
X189416674Y-166970707D02*
X189742232Y-166970707D01*
X189416674Y-167990707D02*
X189742232Y-167990707D01*
G04 #@! TO.C,JP3*
X193809453Y-163733486D02*
X193809453Y-163407928D01*
X194829453Y-163733486D02*
X194829453Y-163407928D01*
G04 #@! TO.C,JP5*
X193339453Y-163753486D02*
X193339453Y-163427928D01*
X192319453Y-163753486D02*
X192319453Y-163427928D01*
G04 #@! TO.C,R16*
X193739453Y-175997928D02*
X193739453Y-176323486D01*
X192719453Y-175997928D02*
X192719453Y-176323486D01*
G04 #@! TO.C,R17*
X193749453Y-173463486D02*
X193749453Y-173137928D01*
X192729453Y-173463486D02*
X192729453Y-173137928D01*
D10*
G04 #@! TO.C,U10*
X191215453Y-165568707D02*
G75*
G03X191215453Y-165568707I-25000J0D01*
G01*
G04 #@! TO.C,U2*
D14*
X184411357Y-158593087D02*
X184411357Y-159402611D01*
X184363738Y-159497849D01*
X184316119Y-159545468D01*
X184220881Y-159593087D01*
X184030405Y-159593087D01*
X183935167Y-159545468D01*
X183887548Y-159497849D01*
X183839929Y-159402611D01*
X183839929Y-158593087D01*
X183411357Y-158688326D02*
X183363738Y-158640707D01*
X183268500Y-158593087D01*
X183030405Y-158593087D01*
X182935167Y-158640707D01*
X182887548Y-158688326D01*
X182839929Y-158783564D01*
X182839929Y-158878802D01*
X182887548Y-159021659D01*
X183458976Y-159593087D01*
X182839929Y-159593087D01*
G04 #@! TO.C,C1*
X188031323Y-187432128D02*
X187987141Y-187482953D01*
X187949604Y-187628784D01*
X187956247Y-187723790D01*
X188013715Y-187862977D01*
X188115365Y-187951340D01*
X188213693Y-187992200D01*
X188407027Y-188026416D01*
X188549536Y-188016450D01*
X188736226Y-187955660D01*
X188827911Y-187901514D01*
X188916273Y-187799864D01*
X188953811Y-187654034D01*
X188947168Y-187559027D01*
X188889699Y-187419840D01*
X188838875Y-187375659D01*
X187869882Y-186488711D02*
X187909743Y-187058747D01*
X187889812Y-186773729D02*
X188887376Y-186703973D01*
X188751511Y-186808944D01*
X188663148Y-186910593D01*
X188622288Y-187008921D01*
G04 #@! TO.C,C2*
X164870851Y-179019472D02*
X164842391Y-179080506D01*
X164846504Y-179231034D01*
X164879077Y-179320529D01*
X164972684Y-179438484D01*
X165094752Y-179495405D01*
X165200533Y-179507579D01*
X165395809Y-179487180D01*
X165530051Y-179438320D01*
X165692753Y-179328426D01*
X165765961Y-179251105D01*
X165822882Y-179129037D01*
X165818769Y-178978509D01*
X165786196Y-178889014D01*
X165692589Y-178771059D01*
X165631555Y-178742599D01*
X165501262Y-178384620D02*
X165529722Y-178323586D01*
X165541896Y-178217805D01*
X165460463Y-177994069D01*
X165383142Y-177920861D01*
X165322108Y-177892400D01*
X165216327Y-177880227D01*
X165126832Y-177912800D01*
X165008877Y-178006407D01*
X164667350Y-178738814D01*
X164455623Y-178157100D01*
G04 #@! TO.C,C3*
X185944582Y-177568637D02*
X185994628Y-177613699D01*
X186139782Y-177653776D01*
X186234889Y-177648792D01*
X186375058Y-177593761D01*
X186465182Y-177493669D01*
X186507751Y-177396070D01*
X186545336Y-177203362D01*
X186537860Y-177060701D01*
X186480337Y-176872978D01*
X186427799Y-176780363D01*
X186327707Y-176690239D01*
X186182553Y-176650162D01*
X186087446Y-176655147D01*
X185947277Y-176710177D01*
X185902215Y-176760223D01*
X185564354Y-176682561D02*
X184946155Y-176714959D01*
X185298969Y-177077944D01*
X185156307Y-177085421D01*
X185063692Y-177137959D01*
X185018631Y-177188005D01*
X184976061Y-177285605D01*
X184988522Y-177523373D01*
X185041060Y-177615989D01*
X185091106Y-177661050D01*
X185188706Y-177703620D01*
X185474029Y-177688667D01*
X185566644Y-177636129D01*
X185611706Y-177586083D01*
G04 #@! TO.C,C4*
X191116806Y-175905880D02*
X191072624Y-175956705D01*
X191035087Y-176102536D01*
X191041730Y-176197542D01*
X191099198Y-176336729D01*
X191200848Y-176425092D01*
X191299176Y-176465952D01*
X191492510Y-176500168D01*
X191635019Y-176490202D01*
X191821709Y-176429412D01*
X191913394Y-176375266D01*
X192001756Y-176273616D01*
X192039294Y-176127786D01*
X192032651Y-176032779D01*
X191975182Y-175893592D01*
X191924358Y-175849411D01*
X191627051Y-175010964D02*
X190962008Y-175057469D01*
X192023684Y-175221906D02*
X191327747Y-175509247D01*
X191284564Y-174891707D01*
G04 #@! TO.C,C5*
X166220851Y-178619472D02*
X166192391Y-178680506D01*
X166196504Y-178831034D01*
X166229077Y-178920529D01*
X166322684Y-179038484D01*
X166444752Y-179095405D01*
X166550533Y-179107579D01*
X166745809Y-179087180D01*
X166880051Y-179038320D01*
X167042753Y-178928426D01*
X167115961Y-178851105D01*
X167172882Y-178729037D01*
X167168769Y-178578509D01*
X167136196Y-178489014D01*
X167042589Y-178371059D01*
X166981555Y-178342599D01*
X166761603Y-177459827D02*
X166924469Y-177907300D01*
X166493283Y-178114914D01*
X166521744Y-178053880D01*
X166533918Y-177948099D01*
X166452485Y-177724362D01*
X166375164Y-177651154D01*
X166314130Y-177622694D01*
X166208349Y-177610520D01*
X165984612Y-177691953D01*
X165911405Y-177769274D01*
X165882944Y-177830308D01*
X165870770Y-177936089D01*
X165952203Y-178159825D01*
X166029524Y-178233033D01*
X166090558Y-178261494D01*
G04 #@! TO.C,C6*
X174406595Y-173674040D02*
X174454214Y-173626421D01*
X174501833Y-173483564D01*
X174501833Y-173388326D01*
X174454214Y-173245468D01*
X174358976Y-173150230D01*
X174263738Y-173102611D01*
X174073262Y-173054992D01*
X173930405Y-173054992D01*
X173739929Y-173102611D01*
X173644691Y-173150230D01*
X173549453Y-173245468D01*
X173501833Y-173388326D01*
X173501833Y-173483564D01*
X173549453Y-173626421D01*
X173597072Y-173674040D01*
X173501833Y-174531183D02*
X173501833Y-174340707D01*
X173549453Y-174245468D01*
X173597072Y-174197849D01*
X173739929Y-174102611D01*
X173930405Y-174054992D01*
X174311357Y-174054992D01*
X174406595Y-174102611D01*
X174454214Y-174150230D01*
X174501833Y-174245468D01*
X174501833Y-174435945D01*
X174454214Y-174531183D01*
X174406595Y-174578802D01*
X174311357Y-174626421D01*
X174073262Y-174626421D01*
X173978024Y-174578802D01*
X173930405Y-174531183D01*
X173882786Y-174435945D01*
X173882786Y-174245468D01*
X173930405Y-174150230D01*
X173978024Y-174102611D01*
X174073262Y-174054992D01*
G04 #@! TO.C,C7*
X172806595Y-173674040D02*
X172854214Y-173626421D01*
X172901833Y-173483564D01*
X172901833Y-173388326D01*
X172854214Y-173245468D01*
X172758976Y-173150230D01*
X172663738Y-173102611D01*
X172473262Y-173054992D01*
X172330405Y-173054992D01*
X172139929Y-173102611D01*
X172044691Y-173150230D01*
X171949453Y-173245468D01*
X171901833Y-173388326D01*
X171901833Y-173483564D01*
X171949453Y-173626421D01*
X171997072Y-173674040D01*
X171901833Y-174007373D02*
X171901833Y-174674040D01*
X172901833Y-174245468D01*
G04 #@! TO.C,C8*
X176316119Y-164597849D02*
X176363738Y-164645468D01*
X176506595Y-164693087D01*
X176601833Y-164693087D01*
X176744691Y-164645468D01*
X176839929Y-164550230D01*
X176887548Y-164454992D01*
X176935167Y-164264516D01*
X176935167Y-164121659D01*
X176887548Y-163931183D01*
X176839929Y-163835945D01*
X176744691Y-163740707D01*
X176601833Y-163693087D01*
X176506595Y-163693087D01*
X176363738Y-163740707D01*
X176316119Y-163788326D01*
X175744691Y-164121659D02*
X175839929Y-164074040D01*
X175887548Y-164026421D01*
X175935167Y-163931183D01*
X175935167Y-163883564D01*
X175887548Y-163788326D01*
X175839929Y-163740707D01*
X175744691Y-163693087D01*
X175554214Y-163693087D01*
X175458976Y-163740707D01*
X175411357Y-163788326D01*
X175363738Y-163883564D01*
X175363738Y-163931183D01*
X175411357Y-164026421D01*
X175458976Y-164074040D01*
X175554214Y-164121659D01*
X175744691Y-164121659D01*
X175839929Y-164169278D01*
X175887548Y-164216897D01*
X175935167Y-164312135D01*
X175935167Y-164502611D01*
X175887548Y-164597849D01*
X175839929Y-164645468D01*
X175744691Y-164693087D01*
X175554214Y-164693087D01*
X175458976Y-164645468D01*
X175411357Y-164597849D01*
X175363738Y-164502611D01*
X175363738Y-164312135D01*
X175411357Y-164216897D01*
X175458976Y-164169278D01*
X175554214Y-164121659D01*
G04 #@! TO.C,C9*
X171616119Y-162997849D02*
X171663738Y-163045468D01*
X171806595Y-163093087D01*
X171901833Y-163093087D01*
X172044691Y-163045468D01*
X172139929Y-162950230D01*
X172187548Y-162854992D01*
X172235167Y-162664516D01*
X172235167Y-162521659D01*
X172187548Y-162331183D01*
X172139929Y-162235945D01*
X172044691Y-162140707D01*
X171901833Y-162093087D01*
X171806595Y-162093087D01*
X171663738Y-162140707D01*
X171616119Y-162188326D01*
X171139929Y-163093087D02*
X170949453Y-163093087D01*
X170854214Y-163045468D01*
X170806595Y-162997849D01*
X170711357Y-162854992D01*
X170663738Y-162664516D01*
X170663738Y-162283564D01*
X170711357Y-162188326D01*
X170758976Y-162140707D01*
X170854214Y-162093087D01*
X171044691Y-162093087D01*
X171139929Y-162140707D01*
X171187548Y-162188326D01*
X171235167Y-162283564D01*
X171235167Y-162521659D01*
X171187548Y-162616897D01*
X171139929Y-162664516D01*
X171044691Y-162712135D01*
X170854214Y-162712135D01*
X170758976Y-162664516D01*
X170711357Y-162616897D01*
X170663738Y-162521659D01*
G04 #@! TO.C,C10*
X179706595Y-150497849D02*
X179754214Y-150450230D01*
X179801833Y-150307373D01*
X179801833Y-150212135D01*
X179754214Y-150069278D01*
X179658976Y-149974040D01*
X179563738Y-149926421D01*
X179373262Y-149878802D01*
X179230405Y-149878802D01*
X179039929Y-149926421D01*
X178944691Y-149974040D01*
X178849453Y-150069278D01*
X178801833Y-150212135D01*
X178801833Y-150307373D01*
X178849453Y-150450230D01*
X178897072Y-150497849D01*
X179801833Y-151450230D02*
X179801833Y-150878802D01*
X179801833Y-151164516D02*
X178801833Y-151164516D01*
X178944691Y-151069278D01*
X179039929Y-150974040D01*
X179087548Y-150878802D01*
X178801833Y-152069278D02*
X178801833Y-152164516D01*
X178849453Y-152259754D01*
X178897072Y-152307373D01*
X178992310Y-152354992D01*
X179182786Y-152402611D01*
X179420881Y-152402611D01*
X179611357Y-152354992D01*
X179706595Y-152307373D01*
X179754214Y-152259754D01*
X179801833Y-152164516D01*
X179801833Y-152069278D01*
X179754214Y-151974040D01*
X179706595Y-151926421D01*
X179611357Y-151878802D01*
X179420881Y-151831183D01*
X179182786Y-151831183D01*
X178992310Y-151878802D01*
X178897072Y-151926421D01*
X178849453Y-151974040D01*
X178801833Y-152069278D01*
G04 #@! TO.C,C11*
X181331595Y-150522849D02*
X181379214Y-150475230D01*
X181426833Y-150332373D01*
X181426833Y-150237135D01*
X181379214Y-150094278D01*
X181283976Y-149999040D01*
X181188738Y-149951421D01*
X180998262Y-149903802D01*
X180855405Y-149903802D01*
X180664929Y-149951421D01*
X180569691Y-149999040D01*
X180474453Y-150094278D01*
X180426833Y-150237135D01*
X180426833Y-150332373D01*
X180474453Y-150475230D01*
X180522072Y-150522849D01*
X181426833Y-151475230D02*
X181426833Y-150903802D01*
X181426833Y-151189516D02*
X180426833Y-151189516D01*
X180569691Y-151094278D01*
X180664929Y-150999040D01*
X180712548Y-150903802D01*
X181426833Y-152427611D02*
X181426833Y-151856183D01*
X181426833Y-152141897D02*
X180426833Y-152141897D01*
X180569691Y-152046659D01*
X180664929Y-151951421D01*
X180712548Y-151856183D01*
G04 #@! TO.C,C12*
X179692310Y-166197849D02*
X179739929Y-166245468D01*
X179882786Y-166293087D01*
X179978024Y-166293087D01*
X180120881Y-166245468D01*
X180216119Y-166150230D01*
X180263738Y-166054992D01*
X180311357Y-165864516D01*
X180311357Y-165721659D01*
X180263738Y-165531183D01*
X180216119Y-165435945D01*
X180120881Y-165340707D01*
X179978024Y-165293087D01*
X179882786Y-165293087D01*
X179739929Y-165340707D01*
X179692310Y-165388326D01*
X178739929Y-166293087D02*
X179311357Y-166293087D01*
X179025643Y-166293087D02*
X179025643Y-165293087D01*
X179120881Y-165435945D01*
X179216119Y-165531183D01*
X179311357Y-165578802D01*
X178358976Y-165388326D02*
X178311357Y-165340707D01*
X178216119Y-165293087D01*
X177978024Y-165293087D01*
X177882786Y-165340707D01*
X177835167Y-165388326D01*
X177787548Y-165483564D01*
X177787548Y-165578802D01*
X177835167Y-165721659D01*
X178406595Y-166293087D01*
X177787548Y-166293087D01*
G04 #@! TO.C,C13*
X179682310Y-164527849D02*
X179729929Y-164575468D01*
X179872786Y-164623087D01*
X179968024Y-164623087D01*
X180110881Y-164575468D01*
X180206119Y-164480230D01*
X180253738Y-164384992D01*
X180301357Y-164194516D01*
X180301357Y-164051659D01*
X180253738Y-163861183D01*
X180206119Y-163765945D01*
X180110881Y-163670707D01*
X179968024Y-163623087D01*
X179872786Y-163623087D01*
X179729929Y-163670707D01*
X179682310Y-163718326D01*
X178729929Y-164623087D02*
X179301357Y-164623087D01*
X179015643Y-164623087D02*
X179015643Y-163623087D01*
X179110881Y-163765945D01*
X179206119Y-163861183D01*
X179301357Y-163908802D01*
X178396595Y-163623087D02*
X177777548Y-163623087D01*
X178110881Y-164004040D01*
X177968024Y-164004040D01*
X177872786Y-164051659D01*
X177825167Y-164099278D01*
X177777548Y-164194516D01*
X177777548Y-164432611D01*
X177825167Y-164527849D01*
X177872786Y-164575468D01*
X177968024Y-164623087D01*
X178253738Y-164623087D01*
X178348976Y-164575468D01*
X178396595Y-164527849D01*
G04 #@! TO.C,C14*
X185795167Y-164464992D02*
X185823738Y-164493564D01*
X185909453Y-164522135D01*
X185966595Y-164522135D01*
X186052310Y-164493564D01*
X186109453Y-164436421D01*
X186138024Y-164379278D01*
X186166595Y-164264992D01*
X186166595Y-164179278D01*
X186138024Y-164064992D01*
X186109453Y-164007849D01*
X186052310Y-163950707D01*
X185966595Y-163922135D01*
X185909453Y-163922135D01*
X185823738Y-163950707D01*
X185795167Y-163979278D01*
X185223738Y-164522135D02*
X185566595Y-164522135D01*
X185395167Y-164522135D02*
X185395167Y-163922135D01*
X185452310Y-164007849D01*
X185509453Y-164064992D01*
X185566595Y-164093564D01*
X184709453Y-164122135D02*
X184709453Y-164522135D01*
X184852310Y-163893564D02*
X184995167Y-164322135D01*
X184623738Y-164322135D01*
G04 #@! TO.C,L1*
X187581833Y-153119040D02*
X187581833Y-152642849D01*
X186581833Y-152642849D01*
X187581833Y-153976183D02*
X187581833Y-153404754D01*
X187581833Y-153690468D02*
X186581833Y-153690468D01*
X186724691Y-153595230D01*
X186819929Y-153499992D01*
X186867548Y-153404754D01*
G04 #@! TO.C,L2*
X185145617Y-141707559D02*
X185383712Y-141295166D01*
X184517687Y-140795166D01*
X184219213Y-141502614D02*
X184154164Y-141520044D01*
X184065306Y-141578713D01*
X183946258Y-141784910D01*
X183939879Y-141891198D01*
X183957309Y-141956247D01*
X184015978Y-142045105D01*
X184098456Y-142092724D01*
X184245984Y-142122913D01*
X185026570Y-141913756D01*
X184717046Y-142449867D01*
G04 #@! TO.C,MUX1*
X184920378Y-141274803D02*
X184054352Y-140774803D01*
X184506275Y-141420621D01*
X183721019Y-141352154D01*
X184587044Y-141852154D01*
X183482924Y-141764547D02*
X184183992Y-142169309D01*
X184242661Y-142258167D01*
X184260091Y-142323216D01*
X184253711Y-142429504D01*
X184158473Y-142594461D01*
X184069615Y-142653130D01*
X184004566Y-142670560D01*
X183898278Y-142664180D01*
X183197210Y-142259418D01*
X183006733Y-142589333D02*
X183539425Y-143666683D01*
X182673400Y-143166683D02*
X183872759Y-143089333D01*
X183087044Y-144450230D02*
X183372759Y-143955358D01*
X183229902Y-144202794D02*
X182363876Y-143702794D01*
X182535213Y-143691744D01*
X182665311Y-143656884D01*
X182754169Y-143598215D01*
G04 #@! TO.C,MUX2*
X179458976Y-162693087D02*
X179458976Y-161693087D01*
X179125643Y-162407373D01*
X178792310Y-161693087D01*
X178792310Y-162693087D01*
X178316119Y-161693087D02*
X178316119Y-162502611D01*
X178268500Y-162597849D01*
X178220881Y-162645468D01*
X178125643Y-162693087D01*
X177935167Y-162693087D01*
X177839929Y-162645468D01*
X177792310Y-162597849D01*
X177744691Y-162502611D01*
X177744691Y-161693087D01*
X177363738Y-161693087D02*
X176697072Y-162693087D01*
X176697072Y-161693087D02*
X177363738Y-162693087D01*
X176363738Y-161788326D02*
X176316119Y-161740707D01*
X176220881Y-161693087D01*
X175982786Y-161693087D01*
X175887548Y-161740707D01*
X175839929Y-161788326D01*
X175792310Y-161883564D01*
X175792310Y-161978802D01*
X175839929Y-162121659D01*
X176411357Y-162693087D01*
X175792310Y-162693087D01*
G04 #@! TO.C,MUX3*
X172651833Y-165781183D02*
X171651833Y-165781183D01*
X172366119Y-166114516D01*
X171651833Y-166447849D01*
X172651833Y-166447849D01*
X171651833Y-166924040D02*
X172461357Y-166924040D01*
X172556595Y-166971659D01*
X172604214Y-167019278D01*
X172651833Y-167114516D01*
X172651833Y-167304992D01*
X172604214Y-167400230D01*
X172556595Y-167447849D01*
X172461357Y-167495468D01*
X171651833Y-167495468D01*
X171651833Y-167876421D02*
X172651833Y-168543087D01*
X171651833Y-168543087D02*
X172651833Y-167876421D01*
X171651833Y-168828802D02*
X171651833Y-169447849D01*
X172032786Y-169114516D01*
X172032786Y-169257373D01*
X172080405Y-169352611D01*
X172128024Y-169400230D01*
X172223262Y-169447849D01*
X172461357Y-169447849D01*
X172556595Y-169400230D01*
X172604214Y-169352611D01*
X172651833Y-169257373D01*
X172651833Y-168971659D01*
X172604214Y-168876421D01*
X172556595Y-168828802D01*
G04 #@! TO.C,MUX4*
X166957338Y-188959998D02*
X167897031Y-188617978D01*
X167111815Y-188549047D01*
X167669017Y-187991516D01*
X166729325Y-188333536D01*
X167506151Y-187544044D02*
X166745447Y-187820917D01*
X166639666Y-187808743D01*
X166578632Y-187780282D01*
X166501311Y-187707075D01*
X166436164Y-187528086D01*
X166448338Y-187422304D01*
X166476799Y-187361270D01*
X166550007Y-187283950D01*
X167310710Y-187007076D01*
X167180417Y-186649098D02*
X166012711Y-186364657D01*
X166952404Y-186022636D02*
X166240724Y-186991118D01*
X166362299Y-185375940D02*
X165735838Y-185603953D01*
X166801711Y-185469383D02*
X166211935Y-185937419D01*
X166000208Y-185355704D01*
G04 #@! TO.C,Q2*
X189814691Y-163718326D02*
X189909929Y-163670707D01*
X190005167Y-163575468D01*
X190148024Y-163432611D01*
X190243262Y-163384992D01*
X190338500Y-163384992D01*
X190290881Y-163623087D02*
X190386119Y-163575468D01*
X190481357Y-163480230D01*
X190528976Y-163289754D01*
X190528976Y-162956421D01*
X190481357Y-162765945D01*
X190386119Y-162670707D01*
X190290881Y-162623087D01*
X190100405Y-162623087D01*
X190005167Y-162670707D01*
X189909929Y-162765945D01*
X189862310Y-162956421D01*
X189862310Y-163289754D01*
X189909929Y-163480230D01*
X190005167Y-163575468D01*
X190100405Y-163623087D01*
X190290881Y-163623087D01*
X189481357Y-162718326D02*
X189433738Y-162670707D01*
X189338500Y-162623087D01*
X189100405Y-162623087D01*
X189005167Y-162670707D01*
X188957548Y-162718326D01*
X188909929Y-162813564D01*
X188909929Y-162908802D01*
X188957548Y-163051659D01*
X189528976Y-163623087D01*
X188909929Y-163623087D01*
G04 #@! TO.C,R1*
X178697159Y-185089240D02*
X179190142Y-185397194D01*
X178727065Y-185659885D02*
X179725695Y-185607549D01*
X179705757Y-185227119D01*
X179653219Y-185134503D01*
X179603173Y-185089442D01*
X179505574Y-185046872D01*
X179362912Y-185054349D01*
X179270297Y-185106887D01*
X179225235Y-185156933D01*
X179182666Y-185254533D01*
X179202603Y-185634963D01*
X178647315Y-184138164D02*
X178677222Y-184708809D01*
X178662269Y-184423487D02*
X179660898Y-184371151D01*
X179523221Y-184473735D01*
X179433098Y-184573827D01*
X179390528Y-184671426D01*
G04 #@! TO.C,R2*
X188016119Y-156593087D02*
X188349453Y-156116897D01*
X188587548Y-156593087D02*
X188587548Y-155593087D01*
X188206595Y-155593087D01*
X188111357Y-155640707D01*
X188063738Y-155688326D01*
X188016119Y-155783564D01*
X188016119Y-155926421D01*
X188063738Y-156021659D01*
X188111357Y-156069278D01*
X188206595Y-156116897D01*
X188587548Y-156116897D01*
X187635167Y-155688326D02*
X187587548Y-155640707D01*
X187492310Y-155593087D01*
X187254214Y-155593087D01*
X187158976Y-155640707D01*
X187111357Y-155688326D01*
X187063738Y-155783564D01*
X187063738Y-155878802D01*
X187111357Y-156021659D01*
X187682786Y-156593087D01*
X187063738Y-156593087D01*
G04 #@! TO.C,R3*
X187916119Y-158093087D02*
X188249453Y-157616897D01*
X188487548Y-158093087D02*
X188487548Y-157093087D01*
X188106595Y-157093087D01*
X188011357Y-157140707D01*
X187963738Y-157188326D01*
X187916119Y-157283564D01*
X187916119Y-157426421D01*
X187963738Y-157521659D01*
X188011357Y-157569278D01*
X188106595Y-157616897D01*
X188487548Y-157616897D01*
X187582786Y-157093087D02*
X186963738Y-157093087D01*
X187297072Y-157474040D01*
X187154214Y-157474040D01*
X187058976Y-157521659D01*
X187011357Y-157569278D01*
X186963738Y-157664516D01*
X186963738Y-157902611D01*
X187011357Y-157997849D01*
X187058976Y-158045468D01*
X187154214Y-158093087D01*
X187439929Y-158093087D01*
X187535167Y-158045468D01*
X187582786Y-157997849D01*
G04 #@! TO.C,R4*
X192941833Y-182344040D02*
X192465643Y-182010707D01*
X192941833Y-181772611D02*
X191941833Y-181772611D01*
X191941833Y-182153564D01*
X191989453Y-182248802D01*
X192037072Y-182296421D01*
X192132310Y-182344040D01*
X192275167Y-182344040D01*
X192370405Y-182296421D01*
X192418024Y-182248802D01*
X192465643Y-182153564D01*
X192465643Y-181772611D01*
X192275167Y-183201183D02*
X192941833Y-183201183D01*
X191894214Y-182963087D02*
X192608500Y-182724992D01*
X192608500Y-183344040D01*
G04 #@! TO.C,R5*
X174283283Y-196338276D02*
X174781565Y-196637580D01*
X174323143Y-196908312D02*
X175320707Y-196838556D01*
X175294134Y-196458531D01*
X175239987Y-196366847D01*
X175189162Y-196322666D01*
X175090834Y-196281806D01*
X174948325Y-196291771D01*
X174856641Y-196345918D01*
X174812460Y-196396743D01*
X174771600Y-196495071D01*
X174798174Y-196875095D01*
X175217734Y-195365961D02*
X175250951Y-195840992D01*
X174779242Y-195921712D01*
X174823424Y-195870887D01*
X174864283Y-195772560D01*
X174847674Y-195535044D01*
X174793528Y-195443360D01*
X174742703Y-195399179D01*
X174644375Y-195358319D01*
X174406860Y-195374928D01*
X174315176Y-195429074D01*
X174270994Y-195479899D01*
X174230135Y-195578227D01*
X174246743Y-195815742D01*
X174300890Y-195907426D01*
X174351715Y-195951608D01*
G04 #@! TO.C,R6*
X181416119Y-171393087D02*
X181749453Y-170916897D01*
X181987548Y-171393087D02*
X181987548Y-170393087D01*
X181606595Y-170393087D01*
X181511357Y-170440707D01*
X181463738Y-170488326D01*
X181416119Y-170583564D01*
X181416119Y-170726421D01*
X181463738Y-170821659D01*
X181511357Y-170869278D01*
X181606595Y-170916897D01*
X181987548Y-170916897D01*
X180558976Y-170393087D02*
X180749453Y-170393087D01*
X180844691Y-170440707D01*
X180892310Y-170488326D01*
X180987548Y-170631183D01*
X181035167Y-170821659D01*
X181035167Y-171202611D01*
X180987548Y-171297849D01*
X180939929Y-171345468D01*
X180844691Y-171393087D01*
X180654214Y-171393087D01*
X180558976Y-171345468D01*
X180511357Y-171297849D01*
X180463738Y-171202611D01*
X180463738Y-170964516D01*
X180511357Y-170869278D01*
X180558976Y-170821659D01*
X180654214Y-170774040D01*
X180844691Y-170774040D01*
X180939929Y-170821659D01*
X180987548Y-170869278D01*
X181035167Y-170964516D01*
G04 #@! TO.C,R7*
X173516119Y-154993087D02*
X173849453Y-154516897D01*
X174087548Y-154993087D02*
X174087548Y-153993087D01*
X173706595Y-153993087D01*
X173611357Y-154040707D01*
X173563738Y-154088326D01*
X173516119Y-154183564D01*
X173516119Y-154326421D01*
X173563738Y-154421659D01*
X173611357Y-154469278D01*
X173706595Y-154516897D01*
X174087548Y-154516897D01*
X173182786Y-153993087D02*
X172516119Y-153993087D01*
X172944691Y-154993087D01*
G04 #@! TO.C,R8*
X189271833Y-134561540D02*
X188795643Y-134228207D01*
X189271833Y-133990111D02*
X188271833Y-133990111D01*
X188271833Y-134371064D01*
X188319453Y-134466302D01*
X188367072Y-134513921D01*
X188462310Y-134561540D01*
X188605167Y-134561540D01*
X188700405Y-134513921D01*
X188748024Y-134466302D01*
X188795643Y-134371064D01*
X188795643Y-133990111D01*
X188700405Y-135132968D02*
X188652786Y-135037730D01*
X188605167Y-134990111D01*
X188509929Y-134942492D01*
X188462310Y-134942492D01*
X188367072Y-134990111D01*
X188319453Y-135037730D01*
X188271833Y-135132968D01*
X188271833Y-135323445D01*
X188319453Y-135418683D01*
X188367072Y-135466302D01*
X188462310Y-135513921D01*
X188509929Y-135513921D01*
X188605167Y-135466302D01*
X188652786Y-135418683D01*
X188700405Y-135323445D01*
X188700405Y-135132968D01*
X188748024Y-135037730D01*
X188795643Y-134990111D01*
X188890881Y-134942492D01*
X189081357Y-134942492D01*
X189176595Y-134990111D01*
X189224214Y-135037730D01*
X189271833Y-135132968D01*
X189271833Y-135323445D01*
X189224214Y-135418683D01*
X189176595Y-135466302D01*
X189081357Y-135513921D01*
X188890881Y-135513921D01*
X188795643Y-135466302D01*
X188748024Y-135418683D01*
X188700405Y-135323445D01*
G04 #@! TO.C,R9*
X192271833Y-134574040D02*
X191795643Y-134240707D01*
X192271833Y-134002611D02*
X191271833Y-134002611D01*
X191271833Y-134383564D01*
X191319453Y-134478802D01*
X191367072Y-134526421D01*
X191462310Y-134574040D01*
X191605167Y-134574040D01*
X191700405Y-134526421D01*
X191748024Y-134478802D01*
X191795643Y-134383564D01*
X191795643Y-134002611D01*
X192271833Y-135050230D02*
X192271833Y-135240707D01*
X192224214Y-135335945D01*
X192176595Y-135383564D01*
X192033738Y-135478802D01*
X191843262Y-135526421D01*
X191462310Y-135526421D01*
X191367072Y-135478802D01*
X191319453Y-135431183D01*
X191271833Y-135335945D01*
X191271833Y-135145468D01*
X191319453Y-135050230D01*
X191367072Y-135002611D01*
X191462310Y-134954992D01*
X191700405Y-134954992D01*
X191795643Y-135002611D01*
X191843262Y-135050230D01*
X191890881Y-135145468D01*
X191890881Y-135335945D01*
X191843262Y-135431183D01*
X191795643Y-135478802D01*
X191700405Y-135526421D01*
G04 #@! TO.C,R10*
X191742310Y-179403087D02*
X192075643Y-178926897D01*
X192313738Y-179403087D02*
X192313738Y-178403087D01*
X191932786Y-178403087D01*
X191837548Y-178450707D01*
X191789929Y-178498326D01*
X191742310Y-178593564D01*
X191742310Y-178736421D01*
X191789929Y-178831659D01*
X191837548Y-178879278D01*
X191932786Y-178926897D01*
X192313738Y-178926897D01*
X190789929Y-179403087D02*
X191361357Y-179403087D01*
X191075643Y-179403087D02*
X191075643Y-178403087D01*
X191170881Y-178545945D01*
X191266119Y-178641183D01*
X191361357Y-178688802D01*
X190170881Y-178403087D02*
X190075643Y-178403087D01*
X189980405Y-178450707D01*
X189932786Y-178498326D01*
X189885167Y-178593564D01*
X189837548Y-178784040D01*
X189837548Y-179022135D01*
X189885167Y-179212611D01*
X189932786Y-179307849D01*
X189980405Y-179355468D01*
X190075643Y-179403087D01*
X190170881Y-179403087D01*
X190266119Y-179355468D01*
X190313738Y-179307849D01*
X190361357Y-179212611D01*
X190408976Y-179022135D01*
X190408976Y-178784040D01*
X190361357Y-178593564D01*
X190313738Y-178498326D01*
X190266119Y-178450707D01*
X190170881Y-178403087D01*
G04 #@! TO.C,R11*
X187529291Y-191135337D02*
X187819853Y-190631907D01*
X188098545Y-191085534D02*
X188011389Y-190089339D01*
X187631887Y-190122542D01*
X187541161Y-190178280D01*
X187497874Y-190229868D01*
X187458736Y-190328894D01*
X187471187Y-190471208D01*
X187526926Y-190561933D01*
X187578514Y-190605220D01*
X187677540Y-190644358D01*
X188057042Y-190611156D01*
X186580534Y-191218343D02*
X187149788Y-191168540D01*
X186865161Y-191193441D02*
X186778005Y-190197246D01*
X186885332Y-190331259D01*
X186988508Y-190417835D01*
X187087534Y-190456972D01*
X185631777Y-191301348D02*
X186201031Y-191251545D01*
X185916404Y-191276447D02*
X185829249Y-190280252D01*
X185936575Y-190414265D01*
X186039751Y-190500840D01*
X186138777Y-190539977D01*
G04 #@! TO.C,R12*
X186490881Y-169544992D02*
X186205167Y-169344992D01*
X186490881Y-169202135D02*
X185890881Y-169202135D01*
X185890881Y-169430707D01*
X185919453Y-169487849D01*
X185948024Y-169516421D01*
X186005167Y-169544992D01*
X186090881Y-169544992D01*
X186148024Y-169516421D01*
X186176595Y-169487849D01*
X186205167Y-169430707D01*
X186205167Y-169202135D01*
X186490881Y-170116421D02*
X186490881Y-169773564D01*
X186490881Y-169944992D02*
X185890881Y-169944992D01*
X185976595Y-169887849D01*
X186033738Y-169830707D01*
X186062310Y-169773564D01*
X185948024Y-170344992D02*
X185919453Y-170373564D01*
X185890881Y-170430707D01*
X185890881Y-170573564D01*
X185919453Y-170630707D01*
X185948024Y-170659278D01*
X186005167Y-170687849D01*
X186062310Y-170687849D01*
X186148024Y-170659278D01*
X186490881Y-170316421D01*
X186490881Y-170687849D01*
G04 #@! TO.C,R13*
X183601833Y-167097849D02*
X183125643Y-166764516D01*
X183601833Y-166526421D02*
X182601833Y-166526421D01*
X182601833Y-166907373D01*
X182649453Y-167002611D01*
X182697072Y-167050230D01*
X182792310Y-167097849D01*
X182935167Y-167097849D01*
X183030405Y-167050230D01*
X183078024Y-167002611D01*
X183125643Y-166907373D01*
X183125643Y-166526421D01*
X183601833Y-168050230D02*
X183601833Y-167478802D01*
X183601833Y-167764516D02*
X182601833Y-167764516D01*
X182744691Y-167669278D01*
X182839929Y-167574040D01*
X182887548Y-167478802D01*
X182601833Y-168383564D02*
X182601833Y-169002611D01*
X182982786Y-168669278D01*
X182982786Y-168812135D01*
X183030405Y-168907373D01*
X183078024Y-168954992D01*
X183173262Y-169002611D01*
X183411357Y-169002611D01*
X183506595Y-168954992D01*
X183554214Y-168907373D01*
X183601833Y-168812135D01*
X183601833Y-168526421D01*
X183554214Y-168431183D01*
X183506595Y-168383564D01*
G04 #@! TO.C,R14*
X188450881Y-165004992D02*
X188165167Y-164804992D01*
X188450881Y-164662135D02*
X187850881Y-164662135D01*
X187850881Y-164890707D01*
X187879453Y-164947849D01*
X187908024Y-164976421D01*
X187965167Y-165004992D01*
X188050881Y-165004992D01*
X188108024Y-164976421D01*
X188136595Y-164947849D01*
X188165167Y-164890707D01*
X188165167Y-164662135D01*
X188450881Y-165576421D02*
X188450881Y-165233564D01*
X188450881Y-165404992D02*
X187850881Y-165404992D01*
X187936595Y-165347849D01*
X187993738Y-165290707D01*
X188022310Y-165233564D01*
X188050881Y-166090707D02*
X188450881Y-166090707D01*
X187822310Y-165947849D02*
X188250881Y-165804992D01*
X188250881Y-166176421D01*
G04 #@! TO.C,U1*
X184708433Y-181412637D02*
X184746563Y-182140210D01*
X184708251Y-182228050D01*
X184667695Y-182273091D01*
X184584342Y-182320376D01*
X184413148Y-182329348D01*
X184325308Y-182291035D01*
X184280267Y-182250480D01*
X184232982Y-182167126D01*
X184194852Y-181439553D01*
X183343188Y-182385422D02*
X183856769Y-182358506D01*
X183599978Y-182371964D02*
X183552876Y-181473197D01*
X183645202Y-181597107D01*
X183735284Y-181678218D01*
X183823124Y-181716530D01*
G04 #@! TO.C,U3*
X187008433Y-173642637D02*
X187046563Y-174370210D01*
X187008251Y-174458050D01*
X186967695Y-174503091D01*
X186884342Y-174550376D01*
X186713148Y-174559348D01*
X186625308Y-174521035D01*
X186580267Y-174480480D01*
X186532982Y-174397126D01*
X186494852Y-173669553D01*
X186152465Y-173687497D02*
X185596085Y-173716655D01*
X185913618Y-174043342D01*
X185785223Y-174050071D01*
X185701869Y-174097355D01*
X185661314Y-174142396D01*
X185623001Y-174230236D01*
X185634216Y-174444228D01*
X185681500Y-174527582D01*
X185726542Y-174568138D01*
X185814381Y-174606450D01*
X186071172Y-174592992D01*
X186154526Y-174545708D01*
X186195081Y-174500666D01*
G04 #@! TO.C,U4*
X181327823Y-134082966D02*
X182028891Y-134487728D01*
X182087560Y-134576586D01*
X182104990Y-134641635D01*
X182098610Y-134747923D01*
X182003372Y-134912881D01*
X181914514Y-134971550D01*
X181849465Y-134988979D01*
X181743177Y-134982600D01*
X181042109Y-134577838D01*
X180878403Y-135528051D02*
X181455753Y-135861385D01*
X180667536Y-135131379D02*
X181405173Y-135282325D01*
X181095649Y-135818436D01*
G04 #@! TO.C,U5*
X187188942Y-183490366D02*
X186462145Y-183541189D01*
X186373650Y-183504415D01*
X186327908Y-183464652D01*
X186279176Y-183382136D01*
X186267218Y-183211125D01*
X186303992Y-183122630D01*
X186343755Y-183076888D01*
X186426271Y-183028156D01*
X187153067Y-182977334D01*
X187093276Y-182122279D02*
X187123172Y-182549806D01*
X186698634Y-182622454D01*
X186738397Y-182576712D01*
X186775171Y-182488217D01*
X186760223Y-182274453D01*
X186711491Y-182191937D01*
X186665749Y-182152174D01*
X186577254Y-182115401D01*
X186363490Y-182130348D01*
X186280974Y-182179080D01*
X186241211Y-182224823D01*
X186204437Y-182313318D01*
X186219385Y-182527081D01*
X186268117Y-182609597D01*
X186313859Y-182649360D01*
G04 #@! TO.C,U6*
X186760730Y-194928767D02*
X186831284Y-195735210D01*
X186792147Y-195834236D01*
X186748860Y-195885824D01*
X186658134Y-195941563D01*
X186468383Y-195958164D01*
X186369357Y-195919027D01*
X186317769Y-195875739D01*
X186262030Y-195785014D01*
X186191476Y-194978570D01*
X185290157Y-195057425D02*
X185479908Y-195040824D01*
X185578934Y-195079962D01*
X185630522Y-195123249D01*
X185737849Y-195257262D01*
X185801888Y-195442863D01*
X185835090Y-195822366D01*
X185795952Y-195921392D01*
X185752665Y-195972980D01*
X185661940Y-196028718D01*
X185472188Y-196045320D01*
X185373162Y-196006182D01*
X185321574Y-195962895D01*
X185265836Y-195872169D01*
X185245084Y-195634980D01*
X185284222Y-195535954D01*
X185327509Y-195484366D01*
X185418235Y-195428628D01*
X185607986Y-195412027D01*
X185707012Y-195451164D01*
X185758600Y-195494451D01*
X185814338Y-195585177D01*
G04 #@! TO.C,U7*
X178754731Y-196729971D02*
X177947180Y-196786441D01*
X177848852Y-196745581D01*
X177798027Y-196701400D01*
X177743880Y-196609716D01*
X177730593Y-196419703D01*
X177771453Y-196321376D01*
X177815634Y-196270551D01*
X177907319Y-196216404D01*
X178714871Y-196159935D01*
X178688297Y-195779910D02*
X178641792Y-195114868D01*
X177674124Y-195612152D01*
G04 #@! TO.C,U8*
X181249942Y-203716447D02*
X181334560Y-204521536D01*
X181297157Y-204621230D01*
X181254776Y-204673565D01*
X181165037Y-204730879D01*
X180975605Y-204750789D01*
X180875911Y-204713386D01*
X180823575Y-204671005D01*
X180766262Y-204581266D01*
X180681643Y-203776177D01*
X180110785Y-204267109D02*
X180200524Y-204209796D01*
X180242904Y-204157460D01*
X180280308Y-204057766D01*
X180275330Y-204010408D01*
X180218017Y-203920669D01*
X180165681Y-203878288D01*
X180065987Y-203840885D01*
X179876554Y-203860795D01*
X179786815Y-203918109D01*
X179744435Y-203970444D01*
X179707032Y-204070138D01*
X179712009Y-204117497D01*
X179769323Y-204207235D01*
X179821658Y-204249616D01*
X179921352Y-204287019D01*
X180110785Y-204267109D01*
X180210479Y-204304512D01*
X180262815Y-204346893D01*
X180320128Y-204436632D01*
X180340038Y-204626064D01*
X180302635Y-204725758D01*
X180260254Y-204778094D01*
X180170516Y-204835407D01*
X179981083Y-204855317D01*
X179881389Y-204817914D01*
X179829053Y-204775534D01*
X179771740Y-204685795D01*
X179751830Y-204496362D01*
X179789233Y-204396668D01*
X179831613Y-204344332D01*
X179921352Y-204287019D01*
G04 #@! TO.C,U9*
X191171782Y-203626831D02*
X191200033Y-204435862D01*
X191155767Y-204532704D01*
X191109839Y-204581956D01*
X191016321Y-204632869D01*
X190825961Y-204639517D01*
X190729119Y-204595251D01*
X190679867Y-204549322D01*
X190628953Y-204455804D01*
X190600701Y-203646774D01*
X190112110Y-204664445D02*
X189921750Y-204671093D01*
X189824908Y-204626826D01*
X189775656Y-204580898D01*
X189675490Y-204441452D01*
X189621253Y-204252753D01*
X189607958Y-203872033D01*
X189652224Y-203775191D01*
X189698152Y-203725939D01*
X189791670Y-203675025D01*
X189982031Y-203668378D01*
X190078872Y-203712644D01*
X190128124Y-203758572D01*
X190179038Y-203852091D01*
X190187348Y-204090041D01*
X190143081Y-204186883D01*
X190097153Y-204236135D01*
X190003635Y-204287048D01*
X189813275Y-204293696D01*
X189716433Y-204249430D01*
X189667181Y-204203502D01*
X189616267Y-204109983D01*
G04 #@! TO.C,C15*
X182053428Y-190027589D02*
X182104252Y-190071770D01*
X182250083Y-190109308D01*
X182345089Y-190102665D01*
X182484277Y-190045196D01*
X182572640Y-189943547D01*
X182613499Y-189845219D01*
X182647715Y-189651885D01*
X182637750Y-189509376D01*
X182576960Y-189322685D01*
X182522813Y-189231001D01*
X182421164Y-189142638D01*
X182275333Y-189105101D01*
X182180327Y-189111744D01*
X182041139Y-189169212D01*
X181996958Y-189220037D01*
X181110010Y-190189030D02*
X181680047Y-190149169D01*
X181395028Y-190169099D02*
X181325272Y-189171535D01*
X181430243Y-189307401D01*
X181531893Y-189395764D01*
X181630221Y-189436623D01*
X180137696Y-189254579D02*
X180612726Y-189221361D01*
X180693447Y-189693070D01*
X180642622Y-189648889D01*
X180544294Y-189608029D01*
X180306779Y-189624638D01*
X180215094Y-189678784D01*
X180170913Y-189729609D01*
X180130054Y-189827937D01*
X180146662Y-190065452D01*
X180200809Y-190157137D01*
X180251634Y-190201318D01*
X180349961Y-190242178D01*
X180587477Y-190225569D01*
X180679161Y-190171422D01*
X180723342Y-190120598D01*
G04 #@! TO.C,C16*
X181974121Y-188314508D02*
X182024945Y-188358689D01*
X182170776Y-188396227D01*
X182265782Y-188389584D01*
X182404970Y-188332115D01*
X182493333Y-188230466D01*
X182534192Y-188132138D01*
X182568408Y-187938804D01*
X182558443Y-187796295D01*
X182497653Y-187609604D01*
X182443506Y-187517920D01*
X182341857Y-187429557D01*
X182196026Y-187392020D01*
X182101020Y-187398663D01*
X181961832Y-187456131D01*
X181917651Y-187506956D01*
X181030703Y-188475949D02*
X181600740Y-188436088D01*
X181315721Y-188456018D02*
X181245965Y-187458454D01*
X181350936Y-187594320D01*
X181452586Y-187682683D01*
X181550914Y-187723542D01*
X180105892Y-187538176D02*
X180295904Y-187524889D01*
X180394232Y-187565749D01*
X180445057Y-187609930D01*
X180550028Y-187745796D01*
X180610818Y-187932486D01*
X180637392Y-188312510D01*
X180596532Y-188410838D01*
X180552351Y-188461663D01*
X180460667Y-188515810D01*
X180270654Y-188529097D01*
X180172327Y-188488237D01*
X180121502Y-188444056D01*
X180067355Y-188352371D01*
X180050747Y-188114856D01*
X180091606Y-188016528D01*
X180135787Y-187965703D01*
X180227472Y-187911557D01*
X180417484Y-187898270D01*
X180515812Y-187939130D01*
X180566637Y-187983311D01*
X180620783Y-188074995D01*
G04 #@! TO.C,C17*
X195643738Y-158614992D02*
X195672310Y-158586421D01*
X195700881Y-158500707D01*
X195700881Y-158443564D01*
X195672310Y-158357849D01*
X195615167Y-158300707D01*
X195558024Y-158272135D01*
X195443738Y-158243564D01*
X195358024Y-158243564D01*
X195243738Y-158272135D01*
X195186595Y-158300707D01*
X195129453Y-158357849D01*
X195100881Y-158443564D01*
X195100881Y-158500707D01*
X195129453Y-158586421D01*
X195158024Y-158614992D01*
X195700881Y-159186421D02*
X195700881Y-158843564D01*
X195700881Y-159014992D02*
X195100881Y-159014992D01*
X195186595Y-158957849D01*
X195243738Y-158900707D01*
X195272310Y-158843564D01*
X195100881Y-159386421D02*
X195100881Y-159786421D01*
X195700881Y-159529278D01*
G04 #@! TO.C,L3*
X189163521Y-169036529D02*
X189448844Y-169021576D01*
X189417442Y-168422399D01*
X188989458Y-168444828D02*
X188618538Y-168464267D01*
X188830227Y-168682058D01*
X188744630Y-168686544D01*
X188689061Y-168718067D01*
X188662024Y-168748095D01*
X188636482Y-168806655D01*
X188643959Y-168949316D01*
X188675482Y-169004885D01*
X188705509Y-169031922D01*
X188764069Y-169057464D01*
X188935263Y-169048492D01*
X188990832Y-169016969D01*
X189017869Y-168986942D01*
G04 #@! TO.C,Q1*
X183584691Y-176978326D02*
X183679929Y-176930707D01*
X183775167Y-176835468D01*
X183918024Y-176692611D01*
X184013262Y-176644992D01*
X184108500Y-176644992D01*
X184060881Y-176883087D02*
X184156119Y-176835468D01*
X184251357Y-176740230D01*
X184298976Y-176549754D01*
X184298976Y-176216421D01*
X184251357Y-176025945D01*
X184156119Y-175930707D01*
X184060881Y-175883087D01*
X183870405Y-175883087D01*
X183775167Y-175930707D01*
X183679929Y-176025945D01*
X183632310Y-176216421D01*
X183632310Y-176549754D01*
X183679929Y-176740230D01*
X183775167Y-176835468D01*
X183870405Y-176883087D01*
X184060881Y-176883087D01*
X182679929Y-176883087D02*
X183251357Y-176883087D01*
X182965643Y-176883087D02*
X182965643Y-175883087D01*
X183060881Y-176025945D01*
X183156119Y-176121183D01*
X183251357Y-176168802D01*
G04 #@! TO.C,R15*
X179711833Y-176307849D02*
X179235643Y-175974516D01*
X179711833Y-175736421D02*
X178711833Y-175736421D01*
X178711833Y-176117373D01*
X178759453Y-176212611D01*
X178807072Y-176260230D01*
X178902310Y-176307849D01*
X179045167Y-176307849D01*
X179140405Y-176260230D01*
X179188024Y-176212611D01*
X179235643Y-176117373D01*
X179235643Y-175736421D01*
X179711833Y-177260230D02*
X179711833Y-176688802D01*
X179711833Y-176974516D02*
X178711833Y-176974516D01*
X178854691Y-176879278D01*
X178949929Y-176784040D01*
X178997548Y-176688802D01*
X178711833Y-178164992D02*
X178711833Y-177688802D01*
X179188024Y-177641183D01*
X179140405Y-177688802D01*
X179092786Y-177784040D01*
X179092786Y-178022135D01*
X179140405Y-178117373D01*
X179188024Y-178164992D01*
X179283262Y-178212611D01*
X179521357Y-178212611D01*
X179616595Y-178164992D01*
X179664214Y-178117373D01*
X179711833Y-178022135D01*
X179711833Y-177784040D01*
X179664214Y-177688802D01*
X179616595Y-177641183D01*
G04 #@! TO.C,JP2*
X187980024Y-167832707D02*
X187551453Y-167832707D01*
X187465738Y-167861278D01*
X187408595Y-167918421D01*
X187380024Y-168004135D01*
X187380024Y-168061278D01*
X187380024Y-167546992D02*
X187980024Y-167546992D01*
X187980024Y-167318421D01*
X187951453Y-167261278D01*
X187922881Y-167232707D01*
X187865738Y-167204135D01*
X187780024Y-167204135D01*
X187722881Y-167232707D01*
X187694310Y-167261278D01*
X187665738Y-167318421D01*
X187665738Y-167546992D01*
X187922881Y-166975564D02*
X187951453Y-166946992D01*
X187980024Y-166889849D01*
X187980024Y-166746992D01*
X187951453Y-166689849D01*
X187922881Y-166661278D01*
X187865738Y-166632707D01*
X187808595Y-166632707D01*
X187722881Y-166661278D01*
X187380024Y-167004135D01*
X187380024Y-166632707D01*
G04 #@! TO.C,JP3*
X195010881Y-162850707D02*
X195439453Y-162850707D01*
X195525167Y-162822135D01*
X195582310Y-162764992D01*
X195610881Y-162679278D01*
X195610881Y-162622135D01*
X195610881Y-163136421D02*
X195010881Y-163136421D01*
X195010881Y-163364992D01*
X195039453Y-163422135D01*
X195068024Y-163450707D01*
X195125167Y-163479278D01*
X195210881Y-163479278D01*
X195268024Y-163450707D01*
X195296595Y-163422135D01*
X195325167Y-163364992D01*
X195325167Y-163136421D01*
X195010881Y-163679278D02*
X195010881Y-164050707D01*
X195239453Y-163850707D01*
X195239453Y-163936421D01*
X195268024Y-163993564D01*
X195296595Y-164022135D01*
X195353738Y-164050707D01*
X195496595Y-164050707D01*
X195553738Y-164022135D01*
X195582310Y-163993564D01*
X195610881Y-163936421D01*
X195610881Y-163764992D01*
X195582310Y-163707849D01*
X195553738Y-163679278D01*
G04 #@! TO.C,JP5*
X191330881Y-163050707D02*
X191759453Y-163050707D01*
X191845167Y-163022135D01*
X191902310Y-162964992D01*
X191930881Y-162879278D01*
X191930881Y-162822135D01*
X191930881Y-163336421D02*
X191330881Y-163336421D01*
X191330881Y-163564992D01*
X191359453Y-163622135D01*
X191388024Y-163650707D01*
X191445167Y-163679278D01*
X191530881Y-163679278D01*
X191588024Y-163650707D01*
X191616595Y-163622135D01*
X191645167Y-163564992D01*
X191645167Y-163336421D01*
X191330881Y-164222135D02*
X191330881Y-163936421D01*
X191616595Y-163907849D01*
X191588024Y-163936421D01*
X191559453Y-163993564D01*
X191559453Y-164136421D01*
X191588024Y-164193564D01*
X191616595Y-164222135D01*
X191673738Y-164250707D01*
X191816595Y-164250707D01*
X191873738Y-164222135D01*
X191902310Y-164193564D01*
X191930881Y-164136421D01*
X191930881Y-163993564D01*
X191902310Y-163936421D01*
X191873738Y-163907849D01*
G04 #@! TO.C,R16*
X193510881Y-178122992D02*
X193225167Y-177922992D01*
X193510881Y-177780135D02*
X192910881Y-177780135D01*
X192910881Y-178008707D01*
X192939453Y-178065849D01*
X192968024Y-178094421D01*
X193025167Y-178122992D01*
X193110881Y-178122992D01*
X193168024Y-178094421D01*
X193196595Y-178065849D01*
X193225167Y-178008707D01*
X193225167Y-177780135D01*
X193510881Y-178694421D02*
X193510881Y-178351564D01*
X193510881Y-178522992D02*
X192910881Y-178522992D01*
X192996595Y-178465849D01*
X193053738Y-178408707D01*
X193082310Y-178351564D01*
X192910881Y-179208707D02*
X192910881Y-179094421D01*
X192939453Y-179037278D01*
X192968024Y-179008707D01*
X193053738Y-178951564D01*
X193168024Y-178922992D01*
X193396595Y-178922992D01*
X193453738Y-178951564D01*
X193482310Y-178980135D01*
X193510881Y-179037278D01*
X193510881Y-179151564D01*
X193482310Y-179208707D01*
X193453738Y-179237278D01*
X193396595Y-179265849D01*
X193253738Y-179265849D01*
X193196595Y-179237278D01*
X193168024Y-179208707D01*
X193139453Y-179151564D01*
X193139453Y-179037278D01*
X193168024Y-178980135D01*
X193196595Y-178951564D01*
X193253738Y-178922992D01*
G04 #@! TO.C,R17*
X192968024Y-171274421D02*
X193253738Y-171474421D01*
X192968024Y-171617278D02*
X193568024Y-171617278D01*
X193568024Y-171388707D01*
X193539453Y-171331564D01*
X193510881Y-171302992D01*
X193453738Y-171274421D01*
X193368024Y-171274421D01*
X193310881Y-171302992D01*
X193282310Y-171331564D01*
X193253738Y-171388707D01*
X193253738Y-171617278D01*
X192968024Y-170702992D02*
X192968024Y-171045849D01*
X192968024Y-170874421D02*
X193568024Y-170874421D01*
X193482310Y-170931564D01*
X193425167Y-170988707D01*
X193396595Y-171045849D01*
X193568024Y-170502992D02*
X193568024Y-170102992D01*
X192968024Y-170360135D01*
G04 #@! TO.C,U10*
X194264881Y-165815849D02*
X194750595Y-165815849D01*
X194807738Y-165844421D01*
X194836310Y-165872992D01*
X194864881Y-165930135D01*
X194864881Y-166044421D01*
X194836310Y-166101564D01*
X194807738Y-166130135D01*
X194750595Y-166158707D01*
X194264881Y-166158707D01*
X194864881Y-166758707D02*
X194864881Y-166415849D01*
X194864881Y-166587278D02*
X194264881Y-166587278D01*
X194350595Y-166530135D01*
X194407738Y-166472992D01*
X194436310Y-166415849D01*
X194264881Y-167130135D02*
X194264881Y-167187278D01*
X194293453Y-167244421D01*
X194322024Y-167272992D01*
X194379167Y-167301564D01*
X194493453Y-167330135D01*
X194636310Y-167330135D01*
X194750595Y-167301564D01*
X194807738Y-167272992D01*
X194836310Y-167244421D01*
X194864881Y-167187278D01*
X194864881Y-167130135D01*
X194836310Y-167072992D01*
X194807738Y-167044421D01*
X194750595Y-167015849D01*
X194636310Y-166987278D01*
X194493453Y-166987278D01*
X194379167Y-167015849D01*
X194322024Y-167044421D01*
X194293453Y-167072992D01*
X194264881Y-167130135D01*
G04 #@! TD*
M02*
