<?xml version="1.0" standalone="no"?>
 <!DOCTYPE svg PUBLIC "-//W3C//DTD SVG 1.1//EN" 
 "http://www.w3.org/Graphics/SVG/1.1/DTD/svg11.dtd"> 
<svg xmlns="http://www.w3.org/2000/svg" version="1.1" 
    width="29.9999cm" height="35.0012cm" viewBox="0 0 118110 137800 ">
<title>SVG Picture created as Insole_flex_32s-Edge.Cuts.svg date 2019/05/01 23:42:13 </title>
  <desc>Picture generated by PCBNEW </desc>
<g style="fill:#000000; fill-opacity:1;stroke:#000000; stroke-opacity:1;
stroke-linecap:round; stroke-linejoin:round; "
 transform="translate(0 0) scale(1 1)">
</g>
<g style="fill:#000000; fill-opacity:0.0; 
stroke:#000000; stroke-width:-0.000393701; stroke-opacity:1; 
stroke-linecap:round; stroke-linejoin:round;">
</g>
<g style="fill:#000000; fill-opacity:0.0; 
stroke:#000000; stroke-width:78.7402; stroke-opacity:1; 
stroke-linecap:round; stroke-linejoin:round;">
<path d="M18267 61968
L18110 61811
" />
<path d="M28208 88897
L28858 89586
" />
<path d="M17677 88582
L17952 88897
" />
<path d="M26732 67401
L29566 61771
" />
<path d="M30551 61771
L31062 61338
" />
<path d="M19448 67401
L18267 61968
" />
<path d="M17795 61811
L18110 61811
" />
<path d="M17677 62007
L17795 61811
" />
<path d="M19448 79370
L19448 67401
" />
<path d="M26732 79370
L26732 67401
" />
<path d="M26732 79370
L19448 79370
" />
<path d="M38822 38239
L39052 37183
" />
<path d="M39249 36121
L39413 35057
" />
<path d="M39413 35057
L39544 33989
" />
<path d="M39736 29705
L39701 28635
" />
<path d="M39737 30776
L39736 29705
" />
<path d="M36736 44443
L37168 43429
" />
<path d="M38261 40336
L38558 39291
" />
<path d="M37930 41375
L38261 40336
" />
<path d="M39706 31848
L39737 30776
" />
<path d="M39641 32919
L39706 31848
" />
<path d="M39544 33989
L39641 32919
" />
<path d="M39052 37183
L39249 36121
" />
<path d="M38558 39291
L38822 38239
" />
<path d="M37566 42406
L37930 41375
" />
<path d="M37168 43429
L37566 42406
" />
<path d="M9863 108723
L10130 109227
" />
<path d="M8133 64915
L8223 66756
" />
<path d="M11440 111074
L11823 111490
" />
<path d="M8800 87013
L8815 88856
" />
<path d="M8929 105990
L9059 106562
" />
<path d="M8519 74119
L8577 75961
" />
<path d="M8577 75961
L8630 77802
" />
<path d="M8383 70437
L8454 72278
" />
<path d="M8778 85171
L8800 87013
" />
<path d="M8779 99912
L8752 101755
" />
<path d="M8722 104209
L8760 104813
" />
<path d="M8828 92541
L8825 94384
" />
<path d="M10130 109227
L10423 109715
" />
<path d="M8716 81486
L8750 83328
" />
<path d="M8760 104813
L8829 105406
" />
<path d="M8752 101755
L8718 103597
" />
<path d="M8750 83328
L8778 85171
" />
<path d="M9406 107669
L9621 108203
" />
<path d="M8816 96226
L8801 98069
" />
<path d="M8829 105406
L8929 105990
" />
<path d="M8825 90698
L8828 92541
" />
<path d="M8454 72278
L8519 74119
" />
<path d="M9218 107122
L9406 107669
" />
<path d="M13551 112941
L14027 113248
" />
<path d="M8815 88856
L8825 90698
" />
<path d="M11079 110639
L11440 111074
" />
<path d="M16084 114222
L16632 114399
" />
<path d="M15549 114018
L16084 114222
" />
<path d="M9621 108203
L9863 108723
" />
<path d="M8676 79644
L8716 81486
" />
<path d="M8630 77802
L8676 79644
" />
<path d="M15027 113787
L15549 114018
" />
<path d="M14520 113530
L15027 113787
" />
<path d="M8306 68596
L8383 70437
" />
<path d="M8223 66756
L8306 68596
" />
<path d="M14027 113248
L14520 113530
" />
<path d="M8718 103597
L8722 104209
" />
<path d="M13091 112612
L13551 112941
" />
<path d="M12650 112259
L13091 112612
" />
<path d="M12227 111885
L12650 112259
" />
<path d="M11823 111490
L12227 111885
" />
<path d="M10739 110186
L11079 110639
" />
<path d="M9059 106562
L9218 107122
" />
<path d="M8801 98069
L8779 99912
" />
<path d="M8825 94384
L8816 96226
" />
<path d="M10423 109715
L10739 110186
" />
<path d="M6606 37974
L6567 39090
" />
<path d="M16336 10383
L15899 10960
" />
<path d="M8044 28087
L7788 29167
" />
<path d="M8950 24884
L8625 25945
" />
<path d="M7714 57557
L7828 59396
" />
<path d="M7556 30252
L7349 31343
" />
<path d="M7788 29167
L7556 30252
" />
<path d="M8322 27013
L8044 28087
" />
<path d="M12383 16687
L11874 17680
" />
<path d="M14042 13772
L13467 14733
" />
<path d="M17291 9345
L16801 9845
" />
<path d="M15899 10960
L15258 11885
" />
<path d="M8038 63075
L8133 64915
" />
<path d="M7349 31343
L7164 32439
" />
<path d="M10925 19695
L10484 20716
" />
<path d="M15258 11885
L14639 12823
" />
<path d="M6901 46530
L7052 48367
" />
<path d="M7936 61235
L8038 63075
" />
<path d="M6669 36861
L6606 37974
" />
<path d="M7828 59396
L7936 61235
" />
<path d="M9299 23831
L8950 24884
" />
<path d="M6553 40209
L6563 41328
" />
<path d="M10066 21746
L9671 22785
" />
<path d="M7594 55718
L7714 57557
" />
<path d="M7468 53880
L7594 55718
" />
<path d="M7197 50204
L7335 52042
" />
<path d="M7335 52042
L7468 53880
" />
<path d="M7052 48367
L7197 50204
" />
<path d="M6563 41328
L6599 42450
" />
<path d="M11388 18683
L10925 19695
" />
<path d="M14639 12823
L14042 13772
" />
<path d="M16801 9845
L16336 10383
" />
<path d="M6744 44694
L6901 46530
" />
<path d="M6659 43571
L6744 44694
" />
<path d="M7164 32439
L7004 33538
" />
<path d="M13467 14733
L12913 15705
" />
<path d="M6756 35750
L6669 36861
" />
<path d="M6868 34642
L6756 35750
" />
<path d="M12913 15705
L12383 16687
" />
<path d="M6567 39090
L6553 40209
" />
<path d="M6599 42450
L6659 43571
" />
<path d="M9671 22785
L9299 23831
" />
<path d="M10484 20716
L10066 21746
" />
<path d="M11874 17680
L11388 18683
" />
<path d="M7004 33538
L6868 34642
" />
<path d="M8625 25945
L8322 27013
" />
<path d="M36289 15165
L35801 14191
" />
<path d="M32329 9191
L31812 8746
" />
<path d="M33732 10752
L33290 10194
" />
<path d="M38250 20201
L37922 19175
" />
<path d="M32822 9674
L32329 9191
" />
<path d="M39038 23325
L38808 22277
" />
<path d="M35801 14191
L35280 13229
" />
<path d="M38808 22277
L38545 21235
" />
<path d="M37170 17149
L36746 16152
" />
<path d="M34144 11347
L33732 10752
" />
<path d="M38545 21235
L38250 20201
" />
<path d="M37562 18157
L37170 17149
" />
<path d="M36746 16152
L36289 15165
" />
<path d="M39402 25437
L39236 24379
" />
<path d="M39534 26500
L39402 25437
" />
<path d="M31812 8746
L31274 8337
" />
<path d="M33290 10194
L32822 9674
" />
<path d="M39701 28635
L39634 27566
" />
<path d="M39236 24379
L39038 23325
" />
<path d="M39634 27566
L39534 26500
" />
<path d="M34728 12281
L34144 11347
" />
<path d="M37922 19175
L37562 18157
" />
<path d="M35280 13229
L34728 12281
" />
<path d="M29345 94361
L29136 92543
" />
<path d="M30538 101603
L30538 101603
" />
<path d="M30538 101603
L30538 101603
" />
<path d="M30538 101603
L30538 101603
" />
<path d="M30538 101603
L30538 101603
" />
<path d="M30538 101603
L30538 101603
" />
<path d="M30538 101603
L30538 101603
" />
<path d="M30538 101603
L30538 101603
" />
<path d="M30538 101603
L30538 101603
" />
<path d="M29870 97989
L29590 96176
" />
<path d="M30538 101603
L30538 101603
" />
<path d="M30538 101603
L30538 101603
" />
<path d="M30538 101603
L30538 101603
" />
<path d="M30538 101603
L30538 101603
" />
<path d="M29590 96176
L29345 94361
" />
<path d="M28208 88897
L17952 88897
" />
<path d="M28962 90723
L28858 89586
" />
<path d="M30538 101603
L30538 101603
" />
<path d="M30538 101603
L30538 101603
" />
<path d="M30538 101603
L30538 101603
" />
<path d="M30538 101603
L30538 101603
" />
<path d="M30538 101603
L30538 101603
" />
<path d="M30538 101603
L30538 101603
" />
<path d="M30186 99798
L29870 97989
" />
<path d="M30538 101603
L30186 99798
" />
<path d="M30538 101603
L30538 101603
" />
<path d="M30538 101603
L30538 101603
" />
<path d="M30538 101603
L30538 101603
" />
<path d="M30538 101603
L30538 101603
" />
<path d="M30538 101603
L30538 101603
" />
<path d="M17677 88582
L17677 62007
" />
<path d="M30538 101603
L30538 101603
" />
<path d="M30538 101603
L30538 101603
" />
<path d="M29136 92543
L28962 90723
" />
<path d="M29745 108449
L29971 107928
" />
<path d="M28915 109928
L29216 109450
" />
<path d="M28242 110834
L28590 110389
" />
<path d="M27871 111261
L28242 110834
" />
<path d="M26633 112423
L27066 112056
" />
<path d="M21946 114619
L22528 114485
" />
<path d="M20132 114835
L20743 114795
" />
<path d="M25220 113387
L25709 113089
" />
<path d="M19528 114840
L20132 114835
" />
<path d="M18341 114756
L18930 114814
" />
<path d="M23097 114321
L23651 114128
" />
<path d="M18930 114814
L19528 114840
" />
<path d="M17761 114666
L18341 114756
" />
<path d="M30538 101603
L30538 101603
" />
<path d="M30538 101603
L30538 101603
" />
<path d="M30741 104580
L30765 103994
" />
<path d="M30538 101603
L30538 101603
" />
<path d="M30600 105733
L30685 105160
" />
<path d="M30538 101603
L30538 101603
" />
<path d="M30538 101603
L30538 101603
" />
<path d="M26181 112768
L26633 112423
" />
<path d="M22528 114485
L23097 114321
" />
<path d="M30538 101603
L30538 101603
" />
<path d="M25709 113089
L26181 112768
" />
<path d="M30170 107395
L30341 106851
" />
<path d="M28590 110389
L28915 109928
" />
<path d="M27066 112056
L27479 111669
" />
<path d="M21350 114723
L21946 114619
" />
<path d="M16632 114399
L17191 114547
" />
<path d="M17191 114547
L17761 114666
" />
<path d="M30538 101603
L30538 101603
" />
<path d="M29216 109450
L29493 108956
" />
<path d="M20743 114795
L21350 114723
" />
<path d="M30645 102206
L30538 101603
" />
<path d="M29493 108956
L29745 108449
" />
<path d="M30718 102806
L30645 102206
" />
<path d="M30758 103402
L30718 102806
" />
<path d="M30685 105160
L30741 104580
" />
<path d="M30485 106297
L30600 105733
" />
<path d="M29971 107928
L30170 107395
" />
<path d="M30765 103994
L30758 103402
" />
<path d="M30341 106851
L30485 106297
" />
<path d="M27479 111669
L27871 111261
" />
<path d="M24190 113908
L24713 113660
" />
<path d="M24713 113660
L25220 113387
" />
<path d="M23651 114128
L24190 113908
" />
<path d="M29549 7337
L28944 7078
" />
<path d="M24474 6322
L23824 6365
" />
<path d="M28944 7078
L28326 6857
" />
<path d="M25124 6317
L24474 6322
" />
<path d="M25774 6350
L25124 6317
" />
<path d="M30716 7966
L30140 7633
" />
<path d="M26421 6420
L25774 6350
" />
<path d="M17804 8883
L17291 9345
" />
<path d="M30140 7633
L29549 7337
" />
<path d="M18339 8460
L17804 8883
" />
<path d="M18894 8075
L18339 8460
" />
<path d="M19467 7728
L18894 8075
" />
<path d="M22537 6565
L21902 6721
" />
<path d="M23178 6446
L22537 6565
" />
<path d="M27063 6528
L26421 6420
" />
<path d="M20057 7419
L19467 7728
" />
<path d="M20660 7148
L20057 7419
" />
<path d="M31274 8337
L30716 7966
" />
<path d="M21276 6916
L20660 7148
" />
<path d="M27699 6674
L27063 6528
" />
<path d="M21902 6721
L21276 6916
" />
<path d="M28326 6857
L27699 6674
" />
<path d="M23824 6365
L23178 6446
" />
<path d="M31393 60003
L31849 58238
" />
<path d="M32340 56481
L32865 54732
" />
<path d="M36006 46130
L36736 44443
" />
<path d="M31062 61338
L31393 60003
" />
<path d="M32865 54732
L33425 52992
" />
<path d="M34019 51261
L34647 49540
" />
<path d="M29566 61771
L30551 61771
" />
<path d="M31849 58238
L32340 56481
" />
<path d="M34647 49540
L35309 47830
" />
<path d="M35309 47830
L36006 46130
" />
<path d="M33425 52992
L34019 51261
" />
</g> 
</svg>
