<?xml version="1.0" standalone="no"?>
 <!DOCTYPE svg PUBLIC "-//W3C//DTD SVG 1.1//EN" 
 "http://www.w3.org/Graphics/SVG/1.1/DTD/svg11.dtd"> 
<svg xmlns="http://www.w3.org/2000/svg" version="1.1" 
    width="29.9999cm" height="35.0012cm" viewBox="0 0 118110 137800 ">
<title>SVG Picture created as Insole_flex_32s-Dwgs.User.svg date 2019/05/01 23:42:13 </title>
  <desc>Picture generated by PCBNEW </desc>
<g style="fill:#000000; fill-opacity:1;stroke:#000000; stroke-opacity:1;
stroke-linecap:round; stroke-linejoin:round; "
 transform="translate(0 0) scale(1 1)">
</g>
<g style="fill:#000000; fill-opacity:0.0; 
stroke:#000000; stroke-width:-0.000393701; stroke-opacity:1; 
stroke-linecap:round; stroke-linejoin:round;">
</g>
<g style="fill:#000000; fill-opacity:0.0; 
stroke:#000000; stroke-width:236.22; stroke-opacity:1; 
stroke-linecap:round; stroke-linejoin:round;">
<path d="M20511 76496
L20511 62716
" />
<path d="M28031 76496
L20511 76496
" />
<path d="M28031 62716
L28031 76496
" />
<path d="M20511 62716
L28031 62716
" />
</g>
<g style="fill:#000000; fill-opacity:0.0; 
stroke:#000000; stroke-width:78.7402; stroke-opacity:1; 
stroke-linecap:round; stroke-linejoin:round;">
<path d="M25144 85136
L25145 85132
" />
<path d="M21524 86587
L21527 86585
" />
<path d="M21501 86615
L21503 86612
" />
<path d="M25166 85110
L25169 85108
" />
<path d="M21537 86583
L21537 86583
" />
<path d="M25162 85111
L25166 85110
" />
<path d="M25160 85114
L25162 85111
" />
<path d="M25157 85115
L25160 85114
" />
<path d="M18086 77332
L18089 77331
" />
<path d="M21501 88355
L21501 86619
" />
<path d="M18092 77331
L18092 77331
" />
<path d="M21509 86600
L21510 86597
" />
<path d="M25155 85118
L25157 85115
" />
<path d="M18135 77410
L18135 88355
" />
<path d="M25147 85129
L25148 85126
" />
<path d="M25143 85143
L25143 85143
" />
<path d="M21537 86583
L25143 86583
" />
<path d="M21527 86585
L21531 86584
" />
<path d="M21534 86583
L21537 86583
" />
<path d="M21501 86619
L21501 86615
" />
<path d="M18089 77331
L18092 77331
" />
<path d="M21531 86584
L21534 86583
" />
<path d="M21501 86619
L21501 86619
" />
<path d="M25148 85126
L25150 85123
" />
<path d="M21518 86590
L21521 86588
" />
<path d="M25145 85132
L25147 85129
" />
<path d="M21506 86602
L21509 86600
" />
<path d="M21505 86606
L21506 86602
" />
<path d="M18079 77335
L18082 77333
" />
<path d="M25143 85143
L25143 85139
" />
<path d="M25143 85139
L25144 85136
" />
<path d="M21503 86609
L21505 86606
" />
<path d="M25152 85120
L25155 85118
" />
<path d="M25150 85123
L25152 85120
" />
<path d="M18082 77333
L18086 77332
" />
<path d="M21515 86592
L21518 86590
" />
<path d="M25143 86583
L25143 85143
" />
<path d="M18135 88355
L21501 88355
" />
<path d="M21503 86612
L21503 86609
" />
<path d="M21513 86594
L21515 86592
" />
<path d="M18092 77331
L28040 77331
" />
<path d="M28040 77331
L28040 77331
" />
<path d="M21521 86588
L21524 86587
" />
<path d="M18076 77336
L18079 77335
" />
<path d="M21510 86597
L21513 86594
" />
<path d="M25169 85108
L25172 85108
" />
<path d="M28065 77342
L28068 77345
" />
<path d="M28053 77335
L28057 77336
" />
<path d="M28074 77357
L28075 77360
" />
<path d="M28068 77345
L28069 77348
" />
<path d="M28057 77336
L28060 77338
" />
<path d="M28075 77360
L28076 77364
" />
<path d="M28047 77332
L28051 77333
" />
<path d="M28073 77354
L28074 77357
" />
<path d="M28072 77350
L28073 77354
" />
<path d="M28062 77340
L28065 77342
" />
<path d="M28051 77333
L28053 77335
" />
<path d="M28040 77331
L28044 77331
" />
<path d="M28069 77348
L28072 77350
" />
<path d="M28044 77331
L28047 77332
" />
<path d="M28060 77338
L28062 77340
" />
<path d="M27998 77410
L18135 77410
" />
<path d="M25175 85107
L25179 85107
" />
<path d="M25179 85107
L25179 85107
" />
<path d="M25179 85107
L27998 85107
" />
<path d="M25172 85108
L25175 85107
" />
<path d="M27998 85107
L27998 77410
" />
<path d="M28073 85163
L28072 85166
" />
<path d="M28074 85160
L28073 85163
" />
<path d="M28076 85150
L28076 85153
" />
<path d="M28076 77364
L28076 77367
" />
<path d="M28069 85169
L28068 85172
" />
<path d="M25222 85185
L25222 86626
" />
<path d="M28040 85185
L25222 85185
" />
<path d="M28040 85185
L28040 85185
" />
<path d="M28075 85156
L28074 85160
" />
<path d="M28057 85181
L28053 85182
" />
<path d="M28044 85185
L28040 85185
" />
<path d="M28047 85184
L28044 85185
" />
<path d="M28065 85174
L28062 85177
" />
<path d="M28053 85182
L28051 85184
" />
<path d="M28076 77367
L28076 85149
" />
<path d="M28076 77367
L28076 77367
" />
<path d="M28062 85177
L28060 85178
" />
<path d="M28060 85178
L28057 85181
" />
<path d="M28076 85149
L28076 85150
" />
<path d="M28076 85153
L28075 85156
" />
<path d="M28051 85184
L28047 85184
" />
<path d="M28068 85172
L28065 85174
" />
<path d="M28072 85166
L28069 85169
" />
<path d="M25186 86662
L25186 86662
" />
<path d="M25213 86648
L25211 86650
" />
<path d="M25205 86655
L25203 86657
" />
<path d="M25218 86639
L25217 86642
" />
<path d="M21580 88401
L21579 88404
" />
<path d="M25211 86650
L25208 86653
" />
<path d="M21580 88397
L21580 88398
" />
<path d="M25190 86662
L25186 86662
" />
<path d="M25215 86645
L25213 86648
" />
<path d="M25193 86661
L25190 86662
" />
<path d="M25208 86653
L25205 86655
" />
<path d="M25221 86633
L25220 86636
" />
<path d="M25196 86660
L25193 86661
" />
<path d="M25199 86658
L25196 86660
" />
<path d="M25203 86657
L25199 86658
" />
<path d="M25222 86626
L25222 86629
" />
<path d="M25222 86626
L25222 86626
" />
<path d="M21580 86662
L21580 88397
" />
<path d="M25186 86662
L21580 86662
" />
<path d="M25217 86642
L25215 86645
" />
<path d="M25220 86636
L25218 86639
" />
<path d="M25222 86629
L25221 86633
" />
<path d="M21580 88398
L21580 88401
" />
<path d="M21575 88414
L21573 88417
" />
<path d="M21573 88417
L21572 88420
" />
<path d="M18065 77345
L18068 77342
" />
<path d="M18064 77348
L18065 77345
" />
<path d="M18082 88432
L18079 88430
" />
<path d="M18058 77360
L18059 77357
" />
<path d="M21578 88408
L21577 88411
" />
<path d="M18068 88422
L18065 88420
" />
<path d="M21551 88432
L21548 88433
" />
<path d="M21544 88433
L21544 88433
" />
<path d="M21577 88411
L21575 88414
" />
<path d="M18061 77350
L18064 77348
" />
<path d="M21555 88432
L21551 88432
" />
<path d="M18089 88433
L18086 88432
" />
<path d="M18060 77354
L18061 77350
" />
<path d="M18057 88397
L18057 88397
" />
<path d="M18065 88420
L18064 88417
" />
<path d="M21572 88420
L21569 88422
" />
<path d="M18059 77357
L18060 77354
" />
<path d="M18073 88426
L18070 88425
" />
<path d="M21548 88433
L21544 88433
" />
<path d="M21566 88425
L21564 88426
" />
<path d="M21569 88422
L21566 88425
" />
<path d="M18057 88401
L18057 88397
" />
<path d="M18058 88404
L18057 88401
" />
<path d="M18059 88408
L18058 88404
" />
<path d="M18061 88414
L18060 88411
" />
<path d="M18076 88429
L18073 88426
" />
<path d="M21561 88429
L21557 88430
" />
<path d="M21579 88404
L21578 88408
" />
<path d="M21557 88430
L21555 88432
" />
<path d="M18064 88417
L18061 88414
" />
<path d="M18057 77364
L18058 77360
" />
<path d="M18079 88430
L18076 88429
" />
<path d="M18057 77367
L18057 77364
" />
<path d="M21564 88426
L21561 88429
" />
<path d="M18057 88397
L18057 77367
" />
<path d="M18086 88432
L18082 88432
" />
<path d="M18092 88433
L18089 88433
" />
<path d="M18092 88433
L18092 88433
" />
<path d="M21544 88433
L18092 88433
" />
<path d="M18073 77338
L18076 77336
" />
<path d="M18070 77340
L18073 77338
" />
<path d="M18068 77342
L18070 77340
" />
<path d="M18060 88411
L18059 88408
" />
<path d="M18070 88425
L18068 88422
" />
<path d="M8130 24835
L7492 26996
" />
<path d="M7661 74335
L7772 78013
" />
<path d="M7366 66982
L7526 70658
" />
<path d="M6972 59633
L7181 63307
" />
<path d="M6197 48620
L6480 52289
" />
<path d="M5741 42673
L5889 44952
" />
<path d="M5695 40397
L5741 42673
" />
<path d="M6503 31394
L6153 33623
" />
<path d="M7492 26996
L6949 29184
" />
<path d="M7526 70658
L7661 74335
" />
<path d="M7957 89051
L7970 92731
" />
<path d="M6738 55961
L6972 59633
" />
<path d="M7920 85371
L7957 89051
" />
<path d="M5902 35869
L5748 38128
" />
<path d="M7859 81692
L7920 85371
" />
<path d="M7772 78013
L7859 81692
" />
<path d="M5889 44952
L6197 48620
" />
<path d="M5748 38128
L5695 40397
" />
<path d="M7181 63307
L7366 66982
" />
<path d="M6480 52289
L6738 55961
" />
<path d="M6153 33623
L5902 35869
" />
<path d="M6949 29184
L6503 31394
" />
<path d="M8862 22702
L8130 24835
" />
<path d="M38944 40753
L39518 38609
" />
<path d="M36928 15013
L35896 13033
" />
<path d="M37829 17042
L36928 15013
" />
<path d="M39739 23357
L39235 21221
" />
<path d="M38598 19113
L37829 17042
" />
<path d="M39235 21221
L38598 19113
" />
<path d="M40111 25517
L39739 23357
" />
<path d="M40256 34262
L40422 32073
" />
<path d="M37385 44952
L38234 42869
" />
<path d="M40422 32073
L40453 29882
" />
<path d="M38234 42869
L38944 40753
" />
<path d="M40453 29882
L40349 27694
" />
<path d="M40349 27694
L40111 25517
" />
<path d="M39955 36443
L40256 34262
" />
<path d="M39518 38609
L39955 36443
" />
<path d="M17227 8469
L16152 9500
" />
<path d="M20947 6361
L19641 6900
" />
<path d="M23678 5771
L22298 5985
" />
<path d="M11615 16511
L10605 18537
" />
<path d="M31659 7884
L30445 7129
" />
<path d="M30445 7129
L29163 6535
" />
<path d="M15187 10694
L13907 12586
" />
<path d="M19641 6900
L18396 7603
" />
<path d="M16152 9500
L15187 10694
" />
<path d="M18396 7603
L17227 8469
" />
<path d="M22298 5985
L20947 6361
" />
<path d="M27829 6102
L26459 5830
" />
<path d="M32789 8799
L31659 7884
" />
<path d="M34734 11108
L33820 9874
" />
<path d="M13907 12586
L12716 14526
" />
<path d="M12716 14526
L11615 16511
" />
<path d="M25070 5719
L23678 5771
" />
<path d="M26459 5830
L25070 5719
" />
<path d="M29163 6535
L27829 6102
" />
<path d="M35896 13033
L34734 11108
" />
<path d="M33820 9874
L32789 8799
" />
<path d="M9687 20602
L8862 22702
" />
<path d="M10605 18537
L9687 20602
" />
<path d="M19442 115817
L20744 115769
" />
<path d="M7921 100091
L7860 103771
" />
<path d="M18171 115726
L19442 115817
" />
<path d="M15753 115155
L16939 115503
" />
<path d="M14620 114688
L15753 115155
" />
<path d="M16939 115503
L18171 115726
" />
<path d="M13549 114111
L14620 114688
" />
<path d="M11620 112651
L12546 113429
" />
<path d="M10777 111782
L11620 112651
" />
<path d="M12546 113429
L13549 114111
" />
<path d="M10026 110830
L10777 111782
" />
<path d="M9374 109803
L10026 110830
" />
<path d="M8828 108706
L9374 109803
" />
<path d="M24438 114818
L25541 114260
" />
<path d="M22033 115581
L23266 115261
" />
<path d="M20744 115769
L22033 115581
" />
<path d="M8396 107548
L8828 108706
" />
<path d="M7860 103771
L7905 105073
" />
<path d="M7905 105073
L8086 106334
" />
<path d="M7970 92731
L7958 96411
" />
<path d="M7958 96411
L7921 100091
" />
<path d="M8086 106334
L8396 107548
" />
<path d="M23266 115261
L24438 114818
" />
<path d="M31668 62141
L32539 58632
" />
<path d="M29880 72813
L30338 69235
" />
<path d="M30338 69235
L30934 65676
" />
<path d="M29561 76406
L29880 72813
" />
<path d="M31397 105446
L31482 104196
" />
<path d="M28382 111982
L29152 111048
" />
<path d="M29676 90846
L29437 87233
" />
<path d="M34690 51713
L35970 48311
" />
<path d="M35970 48311
L37385 44952
" />
<path d="M29437 87233
L29339 83620
" />
<path d="M31431 102923
L31239 101635
" />
<path d="M31482 104196
L31431 102923
" />
<path d="M29823 110041
L30389 108969
" />
<path d="M29152 111048
L29823 110041
" />
<path d="M25541 114260
L26570 113596
" />
<path d="M33546 55155
L34690 51713
" />
<path d="M32539 58632
L33546 55155
" />
<path d="M30934 65676
L31668 62141
" />
<path d="M30056 94453
L29676 90846
" />
<path d="M31182 106663
L31397 105446
" />
<path d="M29380 80009
L29561 76406
" />
<path d="M30577 98050
L30056 94453
" />
<path d="M26570 113596
L27519 112834
" />
<path d="M31239 101635
L30577 98050
" />
<path d="M30844 107841
L31182 106663
" />
<path d="M30389 108969
L30844 107841
" />
<path d="M29339 83620
L29380 80009
" />
<path d="M27519 112834
L28382 111982
" />
</g> 
</svg>
