M48
;DRILL file {KiCad (5.0.0)} date 01/29/20 13:44:42
;FORMAT={-:-/ absolute / metric / decimal}
FMAT,2
METRIC,TZ
T1C0.370
T2C0.400
T3C0.500
%
G90
G05
M71
T1
X168.649Y-104.711
X172.649Y-111.711
X175.649Y-105.311
X177.349Y-80.411
X178.249Y-85.911
X178.849Y-58.311
X179.049Y-62.711
X180.795Y-132.129
X181.849Y-40.711
X182.359Y-73.791
X183.249Y-37.511
X185.329Y-172.861
X185.359Y-172.041
X185.509Y-50.821
X185.629Y-235.281
X185.709Y-146.061
X185.809Y-167.561
X185.849Y-240.511
X185.899Y-163.263
X186.939Y-167.631
X187.039Y-161.481
X187.059Y-177.201
X187.169Y-182.501
X187.444Y-147.292
X187.653Y-129.589
X187.895Y-146.756
X188.092Y-149.025
X188.149Y-66.911
X188.424Y-149.661
X188.649Y-146.586
X188.669Y-137.717
X188.825Y-175.877
X189.249Y-174.421
X189.259Y-195.231
X189.449Y-90.011
X189.619Y-259.031
X190.154Y-191.361
X190.447Y-34.085
X190.549Y-42.411
X190.619Y-159.881
X190.899Y-266.141
X191.049Y-166.411
X191.169Y-150.611
X191.209Y-126.795
X191.277Y-164.989
X191.499Y-191.811
X191.689Y-161.086
X191.839Y-132.101
X191.869Y-151.101
X192.249Y-151.711
X192.399Y-180.291
X192.489Y-160.051
X192.869Y-190.791
X193.359Y-184.871
X193.449Y-158.211
X193.456Y-167.808
X193.812Y-148.908
X193.939Y-165.061
X194.549Y-152.241
X194.549Y-158.411
X194.849Y-175.011
X195.06Y-156.978
X195.108Y-156.129
X195.149Y-169.441
X195.249Y-158.611
X195.349Y-209.961
X195.959Y-146.497
X196.049Y-208.761
X196.249Y-162.711
X196.249Y-195.011
X196.549Y-159.011
X196.649Y-177.911
X196.949Y-197.111
X196.959Y-150.161
X196.974Y-153.251
X197.149Y-158.311
X197.549Y-105.001
X197.889Y-146.831
X198.074Y-159.886
X198.179Y-166.891
X198.249Y-141.511
X198.319Y-219.661
X198.499Y-197.311
X198.549Y-173.011
X198.699Y-162.401
X198.73Y-158.417
X198.769Y-179.791
X199.349Y-173.611
X199.479Y-163.241
X199.779Y-151.261
X199.849Y-172.811
X199.999Y-254.791
X200.249Y-168.111
X200.524Y-147.386
X200.549Y-173.111
X200.559Y-146.602
X200.759Y-159.071
X200.799Y-154.511
X200.807Y-150.519
X200.979Y-187.551
X201.099Y-151.881
X201.419Y-150.181
X201.499Y-146.611
X201.574Y-165.186
X201.649Y-184.061
X201.769Y-159.621
X201.909Y-153.931
X202.124Y-168.386
X202.419Y-234.671
X202.899Y-189.111
X203.089Y-161.791
X203.099Y-190.061
X203.229Y-181.291
X203.699Y-151.671
X203.965Y-161.443
X204.179Y-219.251
X204.299Y-171.711
X204.579Y-156.781
X204.699Y-166.511
X204.749Y-170.661
X205.349Y-175.191
X205.479Y-186.231
X206.149Y-177.698
X206.349Y-37.011
X206.374Y-160.186
X206.459Y-132.901
X206.459Y-149.981
X206.919Y-57.141
X206.949Y-109.611
X207.424Y-162.586
X207.749Y-128.711
X208.649Y-196.011
X208.719Y-135.761
X209.089Y-177.941
X209.149Y-159.561
X209.749Y-171.686
X209.769Y-178.621
X209.799Y-173.661
X209.849Y-187.061
X209.949Y-181.361
X210.059Y-166.511
X210.339Y-84.841
X210.429Y-205.031
X210.469Y-178.031
X210.649Y-209.571
X210.799Y-207.241
X210.949Y-183.261
X211.049Y-205.841
X211.089Y-177.581
X211.269Y-266.241
X211.299Y-212.001
X211.369Y-168.171
X211.749Y-172.111
X211.899Y-161.341
X212.299Y-178.511
X212.349Y-40.711
X212.349Y-166.741
X212.699Y-168.811
X212.849Y-188.261
X212.949Y-185.661
X214.259Y-205.361
X214.269Y-209.801
X214.359Y-206.541
X214.389Y-212.361
X215.049Y-75.411
X215.149Y-106.511
X215.359Y-116.311
X216.249Y-28.711
X216.569Y-255.391
X217.949Y-97.611
X218.169Y-236.181
X218.189Y-232.071
X219.049Y-54.511
X220.169Y-157.771
X220.484Y-178.371
X220.649Y-51.011
X221.419Y-240.581
X222.169Y-200.141
X222.749Y-72.511
X222.817Y-181.211
X223.079Y-252.151
X223.289Y-191.641
X223.379Y-258.801
X223.899Y-139.031
X224.319Y-234.381
X224.429Y-168.981
X224.449Y-95.511
X224.769Y-116.061
X225.599Y-177.471
X226.049Y-74.611
X226.769Y-136.481
X227.159Y-158.661
X227.749Y-154.381
X229.349Y-55.011
X230.819Y-117.671
X231.349Y-96.311
X232.549Y-69.811
X232.699Y-264.791
X233.149Y-45.711
X233.329Y-142.721
X233.479Y-132.161
X236.599Y-197.991
X238.249Y-77.511
X238.479Y-240.551
X238.669Y-219.221
X240.079Y-115.941
X240.199Y-179.651
X240.549Y-89.011
X241.319Y-108.731
X244.879Y-168.641
X246.249Y-67.611
X248.629Y-132.871
X249.549Y-153.231
X254.159Y-90.131
X255.129Y-111.691
T2
X185.449Y-141.111
X185.899Y-166.338
X186.919Y-211.621
X188.399Y-186.231
X189.949Y-141.111
X191.699Y-195.961
X191.799Y-186.061
X192.228Y-206.638
X192.406Y-201.541
X192.899Y-196.961
X194.269Y-193.291
X194.449Y-211.411
X195.318Y-188.803
X195.749Y-206.111
X195.949Y-199.611
X196.372Y-187.481
X197.129Y-181.571
X197.849Y-205.461
X200.249Y-199.111
X200.549Y-207.811
X204.899Y-193.111
T3
X186.859Y-192.861
X186.929Y-191.863
T0
M30
