G04 #@! TF.GenerationSoftware,KiCad,Pcbnew,(5.0.0)*
G04 #@! TF.CreationDate,2020-01-29T13:44:41+01:00*
G04 #@! TF.ProjectId,Insole_PCB,496E736F6C655F5043422E6B69636164,rev?*
G04 #@! TF.SameCoordinates,Original*
G04 #@! TF.FileFunction,Legend,Top*
G04 #@! TF.FilePolarity,Positive*
%FSLAX46Y46*%
G04 Gerber Fmt 4.6, Leading zero omitted, Abs format (unit mm)*
G04 Created by KiCad (PCBNEW (5.0.0)) date 01/29/20 13:44:41*
%MOMM*%
%LPD*%
G01*
G04 APERTURE LIST*
%ADD10C,0.120000*%
%ADD11C,0.010000*%
%ADD12C,0.200000*%
%ADD13C,0.150000*%
G04 APERTURE END LIST*
D10*
G04 #@! TO.C,J2*
X187504977Y-193592519D02*
X186811670Y-193544038D01*
X187552760Y-192909188D02*
X187504977Y-193592519D01*
X186300442Y-192134944D02*
X186213929Y-192128895D01*
X187600543Y-192225856D02*
X187514030Y-192219807D01*
X186213929Y-192128895D02*
X186274966Y-191256026D01*
X187600543Y-192225856D02*
X187661580Y-191352988D01*
X186574741Y-191276989D02*
X186274966Y-191256026D01*
X187661580Y-191352988D02*
X187361805Y-191332026D01*
D11*
G04 #@! TO.C,J1*
X191037937Y-200592742D02*
X193186628Y-200667776D01*
X190747161Y-207486794D02*
X192945821Y-207563573D01*
X191420560Y-208260767D02*
X191746871Y-198916462D01*
D10*
X186213577Y-199773875D02*
X189441609Y-199886601D01*
X190328814Y-201128320D02*
X190291123Y-202207662D01*
X190144672Y-206114932D02*
X190106980Y-207194274D01*
X185927401Y-207968880D02*
X189155433Y-208081606D01*
X190291123Y-202207662D02*
X190720861Y-202222669D01*
D12*
G04 #@! TO.C,S0*
X191249453Y-119110707D02*
G75*
G03X191249453Y-119110707I-10500000J0D01*
G01*
G04 #@! TO.C,S1*
X183249453Y-95060707D02*
G75*
G03X183249453Y-95060707I-10500000J0D01*
G01*
G04 #@! TO.C,S2*
X183249453Y-71110707D02*
G75*
G03X183249453Y-71110707I-10500000J0D01*
G01*
G04 #@! TO.C,S3*
X185249453Y-49110707D02*
G75*
G03X185249453Y-49110707I-10500000J0D01*
G01*
G04 #@! TO.C,S4*
X192249453Y-28110707D02*
G75*
G03X192249453Y-28110707I-10500000J0D01*
G01*
G04 #@! TO.C,S5*
X208899453Y-49110707D02*
G75*
G03X208899453Y-49110707I-10500000J0D01*
G01*
G04 #@! TO.C,S6*
X207459453Y-72100707D02*
G75*
G03X207459453Y-72100707I-10500000J0D01*
G01*
G04 #@! TO.C,S7*
X209249453Y-95110707D02*
G75*
G03X209249453Y-95110707I-10500000J0D01*
G01*
G04 #@! TO.C,S8*
X214249453Y-27110707D02*
G75*
G03X214249453Y-27110707I-10500000J0D01*
G01*
G04 #@! TO.C,S9*
X233249453Y-41110707D02*
G75*
G03X233249453Y-41110707I-10500000J0D01*
G01*
G04 #@! TO.C,S10*
X227249453Y-64110707D02*
G75*
G03X227249453Y-64110707I-10500000J0D01*
G01*
G04 #@! TO.C,S11*
X248249453Y-61110707D02*
G75*
G03X248249453Y-61110707I-10500000J0D01*
G01*
G04 #@! TO.C,S12*
X235249453Y-84110707D02*
G75*
G03X235249453Y-84110707I-10500000J0D01*
G01*
G04 #@! TO.C,S13*
X258249453Y-81110707D02*
G75*
G03X258249453Y-81110707I-10500000J0D01*
G01*
G04 #@! TO.C,S14*
X213249453Y-119110707D02*
G75*
G03X213249453Y-119110707I-10500000J0D01*
G01*
G04 #@! TO.C,S15*
X236249453Y-105110707D02*
G75*
G03X236249453Y-105110707I-10500000J0D01*
G01*
G04 #@! TO.C,S16*
X260249453Y-102110707D02*
G75*
G03X260249453Y-102110707I-10500000J0D01*
G01*
G04 #@! TO.C,S17*
X259249453Y-123110707D02*
G75*
G03X259249453Y-123110707I-10500000J0D01*
G01*
G04 #@! TO.C,S18*
X235249453Y-127110707D02*
G75*
G03X235249453Y-127110707I-10500000J0D01*
G01*
G04 #@! TO.C,S19*
X230249453Y-148110707D02*
G75*
G03X230249453Y-148110707I-10500000J0D01*
G01*
G04 #@! TO.C,S20*
X254249453Y-145110707D02*
G75*
G03X254249453Y-145110707I-10500000J0D01*
G01*
G04 #@! TO.C,S21*
X245699453Y-165760707D02*
G75*
G03X245699453Y-165760707I-10500000J0D01*
G01*
G04 #@! TO.C,S22*
X242669453Y-186740707D02*
G75*
G03X242669453Y-186740707I-10500000J0D01*
G01*
G04 #@! TO.C,S23*
X241449453Y-207990707D02*
G75*
G03X241449453Y-207990707I-10500000J0D01*
G01*
G04 #@! TO.C,S24*
X204129453Y-228730707D02*
G75*
G03X204129453Y-228730707I-10500000J0D01*
G01*
G04 #@! TO.C,S25*
X200919453Y-249600707D02*
G75*
G03X200919453Y-249600707I-10500000J0D01*
G01*
G04 #@! TO.C,S26*
X211249453Y-268260707D02*
G75*
G03X211249453Y-268260707I-10500000J0D01*
G01*
G04 #@! TO.C,S27*
X233149453Y-268360707D02*
G75*
G03X233149453Y-268360707I-10500000J0D01*
G01*
G04 #@! TO.C,S28*
X244499453Y-250480707D02*
G75*
G03X244499453Y-250480707I-10500000J0D01*
G01*
G04 #@! TO.C,S29*
X222749453Y-245310707D02*
G75*
G03X222749453Y-245310707I-10500000J0D01*
G01*
G04 #@! TO.C,S30*
X243949453Y-229310707D02*
G75*
G03X243949453Y-229310707I-10500000J0D01*
G01*
G04 #@! TO.C,S31*
X224169453Y-221710707D02*
G75*
G03X224169453Y-221710707I-10500000J0D01*
G01*
G04 #@! TO.C,J2*
D13*
X186456311Y-193847369D02*
X186406485Y-194559915D01*
X186349017Y-194699102D01*
X186247367Y-194787465D01*
X186101536Y-194825003D01*
X186006530Y-194818359D01*
X186877195Y-193972271D02*
X186928020Y-193928090D01*
X187026348Y-193887230D01*
X187263863Y-193903839D01*
X187355547Y-193957985D01*
X187399729Y-194008810D01*
X187440588Y-194107138D01*
X187433945Y-194202144D01*
X187376476Y-194341331D01*
X186766579Y-194871507D01*
X187384119Y-194914690D01*
G04 #@! TO.C,J1*
X195905234Y-204548351D02*
X196619084Y-204573279D01*
X196760193Y-204625855D01*
X196852049Y-204724359D01*
X196894653Y-204868791D01*
X196891330Y-204963971D01*
X196939524Y-203583860D02*
X196919582Y-204154940D01*
X196929553Y-203869400D02*
X195930162Y-203834501D01*
X196069608Y-203934666D01*
X196161465Y-204033170D01*
X196205731Y-204130012D01*
G04 #@! TO.C,S0*
X179987548Y-129715468D02*
X180130405Y-129763087D01*
X180368500Y-129763087D01*
X180463738Y-129715468D01*
X180511357Y-129667849D01*
X180558976Y-129572611D01*
X180558976Y-129477373D01*
X180511357Y-129382135D01*
X180463738Y-129334516D01*
X180368500Y-129286897D01*
X180178024Y-129239278D01*
X180082786Y-129191659D01*
X180035167Y-129144040D01*
X179987548Y-129048802D01*
X179987548Y-128953564D01*
X180035167Y-128858326D01*
X180082786Y-128810707D01*
X180178024Y-128763087D01*
X180416119Y-128763087D01*
X180558976Y-128810707D01*
X181178024Y-128763087D02*
X181273262Y-128763087D01*
X181368500Y-128810707D01*
X181416119Y-128858326D01*
X181463738Y-128953564D01*
X181511357Y-129144040D01*
X181511357Y-129382135D01*
X181463738Y-129572611D01*
X181416119Y-129667849D01*
X181368500Y-129715468D01*
X181273262Y-129763087D01*
X181178024Y-129763087D01*
X181082786Y-129715468D01*
X181035167Y-129667849D01*
X180987548Y-129572611D01*
X180939929Y-129382135D01*
X180939929Y-129144040D01*
X180987548Y-128953564D01*
X181035167Y-128858326D01*
X181082786Y-128810707D01*
X181178024Y-128763087D01*
G04 #@! TO.C,S1*
X171987548Y-105665468D02*
X172130405Y-105713087D01*
X172368500Y-105713087D01*
X172463738Y-105665468D01*
X172511357Y-105617849D01*
X172558976Y-105522611D01*
X172558976Y-105427373D01*
X172511357Y-105332135D01*
X172463738Y-105284516D01*
X172368500Y-105236897D01*
X172178024Y-105189278D01*
X172082786Y-105141659D01*
X172035167Y-105094040D01*
X171987548Y-104998802D01*
X171987548Y-104903564D01*
X172035167Y-104808326D01*
X172082786Y-104760707D01*
X172178024Y-104713087D01*
X172416119Y-104713087D01*
X172558976Y-104760707D01*
X173511357Y-105713087D02*
X172939929Y-105713087D01*
X173225643Y-105713087D02*
X173225643Y-104713087D01*
X173130405Y-104855945D01*
X173035167Y-104951183D01*
X172939929Y-104998802D01*
G04 #@! TO.C,S2*
X171987548Y-81715468D02*
X172130405Y-81763087D01*
X172368500Y-81763087D01*
X172463738Y-81715468D01*
X172511357Y-81667849D01*
X172558976Y-81572611D01*
X172558976Y-81477373D01*
X172511357Y-81382135D01*
X172463738Y-81334516D01*
X172368500Y-81286897D01*
X172178024Y-81239278D01*
X172082786Y-81191659D01*
X172035167Y-81144040D01*
X171987548Y-81048802D01*
X171987548Y-80953564D01*
X172035167Y-80858326D01*
X172082786Y-80810707D01*
X172178024Y-80763087D01*
X172416119Y-80763087D01*
X172558976Y-80810707D01*
X172939929Y-80858326D02*
X172987548Y-80810707D01*
X173082786Y-80763087D01*
X173320881Y-80763087D01*
X173416119Y-80810707D01*
X173463738Y-80858326D01*
X173511357Y-80953564D01*
X173511357Y-81048802D01*
X173463738Y-81191659D01*
X172892310Y-81763087D01*
X173511357Y-81763087D01*
G04 #@! TO.C,S3*
X173987548Y-59715468D02*
X174130405Y-59763087D01*
X174368500Y-59763087D01*
X174463738Y-59715468D01*
X174511357Y-59667849D01*
X174558976Y-59572611D01*
X174558976Y-59477373D01*
X174511357Y-59382135D01*
X174463738Y-59334516D01*
X174368500Y-59286897D01*
X174178024Y-59239278D01*
X174082786Y-59191659D01*
X174035167Y-59144040D01*
X173987548Y-59048802D01*
X173987548Y-58953564D01*
X174035167Y-58858326D01*
X174082786Y-58810707D01*
X174178024Y-58763087D01*
X174416119Y-58763087D01*
X174558976Y-58810707D01*
X174892310Y-58763087D02*
X175511357Y-58763087D01*
X175178024Y-59144040D01*
X175320881Y-59144040D01*
X175416119Y-59191659D01*
X175463738Y-59239278D01*
X175511357Y-59334516D01*
X175511357Y-59572611D01*
X175463738Y-59667849D01*
X175416119Y-59715468D01*
X175320881Y-59763087D01*
X175035167Y-59763087D01*
X174939929Y-59715468D01*
X174892310Y-59667849D01*
G04 #@! TO.C,S4*
X180987548Y-38715468D02*
X181130405Y-38763087D01*
X181368500Y-38763087D01*
X181463738Y-38715468D01*
X181511357Y-38667849D01*
X181558976Y-38572611D01*
X181558976Y-38477373D01*
X181511357Y-38382135D01*
X181463738Y-38334516D01*
X181368500Y-38286897D01*
X181178024Y-38239278D01*
X181082786Y-38191659D01*
X181035167Y-38144040D01*
X180987548Y-38048802D01*
X180987548Y-37953564D01*
X181035167Y-37858326D01*
X181082786Y-37810707D01*
X181178024Y-37763087D01*
X181416119Y-37763087D01*
X181558976Y-37810707D01*
X182416119Y-38096421D02*
X182416119Y-38763087D01*
X182178024Y-37715468D02*
X181939929Y-38429754D01*
X182558976Y-38429754D01*
G04 #@! TO.C,S5*
X197637548Y-59715468D02*
X197780405Y-59763087D01*
X198018500Y-59763087D01*
X198113738Y-59715468D01*
X198161357Y-59667849D01*
X198208976Y-59572611D01*
X198208976Y-59477373D01*
X198161357Y-59382135D01*
X198113738Y-59334516D01*
X198018500Y-59286897D01*
X197828024Y-59239278D01*
X197732786Y-59191659D01*
X197685167Y-59144040D01*
X197637548Y-59048802D01*
X197637548Y-58953564D01*
X197685167Y-58858326D01*
X197732786Y-58810707D01*
X197828024Y-58763087D01*
X198066119Y-58763087D01*
X198208976Y-58810707D01*
X199113738Y-58763087D02*
X198637548Y-58763087D01*
X198589929Y-59239278D01*
X198637548Y-59191659D01*
X198732786Y-59144040D01*
X198970881Y-59144040D01*
X199066119Y-59191659D01*
X199113738Y-59239278D01*
X199161357Y-59334516D01*
X199161357Y-59572611D01*
X199113738Y-59667849D01*
X199066119Y-59715468D01*
X198970881Y-59763087D01*
X198732786Y-59763087D01*
X198637548Y-59715468D01*
X198589929Y-59667849D01*
G04 #@! TO.C,S6*
X196197548Y-82705468D02*
X196340405Y-82753087D01*
X196578500Y-82753087D01*
X196673738Y-82705468D01*
X196721357Y-82657849D01*
X196768976Y-82562611D01*
X196768976Y-82467373D01*
X196721357Y-82372135D01*
X196673738Y-82324516D01*
X196578500Y-82276897D01*
X196388024Y-82229278D01*
X196292786Y-82181659D01*
X196245167Y-82134040D01*
X196197548Y-82038802D01*
X196197548Y-81943564D01*
X196245167Y-81848326D01*
X196292786Y-81800707D01*
X196388024Y-81753087D01*
X196626119Y-81753087D01*
X196768976Y-81800707D01*
X197626119Y-81753087D02*
X197435643Y-81753087D01*
X197340405Y-81800707D01*
X197292786Y-81848326D01*
X197197548Y-81991183D01*
X197149929Y-82181659D01*
X197149929Y-82562611D01*
X197197548Y-82657849D01*
X197245167Y-82705468D01*
X197340405Y-82753087D01*
X197530881Y-82753087D01*
X197626119Y-82705468D01*
X197673738Y-82657849D01*
X197721357Y-82562611D01*
X197721357Y-82324516D01*
X197673738Y-82229278D01*
X197626119Y-82181659D01*
X197530881Y-82134040D01*
X197340405Y-82134040D01*
X197245167Y-82181659D01*
X197197548Y-82229278D01*
X197149929Y-82324516D01*
G04 #@! TO.C,S7*
X197987548Y-105715468D02*
X198130405Y-105763087D01*
X198368500Y-105763087D01*
X198463738Y-105715468D01*
X198511357Y-105667849D01*
X198558976Y-105572611D01*
X198558976Y-105477373D01*
X198511357Y-105382135D01*
X198463738Y-105334516D01*
X198368500Y-105286897D01*
X198178024Y-105239278D01*
X198082786Y-105191659D01*
X198035167Y-105144040D01*
X197987548Y-105048802D01*
X197987548Y-104953564D01*
X198035167Y-104858326D01*
X198082786Y-104810707D01*
X198178024Y-104763087D01*
X198416119Y-104763087D01*
X198558976Y-104810707D01*
X198892310Y-104763087D02*
X199558976Y-104763087D01*
X199130405Y-105763087D01*
G04 #@! TO.C,S8*
X202987548Y-37715468D02*
X203130405Y-37763087D01*
X203368500Y-37763087D01*
X203463738Y-37715468D01*
X203511357Y-37667849D01*
X203558976Y-37572611D01*
X203558976Y-37477373D01*
X203511357Y-37382135D01*
X203463738Y-37334516D01*
X203368500Y-37286897D01*
X203178024Y-37239278D01*
X203082786Y-37191659D01*
X203035167Y-37144040D01*
X202987548Y-37048802D01*
X202987548Y-36953564D01*
X203035167Y-36858326D01*
X203082786Y-36810707D01*
X203178024Y-36763087D01*
X203416119Y-36763087D01*
X203558976Y-36810707D01*
X204130405Y-37191659D02*
X204035167Y-37144040D01*
X203987548Y-37096421D01*
X203939929Y-37001183D01*
X203939929Y-36953564D01*
X203987548Y-36858326D01*
X204035167Y-36810707D01*
X204130405Y-36763087D01*
X204320881Y-36763087D01*
X204416119Y-36810707D01*
X204463738Y-36858326D01*
X204511357Y-36953564D01*
X204511357Y-37001183D01*
X204463738Y-37096421D01*
X204416119Y-37144040D01*
X204320881Y-37191659D01*
X204130405Y-37191659D01*
X204035167Y-37239278D01*
X203987548Y-37286897D01*
X203939929Y-37382135D01*
X203939929Y-37572611D01*
X203987548Y-37667849D01*
X204035167Y-37715468D01*
X204130405Y-37763087D01*
X204320881Y-37763087D01*
X204416119Y-37715468D01*
X204463738Y-37667849D01*
X204511357Y-37572611D01*
X204511357Y-37382135D01*
X204463738Y-37286897D01*
X204416119Y-37239278D01*
X204320881Y-37191659D01*
G04 #@! TO.C,S9*
X221987548Y-51715468D02*
X222130405Y-51763087D01*
X222368500Y-51763087D01*
X222463738Y-51715468D01*
X222511357Y-51667849D01*
X222558976Y-51572611D01*
X222558976Y-51477373D01*
X222511357Y-51382135D01*
X222463738Y-51334516D01*
X222368500Y-51286897D01*
X222178024Y-51239278D01*
X222082786Y-51191659D01*
X222035167Y-51144040D01*
X221987548Y-51048802D01*
X221987548Y-50953564D01*
X222035167Y-50858326D01*
X222082786Y-50810707D01*
X222178024Y-50763087D01*
X222416119Y-50763087D01*
X222558976Y-50810707D01*
X223035167Y-51763087D02*
X223225643Y-51763087D01*
X223320881Y-51715468D01*
X223368500Y-51667849D01*
X223463738Y-51524992D01*
X223511357Y-51334516D01*
X223511357Y-50953564D01*
X223463738Y-50858326D01*
X223416119Y-50810707D01*
X223320881Y-50763087D01*
X223130405Y-50763087D01*
X223035167Y-50810707D01*
X222987548Y-50858326D01*
X222939929Y-50953564D01*
X222939929Y-51191659D01*
X222987548Y-51286897D01*
X223035167Y-51334516D01*
X223130405Y-51382135D01*
X223320881Y-51382135D01*
X223416119Y-51334516D01*
X223463738Y-51286897D01*
X223511357Y-51191659D01*
G04 #@! TO.C,S10*
X215511357Y-74715468D02*
X215654214Y-74763087D01*
X215892310Y-74763087D01*
X215987548Y-74715468D01*
X216035167Y-74667849D01*
X216082786Y-74572611D01*
X216082786Y-74477373D01*
X216035167Y-74382135D01*
X215987548Y-74334516D01*
X215892310Y-74286897D01*
X215701833Y-74239278D01*
X215606595Y-74191659D01*
X215558976Y-74144040D01*
X215511357Y-74048802D01*
X215511357Y-73953564D01*
X215558976Y-73858326D01*
X215606595Y-73810707D01*
X215701833Y-73763087D01*
X215939929Y-73763087D01*
X216082786Y-73810707D01*
X217035167Y-74763087D02*
X216463738Y-74763087D01*
X216749453Y-74763087D02*
X216749453Y-73763087D01*
X216654214Y-73905945D01*
X216558976Y-74001183D01*
X216463738Y-74048802D01*
X217654214Y-73763087D02*
X217749453Y-73763087D01*
X217844691Y-73810707D01*
X217892310Y-73858326D01*
X217939929Y-73953564D01*
X217987548Y-74144040D01*
X217987548Y-74382135D01*
X217939929Y-74572611D01*
X217892310Y-74667849D01*
X217844691Y-74715468D01*
X217749453Y-74763087D01*
X217654214Y-74763087D01*
X217558976Y-74715468D01*
X217511357Y-74667849D01*
X217463738Y-74572611D01*
X217416119Y-74382135D01*
X217416119Y-74144040D01*
X217463738Y-73953564D01*
X217511357Y-73858326D01*
X217558976Y-73810707D01*
X217654214Y-73763087D01*
G04 #@! TO.C,S11*
X236511357Y-71715468D02*
X236654214Y-71763087D01*
X236892310Y-71763087D01*
X236987548Y-71715468D01*
X237035167Y-71667849D01*
X237082786Y-71572611D01*
X237082786Y-71477373D01*
X237035167Y-71382135D01*
X236987548Y-71334516D01*
X236892310Y-71286897D01*
X236701833Y-71239278D01*
X236606595Y-71191659D01*
X236558976Y-71144040D01*
X236511357Y-71048802D01*
X236511357Y-70953564D01*
X236558976Y-70858326D01*
X236606595Y-70810707D01*
X236701833Y-70763087D01*
X236939929Y-70763087D01*
X237082786Y-70810707D01*
X238035167Y-71763087D02*
X237463738Y-71763087D01*
X237749453Y-71763087D02*
X237749453Y-70763087D01*
X237654214Y-70905945D01*
X237558976Y-71001183D01*
X237463738Y-71048802D01*
X238987548Y-71763087D02*
X238416119Y-71763087D01*
X238701833Y-71763087D02*
X238701833Y-70763087D01*
X238606595Y-70905945D01*
X238511357Y-71001183D01*
X238416119Y-71048802D01*
G04 #@! TO.C,S12*
X223511357Y-94715468D02*
X223654214Y-94763087D01*
X223892310Y-94763087D01*
X223987548Y-94715468D01*
X224035167Y-94667849D01*
X224082786Y-94572611D01*
X224082786Y-94477373D01*
X224035167Y-94382135D01*
X223987548Y-94334516D01*
X223892310Y-94286897D01*
X223701833Y-94239278D01*
X223606595Y-94191659D01*
X223558976Y-94144040D01*
X223511357Y-94048802D01*
X223511357Y-93953564D01*
X223558976Y-93858326D01*
X223606595Y-93810707D01*
X223701833Y-93763087D01*
X223939929Y-93763087D01*
X224082786Y-93810707D01*
X225035167Y-94763087D02*
X224463738Y-94763087D01*
X224749453Y-94763087D02*
X224749453Y-93763087D01*
X224654214Y-93905945D01*
X224558976Y-94001183D01*
X224463738Y-94048802D01*
X225416119Y-93858326D02*
X225463738Y-93810707D01*
X225558976Y-93763087D01*
X225797072Y-93763087D01*
X225892310Y-93810707D01*
X225939929Y-93858326D01*
X225987548Y-93953564D01*
X225987548Y-94048802D01*
X225939929Y-94191659D01*
X225368500Y-94763087D01*
X225987548Y-94763087D01*
G04 #@! TO.C,S13*
X246511357Y-91715468D02*
X246654214Y-91763087D01*
X246892310Y-91763087D01*
X246987548Y-91715468D01*
X247035167Y-91667849D01*
X247082786Y-91572611D01*
X247082786Y-91477373D01*
X247035167Y-91382135D01*
X246987548Y-91334516D01*
X246892310Y-91286897D01*
X246701833Y-91239278D01*
X246606595Y-91191659D01*
X246558976Y-91144040D01*
X246511357Y-91048802D01*
X246511357Y-90953564D01*
X246558976Y-90858326D01*
X246606595Y-90810707D01*
X246701833Y-90763087D01*
X246939929Y-90763087D01*
X247082786Y-90810707D01*
X248035167Y-91763087D02*
X247463738Y-91763087D01*
X247749453Y-91763087D02*
X247749453Y-90763087D01*
X247654214Y-90905945D01*
X247558976Y-91001183D01*
X247463738Y-91048802D01*
X248368500Y-90763087D02*
X248987548Y-90763087D01*
X248654214Y-91144040D01*
X248797072Y-91144040D01*
X248892310Y-91191659D01*
X248939929Y-91239278D01*
X248987548Y-91334516D01*
X248987548Y-91572611D01*
X248939929Y-91667849D01*
X248892310Y-91715468D01*
X248797072Y-91763087D01*
X248511357Y-91763087D01*
X248416119Y-91715468D01*
X248368500Y-91667849D01*
G04 #@! TO.C,S14*
X201511357Y-129715468D02*
X201654214Y-129763087D01*
X201892310Y-129763087D01*
X201987548Y-129715468D01*
X202035167Y-129667849D01*
X202082786Y-129572611D01*
X202082786Y-129477373D01*
X202035167Y-129382135D01*
X201987548Y-129334516D01*
X201892310Y-129286897D01*
X201701833Y-129239278D01*
X201606595Y-129191659D01*
X201558976Y-129144040D01*
X201511357Y-129048802D01*
X201511357Y-128953564D01*
X201558976Y-128858326D01*
X201606595Y-128810707D01*
X201701833Y-128763087D01*
X201939929Y-128763087D01*
X202082786Y-128810707D01*
X203035167Y-129763087D02*
X202463738Y-129763087D01*
X202749453Y-129763087D02*
X202749453Y-128763087D01*
X202654214Y-128905945D01*
X202558976Y-129001183D01*
X202463738Y-129048802D01*
X203892310Y-129096421D02*
X203892310Y-129763087D01*
X203654214Y-128715468D02*
X203416119Y-129429754D01*
X204035167Y-129429754D01*
G04 #@! TO.C,S15*
X224511357Y-115715468D02*
X224654214Y-115763087D01*
X224892310Y-115763087D01*
X224987548Y-115715468D01*
X225035167Y-115667849D01*
X225082786Y-115572611D01*
X225082786Y-115477373D01*
X225035167Y-115382135D01*
X224987548Y-115334516D01*
X224892310Y-115286897D01*
X224701833Y-115239278D01*
X224606595Y-115191659D01*
X224558976Y-115144040D01*
X224511357Y-115048802D01*
X224511357Y-114953564D01*
X224558976Y-114858326D01*
X224606595Y-114810707D01*
X224701833Y-114763087D01*
X224939929Y-114763087D01*
X225082786Y-114810707D01*
X226035167Y-115763087D02*
X225463738Y-115763087D01*
X225749453Y-115763087D02*
X225749453Y-114763087D01*
X225654214Y-114905945D01*
X225558976Y-115001183D01*
X225463738Y-115048802D01*
X226939929Y-114763087D02*
X226463738Y-114763087D01*
X226416119Y-115239278D01*
X226463738Y-115191659D01*
X226558976Y-115144040D01*
X226797072Y-115144040D01*
X226892310Y-115191659D01*
X226939929Y-115239278D01*
X226987548Y-115334516D01*
X226987548Y-115572611D01*
X226939929Y-115667849D01*
X226892310Y-115715468D01*
X226797072Y-115763087D01*
X226558976Y-115763087D01*
X226463738Y-115715468D01*
X226416119Y-115667849D01*
G04 #@! TO.C,S16*
X248511357Y-112715468D02*
X248654214Y-112763087D01*
X248892310Y-112763087D01*
X248987548Y-112715468D01*
X249035167Y-112667849D01*
X249082786Y-112572611D01*
X249082786Y-112477373D01*
X249035167Y-112382135D01*
X248987548Y-112334516D01*
X248892310Y-112286897D01*
X248701833Y-112239278D01*
X248606595Y-112191659D01*
X248558976Y-112144040D01*
X248511357Y-112048802D01*
X248511357Y-111953564D01*
X248558976Y-111858326D01*
X248606595Y-111810707D01*
X248701833Y-111763087D01*
X248939929Y-111763087D01*
X249082786Y-111810707D01*
X250035167Y-112763087D02*
X249463738Y-112763087D01*
X249749453Y-112763087D02*
X249749453Y-111763087D01*
X249654214Y-111905945D01*
X249558976Y-112001183D01*
X249463738Y-112048802D01*
X250892310Y-111763087D02*
X250701833Y-111763087D01*
X250606595Y-111810707D01*
X250558976Y-111858326D01*
X250463738Y-112001183D01*
X250416119Y-112191659D01*
X250416119Y-112572611D01*
X250463738Y-112667849D01*
X250511357Y-112715468D01*
X250606595Y-112763087D01*
X250797072Y-112763087D01*
X250892310Y-112715468D01*
X250939929Y-112667849D01*
X250987548Y-112572611D01*
X250987548Y-112334516D01*
X250939929Y-112239278D01*
X250892310Y-112191659D01*
X250797072Y-112144040D01*
X250606595Y-112144040D01*
X250511357Y-112191659D01*
X250463738Y-112239278D01*
X250416119Y-112334516D01*
G04 #@! TO.C,S17*
X247511357Y-133715468D02*
X247654214Y-133763087D01*
X247892310Y-133763087D01*
X247987548Y-133715468D01*
X248035167Y-133667849D01*
X248082786Y-133572611D01*
X248082786Y-133477373D01*
X248035167Y-133382135D01*
X247987548Y-133334516D01*
X247892310Y-133286897D01*
X247701833Y-133239278D01*
X247606595Y-133191659D01*
X247558976Y-133144040D01*
X247511357Y-133048802D01*
X247511357Y-132953564D01*
X247558976Y-132858326D01*
X247606595Y-132810707D01*
X247701833Y-132763087D01*
X247939929Y-132763087D01*
X248082786Y-132810707D01*
X249035167Y-133763087D02*
X248463738Y-133763087D01*
X248749453Y-133763087D02*
X248749453Y-132763087D01*
X248654214Y-132905945D01*
X248558976Y-133001183D01*
X248463738Y-133048802D01*
X249368500Y-132763087D02*
X250035167Y-132763087D01*
X249606595Y-133763087D01*
G04 #@! TO.C,S18*
X223511357Y-137715468D02*
X223654214Y-137763087D01*
X223892310Y-137763087D01*
X223987548Y-137715468D01*
X224035167Y-137667849D01*
X224082786Y-137572611D01*
X224082786Y-137477373D01*
X224035167Y-137382135D01*
X223987548Y-137334516D01*
X223892310Y-137286897D01*
X223701833Y-137239278D01*
X223606595Y-137191659D01*
X223558976Y-137144040D01*
X223511357Y-137048802D01*
X223511357Y-136953564D01*
X223558976Y-136858326D01*
X223606595Y-136810707D01*
X223701833Y-136763087D01*
X223939929Y-136763087D01*
X224082786Y-136810707D01*
X225035167Y-137763087D02*
X224463738Y-137763087D01*
X224749453Y-137763087D02*
X224749453Y-136763087D01*
X224654214Y-136905945D01*
X224558976Y-137001183D01*
X224463738Y-137048802D01*
X225606595Y-137191659D02*
X225511357Y-137144040D01*
X225463738Y-137096421D01*
X225416119Y-137001183D01*
X225416119Y-136953564D01*
X225463738Y-136858326D01*
X225511357Y-136810707D01*
X225606595Y-136763087D01*
X225797072Y-136763087D01*
X225892310Y-136810707D01*
X225939929Y-136858326D01*
X225987548Y-136953564D01*
X225987548Y-137001183D01*
X225939929Y-137096421D01*
X225892310Y-137144040D01*
X225797072Y-137191659D01*
X225606595Y-137191659D01*
X225511357Y-137239278D01*
X225463738Y-137286897D01*
X225416119Y-137382135D01*
X225416119Y-137572611D01*
X225463738Y-137667849D01*
X225511357Y-137715468D01*
X225606595Y-137763087D01*
X225797072Y-137763087D01*
X225892310Y-137715468D01*
X225939929Y-137667849D01*
X225987548Y-137572611D01*
X225987548Y-137382135D01*
X225939929Y-137286897D01*
X225892310Y-137239278D01*
X225797072Y-137191659D01*
G04 #@! TO.C,S19*
X218511357Y-158715468D02*
X218654214Y-158763087D01*
X218892310Y-158763087D01*
X218987548Y-158715468D01*
X219035167Y-158667849D01*
X219082786Y-158572611D01*
X219082786Y-158477373D01*
X219035167Y-158382135D01*
X218987548Y-158334516D01*
X218892310Y-158286897D01*
X218701833Y-158239278D01*
X218606595Y-158191659D01*
X218558976Y-158144040D01*
X218511357Y-158048802D01*
X218511357Y-157953564D01*
X218558976Y-157858326D01*
X218606595Y-157810707D01*
X218701833Y-157763087D01*
X218939929Y-157763087D01*
X219082786Y-157810707D01*
X220035167Y-158763087D02*
X219463738Y-158763087D01*
X219749453Y-158763087D02*
X219749453Y-157763087D01*
X219654214Y-157905945D01*
X219558976Y-158001183D01*
X219463738Y-158048802D01*
X220511357Y-158763087D02*
X220701833Y-158763087D01*
X220797072Y-158715468D01*
X220844691Y-158667849D01*
X220939929Y-158524992D01*
X220987548Y-158334516D01*
X220987548Y-157953564D01*
X220939929Y-157858326D01*
X220892310Y-157810707D01*
X220797072Y-157763087D01*
X220606595Y-157763087D01*
X220511357Y-157810707D01*
X220463738Y-157858326D01*
X220416119Y-157953564D01*
X220416119Y-158191659D01*
X220463738Y-158286897D01*
X220511357Y-158334516D01*
X220606595Y-158382135D01*
X220797072Y-158382135D01*
X220892310Y-158334516D01*
X220939929Y-158286897D01*
X220987548Y-158191659D01*
G04 #@! TO.C,S20*
X242511357Y-155715468D02*
X242654214Y-155763087D01*
X242892310Y-155763087D01*
X242987548Y-155715468D01*
X243035167Y-155667849D01*
X243082786Y-155572611D01*
X243082786Y-155477373D01*
X243035167Y-155382135D01*
X242987548Y-155334516D01*
X242892310Y-155286897D01*
X242701833Y-155239278D01*
X242606595Y-155191659D01*
X242558976Y-155144040D01*
X242511357Y-155048802D01*
X242511357Y-154953564D01*
X242558976Y-154858326D01*
X242606595Y-154810707D01*
X242701833Y-154763087D01*
X242939929Y-154763087D01*
X243082786Y-154810707D01*
X243463738Y-154858326D02*
X243511357Y-154810707D01*
X243606595Y-154763087D01*
X243844691Y-154763087D01*
X243939929Y-154810707D01*
X243987548Y-154858326D01*
X244035167Y-154953564D01*
X244035167Y-155048802D01*
X243987548Y-155191659D01*
X243416119Y-155763087D01*
X244035167Y-155763087D01*
X244654214Y-154763087D02*
X244749453Y-154763087D01*
X244844691Y-154810707D01*
X244892310Y-154858326D01*
X244939929Y-154953564D01*
X244987548Y-155144040D01*
X244987548Y-155382135D01*
X244939929Y-155572611D01*
X244892310Y-155667849D01*
X244844691Y-155715468D01*
X244749453Y-155763087D01*
X244654214Y-155763087D01*
X244558976Y-155715468D01*
X244511357Y-155667849D01*
X244463738Y-155572611D01*
X244416119Y-155382135D01*
X244416119Y-155144040D01*
X244463738Y-154953564D01*
X244511357Y-154858326D01*
X244558976Y-154810707D01*
X244654214Y-154763087D01*
G04 #@! TO.C,S21*
X233961357Y-176365468D02*
X234104214Y-176413087D01*
X234342310Y-176413087D01*
X234437548Y-176365468D01*
X234485167Y-176317849D01*
X234532786Y-176222611D01*
X234532786Y-176127373D01*
X234485167Y-176032135D01*
X234437548Y-175984516D01*
X234342310Y-175936897D01*
X234151833Y-175889278D01*
X234056595Y-175841659D01*
X234008976Y-175794040D01*
X233961357Y-175698802D01*
X233961357Y-175603564D01*
X234008976Y-175508326D01*
X234056595Y-175460707D01*
X234151833Y-175413087D01*
X234389929Y-175413087D01*
X234532786Y-175460707D01*
X234913738Y-175508326D02*
X234961357Y-175460707D01*
X235056595Y-175413087D01*
X235294691Y-175413087D01*
X235389929Y-175460707D01*
X235437548Y-175508326D01*
X235485167Y-175603564D01*
X235485167Y-175698802D01*
X235437548Y-175841659D01*
X234866119Y-176413087D01*
X235485167Y-176413087D01*
X236437548Y-176413087D02*
X235866119Y-176413087D01*
X236151833Y-176413087D02*
X236151833Y-175413087D01*
X236056595Y-175555945D01*
X235961357Y-175651183D01*
X235866119Y-175698802D01*
G04 #@! TO.C,S22*
X230931357Y-197345468D02*
X231074214Y-197393087D01*
X231312310Y-197393087D01*
X231407548Y-197345468D01*
X231455167Y-197297849D01*
X231502786Y-197202611D01*
X231502786Y-197107373D01*
X231455167Y-197012135D01*
X231407548Y-196964516D01*
X231312310Y-196916897D01*
X231121833Y-196869278D01*
X231026595Y-196821659D01*
X230978976Y-196774040D01*
X230931357Y-196678802D01*
X230931357Y-196583564D01*
X230978976Y-196488326D01*
X231026595Y-196440707D01*
X231121833Y-196393087D01*
X231359929Y-196393087D01*
X231502786Y-196440707D01*
X231883738Y-196488326D02*
X231931357Y-196440707D01*
X232026595Y-196393087D01*
X232264691Y-196393087D01*
X232359929Y-196440707D01*
X232407548Y-196488326D01*
X232455167Y-196583564D01*
X232455167Y-196678802D01*
X232407548Y-196821659D01*
X231836119Y-197393087D01*
X232455167Y-197393087D01*
X232836119Y-196488326D02*
X232883738Y-196440707D01*
X232978976Y-196393087D01*
X233217072Y-196393087D01*
X233312310Y-196440707D01*
X233359929Y-196488326D01*
X233407548Y-196583564D01*
X233407548Y-196678802D01*
X233359929Y-196821659D01*
X232788500Y-197393087D01*
X233407548Y-197393087D01*
G04 #@! TO.C,S23*
X229711357Y-218595468D02*
X229854214Y-218643087D01*
X230092310Y-218643087D01*
X230187548Y-218595468D01*
X230235167Y-218547849D01*
X230282786Y-218452611D01*
X230282786Y-218357373D01*
X230235167Y-218262135D01*
X230187548Y-218214516D01*
X230092310Y-218166897D01*
X229901833Y-218119278D01*
X229806595Y-218071659D01*
X229758976Y-218024040D01*
X229711357Y-217928802D01*
X229711357Y-217833564D01*
X229758976Y-217738326D01*
X229806595Y-217690707D01*
X229901833Y-217643087D01*
X230139929Y-217643087D01*
X230282786Y-217690707D01*
X230663738Y-217738326D02*
X230711357Y-217690707D01*
X230806595Y-217643087D01*
X231044691Y-217643087D01*
X231139929Y-217690707D01*
X231187548Y-217738326D01*
X231235167Y-217833564D01*
X231235167Y-217928802D01*
X231187548Y-218071659D01*
X230616119Y-218643087D01*
X231235167Y-218643087D01*
X231568500Y-217643087D02*
X232187548Y-217643087D01*
X231854214Y-218024040D01*
X231997072Y-218024040D01*
X232092310Y-218071659D01*
X232139929Y-218119278D01*
X232187548Y-218214516D01*
X232187548Y-218452611D01*
X232139929Y-218547849D01*
X232092310Y-218595468D01*
X231997072Y-218643087D01*
X231711357Y-218643087D01*
X231616119Y-218595468D01*
X231568500Y-218547849D01*
G04 #@! TO.C,S24*
X192391357Y-239335468D02*
X192534214Y-239383087D01*
X192772310Y-239383087D01*
X192867548Y-239335468D01*
X192915167Y-239287849D01*
X192962786Y-239192611D01*
X192962786Y-239097373D01*
X192915167Y-239002135D01*
X192867548Y-238954516D01*
X192772310Y-238906897D01*
X192581833Y-238859278D01*
X192486595Y-238811659D01*
X192438976Y-238764040D01*
X192391357Y-238668802D01*
X192391357Y-238573564D01*
X192438976Y-238478326D01*
X192486595Y-238430707D01*
X192581833Y-238383087D01*
X192819929Y-238383087D01*
X192962786Y-238430707D01*
X193343738Y-238478326D02*
X193391357Y-238430707D01*
X193486595Y-238383087D01*
X193724691Y-238383087D01*
X193819929Y-238430707D01*
X193867548Y-238478326D01*
X193915167Y-238573564D01*
X193915167Y-238668802D01*
X193867548Y-238811659D01*
X193296119Y-239383087D01*
X193915167Y-239383087D01*
X194772310Y-238716421D02*
X194772310Y-239383087D01*
X194534214Y-238335468D02*
X194296119Y-239049754D01*
X194915167Y-239049754D01*
G04 #@! TO.C,S25*
X189181357Y-260205468D02*
X189324214Y-260253087D01*
X189562310Y-260253087D01*
X189657548Y-260205468D01*
X189705167Y-260157849D01*
X189752786Y-260062611D01*
X189752786Y-259967373D01*
X189705167Y-259872135D01*
X189657548Y-259824516D01*
X189562310Y-259776897D01*
X189371833Y-259729278D01*
X189276595Y-259681659D01*
X189228976Y-259634040D01*
X189181357Y-259538802D01*
X189181357Y-259443564D01*
X189228976Y-259348326D01*
X189276595Y-259300707D01*
X189371833Y-259253087D01*
X189609929Y-259253087D01*
X189752786Y-259300707D01*
X190133738Y-259348326D02*
X190181357Y-259300707D01*
X190276595Y-259253087D01*
X190514691Y-259253087D01*
X190609929Y-259300707D01*
X190657548Y-259348326D01*
X190705167Y-259443564D01*
X190705167Y-259538802D01*
X190657548Y-259681659D01*
X190086119Y-260253087D01*
X190705167Y-260253087D01*
X191609929Y-259253087D02*
X191133738Y-259253087D01*
X191086119Y-259729278D01*
X191133738Y-259681659D01*
X191228976Y-259634040D01*
X191467072Y-259634040D01*
X191562310Y-259681659D01*
X191609929Y-259729278D01*
X191657548Y-259824516D01*
X191657548Y-260062611D01*
X191609929Y-260157849D01*
X191562310Y-260205468D01*
X191467072Y-260253087D01*
X191228976Y-260253087D01*
X191133738Y-260205468D01*
X191086119Y-260157849D01*
G04 #@! TO.C,S26*
X199511357Y-278865468D02*
X199654214Y-278913087D01*
X199892310Y-278913087D01*
X199987548Y-278865468D01*
X200035167Y-278817849D01*
X200082786Y-278722611D01*
X200082786Y-278627373D01*
X200035167Y-278532135D01*
X199987548Y-278484516D01*
X199892310Y-278436897D01*
X199701833Y-278389278D01*
X199606595Y-278341659D01*
X199558976Y-278294040D01*
X199511357Y-278198802D01*
X199511357Y-278103564D01*
X199558976Y-278008326D01*
X199606595Y-277960707D01*
X199701833Y-277913087D01*
X199939929Y-277913087D01*
X200082786Y-277960707D01*
X200463738Y-278008326D02*
X200511357Y-277960707D01*
X200606595Y-277913087D01*
X200844691Y-277913087D01*
X200939929Y-277960707D01*
X200987548Y-278008326D01*
X201035167Y-278103564D01*
X201035167Y-278198802D01*
X200987548Y-278341659D01*
X200416119Y-278913087D01*
X201035167Y-278913087D01*
X201892310Y-277913087D02*
X201701833Y-277913087D01*
X201606595Y-277960707D01*
X201558976Y-278008326D01*
X201463738Y-278151183D01*
X201416119Y-278341659D01*
X201416119Y-278722611D01*
X201463738Y-278817849D01*
X201511357Y-278865468D01*
X201606595Y-278913087D01*
X201797072Y-278913087D01*
X201892310Y-278865468D01*
X201939929Y-278817849D01*
X201987548Y-278722611D01*
X201987548Y-278484516D01*
X201939929Y-278389278D01*
X201892310Y-278341659D01*
X201797072Y-278294040D01*
X201606595Y-278294040D01*
X201511357Y-278341659D01*
X201463738Y-278389278D01*
X201416119Y-278484516D01*
G04 #@! TO.C,S27*
X221411357Y-278965468D02*
X221554214Y-279013087D01*
X221792310Y-279013087D01*
X221887548Y-278965468D01*
X221935167Y-278917849D01*
X221982786Y-278822611D01*
X221982786Y-278727373D01*
X221935167Y-278632135D01*
X221887548Y-278584516D01*
X221792310Y-278536897D01*
X221601833Y-278489278D01*
X221506595Y-278441659D01*
X221458976Y-278394040D01*
X221411357Y-278298802D01*
X221411357Y-278203564D01*
X221458976Y-278108326D01*
X221506595Y-278060707D01*
X221601833Y-278013087D01*
X221839929Y-278013087D01*
X221982786Y-278060707D01*
X222363738Y-278108326D02*
X222411357Y-278060707D01*
X222506595Y-278013087D01*
X222744691Y-278013087D01*
X222839929Y-278060707D01*
X222887548Y-278108326D01*
X222935167Y-278203564D01*
X222935167Y-278298802D01*
X222887548Y-278441659D01*
X222316119Y-279013087D01*
X222935167Y-279013087D01*
X223268500Y-278013087D02*
X223935167Y-278013087D01*
X223506595Y-279013087D01*
G04 #@! TO.C,S28*
X232761357Y-261085468D02*
X232904214Y-261133087D01*
X233142310Y-261133087D01*
X233237548Y-261085468D01*
X233285167Y-261037849D01*
X233332786Y-260942611D01*
X233332786Y-260847373D01*
X233285167Y-260752135D01*
X233237548Y-260704516D01*
X233142310Y-260656897D01*
X232951833Y-260609278D01*
X232856595Y-260561659D01*
X232808976Y-260514040D01*
X232761357Y-260418802D01*
X232761357Y-260323564D01*
X232808976Y-260228326D01*
X232856595Y-260180707D01*
X232951833Y-260133087D01*
X233189929Y-260133087D01*
X233332786Y-260180707D01*
X233713738Y-260228326D02*
X233761357Y-260180707D01*
X233856595Y-260133087D01*
X234094691Y-260133087D01*
X234189929Y-260180707D01*
X234237548Y-260228326D01*
X234285167Y-260323564D01*
X234285167Y-260418802D01*
X234237548Y-260561659D01*
X233666119Y-261133087D01*
X234285167Y-261133087D01*
X234856595Y-260561659D02*
X234761357Y-260514040D01*
X234713738Y-260466421D01*
X234666119Y-260371183D01*
X234666119Y-260323564D01*
X234713738Y-260228326D01*
X234761357Y-260180707D01*
X234856595Y-260133087D01*
X235047072Y-260133087D01*
X235142310Y-260180707D01*
X235189929Y-260228326D01*
X235237548Y-260323564D01*
X235237548Y-260371183D01*
X235189929Y-260466421D01*
X235142310Y-260514040D01*
X235047072Y-260561659D01*
X234856595Y-260561659D01*
X234761357Y-260609278D01*
X234713738Y-260656897D01*
X234666119Y-260752135D01*
X234666119Y-260942611D01*
X234713738Y-261037849D01*
X234761357Y-261085468D01*
X234856595Y-261133087D01*
X235047072Y-261133087D01*
X235142310Y-261085468D01*
X235189929Y-261037849D01*
X235237548Y-260942611D01*
X235237548Y-260752135D01*
X235189929Y-260656897D01*
X235142310Y-260609278D01*
X235047072Y-260561659D01*
G04 #@! TO.C,S29*
X211011357Y-255915468D02*
X211154214Y-255963087D01*
X211392310Y-255963087D01*
X211487548Y-255915468D01*
X211535167Y-255867849D01*
X211582786Y-255772611D01*
X211582786Y-255677373D01*
X211535167Y-255582135D01*
X211487548Y-255534516D01*
X211392310Y-255486897D01*
X211201833Y-255439278D01*
X211106595Y-255391659D01*
X211058976Y-255344040D01*
X211011357Y-255248802D01*
X211011357Y-255153564D01*
X211058976Y-255058326D01*
X211106595Y-255010707D01*
X211201833Y-254963087D01*
X211439929Y-254963087D01*
X211582786Y-255010707D01*
X211963738Y-255058326D02*
X212011357Y-255010707D01*
X212106595Y-254963087D01*
X212344691Y-254963087D01*
X212439929Y-255010707D01*
X212487548Y-255058326D01*
X212535167Y-255153564D01*
X212535167Y-255248802D01*
X212487548Y-255391659D01*
X211916119Y-255963087D01*
X212535167Y-255963087D01*
X213011357Y-255963087D02*
X213201833Y-255963087D01*
X213297072Y-255915468D01*
X213344691Y-255867849D01*
X213439929Y-255724992D01*
X213487548Y-255534516D01*
X213487548Y-255153564D01*
X213439929Y-255058326D01*
X213392310Y-255010707D01*
X213297072Y-254963087D01*
X213106595Y-254963087D01*
X213011357Y-255010707D01*
X212963738Y-255058326D01*
X212916119Y-255153564D01*
X212916119Y-255391659D01*
X212963738Y-255486897D01*
X213011357Y-255534516D01*
X213106595Y-255582135D01*
X213297072Y-255582135D01*
X213392310Y-255534516D01*
X213439929Y-255486897D01*
X213487548Y-255391659D01*
G04 #@! TO.C,S30*
X232211357Y-239915468D02*
X232354214Y-239963087D01*
X232592310Y-239963087D01*
X232687548Y-239915468D01*
X232735167Y-239867849D01*
X232782786Y-239772611D01*
X232782786Y-239677373D01*
X232735167Y-239582135D01*
X232687548Y-239534516D01*
X232592310Y-239486897D01*
X232401833Y-239439278D01*
X232306595Y-239391659D01*
X232258976Y-239344040D01*
X232211357Y-239248802D01*
X232211357Y-239153564D01*
X232258976Y-239058326D01*
X232306595Y-239010707D01*
X232401833Y-238963087D01*
X232639929Y-238963087D01*
X232782786Y-239010707D01*
X233116119Y-238963087D02*
X233735167Y-238963087D01*
X233401833Y-239344040D01*
X233544691Y-239344040D01*
X233639929Y-239391659D01*
X233687548Y-239439278D01*
X233735167Y-239534516D01*
X233735167Y-239772611D01*
X233687548Y-239867849D01*
X233639929Y-239915468D01*
X233544691Y-239963087D01*
X233258976Y-239963087D01*
X233163738Y-239915468D01*
X233116119Y-239867849D01*
X234354214Y-238963087D02*
X234449453Y-238963087D01*
X234544691Y-239010707D01*
X234592310Y-239058326D01*
X234639929Y-239153564D01*
X234687548Y-239344040D01*
X234687548Y-239582135D01*
X234639929Y-239772611D01*
X234592310Y-239867849D01*
X234544691Y-239915468D01*
X234449453Y-239963087D01*
X234354214Y-239963087D01*
X234258976Y-239915468D01*
X234211357Y-239867849D01*
X234163738Y-239772611D01*
X234116119Y-239582135D01*
X234116119Y-239344040D01*
X234163738Y-239153564D01*
X234211357Y-239058326D01*
X234258976Y-239010707D01*
X234354214Y-238963087D01*
G04 #@! TO.C,S31*
X212431357Y-232315468D02*
X212574214Y-232363087D01*
X212812310Y-232363087D01*
X212907548Y-232315468D01*
X212955167Y-232267849D01*
X213002786Y-232172611D01*
X213002786Y-232077373D01*
X212955167Y-231982135D01*
X212907548Y-231934516D01*
X212812310Y-231886897D01*
X212621833Y-231839278D01*
X212526595Y-231791659D01*
X212478976Y-231744040D01*
X212431357Y-231648802D01*
X212431357Y-231553564D01*
X212478976Y-231458326D01*
X212526595Y-231410707D01*
X212621833Y-231363087D01*
X212859929Y-231363087D01*
X213002786Y-231410707D01*
X213336119Y-231363087D02*
X213955167Y-231363087D01*
X213621833Y-231744040D01*
X213764691Y-231744040D01*
X213859929Y-231791659D01*
X213907548Y-231839278D01*
X213955167Y-231934516D01*
X213955167Y-232172611D01*
X213907548Y-232267849D01*
X213859929Y-232315468D01*
X213764691Y-232363087D01*
X213478976Y-232363087D01*
X213383738Y-232315468D01*
X213336119Y-232267849D01*
X214907548Y-232363087D02*
X214336119Y-232363087D01*
X214621833Y-232363087D02*
X214621833Y-231363087D01*
X214526595Y-231505945D01*
X214431357Y-231601183D01*
X214336119Y-231648802D01*
G04 #@! TD*
M02*
