G04 #@! TF.GenerationSoftware,KiCad,Pcbnew,(5.0.0)*
G04 #@! TF.CreationDate,2020-01-07T16:08:45+01:00*
G04 #@! TF.ProjectId,Insole_PCB,496E736F6C655F5043422E6B69636164,rev?*
G04 #@! TF.SameCoordinates,Original*
G04 #@! TF.FileFunction,Profile,NP*
%FSLAX46Y46*%
G04 Gerber Fmt 4.6, Leading zero omitted, Abs format (unit mm)*
G04 Created by KiCad (PCBNEW (5.0.0)) date 01/07/20 16:08:45*
%MOMM*%
%LPD*%
G01*
G04 APERTURE LIST*
%ADD10C,0.100000*%
G04 APERTURE END LIST*
D10*
X164050642Y-119835994D02*
X165507081Y-125421767D01*
X182793244Y-221362641D02*
X182278707Y-225042240D01*
X188227598Y-40988248D02*
X183706195Y-41433398D01*
X183631844Y-213979186D02*
X183241487Y-217673975D01*
X163862366Y-81551160D02*
X163530772Y-88035804D01*
X181017115Y-232362460D02*
X180253244Y-235997193D01*
X171591599Y-47438278D02*
X169887795Y-50082368D01*
X192786393Y-40908448D02*
X188227598Y-40988248D01*
X177993962Y-151640973D02*
X180303042Y-156942121D01*
X169987711Y-136080279D02*
X172660692Y-141267086D01*
X183706195Y-41433398D02*
X179281275Y-42198788D01*
X167466799Y-56056108D02*
X166648763Y-59165497D01*
X184996043Y-183326521D02*
X185021683Y-190084696D01*
X166648763Y-59165497D02*
X166025142Y-62209716D01*
X180253244Y-235997193D02*
X179389444Y-239611083D01*
X183241487Y-217673975D02*
X182793244Y-221362641D01*
X164368622Y-75081296D02*
X163862366Y-81551160D01*
X197323491Y-41239028D02*
X192786393Y-40908448D01*
X181689467Y-228709828D02*
X181017115Y-232362460D01*
X168529670Y-52991688D02*
X167466799Y-56056108D01*
X163350926Y-114003164D02*
X164050642Y-119835994D01*
X165079546Y-68632165D02*
X164368622Y-75081296D01*
X176237918Y-43386358D02*
X173691500Y-45169568D01*
X182278707Y-225042240D02*
X181689467Y-228709828D01*
X183972722Y-210281218D02*
X183631844Y-213979186D01*
X175387977Y-146434973D02*
X177993962Y-151640973D01*
X167544639Y-130817517D02*
X169987711Y-136080279D01*
X179281275Y-42198788D02*
X176237918Y-43386358D01*
X183771180Y-169946289D02*
X184613134Y-176603990D01*
X180303042Y-156942121D02*
X182368408Y-163382604D01*
X163343836Y-94529278D02*
X163271556Y-101025630D01*
X163530772Y-88035804D02*
X163343836Y-94529278D01*
X184613134Y-176603990D02*
X184996043Y-183326521D01*
X163271556Y-101025630D02*
X163283916Y-107518909D01*
X182368408Y-163382604D02*
X183771180Y-169946289D01*
X172660692Y-141267086D02*
X175387977Y-146434973D01*
X165507081Y-125421767D02*
X167544639Y-130817517D01*
X163283916Y-107518909D02*
X163350926Y-114003164D01*
X169887795Y-50082368D02*
X168529670Y-52991688D01*
X173691500Y-45169568D02*
X171591599Y-47438278D01*
X185021683Y-190084696D02*
X184791826Y-196849327D01*
X166025142Y-62209716D02*
X165079546Y-68632165D01*
X235649432Y-216299821D02*
X236213166Y-210252416D01*
X231820426Y-261041988D02*
X234040292Y-256004794D01*
X243923050Y-161937873D02*
X245304486Y-157484392D01*
X248007705Y-148562042D02*
X249193610Y-144059683D01*
X220033859Y-272095518D02*
X224644789Y-269175768D01*
X234666365Y-231876892D02*
X234804433Y-228415381D01*
X250947757Y-124357689D02*
X250916137Y-119395753D01*
X234796264Y-235352252D02*
X234666365Y-231876892D01*
X224644789Y-269175768D02*
X228631118Y-265461788D01*
X214970751Y-274132598D02*
X220033859Y-272095518D01*
X245304486Y-157484392D02*
X246688684Y-153031363D01*
X185302551Y-265197248D02*
X189157659Y-269028128D01*
X201779806Y-42025068D02*
X197323491Y-41239028D01*
X193685488Y-272039258D02*
X198792564Y-274063118D01*
X250552860Y-134251392D02*
X250844339Y-129311828D01*
X250541349Y-104530952D02*
X250329517Y-100724409D01*
X206096249Y-43311658D02*
X201779806Y-42025068D01*
X182213638Y-260714178D02*
X185302551Y-265197248D01*
X189157659Y-269028128D02*
X193685488Y-272039258D01*
X210213729Y-45143848D02*
X206096249Y-43311658D01*
X214073159Y-47566738D02*
X210213729Y-45143848D01*
X217854558Y-50685898D02*
X214073159Y-47566738D01*
X209627885Y-275198588D02*
X214970751Y-274132598D01*
X237540545Y-198174867D02*
X238271167Y-192143327D01*
X231302085Y-64923602D02*
X228136580Y-61169344D01*
X237406341Y-72613821D02*
X234382783Y-68749981D01*
X246336117Y-86180352D02*
X244616023Y-82802712D01*
X221440482Y-54015828D02*
X217854558Y-50685898D01*
X241440222Y-170913173D02*
X242612316Y-166408551D01*
X204177682Y-275204588D02*
X209627885Y-275198588D01*
X224858601Y-57521868D02*
X221440482Y-54015828D01*
X240400424Y-76480462D02*
X237406341Y-72613821D01*
X228136580Y-61169344D02*
X224858601Y-57521868D01*
X249193610Y-144059683D02*
X250020293Y-139169603D01*
X234382783Y-68749981D02*
X231302085Y-64923602D01*
X250659908Y-109475607D02*
X250541349Y-104530952D01*
X239783715Y-180091224D02*
X240474709Y-175468482D01*
X228631118Y-265461788D02*
X231820426Y-261041988D01*
X236213166Y-210252416D02*
X236849041Y-204210998D01*
X198792564Y-274063118D02*
X204177682Y-275204588D01*
X250916137Y-119395753D02*
X250802513Y-114432800D01*
X238271167Y-192143327D02*
X239024394Y-186115678D01*
X250020293Y-139169603D02*
X250552860Y-134251392D01*
X235066225Y-238832701D02*
X234796264Y-235352252D01*
X242612316Y-166408551D02*
X243923050Y-161937873D01*
X235348343Y-242309484D02*
X235066225Y-238832701D01*
X247780468Y-89678911D02*
X246336117Y-86180352D01*
X242633141Y-79563558D02*
X240400424Y-76480462D01*
X244616023Y-82802712D02*
X242633141Y-79563558D01*
X248936122Y-93280820D02*
X247780468Y-89678911D01*
X250802513Y-114432800D02*
X250659908Y-109475607D01*
X236849041Y-204210998D02*
X237540545Y-198174867D01*
X235514714Y-245773842D02*
X235348343Y-242309484D01*
X239024394Y-186115678D02*
X239783715Y-180091224D01*
X235174351Y-222353910D02*
X235649432Y-216299821D01*
X235437434Y-249217018D02*
X235514714Y-245773842D01*
X234988594Y-252630255D02*
X235437434Y-249217018D01*
X249790123Y-96968509D02*
X248936122Y-93280820D01*
X250329517Y-100724409D02*
X249790123Y-96968509D01*
X250844339Y-129311828D02*
X250947757Y-124357689D01*
X240474709Y-175468482D02*
X241440222Y-170913173D01*
X234040292Y-256004794D02*
X234988594Y-252630255D01*
X234804433Y-228415381D02*
X235174351Y-222353910D01*
X246688684Y-153031363D02*
X248007705Y-148562042D01*
X179984397Y-255746448D02*
X182213638Y-260714178D01*
X178708303Y-250461599D02*
X179984397Y-255746448D01*
X178478830Y-245027173D02*
X178708303Y-250461599D01*
X179389453Y-239610707D02*
X178478830Y-245027173D01*
X189909453Y-207510707D02*
X190159453Y-200380707D01*
X189909452Y-207509361D02*
G75*
G02X189463259Y-207870707I-401061J39080D01*
G01*
X184719453Y-207700707D02*
X189469453Y-207870707D01*
X189879269Y-200082814D02*
G75*
G02X190159453Y-200370707I-26761J-306331D01*
G01*
X184368954Y-207996623D02*
G75*
G02X184719453Y-207700707I320499J-24084D01*
G01*
X185015369Y-199910706D02*
G75*
G02X184719453Y-199560207I24084J320499D01*
G01*
X184369453Y-208000707D02*
X183969453Y-210290707D01*
X185019453Y-199910707D02*
X189879453Y-200080707D01*
X184789453Y-196850707D02*
X184719453Y-199550707D01*
M02*
