G04 #@! TF.GenerationSoftware,KiCad,Pcbnew,(5.0.0)*
G04 #@! TF.CreationDate,2020-01-29T13:40:55+01:00*
G04 #@! TF.ProjectId,Insole_PCB,496E736F6C655F5043422E6B69636164,rev?*
G04 #@! TF.SameCoordinates,Original*
G04 #@! TF.FileFunction,Glue,Top*
G04 #@! TF.FilePolarity,Positive*
%FSLAX46Y46*%
G04 Gerber Fmt 4.6, Leading zero omitted, Abs format (unit mm)*
G04 Created by KiCad (PCBNEW (5.0.0)) date 01/29/20 13:40:55*
%MOMM*%
%LPD*%
G01*
G04 APERTURE LIST*
%ADD10C,0.100000*%
G04 APERTURE END LIST*
D10*
X249792461Y-96966756D02*
X248938460Y-93279067D01*
X250918475Y-119394000D02*
X250804851Y-114431047D01*
X244618361Y-82800959D02*
X242635479Y-79561805D01*
X214075497Y-47564985D02*
X210216067Y-45142095D01*
X228138918Y-61167591D02*
X224860939Y-57520115D01*
X240402762Y-76478709D02*
X237408679Y-72612068D01*
X231304423Y-64921849D02*
X228138918Y-61167591D01*
X250662246Y-109473854D02*
X250543687Y-104529199D01*
X250543687Y-104529199D02*
X250331855Y-100722656D01*
X242635479Y-79561805D02*
X240402762Y-76478709D01*
X248938460Y-93279067D02*
X247782806Y-89677158D01*
X250950095Y-124355936D02*
X250918475Y-119394000D01*
X192788731Y-40906695D02*
X188229936Y-40986495D01*
X210216067Y-45142095D02*
X206098587Y-43309905D01*
X217856896Y-50684145D02*
X214075497Y-47564985D01*
X224860939Y-57520115D02*
X221442820Y-54014075D01*
X234385121Y-68748228D02*
X231304423Y-64921849D01*
X250331855Y-100722656D02*
X249792461Y-96966756D01*
X250846677Y-129310075D02*
X250950095Y-124355936D01*
X188229936Y-40986495D02*
X183708533Y-41431645D01*
X206098587Y-43309905D02*
X201782144Y-42023315D01*
X221442820Y-54014075D02*
X217856896Y-50684145D01*
X197325829Y-41237275D02*
X192788731Y-40906695D01*
X201782144Y-42023315D02*
X197325829Y-41237275D01*
X237408679Y-72612068D02*
X234385121Y-68748228D01*
X247782806Y-89677158D02*
X246338455Y-86178599D01*
X250804851Y-114431047D02*
X250662246Y-109473854D01*
X246338455Y-86178599D02*
X244618361Y-82800959D01*
X178710641Y-250459846D02*
X179986735Y-255744695D01*
X249195948Y-144057930D02*
X250022631Y-139167850D01*
X235176689Y-222352157D02*
X235651770Y-216298068D01*
X204180020Y-275202835D02*
X209630223Y-275196835D01*
X242614654Y-166406798D02*
X243925388Y-161936120D01*
X189159997Y-269026375D02*
X193687826Y-272037505D01*
X209630223Y-275196835D02*
X214973089Y-274130845D01*
X243925388Y-161936120D02*
X245306824Y-157482639D01*
X250555198Y-134249639D02*
X250846677Y-129310075D01*
X250022631Y-139167850D02*
X250555198Y-134249639D01*
X239026732Y-186113925D02*
X239786053Y-180089471D01*
X179391791Y-239608954D02*
X178481168Y-245025420D01*
X248010043Y-148560289D02*
X249195948Y-144057930D01*
X240477047Y-175466729D02*
X241442560Y-170911420D01*
X239786053Y-180089471D02*
X240477047Y-175466729D01*
X234798602Y-235350499D02*
X234668703Y-231875139D01*
X238273505Y-192141574D02*
X239026732Y-186113925D01*
X220036197Y-272093765D02*
X224647127Y-269174015D01*
X235439772Y-249215265D02*
X235517052Y-245772089D01*
X236215504Y-210250663D02*
X236851379Y-204209245D01*
X234042630Y-256003041D02*
X234990932Y-252628502D01*
X179986735Y-255744695D02*
X182215976Y-260712425D01*
X236851379Y-204209245D02*
X237542883Y-198173114D01*
X235651770Y-216298068D02*
X236215504Y-210250663D01*
X234806771Y-228413628D02*
X235176689Y-222352157D01*
X234668703Y-231875139D02*
X234806771Y-228413628D01*
X224647127Y-269174015D02*
X228633456Y-265460035D01*
X214973089Y-274130845D02*
X220036197Y-272093765D01*
X246691022Y-153029610D02*
X248010043Y-148560289D01*
X237542883Y-198173114D02*
X238273505Y-192141574D01*
X228633456Y-265460035D02*
X231822764Y-261040235D01*
X245306824Y-157482639D02*
X246691022Y-153029610D01*
X241442560Y-170911420D02*
X242614654Y-166406798D01*
X235068563Y-238830948D02*
X234798602Y-235350499D01*
X235350681Y-242307731D02*
X235068563Y-238830948D01*
X235517052Y-245772089D02*
X235350681Y-242307731D01*
X234990932Y-252628502D02*
X235439772Y-249215265D01*
X231822764Y-261040235D02*
X234042630Y-256003041D01*
X198794902Y-274061365D02*
X204180020Y-275202835D01*
X193687826Y-272037505D02*
X198794902Y-274061365D01*
X185304889Y-265195495D02*
X189159997Y-269026375D01*
X182215976Y-260712425D02*
X185304889Y-265195495D01*
X178481168Y-245025420D02*
X178710641Y-250459846D01*
X163346174Y-94527525D02*
X163273894Y-101023877D01*
X163533110Y-88034051D02*
X163346174Y-94527525D01*
X166651101Y-59163744D02*
X166027480Y-62207963D01*
X183708533Y-41431645D02*
X179283613Y-42197035D01*
X166027480Y-62207963D02*
X165081884Y-68630412D01*
X171593937Y-47436525D02*
X169890133Y-50080615D01*
X167546977Y-130815764D02*
X169099453Y-134170707D01*
X164052980Y-119834241D02*
X165509419Y-125420014D01*
X163273894Y-101023877D02*
X163286254Y-107517156D01*
X169890133Y-50080615D02*
X168532008Y-52989935D01*
X173693838Y-45167815D02*
X171593937Y-47436525D01*
X179283613Y-42197035D02*
X176240256Y-43384605D01*
X165509419Y-125420014D02*
X167546977Y-130815764D01*
X163353264Y-114001411D02*
X164052980Y-119834241D01*
X163864704Y-81549407D02*
X163533110Y-88034051D01*
X165081884Y-68630412D02*
X164370960Y-75079543D01*
X163286254Y-107517156D02*
X163353264Y-114001411D01*
X164370960Y-75079543D02*
X163864704Y-81549407D01*
X167469137Y-56054355D02*
X166651101Y-59163744D01*
X176240256Y-43384605D02*
X173693838Y-45167815D01*
X168532008Y-52989935D02*
X167469137Y-56054355D01*
X182281045Y-225040487D02*
X181691805Y-228708075D01*
X183709453Y-213230707D02*
X183634182Y-213977433D01*
X180255582Y-235995440D02*
X179391782Y-239609330D01*
X183243825Y-217672222D02*
X182795582Y-221360888D01*
X181691805Y-228708075D02*
X181019453Y-232360707D01*
X182795582Y-221360888D02*
X182281045Y-225040487D01*
X183634182Y-213977433D02*
X183243825Y-217672222D01*
X181019453Y-232360707D02*
X180255582Y-235995440D01*
X215449761Y-193818833D02*
G75*
G02X183709453Y-213230707I-24873154J5014846D01*
G01*
X169100843Y-134167994D02*
G75*
G02X215449453Y-193820707I5024467J-43928309D01*
G01*
G04 #@! TO.C,S9*
X223982155Y-62690707D02*
G75*
G03X223982155Y-62690707I-7402702J0D01*
G01*
G04 #@! TO.C,S0*
X189932155Y-122750707D02*
G75*
G03X189932155Y-122750707I-7402702J0D01*
G01*
G04 #@! TO.C,S1*
X183412155Y-105510707D02*
G75*
G03X183412155Y-105510707I-7402702J0D01*
G01*
G04 #@! TO.C,S2*
X181602155Y-86210707D02*
G75*
G03X181602155Y-86210707I-7402702J0D01*
G01*
G04 #@! TO.C,S3*
X181892155Y-67430707D02*
G75*
G03X181892155Y-67430707I-7402702J0D01*
G01*
G04 #@! TO.C,S4*
X191092155Y-51060707D02*
G75*
G03X191092155Y-51060707I-7402702J0D01*
G01*
G04 #@! TO.C,S5*
X199602155Y-68050707D02*
G75*
G03X199602155Y-68050707I-7402702J0D01*
G01*
G04 #@! TO.C,S6*
X199552155Y-88510707D02*
G75*
G03X199552155Y-88510707I-7402702J0D01*
G01*
G04 #@! TO.C,S7*
X206252155Y-105160707D02*
G75*
G03X206252155Y-105160707I-7402702J0D01*
G01*
G04 #@! TO.C,S8*
X209402155Y-52300707D02*
G75*
G03X209402155Y-52300707I-7402702J0D01*
G01*
G04 #@! TO.C,S10*
X214632155Y-78260707D02*
G75*
G03X214632155Y-78260707I-7402702J0D01*
G01*
G04 #@! TO.C,S11*
X236062155Y-76150707D02*
G75*
G03X236062155Y-76150707I-7402702J0D01*
G01*
G04 #@! TO.C,S12*
X223882155Y-93770707D02*
G75*
G03X223882155Y-93770707I-7402702J0D01*
G01*
G04 #@! TO.C,S13*
X245252155Y-93140707D02*
G75*
G03X245252155Y-93140707I-7402702J0D01*
G01*
G04 #@! TO.C,S14*
X212082155Y-122670707D02*
G75*
G03X212082155Y-122670707I-7402702J0D01*
G01*
G04 #@! TO.C,S15*
X228832155Y-110990707D02*
G75*
G03X228832155Y-110990707I-7402702J0D01*
G01*
G04 #@! TO.C,S16*
X248742155Y-111880707D02*
G75*
G03X248742155Y-111880707I-7402702J0D01*
G01*
G04 #@! TO.C,S17*
X248452155Y-131070707D02*
G75*
G03X248452155Y-131070707I-7402702J0D01*
G01*
G04 #@! TO.C,S18*
X229062155Y-129720707D02*
G75*
G03X229062155Y-129720707I-7402702J0D01*
G01*
G04 #@! TO.C,S19*
X226832155Y-149480707D02*
G75*
G03X226832155Y-149480707I-7402702J0D01*
G01*
G04 #@! TO.C,S20*
X245262155Y-150260707D02*
G75*
G03X245262155Y-150260707I-7402702J0D01*
G01*
G04 #@! TO.C,S21*
X239572155Y-168670707D02*
G75*
G03X239572155Y-168670707I-7402702J0D01*
G01*
G04 #@! TO.C,S22*
X234712155Y-189130707D02*
G75*
G03X234712155Y-189130707I-7402702J0D01*
G01*
G04 #@! TO.C,S23*
X233512155Y-208340707D02*
G75*
G03X233512155Y-208340707I-7402702J0D01*
G01*
G04 #@! TO.C,S24*
X198902155Y-229030707D02*
G75*
G03X198902155Y-229030707I-7402702J0D01*
G01*
G04 #@! TO.C,S25*
X195412155Y-247000707D02*
G75*
G03X195412155Y-247000707I-7402702J0D01*
G01*
G04 #@! TO.C,S26*
X205372155Y-263520707D02*
G75*
G03X205372155Y-263520707I-7402702J0D01*
G01*
G04 #@! TO.C,S27*
X224072155Y-263600707D02*
G75*
G03X224072155Y-263600707I-7402702J0D01*
G01*
G04 #@! TO.C,S28*
X232932155Y-246810707D02*
G75*
G03X232932155Y-246810707I-7402702J0D01*
G01*
G04 #@! TO.C,S29*
X214712155Y-244810707D02*
G75*
G03X214712155Y-244810707I-7402702J0D01*
G01*
G04 #@! TO.C,S30*
X232762155Y-228950707D02*
G75*
G03X232762155Y-228950707I-7402702J0D01*
G01*
G04 #@! TO.C,S31*
X215912155Y-223530707D02*
G75*
G03X215912155Y-223530707I-7402702J0D01*
G01*
G04 #@! TD*
M02*
