M48
;DRILL file {KiCad (5.0.0)} date 01/29/20 13:41:03
;FORMAT={-:-/ absolute / metric / decimal}
FMAT,2
METRIC,TZ
T1C0.370
T2C0.400
T3C0.500
%
G90
G05
M71
T1
X177.179Y-94.551
X180.969Y-112.181
X185.329Y-172.051
X185.389Y-172.951
X185.619Y-145.981
X185.709Y-167.561
X185.899Y-163.263
X187.009Y-177.101
X187.099Y-167.571
X187.169Y-182.581
X187.199Y-161.531
X187.444Y-147.292
X187.895Y-146.756
X188.092Y-149.025
X188.424Y-149.661
X188.649Y-146.586
X189.259Y-195.231
X189.715Y-174.427
X190.154Y-191.361
X190.619Y-159.881
X191.049Y-166.411
X191.169Y-150.611
X191.277Y-164.989
X191.499Y-191.811
X191.594Y-138.246
X191.594Y-141.846
X191.729Y-161.086
X191.869Y-151.101
X192.119Y-143.721
X192.249Y-151.711
X192.489Y-160.051
X192.806Y-181.999
X192.919Y-189.021
X192.994Y-136.421
X193.329Y-184.901
X193.449Y-158.211
X193.789Y-168.641
X193.812Y-148.908
X193.819Y-165.431
X194.549Y-158.411
X194.849Y-175.011
X195.06Y-156.978
X195.108Y-156.129
X195.119Y-133.796
X195.149Y-169.441
X195.249Y-158.611
X195.349Y-209.961
X195.494Y-150.771
X195.959Y-146.497
X196.049Y-208.761
X196.249Y-162.711
X196.249Y-195.011
X196.549Y-159.011
X196.949Y-197.111
X197.149Y-158.311
X197.219Y-150.096
X197.349Y-177.241
X197.394Y-151.871
X197.889Y-146.831
X198.074Y-159.886
X198.179Y-166.891
X198.249Y-141.511
X198.499Y-197.311
X198.549Y-173.011
X198.699Y-162.401
X198.73Y-158.417
X198.939Y-179.171
X199.094Y-155.421
X199.349Y-173.611
X199.479Y-163.241
X199.849Y-172.811
X199.994Y-151.521
X200.144Y-150.571
X200.249Y-168.111
X200.524Y-147.386
X200.549Y-173.111
X200.559Y-146.602
X200.799Y-154.511
X200.944Y-150.571
X200.979Y-187.551
X201.244Y-158.771
X201.344Y-150.046
X201.499Y-146.611
X201.574Y-165.186
X201.649Y-184.061
X201.769Y-159.621
X201.909Y-153.931
X202.124Y-168.386
X202.899Y-189.111
X203.099Y-190.061
X203.169Y-158.546
X203.229Y-181.291
X203.394Y-161.246
X203.699Y-151.671
X203.744Y-156.121
X204.299Y-171.711
X204.594Y-155.371
X204.699Y-166.511
X204.749Y-170.661
X205.349Y-175.191
X205.479Y-186.231
X206.149Y-177.698
X206.374Y-160.186
X206.609Y-132.241
X207.424Y-162.586
X208.329Y-145.421
X208.649Y-196.011
X208.694Y-167.321
X209.144Y-177.846
X209.749Y-171.686
X209.799Y-173.661
X209.844Y-178.396
X209.849Y-187.061
X209.944Y-158.921
X209.949Y-181.361
X210.394Y-166.821
X210.419Y-177.871
X210.949Y-183.261
X211.069Y-177.396
X211.469Y-167.596
X211.749Y-172.111
X212.299Y-178.511
X212.699Y-168.811
X212.849Y-188.261
X212.949Y-185.661
X213.144Y-167.046
X213.194Y-140.271
X217.169Y-101.171
X221.619Y-140.271
X222.059Y-99.701
X225.219Y-258.471
X227.399Y-175.031
X229.949Y-100.671
X240.439Y-100.691
T2
X167.719Y-80.621
X167.869Y-100.646
X168.059Y-91.741
X168.069Y-72.496
X168.169Y-108.781
X169.639Y-60.471
X174.869Y-122.596
X175.309Y-51.691
X178.629Y-130.401
X182.659Y-67.821
X183.294Y-240.821
X183.344Y-255.971
X185.139Y-92.411
X185.449Y-141.111
X185.869Y-234.146
X185.899Y-166.338
X186.499Y-62.071
X186.769Y-220.946
X186.919Y-211.621
X187.329Y-175.781
X188.319Y-186.251
X189.949Y-141.111
X189.994Y-263.171
X190.739Y-55.331
X191.699Y-195.961
X191.799Y-186.061
X192.119Y-100.321
X192.228Y-206.638
X192.406Y-201.541
X192.899Y-196.961
X194.269Y-193.291
X194.449Y-211.411
X194.883Y-186.279
X195.318Y-188.803
X195.749Y-206.111
X195.949Y-199.611
X196.372Y-187.481
X197.139Y-127.201
X197.159Y-180.451
X197.849Y-205.461
X198.844Y-248.396
X199.019Y-93.146
X199.719Y-69.046
X200.069Y-115.971
X200.249Y-199.111
X200.549Y-207.811
X201.644Y-216.046
X202.044Y-227.996
X202.259Y-59.771
X203.094Y-252.971
X204.189Y-85.651
X204.344Y-159.296
X204.899Y-193.111
X205.819Y-112.781
X206.419Y-71.071
X208.259Y-63.841
X208.344Y-209.321
X208.469Y-264.371
X208.494Y-210.771
X209.279Y-266.911
X209.309Y-90.061
X210.369Y-206.646
X210.794Y-210.746
X211.019Y-208.071
X211.159Y-68.511
X211.469Y-51.031
X213.749Y-110.591
X214.309Y-256.481
X214.419Y-206.671
X214.519Y-208.096
X214.644Y-209.346
X214.769Y-101.271
X214.869Y-120.421
X215.509Y-142.231
X215.919Y-210.746
X216.044Y-238.571
X217.529Y-141.941
X217.594Y-138.646
X219.819Y-70.661
X220.019Y-179.646
X220.569Y-80.096
X220.869Y-253.921
X220.889Y-75.561
X221.444Y-162.271
X221.459Y-141.961
X221.459Y-236.061
X222.199Y-158.081
X222.594Y-199.846
X222.669Y-172.691
X222.819Y-195.831
X224.319Y-180.796
X226.569Y-198.446
X227.829Y-137.831
X228.559Y-239.331
X229.209Y-83.931
X229.619Y-219.396
X229.999Y-161.321
X231.719Y-155.371
X234.409Y-85.841
X234.869Y-116.821
X235.099Y-136.581
X235.169Y-138.621
X237.769Y-123.411
X241.009Y-158.231
X244.639Y-138.931
X247.669Y-114.921
T3
X186.859Y-192.861
X186.929Y-191.863
T0
M30
