G04 #@! TF.FileFunction,Copper,L1,Top,Signal*
%FSLAX46Y46*%
G04 Gerber Fmt 4.6, Leading zero omitted, Abs format (unit mm)*
G04 Created by KiCad (PCBNEW 4.0.6) date 04/30/18 12:25:27*
%MOMM*%
%LPD*%
G01*
G04 APERTURE LIST*
%ADD10C,0.100000*%
%ADD11R,14.500000X0.600000*%
%ADD12R,0.600000X24.550000*%
%ADD13R,14.000000X0.600000*%
%ADD14R,0.600000X23.250000*%
%ADD15R,0.600000X14.500000*%
%ADD16R,24.550000X0.600000*%
%ADD17R,0.600000X14.000000*%
%ADD18R,23.250000X0.600000*%
%ADD19R,2.100000X0.750000*%
%ADD20C,0.450000*%
%ADD21C,0.600000*%
G04 APERTURE END LIST*
D10*
G36*
X33109669Y-61437214D02*
X42882473Y-64994224D01*
X42113445Y-65352827D01*
X33468273Y-62206242D01*
X33109669Y-61437214D01*
X33109669Y-61437214D01*
G37*
G36*
X32990824Y-58839932D02*
X45582706Y-63423002D01*
X44813678Y-63781606D01*
X33349428Y-59608960D01*
X32990824Y-58839932D01*
X32990824Y-58839932D01*
G37*
G36*
X32824996Y-56225548D02*
X46450539Y-61184840D01*
X46245326Y-61748656D01*
X32619783Y-56789364D01*
X32824996Y-56225548D01*
X32824996Y-56225548D01*
G37*
G36*
X53679947Y-41468396D02*
X40007419Y-36492003D01*
X40776447Y-36133400D01*
X53321343Y-40699369D01*
X53679947Y-41468396D01*
X53679947Y-41468396D01*
G37*
G36*
X36108390Y-47204499D02*
X49733933Y-52163791D01*
X49528720Y-52727607D01*
X35903177Y-47768315D01*
X36108390Y-47204499D01*
X36108390Y-47204499D01*
G37*
G36*
X35287541Y-49459762D02*
X48913084Y-54419054D01*
X48707871Y-54982870D01*
X35082328Y-50023578D01*
X35287541Y-49459762D01*
X35287541Y-49459762D01*
G37*
G36*
X33645845Y-53970286D02*
X47271388Y-58929578D01*
X47066175Y-59493394D01*
X33440632Y-54534102D01*
X33645845Y-53970286D01*
X33645845Y-53970286D01*
G37*
G36*
X34466693Y-51715024D02*
X48092236Y-56674316D01*
X47887023Y-57238132D01*
X34261480Y-52278840D01*
X34466693Y-51715024D01*
X34466693Y-51715024D01*
G37*
G36*
X37750086Y-42693975D02*
X51375629Y-47653267D01*
X51170416Y-48217083D01*
X37544873Y-43257791D01*
X37750086Y-42693975D01*
X37750086Y-42693975D01*
G37*
G36*
X36929238Y-44949237D02*
X50554781Y-49908529D01*
X50349568Y-50472345D01*
X36724025Y-45513053D01*
X36929238Y-44949237D01*
X36929238Y-44949237D01*
G37*
G36*
X38570935Y-40438712D02*
X52196478Y-45398004D01*
X51991265Y-45961820D01*
X38365722Y-41002528D01*
X38570935Y-40438712D01*
X38570935Y-40438712D01*
G37*
G36*
X39391783Y-38183450D02*
X53017326Y-43142742D01*
X52812113Y-43706558D01*
X39186570Y-38747266D01*
X39391783Y-38183450D01*
X39391783Y-38183450D01*
G37*
G36*
X45574223Y-63738465D02*
X42311515Y-65259891D01*
X42057945Y-64716107D01*
X45320653Y-63194681D01*
X45574223Y-63738465D01*
X45574223Y-63738465D01*
G37*
G36*
X45574070Y-63739112D02*
X45010254Y-63533900D01*
X53406848Y-40464446D01*
X53970664Y-40669658D01*
X45574070Y-63739112D01*
X45574070Y-63739112D01*
G37*
G36*
X53427075Y-40923375D02*
X52231488Y-38359430D01*
X52775273Y-38105859D01*
X53970860Y-40669804D01*
X53427075Y-40923375D01*
X53427075Y-40923375D01*
G37*
G36*
X53044271Y-38683004D02*
X42707653Y-34920782D01*
X43476680Y-34562179D01*
X52685668Y-37913976D01*
X53044271Y-38683004D01*
X53044271Y-38683004D01*
G37*
G36*
X31709802Y-57096664D02*
X44865498Y-61884946D01*
X44660286Y-62448762D01*
X31504590Y-57660480D01*
X31709802Y-57096664D01*
X31709802Y-57096664D01*
G37*
G36*
X33749486Y-50176968D02*
X47375029Y-55136260D01*
X47169816Y-55700076D01*
X33544273Y-50740784D01*
X33749486Y-50176968D01*
X33749486Y-50176968D01*
G37*
G36*
X32928638Y-52432231D02*
X46554181Y-57391523D01*
X46348968Y-57955339D01*
X32723425Y-52996047D01*
X32928638Y-52432231D01*
X32928638Y-52432231D01*
G37*
G36*
X32107789Y-54687493D02*
X45733332Y-59646785D01*
X45528119Y-60210601D01*
X31902576Y-55251309D01*
X32107789Y-54687493D01*
X32107789Y-54687493D01*
G37*
G36*
X34570334Y-47921706D02*
X48195877Y-52880998D01*
X47990664Y-53444814D01*
X34365121Y-48485522D01*
X34570334Y-47921706D01*
X34570334Y-47921706D01*
G37*
G36*
X35391183Y-45666444D02*
X49016726Y-50625736D01*
X48811513Y-51189552D01*
X35185970Y-46230260D01*
X35391183Y-45666444D01*
X35391183Y-45666444D01*
G37*
G36*
X36212031Y-43411182D02*
X49837574Y-48370474D01*
X49632361Y-48934290D01*
X36006818Y-43974998D01*
X36212031Y-43411182D01*
X36212031Y-43411182D01*
G37*
G36*
X37032879Y-41155919D02*
X50658422Y-46115211D01*
X50453209Y-46679027D01*
X36827666Y-41719735D01*
X37032879Y-41155919D01*
X37032879Y-41155919D01*
G37*
G36*
X37853728Y-38900657D02*
X51479271Y-43859949D01*
X51274058Y-44423765D01*
X37648515Y-39464473D01*
X37853728Y-38900657D01*
X37853728Y-38900657D01*
G37*
G36*
X52047922Y-42151402D02*
X38892226Y-37363120D01*
X39097438Y-36799304D01*
X52253134Y-41587586D01*
X52047922Y-42151402D01*
X52047922Y-42151402D01*
G37*
G36*
X52398923Y-39725130D02*
X40558796Y-35415676D01*
X41327824Y-35057072D01*
X52040320Y-38956102D01*
X52398923Y-39725130D01*
X52398923Y-39725130D01*
G37*
G36*
X32321985Y-59873508D02*
X42987497Y-63755437D01*
X42218469Y-64114040D01*
X32680589Y-60642536D01*
X32321985Y-59873508D01*
X32321985Y-59873508D01*
G37*
G36*
X31677123Y-57069644D02*
X33114025Y-60151091D01*
X32570241Y-60404662D01*
X31133339Y-57323215D01*
X31677123Y-57069644D01*
X31677123Y-57069644D01*
G37*
G36*
X39078608Y-35462228D02*
X39642424Y-35667440D01*
X31690456Y-57515294D01*
X31126640Y-57310082D01*
X39078608Y-35462228D01*
X39078608Y-35462228D01*
G37*
G36*
X52355255Y-37155209D02*
X42864359Y-33700805D01*
X43633387Y-33342202D01*
X51996651Y-36386181D01*
X52355255Y-37155209D01*
X52355255Y-37155209D01*
G37*
G36*
X39072078Y-35465848D02*
X43603617Y-33352757D01*
X43857188Y-33896542D01*
X39325649Y-36009633D01*
X39072078Y-35465848D01*
X39072078Y-35465848D01*
G37*
G36*
X61025731Y-39677509D02*
X56630501Y-49103110D01*
X56340288Y-48305754D01*
X60228376Y-39967723D01*
X61025731Y-39677509D01*
X61025731Y-39677509D01*
G37*
G36*
X63623488Y-39785485D02*
X57960403Y-51930010D01*
X57670189Y-51132654D01*
X62826132Y-40075699D01*
X63623488Y-39785485D01*
X63623488Y-39785485D01*
G37*
G36*
X66242376Y-39848146D02*
X60114411Y-52989609D01*
X59570626Y-52736038D01*
X65698591Y-39594575D01*
X66242376Y-39848146D01*
X66242376Y-39848146D01*
G37*
G36*
X79125744Y-61909908D02*
X85274840Y-48723129D01*
X85565053Y-49520485D01*
X79923099Y-61619694D01*
X79125744Y-61909908D01*
X79125744Y-61909908D01*
G37*
G36*
X74942931Y-43905281D02*
X68814966Y-57046744D01*
X68271181Y-56793173D01*
X74399146Y-43651710D01*
X74942931Y-43905281D01*
X74942931Y-43905281D01*
G37*
G36*
X72767792Y-42890997D02*
X66639827Y-56032460D01*
X66096042Y-55778889D01*
X72224007Y-42637426D01*
X72767792Y-42890997D01*
X72767792Y-42890997D01*
G37*
G36*
X68417515Y-40862429D02*
X62289550Y-54003892D01*
X61745765Y-53750321D01*
X67873730Y-40608858D01*
X68417515Y-40862429D01*
X68417515Y-40862429D01*
G37*
G36*
X70592654Y-41876713D02*
X64464689Y-55018176D01*
X63920904Y-54764605D01*
X70048869Y-41623142D01*
X70592654Y-41876713D01*
X70592654Y-41876713D01*
G37*
G36*
X79293208Y-45933849D02*
X73165243Y-59075312D01*
X72621458Y-58821741D01*
X78749423Y-45680278D01*
X79293208Y-45933849D01*
X79293208Y-45933849D01*
G37*
G36*
X77118070Y-44919565D02*
X70990105Y-58061028D01*
X70446320Y-57807457D01*
X76574285Y-44665994D01*
X77118070Y-44919565D01*
X77118070Y-44919565D01*
G37*
G36*
X81468347Y-46948132D02*
X75340382Y-60089595D01*
X74796597Y-59836024D01*
X80924562Y-46694561D01*
X81468347Y-46948132D01*
X81468347Y-46948132D01*
G37*
G36*
X83643486Y-47962416D02*
X77515521Y-61103879D01*
X76971736Y-60850308D01*
X83099701Y-47708845D01*
X83643486Y-47962416D01*
X83643486Y-47962416D01*
G37*
G36*
X57646879Y-51894065D02*
X56415607Y-48511171D01*
X56979423Y-48305959D01*
X58210695Y-51688853D01*
X57646879Y-51894065D01*
X57646879Y-51894065D01*
G37*
G36*
X57646249Y-51893854D02*
X57899820Y-51350070D01*
X80149677Y-61725348D01*
X79896106Y-62269132D01*
X57646249Y-51893854D01*
X57646249Y-51893854D01*
G37*
G36*
X79690731Y-61705500D02*
X82349121Y-60737925D01*
X82554333Y-61301740D01*
X79895943Y-62269315D01*
X79690731Y-61705500D01*
X79690731Y-61705500D01*
G37*
G36*
X81955941Y-61519414D02*
X86604742Y-51550029D01*
X86894956Y-52347384D01*
X82753297Y-61229201D01*
X81955941Y-61519414D01*
X81955941Y-61519414D01*
G37*
G36*
X65471770Y-38661273D02*
X59555115Y-51349582D01*
X59011330Y-51096011D01*
X64927985Y-38407702D01*
X65471770Y-38661273D01*
X65471770Y-38661273D01*
G37*
G36*
X72187365Y-41296286D02*
X66059400Y-54437749D01*
X65515615Y-54184178D01*
X71643580Y-41042715D01*
X72187365Y-41296286D01*
X72187365Y-41296286D01*
G37*
G36*
X70012226Y-40282002D02*
X63884261Y-53423465D01*
X63340476Y-53169894D01*
X69468441Y-40028431D01*
X70012226Y-40282002D01*
X70012226Y-40282002D01*
G37*
G36*
X67837088Y-39267718D02*
X61709123Y-52409181D01*
X61165338Y-52155610D01*
X67293303Y-39014147D01*
X67837088Y-39267718D01*
X67837088Y-39267718D01*
G37*
G36*
X74362504Y-42310570D02*
X68234539Y-55452033D01*
X67690754Y-55198462D01*
X73818719Y-42056999D01*
X74362504Y-42310570D01*
X74362504Y-42310570D01*
G37*
G36*
X76537642Y-43324853D02*
X70409677Y-56466316D01*
X69865892Y-56212745D01*
X75993857Y-43071282D01*
X76537642Y-43324853D01*
X76537642Y-43324853D01*
G37*
G36*
X78712781Y-44339137D02*
X72584816Y-57480600D01*
X72041031Y-57227029D01*
X78168996Y-44085566D01*
X78712781Y-44339137D01*
X78712781Y-44339137D01*
G37*
G36*
X80887920Y-45353421D02*
X74759955Y-58494884D01*
X74216170Y-58241313D01*
X80344135Y-45099850D01*
X80887920Y-45353421D01*
X80887920Y-45353421D01*
G37*
G36*
X83063058Y-46367705D02*
X76935093Y-59509168D01*
X76391308Y-59255597D01*
X82519273Y-46114134D01*
X83063058Y-46367705D01*
X83063058Y-46367705D01*
G37*
G36*
X78587578Y-60224565D02*
X84504233Y-47536256D01*
X85048018Y-47789827D01*
X79131363Y-60478136D01*
X78587578Y-60224565D01*
X78587578Y-60224565D01*
G37*
G36*
X80974026Y-60785696D02*
X86299016Y-49366217D01*
X86589229Y-50163573D01*
X81771381Y-60495482D01*
X80974026Y-60785696D01*
X80974026Y-60785696D01*
G37*
G36*
X62652139Y-39029109D02*
X57855422Y-49315702D01*
X57565208Y-48518347D01*
X61854783Y-39319323D01*
X62652139Y-39029109D01*
X62652139Y-39029109D01*
G37*
G36*
X65501535Y-38631074D02*
X62306581Y-39793942D01*
X62101369Y-39230126D01*
X65296323Y-38067258D01*
X65501535Y-38631074D01*
X65501535Y-38631074D01*
G37*
G36*
X86381647Y-47887604D02*
X86128076Y-48431389D01*
X65056419Y-38605514D01*
X65309990Y-38061729D01*
X86381647Y-47887604D01*
X86381647Y-47887604D01*
G37*
G36*
X83537973Y-60966176D02*
X87806418Y-51812467D01*
X88096632Y-52609823D01*
X84335329Y-60675962D01*
X83537973Y-60966176D01*
X83537973Y-60966176D01*
G37*
G36*
X86378610Y-47880782D02*
X88088711Y-52579246D01*
X87524896Y-52784458D01*
X85814795Y-48085994D01*
X86378610Y-47880782D01*
X86378610Y-47880782D01*
G37*
G36*
X41100000Y-74800000D02*
X30700000Y-74800000D01*
X31300000Y-74200000D01*
X40500000Y-74200000D01*
X41100000Y-74800000D01*
X41100000Y-74800000D01*
G37*
G36*
X42100000Y-77200000D02*
X28700000Y-77200000D01*
X29300000Y-76600000D01*
X41500000Y-76600000D01*
X42100000Y-77200000D01*
X42100000Y-77200000D01*
G37*
D11*
X35900000Y-79300000D03*
D10*
G36*
X28600000Y-100600000D02*
X43150000Y-100600000D01*
X42550000Y-101200000D01*
X29200000Y-101200000D01*
X28600000Y-100600000D01*
X28600000Y-100600000D01*
G37*
D11*
X35900000Y-88900000D03*
X35900000Y-86500000D03*
X35900000Y-81700000D03*
X35900000Y-84100000D03*
X35900000Y-93700000D03*
X35900000Y-91300000D03*
X35900000Y-96100000D03*
X35900000Y-98500000D03*
D10*
G36*
X28600076Y-76900660D02*
X31145660Y-74355076D01*
X31569924Y-74779340D01*
X29024340Y-77324924D01*
X28600076Y-76900660D01*
X28600076Y-76900660D01*
G37*
D12*
X28900000Y-89175000D03*
D10*
G36*
X29024029Y-101025665D02*
X31024435Y-103026071D01*
X30600171Y-103450335D01*
X28599765Y-101449929D01*
X29024029Y-101025665D01*
X29024029Y-101025665D01*
G37*
G36*
X30150000Y-103000000D02*
X41150000Y-103000000D01*
X40550000Y-103600000D01*
X30750000Y-103600000D01*
X30150000Y-103000000D01*
X30150000Y-103000000D01*
G37*
D13*
X36900000Y-78100000D03*
D11*
X37100000Y-85300000D03*
X37100000Y-82900000D03*
X37100000Y-80500000D03*
X37100000Y-87700000D03*
X37100000Y-90100000D03*
X37100000Y-92500000D03*
X37100000Y-94900000D03*
X37100000Y-97300000D03*
D13*
X36900000Y-99700000D03*
D10*
G36*
X30400000Y-101800000D02*
X43000000Y-101800000D01*
X42400000Y-102400000D01*
X31000000Y-102400000D01*
X30400000Y-101800000D01*
X30400000Y-101800000D01*
G37*
G36*
X42375000Y-76000000D02*
X31025000Y-76000000D01*
X31625000Y-75400000D01*
X41775000Y-75400000D01*
X42375000Y-76000000D01*
X42375000Y-76000000D01*
G37*
G36*
X43939949Y-78414214D02*
X41535786Y-76010051D01*
X41960051Y-75585786D01*
X44364214Y-77989949D01*
X43939949Y-78414214D01*
X43939949Y-78414214D01*
G37*
D14*
X44075000Y-89625000D03*
D10*
G36*
X31320000Y-104200000D02*
X41420000Y-104200000D01*
X40820000Y-104800000D01*
X31920000Y-104800000D01*
X31320000Y-104200000D01*
X31320000Y-104200000D01*
G37*
G36*
X44379899Y-101244365D02*
X40844365Y-104779899D01*
X40420101Y-104355635D01*
X43955635Y-100820101D01*
X44379899Y-101244365D01*
X44379899Y-101244365D01*
G37*
G36*
X67100000Y-80800000D02*
X56700000Y-80800000D01*
X57300000Y-80200000D01*
X66500000Y-80200000D01*
X67100000Y-80800000D01*
X67100000Y-80800000D01*
G37*
G36*
X68100000Y-83200000D02*
X54700000Y-83200000D01*
X55300000Y-82600000D01*
X67500000Y-82600000D01*
X68100000Y-83200000D01*
X68100000Y-83200000D01*
G37*
D11*
X61900000Y-85300000D03*
D10*
G36*
X54600000Y-106600000D02*
X69150000Y-106600000D01*
X68550000Y-107200000D01*
X55200000Y-107200000D01*
X54600000Y-106600000D01*
X54600000Y-106600000D01*
G37*
D11*
X61900000Y-94900000D03*
X61900000Y-92500000D03*
X61900000Y-87700000D03*
X61900000Y-90100000D03*
X61900000Y-99700000D03*
X61900000Y-97300000D03*
X61900000Y-102100000D03*
X61900000Y-104500000D03*
D10*
G36*
X54600076Y-82900660D02*
X57145660Y-80355076D01*
X57569924Y-80779340D01*
X55024340Y-83324924D01*
X54600076Y-82900660D01*
X54600076Y-82900660D01*
G37*
D12*
X54900000Y-95175000D03*
D10*
G36*
X55024029Y-107025665D02*
X57024435Y-109026071D01*
X56600171Y-109450335D01*
X54599765Y-107449929D01*
X55024029Y-107025665D01*
X55024029Y-107025665D01*
G37*
G36*
X56150000Y-109000000D02*
X67150000Y-109000000D01*
X66550000Y-109600000D01*
X56750000Y-109600000D01*
X56150000Y-109000000D01*
X56150000Y-109000000D01*
G37*
D13*
X62900000Y-84100000D03*
D11*
X63100000Y-91300000D03*
X63100000Y-88900000D03*
X63100000Y-86500000D03*
X63100000Y-93700000D03*
X63100000Y-96100000D03*
X63100000Y-98500000D03*
X63100000Y-100900000D03*
X63100000Y-103300000D03*
D13*
X62900000Y-105700000D03*
D10*
G36*
X56400000Y-107800000D02*
X69000000Y-107800000D01*
X68400000Y-108400000D01*
X57000000Y-108400000D01*
X56400000Y-107800000D01*
X56400000Y-107800000D01*
G37*
G36*
X68375000Y-82000000D02*
X57025000Y-82000000D01*
X57625000Y-81400000D01*
X67775000Y-81400000D01*
X68375000Y-82000000D01*
X68375000Y-82000000D01*
G37*
G36*
X69939949Y-84414214D02*
X67535786Y-82010051D01*
X67960051Y-81585786D01*
X70364214Y-83989949D01*
X69939949Y-84414214D01*
X69939949Y-84414214D01*
G37*
D14*
X70075000Y-95625000D03*
D10*
G36*
X57320000Y-110200000D02*
X67420000Y-110200000D01*
X66820000Y-110800000D01*
X57920000Y-110800000D01*
X57320000Y-110200000D01*
X57320000Y-110200000D01*
G37*
G36*
X70379899Y-107244365D02*
X66844365Y-110779899D01*
X66420101Y-110355635D01*
X69955635Y-106820101D01*
X70379899Y-107244365D01*
X70379899Y-107244365D01*
G37*
G36*
X93100000Y-88800000D02*
X82700000Y-88800000D01*
X83300000Y-88200000D01*
X92500000Y-88200000D01*
X93100000Y-88800000D01*
X93100000Y-88800000D01*
G37*
G36*
X94100000Y-91200000D02*
X80700000Y-91200000D01*
X81300000Y-90600000D01*
X93500000Y-90600000D01*
X94100000Y-91200000D01*
X94100000Y-91200000D01*
G37*
D11*
X87900000Y-93300000D03*
D10*
G36*
X80600000Y-114600000D02*
X95150000Y-114600000D01*
X94550000Y-115200000D01*
X81200000Y-115200000D01*
X80600000Y-114600000D01*
X80600000Y-114600000D01*
G37*
D11*
X87900000Y-102900000D03*
X87900000Y-100500000D03*
X87900000Y-95700000D03*
X87900000Y-98100000D03*
X87900000Y-107700000D03*
X87900000Y-105300000D03*
X87900000Y-110100000D03*
X87900000Y-112500000D03*
D10*
G36*
X80600076Y-90900660D02*
X83145660Y-88355076D01*
X83569924Y-88779340D01*
X81024340Y-91324924D01*
X80600076Y-90900660D01*
X80600076Y-90900660D01*
G37*
D12*
X80900000Y-103175000D03*
D10*
G36*
X81024029Y-115025665D02*
X83024435Y-117026071D01*
X82600171Y-117450335D01*
X80599765Y-115449929D01*
X81024029Y-115025665D01*
X81024029Y-115025665D01*
G37*
G36*
X82150000Y-117000000D02*
X93150000Y-117000000D01*
X92550000Y-117600000D01*
X82750000Y-117600000D01*
X82150000Y-117000000D01*
X82150000Y-117000000D01*
G37*
D13*
X88900000Y-92100000D03*
D11*
X89100000Y-99300000D03*
X89100000Y-96900000D03*
X89100000Y-94500000D03*
X89100000Y-101700000D03*
X89100000Y-104100000D03*
X89100000Y-106500000D03*
X89100000Y-108900000D03*
X89100000Y-111300000D03*
D13*
X88900000Y-113700000D03*
D10*
G36*
X82400000Y-115800000D02*
X95000000Y-115800000D01*
X94400000Y-116400000D01*
X83000000Y-116400000D01*
X82400000Y-115800000D01*
X82400000Y-115800000D01*
G37*
G36*
X94375000Y-90000000D02*
X83025000Y-90000000D01*
X83625000Y-89400000D01*
X93775000Y-89400000D01*
X94375000Y-90000000D01*
X94375000Y-90000000D01*
G37*
G36*
X95939949Y-92414214D02*
X93535786Y-90010051D01*
X93960051Y-89585786D01*
X96364214Y-91989949D01*
X95939949Y-92414214D01*
X95939949Y-92414214D01*
G37*
D14*
X96075000Y-103625000D03*
D10*
G36*
X83320000Y-118200000D02*
X93420000Y-118200000D01*
X92820000Y-118800000D01*
X83920000Y-118800000D01*
X83320000Y-118200000D01*
X83320000Y-118200000D01*
G37*
G36*
X96379899Y-115244365D02*
X92844365Y-118779899D01*
X92420101Y-118355635D01*
X95955635Y-114820101D01*
X96379899Y-115244365D01*
X96379899Y-115244365D01*
G37*
G36*
X50600000Y-116300000D02*
X40200000Y-116300000D01*
X40800000Y-115700000D01*
X50000000Y-115700000D01*
X50600000Y-116300000D01*
X50600000Y-116300000D01*
G37*
G36*
X51600000Y-118700000D02*
X38200000Y-118700000D01*
X38800000Y-118100000D01*
X51000000Y-118100000D01*
X51600000Y-118700000D01*
X51600000Y-118700000D01*
G37*
D11*
X45400000Y-120800000D03*
D10*
G36*
X38100000Y-142100000D02*
X52650000Y-142100000D01*
X52050000Y-142700000D01*
X38700000Y-142700000D01*
X38100000Y-142100000D01*
X38100000Y-142100000D01*
G37*
D11*
X45400000Y-130400000D03*
X45400000Y-128000000D03*
X45400000Y-123200000D03*
X45400000Y-125600000D03*
X45400000Y-135200000D03*
X45400000Y-132800000D03*
X45400000Y-137600000D03*
X45400000Y-140000000D03*
D10*
G36*
X38100076Y-118400660D02*
X40645660Y-115855076D01*
X41069924Y-116279340D01*
X38524340Y-118824924D01*
X38100076Y-118400660D01*
X38100076Y-118400660D01*
G37*
D12*
X38400000Y-130675000D03*
D10*
G36*
X38524029Y-142525665D02*
X40524435Y-144526071D01*
X40100171Y-144950335D01*
X38099765Y-142949929D01*
X38524029Y-142525665D01*
X38524029Y-142525665D01*
G37*
G36*
X39650000Y-144500000D02*
X50650000Y-144500000D01*
X50050000Y-145100000D01*
X40250000Y-145100000D01*
X39650000Y-144500000D01*
X39650000Y-144500000D01*
G37*
D13*
X46400000Y-119600000D03*
D11*
X46600000Y-126800000D03*
X46600000Y-124400000D03*
X46600000Y-122000000D03*
X46600000Y-129200000D03*
X46600000Y-131600000D03*
X46600000Y-134000000D03*
X46600000Y-136400000D03*
X46600000Y-138800000D03*
D13*
X46400000Y-141200000D03*
D10*
G36*
X39900000Y-143300000D02*
X52500000Y-143300000D01*
X51900000Y-143900000D01*
X40500000Y-143900000D01*
X39900000Y-143300000D01*
X39900000Y-143300000D01*
G37*
G36*
X51875000Y-117500000D02*
X40525000Y-117500000D01*
X41125000Y-116900000D01*
X51275000Y-116900000D01*
X51875000Y-117500000D01*
X51875000Y-117500000D01*
G37*
G36*
X53439949Y-119914214D02*
X51035786Y-117510051D01*
X51460051Y-117085786D01*
X53864214Y-119489949D01*
X53439949Y-119914214D01*
X53439949Y-119914214D01*
G37*
D14*
X53575000Y-131125000D03*
D10*
G36*
X40820000Y-145700000D02*
X50920000Y-145700000D01*
X50320000Y-146300000D01*
X41420000Y-146300000D01*
X40820000Y-145700000D01*
X40820000Y-145700000D01*
G37*
G36*
X53879899Y-142744365D02*
X50344365Y-146279899D01*
X49920101Y-145855635D01*
X53455635Y-142320101D01*
X53879899Y-142744365D01*
X53879899Y-142744365D01*
G37*
G36*
X73100000Y-128800000D02*
X62700000Y-128800000D01*
X63300000Y-128200000D01*
X72500000Y-128200000D01*
X73100000Y-128800000D01*
X73100000Y-128800000D01*
G37*
G36*
X74100000Y-131200000D02*
X60700000Y-131200000D01*
X61300000Y-130600000D01*
X73500000Y-130600000D01*
X74100000Y-131200000D01*
X74100000Y-131200000D01*
G37*
D11*
X67900000Y-133300000D03*
D10*
G36*
X60600000Y-154600000D02*
X75150000Y-154600000D01*
X74550000Y-155200000D01*
X61200000Y-155200000D01*
X60600000Y-154600000D01*
X60600000Y-154600000D01*
G37*
D11*
X67900000Y-142900000D03*
X67900000Y-140500000D03*
X67900000Y-135700000D03*
X67900000Y-138100000D03*
X67900000Y-147700000D03*
X67900000Y-145300000D03*
X67900000Y-150100000D03*
X67900000Y-152500000D03*
D10*
G36*
X60600076Y-130900660D02*
X63145660Y-128355076D01*
X63569924Y-128779340D01*
X61024340Y-131324924D01*
X60600076Y-130900660D01*
X60600076Y-130900660D01*
G37*
D12*
X60900000Y-143175000D03*
D10*
G36*
X61024029Y-155025665D02*
X63024435Y-157026071D01*
X62600171Y-157450335D01*
X60599765Y-155449929D01*
X61024029Y-155025665D01*
X61024029Y-155025665D01*
G37*
G36*
X62150000Y-157000000D02*
X73150000Y-157000000D01*
X72550000Y-157600000D01*
X62750000Y-157600000D01*
X62150000Y-157000000D01*
X62150000Y-157000000D01*
G37*
D13*
X68900000Y-132100000D03*
D11*
X69100000Y-139300000D03*
X69100000Y-136900000D03*
X69100000Y-134500000D03*
X69100000Y-141700000D03*
X69100000Y-144100000D03*
X69100000Y-146500000D03*
X69100000Y-148900000D03*
X69100000Y-151300000D03*
D13*
X68900000Y-153700000D03*
D10*
G36*
X62400000Y-155800000D02*
X75000000Y-155800000D01*
X74400000Y-156400000D01*
X63000000Y-156400000D01*
X62400000Y-155800000D01*
X62400000Y-155800000D01*
G37*
G36*
X74375000Y-130000000D02*
X63025000Y-130000000D01*
X63625000Y-129400000D01*
X73775000Y-129400000D01*
X74375000Y-130000000D01*
X74375000Y-130000000D01*
G37*
G36*
X75939949Y-132414214D02*
X73535786Y-130010051D01*
X73960051Y-129585786D01*
X76364214Y-131989949D01*
X75939949Y-132414214D01*
X75939949Y-132414214D01*
G37*
D14*
X76075000Y-143625000D03*
D10*
G36*
X63320000Y-158200000D02*
X73420000Y-158200000D01*
X72820000Y-158800000D01*
X63920000Y-158800000D01*
X63320000Y-158200000D01*
X63320000Y-158200000D01*
G37*
G36*
X76379899Y-155244365D02*
X72844365Y-158779899D01*
X72420101Y-158355635D01*
X75955635Y-154820101D01*
X76379899Y-155244365D01*
X76379899Y-155244365D01*
G37*
G36*
X95600000Y-141300000D02*
X85200000Y-141300000D01*
X85800000Y-140700000D01*
X95000000Y-140700000D01*
X95600000Y-141300000D01*
X95600000Y-141300000D01*
G37*
G36*
X96600000Y-143700000D02*
X83200000Y-143700000D01*
X83800000Y-143100000D01*
X96000000Y-143100000D01*
X96600000Y-143700000D01*
X96600000Y-143700000D01*
G37*
D11*
X90400000Y-145800000D03*
D10*
G36*
X83100000Y-167100000D02*
X97650000Y-167100000D01*
X97050000Y-167700000D01*
X83700000Y-167700000D01*
X83100000Y-167100000D01*
X83100000Y-167100000D01*
G37*
D11*
X90400000Y-155400000D03*
X90400000Y-153000000D03*
X90400000Y-148200000D03*
X90400000Y-150600000D03*
X90400000Y-160200000D03*
X90400000Y-157800000D03*
X90400000Y-162600000D03*
X90400000Y-165000000D03*
D10*
G36*
X83100076Y-143400660D02*
X85645660Y-140855076D01*
X86069924Y-141279340D01*
X83524340Y-143824924D01*
X83100076Y-143400660D01*
X83100076Y-143400660D01*
G37*
D12*
X83400000Y-155675000D03*
D10*
G36*
X83524029Y-167525665D02*
X85524435Y-169526071D01*
X85100171Y-169950335D01*
X83099765Y-167949929D01*
X83524029Y-167525665D01*
X83524029Y-167525665D01*
G37*
G36*
X84650000Y-169500000D02*
X95650000Y-169500000D01*
X95050000Y-170100000D01*
X85250000Y-170100000D01*
X84650000Y-169500000D01*
X84650000Y-169500000D01*
G37*
D13*
X91400000Y-144600000D03*
D11*
X91600000Y-151800000D03*
X91600000Y-149400000D03*
X91600000Y-147000000D03*
X91600000Y-154200000D03*
X91600000Y-156600000D03*
X91600000Y-159000000D03*
X91600000Y-161400000D03*
X91600000Y-163800000D03*
D13*
X91400000Y-166200000D03*
D10*
G36*
X84900000Y-168300000D02*
X97500000Y-168300000D01*
X96900000Y-168900000D01*
X85500000Y-168900000D01*
X84900000Y-168300000D01*
X84900000Y-168300000D01*
G37*
G36*
X96875000Y-142500000D02*
X85525000Y-142500000D01*
X86125000Y-141900000D01*
X96275000Y-141900000D01*
X96875000Y-142500000D01*
X96875000Y-142500000D01*
G37*
G36*
X98439949Y-144914214D02*
X96035786Y-142510051D01*
X96460051Y-142085786D01*
X98864214Y-144489949D01*
X98439949Y-144914214D01*
X98439949Y-144914214D01*
G37*
D14*
X98575000Y-156125000D03*
D10*
G36*
X85820000Y-170700000D02*
X95920000Y-170700000D01*
X95320000Y-171300000D01*
X86420000Y-171300000D01*
X85820000Y-170700000D01*
X85820000Y-170700000D01*
G37*
G36*
X98879899Y-167744365D02*
X95344365Y-171279899D01*
X94920101Y-170855635D01*
X98455635Y-167320101D01*
X98879899Y-167744365D01*
X98879899Y-167744365D01*
G37*
G36*
X90100000Y-189800000D02*
X79700000Y-189800000D01*
X80300000Y-189200000D01*
X89500000Y-189200000D01*
X90100000Y-189800000D01*
X90100000Y-189800000D01*
G37*
G36*
X91100000Y-192200000D02*
X77700000Y-192200000D01*
X78300000Y-191600000D01*
X90500000Y-191600000D01*
X91100000Y-192200000D01*
X91100000Y-192200000D01*
G37*
D11*
X84900000Y-194300000D03*
D10*
G36*
X77600000Y-215600000D02*
X92150000Y-215600000D01*
X91550000Y-216200000D01*
X78200000Y-216200000D01*
X77600000Y-215600000D01*
X77600000Y-215600000D01*
G37*
D11*
X84900000Y-203900000D03*
X84900000Y-201500000D03*
X84900000Y-196700000D03*
X84900000Y-199100000D03*
X84900000Y-208700000D03*
X84900000Y-206300000D03*
X84900000Y-211100000D03*
X84900000Y-213500000D03*
D10*
G36*
X77600076Y-191900660D02*
X80145660Y-189355076D01*
X80569924Y-189779340D01*
X78024340Y-192324924D01*
X77600076Y-191900660D01*
X77600076Y-191900660D01*
G37*
D12*
X77900000Y-204175000D03*
D10*
G36*
X78024029Y-216025665D02*
X80024435Y-218026071D01*
X79600171Y-218450335D01*
X77599765Y-216449929D01*
X78024029Y-216025665D01*
X78024029Y-216025665D01*
G37*
G36*
X79150000Y-218000000D02*
X90150000Y-218000000D01*
X89550000Y-218600000D01*
X79750000Y-218600000D01*
X79150000Y-218000000D01*
X79150000Y-218000000D01*
G37*
D13*
X85900000Y-193100000D03*
D11*
X86100000Y-200300000D03*
X86100000Y-197900000D03*
X86100000Y-195500000D03*
X86100000Y-202700000D03*
X86100000Y-205100000D03*
X86100000Y-207500000D03*
X86100000Y-209900000D03*
X86100000Y-212300000D03*
D13*
X85900000Y-214700000D03*
D10*
G36*
X79400000Y-216800000D02*
X92000000Y-216800000D01*
X91400000Y-217400000D01*
X80000000Y-217400000D01*
X79400000Y-216800000D01*
X79400000Y-216800000D01*
G37*
G36*
X91375000Y-191000000D02*
X80025000Y-191000000D01*
X80625000Y-190400000D01*
X90775000Y-190400000D01*
X91375000Y-191000000D01*
X91375000Y-191000000D01*
G37*
G36*
X92939949Y-193414214D02*
X90535786Y-191010051D01*
X90960051Y-190585786D01*
X93364214Y-192989949D01*
X92939949Y-193414214D01*
X92939949Y-193414214D01*
G37*
D14*
X93075000Y-204625000D03*
D10*
G36*
X80320000Y-219200000D02*
X90420000Y-219200000D01*
X89820000Y-219800000D01*
X80920000Y-219800000D01*
X80320000Y-219200000D01*
X80320000Y-219200000D01*
G37*
G36*
X93379899Y-216244365D02*
X89844365Y-219779899D01*
X89420101Y-219355635D01*
X92955635Y-215820101D01*
X93379899Y-216244365D01*
X93379899Y-216244365D01*
G37*
G36*
X57400000Y-241500000D02*
X57400000Y-251900000D01*
X56800000Y-251300000D01*
X56800000Y-242100000D01*
X57400000Y-241500000D01*
X57400000Y-241500000D01*
G37*
G36*
X59800000Y-240500000D02*
X59800000Y-253900000D01*
X59200000Y-253300000D01*
X59200000Y-241100000D01*
X59800000Y-240500000D01*
X59800000Y-240500000D01*
G37*
D15*
X61900000Y-246700000D03*
D10*
G36*
X83200000Y-254000000D02*
X83200000Y-239450000D01*
X83800000Y-240050000D01*
X83800000Y-253400000D01*
X83200000Y-254000000D01*
X83200000Y-254000000D01*
G37*
D15*
X71500000Y-246700000D03*
X69100000Y-246700000D03*
X64300000Y-246700000D03*
X66700000Y-246700000D03*
X76300000Y-246700000D03*
X73900000Y-246700000D03*
X78700000Y-246700000D03*
X81100000Y-246700000D03*
D10*
G36*
X59500660Y-253999924D02*
X56955076Y-251454340D01*
X57379340Y-251030076D01*
X59924924Y-253575660D01*
X59500660Y-253999924D01*
X59500660Y-253999924D01*
G37*
D16*
X71775000Y-253700000D03*
D10*
G36*
X83625665Y-253575971D02*
X85626071Y-251575565D01*
X86050335Y-251999829D01*
X84049929Y-254000235D01*
X83625665Y-253575971D01*
X83625665Y-253575971D01*
G37*
G36*
X85600000Y-252450000D02*
X85600000Y-241450000D01*
X86200000Y-242050000D01*
X86200000Y-251850000D01*
X85600000Y-252450000D01*
X85600000Y-252450000D01*
G37*
D17*
X60700000Y-245700000D03*
D15*
X67900000Y-245500000D03*
X65500000Y-245500000D03*
X63100000Y-245500000D03*
X70300000Y-245500000D03*
X72700000Y-245500000D03*
X75100000Y-245500000D03*
X77500000Y-245500000D03*
X79900000Y-245500000D03*
D17*
X82300000Y-245700000D03*
D10*
G36*
X84400000Y-252200000D02*
X84400000Y-239600000D01*
X85000000Y-240200000D01*
X85000000Y-251600000D01*
X84400000Y-252200000D01*
X84400000Y-252200000D01*
G37*
G36*
X58600000Y-240225000D02*
X58600000Y-251575000D01*
X58000000Y-250975000D01*
X58000000Y-240825000D01*
X58600000Y-240225000D01*
X58600000Y-240225000D01*
G37*
G36*
X61014214Y-238660051D02*
X58610051Y-241064214D01*
X58185786Y-240639949D01*
X60589949Y-238235786D01*
X61014214Y-238660051D01*
X61014214Y-238660051D01*
G37*
D18*
X72225000Y-238525000D03*
D10*
G36*
X86800000Y-251280000D02*
X86800000Y-241180000D01*
X87400000Y-241780000D01*
X87400000Y-250680000D01*
X86800000Y-251280000D01*
X86800000Y-251280000D01*
G37*
G36*
X83844365Y-238220101D02*
X87379899Y-241755635D01*
X86955635Y-242179899D01*
X83420101Y-238644365D01*
X83844365Y-238220101D01*
X83844365Y-238220101D01*
G37*
G36*
X89100000Y-260800000D02*
X78700000Y-260800000D01*
X79300000Y-260200000D01*
X88500000Y-260200000D01*
X89100000Y-260800000D01*
X89100000Y-260800000D01*
G37*
G36*
X90100000Y-263200000D02*
X76700000Y-263200000D01*
X77300000Y-262600000D01*
X89500000Y-262600000D01*
X90100000Y-263200000D01*
X90100000Y-263200000D01*
G37*
D11*
X83900000Y-265300000D03*
D10*
G36*
X76600000Y-286600000D02*
X91150000Y-286600000D01*
X90550000Y-287200000D01*
X77200000Y-287200000D01*
X76600000Y-286600000D01*
X76600000Y-286600000D01*
G37*
D11*
X83900000Y-274900000D03*
X83900000Y-272500000D03*
X83900000Y-267700000D03*
X83900000Y-270100000D03*
X83900000Y-279700000D03*
X83900000Y-277300000D03*
X83900000Y-282100000D03*
X83900000Y-284500000D03*
D10*
G36*
X76600076Y-262900660D02*
X79145660Y-260355076D01*
X79569924Y-260779340D01*
X77024340Y-263324924D01*
X76600076Y-262900660D01*
X76600076Y-262900660D01*
G37*
D12*
X76900000Y-275175000D03*
D10*
G36*
X77024029Y-287025665D02*
X79024435Y-289026071D01*
X78600171Y-289450335D01*
X76599765Y-287449929D01*
X77024029Y-287025665D01*
X77024029Y-287025665D01*
G37*
G36*
X78150000Y-289000000D02*
X89150000Y-289000000D01*
X88550000Y-289600000D01*
X78750000Y-289600000D01*
X78150000Y-289000000D01*
X78150000Y-289000000D01*
G37*
D13*
X84900000Y-264100000D03*
D11*
X85100000Y-271300000D03*
X85100000Y-268900000D03*
X85100000Y-266500000D03*
X85100000Y-273700000D03*
X85100000Y-276100000D03*
X85100000Y-278500000D03*
X85100000Y-280900000D03*
X85100000Y-283300000D03*
D13*
X84900000Y-285700000D03*
D10*
G36*
X78400000Y-287800000D02*
X91000000Y-287800000D01*
X90400000Y-288400000D01*
X79000000Y-288400000D01*
X78400000Y-287800000D01*
X78400000Y-287800000D01*
G37*
G36*
X90375000Y-262000000D02*
X79025000Y-262000000D01*
X79625000Y-261400000D01*
X89775000Y-261400000D01*
X90375000Y-262000000D01*
X90375000Y-262000000D01*
G37*
G36*
X91939949Y-264414214D02*
X89535786Y-262010051D01*
X89960051Y-261585786D01*
X92364214Y-263989949D01*
X91939949Y-264414214D01*
X91939949Y-264414214D01*
G37*
D14*
X92075000Y-275625000D03*
D10*
G36*
X79320000Y-290200000D02*
X89420000Y-290200000D01*
X88820000Y-290800000D01*
X79920000Y-290800000D01*
X79320000Y-290200000D01*
X79320000Y-290200000D01*
G37*
G36*
X92379899Y-287244365D02*
X88844365Y-290779899D01*
X88420101Y-290355635D01*
X91955635Y-286820101D01*
X92379899Y-287244365D01*
X92379899Y-287244365D01*
G37*
G36*
X64100000Y-260800000D02*
X53700000Y-260800000D01*
X54300000Y-260200000D01*
X63500000Y-260200000D01*
X64100000Y-260800000D01*
X64100000Y-260800000D01*
G37*
G36*
X65100000Y-263200000D02*
X51700000Y-263200000D01*
X52300000Y-262600000D01*
X64500000Y-262600000D01*
X65100000Y-263200000D01*
X65100000Y-263200000D01*
G37*
D11*
X58900000Y-265300000D03*
D10*
G36*
X51600000Y-286600000D02*
X66150000Y-286600000D01*
X65550000Y-287200000D01*
X52200000Y-287200000D01*
X51600000Y-286600000D01*
X51600000Y-286600000D01*
G37*
D11*
X58900000Y-274900000D03*
X58900000Y-272500000D03*
X58900000Y-267700000D03*
X58900000Y-270100000D03*
X58900000Y-279700000D03*
X58900000Y-277300000D03*
X58900000Y-282100000D03*
X58900000Y-284500000D03*
D10*
G36*
X51600076Y-262900660D02*
X54145660Y-260355076D01*
X54569924Y-260779340D01*
X52024340Y-263324924D01*
X51600076Y-262900660D01*
X51600076Y-262900660D01*
G37*
D12*
X51900000Y-275175000D03*
D10*
G36*
X52024029Y-287025665D02*
X54024435Y-289026071D01*
X53600171Y-289450335D01*
X51599765Y-287449929D01*
X52024029Y-287025665D01*
X52024029Y-287025665D01*
G37*
G36*
X53150000Y-289000000D02*
X64150000Y-289000000D01*
X63550000Y-289600000D01*
X53750000Y-289600000D01*
X53150000Y-289000000D01*
X53150000Y-289000000D01*
G37*
D13*
X59900000Y-264100000D03*
D11*
X60100000Y-271300000D03*
X60100000Y-268900000D03*
X60100000Y-266500000D03*
X60100000Y-273700000D03*
X60100000Y-276100000D03*
X60100000Y-278500000D03*
X60100000Y-280900000D03*
X60100000Y-283300000D03*
D13*
X59900000Y-285700000D03*
D10*
G36*
X53400000Y-287800000D02*
X66000000Y-287800000D01*
X65400000Y-288400000D01*
X54000000Y-288400000D01*
X53400000Y-287800000D01*
X53400000Y-287800000D01*
G37*
G36*
X65375000Y-262000000D02*
X54025000Y-262000000D01*
X54625000Y-261400000D01*
X64775000Y-261400000D01*
X65375000Y-262000000D01*
X65375000Y-262000000D01*
G37*
G36*
X66939949Y-264414214D02*
X64535786Y-262010051D01*
X64960051Y-261585786D01*
X67364214Y-263989949D01*
X66939949Y-264414214D01*
X66939949Y-264414214D01*
G37*
D14*
X67075000Y-275625000D03*
D10*
G36*
X54320000Y-290200000D02*
X64420000Y-290200000D01*
X63820000Y-290800000D01*
X54920000Y-290800000D01*
X54320000Y-290200000D01*
X54320000Y-290200000D01*
G37*
G36*
X67379899Y-287244365D02*
X63844365Y-290779899D01*
X63420101Y-290355635D01*
X66955635Y-286820101D01*
X67379899Y-287244365D01*
X67379899Y-287244365D01*
G37*
D19*
X59600000Y-191020000D03*
X56000000Y-191020000D03*
X59600000Y-189750000D03*
X56000000Y-189750000D03*
X59600000Y-188480000D03*
X56000000Y-188480000D03*
X59600000Y-187210000D03*
X56000000Y-187210000D03*
X59600000Y-185940000D03*
X56000000Y-185940000D03*
X59600000Y-184670000D03*
X56000000Y-184670000D03*
X59600000Y-183400000D03*
X56000000Y-183400000D03*
X59600000Y-182130000D03*
X56000000Y-182130000D03*
X59600000Y-180860000D03*
X56000000Y-180860000D03*
X59600000Y-179590000D03*
X56000000Y-179590000D03*
X59600000Y-178320000D03*
X56000000Y-178320000D03*
X59600000Y-177050000D03*
X56000000Y-177050000D03*
X59600000Y-175780000D03*
X56000000Y-175780000D03*
D20*
X59600000Y-183400000D02*
X63200000Y-183400000D01*
X61812100Y-159112100D02*
X61812100Y-156238000D01*
X62900000Y-160200000D02*
X61812100Y-159112100D01*
X74800000Y-160200000D02*
X62900000Y-160200000D01*
X76200000Y-161600000D02*
X74800000Y-160200000D01*
X76200000Y-170400000D02*
X76200000Y-161600000D01*
X63200000Y-183400000D02*
X76200000Y-170400000D01*
X53085000Y-261840000D02*
X53085000Y-201715000D01*
X59600000Y-195200000D02*
X59600000Y-191020000D01*
X53085000Y-201715000D02*
X59600000Y-195200000D01*
X59600000Y-189750000D02*
X61750000Y-189750000D01*
X57100000Y-231300000D02*
X57100000Y-246700000D01*
X62400000Y-226000000D02*
X57100000Y-231300000D01*
X62400000Y-190400000D02*
X62400000Y-226000000D01*
X61750000Y-189750000D02*
X62400000Y-190400000D01*
X59600000Y-188480000D02*
X62480000Y-188480000D01*
X90300000Y-254100000D02*
X83900000Y-260500000D01*
X90300000Y-239600000D02*
X90300000Y-254100000D01*
X86100000Y-235400000D02*
X90300000Y-239600000D01*
X75500000Y-235400000D02*
X86100000Y-235400000D01*
X65700000Y-225600000D02*
X75500000Y-235400000D01*
X65700000Y-191700000D02*
X65700000Y-225600000D01*
X62480000Y-188480000D02*
X65700000Y-191700000D01*
X59600000Y-187210000D02*
X75455000Y-187210000D01*
X75455000Y-187210000D02*
X79085000Y-190840000D01*
X59600000Y-185940000D02*
X65660000Y-185940000D01*
X82862000Y-168738000D02*
X84312100Y-168738000D01*
X65660000Y-185940000D02*
X82862000Y-168738000D01*
X56000000Y-178320000D02*
X56000000Y-177050000D01*
X56000000Y-178320000D02*
X56000000Y-179590000D01*
X56000000Y-182130000D02*
X56000000Y-180860000D01*
X56000000Y-179590000D02*
X56000000Y-180860000D01*
X56000000Y-182130000D02*
X56000000Y-183400000D01*
X56000000Y-183400000D02*
X56000000Y-184670000D01*
X56000000Y-185940000D02*
X56000000Y-184670000D01*
X56000000Y-185940000D02*
X56000000Y-187210000D01*
X56000000Y-188480000D02*
X56000000Y-187210000D01*
X56000000Y-188480000D02*
X56000000Y-189750000D01*
X56000000Y-191020000D02*
X56000000Y-189750000D01*
X59370000Y-290500000D02*
X59370000Y-292030000D01*
X56000000Y-194200000D02*
X56000000Y-191020000D01*
X50200000Y-200000000D02*
X56000000Y-194200000D01*
X50200000Y-288000000D02*
X50200000Y-200000000D01*
X55000000Y-292800000D02*
X50200000Y-288000000D01*
X58600000Y-292800000D02*
X55000000Y-292800000D01*
X59370000Y-292030000D02*
X58600000Y-292800000D01*
D21*
X74950000Y-131000000D02*
X74950000Y-100500000D01*
X74950000Y-100500000D02*
X70075000Y-95625000D01*
X65950000Y-263000000D02*
X65950000Y-258650000D01*
X87100000Y-254000000D02*
X87100000Y-246230000D01*
X85600000Y-255500000D02*
X87100000Y-254000000D01*
X69100000Y-255500000D02*
X85600000Y-255500000D01*
X65950000Y-258650000D02*
X69100000Y-255500000D01*
X84370000Y-290500000D02*
X76100000Y-290500000D01*
X74400000Y-288800000D02*
X65400000Y-288800000D01*
X76100000Y-290500000D02*
X74400000Y-288800000D01*
X91400000Y-217800000D02*
X93900000Y-217800000D01*
X98100000Y-269600000D02*
X92075000Y-275625000D01*
X98100000Y-222000000D02*
X98100000Y-269600000D01*
X93900000Y-217800000D02*
X98100000Y-222000000D01*
X91950000Y-192000000D02*
X91950000Y-172080000D01*
X91950000Y-172080000D02*
X90870000Y-171000000D01*
X97450000Y-143500000D02*
X97450000Y-119850000D01*
X97450000Y-119850000D02*
X94400000Y-116800000D01*
X94950000Y-91000000D02*
X94950000Y-72700000D01*
X94950000Y-72700000D02*
X87100000Y-64850000D01*
X85944088Y-56516107D02*
X85944088Y-56844088D01*
X85944088Y-56844088D02*
X87100000Y-58000000D01*
X87100000Y-58000000D02*
X87100000Y-64850000D01*
X87100000Y-64850000D02*
X68950000Y-83000000D01*
X52450000Y-118500000D02*
X52450000Y-116350000D01*
X42400000Y-106300000D02*
X42400000Y-102800000D01*
X52450000Y-116350000D02*
X42400000Y-106300000D01*
X42950000Y-77000000D02*
X42950000Y-74850000D01*
X32123682Y-64023682D02*
X32123682Y-58737153D01*
X42950000Y-74850000D02*
X32123682Y-64023682D01*
X47712413Y-35146099D02*
X47712413Y-34387587D01*
X58870852Y-34000000D02*
X63801452Y-38930600D01*
X48100000Y-34000000D02*
X58870852Y-34000000D01*
X47712413Y-34387587D02*
X48100000Y-34000000D01*
D20*
X59600000Y-184670000D02*
X63630000Y-184670000D01*
X81300000Y-116750100D02*
X81812100Y-116238000D01*
X81300000Y-167000000D02*
X81300000Y-116750100D01*
X63630000Y-184670000D02*
X81300000Y-167000000D01*
X58100000Y-113300000D02*
X58100000Y-112800000D01*
X62070000Y-182130000D02*
X74500000Y-169700000D01*
X74500000Y-169700000D02*
X74500000Y-163600000D01*
X74500000Y-163600000D02*
X72800000Y-161900000D01*
X72800000Y-161900000D02*
X62000000Y-161900000D01*
X62000000Y-161900000D02*
X58100000Y-158000000D01*
X58100000Y-158000000D02*
X58100000Y-113300000D01*
X59600000Y-182130000D02*
X62070000Y-182130000D01*
X55200000Y-108850100D02*
X55812100Y-108238000D01*
X55200000Y-109900000D02*
X55200000Y-108850100D01*
X58100000Y-112800000D02*
X55200000Y-109900000D01*
X59600000Y-180860000D02*
X61840000Y-180860000D01*
X68826152Y-73800000D02*
X81122532Y-61503620D01*
X59800000Y-73800000D02*
X68826152Y-73800000D01*
X53300000Y-80300000D02*
X59800000Y-73800000D01*
X53300000Y-109600000D02*
X53300000Y-80300000D01*
X57100000Y-113400000D02*
X53300000Y-109600000D01*
X57100000Y-158900000D02*
X57100000Y-113400000D01*
X61400000Y-163200000D02*
X57100000Y-158900000D01*
X70600000Y-163200000D02*
X61400000Y-163200000D01*
X73200000Y-165800000D02*
X70600000Y-163200000D01*
X73200000Y-169500000D02*
X73200000Y-165800000D01*
X61840000Y-180860000D02*
X73200000Y-169500000D01*
X59600000Y-179590000D02*
X61810000Y-179590000D01*
X52100000Y-72511202D02*
X43816084Y-64227286D01*
X52100000Y-110200000D02*
X52100000Y-72511202D01*
X56000000Y-114100000D02*
X52100000Y-110200000D01*
X56000000Y-159900000D02*
X56000000Y-114100000D01*
X60500000Y-164400000D02*
X56000000Y-159900000D01*
X69000000Y-164400000D02*
X60500000Y-164400000D01*
X71600000Y-167000000D02*
X69000000Y-164400000D01*
X71600000Y-169800000D02*
X71600000Y-167000000D01*
X61810000Y-179590000D02*
X71600000Y-169800000D01*
X41500000Y-147600000D02*
X38800000Y-144900000D01*
X59800000Y-165900000D02*
X41500000Y-147600000D01*
X67300000Y-165900000D02*
X59800000Y-165900000D01*
X69600000Y-168200000D02*
X67300000Y-165900000D01*
X69600000Y-170500000D02*
X69600000Y-168200000D01*
X61780000Y-178320000D02*
X69600000Y-170500000D01*
X59600000Y-178320000D02*
X61780000Y-178320000D01*
X38800000Y-144900000D02*
X39312100Y-143738000D01*
X37700000Y-146100000D02*
X35500000Y-138100000D01*
X61550000Y-177050000D02*
X63000000Y-175600000D01*
X63000000Y-175600000D02*
X63000000Y-171400000D01*
X63000000Y-171400000D02*
X37700000Y-146100000D01*
X35500000Y-138100000D02*
X35500000Y-115400000D01*
X35500000Y-115400000D02*
X29812100Y-109712100D01*
X29812100Y-102238000D02*
X29812100Y-109712100D01*
X61550000Y-177050000D02*
X59600000Y-177050000D01*
M02*
