G04 #@! TF.FileFunction,Legend,Top*
%FSLAX46Y46*%
G04 Gerber Fmt 4.6, Leading zero omitted, Abs format (unit mm)*
G04 Created by KiCad (PCBNEW 4.0.6) date 04/30/18 20:45:13*
%MOMM*%
%LPD*%
G01*
G04 APERTURE LIST*
%ADD10C,0.100000*%
%ADD11C,0.300000*%
%ADD12C,0.010000*%
%ADD13C,0.150000*%
G04 APERTURE END LIST*
D10*
D11*
X57485715Y-74678571D02*
X56985715Y-73964286D01*
X56628572Y-74678571D02*
X56628572Y-73178571D01*
X57200000Y-73178571D01*
X57342858Y-73250000D01*
X57414286Y-73321429D01*
X57485715Y-73464286D01*
X57485715Y-73678571D01*
X57414286Y-73821429D01*
X57342858Y-73892857D01*
X57200000Y-73964286D01*
X56628572Y-73964286D01*
X58700000Y-74607143D02*
X58557143Y-74678571D01*
X58271429Y-74678571D01*
X58128572Y-74607143D01*
X58057143Y-74464286D01*
X58057143Y-73892857D01*
X58128572Y-73750000D01*
X58271429Y-73678571D01*
X58557143Y-73678571D01*
X58700000Y-73750000D01*
X58771429Y-73892857D01*
X58771429Y-74035714D01*
X58057143Y-74178571D01*
X59271429Y-73678571D02*
X59628572Y-74678571D01*
X59985714Y-73678571D01*
X60557143Y-74535714D02*
X60628571Y-74607143D01*
X60557143Y-74678571D01*
X60485714Y-74607143D01*
X60557143Y-74535714D01*
X60557143Y-74678571D01*
X60557143Y-73750000D02*
X60628571Y-73821429D01*
X60557143Y-73892857D01*
X60485714Y-73821429D01*
X60557143Y-73750000D01*
X60557143Y-73892857D01*
X63200000Y-74678571D02*
X62342857Y-74678571D01*
X62771429Y-74678571D02*
X62771429Y-73178571D01*
X62628572Y-73392857D01*
X62485714Y-73535714D01*
X62342857Y-73607143D01*
X63842857Y-74535714D02*
X63914285Y-74607143D01*
X63842857Y-74678571D01*
X63771428Y-74607143D01*
X63842857Y-74535714D01*
X63842857Y-74678571D01*
X64842857Y-73178571D02*
X64985714Y-73178571D01*
X65128571Y-73250000D01*
X65200000Y-73321429D01*
X65271429Y-73464286D01*
X65342857Y-73750000D01*
X65342857Y-74107143D01*
X65271429Y-74392857D01*
X65200000Y-74535714D01*
X65128571Y-74607143D01*
X64985714Y-74678571D01*
X64842857Y-74678571D01*
X64700000Y-74607143D01*
X64628571Y-74535714D01*
X64557143Y-74392857D01*
X64485714Y-74107143D01*
X64485714Y-73750000D01*
X64557143Y-73464286D01*
X64628571Y-73321429D01*
X64700000Y-73250000D01*
X64842857Y-73178571D01*
X66842857Y-74678571D02*
X66342857Y-73964286D01*
X65985714Y-74678571D02*
X65985714Y-73178571D01*
X66557142Y-73178571D01*
X66700000Y-73250000D01*
X66771428Y-73321429D01*
X66842857Y-73464286D01*
X66842857Y-73678571D01*
X66771428Y-73821429D01*
X66700000Y-73892857D01*
X66557142Y-73964286D01*
X65985714Y-73964286D01*
D12*
G36*
X72027347Y-114083686D02*
X72182972Y-114087883D01*
X72336381Y-114094818D01*
X72484841Y-114104432D01*
X72625620Y-114116666D01*
X72755986Y-114131460D01*
X72806486Y-114138351D01*
X72998005Y-114171230D01*
X73178114Y-114213035D01*
X73346893Y-114263824D01*
X73504423Y-114323653D01*
X73650782Y-114392579D01*
X73786050Y-114470660D01*
X73910306Y-114557952D01*
X74023632Y-114654513D01*
X74126105Y-114760399D01*
X74217805Y-114875668D01*
X74298813Y-115000376D01*
X74369208Y-115134580D01*
X74429069Y-115278338D01*
X74439398Y-115307135D01*
X74476300Y-115427726D01*
X74506783Y-115559260D01*
X74530531Y-115699511D01*
X74547229Y-115846253D01*
X74556559Y-115997260D01*
X74558286Y-116144543D01*
X74558235Y-116206641D01*
X74559886Y-116254448D01*
X74563237Y-116287916D01*
X74565855Y-116300377D01*
X74569534Y-116316134D01*
X74572345Y-116335185D01*
X74574287Y-116358865D01*
X74575363Y-116388509D01*
X74575575Y-116425454D01*
X74574923Y-116471034D01*
X74573410Y-116526586D01*
X74571037Y-116593444D01*
X74567805Y-116672946D01*
X74566343Y-116706971D01*
X74564667Y-116748882D01*
X74563161Y-116794089D01*
X74561818Y-116843429D01*
X74560630Y-116897740D01*
X74559590Y-116957858D01*
X74558691Y-117024620D01*
X74557927Y-117098864D01*
X74557290Y-117181427D01*
X74556773Y-117273146D01*
X74556369Y-117374857D01*
X74556071Y-117487399D01*
X74555872Y-117611608D01*
X74555765Y-117748322D01*
X74555742Y-117898376D01*
X74555756Y-117962457D01*
X74555875Y-118091646D01*
X74556152Y-118222178D01*
X74556577Y-118353241D01*
X74557139Y-118484023D01*
X74557830Y-118613710D01*
X74558641Y-118741490D01*
X74559561Y-118866552D01*
X74560582Y-118988082D01*
X74561694Y-119105267D01*
X74562887Y-119217296D01*
X74564153Y-119323356D01*
X74565481Y-119422634D01*
X74566862Y-119514318D01*
X74568287Y-119597595D01*
X74569747Y-119671653D01*
X74571232Y-119735680D01*
X74572732Y-119788862D01*
X74574238Y-119830387D01*
X74575741Y-119859444D01*
X74577231Y-119875218D01*
X74577993Y-119877898D01*
X74587680Y-119879050D01*
X74609158Y-119876705D01*
X74640270Y-119871373D01*
X74678856Y-119863566D01*
X74722759Y-119853793D01*
X74769820Y-119842566D01*
X74817881Y-119830396D01*
X74864784Y-119817794D01*
X74908370Y-119805270D01*
X74946482Y-119793336D01*
X74970252Y-119785050D01*
X75066413Y-119744391D01*
X75151221Y-119698120D01*
X75224086Y-119646689D01*
X75284418Y-119590552D01*
X75331625Y-119530161D01*
X75353972Y-119490923D01*
X75379429Y-119439286D01*
X75469934Y-118503114D01*
X75481072Y-118387815D01*
X75491817Y-118276405D01*
X75502086Y-118169748D01*
X75511798Y-118068709D01*
X75520869Y-117974153D01*
X75529217Y-117886945D01*
X75536760Y-117807950D01*
X75543414Y-117738032D01*
X75549097Y-117678057D01*
X75553728Y-117628890D01*
X75557222Y-117591395D01*
X75559498Y-117566437D01*
X75560474Y-117554882D01*
X75560505Y-117554243D01*
X75561847Y-117548923D01*
X75567360Y-117545325D01*
X75579372Y-117543120D01*
X75600211Y-117541979D01*
X75632206Y-117541573D01*
X75650484Y-117541543D01*
X75735197Y-117537950D01*
X75816170Y-117526729D01*
X75894861Y-117507216D01*
X75972724Y-117478747D01*
X76051214Y-117440660D01*
X76131787Y-117392290D01*
X76215899Y-117332974D01*
X76305005Y-117262049D01*
X76352567Y-117221430D01*
X76402714Y-117178301D01*
X76443323Y-117145235D01*
X76475374Y-117122290D01*
X76499850Y-117109528D01*
X76517729Y-117107008D01*
X76529992Y-117114791D01*
X76537621Y-117132938D01*
X76541594Y-117161508D01*
X76542894Y-117200561D01*
X76542751Y-117233114D01*
X76542108Y-117248462D01*
X76540423Y-117277416D01*
X76537761Y-117319110D01*
X76534187Y-117372679D01*
X76529764Y-117437256D01*
X76524558Y-117511975D01*
X76518632Y-117595971D01*
X76512051Y-117688377D01*
X76504878Y-117788328D01*
X76497179Y-117894957D01*
X76489018Y-118007399D01*
X76480458Y-118124788D01*
X76471565Y-118246258D01*
X76462402Y-118370943D01*
X76453034Y-118497976D01*
X76443524Y-118626493D01*
X76433939Y-118755626D01*
X76424341Y-118884511D01*
X76414794Y-119012280D01*
X76405364Y-119138069D01*
X76396115Y-119261011D01*
X76387111Y-119380241D01*
X76378415Y-119494891D01*
X76370093Y-119604098D01*
X76362209Y-119706993D01*
X76354827Y-119802712D01*
X76348011Y-119890389D01*
X76341826Y-119969158D01*
X76336336Y-120038152D01*
X76331605Y-120096505D01*
X76327697Y-120143353D01*
X76324678Y-120177828D01*
X76322610Y-120199066D01*
X76322359Y-120201286D01*
X76304295Y-120319479D01*
X76278648Y-120427703D01*
X76244629Y-120528810D01*
X76210235Y-120607788D01*
X76159214Y-120700148D01*
X76098367Y-120785141D01*
X76027254Y-120863049D01*
X75945434Y-120934156D01*
X75852466Y-120998744D01*
X75747910Y-121057098D01*
X75631325Y-121109500D01*
X75502271Y-121156233D01*
X75360307Y-121197580D01*
X75252058Y-121223684D01*
X75183882Y-121237997D01*
X75105925Y-121252902D01*
X75022852Y-121267600D01*
X74939330Y-121281289D01*
X74860024Y-121293170D01*
X74800386Y-121301129D01*
X74761474Y-121306824D01*
X74736745Y-121312497D01*
X74726349Y-121318110D01*
X74726000Y-121319330D01*
X74726798Y-121327537D01*
X74729128Y-121349292D01*
X74732892Y-121383721D01*
X74737991Y-121429948D01*
X74744330Y-121487100D01*
X74751809Y-121554302D01*
X74760332Y-121630680D01*
X74769801Y-121715358D01*
X74780119Y-121807463D01*
X74791187Y-121906119D01*
X74802908Y-122010453D01*
X74815184Y-122119589D01*
X74827704Y-122230742D01*
X74844225Y-122377346D01*
X74859201Y-122510315D01*
X74872706Y-122630437D01*
X74884817Y-122738500D01*
X74895610Y-122835292D01*
X74905160Y-122921603D01*
X74913544Y-122998219D01*
X74920837Y-123065929D01*
X74927115Y-123125521D01*
X74932456Y-123177784D01*
X74936933Y-123223505D01*
X74940624Y-123263473D01*
X74943604Y-123298477D01*
X74945949Y-123329303D01*
X74947736Y-123356741D01*
X74949039Y-123381578D01*
X74949936Y-123404603D01*
X74950502Y-123426605D01*
X74950812Y-123448370D01*
X74950944Y-123470688D01*
X74950972Y-123494346D01*
X74950972Y-123509938D01*
X74946499Y-123662157D01*
X74932987Y-123803340D01*
X74910291Y-123933917D01*
X74878270Y-124054322D01*
X74836781Y-124164983D01*
X74785679Y-124266335D01*
X74724824Y-124358806D01*
X74654071Y-124442830D01*
X74635762Y-124461625D01*
X74555275Y-124533400D01*
X74466660Y-124595811D01*
X74369308Y-124649084D01*
X74262614Y-124693447D01*
X74145970Y-124729125D01*
X74018768Y-124756345D01*
X73880403Y-124775334D01*
X73771686Y-124784148D01*
X73624657Y-124787603D01*
X73486756Y-124779804D01*
X73357907Y-124760719D01*
X73238032Y-124730316D01*
X73127056Y-124688562D01*
X73024901Y-124635426D01*
X72931492Y-124570876D01*
X72846751Y-124494880D01*
X72770603Y-124407406D01*
X72728407Y-124348500D01*
X72678966Y-124268307D01*
X72635329Y-124184521D01*
X72597103Y-124095766D01*
X72563895Y-124000667D01*
X72535311Y-123897850D01*
X72510958Y-123785940D01*
X72490441Y-123663562D01*
X72473368Y-123529342D01*
X72462564Y-123419828D01*
X72460746Y-123401310D01*
X72459291Y-123392028D01*
X72458151Y-123392801D01*
X72457280Y-123404446D01*
X72456631Y-123427781D01*
X72456156Y-123463626D01*
X72455809Y-123512797D01*
X72455681Y-123539571D01*
X72454447Y-123827952D01*
X72453269Y-124102157D01*
X72452145Y-124362526D01*
X72451074Y-124609398D01*
X72450054Y-124843111D01*
X72449083Y-125064006D01*
X72448159Y-125272421D01*
X72447281Y-125468694D01*
X72446447Y-125653166D01*
X72445654Y-125826174D01*
X72444902Y-125988058D01*
X72444189Y-126139158D01*
X72443512Y-126279811D01*
X72442870Y-126410357D01*
X72442261Y-126531136D01*
X72441684Y-126642485D01*
X72441136Y-126744745D01*
X72440616Y-126838253D01*
X72440121Y-126923350D01*
X72439652Y-127000373D01*
X72439204Y-127069663D01*
X72438778Y-127131558D01*
X72438370Y-127186397D01*
X72437979Y-127234519D01*
X72437604Y-127276264D01*
X72437242Y-127311969D01*
X72436892Y-127341975D01*
X72436553Y-127366620D01*
X72436221Y-127386243D01*
X72435896Y-127401183D01*
X72435576Y-127411780D01*
X72435358Y-127416700D01*
X72431346Y-127491086D01*
X71917968Y-127491086D01*
X71826021Y-127491014D01*
X71733078Y-127490807D01*
X71641000Y-127490477D01*
X71551652Y-127490036D01*
X71466897Y-127489497D01*
X71388596Y-127488872D01*
X71318614Y-127488173D01*
X71258812Y-127487413D01*
X71211054Y-127486604D01*
X71198395Y-127486331D01*
X70992200Y-127481577D01*
X70994500Y-126824117D01*
X70994749Y-126733320D01*
X70994912Y-126629660D01*
X70994992Y-126514786D01*
X70994990Y-126390350D01*
X70994910Y-126258002D01*
X70994754Y-126119392D01*
X70994524Y-125976171D01*
X70994225Y-125829990D01*
X70993857Y-125682499D01*
X70993424Y-125535347D01*
X70992928Y-125390187D01*
X70992372Y-125248668D01*
X70991796Y-125120048D01*
X70986791Y-124073439D01*
X70935067Y-124116508D01*
X70907483Y-124139662D01*
X70879910Y-124163115D01*
X70857237Y-124182701D01*
X70852313Y-124187031D01*
X70821282Y-124214486D01*
X70814331Y-125611486D01*
X70813614Y-125756717D01*
X70812916Y-125900294D01*
X70812241Y-126041349D01*
X70811593Y-126179013D01*
X70810975Y-126312420D01*
X70810391Y-126440699D01*
X70809845Y-126562984D01*
X70809341Y-126678406D01*
X70808883Y-126786097D01*
X70808473Y-126885189D01*
X70808117Y-126974813D01*
X70807817Y-127054102D01*
X70807578Y-127122187D01*
X70807403Y-127178200D01*
X70807296Y-127221273D01*
X70807261Y-127246157D01*
X70807143Y-127483828D01*
X70328172Y-127483828D01*
X70328172Y-125981600D01*
X70328159Y-125835050D01*
X70328124Y-125692401D01*
X70328065Y-125554328D01*
X70327986Y-125421506D01*
X70327886Y-125294611D01*
X70327767Y-125174318D01*
X70327630Y-125061302D01*
X70327476Y-124956239D01*
X70327307Y-124859803D01*
X70327124Y-124772670D01*
X70326927Y-124695516D01*
X70326718Y-124629016D01*
X70326498Y-124573845D01*
X70326269Y-124530678D01*
X70326030Y-124500190D01*
X70325785Y-124483058D01*
X70325604Y-124479371D01*
X70318310Y-124481820D01*
X70299762Y-124488597D01*
X70272267Y-124498843D01*
X70238126Y-124511703D01*
X70211304Y-124521879D01*
X70169000Y-124537790D01*
X70127002Y-124553265D01*
X70089116Y-124566922D01*
X70059149Y-124577380D01*
X70048772Y-124580834D01*
X70023192Y-124589557D01*
X70003110Y-124597220D01*
X69992506Y-124602294D01*
X69992107Y-124602611D01*
X69991816Y-124611081D01*
X69994710Y-124631177D01*
X70000332Y-124660476D01*
X70008228Y-124696552D01*
X70015442Y-124726899D01*
X70032403Y-124798262D01*
X70046044Y-124861722D01*
X70056708Y-124920331D01*
X70064739Y-124977137D01*
X70070480Y-125035192D01*
X70074275Y-125097546D01*
X70076467Y-125167249D01*
X70077401Y-125247352D01*
X70077493Y-125277657D01*
X70077477Y-125343405D01*
X70077143Y-125397128D01*
X70076367Y-125441313D01*
X70075023Y-125478447D01*
X70072985Y-125511019D01*
X70070127Y-125541516D01*
X70066325Y-125572426D01*
X70061453Y-125606236D01*
X70060657Y-125611486D01*
X70025789Y-125793964D01*
X69977752Y-125970444D01*
X69916612Y-126140772D01*
X69842438Y-126304795D01*
X69755298Y-126462360D01*
X69655258Y-126613316D01*
X69564456Y-126731078D01*
X69529764Y-126771082D01*
X69486903Y-126817133D01*
X69438625Y-126866546D01*
X69387680Y-126916636D01*
X69336819Y-126964716D01*
X69288794Y-127008103D01*
X69246356Y-127044111D01*
X69232343Y-127055241D01*
X69084893Y-127160787D01*
X68932369Y-127252736D01*
X68774746Y-127331095D01*
X68612002Y-127395874D01*
X68444113Y-127447083D01*
X68271055Y-127484730D01*
X68092806Y-127508825D01*
X68049792Y-127512550D01*
X67970665Y-127517045D01*
X67889738Y-127518686D01*
X67813224Y-127517410D01*
X67773657Y-127515332D01*
X67599024Y-127497349D01*
X67431983Y-127467730D01*
X67270884Y-127426024D01*
X67114073Y-127371783D01*
X66959898Y-127304557D01*
X66913686Y-127281676D01*
X66845938Y-127245109D01*
X66772917Y-127202036D01*
X66698753Y-127155113D01*
X66627571Y-127106999D01*
X66563502Y-127060350D01*
X66533922Y-127037195D01*
X66410031Y-126928426D01*
X66292753Y-126807919D01*
X66183550Y-126677503D01*
X66083887Y-126539013D01*
X65995230Y-126394279D01*
X65946578Y-126302506D01*
X65886389Y-126173492D01*
X65836047Y-126046460D01*
X65794495Y-125917946D01*
X65760674Y-125784487D01*
X65733527Y-125642619D01*
X65722194Y-125567943D01*
X65717751Y-125526228D01*
X65714272Y-125473333D01*
X65711764Y-125412159D01*
X65710232Y-125345603D01*
X65709681Y-125276563D01*
X65709767Y-125263027D01*
X67224083Y-125263027D01*
X67224925Y-125306686D01*
X67233262Y-125453496D01*
X67248626Y-125594485D01*
X67270705Y-125728963D01*
X67299184Y-125856243D01*
X67333750Y-125975636D01*
X67374088Y-126086453D01*
X67419886Y-126188007D01*
X67470830Y-126279609D01*
X67526607Y-126360570D01*
X67586901Y-126430203D01*
X67651401Y-126487820D01*
X67719791Y-126532731D01*
X67791760Y-126564249D01*
X67799057Y-126566612D01*
X67829561Y-126572668D01*
X67868961Y-126575625D01*
X67911982Y-126575523D01*
X67953351Y-126572400D01*
X67987793Y-126566296D01*
X67991869Y-126565175D01*
X68055018Y-126539722D01*
X68117801Y-126500867D01*
X68179124Y-126449707D01*
X68237891Y-126387336D01*
X68293006Y-126314848D01*
X68343374Y-126233338D01*
X68365170Y-126192075D01*
X68414340Y-126083861D01*
X68456460Y-125968966D01*
X68492008Y-125845713D01*
X68521459Y-125712424D01*
X68545290Y-125567423D01*
X68547824Y-125548940D01*
X68551969Y-125510162D01*
X68555294Y-125462961D01*
X68557821Y-125409158D01*
X68559567Y-125350573D01*
X68560555Y-125289025D01*
X68560804Y-125226334D01*
X68560334Y-125164320D01*
X68559165Y-125104803D01*
X68557318Y-125049604D01*
X68554812Y-125000542D01*
X68551668Y-124959437D01*
X68547907Y-124928108D01*
X68543547Y-124908377D01*
X68540668Y-124902877D01*
X68532638Y-124902355D01*
X68512605Y-124903118D01*
X68483010Y-124905015D01*
X68446291Y-124907894D01*
X68414851Y-124910672D01*
X68300214Y-124920757D01*
X68189503Y-124929386D01*
X68079903Y-124936704D01*
X67968600Y-124942859D01*
X67852778Y-124947998D01*
X67729623Y-124952268D01*
X67596319Y-124955816D01*
X67517936Y-124957507D01*
X67456297Y-124958848D01*
X67399282Y-124960294D01*
X67348506Y-124961787D01*
X67305582Y-124963272D01*
X67272126Y-124964691D01*
X67249751Y-124965989D01*
X67240071Y-124967108D01*
X67239833Y-124967234D01*
X67236605Y-124977385D01*
X67233536Y-124999767D01*
X67230726Y-125032096D01*
X67228277Y-125072089D01*
X67226287Y-125117462D01*
X67224858Y-125165931D01*
X67224090Y-125215214D01*
X67224083Y-125263027D01*
X65709767Y-125263027D01*
X65710117Y-125207939D01*
X65711545Y-125142627D01*
X65713971Y-125083529D01*
X65717400Y-125033540D01*
X65721118Y-125000308D01*
X65731308Y-124929788D01*
X65712897Y-124926233D01*
X65700484Y-124924994D01*
X65675911Y-124923494D01*
X65641529Y-124921840D01*
X65599686Y-124920140D01*
X65552734Y-124918504D01*
X65529386Y-124917782D01*
X65364286Y-124912886D01*
X65364286Y-127469314D01*
X64943412Y-127469314D01*
X64941577Y-126175728D01*
X64939743Y-124882143D01*
X64854333Y-124875629D01*
X64820778Y-124873317D01*
X64792921Y-124871866D01*
X64773705Y-124871395D01*
X64766095Y-124872001D01*
X64765768Y-124879443D01*
X64765394Y-124900670D01*
X64764976Y-124934954D01*
X64764519Y-124981566D01*
X64764027Y-125039776D01*
X64763506Y-125108856D01*
X64762959Y-125188077D01*
X64762391Y-125276711D01*
X64761807Y-125374027D01*
X64761212Y-125479299D01*
X64760610Y-125591795D01*
X64760005Y-125710789D01*
X64759402Y-125835550D01*
X64758806Y-125965350D01*
X64758222Y-126099461D01*
X64757918Y-126172100D01*
X64752569Y-127469314D01*
X63303257Y-127469314D01*
X63303183Y-125725786D01*
X63303168Y-125535565D01*
X63303139Y-125359201D01*
X63303090Y-125196035D01*
X63303017Y-125045412D01*
X63302915Y-124906671D01*
X63302780Y-124779157D01*
X63302720Y-124737830D01*
X67272915Y-124737830D01*
X67272915Y-124756180D01*
X67463415Y-124751751D01*
X67527665Y-124750110D01*
X67599097Y-124748038D01*
X67672697Y-124745696D01*
X67743455Y-124743247D01*
X67806359Y-124740851D01*
X67824457Y-124740104D01*
X67894127Y-124736919D01*
X67966379Y-124733186D01*
X68039697Y-124729018D01*
X68112569Y-124724526D01*
X68183479Y-124719825D01*
X68250914Y-124715027D01*
X68313359Y-124710244D01*
X68369300Y-124705590D01*
X68417224Y-124701177D01*
X68455616Y-124697119D01*
X68482961Y-124693528D01*
X68497746Y-124690517D01*
X68499422Y-124689797D01*
X68501861Y-124680156D01*
X68499397Y-124658277D01*
X68492340Y-124625467D01*
X68481003Y-124583035D01*
X68465696Y-124532287D01*
X68451574Y-124488884D01*
X68410670Y-124379405D01*
X68364736Y-124279764D01*
X68314279Y-124190460D01*
X68259807Y-124111991D01*
X68201826Y-124044853D01*
X68140844Y-123989545D01*
X68077368Y-123946564D01*
X68011906Y-123916408D01*
X67944966Y-123899574D01*
X67877053Y-123896561D01*
X67850422Y-123899238D01*
X67787368Y-123913027D01*
X67728757Y-123936523D01*
X67672420Y-123970955D01*
X67616190Y-124017551D01*
X67582069Y-124051368D01*
X67514908Y-124131429D01*
X67453972Y-124224431D01*
X67399372Y-124330151D01*
X67351219Y-124448368D01*
X67309622Y-124578859D01*
X67297756Y-124623012D01*
X67288574Y-124659973D01*
X67280925Y-124693254D01*
X67275503Y-124719644D01*
X67273003Y-124735931D01*
X67272915Y-124737830D01*
X63302720Y-124737830D01*
X63302608Y-124662211D01*
X63302394Y-124555176D01*
X63302133Y-124457394D01*
X63301822Y-124368208D01*
X63301454Y-124286959D01*
X63301027Y-124212990D01*
X63300536Y-124145643D01*
X63299976Y-124084262D01*
X63299342Y-124028187D01*
X63298630Y-123976762D01*
X63297836Y-123929329D01*
X63296955Y-123885230D01*
X63295982Y-123843808D01*
X63294914Y-123804404D01*
X63293745Y-123766362D01*
X63292472Y-123729023D01*
X63291089Y-123691730D01*
X63289592Y-123653825D01*
X63288928Y-123637543D01*
X63273282Y-123180137D01*
X63264280Y-122730750D01*
X63261910Y-122290129D01*
X63266160Y-121859018D01*
X63274015Y-121554663D01*
X63484686Y-121554663D01*
X64117872Y-121556517D01*
X64751057Y-121558371D01*
X64752888Y-123116843D01*
X64753101Y-123294159D01*
X64753308Y-123457531D01*
X64753516Y-123607527D01*
X64753730Y-123744717D01*
X64753955Y-123869669D01*
X64754195Y-123982954D01*
X64754458Y-124085140D01*
X64754747Y-124176796D01*
X64755069Y-124258493D01*
X64755428Y-124330799D01*
X64755829Y-124394284D01*
X64756279Y-124449516D01*
X64756783Y-124497066D01*
X64757344Y-124537502D01*
X64757970Y-124571393D01*
X64758666Y-124599310D01*
X64759435Y-124621821D01*
X64760285Y-124639495D01*
X64761220Y-124652903D01*
X64762245Y-124662612D01*
X64763366Y-124669193D01*
X64764588Y-124673215D01*
X64765917Y-124675246D01*
X64767357Y-124675857D01*
X64767403Y-124675860D01*
X64776733Y-124676276D01*
X64799284Y-124677289D01*
X64833776Y-124678841D01*
X64878933Y-124680875D01*
X64933473Y-124683333D01*
X64996119Y-124686157D01*
X65065592Y-124689290D01*
X65140614Y-124692674D01*
X65219904Y-124696251D01*
X65230029Y-124696708D01*
X65310990Y-124700340D01*
X65388798Y-124703791D01*
X65462044Y-124707001D01*
X65529316Y-124709909D01*
X65589205Y-124712457D01*
X65640302Y-124714583D01*
X65681194Y-124716228D01*
X65710474Y-124717332D01*
X65726729Y-124717835D01*
X65727143Y-124717842D01*
X65774315Y-124718675D01*
X65798374Y-124633494D01*
X65847540Y-124483836D01*
X65909933Y-124334644D01*
X65984351Y-124187916D01*
X66069587Y-124045654D01*
X66164438Y-123909855D01*
X66267699Y-123782520D01*
X66378164Y-123665646D01*
X66386351Y-123657701D01*
X66520537Y-123538053D01*
X66661987Y-123430946D01*
X66810482Y-123336487D01*
X66965802Y-123254779D01*
X67127725Y-123185930D01*
X67296033Y-123130044D01*
X67470506Y-123087227D01*
X67632143Y-123060017D01*
X67690022Y-123054072D01*
X67758491Y-123049933D01*
X67833737Y-123047602D01*
X67911948Y-123047082D01*
X67989311Y-123048376D01*
X68062014Y-123051487D01*
X68126244Y-123056416D01*
X68154657Y-123059651D01*
X68334276Y-123090007D01*
X68507481Y-123133342D01*
X68674156Y-123189600D01*
X68834186Y-123258725D01*
X68987455Y-123340662D01*
X69133848Y-123435356D01*
X69273249Y-123542750D01*
X69400688Y-123658038D01*
X69515489Y-123777261D01*
X69617551Y-123898918D01*
X69708650Y-124025481D01*
X69790563Y-124159423D01*
X69865064Y-124303217D01*
X69867107Y-124307507D01*
X69914200Y-124406616D01*
X70017772Y-124370204D01*
X70181104Y-124309530D01*
X70344961Y-124242405D01*
X70506137Y-124170304D01*
X70661426Y-124094703D01*
X70807625Y-124017079D01*
X70901486Y-123963135D01*
X70992200Y-123909146D01*
X70996542Y-123365130D01*
X70997236Y-123273871D01*
X70997965Y-123170319D01*
X70998715Y-123056693D01*
X70999473Y-122935215D01*
X71000227Y-122808106D01*
X71000964Y-122677586D01*
X71001672Y-122545875D01*
X71002338Y-122415194D01*
X71002661Y-122347711D01*
X72461772Y-122347711D01*
X72461772Y-122789960D01*
X72486927Y-122767874D01*
X72543383Y-122724526D01*
X72610105Y-122683580D01*
X72682847Y-122647226D01*
X72757362Y-122617656D01*
X72808102Y-122602218D01*
X72844677Y-122593496D01*
X72878144Y-122587821D01*
X72913792Y-122584579D01*
X72956912Y-122583153D01*
X72973400Y-122582978D01*
X73074510Y-122588207D01*
X73168792Y-122605725D01*
X73257985Y-122636105D01*
X73343829Y-122679919D01*
X73416287Y-122728770D01*
X73464861Y-122766799D01*
X73501756Y-122800243D01*
X73528095Y-122831359D01*
X73545002Y-122862402D01*
X73553599Y-122895627D01*
X73555010Y-122933290D01*
X73550356Y-122977646D01*
X73547870Y-122993039D01*
X73540164Y-123031432D01*
X73530139Y-123072421D01*
X73519695Y-123108377D01*
X73517469Y-123115028D01*
X73498797Y-123188879D01*
X73490600Y-123269896D01*
X73492489Y-123355620D01*
X73504075Y-123443594D01*
X73524970Y-123531358D01*
X73554784Y-123616453D01*
X73593128Y-123696423D01*
X73615367Y-123733700D01*
X73635352Y-123763195D01*
X73651236Y-123781208D01*
X73665619Y-123789130D01*
X73681098Y-123788354D01*
X73700272Y-123780273D01*
X73701289Y-123779746D01*
X73732096Y-123756454D01*
X73758188Y-123721023D01*
X73779558Y-123673360D01*
X73796200Y-123613369D01*
X73808108Y-123540956D01*
X73815277Y-123456027D01*
X73817699Y-123358488D01*
X73815369Y-123248244D01*
X73808280Y-123125200D01*
X73796427Y-122989263D01*
X73779804Y-122840337D01*
X73758404Y-122678329D01*
X73732220Y-122503144D01*
X73701248Y-122314687D01*
X73665481Y-122112865D01*
X73624913Y-121897582D01*
X73579537Y-121668745D01*
X73557359Y-121560408D01*
X73547135Y-121511173D01*
X73537701Y-121466207D01*
X73529504Y-121427610D01*
X73522993Y-121397483D01*
X73518616Y-121377926D01*
X73517017Y-121371500D01*
X73515607Y-121369070D01*
X73512329Y-121366971D01*
X73506194Y-121365178D01*
X73496210Y-121363667D01*
X73481387Y-121362414D01*
X73460733Y-121361395D01*
X73433258Y-121360587D01*
X73397971Y-121359965D01*
X73353882Y-121359505D01*
X73299999Y-121359183D01*
X73235332Y-121358976D01*
X73158890Y-121358859D01*
X73069682Y-121358809D01*
X72992232Y-121358800D01*
X72471385Y-121358800D01*
X72466578Y-121632130D01*
X72465660Y-121692503D01*
X72464799Y-121764877D01*
X72464013Y-121846738D01*
X72463318Y-121935573D01*
X72462731Y-122028868D01*
X72462269Y-122124111D01*
X72461949Y-122218787D01*
X72461788Y-122310384D01*
X72461772Y-122347711D01*
X71002661Y-122347711D01*
X71002949Y-122287764D01*
X71003493Y-122165806D01*
X71003799Y-122091771D01*
X71006715Y-121362428D01*
X69696800Y-121358800D01*
X68386886Y-121355171D01*
X68354229Y-121335923D01*
X68315041Y-121304526D01*
X68284060Y-121261860D01*
X68261991Y-121209081D01*
X68252668Y-121169371D01*
X68250834Y-121151619D01*
X68249317Y-121121287D01*
X68248114Y-121078106D01*
X68247222Y-121021810D01*
X68246639Y-120952132D01*
X68246362Y-120868804D01*
X68246387Y-120771560D01*
X68246712Y-120660131D01*
X68246827Y-120633086D01*
X68249000Y-120143228D01*
X68265571Y-120102247D01*
X68286152Y-120062785D01*
X68313541Y-120026372D01*
X68344260Y-119997120D01*
X68366738Y-119982674D01*
X68371342Y-119980620D01*
X68376968Y-119978777D01*
X68384408Y-119977129D01*
X68394453Y-119975661D01*
X68407895Y-119974358D01*
X68425523Y-119973205D01*
X68448130Y-119972185D01*
X68476506Y-119971285D01*
X68511443Y-119970488D01*
X68553732Y-119969780D01*
X68604163Y-119969145D01*
X68663529Y-119968567D01*
X68732619Y-119968032D01*
X68812226Y-119967524D01*
X68903141Y-119967029D01*
X69006153Y-119966529D01*
X69122056Y-119966011D01*
X69251639Y-119965459D01*
X69258968Y-119965428D01*
X70123793Y-119961800D01*
X69695631Y-118775257D01*
X69641726Y-118625858D01*
X69592537Y-118489479D01*
X69547846Y-118365491D01*
X69507434Y-118253264D01*
X69471086Y-118152168D01*
X69438581Y-118061573D01*
X69409703Y-117980851D01*
X69384234Y-117909370D01*
X69361955Y-117846502D01*
X69342650Y-117791617D01*
X69326100Y-117744084D01*
X69312087Y-117703275D01*
X69300394Y-117668560D01*
X69290802Y-117639308D01*
X69283095Y-117614890D01*
X69277053Y-117594677D01*
X69272460Y-117578039D01*
X69269097Y-117564345D01*
X69266746Y-117552967D01*
X69265191Y-117543274D01*
X69264212Y-117534638D01*
X69263592Y-117526427D01*
X69263585Y-117526315D01*
X69264336Y-117466305D01*
X69274956Y-117410290D01*
X69296302Y-117356397D01*
X69329232Y-117302750D01*
X69374602Y-117247474D01*
X69405911Y-117214962D01*
X69472327Y-117155454D01*
X69549761Y-117097872D01*
X69638765Y-117041925D01*
X69739891Y-116987323D01*
X69853691Y-116933774D01*
X69980716Y-116880989D01*
X70121517Y-116828676D01*
X70172143Y-116811110D01*
X70325186Y-116762032D01*
X70490214Y-116714964D01*
X70664772Y-116670419D01*
X70846410Y-116628910D01*
X71032674Y-116590950D01*
X71221112Y-116557052D01*
X71409270Y-116527729D01*
X71594696Y-116503496D01*
X71694974Y-116492487D01*
X71744604Y-116487428D01*
X71719385Y-116522814D01*
X71688378Y-116571946D01*
X71656496Y-116632896D01*
X71624854Y-116703103D01*
X71594565Y-116780007D01*
X71566746Y-116861048D01*
X71554122Y-116902282D01*
X71515862Y-117050942D01*
X71484769Y-117211264D01*
X71460885Y-117382263D01*
X71444252Y-117562958D01*
X71434914Y-117752364D01*
X71432913Y-117949498D01*
X71438289Y-118153376D01*
X71451087Y-118363015D01*
X71471349Y-118577432D01*
X71479141Y-118644628D01*
X71504034Y-118830747D01*
X71534663Y-119026417D01*
X71570365Y-119228160D01*
X71610479Y-119432500D01*
X71654342Y-119635960D01*
X71701291Y-119835061D01*
X71720351Y-119911000D01*
X71733331Y-119961800D01*
X71822601Y-119963844D01*
X71911870Y-119965888D01*
X71908443Y-119942073D01*
X71905858Y-119928681D01*
X71900359Y-119903355D01*
X71892444Y-119868268D01*
X71882607Y-119825593D01*
X71871344Y-119777506D01*
X71860828Y-119733200D01*
X71790361Y-119416598D01*
X71731208Y-119103488D01*
X71682647Y-118789487D01*
X71643958Y-118470213D01*
X71630394Y-118332571D01*
X71626509Y-118281719D01*
X71623071Y-118219789D01*
X71620115Y-118149229D01*
X71617677Y-118072486D01*
X71615790Y-117992007D01*
X71614490Y-117910238D01*
X71613812Y-117829627D01*
X71613797Y-117774906D01*
X72696527Y-117774906D01*
X72705396Y-117846543D01*
X72726143Y-117916110D01*
X72758803Y-117981826D01*
X72803408Y-118041909D01*
X72817575Y-118057006D01*
X72874977Y-118105376D01*
X72938580Y-118140865D01*
X73007350Y-118163170D01*
X73080252Y-118171993D01*
X73156253Y-118167034D01*
X73181180Y-118162462D01*
X73247893Y-118141217D01*
X73308471Y-118107958D01*
X73361959Y-118064230D01*
X73407404Y-118011577D01*
X73443849Y-117951544D01*
X73470340Y-117885675D01*
X73485923Y-117815516D01*
X73489641Y-117742610D01*
X73482031Y-117675800D01*
X73460914Y-117601357D01*
X73427871Y-117534829D01*
X73382245Y-117474980D01*
X73365946Y-117458086D01*
X73308324Y-117409792D01*
X73247024Y-117375304D01*
X73180864Y-117354131D01*
X73108661Y-117345780D01*
X73095604Y-117345600D01*
X73020279Y-117351721D01*
X72951725Y-117370411D01*
X72888665Y-117402162D01*
X72829820Y-117447465D01*
X72829168Y-117448062D01*
X72779155Y-117503312D01*
X72740850Y-117565404D01*
X72714288Y-117632555D01*
X72699502Y-117702983D01*
X72696527Y-117774906D01*
X71613797Y-117774906D01*
X71613790Y-117752622D01*
X71614460Y-117681669D01*
X71615856Y-117619214D01*
X71618012Y-117567707D01*
X71619237Y-117548800D01*
X71635802Y-117377529D01*
X71659035Y-117218898D01*
X71689047Y-117072598D01*
X71725948Y-116938319D01*
X71769850Y-116815752D01*
X71820864Y-116704588D01*
X71879101Y-116604518D01*
X71944673Y-116515231D01*
X72017690Y-116436420D01*
X72019958Y-116434251D01*
X72101661Y-116364284D01*
X72196518Y-116297132D01*
X72303362Y-116233258D01*
X72421024Y-116173125D01*
X72548337Y-116117195D01*
X72684132Y-116065932D01*
X72827242Y-116019798D01*
X72976499Y-115979255D01*
X73130734Y-115944768D01*
X73288780Y-115916799D01*
X73347143Y-115908310D01*
X73406280Y-115901575D01*
X73474705Y-115896051D01*
X73549066Y-115891829D01*
X73626006Y-115888999D01*
X73702174Y-115887649D01*
X73774215Y-115887869D01*
X73838776Y-115889750D01*
X73892501Y-115893380D01*
X73895403Y-115893665D01*
X74002167Y-115907756D01*
X74101574Y-115927652D01*
X74191694Y-115952862D01*
X74270597Y-115982898D01*
X74298364Y-115996041D01*
X74320933Y-116006834D01*
X74337916Y-116013831D01*
X74345751Y-116015570D01*
X74345817Y-116015517D01*
X74346394Y-116007606D01*
X74345966Y-115987871D01*
X74344639Y-115958956D01*
X74342521Y-115923508D01*
X74341469Y-115907999D01*
X74324390Y-115740935D01*
X74297168Y-115583657D01*
X74259681Y-115436052D01*
X74211804Y-115298007D01*
X74153414Y-115169412D01*
X74084388Y-115050153D01*
X74004602Y-114940119D01*
X73913932Y-114839197D01*
X73812256Y-114747275D01*
X73699449Y-114664242D01*
X73575388Y-114589984D01*
X73439950Y-114524391D01*
X73293011Y-114467349D01*
X73134448Y-114418747D01*
X72964137Y-114378472D01*
X72781954Y-114346412D01*
X72596029Y-114323286D01*
X72519837Y-114316484D01*
X72433092Y-114310353D01*
X72338188Y-114304953D01*
X72237519Y-114300344D01*
X72133480Y-114296586D01*
X72028464Y-114293739D01*
X71924866Y-114291864D01*
X71825080Y-114291020D01*
X71731500Y-114291268D01*
X71646522Y-114292668D01*
X71572538Y-114295280D01*
X71543743Y-114296850D01*
X71302441Y-114317652D01*
X71054048Y-114350412D01*
X70799242Y-114394826D01*
X70538702Y-114450591D01*
X70273105Y-114517407D01*
X70003131Y-114594968D01*
X69729458Y-114682974D01*
X69452763Y-114781121D01*
X69173726Y-114889108D01*
X68893024Y-115006630D01*
X68611336Y-115133386D01*
X68329340Y-115269073D01*
X68047715Y-115413389D01*
X67767139Y-115566030D01*
X67488290Y-115726695D01*
X67211847Y-115895080D01*
X66938488Y-116070883D01*
X66668891Y-116253802D01*
X66403734Y-116443533D01*
X66143696Y-116639775D01*
X65952094Y-116791322D01*
X65746892Y-116961540D01*
X65544619Y-117138366D01*
X65347246Y-117319915D01*
X65156739Y-117504300D01*
X64975069Y-117689635D01*
X64804203Y-117874035D01*
X64707008Y-117984228D01*
X64541419Y-118182921D01*
X64387750Y-118382111D01*
X64246218Y-118581387D01*
X64117045Y-118780336D01*
X64000449Y-118978545D01*
X63896651Y-119175602D01*
X63805870Y-119371094D01*
X63728325Y-119564609D01*
X63664238Y-119755734D01*
X63613826Y-119944057D01*
X63583207Y-120094047D01*
X63576060Y-120136878D01*
X63569434Y-120180132D01*
X63564007Y-120219143D01*
X63560460Y-120249241D01*
X63560137Y-120252647D01*
X63555118Y-120308027D01*
X63591522Y-120281873D01*
X63646181Y-120247203D01*
X63713379Y-120212285D01*
X63791175Y-120177859D01*
X63877628Y-120144663D01*
X63970796Y-120113437D01*
X64068739Y-120084921D01*
X64169515Y-120059855D01*
X64181372Y-120057188D01*
X64261429Y-120040991D01*
X64342056Y-120027677D01*
X64421316Y-120017372D01*
X64497277Y-120010201D01*
X64568004Y-120006291D01*
X64631563Y-120005766D01*
X64686022Y-120008752D01*
X64729444Y-120015374D01*
X64747413Y-120020433D01*
X64775403Y-120032639D01*
X64791314Y-120046004D01*
X64795047Y-120052514D01*
X64796458Y-120061157D01*
X64797525Y-120079969D01*
X64798246Y-120109410D01*
X64798619Y-120149941D01*
X64798642Y-120202022D01*
X64798314Y-120266114D01*
X64797633Y-120342678D01*
X64796598Y-120432174D01*
X64795206Y-120535064D01*
X64793455Y-120651806D01*
X64792604Y-120705657D01*
X64791046Y-120800368D01*
X64789481Y-120890886D01*
X64787930Y-120976165D01*
X64786417Y-121055159D01*
X64784964Y-121126821D01*
X64783593Y-121190104D01*
X64782328Y-121243963D01*
X64781190Y-121287351D01*
X64780202Y-121319221D01*
X64779387Y-121338527D01*
X64778840Y-121344286D01*
X64771214Y-121344850D01*
X64750116Y-121345439D01*
X64716587Y-121346044D01*
X64671669Y-121346655D01*
X64616404Y-121347261D01*
X64551834Y-121347854D01*
X64479000Y-121348424D01*
X64398944Y-121348961D01*
X64312708Y-121349456D01*
X64221334Y-121349898D01*
X64134548Y-121350247D01*
X63493842Y-121352580D01*
X63489327Y-121390161D01*
X63487173Y-121415706D01*
X63485560Y-121449299D01*
X63484779Y-121484479D01*
X63484749Y-121491203D01*
X63484686Y-121554663D01*
X63274015Y-121554663D01*
X63277022Y-121438164D01*
X63294483Y-121028313D01*
X63318532Y-120630209D01*
X63336126Y-120397228D01*
X63350500Y-120247748D01*
X63368663Y-120109151D01*
X63391277Y-119978148D01*
X63419002Y-119851447D01*
X63452499Y-119725760D01*
X63492430Y-119597796D01*
X63503076Y-119566286D01*
X63579247Y-119363756D01*
X63669517Y-119159412D01*
X63773626Y-118953566D01*
X63891316Y-118746529D01*
X64022327Y-118538612D01*
X64166400Y-118330124D01*
X64323275Y-118121379D01*
X64492694Y-117912685D01*
X64674398Y-117704355D01*
X64868126Y-117496699D01*
X65073621Y-117290029D01*
X65290622Y-117084654D01*
X65518870Y-116880887D01*
X65758107Y-116679038D01*
X66008073Y-116479417D01*
X66195229Y-116336735D01*
X66459771Y-116144150D01*
X66729463Y-115958053D01*
X67003568Y-115778767D01*
X67281348Y-115606612D01*
X67562066Y-115441910D01*
X67844983Y-115284984D01*
X68129361Y-115136154D01*
X68414464Y-114995743D01*
X68699553Y-114864072D01*
X68983890Y-114741462D01*
X69266738Y-114628236D01*
X69547360Y-114524715D01*
X69825017Y-114431221D01*
X70098971Y-114348075D01*
X70368485Y-114275599D01*
X70632822Y-114214115D01*
X70891243Y-114163945D01*
X71143011Y-114125409D01*
X71311630Y-114105856D01*
X71437343Y-114095470D01*
X71574504Y-114088120D01*
X71720380Y-114083745D01*
X71872238Y-114082287D01*
X72027347Y-114083686D01*
X72027347Y-114083686D01*
G37*
X72027347Y-114083686D02*
X72182972Y-114087883D01*
X72336381Y-114094818D01*
X72484841Y-114104432D01*
X72625620Y-114116666D01*
X72755986Y-114131460D01*
X72806486Y-114138351D01*
X72998005Y-114171230D01*
X73178114Y-114213035D01*
X73346893Y-114263824D01*
X73504423Y-114323653D01*
X73650782Y-114392579D01*
X73786050Y-114470660D01*
X73910306Y-114557952D01*
X74023632Y-114654513D01*
X74126105Y-114760399D01*
X74217805Y-114875668D01*
X74298813Y-115000376D01*
X74369208Y-115134580D01*
X74429069Y-115278338D01*
X74439398Y-115307135D01*
X74476300Y-115427726D01*
X74506783Y-115559260D01*
X74530531Y-115699511D01*
X74547229Y-115846253D01*
X74556559Y-115997260D01*
X74558286Y-116144543D01*
X74558235Y-116206641D01*
X74559886Y-116254448D01*
X74563237Y-116287916D01*
X74565855Y-116300377D01*
X74569534Y-116316134D01*
X74572345Y-116335185D01*
X74574287Y-116358865D01*
X74575363Y-116388509D01*
X74575575Y-116425454D01*
X74574923Y-116471034D01*
X74573410Y-116526586D01*
X74571037Y-116593444D01*
X74567805Y-116672946D01*
X74566343Y-116706971D01*
X74564667Y-116748882D01*
X74563161Y-116794089D01*
X74561818Y-116843429D01*
X74560630Y-116897740D01*
X74559590Y-116957858D01*
X74558691Y-117024620D01*
X74557927Y-117098864D01*
X74557290Y-117181427D01*
X74556773Y-117273146D01*
X74556369Y-117374857D01*
X74556071Y-117487399D01*
X74555872Y-117611608D01*
X74555765Y-117748322D01*
X74555742Y-117898376D01*
X74555756Y-117962457D01*
X74555875Y-118091646D01*
X74556152Y-118222178D01*
X74556577Y-118353241D01*
X74557139Y-118484023D01*
X74557830Y-118613710D01*
X74558641Y-118741490D01*
X74559561Y-118866552D01*
X74560582Y-118988082D01*
X74561694Y-119105267D01*
X74562887Y-119217296D01*
X74564153Y-119323356D01*
X74565481Y-119422634D01*
X74566862Y-119514318D01*
X74568287Y-119597595D01*
X74569747Y-119671653D01*
X74571232Y-119735680D01*
X74572732Y-119788862D01*
X74574238Y-119830387D01*
X74575741Y-119859444D01*
X74577231Y-119875218D01*
X74577993Y-119877898D01*
X74587680Y-119879050D01*
X74609158Y-119876705D01*
X74640270Y-119871373D01*
X74678856Y-119863566D01*
X74722759Y-119853793D01*
X74769820Y-119842566D01*
X74817881Y-119830396D01*
X74864784Y-119817794D01*
X74908370Y-119805270D01*
X74946482Y-119793336D01*
X74970252Y-119785050D01*
X75066413Y-119744391D01*
X75151221Y-119698120D01*
X75224086Y-119646689D01*
X75284418Y-119590552D01*
X75331625Y-119530161D01*
X75353972Y-119490923D01*
X75379429Y-119439286D01*
X75469934Y-118503114D01*
X75481072Y-118387815D01*
X75491817Y-118276405D01*
X75502086Y-118169748D01*
X75511798Y-118068709D01*
X75520869Y-117974153D01*
X75529217Y-117886945D01*
X75536760Y-117807950D01*
X75543414Y-117738032D01*
X75549097Y-117678057D01*
X75553728Y-117628890D01*
X75557222Y-117591395D01*
X75559498Y-117566437D01*
X75560474Y-117554882D01*
X75560505Y-117554243D01*
X75561847Y-117548923D01*
X75567360Y-117545325D01*
X75579372Y-117543120D01*
X75600211Y-117541979D01*
X75632206Y-117541573D01*
X75650484Y-117541543D01*
X75735197Y-117537950D01*
X75816170Y-117526729D01*
X75894861Y-117507216D01*
X75972724Y-117478747D01*
X76051214Y-117440660D01*
X76131787Y-117392290D01*
X76215899Y-117332974D01*
X76305005Y-117262049D01*
X76352567Y-117221430D01*
X76402714Y-117178301D01*
X76443323Y-117145235D01*
X76475374Y-117122290D01*
X76499850Y-117109528D01*
X76517729Y-117107008D01*
X76529992Y-117114791D01*
X76537621Y-117132938D01*
X76541594Y-117161508D01*
X76542894Y-117200561D01*
X76542751Y-117233114D01*
X76542108Y-117248462D01*
X76540423Y-117277416D01*
X76537761Y-117319110D01*
X76534187Y-117372679D01*
X76529764Y-117437256D01*
X76524558Y-117511975D01*
X76518632Y-117595971D01*
X76512051Y-117688377D01*
X76504878Y-117788328D01*
X76497179Y-117894957D01*
X76489018Y-118007399D01*
X76480458Y-118124788D01*
X76471565Y-118246258D01*
X76462402Y-118370943D01*
X76453034Y-118497976D01*
X76443524Y-118626493D01*
X76433939Y-118755626D01*
X76424341Y-118884511D01*
X76414794Y-119012280D01*
X76405364Y-119138069D01*
X76396115Y-119261011D01*
X76387111Y-119380241D01*
X76378415Y-119494891D01*
X76370093Y-119604098D01*
X76362209Y-119706993D01*
X76354827Y-119802712D01*
X76348011Y-119890389D01*
X76341826Y-119969158D01*
X76336336Y-120038152D01*
X76331605Y-120096505D01*
X76327697Y-120143353D01*
X76324678Y-120177828D01*
X76322610Y-120199066D01*
X76322359Y-120201286D01*
X76304295Y-120319479D01*
X76278648Y-120427703D01*
X76244629Y-120528810D01*
X76210235Y-120607788D01*
X76159214Y-120700148D01*
X76098367Y-120785141D01*
X76027254Y-120863049D01*
X75945434Y-120934156D01*
X75852466Y-120998744D01*
X75747910Y-121057098D01*
X75631325Y-121109500D01*
X75502271Y-121156233D01*
X75360307Y-121197580D01*
X75252058Y-121223684D01*
X75183882Y-121237997D01*
X75105925Y-121252902D01*
X75022852Y-121267600D01*
X74939330Y-121281289D01*
X74860024Y-121293170D01*
X74800386Y-121301129D01*
X74761474Y-121306824D01*
X74736745Y-121312497D01*
X74726349Y-121318110D01*
X74726000Y-121319330D01*
X74726798Y-121327537D01*
X74729128Y-121349292D01*
X74732892Y-121383721D01*
X74737991Y-121429948D01*
X74744330Y-121487100D01*
X74751809Y-121554302D01*
X74760332Y-121630680D01*
X74769801Y-121715358D01*
X74780119Y-121807463D01*
X74791187Y-121906119D01*
X74802908Y-122010453D01*
X74815184Y-122119589D01*
X74827704Y-122230742D01*
X74844225Y-122377346D01*
X74859201Y-122510315D01*
X74872706Y-122630437D01*
X74884817Y-122738500D01*
X74895610Y-122835292D01*
X74905160Y-122921603D01*
X74913544Y-122998219D01*
X74920837Y-123065929D01*
X74927115Y-123125521D01*
X74932456Y-123177784D01*
X74936933Y-123223505D01*
X74940624Y-123263473D01*
X74943604Y-123298477D01*
X74945949Y-123329303D01*
X74947736Y-123356741D01*
X74949039Y-123381578D01*
X74949936Y-123404603D01*
X74950502Y-123426605D01*
X74950812Y-123448370D01*
X74950944Y-123470688D01*
X74950972Y-123494346D01*
X74950972Y-123509938D01*
X74946499Y-123662157D01*
X74932987Y-123803340D01*
X74910291Y-123933917D01*
X74878270Y-124054322D01*
X74836781Y-124164983D01*
X74785679Y-124266335D01*
X74724824Y-124358806D01*
X74654071Y-124442830D01*
X74635762Y-124461625D01*
X74555275Y-124533400D01*
X74466660Y-124595811D01*
X74369308Y-124649084D01*
X74262614Y-124693447D01*
X74145970Y-124729125D01*
X74018768Y-124756345D01*
X73880403Y-124775334D01*
X73771686Y-124784148D01*
X73624657Y-124787603D01*
X73486756Y-124779804D01*
X73357907Y-124760719D01*
X73238032Y-124730316D01*
X73127056Y-124688562D01*
X73024901Y-124635426D01*
X72931492Y-124570876D01*
X72846751Y-124494880D01*
X72770603Y-124407406D01*
X72728407Y-124348500D01*
X72678966Y-124268307D01*
X72635329Y-124184521D01*
X72597103Y-124095766D01*
X72563895Y-124000667D01*
X72535311Y-123897850D01*
X72510958Y-123785940D01*
X72490441Y-123663562D01*
X72473368Y-123529342D01*
X72462564Y-123419828D01*
X72460746Y-123401310D01*
X72459291Y-123392028D01*
X72458151Y-123392801D01*
X72457280Y-123404446D01*
X72456631Y-123427781D01*
X72456156Y-123463626D01*
X72455809Y-123512797D01*
X72455681Y-123539571D01*
X72454447Y-123827952D01*
X72453269Y-124102157D01*
X72452145Y-124362526D01*
X72451074Y-124609398D01*
X72450054Y-124843111D01*
X72449083Y-125064006D01*
X72448159Y-125272421D01*
X72447281Y-125468694D01*
X72446447Y-125653166D01*
X72445654Y-125826174D01*
X72444902Y-125988058D01*
X72444189Y-126139158D01*
X72443512Y-126279811D01*
X72442870Y-126410357D01*
X72442261Y-126531136D01*
X72441684Y-126642485D01*
X72441136Y-126744745D01*
X72440616Y-126838253D01*
X72440121Y-126923350D01*
X72439652Y-127000373D01*
X72439204Y-127069663D01*
X72438778Y-127131558D01*
X72438370Y-127186397D01*
X72437979Y-127234519D01*
X72437604Y-127276264D01*
X72437242Y-127311969D01*
X72436892Y-127341975D01*
X72436553Y-127366620D01*
X72436221Y-127386243D01*
X72435896Y-127401183D01*
X72435576Y-127411780D01*
X72435358Y-127416700D01*
X72431346Y-127491086D01*
X71917968Y-127491086D01*
X71826021Y-127491014D01*
X71733078Y-127490807D01*
X71641000Y-127490477D01*
X71551652Y-127490036D01*
X71466897Y-127489497D01*
X71388596Y-127488872D01*
X71318614Y-127488173D01*
X71258812Y-127487413D01*
X71211054Y-127486604D01*
X71198395Y-127486331D01*
X70992200Y-127481577D01*
X70994500Y-126824117D01*
X70994749Y-126733320D01*
X70994912Y-126629660D01*
X70994992Y-126514786D01*
X70994990Y-126390350D01*
X70994910Y-126258002D01*
X70994754Y-126119392D01*
X70994524Y-125976171D01*
X70994225Y-125829990D01*
X70993857Y-125682499D01*
X70993424Y-125535347D01*
X70992928Y-125390187D01*
X70992372Y-125248668D01*
X70991796Y-125120048D01*
X70986791Y-124073439D01*
X70935067Y-124116508D01*
X70907483Y-124139662D01*
X70879910Y-124163115D01*
X70857237Y-124182701D01*
X70852313Y-124187031D01*
X70821282Y-124214486D01*
X70814331Y-125611486D01*
X70813614Y-125756717D01*
X70812916Y-125900294D01*
X70812241Y-126041349D01*
X70811593Y-126179013D01*
X70810975Y-126312420D01*
X70810391Y-126440699D01*
X70809845Y-126562984D01*
X70809341Y-126678406D01*
X70808883Y-126786097D01*
X70808473Y-126885189D01*
X70808117Y-126974813D01*
X70807817Y-127054102D01*
X70807578Y-127122187D01*
X70807403Y-127178200D01*
X70807296Y-127221273D01*
X70807261Y-127246157D01*
X70807143Y-127483828D01*
X70328172Y-127483828D01*
X70328172Y-125981600D01*
X70328159Y-125835050D01*
X70328124Y-125692401D01*
X70328065Y-125554328D01*
X70327986Y-125421506D01*
X70327886Y-125294611D01*
X70327767Y-125174318D01*
X70327630Y-125061302D01*
X70327476Y-124956239D01*
X70327307Y-124859803D01*
X70327124Y-124772670D01*
X70326927Y-124695516D01*
X70326718Y-124629016D01*
X70326498Y-124573845D01*
X70326269Y-124530678D01*
X70326030Y-124500190D01*
X70325785Y-124483058D01*
X70325604Y-124479371D01*
X70318310Y-124481820D01*
X70299762Y-124488597D01*
X70272267Y-124498843D01*
X70238126Y-124511703D01*
X70211304Y-124521879D01*
X70169000Y-124537790D01*
X70127002Y-124553265D01*
X70089116Y-124566922D01*
X70059149Y-124577380D01*
X70048772Y-124580834D01*
X70023192Y-124589557D01*
X70003110Y-124597220D01*
X69992506Y-124602294D01*
X69992107Y-124602611D01*
X69991816Y-124611081D01*
X69994710Y-124631177D01*
X70000332Y-124660476D01*
X70008228Y-124696552D01*
X70015442Y-124726899D01*
X70032403Y-124798262D01*
X70046044Y-124861722D01*
X70056708Y-124920331D01*
X70064739Y-124977137D01*
X70070480Y-125035192D01*
X70074275Y-125097546D01*
X70076467Y-125167249D01*
X70077401Y-125247352D01*
X70077493Y-125277657D01*
X70077477Y-125343405D01*
X70077143Y-125397128D01*
X70076367Y-125441313D01*
X70075023Y-125478447D01*
X70072985Y-125511019D01*
X70070127Y-125541516D01*
X70066325Y-125572426D01*
X70061453Y-125606236D01*
X70060657Y-125611486D01*
X70025789Y-125793964D01*
X69977752Y-125970444D01*
X69916612Y-126140772D01*
X69842438Y-126304795D01*
X69755298Y-126462360D01*
X69655258Y-126613316D01*
X69564456Y-126731078D01*
X69529764Y-126771082D01*
X69486903Y-126817133D01*
X69438625Y-126866546D01*
X69387680Y-126916636D01*
X69336819Y-126964716D01*
X69288794Y-127008103D01*
X69246356Y-127044111D01*
X69232343Y-127055241D01*
X69084893Y-127160787D01*
X68932369Y-127252736D01*
X68774746Y-127331095D01*
X68612002Y-127395874D01*
X68444113Y-127447083D01*
X68271055Y-127484730D01*
X68092806Y-127508825D01*
X68049792Y-127512550D01*
X67970665Y-127517045D01*
X67889738Y-127518686D01*
X67813224Y-127517410D01*
X67773657Y-127515332D01*
X67599024Y-127497349D01*
X67431983Y-127467730D01*
X67270884Y-127426024D01*
X67114073Y-127371783D01*
X66959898Y-127304557D01*
X66913686Y-127281676D01*
X66845938Y-127245109D01*
X66772917Y-127202036D01*
X66698753Y-127155113D01*
X66627571Y-127106999D01*
X66563502Y-127060350D01*
X66533922Y-127037195D01*
X66410031Y-126928426D01*
X66292753Y-126807919D01*
X66183550Y-126677503D01*
X66083887Y-126539013D01*
X65995230Y-126394279D01*
X65946578Y-126302506D01*
X65886389Y-126173492D01*
X65836047Y-126046460D01*
X65794495Y-125917946D01*
X65760674Y-125784487D01*
X65733527Y-125642619D01*
X65722194Y-125567943D01*
X65717751Y-125526228D01*
X65714272Y-125473333D01*
X65711764Y-125412159D01*
X65710232Y-125345603D01*
X65709681Y-125276563D01*
X65709767Y-125263027D01*
X67224083Y-125263027D01*
X67224925Y-125306686D01*
X67233262Y-125453496D01*
X67248626Y-125594485D01*
X67270705Y-125728963D01*
X67299184Y-125856243D01*
X67333750Y-125975636D01*
X67374088Y-126086453D01*
X67419886Y-126188007D01*
X67470830Y-126279609D01*
X67526607Y-126360570D01*
X67586901Y-126430203D01*
X67651401Y-126487820D01*
X67719791Y-126532731D01*
X67791760Y-126564249D01*
X67799057Y-126566612D01*
X67829561Y-126572668D01*
X67868961Y-126575625D01*
X67911982Y-126575523D01*
X67953351Y-126572400D01*
X67987793Y-126566296D01*
X67991869Y-126565175D01*
X68055018Y-126539722D01*
X68117801Y-126500867D01*
X68179124Y-126449707D01*
X68237891Y-126387336D01*
X68293006Y-126314848D01*
X68343374Y-126233338D01*
X68365170Y-126192075D01*
X68414340Y-126083861D01*
X68456460Y-125968966D01*
X68492008Y-125845713D01*
X68521459Y-125712424D01*
X68545290Y-125567423D01*
X68547824Y-125548940D01*
X68551969Y-125510162D01*
X68555294Y-125462961D01*
X68557821Y-125409158D01*
X68559567Y-125350573D01*
X68560555Y-125289025D01*
X68560804Y-125226334D01*
X68560334Y-125164320D01*
X68559165Y-125104803D01*
X68557318Y-125049604D01*
X68554812Y-125000542D01*
X68551668Y-124959437D01*
X68547907Y-124928108D01*
X68543547Y-124908377D01*
X68540668Y-124902877D01*
X68532638Y-124902355D01*
X68512605Y-124903118D01*
X68483010Y-124905015D01*
X68446291Y-124907894D01*
X68414851Y-124910672D01*
X68300214Y-124920757D01*
X68189503Y-124929386D01*
X68079903Y-124936704D01*
X67968600Y-124942859D01*
X67852778Y-124947998D01*
X67729623Y-124952268D01*
X67596319Y-124955816D01*
X67517936Y-124957507D01*
X67456297Y-124958848D01*
X67399282Y-124960294D01*
X67348506Y-124961787D01*
X67305582Y-124963272D01*
X67272126Y-124964691D01*
X67249751Y-124965989D01*
X67240071Y-124967108D01*
X67239833Y-124967234D01*
X67236605Y-124977385D01*
X67233536Y-124999767D01*
X67230726Y-125032096D01*
X67228277Y-125072089D01*
X67226287Y-125117462D01*
X67224858Y-125165931D01*
X67224090Y-125215214D01*
X67224083Y-125263027D01*
X65709767Y-125263027D01*
X65710117Y-125207939D01*
X65711545Y-125142627D01*
X65713971Y-125083529D01*
X65717400Y-125033540D01*
X65721118Y-125000308D01*
X65731308Y-124929788D01*
X65712897Y-124926233D01*
X65700484Y-124924994D01*
X65675911Y-124923494D01*
X65641529Y-124921840D01*
X65599686Y-124920140D01*
X65552734Y-124918504D01*
X65529386Y-124917782D01*
X65364286Y-124912886D01*
X65364286Y-127469314D01*
X64943412Y-127469314D01*
X64941577Y-126175728D01*
X64939743Y-124882143D01*
X64854333Y-124875629D01*
X64820778Y-124873317D01*
X64792921Y-124871866D01*
X64773705Y-124871395D01*
X64766095Y-124872001D01*
X64765768Y-124879443D01*
X64765394Y-124900670D01*
X64764976Y-124934954D01*
X64764519Y-124981566D01*
X64764027Y-125039776D01*
X64763506Y-125108856D01*
X64762959Y-125188077D01*
X64762391Y-125276711D01*
X64761807Y-125374027D01*
X64761212Y-125479299D01*
X64760610Y-125591795D01*
X64760005Y-125710789D01*
X64759402Y-125835550D01*
X64758806Y-125965350D01*
X64758222Y-126099461D01*
X64757918Y-126172100D01*
X64752569Y-127469314D01*
X63303257Y-127469314D01*
X63303183Y-125725786D01*
X63303168Y-125535565D01*
X63303139Y-125359201D01*
X63303090Y-125196035D01*
X63303017Y-125045412D01*
X63302915Y-124906671D01*
X63302780Y-124779157D01*
X63302720Y-124737830D01*
X67272915Y-124737830D01*
X67272915Y-124756180D01*
X67463415Y-124751751D01*
X67527665Y-124750110D01*
X67599097Y-124748038D01*
X67672697Y-124745696D01*
X67743455Y-124743247D01*
X67806359Y-124740851D01*
X67824457Y-124740104D01*
X67894127Y-124736919D01*
X67966379Y-124733186D01*
X68039697Y-124729018D01*
X68112569Y-124724526D01*
X68183479Y-124719825D01*
X68250914Y-124715027D01*
X68313359Y-124710244D01*
X68369300Y-124705590D01*
X68417224Y-124701177D01*
X68455616Y-124697119D01*
X68482961Y-124693528D01*
X68497746Y-124690517D01*
X68499422Y-124689797D01*
X68501861Y-124680156D01*
X68499397Y-124658277D01*
X68492340Y-124625467D01*
X68481003Y-124583035D01*
X68465696Y-124532287D01*
X68451574Y-124488884D01*
X68410670Y-124379405D01*
X68364736Y-124279764D01*
X68314279Y-124190460D01*
X68259807Y-124111991D01*
X68201826Y-124044853D01*
X68140844Y-123989545D01*
X68077368Y-123946564D01*
X68011906Y-123916408D01*
X67944966Y-123899574D01*
X67877053Y-123896561D01*
X67850422Y-123899238D01*
X67787368Y-123913027D01*
X67728757Y-123936523D01*
X67672420Y-123970955D01*
X67616190Y-124017551D01*
X67582069Y-124051368D01*
X67514908Y-124131429D01*
X67453972Y-124224431D01*
X67399372Y-124330151D01*
X67351219Y-124448368D01*
X67309622Y-124578859D01*
X67297756Y-124623012D01*
X67288574Y-124659973D01*
X67280925Y-124693254D01*
X67275503Y-124719644D01*
X67273003Y-124735931D01*
X67272915Y-124737830D01*
X63302720Y-124737830D01*
X63302608Y-124662211D01*
X63302394Y-124555176D01*
X63302133Y-124457394D01*
X63301822Y-124368208D01*
X63301454Y-124286959D01*
X63301027Y-124212990D01*
X63300536Y-124145643D01*
X63299976Y-124084262D01*
X63299342Y-124028187D01*
X63298630Y-123976762D01*
X63297836Y-123929329D01*
X63296955Y-123885230D01*
X63295982Y-123843808D01*
X63294914Y-123804404D01*
X63293745Y-123766362D01*
X63292472Y-123729023D01*
X63291089Y-123691730D01*
X63289592Y-123653825D01*
X63288928Y-123637543D01*
X63273282Y-123180137D01*
X63264280Y-122730750D01*
X63261910Y-122290129D01*
X63266160Y-121859018D01*
X63274015Y-121554663D01*
X63484686Y-121554663D01*
X64117872Y-121556517D01*
X64751057Y-121558371D01*
X64752888Y-123116843D01*
X64753101Y-123294159D01*
X64753308Y-123457531D01*
X64753516Y-123607527D01*
X64753730Y-123744717D01*
X64753955Y-123869669D01*
X64754195Y-123982954D01*
X64754458Y-124085140D01*
X64754747Y-124176796D01*
X64755069Y-124258493D01*
X64755428Y-124330799D01*
X64755829Y-124394284D01*
X64756279Y-124449516D01*
X64756783Y-124497066D01*
X64757344Y-124537502D01*
X64757970Y-124571393D01*
X64758666Y-124599310D01*
X64759435Y-124621821D01*
X64760285Y-124639495D01*
X64761220Y-124652903D01*
X64762245Y-124662612D01*
X64763366Y-124669193D01*
X64764588Y-124673215D01*
X64765917Y-124675246D01*
X64767357Y-124675857D01*
X64767403Y-124675860D01*
X64776733Y-124676276D01*
X64799284Y-124677289D01*
X64833776Y-124678841D01*
X64878933Y-124680875D01*
X64933473Y-124683333D01*
X64996119Y-124686157D01*
X65065592Y-124689290D01*
X65140614Y-124692674D01*
X65219904Y-124696251D01*
X65230029Y-124696708D01*
X65310990Y-124700340D01*
X65388798Y-124703791D01*
X65462044Y-124707001D01*
X65529316Y-124709909D01*
X65589205Y-124712457D01*
X65640302Y-124714583D01*
X65681194Y-124716228D01*
X65710474Y-124717332D01*
X65726729Y-124717835D01*
X65727143Y-124717842D01*
X65774315Y-124718675D01*
X65798374Y-124633494D01*
X65847540Y-124483836D01*
X65909933Y-124334644D01*
X65984351Y-124187916D01*
X66069587Y-124045654D01*
X66164438Y-123909855D01*
X66267699Y-123782520D01*
X66378164Y-123665646D01*
X66386351Y-123657701D01*
X66520537Y-123538053D01*
X66661987Y-123430946D01*
X66810482Y-123336487D01*
X66965802Y-123254779D01*
X67127725Y-123185930D01*
X67296033Y-123130044D01*
X67470506Y-123087227D01*
X67632143Y-123060017D01*
X67690022Y-123054072D01*
X67758491Y-123049933D01*
X67833737Y-123047602D01*
X67911948Y-123047082D01*
X67989311Y-123048376D01*
X68062014Y-123051487D01*
X68126244Y-123056416D01*
X68154657Y-123059651D01*
X68334276Y-123090007D01*
X68507481Y-123133342D01*
X68674156Y-123189600D01*
X68834186Y-123258725D01*
X68987455Y-123340662D01*
X69133848Y-123435356D01*
X69273249Y-123542750D01*
X69400688Y-123658038D01*
X69515489Y-123777261D01*
X69617551Y-123898918D01*
X69708650Y-124025481D01*
X69790563Y-124159423D01*
X69865064Y-124303217D01*
X69867107Y-124307507D01*
X69914200Y-124406616D01*
X70017772Y-124370204D01*
X70181104Y-124309530D01*
X70344961Y-124242405D01*
X70506137Y-124170304D01*
X70661426Y-124094703D01*
X70807625Y-124017079D01*
X70901486Y-123963135D01*
X70992200Y-123909146D01*
X70996542Y-123365130D01*
X70997236Y-123273871D01*
X70997965Y-123170319D01*
X70998715Y-123056693D01*
X70999473Y-122935215D01*
X71000227Y-122808106D01*
X71000964Y-122677586D01*
X71001672Y-122545875D01*
X71002338Y-122415194D01*
X71002661Y-122347711D01*
X72461772Y-122347711D01*
X72461772Y-122789960D01*
X72486927Y-122767874D01*
X72543383Y-122724526D01*
X72610105Y-122683580D01*
X72682847Y-122647226D01*
X72757362Y-122617656D01*
X72808102Y-122602218D01*
X72844677Y-122593496D01*
X72878144Y-122587821D01*
X72913792Y-122584579D01*
X72956912Y-122583153D01*
X72973400Y-122582978D01*
X73074510Y-122588207D01*
X73168792Y-122605725D01*
X73257985Y-122636105D01*
X73343829Y-122679919D01*
X73416287Y-122728770D01*
X73464861Y-122766799D01*
X73501756Y-122800243D01*
X73528095Y-122831359D01*
X73545002Y-122862402D01*
X73553599Y-122895627D01*
X73555010Y-122933290D01*
X73550356Y-122977646D01*
X73547870Y-122993039D01*
X73540164Y-123031432D01*
X73530139Y-123072421D01*
X73519695Y-123108377D01*
X73517469Y-123115028D01*
X73498797Y-123188879D01*
X73490600Y-123269896D01*
X73492489Y-123355620D01*
X73504075Y-123443594D01*
X73524970Y-123531358D01*
X73554784Y-123616453D01*
X73593128Y-123696423D01*
X73615367Y-123733700D01*
X73635352Y-123763195D01*
X73651236Y-123781208D01*
X73665619Y-123789130D01*
X73681098Y-123788354D01*
X73700272Y-123780273D01*
X73701289Y-123779746D01*
X73732096Y-123756454D01*
X73758188Y-123721023D01*
X73779558Y-123673360D01*
X73796200Y-123613369D01*
X73808108Y-123540956D01*
X73815277Y-123456027D01*
X73817699Y-123358488D01*
X73815369Y-123248244D01*
X73808280Y-123125200D01*
X73796427Y-122989263D01*
X73779804Y-122840337D01*
X73758404Y-122678329D01*
X73732220Y-122503144D01*
X73701248Y-122314687D01*
X73665481Y-122112865D01*
X73624913Y-121897582D01*
X73579537Y-121668745D01*
X73557359Y-121560408D01*
X73547135Y-121511173D01*
X73537701Y-121466207D01*
X73529504Y-121427610D01*
X73522993Y-121397483D01*
X73518616Y-121377926D01*
X73517017Y-121371500D01*
X73515607Y-121369070D01*
X73512329Y-121366971D01*
X73506194Y-121365178D01*
X73496210Y-121363667D01*
X73481387Y-121362414D01*
X73460733Y-121361395D01*
X73433258Y-121360587D01*
X73397971Y-121359965D01*
X73353882Y-121359505D01*
X73299999Y-121359183D01*
X73235332Y-121358976D01*
X73158890Y-121358859D01*
X73069682Y-121358809D01*
X72992232Y-121358800D01*
X72471385Y-121358800D01*
X72466578Y-121632130D01*
X72465660Y-121692503D01*
X72464799Y-121764877D01*
X72464013Y-121846738D01*
X72463318Y-121935573D01*
X72462731Y-122028868D01*
X72462269Y-122124111D01*
X72461949Y-122218787D01*
X72461788Y-122310384D01*
X72461772Y-122347711D01*
X71002661Y-122347711D01*
X71002949Y-122287764D01*
X71003493Y-122165806D01*
X71003799Y-122091771D01*
X71006715Y-121362428D01*
X69696800Y-121358800D01*
X68386886Y-121355171D01*
X68354229Y-121335923D01*
X68315041Y-121304526D01*
X68284060Y-121261860D01*
X68261991Y-121209081D01*
X68252668Y-121169371D01*
X68250834Y-121151619D01*
X68249317Y-121121287D01*
X68248114Y-121078106D01*
X68247222Y-121021810D01*
X68246639Y-120952132D01*
X68246362Y-120868804D01*
X68246387Y-120771560D01*
X68246712Y-120660131D01*
X68246827Y-120633086D01*
X68249000Y-120143228D01*
X68265571Y-120102247D01*
X68286152Y-120062785D01*
X68313541Y-120026372D01*
X68344260Y-119997120D01*
X68366738Y-119982674D01*
X68371342Y-119980620D01*
X68376968Y-119978777D01*
X68384408Y-119977129D01*
X68394453Y-119975661D01*
X68407895Y-119974358D01*
X68425523Y-119973205D01*
X68448130Y-119972185D01*
X68476506Y-119971285D01*
X68511443Y-119970488D01*
X68553732Y-119969780D01*
X68604163Y-119969145D01*
X68663529Y-119968567D01*
X68732619Y-119968032D01*
X68812226Y-119967524D01*
X68903141Y-119967029D01*
X69006153Y-119966529D01*
X69122056Y-119966011D01*
X69251639Y-119965459D01*
X69258968Y-119965428D01*
X70123793Y-119961800D01*
X69695631Y-118775257D01*
X69641726Y-118625858D01*
X69592537Y-118489479D01*
X69547846Y-118365491D01*
X69507434Y-118253264D01*
X69471086Y-118152168D01*
X69438581Y-118061573D01*
X69409703Y-117980851D01*
X69384234Y-117909370D01*
X69361955Y-117846502D01*
X69342650Y-117791617D01*
X69326100Y-117744084D01*
X69312087Y-117703275D01*
X69300394Y-117668560D01*
X69290802Y-117639308D01*
X69283095Y-117614890D01*
X69277053Y-117594677D01*
X69272460Y-117578039D01*
X69269097Y-117564345D01*
X69266746Y-117552967D01*
X69265191Y-117543274D01*
X69264212Y-117534638D01*
X69263592Y-117526427D01*
X69263585Y-117526315D01*
X69264336Y-117466305D01*
X69274956Y-117410290D01*
X69296302Y-117356397D01*
X69329232Y-117302750D01*
X69374602Y-117247474D01*
X69405911Y-117214962D01*
X69472327Y-117155454D01*
X69549761Y-117097872D01*
X69638765Y-117041925D01*
X69739891Y-116987323D01*
X69853691Y-116933774D01*
X69980716Y-116880989D01*
X70121517Y-116828676D01*
X70172143Y-116811110D01*
X70325186Y-116762032D01*
X70490214Y-116714964D01*
X70664772Y-116670419D01*
X70846410Y-116628910D01*
X71032674Y-116590950D01*
X71221112Y-116557052D01*
X71409270Y-116527729D01*
X71594696Y-116503496D01*
X71694974Y-116492487D01*
X71744604Y-116487428D01*
X71719385Y-116522814D01*
X71688378Y-116571946D01*
X71656496Y-116632896D01*
X71624854Y-116703103D01*
X71594565Y-116780007D01*
X71566746Y-116861048D01*
X71554122Y-116902282D01*
X71515862Y-117050942D01*
X71484769Y-117211264D01*
X71460885Y-117382263D01*
X71444252Y-117562958D01*
X71434914Y-117752364D01*
X71432913Y-117949498D01*
X71438289Y-118153376D01*
X71451087Y-118363015D01*
X71471349Y-118577432D01*
X71479141Y-118644628D01*
X71504034Y-118830747D01*
X71534663Y-119026417D01*
X71570365Y-119228160D01*
X71610479Y-119432500D01*
X71654342Y-119635960D01*
X71701291Y-119835061D01*
X71720351Y-119911000D01*
X71733331Y-119961800D01*
X71822601Y-119963844D01*
X71911870Y-119965888D01*
X71908443Y-119942073D01*
X71905858Y-119928681D01*
X71900359Y-119903355D01*
X71892444Y-119868268D01*
X71882607Y-119825593D01*
X71871344Y-119777506D01*
X71860828Y-119733200D01*
X71790361Y-119416598D01*
X71731208Y-119103488D01*
X71682647Y-118789487D01*
X71643958Y-118470213D01*
X71630394Y-118332571D01*
X71626509Y-118281719D01*
X71623071Y-118219789D01*
X71620115Y-118149229D01*
X71617677Y-118072486D01*
X71615790Y-117992007D01*
X71614490Y-117910238D01*
X71613812Y-117829627D01*
X71613797Y-117774906D01*
X72696527Y-117774906D01*
X72705396Y-117846543D01*
X72726143Y-117916110D01*
X72758803Y-117981826D01*
X72803408Y-118041909D01*
X72817575Y-118057006D01*
X72874977Y-118105376D01*
X72938580Y-118140865D01*
X73007350Y-118163170D01*
X73080252Y-118171993D01*
X73156253Y-118167034D01*
X73181180Y-118162462D01*
X73247893Y-118141217D01*
X73308471Y-118107958D01*
X73361959Y-118064230D01*
X73407404Y-118011577D01*
X73443849Y-117951544D01*
X73470340Y-117885675D01*
X73485923Y-117815516D01*
X73489641Y-117742610D01*
X73482031Y-117675800D01*
X73460914Y-117601357D01*
X73427871Y-117534829D01*
X73382245Y-117474980D01*
X73365946Y-117458086D01*
X73308324Y-117409792D01*
X73247024Y-117375304D01*
X73180864Y-117354131D01*
X73108661Y-117345780D01*
X73095604Y-117345600D01*
X73020279Y-117351721D01*
X72951725Y-117370411D01*
X72888665Y-117402162D01*
X72829820Y-117447465D01*
X72829168Y-117448062D01*
X72779155Y-117503312D01*
X72740850Y-117565404D01*
X72714288Y-117632555D01*
X72699502Y-117702983D01*
X72696527Y-117774906D01*
X71613797Y-117774906D01*
X71613790Y-117752622D01*
X71614460Y-117681669D01*
X71615856Y-117619214D01*
X71618012Y-117567707D01*
X71619237Y-117548800D01*
X71635802Y-117377529D01*
X71659035Y-117218898D01*
X71689047Y-117072598D01*
X71725948Y-116938319D01*
X71769850Y-116815752D01*
X71820864Y-116704588D01*
X71879101Y-116604518D01*
X71944673Y-116515231D01*
X72017690Y-116436420D01*
X72019958Y-116434251D01*
X72101661Y-116364284D01*
X72196518Y-116297132D01*
X72303362Y-116233258D01*
X72421024Y-116173125D01*
X72548337Y-116117195D01*
X72684132Y-116065932D01*
X72827242Y-116019798D01*
X72976499Y-115979255D01*
X73130734Y-115944768D01*
X73288780Y-115916799D01*
X73347143Y-115908310D01*
X73406280Y-115901575D01*
X73474705Y-115896051D01*
X73549066Y-115891829D01*
X73626006Y-115888999D01*
X73702174Y-115887649D01*
X73774215Y-115887869D01*
X73838776Y-115889750D01*
X73892501Y-115893380D01*
X73895403Y-115893665D01*
X74002167Y-115907756D01*
X74101574Y-115927652D01*
X74191694Y-115952862D01*
X74270597Y-115982898D01*
X74298364Y-115996041D01*
X74320933Y-116006834D01*
X74337916Y-116013831D01*
X74345751Y-116015570D01*
X74345817Y-116015517D01*
X74346394Y-116007606D01*
X74345966Y-115987871D01*
X74344639Y-115958956D01*
X74342521Y-115923508D01*
X74341469Y-115907999D01*
X74324390Y-115740935D01*
X74297168Y-115583657D01*
X74259681Y-115436052D01*
X74211804Y-115298007D01*
X74153414Y-115169412D01*
X74084388Y-115050153D01*
X74004602Y-114940119D01*
X73913932Y-114839197D01*
X73812256Y-114747275D01*
X73699449Y-114664242D01*
X73575388Y-114589984D01*
X73439950Y-114524391D01*
X73293011Y-114467349D01*
X73134448Y-114418747D01*
X72964137Y-114378472D01*
X72781954Y-114346412D01*
X72596029Y-114323286D01*
X72519837Y-114316484D01*
X72433092Y-114310353D01*
X72338188Y-114304953D01*
X72237519Y-114300344D01*
X72133480Y-114296586D01*
X72028464Y-114293739D01*
X71924866Y-114291864D01*
X71825080Y-114291020D01*
X71731500Y-114291268D01*
X71646522Y-114292668D01*
X71572538Y-114295280D01*
X71543743Y-114296850D01*
X71302441Y-114317652D01*
X71054048Y-114350412D01*
X70799242Y-114394826D01*
X70538702Y-114450591D01*
X70273105Y-114517407D01*
X70003131Y-114594968D01*
X69729458Y-114682974D01*
X69452763Y-114781121D01*
X69173726Y-114889108D01*
X68893024Y-115006630D01*
X68611336Y-115133386D01*
X68329340Y-115269073D01*
X68047715Y-115413389D01*
X67767139Y-115566030D01*
X67488290Y-115726695D01*
X67211847Y-115895080D01*
X66938488Y-116070883D01*
X66668891Y-116253802D01*
X66403734Y-116443533D01*
X66143696Y-116639775D01*
X65952094Y-116791322D01*
X65746892Y-116961540D01*
X65544619Y-117138366D01*
X65347246Y-117319915D01*
X65156739Y-117504300D01*
X64975069Y-117689635D01*
X64804203Y-117874035D01*
X64707008Y-117984228D01*
X64541419Y-118182921D01*
X64387750Y-118382111D01*
X64246218Y-118581387D01*
X64117045Y-118780336D01*
X64000449Y-118978545D01*
X63896651Y-119175602D01*
X63805870Y-119371094D01*
X63728325Y-119564609D01*
X63664238Y-119755734D01*
X63613826Y-119944057D01*
X63583207Y-120094047D01*
X63576060Y-120136878D01*
X63569434Y-120180132D01*
X63564007Y-120219143D01*
X63560460Y-120249241D01*
X63560137Y-120252647D01*
X63555118Y-120308027D01*
X63591522Y-120281873D01*
X63646181Y-120247203D01*
X63713379Y-120212285D01*
X63791175Y-120177859D01*
X63877628Y-120144663D01*
X63970796Y-120113437D01*
X64068739Y-120084921D01*
X64169515Y-120059855D01*
X64181372Y-120057188D01*
X64261429Y-120040991D01*
X64342056Y-120027677D01*
X64421316Y-120017372D01*
X64497277Y-120010201D01*
X64568004Y-120006291D01*
X64631563Y-120005766D01*
X64686022Y-120008752D01*
X64729444Y-120015374D01*
X64747413Y-120020433D01*
X64775403Y-120032639D01*
X64791314Y-120046004D01*
X64795047Y-120052514D01*
X64796458Y-120061157D01*
X64797525Y-120079969D01*
X64798246Y-120109410D01*
X64798619Y-120149941D01*
X64798642Y-120202022D01*
X64798314Y-120266114D01*
X64797633Y-120342678D01*
X64796598Y-120432174D01*
X64795206Y-120535064D01*
X64793455Y-120651806D01*
X64792604Y-120705657D01*
X64791046Y-120800368D01*
X64789481Y-120890886D01*
X64787930Y-120976165D01*
X64786417Y-121055159D01*
X64784964Y-121126821D01*
X64783593Y-121190104D01*
X64782328Y-121243963D01*
X64781190Y-121287351D01*
X64780202Y-121319221D01*
X64779387Y-121338527D01*
X64778840Y-121344286D01*
X64771214Y-121344850D01*
X64750116Y-121345439D01*
X64716587Y-121346044D01*
X64671669Y-121346655D01*
X64616404Y-121347261D01*
X64551834Y-121347854D01*
X64479000Y-121348424D01*
X64398944Y-121348961D01*
X64312708Y-121349456D01*
X64221334Y-121349898D01*
X64134548Y-121350247D01*
X63493842Y-121352580D01*
X63489327Y-121390161D01*
X63487173Y-121415706D01*
X63485560Y-121449299D01*
X63484779Y-121484479D01*
X63484749Y-121491203D01*
X63484686Y-121554663D01*
X63274015Y-121554663D01*
X63277022Y-121438164D01*
X63294483Y-121028313D01*
X63318532Y-120630209D01*
X63336126Y-120397228D01*
X63350500Y-120247748D01*
X63368663Y-120109151D01*
X63391277Y-119978148D01*
X63419002Y-119851447D01*
X63452499Y-119725760D01*
X63492430Y-119597796D01*
X63503076Y-119566286D01*
X63579247Y-119363756D01*
X63669517Y-119159412D01*
X63773626Y-118953566D01*
X63891316Y-118746529D01*
X64022327Y-118538612D01*
X64166400Y-118330124D01*
X64323275Y-118121379D01*
X64492694Y-117912685D01*
X64674398Y-117704355D01*
X64868126Y-117496699D01*
X65073621Y-117290029D01*
X65290622Y-117084654D01*
X65518870Y-116880887D01*
X65758107Y-116679038D01*
X66008073Y-116479417D01*
X66195229Y-116336735D01*
X66459771Y-116144150D01*
X66729463Y-115958053D01*
X67003568Y-115778767D01*
X67281348Y-115606612D01*
X67562066Y-115441910D01*
X67844983Y-115284984D01*
X68129361Y-115136154D01*
X68414464Y-114995743D01*
X68699553Y-114864072D01*
X68983890Y-114741462D01*
X69266738Y-114628236D01*
X69547360Y-114524715D01*
X69825017Y-114431221D01*
X70098971Y-114348075D01*
X70368485Y-114275599D01*
X70632822Y-114214115D01*
X70891243Y-114163945D01*
X71143011Y-114125409D01*
X71311630Y-114105856D01*
X71437343Y-114095470D01*
X71574504Y-114088120D01*
X71720380Y-114083745D01*
X71872238Y-114082287D01*
X72027347Y-114083686D01*
G36*
X93505295Y-181407180D02*
X93639963Y-181658991D01*
X93642183Y-181664288D01*
X93745736Y-182054782D01*
X93770002Y-182566548D01*
X93761987Y-182763800D01*
X93616425Y-183578382D01*
X93281650Y-184351431D01*
X92769252Y-185072534D01*
X92090821Y-185731279D01*
X91257948Y-186317251D01*
X90282222Y-186820037D01*
X89175234Y-187229225D01*
X88618811Y-187384754D01*
X87549203Y-187608835D01*
X86346138Y-187781346D01*
X85073906Y-187897475D01*
X83796794Y-187952413D01*
X82579093Y-187941349D01*
X81817794Y-187893669D01*
X81146477Y-187817857D01*
X80415859Y-187708431D01*
X79685699Y-187576539D01*
X79015756Y-187433329D01*
X78465790Y-187289948D01*
X78299483Y-187237328D01*
X77944571Y-187107985D01*
X77584200Y-186962402D01*
X77264738Y-186821284D01*
X77032552Y-186705336D01*
X76934012Y-186635264D01*
X76934931Y-186628001D01*
X77041807Y-186636606D01*
X77299721Y-186688639D01*
X77663563Y-186774470D01*
X77888535Y-186831568D01*
X78753580Y-187026307D01*
X79644230Y-187162774D01*
X80604167Y-187244755D01*
X81677073Y-187276040D01*
X82852395Y-187261933D01*
X84681181Y-187146284D01*
X86354828Y-186903226D01*
X87877380Y-186531650D01*
X89252881Y-186030444D01*
X90485375Y-185398495D01*
X91104331Y-184994385D01*
X91772300Y-184440066D01*
X92347296Y-183803376D01*
X92803532Y-183122054D01*
X93115222Y-182433837D01*
X93249120Y-181855532D01*
X93311107Y-181504850D01*
X93396087Y-181355600D01*
X93505295Y-181407180D01*
X93505295Y-181407180D01*
G37*
X93505295Y-181407180D02*
X93639963Y-181658991D01*
X93642183Y-181664288D01*
X93745736Y-182054782D01*
X93770002Y-182566548D01*
X93761987Y-182763800D01*
X93616425Y-183578382D01*
X93281650Y-184351431D01*
X92769252Y-185072534D01*
X92090821Y-185731279D01*
X91257948Y-186317251D01*
X90282222Y-186820037D01*
X89175234Y-187229225D01*
X88618811Y-187384754D01*
X87549203Y-187608835D01*
X86346138Y-187781346D01*
X85073906Y-187897475D01*
X83796794Y-187952413D01*
X82579093Y-187941349D01*
X81817794Y-187893669D01*
X81146477Y-187817857D01*
X80415859Y-187708431D01*
X79685699Y-187576539D01*
X79015756Y-187433329D01*
X78465790Y-187289948D01*
X78299483Y-187237328D01*
X77944571Y-187107985D01*
X77584200Y-186962402D01*
X77264738Y-186821284D01*
X77032552Y-186705336D01*
X76934012Y-186635264D01*
X76934931Y-186628001D01*
X77041807Y-186636606D01*
X77299721Y-186688639D01*
X77663563Y-186774470D01*
X77888535Y-186831568D01*
X78753580Y-187026307D01*
X79644230Y-187162774D01*
X80604167Y-187244755D01*
X81677073Y-187276040D01*
X82852395Y-187261933D01*
X84681181Y-187146284D01*
X86354828Y-186903226D01*
X87877380Y-186531650D01*
X89252881Y-186030444D01*
X90485375Y-185398495D01*
X91104331Y-184994385D01*
X91772300Y-184440066D01*
X92347296Y-183803376D01*
X92803532Y-183122054D01*
X93115222Y-182433837D01*
X93249120Y-181855532D01*
X93311107Y-181504850D01*
X93396087Y-181355600D01*
X93505295Y-181407180D01*
G36*
X76815200Y-186527600D02*
X76764400Y-186578400D01*
X76713600Y-186527600D01*
X76764400Y-186476800D01*
X76815200Y-186527600D01*
X76815200Y-186527600D01*
G37*
X76815200Y-186527600D02*
X76764400Y-186578400D01*
X76713600Y-186527600D01*
X76764400Y-186476800D01*
X76815200Y-186527600D01*
G36*
X80167650Y-177702682D02*
X80314638Y-177863406D01*
X80446216Y-178188949D01*
X80453487Y-178627895D01*
X80336784Y-179203959D01*
X80333570Y-179215658D01*
X80242964Y-179543641D01*
X80119228Y-179990913D01*
X79983535Y-180480955D01*
X79926831Y-180685600D01*
X79738819Y-181531494D01*
X79620388Y-182418477D01*
X79602405Y-182666800D01*
X79566208Y-183249223D01*
X79529804Y-183657740D01*
X79487338Y-183921565D01*
X79432957Y-184069913D01*
X79360809Y-184131999D01*
X79307239Y-184140000D01*
X79172912Y-184043166D01*
X79065383Y-183769537D01*
X78990379Y-183344425D01*
X78953628Y-182793138D01*
X78950868Y-182565200D01*
X78971748Y-182026808D01*
X79039282Y-181480395D01*
X79162708Y-180879628D01*
X79351265Y-180178173D01*
X79566284Y-179478680D01*
X79691313Y-179070600D01*
X79782281Y-178740558D01*
X79827751Y-178532110D01*
X79827796Y-178482729D01*
X79748486Y-178507155D01*
X79602580Y-178681495D01*
X79384719Y-179013948D01*
X79089547Y-179512714D01*
X78711704Y-180185992D01*
X78694800Y-180216661D01*
X78222719Y-181045527D01*
X77822873Y-181686702D01*
X77494015Y-182141945D01*
X77234897Y-182413014D01*
X77075554Y-182498726D01*
X76968375Y-182499948D01*
X76921514Y-182419144D01*
X76923323Y-182211200D01*
X76944553Y-181991393D01*
X76999886Y-181670048D01*
X77104535Y-181221046D01*
X77242400Y-180709112D01*
X77366240Y-180296314D01*
X77507645Y-179844908D01*
X77623347Y-179469139D01*
X77701334Y-179208466D01*
X77729600Y-179102514D01*
X77686922Y-179052341D01*
X77568274Y-179159968D01*
X77387731Y-179401038D01*
X77159372Y-179751192D01*
X76897272Y-180186073D01*
X76615508Y-180681322D01*
X76328158Y-181212582D01*
X76049297Y-181755494D01*
X75793002Y-182285701D01*
X75573351Y-182778845D01*
X75496132Y-182967239D01*
X75248571Y-183563756D01*
X75019583Y-184065005D01*
X74821966Y-184446034D01*
X74668519Y-184681893D01*
X74581863Y-184749600D01*
X74462444Y-184670519D01*
X74380374Y-184553079D01*
X74285855Y-184200482D01*
X74285881Y-183692157D01*
X74376506Y-183050111D01*
X74553785Y-182296353D01*
X74813773Y-181452891D01*
X75055196Y-180788829D01*
X75302722Y-180136388D01*
X75476045Y-179650310D01*
X75580727Y-179310066D01*
X75622333Y-179095131D01*
X75606426Y-178984978D01*
X75551328Y-178958400D01*
X75388878Y-179030138D01*
X75132816Y-179222152D01*
X74820835Y-179499637D01*
X74490628Y-179827790D01*
X74179887Y-180171809D01*
X74012246Y-180379494D01*
X73755290Y-180698187D01*
X73589195Y-180851834D01*
X73497496Y-180847929D01*
X73463724Y-180693968D01*
X73462400Y-180629754D01*
X73506375Y-180343640D01*
X73652150Y-180041026D01*
X73920491Y-179690004D01*
X74332170Y-179258667D01*
X74394592Y-179197660D01*
X74905794Y-178737449D01*
X75334407Y-178436043D01*
X75704021Y-178278997D01*
X75946554Y-178247200D01*
X76103149Y-178264106D01*
X76179316Y-178350342D01*
X76203608Y-178559181D01*
X76205223Y-178729800D01*
X76163816Y-179082928D01*
X76044895Y-179591425D01*
X75855788Y-180226020D01*
X75753754Y-180533200D01*
X75598918Y-180995812D01*
X75481233Y-181365808D01*
X75409569Y-181613715D01*
X75392794Y-181710063D01*
X75402144Y-181701600D01*
X75487659Y-181557081D01*
X75648131Y-181274398D01*
X75860999Y-180893658D01*
X76103702Y-180454965D01*
X76116562Y-180431600D01*
X76590300Y-179606539D01*
X77004057Y-178965511D01*
X77364766Y-178500680D01*
X77679358Y-178204212D01*
X77954767Y-178068274D01*
X78194237Y-178083595D01*
X78291350Y-178155272D01*
X78331966Y-178305887D01*
X78325504Y-178586746D01*
X78313251Y-178731951D01*
X78244949Y-179168570D01*
X78128481Y-179654020D01*
X78045335Y-179920078D01*
X77910930Y-180317896D01*
X77852113Y-180538771D01*
X77870590Y-180581144D01*
X77968072Y-180443455D01*
X78146266Y-180124146D01*
X78406880Y-179621658D01*
X78436743Y-179562846D01*
X78814511Y-178865806D01*
X79148272Y-178353845D01*
X79445520Y-178015481D01*
X79447767Y-178013446D01*
X79762389Y-177757847D01*
X79989902Y-177656413D01*
X80167650Y-177702682D01*
X80167650Y-177702682D01*
G37*
X80167650Y-177702682D02*
X80314638Y-177863406D01*
X80446216Y-178188949D01*
X80453487Y-178627895D01*
X80336784Y-179203959D01*
X80333570Y-179215658D01*
X80242964Y-179543641D01*
X80119228Y-179990913D01*
X79983535Y-180480955D01*
X79926831Y-180685600D01*
X79738819Y-181531494D01*
X79620388Y-182418477D01*
X79602405Y-182666800D01*
X79566208Y-183249223D01*
X79529804Y-183657740D01*
X79487338Y-183921565D01*
X79432957Y-184069913D01*
X79360809Y-184131999D01*
X79307239Y-184140000D01*
X79172912Y-184043166D01*
X79065383Y-183769537D01*
X78990379Y-183344425D01*
X78953628Y-182793138D01*
X78950868Y-182565200D01*
X78971748Y-182026808D01*
X79039282Y-181480395D01*
X79162708Y-180879628D01*
X79351265Y-180178173D01*
X79566284Y-179478680D01*
X79691313Y-179070600D01*
X79782281Y-178740558D01*
X79827751Y-178532110D01*
X79827796Y-178482729D01*
X79748486Y-178507155D01*
X79602580Y-178681495D01*
X79384719Y-179013948D01*
X79089547Y-179512714D01*
X78711704Y-180185992D01*
X78694800Y-180216661D01*
X78222719Y-181045527D01*
X77822873Y-181686702D01*
X77494015Y-182141945D01*
X77234897Y-182413014D01*
X77075554Y-182498726D01*
X76968375Y-182499948D01*
X76921514Y-182419144D01*
X76923323Y-182211200D01*
X76944553Y-181991393D01*
X76999886Y-181670048D01*
X77104535Y-181221046D01*
X77242400Y-180709112D01*
X77366240Y-180296314D01*
X77507645Y-179844908D01*
X77623347Y-179469139D01*
X77701334Y-179208466D01*
X77729600Y-179102514D01*
X77686922Y-179052341D01*
X77568274Y-179159968D01*
X77387731Y-179401038D01*
X77159372Y-179751192D01*
X76897272Y-180186073D01*
X76615508Y-180681322D01*
X76328158Y-181212582D01*
X76049297Y-181755494D01*
X75793002Y-182285701D01*
X75573351Y-182778845D01*
X75496132Y-182967239D01*
X75248571Y-183563756D01*
X75019583Y-184065005D01*
X74821966Y-184446034D01*
X74668519Y-184681893D01*
X74581863Y-184749600D01*
X74462444Y-184670519D01*
X74380374Y-184553079D01*
X74285855Y-184200482D01*
X74285881Y-183692157D01*
X74376506Y-183050111D01*
X74553785Y-182296353D01*
X74813773Y-181452891D01*
X75055196Y-180788829D01*
X75302722Y-180136388D01*
X75476045Y-179650310D01*
X75580727Y-179310066D01*
X75622333Y-179095131D01*
X75606426Y-178984978D01*
X75551328Y-178958400D01*
X75388878Y-179030138D01*
X75132816Y-179222152D01*
X74820835Y-179499637D01*
X74490628Y-179827790D01*
X74179887Y-180171809D01*
X74012246Y-180379494D01*
X73755290Y-180698187D01*
X73589195Y-180851834D01*
X73497496Y-180847929D01*
X73463724Y-180693968D01*
X73462400Y-180629754D01*
X73506375Y-180343640D01*
X73652150Y-180041026D01*
X73920491Y-179690004D01*
X74332170Y-179258667D01*
X74394592Y-179197660D01*
X74905794Y-178737449D01*
X75334407Y-178436043D01*
X75704021Y-178278997D01*
X75946554Y-178247200D01*
X76103149Y-178264106D01*
X76179316Y-178350342D01*
X76203608Y-178559181D01*
X76205223Y-178729800D01*
X76163816Y-179082928D01*
X76044895Y-179591425D01*
X75855788Y-180226020D01*
X75753754Y-180533200D01*
X75598918Y-180995812D01*
X75481233Y-181365808D01*
X75409569Y-181613715D01*
X75392794Y-181710063D01*
X75402144Y-181701600D01*
X75487659Y-181557081D01*
X75648131Y-181274398D01*
X75860999Y-180893658D01*
X76103702Y-180454965D01*
X76116562Y-180431600D01*
X76590300Y-179606539D01*
X77004057Y-178965511D01*
X77364766Y-178500680D01*
X77679358Y-178204212D01*
X77954767Y-178068274D01*
X78194237Y-178083595D01*
X78291350Y-178155272D01*
X78331966Y-178305887D01*
X78325504Y-178586746D01*
X78313251Y-178731951D01*
X78244949Y-179168570D01*
X78128481Y-179654020D01*
X78045335Y-179920078D01*
X77910930Y-180317896D01*
X77852113Y-180538771D01*
X77870590Y-180581144D01*
X77968072Y-180443455D01*
X78146266Y-180124146D01*
X78406880Y-179621658D01*
X78436743Y-179562846D01*
X78814511Y-178865806D01*
X79148272Y-178353845D01*
X79445520Y-178015481D01*
X79447767Y-178013446D01*
X79762389Y-177757847D01*
X79989902Y-177656413D01*
X80167650Y-177702682D01*
G36*
X82720279Y-178914917D02*
X82776768Y-178930522D01*
X82869849Y-178968769D01*
X82949212Y-179031348D01*
X83023910Y-179142978D01*
X83102997Y-179328377D01*
X83195525Y-179612263D01*
X83310549Y-180019353D01*
X83457121Y-180574366D01*
X83641814Y-181292331D01*
X83811756Y-181957870D01*
X83967727Y-182572008D01*
X84101584Y-183102412D01*
X84205182Y-183516748D01*
X84270376Y-183782683D01*
X84285968Y-183849624D01*
X84349745Y-184140000D01*
X83681272Y-184140000D01*
X83320457Y-184133457D01*
X83118338Y-184105171D01*
X83030598Y-184042150D01*
X83012800Y-183944057D01*
X82922491Y-183672558D01*
X82675513Y-183492485D01*
X82319742Y-183430355D01*
X81972517Y-183460442D01*
X81776808Y-183566453D01*
X81686402Y-183777492D01*
X81676842Y-183835200D01*
X81641155Y-183975145D01*
X81550790Y-184055188D01*
X81356326Y-184096272D01*
X81008345Y-184119345D01*
X81006200Y-184119448D01*
X80655199Y-184128693D01*
X80462135Y-184107289D01*
X80382780Y-184045075D01*
X80371200Y-183973577D01*
X80395986Y-183829367D01*
X80465635Y-183517858D01*
X80573080Y-183068205D01*
X80711254Y-182509561D01*
X80797474Y-182169403D01*
X82023324Y-182169403D01*
X82038655Y-182273726D01*
X82177629Y-182386237D01*
X82326545Y-182394525D01*
X82475634Y-182342833D01*
X82539085Y-182204863D01*
X82548164Y-181955600D01*
X82519107Y-181553706D01*
X82455405Y-181229421D01*
X82368935Y-181030257D01*
X82306867Y-180990400D01*
X82235966Y-181080718D01*
X82158631Y-181308516D01*
X82088392Y-181609055D01*
X82038780Y-181917596D01*
X82023324Y-182169403D01*
X80797474Y-182169403D01*
X80873091Y-181871081D01*
X80999509Y-181381348D01*
X81627818Y-178965239D01*
X82059958Y-178900436D01*
X82406182Y-178881157D01*
X82720279Y-178914917D01*
X82720279Y-178914917D01*
G37*
X82720279Y-178914917D02*
X82776768Y-178930522D01*
X82869849Y-178968769D01*
X82949212Y-179031348D01*
X83023910Y-179142978D01*
X83102997Y-179328377D01*
X83195525Y-179612263D01*
X83310549Y-180019353D01*
X83457121Y-180574366D01*
X83641814Y-181292331D01*
X83811756Y-181957870D01*
X83967727Y-182572008D01*
X84101584Y-183102412D01*
X84205182Y-183516748D01*
X84270376Y-183782683D01*
X84285968Y-183849624D01*
X84349745Y-184140000D01*
X83681272Y-184140000D01*
X83320457Y-184133457D01*
X83118338Y-184105171D01*
X83030598Y-184042150D01*
X83012800Y-183944057D01*
X82922491Y-183672558D01*
X82675513Y-183492485D01*
X82319742Y-183430355D01*
X81972517Y-183460442D01*
X81776808Y-183566453D01*
X81686402Y-183777492D01*
X81676842Y-183835200D01*
X81641155Y-183975145D01*
X81550790Y-184055188D01*
X81356326Y-184096272D01*
X81008345Y-184119345D01*
X81006200Y-184119448D01*
X80655199Y-184128693D01*
X80462135Y-184107289D01*
X80382780Y-184045075D01*
X80371200Y-183973577D01*
X80395986Y-183829367D01*
X80465635Y-183517858D01*
X80573080Y-183068205D01*
X80711254Y-182509561D01*
X80797474Y-182169403D01*
X82023324Y-182169403D01*
X82038655Y-182273726D01*
X82177629Y-182386237D01*
X82326545Y-182394525D01*
X82475634Y-182342833D01*
X82539085Y-182204863D01*
X82548164Y-181955600D01*
X82519107Y-181553706D01*
X82455405Y-181229421D01*
X82368935Y-181030257D01*
X82306867Y-180990400D01*
X82235966Y-181080718D01*
X82158631Y-181308516D01*
X82088392Y-181609055D01*
X82038780Y-181917596D01*
X82023324Y-182169403D01*
X80797474Y-182169403D01*
X80873091Y-181871081D01*
X80999509Y-181381348D01*
X81627818Y-178965239D01*
X82059958Y-178900436D01*
X82406182Y-178881157D01*
X82720279Y-178914917D01*
G36*
X88411994Y-180388363D02*
X88499514Y-180431762D01*
X88678780Y-180560498D01*
X88812138Y-180753779D01*
X88905594Y-181039035D01*
X88965154Y-181443699D01*
X88996825Y-181995201D01*
X89006614Y-182720972D01*
X89006633Y-182747848D01*
X89007200Y-184149696D01*
X87737200Y-184089200D01*
X87686400Y-182979751D01*
X87648523Y-182400011D01*
X87597113Y-182021684D01*
X87531963Y-181843420D01*
X87511996Y-181829416D01*
X87453410Y-181869356D01*
X87410560Y-182047861D01*
X87380543Y-182386054D01*
X87360460Y-182905059D01*
X87359596Y-182938865D01*
X87330800Y-184089200D01*
X86111600Y-184089200D01*
X86082803Y-182938865D01*
X86063176Y-182409426D01*
X86033774Y-182061948D01*
X85991696Y-181875307D01*
X85934041Y-181828378D01*
X85930403Y-181829416D01*
X85861510Y-181953908D01*
X85806411Y-182278099D01*
X85764902Y-182803337D01*
X85756000Y-182979751D01*
X85705200Y-184089200D01*
X84435200Y-184149696D01*
X84435200Y-180380800D01*
X85047988Y-180380800D01*
X85422424Y-180396048D01*
X85634629Y-180447866D01*
X85720941Y-180537586D01*
X85787567Y-180640398D01*
X85896784Y-180588686D01*
X85946353Y-180545501D01*
X86171927Y-180406844D01*
X86388442Y-180327543D01*
X86604312Y-180312406D01*
X86803789Y-180412546D01*
X86972642Y-180565812D01*
X87280000Y-180873169D01*
X87576984Y-180576184D01*
X87852469Y-180351347D01*
X88105598Y-180292686D01*
X88411994Y-180388363D01*
X88411994Y-180388363D01*
G37*
X88411994Y-180388363D02*
X88499514Y-180431762D01*
X88678780Y-180560498D01*
X88812138Y-180753779D01*
X88905594Y-181039035D01*
X88965154Y-181443699D01*
X88996825Y-181995201D01*
X89006614Y-182720972D01*
X89006633Y-182747848D01*
X89007200Y-184149696D01*
X87737200Y-184089200D01*
X87686400Y-182979751D01*
X87648523Y-182400011D01*
X87597113Y-182021684D01*
X87531963Y-181843420D01*
X87511996Y-181829416D01*
X87453410Y-181869356D01*
X87410560Y-182047861D01*
X87380543Y-182386054D01*
X87360460Y-182905059D01*
X87359596Y-182938865D01*
X87330800Y-184089200D01*
X86111600Y-184089200D01*
X86082803Y-182938865D01*
X86063176Y-182409426D01*
X86033774Y-182061948D01*
X85991696Y-181875307D01*
X85934041Y-181828378D01*
X85930403Y-181829416D01*
X85861510Y-181953908D01*
X85806411Y-182278099D01*
X85764902Y-182803337D01*
X85756000Y-182979751D01*
X85705200Y-184089200D01*
X84435200Y-184149696D01*
X84435200Y-180380800D01*
X85047988Y-180380800D01*
X85422424Y-180396048D01*
X85634629Y-180447866D01*
X85720941Y-180537586D01*
X85787567Y-180640398D01*
X85896784Y-180588686D01*
X85946353Y-180545501D01*
X86171927Y-180406844D01*
X86388442Y-180327543D01*
X86604312Y-180312406D01*
X86803789Y-180412546D01*
X86972642Y-180565812D01*
X87280000Y-180873169D01*
X87576984Y-180576184D01*
X87852469Y-180351347D01*
X88105598Y-180292686D01*
X88411994Y-180388363D01*
G36*
X91039200Y-184140000D02*
X89616800Y-184140000D01*
X89616800Y-178755200D01*
X91039200Y-178755200D01*
X91039200Y-184140000D01*
X91039200Y-184140000D01*
G37*
X91039200Y-184140000D02*
X89616800Y-184140000D01*
X89616800Y-178755200D01*
X91039200Y-178755200D01*
X91039200Y-184140000D01*
G36*
X82176147Y-175288271D02*
X83407753Y-175374639D01*
X84502029Y-175522415D01*
X85488586Y-175736528D01*
X86397037Y-176021911D01*
X87102200Y-176311538D01*
X87484158Y-176492912D01*
X87709625Y-176615814D01*
X87771747Y-176673570D01*
X87663670Y-176659504D01*
X87378540Y-176566941D01*
X87356200Y-176558942D01*
X86309001Y-176256481D01*
X85115955Y-176040157D01*
X83814963Y-175909347D01*
X82443924Y-175863430D01*
X81040739Y-175901781D01*
X79643308Y-176023779D01*
X78289531Y-176228801D01*
X77017308Y-176516225D01*
X76269622Y-176741044D01*
X74969231Y-177246701D01*
X73855180Y-177830264D01*
X72927857Y-178491380D01*
X72187653Y-179229700D01*
X71634956Y-180044871D01*
X71270154Y-180936542D01*
X71170642Y-181346000D01*
X71050831Y-181955600D01*
X70821696Y-181455445D01*
X70644929Y-180835457D01*
X70649824Y-180175241D01*
X70824181Y-179495461D01*
X71155799Y-178816782D01*
X71632479Y-178159869D01*
X72242020Y-177545388D01*
X72972223Y-176994002D01*
X73700205Y-176579707D01*
X74663638Y-176154575D01*
X75658308Y-175819332D01*
X76716038Y-175568035D01*
X77868649Y-175394743D01*
X79147962Y-175293517D01*
X80585801Y-175258415D01*
X80777600Y-175258379D01*
X82176147Y-175288271D01*
X82176147Y-175288271D01*
G37*
X82176147Y-175288271D02*
X83407753Y-175374639D01*
X84502029Y-175522415D01*
X85488586Y-175736528D01*
X86397037Y-176021911D01*
X87102200Y-176311538D01*
X87484158Y-176492912D01*
X87709625Y-176615814D01*
X87771747Y-176673570D01*
X87663670Y-176659504D01*
X87378540Y-176566941D01*
X87356200Y-176558942D01*
X86309001Y-176256481D01*
X85115955Y-176040157D01*
X83814963Y-175909347D01*
X82443924Y-175863430D01*
X81040739Y-175901781D01*
X79643308Y-176023779D01*
X78289531Y-176228801D01*
X77017308Y-176516225D01*
X76269622Y-176741044D01*
X74969231Y-177246701D01*
X73855180Y-177830264D01*
X72927857Y-178491380D01*
X72187653Y-179229700D01*
X71634956Y-180044871D01*
X71270154Y-180936542D01*
X71170642Y-181346000D01*
X71050831Y-181955600D01*
X70821696Y-181455445D01*
X70644929Y-180835457D01*
X70649824Y-180175241D01*
X70824181Y-179495461D01*
X71155799Y-178816782D01*
X71632479Y-178159869D01*
X72242020Y-177545388D01*
X72972223Y-176994002D01*
X73700205Y-176579707D01*
X74663638Y-176154575D01*
X75658308Y-175819332D01*
X76716038Y-175568035D01*
X77868649Y-175394743D01*
X79147962Y-175293517D01*
X80585801Y-175258415D01*
X80777600Y-175258379D01*
X82176147Y-175288271D01*
D13*
X50606012Y-52493872D02*
X51366715Y-52770745D01*
X51472496Y-52758571D01*
X51533530Y-52730111D01*
X51610851Y-52656903D01*
X51675998Y-52477913D01*
X51663824Y-52372132D01*
X51635363Y-52311098D01*
X51562156Y-52233778D01*
X50801452Y-51956904D01*
X52083165Y-51359232D02*
X51887724Y-51896199D01*
X51985444Y-51627716D02*
X51045752Y-51285696D01*
X51147420Y-51424050D01*
X51204341Y-51546118D01*
X51216515Y-51651899D01*
X68410135Y-57886737D02*
X68068016Y-58620415D01*
X68070924Y-58726854D01*
X68093957Y-58790136D01*
X68160147Y-58873543D01*
X68332778Y-58954042D01*
X68439217Y-58951134D01*
X68502499Y-58928101D01*
X68585906Y-58861911D01*
X68928026Y-58128233D01*
X69276194Y-58395670D02*
X69339476Y-58372637D01*
X69445916Y-58369729D01*
X69661704Y-58470353D01*
X69727894Y-58553759D01*
X69750927Y-58617042D01*
X69753835Y-58723481D01*
X69713586Y-58809796D01*
X69610054Y-58919144D01*
X68850667Y-59195538D01*
X69411715Y-59457159D01*
X26622381Y-90711905D02*
X27431905Y-90711905D01*
X27527143Y-90664286D01*
X27574762Y-90616667D01*
X27622381Y-90521429D01*
X27622381Y-90330952D01*
X27574762Y-90235714D01*
X27527143Y-90188095D01*
X27431905Y-90140476D01*
X26622381Y-90140476D01*
X26622381Y-89759524D02*
X26622381Y-89140476D01*
X27003333Y-89473810D01*
X27003333Y-89330952D01*
X27050952Y-89235714D01*
X27098571Y-89188095D01*
X27193810Y-89140476D01*
X27431905Y-89140476D01*
X27527143Y-89188095D01*
X27574762Y-89235714D01*
X27622381Y-89330952D01*
X27622381Y-89616667D01*
X27574762Y-89711905D01*
X27527143Y-89759524D01*
X52622381Y-96711905D02*
X53431905Y-96711905D01*
X53527143Y-96664286D01*
X53574762Y-96616667D01*
X53622381Y-96521429D01*
X53622381Y-96330952D01*
X53574762Y-96235714D01*
X53527143Y-96188095D01*
X53431905Y-96140476D01*
X52622381Y-96140476D01*
X52955714Y-95235714D02*
X53622381Y-95235714D01*
X52574762Y-95473810D02*
X53289048Y-95711905D01*
X53289048Y-95092857D01*
X78622381Y-104711905D02*
X79431905Y-104711905D01*
X79527143Y-104664286D01*
X79574762Y-104616667D01*
X79622381Y-104521429D01*
X79622381Y-104330952D01*
X79574762Y-104235714D01*
X79527143Y-104188095D01*
X79431905Y-104140476D01*
X78622381Y-104140476D01*
X78622381Y-103188095D02*
X78622381Y-103664286D01*
X79098571Y-103711905D01*
X79050952Y-103664286D01*
X79003333Y-103569048D01*
X79003333Y-103330952D01*
X79050952Y-103235714D01*
X79098571Y-103188095D01*
X79193810Y-103140476D01*
X79431905Y-103140476D01*
X79527143Y-103188095D01*
X79574762Y-103235714D01*
X79622381Y-103330952D01*
X79622381Y-103569048D01*
X79574762Y-103664286D01*
X79527143Y-103711905D01*
X36122381Y-132211905D02*
X36931905Y-132211905D01*
X37027143Y-132164286D01*
X37074762Y-132116667D01*
X37122381Y-132021429D01*
X37122381Y-131830952D01*
X37074762Y-131735714D01*
X37027143Y-131688095D01*
X36931905Y-131640476D01*
X36122381Y-131640476D01*
X36122381Y-130735714D02*
X36122381Y-130926191D01*
X36170000Y-131021429D01*
X36217619Y-131069048D01*
X36360476Y-131164286D01*
X36550952Y-131211905D01*
X36931905Y-131211905D01*
X37027143Y-131164286D01*
X37074762Y-131116667D01*
X37122381Y-131021429D01*
X37122381Y-130830952D01*
X37074762Y-130735714D01*
X37027143Y-130688095D01*
X36931905Y-130640476D01*
X36693810Y-130640476D01*
X36598571Y-130688095D01*
X36550952Y-130735714D01*
X36503333Y-130830952D01*
X36503333Y-131021429D01*
X36550952Y-131116667D01*
X36598571Y-131164286D01*
X36693810Y-131211905D01*
X58622381Y-144711905D02*
X59431905Y-144711905D01*
X59527143Y-144664286D01*
X59574762Y-144616667D01*
X59622381Y-144521429D01*
X59622381Y-144330952D01*
X59574762Y-144235714D01*
X59527143Y-144188095D01*
X59431905Y-144140476D01*
X58622381Y-144140476D01*
X58622381Y-143759524D02*
X58622381Y-143092857D01*
X59622381Y-143521429D01*
X81122381Y-157211905D02*
X81931905Y-157211905D01*
X82027143Y-157164286D01*
X82074762Y-157116667D01*
X82122381Y-157021429D01*
X82122381Y-156830952D01*
X82074762Y-156735714D01*
X82027143Y-156688095D01*
X81931905Y-156640476D01*
X81122381Y-156640476D01*
X81550952Y-156021429D02*
X81503333Y-156116667D01*
X81455714Y-156164286D01*
X81360476Y-156211905D01*
X81312857Y-156211905D01*
X81217619Y-156164286D01*
X81170000Y-156116667D01*
X81122381Y-156021429D01*
X81122381Y-155830952D01*
X81170000Y-155735714D01*
X81217619Y-155688095D01*
X81312857Y-155640476D01*
X81360476Y-155640476D01*
X81455714Y-155688095D01*
X81503333Y-155735714D01*
X81550952Y-155830952D01*
X81550952Y-156021429D01*
X81598571Y-156116667D01*
X81646190Y-156164286D01*
X81741429Y-156211905D01*
X81931905Y-156211905D01*
X82027143Y-156164286D01*
X82074762Y-156116667D01*
X82122381Y-156021429D01*
X82122381Y-155830952D01*
X82074762Y-155735714D01*
X82027143Y-155688095D01*
X81931905Y-155640476D01*
X81741429Y-155640476D01*
X81646190Y-155688095D01*
X81598571Y-155735714D01*
X81550952Y-155830952D01*
X75622381Y-205711905D02*
X76431905Y-205711905D01*
X76527143Y-205664286D01*
X76574762Y-205616667D01*
X76622381Y-205521429D01*
X76622381Y-205330952D01*
X76574762Y-205235714D01*
X76527143Y-205188095D01*
X76431905Y-205140476D01*
X75622381Y-205140476D01*
X76622381Y-204616667D02*
X76622381Y-204426191D01*
X76574762Y-204330952D01*
X76527143Y-204283333D01*
X76384286Y-204188095D01*
X76193810Y-204140476D01*
X75812857Y-204140476D01*
X75717619Y-204188095D01*
X75670000Y-204235714D01*
X75622381Y-204330952D01*
X75622381Y-204521429D01*
X75670000Y-204616667D01*
X75717619Y-204664286D01*
X75812857Y-204711905D01*
X76050952Y-204711905D01*
X76146190Y-204664286D01*
X76193810Y-204616667D01*
X76241429Y-204521429D01*
X76241429Y-204330952D01*
X76193810Y-204235714D01*
X76146190Y-204188095D01*
X76050952Y-204140476D01*
X71311905Y-254882381D02*
X71311905Y-255691905D01*
X71359524Y-255787143D01*
X71407143Y-255834762D01*
X71502381Y-255882381D01*
X71692858Y-255882381D01*
X71788096Y-255834762D01*
X71835715Y-255787143D01*
X71883334Y-255691905D01*
X71883334Y-254882381D01*
X72883334Y-255882381D02*
X72311905Y-255882381D01*
X72597619Y-255882381D02*
X72597619Y-254882381D01*
X72502381Y-255025238D01*
X72407143Y-255120476D01*
X72311905Y-255168095D01*
X73502381Y-254882381D02*
X73597620Y-254882381D01*
X73692858Y-254930000D01*
X73740477Y-254977619D01*
X73788096Y-255072857D01*
X73835715Y-255263333D01*
X73835715Y-255501429D01*
X73788096Y-255691905D01*
X73740477Y-255787143D01*
X73692858Y-255834762D01*
X73597620Y-255882381D01*
X73502381Y-255882381D01*
X73407143Y-255834762D01*
X73359524Y-255787143D01*
X73311905Y-255691905D01*
X73264286Y-255501429D01*
X73264286Y-255263333D01*
X73311905Y-255072857D01*
X73359524Y-254977619D01*
X73407143Y-254930000D01*
X73502381Y-254882381D01*
X74622381Y-277188095D02*
X75431905Y-277188095D01*
X75527143Y-277140476D01*
X75574762Y-277092857D01*
X75622381Y-276997619D01*
X75622381Y-276807142D01*
X75574762Y-276711904D01*
X75527143Y-276664285D01*
X75431905Y-276616666D01*
X74622381Y-276616666D01*
X75622381Y-275616666D02*
X75622381Y-276188095D01*
X75622381Y-275902381D02*
X74622381Y-275902381D01*
X74765238Y-275997619D01*
X74860476Y-276092857D01*
X74908095Y-276188095D01*
X75622381Y-274664285D02*
X75622381Y-275235714D01*
X75622381Y-274950000D02*
X74622381Y-274950000D01*
X74765238Y-275045238D01*
X74860476Y-275140476D01*
X74908095Y-275235714D01*
X49622381Y-277188095D02*
X50431905Y-277188095D01*
X50527143Y-277140476D01*
X50574762Y-277092857D01*
X50622381Y-276997619D01*
X50622381Y-276807142D01*
X50574762Y-276711904D01*
X50527143Y-276664285D01*
X50431905Y-276616666D01*
X49622381Y-276616666D01*
X50622381Y-275616666D02*
X50622381Y-276188095D01*
X50622381Y-275902381D02*
X49622381Y-275902381D01*
X49765238Y-275997619D01*
X49860476Y-276092857D01*
X49908095Y-276188095D01*
X49717619Y-275235714D02*
X49670000Y-275188095D01*
X49622381Y-275092857D01*
X49622381Y-274854761D01*
X49670000Y-274759523D01*
X49717619Y-274711904D01*
X49812857Y-274664285D01*
X49908095Y-274664285D01*
X50050952Y-274711904D01*
X50622381Y-275283333D01*
X50622381Y-274664285D01*
X57466667Y-192167381D02*
X57466667Y-192881667D01*
X57419047Y-193024524D01*
X57323809Y-193119762D01*
X57180952Y-193167381D01*
X57085714Y-193167381D01*
X58466667Y-193167381D02*
X57895238Y-193167381D01*
X58180952Y-193167381D02*
X58180952Y-192167381D01*
X58085714Y-192310238D01*
X57990476Y-192405476D01*
X57895238Y-192453095D01*
M02*
