G04 #@! TF.FileFunction,Soldermask,Top*
%FSLAX46Y46*%
G04 Gerber Fmt 4.6, Leading zero omitted, Abs format (unit mm)*
G04 Created by KiCad (PCBNEW 4.0.6) date 04/30/18 12:25:27*
%MOMM*%
%LPD*%
G01*
G04 APERTURE LIST*
%ADD10C,0.100000*%
%ADD11R,15.300000X1.400000*%
%ADD12R,1.400000X25.350000*%
%ADD13R,14.800000X1.400000*%
%ADD14R,1.400000X24.050000*%
%ADD15R,1.400000X15.300000*%
%ADD16R,25.350000X1.400000*%
%ADD17R,1.400000X14.800000*%
%ADD18R,24.050000X1.400000*%
%ADD19C,6.800000*%
%ADD20R,2.900000X1.550000*%
G04 APERTURE END LIST*
D10*
G36*
X32870600Y-60924529D02*
X43395158Y-64755155D01*
X42352514Y-65865513D01*
X32955588Y-62445311D01*
X32870600Y-60924529D01*
X32870600Y-60924529D01*
G37*
G36*
X32751755Y-58327247D02*
X46095391Y-63183933D01*
X45052747Y-64294291D01*
X32836743Y-59848029D01*
X32751755Y-58327247D01*
X32751755Y-58327247D01*
G37*
G36*
X32585927Y-55712863D02*
X46963224Y-60945771D01*
X46484395Y-62261341D01*
X32107098Y-57028433D01*
X32585927Y-55712863D01*
X32585927Y-55712863D01*
G37*
G36*
X53919016Y-41981081D02*
X39494734Y-36731072D01*
X40537378Y-35620715D01*
X53834028Y-40460300D01*
X53919016Y-41981081D01*
X53919016Y-41981081D01*
G37*
G36*
X35869321Y-46691814D02*
X50246618Y-51924722D01*
X49767789Y-53240292D01*
X35390492Y-48007384D01*
X35869321Y-46691814D01*
X35869321Y-46691814D01*
G37*
G36*
X35048472Y-48947077D02*
X49425769Y-54179985D01*
X48946940Y-55495555D01*
X34569643Y-50262647D01*
X35048472Y-48947077D01*
X35048472Y-48947077D01*
G37*
G36*
X33406776Y-53457601D02*
X47784073Y-58690509D01*
X47305244Y-60006079D01*
X32927947Y-54773171D01*
X33406776Y-53457601D01*
X33406776Y-53457601D01*
G37*
G36*
X34227624Y-51202339D02*
X48604921Y-56435247D01*
X48126092Y-57750817D01*
X33748795Y-52517909D01*
X34227624Y-51202339D01*
X34227624Y-51202339D01*
G37*
G36*
X37511017Y-42181290D02*
X51888314Y-47414198D01*
X51409485Y-48729768D01*
X37032188Y-43496860D01*
X37511017Y-42181290D01*
X37511017Y-42181290D01*
G37*
G36*
X36690169Y-44436552D02*
X51067466Y-49669460D01*
X50588637Y-50985030D01*
X36211340Y-45752122D01*
X36690169Y-44436552D01*
X36690169Y-44436552D01*
G37*
G36*
X38331866Y-39926027D02*
X52709163Y-45158935D01*
X52230334Y-46474505D01*
X37853037Y-41241597D01*
X38331866Y-39926027D01*
X38331866Y-39926027D01*
G37*
G36*
X39152714Y-37670765D02*
X53530011Y-42903673D01*
X53051182Y-44219243D01*
X38673885Y-38986335D01*
X39152714Y-37670765D01*
X39152714Y-37670765D01*
G37*
G36*
X46105794Y-63931941D02*
X42118040Y-65791462D01*
X41526374Y-64522631D01*
X45514128Y-62663110D01*
X46105794Y-63931941D01*
X46105794Y-63931941D01*
G37*
G36*
X45813139Y-64251797D02*
X44497569Y-63772969D01*
X53167779Y-39951761D01*
X54483349Y-40430589D01*
X45813139Y-64251797D01*
X45813139Y-64251797D01*
G37*
G36*
X53233599Y-41454945D02*
X51699918Y-38165954D01*
X52968749Y-37574289D01*
X54502430Y-40863280D01*
X53233599Y-41454945D01*
X53233599Y-41454945D01*
G37*
G36*
X53283340Y-39195689D02*
X42194967Y-35159851D01*
X43237611Y-34049493D01*
X53198353Y-37674907D01*
X53283340Y-39195689D01*
X53283340Y-39195689D01*
G37*
G36*
X31470733Y-56583979D02*
X45378183Y-61645877D01*
X44899355Y-62961447D01*
X30991905Y-57899549D01*
X31470733Y-56583979D01*
X31470733Y-56583979D01*
G37*
G36*
X33510417Y-49664283D02*
X47887714Y-54897191D01*
X47408885Y-56212761D01*
X33031588Y-50979853D01*
X33510417Y-49664283D01*
X33510417Y-49664283D01*
G37*
G36*
X32689569Y-51919546D02*
X47066866Y-57152454D01*
X46588037Y-58468024D01*
X32210740Y-53235116D01*
X32689569Y-51919546D01*
X32689569Y-51919546D01*
G37*
G36*
X31868720Y-54174808D02*
X46246017Y-59407716D01*
X45767188Y-60723286D01*
X31389891Y-55490378D01*
X31868720Y-54174808D01*
X31868720Y-54174808D01*
G37*
G36*
X34331265Y-47409021D02*
X48708562Y-52641929D01*
X48229733Y-53957499D01*
X33852436Y-48724591D01*
X34331265Y-47409021D01*
X34331265Y-47409021D01*
G37*
G36*
X35152114Y-45153759D02*
X49529411Y-50386667D01*
X49050582Y-51702237D01*
X34673285Y-46469329D01*
X35152114Y-45153759D01*
X35152114Y-45153759D01*
G37*
G36*
X35972962Y-42898497D02*
X50350259Y-48131405D01*
X49871430Y-49446975D01*
X35494133Y-44214067D01*
X35972962Y-42898497D01*
X35972962Y-42898497D01*
G37*
G36*
X36793810Y-40643234D02*
X51171107Y-45876142D01*
X50692278Y-47191712D01*
X36314981Y-41958804D01*
X36793810Y-40643234D01*
X36793810Y-40643234D01*
G37*
G36*
X37614659Y-38387972D02*
X51991956Y-43620880D01*
X51513127Y-44936450D01*
X37135830Y-39703542D01*
X37614659Y-38387972D01*
X37614659Y-38387972D01*
G37*
G36*
X52286991Y-42664087D02*
X38379541Y-37602189D01*
X38858369Y-36286619D01*
X52765819Y-41348517D01*
X52286991Y-42664087D01*
X52286991Y-42664087D01*
G37*
G36*
X52637992Y-40237815D02*
X40046111Y-35654745D01*
X41088755Y-34544387D01*
X52553005Y-38717033D01*
X52637992Y-40237815D01*
X52637992Y-40237815D01*
G37*
G36*
X32082916Y-59360823D02*
X43500182Y-63516368D01*
X42457538Y-64626725D01*
X32167904Y-60881605D01*
X32082916Y-59360823D01*
X32082916Y-59360823D01*
G37*
G36*
X31870599Y-56538074D02*
X33645596Y-60344567D01*
X32376765Y-60936232D01*
X30601768Y-57129739D01*
X31870599Y-56538074D01*
X31870599Y-56538074D01*
G37*
G36*
X38839539Y-34949543D02*
X40155109Y-35428371D01*
X31929525Y-58027979D01*
X30613955Y-57549151D01*
X38839539Y-34949543D01*
X38839539Y-34949543D01*
G37*
G36*
X52594324Y-37667894D02*
X42351674Y-33939874D01*
X43394318Y-32829516D01*
X52509336Y-36147112D01*
X52594324Y-37667894D01*
X52594324Y-37667894D01*
G37*
G36*
X38540508Y-35272373D02*
X43797093Y-32821187D01*
X44388758Y-34090017D01*
X39132173Y-36541203D01*
X38540508Y-35272373D01*
X38540508Y-35272373D01*
G37*
G36*
X61557302Y-39484033D02*
X56823977Y-49634680D01*
X55808717Y-48499230D01*
X60034900Y-39436152D01*
X61557302Y-39484033D01*
X61557302Y-39484033D01*
G37*
G36*
X64155058Y-39592009D02*
X58153879Y-52461580D01*
X57138619Y-51326130D01*
X62632656Y-39544129D01*
X64155058Y-39592009D01*
X64155058Y-39592009D01*
G37*
G36*
X66773946Y-39654670D02*
X60307887Y-53521179D01*
X59039056Y-52929514D01*
X65505115Y-39063005D01*
X66773946Y-39654670D01*
X66773946Y-39654670D01*
G37*
G36*
X78594173Y-62103383D02*
X85081364Y-48191559D01*
X86096624Y-49327009D01*
X80116575Y-62151264D01*
X78594173Y-62103383D01*
X78594173Y-62103383D01*
G37*
G36*
X75474501Y-43711805D02*
X69008442Y-57578314D01*
X67739611Y-56986649D01*
X74205670Y-43120140D01*
X75474501Y-43711805D01*
X75474501Y-43711805D01*
G37*
G36*
X73299362Y-42697521D02*
X66833303Y-56564030D01*
X65564472Y-55972365D01*
X72030531Y-42105856D01*
X73299362Y-42697521D01*
X73299362Y-42697521D01*
G37*
G36*
X68949085Y-40668953D02*
X62483026Y-54535462D01*
X61214195Y-53943797D01*
X67680254Y-40077288D01*
X68949085Y-40668953D01*
X68949085Y-40668953D01*
G37*
G36*
X71124224Y-41683237D02*
X64658165Y-55549746D01*
X63389334Y-54958081D01*
X69855393Y-41091572D01*
X71124224Y-41683237D01*
X71124224Y-41683237D01*
G37*
G36*
X79824778Y-45740373D02*
X73358719Y-59606882D01*
X72089888Y-59015217D01*
X78555947Y-45148708D01*
X79824778Y-45740373D01*
X79824778Y-45740373D01*
G37*
G36*
X77649640Y-44726089D02*
X71183581Y-58592598D01*
X69914750Y-58000933D01*
X76380809Y-44134424D01*
X77649640Y-44726089D01*
X77649640Y-44726089D01*
G37*
G36*
X81999917Y-46754656D02*
X75533858Y-60621165D01*
X74265027Y-60029500D01*
X80731086Y-46162991D01*
X81999917Y-46754656D01*
X81999917Y-46754656D01*
G37*
G36*
X84175056Y-47768940D02*
X77708997Y-61635449D01*
X76440166Y-61043784D01*
X82906225Y-47177275D01*
X84175056Y-47768940D01*
X84175056Y-47768940D01*
G37*
G36*
X57407810Y-52406750D02*
X55902922Y-48272102D01*
X57218492Y-47793274D01*
X58723380Y-51927922D01*
X57407810Y-52406750D01*
X57407810Y-52406750D01*
G37*
G36*
X57114679Y-52087330D02*
X57706345Y-50818499D01*
X80681247Y-61531872D01*
X80089581Y-62800703D01*
X57114679Y-52087330D01*
X57114679Y-52087330D01*
G37*
G36*
X79178046Y-61466431D02*
X82588190Y-60225240D01*
X83067018Y-61540809D01*
X79656874Y-62782000D01*
X79178046Y-61466431D01*
X79178046Y-61466431D01*
G37*
G36*
X81424371Y-61712890D02*
X86411266Y-51018458D01*
X87426526Y-52153909D01*
X82946773Y-61760771D01*
X81424371Y-61712890D01*
X81424371Y-61712890D01*
G37*
G36*
X66003341Y-38467797D02*
X59748590Y-51881152D01*
X58479759Y-51289487D01*
X64734510Y-37876132D01*
X66003341Y-38467797D01*
X66003341Y-38467797D01*
G37*
G36*
X72718935Y-41102810D02*
X66252876Y-54969319D01*
X64984045Y-54377654D01*
X71450104Y-40511145D01*
X72718935Y-41102810D01*
X72718935Y-41102810D01*
G37*
G36*
X70543796Y-40088526D02*
X64077737Y-53955035D01*
X62808906Y-53363370D01*
X69274965Y-39496861D01*
X70543796Y-40088526D01*
X70543796Y-40088526D01*
G37*
G36*
X68368658Y-39074242D02*
X61902599Y-52940751D01*
X60633768Y-52349086D01*
X67099827Y-38482577D01*
X68368658Y-39074242D01*
X68368658Y-39074242D01*
G37*
G36*
X74894074Y-42117094D02*
X68428015Y-55983603D01*
X67159184Y-55391938D01*
X73625243Y-41525429D01*
X74894074Y-42117094D01*
X74894074Y-42117094D01*
G37*
G36*
X77069212Y-43131377D02*
X70603153Y-56997886D01*
X69334322Y-56406221D01*
X75800381Y-42539712D01*
X77069212Y-43131377D01*
X77069212Y-43131377D01*
G37*
G36*
X79244351Y-44145661D02*
X72778292Y-58012170D01*
X71509461Y-57420505D01*
X77975520Y-43553996D01*
X79244351Y-44145661D01*
X79244351Y-44145661D01*
G37*
G36*
X81419490Y-45159945D02*
X74953431Y-59026454D01*
X73684600Y-58434789D01*
X80150659Y-44568280D01*
X81419490Y-45159945D01*
X81419490Y-45159945D01*
G37*
G36*
X83594628Y-46174229D02*
X77128569Y-60040738D01*
X75859738Y-59449073D01*
X82325797Y-45582564D01*
X83594628Y-46174229D01*
X83594628Y-46174229D01*
G37*
G36*
X78056007Y-60418041D02*
X84310758Y-47004686D01*
X85579589Y-47596351D01*
X79324838Y-61009706D01*
X78056007Y-60418041D01*
X78056007Y-60418041D01*
G37*
G36*
X80442455Y-60979171D02*
X86105540Y-48834647D01*
X87120800Y-49970097D01*
X81964857Y-61027052D01*
X80442455Y-60979171D01*
X80442455Y-60979171D01*
G37*
G36*
X63183709Y-38835633D02*
X58048898Y-49847273D01*
X57033638Y-48711822D01*
X61661308Y-38787752D01*
X63183709Y-38835633D01*
X63183709Y-38835633D01*
G37*
G36*
X66014221Y-38870143D02*
X62067512Y-40306627D01*
X61588683Y-38991057D01*
X65535392Y-37554573D01*
X66014221Y-38870143D01*
X66014221Y-38870143D01*
G37*
G36*
X86913217Y-47694128D02*
X86321551Y-48962959D01*
X64524849Y-38798990D01*
X65116515Y-37530159D01*
X86913217Y-47694128D01*
X86913217Y-47694128D01*
G37*
G36*
X83006403Y-61159652D02*
X87612942Y-51280897D01*
X88628202Y-52416347D01*
X84528805Y-61207533D01*
X83006403Y-61159652D01*
X83006403Y-61159652D01*
G37*
G36*
X86617679Y-47368097D02*
X88601396Y-52818314D01*
X87285827Y-53297143D01*
X85302110Y-47846926D01*
X86617679Y-47368097D01*
X86617679Y-47368097D01*
G37*
G36*
X41500000Y-75200000D02*
X30300000Y-75200000D01*
X30900000Y-73800000D01*
X40900000Y-73800000D01*
X41500000Y-75200000D01*
X41500000Y-75200000D01*
G37*
G36*
X42500000Y-77600000D02*
X28300000Y-77600000D01*
X28900000Y-76200000D01*
X41900000Y-76200000D01*
X42500000Y-77600000D01*
X42500000Y-77600000D01*
G37*
D11*
X35900000Y-79300000D03*
D10*
G36*
X28200000Y-100200000D02*
X43550000Y-100200000D01*
X42950000Y-101600000D01*
X28800000Y-101600000D01*
X28200000Y-100200000D01*
X28200000Y-100200000D01*
G37*
D11*
X35900000Y-88900000D03*
X35900000Y-86500000D03*
X35900000Y-81700000D03*
X35900000Y-84100000D03*
X35900000Y-93700000D03*
X35900000Y-91300000D03*
X35900000Y-96100000D03*
X35900000Y-98500000D03*
D10*
G36*
X28034390Y-76900660D02*
X31145660Y-73789390D01*
X32135610Y-74779340D01*
X29024340Y-77890610D01*
X28034390Y-76900660D01*
X28034390Y-76900660D01*
G37*
D12*
X28900000Y-89175000D03*
D10*
G36*
X29024029Y-100459980D02*
X31590120Y-103026071D01*
X30600171Y-104016020D01*
X28034080Y-101449929D01*
X29024029Y-100459980D01*
X29024029Y-100459980D01*
G37*
G36*
X29750000Y-102600000D02*
X41550000Y-102600000D01*
X40950000Y-104000000D01*
X30350000Y-104000000D01*
X29750000Y-102600000D01*
X29750000Y-102600000D01*
G37*
D13*
X36900000Y-78100000D03*
D11*
X37100000Y-85300000D03*
X37100000Y-82900000D03*
X37100000Y-80500000D03*
X37100000Y-87700000D03*
X37100000Y-90100000D03*
X37100000Y-92500000D03*
X37100000Y-94900000D03*
X37100000Y-97300000D03*
D13*
X36900000Y-99700000D03*
D10*
G36*
X30000000Y-101400000D02*
X43400000Y-101400000D01*
X42800000Y-102800000D01*
X30600000Y-102800000D01*
X30000000Y-101400000D01*
X30000000Y-101400000D01*
G37*
G36*
X42775000Y-76400000D02*
X30625000Y-76400000D01*
X31225000Y-75000000D01*
X42175000Y-75000000D01*
X42775000Y-76400000D01*
X42775000Y-76400000D01*
G37*
G36*
X43939949Y-78979899D02*
X40970101Y-76010051D01*
X41960051Y-75020101D01*
X44929899Y-77989949D01*
X43939949Y-78979899D01*
X43939949Y-78979899D01*
G37*
D14*
X44075000Y-89625000D03*
D10*
G36*
X30920000Y-103800000D02*
X41820000Y-103800000D01*
X41220000Y-105200000D01*
X31520000Y-105200000D01*
X30920000Y-103800000D01*
X30920000Y-103800000D01*
G37*
G36*
X44945584Y-101244365D02*
X40844365Y-105345584D01*
X39854416Y-104355635D01*
X43955635Y-100254416D01*
X44945584Y-101244365D01*
X44945584Y-101244365D01*
G37*
G36*
X67500000Y-81200000D02*
X56300000Y-81200000D01*
X56900000Y-79800000D01*
X66900000Y-79800000D01*
X67500000Y-81200000D01*
X67500000Y-81200000D01*
G37*
G36*
X68500000Y-83600000D02*
X54300000Y-83600000D01*
X54900000Y-82200000D01*
X67900000Y-82200000D01*
X68500000Y-83600000D01*
X68500000Y-83600000D01*
G37*
D11*
X61900000Y-85300000D03*
D10*
G36*
X54200000Y-106200000D02*
X69550000Y-106200000D01*
X68950000Y-107600000D01*
X54800000Y-107600000D01*
X54200000Y-106200000D01*
X54200000Y-106200000D01*
G37*
D11*
X61900000Y-94900000D03*
X61900000Y-92500000D03*
X61900000Y-87700000D03*
X61900000Y-90100000D03*
X61900000Y-99700000D03*
X61900000Y-97300000D03*
X61900000Y-102100000D03*
X61900000Y-104500000D03*
D10*
G36*
X54034390Y-82900660D02*
X57145660Y-79789390D01*
X58135610Y-80779340D01*
X55024340Y-83890610D01*
X54034390Y-82900660D01*
X54034390Y-82900660D01*
G37*
D12*
X54900000Y-95175000D03*
D10*
G36*
X55024029Y-106459980D02*
X57590120Y-109026071D01*
X56600171Y-110016020D01*
X54034080Y-107449929D01*
X55024029Y-106459980D01*
X55024029Y-106459980D01*
G37*
G36*
X55750000Y-108600000D02*
X67550000Y-108600000D01*
X66950000Y-110000000D01*
X56350000Y-110000000D01*
X55750000Y-108600000D01*
X55750000Y-108600000D01*
G37*
D13*
X62900000Y-84100000D03*
D11*
X63100000Y-91300000D03*
X63100000Y-88900000D03*
X63100000Y-86500000D03*
X63100000Y-93700000D03*
X63100000Y-96100000D03*
X63100000Y-98500000D03*
X63100000Y-100900000D03*
X63100000Y-103300000D03*
D13*
X62900000Y-105700000D03*
D10*
G36*
X56000000Y-107400000D02*
X69400000Y-107400000D01*
X68800000Y-108800000D01*
X56600000Y-108800000D01*
X56000000Y-107400000D01*
X56000000Y-107400000D01*
G37*
G36*
X68775000Y-82400000D02*
X56625000Y-82400000D01*
X57225000Y-81000000D01*
X68175000Y-81000000D01*
X68775000Y-82400000D01*
X68775000Y-82400000D01*
G37*
G36*
X69939949Y-84979899D02*
X66970101Y-82010051D01*
X67960051Y-81020101D01*
X70929899Y-83989949D01*
X69939949Y-84979899D01*
X69939949Y-84979899D01*
G37*
D14*
X70075000Y-95625000D03*
D10*
G36*
X56920000Y-109800000D02*
X67820000Y-109800000D01*
X67220000Y-111200000D01*
X57520000Y-111200000D01*
X56920000Y-109800000D01*
X56920000Y-109800000D01*
G37*
G36*
X70945584Y-107244365D02*
X66844365Y-111345584D01*
X65854416Y-110355635D01*
X69955635Y-106254416D01*
X70945584Y-107244365D01*
X70945584Y-107244365D01*
G37*
G36*
X93500000Y-89200000D02*
X82300000Y-89200000D01*
X82900000Y-87800000D01*
X92900000Y-87800000D01*
X93500000Y-89200000D01*
X93500000Y-89200000D01*
G37*
G36*
X94500000Y-91600000D02*
X80300000Y-91600000D01*
X80900000Y-90200000D01*
X93900000Y-90200000D01*
X94500000Y-91600000D01*
X94500000Y-91600000D01*
G37*
D11*
X87900000Y-93300000D03*
D10*
G36*
X80200000Y-114200000D02*
X95550000Y-114200000D01*
X94950000Y-115600000D01*
X80800000Y-115600000D01*
X80200000Y-114200000D01*
X80200000Y-114200000D01*
G37*
D11*
X87900000Y-102900000D03*
X87900000Y-100500000D03*
X87900000Y-95700000D03*
X87900000Y-98100000D03*
X87900000Y-107700000D03*
X87900000Y-105300000D03*
X87900000Y-110100000D03*
X87900000Y-112500000D03*
D10*
G36*
X80034390Y-90900660D02*
X83145660Y-87789390D01*
X84135610Y-88779340D01*
X81024340Y-91890610D01*
X80034390Y-90900660D01*
X80034390Y-90900660D01*
G37*
D12*
X80900000Y-103175000D03*
D10*
G36*
X81024029Y-114459980D02*
X83590120Y-117026071D01*
X82600171Y-118016020D01*
X80034080Y-115449929D01*
X81024029Y-114459980D01*
X81024029Y-114459980D01*
G37*
G36*
X81750000Y-116600000D02*
X93550000Y-116600000D01*
X92950000Y-118000000D01*
X82350000Y-118000000D01*
X81750000Y-116600000D01*
X81750000Y-116600000D01*
G37*
D13*
X88900000Y-92100000D03*
D11*
X89100000Y-99300000D03*
X89100000Y-96900000D03*
X89100000Y-94500000D03*
X89100000Y-101700000D03*
X89100000Y-104100000D03*
X89100000Y-106500000D03*
X89100000Y-108900000D03*
X89100000Y-111300000D03*
D13*
X88900000Y-113700000D03*
D10*
G36*
X82000000Y-115400000D02*
X95400000Y-115400000D01*
X94800000Y-116800000D01*
X82600000Y-116800000D01*
X82000000Y-115400000D01*
X82000000Y-115400000D01*
G37*
G36*
X94775000Y-90400000D02*
X82625000Y-90400000D01*
X83225000Y-89000000D01*
X94175000Y-89000000D01*
X94775000Y-90400000D01*
X94775000Y-90400000D01*
G37*
G36*
X95939949Y-92979899D02*
X92970101Y-90010051D01*
X93960051Y-89020101D01*
X96929899Y-91989949D01*
X95939949Y-92979899D01*
X95939949Y-92979899D01*
G37*
D14*
X96075000Y-103625000D03*
D10*
G36*
X82920000Y-117800000D02*
X93820000Y-117800000D01*
X93220000Y-119200000D01*
X83520000Y-119200000D01*
X82920000Y-117800000D01*
X82920000Y-117800000D01*
G37*
G36*
X96945584Y-115244365D02*
X92844365Y-119345584D01*
X91854416Y-118355635D01*
X95955635Y-114254416D01*
X96945584Y-115244365D01*
X96945584Y-115244365D01*
G37*
G36*
X51000000Y-116700000D02*
X39800000Y-116700000D01*
X40400000Y-115300000D01*
X50400000Y-115300000D01*
X51000000Y-116700000D01*
X51000000Y-116700000D01*
G37*
G36*
X52000000Y-119100000D02*
X37800000Y-119100000D01*
X38400000Y-117700000D01*
X51400000Y-117700000D01*
X52000000Y-119100000D01*
X52000000Y-119100000D01*
G37*
D11*
X45400000Y-120800000D03*
D10*
G36*
X37700000Y-141700000D02*
X53050000Y-141700000D01*
X52450000Y-143100000D01*
X38300000Y-143100000D01*
X37700000Y-141700000D01*
X37700000Y-141700000D01*
G37*
D11*
X45400000Y-130400000D03*
X45400000Y-128000000D03*
X45400000Y-123200000D03*
X45400000Y-125600000D03*
X45400000Y-135200000D03*
X45400000Y-132800000D03*
X45400000Y-137600000D03*
X45400000Y-140000000D03*
D10*
G36*
X37534390Y-118400660D02*
X40645660Y-115289390D01*
X41635610Y-116279340D01*
X38524340Y-119390610D01*
X37534390Y-118400660D01*
X37534390Y-118400660D01*
G37*
D12*
X38400000Y-130675000D03*
D10*
G36*
X38524029Y-141959980D02*
X41090120Y-144526071D01*
X40100171Y-145516020D01*
X37534080Y-142949929D01*
X38524029Y-141959980D01*
X38524029Y-141959980D01*
G37*
G36*
X39250000Y-144100000D02*
X51050000Y-144100000D01*
X50450000Y-145500000D01*
X39850000Y-145500000D01*
X39250000Y-144100000D01*
X39250000Y-144100000D01*
G37*
D13*
X46400000Y-119600000D03*
D11*
X46600000Y-126800000D03*
X46600000Y-124400000D03*
X46600000Y-122000000D03*
X46600000Y-129200000D03*
X46600000Y-131600000D03*
X46600000Y-134000000D03*
X46600000Y-136400000D03*
X46600000Y-138800000D03*
D13*
X46400000Y-141200000D03*
D10*
G36*
X39500000Y-142900000D02*
X52900000Y-142900000D01*
X52300000Y-144300000D01*
X40100000Y-144300000D01*
X39500000Y-142900000D01*
X39500000Y-142900000D01*
G37*
G36*
X52275000Y-117900000D02*
X40125000Y-117900000D01*
X40725000Y-116500000D01*
X51675000Y-116500000D01*
X52275000Y-117900000D01*
X52275000Y-117900000D01*
G37*
G36*
X53439949Y-120479899D02*
X50470101Y-117510051D01*
X51460051Y-116520101D01*
X54429899Y-119489949D01*
X53439949Y-120479899D01*
X53439949Y-120479899D01*
G37*
D14*
X53575000Y-131125000D03*
D10*
G36*
X40420000Y-145300000D02*
X51320000Y-145300000D01*
X50720000Y-146700000D01*
X41020000Y-146700000D01*
X40420000Y-145300000D01*
X40420000Y-145300000D01*
G37*
G36*
X54445584Y-142744365D02*
X50344365Y-146845584D01*
X49354416Y-145855635D01*
X53455635Y-141754416D01*
X54445584Y-142744365D01*
X54445584Y-142744365D01*
G37*
G36*
X73500000Y-129200000D02*
X62300000Y-129200000D01*
X62900000Y-127800000D01*
X72900000Y-127800000D01*
X73500000Y-129200000D01*
X73500000Y-129200000D01*
G37*
G36*
X74500000Y-131600000D02*
X60300000Y-131600000D01*
X60900000Y-130200000D01*
X73900000Y-130200000D01*
X74500000Y-131600000D01*
X74500000Y-131600000D01*
G37*
D11*
X67900000Y-133300000D03*
D10*
G36*
X60200000Y-154200000D02*
X75550000Y-154200000D01*
X74950000Y-155600000D01*
X60800000Y-155600000D01*
X60200000Y-154200000D01*
X60200000Y-154200000D01*
G37*
D11*
X67900000Y-142900000D03*
X67900000Y-140500000D03*
X67900000Y-135700000D03*
X67900000Y-138100000D03*
X67900000Y-147700000D03*
X67900000Y-145300000D03*
X67900000Y-150100000D03*
X67900000Y-152500000D03*
D10*
G36*
X60034390Y-130900660D02*
X63145660Y-127789390D01*
X64135610Y-128779340D01*
X61024340Y-131890610D01*
X60034390Y-130900660D01*
X60034390Y-130900660D01*
G37*
D12*
X60900000Y-143175000D03*
D10*
G36*
X61024029Y-154459980D02*
X63590120Y-157026071D01*
X62600171Y-158016020D01*
X60034080Y-155449929D01*
X61024029Y-154459980D01*
X61024029Y-154459980D01*
G37*
G36*
X61750000Y-156600000D02*
X73550000Y-156600000D01*
X72950000Y-158000000D01*
X62350000Y-158000000D01*
X61750000Y-156600000D01*
X61750000Y-156600000D01*
G37*
D13*
X68900000Y-132100000D03*
D11*
X69100000Y-139300000D03*
X69100000Y-136900000D03*
X69100000Y-134500000D03*
X69100000Y-141700000D03*
X69100000Y-144100000D03*
X69100000Y-146500000D03*
X69100000Y-148900000D03*
X69100000Y-151300000D03*
D13*
X68900000Y-153700000D03*
D10*
G36*
X62000000Y-155400000D02*
X75400000Y-155400000D01*
X74800000Y-156800000D01*
X62600000Y-156800000D01*
X62000000Y-155400000D01*
X62000000Y-155400000D01*
G37*
G36*
X74775000Y-130400000D02*
X62625000Y-130400000D01*
X63225000Y-129000000D01*
X74175000Y-129000000D01*
X74775000Y-130400000D01*
X74775000Y-130400000D01*
G37*
G36*
X75939949Y-132979899D02*
X72970101Y-130010051D01*
X73960051Y-129020101D01*
X76929899Y-131989949D01*
X75939949Y-132979899D01*
X75939949Y-132979899D01*
G37*
D14*
X76075000Y-143625000D03*
D10*
G36*
X62920000Y-157800000D02*
X73820000Y-157800000D01*
X73220000Y-159200000D01*
X63520000Y-159200000D01*
X62920000Y-157800000D01*
X62920000Y-157800000D01*
G37*
G36*
X76945584Y-155244365D02*
X72844365Y-159345584D01*
X71854416Y-158355635D01*
X75955635Y-154254416D01*
X76945584Y-155244365D01*
X76945584Y-155244365D01*
G37*
G36*
X96000000Y-141700000D02*
X84800000Y-141700000D01*
X85400000Y-140300000D01*
X95400000Y-140300000D01*
X96000000Y-141700000D01*
X96000000Y-141700000D01*
G37*
G36*
X97000000Y-144100000D02*
X82800000Y-144100000D01*
X83400000Y-142700000D01*
X96400000Y-142700000D01*
X97000000Y-144100000D01*
X97000000Y-144100000D01*
G37*
D11*
X90400000Y-145800000D03*
D10*
G36*
X82700000Y-166700000D02*
X98050000Y-166700000D01*
X97450000Y-168100000D01*
X83300000Y-168100000D01*
X82700000Y-166700000D01*
X82700000Y-166700000D01*
G37*
D11*
X90400000Y-155400000D03*
X90400000Y-153000000D03*
X90400000Y-148200000D03*
X90400000Y-150600000D03*
X90400000Y-160200000D03*
X90400000Y-157800000D03*
X90400000Y-162600000D03*
X90400000Y-165000000D03*
D10*
G36*
X82534390Y-143400660D02*
X85645660Y-140289390D01*
X86635610Y-141279340D01*
X83524340Y-144390610D01*
X82534390Y-143400660D01*
X82534390Y-143400660D01*
G37*
D12*
X83400000Y-155675000D03*
D10*
G36*
X83524029Y-166959980D02*
X86090120Y-169526071D01*
X85100171Y-170516020D01*
X82534080Y-167949929D01*
X83524029Y-166959980D01*
X83524029Y-166959980D01*
G37*
G36*
X84250000Y-169100000D02*
X96050000Y-169100000D01*
X95450000Y-170500000D01*
X84850000Y-170500000D01*
X84250000Y-169100000D01*
X84250000Y-169100000D01*
G37*
D13*
X91400000Y-144600000D03*
D11*
X91600000Y-151800000D03*
X91600000Y-149400000D03*
X91600000Y-147000000D03*
X91600000Y-154200000D03*
X91600000Y-156600000D03*
X91600000Y-159000000D03*
X91600000Y-161400000D03*
X91600000Y-163800000D03*
D13*
X91400000Y-166200000D03*
D10*
G36*
X84500000Y-167900000D02*
X97900000Y-167900000D01*
X97300000Y-169300000D01*
X85100000Y-169300000D01*
X84500000Y-167900000D01*
X84500000Y-167900000D01*
G37*
G36*
X97275000Y-142900000D02*
X85125000Y-142900000D01*
X85725000Y-141500000D01*
X96675000Y-141500000D01*
X97275000Y-142900000D01*
X97275000Y-142900000D01*
G37*
G36*
X98439949Y-145479899D02*
X95470101Y-142510051D01*
X96460051Y-141520101D01*
X99429899Y-144489949D01*
X98439949Y-145479899D01*
X98439949Y-145479899D01*
G37*
D14*
X98575000Y-156125000D03*
D10*
G36*
X85420000Y-170300000D02*
X96320000Y-170300000D01*
X95720000Y-171700000D01*
X86020000Y-171700000D01*
X85420000Y-170300000D01*
X85420000Y-170300000D01*
G37*
G36*
X99445584Y-167744365D02*
X95344365Y-171845584D01*
X94354416Y-170855635D01*
X98455635Y-166754416D01*
X99445584Y-167744365D01*
X99445584Y-167744365D01*
G37*
G36*
X90500000Y-190200000D02*
X79300000Y-190200000D01*
X79900000Y-188800000D01*
X89900000Y-188800000D01*
X90500000Y-190200000D01*
X90500000Y-190200000D01*
G37*
G36*
X91500000Y-192600000D02*
X77300000Y-192600000D01*
X77900000Y-191200000D01*
X90900000Y-191200000D01*
X91500000Y-192600000D01*
X91500000Y-192600000D01*
G37*
D11*
X84900000Y-194300000D03*
D10*
G36*
X77200000Y-215200000D02*
X92550000Y-215200000D01*
X91950000Y-216600000D01*
X77800000Y-216600000D01*
X77200000Y-215200000D01*
X77200000Y-215200000D01*
G37*
D11*
X84900000Y-203900000D03*
X84900000Y-201500000D03*
X84900000Y-196700000D03*
X84900000Y-199100000D03*
X84900000Y-208700000D03*
X84900000Y-206300000D03*
X84900000Y-211100000D03*
X84900000Y-213500000D03*
D10*
G36*
X77034390Y-191900660D02*
X80145660Y-188789390D01*
X81135610Y-189779340D01*
X78024340Y-192890610D01*
X77034390Y-191900660D01*
X77034390Y-191900660D01*
G37*
D12*
X77900000Y-204175000D03*
D10*
G36*
X78024029Y-215459980D02*
X80590120Y-218026071D01*
X79600171Y-219016020D01*
X77034080Y-216449929D01*
X78024029Y-215459980D01*
X78024029Y-215459980D01*
G37*
G36*
X78750000Y-217600000D02*
X90550000Y-217600000D01*
X89950000Y-219000000D01*
X79350000Y-219000000D01*
X78750000Y-217600000D01*
X78750000Y-217600000D01*
G37*
D13*
X85900000Y-193100000D03*
D11*
X86100000Y-200300000D03*
X86100000Y-197900000D03*
X86100000Y-195500000D03*
X86100000Y-202700000D03*
X86100000Y-205100000D03*
X86100000Y-207500000D03*
X86100000Y-209900000D03*
X86100000Y-212300000D03*
D13*
X85900000Y-214700000D03*
D10*
G36*
X79000000Y-216400000D02*
X92400000Y-216400000D01*
X91800000Y-217800000D01*
X79600000Y-217800000D01*
X79000000Y-216400000D01*
X79000000Y-216400000D01*
G37*
G36*
X91775000Y-191400000D02*
X79625000Y-191400000D01*
X80225000Y-190000000D01*
X91175000Y-190000000D01*
X91775000Y-191400000D01*
X91775000Y-191400000D01*
G37*
G36*
X92939949Y-193979899D02*
X89970101Y-191010051D01*
X90960051Y-190020101D01*
X93929899Y-192989949D01*
X92939949Y-193979899D01*
X92939949Y-193979899D01*
G37*
D14*
X93075000Y-204625000D03*
D10*
G36*
X79920000Y-218800000D02*
X90820000Y-218800000D01*
X90220000Y-220200000D01*
X80520000Y-220200000D01*
X79920000Y-218800000D01*
X79920000Y-218800000D01*
G37*
G36*
X93945584Y-216244365D02*
X89844365Y-220345584D01*
X88854416Y-219355635D01*
X92955635Y-215254416D01*
X93945584Y-216244365D01*
X93945584Y-216244365D01*
G37*
G36*
X57800000Y-241100000D02*
X57800000Y-252300000D01*
X56400000Y-251700000D01*
X56400000Y-241700000D01*
X57800000Y-241100000D01*
X57800000Y-241100000D01*
G37*
G36*
X60200000Y-240100000D02*
X60200000Y-254300000D01*
X58800000Y-253700000D01*
X58800000Y-240700000D01*
X60200000Y-240100000D01*
X60200000Y-240100000D01*
G37*
D15*
X61900000Y-246700000D03*
D10*
G36*
X82800000Y-254400000D02*
X82800000Y-239050000D01*
X84200000Y-239650000D01*
X84200000Y-253800000D01*
X82800000Y-254400000D01*
X82800000Y-254400000D01*
G37*
D15*
X71500000Y-246700000D03*
X69100000Y-246700000D03*
X64300000Y-246700000D03*
X66700000Y-246700000D03*
X76300000Y-246700000D03*
X73900000Y-246700000D03*
X78700000Y-246700000D03*
X81100000Y-246700000D03*
D10*
G36*
X59500660Y-254565610D02*
X56389390Y-251454340D01*
X57379340Y-250464390D01*
X60490610Y-253575660D01*
X59500660Y-254565610D01*
X59500660Y-254565610D01*
G37*
D16*
X71775000Y-253700000D03*
D10*
G36*
X83059980Y-253575971D02*
X85626071Y-251009880D01*
X86616020Y-251999829D01*
X84049929Y-254565920D01*
X83059980Y-253575971D01*
X83059980Y-253575971D01*
G37*
G36*
X85200000Y-252850000D02*
X85200000Y-241050000D01*
X86600000Y-241650000D01*
X86600000Y-252250000D01*
X85200000Y-252850000D01*
X85200000Y-252850000D01*
G37*
D17*
X60700000Y-245700000D03*
D15*
X67900000Y-245500000D03*
X65500000Y-245500000D03*
X63100000Y-245500000D03*
X70300000Y-245500000D03*
X72700000Y-245500000D03*
X75100000Y-245500000D03*
X77500000Y-245500000D03*
X79900000Y-245500000D03*
D17*
X82300000Y-245700000D03*
D10*
G36*
X84000000Y-252600000D02*
X84000000Y-239200000D01*
X85400000Y-239800000D01*
X85400000Y-252000000D01*
X84000000Y-252600000D01*
X84000000Y-252600000D01*
G37*
G36*
X59000000Y-239825000D02*
X59000000Y-251975000D01*
X57600000Y-251375000D01*
X57600000Y-240425000D01*
X59000000Y-239825000D01*
X59000000Y-239825000D01*
G37*
G36*
X61579899Y-238660051D02*
X58610051Y-241629899D01*
X57620101Y-240639949D01*
X60589949Y-237670101D01*
X61579899Y-238660051D01*
X61579899Y-238660051D01*
G37*
D18*
X72225000Y-238525000D03*
D10*
G36*
X86400000Y-251680000D02*
X86400000Y-240780000D01*
X87800000Y-241380000D01*
X87800000Y-251080000D01*
X86400000Y-251680000D01*
X86400000Y-251680000D01*
G37*
G36*
X83844365Y-237654416D02*
X87945584Y-241755635D01*
X86955635Y-242745584D01*
X82854416Y-238644365D01*
X83844365Y-237654416D01*
X83844365Y-237654416D01*
G37*
G36*
X89500000Y-261200000D02*
X78300000Y-261200000D01*
X78900000Y-259800000D01*
X88900000Y-259800000D01*
X89500000Y-261200000D01*
X89500000Y-261200000D01*
G37*
G36*
X90500000Y-263600000D02*
X76300000Y-263600000D01*
X76900000Y-262200000D01*
X89900000Y-262200000D01*
X90500000Y-263600000D01*
X90500000Y-263600000D01*
G37*
D11*
X83900000Y-265300000D03*
D10*
G36*
X76200000Y-286200000D02*
X91550000Y-286200000D01*
X90950000Y-287600000D01*
X76800000Y-287600000D01*
X76200000Y-286200000D01*
X76200000Y-286200000D01*
G37*
D11*
X83900000Y-274900000D03*
X83900000Y-272500000D03*
X83900000Y-267700000D03*
X83900000Y-270100000D03*
X83900000Y-279700000D03*
X83900000Y-277300000D03*
X83900000Y-282100000D03*
X83900000Y-284500000D03*
D10*
G36*
X76034390Y-262900660D02*
X79145660Y-259789390D01*
X80135610Y-260779340D01*
X77024340Y-263890610D01*
X76034390Y-262900660D01*
X76034390Y-262900660D01*
G37*
D12*
X76900000Y-275175000D03*
D10*
G36*
X77024029Y-286459980D02*
X79590120Y-289026071D01*
X78600171Y-290016020D01*
X76034080Y-287449929D01*
X77024029Y-286459980D01*
X77024029Y-286459980D01*
G37*
G36*
X77750000Y-288600000D02*
X89550000Y-288600000D01*
X88950000Y-290000000D01*
X78350000Y-290000000D01*
X77750000Y-288600000D01*
X77750000Y-288600000D01*
G37*
D13*
X84900000Y-264100000D03*
D11*
X85100000Y-271300000D03*
X85100000Y-268900000D03*
X85100000Y-266500000D03*
X85100000Y-273700000D03*
X85100000Y-276100000D03*
X85100000Y-278500000D03*
X85100000Y-280900000D03*
X85100000Y-283300000D03*
D13*
X84900000Y-285700000D03*
D10*
G36*
X78000000Y-287400000D02*
X91400000Y-287400000D01*
X90800000Y-288800000D01*
X78600000Y-288800000D01*
X78000000Y-287400000D01*
X78000000Y-287400000D01*
G37*
G36*
X90775000Y-262400000D02*
X78625000Y-262400000D01*
X79225000Y-261000000D01*
X90175000Y-261000000D01*
X90775000Y-262400000D01*
X90775000Y-262400000D01*
G37*
G36*
X91939949Y-264979899D02*
X88970101Y-262010051D01*
X89960051Y-261020101D01*
X92929899Y-263989949D01*
X91939949Y-264979899D01*
X91939949Y-264979899D01*
G37*
D14*
X92075000Y-275625000D03*
D10*
G36*
X78920000Y-289800000D02*
X89820000Y-289800000D01*
X89220000Y-291200000D01*
X79520000Y-291200000D01*
X78920000Y-289800000D01*
X78920000Y-289800000D01*
G37*
G36*
X92945584Y-287244365D02*
X88844365Y-291345584D01*
X87854416Y-290355635D01*
X91955635Y-286254416D01*
X92945584Y-287244365D01*
X92945584Y-287244365D01*
G37*
G36*
X64500000Y-261200000D02*
X53300000Y-261200000D01*
X53900000Y-259800000D01*
X63900000Y-259800000D01*
X64500000Y-261200000D01*
X64500000Y-261200000D01*
G37*
G36*
X65500000Y-263600000D02*
X51300000Y-263600000D01*
X51900000Y-262200000D01*
X64900000Y-262200000D01*
X65500000Y-263600000D01*
X65500000Y-263600000D01*
G37*
D11*
X58900000Y-265300000D03*
D10*
G36*
X51200000Y-286200000D02*
X66550000Y-286200000D01*
X65950000Y-287600000D01*
X51800000Y-287600000D01*
X51200000Y-286200000D01*
X51200000Y-286200000D01*
G37*
D11*
X58900000Y-274900000D03*
X58900000Y-272500000D03*
X58900000Y-267700000D03*
X58900000Y-270100000D03*
X58900000Y-279700000D03*
X58900000Y-277300000D03*
X58900000Y-282100000D03*
X58900000Y-284500000D03*
D10*
G36*
X51034390Y-262900660D02*
X54145660Y-259789390D01*
X55135610Y-260779340D01*
X52024340Y-263890610D01*
X51034390Y-262900660D01*
X51034390Y-262900660D01*
G37*
D12*
X51900000Y-275175000D03*
D10*
G36*
X52024029Y-286459980D02*
X54590120Y-289026071D01*
X53600171Y-290016020D01*
X51034080Y-287449929D01*
X52024029Y-286459980D01*
X52024029Y-286459980D01*
G37*
G36*
X52750000Y-288600000D02*
X64550000Y-288600000D01*
X63950000Y-290000000D01*
X53350000Y-290000000D01*
X52750000Y-288600000D01*
X52750000Y-288600000D01*
G37*
D13*
X59900000Y-264100000D03*
D11*
X60100000Y-271300000D03*
X60100000Y-268900000D03*
X60100000Y-266500000D03*
X60100000Y-273700000D03*
X60100000Y-276100000D03*
X60100000Y-278500000D03*
X60100000Y-280900000D03*
X60100000Y-283300000D03*
D13*
X59900000Y-285700000D03*
D10*
G36*
X53000000Y-287400000D02*
X66400000Y-287400000D01*
X65800000Y-288800000D01*
X53600000Y-288800000D01*
X53000000Y-287400000D01*
X53000000Y-287400000D01*
G37*
G36*
X65775000Y-262400000D02*
X53625000Y-262400000D01*
X54225000Y-261000000D01*
X65175000Y-261000000D01*
X65775000Y-262400000D01*
X65775000Y-262400000D01*
G37*
G36*
X66939949Y-264979899D02*
X63970101Y-262010051D01*
X64960051Y-261020101D01*
X67929899Y-263989949D01*
X66939949Y-264979899D01*
X66939949Y-264979899D01*
G37*
D14*
X67075000Y-275625000D03*
D10*
G36*
X53920000Y-289800000D02*
X64820000Y-289800000D01*
X64220000Y-291200000D01*
X54520000Y-291200000D01*
X53920000Y-289800000D01*
X53920000Y-289800000D01*
G37*
G36*
X67945584Y-287244365D02*
X63844365Y-291345584D01*
X62854416Y-290355635D01*
X66955635Y-286254416D01*
X67945584Y-287244365D01*
X67945584Y-287244365D01*
G37*
D19*
X71600000Y-294500000D03*
X90600000Y-128500000D03*
X62100000Y-67500000D03*
X85100000Y-227500000D03*
D20*
X59600000Y-191020000D03*
X56000000Y-191020000D03*
X59600000Y-189750000D03*
X56000000Y-189750000D03*
X59600000Y-188480000D03*
X56000000Y-188480000D03*
X59600000Y-187210000D03*
X56000000Y-187210000D03*
X59600000Y-185940000D03*
X56000000Y-185940000D03*
X59600000Y-184670000D03*
X56000000Y-184670000D03*
X59600000Y-183400000D03*
X56000000Y-183400000D03*
X59600000Y-182130000D03*
X56000000Y-182130000D03*
X59600000Y-180860000D03*
X56000000Y-180860000D03*
X59600000Y-179590000D03*
X56000000Y-179590000D03*
X59600000Y-178320000D03*
X56000000Y-178320000D03*
X59600000Y-177050000D03*
X56000000Y-177050000D03*
X59600000Y-175780000D03*
X56000000Y-175780000D03*
M02*
