<?xml version="1.0" encoding="UTF-8" standalone="no"?>
<svg
   xmlns:dc="http://purl.org/dc/elements/1.1/"
   xmlns:cc="http://creativecommons.org/ns#"
   xmlns:rdf="http://www.w3.org/1999/02/22-rdf-syntax-ns#"
   xmlns:svg="http://www.w3.org/2000/svg"
   xmlns="http://www.w3.org/2000/svg"
   xmlns:sodipodi="http://sodipodi.sourceforge.net/DTD/sodipodi-0.dtd"
   xmlns:inkscape="http://www.inkscape.org/namespaces/inkscape"
   width="94.650747817mm"
   height="249.517717796mm"
   viewBox="0 0 94.650747817 249.517717796"
   version="1.1"
   id="svg6"
   sodipodi:docname="Modelo_Plantilla40_Interior.svg"
   inkscape:version="0.92.3 (2405546, 2018-03-11)">
  <metadata
     id="metadata12">
    <rdf:RDF>
      <cc:Work
         rdf:about="">
        <dc:format>image/svg+xml</dc:format>
        <dc:type
           rdf:resource="http://purl.org/dc/dcmitype/StillImage" />
        <dc:title></dc:title>
      </cc:Work>
    </rdf:RDF>
  </metadata>
  <defs
     id="defs10" />
  <sodipodi:namedview
     pagecolor="#ffffff"
     bordercolor="#666666"
     borderopacity="1"
     objecttolerance="10"
     gridtolerance="10"
     guidetolerance="10"
     inkscape:pageopacity="0"
     inkscape:pageshadow="2"
     inkscape:window-width="1051"
     inkscape:window-height="480"
     id="namedview8"
     showgrid="false"
     inkscape:zoom="0.25024943"
     inkscape:cx="178.86756"
     inkscape:cy="471.52954"
     inkscape:window-x="0"
     inkscape:window-y="0"
     inkscape:window-maximized="0"
     inkscape:current-layer="svg6" />
  <g
     id="Offset2D"
     transform="translate(47.325365,124.761183) scale(1,-1)">
    <path
       id="Offset2D_w0000"
       d="M -29.3443743817 -86.1595229717 L -29.7262941192 -87.8881063321 L -30.0027320911 -89.5992433339 L -30.180755506 -91.3234079618 L -30.2597822467 -93.0549330138 L -30.2395443073 -94.7881393416 L -30.1201165794 -96.5173492183 L -29.9018894334 -98.2368813746 L -29.585576544 -99.9410990726 L -29.172215728 -101.624419789 L -28.6631627832 -103.281305856 L -28.0600887416 -104.906339642 L -27.3649709127 -106.494174426 L -26.580089792 -108.039616049 L -25.7080201317 -109.537582912 L -24.7516225549 -110.983173114 L -23.7140332013 -112.371634983 L -22.5986576995 -113.698423001 L -21.4091540585 -114.959170839 L -20.1494201482 -116.149755327 L -18.8235914306 -117.266273176 L -17.4360222664 -118.305054981 L -15.9912554675 -119.262686731 L -14.4940317878 -120.136046935 L -12.9492694505 -120.922248642 L -11.3620260442 -121.618727302 L -9.73751418489 -122.223196665 L -8.08106080338 -122.733668425 L -6.39809919354 -123.148475151 L -4.69415127774 -123.466249696 L -2.97480379653 -123.685954791 L -1.24570196439 -123.806867126 L 0.487487577197 -123.828586424 L 2.21907961297 -123.751048096 L 3.94339067707 -123.574502779 L 5.6547671484 -123.299530026 L 7.34759891303 -122.927030483 L 9.01632327918 -122.458237595 L 10.6554704805 -121.894667334 L 12.2596719797 -121.238184655 L 13.8236536787 -120.490941082 L 15.3422923793 -119.655380959 L 16.8106077182 -118.734251759 L 18.2237764735 -117.730577424 L 19.5771688146 -116.647638844 L 20.8663427468 -115.489002485 L 22.0870684678 -114.258452993 L 23.2353480949 -112.960036058 L 24.3074082986 -111.598017873 L 25.2997324184 -110.176854299 L 26.2090706757 -108.701207096 L 27.0324359103 -107.175925771 L 27.7671282258 -105.606002565 L 28.4107397288 -103.996596313 L 28.9611574086 -102.352986174 L 29.4165738743 -100.680557294 L 29.7754991154 -98.9847969484 L 30.0367533362 -97.2712764072 L 30.1994799552 -95.5456042306 L 30.26314576 -93.8134492183 L 30.2275396813 -92.0804912413 L 30.0899219831 -90.3157135387 L 29.9046834691 -88.4376709037 A 2 2 0 0 0 29.9017 -88.4047L 29.7480067312 -86.5287824743 A 2 2 0 0 0 29.7455 -86.4953L 29.6249456535 -84.6409122221 A 2 2 0 0 0 29.623 -84.6072L 29.5348305932 -82.7728673069 A 2 2 0 0 0 29.5335 -82.7393L 29.476733586 -80.9229399646 A 2 2 0 0 0 29.476 -80.8899L 29.4494921746 -79.0890230544 A 2 2 0 0 0 29.4493 -79.0569L 29.4517173303 -77.268618713 A 2 2 0 0 0 29.452 -77.2378L 29.4818236394 -75.4588349339 A 2 2 0 0 0 29.483 -75.4163L 29.6179781821 -71.8716817982 A 2 2 0 0 0 29.6205 -71.8224L 29.8436278811 -68.270014198 A 2 2 0 0 0 29.8465 -68.231L 30.1426638414 -64.6399729458 A 2 2 0 0 0 30.1452 -64.6114L 30.4998044491 -60.9533263761 A 2 2 0 0 0 30.5013 -60.9381L 30.6962247612 -59.0760400146 A 2 2 0 0 0 30.697 -59.0689L 30.901453062 -57.1811210616 A 2 2 0 0 0 30.902 -57.176L 31.1145626007 -55.2601135977 A 2 2 0 0 0 31.1149 -55.2568L 31.3341263849 -53.3106939227 A 2 2 0 0 0 31.3343 -53.309L 31.5588403028 -51.3308019255 A 2 2 0 0 0 31.5589 -51.3305L 31.7875096434 -49.3191187749 L 32.0192750193 -47.2741889283 L 32.2535560544 -45.1955104008 L 32.4901521058 -43.0837722557 L 32.7292975471 -40.9409828767 A 2 2 0 0 0 32.7294 -40.9398L 33.2186029503 -36.5794290408 A 2 2 0 0 0 33.2195 -36.5714L 33.7332722006 -32.1537982093 A 2 2 0 0 0 33.7355 -32.1355L 34.2900284818 -27.7220461265 A 2 2 0 0 0 34.2928 -27.701L 34.5908981636 -25.5164073946 A 2 2 0 0 0 34.5935 -25.4983L 34.9082759824 -23.3391907818 A 2 2 0 0 0 34.9115 -23.318L 35.244844864 -21.1917791098 A 2 2 0 0 0 35.2488 -21.1676L 35.6022205716 -19.08079348 A 2 2 0 0 0 35.607 -19.0539L 35.9815697838 -17.0119063439 A 2 2 0 0 0 35.9872 -16.9827L 36.3835163948 -14.9895829665 A 2 2 0 0 0 36.3899 -14.9587L 36.8080248576 -13.0168838485 A 2 2 0 0 0 36.8151 -12.9852L 37.2542822984 -11.0952939647 A 2 2 0 0 0 37.2619 -11.0639L 37.7207120068 -9.22464232874 A 2 2 0 0 0 37.7285 -9.19454L 38.2050706248 -7.40320901816 A 2 2 0 0 0 38.2126 -7.37555L 38.7045472603 -5.62793219468 A 2 2 0 0 0 38.7115 -5.60376L 39.2158839226 -3.89459735195 A 2 2 0 0 0 39.2241 -3.86758L 40.2574228053 -0.539572108733 A 2 2 0 0 0 40.2629 -0.522207L 41.3046911223 2.72816161096 L 42.3233550839 5.95474470876 L 42.8111888329 7.56789030855 L 43.2819243658 9.1990972336 L 43.7312855695 10.8547201301 L 44.1559059492 12.5440736871 L 44.5525357465 14.2765496563 L 44.9180276246 16.0614115783 L 45.249347803 17.9076073298 L 45.5436023115 19.8235628947 L 45.7980639186 21.8169856397 L 46.0102431025 23.8947093225 L 46.1779235712 26.0625497167 L 46.2995301085 28.330718886 L 46.3421049363 29.4930325481 L 46.3727841896 30.6859934573 L 46.3912456289 31.9041277601 L 46.3974339085 33.1523945751 L 46.397296937 35.2342964018 L 46.3963438716 37.2273239116 L 46.3937947968 39.130861691 L 46.3889091897 40.9491757422 L 46.3809904507 42.6863819317 L 46.3693749353 44.3464615082 L 46.3534361647 45.9332504445 L 46.3325929616 47.4504595719 L 46.3062946487 48.9016610361 L 46.2740406529 50.2903049387 L 46.2353504312 51.619717281 L 46.1897978906 52.8931020709 L 46.1369776117 54.1135608211 L 46.07653484 55.2840729435 L 46.008139232 56.4075243419 L 45.9315032616 57.4866842306 L 45.8463580575 58.5242462929 L 45.7524826015 59.522806801 L 45.6496744783 60.4848573122 L 45.5377514249 61.4128293239 L 45.4165664069 62.3090716621 L 45.287199538 63.1677940364 L 44.9960424353 64.8292449584 L 44.6674115961 66.3904808544 L 44.2993566606 67.8743276397 L 43.8913566509 69.2947624258 L 43.4429761288 70.664329023 L 42.953907397 71.994123948 L 42.4239931389 73.2937513125 L 41.8533238536 74.5713928595 L 41.2422614497 75.8338207709 L 40.5914573896 77.0866116064 L 39.901883167 78.3341772865 L 39.1747789352 79.5799892719 L 38.4116265682 80.826674729 L 37.6141115854 82.0761446712 L 36.7840657485 83.3297125592 L 35.9234356108 84.5882013671 L 35.0372980822 85.8476453185 L 33.177516222 88.3964880943 L 31.2313022513 90.9597451404 L 29.2096212356 93.5394616677 L 27.1256943066 96.1318777923 L 24.9901501928 98.7320662578 L 22.8097538619 101.332828796 L 20.586025691 103.923754608 L 18.3139216373 106.490313795 L 15.9742352446 109.019902196 L 14.7822856515 110.253031889 L 13.5614607782 111.470170294 L 12.3118518093 112.662719005 L 11.0282866165 113.826413653 L 9.70475343527 114.956685358 L 8.33429036898 116.048693084 L 6.90887446682 117.097353612 L 5.41928382988 118.097301989 L 3.84338251211 119.049841147 L 3.04025626326 119.494367936 L 2.20297825772 119.928962206 L 1.34056417205 120.346790119 L 0.451122514316 120.746975649 L -0.467330294709 121.128559572 L -1.41690566026 121.490538801 L -2.39981558887 121.831841675 L -3.41836216612 122.151321402 L -4.47494435869 122.447742034 L -5.57206538333 122.719792874 L -6.71230037694 122.966079727 L -7.89829783235 123.185112807 L -9.13279096386 123.375318594 L -10.4185713731 123.535045273 L -11.7584911273 123.662546522 L -13.1554742192 123.756008002 L -14.6124997382 123.813536132 L -16.1375350226 123.833234356 L -18.3466646229 123.815870659 L -20.4604420696 123.756765909 L -21.4664648608 123.709000772 L -22.4509626388 123.646979176 L -23.4080090978 123.569853988 L -24.3376287545 123.476528612 L -25.2398535826 123.36596712 L -26.114766378 123.237147684 L -26.9625106172 123.089127996 L -27.7832543162 122.920992783 L -28.5772844378 122.731855656 L -29.3449958322 122.520858389 L -30.0868851637 122.287149903 L -30.8036112478 122.029843204 L -31.4959580178 121.748021029 L -32.1648728469 121.440639725 L -32.8114578679 121.106555991 L -33.4368777861 120.744468474 L -34.0423894144 120.352875057 L -34.6292684909 119.930084602 L -35.1987300206 119.474223417 L -35.7519017426 118.983244346 L -36.2897594925 118.454972499 L -36.813100608 117.887170552 L -37.3225196615 117.277555049 L -37.8184301748 116.623888333 L -38.3010594877 115.923994826 L -38.7704858427 115.175797837 L -39.2266706553 114.377348118 L -39.6694866234 113.526810873 L -40.0987668339 112.622467494 L -40.5142977559 111.662745831 L -40.9158797368 110.646127343 L -41.3033110191 109.571218008 L -41.6764209148 108.436649593 L -42.0350620358 107.241147419 L -42.3791165123 105.983450666 L -42.7085144655 104.662318092 L -43.0231975941 103.276567052 L -43.3231495384 101.824980744 L -43.608387454 100.306372917 L -43.8789398458 98.7195565322 L -44.1348738093 97.0633386428 L -44.3762679321 95.3365158782 L -44.6032161935 93.5378928902 L -44.8158356189 91.6662512955 L -45.0142556817 89.7203888455 L -45.1986103847 87.6990619023 L -45.3690481039 85.6010493389 L -45.5257323986 83.4251102454 L -45.6688193259 81.1699933127 L -45.7984829526 78.8344410704 L -45.9149022204 76.4171967573 L -46.0182568628 73.9169828393 L -46.1087269122 71.3325419309 L -46.1865033061 68.6625875385 L -46.2517796543 65.905825644 L -46.3047444735 63.0609776926 L -46.3455959399 60.1267494319 L -46.3745263922 57.1018414498 L -46.3917410519 53.9849568363 L -46.3974168925 50.7828639884 L -46.3852504516 49.5393569989 L -46.3490611023 48.3199580002 L -46.2889300483 47.1165620815 L -46.2050772925 45.9289018054 L -46.097779546 44.7566835959 L -45.9673651365 43.5995521075 L -45.8142133577 42.4571207326 L -45.6403404588 41.3391939762 L -45.2224321972 39.1133318668 L -44.7234164788 36.9491475201 L -44.1462136595 34.8319534121 L -43.4962891037 32.7572103001 L -42.7796558221 30.7202507501 L -42.002829485 28.7163391759 L -41.1727991676 26.7407172976 L -40.2969703357 24.7886359146 L -39.3830855845 22.8553805012 L -38.4406156694 20.9392740394 L -36.4918270554 17.1179977298 L -34.5314416478 13.3166624643 A 2 2 0 0 0 -34.5197 13.2935L -32.6177439734 9.48479446321 A 2 2 0 0 0 -32.5999 9.44823L -31.6911808801 7.53186016978 A 2 2 0 0 0 -31.6754 7.49765L -30.8044041593 5.56791786523 A 2 2 0 0 0 -30.7864 5.52681L -29.95982987 3.58004787671 A 2 2 0 0 0 -29.9404 3.5327L -29.1640122801 1.56563806663 A 2 2 0 0 0 -29.1441 1.51295L -28.4226212551 -0.477225874337 A 2 2 0 0 0 -28.403 -0.534093L -27.7402077498 -2.54964624077 A 2 2 0 0 0 -27.7216 -2.60928L -27.1199741948 -4.65186974026 A 2 2 0 0 0 -27.1031 -4.71277L -26.5636476983 -6.78340267548 A 2 2 0 0 0 -26.5488 -6.84414L -26.071521015 -8.94321112729 A 2 2 0 0 0 -26.059 -9.00251L -25.6425974874 -11.1298435472 A 2 2 0 0 0 -25.6323 -11.1866L -25.274757422 -13.3414939596 A 2 2 0 0 0 -25.2666 -13.3949L -24.964925725 -15.5760552619 A 2 2 0 0 0 -24.9587 -15.6253L -24.7092596743 -17.8311818842 A 2 2 0 0 0 -24.7047 -17.8759L -24.5033312669 -20.1043209348 A 2 2 0 0 0 -24.5001 -20.1443L -24.3423531943 -22.39283128 A 2 2 0 0 0 -24.3402 -22.4281L -24.2214174671 -24.6940603973 A 2 2 0 0 0 -24.22 -24.7249L -24.1357230262 -27.005412831 A 2 2 0 0 0 -24.1349 -27.0321L -24.0807992275 -29.32442069 A 2 2 0 0 0 -24.0803 -29.3577L -24.0482945791 -33.9664736218 A 2 2 0 0 0 -24.0484 -34.0031L -24.1008789035 -38.6267095493 A 2 2 0 0 0 -24.1015 -38.6579L -24.2261208987 -43.2775303786 A 2 2 0 0 0 -24.2271 -43.3065L -24.4178895854 -47.904288028 A 2 2 0 0 0 -24.4193 -47.9327L -24.6734097141 -52.4913820287 A 2 2 0 0 0 -24.6752 -52.5204L -24.9919083953 -57.0230561432 A 2 2 0 0 0 -24.9943 -57.0539L -25.3748711706 -61.4846074457 A 2 2 0 0 0 -25.3772 -61.5097L -25.5925235004 -63.6934966367 A 2 2 0 0 0 -25.5944 -63.7116L -25.8273333581 -65.872129028 A 2 2 0 0 0 -25.8295 -65.8915L -26.080868375 -68.0272010353 A 2 2 0 0 0 -26.0834 -68.0479L -26.3540539151 -70.1574465434 A 2 2 0 0 0 -26.357 -70.1796L -26.6478356482 -72.2616389546 A 2 2 0 0 0 -26.6513 -72.2853L -26.9631493801 -74.3386679698 A 2 2 0 0 0 -26.9671 -74.3638L -27.3008666181 -76.3874780418 A 2 2 0 0 0 -27.3054 -76.414L -27.6617710107 -78.4071247021 A 2 2 0 0 0 -27.667 -78.4351L -28.0465503762 -80.3967716785 A 2 2 0 0 0 -28.0524 -80.426L -28.4557745457 -82.3557030079 A 2 2 0 0 0 -28.4624 -82.3861L -28.889881353 -84.2833545445 A 2 2 0 0 0 -28.8972 -84.3149L -29.3443743817 -86.1595229717 "
       stroke="#191919"
       stroke-width="0.35 px"
       style="stroke-width:0.35;stroke-miterlimit:4;stroke-dasharray:none;fill:none;fill-rule: evenodd " />
    <title
       id="title3">Offset2D</title>
  </g>
</svg>
