<?xml version="1.0"?>
<!DOCTYPE svg PUBLIC "-//W3C//DTD SVG 1.1//EN" "http://www.w3.org/Graphics/SVG/1.1/DTD/svg11.dtd">
<svg width="93.499997406mm" height="240.162579803mm" viewBox="0 0 93.499997406 240.162579803" xmlns="http://www.w3.org/2000/svg" version="1.1">
<g id="Sketch" transform="translate(46.749999,120.083331) scale(1,-1)">
<path id="Sketch_w0000"  d="M -29.5983295441 -81.0229034424 L -29.9851474762 -82.7346420288 L -30.2730579376 -84.4657669067 L -30.4611110687 -86.2105560303 L -30.5486869812 -87.9632720947 L -30.5354957581 -89.7181243896 L -30.4215812683 -91.4693222046 L -30.2073192596 -93.2110977173 L -29.893415451 -94.9376907349 L -29.4809074402 -96.6434249878 L -28.9711551666 -98.3226547241 L -28.3658390045 -99.9698562622 L -27.6669578552 -101.579589844 L -26.8768138885 -103.14654541 L -25.9980144501 -104.665557861 L -25.0334606171 -106.131607056 L -23.9863319397 -107.539871216 L -22.8600826263 -108.885688782 L -21.6584281921 -110.164634705 L -20.3853321075 -111.372489929 L -19.0449924469 -112.505256653 L -17.6418323517 -113.559211731 L -16.180480957 -114.53087616 L -14.6657552719 -115.417037964 L -13.1026554108 -116.214775085 L -11.4963340759 -116.921470642 L -9.85209274292 -117.53477478 L -8.17535305023 -118.05267334 L -6.4716463089 -118.473457336 L -4.74659252167 -118.79573822 L -3.00588178635 -119.018455505 L -1.25525593758 -119.140869141 L 0.499510407448 -119.162582397 L 2.25262904167 -119.083518982 L 3.99831724167 -118.903938293 L 5.73081684113 -118.624435425 L 7.44441270828 -118.245933533 L 9.13345336914 -117.769676208 L 10.7923660278 -117.197242737 L 12.4156799316 -116.530509949 L 13.9980392456 -115.771690369 L 15.5342254639 -114.923271179 L 17.0191707611 -113.988067627 L 18.4479789734 -112.969146729 L 19.8159332275 -111.869888306 L 21.1185245514 -110.693908691 L 22.3514556885 -109.445083618 L 23.5106582642 -108.127540588 L 24.5923080444 -106.745620728 L 25.5928401947 -105.303878784 L 26.5089530945 -103.8070755 L 27.3376235962 -102.260154724 L 28.0761203766 -100.668205261 L 28.7220058441 -99.0364837646 L 29.2731494904 -97.3703765869 L 29.7277336121 -95.6753768921 L 30.0842590332 -93.957069397 L 30.341550827 -92.2211303711 L 30.498758316 -90.4732894897 L 30.5553646088 -88.7192993164 L 30.5111808777 -86.9649581909 L 30.3663539886 -85.2160415649 L 30.1802883148 -83.4197311401 L 30.0260219574 -81.6447525024 L 29.9031257629 -79.8901824951 L 29.8109378815 -78.1545639038 L 29.7485637665 -76.4359588623 L 29.7149085999 -74.7320175171 L 29.7086963654 -73.0399627686 L 29.7284793854 -71.3566970825 L 29.8396148682 -68.0027923584 L 30.0346450806 -64.6414108276 L 30.2993621826 -61.2433509827 L 30.6200447083 -57.7816886902 L 30.7973613739 -56.0195732117 L 30.9839992523 -54.2331199646 L 31.1785526276 -52.4200401306 L 31.3797054291 -50.5782966614 L 31.5862255096 -48.7061576843 L 31.7970314026 -46.8023109436 L 32.0112571716 -44.8660736084 L 32.2283172607 -42.8975830078 L 32.4480018616 -40.8979759216 L 32.6705284119 -38.8696212769 L 33.1274642944 -34.7429847717 L 33.6102294922 -30.5625171661 L 34.1345748901 -26.3863887787 L 34.4176940918 -24.3195266724 L 34.7174873352 -22.2769680023 L 35.0357170105 -20.265707016 L 35.3738441467 -18.2919368744 L 35.7328987122 -16.3607959747 L 36.1134376526 -14.4761304855 L 36.515422821 -12.640247345 L 36.9381484985 -10.8537063599 L 37.380279541 -9.1153421402 L 37.8399047852 -7.42248058319 L 38.3146400452 -5.77116680145 L 38.8017158508 -4.15640306473 L 39.8004188538 -1.01270389557 L 40.8093757629 2.06114888191 L 41.8000946045 5.12338733673 L 42.2793731689 6.66949272156 L 42.7429161072 8.23628807068 L 43.1869468689 9.83195018768 L 43.607711792 11.4646692276 L 44.0015449524 13.1425180435 L 44.3649101257 14.8733348846 L 44.6944503784 16.6645870209 L 44.9870529175 18.5232543945 L 45.2398834229 20.4556980133 L 45.450428009 22.4675502777 L 45.6165542603 24.5636291504 L 45.736530304 26.7478523254 L 45.7787895203 27.8739719391 L 45.8090591431 29.023141861 L 45.8272590637 30.195558548 L 45.8333320618 31.3913459778 L 45.8332023621 33.4483261108 L 45.8322982788 35.4122428894 L 45.8298797607 37.2875556946 L 45.8252487183 39.078578949 L 45.81772995 40.7894935608 L 45.8066902161 42.4243278503 L 45.7915344238 43.9869918823 L 45.7716903687 45.4812507629 L 45.7466239929 46.9107322693 L 45.7158355713 48.2789535522 L 45.6788520813 49.5892868042 L 45.6352310181 50.8449897766 L 45.5845603943 52.0491981506 L 45.5264625549 53.2049179077 L 45.4605827332 54.3150482178 L 45.3865890503 55.3823699951 L 45.3041877747 56.4095458984 L 45.2131080627 57.3991355896 L 45.1130981445 58.3535881042 L 45.0039405823 59.2752418518 L 44.885433197 60.1663398743 L 44.7574043274 61.0290184021 L 44.6197013855 61.8653106689 L 44.472202301 62.6771583557 L 44.1473922729 64.2348327637 L 43.7823638916 65.715713501 L 43.3768234253 67.1321029663 L 42.930770874 68.4949417114 L 42.4444732666 69.8139572144 L 41.9184494019 71.0976791382 L 41.3534355164 72.3535461426 L 40.7503814697 73.5879592896 L 40.1104202271 74.8063735962 L 39.4348449707 76.0133666992 L 38.7250823975 77.2127075195 L 37.9826850891 78.4074325562 L 37.2093009949 79.5999298096 L 36.4066505432 80.7920074463 L 35.5765037537 81.984954834 L 34.7206687927 83.1796264648 L 32.9391708374 85.5759124756 L 31.0763893127 87.9819107056 L 29.1456508636 90.396484375 L 27.1585521698 92.8179321289 L 25.123758316 95.2437973022 L 23.0456886292 97.6700286865 L 20.9231719971 100.090049744 L 18.748128891 102.493843079 L 16.504234314 104.86706543 L 15.3487815857 106.036315918 L 14.1655817032 107.190116882 L 12.949681282 108.325042725 L 11.6953620911 109.43724823 L 10.3961009979 110.522392273 L 9.04452514648 111.575653076 L 7.63237333298 112.591674805 L 6.15045213699 113.564544678 L 4.58859491348 114.48777771 L 3.77423739433 114.928581238 L 2.93562150002 115.354263306 L 2.07118439674 115.763839722 L 1.17929470539 116.156265259 L 0.258250892162 116.530487061 L -0.693719744682 116.885368347 L -1.67846226692 117.219764709 L -2.6978957653 117.532463074 L -3.75401425362 117.822212219 L -4.84888839722 118.087715149 L -5.98466587067 118.32762146 L -7.16357421875 118.540542603 L -8.38792133331 118.725021362 L -9.66009521484 118.879562378 L -10.9825687408 119.002632141 L -12.3578977585 119.09261322 L -13.7887248993 119.147865295 L -15.2777776718 119.166664124 L -17.4085731506 119.149925232 L -19.4478359222 119.092903137 L -20.433631897 119.046096802 L -21.3971328735 118.985397339 L -22.3385334015 118.90953064 L -23.2580299377 118.817222595 L -24.1558189392 118.707199097 L -25.0320949554 118.578186035 L -25.8870544434 118.428909302 L -26.7208938599 118.258087158 L -27.5338077545 118.064453125 L -28.3259925842 117.846733093 L -29.0976448059 117.603645325 L -29.8489589691 117.33392334 L -30.5801315308 117.03629303 L -31.2913589478 116.709472656 L -31.9828357697 116.35218811 L -32.6547584534 115.963180542 L -33.3073234558 115.541152954 L -33.9407234192 115.084846497 L -34.5551605225 114.592987061 L -35.1508255005 114.064292908 L -35.7279129028 113.497489929 L -36.2866249084 112.891311646 L -36.8271522522 112.244468689 L -37.3496894836 111.555702209 L -37.8544387817 110.823738098 L -38.3415908813 110.047286987 L -38.811340332 109.225090027 L -39.2638893127 108.355865479 L -39.6994285583 107.438331604 L -40.1181526184 106.471229553 L -40.5202636719 105.453277588 L -40.9059524536 104.383201599 L -41.2754135132 103.259727478 L -41.6288490295 102.081581116 L -41.9664497375 100.847480774 L -42.2884101868 99.5561676025 L -42.5949325562 98.2063522339 L -42.8862075806 96.7967681885 L -43.1624298096 95.3261413574 L -43.4238014221 93.7931976318 L -43.6705131531 92.1966552734 L -43.902759552 90.5352478027 L -44.1207427979 88.8077011108 L -44.3246536255 87.0127334595 L -44.5146865845 85.1490783691 L -44.6910438538 83.2154541016 L -44.8539161682 81.2105941772 L -45.0034980774 79.1332244873 L -45.1399917603 76.9820632935 L -45.2635879517 74.7558364868 L -45.3744812012 72.4532775879 L -45.4728736877 70.0731048584 L -45.5589561462 67.6140441895 L -45.6329231262 65.0748214722 L -45.6949768066 62.4541740417 L -45.7453079224 59.7508125305 L -45.7841110229 56.9634666443 L -45.8115882874 54.0908660889 L -45.8279304504 51.1317329407 L -45.8333320618 48.0847969055 L -45.8210945129 46.8744812012 L -45.784412384 45.679271698 L -45.7234077454 44.4990997314 L -45.6382675171 43.3338623047 L -45.5292434692 42.1834259033 L -45.3966560364 41.0476112366 L -45.2408828735 39.9262161255 L -45.0623703003 38.8189926147 L -44.8616142273 37.7256698608 L -44.639175415 36.6459465027 L -44.1317062378 34.5259399414 L -43.5454025269 32.4560012817 L -42.8864212036 30.4327831268 L -42.1615409851 28.4525852203 L -41.3780517578 26.5114326477 L -40.5436820984 24.6051120758 L -39.666469574 22.7292346954 L -38.7546615601 20.8792858124 L -37.8166313171 19.0506763458 L -35.8954734802 15.4390153885 L -33.9695701599 11.8575706482 L -32.1034889221 8.27073383331 L -31.2121047974 6.46470546722 L -30.3580474854 4.64501190186 L -29.547794342 2.8080728054 L -28.7870731354 0.950696229935 L -28.0806884766 -0.929843723774 L -27.4323654175 -2.83572602272 L -26.8445854187 -4.76850938797 L -26.3185539246 -6.72910451889 L -25.8542995453 -8.7178068161 L -25.4507923126 -10.734333992 L -25.1060810089 -12.7778711319 L -24.8174095154 -14.8471059799 L -24.5813407898 -16.9402770996 L -24.3939056396 -19.0552177429 L -24.2507839203 -21.189447403 L -24.1474990845 -23.340265274 L -24.0796279907 -25.5048389435 L -24.0429916382 -27.6803092957 L -24.0491352081 -32.0529022217 L -24.1436691284 -36.4375572205 L -24.3132266998 -40.8160934448 L -24.5503292084 -45.171749115 L -24.8504619598 -49.4883537292 L -25.2109088898 -53.750202179 L -25.631023407 -57.9425621033 L -25.8639221191 -60.008480072 L -26.1126003265 -62.0522079468 L -26.3776187897 -64.0723724365 L -26.6596012115 -66.0677108765 L -26.9592132568 -68.0370864868 L -27.2771110535 -69.9794464111 L -27.6139163971 -71.8938751221 L -27.9701900482 -73.7795410156 L -28.3464107513 -75.6357650757 L -28.7429847717 -77.4619750977 L -29.1602210999 -79.257774353 L -29.5983295441 -81.0229034424 " stroke="#191919" stroke-width="0.35 px" style="stroke-width:0.35;stroke-miterlimit:4;stroke-dasharray:none;fill:none;fill-rule: evenodd "/>
<title>Sketch</title>
</g>
</svg>