  0
SECTION
  2
HEADER
  9
$ACADVER
  1
AC1014
  9
$HANDSEED
  5
FFFF
  9
$MEASUREMENT
 70
     1
  0
ENDSEC
  0
SECTION
  2
TABLES
  0
TABLE
  2
VPORT
  5
8
330
0
100
AcDbSymbolTable
 70
     4
  0
VPORT
  5
2E
330
8
100
AcDbSymbolTableRecord
100
AcDbViewportTableRecord
  2
*ACTIVE
 70
     0
 10
0.0
 20
0.0
 11
1.0
 21
1.0
 12
210.0
 22
148.5
 13
0.0
 23
0.0
 14
10.0
 24
10.0
 15
10.0
 25
10.0
 16
0.0
 26
0.0
 36
1.0
 17
0.0
 27
0.0
 37
0.0
 40
341.0
 41
1.24
 42
50.0
 43
0.0
 44
0.0
 50
0.0
 51
0.0
 71
     0
 72
   100
 73
     1
 74
     3
 75
     0
 76
     0
 77
     0
 78
     0
  0
ENDTAB
  0
TABLE
  2
LTYPE
  5
5
330
0
100
AcDbSymbolTable
 70
     1
  0
LTYPE
  5
14
330
5
100
AcDbSymbolTableRecord
100
AcDbLinetypeTableRecord
  2
BYBLOCK
 70
     0
  3

 72
    65
 73
     0
 40
0.0
  0
LTYPE
  5
15
330
5
100
AcDbSymbolTableRecord
100
AcDbLinetypeTableRecord
  2
BYLAYER
 70
     0
  3

 72
    65
 73
     0
 40
0.0
  0
LTYPE
  5
16
330
5
100
AcDbSymbolTableRecord
100
AcDbLinetypeTableRecord
  2
CONTINUOUS
 70
     0
  3
Solid line
 72
    65
 73
     0
 40
0.0
  0
ENDTAB
  0
TABLE
  2
LAYER
  5
2
100
AcDbSymbolTable
 70
1
  0
LAYER
  5
50
100
AcDbSymbolTableRecord
100
AcDbLayerTableRecord
  2
0
 70
0
  6
CONTINUOUS
  0
ENDTAB
  0
TABLE
  2
STYLE
  5
3
330
0
100
AcDbSymbolTable
 70
     1
  0
STYLE
  5
11
330
3
100
AcDbSymbolTableRecord
100
AcDbTextStyleTableRecord
  2
STANDARD
 70
     0
 40
0.0
 41
1.0
 50
0.0
 71
     0
 42
2.5
  3
txt
  4

  0
ENDTAB
  0
TABLE
  2
VIEW
  5
6
330
0
100
AcDbSymbolTable
 70
     0
  0
ENDTAB
  0
TABLE
  2
UCS
  5
7
330
0
100
AcDbSymbolTable
 70
     0
  0
ENDTAB
  0
TABLE
  2
APPID
  5
9
330
0
100
AcDbSymbolTable
 70
     2
  0
APPID
  5
12
330
9
100
AcDbSymbolTableRecord
100
AcDbRegAppTableRecord
  2
ACAD
 70
     0
  0
ENDTAB
  0
TABLE
  2
DIMSTYLE
  5
A
330
0
100
AcDbSymbolTable
 70
     1
  0
DIMSTYLE
105
27
330
A
100
AcDbSymbolTableRecord
100
AcDbDimStyleTableRecord
  2
ISO-25
 70
     0
  3

  4

  5

  6

  7

 40
1.0
 41
2.5
 42
0.625
 43
3.75
 44
1.25
 45
0.0
 46
0.0
 47
0.0
 48
0.0
140
2.5
141
2.5
142
0.0
143
0.03937007874016
144
1.0
145
0.0
146
1.0
147
0.625
 71
     0
 72
     0
 73
     0
 74
     0
 75
     0
 76
     0
 77
     1
 78
     8
170
     0
171
     3
172
     1
173
     0
174
     0
175
     0
176
     0
177
     0
178
     0
270
     2
271
     2
272
     2
273
     2
274
     3
340
11
275
     0
280
     0
281
     0
282
     0
283
     0
284
     8
285
     0
286
     0
287
     3
288
     0
  0
ENDTAB
  0
TABLE
  2
BLOCK_RECORD
  5
1
330
0
100
AcDbSymbolTable
 70
     1
  0
BLOCK_RECORD
  5
1F
330
1
100
AcDbSymbolTableRecord
100
AcDbBlockTableRecord
  2
*MODEL_SPACE
  0
BLOCK_RECORD
  5
1B
330
1
100
AcDbSymbolTableRecord
100
AcDbBlockTableRecord
  2
*PAPER_SPACE
  0
ENDTAB
  0
ENDSEC
  0
SECTION
  2
BLOCKS
  0
BLOCK
  5
20
330
1F
100
AcDbEntity
  8
0
100
AcDbBlockBegin
  2
*MODEL_SPACE
 70
     0
 10
0.0
 20
0.0
 30
0.0
  3
*MODEL_SPACE
  1

  0
ENDBLK
  5
21
330
1F
100
AcDbEntity
  8
0
100
AcDbBlockEnd
  0
BLOCK
  5
1C
330
1B
100
AcDbEntity
 67
     1
  8
0
100
AcDbBlockBegin
  2
*PAPER_SPACE
  1

  0
ENDBLK
  5
1D
330
1B
100
AcDbEntity
 67
     1
  8
0
100
AcDbBlockEnd
  0
ENDSEC
  0
SECTION
  2
ENTITIES
  0
LWPOLYLINE
  5
100
100
AcDbEntity
  8
0
 62
1
100
AcDbPolyline
 90
112
 70
1
 10
16.619807
 20
36.157997
 30
0.0
 10
15.714121
 20
30.868168
 30
0.0
 10
15.909397
 20
25.555093
 30
0.0
 10
17.117703
 20
20.380087
 30
0.0
 10
19.251110
 20
15.504466
 30
0.0
 10
22.221686
 20
11.089548
 30
0.0
 10
25.941502
 20
7.296638
 30
0.0
 10
30.322626
 20
4.287068
 30
0.0
 10
35.277129
 20
2.222148
 30
0.0
 10
40.564606
 20
1.000898
 30
0.0
 10
45.936112
 20
0.907198
 30
0.0
 10
51.221160
 20
1.857458
 30
0.0
 10
56.249265
 20
3.768138
 30
0.0
 10
60.849941
 20
6.555668
 30
0.0
 10
64.852701
 20
10.136498
 30
0.0
 10
68.087059
 20
14.427068
 30
0.0
 10
70.382529
 20
19.343819
 30
0.0
 10
71.413331
 20
22.705210
 30
0.0
 10
71.919503
 20
26.111546
 30
0.0
 10
72.032396
 20
29.552657
 30
0.0
 10
71.883362
 20
33.018374
 30
0.0
 10
71.603754
 20
36.498528
 30
0.0
 10
71.324923
 20
39.982950
 30
0.0
 10
71.178222
 20
43.461471
 30
0.0
 10
71.295002
 20
46.923922
 30
0.0
 10
71.639210
 20
52.806805
 30
0.0
 10
72.086636
 20
58.682731
 30
0.0
 10
72.621649
 20
64.552254
 30
0.0
 10
73.228617
 20
70.415928
 30
0.0
 10
73.891907
 20
76.274308
 30
0.0
 10
74.595887
 20
82.127949
 30
0.0
 10
75.324927
 20
87.977404
 30
0.0
 10
76.063393
 20
93.823228
 30
0.0
 10
76.738037
 20
98.312234
 30
0.0
 10
77.683988
 20
102.733891
 30
0.0
 10
78.834145
 20
107.104917
 30
0.0
 10
80.121405
 20
111.442026
 30
0.0
 10
81.478668
 20
115.761933
 30
0.0
 10
82.838831
 20
120.081353
 30
0.0
 10
84.134794
 20
124.417002
 30
0.0
 10
85.299455
 20
128.785595
 30
0.0
 10
86.117232
 20
133.538632
 30
0.0
 10
86.643160
 20
138.319602
 30
0.0
 10
86.930766
 20
143.121829
 30
0.0
 10
87.033579
 20
147.938636
 30
0.0
 10
87.005129
 20
152.763346
 30
0.0
 10
86.898939
 20
157.589285
 30
0.0
 10
86.768541
 20
162.409775
 30
0.0
 10
86.667461
 20
167.218141
 30
0.0
 10
86.483896
 20
170.888949
 30
0.0
 10
86.009972
 20
174.522936
 30
0.0
 10
85.249320
 20
178.100082
 30
0.0
 10
84.205573
 20
181.600364
 30
0.0
 10
82.882363
 20
185.003762
 30
0.0
 10
81.283323
 20
188.290253
 30
0.0
 10
79.412084
 20
191.439818
 30
0.0
 10
77.272281
 20
194.432434
 30
0.0
 10
74.380028
 20
198.190360
 30
0.0
 10
71.446973
 20
201.932400
 30
0.0
 10
68.452039
 20
205.631373
 30
0.0
 10
65.374152
 20
209.260097
 30
0.0
 10
62.192235
 20
212.791392
 30
0.0
 10
58.885214
 20
216.198078
 30
0.0
 10
55.432012
 20
219.452968
 30
0.0
 10
51.811554
 20
222.528878
 30
0.0
 10
47.962731
 20
225.055358
 30
0.0
 10
43.838975
 20
226.977988
 30
0.0
 10
39.502431
 20
228.340818
 30
0.0
 10
35.015240
 20
229.187968
 30
0.0
 10
30.439546
 20
229.563488
 30
0.0
 10
25.837494
 20
229.511488
 30
0.0
 10
21.271226
 20
229.076038
 30
0.0
 10
16.802885
 20
228.301218
 30
0.0
 10
13.784850
 20
227.128508
 30
0.0
 10
11.253792
 20
225.368098
 30
0.0
 10
9.161732
 20
223.127908
 30
0.0
 10
7.460688
 20
220.515858
 30
0.0
 10
6.102678
 20
217.639888
 30
0.0
 10
5.039721
 20
214.607913
 30
0.0
 10
4.223836
 20
211.527872
 30
0.0
 10
3.607042
 20
208.507687
 30
0.0
 10
2.685608
 20
202.250563
 30
0.0
 10
1.992399
 20
195.967398
 30
0.0
 10
1.498442
 20
189.664004
 30
0.0
 10
1.174760
 20
183.346196
 30
0.0
 10
0.992378
 20
177.019784
 30
0.0
 10
0.922318
 20
170.690583
 30
0.0
 10
0.935608
 20
164.364406
 30
0.0
 10
1.003278
 20
158.047064
 30
0.0
 10
1.661653
 20
152.544952
 30
0.0
 10
3.024676
 20
147.272412
 30
0.0
 10
4.936129
 20
142.179792
 30
0.0
 10
7.239796
 20
137.217443
 30
0.0
 10
9.779460
 20
132.335716
 30
0.0
 10
12.398903
 20
127.484960
 30
0.0
 10
14.941909
 20
122.615525
 30
0.0
 10
17.252260
 20
117.677762
 30
0.0
 10
19.488799
 20
111.368315
 30
0.0
 10
21.014320
 20
104.913933
 30
0.0
 10
21.936842
 20
98.348788
 30
0.0
 10
22.364386
 20
91.707056
 30
0.0
 10
22.404966
 20
85.022910
 30
0.0
 10
22.166610
 20
78.330523
 30
0.0
 10
21.757332
 20
71.664071
 30
0.0
 10
21.285152
 20
65.057726
 30
0.0
 10
20.926793
 20
61.413304
 30
0.0
 10
20.519809
 20
57.772403
 30
0.0
 10
20.056397
 20
54.137828
 30
0.0
 10
19.528753
 20
50.512383
 30
0.0
 10
18.929076
 20
46.898875
 30
0.0
 10
18.249560
 20
43.300108
 30
0.0
 10
17.482403
 20
39.718887
 30
0.0
  0
ENDSEC
  0
SECTION
  2
OBJECTS
  0
DICTIONARY
  5
C
330
0
100
AcDbDictionary
  3
ACAD_GROUP
350
D
  3
ACAD_MLINESTYLE
350
17
  0
DICTIONARY
  5
D
330
C
100
AcDbDictionary
  0
DICTIONARY
  5
1A
330
C
100
AcDbDictionary
  0
DICTIONARY
  5
17
330
C
100
AcDbDictionary
  3
STANDARD
350
18
  0
DICTIONARY
  5
19
330
C
100
AcDbDictionary
  0
ENDSEC
  0
EOF
