  0
SECTION
  2
HEADER
  9
$ACADVER
  1
AC1014
  9
$HANDSEED
  5
FFFF
  9
$MEASUREMENT
 70
     1
  0
ENDSEC
  0
SECTION
  2
TABLES
  0
TABLE
  2
VPORT
  5
8
330
0
100
AcDbSymbolTable
 70
     4
  0
VPORT
  5
2E
330
8
100
AcDbSymbolTableRecord
100
AcDbViewportTableRecord
  2
*ACTIVE
 70
     0
 10
0.0
 20
0.0
 11
1.0
 21
1.0
 12
210.0
 22
148.5
 13
0.0
 23
0.0
 14
10.0
 24
10.0
 15
10.0
 25
10.0
 16
0.0
 26
0.0
 36
1.0
 17
0.0
 27
0.0
 37
0.0
 40
341.0
 41
1.24
 42
50.0
 43
0.0
 44
0.0
 50
0.0
 51
0.0
 71
     0
 72
   100
 73
     1
 74
     3
 75
     0
 76
     0
 77
     0
 78
     0
  0
ENDTAB
  0
TABLE
  2
LTYPE
  5
5
330
0
100
AcDbSymbolTable
 70
     1
  0
LTYPE
  5
14
330
5
100
AcDbSymbolTableRecord
100
AcDbLinetypeTableRecord
  2
BYBLOCK
 70
     0
  3

 72
    65
 73
     0
 40
0.0
  0
LTYPE
  5
15
330
5
100
AcDbSymbolTableRecord
100
AcDbLinetypeTableRecord
  2
BYLAYER
 70
     0
  3

 72
    65
 73
     0
 40
0.0
  0
LTYPE
  5
16
330
5
100
AcDbSymbolTableRecord
100
AcDbLinetypeTableRecord
  2
CONTINUOUS
 70
     0
  3
Solid line
 72
    65
 73
     0
 40
0.0
  0
ENDTAB
  0
TABLE
  2
LAYER
  5
2
100
AcDbSymbolTable
 70
1
  0
LAYER
  5
50
100
AcDbSymbolTableRecord
100
AcDbLayerTableRecord
  2
0
 70
0
  6
CONTINUOUS
  0
ENDTAB
  0
TABLE
  2
STYLE
  5
3
330
0
100
AcDbSymbolTable
 70
     1
  0
STYLE
  5
11
330
3
100
AcDbSymbolTableRecord
100
AcDbTextStyleTableRecord
  2
STANDARD
 70
     0
 40
0.0
 41
1.0
 50
0.0
 71
     0
 42
2.5
  3
txt
  4

  0
ENDTAB
  0
TABLE
  2
VIEW
  5
6
330
0
100
AcDbSymbolTable
 70
     0
  0
ENDTAB
  0
TABLE
  2
UCS
  5
7
330
0
100
AcDbSymbolTable
 70
     0
  0
ENDTAB
  0
TABLE
  2
APPID
  5
9
330
0
100
AcDbSymbolTable
 70
     2
  0
APPID
  5
12
330
9
100
AcDbSymbolTableRecord
100
AcDbRegAppTableRecord
  2
ACAD
 70
     0
  0
ENDTAB
  0
TABLE
  2
DIMSTYLE
  5
A
330
0
100
AcDbSymbolTable
 70
     1
  0
DIMSTYLE
105
27
330
A
100
AcDbSymbolTableRecord
100
AcDbDimStyleTableRecord
  2
ISO-25
 70
     0
  3

  4

  5

  6

  7

 40
1.0
 41
2.5
 42
0.625
 43
3.75
 44
1.25
 45
0.0
 46
0.0
 47
0.0
 48
0.0
140
2.5
141
2.5
142
0.0
143
0.03937007874016
144
1.0
145
0.0
146
1.0
147
0.625
 71
     0
 72
     0
 73
     0
 74
     0
 75
     0
 76
     0
 77
     1
 78
     8
170
     0
171
     3
172
     1
173
     0
174
     0
175
     0
176
     0
177
     0
178
     0
270
     2
271
     2
272
     2
273
     2
274
     3
340
11
275
     0
280
     0
281
     0
282
     0
283
     0
284
     8
285
     0
286
     0
287
     3
288
     0
  0
ENDTAB
  0
TABLE
  2
BLOCK_RECORD
  5
1
330
0
100
AcDbSymbolTable
 70
     1
  0
BLOCK_RECORD
  5
1F
330
1
100
AcDbSymbolTableRecord
100
AcDbBlockTableRecord
  2
*MODEL_SPACE
  0
BLOCK_RECORD
  5
1B
330
1
100
AcDbSymbolTableRecord
100
AcDbBlockTableRecord
  2
*PAPER_SPACE
  0
ENDTAB
  0
ENDSEC
  0
SECTION
  2
BLOCKS
  0
BLOCK
  5
20
330
1F
100
AcDbEntity
  8
0
100
AcDbBlockBegin
  2
*MODEL_SPACE
 70
     0
 10
0.0
 20
0.0
 30
0.0
  3
*MODEL_SPACE
  1

  0
ENDBLK
  5
21
330
1F
100
AcDbEntity
  8
0
100
AcDbBlockEnd
  0
BLOCK
  5
1C
330
1B
100
AcDbEntity
 67
     1
  8
0
100
AcDbBlockBegin
  2
*PAPER_SPACE
  1

  0
ENDBLK
  5
1D
330
1B
100
AcDbEntity
 67
     1
  8
0
100
AcDbBlockEnd
  0
ENDSEC
  0
SECTION
  2
ENTITIES
  0
LWPOLYLINE
  5
100
100
AcDbEntity
  8
0
 62
1
100
AcDbPolyline
 90
113
 70
0
 10
17.055756
 20
36.554422
 30
0.0
 10
16.145133
 20
31.137956
 30
0.0
 10
16.374606
 20
25.703530
 30
0.0
 10
17.650700
 20
20.418681
 30
0.0
 10
19.879941
 20
15.450951
 30
0.0
 10
22.968854
 20
10.967881
 30
0.0
 10
26.823962
 20
7.137001
 30
0.0
 10
31.351791
 20
4.125871
 30
0.0
 10
36.458867
 20
2.102011
 30
0.0
 10
41.843985
 20
0.960541
 30
0.0
 10
47.294188
 20
0.966541
 30
0.0
 10
52.637054
 20
2.032531
 30
0.0
 10
57.700162
 20
4.069611
 30
0.0
 10
62.311092
 20
6.989361
 30
0.0
 10
66.297421
 20
10.703341
 30
0.0
 10
69.486729
 20
15.123141
 30
0.0
 10
71.706595
 20
20.160335
 30
0.0
 10
72.654897
 20
23.534874
 30
0.0
 10
73.103737
 20
26.948111
 30
0.0
 10
73.181017
 20
30.391287
 30
0.0
 10
73.014646
 20
33.855645
 30
0.0
 10
72.732528
 20
37.332428
 30
0.0
 10
72.462567
 20
40.812877
 30
0.0
 10
72.332668
 20
44.288237
 30
0.0
 10
72.470736
 20
47.749748
 30
0.0
 10
72.840654
 20
53.811219
 30
0.0
 10
73.315735
 20
59.865308
 30
0.0
 10
73.879469
 20
65.912713
 30
0.0
 10
74.515344
 20
71.954131
 30
0.0
 10
75.206848
 20
77.990262
 30
0.0
 10
75.937470
 20
84.021802
 30
0.0
 10
76.690697
 20
90.049451
 30
0.0
 10
77.450018
 20
96.073905
 30
0.0
 10
78.141012
 20
100.696647
 30
0.0
 10
79.106525
 20
105.251956
 30
0.0
 10
80.278619
 20
109.756578
 30
0.0
 10
81.589353
 20
114.227256
 30
0.0
 10
82.970789
 20
118.680737
 30
0.0
 10
84.354987
 20
123.133766
 30
0.0
 10
85.674008
 20
127.603087
 30
0.0
 10
86.859913
 20
132.105446
 30
0.0
 10
87.686596
 20
136.995526
 30
0.0
 10
88.219163
 20
141.913737
 30
0.0
 10
88.510642
 20
146.853301
 30
0.0
 10
88.614060
 20
151.807440
 30
0.0
 10
88.582440
 20
156.769376
 30
0.0
 10
88.468816
 20
161.732329
 30
0.0
 10
88.326211
 20
166.689522
 30
0.0
 10
88.207652
 20
171.634177
 30
0.0
 10
87.995820
 20
175.440720
 30
0.0
 10
87.456426
 20
179.196620
 30
0.0
 10
86.602425
 20
182.884309
 30
0.0
 10
85.446771
 20
186.486218
 30
0.0
 10
84.002420
 20
189.984777
 30
0.0
 10
82.282326
 20
193.362417
 30
0.0
 10
80.299444
 20
196.601571
 30
0.0
 10
78.066727
 20
199.684667
 30
0.0
 10
75.072644
 20
203.551308
 30
0.0
 10
72.049086
 20
207.415148
 30
0.0
 10
68.968388
 20
211.241527
 30
0.0
 10
65.802883
 20
214.995785
 30
0.0
 10
62.524904
 20
218.643261
 30
0.0
 10
59.106785
 20
222.149301
 30
0.0
 10
55.520861
 20
225.479231
 30
0.0
 10
51.739462
 20
228.598391
 30
0.0
 10
47.880032
 20
231.021281
 30
0.0
 10
43.762552
 20
232.853471
 30
0.0
 10
39.446109
 20
234.140061
 30
0.0
 10
34.989794
 20
234.926101
 30
0.0
 10
30.452696
 20
235.256681
 30
0.0
 10
25.893901
 20
235.176881
 30
0.0
 10
21.372498
 20
234.731731
 30
0.0
 10
16.947578
 20
233.966341
 30
0.0
 10
13.904221
 20
232.778771
 30
0.0
 10
11.357803
 20
230.995561
 30
0.0
 10
9.257902
 20
228.726851
 30
0.0
 10
7.554098
 20
226.082761
 30
0.0
 10
6.195973
 20
223.173441
 30
0.0
 10
5.133102
 20
220.109021
 30
0.0
 10
4.315066
 20
216.999632
 30
0.0
 10
3.691445
 20
213.955413
 30
0.0
 10
2.745849
 20
207.532964
 30
0.0
 10
2.034925
 20
201.083833
 30
0.0
 10
1.528669
 20
194.613969
 30
0.0
 10
1.197075
 20
188.129325
 30
0.0
 10
1.010139
 20
181.635851
 30
0.0
 10
0.937859
 20
175.139499
 30
0.0
 10
0.950219
 20
168.646220
 30
0.0
 10
1.017229
 20
162.161965
 30
0.0
 10
1.716945
 20
156.329135
 30
0.0
 10
3.173384
 20
150.743362
 30
0.0
 10
5.210942
 20
145.347612
 30
0.0
 10
7.654014
 20
140.084850
 30
0.0
 10
10.326995
 20
134.898043
 30
0.0
 10
13.054280
 20
129.730156
 30
0.0
 10
15.660265
 20
124.524156
 30
0.0
 10
17.969345
 20
119.223008
 30
0.0
 10
20.034711
 20
112.782525
 30
0.0
 10
21.437483
 20
106.218840
 30
0.0
 10
22.279437
 20
99.561139
 30
0.0
 10
22.662346
 20
92.838608
 30
0.0
 10
22.687986
 20
86.080433
 30
0.0
 10
22.458129
 20
79.315802
 30
0.0
 10
22.074551
 20
72.573899
 30
0.0
 10
21.639025
 20
65.883911
 30
0.0
 10
21.298147
 20
62.185943
 30
0.0
 10
20.907790
 20
58.491154
 30
0.0
 10
20.459547
 20
54.802488
 30
0.0
 10
19.945010
 20
51.122889
 30
0.0
 10
19.355770
 20
47.455301
 30
0.0
 10
18.683418
 20
43.802669
 30
0.0
 10
17.919547
 20
40.167936
 30
0.0
 10
17.055747
 20
36.554046
 30
0.0
  0
ENDSEC
  0
SECTION
  2
OBJECTS
  0
DICTIONARY
  5
C
330
0
100
AcDbDictionary
  3
ACAD_GROUP
350
D
  3
ACAD_MLINESTYLE
350
17
  0
DICTIONARY
  5
D
330
C
100
AcDbDictionary
  0
DICTIONARY
  5
1A
330
C
100
AcDbDictionary
  0
DICTIONARY
  5
17
330
C
100
AcDbDictionary
  3
STANDARD
350
18
  0
DICTIONARY
  5
19
330
C
100
AcDbDictionary
  0
ENDSEC
  0
EOF
