<?xml version="1.0" encoding="UTF-8" standalone="no"?>
<svg
   xmlns:dc="http://purl.org/dc/elements/1.1/"
   xmlns:cc="http://creativecommons.org/ns#"
   xmlns:rdf="http://www.w3.org/1999/02/22-rdf-syntax-ns#"
   xmlns:svg="http://www.w3.org/2000/svg"
   xmlns="http://www.w3.org/2000/svg"
   xmlns:sodipodi="http://sodipodi.sourceforge.net/DTD/sodipodi-0.dtd"
   xmlns:inkscape="http://www.inkscape.org/namespaces/inkscape"
   width="98.7307658386mm"
   height="253.598380585mm"
   viewBox="0 0 98.7307658386 253.598380585"
   version="1.1"
   id="svg6"
   sodipodi:docname="Modelo_Plantilla40.svg"
   inkscape:version="0.92.3 (2405546, 2018-03-11)">
  <metadata
     id="metadata12">
    <rdf:RDF>
      <cc:Work
         rdf:about="">
        <dc:format>image/svg+xml</dc:format>
        <dc:type
           rdf:resource="http://purl.org/dc/dcmitype/StillImage" />
        <dc:title></dc:title>
      </cc:Work>
    </rdf:RDF>
  </metadata>
  <defs
     id="defs10" />
  <sodipodi:namedview
     pagecolor="#ffffff"
     bordercolor="#666666"
     borderopacity="1"
     objecttolerance="10"
     gridtolerance="10"
     guidetolerance="10"
     inkscape:pageopacity="0"
     inkscape:pageshadow="2"
     inkscape:window-width="1920"
     inkscape:window-height="1001"
     id="namedview8"
     showgrid="false"
     inkscape:zoom="0.69642286"
     inkscape:cx="245.89255"
     inkscape:cy="459.18623"
     inkscape:window-x="-9"
     inkscape:window-y="-9"
     inkscape:window-maximized="1"
     inkscape:current-layer="Modelo_Plantilla40001001001" />
  <g
     id="Modelo_Plantilla40001001001"
     transform="translate(49.365383,126.801285) scale(1,-1)">
    <path
       id="Modelo_Plantilla40001001001_f0000"
       d="M -31.2928848267 -85.7081680298 L -31.6915569305 -87.5125732422 L -31.9862709045 -89.3368377686 L -32.1760635376 -91.174987793 L -32.2603149414 -93.0209884644 L -32.2387390137 -94.8687820435 L -32.111415863 -96.712310791 L -31.8787612915 -98.5455245972 L -31.5415363312 -100.362411499 L -31.1008472443 -102.157020569 L -30.558139801 -103.923446655 L -29.9151954651 -105.655914307 L -29.1741218567 -107.348724365 L -28.3373508453 -108.996337891 L -27.4076271057 -110.593338013 L -26.3880004883 -112.134498596 L -25.2818145752 -113.614753723 L -24.0926990509 -115.029258728 L -22.824552536 -116.37335968 L -21.4815368652 -117.642654419 L -20.0680580139 -118.832984924 L -18.5887508392 -119.940444946 L -17.0484676361 -120.961387634 L -15.4522609711 -121.892486572 L -13.8053684235 -122.730667114 L -12.1131916046 -123.473190308 L -10.3812799454 -124.117622375 L -8.61531543732 -124.661842346 L -6.82109069824 -125.104072571 L -5.00449132919 -125.442855835 L -3.1714758873 -125.677085876 L -1.32805740833 -125.805992126 L 0.519717395306 -125.829147339 L 2.36578726768 -125.746482849 L 4.20409679413 -125.558265686 L 6.02861642838 -125.265113831 L 7.83336019516 -124.867988586 L 9.61240959167 -124.368202209 L 11.3599271774 -123.767372131 L 13.0701818466 -123.067489624 L 14.7375631332 -122.270843506 L 16.3566017151 -121.38004303 L 17.9219875336 -120.398017883 L 19.4285850525 -119.327987671 L 20.8714523315 -118.173454285 L 22.2458572388 -116.938217163 L 23.5472888947 -115.626312256 L 24.7714805603 -114.2420578 L 25.9144172668 -112.789993286 L 26.9723472595 -111.274871826 L 27.9418029785 -109.701667786 L 28.8196029663 -108.075546265 L 29.6028671265 -106.401832581 L 30.2890281677 -104.686027527 L 30.8758354187 -102.933753967 L 31.3613605499 -101.150756836 L 31.74401474 -99.3428878784 L 32.0225410461 -97.5160827637 L 32.1960258484 -95.676322937 L 32.2639007568 -93.8296508789 L 32.2259407043 -91.9821243286 L 32.0822753906 -90.139793396 L 31.8950252533 -88.241355896 L 31.7413272858 -86.3654632568 L 31.6207294464 -84.5111160278 L 31.5325222015 -82.6768035889 L 31.4757575989 -80.8604660034 L 31.4492759705 -79.0596160889 L 31.4517154694 -77.2713470459 L 31.4815425873 -75.4923629761 L 31.6165294647 -71.9477920532 L 31.8396930695 -68.3954086304 L 32.1358947754 -64.8043823242 L 32.4904747009 -61.146282196 L 32.6853599548 -59.2842254639 L 32.8898239136 -57.396484375 L 33.1023674011 -55.4806404114 L 33.321559906 -53.5345420837 L 33.546081543 -51.556350708 L 33.7747497559 -49.5446777344 L 34.0066223145 -47.4988021851 L 34.2410469055 -45.4188499451 L 34.4777641296 -43.3060302734 L 34.7169570923 -41.162815094 L 35.2061347961 -36.8024024963 L 35.7198829651 -32.3848342896 L 36.2744255066 -27.9713821411 L 36.5725326538 -25.7868232727 L 36.887348175 -23.6277618408 L 37.2207069397 -21.5015678406 L 37.5741386414 -19.414768219 L 37.9487419128 -17.3727855682 L 38.3451042175 -15.3796768188 L 38.7632141113 -13.4378767014 L 39.2023773193 -11.5479812622 L 39.6612319946 -9.7087726593 L 40.1378326416 -7.91743755341 L 40.629737854 -6.16981887817 L 41.1341056824 -4.46065855026 L 42.16746521 -1.13264715672 L 43.2105865479 2.1218764782 L 44.2342185974 5.36419582367 L 44.7292480469 7.00113582611 L 45.2079238892 8.65985774994 L 45.6663742065 10.3489685059 L 46.1007385254 12.077088356 L 46.5072479248 13.8527183533 L 46.8822669983 15.6841058731 L 47.2223472595 17.5791149139 L 47.5242843628 19.5450935364 L 47.78515625 21.5887336731 L 48.0023918152 23.715970993 L 48.173789978 25.9318752289 L 48.2975692749 28.2405700684 L 48.3411636353 29.4307174683 L 48.3723945618 30.6451301575 L 48.3911705017 31.884016037 L 48.3974342346 33.1475028992 L 48.3972969055 35.2348403931 L 48.3963432312 37.2291412354 L 48.3937911987 39.1348876953 L 48.3888969421 40.9564208984 L 48.3809585571 42.6979370117 L 48.369304657 44.3635025024 L 48.3532981873 45.95703125 L 48.3323440552 47.4823150635 L 48.3058738708 48.9430007935 L 48.2733650208 50.3426170349 L 48.2343101501 51.6845588684 L 48.1882514954 52.9720916748 L 48.1347465515 54.2083702087 L 48.0733985901 55.3964118958 L 48.0038299561 56.5391311646 L 47.9257011414 57.6393127441 L 47.8386878967 58.6996383667 L 47.7425117493 59.7226715088 L 47.6369094849 60.7108688354 L 47.5216407776 61.6665802002 L 47.3965034485 62.5920524597 L 47.2613143921 63.4894218445 L 46.9601554871 65.2079467773 L 46.6171760559 66.837348938 L 46.2317276001 68.3913192749 L 45.8035011292 69.8821716309 L 45.3324928284 71.320854187 L 44.8189926147 72.7170791626 L 44.2635345459 74.0793533325 L 43.6669120789 75.4151000977 L 43.0301246643 76.7306747437 L 42.3543586731 78.0315170288 L 41.6409873962 79.3221359253 L 40.8915214539 80.606262207 L 40.1075935364 81.8868865967 L 39.2909431458 83.1663360596 L 38.4433860779 84.4463500977 L 37.5667991638 85.7281723022 L 36.6630859375 87.0125961304 L 34.7819213867 89.5907440186 L 32.8149299622 92.1813659668 L 30.7761764526 94.7828674316 L 28.6779117584 97.393119812 L 26.5292835236 100.009239197 L 24.3349571228 102.626617432 L 22.0936985016 105.237968445 L 19.7969760895 107.832336426 L 17.4275474548 110.394081116 L 16.2074546814 111.656326294 L 14.9580612183 112.901947021 L 13.6741380692 114.127243042 L 12.349647522 115.328041077 L 10.9777011871 116.499656677 L 9.55051326752 117.636863708 L 8.05935955048 118.733886719 L 6.49453353882 119.784339905 L 4.84529972076 120.781204224 L 3.98538351059 121.257164001 L 3.09985208511 121.716804504 L 2.18705487251 122.159042358 L 1.24526929855 122.582778931 L 0.272698491812 122.986846924 L -0.732529222965 123.370040894 L -1.77236235142 123.731109619 L -2.84882712364 124.068756104 L -3.96402907372 124.381622314 L -5.12015485764 124.668304443 L -6.31947231293 124.927352905 L -7.56433343887 125.15725708 L -8.85717487335 125.356452942 L -10.2005205154 125.523330688 L -11.5969781876 125.656211853 L -13.0492486954 125.753372192 L -14.5601224899 125.813026428 L -16.132478714 125.833335876 L -18.382478714 125.81565094 L -20.5358257294 125.755439758 L -21.5767707825 125.706016541 L -22.5941734314 125.641921997 L -23.5882415771 125.561813354 L -24.5591773987 125.46434021 L -25.5071926117 125.348167419 L -26.4324913025 125.211929321 L -27.3352813721 125.054298401 L -28.2157688141 124.873924255 L -29.0741596222 124.669456482 L -29.9106636047 124.439552307 L -30.725484848 124.182868958 L -31.5188293457 123.89805603 L -32.2909088135 123.583778381 L -33.0419235229 123.238670349 L -33.7720832825 122.861404419 L -34.4815979004 122.450630188 L -35.1706695557 122.004997253 L -35.8395080566 121.523162842 L -36.4883155823 121.00378418 L -37.1173057556 120.445510864 L -37.7266769409 119.847000122 L -38.3166465759 119.20690918 L -38.8874130249 118.523880005 L -39.4391822815 117.796585083 L -39.9721679688 117.023666382 L -40.4865722656 116.203781128 L -40.9826049805 115.335586548 L -41.4604682922 114.417732239 L -41.920375824 113.448867798 L -42.3625259399 112.42766571 L -42.7871322632 111.352760315 L -43.1943969727 110.222824097 L -43.5845298767 109.036491394 L -43.957736969 107.792434692 L -44.3142204285 106.489303589 L -44.6541976929 105.125740051 L -44.9778671265 103.700416565 L -45.2854347229 102.211975098 L -45.5771141052 100.659072876 L -45.8531036377 99.0403671265 L -46.1136169434 97.3545150757 L -46.3588600159 95.6001586914 L -46.5890350342 93.7759628296 L -46.8043518066 91.8805770874 L -47.0050201416 89.9126663208 L -47.191242218 87.8708648682 L -47.3632240295 85.7538452148 L -47.5211791992 83.560256958 L -47.6653060913 81.2887496948 L -47.7958145142 78.9379806519 L -47.9129142761 76.5066070557 L -48.0168113708 73.993270874 L -48.1077079773 71.3966445923 L -48.1858139038 68.7153778076 L -48.2513389587 65.9481124878 L -48.304485321 63.0935134888 L -48.3454627991 60.1502342224 L -48.3744735718 57.1169281006 L -48.3917312622 53.9922523499 L -48.3974342346 50.7748527527 L -48.3849601746 49.4999046326 L -48.3475799561 48.2403793335 L -48.2854118347 46.9962158203 L -48.1986465454 45.7673034668 L -48.0875434875 44.5535125732 L -47.9524269104 43.3546600342 L -47.7936859131 42.1705360413 L -47.6117706299 41.0009002686 L -47.1805152893 38.7039489746 L -46.663394928 36.4612464905 L -46.0659484863 34.2697982788 L -45.3944587708 32.1262130737 L -44.6558380127 30.0267562866 L -43.8575210571 27.9674072266 L -43.0073776245 25.9439125061 L -42.1136016846 23.9518299103 L -41.1845970154 21.9865894318 L -40.2288780212 20.0435466766 L -38.2714500427 16.205329895 L -36.3089866638 12.3999652863 L -34.4070510864 8.5912733078 L -33.4982872009 6.67490816116 L -32.6273384094 4.74517202377 L -31.8007640839 2.79840779305 L -31.0243377686 0.831343114376 L -30.3028907776 -1.15883171558 L -29.6401290894 -3.17438530922 L -29.0384788513 -5.2169713974 L -28.4990501404 -7.28760242462 L -28.021736145 -9.38667583466 L -27.6053543091 -11.5140123367 L -27.2477779388 -13.6688928604 L -26.946062088 -15.8500967026 L -26.6965904236 -18.0559406281 L -26.4952144623 -20.284324646 L -26.3374481201 -22.5328178406 L -26.2186756134 -24.7987499237 L -26.1343574524 -27.0793075562 L -26.080242157 -29.3716220856 L -26.0482463837 -33.9803581238 L -26.1007499695 -38.6040000916 L -26.2253932953 -43.2235870361 L -26.4161701202 -47.8213729858 L -26.6703090668 -52.3800582886 L -26.9869804382 -56.8827438354 L -27.3675346375 -61.313457489 L -27.5828704834 -63.4972343445 L -27.8158092499 -65.6577377319 L -28.0671596527 -67.7934341431 L -28.3377952576 -69.9029464722 L -28.6286067963 -71.9849700928 L -28.9404735565 -74.0383529663 L -29.2742118835 -76.0620422363 L -29.6305522919 -78.0551300049 L -30.0101299286 -80.0168304443 L -30.4134674072 -81.9465103149 L -30.8409633636 -83.8437194824 L -31.2928848267 -85.7081680298 Z "
       style="stroke-width:0.35;stroke-miterlimit:4;stroke-dasharray:none;fill:none;fill-rule:evenodd"
       stroke-width="0.35 px"
       stroke="#191919" />
    <title
       id="title3">Modelo_Plantilla40003</title>
  </g>
</svg>
