<?xml version="1.0"?>
<!DOCTYPE svg PUBLIC "-//W3C//DTD SVG 1.1//EN" "http://www.w3.org/Graphics/SVG/1.1/DTD/svg11.dtd">
<svg width="90.8846131897mm" height="233.444687042mm" viewBox="0 0 90.8846131897 233.444687042" xmlns="http://www.w3.org/2000/svg" version="1.1">
<g id="Sketch" transform="translate(45.442307,116.724361) scale(1,-1)">
<path id="Sketch_w0000"  d="M -28.7511634827 -78.6818847656 L -29.1319713593 -80.3472366333 L -29.4164009094 -82.0317382812 L -29.6035118103 -83.7297973633 L -29.6926822662 -85.4358062744 L -29.6836204529 -87.1441192627 L -29.5763549805 -88.8490905762 L -29.3712406158 -90.5450668335 L -29.0689563751 -92.2264480591 L -28.6705036163 -93.8876724243 L -28.1771965027 -95.5232391357 L -27.5906715393 -97.1277313232 L -26.9128665924 -98.695854187 L -26.146024704 -100.222412109 L -25.2926826477 -101.702354431 L -24.3556652069 -103.130783081 L -23.3380699158 -104.502975464 L -22.2432632446 -105.814399719 L -21.0748691559 -107.060707092 L -19.8367538452 -108.237770081 L -18.5330104828 -109.341705322 L -17.1679534912 -110.368858337 L -15.7460985184 -111.315826416 L -14.2721509933 -112.179481506 L -12.7509860992 -112.956962585 L -11.1876363754 -113.645706177 L -9.58727455139 -114.243415833 L -7.95519447327 -114.748130798 L -6.29679584503 -115.158180237 L -4.61756563187 -115.472190857 L -2.92305850983 -115.689147949 L -1.21888124943 -115.808311462 L 0.489328533411 -115.829299927 L 2.1959195137 -115.752044678 L 3.89524555206 -115.576797485 L 5.58168506622 -115.304138184 L 7.24965810776 -114.934967041 L 8.89364719391 -114.470504761 L 10.5082120895 -113.91229248 L 12.088013649 -113.262176514 L 13.627822876 -112.52230835 L 15.1225471497 -111.695137024 L 16.5672416687 -110.78338623 L 17.9571247101 -109.790084839 L 19.2875995636 -108.718521118 L 20.554265976 -107.572227478 L 21.7529296875 -106.355010986 L 22.8796291351 -105.070884705 L 23.9306335449 -103.724113464 L 24.902469635 -102.319137573 L 25.7919178009 -100.860603333 L 26.5960388184 -99.3533554077 L 27.3121700287 -97.8023605347 L 27.9379425049 -96.2127609253 L 28.471288681 -94.5898132324 L 28.9104423523 -92.9388809204 L 29.2539482117 -91.2654342651 L 29.5006732941 -89.5750045776 L 29.6498012543 -87.8731918335 L 29.7008361816 -86.1656112671 L 29.6536102295 -84.4579315186 L 29.5082817078 -82.7557830811 L 29.3228912354 -81.0105056763 L 29.1684131622 -79.2859649658 L 29.0444355011 -77.5812606812 L 28.9503097534 -75.8949661255 L 28.8851737976 -74.2252120972 L 28.8479690552 -72.5697021484 L 28.8374557495 -70.925743103 L 28.8522357941 -69.2903213501 L 28.9514560699 -66.0317153931 L 29.1324062347 -62.7658042908 L 29.3813495636 -59.4641990662 L 29.6850395203 -56.1007194519 L 29.8535461426 -54.3885536194 L 30.0312404633 -52.652721405 L 30.2167739868 -50.8909988403 L 30.4088783264 -49.1014099121 L 30.6063728333 -47.2822647095 L 30.808221817 -45.4323005676 L 31.0135993958 -43.5508537292 L 31.2219600677 -41.638053894 L 31.4331111908 -39.6950187683 L 31.6472873688 -37.7240486145 L 32.0880851746 -33.7142181396 L 32.5553474426 -29.6522102356 L 33.0645980835 -25.5946521759 L 33.3402290344 -23.5865917206 L 33.6325187683 -21.6022396088 L 33.943195343 -19.6484050751 L 34.2736740112 -17.7311077118 L 34.6249694824 -15.8553514481 L 34.9976043701 -14.0248756409 L 35.3915328979 -12.2419214249 L 35.8060493469 -10.5070304871 L 36.2398262024 -8.81906509399 L 36.6909713745 -7.1754193306 L 37.1571273804 -5.57224082947 L 37.635559082 -4.00466060638 L 38.61693573 -0.953095018864 L 39.6088142395 2.03043889999 L 40.5830688477 5.00265026093 L 41.054473877 6.50334501266 L 41.5104484558 8.02418422699 L 41.947265625 9.57313156128 L 42.3612289429 11.1581602097 L 42.7487182617 12.7871322632 L 43.1062507629 14.4676780701 L 43.430519104 16.2070713043 L 43.7184524536 18.0121059418 L 43.967250824 19.8889770508 L 44.1744499207 21.8431663513 L 44.3379402161 23.8793697357 L 44.4560127258 26.0013980865 L 44.4976005554 27.0955257416 L 44.5273933411 28.212097168 L 44.5453033447 29.3513031006 L 44.5512809753 30.5132656097 L 44.5511550903 32.5550689697 L 44.55027771 34.5037918091 L 44.5479278564 36.3638877869 L 44.543422699 38.1396598816 L 44.536113739 39.835269928 L 44.5253829956 41.4547424316 L 44.5106506348 43.0019721985 L 44.4913635254 44.4807167053 L 44.466999054 45.8945999146 L 44.4370689392 47.2471237183 L 44.4011192322 48.5416526794 L 44.3587188721 49.7814407349 L 44.3094673157 50.9696121216 L 44.2529945374 52.1091690063 L 44.1889572144 53.2030067444 L 44.1170349121 54.2538948059 L 44.0369377136 55.2644996643 L 43.9484062195 56.2373695374 L 43.8511924744 57.1749458313 L 43.7450866699 58.079574585 L 43.6298942566 58.9534835815 L 43.5054473877 59.7988128662 L 43.3716011047 60.6175918579 L 43.228225708 61.4117660522 L 42.9124984741 62.9335746765 L 42.5576820374 64.3779144287 L 42.1634864807 65.7570648193 L 41.7299118042 67.0819854736 L 41.2572174072 68.3623962402 L 40.7459030151 69.6068496704 L 40.1966934204 70.822769165 L 39.6105117798 72.0166015625 L 38.9884490967 73.1938018799 L 38.3317718506 74.3589859009 L 37.6418647766 75.5159301758 L 36.9202346802 76.6677017212 L 36.1684837341 77.8167266846 L 35.3882827759 78.9648361206 L 34.5813598633 80.1133422852 L 33.7494621277 81.2631454468 L 32.0177955627 83.5684967041 L 30.207118988 85.8821868896 L 28.3303871155 88.2032928467 L 26.3988723755 90.5303344727 L 24.4209957123 92.861076355 L 22.4010543823 95.191734314 L 20.3379077911 97.5160903931 L 18.2237071991 99.8246002197 L 16.0425777435 102.103553772 L 14.9194450378 103.22631073 L 13.7693414688 104.334197998 L 12.5874519348 105.423950195 L 11.3682193756 106.491851807 L 10.1053009033 107.533760071 L 8.79153156281 108.545043945 L 7.41888046265 109.520561218 L 5.9784116745 110.454650879 L 4.46024274826 111.341064453 L 3.668664217 111.764289856 L 2.85350608826 112.172996521 L 2.01324915886 112.566230774 L 1.14630746841 112.943016052 L 0.251027077436 113.3022995 L -0.674314975739 113.643035889 L -1.63151228428 113.96408844 L -2.62243008614 114.264320374 L -3.64900684357 114.542510986 L -4.71325492859 114.797424316 L -5.81726264954 115.027763367 L -6.96319437027 115.232185364 L -8.15329360962 115.409301758 L -9.38988304138 115.557685852 L -10.6753644943 115.675842285 L -12.01222229 115.762237549 L -13.4030265808 115.8152771 L -14.8504276276 115.833335876 L -16.9216194153 115.817062378 L -18.9038391113 115.761627197 L -19.8620605469 115.716133118 L -20.7986106873 115.65713501 L -21.71367836 115.583389282 L -22.6074562073 115.493667603 L -23.4801311493 115.38671875 L -24.3318958282 115.261314392 L -25.162940979 115.116210938 L -25.9734554291 114.950164795 L -26.7636299133 114.761947632 L -27.533657074 114.550315857 L -28.2837238312 114.314033508 L -29.0140228271 114.051856995 L -29.7247428894 113.762550354 L -30.4160747528 113.444869995 L -31.0882110596 113.097587585 L -31.7413387299 112.719451904 L -32.3756484985 112.309234619 L -32.9913330078 111.865692139 L -33.5885810852 111.387588501 L -34.1675834656 110.873680115 L -34.7285308838 110.322738647 L -35.2716140747 109.733512878 L -35.7970199585 109.104766846 L -36.3049430847 108.435264587 L -36.7955741882 107.723770142 L -37.2690963745 106.969039917 L -37.7257080078 106.169837952 L -38.165599823 105.324928284 L -38.5889549255 104.433067322 L -38.995967865 103.493011475 L -39.3868293762 102.503540039 L -39.7617301941 101.463394165 L -40.1208572388 100.37134552 L -40.4644050598 99.2261505127 L -40.7925605774 98.0265731812 L -41.1055183411 96.7713775635 L -41.403465271 95.4593200684 L -41.6865921021 94.0891647339 L -41.9550895691 92.6596755981 L -42.209148407 91.1696090698 L -42.4489593506 89.617729187 L -42.6747131348 88.0027923584 L -42.8865966797 86.3235702515 L -43.0848007202 84.5788116455 L -43.2695236206 82.767288208 L -43.4409446716 80.8877563477 L -43.5992622375 78.9389724731 L -43.7446594238 76.919708252 L -43.8773345947 74.8287124634 L -43.9974746704 72.6647644043 L -44.105266571 70.4266052246 L -44.2009048462 68.1130142212 L -44.2845802307 65.7227401733 L -44.3564796448 63.2545509338 L -44.4167938232 60.7072029114 L -44.4657173157 58.079460144 L -44.5034370422 55.3700828552 L -44.5301437378 52.577835083 L -44.5460281372 49.7014770508 L -44.5512809753 46.7397651672 L -44.5391578674 45.5616798401 L -44.5028305054 44.3985443115 L -44.4424095154 43.2502937317 L -44.3580818176 42.1168289185 L -44.2500991821 40.9980125427 L -44.1187782288 39.8936691284 L -43.9644966125 38.8035926819 L -43.787689209 37.7275390625 L -43.5888519287 36.6652412415 L -43.3685302734 35.616394043 L -42.865901947 33.5577087402 L -42.2851867676 31.5485305786 L -41.6324729919 29.585515976 L -40.9144744873 27.6649894714 L -40.138420105 25.782989502 L -39.3119506836 23.9353256226 L -38.4430351257 22.1176300049 L -37.5398406982 20.3254127502 L -36.6106719971 18.554107666 L -34.7076759338 15.0558977127 L -32.8000679016 11.5865631104 L -30.9519233704 8.11075973511 L -30.0692329407 6.35993003845 L -29.2236194611 4.59526968002 L -28.4215240479 2.8132352829 L -27.6686458588 1.01067376137 L -26.969783783 -0.815099000931 L -26.3286685944 -2.66621732712 L -25.7478084564 -4.54419136047 L -25.2284622192 -6.4498796463 L -24.7707176208 -8.38352394104 L -24.3736305237 -10.3447885513 L -24.0353355408 -12.3328046799 L -23.7531661987 -14.3462142944 L -23.5237827301 -16.3832073212 L -23.3433036804 -18.4415874481 L -23.207490921 -20.5188407898 L -23.1119422913 -22.612247467 L -23.0522880554 -24.7189655304 L -23.0243873596 -26.8361339569 L -23.0245323181 -28.9609699249 L -23.0496082306 -31.0908470154 L -23.165178299 -35.3561248779 L -23.3572292328 -39.6141815186 L -23.6175384521 -43.8487586975 L -23.9407157898 -48.0442581177 L -24.323097229 -52.1855888367 L -24.7630367279 -56.2586593628 L -25.0047340393 -58.2655944824 L -25.261297226 -60.2508850098 L -25.5331573486 -62.2132301331 L -25.8208198547 -64.1514511108 L -26.124830246 -66.0644760132 L -26.4457378387 -67.9513168335 L -26.7840633392 -69.8111114502 L -27.1402816772 -71.6430892944 L -27.5147972107 -73.4466094971 L -27.9079532623 -75.2211456299 L -28.3200149536 -76.9663162231 L -28.7511634827 -78.6818847656 " stroke="#191919" stroke-width="0.35 px" style="stroke-width:0.35;stroke-miterlimit:4;stroke-dasharray:none;fill:none;fill-rule: evenodd "/>
<title>Sketch</title>
</g>
</svg>