  0
SECTION
  2
HEADER
  9
$ACADVER
  1
AC1014
  9
$HANDSEED
  5
FFFF
  9
$MEASUREMENT
 70
     1
  0
ENDSEC
  0
SECTION
  2
TABLES
  0
TABLE
  2
VPORT
  5
8
330
0
100
AcDbSymbolTable
 70
     4
  0
VPORT
  5
2E
330
8
100
AcDbSymbolTableRecord
100
AcDbViewportTableRecord
  2
*ACTIVE
 70
     0
 10
0.0
 20
0.0
 11
1.0
 21
1.0
 12
210.0
 22
148.5
 13
0.0
 23
0.0
 14
10.0
 24
10.0
 15
10.0
 25
10.0
 16
0.0
 26
0.0
 36
1.0
 17
0.0
 27
0.0
 37
0.0
 40
341.0
 41
1.24
 42
50.0
 43
0.0
 44
0.0
 50
0.0
 51
0.0
 71
     0
 72
   100
 73
     1
 74
     3
 75
     0
 76
     0
 77
     0
 78
     0
  0
ENDTAB
  0
TABLE
  2
LTYPE
  5
5
330
0
100
AcDbSymbolTable
 70
     1
  0
LTYPE
  5
14
330
5
100
AcDbSymbolTableRecord
100
AcDbLinetypeTableRecord
  2
BYBLOCK
 70
     0
  3

 72
    65
 73
     0
 40
0.0
  0
LTYPE
  5
15
330
5
100
AcDbSymbolTableRecord
100
AcDbLinetypeTableRecord
  2
BYLAYER
 70
     0
  3

 72
    65
 73
     0
 40
0.0
  0
LTYPE
  5
16
330
5
100
AcDbSymbolTableRecord
100
AcDbLinetypeTableRecord
  2
CONTINUOUS
 70
     0
  3
Solid line
 72
    65
 73
     0
 40
0.0
  0
ENDTAB
  0
TABLE
  2
LAYER
  5
2
100
AcDbSymbolTable
 70
1
  0
LAYER
  5
50
100
AcDbSymbolTableRecord
100
AcDbLayerTableRecord
  2
0
 70
0
  6
CONTINUOUS
  0
ENDTAB
  0
TABLE
  2
STYLE
  5
3
330
0
100
AcDbSymbolTable
 70
     1
  0
STYLE
  5
11
330
3
100
AcDbSymbolTableRecord
100
AcDbTextStyleTableRecord
  2
STANDARD
 70
     0
 40
0.0
 41
1.0
 50
0.0
 71
     0
 42
2.5
  3
txt
  4

  0
ENDTAB
  0
TABLE
  2
VIEW
  5
6
330
0
100
AcDbSymbolTable
 70
     0
  0
ENDTAB
  0
TABLE
  2
UCS
  5
7
330
0
100
AcDbSymbolTable
 70
     0
  0
ENDTAB
  0
TABLE
  2
APPID
  5
9
330
0
100
AcDbSymbolTable
 70
     2
  0
APPID
  5
12
330
9
100
AcDbSymbolTableRecord
100
AcDbRegAppTableRecord
  2
ACAD
 70
     0
  0
ENDTAB
  0
TABLE
  2
DIMSTYLE
  5
A
330
0
100
AcDbSymbolTable
 70
     1
  0
DIMSTYLE
105
27
330
A
100
AcDbSymbolTableRecord
100
AcDbDimStyleTableRecord
  2
ISO-25
 70
     0
  3

  4

  5

  6

  7

 40
1.0
 41
2.5
 42
0.625
 43
3.75
 44
1.25
 45
0.0
 46
0.0
 47
0.0
 48
0.0
140
2.5
141
2.5
142
0.0
143
0.03937007874016
144
1.0
145
0.0
146
1.0
147
0.625
 71
     0
 72
     0
 73
     0
 74
     0
 75
     0
 76
     0
 77
     1
 78
     8
170
     0
171
     3
172
     1
173
     0
174
     0
175
     0
176
     0
177
     0
178
     0
270
     2
271
     2
272
     2
273
     2
274
     3
340
11
275
     0
280
     0
281
     0
282
     0
283
     0
284
     8
285
     0
286
     0
287
     3
288
     0
  0
ENDTAB
  0
TABLE
  2
BLOCK_RECORD
  5
1
330
0
100
AcDbSymbolTable
 70
     1
  0
BLOCK_RECORD
  5
1F
330
1
100
AcDbSymbolTableRecord
100
AcDbBlockTableRecord
  2
*MODEL_SPACE
  0
BLOCK_RECORD
  5
1B
330
1
100
AcDbSymbolTableRecord
100
AcDbBlockTableRecord
  2
*PAPER_SPACE
  0
ENDTAB
  0
ENDSEC
  0
SECTION
  2
BLOCKS
  0
BLOCK
  5
20
330
1F
100
AcDbEntity
  8
0
100
AcDbBlockBegin
  2
*MODEL_SPACE
 70
     0
 10
0.0
 20
0.0
 30
0.0
  3
*MODEL_SPACE
  1

  0
ENDBLK
  5
21
330
1F
100
AcDbEntity
  8
0
100
AcDbBlockEnd
  0
BLOCK
  5
1C
330
1B
100
AcDbEntity
 67
     1
  8
0
100
AcDbBlockBegin
  2
*PAPER_SPACE
  1

  0
ENDBLK
  5
1D
330
1B
100
AcDbEntity
 67
     1
  8
0
100
AcDbBlockEnd
  0
ENDSEC
  0
SECTION
  2
ENTITIES
  0
LWPOLYLINE
  5
100
100
AcDbEntity
  8
0
 62
1
100
AcDbPolyline
 90
112
 70
1
 10
16.158192
 20
35.134771
 30
0.0
 10
15.265090
 20
29.999426
 30
0.0
 10
15.443087
 20
24.839057
 30
0.0
 10
16.606776
 20
19.810931
 30
0.0
 10
18.670747
 20
15.072319
 30
0.0
 10
21.549592
 20
10.780486
 30
0.0
 10
25.157903
 20
7.092716
 30
0.0
 10
29.410270
 20
4.166256
 30
0.0
 10
34.221286
 20
2.158396
 30
0.0
 10
39.294713
 20
0.981046
 30
0.0
 10
44.452713
 20
0.873446
 30
0.0
 10
49.533519
 20
1.758326
 30
0.0
 10
54.375365
 20
3.558446
 30
0.0
 10
58.816485
 20
6.196516
 30
0.0
 10
62.695112
 20
9.595296
 30
0.0
 10
65.849480
 20
13.677528
 30
0.0
 10
68.117823
 20
18.365941
 30
0.0
 10
69.197398
 20
21.674037
 30
0.0
 10
69.737370
 20
25.032260
 30
0.0
 10
69.870991
 20
28.429242
 30
0.0
 10
69.731512
 20
31.853613
 30
0.0
 10
69.452185
 20
35.294004
 30
0.0
 10
69.166260
 20
38.739045
 30
0.0
 10
69.006989
 20
42.177368
 30
0.0
 10
69.107624
 20
45.597602
 30
0.0
 10
69.425653
 20
51.310432
 30
0.0
 10
69.845673
 20
57.016679
 30
0.0
 10
70.352744
 20
62.716770
 30
0.0
 10
70.931922
 20
68.411129
 30
0.0
 10
71.568269
 20
74.100185
 30
0.0
 10
72.246841
 20
79.784362
 30
0.0
 10
72.952699
 20
85.464087
 30
0.0
 10
73.670900
 20
91.139786
 30
0.0
 10
74.322047
 20
95.439244
 30
0.0
 10
75.230700
 20
99.674275
 30
0.0
 10
76.335215
 20
103.860329
 30
0.0
 10
77.573943
 20
108.012852
 30
0.0
 10
78.885240
 20
112.147293
 30
0.0
 10
80.207458
 20
116.279100
 30
0.0
 10
81.478951
 20
120.423720
 30
0.0
 10
82.638073
 20
124.596602
 30
0.0
 10
83.489678
 20
129.312183
 30
0.0
 10
84.036772
 20
134.058025
 30
0.0
 10
84.335811
 20
138.826914
 30
0.0
 10
84.443255
 20
143.611637
 30
0.0
 10
84.415565
 20
148.404982
 30
0.0
 10
84.309192
 20
153.199736
 30
0.0
 10
84.180598
 20
157.988684
 30
0.0
 10
84.086238
 20
162.764615
 30
0.0
 10
83.913438
 20
166.330467
 30
0.0
 10
83.461515
 20
169.862618
 30
0.0
 10
82.731993
 20
173.340496
 30
0.0
 10
81.726397
 20
176.743533
 30
0.0
 10
80.446251
 20
180.051157
 30
0.0
 10
78.893079
 20
183.242800
 30
0.0
 10
77.068406
 20
186.297889
 30
0.0
 10
74.973757
 20
189.195856
 30
0.0
 10
72.126232
 20
192.846995
 30
0.0
 10
69.240172
 20
196.485445
 30
0.0
 10
66.293340
 20
200.081867
 30
0.0
 10
63.263501
 20
203.606920
 30
0.0
 10
60.128419
 20
207.031265
 30
0.0
 10
56.865857
 20
210.325563
 30
0.0
 10
53.453581
 20
213.460476
 30
0.0
 10
49.869355
 20
216.406656
 30
0.0
 10
46.145524
 20
218.748616
 30
0.0
 10
42.172473
 20
220.524626
 30
0.0
 10
38.007112
 20
221.776656
 30
0.0
 10
33.706353
 20
222.546666
 30
0.0
 10
29.327105
 20
222.876626
 30
0.0
 10
24.926278
 20
222.808526
 30
0.0
 10
20.560783
 20
222.384296
 30
0.0
 10
16.287531
 20
221.645906
 30
0.0
 10
13.362149
 20
220.508736
 30
0.0
 10
10.909352
 20
218.801606
 30
0.0
 10
8.882439
 20
216.629276
 30
0.0
 10
7.234709
 20
214.096466
 30
0.0
 10
5.919461
 20
211.307917
 30
0.0
 10
4.889994
 20
208.368369
 30
0.0
 10
4.099608
 20
205.382557
 30
0.0
 10
3.501601
 20
202.455218
 30
0.0
 10
2.607246
 20
196.379209
 30
0.0
 10
1.934093
 20
190.277894
 30
0.0
 10
1.454208
 20
184.156928
 30
0.0
 10
1.139655
 20
178.021965
 30
0.0
 10
0.962500
 20
171.878659
 30
0.0
 10
0.894810
 20
165.732666
 30
0.0
 10
0.908650
 20
159.589640
 30
0.0
 10
0.976080
 20
153.455236
 30
0.0
 10
1.619226
 20
148.168248
 30
0.0
 10
2.945233
 20
143.107080
 30
0.0
 10
4.804708
 20
138.223844
 30
0.0
 10
7.048260
 20
133.470656
 30
0.0
 10
9.526497
 20
128.799630
 30
0.0
 10
12.090026
 20
124.162881
 30
0.0
 10
14.589456
 20
119.512523
 30
0.0
 10
16.875394
 20
114.800670
 30
0.0
 10
19.160221
 20
108.633029
 30
0.0
 10
20.715883
 20
102.311294
 30
0.0
 10
21.651995
 20
95.871946
 30
0.0
 10
22.078169
 20
89.351468
 30
0.0
 10
22.104019
 20
82.786343
 30
0.0
 10
21.839158
 20
76.213052
 30
0.0
 10
21.393200
 20
69.668078
 30
0.0
 10
20.875757
 20
63.187904
 30
0.0
 10
20.498598
 20
59.649536
 30
0.0
 10
20.074380
 20
56.115121
 30
0.0
 10
19.596269
 20
52.587217
 30
0.0
 10
19.057433
 20
49.068378
 30
0.0
 10
18.451041
 20
45.561161
 30
0.0
 10
17.770259
 20
42.068121
 30
0.0
 10
17.008256
 20
38.591816
 30
0.0
  0
ENDSEC
  0
SECTION
  2
OBJECTS
  0
DICTIONARY
  5
C
330
0
100
AcDbDictionary
  3
ACAD_GROUP
350
D
  3
ACAD_MLINESTYLE
350
17
  0
DICTIONARY
  5
D
330
C
100
AcDbDictionary
  0
DICTIONARY
  5
1A
330
C
100
AcDbDictionary
  0
DICTIONARY
  5
17
330
C
100
AcDbDictionary
  3
STANDARD
350
18
  0
DICTIONARY
  5
19
330
C
100
AcDbDictionary
  0
ENDSEC
  0
EOF
