  0
SECTION
  2
HEADER
  9
$ACADVER
  1
AC1014
  9
$HANDSEED
  5
FFFF
  9
$MEASUREMENT
 70
     1
  0
ENDSEC
  0
SECTION
  2
TABLES
  0
TABLE
  2
VPORT
  5
8
330
0
100
AcDbSymbolTable
 70
     4
  0
VPORT
  5
2E
330
8
100
AcDbSymbolTableRecord
100
AcDbViewportTableRecord
  2
*ACTIVE
 70
     0
 10
0.0
 20
0.0
 11
1.0
 21
1.0
 12
210.0
 22
148.5
 13
0.0
 23
0.0
 14
10.0
 24
10.0
 15
10.0
 25
10.0
 16
0.0
 26
0.0
 36
1.0
 17
0.0
 27
0.0
 37
0.0
 40
341.0
 41
1.24
 42
50.0
 43
0.0
 44
0.0
 50
0.0
 51
0.0
 71
     0
 72
   100
 73
     1
 74
     3
 75
     0
 76
     0
 77
     0
 78
     0
  0
ENDTAB
  0
TABLE
  2
LTYPE
  5
5
330
0
100
AcDbSymbolTable
 70
     1
  0
LTYPE
  5
14
330
5
100
AcDbSymbolTableRecord
100
AcDbLinetypeTableRecord
  2
BYBLOCK
 70
     0
  3

 72
    65
 73
     0
 40
0.0
  0
LTYPE
  5
15
330
5
100
AcDbSymbolTableRecord
100
AcDbLinetypeTableRecord
  2
BYLAYER
 70
     0
  3

 72
    65
 73
     0
 40
0.0
  0
LTYPE
  5
16
330
5
100
AcDbSymbolTableRecord
100
AcDbLinetypeTableRecord
  2
CONTINUOUS
 70
     0
  3
Solid line
 72
    65
 73
     0
 40
0.0
  0
ENDTAB
  0
TABLE
  2
LAYER
  5
2
100
AcDbSymbolTable
 70
1
  0
LAYER
  5
50
100
AcDbSymbolTableRecord
100
AcDbLayerTableRecord
  2
0
 70
0
  6
CONTINUOUS
  0
ENDTAB
  0
TABLE
  2
STYLE
  5
3
330
0
100
AcDbSymbolTable
 70
     1
  0
STYLE
  5
11
330
3
100
AcDbSymbolTableRecord
100
AcDbTextStyleTableRecord
  2
STANDARD
 70
     0
 40
0.0
 41
1.0
 50
0.0
 71
     0
 42
2.5
  3
txt
  4

  0
ENDTAB
  0
TABLE
  2
VIEW
  5
6
330
0
100
AcDbSymbolTable
 70
     0
  0
ENDTAB
  0
TABLE
  2
UCS
  5
7
330
0
100
AcDbSymbolTable
 70
     0
  0
ENDTAB
  0
TABLE
  2
APPID
  5
9
330
0
100
AcDbSymbolTable
 70
     2
  0
APPID
  5
12
330
9
100
AcDbSymbolTableRecord
100
AcDbRegAppTableRecord
  2
ACAD
 70
     0
  0
ENDTAB
  0
TABLE
  2
DIMSTYLE
  5
A
330
0
100
AcDbSymbolTable
 70
     1
  0
DIMSTYLE
105
27
330
A
100
AcDbSymbolTableRecord
100
AcDbDimStyleTableRecord
  2
ISO-25
 70
     0
  3

  4

  5

  6

  7

 40
1.0
 41
2.5
 42
0.625
 43
3.75
 44
1.25
 45
0.0
 46
0.0
 47
0.0
 48
0.0
140
2.5
141
2.5
142
0.0
143
0.03937007874016
144
1.0
145
0.0
146
1.0
147
0.625
 71
     0
 72
     0
 73
     0
 74
     0
 75
     0
 76
     0
 77
     1
 78
     8
170
     0
171
     3
172
     1
173
     0
174
     0
175
     0
176
     0
177
     0
178
     0
270
     2
271
     2
272
     2
273
     2
274
     3
340
11
275
     0
280
     0
281
     0
282
     0
283
     0
284
     8
285
     0
286
     0
287
     3
288
     0
  0
ENDTAB
  0
TABLE
  2
BLOCK_RECORD
  5
1
330
0
100
AcDbSymbolTable
 70
     1
  0
BLOCK_RECORD
  5
1F
330
1
100
AcDbSymbolTableRecord
100
AcDbBlockTableRecord
  2
*MODEL_SPACE
  0
BLOCK_RECORD
  5
1B
330
1
100
AcDbSymbolTableRecord
100
AcDbBlockTableRecord
  2
*PAPER_SPACE
  0
ENDTAB
  0
ENDSEC
  0
SECTION
  2
BLOCKS
  0
BLOCK
  5
20
330
1F
100
AcDbEntity
  8
0
100
AcDbBlockBegin
  2
*MODEL_SPACE
 70
     0
 10
0.0
 20
0.0
 30
0.0
  3
*MODEL_SPACE
  1

  0
ENDBLK
  5
21
330
1F
100
AcDbEntity
  8
0
100
AcDbBlockEnd
  0
BLOCK
  5
1C
330
1B
100
AcDbEntity
 67
     1
  8
0
100
AcDbBlockBegin
  2
*PAPER_SPACE
  1

  0
ENDBLK
  5
1D
330
1B
100
AcDbEntity
 67
     1
  8
0
100
AcDbBlockEnd
  0
ENDSEC
  0
SECTION
  2
ENTITIES
  0
LWPOLYLINE
  5
100
100
AcDbEntity
  8
0
 62
1
100
AcDbPolyline
 90
62
 70
0
 10
17.599071
 20
36.868429
 30
0.0
 10
17.322633
 20
35.157292
 30
0.0
 10
17.144609
 20
33.433127
 30
0.0
 10
17.065579
 20
31.701602
 30
0.0
 10
17.085819
 20
29.968396
 30
0.0
 10
17.205246
 20
28.239186
 30
0.0
 10
17.423474
 20
26.519654
 30
0.0
 10
17.739786
 20
24.815436
 30
0.0
 10
18.153147
 20
23.132115
 30
0.0
 10
18.662200
 20
21.475225
 30
0.0
 10
19.265274
 20
19.850195
 30
0.0
 10
19.960392
 20
18.262365
 30
0.0
 10
20.745273
 20
16.716915
 30
0.0
 10
21.617343
 20
15.218955
 30
0.0
 10
22.573740
 20
13.773365
 30
0.0
 10
23.611330
 20
12.384905
 30
0.0
 10
24.726705
 20
11.058115
 30
0.0
 10
25.916209
 20
9.797365
 30
0.0
 10
27.175943
 20
8.606775
 30
0.0
 10
28.501772
 20
7.490265
 30
0.0
 10
29.889341
 20
6.451485
 30
0.0
 10
31.334108
 20
5.493845
 30
0.0
 10
32.831331
 20
4.620485
 30
0.0
 10
34.376094
 20
3.834285
 30
0.0
 10
35.963337
 20
3.137805
 30
0.0
 10
37.587849
 20
2.533335
 30
0.0
 10
39.244302
 20
2.022865
 30
0.0
 10
40.927264
 20
1.608055
 30
0.0
 10
42.631212
 20
1.290285
 30
0.0
 10
44.350559
 20
1.070585
 30
0.0
 10
46.079661
 20
0.949665
 30
0.0
 10
47.812851
 20
0.927965
 30
0.0
 10
49.544443
 20
1.005465
 30
0.0
 10
51.268754
 20
1.182015
 30
0.0
 10
52.980130
 20
1.456985
 30
0.0
 10
54.672962
 20
1.829485
 30
0.0
 10
56.341686
 20
2.298275
 30
0.0
 10
57.980833
 20
2.861845
 30
0.0
 10
59.585035
 20
3.518335
 30
0.0
 10
61.149017
 20
4.265575
 30
0.0
 10
62.667655
 20
5.101135
 30
0.0
 10
64.135971
 20
6.022265
 30
0.0
 10
65.549139
 20
7.025935
 30
0.0
 10
66.902532
 20
8.108875
 30
0.0
 10
68.191706
 20
9.267515
 30
0.0
 10
69.412431
 20
10.498065
 30
0.0
 10
70.560711
 20
11.796475
 30
0.0
 10
71.632771
 20
13.158495
 30
0.0
 10
72.625095
 20
14.579665
 30
0.0
 10
73.534434
 20
16.055305
 30
0.0
 10
74.357799
 20
17.580585
 30
0.0
 10
75.092491
 20
19.150515
 30
0.0
 10
75.736103
 20
20.759915
 30
0.0
 10
76.286520
 20
22.403525
 30
0.0
 10
76.741937
 20
24.075955
 30
0.0
 10
77.100862
 20
25.771718
 30
0.0
 10
77.362116
 20
27.485239
 30
0.0
 10
77.524843
 20
29.210911
 30
0.0
 10
77.588513
 20
30.943066
 30
0.0
 10
77.552903
 20
32.676024
 30
0.0
 10
77.415285
 20
34.440801
 30
0.0
 10
77.230046
 20
36.318844
 30
0.0
  0
SPLINE
  5
101
100
AcDbEntity
  8
0
 62
1
100
AcDbSpline
 70
0
 71
3
 72
10
 73
6
 74
4
 40
0.000000
 40
0.000000
 40
0.000000
 40
0.000000
 40
0.011035
 40
0.022070
 40
0.033107
 40
0.033107
 40
0.033107
 40
0.033107
 10
77.230046
 20
36.318844
 30
0.0
 10
77.229686
 20
36.322504
 30
0.0
 10
77.228966
 20
36.329826
 30
0.0
 10
77.227966
 20
36.340816
 30
0.0
 10
77.227353
 20
36.348148
 30
0.0
 10
77.227046
 20
36.351814
 30
0.0
 11
77.230046
 21
36.318844
 31
0.0
 11
77.228979
 21
36.329827
 31
0.0
 11
77.227979
 21
36.340817
 31
0.0
 11
77.227046
 21
36.351814
 31
0.0
  0
LWPOLYLINE
  5
102
100
AcDbEntity
  8
0
 62
1
100
AcDbPolyline
 90
2
 70
0
 10
77.227046
 20
36.351814
 30
0.0
 10
77.073353
 20
38.227732
 30
0.0
  0
SPLINE
  5
103
100
AcDbEntity
  8
0
 62
1
100
AcDbSpline
 70
0
 71
3
 72
10
 73
6
 74
4
 40
0.000000
 40
0.000000
 40
0.000000
 40
0.000000
 40
0.011190
 40
0.022382
 40
0.033574
 40
0.033574
 40
0.033574
 40
0.033574
 10
77.073353
 20
38.227732
 30
0.0
 10
77.073047
 20
38.231449
 30
0.0
 10
77.072436
 20
38.238885
 30
0.0
 10
77.071586
 20
38.250044
 30
0.0
 10
77.071097
 20
38.257489
 30
0.0
 10
77.070853
 20
38.261212
 30
0.0
 11
77.073353
 21
38.227732
 31
0.0
 11
77.072447
 21
38.238885
 31
0.0
 11
77.071606
 21
38.250045
 31
0.0
 11
77.070853
 21
38.261212
 31
0.0
  0
LWPOLYLINE
  5
104
100
AcDbEntity
  8
0
 62
1
100
AcDbPolyline
 90
2
 70
0
 10
77.070853
 20
38.261212
 30
0.0
 10
76.950299
 20
40.115600
 30
0.0
  0
SPLINE
  5
105
100
AcDbEntity
  8
0
 62
1
100
AcDbSpline
 70
0
 71
3
 72
10
 73
6
 74
4
 40
0.000000
 40
0.000000
 40
0.000000
 40
0.000000
 40
0.011256
 40
0.022511
 40
0.033764
 40
0.033764
 40
0.033764
 40
0.033764
 10
76.950299
 20
40.115600
 30
0.0
 10
76.950057
 20
40.119344
 30
0.0
 10
76.949573
 20
40.126832
 30
0.0
 10
76.948930
 20
40.138068
 30
0.0
 10
76.948576
 20
40.145563
 30
0.0
 10
76.948399
 20
40.149310
 30
0.0
 11
76.950299
 21
40.115600
 31
0.0
 11
76.949587
 21
40.126833
 31
0.0
 11
76.948948
 21
40.138070
 31
0.0
 11
76.948399
 21
40.149310
 31
0.0
  0
LWPOLYLINE
  5
106
100
AcDbEntity
  8
0
 62
1
100
AcDbPolyline
 90
2
 70
0
 10
76.948399
 20
40.149310
 30
0.0
 10
76.860229
 20
41.983643
 30
0.0
  0
SPLINE
  5
107
100
AcDbEntity
  8
0
 62
1
100
AcDbSpline
 70
0
 71
3
 72
10
 73
6
 74
4
 40
0.000000
 40
0.000000
 40
0.000000
 40
0.000000
 40
0.011199
 40
0.022395
 40
0.033596
 40
0.033596
 40
0.033596
 40
0.033596
 10
76.860229
 20
41.983643
 30
0.0
 10
76.860056
 20
41.987372
 30
0.0
 10
76.859710
 20
41.994829
 30
0.0
 10
76.859272
 20
42.006019
 30
0.0
 10
76.859044
 20
42.013481
 30
0.0
 10
76.858929
 20
42.017213
 30
0.0
 11
76.860229
 21
41.983643
 31
0.0
 11
76.859724
 21
41.994831
 31
0.0
 11
76.859288
 21
42.006018
 31
0.0
 11
76.858929
 21
42.017213
 31
0.0
  0
LWPOLYLINE
  5
108
100
AcDbEntity
  8
0
 62
1
100
AcDbPolyline
 90
2
 70
0
 10
76.858929
 20
42.017213
 30
0.0
 10
76.802159
 20
43.833573
 30
0.0
  0
SPLINE
  5
109
100
AcDbEntity
  8
0
 62
1
100
AcDbSpline
 70
0
 71
3
 72
10
 73
6
 74
4
 40
0.000000
 40
0.000000
 40
0.000000
 40
0.000000
 40
0.011015
 40
0.022030
 40
0.033048
 40
0.033048
 40
0.033048
 40
0.033048
 10
76.802159
 20
43.833573
 30
0.0
 10
76.802053
 20
43.837243
 30
0.0
 10
76.801841
 20
43.844583
 30
0.0
 10
76.801597
 20
43.855597
 30
0.0
 10
76.801482
 20
43.862940
 30
0.0
 10
76.801425
 20
43.866613
 30
0.0
 11
76.802159
 21
43.833573
 31
0.0
 11
76.801854
 21
43.844583
 31
0.0
 11
76.801609
 21
43.855596
 31
0.0
 11
76.801425
 21
43.866613
 31
0.0
  0
LWPOLYLINE
  5
10a
100
AcDbEntity
  8
0
 62
1
100
AcDbPolyline
 90
2
 70
0
 10
76.801425
 20
43.866613
 30
0.0
 10
76.774915
 20
45.667490
 30
0.0
  0
SPLINE
  5
10b
100
AcDbEntity
  8
0
 62
1
100
AcDbSpline
 70
0
 71
3
 72
10
 73
6
 74
4
 40
0.000000
 40
0.000000
 40
0.000000
 40
0.000000
 40
0.010708
 40
0.021413
 40
0.032121
 40
0.032121
 40
0.032121
 40
0.032121
 10
76.774915
 20
45.667490
 30
0.0
 10
76.774871
 20
45.671059
 30
0.0
 10
76.774782
 20
45.678196
 30
0.0
 10
76.774718
 20
45.688903
 30
0.0
 10
76.774721
 20
45.696041
 30
0.0
 10
76.774723
 20
45.699610
 30
0.0
 11
76.774915
 21
45.667490
 31
0.0
 11
76.774794
 21
45.678197
 31
0.0
 11
76.774730
 21
45.688902
 31
0.0
 11
76.774723
 21
45.699610
 31
0.0
  0
LWPOLYLINE
  5
10c
100
AcDbEntity
  8
0
 62
1
100
AcDbPolyline
 90
2
 70
0
 10
76.774723
 20
45.699610
 30
0.0
 10
76.777123
 20
47.487891
 30
0.0
  0
SPLINE
  5
10d
100
AcDbEntity
  8
0
 62
1
100
AcDbSpline
 70
0
 71
3
 72
10
 73
6
 74
4
 40
0.000000
 40
0.000000
 40
0.000000
 40
0.000000
 40
0.010273
 40
0.020548
 40
0.030822
 40
0.030822
 40
0.030822
 40
0.030822
 10
76.777123
 20
47.487891
 30
0.0
 10
76.777133
 20
47.491315
 30
0.0
 10
76.777154
 20
47.498164
 30
0.0
 10
76.777249
 20
47.508438
 30
0.0
 10
76.777354
 20
47.515287
 30
0.0
 10
76.777406
 20
47.518711
 30
0.0
 11
76.777123
 21
47.487891
 31
0.0
 11
76.777165
 21
47.498163
 31
0.0
 11
76.777259
 21
47.508438
 31
0.0
 11
76.777406
 21
47.518711
 31
0.0
  0
LWPOLYLINE
  5
10e
100
AcDbEntity
  8
0
 62
1
100
AcDbPolyline
 90
2
 70
0
 10
76.777406
 20
47.518711
 30
0.0
 10
76.807226
 20
49.297676
 30
0.0
  0
SPLINE
  5
10f
100
AcDbEntity
  8
0
 62
1
100
AcDbSpline
 70
0
 71
3
 72
10
 73
6
 74
4
 40
0.000000
 40
0.000000
 40
0.000000
 40
0.000000
 40
0.014183
 40
0.028366
 40
0.042548
 40
0.042548
 40
0.042548
 40
0.042548
 10
76.807226
 20
49.297676
 30
0.0
 10
76.807316
 20
49.302402
 30
0.0
 10
76.807497
 20
49.311856
 30
0.0
 10
76.807894
 20
49.326033
 30
0.0
 10
76.808249
 20
49.335482
 30
0.0
 10
76.808426
 20
49.340206
 30
0.0
 11
76.807226
 21
49.297676
 31
0.0
 11
76.807518
 21
49.311855
 31
0.0
 11
76.807916
 21
49.326033
 31
0.0
 11
76.808426
 21
49.340206
 31
0.0
  0
LWPOLYLINE
  5
110
100
AcDbEntity
  8
0
 62
1
100
AcDbPolyline
 90
2
 70
0
 10
76.808426
 20
49.340206
 30
0.0
 10
76.943404
 20
52.884824
 30
0.0
  0
SPLINE
  5
111
100
AcDbEntity
  8
0
 62
1
100
AcDbSpline
 70
0
 71
3
 72
10
 73
6
 74
4
 40
0.000000
 40
0.000000
 40
0.000000
 40
0.000000
 40
0.016452
 40
0.032900
 40
0.049344
 40
0.049344
 40
0.049344
 40
0.049344
 10
76.943404
 20
52.884824
 30
0.0
 10
76.943631
 20
52.890303
 30
0.0
 10
76.944086
 20
52.901260
 30
0.0
 10
76.944932
 20
52.917687
 30
0.0
 10
76.945580
 20
52.928632
 30
0.0
 10
76.945904
 20
52.934104
 30
0.0
 11
76.943404
 21
52.884824
 31
0.0
 11
76.944113
 21
52.901260
 31
0.0
 11
76.944953
 21
52.917688
 31
0.0
 11
76.945904
 21
52.934104
 31
0.0
  0
LWPOLYLINE
  5
112
100
AcDbEntity
  8
0
 62
1
100
AcDbPolyline
 90
2
 70
0
 10
76.945904
 20
52.934104
 30
0.0
 10
77.169032
 20
56.486490
 30
0.0
  0
SPLINE
  5
113
100
AcDbEntity
  8
0
 62
1
100
AcDbSpline
 70
0
 71
3
 72
10
 73
6
 74
4
 40
0.000000
 40
0.000000
 40
0.000000
 40
0.000000
 40
0.013039
 40
0.026079
 40
0.039118
 40
0.039118
 40
0.039118
 40
0.039118
 10
77.169032
 20
56.486490
 30
0.0
 10
77.169318
 20
56.490827
 30
0.0
 10
77.169890
 20
56.499501
 30
0.0
 10
77.170858
 20
56.512505
 30
0.0
 10
77.171574
 20
56.521168
 30
0.0
 10
77.171932
 20
56.525500
 30
0.0
 11
77.169032
 21
56.486490
 31
0.0
 11
77.169908
 21
56.499499
 31
0.0
 11
77.170876
 21
56.512504
 31
0.0
 11
77.171932
 21
56.525500
 31
0.0
  0
LWPOLYLINE
  5
114
100
AcDbEntity
  8
0
 62
1
100
AcDbPolyline
 90
2
 70
0
 10
77.171932
 20
56.525500
 30
0.0
 10
77.468096
 20
60.116527
 30
0.0
  0
SPLINE
  5
115
100
AcDbEntity
  8
0
 62
1
100
AcDbSpline
 70
0
 71
3
 72
10
 73
6
 74
4
 40
0.000000
 40
0.000000
 40
0.000000
 40
0.000000
 40
0.009547
 40
0.019112
 40
0.028679
 40
0.028679
 40
0.028679
 40
0.028679
 10
77.468096
 20
60.116527
 30
0.0
 10
77.468358
 20
60.119698
 30
0.0
 10
77.468883
 20
60.126047
 30
0.0
 10
77.469711
 20
60.135571
 30
0.0
 10
77.470301
 20
60.141921
 30
0.0
 10
77.470596
 20
60.145097
 30
0.0
 11
77.468096
 21
60.116527
 31
0.0
 11
77.468889
 21
60.126041
 31
0.0
 11
77.469721
 21
60.135570
 31
0.0
 11
77.470596
 21
60.145097
 31
0.0
  0
LWPOLYLINE
  5
116
100
AcDbEntity
  8
0
 62
1
100
AcDbPolyline
 90
2
 70
0
 10
77.470596
 20
60.145097
 30
0.0
 10
77.825200
 20
63.803171
 30
0.0
  0
SPLINE
  5
117
100
AcDbEntity
  8
0
 62
1
100
AcDbSpline
 70
0
 71
3
 72
10
 73
6
 74
4
 40
0.000000
 40
0.000000
 40
0.000000
 40
0.000000
 40
0.005109
 40
0.010205
 40
0.015304
 40
0.015304
 40
0.015304
 40
0.015304
 10
77.825200
 20
63.803171
 30
0.0
 10
77.825361
 20
63.804866
 30
0.0
 10
77.825683
 20
63.808253
 30
0.0
 10
77.826183
 20
63.813329
 30
0.0
 10
77.826528
 20
63.816710
 30
0.0
 10
77.826700
 20
63.818401
 30
0.0
 11
77.825200
 21
63.803171
 31
0.0
 11
77.825686
 21
63.808257
 31
0.0
 11
77.826186
 21
63.813328
 31
0.0
 11
77.826700
 21
63.818401
 31
0.0
  0
LWPOLYLINE
  5
118
100
AcDbEntity
  8
0
 62
1
100
AcDbPolyline
 90
2
 70
0
 10
77.826700
 20
63.818401
 30
0.0
 10
78.021625
 20
65.680461
 30
0.0
  0
SPLINE
  5
119
100
AcDbEntity
  8
0
 62
1
100
AcDbSpline
 70
0
 71
3
 72
10
 73
6
 74
4
 40
0.000000
 40
0.000000
 40
0.000000
 40
0.000000
 40
0.002410
 40
0.004798
 40
0.007142
 40
0.007142
 40
0.007142
 40
0.007142
 10
78.021625
 20
65.680461
 30
0.0
 10
78.021710
 20
65.681260
 30
0.0
 10
78.021879
 20
65.682850
 30
0.0
 10
78.022135
 20
65.685217
 30
0.0
 10
78.022312
 20
65.686784
 30
0.0
 10
78.022400
 20
65.687561
 30
0.0
 11
78.021625
 21
65.680461
 31
0.0
 11
78.021880
 21
65.682857
 31
0.0
 11
78.022139
 21
65.685231
 31
0.0
 11
78.022400
 21
65.687561
 31
0.0
  0
LWPOLYLINE
  5
11a
100
AcDbEntity
  8
0
 62
1
100
AcDbPolyline
 90
2
 70
0
 10
78.022400
 20
65.687561
 30
0.0
 10
78.226853
 20
67.575340
 30
0.0
  0
SPLINE
  5
11b
100
AcDbEntity
  8
0
 62
1
100
AcDbSpline
 70
0
 71
3
 72
10
 73
6
 74
4
 40
0.000000
 40
0.000000
 40
0.000000
 40
0.000000
 40
0.001710
 40
0.003419
 40
0.005129
 40
0.005129
 40
0.005129
 40
0.005129
 10
78.226853
 20
67.575340
 30
0.0
 10
78.226913
 20
67.575906
 30
0.0
 10
78.227033
 20
67.577040
 30
0.0
 10
78.227216
 20
67.578740
 30
0.0
 10
78.227339
 20
67.579873
 30
0.0
 10
78.227400
 20
67.580440
 30
0.0
 11
78.226853
 21
67.575340
 31
0.0
 11
78.227034
 21
67.577040
 31
0.0
 11
78.227216
 21
67.578740
 31
0.0
 11
78.227400
 21
67.580440
 31
0.0
  0
LWPOLYLINE
  5
11c
100
AcDbEntity
  8
0
 62
1
100
AcDbPolyline
 90
14
 70
0
 10
78.227400
 20
67.580440
 30
0.0
 10
78.439963
 20
69.496326
 30
0.0
 10
78.440300
 20
69.499626
 30
0.0
 10
78.659526
 20
71.445732
 30
0.0
 10
78.659700
 20
71.447432
 30
0.0
 10
78.884240
 20
73.425630
 30
0.0
 10
78.884300
 20
73.425932
 30
0.0
 10
79.112910
 20
75.437313
 30
0.0
 10
79.344675
 20
77.482243
 30
0.0
 10
79.578956
 20
79.560922
 30
0.0
 10
79.815552
 20
81.672660
 30
0.0
 10
80.054698
 20
83.815449
 30
0.0
 10
80.054800
 20
83.816649
 30
0.0
 10
80.544003
 20
88.177020
 30
0.0
  0
SPLINE
  5
11d
100
AcDbEntity
  8
0
 62
1
100
AcDbSpline
 70
0
 71
3
 72
10
 73
6
 74
4
 40
0.000000
 40
0.000000
 40
0.000000
 40
0.000000
 40
0.002712
 40
0.005403
 40
0.008050
 40
0.008050
 40
0.008050
 40
0.008050
 10
80.544003
 20
88.177020
 30
0.0
 10
80.544101
 20
88.177919
 30
0.0
 10
80.544297
 20
88.179709
 30
0.0
 10
80.544594
 20
88.182376
 30
0.0
 10
80.544799
 20
88.184143
 30
0.0
 10
80.544900
 20
88.185020
 30
0.0
 11
80.544003
 21
88.177020
 31
0.0
 11
80.544299
 21
88.179716
 31
0.0
 11
80.544598
 21
88.182390
 31
0.0
 11
80.544900
 21
88.185020
 31
0.0
  0
LWPOLYLINE
  5
11e
100
AcDbEntity
  8
0
 62
1
100
AcDbPolyline
 90
2
 70
0
 10
80.544900
 20
88.185020
 30
0.0
 10
81.058672
 20
92.602622
 30
0.0
  0
SPLINE
  5
11f
100
AcDbEntity
  8
0
 62
1
100
AcDbSpline
 70
0
 71
3
 72
10
 73
6
 74
4
 40
0.000000
 40
0.000000
 40
0.000000
 40
0.000000
 40
0.006144
 40
0.012289
 40
0.018432
 40
0.018432
 40
0.018432
 40
0.018432
 10
81.058672
 20
92.602622
 30
0.0
 10
81.058915
 20
92.604655
 30
0.0
 10
81.059400
 20
92.608723
 30
0.0
 10
81.060156
 20
92.614820
 30
0.0
 10
81.060633
 20
92.618888
 30
0.0
 10
81.060872
 20
92.620922
 30
0.0
 11
81.058672
 21
92.602622
 31
0.0
 11
81.059405
 21
92.608722
 31
0.0
 11
81.060149
 21
92.614822
 31
0.0
 11
81.060872
 21
92.620922
 31
0.0
  0
LWPOLYLINE
  5
120
100
AcDbEntity
  8
0
 62
1
100
AcDbPolyline
 90
2
 70
0
 10
81.060872
 20
92.620922
 30
0.0
 10
81.615400
 20
97.034376
 30
0.0
  0
SPLINE
  5
121
100
AcDbEntity
  8
0
 62
1
100
AcDbSpline
 70
0
 71
3
 72
10
 73
6
 74
4
 40
0.000000
 40
0.000000
 40
0.000000
 40
0.000000
 40
0.007068
 40
0.014151
 40
0.021236
 40
0.021236
 40
0.021236
 40
0.021236
 10
81.615400
 20
97.034376
 30
0.0
 10
81.615698
 20
97.036713
 30
0.0
 10
81.616294
 20
97.041392
 30
0.0
 10
81.617217
 20
97.048410
 30
0.0
 10
81.617872
 20
97.053087
 30
0.0
 10
81.618200
 20
97.055426
 30
0.0
 11
81.615400
 21
97.034376
 31
0.0
 11
81.616298
 21
97.041387
 31
0.0
 11
81.617227
 21
97.048408
 31
0.0
 11
81.618200
 21
97.055426
 31
0.0
  0
LWPOLYLINE
  5
122
100
AcDbEntity
  8
0
 62
1
100
AcDbPolyline
 90
2
 70
0
 10
81.618200
 20
97.055426
 30
0.0
 10
81.916298
 20
99.240019
 30
0.0
  0
SPLINE
  5
123
100
AcDbEntity
  8
0
 62
1
100
AcDbSpline
 70
0
 71
3
 72
10
 73
6
 74
4
 40
0.000000
 40
0.000000
 40
0.000000
 40
0.000000
 40
0.006079
 40
0.012185
 40
0.018296
 40
0.018296
 40
0.018296
 40
0.018296
 10
81.916298
 20
99.240019
 30
0.0
 10
81.916580
 20
99.242025
 30
0.0
 10
81.917144
 20
99.246048
 30
0.0
 10
81.918006
 20
99.252085
 30
0.0
 10
81.918601
 20
99.256114
 30
0.0
 10
81.918898
 20
99.258129
 30
0.0
 11
81.916298
 21
99.240019
 31
0.0
 11
81.917145
 21
99.246038
 31
0.0
 11
81.918011
 21
99.252083
 31
0.0
 11
81.918898
 21
99.258129
 31
0.0
  0
LWPOLYLINE
  5
124
100
AcDbEntity
  8
0
 62
1
100
AcDbPolyline
 90
2
 70
0
 10
81.918898
 20
99.258129
 30
0.0
 10
82.233674
 20
101.417238
 30
0.0
  0
SPLINE
  5
125
100
AcDbEntity
  8
0
 62
1
100
AcDbSpline
 70
0
 71
3
 72
10
 73
6
 74
4
 40
0.000000
 40
0.000000
 40
0.000000
 40
0.000000
 40
0.007155
 40
0.014292
 40
0.021430
 40
0.021430
 40
0.021430
 40
0.021430
 10
82.233674
 20
101.417238
 30
0.0
 10
82.234014
 20
101.419598
 30
0.0
 10
82.234692
 20
101.424314
 30
0.0
 10
82.235775
 20
101.431375
 30
0.0
 10
82.236508
 20
101.436077
 30
0.0
 10
82.236874
 20
101.438428
 30
0.0
 11
82.233674
 21
101.417238
 31
0.0
 11
82.234704
 21
101.424318
 31
0.0
 11
82.235778
 21
101.431374
 31
0.0
 11
82.236874
 21
101.438428
 31
0.0
  0
LWPOLYLINE
  5
126
100
AcDbEntity
  8
0
 62
1
100
AcDbPolyline
 90
2
 70
0
 10
82.236874
 20
101.438428
 30
0.0
 10
82.570219
 20
103.564649
 30
0.0
  0
SPLINE
  5
127
100
AcDbEntity
  8
0
 62
1
100
AcDbSpline
 70
0
 71
3
 72
10
 73
6
 74
4
 40
0.000000
 40
0.000000
 40
0.000000
 40
0.000000
 40
0.008185
 40
0.016346
 40
0.024509
 40
0.024509
 40
0.024509
 40
0.024509
 10
82.570219
 20
103.564649
 30
0.0
 10
82.570652
 20
103.567342
 30
0.0
 10
82.571518
 20
103.572722
 30
0.0
 10
82.572839
 20
103.580784
 30
0.0
 10
82.573759
 20
103.586147
 30
0.0
 10
82.574219
 20
103.588829
 30
0.0
 11
82.570219
 21
103.564649
 31
0.0
 11
82.571523
 21
103.572729
 31
0.0
 11
82.572849
 21
103.580782
 31
0.0
 11
82.574219
 21
103.588829
 31
0.0
  0
LWPOLYLINE
  5
128
100
AcDbEntity
  8
0
 62
1
100
AcDbPolyline
 90
2
 70
0
 10
82.574219
 20
103.588829
 30
0.0
 10
82.927640
 20
105.675636
 30
0.0
  0
SPLINE
  5
129
100
AcDbEntity
  8
0
 62
1
100
AcDbSpline
 70
0
 71
3
 72
10
 73
6
 74
4
 40
0.000000
 40
0.000000
 40
0.000000
 40
0.000000
 40
0.009113
 40
0.018212
 40
0.027316
 40
0.027316
 40
0.027316
 40
0.027316
 10
82.927640
 20
105.675636
 30
0.0
 10
82.928146
 20
105.678631
 30
0.0
 10
82.929159
 20
105.684617
 30
0.0
 10
82.930760
 20
105.693580
 30
0.0
 10
82.931880
 20
105.699544
 30
0.0
 10
82.932440
 20
105.702526
 30
0.0
 11
82.927640
 21
105.675636
 31
0.0
 11
82.929173
 21
105.684618
 31
0.0
 11
82.930773
 21
105.693577
 31
0.0
 11
82.932440
 21
105.702526
 31
0.0
  0
LWPOLYLINE
  5
12a
100
AcDbEntity
  8
0
 62
1
100
AcDbPolyline
 90
2
 70
0
 10
82.932440
 20
105.702526
 30
0.0
 10
83.307010
 20
107.744520
 30
0.0
  0
SPLINE
  5
12b
100
AcDbEntity
  8
0
 62
1
100
AcDbSpline
 70
0
 71
3
 72
10
 73
6
 74
4
 40
0.000000
 40
0.000000
 40
0.000000
 40
0.000000
 40
0.009893
 40
0.019817
 40
0.029742
 40
0.029742
 40
0.029742
 40
0.029742
 10
83.307010
 20
107.744520
 30
0.0
 10
83.307617
 20
107.747761
 30
0.0
 10
83.308833
 20
107.754254
 30
0.0
 10
83.310710
 20
107.763989
 30
0.0
 10
83.311977
 20
107.770483
 30
0.0
 10
83.312610
 20
107.773730
 30
0.0
 11
83.307010
 21
107.744520
 31
0.0
 11
83.308840
 21
107.754242
 31
0.0
 11
83.310714
 21
107.763988
 31
0.0
 11
83.312610
 21
107.773730
 31
0.0
  0
LWPOLYLINE
  5
12c
100
AcDbEntity
  8
0
 62
1
100
AcDbPolyline
 90
2
 70
0
 10
83.312610
 20
107.773730
 30
0.0
 10
83.708926
 20
109.766847
 30
0.0
  0
SPLINE
  5
12d
100
AcDbEntity
  8
0
 62
1
100
AcDbSpline
 70
0
 71
3
 72
10
 73
6
 74
4
 40
0.000000
 40
0.000000
 40
0.000000
 40
0.000000
 40
0.010510
 40
0.021026
 40
0.031537
 40
0.031537
 40
0.031537
 40
0.031537
 10
83.708926
 20
109.766847
 30
0.0
 10
83.709606
 20
109.770283
 30
0.0
 10
83.710965
 20
109.777159
 30
0.0
 10
83.713127
 20
109.787447
 30
0.0
 10
83.714593
 20
109.794301
 30
0.0
 10
83.715326
 20
109.797727
 30
0.0
 11
83.708926
 21
109.766847
 31
0.0
 11
83.710985
 21
109.777153
 31
0.0
 11
83.713133
 21
109.787448
 31
0.0
 11
83.715326
 21
109.797727
 31
0.0
  0
LWPOLYLINE
  5
12e
100
AcDbEntity
  8
0
 62
1
100
AcDbPolyline
 90
2
 70
0
 10
83.715326
 20
109.797727
 30
0.0
 10
84.133451
 20
111.739543
 30
0.0
  0
SPLINE
  5
12f
100
AcDbEntity
  8
0
 62
1
100
AcDbSpline
 70
0
 71
3
 72
10
 73
6
 74
4
 40
0.000000
 40
0.000000
 40
0.000000
 40
0.000000
 40
0.010822
 40
0.021641
 40
0.032466
 40
0.032466
 40
0.032466
 40
0.032466
 10
84.133451
 20
111.739543
 30
0.0
 10
84.134218
 20
111.743068
 30
0.0
 10
84.135752
 20
111.750116
 30
0.0
 10
84.138090
 20
111.760683
 30
0.0
 10
84.139731
 20
111.767709
 30
0.0
 10
84.140551
 20
111.771223
 30
0.0
 11
84.133451
 21
111.739543
 31
0.0
 11
84.135758
 21
111.750116
 31
0.0
 11
84.138110
 21
111.760676
 31
0.0
 11
84.140551
 21
111.771223
 31
0.0
  0
LWPOLYLINE
  5
130
100
AcDbEntity
  8
0
 62
1
100
AcDbPolyline
 90
2
 70
0
 10
84.140551
 20
111.771223
 30
0.0
 10
84.579733
 20
113.661129
 30
0.0
  0
SPLINE
  5
131
100
AcDbEntity
  8
0
 62
1
100
AcDbSpline
 70
0
 71
3
 72
10
 73
6
 74
4
 40
0.000000
 40
0.000000
 40
0.000000
 40
0.000000
 40
0.010775
 40
0.021538
 40
0.032297
 40
0.032297
 40
0.032297
 40
0.032297
 10
84.579733
 20
113.661129
 30
0.0
 10
84.580566
 20
113.664623
 30
0.0
 10
84.582232
 20
113.671606
 30
0.0
 10
84.584752
 20
113.682073
 30
0.0
 10
84.586473
 20
113.689037
 30
0.0
 10
84.587333
 20
113.692519
 30
0.0
 11
84.579733
 21
113.661129
 31
0.0
 11
84.582237
 21
113.671609
 31
0.0
 11
84.584763
 21
113.682072
 31
0.0
 11
84.587333
 21
113.692519
 31
0.0
  0
LWPOLYLINE
  5
132
100
AcDbEntity
  8
0
 62
1
100
AcDbPolyline
 90
2
 70
0
 10
84.587333
 20
113.692519
 30
0.0
 10
85.046145
 20
115.531776
 30
0.0
  0
SPLINE
  5
133
100
AcDbEntity
  8
0
 62
1
100
AcDbSpline
 70
0
 71
3
 72
10
 73
6
 74
4
 40
0.000000
 40
0.000000
 40
0.000000
 40
0.000000
 40
0.010362
 40
0.020727
 40
0.031097
 40
0.031097
 40
0.031097
 40
0.031097
 10
85.046145
 20
115.531776
 30
0.0
 10
85.046985
 20
115.535127
 30
0.0
 10
85.048665
 20
115.541828
 30
0.0
 10
85.051266
 20
115.551863
 30
0.0
 10
85.053052
 20
115.558539
 30
0.0
 10
85.053945
 20
115.561878
 30
0.0
 11
85.046145
 21
115.531776
 31
0.0
 11
85.048678
 21
115.541824
 31
0.0
 11
85.051278
 21
115.551858
 31
0.0
 11
85.053945
 21
115.561878
 31
0.0
  0
LWPOLYLINE
  5
134
100
AcDbEntity
  8
0
 62
1
100
AcDbPolyline
 90
2
 70
0
 10
85.053945
 20
115.561878
 30
0.0
 10
85.530516
 20
117.353209
 30
0.0
  0
SPLINE
  5
135
100
AcDbEntity
  8
0
 62
1
100
AcDbSpline
 70
0
 71
3
 72
10
 73
6
 74
4
 40
0.000000
 40
0.000000
 40
0.000000
 40
0.000000
 40
0.009554
 40
0.019111
 40
0.028658
 40
0.028658
 40
0.028658
 40
0.028658
 10
85.530516
 20
117.353209
 30
0.0
 10
85.531329
 20
117.356289
 30
0.0
 10
85.532955
 20
117.362448
 30
0.0
 10
85.535496
 20
117.371657
 30
0.0
 10
85.537176
 20
117.377799
 30
0.0
 10
85.538016
 20
117.380868
 30
0.0
 11
85.530516
 21
117.353209
 31
0.0
 11
85.532972
 21
117.362442
 31
0.0
 11
85.535494
 21
117.371661
 31
0.0
 11
85.538016
 21
117.380868
 31
0.0
  0
LWPOLYLINE
  5
136
100
AcDbEntity
  8
0
 62
1
100
AcDbPolyline
 90
2
 70
0
 10
85.538016
 20
117.380868
 30
0.0
 10
86.029963
 20
119.128486
 30
0.0
  0
SPLINE
  5
137
100
AcDbEntity
  8
0
 62
1
100
AcDbSpline
 70
0
 71
3
 72
10
 73
6
 74
4
 40
0.000000
 40
0.000000
 40
0.000000
 40
0.000000
 40
0.008389
 40
0.016775
 40
0.025165
 40
0.025165
 40
0.025165
 40
0.025165
 10
86.029963
 20
119.128486
 30
0.0
 10
86.030730
 20
119.131175
 30
0.0
 10
86.032263
 20
119.136553
 30
0.0
 10
86.034583
 20
119.144614
 30
0.0
 10
86.036170
 20
119.149977
 30
0.0
 10
86.036963
 20
119.152658
 30
0.0
 11
86.029963
 21
119.128486
 31
0.0
 11
86.032267
 21
119.136552
 31
0.0
 11
86.034593
 21
119.144610
 31
0.0
 11
86.036963
 21
119.152658
 31
0.0
  0
LWPOLYLINE
  5
138
100
AcDbEntity
  8
0
 62
1
100
AcDbPolyline
 90
2
 70
0
 10
86.036963
 20
119.152658
 30
0.0
 10
86.541347
 20
120.861821
 30
0.0
  0
SPLINE
  5
139
100
AcDbEntity
  8
0
 62
1
100
AcDbSpline
 70
0
 71
3
 72
10
 73
6
 74
4
 40
0.000000
 40
0.000000
 40
0.000000
 40
0.000000
 40
0.009417
 40
0.018826
 40
0.028234
 40
0.028234
 40
0.028234
 40
0.028234
 10
86.541347
 20
120.861821
 30
0.0
 10
86.542247
 20
120.864828
 30
0.0
 10
86.544046
 20
120.870840
 30
0.0
 10
86.546767
 20
120.879850
 30
0.0
 10
86.548620
 20
120.885842
 30
0.0
 10
86.549547
 20
120.888838
 30
0.0
 11
86.541347
 21
120.861821
 31
0.0
 11
86.544051
 21
120.870842
 31
0.0
 11
86.546777
 21
120.879846
 31
0.0
 11
86.549547
 21
120.888838
 31
0.0
  0
LWPOLYLINE
  5
13a
100
AcDbEntity
  8
0
 62
1
100
AcDbPolyline
 90
2
 70
0
 10
86.549547
 20
120.888838
 30
0.0
 10
87.582870
 20
124.216846
 30
0.0
  0
SPLINE
  5
13b
100
AcDbEntity
  8
0
 62
1
100
AcDbSpline
 70
0
 71
3
 72
10
 73
6
 74
4
 40
0.000000
 40
0.000000
 40
0.000000
 40
0.000000
 40
0.006068
 40
0.012138
 40
0.018215
 40
0.018215
 40
0.018215
 40
0.018215
 10
87.582870
 20
124.216846
 30
0.0
 10
87.583470
 20
124.218777
 30
0.0
 10
87.584671
 20
124.222641
 30
0.0
 10
87.586491
 20
124.228434
 30
0.0
 10
87.587743
 20
124.232284
 30
0.0
 10
87.588370
 20
124.234211
 30
0.0
 11
87.582870
 21
124.216846
 31
0.0
 11
87.584674
 21
124.222640
 31
0.0
 11
87.586500
 21
124.228428
 31
0.0
 11
87.588370
 21
124.234211
 31
0.0
  0
LWPOLYLINE
  5
13c
100
AcDbEntity
  8
0
 62
1
100
AcDbPolyline
 90
176
 70
0
 10
87.588370
 20
124.234211
 30
0.0
 10
88.630161
 20
127.484579
 30
0.0
 10
89.648825
 20
130.711163
 30
0.0
 10
90.136659
 20
132.324308
 30
0.0
 10
90.607394
 20
133.955515
 30
0.0
 10
91.056756
 20
135.611138
 30
0.0
 10
91.481376
 20
137.300492
 30
0.0
 10
91.878006
 20
139.032968
 30
0.0
 10
92.243498
 20
140.817830
 30
0.0
 10
92.574818
 20
142.664025
 30
0.0
 10
92.869072
 20
144.579981
 30
0.0
 10
93.123534
 20
146.573404
 30
0.0
 10
93.335713
 20
148.651127
 30
0.0
 10
93.503394
 20
150.818968
 30
0.0
 10
93.625000
 20
153.087137
 30
0.0
 10
93.667570
 20
154.249451
 30
0.0
 10
93.698250
 20
155.442411
 30
0.0
 10
93.716710
 20
156.660546
 30
0.0
 10
93.722910
 20
157.908813
 30
0.0
 10
93.722773
 20
159.990714
 30
0.0
 10
93.721820
 20
161.983742
 30
0.0
 10
93.719320
 20
163.887280
 30
0.0
 10
93.714420
 20
165.705594
 30
0.0
 10
93.706520
 20
167.442800
 30
0.0
 10
93.694910
 20
169.102880
 30
0.0
 10
93.678970
 20
170.689668
 30
0.0
 10
93.658130
 20
172.206878
 30
0.0
 10
93.631830
 20
173.658079
 30
0.0
 10
93.599580
 20
175.046723
 30
0.0
 10
93.560890
 20
176.376135
 30
0.0
 10
93.515340
 20
177.649520
 30
0.0
 10
93.462520
 20
178.869979
 30
0.0
 10
93.402080
 20
180.040491
 30
0.0
 10
93.333680
 20
181.163942
 30
0.0
 10
93.257040
 20
182.243102
 30
0.0
 10
93.171900
 20
183.280664
 30
0.0
 10
93.078020
 20
184.279225
 30
0.0
 10
92.975211
 20
185.241275
 30
0.0
 10
92.863288
 20
186.169247
 30
0.0
 10
92.742103
 20
187.065490
 30
0.0
 10
92.612737
 20
187.924212
 30
0.0
 10
92.321579
 20
189.585663
 30
0.0
 10
91.992949
 20
191.146899
 30
0.0
 10
91.624894
 20
192.630746
 30
0.0
 10
91.216894
 20
194.051180
 30
0.0
 10
90.768513
 20
195.420747
 30
0.0
 10
90.279444
 20
196.750542
 30
0.0
 10
89.749530
 20
198.050169
 30
0.0
 10
89.178861
 20
199.327811
 30
0.0
 10
88.567798
 20
200.590239
 30
0.0
 10
87.916994
 20
201.843030
 30
0.0
 10
87.227420
 20
203.090595
 30
0.0
 10
86.500316
 20
204.336407
 30
0.0
 10
85.737164
 20
205.583093
 30
0.0
 10
84.939649
 20
206.832563
 30
0.0
 10
84.109603
 20
208.086131
 30
0.0
 10
83.248973
 20
209.344619
 30
0.0
 10
82.362835
 20
210.604063
 30
0.0
 10
80.503053
 20
213.152906
 30
0.0
 10
78.556839
 20
215.716163
 30
0.0
 10
76.535158
 20
218.295880
 30
0.0
 10
74.451231
 20
220.888296
 30
0.0
 10
72.315687
 20
223.488484
 30
0.0
 10
70.135291
 20
226.089248
 30
0.0
 10
67.911563
 20
228.680168
 30
0.0
 10
65.639459
 20
231.246728
 30
0.0
 10
63.299772
 20
233.776318
 30
0.0
 10
62.107823
 20
235.009448
 30
0.0
 10
60.886998
 20
236.226588
 30
0.0
 10
59.637389
 20
237.419138
 30
0.0
 10
58.353824
 20
238.582828
 30
0.0
 10
57.030290
 20
239.713108
 30
0.0
 10
55.659827
 20
240.805108
 30
0.0
 10
54.234412
 20
241.853768
 30
0.0
 10
52.744821
 20
242.853718
 30
0.0
 10
51.168920
 20
243.806258
 30
0.0
 10
50.365793
 20
244.250788
 30
0.0
 10
49.528515
 20
244.685378
 30
0.0
 10
48.666101
 20
245.103208
 30
0.0
 10
47.776660
 20
245.503398
 30
0.0
 10
46.858207
 20
245.884978
 30
0.0
 10
45.908631
 20
246.246958
 30
0.0
 10
44.925721
 20
246.588258
 30
0.0
 10
43.907175
 20
246.907738
 30
0.0
 10
42.850593
 20
247.204158
 30
0.0
 10
41.753472
 20
247.476208
 30
0.0
 10
40.613237
 20
247.722498
 30
0.0
 10
39.427239
 20
247.941528
 30
0.0
 10
38.192746
 20
248.131738
 30
0.0
 10
36.906966
 20
248.291468
 30
0.0
 10
35.567046
 20
248.418968
 30
0.0
 10
34.170063
 20
248.512468
 30
0.0
 10
32.713037
 20
248.569968
 30
0.0
 10
31.188002
 20
248.589668
 30
0.0
 10
28.978872
 20
248.572268
 30
0.0
 10
26.865095
 20
248.513168
 30
0.0
 10
25.859072
 20
248.465368
 30
0.0
 10
24.874574
 20
248.403368
 30
0.0
 10
23.917528
 20
248.326268
 30
0.0
 10
22.987908
 20
248.232968
 30
0.0
 10
22.085683
 20
248.122408
 30
0.0
 10
21.210771
 20
247.993588
 30
0.0
 10
20.363026
 20
247.845568
 30
0.0
 10
19.542283
 20
247.677428
 30
0.0
 10
18.748253
 20
247.488298
 30
0.0
 10
17.980541
 20
247.277298
 30
0.0
 10
17.238652
 20
247.043588
 30
0.0
 10
16.521926
 20
246.786278
 30
0.0
 10
15.829579
 20
246.504458
 30
0.0
 10
15.160664
 20
246.197078
 30
0.0
 10
14.514079
 20
245.862998
 30
0.0
 10
13.888659
 20
245.500908
 30
0.0
 10
13.283148
 20
245.109318
 30
0.0
 10
12.696269
 20
244.686518
 30
0.0
 10
12.126807
 20
244.230658
 30
0.0
 10
11.573635
 20
243.739678
 30
0.0
 10
11.035778
 20
243.211408
 30
0.0
 10
10.512436
 20
242.643608
 30
0.0
 10
10.003017
 20
242.033998
 30
0.0
 10
9.507107
 20
241.380328
 30
0.0
 10
9.024478
 20
240.680428
 30
0.0
 10
8.555051
 20
239.932238
 30
0.0
 10
8.098866
 20
239.133788
 30
0.0
 10
7.656050
 20
238.283248
 30
0.0
 10
7.226770
 20
237.378908
 30
0.0
 10
6.811239
 20
236.419188
 30
0.0
 10
6.409657
 20
235.402568
 30
0.0
 10
6.022226
 20
234.327658
 30
0.0
 10
5.649116
 20
233.193088
 30
0.0
 10
5.290475
 20
231.997588
 30
0.0
 10
4.946420
 20
230.739888
 30
0.0
 10
4.617023
 20
229.418758
 30
0.0
 10
4.302339
 20
228.033008
 30
0.0
 10
4.002387
 20
226.581418
 30
0.0
 10
3.717150
 20
225.062808
 30
0.0
 10
3.446597
 20
223.475995
 30
0.0
 10
3.190663
 20
221.819777
 30
0.0
 10
2.949269
 20
220.092954
 30
0.0
 10
2.722321
 20
218.294331
 30
0.0
 10
2.509701
 20
216.422689
 30
0.0
 10
2.311281
 20
214.476827
 30
0.0
 10
2.126927
 20
212.455500
 30
0.0
 10
1.956489
 20
210.357487
 30
0.0
 10
1.799805
 20
208.181548
 30
0.0
 10
1.656718
 20
205.926431
 30
0.0
 10
1.527054
 20
203.590879
 30
0.0
 10
1.410635
 20
201.173635
 30
0.0
 10
1.307280
 20
198.673421
 30
0.0
 10
1.216810
 20
196.088980
 30
0.0
 10
1.139030
 20
193.419026
 30
0.0
 10
1.073750
 20
190.662264
 30
0.0
 10
1.020790
 20
187.817416
 30
0.0
 10
0.979940
 20
184.883187
 30
0.0
 10
0.951010
 20
181.858279
 30
0.0
 10
0.933790
 20
178.741395
 30
0.0
 10
0.928090
 20
175.539302
 30
0.0
 10
0.940260
 20
174.295795
 30
0.0
 10
0.976450
 20
173.076396
 30
0.0
 10
1.036580
 20
171.873000
 30
0.0
 10
1.120430
 20
170.685340
 30
0.0
 10
1.227727
 20
169.513122
 30
0.0
 10
1.358142
 20
168.355990
 30
0.0
 10
1.511294
 20
167.213559
 30
0.0
 10
1.685167
 20
166.095632
 30
0.0
 10
2.103075
 20
163.869770
 30
0.0
 10
2.602091
 20
161.705586
 30
0.0
 10
3.179293
 20
159.588391
 30
0.0
 10
3.829218
 20
157.513648
 30
0.0
 10
4.545851
 20
155.476689
 30
0.0
 10
5.322678
 20
153.472777
 30
0.0
 10
6.152708
 20
151.497155
 30
0.0
 10
7.028537
 20
149.545074
 30
0.0
 10
7.942421
 20
147.611819
 30
0.0
 10
8.884891
 20
145.695712
 30
0.0
 10
10.833680
 20
141.874436
 30
0.0
 10
12.794065
 20
138.073100
 30
0.0
  0
SPLINE
  5
13d
100
AcDbEntity
  8
0
 62
1
100
AcDbSpline
 70
0
 71
3
 72
10
 73
6
 74
4
 40
0.000000
 40
0.000000
 40
0.000000
 40
0.000000
 40
0.008668
 40
0.017322
 40
0.025966
 40
0.025966
 40
0.025966
 40
0.025966
 10
12.794065
 20
138.073100
 30
0.0
 10
12.795391
 20
138.070533
 30
0.0
 10
12.798042
 20
138.065403
 30
0.0
 10
12.801950
 20
138.057680
 30
0.0
 10
12.804521
 20
138.052519
 30
0.0
 10
12.805805
 20
138.049940
 30
0.0
 11
12.794065
 21
138.073100
 31
0.0
 11
12.798033
 21
138.065393
 31
0.0
 11
12.801944
 21
138.057673
 31
0.0
 11
12.805805
 21
138.049940
 31
0.0
  0
LWPOLYLINE
  5
13e
100
AcDbEntity
  8
0
 62
1
100
AcDbPolyline
 90
2
 70
0
 10
12.805805
 20
138.049940
 30
0.0
 10
14.707761
 20
134.241234
 30
0.0
  0
SPLINE
  5
13f
100
AcDbEntity
  8
0
 62
1
100
AcDbSpline
 70
0
 71
3
 72
10
 73
6
 74
4
 40
0.000000
 40
0.000000
 40
0.000000
 40
0.000000
 40
0.013568
 40
0.027127
 40
0.040685
 40
0.040685
 40
0.040685
 40
0.040685
 10
14.707761
 20
134.241234
 30
0.0
 10
14.709782
 20
134.237189
 30
0.0
 10
14.713823
 20
134.229100
 30
0.0
 10
14.719760
 20
134.216906
 30
0.0
 10
14.723654
 20
134.208749
 30
0.0
 10
14.725601
 20
134.204670
 30
0.0
 11
14.707761
 21
134.241234
 31
0.0
 11
14.713804
 21
134.229087
 31
0.0
 11
14.719745
 21
134.216899
 31
0.0
 11
14.725601
 21
134.204670
 31
0.0
  0
LWPOLYLINE
  5
140
100
AcDbEntity
  8
0
 62
1
100
AcDbPolyline
 90
2
 70
0
 10
14.725601
 20
134.204670
 30
0.0
 10
15.634320
 20
132.288301
 30
0.0
  0
SPLINE
  5
141
100
AcDbEntity
  8
0
 62
1
100
AcDbSpline
 70
0
 71
3
 72
10
 73
6
 74
4
 40
0.000000
 40
0.000000
 40
0.000000
 40
0.000000
 40
0.012565
 40
0.025120
 40
0.037675
 40
0.037675
 40
0.037675
 40
0.037675
 10
15.634320
 20
132.288301
 30
0.0
 10
15.636109
 20
132.284513
 30
0.0
 10
15.639684
 20
132.276942
 30
0.0
 10
15.644934
 20
132.265533
 30
0.0
 10
15.648378
 20
132.257905
 30
0.0
 10
15.650100
 20
132.254091
 30
0.0
 11
15.634320
 21
132.288301
 31
0.0
 11
15.639667
 21
132.276930
 31
0.0
 11
15.644920
 21
132.265527
 31
0.0
 11
15.650100
 21
132.254091
 31
0.0
  0
LWPOLYLINE
  5
142
100
AcDbEntity
  8
0
 62
1
100
AcDbPolyline
 90
2
 70
0
 10
15.650100
 20
132.254091
 30
0.0
 10
16.521096
 20
130.324358
 30
0.0
  0
SPLINE
  5
143
100
AcDbEntity
  8
0
 62
1
100
AcDbSpline
 70
0
 71
3
 72
10
 73
6
 74
4
 40
0.000000
 40
0.000000
 40
0.000000
 40
0.000000
 40
0.014968
 40
0.029923
 40
0.044877
 40
0.044877
 40
0.044877
 40
0.044877
 10
16.521096
 20
130.324358
 30
0.0
 10
16.523147
 20
130.319810
 30
0.0
 10
16.527246
 20
130.310717
 30
0.0
 10
16.533231
 20
130.297007
 30
0.0
 10
16.537141
 20
130.287836
 30
0.0
 10
16.539096
 20
130.283250
 30
0.0
 11
16.521096
 21
130.324358
 31
0.0
 11
16.527220
 21
130.310701
 31
0.0
 11
16.533212
 21
130.296998
 31
0.0
 11
16.539096
 21
130.283250
 31
0.0
  0
LWPOLYLINE
  5
144
100
AcDbEntity
  8
0
 62
1
100
AcDbPolyline
 90
2
 70
0
 10
16.539096
 20
130.283250
 30
0.0
 10
17.365666
 20
128.336488
 30
0.0
  0
SPLINE
  5
145
100
AcDbEntity
  8
0
 62
1
100
AcDbSpline
 70
0
 71
3
 72
10
 73
6
 74
4
 40
0.000000
 40
0.000000
 40
0.000000
 40
0.000000
 40
0.017064
 40
0.034123
 40
0.051181
 40
0.051181
 40
0.051181
 40
0.051181
 10
17.365666
 20
128.336488
 30
0.0
 10
17.367883
 20
128.331250
 30
0.0
 10
17.372317
 20
128.320775
 30
0.0
 10
17.378788
 20
128.304989
 30
0.0
 10
17.382993
 20
128.294423
 30
0.0
 10
17.385096
 20
128.289140
 30
0.0
 11
17.365666
 21
128.336488
 31
0.0
 11
17.372288
 21
128.320761
 31
0.0
 11
17.378761
 21
128.304978
 31
0.0
 11
17.385096
 21
128.289140
 31
0.0
  0
LWPOLYLINE
  5
146
100
AcDbEntity
  8
0
 62
1
100
AcDbPolyline
 90
2
 70
0
 10
17.385096
 20
128.289140
 30
0.0
 10
18.161484
 20
126.322078
 30
0.0
  0
SPLINE
  5
147
100
AcDbEntity
  8
0
 62
1
100
AcDbSpline
 70
0
 71
3
 72
10
 73
6
 74
4
 40
0.000000
 40
0.000000
 40
0.000000
 40
0.000000
 40
0.018778
 40
0.037552
 40
0.056326
 40
0.056326
 40
0.056326
 40
0.056326
 10
18.161484
 20
126.322078
 30
0.0
 10
18.163765
 20
126.316250
 30
0.0
 10
18.168328
 20
126.304593
 30
0.0
 10
18.174958
 20
126.287027
 30
0.0
 10
18.179249
 20
126.275269
 30
0.0
 10
18.181394
 20
126.269390
 30
0.0
 11
18.161484
 21
126.322078
 31
0.0
 11
18.168293
 21
126.304578
 31
0.0
 11
18.174925
 21
126.287015
 31
0.0
 11
18.181394
 21
126.269390
 31
0.0
  0
LWPOLYLINE
  5
148
100
AcDbEntity
  8
0
 62
1
100
AcDbPolyline
 90
2
 70
0
 10
18.181394
 20
126.269390
 30
0.0
 10
18.902873
 20
124.279215
 30
0.0
  0
SPLINE
  5
149
100
AcDbEntity
  8
0
 62
1
100
AcDbSpline
 70
0
 71
3
 72
10
 73
6
 74
4
 40
0.000000
 40
0.000000
 40
0.000000
 40
0.000000
 40
0.020050
 40
0.040104
 40
0.060158
 40
0.060158
 40
0.060158
 40
0.060158
 10
18.902873
 20
124.279215
 30
0.0
 10
18.905124
 20
124.272922
 30
0.0
 10
18.909627
 20
124.260335
 30
0.0
 10
18.916179
 20
124.241382
 30
0.0
 10
18.920388
 20
124.228692
 30
0.0
 10
18.922493
 20
124.222348
 30
0.0
 11
18.902873
 21
124.279215
 31
0.0
 11
18.909593
 21
124.260325
 31
0.0
 11
18.916140
 21
124.241369
 31
0.0
 11
18.922493
 21
124.222348
 31
0.0
  0
LWPOLYLINE
  5
14a
100
AcDbEntity
  8
0
 62
1
100
AcDbPolyline
 90
2
 70
0
 10
18.922493
 20
124.222348
 30
0.0
 10
19.585285
 20
122.206794
 30
0.0
  0
SPLINE
  5
14b
100
AcDbEntity
  8
0
 62
1
100
AcDbSpline
 70
0
 71
3
 72
10
 73
6
 74
4
 40
0.000000
 40
0.000000
 40
0.000000
 40
0.000000
 40
0.020823
 40
0.041648
 40
0.062473
 40
0.062473
 40
0.062473
 40
0.062473
 10
19.585285
 20
122.206794
 30
0.0
 10
19.587433
 20
122.200194
 30
0.0
 10
19.591729
 20
122.186993
 30
0.0
 10
19.597939
 20
122.167116
 30
0.0
 10
19.601910
 20
122.153812
 30
0.0
 10
19.603895
 20
122.147160
 30
0.0
 11
19.585285
 21
122.206794
 31
0.0
 11
19.591690
 21
122.186981
 31
0.0
 11
19.597897
 21
122.167103
 31
0.0
 11
19.603895
 21
122.147160
 31
0.0
  0
LWPOLYLINE
  5
14c
100
AcDbEntity
  8
0
 62
1
100
AcDbPolyline
 90
2
 70
0
 10
19.603895
 20
122.147160
 30
0.0
 10
20.205521
 20
120.104571
 30
0.0
  0
SPLINE
  5
14d
100
AcDbEntity
  8
0
 62
1
100
AcDbSpline
 70
0
 71
3
 72
10
 73
6
 74
4
 40
0.000000
 40
0.000000
 40
0.000000
 40
0.000000
 40
0.021060
 40
0.042128
 40
0.063195
 40
0.063195
 40
0.063195
 40
0.063195
 10
20.205521
 20
120.104571
 30
0.0
 10
20.207472
 20
120.097827
 30
0.0
 10
20.211375
 20
120.084338
 30
0.0
 10
20.217018
 20
120.064042
 30
0.0
 10
20.220600
 20
120.050461
 30
0.0
 10
20.222391
 20
120.043671
 30
0.0
 11
20.205521
 21
120.104571
 31
0.0
 11
20.211339
 21
120.084330
 31
0.0
 11
20.216973
 21
120.064029
 31
0.0
 11
20.222391
 21
120.043671
 31
0.0
  0
LWPOLYLINE
  5
14e
100
AcDbEntity
  8
0
 62
1
100
AcDbPolyline
 90
2
 70
0
 10
20.222391
 20
120.043671
 30
0.0
 10
20.761843
 20
117.973038
 30
0.0
  0
SPLINE
  5
14f
100
AcDbEntity
  8
0
 62
1
100
AcDbSpline
 70
0
 71
3
 72
10
 73
6
 74
4
 40
0.000000
 40
0.000000
 40
0.000000
 40
0.000000
 40
0.020847
 40
0.041688
 40
0.062529
 40
0.062529
 40
0.062529
 40
0.062529
 10
20.761843
 20
117.973038
 30
0.0
 10
20.763584
 20
117.966311
 30
0.0
 10
20.767067
 20
117.952858
 30
0.0
 10
20.772004
 20
117.932608
 30
0.0
 10
20.775130
 20
117.919070
 30
0.0
 10
20.776693
 20
117.912301
 30
0.0
 11
20.761843
 21
117.973038
 31
0.0
 11
20.767020
 21
117.952844
 31
0.0
 11
20.771963
 21
117.932598
 31
0.0
 11
20.776693
 21
117.912301
 31
0.0
  0
LWPOLYLINE
  5
150
100
AcDbEntity
  8
0
 62
1
100
AcDbPolyline
 90
2
 70
0
 10
20.776693
 20
117.912301
 30
0.0
 10
21.253972
 20
115.813230
 30
0.0
  0
SPLINE
  5
151
100
AcDbEntity
  8
0
 62
1
100
AcDbSpline
 70
0
 71
3
 72
10
 73
6
 74
4
 40
0.000000
 40
0.000000
 40
0.000000
 40
0.000000
 40
0.020203
 40
0.040403
 40
0.060608
 40
0.060608
 40
0.060608
 40
0.060608
 10
21.253972
 20
115.813230
 30
0.0
 10
21.255446
 20
115.806659
 30
0.0
 10
21.258393
 20
115.793517
 30
0.0
 10
21.262535
 20
115.773743
 30
0.0
 10
21.265173
 20
115.760536
 30
0.0
 10
21.266492
 20
115.753931
 30
0.0
 11
21.253972
 21
115.813230
 31
0.0
 11
21.258347
 21
115.793506
 31
0.0
 11
21.262504
 21
115.773739
 31
0.0
 11
21.266492
 21
115.753931
 31
0.0
  0
LWPOLYLINE
  5
152
100
AcDbEntity
  8
0
 62
1
100
AcDbPolyline
 90
2
 70
0
 10
21.266492
 20
115.753931
 30
0.0
 10
21.682895
 20
113.626597
 30
0.0
  0
SPLINE
  5
153
100
AcDbEntity
  8
0
 62
1
100
AcDbSpline
 70
0
 71
3
 72
10
 73
6
 74
4
 40
0.000000
 40
0.000000
 40
0.000000
 40
0.000000
 40
0.019227
 40
0.038455
 40
0.057688
 40
0.057688
 40
0.057688
 40
0.057688
 10
21.682895
 20
113.626597
 30
0.0
 10
21.684109
 20
113.620304
 30
0.0
 10
21.686536
 20
113.607717
 30
0.0
 10
21.689955
 20
113.588793
 30
0.0
 10
21.692115
 20
113.576156
 30
0.0
 10
21.693195
 20
113.569837
 30
0.0
 11
21.682895
 21
113.626597
 31
0.0
 11
21.686499
 21
113.607710
 31
0.0
 11
21.689925
 21
113.588790
 31
0.0
 11
21.693195
 21
113.569837
 31
0.0
  0
LWPOLYLINE
  5
154
100
AcDbEntity
  8
0
 62
1
100
AcDbPolyline
 90
2
 70
0
 10
21.693195
 20
113.569837
 30
0.0
 10
22.050738
 20
111.414943
 30
0.0
  0
SPLINE
  5
155
100
AcDbEntity
  8
0
 62
1
100
AcDbSpline
 70
0
 71
3
 72
10
 73
6
 74
4
 40
0.000000
 40
0.000000
 40
0.000000
 40
0.000000
 40
0.018012
 40
0.036024
 40
0.054037
 40
0.054037
 40
0.054037
 40
0.054037
 10
22.050738
 20
111.414943
 30
0.0
 10
22.051718
 20
111.409019
 30
0.0
 10
22.053679
 20
111.397173
 30
0.0
 10
22.056397
 20
111.379366
 30
0.0
 10
22.058091
 20
111.367477
 30
0.0
 10
22.058938
 20
111.361533
 30
0.0
 11
22.050738
 21
111.414943
 31
0.0
 11
22.053642
 21
111.397167
 31
0.0
 11
22.056368
 21
111.379362
 31
0.0
 11
22.058938
 21
111.361533
 31
0.0
  0
LWPOLYLINE
  5
156
100
AcDbEntity
  8
0
 62
1
100
AcDbPolyline
 90
2
 70
0
 10
22.058938
 20
111.361533
 30
0.0
 10
22.360612
 20
109.180378
 30
0.0
  0
SPLINE
  5
157
100
AcDbEntity
  8
0
 62
1
100
AcDbSpline
 70
0
 71
3
 72
10
 73
6
 74
4
 40
0.000000
 40
0.000000
 40
0.000000
 40
0.000000
 40
0.016548
 40
0.033091
 40
0.049630
 40
0.049630
 40
0.049630
 40
0.049630
 10
22.360612
 20
109.180378
 30
0.0
 10
22.361365
 20
109.174913
 30
0.0
 10
22.362871
 20
109.163986
 30
0.0
 10
22.364953
 20
109.147574
 30
0.0
 10
22.366192
 20
109.136616
 30
0.0
 10
22.366812
 20
109.131138
 30
0.0
 11
22.360612
 21
109.180378
 31
0.0
 11
22.362842
 21
109.163981
 31
0.0
 11
22.364916
 21
109.147568
 31
0.0
 11
22.366812
 21
109.131138
 31
0.0
  0
LWPOLYLINE
  5
158
100
AcDbEntity
  8
0
 62
1
100
AcDbPolyline
 90
2
 70
0
 10
22.366812
 20
109.131138
 30
0.0
 10
22.616252
 20
106.925256
 30
0.0
  0
SPLINE
  5
159
100
AcDbEntity
  8
0
 62
1
100
AcDbSpline
 70
0
 71
3
 72
10
 73
6
 74
4
 40
0.000000
 40
0.000000
 40
0.000000
 40
0.000000
 40
0.014986
 40
0.029971
 40
0.044957
 40
0.044957
 40
0.044957
 40
0.044957
 10
22.616252
 20
106.925256
 30
0.0
 10
22.616806
 20
106.920291
 30
0.0
 10
22.617913
 20
106.910362
 30
0.0
 10
22.619431
 20
106.895454
 30
0.0
 10
22.620378
 20
106.885508
 30
0.0
 10
22.620852
 20
106.880536
 30
0.0
 11
22.616252
 21
106.925256
 31
0.0
 11
22.617889
 21
106.910360
 31
0.0
 11
22.619415
 21
106.895452
 31
0.0
 11
22.620852
 21
106.880536
 31
0.0
  0
LWPOLYLINE
  5
15a
100
AcDbEntity
  8
0
 62
1
100
AcDbPolyline
 90
2
 70
0
 10
22.620852
 20
106.880536
 30
0.0
 10
22.822221
 20
104.652115
 30
0.0
  0
SPLINE
  5
15b
100
AcDbEntity
  8
0
 62
1
100
AcDbSpline
 70
0
 71
3
 72
10
 73
6
 74
4
 40
0.000000
 40
0.000000
 40
0.000000
 40
0.000000
 40
0.013371
 40
0.026740
 40
0.040109
 40
0.040109
 40
0.040109
 40
0.040109
 10
22.822221
 20
104.652115
 30
0.0
 10
22.822614
 20
104.647675
 30
0.0
 10
22.823400
 20
104.638796
 30
0.0
 10
22.824482
 20
104.625471
 30
0.0
 10
22.825108
 20
104.616580
 30
0.0
 10
22.825421
 20
104.612135
 30
0.0
 11
22.822221
 21
104.652115
 31
0.0
 11
22.823384
 21
104.638794
 31
0.0
 11
22.824458
 21
104.625469
 31
0.0
 11
22.825421
 21
104.612135
 31
0.0
  0
LWPOLYLINE
  5
15c
100
AcDbEntity
  8
0
 62
1
100
AcDbPolyline
 90
2
 70
0
 10
22.825421
 20
104.612135
 30
0.0
 10
22.983168
 20
102.363604
 30
0.0
  0
SPLINE
  5
15d
100
AcDbEntity
  8
0
 62
1
100
AcDbSpline
 70
0
 71
3
 72
10
 73
6
 74
4
 40
0.000000
 40
0.000000
 40
0.000000
 40
0.000000
 40
0.011779
 40
0.023558
 40
0.035339
 40
0.035339
 40
0.035339
 40
0.035339
 10
22.983168
 20
102.363604
 30
0.0
 10
22.983433
 20
102.359686
 30
0.0
 10
22.983962
 20
102.351852
 30
0.0
 10
22.984671
 20
102.340093
 30
0.0
 10
22.985136
 20
102.332254
 30
0.0
 10
22.985368
 20
102.328334
 30
0.0
 11
22.983168
 21
102.363604
 31
0.0
 11
22.983948
 21
102.351851
 31
0.0
 11
22.984669
 21
102.340093
 31
0.0
 11
22.985368
 21
102.328334
 31
0.0
  0
LWPOLYLINE
  5
15e
100
AcDbEntity
  8
0
 62
1
100
AcDbPolyline
 90
2
 70
0
 10
22.985368
 20
102.328334
 30
0.0
 10
23.104151
 20
100.062374
 30
0.0
  0
SPLINE
  5
15f
100
AcDbEntity
  8
0
 62
1
100
AcDbSpline
 70
0
 71
3
 72
10
 73
6
 74
4
 40
0.000000
 40
0.000000
 40
0.000000
 40
0.000000
 40
0.010293
 40
0.020584
 40
0.030872
 40
0.030872
 40
0.030872
 40
0.030872
 10
23.104151
 20
100.062374
 30
0.0
 10
23.104328
 20
100.058947
 30
0.0
 10
23.104682
 20
100.052095
 30
0.0
 10
23.105141
 20
100.041815
 30
0.0
 10
23.105414
 20
100.034961
 30
0.0
 10
23.105551
 20
100.031534
 30
0.0
 11
23.104151
 21
100.062374
 31
0.0
 11
23.104670
 21
100.052094
 31
0.0
 11
23.105133
 21
100.041814
 31
0.0
 11
23.105551
 21
100.031534
 31
0.0
  0
LWPOLYLINE
  5
160
100
AcDbEntity
  8
0
 62
1
100
AcDbPolyline
 90
2
 70
0
 10
23.105551
 20
100.031534
 30
0.0
 10
23.189831
 20
97.751021
 30
0.0
  0
SPLINE
  5
161
100
AcDbEntity
  8
0
 62
1
100
AcDbSpline
 70
0
 71
3
 72
10
 73
6
 74
4
 40
0.000000
 40
0.000000
 40
0.000000
 40
0.000000
 40
0.008903
 40
0.017802
 40
0.026703
 40
0.026703
 40
0.026703
 40
0.026703
 10
23.189831
 20
97.751021
 30
0.0
 10
23.189938
 20
97.748055
 30
0.0
 10
23.190153
 20
97.742125
 30
0.0
 10
23.190427
 20
97.733228
 30
0.0
 10
23.190578
 20
97.727297
 30
0.0
 10
23.190654
 20
97.724331
 30
0.0
 11
23.189831
 21
97.751021
 31
0.0
 11
23.190145
 21
97.742123
 31
0.0
 11
23.190419
 21
97.733228
 31
0.0
 11
23.190654
 21
97.724331
 31
0.0
  0
LWPOLYLINE
  5
162
100
AcDbEntity
  8
0
 62
1
100
AcDbPolyline
 90
2
 70
0
 10
23.190654
 20
97.724331
 30
0.0
 10
23.244754
 20
95.432010
 30
0.0
  0
SPLINE
  5
163
100
AcDbEntity
  8
0
 62
1
100
AcDbSpline
 70
0
 71
3
 72
10
 73
6
 74
4
 40
0.000000
 40
0.000000
 40
0.000000
 40
0.000000
 40
0.011095
 40
0.022191
 40
0.033284
 40
0.033284
 40
0.033284
 40
0.033284
 10
23.244754
 20
95.432010
 30
0.0
 10
23.244834
 20
95.428312
 30
0.0
 10
23.244994
 20
95.420917
 30
0.0
 10
23.245160
 20
95.409824
 30
0.0
 10
23.245222
 20
95.402427
 30
0.0
 10
23.245253
 20
95.398730
 30
0.0
 11
23.244754
 21
95.432010
 31
0.0
 11
23.244982
 21
95.420917
 31
0.0
 11
23.245148
 21
95.409822
 31
0.0
 11
23.245253
 21
95.398730
 31
0.0
  0
LWPOLYLINE
  5
164
100
AcDbEntity
  8
0
 62
1
100
AcDbPolyline
 90
2
 70
0
 10
23.245253
 20
95.398730
 30
0.0
 10
23.277263
 20
90.789956
 30
0.0
  0
SPLINE
  5
165
100
AcDbEntity
  8
0
 62
1
100
AcDbSpline
 70
0
 71
3
 72
10
 73
6
 74
4
 40
0.000000
 40
0.000000
 40
0.000000
 40
0.000000
 40
0.012210
 40
0.024420
 40
0.036631
 40
0.036631
 40
0.036631
 40
0.036631
 10
23.277263
 20
90.789956
 30
0.0
 10
23.277281
 20
90.785886
 30
0.0
 10
23.277318
 20
90.777746
 30
0.0
 10
23.277283
 20
90.765536
 30
0.0
 10
23.277200
 20
90.757396
 30
0.0
 10
23.277158
 20
90.753326
 30
0.0
 11
23.277263
 21
90.789956
 31
0.0
 11
23.277303
 21
90.777746
 31
0.0
 11
23.277268
 21
90.765536
 31
0.0
 11
23.277158
 21
90.753326
 31
0.0
  0
LWPOLYLINE
  5
166
100
AcDbEntity
  8
0
 62
1
100
AcDbPolyline
 90
2
 70
0
 10
23.277158
 20
90.753326
 30
0.0
 10
23.224678
 20
86.129716
 30
0.0
  0
SPLINE
  5
167
100
AcDbEntity
  8
0
 62
1
100
AcDbSpline
 70
0
 71
3
 72
10
 73
6
 74
4
 40
0.000000
 40
0.000000
 40
0.000000
 40
0.000000
 40
0.010399
 40
0.020796
 40
0.031196
 40
0.031196
 40
0.031196
 40
0.031196
 10
23.224678
 20
86.129716
 30
0.0
 10
23.224631
 20
86.126250
 30
0.0
 10
23.224536
 20
86.119319
 30
0.0
 10
23.224329
 20
86.108922
 30
0.0
 10
23.224148
 20
86.101992
 30
0.0
 10
23.224057
 20
86.098526
 30
0.0
 11
23.224678
 21
86.129716
 31
0.0
 11
23.224525
 21
86.119318
 31
0.0
 11
23.224318
 21
86.108923
 31
0.0
 11
23.224057
 21
86.098526
 31
0.0
  0
LWPOLYLINE
  5
168
100
AcDbEntity
  8
0
 62
1
100
AcDbPolyline
 90
2
 70
0
 10
23.224057
 20
86.098526
 30
0.0
 10
23.099436
 20
81.478896
 30
0.0
  0
SPLINE
  5
169
100
AcDbEntity
  8
0
 62
1
100
AcDbSpline
 70
0
 71
3
 72
10
 73
6
 74
4
 40
0.000000
 40
0.000000
 40
0.000000
 40
0.000000
 40
0.009681
 40
0.019335
 40
0.028987
 40
0.028987
 40
0.028987
 40
0.028987
 10
23.099436
 20
81.478896
 30
0.0
 10
23.099346
 20
81.475670
 30
0.0
 10
23.099166
 20
81.469227
 30
0.0
 10
23.098839
 20
81.459570
 30
0.0
 10
23.098584
 20
81.453140
 30
0.0
 10
23.098457
 20
81.449926
 30
0.0
 11
23.099436
 21
81.478896
 31
0.0
 11
23.099156
 21
81.469218
 31
0.0
 11
23.098830
 21
81.459570
 31
0.0
 11
23.098457
 21
81.449926
 31
0.0
  0
LWPOLYLINE
  5
16a
100
AcDbEntity
  8
0
 62
1
100
AcDbPolyline
 90
2
 70
0
 10
23.098457
 20
81.449926
 30
0.0
 10
22.907667
 20
76.852138
 30
0.0
  0
SPLINE
  5
16b
100
AcDbEntity
  8
0
 62
1
100
AcDbSpline
 70
0
 71
3
 72
10
 73
6
 74
4
 40
0.000000
 40
0.000000
 40
0.000000
 40
0.000000
 40
0.009495
 40
0.018972
 40
0.028445
 40
0.028445
 40
0.028445
 40
0.028445
 10
22.907667
 20
76.852138
 30
0.0
 10
22.907529
 20
76.848976
 30
0.0
 10
22.907252
 20
76.842658
 30
0.0
 10
22.906783
 20
76.833188
 30
0.0
 10
22.906439
 20
76.826881
 30
0.0
 10
22.906267
 20
76.823728
 30
0.0
 11
22.907667
 21
76.852138
 31
0.0
 11
22.907242
 21
76.842652
 31
0.0
 11
22.906775
 21
76.833187
 31
0.0
 11
22.906267
 21
76.823728
 31
0.0
  0
LWPOLYLINE
  5
16c
100
AcDbEntity
  8
0
 62
1
100
AcDbPolyline
 90
2
 70
0
 10
22.906267
 20
76.823728
 30
0.0
 10
22.652157
 20
72.265046
 30
0.0
  0
SPLINE
  5
16d
100
AcDbEntity
  8
0
 62
1
100
AcDbSpline
 70
0
 71
3
 72
10
 73
6
 74
4
 40
0.000000
 40
0.000000
 40
0.000000
 40
0.000000
 40
0.009701
 40
0.019388
 40
0.029076
 40
0.029076
 40
0.029076
 40
0.029076
 10
22.652157
 20
72.265046
 30
0.0
 10
22.651978
 20
72.261817
 30
0.0
 10
22.651621
 20
72.255364
 30
0.0
 10
22.651032
 20
72.245690
 30
0.0
 10
22.650582
 20
72.239247
 30
0.0
 10
22.650357
 20
72.236026
 30
0.0
 11
22.652157
 21
72.265046
 31
0.0
 11
22.651612
 21
72.255360
 31
0.0
 11
22.651018
 21
72.245692
 31
0.0
 11
22.650357
 21
72.236026
 31
0.0
  0
LWPOLYLINE
  5
16e
100
AcDbEntity
  8
0
 62
1
100
AcDbPolyline
 90
2
 70
0
 10
22.650357
 20
72.236026
 30
0.0
 10
22.333649
 20
67.733370
 30
0.0
  0
SPLINE
  5
16f
100
AcDbEntity
  8
0
 62
1
100
AcDbSpline
 70
0
 71
3
 72
10
 73
6
 74
4
 40
0.000000
 40
0.000000
 40
0.000000
 40
0.000000
 40
0.010313
 40
0.020624
 40
0.030934
 40
0.030934
 40
0.030934
 40
0.030934
 10
22.333649
 20
67.733370
 30
0.0
 10
22.333405
 20
67.729941
 30
0.0
 10
22.332918
 20
67.723083
 30
0.0
 10
22.332126
 20
67.712802
 30
0.0
 10
22.331541
 20
67.705954
 30
0.0
 10
22.331249
 20
67.702530
 30
0.0
 11
22.333649
 21
67.733370
 31
0.0
 11
22.332908
 21
67.723083
 31
0.0
 11
22.332112
 21
67.712803
 31
0.0
 11
22.331249
 21
67.702530
 31
0.0
  0
LWPOLYLINE
  5
170
100
AcDbEntity
  8
0
 62
1
100
AcDbPolyline
 90
2
 70
0
 10
22.331249
 20
67.702530
 30
0.0
 10
21.950678
 20
63.271823
 30
0.0
  0
SPLINE
  5
171
100
AcDbEntity
  8
0
 62
1
100
AcDbSpline
 70
0
 71
3
 72
10
 73
6
 74
4
 40
0.000000
 40
0.000000
 40
0.000000
 40
0.000000
 40
0.008413
 40
0.016804
 40
0.025195
 40
0.025195
 40
0.025195
 40
0.025195
 10
21.950678
 20
63.271823
 30
0.0
 10
21.950433
 20
63.269029
 30
0.0
 10
21.949945
 20
63.263449
 30
0.0
 10
21.949173
 20
63.255086
 30
0.0
 10
21.948643
 20
63.249517
 30
0.0
 10
21.948378
 20
63.246733
 30
0.0
 11
21.950678
 21
63.271823
 31
0.0
 11
21.949938
 21
63.263442
 31
0.0
 11
21.949169
 21
63.255087
 31
0.0
 11
21.948378
 21
63.246733
 31
0.0
  0
LWPOLYLINE
  5
172
100
AcDbEntity
  8
0
 62
1
100
AcDbPolyline
 90
2
 70
0
 10
21.948378
 20
63.246733
 30
0.0
 10
21.733054
 20
61.062936
 30
0.0
  0
SPLINE
  5
173
100
AcDbEntity
  8
0
 62
1
100
AcDbSpline
 70
0
 71
3
 72
10
 73
6
 74
4
 40
0.000000
 40
0.000000
 40
0.000000
 40
0.000000
 40
0.006049
 40
0.012123
 40
0.018200
 40
0.018200
 40
0.018200
 40
0.018200
 10
21.733054
 20
61.062936
 30
0.0
 10
21.732854
 20
61.060929
 30
0.0
 10
21.732453
 20
61.056908
 30
0.0
 10
21.731835
 20
61.050873
 30
0.0
 10
21.731381
 20
61.046849
 30
0.0
 10
21.731154
 20
61.044836
 30
0.0
 11
21.733054
 21
61.062936
 31
0.0
 11
21.732451
 21
61.056917
 31
0.0
 11
21.731825
 21
61.050875
 31
0.0
 11
21.731154
 21
61.044836
 31
0.0
  0
LWPOLYLINE
  5
174
100
AcDbEntity
  8
0
 62
1
100
AcDbPolyline
 90
2
 70
0
 10
21.731154
 20
61.044836
 30
0.0
 10
21.498221
 20
58.884307
 30
0.0
  0
SPLINE
  5
175
100
AcDbEntity
  8
0
 62
1
100
AcDbSpline
 70
0
 71
3
 72
10
 73
6
 74
4
 40
0.000000
 40
0.000000
 40
0.000000
 40
0.000000
 40
0.006515
 40
0.013005
 40
0.019495
 40
0.019495
 40
0.019495
 40
0.019495
 10
21.498221
 20
58.884307
 30
0.0
 10
21.497990
 20
58.882147
 30
0.0
 10
21.497528
 20
58.877837
 30
0.0
 10
21.496803
 20
58.871380
 30
0.0
 10
21.496282
 20
58.867084
 30
0.0
 10
21.496021
 20
58.864937
 30
0.0
 11
21.498221
 21
58.884307
 31
0.0
 11
21.497521
 21
58.877829
 31
0.0
 11
21.496793
 21
58.871381
 31
0.0
 11
21.496021
 21
58.864937
 31
0.0
  0
LWPOLYLINE
  5
176
100
AcDbEntity
  8
0
 62
1
100
AcDbPolyline
 90
2
 70
0
 10
21.496021
 20
58.864937
 30
0.0
 10
21.244653
 20
56.729236
 30
0.0
  0
SPLINE
  5
177
100
AcDbEntity
  8
0
 62
1
100
AcDbSpline
 70
0
 71
3
 72
10
 73
6
 74
4
 40
0.000000
 40
0.000000
 40
0.000000
 40
0.000000
 40
0.006950
 40
0.013901
 40
0.020850
 40
0.020850
 40
0.020850
 40
0.020850
 10
21.244653
 20
56.729236
 30
0.0
 10
21.244378
 20
56.726936
 30
0.0
 10
21.243829
 20
56.722334
 30
0.0
 10
21.242970
 20
56.715438
 30
0.0
 10
21.242425
 20
56.710836
 30
0.0
 10
21.242153
 20
56.708536
 30
0.0
 11
21.244653
 21
56.729236
 31
0.0
 11
21.243824
 21
56.722336
 31
0.0
 11
21.242977
 21
56.715436
 31
0.0
 11
21.242153
 21
56.708536
 31
0.0
  0
LWPOLYLINE
  5
178
100
AcDbEntity
  8
0
 62
1
100
AcDbPolyline
 90
2
 70
0
 10
21.242153
 20
56.708536
 30
0.0
 10
20.971499
 20
54.598989
 30
0.0
  0
SPLINE
  5
179
100
AcDbEntity
  8
0
 62
1
100
AcDbSpline
 70
0
 71
3
 72
10
 73
6
 74
4
 40
0.000000
 40
0.000000
 40
0.000000
 40
0.000000
 40
0.007452
 40
0.014895
 40
0.022339
 40
0.022339
 40
0.022339
 40
0.022339
 10
20.971499
 20
54.598989
 30
0.0
 10
20.971184
 20
54.596525
 30
0.0
 10
20.970555
 20
54.591600
 30
0.0
 10
20.969591
 20
54.584216
 30
0.0
 10
20.968930
 20
54.579298
 30
0.0
 10
20.968599
 20
54.576839
 30
0.0
 11
20.971499
 21
54.598989
 31
0.0
 11
20.970551
 21
54.591597
 31
0.0
 11
20.969586
 21
54.584217
 31
0.0
 11
20.968599
 21
54.576839
 31
0.0
  0
LWPOLYLINE
  5
17a
100
AcDbEntity
  8
0
 62
1
100
AcDbPolyline
 90
2
 70
0
 10
20.968599
 20
54.576839
 30
0.0
 10
20.677763
 20
52.494800
 30
0.0
  0
SPLINE
  5
17b
100
AcDbEntity
  8
0
 62
1
100
AcDbSpline
 70
0
 71
3
 72
10
 73
6
 74
4
 40
0.000000
 40
0.000000
 40
0.000000
 40
0.000000
 40
0.007974
 40
0.015947
 40
0.023918
 40
0.023918
 40
0.023918
 40
0.023918
 10
20.677763
 20
52.494800
 30
0.0
 10
20.677390
 20
52.492168
 30
0.0
 10
20.676644
 20
52.486905
 30
0.0
 10
20.675462
 20
52.479020
 30
0.0
 10
20.674663
 20
52.473767
 30
0.0
 10
20.674263
 20
52.471140
 30
0.0
 11
20.677763
 21
52.494800
 31
0.0
 11
20.676633
 21
52.486906
 31
0.0
 11
20.675459
 21
52.479021
 31
0.0
 11
20.674263
 21
52.471140
 31
0.0
  0
LWPOLYLINE
  5
17c
100
AcDbEntity
  8
0
 62
1
100
AcDbPolyline
 90
2
 70
0
 10
20.674263
 20
52.471140
 30
0.0
 10
20.362414
 20
50.417772
 30
0.0
  0
SPLINE
  5
17d
100
AcDbEntity
  8
0
 62
1
100
AcDbSpline
 70
0
 71
3
 72
10
 73
6
 74
4
 40
0.000000
 40
0.000000
 40
0.000000
 40
0.000000
 40
0.008489
 40
0.016967
 40
0.025446
 40
0.025446
 40
0.025446
 40
0.025446
 10
20.362414
 20
50.417772
 30
0.0
 10
20.361981
 20
50.414975
 30
0.0
 10
20.361114
 20
50.409387
 30
0.0
 10
20.359794
 20
50.401008
 30
0.0
 10
20.358874
 20
50.395431
 30
0.0
 10
20.358414
 20
50.392642
 30
0.0
 11
20.362414
 21
50.417772
 31
0.0
 11
20.361110
 21
50.409383
 31
0.0
 11
20.359784
 21
50.401010
 31
0.0
 11
20.358414
 21
50.392642
 31
0.0
  0
LWPOLYLINE
  5
17e
100
AcDbEntity
  8
0
 62
1
100
AcDbPolyline
 90
2
 70
0
 10
20.358414
 20
50.392642
 30
0.0
 10
20.024647
 20
48.368964
 30
0.0
  0
SPLINE
  5
17f
100
AcDbEntity
  8
0
 62
1
100
AcDbSpline
 70
0
 71
3
 72
10
 73
6
 74
4
 40
0.000000
 40
0.000000
 40
0.000000
 40
0.000000
 40
0.008995
 40
0.017950
 40
0.026899
 40
0.026899
 40
0.026899
 40
0.026899
 10
20.024647
 20
48.368964
 30
0.0
 10
20.024148
 20
48.366007
 30
0.0
 10
20.023151
 20
48.360108
 30
0.0
 10
20.021647
 20
48.351268
 30
0.0
 10
20.020647
 20
48.345385
 30
0.0
 10
20.020147
 20
48.342444
 30
0.0
 11
20.024647
 21
48.368964
 31
0.0
 11
20.023147
 21
48.360095
 31
0.0
 11
20.021647
 21
48.351266
 31
0.0
 11
20.020147
 21
48.342444
 31
0.0
  0
LWPOLYLINE
  5
180
100
AcDbEntity
  8
0
 62
1
100
AcDbPolyline
 90
2
 70
0
 10
20.020147
 20
48.342444
 30
0.0
 10
19.663776
 20
46.349319
 30
0.0
  0
SPLINE
  5
181
100
AcDbEntity
  8
0
 62
1
100
AcDbSpline
 70
0
 71
3
 72
10
 73
6
 74
4
 40
0.000000
 40
0.000000
 40
0.000000
 40
0.000000
 40
0.009471
 40
0.018963
 40
0.028459
 40
0.028459
 40
0.028459
 40
0.028459
 10
19.663776
 20
46.349319
 30
0.0
 10
19.663209
 20
46.346213
 30
0.0
 10
19.662073
 20
46.339995
 30
0.0
 10
19.660357
 20
46.330665
 30
0.0
 10
19.659170
 20
46.324448
 30
0.0
 10
19.658576
 20
46.321339
 30
0.0
 11
19.663776
 21
46.349319
 31
0.0
 11
19.662072
 21
46.340003
 31
0.0
 11
19.660346
 21
46.330668
 31
0.0
 11
19.658576
 21
46.321339
 31
0.0
  0
LWPOLYLINE
  5
182
100
AcDbEntity
  8
0
 62
1
100
AcDbPolyline
 90
2
 70
0
 10
19.658576
 20
46.321339
 30
0.0
 10
19.279026
 20
44.359667
 30
0.0
  0
SPLINE
  5
183
100
AcDbEntity
  8
0
 62
1
100
AcDbSpline
 70
0
 71
3
 72
10
 73
6
 74
4
 40
0.000000
 40
0.000000
 40
0.000000
 40
0.000000
 40
0.009955
 40
0.019878
 40
0.029800
 40
0.029800
 40
0.029800
 40
0.029800
 10
19.279026
 20
44.359667
 30
0.0
 10
19.278393
 20
44.356409
 30
0.0
 10
19.277129
 20
44.349905
 30
0.0
 10
19.275206
 20
44.340160
 30
0.0
 10
19.273886
 20
44.333678
 30
0.0
 10
19.273226
 20
44.330437
 30
0.0
 11
19.279026
 21
44.359667
 31
0.0
 11
19.277122
 21
44.349895
 31
0.0
 11
19.275196
 21
44.340162
 31
0.0
 11
19.273226
 21
44.330437
 31
0.0
  0
LWPOLYLINE
  5
184
100
AcDbEntity
  8
0
 62
1
100
AcDbPolyline
 90
2
 70
0
 10
19.273226
 20
44.330437
 30
0.0
 10
18.869851
 20
42.400734
 30
0.0
  0
SPLINE
  5
185
100
AcDbEntity
  8
0
 62
1
100
AcDbSpline
 70
0
 71
3
 72
10
 73
6
 74
4
 40
0.000000
 40
0.000000
 40
0.000000
 40
0.000000
 40
0.010366
 40
0.020734
 40
0.031109
 40
0.031109
 40
0.031109
 40
0.031109
 10
18.869851
 20
42.400734
 30
0.0
 10
18.869144
 20
42.397352
 30
0.0
 10
18.867731
 20
42.390586
 30
0.0
 10
18.865530
 20
42.380453
 30
0.0
 10
18.864011
 20
42.373707
 30
0.0
 10
18.863251
 20
42.370334
 30
0.0
 11
18.869851
 21
42.400734
 31
0.0
 11
18.867718
 21
42.390590
 31
0.0
 11
18.865518
 21
42.380458
 31
0.0
 11
18.863251
 21
42.370334
 31
0.0
  0
LWPOLYLINE
  5
186
100
AcDbEntity
  8
0
 62
1
100
AcDbPolyline
 90
2
 70
0
 10
18.863251
 20
42.370334
 30
0.0
 10
18.435770
 20
40.473079
 30
0.0
  0
SPLINE
  5
187
100
AcDbEntity
  8
0
 62
1
100
AcDbSpline
 70
0
 71
3
 72
10
 73
6
 74
4
 40
0.000000
 40
0.000000
 40
0.000000
 40
0.000000
 40
0.010797
 40
0.021588
 40
0.032374
 40
0.032374
 40
0.032374
 40
0.032374
 10
18.435770
 20
40.473079
 30
0.0
 10
18.434970
 20
40.469570
 30
0.0
 10
18.433370
 20
40.462554
 30
0.0
 10
18.430951
 20
40.452037
 30
0.0
 10
18.429297
 20
40.445038
 30
0.0
 10
18.428470
 20
40.441539
 30
0.0
 11
18.435770
 21
40.473079
 31
0.0
 11
18.433366
 21
40.462553
 31
0.0
 11
18.430940
 21
40.452038
 31
0.0
 11
18.428470
 21
40.441539
 31
0.0
  0
LWPOLYLINE
  5
188
100
AcDbEntity
  8
0
 62
1
100
AcDbPolyline
 90
3
 70
0
 10
18.428470
 20
40.441539
 30
0.0
 10
17.981296
 20
38.596916
 30
0.0
 10
17.599071
 20
36.868429
 30
0.0
  0
ENDSEC
  0
SECTION
  2
OBJECTS
  0
DICTIONARY
  5
C
330
0
100
AcDbDictionary
  3
ACAD_GROUP
350
D
  3
ACAD_MLINESTYLE
350
17
  0
DICTIONARY
  5
D
330
C
100
AcDbDictionary
  0
DICTIONARY
  5
1A
330
C
100
AcDbDictionary
  0
DICTIONARY
  5
17
330
C
100
AcDbDictionary
  3
STANDARD
350
18
  0
DICTIONARY
  5
19
330
C
100
AcDbDictionary
  0
ENDSEC
  0
EOF
