<?xml version="1.0"?>
<!DOCTYPE svg PUBLIC "-//W3C//DTD SVG 1.1//EN" "http://www.w3.org/Graphics/SVG/1.1/DTD/svg11.dtd">
<svg width="85.2092145237mm" height="223.66629834mm" viewBox="0 0 85.2092145237 223.66629834" xmlns="http://www.w3.org/2000/svg" version="1.1">
<g id="Offset2D" transform="translate(42.604600,111.835312) scale(1,-1)">
<path id="Offset2D_w0000"  d="M -26.446407735 -76.6962151786 L -26.8077073174 -78.2570985195 L -27.0739863555 -79.809721491 L -27.2504196666 -81.3751028909 L -27.3364213243 -82.9480486907 L -27.3317039256 -84.523338013 L -27.2362855305 -86.0957345124 L -27.0504807231 -87.6600380975 L -26.7749080214 -89.2110404153 L -26.4104803036 -90.7436004544 L -25.9584094038 -92.2526322191 L -25.4201921191 -93.7331248273 L -24.7976163697 -95.1801752904 L -24.0927475063 -96.5889727919 L -23.307926904 -97.9548454559 L -22.4457560718 -99.2732590741 L -21.5090984213 -100.539843514 L -20.5010621705 -101.750382398 L -19.4249912837 -102.900870261 L -18.2844564146 -103.987481401 L -17.0832417079 -105.006621335 L -15.8253395878 -105.954895051 L -14.5149173045 -106.829160229 L -13.1563251229 -107.626522485 L -11.7540760774 -108.344326048 L -10.312819314 -108.980192728 L -8.83733627844 -109.532011681 L -7.33252853819 -109.997958052 L -5.80338921713 -110.376470349 L -4.25498565658 -110.666306126 L -2.69246196588 -110.866502064 L -1.12100919872 -110.976392442 L 0.454168015876 -110.995601974 L 2.02783804338 -110.92408697 L 3.59477791359 -110.762064459 L 5.14978859214 -110.510091298 L 6.68770560472 -110.168985598 L 8.20343400681 -109.739888018 L 9.69194032024 -109.224223996 L 11.1482801704 -108.623709507 L 12.5676207951 -107.940326562 L 13.9452569198 -107.176343416 L 15.2766178624 -106.334298122 L 16.5572815294 -105.416992001 L 17.782996045 -104.427463666 L 18.9496976223 -103.368994632 L 20.0535121703 -102.245100866 L 21.0907795883 -101.059505672 L 22.058057756 -99.8161498057 L 22.9521319302 -98.519167631 L 23.770038248 -97.1728463616 L 24.5090629821 -95.7816592949 L 25.1667521366 -94.3502319144 L 25.7409243895 -92.883299205 L 26.2296753067 -91.3857441767 L 26.6313790053 -89.8625298081 L 26.9447053938 -88.3187091719 L 27.1686128731 -86.7594102103 L 27.302361698 -85.1898057045 L 27.3455035596 -83.6151024419 L 27.2978992241 -82.0405286522 L 27.1572755324 -80.4437294303 L 26.9743104864 -78.7649166018 A 1.5 1.5 0 0 0 26.9718 -78.7404L 26.8172062715 -77.0662463006 A 1.5 1.5 0 0 0 26.8151 -77.0413L 26.6900967214 -75.3864149275 A 1.5 1.5 0 0 0 26.6884 -75.3613L 26.5923871515 -73.7242799169 A 1.5 1.5 0 0 0 26.5911 -73.6992L 26.5232626951 -72.0782717924 A 1.5 1.5 0 0 0 26.5224 -72.0535L 26.4817017365 -70.4464351855 A 1.5 1.5 0 0 0 26.4813 -70.4223L 26.4664894013 -68.8264669221 A 1.5 1.5 0 0 0 26.4665 -68.8033L 26.4762438841 -67.2157178837 A 1.5 1.5 0 0 0 26.4768 -67.1836L 26.5641029846 -64.0202570928 A 1.5 1.5 0 0 0 26.5656 -63.9828L 26.7324655702 -60.8123502068 A 1.5 1.5 0 0 0 26.7343 -60.7824L 26.9674898739 -57.5771858937 A 1.5 1.5 0 0 0 26.9693 -57.5548L 27.2559454275 -54.2895087493 A 1.5 1.5 0 0 0 27.2571 -54.2773L 27.4167492863 -52.6150242528 A 1.5 1.5 0 0 0 27.4173 -52.609L 27.5860701497 -50.9237953358 A 1.5 1.5 0 0 0 27.5865 -50.9193L 27.7630209208 -49.208886017 A 1.5 1.5 0 0 0 27.7634 -49.2057L 27.9463859538 -47.4682479919 A 1.5 1.5 0 0 0 27.9466 -47.4663L 28.1350476244 -45.7000835161 A 1.5 1.5 0 0 0 28.1352 -45.6991L 28.3280286117 -43.9029702637 A 1.5 1.5 0 0 0 28.3281 -43.9027L 28.5245673495 -42.0760582134 L 28.7241931797 -40.2190568034 L 28.9267894358 -38.332641776 A 1.5 1.5 0 0 0 28.9268 -38.3324L 29.1326305051 -36.4188024716 A 1.5 1.5 0 0 0 29.1329 -36.4166L 29.5575160419 -32.5234661445 A 1.5 1.5 0 0 0 29.5584 -32.5154L 30.0101733452 -28.5717880926 A 1.5 1.5 0 0 0 30.0121 -28.5558L 30.5062529543 -24.6167342169 A 1.5 1.5 0 0 0 30.5086 -24.599L 30.7767274416 -22.6497399714 A 1.5 1.5 0 0 0 30.7789 -22.6348L 31.0636548115 -20.7085883475 A 1.5 1.5 0 0 0 31.0663 -20.6912L 31.3694529143 -18.7947869702 A 1.5 1.5 0 0 0 31.3727 -18.7751L 31.6955697673 -16.9142853493 A 1.5 1.5 0 0 0 31.6995 -16.8925L 32.0430502679 -15.0721277124 A 1.5 1.5 0 0 0 32.0477 -15.0486L 32.4124312589 -13.2722716863 A 1.5 1.5 0 0 0 32.4177 -13.2474L 32.8036250283 -11.5173929238 A 1.5 1.5 0 0 0 32.8095 -11.492L 33.2158442595 -9.80870452008 A 1.5 1.5 0 0 0 33.2222 -9.78351L 33.6475837082 -8.14592707327 A 1.5 1.5 0 0 0 33.6541 -8.12182L 34.096729766 -6.52737744818 A 1.5 1.5 0 0 0 34.1031 -6.50522L 34.5606460991 -4.95016296007 A 1.5 1.5 0 0 0 34.5665 -4.93077L 35.0362834943 -3.41036072956 A 1.5 1.5 0 0 0 35.0432 -3.38858L 36.0072531534 -0.429134170962 A 1.5 1.5 0 0 0 36.012 -0.414804L 36.9858082876 2.47547391767 L 37.939669966 5.34583258653 L 38.3973499124 6.7827614932 L 38.8392447493 8.2362579154 L 39.2613740262 9.712359112 L 39.6604925889 11.2193632785 L 40.033472531 12.7656155274 L 40.3772807339 14.3593378088 L 40.6890114646 16.0084674468 L 40.9658973149 17.7204716201 L 41.2053455824 19.5021883968 L 41.4049965588 21.3596751314 L 41.562760132 23.2980987875 L 41.6771255709 25.3259794455 L 41.7171960287 26.3661713211 L 41.74605059 27.4332380833 L 41.7634137071 28.5228883069 L 41.7692296535 29.6390499479 L 41.7691078386 31.6614332967 L 41.7682537363 33.5940857211 L 41.7659744423 35.4374323319 L 41.7616045548 37.1957081625 L 41.7545181068 38.8730068336 L 41.7441250881 40.4732805436 L 41.7298603503 42.0003452486 L 41.7111991781 43.4578926186 L 41.6876462059 44.849473128 L 41.6587511568 46.1785164456 L 41.6240787697 47.4483258578 L 41.583239269 48.6620894378 L 41.5358701817 49.8228681845 L 41.481635689 50.9336286143 L 41.4202461897 51.9972175039 L 41.3514283697 53.0163759322 L 41.2749380608 53.9937587692 L 41.1905727892 54.9319125668 L 41.0981406747 55.8332956087 L 40.9974796201 56.70028482 L 40.8884540576 57.5351697743 L 40.7709460517 58.3401537625 L 40.6448519733 59.1173614296 L 40.5112485917 59.862358393 L 40.2141038344 61.3023070337 L 39.8827673968 62.6558837035 L 39.5155872608 63.9428727266 L 39.1122634469 65.1755555214 L 38.6725830252 66.3648543637 L 38.1964792052 67.5202893588 L 37.6840532618 68.6500238557 L 37.1356403763 69.7609234617 L 36.5518399702 70.8586419174 L 35.933501193 71.9477534114 L 35.2817262498 73.0318940579 L 34.5978400631 74.1138685823 L 33.883343596 75.1957672589 L 33.1398700722 76.2790941822 L 32.3691550041 77.364869698 L 31.5754777061 78.450268867 L 29.9109978028 80.6418442977 L 28.1692828999 82.8419259081 L 26.3604088275 85.0526510642 L 24.4960963924 87.2714491656 L 22.5856849602 89.4947919146 L 20.6349861605 91.7172119608 L 18.6450379326 93.9305192118 L 16.6108954474 96.1230297964 L 14.5155910625 98.2839411733 L 13.4464880377 99.3387854283 L 12.3514273069 100.379901235 L 11.2298118084 101.400566055 L 10.0768551168 102.397209041 L 8.88701078843 103.365983042 L 7.65387651619 104.302754543 L 6.37009186093 105.203144416 L 5.02724194698 106.062494837 L 3.60720208187 106.880727857 L 2.88036998911 107.264231664 L 2.12420030686 107.638382438 L 1.34510412255 107.998202869 L 0.541418896084 108.342902142 L -0.288612731248 108.671624868 L -1.14684317301 108.983490274 L -2.03518534745 109.277540302 L -2.95566302016 109.55275542 L -3.91036533619 109.808074042 L -4.90146377147 110.042338781 L -5.93120290476 110.254360234 L -7.0018819811 110.442848141 L -8.1158818956 110.606462945 L -9.27564574741 110.743791684 L -10.4836671117 110.853371554 L -11.7425017611 110.933650975 L -13.0547747683 110.983043834 L -14.4264143732 110.999927454 L -16.4078055027 110.984356659 L -18.3033094033 110.931353431 L -19.207764266 110.888415056 L -20.0926774562 110.832665889 L -20.9536486979 110.76327865 L -21.790717653 110.679246389 L -22.6039418012 110.579587922 L -23.3934071645 110.463355752 L -24.1592468829 110.329635265 L -24.9016322813 110.177551253 L -25.6207996112 110.00624859 L -26.3170707759 109.814885804 L -26.9908566841 109.602631264 L -27.6426701968 109.368631915 L -28.2731355353 109.111992268 L -28.8830080827 108.831742677 L -29.4731195697 108.526841741 L -30.0443769236 108.196110816 L -30.5977640501 107.838225561 L -31.1342627301 107.451729247 L -31.6548170097 107.035018802 L -32.1602922958 106.586374939 L -32.6514597119 106.10396013 L -33.1289429102 105.585911113 L -33.5932218473 105.030313237 L -34.0446336151 104.43530298 L -34.4833757066 103.799054242 L -34.9095406421 103.119813225 L -35.3231277975 102.395916522 L -35.7240700011 101.625808204 L -36.1122750336 100.807994212 L -36.4876120041 99.9411109086 L -36.8499549893 99.0238220166 L -37.199193407 98.0548747534 L -37.535218982 97.0330753486 L -37.8579550849 95.9572539008 L -38.1673474878 94.8262750437 L -38.4633635237 93.6390233381 L -38.7459958169 92.3944009887 L -39.0152628923 91.0913222669 L -39.2712047573 89.7286826857 L -39.5138764468 88.3054194543 L -39.7433480158 86.8204221304 L -39.959719021 85.272611089 L -40.1630864919 83.6608863719 L -40.3535644059 81.9841462445 L -40.5312834449 80.2412828745 L -40.6963716004 78.4311989029 L -40.848972491 76.552746944 L -40.9892356613 74.604832173 L -41.1173123938 72.5863013141 L -41.2333588832 70.4960379668 L -41.3375390658 68.3328832331 L -41.4300201668 66.0957141277 L -41.5109685237 63.7833626046 L -41.5805493891 61.3946843769 L -41.6389451844 58.9285162817 L -41.6863248761 56.3837064808 L -41.7228629213 53.7590854395 L -41.7487426168 51.0534888673 L -41.764136982 48.265745956 L -41.7692159579 45.4012643464 L -41.7574748483 44.2805162962 L -41.7225254253 43.1816828685 L -41.6644487567 42.0981490624 L -41.583459708 41.0296833159 L -41.4798238264 39.9760118037 L -41.3538596986 38.9368151389 L -41.205930043 37.9117299164 L -41.0364532634 36.9003706528 L -40.8458804456 35.9023082337 L -40.6364265818 34.9250814701 L -40.1524072265 32.9829320616 L -39.5949635937 31.0944048043 L -38.9673478775 29.2470070791 L -38.2754030651 27.4363103216 L -37.5254729765 25.6578117398 L -36.7243559426 23.9069645054 L -35.8792584356 22.179218218 L -34.9977075154 20.4700289275 L -34.0887342265 18.7771923495 L -32.211149647 15.4055542333 L -30.3235094086 12.0513778755 A 1.5 1.5 0 0 0 -30.313 12.0325L -28.4828402648 8.66776734879 A 1.5 1.5 0 0 0 -28.4672 8.63827L -27.5932206978 6.94266416586 A 1.5 1.5 0 0 0 -27.5794 6.91509L -26.7421971843 5.20547660499 A 1.5 1.5 0 0 0 -26.7265 5.17231L -25.932512667 3.44517108201 A 1.5 1.5 0 0 0 -25.9156 3.40687L -25.1705116849 1.65910509515 A 1.5 1.5 0 0 0 -25.1531 1.61635L -24.4617147987 -0.154688947389 A 1.5 1.5 0 0 0 -24.4445 -0.200989L -23.8105951947 -1.99739618239 A 1.5 1.5 0 0 0 -23.7943 -2.04615L -23.2203781015 -3.86937761517 A 1.5 1.5 0 0 0 -23.2056 -3.91937L -22.6929124679 -5.77023334087 A 1.5 1.5 0 0 0 -22.68 -5.82032L -22.2287194945 -7.69900231766 A 1.5 1.5 0 0 0 -22.2178 -7.74814L -21.8271029008 -9.654248886 A 1.5 1.5 0 0 0 -21.8182 -9.70155L -21.4863024566 -11.6341565764 A 1.5 1.5 0 0 0 -21.4793 -11.6789L -21.203636623 -13.6365775073 A 1.5 1.5 0 0 0 -21.1984 -13.6782L -20.9756614512 -15.659092054 A 1.5 1.5 0 0 0 -20.9719 -15.6971L -20.7983417821 -17.6990734984 A 1.5 1.5 0 0 0 -20.7958 -17.7334L -20.6672517615 -19.7537844757 A 1.5 1.5 0 0 0 -20.6656 -19.7844L -20.5777979274 -21.8204686131 A 1.5 1.5 0 0 0 -20.5769 -21.8475L -20.5254340168 -23.8964182333 A 1.5 1.5 0 0 0 -20.525 -23.9201L -20.5058633037 -25.9790627124 A 1.5 1.5 0 0 0 -20.5058 -25.9999L -20.5152343252 -28.0660392184 A 1.5 1.5 0 0 0 -20.5154 -28.0845L -20.5503150162 -30.1552580703 A 1.5 1.5 0 0 0 -20.5509 -30.1794L -20.6875393864 -34.3253848128 A 1.5 1.5 0 0 0 -20.6887 -34.3537L -20.9033076079 -38.4912724685 A 1.5 1.5 0 0 0 -20.9048 -38.5167L -21.1883960268 -42.6302259878 A 1.5 1.5 0 0 0 -21.1902 -42.6541L -21.5364927711 -46.7284378594 A 1.5 1.5 0 0 0 -21.5386 -46.7515L -21.9429873685 -50.7722552369 A 1.5 1.5 0 0 0 -21.9455 -50.7954L -22.4052937887 -54.7491329855 A 1.5 1.5 0 0 0 -22.4075 -54.7672L -22.6580140239 -56.7150963701 A 1.5 1.5 0 0 0 -22.6597 -56.7277L -22.9241511392 -58.6545418306 A 1.5 1.5 0 0 0 -22.926 -58.6678L -23.2047394399 -60.5722743765 A 1.5 1.5 0 0 0 -23.2068 -60.5862L -23.5001880737 -62.467272861 A 1.5 1.5 0 0 0 -23.5026 -62.4819L -23.8109574812 -64.3385926334 A 1.5 1.5 0 0 0 -23.8136 -64.3541L -24.1375204198 -66.1853595507 A 1.5 1.5 0 0 0 -24.1405 -66.2016L -24.4803261417 -68.0067836249 A 1.5 1.5 0 0 0 -24.4836 -68.0238L -24.8397835462 -69.8021357643 A 1.5 1.5 0 0 0 -24.8435 -69.82L -25.2162515083 -71.5707982497 A 1.5 1.5 0 0 0 -25.2203 -71.5894L -25.6100369664 -73.3122553498 A 1.5 1.5 0 0 0 -25.6145 -73.3315L -26.0213795694 -75.0261015043 A 1.5 1.5 0 0 0 -26.0263 -75.046L -26.446407735 -76.6962151786 " stroke="#191919" stroke-width="0.35 px" style="stroke-width:0.35;stroke-miterlimit:4;stroke-dasharray:none;fill:none;fill-rule: evenodd "/>
<title>Offset2D</title>
</g>
</svg>