  0
SECTION
  2
HEADER
  9
$ACADVER
  1
AC1014
  9
$HANDSEED
  5
FFFF
  9
$MEASUREMENT
 70
     1
  0
ENDSEC
  0
SECTION
  2
TABLES
  0
TABLE
  2
VPORT
  5
8
330
0
100
AcDbSymbolTable
 70
     4
  0
VPORT
  5
2E
330
8
100
AcDbSymbolTableRecord
100
AcDbViewportTableRecord
  2
*ACTIVE
 70
     0
 10
0.0
 20
0.0
 11
1.0
 21
1.0
 12
210.0
 22
148.5
 13
0.0
 23
0.0
 14
10.0
 24
10.0
 15
10.0
 25
10.0
 16
0.0
 26
0.0
 36
1.0
 17
0.0
 27
0.0
 37
0.0
 40
341.0
 41
1.24
 42
50.0
 43
0.0
 44
0.0
 50
0.0
 51
0.0
 71
     0
 72
   100
 73
     1
 74
     3
 75
     0
 76
     0
 77
     0
 78
     0
  0
ENDTAB
  0
TABLE
  2
LTYPE
  5
5
330
0
100
AcDbSymbolTable
 70
     1
  0
LTYPE
  5
14
330
5
100
AcDbSymbolTableRecord
100
AcDbLinetypeTableRecord
  2
BYBLOCK
 70
     0
  3

 72
    65
 73
     0
 40
0.0
  0
LTYPE
  5
15
330
5
100
AcDbSymbolTableRecord
100
AcDbLinetypeTableRecord
  2
BYLAYER
 70
     0
  3

 72
    65
 73
     0
 40
0.0
  0
LTYPE
  5
16
330
5
100
AcDbSymbolTableRecord
100
AcDbLinetypeTableRecord
  2
CONTINUOUS
 70
     0
  3
Solid line
 72
    65
 73
     0
 40
0.0
  0
ENDTAB
  0
TABLE
  2
LAYER
  5
2
100
AcDbSymbolTable
 70
1
  0
LAYER
  5
50
100
AcDbSymbolTableRecord
100
AcDbLayerTableRecord
  2
0
 70
0
  6
CONTINUOUS
  0
ENDTAB
  0
TABLE
  2
STYLE
  5
3
330
0
100
AcDbSymbolTable
 70
     1
  0
STYLE
  5
11
330
3
100
AcDbSymbolTableRecord
100
AcDbTextStyleTableRecord
  2
STANDARD
 70
     0
 40
0.0
 41
1.0
 50
0.0
 71
     0
 42
2.5
  3
txt
  4

  0
ENDTAB
  0
TABLE
  2
VIEW
  5
6
330
0
100
AcDbSymbolTable
 70
     0
  0
ENDTAB
  0
TABLE
  2
UCS
  5
7
330
0
100
AcDbSymbolTable
 70
     0
  0
ENDTAB
  0
TABLE
  2
APPID
  5
9
330
0
100
AcDbSymbolTable
 70
     2
  0
APPID
  5
12
330
9
100
AcDbSymbolTableRecord
100
AcDbRegAppTableRecord
  2
ACAD
 70
     0
  0
ENDTAB
  0
TABLE
  2
DIMSTYLE
  5
A
330
0
100
AcDbSymbolTable
 70
     1
  0
DIMSTYLE
105
27
330
A
100
AcDbSymbolTableRecord
100
AcDbDimStyleTableRecord
  2
ISO-25
 70
     0
  3

  4

  5

  6

  7

 40
1.0
 41
2.5
 42
0.625
 43
3.75
 44
1.25
 45
0.0
 46
0.0
 47
0.0
 48
0.0
140
2.5
141
2.5
142
0.0
143
0.03937007874016
144
1.0
145
0.0
146
1.0
147
0.625
 71
     0
 72
     0
 73
     0
 74
     0
 75
     0
 76
     0
 77
     1
 78
     8
170
     0
171
     3
172
     1
173
     0
174
     0
175
     0
176
     0
177
     0
178
     0
270
     2
271
     2
272
     2
273
     2
274
     3
340
11
275
     0
280
     0
281
     0
282
     0
283
     0
284
     8
285
     0
286
     0
287
     3
288
     0
  0
ENDTAB
  0
TABLE
  2
BLOCK_RECORD
  5
1
330
0
100
AcDbSymbolTable
 70
     1
  0
BLOCK_RECORD
  5
1F
330
1
100
AcDbSymbolTableRecord
100
AcDbBlockTableRecord
  2
*MODEL_SPACE
  0
BLOCK_RECORD
  5
1B
330
1
100
AcDbSymbolTableRecord
100
AcDbBlockTableRecord
  2
*PAPER_SPACE
  0
ENDTAB
  0
ENDSEC
  0
SECTION
  2
BLOCKS
  0
BLOCK
  5
20
330
1F
100
AcDbEntity
  8
0
100
AcDbBlockBegin
  2
*MODEL_SPACE
 70
     0
 10
0.0
 20
0.0
 30
0.0
  3
*MODEL_SPACE
  1

  0
ENDBLK
  5
21
330
1F
100
AcDbEntity
  8
0
100
AcDbBlockEnd
  0
BLOCK
  5
1C
330
1B
100
AcDbEntity
 67
     1
  8
0
100
AcDbBlockBegin
  2
*PAPER_SPACE
  1

  0
ENDBLK
  5
1D
330
1B
100
AcDbEntity
 67
     1
  8
0
100
AcDbBlockEnd
  0
ENDSEC
  0
SECTION
  2
ENTITIES
  0
LWPOLYLINE
  5
100
100
AcDbEntity
  8
0
 62
7
100
AcDbPolyline
 90
312
 70
1
 10
18.072498
 20
41.088928
 30
0.0
 10
17.673826
 20
39.284522
 30
0.0
 10
17.379112
 20
37.460258
 30
0.0
 10
17.189319
 20
35.622108
 30
0.0
 10
17.105068
 20
33.776107
 30
0.0
 10
17.126644
 20
31.928314
 30
0.0
 10
17.253967
 20
30.084785
 30
0.0
 10
17.486622
 20
28.251571
 30
0.0
 10
17.823847
 20
26.434684
 30
0.0
 10
18.264536
 20
24.640075
 30
0.0
 10
18.807243
 20
22.873649
 30
0.0
 10
19.450188
 20
21.141181
 30
0.0
 10
20.191261
 20
19.448371
 30
0.0
 10
21.028032
 20
17.800758
 30
0.0
 10
21.957756
 20
16.203758
 30
0.0
 10
22.977383
 20
14.662597
 30
0.0
 10
24.083568
 20
13.182342
 30
0.0
 10
25.272684
 20
11.767837
 30
0.0
 10
26.540830
 20
10.423736
 30
0.0
 10
27.883846
 20
9.154441
 30
0.0
 10
29.297325
 20
7.964111
 30
0.0
 10
30.776632
 20
6.856651
 30
0.0
 10
32.316915
 20
5.835708
 30
0.0
 10
33.913122
 20
4.904609
 30
0.0
 10
35.560015
 20
4.066428
 30
0.0
 10
37.252191
 20
3.323905
 30
0.0
 10
38.984103
 20
2.679473
 30
0.0
 10
40.750068
 20
2.135253
 30
0.0
 10
42.544292
 20
1.693023
 30
0.0
 10
44.360892
 20
1.354240
 30
0.0
 10
46.193907
 20
1.120010
 30
0.0
 10
48.037326
 20
0.991103
 30
0.0
 10
49.885100
 20
0.967948
 30
0.0
 10
51.731170
 20
1.050613
 30
0.0
 10
53.569480
 20
1.238830
 30
0.0
 10
55.393999
 20
1.531982
 30
0.0
 10
57.198743
 20
1.929107
 30
0.0
 10
58.977793
 20
2.428893
 30
0.0
 10
60.725310
 20
3.029723
 30
0.0
 10
62.435565
 20
3.729606
 30
0.0
 10
64.102946
 20
4.526252
 30
0.0
 10
65.721985
 20
5.417053
 30
0.0
 10
67.287371
 20
6.399078
 30
0.0
 10
68.793968
 20
7.469108
 30
0.0
 10
70.236835
 20
8.623641
 30
0.0
 10
71.611240
 20
9.858878
 30
0.0
 10
72.912672
 20
11.170783
 30
0.0
 10
74.136864
 20
12.555038
 30
0.0
 10
75.279800
 20
14.007102
 30
0.0
 10
76.337730
 20
15.522224
 30
0.0
 10
77.307186
 20
17.095428
 30
0.0
 10
78.184986
 20
18.721549
 30
0.0
 10
78.968250
 20
20.395263
 30
0.0
 10
79.654411
 20
22.111068
 30
0.0
 10
80.241218
 20
23.863342
 30
0.0
 10
80.726744
 20
25.646339
 30
0.0
 10
81.109398
 20
27.454208
 30
0.0
 10
81.387924
 20
29.281013
 30
0.0
 10
81.561409
 20
31.120773
 30
0.0
 10
81.629284
 20
32.967445
 30
0.0
 10
81.591324
 20
34.814971
 30
0.0
 10
81.447658
 20
36.657302
 30
0.0
 10
81.260408
 20
38.555740
 30
0.0
 10
81.106710
 20
40.431632
 30
0.0
 10
80.986112
 20
42.285980
 30
0.0
 10
80.897905
 20
44.120292
 30
0.0
 10
80.841141
 20
45.936630
 30
0.0
 10
80.814659
 20
47.737479
 30
0.0
 10
80.817098
 20
49.525749
 30
0.0
 10
80.846926
 20
51.304733
 30
0.0
 10
80.981912
 20
54.849304
 30
0.0
 10
81.205076
 20
58.401687
 30
0.0
 10
81.501278
 20
61.992713
 30
0.0
 10
81.855858
 20
65.650813
 30
0.0
 10
82.050743
 20
67.512870
 30
0.0
 10
82.255207
 20
69.400611
 30
0.0
 10
82.467750
 20
71.316455
 30
0.0
 10
82.686943
 20
73.262554
 30
0.0
 10
82.911465
 20
75.240745
 30
0.0
 10
83.140133
 20
77.252418
 30
0.0
 10
83.372005
 20
79.298293
 30
0.0
 10
83.606430
 20
81.378246
 30
0.0
 10
83.843147
 20
83.491065
 30
0.0
 10
84.082340
 20
85.634280
 30
0.0
 10
84.571518
 20
89.994693
 30
0.0
 10
85.085266
 20
94.412261
 30
0.0
 10
85.639809
 20
98.825713
 30
0.0
 10
85.937916
 20
101.010272
 30
0.0
 10
86.252731
 20
103.169334
 30
0.0
 10
86.586090
 20
105.295528
 30
0.0
 10
86.939522
 20
107.382327
 30
0.0
 10
87.314125
 20
109.424310
 30
0.0
 10
87.710487
 20
111.417419
 30
0.0
 10
88.128597
 20
113.359219
 30
0.0
 10
88.567760
 20
115.249114
 30
0.0
 10
89.026615
 20
117.088323
 30
0.0
 10
89.503216
 20
118.879658
 30
0.0
 10
89.995121
 20
120.627277
 30
0.0
 10
90.499489
 20
122.336437
 30
0.0
 10
91.532848
 20
125.664448
 30
0.0
 10
92.575970
 20
128.918972
 30
0.0
 10
93.599602
 20
132.161291
 30
0.0
 10
94.094631
 20
133.798231
 30
0.0
 10
94.573307
 20
135.456953
 30
0.0
 10
95.031757
 20
137.146064
 30
0.0
 10
95.466122
 20
138.874184
 30
0.0
 10
95.872631
 20
140.649814
 30
0.0
 10
96.247650
 20
142.481201
 30
0.0
 10
96.587730
 20
144.376211
 30
0.0
 10
96.889667
 20
146.342189
 30
0.0
 10
97.150539
 20
148.385829
 30
0.0
 10
97.367775
 20
150.513067
 30
0.0
 10
97.539173
 20
152.728971
 30
0.0
 10
97.662952
 20
155.037666
 30
0.0
 10
97.706547
 20
156.227813
 30
0.0
 10
97.737778
 20
157.442226
 30
0.0
 10
97.756554
 20
158.681112
 30
0.0
 10
97.762817
 20
159.944598
 30
0.0
 10
97.762680
 20
162.031936
 30
0.0
 10
97.761726
 20
164.026237
 30
0.0
 10
97.759174
 20
165.931983
 30
0.0
 10
97.754280
 20
167.753516
 30
0.0
 10
97.746342
 20
169.495033
 30
0.0
 10
97.734688
 20
171.160598
 30
0.0
 10
97.718681
 20
172.754127
 30
0.0
 10
97.697727
 20
174.279411
 30
0.0
 10
97.671257
 20
175.740096
 30
0.0
 10
97.638748
 20
177.139713
 30
0.0
 10
97.599693
 20
178.481654
 30
0.0
 10
97.553634
 20
179.769187
 30
0.0
 10
97.500130
 20
181.005466
 30
0.0
 10
97.438782
 20
182.193507
 30
0.0
 10
97.369213
 20
183.336227
 30
0.0
 10
97.291084
 20
184.436408
 30
0.0
 10
97.204071
 20
185.496734
 30
0.0
 10
97.107895
 20
186.519767
 30
0.0
 10
97.002292
 20
187.507964
 30
0.0
 10
96.887024
 20
188.463676
 30
0.0
 10
96.761886
 20
189.389148
 30
0.0
 10
96.626697
 20
190.286517
 30
0.0
 10
96.325538
 20
192.005042
 30
0.0
 10
95.982559
 20
193.634445
 30
0.0
 10
95.597111
 20
195.188415
 30
0.0
 10
95.168884
 20
196.679267
 30
0.0
 10
94.697876
 20
198.117950
 30
0.0
 10
94.184376
 20
199.514175
 30
0.0
 10
93.628918
 20
200.876449
 30
0.0
 10
93.032295
 20
202.212196
 30
0.0
 10
92.395508
 20
203.527770
 30
0.0
 10
91.719742
 20
204.828613
 30
0.0
 10
91.006370
 20
206.119232
 30
0.0
 10
90.256904
 20
207.403358
 30
0.0
 10
89.472977
 20
208.683982
 30
0.0
 10
88.656326
 20
209.963432
 30
0.0
 10
87.808769
 20
211.243446
 30
0.0
 10
86.932182
 20
212.525268
 30
0.0
 10
86.028469
 20
213.809692
 30
0.0
 10
84.147304
 20
216.387840
 30
0.0
 10
82.180313
 20
218.978462
 30
0.0
 10
80.141559
 20
221.579963
 30
0.0
 10
78.043295
 20
224.190215
 30
0.0
 10
75.894667
 20
226.806335
 30
0.0
 10
73.700340
 20
229.423713
 30
0.0
 10
71.459082
 20
232.035064
 30
0.0
 10
69.162359
 20
234.629432
 30
0.0
 10
66.792930
 20
237.191177
 30
0.0
 10
65.572838
 20
238.453422
 30
0.0
 10
64.323444
 20
239.699043
 30
0.0
 10
63.039521
 20
240.924339
 30
0.0
 10
61.715031
 20
242.125137
 30
0.0
 10
60.343084
 20
243.296752
 30
0.0
 10
58.915896
 20
244.433959
 30
0.0
 10
57.424743
 20
245.530982
 30
0.0
 10
55.859917
 20
246.581435
 30
0.0
 10
54.210683
 20
247.578300
 30
0.0
 10
53.350767
 20
248.054260
 30
0.0
 10
52.465235
 20
248.513900
 30
0.0
 10
51.552438
 20
248.956138
 30
0.0
 10
50.610652
 20
249.379875
 30
0.0
 10
49.638081
 20
249.783943
 30
0.0
 10
48.632854
 20
250.167136
 30
0.0
 10
47.593021
 20
250.528205
 30
0.0
 10
46.516556
 20
250.865852
 30
0.0
 10
45.401354
 20
251.178718
 30
0.0
 10
44.245228
 20
251.465400
 30
0.0
 10
43.045911
 20
251.724448
 30
0.0
 10
41.801050
 20
251.954353
 30
0.0
 10
40.508208
 20
252.153549
 30
0.0
 10
39.164862
 20
252.320426
 30
0.0
 10
37.768405
 20
252.453307
 30
0.0
 10
36.316134
 20
252.550468
 30
0.0
 10
34.805261
 20
252.610122
 30
0.0
 10
33.232904
 20
252.630431
 30
0.0
 10
30.982904
 20
252.612747
 30
0.0
 10
28.829557
 20
252.552535
 30
0.0
 10
27.788612
 20
252.503112
 30
0.0
 10
26.771210
 20
252.439018
 30
0.0
 10
25.777141
 20
252.358909
 30
0.0
 10
24.806206
 20
252.261436
 30
0.0
 10
23.858190
 20
252.145263
 30
0.0
 10
22.932892
 20
252.009025
 30
0.0
 10
22.030102
 20
251.851394
 30
0.0
 10
21.149614
 20
251.671020
 30
0.0
 10
20.291223
 20
251.466552
 30
0.0
 10
19.454719
 20
251.236648
 30
0.0
 10
18.639898
 20
250.979965
 30
0.0
 10
17.846554
 20
250.695152
 30
0.0
 10
17.074474
 20
250.380874
 30
0.0
 10
16.323459
 20
250.035766
 30
0.0
 10
15.593300
 20
249.658500
 30
0.0
 10
14.883785
 20
249.247726
 30
0.0
 10
14.194713
 20
248.802093
 30
0.0
 10
13.525875
 20
248.320258
 30
0.0
 10
12.877067
 20
247.800880
 30
0.0
 10
12.248077
 20
247.242606
 30
0.0
 10
11.638706
 20
246.644096
 30
0.0
 10
11.048736
 20
246.004005
 30
0.0
 10
10.477970
 20
245.320976
 30
0.0
 10
9.926201
 20
244.593681
 30
0.0
 10
9.393215
 20
243.820762
 30
0.0
 10
8.878811
 20
243.000877
 30
0.0
 10
8.382778
 20
242.132682
 30
0.0
 10
7.904915
 20
241.214828
 30
0.0
 10
7.445007
 20
240.245963
 30
0.0
 10
7.002857
 20
239.224761
 30
0.0
 10
6.578251
 20
238.149856
 30
0.0
 10
6.170986
 20
237.019920
 30
0.0
 10
5.780853
 20
235.833587
 30
0.0
 10
5.407646
 20
234.589530
 30
0.0
 10
5.051163
 20
233.286399
 30
0.0
 10
4.711185
 20
231.922836
 30
0.0
 10
4.387516
 20
230.497512
 30
0.0
 10
4.079948
 20
229.009071
 30
0.0
 10
3.788269
 20
227.456168
 30
0.0
 10
3.512279
 20
225.837463
 30
0.0
 10
3.251766
 20
224.151611
 30
0.0
 10
3.006523
 20
222.397254
 30
0.0
 10
2.776348
 20
220.573058
 30
0.0
 10
2.561031
 20
218.677673
 30
0.0
 10
2.360363
 20
216.709762
 30
0.0
 10
2.174141
 20
214.667960
 30
0.0
 10
2.002159
 20
212.550941
 30
0.0
 10
1.844204
 20
210.357353
 30
0.0
 10
1.700077
 20
208.085845
 30
0.0
 10
1.569568
 20
205.735076
 30
0.0
 10
1.452469
 20
203.303703
 30
0.0
 10
1.348572
 20
200.790366
 30
0.0
 10
1.257675
 20
198.193740
 30
0.0
 10
1.179569
 20
195.512473
 30
0.0
 10
1.114044
 20
192.745208
 30
0.0
 10
1.060898
 20
189.890609
 30
0.0
 10
1.019920
 20
186.947330
 30
0.0
 10
0.990909
 20
183.914024
 30
0.0
 10
0.973652
 20
180.789348
 30
0.0
 10
0.967949
 20
177.571948
 30
0.0
 10
0.980423
 20
176.297000
 30
0.0
 10
1.017803
 20
175.037475
 30
0.0
 10
1.079971
 20
173.793311
 30
0.0
 10
1.166736
 20
172.564399
 30
0.0
 10
1.277840
 20
171.350608
 30
0.0
 10
1.412956
 20
170.151756
 30
0.0
 10
1.571697
 20
168.967632
 30
0.0
 10
1.753612
 20
167.797996
 30
0.0
 10
2.184868
 20
165.501045
 30
0.0
 10
2.701988
 20
163.258342
 30
0.0
 10
3.299435
 20
161.066894
 30
0.0
 10
3.970924
 20
158.923309
 30
0.0
 10
4.709545
 20
156.823852
 30
0.0
 10
5.507862
 20
154.764503
 30
0.0
 10
6.358005
 20
152.741008
 30
0.0
 10
7.251781
 20
150.748925
 30
0.0
 10
8.180786
 20
148.783685
 30
0.0
 10
9.136505
 20
146.840642
 30
0.0
 10
11.093933
 20
143.002425
 30
0.0
 10
13.056396
 20
139.197061
 30
0.0
 10
14.958332
 20
135.388369
 30
0.0
 10
15.867096
 20
133.472004
 30
0.0
 10
16.738045
 20
131.542268
 30
0.0
 10
17.564619
 20
129.595503
 30
0.0
 10
18.341045
 20
127.628439
 30
0.0
 10
19.062492
 20
125.638264
 30
0.0
 10
19.725254
 20
123.622710
 30
0.0
 10
20.326904
 20
121.580124
 30
0.0
 10
20.866333
 20
119.509493
 30
0.0
 10
21.343647
 20
117.410420
 30
0.0
 10
21.760029
 20
115.283083
 30
0.0
 10
22.117605
 20
113.128203
 30
0.0
 10
22.419321
 20
110.946999
 30
0.0
 10
22.668793
 20
108.741155
 30
0.0
 10
22.870169
 20
106.512771
 30
0.0
 10
23.027935
 20
104.264278
 30
0.0
 10
23.146707
 20
101.998346
 30
0.0
 10
23.231026
 20
99.717788
 30
0.0
 10
23.285141
 20
97.425474
 30
0.0
 10
23.317137
 20
92.816737
 30
0.0
 10
23.264633
 20
88.193095
 30
0.0
 10
23.139990
 20
83.573509
 30
0.0
 10
22.949213
 20
78.975723
 30
0.0
 10
22.695074
 20
74.417037
 30
0.0
 10
22.378403
 20
69.914352
 30
0.0
 10
21.997848
 20
65.483638
 30
0.0
 10
21.782513
 20
63.299861
 30
0.0
 10
21.549574
 20
61.139358
 30
0.0
 10
21.298223
 20
59.003661
 30
0.0
 10
21.027588
 20
56.894149
 30
0.0
 10
20.736776
 20
54.812125
 30
0.0
 10
20.424909
 20
52.758743
 30
0.0
 10
20.091171
 20
50.735053
 30
0.0
 10
19.734831
 20
48.741966
 30
0.0
 10
19.355253
 20
46.780265
 30
0.0
 10
18.951916
 20
44.850585
 30
0.0
 10
18.524420
 20
42.953376
 30
0.0
  0
ENDSEC
  0
SECTION
  2
OBJECTS
  0
DICTIONARY
  5
C
330
0
100
AcDbDictionary
  3
ACAD_GROUP
350
D
  3
ACAD_MLINESTYLE
350
17
  0
DICTIONARY
  5
D
330
C
100
AcDbDictionary
  0
DICTIONARY
  5
1A
330
C
100
AcDbDictionary
  0
DICTIONARY
  5
17
330
C
100
AcDbDictionary
  3
STANDARD
350
18
  0
DICTIONARY
  5
19
330
C
100
AcDbDictionary
  0
ENDSEC
  0
EOF
