<?xml version="1.0"?>
<!DOCTYPE svg PUBLIC "-//W3C//DTD SVG 1.1//EN" "http://www.w3.org/Graphics/SVG/1.1/DTD/svg11.dtd">
<svg width="87.8245989853mm" height="230.384196258mm" viewBox="0 0 87.8245989853 230.384196258" xmlns="http://www.w3.org/2000/svg" version="1.1">
<g id="Offset2D" transform="translate(43.912293,115.194288) scale(1,-1)">
<path id="Offset2D_w0000"  d="M -27.2924860223 -79.0319105835 L -27.6600931136 -80.6395326778 L -27.9301521 -82.2389262966 L -28.1078093115 -83.8511917508 L -28.1924744501 -85.471004942 L -28.1838704779 -87.0930067256 L -28.0820245534 -88.7118349996 L -27.8872735374 -90.3221225085 L -27.6002618412 -91.9185539877 L -27.2219406977 -93.4958458689 L -26.7535580113 -95.0487752893 L -26.1966667844 -96.5722017054 L -25.5531072963 -98.0610966332 L -24.8250099089 -99.5105255856 L -24.0147828298 -100.915694047 L -23.1251082175 -102.271951306 L -22.1589257474 -103.574815261 L -21.1194326116 -104.819981689 L -20.0100723271 -106.003318642 L -18.8345128509 -107.120910468 L -17.5966393662 -108.169070868 L -16.3005515959 -109.14432719 L -14.9505352626 -110.043450095 L -13.5510579496 -110.86346959 L -12.1067473264 -111.601669759 L -10.6223863749 -112.255614348 L -9.10288395814 -112.823124303 L -7.55325967056 -113.302340108 L -5.97865369054 -113.69167129 L -4.38426563337 -113.989816701 L -2.77537170549 -114.195812264 L -1.15730036721 -114.308954875 L 0.464605673815 -114.328882941 L 2.08497336193 -114.255530913 L 3.69844151694 -114.089138027 L 5.29967348673 -113.830254867 L 6.88337104134 -113.479736351 L 8.44429802213 -113.038740902 L 9.97728919507 -112.508731547 L 11.4772734304 -111.891461805 L 12.9392863283 -111.188974263 L 14.3584885123 -110.403596403 L 15.7301884688 -109.537912684 L 17.0498504619 -108.59479585 L 18.3131033709 -107.577372646 L 19.5157718436 -106.488995148 L 20.6538736696 -105.333277912 L 21.7236478025 -104.114030771 L 22.7215515195 -102.835303476 L 23.6442843016 -101.501315856 L 24.4887940269 -100.116472536 L 25.25228767 -98.6853767379 L 25.9322360345 -97.2127465661 L 26.5263920738 -95.7034596544 L 27.032791309 -94.1625102537 L 27.4497567345 -92.5949913214 L 27.7759071025 -91.0060948661 L 28.0101667055 -89.4010720457 L 28.151760022 -87.7852428605 L 28.2002164101 -86.1639377857 L 28.1553765149 -84.5425373166 L 28.0150370808 -82.8988231601 L 27.8312829506 -81.1689503819 A 1.5 1.5 0 0 0 27.8289 -81.1443L 27.6743951298 -79.4197936574 A 1.5 1.5 0 0 0 27.6724 -79.3948L 27.5483867228 -77.6900634982 A 1.5 1.5 0 0 0 27.5468 -77.6649L 27.4526410519 -75.9785631376 A 1.5 1.5 0 0 0 27.4514 -75.9534L 27.3863137915 -74.2836815948 A 1.5 1.5 0 0 0 27.3856 -74.2589L 27.3483476981 -72.6034035625 A 1.5 1.5 0 0 0 27.348 -72.5793L 27.3374864217 -70.935335578 A 1.5 1.5 0 0 0 27.3375 -70.9122L 27.352297047 -69.2767657266 A 1.5 1.5 0 0 0 27.3529 -69.2447L 27.4521509288 -65.9860635187 A 1.5 1.5 0 0 0 27.4538 -65.9487L 27.634703293 -62.6828229769 A 1.5 1.5 0 0 0 27.6367 -62.653L 27.8855954167 -59.3514181638 A 1.5 1.5 0 0 0 27.8874 -59.3293L 28.1911166569 -55.9658325426 A 1.5 1.5 0 0 0 28.1923 -55.9538L 28.3607582562 -54.2416375673 A 1.5 1.5 0 0 0 28.3613 -54.2358L 28.5390386896 -52.4999671363 A 1.5 1.5 0 0 0 28.5395 -52.4956L 28.7250236589 -50.7338970922 A 1.5 1.5 0 0 0 28.7253 -50.7309L 28.9174466414 -48.9413114144 A 1.5 1.5 0 0 0 28.9176 -48.9395L 29.1151351336 -47.1203693019 A 1.5 1.5 0 0 0 29.1152 -47.1196L 29.3170715689 -45.2696016507 A 1.5 1.5 0 0 0 29.3171 -45.2695L 29.522438667 -43.388250808 L 29.7307601205 -41.4758110078 L 29.9418900772 -39.5329706568 L 30.1560658219 -37.5620044908 A 1.5 1.5 0 0 0 30.1563 -37.5601L 30.5970671852 -33.5503115949 A 1.5 1.5 0 0 0 30.5979 -33.5428L 31.0651743531 -29.4807921404 A 1.5 1.5 0 0 0 31.067 -29.4654L 31.5762742664 -25.4078575949 A 1.5 1.5 0 0 0 31.5785 -25.3907L 31.8541631416 -23.382610932 A 1.5 1.5 0 0 0 31.8562 -23.368L 32.1485310503 -21.3836522056 A 1.5 1.5 0 0 0 32.1511 -21.3667L 32.4618059784 -19.4128513648 A 1.5 1.5 0 0 0 32.465 -19.3936L 32.7954722413 -17.4763146048 A 1.5 1.5 0 0 0 32.7993 -17.455L 33.150603029 -15.5792290819 A 1.5 1.5 0 0 0 33.1551 -15.5561L 33.5277518948 -13.7256538156 A 1.5 1.5 0 0 0 33.5329 -13.7013L 33.9268561524 -11.9183135897 A 1.5 1.5 0 0 0 33.9326 -11.8933L 34.347114693 -10.1584481071 A 1.5 1.5 0 0 0 34.3533 -10.1337L 34.7870304822 -8.44572262991 A 1.5 1.5 0 0 0 34.7933 -8.42203L 35.2444705377 -6.77838617203 A 1.5 1.5 0 0 0 35.2506 -6.75661L 35.7167806643 -5.15343140074 A 1.5 1.5 0 0 0 35.7225 -5.13437L 36.2008908343 -3.56679416678 A 1.5 1.5 0 0 0 36.2076 -3.54543L 37.1889632878 -0.493862284546 A 1.5 1.5 0 0 0 37.1935 -0.479884L 38.184418028 2.50065733649 L 39.1547965344 5.46104366369 L 39.6204785838 6.94351959007 L 40.0701004243 8.44317013711 L 40.4996245911 9.96625659098 L 40.905753321 11.5212873002 L 41.2852858534 13.1168097021 L 41.6351358291 14.7612445651 L 41.952333493 16.462710298 L 42.2340617399 18.2288455677 L 42.477680533 20.0666432737 L 42.6807932946 21.9822924821 L 42.8412791825 23.9810772251 L 42.9575962887 26.0715570284 L 42.9983606017 27.1440189153 L 43.0277078476 28.2438924422 L 43.0453639979 29.3669514602 L 43.0512807375 30.5170776639 L 43.0511551112 32.5546850542 L 43.0502781365 34.5025066618 L 43.0479302602 36.3610375599 L 43.0434309008 38.1345242642 L 43.0361351599 39.8270676117 L 43.0254303122 41.4426319591 L 43.0107437694 42.9850498054 L 42.9915320656 44.4580129537 L 42.9672849719 45.8650846732 L 42.9375296249 47.2097108262 L 42.9018310244 48.4951975812 L 42.8597809517 49.7247432205 L 42.8110055755 50.9014269765 L 42.7551656993 52.0282126124 L 42.6919531703 53.1079618352 L 42.6210865378 54.1434250457 L 42.5423177346 55.1372692345 L 42.4554328651 56.0920443997 L 42.3602308842 57.0102182682 L 42.2565487885 57.8941831513 L 42.1442388079 58.746224528 L 42.0231761293 59.5685660495 L 41.8932554307 60.3633310306 L 41.7555471085 61.1261145932 L 41.4493094453 62.6021833856 L 41.1077055577 63.9927392427 L 40.7290471135 65.3175307897 L 40.313027764 66.5888057477 L 39.8594486383 67.8174380306 L 39.3682594879 69.0129099996 L 38.8396078243 70.1833153782 L 38.2738815862 71.3354877841 L 37.6717172591 72.475032168 L 37.0340343189 73.6065133893 L 36.3619876726 74.7335065007 L 35.6569432974 75.8588060878 L 34.9204534462 76.9845050028 L 34.1542061452 78.1120808502 L 33.3599863868 79.2425064141 L 32.5420599162 80.3729992639 L 30.8273769375 82.6557404342 L 29.0332003348 84.9483468857 L 27.1700257327 87.2526854709 L 25.2498876317 89.566020801 L 23.2823542931 91.8845740467 L 21.2733425743 94.2026211516 L 19.2238340221 96.5116125161 L 17.1286470651 98.7993612269 L 14.9703738805 101.0544334 L 13.868789641 102.155649101 L 12.7404928708 103.242530022 L 11.5847268946 104.308195192 L 10.3965605933 105.348886485 L 9.17026719134 106.360579051 L 7.89925865112 107.338947476 L 6.57596969958 108.279384 L 5.1917572258 109.176993563 L 3.72819880455 110.031521692 L 2.97876942657 110.432211627 L 2.19933091958 110.823009071 L 1.39627964739 111.198831341 L 0.56791615597 111.558849982 L -0.287571633036 111.902164328 L -1.1720788925 112.227864223 L -2.08758463573 112.53493305 L -3.03616168435 112.822336426 L -4.01995574535 113.088933415 L -5.04120824618 113.333548256 L -6.10221664217 113.55491597 L -7.20535995804 113.751704972 L -8.35309135435 113.922515977 L -9.54791616402 114.06588854 L -10.7924020255 114.180276819 L -12.0891851707 114.264082233 L -13.4409707449 114.315633771 L -14.8538921558 114.333262356 L -16.894757618 114.317227134 L -18.8472991277 114.262621939 L -19.7793345547 114.218371109 L -20.6912020564 114.160927888 L -21.5785057472 114.089419672 L -22.4412921037 114.002809066 L -23.2796255941 113.900068858 L -24.0936083631 113.780227089 L -24.8833576879 113.642334033 L -25.649065338 113.485467241 L -26.3909765959 113.308746232 L -27.1094098415 113.111294362 L -27.8047784459 112.892242757 L -28.4776069649 112.650698079 L -29.1285269434 112.385733739 L -29.7582911247 112.096344921 L -30.3677394504 111.781452419 L -30.9577940095 111.439833632 L -31.5294383019 111.070143015 L -32.0836536892 110.670883225 L -32.6213909332 110.240418663 L -33.1435333662 109.776977778 L -33.6508446788 109.278715678 L -34.1439530334 108.743710812 L -34.623349654 108.170023436 L -35.0893794249 107.555741534 L -35.5422423228 106.899017094 L -35.9820293139 106.198056201 L -36.4087582828 105.451157511 L -36.8223653331 104.656733556 L -37.2227472777 103.813268994 L -37.6097967244 102.91932175 L -37.9833905239 101.97356377 L -38.3434156149 100.974689948 L -38.6897752334 99.9214650304 L -39.0223986377 98.8126858777 L -39.3412326409 97.6471834792 L -39.646255706 96.4238119606 L -39.9374631381 95.1414329344 L -40.2148782206 93.7989188613 L -40.4785446687 92.3951502252 L -40.728525755 90.9289998941 L -40.9649020368 89.3993466137 L -41.1877691593 87.805059611 L -41.3972325314 86.1450178877 L -41.5934135842 84.4180673206 L -41.7764502778 82.6230800189 L -41.946470855 80.7589035384 L -42.1036302123 78.8243764403 L -42.2480742429 76.8183495679 L -42.3799696302 74.7396433745 L -42.4994760146 72.5871092844 L -42.6067574715 70.3595488062 L -42.7019889754 68.0557980297 L -42.7853444578 65.6746623177 L -42.8569966697 63.2149591245 L -42.9171243302 60.6754886206 L -42.9659116762 58.0550584521 L -43.0035368998 55.3524692336 L -43.0301833507 52.5665201882 L -43.0460354829 49.6960051105 L -43.0512672873 46.7461526951 L -43.0393988301 45.5928135156 L -43.0040614303 44.461374762 L -42.9453367035 43.3453602516 L -42.8634377483 42.2445406339 L -42.7586324253 41.1586446378 L -42.6312421399 40.0873561713 L -42.4816375951 39.0303255634 L -42.3102340097 37.9871596962 L -42.1174952216 36.9574433658 L -41.9055661765 35.9485494146 L -41.4161588238 33.9440151075 L -40.8524267015 31.9935955055 L -40.2177951809 30.0849626735 L -39.5182113096 28.2136922485 L -38.7601263595 26.3752697287 L -37.9504417315 24.565130113 L -37.0964693211 22.7786942574 L -36.2058275451 21.0113853479 L -35.2876033073 19.2609440569 L -33.3916387474 15.775659866 L -31.4856598975 12.3092882302 A 1.5 1.5 0 0 0 -31.4757 12.2908L -29.6275062605 8.81497512774 A 1.5 1.5 0 0 0 -29.6125 8.78603L -28.7298259082 7.03519946716 A 1.5 1.5 0 0 0 -28.7165 7.00814L -27.8709094755 5.24347928725 A 1.5 1.5 0 0 0 -27.8558 5.21093L -27.0536934791 3.42889715058 A 1.5 1.5 0 0 0 -27.0374 3.39134L -26.2845246551 1.58878144471 A 1.5 1.5 0 0 0 -26.2678 1.5469L -25.5689038475 -0.278875720635 A 1.5 1.5 0 0 0 -25.5524 -0.324198L -24.9112707968 -2.17531664107 A 1.5 1.5 0 0 0 -24.8956 -2.22298L -24.3147896545 -4.10095653179 A 1.5 1.5 0 0 0 -24.3006 -4.14979L -23.781241922 -6.05547704577 A 1.5 1.5 0 0 0 -23.7688 -6.10434L -23.3110593135 -8.03798432576 A 1.5 1.5 0 0 0 -23.3005 -8.08587L -22.903460505 -10.047130835 A 1.5 1.5 0 0 0 -22.8949 -10.0932L -22.5565926224 -12.0811712534 A 1.5 1.5 0 0 0 -22.5499 -12.1246L -22.2676831746 -14.1380312379 A 1.5 1.5 0 0 0 -22.2626 -14.1784L -22.0332037916 -16.2153549217 A 1.5 1.5 0 0 0 -22.0295 -16.2522L -21.8490365016 -18.3105698985 A 1.5 1.5 0 0 0 -21.8465 -18.3437L -21.7106866788 -20.4209783335 A 1.5 1.5 0 0 0 -21.7091 -20.4504L -21.6135022929 -22.5438546936 A 1.5 1.5 0 0 0 -21.6125 -22.5698L -21.5528890491 -24.6765082584 A 1.5 1.5 0 0 0 -21.5524 -24.6992L -21.5245175935 -26.8163682125 A 1.5 1.5 0 0 0 -21.5244 -26.8362L -21.5245323216 -28.9610722565 A 1.5 1.5 0 0 0 -21.5246 -28.9786L -21.5497121796 -31.1085059039 A 1.5 1.5 0 0 0 -21.5502 -31.1315L -21.6657286227 -35.3967532982 A 1.5 1.5 0 0 0 -21.6667 -35.4237L -21.8587526163 -39.6817672408 A 1.5 1.5 0 0 0 -21.8601 -39.7062L -22.1203645782 -43.9407934263 A 1.5 1.5 0 0 0 -22.122 -43.964L -22.4451462444 -48.159461133 A 1.5 1.5 0 0 0 -22.4471 -48.1822L -22.8294506691 -52.3235016864 A 1.5 1.5 0 0 0 -22.8318 -52.3467L -23.2717108084 -56.4197400938 A 1.5 1.5 0 0 0 -23.2738 -56.438L -23.5154948556 -58.4449451267 A 1.5 1.5 0 0 0 -23.5171 -58.4578L -23.7736681793 -60.4431343776 A 1.5 1.5 0 0 0 -23.7755 -60.4567L -24.0473480646 -62.4190717505 A 1.5 1.5 0 0 0 -24.0494 -62.4334L -24.33707227 -64.3716626107 A 1.5 1.5 0 0 0 -24.3394 -64.3869L -24.6434196183 -66.2998959619 A 1.5 1.5 0 0 0 -24.6461 -66.316L -24.9669728042 -68.2028202579 A 1.5 1.5 0 0 0 -24.97 -68.2198L -25.3082837624 -70.0795786559 A 1.5 1.5 0 0 0 -25.3116 -70.0974L -25.6678586566 -71.9293941113 A 1.5 1.5 0 0 0 -25.6716 -71.9481L -26.0461288726 -73.7515903369 A 1.5 1.5 0 0 0 -26.0503 -73.7711L -26.4434658179 -75.5456090717 A 1.5 1.5 0 0 0 -26.4481 -75.5658L -26.8601569584 -77.3110112099 A 1.5 1.5 0 0 0 -26.8653 -77.3319L -27.2924860223 -79.0319105835 " stroke="#191919" stroke-width="0.35 px" style="stroke-width:0.35;stroke-miterlimit:4;stroke-dasharray:none;fill:none;fill-rule: evenodd "/>
<title>Offset2D</title>
</g>
</svg>