  0
SECTION
  2
HEADER
  9
$ACADVER
  1
AC1014
  9
$HANDSEED
  5
FFFF
  9
$MEASUREMENT
 70
     1
  0
ENDSEC
  0
SECTION
  2
TABLES
  0
TABLE
  2
VPORT
  5
8
330
0
100
AcDbSymbolTable
 70
     4
  0
VPORT
  5
2E
330
8
100
AcDbSymbolTableRecord
100
AcDbViewportTableRecord
  2
*ACTIVE
 70
     0
 10
0.0
 20
0.0
 11
1.0
 21
1.0
 12
210.0
 22
148.5
 13
0.0
 23
0.0
 14
10.0
 24
10.0
 15
10.0
 25
10.0
 16
0.0
 26
0.0
 36
1.0
 17
0.0
 27
0.0
 37
0.0
 40
341.0
 41
1.24
 42
50.0
 43
0.0
 44
0.0
 50
0.0
 51
0.0
 71
     0
 72
   100
 73
     1
 74
     3
 75
     0
 76
     0
 77
     0
 78
     0
  0
ENDTAB
  0
TABLE
  2
LTYPE
  5
5
330
0
100
AcDbSymbolTable
 70
     1
  0
LTYPE
  5
14
330
5
100
AcDbSymbolTableRecord
100
AcDbLinetypeTableRecord
  2
BYBLOCK
 70
     0
  3

 72
    65
 73
     0
 40
0.0
  0
LTYPE
  5
15
330
5
100
AcDbSymbolTableRecord
100
AcDbLinetypeTableRecord
  2
BYLAYER
 70
     0
  3

 72
    65
 73
     0
 40
0.0
  0
LTYPE
  5
16
330
5
100
AcDbSymbolTableRecord
100
AcDbLinetypeTableRecord
  2
CONTINUOUS
 70
     0
  3
Solid line
 72
    65
 73
     0
 40
0.0
  0
ENDTAB
  0
TABLE
  2
LAYER
  5
2
100
AcDbSymbolTable
 70
2
  0
LAYER
  5
50
100
AcDbSymbolTableRecord
100
AcDbLayerTableRecord
  2
0
 70
0
  6
CONTINUOUS
  0
LAYER
  5
51
100
AcDbSymbolTableRecord
100
AcDbLayerTableRecord
  2
Capa_1
 70
0
  6
CONTINUOUS
  0
ENDTAB
  0
TABLE
  2
STYLE
  5
3
330
0
100
AcDbSymbolTable
 70
     1
  0
STYLE
  5
11
330
3
100
AcDbSymbolTableRecord
100
AcDbTextStyleTableRecord
  2
STANDARD
 70
     0
 40
0.0
 41
1.0
 50
0.0
 71
     0
 42
2.5
  3
txt
  4

  0
ENDTAB
  0
TABLE
  2
VIEW
  5
6
330
0
100
AcDbSymbolTable
 70
     0
  0
ENDTAB
  0
TABLE
  2
UCS
  5
7
330
0
100
AcDbSymbolTable
 70
     0
  0
ENDTAB
  0
TABLE
  2
APPID
  5
9
330
0
100
AcDbSymbolTable
 70
     2
  0
APPID
  5
12
330
9
100
AcDbSymbolTableRecord
100
AcDbRegAppTableRecord
  2
ACAD
 70
     0
  0
ENDTAB
  0
TABLE
  2
DIMSTYLE
  5
A
330
0
100
AcDbSymbolTable
 70
     1
  0
DIMSTYLE
105
27
330
A
100
AcDbSymbolTableRecord
100
AcDbDimStyleTableRecord
  2
ISO-25
 70
     0
  3

  4

  5

  6

  7

 40
1.0
 41
2.5
 42
0.625
 43
3.75
 44
1.25
 45
0.0
 46
0.0
 47
0.0
 48
0.0
140
2.5
141
2.5
142
0.0
143
0.03937007874016
144
1.0
145
0.0
146
1.0
147
0.625
 71
     0
 72
     0
 73
     0
 74
     0
 75
     0
 76
     0
 77
     1
 78
     8
170
     0
171
     3
172
     1
173
     0
174
     0
175
     0
176
     0
177
     0
178
     0
270
     2
271
     2
272
     2
273
     2
274
     3
340
11
275
     0
280
     0
281
     0
282
     0
283
     0
284
     8
285
     0
286
     0
287
     3
288
     0
  0
ENDTAB
  0
TABLE
  2
BLOCK_RECORD
  5
1
330
0
100
AcDbSymbolTable
 70
     1
  0
BLOCK_RECORD
  5
1F
330
1
100
AcDbSymbolTableRecord
100
AcDbBlockTableRecord
  2
*MODEL_SPACE
  0
BLOCK_RECORD
  5
1B
330
1
100
AcDbSymbolTableRecord
100
AcDbBlockTableRecord
  2
*PAPER_SPACE
  0
ENDTAB
  0
ENDSEC
  0
SECTION
  2
BLOCKS
  0
BLOCK
  5
20
330
1F
100
AcDbEntity
  8
0
100
AcDbBlockBegin
  2
*MODEL_SPACE
 70
     0
 10
0.0
 20
0.0
 30
0.0
  3
*MODEL_SPACE
  1

  0
ENDBLK
  5
21
330
1F
100
AcDbEntity
  8
0
100
AcDbBlockEnd
  0
BLOCK
  5
1C
330
1B
100
AcDbEntity
 67
     1
  8
0
100
AcDbBlockBegin
  2
*PAPER_SPACE
  1

  0
ENDBLK
  5
1D
330
1B
100
AcDbEntity
 67
     1
  8
0
100
AcDbBlockEnd
  0
ENDSEC
  0
SECTION
  2
ENTITIES
  0
LWPOLYLINE
  5
100
100
AcDbEntity
  8
Capa_1
 62
1
100
AcDbPolyline
 90
4
 70
1
 10
140.939424
 20
54.623029
 30
0.0
 10
140.939424
 20
54.623029
 30
0.0
 10
140.752178
 20
56.521466
 30
0.0
 10
140.752178
 20
56.521466
 30
0.0
  0
LWPOLYLINE
  5
101
100
AcDbEntity
  8
Capa_1
 62
1
100
AcDbPolyline
 90
4
 70
1
 10
140.598484
 20
58.397359
 30
0.0
 10
140.598484
 20
58.397359
 30
0.0
 10
140.752178
 20
56.521466
 30
0.0
 10
140.752178
 20
56.521466
 30
0.0
  0
LWPOLYLINE
  5
102
100
AcDbEntity
  8
Capa_1
 62
1
100
AcDbPolyline
 90
4
 70
1
 10
140.477888
 20
60.251698
 30
0.0
 10
140.477888
 20
60.251698
 30
0.0
 10
140.598484
 20
58.397359
 30
0.0
 10
140.598484
 20
58.397359
 30
0.0
  0
LWPOLYLINE
  5
103
100
AcDbEntity
  8
Capa_1
 62
1
100
AcDbPolyline
 90
4
 70
1
 10
140.389683
 20
62.086018
 30
0.0
 10
140.389683
 20
62.086018
 30
0.0
 10
140.477893
 20
60.251698
 30
0.0
 10
140.477893
 20
60.251698
 30
0.0
  0
LWPOLYLINE
  5
104
100
AcDbEntity
  8
Capa_1
 62
1
100
AcDbPolyline
 90
4
 70
1
 10
140.332920
 20
63.902356
 30
0.0
 10
140.332920
 20
63.902356
 30
0.0
 10
140.389680
 20
62.086018
 30
0.0
 10
140.389680
 20
62.086018
 30
0.0
  0
LWPOLYLINE
  5
105
100
AcDbEntity
  8
Capa_1
 62
1
100
AcDbPolyline
 90
4
 70
1
 10
140.306440
 20
65.703206
 30
0.0
 10
140.306440
 20
65.703206
 30
0.0
 10
140.332920
 20
63.902356
 30
0.0
 10
140.332920
 20
63.902356
 30
0.0
  0
LWPOLYLINE
  5
106
100
AcDbEntity
  8
Capa_1
 62
1
100
AcDbPolyline
 90
4
 70
1
 10
140.308880
 20
67.491475
 30
0.0
 10
140.308880
 20
67.491475
 30
0.0
 10
140.306480
 20
65.703206
 30
0.0
 10
140.306480
 20
65.703206
 30
0.0
  0
LWPOLYLINE
  5
107
100
AcDbEntity
  8
Capa_1
 62
1
100
AcDbPolyline
 90
4
 70
1
 10
140.338709
 20
69.270459
 30
0.0
 10
140.338709
 20
69.270459
 30
0.0
 10
140.308879
 20
67.491475
 30
0.0
 10
140.308879
 20
67.491475
 30
0.0
  0
LWPOLYLINE
  5
108
100
AcDbEntity
  8
Capa_1
 62
1
100
AcDbPolyline
 90
4
 70
1
 10
140.473696
 20
72.815029
 30
0.0
 10
140.473696
 20
72.815029
 30
0.0
 10
140.338709
 20
69.270459
 30
0.0
 10
140.338709
 20
69.270459
 30
0.0
  0
LWPOLYLINE
  5
109
100
AcDbEntity
  8
Capa_1
 62
1
100
AcDbPolyline
 90
4
 70
1
 10
140.696859
 20
76.367412
 30
0.0
 10
140.696859
 20
76.367412
 30
0.0
 10
140.473696
 20
72.815029
 30
0.0
 10
140.473696
 20
72.815029
 30
0.0
  0
LWPOLYLINE
  5
10a
100
AcDbEntity
  8
Capa_1
 62
1
100
AcDbPolyline
 90
4
 70
1
 10
140.993059
 20
79.958439
 30
0.0
 10
140.993059
 20
79.958439
 30
0.0
 10
140.696859
 20
76.367412
 30
0.0
 10
140.696859
 20
76.367412
 30
0.0
  0
LWPOLYLINE
  5
10b
100
AcDbEntity
  8
Capa_1
 62
1
100
AcDbPolyline
 90
4
 70
1
 10
141.347639
 20
83.616539
 30
0.0
 10
141.347639
 20
83.616539
 30
0.0
 10
140.993059
 20
79.958439
 30
0.0
 10
140.993059
 20
79.958439
 30
0.0
  0
LWPOLYLINE
  5
10c
100
AcDbEntity
  8
Capa_1
 62
1
100
AcDbPolyline
 90
4
 70
1
 10
141.542520
 20
85.478596
 30
0.0
 10
141.542520
 20
85.478596
 30
0.0
 10
141.347639
 20
83.616539
 30
0.0
 10
141.347639
 20
83.616539
 30
0.0
  0
LWPOLYLINE
  5
10d
100
AcDbEntity
  8
Capa_1
 62
1
100
AcDbPolyline
 90
4
 70
1
 10
141.746984
 20
87.366333
 30
0.0
 10
141.746984
 20
87.366333
 30
0.0
 10
141.542520
 20
85.478596
 30
0.0
 10
141.542520
 20
85.478596
 30
0.0
  0
LWPOLYLINE
  5
10e
100
AcDbEntity
  8
Capa_1
 62
1
100
AcDbPolyline
 90
4
 70
1
 10
141.959528
 20
89.282181
 30
0.0
 10
141.959528
 20
89.282181
 30
0.0
 10
141.746984
 20
87.366333
 30
0.0
 10
141.746984
 20
87.366333
 30
0.0
  0
LWPOLYLINE
  5
10f
100
AcDbEntity
  8
Capa_1
 62
1
100
AcDbPolyline
 90
4
 70
1
 10
142.178720
 20
91.228279
 30
0.0
 10
142.178720
 20
91.228279
 30
0.0
 10
141.959528
 20
89.282181
 30
0.0
 10
141.959528
 20
89.282181
 30
0.0
  0
LWPOLYLINE
  5
110
100
AcDbEntity
  8
Capa_1
 62
1
100
AcDbPolyline
 90
4
 70
1
 10
142.403238
 20
93.206470
 30
0.0
 10
142.403238
 20
93.206470
 30
0.0
 10
142.178720
 20
91.228279
 30
0.0
 10
142.178720
 20
91.228279
 30
0.0
  0
LWPOLYLINE
  5
111
100
AcDbEntity
  8
Capa_1
 62
1
100
AcDbPolyline
 90
4
 70
1
 10
142.631906
 20
95.218143
 30
0.0
 10
142.631906
 20
95.218143
 30
0.0
 10
142.403238
 20
93.206470
 30
0.0
 10
142.403238
 20
93.206470
 30
0.0
  0
LWPOLYLINE
  5
112
100
AcDbEntity
  8
Capa_1
 62
1
100
AcDbPolyline
 90
4
 70
1
 10
142.863775
 20
97.264019
 30
0.0
 10
142.863775
 20
97.264019
 30
0.0
 10
142.631906
 20
95.218143
 30
0.0
 10
142.631906
 20
95.218143
 30
0.0
  0
LWPOLYLINE
  5
113
100
AcDbEntity
  8
Capa_1
 62
1
100
AcDbPolyline
 90
4
 70
1
 10
143.098200
 20
99.343971
 30
0.0
 10
143.098200
 20
99.343971
 30
0.0
 10
142.863775
 20
97.264019
 30
0.0
 10
142.863775
 20
97.264019
 30
0.0
  0
LWPOLYLINE
  5
114
100
AcDbEntity
  8
Capa_1
 62
1
100
AcDbPolyline
 90
4
 70
1
 10
143.334917
 20
101.456791
 30
0.0
 10
143.334917
 20
101.456791
 30
0.0
 10
143.098200
 20
99.343971
 30
0.0
 10
143.098200
 20
99.343971
 30
0.0
  0
LWPOLYLINE
  5
115
100
AcDbEntity
  8
Capa_1
 62
1
100
AcDbPolyline
 90
4
 70
1
 10
143.574106
 20
103.600006
 30
0.0
 10
143.574106
 20
103.600006
 30
0.0
 10
143.334917
 20
101.456791
 30
0.0
 10
143.334917
 20
101.456791
 30
0.0
  0
LWPOLYLINE
  5
116
100
AcDbEntity
  8
Capa_1
 62
1
100
AcDbPolyline
 90
4
 70
1
 10
144.063284
 20
107.960419
 30
0.0
 10
144.063284
 20
107.960419
 30
0.0
 10
143.574106
 20
103.600006
 30
0.0
 10
143.574106
 20
103.600006
 30
0.0
  0
LWPOLYLINE
  5
117
100
AcDbEntity
  8
Capa_1
 62
1
100
AcDbPolyline
 90
4
 70
1
 10
144.577032
 20
112.377987
 30
0.0
 10
144.577032
 20
112.377987
 30
0.0
 10
144.063284
 20
107.960419
 30
0.0
 10
144.063284
 20
107.960419
 30
0.0
  0
LWPOLYLINE
  5
118
100
AcDbEntity
  8
Capa_1
 62
1
100
AcDbPolyline
 90
4
 70
1
 10
145.131575
 20
116.791439
 30
0.0
 10
145.131575
 20
116.791439
 30
0.0
 10
144.577032
 20
112.377987
 30
0.0
 10
144.577032
 20
112.377987
 30
0.0
  0
LWPOLYLINE
  5
119
100
AcDbEntity
  8
Capa_1
 62
1
100
AcDbPolyline
 90
4
 70
1
 10
145.429682
 20
118.975998
 30
0.0
 10
145.429682
 20
118.975998
 30
0.0
 10
145.131575
 20
116.791439
 30
0.0
 10
145.131575
 20
116.791439
 30
0.0
  0
LWPOLYLINE
  5
11a
100
AcDbEntity
  8
Capa_1
 62
1
100
AcDbPolyline
 90
4
 70
1
 10
145.744497
 20
121.135058
 30
0.0
 10
145.744497
 20
121.135058
 30
0.0
 10
145.429682
 20
118.975998
 30
0.0
 10
145.429682
 20
118.975998
 30
0.0
  0
LWPOLYLINE
  5
11b
100
AcDbEntity
  8
Capa_1
 62
1
100
AcDbPolyline
 90
4
 70
1
 10
146.077860
 20
123.261252
 30
0.0
 10
146.077860
 20
123.261252
 30
0.0
 10
145.744497
 20
121.135058
 30
0.0
 10
145.744497
 20
121.135058
 30
0.0
  0
LWPOLYLINE
  5
11c
100
AcDbEntity
  8
Capa_1
 62
1
100
AcDbPolyline
 90
4
 70
1
 10
146.431288
 20
125.348052
 30
0.0
 10
146.431288
 20
125.348052
 30
0.0
 10
146.077860
 20
123.261252
 30
0.0
 10
146.077860
 20
123.261252
 30
0.0
  0
LWPOLYLINE
  5
11d
100
AcDbEntity
  8
Capa_1
 62
1
100
AcDbPolyline
 90
4
 70
1
 10
146.805891
 20
127.390034
 30
0.0
 10
146.805891
 20
127.390034
 30
0.0
 10
146.431288
 20
125.348052
 30
0.0
 10
146.431288
 20
125.348052
 30
0.0
  0
LWPOLYLINE
  5
11e
100
AcDbEntity
  8
Capa_1
 62
1
100
AcDbPolyline
 90
4
 70
1
 10
147.202253
 20
129.383143
 30
0.0
 10
147.202253
 20
129.383143
 30
0.0
 10
146.805891
 20
127.390034
 30
0.0
 10
146.805891
 20
127.390034
 30
0.0
  0
LWPOLYLINE
  5
11f
100
AcDbEntity
  8
Capa_1
 62
1
100
AcDbPolyline
 90
4
 70
1
 10
147.620363
 20
131.324943
 30
0.0
 10
147.620363
 20
131.324943
 30
0.0
 10
147.202253
 20
129.383143
 30
0.0
 10
147.202253
 20
129.383143
 30
0.0
  0
LWPOLYLINE
  5
120
100
AcDbEntity
  8
Capa_1
 62
1
100
AcDbPolyline
 90
4
 70
1
 10
148.059526
 20
133.214839
 30
0.0
 10
148.059526
 20
133.214839
 30
0.0
 10
147.620363
 20
131.324943
 30
0.0
 10
147.620363
 20
131.324943
 30
0.0
  0
LWPOLYLINE
  5
121
100
AcDbEntity
  8
Capa_1
 62
1
100
AcDbPolyline
 90
4
 70
1
 10
148.518385
 20
135.054047
 30
0.0
 10
148.518385
 20
135.054047
 30
0.0
 10
148.059526
 20
133.214839
 30
0.0
 10
148.059526
 20
133.214839
 30
0.0
  0
LWPOLYLINE
  5
122
100
AcDbEntity
  8
Capa_1
 62
1
100
AcDbPolyline
 90
4
 70
1
 10
148.994982
 20
136.845383
 30
0.0
 10
148.994982
 20
136.845383
 30
0.0
 10
148.518385
 20
135.054047
 30
0.0
 10
148.518385
 20
135.054047
 30
0.0
  0
LWPOLYLINE
  5
123
100
AcDbEntity
  8
Capa_1
 62
1
100
AcDbPolyline
 90
4
 70
1
 10
149.486887
 20
138.593001
 30
0.0
 10
149.486887
 20
138.593001
 30
0.0
 10
148.994982
 20
136.845383
 30
0.0
 10
148.994982
 20
136.845383
 30
0.0
  0
LWPOLYLINE
  5
124
100
AcDbEntity
  8
Capa_1
 62
1
100
AcDbPolyline
 90
4
 70
1
 10
149.991258
 20
140.302161
 30
0.0
 10
149.991258
 20
140.302161
 30
0.0
 10
149.486887
 20
138.593001
 30
0.0
 10
149.486887
 20
138.593001
 30
0.0
  0
LWPOLYLINE
  5
125
100
AcDbEntity
  8
Capa_1
 62
1
100
AcDbPolyline
 90
4
 70
1
 10
151.024618
 20
143.630173
 30
0.0
 10
151.024618
 20
143.630173
 30
0.0
 10
149.991258
 20
140.302161
 30
0.0
 10
149.991258
 20
140.302161
 30
0.0
  0
LWPOLYLINE
  5
126
100
AcDbEntity
  8
Capa_1
 62
1
100
AcDbPolyline
 90
4
 70
1
 10
152.067736
 20
146.884696
 30
0.0
 10
152.067736
 20
146.884696
 30
0.0
 10
151.024618
 20
143.630173
 30
0.0
 10
151.024618
 20
143.630173
 30
0.0
  0
LWPOLYLINE
  5
127
100
AcDbEntity
  8
Capa_1
 62
1
100
AcDbPolyline
 90
4
 70
1
 10
153.091371
 20
150.127016
 30
0.0
 10
153.091371
 20
150.127016
 30
0.0
 10
152.067736
 20
146.884696
 30
0.0
 10
152.067736
 20
146.884696
 30
0.0
  0
LWPOLYLINE
  5
128
100
AcDbEntity
  8
Capa_1
 62
1
100
AcDbPolyline
 90
4
 70
1
 10
153.586397
 20
151.763956
 30
0.0
 10
153.586397
 20
151.763956
 30
0.0
 10
153.091371
 20
150.127016
 30
0.0
 10
153.091371
 20
150.127016
 30
0.0
  0
LWPOLYLINE
  5
129
100
AcDbEntity
  8
Capa_1
 62
1
100
AcDbPolyline
 90
4
 70
1
 10
154.065077
 20
153.422678
 30
0.0
 10
154.065077
 20
153.422678
 30
0.0
 10
153.586397
 20
151.763956
 30
0.0
 10
153.586397
 20
151.763956
 30
0.0
  0
LWPOLYLINE
  5
12a
100
AcDbEntity
  8
Capa_1
 62
1
100
AcDbPolyline
 90
4
 70
1
 10
154.523523
 20
155.111789
 30
0.0
 10
154.523523
 20
155.111789
 30
0.0
 10
154.065077
 20
153.422678
 30
0.0
 10
154.065077
 20
153.422678
 30
0.0
  0
LWPOLYLINE
  5
12b
100
AcDbEntity
  8
Capa_1
 62
1
100
AcDbPolyline
 90
4
 70
1
 10
154.957888
 20
156.839908
 30
0.0
 10
154.957888
 20
156.839908
 30
0.0
 10
154.523523
 20
155.111789
 30
0.0
 10
154.523523
 20
155.111789
 30
0.0
  0
LWPOLYLINE
  5
12c
100
AcDbEntity
  8
Capa_1
 62
1
100
AcDbPolyline
 90
4
 70
1
 10
155.364397
 20
158.615538
 30
0.0
 10
155.364397
 20
158.615538
 30
0.0
 10
154.957888
 20
156.839908
 30
0.0
 10
154.957888
 20
156.839908
 30
0.0
  0
LWPOLYLINE
  5
12d
100
AcDbEntity
  8
Capa_1
 62
1
100
AcDbPolyline
 90
4
 70
1
 10
155.739416
 20
160.446926
 30
0.0
 10
155.739416
 20
160.446926
 30
0.0
 10
155.364397
 20
158.615538
 30
0.0
 10
155.364397
 20
158.615538
 30
0.0
  0
LWPOLYLINE
  5
12e
100
AcDbEntity
  8
Capa_1
 62
1
100
AcDbPolyline
 90
4
 70
1
 10
156.079500
 20
162.341935
 30
0.0
 10
156.079500
 20
162.341935
 30
0.0
 10
155.739416
 20
160.446926
 30
0.0
 10
155.739416
 20
160.446926
 30
0.0
  0
LWPOLYLINE
  5
12f
100
AcDbEntity
  8
Capa_1
 62
1
100
AcDbPolyline
 90
4
 70
1
 10
156.381433
 20
164.307914
 30
0.0
 10
156.381433
 20
164.307914
 30
0.0
 10
156.079500
 20
162.341935
 30
0.0
 10
156.079500
 20
162.341935
 30
0.0
  0
LWPOLYLINE
  5
130
100
AcDbEntity
  8
Capa_1
 62
1
100
AcDbPolyline
 90
4
 70
1
 10
156.642305
 20
166.351554
 30
0.0
 10
156.642305
 20
166.351554
 30
0.0
 10
156.381433
 20
164.307914
 30
0.0
 10
156.381433
 20
164.307914
 30
0.0
  0
LWPOLYLINE
  5
131
100
AcDbEntity
  8
Capa_1
 62
1
100
AcDbPolyline
 90
4
 70
1
 10
156.859541
 20
168.478791
 30
0.0
 10
156.859541
 20
168.478791
 30
0.0
 10
156.642305
 20
166.351554
 30
0.0
 10
156.642305
 20
166.351554
 30
0.0
  0
LWPOLYLINE
  5
132
100
AcDbEntity
  8
Capa_1
 62
1
100
AcDbPolyline
 90
4
 70
1
 10
157.030939
 20
170.694694
 30
0.0
 10
157.030939
 20
170.694694
 30
0.0
 10
156.859541
 20
168.478791
 30
0.0
 10
156.859541
 20
168.478791
 30
0.0
  0
LWPOLYLINE
  5
133
100
AcDbEntity
  8
Capa_1
 62
1
100
AcDbPolyline
 90
4
 70
1
 10
157.154718
 20
173.003389
 30
0.0
 10
157.154718
 20
173.003389
 30
0.0
 10
157.030939
 20
170.694694
 30
0.0
 10
157.030939
 20
170.694694
 30
0.0
  0
LWPOLYLINE
  5
134
100
AcDbEntity
  8
Capa_1
 62
1
100
AcDbPolyline
 90
4
 70
1
 10
157.198313
 20
174.193536
 30
0.0
 10
157.198313
 20
174.193536
 30
0.0
 10
157.154723
 20
173.003389
 30
0.0
 10
157.154723
 20
173.003389
 30
0.0
  0
LWPOLYLINE
  5
135
100
AcDbEntity
  8
Capa_1
 62
1
100
AcDbPolyline
 90
4
 70
1
 10
157.229544
 20
175.407949
 30
0.0
 10
157.229544
 20
175.407949
 30
0.0
 10
157.198314
 20
174.193536
 30
0.0
 10
157.198314
 20
174.193536
 30
0.0
  0
LWPOLYLINE
  5
136
100
AcDbEntity
  8
Capa_1
 62
1
100
AcDbPolyline
 90
4
 70
1
 10
157.248320
 20
176.646835
 30
0.0
 10
157.248320
 20
176.646835
 30
0.0
 10
157.229540
 20
175.407949
 30
0.0
 10
157.229540
 20
175.407949
 30
0.0
  0
LWPOLYLINE
  5
137
100
AcDbEntity
  8
Capa_1
 62
1
100
AcDbPolyline
 90
8
 70
1
 10
157.254583
 20
177.910322
 30
0.0
 10
157.254583
 20
177.910322
 30
0.0
 10
157.248283
 20
176.646835
 30
0.0
 10
157.248283
 20
176.646835
 30
0.0
 10
157.254583
 20
177.910322
 30
0.0
 10
157.254583
 20
177.910322
 30
0.0
 10
157.254446
 20
179.997659
 30
0.0
 10
157.254446
 20
179.997659
 30
0.0
  0
LWPOLYLINE
  5
138
100
AcDbEntity
  8
Capa_1
 62
1
100
AcDbPolyline
 90
4
 70
1
 10
157.253492
 20
181.991960
 30
0.0
 10
157.253492
 20
181.991960
 30
0.0
 10
157.254446
 20
179.997659
 30
0.0
 10
157.254446
 20
179.997659
 30
0.0
  0
LWPOLYLINE
  5
139
100
AcDbEntity
  8
Capa_1
 62
1
100
AcDbPolyline
 90
4
 70
1
 10
157.250940
 20
183.897707
 30
0.0
 10
157.250940
 20
183.897707
 30
0.0
 10
157.253540
 20
181.991960
 30
0.0
 10
157.253540
 20
181.991960
 30
0.0
  0
LWPOLYLINE
  5
13a
100
AcDbEntity
  8
Capa_1
 62
1
100
AcDbPolyline
 90
4
 70
1
 10
157.246046
 20
185.719240
 30
0.0
 10
157.246046
 20
185.719240
 30
0.0
 10
157.250946
 20
183.897707
 30
0.0
 10
157.250946
 20
183.897707
 30
0.0
  0
LWPOLYLINE
  5
13b
100
AcDbEntity
  8
Capa_1
 62
1
100
AcDbPolyline
 90
4
 70
1
 10
157.238108
 20
187.460756
 30
0.0
 10
157.238108
 20
187.460756
 30
0.0
 10
157.246008
 20
185.719240
 30
0.0
 10
157.246008
 20
185.719240
 30
0.0
  0
LWPOLYLINE
  5
13c
100
AcDbEntity
  8
Capa_1
 62
1
100
AcDbPolyline
 90
4
 70
1
 10
157.226454
 20
189.126322
 30
0.0
 10
157.226454
 20
189.126322
 30
0.0
 10
157.238104
 20
187.460756
 30
0.0
 10
157.238104
 20
187.460756
 30
0.0
  0
LWPOLYLINE
  5
13d
100
AcDbEntity
  8
Capa_1
 62
1
100
AcDbPolyline
 90
4
 70
1
 10
157.210447
 20
190.719850
 30
0.0
 10
157.210447
 20
190.719850
 30
0.0
 10
157.226457
 20
189.126322
 30
0.0
 10
157.226457
 20
189.126322
 30
0.0
  0
LWPOLYLINE
  5
13e
100
AcDbEntity
  8
Capa_1
 62
1
100
AcDbPolyline
 90
4
 70
1
 10
157.189493
 20
192.245134
 30
0.0
 10
157.189493
 20
192.245134
 30
0.0
 10
157.210443
 20
190.719850
 30
0.0
 10
157.210443
 20
190.719850
 30
0.0
  0
LWPOLYLINE
  5
13f
100
AcDbEntity
  8
Capa_1
 62
1
100
AcDbPolyline
 90
4
 70
1
 10
157.163023
 20
193.705820
 30
0.0
 10
157.163023
 20
193.705820
 30
0.0
 10
157.189493
 20
192.245134
 30
0.0
 10
157.189493
 20
192.245134
 30
0.0
  0
LWPOLYLINE
  5
140
100
AcDbEntity
  8
Capa_1
 62
1
100
AcDbPolyline
 90
4
 70
1
 10
157.130514
 20
195.105436
 30
0.0
 10
157.130514
 20
195.105436
 30
0.0
 10
157.163024
 20
193.705820
 30
0.0
 10
157.163024
 20
193.705820
 30
0.0
  0
LWPOLYLINE
  5
141
100
AcDbEntity
  8
Capa_1
 62
1
100
AcDbPolyline
 90
4
 70
1
 10
157.091459
 20
196.447378
 30
0.0
 10
157.091459
 20
196.447378
 30
0.0
 10
157.130509
 20
195.105436
 30
0.0
 10
157.130509
 20
195.105436
 30
0.0
  0
LWPOLYLINE
  5
142
100
AcDbEntity
  8
Capa_1
 62
1
100
AcDbPolyline
 90
4
 70
1
 10
157.045400
 20
197.734911
 30
0.0
 10
157.045400
 20
197.734911
 30
0.0
 10
157.091460
 20
196.447378
 30
0.0
 10
157.091460
 20
196.447378
 30
0.0
  0
LWPOLYLINE
  5
143
100
AcDbEntity
  8
Capa_1
 62
1
100
AcDbPolyline
 90
4
 70
1
 10
156.991896
 20
198.971189
 30
0.0
 10
156.991896
 20
198.971189
 30
0.0
 10
157.045396
 20
197.734911
 30
0.0
 10
157.045396
 20
197.734911
 30
0.0
  0
LWPOLYLINE
  5
144
100
AcDbEntity
  8
Capa_1
 62
1
100
AcDbPolyline
 90
4
 70
1
 10
156.930548
 20
200.159231
 30
0.0
 10
156.930548
 20
200.159231
 30
0.0
 10
156.991898
 20
198.971189
 30
0.0
 10
156.991898
 20
198.971189
 30
0.0
  0
LWPOLYLINE
  5
145
100
AcDbEntity
  8
Capa_1
 62
1
100
AcDbPolyline
 90
4
 70
1
 10
156.860979
 20
201.301950
 30
0.0
 10
156.860979
 20
201.301950
 30
0.0
 10
156.930549
 20
200.159231
 30
0.0
 10
156.930549
 20
200.159231
 30
0.0
  0
LWPOLYLINE
  5
146
100
AcDbEntity
  8
Capa_1
 62
1
100
AcDbPolyline
 90
4
 70
1
 10
156.782850
 20
202.402132
 30
0.0
 10
156.782850
 20
202.402132
 30
0.0
 10
156.860980
 20
201.301950
 30
0.0
 10
156.860980
 20
201.301950
 30
0.0
  0
LWPOLYLINE
  5
147
100
AcDbEntity
  8
Capa_1
 62
1
100
AcDbPolyline
 90
4
 70
1
 10
156.695837
 20
203.462457
 30
0.0
 10
156.695837
 20
203.462457
 30
0.0
 10
156.782847
 20
202.402132
 30
0.0
 10
156.782847
 20
202.402132
 30
0.0
  0
LWPOLYLINE
  5
148
100
AcDbEntity
  8
Capa_1
 62
1
100
AcDbPolyline
 90
4
 70
1
 10
156.599661
 20
204.485491
 30
0.0
 10
156.599661
 20
204.485491
 30
0.0
 10
156.695841
 20
203.462457
 30
0.0
 10
156.695841
 20
203.462457
 30
0.0
  0
LWPOLYLINE
  5
149
100
AcDbEntity
  8
Capa_1
 62
1
100
AcDbPolyline
 90
4
 70
1
 10
156.494058
 20
205.473688
 30
0.0
 10
156.494058
 20
205.473688
 30
0.0
 10
156.599661
 20
204.485491
 30
0.0
 10
156.599661
 20
204.485491
 30
0.0
  0
LWPOLYLINE
  5
14a
100
AcDbEntity
  8
Capa_1
 62
1
100
AcDbPolyline
 90
4
 70
1
 10
156.378790
 20
206.429399
 30
0.0
 10
156.378790
 20
206.429399
 30
0.0
 10
156.494058
 20
205.473688
 30
0.0
 10
156.494058
 20
205.473688
 30
0.0
  0
LWPOLYLINE
  5
14b
100
AcDbEntity
  8
Capa_1
 62
1
100
AcDbPolyline
 90
4
 70
1
 10
156.253652
 20
207.354871
 30
0.0
 10
156.253652
 20
207.354871
 30
0.0
 10
156.378790
 20
206.429399
 30
0.0
 10
156.378790
 20
206.429399
 30
0.0
  0
LWPOLYLINE
  5
14c
100
AcDbEntity
  8
Capa_1
 62
1
100
AcDbPolyline
 90
4
 70
1
 10
156.118463
 20
208.252241
 30
0.0
 10
156.118463
 20
208.252241
 30
0.0
 10
156.253652
 20
207.354871
 30
0.0
 10
156.253652
 20
207.354871
 30
0.0
  0
LWPOLYLINE
  5
14d
100
AcDbEntity
  8
Capa_1
 62
1
100
AcDbPolyline
 90
4
 70
1
 10
155.817304
 20
209.970766
 30
0.0
 10
155.817304
 20
209.970766
 30
0.0
 10
156.118463
 20
208.252241
 30
0.0
 10
156.118463
 20
208.252241
 30
0.0
  0
LWPOLYLINE
  5
14e
100
AcDbEntity
  8
Capa_1
 62
1
100
AcDbPolyline
 90
4
 70
1
 10
155.474325
 20
211.600168
 30
0.0
 10
155.474325
 20
211.600168
 30
0.0
 10
155.817304
 20
209.970766
 30
0.0
 10
155.817304
 20
209.970766
 30
0.0
  0
LWPOLYLINE
  5
14f
100
AcDbEntity
  8
Capa_1
 62
1
100
AcDbPolyline
 90
4
 70
1
 10
155.088877
 20
213.154138
 30
0.0
 10
155.088877
 20
213.154138
 30
0.0
 10
155.474325
 20
211.600168
 30
0.0
 10
155.474325
 20
211.600168
 30
0.0
  0
LWPOLYLINE
  5
150
100
AcDbEntity
  8
Capa_1
 62
1
100
AcDbPolyline
 90
4
 70
1
 10
154.660650
 20
214.644991
 30
0.0
 10
154.660650
 20
214.644991
 30
0.0
 10
155.088877
 20
213.154138
 30
0.0
 10
155.088877
 20
213.154138
 30
0.0
  0
LWPOLYLINE
  5
151
100
AcDbEntity
  8
Capa_1
 62
1
100
AcDbPolyline
 90
4
 70
1
 10
154.189642
 20
216.083673
 30
0.0
 10
154.189642
 20
216.083673
 30
0.0
 10
154.660650
 20
214.644991
 30
0.0
 10
154.660650
 20
214.644991
 30
0.0
  0
LWPOLYLINE
  5
152
100
AcDbEntity
  8
Capa_1
 62
1
100
AcDbPolyline
 90
4
 70
1
 10
153.676142
 20
217.479898
 30
0.0
 10
153.676142
 20
217.479898
 30
0.0
 10
154.189642
 20
216.083673
 30
0.0
 10
154.189642
 20
216.083673
 30
0.0
  0
LWPOLYLINE
  5
153
100
AcDbEntity
  8
Capa_1
 62
1
100
AcDbPolyline
 90
4
 70
1
 10
153.120684
 20
218.842172
 30
0.0
 10
153.120684
 20
218.842172
 30
0.0
 10
153.676142
 20
217.479898
 30
0.0
 10
153.676142
 20
217.479898
 30
0.0
  0
LWPOLYLINE
  5
154
100
AcDbEntity
  8
Capa_1
 62
1
100
AcDbPolyline
 90
4
 70
1
 10
152.524061
 20
220.177918
 30
0.0
 10
152.524061
 20
220.177918
 30
0.0
 10
153.120684
 20
218.842172
 30
0.0
 10
153.120684
 20
218.842172
 30
0.0
  0
LWPOLYLINE
  5
155
100
AcDbEntity
  8
Capa_1
 62
1
100
AcDbPolyline
 90
4
 70
1
 10
151.887274
 20
221.493493
 30
0.0
 10
151.887274
 20
221.493493
 30
0.0
 10
152.524061
 20
220.177918
 30
0.0
 10
152.524061
 20
220.177918
 30
0.0
  0
LWPOLYLINE
  5
156
100
AcDbEntity
  8
Capa_1
 62
1
100
AcDbPolyline
 90
4
 70
1
 10
151.211508
 20
222.794335
 30
0.0
 10
151.211508
 20
222.794335
 30
0.0
 10
151.887274
 20
221.493493
 30
0.0
 10
151.887274
 20
221.493493
 30
0.0
  0
LWPOLYLINE
  5
157
100
AcDbEntity
  8
Capa_1
 62
1
100
AcDbPolyline
 90
4
 70
1
 10
150.498136
 20
224.084954
 30
0.0
 10
150.498136
 20
224.084954
 30
0.0
 10
151.211508
 20
222.794335
 30
0.0
 10
151.211508
 20
222.794335
 30
0.0
  0
LWPOLYLINE
  5
158
100
AcDbEntity
  8
Capa_1
 62
1
100
AcDbPolyline
 90
4
 70
1
 10
149.748670
 20
225.369080
 30
0.0
 10
149.748670
 20
225.369080
 30
0.0
 10
150.498136
 20
224.084954
 30
0.0
 10
150.498136
 20
224.084954
 30
0.0
  0
LWPOLYLINE
  5
159
100
AcDbEntity
  8
Capa_1
 62
1
100
AcDbPolyline
 90
4
 70
1
 10
148.964743
 20
226.649705
 30
0.0
 10
148.964743
 20
226.649705
 30
0.0
 10
149.748670
 20
225.369080
 30
0.0
 10
149.748670
 20
225.369080
 30
0.0
  0
LWPOLYLINE
  5
15a
100
AcDbEntity
  8
Capa_1
 62
1
100
AcDbPolyline
 90
4
 70
1
 10
148.148092
 20
227.929154
 30
0.0
 10
148.148092
 20
227.929154
 30
0.0
 10
148.964743
 20
226.649705
 30
0.0
 10
148.964743
 20
226.649705
 30
0.0
  0
LWPOLYLINE
  5
15b
100
AcDbEntity
  8
Capa_1
 62
1
100
AcDbPolyline
 90
4
 70
1
 10
147.300535
 20
229.209168
 30
0.0
 10
147.300535
 20
229.209168
 30
0.0
 10
148.148092
 20
227.929154
 30
0.0
 10
148.148092
 20
227.929154
 30
0.0
  0
LWPOLYLINE
  5
15c
100
AcDbEntity
  8
Capa_1
 62
1
100
AcDbPolyline
 90
4
 70
1
 10
146.423948
 20
230.490990
 30
0.0
 10
146.423948
 20
230.490990
 30
0.0
 10
147.300535
 20
229.209168
 30
0.0
 10
147.300535
 20
229.209168
 30
0.0
  0
LWPOLYLINE
  5
15d
100
AcDbEntity
  8
Capa_1
 62
1
100
AcDbPolyline
 90
4
 70
1
 10
145.520235
 20
231.775414
 30
0.0
 10
145.520235
 20
231.775414
 30
0.0
 10
146.423948
 20
230.490990
 30
0.0
 10
146.423948
 20
230.490990
 30
0.0
  0
LWPOLYLINE
  5
15e
100
AcDbEntity
  8
Capa_1
 62
1
100
AcDbPolyline
 90
4
 70
1
 10
143.639070
 20
234.353562
 30
0.0
 10
143.639070
 20
234.353562
 30
0.0
 10
145.520235
 20
231.775414
 30
0.0
 10
145.520235
 20
231.775414
 30
0.0
  0
LWPOLYLINE
  5
15f
100
AcDbEntity
  8
Capa_1
 62
1
100
AcDbPolyline
 90
4
 70
1
 10
141.672079
 20
236.944184
 30
0.0
 10
141.672079
 20
236.944184
 30
0.0
 10
143.639070
 20
234.353562
 30
0.0
 10
143.639070
 20
234.353562
 30
0.0
  0
LWPOLYLINE
  5
160
100
AcDbEntity
  8
Capa_1
 62
1
100
AcDbPolyline
 90
4
 70
1
 10
139.633325
 20
239.545685
 30
0.0
 10
139.633325
 20
239.545685
 30
0.0
 10
141.672079
 20
236.944184
 30
0.0
 10
141.672079
 20
236.944184
 30
0.0
  0
LWPOLYLINE
  5
161
100
AcDbEntity
  8
Capa_1
 62
1
100
AcDbPolyline
 90
4
 70
1
 10
137.535061
 20
242.155938
 30
0.0
 10
137.535061
 20
242.155938
 30
0.0
 10
139.633325
 20
239.545685
 30
0.0
 10
139.633325
 20
239.545685
 30
0.0
  0
LWPOLYLINE
  5
162
100
AcDbEntity
  8
Capa_1
 62
1
100
AcDbPolyline
 90
4
 70
1
 10
135.386433
 20
244.772058
 30
0.0
 10
135.386433
 20
244.772058
 30
0.0
 10
137.535061
 20
242.155938
 30
0.0
 10
137.535061
 20
242.155938
 30
0.0
  0
LWPOLYLINE
  5
163
100
AcDbEntity
  8
Capa_1
 62
1
100
AcDbPolyline
 90
4
 70
1
 10
133.192107
 20
247.389438
 30
0.0
 10
133.192107
 20
247.389438
 30
0.0
 10
135.386433
 20
244.772058
 30
0.0
 10
135.386433
 20
244.772058
 30
0.0
  0
LWPOLYLINE
  5
164
100
AcDbEntity
  8
Capa_1
 62
1
100
AcDbPolyline
 90
4
 70
1
 10
130.950849
 20
250.000788
 30
0.0
 10
130.950849
 20
250.000788
 30
0.0
 10
133.192107
 20
247.389438
 30
0.0
 10
133.192107
 20
247.389438
 30
0.0
  0
LWPOLYLINE
  5
165
100
AcDbEntity
  8
Capa_1
 62
1
100
AcDbPolyline
 90
4
 70
1
 10
128.654126
 20
252.595158
 30
0.0
 10
128.654126
 20
252.595158
 30
0.0
 10
130.950849
 20
250.000788
 30
0.0
 10
130.950849
 20
250.000788
 30
0.0
  0
LWPOLYLINE
  5
166
100
AcDbEntity
  8
Capa_1
 62
1
100
AcDbPolyline
 90
4
 70
1
 10
126.284697
 20
255.156898
 30
0.0
 10
126.284697
 20
255.156898
 30
0.0
 10
128.654126
 20
252.595158
 30
0.0
 10
128.654126
 20
252.595158
 30
0.0
  0
LWPOLYLINE
  5
167
100
AcDbEntity
  8
Capa_1
 62
1
100
AcDbPolyline
 90
4
 70
1
 10
125.064605
 20
256.419148
 30
0.0
 10
125.064605
 20
256.419148
 30
0.0
 10
126.284697
 20
255.156898
 30
0.0
 10
126.284697
 20
255.156898
 30
0.0
  0
LWPOLYLINE
  5
168
100
AcDbEntity
  8
Capa_1
 62
1
100
AcDbPolyline
 90
4
 70
1
 10
123.815211
 20
257.664768
 30
0.0
 10
123.815211
 20
257.664768
 30
0.0
 10
125.064605
 20
256.419148
 30
0.0
 10
125.064605
 20
256.419148
 30
0.0
  0
LWPOLYLINE
  5
169
100
AcDbEntity
  8
Capa_1
 62
1
100
AcDbPolyline
 90
4
 70
1
 10
122.531288
 20
258.890058
 30
0.0
 10
122.531288
 20
258.890058
 30
0.0
 10
123.815211
 20
257.664768
 30
0.0
 10
123.815211
 20
257.664768
 30
0.0
  0
LWPOLYLINE
  5
16a
100
AcDbEntity
  8
Capa_1
 62
1
100
AcDbPolyline
 90
4
 70
1
 10
121.206798
 20
260.090858
 30
0.0
 10
121.206798
 20
260.090858
 30
0.0
 10
122.531288
 20
258.890058
 30
0.0
 10
122.531288
 20
258.890058
 30
0.0
  0
LWPOLYLINE
  5
16b
100
AcDbEntity
  8
Capa_1
 62
1
100
AcDbPolyline
 90
4
 70
1
 10
119.834851
 20
261.262478
 30
0.0
 10
119.834851
 20
261.262478
 30
0.0
 10
121.206798
 20
260.090858
 30
0.0
 10
121.206798
 20
260.090858
 30
0.0
  0
LWPOLYLINE
  5
16c
100
AcDbEntity
  8
Capa_1
 62
1
100
AcDbPolyline
 90
4
 70
1
 10
118.407663
 20
262.399678
 30
0.0
 10
118.407663
 20
262.399678
 30
0.0
 10
119.834851
 20
261.262478
 30
0.0
 10
119.834851
 20
261.262478
 30
0.0
  0
LWPOLYLINE
  5
16d
100
AcDbEntity
  8
Capa_1
 62
1
100
AcDbPolyline
 90
4
 70
1
 10
116.916509
 20
263.496708
 30
0.0
 10
116.916509
 20
263.496708
 30
0.0
 10
118.407663
 20
262.399678
 30
0.0
 10
118.407663
 20
262.399678
 30
0.0
  0
LWPOLYLINE
  5
16e
100
AcDbEntity
  8
Capa_1
 62
1
100
AcDbPolyline
 90
4
 70
1
 10
115.351683
 20
264.547158
 30
0.0
 10
115.351683
 20
264.547158
 30
0.0
 10
116.916509
 20
263.496708
 30
0.0
 10
116.916509
 20
263.496708
 30
0.0
  0
LWPOLYLINE
  5
16f
100
AcDbEntity
  8
Capa_1
 62
1
100
AcDbPolyline
 90
4
 70
1
 10
113.702450
 20
265.544018
 30
0.0
 10
113.702450
 20
265.544018
 30
0.0
 10
115.351683
 20
264.547158
 30
0.0
 10
115.351683
 20
264.547158
 30
0.0
  0
LWPOLYLINE
  5
170
100
AcDbEntity
  8
Capa_1
 62
1
100
AcDbPolyline
 90
4
 70
1
 10
112.842533
 20
266.019978
 30
0.0
 10
112.842533
 20
266.019978
 30
0.0
 10
113.702450
 20
265.544018
 30
0.0
 10
113.702450
 20
265.544018
 30
0.0
  0
LWPOLYLINE
  5
171
100
AcDbEntity
  8
Capa_1
 62
1
100
AcDbPolyline
 90
4
 70
1
 10
111.957002
 20
266.479618
 30
0.0
 10
111.957002
 20
266.479618
 30
0.0
 10
112.842533
 20
266.019978
 30
0.0
 10
112.842533
 20
266.019978
 30
0.0
  0
LWPOLYLINE
  5
172
100
AcDbEntity
  8
Capa_1
 62
1
100
AcDbPolyline
 90
4
 70
1
 10
111.044205
 20
266.921858
 30
0.0
 10
111.044205
 20
266.921858
 30
0.0
 10
111.957002
 20
266.479618
 30
0.0
 10
111.957002
 20
266.479618
 30
0.0
  0
LWPOLYLINE
  5
173
100
AcDbEntity
  8
Capa_1
 62
1
100
AcDbPolyline
 90
4
 70
1
 10
110.102419
 20
267.345598
 30
0.0
 10
110.102419
 20
267.345598
 30
0.0
 10
111.044205
 20
266.921858
 30
0.0
 10
111.044205
 20
266.921858
 30
0.0
  0
LWPOLYLINE
  5
174
100
AcDbEntity
  8
Capa_1
 62
1
100
AcDbPolyline
 90
4
 70
1
 10
109.129848
 20
267.749668
 30
0.0
 10
109.129848
 20
267.749668
 30
0.0
 10
110.102419
 20
267.345598
 30
0.0
 10
110.102419
 20
267.345598
 30
0.0
  0
LWPOLYLINE
  5
175
100
AcDbEntity
  8
Capa_1
 62
1
100
AcDbPolyline
 90
4
 70
1
 10
108.124621
 20
268.132858
 30
0.0
 10
108.124621
 20
268.132858
 30
0.0
 10
109.129848
 20
267.749668
 30
0.0
 10
109.129848
 20
267.749668
 30
0.0
  0
LWPOLYLINE
  5
176
100
AcDbEntity
  8
Capa_1
 62
1
100
AcDbPolyline
 90
4
 70
1
 10
107.084788
 20
268.493928
 30
0.0
 10
107.084788
 20
268.493928
 30
0.0
 10
108.124621
 20
268.132858
 30
0.0
 10
108.124621
 20
268.132858
 30
0.0
  0
LWPOLYLINE
  5
177
100
AcDbEntity
  8
Capa_1
 62
1
100
AcDbPolyline
 90
4
 70
1
 10
106.008323
 20
268.831578
 30
0.0
 10
106.008323
 20
268.831578
 30
0.0
 10
107.084788
 20
268.493928
 30
0.0
 10
107.084788
 20
268.493928
 30
0.0
  0
LWPOLYLINE
  5
178
100
AcDbEntity
  8
Capa_1
 62
1
100
AcDbPolyline
 90
4
 70
1
 10
104.893121
 20
269.144438
 30
0.0
 10
104.893121
 20
269.144438
 30
0.0
 10
106.008323
 20
268.831578
 30
0.0
 10
106.008323
 20
268.831578
 30
0.0
  0
LWPOLYLINE
  5
179
100
AcDbEntity
  8
Capa_1
 62
1
100
AcDbPolyline
 90
4
 70
1
 10
103.736995
 20
269.431118
 30
0.0
 10
103.736995
 20
269.431118
 30
0.0
 10
104.893121
 20
269.144438
 30
0.0
 10
104.893121
 20
269.144438
 30
0.0
  0
LWPOLYLINE
  5
17a
100
AcDbEntity
  8
Capa_1
 62
1
100
AcDbPolyline
 90
4
 70
1
 10
102.537678
 20
269.690168
 30
0.0
 10
102.537678
 20
269.690168
 30
0.0
 10
103.736995
 20
269.431118
 30
0.0
 10
103.736995
 20
269.431118
 30
0.0
  0
LWPOLYLINE
  5
17b
100
AcDbEntity
  8
Capa_1
 62
1
100
AcDbPolyline
 90
4
 70
1
 10
101.292817
 20
269.920078
 30
0.0
 10
101.292817
 20
269.920078
 30
0.0
 10
102.537678
 20
269.690168
 30
0.0
 10
102.537678
 20
269.690168
 30
0.0
  0
LWPOLYLINE
  5
17c
100
AcDbEntity
  8
Capa_1
 62
1
100
AcDbPolyline
 90
4
 70
1
 10
99.999975
 20
270.119267
 30
0.0
 10
99.999975
 20
270.119267
 30
0.0
 10
101.292817
 20
269.920078
 30
0.0
 10
101.292817
 20
269.920078
 30
0.0
  0
LWPOLYLINE
  5
17d
100
AcDbEntity
  8
Capa_1
 62
1
100
AcDbPolyline
 90
4
 70
1
 10
98.656629
 20
270.286147
 30
0.0
 10
98.656629
 20
270.286147
 30
0.0
 10
99.999975
 20
270.119267
 30
0.0
 10
99.999975
 20
270.119267
 30
0.0
  0
LWPOLYLINE
  5
17e
100
AcDbEntity
  8
Capa_1
 62
1
100
AcDbPolyline
 90
4
 70
1
 10
97.260172
 20
270.419027
 30
0.0
 10
97.260172
 20
270.419027
 30
0.0
 10
98.656629
 20
270.286147
 30
0.0
 10
98.656629
 20
270.286147
 30
0.0
  0
LWPOLYLINE
  5
17f
100
AcDbEntity
  8
Capa_1
 62
1
100
AcDbPolyline
 90
4
 70
1
 10
95.807901
 20
270.516187
 30
0.0
 10
95.807901
 20
270.516187
 30
0.0
 10
97.260172
 20
270.418987
 30
0.0
 10
97.260172
 20
270.418987
 30
0.0
  0
LWPOLYLINE
  5
180
100
AcDbEntity
  8
Capa_1
 62
1
100
AcDbPolyline
 90
4
 70
1
 10
94.297028
 20
270.575847
 30
0.0
 10
94.297028
 20
270.575847
 30
0.0
 10
95.807901
 20
270.516147
 30
0.0
 10
95.807901
 20
270.516147
 30
0.0
  0
LWPOLYLINE
  5
181
100
AcDbEntity
  8
Capa_1
 62
1
100
AcDbPolyline
 90
8
 70
1
 10
92.724671
 20
270.596157
 30
0.0
 10
92.724671
 20
270.596157
 30
0.0
 10
94.297028
 20
270.575857
 30
0.0
 10
94.297028
 20
270.575857
 30
0.0
 10
92.724671
 20
270.596157
 30
0.0
 10
92.724671
 20
270.596157
 30
0.0
 10
90.474671
 20
270.578457
 30
0.0
 10
90.474671
 20
270.578457
 30
0.0
  0
LWPOLYLINE
  5
182
100
AcDbEntity
  8
Capa_1
 62
1
100
AcDbPolyline
 90
4
 70
1
 10
88.321324
 20
270.518257
 30
0.0
 10
88.321324
 20
270.518257
 30
0.0
 10
90.474671
 20
270.578457
 30
0.0
 10
90.474671
 20
270.578457
 30
0.0
  0
LWPOLYLINE
  5
183
100
AcDbEntity
  8
Capa_1
 62
1
100
AcDbPolyline
 90
4
 70
1
 10
87.280379
 20
270.468837
 30
0.0
 10
87.280379
 20
270.468837
 30
0.0
 10
88.321324
 20
270.518237
 30
0.0
 10
88.321324
 20
270.518237
 30
0.0
  0
LWPOLYLINE
  5
184
100
AcDbEntity
  8
Capa_1
 62
1
100
AcDbPolyline
 90
4
 70
1
 10
86.262977
 20
270.404737
 30
0.0
 10
86.262977
 20
270.404737
 30
0.0
 10
87.280379
 20
270.468837
 30
0.0
 10
87.280379
 20
270.468837
 30
0.0
  0
LWPOLYLINE
  5
185
100
AcDbEntity
  8
Capa_1
 62
1
100
AcDbPolyline
 90
4
 70
1
 10
85.268908
 20
270.324627
 30
0.0
 10
85.268908
 20
270.324627
 30
0.0
 10
86.262977
 20
270.404727
 30
0.0
 10
86.262977
 20
270.404727
 30
0.0
  0
LWPOLYLINE
  5
186
100
AcDbEntity
  8
Capa_1
 62
1
100
AcDbPolyline
 90
4
 70
1
 10
84.297973
 20
270.227157
 30
0.0
 10
84.297973
 20
270.227157
 30
0.0
 10
85.268908
 20
270.324657
 30
0.0
 10
85.268908
 20
270.324657
 30
0.0
  0
LWPOLYLINE
  5
187
100
AcDbEntity
  8
Capa_1
 62
1
100
AcDbPolyline
 90
4
 70
1
 10
83.349958
 20
270.110987
 30
0.0
 10
83.349958
 20
270.110987
 30
0.0
 10
84.297973
 20
270.227157
 30
0.0
 10
84.297973
 20
270.227157
 30
0.0
  0
LWPOLYLINE
  5
188
100
AcDbEntity
  8
Capa_1
 62
1
100
AcDbPolyline
 90
4
 70
1
 10
82.424660
 20
269.974748
 30
0.0
 10
82.424660
 20
269.974748
 30
0.0
 10
83.349958
 20
270.110987
 30
0.0
 10
83.349958
 20
270.110987
 30
0.0
  0
LWPOLYLINE
  5
189
100
AcDbEntity
  8
Capa_1
 62
1
100
AcDbPolyline
 90
4
 70
1
 10
81.521870
 20
269.817118
 30
0.0
 10
81.521870
 20
269.817118
 30
0.0
 10
82.424660
 20
269.974748
 30
0.0
 10
82.424660
 20
269.974748
 30
0.0
  0
LWPOLYLINE
  5
18a
100
AcDbEntity
  8
Capa_1
 62
1
100
AcDbPolyline
 90
4
 70
1
 10
80.641382
 20
269.636738
 30
0.0
 10
80.641382
 20
269.636738
 30
0.0
 10
81.521870
 20
269.817118
 30
0.0
 10
81.521870
 20
269.817118
 30
0.0
  0
LWPOLYLINE
  5
18b
100
AcDbEntity
  8
Capa_1
 62
1
100
AcDbPolyline
 90
4
 70
1
 10
79.782991
 20
269.432278
 30
0.0
 10
79.782991
 20
269.432278
 30
0.0
 10
80.641382
 20
269.636738
 30
0.0
 10
80.641382
 20
269.636738
 30
0.0
  0
LWPOLYLINE
  5
18c
100
AcDbEntity
  8
Capa_1
 62
1
100
AcDbPolyline
 90
4
 70
1
 10
78.946487
 20
269.202368
 30
0.0
 10
78.946487
 20
269.202368
 30
0.0
 10
79.782991
 20
269.432278
 30
0.0
 10
79.782991
 20
269.432278
 30
0.0
  0
LWPOLYLINE
  5
18d
100
AcDbEntity
  8
Capa_1
 62
1
100
AcDbPolyline
 90
4
 70
1
 10
78.131666
 20
268.945688
 30
0.0
 10
78.131666
 20
268.945688
 30
0.0
 10
78.946487
 20
269.202368
 30
0.0
 10
78.946487
 20
269.202368
 30
0.0
  0
LWPOLYLINE
  5
18e
100
AcDbEntity
  8
Capa_1
 62
1
100
AcDbPolyline
 90
4
 70
1
 10
77.338322
 20
268.660878
 30
0.0
 10
77.338322
 20
268.660878
 30
0.0
 10
78.131666
 20
268.945688
 30
0.0
 10
78.131666
 20
268.945688
 30
0.0
  0
LWPOLYLINE
  5
18f
100
AcDbEntity
  8
Capa_1
 62
1
100
AcDbPolyline
 90
4
 70
1
 10
76.566242
 20
268.346598
 30
0.0
 10
76.566242
 20
268.346598
 30
0.0
 10
77.338322
 20
268.660878
 30
0.0
 10
77.338322
 20
268.660878
 30
0.0
  0
LWPOLYLINE
  5
190
100
AcDbEntity
  8
Capa_1
 62
1
100
AcDbPolyline
 90
4
 70
1
 10
75.815227
 20
268.001488
 30
0.0
 10
75.815227
 20
268.001488
 30
0.0
 10
76.566242
 20
268.346598
 30
0.0
 10
76.566242
 20
268.346598
 30
0.0
  0
LWPOLYLINE
  5
191
100
AcDbEntity
  8
Capa_1
 62
1
100
AcDbPolyline
 90
4
 70
1
 10
75.085068
 20
267.624218
 30
0.0
 10
75.085068
 20
267.624218
 30
0.0
 10
75.815227
 20
268.001488
 30
0.0
 10
75.815227
 20
268.001488
 30
0.0
  0
LWPOLYLINE
  5
192
100
AcDbEntity
  8
Capa_1
 62
1
100
AcDbPolyline
 90
4
 70
1
 10
74.375553
 20
267.213448
 30
0.0
 10
74.375553
 20
267.213448
 30
0.0
 10
75.085068
 20
267.624218
 30
0.0
 10
75.085068
 20
267.624218
 30
0.0
  0
LWPOLYLINE
  5
193
100
AcDbEntity
  8
Capa_1
 62
1
100
AcDbPolyline
 90
4
 70
1
 10
73.686481
 20
266.767818
 30
0.0
 10
73.686481
 20
266.767818
 30
0.0
 10
74.375553
 20
267.213448
 30
0.0
 10
74.375553
 20
267.213448
 30
0.0
  0
LWPOLYLINE
  5
194
100
AcDbEntity
  8
Capa_1
 62
1
100
AcDbPolyline
 90
4
 70
1
 10
73.017643
 20
266.285978
 30
0.0
 10
73.017643
 20
266.285978
 30
0.0
 10
73.686481
 20
266.767818
 30
0.0
 10
73.686481
 20
266.767818
 30
0.0
  0
LWPOLYLINE
  5
195
100
AcDbEntity
  8
Capa_1
 62
1
100
AcDbPolyline
 90
4
 70
1
 10
72.368835
 20
265.766598
 30
0.0
 10
72.368835
 20
265.766598
 30
0.0
 10
73.017643
 20
266.285978
 30
0.0
 10
73.017643
 20
266.285978
 30
0.0
  0
LWPOLYLINE
  5
196
100
AcDbEntity
  8
Capa_1
 62
1
100
AcDbPolyline
 90
4
 70
1
 10
71.739845
 20
265.208328
 30
0.0
 10
71.739845
 20
265.208328
 30
0.0
 10
72.368835
 20
265.766598
 30
0.0
 10
72.368835
 20
265.766598
 30
0.0
  0
LWPOLYLINE
  5
197
100
AcDbEntity
  8
Capa_1
 62
1
100
AcDbPolyline
 90
4
 70
1
 10
71.130474
 20
264.609818
 30
0.0
 10
71.130474
 20
264.609818
 30
0.0
 10
71.739845
 20
265.208328
 30
0.0
 10
71.739845
 20
265.208328
 30
0.0
  0
LWPOLYLINE
  5
198
100
AcDbEntity
  8
Capa_1
 62
1
100
AcDbPolyline
 90
4
 70
1
 10
70.540504
 20
263.969728
 30
0.0
 10
70.540504
 20
263.969728
 30
0.0
 10
71.130474
 20
264.609818
 30
0.0
 10
71.130474
 20
264.609818
 30
0.0
  0
LWPOLYLINE
  5
199
100
AcDbEntity
  8
Capa_1
 62
1
100
AcDbPolyline
 90
4
 70
1
 10
69.969738
 20
263.286698
 30
0.0
 10
69.969738
 20
263.286698
 30
0.0
 10
70.540504
 20
263.969728
 30
0.0
 10
70.540504
 20
263.969728
 30
0.0
  0
LWPOLYLINE
  5
19a
100
AcDbEntity
  8
Capa_1
 62
1
100
AcDbPolyline
 90
4
 70
1
 10
69.417969
 20
262.559408
 30
0.0
 10
69.417969
 20
262.559408
 30
0.0
 10
69.969738
 20
263.286698
 30
0.0
 10
69.969738
 20
263.286698
 30
0.0
  0
LWPOLYLINE
  5
19b
100
AcDbEntity
  8
Capa_1
 62
1
100
AcDbPolyline
 90
4
 70
1
 10
68.884983
 20
261.786488
 30
0.0
 10
68.884983
 20
261.786488
 30
0.0
 10
69.417969
 20
262.559408
 30
0.0
 10
69.417969
 20
262.559408
 30
0.0
  0
LWPOLYLINE
  5
19c
100
AcDbEntity
  8
Capa_1
 62
1
100
AcDbPolyline
 90
4
 70
1
 10
68.370579
 20
260.966598
 30
0.0
 10
68.370579
 20
260.966598
 30
0.0
 10
68.884983
 20
261.786488
 30
0.0
 10
68.884983
 20
261.786488
 30
0.0
  0
LWPOLYLINE
  5
19d
100
AcDbEntity
  8
Capa_1
 62
1
100
AcDbPolyline
 90
4
 70
1
 10
67.874546
 20
260.098408
 30
0.0
 10
67.874546
 20
260.098408
 30
0.0
 10
68.370579
 20
260.966598
 30
0.0
 10
68.370579
 20
260.966598
 30
0.0
  0
LWPOLYLINE
  5
19e
100
AcDbEntity
  8
Capa_1
 62
1
100
AcDbPolyline
 90
4
 70
1
 10
67.396683
 20
259.180548
 30
0.0
 10
67.396683
 20
259.180548
 30
0.0
 10
67.874546
 20
260.098408
 30
0.0
 10
67.874546
 20
260.098408
 30
0.0
  0
LWPOLYLINE
  5
19f
100
AcDbEntity
  8
Capa_1
 62
1
100
AcDbPolyline
 90
4
 70
1
 10
66.936775
 20
258.211688
 30
0.0
 10
66.936775
 20
258.211688
 30
0.0
 10
67.396683
 20
259.180548
 30
0.0
 10
67.396683
 20
259.180548
 30
0.0
  0
LWPOLYLINE
  5
1a0
100
AcDbEntity
  8
Capa_1
 62
1
100
AcDbPolyline
 90
4
 70
1
 10
66.494625
 20
257.190488
 30
0.0
 10
66.494625
 20
257.190488
 30
0.0
 10
66.936775
 20
258.211688
 30
0.0
 10
66.936775
 20
258.211688
 30
0.0
  0
LWPOLYLINE
  5
1a1
100
AcDbEntity
  8
Capa_1
 62
1
100
AcDbPolyline
 90
4
 70
1
 10
66.070019
 20
256.115578
 30
0.0
 10
66.070019
 20
256.115578
 30
0.0
 10
66.494625
 20
257.190488
 30
0.0
 10
66.494625
 20
257.190488
 30
0.0
  0
LWPOLYLINE
  5
1a2
100
AcDbEntity
  8
Capa_1
 62
1
100
AcDbPolyline
 90
4
 70
1
 10
65.662754
 20
254.985638
 30
0.0
 10
65.662754
 20
254.985638
 30
0.0
 10
66.070019
 20
256.115578
 30
0.0
 10
66.070019
 20
256.115578
 30
0.0
  0
LWPOLYLINE
  5
1a3
100
AcDbEntity
  8
Capa_1
 62
1
100
AcDbPolyline
 90
4
 70
1
 10
65.272621
 20
253.799308
 30
0.0
 10
65.272621
 20
253.799308
 30
0.0
 10
65.662754
 20
254.985638
 30
0.0
 10
65.662754
 20
254.985638
 30
0.0
  0
LWPOLYLINE
  5
1a4
100
AcDbEntity
  8
Capa_1
 62
1
100
AcDbPolyline
 90
4
 70
1
 10
64.899414
 20
252.555248
 30
0.0
 10
64.899414
 20
252.555248
 30
0.0
 10
65.272621
 20
253.799308
 30
0.0
 10
65.272621
 20
253.799308
 30
0.0
  0
LWPOLYLINE
  5
1a5
100
AcDbEntity
  8
Capa_1
 62
1
100
AcDbPolyline
 90
4
 70
1
 10
64.542931
 20
251.252118
 30
0.0
 10
64.542931
 20
251.252118
 30
0.0
 10
64.899414
 20
252.555248
 30
0.0
 10
64.899414
 20
252.555248
 30
0.0
  0
LWPOLYLINE
  5
1a6
100
AcDbEntity
  8
Capa_1
 62
1
100
AcDbPolyline
 90
4
 70
1
 10
64.202953
 20
249.888558
 30
0.0
 10
64.202953
 20
249.888558
 30
0.0
 10
64.542931
 20
251.252118
 30
0.0
 10
64.542931
 20
251.252118
 30
0.0
  0
LWPOLYLINE
  5
1a7
100
AcDbEntity
  8
Capa_1
 62
1
100
AcDbPolyline
 90
4
 70
1
 10
63.879284
 20
248.463238
 30
0.0
 10
63.879284
 20
248.463238
 30
0.0
 10
64.202953
 20
249.888558
 30
0.0
 10
64.202953
 20
249.888558
 30
0.0
  0
LWPOLYLINE
  5
1a8
100
AcDbEntity
  8
Capa_1
 62
1
100
AcDbPolyline
 90
4
 70
1
 10
63.571716
 20
246.974798
 30
0.0
 10
63.571716
 20
246.974798
 30
0.0
 10
63.879284
 20
248.463238
 30
0.0
 10
63.879284
 20
248.463238
 30
0.0
  0
LWPOLYLINE
  5
1a9
100
AcDbEntity
  8
Capa_1
 62
1
100
AcDbPolyline
 90
4
 70
1
 10
63.280037
 20
245.421888
 30
0.0
 10
63.280037
 20
245.421888
 30
0.0
 10
63.571716
 20
246.974798
 30
0.0
 10
63.571716
 20
246.974798
 30
0.0
  0
LWPOLYLINE
  5
1aa
100
AcDbEntity
  8
Capa_1
 62
1
100
AcDbPolyline
 90
4
 70
1
 10
63.004047
 20
243.803185
 30
0.0
 10
63.004047
 20
243.803185
 30
0.0
 10
63.280037
 20
245.421888
 30
0.0
 10
63.280037
 20
245.421888
 30
0.0
  0
LWPOLYLINE
  5
1ab
100
AcDbEntity
  8
Capa_1
 62
1
100
AcDbPolyline
 90
4
 70
1
 10
62.743534
 20
242.117333
 30
0.0
 10
62.743534
 20
242.117333
 30
0.0
 10
63.004047
 20
243.803185
 30
0.0
 10
63.004047
 20
243.803185
 30
0.0
  0
LWPOLYLINE
  5
1ac
100
AcDbEntity
  8
Capa_1
 62
1
100
AcDbPolyline
 90
4
 70
1
 10
62.498291
 20
240.362977
 30
0.0
 10
62.498291
 20
240.362977
 30
0.0
 10
62.743534
 20
242.117333
 30
0.0
 10
62.743534
 20
242.117333
 30
0.0
  0
LWPOLYLINE
  5
1ad
100
AcDbEntity
  8
Capa_1
 62
1
100
AcDbPolyline
 90
4
 70
1
 10
62.268116
 20
238.538781
 30
0.0
 10
62.268116
 20
238.538781
 30
0.0
 10
62.498291
 20
240.362977
 30
0.0
 10
62.498291
 20
240.362977
 30
0.0
  0
LWPOLYLINE
  5
1ae
100
AcDbEntity
  8
Capa_1
 62
1
100
AcDbPolyline
 90
4
 70
1
 10
62.052799
 20
236.643395
 30
0.0
 10
62.052799
 20
236.643395
 30
0.0
 10
62.268116
 20
238.538781
 30
0.0
 10
62.268116
 20
238.538781
 30
0.0
  0
LWPOLYLINE
  5
1af
100
AcDbEntity
  8
Capa_1
 62
1
100
AcDbPolyline
 90
4
 70
1
 10
61.852131
 20
234.675484
 30
0.0
 10
61.852131
 20
234.675484
 30
0.0
 10
62.052799
 20
236.643395
 30
0.0
 10
62.052799
 20
236.643395
 30
0.0
  0
LWPOLYLINE
  5
1b0
100
AcDbEntity
  8
Capa_1
 62
1
100
AcDbPolyline
 90
4
 70
1
 10
61.665909
 20
232.633683
 30
0.0
 10
61.665909
 20
232.633683
 30
0.0
 10
61.852131
 20
234.675484
 30
0.0
 10
61.852131
 20
234.675484
 30
0.0
  0
LWPOLYLINE
  5
1b1
100
AcDbEntity
  8
Capa_1
 62
1
100
AcDbPolyline
 90
4
 70
1
 10
61.493927
 20
230.516663
 30
0.0
 10
61.493927
 20
230.516663
 30
0.0
 10
61.665909
 20
232.633683
 30
0.0
 10
61.665909
 20
232.633683
 30
0.0
  0
LWPOLYLINE
  5
1b2
100
AcDbEntity
  8
Capa_1
 62
1
100
AcDbPolyline
 90
4
 70
1
 10
61.335972
 20
228.323075
 30
0.0
 10
61.335972
 20
228.323075
 30
0.0
 10
61.493927
 20
230.516663
 30
0.0
 10
61.493927
 20
230.516663
 30
0.0
  0
LWPOLYLINE
  5
1b3
100
AcDbEntity
  8
Capa_1
 62
1
100
AcDbPolyline
 90
4
 70
1
 10
61.191845
 20
226.051568
 30
0.0
 10
61.191845
 20
226.051568
 30
0.0
 10
61.335972
 20
228.323075
 30
0.0
 10
61.335972
 20
228.323075
 30
0.0
  0
LWPOLYLINE
  5
1b4
100
AcDbEntity
  8
Capa_1
 62
1
100
AcDbPolyline
 90
4
 70
1
 10
61.061336
 20
223.700799
 30
0.0
 10
61.061336
 20
223.700799
 30
0.0
 10
61.191845
 20
226.051568
 30
0.0
 10
61.191845
 20
226.051568
 30
0.0
  0
LWPOLYLINE
  5
1b5
100
AcDbEntity
  8
Capa_1
 62
1
100
AcDbPolyline
 90
4
 70
1
 10
60.944237
 20
221.269425
 30
0.0
 10
60.944237
 20
221.269425
 30
0.0
 10
61.061336
 20
223.700799
 30
0.0
 10
61.061336
 20
223.700799
 30
0.0
  0
LWPOLYLINE
  5
1b6
100
AcDbEntity
  8
Capa_1
 62
1
100
AcDbPolyline
 90
4
 70
1
 10
60.840340
 20
218.756090
 30
0.0
 10
60.840340
 20
218.756090
 30
0.0
 10
60.944237
 20
221.269425
 30
0.0
 10
60.944237
 20
221.269425
 30
0.0
  0
LWPOLYLINE
  5
1b7
100
AcDbEntity
  8
Capa_1
 62
1
100
AcDbPolyline
 90
4
 70
1
 10
60.749443
 20
216.159464
 30
0.0
 10
60.749443
 20
216.159464
 30
0.0
 10
60.840343
 20
218.756090
 30
0.0
 10
60.840343
 20
218.756090
 30
0.0
  0
LWPOLYLINE
  5
1b8
100
AcDbEntity
  8
Capa_1
 62
1
100
AcDbPolyline
 90
4
 70
1
 10
60.671337
 20
213.478197
 30
0.0
 10
60.671337
 20
213.478197
 30
0.0
 10
60.749447
 20
216.159464
 30
0.0
 10
60.749447
 20
216.159464
 30
0.0
  0
LWPOLYLINE
  5
1b9
100
AcDbEntity
  8
Capa_1
 62
1
100
AcDbPolyline
 90
4
 70
1
 10
60.605812
 20
210.710931
 30
0.0
 10
60.605812
 20
210.710931
 30
0.0
 10
60.671342
 20
213.478197
 30
0.0
 10
60.671342
 20
213.478197
 30
0.0
  0
LWPOLYLINE
  5
1ba
100
AcDbEntity
  8
Capa_1
 62
1
100
AcDbPolyline
 90
4
 70
1
 10
60.552666
 20
207.856332
 30
0.0
 10
60.552666
 20
207.856332
 30
0.0
 10
60.605816
 20
210.710931
 30
0.0
 10
60.605816
 20
210.710931
 30
0.0
  0
LWPOLYLINE
  5
1bb
100
AcDbEntity
  8
Capa_1
 62
1
100
AcDbPolyline
 90
4
 70
1
 10
60.511688
 20
204.913053
 30
0.0
 10
60.511688
 20
204.913053
 30
0.0
 10
60.552668
 20
207.856332
 30
0.0
 10
60.552668
 20
207.856332
 30
0.0
  0
LWPOLYLINE
  5
1bc
100
AcDbEntity
  8
Capa_1
 62
1
100
AcDbPolyline
 90
4
 70
1
 10
60.482677
 20
201.879747
 30
0.0
 10
60.482677
 20
201.879747
 30
0.0
 10
60.511687
 20
204.913053
 30
0.0
 10
60.511687
 20
204.913053
 30
0.0
  0
LWPOLYLINE
  5
1bd
100
AcDbEntity
  8
Capa_1
 62
1
100
AcDbPolyline
 90
4
 70
1
 10
60.465420
 20
198.755071
 30
0.0
 10
60.465420
 20
198.755071
 30
0.0
 10
60.482680
 20
201.879747
 30
0.0
 10
60.482680
 20
201.879747
 30
0.0
  0
LWPOLYLINE
  5
1be
100
AcDbEntity
  8
Capa_1
 62
1
100
AcDbPolyline
 90
8
 70
1
 10
60.459717
 20
195.537672
 30
0.0
 10
60.459717
 20
195.537672
 30
0.0
 10
60.465417
 20
198.755071
 30
0.0
 10
60.465417
 20
198.755071
 30
0.0
 10
60.459717
 20
195.537672
 30
0.0
 10
60.459717
 20
195.537672
 30
0.0
 10
60.472187
 20
194.262724
 30
0.0
 10
60.472187
 20
194.262724
 30
0.0
  0
LWPOLYLINE
  5
1bf
100
AcDbEntity
  8
Capa_1
 62
1
100
AcDbPolyline
 90
4
 70
1
 10
60.509571
 20
193.003198
 30
0.0
 10
60.509571
 20
193.003198
 30
0.0
 10
60.472191
 20
194.262724
 30
0.0
 10
60.472191
 20
194.262724
 30
0.0
  0
LWPOLYLINE
  5
1c0
100
AcDbEntity
  8
Capa_1
 62
1
100
AcDbPolyline
 90
4
 70
1
 10
60.571739
 20
191.759035
 30
0.0
 10
60.571739
 20
191.759035
 30
0.0
 10
60.509569
 20
193.003198
 30
0.0
 10
60.509569
 20
193.003198
 30
0.0
  0
LWPOLYLINE
  5
1c1
100
AcDbEntity
  8
Capa_1
 62
1
100
AcDbPolyline
 90
4
 70
1
 10
60.658504
 20
190.530122
 30
0.0
 10
60.658504
 20
190.530122
 30
0.0
 10
60.571744
 20
191.759035
 30
0.0
 10
60.571744
 20
191.759035
 30
0.0
  0
LWPOLYLINE
  5
1c2
100
AcDbEntity
  8
Capa_1
 62
1
100
AcDbPolyline
 90
4
 70
1
 10
60.769608
 20
189.316332
 30
0.0
 10
60.769608
 20
189.316332
 30
0.0
 10
60.658504
 20
190.530122
 30
0.0
 10
60.658504
 20
190.530122
 30
0.0
  0
LWPOLYLINE
  5
1c3
100
AcDbEntity
  8
Capa_1
 62
1
100
AcDbPolyline
 90
4
 70
1
 10
60.904724
 20
188.117479
 30
0.0
 10
60.904724
 20
188.117479
 30
0.0
 10
60.769608
 20
189.316332
 30
0.0
 10
60.769608
 20
189.316332
 30
0.0
  0
LWPOLYLINE
  5
1c4
100
AcDbEntity
  8
Capa_1
 62
1
100
AcDbPolyline
 90
4
 70
1
 10
61.063465
 20
186.933355
 30
0.0
 10
61.063465
 20
186.933355
 30
0.0
 10
60.904724
 20
188.117479
 30
0.0
 10
60.904724
 20
188.117479
 30
0.0
  0
LWPOLYLINE
  5
1c5
100
AcDbEntity
  8
Capa_1
 62
1
100
AcDbPolyline
 90
4
 70
1
 10
61.245380
 20
185.763719
 30
0.0
 10
61.245380
 20
185.763719
 30
0.0
 10
61.063465
 20
186.933355
 30
0.0
 10
61.063465
 20
186.933355
 30
0.0
  0
LWPOLYLINE
  5
1c6
100
AcDbEntity
  8
Capa_1
 62
1
100
AcDbPolyline
 90
4
 70
1
 10
61.676636
 20
183.466768
 30
0.0
 10
61.676636
 20
183.466768
 30
0.0
 10
61.245380
 20
185.763719
 30
0.0
 10
61.245380
 20
185.763719
 30
0.0
  0
LWPOLYLINE
  5
1c7
100
AcDbEntity
  8
Capa_1
 62
1
100
AcDbPolyline
 90
4
 70
1
 10
62.193756
 20
181.224065
 30
0.0
 10
62.193756
 20
181.224065
 30
0.0
 10
61.676636
 20
183.466768
 30
0.0
 10
61.676636
 20
183.466768
 30
0.0
  0
LWPOLYLINE
  5
1c8
100
AcDbEntity
  8
Capa_1
 62
1
100
AcDbPolyline
 90
4
 70
1
 10
62.791203
 20
179.032617
 30
0.0
 10
62.791203
 20
179.032617
 30
0.0
 10
62.193756
 20
181.224065
 30
0.0
 10
62.193756
 20
181.224065
 30
0.0
  0
LWPOLYLINE
  5
1c9
100
AcDbEntity
  8
Capa_1
 62
1
100
AcDbPolyline
 90
4
 70
1
 10
63.462692
 20
176.889032
 30
0.0
 10
63.462692
 20
176.889032
 30
0.0
 10
62.791203
 20
179.032617
 30
0.0
 10
62.791203
 20
179.032617
 30
0.0
  0
LWPOLYLINE
  5
1ca
100
AcDbEntity
  8
Capa_1
 62
1
100
AcDbPolyline
 90
4
 70
1
 10
64.201313
 20
174.789575
 30
0.0
 10
64.201313
 20
174.789575
 30
0.0
 10
63.462692
 20
176.889032
 30
0.0
 10
63.462692
 20
176.889032
 30
0.0
  0
LWPOLYLINE
  5
1cb
100
AcDbEntity
  8
Capa_1
 62
1
100
AcDbPolyline
 90
4
 70
1
 10
64.999630
 20
172.730226
 30
0.0
 10
64.999630
 20
172.730226
 30
0.0
 10
64.201313
 20
174.789575
 30
0.0
 10
64.201313
 20
174.789575
 30
0.0
  0
LWPOLYLINE
  5
1cc
100
AcDbEntity
  8
Capa_1
 62
1
100
AcDbPolyline
 90
4
 70
1
 10
65.849773
 20
170.706732
 30
0.0
 10
65.849773
 20
170.706732
 30
0.0
 10
64.999630
 20
172.730226
 30
0.0
 10
64.999630
 20
172.730226
 30
0.0
  0
LWPOLYLINE
  5
1cd
100
AcDbEntity
  8
Capa_1
 62
1
100
AcDbPolyline
 90
4
 70
1
 10
66.743549
 20
168.714650
 30
0.0
 10
66.743549
 20
168.714650
 30
0.0
 10
65.849773
 20
170.706732
 30
0.0
 10
65.849773
 20
170.706732
 30
0.0
  0
LWPOLYLINE
  5
1ce
100
AcDbEntity
  8
Capa_1
 62
1
100
AcDbPolyline
 90
4
 70
1
 10
67.672554
 20
166.749409
 30
0.0
 10
67.672554
 20
166.749409
 30
0.0
 10
66.743549
 20
168.714650
 30
0.0
 10
66.743549
 20
168.714650
 30
0.0
  0
LWPOLYLINE
  5
1cf
100
AcDbEntity
  8
Capa_1
 62
1
100
AcDbPolyline
 90
4
 70
1
 10
68.628273
 20
164.806365
 30
0.0
 10
68.628273
 20
164.806365
 30
0.0
 10
67.672554
 20
166.749409
 30
0.0
 10
67.672554
 20
166.749409
 30
0.0
  0
LWPOLYLINE
  5
1d0
100
AcDbEntity
  8
Capa_1
 62
1
100
AcDbPolyline
 90
4
 70
1
 10
70.585701
 20
160.968150
 30
0.0
 10
70.585701
 20
160.968150
 30
0.0
 10
68.628273
 20
164.806365
 30
0.0
 10
68.628273
 20
164.806365
 30
0.0
  0
LWPOLYLINE
  5
1d1
100
AcDbEntity
  8
Capa_1
 62
1
100
AcDbPolyline
 90
4
 70
1
 10
72.548164
 20
157.162785
 30
0.0
 10
72.548164
 20
157.162785
 30
0.0
 10
70.585701
 20
160.968150
 30
0.0
 10
70.585701
 20
160.968150
 30
0.0
  0
LWPOLYLINE
  5
1d2
100
AcDbEntity
  8
Capa_1
 62
1
100
AcDbPolyline
 90
4
 70
1
 10
74.450100
 20
153.354092
 30
0.0
 10
74.450100
 20
153.354092
 30
0.0
 10
72.548164
 20
157.162785
 30
0.0
 10
72.548164
 20
157.162785
 30
0.0
  0
LWPOLYLINE
  5
1d3
100
AcDbEntity
  8
Capa_1
 62
1
100
AcDbPolyline
 90
4
 70
1
 10
75.358864
 20
151.437728
 30
0.0
 10
75.358864
 20
151.437728
 30
0.0
 10
74.450100
 20
153.354092
 30
0.0
 10
74.450100
 20
153.354092
 30
0.0
  0
LWPOLYLINE
  5
1d4
100
AcDbEntity
  8
Capa_1
 62
1
100
AcDbPolyline
 90
4
 70
1
 10
76.229809
 20
149.507992
 30
0.0
 10
76.229809
 20
149.507992
 30
0.0
 10
75.358864
 20
151.437728
 30
0.0
 10
75.358864
 20
151.437728
 30
0.0
  0
LWPOLYLINE
  5
1d5
100
AcDbEntity
  8
Capa_1
 62
1
100
AcDbPolyline
 90
4
 70
1
 10
77.056385
 20
147.561228
 30
0.0
 10
77.056385
 20
147.561228
 30
0.0
 10
76.229809
 20
149.507992
 30
0.0
 10
76.229809
 20
149.507992
 30
0.0
  0
LWPOLYLINE
  5
1d6
100
AcDbEntity
  8
Capa_1
 62
1
100
AcDbPolyline
 90
4
 70
1
 10
77.832811
 20
145.594163
 30
0.0
 10
77.832811
 20
145.594163
 30
0.0
 10
77.056385
 20
147.561228
 30
0.0
 10
77.056385
 20
147.561228
 30
0.0
  0
LWPOLYLINE
  5
1d7
100
AcDbEntity
  8
Capa_1
 62
1
100
AcDbPolyline
 90
4
 70
1
 10
78.554260
 20
143.603988
 30
0.0
 10
78.554260
 20
143.603988
 30
0.0
 10
77.832811
 20
145.594163
 30
0.0
 10
77.832811
 20
145.594163
 30
0.0
  0
LWPOLYLINE
  5
1d8
100
AcDbEntity
  8
Capa_1
 62
1
100
AcDbPolyline
 90
4
 70
1
 10
79.217022
 20
141.588435
 30
0.0
 10
79.217022
 20
141.588435
 30
0.0
 10
78.554260
 20
143.603988
 30
0.0
 10
78.554260
 20
143.603988
 30
0.0
  0
LWPOLYLINE
  5
1d9
100
AcDbEntity
  8
Capa_1
 62
1
100
AcDbPolyline
 90
4
 70
1
 10
79.818672
 20
139.545849
 30
0.0
 10
79.818672
 20
139.545849
 30
0.0
 10
79.217022
 20
141.588435
 30
0.0
 10
79.217022
 20
141.588435
 30
0.0
  0
LWPOLYLINE
  5
1da
100
AcDbEntity
  8
Capa_1
 62
1
100
AcDbPolyline
 90
4
 70
1
 10
80.358101
 20
137.475218
 30
0.0
 10
80.358101
 20
137.475218
 30
0.0
 10
79.818672
 20
139.545849
 30
0.0
 10
79.818672
 20
139.545849
 30
0.0
  0
LWPOLYLINE
  5
1db
100
AcDbEntity
  8
Capa_1
 62
1
100
AcDbPolyline
 90
4
 70
1
 10
80.835415
 20
135.376144
 30
0.0
 10
80.835415
 20
135.376144
 30
0.0
 10
80.358101
 20
137.475218
 30
0.0
 10
80.358101
 20
137.475218
 30
0.0
  0
LWPOLYLINE
  5
1dc
100
AcDbEntity
  8
Capa_1
 62
1
100
AcDbPolyline
 90
4
 70
1
 10
81.251797
 20
133.248808
 30
0.0
 10
81.251797
 20
133.248808
 30
0.0
 10
80.835415
 20
135.376144
 30
0.0
 10
80.835415
 20
135.376144
 30
0.0
  0
LWPOLYLINE
  5
1dd
100
AcDbEntity
  8
Capa_1
 62
1
100
AcDbPolyline
 90
4
 70
1
 10
81.609373
 20
131.093927
 30
0.0
 10
81.609373
 20
131.093927
 30
0.0
 10
81.251797
 20
133.248808
 30
0.0
 10
81.251797
 20
133.248808
 30
0.0
  0
LWPOLYLINE
  5
1de
100
AcDbEntity
  8
Capa_1
 62
1
100
AcDbPolyline
 90
4
 70
1
 10
81.911089
 20
128.912723
 30
0.0
 10
81.911089
 20
128.912723
 30
0.0
 10
81.609373
 20
131.093927
 30
0.0
 10
81.609373
 20
131.093927
 30
0.0
  0
LWPOLYLINE
  5
1df
100
AcDbEntity
  8
Capa_1
 62
1
100
AcDbPolyline
 90
4
 70
1
 10
82.160561
 20
126.706879
 30
0.0
 10
82.160561
 20
126.706879
 30
0.0
 10
81.911089
 20
128.912723
 30
0.0
 10
81.911089
 20
128.912723
 30
0.0
  0
LWPOLYLINE
  5
1e0
100
AcDbEntity
  8
Capa_1
 62
1
100
AcDbPolyline
 90
4
 70
1
 10
82.361937
 20
124.478495
 30
0.0
 10
82.361937
 20
124.478495
 30
0.0
 10
82.160561
 20
126.706879
 30
0.0
 10
82.160561
 20
126.706879
 30
0.0
  0
LWPOLYLINE
  5
1e1
100
AcDbEntity
  8
Capa_1
 62
1
100
AcDbPolyline
 90
4
 70
1
 10
82.519703
 20
122.230002
 30
0.0
 10
82.519703
 20
122.230002
 30
0.0
 10
82.361937
 20
124.478495
 30
0.0
 10
82.361937
 20
124.478495
 30
0.0
  0
LWPOLYLINE
  5
1e2
100
AcDbEntity
  8
Capa_1
 62
1
100
AcDbPolyline
 90
4
 70
1
 10
82.638475
 20
119.964070
 30
0.0
 10
82.638475
 20
119.964070
 30
0.0
 10
82.519703
 20
122.230002
 30
0.0
 10
82.519703
 20
122.230002
 30
0.0
  0
LWPOLYLINE
  5
1e3
100
AcDbEntity
  8
Capa_1
 62
1
100
AcDbPolyline
 90
4
 70
1
 10
82.722792
 20
117.683513
 30
0.0
 10
82.722792
 20
117.683513
 30
0.0
 10
82.638472
 20
119.964070
 30
0.0
 10
82.638472
 20
119.964070
 30
0.0
  0
LWPOLYLINE
  5
1e4
100
AcDbEntity
  8
Capa_1
 62
1
100
AcDbPolyline
 90
4
 70
1
 10
82.776909
 20
115.391199
 30
0.0
 10
82.776909
 20
115.391199
 30
0.0
 10
82.722789
 20
117.683513
 30
0.0
 10
82.722789
 20
117.683513
 30
0.0
  0
LWPOLYLINE
  5
1e5
100
AcDbEntity
  8
Capa_1
 62
1
100
AcDbPolyline
 90
4
 70
1
 10
82.808903
 20
110.782463
 30
0.0
 10
82.808903
 20
110.782463
 30
0.0
 10
82.776913
 20
115.391199
 30
0.0
 10
82.776913
 20
115.391199
 30
0.0
  0
LWPOLYLINE
  5
1e6
100
AcDbEntity
  8
Capa_1
 62
1
100
AcDbPolyline
 90
4
 70
1
 10
82.756399
 20
106.158821
 30
0.0
 10
82.756399
 20
106.158821
 30
0.0
 10
82.808899
 20
110.782463
 30
0.0
 10
82.808899
 20
110.782463
 30
0.0
  0
LWPOLYLINE
  5
1e7
100
AcDbEntity
  8
Capa_1
 62
1
100
AcDbPolyline
 90
4
 70
1
 10
82.631754
 20
101.539234
 30
0.0
 10
82.631754
 20
101.539234
 30
0.0
 10
82.756399
 20
106.158821
 30
0.0
 10
82.756399
 20
106.158821
 30
0.0
  0
LWPOLYLINE
  5
1e8
100
AcDbEntity
  8
Capa_1
 62
1
100
AcDbPolyline
 90
4
 70
1
 10
82.440977
 20
96.941448
 30
0.0
 10
82.440977
 20
96.941448
 30
0.0
 10
82.631754
 20
101.539234
 30
0.0
 10
82.631754
 20
101.539234
 30
0.0
  0
LWPOLYLINE
  5
1e9
100
AcDbEntity
  8
Capa_1
 62
1
100
AcDbPolyline
 90
4
 70
1
 10
82.186838
 20
92.382763
 30
0.0
 10
82.186838
 20
92.382763
 30
0.0
 10
82.440977
 20
96.941448
 30
0.0
 10
82.440977
 20
96.941448
 30
0.0
  0
LWPOLYLINE
  5
1ea
100
AcDbEntity
  8
Capa_1
 62
1
100
AcDbPolyline
 90
4
 70
1
 10
81.870165
 20
87.880077
 30
0.0
 10
81.870165
 20
87.880077
 30
0.0
 10
82.186838
 20
92.382763
 30
0.0
 10
82.186838
 20
92.382763
 30
0.0
  0
LWPOLYLINE
  5
1eb
100
AcDbEntity
  8
Capa_1
 62
1
100
AcDbPolyline
 90
4
 70
1
 10
81.489611
 20
83.449364
 30
0.0
 10
81.489611
 20
83.449364
 30
0.0
 10
81.870165
 20
87.880077
 30
0.0
 10
81.870165
 20
87.880077
 30
0.0
  0
LWPOLYLINE
  5
1ec
100
AcDbEntity
  8
Capa_1
 62
1
100
AcDbPolyline
 90
4
 70
1
 10
81.274275
 20
81.265587
 30
0.0
 10
81.274275
 20
81.265587
 30
0.0
 10
81.489611
 20
83.449364
 30
0.0
 10
81.489611
 20
83.449364
 30
0.0
  0
LWPOLYLINE
  5
1ed
100
AcDbEntity
  8
Capa_1
 62
1
100
AcDbPolyline
 90
4
 70
1
 10
81.041336
 20
79.105083
 30
0.0
 10
81.041336
 20
79.105083
 30
0.0
 10
81.274275
 20
81.265587
 30
0.0
 10
81.274275
 20
81.265587
 30
0.0
  0
LWPOLYLINE
  5
1ee
100
AcDbEntity
  8
Capa_1
 62
1
100
AcDbPolyline
 90
4
 70
1
 10
80.789986
 20
76.969379
 30
0.0
 10
80.789986
 20
76.969379
 30
0.0
 10
81.041336
 20
79.105083
 30
0.0
 10
81.041336
 20
79.105083
 30
0.0
  0
LWPOLYLINE
  5
1ef
100
AcDbEntity
  8
Capa_1
 62
1
100
AcDbPolyline
 90
4
 70
1
 10
80.519350
 20
74.859875
 30
0.0
 10
80.519350
 20
74.859875
 30
0.0
 10
80.789986
 20
76.969379
 30
0.0
 10
80.789986
 20
76.969379
 30
0.0
  0
LWPOLYLINE
  5
1f0
100
AcDbEntity
  8
Capa_1
 62
1
100
AcDbPolyline
 90
4
 70
1
 10
80.228538
 20
72.777851
 30
0.0
 10
80.228538
 20
72.777851
 30
0.0
 10
80.519350
 20
74.859875
 30
0.0
 10
80.519350
 20
74.859875
 30
0.0
  0
LWPOLYLINE
  5
1f1
100
AcDbEntity
  8
Capa_1
 62
1
100
AcDbPolyline
 90
4
 70
1
 10
79.916672
 20
70.724468
 30
0.0
 10
79.916672
 20
70.724468
 30
0.0
 10
80.228538
 20
72.777851
 30
0.0
 10
80.228538
 20
72.777851
 30
0.0
  0
LWPOLYLINE
  5
1f2
100
AcDbEntity
  8
Capa_1
 62
1
100
AcDbPolyline
 90
4
 70
1
 10
79.582935
 20
68.700780
 30
0.0
 10
79.582935
 20
68.700780
 30
0.0
 10
79.916672
 20
70.724468
 30
0.0
 10
79.916672
 20
70.724468
 30
0.0
  0
LWPOLYLINE
  5
1f3
100
AcDbEntity
  8
Capa_1
 62
1
100
AcDbPolyline
 90
4
 70
1
 10
79.226595
 20
66.707692
 30
0.0
 10
79.226595
 20
66.707692
 30
0.0
 10
79.582935
 20
68.700780
 30
0.0
 10
79.582935
 20
68.700780
 30
0.0
  0
LWPOLYLINE
  5
1f4
100
AcDbEntity
  8
Capa_1
 62
1
100
AcDbPolyline
 90
4
 70
1
 10
78.847017
 20
64.745992
 30
0.0
 10
78.847017
 20
64.745992
 30
0.0
 10
79.226595
 20
66.707692
 30
0.0
 10
79.226595
 20
66.707692
 30
0.0
  0
LWPOLYLINE
  5
1f5
100
AcDbEntity
  8
Capa_1
 62
1
100
AcDbPolyline
 90
4
 70
1
 10
78.443682
 20
62.816312
 30
0.0
 10
78.443682
 20
62.816312
 30
0.0
 10
78.847017
 20
64.745992
 30
0.0
 10
78.847017
 20
64.745992
 30
0.0
  0
LWPOLYLINE
  5
1f6
100
AcDbEntity
  8
Capa_1
 62
1
100
AcDbPolyline
 90
4
 70
1
 10
78.016188
 20
60.919103
 30
0.0
 10
78.016188
 20
60.919103
 30
0.0
 10
78.443682
 20
62.816312
 30
0.0
 10
78.443682
 20
62.816312
 30
0.0
  0
LWPOLYLINE
  5
1f7
100
AcDbEntity
  8
Capa_1
 62
1
100
AcDbPolyline
 90
4
 70
1
 10
77.564266
 20
59.054654
 30
0.0
 10
77.564266
 20
59.054654
 30
0.0
 10
78.016188
 20
60.919103
 30
0.0
 10
78.016188
 20
60.919103
 30
0.0
  0
LWPOLYLINE
  5
1f8
100
AcDbEntity
  8
Capa_1
 62
1
100
AcDbPolyline
 90
4
 70
1
 10
77.165594
 20
57.250249
 30
0.0
 10
77.165594
 20
57.250249
 30
0.0
 10
77.564266
 20
59.054654
 30
0.0
 10
77.564266
 20
59.054654
 30
0.0
  0
LWPOLYLINE
  5
1f9
100
AcDbEntity
  8
Capa_1
 62
1
100
AcDbPolyline
 90
4
 70
1
 10
76.870880
 20
55.425984
 30
0.0
 10
76.870880
 20
55.425984
 30
0.0
 10
77.165594
 20
57.250249
 30
0.0
 10
77.165594
 20
57.250249
 30
0.0
  0
LWPOLYLINE
  5
1fa
100
AcDbEntity
  8
Capa_1
 62
1
100
AcDbPolyline
 90
4
 70
1
 10
76.681087
 20
53.587834
 30
0.0
 10
76.681087
 20
53.587834
 30
0.0
 10
76.870880
 20
55.425984
 30
0.0
 10
76.870880
 20
55.425984
 30
0.0
  0
LWPOLYLINE
  5
1fb
100
AcDbEntity
  8
Capa_1
 62
1
100
AcDbPolyline
 90
4
 70
1
 10
76.596836
 20
51.741834
 30
0.0
 10
76.596836
 20
51.741834
 30
0.0
 10
76.681086
 20
53.587834
 30
0.0
 10
76.681086
 20
53.587834
 30
0.0
  0
LWPOLYLINE
  5
1fc
100
AcDbEntity
  8
Capa_1
 62
1
100
AcDbPolyline
 90
4
 70
1
 10
76.618412
 20
49.894040
 30
0.0
 10
76.618412
 20
49.894040
 30
0.0
 10
76.596832
 20
51.741834
 30
0.0
 10
76.596832
 20
51.741834
 30
0.0
  0
LWPOLYLINE
  5
1fd
100
AcDbEntity
  8
Capa_1
 62
1
100
AcDbPolyline
 90
4
 70
1
 10
76.745735
 20
48.050511
 30
0.0
 10
76.745735
 20
48.050511
 30
0.0
 10
76.618412
 20
49.894040
 30
0.0
 10
76.618412
 20
49.894040
 30
0.0
  0
LWPOLYLINE
  5
1fe
100
AcDbEntity
  8
Capa_1
 62
1
100
AcDbPolyline
 90
4
 70
1
 10
76.978390
 20
46.217297
 30
0.0
 10
76.978390
 20
46.217297
 30
0.0
 10
76.745735
 20
48.050511
 30
0.0
 10
76.745735
 20
48.050511
 30
0.0
  0
LWPOLYLINE
  5
1ff
100
AcDbEntity
  8
Capa_1
 62
1
100
AcDbPolyline
 90
4
 70
1
 10
77.315615
 20
44.400412
 30
0.0
 10
77.315615
 20
44.400412
 30
0.0
 10
76.978390
 20
46.217297
 30
0.0
 10
76.978390
 20
46.217297
 30
0.0
  0
LWPOLYLINE
  5
200
100
AcDbEntity
  8
Capa_1
 62
1
100
AcDbPolyline
 90
4
 70
1
 10
77.756304
 20
42.605802
 30
0.0
 10
77.756304
 20
42.605802
 30
0.0
 10
77.315615
 20
44.400412
 30
0.0
 10
77.315615
 20
44.400412
 30
0.0
  0
LWPOLYLINE
  5
201
100
AcDbEntity
  8
Capa_1
 62
1
100
AcDbPolyline
 90
4
 70
1
 10
78.299011
 20
40.839372
 30
0.0
 10
78.299011
 20
40.839372
 30
0.0
 10
77.756304
 20
42.605802
 30
0.0
 10
77.756304
 20
42.605802
 30
0.0
  0
LWPOLYLINE
  5
202
100
AcDbEntity
  8
Capa_1
 62
1
100
AcDbPolyline
 90
4
 70
1
 10
78.941956
 20
39.106912
 30
0.0
 10
78.941956
 20
39.106912
 30
0.0
 10
78.299011
 20
40.839372
 30
0.0
 10
78.299011
 20
40.839372
 30
0.0
  0
LWPOLYLINE
  5
203
100
AcDbEntity
  8
Capa_1
 62
1
100
AcDbPolyline
 90
4
 70
1
 10
79.683029
 20
37.414102
 30
0.0
 10
79.683029
 20
37.414102
 30
0.0
 10
78.941956
 20
39.106912
 30
0.0
 10
78.941956
 20
39.106912
 30
0.0
  0
LWPOLYLINE
  5
204
100
AcDbEntity
  8
Capa_1
 62
1
100
AcDbPolyline
 90
4
 70
1
 10
80.519800
 20
35.766482
 30
0.0
 10
80.519800
 20
35.766482
 30
0.0
 10
79.683029
 20
37.414102
 30
0.0
 10
79.683029
 20
37.414102
 30
0.0
  0
LWPOLYLINE
  5
205
100
AcDbEntity
  8
Capa_1
 62
1
100
AcDbPolyline
 90
4
 70
1
 10
81.449524
 20
34.169482
 30
0.0
 10
81.449524
 20
34.169482
 30
0.0
 10
80.519800
 20
35.766482
 30
0.0
 10
80.519800
 20
35.766482
 30
0.0
  0
LWPOLYLINE
  5
206
100
AcDbEntity
  8
Capa_1
 62
1
100
AcDbPolyline
 90
4
 70
1
 10
82.469151
 20
32.628322
 30
0.0
 10
82.469151
 20
32.628322
 30
0.0
 10
81.449524
 20
34.169482
 30
0.0
 10
81.449524
 20
34.169482
 30
0.0
  0
LWPOLYLINE
  5
207
100
AcDbEntity
  8
Capa_1
 62
1
100
AcDbPolyline
 90
4
 70
1
 10
83.575336
 20
31.148072
 30
0.0
 10
83.575336
 20
31.148072
 30
0.0
 10
82.469151
 20
32.628322
 30
0.0
 10
82.469151
 20
32.628322
 30
0.0
  0
LWPOLYLINE
  5
208
100
AcDbEntity
  8
Capa_1
 62
1
100
AcDbPolyline
 90
4
 70
1
 10
84.764451
 20
29.733562
 30
0.0
 10
84.764451
 20
29.733562
 30
0.0
 10
83.575336
 20
31.148072
 30
0.0
 10
83.575336
 20
31.148072
 30
0.0
  0
LWPOLYLINE
  5
209
100
AcDbEntity
  8
Capa_1
 62
1
100
AcDbPolyline
 90
4
 70
1
 10
86.032597
 20
28.389462
 30
0.0
 10
86.032597
 20
28.389462
 30
0.0
 10
84.764451
 20
29.733562
 30
0.0
 10
84.764451
 20
29.733562
 30
0.0
  0
LWPOLYLINE
  5
20a
100
AcDbEntity
  8
Capa_1
 62
1
100
AcDbPolyline
 90
4
 70
1
 10
87.375613
 20
27.120172
 30
0.0
 10
87.375613
 20
27.120172
 30
0.0
 10
86.032597
 20
28.389462
 30
0.0
 10
86.032597
 20
28.389462
 30
0.0
  0
LWPOLYLINE
  5
20b
100
AcDbEntity
  8
Capa_1
 62
1
100
AcDbPolyline
 90
4
 70
1
 10
88.789092
 20
25.929842
 30
0.0
 10
88.789092
 20
25.929842
 30
0.0
 10
87.375613
 20
27.120172
 30
0.0
 10
87.375613
 20
27.120172
 30
0.0
  0
LWPOLYLINE
  5
20c
100
AcDbEntity
  8
Capa_1
 62
1
100
AcDbPolyline
 90
4
 70
1
 10
90.268399
 20
24.822382
 30
0.0
 10
90.268399
 20
24.822382
 30
0.0
 10
88.789092
 20
25.929842
 30
0.0
 10
88.789092
 20
25.929842
 30
0.0
  0
LWPOLYLINE
  5
20d
100
AcDbEntity
  8
Capa_1
 62
1
100
AcDbPolyline
 90
4
 70
1
 10
91.808682
 20
23.801432
 30
0.0
 10
91.808682
 20
23.801432
 30
0.0
 10
90.268399
 20
24.822382
 30
0.0
 10
90.268399
 20
24.822382
 30
0.0
  0
LWPOLYLINE
  5
20e
100
AcDbEntity
  8
Capa_1
 62
1
100
AcDbPolyline
 90
4
 70
1
 10
93.404889
 20
22.870332
 30
0.0
 10
93.404889
 20
22.870332
 30
0.0
 10
91.808682
 20
23.801432
 30
0.0
 10
91.808682
 20
23.801432
 30
0.0
  0
LWPOLYLINE
  5
20f
100
AcDbEntity
  8
Capa_1
 62
1
100
AcDbPolyline
 90
4
 70
1
 10
95.051782
 20
22.032152
 30
0.0
 10
95.051782
 20
22.032152
 30
0.0
 10
93.404889
 20
22.870332
 30
0.0
 10
93.404889
 20
22.870332
 30
0.0
  0
LWPOLYLINE
  5
210
100
AcDbEntity
  8
Capa_1
 62
1
100
AcDbPolyline
 90
4
 70
1
 10
96.743958
 20
21.289632
 30
0.0
 10
96.743958
 20
21.289632
 30
0.0
 10
95.051782
 20
22.032152
 30
0.0
 10
95.051782
 20
22.032152
 30
0.0
  0
LWPOLYLINE
  5
211
100
AcDbEntity
  8
Capa_1
 62
1
100
AcDbPolyline
 90
4
 70
1
 10
98.475870
 20
20.645202
 30
0.0
 10
98.475870
 20
20.645202
 30
0.0
 10
96.743958
 20
21.289632
 30
0.0
 10
96.743958
 20
21.289632
 30
0.0
  0
LWPOLYLINE
  5
212
100
AcDbEntity
  8
Capa_1
 62
1
100
AcDbPolyline
 90
4
 70
1
 10
100.241835
 20
20.100982
 30
0.0
 10
100.241835
 20
20.100982
 30
0.0
 10
98.475870
 20
20.645202
 30
0.0
 10
98.475870
 20
20.645202
 30
0.0
  0
LWPOLYLINE
  5
213
100
AcDbEntity
  8
Capa_1
 62
1
100
AcDbPolyline
 90
4
 70
1
 10
102.036059
 20
19.658753
 30
0.0
 10
102.036059
 20
19.658753
 30
0.0
 10
100.241835
 20
20.100982
 30
0.0
 10
100.241835
 20
20.100982
 30
0.0
  0
LWPOLYLINE
  5
214
100
AcDbEntity
  8
Capa_1
 62
1
100
AcDbPolyline
 90
4
 70
1
 10
103.852659
 20
19.319963
 30
0.0
 10
103.852659
 20
19.319963
 30
0.0
 10
102.036059
 20
19.658753
 30
0.0
 10
102.036059
 20
19.658753
 30
0.0
  0
LWPOLYLINE
  5
215
100
AcDbEntity
  8
Capa_1
 62
1
100
AcDbPolyline
 90
4
 70
1
 10
105.685674
 20
19.085733
 30
0.0
 10
105.685674
 20
19.085733
 30
0.0
 10
103.852659
 20
19.319963
 30
0.0
 10
103.852659
 20
19.319963
 30
0.0
  0
LWPOLYLINE
  5
216
100
AcDbEntity
  8
Capa_1
 62
1
100
AcDbPolyline
 90
4
 70
1
 10
107.529093
 20
18.956833
 30
0.0
 10
107.529093
 20
18.956833
 30
0.0
 10
105.685674
 20
19.085733
 30
0.0
 10
105.685674
 20
19.085733
 30
0.0
  0
LWPOLYLINE
  5
217
100
AcDbEntity
  8
Capa_1
 62
1
100
AcDbPolyline
 90
4
 70
1
 10
109.376867
 20
18.933673
 30
0.0
 10
109.376867
 20
18.933673
 30
0.0
 10
107.529093
 20
18.956873
 30
0.0
 10
107.529093
 20
18.956873
 30
0.0
  0
LWPOLYLINE
  5
218
100
AcDbEntity
  8
Capa_1
 62
1
100
AcDbPolyline
 90
4
 70
1
 10
111.222937
 20
19.016343
 30
0.0
 10
111.222937
 20
19.016343
 30
0.0
 10
109.376867
 20
18.933643
 30
0.0
 10
109.376867
 20
18.933643
 30
0.0
  0
LWPOLYLINE
  5
219
100
AcDbEntity
  8
Capa_1
 62
1
100
AcDbPolyline
 90
4
 70
1
 10
113.061247
 20
19.204553
 30
0.0
 10
113.061247
 20
19.204553
 30
0.0
 10
111.222937
 20
19.016343
 30
0.0
 10
111.222937
 20
19.016343
 30
0.0
  0
LWPOLYLINE
  5
21a
100
AcDbEntity
  8
Capa_1
 62
1
100
AcDbPolyline
 90
4
 70
1
 10
114.885766
 20
19.497713
 30
0.0
 10
114.885766
 20
19.497713
 30
0.0
 10
113.061247
 20
19.204553
 30
0.0
 10
113.061247
 20
19.204553
 30
0.0
  0
LWPOLYLINE
  5
21b
100
AcDbEntity
  8
Capa_1
 62
1
100
AcDbPolyline
 90
4
 70
1
 10
116.690510
 20
19.894832
 30
0.0
 10
116.690510
 20
19.894832
 30
0.0
 10
114.885766
 20
19.497713
 30
0.0
 10
114.885766
 20
19.497713
 30
0.0
  0
LWPOLYLINE
  5
21c
100
AcDbEntity
  8
Capa_1
 62
1
100
AcDbPolyline
 90
4
 70
1
 10
118.469559
 20
20.394622
 30
0.0
 10
118.469559
 20
20.394622
 30
0.0
 10
116.690510
 20
19.894832
 30
0.0
 10
116.690510
 20
19.894832
 30
0.0
  0
LWPOLYLINE
  5
21d
100
AcDbEntity
  8
Capa_1
 62
1
100
AcDbPolyline
 90
4
 70
1
 10
120.217077
 20
20.995452
 30
0.0
 10
120.217077
 20
20.995452
 30
0.0
 10
118.469559
 20
20.394622
 30
0.0
 10
118.469559
 20
20.394622
 30
0.0
  0
LWPOLYLINE
  5
21e
100
AcDbEntity
  8
Capa_1
 62
1
100
AcDbPolyline
 90
4
 70
1
 10
121.927332
 20
21.695332
 30
0.0
 10
121.927332
 20
21.695332
 30
0.0
 10
120.217077
 20
20.995452
 30
0.0
 10
120.217077
 20
20.995452
 30
0.0
  0
LWPOLYLINE
  5
21f
100
AcDbEntity
  8
Capa_1
 62
1
100
AcDbPolyline
 90
4
 70
1
 10
123.594713
 20
22.491982
 30
0.0
 10
123.594713
 20
22.491982
 30
0.0
 10
121.927332
 20
21.695332
 30
0.0
 10
121.927332
 20
21.695332
 30
0.0
  0
LWPOLYLINE
  5
220
100
AcDbEntity
  8
Capa_1
 62
1
100
AcDbPolyline
 90
4
 70
1
 10
125.213752
 20
23.382782
 30
0.0
 10
125.213752
 20
23.382782
 30
0.0
 10
123.594713
 20
22.491982
 30
0.0
 10
123.594713
 20
22.491982
 30
0.0
  0
LWPOLYLINE
  5
221
100
AcDbEntity
  8
Capa_1
 62
1
100
AcDbPolyline
 90
4
 70
1
 10
126.779138
 20
24.364802
 30
0.0
 10
126.779138
 20
24.364802
 30
0.0
 10
125.213752
 20
23.382782
 30
0.0
 10
125.213752
 20
23.382782
 30
0.0
  0
LWPOLYLINE
  5
222
100
AcDbEntity
  8
Capa_1
 62
1
100
AcDbPolyline
 90
4
 70
1
 10
128.285735
 20
25.434832
 30
0.0
 10
128.285735
 20
25.434832
 30
0.0
 10
126.779138
 20
24.364802
 30
0.0
 10
126.779138
 20
24.364802
 30
0.0
  0
LWPOLYLINE
  5
223
100
AcDbEntity
  8
Capa_1
 62
1
100
AcDbPolyline
 90
4
 70
1
 10
129.728602
 20
26.589372
 30
0.0
 10
129.728602
 20
26.589372
 30
0.0
 10
128.285735
 20
25.434832
 30
0.0
 10
128.285735
 20
25.434832
 30
0.0
  0
LWPOLYLINE
  5
224
100
AcDbEntity
  8
Capa_1
 62
1
100
AcDbPolyline
 90
4
 70
1
 10
131.103007
 20
27.824602
 30
0.0
 10
131.103007
 20
27.824602
 30
0.0
 10
129.728602
 20
26.589372
 30
0.0
 10
129.728602
 20
26.589372
 30
0.0
  0
LWPOLYLINE
  5
225
100
AcDbEntity
  8
Capa_1
 62
1
100
AcDbPolyline
 90
4
 70
1
 10
132.404439
 20
29.136512
 30
0.0
 10
132.404439
 20
29.136512
 30
0.0
 10
131.103007
 20
27.824602
 30
0.0
 10
131.103007
 20
27.824602
 30
0.0
  0
LWPOLYLINE
  5
226
100
AcDbEntity
  8
Capa_1
 62
1
100
AcDbPolyline
 90
4
 70
1
 10
133.628631
 20
30.520762
 30
0.0
 10
133.628631
 20
30.520762
 30
0.0
 10
132.404439
 20
29.136512
 30
0.0
 10
132.404439
 20
29.136512
 30
0.0
  0
LWPOLYLINE
  5
227
100
AcDbEntity
  8
Capa_1
 62
1
100
AcDbPolyline
 90
4
 70
1
 10
134.771566
 20
31.972832
 30
0.0
 10
134.771566
 20
31.972832
 30
0.0
 10
133.628631
 20
30.520762
 30
0.0
 10
133.628631
 20
30.520762
 30
0.0
  0
LWPOLYLINE
  5
228
100
AcDbEntity
  8
Capa_1
 62
1
100
AcDbPolyline
 90
4
 70
1
 10
135.829496
 20
33.487952
 30
0.0
 10
135.829496
 20
33.487952
 30
0.0
 10
134.771566
 20
31.972832
 30
0.0
 10
134.771566
 20
31.972832
 30
0.0
  0
LWPOLYLINE
  5
229
100
AcDbEntity
  8
Capa_1
 62
1
100
AcDbPolyline
 90
4
 70
1
 10
136.798952
 20
35.061152
 30
0.0
 10
136.798952
 20
35.061152
 30
0.0
 10
135.829496
 20
33.487952
 30
0.0
 10
135.829496
 20
33.487952
 30
0.0
  0
LWPOLYLINE
  5
22a
100
AcDbEntity
  8
Capa_1
 62
1
100
AcDbPolyline
 90
4
 70
1
 10
137.676752
 20
36.687272
 30
0.0
 10
137.676752
 20
36.687272
 30
0.0
 10
136.798952
 20
35.061152
 30
0.0
 10
136.798952
 20
35.061152
 30
0.0
  0
LWPOLYLINE
  5
22b
100
AcDbEntity
  8
Capa_1
 62
1
100
AcDbPolyline
 90
4
 70
1
 10
138.460016
 20
38.360992
 30
0.0
 10
138.460016
 20
38.360992
 30
0.0
 10
137.676752
 20
36.687272
 30
0.0
 10
137.676752
 20
36.687272
 30
0.0
  0
LWPOLYLINE
  5
22c
100
AcDbEntity
  8
Capa_1
 62
1
100
AcDbPolyline
 90
4
 70
1
 10
139.146177
 20
40.076792
 30
0.0
 10
139.146177
 20
40.076792
 30
0.0
 10
138.460016
 20
38.360992
 30
0.0
 10
138.460016
 20
38.360992
 30
0.0
  0
LWPOLYLINE
  5
22d
100
AcDbEntity
  8
Capa_1
 62
1
100
AcDbPolyline
 90
4
 70
1
 10
139.732984
 20
41.829072
 30
0.0
 10
139.732984
 20
41.829072
 30
0.0
 10
139.146177
 20
40.076792
 30
0.0
 10
139.146177
 20
40.076792
 30
0.0
  0
LWPOLYLINE
  5
22e
100
AcDbEntity
  8
Capa_1
 62
1
100
AcDbPolyline
 90
4
 70
1
 10
140.218510
 20
43.612062
 30
0.0
 10
140.218510
 20
43.612062
 30
0.0
 10
139.732984
 20
41.829072
 30
0.0
 10
139.732984
 20
41.829072
 30
0.0
  0
LWPOLYLINE
  5
22f
100
AcDbEntity
  8
Capa_1
 62
1
100
AcDbPolyline
 90
4
 70
1
 10
140.601164
 20
45.419934
 30
0.0
 10
140.601164
 20
45.419934
 30
0.0
 10
140.218510
 20
43.612062
 30
0.0
 10
140.218510
 20
43.612062
 30
0.0
  0
LWPOLYLINE
  5
230
100
AcDbEntity
  8
Capa_1
 62
1
100
AcDbPolyline
 90
4
 70
1
 10
140.879690
 20
47.246739
 30
0.0
 10
140.879690
 20
47.246739
 30
0.0
 10
140.601164
 20
45.419934
 30
0.0
 10
140.601164
 20
45.419934
 30
0.0
  0
LWPOLYLINE
  5
231
100
AcDbEntity
  8
Capa_1
 62
1
100
AcDbPolyline
 90
4
 70
1
 10
141.053175
 20
49.086499
 30
0.0
 10
141.053175
 20
49.086499
 30
0.0
 10
140.879690
 20
47.246739
 30
0.0
 10
140.879690
 20
47.246739
 30
0.0
  0
LWPOLYLINE
  5
232
100
AcDbEntity
  8
Capa_1
 62
1
100
AcDbPolyline
 90
4
 70
1
 10
141.121050
 20
50.933171
 30
0.0
 10
141.121050
 20
50.933171
 30
0.0
 10
141.053180
 20
49.086499
 30
0.0
 10
141.053180
 20
49.086499
 30
0.0
  0
LWPOLYLINE
  5
233
100
AcDbEntity
  8
Capa_1
 62
1
100
AcDbPolyline
 90
4
 70
1
 10
141.083090
 20
52.780698
 30
0.0
 10
141.083090
 20
52.780698
 30
0.0
 10
141.121050
 20
50.933171
 30
0.0
 10
141.121050
 20
50.933171
 30
0.0
  0
LWPOLYLINE
  5
234
100
AcDbEntity
  8
Capa_1
 62
1
100
AcDbPolyline
 90
4
 70
1
 10
140.939424
 20
54.623029
 30
0.0
 10
140.939424
 20
54.623029
 30
0.0
 10
141.083090
 20
52.780698
 30
0.0
 10
141.083090
 20
52.780698
 30
0.0
  0
LWPOLYLINE
  5
235
100
AcDbEntity
  8
Capa_1
 62
1
100
AcDbPolyline
 90
312
 70
1
 10
78.016188
 20
60.919103
 30
0.0
 10
78.443682
 20
62.816312
 30
0.0
 10
78.847017
 20
64.745992
 30
0.0
 10
79.226595
 20
66.707692
 30
0.0
 10
79.582935
 20
68.700780
 30
0.0
 10
79.916672
 20
70.724468
 30
0.0
 10
80.228538
 20
72.777851
 30
0.0
 10
80.519350
 20
74.859875
 30
0.0
 10
80.789986
 20
76.969379
 30
0.0
 10
81.041336
 20
79.105083
 30
0.0
 10
81.274275
 20
81.265587
 30
0.0
 10
81.489611
 20
83.449364
 30
0.0
 10
81.870165
 20
87.880077
 30
0.0
 10
82.186838
 20
92.382763
 30
0.0
 10
82.440977
 20
96.941448
 30
0.0
 10
82.631754
 20
101.539234
 30
0.0
 10
82.756399
 20
106.158821
 30
0.0
 10
82.808899
 20
110.782463
 30
0.0
 10
82.776909
 20
115.391199
 30
0.0
 10
82.722789
 20
117.683513
 30
0.0
 10
82.638469
 20
119.964070
 30
0.0
 10
82.519697
 20
122.230002
 30
0.0
 10
82.361931
 20
124.478495
 30
0.0
 10
82.160555
 20
126.706879
 30
0.0
 10
81.911083
 20
128.912723
 30
0.0
 10
81.609367
 20
131.093927
 30
0.0
 10
81.251791
 20
133.248808
 30
0.0
 10
80.835409
 20
135.376144
 30
0.0
 10
80.358095
 20
137.475218
 30
0.0
 10
79.818666
 20
139.545849
 30
0.0
 10
79.217016
 20
141.588435
 30
0.0
 10
78.554254
 20
143.603988
 30
0.0
 10
77.832805
 20
145.594163
 30
0.0
 10
77.056379
 20
147.561228
 30
0.0
 10
76.229803
 20
149.507992
 30
0.0
 10
75.358858
 20
151.437728
 30
0.0
 10
74.450094
 20
153.354092
 30
0.0
 10
72.548158
 20
157.162785
 30
0.0
 10
70.585695
 20
160.968150
 30
0.0
 10
68.628267
 20
164.806365
 30
0.0
 10
67.672548
 20
166.749409
 30
0.0
 10
66.743543
 20
168.714650
 30
0.0
 10
65.849767
 20
170.706732
 30
0.0
 10
64.999624
 20
172.730226
 30
0.0
 10
64.201307
 20
174.789575
 30
0.0
 10
63.462686
 20
176.889032
 30
0.0
 10
62.791197
 20
179.032617
 30
0.0
 10
62.193750
 20
181.224065
 30
0.0
 10
61.676630
 20
183.466768
 30
0.0
 10
61.245374
 20
185.763719
 30
0.0
 10
61.063459
 20
186.933355
 30
0.0
 10
60.904718
 20
188.117479
 30
0.0
 10
60.769602
 20
189.316332
 30
0.0
 10
60.658498
 20
190.530122
 30
0.0
 10
60.571738
 20
191.759035
 30
0.0
 10
60.509568
 20
193.003198
 30
0.0
 10
60.472188
 20
194.262724
 30
0.0
 10
60.459718
 20
195.537672
 30
0.0
 10
60.465418
 20
198.755071
 30
0.0
 10
60.482678
 20
201.879747
 30
0.0
 10
60.511688
 20
204.913053
 30
0.0
 10
60.552668
 20
207.856332
 30
0.0
 10
60.605818
 20
210.710931
 30
0.0
 10
60.671348
 20
213.478197
 30
0.0
 10
60.749458
 20
216.159464
 30
0.0
 10
60.840358
 20
218.756090
 30
0.0
 10
60.944255
 20
221.269425
 30
0.0
 10
61.061354
 20
223.700799
 30
0.0
 10
61.191863
 20
226.051568
 30
0.0
 10
61.335990
 20
228.323075
 30
0.0
 10
61.493945
 20
230.516663
 30
0.0
 10
61.665927
 20
232.633683
 30
0.0
 10
61.852149
 20
234.675484
 30
0.0
 10
62.052817
 20
236.643395
 30
0.0
 10
62.268134
 20
238.538781
 30
0.0
 10
62.498309
 20
240.362977
 30
0.0
 10
62.743552
 20
242.117333
 30
0.0
 10
63.004065
 20
243.803185
 30
0.0
 10
63.280055
 20
245.421888
 30
0.0
 10
63.571734
 20
246.974798
 30
0.0
 10
63.879302
 20
248.463238
 30
0.0
 10
64.202971
 20
249.888558
 30
0.0
 10
64.542949
 20
251.252118
 30
0.0
 10
64.899432
 20
252.555248
 30
0.0
 10
65.272639
 20
253.799308
 30
0.0
 10
65.662772
 20
254.985638
 30
0.0
 10
66.070037
 20
256.115578
 30
0.0
 10
66.494643
 20
257.190488
 30
0.0
 10
66.936793
 20
258.211688
 30
0.0
 10
67.396701
 20
259.180548
 30
0.0
 10
67.874564
 20
260.098408
 30
0.0
 10
68.370597
 20
260.966598
 30
0.0
 10
68.885001
 20
261.786488
 30
0.0
 10
69.417987
 20
262.559408
 30
0.0
 10
69.969756
 20
263.286698
 30
0.0
 10
70.540522
 20
263.969728
 30
0.0
 10
71.130492
 20
264.609818
 30
0.0
 10
71.739863
 20
265.208328
 30
0.0
 10
72.368853
 20
265.766598
 30
0.0
 10
73.017661
 20
266.285978
 30
0.0
 10
73.686499
 20
266.767818
 30
0.0
 10
74.375571
 20
267.213448
 30
0.0
 10
75.085086
 20
267.624218
 30
0.0
 10
75.815245
 20
268.001488
 30
0.0
 10
76.566260
 20
268.346598
 30
0.0
 10
77.338340
 20
268.660878
 30
0.0
 10
78.131684
 20
268.945688
 30
0.0
 10
78.946505
 20
269.202368
 30
0.0
 10
79.783009
 20
269.432278
 30
0.0
 10
80.641400
 20
269.636738
 30
0.0
 10
81.521888
 20
269.817118
 30
0.0
 10
82.424678
 20
269.974748
 30
0.0
 10
83.349976
 20
270.110987
 30
0.0
 10
84.297991
 20
270.227157
 30
0.0
 10
85.268926
 20
270.324657
 30
0.0
 10
86.262995
 20
270.404757
 30
0.0
 10
87.280397
 20
270.468857
 30
0.0
 10
88.321342
 20
270.518257
 30
0.0
 10
90.474689
 20
270.578457
 30
0.0
 10
92.724689
 20
270.596157
 30
0.0
 10
94.297046
 20
270.575857
 30
0.0
 10
95.807919
 20
270.516157
 30
0.0
 10
97.260190
 20
270.418957
 30
0.0
 10
98.656647
 20
270.286077
 30
0.0
 10
99.999993
 20
270.119197
 30
0.0
 10
101.292835
 20
269.920008
 30
0.0
 10
102.537696
 20
269.690098
 30
0.0
 10
103.737013
 20
269.431048
 30
0.0
 10
104.893139
 20
269.144368
 30
0.0
 10
106.008341
 20
268.831508
 30
0.0
 10
107.084806
 20
268.493858
 30
0.0
 10
108.124639
 20
268.132788
 30
0.0
 10
109.129866
 20
267.749598
 30
0.0
 10
110.102437
 20
267.345528
 30
0.0
 10
111.044223
 20
266.921788
 30
0.0
 10
111.957020
 20
266.479548
 30
0.0
 10
112.842551
 20
266.019908
 30
0.0
 10
113.702468
 20
265.543948
 30
0.0
 10
115.351701
 20
264.547088
 30
0.0
 10
116.916527
 20
263.496638
 30
0.0
 10
118.407681
 20
262.399608
 30
0.0
 10
119.834869
 20
261.262408
 30
0.0
 10
121.206816
 20
260.090788
 30
0.0
 10
122.531306
 20
258.889988
 30
0.0
 10
123.815229
 20
257.664698
 30
0.0
 10
125.064623
 20
256.419078
 30
0.0
 10
126.284715
 20
255.156828
 30
0.0
 10
128.654144
 20
252.595088
 30
0.0
 10
130.950867
 20
250.000718
 30
0.0
 10
133.192125
 20
247.389368
 30
0.0
 10
135.386451
 20
244.771988
 30
0.0
 10
137.535079
 20
242.155868
 30
0.0
 10
139.633343
 20
239.545615
 30
0.0
 10
141.672097
 20
236.944114
 30
0.0
 10
143.639088
 20
234.353492
 30
0.0
 10
145.520253
 20
231.775344
 30
0.0
 10
146.423966
 20
230.490920
 30
0.0
 10
147.300553
 20
229.209098
 30
0.0
 10
148.148110
 20
227.929084
 30
0.0
 10
148.964761
 20
226.649635
 30
0.0
 10
149.748688
 20
225.369010
 30
0.0
 10
150.498154
 20
224.084884
 30
0.0
 10
151.211526
 20
222.794265
 30
0.0
 10
151.887292
 20
221.493423
 30
0.0
 10
152.524079
 20
220.177848
 30
0.0
 10
153.120702
 20
218.842102
 30
0.0
 10
153.676160
 20
217.479828
 30
0.0
 10
154.189660
 20
216.083603
 30
0.0
 10
154.660668
 20
214.644921
 30
0.0
 10
155.088895
 20
213.154068
 30
0.0
 10
155.474343
 20
211.600098
 30
0.0
 10
155.817322
 20
209.970696
 30
0.0
 10
156.118481
 20
208.252171
 30
0.0
 10
156.253670
 20
207.354801
 30
0.0
 10
156.378808
 20
206.429329
 30
0.0
 10
156.494076
 20
205.473618
 30
0.0
 10
156.599679
 20
204.485421
 30
0.0
 10
156.695859
 20
203.462387
 30
0.0
 10
156.782869
 20
202.402062
 30
0.0
 10
156.860999
 20
201.301880
 30
0.0
 10
156.930569
 20
200.159161
 30
0.0
 10
156.991919
 20
198.971119
 30
0.0
 10
157.045419
 20
197.734841
 30
0.0
 10
157.091479
 20
196.447308
 30
0.0
 10
157.130529
 20
195.105366
 30
0.0
 10
157.163039
 20
193.705750
 30
0.0
 10
157.189509
 20
192.245064
 30
0.0
 10
157.210459
 20
190.719780
 30
0.0
 10
157.226469
 20
189.126252
 30
0.0
 10
157.238119
 20
187.460686
 30
0.0
 10
157.246019
 20
185.719170
 30
0.0
 10
157.250919
 20
183.897637
 30
0.0
 10
157.253519
 20
181.991890
 30
0.0
 10
157.254473
 20
179.997589
 30
0.0
 10
157.254610
 20
177.910252
 30
0.0
 10
157.248310
 20
176.646765
 30
0.0
 10
157.229530
 20
175.407879
 30
0.0
 10
157.198300
 20
174.193466
 30
0.0
 10
157.154710
 20
173.003319
 30
0.0
 10
157.030931
 20
170.694624
 30
0.0
 10
156.859533
 20
168.478721
 30
0.0
 10
156.642297
 20
166.351484
 30
0.0
 10
156.381425
 20
164.307844
 30
0.0
 10
156.079492
 20
162.341865
 30
0.0
 10
155.739408
 20
160.446856
 30
0.0
 10
155.364389
 20
158.615468
 30
0.0
 10
154.957880
 20
156.839838
 30
0.0
 10
154.523515
 20
155.111719
 30
0.0
 10
154.065069
 20
153.422608
 30
0.0
 10
153.586389
 20
151.763886
 30
0.0
 10
153.091363
 20
150.126946
 30
0.0
 10
152.067728
 20
146.884626
 30
0.0
 10
151.024610
 20
143.630103
 30
0.0
 10
149.991250
 20
140.302091
 30
0.0
 10
149.486879
 20
138.592931
 30
0.0
 10
148.994974
 20
136.845313
 30
0.0
 10
148.518377
 20
135.053977
 30
0.0
 10
148.059518
 20
133.214769
 30
0.0
 10
147.620355
 20
131.324873
 30
0.0
 10
147.202245
 20
129.383073
 30
0.0
 10
146.805883
 20
127.389964
 30
0.0
 10
146.431280
 20
125.347982
 30
0.0
 10
146.077852
 20
123.261182
 30
0.0
 10
145.744489
 20
121.134988
 30
0.0
 10
145.429674
 20
118.975928
 30
0.0
 10
145.131567
 20
116.791369
 30
0.0
 10
144.577024
 20
112.377917
 30
0.0
 10
144.063276
 20
107.960349
 30
0.0
 10
143.574098
 20
103.599936
 30
0.0
 10
143.334909
 20
101.456721
 30
0.0
 10
143.098192
 20
99.343901
 30
0.0
 10
142.863767
 20
97.263949
 30
0.0
 10
142.631898
 20
95.218073
 30
0.0
 10
142.403230
 20
93.206400
 30
0.0
 10
142.178712
 20
91.228209
 30
0.0
 10
141.959520
 20
89.282111
 30
0.0
 10
141.746976
 20
87.366263
 30
0.0
 10
141.542512
 20
85.478526
 30
0.0
 10
141.347631
 20
83.616469
 30
0.0
 10
140.993051
 20
79.958369
 30
0.0
 10
140.696851
 20
76.367342
 30
0.0
 10
140.473688
 20
72.814959
 30
0.0
 10
140.338701
 20
69.270389
 30
0.0
 10
140.308871
 20
67.491405
 30
0.0
 10
140.306471
 20
65.703136
 30
0.0
 10
140.332951
 20
63.902286
 30
0.0
 10
140.389711
 20
62.085948
 30
0.0
 10
140.477921
 20
60.251628
 30
0.0
 10
140.598517
 20
58.397289
 30
0.0
 10
140.752211
 20
56.521396
 30
0.0
 10
140.939457
 20
54.622959
 30
0.0
 10
141.083123
 20
52.780628
 30
0.0
 10
141.121083
 20
50.933101
 30
0.0
 10
141.053213
 20
49.086429
 30
0.0
 10
140.879728
 20
47.246669
 30
0.0
 10
140.601202
 20
45.419864
 30
0.0
 10
140.218548
 20
43.611992
 30
0.0
 10
139.733022
 20
41.829002
 30
0.0
 10
139.146215
 20
40.076722
 30
0.0
 10
138.460054
 20
38.360922
 30
0.0
 10
137.676790
 20
36.687202
 30
0.0
 10
136.798990
 20
35.061082
 30
0.0
 10
135.829534
 20
33.487882
 30
0.0
 10
134.771604
 20
31.972762
 30
0.0
 10
133.628669
 20
30.520692
 30
0.0
 10
132.404477
 20
29.136442
 30
0.0
 10
131.103045
 20
27.824532
 30
0.0
 10
129.728640
 20
26.589302
 30
0.0
 10
128.285773
 20
25.434762
 30
0.0
 10
126.779176
 20
24.364732
 30
0.0
 10
125.213790
 20
23.382712
 30
0.0
 10
123.594751
 20
22.491912
 30
0.0
 10
121.927370
 20
21.695262
 30
0.0
 10
120.217115
 20
20.995382
 30
0.0
 10
118.469597
 20
20.394552
 30
0.0
 10
116.690548
 20
19.894762
 30
0.0
 10
114.885804
 20
19.497643
 30
0.0
 10
113.061285
 20
19.204483
 30
0.0
 10
111.222975
 20
19.016273
 30
0.0
 10
109.376905
 20
18.933573
 30
0.0
 10
107.529131
 20
18.956773
 30
0.0
 10
105.685712
 20
19.085673
 30
0.0
 10
103.852697
 20
19.319903
 30
0.0
 10
102.036097
 20
19.658693
 30
0.0
 10
100.241873
 20
20.100922
 30
0.0
 10
98.475908
 20
20.645142
 30
0.0
 10
96.743996
 20
21.289572
 30
0.0
 10
95.051820
 20
22.032092
 30
0.0
 10
93.404927
 20
22.870272
 30
0.0
 10
91.808720
 20
23.801372
 30
0.0
 10
90.268437
 20
24.822322
 30
0.0
 10
88.789130
 20
25.929782
 30
0.0
 10
87.375651
 20
27.120112
 30
0.0
 10
86.032635
 20
28.389402
 30
0.0
 10
84.764489
 20
29.733502
 30
0.0
 10
83.575374
 20
31.148012
 30
0.0
 10
82.469189
 20
32.628262
 30
0.0
 10
81.449562
 20
34.169422
 30
0.0
 10
80.519838
 20
35.766422
 30
0.0
 10
79.683067
 20
37.414042
 30
0.0
 10
78.941994
 20
39.106852
 30
0.0
 10
78.299049
 20
40.839312
 30
0.0
 10
77.756342
 20
42.605742
 30
0.0
 10
77.315653
 20
44.400352
 30
0.0
 10
76.978428
 20
46.217237
 30
0.0
 10
76.745773
 20
48.050451
 30
0.0
 10
76.618450
 20
49.893980
 30
0.0
 10
76.596870
 20
51.741774
 30
0.0
 10
76.681120
 20
53.587774
 30
0.0
 10
76.870913
 20
55.425924
 30
0.0
 10
77.165627
 20
57.250189
 30
0.0
 10
77.564299
 20
59.054594
 30
0.0
  0
LWPOLYLINE
  5
236
100
AcDbEntity
  8
Capa_1
 62
1
100
AcDbPolyline
 90
312
 70
1
 10
140.752178
 20
56.521466
 30
0.0
 10
140.598484
 20
58.397359
 30
0.0
 10
140.477888
 20
60.251698
 30
0.0
 10
140.389678
 20
62.086018
 30
0.0
 10
140.332918
 20
63.902356
 30
0.0
 10
140.306438
 20
65.703206
 30
0.0
 10
140.308838
 20
67.491475
 30
0.0
 10
140.338668
 20
69.270459
 30
0.0
 10
140.473655
 20
72.815029
 30
0.0
 10
140.696818
 20
76.367412
 30
0.0
 10
140.993018
 20
79.958439
 30
0.0
 10
141.347598
 20
83.616539
 30
0.0
 10
141.542479
 20
85.478596
 30
0.0
 10
141.746943
 20
87.366333
 30
0.0
 10
141.959487
 20
89.282181
 30
0.0
 10
142.178679
 20
91.228279
 30
0.0
 10
142.403197
 20
93.206470
 30
0.0
 10
142.631865
 20
95.218143
 30
0.0
 10
142.863734
 20
97.264019
 30
0.0
 10
143.098159
 20
99.343971
 30
0.0
 10
143.334876
 20
101.456791
 30
0.0
 10
143.574065
 20
103.600006
 30
0.0
 10
144.063243
 20
107.960419
 30
0.0
 10
144.576991
 20
112.377987
 30
0.0
 10
145.131534
 20
116.791439
 30
0.0
 10
145.429641
 20
118.975998
 30
0.0
 10
145.744456
 20
121.135058
 30
0.0
 10
146.077819
 20
123.261252
 30
0.0
 10
146.431247
 20
125.348052
 30
0.0
 10
146.805850
 20
127.390034
 30
0.0
 10
147.202212
 20
129.383143
 30
0.0
 10
147.620322
 20
131.324943
 30
0.0
 10
148.059485
 20
133.214839
 30
0.0
 10
148.518344
 20
135.054047
 30
0.0
 10
148.994941
 20
136.845383
 30
0.0
 10
149.486846
 20
138.593001
 30
0.0
 10
149.991217
 20
140.302161
 30
0.0
 10
151.024577
 20
143.630173
 30
0.0
 10
152.067695
 20
146.884696
 30
0.0
 10
153.091330
 20
150.127016
 30
0.0
 10
153.586356
 20
151.763956
 30
0.0
 10
154.065036
 20
153.422678
 30
0.0
 10
154.523482
 20
155.111789
 30
0.0
 10
154.957847
 20
156.839908
 30
0.0
 10
155.364356
 20
158.615538
 30
0.0
 10
155.739375
 20
160.446926
 30
0.0
 10
156.079459
 20
162.341935
 30
0.0
 10
156.381392
 20
164.307914
 30
0.0
 10
156.642264
 20
166.351554
 30
0.0
 10
156.859500
 20
168.478791
 30
0.0
 10
157.030898
 20
170.694694
 30
0.0
 10
157.154677
 20
173.003389
 30
0.0
 10
157.198267
 20
174.193536
 30
0.0
 10
157.229497
 20
175.407949
 30
0.0
 10
157.248277
 20
176.646835
 30
0.0
 10
157.254577
 20
177.910322
 30
0.0
 10
157.254440
 20
179.997659
 30
0.0
 10
157.253486
 20
181.991960
 30
0.0
 10
157.250886
 20
183.897707
 30
0.0
 10
157.245986
 20
185.719240
 30
0.0
 10
157.238086
 20
187.460756
 30
0.0
 10
157.226436
 20
189.126322
 30
0.0
 10
157.210426
 20
190.719850
 30
0.0
 10
157.189476
 20
192.245134
 30
0.0
 10
157.163006
 20
193.705820
 30
0.0
 10
157.130496
 20
195.105436
 30
0.0
 10
157.091446
 20
196.447378
 30
0.0
 10
157.045386
 20
197.734911
 30
0.0
 10
156.991886
 20
198.971189
 30
0.0
 10
156.930536
 20
200.159231
 30
0.0
 10
156.860966
 20
201.301950
 30
0.0
 10
156.782836
 20
202.402132
 30
0.0
 10
156.695826
 20
203.462457
 30
0.0
 10
156.599646
 20
204.485491
 30
0.0
 10
156.494043
 20
205.473688
 30
0.0
 10
156.378775
 20
206.429399
 30
0.0
 10
156.253637
 20
207.354871
 30
0.0
 10
156.118448
 20
208.252241
 30
0.0
 10
155.817289
 20
209.970766
 30
0.0
 10
155.474310
 20
211.600168
 30
0.0
 10
155.088862
 20
213.154138
 30
0.0
 10
154.660635
 20
214.644991
 30
0.0
 10
154.189627
 20
216.083673
 30
0.0
 10
153.676127
 20
217.479898
 30
0.0
 10
153.120669
 20
218.842172
 30
0.0
 10
152.524046
 20
220.177918
 30
0.0
 10
151.887259
 20
221.493493
 30
0.0
 10
151.211493
 20
222.794335
 30
0.0
 10
150.498121
 20
224.084954
 30
0.0
 10
149.748655
 20
225.369080
 30
0.0
 10
148.964728
 20
226.649705
 30
0.0
 10
148.148077
 20
227.929154
 30
0.0
 10
147.300520
 20
229.209168
 30
0.0
 10
146.423933
 20
230.490990
 30
0.0
 10
145.520220
 20
231.775414
 30
0.0
 10
143.639055
 20
234.353562
 30
0.0
 10
141.672064
 20
236.944184
 30
0.0
 10
139.633310
 20
239.545685
 30
0.0
 10
137.535046
 20
242.155938
 30
0.0
 10
135.386418
 20
244.772058
 30
0.0
 10
133.192092
 20
247.389438
 30
0.0
 10
130.950834
 20
250.000788
 30
0.0
 10
128.654111
 20
252.595158
 30
0.0
 10
126.284682
 20
255.156898
 30
0.0
 10
125.064590
 20
256.419148
 30
0.0
 10
123.815196
 20
257.664768
 30
0.0
 10
122.531273
 20
258.890058
 30
0.0
 10
121.206783
 20
260.090858
 30
0.0
 10
119.834836
 20
261.262478
 30
0.0
 10
118.407648
 20
262.399678
 30
0.0
 10
116.916494
 20
263.496708
 30
0.0
 10
115.351668
 20
264.547158
 30
0.0
 10
113.702435
 20
265.544018
 30
0.0
 10
112.842518
 20
266.019978
 30
0.0
 10
111.956987
 20
266.479618
 30
0.0
 10
111.044190
 20
266.921858
 30
0.0
 10
110.102404
 20
267.345598
 30
0.0
 10
109.129833
 20
267.749668
 30
0.0
 10
108.124606
 20
268.132858
 30
0.0
 10
107.084773
 20
268.493928
 30
0.0
 10
106.008308
 20
268.831578
 30
0.0
 10
104.893106
 20
269.144438
 30
0.0
 10
103.736980
 20
269.431118
 30
0.0
 10
102.537663
 20
269.690168
 30
0.0
 10
101.292802
 20
269.920078
 30
0.0
 10
99.999960
 20
270.119267
 30
0.0
 10
98.656614
 20
270.286147
 30
0.0
 10
97.260157
 20
270.419027
 30
0.0
 10
95.807886
 20
270.516227
 30
0.0
 10
94.297013
 20
270.575927
 30
0.0
 10
92.724656
 20
270.596227
 30
0.0
 10
90.474656
 20
270.578527
 30
0.0
 10
88.321309
 20
270.518327
 30
0.0
 10
87.280364
 20
270.468927
 30
0.0
 10
86.262962
 20
270.404827
 30
0.0
 10
85.268893
 20
270.324727
 30
0.0
 10
84.297958
 20
270.227227
 30
0.0
 10
83.349943
 20
270.111057
 30
0.0
 10
82.424645
 20
269.974818
 30
0.0
 10
81.521855
 20
269.817188
 30
0.0
 10
80.641367
 20
269.636808
 30
0.0
 10
79.782976
 20
269.432348
 30
0.0
 10
78.946472
 20
269.202438
 30
0.0
 10
78.131651
 20
268.945758
 30
0.0
 10
77.338307
 20
268.660948
 30
0.0
 10
76.566227
 20
268.346668
 30
0.0
 10
75.815212
 20
268.001558
 30
0.0
 10
75.085053
 20
267.624288
 30
0.0
 10
74.375538
 20
267.213518
 30
0.0
 10
73.686466
 20
266.767888
 30
0.0
 10
73.017628
 20
266.286048
 30
0.0
 10
72.368820
 20
265.766668
 30
0.0
 10
71.739830
 20
265.208398
 30
0.0
 10
71.130459
 20
264.609888
 30
0.0
 10
70.540489
 20
263.969798
 30
0.0
 10
69.969723
 20
263.286768
 30
0.0
 10
69.417954
 20
262.559478
 30
0.0
 10
68.884968
 20
261.786558
 30
0.0
 10
68.370564
 20
260.966668
 30
0.0
 10
67.874531
 20
260.098478
 30
0.0
 10
67.396668
 20
259.180618
 30
0.0
 10
66.936760
 20
258.211758
 30
0.0
 10
66.494610
 20
257.190558
 30
0.0
 10
66.070004
 20
256.115648
 30
0.0
 10
65.662739
 20
254.985708
 30
0.0
 10
65.272606
 20
253.799378
 30
0.0
 10
64.899399
 20
252.555318
 30
0.0
 10
64.542916
 20
251.252188
 30
0.0
 10
64.202938
 20
249.888628
 30
0.0
 10
63.879269
 20
248.463308
 30
0.0
 10
63.571701
 20
246.974868
 30
0.0
 10
63.280022
 20
245.421958
 30
0.0
 10
63.004032
 20
243.803255
 30
0.0
 10
62.743519
 20
242.117403
 30
0.0
 10
62.498276
 20
240.363047
 30
0.0
 10
62.268101
 20
238.538851
 30
0.0
 10
62.052784
 20
236.643465
 30
0.0
 10
61.852116
 20
234.675554
 30
0.0
 10
61.665894
 20
232.633753
 30
0.0
 10
61.493912
 20
230.516733
 30
0.0
 10
61.335957
 20
228.323145
 30
0.0
 10
61.191830
 20
226.051638
 30
0.0
 10
61.061321
 20
223.700869
 30
0.0
 10
60.944222
 20
221.269495
 30
0.0
 10
60.840325
 20
218.756160
 30
0.0
 10
60.749425
 20
216.159534
 30
0.0
 10
60.671315
 20
213.478267
 30
0.0
 10
60.605785
 20
210.711001
 30
0.0
 10
60.552635
 20
207.856402
 30
0.0
 10
60.511655
 20
204.913123
 30
0.0
 10
60.482645
 20
201.879817
 30
0.0
 10
60.465385
 20
198.755141
 30
0.0
 10
60.459685
 20
195.537742
 30
0.0
 10
60.472155
 20
194.262794
 30
0.0
 10
60.509535
 20
193.003268
 30
0.0
 10
60.571705
 20
191.759105
 30
0.0
 10
60.658465
 20
190.530192
 30
0.0
 10
60.769569
 20
189.316402
 30
0.0
 10
60.904685
 20
188.117549
 30
0.0
 10
61.063426
 20
186.933425
 30
0.0
 10
61.245341
 20
185.763789
 30
0.0
 10
61.676597
 20
183.466838
 30
0.0
 10
62.193717
 20
181.224135
 30
0.0
 10
62.791164
 20
179.032687
 30
0.0
 10
63.462653
 20
176.889102
 30
0.0
 10
64.201274
 20
174.789645
 30
0.0
 10
64.999591
 20
172.730296
 30
0.0
 10
65.849734
 20
170.706802
 30
0.0
 10
66.743510
 20
168.714720
 30
0.0
 10
67.672515
 20
166.749479
 30
0.0
 10
68.628234
 20
164.806435
 30
0.0
 10
70.585662
 20
160.968220
 30
0.0
 10
72.548125
 20
157.162855
 30
0.0
 10
74.450061
 20
153.354162
 30
0.0
 10
75.358825
 20
151.437798
 30
0.0
 10
76.229770
 20
149.508062
 30
0.0
 10
77.056346
 20
147.561298
 30
0.0
 10
77.832772
 20
145.594233
 30
0.0
 10
78.554221
 20
143.604058
 30
0.0
 10
79.216983
 20
141.588505
 30
0.0
 10
79.818633
 20
139.545919
 30
0.0
 10
80.358062
 20
137.475288
 30
0.0
 10
80.835376
 20
135.376214
 30
0.0
 10
81.251758
 20
133.248878
 30
0.0
 10
81.609334
 20
131.093997
 30
0.0
 10
81.911050
 20
128.912793
 30
0.0
 10
82.160522
 20
126.706949
 30
0.0
 10
82.361898
 20
124.478565
 30
0.0
 10
82.519664
 20
122.230072
 30
0.0
 10
82.638436
 20
119.964140
 30
0.0
 10
82.722756
 20
117.683583
 30
0.0
 10
82.776876
 20
115.391269
 30
0.0
 10
82.808866
 20
110.782533
 30
0.0
 10
82.756366
 20
106.158891
 30
0.0
 10
82.631721
 20
101.539304
 30
0.0
 10
82.440944
 20
96.941518
 30
0.0
 10
82.186805
 20
92.382833
 30
0.0
 10
81.870132
 20
87.880147
 30
0.0
 10
81.489578
 20
83.449434
 30
0.0
 10
81.274242
 20
81.265657
 30
0.0
 10
81.041303
 20
79.105153
 30
0.0
 10
80.789953
 20
76.969449
 30
0.0
 10
80.519317
 20
74.859945
 30
0.0
 10
80.228505
 20
72.777921
 30
0.0
 10
79.916639
 20
70.724538
 30
0.0
 10
79.582902
 20
68.700850
 30
0.0
 10
79.226562
 20
66.707762
 30
0.0
 10
78.846984
 20
64.746062
 30
0.0
 10
78.443649
 20
62.816382
 30
0.0
 10
78.016155
 20
60.919173
 30
0.0
 10
77.564233
 20
59.054724
 30
0.0
 10
77.165561
 20
57.250319
 30
0.0
 10
76.870847
 20
55.426054
 30
0.0
 10
76.681054
 20
53.587904
 30
0.0
 10
76.596804
 20
51.741904
 30
0.0
 10
76.618384
 20
49.894110
 30
0.0
 10
76.745707
 20
48.050581
 30
0.0
 10
76.978362
 20
46.217367
 30
0.0
 10
77.315587
 20
44.400482
 30
0.0
 10
77.756276
 20
42.605872
 30
0.0
 10
78.298983
 20
40.839442
 30
0.0
 10
78.941928
 20
39.106982
 30
0.0
 10
79.683001
 20
37.414172
 30
0.0
 10
80.519772
 20
35.766552
 30
0.0
 10
81.449496
 20
34.169552
 30
0.0
 10
82.469123
 20
32.628392
 30
0.0
 10
83.575308
 20
31.148142
 30
0.0
 10
84.764423
 20
29.733632
 30
0.0
 10
86.032569
 20
28.389532
 30
0.0
 10
87.375585
 20
27.120242
 30
0.0
 10
88.789064
 20
25.929912
 30
0.0
 10
90.268371
 20
24.822452
 30
0.0
 10
91.808654
 20
23.801502
 30
0.0
 10
93.404861
 20
22.870402
 30
0.0
 10
95.051754
 20
22.032222
 30
0.0
 10
96.743930
 20
21.289702
 30
0.0
 10
98.475842
 20
20.645272
 30
0.0
 10
100.241807
 20
20.101052
 30
0.0
 10
102.036031
 20
19.658823
 30
0.0
 10
103.852631
 20
19.320033
 30
0.0
 10
105.685646
 20
19.085803
 30
0.0
 10
107.529065
 20
18.956903
 30
0.0
 10
109.376839
 20
18.933703
 30
0.0
 10
111.222909
 20
19.016403
 30
0.0
 10
113.061219
 20
19.204613
 30
0.0
 10
114.885738
 20
19.497773
 30
0.0
 10
116.690482
 20
19.894892
 30
0.0
 10
118.469531
 20
20.394682
 30
0.0
 10
120.217049
 20
20.995512
 30
0.0
 10
121.927304
 20
21.695392
 30
0.0
 10
123.594685
 20
22.492042
 30
0.0
 10
125.213724
 20
23.382842
 30
0.0
 10
126.779110
 20
24.364862
 30
0.0
 10
128.285707
 20
25.434892
 30
0.0
 10
129.728574
 20
26.589432
 30
0.0
 10
131.102979
 20
27.824662
 30
0.0
 10
132.404411
 20
29.136572
 30
0.0
 10
133.628603
 20
30.520822
 30
0.0
 10
134.771538
 20
31.972892
 30
0.0
 10
135.829468
 20
33.488012
 30
0.0
 10
136.798924
 20
35.061212
 30
0.0
 10
137.676724
 20
36.687332
 30
0.0
 10
138.459988
 20
38.361052
 30
0.0
 10
139.146149
 20
40.076852
 30
0.0
 10
139.732956
 20
41.829132
 30
0.0
 10
140.218482
 20
43.612122
 30
0.0
 10
140.601136
 20
45.419994
 30
0.0
 10
140.879662
 20
47.246799
 30
0.0
 10
141.053147
 20
49.086559
 30
0.0
 10
141.121017
 20
50.933231
 30
0.0
 10
141.083057
 20
52.780758
 30
0.0
 10
140.939391
 20
54.623089
 30
0.0
  0
ENDSEC
  0
SECTION
  2
OBJECTS
  0
DICTIONARY
  5
C
330
0
100
AcDbDictionary
  3
ACAD_GROUP
350
D
  3
ACAD_MLINESTYLE
350
17
  0
DICTIONARY
  5
D
330
C
100
AcDbDictionary
  0
DICTIONARY
  5
1A
330
C
100
AcDbDictionary
  0
DICTIONARY
  5
17
330
C
100
AcDbDictionary
  3
STANDARD
350
18
  0
DICTIONARY
  5
19
330
C
100
AcDbDictionary
  0
ENDSEC
  0
EOF
