<?xml version="1.0"?>
<!DOCTYPE svg PUBLIC "-//W3C//DTD SVG 1.1//EN" "http://www.w3.org/Graphics/SVG/1.1/DTD/svg11.dtd">
<svg width="88.2692289734mm" height="226.726786652mm" viewBox="0 0 88.2692289734 226.726786652" xmlns="http://www.w3.org/2000/svg" version="1.1">
<g id="Sketch" transform="translate(44.134614,113.365385) scale(1,-1)">
<path id="Sketch_w0000"  d="M -27.9040794373 -76.342010498 L -28.2788162231 -77.9609451294 L -28.5597076416 -79.5987701416 L -28.7458229065 -81.2500534058 L -28.8365440369 -82.9093170166 L -28.8315677643 -84.5710525513 L -28.7309131622 -86.2297363281 L -28.5349121094 -87.8798828125 L -28.2442169189 -89.5159988403 L -27.859790802 -91.1326599121 L -27.3829116821 -92.7245025635 L -26.815158844 -94.286239624 L -26.1584186554 -95.8126983643 L -25.4148693085 -97.2988052368 L -24.5869808197 -98.7396316528 L -23.6774978638 -100.130393982 L -22.6894397736 -101.46648407 L -21.6260852814 -102.743453979 L -20.4909629822 -103.957077026 L -19.2878398895 -105.103317261 L -18.0207080841 -106.178382874 L -16.693775177 -107.178695679 L -15.3114423752 -108.10093689 L -13.8782968521 -108.942054749 L -12.399096489 -109.699249268 L -10.8787479401 -110.370010376 L -9.32229804993 -110.952110291 L -7.73491096497 -111.443626404 L -6.12185525894 -111.842910767 L -4.48848390579 -112.148651123 L -2.84021711349 -112.359832764 L -1.18252503872 -112.475753784 L 0.479091405869 -112.496017456 L 2.13911795616 -112.420578003 L 3.79204559326 -112.249664307 L 5.43238925934 -111.983863831 L 7.05470514297 -111.624038696 L 8.65360927582 -111.171394348 L 10.2237958908 -110.627433777 L 11.7600545883 -109.993965149 L 13.2572870255 -109.273078918 L 14.7105236053 -108.467170715 L 16.1149425507 -107.578918457 L 17.465883255 -106.611274719 L 18.7588615417 -105.567443848 L 19.9895877838 -104.450889587 L 21.1539764404 -103.265319824 L 22.2481651306 -102.014663696 L 23.2685222626 -100.703079224 L 24.2116603851 -99.3349227905 L 25.0744514465 -97.9147186279 L 25.8540306091 -96.4471893311 L 26.5478115082 -94.937210083 L 27.1534919739 -93.3897781372 L 27.6690635681 -91.810043335 L 28.0928115845 -90.2032394409 L 28.4233322144 -88.5746994019 L 28.659526825 -86.9298324585 L 28.8006153107 -85.2740936279 L 28.846124649 -83.6129760742 L 28.7959079742 -81.9519958496 L 28.6501293182 -80.296661377 L 28.4654808044 -78.6024017334 L 28.3108482361 -76.9282836914 L 28.1858348846 -75.2734222412 L 28.0898132324 -73.6364440918 L 28.0219497681 -72.0155258179 L 27.9812202454 -70.4084320068 L 27.966424942 -68.8125610352 L 27.9762153625 -67.2249679565 L 28.0635318756 -64.0616455078 L 28.2303924561 -60.8911857605 L 28.4635372162 -57.6860084534 L 28.7501983643 -54.4206886292 L 28.9098758698 -52.7584571838 L 29.0786075592 -51.0732345581 L 29.2550983429 -49.3628501892 L 29.4381313324 -47.6253967285 L 29.626581192 -45.8592300415 L 29.8194541931 -44.0631256104 L 30.0159683228 -42.2364425659 L 30.2156085968 -40.3793067932 L 30.4182128906 -38.492816925 L 30.6240291595 -36.579208374 L 31.0486717224 -32.6861152649 L 31.5004272461 -28.7425022125 L 31.9945869446 -24.8034477234 L 32.2627334595 -22.8541564941 L 32.5475234985 -20.9279823303 L 32.8506507874 -19.0315418243 L 33.1734924316 -17.1706924438 L 33.5170326233 -15.3502931595 L 33.8817749023 -13.5739822388 L 34.2676506042 -11.8439340591 L 34.6739654541 -10.1606740952 L 35.0993919373 -8.52309131622 L 35.5420608521 -6.928647995 L 35.9996414185 -5.37359237671 L 36.4694290161 -3.85318565369 L 37.4334869385 -0.893738508224 L 38.4082870483 1.9994866848 L 39.3660812378 4.88167905807 L 39.8296089172 6.33696746826 L 40.2780075073 7.81185626984 L 40.707611084 9.31409358978 L 41.1147651672 10.8514385223 L 41.4959106445 12.4315423965 L 41.8476066589 14.0618286133 L 42.1665992737 15.7493753433 L 42.4498596191 17.500793457 L 42.6946296692 19.3221092224 L 42.8984794617 21.2186603546 L 43.0593299866 23.1950130463 L 43.1754989624 25.2548732758 L 43.2164154053 26.3170261383 L 43.2457275391 27.401014328 L 43.2633514404 28.5070304871 L 43.2692298889 29.635187149 L 43.2691078186 31.6618099213 L 43.2682533264 33.5953445435 L 43.2659721375 35.4402236938 L 43.2615966797 37.2007408142 L 43.2544975281 38.8810462952 L 43.2440795898 40.4851570129 L 43.2297706604 42.0169525146 L 43.2110366821 43.4801864624 L 43.1873703003 44.8784675598 L 43.1583061218 46.2152900696 L 43.1233901978 47.4940185547 L 43.0822105408 48.7178916931 L 43.0343780518 49.8900260925 L 42.9795265198 51.0134239197 L 42.9173316956 52.090965271 L 42.8474807739 53.1254234314 L 42.7696876526 54.1194534302 L 42.6837043762 55.0755996704 L 42.5892906189 55.996307373 L 42.4862365723 56.8839073181 L 42.3743591309 57.7406311035 L 42.2534942627 58.568611145 L 42.1234970093 59.3698768616 L 41.9842453003 60.1463699341 L 41.67760849 61.6323165894 L 41.3330001831 63.0401115417 L 40.9501495361 64.3820266724 L 40.5290527344 65.6690292358 L 40.0699577332 66.9108428955 L 39.5733604431 68.1160125732 L 39.0399551392 69.2919998169 L 38.4706382751 70.4452438354 L 37.866481781 71.581237793 L 37.2286987305 72.7045974731 L 36.5586433411 73.8191452026 L 35.8577804565 74.9279785156 L 35.1276626587 76.033531189 L 34.3699150085 77.1376571655 L 33.5862121582 78.2417297363 L 32.7782554626 79.3466567993 L 31.0964221954 81.5610809326 L 29.3378505707 83.7824554443 L 27.5151252747 86.0101089478 L 25.6391925812 88.2427368164 L 23.7182331085 90.4783554077 L 21.7564182281 92.7134399414 L 19.7526454926 94.9421234131 L 17.6992835999 97.1553497314 L 15.5809202194 99.3400421143 L 14.49010849 100.416305542 L 13.3731012344 101.478286743 L 12.2252235413 102.522850037 L 11.0410757065 103.546455383 L 9.81450080872 104.545135498 L 8.53853797913 105.514442444 L 7.20538759232 106.449455261 L 5.80637073517 107.344749451 L 4.33189058304 108.194351196 L 3.56309127808 108.599998474 L 2.77139091492 108.991729736 L 1.95531404018 109.368629456 L 1.11332023144 109.729759216 L 0.243803277612 110.074119568 L -0.654910266399 110.400695801 L -1.58456230164 110.7084198 L -2.54696464539 110.996170044 L -3.54399943352 111.262809753 L -4.5776219368 111.507125854 L -5.64985942841 111.727897644 L -6.76281499863 111.923828125 L -7.9186668396 112.093589783 L -9.11966991425 112.235801697 L -10.3681592941 112.349052429 L -11.6665468216 112.431854248 L -13.0173282623 112.482696533 L -14.4230766296 112.5 L -16.4346656799 112.484191895 L -18.3598442078 112.430358887 L -19.2904911041 112.386177063 L -20.2000904083 112.328872681 L -21.0888252258 112.257247925 L -21.9568805695 112.17010498 L -22.8044433594 112.066238403 L -23.631696701 111.944442749 L -24.4388275146 111.803512573 L -25.2260169983 111.642250061 L -25.9934539795 111.459449768 L -26.7413215637 111.25390625 L -27.4698028564 111.024421692 L -28.1790866852 110.769790649 L -28.869354248 110.488807678 L -29.5407924652 110.180267334 L -30.1935863495 109.842979431 L -30.8279190063 109.475730896 L -31.4439754486 109.077316284 L -32.0419425964 108.646537781 L -32.6220054626 108.182189941 L -33.1843452454 107.683074951 L -33.7291488647 107.147979736 L -34.256603241 106.575714111 L -34.7668914795 105.965057373 L -35.2601966858 105.314826965 L -35.73670578 104.623809814 L -36.1966056824 103.890800476 L -36.6400794983 103.114593506 L -37.0673065186 102.293998718 L -37.4784812927 101.42779541 L -37.8737831116 100.514801025 L -38.2533950806 99.5537948608 L -38.6175079346 98.5435791016 L -38.9663009644 97.4829559326 L -39.2999610901 96.3707199097 L -39.6186752319 95.2056655884 L -39.9226264954 93.9865875244 L -40.2119979858 92.7122879028 L -40.4869766235 91.3815689087 L -40.7477493286 89.9932098389 L -40.9944992065 88.5460281372 L -41.2274055481 87.0388031006 L -41.4466629028 85.4703445435 L -41.6524505615 83.8394393921 L -41.8449516296 82.1448898315 L -42.024356842 80.3854904175 L -42.1908454895 78.5600509644 L -42.3446044922 76.6673431396 L -42.4858207703 74.7061920166 L -42.6146774292 72.6753692627 L -42.7313575745 70.5736923218 L -42.8360481262 68.3999404907 L -42.9289360046 66.1529312134 L -43.0102043152 63.8314399719 L -43.0800323486 61.4342765808 L -43.1386146545 58.960231781 L -43.1861305237 56.4081077576 L -43.2227630615 53.7766990662 L -43.2487030029 51.0648040771 L -43.2641296387 48.2712173462 L -43.2692298889 45.3947372437 L -43.2572250366 44.2488136292 L -43.2212486267 43.11769104 L -43.1614112854 42.0013084412 L -43.0778999329 40.8995666504 L -42.9709625244 39.8123283386 L -42.8409118652 38.7394180298 L -42.688117981 37.6806259155 L -42.5130195618 36.6357192993 L -42.3161010742 35.6044235229 L -42.0979118347 34.58644104 L -41.6001281738 32.5890617371 L -41.0250053406 30.6406402588 L -40.3785705566 28.7378482819 L -39.6674690247 26.8770217896 L -38.8988571167 25.0542182922 L -38.0803031921 23.2652626038 L -37.2196960449 21.5058078766 L -36.3251304626 19.7713851929 L -35.4048309326 18.0574550629 L -33.5200119019 14.6728258133 L -31.6307201385 11.3157148361 L -29.8005199432 7.95102453232 L -28.9265213013 6.25541639328 L -28.0893516541 4.54579877853 L -27.2954101562 2.81866455078 L -26.55037117 1.07089781761 L -25.8590259552 -0.700144290924 L -25.225107193 -2.49655127525 L -24.6511592865 -4.31978321075 L -24.1384811401 -6.17064714432 L -23.6872367859 -8.04932689667 L -23.2965545654 -9.95543289185 L -22.9646606445 -11.8880405426 L -22.6889820099 -13.8457403183 L -22.4662704468 -15.8266773224 L -22.2927379608 -17.8286113739 L -22.164226532 -19.8490028381 L -22.0764045715 -21.8851070404 L -22.0249614716 -23.9340667725 L -22.0057983398 -25.9930229187 L -22.0152187347 -28.0592002869 L -22.0501022339 -30.1299934387 L -22.1867256165 -34.2759819031 L -22.4012947083 -38.4135894775 L -22.6848449707 -42.5270729065 L -23.0311050415 -46.6014175415 L -23.435459137 -50.6221618652 L -23.8952522278 -54.5758590698 L -24.1457614899 -56.523765564 L -24.4102191925 -58.4505767822 L -24.6889305115 -60.3550720215 L -24.9822750092 -62.2361488342 L -25.290681839 -64.0927963257 L -25.6145935059 -65.9241027832 L -25.9544315338 -67.7292709351 L -26.3105773926 -69.5075759888 L -26.6833648682 -71.2584228516 L -27.0730762482 -72.9813232422 L -27.4799308777 -74.6759185791 L -27.9040794373 -76.342010498 " stroke="#191919" stroke-width="0.35 px" style="stroke-width:0.35;stroke-miterlimit:4;stroke-dasharray:none;fill:none;fill-rule: evenodd "/>
<title>Sketch</title>
</g>
</svg>