<?xml version="1.0"?>
<!DOCTYPE svg PUBLIC "-//W3C//DTD SVG 1.1//EN" "http://www.w3.org/Graphics/SVG/1.1/DTD/svg11.dtd">
<svg width="210.120000061mm" height="400.120000001mm" viewBox="0 0 210.120000061 400.120000001" xmlns="http://www.w3.org/2000/svg" version="1.1">
<g id="Part__Mirroring" transform="translate(108.060000,122.060000) scale(1,-1)">
<path id="Part__Mirroring_f0000"  d="M -106.00000006 114.0 L 93.9999999404 114.0 L 94.0000001788 114.0 L -105.999999821 114.0 L -106.00000006 114.0 Z " stroke="#191919" stroke-width="0.35 px" style="stroke-width:0.35;stroke-miterlimit:4;stroke-dasharray:none;fill:#000000;fill-rule: evenodd "/>
<path id="Part__Mirroring_f0001"  d="M 94.0000001788 111.0 L 93.9999999404 111.0 L 93.9999999404 114.0 L 94.0000001788 114.0 L 94.0000001788 111.0 Z " stroke="#191919" stroke-width="0.35 px" style="stroke-width:0.35;stroke-miterlimit:4;stroke-dasharray:none;fill:#000000;fill-rule: evenodd "/>
<path id="Part__Mirroring_f0002"  d="M -106.00000006 -126.0 L -106.00000006 114.0 L -105.999999821 114.0 L -105.999999821 -126.0 L -106.00000006 -126.0 Z " stroke="#191919" stroke-width="0.35 px" style="stroke-width:0.35;stroke-miterlimit:4;stroke-dasharray:none;fill:#000000;fill-rule: evenodd "/>
<path id="Part__Mirroring_f0003"  d="M -106.00000006 -126.0 L -106.00000006 -129.0 L -19.0000000596 -129.0 L -19.0000000596 -246.0 L -41.0000000596 -246.0 L -41.0000000596 -276.0 L -16.0000000596 -276.0 L -16.0000000596 -126.0 L -103.00000006 -126.0 L -103.00000006 -117.0 L 93.9999999404 -117.0 L 93.9999999404 -114.0 L -103.00000006 -114.0 L -103.00000006 -105.0 L 93.9999999404 -105.0 L 93.9999999404 -102.0 L -103.00000006 -102.0 L -103.00000006 -93.0 L 93.9999999404 -93.0 L 93.9999999404 -90.0 L -103.00000006 -90.0 L -103.00000006 -81.0 L 93.9999999404 -81.0 L 93.9999999404 -78.0 L -103.00000006 -78.0 L -103.00000006 -69.0 L 93.9999999404 -69.0 L 93.9999999404 -66.0 L -103.00000006 -66.0 L -103.00000006 -57.0 L 93.9999999404 -57.0 L 93.9999999404 -54.0 L -103.00000006 -54.0 L -103.00000006 -45.0 L 93.9999999404 -45.0 L 93.9999999404 -42.0 L -103.00000006 -42.0 L -103.00000006 -33.0 L 93.9999999404 -33.0 L 93.9999999404 -30.0 L -103.00000006 -30.0 L -103.00000006 -21.0 L 93.9999999404 -21.0 L 93.9999999404 -18.0 L -103.00000006 -18.0 L -103.00000006 -9.0 L 93.9999999404 -9.0 L 93.9999999404 -6.0 L -103.00000006 -6.0 L -103.00000006 3.0 L 93.9999999404 3.0 L 93.9999999404 6.0 L -103.00000006 6.0 L -103.00000006 15.0 L 93.9999999404 15.0 L 93.9999999404 18.0 L -103.00000006 18.0 L -103.00000006 27.0 L 93.9999999404 27.0 L 93.9999999404 30.0 L -103.00000006 30.0 L -103.00000006 39.0 L 93.9999999404 39.0 L 93.9999999404 42.0 L -103.00000006 42.0 L -103.00000006 51.0 L 93.9999999404 51.0 L 93.9999999404 54.0 L -103.00000006 54.0 L -103.00000006 63.0 L 93.9999999404 63.0 L 93.9999999404 66.0 L -103.00000006 66.0 L -103.00000006 75.0 L 93.9999999404 75.0 L 93.9999999404 78.0 L -103.00000006 78.0 L -103.00000006 87.0 L 93.9999999404 87.0 L 93.9999999404 90.0 L -103.00000006 90.0 L -103.00000006 99.0 L 93.9999999404 99.0 L 93.9999999404 102.0 L -103.00000006 102.0 L -103.00000006 111.0 L 93.9999999404 111.0 L 93.9999999404 114.0 L -106.00000006 114.0 L -106.00000006 -126.0 Z " stroke="#191919" stroke-width="0.35 px" style="stroke-width:0.35;stroke-miterlimit:4;stroke-dasharray:none;fill:#000000;fill-rule: evenodd "/>
<path id="Part__Mirroring_f0004"  d="M 94.0000001788 111.0 L 94.0000001788 114.0 L -105.999999821 114.0 L -105.999999821 -126.0 L -105.999999821 -129.0 L -18.9999998212 -129.0 L -18.9999998212 -246.0 L -40.9999998212 -246.0 L -40.9999998212 -276.0 L -15.9999998212 -276.0 L -15.9999998212 -126.0 L -102.999999821 -126.0 L -102.999999821 -117.0 L 94.0000001788 -117.0 L 94.0000001788 -114.0 L -102.999999821 -114.0 L -102.999999821 -105.0 L 94.0000001788 -105.0 L 94.0000001788 -102.0 L -102.999999821 -102.0 L -102.999999821 -93.0 L 94.0000001788 -93.0 L 94.0000001788 -90.0 L -102.999999821 -90.0 L -102.999999821 -81.0 L 94.0000001788 -81.0 L 94.0000001788 -78.0 L -102.999999821 -78.0 L -102.999999821 -69.0 L 94.0000001788 -69.0 L 94.0000001788 -66.0 L -102.999999821 -66.0 L -102.999999821 -57.0 L 94.0000001788 -57.0 L 94.0000001788 -54.0 L -102.999999821 -54.0 L -102.999999821 -45.0 L 94.0000001788 -45.0 L 94.0000001788 -42.0 L -102.999999821 -42.0 L -102.999999821 -33.0 L 94.0000001788 -33.0 L 94.0000001788 -30.0 L -102.999999821 -30.0 L -102.999999821 -21.0 L 94.0000001788 -21.0 L 94.0000001788 -18.0 L -102.999999821 -18.0 L -102.999999821 -9.0 L 94.0000001788 -9.0 L 94.0000001788 -6.0 L -102.999999821 -6.0 L -102.999999821 3.0 L 94.0000001788 3.0 L 94.0000001788 6.0 L -102.999999821 6.0 L -102.999999821 15.0 L 94.0000001788 15.0 L 94.0000001788 18.0 L -102.999999821 18.0 L -102.999999821 27.0 L 94.0000001788 27.0 L 94.0000001788 30.0 L -102.999999821 30.0 L -102.999999821 39.0 L 94.0000001788 39.0 L 94.0000001788 42.0 L -102.999999821 42.0 L -102.999999821 51.0 L 94.0000001788 51.0 L 94.0000001788 54.0 L -102.999999821 54.0 L -102.999999821 63.0 L 94.0000001788 63.0 L 94.0000001788 66.0 L -102.999999821 66.0 L -102.999999821 75.0 L 94.0000001788 75.0 L 94.0000001788 78.0 L -102.999999821 78.0 L -102.999999821 87.0 L 94.0000001788 87.0 L 94.0000001788 90.0 L -102.999999821 90.0 L -102.999999821 99.0 L 94.0000001788 99.0 L 94.0000001788 102.0 L -102.999999821 102.0 L -102.999999821 111.0 L 94.0000001788 111.0 Z " stroke="#191919" stroke-width="0.35 px" style="stroke-width:0.35;stroke-miterlimit:4;stroke-dasharray:none;fill:#000000;fill-rule: evenodd "/>
<path id="Part__Mirroring_f0005"  d="M -102.999999821 111.0 L -103.00000006 111.0 L 93.9999999404 111.0 L 94.0000001788 111.0 L -102.999999821 111.0 Z " stroke="#191919" stroke-width="0.35 px" style="stroke-width:0.35;stroke-miterlimit:4;stroke-dasharray:none;fill:#000000;fill-rule: evenodd "/>
<path id="Part__Mirroring_f0006"  d="M -106.00000006 -129.0 L -106.00000006 -126.0 L -105.999999821 -126.0 L -105.999999821 -129.0 L -106.00000006 -129.0 Z " stroke="#191919" stroke-width="0.35 px" style="stroke-width:0.35;stroke-miterlimit:4;stroke-dasharray:none;fill:#000000;fill-rule: evenodd "/>
<path id="Part__Mirroring_f0007"  d="M -19.0000000596 -129.0 L -106.00000006 -129.0 L -105.999999821 -129.0 L -18.9999998212 -129.0 L -19.0000000596 -129.0 Z " stroke="#191919" stroke-width="0.35 px" style="stroke-width:0.35;stroke-miterlimit:4;stroke-dasharray:none;fill:#000000;fill-rule: evenodd "/>
<path id="Part__Mirroring_f0008"  d="M -19.0000000596 -246.0 L -19.0000000596 -129.0 L -18.9999998212 -129.0 L -18.9999998212 -246.0 L -19.0000000596 -246.0 Z " stroke="#191919" stroke-width="0.35 px" style="stroke-width:0.35;stroke-miterlimit:4;stroke-dasharray:none;fill:#000000;fill-rule: evenodd "/>
<path id="Part__Mirroring_f0009"  d="M -41.0000000596 -246.0 L -19.0000000596 -246.0 L -18.9999998212 -246.0 L -40.9999998212 -246.0 L -41.0000000596 -246.0 Z " stroke="#191919" stroke-width="0.35 px" style="stroke-width:0.35;stroke-miterlimit:4;stroke-dasharray:none;fill:#000000;fill-rule: evenodd "/>
<path id="Part__Mirroring_f0010"  d="M -41.0000000596 -276.0 L -41.0000000596 -246.0 L -40.9999998212 -246.0 L -40.9999998212 -276.0 L -41.0000000596 -276.0 Z " stroke="#191919" stroke-width="0.35 px" style="stroke-width:0.35;stroke-miterlimit:4;stroke-dasharray:none;fill:#000000;fill-rule: evenodd "/>
<path id="Part__Mirroring_f0011"  d="M -16.0000000596 -276.0 L -41.0000000596 -276.0 L -40.9999998212 -276.0 L -15.9999998212 -276.0 L -16.0000000596 -276.0 Z " stroke="#191919" stroke-width="0.35 px" style="stroke-width:0.35;stroke-miterlimit:4;stroke-dasharray:none;fill:#000000;fill-rule: evenodd "/>
<path id="Part__Mirroring_f0012"  d="M -16.0000000596 -126.0 L -15.9999998212 -126.0 L -15.9999998212 -276.0 L -16.0000000596 -276.0 L -16.0000000596 -126.0 Z " stroke="#191919" stroke-width="0.35 px" style="stroke-width:0.35;stroke-miterlimit:4;stroke-dasharray:none;fill:#000000;fill-rule: evenodd "/>
<path id="Part__Mirroring_f0013"  d="M -16.0000000596 -126.0 L -15.9999998212 -126.0 L -102.999999821 -126.0 L -103.00000006 -126.0 L -16.0000000596 -126.0 Z " stroke="#191919" stroke-width="0.35 px" style="stroke-width:0.35;stroke-miterlimit:4;stroke-dasharray:none;fill:#000000;fill-rule: evenodd "/>
<path id="Part__Mirroring_f0014"  d="M -102.999999821 -126.0 L -103.00000006 -126.0 L -103.00000006 -117.0 L -102.999999821 -117.0 L -102.999999821 -126.0 Z " stroke="#191919" stroke-width="0.35 px" style="stroke-width:0.35;stroke-miterlimit:4;stroke-dasharray:none;fill:#000000;fill-rule: evenodd "/>
<path id="Part__Mirroring_f0015"  d="M -102.999999821 -117.0 L -103.00000006 -117.0 L 93.9999999404 -117.0 L 94.0000001788 -117.0 L -102.999999821 -117.0 Z " stroke="#191919" stroke-width="0.35 px" style="stroke-width:0.35;stroke-miterlimit:4;stroke-dasharray:none;fill:#000000;fill-rule: evenodd "/>
<path id="Part__Mirroring_f0016"  d="M 94.0000001788 -117.0 L 93.9999999404 -117.0 L 93.9999999404 -114.0 L 94.0000001788 -114.0 L 94.0000001788 -117.0 Z " stroke="#191919" stroke-width="0.35 px" style="stroke-width:0.35;stroke-miterlimit:4;stroke-dasharray:none;fill:#000000;fill-rule: evenodd "/>
<path id="Part__Mirroring_f0017"  d="M 94.0000001788 -114.0 L 93.9999999404 -114.0 L -103.00000006 -114.0 L -102.999999821 -114.0 L 94.0000001788 -114.0 Z " stroke="#191919" stroke-width="0.35 px" style="stroke-width:0.35;stroke-miterlimit:4;stroke-dasharray:none;fill:#000000;fill-rule: evenodd "/>
<path id="Part__Mirroring_f0018"  d="M -102.999999821 -114.0 L -103.00000006 -114.0 L -103.00000006 -105.0 L -102.999999821 -105.0 L -102.999999821 -114.0 Z " stroke="#191919" stroke-width="0.35 px" style="stroke-width:0.35;stroke-miterlimit:4;stroke-dasharray:none;fill:#000000;fill-rule: evenodd "/>
<path id="Part__Mirroring_f0019"  d="M -102.999999821 -105.0 L -103.00000006 -105.0 L 93.9999999404 -105.0 L 94.0000001788 -105.0 L -102.999999821 -105.0 Z " stroke="#191919" stroke-width="0.35 px" style="stroke-width:0.35;stroke-miterlimit:4;stroke-dasharray:none;fill:#000000;fill-rule: evenodd "/>
<path id="Part__Mirroring_f0020"  d="M 94.0000001788 -105.0 L 93.9999999404 -105.0 L 93.9999999404 -102.0 L 94.0000001788 -102.0 L 94.0000001788 -105.0 Z " stroke="#191919" stroke-width="0.35 px" style="stroke-width:0.35;stroke-miterlimit:4;stroke-dasharray:none;fill:#000000;fill-rule: evenodd "/>
<path id="Part__Mirroring_f0021"  d="M 94.0000001788 -102.0 L 93.9999999404 -102.0 L -103.00000006 -102.0 L -102.999999821 -102.0 L 94.0000001788 -102.0 Z " stroke="#191919" stroke-width="0.35 px" style="stroke-width:0.35;stroke-miterlimit:4;stroke-dasharray:none;fill:#000000;fill-rule: evenodd "/>
<path id="Part__Mirroring_f0022"  d="M -102.999999821 -102.0 L -103.00000006 -102.0 L -103.00000006 -93.0 L -102.999999821 -93.0 L -102.999999821 -102.0 Z " stroke="#191919" stroke-width="0.35 px" style="stroke-width:0.35;stroke-miterlimit:4;stroke-dasharray:none;fill:#000000;fill-rule: evenodd "/>
<path id="Part__Mirroring_f0023"  d="M -102.999999821 -93.0 L -103.00000006 -93.0 L 93.9999999404 -93.0 L 94.0000001788 -93.0 L -102.999999821 -93.0 Z " stroke="#191919" stroke-width="0.35 px" style="stroke-width:0.35;stroke-miterlimit:4;stroke-dasharray:none;fill:#000000;fill-rule: evenodd "/>
<path id="Part__Mirroring_f0024"  d="M 94.0000001788 -93.0 L 93.9999999404 -93.0 L 93.9999999404 -90.0 L 94.0000001788 -90.0 L 94.0000001788 -93.0 Z " stroke="#191919" stroke-width="0.35 px" style="stroke-width:0.35;stroke-miterlimit:4;stroke-dasharray:none;fill:#000000;fill-rule: evenodd "/>
<path id="Part__Mirroring_f0025"  d="M 94.0000001788 -90.0 L 93.9999999404 -90.0 L -103.00000006 -90.0 L -102.999999821 -90.0 L 94.0000001788 -90.0 Z " stroke="#191919" stroke-width="0.35 px" style="stroke-width:0.35;stroke-miterlimit:4;stroke-dasharray:none;fill:#000000;fill-rule: evenodd "/>
<path id="Part__Mirroring_f0026"  d="M -102.999999821 -90.0 L -103.00000006 -90.0 L -103.00000006 -81.0 L -102.999999821 -81.0 L -102.999999821 -90.0 Z " stroke="#191919" stroke-width="0.35 px" style="stroke-width:0.35;stroke-miterlimit:4;stroke-dasharray:none;fill:#000000;fill-rule: evenodd "/>
<path id="Part__Mirroring_f0027"  d="M -102.999999821 -81.0 L -103.00000006 -81.0 L 93.9999999404 -81.0 L 94.0000001788 -81.0 L -102.999999821 -81.0 Z " stroke="#191919" stroke-width="0.35 px" style="stroke-width:0.35;stroke-miterlimit:4;stroke-dasharray:none;fill:#000000;fill-rule: evenodd "/>
<path id="Part__Mirroring_f0028"  d="M 94.0000001788 -81.0 L 93.9999999404 -81.0 L 93.9999999404 -78.0 L 94.0000001788 -78.0 L 94.0000001788 -81.0 Z " stroke="#191919" stroke-width="0.35 px" style="stroke-width:0.35;stroke-miterlimit:4;stroke-dasharray:none;fill:#000000;fill-rule: evenodd "/>
<path id="Part__Mirroring_f0029"  d="M 94.0000001788 -78.0 L 93.9999999404 -78.0 L -103.00000006 -78.0 L -102.999999821 -78.0 L 94.0000001788 -78.0 Z " stroke="#191919" stroke-width="0.35 px" style="stroke-width:0.35;stroke-miterlimit:4;stroke-dasharray:none;fill:#000000;fill-rule: evenodd "/>
<path id="Part__Mirroring_f0030"  d="M -102.999999821 -78.0 L -103.00000006 -78.0 L -103.00000006 -69.0 L -102.999999821 -69.0 L -102.999999821 -78.0 Z " stroke="#191919" stroke-width="0.35 px" style="stroke-width:0.35;stroke-miterlimit:4;stroke-dasharray:none;fill:#000000;fill-rule: evenodd "/>
<path id="Part__Mirroring_f0031"  d="M -102.999999821 -69.0 L -103.00000006 -69.0 L 93.9999999404 -69.0 L 94.0000001788 -69.0 L -102.999999821 -69.0 Z " stroke="#191919" stroke-width="0.35 px" style="stroke-width:0.35;stroke-miterlimit:4;stroke-dasharray:none;fill:#000000;fill-rule: evenodd "/>
<path id="Part__Mirroring_f0032"  d="M 94.0000001788 -69.0 L 93.9999999404 -69.0 L 93.9999999404 -66.0 L 94.0000001788 -66.0 L 94.0000001788 -69.0 Z " stroke="#191919" stroke-width="0.35 px" style="stroke-width:0.35;stroke-miterlimit:4;stroke-dasharray:none;fill:#000000;fill-rule: evenodd "/>
<path id="Part__Mirroring_f0033"  d="M 94.0000001788 -66.0 L 93.9999999404 -66.0 L -103.00000006 -66.0 L -102.999999821 -66.0 L 94.0000001788 -66.0 Z " stroke="#191919" stroke-width="0.35 px" style="stroke-width:0.35;stroke-miterlimit:4;stroke-dasharray:none;fill:#000000;fill-rule: evenodd "/>
<path id="Part__Mirroring_f0034"  d="M -102.999999821 -66.0 L -103.00000006 -66.0 L -103.00000006 -57.0 L -102.999999821 -57.0 L -102.999999821 -66.0 Z " stroke="#191919" stroke-width="0.35 px" style="stroke-width:0.35;stroke-miterlimit:4;stroke-dasharray:none;fill:#000000;fill-rule: evenodd "/>
<path id="Part__Mirroring_f0035"  d="M -102.999999821 -57.0 L -103.00000006 -57.0 L 93.9999999404 -57.0 L 94.0000001788 -57.0 L -102.999999821 -57.0 Z " stroke="#191919" stroke-width="0.35 px" style="stroke-width:0.35;stroke-miterlimit:4;stroke-dasharray:none;fill:#000000;fill-rule: evenodd "/>
<path id="Part__Mirroring_f0036"  d="M 94.0000001788 -57.0 L 93.9999999404 -57.0 L 93.9999999404 -54.0 L 94.0000001788 -54.0 L 94.0000001788 -57.0 Z " stroke="#191919" stroke-width="0.35 px" style="stroke-width:0.35;stroke-miterlimit:4;stroke-dasharray:none;fill:#000000;fill-rule: evenodd "/>
<path id="Part__Mirroring_f0037"  d="M 94.0000001788 -54.0 L 93.9999999404 -54.0 L -103.00000006 -54.0 L -102.999999821 -54.0 L 94.0000001788 -54.0 Z " stroke="#191919" stroke-width="0.35 px" style="stroke-width:0.35;stroke-miterlimit:4;stroke-dasharray:none;fill:#000000;fill-rule: evenodd "/>
<path id="Part__Mirroring_f0038"  d="M -102.999999821 -54.0 L -103.00000006 -54.0 L -103.00000006 -45.0 L -102.999999821 -45.0 L -102.999999821 -54.0 Z " stroke="#191919" stroke-width="0.35 px" style="stroke-width:0.35;stroke-miterlimit:4;stroke-dasharray:none;fill:#000000;fill-rule: evenodd "/>
<path id="Part__Mirroring_f0039"  d="M -102.999999821 -45.0 L -103.00000006 -45.0 L 93.9999999404 -45.0 L 94.0000001788 -45.0 L -102.999999821 -45.0 Z " stroke="#191919" stroke-width="0.35 px" style="stroke-width:0.35;stroke-miterlimit:4;stroke-dasharray:none;fill:#000000;fill-rule: evenodd "/>
<path id="Part__Mirroring_f0040"  d="M 94.0000001788 -45.0 L 93.9999999404 -45.0 L 93.9999999404 -42.0 L 94.0000001788 -42.0 L 94.0000001788 -45.0 Z " stroke="#191919" stroke-width="0.35 px" style="stroke-width:0.35;stroke-miterlimit:4;stroke-dasharray:none;fill:#000000;fill-rule: evenodd "/>
<path id="Part__Mirroring_f0041"  d="M 94.0000001788 -42.0 L 93.9999999404 -42.0 L -103.00000006 -42.0 L -102.999999821 -42.0 L 94.0000001788 -42.0 Z " stroke="#191919" stroke-width="0.35 px" style="stroke-width:0.35;stroke-miterlimit:4;stroke-dasharray:none;fill:#000000;fill-rule: evenodd "/>
<path id="Part__Mirroring_f0042"  d="M -102.999999821 -42.0 L -103.00000006 -42.0 L -103.00000006 -33.0 L -102.999999821 -33.0 L -102.999999821 -42.0 Z " stroke="#191919" stroke-width="0.35 px" style="stroke-width:0.35;stroke-miterlimit:4;stroke-dasharray:none;fill:#000000;fill-rule: evenodd "/>
<path id="Part__Mirroring_f0043"  d="M -102.999999821 -33.0 L -103.00000006 -33.0 L 93.9999999404 -33.0 L 94.0000001788 -33.0 L -102.999999821 -33.0 Z " stroke="#191919" stroke-width="0.35 px" style="stroke-width:0.35;stroke-miterlimit:4;stroke-dasharray:none;fill:#000000;fill-rule: evenodd "/>
<path id="Part__Mirroring_f0044"  d="M 94.0000001788 -33.0 L 93.9999999404 -33.0 L 93.9999999404 -30.0 L 94.0000001788 -30.0 L 94.0000001788 -33.0 Z " stroke="#191919" stroke-width="0.35 px" style="stroke-width:0.35;stroke-miterlimit:4;stroke-dasharray:none;fill:#000000;fill-rule: evenodd "/>
<path id="Part__Mirroring_f0045"  d="M 94.0000001788 -30.0 L 93.9999999404 -30.0 L -103.00000006 -30.0 L -102.999999821 -30.0 L 94.0000001788 -30.0 Z " stroke="#191919" stroke-width="0.35 px" style="stroke-width:0.35;stroke-miterlimit:4;stroke-dasharray:none;fill:#000000;fill-rule: evenodd "/>
<path id="Part__Mirroring_f0046"  d="M -102.999999821 -30.0 L -103.00000006 -30.0 L -103.00000006 -21.0 L -102.999999821 -21.0 L -102.999999821 -30.0 Z " stroke="#191919" stroke-width="0.35 px" style="stroke-width:0.35;stroke-miterlimit:4;stroke-dasharray:none;fill:#000000;fill-rule: evenodd "/>
<path id="Part__Mirroring_f0047"  d="M -102.999999821 -21.0 L -103.00000006 -21.0 L 93.9999999404 -21.0 L 94.0000001788 -21.0 L -102.999999821 -21.0 Z " stroke="#191919" stroke-width="0.35 px" style="stroke-width:0.35;stroke-miterlimit:4;stroke-dasharray:none;fill:#000000;fill-rule: evenodd "/>
<path id="Part__Mirroring_f0048"  d="M 94.0000001788 -21.0 L 93.9999999404 -21.0 L 93.9999999404 -18.0 L 94.0000001788 -18.0 L 94.0000001788 -21.0 Z " stroke="#191919" stroke-width="0.35 px" style="stroke-width:0.35;stroke-miterlimit:4;stroke-dasharray:none;fill:#000000;fill-rule: evenodd "/>
<path id="Part__Mirroring_f0049"  d="M 94.0000001788 -18.0 L 93.9999999404 -18.0 L -103.00000006 -18.0 L -102.999999821 -18.0 L 94.0000001788 -18.0 Z " stroke="#191919" stroke-width="0.35 px" style="stroke-width:0.35;stroke-miterlimit:4;stroke-dasharray:none;fill:#000000;fill-rule: evenodd "/>
<path id="Part__Mirroring_f0050"  d="M -102.999999821 -18.0 L -103.00000006 -18.0 L -103.00000006 -9.0 L -102.999999821 -9.0 L -102.999999821 -18.0 Z " stroke="#191919" stroke-width="0.35 px" style="stroke-width:0.35;stroke-miterlimit:4;stroke-dasharray:none;fill:#000000;fill-rule: evenodd "/>
<path id="Part__Mirroring_f0051"  d="M -102.999999821 -9.0 L -103.00000006 -9.0 L 93.9999999404 -9.0 L 94.0000001788 -9.0 L -102.999999821 -9.0 Z " stroke="#191919" stroke-width="0.35 px" style="stroke-width:0.35;stroke-miterlimit:4;stroke-dasharray:none;fill:#000000;fill-rule: evenodd "/>
<path id="Part__Mirroring_f0052"  d="M 94.0000001788 -9.0 L 93.9999999404 -9.0 L 93.9999999404 -6.0 L 94.0000001788 -6.0 L 94.0000001788 -9.0 Z " stroke="#191919" stroke-width="0.35 px" style="stroke-width:0.35;stroke-miterlimit:4;stroke-dasharray:none;fill:#000000;fill-rule: evenodd "/>
<path id="Part__Mirroring_f0053"  d="M 94.0000001788 -6.0 L 93.9999999404 -6.0 L -103.00000006 -6.0 L -102.999999821 -6.0 L 94.0000001788 -6.0 Z " stroke="#191919" stroke-width="0.35 px" style="stroke-width:0.35;stroke-miterlimit:4;stroke-dasharray:none;fill:#000000;fill-rule: evenodd "/>
<path id="Part__Mirroring_f0054"  d="M -102.999999821 -6.0 L -103.00000006 -6.0 L -103.00000006 3.0 L -102.999999821 3.0 L -102.999999821 -6.0 Z " stroke="#191919" stroke-width="0.35 px" style="stroke-width:0.35;stroke-miterlimit:4;stroke-dasharray:none;fill:#000000;fill-rule: evenodd "/>
<path id="Part__Mirroring_f0055"  d="M -102.999999821 3.0 L -103.00000006 3.0 L 93.9999999404 3.0 L 94.0000001788 3.0 L -102.999999821 3.0 Z " stroke="#191919" stroke-width="0.35 px" style="stroke-width:0.35;stroke-miterlimit:4;stroke-dasharray:none;fill:#000000;fill-rule: evenodd "/>
<path id="Part__Mirroring_f0056"  d="M 94.0000001788 3.0 L 93.9999999404 3.0 L 93.9999999404 6.0 L 94.0000001788 6.0 L 94.0000001788 3.0 Z " stroke="#191919" stroke-width="0.35 px" style="stroke-width:0.35;stroke-miterlimit:4;stroke-dasharray:none;fill:#000000;fill-rule: evenodd "/>
<path id="Part__Mirroring_f0057"  d="M 94.0000001788 6.0 L 93.9999999404 6.0 L -103.00000006 6.0 L -102.999999821 6.0 L 94.0000001788 6.0 Z " stroke="#191919" stroke-width="0.35 px" style="stroke-width:0.35;stroke-miterlimit:4;stroke-dasharray:none;fill:#000000;fill-rule: evenodd "/>
<path id="Part__Mirroring_f0058"  d="M -102.999999821 6.0 L -103.00000006 6.0 L -103.00000006 15.0 L -102.999999821 15.0 L -102.999999821 6.0 Z " stroke="#191919" stroke-width="0.35 px" style="stroke-width:0.35;stroke-miterlimit:4;stroke-dasharray:none;fill:#000000;fill-rule: evenodd "/>
<path id="Part__Mirroring_f0059"  d="M -102.999999821 15.0 L -103.00000006 15.0 L 93.9999999404 15.0 L 94.0000001788 15.0 L -102.999999821 15.0 Z " stroke="#191919" stroke-width="0.35 px" style="stroke-width:0.35;stroke-miterlimit:4;stroke-dasharray:none;fill:#000000;fill-rule: evenodd "/>
<path id="Part__Mirroring_f0060"  d="M 94.0000001788 15.0 L 93.9999999404 15.0 L 93.9999999404 18.0 L 94.0000001788 18.0 L 94.0000001788 15.0 Z " stroke="#191919" stroke-width="0.35 px" style="stroke-width:0.35;stroke-miterlimit:4;stroke-dasharray:none;fill:#000000;fill-rule: evenodd "/>
<path id="Part__Mirroring_f0061"  d="M 94.0000001788 18.0 L 93.9999999404 18.0 L -103.00000006 18.0 L -102.999999821 18.0 L 94.0000001788 18.0 Z " stroke="#191919" stroke-width="0.35 px" style="stroke-width:0.35;stroke-miterlimit:4;stroke-dasharray:none;fill:#000000;fill-rule: evenodd "/>
<path id="Part__Mirroring_f0062"  d="M -102.999999821 18.0 L -103.00000006 18.0 L -103.00000006 27.0 L -102.999999821 27.0 L -102.999999821 18.0 Z " stroke="#191919" stroke-width="0.35 px" style="stroke-width:0.35;stroke-miterlimit:4;stroke-dasharray:none;fill:#000000;fill-rule: evenodd "/>
<path id="Part__Mirroring_f0063"  d="M -102.999999821 27.0 L -103.00000006 27.0 L 93.9999999404 27.0 L 94.0000001788 27.0 L -102.999999821 27.0 Z " stroke="#191919" stroke-width="0.35 px" style="stroke-width:0.35;stroke-miterlimit:4;stroke-dasharray:none;fill:#000000;fill-rule: evenodd "/>
<path id="Part__Mirroring_f0064"  d="M 94.0000001788 27.0 L 93.9999999404 27.0 L 93.9999999404 30.0 L 94.0000001788 30.0 L 94.0000001788 27.0 Z " stroke="#191919" stroke-width="0.35 px" style="stroke-width:0.35;stroke-miterlimit:4;stroke-dasharray:none;fill:#000000;fill-rule: evenodd "/>
<path id="Part__Mirroring_f0065"  d="M 94.0000001788 30.0 L 93.9999999404 30.0 L -103.00000006 30.0 L -102.999999821 30.0 L 94.0000001788 30.0 Z " stroke="#191919" stroke-width="0.35 px" style="stroke-width:0.35;stroke-miterlimit:4;stroke-dasharray:none;fill:#000000;fill-rule: evenodd "/>
<path id="Part__Mirroring_f0066"  d="M -102.999999821 30.0 L -103.00000006 30.0 L -103.00000006 39.0 L -102.999999821 39.0 L -102.999999821 30.0 Z " stroke="#191919" stroke-width="0.35 px" style="stroke-width:0.35;stroke-miterlimit:4;stroke-dasharray:none;fill:#000000;fill-rule: evenodd "/>
<path id="Part__Mirroring_f0067"  d="M -102.999999821 39.0 L -103.00000006 39.0 L 93.9999999404 39.0 L 94.0000001788 39.0 L -102.999999821 39.0 Z " stroke="#191919" stroke-width="0.35 px" style="stroke-width:0.35;stroke-miterlimit:4;stroke-dasharray:none;fill:#000000;fill-rule: evenodd "/>
<path id="Part__Mirroring_f0068"  d="M 94.0000001788 39.0 L 93.9999999404 39.0 L 93.9999999404 42.0 L 94.0000001788 42.0 L 94.0000001788 39.0 Z " stroke="#191919" stroke-width="0.35 px" style="stroke-width:0.35;stroke-miterlimit:4;stroke-dasharray:none;fill:#000000;fill-rule: evenodd "/>
<path id="Part__Mirroring_f0069"  d="M 94.0000001788 42.0 L 93.9999999404 42.0 L -103.00000006 42.0 L -102.999999821 42.0 L 94.0000001788 42.0 Z " stroke="#191919" stroke-width="0.35 px" style="stroke-width:0.35;stroke-miterlimit:4;stroke-dasharray:none;fill:#000000;fill-rule: evenodd "/>
<path id="Part__Mirroring_f0070"  d="M -102.999999821 42.0 L -103.00000006 42.0 L -103.00000006 51.0 L -102.999999821 51.0 L -102.999999821 42.0 Z " stroke="#191919" stroke-width="0.35 px" style="stroke-width:0.35;stroke-miterlimit:4;stroke-dasharray:none;fill:#000000;fill-rule: evenodd "/>
<path id="Part__Mirroring_f0071"  d="M -102.999999821 51.0 L -103.00000006 51.0 L 93.9999999404 51.0 L 94.0000001788 51.0 L -102.999999821 51.0 Z " stroke="#191919" stroke-width="0.35 px" style="stroke-width:0.35;stroke-miterlimit:4;stroke-dasharray:none;fill:#000000;fill-rule: evenodd "/>
<path id="Part__Mirroring_f0072"  d="M 94.0000001788 51.0 L 93.9999999404 51.0 L 93.9999999404 54.0 L 94.0000001788 54.0 L 94.0000001788 51.0 Z " stroke="#191919" stroke-width="0.35 px" style="stroke-width:0.35;stroke-miterlimit:4;stroke-dasharray:none;fill:#000000;fill-rule: evenodd "/>
<path id="Part__Mirroring_f0073"  d="M 94.0000001788 54.0 L 93.9999999404 54.0 L -103.00000006 54.0 L -102.999999821 54.0 L 94.0000001788 54.0 Z " stroke="#191919" stroke-width="0.35 px" style="stroke-width:0.35;stroke-miterlimit:4;stroke-dasharray:none;fill:#000000;fill-rule: evenodd "/>
<path id="Part__Mirroring_f0074"  d="M -102.999999821 54.0 L -103.00000006 54.0 L -103.00000006 63.0 L -102.999999821 63.0 L -102.999999821 54.0 Z " stroke="#191919" stroke-width="0.35 px" style="stroke-width:0.35;stroke-miterlimit:4;stroke-dasharray:none;fill:#000000;fill-rule: evenodd "/>
<path id="Part__Mirroring_f0075"  d="M -102.999999821 63.0 L -103.00000006 63.0 L 93.9999999404 63.0 L 94.0000001788 63.0 L -102.999999821 63.0 Z " stroke="#191919" stroke-width="0.35 px" style="stroke-width:0.35;stroke-miterlimit:4;stroke-dasharray:none;fill:#000000;fill-rule: evenodd "/>
<path id="Part__Mirroring_f0076"  d="M 94.0000001788 63.0 L 93.9999999404 63.0 L 93.9999999404 66.0 L 94.0000001788 66.0 L 94.0000001788 63.0 Z " stroke="#191919" stroke-width="0.35 px" style="stroke-width:0.35;stroke-miterlimit:4;stroke-dasharray:none;fill:#000000;fill-rule: evenodd "/>
<path id="Part__Mirroring_f0077"  d="M 94.0000001788 66.0 L 93.9999999404 66.0 L -103.00000006 66.0 L -102.999999821 66.0 L 94.0000001788 66.0 Z " stroke="#191919" stroke-width="0.35 px" style="stroke-width:0.35;stroke-miterlimit:4;stroke-dasharray:none;fill:#000000;fill-rule: evenodd "/>
<path id="Part__Mirroring_f0078"  d="M -102.999999821 66.0 L -103.00000006 66.0 L -103.00000006 75.0 L -102.999999821 75.0 L -102.999999821 66.0 Z " stroke="#191919" stroke-width="0.35 px" style="stroke-width:0.35;stroke-miterlimit:4;stroke-dasharray:none;fill:#000000;fill-rule: evenodd "/>
<path id="Part__Mirroring_f0079"  d="M -102.999999821 75.0 L -103.00000006 75.0 L 93.9999999404 75.0 L 94.0000001788 75.0 L -102.999999821 75.0 Z " stroke="#191919" stroke-width="0.35 px" style="stroke-width:0.35;stroke-miterlimit:4;stroke-dasharray:none;fill:#000000;fill-rule: evenodd "/>
<path id="Part__Mirroring_f0080"  d="M 94.0000001788 75.0 L 93.9999999404 75.0 L 93.9999999404 78.0 L 94.0000001788 78.0 L 94.0000001788 75.0 Z " stroke="#191919" stroke-width="0.35 px" style="stroke-width:0.35;stroke-miterlimit:4;stroke-dasharray:none;fill:#000000;fill-rule: evenodd "/>
<path id="Part__Mirroring_f0081"  d="M 94.0000001788 78.0 L 93.9999999404 78.0 L -103.00000006 78.0 L -102.999999821 78.0 L 94.0000001788 78.0 Z " stroke="#191919" stroke-width="0.35 px" style="stroke-width:0.35;stroke-miterlimit:4;stroke-dasharray:none;fill:#000000;fill-rule: evenodd "/>
<path id="Part__Mirroring_f0082"  d="M -102.999999821 78.0 L -103.00000006 78.0 L -103.00000006 87.0 L -102.999999821 87.0 L -102.999999821 78.0 Z " stroke="#191919" stroke-width="0.35 px" style="stroke-width:0.35;stroke-miterlimit:4;stroke-dasharray:none;fill:#000000;fill-rule: evenodd "/>
<path id="Part__Mirroring_f0083"  d="M -102.999999821 87.0 L -103.00000006 87.0 L 93.9999999404 87.0 L 94.0000001788 87.0 L -102.999999821 87.0 Z " stroke="#191919" stroke-width="0.35 px" style="stroke-width:0.35;stroke-miterlimit:4;stroke-dasharray:none;fill:#000000;fill-rule: evenodd "/>
<path id="Part__Mirroring_f0084"  d="M 94.0000001788 87.0 L 93.9999999404 87.0 L 93.9999999404 90.0 L 94.0000001788 90.0 L 94.0000001788 87.0 Z " stroke="#191919" stroke-width="0.35 px" style="stroke-width:0.35;stroke-miterlimit:4;stroke-dasharray:none;fill:#000000;fill-rule: evenodd "/>
<path id="Part__Mirroring_f0085"  d="M 94.0000001788 90.0 L 93.9999999404 90.0 L -103.00000006 90.0 L -102.999999821 90.0 L 94.0000001788 90.0 Z " stroke="#191919" stroke-width="0.35 px" style="stroke-width:0.35;stroke-miterlimit:4;stroke-dasharray:none;fill:#000000;fill-rule: evenodd "/>
<path id="Part__Mirroring_f0086"  d="M -102.999999821 90.0 L -103.00000006 90.0 L -103.00000006 99.0 L -102.999999821 99.0 L -102.999999821 90.0 Z " stroke="#191919" stroke-width="0.35 px" style="stroke-width:0.35;stroke-miterlimit:4;stroke-dasharray:none;fill:#000000;fill-rule: evenodd "/>
<path id="Part__Mirroring_f0087"  d="M -102.999999821 99.0 L -103.00000006 99.0 L 93.9999999404 99.0 L 94.0000001788 99.0 L -102.999999821 99.0 Z " stroke="#191919" stroke-width="0.35 px" style="stroke-width:0.35;stroke-miterlimit:4;stroke-dasharray:none;fill:#000000;fill-rule: evenodd "/>
<path id="Part__Mirroring_f0088"  d="M 94.0000001788 99.0 L 93.9999999404 99.0 L 93.9999999404 102.0 L 94.0000001788 102.0 L 94.0000001788 99.0 Z " stroke="#191919" stroke-width="0.35 px" style="stroke-width:0.35;stroke-miterlimit:4;stroke-dasharray:none;fill:#000000;fill-rule: evenodd "/>
<path id="Part__Mirroring_f0089"  d="M 94.0000001788 102.0 L 93.9999999404 102.0 L -103.00000006 102.0 L -102.999999821 102.0 L 94.0000001788 102.0 Z " stroke="#191919" stroke-width="0.35 px" style="stroke-width:0.35;stroke-miterlimit:4;stroke-dasharray:none;fill:#000000;fill-rule: evenodd "/>
<path id="Part__Mirroring_f0090"  d="M -102.999999821 102.0 L -103.00000006 102.0 L -103.00000006 111.0 L -102.999999821 111.0 L -102.999999821 102.0 Z " stroke="#191919" stroke-width="0.35 px" style="stroke-width:0.35;stroke-miterlimit:4;stroke-dasharray:none;fill:#000000;fill-rule: evenodd "/>
<title>LinearPattern (Mirror #1)</title>
</g>
<g id="LinearPattern" transform="translate(108.060000,122.060000) scale(1,-1)">
<path id="LinearPattern_f0000"  d="M -100.0 120.0 L -100.0 120.0 L 100.0 120.0 L 100.0 120.0 L -100.0 120.0 Z " stroke="#191919" stroke-width="0.35 px" style="stroke-width:0.35;stroke-miterlimit:4;stroke-dasharray:none;fill:#000000;fill-rule: evenodd "/>
<path id="LinearPattern_f0001"  d="M -100.0 120.0 L -100.0 117.0 L -100.0 117.0 L -100.0 120.0 L -100.0 120.0 Z " stroke="#191919" stroke-width="0.35 px" style="stroke-width:0.35;stroke-miterlimit:4;stroke-dasharray:none;fill:#000000;fill-rule: evenodd "/>
<path id="LinearPattern_f0002"  d="M 100.0 120.0 L 100.0 120.0 L 100.0 -120.0 L 100.0 -120.0 L 100.0 120.0 Z " stroke="#191919" stroke-width="0.35 px" style="stroke-width:0.35;stroke-miterlimit:4;stroke-dasharray:none;fill:#000000;fill-rule: evenodd "/>
<path id="LinearPattern_f0003"  d="M -100.0 117.0 L -100.0 120.0 L 100.0 120.0 L 100.0 -120.0 L 100.0 -123.0 L 13.0 -123.0 L 13.0 -240.0 L 35.0 -240.0 L 35.0 -270.0 L 10.0 -270.0 L 10.0 -120.0 L 97.0 -120.0 L 97.0 -111.0 L -100.0 -111.0 L -100.0 -108.0 L 97.0 -108.0 L 97.0 -99.0 L -100.0 -99.0 L -100.0 -96.0 L 97.0 -96.0 L 97.0 -87.0 L -100.0 -87.0 L -100.0 -84.0 L 97.0 -84.0 L 97.0 -75.0 L -100.0 -75.0 L -100.0 -72.0 L 97.0 -72.0 L 97.0 -63.0 L -100.0 -63.0 L -100.0 -60.0 L 97.0 -60.0 L 97.0 -51.0 L -100.0 -51.0 L -100.0 -48.0 L 97.0 -48.0 L 97.0 -39.0 L -100.0 -39.0 L -100.0 -36.0 L 97.0 -36.0 L 97.0 -27.0 L -100.0 -27.0 L -100.0 -24.0 L 97.0 -24.0 L 97.0 -15.0 L -100.0 -15.0 L -100.0 -12.0 L 97.0 -12.0 L 97.0 -3.0 L -100.0 -3.0 L -100.0 0.0 L 97.0 0.0 L 97.0 9.0 L -100.0 9.0 L -100.0 12.0 L 97.0 12.0 L 97.0 21.0 L -100.0 21.0 L -100.0 24.0 L 97.0 24.0 L 97.0 33.0 L -100.0 33.0 L -100.0 36.0 L 97.0 36.0 L 97.0 45.0 L -100.0 45.0 L -100.0 48.0 L 97.0 48.0 L 97.0 57.0 L -100.0 57.0 L -100.0 60.0 L 97.0 60.0 L 97.0 69.0 L -100.0 69.0 L -100.0 72.0 L 97.0 72.0 L 97.0 81.0 L -100.0 81.0 L -100.0 84.0 L 97.0 84.0 L 97.0 93.0 L -100.0 93.0 L -100.0 96.0 L 97.0 96.0 L 97.0 105.0 L -100.0 105.0 L -100.0 108.0 L 97.0 108.0 L 97.0 117.0 L -100.0 117.0 Z " stroke="#191919" stroke-width="0.35 px" style="stroke-width:0.35;stroke-miterlimit:4;stroke-dasharray:none;fill:#000000;fill-rule: evenodd "/>
<path id="LinearPattern_f0004"  d="M 100.0 -120.0 L 100.0 -123.0 L 13.0 -123.0 L 13.0 -240.0 L 35.0 -240.0 L 35.0 -270.0 L 10.0 -270.0 L 10.0 -120.0 L 97.0 -120.0 L 97.0 -111.0 L -100.0 -111.0 L -100.0 -108.0 L 97.0 -108.0 L 97.0 -99.0 L -100.0 -99.0 L -100.0 -96.0 L 97.0 -96.0 L 97.0 -87.0 L -100.0 -87.0 L -100.0 -84.0 L 97.0 -84.0 L 97.0 -75.0 L -100.0 -75.0 L -100.0 -72.0 L 97.0 -72.0 L 97.0 -63.0 L -100.0 -63.0 L -100.0 -60.0 L 97.0 -60.0 L 97.0 -51.0 L -100.0 -51.0 L -100.0 -48.0 L 97.0 -48.0 L 97.0 -39.0 L -100.0 -39.0 L -100.0 -36.0 L 97.0 -36.0 L 97.0 -27.0 L -100.0 -27.0 L -100.0 -24.0 L 97.0 -24.0 L 97.0 -15.0 L -100.0 -15.0 L -100.0 -12.0 L 97.0 -12.0 L 97.0 -3.0 L -100.0 -3.0 L -100.0 0.0 L 97.0 0.0 L 97.0 9.0 L -100.0 9.0 L -100.0 12.0 L 97.0 12.0 L 97.0 21.0 L -100.0 21.0 L -100.0 24.0 L 97.0 24.0 L 97.0 33.0 L -100.0 33.0 L -100.0 36.0 L 97.0 36.0 L 97.0 45.0 L -100.0 45.0 L -100.0 48.0 L 97.0 48.0 L 97.0 57.0 L -100.0 57.0 L -100.0 60.0 L 97.0 60.0 L 97.0 69.0 L -100.0 69.0 L -100.0 72.0 L 97.0 72.0 L 97.0 81.0 L -100.0 81.0 L -100.0 84.0 L 97.0 84.0 L 97.0 93.0 L -100.0 93.0 L -100.0 96.0 L 97.0 96.0 L 97.0 105.0 L -100.0 105.0 L -100.0 108.0 L 97.0 108.0 L 97.0 117.0 L -100.0 117.0 L -100.0 120.0 L 100.0 120.0 L 100.0 -120.0 Z " stroke="#191919" stroke-width="0.35 px" style="stroke-width:0.35;stroke-miterlimit:4;stroke-dasharray:none;fill:#000000;fill-rule: evenodd "/>
<path id="LinearPattern_f0005"  d="M -100.0 117.0 L -100.0 117.0 L 97.0 117.0 L 97.0 117.0 L -100.0 117.0 Z " stroke="#191919" stroke-width="0.35 px" style="stroke-width:0.35;stroke-miterlimit:4;stroke-dasharray:none;fill:#000000;fill-rule: evenodd "/>
<path id="LinearPattern_f0006"  d="M 100.0 -120.0 L 100.0 -120.0 L 100.0 -123.0 L 100.0 -123.0 L 100.0 -120.0 Z " stroke="#191919" stroke-width="0.35 px" style="stroke-width:0.35;stroke-miterlimit:4;stroke-dasharray:none;fill:#000000;fill-rule: evenodd "/>
<path id="LinearPattern_f0007"  d="M 100.0 -123.0 L 100.0 -123.0 L 13.0 -123.0 L 13.0 -123.0 L 100.0 -123.0 Z " stroke="#191919" stroke-width="0.35 px" style="stroke-width:0.35;stroke-miterlimit:4;stroke-dasharray:none;fill:#000000;fill-rule: evenodd "/>
<path id="LinearPattern_f0008"  d="M 13.0 -123.0 L 13.0 -123.0 L 13.0 -240.0 L 13.0 -240.0 L 13.0 -123.0 Z " stroke="#191919" stroke-width="0.35 px" style="stroke-width:0.35;stroke-miterlimit:4;stroke-dasharray:none;fill:#000000;fill-rule: evenodd "/>
<path id="LinearPattern_f0009"  d="M 13.0 -240.0 L 13.0 -240.0 L 35.0 -240.0 L 35.0 -240.0 L 13.0 -240.0 Z " stroke="#191919" stroke-width="0.35 px" style="stroke-width:0.35;stroke-miterlimit:4;stroke-dasharray:none;fill:#000000;fill-rule: evenodd "/>
<path id="LinearPattern_f0010"  d="M 35.0 -240.0 L 35.0 -240.0 L 35.0 -270.0 L 35.0 -270.0 L 35.0 -240.0 Z " stroke="#191919" stroke-width="0.35 px" style="stroke-width:0.35;stroke-miterlimit:4;stroke-dasharray:none;fill:#000000;fill-rule: evenodd "/>
<path id="LinearPattern_f0011"  d="M 35.0 -270.0 L 35.0 -270.0 L 10.0 -270.0 L 10.0 -270.0 L 35.0 -270.0 Z " stroke="#191919" stroke-width="0.35 px" style="stroke-width:0.35;stroke-miterlimit:4;stroke-dasharray:none;fill:#000000;fill-rule: evenodd "/>
<path id="LinearPattern_f0012"  d="M 10.0 -270.0 L 10.0 -270.0 L 10.0 -120.0 L 10.0 -120.0 L 10.0 -270.0 Z " stroke="#191919" stroke-width="0.35 px" style="stroke-width:0.35;stroke-miterlimit:4;stroke-dasharray:none;fill:#000000;fill-rule: evenodd "/>
<path id="LinearPattern_f0013"  d="M 10.0 -120.0 L 97.0 -120.0 L 97.0 -120.0 L 10.0 -120.0 L 10.0 -120.0 Z " stroke="#191919" stroke-width="0.35 px" style="stroke-width:0.35;stroke-miterlimit:4;stroke-dasharray:none;fill:#000000;fill-rule: evenodd "/>
<path id="LinearPattern_f0014"  d="M 97.0 -111.0 L 97.0 -111.0 L 97.0 -120.0 L 97.0 -120.0 L 97.0 -111.0 Z " stroke="#191919" stroke-width="0.35 px" style="stroke-width:0.35;stroke-miterlimit:4;stroke-dasharray:none;fill:#000000;fill-rule: evenodd "/>
<path id="LinearPattern_f0015"  d="M -100.0 -111.0 L -100.0 -111.0 L 97.0 -111.0 L 97.0 -111.0 L -100.0 -111.0 Z " stroke="#191919" stroke-width="0.35 px" style="stroke-width:0.35;stroke-miterlimit:4;stroke-dasharray:none;fill:#000000;fill-rule: evenodd "/>
<path id="LinearPattern_f0016"  d="M -100.0 -108.0 L -100.0 -111.0 L -100.0 -111.0 L -100.0 -108.0 L -100.0 -108.0 Z " stroke="#191919" stroke-width="0.35 px" style="stroke-width:0.35;stroke-miterlimit:4;stroke-dasharray:none;fill:#000000;fill-rule: evenodd "/>
<path id="LinearPattern_f0017"  d="M 97.0 -108.0 L 97.0 -108.0 L -100.0 -108.0 L -100.0 -108.0 L 97.0 -108.0 Z " stroke="#191919" stroke-width="0.35 px" style="stroke-width:0.35;stroke-miterlimit:4;stroke-dasharray:none;fill:#000000;fill-rule: evenodd "/>
<path id="LinearPattern_f0018"  d="M 97.0 -99.0 L 97.0 -99.0 L 97.0 -108.0 L 97.0 -108.0 L 97.0 -99.0 Z " stroke="#191919" stroke-width="0.35 px" style="stroke-width:0.35;stroke-miterlimit:4;stroke-dasharray:none;fill:#000000;fill-rule: evenodd "/>
<path id="LinearPattern_f0019"  d="M -100.0 -99.0 L -100.0 -99.0 L 97.0 -99.0 L 97.0 -99.0 L -100.0 -99.0 Z " stroke="#191919" stroke-width="0.35 px" style="stroke-width:0.35;stroke-miterlimit:4;stroke-dasharray:none;fill:#000000;fill-rule: evenodd "/>
<path id="LinearPattern_f0020"  d="M -100.0 -96.0 L -100.0 -99.0 L -100.0 -99.0 L -100.0 -96.0 L -100.0 -96.0 Z " stroke="#191919" stroke-width="0.35 px" style="stroke-width:0.35;stroke-miterlimit:4;stroke-dasharray:none;fill:#000000;fill-rule: evenodd "/>
<path id="LinearPattern_f0021"  d="M 97.0 -96.0 L 97.0 -96.0 L -100.0 -96.0 L -100.0 -96.0 L 97.0 -96.0 Z " stroke="#191919" stroke-width="0.35 px" style="stroke-width:0.35;stroke-miterlimit:4;stroke-dasharray:none;fill:#000000;fill-rule: evenodd "/>
<path id="LinearPattern_f0022"  d="M 97.0 -87.0 L 97.0 -87.0 L 97.0 -96.0 L 97.0 -96.0 L 97.0 -87.0 Z " stroke="#191919" stroke-width="0.35 px" style="stroke-width:0.35;stroke-miterlimit:4;stroke-dasharray:none;fill:#000000;fill-rule: evenodd "/>
<path id="LinearPattern_f0023"  d="M -100.0 -87.0 L -100.0 -87.0 L 97.0 -87.0 L 97.0 -87.0 L -100.0 -87.0 Z " stroke="#191919" stroke-width="0.35 px" style="stroke-width:0.35;stroke-miterlimit:4;stroke-dasharray:none;fill:#000000;fill-rule: evenodd "/>
<path id="LinearPattern_f0024"  d="M -100.0 -84.0 L -100.0 -87.0 L -100.0 -87.0 L -100.0 -84.0 L -100.0 -84.0 Z " stroke="#191919" stroke-width="0.35 px" style="stroke-width:0.35;stroke-miterlimit:4;stroke-dasharray:none;fill:#000000;fill-rule: evenodd "/>
<path id="LinearPattern_f0025"  d="M 97.0 -84.0 L 97.0 -84.0 L -100.0 -84.0 L -100.0 -84.0 L 97.0 -84.0 Z " stroke="#191919" stroke-width="0.35 px" style="stroke-width:0.35;stroke-miterlimit:4;stroke-dasharray:none;fill:#000000;fill-rule: evenodd "/>
<path id="LinearPattern_f0026"  d="M 97.0 -75.0 L 97.0 -75.0 L 97.0 -84.0 L 97.0 -84.0 L 97.0 -75.0 Z " stroke="#191919" stroke-width="0.35 px" style="stroke-width:0.35;stroke-miterlimit:4;stroke-dasharray:none;fill:#000000;fill-rule: evenodd "/>
<path id="LinearPattern_f0027"  d="M -100.0 -75.0 L -100.0 -75.0 L 97.0 -75.0 L 97.0 -75.0 L -100.0 -75.0 Z " stroke="#191919" stroke-width="0.35 px" style="stroke-width:0.35;stroke-miterlimit:4;stroke-dasharray:none;fill:#000000;fill-rule: evenodd "/>
<path id="LinearPattern_f0028"  d="M -100.0 -72.0 L -100.0 -75.0 L -100.0 -75.0 L -100.0 -72.0 L -100.0 -72.0 Z " stroke="#191919" stroke-width="0.35 px" style="stroke-width:0.35;stroke-miterlimit:4;stroke-dasharray:none;fill:#000000;fill-rule: evenodd "/>
<path id="LinearPattern_f0029"  d="M 97.0 -72.0 L 97.0 -72.0 L -100.0 -72.0 L -100.0 -72.0 L 97.0 -72.0 Z " stroke="#191919" stroke-width="0.35 px" style="stroke-width:0.35;stroke-miterlimit:4;stroke-dasharray:none;fill:#000000;fill-rule: evenodd "/>
<path id="LinearPattern_f0030"  d="M 97.0 -63.0 L 97.0 -63.0 L 97.0 -72.0 L 97.0 -72.0 L 97.0 -63.0 Z " stroke="#191919" stroke-width="0.35 px" style="stroke-width:0.35;stroke-miterlimit:4;stroke-dasharray:none;fill:#000000;fill-rule: evenodd "/>
<path id="LinearPattern_f0031"  d="M -100.0 -63.0 L -100.0 -63.0 L 97.0 -63.0 L 97.0 -63.0 L -100.0 -63.0 Z " stroke="#191919" stroke-width="0.35 px" style="stroke-width:0.35;stroke-miterlimit:4;stroke-dasharray:none;fill:#000000;fill-rule: evenodd "/>
<path id="LinearPattern_f0032"  d="M -100.0 -60.0 L -100.0 -63.0 L -100.0 -63.0 L -100.0 -60.0 L -100.0 -60.0 Z " stroke="#191919" stroke-width="0.35 px" style="stroke-width:0.35;stroke-miterlimit:4;stroke-dasharray:none;fill:#000000;fill-rule: evenodd "/>
<path id="LinearPattern_f0033"  d="M 97.0 -60.0 L 97.0 -60.0 L -100.0 -60.0 L -100.0 -60.0 L 97.0 -60.0 Z " stroke="#191919" stroke-width="0.35 px" style="stroke-width:0.35;stroke-miterlimit:4;stroke-dasharray:none;fill:#000000;fill-rule: evenodd "/>
<path id="LinearPattern_f0034"  d="M 97.0 -51.0 L 97.0 -51.0 L 97.0 -60.0 L 97.0 -60.0 L 97.0 -51.0 Z " stroke="#191919" stroke-width="0.35 px" style="stroke-width:0.35;stroke-miterlimit:4;stroke-dasharray:none;fill:#000000;fill-rule: evenodd "/>
<path id="LinearPattern_f0035"  d="M -100.0 -51.0 L -100.0 -51.0 L 97.0 -51.0 L 97.0 -51.0 L -100.0 -51.0 Z " stroke="#191919" stroke-width="0.35 px" style="stroke-width:0.35;stroke-miterlimit:4;stroke-dasharray:none;fill:#000000;fill-rule: evenodd "/>
<path id="LinearPattern_f0036"  d="M -100.0 -48.0 L -100.0 -51.0 L -100.0 -51.0 L -100.0 -48.0 L -100.0 -48.0 Z " stroke="#191919" stroke-width="0.35 px" style="stroke-width:0.35;stroke-miterlimit:4;stroke-dasharray:none;fill:#000000;fill-rule: evenodd "/>
<path id="LinearPattern_f0037"  d="M 97.0 -48.0 L 97.0 -48.0 L -100.0 -48.0 L -100.0 -48.0 L 97.0 -48.0 Z " stroke="#191919" stroke-width="0.35 px" style="stroke-width:0.35;stroke-miterlimit:4;stroke-dasharray:none;fill:#000000;fill-rule: evenodd "/>
<path id="LinearPattern_f0038"  d="M 97.0 -39.0 L 97.0 -39.0 L 97.0 -48.0 L 97.0 -48.0 L 97.0 -39.0 Z " stroke="#191919" stroke-width="0.35 px" style="stroke-width:0.35;stroke-miterlimit:4;stroke-dasharray:none;fill:#000000;fill-rule: evenodd "/>
<path id="LinearPattern_f0039"  d="M -100.0 -39.0 L -100.0 -39.0 L 97.0 -39.0 L 97.0 -39.0 L -100.0 -39.0 Z " stroke="#191919" stroke-width="0.35 px" style="stroke-width:0.35;stroke-miterlimit:4;stroke-dasharray:none;fill:#000000;fill-rule: evenodd "/>
<path id="LinearPattern_f0040"  d="M -100.0 -36.0 L -100.0 -39.0 L -100.0 -39.0 L -100.0 -36.0 L -100.0 -36.0 Z " stroke="#191919" stroke-width="0.35 px" style="stroke-width:0.35;stroke-miterlimit:4;stroke-dasharray:none;fill:#000000;fill-rule: evenodd "/>
<path id="LinearPattern_f0041"  d="M 97.0 -36.0 L 97.0 -36.0 L -100.0 -36.0 L -100.0 -36.0 L 97.0 -36.0 Z " stroke="#191919" stroke-width="0.35 px" style="stroke-width:0.35;stroke-miterlimit:4;stroke-dasharray:none;fill:#000000;fill-rule: evenodd "/>
<path id="LinearPattern_f0042"  d="M 97.0 -27.0 L 97.0 -27.0 L 97.0 -36.0 L 97.0 -36.0 L 97.0 -27.0 Z " stroke="#191919" stroke-width="0.35 px" style="stroke-width:0.35;stroke-miterlimit:4;stroke-dasharray:none;fill:#000000;fill-rule: evenodd "/>
<path id="LinearPattern_f0043"  d="M -100.0 -27.0 L -100.0 -27.0 L 97.0 -27.0 L 97.0 -27.0 L -100.0 -27.0 Z " stroke="#191919" stroke-width="0.35 px" style="stroke-width:0.35;stroke-miterlimit:4;stroke-dasharray:none;fill:#000000;fill-rule: evenodd "/>
<path id="LinearPattern_f0044"  d="M -100.0 -24.0 L -100.0 -27.0 L -100.0 -27.0 L -100.0 -24.0 L -100.0 -24.0 Z " stroke="#191919" stroke-width="0.35 px" style="stroke-width:0.35;stroke-miterlimit:4;stroke-dasharray:none;fill:#000000;fill-rule: evenodd "/>
<path id="LinearPattern_f0045"  d="M 97.0 -24.0 L 97.0 -24.0 L -100.0 -24.0 L -100.0 -24.0 L 97.0 -24.0 Z " stroke="#191919" stroke-width="0.35 px" style="stroke-width:0.35;stroke-miterlimit:4;stroke-dasharray:none;fill:#000000;fill-rule: evenodd "/>
<path id="LinearPattern_f0046"  d="M 97.0 -15.0 L 97.0 -15.0 L 97.0 -24.0 L 97.0 -24.0 L 97.0 -15.0 Z " stroke="#191919" stroke-width="0.35 px" style="stroke-width:0.35;stroke-miterlimit:4;stroke-dasharray:none;fill:#000000;fill-rule: evenodd "/>
<path id="LinearPattern_f0047"  d="M -100.0 -15.0 L -100.0 -15.0 L 97.0 -15.0 L 97.0 -15.0 L -100.0 -15.0 Z " stroke="#191919" stroke-width="0.35 px" style="stroke-width:0.35;stroke-miterlimit:4;stroke-dasharray:none;fill:#000000;fill-rule: evenodd "/>
<path id="LinearPattern_f0048"  d="M -100.0 -12.0 L -100.0 -15.0 L -100.0 -15.0 L -100.0 -12.0 L -100.0 -12.0 Z " stroke="#191919" stroke-width="0.35 px" style="stroke-width:0.35;stroke-miterlimit:4;stroke-dasharray:none;fill:#000000;fill-rule: evenodd "/>
<path id="LinearPattern_f0049"  d="M 97.0 -12.0 L 97.0 -12.0 L -100.0 -12.0 L -100.0 -12.0 L 97.0 -12.0 Z " stroke="#191919" stroke-width="0.35 px" style="stroke-width:0.35;stroke-miterlimit:4;stroke-dasharray:none;fill:#000000;fill-rule: evenodd "/>
<path id="LinearPattern_f0050"  d="M 97.0 -3.0 L 97.0 -3.0 L 97.0 -12.0 L 97.0 -12.0 L 97.0 -3.0 Z " stroke="#191919" stroke-width="0.35 px" style="stroke-width:0.35;stroke-miterlimit:4;stroke-dasharray:none;fill:#000000;fill-rule: evenodd "/>
<path id="LinearPattern_f0051"  d="M -100.0 -3.0 L -100.0 -3.0 L 97.0 -3.0 L 97.0 -3.0 L -100.0 -3.0 Z " stroke="#191919" stroke-width="0.35 px" style="stroke-width:0.35;stroke-miterlimit:4;stroke-dasharray:none;fill:#000000;fill-rule: evenodd "/>
<path id="LinearPattern_f0052"  d="M -100.0 0.0 L -100.0 -3.0 L -100.0 -3.0 L -100.0 0.0 L -100.0 0.0 Z " stroke="#191919" stroke-width="0.35 px" style="stroke-width:0.35;stroke-miterlimit:4;stroke-dasharray:none;fill:#000000;fill-rule: evenodd "/>
<path id="LinearPattern_f0053"  d="M 97.0 0.0 L 97.0 0.0 L -100.0 0.0 L -100.0 0.0 L 97.0 0.0 Z " stroke="#191919" stroke-width="0.35 px" style="stroke-width:0.35;stroke-miterlimit:4;stroke-dasharray:none;fill:#000000;fill-rule: evenodd "/>
<path id="LinearPattern_f0054"  d="M 97.0 9.0 L 97.0 9.0 L 97.0 0.0 L 97.0 0.0 L 97.0 9.0 Z " stroke="#191919" stroke-width="0.35 px" style="stroke-width:0.35;stroke-miterlimit:4;stroke-dasharray:none;fill:#000000;fill-rule: evenodd "/>
<path id="LinearPattern_f0055"  d="M -100.0 9.0 L -100.0 9.0 L 97.0 9.0 L 97.0 9.0 L -100.0 9.0 Z " stroke="#191919" stroke-width="0.35 px" style="stroke-width:0.35;stroke-miterlimit:4;stroke-dasharray:none;fill:#000000;fill-rule: evenodd "/>
<path id="LinearPattern_f0056"  d="M -100.0 12.0 L -100.0 9.0 L -100.0 9.0 L -100.0 12.0 L -100.0 12.0 Z " stroke="#191919" stroke-width="0.35 px" style="stroke-width:0.35;stroke-miterlimit:4;stroke-dasharray:none;fill:#000000;fill-rule: evenodd "/>
<path id="LinearPattern_f0057"  d="M 97.0 12.0 L 97.0 12.0 L -100.0 12.0 L -100.0 12.0 L 97.0 12.0 Z " stroke="#191919" stroke-width="0.35 px" style="stroke-width:0.35;stroke-miterlimit:4;stroke-dasharray:none;fill:#000000;fill-rule: evenodd "/>
<path id="LinearPattern_f0058"  d="M 97.0 21.0 L 97.0 21.0 L 97.0 12.0 L 97.0 12.0 L 97.0 21.0 Z " stroke="#191919" stroke-width="0.35 px" style="stroke-width:0.35;stroke-miterlimit:4;stroke-dasharray:none;fill:#000000;fill-rule: evenodd "/>
<path id="LinearPattern_f0059"  d="M -100.0 21.0 L -100.0 21.0 L 97.0 21.0 L 97.0 21.0 L -100.0 21.0 Z " stroke="#191919" stroke-width="0.35 px" style="stroke-width:0.35;stroke-miterlimit:4;stroke-dasharray:none;fill:#000000;fill-rule: evenodd "/>
<path id="LinearPattern_f0060"  d="M -100.0 24.0 L -100.0 21.0 L -100.0 21.0 L -100.0 24.0 L -100.0 24.0 Z " stroke="#191919" stroke-width="0.35 px" style="stroke-width:0.35;stroke-miterlimit:4;stroke-dasharray:none;fill:#000000;fill-rule: evenodd "/>
<path id="LinearPattern_f0061"  d="M 97.0 24.0 L 97.0 24.0 L -100.0 24.0 L -100.0 24.0 L 97.0 24.0 Z " stroke="#191919" stroke-width="0.35 px" style="stroke-width:0.35;stroke-miterlimit:4;stroke-dasharray:none;fill:#000000;fill-rule: evenodd "/>
<path id="LinearPattern_f0062"  d="M 97.0 33.0 L 97.0 33.0 L 97.0 24.0 L 97.0 24.0 L 97.0 33.0 Z " stroke="#191919" stroke-width="0.35 px" style="stroke-width:0.35;stroke-miterlimit:4;stroke-dasharray:none;fill:#000000;fill-rule: evenodd "/>
<path id="LinearPattern_f0063"  d="M -100.0 33.0 L -100.0 33.0 L 97.0 33.0 L 97.0 33.0 L -100.0 33.0 Z " stroke="#191919" stroke-width="0.35 px" style="stroke-width:0.35;stroke-miterlimit:4;stroke-dasharray:none;fill:#000000;fill-rule: evenodd "/>
<path id="LinearPattern_f0064"  d="M -100.0 36.0 L -100.0 33.0 L -100.0 33.0 L -100.0 36.0 L -100.0 36.0 Z " stroke="#191919" stroke-width="0.35 px" style="stroke-width:0.35;stroke-miterlimit:4;stroke-dasharray:none;fill:#000000;fill-rule: evenodd "/>
<path id="LinearPattern_f0065"  d="M 97.0 36.0 L 97.0 36.0 L -100.0 36.0 L -100.0 36.0 L 97.0 36.0 Z " stroke="#191919" stroke-width="0.35 px" style="stroke-width:0.35;stroke-miterlimit:4;stroke-dasharray:none;fill:#000000;fill-rule: evenodd "/>
<path id="LinearPattern_f0066"  d="M 97.0 45.0 L 97.0 45.0 L 97.0 36.0 L 97.0 36.0 L 97.0 45.0 Z " stroke="#191919" stroke-width="0.35 px" style="stroke-width:0.35;stroke-miterlimit:4;stroke-dasharray:none;fill:#000000;fill-rule: evenodd "/>
<path id="LinearPattern_f0067"  d="M -100.0 45.0 L -100.0 45.0 L 97.0 45.0 L 97.0 45.0 L -100.0 45.0 Z " stroke="#191919" stroke-width="0.35 px" style="stroke-width:0.35;stroke-miterlimit:4;stroke-dasharray:none;fill:#000000;fill-rule: evenodd "/>
<path id="LinearPattern_f0068"  d="M -100.0 48.0 L -100.0 45.0 L -100.0 45.0 L -100.0 48.0 L -100.0 48.0 Z " stroke="#191919" stroke-width="0.35 px" style="stroke-width:0.35;stroke-miterlimit:4;stroke-dasharray:none;fill:#000000;fill-rule: evenodd "/>
<path id="LinearPattern_f0069"  d="M 97.0 48.0 L 97.0 48.0 L -100.0 48.0 L -100.0 48.0 L 97.0 48.0 Z " stroke="#191919" stroke-width="0.35 px" style="stroke-width:0.35;stroke-miterlimit:4;stroke-dasharray:none;fill:#000000;fill-rule: evenodd "/>
<path id="LinearPattern_f0070"  d="M 97.0 57.0 L 97.0 57.0 L 97.0 48.0 L 97.0 48.0 L 97.0 57.0 Z " stroke="#191919" stroke-width="0.35 px" style="stroke-width:0.35;stroke-miterlimit:4;stroke-dasharray:none;fill:#000000;fill-rule: evenodd "/>
<path id="LinearPattern_f0071"  d="M -100.0 57.0 L -100.0 57.0 L 97.0 57.0 L 97.0 57.0 L -100.0 57.0 Z " stroke="#191919" stroke-width="0.35 px" style="stroke-width:0.35;stroke-miterlimit:4;stroke-dasharray:none;fill:#000000;fill-rule: evenodd "/>
<path id="LinearPattern_f0072"  d="M -100.0 60.0 L -100.0 57.0 L -100.0 57.0 L -100.0 60.0 L -100.0 60.0 Z " stroke="#191919" stroke-width="0.35 px" style="stroke-width:0.35;stroke-miterlimit:4;stroke-dasharray:none;fill:#000000;fill-rule: evenodd "/>
<path id="LinearPattern_f0073"  d="M 97.0 60.0 L 97.0 60.0 L -100.0 60.0 L -100.0 60.0 L 97.0 60.0 Z " stroke="#191919" stroke-width="0.35 px" style="stroke-width:0.35;stroke-miterlimit:4;stroke-dasharray:none;fill:#000000;fill-rule: evenodd "/>
<path id="LinearPattern_f0074"  d="M 97.0 69.0 L 97.0 69.0 L 97.0 60.0 L 97.0 60.0 L 97.0 69.0 Z " stroke="#191919" stroke-width="0.35 px" style="stroke-width:0.35;stroke-miterlimit:4;stroke-dasharray:none;fill:#000000;fill-rule: evenodd "/>
<path id="LinearPattern_f0075"  d="M -100.0 69.0 L -100.0 69.0 L 97.0 69.0 L 97.0 69.0 L -100.0 69.0 Z " stroke="#191919" stroke-width="0.35 px" style="stroke-width:0.35;stroke-miterlimit:4;stroke-dasharray:none;fill:#000000;fill-rule: evenodd "/>
<path id="LinearPattern_f0076"  d="M -100.0 72.0 L -100.0 69.0 L -100.0 69.0 L -100.0 72.0 L -100.0 72.0 Z " stroke="#191919" stroke-width="0.35 px" style="stroke-width:0.35;stroke-miterlimit:4;stroke-dasharray:none;fill:#000000;fill-rule: evenodd "/>
<path id="LinearPattern_f0077"  d="M 97.0 72.0 L 97.0 72.0 L -100.0 72.0 L -100.0 72.0 L 97.0 72.0 Z " stroke="#191919" stroke-width="0.35 px" style="stroke-width:0.35;stroke-miterlimit:4;stroke-dasharray:none;fill:#000000;fill-rule: evenodd "/>
<path id="LinearPattern_f0078"  d="M 97.0 81.0 L 97.0 81.0 L 97.0 72.0 L 97.0 72.0 L 97.0 81.0 Z " stroke="#191919" stroke-width="0.35 px" style="stroke-width:0.35;stroke-miterlimit:4;stroke-dasharray:none;fill:#000000;fill-rule: evenodd "/>
<path id="LinearPattern_f0079"  d="M -100.0 81.0 L -100.0 81.0 L 97.0 81.0 L 97.0 81.0 L -100.0 81.0 Z " stroke="#191919" stroke-width="0.35 px" style="stroke-width:0.35;stroke-miterlimit:4;stroke-dasharray:none;fill:#000000;fill-rule: evenodd "/>
<path id="LinearPattern_f0080"  d="M -100.0 84.0 L -100.0 81.0 L -100.0 81.0 L -100.0 84.0 L -100.0 84.0 Z " stroke="#191919" stroke-width="0.35 px" style="stroke-width:0.35;stroke-miterlimit:4;stroke-dasharray:none;fill:#000000;fill-rule: evenodd "/>
<path id="LinearPattern_f0081"  d="M 97.0 84.0 L 97.0 84.0 L -100.0 84.0 L -100.0 84.0 L 97.0 84.0 Z " stroke="#191919" stroke-width="0.35 px" style="stroke-width:0.35;stroke-miterlimit:4;stroke-dasharray:none;fill:#000000;fill-rule: evenodd "/>
<path id="LinearPattern_f0082"  d="M 97.0 93.0 L 97.0 93.0 L 97.0 84.0 L 97.0 84.0 L 97.0 93.0 Z " stroke="#191919" stroke-width="0.35 px" style="stroke-width:0.35;stroke-miterlimit:4;stroke-dasharray:none;fill:#000000;fill-rule: evenodd "/>
<path id="LinearPattern_f0083"  d="M -100.0 93.0 L -100.0 93.0 L 97.0 93.0 L 97.0 93.0 L -100.0 93.0 Z " stroke="#191919" stroke-width="0.35 px" style="stroke-width:0.35;stroke-miterlimit:4;stroke-dasharray:none;fill:#000000;fill-rule: evenodd "/>
<path id="LinearPattern_f0084"  d="M -100.0 96.0 L -100.0 93.0 L -100.0 93.0 L -100.0 96.0 L -100.0 96.0 Z " stroke="#191919" stroke-width="0.35 px" style="stroke-width:0.35;stroke-miterlimit:4;stroke-dasharray:none;fill:#000000;fill-rule: evenodd "/>
<path id="LinearPattern_f0085"  d="M 97.0 96.0 L 97.0 96.0 L -100.0 96.0 L -100.0 96.0 L 97.0 96.0 Z " stroke="#191919" stroke-width="0.35 px" style="stroke-width:0.35;stroke-miterlimit:4;stroke-dasharray:none;fill:#000000;fill-rule: evenodd "/>
<path id="LinearPattern_f0086"  d="M 97.0 105.0 L 97.0 105.0 L 97.0 96.0 L 97.0 96.0 L 97.0 105.0 Z " stroke="#191919" stroke-width="0.35 px" style="stroke-width:0.35;stroke-miterlimit:4;stroke-dasharray:none;fill:#000000;fill-rule: evenodd "/>
<path id="LinearPattern_f0087"  d="M -100.0 105.0 L -100.0 105.0 L 97.0 105.0 L 97.0 105.0 L -100.0 105.0 Z " stroke="#191919" stroke-width="0.35 px" style="stroke-width:0.35;stroke-miterlimit:4;stroke-dasharray:none;fill:#000000;fill-rule: evenodd "/>
<path id="LinearPattern_f0088"  d="M -100.0 108.0 L -100.0 105.0 L -100.0 105.0 L -100.0 108.0 L -100.0 108.0 Z " stroke="#191919" stroke-width="0.35 px" style="stroke-width:0.35;stroke-miterlimit:4;stroke-dasharray:none;fill:#000000;fill-rule: evenodd "/>
<path id="LinearPattern_f0089"  d="M 97.0 108.0 L 97.0 108.0 L -100.0 108.0 L -100.0 108.0 L 97.0 108.0 Z " stroke="#191919" stroke-width="0.35 px" style="stroke-width:0.35;stroke-miterlimit:4;stroke-dasharray:none;fill:#000000;fill-rule: evenodd "/>
<path id="LinearPattern_f0090"  d="M 97.0 117.0 L 97.0 117.0 L 97.0 108.0 L 97.0 108.0 L 97.0 117.0 Z " stroke="#191919" stroke-width="0.35 px" style="stroke-width:0.35;stroke-miterlimit:4;stroke-dasharray:none;fill:#000000;fill-rule: evenodd "/>
<title>LinearPattern</title>
</g>
</svg>