<?xml version="1.0"?>
<!DOCTYPE svg PUBLIC "-//W3C//DTD SVG 1.1//EN" "http://www.w3.org/Graphics/SVG/1.1/DTD/svg11.dtd">
<svg width="212.160000061mm" height="402.160000001mm" viewBox="0 0 212.160000061 402.160000001" xmlns="http://www.w3.org/2000/svg" version="1.1">
<g id="Part__Mirroring" transform="translate(110.080000,122.080000) scale(1,-1)">
<path id="Part__Mirroring_f0000"  d="M -108.00000006 112.0 L 91.9999999404 112.0 L 92.0000001788 112.0 L -107.999999821 112.0 L -108.00000006 112.0 Z " stroke="#191919" stroke-width="0.35 px" style="stroke-width:0.35;stroke-miterlimit:4;stroke-dasharray:none;fill:#000000;fill-rule: evenodd "/>
<path id="Part__Mirroring_f0001"  d="M 92.0000001788 108.0 L 91.9999999404 108.0 L 91.9999999404 112.0 L 92.0000001788 112.0 L 92.0000001788 108.0 Z " stroke="#191919" stroke-width="0.35 px" style="stroke-width:0.35;stroke-miterlimit:4;stroke-dasharray:none;fill:#000000;fill-rule: evenodd "/>
<path id="Part__Mirroring_f0002"  d="M -108.00000006 -128.0 L -108.00000006 112.0 L -107.999999821 112.0 L -107.999999821 -128.0 L -108.00000006 -128.0 Z " stroke="#191919" stroke-width="0.35 px" style="stroke-width:0.35;stroke-miterlimit:4;stroke-dasharray:none;fill:#000000;fill-rule: evenodd "/>
<path id="Part__Mirroring_f0003"  d="M -108.00000006 -128.0 L -108.00000006 -132.0 L -22.0000000596 -132.0 L -22.0000000596 -248.0 L -43.0000000596 -248.0 L -43.0000000596 -278.0 L -18.0000000596 -278.0 L -18.0000000596 -128.0 L -104.00000006 -128.0 L -104.00000006 -116.0 L 91.9999999404 -116.0 L 91.9999999404 -112.0 L -104.00000006 -112.0 L -104.00000006 -100.0 L 91.9999999404 -100.0 L 91.9999999404 -96.0 L -104.00000006 -96.0 L -104.00000006 -84.0 L 91.9999999404 -84.0 L 91.9999999404 -80.0 L -104.00000006 -80.0 L -104.00000006 -68.0 L 91.9999999404 -68.0 L 91.9999999404 -64.0 L -104.00000006 -64.0 L -104.00000006 -52.0 L 91.9999999404 -52.0 L 91.9999999404 -48.0 L -104.00000006 -48.0 L -104.00000006 -36.0 L 91.9999999404 -36.0 L 91.9999999404 -32.0 L -104.00000006 -32.0 L -104.00000006 -20.0 L 91.9999999404 -20.0 L 91.9999999404 -16.0 L -104.00000006 -16.0 L -104.00000006 -4.0 L 91.9999999404 -4.0 L 91.9999999404 0.0 L -104.00000006 0.0 L -104.00000006 12.0 L 91.9999999404 12.0 L 91.9999999404 16.0 L -104.00000006 16.0 L -104.00000006 28.0 L 91.9999999404 28.0 L 91.9999999404 32.0 L -104.00000006 32.0 L -104.00000006 44.0 L 91.9999999404 44.0 L 91.9999999404 48.0 L -104.00000006 48.0 L -104.00000006 60.0 L 91.9999999404 60.0 L 91.9999999404 64.0 L -104.00000006 64.0 L -104.00000006 76.0 L 91.9999999404 76.0 L 91.9999999404 80.0 L -104.00000006 80.0 L -104.00000006 92.0 L 91.9999999404 92.0 L 91.9999999404 96.0 L -104.00000006 96.0 L -104.00000006 108.0 L 91.9999999404 108.0 L 91.9999999404 112.0 L -108.00000006 112.0 L -108.00000006 -128.0 Z " stroke="#191919" stroke-width="0.35 px" style="stroke-width:0.35;stroke-miterlimit:4;stroke-dasharray:none;fill:#000000;fill-rule: evenodd "/>
<path id="Part__Mirroring_f0004"  d="M 92.0000001788 108.0 L 92.0000001788 112.0 L -107.999999821 112.0 L -107.999999821 -128.0 L -107.999999821 -132.0 L -21.9999998212 -132.0 L -21.9999998212 -248.0 L -42.9999998212 -248.0 L -42.9999998212 -278.0 L -17.9999998212 -278.0 L -17.9999998212 -128.0 L -103.999999821 -128.0 L -103.999999821 -116.0 L 92.0000001788 -116.0 L 92.0000001788 -112.0 L -103.999999821 -112.0 L -103.999999821 -100.0 L 92.0000001788 -100.0 L 92.0000001788 -96.0 L -103.999999821 -96.0 L -103.999999821 -84.0 L 92.0000001788 -84.0 L 92.0000001788 -80.0 L -103.999999821 -80.0 L -103.999999821 -68.0 L 92.0000001788 -68.0 L 92.0000001788 -64.0 L -103.999999821 -64.0 L -103.999999821 -52.0 L 92.0000001788 -52.0 L 92.0000001788 -48.0 L -103.999999821 -48.0 L -103.999999821 -36.0 L 92.0000001788 -36.0 L 92.0000001788 -32.0 L -103.999999821 -32.0 L -103.999999821 -20.0 L 92.0000001788 -20.0 L 92.0000001788 -16.0 L -103.999999821 -16.0 L -103.999999821 -4.0 L 92.0000001788 -4.0 L 92.0000001788 0.0 L -103.999999821 0.0 L -103.999999821 12.0 L 92.0000001788 12.0 L 92.0000001788 16.0 L -103.999999821 16.0 L -103.999999821 28.0 L 92.0000001788 28.0 L 92.0000001788 32.0 L -103.999999821 32.0 L -103.999999821 44.0 L 92.0000001788 44.0 L 92.0000001788 48.0 L -103.999999821 48.0 L -103.999999821 60.0 L 92.0000001788 60.0 L 92.0000001788 64.0 L -103.999999821 64.0 L -103.999999821 76.0 L 92.0000001788 76.0 L 92.0000001788 80.0 L -103.999999821 80.0 L -103.999999821 92.0 L 92.0000001788 92.0 L 92.0000001788 96.0 L -103.999999821 96.0 L -103.999999821 108.0 L 92.0000001788 108.0 Z " stroke="#191919" stroke-width="0.35 px" style="stroke-width:0.35;stroke-miterlimit:4;stroke-dasharray:none;fill:#000000;fill-rule: evenodd "/>
<path id="Part__Mirroring_f0005"  d="M -103.999999821 108.0 L -104.00000006 108.0 L 91.9999999404 108.0 L 92.0000001788 108.0 L -103.999999821 108.0 Z " stroke="#191919" stroke-width="0.35 px" style="stroke-width:0.35;stroke-miterlimit:4;stroke-dasharray:none;fill:#000000;fill-rule: evenodd "/>
<path id="Part__Mirroring_f0006"  d="M -108.00000006 -132.0 L -108.00000006 -128.0 L -107.999999821 -128.0 L -107.999999821 -132.0 L -108.00000006 -132.0 Z " stroke="#191919" stroke-width="0.35 px" style="stroke-width:0.35;stroke-miterlimit:4;stroke-dasharray:none;fill:#000000;fill-rule: evenodd "/>
<path id="Part__Mirroring_f0007"  d="M -22.0000000596 -132.0 L -108.00000006 -132.0 L -107.999999821 -132.0 L -21.9999998212 -132.0 L -22.0000000596 -132.0 Z " stroke="#191919" stroke-width="0.35 px" style="stroke-width:0.35;stroke-miterlimit:4;stroke-dasharray:none;fill:#000000;fill-rule: evenodd "/>
<path id="Part__Mirroring_f0008"  d="M -22.0000000596 -248.0 L -22.0000000596 -132.0 L -21.9999998212 -132.0 L -21.9999998212 -248.0 L -22.0000000596 -248.0 Z " stroke="#191919" stroke-width="0.35 px" style="stroke-width:0.35;stroke-miterlimit:4;stroke-dasharray:none;fill:#000000;fill-rule: evenodd "/>
<path id="Part__Mirroring_f0009"  d="M -43.0000000596 -248.0 L -22.0000000596 -248.0 L -21.9999998212 -248.0 L -42.9999998212 -248.0 L -43.0000000596 -248.0 Z " stroke="#191919" stroke-width="0.35 px" style="stroke-width:0.35;stroke-miterlimit:4;stroke-dasharray:none;fill:#000000;fill-rule: evenodd "/>
<path id="Part__Mirroring_f0010"  d="M -43.0000000596 -278.0 L -43.0000000596 -248.0 L -42.9999998212 -248.0 L -42.9999998212 -278.0 L -43.0000000596 -278.0 Z " stroke="#191919" stroke-width="0.35 px" style="stroke-width:0.35;stroke-miterlimit:4;stroke-dasharray:none;fill:#000000;fill-rule: evenodd "/>
<path id="Part__Mirroring_f0011"  d="M -18.0000000596 -278.0 L -43.0000000596 -278.0 L -42.9999998212 -278.0 L -17.9999998212 -278.0 L -18.0000000596 -278.0 Z " stroke="#191919" stroke-width="0.35 px" style="stroke-width:0.35;stroke-miterlimit:4;stroke-dasharray:none;fill:#000000;fill-rule: evenodd "/>
<path id="Part__Mirroring_f0012"  d="M -18.0000000596 -128.0 L -17.9999998212 -128.0 L -17.9999998212 -278.0 L -18.0000000596 -278.0 L -18.0000000596 -128.0 Z " stroke="#191919" stroke-width="0.35 px" style="stroke-width:0.35;stroke-miterlimit:4;stroke-dasharray:none;fill:#000000;fill-rule: evenodd "/>
<path id="Part__Mirroring_f0013"  d="M -18.0000000596 -128.0 L -17.9999998212 -128.0 L -103.999999821 -128.0 L -104.00000006 -128.0 L -18.0000000596 -128.0 Z " stroke="#191919" stroke-width="0.35 px" style="stroke-width:0.35;stroke-miterlimit:4;stroke-dasharray:none;fill:#000000;fill-rule: evenodd "/>
<path id="Part__Mirroring_f0014"  d="M -103.999999821 -128.0 L -104.00000006 -128.0 L -104.00000006 -116.0 L -103.999999821 -116.0 L -103.999999821 -128.0 Z " stroke="#191919" stroke-width="0.35 px" style="stroke-width:0.35;stroke-miterlimit:4;stroke-dasharray:none;fill:#000000;fill-rule: evenodd "/>
<path id="Part__Mirroring_f0015"  d="M -103.999999821 -116.0 L -104.00000006 -116.0 L 91.9999999404 -116.0 L 92.0000001788 -116.0 L -103.999999821 -116.0 Z " stroke="#191919" stroke-width="0.35 px" style="stroke-width:0.35;stroke-miterlimit:4;stroke-dasharray:none;fill:#000000;fill-rule: evenodd "/>
<path id="Part__Mirroring_f0016"  d="M 92.0000001788 -116.0 L 91.9999999404 -116.0 L 91.9999999404 -112.0 L 92.0000001788 -112.0 L 92.0000001788 -116.0 Z " stroke="#191919" stroke-width="0.35 px" style="stroke-width:0.35;stroke-miterlimit:4;stroke-dasharray:none;fill:#000000;fill-rule: evenodd "/>
<path id="Part__Mirroring_f0017"  d="M 92.0000001788 -112.0 L 91.9999999404 -112.0 L -104.00000006 -112.0 L -103.999999821 -112.0 L 92.0000001788 -112.0 Z " stroke="#191919" stroke-width="0.35 px" style="stroke-width:0.35;stroke-miterlimit:4;stroke-dasharray:none;fill:#000000;fill-rule: evenodd "/>
<path id="Part__Mirroring_f0018"  d="M -103.999999821 -112.0 L -104.00000006 -112.0 L -104.00000006 -100.0 L -103.999999821 -100.0 L -103.999999821 -112.0 Z " stroke="#191919" stroke-width="0.35 px" style="stroke-width:0.35;stroke-miterlimit:4;stroke-dasharray:none;fill:#000000;fill-rule: evenodd "/>
<path id="Part__Mirroring_f0019"  d="M -103.999999821 -100.0 L -104.00000006 -100.0 L 91.9999999404 -100.0 L 92.0000001788 -100.0 L -103.999999821 -100.0 Z " stroke="#191919" stroke-width="0.35 px" style="stroke-width:0.35;stroke-miterlimit:4;stroke-dasharray:none;fill:#000000;fill-rule: evenodd "/>
<path id="Part__Mirroring_f0020"  d="M 92.0000001788 -100.0 L 91.9999999404 -100.0 L 91.9999999404 -96.0 L 92.0000001788 -96.0 L 92.0000001788 -100.0 Z " stroke="#191919" stroke-width="0.35 px" style="stroke-width:0.35;stroke-miterlimit:4;stroke-dasharray:none;fill:#000000;fill-rule: evenodd "/>
<path id="Part__Mirroring_f0021"  d="M 92.0000001788 -96.0 L 91.9999999404 -96.0 L -104.00000006 -96.0 L -103.999999821 -96.0 L 92.0000001788 -96.0 Z " stroke="#191919" stroke-width="0.35 px" style="stroke-width:0.35;stroke-miterlimit:4;stroke-dasharray:none;fill:#000000;fill-rule: evenodd "/>
<path id="Part__Mirroring_f0022"  d="M -103.999999821 -96.0 L -104.00000006 -96.0 L -104.00000006 -84.0 L -103.999999821 -84.0 L -103.999999821 -96.0 Z " stroke="#191919" stroke-width="0.35 px" style="stroke-width:0.35;stroke-miterlimit:4;stroke-dasharray:none;fill:#000000;fill-rule: evenodd "/>
<path id="Part__Mirroring_f0023"  d="M -103.999999821 -84.0 L -104.00000006 -84.0 L 91.9999999404 -84.0 L 92.0000001788 -84.0 L -103.999999821 -84.0 Z " stroke="#191919" stroke-width="0.35 px" style="stroke-width:0.35;stroke-miterlimit:4;stroke-dasharray:none;fill:#000000;fill-rule: evenodd "/>
<path id="Part__Mirroring_f0024"  d="M 92.0000001788 -84.0 L 91.9999999404 -84.0 L 91.9999999404 -80.0 L 92.0000001788 -80.0 L 92.0000001788 -84.0 Z " stroke="#191919" stroke-width="0.35 px" style="stroke-width:0.35;stroke-miterlimit:4;stroke-dasharray:none;fill:#000000;fill-rule: evenodd "/>
<path id="Part__Mirroring_f0025"  d="M 92.0000001788 -80.0 L 91.9999999404 -80.0 L -104.00000006 -80.0 L -103.999999821 -80.0 L 92.0000001788 -80.0 Z " stroke="#191919" stroke-width="0.35 px" style="stroke-width:0.35;stroke-miterlimit:4;stroke-dasharray:none;fill:#000000;fill-rule: evenodd "/>
<path id="Part__Mirroring_f0026"  d="M -103.999999821 -80.0 L -104.00000006 -80.0 L -104.00000006 -68.0 L -103.999999821 -68.0 L -103.999999821 -80.0 Z " stroke="#191919" stroke-width="0.35 px" style="stroke-width:0.35;stroke-miterlimit:4;stroke-dasharray:none;fill:#000000;fill-rule: evenodd "/>
<path id="Part__Mirroring_f0027"  d="M -103.999999821 -68.0 L -104.00000006 -68.0 L 91.9999999404 -68.0 L 92.0000001788 -68.0 L -103.999999821 -68.0 Z " stroke="#191919" stroke-width="0.35 px" style="stroke-width:0.35;stroke-miterlimit:4;stroke-dasharray:none;fill:#000000;fill-rule: evenodd "/>
<path id="Part__Mirroring_f0028"  d="M 92.0000001788 -68.0 L 91.9999999404 -68.0 L 91.9999999404 -64.0 L 92.0000001788 -64.0 L 92.0000001788 -68.0 Z " stroke="#191919" stroke-width="0.35 px" style="stroke-width:0.35;stroke-miterlimit:4;stroke-dasharray:none;fill:#000000;fill-rule: evenodd "/>
<path id="Part__Mirroring_f0029"  d="M 92.0000001788 -64.0 L 91.9999999404 -64.0 L -104.00000006 -64.0 L -103.999999821 -64.0 L 92.0000001788 -64.0 Z " stroke="#191919" stroke-width="0.35 px" style="stroke-width:0.35;stroke-miterlimit:4;stroke-dasharray:none;fill:#000000;fill-rule: evenodd "/>
<path id="Part__Mirroring_f0030"  d="M -103.999999821 -64.0 L -104.00000006 -64.0 L -104.00000006 -52.0 L -103.999999821 -52.0 L -103.999999821 -64.0 Z " stroke="#191919" stroke-width="0.35 px" style="stroke-width:0.35;stroke-miterlimit:4;stroke-dasharray:none;fill:#000000;fill-rule: evenodd "/>
<path id="Part__Mirroring_f0031"  d="M -103.999999821 -52.0 L -104.00000006 -52.0 L 91.9999999404 -52.0 L 92.0000001788 -52.0 L -103.999999821 -52.0 Z " stroke="#191919" stroke-width="0.35 px" style="stroke-width:0.35;stroke-miterlimit:4;stroke-dasharray:none;fill:#000000;fill-rule: evenodd "/>
<path id="Part__Mirroring_f0032"  d="M 92.0000001788 -52.0 L 91.9999999404 -52.0 L 91.9999999404 -48.0 L 92.0000001788 -48.0 L 92.0000001788 -52.0 Z " stroke="#191919" stroke-width="0.35 px" style="stroke-width:0.35;stroke-miterlimit:4;stroke-dasharray:none;fill:#000000;fill-rule: evenodd "/>
<path id="Part__Mirroring_f0033"  d="M 92.0000001788 -48.0 L 91.9999999404 -48.0 L -104.00000006 -48.0 L -103.999999821 -48.0 L 92.0000001788 -48.0 Z " stroke="#191919" stroke-width="0.35 px" style="stroke-width:0.35;stroke-miterlimit:4;stroke-dasharray:none;fill:#000000;fill-rule: evenodd "/>
<path id="Part__Mirroring_f0034"  d="M -103.999999821 -48.0 L -104.00000006 -48.0 L -104.00000006 -36.0 L -103.999999821 -36.0 L -103.999999821 -48.0 Z " stroke="#191919" stroke-width="0.35 px" style="stroke-width:0.35;stroke-miterlimit:4;stroke-dasharray:none;fill:#000000;fill-rule: evenodd "/>
<path id="Part__Mirroring_f0035"  d="M -103.999999821 -36.0 L -104.00000006 -36.0 L 91.9999999404 -36.0 L 92.0000001788 -36.0 L -103.999999821 -36.0 Z " stroke="#191919" stroke-width="0.35 px" style="stroke-width:0.35;stroke-miterlimit:4;stroke-dasharray:none;fill:#000000;fill-rule: evenodd "/>
<path id="Part__Mirroring_f0036"  d="M 92.0000001788 -36.0 L 91.9999999404 -36.0 L 91.9999999404 -32.0 L 92.0000001788 -32.0 L 92.0000001788 -36.0 Z " stroke="#191919" stroke-width="0.35 px" style="stroke-width:0.35;stroke-miterlimit:4;stroke-dasharray:none;fill:#000000;fill-rule: evenodd "/>
<path id="Part__Mirroring_f0037"  d="M 92.0000001788 -32.0 L 91.9999999404 -32.0 L -104.00000006 -32.0 L -103.999999821 -32.0 L 92.0000001788 -32.0 Z " stroke="#191919" stroke-width="0.35 px" style="stroke-width:0.35;stroke-miterlimit:4;stroke-dasharray:none;fill:#000000;fill-rule: evenodd "/>
<path id="Part__Mirroring_f0038"  d="M -103.999999821 -32.0 L -104.00000006 -32.0 L -104.00000006 -20.0 L -103.999999821 -20.0 L -103.999999821 -32.0 Z " stroke="#191919" stroke-width="0.35 px" style="stroke-width:0.35;stroke-miterlimit:4;stroke-dasharray:none;fill:#000000;fill-rule: evenodd "/>
<path id="Part__Mirroring_f0039"  d="M -103.999999821 -20.0 L -104.00000006 -20.0 L 91.9999999404 -20.0 L 92.0000001788 -20.0 L -103.999999821 -20.0 Z " stroke="#191919" stroke-width="0.35 px" style="stroke-width:0.35;stroke-miterlimit:4;stroke-dasharray:none;fill:#000000;fill-rule: evenodd "/>
<path id="Part__Mirroring_f0040"  d="M 92.0000001788 -20.0 L 91.9999999404 -20.0 L 91.9999999404 -16.0 L 92.0000001788 -16.0 L 92.0000001788 -20.0 Z " stroke="#191919" stroke-width="0.35 px" style="stroke-width:0.35;stroke-miterlimit:4;stroke-dasharray:none;fill:#000000;fill-rule: evenodd "/>
<path id="Part__Mirroring_f0041"  d="M 92.0000001788 -16.0 L 91.9999999404 -16.0 L -104.00000006 -16.0 L -103.999999821 -16.0 L 92.0000001788 -16.0 Z " stroke="#191919" stroke-width="0.35 px" style="stroke-width:0.35;stroke-miterlimit:4;stroke-dasharray:none;fill:#000000;fill-rule: evenodd "/>
<path id="Part__Mirroring_f0042"  d="M -103.999999821 -16.0 L -104.00000006 -16.0 L -104.00000006 -4.0 L -103.999999821 -4.0 L -103.999999821 -16.0 Z " stroke="#191919" stroke-width="0.35 px" style="stroke-width:0.35;stroke-miterlimit:4;stroke-dasharray:none;fill:#000000;fill-rule: evenodd "/>
<path id="Part__Mirroring_f0043"  d="M -103.999999821 -4.0 L -104.00000006 -4.0 L 91.9999999404 -4.0 L 92.0000001788 -4.0 L -103.999999821 -4.0 Z " stroke="#191919" stroke-width="0.35 px" style="stroke-width:0.35;stroke-miterlimit:4;stroke-dasharray:none;fill:#000000;fill-rule: evenodd "/>
<path id="Part__Mirroring_f0044"  d="M 92.0000001788 -4.0 L 91.9999999404 -4.0 L 91.9999999404 0.0 L 92.0000001788 0.0 L 92.0000001788 -4.0 Z " stroke="#191919" stroke-width="0.35 px" style="stroke-width:0.35;stroke-miterlimit:4;stroke-dasharray:none;fill:#000000;fill-rule: evenodd "/>
<path id="Part__Mirroring_f0045"  d="M 92.0000001788 0.0 L 91.9999999404 0.0 L -104.00000006 0.0 L -103.999999821 0.0 L 92.0000001788 0.0 Z " stroke="#191919" stroke-width="0.35 px" style="stroke-width:0.35;stroke-miterlimit:4;stroke-dasharray:none;fill:#000000;fill-rule: evenodd "/>
<path id="Part__Mirroring_f0046"  d="M -103.999999821 0.0 L -104.00000006 0.0 L -104.00000006 12.0 L -103.999999821 12.0 L -103.999999821 0.0 Z " stroke="#191919" stroke-width="0.35 px" style="stroke-width:0.35;stroke-miterlimit:4;stroke-dasharray:none;fill:#000000;fill-rule: evenodd "/>
<path id="Part__Mirroring_f0047"  d="M -103.999999821 12.0 L -104.00000006 12.0 L 91.9999999404 12.0 L 92.0000001788 12.0 L -103.999999821 12.0 Z " stroke="#191919" stroke-width="0.35 px" style="stroke-width:0.35;stroke-miterlimit:4;stroke-dasharray:none;fill:#000000;fill-rule: evenodd "/>
<path id="Part__Mirroring_f0048"  d="M 92.0000001788 12.0 L 91.9999999404 12.0 L 91.9999999404 16.0 L 92.0000001788 16.0 L 92.0000001788 12.0 Z " stroke="#191919" stroke-width="0.35 px" style="stroke-width:0.35;stroke-miterlimit:4;stroke-dasharray:none;fill:#000000;fill-rule: evenodd "/>
<path id="Part__Mirroring_f0049"  d="M 92.0000001788 16.0 L 91.9999999404 16.0 L -104.00000006 16.0 L -103.999999821 16.0 L 92.0000001788 16.0 Z " stroke="#191919" stroke-width="0.35 px" style="stroke-width:0.35;stroke-miterlimit:4;stroke-dasharray:none;fill:#000000;fill-rule: evenodd "/>
<path id="Part__Mirroring_f0050"  d="M -103.999999821 16.0 L -104.00000006 16.0 L -104.00000006 28.0 L -103.999999821 28.0 L -103.999999821 16.0 Z " stroke="#191919" stroke-width="0.35 px" style="stroke-width:0.35;stroke-miterlimit:4;stroke-dasharray:none;fill:#000000;fill-rule: evenodd "/>
<path id="Part__Mirroring_f0051"  d="M -103.999999821 28.0 L -104.00000006 28.0 L 91.9999999404 28.0 L 92.0000001788 28.0 L -103.999999821 28.0 Z " stroke="#191919" stroke-width="0.35 px" style="stroke-width:0.35;stroke-miterlimit:4;stroke-dasharray:none;fill:#000000;fill-rule: evenodd "/>
<path id="Part__Mirroring_f0052"  d="M 92.0000001788 28.0 L 91.9999999404 28.0 L 91.9999999404 32.0 L 92.0000001788 32.0 L 92.0000001788 28.0 Z " stroke="#191919" stroke-width="0.35 px" style="stroke-width:0.35;stroke-miterlimit:4;stroke-dasharray:none;fill:#000000;fill-rule: evenodd "/>
<path id="Part__Mirroring_f0053"  d="M 92.0000001788 32.0 L 91.9999999404 32.0 L -104.00000006 32.0 L -103.999999821 32.0 L 92.0000001788 32.0 Z " stroke="#191919" stroke-width="0.35 px" style="stroke-width:0.35;stroke-miterlimit:4;stroke-dasharray:none;fill:#000000;fill-rule: evenodd "/>
<path id="Part__Mirroring_f0054"  d="M -103.999999821 32.0 L -104.00000006 32.0 L -104.00000006 44.0 L -103.999999821 44.0 L -103.999999821 32.0 Z " stroke="#191919" stroke-width="0.35 px" style="stroke-width:0.35;stroke-miterlimit:4;stroke-dasharray:none;fill:#000000;fill-rule: evenodd "/>
<path id="Part__Mirroring_f0055"  d="M -103.999999821 44.0 L -104.00000006 44.0 L 91.9999999404 44.0 L 92.0000001788 44.0 L -103.999999821 44.0 Z " stroke="#191919" stroke-width="0.35 px" style="stroke-width:0.35;stroke-miterlimit:4;stroke-dasharray:none;fill:#000000;fill-rule: evenodd "/>
<path id="Part__Mirroring_f0056"  d="M 92.0000001788 44.0 L 91.9999999404 44.0 L 91.9999999404 48.0 L 92.0000001788 48.0 L 92.0000001788 44.0 Z " stroke="#191919" stroke-width="0.35 px" style="stroke-width:0.35;stroke-miterlimit:4;stroke-dasharray:none;fill:#000000;fill-rule: evenodd "/>
<path id="Part__Mirroring_f0057"  d="M 92.0000001788 48.0 L 91.9999999404 48.0 L -104.00000006 48.0 L -103.999999821 48.0 L 92.0000001788 48.0 Z " stroke="#191919" stroke-width="0.35 px" style="stroke-width:0.35;stroke-miterlimit:4;stroke-dasharray:none;fill:#000000;fill-rule: evenodd "/>
<path id="Part__Mirroring_f0058"  d="M -103.999999821 48.0 L -104.00000006 48.0 L -104.00000006 60.0 L -103.999999821 60.0 L -103.999999821 48.0 Z " stroke="#191919" stroke-width="0.35 px" style="stroke-width:0.35;stroke-miterlimit:4;stroke-dasharray:none;fill:#000000;fill-rule: evenodd "/>
<path id="Part__Mirroring_f0059"  d="M -103.999999821 60.0 L -104.00000006 60.0 L 91.9999999404 60.0 L 92.0000001788 60.0 L -103.999999821 60.0 Z " stroke="#191919" stroke-width="0.35 px" style="stroke-width:0.35;stroke-miterlimit:4;stroke-dasharray:none;fill:#000000;fill-rule: evenodd "/>
<path id="Part__Mirroring_f0060"  d="M 92.0000001788 60.0 L 91.9999999404 60.0 L 91.9999999404 64.0 L 92.0000001788 64.0 L 92.0000001788 60.0 Z " stroke="#191919" stroke-width="0.35 px" style="stroke-width:0.35;stroke-miterlimit:4;stroke-dasharray:none;fill:#000000;fill-rule: evenodd "/>
<path id="Part__Mirroring_f0061"  d="M 92.0000001788 64.0 L 91.9999999404 64.0 L -104.00000006 64.0 L -103.999999821 64.0 L 92.0000001788 64.0 Z " stroke="#191919" stroke-width="0.35 px" style="stroke-width:0.35;stroke-miterlimit:4;stroke-dasharray:none;fill:#000000;fill-rule: evenodd "/>
<path id="Part__Mirroring_f0062"  d="M -103.999999821 64.0 L -104.00000006 64.0 L -104.00000006 76.0 L -103.999999821 76.0 L -103.999999821 64.0 Z " stroke="#191919" stroke-width="0.35 px" style="stroke-width:0.35;stroke-miterlimit:4;stroke-dasharray:none;fill:#000000;fill-rule: evenodd "/>
<path id="Part__Mirroring_f0063"  d="M -103.999999821 76.0 L -104.00000006 76.0 L 91.9999999404 76.0 L 92.0000001788 76.0 L -103.999999821 76.0 Z " stroke="#191919" stroke-width="0.35 px" style="stroke-width:0.35;stroke-miterlimit:4;stroke-dasharray:none;fill:#000000;fill-rule: evenodd "/>
<path id="Part__Mirroring_f0064"  d="M 92.0000001788 76.0 L 91.9999999404 76.0 L 91.9999999404 80.0 L 92.0000001788 80.0 L 92.0000001788 76.0 Z " stroke="#191919" stroke-width="0.35 px" style="stroke-width:0.35;stroke-miterlimit:4;stroke-dasharray:none;fill:#000000;fill-rule: evenodd "/>
<path id="Part__Mirroring_f0065"  d="M 92.0000001788 80.0 L 91.9999999404 80.0 L -104.00000006 80.0 L -103.999999821 80.0 L 92.0000001788 80.0 Z " stroke="#191919" stroke-width="0.35 px" style="stroke-width:0.35;stroke-miterlimit:4;stroke-dasharray:none;fill:#000000;fill-rule: evenodd "/>
<path id="Part__Mirroring_f0066"  d="M -103.999999821 80.0 L -104.00000006 80.0 L -104.00000006 92.0 L -103.999999821 92.0 L -103.999999821 80.0 Z " stroke="#191919" stroke-width="0.35 px" style="stroke-width:0.35;stroke-miterlimit:4;stroke-dasharray:none;fill:#000000;fill-rule: evenodd "/>
<path id="Part__Mirroring_f0067"  d="M -103.999999821 92.0 L -104.00000006 92.0 L 91.9999999404 92.0 L 92.0000001788 92.0 L -103.999999821 92.0 Z " stroke="#191919" stroke-width="0.35 px" style="stroke-width:0.35;stroke-miterlimit:4;stroke-dasharray:none;fill:#000000;fill-rule: evenodd "/>
<path id="Part__Mirroring_f0068"  d="M 92.0000001788 92.0 L 91.9999999404 92.0 L 91.9999999404 96.0 L 92.0000001788 96.0 L 92.0000001788 92.0 Z " stroke="#191919" stroke-width="0.35 px" style="stroke-width:0.35;stroke-miterlimit:4;stroke-dasharray:none;fill:#000000;fill-rule: evenodd "/>
<path id="Part__Mirroring_f0069"  d="M 92.0000001788 96.0 L 91.9999999404 96.0 L -104.00000006 96.0 L -103.999999821 96.0 L 92.0000001788 96.0 Z " stroke="#191919" stroke-width="0.35 px" style="stroke-width:0.35;stroke-miterlimit:4;stroke-dasharray:none;fill:#000000;fill-rule: evenodd "/>
<path id="Part__Mirroring_f0070"  d="M -103.999999821 96.0 L -104.00000006 96.0 L -104.00000006 108.0 L -103.999999821 108.0 L -103.999999821 96.0 Z " stroke="#191919" stroke-width="0.35 px" style="stroke-width:0.35;stroke-miterlimit:4;stroke-dasharray:none;fill:#000000;fill-rule: evenodd "/>
<title>LinearPattern (Mirror #1)</title>
</g>
<g id="LinearPattern" transform="translate(110.080000,122.080000) scale(1,-1)">
<path id="LinearPattern_f0000"  d="M -100.0 120.0 L -100.0 120.0 L 100.0 120.0 L 100.0 120.0 L -100.0 120.0 Z " stroke="#191919" stroke-width="0.35 px" style="stroke-width:0.35;stroke-miterlimit:4;stroke-dasharray:none;fill:#000000;fill-rule: evenodd "/>
<path id="LinearPattern_f0001"  d="M -100.0 120.0 L -100.0 116.0 L -100.0 116.0 L -100.0 120.0 L -100.0 120.0 Z " stroke="#191919" stroke-width="0.35 px" style="stroke-width:0.35;stroke-miterlimit:4;stroke-dasharray:none;fill:#000000;fill-rule: evenodd "/>
<path id="LinearPattern_f0002"  d="M 100.0 120.0 L 100.0 120.0 L 100.0 -120.0 L 100.0 -120.0 L 100.0 120.0 Z " stroke="#191919" stroke-width="0.35 px" style="stroke-width:0.35;stroke-miterlimit:4;stroke-dasharray:none;fill:#000000;fill-rule: evenodd "/>
<path id="LinearPattern_f0003"  d="M -100.0 116.0 L -100.0 120.0 L 100.0 120.0 L 100.0 -120.0 L 100.0 -124.0 L 14.0 -124.0 L 14.0 -240.0 L 35.0 -240.0 L 35.0 -270.0 L 10.0 -270.0 L 10.0 -120.0 L 96.0 -120.0 L 96.0 -108.0 L -100.0 -108.0 L -100.0 -104.0 L 96.0 -104.0 L 96.0 -92.0 L -100.0 -92.0 L -100.0 -88.0 L 96.0 -88.0 L 96.0 -76.0 L -100.0 -76.0 L -100.0 -72.0 L 96.0 -72.0 L 96.0 -60.0 L -100.0 -60.0 L -100.0 -56.0 L 96.0 -56.0 L 96.0 -44.0 L -100.0 -44.0 L -100.0 -40.0 L 96.0 -40.0 L 96.0 -28.0 L -100.0 -28.0 L -100.0 -24.0 L 96.0 -24.0 L 96.0 -12.0 L -100.0 -12.0 L -100.0 -8.0 L 96.0 -8.0 L 96.0 4.0 L -100.0 4.0 L -100.0 8.0 L 96.0 8.0 L 96.0 20.0 L -100.0 20.0 L -100.0 24.0 L 96.0 24.0 L 96.0 36.0 L -100.0 36.0 L -100.0 40.0 L 96.0 40.0 L 96.0 52.0 L -100.0 52.0 L -100.0 56.0 L 96.0 56.0 L 96.0 68.0 L -100.0 68.0 L -100.0 72.0 L 96.0 72.0 L 96.0 84.0 L -100.0 84.0 L -100.0 88.0 L 96.0 88.0 L 96.0 100.0 L -100.0 100.0 L -100.0 104.0 L 96.0 104.0 L 96.0 116.0 L -100.0 116.0 Z " stroke="#191919" stroke-width="0.35 px" style="stroke-width:0.35;stroke-miterlimit:4;stroke-dasharray:none;fill:#000000;fill-rule: evenodd "/>
<path id="LinearPattern_f0004"  d="M 100.0 -120.0 L 100.0 -124.0 L 14.0 -124.0 L 14.0 -240.0 L 35.0 -240.0 L 35.0 -270.0 L 10.0 -270.0 L 10.0 -120.0 L 96.0 -120.0 L 96.0 -108.0 L -100.0 -108.0 L -100.0 -104.0 L 96.0 -104.0 L 96.0 -92.0 L -100.0 -92.0 L -100.0 -88.0 L 96.0 -88.0 L 96.0 -76.0 L -100.0 -76.0 L -100.0 -72.0 L 96.0 -72.0 L 96.0 -60.0 L -100.0 -60.0 L -100.0 -56.0 L 96.0 -56.0 L 96.0 -44.0 L -100.0 -44.0 L -100.0 -40.0 L 96.0 -40.0 L 96.0 -28.0 L -100.0 -28.0 L -100.0 -24.0 L 96.0 -24.0 L 96.0 -12.0 L -100.0 -12.0 L -100.0 -8.0 L 96.0 -8.0 L 96.0 4.0 L -100.0 4.0 L -100.0 8.0 L 96.0 8.0 L 96.0 20.0 L -100.0 20.0 L -100.0 24.0 L 96.0 24.0 L 96.0 36.0 L -100.0 36.0 L -100.0 40.0 L 96.0 40.0 L 96.0 52.0 L -100.0 52.0 L -100.0 56.0 L 96.0 56.0 L 96.0 68.0 L -100.0 68.0 L -100.0 72.0 L 96.0 72.0 L 96.0 84.0 L -100.0 84.0 L -100.0 88.0 L 96.0 88.0 L 96.0 100.0 L -100.0 100.0 L -100.0 104.0 L 96.0 104.0 L 96.0 116.0 L -100.0 116.0 L -100.0 120.0 L 100.0 120.0 L 100.0 -120.0 Z " stroke="#191919" stroke-width="0.35 px" style="stroke-width:0.35;stroke-miterlimit:4;stroke-dasharray:none;fill:#000000;fill-rule: evenodd "/>
<path id="LinearPattern_f0005"  d="M -100.0 116.0 L -100.0 116.0 L 96.0 116.0 L 96.0 116.0 L -100.0 116.0 Z " stroke="#191919" stroke-width="0.35 px" style="stroke-width:0.35;stroke-miterlimit:4;stroke-dasharray:none;fill:#000000;fill-rule: evenodd "/>
<path id="LinearPattern_f0006"  d="M 100.0 -120.0 L 100.0 -120.0 L 100.0 -124.0 L 100.0 -124.0 L 100.0 -120.0 Z " stroke="#191919" stroke-width="0.35 px" style="stroke-width:0.35;stroke-miterlimit:4;stroke-dasharray:none;fill:#000000;fill-rule: evenodd "/>
<path id="LinearPattern_f0007"  d="M 100.0 -124.0 L 100.0 -124.0 L 14.0 -124.0 L 14.0 -124.0 L 100.0 -124.0 Z " stroke="#191919" stroke-width="0.35 px" style="stroke-width:0.35;stroke-miterlimit:4;stroke-dasharray:none;fill:#000000;fill-rule: evenodd "/>
<path id="LinearPattern_f0008"  d="M 14.0 -124.0 L 14.0 -124.0 L 14.0 -240.0 L 14.0 -240.0 L 14.0 -124.0 Z " stroke="#191919" stroke-width="0.35 px" style="stroke-width:0.35;stroke-miterlimit:4;stroke-dasharray:none;fill:#000000;fill-rule: evenodd "/>
<path id="LinearPattern_f0009"  d="M 14.0 -240.0 L 14.0 -240.0 L 35.0 -240.0 L 35.0 -240.0 L 14.0 -240.0 Z " stroke="#191919" stroke-width="0.35 px" style="stroke-width:0.35;stroke-miterlimit:4;stroke-dasharray:none;fill:#000000;fill-rule: evenodd "/>
<path id="LinearPattern_f0010"  d="M 35.0 -240.0 L 35.0 -240.0 L 35.0 -270.0 L 35.0 -270.0 L 35.0 -240.0 Z " stroke="#191919" stroke-width="0.35 px" style="stroke-width:0.35;stroke-miterlimit:4;stroke-dasharray:none;fill:#000000;fill-rule: evenodd "/>
<path id="LinearPattern_f0011"  d="M 35.0 -270.0 L 35.0 -270.0 L 10.0 -270.0 L 10.0 -270.0 L 35.0 -270.0 Z " stroke="#191919" stroke-width="0.35 px" style="stroke-width:0.35;stroke-miterlimit:4;stroke-dasharray:none;fill:#000000;fill-rule: evenodd "/>
<path id="LinearPattern_f0012"  d="M 10.0 -270.0 L 10.0 -270.0 L 10.0 -120.0 L 10.0 -120.0 L 10.0 -270.0 Z " stroke="#191919" stroke-width="0.35 px" style="stroke-width:0.35;stroke-miterlimit:4;stroke-dasharray:none;fill:#000000;fill-rule: evenodd "/>
<path id="LinearPattern_f0013"  d="M 10.0 -120.0 L 96.0 -120.0 L 96.0 -120.0 L 10.0 -120.0 L 10.0 -120.0 Z " stroke="#191919" stroke-width="0.35 px" style="stroke-width:0.35;stroke-miterlimit:4;stroke-dasharray:none;fill:#000000;fill-rule: evenodd "/>
<path id="LinearPattern_f0014"  d="M 96.0 -108.0 L 96.0 -108.0 L 96.0 -120.0 L 96.0 -120.0 L 96.0 -108.0 Z " stroke="#191919" stroke-width="0.35 px" style="stroke-width:0.35;stroke-miterlimit:4;stroke-dasharray:none;fill:#000000;fill-rule: evenodd "/>
<path id="LinearPattern_f0015"  d="M -100.0 -108.0 L -100.0 -108.0 L 96.0 -108.0 L 96.0 -108.0 L -100.0 -108.0 Z " stroke="#191919" stroke-width="0.35 px" style="stroke-width:0.35;stroke-miterlimit:4;stroke-dasharray:none;fill:#000000;fill-rule: evenodd "/>
<path id="LinearPattern_f0016"  d="M -100.0 -104.0 L -100.0 -108.0 L -100.0 -108.0 L -100.0 -104.0 L -100.0 -104.0 Z " stroke="#191919" stroke-width="0.35 px" style="stroke-width:0.35;stroke-miterlimit:4;stroke-dasharray:none;fill:#000000;fill-rule: evenodd "/>
<path id="LinearPattern_f0017"  d="M 96.0 -104.0 L 96.0 -104.0 L -100.0 -104.0 L -100.0 -104.0 L 96.0 -104.0 Z " stroke="#191919" stroke-width="0.35 px" style="stroke-width:0.35;stroke-miterlimit:4;stroke-dasharray:none;fill:#000000;fill-rule: evenodd "/>
<path id="LinearPattern_f0018"  d="M 96.0 -92.0 L 96.0 -92.0 L 96.0 -104.0 L 96.0 -104.0 L 96.0 -92.0 Z " stroke="#191919" stroke-width="0.35 px" style="stroke-width:0.35;stroke-miterlimit:4;stroke-dasharray:none;fill:#000000;fill-rule: evenodd "/>
<path id="LinearPattern_f0019"  d="M -100.0 -92.0 L -100.0 -92.0 L 96.0 -92.0 L 96.0 -92.0 L -100.0 -92.0 Z " stroke="#191919" stroke-width="0.35 px" style="stroke-width:0.35;stroke-miterlimit:4;stroke-dasharray:none;fill:#000000;fill-rule: evenodd "/>
<path id="LinearPattern_f0020"  d="M -100.0 -88.0 L -100.0 -92.0 L -100.0 -92.0 L -100.0 -88.0 L -100.0 -88.0 Z " stroke="#191919" stroke-width="0.35 px" style="stroke-width:0.35;stroke-miterlimit:4;stroke-dasharray:none;fill:#000000;fill-rule: evenodd "/>
<path id="LinearPattern_f0021"  d="M 96.0 -88.0 L 96.0 -88.0 L -100.0 -88.0 L -100.0 -88.0 L 96.0 -88.0 Z " stroke="#191919" stroke-width="0.35 px" style="stroke-width:0.35;stroke-miterlimit:4;stroke-dasharray:none;fill:#000000;fill-rule: evenodd "/>
<path id="LinearPattern_f0022"  d="M 96.0 -76.0 L 96.0 -76.0 L 96.0 -88.0 L 96.0 -88.0 L 96.0 -76.0 Z " stroke="#191919" stroke-width="0.35 px" style="stroke-width:0.35;stroke-miterlimit:4;stroke-dasharray:none;fill:#000000;fill-rule: evenodd "/>
<path id="LinearPattern_f0023"  d="M -100.0 -76.0 L -100.0 -76.0 L 96.0 -76.0 L 96.0 -76.0 L -100.0 -76.0 Z " stroke="#191919" stroke-width="0.35 px" style="stroke-width:0.35;stroke-miterlimit:4;stroke-dasharray:none;fill:#000000;fill-rule: evenodd "/>
<path id="LinearPattern_f0024"  d="M -100.0 -72.0 L -100.0 -76.0 L -100.0 -76.0 L -100.0 -72.0 L -100.0 -72.0 Z " stroke="#191919" stroke-width="0.35 px" style="stroke-width:0.35;stroke-miterlimit:4;stroke-dasharray:none;fill:#000000;fill-rule: evenodd "/>
<path id="LinearPattern_f0025"  d="M 96.0 -72.0 L 96.0 -72.0 L -100.0 -72.0 L -100.0 -72.0 L 96.0 -72.0 Z " stroke="#191919" stroke-width="0.35 px" style="stroke-width:0.35;stroke-miterlimit:4;stroke-dasharray:none;fill:#000000;fill-rule: evenodd "/>
<path id="LinearPattern_f0026"  d="M 96.0 -60.0 L 96.0 -60.0 L 96.0 -72.0 L 96.0 -72.0 L 96.0 -60.0 Z " stroke="#191919" stroke-width="0.35 px" style="stroke-width:0.35;stroke-miterlimit:4;stroke-dasharray:none;fill:#000000;fill-rule: evenodd "/>
<path id="LinearPattern_f0027"  d="M -100.0 -60.0 L -100.0 -60.0 L 96.0 -60.0 L 96.0 -60.0 L -100.0 -60.0 Z " stroke="#191919" stroke-width="0.35 px" style="stroke-width:0.35;stroke-miterlimit:4;stroke-dasharray:none;fill:#000000;fill-rule: evenodd "/>
<path id="LinearPattern_f0028"  d="M -100.0 -56.0 L -100.0 -60.0 L -100.0 -60.0 L -100.0 -56.0 L -100.0 -56.0 Z " stroke="#191919" stroke-width="0.35 px" style="stroke-width:0.35;stroke-miterlimit:4;stroke-dasharray:none;fill:#000000;fill-rule: evenodd "/>
<path id="LinearPattern_f0029"  d="M 96.0 -56.0 L 96.0 -56.0 L -100.0 -56.0 L -100.0 -56.0 L 96.0 -56.0 Z " stroke="#191919" stroke-width="0.35 px" style="stroke-width:0.35;stroke-miterlimit:4;stroke-dasharray:none;fill:#000000;fill-rule: evenodd "/>
<path id="LinearPattern_f0030"  d="M 96.0 -44.0 L 96.0 -44.0 L 96.0 -56.0 L 96.0 -56.0 L 96.0 -44.0 Z " stroke="#191919" stroke-width="0.35 px" style="stroke-width:0.35;stroke-miterlimit:4;stroke-dasharray:none;fill:#000000;fill-rule: evenodd "/>
<path id="LinearPattern_f0031"  d="M -100.0 -44.0 L -100.0 -44.0 L 96.0 -44.0 L 96.0 -44.0 L -100.0 -44.0 Z " stroke="#191919" stroke-width="0.35 px" style="stroke-width:0.35;stroke-miterlimit:4;stroke-dasharray:none;fill:#000000;fill-rule: evenodd "/>
<path id="LinearPattern_f0032"  d="M -100.0 -40.0 L -100.0 -44.0 L -100.0 -44.0 L -100.0 -40.0 L -100.0 -40.0 Z " stroke="#191919" stroke-width="0.35 px" style="stroke-width:0.35;stroke-miterlimit:4;stroke-dasharray:none;fill:#000000;fill-rule: evenodd "/>
<path id="LinearPattern_f0033"  d="M 96.0 -40.0 L 96.0 -40.0 L -100.0 -40.0 L -100.0 -40.0 L 96.0 -40.0 Z " stroke="#191919" stroke-width="0.35 px" style="stroke-width:0.35;stroke-miterlimit:4;stroke-dasharray:none;fill:#000000;fill-rule: evenodd "/>
<path id="LinearPattern_f0034"  d="M 96.0 -28.0 L 96.0 -28.0 L 96.0 -40.0 L 96.0 -40.0 L 96.0 -28.0 Z " stroke="#191919" stroke-width="0.35 px" style="stroke-width:0.35;stroke-miterlimit:4;stroke-dasharray:none;fill:#000000;fill-rule: evenodd "/>
<path id="LinearPattern_f0035"  d="M -100.0 -28.0 L -100.0 -28.0 L 96.0 -28.0 L 96.0 -28.0 L -100.0 -28.0 Z " stroke="#191919" stroke-width="0.35 px" style="stroke-width:0.35;stroke-miterlimit:4;stroke-dasharray:none;fill:#000000;fill-rule: evenodd "/>
<path id="LinearPattern_f0036"  d="M -100.0 -24.0 L -100.0 -28.0 L -100.0 -28.0 L -100.0 -24.0 L -100.0 -24.0 Z " stroke="#191919" stroke-width="0.35 px" style="stroke-width:0.35;stroke-miterlimit:4;stroke-dasharray:none;fill:#000000;fill-rule: evenodd "/>
<path id="LinearPattern_f0037"  d="M 96.0 -24.0 L 96.0 -24.0 L -100.0 -24.0 L -100.0 -24.0 L 96.0 -24.0 Z " stroke="#191919" stroke-width="0.35 px" style="stroke-width:0.35;stroke-miterlimit:4;stroke-dasharray:none;fill:#000000;fill-rule: evenodd "/>
<path id="LinearPattern_f0038"  d="M 96.0 -12.0 L 96.0 -12.0 L 96.0 -24.0 L 96.0 -24.0 L 96.0 -12.0 Z " stroke="#191919" stroke-width="0.35 px" style="stroke-width:0.35;stroke-miterlimit:4;stroke-dasharray:none;fill:#000000;fill-rule: evenodd "/>
<path id="LinearPattern_f0039"  d="M -100.0 -12.0 L -100.0 -12.0 L 96.0 -12.0 L 96.0 -12.0 L -100.0 -12.0 Z " stroke="#191919" stroke-width="0.35 px" style="stroke-width:0.35;stroke-miterlimit:4;stroke-dasharray:none;fill:#000000;fill-rule: evenodd "/>
<path id="LinearPattern_f0040"  d="M -100.0 -8.0 L -100.0 -12.0 L -100.0 -12.0 L -100.0 -8.0 L -100.0 -8.0 Z " stroke="#191919" stroke-width="0.35 px" style="stroke-width:0.35;stroke-miterlimit:4;stroke-dasharray:none;fill:#000000;fill-rule: evenodd "/>
<path id="LinearPattern_f0041"  d="M 96.0 -8.0 L 96.0 -8.0 L -100.0 -8.0 L -100.0 -8.0 L 96.0 -8.0 Z " stroke="#191919" stroke-width="0.35 px" style="stroke-width:0.35;stroke-miterlimit:4;stroke-dasharray:none;fill:#000000;fill-rule: evenodd "/>
<path id="LinearPattern_f0042"  d="M 96.0 4.0 L 96.0 4.0 L 96.0 -8.0 L 96.0 -8.0 L 96.0 4.0 Z " stroke="#191919" stroke-width="0.35 px" style="stroke-width:0.35;stroke-miterlimit:4;stroke-dasharray:none;fill:#000000;fill-rule: evenodd "/>
<path id="LinearPattern_f0043"  d="M -100.0 4.0 L -100.0 4.0 L 96.0 4.0 L 96.0 4.0 L -100.0 4.0 Z " stroke="#191919" stroke-width="0.35 px" style="stroke-width:0.35;stroke-miterlimit:4;stroke-dasharray:none;fill:#000000;fill-rule: evenodd "/>
<path id="LinearPattern_f0044"  d="M -100.0 8.0 L -100.0 4.0 L -100.0 4.0 L -100.0 8.0 L -100.0 8.0 Z " stroke="#191919" stroke-width="0.35 px" style="stroke-width:0.35;stroke-miterlimit:4;stroke-dasharray:none;fill:#000000;fill-rule: evenodd "/>
<path id="LinearPattern_f0045"  d="M 96.0 8.0 L 96.0 8.0 L -100.0 8.0 L -100.0 8.0 L 96.0 8.0 Z " stroke="#191919" stroke-width="0.35 px" style="stroke-width:0.35;stroke-miterlimit:4;stroke-dasharray:none;fill:#000000;fill-rule: evenodd "/>
<path id="LinearPattern_f0046"  d="M 96.0 20.0 L 96.0 20.0 L 96.0 8.0 L 96.0 8.0 L 96.0 20.0 Z " stroke="#191919" stroke-width="0.35 px" style="stroke-width:0.35;stroke-miterlimit:4;stroke-dasharray:none;fill:#000000;fill-rule: evenodd "/>
<path id="LinearPattern_f0047"  d="M -100.0 20.0 L -100.0 20.0 L 96.0 20.0 L 96.0 20.0 L -100.0 20.0 Z " stroke="#191919" stroke-width="0.35 px" style="stroke-width:0.35;stroke-miterlimit:4;stroke-dasharray:none;fill:#000000;fill-rule: evenodd "/>
<path id="LinearPattern_f0048"  d="M -100.0 24.0 L -100.0 20.0 L -100.0 20.0 L -100.0 24.0 L -100.0 24.0 Z " stroke="#191919" stroke-width="0.35 px" style="stroke-width:0.35;stroke-miterlimit:4;stroke-dasharray:none;fill:#000000;fill-rule: evenodd "/>
<path id="LinearPattern_f0049"  d="M 96.0 24.0 L 96.0 24.0 L -100.0 24.0 L -100.0 24.0 L 96.0 24.0 Z " stroke="#191919" stroke-width="0.35 px" style="stroke-width:0.35;stroke-miterlimit:4;stroke-dasharray:none;fill:#000000;fill-rule: evenodd "/>
<path id="LinearPattern_f0050"  d="M 96.0 36.0 L 96.0 36.0 L 96.0 24.0 L 96.0 24.0 L 96.0 36.0 Z " stroke="#191919" stroke-width="0.35 px" style="stroke-width:0.35;stroke-miterlimit:4;stroke-dasharray:none;fill:#000000;fill-rule: evenodd "/>
<path id="LinearPattern_f0051"  d="M -100.0 36.0 L -100.0 36.0 L 96.0 36.0 L 96.0 36.0 L -100.0 36.0 Z " stroke="#191919" stroke-width="0.35 px" style="stroke-width:0.35;stroke-miterlimit:4;stroke-dasharray:none;fill:#000000;fill-rule: evenodd "/>
<path id="LinearPattern_f0052"  d="M -100.0 40.0 L -100.0 36.0 L -100.0 36.0 L -100.0 40.0 L -100.0 40.0 Z " stroke="#191919" stroke-width="0.35 px" style="stroke-width:0.35;stroke-miterlimit:4;stroke-dasharray:none;fill:#000000;fill-rule: evenodd "/>
<path id="LinearPattern_f0053"  d="M 96.0 40.0 L 96.0 40.0 L -100.0 40.0 L -100.0 40.0 L 96.0 40.0 Z " stroke="#191919" stroke-width="0.35 px" style="stroke-width:0.35;stroke-miterlimit:4;stroke-dasharray:none;fill:#000000;fill-rule: evenodd "/>
<path id="LinearPattern_f0054"  d="M 96.0 52.0 L 96.0 52.0 L 96.0 40.0 L 96.0 40.0 L 96.0 52.0 Z " stroke="#191919" stroke-width="0.35 px" style="stroke-width:0.35;stroke-miterlimit:4;stroke-dasharray:none;fill:#000000;fill-rule: evenodd "/>
<path id="LinearPattern_f0055"  d="M -100.0 52.0 L -100.0 52.0 L 96.0 52.0 L 96.0 52.0 L -100.0 52.0 Z " stroke="#191919" stroke-width="0.35 px" style="stroke-width:0.35;stroke-miterlimit:4;stroke-dasharray:none;fill:#000000;fill-rule: evenodd "/>
<path id="LinearPattern_f0056"  d="M -100.0 56.0 L -100.0 52.0 L -100.0 52.0 L -100.0 56.0 L -100.0 56.0 Z " stroke="#191919" stroke-width="0.35 px" style="stroke-width:0.35;stroke-miterlimit:4;stroke-dasharray:none;fill:#000000;fill-rule: evenodd "/>
<path id="LinearPattern_f0057"  d="M 96.0 56.0 L 96.0 56.0 L -100.0 56.0 L -100.0 56.0 L 96.0 56.0 Z " stroke="#191919" stroke-width="0.35 px" style="stroke-width:0.35;stroke-miterlimit:4;stroke-dasharray:none;fill:#000000;fill-rule: evenodd "/>
<path id="LinearPattern_f0058"  d="M 96.0 68.0 L 96.0 68.0 L 96.0 56.0 L 96.0 56.0 L 96.0 68.0 Z " stroke="#191919" stroke-width="0.35 px" style="stroke-width:0.35;stroke-miterlimit:4;stroke-dasharray:none;fill:#000000;fill-rule: evenodd "/>
<path id="LinearPattern_f0059"  d="M -100.0 68.0 L -100.0 68.0 L 96.0 68.0 L 96.0 68.0 L -100.0 68.0 Z " stroke="#191919" stroke-width="0.35 px" style="stroke-width:0.35;stroke-miterlimit:4;stroke-dasharray:none;fill:#000000;fill-rule: evenodd "/>
<path id="LinearPattern_f0060"  d="M -100.0 72.0 L -100.0 68.0 L -100.0 68.0 L -100.0 72.0 L -100.0 72.0 Z " stroke="#191919" stroke-width="0.35 px" style="stroke-width:0.35;stroke-miterlimit:4;stroke-dasharray:none;fill:#000000;fill-rule: evenodd "/>
<path id="LinearPattern_f0061"  d="M 96.0 72.0 L 96.0 72.0 L -100.0 72.0 L -100.0 72.0 L 96.0 72.0 Z " stroke="#191919" stroke-width="0.35 px" style="stroke-width:0.35;stroke-miterlimit:4;stroke-dasharray:none;fill:#000000;fill-rule: evenodd "/>
<path id="LinearPattern_f0062"  d="M 96.0 84.0 L 96.0 84.0 L 96.0 72.0 L 96.0 72.0 L 96.0 84.0 Z " stroke="#191919" stroke-width="0.35 px" style="stroke-width:0.35;stroke-miterlimit:4;stroke-dasharray:none;fill:#000000;fill-rule: evenodd "/>
<path id="LinearPattern_f0063"  d="M -100.0 84.0 L -100.0 84.0 L 96.0 84.0 L 96.0 84.0 L -100.0 84.0 Z " stroke="#191919" stroke-width="0.35 px" style="stroke-width:0.35;stroke-miterlimit:4;stroke-dasharray:none;fill:#000000;fill-rule: evenodd "/>
<path id="LinearPattern_f0064"  d="M -100.0 88.0 L -100.0 84.0 L -100.0 84.0 L -100.0 88.0 L -100.0 88.0 Z " stroke="#191919" stroke-width="0.35 px" style="stroke-width:0.35;stroke-miterlimit:4;stroke-dasharray:none;fill:#000000;fill-rule: evenodd "/>
<path id="LinearPattern_f0065"  d="M 96.0 88.0 L 96.0 88.0 L -100.0 88.0 L -100.0 88.0 L 96.0 88.0 Z " stroke="#191919" stroke-width="0.35 px" style="stroke-width:0.35;stroke-miterlimit:4;stroke-dasharray:none;fill:#000000;fill-rule: evenodd "/>
<path id="LinearPattern_f0066"  d="M 96.0 100.0 L 96.0 100.0 L 96.0 88.0 L 96.0 88.0 L 96.0 100.0 Z " stroke="#191919" stroke-width="0.35 px" style="stroke-width:0.35;stroke-miterlimit:4;stroke-dasharray:none;fill:#000000;fill-rule: evenodd "/>
<path id="LinearPattern_f0067"  d="M -100.0 100.0 L -100.0 100.0 L 96.0 100.0 L 96.0 100.0 L -100.0 100.0 Z " stroke="#191919" stroke-width="0.35 px" style="stroke-width:0.35;stroke-miterlimit:4;stroke-dasharray:none;fill:#000000;fill-rule: evenodd "/>
<path id="LinearPattern_f0068"  d="M -100.0 104.0 L -100.0 100.0 L -100.0 100.0 L -100.0 104.0 L -100.0 104.0 Z " stroke="#191919" stroke-width="0.35 px" style="stroke-width:0.35;stroke-miterlimit:4;stroke-dasharray:none;fill:#000000;fill-rule: evenodd "/>
<path id="LinearPattern_f0069"  d="M 96.0 104.0 L 96.0 104.0 L -100.0 104.0 L -100.0 104.0 L 96.0 104.0 Z " stroke="#191919" stroke-width="0.35 px" style="stroke-width:0.35;stroke-miterlimit:4;stroke-dasharray:none;fill:#000000;fill-rule: evenodd "/>
<path id="LinearPattern_f0070"  d="M 96.0 116.0 L 96.0 116.0 L 96.0 104.0 L 96.0 104.0 L 96.0 116.0 Z " stroke="#191919" stroke-width="0.35 px" style="stroke-width:0.35;stroke-miterlimit:4;stroke-dasharray:none;fill:#000000;fill-rule: evenodd "/>
<title>LinearPattern</title>
</g>
</svg>