<?xml version="1.0"?>
<!DOCTYPE svg PUBLIC "-//W3C//DTD SVG 1.1//EN" "http://www.w3.org/Graphics/SVG/1.1/DTD/svg11.dtd">
<svg width="161.160000061mm" height="353.160000001mm" viewBox="0 0 161.160000061 353.160000001" xmlns="http://www.w3.org/2000/svg" version="1.1">
<g id="Part__Mirroring" transform="translate(84.580000,97.580000) scale(1,-1)">
<path id="Part__Mirroring_f0000"  d="M -83.0000000596 88.0 L 66.9999999404 88.0 L 67.0000001788 88.0 L -82.9999998212 88.0 L -83.0000000596 88.0 Z " stroke="#191919" stroke-width="0.35 px" style="stroke-width:0.35;stroke-miterlimit:4;stroke-dasharray:none;fill:#000000;fill-rule: evenodd "/>
<path id="Part__Mirroring_f0001"  d="M 67.0000001788 84.0 L 66.9999999404 84.0 L 66.9999999404 88.0 L 67.0000001788 88.0 L 67.0000001788 84.0 Z " stroke="#191919" stroke-width="0.35 px" style="stroke-width:0.35;stroke-miterlimit:4;stroke-dasharray:none;fill:#000000;fill-rule: evenodd "/>
<path id="Part__Mirroring_f0002"  d="M -83.0000000596 -104.0 L -83.0000000596 88.0 L -82.9999998212 88.0 L -82.9999998212 -104.0 L -83.0000000596 -104.0 Z " stroke="#191919" stroke-width="0.35 px" style="stroke-width:0.35;stroke-miterlimit:4;stroke-dasharray:none;fill:#000000;fill-rule: evenodd "/>
<path id="Part__Mirroring_f0003"  d="M -83.0000000596 -104.0 L -83.0000000596 -108.0 L -22.0000000596 -108.0 L -22.0000000596 -224.0 L -43.0000000596 -224.0 L -43.0000000596 -254.0 L -18.0000000596 -254.0 L -18.0000000596 -104.0 L -79.0000000596 -104.0 L -79.0000000596 -92.0 L 66.9999999404 -92.0 L 66.9999999404 -88.0 L -79.0000000596 -88.0 L -79.0000000596 -76.0 L 66.9999999404 -76.0 L 66.9999999404 -72.0 L -79.0000000596 -72.0 L -79.0000000596 -60.0 L 66.9999999404 -60.0 L 66.9999999404 -56.0 L -79.0000000596 -56.0 L -79.0000000596 -44.0 L 66.9999999404 -44.0 L 66.9999999404 -40.0 L -79.0000000596 -40.0 L -79.0000000596 -28.0 L 66.9999999404 -28.0 L 66.9999999404 -24.0 L -79.0000000596 -24.0 L -79.0000000596 -12.0 L 66.9999999404 -12.0 L 66.9999999404 -8.0 L -79.0000000596 -8.0 L -79.0000000596 4.0 L 66.9999999404 4.0 L 66.9999999404 8.0 L -79.0000000596 8.0 L -79.0000000596 20.0 L 66.9999999404 20.0 L 66.9999999404 24.0 L -79.0000000596 24.0 L -79.0000000596 36.0 L 66.9999999404 36.0 L 66.9999999404 40.0 L -79.0000000596 40.0 L -79.0000000596 52.0 L 66.9999999404 52.0 L 66.9999999404 56.0 L -79.0000000596 56.0 L -79.0000000596 68.0 L 66.9999999404 68.0 L 66.9999999404 72.0 L -79.0000000596 72.0 L -79.0000000596 84.0 L 66.9999999404 84.0 L 66.9999999404 88.0 L -83.0000000596 88.0 L -83.0000000596 -104.0 Z " stroke="#191919" stroke-width="0.35 px" style="stroke-width:0.35;stroke-miterlimit:4;stroke-dasharray:none;fill:#000000;fill-rule: evenodd "/>
<path id="Part__Mirroring_f0004"  d="M 67.0000001788 84.0 L 67.0000001788 88.0 L -82.9999998212 88.0 L -82.9999998212 -104.0 L -82.9999998212 -108.0 L -21.9999998212 -108.0 L -21.9999998212 -224.0 L -42.9999998212 -224.0 L -42.9999998212 -254.0 L -17.9999998212 -254.0 L -17.9999998212 -104.0 L -78.9999998212 -104.0 L -78.9999998212 -92.0 L 67.0000001788 -92.0 L 67.0000001788 -88.0 L -78.9999998212 -88.0 L -78.9999998212 -76.0 L 67.0000001788 -76.0 L 67.0000001788 -72.0 L -78.9999998212 -72.0 L -78.9999998212 -60.0 L 67.0000001788 -60.0 L 67.0000001788 -56.0 L -78.9999998212 -56.0 L -78.9999998212 -44.0 L 67.0000001788 -44.0 L 67.0000001788 -40.0 L -78.9999998212 -40.0 L -78.9999998212 -28.0 L 67.0000001788 -28.0 L 67.0000001788 -24.0 L -78.9999998212 -24.0 L -78.9999998212 -12.0 L 67.0000001788 -12.0 L 67.0000001788 -8.0 L -78.9999998212 -8.0 L -78.9999998212 4.0 L 67.0000001788 4.0 L 67.0000001788 8.0 L -78.9999998212 8.0 L -78.9999998212 20.0 L 67.0000001788 20.0 L 67.0000001788 24.0 L -78.9999998212 24.0 L -78.9999998212 36.0 L 67.0000001788 36.0 L 67.0000001788 40.0 L -78.9999998212 40.0 L -78.9999998212 52.0 L 67.0000001788 52.0 L 67.0000001788 56.0 L -78.9999998212 56.0 L -78.9999998212 68.0 L 67.0000001788 68.0 L 67.0000001788 72.0 L -78.9999998212 72.0 L -78.9999998212 84.0 L 67.0000001788 84.0 Z " stroke="#191919" stroke-width="0.35 px" style="stroke-width:0.35;stroke-miterlimit:4;stroke-dasharray:none;fill:#000000;fill-rule: evenodd "/>
<path id="Part__Mirroring_f0005"  d="M -78.9999998212 84.0 L -79.0000000596 84.0 L 66.9999999404 84.0 L 67.0000001788 84.0 L -78.9999998212 84.0 Z " stroke="#191919" stroke-width="0.35 px" style="stroke-width:0.35;stroke-miterlimit:4;stroke-dasharray:none;fill:#000000;fill-rule: evenodd "/>
<path id="Part__Mirroring_f0006"  d="M -83.0000000596 -108.0 L -83.0000000596 -104.0 L -82.9999998212 -104.0 L -82.9999998212 -108.0 L -83.0000000596 -108.0 Z " stroke="#191919" stroke-width="0.35 px" style="stroke-width:0.35;stroke-miterlimit:4;stroke-dasharray:none;fill:#000000;fill-rule: evenodd "/>
<path id="Part__Mirroring_f0007"  d="M -22.0000000596 -108.0 L -83.0000000596 -108.0 L -82.9999998212 -108.0 L -21.9999998212 -108.0 L -22.0000000596 -108.0 Z " stroke="#191919" stroke-width="0.35 px" style="stroke-width:0.35;stroke-miterlimit:4;stroke-dasharray:none;fill:#000000;fill-rule: evenodd "/>
<path id="Part__Mirroring_f0008"  d="M -22.0000000596 -224.0 L -22.0000000596 -108.0 L -21.9999998212 -108.0 L -21.9999998212 -224.0 L -22.0000000596 -224.0 Z " stroke="#191919" stroke-width="0.35 px" style="stroke-width:0.35;stroke-miterlimit:4;stroke-dasharray:none;fill:#000000;fill-rule: evenodd "/>
<path id="Part__Mirroring_f0009"  d="M -43.0000000596 -224.0 L -22.0000000596 -224.0 L -21.9999998212 -224.0 L -42.9999998212 -224.0 L -43.0000000596 -224.0 Z " stroke="#191919" stroke-width="0.35 px" style="stroke-width:0.35;stroke-miterlimit:4;stroke-dasharray:none;fill:#000000;fill-rule: evenodd "/>
<path id="Part__Mirroring_f0010"  d="M -43.0000000596 -254.0 L -43.0000000596 -224.0 L -42.9999998212 -224.0 L -42.9999998212 -254.0 L -43.0000000596 -254.0 Z " stroke="#191919" stroke-width="0.35 px" style="stroke-width:0.35;stroke-miterlimit:4;stroke-dasharray:none;fill:#000000;fill-rule: evenodd "/>
<path id="Part__Mirroring_f0011"  d="M -18.0000000596 -254.0 L -43.0000000596 -254.0 L -42.9999998212 -254.0 L -17.9999998212 -254.0 L -18.0000000596 -254.0 Z " stroke="#191919" stroke-width="0.35 px" style="stroke-width:0.35;stroke-miterlimit:4;stroke-dasharray:none;fill:#000000;fill-rule: evenodd "/>
<path id="Part__Mirroring_f0012"  d="M -18.0000000596 -104.0 L -17.9999998212 -104.0 L -17.9999998212 -254.0 L -18.0000000596 -254.0 L -18.0000000596 -104.0 Z " stroke="#191919" stroke-width="0.35 px" style="stroke-width:0.35;stroke-miterlimit:4;stroke-dasharray:none;fill:#000000;fill-rule: evenodd "/>
<path id="Part__Mirroring_f0013"  d="M -18.0000000596 -104.0 L -17.9999998212 -104.0 L -78.9999998212 -104.0 L -79.0000000596 -104.0 L -18.0000000596 -104.0 Z " stroke="#191919" stroke-width="0.35 px" style="stroke-width:0.35;stroke-miterlimit:4;stroke-dasharray:none;fill:#000000;fill-rule: evenodd "/>
<path id="Part__Mirroring_f0014"  d="M -78.9999998212 -104.0 L -79.0000000596 -104.0 L -79.0000000596 -92.0 L -78.9999998212 -92.0 L -78.9999998212 -104.0 Z " stroke="#191919" stroke-width="0.35 px" style="stroke-width:0.35;stroke-miterlimit:4;stroke-dasharray:none;fill:#000000;fill-rule: evenodd "/>
<path id="Part__Mirroring_f0015"  d="M -78.9999998212 -92.0 L -79.0000000596 -92.0 L 66.9999999404 -92.0 L 67.0000001788 -92.0 L -78.9999998212 -92.0 Z " stroke="#191919" stroke-width="0.35 px" style="stroke-width:0.35;stroke-miterlimit:4;stroke-dasharray:none;fill:#000000;fill-rule: evenodd "/>
<path id="Part__Mirroring_f0016"  d="M 67.0000001788 -92.0 L 66.9999999404 -92.0 L 66.9999999404 -88.0 L 67.0000001788 -88.0 L 67.0000001788 -92.0 Z " stroke="#191919" stroke-width="0.35 px" style="stroke-width:0.35;stroke-miterlimit:4;stroke-dasharray:none;fill:#000000;fill-rule: evenodd "/>
<path id="Part__Mirroring_f0017"  d="M 67.0000001788 -88.0 L 66.9999999404 -88.0 L -79.0000000596 -88.0 L -78.9999998212 -88.0 L 67.0000001788 -88.0 Z " stroke="#191919" stroke-width="0.35 px" style="stroke-width:0.35;stroke-miterlimit:4;stroke-dasharray:none;fill:#000000;fill-rule: evenodd "/>
<path id="Part__Mirroring_f0018"  d="M -78.9999998212 -88.0 L -79.0000000596 -88.0 L -79.0000000596 -76.0 L -78.9999998212 -76.0 L -78.9999998212 -88.0 Z " stroke="#191919" stroke-width="0.35 px" style="stroke-width:0.35;stroke-miterlimit:4;stroke-dasharray:none;fill:#000000;fill-rule: evenodd "/>
<path id="Part__Mirroring_f0019"  d="M -78.9999998212 -76.0 L -79.0000000596 -76.0 L 66.9999999404 -76.0 L 67.0000001788 -76.0 L -78.9999998212 -76.0 Z " stroke="#191919" stroke-width="0.35 px" style="stroke-width:0.35;stroke-miterlimit:4;stroke-dasharray:none;fill:#000000;fill-rule: evenodd "/>
<path id="Part__Mirroring_f0020"  d="M 67.0000001788 -76.0 L 66.9999999404 -76.0 L 66.9999999404 -72.0 L 67.0000001788 -72.0 L 67.0000001788 -76.0 Z " stroke="#191919" stroke-width="0.35 px" style="stroke-width:0.35;stroke-miterlimit:4;stroke-dasharray:none;fill:#000000;fill-rule: evenodd "/>
<path id="Part__Mirroring_f0021"  d="M 67.0000001788 -72.0 L 66.9999999404 -72.0 L -79.0000000596 -72.0 L -78.9999998212 -72.0 L 67.0000001788 -72.0 Z " stroke="#191919" stroke-width="0.35 px" style="stroke-width:0.35;stroke-miterlimit:4;stroke-dasharray:none;fill:#000000;fill-rule: evenodd "/>
<path id="Part__Mirroring_f0022"  d="M -78.9999998212 -72.0 L -79.0000000596 -72.0 L -79.0000000596 -60.0 L -78.9999998212 -60.0 L -78.9999998212 -72.0 Z " stroke="#191919" stroke-width="0.35 px" style="stroke-width:0.35;stroke-miterlimit:4;stroke-dasharray:none;fill:#000000;fill-rule: evenodd "/>
<path id="Part__Mirroring_f0023"  d="M -78.9999998212 -60.0 L -79.0000000596 -60.0 L 66.9999999404 -60.0 L 67.0000001788 -60.0 L -78.9999998212 -60.0 Z " stroke="#191919" stroke-width="0.35 px" style="stroke-width:0.35;stroke-miterlimit:4;stroke-dasharray:none;fill:#000000;fill-rule: evenodd "/>
<path id="Part__Mirroring_f0024"  d="M 67.0000001788 -60.0 L 66.9999999404 -60.0 L 66.9999999404 -56.0 L 67.0000001788 -56.0 L 67.0000001788 -60.0 Z " stroke="#191919" stroke-width="0.35 px" style="stroke-width:0.35;stroke-miterlimit:4;stroke-dasharray:none;fill:#000000;fill-rule: evenodd "/>
<path id="Part__Mirroring_f0025"  d="M 67.0000001788 -56.0 L 66.9999999404 -56.0 L -79.0000000596 -56.0 L -78.9999998212 -56.0 L 67.0000001788 -56.0 Z " stroke="#191919" stroke-width="0.35 px" style="stroke-width:0.35;stroke-miterlimit:4;stroke-dasharray:none;fill:#000000;fill-rule: evenodd "/>
<path id="Part__Mirroring_f0026"  d="M -78.9999998212 -56.0 L -79.0000000596 -56.0 L -79.0000000596 -44.0 L -78.9999998212 -44.0 L -78.9999998212 -56.0 Z " stroke="#191919" stroke-width="0.35 px" style="stroke-width:0.35;stroke-miterlimit:4;stroke-dasharray:none;fill:#000000;fill-rule: evenodd "/>
<path id="Part__Mirroring_f0027"  d="M -78.9999998212 -44.0 L -79.0000000596 -44.0 L 66.9999999404 -44.0 L 67.0000001788 -44.0 L -78.9999998212 -44.0 Z " stroke="#191919" stroke-width="0.35 px" style="stroke-width:0.35;stroke-miterlimit:4;stroke-dasharray:none;fill:#000000;fill-rule: evenodd "/>
<path id="Part__Mirroring_f0028"  d="M 67.0000001788 -44.0 L 66.9999999404 -44.0 L 66.9999999404 -40.0 L 67.0000001788 -40.0 L 67.0000001788 -44.0 Z " stroke="#191919" stroke-width="0.35 px" style="stroke-width:0.35;stroke-miterlimit:4;stroke-dasharray:none;fill:#000000;fill-rule: evenodd "/>
<path id="Part__Mirroring_f0029"  d="M 67.0000001788 -40.0 L 66.9999999404 -40.0 L -79.0000000596 -40.0 L -78.9999998212 -40.0 L 67.0000001788 -40.0 Z " stroke="#191919" stroke-width="0.35 px" style="stroke-width:0.35;stroke-miterlimit:4;stroke-dasharray:none;fill:#000000;fill-rule: evenodd "/>
<path id="Part__Mirroring_f0030"  d="M -78.9999998212 -40.0 L -79.0000000596 -40.0 L -79.0000000596 -28.0 L -78.9999998212 -28.0 L -78.9999998212 -40.0 Z " stroke="#191919" stroke-width="0.35 px" style="stroke-width:0.35;stroke-miterlimit:4;stroke-dasharray:none;fill:#000000;fill-rule: evenodd "/>
<path id="Part__Mirroring_f0031"  d="M -78.9999998212 -28.0 L -79.0000000596 -28.0 L 66.9999999404 -28.0 L 67.0000001788 -28.0 L -78.9999998212 -28.0 Z " stroke="#191919" stroke-width="0.35 px" style="stroke-width:0.35;stroke-miterlimit:4;stroke-dasharray:none;fill:#000000;fill-rule: evenodd "/>
<path id="Part__Mirroring_f0032"  d="M 67.0000001788 -28.0 L 66.9999999404 -28.0 L 66.9999999404 -24.0 L 67.0000001788 -24.0 L 67.0000001788 -28.0 Z " stroke="#191919" stroke-width="0.35 px" style="stroke-width:0.35;stroke-miterlimit:4;stroke-dasharray:none;fill:#000000;fill-rule: evenodd "/>
<path id="Part__Mirroring_f0033"  d="M 67.0000001788 -24.0 L 66.9999999404 -24.0 L -79.0000000596 -24.0 L -78.9999998212 -24.0 L 67.0000001788 -24.0 Z " stroke="#191919" stroke-width="0.35 px" style="stroke-width:0.35;stroke-miterlimit:4;stroke-dasharray:none;fill:#000000;fill-rule: evenodd "/>
<path id="Part__Mirroring_f0034"  d="M -78.9999998212 -24.0 L -79.0000000596 -24.0 L -79.0000000596 -12.0 L -78.9999998212 -12.0 L -78.9999998212 -24.0 Z " stroke="#191919" stroke-width="0.35 px" style="stroke-width:0.35;stroke-miterlimit:4;stroke-dasharray:none;fill:#000000;fill-rule: evenodd "/>
<path id="Part__Mirroring_f0035"  d="M -78.9999998212 -12.0 L -79.0000000596 -12.0 L 66.9999999404 -12.0 L 67.0000001788 -12.0 L -78.9999998212 -12.0 Z " stroke="#191919" stroke-width="0.35 px" style="stroke-width:0.35;stroke-miterlimit:4;stroke-dasharray:none;fill:#000000;fill-rule: evenodd "/>
<path id="Part__Mirroring_f0036"  d="M 67.0000001788 -12.0 L 66.9999999404 -12.0 L 66.9999999404 -8.0 L 67.0000001788 -8.0 L 67.0000001788 -12.0 Z " stroke="#191919" stroke-width="0.35 px" style="stroke-width:0.35;stroke-miterlimit:4;stroke-dasharray:none;fill:#000000;fill-rule: evenodd "/>
<path id="Part__Mirroring_f0037"  d="M 67.0000001788 -8.0 L 66.9999999404 -8.0 L -79.0000000596 -8.0 L -78.9999998212 -8.0 L 67.0000001788 -8.0 Z " stroke="#191919" stroke-width="0.35 px" style="stroke-width:0.35;stroke-miterlimit:4;stroke-dasharray:none;fill:#000000;fill-rule: evenodd "/>
<path id="Part__Mirroring_f0038"  d="M -78.9999998212 -8.0 L -79.0000000596 -8.0 L -79.0000000596 4.0 L -78.9999998212 4.0 L -78.9999998212 -8.0 Z " stroke="#191919" stroke-width="0.35 px" style="stroke-width:0.35;stroke-miterlimit:4;stroke-dasharray:none;fill:#000000;fill-rule: evenodd "/>
<path id="Part__Mirroring_f0039"  d="M -78.9999998212 4.0 L -79.0000000596 4.0 L 66.9999999404 4.0 L 67.0000001788 4.0 L -78.9999998212 4.0 Z " stroke="#191919" stroke-width="0.35 px" style="stroke-width:0.35;stroke-miterlimit:4;stroke-dasharray:none;fill:#000000;fill-rule: evenodd "/>
<path id="Part__Mirroring_f0040"  d="M 67.0000001788 4.0 L 66.9999999404 4.0 L 66.9999999404 8.0 L 67.0000001788 8.0 L 67.0000001788 4.0 Z " stroke="#191919" stroke-width="0.35 px" style="stroke-width:0.35;stroke-miterlimit:4;stroke-dasharray:none;fill:#000000;fill-rule: evenodd "/>
<path id="Part__Mirroring_f0041"  d="M 67.0000001788 8.0 L 66.9999999404 8.0 L -79.0000000596 8.0 L -78.9999998212 8.0 L 67.0000001788 8.0 Z " stroke="#191919" stroke-width="0.35 px" style="stroke-width:0.35;stroke-miterlimit:4;stroke-dasharray:none;fill:#000000;fill-rule: evenodd "/>
<path id="Part__Mirroring_f0042"  d="M -78.9999998212 8.0 L -79.0000000596 8.0 L -79.0000000596 20.0 L -78.9999998212 20.0 L -78.9999998212 8.0 Z " stroke="#191919" stroke-width="0.35 px" style="stroke-width:0.35;stroke-miterlimit:4;stroke-dasharray:none;fill:#000000;fill-rule: evenodd "/>
<path id="Part__Mirroring_f0043"  d="M -78.9999998212 20.0 L -79.0000000596 20.0 L 66.9999999404 20.0 L 67.0000001788 20.0 L -78.9999998212 20.0 Z " stroke="#191919" stroke-width="0.35 px" style="stroke-width:0.35;stroke-miterlimit:4;stroke-dasharray:none;fill:#000000;fill-rule: evenodd "/>
<path id="Part__Mirroring_f0044"  d="M 67.0000001788 20.0 L 66.9999999404 20.0 L 66.9999999404 24.0 L 67.0000001788 24.0 L 67.0000001788 20.0 Z " stroke="#191919" stroke-width="0.35 px" style="stroke-width:0.35;stroke-miterlimit:4;stroke-dasharray:none;fill:#000000;fill-rule: evenodd "/>
<path id="Part__Mirroring_f0045"  d="M 67.0000001788 24.0 L 66.9999999404 24.0 L -79.0000000596 24.0 L -78.9999998212 24.0 L 67.0000001788 24.0 Z " stroke="#191919" stroke-width="0.35 px" style="stroke-width:0.35;stroke-miterlimit:4;stroke-dasharray:none;fill:#000000;fill-rule: evenodd "/>
<path id="Part__Mirroring_f0046"  d="M -78.9999998212 24.0 L -79.0000000596 24.0 L -79.0000000596 36.0 L -78.9999998212 36.0 L -78.9999998212 24.0 Z " stroke="#191919" stroke-width="0.35 px" style="stroke-width:0.35;stroke-miterlimit:4;stroke-dasharray:none;fill:#000000;fill-rule: evenodd "/>
<path id="Part__Mirroring_f0047"  d="M -78.9999998212 36.0 L -79.0000000596 36.0 L 66.9999999404 36.0 L 67.0000001788 36.0 L -78.9999998212 36.0 Z " stroke="#191919" stroke-width="0.35 px" style="stroke-width:0.35;stroke-miterlimit:4;stroke-dasharray:none;fill:#000000;fill-rule: evenodd "/>
<path id="Part__Mirroring_f0048"  d="M 67.0000001788 36.0 L 66.9999999404 36.0 L 66.9999999404 40.0 L 67.0000001788 40.0 L 67.0000001788 36.0 Z " stroke="#191919" stroke-width="0.35 px" style="stroke-width:0.35;stroke-miterlimit:4;stroke-dasharray:none;fill:#000000;fill-rule: evenodd "/>
<path id="Part__Mirroring_f0049"  d="M 67.0000001788 40.0 L 66.9999999404 40.0 L -79.0000000596 40.0 L -78.9999998212 40.0 L 67.0000001788 40.0 Z " stroke="#191919" stroke-width="0.35 px" style="stroke-width:0.35;stroke-miterlimit:4;stroke-dasharray:none;fill:#000000;fill-rule: evenodd "/>
<path id="Part__Mirroring_f0050"  d="M -78.9999998212 40.0 L -79.0000000596 40.0 L -79.0000000596 52.0 L -78.9999998212 52.0 L -78.9999998212 40.0 Z " stroke="#191919" stroke-width="0.35 px" style="stroke-width:0.35;stroke-miterlimit:4;stroke-dasharray:none;fill:#000000;fill-rule: evenodd "/>
<path id="Part__Mirroring_f0051"  d="M -78.9999998212 52.0 L -79.0000000596 52.0 L 66.9999999404 52.0 L 67.0000001788 52.0 L -78.9999998212 52.0 Z " stroke="#191919" stroke-width="0.35 px" style="stroke-width:0.35;stroke-miterlimit:4;stroke-dasharray:none;fill:#000000;fill-rule: evenodd "/>
<path id="Part__Mirroring_f0052"  d="M 67.0000001788 52.0 L 66.9999999404 52.0 L 66.9999999404 56.0 L 67.0000001788 56.0 L 67.0000001788 52.0 Z " stroke="#191919" stroke-width="0.35 px" style="stroke-width:0.35;stroke-miterlimit:4;stroke-dasharray:none;fill:#000000;fill-rule: evenodd "/>
<path id="Part__Mirroring_f0053"  d="M 67.0000001788 56.0 L 66.9999999404 56.0 L -79.0000000596 56.0 L -78.9999998212 56.0 L 67.0000001788 56.0 Z " stroke="#191919" stroke-width="0.35 px" style="stroke-width:0.35;stroke-miterlimit:4;stroke-dasharray:none;fill:#000000;fill-rule: evenodd "/>
<path id="Part__Mirroring_f0054"  d="M -78.9999998212 56.0 L -79.0000000596 56.0 L -79.0000000596 68.0 L -78.9999998212 68.0 L -78.9999998212 56.0 Z " stroke="#191919" stroke-width="0.35 px" style="stroke-width:0.35;stroke-miterlimit:4;stroke-dasharray:none;fill:#000000;fill-rule: evenodd "/>
<path id="Part__Mirroring_f0055"  d="M -78.9999998212 68.0 L -79.0000000596 68.0 L 66.9999999404 68.0 L 67.0000001788 68.0 L -78.9999998212 68.0 Z " stroke="#191919" stroke-width="0.35 px" style="stroke-width:0.35;stroke-miterlimit:4;stroke-dasharray:none;fill:#000000;fill-rule: evenodd "/>
<path id="Part__Mirroring_f0056"  d="M 67.0000001788 68.0 L 66.9999999404 68.0 L 66.9999999404 72.0 L 67.0000001788 72.0 L 67.0000001788 68.0 Z " stroke="#191919" stroke-width="0.35 px" style="stroke-width:0.35;stroke-miterlimit:4;stroke-dasharray:none;fill:#000000;fill-rule: evenodd "/>
<path id="Part__Mirroring_f0057"  d="M 67.0000001788 72.0 L 66.9999999404 72.0 L -79.0000000596 72.0 L -78.9999998212 72.0 L 67.0000001788 72.0 Z " stroke="#191919" stroke-width="0.35 px" style="stroke-width:0.35;stroke-miterlimit:4;stroke-dasharray:none;fill:#000000;fill-rule: evenodd "/>
<path id="Part__Mirroring_f0058"  d="M -78.9999998212 72.0 L -79.0000000596 72.0 L -79.0000000596 84.0 L -78.9999998212 84.0 L -78.9999998212 72.0 Z " stroke="#191919" stroke-width="0.35 px" style="stroke-width:0.35;stroke-miterlimit:4;stroke-dasharray:none;fill:#000000;fill-rule: evenodd "/>
<title>LinearPattern (Mirror #1)</title>
</g>
<g id="LinearPattern" transform="translate(84.580000,97.580000) scale(1,-1)">
<path id="LinearPattern_f0000"  d="M -75.0 96.0 L -75.0 96.0 L 75.0 96.0 L 75.0 96.0 L -75.0 96.0 Z " stroke="#191919" stroke-width="0.35 px" style="stroke-width:0.35;stroke-miterlimit:4;stroke-dasharray:none;fill:#000000;fill-rule: evenodd "/>
<path id="LinearPattern_f0001"  d="M -75.0 96.0 L -75.0 92.0 L -75.0 92.0 L -75.0 96.0 L -75.0 96.0 Z " stroke="#191919" stroke-width="0.35 px" style="stroke-width:0.35;stroke-miterlimit:4;stroke-dasharray:none;fill:#000000;fill-rule: evenodd "/>
<path id="LinearPattern_f0002"  d="M 75.0 96.0 L 75.0 96.0 L 75.0 -96.0 L 75.0 -96.0 L 75.0 96.0 Z " stroke="#191919" stroke-width="0.35 px" style="stroke-width:0.35;stroke-miterlimit:4;stroke-dasharray:none;fill:#000000;fill-rule: evenodd "/>
<path id="LinearPattern_f0003"  d="M -75.0 92.0 L -75.0 96.0 L 75.0 96.0 L 75.0 -96.0 L 75.0 -100.0 L 14.0 -100.0 L 14.0 -216.0 L 35.0 -216.0 L 35.0 -246.0 L 10.0 -246.0 L 10.0 -96.0 L 71.0 -96.0 L 71.0 -84.0 L -75.0 -84.0 L -75.0 -80.0 L 71.0 -80.0 L 71.0 -68.0 L -75.0 -68.0 L -75.0 -64.0 L 71.0 -64.0 L 71.0 -52.0 L -75.0 -52.0 L -75.0 -48.0 L 71.0 -48.0 L 71.0 -36.0 L -75.0 -36.0 L -75.0 -32.0 L 71.0 -32.0 L 71.0 -20.0 L -75.0 -20.0 L -75.0 -16.0 L 71.0 -16.0 L 71.0 -4.0 L -75.0 -4.0 L -75.0 0.0 L 71.0 0.0 L 71.0 12.0 L -75.0 12.0 L -75.0 16.0 L 71.0 16.0 L 71.0 28.0 L -75.0 28.0 L -75.0 32.0 L 71.0 32.0 L 71.0 44.0 L -75.0 44.0 L -75.0 48.0 L 71.0 48.0 L 71.0 60.0 L -75.0 60.0 L -75.0 64.0 L 71.0 64.0 L 71.0 76.0 L -75.0 76.0 L -75.0 80.0 L 71.0 80.0 L 71.0 92.0 L -75.0 92.0 Z " stroke="#191919" stroke-width="0.35 px" style="stroke-width:0.35;stroke-miterlimit:4;stroke-dasharray:none;fill:#000000;fill-rule: evenodd "/>
<path id="LinearPattern_f0004"  d="M 75.0 -96.0 L 75.0 -100.0 L 14.0 -100.0 L 14.0 -216.0 L 35.0 -216.0 L 35.0 -246.0 L 10.0 -246.0 L 10.0 -96.0 L 71.0 -96.0 L 71.0 -84.0 L -75.0 -84.0 L -75.0 -80.0 L 71.0 -80.0 L 71.0 -68.0 L -75.0 -68.0 L -75.0 -64.0 L 71.0 -64.0 L 71.0 -52.0 L -75.0 -52.0 L -75.0 -48.0 L 71.0 -48.0 L 71.0 -36.0 L -75.0 -36.0 L -75.0 -32.0 L 71.0 -32.0 L 71.0 -20.0 L -75.0 -20.0 L -75.0 -16.0 L 71.0 -16.0 L 71.0 -4.0 L -75.0 -4.0 L -75.0 0.0 L 71.0 0.0 L 71.0 12.0 L -75.0 12.0 L -75.0 16.0 L 71.0 16.0 L 71.0 28.0 L -75.0 28.0 L -75.0 32.0 L 71.0 32.0 L 71.0 44.0 L -75.0 44.0 L -75.0 48.0 L 71.0 48.0 L 71.0 60.0 L -75.0 60.0 L -75.0 64.0 L 71.0 64.0 L 71.0 76.0 L -75.0 76.0 L -75.0 80.0 L 71.0 80.0 L 71.0 92.0 L -75.0 92.0 L -75.0 96.0 L 75.0 96.0 L 75.0 -96.0 Z " stroke="#191919" stroke-width="0.35 px" style="stroke-width:0.35;stroke-miterlimit:4;stroke-dasharray:none;fill:#000000;fill-rule: evenodd "/>
<path id="LinearPattern_f0005"  d="M -75.0 92.0 L -75.0 92.0 L 71.0 92.0 L 71.0 92.0 L -75.0 92.0 Z " stroke="#191919" stroke-width="0.35 px" style="stroke-width:0.35;stroke-miterlimit:4;stroke-dasharray:none;fill:#000000;fill-rule: evenodd "/>
<path id="LinearPattern_f0006"  d="M 75.0 -96.0 L 75.0 -96.0 L 75.0 -100.0 L 75.0 -100.0 L 75.0 -96.0 Z " stroke="#191919" stroke-width="0.35 px" style="stroke-width:0.35;stroke-miterlimit:4;stroke-dasharray:none;fill:#000000;fill-rule: evenodd "/>
<path id="LinearPattern_f0007"  d="M 75.0 -100.0 L 75.0 -100.0 L 14.0 -100.0 L 14.0 -100.0 L 75.0 -100.0 Z " stroke="#191919" stroke-width="0.35 px" style="stroke-width:0.35;stroke-miterlimit:4;stroke-dasharray:none;fill:#000000;fill-rule: evenodd "/>
<path id="LinearPattern_f0008"  d="M 14.0 -100.0 L 14.0 -100.0 L 14.0 -216.0 L 14.0 -216.0 L 14.0 -100.0 Z " stroke="#191919" stroke-width="0.35 px" style="stroke-width:0.35;stroke-miterlimit:4;stroke-dasharray:none;fill:#000000;fill-rule: evenodd "/>
<path id="LinearPattern_f0009"  d="M 14.0 -216.0 L 14.0 -216.0 L 35.0 -216.0 L 35.0 -216.0 L 14.0 -216.0 Z " stroke="#191919" stroke-width="0.35 px" style="stroke-width:0.35;stroke-miterlimit:4;stroke-dasharray:none;fill:#000000;fill-rule: evenodd "/>
<path id="LinearPattern_f0010"  d="M 35.0 -216.0 L 35.0 -216.0 L 35.0 -246.0 L 35.0 -246.0 L 35.0 -216.0 Z " stroke="#191919" stroke-width="0.35 px" style="stroke-width:0.35;stroke-miterlimit:4;stroke-dasharray:none;fill:#000000;fill-rule: evenodd "/>
<path id="LinearPattern_f0011"  d="M 35.0 -246.0 L 35.0 -246.0 L 10.0 -246.0 L 10.0 -246.0 L 35.0 -246.0 Z " stroke="#191919" stroke-width="0.35 px" style="stroke-width:0.35;stroke-miterlimit:4;stroke-dasharray:none;fill:#000000;fill-rule: evenodd "/>
<path id="LinearPattern_f0012"  d="M 10.0 -246.0 L 10.0 -246.0 L 10.0 -96.0 L 10.0 -96.0 L 10.0 -246.0 Z " stroke="#191919" stroke-width="0.35 px" style="stroke-width:0.35;stroke-miterlimit:4;stroke-dasharray:none;fill:#000000;fill-rule: evenodd "/>
<path id="LinearPattern_f0013"  d="M 10.0 -96.0 L 71.0 -96.0 L 71.0 -96.0 L 10.0 -96.0 L 10.0 -96.0 Z " stroke="#191919" stroke-width="0.35 px" style="stroke-width:0.35;stroke-miterlimit:4;stroke-dasharray:none;fill:#000000;fill-rule: evenodd "/>
<path id="LinearPattern_f0014"  d="M 71.0 -84.0 L 71.0 -84.0 L 71.0 -96.0 L 71.0 -96.0 L 71.0 -84.0 Z " stroke="#191919" stroke-width="0.35 px" style="stroke-width:0.35;stroke-miterlimit:4;stroke-dasharray:none;fill:#000000;fill-rule: evenodd "/>
<path id="LinearPattern_f0015"  d="M -75.0 -84.0 L -75.0 -84.0 L 71.0 -84.0 L 71.0 -84.0 L -75.0 -84.0 Z " stroke="#191919" stroke-width="0.35 px" style="stroke-width:0.35;stroke-miterlimit:4;stroke-dasharray:none;fill:#000000;fill-rule: evenodd "/>
<path id="LinearPattern_f0016"  d="M -75.0 -80.0 L -75.0 -84.0 L -75.0 -84.0 L -75.0 -80.0 L -75.0 -80.0 Z " stroke="#191919" stroke-width="0.35 px" style="stroke-width:0.35;stroke-miterlimit:4;stroke-dasharray:none;fill:#000000;fill-rule: evenodd "/>
<path id="LinearPattern_f0017"  d="M 71.0 -80.0 L 71.0 -80.0 L -75.0 -80.0 L -75.0 -80.0 L 71.0 -80.0 Z " stroke="#191919" stroke-width="0.35 px" style="stroke-width:0.35;stroke-miterlimit:4;stroke-dasharray:none;fill:#000000;fill-rule: evenodd "/>
<path id="LinearPattern_f0018"  d="M 71.0 -68.0 L 71.0 -68.0 L 71.0 -80.0 L 71.0 -80.0 L 71.0 -68.0 Z " stroke="#191919" stroke-width="0.35 px" style="stroke-width:0.35;stroke-miterlimit:4;stroke-dasharray:none;fill:#000000;fill-rule: evenodd "/>
<path id="LinearPattern_f0019"  d="M -75.0 -68.0 L -75.0 -68.0 L 71.0 -68.0 L 71.0 -68.0 L -75.0 -68.0 Z " stroke="#191919" stroke-width="0.35 px" style="stroke-width:0.35;stroke-miterlimit:4;stroke-dasharray:none;fill:#000000;fill-rule: evenodd "/>
<path id="LinearPattern_f0020"  d="M -75.0 -64.0 L -75.0 -68.0 L -75.0 -68.0 L -75.0 -64.0 L -75.0 -64.0 Z " stroke="#191919" stroke-width="0.35 px" style="stroke-width:0.35;stroke-miterlimit:4;stroke-dasharray:none;fill:#000000;fill-rule: evenodd "/>
<path id="LinearPattern_f0021"  d="M 71.0 -64.0 L 71.0 -64.0 L -75.0 -64.0 L -75.0 -64.0 L 71.0 -64.0 Z " stroke="#191919" stroke-width="0.35 px" style="stroke-width:0.35;stroke-miterlimit:4;stroke-dasharray:none;fill:#000000;fill-rule: evenodd "/>
<path id="LinearPattern_f0022"  d="M 71.0 -52.0 L 71.0 -52.0 L 71.0 -64.0 L 71.0 -64.0 L 71.0 -52.0 Z " stroke="#191919" stroke-width="0.35 px" style="stroke-width:0.35;stroke-miterlimit:4;stroke-dasharray:none;fill:#000000;fill-rule: evenodd "/>
<path id="LinearPattern_f0023"  d="M -75.0 -52.0 L -75.0 -52.0 L 71.0 -52.0 L 71.0 -52.0 L -75.0 -52.0 Z " stroke="#191919" stroke-width="0.35 px" style="stroke-width:0.35;stroke-miterlimit:4;stroke-dasharray:none;fill:#000000;fill-rule: evenodd "/>
<path id="LinearPattern_f0024"  d="M -75.0 -48.0 L -75.0 -52.0 L -75.0 -52.0 L -75.0 -48.0 L -75.0 -48.0 Z " stroke="#191919" stroke-width="0.35 px" style="stroke-width:0.35;stroke-miterlimit:4;stroke-dasharray:none;fill:#000000;fill-rule: evenodd "/>
<path id="LinearPattern_f0025"  d="M 71.0 -48.0 L 71.0 -48.0 L -75.0 -48.0 L -75.0 -48.0 L 71.0 -48.0 Z " stroke="#191919" stroke-width="0.35 px" style="stroke-width:0.35;stroke-miterlimit:4;stroke-dasharray:none;fill:#000000;fill-rule: evenodd "/>
<path id="LinearPattern_f0026"  d="M 71.0 -36.0 L 71.0 -36.0 L 71.0 -48.0 L 71.0 -48.0 L 71.0 -36.0 Z " stroke="#191919" stroke-width="0.35 px" style="stroke-width:0.35;stroke-miterlimit:4;stroke-dasharray:none;fill:#000000;fill-rule: evenodd "/>
<path id="LinearPattern_f0027"  d="M -75.0 -36.0 L -75.0 -36.0 L 71.0 -36.0 L 71.0 -36.0 L -75.0 -36.0 Z " stroke="#191919" stroke-width="0.35 px" style="stroke-width:0.35;stroke-miterlimit:4;stroke-dasharray:none;fill:#000000;fill-rule: evenodd "/>
<path id="LinearPattern_f0028"  d="M -75.0 -32.0 L -75.0 -36.0 L -75.0 -36.0 L -75.0 -32.0 L -75.0 -32.0 Z " stroke="#191919" stroke-width="0.35 px" style="stroke-width:0.35;stroke-miterlimit:4;stroke-dasharray:none;fill:#000000;fill-rule: evenodd "/>
<path id="LinearPattern_f0029"  d="M 71.0 -32.0 L 71.0 -32.0 L -75.0 -32.0 L -75.0 -32.0 L 71.0 -32.0 Z " stroke="#191919" stroke-width="0.35 px" style="stroke-width:0.35;stroke-miterlimit:4;stroke-dasharray:none;fill:#000000;fill-rule: evenodd "/>
<path id="LinearPattern_f0030"  d="M 71.0 -20.0 L 71.0 -20.0 L 71.0 -32.0 L 71.0 -32.0 L 71.0 -20.0 Z " stroke="#191919" stroke-width="0.35 px" style="stroke-width:0.35;stroke-miterlimit:4;stroke-dasharray:none;fill:#000000;fill-rule: evenodd "/>
<path id="LinearPattern_f0031"  d="M -75.0 -20.0 L -75.0 -20.0 L 71.0 -20.0 L 71.0 -20.0 L -75.0 -20.0 Z " stroke="#191919" stroke-width="0.35 px" style="stroke-width:0.35;stroke-miterlimit:4;stroke-dasharray:none;fill:#000000;fill-rule: evenodd "/>
<path id="LinearPattern_f0032"  d="M -75.0 -16.0 L -75.0 -20.0 L -75.0 -20.0 L -75.0 -16.0 L -75.0 -16.0 Z " stroke="#191919" stroke-width="0.35 px" style="stroke-width:0.35;stroke-miterlimit:4;stroke-dasharray:none;fill:#000000;fill-rule: evenodd "/>
<path id="LinearPattern_f0033"  d="M 71.0 -16.0 L 71.0 -16.0 L -75.0 -16.0 L -75.0 -16.0 L 71.0 -16.0 Z " stroke="#191919" stroke-width="0.35 px" style="stroke-width:0.35;stroke-miterlimit:4;stroke-dasharray:none;fill:#000000;fill-rule: evenodd "/>
<path id="LinearPattern_f0034"  d="M 71.0 -4.0 L 71.0 -4.0 L 71.0 -16.0 L 71.0 -16.0 L 71.0 -4.0 Z " stroke="#191919" stroke-width="0.35 px" style="stroke-width:0.35;stroke-miterlimit:4;stroke-dasharray:none;fill:#000000;fill-rule: evenodd "/>
<path id="LinearPattern_f0035"  d="M -75.0 -4.0 L -75.0 -4.0 L 71.0 -4.0 L 71.0 -4.0 L -75.0 -4.0 Z " stroke="#191919" stroke-width="0.35 px" style="stroke-width:0.35;stroke-miterlimit:4;stroke-dasharray:none;fill:#000000;fill-rule: evenodd "/>
<path id="LinearPattern_f0036"  d="M -75.0 0.0 L -75.0 -4.0 L -75.0 -4.0 L -75.0 0.0 L -75.0 0.0 Z " stroke="#191919" stroke-width="0.35 px" style="stroke-width:0.35;stroke-miterlimit:4;stroke-dasharray:none;fill:#000000;fill-rule: evenodd "/>
<path id="LinearPattern_f0037"  d="M 71.0 0.0 L 71.0 0.0 L -75.0 0.0 L -75.0 0.0 L 71.0 0.0 Z " stroke="#191919" stroke-width="0.35 px" style="stroke-width:0.35;stroke-miterlimit:4;stroke-dasharray:none;fill:#000000;fill-rule: evenodd "/>
<path id="LinearPattern_f0038"  d="M 71.0 12.0 L 71.0 12.0 L 71.0 0.0 L 71.0 0.0 L 71.0 12.0 Z " stroke="#191919" stroke-width="0.35 px" style="stroke-width:0.35;stroke-miterlimit:4;stroke-dasharray:none;fill:#000000;fill-rule: evenodd "/>
<path id="LinearPattern_f0039"  d="M -75.0 12.0 L -75.0 12.0 L 71.0 12.0 L 71.0 12.0 L -75.0 12.0 Z " stroke="#191919" stroke-width="0.35 px" style="stroke-width:0.35;stroke-miterlimit:4;stroke-dasharray:none;fill:#000000;fill-rule: evenodd "/>
<path id="LinearPattern_f0040"  d="M -75.0 16.0 L -75.0 12.0 L -75.0 12.0 L -75.0 16.0 L -75.0 16.0 Z " stroke="#191919" stroke-width="0.35 px" style="stroke-width:0.35;stroke-miterlimit:4;stroke-dasharray:none;fill:#000000;fill-rule: evenodd "/>
<path id="LinearPattern_f0041"  d="M 71.0 16.0 L 71.0 16.0 L -75.0 16.0 L -75.0 16.0 L 71.0 16.0 Z " stroke="#191919" stroke-width="0.35 px" style="stroke-width:0.35;stroke-miterlimit:4;stroke-dasharray:none;fill:#000000;fill-rule: evenodd "/>
<path id="LinearPattern_f0042"  d="M 71.0 28.0 L 71.0 28.0 L 71.0 16.0 L 71.0 16.0 L 71.0 28.0 Z " stroke="#191919" stroke-width="0.35 px" style="stroke-width:0.35;stroke-miterlimit:4;stroke-dasharray:none;fill:#000000;fill-rule: evenodd "/>
<path id="LinearPattern_f0043"  d="M -75.0 28.0 L -75.0 28.0 L 71.0 28.0 L 71.0 28.0 L -75.0 28.0 Z " stroke="#191919" stroke-width="0.35 px" style="stroke-width:0.35;stroke-miterlimit:4;stroke-dasharray:none;fill:#000000;fill-rule: evenodd "/>
<path id="LinearPattern_f0044"  d="M -75.0 32.0 L -75.0 28.0 L -75.0 28.0 L -75.0 32.0 L -75.0 32.0 Z " stroke="#191919" stroke-width="0.35 px" style="stroke-width:0.35;stroke-miterlimit:4;stroke-dasharray:none;fill:#000000;fill-rule: evenodd "/>
<path id="LinearPattern_f0045"  d="M 71.0 32.0 L 71.0 32.0 L -75.0 32.0 L -75.0 32.0 L 71.0 32.0 Z " stroke="#191919" stroke-width="0.35 px" style="stroke-width:0.35;stroke-miterlimit:4;stroke-dasharray:none;fill:#000000;fill-rule: evenodd "/>
<path id="LinearPattern_f0046"  d="M 71.0 44.0 L 71.0 44.0 L 71.0 32.0 L 71.0 32.0 L 71.0 44.0 Z " stroke="#191919" stroke-width="0.35 px" style="stroke-width:0.35;stroke-miterlimit:4;stroke-dasharray:none;fill:#000000;fill-rule: evenodd "/>
<path id="LinearPattern_f0047"  d="M -75.0 44.0 L -75.0 44.0 L 71.0 44.0 L 71.0 44.0 L -75.0 44.0 Z " stroke="#191919" stroke-width="0.35 px" style="stroke-width:0.35;stroke-miterlimit:4;stroke-dasharray:none;fill:#000000;fill-rule: evenodd "/>
<path id="LinearPattern_f0048"  d="M -75.0 48.0 L -75.0 44.0 L -75.0 44.0 L -75.0 48.0 L -75.0 48.0 Z " stroke="#191919" stroke-width="0.35 px" style="stroke-width:0.35;stroke-miterlimit:4;stroke-dasharray:none;fill:#000000;fill-rule: evenodd "/>
<path id="LinearPattern_f0049"  d="M 71.0 48.0 L 71.0 48.0 L -75.0 48.0 L -75.0 48.0 L 71.0 48.0 Z " stroke="#191919" stroke-width="0.35 px" style="stroke-width:0.35;stroke-miterlimit:4;stroke-dasharray:none;fill:#000000;fill-rule: evenodd "/>
<path id="LinearPattern_f0050"  d="M 71.0 60.0 L 71.0 60.0 L 71.0 48.0 L 71.0 48.0 L 71.0 60.0 Z " stroke="#191919" stroke-width="0.35 px" style="stroke-width:0.35;stroke-miterlimit:4;stroke-dasharray:none;fill:#000000;fill-rule: evenodd "/>
<path id="LinearPattern_f0051"  d="M -75.0 60.0 L -75.0 60.0 L 71.0 60.0 L 71.0 60.0 L -75.0 60.0 Z " stroke="#191919" stroke-width="0.35 px" style="stroke-width:0.35;stroke-miterlimit:4;stroke-dasharray:none;fill:#000000;fill-rule: evenodd "/>
<path id="LinearPattern_f0052"  d="M -75.0 64.0 L -75.0 60.0 L -75.0 60.0 L -75.0 64.0 L -75.0 64.0 Z " stroke="#191919" stroke-width="0.35 px" style="stroke-width:0.35;stroke-miterlimit:4;stroke-dasharray:none;fill:#000000;fill-rule: evenodd "/>
<path id="LinearPattern_f0053"  d="M 71.0 64.0 L 71.0 64.0 L -75.0 64.0 L -75.0 64.0 L 71.0 64.0 Z " stroke="#191919" stroke-width="0.35 px" style="stroke-width:0.35;stroke-miterlimit:4;stroke-dasharray:none;fill:#000000;fill-rule: evenodd "/>
<path id="LinearPattern_f0054"  d="M 71.0 76.0 L 71.0 76.0 L 71.0 64.0 L 71.0 64.0 L 71.0 76.0 Z " stroke="#191919" stroke-width="0.35 px" style="stroke-width:0.35;stroke-miterlimit:4;stroke-dasharray:none;fill:#000000;fill-rule: evenodd "/>
<path id="LinearPattern_f0055"  d="M -75.0 76.0 L -75.0 76.0 L 71.0 76.0 L 71.0 76.0 L -75.0 76.0 Z " stroke="#191919" stroke-width="0.35 px" style="stroke-width:0.35;stroke-miterlimit:4;stroke-dasharray:none;fill:#000000;fill-rule: evenodd "/>
<path id="LinearPattern_f0056"  d="M -75.0 80.0 L -75.0 76.0 L -75.0 76.0 L -75.0 80.0 L -75.0 80.0 Z " stroke="#191919" stroke-width="0.35 px" style="stroke-width:0.35;stroke-miterlimit:4;stroke-dasharray:none;fill:#000000;fill-rule: evenodd "/>
<path id="LinearPattern_f0057"  d="M 71.0 80.0 L 71.0 80.0 L -75.0 80.0 L -75.0 80.0 L 71.0 80.0 Z " stroke="#191919" stroke-width="0.35 px" style="stroke-width:0.35;stroke-miterlimit:4;stroke-dasharray:none;fill:#000000;fill-rule: evenodd "/>
<path id="LinearPattern_f0058"  d="M 71.0 92.0 L 71.0 92.0 L 71.0 80.0 L 71.0 80.0 L 71.0 92.0 Z " stroke="#191919" stroke-width="0.35 px" style="stroke-width:0.35;stroke-miterlimit:4;stroke-dasharray:none;fill:#000000;fill-rule: evenodd "/>
<title>LinearPattern</title>
</g>
</svg>