<?xml version="1.0"?>
<!DOCTYPE svg PUBLIC "-//W3C//DTD SVG 1.1//EN" "http://www.w3.org/Graphics/SVG/1.1/DTD/svg11.dtd">
<svg width="214.200000061mm" height="404.200000001mm" viewBox="0 0 214.200000061 404.200000001" xmlns="http://www.w3.org/2000/svg" version="1.1">
<g id="Part__Mirroring" transform="translate(112.100000,122.100000) scale(1,-1)">
<path id="Part__Mirroring_f0000"  d="M -110.00000006 110.0 L 89.9999999404 110.0 L 90.0000001788 110.0 L -109.999999821 110.0 L -110.00000006 110.0 Z " stroke="#191919" stroke-width="0.35 px" style="stroke-width:0.35;stroke-miterlimit:4;stroke-dasharray:none;fill:#000000;fill-rule: evenodd "/>
<path id="Part__Mirroring_f0001"  d="M 90.0000001788 105.0 L 89.9999999404 105.0 L 89.9999999404 110.0 L 90.0000001788 110.0 L 90.0000001788 105.0 Z " stroke="#191919" stroke-width="0.35 px" style="stroke-width:0.35;stroke-miterlimit:4;stroke-dasharray:none;fill:#000000;fill-rule: evenodd "/>
<path id="Part__Mirroring_f0002"  d="M -110.00000006 -130.0 L -110.00000006 110.0 L -109.999999821 110.0 L -109.999999821 -130.0 L -110.00000006 -130.0 Z " stroke="#191919" stroke-width="0.35 px" style="stroke-width:0.35;stroke-miterlimit:4;stroke-dasharray:none;fill:#000000;fill-rule: evenodd "/>
<path id="Part__Mirroring_f0003"  d="M -110.00000006 -130.0 L -110.00000006 -135.0 L -25.0000000596 -135.0 L -25.0000000596 -250.0 L -45.0000000596 -250.0 L -45.0000000596 -280.0 L -20.0000000596 -280.0 L -20.0000000596 -130.0 L -105.00000006 -130.0 L -105.00000006 -115.0 L 89.9999999404 -115.0 L 89.9999999404 -110.0 L -105.00000006 -110.0 L -105.00000006 -95.0 L 89.9999999404 -95.0 L 89.9999999404 -90.0 L -105.00000006 -90.0 L -105.00000006 -75.0 L 89.9999999404 -75.0 L 89.9999999404 -70.0 L -105.00000006 -70.0 L -105.00000006 -55.0 L 89.9999999404 -55.0 L 89.9999999404 -50.0 L -105.00000006 -50.0 L -105.00000006 -35.0 L 89.9999999404 -35.0 L 89.9999999404 -30.0 L -105.00000006 -30.0 L -105.00000006 -15.0 L 89.9999999404 -15.0 L 89.9999999404 -10.0 L -105.00000006 -10.0 L -105.00000006 5.0 L 89.9999999404 5.0 L 89.9999999404 10.0 L -105.00000006 10.0 L -105.00000006 25.0 L 89.9999999404 25.0 L 89.9999999404 30.0 L -105.00000006 30.0 L -105.00000006 45.0 L 89.9999999404 45.0 L 89.9999999404 50.0 L -105.00000006 50.0 L -105.00000006 65.0 L 89.9999999404 65.0 L 89.9999999404 70.0 L -105.00000006 70.0 L -105.00000006 85.0 L 89.9999999404 85.0 L 89.9999999404 90.0 L -105.00000006 90.0 L -105.00000006 105.0 L 89.9999999404 105.0 L 89.9999999404 110.0 L -110.00000006 110.0 L -110.00000006 -130.0 Z " stroke="#191919" stroke-width="0.35 px" style="stroke-width:0.35;stroke-miterlimit:4;stroke-dasharray:none;fill:#000000;fill-rule: evenodd "/>
<path id="Part__Mirroring_f0004"  d="M 90.0000001788 105.0 L 90.0000001788 110.0 L -109.999999821 110.0 L -109.999999821 -130.0 L -109.999999821 -135.0 L -24.9999998212 -135.0 L -24.9999998212 -250.0 L -44.9999998212 -250.0 L -44.9999998212 -280.0 L -19.9999998212 -280.0 L -19.9999998212 -130.0 L -104.999999821 -130.0 L -104.999999821 -115.0 L 90.0000001788 -115.0 L 90.0000001788 -110.0 L -104.999999821 -110.0 L -104.999999821 -95.0 L 90.0000001788 -95.0 L 90.0000001788 -90.0 L -104.999999821 -90.0 L -104.999999821 -75.0 L 90.0000001788 -75.0 L 90.0000001788 -70.0 L -104.999999821 -70.0 L -104.999999821 -55.0 L 90.0000001788 -55.0 L 90.0000001788 -50.0 L -104.999999821 -50.0 L -104.999999821 -35.0 L 90.0000001788 -35.0 L 90.0000001788 -30.0 L -104.999999821 -30.0 L -104.999999821 -15.0 L 90.0000001788 -15.0 L 90.0000001788 -10.0 L -104.999999821 -10.0 L -104.999999821 5.0 L 90.0000001788 5.0 L 90.0000001788 10.0 L -104.999999821 10.0 L -104.999999821 25.0 L 90.0000001788 25.0 L 90.0000001788 30.0 L -104.999999821 30.0 L -104.999999821 45.0 L 90.0000001788 45.0 L 90.0000001788 50.0 L -104.999999821 50.0 L -104.999999821 65.0 L 90.0000001788 65.0 L 90.0000001788 70.0 L -104.999999821 70.0 L -104.999999821 85.0 L 90.0000001788 85.0 L 90.0000001788 90.0 L -104.999999821 90.0 L -104.999999821 105.0 L 90.0000001788 105.0 Z " stroke="#191919" stroke-width="0.35 px" style="stroke-width:0.35;stroke-miterlimit:4;stroke-dasharray:none;fill:#000000;fill-rule: evenodd "/>
<path id="Part__Mirroring_f0005"  d="M -104.999999821 105.0 L -105.00000006 105.0 L 89.9999999404 105.0 L 90.0000001788 105.0 L -104.999999821 105.0 Z " stroke="#191919" stroke-width="0.35 px" style="stroke-width:0.35;stroke-miterlimit:4;stroke-dasharray:none;fill:#000000;fill-rule: evenodd "/>
<path id="Part__Mirroring_f0006"  d="M -110.00000006 -135.0 L -110.00000006 -130.0 L -109.999999821 -130.0 L -109.999999821 -135.0 L -110.00000006 -135.0 Z " stroke="#191919" stroke-width="0.35 px" style="stroke-width:0.35;stroke-miterlimit:4;stroke-dasharray:none;fill:#000000;fill-rule: evenodd "/>
<path id="Part__Mirroring_f0007"  d="M -25.0000000596 -135.0 L -110.00000006 -135.0 L -109.999999821 -135.0 L -24.9999998212 -135.0 L -25.0000000596 -135.0 Z " stroke="#191919" stroke-width="0.35 px" style="stroke-width:0.35;stroke-miterlimit:4;stroke-dasharray:none;fill:#000000;fill-rule: evenodd "/>
<path id="Part__Mirroring_f0008"  d="M -25.0000000596 -250.0 L -25.0000000596 -135.0 L -24.9999998212 -135.0 L -24.9999998212 -250.0 L -25.0000000596 -250.0 Z " stroke="#191919" stroke-width="0.35 px" style="stroke-width:0.35;stroke-miterlimit:4;stroke-dasharray:none;fill:#000000;fill-rule: evenodd "/>
<path id="Part__Mirroring_f0009"  d="M -45.0000000596 -250.0 L -25.0000000596 -250.0 L -24.9999998212 -250.0 L -44.9999998212 -250.0 L -45.0000000596 -250.0 Z " stroke="#191919" stroke-width="0.35 px" style="stroke-width:0.35;stroke-miterlimit:4;stroke-dasharray:none;fill:#000000;fill-rule: evenodd "/>
<path id="Part__Mirroring_f0010"  d="M -45.0000000596 -280.0 L -45.0000000596 -250.0 L -44.9999998212 -250.0 L -44.9999998212 -280.0 L -45.0000000596 -280.0 Z " stroke="#191919" stroke-width="0.35 px" style="stroke-width:0.35;stroke-miterlimit:4;stroke-dasharray:none;fill:#000000;fill-rule: evenodd "/>
<path id="Part__Mirroring_f0011"  d="M -20.0000000596 -280.0 L -45.0000000596 -280.0 L -44.9999998212 -280.0 L -19.9999998212 -280.0 L -20.0000000596 -280.0 Z " stroke="#191919" stroke-width="0.35 px" style="stroke-width:0.35;stroke-miterlimit:4;stroke-dasharray:none;fill:#000000;fill-rule: evenodd "/>
<path id="Part__Mirroring_f0012"  d="M -20.0000000596 -130.0 L -19.9999998212 -130.0 L -19.9999998212 -280.0 L -20.0000000596 -280.0 L -20.0000000596 -130.0 Z " stroke="#191919" stroke-width="0.35 px" style="stroke-width:0.35;stroke-miterlimit:4;stroke-dasharray:none;fill:#000000;fill-rule: evenodd "/>
<path id="Part__Mirroring_f0013"  d="M -20.0000000596 -130.0 L -19.9999998212 -130.0 L -104.999999821 -130.0 L -105.00000006 -130.0 L -20.0000000596 -130.0 Z " stroke="#191919" stroke-width="0.35 px" style="stroke-width:0.35;stroke-miterlimit:4;stroke-dasharray:none;fill:#000000;fill-rule: evenodd "/>
<path id="Part__Mirroring_f0014"  d="M -104.999999821 -130.0 L -105.00000006 -130.0 L -105.00000006 -115.0 L -104.999999821 -115.0 L -104.999999821 -130.0 Z " stroke="#191919" stroke-width="0.35 px" style="stroke-width:0.35;stroke-miterlimit:4;stroke-dasharray:none;fill:#000000;fill-rule: evenodd "/>
<path id="Part__Mirroring_f0015"  d="M -104.999999821 -115.0 L -105.00000006 -115.0 L 89.9999999404 -115.0 L 90.0000001788 -115.0 L -104.999999821 -115.0 Z " stroke="#191919" stroke-width="0.35 px" style="stroke-width:0.35;stroke-miterlimit:4;stroke-dasharray:none;fill:#000000;fill-rule: evenodd "/>
<path id="Part__Mirroring_f0016"  d="M 90.0000001788 -115.0 L 89.9999999404 -115.0 L 89.9999999404 -110.0 L 90.0000001788 -110.0 L 90.0000001788 -115.0 Z " stroke="#191919" stroke-width="0.35 px" style="stroke-width:0.35;stroke-miterlimit:4;stroke-dasharray:none;fill:#000000;fill-rule: evenodd "/>
<path id="Part__Mirroring_f0017"  d="M 90.0000001788 -110.0 L 89.9999999404 -110.0 L -105.00000006 -110.0 L -104.999999821 -110.0 L 90.0000001788 -110.0 Z " stroke="#191919" stroke-width="0.35 px" style="stroke-width:0.35;stroke-miterlimit:4;stroke-dasharray:none;fill:#000000;fill-rule: evenodd "/>
<path id="Part__Mirroring_f0018"  d="M -104.999999821 -110.0 L -105.00000006 -110.0 L -105.00000006 -95.0 L -104.999999821 -95.0 L -104.999999821 -110.0 Z " stroke="#191919" stroke-width="0.35 px" style="stroke-width:0.35;stroke-miterlimit:4;stroke-dasharray:none;fill:#000000;fill-rule: evenodd "/>
<path id="Part__Mirroring_f0019"  d="M -104.999999821 -95.0 L -105.00000006 -95.0 L 89.9999999404 -95.0 L 90.0000001788 -95.0 L -104.999999821 -95.0 Z " stroke="#191919" stroke-width="0.35 px" style="stroke-width:0.35;stroke-miterlimit:4;stroke-dasharray:none;fill:#000000;fill-rule: evenodd "/>
<path id="Part__Mirroring_f0020"  d="M 90.0000001788 -95.0 L 89.9999999404 -95.0 L 89.9999999404 -90.0 L 90.0000001788 -90.0 L 90.0000001788 -95.0 Z " stroke="#191919" stroke-width="0.35 px" style="stroke-width:0.35;stroke-miterlimit:4;stroke-dasharray:none;fill:#000000;fill-rule: evenodd "/>
<path id="Part__Mirroring_f0021"  d="M 90.0000001788 -90.0 L 89.9999999404 -90.0 L -105.00000006 -90.0 L -104.999999821 -90.0 L 90.0000001788 -90.0 Z " stroke="#191919" stroke-width="0.35 px" style="stroke-width:0.35;stroke-miterlimit:4;stroke-dasharray:none;fill:#000000;fill-rule: evenodd "/>
<path id="Part__Mirroring_f0022"  d="M -104.999999821 -90.0 L -105.00000006 -90.0 L -105.00000006 -75.0 L -104.999999821 -75.0 L -104.999999821 -90.0 Z " stroke="#191919" stroke-width="0.35 px" style="stroke-width:0.35;stroke-miterlimit:4;stroke-dasharray:none;fill:#000000;fill-rule: evenodd "/>
<path id="Part__Mirroring_f0023"  d="M -104.999999821 -75.0 L -105.00000006 -75.0 L 89.9999999404 -75.0 L 90.0000001788 -75.0 L -104.999999821 -75.0 Z " stroke="#191919" stroke-width="0.35 px" style="stroke-width:0.35;stroke-miterlimit:4;stroke-dasharray:none;fill:#000000;fill-rule: evenodd "/>
<path id="Part__Mirroring_f0024"  d="M 90.0000001788 -75.0 L 89.9999999404 -75.0 L 89.9999999404 -70.0 L 90.0000001788 -70.0 L 90.0000001788 -75.0 Z " stroke="#191919" stroke-width="0.35 px" style="stroke-width:0.35;stroke-miterlimit:4;stroke-dasharray:none;fill:#000000;fill-rule: evenodd "/>
<path id="Part__Mirroring_f0025"  d="M 90.0000001788 -70.0 L 89.9999999404 -70.0 L -105.00000006 -70.0 L -104.999999821 -70.0 L 90.0000001788 -70.0 Z " stroke="#191919" stroke-width="0.35 px" style="stroke-width:0.35;stroke-miterlimit:4;stroke-dasharray:none;fill:#000000;fill-rule: evenodd "/>
<path id="Part__Mirroring_f0026"  d="M -104.999999821 -70.0 L -105.00000006 -70.0 L -105.00000006 -55.0 L -104.999999821 -55.0 L -104.999999821 -70.0 Z " stroke="#191919" stroke-width="0.35 px" style="stroke-width:0.35;stroke-miterlimit:4;stroke-dasharray:none;fill:#000000;fill-rule: evenodd "/>
<path id="Part__Mirroring_f0027"  d="M -104.999999821 -55.0 L -105.00000006 -55.0 L 89.9999999404 -55.0 L 90.0000001788 -55.0 L -104.999999821 -55.0 Z " stroke="#191919" stroke-width="0.35 px" style="stroke-width:0.35;stroke-miterlimit:4;stroke-dasharray:none;fill:#000000;fill-rule: evenodd "/>
<path id="Part__Mirroring_f0028"  d="M 90.0000001788 -55.0 L 89.9999999404 -55.0 L 89.9999999404 -50.0 L 90.0000001788 -50.0 L 90.0000001788 -55.0 Z " stroke="#191919" stroke-width="0.35 px" style="stroke-width:0.35;stroke-miterlimit:4;stroke-dasharray:none;fill:#000000;fill-rule: evenodd "/>
<path id="Part__Mirroring_f0029"  d="M 90.0000001788 -50.0 L 89.9999999404 -50.0 L -105.00000006 -50.0 L -104.999999821 -50.0 L 90.0000001788 -50.0 Z " stroke="#191919" stroke-width="0.35 px" style="stroke-width:0.35;stroke-miterlimit:4;stroke-dasharray:none;fill:#000000;fill-rule: evenodd "/>
<path id="Part__Mirroring_f0030"  d="M -104.999999821 -50.0 L -105.00000006 -50.0 L -105.00000006 -35.0 L -104.999999821 -35.0 L -104.999999821 -50.0 Z " stroke="#191919" stroke-width="0.35 px" style="stroke-width:0.35;stroke-miterlimit:4;stroke-dasharray:none;fill:#000000;fill-rule: evenodd "/>
<path id="Part__Mirroring_f0031"  d="M -104.999999821 -35.0 L -105.00000006 -35.0 L 89.9999999404 -35.0 L 90.0000001788 -35.0 L -104.999999821 -35.0 Z " stroke="#191919" stroke-width="0.35 px" style="stroke-width:0.35;stroke-miterlimit:4;stroke-dasharray:none;fill:#000000;fill-rule: evenodd "/>
<path id="Part__Mirroring_f0032"  d="M 90.0000001788 -35.0 L 89.9999999404 -35.0 L 89.9999999404 -30.0 L 90.0000001788 -30.0 L 90.0000001788 -35.0 Z " stroke="#191919" stroke-width="0.35 px" style="stroke-width:0.35;stroke-miterlimit:4;stroke-dasharray:none;fill:#000000;fill-rule: evenodd "/>
<path id="Part__Mirroring_f0033"  d="M 90.0000001788 -30.0 L 89.9999999404 -30.0 L -105.00000006 -30.0 L -104.999999821 -30.0 L 90.0000001788 -30.0 Z " stroke="#191919" stroke-width="0.35 px" style="stroke-width:0.35;stroke-miterlimit:4;stroke-dasharray:none;fill:#000000;fill-rule: evenodd "/>
<path id="Part__Mirroring_f0034"  d="M -104.999999821 -30.0 L -105.00000006 -30.0 L -105.00000006 -15.0 L -104.999999821 -15.0 L -104.999999821 -30.0 Z " stroke="#191919" stroke-width="0.35 px" style="stroke-width:0.35;stroke-miterlimit:4;stroke-dasharray:none;fill:#000000;fill-rule: evenodd "/>
<path id="Part__Mirroring_f0035"  d="M -104.999999821 -15.0 L -105.00000006 -15.0 L 89.9999999404 -15.0 L 90.0000001788 -15.0 L -104.999999821 -15.0 Z " stroke="#191919" stroke-width="0.35 px" style="stroke-width:0.35;stroke-miterlimit:4;stroke-dasharray:none;fill:#000000;fill-rule: evenodd "/>
<path id="Part__Mirroring_f0036"  d="M 90.0000001788 -15.0 L 89.9999999404 -15.0 L 89.9999999404 -10.0 L 90.0000001788 -10.0 L 90.0000001788 -15.0 Z " stroke="#191919" stroke-width="0.35 px" style="stroke-width:0.35;stroke-miterlimit:4;stroke-dasharray:none;fill:#000000;fill-rule: evenodd "/>
<path id="Part__Mirroring_f0037"  d="M 90.0000001788 -10.0 L 89.9999999404 -10.0 L -105.00000006 -10.0 L -104.999999821 -10.0 L 90.0000001788 -10.0 Z " stroke="#191919" stroke-width="0.35 px" style="stroke-width:0.35;stroke-miterlimit:4;stroke-dasharray:none;fill:#000000;fill-rule: evenodd "/>
<path id="Part__Mirroring_f0038"  d="M -104.999999821 -10.0 L -105.00000006 -10.0 L -105.00000006 5.0 L -104.999999821 5.0 L -104.999999821 -10.0 Z " stroke="#191919" stroke-width="0.35 px" style="stroke-width:0.35;stroke-miterlimit:4;stroke-dasharray:none;fill:#000000;fill-rule: evenodd "/>
<path id="Part__Mirroring_f0039"  d="M -104.999999821 5.0 L -105.00000006 5.0 L 89.9999999404 5.0 L 90.0000001788 5.0 L -104.999999821 5.0 Z " stroke="#191919" stroke-width="0.35 px" style="stroke-width:0.35;stroke-miterlimit:4;stroke-dasharray:none;fill:#000000;fill-rule: evenodd "/>
<path id="Part__Mirroring_f0040"  d="M 90.0000001788 5.0 L 89.9999999404 5.0 L 89.9999999404 10.0 L 90.0000001788 10.0 L 90.0000001788 5.0 Z " stroke="#191919" stroke-width="0.35 px" style="stroke-width:0.35;stroke-miterlimit:4;stroke-dasharray:none;fill:#000000;fill-rule: evenodd "/>
<path id="Part__Mirroring_f0041"  d="M 90.0000001788 10.0 L 89.9999999404 10.0 L -105.00000006 10.0 L -104.999999821 10.0 L 90.0000001788 10.0 Z " stroke="#191919" stroke-width="0.35 px" style="stroke-width:0.35;stroke-miterlimit:4;stroke-dasharray:none;fill:#000000;fill-rule: evenodd "/>
<path id="Part__Mirroring_f0042"  d="M -104.999999821 10.0 L -105.00000006 10.0 L -105.00000006 25.0 L -104.999999821 25.0 L -104.999999821 10.0 Z " stroke="#191919" stroke-width="0.35 px" style="stroke-width:0.35;stroke-miterlimit:4;stroke-dasharray:none;fill:#000000;fill-rule: evenodd "/>
<path id="Part__Mirroring_f0043"  d="M -104.999999821 25.0 L -105.00000006 25.0 L 89.9999999404 25.0 L 90.0000001788 25.0 L -104.999999821 25.0 Z " stroke="#191919" stroke-width="0.35 px" style="stroke-width:0.35;stroke-miterlimit:4;stroke-dasharray:none;fill:#000000;fill-rule: evenodd "/>
<path id="Part__Mirroring_f0044"  d="M 90.0000001788 25.0 L 89.9999999404 25.0 L 89.9999999404 30.0 L 90.0000001788 30.0 L 90.0000001788 25.0 Z " stroke="#191919" stroke-width="0.35 px" style="stroke-width:0.35;stroke-miterlimit:4;stroke-dasharray:none;fill:#000000;fill-rule: evenodd "/>
<path id="Part__Mirroring_f0045"  d="M 90.0000001788 30.0 L 89.9999999404 30.0 L -105.00000006 30.0 L -104.999999821 30.0 L 90.0000001788 30.0 Z " stroke="#191919" stroke-width="0.35 px" style="stroke-width:0.35;stroke-miterlimit:4;stroke-dasharray:none;fill:#000000;fill-rule: evenodd "/>
<path id="Part__Mirroring_f0046"  d="M -104.999999821 30.0 L -105.00000006 30.0 L -105.00000006 45.0 L -104.999999821 45.0 L -104.999999821 30.0 Z " stroke="#191919" stroke-width="0.35 px" style="stroke-width:0.35;stroke-miterlimit:4;stroke-dasharray:none;fill:#000000;fill-rule: evenodd "/>
<path id="Part__Mirroring_f0047"  d="M -104.999999821 45.0 L -105.00000006 45.0 L 89.9999999404 45.0 L 90.0000001788 45.0 L -104.999999821 45.0 Z " stroke="#191919" stroke-width="0.35 px" style="stroke-width:0.35;stroke-miterlimit:4;stroke-dasharray:none;fill:#000000;fill-rule: evenodd "/>
<path id="Part__Mirroring_f0048"  d="M 90.0000001788 45.0 L 89.9999999404 45.0 L 89.9999999404 50.0 L 90.0000001788 50.0 L 90.0000001788 45.0 Z " stroke="#191919" stroke-width="0.35 px" style="stroke-width:0.35;stroke-miterlimit:4;stroke-dasharray:none;fill:#000000;fill-rule: evenodd "/>
<path id="Part__Mirroring_f0049"  d="M 90.0000001788 50.0 L 89.9999999404 50.0 L -105.00000006 50.0 L -104.999999821 50.0 L 90.0000001788 50.0 Z " stroke="#191919" stroke-width="0.35 px" style="stroke-width:0.35;stroke-miterlimit:4;stroke-dasharray:none;fill:#000000;fill-rule: evenodd "/>
<path id="Part__Mirroring_f0050"  d="M -104.999999821 50.0 L -105.00000006 50.0 L -105.00000006 65.0 L -104.999999821 65.0 L -104.999999821 50.0 Z " stroke="#191919" stroke-width="0.35 px" style="stroke-width:0.35;stroke-miterlimit:4;stroke-dasharray:none;fill:#000000;fill-rule: evenodd "/>
<path id="Part__Mirroring_f0051"  d="M -104.999999821 65.0 L -105.00000006 65.0 L 89.9999999404 65.0 L 90.0000001788 65.0 L -104.999999821 65.0 Z " stroke="#191919" stroke-width="0.35 px" style="stroke-width:0.35;stroke-miterlimit:4;stroke-dasharray:none;fill:#000000;fill-rule: evenodd "/>
<path id="Part__Mirroring_f0052"  d="M 90.0000001788 65.0 L 89.9999999404 65.0 L 89.9999999404 70.0 L 90.0000001788 70.0 L 90.0000001788 65.0 Z " stroke="#191919" stroke-width="0.35 px" style="stroke-width:0.35;stroke-miterlimit:4;stroke-dasharray:none;fill:#000000;fill-rule: evenodd "/>
<path id="Part__Mirroring_f0053"  d="M 90.0000001788 70.0 L 89.9999999404 70.0 L -105.00000006 70.0 L -104.999999821 70.0 L 90.0000001788 70.0 Z " stroke="#191919" stroke-width="0.35 px" style="stroke-width:0.35;stroke-miterlimit:4;stroke-dasharray:none;fill:#000000;fill-rule: evenodd "/>
<path id="Part__Mirroring_f0054"  d="M -104.999999821 70.0 L -105.00000006 70.0 L -105.00000006 85.0 L -104.999999821 85.0 L -104.999999821 70.0 Z " stroke="#191919" stroke-width="0.35 px" style="stroke-width:0.35;stroke-miterlimit:4;stroke-dasharray:none;fill:#000000;fill-rule: evenodd "/>
<path id="Part__Mirroring_f0055"  d="M -104.999999821 85.0 L -105.00000006 85.0 L 89.9999999404 85.0 L 90.0000001788 85.0 L -104.999999821 85.0 Z " stroke="#191919" stroke-width="0.35 px" style="stroke-width:0.35;stroke-miterlimit:4;stroke-dasharray:none;fill:#000000;fill-rule: evenodd "/>
<path id="Part__Mirroring_f0056"  d="M 90.0000001788 85.0 L 89.9999999404 85.0 L 89.9999999404 90.0 L 90.0000001788 90.0 L 90.0000001788 85.0 Z " stroke="#191919" stroke-width="0.35 px" style="stroke-width:0.35;stroke-miterlimit:4;stroke-dasharray:none;fill:#000000;fill-rule: evenodd "/>
<path id="Part__Mirroring_f0057"  d="M 90.0000001788 90.0 L 89.9999999404 90.0 L -105.00000006 90.0 L -104.999999821 90.0 L 90.0000001788 90.0 Z " stroke="#191919" stroke-width="0.35 px" style="stroke-width:0.35;stroke-miterlimit:4;stroke-dasharray:none;fill:#000000;fill-rule: evenodd "/>
<path id="Part__Mirroring_f0058"  d="M -104.999999821 90.0 L -105.00000006 90.0 L -105.00000006 105.0 L -104.999999821 105.0 L -104.999999821 90.0 Z " stroke="#191919" stroke-width="0.35 px" style="stroke-width:0.35;stroke-miterlimit:4;stroke-dasharray:none;fill:#000000;fill-rule: evenodd "/>
<title>LinearPattern (Mirror #1)</title>
</g>
<g id="LinearPattern" transform="translate(112.100000,122.100000) scale(1,-1)">
<path id="LinearPattern_f0000"  d="M -100.0 120.0 L -100.0 120.0 L 100.0 120.0 L 100.0 120.0 L -100.0 120.0 Z " stroke="#191919" stroke-width="0.35 px" style="stroke-width:0.35;stroke-miterlimit:4;stroke-dasharray:none;fill:#000000;fill-rule: evenodd "/>
<path id="LinearPattern_f0001"  d="M -100.0 120.0 L -100.0 115.0 L -100.0 115.0 L -100.0 120.0 L -100.0 120.0 Z " stroke="#191919" stroke-width="0.35 px" style="stroke-width:0.35;stroke-miterlimit:4;stroke-dasharray:none;fill:#000000;fill-rule: evenodd "/>
<path id="LinearPattern_f0002"  d="M 100.0 120.0 L 100.0 120.0 L 100.0 -120.0 L 100.0 -120.0 L 100.0 120.0 Z " stroke="#191919" stroke-width="0.35 px" style="stroke-width:0.35;stroke-miterlimit:4;stroke-dasharray:none;fill:#000000;fill-rule: evenodd "/>
<path id="LinearPattern_f0003"  d="M -100.0 115.0 L -100.0 120.0 L 100.0 120.0 L 100.0 -120.0 L 100.0 -125.0 L 15.0 -125.0 L 15.0 -240.0 L 35.0 -240.0 L 35.0 -270.0 L 10.0 -270.0 L 10.0 -120.0 L 95.0 -120.0 L 95.0 -105.0 L -100.0 -105.0 L -100.0 -100.0 L 95.0 -100.0 L 95.0 -85.0 L -100.0 -85.0 L -100.0 -80.0 L 95.0 -80.0 L 95.0 -65.0 L -100.0 -65.0 L -100.0 -60.0 L 95.0 -60.0 L 95.0 -45.0 L -100.0 -45.0 L -100.0 -40.0 L 95.0 -40.0 L 95.0 -25.0 L -100.0 -25.0 L -100.0 -20.0 L 95.0 -20.0 L 95.0 -5.0 L -100.0 -5.0 L -100.0 0.0 L 95.0 0.0 L 95.0 15.0 L -100.0 15.0 L -100.0 20.0 L 95.0 20.0 L 95.0 35.0 L -100.0 35.0 L -100.0 40.0 L 95.0 40.0 L 95.0 55.0 L -100.0 55.0 L -100.0 60.0 L 95.0 60.0 L 95.0 75.0 L -100.0 75.0 L -100.0 80.0 L 95.0 80.0 L 95.0 95.0 L -100.0 95.0 L -100.0 100.0 L 95.0 100.0 L 95.0 115.0 L -100.0 115.0 Z " stroke="#191919" stroke-width="0.35 px" style="stroke-width:0.35;stroke-miterlimit:4;stroke-dasharray:none;fill:#000000;fill-rule: evenodd "/>
<path id="LinearPattern_f0004"  d="M 100.0 -120.0 L 100.0 -125.0 L 15.0 -125.0 L 15.0 -240.0 L 35.0 -240.0 L 35.0 -270.0 L 10.0 -270.0 L 10.0 -120.0 L 95.0 -120.0 L 95.0 -105.0 L -100.0 -105.0 L -100.0 -100.0 L 95.0 -100.0 L 95.0 -85.0 L -100.0 -85.0 L -100.0 -80.0 L 95.0 -80.0 L 95.0 -65.0 L -100.0 -65.0 L -100.0 -60.0 L 95.0 -60.0 L 95.0 -45.0 L -100.0 -45.0 L -100.0 -40.0 L 95.0 -40.0 L 95.0 -25.0 L -100.0 -25.0 L -100.0 -20.0 L 95.0 -20.0 L 95.0 -5.0 L -100.0 -5.0 L -100.0 0.0 L 95.0 0.0 L 95.0 15.0 L -100.0 15.0 L -100.0 20.0 L 95.0 20.0 L 95.0 35.0 L -100.0 35.0 L -100.0 40.0 L 95.0 40.0 L 95.0 55.0 L -100.0 55.0 L -100.0 60.0 L 95.0 60.0 L 95.0 75.0 L -100.0 75.0 L -100.0 80.0 L 95.0 80.0 L 95.0 95.0 L -100.0 95.0 L -100.0 100.0 L 95.0 100.0 L 95.0 115.0 L -100.0 115.0 L -100.0 120.0 L 100.0 120.0 L 100.0 -120.0 Z " stroke="#191919" stroke-width="0.35 px" style="stroke-width:0.35;stroke-miterlimit:4;stroke-dasharray:none;fill:#000000;fill-rule: evenodd "/>
<path id="LinearPattern_f0005"  d="M -100.0 115.0 L -100.0 115.0 L 95.0 115.0 L 95.0 115.0 L -100.0 115.0 Z " stroke="#191919" stroke-width="0.35 px" style="stroke-width:0.35;stroke-miterlimit:4;stroke-dasharray:none;fill:#000000;fill-rule: evenodd "/>
<path id="LinearPattern_f0006"  d="M 100.0 -120.0 L 100.0 -120.0 L 100.0 -125.0 L 100.0 -125.0 L 100.0 -120.0 Z " stroke="#191919" stroke-width="0.35 px" style="stroke-width:0.35;stroke-miterlimit:4;stroke-dasharray:none;fill:#000000;fill-rule: evenodd "/>
<path id="LinearPattern_f0007"  d="M 100.0 -125.0 L 100.0 -125.0 L 15.0 -125.0 L 15.0 -125.0 L 100.0 -125.0 Z " stroke="#191919" stroke-width="0.35 px" style="stroke-width:0.35;stroke-miterlimit:4;stroke-dasharray:none;fill:#000000;fill-rule: evenodd "/>
<path id="LinearPattern_f0008"  d="M 15.0 -125.0 L 15.0 -125.0 L 15.0 -240.0 L 15.0 -240.0 L 15.0 -125.0 Z " stroke="#191919" stroke-width="0.35 px" style="stroke-width:0.35;stroke-miterlimit:4;stroke-dasharray:none;fill:#000000;fill-rule: evenodd "/>
<path id="LinearPattern_f0009"  d="M 15.0 -240.0 L 15.0 -240.0 L 35.0 -240.0 L 35.0 -240.0 L 15.0 -240.0 Z " stroke="#191919" stroke-width="0.35 px" style="stroke-width:0.35;stroke-miterlimit:4;stroke-dasharray:none;fill:#000000;fill-rule: evenodd "/>
<path id="LinearPattern_f0010"  d="M 35.0 -240.0 L 35.0 -240.0 L 35.0 -270.0 L 35.0 -270.0 L 35.0 -240.0 Z " stroke="#191919" stroke-width="0.35 px" style="stroke-width:0.35;stroke-miterlimit:4;stroke-dasharray:none;fill:#000000;fill-rule: evenodd "/>
<path id="LinearPattern_f0011"  d="M 35.0 -270.0 L 35.0 -270.0 L 10.0 -270.0 L 10.0 -270.0 L 35.0 -270.0 Z " stroke="#191919" stroke-width="0.35 px" style="stroke-width:0.35;stroke-miterlimit:4;stroke-dasharray:none;fill:#000000;fill-rule: evenodd "/>
<path id="LinearPattern_f0012"  d="M 10.0 -270.0 L 10.0 -270.0 L 10.0 -120.0 L 10.0 -120.0 L 10.0 -270.0 Z " stroke="#191919" stroke-width="0.35 px" style="stroke-width:0.35;stroke-miterlimit:4;stroke-dasharray:none;fill:#000000;fill-rule: evenodd "/>
<path id="LinearPattern_f0013"  d="M 10.0 -120.0 L 95.0 -120.0 L 95.0 -120.0 L 10.0 -120.0 L 10.0 -120.0 Z " stroke="#191919" stroke-width="0.35 px" style="stroke-width:0.35;stroke-miterlimit:4;stroke-dasharray:none;fill:#000000;fill-rule: evenodd "/>
<path id="LinearPattern_f0014"  d="M 95.0 -105.0 L 95.0 -105.0 L 95.0 -120.0 L 95.0 -120.0 L 95.0 -105.0 Z " stroke="#191919" stroke-width="0.35 px" style="stroke-width:0.35;stroke-miterlimit:4;stroke-dasharray:none;fill:#000000;fill-rule: evenodd "/>
<path id="LinearPattern_f0015"  d="M -100.0 -105.0 L -100.0 -105.0 L 95.0 -105.0 L 95.0 -105.0 L -100.0 -105.0 Z " stroke="#191919" stroke-width="0.35 px" style="stroke-width:0.35;stroke-miterlimit:4;stroke-dasharray:none;fill:#000000;fill-rule: evenodd "/>
<path id="LinearPattern_f0016"  d="M -100.0 -100.0 L -100.0 -105.0 L -100.0 -105.0 L -100.0 -100.0 L -100.0 -100.0 Z " stroke="#191919" stroke-width="0.35 px" style="stroke-width:0.35;stroke-miterlimit:4;stroke-dasharray:none;fill:#000000;fill-rule: evenodd "/>
<path id="LinearPattern_f0017"  d="M 95.0 -100.0 L 95.0 -100.0 L -100.0 -100.0 L -100.0 -100.0 L 95.0 -100.0 Z " stroke="#191919" stroke-width="0.35 px" style="stroke-width:0.35;stroke-miterlimit:4;stroke-dasharray:none;fill:#000000;fill-rule: evenodd "/>
<path id="LinearPattern_f0018"  d="M 95.0 -85.0 L 95.0 -85.0 L 95.0 -100.0 L 95.0 -100.0 L 95.0 -85.0 Z " stroke="#191919" stroke-width="0.35 px" style="stroke-width:0.35;stroke-miterlimit:4;stroke-dasharray:none;fill:#000000;fill-rule: evenodd "/>
<path id="LinearPattern_f0019"  d="M -100.0 -85.0 L -100.0 -85.0 L 95.0 -85.0 L 95.0 -85.0 L -100.0 -85.0 Z " stroke="#191919" stroke-width="0.35 px" style="stroke-width:0.35;stroke-miterlimit:4;stroke-dasharray:none;fill:#000000;fill-rule: evenodd "/>
<path id="LinearPattern_f0020"  d="M -100.0 -80.0 L -100.0 -85.0 L -100.0 -85.0 L -100.0 -80.0 L -100.0 -80.0 Z " stroke="#191919" stroke-width="0.35 px" style="stroke-width:0.35;stroke-miterlimit:4;stroke-dasharray:none;fill:#000000;fill-rule: evenodd "/>
<path id="LinearPattern_f0021"  d="M 95.0 -80.0 L 95.0 -80.0 L -100.0 -80.0 L -100.0 -80.0 L 95.0 -80.0 Z " stroke="#191919" stroke-width="0.35 px" style="stroke-width:0.35;stroke-miterlimit:4;stroke-dasharray:none;fill:#000000;fill-rule: evenodd "/>
<path id="LinearPattern_f0022"  d="M 95.0 -65.0 L 95.0 -65.0 L 95.0 -80.0 L 95.0 -80.0 L 95.0 -65.0 Z " stroke="#191919" stroke-width="0.35 px" style="stroke-width:0.35;stroke-miterlimit:4;stroke-dasharray:none;fill:#000000;fill-rule: evenodd "/>
<path id="LinearPattern_f0023"  d="M -100.0 -65.0 L -100.0 -65.0 L 95.0 -65.0 L 95.0 -65.0 L -100.0 -65.0 Z " stroke="#191919" stroke-width="0.35 px" style="stroke-width:0.35;stroke-miterlimit:4;stroke-dasharray:none;fill:#000000;fill-rule: evenodd "/>
<path id="LinearPattern_f0024"  d="M -100.0 -60.0 L -100.0 -65.0 L -100.0 -65.0 L -100.0 -60.0 L -100.0 -60.0 Z " stroke="#191919" stroke-width="0.35 px" style="stroke-width:0.35;stroke-miterlimit:4;stroke-dasharray:none;fill:#000000;fill-rule: evenodd "/>
<path id="LinearPattern_f0025"  d="M 95.0 -60.0 L 95.0 -60.0 L -100.0 -60.0 L -100.0 -60.0 L 95.0 -60.0 Z " stroke="#191919" stroke-width="0.35 px" style="stroke-width:0.35;stroke-miterlimit:4;stroke-dasharray:none;fill:#000000;fill-rule: evenodd "/>
<path id="LinearPattern_f0026"  d="M 95.0 -45.0 L 95.0 -45.0 L 95.0 -60.0 L 95.0 -60.0 L 95.0 -45.0 Z " stroke="#191919" stroke-width="0.35 px" style="stroke-width:0.35;stroke-miterlimit:4;stroke-dasharray:none;fill:#000000;fill-rule: evenodd "/>
<path id="LinearPattern_f0027"  d="M -100.0 -45.0 L -100.0 -45.0 L 95.0 -45.0 L 95.0 -45.0 L -100.0 -45.0 Z " stroke="#191919" stroke-width="0.35 px" style="stroke-width:0.35;stroke-miterlimit:4;stroke-dasharray:none;fill:#000000;fill-rule: evenodd "/>
<path id="LinearPattern_f0028"  d="M -100.0 -40.0 L -100.0 -45.0 L -100.0 -45.0 L -100.0 -40.0 L -100.0 -40.0 Z " stroke="#191919" stroke-width="0.35 px" style="stroke-width:0.35;stroke-miterlimit:4;stroke-dasharray:none;fill:#000000;fill-rule: evenodd "/>
<path id="LinearPattern_f0029"  d="M 95.0 -40.0 L 95.0 -40.0 L -100.0 -40.0 L -100.0 -40.0 L 95.0 -40.0 Z " stroke="#191919" stroke-width="0.35 px" style="stroke-width:0.35;stroke-miterlimit:4;stroke-dasharray:none;fill:#000000;fill-rule: evenodd "/>
<path id="LinearPattern_f0030"  d="M 95.0 -25.0 L 95.0 -25.0 L 95.0 -40.0 L 95.0 -40.0 L 95.0 -25.0 Z " stroke="#191919" stroke-width="0.35 px" style="stroke-width:0.35;stroke-miterlimit:4;stroke-dasharray:none;fill:#000000;fill-rule: evenodd "/>
<path id="LinearPattern_f0031"  d="M -100.0 -25.0 L -100.0 -25.0 L 95.0 -25.0 L 95.0 -25.0 L -100.0 -25.0 Z " stroke="#191919" stroke-width="0.35 px" style="stroke-width:0.35;stroke-miterlimit:4;stroke-dasharray:none;fill:#000000;fill-rule: evenodd "/>
<path id="LinearPattern_f0032"  d="M -100.0 -20.0 L -100.0 -25.0 L -100.0 -25.0 L -100.0 -20.0 L -100.0 -20.0 Z " stroke="#191919" stroke-width="0.35 px" style="stroke-width:0.35;stroke-miterlimit:4;stroke-dasharray:none;fill:#000000;fill-rule: evenodd "/>
<path id="LinearPattern_f0033"  d="M 95.0 -20.0 L 95.0 -20.0 L -100.0 -20.0 L -100.0 -20.0 L 95.0 -20.0 Z " stroke="#191919" stroke-width="0.35 px" style="stroke-width:0.35;stroke-miterlimit:4;stroke-dasharray:none;fill:#000000;fill-rule: evenodd "/>
<path id="LinearPattern_f0034"  d="M 95.0 -5.0 L 95.0 -5.0 L 95.0 -20.0 L 95.0 -20.0 L 95.0 -5.0 Z " stroke="#191919" stroke-width="0.35 px" style="stroke-width:0.35;stroke-miterlimit:4;stroke-dasharray:none;fill:#000000;fill-rule: evenodd "/>
<path id="LinearPattern_f0035"  d="M -100.0 -5.0 L -100.0 -5.0 L 95.0 -5.0 L 95.0 -5.0 L -100.0 -5.0 Z " stroke="#191919" stroke-width="0.35 px" style="stroke-width:0.35;stroke-miterlimit:4;stroke-dasharray:none;fill:#000000;fill-rule: evenodd "/>
<path id="LinearPattern_f0036"  d="M -100.0 0.0 L -100.0 -5.0 L -100.0 -5.0 L -100.0 0.0 L -100.0 0.0 Z " stroke="#191919" stroke-width="0.35 px" style="stroke-width:0.35;stroke-miterlimit:4;stroke-dasharray:none;fill:#000000;fill-rule: evenodd "/>
<path id="LinearPattern_f0037"  d="M 95.0 0.0 L 95.0 0.0 L -100.0 0.0 L -100.0 0.0 L 95.0 0.0 Z " stroke="#191919" stroke-width="0.35 px" style="stroke-width:0.35;stroke-miterlimit:4;stroke-dasharray:none;fill:#000000;fill-rule: evenodd "/>
<path id="LinearPattern_f0038"  d="M 95.0 15.0 L 95.0 15.0 L 95.0 0.0 L 95.0 0.0 L 95.0 15.0 Z " stroke="#191919" stroke-width="0.35 px" style="stroke-width:0.35;stroke-miterlimit:4;stroke-dasharray:none;fill:#000000;fill-rule: evenodd "/>
<path id="LinearPattern_f0039"  d="M -100.0 15.0 L -100.0 15.0 L 95.0 15.0 L 95.0 15.0 L -100.0 15.0 Z " stroke="#191919" stroke-width="0.35 px" style="stroke-width:0.35;stroke-miterlimit:4;stroke-dasharray:none;fill:#000000;fill-rule: evenodd "/>
<path id="LinearPattern_f0040"  d="M -100.0 20.0 L -100.0 15.0 L -100.0 15.0 L -100.0 20.0 L -100.0 20.0 Z " stroke="#191919" stroke-width="0.35 px" style="stroke-width:0.35;stroke-miterlimit:4;stroke-dasharray:none;fill:#000000;fill-rule: evenodd "/>
<path id="LinearPattern_f0041"  d="M 95.0 20.0 L 95.0 20.0 L -100.0 20.0 L -100.0 20.0 L 95.0 20.0 Z " stroke="#191919" stroke-width="0.35 px" style="stroke-width:0.35;stroke-miterlimit:4;stroke-dasharray:none;fill:#000000;fill-rule: evenodd "/>
<path id="LinearPattern_f0042"  d="M 95.0 35.0 L 95.0 35.0 L 95.0 20.0 L 95.0 20.0 L 95.0 35.0 Z " stroke="#191919" stroke-width="0.35 px" style="stroke-width:0.35;stroke-miterlimit:4;stroke-dasharray:none;fill:#000000;fill-rule: evenodd "/>
<path id="LinearPattern_f0043"  d="M -100.0 35.0 L -100.0 35.0 L 95.0 35.0 L 95.0 35.0 L -100.0 35.0 Z " stroke="#191919" stroke-width="0.35 px" style="stroke-width:0.35;stroke-miterlimit:4;stroke-dasharray:none;fill:#000000;fill-rule: evenodd "/>
<path id="LinearPattern_f0044"  d="M -100.0 40.0 L -100.0 35.0 L -100.0 35.0 L -100.0 40.0 L -100.0 40.0 Z " stroke="#191919" stroke-width="0.35 px" style="stroke-width:0.35;stroke-miterlimit:4;stroke-dasharray:none;fill:#000000;fill-rule: evenodd "/>
<path id="LinearPattern_f0045"  d="M 95.0 40.0 L 95.0 40.0 L -100.0 40.0 L -100.0 40.0 L 95.0 40.0 Z " stroke="#191919" stroke-width="0.35 px" style="stroke-width:0.35;stroke-miterlimit:4;stroke-dasharray:none;fill:#000000;fill-rule: evenodd "/>
<path id="LinearPattern_f0046"  d="M 95.0 55.0 L 95.0 55.0 L 95.0 40.0 L 95.0 40.0 L 95.0 55.0 Z " stroke="#191919" stroke-width="0.35 px" style="stroke-width:0.35;stroke-miterlimit:4;stroke-dasharray:none;fill:#000000;fill-rule: evenodd "/>
<path id="LinearPattern_f0047"  d="M -100.0 55.0 L -100.0 55.0 L 95.0 55.0 L 95.0 55.0 L -100.0 55.0 Z " stroke="#191919" stroke-width="0.35 px" style="stroke-width:0.35;stroke-miterlimit:4;stroke-dasharray:none;fill:#000000;fill-rule: evenodd "/>
<path id="LinearPattern_f0048"  d="M -100.0 60.0 L -100.0 55.0 L -100.0 55.0 L -100.0 60.0 L -100.0 60.0 Z " stroke="#191919" stroke-width="0.35 px" style="stroke-width:0.35;stroke-miterlimit:4;stroke-dasharray:none;fill:#000000;fill-rule: evenodd "/>
<path id="LinearPattern_f0049"  d="M 95.0 60.0 L 95.0 60.0 L -100.0 60.0 L -100.0 60.0 L 95.0 60.0 Z " stroke="#191919" stroke-width="0.35 px" style="stroke-width:0.35;stroke-miterlimit:4;stroke-dasharray:none;fill:#000000;fill-rule: evenodd "/>
<path id="LinearPattern_f0050"  d="M 95.0 75.0 L 95.0 75.0 L 95.0 60.0 L 95.0 60.0 L 95.0 75.0 Z " stroke="#191919" stroke-width="0.35 px" style="stroke-width:0.35;stroke-miterlimit:4;stroke-dasharray:none;fill:#000000;fill-rule: evenodd "/>
<path id="LinearPattern_f0051"  d="M -100.0 75.0 L -100.0 75.0 L 95.0 75.0 L 95.0 75.0 L -100.0 75.0 Z " stroke="#191919" stroke-width="0.35 px" style="stroke-width:0.35;stroke-miterlimit:4;stroke-dasharray:none;fill:#000000;fill-rule: evenodd "/>
<path id="LinearPattern_f0052"  d="M -100.0 80.0 L -100.0 75.0 L -100.0 75.0 L -100.0 80.0 L -100.0 80.0 Z " stroke="#191919" stroke-width="0.35 px" style="stroke-width:0.35;stroke-miterlimit:4;stroke-dasharray:none;fill:#000000;fill-rule: evenodd "/>
<path id="LinearPattern_f0053"  d="M 95.0 80.0 L 95.0 80.0 L -100.0 80.0 L -100.0 80.0 L 95.0 80.0 Z " stroke="#191919" stroke-width="0.35 px" style="stroke-width:0.35;stroke-miterlimit:4;stroke-dasharray:none;fill:#000000;fill-rule: evenodd "/>
<path id="LinearPattern_f0054"  d="M 95.0 95.0 L 95.0 95.0 L 95.0 80.0 L 95.0 80.0 L 95.0 95.0 Z " stroke="#191919" stroke-width="0.35 px" style="stroke-width:0.35;stroke-miterlimit:4;stroke-dasharray:none;fill:#000000;fill-rule: evenodd "/>
<path id="LinearPattern_f0055"  d="M -100.0 95.0 L -100.0 95.0 L 95.0 95.0 L 95.0 95.0 L -100.0 95.0 Z " stroke="#191919" stroke-width="0.35 px" style="stroke-width:0.35;stroke-miterlimit:4;stroke-dasharray:none;fill:#000000;fill-rule: evenodd "/>
<path id="LinearPattern_f0056"  d="M -100.0 100.0 L -100.0 95.0 L -100.0 95.0 L -100.0 100.0 L -100.0 100.0 Z " stroke="#191919" stroke-width="0.35 px" style="stroke-width:0.35;stroke-miterlimit:4;stroke-dasharray:none;fill:#000000;fill-rule: evenodd "/>
<path id="LinearPattern_f0057"  d="M 95.0 100.0 L 95.0 100.0 L -100.0 100.0 L -100.0 100.0 L 95.0 100.0 Z " stroke="#191919" stroke-width="0.35 px" style="stroke-width:0.35;stroke-miterlimit:4;stroke-dasharray:none;fill:#000000;fill-rule: evenodd "/>
<path id="LinearPattern_f0058"  d="M 95.0 115.0 L 95.0 115.0 L 95.0 100.0 L 95.0 100.0 L 95.0 115.0 Z " stroke="#191919" stroke-width="0.35 px" style="stroke-width:0.35;stroke-miterlimit:4;stroke-dasharray:none;fill:#000000;fill-rule: evenodd "/>
<title>LinearPattern</title>
</g>
</svg>