<?xml version="1.0"?>
<!DOCTYPE svg PUBLIC "-//W3C//DTD SVG 1.1//EN" "http://www.w3.org/Graphics/SVG/1.1/DTD/svg11.dtd">
<svg width="163.710000061mm" height="352.710000001mm" viewBox="0 0 163.710000061 352.710000001" xmlns="http://www.w3.org/2000/svg" version="1.1">
<g id="LinearPattern" transform="translate(87.105000,96.105000) scale(1,-1)">
<path id="LinearPattern_f0000"  d="M -75.0 94.5 L -75.0 94.5 L 75.0 94.5 L 75.0 94.5 L -75.0 94.5 Z " stroke="#191919" stroke-width="0.35 px" style="stroke-width:0.35;stroke-miterlimit:4;stroke-dasharray:none;fill:#000000;fill-rule: evenodd "/>
<path id="LinearPattern_f0001"  d="M -75.0 94.5 L -75.0 89.25 L -75.0 89.25 L -75.0 94.5 L -75.0 94.5 Z " stroke="#191919" stroke-width="0.35 px" style="stroke-width:0.35;stroke-miterlimit:4;stroke-dasharray:none;fill:#000000;fill-rule: evenodd "/>
<path id="LinearPattern_f0002"  d="M 75.0 94.5 L 75.0 94.5 L 75.0 -94.5 L 75.0 -94.5 L 75.0 94.5 Z " stroke="#191919" stroke-width="0.35 px" style="stroke-width:0.35;stroke-miterlimit:4;stroke-dasharray:none;fill:#000000;fill-rule: evenodd "/>
<path id="LinearPattern_f0003"  d="M -75.0 89.25 L -75.0 94.5 L 75.0 94.5 L 75.0 -94.5 L 75.0 -99.75 L 15.25 -99.75 L 15.25 -214.5 L 35.0 -214.5 L 35.0 -244.5 L 10.0 -244.5 L 10.0 -94.5 L 69.75 -94.5 L 69.75 -78.75 L -75.0 -78.75 L -75.0 -73.5 L 69.75 -73.5 L 69.75 -57.75 L -75.0 -57.75 L -75.0 -52.5 L 69.75 -52.5 L 69.75 -36.75 L -75.0 -36.75 L -75.0 -31.5 L 69.75 -31.5 L 69.75 -15.75 L -75.0 -15.75 L -75.0 -10.5 L 69.75 -10.5 L 69.75 5.25 L -75.0 5.25 L -75.0 10.5 L 69.75 10.5 L 69.75 26.25 L -75.0 26.25 L -75.0 31.5 L 69.75 31.5 L 69.75 47.25 L -75.0 47.25 L -75.0 52.5 L 69.75 52.5 L 69.75 68.25 L -75.0 68.25 L -75.0 73.5 L 69.75 73.5 L 69.75 89.25 L -75.0 89.25 Z " stroke="#191919" stroke-width="0.35 px" style="stroke-width:0.35;stroke-miterlimit:4;stroke-dasharray:none;fill:#000000;fill-rule: evenodd "/>
<path id="LinearPattern_f0004"  d="M 75.0 -94.5 L 75.0 -99.75 L 15.25 -99.75 L 15.25 -214.5 L 35.0 -214.5 L 35.0 -244.5 L 10.0 -244.5 L 10.0 -94.5 L 69.75 -94.5 L 69.75 -78.75 L -75.0 -78.75 L -75.0 -73.5 L 69.75 -73.5 L 69.75 -57.75 L -75.0 -57.75 L -75.0 -52.5 L 69.75 -52.5 L 69.75 -36.75 L -75.0 -36.75 L -75.0 -31.5 L 69.75 -31.5 L 69.75 -15.75 L -75.0 -15.75 L -75.0 -10.5 L 69.75 -10.5 L 69.75 5.25 L -75.0 5.25 L -75.0 10.5 L 69.75 10.5 L 69.75 26.25 L -75.0 26.25 L -75.0 31.5 L 69.75 31.5 L 69.75 47.25 L -75.0 47.25 L -75.0 52.5 L 69.75 52.5 L 69.75 68.25 L -75.0 68.25 L -75.0 73.5 L 69.75 73.5 L 69.75 89.25 L -75.0 89.25 L -75.0 94.5 L 75.0 94.5 L 75.0 -94.5 Z " stroke="#191919" stroke-width="0.35 px" style="stroke-width:0.35;stroke-miterlimit:4;stroke-dasharray:none;fill:#000000;fill-rule: evenodd "/>
<path id="LinearPattern_f0005"  d="M -75.0 89.25 L -75.0 89.25 L 69.75 89.25 L 69.75 89.25 L -75.0 89.25 Z " stroke="#191919" stroke-width="0.35 px" style="stroke-width:0.35;stroke-miterlimit:4;stroke-dasharray:none;fill:#000000;fill-rule: evenodd "/>
<path id="LinearPattern_f0006"  d="M 75.0 -94.5 L 75.0 -94.5 L 75.0 -99.75 L 75.0 -99.75 L 75.0 -94.5 Z " stroke="#191919" stroke-width="0.35 px" style="stroke-width:0.35;stroke-miterlimit:4;stroke-dasharray:none;fill:#000000;fill-rule: evenodd "/>
<path id="LinearPattern_f0007"  d="M 75.0 -99.75 L 75.0 -99.75 L 15.25 -99.75 L 15.25 -99.75 L 75.0 -99.75 Z " stroke="#191919" stroke-width="0.35 px" style="stroke-width:0.35;stroke-miterlimit:4;stroke-dasharray:none;fill:#000000;fill-rule: evenodd "/>
<path id="LinearPattern_f0008"  d="M 15.25 -99.75 L 15.25 -99.75 L 15.25 -214.5 L 15.25 -214.5 L 15.25 -99.75 Z " stroke="#191919" stroke-width="0.35 px" style="stroke-width:0.35;stroke-miterlimit:4;stroke-dasharray:none;fill:#000000;fill-rule: evenodd "/>
<path id="LinearPattern_f0009"  d="M 15.25 -214.5 L 15.25 -214.5 L 35.0 -214.5 L 35.0 -214.5 L 15.25 -214.5 Z " stroke="#191919" stroke-width="0.35 px" style="stroke-width:0.35;stroke-miterlimit:4;stroke-dasharray:none;fill:#000000;fill-rule: evenodd "/>
<path id="LinearPattern_f0010"  d="M 35.0 -214.5 L 35.0 -214.5 L 35.0 -244.5 L 35.0 -244.5 L 35.0 -214.5 Z " stroke="#191919" stroke-width="0.35 px" style="stroke-width:0.35;stroke-miterlimit:4;stroke-dasharray:none;fill:#000000;fill-rule: evenodd "/>
<path id="LinearPattern_f0011"  d="M 35.0 -244.5 L 35.0 -244.5 L 10.0 -244.5 L 10.0 -244.5 L 35.0 -244.5 Z " stroke="#191919" stroke-width="0.35 px" style="stroke-width:0.35;stroke-miterlimit:4;stroke-dasharray:none;fill:#000000;fill-rule: evenodd "/>
<path id="LinearPattern_f0012"  d="M 10.0 -244.5 L 10.0 -244.5 L 10.0 -94.5 L 10.0 -94.5 L 10.0 -244.5 Z " stroke="#191919" stroke-width="0.35 px" style="stroke-width:0.35;stroke-miterlimit:4;stroke-dasharray:none;fill:#000000;fill-rule: evenodd "/>
<path id="LinearPattern_f0013"  d="M 10.0 -94.5 L 69.75 -94.5 L 69.75 -94.5 L 10.0 -94.5 L 10.0 -94.5 Z " stroke="#191919" stroke-width="0.35 px" style="stroke-width:0.35;stroke-miterlimit:4;stroke-dasharray:none;fill:#000000;fill-rule: evenodd "/>
<path id="LinearPattern_f0014"  d="M 69.75 -78.75 L 69.75 -78.75 L 69.75 -94.5 L 69.75 -94.5 L 69.75 -78.75 Z " stroke="#191919" stroke-width="0.35 px" style="stroke-width:0.35;stroke-miterlimit:4;stroke-dasharray:none;fill:#000000;fill-rule: evenodd "/>
<path id="LinearPattern_f0015"  d="M -75.0 -78.75 L -75.0 -78.75 L 69.75 -78.75 L 69.75 -78.75 L -75.0 -78.75 Z " stroke="#191919" stroke-width="0.35 px" style="stroke-width:0.35;stroke-miterlimit:4;stroke-dasharray:none;fill:#000000;fill-rule: evenodd "/>
<path id="LinearPattern_f0016"  d="M -75.0 -73.5 L -75.0 -78.75 L -75.0 -78.75 L -75.0 -73.5 L -75.0 -73.5 Z " stroke="#191919" stroke-width="0.35 px" style="stroke-width:0.35;stroke-miterlimit:4;stroke-dasharray:none;fill:#000000;fill-rule: evenodd "/>
<path id="LinearPattern_f0017"  d="M 69.75 -73.5 L 69.75 -73.5 L -75.0 -73.5 L -75.0 -73.5 L 69.75 -73.5 Z " stroke="#191919" stroke-width="0.35 px" style="stroke-width:0.35;stroke-miterlimit:4;stroke-dasharray:none;fill:#000000;fill-rule: evenodd "/>
<path id="LinearPattern_f0018"  d="M 69.75 -57.75 L 69.75 -57.75 L 69.75 -73.5 L 69.75 -73.5 L 69.75 -57.75 Z " stroke="#191919" stroke-width="0.35 px" style="stroke-width:0.35;stroke-miterlimit:4;stroke-dasharray:none;fill:#000000;fill-rule: evenodd "/>
<path id="LinearPattern_f0019"  d="M -75.0 -57.75 L -75.0 -57.75 L 69.75 -57.75 L 69.75 -57.75 L -75.0 -57.75 Z " stroke="#191919" stroke-width="0.35 px" style="stroke-width:0.35;stroke-miterlimit:4;stroke-dasharray:none;fill:#000000;fill-rule: evenodd "/>
<path id="LinearPattern_f0020"  d="M -75.0 -52.5 L -75.0 -57.75 L -75.0 -57.75 L -75.0 -52.5 L -75.0 -52.5 Z " stroke="#191919" stroke-width="0.35 px" style="stroke-width:0.35;stroke-miterlimit:4;stroke-dasharray:none;fill:#000000;fill-rule: evenodd "/>
<path id="LinearPattern_f0021"  d="M 69.75 -52.5 L 69.75 -52.5 L -75.0 -52.5 L -75.0 -52.5 L 69.75 -52.5 Z " stroke="#191919" stroke-width="0.35 px" style="stroke-width:0.35;stroke-miterlimit:4;stroke-dasharray:none;fill:#000000;fill-rule: evenodd "/>
<path id="LinearPattern_f0022"  d="M 69.75 -36.75 L 69.75 -36.75 L 69.75 -52.5 L 69.75 -52.5 L 69.75 -36.75 Z " stroke="#191919" stroke-width="0.35 px" style="stroke-width:0.35;stroke-miterlimit:4;stroke-dasharray:none;fill:#000000;fill-rule: evenodd "/>
<path id="LinearPattern_f0023"  d="M -75.0 -36.75 L -75.0 -36.75 L 69.75 -36.75 L 69.75 -36.75 L -75.0 -36.75 Z " stroke="#191919" stroke-width="0.35 px" style="stroke-width:0.35;stroke-miterlimit:4;stroke-dasharray:none;fill:#000000;fill-rule: evenodd "/>
<path id="LinearPattern_f0024"  d="M -75.0 -31.5 L -75.0 -36.75 L -75.0 -36.75 L -75.0 -31.5 L -75.0 -31.5 Z " stroke="#191919" stroke-width="0.35 px" style="stroke-width:0.35;stroke-miterlimit:4;stroke-dasharray:none;fill:#000000;fill-rule: evenodd "/>
<path id="LinearPattern_f0025"  d="M 69.75 -31.5 L 69.75 -31.5 L -75.0 -31.5 L -75.0 -31.5 L 69.75 -31.5 Z " stroke="#191919" stroke-width="0.35 px" style="stroke-width:0.35;stroke-miterlimit:4;stroke-dasharray:none;fill:#000000;fill-rule: evenodd "/>
<path id="LinearPattern_f0026"  d="M 69.75 -15.75 L 69.75 -15.75 L 69.75 -31.5 L 69.75 -31.5 L 69.75 -15.75 Z " stroke="#191919" stroke-width="0.35 px" style="stroke-width:0.35;stroke-miterlimit:4;stroke-dasharray:none;fill:#000000;fill-rule: evenodd "/>
<path id="LinearPattern_f0027"  d="M -75.0 -15.75 L -75.0 -15.75 L 69.75 -15.75 L 69.75 -15.75 L -75.0 -15.75 Z " stroke="#191919" stroke-width="0.35 px" style="stroke-width:0.35;stroke-miterlimit:4;stroke-dasharray:none;fill:#000000;fill-rule: evenodd "/>
<path id="LinearPattern_f0028"  d="M -75.0 -10.5 L -75.0 -15.75 L -75.0 -15.75 L -75.0 -10.5 L -75.0 -10.5 Z " stroke="#191919" stroke-width="0.35 px" style="stroke-width:0.35;stroke-miterlimit:4;stroke-dasharray:none;fill:#000000;fill-rule: evenodd "/>
<path id="LinearPattern_f0029"  d="M 69.75 -10.5 L 69.75 -10.5 L -75.0 -10.5 L -75.0 -10.5 L 69.75 -10.5 Z " stroke="#191919" stroke-width="0.35 px" style="stroke-width:0.35;stroke-miterlimit:4;stroke-dasharray:none;fill:#000000;fill-rule: evenodd "/>
<path id="LinearPattern_f0030"  d="M 69.75 5.25 L 69.75 5.25 L 69.75 -10.5 L 69.75 -10.5 L 69.75 5.25 Z " stroke="#191919" stroke-width="0.35 px" style="stroke-width:0.35;stroke-miterlimit:4;stroke-dasharray:none;fill:#000000;fill-rule: evenodd "/>
<path id="LinearPattern_f0031"  d="M -75.0 5.25 L -75.0 5.25 L 69.75 5.25 L 69.75 5.25 L -75.0 5.25 Z " stroke="#191919" stroke-width="0.35 px" style="stroke-width:0.35;stroke-miterlimit:4;stroke-dasharray:none;fill:#000000;fill-rule: evenodd "/>
<path id="LinearPattern_f0032"  d="M -75.0 10.5 L -75.0 5.25 L -75.0 5.25 L -75.0 10.5 L -75.0 10.5 Z " stroke="#191919" stroke-width="0.35 px" style="stroke-width:0.35;stroke-miterlimit:4;stroke-dasharray:none;fill:#000000;fill-rule: evenodd "/>
<path id="LinearPattern_f0033"  d="M 69.75 10.5 L 69.75 10.5 L -75.0 10.5 L -75.0 10.5 L 69.75 10.5 Z " stroke="#191919" stroke-width="0.35 px" style="stroke-width:0.35;stroke-miterlimit:4;stroke-dasharray:none;fill:#000000;fill-rule: evenodd "/>
<path id="LinearPattern_f0034"  d="M 69.75 26.25 L 69.75 26.25 L 69.75 10.5 L 69.75 10.5 L 69.75 26.25 Z " stroke="#191919" stroke-width="0.35 px" style="stroke-width:0.35;stroke-miterlimit:4;stroke-dasharray:none;fill:#000000;fill-rule: evenodd "/>
<path id="LinearPattern_f0035"  d="M -75.0 26.25 L -75.0 26.25 L 69.75 26.25 L 69.75 26.25 L -75.0 26.25 Z " stroke="#191919" stroke-width="0.35 px" style="stroke-width:0.35;stroke-miterlimit:4;stroke-dasharray:none;fill:#000000;fill-rule: evenodd "/>
<path id="LinearPattern_f0036"  d="M -75.0 31.5 L -75.0 26.25 L -75.0 26.25 L -75.0 31.5 L -75.0 31.5 Z " stroke="#191919" stroke-width="0.35 px" style="stroke-width:0.35;stroke-miterlimit:4;stroke-dasharray:none;fill:#000000;fill-rule: evenodd "/>
<path id="LinearPattern_f0037"  d="M 69.75 31.5 L 69.75 31.5 L -75.0 31.5 L -75.0 31.5 L 69.75 31.5 Z " stroke="#191919" stroke-width="0.35 px" style="stroke-width:0.35;stroke-miterlimit:4;stroke-dasharray:none;fill:#000000;fill-rule: evenodd "/>
<path id="LinearPattern_f0038"  d="M 69.75 47.25 L 69.75 47.25 L 69.75 31.5 L 69.75 31.5 L 69.75 47.25 Z " stroke="#191919" stroke-width="0.35 px" style="stroke-width:0.35;stroke-miterlimit:4;stroke-dasharray:none;fill:#000000;fill-rule: evenodd "/>
<path id="LinearPattern_f0039"  d="M -75.0 47.25 L -75.0 47.25 L 69.75 47.25 L 69.75 47.25 L -75.0 47.25 Z " stroke="#191919" stroke-width="0.35 px" style="stroke-width:0.35;stroke-miterlimit:4;stroke-dasharray:none;fill:#000000;fill-rule: evenodd "/>
<path id="LinearPattern_f0040"  d="M -75.0 52.5 L -75.0 47.25 L -75.0 47.25 L -75.0 52.5 L -75.0 52.5 Z " stroke="#191919" stroke-width="0.35 px" style="stroke-width:0.35;stroke-miterlimit:4;stroke-dasharray:none;fill:#000000;fill-rule: evenodd "/>
<path id="LinearPattern_f0041"  d="M 69.75 52.5 L 69.75 52.5 L -75.0 52.5 L -75.0 52.5 L 69.75 52.5 Z " stroke="#191919" stroke-width="0.35 px" style="stroke-width:0.35;stroke-miterlimit:4;stroke-dasharray:none;fill:#000000;fill-rule: evenodd "/>
<path id="LinearPattern_f0042"  d="M 69.75 68.25 L 69.75 68.25 L 69.75 52.5 L 69.75 52.5 L 69.75 68.25 Z " stroke="#191919" stroke-width="0.35 px" style="stroke-width:0.35;stroke-miterlimit:4;stroke-dasharray:none;fill:#000000;fill-rule: evenodd "/>
<path id="LinearPattern_f0043"  d="M -75.0 68.25 L -75.0 68.25 L 69.75 68.25 L 69.75 68.25 L -75.0 68.25 Z " stroke="#191919" stroke-width="0.35 px" style="stroke-width:0.35;stroke-miterlimit:4;stroke-dasharray:none;fill:#000000;fill-rule: evenodd "/>
<path id="LinearPattern_f0044"  d="M -75.0 73.5 L -75.0 68.25 L -75.0 68.25 L -75.0 73.5 L -75.0 73.5 Z " stroke="#191919" stroke-width="0.35 px" style="stroke-width:0.35;stroke-miterlimit:4;stroke-dasharray:none;fill:#000000;fill-rule: evenodd "/>
<path id="LinearPattern_f0045"  d="M 69.75 73.5 L 69.75 73.5 L -75.0 73.5 L -75.0 73.5 L 69.75 73.5 Z " stroke="#191919" stroke-width="0.35 px" style="stroke-width:0.35;stroke-miterlimit:4;stroke-dasharray:none;fill:#000000;fill-rule: evenodd "/>
<path id="LinearPattern_f0046"  d="M 69.75 89.25 L 69.75 89.25 L 69.75 73.5 L 69.75 73.5 L 69.75 89.25 Z " stroke="#191919" stroke-width="0.35 px" style="stroke-width:0.35;stroke-miterlimit:4;stroke-dasharray:none;fill:#000000;fill-rule: evenodd "/>
<title>LinearPattern</title>
</g>
<g id="Part__Mirroring" transform="translate(87.105000,96.105000) scale(1,-1)">
<path id="Part__Mirroring_f0000"  d="M -85.5000000596 84.0 L 64.4999999404 84.0 L 64.5000001788 84.0 L -85.4999998212 84.0 L -85.5000000596 84.0 Z " stroke="#191919" stroke-width="0.35 px" style="stroke-width:0.35;stroke-miterlimit:4;stroke-dasharray:none;fill:#000000;fill-rule: evenodd "/>
<path id="Part__Mirroring_f0001"  d="M 64.5000001788 78.75 L 64.4999999404 78.75 L 64.4999999404 84.0 L 64.5000001788 84.0 L 64.5000001788 78.75 Z " stroke="#191919" stroke-width="0.35 px" style="stroke-width:0.35;stroke-miterlimit:4;stroke-dasharray:none;fill:#000000;fill-rule: evenodd "/>
<path id="Part__Mirroring_f0002"  d="M -85.5000000596 -105.0 L -85.5000000596 84.0 L -85.4999998212 84.0 L -85.4999998212 -105.0 L -85.5000000596 -105.0 Z " stroke="#191919" stroke-width="0.35 px" style="stroke-width:0.35;stroke-miterlimit:4;stroke-dasharray:none;fill:#000000;fill-rule: evenodd "/>
<path id="Part__Mirroring_f0003"  d="M -85.5000000596 -105.0 L -85.5000000596 -110.25 L -25.7500000596 -110.25 L -25.7500000596 -225.0 L -45.5000000596 -225.0 L -45.5000000596 -255.0 L -20.5000000596 -255.0 L -20.5000000596 -105.0 L -80.2500000596 -105.0 L -80.2500000596 -89.25 L 64.4999999404 -89.25 L 64.4999999404 -84.0 L -80.2500000596 -84.0 L -80.2500000596 -68.25 L 64.4999999404 -68.25 L 64.4999999404 -63.0 L -80.2500000596 -63.0 L -80.2500000596 -47.25 L 64.4999999404 -47.25 L 64.4999999404 -42.0 L -80.2500000596 -42.0 L -80.2500000596 -26.25 L 64.4999999404 -26.25 L 64.4999999404 -21.0 L -80.2500000596 -21.0 L -80.2500000596 -5.25 L 64.4999999404 -5.25 L 64.4999999404 0.0 L -80.2500000596 0.0 L -80.2500000596 15.75 L 64.4999999404 15.75 L 64.4999999404 21.0 L -80.2500000596 21.0 L -80.2500000596 36.75 L 64.4999999404 36.75 L 64.4999999404 42.0 L -80.2500000596 42.0 L -80.2500000596 57.75 L 64.4999999404 57.75 L 64.4999999404 63.0 L -80.2500000596 63.0 L -80.2500000596 78.75 L 64.4999999404 78.75 L 64.4999999404 84.0 L -85.5000000596 84.0 L -85.5000000596 -105.0 Z " stroke="#191919" stroke-width="0.35 px" style="stroke-width:0.35;stroke-miterlimit:4;stroke-dasharray:none;fill:#000000;fill-rule: evenodd "/>
<path id="Part__Mirroring_f0004"  d="M 64.5000001788 78.75 L 64.5000001788 84.0 L -85.4999998212 84.0 L -85.4999998212 -105.0 L -85.4999998212 -110.25 L -25.7499998212 -110.25 L -25.7499998212 -225.0 L -45.4999998212 -225.0 L -45.4999998212 -255.0 L -20.4999998212 -255.0 L -20.4999998212 -105.0 L -80.2499998212 -105.0 L -80.2499998212 -89.25 L 64.5000001788 -89.25 L 64.5000001788 -84.0 L -80.2499998212 -84.0 L -80.2499998212 -68.25 L 64.5000001788 -68.25 L 64.5000001788 -63.0 L -80.2499998212 -63.0 L -80.2499998212 -47.25 L 64.5000001788 -47.25 L 64.5000001788 -42.0 L -80.2499998212 -42.0 L -80.2499998212 -26.25 L 64.5000001788 -26.25 L 64.5000001788 -21.0 L -80.2499998212 -21.0 L -80.2499998212 -5.25 L 64.5000001788 -5.25 L 64.5000001788 0.0 L -80.2499998212 0.0 L -80.2499998212 15.75 L 64.5000001788 15.75 L 64.5000001788 21.0 L -80.2499998212 21.0 L -80.2499998212 36.75 L 64.5000001788 36.75 L 64.5000001788 42.0 L -80.2499998212 42.0 L -80.2499998212 57.75 L 64.5000001788 57.75 L 64.5000001788 63.0 L -80.2499998212 63.0 L -80.2499998212 78.75 L 64.5000001788 78.75 Z " stroke="#191919" stroke-width="0.35 px" style="stroke-width:0.35;stroke-miterlimit:4;stroke-dasharray:none;fill:#000000;fill-rule: evenodd "/>
<path id="Part__Mirroring_f0005"  d="M -80.2499998212 78.75 L -80.2500000596 78.75 L 64.4999999404 78.75 L 64.5000001788 78.75 L -80.2499998212 78.75 Z " stroke="#191919" stroke-width="0.35 px" style="stroke-width:0.35;stroke-miterlimit:4;stroke-dasharray:none;fill:#000000;fill-rule: evenodd "/>
<path id="Part__Mirroring_f0006"  d="M -85.5000000596 -110.25 L -85.5000000596 -105.0 L -85.4999998212 -105.0 L -85.4999998212 -110.25 L -85.5000000596 -110.25 Z " stroke="#191919" stroke-width="0.35 px" style="stroke-width:0.35;stroke-miterlimit:4;stroke-dasharray:none;fill:#000000;fill-rule: evenodd "/>
<path id="Part__Mirroring_f0007"  d="M -25.7500000596 -110.25 L -85.5000000596 -110.25 L -85.4999998212 -110.25 L -25.7499998212 -110.25 L -25.7500000596 -110.25 Z " stroke="#191919" stroke-width="0.35 px" style="stroke-width:0.35;stroke-miterlimit:4;stroke-dasharray:none;fill:#000000;fill-rule: evenodd "/>
<path id="Part__Mirroring_f0008"  d="M -25.7500000596 -225.0 L -25.7500000596 -110.25 L -25.7499998212 -110.25 L -25.7499998212 -225.0 L -25.7500000596 -225.0 Z " stroke="#191919" stroke-width="0.35 px" style="stroke-width:0.35;stroke-miterlimit:4;stroke-dasharray:none;fill:#000000;fill-rule: evenodd "/>
<path id="Part__Mirroring_f0009"  d="M -45.5000000596 -225.0 L -25.7500000596 -225.0 L -25.7499998212 -225.0 L -45.4999998212 -225.0 L -45.5000000596 -225.0 Z " stroke="#191919" stroke-width="0.35 px" style="stroke-width:0.35;stroke-miterlimit:4;stroke-dasharray:none;fill:#000000;fill-rule: evenodd "/>
<path id="Part__Mirroring_f0010"  d="M -45.5000000596 -255.0 L -45.5000000596 -225.0 L -45.4999998212 -225.0 L -45.4999998212 -255.0 L -45.5000000596 -255.0 Z " stroke="#191919" stroke-width="0.35 px" style="stroke-width:0.35;stroke-miterlimit:4;stroke-dasharray:none;fill:#000000;fill-rule: evenodd "/>
<path id="Part__Mirroring_f0011"  d="M -20.5000000596 -255.0 L -45.5000000596 -255.0 L -45.4999998212 -255.0 L -20.4999998212 -255.0 L -20.5000000596 -255.0 Z " stroke="#191919" stroke-width="0.35 px" style="stroke-width:0.35;stroke-miterlimit:4;stroke-dasharray:none;fill:#000000;fill-rule: evenodd "/>
<path id="Part__Mirroring_f0012"  d="M -20.5000000596 -105.0 L -20.4999998212 -105.0 L -20.4999998212 -255.0 L -20.5000000596 -255.0 L -20.5000000596 -105.0 Z " stroke="#191919" stroke-width="0.35 px" style="stroke-width:0.35;stroke-miterlimit:4;stroke-dasharray:none;fill:#000000;fill-rule: evenodd "/>
<path id="Part__Mirroring_f0013"  d="M -20.5000000596 -105.0 L -20.4999998212 -105.0 L -80.2499998212 -105.0 L -80.2500000596 -105.0 L -20.5000000596 -105.0 Z " stroke="#191919" stroke-width="0.35 px" style="stroke-width:0.35;stroke-miterlimit:4;stroke-dasharray:none;fill:#000000;fill-rule: evenodd "/>
<path id="Part__Mirroring_f0014"  d="M -80.2499998212 -105.0 L -80.2500000596 -105.0 L -80.2500000596 -89.25 L -80.2499998212 -89.25 L -80.2499998212 -105.0 Z " stroke="#191919" stroke-width="0.35 px" style="stroke-width:0.35;stroke-miterlimit:4;stroke-dasharray:none;fill:#000000;fill-rule: evenodd "/>
<path id="Part__Mirroring_f0015"  d="M -80.2499998212 -89.25 L -80.2500000596 -89.25 L 64.4999999404 -89.25 L 64.5000001788 -89.25 L -80.2499998212 -89.25 Z " stroke="#191919" stroke-width="0.35 px" style="stroke-width:0.35;stroke-miterlimit:4;stroke-dasharray:none;fill:#000000;fill-rule: evenodd "/>
<path id="Part__Mirroring_f0016"  d="M 64.5000001788 -89.25 L 64.4999999404 -89.25 L 64.4999999404 -84.0 L 64.5000001788 -84.0 L 64.5000001788 -89.25 Z " stroke="#191919" stroke-width="0.35 px" style="stroke-width:0.35;stroke-miterlimit:4;stroke-dasharray:none;fill:#000000;fill-rule: evenodd "/>
<path id="Part__Mirroring_f0017"  d="M 64.5000001788 -84.0 L 64.4999999404 -84.0 L -80.2500000596 -84.0 L -80.2499998212 -84.0 L 64.5000001788 -84.0 Z " stroke="#191919" stroke-width="0.35 px" style="stroke-width:0.35;stroke-miterlimit:4;stroke-dasharray:none;fill:#000000;fill-rule: evenodd "/>
<path id="Part__Mirroring_f0018"  d="M -80.2499998212 -84.0 L -80.2500000596 -84.0 L -80.2500000596 -68.25 L -80.2499998212 -68.25 L -80.2499998212 -84.0 Z " stroke="#191919" stroke-width="0.35 px" style="stroke-width:0.35;stroke-miterlimit:4;stroke-dasharray:none;fill:#000000;fill-rule: evenodd "/>
<path id="Part__Mirroring_f0019"  d="M -80.2499998212 -68.25 L -80.2500000596 -68.25 L 64.4999999404 -68.25 L 64.5000001788 -68.25 L -80.2499998212 -68.25 Z " stroke="#191919" stroke-width="0.35 px" style="stroke-width:0.35;stroke-miterlimit:4;stroke-dasharray:none;fill:#000000;fill-rule: evenodd "/>
<path id="Part__Mirroring_f0020"  d="M 64.5000001788 -68.25 L 64.4999999404 -68.25 L 64.4999999404 -63.0 L 64.5000001788 -63.0 L 64.5000001788 -68.25 Z " stroke="#191919" stroke-width="0.35 px" style="stroke-width:0.35;stroke-miterlimit:4;stroke-dasharray:none;fill:#000000;fill-rule: evenodd "/>
<path id="Part__Mirroring_f0021"  d="M 64.5000001788 -63.0 L 64.4999999404 -63.0 L -80.2500000596 -63.0 L -80.2499998212 -63.0 L 64.5000001788 -63.0 Z " stroke="#191919" stroke-width="0.35 px" style="stroke-width:0.35;stroke-miterlimit:4;stroke-dasharray:none;fill:#000000;fill-rule: evenodd "/>
<path id="Part__Mirroring_f0022"  d="M -80.2499998212 -63.0 L -80.2500000596 -63.0 L -80.2500000596 -47.25 L -80.2499998212 -47.25 L -80.2499998212 -63.0 Z " stroke="#191919" stroke-width="0.35 px" style="stroke-width:0.35;stroke-miterlimit:4;stroke-dasharray:none;fill:#000000;fill-rule: evenodd "/>
<path id="Part__Mirroring_f0023"  d="M -80.2499998212 -47.25 L -80.2500000596 -47.25 L 64.4999999404 -47.25 L 64.5000001788 -47.25 L -80.2499998212 -47.25 Z " stroke="#191919" stroke-width="0.35 px" style="stroke-width:0.35;stroke-miterlimit:4;stroke-dasharray:none;fill:#000000;fill-rule: evenodd "/>
<path id="Part__Mirroring_f0024"  d="M 64.5000001788 -47.25 L 64.4999999404 -47.25 L 64.4999999404 -42.0 L 64.5000001788 -42.0 L 64.5000001788 -47.25 Z " stroke="#191919" stroke-width="0.35 px" style="stroke-width:0.35;stroke-miterlimit:4;stroke-dasharray:none;fill:#000000;fill-rule: evenodd "/>
<path id="Part__Mirroring_f0025"  d="M 64.5000001788 -42.0 L 64.4999999404 -42.0 L -80.2500000596 -42.0 L -80.2499998212 -42.0 L 64.5000001788 -42.0 Z " stroke="#191919" stroke-width="0.35 px" style="stroke-width:0.35;stroke-miterlimit:4;stroke-dasharray:none;fill:#000000;fill-rule: evenodd "/>
<path id="Part__Mirroring_f0026"  d="M -80.2499998212 -42.0 L -80.2500000596 -42.0 L -80.2500000596 -26.25 L -80.2499998212 -26.25 L -80.2499998212 -42.0 Z " stroke="#191919" stroke-width="0.35 px" style="stroke-width:0.35;stroke-miterlimit:4;stroke-dasharray:none;fill:#000000;fill-rule: evenodd "/>
<path id="Part__Mirroring_f0027"  d="M -80.2499998212 -26.25 L -80.2500000596 -26.25 L 64.4999999404 -26.25 L 64.5000001788 -26.25 L -80.2499998212 -26.25 Z " stroke="#191919" stroke-width="0.35 px" style="stroke-width:0.35;stroke-miterlimit:4;stroke-dasharray:none;fill:#000000;fill-rule: evenodd "/>
<path id="Part__Mirroring_f0028"  d="M 64.5000001788 -26.25 L 64.4999999404 -26.25 L 64.4999999404 -21.0 L 64.5000001788 -21.0 L 64.5000001788 -26.25 Z " stroke="#191919" stroke-width="0.35 px" style="stroke-width:0.35;stroke-miterlimit:4;stroke-dasharray:none;fill:#000000;fill-rule: evenodd "/>
<path id="Part__Mirroring_f0029"  d="M 64.5000001788 -21.0 L 64.4999999404 -21.0 L -80.2500000596 -21.0 L -80.2499998212 -21.0 L 64.5000001788 -21.0 Z " stroke="#191919" stroke-width="0.35 px" style="stroke-width:0.35;stroke-miterlimit:4;stroke-dasharray:none;fill:#000000;fill-rule: evenodd "/>
<path id="Part__Mirroring_f0030"  d="M -80.2499998212 -21.0 L -80.2500000596 -21.0 L -80.2500000596 -5.25 L -80.2499998212 -5.25 L -80.2499998212 -21.0 Z " stroke="#191919" stroke-width="0.35 px" style="stroke-width:0.35;stroke-miterlimit:4;stroke-dasharray:none;fill:#000000;fill-rule: evenodd "/>
<path id="Part__Mirroring_f0031"  d="M -80.2499998212 -5.25 L -80.2500000596 -5.25 L 64.4999999404 -5.25 L 64.5000001788 -5.25 L -80.2499998212 -5.25 Z " stroke="#191919" stroke-width="0.35 px" style="stroke-width:0.35;stroke-miterlimit:4;stroke-dasharray:none;fill:#000000;fill-rule: evenodd "/>
<path id="Part__Mirroring_f0032"  d="M 64.5000001788 -5.25 L 64.4999999404 -5.25 L 64.4999999404 0.0 L 64.5000001788 0.0 L 64.5000001788 -5.25 Z " stroke="#191919" stroke-width="0.35 px" style="stroke-width:0.35;stroke-miterlimit:4;stroke-dasharray:none;fill:#000000;fill-rule: evenodd "/>
<path id="Part__Mirroring_f0033"  d="M 64.5000001788 0.0 L 64.4999999404 0.0 L -80.2500000596 0.0 L -80.2499998212 0.0 L 64.5000001788 0.0 Z " stroke="#191919" stroke-width="0.35 px" style="stroke-width:0.35;stroke-miterlimit:4;stroke-dasharray:none;fill:#000000;fill-rule: evenodd "/>
<path id="Part__Mirroring_f0034"  d="M -80.2499998212 0.0 L -80.2500000596 0.0 L -80.2500000596 15.75 L -80.2499998212 15.75 L -80.2499998212 0.0 Z " stroke="#191919" stroke-width="0.35 px" style="stroke-width:0.35;stroke-miterlimit:4;stroke-dasharray:none;fill:#000000;fill-rule: evenodd "/>
<path id="Part__Mirroring_f0035"  d="M -80.2499998212 15.75 L -80.2500000596 15.75 L 64.4999999404 15.75 L 64.5000001788 15.75 L -80.2499998212 15.75 Z " stroke="#191919" stroke-width="0.35 px" style="stroke-width:0.35;stroke-miterlimit:4;stroke-dasharray:none;fill:#000000;fill-rule: evenodd "/>
<path id="Part__Mirroring_f0036"  d="M 64.5000001788 15.75 L 64.4999999404 15.75 L 64.4999999404 21.0 L 64.5000001788 21.0 L 64.5000001788 15.75 Z " stroke="#191919" stroke-width="0.35 px" style="stroke-width:0.35;stroke-miterlimit:4;stroke-dasharray:none;fill:#000000;fill-rule: evenodd "/>
<path id="Part__Mirroring_f0037"  d="M 64.5000001788 21.0 L 64.4999999404 21.0 L -80.2500000596 21.0 L -80.2499998212 21.0 L 64.5000001788 21.0 Z " stroke="#191919" stroke-width="0.35 px" style="stroke-width:0.35;stroke-miterlimit:4;stroke-dasharray:none;fill:#000000;fill-rule: evenodd "/>
<path id="Part__Mirroring_f0038"  d="M -80.2499998212 21.0 L -80.2500000596 21.0 L -80.2500000596 36.75 L -80.2499998212 36.75 L -80.2499998212 21.0 Z " stroke="#191919" stroke-width="0.35 px" style="stroke-width:0.35;stroke-miterlimit:4;stroke-dasharray:none;fill:#000000;fill-rule: evenodd "/>
<path id="Part__Mirroring_f0039"  d="M -80.2499998212 36.75 L -80.2500000596 36.75 L 64.4999999404 36.75 L 64.5000001788 36.75 L -80.2499998212 36.75 Z " stroke="#191919" stroke-width="0.35 px" style="stroke-width:0.35;stroke-miterlimit:4;stroke-dasharray:none;fill:#000000;fill-rule: evenodd "/>
<path id="Part__Mirroring_f0040"  d="M 64.5000001788 36.75 L 64.4999999404 36.75 L 64.4999999404 42.0 L 64.5000001788 42.0 L 64.5000001788 36.75 Z " stroke="#191919" stroke-width="0.35 px" style="stroke-width:0.35;stroke-miterlimit:4;stroke-dasharray:none;fill:#000000;fill-rule: evenodd "/>
<path id="Part__Mirroring_f0041"  d="M 64.5000001788 42.0 L 64.4999999404 42.0 L -80.2500000596 42.0 L -80.2499998212 42.0 L 64.5000001788 42.0 Z " stroke="#191919" stroke-width="0.35 px" style="stroke-width:0.35;stroke-miterlimit:4;stroke-dasharray:none;fill:#000000;fill-rule: evenodd "/>
<path id="Part__Mirroring_f0042"  d="M -80.2499998212 42.0 L -80.2500000596 42.0 L -80.2500000596 57.75 L -80.2499998212 57.75 L -80.2499998212 42.0 Z " stroke="#191919" stroke-width="0.35 px" style="stroke-width:0.35;stroke-miterlimit:4;stroke-dasharray:none;fill:#000000;fill-rule: evenodd "/>
<path id="Part__Mirroring_f0043"  d="M -80.2499998212 57.75 L -80.2500000596 57.75 L 64.4999999404 57.75 L 64.5000001788 57.75 L -80.2499998212 57.75 Z " stroke="#191919" stroke-width="0.35 px" style="stroke-width:0.35;stroke-miterlimit:4;stroke-dasharray:none;fill:#000000;fill-rule: evenodd "/>
<path id="Part__Mirroring_f0044"  d="M 64.5000001788 57.75 L 64.4999999404 57.75 L 64.4999999404 63.0 L 64.5000001788 63.0 L 64.5000001788 57.75 Z " stroke="#191919" stroke-width="0.35 px" style="stroke-width:0.35;stroke-miterlimit:4;stroke-dasharray:none;fill:#000000;fill-rule: evenodd "/>
<path id="Part__Mirroring_f0045"  d="M 64.5000001788 63.0 L 64.4999999404 63.0 L -80.2500000596 63.0 L -80.2499998212 63.0 L 64.5000001788 63.0 Z " stroke="#191919" stroke-width="0.35 px" style="stroke-width:0.35;stroke-miterlimit:4;stroke-dasharray:none;fill:#000000;fill-rule: evenodd "/>
<path id="Part__Mirroring_f0046"  d="M -80.2499998212 63.0 L -80.2500000596 63.0 L -80.2500000596 78.75 L -80.2499998212 78.75 L -80.2499998212 63.0 Z " stroke="#191919" stroke-width="0.35 px" style="stroke-width:0.35;stroke-miterlimit:4;stroke-dasharray:none;fill:#000000;fill-rule: evenodd "/>
<title>LinearPattern (Mirror #1)</title>
</g>
</svg>