<?xml version="1.0"?>
<!DOCTYPE svg PUBLIC "-//W3C//DTD SVG 1.1//EN" "http://www.w3.org/Graphics/SVG/1.1/DTD/svg11.dtd">
<svg width="166.260000061mm" height="348.260000001mm" viewBox="0 0 166.260000061 348.260000001" xmlns="http://www.w3.org/2000/svg" version="1.1">
<g id="Part__Mirroring" transform="translate(89.630000,92.630000) scale(1,-1)">
<path id="Part__Mirroring_f0000"  d="M -88.0000000596 78.0 L 61.9999999404 78.0 L 62.0000001788 78.0 L -87.9999998212 78.0 L -88.0000000596 78.0 Z " stroke="#191919" stroke-width="0.35 px" style="stroke-width:0.35;stroke-miterlimit:4;stroke-dasharray:none;fill:#000000;fill-rule: evenodd "/>
<path id="Part__Mirroring_f0001"  d="M 62.0000001788 71.5 L 61.9999999404 71.5 L 61.9999999404 78.0 L 62.0000001788 78.0 L 62.0000001788 71.5 Z " stroke="#191919" stroke-width="0.35 px" style="stroke-width:0.35;stroke-miterlimit:4;stroke-dasharray:none;fill:#000000;fill-rule: evenodd "/>
<path id="Part__Mirroring_f0002"  d="M -88.0000000596 -104.0 L -88.0000000596 78.0 L -87.9999998212 78.0 L -87.9999998212 -104.0 L -88.0000000596 -104.0 Z " stroke="#191919" stroke-width="0.35 px" style="stroke-width:0.35;stroke-miterlimit:4;stroke-dasharray:none;fill:#000000;fill-rule: evenodd "/>
<path id="Part__Mirroring_f0003"  d="M -88.0000000596 -104.0 L -88.0000000596 -110.5 L -29.5000000596 -110.5 L -29.5000000596 -224.0 L -48.0000000596 -224.0 L -48.0000000596 -254.0 L -23.0000000596 -254.0 L -23.0000000596 -104.0 L -81.5000000596 -104.0 L -81.5000000596 -84.5 L 61.9999999404 -84.5 L 61.9999999404 -78.0 L -81.5000000596 -78.0 L -81.5000000596 -58.5 L 61.9999999404 -58.5 L 61.9999999404 -52.0 L -81.5000000596 -52.0 L -81.5000000596 -32.5 L 61.9999999404 -32.5 L 61.9999999404 -26.0 L -81.5000000596 -26.0 L -81.5000000596 -6.5 L 61.9999999404 -6.5 L 61.9999999404 0.0 L -81.5000000596 0.0 L -81.5000000596 19.5 L 61.9999999404 19.5 L 61.9999999404 26.0 L -81.5000000596 26.0 L -81.5000000596 45.5 L 61.9999999404 45.5 L 61.9999999404 52.0 L -81.5000000596 52.0 L -81.5000000596 71.5 L 61.9999999404 71.5 L 61.9999999404 78.0 L -88.0000000596 78.0 L -88.0000000596 -104.0 Z " stroke="#191919" stroke-width="0.35 px" style="stroke-width:0.35;stroke-miterlimit:4;stroke-dasharray:none;fill:#000000;fill-rule: evenodd "/>
<path id="Part__Mirroring_f0004"  d="M 62.0000001788 71.5 L 62.0000001788 78.0 L -87.9999998212 78.0 L -87.9999998212 -104.0 L -87.9999998212 -110.5 L -29.4999998212 -110.5 L -29.4999998212 -224.0 L -47.9999998212 -224.0 L -47.9999998212 -254.0 L -22.9999998212 -254.0 L -22.9999998212 -104.0 L -81.4999998212 -104.0 L -81.4999998212 -84.5 L 62.0000001788 -84.5 L 62.0000001788 -78.0 L -81.4999998212 -78.0 L -81.4999998212 -58.5 L 62.0000001788 -58.5 L 62.0000001788 -52.0 L -81.4999998212 -52.0 L -81.4999998212 -32.5 L 62.0000001788 -32.5 L 62.0000001788 -26.0 L -81.4999998212 -26.0 L -81.4999998212 -6.5 L 62.0000001788 -6.5 L 62.0000001788 0.0 L -81.4999998212 0.0 L -81.4999998212 19.5 L 62.0000001788 19.5 L 62.0000001788 26.0 L -81.4999998212 26.0 L -81.4999998212 45.5 L 62.0000001788 45.5 L 62.0000001788 52.0 L -81.4999998212 52.0 L -81.4999998212 71.5 L 62.0000001788 71.5 Z " stroke="#191919" stroke-width="0.35 px" style="stroke-width:0.35;stroke-miterlimit:4;stroke-dasharray:none;fill:#000000;fill-rule: evenodd "/>
<path id="Part__Mirroring_f0005"  d="M -81.4999998212 71.5 L -81.5000000596 71.5 L 61.9999999404 71.5 L 62.0000001788 71.5 L -81.4999998212 71.5 Z " stroke="#191919" stroke-width="0.35 px" style="stroke-width:0.35;stroke-miterlimit:4;stroke-dasharray:none;fill:#000000;fill-rule: evenodd "/>
<path id="Part__Mirroring_f0006"  d="M -88.0000000596 -110.5 L -88.0000000596 -104.0 L -87.9999998212 -104.0 L -87.9999998212 -110.5 L -88.0000000596 -110.5 Z " stroke="#191919" stroke-width="0.35 px" style="stroke-width:0.35;stroke-miterlimit:4;stroke-dasharray:none;fill:#000000;fill-rule: evenodd "/>
<path id="Part__Mirroring_f0007"  d="M -29.5000000596 -110.5 L -88.0000000596 -110.5 L -87.9999998212 -110.5 L -29.4999998212 -110.5 L -29.5000000596 -110.5 Z " stroke="#191919" stroke-width="0.35 px" style="stroke-width:0.35;stroke-miterlimit:4;stroke-dasharray:none;fill:#000000;fill-rule: evenodd "/>
<path id="Part__Mirroring_f0008"  d="M -29.5000000596 -224.0 L -29.5000000596 -110.5 L -29.4999998212 -110.5 L -29.4999998212 -224.0 L -29.5000000596 -224.0 Z " stroke="#191919" stroke-width="0.35 px" style="stroke-width:0.35;stroke-miterlimit:4;stroke-dasharray:none;fill:#000000;fill-rule: evenodd "/>
<path id="Part__Mirroring_f0009"  d="M -48.0000000596 -224.0 L -29.5000000596 -224.0 L -29.4999998212 -224.0 L -47.9999998212 -224.0 L -48.0000000596 -224.0 Z " stroke="#191919" stroke-width="0.35 px" style="stroke-width:0.35;stroke-miterlimit:4;stroke-dasharray:none;fill:#000000;fill-rule: evenodd "/>
<path id="Part__Mirroring_f0010"  d="M -48.0000000596 -254.0 L -48.0000000596 -224.0 L -47.9999998212 -224.0 L -47.9999998212 -254.0 L -48.0000000596 -254.0 Z " stroke="#191919" stroke-width="0.35 px" style="stroke-width:0.35;stroke-miterlimit:4;stroke-dasharray:none;fill:#000000;fill-rule: evenodd "/>
<path id="Part__Mirroring_f0011"  d="M -23.0000000596 -254.0 L -48.0000000596 -254.0 L -47.9999998212 -254.0 L -22.9999998212 -254.0 L -23.0000000596 -254.0 Z " stroke="#191919" stroke-width="0.35 px" style="stroke-width:0.35;stroke-miterlimit:4;stroke-dasharray:none;fill:#000000;fill-rule: evenodd "/>
<path id="Part__Mirroring_f0012"  d="M -23.0000000596 -104.0 L -22.9999998212 -104.0 L -22.9999998212 -254.0 L -23.0000000596 -254.0 L -23.0000000596 -104.0 Z " stroke="#191919" stroke-width="0.35 px" style="stroke-width:0.35;stroke-miterlimit:4;stroke-dasharray:none;fill:#000000;fill-rule: evenodd "/>
<path id="Part__Mirroring_f0013"  d="M -23.0000000596 -104.0 L -22.9999998212 -104.0 L -81.4999998212 -104.0 L -81.5000000596 -104.0 L -23.0000000596 -104.0 Z " stroke="#191919" stroke-width="0.35 px" style="stroke-width:0.35;stroke-miterlimit:4;stroke-dasharray:none;fill:#000000;fill-rule: evenodd "/>
<path id="Part__Mirroring_f0014"  d="M -81.4999998212 -104.0 L -81.5000000596 -104.0 L -81.5000000596 -84.5 L -81.4999998212 -84.5 L -81.4999998212 -104.0 Z " stroke="#191919" stroke-width="0.35 px" style="stroke-width:0.35;stroke-miterlimit:4;stroke-dasharray:none;fill:#000000;fill-rule: evenodd "/>
<path id="Part__Mirroring_f0015"  d="M -81.4999998212 -84.5 L -81.5000000596 -84.5 L 61.9999999404 -84.5 L 62.0000001788 -84.5 L -81.4999998212 -84.5 Z " stroke="#191919" stroke-width="0.35 px" style="stroke-width:0.35;stroke-miterlimit:4;stroke-dasharray:none;fill:#000000;fill-rule: evenodd "/>
<path id="Part__Mirroring_f0016"  d="M 62.0000001788 -84.5 L 61.9999999404 -84.5 L 61.9999999404 -78.0 L 62.0000001788 -78.0 L 62.0000001788 -84.5 Z " stroke="#191919" stroke-width="0.35 px" style="stroke-width:0.35;stroke-miterlimit:4;stroke-dasharray:none;fill:#000000;fill-rule: evenodd "/>
<path id="Part__Mirroring_f0017"  d="M 62.0000001788 -78.0 L 61.9999999404 -78.0 L -81.5000000596 -78.0 L -81.4999998212 -78.0 L 62.0000001788 -78.0 Z " stroke="#191919" stroke-width="0.35 px" style="stroke-width:0.35;stroke-miterlimit:4;stroke-dasharray:none;fill:#000000;fill-rule: evenodd "/>
<path id="Part__Mirroring_f0018"  d="M -81.4999998212 -78.0 L -81.5000000596 -78.0 L -81.5000000596 -58.5 L -81.4999998212 -58.5 L -81.4999998212 -78.0 Z " stroke="#191919" stroke-width="0.35 px" style="stroke-width:0.35;stroke-miterlimit:4;stroke-dasharray:none;fill:#000000;fill-rule: evenodd "/>
<path id="Part__Mirroring_f0019"  d="M -81.4999998212 -58.5 L -81.5000000596 -58.5 L 61.9999999404 -58.5 L 62.0000001788 -58.5 L -81.4999998212 -58.5 Z " stroke="#191919" stroke-width="0.35 px" style="stroke-width:0.35;stroke-miterlimit:4;stroke-dasharray:none;fill:#000000;fill-rule: evenodd "/>
<path id="Part__Mirroring_f0020"  d="M 62.0000001788 -58.5 L 61.9999999404 -58.5 L 61.9999999404 -52.0 L 62.0000001788 -52.0 L 62.0000001788 -58.5 Z " stroke="#191919" stroke-width="0.35 px" style="stroke-width:0.35;stroke-miterlimit:4;stroke-dasharray:none;fill:#000000;fill-rule: evenodd "/>
<path id="Part__Mirroring_f0021"  d="M 62.0000001788 -52.0 L 61.9999999404 -52.0 L -81.5000000596 -52.0 L -81.4999998212 -52.0 L 62.0000001788 -52.0 Z " stroke="#191919" stroke-width="0.35 px" style="stroke-width:0.35;stroke-miterlimit:4;stroke-dasharray:none;fill:#000000;fill-rule: evenodd "/>
<path id="Part__Mirroring_f0022"  d="M -81.4999998212 -52.0 L -81.5000000596 -52.0 L -81.5000000596 -32.5 L -81.4999998212 -32.5 L -81.4999998212 -52.0 Z " stroke="#191919" stroke-width="0.35 px" style="stroke-width:0.35;stroke-miterlimit:4;stroke-dasharray:none;fill:#000000;fill-rule: evenodd "/>
<path id="Part__Mirroring_f0023"  d="M -81.4999998212 -32.5 L -81.5000000596 -32.5 L 61.9999999404 -32.5 L 62.0000001788 -32.5 L -81.4999998212 -32.5 Z " stroke="#191919" stroke-width="0.35 px" style="stroke-width:0.35;stroke-miterlimit:4;stroke-dasharray:none;fill:#000000;fill-rule: evenodd "/>
<path id="Part__Mirroring_f0024"  d="M 62.0000001788 -32.5 L 61.9999999404 -32.5 L 61.9999999404 -26.0 L 62.0000001788 -26.0 L 62.0000001788 -32.5 Z " stroke="#191919" stroke-width="0.35 px" style="stroke-width:0.35;stroke-miterlimit:4;stroke-dasharray:none;fill:#000000;fill-rule: evenodd "/>
<path id="Part__Mirroring_f0025"  d="M 62.0000001788 -26.0 L 61.9999999404 -26.0 L -81.5000000596 -26.0 L -81.4999998212 -26.0 L 62.0000001788 -26.0 Z " stroke="#191919" stroke-width="0.35 px" style="stroke-width:0.35;stroke-miterlimit:4;stroke-dasharray:none;fill:#000000;fill-rule: evenodd "/>
<path id="Part__Mirroring_f0026"  d="M -81.4999998212 -26.0 L -81.5000000596 -26.0 L -81.5000000596 -6.5 L -81.4999998212 -6.5 L -81.4999998212 -26.0 Z " stroke="#191919" stroke-width="0.35 px" style="stroke-width:0.35;stroke-miterlimit:4;stroke-dasharray:none;fill:#000000;fill-rule: evenodd "/>
<path id="Part__Mirroring_f0027"  d="M -81.4999998212 -6.5 L -81.5000000596 -6.5 L 61.9999999404 -6.5 L 62.0000001788 -6.5 L -81.4999998212 -6.5 Z " stroke="#191919" stroke-width="0.35 px" style="stroke-width:0.35;stroke-miterlimit:4;stroke-dasharray:none;fill:#000000;fill-rule: evenodd "/>
<path id="Part__Mirroring_f0028"  d="M 62.0000001788 -6.5 L 61.9999999404 -6.5 L 61.9999999404 0.0 L 62.0000001788 0.0 L 62.0000001788 -6.5 Z " stroke="#191919" stroke-width="0.35 px" style="stroke-width:0.35;stroke-miterlimit:4;stroke-dasharray:none;fill:#000000;fill-rule: evenodd "/>
<path id="Part__Mirroring_f0029"  d="M 62.0000001788 0.0 L 61.9999999404 0.0 L -81.5000000596 0.0 L -81.4999998212 0.0 L 62.0000001788 0.0 Z " stroke="#191919" stroke-width="0.35 px" style="stroke-width:0.35;stroke-miterlimit:4;stroke-dasharray:none;fill:#000000;fill-rule: evenodd "/>
<path id="Part__Mirroring_f0030"  d="M -81.4999998212 0.0 L -81.5000000596 0.0 L -81.5000000596 19.5 L -81.4999998212 19.5 L -81.4999998212 0.0 Z " stroke="#191919" stroke-width="0.35 px" style="stroke-width:0.35;stroke-miterlimit:4;stroke-dasharray:none;fill:#000000;fill-rule: evenodd "/>
<path id="Part__Mirroring_f0031"  d="M -81.4999998212 19.5 L -81.5000000596 19.5 L 61.9999999404 19.5 L 62.0000001788 19.5 L -81.4999998212 19.5 Z " stroke="#191919" stroke-width="0.35 px" style="stroke-width:0.35;stroke-miterlimit:4;stroke-dasharray:none;fill:#000000;fill-rule: evenodd "/>
<path id="Part__Mirroring_f0032"  d="M 62.0000001788 19.5 L 61.9999999404 19.5 L 61.9999999404 26.0 L 62.0000001788 26.0 L 62.0000001788 19.5 Z " stroke="#191919" stroke-width="0.35 px" style="stroke-width:0.35;stroke-miterlimit:4;stroke-dasharray:none;fill:#000000;fill-rule: evenodd "/>
<path id="Part__Mirroring_f0033"  d="M 62.0000001788 26.0 L 61.9999999404 26.0 L -81.5000000596 26.0 L -81.4999998212 26.0 L 62.0000001788 26.0 Z " stroke="#191919" stroke-width="0.35 px" style="stroke-width:0.35;stroke-miterlimit:4;stroke-dasharray:none;fill:#000000;fill-rule: evenodd "/>
<path id="Part__Mirroring_f0034"  d="M -81.4999998212 26.0 L -81.5000000596 26.0 L -81.5000000596 45.5 L -81.4999998212 45.5 L -81.4999998212 26.0 Z " stroke="#191919" stroke-width="0.35 px" style="stroke-width:0.35;stroke-miterlimit:4;stroke-dasharray:none;fill:#000000;fill-rule: evenodd "/>
<path id="Part__Mirroring_f0035"  d="M -81.4999998212 45.5 L -81.5000000596 45.5 L 61.9999999404 45.5 L 62.0000001788 45.5 L -81.4999998212 45.5 Z " stroke="#191919" stroke-width="0.35 px" style="stroke-width:0.35;stroke-miterlimit:4;stroke-dasharray:none;fill:#000000;fill-rule: evenodd "/>
<path id="Part__Mirroring_f0036"  d="M 62.0000001788 45.5 L 61.9999999404 45.5 L 61.9999999404 52.0 L 62.0000001788 52.0 L 62.0000001788 45.5 Z " stroke="#191919" stroke-width="0.35 px" style="stroke-width:0.35;stroke-miterlimit:4;stroke-dasharray:none;fill:#000000;fill-rule: evenodd "/>
<path id="Part__Mirroring_f0037"  d="M 62.0000001788 52.0 L 61.9999999404 52.0 L -81.5000000596 52.0 L -81.4999998212 52.0 L 62.0000001788 52.0 Z " stroke="#191919" stroke-width="0.35 px" style="stroke-width:0.35;stroke-miterlimit:4;stroke-dasharray:none;fill:#000000;fill-rule: evenodd "/>
<path id="Part__Mirroring_f0038"  d="M -81.4999998212 52.0 L -81.5000000596 52.0 L -81.5000000596 71.5 L -81.4999998212 71.5 L -81.4999998212 52.0 Z " stroke="#191919" stroke-width="0.35 px" style="stroke-width:0.35;stroke-miterlimit:4;stroke-dasharray:none;fill:#000000;fill-rule: evenodd "/>
<title>LinearPattern (Mirror #1)</title>
</g>
<g id="LinearPattern" transform="translate(89.630000,92.630000) scale(1,-1)">
<path id="LinearPattern_f0000"  d="M -75.0 91.0 L -75.0 91.0 L 75.0 91.0 L 75.0 91.0 L -75.0 91.0 Z " stroke="#191919" stroke-width="0.35 px" style="stroke-width:0.35;stroke-miterlimit:4;stroke-dasharray:none;fill:#000000;fill-rule: evenodd "/>
<path id="LinearPattern_f0001"  d="M -75.0 91.0 L -75.0 84.5 L -75.0 84.5 L -75.0 91.0 L -75.0 91.0 Z " stroke="#191919" stroke-width="0.35 px" style="stroke-width:0.35;stroke-miterlimit:4;stroke-dasharray:none;fill:#000000;fill-rule: evenodd "/>
<path id="LinearPattern_f0002"  d="M 75.0 91.0 L 75.0 91.0 L 75.0 -91.0 L 75.0 -91.0 L 75.0 91.0 Z " stroke="#191919" stroke-width="0.35 px" style="stroke-width:0.35;stroke-miterlimit:4;stroke-dasharray:none;fill:#000000;fill-rule: evenodd "/>
<path id="LinearPattern_f0003"  d="M -75.0 84.5 L -75.0 91.0 L 75.0 91.0 L 75.0 -91.0 L 75.0 -97.5 L 16.5 -97.5 L 16.5 -211.0 L 35.0 -211.0 L 35.0 -241.0 L 10.0 -241.0 L 10.0 -91.0 L 68.5 -91.0 L 68.5 -71.5 L -75.0 -71.5 L -75.0 -65.0 L 68.5 -65.0 L 68.5 -45.5 L -75.0 -45.5 L -75.0 -39.0 L 68.5 -39.0 L 68.5 -19.5 L -75.0 -19.5 L -75.0 -13.0 L 68.5 -13.0 L 68.5 6.5 L -75.0 6.5 L -75.0 13.0 L 68.5 13.0 L 68.5 32.5 L -75.0 32.5 L -75.0 39.0 L 68.5 39.0 L 68.5 58.5 L -75.0 58.5 L -75.0 65.0 L 68.5 65.0 L 68.5 84.5 L -75.0 84.5 Z " stroke="#191919" stroke-width="0.35 px" style="stroke-width:0.35;stroke-miterlimit:4;stroke-dasharray:none;fill:#000000;fill-rule: evenodd "/>
<path id="LinearPattern_f0004"  d="M 75.0 -91.0 L 75.0 -97.5 L 16.5 -97.5 L 16.5 -211.0 L 35.0 -211.0 L 35.0 -241.0 L 10.0 -241.0 L 10.0 -91.0 L 68.5 -91.0 L 68.5 -71.5 L -75.0 -71.5 L -75.0 -65.0 L 68.5 -65.0 L 68.5 -45.5 L -75.0 -45.5 L -75.0 -39.0 L 68.5 -39.0 L 68.5 -19.5 L -75.0 -19.5 L -75.0 -13.0 L 68.5 -13.0 L 68.5 6.5 L -75.0 6.5 L -75.0 13.0 L 68.5 13.0 L 68.5 32.5 L -75.0 32.5 L -75.0 39.0 L 68.5 39.0 L 68.5 58.5 L -75.0 58.5 L -75.0 65.0 L 68.5 65.0 L 68.5 84.5 L -75.0 84.5 L -75.0 91.0 L 75.0 91.0 L 75.0 -91.0 Z " stroke="#191919" stroke-width="0.35 px" style="stroke-width:0.35;stroke-miterlimit:4;stroke-dasharray:none;fill:#000000;fill-rule: evenodd "/>
<path id="LinearPattern_f0005"  d="M -75.0 84.5 L -75.0 84.5 L 68.5 84.5 L 68.5 84.5 L -75.0 84.5 Z " stroke="#191919" stroke-width="0.35 px" style="stroke-width:0.35;stroke-miterlimit:4;stroke-dasharray:none;fill:#000000;fill-rule: evenodd "/>
<path id="LinearPattern_f0006"  d="M 75.0 -91.0 L 75.0 -91.0 L 75.0 -97.5 L 75.0 -97.5 L 75.0 -91.0 Z " stroke="#191919" stroke-width="0.35 px" style="stroke-width:0.35;stroke-miterlimit:4;stroke-dasharray:none;fill:#000000;fill-rule: evenodd "/>
<path id="LinearPattern_f0007"  d="M 75.0 -97.5 L 75.0 -97.5 L 16.5 -97.5 L 16.5 -97.5 L 75.0 -97.5 Z " stroke="#191919" stroke-width="0.35 px" style="stroke-width:0.35;stroke-miterlimit:4;stroke-dasharray:none;fill:#000000;fill-rule: evenodd "/>
<path id="LinearPattern_f0008"  d="M 16.5 -97.5 L 16.5 -97.5 L 16.5 -211.0 L 16.5 -211.0 L 16.5 -97.5 Z " stroke="#191919" stroke-width="0.35 px" style="stroke-width:0.35;stroke-miterlimit:4;stroke-dasharray:none;fill:#000000;fill-rule: evenodd "/>
<path id="LinearPattern_f0009"  d="M 16.5 -211.0 L 16.5 -211.0 L 35.0 -211.0 L 35.0 -211.0 L 16.5 -211.0 Z " stroke="#191919" stroke-width="0.35 px" style="stroke-width:0.35;stroke-miterlimit:4;stroke-dasharray:none;fill:#000000;fill-rule: evenodd "/>
<path id="LinearPattern_f0010"  d="M 35.0 -211.0 L 35.0 -211.0 L 35.0 -241.0 L 35.0 -241.0 L 35.0 -211.0 Z " stroke="#191919" stroke-width="0.35 px" style="stroke-width:0.35;stroke-miterlimit:4;stroke-dasharray:none;fill:#000000;fill-rule: evenodd "/>
<path id="LinearPattern_f0011"  d="M 35.0 -241.0 L 35.0 -241.0 L 10.0 -241.0 L 10.0 -241.0 L 35.0 -241.0 Z " stroke="#191919" stroke-width="0.35 px" style="stroke-width:0.35;stroke-miterlimit:4;stroke-dasharray:none;fill:#000000;fill-rule: evenodd "/>
<path id="LinearPattern_f0012"  d="M 10.0 -241.0 L 10.0 -241.0 L 10.0 -91.0 L 10.0 -91.0 L 10.0 -241.0 Z " stroke="#191919" stroke-width="0.35 px" style="stroke-width:0.35;stroke-miterlimit:4;stroke-dasharray:none;fill:#000000;fill-rule: evenodd "/>
<path id="LinearPattern_f0013"  d="M 10.0 -91.0 L 68.5 -91.0 L 68.5 -91.0 L 10.0 -91.0 L 10.0 -91.0 Z " stroke="#191919" stroke-width="0.35 px" style="stroke-width:0.35;stroke-miterlimit:4;stroke-dasharray:none;fill:#000000;fill-rule: evenodd "/>
<path id="LinearPattern_f0014"  d="M 68.5 -71.5 L 68.5 -71.5 L 68.5 -91.0 L 68.5 -91.0 L 68.5 -71.5 Z " stroke="#191919" stroke-width="0.35 px" style="stroke-width:0.35;stroke-miterlimit:4;stroke-dasharray:none;fill:#000000;fill-rule: evenodd "/>
<path id="LinearPattern_f0015"  d="M -75.0 -71.5 L -75.0 -71.5 L 68.5 -71.5 L 68.5 -71.5 L -75.0 -71.5 Z " stroke="#191919" stroke-width="0.35 px" style="stroke-width:0.35;stroke-miterlimit:4;stroke-dasharray:none;fill:#000000;fill-rule: evenodd "/>
<path id="LinearPattern_f0016"  d="M -75.0 -65.0 L -75.0 -71.5 L -75.0 -71.5 L -75.0 -65.0 L -75.0 -65.0 Z " stroke="#191919" stroke-width="0.35 px" style="stroke-width:0.35;stroke-miterlimit:4;stroke-dasharray:none;fill:#000000;fill-rule: evenodd "/>
<path id="LinearPattern_f0017"  d="M 68.5 -65.0 L 68.5 -65.0 L -75.0 -65.0 L -75.0 -65.0 L 68.5 -65.0 Z " stroke="#191919" stroke-width="0.35 px" style="stroke-width:0.35;stroke-miterlimit:4;stroke-dasharray:none;fill:#000000;fill-rule: evenodd "/>
<path id="LinearPattern_f0018"  d="M 68.5 -45.5 L 68.5 -45.5 L 68.5 -65.0 L 68.5 -65.0 L 68.5 -45.5 Z " stroke="#191919" stroke-width="0.35 px" style="stroke-width:0.35;stroke-miterlimit:4;stroke-dasharray:none;fill:#000000;fill-rule: evenodd "/>
<path id="LinearPattern_f0019"  d="M -75.0 -45.5 L -75.0 -45.5 L 68.5 -45.5 L 68.5 -45.5 L -75.0 -45.5 Z " stroke="#191919" stroke-width="0.35 px" style="stroke-width:0.35;stroke-miterlimit:4;stroke-dasharray:none;fill:#000000;fill-rule: evenodd "/>
<path id="LinearPattern_f0020"  d="M -75.0 -39.0 L -75.0 -45.5 L -75.0 -45.5 L -75.0 -39.0 L -75.0 -39.0 Z " stroke="#191919" stroke-width="0.35 px" style="stroke-width:0.35;stroke-miterlimit:4;stroke-dasharray:none;fill:#000000;fill-rule: evenodd "/>
<path id="LinearPattern_f0021"  d="M 68.5 -39.0 L 68.5 -39.0 L -75.0 -39.0 L -75.0 -39.0 L 68.5 -39.0 Z " stroke="#191919" stroke-width="0.35 px" style="stroke-width:0.35;stroke-miterlimit:4;stroke-dasharray:none;fill:#000000;fill-rule: evenodd "/>
<path id="LinearPattern_f0022"  d="M 68.5 -19.5 L 68.5 -19.5 L 68.5 -39.0 L 68.5 -39.0 L 68.5 -19.5 Z " stroke="#191919" stroke-width="0.35 px" style="stroke-width:0.35;stroke-miterlimit:4;stroke-dasharray:none;fill:#000000;fill-rule: evenodd "/>
<path id="LinearPattern_f0023"  d="M -75.0 -19.5 L -75.0 -19.5 L 68.5 -19.5 L 68.5 -19.5 L -75.0 -19.5 Z " stroke="#191919" stroke-width="0.35 px" style="stroke-width:0.35;stroke-miterlimit:4;stroke-dasharray:none;fill:#000000;fill-rule: evenodd "/>
<path id="LinearPattern_f0024"  d="M -75.0 -13.0 L -75.0 -19.5 L -75.0 -19.5 L -75.0 -13.0 L -75.0 -13.0 Z " stroke="#191919" stroke-width="0.35 px" style="stroke-width:0.35;stroke-miterlimit:4;stroke-dasharray:none;fill:#000000;fill-rule: evenodd "/>
<path id="LinearPattern_f0025"  d="M 68.5 -13.0 L 68.5 -13.0 L -75.0 -13.0 L -75.0 -13.0 L 68.5 -13.0 Z " stroke="#191919" stroke-width="0.35 px" style="stroke-width:0.35;stroke-miterlimit:4;stroke-dasharray:none;fill:#000000;fill-rule: evenodd "/>
<path id="LinearPattern_f0026"  d="M 68.5 6.5 L 68.5 6.5 L 68.5 -13.0 L 68.5 -13.0 L 68.5 6.5 Z " stroke="#191919" stroke-width="0.35 px" style="stroke-width:0.35;stroke-miterlimit:4;stroke-dasharray:none;fill:#000000;fill-rule: evenodd "/>
<path id="LinearPattern_f0027"  d="M -75.0 6.5 L -75.0 6.5 L 68.5 6.5 L 68.5 6.5 L -75.0 6.5 Z " stroke="#191919" stroke-width="0.35 px" style="stroke-width:0.35;stroke-miterlimit:4;stroke-dasharray:none;fill:#000000;fill-rule: evenodd "/>
<path id="LinearPattern_f0028"  d="M -75.0 13.0 L -75.0 6.5 L -75.0 6.5 L -75.0 13.0 L -75.0 13.0 Z " stroke="#191919" stroke-width="0.35 px" style="stroke-width:0.35;stroke-miterlimit:4;stroke-dasharray:none;fill:#000000;fill-rule: evenodd "/>
<path id="LinearPattern_f0029"  d="M 68.5 13.0 L 68.5 13.0 L -75.0 13.0 L -75.0 13.0 L 68.5 13.0 Z " stroke="#191919" stroke-width="0.35 px" style="stroke-width:0.35;stroke-miterlimit:4;stroke-dasharray:none;fill:#000000;fill-rule: evenodd "/>
<path id="LinearPattern_f0030"  d="M 68.5 32.5 L 68.5 32.5 L 68.5 13.0 L 68.5 13.0 L 68.5 32.5 Z " stroke="#191919" stroke-width="0.35 px" style="stroke-width:0.35;stroke-miterlimit:4;stroke-dasharray:none;fill:#000000;fill-rule: evenodd "/>
<path id="LinearPattern_f0031"  d="M -75.0 32.5 L -75.0 32.5 L 68.5 32.5 L 68.5 32.5 L -75.0 32.5 Z " stroke="#191919" stroke-width="0.35 px" style="stroke-width:0.35;stroke-miterlimit:4;stroke-dasharray:none;fill:#000000;fill-rule: evenodd "/>
<path id="LinearPattern_f0032"  d="M -75.0 39.0 L -75.0 32.5 L -75.0 32.5 L -75.0 39.0 L -75.0 39.0 Z " stroke="#191919" stroke-width="0.35 px" style="stroke-width:0.35;stroke-miterlimit:4;stroke-dasharray:none;fill:#000000;fill-rule: evenodd "/>
<path id="LinearPattern_f0033"  d="M 68.5 39.0 L 68.5 39.0 L -75.0 39.0 L -75.0 39.0 L 68.5 39.0 Z " stroke="#191919" stroke-width="0.35 px" style="stroke-width:0.35;stroke-miterlimit:4;stroke-dasharray:none;fill:#000000;fill-rule: evenodd "/>
<path id="LinearPattern_f0034"  d="M 68.5 58.5 L 68.5 58.5 L 68.5 39.0 L 68.5 39.0 L 68.5 58.5 Z " stroke="#191919" stroke-width="0.35 px" style="stroke-width:0.35;stroke-miterlimit:4;stroke-dasharray:none;fill:#000000;fill-rule: evenodd "/>
<path id="LinearPattern_f0035"  d="M -75.0 58.5 L -75.0 58.5 L 68.5 58.5 L 68.5 58.5 L -75.0 58.5 Z " stroke="#191919" stroke-width="0.35 px" style="stroke-width:0.35;stroke-miterlimit:4;stroke-dasharray:none;fill:#000000;fill-rule: evenodd "/>
<path id="LinearPattern_f0036"  d="M -75.0 65.0 L -75.0 58.5 L -75.0 58.5 L -75.0 65.0 L -75.0 65.0 Z " stroke="#191919" stroke-width="0.35 px" style="stroke-width:0.35;stroke-miterlimit:4;stroke-dasharray:none;fill:#000000;fill-rule: evenodd "/>
<path id="LinearPattern_f0037"  d="M 68.5 65.0 L 68.5 65.0 L -75.0 65.0 L -75.0 65.0 L 68.5 65.0 Z " stroke="#191919" stroke-width="0.35 px" style="stroke-width:0.35;stroke-miterlimit:4;stroke-dasharray:none;fill:#000000;fill-rule: evenodd "/>
<path id="LinearPattern_f0038"  d="M 68.5 84.5 L 68.5 84.5 L 68.5 65.0 L 68.5 65.0 L 68.5 84.5 Z " stroke="#191919" stroke-width="0.35 px" style="stroke-width:0.35;stroke-miterlimit:4;stroke-dasharray:none;fill:#000000;fill-rule: evenodd "/>
<title>LinearPattern</title>
</g>
</svg>