<?xml version="1.0"?>
<!DOCTYPE svg PUBLIC "-//W3C//DTD SVG 1.1//EN" "http://www.w3.org/Graphics/SVG/1.1/DTD/svg11.dtd">
<svg width="217.260000061mm" height="401.260000001mm" viewBox="0 0 217.260000061 401.260000001" xmlns="http://www.w3.org/2000/svg" version="1.1">
<g id="Part__Mirroring" transform="translate(115.130000,119.130000) scale(1,-1)">
<path id="Part__Mirroring_f0000"  d="M -113.00000006 104.0 L 86.9999999404 104.0 L 87.0000001788 104.0 L -112.999999821 104.0 L -113.00000006 104.0 Z " stroke="#191919" stroke-width="0.35 px" style="stroke-width:0.35;stroke-miterlimit:4;stroke-dasharray:none;fill:#000000;fill-rule: evenodd "/>
<path id="Part__Mirroring_f0001"  d="M 87.0000001788 97.5 L 86.9999999404 97.5 L 86.9999999404 104.0 L 87.0000001788 104.0 L 87.0000001788 97.5 Z " stroke="#191919" stroke-width="0.35 px" style="stroke-width:0.35;stroke-miterlimit:4;stroke-dasharray:none;fill:#000000;fill-rule: evenodd "/>
<path id="Part__Mirroring_f0002"  d="M -113.00000006 -130.0 L -113.00000006 104.0 L -112.999999821 104.0 L -112.999999821 -130.0 L -113.00000006 -130.0 Z " stroke="#191919" stroke-width="0.35 px" style="stroke-width:0.35;stroke-miterlimit:4;stroke-dasharray:none;fill:#000000;fill-rule: evenodd "/>
<path id="Part__Mirroring_f0003"  d="M -113.00000006 -130.0 L -113.00000006 -136.5 L -29.5000000596 -136.5 L -29.5000000596 -250.0 L -48.0000000596 -250.0 L -48.0000000596 -280.0 L -23.0000000596 -280.0 L -23.0000000596 -130.0 L -106.50000006 -130.0 L -106.50000006 -110.5 L 86.9999999404 -110.5 L 86.9999999404 -104.0 L -106.50000006 -104.0 L -106.50000006 -84.5 L 86.9999999404 -84.5 L 86.9999999404 -78.0 L -106.50000006 -78.0 L -106.50000006 -58.5 L 86.9999999404 -58.5 L 86.9999999404 -52.0 L -106.50000006 -52.0 L -106.50000006 -32.5 L 86.9999999404 -32.5 L 86.9999999404 -26.0 L -106.50000006 -26.0 L -106.50000006 -6.5 L 86.9999999404 -6.5 L 86.9999999404 0.0 L -106.50000006 0.0 L -106.50000006 19.5 L 86.9999999404 19.5 L 86.9999999404 26.0 L -106.50000006 26.0 L -106.50000006 45.5 L 86.9999999404 45.5 L 86.9999999404 52.0 L -106.50000006 52.0 L -106.50000006 71.5 L 86.9999999404 71.5 L 86.9999999404 78.0 L -106.50000006 78.0 L -106.50000006 97.5 L 86.9999999404 97.5 L 86.9999999404 104.0 L -113.00000006 104.0 L -113.00000006 -130.0 Z " stroke="#191919" stroke-width="0.35 px" style="stroke-width:0.35;stroke-miterlimit:4;stroke-dasharray:none;fill:#000000;fill-rule: evenodd "/>
<path id="Part__Mirroring_f0004"  d="M 87.0000001788 97.5 L 87.0000001788 104.0 L -112.999999821 104.0 L -112.999999821 -130.0 L -112.999999821 -136.5 L -29.4999998212 -136.5 L -29.4999998212 -250.0 L -47.9999998212 -250.0 L -47.9999998212 -280.0 L -22.9999998212 -280.0 L -22.9999998212 -130.0 L -106.499999821 -130.0 L -106.499999821 -110.5 L 87.0000001788 -110.5 L 87.0000001788 -104.0 L -106.499999821 -104.0 L -106.499999821 -84.5 L 87.0000001788 -84.5 L 87.0000001788 -78.0 L -106.499999821 -78.0 L -106.499999821 -58.5 L 87.0000001788 -58.5 L 87.0000001788 -52.0 L -106.499999821 -52.0 L -106.499999821 -32.5 L 87.0000001788 -32.5 L 87.0000001788 -26.0 L -106.499999821 -26.0 L -106.499999821 -6.5 L 87.0000001788 -6.5 L 87.0000001788 0.0 L -106.499999821 0.0 L -106.499999821 19.5 L 87.0000001788 19.5 L 87.0000001788 26.0 L -106.499999821 26.0 L -106.499999821 45.5 L 87.0000001788 45.5 L 87.0000001788 52.0 L -106.499999821 52.0 L -106.499999821 71.5 L 87.0000001788 71.5 L 87.0000001788 78.0 L -106.499999821 78.0 L -106.499999821 97.5 L 87.0000001788 97.5 Z " stroke="#191919" stroke-width="0.35 px" style="stroke-width:0.35;stroke-miterlimit:4;stroke-dasharray:none;fill:#000000;fill-rule: evenodd "/>
<path id="Part__Mirroring_f0005"  d="M -106.499999821 97.5 L -106.50000006 97.5 L 86.9999999404 97.5 L 87.0000001788 97.5 L -106.499999821 97.5 Z " stroke="#191919" stroke-width="0.35 px" style="stroke-width:0.35;stroke-miterlimit:4;stroke-dasharray:none;fill:#000000;fill-rule: evenodd "/>
<path id="Part__Mirroring_f0006"  d="M -113.00000006 -136.5 L -113.00000006 -130.0 L -112.999999821 -130.0 L -112.999999821 -136.5 L -113.00000006 -136.5 Z " stroke="#191919" stroke-width="0.35 px" style="stroke-width:0.35;stroke-miterlimit:4;stroke-dasharray:none;fill:#000000;fill-rule: evenodd "/>
<path id="Part__Mirroring_f0007"  d="M -29.5000000596 -136.5 L -113.00000006 -136.5 L -112.999999821 -136.5 L -29.4999998212 -136.5 L -29.5000000596 -136.5 Z " stroke="#191919" stroke-width="0.35 px" style="stroke-width:0.35;stroke-miterlimit:4;stroke-dasharray:none;fill:#000000;fill-rule: evenodd "/>
<path id="Part__Mirroring_f0008"  d="M -29.5000000596 -250.0 L -29.5000000596 -136.5 L -29.4999998212 -136.5 L -29.4999998212 -250.0 L -29.5000000596 -250.0 Z " stroke="#191919" stroke-width="0.35 px" style="stroke-width:0.35;stroke-miterlimit:4;stroke-dasharray:none;fill:#000000;fill-rule: evenodd "/>
<path id="Part__Mirroring_f0009"  d="M -48.0000000596 -250.0 L -29.5000000596 -250.0 L -29.4999998212 -250.0 L -47.9999998212 -250.0 L -48.0000000596 -250.0 Z " stroke="#191919" stroke-width="0.35 px" style="stroke-width:0.35;stroke-miterlimit:4;stroke-dasharray:none;fill:#000000;fill-rule: evenodd "/>
<path id="Part__Mirroring_f0010"  d="M -48.0000000596 -280.0 L -48.0000000596 -250.0 L -47.9999998212 -250.0 L -47.9999998212 -280.0 L -48.0000000596 -280.0 Z " stroke="#191919" stroke-width="0.35 px" style="stroke-width:0.35;stroke-miterlimit:4;stroke-dasharray:none;fill:#000000;fill-rule: evenodd "/>
<path id="Part__Mirroring_f0011"  d="M -23.0000000596 -280.0 L -48.0000000596 -280.0 L -47.9999998212 -280.0 L -22.9999998212 -280.0 L -23.0000000596 -280.0 Z " stroke="#191919" stroke-width="0.35 px" style="stroke-width:0.35;stroke-miterlimit:4;stroke-dasharray:none;fill:#000000;fill-rule: evenodd "/>
<path id="Part__Mirroring_f0012"  d="M -23.0000000596 -130.0 L -22.9999998212 -130.0 L -22.9999998212 -280.0 L -23.0000000596 -280.0 L -23.0000000596 -130.0 Z " stroke="#191919" stroke-width="0.35 px" style="stroke-width:0.35;stroke-miterlimit:4;stroke-dasharray:none;fill:#000000;fill-rule: evenodd "/>
<path id="Part__Mirroring_f0013"  d="M -23.0000000596 -130.0 L -22.9999998212 -130.0 L -106.499999821 -130.0 L -106.50000006 -130.0 L -23.0000000596 -130.0 Z " stroke="#191919" stroke-width="0.35 px" style="stroke-width:0.35;stroke-miterlimit:4;stroke-dasharray:none;fill:#000000;fill-rule: evenodd "/>
<path id="Part__Mirroring_f0014"  d="M -106.499999821 -130.0 L -106.50000006 -130.0 L -106.50000006 -110.5 L -106.499999821 -110.5 L -106.499999821 -130.0 Z " stroke="#191919" stroke-width="0.35 px" style="stroke-width:0.35;stroke-miterlimit:4;stroke-dasharray:none;fill:#000000;fill-rule: evenodd "/>
<path id="Part__Mirroring_f0015"  d="M -106.499999821 -110.5 L -106.50000006 -110.5 L 86.9999999404 -110.5 L 87.0000001788 -110.5 L -106.499999821 -110.5 Z " stroke="#191919" stroke-width="0.35 px" style="stroke-width:0.35;stroke-miterlimit:4;stroke-dasharray:none;fill:#000000;fill-rule: evenodd "/>
<path id="Part__Mirroring_f0016"  d="M 87.0000001788 -110.5 L 86.9999999404 -110.5 L 86.9999999404 -104.0 L 87.0000001788 -104.0 L 87.0000001788 -110.5 Z " stroke="#191919" stroke-width="0.35 px" style="stroke-width:0.35;stroke-miterlimit:4;stroke-dasharray:none;fill:#000000;fill-rule: evenodd "/>
<path id="Part__Mirroring_f0017"  d="M 87.0000001788 -104.0 L 86.9999999404 -104.0 L -106.50000006 -104.0 L -106.499999821 -104.0 L 87.0000001788 -104.0 Z " stroke="#191919" stroke-width="0.35 px" style="stroke-width:0.35;stroke-miterlimit:4;stroke-dasharray:none;fill:#000000;fill-rule: evenodd "/>
<path id="Part__Mirroring_f0018"  d="M -106.499999821 -104.0 L -106.50000006 -104.0 L -106.50000006 -84.5 L -106.499999821 -84.5 L -106.499999821 -104.0 Z " stroke="#191919" stroke-width="0.35 px" style="stroke-width:0.35;stroke-miterlimit:4;stroke-dasharray:none;fill:#000000;fill-rule: evenodd "/>
<path id="Part__Mirroring_f0019"  d="M -106.499999821 -84.5 L -106.50000006 -84.5 L 86.9999999404 -84.5 L 87.0000001788 -84.5 L -106.499999821 -84.5 Z " stroke="#191919" stroke-width="0.35 px" style="stroke-width:0.35;stroke-miterlimit:4;stroke-dasharray:none;fill:#000000;fill-rule: evenodd "/>
<path id="Part__Mirroring_f0020"  d="M 87.0000001788 -84.5 L 86.9999999404 -84.5 L 86.9999999404 -78.0 L 87.0000001788 -78.0 L 87.0000001788 -84.5 Z " stroke="#191919" stroke-width="0.35 px" style="stroke-width:0.35;stroke-miterlimit:4;stroke-dasharray:none;fill:#000000;fill-rule: evenodd "/>
<path id="Part__Mirroring_f0021"  d="M 87.0000001788 -78.0 L 86.9999999404 -78.0 L -106.50000006 -78.0 L -106.499999821 -78.0 L 87.0000001788 -78.0 Z " stroke="#191919" stroke-width="0.35 px" style="stroke-width:0.35;stroke-miterlimit:4;stroke-dasharray:none;fill:#000000;fill-rule: evenodd "/>
<path id="Part__Mirroring_f0022"  d="M -106.499999821 -78.0 L -106.50000006 -78.0 L -106.50000006 -58.5 L -106.499999821 -58.5 L -106.499999821 -78.0 Z " stroke="#191919" stroke-width="0.35 px" style="stroke-width:0.35;stroke-miterlimit:4;stroke-dasharray:none;fill:#000000;fill-rule: evenodd "/>
<path id="Part__Mirroring_f0023"  d="M -106.499999821 -58.5 L -106.50000006 -58.5 L 86.9999999404 -58.5 L 87.0000001788 -58.5 L -106.499999821 -58.5 Z " stroke="#191919" stroke-width="0.35 px" style="stroke-width:0.35;stroke-miterlimit:4;stroke-dasharray:none;fill:#000000;fill-rule: evenodd "/>
<path id="Part__Mirroring_f0024"  d="M 87.0000001788 -58.5 L 86.9999999404 -58.5 L 86.9999999404 -52.0 L 87.0000001788 -52.0 L 87.0000001788 -58.5 Z " stroke="#191919" stroke-width="0.35 px" style="stroke-width:0.35;stroke-miterlimit:4;stroke-dasharray:none;fill:#000000;fill-rule: evenodd "/>
<path id="Part__Mirroring_f0025"  d="M 87.0000001788 -52.0 L 86.9999999404 -52.0 L -106.50000006 -52.0 L -106.499999821 -52.0 L 87.0000001788 -52.0 Z " stroke="#191919" stroke-width="0.35 px" style="stroke-width:0.35;stroke-miterlimit:4;stroke-dasharray:none;fill:#000000;fill-rule: evenodd "/>
<path id="Part__Mirroring_f0026"  d="M -106.499999821 -52.0 L -106.50000006 -52.0 L -106.50000006 -32.5 L -106.499999821 -32.5 L -106.499999821 -52.0 Z " stroke="#191919" stroke-width="0.35 px" style="stroke-width:0.35;stroke-miterlimit:4;stroke-dasharray:none;fill:#000000;fill-rule: evenodd "/>
<path id="Part__Mirroring_f0027"  d="M -106.499999821 -32.5 L -106.50000006 -32.5 L 86.9999999404 -32.5 L 87.0000001788 -32.5 L -106.499999821 -32.5 Z " stroke="#191919" stroke-width="0.35 px" style="stroke-width:0.35;stroke-miterlimit:4;stroke-dasharray:none;fill:#000000;fill-rule: evenodd "/>
<path id="Part__Mirroring_f0028"  d="M 87.0000001788 -32.5 L 86.9999999404 -32.5 L 86.9999999404 -26.0 L 87.0000001788 -26.0 L 87.0000001788 -32.5 Z " stroke="#191919" stroke-width="0.35 px" style="stroke-width:0.35;stroke-miterlimit:4;stroke-dasharray:none;fill:#000000;fill-rule: evenodd "/>
<path id="Part__Mirroring_f0029"  d="M 87.0000001788 -26.0 L 86.9999999404 -26.0 L -106.50000006 -26.0 L -106.499999821 -26.0 L 87.0000001788 -26.0 Z " stroke="#191919" stroke-width="0.35 px" style="stroke-width:0.35;stroke-miterlimit:4;stroke-dasharray:none;fill:#000000;fill-rule: evenodd "/>
<path id="Part__Mirroring_f0030"  d="M -106.499999821 -26.0 L -106.50000006 -26.0 L -106.50000006 -6.5 L -106.499999821 -6.5 L -106.499999821 -26.0 Z " stroke="#191919" stroke-width="0.35 px" style="stroke-width:0.35;stroke-miterlimit:4;stroke-dasharray:none;fill:#000000;fill-rule: evenodd "/>
<path id="Part__Mirroring_f0031"  d="M -106.499999821 -6.5 L -106.50000006 -6.5 L 86.9999999404 -6.5 L 87.0000001788 -6.5 L -106.499999821 -6.5 Z " stroke="#191919" stroke-width="0.35 px" style="stroke-width:0.35;stroke-miterlimit:4;stroke-dasharray:none;fill:#000000;fill-rule: evenodd "/>
<path id="Part__Mirroring_f0032"  d="M 87.0000001788 -6.5 L 86.9999999404 -6.5 L 86.9999999404 0.0 L 87.0000001788 0.0 L 87.0000001788 -6.5 Z " stroke="#191919" stroke-width="0.35 px" style="stroke-width:0.35;stroke-miterlimit:4;stroke-dasharray:none;fill:#000000;fill-rule: evenodd "/>
<path id="Part__Mirroring_f0033"  d="M 87.0000001788 0.0 L 86.9999999404 0.0 L -106.50000006 0.0 L -106.499999821 0.0 L 87.0000001788 0.0 Z " stroke="#191919" stroke-width="0.35 px" style="stroke-width:0.35;stroke-miterlimit:4;stroke-dasharray:none;fill:#000000;fill-rule: evenodd "/>
<path id="Part__Mirroring_f0034"  d="M -106.499999821 0.0 L -106.50000006 0.0 L -106.50000006 19.5 L -106.499999821 19.5 L -106.499999821 0.0 Z " stroke="#191919" stroke-width="0.35 px" style="stroke-width:0.35;stroke-miterlimit:4;stroke-dasharray:none;fill:#000000;fill-rule: evenodd "/>
<path id="Part__Mirroring_f0035"  d="M -106.499999821 19.5 L -106.50000006 19.5 L 86.9999999404 19.5 L 87.0000001788 19.5 L -106.499999821 19.5 Z " stroke="#191919" stroke-width="0.35 px" style="stroke-width:0.35;stroke-miterlimit:4;stroke-dasharray:none;fill:#000000;fill-rule: evenodd "/>
<path id="Part__Mirroring_f0036"  d="M 87.0000001788 19.5 L 86.9999999404 19.5 L 86.9999999404 26.0 L 87.0000001788 26.0 L 87.0000001788 19.5 Z " stroke="#191919" stroke-width="0.35 px" style="stroke-width:0.35;stroke-miterlimit:4;stroke-dasharray:none;fill:#000000;fill-rule: evenodd "/>
<path id="Part__Mirroring_f0037"  d="M 87.0000001788 26.0 L 86.9999999404 26.0 L -106.50000006 26.0 L -106.499999821 26.0 L 87.0000001788 26.0 Z " stroke="#191919" stroke-width="0.35 px" style="stroke-width:0.35;stroke-miterlimit:4;stroke-dasharray:none;fill:#000000;fill-rule: evenodd "/>
<path id="Part__Mirroring_f0038"  d="M -106.499999821 26.0 L -106.50000006 26.0 L -106.50000006 45.5 L -106.499999821 45.5 L -106.499999821 26.0 Z " stroke="#191919" stroke-width="0.35 px" style="stroke-width:0.35;stroke-miterlimit:4;stroke-dasharray:none;fill:#000000;fill-rule: evenodd "/>
<path id="Part__Mirroring_f0039"  d="M -106.499999821 45.5 L -106.50000006 45.5 L 86.9999999404 45.5 L 87.0000001788 45.5 L -106.499999821 45.5 Z " stroke="#191919" stroke-width="0.35 px" style="stroke-width:0.35;stroke-miterlimit:4;stroke-dasharray:none;fill:#000000;fill-rule: evenodd "/>
<path id="Part__Mirroring_f0040"  d="M 87.0000001788 45.5 L 86.9999999404 45.5 L 86.9999999404 52.0 L 87.0000001788 52.0 L 87.0000001788 45.5 Z " stroke="#191919" stroke-width="0.35 px" style="stroke-width:0.35;stroke-miterlimit:4;stroke-dasharray:none;fill:#000000;fill-rule: evenodd "/>
<path id="Part__Mirroring_f0041"  d="M 87.0000001788 52.0 L 86.9999999404 52.0 L -106.50000006 52.0 L -106.499999821 52.0 L 87.0000001788 52.0 Z " stroke="#191919" stroke-width="0.35 px" style="stroke-width:0.35;stroke-miterlimit:4;stroke-dasharray:none;fill:#000000;fill-rule: evenodd "/>
<path id="Part__Mirroring_f0042"  d="M -106.499999821 52.0 L -106.50000006 52.0 L -106.50000006 71.5 L -106.499999821 71.5 L -106.499999821 52.0 Z " stroke="#191919" stroke-width="0.35 px" style="stroke-width:0.35;stroke-miterlimit:4;stroke-dasharray:none;fill:#000000;fill-rule: evenodd "/>
<path id="Part__Mirroring_f0043"  d="M -106.499999821 71.5 L -106.50000006 71.5 L 86.9999999404 71.5 L 87.0000001788 71.5 L -106.499999821 71.5 Z " stroke="#191919" stroke-width="0.35 px" style="stroke-width:0.35;stroke-miterlimit:4;stroke-dasharray:none;fill:#000000;fill-rule: evenodd "/>
<path id="Part__Mirroring_f0044"  d="M 87.0000001788 71.5 L 86.9999999404 71.5 L 86.9999999404 78.0 L 87.0000001788 78.0 L 87.0000001788 71.5 Z " stroke="#191919" stroke-width="0.35 px" style="stroke-width:0.35;stroke-miterlimit:4;stroke-dasharray:none;fill:#000000;fill-rule: evenodd "/>
<path id="Part__Mirroring_f0045"  d="M 87.0000001788 78.0 L 86.9999999404 78.0 L -106.50000006 78.0 L -106.499999821 78.0 L 87.0000001788 78.0 Z " stroke="#191919" stroke-width="0.35 px" style="stroke-width:0.35;stroke-miterlimit:4;stroke-dasharray:none;fill:#000000;fill-rule: evenodd "/>
<path id="Part__Mirroring_f0046"  d="M -106.499999821 78.0 L -106.50000006 78.0 L -106.50000006 97.5 L -106.499999821 97.5 L -106.499999821 78.0 Z " stroke="#191919" stroke-width="0.35 px" style="stroke-width:0.35;stroke-miterlimit:4;stroke-dasharray:none;fill:#000000;fill-rule: evenodd "/>
<title>LinearPattern (Mirror #1)</title>
</g>
<g id="LinearPattern" transform="translate(115.130000,119.130000) scale(1,-1)">
<path id="LinearPattern_f0000"  d="M -100.0 117.0 L -100.0 117.0 L 100.0 117.0 L 100.0 117.0 L -100.0 117.0 Z " stroke="#191919" stroke-width="0.35 px" style="stroke-width:0.35;stroke-miterlimit:4;stroke-dasharray:none;fill:#000000;fill-rule: evenodd "/>
<path id="LinearPattern_f0001"  d="M -100.0 117.0 L -100.0 110.5 L -100.0 110.5 L -100.0 117.0 L -100.0 117.0 Z " stroke="#191919" stroke-width="0.35 px" style="stroke-width:0.35;stroke-miterlimit:4;stroke-dasharray:none;fill:#000000;fill-rule: evenodd "/>
<path id="LinearPattern_f0002"  d="M 100.0 117.0 L 100.0 117.0 L 100.0 -117.0 L 100.0 -117.0 L 100.0 117.0 Z " stroke="#191919" stroke-width="0.35 px" style="stroke-width:0.35;stroke-miterlimit:4;stroke-dasharray:none;fill:#000000;fill-rule: evenodd "/>
<path id="LinearPattern_f0003"  d="M -100.0 110.5 L -100.0 117.0 L 100.0 117.0 L 100.0 -117.0 L 100.0 -123.5 L 16.5 -123.5 L 16.5 -237.0 L 35.0 -237.0 L 35.0 -267.0 L 10.0 -267.0 L 10.0 -117.0 L 93.5 -117.0 L 93.5 -97.5 L -100.0 -97.5 L -100.0 -91.0 L 93.5 -91.0 L 93.5 -71.5 L -100.0 -71.5 L -100.0 -65.0 L 93.5 -65.0 L 93.5 -45.5 L -100.0 -45.5 L -100.0 -39.0 L 93.5 -39.0 L 93.5 -19.5 L -100.0 -19.5 L -100.0 -13.0 L 93.5 -13.0 L 93.5 6.5 L -100.0 6.5 L -100.0 13.0 L 93.5 13.0 L 93.5 32.5 L -100.0 32.5 L -100.0 39.0 L 93.5 39.0 L 93.5 58.5 L -100.0 58.5 L -100.0 65.0 L 93.5 65.0 L 93.5 84.5 L -100.0 84.5 L -100.0 91.0 L 93.5 91.0 L 93.5 110.5 L -100.0 110.5 Z " stroke="#191919" stroke-width="0.35 px" style="stroke-width:0.35;stroke-miterlimit:4;stroke-dasharray:none;fill:#000000;fill-rule: evenodd "/>
<path id="LinearPattern_f0004"  d="M 100.0 -117.0 L 100.0 -123.5 L 16.5 -123.5 L 16.5 -237.0 L 35.0 -237.0 L 35.0 -267.0 L 10.0 -267.0 L 10.0 -117.0 L 93.5 -117.0 L 93.5 -97.5 L -100.0 -97.5 L -100.0 -91.0 L 93.5 -91.0 L 93.5 -71.5 L -100.0 -71.5 L -100.0 -65.0 L 93.5 -65.0 L 93.5 -45.5 L -100.0 -45.5 L -100.0 -39.0 L 93.5 -39.0 L 93.5 -19.5 L -100.0 -19.5 L -100.0 -13.0 L 93.5 -13.0 L 93.5 6.5 L -100.0 6.5 L -100.0 13.0 L 93.5 13.0 L 93.5 32.5 L -100.0 32.5 L -100.0 39.0 L 93.5 39.0 L 93.5 58.5 L -100.0 58.5 L -100.0 65.0 L 93.5 65.0 L 93.5 84.5 L -100.0 84.5 L -100.0 91.0 L 93.5 91.0 L 93.5 110.5 L -100.0 110.5 L -100.0 117.0 L 100.0 117.0 L 100.0 -117.0 Z " stroke="#191919" stroke-width="0.35 px" style="stroke-width:0.35;stroke-miterlimit:4;stroke-dasharray:none;fill:#000000;fill-rule: evenodd "/>
<path id="LinearPattern_f0005"  d="M -100.0 110.5 L -100.0 110.5 L 93.5 110.5 L 93.5 110.5 L -100.0 110.5 Z " stroke="#191919" stroke-width="0.35 px" style="stroke-width:0.35;stroke-miterlimit:4;stroke-dasharray:none;fill:#000000;fill-rule: evenodd "/>
<path id="LinearPattern_f0006"  d="M 100.0 -117.0 L 100.0 -117.0 L 100.0 -123.5 L 100.0 -123.5 L 100.0 -117.0 Z " stroke="#191919" stroke-width="0.35 px" style="stroke-width:0.35;stroke-miterlimit:4;stroke-dasharray:none;fill:#000000;fill-rule: evenodd "/>
<path id="LinearPattern_f0007"  d="M 100.0 -123.5 L 100.0 -123.5 L 16.5 -123.5 L 16.5 -123.5 L 100.0 -123.5 Z " stroke="#191919" stroke-width="0.35 px" style="stroke-width:0.35;stroke-miterlimit:4;stroke-dasharray:none;fill:#000000;fill-rule: evenodd "/>
<path id="LinearPattern_f0008"  d="M 16.5 -123.5 L 16.5 -123.5 L 16.5 -237.0 L 16.5 -237.0 L 16.5 -123.5 Z " stroke="#191919" stroke-width="0.35 px" style="stroke-width:0.35;stroke-miterlimit:4;stroke-dasharray:none;fill:#000000;fill-rule: evenodd "/>
<path id="LinearPattern_f0009"  d="M 16.5 -237.0 L 16.5 -237.0 L 35.0 -237.0 L 35.0 -237.0 L 16.5 -237.0 Z " stroke="#191919" stroke-width="0.35 px" style="stroke-width:0.35;stroke-miterlimit:4;stroke-dasharray:none;fill:#000000;fill-rule: evenodd "/>
<path id="LinearPattern_f0010"  d="M 35.0 -237.0 L 35.0 -237.0 L 35.0 -267.0 L 35.0 -267.0 L 35.0 -237.0 Z " stroke="#191919" stroke-width="0.35 px" style="stroke-width:0.35;stroke-miterlimit:4;stroke-dasharray:none;fill:#000000;fill-rule: evenodd "/>
<path id="LinearPattern_f0011"  d="M 35.0 -267.0 L 35.0 -267.0 L 10.0 -267.0 L 10.0 -267.0 L 35.0 -267.0 Z " stroke="#191919" stroke-width="0.35 px" style="stroke-width:0.35;stroke-miterlimit:4;stroke-dasharray:none;fill:#000000;fill-rule: evenodd "/>
<path id="LinearPattern_f0012"  d="M 10.0 -267.0 L 10.0 -267.0 L 10.0 -117.0 L 10.0 -117.0 L 10.0 -267.0 Z " stroke="#191919" stroke-width="0.35 px" style="stroke-width:0.35;stroke-miterlimit:4;stroke-dasharray:none;fill:#000000;fill-rule: evenodd "/>
<path id="LinearPattern_f0013"  d="M 10.0 -117.0 L 93.5 -117.0 L 93.5 -117.0 L 10.0 -117.0 L 10.0 -117.0 Z " stroke="#191919" stroke-width="0.35 px" style="stroke-width:0.35;stroke-miterlimit:4;stroke-dasharray:none;fill:#000000;fill-rule: evenodd "/>
<path id="LinearPattern_f0014"  d="M 93.5 -97.5 L 93.5 -97.5 L 93.5 -117.0 L 93.5 -117.0 L 93.5 -97.5 Z " stroke="#191919" stroke-width="0.35 px" style="stroke-width:0.35;stroke-miterlimit:4;stroke-dasharray:none;fill:#000000;fill-rule: evenodd "/>
<path id="LinearPattern_f0015"  d="M -100.0 -97.5 L -100.0 -97.5 L 93.5 -97.5 L 93.5 -97.5 L -100.0 -97.5 Z " stroke="#191919" stroke-width="0.35 px" style="stroke-width:0.35;stroke-miterlimit:4;stroke-dasharray:none;fill:#000000;fill-rule: evenodd "/>
<path id="LinearPattern_f0016"  d="M -100.0 -91.0 L -100.0 -97.5 L -100.0 -97.5 L -100.0 -91.0 L -100.0 -91.0 Z " stroke="#191919" stroke-width="0.35 px" style="stroke-width:0.35;stroke-miterlimit:4;stroke-dasharray:none;fill:#000000;fill-rule: evenodd "/>
<path id="LinearPattern_f0017"  d="M 93.5 -91.0 L 93.5 -91.0 L -100.0 -91.0 L -100.0 -91.0 L 93.5 -91.0 Z " stroke="#191919" stroke-width="0.35 px" style="stroke-width:0.35;stroke-miterlimit:4;stroke-dasharray:none;fill:#000000;fill-rule: evenodd "/>
<path id="LinearPattern_f0018"  d="M 93.5 -71.5 L 93.5 -71.5 L 93.5 -91.0 L 93.5 -91.0 L 93.5 -71.5 Z " stroke="#191919" stroke-width="0.35 px" style="stroke-width:0.35;stroke-miterlimit:4;stroke-dasharray:none;fill:#000000;fill-rule: evenodd "/>
<path id="LinearPattern_f0019"  d="M -100.0 -71.5 L -100.0 -71.5 L 93.5 -71.5 L 93.5 -71.5 L -100.0 -71.5 Z " stroke="#191919" stroke-width="0.35 px" style="stroke-width:0.35;stroke-miterlimit:4;stroke-dasharray:none;fill:#000000;fill-rule: evenodd "/>
<path id="LinearPattern_f0020"  d="M -100.0 -65.0 L -100.0 -71.5 L -100.0 -71.5 L -100.0 -65.0 L -100.0 -65.0 Z " stroke="#191919" stroke-width="0.35 px" style="stroke-width:0.35;stroke-miterlimit:4;stroke-dasharray:none;fill:#000000;fill-rule: evenodd "/>
<path id="LinearPattern_f0021"  d="M 93.5 -65.0 L 93.5 -65.0 L -100.0 -65.0 L -100.0 -65.0 L 93.5 -65.0 Z " stroke="#191919" stroke-width="0.35 px" style="stroke-width:0.35;stroke-miterlimit:4;stroke-dasharray:none;fill:#000000;fill-rule: evenodd "/>
<path id="LinearPattern_f0022"  d="M 93.5 -45.5 L 93.5 -45.5 L 93.5 -65.0 L 93.5 -65.0 L 93.5 -45.5 Z " stroke="#191919" stroke-width="0.35 px" style="stroke-width:0.35;stroke-miterlimit:4;stroke-dasharray:none;fill:#000000;fill-rule: evenodd "/>
<path id="LinearPattern_f0023"  d="M -100.0 -45.5 L -100.0 -45.5 L 93.5 -45.5 L 93.5 -45.5 L -100.0 -45.5 Z " stroke="#191919" stroke-width="0.35 px" style="stroke-width:0.35;stroke-miterlimit:4;stroke-dasharray:none;fill:#000000;fill-rule: evenodd "/>
<path id="LinearPattern_f0024"  d="M -100.0 -39.0 L -100.0 -45.5 L -100.0 -45.5 L -100.0 -39.0 L -100.0 -39.0 Z " stroke="#191919" stroke-width="0.35 px" style="stroke-width:0.35;stroke-miterlimit:4;stroke-dasharray:none;fill:#000000;fill-rule: evenodd "/>
<path id="LinearPattern_f0025"  d="M 93.5 -39.0 L 93.5 -39.0 L -100.0 -39.0 L -100.0 -39.0 L 93.5 -39.0 Z " stroke="#191919" stroke-width="0.35 px" style="stroke-width:0.35;stroke-miterlimit:4;stroke-dasharray:none;fill:#000000;fill-rule: evenodd "/>
<path id="LinearPattern_f0026"  d="M 93.5 -19.5 L 93.5 -19.5 L 93.5 -39.0 L 93.5 -39.0 L 93.5 -19.5 Z " stroke="#191919" stroke-width="0.35 px" style="stroke-width:0.35;stroke-miterlimit:4;stroke-dasharray:none;fill:#000000;fill-rule: evenodd "/>
<path id="LinearPattern_f0027"  d="M -100.0 -19.5 L -100.0 -19.5 L 93.5 -19.5 L 93.5 -19.5 L -100.0 -19.5 Z " stroke="#191919" stroke-width="0.35 px" style="stroke-width:0.35;stroke-miterlimit:4;stroke-dasharray:none;fill:#000000;fill-rule: evenodd "/>
<path id="LinearPattern_f0028"  d="M -100.0 -13.0 L -100.0 -19.5 L -100.0 -19.5 L -100.0 -13.0 L -100.0 -13.0 Z " stroke="#191919" stroke-width="0.35 px" style="stroke-width:0.35;stroke-miterlimit:4;stroke-dasharray:none;fill:#000000;fill-rule: evenodd "/>
<path id="LinearPattern_f0029"  d="M 93.5 -13.0 L 93.5 -13.0 L -100.0 -13.0 L -100.0 -13.0 L 93.5 -13.0 Z " stroke="#191919" stroke-width="0.35 px" style="stroke-width:0.35;stroke-miterlimit:4;stroke-dasharray:none;fill:#000000;fill-rule: evenodd "/>
<path id="LinearPattern_f0030"  d="M 93.5 6.5 L 93.5 6.5 L 93.5 -13.0 L 93.5 -13.0 L 93.5 6.5 Z " stroke="#191919" stroke-width="0.35 px" style="stroke-width:0.35;stroke-miterlimit:4;stroke-dasharray:none;fill:#000000;fill-rule: evenodd "/>
<path id="LinearPattern_f0031"  d="M -100.0 6.5 L -100.0 6.5 L 93.5 6.5 L 93.5 6.5 L -100.0 6.5 Z " stroke="#191919" stroke-width="0.35 px" style="stroke-width:0.35;stroke-miterlimit:4;stroke-dasharray:none;fill:#000000;fill-rule: evenodd "/>
<path id="LinearPattern_f0032"  d="M -100.0 13.0 L -100.0 6.5 L -100.0 6.5 L -100.0 13.0 L -100.0 13.0 Z " stroke="#191919" stroke-width="0.35 px" style="stroke-width:0.35;stroke-miterlimit:4;stroke-dasharray:none;fill:#000000;fill-rule: evenodd "/>
<path id="LinearPattern_f0033"  d="M 93.5 13.0 L 93.5 13.0 L -100.0 13.0 L -100.0 13.0 L 93.5 13.0 Z " stroke="#191919" stroke-width="0.35 px" style="stroke-width:0.35;stroke-miterlimit:4;stroke-dasharray:none;fill:#000000;fill-rule: evenodd "/>
<path id="LinearPattern_f0034"  d="M 93.5 32.5 L 93.5 32.5 L 93.5 13.0 L 93.5 13.0 L 93.5 32.5 Z " stroke="#191919" stroke-width="0.35 px" style="stroke-width:0.35;stroke-miterlimit:4;stroke-dasharray:none;fill:#000000;fill-rule: evenodd "/>
<path id="LinearPattern_f0035"  d="M -100.0 32.5 L -100.0 32.5 L 93.5 32.5 L 93.5 32.5 L -100.0 32.5 Z " stroke="#191919" stroke-width="0.35 px" style="stroke-width:0.35;stroke-miterlimit:4;stroke-dasharray:none;fill:#000000;fill-rule: evenodd "/>
<path id="LinearPattern_f0036"  d="M -100.0 39.0 L -100.0 32.5 L -100.0 32.5 L -100.0 39.0 L -100.0 39.0 Z " stroke="#191919" stroke-width="0.35 px" style="stroke-width:0.35;stroke-miterlimit:4;stroke-dasharray:none;fill:#000000;fill-rule: evenodd "/>
<path id="LinearPattern_f0037"  d="M 93.5 39.0 L 93.5 39.0 L -100.0 39.0 L -100.0 39.0 L 93.5 39.0 Z " stroke="#191919" stroke-width="0.35 px" style="stroke-width:0.35;stroke-miterlimit:4;stroke-dasharray:none;fill:#000000;fill-rule: evenodd "/>
<path id="LinearPattern_f0038"  d="M 93.5 58.5 L 93.5 58.5 L 93.5 39.0 L 93.5 39.0 L 93.5 58.5 Z " stroke="#191919" stroke-width="0.35 px" style="stroke-width:0.35;stroke-miterlimit:4;stroke-dasharray:none;fill:#000000;fill-rule: evenodd "/>
<path id="LinearPattern_f0039"  d="M -100.0 58.5 L -100.0 58.5 L 93.5 58.5 L 93.5 58.5 L -100.0 58.5 Z " stroke="#191919" stroke-width="0.35 px" style="stroke-width:0.35;stroke-miterlimit:4;stroke-dasharray:none;fill:#000000;fill-rule: evenodd "/>
<path id="LinearPattern_f0040"  d="M -100.0 65.0 L -100.0 58.5 L -100.0 58.5 L -100.0 65.0 L -100.0 65.0 Z " stroke="#191919" stroke-width="0.35 px" style="stroke-width:0.35;stroke-miterlimit:4;stroke-dasharray:none;fill:#000000;fill-rule: evenodd "/>
<path id="LinearPattern_f0041"  d="M 93.5 65.0 L 93.5 65.0 L -100.0 65.0 L -100.0 65.0 L 93.5 65.0 Z " stroke="#191919" stroke-width="0.35 px" style="stroke-width:0.35;stroke-miterlimit:4;stroke-dasharray:none;fill:#000000;fill-rule: evenodd "/>
<path id="LinearPattern_f0042"  d="M 93.5 84.5 L 93.5 84.5 L 93.5 65.0 L 93.5 65.0 L 93.5 84.5 Z " stroke="#191919" stroke-width="0.35 px" style="stroke-width:0.35;stroke-miterlimit:4;stroke-dasharray:none;fill:#000000;fill-rule: evenodd "/>
<path id="LinearPattern_f0043"  d="M -100.0 84.5 L -100.0 84.5 L 93.5 84.5 L 93.5 84.5 L -100.0 84.5 Z " stroke="#191919" stroke-width="0.35 px" style="stroke-width:0.35;stroke-miterlimit:4;stroke-dasharray:none;fill:#000000;fill-rule: evenodd "/>
<path id="LinearPattern_f0044"  d="M -100.0 91.0 L -100.0 84.5 L -100.0 84.5 L -100.0 91.0 L -100.0 91.0 Z " stroke="#191919" stroke-width="0.35 px" style="stroke-width:0.35;stroke-miterlimit:4;stroke-dasharray:none;fill:#000000;fill-rule: evenodd "/>
<path id="LinearPattern_f0045"  d="M 93.5 91.0 L 93.5 91.0 L -100.0 91.0 L -100.0 91.0 L 93.5 91.0 Z " stroke="#191919" stroke-width="0.35 px" style="stroke-width:0.35;stroke-miterlimit:4;stroke-dasharray:none;fill:#000000;fill-rule: evenodd "/>
<path id="LinearPattern_f0046"  d="M 93.5 110.5 L 93.5 110.5 L 93.5 91.0 L 93.5 91.0 L 93.5 110.5 Z " stroke="#191919" stroke-width="0.35 px" style="stroke-width:0.35;stroke-miterlimit:4;stroke-dasharray:none;fill:#000000;fill-rule: evenodd "/>
<title>LinearPattern</title>
</g>
</svg>