<?xml version="1.0"?>
<!DOCTYPE svg PUBLIC "-//W3C//DTD SVG 1.1//EN" "http://www.w3.org/Graphics/SVG/1.1/DTD/svg11.dtd">
<svg width="216.240000061mm" height="394.240000001mm" viewBox="0 0 216.240000061 394.240000001" xmlns="http://www.w3.org/2000/svg" version="1.1">
<g id="Part__Mirroring" transform="translate(114.120000,116.120000) scale(1,-1)">
<path id="Part__Mirroring_f0000"  d="M -112.00000006 102.0 L 87.9999999404 102.0 L 88.0000001788 102.0 L -111.999999821 102.0 L -112.00000006 102.0 Z " stroke="#191919" stroke-width="0.35 px" style="stroke-width:0.35;stroke-miterlimit:4;stroke-dasharray:none;fill:#000000;fill-rule: evenodd "/>
<path id="Part__Mirroring_f0001"  d="M 88.0000001788 96.0 L 87.9999999404 96.0 L 87.9999999404 102.0 L 88.0000001788 102.0 L 88.0000001788 96.0 Z " stroke="#191919" stroke-width="0.35 px" style="stroke-width:0.35;stroke-miterlimit:4;stroke-dasharray:none;fill:#000000;fill-rule: evenodd "/>
<path id="Part__Mirroring_f0002"  d="M -112.00000006 -126.0 L -112.00000006 102.0 L -111.999999821 102.0 L -111.999999821 -126.0 L -112.00000006 -126.0 Z " stroke="#191919" stroke-width="0.35 px" style="stroke-width:0.35;stroke-miterlimit:4;stroke-dasharray:none;fill:#000000;fill-rule: evenodd "/>
<path id="Part__Mirroring_f0003"  d="M -112.00000006 -126.0 L -112.00000006 -132.0 L -28.0000000596 -132.0 L -28.0000000596 -246.0 L -47.0000000596 -246.0 L -47.0000000596 -276.0 L -22.0000000596 -276.0 L -22.0000000596 -126.0 L -106.00000006 -126.0 L -106.00000006 -108.0 L 87.9999999404 -108.0 L 87.9999999404 -103.333333333 L -106.00000006 -103.333333333 L -106.00000006 -85.3333333333 L 87.9999999404 -85.3333333333 L 87.9999999404 -80.6666666667 L -106.00000006 -80.6666666667 L -106.00000006 -62.6666666667 L 87.9999999404 -62.6666666667 L 87.9999999404 -58.0 L -106.00000006 -58.0 L -106.00000006 -40.0 L 87.9999999404 -40.0 L 87.9999999404 -35.3333333333 L -106.00000006 -35.3333333333 L -106.00000006 -17.3333333333 L 87.9999999404 -17.3333333333 L 87.9999999404 -12.6666666667 L -106.00000006 -12.6666666667 L -106.00000006 5.33333333333 L 87.9999999404 5.33333333333 L 87.9999999404 10.0 L -106.00000006 10.0 L -106.00000006 28.0 L 87.9999999404 28.0 L 87.9999999404 32.6666666667 L -106.00000006 32.6666666667 L -106.00000006 50.6666666667 L 87.9999999404 50.6666666667 L 87.9999999404 55.3333333333 L -106.00000006 55.3333333333 L -106.00000006 73.3333333333 L 87.9999999404 73.3333333333 L 87.9999999404 78.0 L -106.00000006 78.0 L -106.00000006 96.0 L 87.9999999404 96.0 L 87.9999999404 102.0 L -112.00000006 102.0 L -112.00000006 -126.0 Z " stroke="#191919" stroke-width="0.35 px" style="stroke-width:0.35;stroke-miterlimit:4;stroke-dasharray:none;fill:#000000;fill-rule: evenodd "/>
<path id="Part__Mirroring_f0004"  d="M 88.0000001788 96.0 L 88.0000001788 102.0 L -111.999999821 102.0 L -111.999999821 -126.0 L -111.999999821 -132.0 L -27.9999998212 -132.0 L -27.9999998212 -246.0 L -46.9999998212 -246.0 L -46.9999998212 -276.0 L -21.9999998212 -276.0 L -21.9999998212 -126.0 L -105.999999821 -126.0 L -105.999999821 -108.0 L 88.0000001788 -108.0 L 88.0000001788 -103.333333333 L -105.999999821 -103.333333333 L -105.999999821 -85.3333333333 L 88.0000001788 -85.3333333333 L 88.0000001788 -80.6666666667 L -105.999999821 -80.6666666667 L -105.999999821 -62.6666666667 L 88.0000001788 -62.6666666667 L 88.0000001788 -58.0 L -105.999999821 -58.0 L -105.999999821 -40.0 L 88.0000001788 -40.0 L 88.0000001788 -35.3333333333 L -105.999999821 -35.3333333333 L -105.999999821 -17.3333333333 L 88.0000001788 -17.3333333333 L 88.0000001788 -12.6666666667 L -105.999999821 -12.6666666667 L -105.999999821 5.33333333333 L 88.0000001788 5.33333333333 L 88.0000001788 10.0 L -105.999999821 10.0 L -105.999999821 28.0 L 88.0000001788 28.0 L 88.0000001788 32.6666666667 L -105.999999821 32.6666666667 L -105.999999821 50.6666666667 L 88.0000001788 50.6666666667 L 88.0000001788 55.3333333333 L -105.999999821 55.3333333333 L -105.999999821 73.3333333333 L 88.0000001788 73.3333333333 L 88.0000001788 78.0 L -105.999999821 78.0 L -105.999999821 96.0 L 88.0000001788 96.0 Z " stroke="#191919" stroke-width="0.35 px" style="stroke-width:0.35;stroke-miterlimit:4;stroke-dasharray:none;fill:#000000;fill-rule: evenodd "/>
<path id="Part__Mirroring_f0005"  d="M -105.999999821 96.0 L -106.00000006 96.0 L 87.9999999404 96.0 L 88.0000001788 96.0 L -105.999999821 96.0 Z " stroke="#191919" stroke-width="0.35 px" style="stroke-width:0.35;stroke-miterlimit:4;stroke-dasharray:none;fill:#000000;fill-rule: evenodd "/>
<path id="Part__Mirroring_f0006"  d="M -112.00000006 -132.0 L -112.00000006 -126.0 L -111.999999821 -126.0 L -111.999999821 -132.0 L -112.00000006 -132.0 Z " stroke="#191919" stroke-width="0.35 px" style="stroke-width:0.35;stroke-miterlimit:4;stroke-dasharray:none;fill:#000000;fill-rule: evenodd "/>
<path id="Part__Mirroring_f0007"  d="M -28.0000000596 -132.0 L -112.00000006 -132.0 L -111.999999821 -132.0 L -27.9999998212 -132.0 L -28.0000000596 -132.0 Z " stroke="#191919" stroke-width="0.35 px" style="stroke-width:0.35;stroke-miterlimit:4;stroke-dasharray:none;fill:#000000;fill-rule: evenodd "/>
<path id="Part__Mirroring_f0008"  d="M -28.0000000596 -246.0 L -28.0000000596 -132.0 L -27.9999998212 -132.0 L -27.9999998212 -246.0 L -28.0000000596 -246.0 Z " stroke="#191919" stroke-width="0.35 px" style="stroke-width:0.35;stroke-miterlimit:4;stroke-dasharray:none;fill:#000000;fill-rule: evenodd "/>
<path id="Part__Mirroring_f0009"  d="M -47.0000000596 -246.0 L -28.0000000596 -246.0 L -27.9999998212 -246.0 L -46.9999998212 -246.0 L -47.0000000596 -246.0 Z " stroke="#191919" stroke-width="0.35 px" style="stroke-width:0.35;stroke-miterlimit:4;stroke-dasharray:none;fill:#000000;fill-rule: evenodd "/>
<path id="Part__Mirroring_f0010"  d="M -47.0000000596 -276.0 L -47.0000000596 -246.0 L -46.9999998212 -246.0 L -46.9999998212 -276.0 L -47.0000000596 -276.0 Z " stroke="#191919" stroke-width="0.35 px" style="stroke-width:0.35;stroke-miterlimit:4;stroke-dasharray:none;fill:#000000;fill-rule: evenodd "/>
<path id="Part__Mirroring_f0011"  d="M -22.0000000596 -276.0 L -47.0000000596 -276.0 L -46.9999998212 -276.0 L -21.9999998212 -276.0 L -22.0000000596 -276.0 Z " stroke="#191919" stroke-width="0.35 px" style="stroke-width:0.35;stroke-miterlimit:4;stroke-dasharray:none;fill:#000000;fill-rule: evenodd "/>
<path id="Part__Mirroring_f0012"  d="M -22.0000000596 -126.0 L -21.9999998212 -126.0 L -21.9999998212 -276.0 L -22.0000000596 -276.0 L -22.0000000596 -126.0 Z " stroke="#191919" stroke-width="0.35 px" style="stroke-width:0.35;stroke-miterlimit:4;stroke-dasharray:none;fill:#000000;fill-rule: evenodd "/>
<path id="Part__Mirroring_f0013"  d="M -22.0000000596 -126.0 L -21.9999998212 -126.0 L -105.999999821 -126.0 L -106.00000006 -126.0 L -22.0000000596 -126.0 Z " stroke="#191919" stroke-width="0.35 px" style="stroke-width:0.35;stroke-miterlimit:4;stroke-dasharray:none;fill:#000000;fill-rule: evenodd "/>
<path id="Part__Mirroring_f0014"  d="M -105.999999821 -126.0 L -106.00000006 -126.0 L -106.00000006 -108.0 L -105.999999821 -108.0 L -105.999999821 -126.0 Z " stroke="#191919" stroke-width="0.35 px" style="stroke-width:0.35;stroke-miterlimit:4;stroke-dasharray:none;fill:#000000;fill-rule: evenodd "/>
<path id="Part__Mirroring_f0015"  d="M -105.999999821 -108.0 L -106.00000006 -108.0 L 87.9999999404 -108.0 L 88.0000001788 -108.0 L -105.999999821 -108.0 Z " stroke="#191919" stroke-width="0.35 px" style="stroke-width:0.35;stroke-miterlimit:4;stroke-dasharray:none;fill:#000000;fill-rule: evenodd "/>
<path id="Part__Mirroring_f0016"  d="M 88.0000001788 -108.0 L 87.9999999404 -108.0 L 87.9999999404 -103.333333333 L 88.0000001788 -103.333333333 L 88.0000001788 -108.0 Z " stroke="#191919" stroke-width="0.35 px" style="stroke-width:0.35;stroke-miterlimit:4;stroke-dasharray:none;fill:#000000;fill-rule: evenodd "/>
<path id="Part__Mirroring_f0017"  d="M 88.0000001788 -103.333333333 L 87.9999999404 -103.333333333 L -106.00000006 -103.333333333 L -105.999999821 -103.333333333 L 88.0000001788 -103.333333333 Z " stroke="#191919" stroke-width="0.35 px" style="stroke-width:0.35;stroke-miterlimit:4;stroke-dasharray:none;fill:#000000;fill-rule: evenodd "/>
<path id="Part__Mirroring_f0018"  d="M -105.999999821 -103.333333333 L -106.00000006 -103.333333333 L -106.00000006 -85.3333333333 L -105.999999821 -85.3333333333 L -105.999999821 -103.333333333 Z " stroke="#191919" stroke-width="0.35 px" style="stroke-width:0.35;stroke-miterlimit:4;stroke-dasharray:none;fill:#000000;fill-rule: evenodd "/>
<path id="Part__Mirroring_f0019"  d="M -105.999999821 -85.3333333333 L -106.00000006 -85.3333333333 L 87.9999999404 -85.3333333333 L 88.0000001788 -85.3333333333 L -105.999999821 -85.3333333333 Z " stroke="#191919" stroke-width="0.35 px" style="stroke-width:0.35;stroke-miterlimit:4;stroke-dasharray:none;fill:#000000;fill-rule: evenodd "/>
<path id="Part__Mirroring_f0020"  d="M 88.0000001788 -85.3333333333 L 87.9999999404 -85.3333333333 L 87.9999999404 -80.6666666667 L 88.0000001788 -80.6666666667 L 88.0000001788 -85.3333333333 Z " stroke="#191919" stroke-width="0.35 px" style="stroke-width:0.35;stroke-miterlimit:4;stroke-dasharray:none;fill:#000000;fill-rule: evenodd "/>
<path id="Part__Mirroring_f0021"  d="M 88.0000001788 -80.6666666667 L 87.9999999404 -80.6666666667 L -106.00000006 -80.6666666667 L -105.999999821 -80.6666666667 L 88.0000001788 -80.6666666667 Z " stroke="#191919" stroke-width="0.35 px" style="stroke-width:0.35;stroke-miterlimit:4;stroke-dasharray:none;fill:#000000;fill-rule: evenodd "/>
<path id="Part__Mirroring_f0022"  d="M -105.999999821 -80.6666666667 L -106.00000006 -80.6666666667 L -106.00000006 -62.6666666667 L -105.999999821 -62.6666666667 L -105.999999821 -80.6666666667 Z " stroke="#191919" stroke-width="0.35 px" style="stroke-width:0.35;stroke-miterlimit:4;stroke-dasharray:none;fill:#000000;fill-rule: evenodd "/>
<path id="Part__Mirroring_f0023"  d="M -105.999999821 -62.6666666667 L -106.00000006 -62.6666666667 L 87.9999999404 -62.6666666667 L 88.0000001788 -62.6666666667 L -105.999999821 -62.6666666667 Z " stroke="#191919" stroke-width="0.35 px" style="stroke-width:0.35;stroke-miterlimit:4;stroke-dasharray:none;fill:#000000;fill-rule: evenodd "/>
<path id="Part__Mirroring_f0024"  d="M 88.0000001788 -62.6666666667 L 87.9999999404 -62.6666666667 L 87.9999999404 -58.0 L 88.0000001788 -58.0 L 88.0000001788 -62.6666666667 Z " stroke="#191919" stroke-width="0.35 px" style="stroke-width:0.35;stroke-miterlimit:4;stroke-dasharray:none;fill:#000000;fill-rule: evenodd "/>
<path id="Part__Mirroring_f0025"  d="M 88.0000001788 -58.0 L 87.9999999404 -58.0 L -106.00000006 -58.0 L -105.999999821 -58.0 L 88.0000001788 -58.0 Z " stroke="#191919" stroke-width="0.35 px" style="stroke-width:0.35;stroke-miterlimit:4;stroke-dasharray:none;fill:#000000;fill-rule: evenodd "/>
<path id="Part__Mirroring_f0026"  d="M -105.999999821 -58.0 L -106.00000006 -58.0 L -106.00000006 -40.0 L -105.999999821 -40.0 L -105.999999821 -58.0 Z " stroke="#191919" stroke-width="0.35 px" style="stroke-width:0.35;stroke-miterlimit:4;stroke-dasharray:none;fill:#000000;fill-rule: evenodd "/>
<path id="Part__Mirroring_f0027"  d="M -105.999999821 -40.0 L -106.00000006 -40.0 L 87.9999999404 -40.0 L 88.0000001788 -40.0 L -105.999999821 -40.0 Z " stroke="#191919" stroke-width="0.35 px" style="stroke-width:0.35;stroke-miterlimit:4;stroke-dasharray:none;fill:#000000;fill-rule: evenodd "/>
<path id="Part__Mirroring_f0028"  d="M 88.0000001788 -40.0 L 87.9999999404 -40.0 L 87.9999999404 -35.3333333333 L 88.0000001788 -35.3333333333 L 88.0000001788 -40.0 Z " stroke="#191919" stroke-width="0.35 px" style="stroke-width:0.35;stroke-miterlimit:4;stroke-dasharray:none;fill:#000000;fill-rule: evenodd "/>
<path id="Part__Mirroring_f0029"  d="M 88.0000001788 -35.3333333333 L 87.9999999404 -35.3333333333 L -106.00000006 -35.3333333333 L -105.999999821 -35.3333333333 L 88.0000001788 -35.3333333333 Z " stroke="#191919" stroke-width="0.35 px" style="stroke-width:0.35;stroke-miterlimit:4;stroke-dasharray:none;fill:#000000;fill-rule: evenodd "/>
<path id="Part__Mirroring_f0030"  d="M -105.999999821 -35.3333333333 L -106.00000006 -35.3333333333 L -106.00000006 -17.3333333333 L -105.999999821 -17.3333333333 L -105.999999821 -35.3333333333 Z " stroke="#191919" stroke-width="0.35 px" style="stroke-width:0.35;stroke-miterlimit:4;stroke-dasharray:none;fill:#000000;fill-rule: evenodd "/>
<path id="Part__Mirroring_f0031"  d="M -105.999999821 -17.3333333333 L -106.00000006 -17.3333333333 L 87.9999999404 -17.3333333333 L 88.0000001788 -17.3333333333 L -105.999999821 -17.3333333333 Z " stroke="#191919" stroke-width="0.35 px" style="stroke-width:0.35;stroke-miterlimit:4;stroke-dasharray:none;fill:#000000;fill-rule: evenodd "/>
<path id="Part__Mirroring_f0032"  d="M 88.0000001788 -17.3333333333 L 87.9999999404 -17.3333333333 L 87.9999999404 -12.6666666667 L 88.0000001788 -12.6666666667 L 88.0000001788 -17.3333333333 Z " stroke="#191919" stroke-width="0.35 px" style="stroke-width:0.35;stroke-miterlimit:4;stroke-dasharray:none;fill:#000000;fill-rule: evenodd "/>
<path id="Part__Mirroring_f0033"  d="M 88.0000001788 -12.6666666667 L 87.9999999404 -12.6666666667 L -106.00000006 -12.6666666667 L -105.999999821 -12.6666666667 L 88.0000001788 -12.6666666667 Z " stroke="#191919" stroke-width="0.35 px" style="stroke-width:0.35;stroke-miterlimit:4;stroke-dasharray:none;fill:#000000;fill-rule: evenodd "/>
<path id="Part__Mirroring_f0034"  d="M -105.999999821 -12.6666666667 L -106.00000006 -12.6666666667 L -106.00000006 5.33333333333 L -105.999999821 5.33333333333 L -105.999999821 -12.6666666667 Z " stroke="#191919" stroke-width="0.35 px" style="stroke-width:0.35;stroke-miterlimit:4;stroke-dasharray:none;fill:#000000;fill-rule: evenodd "/>
<path id="Part__Mirroring_f0035"  d="M -105.999999821 5.33333333333 L -106.00000006 5.33333333333 L 87.9999999404 5.33333333333 L 88.0000001788 5.33333333333 L -105.999999821 5.33333333333 Z " stroke="#191919" stroke-width="0.35 px" style="stroke-width:0.35;stroke-miterlimit:4;stroke-dasharray:none;fill:#000000;fill-rule: evenodd "/>
<path id="Part__Mirroring_f0036"  d="M 88.0000001788 5.33333333333 L 87.9999999404 5.33333333333 L 87.9999999404 10.0 L 88.0000001788 10.0 L 88.0000001788 5.33333333333 Z " stroke="#191919" stroke-width="0.35 px" style="stroke-width:0.35;stroke-miterlimit:4;stroke-dasharray:none;fill:#000000;fill-rule: evenodd "/>
<path id="Part__Mirroring_f0037"  d="M 88.0000001788 10.0 L 87.9999999404 10.0 L -106.00000006 10.0 L -105.999999821 10.0 L 88.0000001788 10.0 Z " stroke="#191919" stroke-width="0.35 px" style="stroke-width:0.35;stroke-miterlimit:4;stroke-dasharray:none;fill:#000000;fill-rule: evenodd "/>
<path id="Part__Mirroring_f0038"  d="M -105.999999821 10.0 L -106.00000006 10.0 L -106.00000006 28.0 L -105.999999821 28.0 L -105.999999821 10.0 Z " stroke="#191919" stroke-width="0.35 px" style="stroke-width:0.35;stroke-miterlimit:4;stroke-dasharray:none;fill:#000000;fill-rule: evenodd "/>
<path id="Part__Mirroring_f0039"  d="M -105.999999821 28.0 L -106.00000006 28.0 L 87.9999999404 28.0 L 88.0000001788 28.0 L -105.999999821 28.0 Z " stroke="#191919" stroke-width="0.35 px" style="stroke-width:0.35;stroke-miterlimit:4;stroke-dasharray:none;fill:#000000;fill-rule: evenodd "/>
<path id="Part__Mirroring_f0040"  d="M 88.0000001788 28.0 L 87.9999999404 28.0 L 87.9999999404 32.6666666667 L 88.0000001788 32.6666666667 L 88.0000001788 28.0 Z " stroke="#191919" stroke-width="0.35 px" style="stroke-width:0.35;stroke-miterlimit:4;stroke-dasharray:none;fill:#000000;fill-rule: evenodd "/>
<path id="Part__Mirroring_f0041"  d="M 88.0000001788 32.6666666667 L 87.9999999404 32.6666666667 L -106.00000006 32.6666666667 L -105.999999821 32.6666666667 L 88.0000001788 32.6666666667 Z " stroke="#191919" stroke-width="0.35 px" style="stroke-width:0.35;stroke-miterlimit:4;stroke-dasharray:none;fill:#000000;fill-rule: evenodd "/>
<path id="Part__Mirroring_f0042"  d="M -105.999999821 32.6666666667 L -106.00000006 32.6666666667 L -106.00000006 50.6666666667 L -105.999999821 50.6666666667 L -105.999999821 32.6666666667 Z " stroke="#191919" stroke-width="0.35 px" style="stroke-width:0.35;stroke-miterlimit:4;stroke-dasharray:none;fill:#000000;fill-rule: evenodd "/>
<path id="Part__Mirroring_f0043"  d="M -105.999999821 50.6666666667 L -106.00000006 50.6666666667 L 87.9999999404 50.6666666667 L 88.0000001788 50.6666666667 L -105.999999821 50.6666666667 Z " stroke="#191919" stroke-width="0.35 px" style="stroke-width:0.35;stroke-miterlimit:4;stroke-dasharray:none;fill:#000000;fill-rule: evenodd "/>
<path id="Part__Mirroring_f0044"  d="M 88.0000001788 50.6666666667 L 87.9999999404 50.6666666667 L 87.9999999404 55.3333333333 L 88.0000001788 55.3333333333 L 88.0000001788 50.6666666667 Z " stroke="#191919" stroke-width="0.35 px" style="stroke-width:0.35;stroke-miterlimit:4;stroke-dasharray:none;fill:#000000;fill-rule: evenodd "/>
<path id="Part__Mirroring_f0045"  d="M 88.0000001788 55.3333333333 L 87.9999999404 55.3333333333 L -106.00000006 55.3333333333 L -105.999999821 55.3333333333 L 88.0000001788 55.3333333333 Z " stroke="#191919" stroke-width="0.35 px" style="stroke-width:0.35;stroke-miterlimit:4;stroke-dasharray:none;fill:#000000;fill-rule: evenodd "/>
<path id="Part__Mirroring_f0046"  d="M -105.999999821 55.3333333333 L -106.00000006 55.3333333333 L -106.00000006 73.3333333333 L -105.999999821 73.3333333333 L -105.999999821 55.3333333333 Z " stroke="#191919" stroke-width="0.35 px" style="stroke-width:0.35;stroke-miterlimit:4;stroke-dasharray:none;fill:#000000;fill-rule: evenodd "/>
<path id="Part__Mirroring_f0047"  d="M -105.999999821 73.3333333333 L -106.00000006 73.3333333333 L 87.9999999404 73.3333333333 L 88.0000001788 73.3333333333 L -105.999999821 73.3333333333 Z " stroke="#191919" stroke-width="0.35 px" style="stroke-width:0.35;stroke-miterlimit:4;stroke-dasharray:none;fill:#000000;fill-rule: evenodd "/>
<path id="Part__Mirroring_f0048"  d="M 88.0000001788 73.3333333333 L 87.9999999404 73.3333333333 L 87.9999999404 78.0 L 88.0000001788 78.0 L 88.0000001788 73.3333333333 Z " stroke="#191919" stroke-width="0.35 px" style="stroke-width:0.35;stroke-miterlimit:4;stroke-dasharray:none;fill:#000000;fill-rule: evenodd "/>
<path id="Part__Mirroring_f0049"  d="M 88.0000001788 78.0 L 87.9999999404 78.0 L -106.00000006 78.0 L -105.999999821 78.0 L 88.0000001788 78.0 Z " stroke="#191919" stroke-width="0.35 px" style="stroke-width:0.35;stroke-miterlimit:4;stroke-dasharray:none;fill:#000000;fill-rule: evenodd "/>
<path id="Part__Mirroring_f0050"  d="M -105.999999821 78.0 L -106.00000006 78.0 L -106.00000006 96.0 L -105.999999821 96.0 L -105.999999821 78.0 Z " stroke="#191919" stroke-width="0.35 px" style="stroke-width:0.35;stroke-miterlimit:4;stroke-dasharray:none;fill:#000000;fill-rule: evenodd "/>
<title>LinearPattern (Mirror #1)</title>
</g>
<g id="LinearPattern" transform="translate(114.120000,116.120000) scale(1,-1)">
<path id="LinearPattern_f0000"  d="M -100.0 114.0 L -100.0 114.0 L 100.0 114.0 L 100.0 114.0 L -100.0 114.0 Z " stroke="#191919" stroke-width="0.35 px" style="stroke-width:0.35;stroke-miterlimit:4;stroke-dasharray:none;fill:#000000;fill-rule: evenodd "/>
<path id="LinearPattern_f0001"  d="M -100.0 114.0 L -100.0 108.0 L -100.0 108.0 L -100.0 114.0 L -100.0 114.0 Z " stroke="#191919" stroke-width="0.35 px" style="stroke-width:0.35;stroke-miterlimit:4;stroke-dasharray:none;fill:#000000;fill-rule: evenodd "/>
<path id="LinearPattern_f0002"  d="M 100.0 114.0 L 100.0 114.0 L 100.0 -114.0 L 100.0 -114.0 L 100.0 114.0 Z " stroke="#191919" stroke-width="0.35 px" style="stroke-width:0.35;stroke-miterlimit:4;stroke-dasharray:none;fill:#000000;fill-rule: evenodd "/>
<path id="LinearPattern_f0003"  d="M -100.0 108.0 L -100.0 114.0 L 100.0 114.0 L 100.0 -114.0 L 100.0 -120.0 L 16.0 -120.0 L 16.0 -234.0 L 35.0 -234.0 L 35.0 -264.0 L 10.0 -264.0 L 10.0 -114.0 L 94.0 -114.0 L 94.0 -96.0 L -100.0 -96.0 L -100.0 -91.3333333333 L 94.0 -91.3333333333 L 94.0 -73.3333333333 L -100.0 -73.3333333333 L -100.0 -68.6666666667 L 94.0 -68.6666666667 L 94.0 -50.6666666667 L -100.0 -50.6666666667 L -100.0 -46.0 L 94.0 -46.0 L 94.0 -28.0 L -100.0 -28.0 L -100.0 -23.3333333333 L 94.0 -23.3333333333 L 94.0 -5.33333333333 L -100.0 -5.33333333333 L -100.0 -0.666666666667 L 94.0 -0.666666666667 L 94.0 17.3333333333 L -100.0 17.3333333333 L -100.0 22.0 L 94.0 22.0 L 94.0 40.0 L -100.0 40.0 L -100.0 44.6666666667 L 94.0 44.6666666667 L 94.0 62.6666666667 L -100.0 62.6666666667 L -100.0 67.3333333333 L 94.0 67.3333333333 L 94.0 85.3333333333 L -100.0 85.3333333333 L -100.0 90.0 L 94.0 90.0 L 94.0 108.0 L -100.0 108.0 Z " stroke="#191919" stroke-width="0.35 px" style="stroke-width:0.35;stroke-miterlimit:4;stroke-dasharray:none;fill:#000000;fill-rule: evenodd "/>
<path id="LinearPattern_f0004"  d="M 100.0 -114.0 L 100.0 -120.0 L 16.0 -120.0 L 16.0 -234.0 L 35.0 -234.0 L 35.0 -264.0 L 10.0 -264.0 L 10.0 -114.0 L 94.0 -114.0 L 94.0 -96.0 L -100.0 -96.0 L -100.0 -91.3333333333 L 94.0 -91.3333333333 L 94.0 -73.3333333333 L -100.0 -73.3333333333 L -100.0 -68.6666666667 L 94.0 -68.6666666667 L 94.0 -50.6666666667 L -100.0 -50.6666666667 L -100.0 -46.0 L 94.0 -46.0 L 94.0 -28.0 L -100.0 -28.0 L -100.0 -23.3333333333 L 94.0 -23.3333333333 L 94.0 -5.33333333333 L -100.0 -5.33333333333 L -100.0 -0.666666666667 L 94.0 -0.666666666667 L 94.0 17.3333333333 L -100.0 17.3333333333 L -100.0 22.0 L 94.0 22.0 L 94.0 40.0 L -100.0 40.0 L -100.0 44.6666666667 L 94.0 44.6666666667 L 94.0 62.6666666667 L -100.0 62.6666666667 L -100.0 67.3333333333 L 94.0 67.3333333333 L 94.0 85.3333333333 L -100.0 85.3333333333 L -100.0 90.0 L 94.0 90.0 L 94.0 108.0 L -100.0 108.0 L -100.0 114.0 L 100.0 114.0 L 100.0 -114.0 Z " stroke="#191919" stroke-width="0.35 px" style="stroke-width:0.35;stroke-miterlimit:4;stroke-dasharray:none;fill:#000000;fill-rule: evenodd "/>
<path id="LinearPattern_f0005"  d="M -100.0 108.0 L -100.0 108.0 L 94.0 108.0 L 94.0 108.0 L -100.0 108.0 Z " stroke="#191919" stroke-width="0.35 px" style="stroke-width:0.35;stroke-miterlimit:4;stroke-dasharray:none;fill:#000000;fill-rule: evenodd "/>
<path id="LinearPattern_f0006"  d="M 100.0 -114.0 L 100.0 -114.0 L 100.0 -120.0 L 100.0 -120.0 L 100.0 -114.0 Z " stroke="#191919" stroke-width="0.35 px" style="stroke-width:0.35;stroke-miterlimit:4;stroke-dasharray:none;fill:#000000;fill-rule: evenodd "/>
<path id="LinearPattern_f0007"  d="M 100.0 -120.0 L 100.0 -120.0 L 16.0 -120.0 L 16.0 -120.0 L 100.0 -120.0 Z " stroke="#191919" stroke-width="0.35 px" style="stroke-width:0.35;stroke-miterlimit:4;stroke-dasharray:none;fill:#000000;fill-rule: evenodd "/>
<path id="LinearPattern_f0008"  d="M 16.0 -120.0 L 16.0 -120.0 L 16.0 -234.0 L 16.0 -234.0 L 16.0 -120.0 Z " stroke="#191919" stroke-width="0.35 px" style="stroke-width:0.35;stroke-miterlimit:4;stroke-dasharray:none;fill:#000000;fill-rule: evenodd "/>
<path id="LinearPattern_f0009"  d="M 16.0 -234.0 L 16.0 -234.0 L 35.0 -234.0 L 35.0 -234.0 L 16.0 -234.0 Z " stroke="#191919" stroke-width="0.35 px" style="stroke-width:0.35;stroke-miterlimit:4;stroke-dasharray:none;fill:#000000;fill-rule: evenodd "/>
<path id="LinearPattern_f0010"  d="M 35.0 -234.0 L 35.0 -234.0 L 35.0 -264.0 L 35.0 -264.0 L 35.0 -234.0 Z " stroke="#191919" stroke-width="0.35 px" style="stroke-width:0.35;stroke-miterlimit:4;stroke-dasharray:none;fill:#000000;fill-rule: evenodd "/>
<path id="LinearPattern_f0011"  d="M 35.0 -264.0 L 35.0 -264.0 L 10.0 -264.0 L 10.0 -264.0 L 35.0 -264.0 Z " stroke="#191919" stroke-width="0.35 px" style="stroke-width:0.35;stroke-miterlimit:4;stroke-dasharray:none;fill:#000000;fill-rule: evenodd "/>
<path id="LinearPattern_f0012"  d="M 10.0 -264.0 L 10.0 -264.0 L 10.0 -114.0 L 10.0 -114.0 L 10.0 -264.0 Z " stroke="#191919" stroke-width="0.35 px" style="stroke-width:0.35;stroke-miterlimit:4;stroke-dasharray:none;fill:#000000;fill-rule: evenodd "/>
<path id="LinearPattern_f0013"  d="M 10.0 -114.0 L 94.0 -114.0 L 94.0 -114.0 L 10.0 -114.0 L 10.0 -114.0 Z " stroke="#191919" stroke-width="0.35 px" style="stroke-width:0.35;stroke-miterlimit:4;stroke-dasharray:none;fill:#000000;fill-rule: evenodd "/>
<path id="LinearPattern_f0014"  d="M 94.0 -96.0 L 94.0 -96.0 L 94.0 -114.0 L 94.0 -114.0 L 94.0 -96.0 Z " stroke="#191919" stroke-width="0.35 px" style="stroke-width:0.35;stroke-miterlimit:4;stroke-dasharray:none;fill:#000000;fill-rule: evenodd "/>
<path id="LinearPattern_f0015"  d="M -100.0 -96.0 L -100.0 -96.0 L 94.0 -96.0 L 94.0 -96.0 L -100.0 -96.0 Z " stroke="#191919" stroke-width="0.35 px" style="stroke-width:0.35;stroke-miterlimit:4;stroke-dasharray:none;fill:#000000;fill-rule: evenodd "/>
<path id="LinearPattern_f0016"  d="M -100.0 -91.3333333333 L -100.0 -96.0 L -100.0 -96.0 L -100.0 -91.3333333333 L -100.0 -91.3333333333 Z " stroke="#191919" stroke-width="0.35 px" style="stroke-width:0.35;stroke-miterlimit:4;stroke-dasharray:none;fill:#000000;fill-rule: evenodd "/>
<path id="LinearPattern_f0017"  d="M 94.0 -91.3333333333 L 94.0 -91.3333333333 L -100.0 -91.3333333333 L -100.0 -91.3333333333 L 94.0 -91.3333333333 Z " stroke="#191919" stroke-width="0.35 px" style="stroke-width:0.35;stroke-miterlimit:4;stroke-dasharray:none;fill:#000000;fill-rule: evenodd "/>
<path id="LinearPattern_f0018"  d="M 94.0 -73.3333333333 L 94.0 -73.3333333333 L 94.0 -91.3333333333 L 94.0 -91.3333333333 L 94.0 -73.3333333333 Z " stroke="#191919" stroke-width="0.35 px" style="stroke-width:0.35;stroke-miterlimit:4;stroke-dasharray:none;fill:#000000;fill-rule: evenodd "/>
<path id="LinearPattern_f0019"  d="M -100.0 -73.3333333333 L -100.0 -73.3333333333 L 94.0 -73.3333333333 L 94.0 -73.3333333333 L -100.0 -73.3333333333 Z " stroke="#191919" stroke-width="0.35 px" style="stroke-width:0.35;stroke-miterlimit:4;stroke-dasharray:none;fill:#000000;fill-rule: evenodd "/>
<path id="LinearPattern_f0020"  d="M -100.0 -68.6666666667 L -100.0 -73.3333333333 L -100.0 -73.3333333333 L -100.0 -68.6666666667 L -100.0 -68.6666666667 Z " stroke="#191919" stroke-width="0.35 px" style="stroke-width:0.35;stroke-miterlimit:4;stroke-dasharray:none;fill:#000000;fill-rule: evenodd "/>
<path id="LinearPattern_f0021"  d="M 94.0 -68.6666666667 L 94.0 -68.6666666667 L -100.0 -68.6666666667 L -100.0 -68.6666666667 L 94.0 -68.6666666667 Z " stroke="#191919" stroke-width="0.35 px" style="stroke-width:0.35;stroke-miterlimit:4;stroke-dasharray:none;fill:#000000;fill-rule: evenodd "/>
<path id="LinearPattern_f0022"  d="M 94.0 -50.6666666667 L 94.0 -50.6666666667 L 94.0 -68.6666666667 L 94.0 -68.6666666667 L 94.0 -50.6666666667 Z " stroke="#191919" stroke-width="0.35 px" style="stroke-width:0.35;stroke-miterlimit:4;stroke-dasharray:none;fill:#000000;fill-rule: evenodd "/>
<path id="LinearPattern_f0023"  d="M -100.0 -50.6666666667 L -100.0 -50.6666666667 L 94.0 -50.6666666667 L 94.0 -50.6666666667 L -100.0 -50.6666666667 Z " stroke="#191919" stroke-width="0.35 px" style="stroke-width:0.35;stroke-miterlimit:4;stroke-dasharray:none;fill:#000000;fill-rule: evenodd "/>
<path id="LinearPattern_f0024"  d="M -100.0 -46.0 L -100.0 -50.6666666667 L -100.0 -50.6666666667 L -100.0 -46.0 L -100.0 -46.0 Z " stroke="#191919" stroke-width="0.35 px" style="stroke-width:0.35;stroke-miterlimit:4;stroke-dasharray:none;fill:#000000;fill-rule: evenodd "/>
<path id="LinearPattern_f0025"  d="M 94.0 -46.0 L 94.0 -46.0 L -100.0 -46.0 L -100.0 -46.0 L 94.0 -46.0 Z " stroke="#191919" stroke-width="0.35 px" style="stroke-width:0.35;stroke-miterlimit:4;stroke-dasharray:none;fill:#000000;fill-rule: evenodd "/>
<path id="LinearPattern_f0026"  d="M 94.0 -28.0 L 94.0 -28.0 L 94.0 -46.0 L 94.0 -46.0 L 94.0 -28.0 Z " stroke="#191919" stroke-width="0.35 px" style="stroke-width:0.35;stroke-miterlimit:4;stroke-dasharray:none;fill:#000000;fill-rule: evenodd "/>
<path id="LinearPattern_f0027"  d="M -100.0 -28.0 L -100.0 -28.0 L 94.0 -28.0 L 94.0 -28.0 L -100.0 -28.0 Z " stroke="#191919" stroke-width="0.35 px" style="stroke-width:0.35;stroke-miterlimit:4;stroke-dasharray:none;fill:#000000;fill-rule: evenodd "/>
<path id="LinearPattern_f0028"  d="M -100.0 -23.3333333333 L -100.0 -28.0 L -100.0 -28.0 L -100.0 -23.3333333333 L -100.0 -23.3333333333 Z " stroke="#191919" stroke-width="0.35 px" style="stroke-width:0.35;stroke-miterlimit:4;stroke-dasharray:none;fill:#000000;fill-rule: evenodd "/>
<path id="LinearPattern_f0029"  d="M 94.0 -23.3333333333 L 94.0 -23.3333333333 L -100.0 -23.3333333333 L -100.0 -23.3333333333 L 94.0 -23.3333333333 Z " stroke="#191919" stroke-width="0.35 px" style="stroke-width:0.35;stroke-miterlimit:4;stroke-dasharray:none;fill:#000000;fill-rule: evenodd "/>
<path id="LinearPattern_f0030"  d="M 94.0 -5.33333333333 L 94.0 -5.33333333333 L 94.0 -23.3333333333 L 94.0 -23.3333333333 L 94.0 -5.33333333333 Z " stroke="#191919" stroke-width="0.35 px" style="stroke-width:0.35;stroke-miterlimit:4;stroke-dasharray:none;fill:#000000;fill-rule: evenodd "/>
<path id="LinearPattern_f0031"  d="M -100.0 -5.33333333333 L -100.0 -5.33333333333 L 94.0 -5.33333333333 L 94.0 -5.33333333333 L -100.0 -5.33333333333 Z " stroke="#191919" stroke-width="0.35 px" style="stroke-width:0.35;stroke-miterlimit:4;stroke-dasharray:none;fill:#000000;fill-rule: evenodd "/>
<path id="LinearPattern_f0032"  d="M -100.0 -0.666666666667 L -100.0 -5.33333333333 L -100.0 -5.33333333333 L -100.0 -0.666666666667 L -100.0 -0.666666666667 Z " stroke="#191919" stroke-width="0.35 px" style="stroke-width:0.35;stroke-miterlimit:4;stroke-dasharray:none;fill:#000000;fill-rule: evenodd "/>
<path id="LinearPattern_f0033"  d="M 94.0 -0.666666666667 L 94.0 -0.666666666667 L -100.0 -0.666666666667 L -100.0 -0.666666666667 L 94.0 -0.666666666667 Z " stroke="#191919" stroke-width="0.35 px" style="stroke-width:0.35;stroke-miterlimit:4;stroke-dasharray:none;fill:#000000;fill-rule: evenodd "/>
<path id="LinearPattern_f0034"  d="M 94.0 17.3333333333 L 94.0 17.3333333333 L 94.0 -0.666666666667 L 94.0 -0.666666666667 L 94.0 17.3333333333 Z " stroke="#191919" stroke-width="0.35 px" style="stroke-width:0.35;stroke-miterlimit:4;stroke-dasharray:none;fill:#000000;fill-rule: evenodd "/>
<path id="LinearPattern_f0035"  d="M -100.0 17.3333333333 L -100.0 17.3333333333 L 94.0 17.3333333333 L 94.0 17.3333333333 L -100.0 17.3333333333 Z " stroke="#191919" stroke-width="0.35 px" style="stroke-width:0.35;stroke-miterlimit:4;stroke-dasharray:none;fill:#000000;fill-rule: evenodd "/>
<path id="LinearPattern_f0036"  d="M -100.0 22.0 L -100.0 17.3333333333 L -100.0 17.3333333333 L -100.0 22.0 L -100.0 22.0 Z " stroke="#191919" stroke-width="0.35 px" style="stroke-width:0.35;stroke-miterlimit:4;stroke-dasharray:none;fill:#000000;fill-rule: evenodd "/>
<path id="LinearPattern_f0037"  d="M 94.0 22.0 L 94.0 22.0 L -100.0 22.0 L -100.0 22.0 L 94.0 22.0 Z " stroke="#191919" stroke-width="0.35 px" style="stroke-width:0.35;stroke-miterlimit:4;stroke-dasharray:none;fill:#000000;fill-rule: evenodd "/>
<path id="LinearPattern_f0038"  d="M 94.0 40.0 L 94.0 40.0 L 94.0 22.0 L 94.0 22.0 L 94.0 40.0 Z " stroke="#191919" stroke-width="0.35 px" style="stroke-width:0.35;stroke-miterlimit:4;stroke-dasharray:none;fill:#000000;fill-rule: evenodd "/>
<path id="LinearPattern_f0039"  d="M -100.0 40.0 L -100.0 40.0 L 94.0 40.0 L 94.0 40.0 L -100.0 40.0 Z " stroke="#191919" stroke-width="0.35 px" style="stroke-width:0.35;stroke-miterlimit:4;stroke-dasharray:none;fill:#000000;fill-rule: evenodd "/>
<path id="LinearPattern_f0040"  d="M -100.0 44.6666666667 L -100.0 40.0 L -100.0 40.0 L -100.0 44.6666666667 L -100.0 44.6666666667 Z " stroke="#191919" stroke-width="0.35 px" style="stroke-width:0.35;stroke-miterlimit:4;stroke-dasharray:none;fill:#000000;fill-rule: evenodd "/>
<path id="LinearPattern_f0041"  d="M 94.0 44.6666666667 L 94.0 44.6666666667 L -100.0 44.6666666667 L -100.0 44.6666666667 L 94.0 44.6666666667 Z " stroke="#191919" stroke-width="0.35 px" style="stroke-width:0.35;stroke-miterlimit:4;stroke-dasharray:none;fill:#000000;fill-rule: evenodd "/>
<path id="LinearPattern_f0042"  d="M 94.0 62.6666666667 L 94.0 62.6666666667 L 94.0 44.6666666667 L 94.0 44.6666666667 L 94.0 62.6666666667 Z " stroke="#191919" stroke-width="0.35 px" style="stroke-width:0.35;stroke-miterlimit:4;stroke-dasharray:none;fill:#000000;fill-rule: evenodd "/>
<path id="LinearPattern_f0043"  d="M -100.0 62.6666666667 L -100.0 62.6666666667 L 94.0 62.6666666667 L 94.0 62.6666666667 L -100.0 62.6666666667 Z " stroke="#191919" stroke-width="0.35 px" style="stroke-width:0.35;stroke-miterlimit:4;stroke-dasharray:none;fill:#000000;fill-rule: evenodd "/>
<path id="LinearPattern_f0044"  d="M -100.0 67.3333333333 L -100.0 62.6666666667 L -100.0 62.6666666667 L -100.0 67.3333333333 L -100.0 67.3333333333 Z " stroke="#191919" stroke-width="0.35 px" style="stroke-width:0.35;stroke-miterlimit:4;stroke-dasharray:none;fill:#000000;fill-rule: evenodd "/>
<path id="LinearPattern_f0045"  d="M 94.0 67.3333333333 L 94.0 67.3333333333 L -100.0 67.3333333333 L -100.0 67.3333333333 L 94.0 67.3333333333 Z " stroke="#191919" stroke-width="0.35 px" style="stroke-width:0.35;stroke-miterlimit:4;stroke-dasharray:none;fill:#000000;fill-rule: evenodd "/>
<path id="LinearPattern_f0046"  d="M 94.0 85.3333333333 L 94.0 85.3333333333 L 94.0 67.3333333333 L 94.0 67.3333333333 L 94.0 85.3333333333 Z " stroke="#191919" stroke-width="0.35 px" style="stroke-width:0.35;stroke-miterlimit:4;stroke-dasharray:none;fill:#000000;fill-rule: evenodd "/>
<path id="LinearPattern_f0047"  d="M -100.0 85.3333333333 L -100.0 85.3333333333 L 94.0 85.3333333333 L 94.0 85.3333333333 L -100.0 85.3333333333 Z " stroke="#191919" stroke-width="0.35 px" style="stroke-width:0.35;stroke-miterlimit:4;stroke-dasharray:none;fill:#000000;fill-rule: evenodd "/>
<path id="LinearPattern_f0048"  d="M -100.0 90.0 L -100.0 85.3333333333 L -100.0 85.3333333333 L -100.0 90.0 L -100.0 90.0 Z " stroke="#191919" stroke-width="0.35 px" style="stroke-width:0.35;stroke-miterlimit:4;stroke-dasharray:none;fill:#000000;fill-rule: evenodd "/>
<path id="LinearPattern_f0049"  d="M 94.0 90.0 L 94.0 90.0 L -100.0 90.0 L -100.0 90.0 L 94.0 90.0 Z " stroke="#191919" stroke-width="0.35 px" style="stroke-width:0.35;stroke-miterlimit:4;stroke-dasharray:none;fill:#000000;fill-rule: evenodd "/>
<path id="LinearPattern_f0050"  d="M 94.0 108.0 L 94.0 108.0 L 94.0 90.0 L 94.0 90.0 L 94.0 108.0 Z " stroke="#191919" stroke-width="0.35 px" style="stroke-width:0.35;stroke-miterlimit:4;stroke-dasharray:none;fill:#000000;fill-rule: evenodd "/>
<title>LinearPattern</title>
</g>
</svg>