<?xml version="1.0"?>
<!DOCTYPE svg PUBLIC "-//W3C//DTD SVG 1.1//EN" "http://www.w3.org/Graphics/SVG/1.1/DTD/svg11.dtd">
<svg width="165.240000061mm" height="345.240000001mm" viewBox="0 0 165.240000061 345.240000001" xmlns="http://www.w3.org/2000/svg" version="1.1">
<g id="Part__Mirroring" transform="translate(88.620000,91.620000) scale(1,-1)">
<path id="Part__Mirroring_f0000"  d="M -87.0000000596 78.0 L 62.9999999404 78.0 L 63.0000001788 78.0 L -86.9999998212 78.0 L -87.0000000596 78.0 Z " stroke="#191919" stroke-width="0.35 px" style="stroke-width:0.35;stroke-miterlimit:4;stroke-dasharray:none;fill:#000000;fill-rule: evenodd "/>
<path id="Part__Mirroring_f0001"  d="M 63.0000001788 72.0 L 62.9999999404 72.0 L 62.9999999404 78.0 L 63.0000001788 78.0 L 63.0000001788 72.0 Z " stroke="#191919" stroke-width="0.35 px" style="stroke-width:0.35;stroke-miterlimit:4;stroke-dasharray:none;fill:#000000;fill-rule: evenodd "/>
<path id="Part__Mirroring_f0002"  d="M -87.0000000596 -102.0 L -87.0000000596 78.0 L -86.9999998212 78.0 L -86.9999998212 -102.0 L -87.0000000596 -102.0 Z " stroke="#191919" stroke-width="0.35 px" style="stroke-width:0.35;stroke-miterlimit:4;stroke-dasharray:none;fill:#000000;fill-rule: evenodd "/>
<path id="Part__Mirroring_f0003"  d="M -87.0000000596 -102.0 L -87.0000000596 -108.0 L -28.0000000596 -108.0 L -28.0000000596 -222.0 L -47.0000000596 -222.0 L -47.0000000596 -252.0 L -22.0000000596 -252.0 L -22.0000000596 -102.0 L -81.0000000596 -102.0 L -81.0000000596 -84.0 L 62.9999999404 -84.0 L 62.9999999404 -79.7142857143 L -81.0000000596 -79.7142857143 L -81.0000000596 -61.7142857143 L 62.9999999404 -61.7142857143 L 62.9999999404 -57.4285714286 L -81.0000000596 -57.4285714286 L -81.0000000596 -39.4285714286 L 62.9999999404 -39.4285714286 L 62.9999999404 -35.1428571429 L -81.0000000596 -35.1428571429 L -81.0000000596 -17.1428571429 L 62.9999999404 -17.1428571429 L 62.9999999404 -12.8571428571 L -81.0000000596 -12.8571428571 L -81.0000000596 5.14285714286 L 62.9999999404 5.14285714286 L 62.9999999404 9.42857142857 L -81.0000000596 9.42857142857 L -81.0000000596 27.4285714286 L 62.9999999404 27.4285714286 L 62.9999999404 31.7142857143 L -81.0000000596 31.7142857143 L -81.0000000596 49.7142857143 L 62.9999999404 49.7142857143 L 62.9999999404 54.0 L -81.0000000596 54.0 L -81.0000000596 72.0 L 62.9999999404 72.0 L 62.9999999404 78.0 L -87.0000000596 78.0 L -87.0000000596 -102.0 Z " stroke="#191919" stroke-width="0.35 px" style="stroke-width:0.35;stroke-miterlimit:4;stroke-dasharray:none;fill:#000000;fill-rule: evenodd "/>
<path id="Part__Mirroring_f0004"  d="M 63.0000001788 72.0 L 63.0000001788 78.0 L -86.9999998212 78.0 L -86.9999998212 -102.0 L -86.9999998212 -108.0 L -27.9999998212 -108.0 L -27.9999998212 -222.0 L -46.9999998212 -222.0 L -46.9999998212 -252.0 L -21.9999998212 -252.0 L -21.9999998212 -102.0 L -80.9999998212 -102.0 L -80.9999998212 -84.0 L 63.0000001788 -84.0 L 63.0000001788 -79.7142857143 L -80.9999998212 -79.7142857143 L -80.9999998212 -61.7142857143 L 63.0000001788 -61.7142857143 L 63.0000001788 -57.4285714286 L -80.9999998212 -57.4285714286 L -80.9999998212 -39.4285714286 L 63.0000001788 -39.4285714286 L 63.0000001788 -35.1428571429 L -80.9999998212 -35.1428571429 L -80.9999998212 -17.1428571429 L 63.0000001788 -17.1428571429 L 63.0000001788 -12.8571428571 L -80.9999998212 -12.8571428571 L -80.9999998212 5.14285714286 L 63.0000001788 5.14285714286 L 63.0000001788 9.42857142857 L -80.9999998212 9.42857142857 L -80.9999998212 27.4285714286 L 63.0000001788 27.4285714286 L 63.0000001788 31.7142857143 L -80.9999998212 31.7142857143 L -80.9999998212 49.7142857143 L 63.0000001788 49.7142857143 L 63.0000001788 54.0 L -80.9999998212 54.0 L -80.9999998212 72.0 L 63.0000001788 72.0 Z " stroke="#191919" stroke-width="0.35 px" style="stroke-width:0.35;stroke-miterlimit:4;stroke-dasharray:none;fill:#000000;fill-rule: evenodd "/>
<path id="Part__Mirroring_f0005"  d="M -80.9999998212 72.0 L -81.0000000596 72.0 L 62.9999999404 72.0 L 63.0000001788 72.0 L -80.9999998212 72.0 Z " stroke="#191919" stroke-width="0.35 px" style="stroke-width:0.35;stroke-miterlimit:4;stroke-dasharray:none;fill:#000000;fill-rule: evenodd "/>
<path id="Part__Mirroring_f0006"  d="M -87.0000000596 -108.0 L -87.0000000596 -102.0 L -86.9999998212 -102.0 L -86.9999998212 -108.0 L -87.0000000596 -108.0 Z " stroke="#191919" stroke-width="0.35 px" style="stroke-width:0.35;stroke-miterlimit:4;stroke-dasharray:none;fill:#000000;fill-rule: evenodd "/>
<path id="Part__Mirroring_f0007"  d="M -28.0000000596 -108.0 L -87.0000000596 -108.0 L -86.9999998212 -108.0 L -27.9999998212 -108.0 L -28.0000000596 -108.0 Z " stroke="#191919" stroke-width="0.35 px" style="stroke-width:0.35;stroke-miterlimit:4;stroke-dasharray:none;fill:#000000;fill-rule: evenodd "/>
<path id="Part__Mirroring_f0008"  d="M -28.0000000596 -222.0 L -28.0000000596 -108.0 L -27.9999998212 -108.0 L -27.9999998212 -222.0 L -28.0000000596 -222.0 Z " stroke="#191919" stroke-width="0.35 px" style="stroke-width:0.35;stroke-miterlimit:4;stroke-dasharray:none;fill:#000000;fill-rule: evenodd "/>
<path id="Part__Mirroring_f0009"  d="M -47.0000000596 -222.0 L -28.0000000596 -222.0 L -27.9999998212 -222.0 L -46.9999998212 -222.0 L -47.0000000596 -222.0 Z " stroke="#191919" stroke-width="0.35 px" style="stroke-width:0.35;stroke-miterlimit:4;stroke-dasharray:none;fill:#000000;fill-rule: evenodd "/>
<path id="Part__Mirroring_f0010"  d="M -47.0000000596 -252.0 L -47.0000000596 -222.0 L -46.9999998212 -222.0 L -46.9999998212 -252.0 L -47.0000000596 -252.0 Z " stroke="#191919" stroke-width="0.35 px" style="stroke-width:0.35;stroke-miterlimit:4;stroke-dasharray:none;fill:#000000;fill-rule: evenodd "/>
<path id="Part__Mirroring_f0011"  d="M -22.0000000596 -252.0 L -47.0000000596 -252.0 L -46.9999998212 -252.0 L -21.9999998212 -252.0 L -22.0000000596 -252.0 Z " stroke="#191919" stroke-width="0.35 px" style="stroke-width:0.35;stroke-miterlimit:4;stroke-dasharray:none;fill:#000000;fill-rule: evenodd "/>
<path id="Part__Mirroring_f0012"  d="M -22.0000000596 -102.0 L -21.9999998212 -102.0 L -21.9999998212 -252.0 L -22.0000000596 -252.0 L -22.0000000596 -102.0 Z " stroke="#191919" stroke-width="0.35 px" style="stroke-width:0.35;stroke-miterlimit:4;stroke-dasharray:none;fill:#000000;fill-rule: evenodd "/>
<path id="Part__Mirroring_f0013"  d="M -22.0000000596 -102.0 L -21.9999998212 -102.0 L -80.9999998212 -102.0 L -81.0000000596 -102.0 L -22.0000000596 -102.0 Z " stroke="#191919" stroke-width="0.35 px" style="stroke-width:0.35;stroke-miterlimit:4;stroke-dasharray:none;fill:#000000;fill-rule: evenodd "/>
<path id="Part__Mirroring_f0014"  d="M -80.9999998212 -102.0 L -81.0000000596 -102.0 L -81.0000000596 -84.0 L -80.9999998212 -84.0 L -80.9999998212 -102.0 Z " stroke="#191919" stroke-width="0.35 px" style="stroke-width:0.35;stroke-miterlimit:4;stroke-dasharray:none;fill:#000000;fill-rule: evenodd "/>
<path id="Part__Mirroring_f0015"  d="M -80.9999998212 -84.0 L -81.0000000596 -84.0 L 62.9999999404 -84.0 L 63.0000001788 -84.0 L -80.9999998212 -84.0 Z " stroke="#191919" stroke-width="0.35 px" style="stroke-width:0.35;stroke-miterlimit:4;stroke-dasharray:none;fill:#000000;fill-rule: evenodd "/>
<path id="Part__Mirroring_f0016"  d="M 63.0000001788 -84.0 L 62.9999999404 -84.0 L 62.9999999404 -79.7142857143 L 63.0000001788 -79.7142857143 L 63.0000001788 -84.0 Z " stroke="#191919" stroke-width="0.35 px" style="stroke-width:0.35;stroke-miterlimit:4;stroke-dasharray:none;fill:#000000;fill-rule: evenodd "/>
<path id="Part__Mirroring_f0017"  d="M 63.0000001788 -79.7142857143 L 62.9999999404 -79.7142857143 L -81.0000000596 -79.7142857143 L -80.9999998212 -79.7142857143 L 63.0000001788 -79.7142857143 Z " stroke="#191919" stroke-width="0.35 px" style="stroke-width:0.35;stroke-miterlimit:4;stroke-dasharray:none;fill:#000000;fill-rule: evenodd "/>
<path id="Part__Mirroring_f0018"  d="M -80.9999998212 -79.7142857143 L -81.0000000596 -79.7142857143 L -81.0000000596 -61.7142857143 L -80.9999998212 -61.7142857143 L -80.9999998212 -79.7142857143 Z " stroke="#191919" stroke-width="0.35 px" style="stroke-width:0.35;stroke-miterlimit:4;stroke-dasharray:none;fill:#000000;fill-rule: evenodd "/>
<path id="Part__Mirroring_f0019"  d="M -80.9999998212 -61.7142857143 L -81.0000000596 -61.7142857143 L 62.9999999404 -61.7142857143 L 63.0000001788 -61.7142857143 L -80.9999998212 -61.7142857143 Z " stroke="#191919" stroke-width="0.35 px" style="stroke-width:0.35;stroke-miterlimit:4;stroke-dasharray:none;fill:#000000;fill-rule: evenodd "/>
<path id="Part__Mirroring_f0020"  d="M 63.0000001788 -61.7142857143 L 62.9999999404 -61.7142857143 L 62.9999999404 -57.4285714286 L 63.0000001788 -57.4285714286 L 63.0000001788 -61.7142857143 Z " stroke="#191919" stroke-width="0.35 px" style="stroke-width:0.35;stroke-miterlimit:4;stroke-dasharray:none;fill:#000000;fill-rule: evenodd "/>
<path id="Part__Mirroring_f0021"  d="M 63.0000001788 -57.4285714286 L 62.9999999404 -57.4285714286 L -81.0000000596 -57.4285714286 L -80.9999998212 -57.4285714286 L 63.0000001788 -57.4285714286 Z " stroke="#191919" stroke-width="0.35 px" style="stroke-width:0.35;stroke-miterlimit:4;stroke-dasharray:none;fill:#000000;fill-rule: evenodd "/>
<path id="Part__Mirroring_f0022"  d="M -80.9999998212 -57.4285714286 L -81.0000000596 -57.4285714286 L -81.0000000596 -39.4285714286 L -80.9999998212 -39.4285714286 L -80.9999998212 -57.4285714286 Z " stroke="#191919" stroke-width="0.35 px" style="stroke-width:0.35;stroke-miterlimit:4;stroke-dasharray:none;fill:#000000;fill-rule: evenodd "/>
<path id="Part__Mirroring_f0023"  d="M -80.9999998212 -39.4285714286 L -81.0000000596 -39.4285714286 L 62.9999999404 -39.4285714286 L 63.0000001788 -39.4285714286 L -80.9999998212 -39.4285714286 Z " stroke="#191919" stroke-width="0.35 px" style="stroke-width:0.35;stroke-miterlimit:4;stroke-dasharray:none;fill:#000000;fill-rule: evenodd "/>
<path id="Part__Mirroring_f0024"  d="M 63.0000001788 -39.4285714286 L 62.9999999404 -39.4285714286 L 62.9999999404 -35.1428571429 L 63.0000001788 -35.1428571429 L 63.0000001788 -39.4285714286 Z " stroke="#191919" stroke-width="0.35 px" style="stroke-width:0.35;stroke-miterlimit:4;stroke-dasharray:none;fill:#000000;fill-rule: evenodd "/>
<path id="Part__Mirroring_f0025"  d="M 63.0000001788 -35.1428571429 L 62.9999999404 -35.1428571429 L -81.0000000596 -35.1428571429 L -80.9999998212 -35.1428571429 L 63.0000001788 -35.1428571429 Z " stroke="#191919" stroke-width="0.35 px" style="stroke-width:0.35;stroke-miterlimit:4;stroke-dasharray:none;fill:#000000;fill-rule: evenodd "/>
<path id="Part__Mirroring_f0026"  d="M -80.9999998212 -35.1428571429 L -81.0000000596 -35.1428571429 L -81.0000000596 -17.1428571429 L -80.9999998212 -17.1428571429 L -80.9999998212 -35.1428571429 Z " stroke="#191919" stroke-width="0.35 px" style="stroke-width:0.35;stroke-miterlimit:4;stroke-dasharray:none;fill:#000000;fill-rule: evenodd "/>
<path id="Part__Mirroring_f0027"  d="M -80.9999998212 -17.1428571429 L -81.0000000596 -17.1428571429 L 62.9999999404 -17.1428571429 L 63.0000001788 -17.1428571429 L -80.9999998212 -17.1428571429 Z " stroke="#191919" stroke-width="0.35 px" style="stroke-width:0.35;stroke-miterlimit:4;stroke-dasharray:none;fill:#000000;fill-rule: evenodd "/>
<path id="Part__Mirroring_f0028"  d="M 63.0000001788 -17.1428571429 L 62.9999999404 -17.1428571429 L 62.9999999404 -12.8571428571 L 63.0000001788 -12.8571428571 L 63.0000001788 -17.1428571429 Z " stroke="#191919" stroke-width="0.35 px" style="stroke-width:0.35;stroke-miterlimit:4;stroke-dasharray:none;fill:#000000;fill-rule: evenodd "/>
<path id="Part__Mirroring_f0029"  d="M 63.0000001788 -12.8571428571 L 62.9999999404 -12.8571428571 L -81.0000000596 -12.8571428571 L -80.9999998212 -12.8571428571 L 63.0000001788 -12.8571428571 Z " stroke="#191919" stroke-width="0.35 px" style="stroke-width:0.35;stroke-miterlimit:4;stroke-dasharray:none;fill:#000000;fill-rule: evenodd "/>
<path id="Part__Mirroring_f0030"  d="M -80.9999998212 -12.8571428571 L -81.0000000596 -12.8571428571 L -81.0000000596 5.14285714286 L -80.9999998212 5.14285714286 L -80.9999998212 -12.8571428571 Z " stroke="#191919" stroke-width="0.35 px" style="stroke-width:0.35;stroke-miterlimit:4;stroke-dasharray:none;fill:#000000;fill-rule: evenodd "/>
<path id="Part__Mirroring_f0031"  d="M -80.9999998212 5.14285714286 L -81.0000000596 5.14285714286 L 62.9999999404 5.14285714286 L 63.0000001788 5.14285714286 L -80.9999998212 5.14285714286 Z " stroke="#191919" stroke-width="0.35 px" style="stroke-width:0.35;stroke-miterlimit:4;stroke-dasharray:none;fill:#000000;fill-rule: evenodd "/>
<path id="Part__Mirroring_f0032"  d="M 63.0000001788 5.14285714286 L 62.9999999404 5.14285714286 L 62.9999999404 9.42857142857 L 63.0000001788 9.42857142857 L 63.0000001788 5.14285714286 Z " stroke="#191919" stroke-width="0.35 px" style="stroke-width:0.35;stroke-miterlimit:4;stroke-dasharray:none;fill:#000000;fill-rule: evenodd "/>
<path id="Part__Mirroring_f0033"  d="M 63.0000001788 9.42857142857 L 62.9999999404 9.42857142857 L -81.0000000596 9.42857142857 L -80.9999998212 9.42857142857 L 63.0000001788 9.42857142857 Z " stroke="#191919" stroke-width="0.35 px" style="stroke-width:0.35;stroke-miterlimit:4;stroke-dasharray:none;fill:#000000;fill-rule: evenodd "/>
<path id="Part__Mirroring_f0034"  d="M -80.9999998212 9.42857142857 L -81.0000000596 9.42857142857 L -81.0000000596 27.4285714286 L -80.9999998212 27.4285714286 L -80.9999998212 9.42857142857 Z " stroke="#191919" stroke-width="0.35 px" style="stroke-width:0.35;stroke-miterlimit:4;stroke-dasharray:none;fill:#000000;fill-rule: evenodd "/>
<path id="Part__Mirroring_f0035"  d="M -80.9999998212 27.4285714286 L -81.0000000596 27.4285714286 L 62.9999999404 27.4285714286 L 63.0000001788 27.4285714286 L -80.9999998212 27.4285714286 Z " stroke="#191919" stroke-width="0.35 px" style="stroke-width:0.35;stroke-miterlimit:4;stroke-dasharray:none;fill:#000000;fill-rule: evenodd "/>
<path id="Part__Mirroring_f0036"  d="M 63.0000001788 27.4285714286 L 62.9999999404 27.4285714286 L 62.9999999404 31.7142857143 L 63.0000001788 31.7142857143 L 63.0000001788 27.4285714286 Z " stroke="#191919" stroke-width="0.35 px" style="stroke-width:0.35;stroke-miterlimit:4;stroke-dasharray:none;fill:#000000;fill-rule: evenodd "/>
<path id="Part__Mirroring_f0037"  d="M 63.0000001788 31.7142857143 L 62.9999999404 31.7142857143 L -81.0000000596 31.7142857143 L -80.9999998212 31.7142857143 L 63.0000001788 31.7142857143 Z " stroke="#191919" stroke-width="0.35 px" style="stroke-width:0.35;stroke-miterlimit:4;stroke-dasharray:none;fill:#000000;fill-rule: evenodd "/>
<path id="Part__Mirroring_f0038"  d="M -80.9999998212 31.7142857143 L -81.0000000596 31.7142857143 L -81.0000000596 49.7142857143 L -80.9999998212 49.7142857143 L -80.9999998212 31.7142857143 Z " stroke="#191919" stroke-width="0.35 px" style="stroke-width:0.35;stroke-miterlimit:4;stroke-dasharray:none;fill:#000000;fill-rule: evenodd "/>
<path id="Part__Mirroring_f0039"  d="M -80.9999998212 49.7142857143 L -81.0000000596 49.7142857143 L 62.9999999404 49.7142857143 L 63.0000001788 49.7142857143 L -80.9999998212 49.7142857143 Z " stroke="#191919" stroke-width="0.35 px" style="stroke-width:0.35;stroke-miterlimit:4;stroke-dasharray:none;fill:#000000;fill-rule: evenodd "/>
<path id="Part__Mirroring_f0040"  d="M 63.0000001788 49.7142857143 L 62.9999999404 49.7142857143 L 62.9999999404 54.0 L 63.0000001788 54.0 L 63.0000001788 49.7142857143 Z " stroke="#191919" stroke-width="0.35 px" style="stroke-width:0.35;stroke-miterlimit:4;stroke-dasharray:none;fill:#000000;fill-rule: evenodd "/>
<path id="Part__Mirroring_f0041"  d="M 63.0000001788 54.0 L 62.9999999404 54.0 L -81.0000000596 54.0 L -80.9999998212 54.0 L 63.0000001788 54.0 Z " stroke="#191919" stroke-width="0.35 px" style="stroke-width:0.35;stroke-miterlimit:4;stroke-dasharray:none;fill:#000000;fill-rule: evenodd "/>
<path id="Part__Mirroring_f0042"  d="M -80.9999998212 54.0 L -81.0000000596 54.0 L -81.0000000596 72.0 L -80.9999998212 72.0 L -80.9999998212 54.0 Z " stroke="#191919" stroke-width="0.35 px" style="stroke-width:0.35;stroke-miterlimit:4;stroke-dasharray:none;fill:#000000;fill-rule: evenodd "/>
<title>LinearPattern (Mirror #1)</title>
</g>
<g id="LinearPattern" transform="translate(88.620000,91.620000) scale(1,-1)">
<path id="LinearPattern_f0000"  d="M -75.0 90.0 L -75.0 90.0 L 75.0 90.0 L 75.0 90.0 L -75.0 90.0 Z " stroke="#191919" stroke-width="0.35 px" style="stroke-width:0.35;stroke-miterlimit:4;stroke-dasharray:none;fill:#000000;fill-rule: evenodd "/>
<path id="LinearPattern_f0001"  d="M -75.0 90.0 L -75.0 84.0 L -75.0 84.0 L -75.0 90.0 L -75.0 90.0 Z " stroke="#191919" stroke-width="0.35 px" style="stroke-width:0.35;stroke-miterlimit:4;stroke-dasharray:none;fill:#000000;fill-rule: evenodd "/>
<path id="LinearPattern_f0002"  d="M 75.0 90.0 L 75.0 90.0 L 75.0 -90.0 L 75.0 -90.0 L 75.0 90.0 Z " stroke="#191919" stroke-width="0.35 px" style="stroke-width:0.35;stroke-miterlimit:4;stroke-dasharray:none;fill:#000000;fill-rule: evenodd "/>
<path id="LinearPattern_f0003"  d="M -75.0 84.0 L -75.0 90.0 L 75.0 90.0 L 75.0 -90.0 L 75.0 -96.0 L 16.0 -96.0 L 16.0 -210.0 L 35.0 -210.0 L 35.0 -240.0 L 10.0 -240.0 L 10.0 -90.0 L 69.0 -90.0 L 69.0 -72.0 L -75.0 -72.0 L -75.0 -67.7142857143 L 69.0 -67.7142857143 L 69.0 -49.7142857143 L -75.0 -49.7142857143 L -75.0 -45.4285714286 L 69.0 -45.4285714286 L 69.0 -27.4285714286 L -75.0 -27.4285714286 L -75.0 -23.1428571429 L 69.0 -23.1428571429 L 69.0 -5.14285714286 L -75.0 -5.14285714286 L -75.0 -0.857142857143 L 69.0 -0.857142857143 L 69.0 17.1428571429 L -75.0 17.1428571429 L -75.0 21.4285714286 L 69.0 21.4285714286 L 69.0 39.4285714286 L -75.0 39.4285714286 L -75.0 43.7142857143 L 69.0 43.7142857143 L 69.0 61.7142857143 L -75.0 61.7142857143 L -75.0 66.0 L 69.0 66.0 L 69.0 84.0 L -75.0 84.0 Z " stroke="#191919" stroke-width="0.35 px" style="stroke-width:0.35;stroke-miterlimit:4;stroke-dasharray:none;fill:#000000;fill-rule: evenodd "/>
<path id="LinearPattern_f0004"  d="M 75.0 -90.0 L 75.0 -96.0 L 16.0 -96.0 L 16.0 -210.0 L 35.0 -210.0 L 35.0 -240.0 L 10.0 -240.0 L 10.0 -90.0 L 69.0 -90.0 L 69.0 -72.0 L -75.0 -72.0 L -75.0 -67.7142857143 L 69.0 -67.7142857143 L 69.0 -49.7142857143 L -75.0 -49.7142857143 L -75.0 -45.4285714286 L 69.0 -45.4285714286 L 69.0 -27.4285714286 L -75.0 -27.4285714286 L -75.0 -23.1428571429 L 69.0 -23.1428571429 L 69.0 -5.14285714286 L -75.0 -5.14285714286 L -75.0 -0.857142857143 L 69.0 -0.857142857143 L 69.0 17.1428571429 L -75.0 17.1428571429 L -75.0 21.4285714286 L 69.0 21.4285714286 L 69.0 39.4285714286 L -75.0 39.4285714286 L -75.0 43.7142857143 L 69.0 43.7142857143 L 69.0 61.7142857143 L -75.0 61.7142857143 L -75.0 66.0 L 69.0 66.0 L 69.0 84.0 L -75.0 84.0 L -75.0 90.0 L 75.0 90.0 L 75.0 -90.0 Z " stroke="#191919" stroke-width="0.35 px" style="stroke-width:0.35;stroke-miterlimit:4;stroke-dasharray:none;fill:#000000;fill-rule: evenodd "/>
<path id="LinearPattern_f0005"  d="M -75.0 84.0 L -75.0 84.0 L 69.0 84.0 L 69.0 84.0 L -75.0 84.0 Z " stroke="#191919" stroke-width="0.35 px" style="stroke-width:0.35;stroke-miterlimit:4;stroke-dasharray:none;fill:#000000;fill-rule: evenodd "/>
<path id="LinearPattern_f0006"  d="M 75.0 -90.0 L 75.0 -90.0 L 75.0 -96.0 L 75.0 -96.0 L 75.0 -90.0 Z " stroke="#191919" stroke-width="0.35 px" style="stroke-width:0.35;stroke-miterlimit:4;stroke-dasharray:none;fill:#000000;fill-rule: evenodd "/>
<path id="LinearPattern_f0007"  d="M 75.0 -96.0 L 75.0 -96.0 L 16.0 -96.0 L 16.0 -96.0 L 75.0 -96.0 Z " stroke="#191919" stroke-width="0.35 px" style="stroke-width:0.35;stroke-miterlimit:4;stroke-dasharray:none;fill:#000000;fill-rule: evenodd "/>
<path id="LinearPattern_f0008"  d="M 16.0 -96.0 L 16.0 -96.0 L 16.0 -210.0 L 16.0 -210.0 L 16.0 -96.0 Z " stroke="#191919" stroke-width="0.35 px" style="stroke-width:0.35;stroke-miterlimit:4;stroke-dasharray:none;fill:#000000;fill-rule: evenodd "/>
<path id="LinearPattern_f0009"  d="M 16.0 -210.0 L 16.0 -210.0 L 35.0 -210.0 L 35.0 -210.0 L 16.0 -210.0 Z " stroke="#191919" stroke-width="0.35 px" style="stroke-width:0.35;stroke-miterlimit:4;stroke-dasharray:none;fill:#000000;fill-rule: evenodd "/>
<path id="LinearPattern_f0010"  d="M 35.0 -210.0 L 35.0 -210.0 L 35.0 -240.0 L 35.0 -240.0 L 35.0 -210.0 Z " stroke="#191919" stroke-width="0.35 px" style="stroke-width:0.35;stroke-miterlimit:4;stroke-dasharray:none;fill:#000000;fill-rule: evenodd "/>
<path id="LinearPattern_f0011"  d="M 35.0 -240.0 L 35.0 -240.0 L 10.0 -240.0 L 10.0 -240.0 L 35.0 -240.0 Z " stroke="#191919" stroke-width="0.35 px" style="stroke-width:0.35;stroke-miterlimit:4;stroke-dasharray:none;fill:#000000;fill-rule: evenodd "/>
<path id="LinearPattern_f0012"  d="M 10.0 -240.0 L 10.0 -240.0 L 10.0 -90.0 L 10.0 -90.0 L 10.0 -240.0 Z " stroke="#191919" stroke-width="0.35 px" style="stroke-width:0.35;stroke-miterlimit:4;stroke-dasharray:none;fill:#000000;fill-rule: evenodd "/>
<path id="LinearPattern_f0013"  d="M 10.0 -90.0 L 69.0 -90.0 L 69.0 -90.0 L 10.0 -90.0 L 10.0 -90.0 Z " stroke="#191919" stroke-width="0.35 px" style="stroke-width:0.35;stroke-miterlimit:4;stroke-dasharray:none;fill:#000000;fill-rule: evenodd "/>
<path id="LinearPattern_f0014"  d="M 69.0 -72.0 L 69.0 -72.0 L 69.0 -90.0 L 69.0 -90.0 L 69.0 -72.0 Z " stroke="#191919" stroke-width="0.35 px" style="stroke-width:0.35;stroke-miterlimit:4;stroke-dasharray:none;fill:#000000;fill-rule: evenodd "/>
<path id="LinearPattern_f0015"  d="M -75.0 -72.0 L -75.0 -72.0 L 69.0 -72.0 L 69.0 -72.0 L -75.0 -72.0 Z " stroke="#191919" stroke-width="0.35 px" style="stroke-width:0.35;stroke-miterlimit:4;stroke-dasharray:none;fill:#000000;fill-rule: evenodd "/>
<path id="LinearPattern_f0016"  d="M -75.0 -67.7142857143 L -75.0 -72.0 L -75.0 -72.0 L -75.0 -67.7142857143 L -75.0 -67.7142857143 Z " stroke="#191919" stroke-width="0.35 px" style="stroke-width:0.35;stroke-miterlimit:4;stroke-dasharray:none;fill:#000000;fill-rule: evenodd "/>
<path id="LinearPattern_f0017"  d="M 69.0 -67.7142857143 L 69.0 -67.7142857143 L -75.0 -67.7142857143 L -75.0 -67.7142857143 L 69.0 -67.7142857143 Z " stroke="#191919" stroke-width="0.35 px" style="stroke-width:0.35;stroke-miterlimit:4;stroke-dasharray:none;fill:#000000;fill-rule: evenodd "/>
<path id="LinearPattern_f0018"  d="M 69.0 -49.7142857143 L 69.0 -49.7142857143 L 69.0 -67.7142857143 L 69.0 -67.7142857143 L 69.0 -49.7142857143 Z " stroke="#191919" stroke-width="0.35 px" style="stroke-width:0.35;stroke-miterlimit:4;stroke-dasharray:none;fill:#000000;fill-rule: evenodd "/>
<path id="LinearPattern_f0019"  d="M -75.0 -49.7142857143 L -75.0 -49.7142857143 L 69.0 -49.7142857143 L 69.0 -49.7142857143 L -75.0 -49.7142857143 Z " stroke="#191919" stroke-width="0.35 px" style="stroke-width:0.35;stroke-miterlimit:4;stroke-dasharray:none;fill:#000000;fill-rule: evenodd "/>
<path id="LinearPattern_f0020"  d="M -75.0 -45.4285714286 L -75.0 -49.7142857143 L -75.0 -49.7142857143 L -75.0 -45.4285714286 L -75.0 -45.4285714286 Z " stroke="#191919" stroke-width="0.35 px" style="stroke-width:0.35;stroke-miterlimit:4;stroke-dasharray:none;fill:#000000;fill-rule: evenodd "/>
<path id="LinearPattern_f0021"  d="M 69.0 -45.4285714286 L 69.0 -45.4285714286 L -75.0 -45.4285714286 L -75.0 -45.4285714286 L 69.0 -45.4285714286 Z " stroke="#191919" stroke-width="0.35 px" style="stroke-width:0.35;stroke-miterlimit:4;stroke-dasharray:none;fill:#000000;fill-rule: evenodd "/>
<path id="LinearPattern_f0022"  d="M 69.0 -27.4285714286 L 69.0 -27.4285714286 L 69.0 -45.4285714286 L 69.0 -45.4285714286 L 69.0 -27.4285714286 Z " stroke="#191919" stroke-width="0.35 px" style="stroke-width:0.35;stroke-miterlimit:4;stroke-dasharray:none;fill:#000000;fill-rule: evenodd "/>
<path id="LinearPattern_f0023"  d="M -75.0 -27.4285714286 L -75.0 -27.4285714286 L 69.0 -27.4285714286 L 69.0 -27.4285714286 L -75.0 -27.4285714286 Z " stroke="#191919" stroke-width="0.35 px" style="stroke-width:0.35;stroke-miterlimit:4;stroke-dasharray:none;fill:#000000;fill-rule: evenodd "/>
<path id="LinearPattern_f0024"  d="M -75.0 -23.1428571429 L -75.0 -27.4285714286 L -75.0 -27.4285714286 L -75.0 -23.1428571429 L -75.0 -23.1428571429 Z " stroke="#191919" stroke-width="0.35 px" style="stroke-width:0.35;stroke-miterlimit:4;stroke-dasharray:none;fill:#000000;fill-rule: evenodd "/>
<path id="LinearPattern_f0025"  d="M 69.0 -23.1428571429 L 69.0 -23.1428571429 L -75.0 -23.1428571429 L -75.0 -23.1428571429 L 69.0 -23.1428571429 Z " stroke="#191919" stroke-width="0.35 px" style="stroke-width:0.35;stroke-miterlimit:4;stroke-dasharray:none;fill:#000000;fill-rule: evenodd "/>
<path id="LinearPattern_f0026"  d="M 69.0 -5.14285714286 L 69.0 -5.14285714286 L 69.0 -23.1428571429 L 69.0 -23.1428571429 L 69.0 -5.14285714286 Z " stroke="#191919" stroke-width="0.35 px" style="stroke-width:0.35;stroke-miterlimit:4;stroke-dasharray:none;fill:#000000;fill-rule: evenodd "/>
<path id="LinearPattern_f0027"  d="M -75.0 -5.14285714286 L -75.0 -5.14285714286 L 69.0 -5.14285714286 L 69.0 -5.14285714286 L -75.0 -5.14285714286 Z " stroke="#191919" stroke-width="0.35 px" style="stroke-width:0.35;stroke-miterlimit:4;stroke-dasharray:none;fill:#000000;fill-rule: evenodd "/>
<path id="LinearPattern_f0028"  d="M -75.0 -0.857142857143 L -75.0 -5.14285714286 L -75.0 -5.14285714286 L -75.0 -0.857142857143 L -75.0 -0.857142857143 Z " stroke="#191919" stroke-width="0.35 px" style="stroke-width:0.35;stroke-miterlimit:4;stroke-dasharray:none;fill:#000000;fill-rule: evenodd "/>
<path id="LinearPattern_f0029"  d="M 69.0 -0.857142857143 L 69.0 -0.857142857143 L -75.0 -0.857142857143 L -75.0 -0.857142857143 L 69.0 -0.857142857143 Z " stroke="#191919" stroke-width="0.35 px" style="stroke-width:0.35;stroke-miterlimit:4;stroke-dasharray:none;fill:#000000;fill-rule: evenodd "/>
<path id="LinearPattern_f0030"  d="M 69.0 17.1428571429 L 69.0 17.1428571429 L 69.0 -0.857142857143 L 69.0 -0.857142857143 L 69.0 17.1428571429 Z " stroke="#191919" stroke-width="0.35 px" style="stroke-width:0.35;stroke-miterlimit:4;stroke-dasharray:none;fill:#000000;fill-rule: evenodd "/>
<path id="LinearPattern_f0031"  d="M -75.0 17.1428571429 L -75.0 17.1428571429 L 69.0 17.1428571429 L 69.0 17.1428571429 L -75.0 17.1428571429 Z " stroke="#191919" stroke-width="0.35 px" style="stroke-width:0.35;stroke-miterlimit:4;stroke-dasharray:none;fill:#000000;fill-rule: evenodd "/>
<path id="LinearPattern_f0032"  d="M -75.0 21.4285714286 L -75.0 17.1428571429 L -75.0 17.1428571429 L -75.0 21.4285714286 L -75.0 21.4285714286 Z " stroke="#191919" stroke-width="0.35 px" style="stroke-width:0.35;stroke-miterlimit:4;stroke-dasharray:none;fill:#000000;fill-rule: evenodd "/>
<path id="LinearPattern_f0033"  d="M 69.0 21.4285714286 L 69.0 21.4285714286 L -75.0 21.4285714286 L -75.0 21.4285714286 L 69.0 21.4285714286 Z " stroke="#191919" stroke-width="0.35 px" style="stroke-width:0.35;stroke-miterlimit:4;stroke-dasharray:none;fill:#000000;fill-rule: evenodd "/>
<path id="LinearPattern_f0034"  d="M 69.0 39.4285714286 L 69.0 39.4285714286 L 69.0 21.4285714286 L 69.0 21.4285714286 L 69.0 39.4285714286 Z " stroke="#191919" stroke-width="0.35 px" style="stroke-width:0.35;stroke-miterlimit:4;stroke-dasharray:none;fill:#000000;fill-rule: evenodd "/>
<path id="LinearPattern_f0035"  d="M -75.0 39.4285714286 L -75.0 39.4285714286 L 69.0 39.4285714286 L 69.0 39.4285714286 L -75.0 39.4285714286 Z " stroke="#191919" stroke-width="0.35 px" style="stroke-width:0.35;stroke-miterlimit:4;stroke-dasharray:none;fill:#000000;fill-rule: evenodd "/>
<path id="LinearPattern_f0036"  d="M -75.0 43.7142857143 L -75.0 39.4285714286 L -75.0 39.4285714286 L -75.0 43.7142857143 L -75.0 43.7142857143 Z " stroke="#191919" stroke-width="0.35 px" style="stroke-width:0.35;stroke-miterlimit:4;stroke-dasharray:none;fill:#000000;fill-rule: evenodd "/>
<path id="LinearPattern_f0037"  d="M 69.0 43.7142857143 L 69.0 43.7142857143 L -75.0 43.7142857143 L -75.0 43.7142857143 L 69.0 43.7142857143 Z " stroke="#191919" stroke-width="0.35 px" style="stroke-width:0.35;stroke-miterlimit:4;stroke-dasharray:none;fill:#000000;fill-rule: evenodd "/>
<path id="LinearPattern_f0038"  d="M 69.0 61.7142857143 L 69.0 61.7142857143 L 69.0 43.7142857143 L 69.0 43.7142857143 L 69.0 61.7142857143 Z " stroke="#191919" stroke-width="0.35 px" style="stroke-width:0.35;stroke-miterlimit:4;stroke-dasharray:none;fill:#000000;fill-rule: evenodd "/>
<path id="LinearPattern_f0039"  d="M -75.0 61.7142857143 L -75.0 61.7142857143 L 69.0 61.7142857143 L 69.0 61.7142857143 L -75.0 61.7142857143 Z " stroke="#191919" stroke-width="0.35 px" style="stroke-width:0.35;stroke-miterlimit:4;stroke-dasharray:none;fill:#000000;fill-rule: evenodd "/>
<path id="LinearPattern_f0040"  d="M -75.0 66.0 L -75.0 61.7142857143 L -75.0 61.7142857143 L -75.0 66.0 L -75.0 66.0 Z " stroke="#191919" stroke-width="0.35 px" style="stroke-width:0.35;stroke-miterlimit:4;stroke-dasharray:none;fill:#000000;fill-rule: evenodd "/>
<path id="LinearPattern_f0041"  d="M 69.0 66.0 L 69.0 66.0 L -75.0 66.0 L -75.0 66.0 L 69.0 66.0 Z " stroke="#191919" stroke-width="0.35 px" style="stroke-width:0.35;stroke-miterlimit:4;stroke-dasharray:none;fill:#000000;fill-rule: evenodd "/>
<path id="LinearPattern_f0042"  d="M 69.0 84.0 L 69.0 84.0 L 69.0 66.0 L 69.0 66.0 L 69.0 84.0 Z " stroke="#191919" stroke-width="0.35 px" style="stroke-width:0.35;stroke-miterlimit:4;stroke-dasharray:none;fill:#000000;fill-rule: evenodd "/>
<title>LinearPattern</title>
</g>
</svg>