G04 #@! TF.GenerationSoftware,KiCad,Pcbnew,(5.0.0)*
G04 #@! TF.CreationDate,2020-01-12T10:43:54+01:00*
G04 #@! TF.ProjectId,Insole_PCB,496E736F6C655F5043422E6B69636164,rev?*
G04 #@! TF.SameCoordinates,Original*
G04 #@! TF.FileFunction,Legend,Top*
G04 #@! TF.FilePolarity,Positive*
%FSLAX46Y46*%
G04 Gerber Fmt 4.6, Leading zero omitted, Abs format (unit mm)*
G04 Created by KiCad (PCBNEW (5.0.0)) date 01/12/20 10:43:54*
%MOMM*%
%LPD*%
G01*
G04 APERTURE LIST*
%ADD10C,0.200000*%
%ADD11C,0.120000*%
%ADD12C,0.010000*%
%ADD13C,0.150000*%
G04 APERTURE END LIST*
D10*
G04 #@! TO.C,S0*
X191249453Y-119110707D02*
G75*
G03X191249453Y-119110707I-10500000J0D01*
G01*
G04 #@! TO.C,S1*
X183249453Y-95060707D02*
G75*
G03X183249453Y-95060707I-10500000J0D01*
G01*
G04 #@! TO.C,S2*
X183249453Y-71110707D02*
G75*
G03X183249453Y-71110707I-10500000J0D01*
G01*
G04 #@! TO.C,S3*
X185249453Y-49110707D02*
G75*
G03X185249453Y-49110707I-10500000J0D01*
G01*
G04 #@! TO.C,S4*
X192249453Y-28110707D02*
G75*
G03X192249453Y-28110707I-10500000J0D01*
G01*
G04 #@! TO.C,S5*
X208899453Y-49110707D02*
G75*
G03X208899453Y-49110707I-10500000J0D01*
G01*
G04 #@! TO.C,S6*
X207459453Y-72100707D02*
G75*
G03X207459453Y-72100707I-10500000J0D01*
G01*
G04 #@! TO.C,S7*
X209249453Y-95110707D02*
G75*
G03X209249453Y-95110707I-10500000J0D01*
G01*
G04 #@! TO.C,S8*
X214249453Y-27110707D02*
G75*
G03X214249453Y-27110707I-10500000J0D01*
G01*
G04 #@! TO.C,S9*
X233249453Y-41110707D02*
G75*
G03X233249453Y-41110707I-10500000J0D01*
G01*
G04 #@! TO.C,S10*
X227249453Y-64110707D02*
G75*
G03X227249453Y-64110707I-10500000J0D01*
G01*
G04 #@! TO.C,S11*
X248249453Y-61110707D02*
G75*
G03X248249453Y-61110707I-10500000J0D01*
G01*
G04 #@! TO.C,S12*
X235249453Y-84110707D02*
G75*
G03X235249453Y-84110707I-10500000J0D01*
G01*
G04 #@! TO.C,S13*
X258249453Y-81110707D02*
G75*
G03X258249453Y-81110707I-10500000J0D01*
G01*
G04 #@! TO.C,S14*
X213249453Y-119110707D02*
G75*
G03X213249453Y-119110707I-10500000J0D01*
G01*
G04 #@! TO.C,S15*
X236249453Y-105110707D02*
G75*
G03X236249453Y-105110707I-10500000J0D01*
G01*
G04 #@! TO.C,S16*
X260249453Y-102110707D02*
G75*
G03X260249453Y-102110707I-10500000J0D01*
G01*
G04 #@! TO.C,S17*
X259249453Y-123110707D02*
G75*
G03X259249453Y-123110707I-10500000J0D01*
G01*
G04 #@! TO.C,S18*
X235249453Y-127110707D02*
G75*
G03X235249453Y-127110707I-10500000J0D01*
G01*
G04 #@! TO.C,S19*
X230249453Y-148110707D02*
G75*
G03X230249453Y-148110707I-10500000J0D01*
G01*
G04 #@! TO.C,S20*
X254249453Y-145110707D02*
G75*
G03X254249453Y-145110707I-10500000J0D01*
G01*
G04 #@! TO.C,S21*
X245699453Y-165760707D02*
G75*
G03X245699453Y-165760707I-10500000J0D01*
G01*
G04 #@! TO.C,S22*
X242669453Y-186740707D02*
G75*
G03X242669453Y-186740707I-10500000J0D01*
G01*
G04 #@! TO.C,S23*
X241449453Y-207990707D02*
G75*
G03X241449453Y-207990707I-10500000J0D01*
G01*
G04 #@! TO.C,S24*
X204129453Y-228730707D02*
G75*
G03X204129453Y-228730707I-10500000J0D01*
G01*
G04 #@! TO.C,S25*
X200919453Y-249600707D02*
G75*
G03X200919453Y-249600707I-10500000J0D01*
G01*
G04 #@! TO.C,S26*
X211249453Y-268260707D02*
G75*
G03X211249453Y-268260707I-10500000J0D01*
G01*
G04 #@! TO.C,S27*
X233149453Y-268360707D02*
G75*
G03X233149453Y-268360707I-10500000J0D01*
G01*
G04 #@! TO.C,S28*
X244499453Y-250480707D02*
G75*
G03X244499453Y-250480707I-10500000J0D01*
G01*
G04 #@! TO.C,S29*
X222749453Y-245310707D02*
G75*
G03X222749453Y-245310707I-10500000J0D01*
G01*
G04 #@! TO.C,S30*
X243949453Y-229310707D02*
G75*
G03X243949453Y-229310707I-10500000J0D01*
G01*
G04 #@! TO.C,S31*
X224169453Y-221710707D02*
G75*
G03X224169453Y-221710707I-10500000J0D01*
G01*
D11*
G04 #@! TO.C,J2*
X186183929Y-192038895D02*
X186877236Y-192087376D01*
X186136146Y-192722226D02*
X186183929Y-192038895D01*
X187388464Y-193496470D02*
X187474977Y-193502519D01*
X186088363Y-193405558D02*
X186174876Y-193411607D01*
X187474977Y-193502519D02*
X187413940Y-194375388D01*
X186088363Y-193405558D02*
X186027326Y-194278426D01*
X187114165Y-194354425D02*
X187413940Y-194375388D01*
X186027326Y-194278426D02*
X186327101Y-194299388D01*
G04 #@! TO.C,L1*
X189265878Y-157743711D02*
X189718380Y-157482459D01*
X188555878Y-156513955D02*
X189008380Y-156252703D01*
G04 #@! TO.C,L2*
X192208380Y-146972703D02*
X191755878Y-147233955D01*
X192918380Y-148202459D02*
X192465878Y-148463711D01*
D12*
G04 #@! TO.C,G\002A\002A\002A*
G36*
X209626800Y-195344393D02*
X209782425Y-195348590D01*
X209935834Y-195355525D01*
X210084294Y-195365139D01*
X210225073Y-195377373D01*
X210355439Y-195392167D01*
X210405939Y-195399058D01*
X210597458Y-195431937D01*
X210777567Y-195473742D01*
X210946346Y-195524531D01*
X211103876Y-195584360D01*
X211250235Y-195653286D01*
X211385503Y-195731367D01*
X211509759Y-195818659D01*
X211623085Y-195915220D01*
X211725558Y-196021106D01*
X211817258Y-196136375D01*
X211898266Y-196261083D01*
X211968661Y-196395287D01*
X212028522Y-196539045D01*
X212038851Y-196567842D01*
X212075753Y-196688433D01*
X212106236Y-196819967D01*
X212129984Y-196960218D01*
X212146682Y-197106960D01*
X212156012Y-197257967D01*
X212157739Y-197405250D01*
X212157688Y-197467348D01*
X212159339Y-197515155D01*
X212162690Y-197548623D01*
X212165308Y-197561084D01*
X212168987Y-197576841D01*
X212171798Y-197595892D01*
X212173740Y-197619572D01*
X212174816Y-197649216D01*
X212175028Y-197686161D01*
X212174376Y-197731741D01*
X212172863Y-197787293D01*
X212170490Y-197854151D01*
X212167258Y-197933653D01*
X212165796Y-197967678D01*
X212164120Y-198009589D01*
X212162614Y-198054796D01*
X212161271Y-198104136D01*
X212160083Y-198158447D01*
X212159043Y-198218565D01*
X212158144Y-198285327D01*
X212157380Y-198359571D01*
X212156743Y-198442134D01*
X212156226Y-198533853D01*
X212155822Y-198635564D01*
X212155524Y-198748106D01*
X212155325Y-198872315D01*
X212155218Y-199009029D01*
X212155195Y-199159083D01*
X212155209Y-199223164D01*
X212155328Y-199352353D01*
X212155605Y-199482885D01*
X212156030Y-199613948D01*
X212156592Y-199744730D01*
X212157283Y-199874417D01*
X212158094Y-200002197D01*
X212159014Y-200127259D01*
X212160035Y-200248789D01*
X212161147Y-200365974D01*
X212162340Y-200478003D01*
X212163606Y-200584063D01*
X212164934Y-200683341D01*
X212166315Y-200775025D01*
X212167740Y-200858302D01*
X212169200Y-200932360D01*
X212170685Y-200996387D01*
X212172185Y-201049569D01*
X212173691Y-201091094D01*
X212175194Y-201120151D01*
X212176684Y-201135925D01*
X212177446Y-201138605D01*
X212187133Y-201139757D01*
X212208611Y-201137412D01*
X212239723Y-201132080D01*
X212278309Y-201124273D01*
X212322212Y-201114500D01*
X212369273Y-201103273D01*
X212417334Y-201091103D01*
X212464237Y-201078501D01*
X212507823Y-201065977D01*
X212545935Y-201054043D01*
X212569705Y-201045757D01*
X212665866Y-201005098D01*
X212750674Y-200958827D01*
X212823539Y-200907396D01*
X212883871Y-200851259D01*
X212931078Y-200790868D01*
X212953425Y-200751630D01*
X212978882Y-200699993D01*
X213069387Y-199763821D01*
X213080525Y-199648522D01*
X213091270Y-199537112D01*
X213101539Y-199430455D01*
X213111251Y-199329416D01*
X213120322Y-199234860D01*
X213128670Y-199147652D01*
X213136213Y-199068657D01*
X213142867Y-198998739D01*
X213148550Y-198938764D01*
X213153181Y-198889597D01*
X213156675Y-198852102D01*
X213158951Y-198827144D01*
X213159927Y-198815589D01*
X213159958Y-198814950D01*
X213161300Y-198809630D01*
X213166813Y-198806032D01*
X213178825Y-198803827D01*
X213199664Y-198802686D01*
X213231659Y-198802280D01*
X213249937Y-198802250D01*
X213334650Y-198798657D01*
X213415623Y-198787436D01*
X213494314Y-198767923D01*
X213572177Y-198739454D01*
X213650667Y-198701367D01*
X213731240Y-198652997D01*
X213815352Y-198593681D01*
X213904458Y-198522756D01*
X213952020Y-198482137D01*
X214002167Y-198439008D01*
X214042776Y-198405942D01*
X214074827Y-198382997D01*
X214099303Y-198370235D01*
X214117182Y-198367715D01*
X214129445Y-198375498D01*
X214137074Y-198393645D01*
X214141047Y-198422215D01*
X214142347Y-198461268D01*
X214142204Y-198493821D01*
X214141561Y-198509169D01*
X214139876Y-198538123D01*
X214137214Y-198579817D01*
X214133640Y-198633386D01*
X214129217Y-198697963D01*
X214124011Y-198772682D01*
X214118085Y-198856678D01*
X214111504Y-198949084D01*
X214104331Y-199049035D01*
X214096632Y-199155664D01*
X214088471Y-199268106D01*
X214079911Y-199385495D01*
X214071018Y-199506965D01*
X214061855Y-199631650D01*
X214052487Y-199758683D01*
X214042977Y-199887200D01*
X214033392Y-200016333D01*
X214023794Y-200145218D01*
X214014247Y-200272987D01*
X214004817Y-200398776D01*
X213995568Y-200521718D01*
X213986564Y-200640948D01*
X213977868Y-200755598D01*
X213969546Y-200864805D01*
X213961662Y-200967700D01*
X213954280Y-201063419D01*
X213947464Y-201151096D01*
X213941279Y-201229865D01*
X213935789Y-201298859D01*
X213931058Y-201357212D01*
X213927150Y-201404060D01*
X213924131Y-201438535D01*
X213922063Y-201459773D01*
X213921812Y-201461993D01*
X213903748Y-201580186D01*
X213878101Y-201688410D01*
X213844082Y-201789517D01*
X213809688Y-201868495D01*
X213758667Y-201960855D01*
X213697820Y-202045848D01*
X213626707Y-202123756D01*
X213544887Y-202194863D01*
X213451919Y-202259451D01*
X213347363Y-202317805D01*
X213230778Y-202370207D01*
X213101724Y-202416940D01*
X212959760Y-202458287D01*
X212851511Y-202484391D01*
X212783335Y-202498704D01*
X212705378Y-202513609D01*
X212622305Y-202528307D01*
X212538783Y-202541996D01*
X212459477Y-202553877D01*
X212399839Y-202561836D01*
X212360927Y-202567531D01*
X212336198Y-202573204D01*
X212325802Y-202578817D01*
X212325453Y-202580037D01*
X212326251Y-202588244D01*
X212328581Y-202609999D01*
X212332345Y-202644428D01*
X212337444Y-202690655D01*
X212343783Y-202747807D01*
X212351262Y-202815009D01*
X212359785Y-202891387D01*
X212369254Y-202976065D01*
X212379572Y-203068170D01*
X212390640Y-203166826D01*
X212402361Y-203271160D01*
X212414637Y-203380296D01*
X212427157Y-203491449D01*
X212443678Y-203638053D01*
X212458654Y-203771022D01*
X212472159Y-203891144D01*
X212484270Y-203999207D01*
X212495063Y-204095999D01*
X212504613Y-204182310D01*
X212512997Y-204258926D01*
X212520290Y-204326636D01*
X212526568Y-204386228D01*
X212531909Y-204438491D01*
X212536386Y-204484212D01*
X212540077Y-204524180D01*
X212543057Y-204559184D01*
X212545402Y-204590010D01*
X212547189Y-204617448D01*
X212548492Y-204642285D01*
X212549389Y-204665310D01*
X212549955Y-204687312D01*
X212550265Y-204709077D01*
X212550397Y-204731395D01*
X212550425Y-204755053D01*
X212550425Y-204770645D01*
X212545952Y-204922864D01*
X212532440Y-205064047D01*
X212509744Y-205194624D01*
X212477723Y-205315029D01*
X212436234Y-205425690D01*
X212385132Y-205527042D01*
X212324277Y-205619513D01*
X212253524Y-205703537D01*
X212235215Y-205722332D01*
X212154728Y-205794107D01*
X212066113Y-205856518D01*
X211968761Y-205909791D01*
X211862067Y-205954154D01*
X211745423Y-205989832D01*
X211618221Y-206017052D01*
X211479856Y-206036041D01*
X211371139Y-206044855D01*
X211224110Y-206048310D01*
X211086209Y-206040511D01*
X210957360Y-206021426D01*
X210837485Y-205991023D01*
X210726509Y-205949269D01*
X210624354Y-205896133D01*
X210530945Y-205831583D01*
X210446204Y-205755587D01*
X210370056Y-205668113D01*
X210327860Y-205609207D01*
X210278419Y-205529014D01*
X210234782Y-205445228D01*
X210196556Y-205356473D01*
X210163348Y-205261374D01*
X210134764Y-205158557D01*
X210110411Y-205046647D01*
X210089894Y-204924269D01*
X210072821Y-204790049D01*
X210062017Y-204680535D01*
X210060199Y-204662017D01*
X210058744Y-204652735D01*
X210057604Y-204653508D01*
X210056733Y-204665153D01*
X210056084Y-204688488D01*
X210055609Y-204724333D01*
X210055262Y-204773504D01*
X210055134Y-204800278D01*
X210053900Y-205088659D01*
X210052722Y-205362864D01*
X210051598Y-205623233D01*
X210050527Y-205870105D01*
X210049507Y-206103818D01*
X210048536Y-206324713D01*
X210047612Y-206533128D01*
X210046734Y-206729401D01*
X210045900Y-206913873D01*
X210045107Y-207086881D01*
X210044355Y-207248765D01*
X210043642Y-207399865D01*
X210042965Y-207540518D01*
X210042323Y-207671064D01*
X210041714Y-207791843D01*
X210041137Y-207903192D01*
X210040589Y-208005452D01*
X210040069Y-208098960D01*
X210039574Y-208184057D01*
X210039105Y-208261080D01*
X210038657Y-208330370D01*
X210038231Y-208392265D01*
X210037823Y-208447104D01*
X210037432Y-208495226D01*
X210037057Y-208536971D01*
X210036695Y-208572676D01*
X210036345Y-208602682D01*
X210036006Y-208627327D01*
X210035674Y-208646950D01*
X210035349Y-208661890D01*
X210035029Y-208672487D01*
X210034811Y-208677407D01*
X210030799Y-208751793D01*
X209517421Y-208751793D01*
X209425474Y-208751721D01*
X209332531Y-208751514D01*
X209240453Y-208751184D01*
X209151105Y-208750743D01*
X209066350Y-208750204D01*
X208988049Y-208749579D01*
X208918067Y-208748880D01*
X208858265Y-208748120D01*
X208810507Y-208747311D01*
X208797848Y-208747038D01*
X208591653Y-208742284D01*
X208593953Y-208084824D01*
X208594202Y-207994027D01*
X208594365Y-207890367D01*
X208594445Y-207775493D01*
X208594443Y-207651057D01*
X208594363Y-207518709D01*
X208594207Y-207380099D01*
X208593977Y-207236878D01*
X208593678Y-207090697D01*
X208593310Y-206943206D01*
X208592877Y-206796054D01*
X208592381Y-206650894D01*
X208591825Y-206509375D01*
X208591249Y-206380755D01*
X208586244Y-205334146D01*
X208534520Y-205377215D01*
X208506936Y-205400369D01*
X208479363Y-205423822D01*
X208456690Y-205443408D01*
X208451766Y-205447738D01*
X208420735Y-205475193D01*
X208413784Y-206872193D01*
X208413067Y-207017424D01*
X208412369Y-207161001D01*
X208411694Y-207302056D01*
X208411046Y-207439720D01*
X208410428Y-207573127D01*
X208409844Y-207701406D01*
X208409298Y-207823691D01*
X208408794Y-207939113D01*
X208408336Y-208046804D01*
X208407926Y-208145896D01*
X208407570Y-208235520D01*
X208407270Y-208314809D01*
X208407031Y-208382894D01*
X208406856Y-208438907D01*
X208406749Y-208481980D01*
X208406714Y-208506864D01*
X208406596Y-208744535D01*
X207927625Y-208744535D01*
X207927625Y-207242307D01*
X207927612Y-207095757D01*
X207927577Y-206953108D01*
X207927518Y-206815035D01*
X207927439Y-206682213D01*
X207927339Y-206555318D01*
X207927220Y-206435025D01*
X207927083Y-206322009D01*
X207926929Y-206216946D01*
X207926760Y-206120510D01*
X207926577Y-206033377D01*
X207926380Y-205956223D01*
X207926171Y-205889723D01*
X207925951Y-205834552D01*
X207925722Y-205791385D01*
X207925483Y-205760897D01*
X207925238Y-205743765D01*
X207925057Y-205740078D01*
X207917763Y-205742527D01*
X207899215Y-205749304D01*
X207871720Y-205759550D01*
X207837579Y-205772410D01*
X207810757Y-205782586D01*
X207768453Y-205798497D01*
X207726455Y-205813972D01*
X207688569Y-205827629D01*
X207658602Y-205838087D01*
X207648225Y-205841541D01*
X207622645Y-205850264D01*
X207602563Y-205857927D01*
X207591959Y-205863001D01*
X207591560Y-205863318D01*
X207591269Y-205871788D01*
X207594163Y-205891884D01*
X207599785Y-205921183D01*
X207607681Y-205957259D01*
X207614895Y-205987606D01*
X207631856Y-206058969D01*
X207645497Y-206122429D01*
X207656161Y-206181038D01*
X207664192Y-206237844D01*
X207669933Y-206295899D01*
X207673728Y-206358253D01*
X207675920Y-206427956D01*
X207676854Y-206508059D01*
X207676946Y-206538364D01*
X207676930Y-206604112D01*
X207676596Y-206657835D01*
X207675820Y-206702020D01*
X207674476Y-206739154D01*
X207672438Y-206771726D01*
X207669580Y-206802223D01*
X207665778Y-206833133D01*
X207660906Y-206866943D01*
X207660110Y-206872193D01*
X207625242Y-207054671D01*
X207577205Y-207231151D01*
X207516065Y-207401479D01*
X207441891Y-207565502D01*
X207354751Y-207723067D01*
X207254711Y-207874023D01*
X207163909Y-207991785D01*
X207129217Y-208031789D01*
X207086356Y-208077840D01*
X207038078Y-208127253D01*
X206987133Y-208177343D01*
X206936272Y-208225423D01*
X206888247Y-208268810D01*
X206845809Y-208304818D01*
X206831796Y-208315948D01*
X206684346Y-208421494D01*
X206531822Y-208513443D01*
X206374199Y-208591802D01*
X206211455Y-208656581D01*
X206043566Y-208707790D01*
X205870508Y-208745437D01*
X205692259Y-208769532D01*
X205649245Y-208773257D01*
X205570118Y-208777752D01*
X205489191Y-208779393D01*
X205412677Y-208778117D01*
X205373110Y-208776039D01*
X205198477Y-208758056D01*
X205031436Y-208728437D01*
X204870337Y-208686731D01*
X204713526Y-208632490D01*
X204559351Y-208565264D01*
X204513139Y-208542383D01*
X204445391Y-208505816D01*
X204372370Y-208462743D01*
X204298206Y-208415820D01*
X204227024Y-208367706D01*
X204162955Y-208321057D01*
X204133375Y-208297902D01*
X204009484Y-208189133D01*
X203892206Y-208068626D01*
X203783003Y-207938210D01*
X203683340Y-207799720D01*
X203594683Y-207654986D01*
X203546031Y-207563213D01*
X203485842Y-207434199D01*
X203435500Y-207307167D01*
X203393948Y-207178653D01*
X203360127Y-207045194D01*
X203332980Y-206903326D01*
X203321647Y-206828650D01*
X203317204Y-206786935D01*
X203313725Y-206734040D01*
X203311217Y-206672866D01*
X203309685Y-206606310D01*
X203309134Y-206537270D01*
X203309220Y-206523734D01*
X204823536Y-206523734D01*
X204824378Y-206567393D01*
X204832715Y-206714203D01*
X204848079Y-206855192D01*
X204870158Y-206989670D01*
X204898637Y-207116950D01*
X204933203Y-207236343D01*
X204973541Y-207347160D01*
X205019339Y-207448714D01*
X205070283Y-207540316D01*
X205126060Y-207621277D01*
X205186354Y-207690910D01*
X205250854Y-207748527D01*
X205319244Y-207793438D01*
X205391213Y-207824956D01*
X205398510Y-207827319D01*
X205429014Y-207833375D01*
X205468414Y-207836332D01*
X205511435Y-207836230D01*
X205552804Y-207833107D01*
X205587246Y-207827003D01*
X205591322Y-207825882D01*
X205654471Y-207800429D01*
X205717254Y-207761574D01*
X205778577Y-207710414D01*
X205837344Y-207648043D01*
X205892459Y-207575555D01*
X205942827Y-207494045D01*
X205964623Y-207452782D01*
X206013793Y-207344568D01*
X206055913Y-207229673D01*
X206091461Y-207106420D01*
X206120912Y-206973131D01*
X206144743Y-206828130D01*
X206147277Y-206809647D01*
X206151422Y-206770869D01*
X206154747Y-206723668D01*
X206157274Y-206669865D01*
X206159020Y-206611280D01*
X206160008Y-206549732D01*
X206160257Y-206487041D01*
X206159787Y-206425027D01*
X206158618Y-206365510D01*
X206156771Y-206310311D01*
X206154265Y-206261249D01*
X206151121Y-206220144D01*
X206147360Y-206188815D01*
X206143000Y-206169084D01*
X206140121Y-206163584D01*
X206132091Y-206163062D01*
X206112058Y-206163825D01*
X206082463Y-206165722D01*
X206045744Y-206168601D01*
X206014304Y-206171379D01*
X205899667Y-206181464D01*
X205788956Y-206190093D01*
X205679356Y-206197411D01*
X205568053Y-206203566D01*
X205452231Y-206208705D01*
X205329076Y-206212975D01*
X205195772Y-206216523D01*
X205117389Y-206218214D01*
X205055750Y-206219555D01*
X204998735Y-206221001D01*
X204947959Y-206222494D01*
X204905035Y-206223979D01*
X204871579Y-206225398D01*
X204849204Y-206226696D01*
X204839524Y-206227815D01*
X204839286Y-206227941D01*
X204836058Y-206238092D01*
X204832989Y-206260474D01*
X204830179Y-206292803D01*
X204827730Y-206332796D01*
X204825740Y-206378169D01*
X204824311Y-206426638D01*
X204823543Y-206475921D01*
X204823536Y-206523734D01*
X203309220Y-206523734D01*
X203309570Y-206468646D01*
X203310998Y-206403334D01*
X203313424Y-206344236D01*
X203316853Y-206294247D01*
X203320571Y-206261015D01*
X203330761Y-206190495D01*
X203312350Y-206186940D01*
X203299937Y-206185701D01*
X203275364Y-206184201D01*
X203240982Y-206182547D01*
X203199139Y-206180847D01*
X203152187Y-206179211D01*
X203128839Y-206178489D01*
X202963739Y-206173593D01*
X202963739Y-208730021D01*
X202542865Y-208730021D01*
X202541030Y-207436435D01*
X202539196Y-206142850D01*
X202453786Y-206136336D01*
X202420231Y-206134024D01*
X202392374Y-206132573D01*
X202373158Y-206132102D01*
X202365548Y-206132708D01*
X202365221Y-206140150D01*
X202364847Y-206161377D01*
X202364429Y-206195661D01*
X202363972Y-206242273D01*
X202363480Y-206300483D01*
X202362959Y-206369563D01*
X202362412Y-206448784D01*
X202361844Y-206537418D01*
X202361260Y-206634734D01*
X202360665Y-206740006D01*
X202360063Y-206852502D01*
X202359458Y-206971496D01*
X202358855Y-207096257D01*
X202358259Y-207226057D01*
X202357675Y-207360168D01*
X202357371Y-207432807D01*
X202352022Y-208730021D01*
X200902710Y-208730021D01*
X200902636Y-206986493D01*
X200902621Y-206796272D01*
X200902592Y-206619908D01*
X200902543Y-206456742D01*
X200902470Y-206306119D01*
X200902368Y-206167378D01*
X200902233Y-206039864D01*
X200902173Y-205998537D01*
X204872368Y-205998537D01*
X204872368Y-206016887D01*
X205062868Y-206012458D01*
X205127118Y-206010817D01*
X205198550Y-206008745D01*
X205272150Y-206006403D01*
X205342908Y-206003954D01*
X205405812Y-206001558D01*
X205423910Y-206000811D01*
X205493580Y-205997626D01*
X205565832Y-205993893D01*
X205639150Y-205989725D01*
X205712022Y-205985233D01*
X205782932Y-205980532D01*
X205850367Y-205975734D01*
X205912812Y-205970951D01*
X205968753Y-205966297D01*
X206016677Y-205961884D01*
X206055069Y-205957826D01*
X206082414Y-205954235D01*
X206097199Y-205951224D01*
X206098875Y-205950504D01*
X206101314Y-205940863D01*
X206098850Y-205918984D01*
X206091793Y-205886174D01*
X206080456Y-205843742D01*
X206065149Y-205792994D01*
X206051027Y-205749591D01*
X206010123Y-205640112D01*
X205964189Y-205540471D01*
X205913732Y-205451167D01*
X205859260Y-205372698D01*
X205801279Y-205305560D01*
X205740297Y-205250252D01*
X205676821Y-205207271D01*
X205611359Y-205177115D01*
X205544419Y-205160281D01*
X205476506Y-205157268D01*
X205449875Y-205159945D01*
X205386821Y-205173734D01*
X205328210Y-205197230D01*
X205271873Y-205231662D01*
X205215643Y-205278258D01*
X205181522Y-205312075D01*
X205114361Y-205392136D01*
X205053425Y-205485138D01*
X204998825Y-205590858D01*
X204950672Y-205709075D01*
X204909075Y-205839566D01*
X204897209Y-205883719D01*
X204888027Y-205920680D01*
X204880378Y-205953961D01*
X204874956Y-205980351D01*
X204872456Y-205996638D01*
X204872368Y-205998537D01*
X200902173Y-205998537D01*
X200902061Y-205922918D01*
X200901847Y-205815883D01*
X200901586Y-205718101D01*
X200901275Y-205628915D01*
X200900907Y-205547666D01*
X200900480Y-205473697D01*
X200899989Y-205406350D01*
X200899429Y-205344969D01*
X200898795Y-205288894D01*
X200898083Y-205237469D01*
X200897289Y-205190036D01*
X200896408Y-205145937D01*
X200895435Y-205104515D01*
X200894367Y-205065111D01*
X200893198Y-205027069D01*
X200891925Y-204989730D01*
X200890542Y-204952437D01*
X200889045Y-204914532D01*
X200888381Y-204898250D01*
X200872735Y-204440844D01*
X200863733Y-203991457D01*
X200861363Y-203550836D01*
X200865613Y-203119725D01*
X200873468Y-202815370D01*
X201084139Y-202815370D01*
X201717325Y-202817224D01*
X202350510Y-202819078D01*
X202352341Y-204377550D01*
X202352554Y-204554866D01*
X202352761Y-204718238D01*
X202352969Y-204868234D01*
X202353183Y-205005424D01*
X202353408Y-205130376D01*
X202353648Y-205243661D01*
X202353911Y-205345847D01*
X202354200Y-205437503D01*
X202354522Y-205519200D01*
X202354881Y-205591506D01*
X202355282Y-205654991D01*
X202355732Y-205710223D01*
X202356236Y-205757773D01*
X202356797Y-205798209D01*
X202357423Y-205832100D01*
X202358119Y-205860017D01*
X202358888Y-205882528D01*
X202359738Y-205900202D01*
X202360673Y-205913610D01*
X202361698Y-205923319D01*
X202362819Y-205929900D01*
X202364041Y-205933922D01*
X202365370Y-205935953D01*
X202366810Y-205936564D01*
X202366856Y-205936567D01*
X202376186Y-205936983D01*
X202398737Y-205937996D01*
X202433229Y-205939548D01*
X202478386Y-205941582D01*
X202532926Y-205944040D01*
X202595572Y-205946864D01*
X202665045Y-205949997D01*
X202740067Y-205953381D01*
X202819357Y-205956958D01*
X202829482Y-205957415D01*
X202910443Y-205961047D01*
X202988251Y-205964498D01*
X203061497Y-205967708D01*
X203128769Y-205970616D01*
X203188658Y-205973164D01*
X203239755Y-205975290D01*
X203280647Y-205976935D01*
X203309927Y-205978039D01*
X203326182Y-205978542D01*
X203326596Y-205978549D01*
X203373768Y-205979382D01*
X203397827Y-205894201D01*
X203446993Y-205744543D01*
X203509386Y-205595351D01*
X203583804Y-205448623D01*
X203669040Y-205306361D01*
X203763891Y-205170562D01*
X203867152Y-205043227D01*
X203977617Y-204926353D01*
X203985804Y-204918408D01*
X204119990Y-204798760D01*
X204261440Y-204691653D01*
X204409935Y-204597194D01*
X204565255Y-204515486D01*
X204727178Y-204446637D01*
X204895486Y-204390751D01*
X205069959Y-204347934D01*
X205231596Y-204320724D01*
X205289475Y-204314779D01*
X205357944Y-204310640D01*
X205433190Y-204308309D01*
X205511401Y-204307789D01*
X205588764Y-204309083D01*
X205661467Y-204312194D01*
X205725697Y-204317123D01*
X205754110Y-204320358D01*
X205933729Y-204350714D01*
X206106934Y-204394049D01*
X206273609Y-204450307D01*
X206433639Y-204519432D01*
X206586908Y-204601369D01*
X206733301Y-204696063D01*
X206872702Y-204803457D01*
X207000141Y-204918745D01*
X207114942Y-205037968D01*
X207217004Y-205159625D01*
X207308103Y-205286188D01*
X207390016Y-205420130D01*
X207464517Y-205563924D01*
X207466560Y-205568214D01*
X207513653Y-205667323D01*
X207617225Y-205630911D01*
X207780557Y-205570237D01*
X207944414Y-205503112D01*
X208105590Y-205431011D01*
X208260879Y-205355410D01*
X208407078Y-205277786D01*
X208500939Y-205223842D01*
X208591653Y-205169853D01*
X208595995Y-204625837D01*
X208596689Y-204534578D01*
X208597418Y-204431026D01*
X208598168Y-204317400D01*
X208598926Y-204195922D01*
X208599680Y-204068813D01*
X208600417Y-203938293D01*
X208601125Y-203806582D01*
X208601791Y-203675901D01*
X208602114Y-203608418D01*
X210061225Y-203608418D01*
X210061225Y-204050667D01*
X210086380Y-204028581D01*
X210142836Y-203985233D01*
X210209558Y-203944287D01*
X210282300Y-203907933D01*
X210356815Y-203878363D01*
X210407555Y-203862925D01*
X210444130Y-203854203D01*
X210477597Y-203848528D01*
X210513245Y-203845286D01*
X210556365Y-203843860D01*
X210572853Y-203843685D01*
X210673963Y-203848914D01*
X210768245Y-203866432D01*
X210857438Y-203896812D01*
X210943282Y-203940626D01*
X211015740Y-203989477D01*
X211064314Y-204027506D01*
X211101209Y-204060950D01*
X211127548Y-204092066D01*
X211144455Y-204123109D01*
X211153052Y-204156334D01*
X211154463Y-204193997D01*
X211149809Y-204238353D01*
X211147323Y-204253746D01*
X211139617Y-204292139D01*
X211129592Y-204333128D01*
X211119148Y-204369084D01*
X211116922Y-204375735D01*
X211098250Y-204449586D01*
X211090053Y-204530603D01*
X211091942Y-204616327D01*
X211103528Y-204704301D01*
X211124423Y-204792065D01*
X211154237Y-204877160D01*
X211192581Y-204957130D01*
X211214820Y-204994407D01*
X211234805Y-205023902D01*
X211250689Y-205041915D01*
X211265072Y-205049837D01*
X211280551Y-205049061D01*
X211299725Y-205040980D01*
X211300742Y-205040453D01*
X211331549Y-205017161D01*
X211357641Y-204981730D01*
X211379011Y-204934067D01*
X211395653Y-204874076D01*
X211407561Y-204801663D01*
X211414730Y-204716734D01*
X211417152Y-204619195D01*
X211414822Y-204508951D01*
X211407733Y-204385907D01*
X211395880Y-204249970D01*
X211379257Y-204101044D01*
X211357857Y-203939036D01*
X211331673Y-203763851D01*
X211300701Y-203575394D01*
X211264934Y-203373572D01*
X211224366Y-203158289D01*
X211178990Y-202929452D01*
X211156812Y-202821115D01*
X211146588Y-202771880D01*
X211137154Y-202726914D01*
X211128957Y-202688317D01*
X211122446Y-202658190D01*
X211118069Y-202638633D01*
X211116470Y-202632207D01*
X211115060Y-202629777D01*
X211111782Y-202627678D01*
X211105647Y-202625885D01*
X211095663Y-202624374D01*
X211080840Y-202623121D01*
X211060186Y-202622102D01*
X211032711Y-202621294D01*
X210997424Y-202620672D01*
X210953335Y-202620212D01*
X210899452Y-202619890D01*
X210834785Y-202619683D01*
X210758343Y-202619566D01*
X210669135Y-202619516D01*
X210591685Y-202619507D01*
X210070838Y-202619507D01*
X210066031Y-202892837D01*
X210065113Y-202953210D01*
X210064252Y-203025584D01*
X210063466Y-203107445D01*
X210062771Y-203196280D01*
X210062184Y-203289575D01*
X210061722Y-203384818D01*
X210061402Y-203479494D01*
X210061241Y-203571091D01*
X210061225Y-203608418D01*
X208602114Y-203608418D01*
X208602402Y-203548471D01*
X208602946Y-203426513D01*
X208603252Y-203352478D01*
X208606168Y-202623135D01*
X207296253Y-202619507D01*
X205986339Y-202615878D01*
X205953682Y-202596630D01*
X205914494Y-202565233D01*
X205883513Y-202522567D01*
X205861444Y-202469788D01*
X205852121Y-202430078D01*
X205850287Y-202412326D01*
X205848770Y-202381994D01*
X205847567Y-202338813D01*
X205846675Y-202282517D01*
X205846092Y-202212839D01*
X205845815Y-202129511D01*
X205845840Y-202032267D01*
X205846165Y-201920838D01*
X205846280Y-201893793D01*
X205848453Y-201403935D01*
X205865024Y-201362954D01*
X205885605Y-201323492D01*
X205912994Y-201287079D01*
X205943713Y-201257827D01*
X205966191Y-201243381D01*
X205970795Y-201241327D01*
X205976421Y-201239484D01*
X205983861Y-201237836D01*
X205993906Y-201236368D01*
X206007348Y-201235065D01*
X206024976Y-201233912D01*
X206047583Y-201232892D01*
X206075959Y-201231992D01*
X206110896Y-201231195D01*
X206153185Y-201230487D01*
X206203616Y-201229852D01*
X206262982Y-201229274D01*
X206332072Y-201228739D01*
X206411679Y-201228231D01*
X206502594Y-201227736D01*
X206605606Y-201227236D01*
X206721509Y-201226718D01*
X206851092Y-201226166D01*
X206858421Y-201226135D01*
X207723246Y-201222507D01*
X207295084Y-200035964D01*
X207241179Y-199886565D01*
X207191990Y-199750186D01*
X207147299Y-199626198D01*
X207106887Y-199513971D01*
X207070539Y-199412875D01*
X207038034Y-199322280D01*
X207009156Y-199241558D01*
X206983687Y-199170077D01*
X206961408Y-199107209D01*
X206942103Y-199052324D01*
X206925553Y-199004791D01*
X206911540Y-198963982D01*
X206899847Y-198929267D01*
X206890255Y-198900015D01*
X206882548Y-198875597D01*
X206876506Y-198855384D01*
X206871913Y-198838746D01*
X206868550Y-198825052D01*
X206866199Y-198813674D01*
X206864644Y-198803981D01*
X206863665Y-198795345D01*
X206863045Y-198787134D01*
X206863038Y-198787022D01*
X206863789Y-198727012D01*
X206874409Y-198670997D01*
X206895755Y-198617104D01*
X206928685Y-198563457D01*
X206974055Y-198508181D01*
X207005364Y-198475669D01*
X207071780Y-198416161D01*
X207149214Y-198358579D01*
X207238218Y-198302632D01*
X207339344Y-198248030D01*
X207453144Y-198194481D01*
X207580169Y-198141696D01*
X207720970Y-198089383D01*
X207771596Y-198071817D01*
X207924639Y-198022739D01*
X208089667Y-197975671D01*
X208264225Y-197931126D01*
X208445863Y-197889617D01*
X208632127Y-197851657D01*
X208820565Y-197817759D01*
X209008723Y-197788436D01*
X209194149Y-197764203D01*
X209294427Y-197753194D01*
X209344057Y-197748135D01*
X209318838Y-197783521D01*
X209287831Y-197832653D01*
X209255949Y-197893603D01*
X209224307Y-197963810D01*
X209194018Y-198040714D01*
X209166199Y-198121755D01*
X209153575Y-198162989D01*
X209115315Y-198311649D01*
X209084222Y-198471971D01*
X209060338Y-198642970D01*
X209043705Y-198823665D01*
X209034367Y-199013071D01*
X209032366Y-199210205D01*
X209037742Y-199414083D01*
X209050540Y-199623722D01*
X209070802Y-199838139D01*
X209078594Y-199905335D01*
X209103487Y-200091454D01*
X209134116Y-200287124D01*
X209169818Y-200488867D01*
X209209932Y-200693207D01*
X209253795Y-200896667D01*
X209300744Y-201095768D01*
X209319804Y-201171707D01*
X209332784Y-201222507D01*
X209422054Y-201224551D01*
X209511323Y-201226595D01*
X209507896Y-201202780D01*
X209505311Y-201189388D01*
X209499812Y-201164062D01*
X209491897Y-201128975D01*
X209482060Y-201086300D01*
X209470797Y-201038213D01*
X209460281Y-200993907D01*
X209389814Y-200677305D01*
X209330661Y-200364195D01*
X209282100Y-200050194D01*
X209243411Y-199730920D01*
X209229847Y-199593278D01*
X209225962Y-199542426D01*
X209222524Y-199480496D01*
X209219568Y-199409936D01*
X209217130Y-199333193D01*
X209215243Y-199252714D01*
X209213943Y-199170945D01*
X209213265Y-199090334D01*
X209213250Y-199035613D01*
X210295980Y-199035613D01*
X210304849Y-199107250D01*
X210325596Y-199176817D01*
X210358256Y-199242533D01*
X210402861Y-199302616D01*
X210417028Y-199317713D01*
X210474430Y-199366083D01*
X210538033Y-199401572D01*
X210606803Y-199423877D01*
X210679705Y-199432700D01*
X210755706Y-199427741D01*
X210780633Y-199423169D01*
X210847346Y-199401924D01*
X210907924Y-199368665D01*
X210961412Y-199324937D01*
X211006857Y-199272284D01*
X211043302Y-199212251D01*
X211069793Y-199146382D01*
X211085376Y-199076223D01*
X211089094Y-199003317D01*
X211081484Y-198936507D01*
X211060367Y-198862064D01*
X211027324Y-198795536D01*
X210981698Y-198735687D01*
X210965399Y-198718793D01*
X210907777Y-198670499D01*
X210846477Y-198636011D01*
X210780317Y-198614838D01*
X210708114Y-198606487D01*
X210695057Y-198606307D01*
X210619732Y-198612428D01*
X210551178Y-198631118D01*
X210488118Y-198662869D01*
X210429273Y-198708172D01*
X210428621Y-198708769D01*
X210378608Y-198764019D01*
X210340303Y-198826111D01*
X210313741Y-198893262D01*
X210298955Y-198963690D01*
X210295980Y-199035613D01*
X209213250Y-199035613D01*
X209213243Y-199013329D01*
X209213913Y-198942376D01*
X209215309Y-198879921D01*
X209217465Y-198828414D01*
X209218690Y-198809507D01*
X209235255Y-198638236D01*
X209258488Y-198479605D01*
X209288500Y-198333305D01*
X209325401Y-198199026D01*
X209369303Y-198076459D01*
X209420317Y-197965295D01*
X209478554Y-197865225D01*
X209544126Y-197775938D01*
X209617143Y-197697127D01*
X209619411Y-197694958D01*
X209701114Y-197624991D01*
X209795971Y-197557839D01*
X209902815Y-197493965D01*
X210020477Y-197433832D01*
X210147790Y-197377902D01*
X210283585Y-197326639D01*
X210426695Y-197280505D01*
X210575952Y-197239962D01*
X210730187Y-197205475D01*
X210888233Y-197177506D01*
X210946596Y-197169017D01*
X211005733Y-197162282D01*
X211074158Y-197156758D01*
X211148519Y-197152536D01*
X211225459Y-197149706D01*
X211301627Y-197148356D01*
X211373668Y-197148576D01*
X211438229Y-197150457D01*
X211491954Y-197154087D01*
X211494856Y-197154372D01*
X211601620Y-197168463D01*
X211701027Y-197188359D01*
X211791147Y-197213569D01*
X211870050Y-197243605D01*
X211897817Y-197256748D01*
X211920386Y-197267541D01*
X211937369Y-197274538D01*
X211945204Y-197276277D01*
X211945270Y-197276224D01*
X211945847Y-197268313D01*
X211945419Y-197248578D01*
X211944092Y-197219663D01*
X211941974Y-197184215D01*
X211940922Y-197168706D01*
X211923843Y-197001642D01*
X211896621Y-196844364D01*
X211859134Y-196696759D01*
X211811257Y-196558714D01*
X211752867Y-196430119D01*
X211683841Y-196310860D01*
X211604055Y-196200826D01*
X211513385Y-196099904D01*
X211411709Y-196007982D01*
X211298902Y-195924949D01*
X211174841Y-195850691D01*
X211039403Y-195785098D01*
X210892464Y-195728056D01*
X210733901Y-195679454D01*
X210563590Y-195639179D01*
X210381407Y-195607119D01*
X210195482Y-195583993D01*
X210119290Y-195577191D01*
X210032545Y-195571060D01*
X209937641Y-195565660D01*
X209836972Y-195561051D01*
X209732933Y-195557293D01*
X209627917Y-195554446D01*
X209524319Y-195552571D01*
X209424533Y-195551727D01*
X209330953Y-195551975D01*
X209245975Y-195553375D01*
X209171991Y-195555987D01*
X209143196Y-195557557D01*
X208901894Y-195578359D01*
X208653501Y-195611119D01*
X208398695Y-195655533D01*
X208138155Y-195711298D01*
X207872558Y-195778114D01*
X207602584Y-195855675D01*
X207328911Y-195943681D01*
X207052216Y-196041828D01*
X206773179Y-196149815D01*
X206492477Y-196267337D01*
X206210789Y-196394093D01*
X205928793Y-196529780D01*
X205647168Y-196674096D01*
X205366592Y-196826737D01*
X205087743Y-196987402D01*
X204811300Y-197155787D01*
X204537941Y-197331590D01*
X204268344Y-197514509D01*
X204003187Y-197704240D01*
X203743149Y-197900482D01*
X203551547Y-198052029D01*
X203346345Y-198222247D01*
X203144072Y-198399073D01*
X202946699Y-198580622D01*
X202756192Y-198765007D01*
X202574522Y-198950342D01*
X202403656Y-199134742D01*
X202306461Y-199244935D01*
X202140872Y-199443628D01*
X201987203Y-199642818D01*
X201845671Y-199842094D01*
X201716498Y-200041043D01*
X201599902Y-200239252D01*
X201496104Y-200436309D01*
X201405323Y-200631801D01*
X201327778Y-200825316D01*
X201263691Y-201016441D01*
X201213279Y-201204764D01*
X201182660Y-201354754D01*
X201175513Y-201397585D01*
X201168887Y-201440839D01*
X201163460Y-201479850D01*
X201159913Y-201509948D01*
X201159590Y-201513354D01*
X201154571Y-201568734D01*
X201190975Y-201542580D01*
X201245634Y-201507910D01*
X201312832Y-201472992D01*
X201390628Y-201438566D01*
X201477081Y-201405370D01*
X201570249Y-201374144D01*
X201668192Y-201345628D01*
X201768968Y-201320562D01*
X201780825Y-201317895D01*
X201860882Y-201301698D01*
X201941509Y-201288384D01*
X202020769Y-201278079D01*
X202096730Y-201270908D01*
X202167457Y-201266998D01*
X202231016Y-201266473D01*
X202285475Y-201269459D01*
X202328897Y-201276081D01*
X202346866Y-201281140D01*
X202374856Y-201293346D01*
X202390767Y-201306711D01*
X202394500Y-201313221D01*
X202395911Y-201321864D01*
X202396978Y-201340676D01*
X202397699Y-201370117D01*
X202398072Y-201410648D01*
X202398095Y-201462729D01*
X202397767Y-201526821D01*
X202397086Y-201603385D01*
X202396051Y-201692881D01*
X202394659Y-201795771D01*
X202392908Y-201912513D01*
X202392057Y-201966364D01*
X202390499Y-202061075D01*
X202388934Y-202151593D01*
X202387383Y-202236872D01*
X202385870Y-202315866D01*
X202384417Y-202387528D01*
X202383046Y-202450811D01*
X202381781Y-202504670D01*
X202380643Y-202548058D01*
X202379655Y-202579928D01*
X202378840Y-202599234D01*
X202378293Y-202604993D01*
X202370667Y-202605557D01*
X202349569Y-202606146D01*
X202316040Y-202606751D01*
X202271122Y-202607362D01*
X202215857Y-202607968D01*
X202151287Y-202608561D01*
X202078453Y-202609131D01*
X201998397Y-202609668D01*
X201912161Y-202610163D01*
X201820787Y-202610605D01*
X201734001Y-202610954D01*
X201093295Y-202613287D01*
X201088780Y-202650868D01*
X201086626Y-202676413D01*
X201085013Y-202710006D01*
X201084232Y-202745186D01*
X201084202Y-202751910D01*
X201084139Y-202815370D01*
X200873468Y-202815370D01*
X200876475Y-202698871D01*
X200893936Y-202289020D01*
X200917985Y-201890916D01*
X200935579Y-201657935D01*
X200949953Y-201508455D01*
X200968116Y-201369858D01*
X200990730Y-201238855D01*
X201018455Y-201112154D01*
X201051952Y-200986467D01*
X201091883Y-200858503D01*
X201102529Y-200826993D01*
X201178700Y-200624463D01*
X201268970Y-200420119D01*
X201373079Y-200214273D01*
X201490769Y-200007236D01*
X201621780Y-199799319D01*
X201765853Y-199590831D01*
X201922728Y-199382086D01*
X202092147Y-199173392D01*
X202273851Y-198965062D01*
X202467579Y-198757406D01*
X202673074Y-198550736D01*
X202890075Y-198345361D01*
X203118323Y-198141594D01*
X203357560Y-197939745D01*
X203607526Y-197740124D01*
X203794682Y-197597442D01*
X204059224Y-197404857D01*
X204328916Y-197218760D01*
X204603021Y-197039474D01*
X204880801Y-196867319D01*
X205161519Y-196702617D01*
X205444436Y-196545691D01*
X205728814Y-196396861D01*
X206013917Y-196256450D01*
X206299006Y-196124779D01*
X206583343Y-196002169D01*
X206866191Y-195888943D01*
X207146813Y-195785422D01*
X207424470Y-195691928D01*
X207698424Y-195608782D01*
X207967938Y-195536306D01*
X208232275Y-195474822D01*
X208490696Y-195424652D01*
X208742464Y-195386116D01*
X208911083Y-195366563D01*
X209036796Y-195356177D01*
X209173957Y-195348827D01*
X209319833Y-195344452D01*
X209471691Y-195342994D01*
X209626800Y-195344393D01*
X209626800Y-195344393D01*
G37*
X209626800Y-195344393D02*
X209782425Y-195348590D01*
X209935834Y-195355525D01*
X210084294Y-195365139D01*
X210225073Y-195377373D01*
X210355439Y-195392167D01*
X210405939Y-195399058D01*
X210597458Y-195431937D01*
X210777567Y-195473742D01*
X210946346Y-195524531D01*
X211103876Y-195584360D01*
X211250235Y-195653286D01*
X211385503Y-195731367D01*
X211509759Y-195818659D01*
X211623085Y-195915220D01*
X211725558Y-196021106D01*
X211817258Y-196136375D01*
X211898266Y-196261083D01*
X211968661Y-196395287D01*
X212028522Y-196539045D01*
X212038851Y-196567842D01*
X212075753Y-196688433D01*
X212106236Y-196819967D01*
X212129984Y-196960218D01*
X212146682Y-197106960D01*
X212156012Y-197257967D01*
X212157739Y-197405250D01*
X212157688Y-197467348D01*
X212159339Y-197515155D01*
X212162690Y-197548623D01*
X212165308Y-197561084D01*
X212168987Y-197576841D01*
X212171798Y-197595892D01*
X212173740Y-197619572D01*
X212174816Y-197649216D01*
X212175028Y-197686161D01*
X212174376Y-197731741D01*
X212172863Y-197787293D01*
X212170490Y-197854151D01*
X212167258Y-197933653D01*
X212165796Y-197967678D01*
X212164120Y-198009589D01*
X212162614Y-198054796D01*
X212161271Y-198104136D01*
X212160083Y-198158447D01*
X212159043Y-198218565D01*
X212158144Y-198285327D01*
X212157380Y-198359571D01*
X212156743Y-198442134D01*
X212156226Y-198533853D01*
X212155822Y-198635564D01*
X212155524Y-198748106D01*
X212155325Y-198872315D01*
X212155218Y-199009029D01*
X212155195Y-199159083D01*
X212155209Y-199223164D01*
X212155328Y-199352353D01*
X212155605Y-199482885D01*
X212156030Y-199613948D01*
X212156592Y-199744730D01*
X212157283Y-199874417D01*
X212158094Y-200002197D01*
X212159014Y-200127259D01*
X212160035Y-200248789D01*
X212161147Y-200365974D01*
X212162340Y-200478003D01*
X212163606Y-200584063D01*
X212164934Y-200683341D01*
X212166315Y-200775025D01*
X212167740Y-200858302D01*
X212169200Y-200932360D01*
X212170685Y-200996387D01*
X212172185Y-201049569D01*
X212173691Y-201091094D01*
X212175194Y-201120151D01*
X212176684Y-201135925D01*
X212177446Y-201138605D01*
X212187133Y-201139757D01*
X212208611Y-201137412D01*
X212239723Y-201132080D01*
X212278309Y-201124273D01*
X212322212Y-201114500D01*
X212369273Y-201103273D01*
X212417334Y-201091103D01*
X212464237Y-201078501D01*
X212507823Y-201065977D01*
X212545935Y-201054043D01*
X212569705Y-201045757D01*
X212665866Y-201005098D01*
X212750674Y-200958827D01*
X212823539Y-200907396D01*
X212883871Y-200851259D01*
X212931078Y-200790868D01*
X212953425Y-200751630D01*
X212978882Y-200699993D01*
X213069387Y-199763821D01*
X213080525Y-199648522D01*
X213091270Y-199537112D01*
X213101539Y-199430455D01*
X213111251Y-199329416D01*
X213120322Y-199234860D01*
X213128670Y-199147652D01*
X213136213Y-199068657D01*
X213142867Y-198998739D01*
X213148550Y-198938764D01*
X213153181Y-198889597D01*
X213156675Y-198852102D01*
X213158951Y-198827144D01*
X213159927Y-198815589D01*
X213159958Y-198814950D01*
X213161300Y-198809630D01*
X213166813Y-198806032D01*
X213178825Y-198803827D01*
X213199664Y-198802686D01*
X213231659Y-198802280D01*
X213249937Y-198802250D01*
X213334650Y-198798657D01*
X213415623Y-198787436D01*
X213494314Y-198767923D01*
X213572177Y-198739454D01*
X213650667Y-198701367D01*
X213731240Y-198652997D01*
X213815352Y-198593681D01*
X213904458Y-198522756D01*
X213952020Y-198482137D01*
X214002167Y-198439008D01*
X214042776Y-198405942D01*
X214074827Y-198382997D01*
X214099303Y-198370235D01*
X214117182Y-198367715D01*
X214129445Y-198375498D01*
X214137074Y-198393645D01*
X214141047Y-198422215D01*
X214142347Y-198461268D01*
X214142204Y-198493821D01*
X214141561Y-198509169D01*
X214139876Y-198538123D01*
X214137214Y-198579817D01*
X214133640Y-198633386D01*
X214129217Y-198697963D01*
X214124011Y-198772682D01*
X214118085Y-198856678D01*
X214111504Y-198949084D01*
X214104331Y-199049035D01*
X214096632Y-199155664D01*
X214088471Y-199268106D01*
X214079911Y-199385495D01*
X214071018Y-199506965D01*
X214061855Y-199631650D01*
X214052487Y-199758683D01*
X214042977Y-199887200D01*
X214033392Y-200016333D01*
X214023794Y-200145218D01*
X214014247Y-200272987D01*
X214004817Y-200398776D01*
X213995568Y-200521718D01*
X213986564Y-200640948D01*
X213977868Y-200755598D01*
X213969546Y-200864805D01*
X213961662Y-200967700D01*
X213954280Y-201063419D01*
X213947464Y-201151096D01*
X213941279Y-201229865D01*
X213935789Y-201298859D01*
X213931058Y-201357212D01*
X213927150Y-201404060D01*
X213924131Y-201438535D01*
X213922063Y-201459773D01*
X213921812Y-201461993D01*
X213903748Y-201580186D01*
X213878101Y-201688410D01*
X213844082Y-201789517D01*
X213809688Y-201868495D01*
X213758667Y-201960855D01*
X213697820Y-202045848D01*
X213626707Y-202123756D01*
X213544887Y-202194863D01*
X213451919Y-202259451D01*
X213347363Y-202317805D01*
X213230778Y-202370207D01*
X213101724Y-202416940D01*
X212959760Y-202458287D01*
X212851511Y-202484391D01*
X212783335Y-202498704D01*
X212705378Y-202513609D01*
X212622305Y-202528307D01*
X212538783Y-202541996D01*
X212459477Y-202553877D01*
X212399839Y-202561836D01*
X212360927Y-202567531D01*
X212336198Y-202573204D01*
X212325802Y-202578817D01*
X212325453Y-202580037D01*
X212326251Y-202588244D01*
X212328581Y-202609999D01*
X212332345Y-202644428D01*
X212337444Y-202690655D01*
X212343783Y-202747807D01*
X212351262Y-202815009D01*
X212359785Y-202891387D01*
X212369254Y-202976065D01*
X212379572Y-203068170D01*
X212390640Y-203166826D01*
X212402361Y-203271160D01*
X212414637Y-203380296D01*
X212427157Y-203491449D01*
X212443678Y-203638053D01*
X212458654Y-203771022D01*
X212472159Y-203891144D01*
X212484270Y-203999207D01*
X212495063Y-204095999D01*
X212504613Y-204182310D01*
X212512997Y-204258926D01*
X212520290Y-204326636D01*
X212526568Y-204386228D01*
X212531909Y-204438491D01*
X212536386Y-204484212D01*
X212540077Y-204524180D01*
X212543057Y-204559184D01*
X212545402Y-204590010D01*
X212547189Y-204617448D01*
X212548492Y-204642285D01*
X212549389Y-204665310D01*
X212549955Y-204687312D01*
X212550265Y-204709077D01*
X212550397Y-204731395D01*
X212550425Y-204755053D01*
X212550425Y-204770645D01*
X212545952Y-204922864D01*
X212532440Y-205064047D01*
X212509744Y-205194624D01*
X212477723Y-205315029D01*
X212436234Y-205425690D01*
X212385132Y-205527042D01*
X212324277Y-205619513D01*
X212253524Y-205703537D01*
X212235215Y-205722332D01*
X212154728Y-205794107D01*
X212066113Y-205856518D01*
X211968761Y-205909791D01*
X211862067Y-205954154D01*
X211745423Y-205989832D01*
X211618221Y-206017052D01*
X211479856Y-206036041D01*
X211371139Y-206044855D01*
X211224110Y-206048310D01*
X211086209Y-206040511D01*
X210957360Y-206021426D01*
X210837485Y-205991023D01*
X210726509Y-205949269D01*
X210624354Y-205896133D01*
X210530945Y-205831583D01*
X210446204Y-205755587D01*
X210370056Y-205668113D01*
X210327860Y-205609207D01*
X210278419Y-205529014D01*
X210234782Y-205445228D01*
X210196556Y-205356473D01*
X210163348Y-205261374D01*
X210134764Y-205158557D01*
X210110411Y-205046647D01*
X210089894Y-204924269D01*
X210072821Y-204790049D01*
X210062017Y-204680535D01*
X210060199Y-204662017D01*
X210058744Y-204652735D01*
X210057604Y-204653508D01*
X210056733Y-204665153D01*
X210056084Y-204688488D01*
X210055609Y-204724333D01*
X210055262Y-204773504D01*
X210055134Y-204800278D01*
X210053900Y-205088659D01*
X210052722Y-205362864D01*
X210051598Y-205623233D01*
X210050527Y-205870105D01*
X210049507Y-206103818D01*
X210048536Y-206324713D01*
X210047612Y-206533128D01*
X210046734Y-206729401D01*
X210045900Y-206913873D01*
X210045107Y-207086881D01*
X210044355Y-207248765D01*
X210043642Y-207399865D01*
X210042965Y-207540518D01*
X210042323Y-207671064D01*
X210041714Y-207791843D01*
X210041137Y-207903192D01*
X210040589Y-208005452D01*
X210040069Y-208098960D01*
X210039574Y-208184057D01*
X210039105Y-208261080D01*
X210038657Y-208330370D01*
X210038231Y-208392265D01*
X210037823Y-208447104D01*
X210037432Y-208495226D01*
X210037057Y-208536971D01*
X210036695Y-208572676D01*
X210036345Y-208602682D01*
X210036006Y-208627327D01*
X210035674Y-208646950D01*
X210035349Y-208661890D01*
X210035029Y-208672487D01*
X210034811Y-208677407D01*
X210030799Y-208751793D01*
X209517421Y-208751793D01*
X209425474Y-208751721D01*
X209332531Y-208751514D01*
X209240453Y-208751184D01*
X209151105Y-208750743D01*
X209066350Y-208750204D01*
X208988049Y-208749579D01*
X208918067Y-208748880D01*
X208858265Y-208748120D01*
X208810507Y-208747311D01*
X208797848Y-208747038D01*
X208591653Y-208742284D01*
X208593953Y-208084824D01*
X208594202Y-207994027D01*
X208594365Y-207890367D01*
X208594445Y-207775493D01*
X208594443Y-207651057D01*
X208594363Y-207518709D01*
X208594207Y-207380099D01*
X208593977Y-207236878D01*
X208593678Y-207090697D01*
X208593310Y-206943206D01*
X208592877Y-206796054D01*
X208592381Y-206650894D01*
X208591825Y-206509375D01*
X208591249Y-206380755D01*
X208586244Y-205334146D01*
X208534520Y-205377215D01*
X208506936Y-205400369D01*
X208479363Y-205423822D01*
X208456690Y-205443408D01*
X208451766Y-205447738D01*
X208420735Y-205475193D01*
X208413784Y-206872193D01*
X208413067Y-207017424D01*
X208412369Y-207161001D01*
X208411694Y-207302056D01*
X208411046Y-207439720D01*
X208410428Y-207573127D01*
X208409844Y-207701406D01*
X208409298Y-207823691D01*
X208408794Y-207939113D01*
X208408336Y-208046804D01*
X208407926Y-208145896D01*
X208407570Y-208235520D01*
X208407270Y-208314809D01*
X208407031Y-208382894D01*
X208406856Y-208438907D01*
X208406749Y-208481980D01*
X208406714Y-208506864D01*
X208406596Y-208744535D01*
X207927625Y-208744535D01*
X207927625Y-207242307D01*
X207927612Y-207095757D01*
X207927577Y-206953108D01*
X207927518Y-206815035D01*
X207927439Y-206682213D01*
X207927339Y-206555318D01*
X207927220Y-206435025D01*
X207927083Y-206322009D01*
X207926929Y-206216946D01*
X207926760Y-206120510D01*
X207926577Y-206033377D01*
X207926380Y-205956223D01*
X207926171Y-205889723D01*
X207925951Y-205834552D01*
X207925722Y-205791385D01*
X207925483Y-205760897D01*
X207925238Y-205743765D01*
X207925057Y-205740078D01*
X207917763Y-205742527D01*
X207899215Y-205749304D01*
X207871720Y-205759550D01*
X207837579Y-205772410D01*
X207810757Y-205782586D01*
X207768453Y-205798497D01*
X207726455Y-205813972D01*
X207688569Y-205827629D01*
X207658602Y-205838087D01*
X207648225Y-205841541D01*
X207622645Y-205850264D01*
X207602563Y-205857927D01*
X207591959Y-205863001D01*
X207591560Y-205863318D01*
X207591269Y-205871788D01*
X207594163Y-205891884D01*
X207599785Y-205921183D01*
X207607681Y-205957259D01*
X207614895Y-205987606D01*
X207631856Y-206058969D01*
X207645497Y-206122429D01*
X207656161Y-206181038D01*
X207664192Y-206237844D01*
X207669933Y-206295899D01*
X207673728Y-206358253D01*
X207675920Y-206427956D01*
X207676854Y-206508059D01*
X207676946Y-206538364D01*
X207676930Y-206604112D01*
X207676596Y-206657835D01*
X207675820Y-206702020D01*
X207674476Y-206739154D01*
X207672438Y-206771726D01*
X207669580Y-206802223D01*
X207665778Y-206833133D01*
X207660906Y-206866943D01*
X207660110Y-206872193D01*
X207625242Y-207054671D01*
X207577205Y-207231151D01*
X207516065Y-207401479D01*
X207441891Y-207565502D01*
X207354751Y-207723067D01*
X207254711Y-207874023D01*
X207163909Y-207991785D01*
X207129217Y-208031789D01*
X207086356Y-208077840D01*
X207038078Y-208127253D01*
X206987133Y-208177343D01*
X206936272Y-208225423D01*
X206888247Y-208268810D01*
X206845809Y-208304818D01*
X206831796Y-208315948D01*
X206684346Y-208421494D01*
X206531822Y-208513443D01*
X206374199Y-208591802D01*
X206211455Y-208656581D01*
X206043566Y-208707790D01*
X205870508Y-208745437D01*
X205692259Y-208769532D01*
X205649245Y-208773257D01*
X205570118Y-208777752D01*
X205489191Y-208779393D01*
X205412677Y-208778117D01*
X205373110Y-208776039D01*
X205198477Y-208758056D01*
X205031436Y-208728437D01*
X204870337Y-208686731D01*
X204713526Y-208632490D01*
X204559351Y-208565264D01*
X204513139Y-208542383D01*
X204445391Y-208505816D01*
X204372370Y-208462743D01*
X204298206Y-208415820D01*
X204227024Y-208367706D01*
X204162955Y-208321057D01*
X204133375Y-208297902D01*
X204009484Y-208189133D01*
X203892206Y-208068626D01*
X203783003Y-207938210D01*
X203683340Y-207799720D01*
X203594683Y-207654986D01*
X203546031Y-207563213D01*
X203485842Y-207434199D01*
X203435500Y-207307167D01*
X203393948Y-207178653D01*
X203360127Y-207045194D01*
X203332980Y-206903326D01*
X203321647Y-206828650D01*
X203317204Y-206786935D01*
X203313725Y-206734040D01*
X203311217Y-206672866D01*
X203309685Y-206606310D01*
X203309134Y-206537270D01*
X203309220Y-206523734D01*
X204823536Y-206523734D01*
X204824378Y-206567393D01*
X204832715Y-206714203D01*
X204848079Y-206855192D01*
X204870158Y-206989670D01*
X204898637Y-207116950D01*
X204933203Y-207236343D01*
X204973541Y-207347160D01*
X205019339Y-207448714D01*
X205070283Y-207540316D01*
X205126060Y-207621277D01*
X205186354Y-207690910D01*
X205250854Y-207748527D01*
X205319244Y-207793438D01*
X205391213Y-207824956D01*
X205398510Y-207827319D01*
X205429014Y-207833375D01*
X205468414Y-207836332D01*
X205511435Y-207836230D01*
X205552804Y-207833107D01*
X205587246Y-207827003D01*
X205591322Y-207825882D01*
X205654471Y-207800429D01*
X205717254Y-207761574D01*
X205778577Y-207710414D01*
X205837344Y-207648043D01*
X205892459Y-207575555D01*
X205942827Y-207494045D01*
X205964623Y-207452782D01*
X206013793Y-207344568D01*
X206055913Y-207229673D01*
X206091461Y-207106420D01*
X206120912Y-206973131D01*
X206144743Y-206828130D01*
X206147277Y-206809647D01*
X206151422Y-206770869D01*
X206154747Y-206723668D01*
X206157274Y-206669865D01*
X206159020Y-206611280D01*
X206160008Y-206549732D01*
X206160257Y-206487041D01*
X206159787Y-206425027D01*
X206158618Y-206365510D01*
X206156771Y-206310311D01*
X206154265Y-206261249D01*
X206151121Y-206220144D01*
X206147360Y-206188815D01*
X206143000Y-206169084D01*
X206140121Y-206163584D01*
X206132091Y-206163062D01*
X206112058Y-206163825D01*
X206082463Y-206165722D01*
X206045744Y-206168601D01*
X206014304Y-206171379D01*
X205899667Y-206181464D01*
X205788956Y-206190093D01*
X205679356Y-206197411D01*
X205568053Y-206203566D01*
X205452231Y-206208705D01*
X205329076Y-206212975D01*
X205195772Y-206216523D01*
X205117389Y-206218214D01*
X205055750Y-206219555D01*
X204998735Y-206221001D01*
X204947959Y-206222494D01*
X204905035Y-206223979D01*
X204871579Y-206225398D01*
X204849204Y-206226696D01*
X204839524Y-206227815D01*
X204839286Y-206227941D01*
X204836058Y-206238092D01*
X204832989Y-206260474D01*
X204830179Y-206292803D01*
X204827730Y-206332796D01*
X204825740Y-206378169D01*
X204824311Y-206426638D01*
X204823543Y-206475921D01*
X204823536Y-206523734D01*
X203309220Y-206523734D01*
X203309570Y-206468646D01*
X203310998Y-206403334D01*
X203313424Y-206344236D01*
X203316853Y-206294247D01*
X203320571Y-206261015D01*
X203330761Y-206190495D01*
X203312350Y-206186940D01*
X203299937Y-206185701D01*
X203275364Y-206184201D01*
X203240982Y-206182547D01*
X203199139Y-206180847D01*
X203152187Y-206179211D01*
X203128839Y-206178489D01*
X202963739Y-206173593D01*
X202963739Y-208730021D01*
X202542865Y-208730021D01*
X202541030Y-207436435D01*
X202539196Y-206142850D01*
X202453786Y-206136336D01*
X202420231Y-206134024D01*
X202392374Y-206132573D01*
X202373158Y-206132102D01*
X202365548Y-206132708D01*
X202365221Y-206140150D01*
X202364847Y-206161377D01*
X202364429Y-206195661D01*
X202363972Y-206242273D01*
X202363480Y-206300483D01*
X202362959Y-206369563D01*
X202362412Y-206448784D01*
X202361844Y-206537418D01*
X202361260Y-206634734D01*
X202360665Y-206740006D01*
X202360063Y-206852502D01*
X202359458Y-206971496D01*
X202358855Y-207096257D01*
X202358259Y-207226057D01*
X202357675Y-207360168D01*
X202357371Y-207432807D01*
X202352022Y-208730021D01*
X200902710Y-208730021D01*
X200902636Y-206986493D01*
X200902621Y-206796272D01*
X200902592Y-206619908D01*
X200902543Y-206456742D01*
X200902470Y-206306119D01*
X200902368Y-206167378D01*
X200902233Y-206039864D01*
X200902173Y-205998537D01*
X204872368Y-205998537D01*
X204872368Y-206016887D01*
X205062868Y-206012458D01*
X205127118Y-206010817D01*
X205198550Y-206008745D01*
X205272150Y-206006403D01*
X205342908Y-206003954D01*
X205405812Y-206001558D01*
X205423910Y-206000811D01*
X205493580Y-205997626D01*
X205565832Y-205993893D01*
X205639150Y-205989725D01*
X205712022Y-205985233D01*
X205782932Y-205980532D01*
X205850367Y-205975734D01*
X205912812Y-205970951D01*
X205968753Y-205966297D01*
X206016677Y-205961884D01*
X206055069Y-205957826D01*
X206082414Y-205954235D01*
X206097199Y-205951224D01*
X206098875Y-205950504D01*
X206101314Y-205940863D01*
X206098850Y-205918984D01*
X206091793Y-205886174D01*
X206080456Y-205843742D01*
X206065149Y-205792994D01*
X206051027Y-205749591D01*
X206010123Y-205640112D01*
X205964189Y-205540471D01*
X205913732Y-205451167D01*
X205859260Y-205372698D01*
X205801279Y-205305560D01*
X205740297Y-205250252D01*
X205676821Y-205207271D01*
X205611359Y-205177115D01*
X205544419Y-205160281D01*
X205476506Y-205157268D01*
X205449875Y-205159945D01*
X205386821Y-205173734D01*
X205328210Y-205197230D01*
X205271873Y-205231662D01*
X205215643Y-205278258D01*
X205181522Y-205312075D01*
X205114361Y-205392136D01*
X205053425Y-205485138D01*
X204998825Y-205590858D01*
X204950672Y-205709075D01*
X204909075Y-205839566D01*
X204897209Y-205883719D01*
X204888027Y-205920680D01*
X204880378Y-205953961D01*
X204874956Y-205980351D01*
X204872456Y-205996638D01*
X204872368Y-205998537D01*
X200902173Y-205998537D01*
X200902061Y-205922918D01*
X200901847Y-205815883D01*
X200901586Y-205718101D01*
X200901275Y-205628915D01*
X200900907Y-205547666D01*
X200900480Y-205473697D01*
X200899989Y-205406350D01*
X200899429Y-205344969D01*
X200898795Y-205288894D01*
X200898083Y-205237469D01*
X200897289Y-205190036D01*
X200896408Y-205145937D01*
X200895435Y-205104515D01*
X200894367Y-205065111D01*
X200893198Y-205027069D01*
X200891925Y-204989730D01*
X200890542Y-204952437D01*
X200889045Y-204914532D01*
X200888381Y-204898250D01*
X200872735Y-204440844D01*
X200863733Y-203991457D01*
X200861363Y-203550836D01*
X200865613Y-203119725D01*
X200873468Y-202815370D01*
X201084139Y-202815370D01*
X201717325Y-202817224D01*
X202350510Y-202819078D01*
X202352341Y-204377550D01*
X202352554Y-204554866D01*
X202352761Y-204718238D01*
X202352969Y-204868234D01*
X202353183Y-205005424D01*
X202353408Y-205130376D01*
X202353648Y-205243661D01*
X202353911Y-205345847D01*
X202354200Y-205437503D01*
X202354522Y-205519200D01*
X202354881Y-205591506D01*
X202355282Y-205654991D01*
X202355732Y-205710223D01*
X202356236Y-205757773D01*
X202356797Y-205798209D01*
X202357423Y-205832100D01*
X202358119Y-205860017D01*
X202358888Y-205882528D01*
X202359738Y-205900202D01*
X202360673Y-205913610D01*
X202361698Y-205923319D01*
X202362819Y-205929900D01*
X202364041Y-205933922D01*
X202365370Y-205935953D01*
X202366810Y-205936564D01*
X202366856Y-205936567D01*
X202376186Y-205936983D01*
X202398737Y-205937996D01*
X202433229Y-205939548D01*
X202478386Y-205941582D01*
X202532926Y-205944040D01*
X202595572Y-205946864D01*
X202665045Y-205949997D01*
X202740067Y-205953381D01*
X202819357Y-205956958D01*
X202829482Y-205957415D01*
X202910443Y-205961047D01*
X202988251Y-205964498D01*
X203061497Y-205967708D01*
X203128769Y-205970616D01*
X203188658Y-205973164D01*
X203239755Y-205975290D01*
X203280647Y-205976935D01*
X203309927Y-205978039D01*
X203326182Y-205978542D01*
X203326596Y-205978549D01*
X203373768Y-205979382D01*
X203397827Y-205894201D01*
X203446993Y-205744543D01*
X203509386Y-205595351D01*
X203583804Y-205448623D01*
X203669040Y-205306361D01*
X203763891Y-205170562D01*
X203867152Y-205043227D01*
X203977617Y-204926353D01*
X203985804Y-204918408D01*
X204119990Y-204798760D01*
X204261440Y-204691653D01*
X204409935Y-204597194D01*
X204565255Y-204515486D01*
X204727178Y-204446637D01*
X204895486Y-204390751D01*
X205069959Y-204347934D01*
X205231596Y-204320724D01*
X205289475Y-204314779D01*
X205357944Y-204310640D01*
X205433190Y-204308309D01*
X205511401Y-204307789D01*
X205588764Y-204309083D01*
X205661467Y-204312194D01*
X205725697Y-204317123D01*
X205754110Y-204320358D01*
X205933729Y-204350714D01*
X206106934Y-204394049D01*
X206273609Y-204450307D01*
X206433639Y-204519432D01*
X206586908Y-204601369D01*
X206733301Y-204696063D01*
X206872702Y-204803457D01*
X207000141Y-204918745D01*
X207114942Y-205037968D01*
X207217004Y-205159625D01*
X207308103Y-205286188D01*
X207390016Y-205420130D01*
X207464517Y-205563924D01*
X207466560Y-205568214D01*
X207513653Y-205667323D01*
X207617225Y-205630911D01*
X207780557Y-205570237D01*
X207944414Y-205503112D01*
X208105590Y-205431011D01*
X208260879Y-205355410D01*
X208407078Y-205277786D01*
X208500939Y-205223842D01*
X208591653Y-205169853D01*
X208595995Y-204625837D01*
X208596689Y-204534578D01*
X208597418Y-204431026D01*
X208598168Y-204317400D01*
X208598926Y-204195922D01*
X208599680Y-204068813D01*
X208600417Y-203938293D01*
X208601125Y-203806582D01*
X208601791Y-203675901D01*
X208602114Y-203608418D01*
X210061225Y-203608418D01*
X210061225Y-204050667D01*
X210086380Y-204028581D01*
X210142836Y-203985233D01*
X210209558Y-203944287D01*
X210282300Y-203907933D01*
X210356815Y-203878363D01*
X210407555Y-203862925D01*
X210444130Y-203854203D01*
X210477597Y-203848528D01*
X210513245Y-203845286D01*
X210556365Y-203843860D01*
X210572853Y-203843685D01*
X210673963Y-203848914D01*
X210768245Y-203866432D01*
X210857438Y-203896812D01*
X210943282Y-203940626D01*
X211015740Y-203989477D01*
X211064314Y-204027506D01*
X211101209Y-204060950D01*
X211127548Y-204092066D01*
X211144455Y-204123109D01*
X211153052Y-204156334D01*
X211154463Y-204193997D01*
X211149809Y-204238353D01*
X211147323Y-204253746D01*
X211139617Y-204292139D01*
X211129592Y-204333128D01*
X211119148Y-204369084D01*
X211116922Y-204375735D01*
X211098250Y-204449586D01*
X211090053Y-204530603D01*
X211091942Y-204616327D01*
X211103528Y-204704301D01*
X211124423Y-204792065D01*
X211154237Y-204877160D01*
X211192581Y-204957130D01*
X211214820Y-204994407D01*
X211234805Y-205023902D01*
X211250689Y-205041915D01*
X211265072Y-205049837D01*
X211280551Y-205049061D01*
X211299725Y-205040980D01*
X211300742Y-205040453D01*
X211331549Y-205017161D01*
X211357641Y-204981730D01*
X211379011Y-204934067D01*
X211395653Y-204874076D01*
X211407561Y-204801663D01*
X211414730Y-204716734D01*
X211417152Y-204619195D01*
X211414822Y-204508951D01*
X211407733Y-204385907D01*
X211395880Y-204249970D01*
X211379257Y-204101044D01*
X211357857Y-203939036D01*
X211331673Y-203763851D01*
X211300701Y-203575394D01*
X211264934Y-203373572D01*
X211224366Y-203158289D01*
X211178990Y-202929452D01*
X211156812Y-202821115D01*
X211146588Y-202771880D01*
X211137154Y-202726914D01*
X211128957Y-202688317D01*
X211122446Y-202658190D01*
X211118069Y-202638633D01*
X211116470Y-202632207D01*
X211115060Y-202629777D01*
X211111782Y-202627678D01*
X211105647Y-202625885D01*
X211095663Y-202624374D01*
X211080840Y-202623121D01*
X211060186Y-202622102D01*
X211032711Y-202621294D01*
X210997424Y-202620672D01*
X210953335Y-202620212D01*
X210899452Y-202619890D01*
X210834785Y-202619683D01*
X210758343Y-202619566D01*
X210669135Y-202619516D01*
X210591685Y-202619507D01*
X210070838Y-202619507D01*
X210066031Y-202892837D01*
X210065113Y-202953210D01*
X210064252Y-203025584D01*
X210063466Y-203107445D01*
X210062771Y-203196280D01*
X210062184Y-203289575D01*
X210061722Y-203384818D01*
X210061402Y-203479494D01*
X210061241Y-203571091D01*
X210061225Y-203608418D01*
X208602114Y-203608418D01*
X208602402Y-203548471D01*
X208602946Y-203426513D01*
X208603252Y-203352478D01*
X208606168Y-202623135D01*
X207296253Y-202619507D01*
X205986339Y-202615878D01*
X205953682Y-202596630D01*
X205914494Y-202565233D01*
X205883513Y-202522567D01*
X205861444Y-202469788D01*
X205852121Y-202430078D01*
X205850287Y-202412326D01*
X205848770Y-202381994D01*
X205847567Y-202338813D01*
X205846675Y-202282517D01*
X205846092Y-202212839D01*
X205845815Y-202129511D01*
X205845840Y-202032267D01*
X205846165Y-201920838D01*
X205846280Y-201893793D01*
X205848453Y-201403935D01*
X205865024Y-201362954D01*
X205885605Y-201323492D01*
X205912994Y-201287079D01*
X205943713Y-201257827D01*
X205966191Y-201243381D01*
X205970795Y-201241327D01*
X205976421Y-201239484D01*
X205983861Y-201237836D01*
X205993906Y-201236368D01*
X206007348Y-201235065D01*
X206024976Y-201233912D01*
X206047583Y-201232892D01*
X206075959Y-201231992D01*
X206110896Y-201231195D01*
X206153185Y-201230487D01*
X206203616Y-201229852D01*
X206262982Y-201229274D01*
X206332072Y-201228739D01*
X206411679Y-201228231D01*
X206502594Y-201227736D01*
X206605606Y-201227236D01*
X206721509Y-201226718D01*
X206851092Y-201226166D01*
X206858421Y-201226135D01*
X207723246Y-201222507D01*
X207295084Y-200035964D01*
X207241179Y-199886565D01*
X207191990Y-199750186D01*
X207147299Y-199626198D01*
X207106887Y-199513971D01*
X207070539Y-199412875D01*
X207038034Y-199322280D01*
X207009156Y-199241558D01*
X206983687Y-199170077D01*
X206961408Y-199107209D01*
X206942103Y-199052324D01*
X206925553Y-199004791D01*
X206911540Y-198963982D01*
X206899847Y-198929267D01*
X206890255Y-198900015D01*
X206882548Y-198875597D01*
X206876506Y-198855384D01*
X206871913Y-198838746D01*
X206868550Y-198825052D01*
X206866199Y-198813674D01*
X206864644Y-198803981D01*
X206863665Y-198795345D01*
X206863045Y-198787134D01*
X206863038Y-198787022D01*
X206863789Y-198727012D01*
X206874409Y-198670997D01*
X206895755Y-198617104D01*
X206928685Y-198563457D01*
X206974055Y-198508181D01*
X207005364Y-198475669D01*
X207071780Y-198416161D01*
X207149214Y-198358579D01*
X207238218Y-198302632D01*
X207339344Y-198248030D01*
X207453144Y-198194481D01*
X207580169Y-198141696D01*
X207720970Y-198089383D01*
X207771596Y-198071817D01*
X207924639Y-198022739D01*
X208089667Y-197975671D01*
X208264225Y-197931126D01*
X208445863Y-197889617D01*
X208632127Y-197851657D01*
X208820565Y-197817759D01*
X209008723Y-197788436D01*
X209194149Y-197764203D01*
X209294427Y-197753194D01*
X209344057Y-197748135D01*
X209318838Y-197783521D01*
X209287831Y-197832653D01*
X209255949Y-197893603D01*
X209224307Y-197963810D01*
X209194018Y-198040714D01*
X209166199Y-198121755D01*
X209153575Y-198162989D01*
X209115315Y-198311649D01*
X209084222Y-198471971D01*
X209060338Y-198642970D01*
X209043705Y-198823665D01*
X209034367Y-199013071D01*
X209032366Y-199210205D01*
X209037742Y-199414083D01*
X209050540Y-199623722D01*
X209070802Y-199838139D01*
X209078594Y-199905335D01*
X209103487Y-200091454D01*
X209134116Y-200287124D01*
X209169818Y-200488867D01*
X209209932Y-200693207D01*
X209253795Y-200896667D01*
X209300744Y-201095768D01*
X209319804Y-201171707D01*
X209332784Y-201222507D01*
X209422054Y-201224551D01*
X209511323Y-201226595D01*
X209507896Y-201202780D01*
X209505311Y-201189388D01*
X209499812Y-201164062D01*
X209491897Y-201128975D01*
X209482060Y-201086300D01*
X209470797Y-201038213D01*
X209460281Y-200993907D01*
X209389814Y-200677305D01*
X209330661Y-200364195D01*
X209282100Y-200050194D01*
X209243411Y-199730920D01*
X209229847Y-199593278D01*
X209225962Y-199542426D01*
X209222524Y-199480496D01*
X209219568Y-199409936D01*
X209217130Y-199333193D01*
X209215243Y-199252714D01*
X209213943Y-199170945D01*
X209213265Y-199090334D01*
X209213250Y-199035613D01*
X210295980Y-199035613D01*
X210304849Y-199107250D01*
X210325596Y-199176817D01*
X210358256Y-199242533D01*
X210402861Y-199302616D01*
X210417028Y-199317713D01*
X210474430Y-199366083D01*
X210538033Y-199401572D01*
X210606803Y-199423877D01*
X210679705Y-199432700D01*
X210755706Y-199427741D01*
X210780633Y-199423169D01*
X210847346Y-199401924D01*
X210907924Y-199368665D01*
X210961412Y-199324937D01*
X211006857Y-199272284D01*
X211043302Y-199212251D01*
X211069793Y-199146382D01*
X211085376Y-199076223D01*
X211089094Y-199003317D01*
X211081484Y-198936507D01*
X211060367Y-198862064D01*
X211027324Y-198795536D01*
X210981698Y-198735687D01*
X210965399Y-198718793D01*
X210907777Y-198670499D01*
X210846477Y-198636011D01*
X210780317Y-198614838D01*
X210708114Y-198606487D01*
X210695057Y-198606307D01*
X210619732Y-198612428D01*
X210551178Y-198631118D01*
X210488118Y-198662869D01*
X210429273Y-198708172D01*
X210428621Y-198708769D01*
X210378608Y-198764019D01*
X210340303Y-198826111D01*
X210313741Y-198893262D01*
X210298955Y-198963690D01*
X210295980Y-199035613D01*
X209213250Y-199035613D01*
X209213243Y-199013329D01*
X209213913Y-198942376D01*
X209215309Y-198879921D01*
X209217465Y-198828414D01*
X209218690Y-198809507D01*
X209235255Y-198638236D01*
X209258488Y-198479605D01*
X209288500Y-198333305D01*
X209325401Y-198199026D01*
X209369303Y-198076459D01*
X209420317Y-197965295D01*
X209478554Y-197865225D01*
X209544126Y-197775938D01*
X209617143Y-197697127D01*
X209619411Y-197694958D01*
X209701114Y-197624991D01*
X209795971Y-197557839D01*
X209902815Y-197493965D01*
X210020477Y-197433832D01*
X210147790Y-197377902D01*
X210283585Y-197326639D01*
X210426695Y-197280505D01*
X210575952Y-197239962D01*
X210730187Y-197205475D01*
X210888233Y-197177506D01*
X210946596Y-197169017D01*
X211005733Y-197162282D01*
X211074158Y-197156758D01*
X211148519Y-197152536D01*
X211225459Y-197149706D01*
X211301627Y-197148356D01*
X211373668Y-197148576D01*
X211438229Y-197150457D01*
X211491954Y-197154087D01*
X211494856Y-197154372D01*
X211601620Y-197168463D01*
X211701027Y-197188359D01*
X211791147Y-197213569D01*
X211870050Y-197243605D01*
X211897817Y-197256748D01*
X211920386Y-197267541D01*
X211937369Y-197274538D01*
X211945204Y-197276277D01*
X211945270Y-197276224D01*
X211945847Y-197268313D01*
X211945419Y-197248578D01*
X211944092Y-197219663D01*
X211941974Y-197184215D01*
X211940922Y-197168706D01*
X211923843Y-197001642D01*
X211896621Y-196844364D01*
X211859134Y-196696759D01*
X211811257Y-196558714D01*
X211752867Y-196430119D01*
X211683841Y-196310860D01*
X211604055Y-196200826D01*
X211513385Y-196099904D01*
X211411709Y-196007982D01*
X211298902Y-195924949D01*
X211174841Y-195850691D01*
X211039403Y-195785098D01*
X210892464Y-195728056D01*
X210733901Y-195679454D01*
X210563590Y-195639179D01*
X210381407Y-195607119D01*
X210195482Y-195583993D01*
X210119290Y-195577191D01*
X210032545Y-195571060D01*
X209937641Y-195565660D01*
X209836972Y-195561051D01*
X209732933Y-195557293D01*
X209627917Y-195554446D01*
X209524319Y-195552571D01*
X209424533Y-195551727D01*
X209330953Y-195551975D01*
X209245975Y-195553375D01*
X209171991Y-195555987D01*
X209143196Y-195557557D01*
X208901894Y-195578359D01*
X208653501Y-195611119D01*
X208398695Y-195655533D01*
X208138155Y-195711298D01*
X207872558Y-195778114D01*
X207602584Y-195855675D01*
X207328911Y-195943681D01*
X207052216Y-196041828D01*
X206773179Y-196149815D01*
X206492477Y-196267337D01*
X206210789Y-196394093D01*
X205928793Y-196529780D01*
X205647168Y-196674096D01*
X205366592Y-196826737D01*
X205087743Y-196987402D01*
X204811300Y-197155787D01*
X204537941Y-197331590D01*
X204268344Y-197514509D01*
X204003187Y-197704240D01*
X203743149Y-197900482D01*
X203551547Y-198052029D01*
X203346345Y-198222247D01*
X203144072Y-198399073D01*
X202946699Y-198580622D01*
X202756192Y-198765007D01*
X202574522Y-198950342D01*
X202403656Y-199134742D01*
X202306461Y-199244935D01*
X202140872Y-199443628D01*
X201987203Y-199642818D01*
X201845671Y-199842094D01*
X201716498Y-200041043D01*
X201599902Y-200239252D01*
X201496104Y-200436309D01*
X201405323Y-200631801D01*
X201327778Y-200825316D01*
X201263691Y-201016441D01*
X201213279Y-201204764D01*
X201182660Y-201354754D01*
X201175513Y-201397585D01*
X201168887Y-201440839D01*
X201163460Y-201479850D01*
X201159913Y-201509948D01*
X201159590Y-201513354D01*
X201154571Y-201568734D01*
X201190975Y-201542580D01*
X201245634Y-201507910D01*
X201312832Y-201472992D01*
X201390628Y-201438566D01*
X201477081Y-201405370D01*
X201570249Y-201374144D01*
X201668192Y-201345628D01*
X201768968Y-201320562D01*
X201780825Y-201317895D01*
X201860882Y-201301698D01*
X201941509Y-201288384D01*
X202020769Y-201278079D01*
X202096730Y-201270908D01*
X202167457Y-201266998D01*
X202231016Y-201266473D01*
X202285475Y-201269459D01*
X202328897Y-201276081D01*
X202346866Y-201281140D01*
X202374856Y-201293346D01*
X202390767Y-201306711D01*
X202394500Y-201313221D01*
X202395911Y-201321864D01*
X202396978Y-201340676D01*
X202397699Y-201370117D01*
X202398072Y-201410648D01*
X202398095Y-201462729D01*
X202397767Y-201526821D01*
X202397086Y-201603385D01*
X202396051Y-201692881D01*
X202394659Y-201795771D01*
X202392908Y-201912513D01*
X202392057Y-201966364D01*
X202390499Y-202061075D01*
X202388934Y-202151593D01*
X202387383Y-202236872D01*
X202385870Y-202315866D01*
X202384417Y-202387528D01*
X202383046Y-202450811D01*
X202381781Y-202504670D01*
X202380643Y-202548058D01*
X202379655Y-202579928D01*
X202378840Y-202599234D01*
X202378293Y-202604993D01*
X202370667Y-202605557D01*
X202349569Y-202606146D01*
X202316040Y-202606751D01*
X202271122Y-202607362D01*
X202215857Y-202607968D01*
X202151287Y-202608561D01*
X202078453Y-202609131D01*
X201998397Y-202609668D01*
X201912161Y-202610163D01*
X201820787Y-202610605D01*
X201734001Y-202610954D01*
X201093295Y-202613287D01*
X201088780Y-202650868D01*
X201086626Y-202676413D01*
X201085013Y-202710006D01*
X201084232Y-202745186D01*
X201084202Y-202751910D01*
X201084139Y-202815370D01*
X200873468Y-202815370D01*
X200876475Y-202698871D01*
X200893936Y-202289020D01*
X200917985Y-201890916D01*
X200935579Y-201657935D01*
X200949953Y-201508455D01*
X200968116Y-201369858D01*
X200990730Y-201238855D01*
X201018455Y-201112154D01*
X201051952Y-200986467D01*
X201091883Y-200858503D01*
X201102529Y-200826993D01*
X201178700Y-200624463D01*
X201268970Y-200420119D01*
X201373079Y-200214273D01*
X201490769Y-200007236D01*
X201621780Y-199799319D01*
X201765853Y-199590831D01*
X201922728Y-199382086D01*
X202092147Y-199173392D01*
X202273851Y-198965062D01*
X202467579Y-198757406D01*
X202673074Y-198550736D01*
X202890075Y-198345361D01*
X203118323Y-198141594D01*
X203357560Y-197939745D01*
X203607526Y-197740124D01*
X203794682Y-197597442D01*
X204059224Y-197404857D01*
X204328916Y-197218760D01*
X204603021Y-197039474D01*
X204880801Y-196867319D01*
X205161519Y-196702617D01*
X205444436Y-196545691D01*
X205728814Y-196396861D01*
X206013917Y-196256450D01*
X206299006Y-196124779D01*
X206583343Y-196002169D01*
X206866191Y-195888943D01*
X207146813Y-195785422D01*
X207424470Y-195691928D01*
X207698424Y-195608782D01*
X207967938Y-195536306D01*
X208232275Y-195474822D01*
X208490696Y-195424652D01*
X208742464Y-195386116D01*
X208911083Y-195366563D01*
X209036796Y-195356177D01*
X209173957Y-195348827D01*
X209319833Y-195344452D01*
X209471691Y-195342994D01*
X209626800Y-195344393D01*
G36*
X197325600Y-138698978D02*
X198557206Y-138785346D01*
X199651482Y-138933122D01*
X200638039Y-139147235D01*
X201546490Y-139432618D01*
X202251653Y-139722245D01*
X202633611Y-139903619D01*
X202859078Y-140026521D01*
X202921200Y-140084277D01*
X202813123Y-140070211D01*
X202527993Y-139977648D01*
X202505653Y-139969649D01*
X201458454Y-139667188D01*
X200265408Y-139450864D01*
X198964416Y-139320054D01*
X197593377Y-139274137D01*
X196190192Y-139312488D01*
X194792761Y-139434486D01*
X193438984Y-139639508D01*
X192166761Y-139926932D01*
X191419075Y-140151751D01*
X190118684Y-140657408D01*
X189004633Y-141240971D01*
X188077310Y-141902087D01*
X187337106Y-142640407D01*
X186784409Y-143455578D01*
X186419607Y-144347249D01*
X186320095Y-144756707D01*
X186200284Y-145366307D01*
X185971149Y-144866152D01*
X185794382Y-144246164D01*
X185799277Y-143585948D01*
X185973634Y-142906168D01*
X186305252Y-142227489D01*
X186781932Y-141570576D01*
X187391473Y-140956095D01*
X188121676Y-140404709D01*
X188849658Y-139990414D01*
X189813091Y-139565282D01*
X190807761Y-139230039D01*
X191865491Y-138978742D01*
X193018102Y-138805450D01*
X194297415Y-138704224D01*
X195735254Y-138669122D01*
X195927053Y-138669086D01*
X197325600Y-138698978D01*
X197325600Y-138698978D01*
G37*
X197325600Y-138698978D02*
X198557206Y-138785346D01*
X199651482Y-138933122D01*
X200638039Y-139147235D01*
X201546490Y-139432618D01*
X202251653Y-139722245D01*
X202633611Y-139903619D01*
X202859078Y-140026521D01*
X202921200Y-140084277D01*
X202813123Y-140070211D01*
X202527993Y-139977648D01*
X202505653Y-139969649D01*
X201458454Y-139667188D01*
X200265408Y-139450864D01*
X198964416Y-139320054D01*
X197593377Y-139274137D01*
X196190192Y-139312488D01*
X194792761Y-139434486D01*
X193438984Y-139639508D01*
X192166761Y-139926932D01*
X191419075Y-140151751D01*
X190118684Y-140657408D01*
X189004633Y-141240971D01*
X188077310Y-141902087D01*
X187337106Y-142640407D01*
X186784409Y-143455578D01*
X186419607Y-144347249D01*
X186320095Y-144756707D01*
X186200284Y-145366307D01*
X185971149Y-144866152D01*
X185794382Y-144246164D01*
X185799277Y-143585948D01*
X185973634Y-142906168D01*
X186305252Y-142227489D01*
X186781932Y-141570576D01*
X187391473Y-140956095D01*
X188121676Y-140404709D01*
X188849658Y-139990414D01*
X189813091Y-139565282D01*
X190807761Y-139230039D01*
X191865491Y-138978742D01*
X193018102Y-138805450D01*
X194297415Y-138704224D01*
X195735254Y-138669122D01*
X195927053Y-138669086D01*
X197325600Y-138698978D01*
G36*
X206188653Y-147550707D02*
X204766253Y-147550707D01*
X204766253Y-142165907D01*
X206188653Y-142165907D01*
X206188653Y-147550707D01*
X206188653Y-147550707D01*
G37*
X206188653Y-147550707D02*
X204766253Y-147550707D01*
X204766253Y-142165907D01*
X206188653Y-142165907D01*
X206188653Y-147550707D01*
G36*
X203561447Y-143799070D02*
X203648967Y-143842469D01*
X203828233Y-143971205D01*
X203961591Y-144164486D01*
X204055047Y-144449742D01*
X204114607Y-144854406D01*
X204146278Y-145405908D01*
X204156067Y-146131679D01*
X204156086Y-146158555D01*
X204156653Y-147560403D01*
X202886653Y-147499907D01*
X202835853Y-146390458D01*
X202797976Y-145810718D01*
X202746566Y-145432391D01*
X202681416Y-145254127D01*
X202661449Y-145240123D01*
X202602863Y-145280063D01*
X202560013Y-145458568D01*
X202529996Y-145796761D01*
X202509913Y-146315766D01*
X202509049Y-146349572D01*
X202480253Y-147499907D01*
X201261053Y-147499907D01*
X201232256Y-146349572D01*
X201212629Y-145820133D01*
X201183227Y-145472655D01*
X201141149Y-145286014D01*
X201083494Y-145239085D01*
X201079856Y-145240123D01*
X201010963Y-145364615D01*
X200955864Y-145688806D01*
X200914355Y-146214044D01*
X200905453Y-146390458D01*
X200854653Y-147499907D01*
X199584653Y-147560403D01*
X199584653Y-143791507D01*
X200197441Y-143791507D01*
X200571877Y-143806755D01*
X200784082Y-143858573D01*
X200870394Y-143948293D01*
X200937020Y-144051105D01*
X201046237Y-143999393D01*
X201095806Y-143956208D01*
X201321380Y-143817551D01*
X201537895Y-143738250D01*
X201753765Y-143723113D01*
X201953242Y-143823253D01*
X202122095Y-143976519D01*
X202429453Y-144283876D01*
X202726437Y-143986891D01*
X203001922Y-143762054D01*
X203255051Y-143703393D01*
X203561447Y-143799070D01*
X203561447Y-143799070D01*
G37*
X203561447Y-143799070D02*
X203648967Y-143842469D01*
X203828233Y-143971205D01*
X203961591Y-144164486D01*
X204055047Y-144449742D01*
X204114607Y-144854406D01*
X204146278Y-145405908D01*
X204156067Y-146131679D01*
X204156086Y-146158555D01*
X204156653Y-147560403D01*
X202886653Y-147499907D01*
X202835853Y-146390458D01*
X202797976Y-145810718D01*
X202746566Y-145432391D01*
X202681416Y-145254127D01*
X202661449Y-145240123D01*
X202602863Y-145280063D01*
X202560013Y-145458568D01*
X202529996Y-145796761D01*
X202509913Y-146315766D01*
X202509049Y-146349572D01*
X202480253Y-147499907D01*
X201261053Y-147499907D01*
X201232256Y-146349572D01*
X201212629Y-145820133D01*
X201183227Y-145472655D01*
X201141149Y-145286014D01*
X201083494Y-145239085D01*
X201079856Y-145240123D01*
X201010963Y-145364615D01*
X200955864Y-145688806D01*
X200914355Y-146214044D01*
X200905453Y-146390458D01*
X200854653Y-147499907D01*
X199584653Y-147560403D01*
X199584653Y-143791507D01*
X200197441Y-143791507D01*
X200571877Y-143806755D01*
X200784082Y-143858573D01*
X200870394Y-143948293D01*
X200937020Y-144051105D01*
X201046237Y-143999393D01*
X201095806Y-143956208D01*
X201321380Y-143817551D01*
X201537895Y-143738250D01*
X201753765Y-143723113D01*
X201953242Y-143823253D01*
X202122095Y-143976519D01*
X202429453Y-144283876D01*
X202726437Y-143986891D01*
X203001922Y-143762054D01*
X203255051Y-143703393D01*
X203561447Y-143799070D01*
G36*
X197869732Y-142325624D02*
X197926221Y-142341229D01*
X198019302Y-142379476D01*
X198098665Y-142442055D01*
X198173363Y-142553685D01*
X198252450Y-142739084D01*
X198344978Y-143022970D01*
X198460002Y-143430060D01*
X198606574Y-143985073D01*
X198791267Y-144703038D01*
X198961209Y-145368577D01*
X199117180Y-145982715D01*
X199251037Y-146513119D01*
X199354635Y-146927455D01*
X199419829Y-147193390D01*
X199435421Y-147260331D01*
X199499198Y-147550707D01*
X198830725Y-147550707D01*
X198469910Y-147544164D01*
X198267791Y-147515878D01*
X198180051Y-147452857D01*
X198162253Y-147354764D01*
X198071944Y-147083265D01*
X197824966Y-146903192D01*
X197469195Y-146841062D01*
X197121970Y-146871149D01*
X196926261Y-146977160D01*
X196835855Y-147188199D01*
X196826295Y-147245907D01*
X196790608Y-147385852D01*
X196700243Y-147465895D01*
X196505779Y-147506979D01*
X196157798Y-147530052D01*
X196155653Y-147530155D01*
X195804652Y-147539400D01*
X195611588Y-147517996D01*
X195532233Y-147455782D01*
X195520653Y-147384284D01*
X195545439Y-147240074D01*
X195615088Y-146928565D01*
X195722533Y-146478912D01*
X195860707Y-145920268D01*
X195946927Y-145580110D01*
X197172777Y-145580110D01*
X197188108Y-145684433D01*
X197327082Y-145796944D01*
X197475998Y-145805232D01*
X197625087Y-145753540D01*
X197688538Y-145615570D01*
X197697617Y-145366307D01*
X197668560Y-144964413D01*
X197604858Y-144640128D01*
X197518388Y-144440964D01*
X197456320Y-144401107D01*
X197385419Y-144491425D01*
X197308084Y-144719223D01*
X197237845Y-145019762D01*
X197188233Y-145328303D01*
X197172777Y-145580110D01*
X195946927Y-145580110D01*
X196022544Y-145281788D01*
X196148962Y-144792055D01*
X196777271Y-142375946D01*
X197209411Y-142311143D01*
X197555635Y-142291864D01*
X197869732Y-142325624D01*
X197869732Y-142325624D01*
G37*
X197869732Y-142325624D02*
X197926221Y-142341229D01*
X198019302Y-142379476D01*
X198098665Y-142442055D01*
X198173363Y-142553685D01*
X198252450Y-142739084D01*
X198344978Y-143022970D01*
X198460002Y-143430060D01*
X198606574Y-143985073D01*
X198791267Y-144703038D01*
X198961209Y-145368577D01*
X199117180Y-145982715D01*
X199251037Y-146513119D01*
X199354635Y-146927455D01*
X199419829Y-147193390D01*
X199435421Y-147260331D01*
X199499198Y-147550707D01*
X198830725Y-147550707D01*
X198469910Y-147544164D01*
X198267791Y-147515878D01*
X198180051Y-147452857D01*
X198162253Y-147354764D01*
X198071944Y-147083265D01*
X197824966Y-146903192D01*
X197469195Y-146841062D01*
X197121970Y-146871149D01*
X196926261Y-146977160D01*
X196835855Y-147188199D01*
X196826295Y-147245907D01*
X196790608Y-147385852D01*
X196700243Y-147465895D01*
X196505779Y-147506979D01*
X196157798Y-147530052D01*
X196155653Y-147530155D01*
X195804652Y-147539400D01*
X195611588Y-147517996D01*
X195532233Y-147455782D01*
X195520653Y-147384284D01*
X195545439Y-147240074D01*
X195615088Y-146928565D01*
X195722533Y-146478912D01*
X195860707Y-145920268D01*
X195946927Y-145580110D01*
X197172777Y-145580110D01*
X197188108Y-145684433D01*
X197327082Y-145796944D01*
X197475998Y-145805232D01*
X197625087Y-145753540D01*
X197688538Y-145615570D01*
X197697617Y-145366307D01*
X197668560Y-144964413D01*
X197604858Y-144640128D01*
X197518388Y-144440964D01*
X197456320Y-144401107D01*
X197385419Y-144491425D01*
X197308084Y-144719223D01*
X197237845Y-145019762D01*
X197188233Y-145328303D01*
X197172777Y-145580110D01*
X195946927Y-145580110D01*
X196022544Y-145281788D01*
X196148962Y-144792055D01*
X196777271Y-142375946D01*
X197209411Y-142311143D01*
X197555635Y-142291864D01*
X197869732Y-142325624D01*
G36*
X195317103Y-141113389D02*
X195464091Y-141274113D01*
X195595669Y-141599656D01*
X195602940Y-142038602D01*
X195486237Y-142614666D01*
X195483023Y-142626365D01*
X195392417Y-142954348D01*
X195268681Y-143401620D01*
X195132988Y-143891662D01*
X195076284Y-144096307D01*
X194888272Y-144942201D01*
X194769841Y-145829184D01*
X194751858Y-146077507D01*
X194715661Y-146659930D01*
X194679257Y-147068447D01*
X194636791Y-147332272D01*
X194582410Y-147480620D01*
X194510262Y-147542706D01*
X194456692Y-147550707D01*
X194322365Y-147453873D01*
X194214836Y-147180244D01*
X194139832Y-146755132D01*
X194103081Y-146203845D01*
X194100321Y-145975907D01*
X194121201Y-145437515D01*
X194188735Y-144891102D01*
X194312161Y-144290335D01*
X194500718Y-143588880D01*
X194715737Y-142889387D01*
X194840766Y-142481307D01*
X194931734Y-142151265D01*
X194977204Y-141942817D01*
X194977249Y-141893436D01*
X194897939Y-141917862D01*
X194752033Y-142092202D01*
X194534172Y-142424655D01*
X194239000Y-142923421D01*
X193861157Y-143596699D01*
X193844253Y-143627368D01*
X193372172Y-144456234D01*
X192972326Y-145097409D01*
X192643468Y-145552652D01*
X192384350Y-145823721D01*
X192225007Y-145909433D01*
X192117828Y-145910655D01*
X192070967Y-145829851D01*
X192072776Y-145621907D01*
X192094006Y-145402100D01*
X192149339Y-145080755D01*
X192253988Y-144631753D01*
X192391853Y-144119819D01*
X192515693Y-143707021D01*
X192657098Y-143255615D01*
X192772800Y-142879846D01*
X192850787Y-142619173D01*
X192879053Y-142513221D01*
X192836375Y-142463048D01*
X192717727Y-142570675D01*
X192537184Y-142811745D01*
X192308825Y-143161899D01*
X192046725Y-143596780D01*
X191764961Y-144092029D01*
X191477611Y-144623289D01*
X191198750Y-145166201D01*
X190942455Y-145696408D01*
X190722804Y-146189552D01*
X190645585Y-146377946D01*
X190398024Y-146974463D01*
X190169036Y-147475712D01*
X189971419Y-147856741D01*
X189817972Y-148092600D01*
X189731316Y-148160307D01*
X189611897Y-148081226D01*
X189529827Y-147963786D01*
X189435308Y-147611189D01*
X189435334Y-147102864D01*
X189525959Y-146460818D01*
X189703238Y-145707060D01*
X189963226Y-144863598D01*
X190204649Y-144199536D01*
X190452175Y-143547095D01*
X190625498Y-143061017D01*
X190730180Y-142720773D01*
X190771786Y-142505838D01*
X190755879Y-142395685D01*
X190700781Y-142369107D01*
X190538331Y-142440845D01*
X190282269Y-142632859D01*
X189970288Y-142910344D01*
X189640081Y-143238497D01*
X189329340Y-143582516D01*
X189161699Y-143790201D01*
X188904743Y-144108894D01*
X188738648Y-144262541D01*
X188646949Y-144258636D01*
X188613177Y-144104675D01*
X188611853Y-144040461D01*
X188655828Y-143754347D01*
X188801603Y-143451733D01*
X189069944Y-143100711D01*
X189481623Y-142669374D01*
X189544045Y-142608367D01*
X190055247Y-142148156D01*
X190483860Y-141846750D01*
X190853474Y-141689704D01*
X191096007Y-141657907D01*
X191252602Y-141674813D01*
X191328769Y-141761049D01*
X191353061Y-141969888D01*
X191354676Y-142140507D01*
X191313269Y-142493635D01*
X191194348Y-143002132D01*
X191005241Y-143636727D01*
X190903207Y-143943907D01*
X190748371Y-144406519D01*
X190630686Y-144776515D01*
X190559022Y-145024422D01*
X190542247Y-145120770D01*
X190551597Y-145112307D01*
X190637112Y-144967788D01*
X190797584Y-144685105D01*
X191010452Y-144304365D01*
X191253155Y-143865672D01*
X191266015Y-143842307D01*
X191739753Y-143017246D01*
X192153510Y-142376218D01*
X192514219Y-141911387D01*
X192828811Y-141614919D01*
X193104220Y-141478981D01*
X193343690Y-141494302D01*
X193440803Y-141565979D01*
X193481419Y-141716594D01*
X193474957Y-141997453D01*
X193462704Y-142142658D01*
X193394402Y-142579277D01*
X193277934Y-143064727D01*
X193194788Y-143330785D01*
X193060383Y-143728603D01*
X193001566Y-143949478D01*
X193020043Y-143991851D01*
X193117525Y-143854162D01*
X193295719Y-143534853D01*
X193556333Y-143032365D01*
X193586196Y-142973553D01*
X193963964Y-142276513D01*
X194297725Y-141764552D01*
X194594973Y-141426188D01*
X194597220Y-141424153D01*
X194911842Y-141168554D01*
X195139355Y-141067120D01*
X195317103Y-141113389D01*
X195317103Y-141113389D01*
G37*
X195317103Y-141113389D02*
X195464091Y-141274113D01*
X195595669Y-141599656D01*
X195602940Y-142038602D01*
X195486237Y-142614666D01*
X195483023Y-142626365D01*
X195392417Y-142954348D01*
X195268681Y-143401620D01*
X195132988Y-143891662D01*
X195076284Y-144096307D01*
X194888272Y-144942201D01*
X194769841Y-145829184D01*
X194751858Y-146077507D01*
X194715661Y-146659930D01*
X194679257Y-147068447D01*
X194636791Y-147332272D01*
X194582410Y-147480620D01*
X194510262Y-147542706D01*
X194456692Y-147550707D01*
X194322365Y-147453873D01*
X194214836Y-147180244D01*
X194139832Y-146755132D01*
X194103081Y-146203845D01*
X194100321Y-145975907D01*
X194121201Y-145437515D01*
X194188735Y-144891102D01*
X194312161Y-144290335D01*
X194500718Y-143588880D01*
X194715737Y-142889387D01*
X194840766Y-142481307D01*
X194931734Y-142151265D01*
X194977204Y-141942817D01*
X194977249Y-141893436D01*
X194897939Y-141917862D01*
X194752033Y-142092202D01*
X194534172Y-142424655D01*
X194239000Y-142923421D01*
X193861157Y-143596699D01*
X193844253Y-143627368D01*
X193372172Y-144456234D01*
X192972326Y-145097409D01*
X192643468Y-145552652D01*
X192384350Y-145823721D01*
X192225007Y-145909433D01*
X192117828Y-145910655D01*
X192070967Y-145829851D01*
X192072776Y-145621907D01*
X192094006Y-145402100D01*
X192149339Y-145080755D01*
X192253988Y-144631753D01*
X192391853Y-144119819D01*
X192515693Y-143707021D01*
X192657098Y-143255615D01*
X192772800Y-142879846D01*
X192850787Y-142619173D01*
X192879053Y-142513221D01*
X192836375Y-142463048D01*
X192717727Y-142570675D01*
X192537184Y-142811745D01*
X192308825Y-143161899D01*
X192046725Y-143596780D01*
X191764961Y-144092029D01*
X191477611Y-144623289D01*
X191198750Y-145166201D01*
X190942455Y-145696408D01*
X190722804Y-146189552D01*
X190645585Y-146377946D01*
X190398024Y-146974463D01*
X190169036Y-147475712D01*
X189971419Y-147856741D01*
X189817972Y-148092600D01*
X189731316Y-148160307D01*
X189611897Y-148081226D01*
X189529827Y-147963786D01*
X189435308Y-147611189D01*
X189435334Y-147102864D01*
X189525959Y-146460818D01*
X189703238Y-145707060D01*
X189963226Y-144863598D01*
X190204649Y-144199536D01*
X190452175Y-143547095D01*
X190625498Y-143061017D01*
X190730180Y-142720773D01*
X190771786Y-142505838D01*
X190755879Y-142395685D01*
X190700781Y-142369107D01*
X190538331Y-142440845D01*
X190282269Y-142632859D01*
X189970288Y-142910344D01*
X189640081Y-143238497D01*
X189329340Y-143582516D01*
X189161699Y-143790201D01*
X188904743Y-144108894D01*
X188738648Y-144262541D01*
X188646949Y-144258636D01*
X188613177Y-144104675D01*
X188611853Y-144040461D01*
X188655828Y-143754347D01*
X188801603Y-143451733D01*
X189069944Y-143100711D01*
X189481623Y-142669374D01*
X189544045Y-142608367D01*
X190055247Y-142148156D01*
X190483860Y-141846750D01*
X190853474Y-141689704D01*
X191096007Y-141657907D01*
X191252602Y-141674813D01*
X191328769Y-141761049D01*
X191353061Y-141969888D01*
X191354676Y-142140507D01*
X191313269Y-142493635D01*
X191194348Y-143002132D01*
X191005241Y-143636727D01*
X190903207Y-143943907D01*
X190748371Y-144406519D01*
X190630686Y-144776515D01*
X190559022Y-145024422D01*
X190542247Y-145120770D01*
X190551597Y-145112307D01*
X190637112Y-144967788D01*
X190797584Y-144685105D01*
X191010452Y-144304365D01*
X191253155Y-143865672D01*
X191266015Y-143842307D01*
X191739753Y-143017246D01*
X192153510Y-142376218D01*
X192514219Y-141911387D01*
X192828811Y-141614919D01*
X193104220Y-141478981D01*
X193343690Y-141494302D01*
X193440803Y-141565979D01*
X193481419Y-141716594D01*
X193474957Y-141997453D01*
X193462704Y-142142658D01*
X193394402Y-142579277D01*
X193277934Y-143064727D01*
X193194788Y-143330785D01*
X193060383Y-143728603D01*
X193001566Y-143949478D01*
X193020043Y-143991851D01*
X193117525Y-143854162D01*
X193295719Y-143534853D01*
X193556333Y-143032365D01*
X193586196Y-142973553D01*
X193963964Y-142276513D01*
X194297725Y-141764552D01*
X194594973Y-141426188D01*
X194597220Y-141424153D01*
X194911842Y-141168554D01*
X195139355Y-141067120D01*
X195317103Y-141113389D01*
G36*
X191964653Y-149938307D02*
X191913853Y-149989107D01*
X191863053Y-149938307D01*
X191913853Y-149887507D01*
X191964653Y-149938307D01*
X191964653Y-149938307D01*
G37*
X191964653Y-149938307D02*
X191913853Y-149989107D01*
X191863053Y-149938307D01*
X191913853Y-149887507D01*
X191964653Y-149938307D01*
G36*
X208654748Y-144817887D02*
X208789416Y-145069698D01*
X208791636Y-145074995D01*
X208895189Y-145465489D01*
X208919455Y-145977255D01*
X208911440Y-146174507D01*
X208765878Y-146989089D01*
X208431103Y-147762138D01*
X207918705Y-148483241D01*
X207240274Y-149141986D01*
X206407401Y-149727958D01*
X205431675Y-150230744D01*
X204324687Y-150639932D01*
X203768264Y-150795461D01*
X202698656Y-151019542D01*
X201495591Y-151192053D01*
X200223359Y-151308182D01*
X198946247Y-151363120D01*
X197728546Y-151352056D01*
X196967247Y-151304376D01*
X196295930Y-151228564D01*
X195565312Y-151119138D01*
X194835152Y-150987246D01*
X194165209Y-150844036D01*
X193615243Y-150700655D01*
X193448936Y-150648035D01*
X193094024Y-150518692D01*
X192733653Y-150373109D01*
X192414191Y-150231991D01*
X192182005Y-150116043D01*
X192083465Y-150045971D01*
X192084384Y-150038708D01*
X192191260Y-150047313D01*
X192449174Y-150099346D01*
X192813016Y-150185177D01*
X193037988Y-150242275D01*
X193903033Y-150437014D01*
X194793683Y-150573481D01*
X195753620Y-150655462D01*
X196826526Y-150686747D01*
X198001848Y-150672640D01*
X199830634Y-150556991D01*
X201504281Y-150313933D01*
X203026833Y-149942357D01*
X204402334Y-149441151D01*
X205634828Y-148809202D01*
X206253784Y-148405092D01*
X206921753Y-147850773D01*
X207496749Y-147214083D01*
X207952985Y-146532761D01*
X208264675Y-145844544D01*
X208398573Y-145266239D01*
X208460560Y-144915557D01*
X208545540Y-144766307D01*
X208654748Y-144817887D01*
X208654748Y-144817887D01*
G37*
X208654748Y-144817887D02*
X208789416Y-145069698D01*
X208791636Y-145074995D01*
X208895189Y-145465489D01*
X208919455Y-145977255D01*
X208911440Y-146174507D01*
X208765878Y-146989089D01*
X208431103Y-147762138D01*
X207918705Y-148483241D01*
X207240274Y-149141986D01*
X206407401Y-149727958D01*
X205431675Y-150230744D01*
X204324687Y-150639932D01*
X203768264Y-150795461D01*
X202698656Y-151019542D01*
X201495591Y-151192053D01*
X200223359Y-151308182D01*
X198946247Y-151363120D01*
X197728546Y-151352056D01*
X196967247Y-151304376D01*
X196295930Y-151228564D01*
X195565312Y-151119138D01*
X194835152Y-150987246D01*
X194165209Y-150844036D01*
X193615243Y-150700655D01*
X193448936Y-150648035D01*
X193094024Y-150518692D01*
X192733653Y-150373109D01*
X192414191Y-150231991D01*
X192182005Y-150116043D01*
X192083465Y-150045971D01*
X192084384Y-150038708D01*
X192191260Y-150047313D01*
X192449174Y-150099346D01*
X192813016Y-150185177D01*
X193037988Y-150242275D01*
X193903033Y-150437014D01*
X194793683Y-150573481D01*
X195753620Y-150655462D01*
X196826526Y-150686747D01*
X198001848Y-150672640D01*
X199830634Y-150556991D01*
X201504281Y-150313933D01*
X203026833Y-149942357D01*
X204402334Y-149441151D01*
X205634828Y-148809202D01*
X206253784Y-148405092D01*
X206921753Y-147850773D01*
X207496749Y-147214083D01*
X207952985Y-146532761D01*
X208264675Y-145844544D01*
X208398573Y-145266239D01*
X208460560Y-144915557D01*
X208545540Y-144766307D01*
X208654748Y-144817887D01*
G04 #@! TO.C,J1*
X191037937Y-200592742D02*
X193186628Y-200667776D01*
X190747161Y-207486794D02*
X192945821Y-207563573D01*
X191420560Y-208260767D02*
X191746871Y-198916462D01*
D11*
X186213577Y-199773875D02*
X189441609Y-199886601D01*
X190328814Y-201128320D02*
X190291123Y-202207662D01*
X190144672Y-206114932D02*
X190106980Y-207194274D01*
X185927401Y-207968880D02*
X189155433Y-208081606D01*
X190291123Y-202207662D02*
X190720861Y-202222669D01*
G04 #@! TO.C,S0*
D13*
X180017548Y-129185468D02*
X180160405Y-129233087D01*
X180398500Y-129233087D01*
X180493738Y-129185468D01*
X180541357Y-129137849D01*
X180588976Y-129042611D01*
X180588976Y-128947373D01*
X180541357Y-128852135D01*
X180493738Y-128804516D01*
X180398500Y-128756897D01*
X180208024Y-128709278D01*
X180112786Y-128661659D01*
X180065167Y-128614040D01*
X180017548Y-128518802D01*
X180017548Y-128423564D01*
X180065167Y-128328326D01*
X180112786Y-128280707D01*
X180208024Y-128233087D01*
X180446119Y-128233087D01*
X180588976Y-128280707D01*
X181208024Y-128233087D02*
X181303262Y-128233087D01*
X181398500Y-128280707D01*
X181446119Y-128328326D01*
X181493738Y-128423564D01*
X181541357Y-128614040D01*
X181541357Y-128852135D01*
X181493738Y-129042611D01*
X181446119Y-129137849D01*
X181398500Y-129185468D01*
X181303262Y-129233087D01*
X181208024Y-129233087D01*
X181112786Y-129185468D01*
X181065167Y-129137849D01*
X181017548Y-129042611D01*
X180969929Y-128852135D01*
X180969929Y-128614040D01*
X181017548Y-128423564D01*
X181065167Y-128328326D01*
X181112786Y-128280707D01*
X181208024Y-128233087D01*
G04 #@! TO.C,S1*
X171987548Y-105155468D02*
X172130405Y-105203087D01*
X172368500Y-105203087D01*
X172463738Y-105155468D01*
X172511357Y-105107849D01*
X172558976Y-105012611D01*
X172558976Y-104917373D01*
X172511357Y-104822135D01*
X172463738Y-104774516D01*
X172368500Y-104726897D01*
X172178024Y-104679278D01*
X172082786Y-104631659D01*
X172035167Y-104584040D01*
X171987548Y-104488802D01*
X171987548Y-104393564D01*
X172035167Y-104298326D01*
X172082786Y-104250707D01*
X172178024Y-104203087D01*
X172416119Y-104203087D01*
X172558976Y-104250707D01*
X173511357Y-105203087D02*
X172939929Y-105203087D01*
X173225643Y-105203087D02*
X173225643Y-104203087D01*
X173130405Y-104345945D01*
X173035167Y-104441183D01*
X172939929Y-104488802D01*
G04 #@! TO.C,S2*
X172007548Y-81235468D02*
X172150405Y-81283087D01*
X172388500Y-81283087D01*
X172483738Y-81235468D01*
X172531357Y-81187849D01*
X172578976Y-81092611D01*
X172578976Y-80997373D01*
X172531357Y-80902135D01*
X172483738Y-80854516D01*
X172388500Y-80806897D01*
X172198024Y-80759278D01*
X172102786Y-80711659D01*
X172055167Y-80664040D01*
X172007548Y-80568802D01*
X172007548Y-80473564D01*
X172055167Y-80378326D01*
X172102786Y-80330707D01*
X172198024Y-80283087D01*
X172436119Y-80283087D01*
X172578976Y-80330707D01*
X172959929Y-80378326D02*
X173007548Y-80330707D01*
X173102786Y-80283087D01*
X173340881Y-80283087D01*
X173436119Y-80330707D01*
X173483738Y-80378326D01*
X173531357Y-80473564D01*
X173531357Y-80568802D01*
X173483738Y-80711659D01*
X172912310Y-81283087D01*
X173531357Y-81283087D01*
G04 #@! TO.C,S3*
X174007548Y-59165468D02*
X174150405Y-59213087D01*
X174388500Y-59213087D01*
X174483738Y-59165468D01*
X174531357Y-59117849D01*
X174578976Y-59022611D01*
X174578976Y-58927373D01*
X174531357Y-58832135D01*
X174483738Y-58784516D01*
X174388500Y-58736897D01*
X174198024Y-58689278D01*
X174102786Y-58641659D01*
X174055167Y-58594040D01*
X174007548Y-58498802D01*
X174007548Y-58403564D01*
X174055167Y-58308326D01*
X174102786Y-58260707D01*
X174198024Y-58213087D01*
X174436119Y-58213087D01*
X174578976Y-58260707D01*
X174912310Y-58213087D02*
X175531357Y-58213087D01*
X175198024Y-58594040D01*
X175340881Y-58594040D01*
X175436119Y-58641659D01*
X175483738Y-58689278D01*
X175531357Y-58784516D01*
X175531357Y-59022611D01*
X175483738Y-59117849D01*
X175436119Y-59165468D01*
X175340881Y-59213087D01*
X175055167Y-59213087D01*
X174959929Y-59165468D01*
X174912310Y-59117849D01*
G04 #@! TO.C,S4*
X181117548Y-38145468D02*
X181260405Y-38193087D01*
X181498500Y-38193087D01*
X181593738Y-38145468D01*
X181641357Y-38097849D01*
X181688976Y-38002611D01*
X181688976Y-37907373D01*
X181641357Y-37812135D01*
X181593738Y-37764516D01*
X181498500Y-37716897D01*
X181308024Y-37669278D01*
X181212786Y-37621659D01*
X181165167Y-37574040D01*
X181117548Y-37478802D01*
X181117548Y-37383564D01*
X181165167Y-37288326D01*
X181212786Y-37240707D01*
X181308024Y-37193087D01*
X181546119Y-37193087D01*
X181688976Y-37240707D01*
X182546119Y-37526421D02*
X182546119Y-38193087D01*
X182308024Y-37145468D02*
X182069929Y-37859754D01*
X182688976Y-37859754D01*
G04 #@! TO.C,S5*
X197667548Y-59265468D02*
X197810405Y-59313087D01*
X198048500Y-59313087D01*
X198143738Y-59265468D01*
X198191357Y-59217849D01*
X198238976Y-59122611D01*
X198238976Y-59027373D01*
X198191357Y-58932135D01*
X198143738Y-58884516D01*
X198048500Y-58836897D01*
X197858024Y-58789278D01*
X197762786Y-58741659D01*
X197715167Y-58694040D01*
X197667548Y-58598802D01*
X197667548Y-58503564D01*
X197715167Y-58408326D01*
X197762786Y-58360707D01*
X197858024Y-58313087D01*
X198096119Y-58313087D01*
X198238976Y-58360707D01*
X199143738Y-58313087D02*
X198667548Y-58313087D01*
X198619929Y-58789278D01*
X198667548Y-58741659D01*
X198762786Y-58694040D01*
X199000881Y-58694040D01*
X199096119Y-58741659D01*
X199143738Y-58789278D01*
X199191357Y-58884516D01*
X199191357Y-59122611D01*
X199143738Y-59217849D01*
X199096119Y-59265468D01*
X199000881Y-59313087D01*
X198762786Y-59313087D01*
X198667548Y-59265468D01*
X198619929Y-59217849D01*
G04 #@! TO.C,S6*
X196327548Y-82225468D02*
X196470405Y-82273087D01*
X196708500Y-82273087D01*
X196803738Y-82225468D01*
X196851357Y-82177849D01*
X196898976Y-82082611D01*
X196898976Y-81987373D01*
X196851357Y-81892135D01*
X196803738Y-81844516D01*
X196708500Y-81796897D01*
X196518024Y-81749278D01*
X196422786Y-81701659D01*
X196375167Y-81654040D01*
X196327548Y-81558802D01*
X196327548Y-81463564D01*
X196375167Y-81368326D01*
X196422786Y-81320707D01*
X196518024Y-81273087D01*
X196756119Y-81273087D01*
X196898976Y-81320707D01*
X197756119Y-81273087D02*
X197565643Y-81273087D01*
X197470405Y-81320707D01*
X197422786Y-81368326D01*
X197327548Y-81511183D01*
X197279929Y-81701659D01*
X197279929Y-82082611D01*
X197327548Y-82177849D01*
X197375167Y-82225468D01*
X197470405Y-82273087D01*
X197660881Y-82273087D01*
X197756119Y-82225468D01*
X197803738Y-82177849D01*
X197851357Y-82082611D01*
X197851357Y-81844516D01*
X197803738Y-81749278D01*
X197756119Y-81701659D01*
X197660881Y-81654040D01*
X197470405Y-81654040D01*
X197375167Y-81701659D01*
X197327548Y-81749278D01*
X197279929Y-81844516D01*
G04 #@! TO.C,S7*
X198087548Y-105245468D02*
X198230405Y-105293087D01*
X198468500Y-105293087D01*
X198563738Y-105245468D01*
X198611357Y-105197849D01*
X198658976Y-105102611D01*
X198658976Y-105007373D01*
X198611357Y-104912135D01*
X198563738Y-104864516D01*
X198468500Y-104816897D01*
X198278024Y-104769278D01*
X198182786Y-104721659D01*
X198135167Y-104674040D01*
X198087548Y-104578802D01*
X198087548Y-104483564D01*
X198135167Y-104388326D01*
X198182786Y-104340707D01*
X198278024Y-104293087D01*
X198516119Y-104293087D01*
X198658976Y-104340707D01*
X198992310Y-104293087D02*
X199658976Y-104293087D01*
X199230405Y-105293087D01*
G04 #@! TO.C,S8*
X203087548Y-37185468D02*
X203230405Y-37233087D01*
X203468500Y-37233087D01*
X203563738Y-37185468D01*
X203611357Y-37137849D01*
X203658976Y-37042611D01*
X203658976Y-36947373D01*
X203611357Y-36852135D01*
X203563738Y-36804516D01*
X203468500Y-36756897D01*
X203278024Y-36709278D01*
X203182786Y-36661659D01*
X203135167Y-36614040D01*
X203087548Y-36518802D01*
X203087548Y-36423564D01*
X203135167Y-36328326D01*
X203182786Y-36280707D01*
X203278024Y-36233087D01*
X203516119Y-36233087D01*
X203658976Y-36280707D01*
X204230405Y-36661659D02*
X204135167Y-36614040D01*
X204087548Y-36566421D01*
X204039929Y-36471183D01*
X204039929Y-36423564D01*
X204087548Y-36328326D01*
X204135167Y-36280707D01*
X204230405Y-36233087D01*
X204420881Y-36233087D01*
X204516119Y-36280707D01*
X204563738Y-36328326D01*
X204611357Y-36423564D01*
X204611357Y-36471183D01*
X204563738Y-36566421D01*
X204516119Y-36614040D01*
X204420881Y-36661659D01*
X204230405Y-36661659D01*
X204135167Y-36709278D01*
X204087548Y-36756897D01*
X204039929Y-36852135D01*
X204039929Y-37042611D01*
X204087548Y-37137849D01*
X204135167Y-37185468D01*
X204230405Y-37233087D01*
X204420881Y-37233087D01*
X204516119Y-37185468D01*
X204563738Y-37137849D01*
X204611357Y-37042611D01*
X204611357Y-36852135D01*
X204563738Y-36756897D01*
X204516119Y-36709278D01*
X204420881Y-36661659D01*
G04 #@! TO.C,S9*
X221947548Y-51215468D02*
X222090405Y-51263087D01*
X222328500Y-51263087D01*
X222423738Y-51215468D01*
X222471357Y-51167849D01*
X222518976Y-51072611D01*
X222518976Y-50977373D01*
X222471357Y-50882135D01*
X222423738Y-50834516D01*
X222328500Y-50786897D01*
X222138024Y-50739278D01*
X222042786Y-50691659D01*
X221995167Y-50644040D01*
X221947548Y-50548802D01*
X221947548Y-50453564D01*
X221995167Y-50358326D01*
X222042786Y-50310707D01*
X222138024Y-50263087D01*
X222376119Y-50263087D01*
X222518976Y-50310707D01*
X222995167Y-51263087D02*
X223185643Y-51263087D01*
X223280881Y-51215468D01*
X223328500Y-51167849D01*
X223423738Y-51024992D01*
X223471357Y-50834516D01*
X223471357Y-50453564D01*
X223423738Y-50358326D01*
X223376119Y-50310707D01*
X223280881Y-50263087D01*
X223090405Y-50263087D01*
X222995167Y-50310707D01*
X222947548Y-50358326D01*
X222899929Y-50453564D01*
X222899929Y-50691659D01*
X222947548Y-50786897D01*
X222995167Y-50834516D01*
X223090405Y-50882135D01*
X223280881Y-50882135D01*
X223376119Y-50834516D01*
X223423738Y-50786897D01*
X223471357Y-50691659D01*
G04 #@! TO.C,S10*
X215501357Y-74175468D02*
X215644214Y-74223087D01*
X215882310Y-74223087D01*
X215977548Y-74175468D01*
X216025167Y-74127849D01*
X216072786Y-74032611D01*
X216072786Y-73937373D01*
X216025167Y-73842135D01*
X215977548Y-73794516D01*
X215882310Y-73746897D01*
X215691833Y-73699278D01*
X215596595Y-73651659D01*
X215548976Y-73604040D01*
X215501357Y-73508802D01*
X215501357Y-73413564D01*
X215548976Y-73318326D01*
X215596595Y-73270707D01*
X215691833Y-73223087D01*
X215929929Y-73223087D01*
X216072786Y-73270707D01*
X217025167Y-74223087D02*
X216453738Y-74223087D01*
X216739453Y-74223087D02*
X216739453Y-73223087D01*
X216644214Y-73365945D01*
X216548976Y-73461183D01*
X216453738Y-73508802D01*
X217644214Y-73223087D02*
X217739453Y-73223087D01*
X217834691Y-73270707D01*
X217882310Y-73318326D01*
X217929929Y-73413564D01*
X217977548Y-73604040D01*
X217977548Y-73842135D01*
X217929929Y-74032611D01*
X217882310Y-74127849D01*
X217834691Y-74175468D01*
X217739453Y-74223087D01*
X217644214Y-74223087D01*
X217548976Y-74175468D01*
X217501357Y-74127849D01*
X217453738Y-74032611D01*
X217406119Y-73842135D01*
X217406119Y-73604040D01*
X217453738Y-73413564D01*
X217501357Y-73318326D01*
X217548976Y-73270707D01*
X217644214Y-73223087D01*
G04 #@! TO.C,S11*
X236451357Y-71185468D02*
X236594214Y-71233087D01*
X236832310Y-71233087D01*
X236927548Y-71185468D01*
X236975167Y-71137849D01*
X237022786Y-71042611D01*
X237022786Y-70947373D01*
X236975167Y-70852135D01*
X236927548Y-70804516D01*
X236832310Y-70756897D01*
X236641833Y-70709278D01*
X236546595Y-70661659D01*
X236498976Y-70614040D01*
X236451357Y-70518802D01*
X236451357Y-70423564D01*
X236498976Y-70328326D01*
X236546595Y-70280707D01*
X236641833Y-70233087D01*
X236879929Y-70233087D01*
X237022786Y-70280707D01*
X237975167Y-71233087D02*
X237403738Y-71233087D01*
X237689453Y-71233087D02*
X237689453Y-70233087D01*
X237594214Y-70375945D01*
X237498976Y-70471183D01*
X237403738Y-70518802D01*
X238927548Y-71233087D02*
X238356119Y-71233087D01*
X238641833Y-71233087D02*
X238641833Y-70233087D01*
X238546595Y-70375945D01*
X238451357Y-70471183D01*
X238356119Y-70518802D01*
G04 #@! TO.C,S12*
X223561357Y-94135468D02*
X223704214Y-94183087D01*
X223942310Y-94183087D01*
X224037548Y-94135468D01*
X224085167Y-94087849D01*
X224132786Y-93992611D01*
X224132786Y-93897373D01*
X224085167Y-93802135D01*
X224037548Y-93754516D01*
X223942310Y-93706897D01*
X223751833Y-93659278D01*
X223656595Y-93611659D01*
X223608976Y-93564040D01*
X223561357Y-93468802D01*
X223561357Y-93373564D01*
X223608976Y-93278326D01*
X223656595Y-93230707D01*
X223751833Y-93183087D01*
X223989929Y-93183087D01*
X224132786Y-93230707D01*
X225085167Y-94183087D02*
X224513738Y-94183087D01*
X224799453Y-94183087D02*
X224799453Y-93183087D01*
X224704214Y-93325945D01*
X224608976Y-93421183D01*
X224513738Y-93468802D01*
X225466119Y-93278326D02*
X225513738Y-93230707D01*
X225608976Y-93183087D01*
X225847072Y-93183087D01*
X225942310Y-93230707D01*
X225989929Y-93278326D01*
X226037548Y-93373564D01*
X226037548Y-93468802D01*
X225989929Y-93611659D01*
X225418500Y-94183087D01*
X226037548Y-94183087D01*
G04 #@! TO.C,S13*
X247041357Y-91125468D02*
X247184214Y-91173087D01*
X247422310Y-91173087D01*
X247517548Y-91125468D01*
X247565167Y-91077849D01*
X247612786Y-90982611D01*
X247612786Y-90887373D01*
X247565167Y-90792135D01*
X247517548Y-90744516D01*
X247422310Y-90696897D01*
X247231833Y-90649278D01*
X247136595Y-90601659D01*
X247088976Y-90554040D01*
X247041357Y-90458802D01*
X247041357Y-90363564D01*
X247088976Y-90268326D01*
X247136595Y-90220707D01*
X247231833Y-90173087D01*
X247469929Y-90173087D01*
X247612786Y-90220707D01*
X248565167Y-91173087D02*
X247993738Y-91173087D01*
X248279453Y-91173087D02*
X248279453Y-90173087D01*
X248184214Y-90315945D01*
X248088976Y-90411183D01*
X247993738Y-90458802D01*
X248898500Y-90173087D02*
X249517548Y-90173087D01*
X249184214Y-90554040D01*
X249327072Y-90554040D01*
X249422310Y-90601659D01*
X249469929Y-90649278D01*
X249517548Y-90744516D01*
X249517548Y-90982611D01*
X249469929Y-91077849D01*
X249422310Y-91125468D01*
X249327072Y-91173087D01*
X249041357Y-91173087D01*
X248946119Y-91125468D01*
X248898500Y-91077849D01*
G04 #@! TO.C,S14*
X201521357Y-129145468D02*
X201664214Y-129193087D01*
X201902310Y-129193087D01*
X201997548Y-129145468D01*
X202045167Y-129097849D01*
X202092786Y-129002611D01*
X202092786Y-128907373D01*
X202045167Y-128812135D01*
X201997548Y-128764516D01*
X201902310Y-128716897D01*
X201711833Y-128669278D01*
X201616595Y-128621659D01*
X201568976Y-128574040D01*
X201521357Y-128478802D01*
X201521357Y-128383564D01*
X201568976Y-128288326D01*
X201616595Y-128240707D01*
X201711833Y-128193087D01*
X201949929Y-128193087D01*
X202092786Y-128240707D01*
X203045167Y-129193087D02*
X202473738Y-129193087D01*
X202759453Y-129193087D02*
X202759453Y-128193087D01*
X202664214Y-128335945D01*
X202568976Y-128431183D01*
X202473738Y-128478802D01*
X203902310Y-128526421D02*
X203902310Y-129193087D01*
X203664214Y-128145468D02*
X203426119Y-128859754D01*
X204045167Y-128859754D01*
G04 #@! TO.C,S15*
X224411357Y-115165468D02*
X224554214Y-115213087D01*
X224792310Y-115213087D01*
X224887548Y-115165468D01*
X224935167Y-115117849D01*
X224982786Y-115022611D01*
X224982786Y-114927373D01*
X224935167Y-114832135D01*
X224887548Y-114784516D01*
X224792310Y-114736897D01*
X224601833Y-114689278D01*
X224506595Y-114641659D01*
X224458976Y-114594040D01*
X224411357Y-114498802D01*
X224411357Y-114403564D01*
X224458976Y-114308326D01*
X224506595Y-114260707D01*
X224601833Y-114213087D01*
X224839929Y-114213087D01*
X224982786Y-114260707D01*
X225935167Y-115213087D02*
X225363738Y-115213087D01*
X225649453Y-115213087D02*
X225649453Y-114213087D01*
X225554214Y-114355945D01*
X225458976Y-114451183D01*
X225363738Y-114498802D01*
X226839929Y-114213087D02*
X226363738Y-114213087D01*
X226316119Y-114689278D01*
X226363738Y-114641659D01*
X226458976Y-114594040D01*
X226697072Y-114594040D01*
X226792310Y-114641659D01*
X226839929Y-114689278D01*
X226887548Y-114784516D01*
X226887548Y-115022611D01*
X226839929Y-115117849D01*
X226792310Y-115165468D01*
X226697072Y-115213087D01*
X226458976Y-115213087D01*
X226363738Y-115165468D01*
X226316119Y-115117849D01*
G04 #@! TO.C,S16*
X248501357Y-112205468D02*
X248644214Y-112253087D01*
X248882310Y-112253087D01*
X248977548Y-112205468D01*
X249025167Y-112157849D01*
X249072786Y-112062611D01*
X249072786Y-111967373D01*
X249025167Y-111872135D01*
X248977548Y-111824516D01*
X248882310Y-111776897D01*
X248691833Y-111729278D01*
X248596595Y-111681659D01*
X248548976Y-111634040D01*
X248501357Y-111538802D01*
X248501357Y-111443564D01*
X248548976Y-111348326D01*
X248596595Y-111300707D01*
X248691833Y-111253087D01*
X248929929Y-111253087D01*
X249072786Y-111300707D01*
X250025167Y-112253087D02*
X249453738Y-112253087D01*
X249739453Y-112253087D02*
X249739453Y-111253087D01*
X249644214Y-111395945D01*
X249548976Y-111491183D01*
X249453738Y-111538802D01*
X250882310Y-111253087D02*
X250691833Y-111253087D01*
X250596595Y-111300707D01*
X250548976Y-111348326D01*
X250453738Y-111491183D01*
X250406119Y-111681659D01*
X250406119Y-112062611D01*
X250453738Y-112157849D01*
X250501357Y-112205468D01*
X250596595Y-112253087D01*
X250787072Y-112253087D01*
X250882310Y-112205468D01*
X250929929Y-112157849D01*
X250977548Y-112062611D01*
X250977548Y-111824516D01*
X250929929Y-111729278D01*
X250882310Y-111681659D01*
X250787072Y-111634040D01*
X250596595Y-111634040D01*
X250501357Y-111681659D01*
X250453738Y-111729278D01*
X250406119Y-111824516D01*
G04 #@! TO.C,S17*
X247731357Y-133165468D02*
X247874214Y-133213087D01*
X248112310Y-133213087D01*
X248207548Y-133165468D01*
X248255167Y-133117849D01*
X248302786Y-133022611D01*
X248302786Y-132927373D01*
X248255167Y-132832135D01*
X248207548Y-132784516D01*
X248112310Y-132736897D01*
X247921833Y-132689278D01*
X247826595Y-132641659D01*
X247778976Y-132594040D01*
X247731357Y-132498802D01*
X247731357Y-132403564D01*
X247778976Y-132308326D01*
X247826595Y-132260707D01*
X247921833Y-132213087D01*
X248159929Y-132213087D01*
X248302786Y-132260707D01*
X249255167Y-133213087D02*
X248683738Y-133213087D01*
X248969453Y-133213087D02*
X248969453Y-132213087D01*
X248874214Y-132355945D01*
X248778976Y-132451183D01*
X248683738Y-132498802D01*
X249588500Y-132213087D02*
X250255167Y-132213087D01*
X249826595Y-133213087D01*
G04 #@! TO.C,S18*
X223711357Y-137175468D02*
X223854214Y-137223087D01*
X224092310Y-137223087D01*
X224187548Y-137175468D01*
X224235167Y-137127849D01*
X224282786Y-137032611D01*
X224282786Y-136937373D01*
X224235167Y-136842135D01*
X224187548Y-136794516D01*
X224092310Y-136746897D01*
X223901833Y-136699278D01*
X223806595Y-136651659D01*
X223758976Y-136604040D01*
X223711357Y-136508802D01*
X223711357Y-136413564D01*
X223758976Y-136318326D01*
X223806595Y-136270707D01*
X223901833Y-136223087D01*
X224139929Y-136223087D01*
X224282786Y-136270707D01*
X225235167Y-137223087D02*
X224663738Y-137223087D01*
X224949453Y-137223087D02*
X224949453Y-136223087D01*
X224854214Y-136365945D01*
X224758976Y-136461183D01*
X224663738Y-136508802D01*
X225806595Y-136651659D02*
X225711357Y-136604040D01*
X225663738Y-136556421D01*
X225616119Y-136461183D01*
X225616119Y-136413564D01*
X225663738Y-136318326D01*
X225711357Y-136270707D01*
X225806595Y-136223087D01*
X225997072Y-136223087D01*
X226092310Y-136270707D01*
X226139929Y-136318326D01*
X226187548Y-136413564D01*
X226187548Y-136461183D01*
X226139929Y-136556421D01*
X226092310Y-136604040D01*
X225997072Y-136651659D01*
X225806595Y-136651659D01*
X225711357Y-136699278D01*
X225663738Y-136746897D01*
X225616119Y-136842135D01*
X225616119Y-137032611D01*
X225663738Y-137127849D01*
X225711357Y-137175468D01*
X225806595Y-137223087D01*
X225997072Y-137223087D01*
X226092310Y-137175468D01*
X226139929Y-137127849D01*
X226187548Y-137032611D01*
X226187548Y-136842135D01*
X226139929Y-136746897D01*
X226092310Y-136699278D01*
X225997072Y-136651659D01*
G04 #@! TO.C,S19*
X218591357Y-158135468D02*
X218734214Y-158183087D01*
X218972310Y-158183087D01*
X219067548Y-158135468D01*
X219115167Y-158087849D01*
X219162786Y-157992611D01*
X219162786Y-157897373D01*
X219115167Y-157802135D01*
X219067548Y-157754516D01*
X218972310Y-157706897D01*
X218781833Y-157659278D01*
X218686595Y-157611659D01*
X218638976Y-157564040D01*
X218591357Y-157468802D01*
X218591357Y-157373564D01*
X218638976Y-157278326D01*
X218686595Y-157230707D01*
X218781833Y-157183087D01*
X219019929Y-157183087D01*
X219162786Y-157230707D01*
X220115167Y-158183087D02*
X219543738Y-158183087D01*
X219829453Y-158183087D02*
X219829453Y-157183087D01*
X219734214Y-157325945D01*
X219638976Y-157421183D01*
X219543738Y-157468802D01*
X220591357Y-158183087D02*
X220781833Y-158183087D01*
X220877072Y-158135468D01*
X220924691Y-158087849D01*
X221019929Y-157944992D01*
X221067548Y-157754516D01*
X221067548Y-157373564D01*
X221019929Y-157278326D01*
X220972310Y-157230707D01*
X220877072Y-157183087D01*
X220686595Y-157183087D01*
X220591357Y-157230707D01*
X220543738Y-157278326D01*
X220496119Y-157373564D01*
X220496119Y-157611659D01*
X220543738Y-157706897D01*
X220591357Y-157754516D01*
X220686595Y-157802135D01*
X220877072Y-157802135D01*
X220972310Y-157754516D01*
X221019929Y-157706897D01*
X221067548Y-157611659D01*
G04 #@! TO.C,S20*
X242521357Y-155135468D02*
X242664214Y-155183087D01*
X242902310Y-155183087D01*
X242997548Y-155135468D01*
X243045167Y-155087849D01*
X243092786Y-154992611D01*
X243092786Y-154897373D01*
X243045167Y-154802135D01*
X242997548Y-154754516D01*
X242902310Y-154706897D01*
X242711833Y-154659278D01*
X242616595Y-154611659D01*
X242568976Y-154564040D01*
X242521357Y-154468802D01*
X242521357Y-154373564D01*
X242568976Y-154278326D01*
X242616595Y-154230707D01*
X242711833Y-154183087D01*
X242949929Y-154183087D01*
X243092786Y-154230707D01*
X243473738Y-154278326D02*
X243521357Y-154230707D01*
X243616595Y-154183087D01*
X243854691Y-154183087D01*
X243949929Y-154230707D01*
X243997548Y-154278326D01*
X244045167Y-154373564D01*
X244045167Y-154468802D01*
X243997548Y-154611659D01*
X243426119Y-155183087D01*
X244045167Y-155183087D01*
X244664214Y-154183087D02*
X244759453Y-154183087D01*
X244854691Y-154230707D01*
X244902310Y-154278326D01*
X244949929Y-154373564D01*
X244997548Y-154564040D01*
X244997548Y-154802135D01*
X244949929Y-154992611D01*
X244902310Y-155087849D01*
X244854691Y-155135468D01*
X244759453Y-155183087D01*
X244664214Y-155183087D01*
X244568976Y-155135468D01*
X244521357Y-155087849D01*
X244473738Y-154992611D01*
X244426119Y-154802135D01*
X244426119Y-154564040D01*
X244473738Y-154373564D01*
X244521357Y-154278326D01*
X244568976Y-154230707D01*
X244664214Y-154183087D01*
G04 #@! TO.C,S21*
X233961357Y-175795468D02*
X234104214Y-175843087D01*
X234342310Y-175843087D01*
X234437548Y-175795468D01*
X234485167Y-175747849D01*
X234532786Y-175652611D01*
X234532786Y-175557373D01*
X234485167Y-175462135D01*
X234437548Y-175414516D01*
X234342310Y-175366897D01*
X234151833Y-175319278D01*
X234056595Y-175271659D01*
X234008976Y-175224040D01*
X233961357Y-175128802D01*
X233961357Y-175033564D01*
X234008976Y-174938326D01*
X234056595Y-174890707D01*
X234151833Y-174843087D01*
X234389929Y-174843087D01*
X234532786Y-174890707D01*
X234913738Y-174938326D02*
X234961357Y-174890707D01*
X235056595Y-174843087D01*
X235294691Y-174843087D01*
X235389929Y-174890707D01*
X235437548Y-174938326D01*
X235485167Y-175033564D01*
X235485167Y-175128802D01*
X235437548Y-175271659D01*
X234866119Y-175843087D01*
X235485167Y-175843087D01*
X236437548Y-175843087D02*
X235866119Y-175843087D01*
X236151833Y-175843087D02*
X236151833Y-174843087D01*
X236056595Y-174985945D01*
X235961357Y-175081183D01*
X235866119Y-175128802D01*
G04 #@! TO.C,S22*
X230921357Y-196815468D02*
X231064214Y-196863087D01*
X231302310Y-196863087D01*
X231397548Y-196815468D01*
X231445167Y-196767849D01*
X231492786Y-196672611D01*
X231492786Y-196577373D01*
X231445167Y-196482135D01*
X231397548Y-196434516D01*
X231302310Y-196386897D01*
X231111833Y-196339278D01*
X231016595Y-196291659D01*
X230968976Y-196244040D01*
X230921357Y-196148802D01*
X230921357Y-196053564D01*
X230968976Y-195958326D01*
X231016595Y-195910707D01*
X231111833Y-195863087D01*
X231349929Y-195863087D01*
X231492786Y-195910707D01*
X231873738Y-195958326D02*
X231921357Y-195910707D01*
X232016595Y-195863087D01*
X232254691Y-195863087D01*
X232349929Y-195910707D01*
X232397548Y-195958326D01*
X232445167Y-196053564D01*
X232445167Y-196148802D01*
X232397548Y-196291659D01*
X231826119Y-196863087D01*
X232445167Y-196863087D01*
X232826119Y-195958326D02*
X232873738Y-195910707D01*
X232968976Y-195863087D01*
X233207072Y-195863087D01*
X233302310Y-195910707D01*
X233349929Y-195958326D01*
X233397548Y-196053564D01*
X233397548Y-196148802D01*
X233349929Y-196291659D01*
X232778500Y-196863087D01*
X233397548Y-196863087D01*
G04 #@! TO.C,S23*
X229731357Y-218085468D02*
X229874214Y-218133087D01*
X230112310Y-218133087D01*
X230207548Y-218085468D01*
X230255167Y-218037849D01*
X230302786Y-217942611D01*
X230302786Y-217847373D01*
X230255167Y-217752135D01*
X230207548Y-217704516D01*
X230112310Y-217656897D01*
X229921833Y-217609278D01*
X229826595Y-217561659D01*
X229778976Y-217514040D01*
X229731357Y-217418802D01*
X229731357Y-217323564D01*
X229778976Y-217228326D01*
X229826595Y-217180707D01*
X229921833Y-217133087D01*
X230159929Y-217133087D01*
X230302786Y-217180707D01*
X230683738Y-217228326D02*
X230731357Y-217180707D01*
X230826595Y-217133087D01*
X231064691Y-217133087D01*
X231159929Y-217180707D01*
X231207548Y-217228326D01*
X231255167Y-217323564D01*
X231255167Y-217418802D01*
X231207548Y-217561659D01*
X230636119Y-218133087D01*
X231255167Y-218133087D01*
X231588500Y-217133087D02*
X232207548Y-217133087D01*
X231874214Y-217514040D01*
X232017072Y-217514040D01*
X232112310Y-217561659D01*
X232159929Y-217609278D01*
X232207548Y-217704516D01*
X232207548Y-217942611D01*
X232159929Y-218037849D01*
X232112310Y-218085468D01*
X232017072Y-218133087D01*
X231731357Y-218133087D01*
X231636119Y-218085468D01*
X231588500Y-218037849D01*
G04 #@! TO.C,S24*
X192411357Y-238745468D02*
X192554214Y-238793087D01*
X192792310Y-238793087D01*
X192887548Y-238745468D01*
X192935167Y-238697849D01*
X192982786Y-238602611D01*
X192982786Y-238507373D01*
X192935167Y-238412135D01*
X192887548Y-238364516D01*
X192792310Y-238316897D01*
X192601833Y-238269278D01*
X192506595Y-238221659D01*
X192458976Y-238174040D01*
X192411357Y-238078802D01*
X192411357Y-237983564D01*
X192458976Y-237888326D01*
X192506595Y-237840707D01*
X192601833Y-237793087D01*
X192839929Y-237793087D01*
X192982786Y-237840707D01*
X193363738Y-237888326D02*
X193411357Y-237840707D01*
X193506595Y-237793087D01*
X193744691Y-237793087D01*
X193839929Y-237840707D01*
X193887548Y-237888326D01*
X193935167Y-237983564D01*
X193935167Y-238078802D01*
X193887548Y-238221659D01*
X193316119Y-238793087D01*
X193935167Y-238793087D01*
X194792310Y-238126421D02*
X194792310Y-238793087D01*
X194554214Y-237745468D02*
X194316119Y-238459754D01*
X194935167Y-238459754D01*
G04 #@! TO.C,S25*
X189281357Y-259715468D02*
X189424214Y-259763087D01*
X189662310Y-259763087D01*
X189757548Y-259715468D01*
X189805167Y-259667849D01*
X189852786Y-259572611D01*
X189852786Y-259477373D01*
X189805167Y-259382135D01*
X189757548Y-259334516D01*
X189662310Y-259286897D01*
X189471833Y-259239278D01*
X189376595Y-259191659D01*
X189328976Y-259144040D01*
X189281357Y-259048802D01*
X189281357Y-258953564D01*
X189328976Y-258858326D01*
X189376595Y-258810707D01*
X189471833Y-258763087D01*
X189709929Y-258763087D01*
X189852786Y-258810707D01*
X190233738Y-258858326D02*
X190281357Y-258810707D01*
X190376595Y-258763087D01*
X190614691Y-258763087D01*
X190709929Y-258810707D01*
X190757548Y-258858326D01*
X190805167Y-258953564D01*
X190805167Y-259048802D01*
X190757548Y-259191659D01*
X190186119Y-259763087D01*
X190805167Y-259763087D01*
X191709929Y-258763087D02*
X191233738Y-258763087D01*
X191186119Y-259239278D01*
X191233738Y-259191659D01*
X191328976Y-259144040D01*
X191567072Y-259144040D01*
X191662310Y-259191659D01*
X191709929Y-259239278D01*
X191757548Y-259334516D01*
X191757548Y-259572611D01*
X191709929Y-259667849D01*
X191662310Y-259715468D01*
X191567072Y-259763087D01*
X191328976Y-259763087D01*
X191233738Y-259715468D01*
X191186119Y-259667849D01*
G04 #@! TO.C,S26*
X199621357Y-278335468D02*
X199764214Y-278383087D01*
X200002310Y-278383087D01*
X200097548Y-278335468D01*
X200145167Y-278287849D01*
X200192786Y-278192611D01*
X200192786Y-278097373D01*
X200145167Y-278002135D01*
X200097548Y-277954516D01*
X200002310Y-277906897D01*
X199811833Y-277859278D01*
X199716595Y-277811659D01*
X199668976Y-277764040D01*
X199621357Y-277668802D01*
X199621357Y-277573564D01*
X199668976Y-277478326D01*
X199716595Y-277430707D01*
X199811833Y-277383087D01*
X200049929Y-277383087D01*
X200192786Y-277430707D01*
X200573738Y-277478326D02*
X200621357Y-277430707D01*
X200716595Y-277383087D01*
X200954691Y-277383087D01*
X201049929Y-277430707D01*
X201097548Y-277478326D01*
X201145167Y-277573564D01*
X201145167Y-277668802D01*
X201097548Y-277811659D01*
X200526119Y-278383087D01*
X201145167Y-278383087D01*
X202002310Y-277383087D02*
X201811833Y-277383087D01*
X201716595Y-277430707D01*
X201668976Y-277478326D01*
X201573738Y-277621183D01*
X201526119Y-277811659D01*
X201526119Y-278192611D01*
X201573738Y-278287849D01*
X201621357Y-278335468D01*
X201716595Y-278383087D01*
X201907072Y-278383087D01*
X202002310Y-278335468D01*
X202049929Y-278287849D01*
X202097548Y-278192611D01*
X202097548Y-277954516D01*
X202049929Y-277859278D01*
X202002310Y-277811659D01*
X201907072Y-277764040D01*
X201716595Y-277764040D01*
X201621357Y-277811659D01*
X201573738Y-277859278D01*
X201526119Y-277954516D01*
G04 #@! TO.C,S27*
X221861357Y-278415468D02*
X222004214Y-278463087D01*
X222242310Y-278463087D01*
X222337548Y-278415468D01*
X222385167Y-278367849D01*
X222432786Y-278272611D01*
X222432786Y-278177373D01*
X222385167Y-278082135D01*
X222337548Y-278034516D01*
X222242310Y-277986897D01*
X222051833Y-277939278D01*
X221956595Y-277891659D01*
X221908976Y-277844040D01*
X221861357Y-277748802D01*
X221861357Y-277653564D01*
X221908976Y-277558326D01*
X221956595Y-277510707D01*
X222051833Y-277463087D01*
X222289929Y-277463087D01*
X222432786Y-277510707D01*
X222813738Y-277558326D02*
X222861357Y-277510707D01*
X222956595Y-277463087D01*
X223194691Y-277463087D01*
X223289929Y-277510707D01*
X223337548Y-277558326D01*
X223385167Y-277653564D01*
X223385167Y-277748802D01*
X223337548Y-277891659D01*
X222766119Y-278463087D01*
X223385167Y-278463087D01*
X223718500Y-277463087D02*
X224385167Y-277463087D01*
X223956595Y-278463087D01*
G04 #@! TO.C,S28*
X232891357Y-260545468D02*
X233034214Y-260593087D01*
X233272310Y-260593087D01*
X233367548Y-260545468D01*
X233415167Y-260497849D01*
X233462786Y-260402611D01*
X233462786Y-260307373D01*
X233415167Y-260212135D01*
X233367548Y-260164516D01*
X233272310Y-260116897D01*
X233081833Y-260069278D01*
X232986595Y-260021659D01*
X232938976Y-259974040D01*
X232891357Y-259878802D01*
X232891357Y-259783564D01*
X232938976Y-259688326D01*
X232986595Y-259640707D01*
X233081833Y-259593087D01*
X233319929Y-259593087D01*
X233462786Y-259640707D01*
X233843738Y-259688326D02*
X233891357Y-259640707D01*
X233986595Y-259593087D01*
X234224691Y-259593087D01*
X234319929Y-259640707D01*
X234367548Y-259688326D01*
X234415167Y-259783564D01*
X234415167Y-259878802D01*
X234367548Y-260021659D01*
X233796119Y-260593087D01*
X234415167Y-260593087D01*
X234986595Y-260021659D02*
X234891357Y-259974040D01*
X234843738Y-259926421D01*
X234796119Y-259831183D01*
X234796119Y-259783564D01*
X234843738Y-259688326D01*
X234891357Y-259640707D01*
X234986595Y-259593087D01*
X235177072Y-259593087D01*
X235272310Y-259640707D01*
X235319929Y-259688326D01*
X235367548Y-259783564D01*
X235367548Y-259831183D01*
X235319929Y-259926421D01*
X235272310Y-259974040D01*
X235177072Y-260021659D01*
X234986595Y-260021659D01*
X234891357Y-260069278D01*
X234843738Y-260116897D01*
X234796119Y-260212135D01*
X234796119Y-260402611D01*
X234843738Y-260497849D01*
X234891357Y-260545468D01*
X234986595Y-260593087D01*
X235177072Y-260593087D01*
X235272310Y-260545468D01*
X235319929Y-260497849D01*
X235367548Y-260402611D01*
X235367548Y-260212135D01*
X235319929Y-260116897D01*
X235272310Y-260069278D01*
X235177072Y-260021659D01*
G04 #@! TO.C,S29*
X211231357Y-255365468D02*
X211374214Y-255413087D01*
X211612310Y-255413087D01*
X211707548Y-255365468D01*
X211755167Y-255317849D01*
X211802786Y-255222611D01*
X211802786Y-255127373D01*
X211755167Y-255032135D01*
X211707548Y-254984516D01*
X211612310Y-254936897D01*
X211421833Y-254889278D01*
X211326595Y-254841659D01*
X211278976Y-254794040D01*
X211231357Y-254698802D01*
X211231357Y-254603564D01*
X211278976Y-254508326D01*
X211326595Y-254460707D01*
X211421833Y-254413087D01*
X211659929Y-254413087D01*
X211802786Y-254460707D01*
X212183738Y-254508326D02*
X212231357Y-254460707D01*
X212326595Y-254413087D01*
X212564691Y-254413087D01*
X212659929Y-254460707D01*
X212707548Y-254508326D01*
X212755167Y-254603564D01*
X212755167Y-254698802D01*
X212707548Y-254841659D01*
X212136119Y-255413087D01*
X212755167Y-255413087D01*
X213231357Y-255413087D02*
X213421833Y-255413087D01*
X213517072Y-255365468D01*
X213564691Y-255317849D01*
X213659929Y-255174992D01*
X213707548Y-254984516D01*
X213707548Y-254603564D01*
X213659929Y-254508326D01*
X213612310Y-254460707D01*
X213517072Y-254413087D01*
X213326595Y-254413087D01*
X213231357Y-254460707D01*
X213183738Y-254508326D01*
X213136119Y-254603564D01*
X213136119Y-254841659D01*
X213183738Y-254936897D01*
X213231357Y-254984516D01*
X213326595Y-255032135D01*
X213517072Y-255032135D01*
X213612310Y-254984516D01*
X213659929Y-254936897D01*
X213707548Y-254841659D01*
G04 #@! TO.C,S30*
X232301357Y-239385468D02*
X232444214Y-239433087D01*
X232682310Y-239433087D01*
X232777548Y-239385468D01*
X232825167Y-239337849D01*
X232872786Y-239242611D01*
X232872786Y-239147373D01*
X232825167Y-239052135D01*
X232777548Y-239004516D01*
X232682310Y-238956897D01*
X232491833Y-238909278D01*
X232396595Y-238861659D01*
X232348976Y-238814040D01*
X232301357Y-238718802D01*
X232301357Y-238623564D01*
X232348976Y-238528326D01*
X232396595Y-238480707D01*
X232491833Y-238433087D01*
X232729929Y-238433087D01*
X232872786Y-238480707D01*
X233206119Y-238433087D02*
X233825167Y-238433087D01*
X233491833Y-238814040D01*
X233634691Y-238814040D01*
X233729929Y-238861659D01*
X233777548Y-238909278D01*
X233825167Y-239004516D01*
X233825167Y-239242611D01*
X233777548Y-239337849D01*
X233729929Y-239385468D01*
X233634691Y-239433087D01*
X233348976Y-239433087D01*
X233253738Y-239385468D01*
X233206119Y-239337849D01*
X234444214Y-238433087D02*
X234539453Y-238433087D01*
X234634691Y-238480707D01*
X234682310Y-238528326D01*
X234729929Y-238623564D01*
X234777548Y-238814040D01*
X234777548Y-239052135D01*
X234729929Y-239242611D01*
X234682310Y-239337849D01*
X234634691Y-239385468D01*
X234539453Y-239433087D01*
X234444214Y-239433087D01*
X234348976Y-239385468D01*
X234301357Y-239337849D01*
X234253738Y-239242611D01*
X234206119Y-239052135D01*
X234206119Y-238814040D01*
X234253738Y-238623564D01*
X234301357Y-238528326D01*
X234348976Y-238480707D01*
X234444214Y-238433087D01*
G04 #@! TO.C,S31*
X212621357Y-231795468D02*
X212764214Y-231843087D01*
X213002310Y-231843087D01*
X213097548Y-231795468D01*
X213145167Y-231747849D01*
X213192786Y-231652611D01*
X213192786Y-231557373D01*
X213145167Y-231462135D01*
X213097548Y-231414516D01*
X213002310Y-231366897D01*
X212811833Y-231319278D01*
X212716595Y-231271659D01*
X212668976Y-231224040D01*
X212621357Y-231128802D01*
X212621357Y-231033564D01*
X212668976Y-230938326D01*
X212716595Y-230890707D01*
X212811833Y-230843087D01*
X213049929Y-230843087D01*
X213192786Y-230890707D01*
X213526119Y-230843087D02*
X214145167Y-230843087D01*
X213811833Y-231224040D01*
X213954691Y-231224040D01*
X214049929Y-231271659D01*
X214097548Y-231319278D01*
X214145167Y-231414516D01*
X214145167Y-231652611D01*
X214097548Y-231747849D01*
X214049929Y-231795468D01*
X213954691Y-231843087D01*
X213668976Y-231843087D01*
X213573738Y-231795468D01*
X213526119Y-231747849D01*
X215097548Y-231843087D02*
X214526119Y-231843087D01*
X214811833Y-231843087D02*
X214811833Y-230843087D01*
X214716595Y-230985945D01*
X214621357Y-231081183D01*
X214526119Y-231128802D01*
G04 #@! TO.C,J2*
X186643951Y-190644969D02*
X186594125Y-191357515D01*
X186536657Y-191496702D01*
X186435007Y-191585065D01*
X186289176Y-191622603D01*
X186194170Y-191615959D01*
X187064835Y-190769871D02*
X187115660Y-190725690D01*
X187213988Y-190684830D01*
X187451503Y-190701439D01*
X187543187Y-190755585D01*
X187587369Y-190806410D01*
X187628228Y-190904738D01*
X187621585Y-190999744D01*
X187564116Y-191138931D01*
X186954219Y-191669107D01*
X187571759Y-191712290D01*
G04 #@! TO.C,L1*
X188393981Y-156044371D02*
X187981588Y-156282466D01*
X187481588Y-155416441D01*
X189136289Y-155615800D02*
X188641417Y-155901514D01*
X188888853Y-155758657D02*
X188388853Y-154892632D01*
X188377803Y-155063969D01*
X188342943Y-155194066D01*
X188284274Y-155282925D01*
G04 #@! TO.C,L2*
X193243981Y-149622255D02*
X192831588Y-149860350D01*
X192331588Y-148994325D01*
X193039036Y-148695851D02*
X193056466Y-148630802D01*
X193115135Y-148541944D01*
X193321332Y-148422896D01*
X193427620Y-148416517D01*
X193492669Y-148433947D01*
X193581527Y-148492616D01*
X193629146Y-148575094D01*
X193659335Y-148722622D01*
X193450178Y-149503208D01*
X193986289Y-149193684D01*
G04 #@! TO.C,J1*
X195905234Y-204548351D02*
X196619084Y-204573279D01*
X196760193Y-204625855D01*
X196852049Y-204724359D01*
X196894653Y-204868791D01*
X196891330Y-204963971D01*
X196939524Y-203583860D02*
X196919582Y-204154940D01*
X196929553Y-203869400D02*
X195930162Y-203834501D01*
X196069608Y-203934666D01*
X196161465Y-204033170D01*
X196205731Y-204130012D01*
G04 #@! TD*
M02*
