G04 #@! TF.GenerationSoftware,KiCad,Pcbnew,(5.0.0)*
G04 #@! TF.CreationDate,2020-01-29T13:38:43+01:00*
G04 #@! TF.ProjectId,Insole_PCB,496E736F6C655F5043422E6B69636164,rev?*
G04 #@! TF.SameCoordinates,Original*
G04 #@! TF.FileFunction,Profile,NP*
%FSLAX46Y46*%
G04 Gerber Fmt 4.6, Leading zero omitted, Abs format (unit mm)*
G04 Created by KiCad (PCBNEW (5.0.0)) date 01/29/20 13:38:43*
%MOMM*%
%LPD*%
G01*
G04 APERTURE LIST*
%ADD10C,0.100000*%
G04 APERTURE END LIST*
D10*
X184159453Y-208710707D02*
X183657629Y-212343331D01*
X181659912Y-226857760D02*
X180980396Y-230456527D01*
X183250645Y-215984232D02*
X182787233Y-219618807D01*
X175129739Y-146271675D02*
X177672745Y-151141110D01*
X184667678Y-175407847D02*
X185095222Y-182049579D01*
X185095222Y-182049579D02*
X185135802Y-188733725D01*
X183745156Y-168842702D02*
X184667678Y-175407847D01*
X182787233Y-219618807D02*
X182259589Y-223244252D01*
X182259589Y-223244252D02*
X181659912Y-226857760D01*
X185135802Y-188733725D02*
X184899453Y-195430707D01*
X180980396Y-230456527D02*
X180213239Y-234037748D01*
X180213239Y-234037748D02*
X179350643Y-237598638D01*
X179983096Y-156078873D02*
X182219635Y-162388320D01*
X183657629Y-212343331D02*
X183250645Y-215984232D01*
X177672745Y-151141110D02*
X179983096Y-156078873D01*
X182219635Y-162388320D02*
X183745156Y-168842702D01*
X249764415Y-125817999D02*
X249735965Y-120993289D01*
X176515686Y-46628127D02*
X173984628Y-48388537D01*
X170191524Y-53240777D02*
X168833514Y-56116747D01*
X248030291Y-144971040D02*
X248848068Y-140218003D01*
X163666444Y-109392229D02*
X163734114Y-115709571D01*
X184002062Y-44680597D02*
X179533721Y-45455417D01*
X231182875Y-68125262D02*
X228104988Y-64496538D01*
X237110864Y-75566275D02*
X234177809Y-71824235D01*
X238794229Y-179933407D02*
X239468873Y-175444401D01*
X165416444Y-71506072D02*
X164723235Y-77789237D01*
X168833514Y-56116747D02*
X167770557Y-59148722D01*
X249214732Y-102867686D02*
X248740808Y-99233699D01*
X164229278Y-84092631D02*
X163905596Y-90410439D01*
X167770557Y-59148722D02*
X166954672Y-62228763D01*
X171892568Y-50628727D02*
X170191524Y-53240777D01*
X246936409Y-92156271D02*
X245613199Y-88752873D01*
X249735965Y-120993289D02*
X249629775Y-116167350D01*
X197746076Y-44568667D02*
X193170382Y-44193147D01*
X221616050Y-57558557D02*
X218162848Y-54303667D01*
X238055763Y-185779231D02*
X238794229Y-179933407D01*
X202233267Y-45415817D02*
X197746076Y-44568667D01*
X234177809Y-71824235D02*
X231182875Y-68125262D01*
X166954672Y-62228763D02*
X166337878Y-65248948D01*
X210693567Y-48701277D02*
X206569811Y-46778647D01*
X246865630Y-149339633D02*
X248030291Y-144971040D01*
X240414824Y-171022744D02*
X241564981Y-166651718D01*
X242142920Y-82316817D02*
X240003117Y-79324201D01*
X244014159Y-85466382D02*
X242142920Y-82316817D01*
X249629775Y-116167350D02*
X249499377Y-111346860D01*
X239468873Y-175444401D02*
X240414824Y-171022744D01*
X237326723Y-191628686D02*
X238055763Y-185779231D01*
X163723214Y-96736851D02*
X163653154Y-103066052D01*
X172510296Y-141420919D02*
X175129739Y-146271675D01*
X167666965Y-131576843D02*
X169970632Y-136539192D01*
X163653154Y-103066052D02*
X163666444Y-109392229D01*
X164723235Y-77789237D02*
X164229278Y-84092631D01*
X218162848Y-54303667D02*
X214542390Y-51227757D01*
X224923071Y-60965243D02*
X221616050Y-57558557D01*
X166337878Y-65248948D02*
X165416444Y-71506072D01*
X245613199Y-88752873D02*
X244014159Y-85466382D01*
X163905596Y-90410439D02*
X163723214Y-96736851D01*
X179533721Y-45455417D02*
X176515686Y-46628127D01*
X248740808Y-99233699D02*
X247980156Y-95656553D01*
X248848068Y-140218003D02*
X249373996Y-135437033D01*
X206569811Y-46778647D02*
X202233267Y-45415817D01*
X241564981Y-166651718D02*
X242852241Y-162314609D01*
X214542390Y-51227757D02*
X210693567Y-48701277D01*
X228104988Y-64496538D02*
X224923071Y-60965243D01*
X240003117Y-79324201D02*
X237110864Y-75566275D01*
X247980156Y-95656553D02*
X246936409Y-92156271D01*
X249499377Y-111346860D02*
X249398297Y-106538494D01*
X193170382Y-44193147D02*
X188568330Y-44245147D01*
X242852241Y-162314609D02*
X244209504Y-157994702D01*
X244209504Y-157994702D02*
X245569667Y-153675282D01*
X245569667Y-153675282D02*
X246865630Y-149339633D01*
X164392489Y-121211683D02*
X165755512Y-126484223D01*
X173984628Y-48388537D02*
X171892568Y-50628727D01*
X249373996Y-135437033D02*
X249661602Y-130634806D01*
X249661602Y-130634806D02*
X249764415Y-125817999D01*
X169970632Y-136539192D02*
X172510296Y-141420919D01*
X249398297Y-106538494D02*
X249214732Y-102867686D01*
X165755512Y-126484223D02*
X167666965Y-131576843D01*
X163734114Y-115709571D02*
X164392489Y-121211683D01*
X188568330Y-44245147D02*
X184002062Y-44680597D01*
X235352485Y-209204381D02*
X235959453Y-203340707D01*
X233909058Y-230295164D02*
X234025838Y-226832713D01*
X203295442Y-272755737D02*
X208666948Y-272849437D01*
X234614198Y-240738261D02*
X234334590Y-237258107D01*
X234763232Y-244203978D02*
X234614198Y-240738261D01*
X178444957Y-242888467D02*
X178640233Y-248201542D01*
X181981946Y-258252169D02*
X184952522Y-262667087D01*
X234650339Y-247645089D02*
X234763232Y-244203978D01*
X213951996Y-271899177D02*
X218980101Y-269988497D01*
X234817472Y-215073904D02*
X235352485Y-209204381D01*
X234025838Y-226832713D02*
X234370046Y-220949830D01*
X198007965Y-271534487D02*
X203295442Y-272755737D01*
X179350643Y-237598638D02*
X178444957Y-242888467D01*
X234055759Y-233773685D02*
X233909058Y-230295164D01*
X233113365Y-254412816D02*
X234144167Y-251051425D01*
X193053462Y-269469567D02*
X198007965Y-271534487D01*
X188672338Y-266459997D02*
X193053462Y-269469567D01*
X179848539Y-253376548D02*
X181981946Y-258252169D01*
X234370046Y-220949830D02*
X234817472Y-215073904D01*
X234334590Y-237258107D02*
X234055759Y-233773685D01*
X234144167Y-251051425D02*
X234650339Y-247645089D01*
X230817895Y-259329567D02*
X233113365Y-254412816D01*
X223580777Y-267200967D02*
X227583537Y-263620137D01*
X218980101Y-269988497D02*
X223580777Y-267200967D01*
X208666948Y-272849437D02*
X213951996Y-271899177D01*
X178640233Y-248201542D02*
X179848539Y-253376548D01*
X184952522Y-262667087D02*
X188672338Y-266459997D01*
X227583537Y-263620137D02*
X230817895Y-259329567D01*
X236622743Y-197482327D02*
X237326723Y-191628686D01*
X235959453Y-203340707D02*
X236622743Y-197482327D01*
X189899453Y-207540707D02*
X190149453Y-200410707D01*
X189899452Y-207539361D02*
G75*
G02X189453259Y-207900707I-401061J39080D01*
G01*
X184709453Y-207730707D02*
X189459453Y-207900707D01*
X189869269Y-200112814D02*
G75*
G02X190149453Y-200400707I-26761J-306331D01*
G01*
X184358954Y-208026623D02*
G75*
G02X184709453Y-207730707I320499J-24084D01*
G01*
X185005369Y-199940706D02*
G75*
G02X184709453Y-199590207I24084J320499D01*
G01*
X184359453Y-208030707D02*
X184159453Y-208710707D01*
X185009453Y-199940707D02*
X189869453Y-200110707D01*
X184899453Y-195420707D02*
X184709453Y-199580707D01*
M02*
