G04 #@! TF.GenerationSoftware,KiCad,Pcbnew,(5.0.0)*
G04 #@! TF.CreationDate,2020-01-29T13:38:43+01:00*
G04 #@! TF.ProjectId,Insole_PCB,496E736F6C655F5043422E6B69636164,rev?*
G04 #@! TF.SameCoordinates,Original*
G04 #@! TF.FileFunction,Legend,Top*
G04 #@! TF.FilePolarity,Positive*
%FSLAX46Y46*%
G04 Gerber Fmt 4.6, Leading zero omitted, Abs format (unit mm)*
G04 Created by KiCad (PCBNEW (5.0.0)) date 01/29/20 13:38:43*
%MOMM*%
%LPD*%
G01*
G04 APERTURE LIST*
%ADD10C,0.100000*%
%ADD11C,0.120000*%
%ADD12C,0.010000*%
%ADD13C,0.150000*%
G04 APERTURE END LIST*
D10*
G04 #@! TO.C,S9*
X224299453Y-64910707D02*
G75*
G03X224299453Y-64910707I-8500000J0D01*
G01*
D11*
G04 #@! TO.C,J2*
X187504977Y-193592519D02*
X186811670Y-193544038D01*
X187552760Y-192909188D02*
X187504977Y-193592519D01*
X186300442Y-192134944D02*
X186213929Y-192128895D01*
X187600543Y-192225856D02*
X187514030Y-192219807D01*
X186213929Y-192128895D02*
X186274966Y-191256026D01*
X187600543Y-192225856D02*
X187661580Y-191352988D01*
X186574741Y-191276989D02*
X186274966Y-191256026D01*
X187661580Y-191352988D02*
X187361805Y-191332026D01*
D12*
G04 #@! TO.C,J1*
X191037937Y-200592742D02*
X193186628Y-200667776D01*
X190747161Y-207486794D02*
X192945821Y-207563573D01*
X191420560Y-208260767D02*
X191746871Y-198916462D01*
D11*
X186213577Y-199773875D02*
X189441609Y-199886601D01*
X190328814Y-201128320D02*
X190291123Y-202207662D01*
X190144672Y-206114932D02*
X190106980Y-207194274D01*
X185927401Y-207968880D02*
X189155433Y-208081606D01*
X190291123Y-202207662D02*
X190720861Y-202222669D01*
D10*
G04 #@! TO.C,S0*
X191029453Y-122750707D02*
G75*
G03X191029453Y-122750707I-8500000J0D01*
G01*
G04 #@! TO.C,S1*
X184739453Y-105710707D02*
G75*
G03X184739453Y-105710707I-8500000J0D01*
G01*
G04 #@! TO.C,S2*
X181769453Y-86950707D02*
G75*
G03X181769453Y-86950707I-8500000J0D01*
G01*
G04 #@! TO.C,S3*
X183169453Y-69180707D02*
G75*
G03X183169453Y-69180707I-8500000J0D01*
G01*
G04 #@! TO.C,S4*
X191399453Y-54040707D02*
G75*
G03X191399453Y-54040707I-8500000J0D01*
G01*
G04 #@! TO.C,S5*
X200509453Y-69510707D02*
G75*
G03X200509453Y-69510707I-8500000J0D01*
G01*
G04 #@! TO.C,S6*
X199199453Y-88720707D02*
G75*
G03X199199453Y-88720707I-8500000J0D01*
G01*
G04 #@! TO.C,S7*
X207369453Y-105170707D02*
G75*
G03X207369453Y-105170707I-8500000J0D01*
G01*
G04 #@! TO.C,S8*
X209459453Y-54780707D02*
G75*
G03X209459453Y-54780707I-8500000J0D01*
G01*
G04 #@! TO.C,S10*
X214819453Y-79930707D02*
G75*
G03X214819453Y-79930707I-8500000J0D01*
G01*
G04 #@! TO.C,S11*
X236489453Y-78730707D02*
G75*
G03X236489453Y-78730707I-8500000J0D01*
G01*
G04 #@! TO.C,S12*
X224799453Y-94130707D02*
G75*
G03X224799453Y-94130707I-8500000J0D01*
G01*
G04 #@! TO.C,S13*
X246649453Y-95580707D02*
G75*
G03X246649453Y-95580707I-8500000J0D01*
G01*
G04 #@! TO.C,S14*
X211549453Y-122840707D02*
G75*
G03X211549453Y-122840707I-8500000J0D01*
G01*
G04 #@! TO.C,S15*
X230109453Y-111010707D02*
G75*
G03X230109453Y-111010707I-8500000J0D01*
G01*
G04 #@! TO.C,S16*
X248429453Y-114210707D02*
G75*
G03X248429453Y-114210707I-8500000J0D01*
G01*
G04 #@! TO.C,S17*
X247619453Y-133290707D02*
G75*
G03X247619453Y-133290707I-8500000J0D01*
G01*
G04 #@! TO.C,S18*
X229489453Y-129730707D02*
G75*
G03X229489453Y-129730707I-8500000J0D01*
G01*
G04 #@! TO.C,S19*
X227289453Y-147930707D02*
G75*
G03X227289453Y-147930707I-8500000J0D01*
G01*
G04 #@! TO.C,S20*
X244589453Y-152410707D02*
G75*
G03X244589453Y-152410707I-8500000J0D01*
G01*
G04 #@! TO.C,S21*
X238879453Y-171260707D02*
G75*
G03X238879453Y-171260707I-8500000J0D01*
G01*
G04 #@! TO.C,S22*
X235709453Y-190720707D02*
G75*
G03X235709453Y-190720707I-8500000J0D01*
G01*
G04 #@! TO.C,S23*
X234659453Y-209740707D02*
G75*
G03X234659453Y-209740707I-8500000J0D01*
G01*
G04 #@! TO.C,S24*
X199299453Y-228710707D02*
G75*
G03X199299453Y-228710707I-8500000J0D01*
G01*
G04 #@! TO.C,S25*
X196899453Y-246240707D02*
G75*
G03X196899453Y-246240707I-8500000J0D01*
G01*
G04 #@! TO.C,S26*
X206889453Y-262070707D02*
G75*
G03X206889453Y-262070707I-8500000J0D01*
G01*
G04 #@! TO.C,S27*
X224309453Y-261380707D02*
G75*
G03X224309453Y-261380707I-8500000J0D01*
G01*
G04 #@! TO.C,S28*
X233899453Y-246310707D02*
G75*
G03X233899453Y-246310707I-8500000J0D01*
G01*
G04 #@! TO.C,S29*
X215189453Y-244830707D02*
G75*
G03X215189453Y-244830707I-8500000J0D01*
G01*
G04 #@! TO.C,S30*
X233429453Y-228470707D02*
G75*
G03X233429453Y-228470707I-8500000J0D01*
G01*
G04 #@! TO.C,S31*
X216309453Y-223690707D02*
G75*
G03X216309453Y-223690707I-8500000J0D01*
G01*
G04 #@! TO.C,S9*
D13*
X215537548Y-74615468D02*
X215680405Y-74663087D01*
X215918500Y-74663087D01*
X216013738Y-74615468D01*
X216061357Y-74567849D01*
X216108976Y-74472611D01*
X216108976Y-74377373D01*
X216061357Y-74282135D01*
X216013738Y-74234516D01*
X215918500Y-74186897D01*
X215728024Y-74139278D01*
X215632786Y-74091659D01*
X215585167Y-74044040D01*
X215537548Y-73948802D01*
X215537548Y-73853564D01*
X215585167Y-73758326D01*
X215632786Y-73710707D01*
X215728024Y-73663087D01*
X215966119Y-73663087D01*
X216108976Y-73710707D01*
X216585167Y-74663087D02*
X216775643Y-74663087D01*
X216870881Y-74615468D01*
X216918500Y-74567849D01*
X217013738Y-74424992D01*
X217061357Y-74234516D01*
X217061357Y-73853564D01*
X217013738Y-73758326D01*
X216966119Y-73710707D01*
X216870881Y-73663087D01*
X216680405Y-73663087D01*
X216585167Y-73710707D01*
X216537548Y-73758326D01*
X216489929Y-73853564D01*
X216489929Y-74091659D01*
X216537548Y-74186897D01*
X216585167Y-74234516D01*
X216680405Y-74282135D01*
X216870881Y-74282135D01*
X216966119Y-74234516D01*
X217013738Y-74186897D01*
X217061357Y-74091659D01*
G04 #@! TO.C,J2*
X186456311Y-193847369D02*
X186406485Y-194559915D01*
X186349017Y-194699102D01*
X186247367Y-194787465D01*
X186101536Y-194825003D01*
X186006530Y-194818359D01*
X186877195Y-193972271D02*
X186928020Y-193928090D01*
X187026348Y-193887230D01*
X187263863Y-193903839D01*
X187355547Y-193957985D01*
X187399729Y-194008810D01*
X187440588Y-194107138D01*
X187433945Y-194202144D01*
X187376476Y-194341331D01*
X186766579Y-194871507D01*
X187384119Y-194914690D01*
G04 #@! TO.C,J1*
X195905234Y-204548351D02*
X196619084Y-204573279D01*
X196760193Y-204625855D01*
X196852049Y-204724359D01*
X196894653Y-204868791D01*
X196891330Y-204963971D01*
X196939524Y-203583860D02*
X196919582Y-204154940D01*
X196929553Y-203869400D02*
X195930162Y-203834501D01*
X196069608Y-203934666D01*
X196161465Y-204033170D01*
X196205731Y-204130012D01*
G04 #@! TO.C,S0*
X182267548Y-132455468D02*
X182410405Y-132503087D01*
X182648500Y-132503087D01*
X182743738Y-132455468D01*
X182791357Y-132407849D01*
X182838976Y-132312611D01*
X182838976Y-132217373D01*
X182791357Y-132122135D01*
X182743738Y-132074516D01*
X182648500Y-132026897D01*
X182458024Y-131979278D01*
X182362786Y-131931659D01*
X182315167Y-131884040D01*
X182267548Y-131788802D01*
X182267548Y-131693564D01*
X182315167Y-131598326D01*
X182362786Y-131550707D01*
X182458024Y-131503087D01*
X182696119Y-131503087D01*
X182838976Y-131550707D01*
X183458024Y-131503087D02*
X183553262Y-131503087D01*
X183648500Y-131550707D01*
X183696119Y-131598326D01*
X183743738Y-131693564D01*
X183791357Y-131884040D01*
X183791357Y-132122135D01*
X183743738Y-132312611D01*
X183696119Y-132407849D01*
X183648500Y-132455468D01*
X183553262Y-132503087D01*
X183458024Y-132503087D01*
X183362786Y-132455468D01*
X183315167Y-132407849D01*
X183267548Y-132312611D01*
X183219929Y-132122135D01*
X183219929Y-131884040D01*
X183267548Y-131693564D01*
X183315167Y-131598326D01*
X183362786Y-131550707D01*
X183458024Y-131503087D01*
G04 #@! TO.C,S1*
X175977548Y-115415468D02*
X176120405Y-115463087D01*
X176358500Y-115463087D01*
X176453738Y-115415468D01*
X176501357Y-115367849D01*
X176548976Y-115272611D01*
X176548976Y-115177373D01*
X176501357Y-115082135D01*
X176453738Y-115034516D01*
X176358500Y-114986897D01*
X176168024Y-114939278D01*
X176072786Y-114891659D01*
X176025167Y-114844040D01*
X175977548Y-114748802D01*
X175977548Y-114653564D01*
X176025167Y-114558326D01*
X176072786Y-114510707D01*
X176168024Y-114463087D01*
X176406119Y-114463087D01*
X176548976Y-114510707D01*
X177501357Y-115463087D02*
X176929929Y-115463087D01*
X177215643Y-115463087D02*
X177215643Y-114463087D01*
X177120405Y-114605945D01*
X177025167Y-114701183D01*
X176929929Y-114748802D01*
G04 #@! TO.C,S2*
X173007548Y-96655468D02*
X173150405Y-96703087D01*
X173388500Y-96703087D01*
X173483738Y-96655468D01*
X173531357Y-96607849D01*
X173578976Y-96512611D01*
X173578976Y-96417373D01*
X173531357Y-96322135D01*
X173483738Y-96274516D01*
X173388500Y-96226897D01*
X173198024Y-96179278D01*
X173102786Y-96131659D01*
X173055167Y-96084040D01*
X173007548Y-95988802D01*
X173007548Y-95893564D01*
X173055167Y-95798326D01*
X173102786Y-95750707D01*
X173198024Y-95703087D01*
X173436119Y-95703087D01*
X173578976Y-95750707D01*
X173959929Y-95798326D02*
X174007548Y-95750707D01*
X174102786Y-95703087D01*
X174340881Y-95703087D01*
X174436119Y-95750707D01*
X174483738Y-95798326D01*
X174531357Y-95893564D01*
X174531357Y-95988802D01*
X174483738Y-96131659D01*
X173912310Y-96703087D01*
X174531357Y-96703087D01*
G04 #@! TO.C,S3*
X173847548Y-77285468D02*
X173990405Y-77333087D01*
X174228500Y-77333087D01*
X174323738Y-77285468D01*
X174371357Y-77237849D01*
X174418976Y-77142611D01*
X174418976Y-77047373D01*
X174371357Y-76952135D01*
X174323738Y-76904516D01*
X174228500Y-76856897D01*
X174038024Y-76809278D01*
X173942786Y-76761659D01*
X173895167Y-76714040D01*
X173847548Y-76618802D01*
X173847548Y-76523564D01*
X173895167Y-76428326D01*
X173942786Y-76380707D01*
X174038024Y-76333087D01*
X174276119Y-76333087D01*
X174418976Y-76380707D01*
X174752310Y-76333087D02*
X175371357Y-76333087D01*
X175038024Y-76714040D01*
X175180881Y-76714040D01*
X175276119Y-76761659D01*
X175323738Y-76809278D01*
X175371357Y-76904516D01*
X175371357Y-77142611D01*
X175323738Y-77237849D01*
X175276119Y-77285468D01*
X175180881Y-77333087D01*
X174895167Y-77333087D01*
X174799929Y-77285468D01*
X174752310Y-77237849D01*
G04 #@! TO.C,S4*
X182637548Y-63745468D02*
X182780405Y-63793087D01*
X183018500Y-63793087D01*
X183113738Y-63745468D01*
X183161357Y-63697849D01*
X183208976Y-63602611D01*
X183208976Y-63507373D01*
X183161357Y-63412135D01*
X183113738Y-63364516D01*
X183018500Y-63316897D01*
X182828024Y-63269278D01*
X182732786Y-63221659D01*
X182685167Y-63174040D01*
X182637548Y-63078802D01*
X182637548Y-62983564D01*
X182685167Y-62888326D01*
X182732786Y-62840707D01*
X182828024Y-62793087D01*
X183066119Y-62793087D01*
X183208976Y-62840707D01*
X184066119Y-63126421D02*
X184066119Y-63793087D01*
X183828024Y-62745468D02*
X183589929Y-63459754D01*
X184208976Y-63459754D01*
G04 #@! TO.C,S5*
X191747548Y-79215468D02*
X191890405Y-79263087D01*
X192128500Y-79263087D01*
X192223738Y-79215468D01*
X192271357Y-79167849D01*
X192318976Y-79072611D01*
X192318976Y-78977373D01*
X192271357Y-78882135D01*
X192223738Y-78834516D01*
X192128500Y-78786897D01*
X191938024Y-78739278D01*
X191842786Y-78691659D01*
X191795167Y-78644040D01*
X191747548Y-78548802D01*
X191747548Y-78453564D01*
X191795167Y-78358326D01*
X191842786Y-78310707D01*
X191938024Y-78263087D01*
X192176119Y-78263087D01*
X192318976Y-78310707D01*
X193223738Y-78263087D02*
X192747548Y-78263087D01*
X192699929Y-78739278D01*
X192747548Y-78691659D01*
X192842786Y-78644040D01*
X193080881Y-78644040D01*
X193176119Y-78691659D01*
X193223738Y-78739278D01*
X193271357Y-78834516D01*
X193271357Y-79072611D01*
X193223738Y-79167849D01*
X193176119Y-79215468D01*
X193080881Y-79263087D01*
X192842786Y-79263087D01*
X192747548Y-79215468D01*
X192699929Y-79167849D01*
G04 #@! TO.C,S6*
X190437548Y-98425468D02*
X190580405Y-98473087D01*
X190818500Y-98473087D01*
X190913738Y-98425468D01*
X190961357Y-98377849D01*
X191008976Y-98282611D01*
X191008976Y-98187373D01*
X190961357Y-98092135D01*
X190913738Y-98044516D01*
X190818500Y-97996897D01*
X190628024Y-97949278D01*
X190532786Y-97901659D01*
X190485167Y-97854040D01*
X190437548Y-97758802D01*
X190437548Y-97663564D01*
X190485167Y-97568326D01*
X190532786Y-97520707D01*
X190628024Y-97473087D01*
X190866119Y-97473087D01*
X191008976Y-97520707D01*
X191866119Y-97473087D02*
X191675643Y-97473087D01*
X191580405Y-97520707D01*
X191532786Y-97568326D01*
X191437548Y-97711183D01*
X191389929Y-97901659D01*
X191389929Y-98282611D01*
X191437548Y-98377849D01*
X191485167Y-98425468D01*
X191580405Y-98473087D01*
X191770881Y-98473087D01*
X191866119Y-98425468D01*
X191913738Y-98377849D01*
X191961357Y-98282611D01*
X191961357Y-98044516D01*
X191913738Y-97949278D01*
X191866119Y-97901659D01*
X191770881Y-97854040D01*
X191580405Y-97854040D01*
X191485167Y-97901659D01*
X191437548Y-97949278D01*
X191389929Y-98044516D01*
G04 #@! TO.C,S7*
X198607548Y-114875468D02*
X198750405Y-114923087D01*
X198988500Y-114923087D01*
X199083738Y-114875468D01*
X199131357Y-114827849D01*
X199178976Y-114732611D01*
X199178976Y-114637373D01*
X199131357Y-114542135D01*
X199083738Y-114494516D01*
X198988500Y-114446897D01*
X198798024Y-114399278D01*
X198702786Y-114351659D01*
X198655167Y-114304040D01*
X198607548Y-114208802D01*
X198607548Y-114113564D01*
X198655167Y-114018326D01*
X198702786Y-113970707D01*
X198798024Y-113923087D01*
X199036119Y-113923087D01*
X199178976Y-113970707D01*
X199512310Y-113923087D02*
X200178976Y-113923087D01*
X199750405Y-114923087D01*
G04 #@! TO.C,S8*
X200697548Y-64485468D02*
X200840405Y-64533087D01*
X201078500Y-64533087D01*
X201173738Y-64485468D01*
X201221357Y-64437849D01*
X201268976Y-64342611D01*
X201268976Y-64247373D01*
X201221357Y-64152135D01*
X201173738Y-64104516D01*
X201078500Y-64056897D01*
X200888024Y-64009278D01*
X200792786Y-63961659D01*
X200745167Y-63914040D01*
X200697548Y-63818802D01*
X200697548Y-63723564D01*
X200745167Y-63628326D01*
X200792786Y-63580707D01*
X200888024Y-63533087D01*
X201126119Y-63533087D01*
X201268976Y-63580707D01*
X201840405Y-63961659D02*
X201745167Y-63914040D01*
X201697548Y-63866421D01*
X201649929Y-63771183D01*
X201649929Y-63723564D01*
X201697548Y-63628326D01*
X201745167Y-63580707D01*
X201840405Y-63533087D01*
X202030881Y-63533087D01*
X202126119Y-63580707D01*
X202173738Y-63628326D01*
X202221357Y-63723564D01*
X202221357Y-63771183D01*
X202173738Y-63866421D01*
X202126119Y-63914040D01*
X202030881Y-63961659D01*
X201840405Y-63961659D01*
X201745167Y-64009278D01*
X201697548Y-64056897D01*
X201649929Y-64152135D01*
X201649929Y-64342611D01*
X201697548Y-64437849D01*
X201745167Y-64485468D01*
X201840405Y-64533087D01*
X202030881Y-64533087D01*
X202126119Y-64485468D01*
X202173738Y-64437849D01*
X202221357Y-64342611D01*
X202221357Y-64152135D01*
X202173738Y-64056897D01*
X202126119Y-64009278D01*
X202030881Y-63961659D01*
G04 #@! TO.C,S10*
X205581357Y-89635468D02*
X205724214Y-89683087D01*
X205962310Y-89683087D01*
X206057548Y-89635468D01*
X206105167Y-89587849D01*
X206152786Y-89492611D01*
X206152786Y-89397373D01*
X206105167Y-89302135D01*
X206057548Y-89254516D01*
X205962310Y-89206897D01*
X205771833Y-89159278D01*
X205676595Y-89111659D01*
X205628976Y-89064040D01*
X205581357Y-88968802D01*
X205581357Y-88873564D01*
X205628976Y-88778326D01*
X205676595Y-88730707D01*
X205771833Y-88683087D01*
X206009929Y-88683087D01*
X206152786Y-88730707D01*
X207105167Y-89683087D02*
X206533738Y-89683087D01*
X206819453Y-89683087D02*
X206819453Y-88683087D01*
X206724214Y-88825945D01*
X206628976Y-88921183D01*
X206533738Y-88968802D01*
X207724214Y-88683087D02*
X207819453Y-88683087D01*
X207914691Y-88730707D01*
X207962310Y-88778326D01*
X208009929Y-88873564D01*
X208057548Y-89064040D01*
X208057548Y-89302135D01*
X208009929Y-89492611D01*
X207962310Y-89587849D01*
X207914691Y-89635468D01*
X207819453Y-89683087D01*
X207724214Y-89683087D01*
X207628976Y-89635468D01*
X207581357Y-89587849D01*
X207533738Y-89492611D01*
X207486119Y-89302135D01*
X207486119Y-89064040D01*
X207533738Y-88873564D01*
X207581357Y-88778326D01*
X207628976Y-88730707D01*
X207724214Y-88683087D01*
G04 #@! TO.C,S11*
X227251357Y-88435468D02*
X227394214Y-88483087D01*
X227632310Y-88483087D01*
X227727548Y-88435468D01*
X227775167Y-88387849D01*
X227822786Y-88292611D01*
X227822786Y-88197373D01*
X227775167Y-88102135D01*
X227727548Y-88054516D01*
X227632310Y-88006897D01*
X227441833Y-87959278D01*
X227346595Y-87911659D01*
X227298976Y-87864040D01*
X227251357Y-87768802D01*
X227251357Y-87673564D01*
X227298976Y-87578326D01*
X227346595Y-87530707D01*
X227441833Y-87483087D01*
X227679929Y-87483087D01*
X227822786Y-87530707D01*
X228775167Y-88483087D02*
X228203738Y-88483087D01*
X228489453Y-88483087D02*
X228489453Y-87483087D01*
X228394214Y-87625945D01*
X228298976Y-87721183D01*
X228203738Y-87768802D01*
X229727548Y-88483087D02*
X229156119Y-88483087D01*
X229441833Y-88483087D02*
X229441833Y-87483087D01*
X229346595Y-87625945D01*
X229251357Y-87721183D01*
X229156119Y-87768802D01*
G04 #@! TO.C,S12*
X215561357Y-103835468D02*
X215704214Y-103883087D01*
X215942310Y-103883087D01*
X216037548Y-103835468D01*
X216085167Y-103787849D01*
X216132786Y-103692611D01*
X216132786Y-103597373D01*
X216085167Y-103502135D01*
X216037548Y-103454516D01*
X215942310Y-103406897D01*
X215751833Y-103359278D01*
X215656595Y-103311659D01*
X215608976Y-103264040D01*
X215561357Y-103168802D01*
X215561357Y-103073564D01*
X215608976Y-102978326D01*
X215656595Y-102930707D01*
X215751833Y-102883087D01*
X215989929Y-102883087D01*
X216132786Y-102930707D01*
X217085167Y-103883087D02*
X216513738Y-103883087D01*
X216799453Y-103883087D02*
X216799453Y-102883087D01*
X216704214Y-103025945D01*
X216608976Y-103121183D01*
X216513738Y-103168802D01*
X217466119Y-102978326D02*
X217513738Y-102930707D01*
X217608976Y-102883087D01*
X217847072Y-102883087D01*
X217942310Y-102930707D01*
X217989929Y-102978326D01*
X218037548Y-103073564D01*
X218037548Y-103168802D01*
X217989929Y-103311659D01*
X217418500Y-103883087D01*
X218037548Y-103883087D01*
G04 #@! TO.C,S13*
X237411357Y-105285468D02*
X237554214Y-105333087D01*
X237792310Y-105333087D01*
X237887548Y-105285468D01*
X237935167Y-105237849D01*
X237982786Y-105142611D01*
X237982786Y-105047373D01*
X237935167Y-104952135D01*
X237887548Y-104904516D01*
X237792310Y-104856897D01*
X237601833Y-104809278D01*
X237506595Y-104761659D01*
X237458976Y-104714040D01*
X237411357Y-104618802D01*
X237411357Y-104523564D01*
X237458976Y-104428326D01*
X237506595Y-104380707D01*
X237601833Y-104333087D01*
X237839929Y-104333087D01*
X237982786Y-104380707D01*
X238935167Y-105333087D02*
X238363738Y-105333087D01*
X238649453Y-105333087D02*
X238649453Y-104333087D01*
X238554214Y-104475945D01*
X238458976Y-104571183D01*
X238363738Y-104618802D01*
X239268500Y-104333087D02*
X239887548Y-104333087D01*
X239554214Y-104714040D01*
X239697072Y-104714040D01*
X239792310Y-104761659D01*
X239839929Y-104809278D01*
X239887548Y-104904516D01*
X239887548Y-105142611D01*
X239839929Y-105237849D01*
X239792310Y-105285468D01*
X239697072Y-105333087D01*
X239411357Y-105333087D01*
X239316119Y-105285468D01*
X239268500Y-105237849D01*
G04 #@! TO.C,S14*
X202311357Y-132545468D02*
X202454214Y-132593087D01*
X202692310Y-132593087D01*
X202787548Y-132545468D01*
X202835167Y-132497849D01*
X202882786Y-132402611D01*
X202882786Y-132307373D01*
X202835167Y-132212135D01*
X202787548Y-132164516D01*
X202692310Y-132116897D01*
X202501833Y-132069278D01*
X202406595Y-132021659D01*
X202358976Y-131974040D01*
X202311357Y-131878802D01*
X202311357Y-131783564D01*
X202358976Y-131688326D01*
X202406595Y-131640707D01*
X202501833Y-131593087D01*
X202739929Y-131593087D01*
X202882786Y-131640707D01*
X203835167Y-132593087D02*
X203263738Y-132593087D01*
X203549453Y-132593087D02*
X203549453Y-131593087D01*
X203454214Y-131735945D01*
X203358976Y-131831183D01*
X203263738Y-131878802D01*
X204692310Y-131926421D02*
X204692310Y-132593087D01*
X204454214Y-131545468D02*
X204216119Y-132259754D01*
X204835167Y-132259754D01*
G04 #@! TO.C,S15*
X220871357Y-120715468D02*
X221014214Y-120763087D01*
X221252310Y-120763087D01*
X221347548Y-120715468D01*
X221395167Y-120667849D01*
X221442786Y-120572611D01*
X221442786Y-120477373D01*
X221395167Y-120382135D01*
X221347548Y-120334516D01*
X221252310Y-120286897D01*
X221061833Y-120239278D01*
X220966595Y-120191659D01*
X220918976Y-120144040D01*
X220871357Y-120048802D01*
X220871357Y-119953564D01*
X220918976Y-119858326D01*
X220966595Y-119810707D01*
X221061833Y-119763087D01*
X221299929Y-119763087D01*
X221442786Y-119810707D01*
X222395167Y-120763087D02*
X221823738Y-120763087D01*
X222109453Y-120763087D02*
X222109453Y-119763087D01*
X222014214Y-119905945D01*
X221918976Y-120001183D01*
X221823738Y-120048802D01*
X223299929Y-119763087D02*
X222823738Y-119763087D01*
X222776119Y-120239278D01*
X222823738Y-120191659D01*
X222918976Y-120144040D01*
X223157072Y-120144040D01*
X223252310Y-120191659D01*
X223299929Y-120239278D01*
X223347548Y-120334516D01*
X223347548Y-120572611D01*
X223299929Y-120667849D01*
X223252310Y-120715468D01*
X223157072Y-120763087D01*
X222918976Y-120763087D01*
X222823738Y-120715468D01*
X222776119Y-120667849D01*
G04 #@! TO.C,S16*
X239191357Y-123915468D02*
X239334214Y-123963087D01*
X239572310Y-123963087D01*
X239667548Y-123915468D01*
X239715167Y-123867849D01*
X239762786Y-123772611D01*
X239762786Y-123677373D01*
X239715167Y-123582135D01*
X239667548Y-123534516D01*
X239572310Y-123486897D01*
X239381833Y-123439278D01*
X239286595Y-123391659D01*
X239238976Y-123344040D01*
X239191357Y-123248802D01*
X239191357Y-123153564D01*
X239238976Y-123058326D01*
X239286595Y-123010707D01*
X239381833Y-122963087D01*
X239619929Y-122963087D01*
X239762786Y-123010707D01*
X240715167Y-123963087D02*
X240143738Y-123963087D01*
X240429453Y-123963087D02*
X240429453Y-122963087D01*
X240334214Y-123105945D01*
X240238976Y-123201183D01*
X240143738Y-123248802D01*
X241572310Y-122963087D02*
X241381833Y-122963087D01*
X241286595Y-123010707D01*
X241238976Y-123058326D01*
X241143738Y-123201183D01*
X241096119Y-123391659D01*
X241096119Y-123772611D01*
X241143738Y-123867849D01*
X241191357Y-123915468D01*
X241286595Y-123963087D01*
X241477072Y-123963087D01*
X241572310Y-123915468D01*
X241619929Y-123867849D01*
X241667548Y-123772611D01*
X241667548Y-123534516D01*
X241619929Y-123439278D01*
X241572310Y-123391659D01*
X241477072Y-123344040D01*
X241286595Y-123344040D01*
X241191357Y-123391659D01*
X241143738Y-123439278D01*
X241096119Y-123534516D01*
G04 #@! TO.C,S17*
X238381357Y-142995468D02*
X238524214Y-143043087D01*
X238762310Y-143043087D01*
X238857548Y-142995468D01*
X238905167Y-142947849D01*
X238952786Y-142852611D01*
X238952786Y-142757373D01*
X238905167Y-142662135D01*
X238857548Y-142614516D01*
X238762310Y-142566897D01*
X238571833Y-142519278D01*
X238476595Y-142471659D01*
X238428976Y-142424040D01*
X238381357Y-142328802D01*
X238381357Y-142233564D01*
X238428976Y-142138326D01*
X238476595Y-142090707D01*
X238571833Y-142043087D01*
X238809929Y-142043087D01*
X238952786Y-142090707D01*
X239905167Y-143043087D02*
X239333738Y-143043087D01*
X239619453Y-143043087D02*
X239619453Y-142043087D01*
X239524214Y-142185945D01*
X239428976Y-142281183D01*
X239333738Y-142328802D01*
X240238500Y-142043087D02*
X240905167Y-142043087D01*
X240476595Y-143043087D01*
G04 #@! TO.C,S18*
X220251357Y-139435468D02*
X220394214Y-139483087D01*
X220632310Y-139483087D01*
X220727548Y-139435468D01*
X220775167Y-139387849D01*
X220822786Y-139292611D01*
X220822786Y-139197373D01*
X220775167Y-139102135D01*
X220727548Y-139054516D01*
X220632310Y-139006897D01*
X220441833Y-138959278D01*
X220346595Y-138911659D01*
X220298976Y-138864040D01*
X220251357Y-138768802D01*
X220251357Y-138673564D01*
X220298976Y-138578326D01*
X220346595Y-138530707D01*
X220441833Y-138483087D01*
X220679929Y-138483087D01*
X220822786Y-138530707D01*
X221775167Y-139483087D02*
X221203738Y-139483087D01*
X221489453Y-139483087D02*
X221489453Y-138483087D01*
X221394214Y-138625945D01*
X221298976Y-138721183D01*
X221203738Y-138768802D01*
X222346595Y-138911659D02*
X222251357Y-138864040D01*
X222203738Y-138816421D01*
X222156119Y-138721183D01*
X222156119Y-138673564D01*
X222203738Y-138578326D01*
X222251357Y-138530707D01*
X222346595Y-138483087D01*
X222537072Y-138483087D01*
X222632310Y-138530707D01*
X222679929Y-138578326D01*
X222727548Y-138673564D01*
X222727548Y-138721183D01*
X222679929Y-138816421D01*
X222632310Y-138864040D01*
X222537072Y-138911659D01*
X222346595Y-138911659D01*
X222251357Y-138959278D01*
X222203738Y-139006897D01*
X222156119Y-139102135D01*
X222156119Y-139292611D01*
X222203738Y-139387849D01*
X222251357Y-139435468D01*
X222346595Y-139483087D01*
X222537072Y-139483087D01*
X222632310Y-139435468D01*
X222679929Y-139387849D01*
X222727548Y-139292611D01*
X222727548Y-139102135D01*
X222679929Y-139006897D01*
X222632310Y-138959278D01*
X222537072Y-138911659D01*
G04 #@! TO.C,S19*
X218051357Y-157635468D02*
X218194214Y-157683087D01*
X218432310Y-157683087D01*
X218527548Y-157635468D01*
X218575167Y-157587849D01*
X218622786Y-157492611D01*
X218622786Y-157397373D01*
X218575167Y-157302135D01*
X218527548Y-157254516D01*
X218432310Y-157206897D01*
X218241833Y-157159278D01*
X218146595Y-157111659D01*
X218098976Y-157064040D01*
X218051357Y-156968802D01*
X218051357Y-156873564D01*
X218098976Y-156778326D01*
X218146595Y-156730707D01*
X218241833Y-156683087D01*
X218479929Y-156683087D01*
X218622786Y-156730707D01*
X219575167Y-157683087D02*
X219003738Y-157683087D01*
X219289453Y-157683087D02*
X219289453Y-156683087D01*
X219194214Y-156825945D01*
X219098976Y-156921183D01*
X219003738Y-156968802D01*
X220051357Y-157683087D02*
X220241833Y-157683087D01*
X220337072Y-157635468D01*
X220384691Y-157587849D01*
X220479929Y-157444992D01*
X220527548Y-157254516D01*
X220527548Y-156873564D01*
X220479929Y-156778326D01*
X220432310Y-156730707D01*
X220337072Y-156683087D01*
X220146595Y-156683087D01*
X220051357Y-156730707D01*
X220003738Y-156778326D01*
X219956119Y-156873564D01*
X219956119Y-157111659D01*
X220003738Y-157206897D01*
X220051357Y-157254516D01*
X220146595Y-157302135D01*
X220337072Y-157302135D01*
X220432310Y-157254516D01*
X220479929Y-157206897D01*
X220527548Y-157111659D01*
G04 #@! TO.C,S20*
X235351357Y-162115468D02*
X235494214Y-162163087D01*
X235732310Y-162163087D01*
X235827548Y-162115468D01*
X235875167Y-162067849D01*
X235922786Y-161972611D01*
X235922786Y-161877373D01*
X235875167Y-161782135D01*
X235827548Y-161734516D01*
X235732310Y-161686897D01*
X235541833Y-161639278D01*
X235446595Y-161591659D01*
X235398976Y-161544040D01*
X235351357Y-161448802D01*
X235351357Y-161353564D01*
X235398976Y-161258326D01*
X235446595Y-161210707D01*
X235541833Y-161163087D01*
X235779929Y-161163087D01*
X235922786Y-161210707D01*
X236303738Y-161258326D02*
X236351357Y-161210707D01*
X236446595Y-161163087D01*
X236684691Y-161163087D01*
X236779929Y-161210707D01*
X236827548Y-161258326D01*
X236875167Y-161353564D01*
X236875167Y-161448802D01*
X236827548Y-161591659D01*
X236256119Y-162163087D01*
X236875167Y-162163087D01*
X237494214Y-161163087D02*
X237589453Y-161163087D01*
X237684691Y-161210707D01*
X237732310Y-161258326D01*
X237779929Y-161353564D01*
X237827548Y-161544040D01*
X237827548Y-161782135D01*
X237779929Y-161972611D01*
X237732310Y-162067849D01*
X237684691Y-162115468D01*
X237589453Y-162163087D01*
X237494214Y-162163087D01*
X237398976Y-162115468D01*
X237351357Y-162067849D01*
X237303738Y-161972611D01*
X237256119Y-161782135D01*
X237256119Y-161544040D01*
X237303738Y-161353564D01*
X237351357Y-161258326D01*
X237398976Y-161210707D01*
X237494214Y-161163087D01*
G04 #@! TO.C,S21*
X229641357Y-180965468D02*
X229784214Y-181013087D01*
X230022310Y-181013087D01*
X230117548Y-180965468D01*
X230165167Y-180917849D01*
X230212786Y-180822611D01*
X230212786Y-180727373D01*
X230165167Y-180632135D01*
X230117548Y-180584516D01*
X230022310Y-180536897D01*
X229831833Y-180489278D01*
X229736595Y-180441659D01*
X229688976Y-180394040D01*
X229641357Y-180298802D01*
X229641357Y-180203564D01*
X229688976Y-180108326D01*
X229736595Y-180060707D01*
X229831833Y-180013087D01*
X230069929Y-180013087D01*
X230212786Y-180060707D01*
X230593738Y-180108326D02*
X230641357Y-180060707D01*
X230736595Y-180013087D01*
X230974691Y-180013087D01*
X231069929Y-180060707D01*
X231117548Y-180108326D01*
X231165167Y-180203564D01*
X231165167Y-180298802D01*
X231117548Y-180441659D01*
X230546119Y-181013087D01*
X231165167Y-181013087D01*
X232117548Y-181013087D02*
X231546119Y-181013087D01*
X231831833Y-181013087D02*
X231831833Y-180013087D01*
X231736595Y-180155945D01*
X231641357Y-180251183D01*
X231546119Y-180298802D01*
G04 #@! TO.C,S22*
X226471357Y-200425468D02*
X226614214Y-200473087D01*
X226852310Y-200473087D01*
X226947548Y-200425468D01*
X226995167Y-200377849D01*
X227042786Y-200282611D01*
X227042786Y-200187373D01*
X226995167Y-200092135D01*
X226947548Y-200044516D01*
X226852310Y-199996897D01*
X226661833Y-199949278D01*
X226566595Y-199901659D01*
X226518976Y-199854040D01*
X226471357Y-199758802D01*
X226471357Y-199663564D01*
X226518976Y-199568326D01*
X226566595Y-199520707D01*
X226661833Y-199473087D01*
X226899929Y-199473087D01*
X227042786Y-199520707D01*
X227423738Y-199568326D02*
X227471357Y-199520707D01*
X227566595Y-199473087D01*
X227804691Y-199473087D01*
X227899929Y-199520707D01*
X227947548Y-199568326D01*
X227995167Y-199663564D01*
X227995167Y-199758802D01*
X227947548Y-199901659D01*
X227376119Y-200473087D01*
X227995167Y-200473087D01*
X228376119Y-199568326D02*
X228423738Y-199520707D01*
X228518976Y-199473087D01*
X228757072Y-199473087D01*
X228852310Y-199520707D01*
X228899929Y-199568326D01*
X228947548Y-199663564D01*
X228947548Y-199758802D01*
X228899929Y-199901659D01*
X228328500Y-200473087D01*
X228947548Y-200473087D01*
G04 #@! TO.C,S23*
X225421357Y-219445468D02*
X225564214Y-219493087D01*
X225802310Y-219493087D01*
X225897548Y-219445468D01*
X225945167Y-219397849D01*
X225992786Y-219302611D01*
X225992786Y-219207373D01*
X225945167Y-219112135D01*
X225897548Y-219064516D01*
X225802310Y-219016897D01*
X225611833Y-218969278D01*
X225516595Y-218921659D01*
X225468976Y-218874040D01*
X225421357Y-218778802D01*
X225421357Y-218683564D01*
X225468976Y-218588326D01*
X225516595Y-218540707D01*
X225611833Y-218493087D01*
X225849929Y-218493087D01*
X225992786Y-218540707D01*
X226373738Y-218588326D02*
X226421357Y-218540707D01*
X226516595Y-218493087D01*
X226754691Y-218493087D01*
X226849929Y-218540707D01*
X226897548Y-218588326D01*
X226945167Y-218683564D01*
X226945167Y-218778802D01*
X226897548Y-218921659D01*
X226326119Y-219493087D01*
X226945167Y-219493087D01*
X227278500Y-218493087D02*
X227897548Y-218493087D01*
X227564214Y-218874040D01*
X227707072Y-218874040D01*
X227802310Y-218921659D01*
X227849929Y-218969278D01*
X227897548Y-219064516D01*
X227897548Y-219302611D01*
X227849929Y-219397849D01*
X227802310Y-219445468D01*
X227707072Y-219493087D01*
X227421357Y-219493087D01*
X227326119Y-219445468D01*
X227278500Y-219397849D01*
G04 #@! TO.C,S24*
X190061357Y-238415468D02*
X190204214Y-238463087D01*
X190442310Y-238463087D01*
X190537548Y-238415468D01*
X190585167Y-238367849D01*
X190632786Y-238272611D01*
X190632786Y-238177373D01*
X190585167Y-238082135D01*
X190537548Y-238034516D01*
X190442310Y-237986897D01*
X190251833Y-237939278D01*
X190156595Y-237891659D01*
X190108976Y-237844040D01*
X190061357Y-237748802D01*
X190061357Y-237653564D01*
X190108976Y-237558326D01*
X190156595Y-237510707D01*
X190251833Y-237463087D01*
X190489929Y-237463087D01*
X190632786Y-237510707D01*
X191013738Y-237558326D02*
X191061357Y-237510707D01*
X191156595Y-237463087D01*
X191394691Y-237463087D01*
X191489929Y-237510707D01*
X191537548Y-237558326D01*
X191585167Y-237653564D01*
X191585167Y-237748802D01*
X191537548Y-237891659D01*
X190966119Y-238463087D01*
X191585167Y-238463087D01*
X192442310Y-237796421D02*
X192442310Y-238463087D01*
X192204214Y-237415468D02*
X191966119Y-238129754D01*
X192585167Y-238129754D01*
G04 #@! TO.C,S25*
X187661357Y-255945468D02*
X187804214Y-255993087D01*
X188042310Y-255993087D01*
X188137548Y-255945468D01*
X188185167Y-255897849D01*
X188232786Y-255802611D01*
X188232786Y-255707373D01*
X188185167Y-255612135D01*
X188137548Y-255564516D01*
X188042310Y-255516897D01*
X187851833Y-255469278D01*
X187756595Y-255421659D01*
X187708976Y-255374040D01*
X187661357Y-255278802D01*
X187661357Y-255183564D01*
X187708976Y-255088326D01*
X187756595Y-255040707D01*
X187851833Y-254993087D01*
X188089929Y-254993087D01*
X188232786Y-255040707D01*
X188613738Y-255088326D02*
X188661357Y-255040707D01*
X188756595Y-254993087D01*
X188994691Y-254993087D01*
X189089929Y-255040707D01*
X189137548Y-255088326D01*
X189185167Y-255183564D01*
X189185167Y-255278802D01*
X189137548Y-255421659D01*
X188566119Y-255993087D01*
X189185167Y-255993087D01*
X190089929Y-254993087D02*
X189613738Y-254993087D01*
X189566119Y-255469278D01*
X189613738Y-255421659D01*
X189708976Y-255374040D01*
X189947072Y-255374040D01*
X190042310Y-255421659D01*
X190089929Y-255469278D01*
X190137548Y-255564516D01*
X190137548Y-255802611D01*
X190089929Y-255897849D01*
X190042310Y-255945468D01*
X189947072Y-255993087D01*
X189708976Y-255993087D01*
X189613738Y-255945468D01*
X189566119Y-255897849D01*
G04 #@! TO.C,S26*
X199781357Y-271745468D02*
X199924214Y-271793087D01*
X200162310Y-271793087D01*
X200257548Y-271745468D01*
X200305167Y-271697849D01*
X200352786Y-271602611D01*
X200352786Y-271507373D01*
X200305167Y-271412135D01*
X200257548Y-271364516D01*
X200162310Y-271316897D01*
X199971833Y-271269278D01*
X199876595Y-271221659D01*
X199828976Y-271174040D01*
X199781357Y-271078802D01*
X199781357Y-270983564D01*
X199828976Y-270888326D01*
X199876595Y-270840707D01*
X199971833Y-270793087D01*
X200209929Y-270793087D01*
X200352786Y-270840707D01*
X200733738Y-270888326D02*
X200781357Y-270840707D01*
X200876595Y-270793087D01*
X201114691Y-270793087D01*
X201209929Y-270840707D01*
X201257548Y-270888326D01*
X201305167Y-270983564D01*
X201305167Y-271078802D01*
X201257548Y-271221659D01*
X200686119Y-271793087D01*
X201305167Y-271793087D01*
X202162310Y-270793087D02*
X201971833Y-270793087D01*
X201876595Y-270840707D01*
X201828976Y-270888326D01*
X201733738Y-271031183D01*
X201686119Y-271221659D01*
X201686119Y-271602611D01*
X201733738Y-271697849D01*
X201781357Y-271745468D01*
X201876595Y-271793087D01*
X202067072Y-271793087D01*
X202162310Y-271745468D01*
X202209929Y-271697849D01*
X202257548Y-271602611D01*
X202257548Y-271364516D01*
X202209929Y-271269278D01*
X202162310Y-271221659D01*
X202067072Y-271174040D01*
X201876595Y-271174040D01*
X201781357Y-271221659D01*
X201733738Y-271269278D01*
X201686119Y-271364516D01*
G04 #@! TO.C,S27*
X211711357Y-271135468D02*
X211854214Y-271183087D01*
X212092310Y-271183087D01*
X212187548Y-271135468D01*
X212235167Y-271087849D01*
X212282786Y-270992611D01*
X212282786Y-270897373D01*
X212235167Y-270802135D01*
X212187548Y-270754516D01*
X212092310Y-270706897D01*
X211901833Y-270659278D01*
X211806595Y-270611659D01*
X211758976Y-270564040D01*
X211711357Y-270468802D01*
X211711357Y-270373564D01*
X211758976Y-270278326D01*
X211806595Y-270230707D01*
X211901833Y-270183087D01*
X212139929Y-270183087D01*
X212282786Y-270230707D01*
X212663738Y-270278326D02*
X212711357Y-270230707D01*
X212806595Y-270183087D01*
X213044691Y-270183087D01*
X213139929Y-270230707D01*
X213187548Y-270278326D01*
X213235167Y-270373564D01*
X213235167Y-270468802D01*
X213187548Y-270611659D01*
X212616119Y-271183087D01*
X213235167Y-271183087D01*
X213568500Y-270183087D02*
X214235167Y-270183087D01*
X213806595Y-271183087D01*
G04 #@! TO.C,S28*
X224661357Y-256015468D02*
X224804214Y-256063087D01*
X225042310Y-256063087D01*
X225137548Y-256015468D01*
X225185167Y-255967849D01*
X225232786Y-255872611D01*
X225232786Y-255777373D01*
X225185167Y-255682135D01*
X225137548Y-255634516D01*
X225042310Y-255586897D01*
X224851833Y-255539278D01*
X224756595Y-255491659D01*
X224708976Y-255444040D01*
X224661357Y-255348802D01*
X224661357Y-255253564D01*
X224708976Y-255158326D01*
X224756595Y-255110707D01*
X224851833Y-255063087D01*
X225089929Y-255063087D01*
X225232786Y-255110707D01*
X225613738Y-255158326D02*
X225661357Y-255110707D01*
X225756595Y-255063087D01*
X225994691Y-255063087D01*
X226089929Y-255110707D01*
X226137548Y-255158326D01*
X226185167Y-255253564D01*
X226185167Y-255348802D01*
X226137548Y-255491659D01*
X225566119Y-256063087D01*
X226185167Y-256063087D01*
X226756595Y-255491659D02*
X226661357Y-255444040D01*
X226613738Y-255396421D01*
X226566119Y-255301183D01*
X226566119Y-255253564D01*
X226613738Y-255158326D01*
X226661357Y-255110707D01*
X226756595Y-255063087D01*
X226947072Y-255063087D01*
X227042310Y-255110707D01*
X227089929Y-255158326D01*
X227137548Y-255253564D01*
X227137548Y-255301183D01*
X227089929Y-255396421D01*
X227042310Y-255444040D01*
X226947072Y-255491659D01*
X226756595Y-255491659D01*
X226661357Y-255539278D01*
X226613738Y-255586897D01*
X226566119Y-255682135D01*
X226566119Y-255872611D01*
X226613738Y-255967849D01*
X226661357Y-256015468D01*
X226756595Y-256063087D01*
X226947072Y-256063087D01*
X227042310Y-256015468D01*
X227089929Y-255967849D01*
X227137548Y-255872611D01*
X227137548Y-255682135D01*
X227089929Y-255586897D01*
X227042310Y-255539278D01*
X226947072Y-255491659D01*
G04 #@! TO.C,S29*
X205951357Y-254535468D02*
X206094214Y-254583087D01*
X206332310Y-254583087D01*
X206427548Y-254535468D01*
X206475167Y-254487849D01*
X206522786Y-254392611D01*
X206522786Y-254297373D01*
X206475167Y-254202135D01*
X206427548Y-254154516D01*
X206332310Y-254106897D01*
X206141833Y-254059278D01*
X206046595Y-254011659D01*
X205998976Y-253964040D01*
X205951357Y-253868802D01*
X205951357Y-253773564D01*
X205998976Y-253678326D01*
X206046595Y-253630707D01*
X206141833Y-253583087D01*
X206379929Y-253583087D01*
X206522786Y-253630707D01*
X206903738Y-253678326D02*
X206951357Y-253630707D01*
X207046595Y-253583087D01*
X207284691Y-253583087D01*
X207379929Y-253630707D01*
X207427548Y-253678326D01*
X207475167Y-253773564D01*
X207475167Y-253868802D01*
X207427548Y-254011659D01*
X206856119Y-254583087D01*
X207475167Y-254583087D01*
X207951357Y-254583087D02*
X208141833Y-254583087D01*
X208237072Y-254535468D01*
X208284691Y-254487849D01*
X208379929Y-254344992D01*
X208427548Y-254154516D01*
X208427548Y-253773564D01*
X208379929Y-253678326D01*
X208332310Y-253630707D01*
X208237072Y-253583087D01*
X208046595Y-253583087D01*
X207951357Y-253630707D01*
X207903738Y-253678326D01*
X207856119Y-253773564D01*
X207856119Y-254011659D01*
X207903738Y-254106897D01*
X207951357Y-254154516D01*
X208046595Y-254202135D01*
X208237072Y-254202135D01*
X208332310Y-254154516D01*
X208379929Y-254106897D01*
X208427548Y-254011659D01*
G04 #@! TO.C,S30*
X223951357Y-236665468D02*
X224094214Y-236713087D01*
X224332310Y-236713087D01*
X224427548Y-236665468D01*
X224475167Y-236617849D01*
X224522786Y-236522611D01*
X224522786Y-236427373D01*
X224475167Y-236332135D01*
X224427548Y-236284516D01*
X224332310Y-236236897D01*
X224141833Y-236189278D01*
X224046595Y-236141659D01*
X223998976Y-236094040D01*
X223951357Y-235998802D01*
X223951357Y-235903564D01*
X223998976Y-235808326D01*
X224046595Y-235760707D01*
X224141833Y-235713087D01*
X224379929Y-235713087D01*
X224522786Y-235760707D01*
X224856119Y-235713087D02*
X225475167Y-235713087D01*
X225141833Y-236094040D01*
X225284691Y-236094040D01*
X225379929Y-236141659D01*
X225427548Y-236189278D01*
X225475167Y-236284516D01*
X225475167Y-236522611D01*
X225427548Y-236617849D01*
X225379929Y-236665468D01*
X225284691Y-236713087D01*
X224998976Y-236713087D01*
X224903738Y-236665468D01*
X224856119Y-236617849D01*
X226094214Y-235713087D02*
X226189453Y-235713087D01*
X226284691Y-235760707D01*
X226332310Y-235808326D01*
X226379929Y-235903564D01*
X226427548Y-236094040D01*
X226427548Y-236332135D01*
X226379929Y-236522611D01*
X226332310Y-236617849D01*
X226284691Y-236665468D01*
X226189453Y-236713087D01*
X226094214Y-236713087D01*
X225998976Y-236665468D01*
X225951357Y-236617849D01*
X225903738Y-236522611D01*
X225856119Y-236332135D01*
X225856119Y-236094040D01*
X225903738Y-235903564D01*
X225951357Y-235808326D01*
X225998976Y-235760707D01*
X226094214Y-235713087D01*
G04 #@! TO.C,S31*
X207071357Y-233395468D02*
X207214214Y-233443087D01*
X207452310Y-233443087D01*
X207547548Y-233395468D01*
X207595167Y-233347849D01*
X207642786Y-233252611D01*
X207642786Y-233157373D01*
X207595167Y-233062135D01*
X207547548Y-233014516D01*
X207452310Y-232966897D01*
X207261833Y-232919278D01*
X207166595Y-232871659D01*
X207118976Y-232824040D01*
X207071357Y-232728802D01*
X207071357Y-232633564D01*
X207118976Y-232538326D01*
X207166595Y-232490707D01*
X207261833Y-232443087D01*
X207499929Y-232443087D01*
X207642786Y-232490707D01*
X207976119Y-232443087D02*
X208595167Y-232443087D01*
X208261833Y-232824040D01*
X208404691Y-232824040D01*
X208499929Y-232871659D01*
X208547548Y-232919278D01*
X208595167Y-233014516D01*
X208595167Y-233252611D01*
X208547548Y-233347849D01*
X208499929Y-233395468D01*
X208404691Y-233443087D01*
X208118976Y-233443087D01*
X208023738Y-233395468D01*
X207976119Y-233347849D01*
X209547548Y-233443087D02*
X208976119Y-233443087D01*
X209261833Y-233443087D02*
X209261833Y-232443087D01*
X209166595Y-232585945D01*
X209071357Y-232681183D01*
X208976119Y-232728802D01*
G04 #@! TD*
M02*
