G04 #@! TF.GenerationSoftware,KiCad,Pcbnew,(5.0.0)*
G04 #@! TF.CreationDate,2020-01-29T13:38:43+01:00*
G04 #@! TF.ProjectId,Insole_PCB,496E736F6C655F5043422E6B69636164,rev?*
G04 #@! TF.SameCoordinates,Original*
G04 #@! TF.FileFunction,Legend,Bot*
G04 #@! TF.FilePolarity,Positive*
%FSLAX46Y46*%
G04 Gerber Fmt 4.6, Leading zero omitted, Abs format (unit mm)*
G04 Created by KiCad (PCBNEW (5.0.0)) date 01/29/20 13:38:43*
%MOMM*%
%LPD*%
G01*
G04 APERTURE LIST*
%ADD10C,0.120000*%
%ADD11C,0.400000*%
%ADD12C,0.200000*%
%ADD13C,0.100000*%
%ADD14C,0.150000*%
%ADD15C,0.300000*%
G04 APERTURE END LIST*
D10*
G04 #@! TO.C,R4*
X188859566Y-187953900D02*
X188836856Y-188278665D01*
X187842050Y-187882749D02*
X187819340Y-188207514D01*
G04 #@! TO.C,C3*
X190965600Y-182017944D02*
X191291108Y-182023626D01*
X190947798Y-183037788D02*
X191273306Y-183043470D01*
D11*
G04 #@! TO.C,U3*
X191272327Y-180157226D02*
G75*
G03X191272327Y-180157226I0J0D01*
G01*
D10*
X191854581Y-178887194D02*
X191812172Y-181316824D01*
X188754332Y-180593347D02*
X188785049Y-178833615D01*
G04 #@! TO.C,L3*
X190841307Y-175051353D02*
X189637362Y-175030338D01*
X190809544Y-176871076D02*
X189605599Y-176850061D01*
D12*
G04 #@! TO.C,U2*
X196549453Y-166460707D02*
G75*
G03X196549453Y-166460707I0J0D01*
G01*
D13*
X194149453Y-165860707D02*
X194149453Y-166080707D01*
X194869453Y-165860707D02*
X194149453Y-165860707D01*
X194149453Y-168560707D02*
X194869453Y-168560707D01*
X194149453Y-168340707D02*
X194149453Y-168560707D01*
X197349453Y-168560707D02*
X197349453Y-168340707D01*
X197349453Y-168560707D02*
X196629453Y-168560707D01*
X197049453Y-166260707D02*
X196699453Y-165910707D01*
D10*
G04 #@! TO.C,C1*
X192969566Y-192783900D02*
X192946856Y-193108665D01*
X191952050Y-192712749D02*
X191929340Y-193037514D01*
G04 #@! TO.C,C2*
X213934370Y-186682175D02*
X213823023Y-186988099D01*
X212975883Y-186333315D02*
X212864536Y-186639239D01*
G04 #@! TO.C,C4*
X188450216Y-178844854D02*
X188444534Y-179170362D01*
X187430372Y-178827052D02*
X187424690Y-179152560D01*
G04 #@! TO.C,C5*
X212484370Y-186132175D02*
X212373023Y-186438099D01*
X211525883Y-185783315D02*
X211414536Y-186089239D01*
G04 #@! TO.C,C6*
X204839453Y-177060986D02*
X204839453Y-176735428D01*
X205859453Y-177060986D02*
X205859453Y-176735428D01*
G04 #@! TO.C,C7*
X206439453Y-177073486D02*
X206439453Y-176747928D01*
X207459453Y-177073486D02*
X207459453Y-176747928D01*
G04 #@! TO.C,C8*
X205399174Y-169300707D02*
X205724732Y-169300707D01*
X205399174Y-170320707D02*
X205724732Y-170320707D01*
G04 #@! TO.C,C9*
X205399174Y-167700707D02*
X205724732Y-167700707D01*
X205399174Y-168720707D02*
X205724732Y-168720707D01*
G04 #@! TO.C,C10*
X199464453Y-153935986D02*
X199464453Y-153610428D01*
X200484453Y-153935986D02*
X200484453Y-153610428D01*
G04 #@! TO.C,C11*
X197839453Y-153948486D02*
X197839453Y-153622928D01*
X198859453Y-153948486D02*
X198859453Y-153622928D01*
G04 #@! TO.C,C12*
X197599732Y-171820707D02*
X197274174Y-171820707D01*
X197599732Y-170800707D02*
X197274174Y-170800707D01*
G04 #@! TO.C,C13*
X197599732Y-170220707D02*
X197274174Y-170220707D01*
X197599732Y-169200707D02*
X197274174Y-169200707D01*
G04 #@! TO.C,C14*
X193786674Y-170400707D02*
X194112232Y-170400707D01*
X193786674Y-171420707D02*
X194112232Y-171420707D01*
G04 #@! TO.C,L1*
X189909453Y-159116959D02*
X189909453Y-158594455D01*
X191329453Y-159116959D02*
X191329453Y-158594455D01*
G04 #@! TO.C,L2*
X192815201Y-148601958D02*
X192553949Y-148149456D01*
X194044957Y-147891958D02*
X193783705Y-147439456D01*
D11*
G04 #@! TO.C,MUX1*
X196165709Y-146088464D02*
G75*
G03X196165709Y-146088464I-158114J0D01*
G01*
D14*
X194537082Y-144541461D02*
X197524582Y-149715963D01*
X200109372Y-143142951D02*
X202309372Y-146953463D01*
D11*
G04 #@! TO.C,MUX2*
X201907567Y-166510707D02*
G75*
G03X201907567Y-166510707I-158114J0D01*
G01*
D14*
X199674453Y-167010707D02*
X205649453Y-167010707D01*
X201249453Y-161485707D02*
X205649453Y-161485707D01*
D11*
G04 #@! TO.C,MUX3*
X208607567Y-171460707D02*
G75*
G03X208607567Y-171460707I-158114J0D01*
G01*
D14*
X207949453Y-169385707D02*
X207949453Y-175360707D01*
X213474453Y-170960707D02*
X213474453Y-175360707D01*
D11*
G04 #@! TO.C,MUX4*
X211037426Y-193844831D02*
G75*
G03X211037426Y-193844831I-158114J0D01*
G01*
D14*
X210639466Y-195965703D02*
X212683037Y-190351040D01*
X205986346Y-192596026D02*
X207491235Y-188461378D01*
D10*
G04 #@! TO.C,Q2*
X188069453Y-165550707D02*
X188069453Y-167010707D01*
X191229453Y-165550707D02*
X191229453Y-167710707D01*
X191229453Y-165550707D02*
X190299453Y-165550707D01*
X188069453Y-165550707D02*
X188999453Y-165550707D01*
G04 #@! TO.C,R1*
X198312848Y-190530151D02*
X198329886Y-190205039D01*
X199331450Y-190583533D02*
X199348488Y-190258421D01*
G04 #@! TO.C,R2*
X193874174Y-161100707D02*
X194199732Y-161100707D01*
X193874174Y-162120707D02*
X194199732Y-162120707D01*
G04 #@! TO.C,R3*
X193886674Y-162700707D02*
X194212232Y-162700707D01*
X193886674Y-163720707D02*
X194212232Y-163720707D01*
G04 #@! TO.C,R5*
X202729340Y-201737514D02*
X202752050Y-201412749D01*
X203746856Y-201808665D02*
X203769566Y-201483900D01*
G04 #@! TO.C,R6*
X195474174Y-176000707D02*
X195799732Y-176000707D01*
X195474174Y-177020707D02*
X195799732Y-177020707D01*
G04 #@! TO.C,R7*
X203386674Y-159550707D02*
X203712232Y-159550707D01*
X203386674Y-160570707D02*
X203712232Y-160570707D01*
G04 #@! TO.C,R8*
X188639453Y-140460986D02*
X188639453Y-140135428D01*
X189659453Y-140460986D02*
X189659453Y-140135428D01*
G04 #@! TO.C,R9*
X185639453Y-140473486D02*
X185639453Y-140147928D01*
X186659453Y-140473486D02*
X186659453Y-140147928D01*
G04 #@! TO.C,R10*
X191021174Y-183942707D02*
X191346732Y-183942707D01*
X191021174Y-184962707D02*
X191346732Y-184962707D01*
G04 #@! TO.C,R11*
X189851666Y-196332953D02*
X189527347Y-196304579D01*
X189940565Y-195316835D02*
X189616246Y-195288461D01*
G04 #@! TO.C,R12*
X192639453Y-173360986D02*
X192639453Y-173035428D01*
X193659453Y-173360986D02*
X193659453Y-173035428D01*
G04 #@! TO.C,R13*
X195359453Y-173047928D02*
X195359453Y-173373486D01*
X194339453Y-173047928D02*
X194339453Y-173373486D01*
G04 #@! TO.C,R14*
X189539453Y-171085986D02*
X189539453Y-170760428D01*
X190559453Y-171085986D02*
X190559453Y-170760428D01*
D11*
G04 #@! TO.C,U1*
X194321689Y-189661536D02*
G75*
G03X194321689Y-189661536I0J0D01*
G01*
D10*
X193695467Y-190910474D02*
X193822643Y-188483804D01*
X196853371Y-189313557D02*
X196761259Y-191071145D01*
D15*
G04 #@! TO.C,U4*
X186575929Y-156638014D02*
G75*
G03X186575929Y-156638014I0J0D01*
G01*
D14*
X194282241Y-153285738D02*
X185621987Y-158285738D01*
X189282241Y-144625484D02*
X194282241Y-153285738D01*
X180621987Y-149625484D02*
X189282241Y-144625484D01*
X185621987Y-158285738D02*
X180621987Y-149625484D01*
D12*
G04 #@! TO.C,U5*
X191358234Y-190304665D02*
G75*
G02X191158722Y-190290713I-99756J6976D01*
G01*
X191158721Y-190290713D02*
G75*
G02X191358235Y-190304665I99757J-6976D01*
G01*
X191158722Y-190290713D02*
X191158722Y-190290713D01*
X191358235Y-190304665D02*
X191358235Y-190304665D01*
D13*
X189871645Y-187193386D02*
X189732132Y-189188515D01*
X191866774Y-187332899D02*
X191727261Y-189328028D01*
D11*
G04 #@! TO.C,U6*
X194069584Y-198028776D02*
G75*
G03X194069584Y-198028776I-70710J0D01*
G01*
D10*
X194300000Y-200323754D02*
X189518265Y-199905407D01*
X194578898Y-197135931D02*
X189797163Y-196717584D01*
X194544036Y-197534409D02*
X195938708Y-197656427D01*
X194578898Y-197135931D02*
X194544036Y-197534409D01*
D11*
G04 #@! TO.C,U7*
X199436042Y-203351420D02*
G75*
G03X199436042Y-203351420I-70710J0D01*
G01*
D10*
X197075959Y-203692553D02*
X197410790Y-198904245D01*
X200268164Y-203915774D02*
X200602995Y-199127466D01*
X199869139Y-203887871D02*
X199771480Y-205284461D01*
X200268164Y-203915774D02*
X199869139Y-203887871D01*
D11*
G04 #@! TO.C,U8*
X201377698Y-207062872D02*
G75*
G03X201377698Y-207062872I-70710J0D01*
G01*
D10*
X201568015Y-209362756D02*
X196794310Y-208861019D01*
X201902506Y-206180285D02*
X197128801Y-205678549D01*
X201860694Y-206578094D02*
X203253025Y-206724434D01*
X201902506Y-206180285D02*
X201860694Y-206578094D01*
D11*
G04 #@! TO.C,U9*
X186868637Y-213004002D02*
G75*
G03X186868637Y-213004002I-70711J0D01*
G01*
D10*
X186377103Y-210727929D02*
X191174179Y-210895447D01*
X186265425Y-213925980D02*
X191062501Y-214093497D01*
X186279385Y-213526223D02*
X184880237Y-213477364D01*
X186265425Y-213925980D02*
X186279385Y-213526223D01*
G04 #@! TO.C,C15*
X194808228Y-194395527D02*
X195132993Y-194418237D01*
X194737077Y-195413043D02*
X195061842Y-195435753D01*
G04 #@! TO.C,C16*
X194927647Y-192825593D02*
X195252412Y-192848303D01*
X194856496Y-193843109D02*
X195181261Y-193865819D01*
G04 #@! TO.C,C17*
X187409453Y-162340707D02*
X187409453Y-166550707D01*
X184389453Y-162340707D02*
X187409453Y-162340707D01*
X184389453Y-166550707D02*
X184389453Y-162340707D01*
G04 #@! TO.C,Q1*
X194889453Y-185950707D02*
X194889453Y-185020707D01*
X194889453Y-182790707D02*
X194889453Y-183720707D01*
X194889453Y-182790707D02*
X197049453Y-182790707D01*
X194889453Y-185950707D02*
X196349453Y-185950707D01*
G04 #@! TO.C,R15*
X199149453Y-182174629D02*
X199149453Y-182691785D01*
X197729453Y-182174629D02*
X197729453Y-182691785D01*
G04 #@! TO.C,JP2*
X189982232Y-172540707D02*
X189656674Y-172540707D01*
X189982232Y-173560707D02*
X189656674Y-173560707D01*
G04 #@! TO.C,JP3*
X185589453Y-169303486D02*
X185589453Y-168977928D01*
X184569453Y-169303486D02*
X184569453Y-168977928D01*
G04 #@! TO.C,JP5*
X186059453Y-169323486D02*
X186059453Y-168997928D01*
X187079453Y-169323486D02*
X187079453Y-168997928D01*
G04 #@! TO.C,R16*
X185659453Y-181567928D02*
X185659453Y-181893486D01*
X186679453Y-181567928D02*
X186679453Y-181893486D01*
G04 #@! TO.C,R17*
X185649453Y-179033486D02*
X185649453Y-178707928D01*
X186669453Y-179033486D02*
X186669453Y-178707928D01*
D12*
G04 #@! TO.C,U10*
X188233453Y-171138707D02*
G75*
G03X188233453Y-171138707I-25000J0D01*
G01*
G04 #@! TO.C,R4*
D14*
X187375841Y-187846250D02*
X186924062Y-187480512D01*
X187415701Y-187276214D02*
X186418137Y-187206457D01*
X186391563Y-187586482D01*
X186432423Y-187684809D01*
X186476604Y-187735634D01*
X186568289Y-187789781D01*
X186710798Y-187799746D01*
X186809126Y-187758886D01*
X186859950Y-187714705D01*
X186914097Y-187623021D01*
X186940671Y-187242996D01*
X186651007Y-188654801D02*
X187316049Y-188701305D01*
X186287591Y-188390712D02*
X187016745Y-188203023D01*
X186973563Y-188820562D01*
G04 #@! TO.C,C3*
X193807400Y-183062599D02*
X193854181Y-183111042D01*
X193996185Y-183161147D01*
X194091408Y-183162809D01*
X194235075Y-183117690D01*
X194331961Y-183024129D01*
X194381235Y-182929736D01*
X194432171Y-182740120D01*
X194434664Y-182597285D01*
X194390376Y-182406006D01*
X194344427Y-182309952D01*
X194250865Y-182213066D01*
X194108861Y-182162961D01*
X194013637Y-182161299D01*
X193869971Y-182206417D01*
X193821528Y-182253198D01*
X193489907Y-182152157D02*
X192870954Y-182141353D01*
X193197588Y-182528065D01*
X193054753Y-182525572D01*
X192958698Y-182571522D01*
X192910255Y-182618302D01*
X192860981Y-182712695D01*
X192856826Y-182950754D01*
X192902776Y-183046808D01*
X192949556Y-183095251D01*
X193043949Y-183144525D01*
X193329620Y-183149512D01*
X193425674Y-183103562D01*
X193474117Y-183056781D01*
G04 #@! TO.C,U3*
X193742007Y-179164965D02*
X193729292Y-179893425D01*
X193684945Y-179978379D01*
X193641346Y-180020481D01*
X193554897Y-180061836D01*
X193383495Y-180058844D01*
X193298542Y-180014497D01*
X193256439Y-179970899D01*
X193215084Y-179884450D01*
X193227800Y-179155989D01*
X192884995Y-179150006D02*
X192327937Y-179140282D01*
X192621907Y-179488323D01*
X192493355Y-179486079D01*
X192406906Y-179527434D01*
X192363308Y-179569536D01*
X192318961Y-179654489D01*
X192315221Y-179868743D01*
X192356576Y-179955192D01*
X192398679Y-179998790D01*
X192483632Y-180043137D01*
X192740736Y-180047625D01*
X192827185Y-180006270D01*
X192870783Y-179964167D01*
G04 #@! TO.C,L3*
X190384700Y-174743839D02*
X190670371Y-174748825D01*
X190680842Y-174148917D01*
X190252336Y-174141437D02*
X189880964Y-174134955D01*
X190076945Y-174366982D01*
X189991243Y-174365486D01*
X189933611Y-174393056D01*
X189904545Y-174421124D01*
X189874981Y-174477760D01*
X189872487Y-174620595D01*
X189900057Y-174678228D01*
X189928126Y-174707294D01*
X189984761Y-174736858D01*
X190156164Y-174739850D01*
X190213796Y-174712280D01*
X190242862Y-174684212D01*
G04 #@! TO.C,U2*
X196511357Y-164163087D02*
X196511357Y-164972611D01*
X196463738Y-165067849D01*
X196416119Y-165115468D01*
X196320881Y-165163087D01*
X196130405Y-165163087D01*
X196035167Y-165115468D01*
X195987548Y-165067849D01*
X195939929Y-164972611D01*
X195939929Y-164163087D01*
X195511357Y-164258326D02*
X195463738Y-164210707D01*
X195368500Y-164163087D01*
X195130405Y-164163087D01*
X195035167Y-164210707D01*
X194987548Y-164258326D01*
X194939929Y-164353564D01*
X194939929Y-164448802D01*
X194987548Y-164591659D01*
X195558976Y-165163087D01*
X194939929Y-165163087D01*
G04 #@! TO.C,C1*
X191390834Y-192669607D02*
X191441659Y-192625426D01*
X191499128Y-192486238D01*
X191505771Y-192391232D01*
X191468233Y-192245401D01*
X191379871Y-192143752D01*
X191288186Y-192089605D01*
X191101496Y-192028815D01*
X190958987Y-192018850D01*
X190765653Y-192053066D01*
X190667325Y-192093926D01*
X190565675Y-192182288D01*
X190508207Y-192321476D01*
X190501563Y-192416482D01*
X190539101Y-192562313D01*
X190583283Y-192613137D01*
X191419406Y-193626311D02*
X191459267Y-193056275D01*
X191439336Y-193341293D02*
X190441772Y-193271537D01*
X190590925Y-193186496D01*
X190692574Y-193098133D01*
X190746721Y-193006449D01*
G04 #@! TO.C,C2*
X214642060Y-184276241D02*
X214703094Y-184247781D01*
X214796702Y-184129825D01*
X214829275Y-184040331D01*
X214833388Y-183889802D01*
X214776467Y-183767734D01*
X214703259Y-183690414D01*
X214540556Y-183580520D01*
X214406314Y-183531660D01*
X214211039Y-183511260D01*
X214105257Y-183523434D01*
X213983190Y-183580356D01*
X213889582Y-183698311D01*
X213857009Y-183787805D01*
X213852896Y-183938334D01*
X213881357Y-183999368D01*
X213751063Y-184357346D02*
X213690029Y-184385806D01*
X213612709Y-184459014D01*
X213531276Y-184682751D01*
X213543449Y-184788532D01*
X213571910Y-184849566D01*
X213645118Y-184926886D01*
X213734612Y-184959460D01*
X213885141Y-184963572D01*
X214617548Y-184622045D01*
X214405821Y-185203760D01*
G04 #@! TO.C,C4*
X188153451Y-180934462D02*
X188182517Y-180906393D01*
X188212580Y-180821191D01*
X188213577Y-180764056D01*
X188186506Y-180677856D01*
X188130369Y-180619725D01*
X188073733Y-180590161D01*
X187959964Y-180559599D01*
X187874262Y-180558103D01*
X187759495Y-180584676D01*
X187701863Y-180612245D01*
X187643731Y-180668382D01*
X187613668Y-180753585D01*
X187612671Y-180810719D01*
X187639742Y-180896919D01*
X187667811Y-180925985D01*
X187801670Y-181442685D02*
X188201609Y-181449666D01*
X187575627Y-181295861D02*
X188006626Y-181160505D01*
X188000144Y-181531877D01*
G04 #@! TO.C,C5*
X213292060Y-183876241D02*
X213353094Y-183847781D01*
X213446702Y-183729825D01*
X213479275Y-183640331D01*
X213483388Y-183489802D01*
X213426467Y-183367734D01*
X213353259Y-183290414D01*
X213190556Y-183180520D01*
X213056314Y-183131660D01*
X212861039Y-183111260D01*
X212755257Y-183123434D01*
X212633190Y-183180356D01*
X212539582Y-183298311D01*
X212507009Y-183387805D01*
X212502896Y-183538334D01*
X212531357Y-183599368D01*
X212132415Y-184416992D02*
X212295282Y-183969520D01*
X212759042Y-184087639D01*
X212698008Y-184116100D01*
X212620687Y-184189308D01*
X212539254Y-184413044D01*
X212551428Y-184518825D01*
X212579888Y-184579859D01*
X212653096Y-184657180D01*
X212876832Y-184738613D01*
X212982614Y-184726439D01*
X213043648Y-184697979D01*
X213120968Y-184624771D01*
X213202401Y-184401034D01*
X213190228Y-184295253D01*
X213161767Y-184234219D01*
G04 #@! TO.C,C6*
X205706595Y-179244040D02*
X205754214Y-179196421D01*
X205801833Y-179053564D01*
X205801833Y-178958326D01*
X205754214Y-178815468D01*
X205658976Y-178720230D01*
X205563738Y-178672611D01*
X205373262Y-178624992D01*
X205230405Y-178624992D01*
X205039929Y-178672611D01*
X204944691Y-178720230D01*
X204849453Y-178815468D01*
X204801833Y-178958326D01*
X204801833Y-179053564D01*
X204849453Y-179196421D01*
X204897072Y-179244040D01*
X204801833Y-180101183D02*
X204801833Y-179910707D01*
X204849453Y-179815468D01*
X204897072Y-179767849D01*
X205039929Y-179672611D01*
X205230405Y-179624992D01*
X205611357Y-179624992D01*
X205706595Y-179672611D01*
X205754214Y-179720230D01*
X205801833Y-179815468D01*
X205801833Y-180005945D01*
X205754214Y-180101183D01*
X205706595Y-180148802D01*
X205611357Y-180196421D01*
X205373262Y-180196421D01*
X205278024Y-180148802D01*
X205230405Y-180101183D01*
X205182786Y-180005945D01*
X205182786Y-179815468D01*
X205230405Y-179720230D01*
X205278024Y-179672611D01*
X205373262Y-179624992D01*
G04 #@! TO.C,C7*
X207306595Y-179244040D02*
X207354214Y-179196421D01*
X207401833Y-179053564D01*
X207401833Y-178958326D01*
X207354214Y-178815468D01*
X207258976Y-178720230D01*
X207163738Y-178672611D01*
X206973262Y-178624992D01*
X206830405Y-178624992D01*
X206639929Y-178672611D01*
X206544691Y-178720230D01*
X206449453Y-178815468D01*
X206401833Y-178958326D01*
X206401833Y-179053564D01*
X206449453Y-179196421D01*
X206497072Y-179244040D01*
X206401833Y-179577373D02*
X206401833Y-180244040D01*
X207401833Y-179815468D01*
G04 #@! TO.C,C8*
X203416119Y-170167849D02*
X203463738Y-170215468D01*
X203606595Y-170263087D01*
X203701833Y-170263087D01*
X203844691Y-170215468D01*
X203939929Y-170120230D01*
X203987548Y-170024992D01*
X204035167Y-169834516D01*
X204035167Y-169691659D01*
X203987548Y-169501183D01*
X203939929Y-169405945D01*
X203844691Y-169310707D01*
X203701833Y-169263087D01*
X203606595Y-169263087D01*
X203463738Y-169310707D01*
X203416119Y-169358326D01*
X202844691Y-169691659D02*
X202939929Y-169644040D01*
X202987548Y-169596421D01*
X203035167Y-169501183D01*
X203035167Y-169453564D01*
X202987548Y-169358326D01*
X202939929Y-169310707D01*
X202844691Y-169263087D01*
X202654214Y-169263087D01*
X202558976Y-169310707D01*
X202511357Y-169358326D01*
X202463738Y-169453564D01*
X202463738Y-169501183D01*
X202511357Y-169596421D01*
X202558976Y-169644040D01*
X202654214Y-169691659D01*
X202844691Y-169691659D01*
X202939929Y-169739278D01*
X202987548Y-169786897D01*
X203035167Y-169882135D01*
X203035167Y-170072611D01*
X202987548Y-170167849D01*
X202939929Y-170215468D01*
X202844691Y-170263087D01*
X202654214Y-170263087D01*
X202558976Y-170215468D01*
X202511357Y-170167849D01*
X202463738Y-170072611D01*
X202463738Y-169882135D01*
X202511357Y-169786897D01*
X202558976Y-169739278D01*
X202654214Y-169691659D01*
G04 #@! TO.C,C9*
X208116119Y-168567849D02*
X208163738Y-168615468D01*
X208306595Y-168663087D01*
X208401833Y-168663087D01*
X208544691Y-168615468D01*
X208639929Y-168520230D01*
X208687548Y-168424992D01*
X208735167Y-168234516D01*
X208735167Y-168091659D01*
X208687548Y-167901183D01*
X208639929Y-167805945D01*
X208544691Y-167710707D01*
X208401833Y-167663087D01*
X208306595Y-167663087D01*
X208163738Y-167710707D01*
X208116119Y-167758326D01*
X207639929Y-168663087D02*
X207449453Y-168663087D01*
X207354214Y-168615468D01*
X207306595Y-168567849D01*
X207211357Y-168424992D01*
X207163738Y-168234516D01*
X207163738Y-167853564D01*
X207211357Y-167758326D01*
X207258976Y-167710707D01*
X207354214Y-167663087D01*
X207544691Y-167663087D01*
X207639929Y-167710707D01*
X207687548Y-167758326D01*
X207735167Y-167853564D01*
X207735167Y-168091659D01*
X207687548Y-168186897D01*
X207639929Y-168234516D01*
X207544691Y-168282135D01*
X207354214Y-168282135D01*
X207258976Y-168234516D01*
X207211357Y-168186897D01*
X207163738Y-168091659D01*
G04 #@! TO.C,C10*
X200406595Y-156067849D02*
X200454214Y-156020230D01*
X200501833Y-155877373D01*
X200501833Y-155782135D01*
X200454214Y-155639278D01*
X200358976Y-155544040D01*
X200263738Y-155496421D01*
X200073262Y-155448802D01*
X199930405Y-155448802D01*
X199739929Y-155496421D01*
X199644691Y-155544040D01*
X199549453Y-155639278D01*
X199501833Y-155782135D01*
X199501833Y-155877373D01*
X199549453Y-156020230D01*
X199597072Y-156067849D01*
X200501833Y-157020230D02*
X200501833Y-156448802D01*
X200501833Y-156734516D02*
X199501833Y-156734516D01*
X199644691Y-156639278D01*
X199739929Y-156544040D01*
X199787548Y-156448802D01*
X199501833Y-157639278D02*
X199501833Y-157734516D01*
X199549453Y-157829754D01*
X199597072Y-157877373D01*
X199692310Y-157924992D01*
X199882786Y-157972611D01*
X200120881Y-157972611D01*
X200311357Y-157924992D01*
X200406595Y-157877373D01*
X200454214Y-157829754D01*
X200501833Y-157734516D01*
X200501833Y-157639278D01*
X200454214Y-157544040D01*
X200406595Y-157496421D01*
X200311357Y-157448802D01*
X200120881Y-157401183D01*
X199882786Y-157401183D01*
X199692310Y-157448802D01*
X199597072Y-157496421D01*
X199549453Y-157544040D01*
X199501833Y-157639278D01*
G04 #@! TO.C,C11*
X198781595Y-156092849D02*
X198829214Y-156045230D01*
X198876833Y-155902373D01*
X198876833Y-155807135D01*
X198829214Y-155664278D01*
X198733976Y-155569040D01*
X198638738Y-155521421D01*
X198448262Y-155473802D01*
X198305405Y-155473802D01*
X198114929Y-155521421D01*
X198019691Y-155569040D01*
X197924453Y-155664278D01*
X197876833Y-155807135D01*
X197876833Y-155902373D01*
X197924453Y-156045230D01*
X197972072Y-156092849D01*
X198876833Y-157045230D02*
X198876833Y-156473802D01*
X198876833Y-156759516D02*
X197876833Y-156759516D01*
X198019691Y-156664278D01*
X198114929Y-156569040D01*
X198162548Y-156473802D01*
X198876833Y-157997611D02*
X198876833Y-157426183D01*
X198876833Y-157711897D02*
X197876833Y-157711897D01*
X198019691Y-157616659D01*
X198114929Y-157521421D01*
X198162548Y-157426183D01*
G04 #@! TO.C,C12*
X200992310Y-171767849D02*
X201039929Y-171815468D01*
X201182786Y-171863087D01*
X201278024Y-171863087D01*
X201420881Y-171815468D01*
X201516119Y-171720230D01*
X201563738Y-171624992D01*
X201611357Y-171434516D01*
X201611357Y-171291659D01*
X201563738Y-171101183D01*
X201516119Y-171005945D01*
X201420881Y-170910707D01*
X201278024Y-170863087D01*
X201182786Y-170863087D01*
X201039929Y-170910707D01*
X200992310Y-170958326D01*
X200039929Y-171863087D02*
X200611357Y-171863087D01*
X200325643Y-171863087D02*
X200325643Y-170863087D01*
X200420881Y-171005945D01*
X200516119Y-171101183D01*
X200611357Y-171148802D01*
X199658976Y-170958326D02*
X199611357Y-170910707D01*
X199516119Y-170863087D01*
X199278024Y-170863087D01*
X199182786Y-170910707D01*
X199135167Y-170958326D01*
X199087548Y-171053564D01*
X199087548Y-171148802D01*
X199135167Y-171291659D01*
X199706595Y-171863087D01*
X199087548Y-171863087D01*
G04 #@! TO.C,C13*
X201002310Y-170097849D02*
X201049929Y-170145468D01*
X201192786Y-170193087D01*
X201288024Y-170193087D01*
X201430881Y-170145468D01*
X201526119Y-170050230D01*
X201573738Y-169954992D01*
X201621357Y-169764516D01*
X201621357Y-169621659D01*
X201573738Y-169431183D01*
X201526119Y-169335945D01*
X201430881Y-169240707D01*
X201288024Y-169193087D01*
X201192786Y-169193087D01*
X201049929Y-169240707D01*
X201002310Y-169288326D01*
X200049929Y-170193087D02*
X200621357Y-170193087D01*
X200335643Y-170193087D02*
X200335643Y-169193087D01*
X200430881Y-169335945D01*
X200526119Y-169431183D01*
X200621357Y-169478802D01*
X199716595Y-169193087D02*
X199097548Y-169193087D01*
X199430881Y-169574040D01*
X199288024Y-169574040D01*
X199192786Y-169621659D01*
X199145167Y-169669278D01*
X199097548Y-169764516D01*
X199097548Y-170002611D01*
X199145167Y-170097849D01*
X199192786Y-170145468D01*
X199288024Y-170193087D01*
X199573738Y-170193087D01*
X199668976Y-170145468D01*
X199716595Y-170097849D01*
G04 #@! TO.C,C14*
X194812310Y-169917849D02*
X194859929Y-169965468D01*
X195002786Y-170013087D01*
X195098024Y-170013087D01*
X195240881Y-169965468D01*
X195336119Y-169870230D01*
X195383738Y-169774992D01*
X195431357Y-169584516D01*
X195431357Y-169441659D01*
X195383738Y-169251183D01*
X195336119Y-169155945D01*
X195240881Y-169060707D01*
X195098024Y-169013087D01*
X195002786Y-169013087D01*
X194859929Y-169060707D01*
X194812310Y-169108326D01*
X193859929Y-170013087D02*
X194431357Y-170013087D01*
X194145643Y-170013087D02*
X194145643Y-169013087D01*
X194240881Y-169155945D01*
X194336119Y-169251183D01*
X194431357Y-169298802D01*
X193002786Y-169346421D02*
X193002786Y-170013087D01*
X193240881Y-168965468D02*
X193478976Y-169679754D01*
X192859929Y-169679754D01*
G04 #@! TO.C,L1*
X192721833Y-158689040D02*
X192721833Y-158212849D01*
X191721833Y-158212849D01*
X192721833Y-159546183D02*
X192721833Y-158974754D01*
X192721833Y-159260468D02*
X191721833Y-159260468D01*
X191864691Y-159165230D01*
X191959929Y-159069992D01*
X192007548Y-158974754D01*
G04 #@! TO.C,L2*
X194419954Y-147566235D02*
X194658050Y-147978628D01*
X195524075Y-147478628D01*
X195060644Y-146866418D02*
X195078074Y-146801369D01*
X195071694Y-146695081D01*
X194952647Y-146488884D01*
X194863788Y-146430215D01*
X194798739Y-146412785D01*
X194692451Y-146419165D01*
X194609973Y-146466784D01*
X194510064Y-146579452D01*
X194300907Y-147360038D01*
X193991383Y-146823927D01*
G04 #@! TO.C,MUX1*
X196288051Y-149978991D02*
X197154076Y-149478991D01*
X196368820Y-149547458D01*
X196820743Y-148901640D01*
X195954718Y-149401640D01*
X196582648Y-148489247D02*
X195881580Y-148894009D01*
X195775292Y-148900389D01*
X195710243Y-148882959D01*
X195621384Y-148824290D01*
X195526146Y-148659333D01*
X195519767Y-148553045D01*
X195537196Y-148487996D01*
X195595865Y-148399137D01*
X196296934Y-147994376D01*
X196106457Y-147664461D02*
X194907099Y-147587111D01*
X195773124Y-147087111D02*
X195240432Y-148164461D01*
X194454718Y-146803564D02*
X194740432Y-147298436D01*
X194597575Y-147051000D02*
X195463600Y-146551000D01*
X195387501Y-146704907D01*
X195352642Y-146835005D01*
X195359022Y-146941293D01*
G04 #@! TO.C,MUX2*
X203558976Y-168263087D02*
X203558976Y-167263087D01*
X203225643Y-167977373D01*
X202892310Y-167263087D01*
X202892310Y-168263087D01*
X202416119Y-167263087D02*
X202416119Y-168072611D01*
X202368500Y-168167849D01*
X202320881Y-168215468D01*
X202225643Y-168263087D01*
X202035167Y-168263087D01*
X201939929Y-168215468D01*
X201892310Y-168167849D01*
X201844691Y-168072611D01*
X201844691Y-167263087D01*
X201463738Y-167263087D02*
X200797072Y-168263087D01*
X200797072Y-167263087D02*
X201463738Y-168263087D01*
X200463738Y-167358326D02*
X200416119Y-167310707D01*
X200320881Y-167263087D01*
X200082786Y-167263087D01*
X199987548Y-167310707D01*
X199939929Y-167358326D01*
X199892310Y-167453564D01*
X199892310Y-167548802D01*
X199939929Y-167691659D01*
X200511357Y-168263087D01*
X199892310Y-168263087D01*
G04 #@! TO.C,MUX3*
X207651833Y-171351183D02*
X206651833Y-171351183D01*
X207366119Y-171684516D01*
X206651833Y-172017849D01*
X207651833Y-172017849D01*
X206651833Y-172494040D02*
X207461357Y-172494040D01*
X207556595Y-172541659D01*
X207604214Y-172589278D01*
X207651833Y-172684516D01*
X207651833Y-172874992D01*
X207604214Y-172970230D01*
X207556595Y-173017849D01*
X207461357Y-173065468D01*
X206651833Y-173065468D01*
X206651833Y-173446421D02*
X207651833Y-174113087D01*
X206651833Y-174113087D02*
X207651833Y-173446421D01*
X206651833Y-174398802D02*
X206651833Y-175017849D01*
X207032786Y-174684516D01*
X207032786Y-174827373D01*
X207080405Y-174922611D01*
X207128024Y-174970230D01*
X207223262Y-175017849D01*
X207461357Y-175017849D01*
X207556595Y-174970230D01*
X207604214Y-174922611D01*
X207651833Y-174827373D01*
X207651833Y-174541659D01*
X207604214Y-174446421D01*
X207556595Y-174398802D01*
G04 #@! TO.C,MUX4*
X213679354Y-191129206D02*
X212739662Y-190787186D01*
X213296864Y-191344717D01*
X212511648Y-191413647D01*
X213451341Y-191755667D01*
X212348781Y-191861120D02*
X213109485Y-192137993D01*
X213182693Y-192215314D01*
X213211153Y-192276348D01*
X213223327Y-192382129D01*
X213158181Y-192561118D01*
X213080860Y-192634326D01*
X213019826Y-192662787D01*
X212914045Y-192674961D01*
X212153341Y-192398087D01*
X212023048Y-192756065D02*
X212734727Y-193724547D01*
X211795034Y-193382527D02*
X212962741Y-193098086D01*
X211831392Y-194257237D02*
X212457854Y-194485251D01*
X211554847Y-193903208D02*
X212307489Y-193923771D01*
X212095763Y-194505486D01*
G04 #@! TO.C,Q2*
X189774691Y-169288326D02*
X189869929Y-169240707D01*
X189965167Y-169145468D01*
X190108024Y-169002611D01*
X190203262Y-168954992D01*
X190298500Y-168954992D01*
X190250881Y-169193087D02*
X190346119Y-169145468D01*
X190441357Y-169050230D01*
X190488976Y-168859754D01*
X190488976Y-168526421D01*
X190441357Y-168335945D01*
X190346119Y-168240707D01*
X190250881Y-168193087D01*
X190060405Y-168193087D01*
X189965167Y-168240707D01*
X189869929Y-168335945D01*
X189822310Y-168526421D01*
X189822310Y-168859754D01*
X189869929Y-169050230D01*
X189965167Y-169145468D01*
X190060405Y-169193087D01*
X190250881Y-169193087D01*
X189441357Y-168288326D02*
X189393738Y-168240707D01*
X189298500Y-168193087D01*
X189060405Y-168193087D01*
X188965167Y-168240707D01*
X188917548Y-168288326D01*
X188869929Y-168383564D01*
X188869929Y-168478802D01*
X188917548Y-168621659D01*
X189488976Y-169193087D01*
X188869929Y-169193087D01*
G04 #@! TO.C,R1*
X200719191Y-190326363D02*
X200261099Y-189968565D01*
X200749097Y-189755718D02*
X199750468Y-189703382D01*
X199730530Y-190083812D01*
X199773100Y-190181412D01*
X199818161Y-190231458D01*
X199910777Y-190283996D01*
X200053438Y-190291472D01*
X200151038Y-190248903D01*
X200201084Y-190203841D01*
X200253622Y-190111226D01*
X200273560Y-189730796D01*
X200669347Y-191277439D02*
X200699254Y-190706793D01*
X200684301Y-190992116D02*
X199685671Y-190939780D01*
X199833317Y-190852149D01*
X199933409Y-190762026D01*
X199985947Y-190669411D01*
G04 #@! TO.C,R2*
X191716119Y-162163087D02*
X192049453Y-161686897D01*
X192287548Y-162163087D02*
X192287548Y-161163087D01*
X191906595Y-161163087D01*
X191811357Y-161210707D01*
X191763738Y-161258326D01*
X191716119Y-161353564D01*
X191716119Y-161496421D01*
X191763738Y-161591659D01*
X191811357Y-161639278D01*
X191906595Y-161686897D01*
X192287548Y-161686897D01*
X191335167Y-161258326D02*
X191287548Y-161210707D01*
X191192310Y-161163087D01*
X190954214Y-161163087D01*
X190858976Y-161210707D01*
X190811357Y-161258326D01*
X190763738Y-161353564D01*
X190763738Y-161448802D01*
X190811357Y-161591659D01*
X191382786Y-162163087D01*
X190763738Y-162163087D01*
G04 #@! TO.C,R3*
X191816119Y-163663087D02*
X192149453Y-163186897D01*
X192387548Y-163663087D02*
X192387548Y-162663087D01*
X192006595Y-162663087D01*
X191911357Y-162710707D01*
X191863738Y-162758326D01*
X191816119Y-162853564D01*
X191816119Y-162996421D01*
X191863738Y-163091659D01*
X191911357Y-163139278D01*
X192006595Y-163186897D01*
X192387548Y-163186897D01*
X191482786Y-162663087D02*
X190863738Y-162663087D01*
X191197072Y-163044040D01*
X191054214Y-163044040D01*
X190958976Y-163091659D01*
X190911357Y-163139278D01*
X190863738Y-163234516D01*
X190863738Y-163472611D01*
X190911357Y-163567849D01*
X190958976Y-163615468D01*
X191054214Y-163663087D01*
X191339929Y-163663087D01*
X191435167Y-163615468D01*
X191482786Y-163567849D01*
G04 #@! TO.C,R5*
X205138875Y-201575754D02*
X204687096Y-201210016D01*
X205178735Y-201005718D02*
X204181171Y-200935961D01*
X204154597Y-201315986D01*
X204195457Y-201414313D01*
X204239638Y-201465138D01*
X204331323Y-201519285D01*
X204473832Y-201529250D01*
X204572160Y-201488390D01*
X204622984Y-201444209D01*
X204677131Y-201352525D01*
X204703705Y-200972500D01*
X204078198Y-202408556D02*
X204111415Y-201933525D01*
X204589767Y-201919240D01*
X204538942Y-201963421D01*
X204484796Y-202055105D01*
X204468187Y-202292621D01*
X204509047Y-202390948D01*
X204553228Y-202441773D01*
X204644912Y-202495920D01*
X204882428Y-202512528D01*
X204980755Y-202471669D01*
X205031580Y-202427487D01*
X205085727Y-202335803D01*
X205102335Y-202098288D01*
X205061476Y-201999960D01*
X205017295Y-201949135D01*
G04 #@! TO.C,R6*
X198316119Y-176963087D02*
X198649453Y-176486897D01*
X198887548Y-176963087D02*
X198887548Y-175963087D01*
X198506595Y-175963087D01*
X198411357Y-176010707D01*
X198363738Y-176058326D01*
X198316119Y-176153564D01*
X198316119Y-176296421D01*
X198363738Y-176391659D01*
X198411357Y-176439278D01*
X198506595Y-176486897D01*
X198887548Y-176486897D01*
X197458976Y-175963087D02*
X197649453Y-175963087D01*
X197744691Y-176010707D01*
X197792310Y-176058326D01*
X197887548Y-176201183D01*
X197935167Y-176391659D01*
X197935167Y-176772611D01*
X197887548Y-176867849D01*
X197839929Y-176915468D01*
X197744691Y-176963087D01*
X197554214Y-176963087D01*
X197458976Y-176915468D01*
X197411357Y-176867849D01*
X197363738Y-176772611D01*
X197363738Y-176534516D01*
X197411357Y-176439278D01*
X197458976Y-176391659D01*
X197554214Y-176344040D01*
X197744691Y-176344040D01*
X197839929Y-176391659D01*
X197887548Y-176439278D01*
X197935167Y-176534516D01*
G04 #@! TO.C,R7*
X206216119Y-160563087D02*
X206549453Y-160086897D01*
X206787548Y-160563087D02*
X206787548Y-159563087D01*
X206406595Y-159563087D01*
X206311357Y-159610707D01*
X206263738Y-159658326D01*
X206216119Y-159753564D01*
X206216119Y-159896421D01*
X206263738Y-159991659D01*
X206311357Y-160039278D01*
X206406595Y-160086897D01*
X206787548Y-160086897D01*
X205882786Y-159563087D02*
X205216119Y-159563087D01*
X205644691Y-160563087D01*
G04 #@! TO.C,R8*
X191031833Y-140131540D02*
X190555643Y-139798207D01*
X191031833Y-139560111D02*
X190031833Y-139560111D01*
X190031833Y-139941064D01*
X190079453Y-140036302D01*
X190127072Y-140083921D01*
X190222310Y-140131540D01*
X190365167Y-140131540D01*
X190460405Y-140083921D01*
X190508024Y-140036302D01*
X190555643Y-139941064D01*
X190555643Y-139560111D01*
X190460405Y-140702968D02*
X190412786Y-140607730D01*
X190365167Y-140560111D01*
X190269929Y-140512492D01*
X190222310Y-140512492D01*
X190127072Y-140560111D01*
X190079453Y-140607730D01*
X190031833Y-140702968D01*
X190031833Y-140893445D01*
X190079453Y-140988683D01*
X190127072Y-141036302D01*
X190222310Y-141083921D01*
X190269929Y-141083921D01*
X190365167Y-141036302D01*
X190412786Y-140988683D01*
X190460405Y-140893445D01*
X190460405Y-140702968D01*
X190508024Y-140607730D01*
X190555643Y-140560111D01*
X190650881Y-140512492D01*
X190841357Y-140512492D01*
X190936595Y-140560111D01*
X190984214Y-140607730D01*
X191031833Y-140702968D01*
X191031833Y-140893445D01*
X190984214Y-140988683D01*
X190936595Y-141036302D01*
X190841357Y-141083921D01*
X190650881Y-141083921D01*
X190555643Y-141036302D01*
X190508024Y-140988683D01*
X190460405Y-140893445D01*
G04 #@! TO.C,R9*
X188031833Y-140144040D02*
X187555643Y-139810707D01*
X188031833Y-139572611D02*
X187031833Y-139572611D01*
X187031833Y-139953564D01*
X187079453Y-140048802D01*
X187127072Y-140096421D01*
X187222310Y-140144040D01*
X187365167Y-140144040D01*
X187460405Y-140096421D01*
X187508024Y-140048802D01*
X187555643Y-139953564D01*
X187555643Y-139572611D01*
X188031833Y-140620230D02*
X188031833Y-140810707D01*
X187984214Y-140905945D01*
X187936595Y-140953564D01*
X187793738Y-141048802D01*
X187603262Y-141096421D01*
X187222310Y-141096421D01*
X187127072Y-141048802D01*
X187079453Y-141001183D01*
X187031833Y-140905945D01*
X187031833Y-140715468D01*
X187079453Y-140620230D01*
X187127072Y-140572611D01*
X187222310Y-140524992D01*
X187460405Y-140524992D01*
X187555643Y-140572611D01*
X187603262Y-140620230D01*
X187650881Y-140715468D01*
X187650881Y-140905945D01*
X187603262Y-141001183D01*
X187555643Y-141048802D01*
X187460405Y-141096421D01*
G04 #@! TO.C,R10*
X189002310Y-184983087D02*
X189335643Y-184506897D01*
X189573738Y-184983087D02*
X189573738Y-183983087D01*
X189192786Y-183983087D01*
X189097548Y-184030707D01*
X189049929Y-184078326D01*
X189002310Y-184173564D01*
X189002310Y-184316421D01*
X189049929Y-184411659D01*
X189097548Y-184459278D01*
X189192786Y-184506897D01*
X189573738Y-184506897D01*
X188049929Y-184983087D02*
X188621357Y-184983087D01*
X188335643Y-184983087D02*
X188335643Y-183983087D01*
X188430881Y-184125945D01*
X188526119Y-184221183D01*
X188621357Y-184268802D01*
X187430881Y-183983087D02*
X187335643Y-183983087D01*
X187240405Y-184030707D01*
X187192786Y-184078326D01*
X187145167Y-184173564D01*
X187097548Y-184364040D01*
X187097548Y-184602135D01*
X187145167Y-184792611D01*
X187192786Y-184887849D01*
X187240405Y-184935468D01*
X187335643Y-184983087D01*
X187430881Y-184983087D01*
X187526119Y-184935468D01*
X187573738Y-184887849D01*
X187621357Y-184792611D01*
X187668976Y-184602135D01*
X187668976Y-184364040D01*
X187621357Y-184173564D01*
X187573738Y-184078326D01*
X187526119Y-184030707D01*
X187430881Y-183983087D01*
G04 #@! TO.C,R11*
X193150436Y-196817395D02*
X193524003Y-196372068D01*
X193719690Y-196867198D02*
X193806846Y-195871003D01*
X193427343Y-195837801D01*
X193328317Y-195876938D01*
X193276729Y-195920226D01*
X193220990Y-196010951D01*
X193208540Y-196153265D01*
X193247677Y-196252291D01*
X193290964Y-196303879D01*
X193381690Y-196359617D01*
X193761193Y-196392820D01*
X192201679Y-196734389D02*
X192770933Y-196784193D01*
X192486306Y-196759291D02*
X192573462Y-195763096D01*
X192655887Y-195913710D01*
X192742462Y-196016886D01*
X192833187Y-196072625D01*
X191252922Y-196651384D02*
X191822176Y-196701187D01*
X191537549Y-196676285D02*
X191624705Y-195680091D01*
X191707130Y-195830705D01*
X191793705Y-195933881D01*
X191884430Y-195989619D01*
G04 #@! TO.C,R12*
X193701833Y-175467849D02*
X193225643Y-175134516D01*
X193701833Y-174896421D02*
X192701833Y-174896421D01*
X192701833Y-175277373D01*
X192749453Y-175372611D01*
X192797072Y-175420230D01*
X192892310Y-175467849D01*
X193035167Y-175467849D01*
X193130405Y-175420230D01*
X193178024Y-175372611D01*
X193225643Y-175277373D01*
X193225643Y-174896421D01*
X193701833Y-176420230D02*
X193701833Y-175848802D01*
X193701833Y-176134516D02*
X192701833Y-176134516D01*
X192844691Y-176039278D01*
X192939929Y-175944040D01*
X192987548Y-175848802D01*
X192797072Y-176801183D02*
X192749453Y-176848802D01*
X192701833Y-176944040D01*
X192701833Y-177182135D01*
X192749453Y-177277373D01*
X192797072Y-177324992D01*
X192892310Y-177372611D01*
X192987548Y-177372611D01*
X193130405Y-177324992D01*
X193701833Y-176753564D01*
X193701833Y-177372611D01*
G04 #@! TO.C,R13*
X196701833Y-172667849D02*
X196225643Y-172334516D01*
X196701833Y-172096421D02*
X195701833Y-172096421D01*
X195701833Y-172477373D01*
X195749453Y-172572611D01*
X195797072Y-172620230D01*
X195892310Y-172667849D01*
X196035167Y-172667849D01*
X196130405Y-172620230D01*
X196178024Y-172572611D01*
X196225643Y-172477373D01*
X196225643Y-172096421D01*
X196701833Y-173620230D02*
X196701833Y-173048802D01*
X196701833Y-173334516D02*
X195701833Y-173334516D01*
X195844691Y-173239278D01*
X195939929Y-173144040D01*
X195987548Y-173048802D01*
X195701833Y-173953564D02*
X195701833Y-174572611D01*
X196082786Y-174239278D01*
X196082786Y-174382135D01*
X196130405Y-174477373D01*
X196178024Y-174524992D01*
X196273262Y-174572611D01*
X196511357Y-174572611D01*
X196606595Y-174524992D01*
X196654214Y-174477373D01*
X196701833Y-174382135D01*
X196701833Y-174096421D01*
X196654214Y-174001183D01*
X196606595Y-173953564D01*
G04 #@! TO.C,R14*
X191500881Y-170504992D02*
X191215167Y-170304992D01*
X191500881Y-170162135D02*
X190900881Y-170162135D01*
X190900881Y-170390707D01*
X190929453Y-170447849D01*
X190958024Y-170476421D01*
X191015167Y-170504992D01*
X191100881Y-170504992D01*
X191158024Y-170476421D01*
X191186595Y-170447849D01*
X191215167Y-170390707D01*
X191215167Y-170162135D01*
X191500881Y-171076421D02*
X191500881Y-170733564D01*
X191500881Y-170904992D02*
X190900881Y-170904992D01*
X190986595Y-170847849D01*
X191043738Y-170790707D01*
X191072310Y-170733564D01*
X191100881Y-171590707D02*
X191500881Y-171590707D01*
X190872310Y-171447849D02*
X191300881Y-171304992D01*
X191300881Y-171676421D01*
G04 #@! TO.C,U1*
X196060021Y-187054412D02*
X196021891Y-187781985D01*
X195974606Y-187865339D01*
X195929565Y-187905895D01*
X195841725Y-187944207D01*
X195670532Y-187935235D01*
X195587178Y-187887951D01*
X195546622Y-187842909D01*
X195508310Y-187755070D01*
X195546440Y-187027497D01*
X194600571Y-187879161D02*
X195114152Y-187906077D01*
X194857362Y-187892619D02*
X194904464Y-186993852D01*
X194983332Y-187126733D01*
X195064443Y-187216816D01*
X195147797Y-187264100D01*
G04 #@! TO.C,U4*
X198832987Y-140972624D02*
X198131919Y-141377386D01*
X198025631Y-141383766D01*
X197960582Y-141366336D01*
X197871723Y-141307667D01*
X197776485Y-141142709D01*
X197770106Y-141036421D01*
X197787535Y-140971372D01*
X197846204Y-140882514D01*
X198547273Y-140477752D01*
X197806217Y-139860872D02*
X197228866Y-140194205D01*
X198255179Y-139876592D02*
X197755637Y-140439932D01*
X197446113Y-139903821D01*
G04 #@! TO.C,U5*
X192305629Y-187692279D02*
X193032426Y-187743101D01*
X193114942Y-187791833D01*
X193154705Y-187837575D01*
X193191478Y-187926070D01*
X193179520Y-188097081D01*
X193130788Y-188179597D01*
X193085046Y-188219360D01*
X192996551Y-188256134D01*
X192269754Y-188205312D01*
X192209963Y-189060366D02*
X192239859Y-188632839D01*
X192670376Y-188619982D01*
X192624633Y-188659745D01*
X192575901Y-188742261D01*
X192560954Y-188956025D01*
X192597727Y-189044520D01*
X192637490Y-189090262D01*
X192720006Y-189138994D01*
X192933770Y-189153942D01*
X193022265Y-189117168D01*
X193068007Y-189077405D01*
X193116739Y-188994889D01*
X193131687Y-188781125D01*
X193094913Y-188692630D01*
X193055150Y-188646888D01*
G04 #@! TO.C,U6*
X194156186Y-200631576D02*
X194085631Y-201438019D01*
X194029893Y-201528744D01*
X193978305Y-201572032D01*
X193879279Y-201611169D01*
X193689528Y-201594568D01*
X193598802Y-201538830D01*
X193555515Y-201487242D01*
X193516377Y-201388216D01*
X193586932Y-200581772D01*
X192685613Y-200502917D02*
X192875364Y-200519518D01*
X192966090Y-200575257D01*
X193009377Y-200626845D01*
X193091802Y-200777459D01*
X193122639Y-200971361D01*
X193089437Y-201350863D01*
X193033698Y-201441589D01*
X192982110Y-201484876D01*
X192883084Y-201524014D01*
X192693333Y-201507412D01*
X192602608Y-201451674D01*
X192559320Y-201400086D01*
X192520183Y-201301060D01*
X192540934Y-201063871D01*
X192596672Y-200973145D01*
X192648261Y-200929858D01*
X192747287Y-200890720D01*
X192937038Y-200907322D01*
X193027763Y-200963060D01*
X193071051Y-201014648D01*
X193110188Y-201113674D01*
G04 #@! TO.C,U7*
X200750469Y-200779874D02*
X201558021Y-200836343D01*
X201649705Y-200890490D01*
X201693887Y-200941315D01*
X201734746Y-201039642D01*
X201721459Y-201229655D01*
X201667313Y-201321339D01*
X201616488Y-201365520D01*
X201518160Y-201406380D01*
X200710608Y-201349910D01*
X200684034Y-201729935D02*
X200637530Y-202394977D01*
X201664990Y-202037206D01*
G04 #@! TO.C,U8*
X199664425Y-209445728D02*
X199579807Y-210250817D01*
X199522494Y-210340556D01*
X199470158Y-210382937D01*
X199370464Y-210420340D01*
X199181031Y-210400430D01*
X199091292Y-210343116D01*
X199048912Y-210290781D01*
X199011509Y-210191087D01*
X199096127Y-209385998D01*
X198435673Y-209747513D02*
X198535367Y-209710110D01*
X198587702Y-209667729D01*
X198645016Y-209577991D01*
X198649993Y-209530632D01*
X198612590Y-209430938D01*
X198570209Y-209378603D01*
X198480471Y-209321289D01*
X198291038Y-209301379D01*
X198191344Y-209338782D01*
X198139008Y-209381163D01*
X198081695Y-209470902D01*
X198076717Y-209518260D01*
X198114120Y-209617954D01*
X198156501Y-209670290D01*
X198246240Y-209727603D01*
X198435673Y-209747513D01*
X198525412Y-209804826D01*
X198567792Y-209857162D01*
X198605195Y-209956856D01*
X198585285Y-210146289D01*
X198527972Y-210236028D01*
X198475636Y-210278408D01*
X198375942Y-210315811D01*
X198186509Y-210295901D01*
X198096771Y-210238588D01*
X198054390Y-210186252D01*
X198016987Y-210086558D01*
X198036897Y-209897125D01*
X198094210Y-209807387D01*
X198146546Y-209765006D01*
X198246240Y-209727603D01*
G04 #@! TO.C,U9*
X189750005Y-209250011D02*
X189721753Y-210059042D01*
X189670839Y-210152560D01*
X189621587Y-210198488D01*
X189524745Y-210242754D01*
X189334385Y-210236107D01*
X189240867Y-210185193D01*
X189194939Y-210135941D01*
X189150672Y-210039099D01*
X189178924Y-209230069D01*
X188620534Y-210211179D02*
X188430174Y-210204531D01*
X188336656Y-210153617D01*
X188290728Y-210104365D01*
X188200533Y-209958272D01*
X188159591Y-209766250D01*
X188172886Y-209385529D01*
X188223800Y-209292011D01*
X188273052Y-209246083D01*
X188369894Y-209201817D01*
X188560254Y-209208464D01*
X188653772Y-209259378D01*
X188699700Y-209308630D01*
X188743966Y-209405472D01*
X188735657Y-209643422D01*
X188684743Y-209736940D01*
X188635491Y-209782868D01*
X188538649Y-209827135D01*
X188348289Y-209820487D01*
X188254771Y-209769573D01*
X188208843Y-209720321D01*
X188164577Y-209623479D01*
G04 #@! TO.C,C15*
X198628060Y-195687276D02*
X198672241Y-195738101D01*
X198811428Y-195795569D01*
X198906434Y-195802212D01*
X199052265Y-195764675D01*
X199153915Y-195676312D01*
X199208061Y-195584628D01*
X199268851Y-195397937D01*
X199278817Y-195255428D01*
X199244601Y-195062094D01*
X199203741Y-194963766D01*
X199115378Y-194862117D01*
X198976191Y-194804648D01*
X198881185Y-194798005D01*
X198735354Y-194835543D01*
X198684529Y-194879724D01*
X197671355Y-195715847D02*
X198241392Y-195755708D01*
X197956373Y-195735778D02*
X198026130Y-194738214D01*
X198111171Y-194887366D01*
X198199533Y-194989016D01*
X198291218Y-195043162D01*
X196838554Y-194655170D02*
X197313584Y-194688388D01*
X197327870Y-195166740D01*
X197283689Y-195115915D01*
X197192004Y-195061768D01*
X196954489Y-195045160D01*
X196856161Y-195086019D01*
X196805336Y-195130201D01*
X196751190Y-195221885D01*
X196734581Y-195459400D01*
X196775441Y-195557728D01*
X196819622Y-195608553D01*
X196911306Y-195662699D01*
X197148822Y-195679308D01*
X197247149Y-195638449D01*
X197297974Y-195594267D01*
G04 #@! TO.C,C16*
X198707367Y-193974195D02*
X198751548Y-194025020D01*
X198890735Y-194082488D01*
X198985741Y-194089131D01*
X199131572Y-194051594D01*
X199233222Y-193963231D01*
X199287368Y-193871547D01*
X199348158Y-193684856D01*
X199358124Y-193542347D01*
X199323908Y-193349013D01*
X199283048Y-193250685D01*
X199194685Y-193149036D01*
X199055498Y-193091567D01*
X198960492Y-193084924D01*
X198814661Y-193122462D01*
X198763836Y-193166643D01*
X197750662Y-194002766D02*
X198320699Y-194042627D01*
X198035680Y-194022697D02*
X198105437Y-193025133D01*
X198190478Y-193174285D01*
X198278840Y-193275935D01*
X198370525Y-193330081D01*
X196965364Y-192945411D02*
X197155376Y-192958698D01*
X197247060Y-193012844D01*
X197291242Y-193063669D01*
X197376283Y-193212822D01*
X197410499Y-193406156D01*
X197383925Y-193786180D01*
X197329778Y-193877864D01*
X197278953Y-193922046D01*
X197180626Y-193962905D01*
X196990613Y-193949618D01*
X196898929Y-193895472D01*
X196854748Y-193844647D01*
X196813888Y-193746319D01*
X196830497Y-193508804D01*
X196884643Y-193417120D01*
X196935468Y-193372938D01*
X197033796Y-193332079D01*
X197223808Y-193345366D01*
X197315493Y-193399512D01*
X197359674Y-193450337D01*
X197400533Y-193548665D01*
G04 #@! TO.C,C17*
X188616595Y-163247849D02*
X188664214Y-163200230D01*
X188711833Y-163057373D01*
X188711833Y-162962135D01*
X188664214Y-162819278D01*
X188568976Y-162724040D01*
X188473738Y-162676421D01*
X188283262Y-162628802D01*
X188140405Y-162628802D01*
X187949929Y-162676421D01*
X187854691Y-162724040D01*
X187759453Y-162819278D01*
X187711833Y-162962135D01*
X187711833Y-163057373D01*
X187759453Y-163200230D01*
X187807072Y-163247849D01*
X188711833Y-164200230D02*
X188711833Y-163628802D01*
X188711833Y-163914516D02*
X187711833Y-163914516D01*
X187854691Y-163819278D01*
X187949929Y-163724040D01*
X187997548Y-163628802D01*
X187711833Y-164533564D02*
X187711833Y-165200230D01*
X188711833Y-164771659D01*
G04 #@! TO.C,Q1*
X195744691Y-182418326D02*
X195839929Y-182370707D01*
X195935167Y-182275468D01*
X196078024Y-182132611D01*
X196173262Y-182084992D01*
X196268500Y-182084992D01*
X196220881Y-182323087D02*
X196316119Y-182275468D01*
X196411357Y-182180230D01*
X196458976Y-181989754D01*
X196458976Y-181656421D01*
X196411357Y-181465945D01*
X196316119Y-181370707D01*
X196220881Y-181323087D01*
X196030405Y-181323087D01*
X195935167Y-181370707D01*
X195839929Y-181465945D01*
X195792310Y-181656421D01*
X195792310Y-181989754D01*
X195839929Y-182180230D01*
X195935167Y-182275468D01*
X196030405Y-182323087D01*
X196220881Y-182323087D01*
X194839929Y-182323087D02*
X195411357Y-182323087D01*
X195125643Y-182323087D02*
X195125643Y-181323087D01*
X195220881Y-181465945D01*
X195316119Y-181561183D01*
X195411357Y-181608802D01*
G04 #@! TO.C,R15*
X200551833Y-181740349D02*
X200075643Y-181407016D01*
X200551833Y-181168921D02*
X199551833Y-181168921D01*
X199551833Y-181549873D01*
X199599453Y-181645111D01*
X199647072Y-181692730D01*
X199742310Y-181740349D01*
X199885167Y-181740349D01*
X199980405Y-181692730D01*
X200028024Y-181645111D01*
X200075643Y-181549873D01*
X200075643Y-181168921D01*
X200551833Y-182692730D02*
X200551833Y-182121302D01*
X200551833Y-182407016D02*
X199551833Y-182407016D01*
X199694691Y-182311778D01*
X199789929Y-182216540D01*
X199837548Y-182121302D01*
X199551833Y-183597492D02*
X199551833Y-183121302D01*
X200028024Y-183073683D01*
X199980405Y-183121302D01*
X199932786Y-183216540D01*
X199932786Y-183454635D01*
X199980405Y-183549873D01*
X200028024Y-183597492D01*
X200123262Y-183645111D01*
X200361357Y-183645111D01*
X200456595Y-183597492D01*
X200504214Y-183549873D01*
X200551833Y-183454635D01*
X200551833Y-183216540D01*
X200504214Y-183121302D01*
X200456595Y-183073683D01*
G04 #@! TO.C,JP2*
X191340881Y-172520707D02*
X191769453Y-172520707D01*
X191855167Y-172492135D01*
X191912310Y-172434992D01*
X191940881Y-172349278D01*
X191940881Y-172292135D01*
X191940881Y-172806421D02*
X191340881Y-172806421D01*
X191340881Y-173034992D01*
X191369453Y-173092135D01*
X191398024Y-173120707D01*
X191455167Y-173149278D01*
X191540881Y-173149278D01*
X191598024Y-173120707D01*
X191626595Y-173092135D01*
X191655167Y-173034992D01*
X191655167Y-172806421D01*
X191398024Y-173377849D02*
X191369453Y-173406421D01*
X191340881Y-173463564D01*
X191340881Y-173606421D01*
X191369453Y-173663564D01*
X191398024Y-173692135D01*
X191455167Y-173720707D01*
X191512310Y-173720707D01*
X191598024Y-173692135D01*
X191940881Y-173349278D01*
X191940881Y-173720707D01*
G04 #@! TO.C,JP3*
X183798881Y-166560707D02*
X184227453Y-166560707D01*
X184313167Y-166532135D01*
X184370310Y-166474992D01*
X184398881Y-166389278D01*
X184398881Y-166332135D01*
X184398881Y-166846421D02*
X183798881Y-166846421D01*
X183798881Y-167074992D01*
X183827453Y-167132135D01*
X183856024Y-167160707D01*
X183913167Y-167189278D01*
X183998881Y-167189278D01*
X184056024Y-167160707D01*
X184084595Y-167132135D01*
X184113167Y-167074992D01*
X184113167Y-166846421D01*
X183798881Y-167389278D02*
X183798881Y-167760707D01*
X184027453Y-167560707D01*
X184027453Y-167646421D01*
X184056024Y-167703564D01*
X184084595Y-167732135D01*
X184141738Y-167760707D01*
X184284595Y-167760707D01*
X184341738Y-167732135D01*
X184370310Y-167703564D01*
X184398881Y-167646421D01*
X184398881Y-167474992D01*
X184370310Y-167417849D01*
X184341738Y-167389278D01*
G04 #@! TO.C,JP5*
X187354881Y-168660707D02*
X187783453Y-168660707D01*
X187869167Y-168632135D01*
X187926310Y-168574992D01*
X187954881Y-168489278D01*
X187954881Y-168432135D01*
X187954881Y-168946421D02*
X187354881Y-168946421D01*
X187354881Y-169174992D01*
X187383453Y-169232135D01*
X187412024Y-169260707D01*
X187469167Y-169289278D01*
X187554881Y-169289278D01*
X187612024Y-169260707D01*
X187640595Y-169232135D01*
X187669167Y-169174992D01*
X187669167Y-168946421D01*
X187354881Y-169832135D02*
X187354881Y-169546421D01*
X187640595Y-169517849D01*
X187612024Y-169546421D01*
X187583453Y-169603564D01*
X187583453Y-169746421D01*
X187612024Y-169803564D01*
X187640595Y-169832135D01*
X187697738Y-169860707D01*
X187840595Y-169860707D01*
X187897738Y-169832135D01*
X187926310Y-169803564D01*
X187954881Y-169746421D01*
X187954881Y-169603564D01*
X187926310Y-169546421D01*
X187897738Y-169517849D01*
G04 #@! TO.C,R16*
X186430881Y-183692992D02*
X186145167Y-183492992D01*
X186430881Y-183350135D02*
X185830881Y-183350135D01*
X185830881Y-183578707D01*
X185859453Y-183635849D01*
X185888024Y-183664421D01*
X185945167Y-183692992D01*
X186030881Y-183692992D01*
X186088024Y-183664421D01*
X186116595Y-183635849D01*
X186145167Y-183578707D01*
X186145167Y-183350135D01*
X186430881Y-184264421D02*
X186430881Y-183921564D01*
X186430881Y-184092992D02*
X185830881Y-184092992D01*
X185916595Y-184035849D01*
X185973738Y-183978707D01*
X186002310Y-183921564D01*
X185830881Y-184778707D02*
X185830881Y-184664421D01*
X185859453Y-184607278D01*
X185888024Y-184578707D01*
X185973738Y-184521564D01*
X186088024Y-184492992D01*
X186316595Y-184492992D01*
X186373738Y-184521564D01*
X186402310Y-184550135D01*
X186430881Y-184607278D01*
X186430881Y-184721564D01*
X186402310Y-184778707D01*
X186373738Y-184807278D01*
X186316595Y-184835849D01*
X186173738Y-184835849D01*
X186116595Y-184807278D01*
X186088024Y-184778707D01*
X186059453Y-184721564D01*
X186059453Y-184607278D01*
X186088024Y-184550135D01*
X186116595Y-184521564D01*
X186173738Y-184492992D01*
G04 #@! TO.C,R17*
X186430881Y-176072992D02*
X186145167Y-175872992D01*
X186430881Y-175730135D02*
X185830881Y-175730135D01*
X185830881Y-175958707D01*
X185859453Y-176015849D01*
X185888024Y-176044421D01*
X185945167Y-176072992D01*
X186030881Y-176072992D01*
X186088024Y-176044421D01*
X186116595Y-176015849D01*
X186145167Y-175958707D01*
X186145167Y-175730135D01*
X186430881Y-176644421D02*
X186430881Y-176301564D01*
X186430881Y-176472992D02*
X185830881Y-176472992D01*
X185916595Y-176415849D01*
X185973738Y-176358707D01*
X186002310Y-176301564D01*
X185830881Y-176844421D02*
X185830881Y-177244421D01*
X186430881Y-176987278D01*
G04 #@! TO.C,U10*
X184390881Y-171737849D02*
X184876595Y-171737849D01*
X184933738Y-171766421D01*
X184962310Y-171794992D01*
X184990881Y-171852135D01*
X184990881Y-171966421D01*
X184962310Y-172023564D01*
X184933738Y-172052135D01*
X184876595Y-172080707D01*
X184390881Y-172080707D01*
X184990881Y-172680707D02*
X184990881Y-172337849D01*
X184990881Y-172509278D02*
X184390881Y-172509278D01*
X184476595Y-172452135D01*
X184533738Y-172394992D01*
X184562310Y-172337849D01*
X184390881Y-173052135D02*
X184390881Y-173109278D01*
X184419453Y-173166421D01*
X184448024Y-173194992D01*
X184505167Y-173223564D01*
X184619453Y-173252135D01*
X184762310Y-173252135D01*
X184876595Y-173223564D01*
X184933738Y-173194992D01*
X184962310Y-173166421D01*
X184990881Y-173109278D01*
X184990881Y-173052135D01*
X184962310Y-172994992D01*
X184933738Y-172966421D01*
X184876595Y-172937849D01*
X184762310Y-172909278D01*
X184619453Y-172909278D01*
X184505167Y-172937849D01*
X184448024Y-172966421D01*
X184419453Y-172994992D01*
X184390881Y-173052135D01*
G04 #@! TD*
M02*
