  0
SECTION
  2
HEADER
  9
$ANGBASE
  50
0.0
  9
$ANGDIR
  70
  1
  9
$MEASUREMENT
  70
0
  0
ENDSEC
  0
SECTION
  2
TABLES
  0
TABLE
  2
LTYPE
  70
4
  0
LTYPE
  5
40F
  2
CONTINUOUS
  70
0
  3
Solid line
  72
65
  73
0
  40
0.0
  0
LTYPE
  5
410
  2
DASHDOT
 70
0
  3
Dash Dot ____ _ ____ _
 72
65
 73
4
 40
2.0
 49
1.25
 49
-0.25
 49
0.25
 49
-0.25
  0
LTYPE
  5
411
  2
DASHED
 70
0
  3
Dashed __ __ __ __ __
 72
65
 73
2
 40
0.75
 49
0.5
 49
-0.25
  0
LTYPE
  5
43B
  2
DOTTED
 70
0
  3
Dotted .  .  .  .
 72
65
 73
2
 40
0.2
 49
0.0
 49
-0.2
  0
ENDTAB
  0
TABLE
  2
STYLE
  70
4
  0
STYLE
  2
KICAD
  70
0
  40
0
  41
1
  42
1
  50
0
  71
0
  3
isocp.shx
  0
STYLE
  2
KICADB
  70
0
  40
0
  41
1
  42
1
  50
0
  71
0
  3
isocp.shx
  0
STYLE
  2
KICADI
  70
0
  40
0
  41
1
  42
1
  50
15
  71
0
  3
isocp.shx
  0
STYLE
  2
KICADBI
  70
0
  40
0
  41
1
  42
1
  50
15
  71
0
  3
isocp.shx
  0
ENDTAB
  0
TABLE
  2
LAYER
  70
30
  0
LAYER
  2
BLACK
  70
0
  62
7
  6
CONTINUOUS
  0
LAYER
  2
GRAY1
  70
0
  62
251
  6
CONTINUOUS
  0
LAYER
  2
GRAY2
  70
0
  62
8
  6
CONTINUOUS
  0
LAYER
  2
GRAY3
  70
0
  62
9
  6
CONTINUOUS
  0
LAYER
  2
WHITE
  70
0
  62
7
  6
CONTINUOUS
  0
LAYER
  2
LYELLOW
  70
0
  62
51
  6
CONTINUOUS
  0
LAYER
  2
BLUE1
  70
0
  62
178
  6
CONTINUOUS
  0
LAYER
  2
GREEN1
  70
0
  62
98
  6
CONTINUOUS
  0
LAYER
  2
CYAN1
  70
0
  62
138
  6
CONTINUOUS
  0
LAYER
  2
RED1
  70
0
  62
18
  6
CONTINUOUS
  0
LAYER
  2
MAGENTA1
  70
0
  62
228
  6
CONTINUOUS
  0
LAYER
  2
BROWN1
  70
0
  62
58
  6
CONTINUOUS
  0
LAYER
  2
BLUE2
  70
0
  62
5
  6
CONTINUOUS
  0
LAYER
  2
GREEN2
  70
0
  62
3
  6
CONTINUOUS
  0
LAYER
  2
CYAN2
  70
0
  62
4
  6
CONTINUOUS
  0
LAYER
  2
RED2
  70
0
  62
1
  6
CONTINUOUS
  0
LAYER
  2
MAGENTA2
  70
0
  62
6
  6
CONTINUOUS
  0
LAYER
  2
BROWN2
  70
0
  62
54
  6
CONTINUOUS
  0
LAYER
  2
BLUE3
  70
0
  62
171
  6
CONTINUOUS
  0
LAYER
  2
GREEN3
  70
0
  62
91
  6
CONTINUOUS
  0
LAYER
  2
CYAN3
  70
0
  62
131
  6
CONTINUOUS
  0
LAYER
  2
RED3
  70
0
  62
11
  6
CONTINUOUS
  0
LAYER
  2
MAGENTA3
  70
0
  62
221
  6
CONTINUOUS
  0
LAYER
  2
YELLOW3
  70
0
  62
2
  6
CONTINUOUS
  0
LAYER
  2
BLUE4
  70
0
  62
5
  6
CONTINUOUS
  0
LAYER
  2
GREEN4
  70
0
  62
3
  6
CONTINUOUS
  0
LAYER
  2
CYAN4
  70
0
  62
4
  6
CONTINUOUS
  0
LAYER
  2
RED4
  70
0
  62
1
  6
CONTINUOUS
  0
LAYER
  2
MAGENTA4
  70
0
  62
6
  6
CONTINUOUS
  0
LAYER
  2
YELLOW4
  70
0
  62
2
  6
CONTINUOUS
  0
ENDTAB
  0
ENDSEC
  0
SECTION
  2
ENTITIES
0
LINE
8
BLACK
6
CONTINUOUS
10
149.928
20
-88.8453
11
150.03
21
-88.9038
0
LINE
8
BLACK
6
CONTINUOUS
10
150.03
20
-88.9038
11
150.105
21
-88.9935
0
LINE
8
BLACK
6
CONTINUOUS
10
150.105
20
-88.9935
11
150.15
21
-89.162
0
LINE
8
BLACK
6
CONTINUOUS
10
150.15
20
-89.162
11
150.15
21
-90.038
0
LINE
8
BLACK
6
CONTINUOUS
10
150.15
20
-90.038
11
150.13
21
-90.1533
0
LINE
8
BLACK
6
CONTINUOUS
10
150.13
20
-90.1533
11
150.071
21
-90.2546
0
LINE
8
BLACK
6
CONTINUOUS
10
150.071
20
-90.2546
11
149.982
21
-90.3299
0
LINE
8
BLACK
6
CONTINUOUS
10
149.982
20
-90.3299
11
149.813
21
-90.375
0
LINE
8
BLACK
6
CONTINUOUS
10
149.813
20
-90.375
11
148.687
21
-90.375
0
LINE
8
BLACK
6
CONTINUOUS
10
148.687
20
-90.375
11
148.572
21
-90.3547
0
LINE
8
BLACK
6
CONTINUOUS
10
148.572
20
-90.3547
11
148.47
21
-90.2962
0
LINE
8
BLACK
6
CONTINUOUS
10
148.47
20
-90.2962
11
148.395
21
-90.2065
0
LINE
8
BLACK
6
CONTINUOUS
10
148.395
20
-90.2065
11
148.35
21
-90.038
0
LINE
8
BLACK
6
CONTINUOUS
10
148.35
20
-90.038
11
148.35
21
-89.162
0
LINE
8
BLACK
6
CONTINUOUS
10
148.35
20
-89.162
11
148.37
21
-89.0467
0
LINE
8
BLACK
6
CONTINUOUS
10
148.37
20
-89.0467
11
148.429
21
-88.9454
0
LINE
8
BLACK
6
CONTINUOUS
10
148.429
20
-88.9454
11
148.518
21
-88.8701
0
LINE
8
BLACK
6
CONTINUOUS
10
148.518
20
-88.8701
11
148.687
21
-88.825
0
LINE
8
BLACK
6
CONTINUOUS
10
148.687
20
-88.825
11
149.813
21
-88.825
0
LINE
8
BLACK
6
CONTINUOUS
10
149.813
20
-88.825
11
149.928
21
-88.8453
0
LINE
8
BLACK
6
CONTINUOUS
10
145.767
20
-88.8036
11
145.925
21
-88.8948
0
LINE
8
BLACK
6
CONTINUOUS
10
145.925
20
-88.8948
11
145.925
21
-88.775
0
LINE
8
BLACK
6
CONTINUOUS
10
145.925
20
-88.775
11
147.175
21
-88.775
0
LINE
8
BLACK
6
CONTINUOUS
10
147.175
20
-88.775
11
147.175
21
-90.025
0
LINE
8
BLACK
6
CONTINUOUS
10
147.175
20
-90.025
11
145.925
21
-90.025
0
LINE
8
BLACK
6
CONTINUOUS
10
145.925
20
-90.025
11
145.925
21
-89.9052
0
LINE
8
BLACK
6
CONTINUOUS
10
145.925
20
-89.9052
11
145.767
21
-89.9964
0
LINE
8
BLACK
6
CONTINUOUS
10
145.767
20
-89.9964
11
145.605
21
-90.025
0
LINE
8
BLACK
6
CONTINUOUS
10
145.605
20
-90.025
11
145.495
21
-90.025
0
LINE
8
BLACK
6
CONTINUOUS
10
145.495
20
-90.025
11
145.333
21
-89.9964
0
LINE
8
BLACK
6
CONTINUOUS
10
145.333
20
-89.9964
11
145.142
21
-89.8862
0
LINE
8
BLACK
6
CONTINUOUS
10
145.142
20
-89.8862
11
145
21
-89.7173
0
LINE
8
BLACK
6
CONTINUOUS
10
145
20
-89.7173
11
144.925
21
-89.5102
0
LINE
8
BLACK
6
CONTINUOUS
10
144.925
20
-89.5102
11
144.925
21
-89.2898
0
LINE
8
BLACK
6
CONTINUOUS
10
144.925
20
-89.2898
11
145
21
-89.0827
0
LINE
8
BLACK
6
CONTINUOUS
10
145
20
-89.0827
11
145.142
21
-88.9138
0
LINE
8
BLACK
6
CONTINUOUS
10
145.142
20
-88.9138
11
145.333
21
-88.8036
0
LINE
8
BLACK
6
CONTINUOUS
10
145.333
20
-88.8036
11
145.495
21
-88.775
0
LINE
8
BLACK
6
CONTINUOUS
10
145.495
20
-88.775
11
145.605
21
-88.775
0
LINE
8
BLACK
6
CONTINUOUS
10
145.605
20
-88.775
11
145.767
21
-88.8036
0
LINE
8
BLACK
6
CONTINUOUS
10
151.953
20
-88.5454
11
152.054
21
-88.604
0
LINE
8
BLACK
6
CONTINUOUS
10
152.054
20
-88.604
11
152.13
21
-88.6937
0
LINE
8
BLACK
6
CONTINUOUS
10
152.13
20
-88.6937
11
152.175
21
-88.8625
0
LINE
8
BLACK
6
CONTINUOUS
10
152.175
20
-88.8625
11
152.175
21
-89.6375
0
LINE
8
BLACK
6
CONTINUOUS
10
152.175
20
-89.6375
11
152.155
21
-89.7529
0
LINE
8
BLACK
6
CONTINUOUS
10
152.155
20
-89.7529
11
152.096
21
-89.8544
0
LINE
8
BLACK
6
CONTINUOUS
10
152.096
20
-89.8544
11
152.006
21
-89.9298
0
LINE
8
BLACK
6
CONTINUOUS
10
152.006
20
-89.9298
11
151.838
21
-89.975
0
LINE
8
BLACK
6
CONTINUOUS
10
151.838
20
-89.975
11
151.162
21
-89.975
0
LINE
8
BLACK
6
CONTINUOUS
10
151.162
20
-89.975
11
151.047
21
-89.9546
0
LINE
8
BLACK
6
CONTINUOUS
10
151.047
20
-89.9546
11
150.946
21
-89.896
0
LINE
8
BLACK
6
CONTINUOUS
10
150.946
20
-89.896
11
150.87
21
-89.8062
0
LINE
8
BLACK
6
CONTINUOUS
10
150.87
20
-89.8062
11
150.825
21
-89.6375
0
LINE
8
BLACK
6
CONTINUOUS
10
150.825
20
-89.6375
11
150.825
21
-88.8625
0
LINE
8
BLACK
6
CONTINUOUS
10
150.825
20
-88.8625
11
150.845
21
-88.7471
0
LINE
8
BLACK
6
CONTINUOUS
10
150.845
20
-88.7471
11
150.904
21
-88.6456
0
LINE
8
BLACK
6
CONTINUOUS
10
150.904
20
-88.6456
11
150.994
21
-88.5702
0
LINE
8
BLACK
6
CONTINUOUS
10
150.994
20
-88.5702
11
151.162
21
-88.525
0
LINE
8
BLACK
6
CONTINUOUS
10
151.162
20
-88.525
11
151.838
21
-88.525
0
LINE
8
BLACK
6
CONTINUOUS
10
151.838
20
-88.525
11
151.953
21
-88.5454
0
LINE
8
BLACK
6
CONTINUOUS
10
149.928
20
-86.7953
11
150.03
21
-86.8538
0
LINE
8
BLACK
6
CONTINUOUS
10
150.03
20
-86.8538
11
150.105
21
-86.9435
0
LINE
8
BLACK
6
CONTINUOUS
10
150.105
20
-86.9435
11
150.15
21
-87.112
0
LINE
8
BLACK
6
CONTINUOUS
10
150.15
20
-87.112
11
150.15
21
-87.988
0
LINE
8
BLACK
6
CONTINUOUS
10
150.15
20
-87.988
11
150.13
21
-88.1033
0
LINE
8
BLACK
6
CONTINUOUS
10
150.13
20
-88.1033
11
150.071
21
-88.2046
0
LINE
8
BLACK
6
CONTINUOUS
10
150.071
20
-88.2046
11
149.982
21
-88.2799
0
LINE
8
BLACK
6
CONTINUOUS
10
149.982
20
-88.2799
11
149.813
21
-88.325
0
LINE
8
BLACK
6
CONTINUOUS
10
149.813
20
-88.325
11
148.687
21
-88.325
0
LINE
8
BLACK
6
CONTINUOUS
10
148.687
20
-88.325
11
148.572
21
-88.3047
0
LINE
8
BLACK
6
CONTINUOUS
10
148.572
20
-88.3047
11
148.47
21
-88.2462
0
LINE
8
BLACK
6
CONTINUOUS
10
148.47
20
-88.2462
11
148.395
21
-88.1565
0
LINE
8
BLACK
6
CONTINUOUS
10
148.395
20
-88.1565
11
148.35
21
-87.988
0
LINE
8
BLACK
6
CONTINUOUS
10
148.35
20
-87.988
11
148.35
21
-87.112
0
LINE
8
BLACK
6
CONTINUOUS
10
148.35
20
-87.112
11
148.37
21
-86.9967
0
LINE
8
BLACK
6
CONTINUOUS
10
148.37
20
-86.9967
11
148.429
21
-86.8954
0
LINE
8
BLACK
6
CONTINUOUS
10
148.429
20
-86.8954
11
148.518
21
-86.8201
0
LINE
8
BLACK
6
CONTINUOUS
10
148.518
20
-86.8201
11
148.687
21
-86.775
0
LINE
8
BLACK
6
CONTINUOUS
10
148.687
20
-86.775
11
149.813
21
-86.775
0
LINE
8
BLACK
6
CONTINUOUS
10
149.813
20
-86.775
11
149.928
21
-86.7953
0
LINE
8
BLACK
6
CONTINUOUS
10
151.953
20
-86.7954
11
152.054
21
-86.854
0
LINE
8
BLACK
6
CONTINUOUS
10
152.054
20
-86.854
11
152.13
21
-86.9437
0
LINE
8
BLACK
6
CONTINUOUS
10
152.13
20
-86.9437
11
152.175
21
-87.1125
0
LINE
8
BLACK
6
CONTINUOUS
10
152.175
20
-87.1125
11
152.175
21
-87.8875
0
LINE
8
BLACK
6
CONTINUOUS
10
152.175
20
-87.8875
11
152.155
21
-88.0029
0
LINE
8
BLACK
6
CONTINUOUS
10
152.155
20
-88.0029
11
152.096
21
-88.1044
0
LINE
8
BLACK
6
CONTINUOUS
10
152.096
20
-88.1044
11
152.006
21
-88.1798
0
LINE
8
BLACK
6
CONTINUOUS
10
152.006
20
-88.1798
11
151.838
21
-88.225
0
LINE
8
BLACK
6
CONTINUOUS
10
151.838
20
-88.225
11
151.162
21
-88.225
0
LINE
8
BLACK
6
CONTINUOUS
10
151.162
20
-88.225
11
151.047
21
-88.2046
0
LINE
8
BLACK
6
CONTINUOUS
10
151.047
20
-88.2046
11
150.946
21
-88.146
0
LINE
8
BLACK
6
CONTINUOUS
10
150.946
20
-88.146
11
150.87
21
-88.0562
0
LINE
8
BLACK
6
CONTINUOUS
10
150.87
20
-88.0562
11
150.825
21
-87.8875
0
LINE
8
BLACK
6
CONTINUOUS
10
150.825
20
-87.8875
11
150.825
21
-87.1125
0
LINE
8
BLACK
6
CONTINUOUS
10
150.825
20
-87.1125
11
150.845
21
-86.9971
0
LINE
8
BLACK
6
CONTINUOUS
10
150.845
20
-86.9971
11
150.904
21
-86.8956
0
LINE
8
BLACK
6
CONTINUOUS
10
150.904
20
-86.8956
11
150.994
21
-86.8202
0
LINE
8
BLACK
6
CONTINUOUS
10
150.994
20
-86.8202
11
151.162
21
-86.775
0
LINE
8
BLACK
6
CONTINUOUS
10
151.162
20
-86.775
11
151.838
21
-86.775
0
LINE
8
BLACK
6
CONTINUOUS
10
151.838
20
-86.775
11
151.953
21
-86.7954
0
LINE
8
BLACK
6
CONTINUOUS
10
147.353
20
-85.1954
11
147.454
21
-85.254
0
LINE
8
BLACK
6
CONTINUOUS
10
147.454
20
-85.254
11
147.53
21
-85.3438
0
LINE
8
BLACK
6
CONTINUOUS
10
147.53
20
-85.3438
11
147.575
21
-85.5125
0
LINE
8
BLACK
6
CONTINUOUS
10
147.575
20
-85.5125
11
147.575
21
-86.2875
0
LINE
8
BLACK
6
CONTINUOUS
10
147.575
20
-86.2875
11
147.555
21
-86.4029
0
LINE
8
BLACK
6
CONTINUOUS
10
147.555
20
-86.4029
11
147.496
21
-86.5044
0
LINE
8
BLACK
6
CONTINUOUS
10
147.496
20
-86.5044
11
147.406
21
-86.5798
0
LINE
8
BLACK
6
CONTINUOUS
10
147.406
20
-86.5798
11
147.237
21
-86.625
0
LINE
8
BLACK
6
CONTINUOUS
10
147.237
20
-86.625
11
146.562
21
-86.625
0
LINE
8
BLACK
6
CONTINUOUS
10
146.562
20
-86.625
11
146.447
21
-86.6046
0
LINE
8
BLACK
6
CONTINUOUS
10
146.447
20
-86.6046
11
146.346
21
-86.546
0
LINE
8
BLACK
6
CONTINUOUS
10
146.346
20
-86.546
11
146.27
21
-86.4562
0
LINE
8
BLACK
6
CONTINUOUS
10
146.27
20
-86.4562
11
146.225
21
-86.2875
0
LINE
8
BLACK
6
CONTINUOUS
10
146.225
20
-86.2875
11
146.225
21
-85.5125
0
LINE
8
BLACK
6
CONTINUOUS
10
146.225
20
-85.5125
11
146.245
21
-85.3971
0
LINE
8
BLACK
6
CONTINUOUS
10
146.245
20
-85.3971
11
146.304
21
-85.2956
0
LINE
8
BLACK
6
CONTINUOUS
10
146.304
20
-85.2956
11
146.394
21
-85.2202
0
LINE
8
BLACK
6
CONTINUOUS
10
146.394
20
-85.2202
11
146.562
21
-85.175
0
LINE
8
BLACK
6
CONTINUOUS
10
146.562
20
-85.175
11
147.237
21
-85.175
0
LINE
8
BLACK
6
CONTINUOUS
10
147.237
20
-85.175
11
147.353
21
-85.1954
0
LINE
8
BLACK
6
CONTINUOUS
10
147.353
20
-83.4454
11
147.454
21
-83.504
0
LINE
8
BLACK
6
CONTINUOUS
10
147.454
20
-83.504
11
147.53
21
-83.5938
0
LINE
8
BLACK
6
CONTINUOUS
10
147.53
20
-83.5938
11
147.575
21
-83.7625
0
LINE
8
BLACK
6
CONTINUOUS
10
147.575
20
-83.7625
11
147.575
21
-84.5375
0
LINE
8
BLACK
6
CONTINUOUS
10
147.575
20
-84.5375
11
147.555
21
-84.6529
0
LINE
8
BLACK
6
CONTINUOUS
10
147.555
20
-84.6529
11
147.496
21
-84.7544
0
LINE
8
BLACK
6
CONTINUOUS
10
147.496
20
-84.7544
11
147.406
21
-84.8298
0
LINE
8
BLACK
6
CONTINUOUS
10
147.406
20
-84.8298
11
147.237
21
-84.875
0
LINE
8
BLACK
6
CONTINUOUS
10
147.237
20
-84.875
11
146.562
21
-84.875
0
LINE
8
BLACK
6
CONTINUOUS
10
146.562
20
-84.875
11
146.447
21
-84.8546
0
LINE
8
BLACK
6
CONTINUOUS
10
146.447
20
-84.8546
11
146.346
21
-84.796
0
LINE
8
BLACK
6
CONTINUOUS
10
146.346
20
-84.796
11
146.27
21
-84.7062
0
LINE
8
BLACK
6
CONTINUOUS
10
146.27
20
-84.7062
11
146.225
21
-84.5375
0
LINE
8
BLACK
6
CONTINUOUS
10
146.225
20
-84.5375
11
146.225
21
-83.7625
0
LINE
8
BLACK
6
CONTINUOUS
10
146.225
20
-83.7625
11
146.245
21
-83.6471
0
LINE
8
BLACK
6
CONTINUOUS
10
146.245
20
-83.6471
11
146.304
21
-83.5456
0
LINE
8
BLACK
6
CONTINUOUS
10
146.304
20
-83.5456
11
146.394
21
-83.4702
0
LINE
8
BLACK
6
CONTINUOUS
10
146.394
20
-83.4702
11
146.562
21
-83.425
0
LINE
8
BLACK
6
CONTINUOUS
10
146.562
20
-83.425
11
147.237
21
-83.425
0
LINE
8
BLACK
6
CONTINUOUS
10
147.237
20
-83.425
11
147.353
21
-83.4454
0
LINE
8
BLACK
6
CONTINUOUS
10
168.725
20
-78.825
11
168.601
21
-78.825
0
LINE
8
BLACK
6
CONTINUOUS
10
168.601
20
-78.825
11
168.65
21
-78.8827
0
LINE
8
BLACK
6
CONTINUOUS
10
168.65
20
-78.8827
11
168.725
21
-79.0898
0
LINE
8
BLACK
6
CONTINUOUS
10
168.725
20
-79.0898
11
168.725
21
-79.3102
0
LINE
8
BLACK
6
CONTINUOUS
10
168.725
20
-79.3102
11
168.65
21
-79.5173
0
LINE
8
BLACK
6
CONTINUOUS
10
168.65
20
-79.5173
11
168.508
21
-79.6862
0
LINE
8
BLACK
6
CONTINUOUS
10
168.508
20
-79.6862
11
168.484
21
-79.7
0
LINE
8
BLACK
6
CONTINUOUS
10
168.484
20
-79.7
11
168.508
21
-79.7138
0
LINE
8
BLACK
6
CONTINUOUS
10
168.508
20
-79.7138
11
168.65
21
-79.8827
0
LINE
8
BLACK
6
CONTINUOUS
10
168.65
20
-79.8827
11
168.725
21
-80.0898
0
LINE
8
BLACK
6
CONTINUOUS
10
168.725
20
-80.0898
11
168.725
21
-80.3102
0
LINE
8
BLACK
6
CONTINUOUS
10
168.725
20
-80.3102
11
168.65
21
-80.5173
0
LINE
8
BLACK
6
CONTINUOUS
10
168.65
20
-80.5173
11
168.508
21
-80.6862
0
LINE
8
BLACK
6
CONTINUOUS
10
168.508
20
-80.6862
11
168.484
21
-80.7
0
LINE
8
BLACK
6
CONTINUOUS
10
168.484
20
-80.7
11
168.508
21
-80.7138
0
LINE
8
BLACK
6
CONTINUOUS
10
168.508
20
-80.7138
11
168.65
21
-80.8827
0
LINE
8
BLACK
6
CONTINUOUS
10
168.65
20
-80.8827
11
168.725
21
-81.0898
0
LINE
8
BLACK
6
CONTINUOUS
10
168.725
20
-81.0898
11
168.725
21
-81.3102
0
LINE
8
BLACK
6
CONTINUOUS
10
168.725
20
-81.3102
11
168.65
21
-81.5173
0
LINE
8
BLACK
6
CONTINUOUS
10
168.65
20
-81.5173
11
168.508
21
-81.6862
0
LINE
8
BLACK
6
CONTINUOUS
10
168.508
20
-81.6862
11
168.317
21
-81.7964
0
LINE
8
BLACK
6
CONTINUOUS
10
168.317
20
-81.7964
11
168.155
21
-81.825
0
LINE
8
BLACK
6
CONTINUOUS
10
168.155
20
-81.825
11
168.045
21
-81.825
0
LINE
8
BLACK
6
CONTINUOUS
10
168.045
20
-81.825
11
167.883
21
-81.7964
0
LINE
8
BLACK
6
CONTINUOUS
10
167.883
20
-81.7964
11
167.692
21
-81.6862
0
LINE
8
BLACK
6
CONTINUOUS
10
167.692
20
-81.6862
11
167.55
21
-81.5173
0
LINE
8
BLACK
6
CONTINUOUS
10
167.55
20
-81.5173
11
167.475
21
-81.3102
0
LINE
8
BLACK
6
CONTINUOUS
10
167.475
20
-81.3102
11
167.475
21
-81.0898
0
LINE
8
BLACK
6
CONTINUOUS
10
167.475
20
-81.0898
11
167.55
21
-80.8827
0
LINE
8
BLACK
6
CONTINUOUS
10
167.55
20
-80.8827
11
167.692
21
-80.7138
0
LINE
8
BLACK
6
CONTINUOUS
10
167.692
20
-80.7138
11
167.716
21
-80.7
0
LINE
8
BLACK
6
CONTINUOUS
10
167.716
20
-80.7
11
167.692
21
-80.6862
0
LINE
8
BLACK
6
CONTINUOUS
10
167.692
20
-80.6862
11
167.55
21
-80.5173
0
LINE
8
BLACK
6
CONTINUOUS
10
167.55
20
-80.5173
11
167.475
21
-80.3102
0
LINE
8
BLACK
6
CONTINUOUS
10
167.475
20
-80.3102
11
167.475
21
-80.0898
0
LINE
8
BLACK
6
CONTINUOUS
10
167.475
20
-80.0898
11
167.55
21
-79.8827
0
LINE
8
BLACK
6
CONTINUOUS
10
167.55
20
-79.8827
11
167.692
21
-79.7138
0
LINE
8
BLACK
6
CONTINUOUS
10
167.692
20
-79.7138
11
167.716
21
-79.7
0
LINE
8
BLACK
6
CONTINUOUS
10
167.716
20
-79.7
11
167.692
21
-79.6862
0
LINE
8
BLACK
6
CONTINUOUS
10
167.692
20
-79.6862
11
167.55
21
-79.5173
0
LINE
8
BLACK
6
CONTINUOUS
10
167.55
20
-79.5173
11
167.475
21
-79.3102
0
LINE
8
BLACK
6
CONTINUOUS
10
167.475
20
-79.3102
11
167.475
21
-79.0898
0
LINE
8
BLACK
6
CONTINUOUS
10
167.475
20
-79.0898
11
167.55
21
-78.8827
0
LINE
8
BLACK
6
CONTINUOUS
10
167.55
20
-78.8827
11
167.599
21
-78.825
0
LINE
8
BLACK
6
CONTINUOUS
10
167.599
20
-78.825
11
167.475
21
-78.825
0
LINE
8
BLACK
6
CONTINUOUS
10
167.475
20
-78.825
11
167.475
21
-77.575
0
LINE
8
BLACK
6
CONTINUOUS
10
167.475
20
-77.575
11
168.725
21
-77.575
0
LINE
8
BLACK
6
CONTINUOUS
10
168.725
20
-77.575
11
168.725
21
-78.825
0
LINE
8
BLACK
6
CONTINUOUS
10
146.303
20
-79.2203
11
146.405
21
-79.2788
0
LINE
8
BLACK
6
CONTINUOUS
10
146.405
20
-79.2788
11
146.48
21
-79.3685
0
LINE
8
BLACK
6
CONTINUOUS
10
146.48
20
-79.3685
11
146.525
21
-79.537
0
LINE
8
BLACK
6
CONTINUOUS
10
146.525
20
-79.537
11
146.525
21
-80.663
0
LINE
8
BLACK
6
CONTINUOUS
10
146.525
20
-80.663
11
146.505
21
-80.7783
0
LINE
8
BLACK
6
CONTINUOUS
10
146.505
20
-80.7783
11
146.446
21
-80.8796
0
LINE
8
BLACK
6
CONTINUOUS
10
146.446
20
-80.8796
11
146.357
21
-80.9549
0
LINE
8
BLACK
6
CONTINUOUS
10
146.357
20
-80.9549
11
146.188
21
-81
0
LINE
8
BLACK
6
CONTINUOUS
10
146.188
20
-81
11
145.312
21
-81
0
LINE
8
BLACK
6
CONTINUOUS
10
145.312
20
-81
11
145.197
21
-80.9797
0
LINE
8
BLACK
6
CONTINUOUS
10
145.197
20
-80.9797
11
145.095
21
-80.9212
0
LINE
8
BLACK
6
CONTINUOUS
10
145.095
20
-80.9212
11
145.02
21
-80.8315
0
LINE
8
BLACK
6
CONTINUOUS
10
145.02
20
-80.8315
11
144.975
21
-80.663
0
LINE
8
BLACK
6
CONTINUOUS
10
144.975
20
-80.663
11
144.975
21
-79.537
0
LINE
8
BLACK
6
CONTINUOUS
10
144.975
20
-79.537
11
144.995
21
-79.4217
0
LINE
8
BLACK
6
CONTINUOUS
10
144.995
20
-79.4217
11
145.054
21
-79.3204
0
LINE
8
BLACK
6
CONTINUOUS
10
145.054
20
-79.3204
11
145.143
21
-79.2451
0
LINE
8
BLACK
6
CONTINUOUS
10
145.143
20
-79.2451
11
145.312
21
-79.2
0
LINE
8
BLACK
6
CONTINUOUS
10
145.312
20
-79.2
11
146.188
21
-79.2
0
LINE
8
BLACK
6
CONTINUOUS
10
146.188
20
-79.2
11
146.303
21
-79.2203
0
LINE
8
BLACK
6
CONTINUOUS
10
148.353
20
-79.2203
11
148.455
21
-79.2788
0
LINE
8
BLACK
6
CONTINUOUS
10
148.455
20
-79.2788
11
148.53
21
-79.3685
0
LINE
8
BLACK
6
CONTINUOUS
10
148.53
20
-79.3685
11
148.575
21
-79.537
0
LINE
8
BLACK
6
CONTINUOUS
10
148.575
20
-79.537
11
148.575
21
-80.663
0
LINE
8
BLACK
6
CONTINUOUS
10
148.575
20
-80.663
11
148.555
21
-80.7783
0
LINE
8
BLACK
6
CONTINUOUS
10
148.555
20
-80.7783
11
148.496
21
-80.8796
0
LINE
8
BLACK
6
CONTINUOUS
10
148.496
20
-80.8796
11
148.407
21
-80.9549
0
LINE
8
BLACK
6
CONTINUOUS
10
148.407
20
-80.9549
11
148.238
21
-81
0
LINE
8
BLACK
6
CONTINUOUS
10
148.238
20
-81
11
147.362
21
-81
0
LINE
8
BLACK
6
CONTINUOUS
10
147.362
20
-81
11
147.247
21
-80.9797
0
LINE
8
BLACK
6
CONTINUOUS
10
147.247
20
-80.9797
11
147.145
21
-80.9212
0
LINE
8
BLACK
6
CONTINUOUS
10
147.145
20
-80.9212
11
147.07
21
-80.8315
0
LINE
8
BLACK
6
CONTINUOUS
10
147.07
20
-80.8315
11
147.025
21
-80.663
0
LINE
8
BLACK
6
CONTINUOUS
10
147.025
20
-80.663
11
147.025
21
-79.537
0
LINE
8
BLACK
6
CONTINUOUS
10
147.025
20
-79.537
11
147.045
21
-79.4217
0
LINE
8
BLACK
6
CONTINUOUS
10
147.045
20
-79.4217
11
147.104
21
-79.3204
0
LINE
8
BLACK
6
CONTINUOUS
10
147.104
20
-79.3204
11
147.193
21
-79.2451
0
LINE
8
BLACK
6
CONTINUOUS
10
147.193
20
-79.2451
11
147.362
21
-79.2
0
LINE
8
BLACK
6
CONTINUOUS
10
147.362
20
-79.2
11
148.238
21
-79.2
0
LINE
8
BLACK
6
CONTINUOUS
10
148.238
20
-79.2
11
148.353
21
-79.2203
0
LINE
8
BLACK
6
CONTINUOUS
10
151.9
20
-78.7
11
151.9
21
-73.3
0
LINE
8
BLACK
6
CONTINUOUS
10
151.9
20
-73.3
11
153.8
21
-73.3
0
LINE
8
BLACK
6
CONTINUOUS
10
153.8
20
-73.3
11
153.8
21
-78.7
0
LINE
8
BLACK
6
CONTINUOUS
10
153.8
20
-78.7
11
151.9
21
-78.7
0
LINE
8
BLACK
6
CONTINUOUS
10
146
20
-78.7
11
146
21
-73.3
0
LINE
8
BLACK
6
CONTINUOUS
10
146
20
-73.3
11
147.9
21
-73.3
0
LINE
8
BLACK
6
CONTINUOUS
10
147.9
20
-73.3
11
147.9
21
-78.7
0
LINE
8
BLACK
6
CONTINUOUS
10
147.9
20
-78.7
11
146
21
-78.7
0
LINE
8
BLACK
6
CONTINUOUS
10
165.4
20
-78.7
11
165.4
21
-73.3
0
LINE
8
BLACK
6
CONTINUOUS
10
165.4
20
-73.3
11
167.3
21
-73.3
0
LINE
8
BLACK
6
CONTINUOUS
10
167.3
20
-73.3
11
167.3
21
-78.7
0
LINE
8
BLACK
6
CONTINUOUS
10
167.3
20
-78.7
11
165.4
21
-78.7
0
LINE
8
BLACK
6
CONTINUOUS
10
159.5
20
-78.7
11
159.5
21
-73.3
0
LINE
8
BLACK
6
CONTINUOUS
10
159.5
20
-73.3
11
161.4
21
-73.3
0
LINE
8
BLACK
6
CONTINUOUS
10
161.4
20
-73.3
11
161.4
21
-78.7
0
LINE
8
BLACK
6
CONTINUOUS
10
161.4
20
-78.7
11
159.5
21
-78.7
0
LINE
8
BLACK
6
CONTINUOUS
10
158.053
20
-73.8203
11
158.155
21
-73.8788
0
LINE
8
BLACK
6
CONTINUOUS
10
158.155
20
-73.8788
11
158.23
21
-73.9685
0
LINE
8
BLACK
6
CONTINUOUS
10
158.23
20
-73.9685
11
158.275
21
-74.137
0
LINE
8
BLACK
6
CONTINUOUS
10
158.275
20
-74.137
11
158.275
21
-75.263
0
LINE
8
BLACK
6
CONTINUOUS
10
158.275
20
-75.263
11
158.255
21
-75.3783
0
LINE
8
BLACK
6
CONTINUOUS
10
158.255
20
-75.3783
11
158.196
21
-75.4796
0
LINE
8
BLACK
6
CONTINUOUS
10
158.196
20
-75.4796
11
158.107
21
-75.5549
0
LINE
8
BLACK
6
CONTINUOUS
10
158.107
20
-75.5549
11
157.938
21
-75.6
0
LINE
8
BLACK
6
CONTINUOUS
10
157.938
20
-75.6
11
157.062
21
-75.6
0
LINE
8
BLACK
6
CONTINUOUS
10
157.062
20
-75.6
11
156.947
21
-75.5797
0
LINE
8
BLACK
6
CONTINUOUS
10
156.947
20
-75.5797
11
156.845
21
-75.5212
0
LINE
8
BLACK
6
CONTINUOUS
10
156.845
20
-75.5212
11
156.77
21
-75.4315
0
LINE
8
BLACK
6
CONTINUOUS
10
156.77
20
-75.4315
11
156.725
21
-75.263
0
LINE
8
BLACK
6
CONTINUOUS
10
156.725
20
-75.263
11
156.725
21
-74.137
0
LINE
8
BLACK
6
CONTINUOUS
10
156.725
20
-74.137
11
156.745
21
-74.0217
0
LINE
8
BLACK
6
CONTINUOUS
10
156.745
20
-74.0217
11
156.804
21
-73.9204
0
LINE
8
BLACK
6
CONTINUOUS
10
156.804
20
-73.9204
11
156.893
21
-73.8451
0
LINE
8
BLACK
6
CONTINUOUS
10
156.893
20
-73.8451
11
157.062
21
-73.8
0
LINE
8
BLACK
6
CONTINUOUS
10
157.062
20
-73.8
11
157.938
21
-73.8
0
LINE
8
BLACK
6
CONTINUOUS
10
157.938
20
-73.8
11
158.053
21
-73.8203
0
LINE
8
BLACK
6
CONTINUOUS
10
156.003
20
-73.8203
11
156.105
21
-73.8788
0
LINE
8
BLACK
6
CONTINUOUS
10
156.105
20
-73.8788
11
156.18
21
-73.9685
0
LINE
8
BLACK
6
CONTINUOUS
10
156.18
20
-73.9685
11
156.225
21
-74.137
0
LINE
8
BLACK
6
CONTINUOUS
10
156.225
20
-74.137
11
156.225
21
-75.263
0
LINE
8
BLACK
6
CONTINUOUS
10
156.225
20
-75.263
11
156.205
21
-75.3783
0
LINE
8
BLACK
6
CONTINUOUS
10
156.205
20
-75.3783
11
156.146
21
-75.4796
0
LINE
8
BLACK
6
CONTINUOUS
10
156.146
20
-75.4796
11
156.057
21
-75.5549
0
LINE
8
BLACK
6
CONTINUOUS
10
156.057
20
-75.5549
11
155.888
21
-75.6
0
LINE
8
BLACK
6
CONTINUOUS
10
155.888
20
-75.6
11
155.012
21
-75.6
0
LINE
8
BLACK
6
CONTINUOUS
10
155.012
20
-75.6
11
154.897
21
-75.5797
0
LINE
8
BLACK
6
CONTINUOUS
10
154.897
20
-75.5797
11
154.795
21
-75.5212
0
LINE
8
BLACK
6
CONTINUOUS
10
154.795
20
-75.5212
11
154.72
21
-75.4315
0
LINE
8
BLACK
6
CONTINUOUS
10
154.72
20
-75.4315
11
154.675
21
-75.263
0
LINE
8
BLACK
6
CONTINUOUS
10
154.675
20
-75.263
11
154.675
21
-74.137
0
LINE
8
BLACK
6
CONTINUOUS
10
154.675
20
-74.137
11
154.695
21
-74.0217
0
LINE
8
BLACK
6
CONTINUOUS
10
154.695
20
-74.0217
11
154.754
21
-73.9204
0
LINE
8
BLACK
6
CONTINUOUS
10
154.754
20
-73.9204
11
154.843
21
-73.8451
0
LINE
8
BLACK
6
CONTINUOUS
10
154.843
20
-73.8451
11
155.012
21
-73.8
0
LINE
8
BLACK
6
CONTINUOUS
10
155.012
20
-73.8
11
155.888
21
-73.8
0
LINE
8
BLACK
6
CONTINUOUS
10
155.888
20
-73.8
11
156.003
21
-73.8203
0
LINE
8
BLACK
6
CONTINUOUS
10
146.625
20
-71.5948
11
146.783
21
-71.5036
0
LINE
8
BLACK
6
CONTINUOUS
10
146.783
20
-71.5036
11
146.945
21
-71.475
0
LINE
8
BLACK
6
CONTINUOUS
10
146.945
20
-71.475
11
147.055
21
-71.475
0
LINE
8
BLACK
6
CONTINUOUS
10
147.055
20
-71.475
11
147.217
21
-71.5036
0
LINE
8
BLACK
6
CONTINUOUS
10
147.217
20
-71.5036
11
147.408
21
-71.6138
0
LINE
8
BLACK
6
CONTINUOUS
10
147.408
20
-71.6138
11
147.55
21
-71.7827
0
LINE
8
BLACK
6
CONTINUOUS
10
147.55
20
-71.7827
11
147.625
21
-71.9898
0
LINE
8
BLACK
6
CONTINUOUS
10
147.625
20
-71.9898
11
147.625
21
-72.2102
0
LINE
8
BLACK
6
CONTINUOUS
10
147.625
20
-72.2102
11
147.55
21
-72.4173
0
LINE
8
BLACK
6
CONTINUOUS
10
147.55
20
-72.4173
11
147.408
21
-72.5862
0
LINE
8
BLACK
6
CONTINUOUS
10
147.408
20
-72.5862
11
147.217
21
-72.6964
0
LINE
8
BLACK
6
CONTINUOUS
10
147.217
20
-72.6964
11
147.055
21
-72.725
0
LINE
8
BLACK
6
CONTINUOUS
10
147.055
20
-72.725
11
146.945
21
-72.725
0
LINE
8
BLACK
6
CONTINUOUS
10
146.945
20
-72.725
11
146.783
21
-72.6964
0
LINE
8
BLACK
6
CONTINUOUS
10
146.783
20
-72.6964
11
146.625
21
-72.6052
0
LINE
8
BLACK
6
CONTINUOUS
10
146.625
20
-72.6052
11
146.625
21
-72.725
0
LINE
8
BLACK
6
CONTINUOUS
10
146.625
20
-72.725
11
145.375
21
-72.725
0
LINE
8
BLACK
6
CONTINUOUS
10
145.375
20
-72.725
11
145.375
21
-71.475
0
LINE
8
BLACK
6
CONTINUOUS
10
145.375
20
-71.475
11
146.625
21
-71.475
0
LINE
8
BLACK
6
CONTINUOUS
10
146.625
20
-71.475
11
146.625
21
-71.5948
0
LINE
8
BLACK
6
CONTINUOUS
10
158.353
20
-70.3454
11
158.454
21
-70.404
0
LINE
8
BLACK
6
CONTINUOUS
10
158.454
20
-70.404
11
158.53
21
-70.4937
0
LINE
8
BLACK
6
CONTINUOUS
10
158.53
20
-70.4937
11
158.575
21
-70.6625
0
LINE
8
BLACK
6
CONTINUOUS
10
158.575
20
-70.6625
11
158.575
21
-71.4375
0
LINE
8
BLACK
6
CONTINUOUS
10
158.575
20
-71.4375
11
158.555
21
-71.5529
0
LINE
8
BLACK
6
CONTINUOUS
10
158.555
20
-71.5529
11
158.496
21
-71.6544
0
LINE
8
BLACK
6
CONTINUOUS
10
158.496
20
-71.6544
11
158.406
21
-71.7298
0
LINE
8
BLACK
6
CONTINUOUS
10
158.406
20
-71.7298
11
158.237
21
-71.775
0
LINE
8
BLACK
6
CONTINUOUS
10
158.237
20
-71.775
11
157.562
21
-71.775
0
LINE
8
BLACK
6
CONTINUOUS
10
157.562
20
-71.775
11
157.447
21
-71.7546
0
LINE
8
BLACK
6
CONTINUOUS
10
157.447
20
-71.7546
11
157.346
21
-71.696
0
LINE
8
BLACK
6
CONTINUOUS
10
157.346
20
-71.696
11
157.27
21
-71.6063
0
LINE
8
BLACK
6
CONTINUOUS
10
157.27
20
-71.6063
11
157.225
21
-71.4375
0
LINE
8
BLACK
6
CONTINUOUS
10
157.225
20
-71.4375
11
157.225
21
-70.6625
0
LINE
8
BLACK
6
CONTINUOUS
10
157.225
20
-70.6625
11
157.245
21
-70.5471
0
LINE
8
BLACK
6
CONTINUOUS
10
157.245
20
-70.5471
11
157.304
21
-70.4456
0
LINE
8
BLACK
6
CONTINUOUS
10
157.304
20
-70.4456
11
157.394
21
-70.3702
0
LINE
8
BLACK
6
CONTINUOUS
10
157.394
20
-70.3702
11
157.562
21
-70.325
0
LINE
8
BLACK
6
CONTINUOUS
10
157.562
20
-70.325
11
158.237
21
-70.325
0
LINE
8
BLACK
6
CONTINUOUS
10
158.237
20
-70.325
11
158.353
21
-70.3454
0
LINE
8
BLACK
6
CONTINUOUS
10
156.653
20
-70.3454
11
156.754
21
-70.404
0
LINE
8
BLACK
6
CONTINUOUS
10
156.754
20
-70.404
11
156.83
21
-70.4937
0
LINE
8
BLACK
6
CONTINUOUS
10
156.83
20
-70.4937
11
156.875
21
-70.6625
0
LINE
8
BLACK
6
CONTINUOUS
10
156.875
20
-70.6625
11
156.875
21
-71.4375
0
LINE
8
BLACK
6
CONTINUOUS
10
156.875
20
-71.4375
11
156.855
21
-71.5529
0
LINE
8
BLACK
6
CONTINUOUS
10
156.855
20
-71.5529
11
156.796
21
-71.6544
0
LINE
8
BLACK
6
CONTINUOUS
10
156.796
20
-71.6544
11
156.706
21
-71.7298
0
LINE
8
BLACK
6
CONTINUOUS
10
156.706
20
-71.7298
11
156.537
21
-71.775
0
LINE
8
BLACK
6
CONTINUOUS
10
156.537
20
-71.775
11
155.862
21
-71.775
0
LINE
8
BLACK
6
CONTINUOUS
10
155.862
20
-71.775
11
155.747
21
-71.7546
0
LINE
8
BLACK
6
CONTINUOUS
10
155.747
20
-71.7546
11
155.646
21
-71.696
0
LINE
8
BLACK
6
CONTINUOUS
10
155.646
20
-71.696
11
155.57
21
-71.6063
0
LINE
8
BLACK
6
CONTINUOUS
10
155.57
20
-71.6063
11
155.525
21
-71.4375
0
LINE
8
BLACK
6
CONTINUOUS
10
155.525
20
-71.4375
11
155.525
21
-70.6625
0
LINE
8
BLACK
6
CONTINUOUS
10
155.525
20
-70.6625
11
155.545
21
-70.5471
0
LINE
8
BLACK
6
CONTINUOUS
10
155.545
20
-70.5471
11
155.604
21
-70.4456
0
LINE
8
BLACK
6
CONTINUOUS
10
155.604
20
-70.4456
11
155.694
21
-70.3702
0
LINE
8
BLACK
6
CONTINUOUS
10
155.694
20
-70.3702
11
155.862
21
-70.325
0
LINE
8
BLACK
6
CONTINUOUS
10
155.862
20
-70.325
11
156.537
21
-70.325
0
LINE
8
BLACK
6
CONTINUOUS
10
156.537
20
-70.325
11
156.653
21
-70.3454
0
LINE
8
BLACK
6
CONTINUOUS
10
147.053
20
-69.8454
11
147.154
21
-69.904
0
LINE
8
BLACK
6
CONTINUOUS
10
147.154
20
-69.904
11
147.23
21
-69.9937
0
LINE
8
BLACK
6
CONTINUOUS
10
147.23
20
-69.9937
11
147.275
21
-70.1625
0
LINE
8
BLACK
6
CONTINUOUS
10
147.275
20
-70.1625
11
147.275
21
-70.8375
0
LINE
8
BLACK
6
CONTINUOUS
10
147.275
20
-70.8375
11
147.255
21
-70.9529
0
LINE
8
BLACK
6
CONTINUOUS
10
147.255
20
-70.9529
11
147.196
21
-71.0544
0
LINE
8
BLACK
6
CONTINUOUS
10
147.196
20
-71.0544
11
147.106
21
-71.1298
0
LINE
8
BLACK
6
CONTINUOUS
10
147.106
20
-71.1298
11
146.938
21
-71.175
0
LINE
8
BLACK
6
CONTINUOUS
10
146.938
20
-71.175
11
146.162
21
-71.175
0
LINE
8
BLACK
6
CONTINUOUS
10
146.162
20
-71.175
11
146.047
21
-71.1546
0
LINE
8
BLACK
6
CONTINUOUS
10
146.047
20
-71.1546
11
145.946
21
-71.096
0
LINE
8
BLACK
6
CONTINUOUS
10
145.946
20
-71.096
11
145.87
21
-71.0062
0
LINE
8
BLACK
6
CONTINUOUS
10
145.87
20
-71.0062
11
145.825
21
-70.8375
0
LINE
8
BLACK
6
CONTINUOUS
10
145.825
20
-70.8375
11
145.825
21
-70.1625
0
LINE
8
BLACK
6
CONTINUOUS
10
145.825
20
-70.1625
11
145.845
21
-70.0471
0
LINE
8
BLACK
6
CONTINUOUS
10
145.845
20
-70.0471
11
145.904
21
-69.9456
0
LINE
8
BLACK
6
CONTINUOUS
10
145.904
20
-69.9456
11
145.994
21
-69.8702
0
LINE
8
BLACK
6
CONTINUOUS
10
145.994
20
-69.8702
11
146.162
21
-69.825
0
LINE
8
BLACK
6
CONTINUOUS
10
146.162
20
-69.825
11
146.938
21
-69.825
0
LINE
8
BLACK
6
CONTINUOUS
10
146.938
20
-69.825
11
147.053
21
-69.8454
0
LINE
8
BLACK
6
CONTINUOUS
10
145.303
20
-69.8454
11
145.404
21
-69.904
0
LINE
8
BLACK
6
CONTINUOUS
10
145.404
20
-69.904
11
145.48
21
-69.9937
0
LINE
8
BLACK
6
CONTINUOUS
10
145.48
20
-69.9937
11
145.525
21
-70.1625
0
LINE
8
BLACK
6
CONTINUOUS
10
145.525
20
-70.1625
11
145.525
21
-70.8375
0
LINE
8
BLACK
6
CONTINUOUS
10
145.525
20
-70.8375
11
145.505
21
-70.9529
0
LINE
8
BLACK
6
CONTINUOUS
10
145.505
20
-70.9529
11
145.446
21
-71.0544
0
LINE
8
BLACK
6
CONTINUOUS
10
145.446
20
-71.0544
11
145.356
21
-71.1298
0
LINE
8
BLACK
6
CONTINUOUS
10
145.356
20
-71.1298
11
145.188
21
-71.175
0
LINE
8
BLACK
6
CONTINUOUS
10
145.188
20
-71.175
11
144.412
21
-71.175
0
LINE
8
BLACK
6
CONTINUOUS
10
144.412
20
-71.175
11
144.297
21
-71.1546
0
LINE
8
BLACK
6
CONTINUOUS
10
144.297
20
-71.1546
11
144.196
21
-71.096
0
LINE
8
BLACK
6
CONTINUOUS
10
144.196
20
-71.096
11
144.12
21
-71.0062
0
LINE
8
BLACK
6
CONTINUOUS
10
144.12
20
-71.0062
11
144.075
21
-70.8375
0
LINE
8
BLACK
6
CONTINUOUS
10
144.075
20
-70.8375
11
144.075
21
-70.1625
0
LINE
8
BLACK
6
CONTINUOUS
10
144.075
20
-70.1625
11
144.095
21
-70.0471
0
LINE
8
BLACK
6
CONTINUOUS
10
144.095
20
-70.0471
11
144.154
21
-69.9456
0
LINE
8
BLACK
6
CONTINUOUS
10
144.154
20
-69.9456
11
144.244
21
-69.8702
0
LINE
8
BLACK
6
CONTINUOUS
10
144.244
20
-69.8702
11
144.412
21
-69.825
0
LINE
8
BLACK
6
CONTINUOUS
10
144.412
20
-69.825
11
145.188
21
-69.825
0
LINE
8
BLACK
6
CONTINUOUS
10
145.188
20
-69.825
11
145.303
21
-69.8454
0
LINE
8
BLACK
6
CONTINUOUS
10
158.353
20
-68.5954
11
158.454
21
-68.654
0
LINE
8
BLACK
6
CONTINUOUS
10
158.454
20
-68.654
11
158.53
21
-68.7437
0
LINE
8
BLACK
6
CONTINUOUS
10
158.53
20
-68.7437
11
158.575
21
-68.9125
0
LINE
8
BLACK
6
CONTINUOUS
10
158.575
20
-68.9125
11
158.575
21
-69.6875
0
LINE
8
BLACK
6
CONTINUOUS
10
158.575
20
-69.6875
11
158.555
21
-69.8029
0
LINE
8
BLACK
6
CONTINUOUS
10
158.555
20
-69.8029
11
158.496
21
-69.9044
0
LINE
8
BLACK
6
CONTINUOUS
10
158.496
20
-69.9044
11
158.406
21
-69.9798
0
LINE
8
BLACK
6
CONTINUOUS
10
158.406
20
-69.9798
11
158.237
21
-70.025
0
LINE
8
BLACK
6
CONTINUOUS
10
158.237
20
-70.025
11
157.562
21
-70.025
0
LINE
8
BLACK
6
CONTINUOUS
10
157.562
20
-70.025
11
157.447
21
-70.0046
0
LINE
8
BLACK
6
CONTINUOUS
10
157.447
20
-70.0046
11
157.346
21
-69.946
0
LINE
8
BLACK
6
CONTINUOUS
10
157.346
20
-69.946
11
157.27
21
-69.8563
0
LINE
8
BLACK
6
CONTINUOUS
10
157.27
20
-69.8563
11
157.225
21
-69.6875
0
LINE
8
BLACK
6
CONTINUOUS
10
157.225
20
-69.6875
11
157.225
21
-68.9125
0
LINE
8
BLACK
6
CONTINUOUS
10
157.225
20
-68.9125
11
157.245
21
-68.7971
0
LINE
8
BLACK
6
CONTINUOUS
10
157.245
20
-68.7971
11
157.304
21
-68.6956
0
LINE
8
BLACK
6
CONTINUOUS
10
157.304
20
-68.6956
11
157.394
21
-68.6202
0
LINE
8
BLACK
6
CONTINUOUS
10
157.394
20
-68.6202
11
157.562
21
-68.575
0
LINE
8
BLACK
6
CONTINUOUS
10
157.562
20
-68.575
11
158.237
21
-68.575
0
LINE
8
BLACK
6
CONTINUOUS
10
158.237
20
-68.575
11
158.353
21
-68.5954
0
LINE
8
BLACK
6
CONTINUOUS
10
156.653
20
-68.5954
11
156.754
21
-68.654
0
LINE
8
BLACK
6
CONTINUOUS
10
156.754
20
-68.654
11
156.83
21
-68.7437
0
LINE
8
BLACK
6
CONTINUOUS
10
156.83
20
-68.7437
11
156.875
21
-68.9125
0
LINE
8
BLACK
6
CONTINUOUS
10
156.875
20
-68.9125
11
156.875
21
-69.6875
0
LINE
8
BLACK
6
CONTINUOUS
10
156.875
20
-69.6875
11
156.855
21
-69.8029
0
LINE
8
BLACK
6
CONTINUOUS
10
156.855
20
-69.8029
11
156.796
21
-69.9044
0
LINE
8
BLACK
6
CONTINUOUS
10
156.796
20
-69.9044
11
156.706
21
-69.9798
0
LINE
8
BLACK
6
CONTINUOUS
10
156.706
20
-69.9798
11
156.537
21
-70.025
0
LINE
8
BLACK
6
CONTINUOUS
10
156.537
20
-70.025
11
155.862
21
-70.025
0
LINE
8
BLACK
6
CONTINUOUS
10
155.862
20
-70.025
11
155.747
21
-70.0046
0
LINE
8
BLACK
6
CONTINUOUS
10
155.747
20
-70.0046
11
155.646
21
-69.946
0
LINE
8
BLACK
6
CONTINUOUS
10
155.646
20
-69.946
11
155.57
21
-69.8563
0
LINE
8
BLACK
6
CONTINUOUS
10
155.57
20
-69.8563
11
155.525
21
-69.6875
0
LINE
8
BLACK
6
CONTINUOUS
10
155.525
20
-69.6875
11
155.525
21
-68.9125
0
LINE
8
BLACK
6
CONTINUOUS
10
155.525
20
-68.9125
11
155.545
21
-68.7971
0
LINE
8
BLACK
6
CONTINUOUS
10
155.545
20
-68.7971
11
155.604
21
-68.6956
0
LINE
8
BLACK
6
CONTINUOUS
10
155.604
20
-68.6956
11
155.694
21
-68.6202
0
LINE
8
BLACK
6
CONTINUOUS
10
155.694
20
-68.6202
11
155.862
21
-68.575
0
LINE
8
BLACK
6
CONTINUOUS
10
155.862
20
-68.575
11
156.537
21
-68.575
0
LINE
8
BLACK
6
CONTINUOUS
10
156.537
20
-68.575
11
156.653
21
-68.5954
0
LINE
8
BLACK
6
CONTINUOUS
10
160.5
20
-68.9
11
160.5
21
-63.5
0
LINE
8
BLACK
6
CONTINUOUS
10
160.5
20
-63.5
11
162.4
21
-63.5
0
LINE
8
BLACK
6
CONTINUOUS
10
162.4
20
-63.5
11
162.4
21
-68.9
0
LINE
8
BLACK
6
CONTINUOUS
10
162.4
20
-68.9
11
160.5
21
-68.9
0
LINE
8
BLACK
6
CONTINUOUS
10
166.4
20
-68.9
11
166.4
21
-63.5
0
LINE
8
BLACK
6
CONTINUOUS
10
166.4
20
-63.5
11
168.3
21
-63.5
0
LINE
8
BLACK
6
CONTINUOUS
10
168.3
20
-63.5
11
168.3
21
-68.9
0
LINE
8
BLACK
6
CONTINUOUS
10
168.3
20
-68.9
11
166.4
21
-68.9
0
LINE
8
BLACK
6
CONTINUOUS
10
152.1
20
-68.9
11
152.1
21
-63.5
0
LINE
8
BLACK
6
CONTINUOUS
10
152.1
20
-63.5
11
154
21
-63.5
0
LINE
8
BLACK
6
CONTINUOUS
10
154
20
-63.5
11
154
21
-68.9
0
LINE
8
BLACK
6
CONTINUOUS
10
154
20
-68.9
11
152.1
21
-68.9
0
LINE
8
BLACK
6
CONTINUOUS
10
146.2
20
-68.9
11
146.2
21
-63.5
0
LINE
8
BLACK
6
CONTINUOUS
10
146.2
20
-63.5
11
148.1
21
-63.5
0
LINE
8
BLACK
6
CONTINUOUS
10
148.1
20
-63.5
11
148.1
21
-68.9
0
LINE
8
BLACK
6
CONTINUOUS
10
148.1
20
-68.9
11
146.2
21
-68.9
0
LINE
8
BLACK
6
CONTINUOUS
10
158.553
20
-65.6954
11
158.654
21
-65.754
0
LINE
8
BLACK
6
CONTINUOUS
10
158.654
20
-65.754
11
158.73
21
-65.8438
0
LINE
8
BLACK
6
CONTINUOUS
10
158.73
20
-65.8438
11
158.775
21
-66.0125
0
LINE
8
BLACK
6
CONTINUOUS
10
158.775
20
-66.0125
11
158.775
21
-66.7875
0
LINE
8
BLACK
6
CONTINUOUS
10
158.775
20
-66.7875
11
158.755
21
-66.9029
0
LINE
8
BLACK
6
CONTINUOUS
10
158.755
20
-66.9029
11
158.696
21
-67.0044
0
LINE
8
BLACK
6
CONTINUOUS
10
158.696
20
-67.0044
11
158.606
21
-67.0798
0
LINE
8
BLACK
6
CONTINUOUS
10
158.606
20
-67.0798
11
158.438
21
-67.125
0
LINE
8
BLACK
6
CONTINUOUS
10
158.438
20
-67.125
11
157.762
21
-67.125
0
LINE
8
BLACK
6
CONTINUOUS
10
157.762
20
-67.125
11
157.647
21
-67.1046
0
LINE
8
BLACK
6
CONTINUOUS
10
157.647
20
-67.1046
11
157.546
21
-67.046
0
LINE
8
BLACK
6
CONTINUOUS
10
157.546
20
-67.046
11
157.47
21
-66.9562
0
LINE
8
BLACK
6
CONTINUOUS
10
157.47
20
-66.9562
11
157.425
21
-66.7875
0
LINE
8
BLACK
6
CONTINUOUS
10
157.425
20
-66.7875
11
157.425
21
-66.0125
0
LINE
8
BLACK
6
CONTINUOUS
10
157.425
20
-66.0125
11
157.445
21
-65.8971
0
LINE
8
BLACK
6
CONTINUOUS
10
157.445
20
-65.8971
11
157.504
21
-65.7956
0
LINE
8
BLACK
6
CONTINUOUS
10
157.504
20
-65.7956
11
157.594
21
-65.7202
0
LINE
8
BLACK
6
CONTINUOUS
10
157.594
20
-65.7202
11
157.762
21
-65.675
0
LINE
8
BLACK
6
CONTINUOUS
10
157.762
20
-65.675
11
158.438
21
-65.675
0
LINE
8
BLACK
6
CONTINUOUS
10
158.438
20
-65.675
11
158.553
21
-65.6954
0
LINE
8
BLACK
6
CONTINUOUS
10
156.553
20
-65.6954
11
156.654
21
-65.754
0
LINE
8
BLACK
6
CONTINUOUS
10
156.654
20
-65.754
11
156.73
21
-65.8438
0
LINE
8
BLACK
6
CONTINUOUS
10
156.73
20
-65.8438
11
156.775
21
-66.0125
0
LINE
8
BLACK
6
CONTINUOUS
10
156.775
20
-66.0125
11
156.775
21
-66.7875
0
LINE
8
BLACK
6
CONTINUOUS
10
156.775
20
-66.7875
11
156.755
21
-66.9029
0
LINE
8
BLACK
6
CONTINUOUS
10
156.755
20
-66.9029
11
156.696
21
-67.0044
0
LINE
8
BLACK
6
CONTINUOUS
10
156.696
20
-67.0044
11
156.606
21
-67.0798
0
LINE
8
BLACK
6
CONTINUOUS
10
156.606
20
-67.0798
11
156.438
21
-67.125
0
LINE
8
BLACK
6
CONTINUOUS
10
156.438
20
-67.125
11
155.762
21
-67.125
0
LINE
8
BLACK
6
CONTINUOUS
10
155.762
20
-67.125
11
155.647
21
-67.1046
0
LINE
8
BLACK
6
CONTINUOUS
10
155.647
20
-67.1046
11
155.546
21
-67.046
0
LINE
8
BLACK
6
CONTINUOUS
10
155.546
20
-67.046
11
155.47
21
-66.9562
0
LINE
8
BLACK
6
CONTINUOUS
10
155.47
20
-66.9562
11
155.425
21
-66.7875
0
LINE
8
BLACK
6
CONTINUOUS
10
155.425
20
-66.7875
11
155.425
21
-66.0125
0
LINE
8
BLACK
6
CONTINUOUS
10
155.425
20
-66.0125
11
155.445
21
-65.8971
0
LINE
8
BLACK
6
CONTINUOUS
10
155.445
20
-65.8971
11
155.504
21
-65.7956
0
LINE
8
BLACK
6
CONTINUOUS
10
155.504
20
-65.7956
11
155.594
21
-65.7202
0
LINE
8
BLACK
6
CONTINUOUS
10
155.594
20
-65.7202
11
155.762
21
-65.675
0
LINE
8
BLACK
6
CONTINUOUS
10
155.762
20
-65.675
11
156.438
21
-65.675
0
LINE
8
BLACK
6
CONTINUOUS
10
156.438
20
-65.675
11
156.553
21
-65.6954
0
LINE
8
BLACK
6
CONTINUOUS
10
156.553
20
-63.9454
11
156.654
21
-64.004
0
LINE
8
BLACK
6
CONTINUOUS
10
156.654
20
-64.004
11
156.73
21
-64.0938
0
LINE
8
BLACK
6
CONTINUOUS
10
156.73
20
-64.0938
11
156.775
21
-64.2625
0
LINE
8
BLACK
6
CONTINUOUS
10
156.775
20
-64.2625
11
156.775
21
-65.0375
0
LINE
8
BLACK
6
CONTINUOUS
10
156.775
20
-65.0375
11
156.755
21
-65.1529
0
LINE
8
BLACK
6
CONTINUOUS
10
156.755
20
-65.1529
11
156.696
21
-65.2544
0
LINE
8
BLACK
6
CONTINUOUS
10
156.696
20
-65.2544
11
156.606
21
-65.3298
0
LINE
8
BLACK
6
CONTINUOUS
10
156.606
20
-65.3298
11
156.438
21
-65.375
0
LINE
8
BLACK
6
CONTINUOUS
10
156.438
20
-65.375
11
155.762
21
-65.375
0
LINE
8
BLACK
6
CONTINUOUS
10
155.762
20
-65.375
11
155.647
21
-65.3546
0
LINE
8
BLACK
6
CONTINUOUS
10
155.647
20
-65.3546
11
155.546
21
-65.296
0
LINE
8
BLACK
6
CONTINUOUS
10
155.546
20
-65.296
11
155.47
21
-65.2062
0
LINE
8
BLACK
6
CONTINUOUS
10
155.47
20
-65.2062
11
155.425
21
-65.0375
0
LINE
8
BLACK
6
CONTINUOUS
10
155.425
20
-65.0375
11
155.425
21
-64.2625
0
LINE
8
BLACK
6
CONTINUOUS
10
155.425
20
-64.2625
11
155.445
21
-64.1471
0
LINE
8
BLACK
6
CONTINUOUS
10
155.445
20
-64.1471
11
155.504
21
-64.0456
0
LINE
8
BLACK
6
CONTINUOUS
10
155.504
20
-64.0456
11
155.594
21
-63.9702
0
LINE
8
BLACK
6
CONTINUOUS
10
155.594
20
-63.9702
11
155.762
21
-63.925
0
LINE
8
BLACK
6
CONTINUOUS
10
155.762
20
-63.925
11
156.438
21
-63.925
0
LINE
8
BLACK
6
CONTINUOUS
10
156.438
20
-63.925
11
156.553
21
-63.9454
0
LINE
8
BLACK
6
CONTINUOUS
10
158.553
20
-63.9454
11
158.654
21
-64.004
0
LINE
8
BLACK
6
CONTINUOUS
10
158.654
20
-64.004
11
158.73
21
-64.0938
0
LINE
8
BLACK
6
CONTINUOUS
10
158.73
20
-64.0938
11
158.775
21
-64.2625
0
LINE
8
BLACK
6
CONTINUOUS
10
158.775
20
-64.2625
11
158.775
21
-65.0375
0
LINE
8
BLACK
6
CONTINUOUS
10
158.775
20
-65.0375
11
158.755
21
-65.1529
0
LINE
8
BLACK
6
CONTINUOUS
10
158.755
20
-65.1529
11
158.696
21
-65.2544
0
LINE
8
BLACK
6
CONTINUOUS
10
158.696
20
-65.2544
11
158.606
21
-65.3298
0
LINE
8
BLACK
6
CONTINUOUS
10
158.606
20
-65.3298
11
158.438
21
-65.375
0
LINE
8
BLACK
6
CONTINUOUS
10
158.438
20
-65.375
11
157.762
21
-65.375
0
LINE
8
BLACK
6
CONTINUOUS
10
157.762
20
-65.375
11
157.647
21
-65.3546
0
LINE
8
BLACK
6
CONTINUOUS
10
157.647
20
-65.3546
11
157.546
21
-65.296
0
LINE
8
BLACK
6
CONTINUOUS
10
157.546
20
-65.296
11
157.47
21
-65.2062
0
LINE
8
BLACK
6
CONTINUOUS
10
157.47
20
-65.2062
11
157.425
21
-65.0375
0
LINE
8
BLACK
6
CONTINUOUS
10
157.425
20
-65.0375
11
157.425
21
-64.2625
0
LINE
8
BLACK
6
CONTINUOUS
10
157.425
20
-64.2625
11
157.445
21
-64.1471
0
LINE
8
BLACK
6
CONTINUOUS
10
157.445
20
-64.1471
11
157.504
21
-64.0456
0
LINE
8
BLACK
6
CONTINUOUS
10
157.504
20
-64.0456
11
157.594
21
-63.9702
0
LINE
8
BLACK
6
CONTINUOUS
10
157.594
20
-63.9702
11
157.762
21
-63.925
0
LINE
8
BLACK
6
CONTINUOUS
10
157.762
20
-63.925
11
158.438
21
-63.925
0
LINE
8
BLACK
6
CONTINUOUS
10
158.438
20
-63.925
11
158.553
21
-63.9454
  0
ENDSEC
  0
EOF
