  0
SECTION
  2
HEADER
  9
$ANGBASE
  50
0.0
  9
$ANGDIR
  70
  1
  9
$MEASUREMENT
  70
0
  0
ENDSEC
  0
SECTION
  2
TABLES
  0
TABLE
  2
LTYPE
  70
4
  0
LTYPE
  5
40F
  2
CONTINUOUS
  70
0
  3
Solid line
  72
65
  73
0
  40
0.0
  0
LTYPE
  5
410
  2
DASHDOT
 70
0
  3
Dash Dot ____ _ ____ _
 72
65
 73
4
 40
2.0
 49
1.25
 49
-0.25
 49
0.25
 49
-0.25
  0
LTYPE
  5
411
  2
DASHED
 70
0
  3
Dashed __ __ __ __ __
 72
65
 73
2
 40
0.75
 49
0.5
 49
-0.25
  0
LTYPE
  5
43B
  2
DOTTED
 70
0
  3
Dotted .  .  .  .
 72
65
 73
2
 40
0.2
 49
0.0
 49
-0.2
  0
ENDTAB
  0
TABLE
  2
STYLE
  70
4
  0
STYLE
  2
KICAD
  70
0
  40
0
  41
1
  42
1
  50
0
  71
0
  3
isocp.shx
  0
STYLE
  2
KICADB
  70
0
  40
0
  41
1
  42
1
  50
0
  71
0
  3
isocp.shx
  0
STYLE
  2
KICADI
  70
0
  40
0
  41
1
  42
1
  50
15
  71
0
  3
isocp.shx
  0
STYLE
  2
KICADBI
  70
0
  40
0
  41
1
  42
1
  50
15
  71
0
  3
isocp.shx
  0
ENDTAB
  0
TABLE
  2
LAYER
  70
30
  0
LAYER
  2
BLACK
  70
0
  62
7
  6
CONTINUOUS
  0
LAYER
  2
GRAY1
  70
0
  62
251
  6
CONTINUOUS
  0
LAYER
  2
GRAY2
  70
0
  62
8
  6
CONTINUOUS
  0
LAYER
  2
GRAY3
  70
0
  62
9
  6
CONTINUOUS
  0
LAYER
  2
WHITE
  70
0
  62
7
  6
CONTINUOUS
  0
LAYER
  2
LYELLOW
  70
0
  62
51
  6
CONTINUOUS
  0
LAYER
  2
BLUE1
  70
0
  62
178
  6
CONTINUOUS
  0
LAYER
  2
GREEN1
  70
0
  62
98
  6
CONTINUOUS
  0
LAYER
  2
CYAN1
  70
0
  62
138
  6
CONTINUOUS
  0
LAYER
  2
RED1
  70
0
  62
18
  6
CONTINUOUS
  0
LAYER
  2
MAGENTA1
  70
0
  62
228
  6
CONTINUOUS
  0
LAYER
  2
BROWN1
  70
0
  62
58
  6
CONTINUOUS
  0
LAYER
  2
BLUE2
  70
0
  62
5
  6
CONTINUOUS
  0
LAYER
  2
GREEN2
  70
0
  62
3
  6
CONTINUOUS
  0
LAYER
  2
CYAN2
  70
0
  62
4
  6
CONTINUOUS
  0
LAYER
  2
RED2
  70
0
  62
1
  6
CONTINUOUS
  0
LAYER
  2
MAGENTA2
  70
0
  62
6
  6
CONTINUOUS
  0
LAYER
  2
BROWN2
  70
0
  62
54
  6
CONTINUOUS
  0
LAYER
  2
BLUE3
  70
0
  62
171
  6
CONTINUOUS
  0
LAYER
  2
GREEN3
  70
0
  62
91
  6
CONTINUOUS
  0
LAYER
  2
CYAN3
  70
0
  62
131
  6
CONTINUOUS
  0
LAYER
  2
RED3
  70
0
  62
11
  6
CONTINUOUS
  0
LAYER
  2
MAGENTA3
  70
0
  62
221
  6
CONTINUOUS
  0
LAYER
  2
YELLOW3
  70
0
  62
2
  6
CONTINUOUS
  0
LAYER
  2
BLUE4
  70
0
  62
5
  6
CONTINUOUS
  0
LAYER
  2
GREEN4
  70
0
  62
3
  6
CONTINUOUS
  0
LAYER
  2
CYAN4
  70
0
  62
4
  6
CONTINUOUS
  0
LAYER
  2
RED4
  70
0
  62
1
  6
CONTINUOUS
  0
LAYER
  2
MAGENTA4
  70
0
  62
6
  6
CONTINUOUS
  0
LAYER
  2
YELLOW4
  70
0
  62
2
  6
CONTINUOUS
  0
ENDTAB
  0
ENDSEC
  0
SECTION
  2
ENTITIES
0
LINE
8
BLACK
6
CONTINUOUS
10
169.259
20
-62.9
11
169.268
21
-62.9
0
LINE
8
BLACK
6
CONTINUOUS
10
169.268
20
-62.9
11
169.276
21
-62.903
0
LINE
8
BLACK
6
CONTINUOUS
10
169.276
20
-62.903
11
169.285
21
-62.9046
0
LINE
8
BLACK
6
CONTINUOUS
10
169.285
20
-62.9046
11
169.292
21
-62.909
0
LINE
8
BLACK
6
CONTINUOUS
10
169.292
20
-62.909
11
169.301
21
-62.9121
0
LINE
8
BLACK
6
CONTINUOUS
10
169.301
20
-62.9121
11
169.308
21
-62.9178
0
LINE
8
BLACK
6
CONTINUOUS
10
169.308
20
-62.9178
11
169.315
21
-62.9222
0
LINE
8
BLACK
6
CONTINUOUS
10
169.315
20
-62.9222
11
169.321
21
-62.929
0
LINE
8
BLACK
6
CONTINUOUS
10
169.321
20
-62.929
11
169.328
21
-62.9347
0
LINE
8
BLACK
6
CONTINUOUS
10
169.328
20
-62.9347
11
169.332
21
-62.9424
0
LINE
8
BLACK
6
CONTINUOUS
10
169.332
20
-62.9424
11
169.338
21
-62.9492
0
LINE
8
BLACK
6
CONTINUOUS
10
169.338
20
-62.9492
11
169.341
21
-62.9576
0
LINE
8
BLACK
6
CONTINUOUS
10
169.341
20
-62.9576
11
169.345
21
-62.9653
0
LINE
8
BLACK
6
CONTINUOUS
10
169.345
20
-62.9653
11
169.347
21
-62.974
0
LINE
8
BLACK
6
CONTINUOUS
10
169.347
20
-62.974
11
169.35
21
-62.9824
0
LINE
8
BLACK
6
CONTINUOUS
10
169.35
20
-62.9824
11
169.35
21
-62.9912
0
LINE
8
BLACK
6
CONTINUOUS
10
169.35
20
-62.9912
11
169.35
21
-62.9913
0
LINE
8
BLACK
6
CONTINUOUS
10
169.35
20
-62.9913
11
169.35
21
-82.7587
0
LINE
8
BLACK
6
CONTINUOUS
10
169.35
20
-82.7587
11
169.35
21
-82.7588
0
LINE
8
BLACK
6
CONTINUOUS
10
169.35
20
-82.7588
11
169.35
21
-82.7676
0
LINE
8
BLACK
6
CONTINUOUS
10
169.35
20
-82.7676
11
169.347
21
-82.776
0
LINE
8
BLACK
6
CONTINUOUS
10
169.347
20
-82.776
11
169.345
21
-82.7847
0
LINE
8
BLACK
6
CONTINUOUS
10
169.345
20
-82.7847
11
169.341
21
-82.7924
0
LINE
8
BLACK
6
CONTINUOUS
10
169.341
20
-82.7924
11
169.338
21
-82.8008
0
LINE
8
BLACK
6
CONTINUOUS
10
169.338
20
-82.8008
11
169.332
21
-82.8076
0
LINE
8
BLACK
6
CONTINUOUS
10
169.332
20
-82.8076
11
169.328
21
-82.8153
0
LINE
8
BLACK
6
CONTINUOUS
10
169.328
20
-82.8153
11
169.321
21
-82.821
0
LINE
8
BLACK
6
CONTINUOUS
10
169.321
20
-82.821
11
169.315
21
-82.8278
0
LINE
8
BLACK
6
CONTINUOUS
10
169.315
20
-82.8278
11
169.308
21
-82.8322
0
LINE
8
BLACK
6
CONTINUOUS
10
169.308
20
-82.8322
11
169.301
21
-82.8379
0
LINE
8
BLACK
6
CONTINUOUS
10
169.301
20
-82.8379
11
169.292
21
-82.841
0
LINE
8
BLACK
6
CONTINUOUS
10
169.292
20
-82.841
11
169.285
21
-82.8454
0
LINE
8
BLACK
6
CONTINUOUS
10
169.285
20
-82.8454
11
169.276
21
-82.847
0
LINE
8
BLACK
6
CONTINUOUS
10
169.276
20
-82.847
11
169.268
21
-82.85
0
LINE
8
BLACK
6
CONTINUOUS
10
169.268
20
-82.85
11
169.259
21
-82.85
0
LINE
8
BLACK
6
CONTINUOUS
10
169.259
20
-82.85
11
169.259
21
-82.85
0
LINE
8
BLACK
6
CONTINUOUS
10
169.259
20
-82.85
11
162.1
21
-82.85
0
LINE
8
BLACK
6
CONTINUOUS
10
162.1
20
-82.85
11
162.1
21
-86.5087
0
LINE
8
BLACK
6
CONTINUOUS
10
162.1
20
-86.5087
11
162.1
21
-86.5088
0
LINE
8
BLACK
6
CONTINUOUS
10
162.1
20
-86.5088
11
162.1
21
-86.5176
0
LINE
8
BLACK
6
CONTINUOUS
10
162.1
20
-86.5176
11
162.097
21
-86.526
0
LINE
8
BLACK
6
CONTINUOUS
10
162.097
20
-86.526
11
162.095
21
-86.5347
0
LINE
8
BLACK
6
CONTINUOUS
10
162.095
20
-86.5347
11
162.091
21
-86.5424
0
LINE
8
BLACK
6
CONTINUOUS
10
162.091
20
-86.5424
11
162.088
21
-86.5508
0
LINE
8
BLACK
6
CONTINUOUS
10
162.088
20
-86.5508
11
162.082
21
-86.5576
0
LINE
8
BLACK
6
CONTINUOUS
10
162.082
20
-86.5576
11
162.078
21
-86.5653
0
LINE
8
BLACK
6
CONTINUOUS
10
162.078
20
-86.5653
11
162.071
21
-86.571
0
LINE
8
BLACK
6
CONTINUOUS
10
162.071
20
-86.571
11
162.065
21
-86.5778
0
LINE
8
BLACK
6
CONTINUOUS
10
162.065
20
-86.5778
11
162.058
21
-86.5822
0
LINE
8
BLACK
6
CONTINUOUS
10
162.058
20
-86.5822
11
162.051
21
-86.5879
0
LINE
8
BLACK
6
CONTINUOUS
10
162.051
20
-86.5879
11
162.042
21
-86.591
0
LINE
8
BLACK
6
CONTINUOUS
10
162.042
20
-86.591
11
162.035
21
-86.5954
0
LINE
8
BLACK
6
CONTINUOUS
10
162.035
20
-86.5954
11
162.026
21
-86.597
0
LINE
8
BLACK
6
CONTINUOUS
10
162.026
20
-86.597
11
162.018
21
-86.6
0
LINE
8
BLACK
6
CONTINUOUS
10
162.018
20
-86.6
11
162.009
21
-86.6
0
LINE
8
BLACK
6
CONTINUOUS
10
162.009
20
-86.6
11
162.009
21
-86.6
0
LINE
8
BLACK
6
CONTINUOUS
10
162.009
20
-86.6
11
152.85
21
-86.6
0
LINE
8
BLACK
6
CONTINUOUS
10
152.85
20
-86.6
11
152.85
21
-91.0087
0
LINE
8
BLACK
6
CONTINUOUS
10
152.85
20
-91.0087
11
152.85
21
-91.0088
0
LINE
8
BLACK
6
CONTINUOUS
10
152.85
20
-91.0088
11
152.85
21
-91.0176
0
LINE
8
BLACK
6
CONTINUOUS
10
152.85
20
-91.0176
11
152.847
21
-91.026
0
LINE
8
BLACK
6
CONTINUOUS
10
152.847
20
-91.026
11
152.845
21
-91.0347
0
LINE
8
BLACK
6
CONTINUOUS
10
152.845
20
-91.0347
11
152.841
21
-91.0424
0
LINE
8
BLACK
6
CONTINUOUS
10
152.841
20
-91.0424
11
152.838
21
-91.0508
0
LINE
8
BLACK
6
CONTINUOUS
10
152.838
20
-91.0508
11
152.832
21
-91.0576
0
LINE
8
BLACK
6
CONTINUOUS
10
152.832
20
-91.0576
11
152.828
21
-91.0653
0
LINE
8
BLACK
6
CONTINUOUS
10
152.828
20
-91.0653
11
152.821
21
-91.071
0
LINE
8
BLACK
6
CONTINUOUS
10
152.821
20
-91.071
11
152.815
21
-91.0778
0
LINE
8
BLACK
6
CONTINUOUS
10
152.815
20
-91.0778
11
152.808
21
-91.0822
0
LINE
8
BLACK
6
CONTINUOUS
10
152.808
20
-91.0822
11
152.801
21
-91.0879
0
LINE
8
BLACK
6
CONTINUOUS
10
152.801
20
-91.0879
11
152.792
21
-91.091
0
LINE
8
BLACK
6
CONTINUOUS
10
152.792
20
-91.091
11
152.785
21
-91.0954
0
LINE
8
BLACK
6
CONTINUOUS
10
152.785
20
-91.0954
11
152.776
21
-91.097
0
LINE
8
BLACK
6
CONTINUOUS
10
152.776
20
-91.097
11
152.768
21
-91.1
0
LINE
8
BLACK
6
CONTINUOUS
10
152.768
20
-91.1
11
152.759
21
-91.1
0
LINE
8
BLACK
6
CONTINUOUS
10
152.759
20
-91.1
11
152.759
21
-91.1
0
LINE
8
BLACK
6
CONTINUOUS
10
152.759
20
-91.1
11
143.991
21
-91.1
0
LINE
8
BLACK
6
CONTINUOUS
10
143.991
20
-91.1
11
143.991
21
-91.1
0
LINE
8
BLACK
6
CONTINUOUS
10
143.991
20
-91.1
11
143.982
21
-91.1
0
LINE
8
BLACK
6
CONTINUOUS
10
143.982
20
-91.1
11
143.974
21
-91.097
0
LINE
8
BLACK
6
CONTINUOUS
10
143.974
20
-91.097
11
143.965
21
-91.0954
0
LINE
8
BLACK
6
CONTINUOUS
10
143.965
20
-91.0954
11
143.958
21
-91.091
0
LINE
8
BLACK
6
CONTINUOUS
10
143.958
20
-91.091
11
143.949
21
-91.0879
0
LINE
8
BLACK
6
CONTINUOUS
10
143.949
20
-91.0879
11
143.942
21
-91.0822
0
LINE
8
BLACK
6
CONTINUOUS
10
143.942
20
-91.0822
11
143.935
21
-91.0778
0
LINE
8
BLACK
6
CONTINUOUS
10
143.935
20
-91.0778
11
143.929
21
-91.071
0
LINE
8
BLACK
6
CONTINUOUS
10
143.929
20
-91.071
11
143.922
21
-91.0653
0
LINE
8
BLACK
6
CONTINUOUS
10
143.922
20
-91.0653
11
143.918
21
-91.0576
0
LINE
8
BLACK
6
CONTINUOUS
10
143.918
20
-91.0576
11
143.912
21
-91.0508
0
LINE
8
BLACK
6
CONTINUOUS
10
143.912
20
-91.0508
11
143.909
21
-91.0424
0
LINE
8
BLACK
6
CONTINUOUS
10
143.909
20
-91.0424
11
143.905
21
-91.0347
0
LINE
8
BLACK
6
CONTINUOUS
10
143.905
20
-91.0347
11
143.903
21
-91.026
0
LINE
8
BLACK
6
CONTINUOUS
10
143.903
20
-91.026
11
143.9
21
-91.0176
0
LINE
8
BLACK
6
CONTINUOUS
10
143.9
20
-91.0176
11
143.9
21
-91.0087
0
LINE
8
BLACK
6
CONTINUOUS
10
143.9
20
-91.0087
11
143.9
21
-91.0087
0
LINE
8
BLACK
6
CONTINUOUS
10
143.9
20
-91.0087
11
143.9
21
-62.9913
0
LINE
8
BLACK
6
CONTINUOUS
10
143.9
20
-62.9913
11
143.9
21
-62.9824
0
LINE
8
BLACK
6
CONTINUOUS
10
143.9
20
-62.9824
11
143.903
21
-62.974
0
LINE
8
BLACK
6
CONTINUOUS
10
143.903
20
-62.974
11
143.905
21
-62.9653
0
LINE
8
BLACK
6
CONTINUOUS
10
143.905
20
-62.9653
11
143.909
21
-62.9576
0
LINE
8
BLACK
6
CONTINUOUS
10
143.909
20
-62.9576
11
143.912
21
-62.9492
0
LINE
8
BLACK
6
CONTINUOUS
10
143.912
20
-62.9492
11
143.918
21
-62.9424
0
LINE
8
BLACK
6
CONTINUOUS
10
143.918
20
-62.9424
11
143.922
21
-62.9347
0
LINE
8
BLACK
6
CONTINUOUS
10
143.922
20
-62.9347
11
143.929
21
-62.929
0
LINE
8
BLACK
6
CONTINUOUS
10
143.929
20
-62.929
11
143.935
21
-62.9222
0
LINE
8
BLACK
6
CONTINUOUS
10
143.935
20
-62.9222
11
143.942
21
-62.9178
0
LINE
8
BLACK
6
CONTINUOUS
10
143.942
20
-62.9178
11
143.949
21
-62.9121
0
LINE
8
BLACK
6
CONTINUOUS
10
143.949
20
-62.9121
11
143.958
21
-62.909
0
LINE
8
BLACK
6
CONTINUOUS
10
143.958
20
-62.909
11
143.965
21
-62.9046
0
LINE
8
BLACK
6
CONTINUOUS
10
143.965
20
-62.9046
11
143.974
21
-62.903
0
LINE
8
BLACK
6
CONTINUOUS
10
143.974
20
-62.903
11
143.982
21
-62.9
0
LINE
8
BLACK
6
CONTINUOUS
10
143.982
20
-62.9
11
143.991
21
-62.9
0
LINE
8
BLACK
6
CONTINUOUS
10
143.991
20
-62.9
11
143.991
21
-62.9
0
LINE
8
BLACK
6
CONTINUOUS
10
143.991
20
-62.9
11
169.259
21
-62.9
0
LINE
8
BLACK
6
CONTINUOUS
10
169.259
20
-62.9
11
169.259
21
-62.9
0
LINE
8
BLACK
6
CONTINUOUS
10
144.1
20
-63.1
11
144.1
21
-90.9
0
LINE
8
BLACK
6
CONTINUOUS
10
144.1
20
-90.9
11
152.65
21
-90.9
0
LINE
8
BLACK
6
CONTINUOUS
10
152.65
20
-90.9
11
152.65
21
-86.4913
0
LINE
8
BLACK
6
CONTINUOUS
10
152.65
20
-86.4913
11
152.65
21
-86.4912
0
LINE
8
BLACK
6
CONTINUOUS
10
152.65
20
-86.4912
11
152.65
21
-86.4824
0
LINE
8
BLACK
6
CONTINUOUS
10
152.65
20
-86.4824
11
152.653
21
-86.474
0
LINE
8
BLACK
6
CONTINUOUS
10
152.653
20
-86.474
11
152.655
21
-86.4653
0
LINE
8
BLACK
6
CONTINUOUS
10
152.655
20
-86.4653
11
152.659
21
-86.4576
0
LINE
8
BLACK
6
CONTINUOUS
10
152.659
20
-86.4576
11
152.662
21
-86.4492
0
LINE
8
BLACK
6
CONTINUOUS
10
152.662
20
-86.4492
11
152.668
21
-86.4424
0
LINE
8
BLACK
6
CONTINUOUS
10
152.668
20
-86.4424
11
152.672
21
-86.4347
0
LINE
8
BLACK
6
CONTINUOUS
10
152.672
20
-86.4347
11
152.679
21
-86.429
0
LINE
8
BLACK
6
CONTINUOUS
10
152.679
20
-86.429
11
152.685
21
-86.4222
0
LINE
8
BLACK
6
CONTINUOUS
10
152.685
20
-86.4222
11
152.692
21
-86.4178
0
LINE
8
BLACK
6
CONTINUOUS
10
152.692
20
-86.4178
11
152.699
21
-86.4121
0
LINE
8
BLACK
6
CONTINUOUS
10
152.699
20
-86.4121
11
152.708
21
-86.409
0
LINE
8
BLACK
6
CONTINUOUS
10
152.708
20
-86.409
11
152.715
21
-86.4046
0
LINE
8
BLACK
6
CONTINUOUS
10
152.715
20
-86.4046
11
152.724
21
-86.403
0
LINE
8
BLACK
6
CONTINUOUS
10
152.724
20
-86.403
11
152.732
21
-86.4
0
LINE
8
BLACK
6
CONTINUOUS
10
152.732
20
-86.4
11
152.741
21
-86.4
0
LINE
8
BLACK
6
CONTINUOUS
10
152.741
20
-86.4
11
152.741
21
-86.4
0
LINE
8
BLACK
6
CONTINUOUS
10
152.741
20
-86.4
11
161.9
21
-86.4
0
LINE
8
BLACK
6
CONTINUOUS
10
161.9
20
-86.4
11
161.9
21
-82.7413
0
LINE
8
BLACK
6
CONTINUOUS
10
161.9
20
-82.7413
11
161.9
21
-82.7412
0
LINE
8
BLACK
6
CONTINUOUS
10
161.9
20
-82.7412
11
161.9
21
-82.7324
0
LINE
8
BLACK
6
CONTINUOUS
10
161.9
20
-82.7324
11
161.903
21
-82.724
0
LINE
8
BLACK
6
CONTINUOUS
10
161.903
20
-82.724
11
161.905
21
-82.7153
0
LINE
8
BLACK
6
CONTINUOUS
10
161.905
20
-82.7153
11
161.909
21
-82.7076
0
LINE
8
BLACK
6
CONTINUOUS
10
161.909
20
-82.7076
11
161.912
21
-82.6992
0
LINE
8
BLACK
6
CONTINUOUS
10
161.912
20
-82.6992
11
161.918
21
-82.6924
0
LINE
8
BLACK
6
CONTINUOUS
10
161.918
20
-82.6924
11
161.922
21
-82.6847
0
LINE
8
BLACK
6
CONTINUOUS
10
161.922
20
-82.6847
11
161.929
21
-82.679
0
LINE
8
BLACK
6
CONTINUOUS
10
161.929
20
-82.679
11
161.935
21
-82.6722
0
LINE
8
BLACK
6
CONTINUOUS
10
161.935
20
-82.6722
11
161.942
21
-82.6678
0
LINE
8
BLACK
6
CONTINUOUS
10
161.942
20
-82.6678
11
161.949
21
-82.6621
0
LINE
8
BLACK
6
CONTINUOUS
10
161.949
20
-82.6621
11
161.958
21
-82.659
0
LINE
8
BLACK
6
CONTINUOUS
10
161.958
20
-82.659
11
161.965
21
-82.6546
0
LINE
8
BLACK
6
CONTINUOUS
10
161.965
20
-82.6546
11
161.974
21
-82.653
0
LINE
8
BLACK
6
CONTINUOUS
10
161.974
20
-82.653
11
161.982
21
-82.65
0
LINE
8
BLACK
6
CONTINUOUS
10
161.982
20
-82.65
11
161.991
21
-82.65
0
LINE
8
BLACK
6
CONTINUOUS
10
161.991
20
-82.65
11
161.991
21
-82.65
0
LINE
8
BLACK
6
CONTINUOUS
10
161.991
20
-82.65
11
169.15
21
-82.65
0
LINE
8
BLACK
6
CONTINUOUS
10
169.15
20
-82.65
11
169.15
21
-63.1
0
LINE
8
BLACK
6
CONTINUOUS
10
169.15
20
-63.1
11
144.1
21
-63.1
  0
ENDSEC
  0
EOF
