  0
SECTION
  2
HEADER
  9
$ANGBASE
  50
0.0
  9
$ANGDIR
  70
  1
  9
$MEASUREMENT
  70
0
  0
ENDSEC
  0
SECTION
  2
TABLES
  0
TABLE
  2
LTYPE
  70
4
  0
LTYPE
  5
40F
  2
CONTINUOUS
  70
0
  3
Solid line
  72
65
  73
0
  40
0.0
  0
LTYPE
  5
410
  2
DASHDOT
 70
0
  3
Dash Dot ____ _ ____ _
 72
65
 73
4
 40
2.0
 49
1.25
 49
-0.25
 49
0.25
 49
-0.25
  0
LTYPE
  5
411
  2
DASHED
 70
0
  3
Dashed __ __ __ __ __
 72
65
 73
2
 40
0.75
 49
0.5
 49
-0.25
  0
LTYPE
  5
43B
  2
DOTTED
 70
0
  3
Dotted .  .  .  .
 72
65
 73
2
 40
0.2
 49
0.0
 49
-0.2
  0
ENDTAB
  0
TABLE
  2
STYLE
  70
4
  0
STYLE
  2
KICAD
  70
0
  40
0
  41
1
  42
1
  50
0
  71
0
  3
isocp.shx
  0
STYLE
  2
KICADB
  70
0
  40
0
  41
1
  42
1
  50
0
  71
0
  3
isocp.shx
  0
STYLE
  2
KICADI
  70
0
  40
0
  41
1
  42
1
  50
15
  71
0
  3
isocp.shx
  0
STYLE
  2
KICADBI
  70
0
  40
0
  41
1
  42
1
  50
15
  71
0
  3
isocp.shx
  0
ENDTAB
  0
TABLE
  2
LAYER
  70
30
  0
LAYER
  2
BLACK
  70
0
  62
7
  6
CONTINUOUS
  0
LAYER
  2
GRAY1
  70
0
  62
251
  6
CONTINUOUS
  0
LAYER
  2
GRAY2
  70
0
  62
8
  6
CONTINUOUS
  0
LAYER
  2
GRAY3
  70
0
  62
9
  6
CONTINUOUS
  0
LAYER
  2
WHITE
  70
0
  62
7
  6
CONTINUOUS
  0
LAYER
  2
LYELLOW
  70
0
  62
51
  6
CONTINUOUS
  0
LAYER
  2
BLUE1
  70
0
  62
178
  6
CONTINUOUS
  0
LAYER
  2
GREEN1
  70
0
  62
98
  6
CONTINUOUS
  0
LAYER
  2
CYAN1
  70
0
  62
138
  6
CONTINUOUS
  0
LAYER
  2
RED1
  70
0
  62
18
  6
CONTINUOUS
  0
LAYER
  2
MAGENTA1
  70
0
  62
228
  6
CONTINUOUS
  0
LAYER
  2
BROWN1
  70
0
  62
58
  6
CONTINUOUS
  0
LAYER
  2
BLUE2
  70
0
  62
5
  6
CONTINUOUS
  0
LAYER
  2
GREEN2
  70
0
  62
3
  6
CONTINUOUS
  0
LAYER
  2
CYAN2
  70
0
  62
4
  6
CONTINUOUS
  0
LAYER
  2
RED2
  70
0
  62
1
  6
CONTINUOUS
  0
LAYER
  2
MAGENTA2
  70
0
  62
6
  6
CONTINUOUS
  0
LAYER
  2
BROWN2
  70
0
  62
54
  6
CONTINUOUS
  0
LAYER
  2
BLUE3
  70
0
  62
171
  6
CONTINUOUS
  0
LAYER
  2
GREEN3
  70
0
  62
91
  6
CONTINUOUS
  0
LAYER
  2
CYAN3
  70
0
  62
131
  6
CONTINUOUS
  0
LAYER
  2
RED3
  70
0
  62
11
  6
CONTINUOUS
  0
LAYER
  2
MAGENTA3
  70
0
  62
221
  6
CONTINUOUS
  0
LAYER
  2
YELLOW3
  70
0
  62
2
  6
CONTINUOUS
  0
LAYER
  2
BLUE4
  70
0
  62
5
  6
CONTINUOUS
  0
LAYER
  2
GREEN4
  70
0
  62
3
  6
CONTINUOUS
  0
LAYER
  2
CYAN4
  70
0
  62
4
  6
CONTINUOUS
  0
LAYER
  2
RED4
  70
0
  62
1
  6
CONTINUOUS
  0
LAYER
  2
MAGENTA4
  70
0
  62
6
  6
CONTINUOUS
  0
LAYER
  2
YELLOW4
  70
0
  62
2
  6
CONTINUOUS
  0
ENDTAB
  0
ENDSEC
  0
SECTION
  2
ENTITIES
0
LINE
8
BLACK
6
CONTINUOUS
10
149.6
20
-90.075
11
147.98
21
-90.075
0
LINE
8
BLACK
6
CONTINUOUS
10
147.98
20
-90.075
11
147.98
21
-89.025
0
LINE
8
BLACK
6
CONTINUOUS
10
147.98
20
-89.025
11
149.6
21
-89.025
0
LINE
8
BLACK
6
CONTINUOUS
10
149.6
20
-89.025
11
149.6
21
-90.075
0
LINE
8
BLACK
6
CONTINUOUS
10
150.6
20
-90.075
11
150.6
21
-87.125
0
LINE
8
BLACK
6
CONTINUOUS
10
150.6
20
-87.125
11
152.22
21
-87.125
0
LINE
8
BLACK
6
CONTINUOUS
10
152.22
20
-87.125
11
152.22
21
-90.075
0
LINE
8
BLACK
6
CONTINUOUS
10
152.22
20
-90.075
11
150.6
21
-90.075
0
LINE
8
BLACK
6
CONTINUOUS
10
145.767
20
-88.8036
11
145.925
21
-88.8948
0
LINE
8
BLACK
6
CONTINUOUS
10
145.925
20
-88.8948
11
145.925
21
-88.775
0
LINE
8
BLACK
6
CONTINUOUS
10
145.925
20
-88.775
11
147.175
21
-88.775
0
LINE
8
BLACK
6
CONTINUOUS
10
147.175
20
-88.775
11
147.175
21
-90.025
0
LINE
8
BLACK
6
CONTINUOUS
10
147.175
20
-90.025
11
145.925
21
-90.025
0
LINE
8
BLACK
6
CONTINUOUS
10
145.925
20
-90.025
11
145.925
21
-89.9052
0
LINE
8
BLACK
6
CONTINUOUS
10
145.925
20
-89.9052
11
145.767
21
-89.9964
0
LINE
8
BLACK
6
CONTINUOUS
10
145.767
20
-89.9964
11
145.605
21
-90.025
0
LINE
8
BLACK
6
CONTINUOUS
10
145.605
20
-90.025
11
145.495
21
-90.025
0
LINE
8
BLACK
6
CONTINUOUS
10
145.495
20
-90.025
11
145.333
21
-89.9964
0
LINE
8
BLACK
6
CONTINUOUS
10
145.333
20
-89.9964
11
145.142
21
-89.8862
0
LINE
8
BLACK
6
CONTINUOUS
10
145.142
20
-89.8862
11
145
21
-89.7173
0
LINE
8
BLACK
6
CONTINUOUS
10
145
20
-89.7173
11
144.925
21
-89.5102
0
LINE
8
BLACK
6
CONTINUOUS
10
144.925
20
-89.5102
11
144.925
21
-89.2898
0
LINE
8
BLACK
6
CONTINUOUS
10
144.925
20
-89.2898
11
145
21
-89.0827
0
LINE
8
BLACK
6
CONTINUOUS
10
145
20
-89.0827
11
145.142
21
-88.9138
0
LINE
8
BLACK
6
CONTINUOUS
10
145.142
20
-88.9138
11
145.333
21
-88.8036
0
LINE
8
BLACK
6
CONTINUOUS
10
145.333
20
-88.8036
11
145.495
21
-88.775
0
LINE
8
BLACK
6
CONTINUOUS
10
145.495
20
-88.775
11
145.605
21
-88.775
0
LINE
8
BLACK
6
CONTINUOUS
10
145.605
20
-88.775
11
145.767
21
-88.8036
0
LINE
8
BLACK
6
CONTINUOUS
10
149.6
20
-88.175
11
147.98
21
-88.175
0
LINE
8
BLACK
6
CONTINUOUS
10
147.98
20
-88.175
11
147.98
21
-87.125
0
LINE
8
BLACK
6
CONTINUOUS
10
147.98
20
-87.125
11
149.6
21
-87.125
0
LINE
8
BLACK
6
CONTINUOUS
10
149.6
20
-87.125
11
149.6
21
-88.175
0
LINE
8
BLACK
6
CONTINUOUS
10
147.253
20
-86.7954
11
147.354
21
-86.854
0
LINE
8
BLACK
6
CONTINUOUS
10
147.354
20
-86.854
11
147.43
21
-86.9437
0
LINE
8
BLACK
6
CONTINUOUS
10
147.43
20
-86.9437
11
147.475
21
-87.1125
0
LINE
8
BLACK
6
CONTINUOUS
10
147.475
20
-87.1125
11
147.475
21
-87.7875
0
LINE
8
BLACK
6
CONTINUOUS
10
147.475
20
-87.7875
11
147.455
21
-87.9029
0
LINE
8
BLACK
6
CONTINUOUS
10
147.455
20
-87.9029
11
147.396
21
-88.0044
0
LINE
8
BLACK
6
CONTINUOUS
10
147.396
20
-88.0044
11
147.306
21
-88.0798
0
LINE
8
BLACK
6
CONTINUOUS
10
147.306
20
-88.0798
11
147.137
21
-88.125
0
LINE
8
BLACK
6
CONTINUOUS
10
147.137
20
-88.125
11
146.362
21
-88.125
0
LINE
8
BLACK
6
CONTINUOUS
10
146.362
20
-88.125
11
146.247
21
-88.1046
0
LINE
8
BLACK
6
CONTINUOUS
10
146.247
20
-88.1046
11
146.146
21
-88.046
0
LINE
8
BLACK
6
CONTINUOUS
10
146.146
20
-88.046
11
146.07
21
-87.9562
0
LINE
8
BLACK
6
CONTINUOUS
10
146.07
20
-87.9562
11
146.025
21
-87.7875
0
LINE
8
BLACK
6
CONTINUOUS
10
146.025
20
-87.7875
11
146.025
21
-87.1125
0
LINE
8
BLACK
6
CONTINUOUS
10
146.025
20
-87.1125
11
146.045
21
-86.9971
0
LINE
8
BLACK
6
CONTINUOUS
10
146.045
20
-86.9971
11
146.104
21
-86.8956
0
LINE
8
BLACK
6
CONTINUOUS
10
146.104
20
-86.8956
11
146.194
21
-86.8202
0
LINE
8
BLACK
6
CONTINUOUS
10
146.194
20
-86.8202
11
146.362
21
-86.775
0
LINE
8
BLACK
6
CONTINUOUS
10
146.362
20
-86.775
11
147.137
21
-86.775
0
LINE
8
BLACK
6
CONTINUOUS
10
147.137
20
-86.775
11
147.253
21
-86.7954
0
LINE
8
BLACK
6
CONTINUOUS
10
145.503
20
-86.7954
11
145.604
21
-86.854
0
LINE
8
BLACK
6
CONTINUOUS
10
145.604
20
-86.854
11
145.68
21
-86.9437
0
LINE
8
BLACK
6
CONTINUOUS
10
145.68
20
-86.9437
11
145.725
21
-87.1125
0
LINE
8
BLACK
6
CONTINUOUS
10
145.725
20
-87.1125
11
145.725
21
-87.7875
0
LINE
8
BLACK
6
CONTINUOUS
10
145.725
20
-87.7875
11
145.705
21
-87.9029
0
LINE
8
BLACK
6
CONTINUOUS
10
145.705
20
-87.9029
11
145.646
21
-88.0044
0
LINE
8
BLACK
6
CONTINUOUS
10
145.646
20
-88.0044
11
145.556
21
-88.0798
0
LINE
8
BLACK
6
CONTINUOUS
10
145.556
20
-88.0798
11
145.387
21
-88.125
0
LINE
8
BLACK
6
CONTINUOUS
10
145.387
20
-88.125
11
144.612
21
-88.125
0
LINE
8
BLACK
6
CONTINUOUS
10
144.612
20
-88.125
11
144.497
21
-88.1046
0
LINE
8
BLACK
6
CONTINUOUS
10
144.497
20
-88.1046
11
144.396
21
-88.046
0
LINE
8
BLACK
6
CONTINUOUS
10
144.396
20
-88.046
11
144.32
21
-87.9562
0
LINE
8
BLACK
6
CONTINUOUS
10
144.32
20
-87.9562
11
144.275
21
-87.7875
0
LINE
8
BLACK
6
CONTINUOUS
10
144.275
20
-87.7875
11
144.275
21
-87.1125
0
LINE
8
BLACK
6
CONTINUOUS
10
144.275
20
-87.1125
11
144.295
21
-86.9971
0
LINE
8
BLACK
6
CONTINUOUS
10
144.295
20
-86.9971
11
144.354
21
-86.8956
0
LINE
8
BLACK
6
CONTINUOUS
10
144.354
20
-86.8956
11
144.444
21
-86.8202
0
LINE
8
BLACK
6
CONTINUOUS
10
144.444
20
-86.8202
11
144.612
21
-86.775
0
LINE
8
BLACK
6
CONTINUOUS
10
144.612
20
-86.775
11
145.387
21
-86.775
0
LINE
8
BLACK
6
CONTINUOUS
10
145.387
20
-86.775
11
145.503
21
-86.7954
0
LINE
8
BLACK
6
CONTINUOUS
10
146.953
20
-85.1954
11
147.054
21
-85.254
0
LINE
8
BLACK
6
CONTINUOUS
10
147.054
20
-85.254
11
147.13
21
-85.3438
0
LINE
8
BLACK
6
CONTINUOUS
10
147.13
20
-85.3438
11
147.175
21
-85.5125
0
LINE
8
BLACK
6
CONTINUOUS
10
147.175
20
-85.5125
11
147.175
21
-86.2875
0
LINE
8
BLACK
6
CONTINUOUS
10
147.175
20
-86.2875
11
147.155
21
-86.4029
0
LINE
8
BLACK
6
CONTINUOUS
10
147.155
20
-86.4029
11
147.096
21
-86.5044
0
LINE
8
BLACK
6
CONTINUOUS
10
147.096
20
-86.5044
11
147.006
21
-86.5798
0
LINE
8
BLACK
6
CONTINUOUS
10
147.006
20
-86.5798
11
146.838
21
-86.625
0
LINE
8
BLACK
6
CONTINUOUS
10
146.838
20
-86.625
11
146.162
21
-86.625
0
LINE
8
BLACK
6
CONTINUOUS
10
146.162
20
-86.625
11
146.047
21
-86.6046
0
LINE
8
BLACK
6
CONTINUOUS
10
146.047
20
-86.6046
11
145.946
21
-86.546
0
LINE
8
BLACK
6
CONTINUOUS
10
145.946
20
-86.546
11
145.87
21
-86.4562
0
LINE
8
BLACK
6
CONTINUOUS
10
145.87
20
-86.4562
11
145.825
21
-86.2875
0
LINE
8
BLACK
6
CONTINUOUS
10
145.825
20
-86.2875
11
145.825
21
-85.5125
0
LINE
8
BLACK
6
CONTINUOUS
10
145.825
20
-85.5125
11
145.845
21
-85.3971
0
LINE
8
BLACK
6
CONTINUOUS
10
145.845
20
-85.3971
11
145.904
21
-85.2956
0
LINE
8
BLACK
6
CONTINUOUS
10
145.904
20
-85.2956
11
145.994
21
-85.2202
0
LINE
8
BLACK
6
CONTINUOUS
10
145.994
20
-85.2202
11
146.162
21
-85.175
0
LINE
8
BLACK
6
CONTINUOUS
10
146.162
20
-85.175
11
146.838
21
-85.175
0
LINE
8
BLACK
6
CONTINUOUS
10
146.838
20
-85.175
11
146.953
21
-85.1954
0
LINE
8
BLACK
6
CONTINUOUS
10
150.125
20
-85.7875
11
150.125
21
-86.2625
0
LINE
8
BLACK
6
CONTINUOUS
10
150.125
20
-86.2625
11
148.475
21
-86.2625
0
LINE
8
BLACK
6
CONTINUOUS
10
148.475
20
-86.2625
11
148.475
21
-85.7875
0
LINE
8
BLACK
6
CONTINUOUS
10
148.475
20
-85.7875
11
147.5
21
-85.7875
0
LINE
8
BLACK
6
CONTINUOUS
10
147.5
20
-85.7875
11
147.5
21
-83.6375
0
LINE
8
BLACK
6
CONTINUOUS
10
147.5
20
-83.6375
11
148.475
21
-83.6375
0
LINE
8
BLACK
6
CONTINUOUS
10
148.475
20
-83.6375
11
148.475
21
-83.1625
0
LINE
8
BLACK
6
CONTINUOUS
10
148.475
20
-83.1625
11
150.125
21
-83.1625
0
LINE
8
BLACK
6
CONTINUOUS
10
150.125
20
-83.1625
11
150.125
21
-83.6375
0
LINE
8
BLACK
6
CONTINUOUS
10
150.125
20
-83.6375
11
151.1
21
-83.6375
0
LINE
8
BLACK
6
CONTINUOUS
10
151.1
20
-83.6375
11
151.1
21
-85.7875
0
LINE
8
BLACK
6
CONTINUOUS
10
151.1
20
-85.7875
11
150.125
21
-85.7875
0
LINE
8
BLACK
6
CONTINUOUS
10
148.575
20
-85.1875
11
150.025
21
-85.1875
0
LINE
8
BLACK
6
CONTINUOUS
10
150.025
20
-85.1875
11
150.025
21
-84.2375
0
LINE
8
BLACK
6
CONTINUOUS
10
150.025
20
-84.2375
11
148.575
21
-84.2375
0
LINE
8
BLACK
6
CONTINUOUS
10
148.575
20
-84.2375
11
148.575
21
-85.1875
0
LINE
8
BLACK
6
CONTINUOUS
10
151.46
20
-85.165
11
151.46
21
-80.545
0
LINE
8
BLACK
6
CONTINUOUS
10
151.46
20
-80.545
11
152.86
21
-80.545
0
LINE
8
BLACK
6
CONTINUOUS
10
152.86
20
-80.545
11
152.86
21
-85.165
0
LINE
8
BLACK
6
CONTINUOUS
10
152.86
20
-85.165
11
151.46
21
-85.165
0
LINE
8
BLACK
6
CONTINUOUS
10
146.953
20
-83.4454
11
147.054
21
-83.504
0
LINE
8
BLACK
6
CONTINUOUS
10
147.054
20
-83.504
11
147.13
21
-83.5938
0
LINE
8
BLACK
6
CONTINUOUS
10
147.13
20
-83.5938
11
147.175
21
-83.7625
0
LINE
8
BLACK
6
CONTINUOUS
10
147.175
20
-83.7625
11
147.175
21
-84.5375
0
LINE
8
BLACK
6
CONTINUOUS
10
147.175
20
-84.5375
11
147.155
21
-84.6529
0
LINE
8
BLACK
6
CONTINUOUS
10
147.155
20
-84.6529
11
147.096
21
-84.7544
0
LINE
8
BLACK
6
CONTINUOUS
10
147.096
20
-84.7544
11
147.006
21
-84.8298
0
LINE
8
BLACK
6
CONTINUOUS
10
147.006
20
-84.8298
11
146.838
21
-84.875
0
LINE
8
BLACK
6
CONTINUOUS
10
146.838
20
-84.875
11
146.162
21
-84.875
0
LINE
8
BLACK
6
CONTINUOUS
10
146.162
20
-84.875
11
146.047
21
-84.8546
0
LINE
8
BLACK
6
CONTINUOUS
10
146.047
20
-84.8546
11
145.946
21
-84.796
0
LINE
8
BLACK
6
CONTINUOUS
10
145.946
20
-84.796
11
145.87
21
-84.7062
0
LINE
8
BLACK
6
CONTINUOUS
10
145.87
20
-84.7062
11
145.825
21
-84.5375
0
LINE
8
BLACK
6
CONTINUOUS
10
145.825
20
-84.5375
11
145.825
21
-83.7625
0
LINE
8
BLACK
6
CONTINUOUS
10
145.825
20
-83.7625
11
145.845
21
-83.6471
0
LINE
8
BLACK
6
CONTINUOUS
10
145.845
20
-83.6471
11
145.904
21
-83.5456
0
LINE
8
BLACK
6
CONTINUOUS
10
145.904
20
-83.5456
11
145.994
21
-83.4702
0
LINE
8
BLACK
6
CONTINUOUS
10
145.994
20
-83.4702
11
146.162
21
-83.425
0
LINE
8
BLACK
6
CONTINUOUS
10
146.162
20
-83.425
11
146.838
21
-83.425
0
LINE
8
BLACK
6
CONTINUOUS
10
146.838
20
-83.425
11
146.953
21
-83.4454
0
LINE
8
BLACK
6
CONTINUOUS
10
146.453
20
-81.2454
11
146.554
21
-81.304
0
LINE
8
BLACK
6
CONTINUOUS
10
146.554
20
-81.304
11
146.63
21
-81.3937
0
LINE
8
BLACK
6
CONTINUOUS
10
146.63
20
-81.3937
11
146.675
21
-81.5625
0
LINE
8
BLACK
6
CONTINUOUS
10
146.675
20
-81.5625
11
146.675
21
-82.2375
0
LINE
8
BLACK
6
CONTINUOUS
10
146.675
20
-82.2375
11
146.655
21
-82.3529
0
LINE
8
BLACK
6
CONTINUOUS
10
146.655
20
-82.3529
11
146.596
21
-82.4544
0
LINE
8
BLACK
6
CONTINUOUS
10
146.596
20
-82.4544
11
146.506
21
-82.5298
0
LINE
8
BLACK
6
CONTINUOUS
10
146.506
20
-82.5298
11
146.338
21
-82.575
0
LINE
8
BLACK
6
CONTINUOUS
10
146.338
20
-82.575
11
145.562
21
-82.575
0
LINE
8
BLACK
6
CONTINUOUS
10
145.562
20
-82.575
11
145.447
21
-82.5546
0
LINE
8
BLACK
6
CONTINUOUS
10
145.447
20
-82.5546
11
145.346
21
-82.496
0
LINE
8
BLACK
6
CONTINUOUS
10
145.346
20
-82.496
11
145.27
21
-82.4062
0
LINE
8
BLACK
6
CONTINUOUS
10
145.27
20
-82.4062
11
145.225
21
-82.2375
0
LINE
8
BLACK
6
CONTINUOUS
10
145.225
20
-82.2375
11
145.225
21
-81.5625
0
LINE
8
BLACK
6
CONTINUOUS
10
145.225
20
-81.5625
11
145.245
21
-81.4471
0
LINE
8
BLACK
6
CONTINUOUS
10
145.245
20
-81.4471
11
145.304
21
-81.3456
0
LINE
8
BLACK
6
CONTINUOUS
10
145.304
20
-81.3456
11
145.394
21
-81.2702
0
LINE
8
BLACK
6
CONTINUOUS
10
145.394
20
-81.2702
11
145.562
21
-81.225
0
LINE
8
BLACK
6
CONTINUOUS
10
145.562
20
-81.225
11
146.338
21
-81.225
0
LINE
8
BLACK
6
CONTINUOUS
10
146.338
20
-81.225
11
146.453
21
-81.2454
0
LINE
8
BLACK
6
CONTINUOUS
10
148.203
20
-81.2454
11
148.304
21
-81.304
0
LINE
8
BLACK
6
CONTINUOUS
10
148.304
20
-81.304
11
148.38
21
-81.3937
0
LINE
8
BLACK
6
CONTINUOUS
10
148.38
20
-81.3937
11
148.425
21
-81.5625
0
LINE
8
BLACK
6
CONTINUOUS
10
148.425
20
-81.5625
11
148.425
21
-82.2375
0
LINE
8
BLACK
6
CONTINUOUS
10
148.425
20
-82.2375
11
148.405
21
-82.3529
0
LINE
8
BLACK
6
CONTINUOUS
10
148.405
20
-82.3529
11
148.346
21
-82.4544
0
LINE
8
BLACK
6
CONTINUOUS
10
148.346
20
-82.4544
11
148.256
21
-82.5298
0
LINE
8
BLACK
6
CONTINUOUS
10
148.256
20
-82.5298
11
148.088
21
-82.575
0
LINE
8
BLACK
6
CONTINUOUS
10
148.088
20
-82.575
11
147.312
21
-82.575
0
LINE
8
BLACK
6
CONTINUOUS
10
147.312
20
-82.575
11
147.197
21
-82.5546
0
LINE
8
BLACK
6
CONTINUOUS
10
147.197
20
-82.5546
11
147.096
21
-82.496
0
LINE
8
BLACK
6
CONTINUOUS
10
147.096
20
-82.496
11
147.02
21
-82.4062
0
LINE
8
BLACK
6
CONTINUOUS
10
147.02
20
-82.4062
11
146.975
21
-82.2375
0
LINE
8
BLACK
6
CONTINUOUS
10
146.975
20
-82.2375
11
146.975
21
-81.5625
0
LINE
8
BLACK
6
CONTINUOUS
10
146.975
20
-81.5625
11
146.995
21
-81.4471
0
LINE
8
BLACK
6
CONTINUOUS
10
146.995
20
-81.4471
11
147.054
21
-81.3456
0
LINE
8
BLACK
6
CONTINUOUS
10
147.054
20
-81.3456
11
147.144
21
-81.2702
0
LINE
8
BLACK
6
CONTINUOUS
10
147.144
20
-81.2702
11
147.312
21
-81.225
0
LINE
8
BLACK
6
CONTINUOUS
10
147.312
20
-81.225
11
148.088
21
-81.225
0
LINE
8
BLACK
6
CONTINUOUS
10
148.088
20
-81.225
11
148.203
21
-81.2454
0
LINE
8
BLACK
6
CONTINUOUS
10
168.725
20
-78.825
11
168.601
21
-78.825
0
LINE
8
BLACK
6
CONTINUOUS
10
168.601
20
-78.825
11
168.65
21
-78.8827
0
LINE
8
BLACK
6
CONTINUOUS
10
168.65
20
-78.8827
11
168.725
21
-79.0898
0
LINE
8
BLACK
6
CONTINUOUS
10
168.725
20
-79.0898
11
168.725
21
-79.3102
0
LINE
8
BLACK
6
CONTINUOUS
10
168.725
20
-79.3102
11
168.65
21
-79.5173
0
LINE
8
BLACK
6
CONTINUOUS
10
168.65
20
-79.5173
11
168.508
21
-79.6862
0
LINE
8
BLACK
6
CONTINUOUS
10
168.508
20
-79.6862
11
168.484
21
-79.7
0
LINE
8
BLACK
6
CONTINUOUS
10
168.484
20
-79.7
11
168.508
21
-79.7138
0
LINE
8
BLACK
6
CONTINUOUS
10
168.508
20
-79.7138
11
168.65
21
-79.8827
0
LINE
8
BLACK
6
CONTINUOUS
10
168.65
20
-79.8827
11
168.725
21
-80.0898
0
LINE
8
BLACK
6
CONTINUOUS
10
168.725
20
-80.0898
11
168.725
21
-80.3102
0
LINE
8
BLACK
6
CONTINUOUS
10
168.725
20
-80.3102
11
168.65
21
-80.5173
0
LINE
8
BLACK
6
CONTINUOUS
10
168.65
20
-80.5173
11
168.508
21
-80.6862
0
LINE
8
BLACK
6
CONTINUOUS
10
168.508
20
-80.6862
11
168.484
21
-80.7
0
LINE
8
BLACK
6
CONTINUOUS
10
168.484
20
-80.7
11
168.508
21
-80.7138
0
LINE
8
BLACK
6
CONTINUOUS
10
168.508
20
-80.7138
11
168.65
21
-80.8827
0
LINE
8
BLACK
6
CONTINUOUS
10
168.65
20
-80.8827
11
168.725
21
-81.0898
0
LINE
8
BLACK
6
CONTINUOUS
10
168.725
20
-81.0898
11
168.725
21
-81.3102
0
LINE
8
BLACK
6
CONTINUOUS
10
168.725
20
-81.3102
11
168.65
21
-81.5173
0
LINE
8
BLACK
6
CONTINUOUS
10
168.65
20
-81.5173
11
168.508
21
-81.6862
0
LINE
8
BLACK
6
CONTINUOUS
10
168.508
20
-81.6862
11
168.317
21
-81.7964
0
LINE
8
BLACK
6
CONTINUOUS
10
168.317
20
-81.7964
11
168.155
21
-81.825
0
LINE
8
BLACK
6
CONTINUOUS
10
168.155
20
-81.825
11
168.045
21
-81.825
0
LINE
8
BLACK
6
CONTINUOUS
10
168.045
20
-81.825
11
167.883
21
-81.7964
0
LINE
8
BLACK
6
CONTINUOUS
10
167.883
20
-81.7964
11
167.692
21
-81.6862
0
LINE
8
BLACK
6
CONTINUOUS
10
167.692
20
-81.6862
11
167.55
21
-81.5173
0
LINE
8
BLACK
6
CONTINUOUS
10
167.55
20
-81.5173
11
167.475
21
-81.3102
0
LINE
8
BLACK
6
CONTINUOUS
10
167.475
20
-81.3102
11
167.475
21
-81.0898
0
LINE
8
BLACK
6
CONTINUOUS
10
167.475
20
-81.0898
11
167.55
21
-80.8827
0
LINE
8
BLACK
6
CONTINUOUS
10
167.55
20
-80.8827
11
167.692
21
-80.7138
0
LINE
8
BLACK
6
CONTINUOUS
10
167.692
20
-80.7138
11
167.716
21
-80.7
0
LINE
8
BLACK
6
CONTINUOUS
10
167.716
20
-80.7
11
167.692
21
-80.6862
0
LINE
8
BLACK
6
CONTINUOUS
10
167.692
20
-80.6862
11
167.55
21
-80.5173
0
LINE
8
BLACK
6
CONTINUOUS
10
167.55
20
-80.5173
11
167.475
21
-80.3102
0
LINE
8
BLACK
6
CONTINUOUS
10
167.475
20
-80.3102
11
167.475
21
-80.0898
0
LINE
8
BLACK
6
CONTINUOUS
10
167.475
20
-80.0898
11
167.55
21
-79.8827
0
LINE
8
BLACK
6
CONTINUOUS
10
167.55
20
-79.8827
11
167.692
21
-79.7138
0
LINE
8
BLACK
6
CONTINUOUS
10
167.692
20
-79.7138
11
167.716
21
-79.7
0
LINE
8
BLACK
6
CONTINUOUS
10
167.716
20
-79.7
11
167.692
21
-79.6862
0
LINE
8
BLACK
6
CONTINUOUS
10
167.692
20
-79.6862
11
167.55
21
-79.5173
0
LINE
8
BLACK
6
CONTINUOUS
10
167.55
20
-79.5173
11
167.475
21
-79.3102
0
LINE
8
BLACK
6
CONTINUOUS
10
167.475
20
-79.3102
11
167.475
21
-79.0898
0
LINE
8
BLACK
6
CONTINUOUS
10
167.475
20
-79.0898
11
167.55
21
-78.8827
0
LINE
8
BLACK
6
CONTINUOUS
10
167.55
20
-78.8827
11
167.599
21
-78.825
0
LINE
8
BLACK
6
CONTINUOUS
10
167.599
20
-78.825
11
167.475
21
-78.825
0
LINE
8
BLACK
6
CONTINUOUS
10
167.475
20
-78.825
11
167.475
21
-77.575
0
LINE
8
BLACK
6
CONTINUOUS
10
167.475
20
-77.575
11
168.725
21
-77.575
0
LINE
8
BLACK
6
CONTINUOUS
10
168.725
20
-77.575
11
168.725
21
-78.825
0
LINE
8
BLACK
6
CONTINUOUS
10
166.553
20
-79.7704
11
166.654
21
-79.829
0
LINE
8
BLACK
6
CONTINUOUS
10
166.654
20
-79.829
11
166.73
21
-79.9188
0
LINE
8
BLACK
6
CONTINUOUS
10
166.73
20
-79.9188
11
166.775
21
-80.0875
0
LINE
8
BLACK
6
CONTINUOUS
10
166.775
20
-80.0875
11
166.775
21
-80.8625
0
LINE
8
BLACK
6
CONTINUOUS
10
166.775
20
-80.8625
11
166.755
21
-80.9779
0
LINE
8
BLACK
6
CONTINUOUS
10
166.755
20
-80.9779
11
166.696
21
-81.0794
0
LINE
8
BLACK
6
CONTINUOUS
10
166.696
20
-81.0794
11
166.606
21
-81.1548
0
LINE
8
BLACK
6
CONTINUOUS
10
166.606
20
-81.1548
11
166.438
21
-81.2
0
LINE
8
BLACK
6
CONTINUOUS
10
166.438
20
-81.2
11
165.762
21
-81.2
0
LINE
8
BLACK
6
CONTINUOUS
10
165.762
20
-81.2
11
165.647
21
-81.1796
0
LINE
8
BLACK
6
CONTINUOUS
10
165.647
20
-81.1796
11
165.546
21
-81.121
0
LINE
8
BLACK
6
CONTINUOUS
10
165.546
20
-81.121
11
165.47
21
-81.0312
0
LINE
8
BLACK
6
CONTINUOUS
10
165.47
20
-81.0312
11
165.425
21
-80.8625
0
LINE
8
BLACK
6
CONTINUOUS
10
165.425
20
-80.8625
11
165.425
21
-80.0875
0
LINE
8
BLACK
6
CONTINUOUS
10
165.425
20
-80.0875
11
165.445
21
-79.9721
0
LINE
8
BLACK
6
CONTINUOUS
10
165.445
20
-79.9721
11
165.504
21
-79.8706
0
LINE
8
BLACK
6
CONTINUOUS
10
165.504
20
-79.8706
11
165.594
21
-79.7952
0
LINE
8
BLACK
6
CONTINUOUS
10
165.594
20
-79.7952
11
165.762
21
-79.75
0
LINE
8
BLACK
6
CONTINUOUS
10
165.762
20
-79.75
11
166.438
21
-79.75
0
LINE
8
BLACK
6
CONTINUOUS
10
166.438
20
-79.75
11
166.553
21
-79.7704
0
LINE
8
BLACK
6
CONTINUOUS
10
160.95
20
-80.585
11
160.95
21
-77.495
0
LINE
8
BLACK
6
CONTINUOUS
10
160.95
20
-77.495
11
162.35
21
-77.495
0
LINE
8
BLACK
6
CONTINUOUS
10
162.35
20
-77.495
11
162.35
21
-80.585
0
LINE
8
BLACK
6
CONTINUOUS
10
162.35
20
-80.585
11
160.95
21
-80.585
0
LINE
8
BLACK
6
CONTINUOUS
10
147.953
20
-79.0454
11
148.054
21
-79.104
0
LINE
8
BLACK
6
CONTINUOUS
10
148.054
20
-79.104
11
148.13
21
-79.1937
0
LINE
8
BLACK
6
CONTINUOUS
10
148.13
20
-79.1937
11
148.175
21
-79.3625
0
LINE
8
BLACK
6
CONTINUOUS
10
148.175
20
-79.3625
11
148.175
21
-80.0375
0
LINE
8
BLACK
6
CONTINUOUS
10
148.175
20
-80.0375
11
148.155
21
-80.1529
0
LINE
8
BLACK
6
CONTINUOUS
10
148.155
20
-80.1529
11
148.096
21
-80.2544
0
LINE
8
BLACK
6
CONTINUOUS
10
148.096
20
-80.2544
11
148.006
21
-80.3298
0
LINE
8
BLACK
6
CONTINUOUS
10
148.006
20
-80.3298
11
147.838
21
-80.375
0
LINE
8
BLACK
6
CONTINUOUS
10
147.838
20
-80.375
11
147.062
21
-80.375
0
LINE
8
BLACK
6
CONTINUOUS
10
147.062
20
-80.375
11
146.947
21
-80.3546
0
LINE
8
BLACK
6
CONTINUOUS
10
146.947
20
-80.3546
11
146.846
21
-80.296
0
LINE
8
BLACK
6
CONTINUOUS
10
146.846
20
-80.296
11
146.77
21
-80.2062
0
LINE
8
BLACK
6
CONTINUOUS
10
146.77
20
-80.2062
11
146.725
21
-80.0375
0
LINE
8
BLACK
6
CONTINUOUS
10
146.725
20
-80.0375
11
146.725
21
-79.3625
0
LINE
8
BLACK
6
CONTINUOUS
10
146.725
20
-79.3625
11
146.745
21
-79.2471
0
LINE
8
BLACK
6
CONTINUOUS
10
146.745
20
-79.2471
11
146.804
21
-79.1456
0
LINE
8
BLACK
6
CONTINUOUS
10
146.804
20
-79.1456
11
146.894
21
-79.0702
0
LINE
8
BLACK
6
CONTINUOUS
10
146.894
20
-79.0702
11
147.062
21
-79.025
0
LINE
8
BLACK
6
CONTINUOUS
10
147.062
20
-79.025
11
147.838
21
-79.025
0
LINE
8
BLACK
6
CONTINUOUS
10
147.838
20
-79.025
11
147.953
21
-79.0454
0
LINE
8
BLACK
6
CONTINUOUS
10
146.203
20
-79.0454
11
146.304
21
-79.104
0
LINE
8
BLACK
6
CONTINUOUS
10
146.304
20
-79.104
11
146.38
21
-79.1937
0
LINE
8
BLACK
6
CONTINUOUS
10
146.38
20
-79.1937
11
146.425
21
-79.3625
0
LINE
8
BLACK
6
CONTINUOUS
10
146.425
20
-79.3625
11
146.425
21
-80.0375
0
LINE
8
BLACK
6
CONTINUOUS
10
146.425
20
-80.0375
11
146.405
21
-80.1529
0
LINE
8
BLACK
6
CONTINUOUS
10
146.405
20
-80.1529
11
146.346
21
-80.2544
0
LINE
8
BLACK
6
CONTINUOUS
10
146.346
20
-80.2544
11
146.256
21
-80.3298
0
LINE
8
BLACK
6
CONTINUOUS
10
146.256
20
-80.3298
11
146.088
21
-80.375
0
LINE
8
BLACK
6
CONTINUOUS
10
146.088
20
-80.375
11
145.312
21
-80.375
0
LINE
8
BLACK
6
CONTINUOUS
10
145.312
20
-80.375
11
145.197
21
-80.3546
0
LINE
8
BLACK
6
CONTINUOUS
10
145.197
20
-80.3546
11
145.096
21
-80.296
0
LINE
8
BLACK
6
CONTINUOUS
10
145.096
20
-80.296
11
145.02
21
-80.2062
0
LINE
8
BLACK
6
CONTINUOUS
10
145.02
20
-80.2062
11
144.975
21
-80.0375
0
LINE
8
BLACK
6
CONTINUOUS
10
144.975
20
-80.0375
11
144.975
21
-79.3625
0
LINE
8
BLACK
6
CONTINUOUS
10
144.975
20
-79.3625
11
144.995
21
-79.2471
0
LINE
8
BLACK
6
CONTINUOUS
10
144.995
20
-79.2471
11
145.054
21
-79.1456
0
LINE
8
BLACK
6
CONTINUOUS
10
145.054
20
-79.1456
11
145.144
21
-79.0702
0
LINE
8
BLACK
6
CONTINUOUS
10
145.144
20
-79.0702
11
145.312
21
-79.025
0
LINE
8
BLACK
6
CONTINUOUS
10
145.312
20
-79.025
11
146.088
21
-79.025
0
LINE
8
BLACK
6
CONTINUOUS
10
146.088
20
-79.025
11
146.203
21
-79.0454
0
LINE
8
BLACK
6
CONTINUOUS
10
166.553
20
-78.0204
11
166.654
21
-78.079
0
LINE
8
BLACK
6
CONTINUOUS
10
166.654
20
-78.079
11
166.73
21
-78.1688
0
LINE
8
BLACK
6
CONTINUOUS
10
166.73
20
-78.1688
11
166.775
21
-78.3375
0
LINE
8
BLACK
6
CONTINUOUS
10
166.775
20
-78.3375
11
166.775
21
-79.1125
0
LINE
8
BLACK
6
CONTINUOUS
10
166.775
20
-79.1125
11
166.755
21
-79.2279
0
LINE
8
BLACK
6
CONTINUOUS
10
166.755
20
-79.2279
11
166.696
21
-79.3294
0
LINE
8
BLACK
6
CONTINUOUS
10
166.696
20
-79.3294
11
166.606
21
-79.4048
0
LINE
8
BLACK
6
CONTINUOUS
10
166.606
20
-79.4048
11
166.438
21
-79.45
0
LINE
8
BLACK
6
CONTINUOUS
10
166.438
20
-79.45
11
165.762
21
-79.45
0
LINE
8
BLACK
6
CONTINUOUS
10
165.762
20
-79.45
11
165.647
21
-79.4296
0
LINE
8
BLACK
6
CONTINUOUS
10
165.647
20
-79.4296
11
165.546
21
-79.371
0
LINE
8
BLACK
6
CONTINUOUS
10
165.546
20
-79.371
11
165.47
21
-79.2812
0
LINE
8
BLACK
6
CONTINUOUS
10
165.47
20
-79.2812
11
165.425
21
-79.1125
0
LINE
8
BLACK
6
CONTINUOUS
10
165.425
20
-79.1125
11
165.425
21
-78.3375
0
LINE
8
BLACK
6
CONTINUOUS
10
165.425
20
-78.3375
11
165.445
21
-78.2221
0
LINE
8
BLACK
6
CONTINUOUS
10
165.445
20
-78.2221
11
165.504
21
-78.1206
0
LINE
8
BLACK
6
CONTINUOUS
10
165.504
20
-78.1206
11
165.594
21
-78.0452
0
LINE
8
BLACK
6
CONTINUOUS
10
165.594
20
-78.0452
11
165.762
21
-78
0
LINE
8
BLACK
6
CONTINUOUS
10
165.762
20
-78
11
166.438
21
-78
0
LINE
8
BLACK
6
CONTINUOUS
10
166.438
20
-78
11
166.553
21
-78.0204
0
LINE
8
BLACK
6
CONTINUOUS
10
145.225
20
-77.1
11
148.175
21
-77.1
0
LINE
8
BLACK
6
CONTINUOUS
10
148.175
20
-77.1
11
148.175
21
-78.72
0
LINE
8
BLACK
6
CONTINUOUS
10
148.175
20
-78.72
11
145.225
21
-78.72
0
LINE
8
BLACK
6
CONTINUOUS
10
145.225
20
-78.72
11
145.225
21
-77.1
0
LINE
8
BLACK
6
CONTINUOUS
10
166.553
20
-76.4454
11
166.654
21
-76.504
0
LINE
8
BLACK
6
CONTINUOUS
10
166.654
20
-76.504
11
166.73
21
-76.5938
0
LINE
8
BLACK
6
CONTINUOUS
10
166.73
20
-76.5938
11
166.775
21
-76.7625
0
LINE
8
BLACK
6
CONTINUOUS
10
166.775
20
-76.7625
11
166.775
21
-77.5375
0
LINE
8
BLACK
6
CONTINUOUS
10
166.775
20
-77.5375
11
166.755
21
-77.6529
0
LINE
8
BLACK
6
CONTINUOUS
10
166.755
20
-77.6529
11
166.696
21
-77.7544
0
LINE
8
BLACK
6
CONTINUOUS
10
166.696
20
-77.7544
11
166.606
21
-77.8298
0
LINE
8
BLACK
6
CONTINUOUS
10
166.606
20
-77.8298
11
166.438
21
-77.875
0
LINE
8
BLACK
6
CONTINUOUS
10
166.438
20
-77.875
11
165.762
21
-77.875
0
LINE
8
BLACK
6
CONTINUOUS
10
165.762
20
-77.875
11
165.647
21
-77.8546
0
LINE
8
BLACK
6
CONTINUOUS
10
165.647
20
-77.8546
11
165.546
21
-77.796
0
LINE
8
BLACK
6
CONTINUOUS
10
165.546
20
-77.796
11
165.47
21
-77.7062
0
LINE
8
BLACK
6
CONTINUOUS
10
165.47
20
-77.7062
11
165.425
21
-77.5375
0
LINE
8
BLACK
6
CONTINUOUS
10
165.425
20
-77.5375
11
165.425
21
-76.7625
0
LINE
8
BLACK
6
CONTINUOUS
10
165.425
20
-76.7625
11
165.445
21
-76.6471
0
LINE
8
BLACK
6
CONTINUOUS
10
165.445
20
-76.6471
11
165.504
21
-76.5456
0
LINE
8
BLACK
6
CONTINUOUS
10
165.504
20
-76.5456
11
165.594
21
-76.4702
0
LINE
8
BLACK
6
CONTINUOUS
10
165.594
20
-76.4702
11
165.762
21
-76.425
0
LINE
8
BLACK
6
CONTINUOUS
10
165.762
20
-76.425
11
166.438
21
-76.425
0
LINE
8
BLACK
6
CONTINUOUS
10
166.438
20
-76.425
11
166.553
21
-76.4454
0
LINE
8
BLACK
6
CONTINUOUS
10
152.305
20
-75.96
11
161.495
21
-75.96
0
LINE
8
BLACK
6
CONTINUOUS
10
161.495
20
-75.96
11
161.495
21
-77.36
0
LINE
8
BLACK
6
CONTINUOUS
10
161.495
20
-77.36
11
152.305
21
-77.36
0
LINE
8
BLACK
6
CONTINUOUS
10
152.305
20
-77.36
11
152.305
21
-75.96
0
LINE
8
BLACK
6
CONTINUOUS
10
166.553
20
-74.6954
11
166.654
21
-74.754
0
LINE
8
BLACK
6
CONTINUOUS
10
166.654
20
-74.754
11
166.73
21
-74.8438
0
LINE
8
BLACK
6
CONTINUOUS
10
166.73
20
-74.8438
11
166.775
21
-75.0125
0
LINE
8
BLACK
6
CONTINUOUS
10
166.775
20
-75.0125
11
166.775
21
-75.7875
0
LINE
8
BLACK
6
CONTINUOUS
10
166.775
20
-75.7875
11
166.755
21
-75.9029
0
LINE
8
BLACK
6
CONTINUOUS
10
166.755
20
-75.9029
11
166.696
21
-76.0044
0
LINE
8
BLACK
6
CONTINUOUS
10
166.696
20
-76.0044
11
166.606
21
-76.0798
0
LINE
8
BLACK
6
CONTINUOUS
10
166.606
20
-76.0798
11
166.438
21
-76.125
0
LINE
8
BLACK
6
CONTINUOUS
10
166.438
20
-76.125
11
165.762
21
-76.125
0
LINE
8
BLACK
6
CONTINUOUS
10
165.762
20
-76.125
11
165.647
21
-76.1046
0
LINE
8
BLACK
6
CONTINUOUS
10
165.647
20
-76.1046
11
165.546
21
-76.046
0
LINE
8
BLACK
6
CONTINUOUS
10
165.546
20
-76.046
11
165.47
21
-75.9562
0
LINE
8
BLACK
6
CONTINUOUS
10
165.47
20
-75.9562
11
165.425
21
-75.7875
0
LINE
8
BLACK
6
CONTINUOUS
10
165.425
20
-75.7875
11
165.425
21
-75.0125
0
LINE
8
BLACK
6
CONTINUOUS
10
165.425
20
-75.0125
11
165.445
21
-74.8971
0
LINE
8
BLACK
6
CONTINUOUS
10
165.445
20
-74.8971
11
165.504
21
-74.7956
0
LINE
8
BLACK
6
CONTINUOUS
10
165.504
20
-74.7956
11
165.594
21
-74.7202
0
LINE
8
BLACK
6
CONTINUOUS
10
165.594
20
-74.7202
11
165.762
21
-74.675
0
LINE
8
BLACK
6
CONTINUOUS
10
165.762
20
-74.675
11
166.438
21
-74.675
0
LINE
8
BLACK
6
CONTINUOUS
10
166.438
20
-74.675
11
166.553
21
-74.6954
0
LINE
8
BLACK
6
CONTINUOUS
10
148.175
20
-76.1
11
147.125
21
-76.1
0
LINE
8
BLACK
6
CONTINUOUS
10
147.125
20
-76.1
11
147.125
21
-74.48
0
LINE
8
BLACK
6
CONTINUOUS
10
147.125
20
-74.48
11
148.175
21
-74.48
0
LINE
8
BLACK
6
CONTINUOUS
10
148.175
20
-74.48
11
148.175
21
-76.1
0
LINE
8
BLACK
6
CONTINUOUS
10
146.275
20
-76.1
11
145.225
21
-76.1
0
LINE
8
BLACK
6
CONTINUOUS
10
145.225
20
-76.1
11
145.225
21
-74.48
0
LINE
8
BLACK
6
CONTINUOUS
10
145.225
20
-74.48
11
146.275
21
-74.48
0
LINE
8
BLACK
6
CONTINUOUS
10
146.275
20
-74.48
11
146.275
21
-76.1
0
LINE
8
BLACK
6
CONTINUOUS
10
146.625
20
-71.5948
11
146.783
21
-71.5036
0
LINE
8
BLACK
6
CONTINUOUS
10
146.783
20
-71.5036
11
146.945
21
-71.475
0
LINE
8
BLACK
6
CONTINUOUS
10
146.945
20
-71.475
11
147.055
21
-71.475
0
LINE
8
BLACK
6
CONTINUOUS
10
147.055
20
-71.475
11
147.217
21
-71.5036
0
LINE
8
BLACK
6
CONTINUOUS
10
147.217
20
-71.5036
11
147.408
21
-71.6138
0
LINE
8
BLACK
6
CONTINUOUS
10
147.408
20
-71.6138
11
147.55
21
-71.7827
0
LINE
8
BLACK
6
CONTINUOUS
10
147.55
20
-71.7827
11
147.625
21
-71.9898
0
LINE
8
BLACK
6
CONTINUOUS
10
147.625
20
-71.9898
11
147.625
21
-72.2102
0
LINE
8
BLACK
6
CONTINUOUS
10
147.625
20
-72.2102
11
147.55
21
-72.4173
0
LINE
8
BLACK
6
CONTINUOUS
10
147.55
20
-72.4173
11
147.408
21
-72.5862
0
LINE
8
BLACK
6
CONTINUOUS
10
147.408
20
-72.5862
11
147.217
21
-72.6964
0
LINE
8
BLACK
6
CONTINUOUS
10
147.217
20
-72.6964
11
147.055
21
-72.725
0
LINE
8
BLACK
6
CONTINUOUS
10
147.055
20
-72.725
11
146.945
21
-72.725
0
LINE
8
BLACK
6
CONTINUOUS
10
146.945
20
-72.725
11
146.783
21
-72.6964
0
LINE
8
BLACK
6
CONTINUOUS
10
146.783
20
-72.6964
11
146.625
21
-72.6052
0
LINE
8
BLACK
6
CONTINUOUS
10
146.625
20
-72.6052
11
146.625
21
-72.725
0
LINE
8
BLACK
6
CONTINUOUS
10
146.625
20
-72.725
11
145.375
21
-72.725
0
LINE
8
BLACK
6
CONTINUOUS
10
145.375
20
-72.725
11
145.375
21
-71.475
0
LINE
8
BLACK
6
CONTINUOUS
10
145.375
20
-71.475
11
146.625
21
-71.475
0
LINE
8
BLACK
6
CONTINUOUS
10
146.625
20
-71.475
11
146.625
21
-71.5948
0
LINE
8
BLACK
6
CONTINUOUS
10
147.9
20
-69
11
166.1
21
-69
0
LINE
8
BLACK
6
CONTINUOUS
10
166.1
20
-69
11
166.1
21
-70.7
0
LINE
8
BLACK
6
CONTINUOUS
10
166.1
20
-70.7
11
147.9
21
-70.7
0
LINE
8
BLACK
6
CONTINUOUS
10
147.9
20
-70.7
11
147.9
21
-69
0
LINE
8
BLACK
6
CONTINUOUS
10
168.75
20
-67.9
11
166.55
21
-67.9
0
LINE
8
BLACK
6
CONTINUOUS
10
166.55
20
-67.9
11
166.55
21
-65.3
0
LINE
8
BLACK
6
CONTINUOUS
10
166.55
20
-65.3
11
168.75
21
-65.3
0
LINE
8
BLACK
6
CONTINUOUS
10
168.75
20
-65.3
11
168.75
21
-67.9
0
LINE
8
BLACK
6
CONTINUOUS
10
147.45
20
-67.9
11
145.25
21
-67.9
0
LINE
8
BLACK
6
CONTINUOUS
10
145.25
20
-67.9
11
145.25
21
-65.3
0
LINE
8
BLACK
6
CONTINUOUS
10
145.25
20
-65.3
11
147.45
21
-65.3
0
LINE
8
BLACK
6
CONTINUOUS
10
147.45
20
-65.3
11
147.45
21
-67.9
  0
ENDSEC
  0
EOF
