M48
;DRILL file {KiCad (5.0.0)} date 01/29/20 13:36:13
;FORMAT={-:-/ absolute / metric / decimal}
FMAT,2
METRIC,TZ
T1C0.370
T2C0.400
T3C0.500
%
G90
G05
M71
T1
X178.649Y-96.101
X180.969Y-112.181
X185.379Y-172.011
X185.389Y-172.941
X185.659Y-145.901
X185.899Y-163.263
X185.909Y-167.511
X186.749Y-177.201
X186.819Y-167.521
X187.229Y-161.591
X187.259Y-182.551
X187.444Y-147.292
X187.895Y-146.756
X188.649Y-146.586
X188.739Y-174.271
X188.809Y-148.491
X189.199Y-147.441
X189.259Y-195.231
X190.619Y-159.881
X191.049Y-166.411
X191.169Y-150.611
X191.277Y-164.989
X191.594Y-138.246
X191.594Y-141.846
X191.869Y-151.101
X192.019Y-161.036
X192.119Y-143.721
X192.249Y-151.711
X192.323Y-179.997
X192.489Y-160.051
X192.919Y-189.021
X192.994Y-136.421
X193.329Y-184.991
X193.349Y-180.211
X193.449Y-158.211
X193.456Y-167.808
X193.812Y-148.908
X193.834Y-164.961
X194.549Y-158.411
X194.849Y-175.011
X195.06Y-156.978
X195.108Y-156.129
X195.119Y-133.796
X195.149Y-169.441
X195.249Y-158.611
X195.349Y-209.961
X195.494Y-150.771
X195.959Y-146.497
X196.049Y-208.761
X196.249Y-162.711
X196.249Y-195.011
X196.549Y-159.011
X196.949Y-197.111
X197.149Y-158.311
X197.219Y-150.096
X197.394Y-151.871
X197.579Y-178.611
X197.579Y-177.501
X197.889Y-146.831
X198.074Y-159.886
X198.179Y-166.891
X198.249Y-141.511
X198.499Y-197.311
X198.549Y-173.011
X198.699Y-162.401
X198.73Y-158.417
X199.094Y-155.421
X199.349Y-173.611
X199.479Y-163.241
X199.849Y-172.811
X199.994Y-151.521
X200.144Y-150.571
X200.249Y-168.111
X200.524Y-147.386
X200.549Y-173.111
X200.559Y-146.602
X200.799Y-154.511
X200.944Y-150.571
X200.979Y-187.551
X201.244Y-158.771
X201.344Y-150.046
X201.499Y-146.611
X201.574Y-165.186
X201.649Y-184.061
X201.769Y-159.621
X201.909Y-153.931
X202.124Y-168.386
X202.899Y-189.111
X203.099Y-190.061
X203.169Y-158.546
X203.229Y-181.291
X203.394Y-161.246
X203.699Y-151.671
X203.744Y-156.121
X204.299Y-171.711
X204.594Y-155.371
X204.699Y-166.511
X204.749Y-170.661
X205.349Y-175.191
X205.479Y-186.231
X206.149Y-177.698
X206.374Y-160.186
X206.549Y-131.611
X207.424Y-162.586
X208.649Y-196.011
X208.694Y-167.321
X208.989Y-144.501
X209.144Y-177.846
X209.749Y-171.686
X209.799Y-173.661
X209.844Y-178.396
X209.849Y-187.061
X209.944Y-158.921
X209.949Y-181.361
X210.394Y-166.821
X210.419Y-177.871
X210.949Y-183.261
X211.069Y-177.396
X211.469Y-167.596
X211.639Y-139.461
X211.749Y-172.111
X212.299Y-178.511
X212.699Y-168.811
X212.849Y-188.261
X212.949Y-185.661
X216.339Y-165.631
X217.089Y-105.831
X221.719Y-139.371
X221.879Y-177.051
X222.329Y-102.481
X222.939Y-257.871
X230.101Y-101.783
X244.319Y-100.681
T2
X165.699Y-93.391
X167.869Y-100.646
X168.009Y-83.561
X168.109Y-111.031
X168.119Y-77.571
X171.859Y-65.931
X173.499Y-121.491
X175.809Y-61.601
X179.739Y-132.861
X181.739Y-237.411
X182.279Y-69.441
X182.369Y-65.201
X182.659Y-91.741
X184.229Y-251.681
X184.739Y-232.931
X185.449Y-141.111
X185.789Y-67.791
X185.899Y-166.338
X186.919Y-211.621
X187.479Y-175.921
X187.889Y-219.561
X188.409Y-186.361
X189.949Y-141.111
X189.994Y-263.171
X190.739Y-55.331
X191.699Y-195.961
X191.799Y-186.061
X192.119Y-100.321
X192.228Y-206.638
X192.406Y-201.541
X192.899Y-196.961
X194.269Y-193.291
X194.449Y-211.411
X195.318Y-188.803
X195.749Y-206.111
X195.749Y-246.981
X195.949Y-199.611
X196.372Y-187.481
X196.979Y-132.261
X197.219Y-180.521
X197.729Y-230.581
X197.849Y-205.461
X199.019Y-93.146
X199.719Y-69.046
X200.249Y-199.111
X200.549Y-207.811
X200.979Y-116.841
X201.579Y-215.631
X203.249Y-90.741
X203.999Y-65.821
X204.299Y-249.511
X204.344Y-159.296
X204.469Y-259.591
X204.899Y-193.111
X204.939Y-114.121
X205.719Y-74.301
X207.149Y-68.311
X208.344Y-209.321
X208.494Y-210.771
X208.679Y-63.831
X208.909Y-59.711
X209.819Y-265.271
X210.369Y-206.646
X210.794Y-210.746
X211.019Y-208.071
X212.539Y-110.701
X212.559Y-105.371
X213.649Y-90.051
X213.899Y-251.371
X214.359Y-121.641
X214.419Y-206.671
X214.519Y-208.096
X214.644Y-209.346
X215.619Y-141.011
X215.919Y-210.746
X216.044Y-238.571
X217.409Y-138.471
X217.469Y-140.341
X218.709Y-172.851
X219.769Y-75.291
X220.019Y-179.646
X220.449Y-251.591
X220.659Y-87.961
X221.139Y-235.031
X221.444Y-162.271
X222.199Y-158.081
X222.749Y-202.281
X223.119Y-88.781
X223.139Y-140.371
X223.439Y-198.491
X224.319Y-180.796
X227.019Y-138.001
X227.569Y-163.221
X227.869Y-201.131
X228.049Y-158.691
X228.639Y-237.151
X228.999Y-89.801
X229.619Y-219.396
X232.329Y-144.751
X233.799Y-141.301
X233.909Y-122.411
X234.359Y-87.621
X237.721Y-126.167
X239.629Y-157.891
X241.179Y-141.361
X246.103Y-119.817
T3
X186.859Y-192.861
X186.929Y-191.863
T0
M30
