G04 #@! TF.GenerationSoftware,KiCad,Pcbnew,(5.0.0)*
G04 #@! TF.CreationDate,2020-01-29T13:36:10+01:00*
G04 #@! TF.ProjectId,Insole_PCB,496E736F6C655F5043422E6B69636164,rev?*
G04 #@! TF.SameCoordinates,Original*
G04 #@! TF.FileFunction,Legend,Top*
G04 #@! TF.FilePolarity,Positive*
%FSLAX46Y46*%
G04 Gerber Fmt 4.6, Leading zero omitted, Abs format (unit mm)*
G04 Created by KiCad (PCBNEW (5.0.0)) date 01/29/20 13:36:10*
%MOMM*%
%LPD*%
G01*
G04 APERTURE LIST*
%ADD10C,0.100000*%
%ADD11C,0.120000*%
%ADD12C,0.010000*%
%ADD13C,0.150000*%
G04 APERTURE END LIST*
D10*
G04 #@! TO.C,S4*
X191359453Y-57890707D02*
G75*
G03X191359453Y-57890707I-8500000J0D01*
G01*
G04 #@! TO.C,S9*
X223719453Y-68480707D02*
G75*
G03X223719453Y-68480707I-8500000J0D01*
G01*
D11*
G04 #@! TO.C,J2*
X187504977Y-193592519D02*
X186811670Y-193544038D01*
X187552760Y-192909188D02*
X187504977Y-193592519D01*
X186300442Y-192134944D02*
X186213929Y-192128895D01*
X187600543Y-192225856D02*
X187514030Y-192219807D01*
X186213929Y-192128895D02*
X186274966Y-191256026D01*
X187600543Y-192225856D02*
X187661580Y-191352988D01*
X186574741Y-191276989D02*
X186274966Y-191256026D01*
X187661580Y-191352988D02*
X187361805Y-191332026D01*
D12*
G04 #@! TO.C,J1*
X191037937Y-200592742D02*
X193186628Y-200667776D01*
X190747161Y-207486794D02*
X192945821Y-207563573D01*
X191420560Y-208260767D02*
X191746871Y-198916462D01*
D11*
X186213577Y-199773875D02*
X189441609Y-199886601D01*
X190328814Y-201128320D02*
X190291123Y-202207662D01*
X190144672Y-206114932D02*
X190106980Y-207194274D01*
X185927401Y-207968880D02*
X189155433Y-208081606D01*
X190291123Y-202207662D02*
X190720861Y-202222669D01*
D10*
G04 #@! TO.C,S0*
X189759453Y-125350707D02*
G75*
G03X189759453Y-125350707I-8500000J0D01*
G01*
G04 #@! TO.C,S1*
X184019453Y-107860707D02*
G75*
G03X184019453Y-107860707I-8500000J0D01*
G01*
G04 #@! TO.C,S2*
X181619453Y-90310707D02*
G75*
G03X181619453Y-90310707I-8500000J0D01*
G01*
G04 #@! TO.C,S3*
X183449453Y-73220707D02*
G75*
G03X183449453Y-73220707I-8500000J0D01*
G01*
G04 #@! TO.C,S5*
X200749453Y-73260707D02*
G75*
G03X200749453Y-73260707I-8500000J0D01*
G01*
G04 #@! TO.C,S6*
X199049453Y-90690707D02*
G75*
G03X199049453Y-90690707I-8500000J0D01*
G01*
G04 #@! TO.C,S7*
X206609453Y-106850707D02*
G75*
G03X206609453Y-106850707I-8500000J0D01*
G01*
G04 #@! TO.C,S8*
X209119453Y-58240707D02*
G75*
G03X209119453Y-58240707I-8500000J0D01*
G01*
G04 #@! TO.C,S10*
X214599453Y-83350707D02*
G75*
G03X214599453Y-83350707I-8500000J0D01*
G01*
G04 #@! TO.C,S11*
X235459453Y-81900707D02*
G75*
G03X235459453Y-81900707I-8500000J0D01*
G01*
G04 #@! TO.C,S12*
X223859453Y-97830707D02*
G75*
G03X223859453Y-97830707I-8500000J0D01*
G01*
G04 #@! TO.C,S13*
X245099453Y-97830707D02*
G75*
G03X245099453Y-97830707I-8500000J0D01*
G01*
G04 #@! TO.C,S14*
X209879453Y-125190707D02*
G75*
G03X209879453Y-125190707I-8500000J0D01*
G01*
G04 #@! TO.C,S15*
X229199453Y-114060707D02*
G75*
G03X229199453Y-114060707I-8500000J0D01*
G01*
G04 #@! TO.C,S16*
X246799453Y-115640707D02*
G75*
G03X246799453Y-115640707I-8500000J0D01*
G01*
G04 #@! TO.C,S17*
X246009453Y-134190707D02*
G75*
G03X246009453Y-134190707I-8500000J0D01*
G01*
G04 #@! TO.C,S18*
X227529453Y-131190707D02*
G75*
G03X227529453Y-131190707I-8500000J0D01*
G01*
G04 #@! TO.C,S19*
X225309453Y-148650707D02*
G75*
G03X225309453Y-148650707I-8500000J0D01*
G01*
G04 #@! TO.C,S20*
X242069453Y-152340707D02*
G75*
G03X242069453Y-152340707I-8500000J0D01*
G01*
G04 #@! TO.C,S21*
X236199453Y-171330707D02*
G75*
G03X236199453Y-171330707I-8500000J0D01*
G01*
G04 #@! TO.C,S22*
X233759453Y-190920707D02*
G75*
G03X233759453Y-190920707I-8500000J0D01*
G01*
G04 #@! TO.C,S23*
X232309453Y-209640707D02*
G75*
G03X232309453Y-209640707I-8500000J0D01*
G01*
G04 #@! TO.C,S24*
X198809453Y-226540707D02*
G75*
G03X198809453Y-226540707I-8500000J0D01*
G01*
G04 #@! TO.C,S25*
X196209453Y-243560707D02*
G75*
G03X196209453Y-243560707I-8500000J0D01*
G01*
G04 #@! TO.C,S26*
X204899453Y-258410707D02*
G75*
G03X204899453Y-258410707I-8500000J0D01*
G01*
G04 #@! TO.C,S27*
X222909453Y-258540707D02*
G75*
G03X222909453Y-258540707I-8500000J0D01*
G01*
G04 #@! TO.C,S28*
X232499453Y-244290707D02*
G75*
G03X232499453Y-244290707I-8500000J0D01*
G01*
G04 #@! TO.C,S29*
X214589453Y-240860707D02*
G75*
G03X214589453Y-240860707I-8500000J0D01*
G01*
G04 #@! TO.C,S30*
X231929453Y-227010707D02*
G75*
G03X231929453Y-227010707I-8500000J0D01*
G01*
G04 #@! TO.C,S31*
X215369453Y-222320707D02*
G75*
G03X215369453Y-222320707I-8500000J0D01*
G01*
G04 #@! TO.C,S4*
D13*
X182597548Y-67595468D02*
X182740405Y-67643087D01*
X182978500Y-67643087D01*
X183073738Y-67595468D01*
X183121357Y-67547849D01*
X183168976Y-67452611D01*
X183168976Y-67357373D01*
X183121357Y-67262135D01*
X183073738Y-67214516D01*
X182978500Y-67166897D01*
X182788024Y-67119278D01*
X182692786Y-67071659D01*
X182645167Y-67024040D01*
X182597548Y-66928802D01*
X182597548Y-66833564D01*
X182645167Y-66738326D01*
X182692786Y-66690707D01*
X182788024Y-66643087D01*
X183026119Y-66643087D01*
X183168976Y-66690707D01*
X184026119Y-66976421D02*
X184026119Y-67643087D01*
X183788024Y-66595468D02*
X183549929Y-67309754D01*
X184168976Y-67309754D01*
G04 #@! TO.C,S9*
X214957548Y-78185468D02*
X215100405Y-78233087D01*
X215338500Y-78233087D01*
X215433738Y-78185468D01*
X215481357Y-78137849D01*
X215528976Y-78042611D01*
X215528976Y-77947373D01*
X215481357Y-77852135D01*
X215433738Y-77804516D01*
X215338500Y-77756897D01*
X215148024Y-77709278D01*
X215052786Y-77661659D01*
X215005167Y-77614040D01*
X214957548Y-77518802D01*
X214957548Y-77423564D01*
X215005167Y-77328326D01*
X215052786Y-77280707D01*
X215148024Y-77233087D01*
X215386119Y-77233087D01*
X215528976Y-77280707D01*
X216005167Y-78233087D02*
X216195643Y-78233087D01*
X216290881Y-78185468D01*
X216338500Y-78137849D01*
X216433738Y-77994992D01*
X216481357Y-77804516D01*
X216481357Y-77423564D01*
X216433738Y-77328326D01*
X216386119Y-77280707D01*
X216290881Y-77233087D01*
X216100405Y-77233087D01*
X216005167Y-77280707D01*
X215957548Y-77328326D01*
X215909929Y-77423564D01*
X215909929Y-77661659D01*
X215957548Y-77756897D01*
X216005167Y-77804516D01*
X216100405Y-77852135D01*
X216290881Y-77852135D01*
X216386119Y-77804516D01*
X216433738Y-77756897D01*
X216481357Y-77661659D01*
G04 #@! TO.C,J2*
X186456311Y-193847369D02*
X186406485Y-194559915D01*
X186349017Y-194699102D01*
X186247367Y-194787465D01*
X186101536Y-194825003D01*
X186006530Y-194818359D01*
X186877195Y-193972271D02*
X186928020Y-193928090D01*
X187026348Y-193887230D01*
X187263863Y-193903839D01*
X187355547Y-193957985D01*
X187399729Y-194008810D01*
X187440588Y-194107138D01*
X187433945Y-194202144D01*
X187376476Y-194341331D01*
X186766579Y-194871507D01*
X187384119Y-194914690D01*
G04 #@! TO.C,J1*
X195905234Y-204548351D02*
X196619084Y-204573279D01*
X196760193Y-204625855D01*
X196852049Y-204724359D01*
X196894653Y-204868791D01*
X196891330Y-204963971D01*
X196939524Y-203583860D02*
X196919582Y-204154940D01*
X196929553Y-203869400D02*
X195930162Y-203834501D01*
X196069608Y-203934666D01*
X196161465Y-204033170D01*
X196205731Y-204130012D01*
G04 #@! TO.C,S0*
X180997548Y-135055468D02*
X181140405Y-135103087D01*
X181378500Y-135103087D01*
X181473738Y-135055468D01*
X181521357Y-135007849D01*
X181568976Y-134912611D01*
X181568976Y-134817373D01*
X181521357Y-134722135D01*
X181473738Y-134674516D01*
X181378500Y-134626897D01*
X181188024Y-134579278D01*
X181092786Y-134531659D01*
X181045167Y-134484040D01*
X180997548Y-134388802D01*
X180997548Y-134293564D01*
X181045167Y-134198326D01*
X181092786Y-134150707D01*
X181188024Y-134103087D01*
X181426119Y-134103087D01*
X181568976Y-134150707D01*
X182188024Y-134103087D02*
X182283262Y-134103087D01*
X182378500Y-134150707D01*
X182426119Y-134198326D01*
X182473738Y-134293564D01*
X182521357Y-134484040D01*
X182521357Y-134722135D01*
X182473738Y-134912611D01*
X182426119Y-135007849D01*
X182378500Y-135055468D01*
X182283262Y-135103087D01*
X182188024Y-135103087D01*
X182092786Y-135055468D01*
X182045167Y-135007849D01*
X181997548Y-134912611D01*
X181949929Y-134722135D01*
X181949929Y-134484040D01*
X181997548Y-134293564D01*
X182045167Y-134198326D01*
X182092786Y-134150707D01*
X182188024Y-134103087D01*
G04 #@! TO.C,S1*
X175257548Y-117565468D02*
X175400405Y-117613087D01*
X175638500Y-117613087D01*
X175733738Y-117565468D01*
X175781357Y-117517849D01*
X175828976Y-117422611D01*
X175828976Y-117327373D01*
X175781357Y-117232135D01*
X175733738Y-117184516D01*
X175638500Y-117136897D01*
X175448024Y-117089278D01*
X175352786Y-117041659D01*
X175305167Y-116994040D01*
X175257548Y-116898802D01*
X175257548Y-116803564D01*
X175305167Y-116708326D01*
X175352786Y-116660707D01*
X175448024Y-116613087D01*
X175686119Y-116613087D01*
X175828976Y-116660707D01*
X176781357Y-117613087D02*
X176209929Y-117613087D01*
X176495643Y-117613087D02*
X176495643Y-116613087D01*
X176400405Y-116755945D01*
X176305167Y-116851183D01*
X176209929Y-116898802D01*
G04 #@! TO.C,S2*
X172857548Y-100015468D02*
X173000405Y-100063087D01*
X173238500Y-100063087D01*
X173333738Y-100015468D01*
X173381357Y-99967849D01*
X173428976Y-99872611D01*
X173428976Y-99777373D01*
X173381357Y-99682135D01*
X173333738Y-99634516D01*
X173238500Y-99586897D01*
X173048024Y-99539278D01*
X172952786Y-99491659D01*
X172905167Y-99444040D01*
X172857548Y-99348802D01*
X172857548Y-99253564D01*
X172905167Y-99158326D01*
X172952786Y-99110707D01*
X173048024Y-99063087D01*
X173286119Y-99063087D01*
X173428976Y-99110707D01*
X173809929Y-99158326D02*
X173857548Y-99110707D01*
X173952786Y-99063087D01*
X174190881Y-99063087D01*
X174286119Y-99110707D01*
X174333738Y-99158326D01*
X174381357Y-99253564D01*
X174381357Y-99348802D01*
X174333738Y-99491659D01*
X173762310Y-100063087D01*
X174381357Y-100063087D01*
G04 #@! TO.C,S3*
X174127548Y-81325468D02*
X174270405Y-81373087D01*
X174508500Y-81373087D01*
X174603738Y-81325468D01*
X174651357Y-81277849D01*
X174698976Y-81182611D01*
X174698976Y-81087373D01*
X174651357Y-80992135D01*
X174603738Y-80944516D01*
X174508500Y-80896897D01*
X174318024Y-80849278D01*
X174222786Y-80801659D01*
X174175167Y-80754040D01*
X174127548Y-80658802D01*
X174127548Y-80563564D01*
X174175167Y-80468326D01*
X174222786Y-80420707D01*
X174318024Y-80373087D01*
X174556119Y-80373087D01*
X174698976Y-80420707D01*
X175032310Y-80373087D02*
X175651357Y-80373087D01*
X175318024Y-80754040D01*
X175460881Y-80754040D01*
X175556119Y-80801659D01*
X175603738Y-80849278D01*
X175651357Y-80944516D01*
X175651357Y-81182611D01*
X175603738Y-81277849D01*
X175556119Y-81325468D01*
X175460881Y-81373087D01*
X175175167Y-81373087D01*
X175079929Y-81325468D01*
X175032310Y-81277849D01*
G04 #@! TO.C,S5*
X191317548Y-81425468D02*
X191460405Y-81473087D01*
X191698500Y-81473087D01*
X191793738Y-81425468D01*
X191841357Y-81377849D01*
X191888976Y-81282611D01*
X191888976Y-81187373D01*
X191841357Y-81092135D01*
X191793738Y-81044516D01*
X191698500Y-80996897D01*
X191508024Y-80949278D01*
X191412786Y-80901659D01*
X191365167Y-80854040D01*
X191317548Y-80758802D01*
X191317548Y-80663564D01*
X191365167Y-80568326D01*
X191412786Y-80520707D01*
X191508024Y-80473087D01*
X191746119Y-80473087D01*
X191888976Y-80520707D01*
X192793738Y-80473087D02*
X192317548Y-80473087D01*
X192269929Y-80949278D01*
X192317548Y-80901659D01*
X192412786Y-80854040D01*
X192650881Y-80854040D01*
X192746119Y-80901659D01*
X192793738Y-80949278D01*
X192841357Y-81044516D01*
X192841357Y-81282611D01*
X192793738Y-81377849D01*
X192746119Y-81425468D01*
X192650881Y-81473087D01*
X192412786Y-81473087D01*
X192317548Y-81425468D01*
X192269929Y-81377849D01*
G04 #@! TO.C,S6*
X190287548Y-100395468D02*
X190430405Y-100443087D01*
X190668500Y-100443087D01*
X190763738Y-100395468D01*
X190811357Y-100347849D01*
X190858976Y-100252611D01*
X190858976Y-100157373D01*
X190811357Y-100062135D01*
X190763738Y-100014516D01*
X190668500Y-99966897D01*
X190478024Y-99919278D01*
X190382786Y-99871659D01*
X190335167Y-99824040D01*
X190287548Y-99728802D01*
X190287548Y-99633564D01*
X190335167Y-99538326D01*
X190382786Y-99490707D01*
X190478024Y-99443087D01*
X190716119Y-99443087D01*
X190858976Y-99490707D01*
X191716119Y-99443087D02*
X191525643Y-99443087D01*
X191430405Y-99490707D01*
X191382786Y-99538326D01*
X191287548Y-99681183D01*
X191239929Y-99871659D01*
X191239929Y-100252611D01*
X191287548Y-100347849D01*
X191335167Y-100395468D01*
X191430405Y-100443087D01*
X191620881Y-100443087D01*
X191716119Y-100395468D01*
X191763738Y-100347849D01*
X191811357Y-100252611D01*
X191811357Y-100014516D01*
X191763738Y-99919278D01*
X191716119Y-99871659D01*
X191620881Y-99824040D01*
X191430405Y-99824040D01*
X191335167Y-99871659D01*
X191287548Y-99919278D01*
X191239929Y-100014516D01*
G04 #@! TO.C,S7*
X197847548Y-116555468D02*
X197990405Y-116603087D01*
X198228500Y-116603087D01*
X198323738Y-116555468D01*
X198371357Y-116507849D01*
X198418976Y-116412611D01*
X198418976Y-116317373D01*
X198371357Y-116222135D01*
X198323738Y-116174516D01*
X198228500Y-116126897D01*
X198038024Y-116079278D01*
X197942786Y-116031659D01*
X197895167Y-115984040D01*
X197847548Y-115888802D01*
X197847548Y-115793564D01*
X197895167Y-115698326D01*
X197942786Y-115650707D01*
X198038024Y-115603087D01*
X198276119Y-115603087D01*
X198418976Y-115650707D01*
X198752310Y-115603087D02*
X199418976Y-115603087D01*
X198990405Y-116603087D01*
G04 #@! TO.C,S8*
X200357548Y-67945468D02*
X200500405Y-67993087D01*
X200738500Y-67993087D01*
X200833738Y-67945468D01*
X200881357Y-67897849D01*
X200928976Y-67802611D01*
X200928976Y-67707373D01*
X200881357Y-67612135D01*
X200833738Y-67564516D01*
X200738500Y-67516897D01*
X200548024Y-67469278D01*
X200452786Y-67421659D01*
X200405167Y-67374040D01*
X200357548Y-67278802D01*
X200357548Y-67183564D01*
X200405167Y-67088326D01*
X200452786Y-67040707D01*
X200548024Y-66993087D01*
X200786119Y-66993087D01*
X200928976Y-67040707D01*
X201500405Y-67421659D02*
X201405167Y-67374040D01*
X201357548Y-67326421D01*
X201309929Y-67231183D01*
X201309929Y-67183564D01*
X201357548Y-67088326D01*
X201405167Y-67040707D01*
X201500405Y-66993087D01*
X201690881Y-66993087D01*
X201786119Y-67040707D01*
X201833738Y-67088326D01*
X201881357Y-67183564D01*
X201881357Y-67231183D01*
X201833738Y-67326421D01*
X201786119Y-67374040D01*
X201690881Y-67421659D01*
X201500405Y-67421659D01*
X201405167Y-67469278D01*
X201357548Y-67516897D01*
X201309929Y-67612135D01*
X201309929Y-67802611D01*
X201357548Y-67897849D01*
X201405167Y-67945468D01*
X201500405Y-67993087D01*
X201690881Y-67993087D01*
X201786119Y-67945468D01*
X201833738Y-67897849D01*
X201881357Y-67802611D01*
X201881357Y-67612135D01*
X201833738Y-67516897D01*
X201786119Y-67469278D01*
X201690881Y-67421659D01*
G04 #@! TO.C,S10*
X205361357Y-93055468D02*
X205504214Y-93103087D01*
X205742310Y-93103087D01*
X205837548Y-93055468D01*
X205885167Y-93007849D01*
X205932786Y-92912611D01*
X205932786Y-92817373D01*
X205885167Y-92722135D01*
X205837548Y-92674516D01*
X205742310Y-92626897D01*
X205551833Y-92579278D01*
X205456595Y-92531659D01*
X205408976Y-92484040D01*
X205361357Y-92388802D01*
X205361357Y-92293564D01*
X205408976Y-92198326D01*
X205456595Y-92150707D01*
X205551833Y-92103087D01*
X205789929Y-92103087D01*
X205932786Y-92150707D01*
X206885167Y-93103087D02*
X206313738Y-93103087D01*
X206599453Y-93103087D02*
X206599453Y-92103087D01*
X206504214Y-92245945D01*
X206408976Y-92341183D01*
X206313738Y-92388802D01*
X207504214Y-92103087D02*
X207599453Y-92103087D01*
X207694691Y-92150707D01*
X207742310Y-92198326D01*
X207789929Y-92293564D01*
X207837548Y-92484040D01*
X207837548Y-92722135D01*
X207789929Y-92912611D01*
X207742310Y-93007849D01*
X207694691Y-93055468D01*
X207599453Y-93103087D01*
X207504214Y-93103087D01*
X207408976Y-93055468D01*
X207361357Y-93007849D01*
X207313738Y-92912611D01*
X207266119Y-92722135D01*
X207266119Y-92484040D01*
X207313738Y-92293564D01*
X207361357Y-92198326D01*
X207408976Y-92150707D01*
X207504214Y-92103087D01*
G04 #@! TO.C,S11*
X226221357Y-91605468D02*
X226364214Y-91653087D01*
X226602310Y-91653087D01*
X226697548Y-91605468D01*
X226745167Y-91557849D01*
X226792786Y-91462611D01*
X226792786Y-91367373D01*
X226745167Y-91272135D01*
X226697548Y-91224516D01*
X226602310Y-91176897D01*
X226411833Y-91129278D01*
X226316595Y-91081659D01*
X226268976Y-91034040D01*
X226221357Y-90938802D01*
X226221357Y-90843564D01*
X226268976Y-90748326D01*
X226316595Y-90700707D01*
X226411833Y-90653087D01*
X226649929Y-90653087D01*
X226792786Y-90700707D01*
X227745167Y-91653087D02*
X227173738Y-91653087D01*
X227459453Y-91653087D02*
X227459453Y-90653087D01*
X227364214Y-90795945D01*
X227268976Y-90891183D01*
X227173738Y-90938802D01*
X228697548Y-91653087D02*
X228126119Y-91653087D01*
X228411833Y-91653087D02*
X228411833Y-90653087D01*
X228316595Y-90795945D01*
X228221357Y-90891183D01*
X228126119Y-90938802D01*
G04 #@! TO.C,S12*
X214621357Y-107535468D02*
X214764214Y-107583087D01*
X215002310Y-107583087D01*
X215097548Y-107535468D01*
X215145167Y-107487849D01*
X215192786Y-107392611D01*
X215192786Y-107297373D01*
X215145167Y-107202135D01*
X215097548Y-107154516D01*
X215002310Y-107106897D01*
X214811833Y-107059278D01*
X214716595Y-107011659D01*
X214668976Y-106964040D01*
X214621357Y-106868802D01*
X214621357Y-106773564D01*
X214668976Y-106678326D01*
X214716595Y-106630707D01*
X214811833Y-106583087D01*
X215049929Y-106583087D01*
X215192786Y-106630707D01*
X216145167Y-107583087D02*
X215573738Y-107583087D01*
X215859453Y-107583087D02*
X215859453Y-106583087D01*
X215764214Y-106725945D01*
X215668976Y-106821183D01*
X215573738Y-106868802D01*
X216526119Y-106678326D02*
X216573738Y-106630707D01*
X216668976Y-106583087D01*
X216907072Y-106583087D01*
X217002310Y-106630707D01*
X217049929Y-106678326D01*
X217097548Y-106773564D01*
X217097548Y-106868802D01*
X217049929Y-107011659D01*
X216478500Y-107583087D01*
X217097548Y-107583087D01*
G04 #@! TO.C,S13*
X235861357Y-107535468D02*
X236004214Y-107583087D01*
X236242310Y-107583087D01*
X236337548Y-107535468D01*
X236385167Y-107487849D01*
X236432786Y-107392611D01*
X236432786Y-107297373D01*
X236385167Y-107202135D01*
X236337548Y-107154516D01*
X236242310Y-107106897D01*
X236051833Y-107059278D01*
X235956595Y-107011659D01*
X235908976Y-106964040D01*
X235861357Y-106868802D01*
X235861357Y-106773564D01*
X235908976Y-106678326D01*
X235956595Y-106630707D01*
X236051833Y-106583087D01*
X236289929Y-106583087D01*
X236432786Y-106630707D01*
X237385167Y-107583087D02*
X236813738Y-107583087D01*
X237099453Y-107583087D02*
X237099453Y-106583087D01*
X237004214Y-106725945D01*
X236908976Y-106821183D01*
X236813738Y-106868802D01*
X237718500Y-106583087D02*
X238337548Y-106583087D01*
X238004214Y-106964040D01*
X238147072Y-106964040D01*
X238242310Y-107011659D01*
X238289929Y-107059278D01*
X238337548Y-107154516D01*
X238337548Y-107392611D01*
X238289929Y-107487849D01*
X238242310Y-107535468D01*
X238147072Y-107583087D01*
X237861357Y-107583087D01*
X237766119Y-107535468D01*
X237718500Y-107487849D01*
G04 #@! TO.C,S14*
X200641357Y-134895468D02*
X200784214Y-134943087D01*
X201022310Y-134943087D01*
X201117548Y-134895468D01*
X201165167Y-134847849D01*
X201212786Y-134752611D01*
X201212786Y-134657373D01*
X201165167Y-134562135D01*
X201117548Y-134514516D01*
X201022310Y-134466897D01*
X200831833Y-134419278D01*
X200736595Y-134371659D01*
X200688976Y-134324040D01*
X200641357Y-134228802D01*
X200641357Y-134133564D01*
X200688976Y-134038326D01*
X200736595Y-133990707D01*
X200831833Y-133943087D01*
X201069929Y-133943087D01*
X201212786Y-133990707D01*
X202165167Y-134943087D02*
X201593738Y-134943087D01*
X201879453Y-134943087D02*
X201879453Y-133943087D01*
X201784214Y-134085945D01*
X201688976Y-134181183D01*
X201593738Y-134228802D01*
X203022310Y-134276421D02*
X203022310Y-134943087D01*
X202784214Y-133895468D02*
X202546119Y-134609754D01*
X203165167Y-134609754D01*
G04 #@! TO.C,S15*
X219421357Y-122155468D02*
X219564214Y-122203087D01*
X219802310Y-122203087D01*
X219897548Y-122155468D01*
X219945167Y-122107849D01*
X219992786Y-122012611D01*
X219992786Y-121917373D01*
X219945167Y-121822135D01*
X219897548Y-121774516D01*
X219802310Y-121726897D01*
X219611833Y-121679278D01*
X219516595Y-121631659D01*
X219468976Y-121584040D01*
X219421357Y-121488802D01*
X219421357Y-121393564D01*
X219468976Y-121298326D01*
X219516595Y-121250707D01*
X219611833Y-121203087D01*
X219849929Y-121203087D01*
X219992786Y-121250707D01*
X220945167Y-122203087D02*
X220373738Y-122203087D01*
X220659453Y-122203087D02*
X220659453Y-121203087D01*
X220564214Y-121345945D01*
X220468976Y-121441183D01*
X220373738Y-121488802D01*
X221849929Y-121203087D02*
X221373738Y-121203087D01*
X221326119Y-121679278D01*
X221373738Y-121631659D01*
X221468976Y-121584040D01*
X221707072Y-121584040D01*
X221802310Y-121631659D01*
X221849929Y-121679278D01*
X221897548Y-121774516D01*
X221897548Y-122012611D01*
X221849929Y-122107849D01*
X221802310Y-122155468D01*
X221707072Y-122203087D01*
X221468976Y-122203087D01*
X221373738Y-122155468D01*
X221326119Y-122107849D01*
G04 #@! TO.C,S16*
X237561357Y-125345468D02*
X237704214Y-125393087D01*
X237942310Y-125393087D01*
X238037548Y-125345468D01*
X238085167Y-125297849D01*
X238132786Y-125202611D01*
X238132786Y-125107373D01*
X238085167Y-125012135D01*
X238037548Y-124964516D01*
X237942310Y-124916897D01*
X237751833Y-124869278D01*
X237656595Y-124821659D01*
X237608976Y-124774040D01*
X237561357Y-124678802D01*
X237561357Y-124583564D01*
X237608976Y-124488326D01*
X237656595Y-124440707D01*
X237751833Y-124393087D01*
X237989929Y-124393087D01*
X238132786Y-124440707D01*
X239085167Y-125393087D02*
X238513738Y-125393087D01*
X238799453Y-125393087D02*
X238799453Y-124393087D01*
X238704214Y-124535945D01*
X238608976Y-124631183D01*
X238513738Y-124678802D01*
X239942310Y-124393087D02*
X239751833Y-124393087D01*
X239656595Y-124440707D01*
X239608976Y-124488326D01*
X239513738Y-124631183D01*
X239466119Y-124821659D01*
X239466119Y-125202611D01*
X239513738Y-125297849D01*
X239561357Y-125345468D01*
X239656595Y-125393087D01*
X239847072Y-125393087D01*
X239942310Y-125345468D01*
X239989929Y-125297849D01*
X240037548Y-125202611D01*
X240037548Y-124964516D01*
X239989929Y-124869278D01*
X239942310Y-124821659D01*
X239847072Y-124774040D01*
X239656595Y-124774040D01*
X239561357Y-124821659D01*
X239513738Y-124869278D01*
X239466119Y-124964516D01*
G04 #@! TO.C,S17*
X236771357Y-143895468D02*
X236914214Y-143943087D01*
X237152310Y-143943087D01*
X237247548Y-143895468D01*
X237295167Y-143847849D01*
X237342786Y-143752611D01*
X237342786Y-143657373D01*
X237295167Y-143562135D01*
X237247548Y-143514516D01*
X237152310Y-143466897D01*
X236961833Y-143419278D01*
X236866595Y-143371659D01*
X236818976Y-143324040D01*
X236771357Y-143228802D01*
X236771357Y-143133564D01*
X236818976Y-143038326D01*
X236866595Y-142990707D01*
X236961833Y-142943087D01*
X237199929Y-142943087D01*
X237342786Y-142990707D01*
X238295167Y-143943087D02*
X237723738Y-143943087D01*
X238009453Y-143943087D02*
X238009453Y-142943087D01*
X237914214Y-143085945D01*
X237818976Y-143181183D01*
X237723738Y-143228802D01*
X238628500Y-142943087D02*
X239295167Y-142943087D01*
X238866595Y-143943087D01*
G04 #@! TO.C,S18*
X218291357Y-140895468D02*
X218434214Y-140943087D01*
X218672310Y-140943087D01*
X218767548Y-140895468D01*
X218815167Y-140847849D01*
X218862786Y-140752611D01*
X218862786Y-140657373D01*
X218815167Y-140562135D01*
X218767548Y-140514516D01*
X218672310Y-140466897D01*
X218481833Y-140419278D01*
X218386595Y-140371659D01*
X218338976Y-140324040D01*
X218291357Y-140228802D01*
X218291357Y-140133564D01*
X218338976Y-140038326D01*
X218386595Y-139990707D01*
X218481833Y-139943087D01*
X218719929Y-139943087D01*
X218862786Y-139990707D01*
X219815167Y-140943087D02*
X219243738Y-140943087D01*
X219529453Y-140943087D02*
X219529453Y-139943087D01*
X219434214Y-140085945D01*
X219338976Y-140181183D01*
X219243738Y-140228802D01*
X220386595Y-140371659D02*
X220291357Y-140324040D01*
X220243738Y-140276421D01*
X220196119Y-140181183D01*
X220196119Y-140133564D01*
X220243738Y-140038326D01*
X220291357Y-139990707D01*
X220386595Y-139943087D01*
X220577072Y-139943087D01*
X220672310Y-139990707D01*
X220719929Y-140038326D01*
X220767548Y-140133564D01*
X220767548Y-140181183D01*
X220719929Y-140276421D01*
X220672310Y-140324040D01*
X220577072Y-140371659D01*
X220386595Y-140371659D01*
X220291357Y-140419278D01*
X220243738Y-140466897D01*
X220196119Y-140562135D01*
X220196119Y-140752611D01*
X220243738Y-140847849D01*
X220291357Y-140895468D01*
X220386595Y-140943087D01*
X220577072Y-140943087D01*
X220672310Y-140895468D01*
X220719929Y-140847849D01*
X220767548Y-140752611D01*
X220767548Y-140562135D01*
X220719929Y-140466897D01*
X220672310Y-140419278D01*
X220577072Y-140371659D01*
G04 #@! TO.C,S19*
X216071357Y-158355468D02*
X216214214Y-158403087D01*
X216452310Y-158403087D01*
X216547548Y-158355468D01*
X216595167Y-158307849D01*
X216642786Y-158212611D01*
X216642786Y-158117373D01*
X216595167Y-158022135D01*
X216547548Y-157974516D01*
X216452310Y-157926897D01*
X216261833Y-157879278D01*
X216166595Y-157831659D01*
X216118976Y-157784040D01*
X216071357Y-157688802D01*
X216071357Y-157593564D01*
X216118976Y-157498326D01*
X216166595Y-157450707D01*
X216261833Y-157403087D01*
X216499929Y-157403087D01*
X216642786Y-157450707D01*
X217595167Y-158403087D02*
X217023738Y-158403087D01*
X217309453Y-158403087D02*
X217309453Y-157403087D01*
X217214214Y-157545945D01*
X217118976Y-157641183D01*
X217023738Y-157688802D01*
X218071357Y-158403087D02*
X218261833Y-158403087D01*
X218357072Y-158355468D01*
X218404691Y-158307849D01*
X218499929Y-158164992D01*
X218547548Y-157974516D01*
X218547548Y-157593564D01*
X218499929Y-157498326D01*
X218452310Y-157450707D01*
X218357072Y-157403087D01*
X218166595Y-157403087D01*
X218071357Y-157450707D01*
X218023738Y-157498326D01*
X217976119Y-157593564D01*
X217976119Y-157831659D01*
X218023738Y-157926897D01*
X218071357Y-157974516D01*
X218166595Y-158022135D01*
X218357072Y-158022135D01*
X218452310Y-157974516D01*
X218499929Y-157926897D01*
X218547548Y-157831659D01*
G04 #@! TO.C,S20*
X232831357Y-162045468D02*
X232974214Y-162093087D01*
X233212310Y-162093087D01*
X233307548Y-162045468D01*
X233355167Y-161997849D01*
X233402786Y-161902611D01*
X233402786Y-161807373D01*
X233355167Y-161712135D01*
X233307548Y-161664516D01*
X233212310Y-161616897D01*
X233021833Y-161569278D01*
X232926595Y-161521659D01*
X232878976Y-161474040D01*
X232831357Y-161378802D01*
X232831357Y-161283564D01*
X232878976Y-161188326D01*
X232926595Y-161140707D01*
X233021833Y-161093087D01*
X233259929Y-161093087D01*
X233402786Y-161140707D01*
X233783738Y-161188326D02*
X233831357Y-161140707D01*
X233926595Y-161093087D01*
X234164691Y-161093087D01*
X234259929Y-161140707D01*
X234307548Y-161188326D01*
X234355167Y-161283564D01*
X234355167Y-161378802D01*
X234307548Y-161521659D01*
X233736119Y-162093087D01*
X234355167Y-162093087D01*
X234974214Y-161093087D02*
X235069453Y-161093087D01*
X235164691Y-161140707D01*
X235212310Y-161188326D01*
X235259929Y-161283564D01*
X235307548Y-161474040D01*
X235307548Y-161712135D01*
X235259929Y-161902611D01*
X235212310Y-161997849D01*
X235164691Y-162045468D01*
X235069453Y-162093087D01*
X234974214Y-162093087D01*
X234878976Y-162045468D01*
X234831357Y-161997849D01*
X234783738Y-161902611D01*
X234736119Y-161712135D01*
X234736119Y-161474040D01*
X234783738Y-161283564D01*
X234831357Y-161188326D01*
X234878976Y-161140707D01*
X234974214Y-161093087D01*
G04 #@! TO.C,S21*
X226961357Y-181035468D02*
X227104214Y-181083087D01*
X227342310Y-181083087D01*
X227437548Y-181035468D01*
X227485167Y-180987849D01*
X227532786Y-180892611D01*
X227532786Y-180797373D01*
X227485167Y-180702135D01*
X227437548Y-180654516D01*
X227342310Y-180606897D01*
X227151833Y-180559278D01*
X227056595Y-180511659D01*
X227008976Y-180464040D01*
X226961357Y-180368802D01*
X226961357Y-180273564D01*
X227008976Y-180178326D01*
X227056595Y-180130707D01*
X227151833Y-180083087D01*
X227389929Y-180083087D01*
X227532786Y-180130707D01*
X227913738Y-180178326D02*
X227961357Y-180130707D01*
X228056595Y-180083087D01*
X228294691Y-180083087D01*
X228389929Y-180130707D01*
X228437548Y-180178326D01*
X228485167Y-180273564D01*
X228485167Y-180368802D01*
X228437548Y-180511659D01*
X227866119Y-181083087D01*
X228485167Y-181083087D01*
X229437548Y-181083087D02*
X228866119Y-181083087D01*
X229151833Y-181083087D02*
X229151833Y-180083087D01*
X229056595Y-180225945D01*
X228961357Y-180321183D01*
X228866119Y-180368802D01*
G04 #@! TO.C,S22*
X224521357Y-200625468D02*
X224664214Y-200673087D01*
X224902310Y-200673087D01*
X224997548Y-200625468D01*
X225045167Y-200577849D01*
X225092786Y-200482611D01*
X225092786Y-200387373D01*
X225045167Y-200292135D01*
X224997548Y-200244516D01*
X224902310Y-200196897D01*
X224711833Y-200149278D01*
X224616595Y-200101659D01*
X224568976Y-200054040D01*
X224521357Y-199958802D01*
X224521357Y-199863564D01*
X224568976Y-199768326D01*
X224616595Y-199720707D01*
X224711833Y-199673087D01*
X224949929Y-199673087D01*
X225092786Y-199720707D01*
X225473738Y-199768326D02*
X225521357Y-199720707D01*
X225616595Y-199673087D01*
X225854691Y-199673087D01*
X225949929Y-199720707D01*
X225997548Y-199768326D01*
X226045167Y-199863564D01*
X226045167Y-199958802D01*
X225997548Y-200101659D01*
X225426119Y-200673087D01*
X226045167Y-200673087D01*
X226426119Y-199768326D02*
X226473738Y-199720707D01*
X226568976Y-199673087D01*
X226807072Y-199673087D01*
X226902310Y-199720707D01*
X226949929Y-199768326D01*
X226997548Y-199863564D01*
X226997548Y-199958802D01*
X226949929Y-200101659D01*
X226378500Y-200673087D01*
X226997548Y-200673087D01*
G04 #@! TO.C,S23*
X222431357Y-217785468D02*
X222574214Y-217833087D01*
X222812310Y-217833087D01*
X222907548Y-217785468D01*
X222955167Y-217737849D01*
X223002786Y-217642611D01*
X223002786Y-217547373D01*
X222955167Y-217452135D01*
X222907548Y-217404516D01*
X222812310Y-217356897D01*
X222621833Y-217309278D01*
X222526595Y-217261659D01*
X222478976Y-217214040D01*
X222431357Y-217118802D01*
X222431357Y-217023564D01*
X222478976Y-216928326D01*
X222526595Y-216880707D01*
X222621833Y-216833087D01*
X222859929Y-216833087D01*
X223002786Y-216880707D01*
X223383738Y-216928326D02*
X223431357Y-216880707D01*
X223526595Y-216833087D01*
X223764691Y-216833087D01*
X223859929Y-216880707D01*
X223907548Y-216928326D01*
X223955167Y-217023564D01*
X223955167Y-217118802D01*
X223907548Y-217261659D01*
X223336119Y-217833087D01*
X223955167Y-217833087D01*
X224288500Y-216833087D02*
X224907548Y-216833087D01*
X224574214Y-217214040D01*
X224717072Y-217214040D01*
X224812310Y-217261659D01*
X224859929Y-217309278D01*
X224907548Y-217404516D01*
X224907548Y-217642611D01*
X224859929Y-217737849D01*
X224812310Y-217785468D01*
X224717072Y-217833087D01*
X224431357Y-217833087D01*
X224336119Y-217785468D01*
X224288500Y-217737849D01*
G04 #@! TO.C,S24*
X188691357Y-234665468D02*
X188834214Y-234713087D01*
X189072310Y-234713087D01*
X189167548Y-234665468D01*
X189215167Y-234617849D01*
X189262786Y-234522611D01*
X189262786Y-234427373D01*
X189215167Y-234332135D01*
X189167548Y-234284516D01*
X189072310Y-234236897D01*
X188881833Y-234189278D01*
X188786595Y-234141659D01*
X188738976Y-234094040D01*
X188691357Y-233998802D01*
X188691357Y-233903564D01*
X188738976Y-233808326D01*
X188786595Y-233760707D01*
X188881833Y-233713087D01*
X189119929Y-233713087D01*
X189262786Y-233760707D01*
X189643738Y-233808326D02*
X189691357Y-233760707D01*
X189786595Y-233713087D01*
X190024691Y-233713087D01*
X190119929Y-233760707D01*
X190167548Y-233808326D01*
X190215167Y-233903564D01*
X190215167Y-233998802D01*
X190167548Y-234141659D01*
X189596119Y-234713087D01*
X190215167Y-234713087D01*
X191072310Y-234046421D02*
X191072310Y-234713087D01*
X190834214Y-233665468D02*
X190596119Y-234379754D01*
X191215167Y-234379754D01*
G04 #@! TO.C,S25*
X186971357Y-253265468D02*
X187114214Y-253313087D01*
X187352310Y-253313087D01*
X187447548Y-253265468D01*
X187495167Y-253217849D01*
X187542786Y-253122611D01*
X187542786Y-253027373D01*
X187495167Y-252932135D01*
X187447548Y-252884516D01*
X187352310Y-252836897D01*
X187161833Y-252789278D01*
X187066595Y-252741659D01*
X187018976Y-252694040D01*
X186971357Y-252598802D01*
X186971357Y-252503564D01*
X187018976Y-252408326D01*
X187066595Y-252360707D01*
X187161833Y-252313087D01*
X187399929Y-252313087D01*
X187542786Y-252360707D01*
X187923738Y-252408326D02*
X187971357Y-252360707D01*
X188066595Y-252313087D01*
X188304691Y-252313087D01*
X188399929Y-252360707D01*
X188447548Y-252408326D01*
X188495167Y-252503564D01*
X188495167Y-252598802D01*
X188447548Y-252741659D01*
X187876119Y-253313087D01*
X188495167Y-253313087D01*
X189399929Y-252313087D02*
X188923738Y-252313087D01*
X188876119Y-252789278D01*
X188923738Y-252741659D01*
X189018976Y-252694040D01*
X189257072Y-252694040D01*
X189352310Y-252741659D01*
X189399929Y-252789278D01*
X189447548Y-252884516D01*
X189447548Y-253122611D01*
X189399929Y-253217849D01*
X189352310Y-253265468D01*
X189257072Y-253313087D01*
X189018976Y-253313087D01*
X188923738Y-253265468D01*
X188876119Y-253217849D01*
G04 #@! TO.C,S26*
X197791357Y-268085468D02*
X197934214Y-268133087D01*
X198172310Y-268133087D01*
X198267548Y-268085468D01*
X198315167Y-268037849D01*
X198362786Y-267942611D01*
X198362786Y-267847373D01*
X198315167Y-267752135D01*
X198267548Y-267704516D01*
X198172310Y-267656897D01*
X197981833Y-267609278D01*
X197886595Y-267561659D01*
X197838976Y-267514040D01*
X197791357Y-267418802D01*
X197791357Y-267323564D01*
X197838976Y-267228326D01*
X197886595Y-267180707D01*
X197981833Y-267133087D01*
X198219929Y-267133087D01*
X198362786Y-267180707D01*
X198743738Y-267228326D02*
X198791357Y-267180707D01*
X198886595Y-267133087D01*
X199124691Y-267133087D01*
X199219929Y-267180707D01*
X199267548Y-267228326D01*
X199315167Y-267323564D01*
X199315167Y-267418802D01*
X199267548Y-267561659D01*
X198696119Y-268133087D01*
X199315167Y-268133087D01*
X200172310Y-267133087D02*
X199981833Y-267133087D01*
X199886595Y-267180707D01*
X199838976Y-267228326D01*
X199743738Y-267371183D01*
X199696119Y-267561659D01*
X199696119Y-267942611D01*
X199743738Y-268037849D01*
X199791357Y-268085468D01*
X199886595Y-268133087D01*
X200077072Y-268133087D01*
X200172310Y-268085468D01*
X200219929Y-268037849D01*
X200267548Y-267942611D01*
X200267548Y-267704516D01*
X200219929Y-267609278D01*
X200172310Y-267561659D01*
X200077072Y-267514040D01*
X199886595Y-267514040D01*
X199791357Y-267561659D01*
X199743738Y-267609278D01*
X199696119Y-267704516D01*
G04 #@! TO.C,S27*
X210311357Y-268295468D02*
X210454214Y-268343087D01*
X210692310Y-268343087D01*
X210787548Y-268295468D01*
X210835167Y-268247849D01*
X210882786Y-268152611D01*
X210882786Y-268057373D01*
X210835167Y-267962135D01*
X210787548Y-267914516D01*
X210692310Y-267866897D01*
X210501833Y-267819278D01*
X210406595Y-267771659D01*
X210358976Y-267724040D01*
X210311357Y-267628802D01*
X210311357Y-267533564D01*
X210358976Y-267438326D01*
X210406595Y-267390707D01*
X210501833Y-267343087D01*
X210739929Y-267343087D01*
X210882786Y-267390707D01*
X211263738Y-267438326D02*
X211311357Y-267390707D01*
X211406595Y-267343087D01*
X211644691Y-267343087D01*
X211739929Y-267390707D01*
X211787548Y-267438326D01*
X211835167Y-267533564D01*
X211835167Y-267628802D01*
X211787548Y-267771659D01*
X211216119Y-268343087D01*
X211835167Y-268343087D01*
X212168500Y-267343087D02*
X212835167Y-267343087D01*
X212406595Y-268343087D01*
G04 #@! TO.C,S28*
X223261357Y-253995468D02*
X223404214Y-254043087D01*
X223642310Y-254043087D01*
X223737548Y-253995468D01*
X223785167Y-253947849D01*
X223832786Y-253852611D01*
X223832786Y-253757373D01*
X223785167Y-253662135D01*
X223737548Y-253614516D01*
X223642310Y-253566897D01*
X223451833Y-253519278D01*
X223356595Y-253471659D01*
X223308976Y-253424040D01*
X223261357Y-253328802D01*
X223261357Y-253233564D01*
X223308976Y-253138326D01*
X223356595Y-253090707D01*
X223451833Y-253043087D01*
X223689929Y-253043087D01*
X223832786Y-253090707D01*
X224213738Y-253138326D02*
X224261357Y-253090707D01*
X224356595Y-253043087D01*
X224594691Y-253043087D01*
X224689929Y-253090707D01*
X224737548Y-253138326D01*
X224785167Y-253233564D01*
X224785167Y-253328802D01*
X224737548Y-253471659D01*
X224166119Y-254043087D01*
X224785167Y-254043087D01*
X225356595Y-253471659D02*
X225261357Y-253424040D01*
X225213738Y-253376421D01*
X225166119Y-253281183D01*
X225166119Y-253233564D01*
X225213738Y-253138326D01*
X225261357Y-253090707D01*
X225356595Y-253043087D01*
X225547072Y-253043087D01*
X225642310Y-253090707D01*
X225689929Y-253138326D01*
X225737548Y-253233564D01*
X225737548Y-253281183D01*
X225689929Y-253376421D01*
X225642310Y-253424040D01*
X225547072Y-253471659D01*
X225356595Y-253471659D01*
X225261357Y-253519278D01*
X225213738Y-253566897D01*
X225166119Y-253662135D01*
X225166119Y-253852611D01*
X225213738Y-253947849D01*
X225261357Y-253995468D01*
X225356595Y-254043087D01*
X225547072Y-254043087D01*
X225642310Y-253995468D01*
X225689929Y-253947849D01*
X225737548Y-253852611D01*
X225737548Y-253662135D01*
X225689929Y-253566897D01*
X225642310Y-253519278D01*
X225547072Y-253471659D01*
G04 #@! TO.C,S29*
X205351357Y-250565468D02*
X205494214Y-250613087D01*
X205732310Y-250613087D01*
X205827548Y-250565468D01*
X205875167Y-250517849D01*
X205922786Y-250422611D01*
X205922786Y-250327373D01*
X205875167Y-250232135D01*
X205827548Y-250184516D01*
X205732310Y-250136897D01*
X205541833Y-250089278D01*
X205446595Y-250041659D01*
X205398976Y-249994040D01*
X205351357Y-249898802D01*
X205351357Y-249803564D01*
X205398976Y-249708326D01*
X205446595Y-249660707D01*
X205541833Y-249613087D01*
X205779929Y-249613087D01*
X205922786Y-249660707D01*
X206303738Y-249708326D02*
X206351357Y-249660707D01*
X206446595Y-249613087D01*
X206684691Y-249613087D01*
X206779929Y-249660707D01*
X206827548Y-249708326D01*
X206875167Y-249803564D01*
X206875167Y-249898802D01*
X206827548Y-250041659D01*
X206256119Y-250613087D01*
X206875167Y-250613087D01*
X207351357Y-250613087D02*
X207541833Y-250613087D01*
X207637072Y-250565468D01*
X207684691Y-250517849D01*
X207779929Y-250374992D01*
X207827548Y-250184516D01*
X207827548Y-249803564D01*
X207779929Y-249708326D01*
X207732310Y-249660707D01*
X207637072Y-249613087D01*
X207446595Y-249613087D01*
X207351357Y-249660707D01*
X207303738Y-249708326D01*
X207256119Y-249803564D01*
X207256119Y-250041659D01*
X207303738Y-250136897D01*
X207351357Y-250184516D01*
X207446595Y-250232135D01*
X207637072Y-250232135D01*
X207732310Y-250184516D01*
X207779929Y-250136897D01*
X207827548Y-250041659D01*
G04 #@! TO.C,S30*
X222451357Y-235205468D02*
X222594214Y-235253087D01*
X222832310Y-235253087D01*
X222927548Y-235205468D01*
X222975167Y-235157849D01*
X223022786Y-235062611D01*
X223022786Y-234967373D01*
X222975167Y-234872135D01*
X222927548Y-234824516D01*
X222832310Y-234776897D01*
X222641833Y-234729278D01*
X222546595Y-234681659D01*
X222498976Y-234634040D01*
X222451357Y-234538802D01*
X222451357Y-234443564D01*
X222498976Y-234348326D01*
X222546595Y-234300707D01*
X222641833Y-234253087D01*
X222879929Y-234253087D01*
X223022786Y-234300707D01*
X223356119Y-234253087D02*
X223975167Y-234253087D01*
X223641833Y-234634040D01*
X223784691Y-234634040D01*
X223879929Y-234681659D01*
X223927548Y-234729278D01*
X223975167Y-234824516D01*
X223975167Y-235062611D01*
X223927548Y-235157849D01*
X223879929Y-235205468D01*
X223784691Y-235253087D01*
X223498976Y-235253087D01*
X223403738Y-235205468D01*
X223356119Y-235157849D01*
X224594214Y-234253087D02*
X224689453Y-234253087D01*
X224784691Y-234300707D01*
X224832310Y-234348326D01*
X224879929Y-234443564D01*
X224927548Y-234634040D01*
X224927548Y-234872135D01*
X224879929Y-235062611D01*
X224832310Y-235157849D01*
X224784691Y-235205468D01*
X224689453Y-235253087D01*
X224594214Y-235253087D01*
X224498976Y-235205468D01*
X224451357Y-235157849D01*
X224403738Y-235062611D01*
X224356119Y-234872135D01*
X224356119Y-234634040D01*
X224403738Y-234443564D01*
X224451357Y-234348326D01*
X224498976Y-234300707D01*
X224594214Y-234253087D01*
G04 #@! TO.C,S31*
X205621357Y-230435468D02*
X205764214Y-230483087D01*
X206002310Y-230483087D01*
X206097548Y-230435468D01*
X206145167Y-230387849D01*
X206192786Y-230292611D01*
X206192786Y-230197373D01*
X206145167Y-230102135D01*
X206097548Y-230054516D01*
X206002310Y-230006897D01*
X205811833Y-229959278D01*
X205716595Y-229911659D01*
X205668976Y-229864040D01*
X205621357Y-229768802D01*
X205621357Y-229673564D01*
X205668976Y-229578326D01*
X205716595Y-229530707D01*
X205811833Y-229483087D01*
X206049929Y-229483087D01*
X206192786Y-229530707D01*
X206526119Y-229483087D02*
X207145167Y-229483087D01*
X206811833Y-229864040D01*
X206954691Y-229864040D01*
X207049929Y-229911659D01*
X207097548Y-229959278D01*
X207145167Y-230054516D01*
X207145167Y-230292611D01*
X207097548Y-230387849D01*
X207049929Y-230435468D01*
X206954691Y-230483087D01*
X206668976Y-230483087D01*
X206573738Y-230435468D01*
X206526119Y-230387849D01*
X208097548Y-230483087D02*
X207526119Y-230483087D01*
X207811833Y-230483087D02*
X207811833Y-229483087D01*
X207716595Y-229625945D01*
X207621357Y-229721183D01*
X207526119Y-229768802D01*
G04 #@! TD*
M02*
