<?xml version="1.0" standalone="no"?>
 <!DOCTYPE svg PUBLIC "-//W3C//DTD SVG 1.1//EN" 
 "http://www.w3.org/Graphics/SVG/1.1/DTD/svg11.dtd"> 
<svg xmlns="http://www.w3.org/2000/svg" version="1.1" 
    width="22.4993cm" height="30.9982cm" viewBox="0 0 88580 122040 ">
<title>SVG Picture created as Insole_PCB-brd.svg date 2020/04/20 12:20:02 </title>
  <desc>Picture generated by PCBNEW </desc>
<g style="fill:#000000; fill-opacity:1;stroke:#000000; stroke-opacity:1;
stroke-linecap:round; stroke-linejoin:round; "
 transform="translate(0 0) scale(1 1)">
</g>
<g style="fill:#000000; fill-opacity:0.0; 
stroke:#000000; stroke-width:-0.000393701; stroke-opacity:1; 
stroke-linecap:round; stroke-linejoin:round;">
</g>
<g style="fill:#008484; fill-opacity:0.0; 
stroke:#008484; stroke-width:-0.000393701; stroke-opacity:1; 
stroke-linecap:round; stroke-linejoin:round;">
</g>
<g style="fill:#008484; fill-opacity:0.0; 
stroke:#008484; stroke-width:39.3701; stroke-opacity:1; 
stroke-linecap:round; stroke-linejoin:round;">
<circle cx="41381.9" cy="21763.8" r="3346.46" /> 
<circle cx="54122" cy="25933.1" r="3346.46" /> 
</g>
<g style="fill:#008484; fill-opacity:0.0; 
stroke:#008484; stroke-width:47.2441; stroke-opacity:1; 
stroke-linecap:round; stroke-linejoin:round;">
<path d="M43210 75189
L42937 75170
" />
<path d="M43229 74920
L43210 75189
" />
<path d="M42736 74615
L42702 74613
" />
<path d="M43248 74651
L43214 74649
" />
<path d="M42702 74613
L42726 74269
" />
<path d="M43248 74651
L43272 74307
" />
<path d="M42844 74278
L42726 74269
" />
<path d="M43272 74307
L43154 74299
" />
</g>
<g style="fill:#008484; fill-opacity:0.0; 
stroke:#008484; stroke-width:3.93701; stroke-opacity:1; 
stroke-linecap:round; stroke-linejoin:round;">
<path d="M44601 77945
L45447 77975
" />
<path d="M44487 80659
L45352 80690
" />
<path d="M44752 80964
L44880 77285
" />
</g>
<g style="fill:#008484; fill-opacity:0.0; 
stroke:#008484; stroke-width:47.2441; stroke-opacity:1; 
stroke-linecap:round; stroke-linejoin:round;">
<path d="M42702 77623
L43973 77667
" />
<path d="M44322 78156
L44307 78581
" />
<path d="M44250 80119
L44235 80544
" />
<path d="M42589 80849
L43860 80894
" />
<path d="M44307 78581
L44476 78587
" />
</g>
<g style="fill:#008484; fill-opacity:0.0; 
stroke:#008484; stroke-width:39.3701; stroke-opacity:1; 
stroke-linecap:round; stroke-linejoin:round;">
<circle cx="40752" cy="48322.8" r="3346.46" /> 
<circle cx="38492.1" cy="41437" r="3346.46" /> 
<circle cx="37547.2" cy="34527.6" r="3346.46" /> 
<circle cx="38267.7" cy="27799.2" r="3346.46" /> 
<circle cx="45078.7" cy="27815" r="3346.46" /> 
<circle cx="44409.4" cy="34677.2" r="3346.46" /> 
<circle cx="47385.8" cy="41039.4" r="3346.46" /> 
<circle cx="48374" cy="21901.6" r="3346.46" /> 
<circle cx="50531.5" cy="31787.4" r="3346.46" /> 
<circle cx="58744.1" cy="31216.5" r="3346.46" /> 
<circle cx="54177.2" cy="37488.2" r="3346.46" /> 
<circle cx="62539.4" cy="37488.2" r="3346.46" /> 
<circle cx="48673.2" cy="48259.8" r="3346.46" /> 
<circle cx="56279.5" cy="43878" r="3346.46" /> 
<circle cx="63208.7" cy="44500" r="3346.46" /> 
<circle cx="62897.6" cy="51803.1" r="3346.46" /> 
<circle cx="55622" cy="50622" r="3346.46" /> 
<circle cx="54748" cy="57496.1" r="3346.46" /> 
<circle cx="61346.5" cy="58948.8" r="3346.46" /> 
<circle cx="59035.4" cy="66425.2" r="3346.46" /> 
<circle cx="58074.8" cy="74137.8" r="3346.46" /> 
<circle cx="57503.9" cy="81507.9" r="3346.46" /> 
<circle cx="44315" cy="88161.4" r="3346.46" /> 
<circle cx="43291.3" cy="94862.2" r="3346.46" /> 
<circle cx="46712.6" cy="100709" r="3346.46" /> 
<circle cx="53803.1" cy="100760" r="3346.46" /> 
<circle cx="57578.7" cy="95149.6" r="3346.46" /> 
<circle cx="50527.6" cy="93799.2" r="3346.46" /> 
<circle cx="57354.3" cy="88346.5" r="3346.46" /> 
<circle cx="50834.6" cy="86500" r="3346.46" /> 
</g>
<g style="fill:#008484; fill-opacity:0.0; 
stroke:#008484; stroke-width:59.0551; stroke-opacity:1; 
stroke-linecap:round; stroke-linejoin:round;">
<path d="M41278 25584
L41335 25603
L41428 25603
L41466 25584
L41485 25565
L41503 25528
L41503 25490
L41485 25453
L41466 25434
L41428 25415
L41353 25397
L41316 25378
L41297 25359
L41278 25322
L41278 25284
L41297 25247
L41316 25228
L41353 25209
L41447 25209
L41503 25228
" />
<path d="M41841 25340
L41841 25603
" />
<path d="M41747 25190
L41653 25472
L41897 25472
" />
<path d="M54018 29753
L54075 29772
L54168 29772
L54206 29753
L54225 29735
L54243 29697
L54243 29660
L54225 29622
L54206 29603
L54168 29585
L54093 29566
L54056 29547
L54037 29528
L54018 29491
L54018 29453
L54037 29416
L54056 29397
L54093 29378
L54187 29378
L54243 29397
" />
<path d="M54431 29772
L54506 29772
L54543 29753
L54562 29735
L54600 29678
L54618 29603
L54618 29453
L54600 29416
L54581 29397
L54543 29378
L54468 29378
L54431 29397
L54412 29416
L54393 29453
L54393 29547
L54412 29585
L54431 29603
L54468 29622
L54543 29622
L54581 29603
L54600 29585
L54618 29547
" />
<path d="M42797 75290
L42778 75570
L42755 75625
L42715 75660
L42658 75674
L42620 75672
" />
<path d="M42963 75339
L42983 75321
L43022 75305
L43115 75312
L43152 75333
L43169 75353
L43185 75392
L43182 75429
L43160 75484
L42920 75693
L43163 75710
" />
<path d="M46518 79503
L46799 79512
L46854 79533
L46890 79572
L46907 79629
L46906 79666
" />
<path d="M46925 79123
L46917 79348
" />
<path d="M46921 79235
L46527 79221
L46582 79261
L46618 79300
L46636 79338
" />
<path d="M40648 52143
L40705 52162
L40798 52162
L40836 52143
L40855 52124
L40873 52087
L40873 52049
L40855 52012
L40836 51993
L40798 51974
L40723 51956
L40686 51937
L40667 51918
L40648 51881
L40648 51843
L40667 51806
L40686 51787
L40723 51768
L40817 51768
L40873 51787
" />
<path d="M41117 51768
L41155 51768
L41192 51787
L41211 51806
L41230 51843
L41248 51918
L41248 52012
L41230 52087
L41211 52124
L41192 52143
L41155 52162
L41117 52162
L41080 52143
L41061 52124
L41042 52087
L41023 52012
L41023 51918
L41042 51843
L41061 51806
L41080 51787
L41117 51768
" />
<path d="M38389 45257
L38445 45276
L38538 45276
L38576 45257
L38595 45239
L38613 45201
L38613 45164
L38595 45126
L38576 45107
L38538 45089
L38464 45070
L38426 45051
L38407 45032
L38389 44995
L38389 44957
L38407 44920
L38426 44901
L38464 44882
L38557 44882
L38613 44901
" />
<path d="M38988 45276
L38763 45276
" />
<path d="M38876 45276
L38876 44882
L38838 44939
L38801 44976
L38763 44995
" />
<path d="M37444 38348
L37500 38367
L37594 38367
L37631 38348
L37650 38329
L37669 38292
L37669 38254
L37650 38217
L37631 38198
L37594 38179
L37519 38160
L37481 38142
L37462 38123
L37444 38085
L37444 38048
L37462 38010
L37481 37992
L37519 37973
L37612 37973
L37669 37992
" />
<path d="M37819 38010
L37837 37992
L37875 37973
L37969 37973
L38006 37992
L38025 38010
L38044 38048
L38044 38085
L38025 38142
L37800 38367
L38044 38367
" />
<path d="M37944 30990
L38000 31008
L38094 31008
L38131 30990
L38150 30971
L38169 30933
L38169 30896
L38150 30858
L38131 30840
L38094 30821
L38019 30802
L37981 30783
L37962 30765
L37944 30727
L37944 30690
L37962 30652
L37981 30633
L38019 30615
L38112 30615
L38169 30633
" />
<path d="M38300 30615
L38544 30615
L38412 30765
L38469 30765
L38506 30783
L38525 30802
L38544 30840
L38544 30933
L38525 30971
L38506 30990
L38469 31008
L38356 31008
L38319 30990
L38300 30971
" />
<path d="M44711 31029
L44768 31048
L44861 31048
L44899 31029
L44918 31010
L44936 30973
L44936 30935
L44918 30898
L44899 30879
L44861 30860
L44786 30841
L44749 30823
L44730 30804
L44711 30766
L44711 30729
L44730 30691
L44749 30673
L44786 30654
L44880 30654
L44936 30673
" />
<path d="M45293 30654
L45105 30654
L45086 30841
L45105 30823
L45143 30804
L45236 30804
L45274 30823
L45293 30841
L45311 30879
L45311 30973
L45293 31010
L45274 31029
L45236 31048
L45143 31048
L45105 31029
L45086 31010
" />
<path d="M44306 38497
L44362 38516
L44456 38516
L44493 38497
L44512 38479
L44531 38441
L44531 38404
L44512 38366
L44493 38347
L44456 38329
L44381 38310
L44343 38291
L44325 38272
L44306 38235
L44306 38197
L44325 38160
L44343 38141
L44381 38122
L44475 38122
L44531 38141
" />
<path d="M44868 38122
L44793 38122
L44756 38141
L44737 38160
L44700 38216
L44681 38291
L44681 38441
L44700 38479
L44718 38497
L44756 38516
L44831 38516
L44868 38497
L44887 38479
L44906 38441
L44906 38347
L44887 38310
L44868 38291
L44831 38272
L44756 38272
L44718 38291
L44700 38310
L44681 38347
" />
<path d="M47282 44860
L47338 44878
L47432 44878
L47470 44860
L47488 44841
L47507 44803
L47507 44766
L47488 44728
L47470 44710
L47432 44691
L47357 44672
L47320 44653
L47301 44635
L47282 44597
L47282 44560
L47301 44522
L47320 44503
L47357 44485
L47451 44485
L47507 44503
" />
<path d="M47638 44485
L47901 44485
L47732 44878
" />
<path d="M48270 25722
L48327 25741
L48420 25741
L48458 25722
L48477 25703
L48495 25666
L48495 25628
L48477 25591
L48458 25572
L48420 25553
L48345 25534
L48308 25516
L48289 25497
L48270 25459
L48270 25422
L48289 25384
L48308 25366
L48345 25347
L48439 25347
L48495 25366
" />
<path d="M48720 25516
L48683 25497
L48664 25478
L48645 25441
L48645 25422
L48664 25384
L48683 25366
L48720 25347
L48795 25347
L48833 25366
L48852 25384
L48870 25422
L48870 25441
L48852 25478
L48833 25497
L48795 25516
L48720 25516
L48683 25534
L48664 25553
L48645 25591
L48645 25666
L48664 25703
L48683 25722
L48720 25741
L48795 25741
L48833 25722
L48852 25703
L48870 25666
L48870 25591
L48852 25553
L48833 25534
L48795 25516
" />
<path d="M50240 35608
L50297 35626
L50390 35626
L50428 35608
L50447 35589
L50465 35551
L50465 35514
L50447 35476
L50428 35458
L50390 35439
L50315 35420
L50278 35401
L50259 35383
L50240 35345
L50240 35308
L50259 35270
L50278 35251
L50315 35233
L50409 35233
L50465 35251
" />
<path d="M50840 35626
L50615 35626
" />
<path d="M50728 35626
L50728 35233
L50690 35289
L50653 35326
L50615 35345
" />
<path d="M51084 35233
L51122 35233
L51159 35251
L51178 35270
L51197 35308
L51215 35383
L51215 35476
L51197 35551
L51178 35589
L51159 35608
L51122 35626
L51084 35626
L51047 35608
L51028 35589
L51009 35551
L50990 35476
L50990 35383
L51009 35308
L51028 35270
L51047 35251
L51084 35233
" />
<path d="M58453 35037
L58509 35056
L58603 35056
L58640 35037
L58659 35018
L58678 34981
L58678 34943
L58659 34906
L58640 34887
L58603 34868
L58528 34849
L58491 34831
L58472 34812
L58453 34774
L58453 34737
L58472 34699
L58491 34681
L58528 34662
L58622 34662
L58678 34681
" />
<path d="M59053 35056
L58828 35056
" />
<path d="M58940 35056
L58940 34662
L58903 34718
L58865 34756
L58828 34774
" />
<path d="M59428 35056
L59203 35056
" />
<path d="M59315 35056
L59315 34662
L59278 34718
L59240 34756
L59203 34774
" />
<path d="M53886 41308
L53942 41327
L54036 41327
L54074 41308
L54092 41290
L54111 41252
L54111 41215
L54092 41177
L54074 41158
L54036 41140
L53961 41121
L53924 41102
L53905 41083
L53886 41046
L53886 41008
L53905 40971
L53924 40952
L53961 40934
L54055 40934
L54111 40952
" />
<path d="M54486 41327
L54261 41327
" />
<path d="M54374 41327
L54374 40934
L54336 40990
L54299 41027
L54261 41046
" />
<path d="M54636 40971
L54655 40952
L54692 40934
L54786 40934
L54823 40952
L54842 40971
L54861 41008
L54861 41046
L54842 41102
L54617 41327
L54861 41327
" />
<path d="M62248 41308
L62305 41327
L62398 41327
L62436 41308
L62455 41290
L62473 41252
L62473 41215
L62455 41177
L62436 41158
L62398 41140
L62323 41121
L62286 41102
L62267 41083
L62248 41046
L62248 41008
L62267 40971
L62286 40952
L62323 40934
L62417 40934
L62473 40952
" />
<path d="M62848 41327
L62623 41327
" />
<path d="M62736 41327
L62736 40934
L62698 40990
L62661 41027
L62623 41046
" />
<path d="M62979 40934
L63223 40934
L63092 41083
L63148 41083
L63186 41102
L63204 41121
L63223 41158
L63223 41252
L63204 41290
L63186 41308
L63148 41327
L63036 41327
L62998 41308
L62979 41290
" />
<path d="M48382 52080
L48438 52099
L48532 52099
L48570 52080
L48588 52061
L48607 52024
L48607 51986
L48588 51949
L48570 51930
L48532 51911
L48457 51893
L48420 51874
L48401 51855
L48382 51818
L48382 51780
L48401 51743
L48420 51724
L48457 51705
L48551 51705
L48607 51724
" />
<path d="M48982 52099
L48757 52099
" />
<path d="M48870 52099
L48870 51705
L48832 51761
L48795 51799
L48757 51818
" />
<path d="M49320 51836
L49320 52099
" />
<path d="M49226 51686
L49132 51968
L49376 51968
" />
<path d="M55776 47064
L55832 47083
L55926 47083
L55963 47064
L55982 47046
L56001 47008
L56001 46971
L55982 46933
L55963 46914
L55926 46896
L55851 46877
L55813 46858
L55795 46839
L55776 46802
L55776 46764
L55795 46727
L55813 46708
L55851 46689
L55945 46689
L56001 46708
" />
<path d="M56376 47083
L56151 47083
" />
<path d="M56263 47083
L56263 46689
L56226 46746
L56188 46783
L56151 46802
" />
<path d="M56732 46689
L56544 46689
L56526 46877
L56544 46858
L56582 46839
L56676 46839
L56713 46858
L56732 46877
L56751 46914
L56751 47008
L56732 47046
L56713 47064
L56676 47083
L56582 47083
L56544 47064
L56526 47046
" />
<path d="M62918 48320
L62974 48339
L63068 48339
L63105 48320
L63124 48302
L63143 48264
L63143 48227
L63124 48189
L63105 48170
L63068 48152
L62993 48133
L62955 48114
L62936 48095
L62918 48058
L62918 48020
L62936 47983
L62955 47964
L62993 47945
L63086 47945
L63143 47964
" />
<path d="M63517 48339
L63293 48339
" />
<path d="M63405 48339
L63405 47945
L63368 48002
L63330 48039
L63293 48058
" />
<path d="M63855 47945
L63780 47945
L63742 47964
L63724 47983
L63686 48039
L63667 48114
L63667 48264
L63686 48302
L63705 48320
L63742 48339
L63817 48339
L63855 48320
L63874 48302
L63892 48264
L63892 48170
L63874 48133
L63855 48114
L63817 48095
L63742 48095
L63705 48114
L63686 48133
L63667 48170
" />
<path d="M62607 55623
L62663 55642
L62757 55642
L62794 55623
L62813 55605
L62832 55567
L62832 55530
L62813 55492
L62794 55473
L62757 55455
L62682 55436
L62644 55417
L62625 55398
L62607 55361
L62607 55323
L62625 55286
L62644 55267
L62682 55248
L62775 55248
L62832 55267
" />
<path d="M63206 55642
L62982 55642
" />
<path d="M63094 55642
L63094 55248
L63056 55305
L63019 55342
L62982 55361
" />
<path d="M63338 55248
L63600 55248
L63431 55642
" />
<path d="M55331 54442
L55387 54461
L55481 54461
L55518 54442
L55537 54424
L55556 54386
L55556 54349
L55537 54311
L55518 54292
L55481 54274
L55406 54255
L55368 54236
L55350 54217
L55331 54180
L55331 54142
L55350 54105
L55368 54086
L55406 54067
L55500 54067
L55556 54086
" />
<path d="M55931 54461
L55706 54461
" />
<path d="M55818 54461
L55818 54067
L55781 54124
L55743 54161
L55706 54180
" />
<path d="M56156 54236
L56118 54217
L56100 54199
L56081 54161
L56081 54142
L56100 54105
L56118 54086
L56156 54067
L56231 54067
L56268 54086
L56287 54105
L56306 54142
L56306 54161
L56287 54199
L56268 54217
L56231 54236
L56156 54236
L56118 54255
L56100 54274
L56081 54311
L56081 54386
L56100 54424
L56118 54442
L56156 54461
L56231 54461
L56268 54442
L56287 54424
L56306 54386
L56306 54311
L56287 54274
L56268 54255
L56231 54236
" />
<path d="M54457 61316
L54513 61335
L54607 61335
L54644 61316
L54663 61298
L54682 61260
L54682 61223
L54663 61185
L54644 61166
L54607 61148
L54532 61129
L54494 61110
L54476 61091
L54457 61054
L54457 61016
L54476 60979
L54494 60960
L54532 60941
L54626 60941
L54682 60960
" />
<path d="M55057 61335
L54832 61335
" />
<path d="M54944 61335
L54944 60941
L54907 60998
L54869 61035
L54832 61054
" />
<path d="M55244 61335
L55319 61335
L55357 61316
L55376 61298
L55413 61241
L55432 61166
L55432 61016
L55413 60979
L55394 60960
L55357 60941
L55282 60941
L55244 60960
L55226 60979
L55207 61016
L55207 61110
L55226 61148
L55244 61166
L55282 61185
L55357 61185
L55394 61166
L55413 61148
L55432 61110
" />
<path d="M61055 62769
L61112 62788
L61205 62788
L61243 62769
L61262 62750
L61280 62713
L61280 62675
L61262 62638
L61243 62619
L61205 62600
L61130 62582
L61093 62563
L61074 62544
L61055 62507
L61055 62469
L61074 62432
L61093 62413
L61130 62394
L61224 62394
L61280 62413
" />
<path d="M61430 62432
L61449 62413
L61487 62394
L61580 62394
L61618 62413
L61637 62432
L61655 62469
L61655 62507
L61637 62563
L61412 62788
L61655 62788
" />
<path d="M61899 62394
L61937 62394
L61974 62413
L61993 62432
L62011 62469
L62030 62544
L62030 62638
L62011 62713
L61993 62750
L61974 62769
L61937 62788
L61899 62788
L61862 62769
L61843 62750
L61824 62713
L61805 62638
L61805 62544
L61824 62469
L61843 62432
L61862 62413
L61899 62394
" />
<path d="M58744 70245
L58801 70264
L58894 70264
L58932 70245
L58951 70227
L58969 70189
L58969 70152
L58951 70114
L58932 70095
L58894 70077
L58819 70058
L58782 70039
L58763 70020
L58744 69983
L58744 69946
L58763 69908
L58782 69889
L58819 69871
L58913 69871
L58969 69889
" />
<path d="M59119 69908
L59138 69889
L59176 69871
L59269 69871
L59307 69889
L59326 69908
L59344 69946
L59344 69983
L59326 70039
L59101 70264
L59344 70264
" />
<path d="M59719 70264
L59494 70264
" />
<path d="M59607 70264
L59607 69871
L59569 69927
L59532 69964
L59494 69983
" />
<path d="M57784 77958
L57840 77977
L57934 77977
L57971 77958
L57990 77939
L58009 77902
L58009 77864
L57990 77827
L57971 77808
L57934 77789
L57859 77771
L57821 77752
L57802 77733
L57784 77696
L57784 77658
L57802 77621
L57821 77602
L57859 77583
L57952 77583
L58009 77602
" />
<path d="M58159 77621
L58177 77602
L58215 77583
L58309 77583
L58346 77602
L58365 77621
L58384 77658
L58384 77696
L58365 77752
L58140 77977
L58384 77977
" />
<path d="M58534 77621
L58552 77602
L58590 77583
L58684 77583
L58721 77602
L58740 77621
L58759 77658
L58759 77696
L58740 77752
L58515 77977
L58759 77977
" />
<path d="M56961 84714
L57017 84733
L57111 84733
L57148 84714
L57167 84695
L57186 84658
L57186 84620
L57167 84583
L57148 84564
L57111 84545
L57036 84526
L56998 84508
L56980 84489
L56961 84452
L56961 84414
L56980 84377
L56998 84358
L57036 84339
L57130 84339
L57186 84358
" />
<path d="M57336 84377
L57355 84358
L57392 84339
L57486 84339
L57523 84358
L57542 84377
L57561 84414
L57561 84452
L57542 84508
L57317 84733
L57561 84733
" />
<path d="M57692 84339
L57936 84339
L57805 84489
L57861 84489
L57898 84508
L57917 84526
L57936 84564
L57936 84658
L57917 84695
L57898 84714
L57861 84733
L57748 84733
L57711 84714
L57692 84695
" />
<path d="M43677 91360
L43734 91378
L43827 91378
L43865 91360
L43884 91341
L43902 91303
L43902 91266
L43884 91228
L43865 91210
L43827 91191
L43752 91172
L43715 91153
L43696 91135
L43677 91097
L43677 91060
L43696 91022
L43715 91003
L43752 90985
L43846 90985
L43902 91003
" />
<path d="M44052 91022
L44071 91003
L44109 90985
L44202 90985
L44240 91003
L44259 91022
L44277 91060
L44277 91097
L44259 91153
L44034 91378
L44277 91378
" />
<path d="M44615 91116
L44615 91378
" />
<path d="M44521 90966
L44427 91247
L44671 91247
" />
<path d="M43000 98682
L43056 98701
L43150 98701
L43188 98682
L43206 98664
L43225 98626
L43225 98589
L43206 98551
L43188 98532
L43150 98514
L43075 98495
L43038 98476
L43019 98458
L43000 98420
L43000 98383
L43019 98345
L43038 98326
L43075 98308
L43169 98308
L43225 98326
" />
<path d="M43375 98345
L43394 98326
L43431 98308
L43525 98308
L43563 98326
L43581 98345
L43600 98383
L43600 98420
L43581 98476
L43356 98701
L43600 98701
" />
<path d="M43956 98308
L43769 98308
L43750 98495
L43769 98476
L43806 98458
L43900 98458
L43938 98476
L43956 98495
L43975 98532
L43975 98626
L43956 98664
L43938 98682
L43900 98701
L43806 98701
L43769 98682
L43750 98664
" />
<path d="M47260 104517
L47316 104536
L47410 104536
L47448 104517
L47466 104498
L47485 104461
L47485 104423
L47466 104386
L47448 104367
L47410 104348
L47335 104330
L47298 104311
L47279 104292
L47260 104255
L47260 104217
L47279 104180
L47298 104161
L47335 104142
L47429 104142
L47485 104161
" />
<path d="M47635 104180
L47654 104161
L47691 104142
L47785 104142
L47823 104161
L47841 104180
L47860 104217
L47860 104255
L47841 104311
L47616 104536
L47860 104536
" />
<path d="M48197 104142
L48122 104142
L48085 104161
L48066 104180
L48029 104236
L48010 104311
L48010 104461
L48029 104498
L48047 104517
L48085 104536
L48160 104536
L48197 104517
L48216 104498
L48235 104461
L48235 104367
L48216 104330
L48197 104311
L48160 104292
L48085 104292
L48047 104311
L48029 104330
L48010 104367
" />
<path d="M52189 104600
L52245 104619
L52339 104619
L52377 104600
L52395 104581
L52414 104544
L52414 104506
L52395 104469
L52377 104450
L52339 104431
L52264 104412
L52227 104394
L52208 104375
L52189 104337
L52189 104300
L52208 104262
L52227 104244
L52264 104225
L52358 104225
L52414 104244
" />
<path d="M52564 104262
L52583 104244
L52620 104225
L52714 104225
L52752 104244
L52770 104262
L52789 104300
L52789 104337
L52770 104394
L52545 104619
L52789 104619
" />
<path d="M52920 104225
L53183 104225
L53014 104619
" />
<path d="M57288 98970
L57344 98989
L57438 98989
L57475 98970
L57494 98951
L57513 98914
L57513 98876
L57494 98839
L57475 98820
L57438 98801
L57363 98782
L57325 98764
L57306 98745
L57288 98707
L57288 98670
L57306 98632
L57325 98614
L57363 98595
L57456 98595
L57513 98614
" />
<path d="M57663 98632
L57681 98614
L57719 98595
L57813 98595
L57850 98614
L57869 98632
L57888 98670
L57888 98707
L57869 98764
L57644 98989
L57888 98989
" />
<path d="M58113 98764
L58075 98745
L58056 98726
L58038 98689
L58038 98670
L58056 98632
L58075 98614
L58113 98595
L58188 98595
L58225 98614
L58244 98632
L58263 98670
L58263 98689
L58244 98726
L58225 98745
L58188 98764
L58113 98764
L58075 98782
L58056 98801
L58038 98839
L58038 98914
L58056 98951
L58075 98970
L58113 98989
L58188 98989
L58225 98970
L58244 98951
L58263 98914
L58263 98839
L58244 98801
L58225 98782
L58188 98764
" />
<path d="M50236 97619
L50293 97638
L50386 97638
L50424 97619
L50443 97601
L50461 97563
L50461 97526
L50443 97488
L50424 97470
L50386 97451
L50311 97432
L50274 97413
L50255 97395
L50236 97357
L50236 97320
L50255 97282
L50274 97263
L50311 97245
L50405 97245
L50461 97263
" />
<path d="M50611 97282
L50630 97263
L50668 97245
L50761 97245
L50799 97263
L50818 97282
L50836 97320
L50836 97357
L50818 97413
L50593 97638
L50836 97638
" />
<path d="M51024 97638
L51099 97638
L51136 97619
L51155 97601
L51193 97544
L51211 97470
L51211 97320
L51193 97282
L51174 97263
L51136 97245
L51061 97245
L51024 97263
L51005 97282
L50986 97320
L50986 97413
L51005 97451
L51024 97470
L51061 97488
L51136 97488
L51174 97470
L51193 97451
L51211 97413
" />
<path d="M56969 91572
L57025 91591
L57119 91591
L57156 91572
L57175 91553
L57194 91516
L57194 91479
L57175 91441
L57156 91422
L57119 91404
L57044 91385
L57006 91366
L56988 91347
L56969 91310
L56969 91272
L56988 91235
L57006 91216
L57044 91197
L57137 91197
L57194 91216
" />
<path d="M57325 91197
L57569 91197
L57437 91347
L57494 91347
L57531 91366
L57550 91385
L57569 91422
L57569 91516
L57550 91553
L57531 91572
L57494 91591
L57381 91591
L57344 91572
L57325 91553
" />
<path d="M57812 91197
L57850 91197
L57887 91216
L57906 91235
L57925 91272
L57944 91347
L57944 91441
L57925 91516
L57906 91553
L57887 91572
L57850 91591
L57812 91591
L57775 91572
L57756 91553
L57737 91516
L57719 91441
L57719 91347
L57737 91272
L57756 91235
L57775 91216
L57812 91197
" />
<path d="M50343 89694
L50399 89713
L50493 89713
L50530 89694
L50549 89676
L50568 89638
L50568 89601
L50549 89563
L50530 89544
L50493 89526
L50418 89507
L50380 89488
L50362 89469
L50343 89432
L50343 89394
L50362 89357
L50380 89338
L50418 89319
L50511 89319
L50568 89338
" />
<path d="M50699 89319
L50943 89319
L50811 89469
L50868 89469
L50905 89488
L50924 89507
L50943 89544
L50943 89638
L50924 89676
L50905 89694
L50868 89713
L50755 89713
L50718 89694
L50699 89676
" />
<path d="M51318 89713
L51093 89713
" />
<path d="M51205 89713
L51205 89319
L51168 89376
L51130 89413
L51093 89432
" />
</g>
<g style="fill:#000000; fill-opacity:0.0; 
stroke:#000000; stroke-width:59.0551; stroke-opacity:1; 
stroke-linecap:round; stroke-linejoin:round;">
</g>
<g style="fill:#C2C200; fill-opacity:0.0; 
stroke:#C2C200; stroke-width:59.0551; stroke-opacity:1; 
stroke-linecap:round; stroke-linejoin:round;">
</g>
<g style="fill:#C2C200; fill-opacity:0.0; 
stroke:#C2C200; stroke-width:39.3701; stroke-opacity:1; 
stroke-linecap:round; stroke-linejoin:round;">
<path d="M40165 97842
L40977 99708
" />
<path d="M39988 91809
L39636 93831
" />
<path d="M45205 104001
L47100 104792
" />
<path d="M60857 90390
L60795 89036
" />
<path d="M47100 104792
L49097 105255
" />
<path d="M60970 91746
L60857 90390
" />
<path d="M42111 101397
L43531 102849
" />
<path d="M61803 76468
L62070 74231
" />
<path d="M61553 78708
L61803 76468
" />
<path d="M61324 80950
L61553 78708
" />
<path d="M60960 85441
L61125 83194
" />
<path d="M60795 89036
L60834 87690
" />
<path d="M53128 104949
L55034 104241
" />
<path d="M40977 99708
L42111 101397
" />
<path d="M39707 95863
L40165 97842
" />
<path d="M55034 104241
L56783 103202
" />
<path d="M60870 97109
L61082 95786
" />
<path d="M49097 105255
L51128 105298
" />
<path d="M56783 103202
L58310 101864
" />
<path d="M60445 98411
L60870 97109
" />
<path d="M59552 100257
L60445 98411
" />
<path d="M39636 93831
L39707 95863
" />
<path d="M60834 87690
L60960 85441
" />
<path d="M61135 94449
L61080 93101
" />
<path d="M58310 101864
L59552 100257
" />
<path d="M43531 102849
L45205 104001
" />
<path d="M61082 95786
L61135 94449
" />
<path d="M62348 71994
L62631 69760
" />
<path d="M62070 74231
L62348 71994
" />
<path d="M61125 83194
L61324 80950
" />
<path d="M61080 93101
L60970 91746
" />
<path d="M51128 105298
L53128 104949
" />
<path d="M42151 67897
L42319 70464
" />
<path d="M40623 89079
L40323 90448
" />
<path d="M40891 87704
L40623 89079
" />
<path d="M41782 65362
L42151 67897
" />
<path d="M40323 90448
L39988 91809
" />
<path d="M41342 84938
L41129 86323
" />
<path d="M41530 83549
L41342 84938
" />
<path d="M41170 62873
L41782 65362
" />
<path d="M41697 82158
L41530 83549
" />
<path d="M40270 60445
L41170 62873
" />
<path d="M41129 86323
L40891 87704
" />
<path d="M42319 70464
L42329 73049
" />
<path d="M42329 73049
L42225 75637
" />
<path d="M66731 41561
L66663 40157
" />
<path d="M63245 66400
L63680 64752
" />
<path d="M35957 22450
L35552 23607
" />
<path d="M66861 47215
L66819 45327
" />
<path d="M41721 18089
L40039 18380
" />
<path d="M63968 32296
L63144 31155
" />
<path d="M48590 18328
L46897 18025
" />
<path d="M65204 59863
L65705 58231
" />
<path d="M63680 64752
L64167 63117
" />
<path d="M66161 56588
L66497 54731
" />
<path d="M65705 58231
L66161 56588
" />
<path d="M62887 68067
L63245 66400
" />
<path d="M36475 21352
L35957 22450
" />
<path d="M34388 30729
L34199 33139
" />
<path d="M50230 18821
L48590 18328
" />
<path d="M51794 19520
L50230 18821
" />
<path d="M66830 50985
L66872 49102
" />
<path d="M54671 21602
L53260 20442
" />
<path d="M60886 28285
L59726 26869
" />
<path d="M66497 54731
L66712 52863
" />
<path d="M65802 36058
L65298 34755
" />
<path d="M33984 42811
L34011 45226
" />
<path d="M62023 29718
L60886 28285
" />
<path d="M53260 20442
L51794 19520
" />
<path d="M66712 52863
L66830 50985
" />
<path d="M66663 40157
L66485 38767
" />
<path d="M35005 25935
L34653 28327
" />
<path d="M66769 43441
L66731 41561
" />
<path d="M62631 69760
L62887 68067
" />
<path d="M58533 25482
L57299 24133
" />
<path d="M66485 38767
L66198 37397
" />
<path d="M39370 58590
L40270 60445
" />
<path d="M34786 49300
L35518 51223
" />
<path d="M64167 63117
L64684 61489
" />
<path d="M34264 47308
L34786 49300
" />
<path d="M64684 61489
L65204 59863
" />
<path d="M37124 20355
L36475 21352
" />
<path d="M43440 17922
L41721 18089
" />
<path d="M38887 18827
L37922 19499
" />
<path d="M66872 49102
L66861 47215
" />
<path d="M56015 22836
L54671 21602
" />
<path d="M66819 45327
L66769 43441
" />
<path d="M38386 56759
L39370 58590
" />
<path d="M37377 54933
L38386 56759
" />
<path d="M36401 53094
L37377 54933
" />
<path d="M35518 51223
L36401 53094
" />
<path d="M46897 18025
L45173 17895
" />
<path d="M35552 23607
L35241 24782
" />
<path d="M57299 24133
L56015 22836
" />
<path d="M37922 19499
L37124 20355
" />
<path d="M65298 34755
L64687 33499
" />
<path d="M34011 45226
L34264 47308
" />
<path d="M33979 40393
L33984 42811
" />
<path d="M34006 37973
L33979 40393
" />
<path d="M35241 24782
L35005 25935
" />
<path d="M66198 37397
L65802 36058
" />
<path d="M40039 18380
L38887 18827
" />
<path d="M45173 17895
L43440 17922
" />
<path d="M59726 26869
L58533 25482
" />
<path d="M64687 33499
L63968 32296
" />
<path d="M34075 35554
L34006 37973
" />
<path d="M34199 33139
L34075 35554
" />
<path d="M63144 31155
L62023 29718
" />
<path d="M34653 28327
L34388 30729
" />
<path d="M41895 81133
L41696 82161
" />
<path d="M44155 80673
L44253 77866
" />
<path d="M43979.5 80815 A158.646 158.646 0.0 0 0 44155.1 80672.7 " />
<path d="M42111 80748
L43981 80814
" />
<path d="M44253.5 77862.2 A121.062 121.062 0.0 0 0 44143.2 77748.9 " />
<path d="M42111.8 80748 A126.537 126.537 0.0 0 0 41973.8 80864.5 " />
<path d="M42111.8 77543.1 A126.537 126.537 0.0 0 0 42228.3 77681.1 " />
<path d="M41974 80866
L41895 81133
" />
<path d="M42229 77681
L44143 77748
" />
<path d="M42224 75637
L42111 77539
" />
</g> 
</svg>
