G04 #@! TF.GenerationSoftware,KiCad,Pcbnew,(5.0.0)*
G04 #@! TF.CreationDate,2020-01-29T13:40:05+01:00*
G04 #@! TF.ProjectId,Insole_PCB,496E736F6C655F5043422E6B69636164,rev?*
G04 #@! TF.SameCoordinates,Original*
G04 #@! TF.FileFunction,Glue,Top*
G04 #@! TF.FilePolarity,Positive*
%FSLAX46Y46*%
G04 Gerber Fmt 4.6, Leading zero omitted, Abs format (unit mm)*
G04 Created by KiCad (PCBNEW (5.0.0)) date 01/29/20 13:40:05*
%MOMM*%
%LPD*%
G01*
G04 APERTURE LIST*
%ADD10C,0.100000*%
G04 APERTURE END LIST*
D10*
X161355718Y-223413753D02*
X162218314Y-226974643D01*
X93588801Y-85032558D02*
X94632548Y-81532276D01*
X116645886Y-50341248D02*
X119952907Y-46934562D01*
X92354225Y-92243691D02*
X92828149Y-88609704D01*
X99426037Y-71692822D02*
X101565840Y-68700206D01*
X134999146Y-36154652D02*
X139335690Y-34791822D01*
X175813445Y-115860228D02*
X173901992Y-120952848D01*
X94632548Y-81532276D02*
X95955758Y-78128878D01*
X167584329Y-37764542D02*
X169676389Y-40004732D01*
X92170660Y-95914499D02*
X92354225Y-92243691D01*
X97554798Y-74842387D02*
X99426037Y-71692822D01*
X119952907Y-46934562D02*
X123406109Y-43679672D01*
X110386082Y-57501267D02*
X113463969Y-53872543D01*
X158781724Y-208994812D02*
X159309368Y-212620257D01*
X104458093Y-64942280D02*
X107391148Y-61200240D01*
X153000627Y-33621152D02*
X157566895Y-34056602D01*
X95955758Y-78128878D02*
X97554798Y-74842387D01*
X173798400Y-48524727D02*
X174614285Y-51604768D01*
X139335690Y-34791822D02*
X143822881Y-33944672D01*
X171377433Y-42616782D02*
X172735443Y-45492752D01*
X127026567Y-40603762D02*
X130875390Y-38077282D01*
X113463969Y-53872543D02*
X116645886Y-50341248D01*
X176152513Y-60882077D02*
X176845722Y-67165242D01*
X148398575Y-33569152D02*
X153000627Y-33621152D01*
X158318312Y-205360237D02*
X158781724Y-208994812D01*
X173901992Y-120952848D02*
X172689453Y-123560707D01*
X174614285Y-51604768D02*
X175231079Y-54624953D01*
X177845743Y-86112856D02*
X177915803Y-92442057D01*
X176845722Y-67165242D02*
X177339679Y-73468636D01*
X157999453Y-202550707D02*
X158318312Y-205360237D01*
X175231079Y-54624953D02*
X176152513Y-60882077D01*
X177915803Y-92442057D02*
X177902513Y-98768234D01*
X123406109Y-43679672D02*
X127026567Y-40603762D01*
X107391148Y-61200240D02*
X110386082Y-57501267D01*
X101565840Y-68700206D02*
X104458093Y-64942280D01*
X172735443Y-45492752D02*
X173798400Y-48524727D01*
X169676389Y-40004732D02*
X171377433Y-42616782D01*
X92828149Y-88609704D02*
X93588801Y-85032558D01*
X143822881Y-33944672D02*
X148398575Y-33569152D01*
X157566895Y-34056602D02*
X162035236Y-34831422D01*
X92069580Y-100722865D02*
X92170660Y-95914499D01*
X177663361Y-79786444D02*
X177845743Y-86112856D01*
X160588561Y-219832532D02*
X161355718Y-223413753D01*
X162035236Y-34831422D02*
X165053271Y-36004132D01*
X159909045Y-216233765D02*
X160588561Y-219832532D01*
X177339679Y-73468636D02*
X177663361Y-79786444D01*
X159309368Y-212620257D02*
X159909045Y-216233765D01*
X177176468Y-110587688D02*
X175813445Y-115860228D01*
X177834843Y-105085576D02*
X177176468Y-110587688D01*
X165053271Y-36004132D02*
X167584329Y-37764542D01*
X177902513Y-98768234D02*
X177834843Y-105085576D01*
X130875390Y-38077282D02*
X134999146Y-36154652D01*
X98716716Y-151690614D02*
X97359453Y-147370707D01*
X100003976Y-156027723D02*
X98716716Y-151690614D01*
X107659899Y-219671169D02*
X107543119Y-216208718D01*
X102100084Y-164820406D02*
X101154133Y-160398749D01*
X107234367Y-226634112D02*
X107513198Y-223149690D01*
X103513194Y-175155236D02*
X102774728Y-169309412D01*
X107513198Y-223149690D02*
X107659899Y-219671169D01*
X106954759Y-230114266D02*
X107234367Y-226634112D01*
X106918618Y-237021094D02*
X106805725Y-233579983D01*
X138273515Y-262131742D02*
X132902009Y-262225442D01*
X106751485Y-204449909D02*
X106216472Y-198580386D01*
X148515495Y-258845572D02*
X143560992Y-260910492D01*
X107198911Y-210325835D02*
X106751485Y-204449909D01*
X143560992Y-260910492D02*
X138273515Y-262131742D01*
X161720418Y-242752553D02*
X159587011Y-247628174D01*
X122588856Y-259364502D02*
X117988180Y-256576972D01*
X91939182Y-105543355D02*
X92069580Y-100722865D01*
X91832992Y-110369294D02*
X91939182Y-105543355D01*
X162218314Y-226974643D02*
X163124000Y-232264472D01*
X94703327Y-138715638D02*
X93538666Y-134347045D01*
X107543119Y-216208718D02*
X107198911Y-210325835D01*
X110751062Y-248705572D02*
X108455592Y-243788821D01*
X127616961Y-261275182D02*
X122588856Y-259364502D01*
X95999290Y-143051287D02*
X94703327Y-138715638D01*
X101154133Y-160398749D02*
X100003976Y-156027723D01*
X106216472Y-198580386D02*
X105609504Y-192716712D01*
X102774728Y-169309412D02*
X102100084Y-164820406D01*
X107424790Y-240427430D02*
X106918618Y-237021094D01*
X152896619Y-255836002D02*
X148515495Y-258845572D01*
X104946214Y-186858332D02*
X104242234Y-181004691D01*
X105609504Y-192716712D02*
X104946214Y-186858332D01*
X108455592Y-243788821D02*
X107424790Y-240427430D01*
X106805725Y-233579983D02*
X106954759Y-230114266D01*
X113985420Y-252996142D02*
X110751062Y-248705572D01*
X132902009Y-262225442D02*
X127616961Y-261275182D01*
X156616435Y-252043092D02*
X152896619Y-255836002D01*
X159587011Y-247628174D02*
X156616435Y-252043092D01*
X93538666Y-134347045D02*
X92720889Y-129594008D01*
X162928724Y-237577547D02*
X161720418Y-242752553D01*
X117988180Y-256576972D02*
X113985420Y-252996142D01*
X91907355Y-120010811D02*
X91804542Y-115194004D01*
X91804542Y-115194004D02*
X91832992Y-110369294D01*
X163124000Y-232264472D02*
X162928724Y-237577547D01*
X92194961Y-124813038D02*
X91907355Y-120010811D01*
X92720889Y-129594008D02*
X92194961Y-124813038D01*
X104242234Y-181004691D02*
X103513194Y-175155236D01*
X97359453Y-147370707D02*
X95999290Y-143051287D01*
X126128762Y-183186894D02*
G75*
G03X157999453Y-202550707I24863537J5012907D01*
G01*
X172680396Y-123562800D02*
G75*
G03X126119453Y-183190707I-5236800J-43903503D01*
G01*
G04 #@! TO.C,S9*
X133172155Y-54280707D02*
G75*
G03X133172155Y-54280707I-7402702J0D01*
G01*
G04 #@! TO.C,S0*
X166442155Y-112120707D02*
G75*
G03X166442155Y-112120707I-7402702J0D01*
G01*
G04 #@! TO.C,S1*
X172732155Y-95080707D02*
G75*
G03X172732155Y-95080707I-7402702J0D01*
G01*
G04 #@! TO.C,S2*
X175702155Y-76320707D02*
G75*
G03X175702155Y-76320707I-7402702J0D01*
G01*
G04 #@! TO.C,S3*
X174302155Y-58550707D02*
G75*
G03X174302155Y-58550707I-7402702J0D01*
G01*
G04 #@! TO.C,S4*
X166072155Y-43410707D02*
G75*
G03X166072155Y-43410707I-7402702J0D01*
G01*
G04 #@! TO.C,S5*
X156962155Y-58880707D02*
G75*
G03X156962155Y-58880707I-7402702J0D01*
G01*
G04 #@! TO.C,S6*
X158272155Y-78090707D02*
G75*
G03X158272155Y-78090707I-7402702J0D01*
G01*
G04 #@! TO.C,S7*
X150102155Y-94540707D02*
G75*
G03X150102155Y-94540707I-7402702J0D01*
G01*
G04 #@! TO.C,S8*
X148012155Y-44150707D02*
G75*
G03X148012155Y-44150707I-7402702J0D01*
G01*
G04 #@! TO.C,S10*
X142652155Y-69300707D02*
G75*
G03X142652155Y-69300707I-7402702J0D01*
G01*
G04 #@! TO.C,S11*
X120982155Y-68100707D02*
G75*
G03X120982155Y-68100707I-7402702J0D01*
G01*
G04 #@! TO.C,S12*
X132672155Y-83500707D02*
G75*
G03X132672155Y-83500707I-7402702J0D01*
G01*
G04 #@! TO.C,S13*
X110822155Y-84950707D02*
G75*
G03X110822155Y-84950707I-7402702J0D01*
G01*
G04 #@! TO.C,S14*
X145922155Y-112210707D02*
G75*
G03X145922155Y-112210707I-7402702J0D01*
G01*
G04 #@! TO.C,S15*
X127362155Y-100380707D02*
G75*
G03X127362155Y-100380707I-7402702J0D01*
G01*
G04 #@! TO.C,S16*
X109042155Y-103580707D02*
G75*
G03X109042155Y-103580707I-7402702J0D01*
G01*
G04 #@! TO.C,S17*
X109852155Y-122660707D02*
G75*
G03X109852155Y-122660707I-7402702J0D01*
G01*
G04 #@! TO.C,S18*
X127982155Y-119100707D02*
G75*
G03X127982155Y-119100707I-7402702J0D01*
G01*
G04 #@! TO.C,S19*
X130182155Y-137300707D02*
G75*
G03X130182155Y-137300707I-7402702J0D01*
G01*
G04 #@! TO.C,S20*
X112882155Y-141780707D02*
G75*
G03X112882155Y-141780707I-7402702J0D01*
G01*
G04 #@! TO.C,S21*
X118592155Y-160630707D02*
G75*
G03X118592155Y-160630707I-7402702J0D01*
G01*
G04 #@! TO.C,S22*
X121762155Y-180090707D02*
G75*
G03X121762155Y-180090707I-7402702J0D01*
G01*
G04 #@! TO.C,S23*
X122812155Y-199110707D02*
G75*
G03X122812155Y-199110707I-7402702J0D01*
G01*
G04 #@! TO.C,S24*
X158172155Y-218080707D02*
G75*
G03X158172155Y-218080707I-7402702J0D01*
G01*
G04 #@! TO.C,S25*
X160572155Y-235610707D02*
G75*
G03X160572155Y-235610707I-7402702J0D01*
G01*
G04 #@! TO.C,S26*
X150582155Y-251440707D02*
G75*
G03X150582155Y-251440707I-7402702J0D01*
G01*
G04 #@! TO.C,S27*
X133162155Y-250750707D02*
G75*
G03X133162155Y-250750707I-7402702J0D01*
G01*
G04 #@! TO.C,S28*
X123572155Y-235680707D02*
G75*
G03X123572155Y-235680707I-7402702J0D01*
G01*
G04 #@! TO.C,S29*
X142282155Y-234200707D02*
G75*
G03X142282155Y-234200707I-7402702J0D01*
G01*
G04 #@! TO.C,S30*
X124042155Y-217840707D02*
G75*
G03X124042155Y-217840707I-7402702J0D01*
G01*
G04 #@! TO.C,S31*
X141162155Y-213060707D02*
G75*
G03X141162155Y-213060707I-7402702J0D01*
G01*
G04 #@! TD*
M02*
