G04 #@! TF.GenerationSoftware,KiCad,Pcbnew,(5.0.0)*
G04 #@! TF.CreationDate,2020-01-29T13:40:05+01:00*
G04 #@! TF.ProjectId,Insole_PCB,496E736F6C655F5043422E6B69636164,rev?*
G04 #@! TF.SameCoordinates,Original*
G04 #@! TF.FileFunction,Profile,NP*
%FSLAX46Y46*%
G04 Gerber Fmt 4.6, Leading zero omitted, Abs format (unit mm)*
G04 Created by KiCad (PCBNEW (5.0.0)) date 01/29/20 13:40:05*
%MOMM*%
%LPD*%
G01*
G04 APERTURE LIST*
%ADD10C,0.100000*%
G04 APERTURE END LIST*
D10*
X157409453Y-198080707D02*
X157911277Y-201713331D01*
X159908994Y-216227760D02*
X160588510Y-219826527D01*
X158318261Y-205354232D02*
X158781673Y-208988807D01*
X166439167Y-135641675D02*
X163896161Y-140511110D01*
X156901228Y-164777847D02*
X156473684Y-171419579D01*
X156473684Y-171419579D02*
X156433104Y-178103725D01*
X157823750Y-158212702D02*
X156901228Y-164777847D01*
X158781673Y-208988807D02*
X159309317Y-212614252D01*
X159309317Y-212614252D02*
X159908994Y-216227760D01*
X156433104Y-178103725D02*
X156669453Y-184800707D01*
X160588510Y-219826527D02*
X161355667Y-223407748D01*
X161355667Y-223407748D02*
X162218263Y-226968638D01*
X161585810Y-145448873D02*
X159349271Y-151758320D01*
X157911277Y-201713331D02*
X158318261Y-205354232D01*
X163896161Y-140511110D02*
X161585810Y-145448873D01*
X159349271Y-151758320D02*
X157823750Y-158212702D01*
X91804491Y-115187999D02*
X91832941Y-110363289D01*
X165053220Y-35998127D02*
X167584278Y-37758537D01*
X171377382Y-42610777D02*
X172735392Y-45486747D01*
X93538615Y-134341040D02*
X92720838Y-129588003D01*
X177902462Y-98762229D02*
X177834792Y-105079571D01*
X157566844Y-34050597D02*
X162035185Y-34825417D01*
X110386031Y-57495262D02*
X113463918Y-53866538D01*
X104458042Y-64936275D02*
X107391097Y-61194235D01*
X102774677Y-169303407D02*
X102100033Y-164814401D01*
X176152462Y-60876072D02*
X176845671Y-67159237D01*
X172735392Y-45486747D02*
X173798349Y-48518722D01*
X92354174Y-92237686D02*
X92828098Y-88603699D01*
X177339628Y-73462631D02*
X177663310Y-79780439D01*
X173798349Y-48518722D02*
X174614234Y-51598763D01*
X169676338Y-39998727D02*
X171377382Y-42610777D01*
X94632497Y-81526271D02*
X95955707Y-78122873D01*
X91832941Y-110363289D02*
X91939131Y-105537350D01*
X143822830Y-33938667D02*
X148398524Y-33563147D01*
X119952856Y-46928557D02*
X123406058Y-43673667D01*
X103513143Y-175149231D02*
X102774677Y-169303407D01*
X139335639Y-34785817D02*
X143822830Y-33938667D01*
X107391097Y-61194235D02*
X110386031Y-57495262D01*
X174614234Y-51598763D02*
X175231028Y-54618948D01*
X130875339Y-38071277D02*
X134999095Y-36148647D01*
X94703276Y-138709633D02*
X93538615Y-134341040D01*
X101154082Y-160392744D02*
X100003925Y-156021718D01*
X99425986Y-71686817D02*
X101565789Y-68694201D01*
X97554747Y-74836382D02*
X99425986Y-71686817D01*
X91939131Y-105537350D02*
X92069529Y-100716860D01*
X102100033Y-164814401D02*
X101154082Y-160392744D01*
X104242183Y-180998686D02*
X103513143Y-175149231D01*
X177845692Y-86106851D02*
X177915752Y-92436052D01*
X169058610Y-130790919D02*
X166439167Y-135641675D01*
X173901941Y-120946843D02*
X171598274Y-125909192D01*
X177915752Y-92436052D02*
X177902462Y-98762229D01*
X176845671Y-67159237D02*
X177339628Y-73462631D01*
X123406058Y-43673667D02*
X127026516Y-40597757D01*
X116645835Y-50335243D02*
X119952856Y-46928557D01*
X175231028Y-54618948D02*
X176152462Y-60876072D01*
X95955707Y-78122873D02*
X97554747Y-74836382D01*
X177663310Y-79780439D02*
X177845692Y-86106851D01*
X162035185Y-34825417D02*
X165053220Y-35998127D01*
X92828098Y-88603699D02*
X93588750Y-85026553D01*
X92720838Y-129588003D02*
X92194910Y-124807033D01*
X134999095Y-36148647D02*
X139335639Y-34785817D01*
X100003925Y-156021718D02*
X98716665Y-151684609D01*
X127026516Y-40597757D02*
X130875339Y-38071277D01*
X113463918Y-53866538D02*
X116645835Y-50335243D01*
X101565789Y-68694201D02*
X104458042Y-64936275D01*
X93588750Y-85026553D02*
X94632497Y-81526271D01*
X92069529Y-100716860D02*
X92170609Y-95908494D01*
X148398524Y-33563147D02*
X153000576Y-33615147D01*
X98716665Y-151684609D02*
X97359402Y-147364702D01*
X97359402Y-147364702D02*
X95999239Y-143045282D01*
X95999239Y-143045282D02*
X94703276Y-138709633D01*
X177176417Y-110581683D02*
X175813394Y-115854223D01*
X167584278Y-37758537D02*
X169676338Y-39998727D01*
X92194910Y-124807033D02*
X91907304Y-120004806D01*
X91907304Y-120004806D02*
X91804491Y-115187999D01*
X171598274Y-125909192D02*
X169058610Y-130790919D01*
X92170609Y-95908494D02*
X92354174Y-92237686D01*
X175813394Y-115854223D02*
X173901941Y-120946843D01*
X177834792Y-105079571D02*
X177176417Y-110581683D01*
X153000576Y-33615147D02*
X157566844Y-34050597D01*
X106216421Y-198574381D02*
X105609453Y-192710707D01*
X107659848Y-219665164D02*
X107543068Y-216202713D01*
X138273464Y-262125737D02*
X132901958Y-262219437D01*
X106954708Y-230108261D02*
X107234316Y-226628107D01*
X106805674Y-233573978D02*
X106954708Y-230108261D01*
X163123949Y-232258467D02*
X162928673Y-237571542D01*
X159586960Y-247622169D02*
X156616384Y-252037087D01*
X106918567Y-237015089D02*
X106805674Y-233573978D01*
X127616910Y-261269177D02*
X122588805Y-259358497D01*
X106751434Y-204443904D02*
X106216421Y-198574381D01*
X107543068Y-216202713D02*
X107198860Y-210319830D01*
X143560941Y-260904487D02*
X138273464Y-262125737D01*
X162218263Y-226968638D02*
X163123949Y-232258467D01*
X107513147Y-223143685D02*
X107659848Y-219665164D01*
X108455541Y-243782816D02*
X107424739Y-240421425D01*
X148515444Y-258839567D02*
X143560941Y-260904487D01*
X152896568Y-255829997D02*
X148515444Y-258839567D01*
X161720367Y-242746548D02*
X159586960Y-247622169D01*
X107198860Y-210319830D02*
X106751434Y-204443904D01*
X107234316Y-226628107D02*
X107513147Y-223143685D01*
X107424739Y-240421425D02*
X106918567Y-237015089D01*
X110751011Y-248699567D02*
X108455541Y-243782816D01*
X117988129Y-256570967D02*
X113985369Y-252990137D01*
X122588805Y-259358497D02*
X117988129Y-256570967D01*
X132901958Y-262219437D02*
X127616910Y-261269177D01*
X162928673Y-237571542D02*
X161720367Y-242746548D01*
X156616384Y-252037087D02*
X152896568Y-255829997D01*
X113985369Y-252990137D02*
X110751011Y-248699567D01*
X104946163Y-186852327D02*
X104242183Y-180998686D01*
X105609453Y-192710707D02*
X104946163Y-186852327D01*
X151669453Y-196910707D02*
X151419453Y-189780707D01*
X151669454Y-196909361D02*
G75*
G03X152115647Y-197270707I401061J39080D01*
G01*
X156859453Y-197100707D02*
X152109453Y-197270707D01*
X151699637Y-189482814D02*
G75*
G03X151419453Y-189770707I26761J-306331D01*
G01*
X157209952Y-197396623D02*
G75*
G03X156859453Y-197100707I-320499J-24084D01*
G01*
X156563537Y-189310706D02*
G75*
G03X156859453Y-188960207I-24084J320499D01*
G01*
X157209453Y-197400707D02*
X157409453Y-198080707D01*
X156559453Y-189310707D02*
X151699453Y-189480707D01*
X156669453Y-184790707D02*
X156859453Y-188950707D01*
M02*
