G04 #@! TF.GenerationSoftware,KiCad,Pcbnew,(5.0.0)*
G04 #@! TF.CreationDate,2020-01-29T13:40:05+01:00*
G04 #@! TF.ProjectId,Insole_PCB,496E736F6C655F5043422E6B69636164,rev?*
G04 #@! TF.SameCoordinates,Original*
G04 #@! TF.FileFunction,Soldermask,Bot*
G04 #@! TF.FilePolarity,Negative*
%FSLAX46Y46*%
G04 Gerber Fmt 4.6, Leading zero omitted, Abs format (unit mm)*
G04 Created by KiCad (PCBNEW (5.0.0)) date 01/29/20 13:40:05*
%MOMM*%
%LPD*%
G01*
G04 APERTURE LIST*
%ADD10C,0.100000*%
%ADD11C,1.275000*%
%ADD12C,1.050000*%
%ADD13C,1.650000*%
%ADD14C,1.250000*%
%ADD15C,1.250000*%
%ADD16R,1.075000X0.650000*%
%ADD17R,0.650000X1.075000*%
%ADD18C,1.550000*%
%ADD19C,0.850000*%
%ADD20R,1.900000X0.850000*%
%ADD21R,0.850000X1.900000*%
%ADD22R,1.200000X1.300000*%
%ADD23C,0.810000*%
%ADD24C,2.200000*%
%ADD25C,0.900000*%
%ADD26C,0.800000*%
%ADD27C,1.200000*%
%ADD28C,1.725000*%
%ADD29R,1.300000X1.200000*%
%ADD30C,1.375000*%
%ADD31R,1.200000X0.900000*%
G04 APERTURE END LIST*
D10*
G04 #@! TO.C,R4*
G36*
X153657759Y-177577263D02*
X153688559Y-177582729D01*
X153718674Y-177591187D01*
X153747815Y-177602556D01*
X153775702Y-177616727D01*
X153802066Y-177633563D01*
X153826652Y-177652901D01*
X153849224Y-177674557D01*
X153869565Y-177698321D01*
X153887479Y-177723964D01*
X153902793Y-177751240D01*
X153915360Y-177779885D01*
X153925059Y-177809624D01*
X153931796Y-177840171D01*
X153935507Y-177871230D01*
X153979977Y-178507177D01*
X153980625Y-178538451D01*
X153978205Y-178569638D01*
X153972739Y-178600437D01*
X153964281Y-178630553D01*
X153952912Y-178659694D01*
X153938741Y-178687581D01*
X153921906Y-178713944D01*
X153902567Y-178738531D01*
X153880911Y-178761103D01*
X153857147Y-178781444D01*
X153831504Y-178799358D01*
X153804229Y-178814672D01*
X153775583Y-178827239D01*
X153745844Y-178836938D01*
X153715298Y-178843675D01*
X153684238Y-178847386D01*
X152973474Y-178897087D01*
X152942200Y-178897735D01*
X152911013Y-178895315D01*
X152880213Y-178889849D01*
X152850098Y-178881391D01*
X152820957Y-178870022D01*
X152793070Y-178855851D01*
X152766706Y-178839015D01*
X152742120Y-178819677D01*
X152719548Y-178798021D01*
X152699207Y-178774257D01*
X152681293Y-178748614D01*
X152665979Y-178721338D01*
X152653412Y-178692693D01*
X152643713Y-178662954D01*
X152636976Y-178632407D01*
X152633265Y-178601348D01*
X152588795Y-177965401D01*
X152588147Y-177934127D01*
X152590567Y-177902940D01*
X152596033Y-177872141D01*
X152604491Y-177842025D01*
X152615860Y-177812884D01*
X152630031Y-177784997D01*
X152646866Y-177758634D01*
X152666205Y-177734047D01*
X152687861Y-177711475D01*
X152711625Y-177691134D01*
X152737268Y-177673220D01*
X152764543Y-177657906D01*
X152793189Y-177645339D01*
X152822928Y-177635640D01*
X152853474Y-177628903D01*
X152884534Y-177625192D01*
X153595298Y-177575491D01*
X153626572Y-177574843D01*
X153657759Y-177577263D01*
X153657759Y-177577263D01*
G37*
D11*
X153284386Y-178236289D03*
D10*
G36*
X153547893Y-176006099D02*
X153578693Y-176011565D01*
X153608808Y-176020023D01*
X153637949Y-176031392D01*
X153665836Y-176045563D01*
X153692200Y-176062399D01*
X153716786Y-176081737D01*
X153739358Y-176103393D01*
X153759699Y-176127157D01*
X153777613Y-176152800D01*
X153792927Y-176180076D01*
X153805494Y-176208721D01*
X153815193Y-176238460D01*
X153821930Y-176269007D01*
X153825641Y-176300066D01*
X153870111Y-176936013D01*
X153870759Y-176967287D01*
X153868339Y-176998474D01*
X153862873Y-177029273D01*
X153854415Y-177059389D01*
X153843046Y-177088530D01*
X153828875Y-177116417D01*
X153812040Y-177142780D01*
X153792701Y-177167367D01*
X153771045Y-177189939D01*
X153747281Y-177210280D01*
X153721638Y-177228194D01*
X153694363Y-177243508D01*
X153665717Y-177256075D01*
X153635978Y-177265774D01*
X153605432Y-177272511D01*
X153574372Y-177276222D01*
X152863608Y-177325923D01*
X152832334Y-177326571D01*
X152801147Y-177324151D01*
X152770347Y-177318685D01*
X152740232Y-177310227D01*
X152711091Y-177298858D01*
X152683204Y-177284687D01*
X152656840Y-177267851D01*
X152632254Y-177248513D01*
X152609682Y-177226857D01*
X152589341Y-177203093D01*
X152571427Y-177177450D01*
X152556113Y-177150174D01*
X152543546Y-177121529D01*
X152533847Y-177091790D01*
X152527110Y-177061243D01*
X152523399Y-177030184D01*
X152478929Y-176394237D01*
X152478281Y-176362963D01*
X152480701Y-176331776D01*
X152486167Y-176300977D01*
X152494625Y-176270861D01*
X152505994Y-176241720D01*
X152520165Y-176213833D01*
X152537000Y-176187470D01*
X152556339Y-176162883D01*
X152577995Y-176140311D01*
X152601759Y-176119970D01*
X152627402Y-176102056D01*
X152654677Y-176086742D01*
X152683323Y-176074175D01*
X152713062Y-176064476D01*
X152743608Y-176057739D01*
X152774668Y-176054028D01*
X153485432Y-176004327D01*
X153516706Y-176003679D01*
X153547893Y-176006099D01*
X153547893Y-176006099D01*
G37*
D11*
X153174520Y-176665125D03*
G04 #@! TD*
D10*
G04 #@! TO.C,C3*
G36*
X150000259Y-171234980D02*
X150031276Y-171239029D01*
X150061748Y-171246099D01*
X150091379Y-171256121D01*
X150119886Y-171269000D01*
X150146993Y-171284611D01*
X150172439Y-171302803D01*
X150195979Y-171323402D01*
X150217387Y-171346210D01*
X150236457Y-171371005D01*
X150253004Y-171397551D01*
X150266870Y-171425591D01*
X150277920Y-171454854D01*
X150286049Y-171485060D01*
X150291179Y-171515918D01*
X150293258Y-171547129D01*
X150305693Y-172259521D01*
X150304704Y-172290786D01*
X150300655Y-172321803D01*
X150293585Y-172352275D01*
X150283563Y-172381906D01*
X150270684Y-172410413D01*
X150255073Y-172437520D01*
X150236881Y-172462966D01*
X150216282Y-172486506D01*
X150193474Y-172507914D01*
X150168679Y-172526984D01*
X150142133Y-172543531D01*
X150114093Y-172557397D01*
X150084830Y-172568447D01*
X150054624Y-172576576D01*
X150023766Y-172581706D01*
X149992555Y-172583785D01*
X149355152Y-172594911D01*
X149323887Y-172593922D01*
X149292870Y-172589873D01*
X149262398Y-172582803D01*
X149232767Y-172572781D01*
X149204260Y-172559902D01*
X149177153Y-172544291D01*
X149151707Y-172526099D01*
X149128167Y-172505500D01*
X149106759Y-172482692D01*
X149087689Y-172457897D01*
X149071142Y-172431351D01*
X149057276Y-172403311D01*
X149046226Y-172374048D01*
X149038097Y-172343842D01*
X149032967Y-172312984D01*
X149030888Y-172281773D01*
X149018453Y-171569381D01*
X149019442Y-171538116D01*
X149023491Y-171507099D01*
X149030561Y-171476627D01*
X149040583Y-171446996D01*
X149053462Y-171418489D01*
X149069073Y-171391382D01*
X149087265Y-171365936D01*
X149107864Y-171342396D01*
X149130672Y-171320988D01*
X149155467Y-171301918D01*
X149182013Y-171285371D01*
X149210053Y-171271505D01*
X149239316Y-171260455D01*
X149269522Y-171252326D01*
X149300380Y-171247196D01*
X149331591Y-171245117D01*
X149968994Y-171233991D01*
X150000259Y-171234980D01*
X150000259Y-171234980D01*
G37*
D11*
X149662073Y-171914451D03*
D10*
G36*
X151575019Y-171207492D02*
X151606036Y-171211541D01*
X151636508Y-171218611D01*
X151666139Y-171228633D01*
X151694646Y-171241512D01*
X151721753Y-171257123D01*
X151747199Y-171275315D01*
X151770739Y-171295914D01*
X151792147Y-171318722D01*
X151811217Y-171343517D01*
X151827764Y-171370063D01*
X151841630Y-171398103D01*
X151852680Y-171427366D01*
X151860809Y-171457572D01*
X151865939Y-171488430D01*
X151868018Y-171519641D01*
X151880453Y-172232033D01*
X151879464Y-172263298D01*
X151875415Y-172294315D01*
X151868345Y-172324787D01*
X151858323Y-172354418D01*
X151845444Y-172382925D01*
X151829833Y-172410032D01*
X151811641Y-172435478D01*
X151791042Y-172459018D01*
X151768234Y-172480426D01*
X151743439Y-172499496D01*
X151716893Y-172516043D01*
X151688853Y-172529909D01*
X151659590Y-172540959D01*
X151629384Y-172549088D01*
X151598526Y-172554218D01*
X151567315Y-172556297D01*
X150929912Y-172567423D01*
X150898647Y-172566434D01*
X150867630Y-172562385D01*
X150837158Y-172555315D01*
X150807527Y-172545293D01*
X150779020Y-172532414D01*
X150751913Y-172516803D01*
X150726467Y-172498611D01*
X150702927Y-172478012D01*
X150681519Y-172455204D01*
X150662449Y-172430409D01*
X150645902Y-172403863D01*
X150632036Y-172375823D01*
X150620986Y-172346560D01*
X150612857Y-172316354D01*
X150607727Y-172285496D01*
X150605648Y-172254285D01*
X150593213Y-171541893D01*
X150594202Y-171510628D01*
X150598251Y-171479611D01*
X150605321Y-171449139D01*
X150615343Y-171419508D01*
X150628222Y-171391001D01*
X150643833Y-171363894D01*
X150662025Y-171338448D01*
X150682624Y-171314908D01*
X150705432Y-171293500D01*
X150730227Y-171274430D01*
X150756773Y-171257883D01*
X150784813Y-171244017D01*
X150814076Y-171232967D01*
X150844282Y-171224838D01*
X150875140Y-171219708D01*
X150906351Y-171217629D01*
X151543754Y-171206503D01*
X151575019Y-171207492D01*
X151575019Y-171207492D01*
G37*
D11*
X151236833Y-171886963D03*
G04 #@! TD*
D12*
G04 #@! TO.C,U3*
X150266735Y-167817486D03*
D10*
G36*
X150805791Y-168618200D02*
X149755951Y-168636525D01*
X149727679Y-167016772D01*
X150777519Y-166998447D01*
X150805791Y-168618200D01*
X150805791Y-168618200D01*
G37*
D12*
X152166446Y-167784327D03*
D10*
G36*
X152705502Y-168585041D02*
X151655662Y-168603366D01*
X151627390Y-166983613D01*
X152677230Y-166965288D01*
X152705502Y-168585041D01*
X152705502Y-168585041D01*
G37*
D12*
X152212171Y-170403928D03*
D10*
G36*
X152751227Y-171204642D02*
X151701387Y-171222967D01*
X151673115Y-169603214D01*
X152722955Y-169584889D01*
X152751227Y-171204642D01*
X152751227Y-171204642D01*
G37*
D12*
X151262316Y-170420507D03*
D10*
G36*
X151801372Y-171221221D02*
X150751532Y-171239546D01*
X150723260Y-169619793D01*
X151773100Y-169601468D01*
X151801372Y-171221221D01*
X151801372Y-171221221D01*
G37*
D12*
X150312460Y-170437087D03*
D10*
G36*
X150851516Y-171237801D02*
X149801676Y-171256126D01*
X149773404Y-169636373D01*
X150823244Y-169618048D01*
X150851516Y-171237801D01*
X150851516Y-171237801D01*
G37*
G04 #@! TD*
G04 #@! TO.C,L3*
G36*
X150454198Y-164262690D02*
X150486311Y-164266882D01*
X150517857Y-164274201D01*
X150548535Y-164284577D01*
X150578047Y-164297911D01*
X150606111Y-164314072D01*
X150632455Y-164332907D01*
X150656826Y-164354233D01*
X150678990Y-164377845D01*
X150698733Y-164403516D01*
X150715864Y-164430999D01*
X150730219Y-164460028D01*
X150741659Y-164490325D01*
X150750075Y-164521597D01*
X150755385Y-164553543D01*
X150757539Y-164585856D01*
X150783543Y-166075629D01*
X150782518Y-166107997D01*
X150778326Y-166140109D01*
X150771007Y-166171656D01*
X150760631Y-166202333D01*
X150747298Y-166231846D01*
X150731136Y-166259910D01*
X150712301Y-166286254D01*
X150690975Y-166310625D01*
X150667363Y-166332789D01*
X150641692Y-166352532D01*
X150614209Y-166369663D01*
X150585180Y-166384018D01*
X150554884Y-166395458D01*
X150523612Y-166403874D01*
X150491665Y-166409184D01*
X150459352Y-166411338D01*
X149469502Y-166428615D01*
X149437134Y-166427590D01*
X149405021Y-166423398D01*
X149373475Y-166416079D01*
X149342797Y-166405703D01*
X149313285Y-166392369D01*
X149285221Y-166376208D01*
X149258877Y-166357373D01*
X149234506Y-166336047D01*
X149212342Y-166312435D01*
X149192599Y-166286764D01*
X149175468Y-166259281D01*
X149161113Y-166230252D01*
X149149673Y-166199955D01*
X149141257Y-166168683D01*
X149135947Y-166136737D01*
X149133793Y-166104424D01*
X149107789Y-164614651D01*
X149108814Y-164582283D01*
X149113006Y-164550171D01*
X149120325Y-164518624D01*
X149130701Y-164487947D01*
X149144034Y-164458434D01*
X149160196Y-164430370D01*
X149179031Y-164404026D01*
X149200357Y-164379655D01*
X149223969Y-164357491D01*
X149249640Y-164337748D01*
X149277123Y-164320617D01*
X149306152Y-164306262D01*
X149336448Y-164294822D01*
X149367720Y-164286406D01*
X149399667Y-164281096D01*
X149431980Y-164278942D01*
X150421830Y-164261665D01*
X150454198Y-164262690D01*
X150454198Y-164262690D01*
G37*
D13*
X149945666Y-165345140D03*
D10*
G36*
X153253772Y-164213824D02*
X153285885Y-164218016D01*
X153317431Y-164225335D01*
X153348109Y-164235711D01*
X153377621Y-164249045D01*
X153405685Y-164265206D01*
X153432029Y-164284041D01*
X153456400Y-164305367D01*
X153478564Y-164328979D01*
X153498307Y-164354650D01*
X153515438Y-164382133D01*
X153529793Y-164411162D01*
X153541233Y-164441459D01*
X153549649Y-164472731D01*
X153554959Y-164504677D01*
X153557113Y-164536990D01*
X153583117Y-166026763D01*
X153582092Y-166059131D01*
X153577900Y-166091243D01*
X153570581Y-166122790D01*
X153560205Y-166153467D01*
X153546872Y-166182980D01*
X153530710Y-166211044D01*
X153511875Y-166237388D01*
X153490549Y-166261759D01*
X153466937Y-166283923D01*
X153441266Y-166303666D01*
X153413783Y-166320797D01*
X153384754Y-166335152D01*
X153354458Y-166346592D01*
X153323186Y-166355008D01*
X153291239Y-166360318D01*
X153258926Y-166362472D01*
X152269076Y-166379749D01*
X152236708Y-166378724D01*
X152204595Y-166374532D01*
X152173049Y-166367213D01*
X152142371Y-166356837D01*
X152112859Y-166343503D01*
X152084795Y-166327342D01*
X152058451Y-166308507D01*
X152034080Y-166287181D01*
X152011916Y-166263569D01*
X151992173Y-166237898D01*
X151975042Y-166210415D01*
X151960687Y-166181386D01*
X151949247Y-166151089D01*
X151940831Y-166119817D01*
X151935521Y-166087871D01*
X151933367Y-166055558D01*
X151907363Y-164565785D01*
X151908388Y-164533417D01*
X151912580Y-164501305D01*
X151919899Y-164469758D01*
X151930275Y-164439081D01*
X151943608Y-164409568D01*
X151959770Y-164381504D01*
X151978605Y-164355160D01*
X151999931Y-164330789D01*
X152023543Y-164308625D01*
X152049214Y-164288882D01*
X152076697Y-164271751D01*
X152105726Y-164257396D01*
X152136022Y-164245956D01*
X152167294Y-164237540D01*
X152199241Y-164232230D01*
X152231554Y-164230076D01*
X153221404Y-164212799D01*
X153253772Y-164213824D01*
X153253772Y-164213824D01*
G37*
D13*
X152745240Y-165296274D03*
G04 #@! TD*
D14*
G04 #@! TO.C,J2*
X154639697Y-181233143D03*
D15*
X154639697Y-181233143D02*
X154639697Y-181233143D01*
D14*
X154709453Y-182230707D03*
D10*
G36*
X154129573Y-182897782D02*
X154042378Y-181650827D01*
X155289333Y-181563632D01*
X155376528Y-182810587D01*
X154129573Y-182897782D01*
X154129573Y-182897782D01*
G37*
G04 #@! TD*
D16*
G04 #@! TO.C,U2*
X147081953Y-155830707D03*
X147081953Y-156330707D03*
X147081953Y-156830707D03*
X147081953Y-157330707D03*
X144556953Y-157330707D03*
X144556953Y-156830707D03*
X144556953Y-156330707D03*
X144556953Y-155830707D03*
D17*
X146319453Y-157593207D03*
X145819453Y-157593207D03*
X145319453Y-157593207D03*
X146319453Y-155568207D03*
X145319453Y-155568207D03*
X145819453Y-155568207D03*
G04 #@! TD*
D10*
G04 #@! TO.C,C1*
G36*
X149547759Y-182407263D02*
X149578559Y-182412729D01*
X149608674Y-182421187D01*
X149637815Y-182432556D01*
X149665702Y-182446727D01*
X149692066Y-182463563D01*
X149716652Y-182482901D01*
X149739224Y-182504557D01*
X149759565Y-182528321D01*
X149777479Y-182553964D01*
X149792793Y-182581240D01*
X149805360Y-182609885D01*
X149815059Y-182639624D01*
X149821796Y-182670171D01*
X149825507Y-182701230D01*
X149869977Y-183337177D01*
X149870625Y-183368451D01*
X149868205Y-183399638D01*
X149862739Y-183430437D01*
X149854281Y-183460553D01*
X149842912Y-183489694D01*
X149828741Y-183517581D01*
X149811906Y-183543944D01*
X149792567Y-183568531D01*
X149770911Y-183591103D01*
X149747147Y-183611444D01*
X149721504Y-183629358D01*
X149694229Y-183644672D01*
X149665583Y-183657239D01*
X149635844Y-183666938D01*
X149605298Y-183673675D01*
X149574238Y-183677386D01*
X148863474Y-183727087D01*
X148832200Y-183727735D01*
X148801013Y-183725315D01*
X148770213Y-183719849D01*
X148740098Y-183711391D01*
X148710957Y-183700022D01*
X148683070Y-183685851D01*
X148656706Y-183669015D01*
X148632120Y-183649677D01*
X148609548Y-183628021D01*
X148589207Y-183604257D01*
X148571293Y-183578614D01*
X148555979Y-183551338D01*
X148543412Y-183522693D01*
X148533713Y-183492954D01*
X148526976Y-183462407D01*
X148523265Y-183431348D01*
X148478795Y-182795401D01*
X148478147Y-182764127D01*
X148480567Y-182732940D01*
X148486033Y-182702141D01*
X148494491Y-182672025D01*
X148505860Y-182642884D01*
X148520031Y-182614997D01*
X148536866Y-182588634D01*
X148556205Y-182564047D01*
X148577861Y-182541475D01*
X148601625Y-182521134D01*
X148627268Y-182503220D01*
X148654543Y-182487906D01*
X148683189Y-182475339D01*
X148712928Y-182465640D01*
X148743474Y-182458903D01*
X148774534Y-182455192D01*
X149485298Y-182405491D01*
X149516572Y-182404843D01*
X149547759Y-182407263D01*
X149547759Y-182407263D01*
G37*
D11*
X149174386Y-183066289D03*
D10*
G36*
X149437893Y-180836099D02*
X149468693Y-180841565D01*
X149498808Y-180850023D01*
X149527949Y-180861392D01*
X149555836Y-180875563D01*
X149582200Y-180892399D01*
X149606786Y-180911737D01*
X149629358Y-180933393D01*
X149649699Y-180957157D01*
X149667613Y-180982800D01*
X149682927Y-181010076D01*
X149695494Y-181038721D01*
X149705193Y-181068460D01*
X149711930Y-181099007D01*
X149715641Y-181130066D01*
X149760111Y-181766013D01*
X149760759Y-181797287D01*
X149758339Y-181828474D01*
X149752873Y-181859273D01*
X149744415Y-181889389D01*
X149733046Y-181918530D01*
X149718875Y-181946417D01*
X149702040Y-181972780D01*
X149682701Y-181997367D01*
X149661045Y-182019939D01*
X149637281Y-182040280D01*
X149611638Y-182058194D01*
X149584363Y-182073508D01*
X149555717Y-182086075D01*
X149525978Y-182095774D01*
X149495432Y-182102511D01*
X149464372Y-182106222D01*
X148753608Y-182155923D01*
X148722334Y-182156571D01*
X148691147Y-182154151D01*
X148660347Y-182148685D01*
X148630232Y-182140227D01*
X148601091Y-182128858D01*
X148573204Y-182114687D01*
X148546840Y-182097851D01*
X148522254Y-182078513D01*
X148499682Y-182056857D01*
X148479341Y-182033093D01*
X148461427Y-182007450D01*
X148446113Y-181980174D01*
X148433546Y-181951529D01*
X148423847Y-181921790D01*
X148417110Y-181891243D01*
X148413399Y-181860184D01*
X148368929Y-181224237D01*
X148368281Y-181192963D01*
X148370701Y-181161776D01*
X148376167Y-181130977D01*
X148384625Y-181100861D01*
X148395994Y-181071720D01*
X148410165Y-181043833D01*
X148427000Y-181017470D01*
X148446339Y-180992883D01*
X148467995Y-180970311D01*
X148491759Y-180949970D01*
X148517402Y-180932056D01*
X148544677Y-180916742D01*
X148573323Y-180904175D01*
X148603062Y-180894476D01*
X148633608Y-180887739D01*
X148664668Y-180884028D01*
X149375432Y-180834327D01*
X149406706Y-180833679D01*
X149437893Y-180836099D01*
X149437893Y-180836099D01*
G37*
D11*
X149064520Y-181495125D03*
G04 #@! TD*
D10*
G04 #@! TO.C,C2*
G36*
X128709591Y-176033793D02*
X128740303Y-176039728D01*
X128770286Y-176048645D01*
X128799250Y-176060457D01*
X128826917Y-176075052D01*
X128853021Y-176092289D01*
X128877309Y-176112001D01*
X128899548Y-176133998D01*
X128919524Y-176158070D01*
X128937044Y-176183984D01*
X128951940Y-176211490D01*
X128964068Y-176240324D01*
X129182105Y-176839378D01*
X129191349Y-176869262D01*
X129197618Y-176899908D01*
X129200854Y-176931021D01*
X129201025Y-176962301D01*
X129198128Y-176993447D01*
X129192193Y-177024160D01*
X129183276Y-177054143D01*
X129171463Y-177083107D01*
X129156868Y-177110774D01*
X129139632Y-177136877D01*
X129119920Y-177161165D01*
X129097922Y-177183404D01*
X129073850Y-177203380D01*
X129047937Y-177220900D01*
X129020430Y-177235796D01*
X128991597Y-177247924D01*
X128322066Y-177491614D01*
X128292182Y-177500857D01*
X128261537Y-177507127D01*
X128230424Y-177510363D01*
X128199144Y-177510534D01*
X128167997Y-177507637D01*
X128137285Y-177501702D01*
X128107302Y-177492785D01*
X128078338Y-177480973D01*
X128050671Y-177466378D01*
X128024567Y-177449141D01*
X128000279Y-177429429D01*
X127978040Y-177407432D01*
X127958064Y-177383360D01*
X127940544Y-177357446D01*
X127925648Y-177329940D01*
X127913520Y-177301106D01*
X127695483Y-176702052D01*
X127686239Y-176672168D01*
X127679970Y-176641522D01*
X127676734Y-176610409D01*
X127676563Y-176579129D01*
X127679460Y-176547983D01*
X127685395Y-176517270D01*
X127694312Y-176487287D01*
X127706125Y-176458323D01*
X127720720Y-176430656D01*
X127737956Y-176404553D01*
X127757668Y-176380265D01*
X127779666Y-176358026D01*
X127803738Y-176338050D01*
X127829651Y-176320530D01*
X127857158Y-176305634D01*
X127885991Y-176293506D01*
X128555522Y-176049816D01*
X128585406Y-176040573D01*
X128616051Y-176034303D01*
X128647164Y-176031067D01*
X128678444Y-176030896D01*
X128709591Y-176033793D01*
X128709591Y-176033793D01*
G37*
D11*
X128438794Y-176770715D03*
D10*
G36*
X128170909Y-174553777D02*
X128201621Y-174559712D01*
X128231604Y-174568629D01*
X128260568Y-174580441D01*
X128288235Y-174595036D01*
X128314339Y-174612273D01*
X128338627Y-174631985D01*
X128360866Y-174653982D01*
X128380842Y-174678054D01*
X128398362Y-174703968D01*
X128413258Y-174731474D01*
X128425386Y-174760308D01*
X128643423Y-175359362D01*
X128652667Y-175389246D01*
X128658936Y-175419892D01*
X128662172Y-175451005D01*
X128662343Y-175482285D01*
X128659446Y-175513431D01*
X128653511Y-175544144D01*
X128644594Y-175574127D01*
X128632781Y-175603091D01*
X128618186Y-175630758D01*
X128600950Y-175656861D01*
X128581238Y-175681149D01*
X128559240Y-175703388D01*
X128535168Y-175723364D01*
X128509255Y-175740884D01*
X128481748Y-175755780D01*
X128452915Y-175767908D01*
X127783384Y-176011598D01*
X127753500Y-176020841D01*
X127722855Y-176027111D01*
X127691742Y-176030347D01*
X127660462Y-176030518D01*
X127629315Y-176027621D01*
X127598603Y-176021686D01*
X127568620Y-176012769D01*
X127539656Y-176000957D01*
X127511989Y-175986362D01*
X127485885Y-175969125D01*
X127461597Y-175949413D01*
X127439358Y-175927416D01*
X127419382Y-175903344D01*
X127401862Y-175877430D01*
X127386966Y-175849924D01*
X127374838Y-175821090D01*
X127156801Y-175222036D01*
X127147557Y-175192152D01*
X127141288Y-175161506D01*
X127138052Y-175130393D01*
X127137881Y-175099113D01*
X127140778Y-175067967D01*
X127146713Y-175037254D01*
X127155630Y-175007271D01*
X127167443Y-174978307D01*
X127182038Y-174950640D01*
X127199274Y-174924537D01*
X127218986Y-174900249D01*
X127240984Y-174878010D01*
X127265056Y-174858034D01*
X127290969Y-174840514D01*
X127318476Y-174825618D01*
X127347309Y-174813490D01*
X128016840Y-174569800D01*
X128046724Y-174560557D01*
X128077369Y-174554287D01*
X128108482Y-174551051D01*
X128139762Y-174550880D01*
X128170909Y-174553777D01*
X128170909Y-174553777D01*
G37*
D11*
X127900112Y-175290699D03*
G04 #@! TD*
D10*
G04 #@! TO.C,C4*
G36*
X154021532Y-168513456D02*
X154052549Y-168517505D01*
X154083021Y-168524575D01*
X154112652Y-168534597D01*
X154141159Y-168547476D01*
X154168266Y-168563087D01*
X154193712Y-168581279D01*
X154217252Y-168601878D01*
X154238660Y-168624686D01*
X154257730Y-168649481D01*
X154274277Y-168676027D01*
X154288143Y-168704067D01*
X154299193Y-168733330D01*
X154307322Y-168763536D01*
X154312452Y-168794394D01*
X154314531Y-168825605D01*
X154325657Y-169463008D01*
X154324668Y-169494273D01*
X154320619Y-169525290D01*
X154313549Y-169555762D01*
X154303527Y-169585393D01*
X154290648Y-169613900D01*
X154275037Y-169641007D01*
X154256845Y-169666453D01*
X154236246Y-169689993D01*
X154213438Y-169711401D01*
X154188643Y-169730471D01*
X154162097Y-169747018D01*
X154134057Y-169760884D01*
X154104794Y-169771934D01*
X154074588Y-169780063D01*
X154043730Y-169785193D01*
X154012519Y-169787272D01*
X153300127Y-169799707D01*
X153268862Y-169798718D01*
X153237845Y-169794669D01*
X153207373Y-169787599D01*
X153177742Y-169777577D01*
X153149235Y-169764698D01*
X153122128Y-169749087D01*
X153096682Y-169730895D01*
X153073142Y-169710296D01*
X153051734Y-169687488D01*
X153032664Y-169662693D01*
X153016117Y-169636147D01*
X153002251Y-169608107D01*
X152991201Y-169578844D01*
X152983072Y-169548638D01*
X152977942Y-169517780D01*
X152975863Y-169486569D01*
X152964737Y-168849166D01*
X152965726Y-168817901D01*
X152969775Y-168786884D01*
X152976845Y-168756412D01*
X152986867Y-168726781D01*
X152999746Y-168698274D01*
X153015357Y-168671167D01*
X153033549Y-168645721D01*
X153054148Y-168622181D01*
X153076956Y-168600773D01*
X153101751Y-168581703D01*
X153128297Y-168565156D01*
X153156337Y-168551290D01*
X153185600Y-168540240D01*
X153215806Y-168532111D01*
X153246664Y-168526981D01*
X153277875Y-168524902D01*
X153990267Y-168512467D01*
X154021532Y-168513456D01*
X154021532Y-168513456D01*
G37*
D11*
X153645197Y-169156087D03*
D10*
G36*
X153994044Y-166938696D02*
X154025061Y-166942745D01*
X154055533Y-166949815D01*
X154085164Y-166959837D01*
X154113671Y-166972716D01*
X154140778Y-166988327D01*
X154166224Y-167006519D01*
X154189764Y-167027118D01*
X154211172Y-167049926D01*
X154230242Y-167074721D01*
X154246789Y-167101267D01*
X154260655Y-167129307D01*
X154271705Y-167158570D01*
X154279834Y-167188776D01*
X154284964Y-167219634D01*
X154287043Y-167250845D01*
X154298169Y-167888248D01*
X154297180Y-167919513D01*
X154293131Y-167950530D01*
X154286061Y-167981002D01*
X154276039Y-168010633D01*
X154263160Y-168039140D01*
X154247549Y-168066247D01*
X154229357Y-168091693D01*
X154208758Y-168115233D01*
X154185950Y-168136641D01*
X154161155Y-168155711D01*
X154134609Y-168172258D01*
X154106569Y-168186124D01*
X154077306Y-168197174D01*
X154047100Y-168205303D01*
X154016242Y-168210433D01*
X153985031Y-168212512D01*
X153272639Y-168224947D01*
X153241374Y-168223958D01*
X153210357Y-168219909D01*
X153179885Y-168212839D01*
X153150254Y-168202817D01*
X153121747Y-168189938D01*
X153094640Y-168174327D01*
X153069194Y-168156135D01*
X153045654Y-168135536D01*
X153024246Y-168112728D01*
X153005176Y-168087933D01*
X152988629Y-168061387D01*
X152974763Y-168033347D01*
X152963713Y-168004084D01*
X152955584Y-167973878D01*
X152950454Y-167943020D01*
X152948375Y-167911809D01*
X152937249Y-167274406D01*
X152938238Y-167243141D01*
X152942287Y-167212124D01*
X152949357Y-167181652D01*
X152959379Y-167152021D01*
X152972258Y-167123514D01*
X152987869Y-167096407D01*
X153006061Y-167070961D01*
X153026660Y-167047421D01*
X153049468Y-167026013D01*
X153074263Y-167006943D01*
X153100809Y-166990396D01*
X153128849Y-166976530D01*
X153158112Y-166965480D01*
X153188318Y-166957351D01*
X153219176Y-166952221D01*
X153250387Y-166950142D01*
X153962779Y-166937707D01*
X153994044Y-166938696D01*
X153994044Y-166938696D01*
G37*
D11*
X153617709Y-167581327D03*
G04 #@! TD*
D10*
G04 #@! TO.C,C5*
G36*
X130159591Y-175483793D02*
X130190303Y-175489728D01*
X130220286Y-175498645D01*
X130249250Y-175510457D01*
X130276917Y-175525052D01*
X130303021Y-175542289D01*
X130327309Y-175562001D01*
X130349548Y-175583998D01*
X130369524Y-175608070D01*
X130387044Y-175633984D01*
X130401940Y-175661490D01*
X130414068Y-175690324D01*
X130632105Y-176289378D01*
X130641349Y-176319262D01*
X130647618Y-176349908D01*
X130650854Y-176381021D01*
X130651025Y-176412301D01*
X130648128Y-176443447D01*
X130642193Y-176474160D01*
X130633276Y-176504143D01*
X130621463Y-176533107D01*
X130606868Y-176560774D01*
X130589632Y-176586877D01*
X130569920Y-176611165D01*
X130547922Y-176633404D01*
X130523850Y-176653380D01*
X130497937Y-176670900D01*
X130470430Y-176685796D01*
X130441597Y-176697924D01*
X129772066Y-176941614D01*
X129742182Y-176950857D01*
X129711537Y-176957127D01*
X129680424Y-176960363D01*
X129649144Y-176960534D01*
X129617997Y-176957637D01*
X129587285Y-176951702D01*
X129557302Y-176942785D01*
X129528338Y-176930973D01*
X129500671Y-176916378D01*
X129474567Y-176899141D01*
X129450279Y-176879429D01*
X129428040Y-176857432D01*
X129408064Y-176833360D01*
X129390544Y-176807446D01*
X129375648Y-176779940D01*
X129363520Y-176751106D01*
X129145483Y-176152052D01*
X129136239Y-176122168D01*
X129129970Y-176091522D01*
X129126734Y-176060409D01*
X129126563Y-176029129D01*
X129129460Y-175997983D01*
X129135395Y-175967270D01*
X129144312Y-175937287D01*
X129156125Y-175908323D01*
X129170720Y-175880656D01*
X129187956Y-175854553D01*
X129207668Y-175830265D01*
X129229666Y-175808026D01*
X129253738Y-175788050D01*
X129279651Y-175770530D01*
X129307158Y-175755634D01*
X129335991Y-175743506D01*
X130005522Y-175499816D01*
X130035406Y-175490573D01*
X130066051Y-175484303D01*
X130097164Y-175481067D01*
X130128444Y-175480896D01*
X130159591Y-175483793D01*
X130159591Y-175483793D01*
G37*
D11*
X129888794Y-176220715D03*
D10*
G36*
X129620909Y-174003777D02*
X129651621Y-174009712D01*
X129681604Y-174018629D01*
X129710568Y-174030441D01*
X129738235Y-174045036D01*
X129764339Y-174062273D01*
X129788627Y-174081985D01*
X129810866Y-174103982D01*
X129830842Y-174128054D01*
X129848362Y-174153968D01*
X129863258Y-174181474D01*
X129875386Y-174210308D01*
X130093423Y-174809362D01*
X130102667Y-174839246D01*
X130108936Y-174869892D01*
X130112172Y-174901005D01*
X130112343Y-174932285D01*
X130109446Y-174963431D01*
X130103511Y-174994144D01*
X130094594Y-175024127D01*
X130082781Y-175053091D01*
X130068186Y-175080758D01*
X130050950Y-175106861D01*
X130031238Y-175131149D01*
X130009240Y-175153388D01*
X129985168Y-175173364D01*
X129959255Y-175190884D01*
X129931748Y-175205780D01*
X129902915Y-175217908D01*
X129233384Y-175461598D01*
X129203500Y-175470841D01*
X129172855Y-175477111D01*
X129141742Y-175480347D01*
X129110462Y-175480518D01*
X129079315Y-175477621D01*
X129048603Y-175471686D01*
X129018620Y-175462769D01*
X128989656Y-175450957D01*
X128961989Y-175436362D01*
X128935885Y-175419125D01*
X128911597Y-175399413D01*
X128889358Y-175377416D01*
X128869382Y-175353344D01*
X128851862Y-175327430D01*
X128836966Y-175299924D01*
X128824838Y-175271090D01*
X128606801Y-174672036D01*
X128597557Y-174642152D01*
X128591288Y-174611506D01*
X128588052Y-174580393D01*
X128587881Y-174549113D01*
X128590778Y-174517967D01*
X128596713Y-174487254D01*
X128605630Y-174457271D01*
X128617443Y-174428307D01*
X128632038Y-174400640D01*
X128649274Y-174374537D01*
X128668986Y-174350249D01*
X128690984Y-174328010D01*
X128715056Y-174308034D01*
X128740969Y-174290514D01*
X128768476Y-174275618D01*
X128797309Y-174263490D01*
X129466840Y-174019800D01*
X129496724Y-174010557D01*
X129527369Y-174004287D01*
X129558482Y-174001051D01*
X129589762Y-174000880D01*
X129620909Y-174003777D01*
X129620909Y-174003777D01*
G37*
D11*
X129350112Y-174740699D03*
G04 #@! TD*
D10*
G04 #@! TO.C,C6*
G36*
X136606946Y-164844742D02*
X136637888Y-164849332D01*
X136668231Y-164856932D01*
X136697683Y-164867470D01*
X136725961Y-164880845D01*
X136752791Y-164896926D01*
X136777916Y-164915560D01*
X136801093Y-164936567D01*
X136822100Y-164959744D01*
X136840734Y-164984869D01*
X136856815Y-165011699D01*
X136870190Y-165039977D01*
X136880728Y-165069429D01*
X136888328Y-165099772D01*
X136892918Y-165130714D01*
X136894453Y-165161957D01*
X136894453Y-165799457D01*
X136892918Y-165830700D01*
X136888328Y-165861642D01*
X136880728Y-165891985D01*
X136870190Y-165921437D01*
X136856815Y-165949715D01*
X136840734Y-165976545D01*
X136822100Y-166001670D01*
X136801093Y-166024847D01*
X136777916Y-166045854D01*
X136752791Y-166064488D01*
X136725961Y-166080569D01*
X136697683Y-166093944D01*
X136668231Y-166104482D01*
X136637888Y-166112082D01*
X136606946Y-166116672D01*
X136575703Y-166118207D01*
X135863203Y-166118207D01*
X135831960Y-166116672D01*
X135801018Y-166112082D01*
X135770675Y-166104482D01*
X135741223Y-166093944D01*
X135712945Y-166080569D01*
X135686115Y-166064488D01*
X135660990Y-166045854D01*
X135637813Y-166024847D01*
X135616806Y-166001670D01*
X135598172Y-165976545D01*
X135582091Y-165949715D01*
X135568716Y-165921437D01*
X135558178Y-165891985D01*
X135550578Y-165861642D01*
X135545988Y-165830700D01*
X135544453Y-165799457D01*
X135544453Y-165161957D01*
X135545988Y-165130714D01*
X135550578Y-165099772D01*
X135558178Y-165069429D01*
X135568716Y-165039977D01*
X135582091Y-165011699D01*
X135598172Y-164984869D01*
X135616806Y-164959744D01*
X135637813Y-164936567D01*
X135660990Y-164915560D01*
X135686115Y-164896926D01*
X135712945Y-164880845D01*
X135741223Y-164867470D01*
X135770675Y-164856932D01*
X135801018Y-164849332D01*
X135831960Y-164844742D01*
X135863203Y-164843207D01*
X136575703Y-164843207D01*
X136606946Y-164844742D01*
X136606946Y-164844742D01*
G37*
D11*
X136219453Y-165480707D03*
D10*
G36*
X136606946Y-166419742D02*
X136637888Y-166424332D01*
X136668231Y-166431932D01*
X136697683Y-166442470D01*
X136725961Y-166455845D01*
X136752791Y-166471926D01*
X136777916Y-166490560D01*
X136801093Y-166511567D01*
X136822100Y-166534744D01*
X136840734Y-166559869D01*
X136856815Y-166586699D01*
X136870190Y-166614977D01*
X136880728Y-166644429D01*
X136888328Y-166674772D01*
X136892918Y-166705714D01*
X136894453Y-166736957D01*
X136894453Y-167374457D01*
X136892918Y-167405700D01*
X136888328Y-167436642D01*
X136880728Y-167466985D01*
X136870190Y-167496437D01*
X136856815Y-167524715D01*
X136840734Y-167551545D01*
X136822100Y-167576670D01*
X136801093Y-167599847D01*
X136777916Y-167620854D01*
X136752791Y-167639488D01*
X136725961Y-167655569D01*
X136697683Y-167668944D01*
X136668231Y-167679482D01*
X136637888Y-167687082D01*
X136606946Y-167691672D01*
X136575703Y-167693207D01*
X135863203Y-167693207D01*
X135831960Y-167691672D01*
X135801018Y-167687082D01*
X135770675Y-167679482D01*
X135741223Y-167668944D01*
X135712945Y-167655569D01*
X135686115Y-167639488D01*
X135660990Y-167620854D01*
X135637813Y-167599847D01*
X135616806Y-167576670D01*
X135598172Y-167551545D01*
X135582091Y-167524715D01*
X135568716Y-167496437D01*
X135558178Y-167466985D01*
X135550578Y-167436642D01*
X135545988Y-167405700D01*
X135544453Y-167374457D01*
X135544453Y-166736957D01*
X135545988Y-166705714D01*
X135550578Y-166674772D01*
X135558178Y-166644429D01*
X135568716Y-166614977D01*
X135582091Y-166586699D01*
X135598172Y-166559869D01*
X135616806Y-166534744D01*
X135637813Y-166511567D01*
X135660990Y-166490560D01*
X135686115Y-166471926D01*
X135712945Y-166455845D01*
X135741223Y-166442470D01*
X135770675Y-166431932D01*
X135801018Y-166424332D01*
X135831960Y-166419742D01*
X135863203Y-166418207D01*
X136575703Y-166418207D01*
X136606946Y-166419742D01*
X136606946Y-166419742D01*
G37*
D11*
X136219453Y-167055707D03*
G04 #@! TD*
D10*
G04 #@! TO.C,C7*
G36*
X135006946Y-164857242D02*
X135037888Y-164861832D01*
X135068231Y-164869432D01*
X135097683Y-164879970D01*
X135125961Y-164893345D01*
X135152791Y-164909426D01*
X135177916Y-164928060D01*
X135201093Y-164949067D01*
X135222100Y-164972244D01*
X135240734Y-164997369D01*
X135256815Y-165024199D01*
X135270190Y-165052477D01*
X135280728Y-165081929D01*
X135288328Y-165112272D01*
X135292918Y-165143214D01*
X135294453Y-165174457D01*
X135294453Y-165811957D01*
X135292918Y-165843200D01*
X135288328Y-165874142D01*
X135280728Y-165904485D01*
X135270190Y-165933937D01*
X135256815Y-165962215D01*
X135240734Y-165989045D01*
X135222100Y-166014170D01*
X135201093Y-166037347D01*
X135177916Y-166058354D01*
X135152791Y-166076988D01*
X135125961Y-166093069D01*
X135097683Y-166106444D01*
X135068231Y-166116982D01*
X135037888Y-166124582D01*
X135006946Y-166129172D01*
X134975703Y-166130707D01*
X134263203Y-166130707D01*
X134231960Y-166129172D01*
X134201018Y-166124582D01*
X134170675Y-166116982D01*
X134141223Y-166106444D01*
X134112945Y-166093069D01*
X134086115Y-166076988D01*
X134060990Y-166058354D01*
X134037813Y-166037347D01*
X134016806Y-166014170D01*
X133998172Y-165989045D01*
X133982091Y-165962215D01*
X133968716Y-165933937D01*
X133958178Y-165904485D01*
X133950578Y-165874142D01*
X133945988Y-165843200D01*
X133944453Y-165811957D01*
X133944453Y-165174457D01*
X133945988Y-165143214D01*
X133950578Y-165112272D01*
X133958178Y-165081929D01*
X133968716Y-165052477D01*
X133982091Y-165024199D01*
X133998172Y-164997369D01*
X134016806Y-164972244D01*
X134037813Y-164949067D01*
X134060990Y-164928060D01*
X134086115Y-164909426D01*
X134112945Y-164893345D01*
X134141223Y-164879970D01*
X134170675Y-164869432D01*
X134201018Y-164861832D01*
X134231960Y-164857242D01*
X134263203Y-164855707D01*
X134975703Y-164855707D01*
X135006946Y-164857242D01*
X135006946Y-164857242D01*
G37*
D11*
X134619453Y-165493207D03*
D10*
G36*
X135006946Y-166432242D02*
X135037888Y-166436832D01*
X135068231Y-166444432D01*
X135097683Y-166454970D01*
X135125961Y-166468345D01*
X135152791Y-166484426D01*
X135177916Y-166503060D01*
X135201093Y-166524067D01*
X135222100Y-166547244D01*
X135240734Y-166572369D01*
X135256815Y-166599199D01*
X135270190Y-166627477D01*
X135280728Y-166656929D01*
X135288328Y-166687272D01*
X135292918Y-166718214D01*
X135294453Y-166749457D01*
X135294453Y-167386957D01*
X135292918Y-167418200D01*
X135288328Y-167449142D01*
X135280728Y-167479485D01*
X135270190Y-167508937D01*
X135256815Y-167537215D01*
X135240734Y-167564045D01*
X135222100Y-167589170D01*
X135201093Y-167612347D01*
X135177916Y-167633354D01*
X135152791Y-167651988D01*
X135125961Y-167668069D01*
X135097683Y-167681444D01*
X135068231Y-167691982D01*
X135037888Y-167699582D01*
X135006946Y-167704172D01*
X134975703Y-167705707D01*
X134263203Y-167705707D01*
X134231960Y-167704172D01*
X134201018Y-167699582D01*
X134170675Y-167691982D01*
X134141223Y-167681444D01*
X134112945Y-167668069D01*
X134086115Y-167651988D01*
X134060990Y-167633354D01*
X134037813Y-167612347D01*
X134016806Y-167589170D01*
X133998172Y-167564045D01*
X133982091Y-167537215D01*
X133968716Y-167508937D01*
X133958178Y-167479485D01*
X133950578Y-167449142D01*
X133945988Y-167418200D01*
X133944453Y-167386957D01*
X133944453Y-166749457D01*
X133945988Y-166718214D01*
X133950578Y-166687272D01*
X133958178Y-166656929D01*
X133968716Y-166627477D01*
X133982091Y-166599199D01*
X133998172Y-166572369D01*
X134016806Y-166547244D01*
X134037813Y-166524067D01*
X134060990Y-166503060D01*
X134086115Y-166484426D01*
X134112945Y-166468345D01*
X134141223Y-166454970D01*
X134170675Y-166444432D01*
X134201018Y-166436832D01*
X134231960Y-166432242D01*
X134263203Y-166430707D01*
X134975703Y-166430707D01*
X135006946Y-166432242D01*
X135006946Y-166432242D01*
G37*
D11*
X134619453Y-167068207D03*
G04 #@! TD*
D10*
G04 #@! TO.C,C8*
G36*
X135569446Y-158507242D02*
X135600388Y-158511832D01*
X135630731Y-158519432D01*
X135660183Y-158529970D01*
X135688461Y-158543345D01*
X135715291Y-158559426D01*
X135740416Y-158578060D01*
X135763593Y-158599067D01*
X135784600Y-158622244D01*
X135803234Y-158647369D01*
X135819315Y-158674199D01*
X135832690Y-158702477D01*
X135843228Y-158731929D01*
X135850828Y-158762272D01*
X135855418Y-158793214D01*
X135856953Y-158824457D01*
X135856953Y-159536957D01*
X135855418Y-159568200D01*
X135850828Y-159599142D01*
X135843228Y-159629485D01*
X135832690Y-159658937D01*
X135819315Y-159687215D01*
X135803234Y-159714045D01*
X135784600Y-159739170D01*
X135763593Y-159762347D01*
X135740416Y-159783354D01*
X135715291Y-159801988D01*
X135688461Y-159818069D01*
X135660183Y-159831444D01*
X135630731Y-159841982D01*
X135600388Y-159849582D01*
X135569446Y-159854172D01*
X135538203Y-159855707D01*
X134900703Y-159855707D01*
X134869460Y-159854172D01*
X134838518Y-159849582D01*
X134808175Y-159841982D01*
X134778723Y-159831444D01*
X134750445Y-159818069D01*
X134723615Y-159801988D01*
X134698490Y-159783354D01*
X134675313Y-159762347D01*
X134654306Y-159739170D01*
X134635672Y-159714045D01*
X134619591Y-159687215D01*
X134606216Y-159658937D01*
X134595678Y-159629485D01*
X134588078Y-159599142D01*
X134583488Y-159568200D01*
X134581953Y-159536957D01*
X134581953Y-158824457D01*
X134583488Y-158793214D01*
X134588078Y-158762272D01*
X134595678Y-158731929D01*
X134606216Y-158702477D01*
X134619591Y-158674199D01*
X134635672Y-158647369D01*
X134654306Y-158622244D01*
X134675313Y-158599067D01*
X134698490Y-158578060D01*
X134723615Y-158559426D01*
X134750445Y-158543345D01*
X134778723Y-158529970D01*
X134808175Y-158519432D01*
X134838518Y-158511832D01*
X134869460Y-158507242D01*
X134900703Y-158505707D01*
X135538203Y-158505707D01*
X135569446Y-158507242D01*
X135569446Y-158507242D01*
G37*
D11*
X135219453Y-159180707D03*
D10*
G36*
X137144446Y-158507242D02*
X137175388Y-158511832D01*
X137205731Y-158519432D01*
X137235183Y-158529970D01*
X137263461Y-158543345D01*
X137290291Y-158559426D01*
X137315416Y-158578060D01*
X137338593Y-158599067D01*
X137359600Y-158622244D01*
X137378234Y-158647369D01*
X137394315Y-158674199D01*
X137407690Y-158702477D01*
X137418228Y-158731929D01*
X137425828Y-158762272D01*
X137430418Y-158793214D01*
X137431953Y-158824457D01*
X137431953Y-159536957D01*
X137430418Y-159568200D01*
X137425828Y-159599142D01*
X137418228Y-159629485D01*
X137407690Y-159658937D01*
X137394315Y-159687215D01*
X137378234Y-159714045D01*
X137359600Y-159739170D01*
X137338593Y-159762347D01*
X137315416Y-159783354D01*
X137290291Y-159801988D01*
X137263461Y-159818069D01*
X137235183Y-159831444D01*
X137205731Y-159841982D01*
X137175388Y-159849582D01*
X137144446Y-159854172D01*
X137113203Y-159855707D01*
X136475703Y-159855707D01*
X136444460Y-159854172D01*
X136413518Y-159849582D01*
X136383175Y-159841982D01*
X136353723Y-159831444D01*
X136325445Y-159818069D01*
X136298615Y-159801988D01*
X136273490Y-159783354D01*
X136250313Y-159762347D01*
X136229306Y-159739170D01*
X136210672Y-159714045D01*
X136194591Y-159687215D01*
X136181216Y-159658937D01*
X136170678Y-159629485D01*
X136163078Y-159599142D01*
X136158488Y-159568200D01*
X136156953Y-159536957D01*
X136156953Y-158824457D01*
X136158488Y-158793214D01*
X136163078Y-158762272D01*
X136170678Y-158731929D01*
X136181216Y-158702477D01*
X136194591Y-158674199D01*
X136210672Y-158647369D01*
X136229306Y-158622244D01*
X136250313Y-158599067D01*
X136273490Y-158578060D01*
X136298615Y-158559426D01*
X136325445Y-158543345D01*
X136353723Y-158529970D01*
X136383175Y-158519432D01*
X136413518Y-158511832D01*
X136444460Y-158507242D01*
X136475703Y-158505707D01*
X137113203Y-158505707D01*
X137144446Y-158507242D01*
X137144446Y-158507242D01*
G37*
D11*
X136794453Y-159180707D03*
G04 #@! TD*
D10*
G04 #@! TO.C,C9*
G36*
X135569446Y-156907242D02*
X135600388Y-156911832D01*
X135630731Y-156919432D01*
X135660183Y-156929970D01*
X135688461Y-156943345D01*
X135715291Y-156959426D01*
X135740416Y-156978060D01*
X135763593Y-156999067D01*
X135784600Y-157022244D01*
X135803234Y-157047369D01*
X135819315Y-157074199D01*
X135832690Y-157102477D01*
X135843228Y-157131929D01*
X135850828Y-157162272D01*
X135855418Y-157193214D01*
X135856953Y-157224457D01*
X135856953Y-157936957D01*
X135855418Y-157968200D01*
X135850828Y-157999142D01*
X135843228Y-158029485D01*
X135832690Y-158058937D01*
X135819315Y-158087215D01*
X135803234Y-158114045D01*
X135784600Y-158139170D01*
X135763593Y-158162347D01*
X135740416Y-158183354D01*
X135715291Y-158201988D01*
X135688461Y-158218069D01*
X135660183Y-158231444D01*
X135630731Y-158241982D01*
X135600388Y-158249582D01*
X135569446Y-158254172D01*
X135538203Y-158255707D01*
X134900703Y-158255707D01*
X134869460Y-158254172D01*
X134838518Y-158249582D01*
X134808175Y-158241982D01*
X134778723Y-158231444D01*
X134750445Y-158218069D01*
X134723615Y-158201988D01*
X134698490Y-158183354D01*
X134675313Y-158162347D01*
X134654306Y-158139170D01*
X134635672Y-158114045D01*
X134619591Y-158087215D01*
X134606216Y-158058937D01*
X134595678Y-158029485D01*
X134588078Y-157999142D01*
X134583488Y-157968200D01*
X134581953Y-157936957D01*
X134581953Y-157224457D01*
X134583488Y-157193214D01*
X134588078Y-157162272D01*
X134595678Y-157131929D01*
X134606216Y-157102477D01*
X134619591Y-157074199D01*
X134635672Y-157047369D01*
X134654306Y-157022244D01*
X134675313Y-156999067D01*
X134698490Y-156978060D01*
X134723615Y-156959426D01*
X134750445Y-156943345D01*
X134778723Y-156929970D01*
X134808175Y-156919432D01*
X134838518Y-156911832D01*
X134869460Y-156907242D01*
X134900703Y-156905707D01*
X135538203Y-156905707D01*
X135569446Y-156907242D01*
X135569446Y-156907242D01*
G37*
D11*
X135219453Y-157580707D03*
D10*
G36*
X137144446Y-156907242D02*
X137175388Y-156911832D01*
X137205731Y-156919432D01*
X137235183Y-156929970D01*
X137263461Y-156943345D01*
X137290291Y-156959426D01*
X137315416Y-156978060D01*
X137338593Y-156999067D01*
X137359600Y-157022244D01*
X137378234Y-157047369D01*
X137394315Y-157074199D01*
X137407690Y-157102477D01*
X137418228Y-157131929D01*
X137425828Y-157162272D01*
X137430418Y-157193214D01*
X137431953Y-157224457D01*
X137431953Y-157936957D01*
X137430418Y-157968200D01*
X137425828Y-157999142D01*
X137418228Y-158029485D01*
X137407690Y-158058937D01*
X137394315Y-158087215D01*
X137378234Y-158114045D01*
X137359600Y-158139170D01*
X137338593Y-158162347D01*
X137315416Y-158183354D01*
X137290291Y-158201988D01*
X137263461Y-158218069D01*
X137235183Y-158231444D01*
X137205731Y-158241982D01*
X137175388Y-158249582D01*
X137144446Y-158254172D01*
X137113203Y-158255707D01*
X136475703Y-158255707D01*
X136444460Y-158254172D01*
X136413518Y-158249582D01*
X136383175Y-158241982D01*
X136353723Y-158231444D01*
X136325445Y-158218069D01*
X136298615Y-158201988D01*
X136273490Y-158183354D01*
X136250313Y-158162347D01*
X136229306Y-158139170D01*
X136210672Y-158114045D01*
X136194591Y-158087215D01*
X136181216Y-158058937D01*
X136170678Y-158029485D01*
X136163078Y-157999142D01*
X136158488Y-157968200D01*
X136156953Y-157936957D01*
X136156953Y-157224457D01*
X136158488Y-157193214D01*
X136163078Y-157162272D01*
X136170678Y-157131929D01*
X136181216Y-157102477D01*
X136194591Y-157074199D01*
X136210672Y-157047369D01*
X136229306Y-157022244D01*
X136250313Y-156999067D01*
X136273490Y-156978060D01*
X136298615Y-156959426D01*
X136325445Y-156943345D01*
X136353723Y-156929970D01*
X136383175Y-156919432D01*
X136413518Y-156911832D01*
X136444460Y-156907242D01*
X136475703Y-156905707D01*
X137113203Y-156905707D01*
X137144446Y-156907242D01*
X137144446Y-156907242D01*
G37*
D11*
X136794453Y-157580707D03*
G04 #@! TD*
D10*
G04 #@! TO.C,C10*
G36*
X141981946Y-141719742D02*
X142012888Y-141724332D01*
X142043231Y-141731932D01*
X142072683Y-141742470D01*
X142100961Y-141755845D01*
X142127791Y-141771926D01*
X142152916Y-141790560D01*
X142176093Y-141811567D01*
X142197100Y-141834744D01*
X142215734Y-141859869D01*
X142231815Y-141886699D01*
X142245190Y-141914977D01*
X142255728Y-141944429D01*
X142263328Y-141974772D01*
X142267918Y-142005714D01*
X142269453Y-142036957D01*
X142269453Y-142674457D01*
X142267918Y-142705700D01*
X142263328Y-142736642D01*
X142255728Y-142766985D01*
X142245190Y-142796437D01*
X142231815Y-142824715D01*
X142215734Y-142851545D01*
X142197100Y-142876670D01*
X142176093Y-142899847D01*
X142152916Y-142920854D01*
X142127791Y-142939488D01*
X142100961Y-142955569D01*
X142072683Y-142968944D01*
X142043231Y-142979482D01*
X142012888Y-142987082D01*
X141981946Y-142991672D01*
X141950703Y-142993207D01*
X141238203Y-142993207D01*
X141206960Y-142991672D01*
X141176018Y-142987082D01*
X141145675Y-142979482D01*
X141116223Y-142968944D01*
X141087945Y-142955569D01*
X141061115Y-142939488D01*
X141035990Y-142920854D01*
X141012813Y-142899847D01*
X140991806Y-142876670D01*
X140973172Y-142851545D01*
X140957091Y-142824715D01*
X140943716Y-142796437D01*
X140933178Y-142766985D01*
X140925578Y-142736642D01*
X140920988Y-142705700D01*
X140919453Y-142674457D01*
X140919453Y-142036957D01*
X140920988Y-142005714D01*
X140925578Y-141974772D01*
X140933178Y-141944429D01*
X140943716Y-141914977D01*
X140957091Y-141886699D01*
X140973172Y-141859869D01*
X140991806Y-141834744D01*
X141012813Y-141811567D01*
X141035990Y-141790560D01*
X141061115Y-141771926D01*
X141087945Y-141755845D01*
X141116223Y-141742470D01*
X141145675Y-141731932D01*
X141176018Y-141724332D01*
X141206960Y-141719742D01*
X141238203Y-141718207D01*
X141950703Y-141718207D01*
X141981946Y-141719742D01*
X141981946Y-141719742D01*
G37*
D11*
X141594453Y-142355707D03*
D10*
G36*
X141981946Y-143294742D02*
X142012888Y-143299332D01*
X142043231Y-143306932D01*
X142072683Y-143317470D01*
X142100961Y-143330845D01*
X142127791Y-143346926D01*
X142152916Y-143365560D01*
X142176093Y-143386567D01*
X142197100Y-143409744D01*
X142215734Y-143434869D01*
X142231815Y-143461699D01*
X142245190Y-143489977D01*
X142255728Y-143519429D01*
X142263328Y-143549772D01*
X142267918Y-143580714D01*
X142269453Y-143611957D01*
X142269453Y-144249457D01*
X142267918Y-144280700D01*
X142263328Y-144311642D01*
X142255728Y-144341985D01*
X142245190Y-144371437D01*
X142231815Y-144399715D01*
X142215734Y-144426545D01*
X142197100Y-144451670D01*
X142176093Y-144474847D01*
X142152916Y-144495854D01*
X142127791Y-144514488D01*
X142100961Y-144530569D01*
X142072683Y-144543944D01*
X142043231Y-144554482D01*
X142012888Y-144562082D01*
X141981946Y-144566672D01*
X141950703Y-144568207D01*
X141238203Y-144568207D01*
X141206960Y-144566672D01*
X141176018Y-144562082D01*
X141145675Y-144554482D01*
X141116223Y-144543944D01*
X141087945Y-144530569D01*
X141061115Y-144514488D01*
X141035990Y-144495854D01*
X141012813Y-144474847D01*
X140991806Y-144451670D01*
X140973172Y-144426545D01*
X140957091Y-144399715D01*
X140943716Y-144371437D01*
X140933178Y-144341985D01*
X140925578Y-144311642D01*
X140920988Y-144280700D01*
X140919453Y-144249457D01*
X140919453Y-143611957D01*
X140920988Y-143580714D01*
X140925578Y-143549772D01*
X140933178Y-143519429D01*
X140943716Y-143489977D01*
X140957091Y-143461699D01*
X140973172Y-143434869D01*
X140991806Y-143409744D01*
X141012813Y-143386567D01*
X141035990Y-143365560D01*
X141061115Y-143346926D01*
X141087945Y-143330845D01*
X141116223Y-143317470D01*
X141145675Y-143306932D01*
X141176018Y-143299332D01*
X141206960Y-143294742D01*
X141238203Y-143293207D01*
X141950703Y-143293207D01*
X141981946Y-143294742D01*
X141981946Y-143294742D01*
G37*
D11*
X141594453Y-143930707D03*
G04 #@! TD*
D10*
G04 #@! TO.C,C11*
G36*
X143606946Y-141732242D02*
X143637888Y-141736832D01*
X143668231Y-141744432D01*
X143697683Y-141754970D01*
X143725961Y-141768345D01*
X143752791Y-141784426D01*
X143777916Y-141803060D01*
X143801093Y-141824067D01*
X143822100Y-141847244D01*
X143840734Y-141872369D01*
X143856815Y-141899199D01*
X143870190Y-141927477D01*
X143880728Y-141956929D01*
X143888328Y-141987272D01*
X143892918Y-142018214D01*
X143894453Y-142049457D01*
X143894453Y-142686957D01*
X143892918Y-142718200D01*
X143888328Y-142749142D01*
X143880728Y-142779485D01*
X143870190Y-142808937D01*
X143856815Y-142837215D01*
X143840734Y-142864045D01*
X143822100Y-142889170D01*
X143801093Y-142912347D01*
X143777916Y-142933354D01*
X143752791Y-142951988D01*
X143725961Y-142968069D01*
X143697683Y-142981444D01*
X143668231Y-142991982D01*
X143637888Y-142999582D01*
X143606946Y-143004172D01*
X143575703Y-143005707D01*
X142863203Y-143005707D01*
X142831960Y-143004172D01*
X142801018Y-142999582D01*
X142770675Y-142991982D01*
X142741223Y-142981444D01*
X142712945Y-142968069D01*
X142686115Y-142951988D01*
X142660990Y-142933354D01*
X142637813Y-142912347D01*
X142616806Y-142889170D01*
X142598172Y-142864045D01*
X142582091Y-142837215D01*
X142568716Y-142808937D01*
X142558178Y-142779485D01*
X142550578Y-142749142D01*
X142545988Y-142718200D01*
X142544453Y-142686957D01*
X142544453Y-142049457D01*
X142545988Y-142018214D01*
X142550578Y-141987272D01*
X142558178Y-141956929D01*
X142568716Y-141927477D01*
X142582091Y-141899199D01*
X142598172Y-141872369D01*
X142616806Y-141847244D01*
X142637813Y-141824067D01*
X142660990Y-141803060D01*
X142686115Y-141784426D01*
X142712945Y-141768345D01*
X142741223Y-141754970D01*
X142770675Y-141744432D01*
X142801018Y-141736832D01*
X142831960Y-141732242D01*
X142863203Y-141730707D01*
X143575703Y-141730707D01*
X143606946Y-141732242D01*
X143606946Y-141732242D01*
G37*
D11*
X143219453Y-142368207D03*
D10*
G36*
X143606946Y-143307242D02*
X143637888Y-143311832D01*
X143668231Y-143319432D01*
X143697683Y-143329970D01*
X143725961Y-143343345D01*
X143752791Y-143359426D01*
X143777916Y-143378060D01*
X143801093Y-143399067D01*
X143822100Y-143422244D01*
X143840734Y-143447369D01*
X143856815Y-143474199D01*
X143870190Y-143502477D01*
X143880728Y-143531929D01*
X143888328Y-143562272D01*
X143892918Y-143593214D01*
X143894453Y-143624457D01*
X143894453Y-144261957D01*
X143892918Y-144293200D01*
X143888328Y-144324142D01*
X143880728Y-144354485D01*
X143870190Y-144383937D01*
X143856815Y-144412215D01*
X143840734Y-144439045D01*
X143822100Y-144464170D01*
X143801093Y-144487347D01*
X143777916Y-144508354D01*
X143752791Y-144526988D01*
X143725961Y-144543069D01*
X143697683Y-144556444D01*
X143668231Y-144566982D01*
X143637888Y-144574582D01*
X143606946Y-144579172D01*
X143575703Y-144580707D01*
X142863203Y-144580707D01*
X142831960Y-144579172D01*
X142801018Y-144574582D01*
X142770675Y-144566982D01*
X142741223Y-144556444D01*
X142712945Y-144543069D01*
X142686115Y-144526988D01*
X142660990Y-144508354D01*
X142637813Y-144487347D01*
X142616806Y-144464170D01*
X142598172Y-144439045D01*
X142582091Y-144412215D01*
X142568716Y-144383937D01*
X142558178Y-144354485D01*
X142550578Y-144324142D01*
X142545988Y-144293200D01*
X142544453Y-144261957D01*
X142544453Y-143624457D01*
X142545988Y-143593214D01*
X142550578Y-143562272D01*
X142558178Y-143531929D01*
X142568716Y-143502477D01*
X142582091Y-143474199D01*
X142598172Y-143447369D01*
X142616806Y-143422244D01*
X142637813Y-143399067D01*
X142660990Y-143378060D01*
X142686115Y-143359426D01*
X142712945Y-143343345D01*
X142741223Y-143329970D01*
X142770675Y-143319432D01*
X142801018Y-143311832D01*
X142831960Y-143307242D01*
X142863203Y-143305707D01*
X143575703Y-143305707D01*
X143606946Y-143307242D01*
X143606946Y-143307242D01*
G37*
D11*
X143219453Y-143943207D03*
G04 #@! TD*
D10*
G04 #@! TO.C,C12*
G36*
X145269446Y-160007242D02*
X145300388Y-160011832D01*
X145330731Y-160019432D01*
X145360183Y-160029970D01*
X145388461Y-160043345D01*
X145415291Y-160059426D01*
X145440416Y-160078060D01*
X145463593Y-160099067D01*
X145484600Y-160122244D01*
X145503234Y-160147369D01*
X145519315Y-160174199D01*
X145532690Y-160202477D01*
X145543228Y-160231929D01*
X145550828Y-160262272D01*
X145555418Y-160293214D01*
X145556953Y-160324457D01*
X145556953Y-161036957D01*
X145555418Y-161068200D01*
X145550828Y-161099142D01*
X145543228Y-161129485D01*
X145532690Y-161158937D01*
X145519315Y-161187215D01*
X145503234Y-161214045D01*
X145484600Y-161239170D01*
X145463593Y-161262347D01*
X145440416Y-161283354D01*
X145415291Y-161301988D01*
X145388461Y-161318069D01*
X145360183Y-161331444D01*
X145330731Y-161341982D01*
X145300388Y-161349582D01*
X145269446Y-161354172D01*
X145238203Y-161355707D01*
X144600703Y-161355707D01*
X144569460Y-161354172D01*
X144538518Y-161349582D01*
X144508175Y-161341982D01*
X144478723Y-161331444D01*
X144450445Y-161318069D01*
X144423615Y-161301988D01*
X144398490Y-161283354D01*
X144375313Y-161262347D01*
X144354306Y-161239170D01*
X144335672Y-161214045D01*
X144319591Y-161187215D01*
X144306216Y-161158937D01*
X144295678Y-161129485D01*
X144288078Y-161099142D01*
X144283488Y-161068200D01*
X144281953Y-161036957D01*
X144281953Y-160324457D01*
X144283488Y-160293214D01*
X144288078Y-160262272D01*
X144295678Y-160231929D01*
X144306216Y-160202477D01*
X144319591Y-160174199D01*
X144335672Y-160147369D01*
X144354306Y-160122244D01*
X144375313Y-160099067D01*
X144398490Y-160078060D01*
X144423615Y-160059426D01*
X144450445Y-160043345D01*
X144478723Y-160029970D01*
X144508175Y-160019432D01*
X144538518Y-160011832D01*
X144569460Y-160007242D01*
X144600703Y-160005707D01*
X145238203Y-160005707D01*
X145269446Y-160007242D01*
X145269446Y-160007242D01*
G37*
D11*
X144919453Y-160680707D03*
D10*
G36*
X143694446Y-160007242D02*
X143725388Y-160011832D01*
X143755731Y-160019432D01*
X143785183Y-160029970D01*
X143813461Y-160043345D01*
X143840291Y-160059426D01*
X143865416Y-160078060D01*
X143888593Y-160099067D01*
X143909600Y-160122244D01*
X143928234Y-160147369D01*
X143944315Y-160174199D01*
X143957690Y-160202477D01*
X143968228Y-160231929D01*
X143975828Y-160262272D01*
X143980418Y-160293214D01*
X143981953Y-160324457D01*
X143981953Y-161036957D01*
X143980418Y-161068200D01*
X143975828Y-161099142D01*
X143968228Y-161129485D01*
X143957690Y-161158937D01*
X143944315Y-161187215D01*
X143928234Y-161214045D01*
X143909600Y-161239170D01*
X143888593Y-161262347D01*
X143865416Y-161283354D01*
X143840291Y-161301988D01*
X143813461Y-161318069D01*
X143785183Y-161331444D01*
X143755731Y-161341982D01*
X143725388Y-161349582D01*
X143694446Y-161354172D01*
X143663203Y-161355707D01*
X143025703Y-161355707D01*
X142994460Y-161354172D01*
X142963518Y-161349582D01*
X142933175Y-161341982D01*
X142903723Y-161331444D01*
X142875445Y-161318069D01*
X142848615Y-161301988D01*
X142823490Y-161283354D01*
X142800313Y-161262347D01*
X142779306Y-161239170D01*
X142760672Y-161214045D01*
X142744591Y-161187215D01*
X142731216Y-161158937D01*
X142720678Y-161129485D01*
X142713078Y-161099142D01*
X142708488Y-161068200D01*
X142706953Y-161036957D01*
X142706953Y-160324457D01*
X142708488Y-160293214D01*
X142713078Y-160262272D01*
X142720678Y-160231929D01*
X142731216Y-160202477D01*
X142744591Y-160174199D01*
X142760672Y-160147369D01*
X142779306Y-160122244D01*
X142800313Y-160099067D01*
X142823490Y-160078060D01*
X142848615Y-160059426D01*
X142875445Y-160043345D01*
X142903723Y-160029970D01*
X142933175Y-160019432D01*
X142963518Y-160011832D01*
X142994460Y-160007242D01*
X143025703Y-160005707D01*
X143663203Y-160005707D01*
X143694446Y-160007242D01*
X143694446Y-160007242D01*
G37*
D11*
X143344453Y-160680707D03*
G04 #@! TD*
D10*
G04 #@! TO.C,C13*
G36*
X145269446Y-158407242D02*
X145300388Y-158411832D01*
X145330731Y-158419432D01*
X145360183Y-158429970D01*
X145388461Y-158443345D01*
X145415291Y-158459426D01*
X145440416Y-158478060D01*
X145463593Y-158499067D01*
X145484600Y-158522244D01*
X145503234Y-158547369D01*
X145519315Y-158574199D01*
X145532690Y-158602477D01*
X145543228Y-158631929D01*
X145550828Y-158662272D01*
X145555418Y-158693214D01*
X145556953Y-158724457D01*
X145556953Y-159436957D01*
X145555418Y-159468200D01*
X145550828Y-159499142D01*
X145543228Y-159529485D01*
X145532690Y-159558937D01*
X145519315Y-159587215D01*
X145503234Y-159614045D01*
X145484600Y-159639170D01*
X145463593Y-159662347D01*
X145440416Y-159683354D01*
X145415291Y-159701988D01*
X145388461Y-159718069D01*
X145360183Y-159731444D01*
X145330731Y-159741982D01*
X145300388Y-159749582D01*
X145269446Y-159754172D01*
X145238203Y-159755707D01*
X144600703Y-159755707D01*
X144569460Y-159754172D01*
X144538518Y-159749582D01*
X144508175Y-159741982D01*
X144478723Y-159731444D01*
X144450445Y-159718069D01*
X144423615Y-159701988D01*
X144398490Y-159683354D01*
X144375313Y-159662347D01*
X144354306Y-159639170D01*
X144335672Y-159614045D01*
X144319591Y-159587215D01*
X144306216Y-159558937D01*
X144295678Y-159529485D01*
X144288078Y-159499142D01*
X144283488Y-159468200D01*
X144281953Y-159436957D01*
X144281953Y-158724457D01*
X144283488Y-158693214D01*
X144288078Y-158662272D01*
X144295678Y-158631929D01*
X144306216Y-158602477D01*
X144319591Y-158574199D01*
X144335672Y-158547369D01*
X144354306Y-158522244D01*
X144375313Y-158499067D01*
X144398490Y-158478060D01*
X144423615Y-158459426D01*
X144450445Y-158443345D01*
X144478723Y-158429970D01*
X144508175Y-158419432D01*
X144538518Y-158411832D01*
X144569460Y-158407242D01*
X144600703Y-158405707D01*
X145238203Y-158405707D01*
X145269446Y-158407242D01*
X145269446Y-158407242D01*
G37*
D11*
X144919453Y-159080707D03*
D10*
G36*
X143694446Y-158407242D02*
X143725388Y-158411832D01*
X143755731Y-158419432D01*
X143785183Y-158429970D01*
X143813461Y-158443345D01*
X143840291Y-158459426D01*
X143865416Y-158478060D01*
X143888593Y-158499067D01*
X143909600Y-158522244D01*
X143928234Y-158547369D01*
X143944315Y-158574199D01*
X143957690Y-158602477D01*
X143968228Y-158631929D01*
X143975828Y-158662272D01*
X143980418Y-158693214D01*
X143981953Y-158724457D01*
X143981953Y-159436957D01*
X143980418Y-159468200D01*
X143975828Y-159499142D01*
X143968228Y-159529485D01*
X143957690Y-159558937D01*
X143944315Y-159587215D01*
X143928234Y-159614045D01*
X143909600Y-159639170D01*
X143888593Y-159662347D01*
X143865416Y-159683354D01*
X143840291Y-159701988D01*
X143813461Y-159718069D01*
X143785183Y-159731444D01*
X143755731Y-159741982D01*
X143725388Y-159749582D01*
X143694446Y-159754172D01*
X143663203Y-159755707D01*
X143025703Y-159755707D01*
X142994460Y-159754172D01*
X142963518Y-159749582D01*
X142933175Y-159741982D01*
X142903723Y-159731444D01*
X142875445Y-159718069D01*
X142848615Y-159701988D01*
X142823490Y-159683354D01*
X142800313Y-159662347D01*
X142779306Y-159639170D01*
X142760672Y-159614045D01*
X142744591Y-159587215D01*
X142731216Y-159558937D01*
X142720678Y-159529485D01*
X142713078Y-159499142D01*
X142708488Y-159468200D01*
X142706953Y-159436957D01*
X142706953Y-158724457D01*
X142708488Y-158693214D01*
X142713078Y-158662272D01*
X142720678Y-158631929D01*
X142731216Y-158602477D01*
X142744591Y-158574199D01*
X142760672Y-158547369D01*
X142779306Y-158522244D01*
X142800313Y-158499067D01*
X142823490Y-158478060D01*
X142848615Y-158459426D01*
X142875445Y-158443345D01*
X142903723Y-158429970D01*
X142933175Y-158419432D01*
X142963518Y-158411832D01*
X142994460Y-158407242D01*
X143025703Y-158405707D01*
X143663203Y-158405707D01*
X143694446Y-158407242D01*
X143694446Y-158407242D01*
G37*
D11*
X143344453Y-159080707D03*
G04 #@! TD*
D10*
G04 #@! TO.C,C14*
G36*
X147181946Y-159607242D02*
X147212888Y-159611832D01*
X147243231Y-159619432D01*
X147272683Y-159629970D01*
X147300961Y-159643345D01*
X147327791Y-159659426D01*
X147352916Y-159678060D01*
X147376093Y-159699067D01*
X147397100Y-159722244D01*
X147415734Y-159747369D01*
X147431815Y-159774199D01*
X147445190Y-159802477D01*
X147455728Y-159831929D01*
X147463328Y-159862272D01*
X147467918Y-159893214D01*
X147469453Y-159924457D01*
X147469453Y-160636957D01*
X147467918Y-160668200D01*
X147463328Y-160699142D01*
X147455728Y-160729485D01*
X147445190Y-160758937D01*
X147431815Y-160787215D01*
X147415734Y-160814045D01*
X147397100Y-160839170D01*
X147376093Y-160862347D01*
X147352916Y-160883354D01*
X147327791Y-160901988D01*
X147300961Y-160918069D01*
X147272683Y-160931444D01*
X147243231Y-160941982D01*
X147212888Y-160949582D01*
X147181946Y-160954172D01*
X147150703Y-160955707D01*
X146513203Y-160955707D01*
X146481960Y-160954172D01*
X146451018Y-160949582D01*
X146420675Y-160941982D01*
X146391223Y-160931444D01*
X146362945Y-160918069D01*
X146336115Y-160901988D01*
X146310990Y-160883354D01*
X146287813Y-160862347D01*
X146266806Y-160839170D01*
X146248172Y-160814045D01*
X146232091Y-160787215D01*
X146218716Y-160758937D01*
X146208178Y-160729485D01*
X146200578Y-160699142D01*
X146195988Y-160668200D01*
X146194453Y-160636957D01*
X146194453Y-159924457D01*
X146195988Y-159893214D01*
X146200578Y-159862272D01*
X146208178Y-159831929D01*
X146218716Y-159802477D01*
X146232091Y-159774199D01*
X146248172Y-159747369D01*
X146266806Y-159722244D01*
X146287813Y-159699067D01*
X146310990Y-159678060D01*
X146336115Y-159659426D01*
X146362945Y-159643345D01*
X146391223Y-159629970D01*
X146420675Y-159619432D01*
X146451018Y-159611832D01*
X146481960Y-159607242D01*
X146513203Y-159605707D01*
X147150703Y-159605707D01*
X147181946Y-159607242D01*
X147181946Y-159607242D01*
G37*
D11*
X146831953Y-160280707D03*
D10*
G36*
X148756946Y-159607242D02*
X148787888Y-159611832D01*
X148818231Y-159619432D01*
X148847683Y-159629970D01*
X148875961Y-159643345D01*
X148902791Y-159659426D01*
X148927916Y-159678060D01*
X148951093Y-159699067D01*
X148972100Y-159722244D01*
X148990734Y-159747369D01*
X149006815Y-159774199D01*
X149020190Y-159802477D01*
X149030728Y-159831929D01*
X149038328Y-159862272D01*
X149042918Y-159893214D01*
X149044453Y-159924457D01*
X149044453Y-160636957D01*
X149042918Y-160668200D01*
X149038328Y-160699142D01*
X149030728Y-160729485D01*
X149020190Y-160758937D01*
X149006815Y-160787215D01*
X148990734Y-160814045D01*
X148972100Y-160839170D01*
X148951093Y-160862347D01*
X148927916Y-160883354D01*
X148902791Y-160901988D01*
X148875961Y-160918069D01*
X148847683Y-160931444D01*
X148818231Y-160941982D01*
X148787888Y-160949582D01*
X148756946Y-160954172D01*
X148725703Y-160955707D01*
X148088203Y-160955707D01*
X148056960Y-160954172D01*
X148026018Y-160949582D01*
X147995675Y-160941982D01*
X147966223Y-160931444D01*
X147937945Y-160918069D01*
X147911115Y-160901988D01*
X147885990Y-160883354D01*
X147862813Y-160862347D01*
X147841806Y-160839170D01*
X147823172Y-160814045D01*
X147807091Y-160787215D01*
X147793716Y-160758937D01*
X147783178Y-160729485D01*
X147775578Y-160699142D01*
X147770988Y-160668200D01*
X147769453Y-160636957D01*
X147769453Y-159924457D01*
X147770988Y-159893214D01*
X147775578Y-159862272D01*
X147783178Y-159831929D01*
X147793716Y-159802477D01*
X147807091Y-159774199D01*
X147823172Y-159747369D01*
X147841806Y-159722244D01*
X147862813Y-159699067D01*
X147885990Y-159678060D01*
X147911115Y-159659426D01*
X147937945Y-159643345D01*
X147966223Y-159629970D01*
X147995675Y-159619432D01*
X148026018Y-159611832D01*
X148056960Y-159607242D01*
X148088203Y-159605707D01*
X148725703Y-159605707D01*
X148756946Y-159607242D01*
X148756946Y-159607242D01*
G37*
D11*
X148406953Y-160280707D03*
G04 #@! TD*
D10*
G04 #@! TO.C,L1*
G36*
X151545524Y-146427330D02*
X151578234Y-146432182D01*
X151610310Y-146440216D01*
X151641444Y-146451356D01*
X151671337Y-146465494D01*
X151699700Y-146482494D01*
X151726260Y-146502192D01*
X151750761Y-146524399D01*
X151772968Y-146548900D01*
X151792666Y-146575460D01*
X151809666Y-146603823D01*
X151823804Y-146633716D01*
X151834944Y-146664850D01*
X151842978Y-146696926D01*
X151847830Y-146729636D01*
X151849453Y-146762663D01*
X151849453Y-147638751D01*
X151847830Y-147671778D01*
X151842978Y-147704488D01*
X151834944Y-147736564D01*
X151823804Y-147767698D01*
X151809666Y-147797591D01*
X151792666Y-147825954D01*
X151772968Y-147852514D01*
X151750761Y-147877015D01*
X151726260Y-147899222D01*
X151699700Y-147918920D01*
X151671337Y-147935920D01*
X151641444Y-147950058D01*
X151610310Y-147961198D01*
X151578234Y-147969232D01*
X151545524Y-147974084D01*
X151512497Y-147975707D01*
X150386409Y-147975707D01*
X150353382Y-147974084D01*
X150320672Y-147969232D01*
X150288596Y-147961198D01*
X150257462Y-147950058D01*
X150227569Y-147935920D01*
X150199206Y-147918920D01*
X150172646Y-147899222D01*
X150148145Y-147877015D01*
X150125938Y-147852514D01*
X150106240Y-147825954D01*
X150089240Y-147797591D01*
X150075102Y-147767698D01*
X150063962Y-147736564D01*
X150055928Y-147704488D01*
X150051076Y-147671778D01*
X150049453Y-147638751D01*
X150049453Y-146762663D01*
X150051076Y-146729636D01*
X150055928Y-146696926D01*
X150063962Y-146664850D01*
X150075102Y-146633716D01*
X150089240Y-146603823D01*
X150106240Y-146575460D01*
X150125938Y-146548900D01*
X150148145Y-146524399D01*
X150172646Y-146502192D01*
X150199206Y-146482494D01*
X150227569Y-146465494D01*
X150257462Y-146451356D01*
X150288596Y-146440216D01*
X150320672Y-146432182D01*
X150353382Y-146427330D01*
X150386409Y-146425707D01*
X151512497Y-146425707D01*
X151545524Y-146427330D01*
X151545524Y-146427330D01*
G37*
D18*
X150949453Y-147200707D03*
D10*
G36*
X151545524Y-148477330D02*
X151578234Y-148482182D01*
X151610310Y-148490216D01*
X151641444Y-148501356D01*
X151671337Y-148515494D01*
X151699700Y-148532494D01*
X151726260Y-148552192D01*
X151750761Y-148574399D01*
X151772968Y-148598900D01*
X151792666Y-148625460D01*
X151809666Y-148653823D01*
X151823804Y-148683716D01*
X151834944Y-148714850D01*
X151842978Y-148746926D01*
X151847830Y-148779636D01*
X151849453Y-148812663D01*
X151849453Y-149688751D01*
X151847830Y-149721778D01*
X151842978Y-149754488D01*
X151834944Y-149786564D01*
X151823804Y-149817698D01*
X151809666Y-149847591D01*
X151792666Y-149875954D01*
X151772968Y-149902514D01*
X151750761Y-149927015D01*
X151726260Y-149949222D01*
X151699700Y-149968920D01*
X151671337Y-149985920D01*
X151641444Y-150000058D01*
X151610310Y-150011198D01*
X151578234Y-150019232D01*
X151545524Y-150024084D01*
X151512497Y-150025707D01*
X150386409Y-150025707D01*
X150353382Y-150024084D01*
X150320672Y-150019232D01*
X150288596Y-150011198D01*
X150257462Y-150000058D01*
X150227569Y-149985920D01*
X150199206Y-149968920D01*
X150172646Y-149949222D01*
X150148145Y-149927015D01*
X150125938Y-149902514D01*
X150106240Y-149875954D01*
X150089240Y-149847591D01*
X150075102Y-149817698D01*
X150063962Y-149786564D01*
X150055928Y-149754488D01*
X150051076Y-149721778D01*
X150049453Y-149688751D01*
X150049453Y-148812663D01*
X150051076Y-148779636D01*
X150055928Y-148746926D01*
X150063962Y-148714850D01*
X150075102Y-148683716D01*
X150089240Y-148653823D01*
X150106240Y-148625460D01*
X150125938Y-148598900D01*
X150148145Y-148574399D01*
X150172646Y-148552192D01*
X150199206Y-148532494D01*
X150227569Y-148515494D01*
X150257462Y-148501356D01*
X150288596Y-148490216D01*
X150320672Y-148482182D01*
X150353382Y-148477330D01*
X150386409Y-148475707D01*
X151512497Y-148475707D01*
X151545524Y-148477330D01*
X151545524Y-148477330D01*
G37*
D18*
X150949453Y-149250707D03*
G04 #@! TD*
D10*
G04 #@! TO.C,L2*
G36*
X148557347Y-135508079D02*
X148589880Y-135513998D01*
X148621676Y-135523078D01*
X148652429Y-135535231D01*
X148681843Y-135550340D01*
X149657063Y-136113384D01*
X149684854Y-136131303D01*
X149710756Y-136151859D01*
X149734517Y-136174856D01*
X149755910Y-136200070D01*
X149774729Y-136227260D01*
X149790792Y-136256164D01*
X149803944Y-136286503D01*
X149814060Y-136317985D01*
X149821040Y-136350308D01*
X149824820Y-136383158D01*
X149825361Y-136416221D01*
X149822658Y-136449178D01*
X149816739Y-136481711D01*
X149807659Y-136513507D01*
X149795506Y-136544260D01*
X149780397Y-136573674D01*
X149342353Y-137332388D01*
X149324435Y-137360179D01*
X149303878Y-137386081D01*
X149280881Y-137409842D01*
X149255667Y-137431235D01*
X149228477Y-137450054D01*
X149199573Y-137466117D01*
X149169234Y-137479269D01*
X149137752Y-137489385D01*
X149105430Y-137496365D01*
X149072579Y-137500145D01*
X149039516Y-137500686D01*
X149006559Y-137497983D01*
X148974026Y-137492064D01*
X148942230Y-137482984D01*
X148911477Y-137470831D01*
X148882063Y-137455722D01*
X147906843Y-136892678D01*
X147879052Y-136874759D01*
X147853150Y-136854203D01*
X147829389Y-136831206D01*
X147807996Y-136805992D01*
X147789177Y-136778802D01*
X147773114Y-136749898D01*
X147759962Y-136719559D01*
X147749846Y-136688077D01*
X147742866Y-136655754D01*
X147739086Y-136622904D01*
X147738545Y-136589841D01*
X147741248Y-136556884D01*
X147747167Y-136524351D01*
X147756247Y-136492555D01*
X147768400Y-136461802D01*
X147783509Y-136432388D01*
X148221553Y-135673674D01*
X148239471Y-135645883D01*
X148260028Y-135619981D01*
X148283025Y-135596220D01*
X148308239Y-135574827D01*
X148335429Y-135556008D01*
X148364333Y-135539945D01*
X148394672Y-135526793D01*
X148426154Y-135516677D01*
X148458476Y-135509697D01*
X148491327Y-135505917D01*
X148524390Y-135505376D01*
X148557347Y-135508079D01*
X148557347Y-135508079D01*
G37*
D18*
X148781953Y-136503031D03*
D10*
G36*
X147532347Y-137283431D02*
X147564880Y-137289350D01*
X147596676Y-137298430D01*
X147627429Y-137310583D01*
X147656843Y-137325692D01*
X148632063Y-137888736D01*
X148659854Y-137906655D01*
X148685756Y-137927211D01*
X148709517Y-137950208D01*
X148730910Y-137975422D01*
X148749729Y-138002612D01*
X148765792Y-138031516D01*
X148778944Y-138061855D01*
X148789060Y-138093337D01*
X148796040Y-138125660D01*
X148799820Y-138158510D01*
X148800361Y-138191573D01*
X148797658Y-138224530D01*
X148791739Y-138257063D01*
X148782659Y-138288859D01*
X148770506Y-138319612D01*
X148755397Y-138349026D01*
X148317353Y-139107740D01*
X148299435Y-139135531D01*
X148278878Y-139161433D01*
X148255881Y-139185194D01*
X148230667Y-139206587D01*
X148203477Y-139225406D01*
X148174573Y-139241469D01*
X148144234Y-139254621D01*
X148112752Y-139264737D01*
X148080430Y-139271717D01*
X148047579Y-139275497D01*
X148014516Y-139276038D01*
X147981559Y-139273335D01*
X147949026Y-139267416D01*
X147917230Y-139258336D01*
X147886477Y-139246183D01*
X147857063Y-139231074D01*
X146881843Y-138668030D01*
X146854052Y-138650111D01*
X146828150Y-138629555D01*
X146804389Y-138606558D01*
X146782996Y-138581344D01*
X146764177Y-138554154D01*
X146748114Y-138525250D01*
X146734962Y-138494911D01*
X146724846Y-138463429D01*
X146717866Y-138431106D01*
X146714086Y-138398256D01*
X146713545Y-138365193D01*
X146716248Y-138332236D01*
X146722167Y-138299703D01*
X146731247Y-138267907D01*
X146743400Y-138237154D01*
X146758509Y-138207740D01*
X147196553Y-137449026D01*
X147214471Y-137421235D01*
X147235028Y-137395333D01*
X147258025Y-137371572D01*
X147283239Y-137350179D01*
X147310429Y-137331360D01*
X147339333Y-137315297D01*
X147369672Y-137302145D01*
X147401154Y-137292029D01*
X147433476Y-137285049D01*
X147466327Y-137281269D01*
X147499390Y-137280728D01*
X147532347Y-137283431D01*
X147532347Y-137283431D01*
G37*
D18*
X147756953Y-138278383D03*
G04 #@! TD*
D19*
G04 #@! TO.C,MUX1*
X143214661Y-139472982D03*
D10*
G36*
X143321600Y-138437758D02*
X144057722Y-138862758D01*
X143107722Y-140508206D01*
X142371600Y-140083206D01*
X143321600Y-138437758D01*
X143321600Y-138437758D01*
G37*
D19*
X142651744Y-139147982D03*
D10*
G36*
X142758683Y-138112758D02*
X143494805Y-138537758D01*
X142544805Y-140183206D01*
X141808683Y-139758206D01*
X142758683Y-138112758D01*
X142758683Y-138112758D01*
G37*
D19*
X142088828Y-138822982D03*
D10*
G36*
X142195767Y-137787758D02*
X142931889Y-138212758D01*
X141981889Y-139858206D01*
X141245767Y-139433206D01*
X142195767Y-137787758D01*
X142195767Y-137787758D01*
G37*
D19*
X141525911Y-138497982D03*
D10*
G36*
X141632850Y-137462758D02*
X142368972Y-137887758D01*
X141418972Y-139533206D01*
X140682850Y-139108206D01*
X141632850Y-137462758D01*
X141632850Y-137462758D01*
G37*
D19*
X140962995Y-138172982D03*
D10*
G36*
X141069934Y-137137758D02*
X141806056Y-137562758D01*
X140856056Y-139208206D01*
X140119934Y-138783206D01*
X141069934Y-137137758D01*
X141069934Y-137137758D01*
G37*
D19*
X140400078Y-137847982D03*
D10*
G36*
X140507017Y-136812758D02*
X141243139Y-137237758D01*
X140293139Y-138883206D01*
X139557017Y-138458206D01*
X140507017Y-136812758D01*
X140507017Y-136812758D01*
G37*
D19*
X139837162Y-137522982D03*
D10*
G36*
X139944101Y-136487758D02*
X140680223Y-136912758D01*
X139730223Y-138558206D01*
X138994101Y-138133206D01*
X139944101Y-136487758D01*
X139944101Y-136487758D01*
G37*
D19*
X139274245Y-137197982D03*
D10*
G36*
X139381184Y-136162758D02*
X140117306Y-136587758D01*
X139167306Y-138233206D01*
X138431184Y-137808206D01*
X139381184Y-136162758D01*
X139381184Y-136162758D01*
G37*
D19*
X142224245Y-132088432D03*
D10*
G36*
X142331184Y-131053208D02*
X143067306Y-131478208D01*
X142117306Y-133123656D01*
X141381184Y-132698656D01*
X142331184Y-131053208D01*
X142331184Y-131053208D01*
G37*
D19*
X142787162Y-132413432D03*
D10*
G36*
X142894101Y-131378208D02*
X143630223Y-131803208D01*
X142680223Y-133448656D01*
X141944101Y-133023656D01*
X142894101Y-131378208D01*
X142894101Y-131378208D01*
G37*
D19*
X143350078Y-132738432D03*
D10*
G36*
X143457017Y-131703208D02*
X144193139Y-132128208D01*
X143243139Y-133773656D01*
X142507017Y-133348656D01*
X143457017Y-131703208D01*
X143457017Y-131703208D01*
G37*
D19*
X143912995Y-133063432D03*
D10*
G36*
X144019934Y-132028208D02*
X144756056Y-132453208D01*
X143806056Y-134098656D01*
X143069934Y-133673656D01*
X144019934Y-132028208D01*
X144019934Y-132028208D01*
G37*
D19*
X144475911Y-133388432D03*
D10*
G36*
X144582850Y-132353208D02*
X145318972Y-132778208D01*
X144368972Y-134423656D01*
X143632850Y-133998656D01*
X144582850Y-132353208D01*
X144582850Y-132353208D01*
G37*
D19*
X145038828Y-133713432D03*
D10*
G36*
X145145767Y-132678208D02*
X145881889Y-133103208D01*
X144931889Y-134748656D01*
X144195767Y-134323656D01*
X145145767Y-132678208D01*
X145145767Y-132678208D01*
G37*
D19*
X145601744Y-134038432D03*
D10*
G36*
X145708683Y-133003208D02*
X146444805Y-133428208D01*
X145494805Y-135073656D01*
X144758683Y-134648656D01*
X145708683Y-133003208D01*
X145708683Y-133003208D01*
G37*
D19*
X146164661Y-134363432D03*
D10*
G36*
X146271600Y-133328208D02*
X147007722Y-133753208D01*
X146057722Y-135398656D01*
X145321600Y-134973656D01*
X146271600Y-133328208D01*
X146271600Y-133328208D01*
G37*
G04 #@! TD*
D20*
G04 #@! TO.C,MUX2*
X135169453Y-155855707D03*
X135169453Y-155205707D03*
X135169453Y-154555707D03*
X135169453Y-153905707D03*
X135169453Y-153255707D03*
X135169453Y-152605707D03*
X135169453Y-151955707D03*
X135169453Y-151305707D03*
X141069453Y-151305707D03*
X141069453Y-151955707D03*
X141069453Y-152605707D03*
X141069453Y-153255707D03*
X141069453Y-153905707D03*
X141069453Y-154555707D03*
X141069453Y-155205707D03*
X141069453Y-155855707D03*
G04 #@! TD*
D21*
G04 #@! TO.C,MUX3*
X133094453Y-165480707D03*
X132444453Y-165480707D03*
X131794453Y-165480707D03*
X131144453Y-165480707D03*
X130494453Y-165480707D03*
X129844453Y-165480707D03*
X129194453Y-165480707D03*
X128544453Y-165480707D03*
X128544453Y-159580707D03*
X129194453Y-159580707D03*
X129844453Y-159580707D03*
X130494453Y-159580707D03*
X131144453Y-159580707D03*
X131794453Y-159580707D03*
X132444453Y-159580707D03*
X133094453Y-159580707D03*
G04 #@! TD*
D19*
G04 #@! TO.C,MUX4*
X129122693Y-178836710D03*
D10*
G36*
X129846981Y-179584059D02*
X129048243Y-179874777D01*
X128398405Y-178089361D01*
X129197143Y-177798643D01*
X129846981Y-179584059D01*
X129846981Y-179584059D01*
G37*
D19*
X129733493Y-178614397D03*
D10*
G36*
X130457781Y-179361746D02*
X129659043Y-179652464D01*
X129009205Y-177867048D01*
X129807943Y-177576330D01*
X130457781Y-179361746D01*
X130457781Y-179361746D01*
G37*
D19*
X130344293Y-178392083D03*
D10*
G36*
X131068581Y-179139432D02*
X130269843Y-179430150D01*
X129620005Y-177644734D01*
X130418743Y-177354016D01*
X131068581Y-179139432D01*
X131068581Y-179139432D01*
G37*
D19*
X130955093Y-178169770D03*
D10*
G36*
X131679381Y-178917119D02*
X130880643Y-179207837D01*
X130230805Y-177422421D01*
X131029543Y-177131703D01*
X131679381Y-178917119D01*
X131679381Y-178917119D01*
G37*
D19*
X131565894Y-177947457D03*
D10*
G36*
X132290182Y-178694806D02*
X131491444Y-178985524D01*
X130841606Y-177200108D01*
X131640344Y-176909390D01*
X132290182Y-178694806D01*
X132290182Y-178694806D01*
G37*
D19*
X132176694Y-177725144D03*
D10*
G36*
X132900982Y-178472493D02*
X132102244Y-178763211D01*
X131452406Y-176977795D01*
X132251144Y-176687077D01*
X132900982Y-178472493D01*
X132900982Y-178472493D01*
G37*
D19*
X132787494Y-177502831D03*
D10*
G36*
X133511782Y-178250180D02*
X132713044Y-178540898D01*
X132063206Y-176755482D01*
X132861944Y-176464764D01*
X133511782Y-178250180D01*
X133511782Y-178250180D01*
G37*
D19*
X133398294Y-177280518D03*
D10*
G36*
X134122582Y-178027867D02*
X133323844Y-178318585D01*
X132674006Y-176533169D01*
X133472744Y-176242451D01*
X134122582Y-178027867D01*
X134122582Y-178027867D01*
G37*
D19*
X135416213Y-182824704D03*
D10*
G36*
X136140501Y-183572053D02*
X135341763Y-183862771D01*
X134691925Y-182077355D01*
X135490663Y-181786637D01*
X136140501Y-183572053D01*
X136140501Y-183572053D01*
G37*
D19*
X134805413Y-183047017D03*
D10*
G36*
X135529701Y-183794366D02*
X134730963Y-184085084D01*
X134081125Y-182299668D01*
X134879863Y-182008950D01*
X135529701Y-183794366D01*
X135529701Y-183794366D01*
G37*
D19*
X134194613Y-183269331D03*
D10*
G36*
X134918901Y-184016680D02*
X134120163Y-184307398D01*
X133470325Y-182521982D01*
X134269063Y-182231264D01*
X134918901Y-184016680D01*
X134918901Y-184016680D01*
G37*
D19*
X133583813Y-183491644D03*
D10*
G36*
X134308101Y-184238993D02*
X133509363Y-184529711D01*
X132859525Y-182744295D01*
X133658263Y-182453577D01*
X134308101Y-184238993D01*
X134308101Y-184238993D01*
G37*
D19*
X132973012Y-183713957D03*
D10*
G36*
X133697300Y-184461306D02*
X132898562Y-184752024D01*
X132248724Y-182966608D01*
X133047462Y-182675890D01*
X133697300Y-184461306D01*
X133697300Y-184461306D01*
G37*
D19*
X132362212Y-183936270D03*
D10*
G36*
X133086500Y-184683619D02*
X132287762Y-184974337D01*
X131637924Y-183188921D01*
X132436662Y-182898203D01*
X133086500Y-184683619D01*
X133086500Y-184683619D01*
G37*
D19*
X131751412Y-184158583D03*
D10*
G36*
X132475700Y-184905932D02*
X131676962Y-185196650D01*
X131027124Y-183411234D01*
X131825862Y-183120516D01*
X132475700Y-184905932D01*
X132475700Y-184905932D01*
G37*
D19*
X131140612Y-184380896D03*
D10*
G36*
X131864900Y-185128245D02*
X131066162Y-185418963D01*
X130416324Y-183633547D01*
X131215062Y-183342829D01*
X131864900Y-185128245D01*
X131864900Y-185128245D01*
G37*
G04 #@! TD*
D22*
G04 #@! TO.C,Q2*
X151919453Y-154680707D03*
X152869453Y-156680707D03*
X150969453Y-156680707D03*
G04 #@! TD*
D10*
G04 #@! TO.C,R1*
G36*
X143081841Y-178325456D02*
X143112540Y-178331458D01*
X143142504Y-178340440D01*
X143171442Y-178352316D01*
X143199077Y-178366971D01*
X143225143Y-178384264D01*
X143249388Y-178404029D01*
X143271579Y-178426076D01*
X143291502Y-178450191D01*
X143308966Y-178476143D01*
X143323802Y-178503681D01*
X143335867Y-178532542D01*
X143345045Y-178562445D01*
X143351248Y-178593105D01*
X143354416Y-178624225D01*
X143387780Y-179260851D01*
X143387883Y-179292131D01*
X143384918Y-179323271D01*
X143378916Y-179353971D01*
X143369934Y-179383934D01*
X143358058Y-179412873D01*
X143343403Y-179440508D01*
X143326109Y-179466573D01*
X143306344Y-179490818D01*
X143284298Y-179513009D01*
X143260183Y-179532933D01*
X143234231Y-179550396D01*
X143206692Y-179565232D01*
X143177832Y-179577297D01*
X143147928Y-179586475D01*
X143117269Y-179592678D01*
X143086149Y-179595846D01*
X142374625Y-179633136D01*
X142343345Y-179633239D01*
X142312205Y-179630274D01*
X142281506Y-179624272D01*
X142251542Y-179615290D01*
X142222604Y-179603414D01*
X142194969Y-179588759D01*
X142168903Y-179571466D01*
X142144658Y-179551701D01*
X142122467Y-179529654D01*
X142102544Y-179505539D01*
X142085080Y-179479587D01*
X142070244Y-179452049D01*
X142058179Y-179423188D01*
X142049001Y-179393285D01*
X142042798Y-179362625D01*
X142039630Y-179331505D01*
X142006266Y-178694879D01*
X142006163Y-178663599D01*
X142009128Y-178632459D01*
X142015130Y-178601759D01*
X142024112Y-178571796D01*
X142035988Y-178542857D01*
X142050643Y-178515222D01*
X142067937Y-178489157D01*
X142087702Y-178464912D01*
X142109748Y-178442721D01*
X142133863Y-178422797D01*
X142159815Y-178405334D01*
X142187354Y-178390498D01*
X142216214Y-178378433D01*
X142246118Y-178369255D01*
X142276777Y-178363052D01*
X142307897Y-178359884D01*
X143019421Y-178322594D01*
X143050701Y-178322491D01*
X143081841Y-178325456D01*
X143081841Y-178325456D01*
G37*
D11*
X142697023Y-178977865D03*
D10*
G36*
X143164271Y-179898298D02*
X143194970Y-179904300D01*
X143224934Y-179913282D01*
X143253872Y-179925158D01*
X143281507Y-179939813D01*
X143307573Y-179957106D01*
X143331818Y-179976871D01*
X143354009Y-179998918D01*
X143373932Y-180023033D01*
X143391396Y-180048985D01*
X143406232Y-180076523D01*
X143418297Y-180105384D01*
X143427475Y-180135287D01*
X143433678Y-180165947D01*
X143436846Y-180197067D01*
X143470210Y-180833693D01*
X143470313Y-180864973D01*
X143467348Y-180896113D01*
X143461346Y-180926813D01*
X143452364Y-180956776D01*
X143440488Y-180985715D01*
X143425833Y-181013350D01*
X143408539Y-181039415D01*
X143388774Y-181063660D01*
X143366728Y-181085851D01*
X143342613Y-181105775D01*
X143316661Y-181123238D01*
X143289122Y-181138074D01*
X143260262Y-181150139D01*
X143230358Y-181159317D01*
X143199699Y-181165520D01*
X143168579Y-181168688D01*
X142457055Y-181205978D01*
X142425775Y-181206081D01*
X142394635Y-181203116D01*
X142363936Y-181197114D01*
X142333972Y-181188132D01*
X142305034Y-181176256D01*
X142277399Y-181161601D01*
X142251333Y-181144308D01*
X142227088Y-181124543D01*
X142204897Y-181102496D01*
X142184974Y-181078381D01*
X142167510Y-181052429D01*
X142152674Y-181024891D01*
X142140609Y-180996030D01*
X142131431Y-180966127D01*
X142125228Y-180935467D01*
X142122060Y-180904347D01*
X142088696Y-180267721D01*
X142088593Y-180236441D01*
X142091558Y-180205301D01*
X142097560Y-180174601D01*
X142106542Y-180144638D01*
X142118418Y-180115699D01*
X142133073Y-180088064D01*
X142150367Y-180061999D01*
X142170132Y-180037754D01*
X142192178Y-180015563D01*
X142216293Y-179995639D01*
X142242245Y-179978176D01*
X142269784Y-179963340D01*
X142298644Y-179951275D01*
X142328548Y-179942097D01*
X142359207Y-179935894D01*
X142390327Y-179932726D01*
X143101851Y-179895436D01*
X143133131Y-179895333D01*
X143164271Y-179898298D01*
X143164271Y-179898298D01*
G37*
D11*
X142779453Y-180550707D03*
G04 #@! TD*
D10*
G04 #@! TO.C,R2*
G36*
X147094446Y-150307242D02*
X147125388Y-150311832D01*
X147155731Y-150319432D01*
X147185183Y-150329970D01*
X147213461Y-150343345D01*
X147240291Y-150359426D01*
X147265416Y-150378060D01*
X147288593Y-150399067D01*
X147309600Y-150422244D01*
X147328234Y-150447369D01*
X147344315Y-150474199D01*
X147357690Y-150502477D01*
X147368228Y-150531929D01*
X147375828Y-150562272D01*
X147380418Y-150593214D01*
X147381953Y-150624457D01*
X147381953Y-151336957D01*
X147380418Y-151368200D01*
X147375828Y-151399142D01*
X147368228Y-151429485D01*
X147357690Y-151458937D01*
X147344315Y-151487215D01*
X147328234Y-151514045D01*
X147309600Y-151539170D01*
X147288593Y-151562347D01*
X147265416Y-151583354D01*
X147240291Y-151601988D01*
X147213461Y-151618069D01*
X147185183Y-151631444D01*
X147155731Y-151641982D01*
X147125388Y-151649582D01*
X147094446Y-151654172D01*
X147063203Y-151655707D01*
X146425703Y-151655707D01*
X146394460Y-151654172D01*
X146363518Y-151649582D01*
X146333175Y-151641982D01*
X146303723Y-151631444D01*
X146275445Y-151618069D01*
X146248615Y-151601988D01*
X146223490Y-151583354D01*
X146200313Y-151562347D01*
X146179306Y-151539170D01*
X146160672Y-151514045D01*
X146144591Y-151487215D01*
X146131216Y-151458937D01*
X146120678Y-151429485D01*
X146113078Y-151399142D01*
X146108488Y-151368200D01*
X146106953Y-151336957D01*
X146106953Y-150624457D01*
X146108488Y-150593214D01*
X146113078Y-150562272D01*
X146120678Y-150531929D01*
X146131216Y-150502477D01*
X146144591Y-150474199D01*
X146160672Y-150447369D01*
X146179306Y-150422244D01*
X146200313Y-150399067D01*
X146223490Y-150378060D01*
X146248615Y-150359426D01*
X146275445Y-150343345D01*
X146303723Y-150329970D01*
X146333175Y-150319432D01*
X146363518Y-150311832D01*
X146394460Y-150307242D01*
X146425703Y-150305707D01*
X147063203Y-150305707D01*
X147094446Y-150307242D01*
X147094446Y-150307242D01*
G37*
D11*
X146744453Y-150980707D03*
D10*
G36*
X148669446Y-150307242D02*
X148700388Y-150311832D01*
X148730731Y-150319432D01*
X148760183Y-150329970D01*
X148788461Y-150343345D01*
X148815291Y-150359426D01*
X148840416Y-150378060D01*
X148863593Y-150399067D01*
X148884600Y-150422244D01*
X148903234Y-150447369D01*
X148919315Y-150474199D01*
X148932690Y-150502477D01*
X148943228Y-150531929D01*
X148950828Y-150562272D01*
X148955418Y-150593214D01*
X148956953Y-150624457D01*
X148956953Y-151336957D01*
X148955418Y-151368200D01*
X148950828Y-151399142D01*
X148943228Y-151429485D01*
X148932690Y-151458937D01*
X148919315Y-151487215D01*
X148903234Y-151514045D01*
X148884600Y-151539170D01*
X148863593Y-151562347D01*
X148840416Y-151583354D01*
X148815291Y-151601988D01*
X148788461Y-151618069D01*
X148760183Y-151631444D01*
X148730731Y-151641982D01*
X148700388Y-151649582D01*
X148669446Y-151654172D01*
X148638203Y-151655707D01*
X148000703Y-151655707D01*
X147969460Y-151654172D01*
X147938518Y-151649582D01*
X147908175Y-151641982D01*
X147878723Y-151631444D01*
X147850445Y-151618069D01*
X147823615Y-151601988D01*
X147798490Y-151583354D01*
X147775313Y-151562347D01*
X147754306Y-151539170D01*
X147735672Y-151514045D01*
X147719591Y-151487215D01*
X147706216Y-151458937D01*
X147695678Y-151429485D01*
X147688078Y-151399142D01*
X147683488Y-151368200D01*
X147681953Y-151336957D01*
X147681953Y-150624457D01*
X147683488Y-150593214D01*
X147688078Y-150562272D01*
X147695678Y-150531929D01*
X147706216Y-150502477D01*
X147719591Y-150474199D01*
X147735672Y-150447369D01*
X147754306Y-150422244D01*
X147775313Y-150399067D01*
X147798490Y-150378060D01*
X147823615Y-150359426D01*
X147850445Y-150343345D01*
X147878723Y-150329970D01*
X147908175Y-150319432D01*
X147938518Y-150311832D01*
X147969460Y-150307242D01*
X148000703Y-150305707D01*
X148638203Y-150305707D01*
X148669446Y-150307242D01*
X148669446Y-150307242D01*
G37*
D11*
X148319453Y-150980707D03*
G04 #@! TD*
D10*
G04 #@! TO.C,R3*
G36*
X147081946Y-151907242D02*
X147112888Y-151911832D01*
X147143231Y-151919432D01*
X147172683Y-151929970D01*
X147200961Y-151943345D01*
X147227791Y-151959426D01*
X147252916Y-151978060D01*
X147276093Y-151999067D01*
X147297100Y-152022244D01*
X147315734Y-152047369D01*
X147331815Y-152074199D01*
X147345190Y-152102477D01*
X147355728Y-152131929D01*
X147363328Y-152162272D01*
X147367918Y-152193214D01*
X147369453Y-152224457D01*
X147369453Y-152936957D01*
X147367918Y-152968200D01*
X147363328Y-152999142D01*
X147355728Y-153029485D01*
X147345190Y-153058937D01*
X147331815Y-153087215D01*
X147315734Y-153114045D01*
X147297100Y-153139170D01*
X147276093Y-153162347D01*
X147252916Y-153183354D01*
X147227791Y-153201988D01*
X147200961Y-153218069D01*
X147172683Y-153231444D01*
X147143231Y-153241982D01*
X147112888Y-153249582D01*
X147081946Y-153254172D01*
X147050703Y-153255707D01*
X146413203Y-153255707D01*
X146381960Y-153254172D01*
X146351018Y-153249582D01*
X146320675Y-153241982D01*
X146291223Y-153231444D01*
X146262945Y-153218069D01*
X146236115Y-153201988D01*
X146210990Y-153183354D01*
X146187813Y-153162347D01*
X146166806Y-153139170D01*
X146148172Y-153114045D01*
X146132091Y-153087215D01*
X146118716Y-153058937D01*
X146108178Y-153029485D01*
X146100578Y-152999142D01*
X146095988Y-152968200D01*
X146094453Y-152936957D01*
X146094453Y-152224457D01*
X146095988Y-152193214D01*
X146100578Y-152162272D01*
X146108178Y-152131929D01*
X146118716Y-152102477D01*
X146132091Y-152074199D01*
X146148172Y-152047369D01*
X146166806Y-152022244D01*
X146187813Y-151999067D01*
X146210990Y-151978060D01*
X146236115Y-151959426D01*
X146262945Y-151943345D01*
X146291223Y-151929970D01*
X146320675Y-151919432D01*
X146351018Y-151911832D01*
X146381960Y-151907242D01*
X146413203Y-151905707D01*
X147050703Y-151905707D01*
X147081946Y-151907242D01*
X147081946Y-151907242D01*
G37*
D11*
X146731953Y-152580707D03*
D10*
G36*
X148656946Y-151907242D02*
X148687888Y-151911832D01*
X148718231Y-151919432D01*
X148747683Y-151929970D01*
X148775961Y-151943345D01*
X148802791Y-151959426D01*
X148827916Y-151978060D01*
X148851093Y-151999067D01*
X148872100Y-152022244D01*
X148890734Y-152047369D01*
X148906815Y-152074199D01*
X148920190Y-152102477D01*
X148930728Y-152131929D01*
X148938328Y-152162272D01*
X148942918Y-152193214D01*
X148944453Y-152224457D01*
X148944453Y-152936957D01*
X148942918Y-152968200D01*
X148938328Y-152999142D01*
X148930728Y-153029485D01*
X148920190Y-153058937D01*
X148906815Y-153087215D01*
X148890734Y-153114045D01*
X148872100Y-153139170D01*
X148851093Y-153162347D01*
X148827916Y-153183354D01*
X148802791Y-153201988D01*
X148775961Y-153218069D01*
X148747683Y-153231444D01*
X148718231Y-153241982D01*
X148687888Y-153249582D01*
X148656946Y-153254172D01*
X148625703Y-153255707D01*
X147988203Y-153255707D01*
X147956960Y-153254172D01*
X147926018Y-153249582D01*
X147895675Y-153241982D01*
X147866223Y-153231444D01*
X147837945Y-153218069D01*
X147811115Y-153201988D01*
X147785990Y-153183354D01*
X147762813Y-153162347D01*
X147741806Y-153139170D01*
X147723172Y-153114045D01*
X147707091Y-153087215D01*
X147693716Y-153058937D01*
X147683178Y-153029485D01*
X147675578Y-152999142D01*
X147670988Y-152968200D01*
X147669453Y-152936957D01*
X147669453Y-152224457D01*
X147670988Y-152193214D01*
X147675578Y-152162272D01*
X147683178Y-152131929D01*
X147693716Y-152102477D01*
X147707091Y-152074199D01*
X147723172Y-152047369D01*
X147741806Y-152022244D01*
X147762813Y-151999067D01*
X147785990Y-151978060D01*
X147811115Y-151959426D01*
X147837945Y-151943345D01*
X147866223Y-151929970D01*
X147895675Y-151919432D01*
X147926018Y-151911832D01*
X147956960Y-151907242D01*
X147988203Y-151905707D01*
X148625703Y-151905707D01*
X148656946Y-151907242D01*
X148656946Y-151907242D01*
G37*
D11*
X148306953Y-152580707D03*
G04 #@! TD*
D10*
G04 #@! TO.C,R5*
G36*
X138637893Y-189536099D02*
X138668693Y-189541565D01*
X138698808Y-189550023D01*
X138727949Y-189561392D01*
X138755836Y-189575563D01*
X138782200Y-189592399D01*
X138806786Y-189611737D01*
X138829358Y-189633393D01*
X138849699Y-189657157D01*
X138867613Y-189682800D01*
X138882927Y-189710076D01*
X138895494Y-189738721D01*
X138905193Y-189768460D01*
X138911930Y-189799007D01*
X138915641Y-189830066D01*
X138960111Y-190466013D01*
X138960759Y-190497287D01*
X138958339Y-190528474D01*
X138952873Y-190559273D01*
X138944415Y-190589389D01*
X138933046Y-190618530D01*
X138918875Y-190646417D01*
X138902040Y-190672780D01*
X138882701Y-190697367D01*
X138861045Y-190719939D01*
X138837281Y-190740280D01*
X138811638Y-190758194D01*
X138784363Y-190773508D01*
X138755717Y-190786075D01*
X138725978Y-190795774D01*
X138695432Y-190802511D01*
X138664372Y-190806222D01*
X137953608Y-190855923D01*
X137922334Y-190856571D01*
X137891147Y-190854151D01*
X137860347Y-190848685D01*
X137830232Y-190840227D01*
X137801091Y-190828858D01*
X137773204Y-190814687D01*
X137746840Y-190797851D01*
X137722254Y-190778513D01*
X137699682Y-190756857D01*
X137679341Y-190733093D01*
X137661427Y-190707450D01*
X137646113Y-190680174D01*
X137633546Y-190651529D01*
X137623847Y-190621790D01*
X137617110Y-190591243D01*
X137613399Y-190560184D01*
X137568929Y-189924237D01*
X137568281Y-189892963D01*
X137570701Y-189861776D01*
X137576167Y-189830977D01*
X137584625Y-189800861D01*
X137595994Y-189771720D01*
X137610165Y-189743833D01*
X137627000Y-189717470D01*
X137646339Y-189692883D01*
X137667995Y-189670311D01*
X137691759Y-189649970D01*
X137717402Y-189632056D01*
X137744677Y-189616742D01*
X137773323Y-189604175D01*
X137803062Y-189594476D01*
X137833608Y-189587739D01*
X137864668Y-189584028D01*
X138575432Y-189534327D01*
X138606706Y-189533679D01*
X138637893Y-189536099D01*
X138637893Y-189536099D01*
G37*
D11*
X138264520Y-190195125D03*
D10*
G36*
X138747759Y-191107263D02*
X138778559Y-191112729D01*
X138808674Y-191121187D01*
X138837815Y-191132556D01*
X138865702Y-191146727D01*
X138892066Y-191163563D01*
X138916652Y-191182901D01*
X138939224Y-191204557D01*
X138959565Y-191228321D01*
X138977479Y-191253964D01*
X138992793Y-191281240D01*
X139005360Y-191309885D01*
X139015059Y-191339624D01*
X139021796Y-191370171D01*
X139025507Y-191401230D01*
X139069977Y-192037177D01*
X139070625Y-192068451D01*
X139068205Y-192099638D01*
X139062739Y-192130437D01*
X139054281Y-192160553D01*
X139042912Y-192189694D01*
X139028741Y-192217581D01*
X139011906Y-192243944D01*
X138992567Y-192268531D01*
X138970911Y-192291103D01*
X138947147Y-192311444D01*
X138921504Y-192329358D01*
X138894229Y-192344672D01*
X138865583Y-192357239D01*
X138835844Y-192366938D01*
X138805298Y-192373675D01*
X138774238Y-192377386D01*
X138063474Y-192427087D01*
X138032200Y-192427735D01*
X138001013Y-192425315D01*
X137970213Y-192419849D01*
X137940098Y-192411391D01*
X137910957Y-192400022D01*
X137883070Y-192385851D01*
X137856706Y-192369015D01*
X137832120Y-192349677D01*
X137809548Y-192328021D01*
X137789207Y-192304257D01*
X137771293Y-192278614D01*
X137755979Y-192251338D01*
X137743412Y-192222693D01*
X137733713Y-192192954D01*
X137726976Y-192162407D01*
X137723265Y-192131348D01*
X137678795Y-191495401D01*
X137678147Y-191464127D01*
X137680567Y-191432940D01*
X137686033Y-191402141D01*
X137694491Y-191372025D01*
X137705860Y-191342884D01*
X137720031Y-191314997D01*
X137736866Y-191288634D01*
X137756205Y-191264047D01*
X137777861Y-191241475D01*
X137801625Y-191221134D01*
X137827268Y-191203220D01*
X137854543Y-191187906D01*
X137883189Y-191175339D01*
X137912928Y-191165640D01*
X137943474Y-191158903D01*
X137974534Y-191155192D01*
X138685298Y-191105491D01*
X138716572Y-191104843D01*
X138747759Y-191107263D01*
X138747759Y-191107263D01*
G37*
D11*
X138374386Y-191766289D03*
G04 #@! TD*
D10*
G04 #@! TO.C,R6*
G36*
X145494446Y-165207242D02*
X145525388Y-165211832D01*
X145555731Y-165219432D01*
X145585183Y-165229970D01*
X145613461Y-165243345D01*
X145640291Y-165259426D01*
X145665416Y-165278060D01*
X145688593Y-165299067D01*
X145709600Y-165322244D01*
X145728234Y-165347369D01*
X145744315Y-165374199D01*
X145757690Y-165402477D01*
X145768228Y-165431929D01*
X145775828Y-165462272D01*
X145780418Y-165493214D01*
X145781953Y-165524457D01*
X145781953Y-166236957D01*
X145780418Y-166268200D01*
X145775828Y-166299142D01*
X145768228Y-166329485D01*
X145757690Y-166358937D01*
X145744315Y-166387215D01*
X145728234Y-166414045D01*
X145709600Y-166439170D01*
X145688593Y-166462347D01*
X145665416Y-166483354D01*
X145640291Y-166501988D01*
X145613461Y-166518069D01*
X145585183Y-166531444D01*
X145555731Y-166541982D01*
X145525388Y-166549582D01*
X145494446Y-166554172D01*
X145463203Y-166555707D01*
X144825703Y-166555707D01*
X144794460Y-166554172D01*
X144763518Y-166549582D01*
X144733175Y-166541982D01*
X144703723Y-166531444D01*
X144675445Y-166518069D01*
X144648615Y-166501988D01*
X144623490Y-166483354D01*
X144600313Y-166462347D01*
X144579306Y-166439170D01*
X144560672Y-166414045D01*
X144544591Y-166387215D01*
X144531216Y-166358937D01*
X144520678Y-166329485D01*
X144513078Y-166299142D01*
X144508488Y-166268200D01*
X144506953Y-166236957D01*
X144506953Y-165524457D01*
X144508488Y-165493214D01*
X144513078Y-165462272D01*
X144520678Y-165431929D01*
X144531216Y-165402477D01*
X144544591Y-165374199D01*
X144560672Y-165347369D01*
X144579306Y-165322244D01*
X144600313Y-165299067D01*
X144623490Y-165278060D01*
X144648615Y-165259426D01*
X144675445Y-165243345D01*
X144703723Y-165229970D01*
X144733175Y-165219432D01*
X144763518Y-165211832D01*
X144794460Y-165207242D01*
X144825703Y-165205707D01*
X145463203Y-165205707D01*
X145494446Y-165207242D01*
X145494446Y-165207242D01*
G37*
D11*
X145144453Y-165880707D03*
D10*
G36*
X147069446Y-165207242D02*
X147100388Y-165211832D01*
X147130731Y-165219432D01*
X147160183Y-165229970D01*
X147188461Y-165243345D01*
X147215291Y-165259426D01*
X147240416Y-165278060D01*
X147263593Y-165299067D01*
X147284600Y-165322244D01*
X147303234Y-165347369D01*
X147319315Y-165374199D01*
X147332690Y-165402477D01*
X147343228Y-165431929D01*
X147350828Y-165462272D01*
X147355418Y-165493214D01*
X147356953Y-165524457D01*
X147356953Y-166236957D01*
X147355418Y-166268200D01*
X147350828Y-166299142D01*
X147343228Y-166329485D01*
X147332690Y-166358937D01*
X147319315Y-166387215D01*
X147303234Y-166414045D01*
X147284600Y-166439170D01*
X147263593Y-166462347D01*
X147240416Y-166483354D01*
X147215291Y-166501988D01*
X147188461Y-166518069D01*
X147160183Y-166531444D01*
X147130731Y-166541982D01*
X147100388Y-166549582D01*
X147069446Y-166554172D01*
X147038203Y-166555707D01*
X146400703Y-166555707D01*
X146369460Y-166554172D01*
X146338518Y-166549582D01*
X146308175Y-166541982D01*
X146278723Y-166531444D01*
X146250445Y-166518069D01*
X146223615Y-166501988D01*
X146198490Y-166483354D01*
X146175313Y-166462347D01*
X146154306Y-166439170D01*
X146135672Y-166414045D01*
X146119591Y-166387215D01*
X146106216Y-166358937D01*
X146095678Y-166329485D01*
X146088078Y-166299142D01*
X146083488Y-166268200D01*
X146081953Y-166236957D01*
X146081953Y-165524457D01*
X146083488Y-165493214D01*
X146088078Y-165462272D01*
X146095678Y-165431929D01*
X146106216Y-165402477D01*
X146119591Y-165374199D01*
X146135672Y-165347369D01*
X146154306Y-165322244D01*
X146175313Y-165299067D01*
X146198490Y-165278060D01*
X146223615Y-165259426D01*
X146250445Y-165243345D01*
X146278723Y-165229970D01*
X146308175Y-165219432D01*
X146338518Y-165211832D01*
X146369460Y-165207242D01*
X146400703Y-165205707D01*
X147038203Y-165205707D01*
X147069446Y-165207242D01*
X147069446Y-165207242D01*
G37*
D11*
X146719453Y-165880707D03*
G04 #@! TD*
D10*
G04 #@! TO.C,R7*
G36*
X137581946Y-148757242D02*
X137612888Y-148761832D01*
X137643231Y-148769432D01*
X137672683Y-148779970D01*
X137700961Y-148793345D01*
X137727791Y-148809426D01*
X137752916Y-148828060D01*
X137776093Y-148849067D01*
X137797100Y-148872244D01*
X137815734Y-148897369D01*
X137831815Y-148924199D01*
X137845190Y-148952477D01*
X137855728Y-148981929D01*
X137863328Y-149012272D01*
X137867918Y-149043214D01*
X137869453Y-149074457D01*
X137869453Y-149786957D01*
X137867918Y-149818200D01*
X137863328Y-149849142D01*
X137855728Y-149879485D01*
X137845190Y-149908937D01*
X137831815Y-149937215D01*
X137815734Y-149964045D01*
X137797100Y-149989170D01*
X137776093Y-150012347D01*
X137752916Y-150033354D01*
X137727791Y-150051988D01*
X137700961Y-150068069D01*
X137672683Y-150081444D01*
X137643231Y-150091982D01*
X137612888Y-150099582D01*
X137581946Y-150104172D01*
X137550703Y-150105707D01*
X136913203Y-150105707D01*
X136881960Y-150104172D01*
X136851018Y-150099582D01*
X136820675Y-150091982D01*
X136791223Y-150081444D01*
X136762945Y-150068069D01*
X136736115Y-150051988D01*
X136710990Y-150033354D01*
X136687813Y-150012347D01*
X136666806Y-149989170D01*
X136648172Y-149964045D01*
X136632091Y-149937215D01*
X136618716Y-149908937D01*
X136608178Y-149879485D01*
X136600578Y-149849142D01*
X136595988Y-149818200D01*
X136594453Y-149786957D01*
X136594453Y-149074457D01*
X136595988Y-149043214D01*
X136600578Y-149012272D01*
X136608178Y-148981929D01*
X136618716Y-148952477D01*
X136632091Y-148924199D01*
X136648172Y-148897369D01*
X136666806Y-148872244D01*
X136687813Y-148849067D01*
X136710990Y-148828060D01*
X136736115Y-148809426D01*
X136762945Y-148793345D01*
X136791223Y-148779970D01*
X136820675Y-148769432D01*
X136851018Y-148761832D01*
X136881960Y-148757242D01*
X136913203Y-148755707D01*
X137550703Y-148755707D01*
X137581946Y-148757242D01*
X137581946Y-148757242D01*
G37*
D11*
X137231953Y-149430707D03*
D10*
G36*
X139156946Y-148757242D02*
X139187888Y-148761832D01*
X139218231Y-148769432D01*
X139247683Y-148779970D01*
X139275961Y-148793345D01*
X139302791Y-148809426D01*
X139327916Y-148828060D01*
X139351093Y-148849067D01*
X139372100Y-148872244D01*
X139390734Y-148897369D01*
X139406815Y-148924199D01*
X139420190Y-148952477D01*
X139430728Y-148981929D01*
X139438328Y-149012272D01*
X139442918Y-149043214D01*
X139444453Y-149074457D01*
X139444453Y-149786957D01*
X139442918Y-149818200D01*
X139438328Y-149849142D01*
X139430728Y-149879485D01*
X139420190Y-149908937D01*
X139406815Y-149937215D01*
X139390734Y-149964045D01*
X139372100Y-149989170D01*
X139351093Y-150012347D01*
X139327916Y-150033354D01*
X139302791Y-150051988D01*
X139275961Y-150068069D01*
X139247683Y-150081444D01*
X139218231Y-150091982D01*
X139187888Y-150099582D01*
X139156946Y-150104172D01*
X139125703Y-150105707D01*
X138488203Y-150105707D01*
X138456960Y-150104172D01*
X138426018Y-150099582D01*
X138395675Y-150091982D01*
X138366223Y-150081444D01*
X138337945Y-150068069D01*
X138311115Y-150051988D01*
X138285990Y-150033354D01*
X138262813Y-150012347D01*
X138241806Y-149989170D01*
X138223172Y-149964045D01*
X138207091Y-149937215D01*
X138193716Y-149908937D01*
X138183178Y-149879485D01*
X138175578Y-149849142D01*
X138170988Y-149818200D01*
X138169453Y-149786957D01*
X138169453Y-149074457D01*
X138170988Y-149043214D01*
X138175578Y-149012272D01*
X138183178Y-148981929D01*
X138193716Y-148952477D01*
X138207091Y-148924199D01*
X138223172Y-148897369D01*
X138241806Y-148872244D01*
X138262813Y-148849067D01*
X138285990Y-148828060D01*
X138311115Y-148809426D01*
X138337945Y-148793345D01*
X138366223Y-148779970D01*
X138395675Y-148769432D01*
X138426018Y-148761832D01*
X138456960Y-148757242D01*
X138488203Y-148755707D01*
X139125703Y-148755707D01*
X139156946Y-148757242D01*
X139156946Y-148757242D01*
G37*
D11*
X138806953Y-149430707D03*
G04 #@! TD*
D10*
G04 #@! TO.C,R8*
G36*
X152806946Y-128244742D02*
X152837888Y-128249332D01*
X152868231Y-128256932D01*
X152897683Y-128267470D01*
X152925961Y-128280845D01*
X152952791Y-128296926D01*
X152977916Y-128315560D01*
X153001093Y-128336567D01*
X153022100Y-128359744D01*
X153040734Y-128384869D01*
X153056815Y-128411699D01*
X153070190Y-128439977D01*
X153080728Y-128469429D01*
X153088328Y-128499772D01*
X153092918Y-128530714D01*
X153094453Y-128561957D01*
X153094453Y-129199457D01*
X153092918Y-129230700D01*
X153088328Y-129261642D01*
X153080728Y-129291985D01*
X153070190Y-129321437D01*
X153056815Y-129349715D01*
X153040734Y-129376545D01*
X153022100Y-129401670D01*
X153001093Y-129424847D01*
X152977916Y-129445854D01*
X152952791Y-129464488D01*
X152925961Y-129480569D01*
X152897683Y-129493944D01*
X152868231Y-129504482D01*
X152837888Y-129512082D01*
X152806946Y-129516672D01*
X152775703Y-129518207D01*
X152063203Y-129518207D01*
X152031960Y-129516672D01*
X152001018Y-129512082D01*
X151970675Y-129504482D01*
X151941223Y-129493944D01*
X151912945Y-129480569D01*
X151886115Y-129464488D01*
X151860990Y-129445854D01*
X151837813Y-129424847D01*
X151816806Y-129401670D01*
X151798172Y-129376545D01*
X151782091Y-129349715D01*
X151768716Y-129321437D01*
X151758178Y-129291985D01*
X151750578Y-129261642D01*
X151745988Y-129230700D01*
X151744453Y-129199457D01*
X151744453Y-128561957D01*
X151745988Y-128530714D01*
X151750578Y-128499772D01*
X151758178Y-128469429D01*
X151768716Y-128439977D01*
X151782091Y-128411699D01*
X151798172Y-128384869D01*
X151816806Y-128359744D01*
X151837813Y-128336567D01*
X151860990Y-128315560D01*
X151886115Y-128296926D01*
X151912945Y-128280845D01*
X151941223Y-128267470D01*
X151970675Y-128256932D01*
X152001018Y-128249332D01*
X152031960Y-128244742D01*
X152063203Y-128243207D01*
X152775703Y-128243207D01*
X152806946Y-128244742D01*
X152806946Y-128244742D01*
G37*
D11*
X152419453Y-128880707D03*
D10*
G36*
X152806946Y-129819742D02*
X152837888Y-129824332D01*
X152868231Y-129831932D01*
X152897683Y-129842470D01*
X152925961Y-129855845D01*
X152952791Y-129871926D01*
X152977916Y-129890560D01*
X153001093Y-129911567D01*
X153022100Y-129934744D01*
X153040734Y-129959869D01*
X153056815Y-129986699D01*
X153070190Y-130014977D01*
X153080728Y-130044429D01*
X153088328Y-130074772D01*
X153092918Y-130105714D01*
X153094453Y-130136957D01*
X153094453Y-130774457D01*
X153092918Y-130805700D01*
X153088328Y-130836642D01*
X153080728Y-130866985D01*
X153070190Y-130896437D01*
X153056815Y-130924715D01*
X153040734Y-130951545D01*
X153022100Y-130976670D01*
X153001093Y-130999847D01*
X152977916Y-131020854D01*
X152952791Y-131039488D01*
X152925961Y-131055569D01*
X152897683Y-131068944D01*
X152868231Y-131079482D01*
X152837888Y-131087082D01*
X152806946Y-131091672D01*
X152775703Y-131093207D01*
X152063203Y-131093207D01*
X152031960Y-131091672D01*
X152001018Y-131087082D01*
X151970675Y-131079482D01*
X151941223Y-131068944D01*
X151912945Y-131055569D01*
X151886115Y-131039488D01*
X151860990Y-131020854D01*
X151837813Y-130999847D01*
X151816806Y-130976670D01*
X151798172Y-130951545D01*
X151782091Y-130924715D01*
X151768716Y-130896437D01*
X151758178Y-130866985D01*
X151750578Y-130836642D01*
X151745988Y-130805700D01*
X151744453Y-130774457D01*
X151744453Y-130136957D01*
X151745988Y-130105714D01*
X151750578Y-130074772D01*
X151758178Y-130044429D01*
X151768716Y-130014977D01*
X151782091Y-129986699D01*
X151798172Y-129959869D01*
X151816806Y-129934744D01*
X151837813Y-129911567D01*
X151860990Y-129890560D01*
X151886115Y-129871926D01*
X151912945Y-129855845D01*
X151941223Y-129842470D01*
X151970675Y-129831932D01*
X152001018Y-129824332D01*
X152031960Y-129819742D01*
X152063203Y-129818207D01*
X152775703Y-129818207D01*
X152806946Y-129819742D01*
X152806946Y-129819742D01*
G37*
D11*
X152419453Y-130455707D03*
G04 #@! TD*
D10*
G04 #@! TO.C,R9*
G36*
X155806946Y-128257242D02*
X155837888Y-128261832D01*
X155868231Y-128269432D01*
X155897683Y-128279970D01*
X155925961Y-128293345D01*
X155952791Y-128309426D01*
X155977916Y-128328060D01*
X156001093Y-128349067D01*
X156022100Y-128372244D01*
X156040734Y-128397369D01*
X156056815Y-128424199D01*
X156070190Y-128452477D01*
X156080728Y-128481929D01*
X156088328Y-128512272D01*
X156092918Y-128543214D01*
X156094453Y-128574457D01*
X156094453Y-129211957D01*
X156092918Y-129243200D01*
X156088328Y-129274142D01*
X156080728Y-129304485D01*
X156070190Y-129333937D01*
X156056815Y-129362215D01*
X156040734Y-129389045D01*
X156022100Y-129414170D01*
X156001093Y-129437347D01*
X155977916Y-129458354D01*
X155952791Y-129476988D01*
X155925961Y-129493069D01*
X155897683Y-129506444D01*
X155868231Y-129516982D01*
X155837888Y-129524582D01*
X155806946Y-129529172D01*
X155775703Y-129530707D01*
X155063203Y-129530707D01*
X155031960Y-129529172D01*
X155001018Y-129524582D01*
X154970675Y-129516982D01*
X154941223Y-129506444D01*
X154912945Y-129493069D01*
X154886115Y-129476988D01*
X154860990Y-129458354D01*
X154837813Y-129437347D01*
X154816806Y-129414170D01*
X154798172Y-129389045D01*
X154782091Y-129362215D01*
X154768716Y-129333937D01*
X154758178Y-129304485D01*
X154750578Y-129274142D01*
X154745988Y-129243200D01*
X154744453Y-129211957D01*
X154744453Y-128574457D01*
X154745988Y-128543214D01*
X154750578Y-128512272D01*
X154758178Y-128481929D01*
X154768716Y-128452477D01*
X154782091Y-128424199D01*
X154798172Y-128397369D01*
X154816806Y-128372244D01*
X154837813Y-128349067D01*
X154860990Y-128328060D01*
X154886115Y-128309426D01*
X154912945Y-128293345D01*
X154941223Y-128279970D01*
X154970675Y-128269432D01*
X155001018Y-128261832D01*
X155031960Y-128257242D01*
X155063203Y-128255707D01*
X155775703Y-128255707D01*
X155806946Y-128257242D01*
X155806946Y-128257242D01*
G37*
D11*
X155419453Y-128893207D03*
D10*
G36*
X155806946Y-129832242D02*
X155837888Y-129836832D01*
X155868231Y-129844432D01*
X155897683Y-129854970D01*
X155925961Y-129868345D01*
X155952791Y-129884426D01*
X155977916Y-129903060D01*
X156001093Y-129924067D01*
X156022100Y-129947244D01*
X156040734Y-129972369D01*
X156056815Y-129999199D01*
X156070190Y-130027477D01*
X156080728Y-130056929D01*
X156088328Y-130087272D01*
X156092918Y-130118214D01*
X156094453Y-130149457D01*
X156094453Y-130786957D01*
X156092918Y-130818200D01*
X156088328Y-130849142D01*
X156080728Y-130879485D01*
X156070190Y-130908937D01*
X156056815Y-130937215D01*
X156040734Y-130964045D01*
X156022100Y-130989170D01*
X156001093Y-131012347D01*
X155977916Y-131033354D01*
X155952791Y-131051988D01*
X155925961Y-131068069D01*
X155897683Y-131081444D01*
X155868231Y-131091982D01*
X155837888Y-131099582D01*
X155806946Y-131104172D01*
X155775703Y-131105707D01*
X155063203Y-131105707D01*
X155031960Y-131104172D01*
X155001018Y-131099582D01*
X154970675Y-131091982D01*
X154941223Y-131081444D01*
X154912945Y-131068069D01*
X154886115Y-131051988D01*
X154860990Y-131033354D01*
X154837813Y-131012347D01*
X154816806Y-130989170D01*
X154798172Y-130964045D01*
X154782091Y-130937215D01*
X154768716Y-130908937D01*
X154758178Y-130879485D01*
X154750578Y-130849142D01*
X154745988Y-130818200D01*
X154744453Y-130786957D01*
X154744453Y-130149457D01*
X154745988Y-130118214D01*
X154750578Y-130087272D01*
X154758178Y-130056929D01*
X154768716Y-130027477D01*
X154782091Y-129999199D01*
X154798172Y-129972369D01*
X154816806Y-129947244D01*
X154837813Y-129924067D01*
X154860990Y-129903060D01*
X154886115Y-129884426D01*
X154912945Y-129868345D01*
X154941223Y-129854970D01*
X154970675Y-129844432D01*
X155001018Y-129836832D01*
X155031960Y-129832242D01*
X155063203Y-129830707D01*
X155775703Y-129830707D01*
X155806946Y-129832242D01*
X155806946Y-129832242D01*
G37*
D11*
X155419453Y-130468207D03*
G04 #@! TD*
D10*
G04 #@! TO.C,R10*
G36*
X149947446Y-173149242D02*
X149978388Y-173153832D01*
X150008731Y-173161432D01*
X150038183Y-173171970D01*
X150066461Y-173185345D01*
X150093291Y-173201426D01*
X150118416Y-173220060D01*
X150141593Y-173241067D01*
X150162600Y-173264244D01*
X150181234Y-173289369D01*
X150197315Y-173316199D01*
X150210690Y-173344477D01*
X150221228Y-173373929D01*
X150228828Y-173404272D01*
X150233418Y-173435214D01*
X150234953Y-173466457D01*
X150234953Y-174178957D01*
X150233418Y-174210200D01*
X150228828Y-174241142D01*
X150221228Y-174271485D01*
X150210690Y-174300937D01*
X150197315Y-174329215D01*
X150181234Y-174356045D01*
X150162600Y-174381170D01*
X150141593Y-174404347D01*
X150118416Y-174425354D01*
X150093291Y-174443988D01*
X150066461Y-174460069D01*
X150038183Y-174473444D01*
X150008731Y-174483982D01*
X149978388Y-174491582D01*
X149947446Y-174496172D01*
X149916203Y-174497707D01*
X149278703Y-174497707D01*
X149247460Y-174496172D01*
X149216518Y-174491582D01*
X149186175Y-174483982D01*
X149156723Y-174473444D01*
X149128445Y-174460069D01*
X149101615Y-174443988D01*
X149076490Y-174425354D01*
X149053313Y-174404347D01*
X149032306Y-174381170D01*
X149013672Y-174356045D01*
X148997591Y-174329215D01*
X148984216Y-174300937D01*
X148973678Y-174271485D01*
X148966078Y-174241142D01*
X148961488Y-174210200D01*
X148959953Y-174178957D01*
X148959953Y-173466457D01*
X148961488Y-173435214D01*
X148966078Y-173404272D01*
X148973678Y-173373929D01*
X148984216Y-173344477D01*
X148997591Y-173316199D01*
X149013672Y-173289369D01*
X149032306Y-173264244D01*
X149053313Y-173241067D01*
X149076490Y-173220060D01*
X149101615Y-173201426D01*
X149128445Y-173185345D01*
X149156723Y-173171970D01*
X149186175Y-173161432D01*
X149216518Y-173153832D01*
X149247460Y-173149242D01*
X149278703Y-173147707D01*
X149916203Y-173147707D01*
X149947446Y-173149242D01*
X149947446Y-173149242D01*
G37*
D11*
X149597453Y-173822707D03*
D10*
G36*
X151522446Y-173149242D02*
X151553388Y-173153832D01*
X151583731Y-173161432D01*
X151613183Y-173171970D01*
X151641461Y-173185345D01*
X151668291Y-173201426D01*
X151693416Y-173220060D01*
X151716593Y-173241067D01*
X151737600Y-173264244D01*
X151756234Y-173289369D01*
X151772315Y-173316199D01*
X151785690Y-173344477D01*
X151796228Y-173373929D01*
X151803828Y-173404272D01*
X151808418Y-173435214D01*
X151809953Y-173466457D01*
X151809953Y-174178957D01*
X151808418Y-174210200D01*
X151803828Y-174241142D01*
X151796228Y-174271485D01*
X151785690Y-174300937D01*
X151772315Y-174329215D01*
X151756234Y-174356045D01*
X151737600Y-174381170D01*
X151716593Y-174404347D01*
X151693416Y-174425354D01*
X151668291Y-174443988D01*
X151641461Y-174460069D01*
X151613183Y-174473444D01*
X151583731Y-174483982D01*
X151553388Y-174491582D01*
X151522446Y-174496172D01*
X151491203Y-174497707D01*
X150853703Y-174497707D01*
X150822460Y-174496172D01*
X150791518Y-174491582D01*
X150761175Y-174483982D01*
X150731723Y-174473444D01*
X150703445Y-174460069D01*
X150676615Y-174443988D01*
X150651490Y-174425354D01*
X150628313Y-174404347D01*
X150607306Y-174381170D01*
X150588672Y-174356045D01*
X150572591Y-174329215D01*
X150559216Y-174300937D01*
X150548678Y-174271485D01*
X150541078Y-174241142D01*
X150536488Y-174210200D01*
X150534953Y-174178957D01*
X150534953Y-173466457D01*
X150536488Y-173435214D01*
X150541078Y-173404272D01*
X150548678Y-173373929D01*
X150559216Y-173344477D01*
X150572591Y-173316199D01*
X150588672Y-173289369D01*
X150607306Y-173264244D01*
X150628313Y-173241067D01*
X150651490Y-173220060D01*
X150676615Y-173201426D01*
X150703445Y-173185345D01*
X150731723Y-173171970D01*
X150761175Y-173161432D01*
X150791518Y-173153832D01*
X150822460Y-173149242D01*
X150853703Y-173147707D01*
X151491203Y-173147707D01*
X151522446Y-173149242D01*
X151522446Y-173149242D01*
G37*
D11*
X151172453Y-173822707D03*
G04 #@! TD*
D10*
G04 #@! TO.C,R11*
G36*
X152940642Y-184412542D02*
X152971532Y-184417469D01*
X153001791Y-184425400D01*
X153031126Y-184436258D01*
X153059256Y-184449940D01*
X153085909Y-184466313D01*
X153110829Y-184485220D01*
X153133776Y-184506479D01*
X153154529Y-184529884D01*
X153172888Y-184555210D01*
X153188676Y-184582215D01*
X153201741Y-184610636D01*
X153211957Y-184640201D01*
X153219226Y-184670626D01*
X153223478Y-184701616D01*
X153285576Y-185411404D01*
X153286770Y-185442662D01*
X153284894Y-185473886D01*
X153279967Y-185504777D01*
X153272036Y-185535035D01*
X153261177Y-185564371D01*
X153247496Y-185592500D01*
X153231122Y-185619154D01*
X153212216Y-185644074D01*
X153190957Y-185667021D01*
X153167552Y-185687773D01*
X153142225Y-185706132D01*
X153115221Y-185721920D01*
X153086800Y-185734985D01*
X153057234Y-185745201D01*
X153026810Y-185752470D01*
X152995820Y-185756722D01*
X152360746Y-185812284D01*
X152329488Y-185813478D01*
X152298264Y-185811602D01*
X152267374Y-185806675D01*
X152237115Y-185798744D01*
X152207780Y-185787886D01*
X152179650Y-185774204D01*
X152152997Y-185757831D01*
X152128077Y-185738924D01*
X152105130Y-185717665D01*
X152084377Y-185694260D01*
X152066018Y-185668934D01*
X152050230Y-185641929D01*
X152037165Y-185613508D01*
X152026949Y-185583943D01*
X152019680Y-185553518D01*
X152015428Y-185522528D01*
X151953330Y-184812740D01*
X151952136Y-184781482D01*
X151954012Y-184750258D01*
X151958939Y-184719367D01*
X151966870Y-184689109D01*
X151977729Y-184659773D01*
X151991410Y-184631644D01*
X152007784Y-184604990D01*
X152026690Y-184580070D01*
X152047949Y-184557123D01*
X152071354Y-184536371D01*
X152096681Y-184518012D01*
X152123685Y-184502224D01*
X152152106Y-184489159D01*
X152181672Y-184478943D01*
X152212096Y-184471674D01*
X152243086Y-184467422D01*
X152878160Y-184411860D01*
X152909418Y-184410666D01*
X152940642Y-184412542D01*
X152940642Y-184412542D01*
G37*
D11*
X152619453Y-185112072D03*
D10*
G36*
X151371636Y-184549812D02*
X151402526Y-184554739D01*
X151432785Y-184562670D01*
X151462120Y-184573528D01*
X151490250Y-184587210D01*
X151516903Y-184603583D01*
X151541823Y-184622490D01*
X151564770Y-184643749D01*
X151585523Y-184667154D01*
X151603882Y-184692480D01*
X151619670Y-184719485D01*
X151632735Y-184747906D01*
X151642951Y-184777471D01*
X151650220Y-184807896D01*
X151654472Y-184838886D01*
X151716570Y-185548674D01*
X151717764Y-185579932D01*
X151715888Y-185611156D01*
X151710961Y-185642047D01*
X151703030Y-185672305D01*
X151692171Y-185701641D01*
X151678490Y-185729770D01*
X151662116Y-185756424D01*
X151643210Y-185781344D01*
X151621951Y-185804291D01*
X151598546Y-185825043D01*
X151573219Y-185843402D01*
X151546215Y-185859190D01*
X151517794Y-185872255D01*
X151488228Y-185882471D01*
X151457804Y-185889740D01*
X151426814Y-185893992D01*
X150791740Y-185949554D01*
X150760482Y-185950748D01*
X150729258Y-185948872D01*
X150698368Y-185943945D01*
X150668109Y-185936014D01*
X150638774Y-185925156D01*
X150610644Y-185911474D01*
X150583991Y-185895101D01*
X150559071Y-185876194D01*
X150536124Y-185854935D01*
X150515371Y-185831530D01*
X150497012Y-185806204D01*
X150481224Y-185779199D01*
X150468159Y-185750778D01*
X150457943Y-185721213D01*
X150450674Y-185690788D01*
X150446422Y-185659798D01*
X150384324Y-184950010D01*
X150383130Y-184918752D01*
X150385006Y-184887528D01*
X150389933Y-184856637D01*
X150397864Y-184826379D01*
X150408723Y-184797043D01*
X150422404Y-184768914D01*
X150438778Y-184742260D01*
X150457684Y-184717340D01*
X150478943Y-184694393D01*
X150502348Y-184673641D01*
X150527675Y-184655282D01*
X150554679Y-184639494D01*
X150583100Y-184626429D01*
X150612666Y-184616213D01*
X150643090Y-184608944D01*
X150674080Y-184604692D01*
X151309154Y-184549130D01*
X151340412Y-184547936D01*
X151371636Y-184549812D01*
X151371636Y-184549812D01*
G37*
D11*
X151050447Y-185249342D03*
G04 #@! TD*
D10*
G04 #@! TO.C,R12*
G36*
X148806946Y-161144742D02*
X148837888Y-161149332D01*
X148868231Y-161156932D01*
X148897683Y-161167470D01*
X148925961Y-161180845D01*
X148952791Y-161196926D01*
X148977916Y-161215560D01*
X149001093Y-161236567D01*
X149022100Y-161259744D01*
X149040734Y-161284869D01*
X149056815Y-161311699D01*
X149070190Y-161339977D01*
X149080728Y-161369429D01*
X149088328Y-161399772D01*
X149092918Y-161430714D01*
X149094453Y-161461957D01*
X149094453Y-162099457D01*
X149092918Y-162130700D01*
X149088328Y-162161642D01*
X149080728Y-162191985D01*
X149070190Y-162221437D01*
X149056815Y-162249715D01*
X149040734Y-162276545D01*
X149022100Y-162301670D01*
X149001093Y-162324847D01*
X148977916Y-162345854D01*
X148952791Y-162364488D01*
X148925961Y-162380569D01*
X148897683Y-162393944D01*
X148868231Y-162404482D01*
X148837888Y-162412082D01*
X148806946Y-162416672D01*
X148775703Y-162418207D01*
X148063203Y-162418207D01*
X148031960Y-162416672D01*
X148001018Y-162412082D01*
X147970675Y-162404482D01*
X147941223Y-162393944D01*
X147912945Y-162380569D01*
X147886115Y-162364488D01*
X147860990Y-162345854D01*
X147837813Y-162324847D01*
X147816806Y-162301670D01*
X147798172Y-162276545D01*
X147782091Y-162249715D01*
X147768716Y-162221437D01*
X147758178Y-162191985D01*
X147750578Y-162161642D01*
X147745988Y-162130700D01*
X147744453Y-162099457D01*
X147744453Y-161461957D01*
X147745988Y-161430714D01*
X147750578Y-161399772D01*
X147758178Y-161369429D01*
X147768716Y-161339977D01*
X147782091Y-161311699D01*
X147798172Y-161284869D01*
X147816806Y-161259744D01*
X147837813Y-161236567D01*
X147860990Y-161215560D01*
X147886115Y-161196926D01*
X147912945Y-161180845D01*
X147941223Y-161167470D01*
X147970675Y-161156932D01*
X148001018Y-161149332D01*
X148031960Y-161144742D01*
X148063203Y-161143207D01*
X148775703Y-161143207D01*
X148806946Y-161144742D01*
X148806946Y-161144742D01*
G37*
D11*
X148419453Y-161780707D03*
D10*
G36*
X148806946Y-162719742D02*
X148837888Y-162724332D01*
X148868231Y-162731932D01*
X148897683Y-162742470D01*
X148925961Y-162755845D01*
X148952791Y-162771926D01*
X148977916Y-162790560D01*
X149001093Y-162811567D01*
X149022100Y-162834744D01*
X149040734Y-162859869D01*
X149056815Y-162886699D01*
X149070190Y-162914977D01*
X149080728Y-162944429D01*
X149088328Y-162974772D01*
X149092918Y-163005714D01*
X149094453Y-163036957D01*
X149094453Y-163674457D01*
X149092918Y-163705700D01*
X149088328Y-163736642D01*
X149080728Y-163766985D01*
X149070190Y-163796437D01*
X149056815Y-163824715D01*
X149040734Y-163851545D01*
X149022100Y-163876670D01*
X149001093Y-163899847D01*
X148977916Y-163920854D01*
X148952791Y-163939488D01*
X148925961Y-163955569D01*
X148897683Y-163968944D01*
X148868231Y-163979482D01*
X148837888Y-163987082D01*
X148806946Y-163991672D01*
X148775703Y-163993207D01*
X148063203Y-163993207D01*
X148031960Y-163991672D01*
X148001018Y-163987082D01*
X147970675Y-163979482D01*
X147941223Y-163968944D01*
X147912945Y-163955569D01*
X147886115Y-163939488D01*
X147860990Y-163920854D01*
X147837813Y-163899847D01*
X147816806Y-163876670D01*
X147798172Y-163851545D01*
X147782091Y-163824715D01*
X147768716Y-163796437D01*
X147758178Y-163766985D01*
X147750578Y-163736642D01*
X147745988Y-163705700D01*
X147744453Y-163674457D01*
X147744453Y-163036957D01*
X147745988Y-163005714D01*
X147750578Y-162974772D01*
X147758178Y-162944429D01*
X147768716Y-162914977D01*
X147782091Y-162886699D01*
X147798172Y-162859869D01*
X147816806Y-162834744D01*
X147837813Y-162811567D01*
X147860990Y-162790560D01*
X147886115Y-162771926D01*
X147912945Y-162755845D01*
X147941223Y-162742470D01*
X147970675Y-162731932D01*
X148001018Y-162724332D01*
X148031960Y-162719742D01*
X148063203Y-162718207D01*
X148775703Y-162718207D01*
X148806946Y-162719742D01*
X148806946Y-162719742D01*
G37*
D11*
X148419453Y-163355707D03*
G04 #@! TD*
D10*
G04 #@! TO.C,R13*
G36*
X147106946Y-162732242D02*
X147137888Y-162736832D01*
X147168231Y-162744432D01*
X147197683Y-162754970D01*
X147225961Y-162768345D01*
X147252791Y-162784426D01*
X147277916Y-162803060D01*
X147301093Y-162824067D01*
X147322100Y-162847244D01*
X147340734Y-162872369D01*
X147356815Y-162899199D01*
X147370190Y-162927477D01*
X147380728Y-162956929D01*
X147388328Y-162987272D01*
X147392918Y-163018214D01*
X147394453Y-163049457D01*
X147394453Y-163686957D01*
X147392918Y-163718200D01*
X147388328Y-163749142D01*
X147380728Y-163779485D01*
X147370190Y-163808937D01*
X147356815Y-163837215D01*
X147340734Y-163864045D01*
X147322100Y-163889170D01*
X147301093Y-163912347D01*
X147277916Y-163933354D01*
X147252791Y-163951988D01*
X147225961Y-163968069D01*
X147197683Y-163981444D01*
X147168231Y-163991982D01*
X147137888Y-163999582D01*
X147106946Y-164004172D01*
X147075703Y-164005707D01*
X146363203Y-164005707D01*
X146331960Y-164004172D01*
X146301018Y-163999582D01*
X146270675Y-163991982D01*
X146241223Y-163981444D01*
X146212945Y-163968069D01*
X146186115Y-163951988D01*
X146160990Y-163933354D01*
X146137813Y-163912347D01*
X146116806Y-163889170D01*
X146098172Y-163864045D01*
X146082091Y-163837215D01*
X146068716Y-163808937D01*
X146058178Y-163779485D01*
X146050578Y-163749142D01*
X146045988Y-163718200D01*
X146044453Y-163686957D01*
X146044453Y-163049457D01*
X146045988Y-163018214D01*
X146050578Y-162987272D01*
X146058178Y-162956929D01*
X146068716Y-162927477D01*
X146082091Y-162899199D01*
X146098172Y-162872369D01*
X146116806Y-162847244D01*
X146137813Y-162824067D01*
X146160990Y-162803060D01*
X146186115Y-162784426D01*
X146212945Y-162768345D01*
X146241223Y-162754970D01*
X146270675Y-162744432D01*
X146301018Y-162736832D01*
X146331960Y-162732242D01*
X146363203Y-162730707D01*
X147075703Y-162730707D01*
X147106946Y-162732242D01*
X147106946Y-162732242D01*
G37*
D11*
X146719453Y-163368207D03*
D10*
G36*
X147106946Y-161157242D02*
X147137888Y-161161832D01*
X147168231Y-161169432D01*
X147197683Y-161179970D01*
X147225961Y-161193345D01*
X147252791Y-161209426D01*
X147277916Y-161228060D01*
X147301093Y-161249067D01*
X147322100Y-161272244D01*
X147340734Y-161297369D01*
X147356815Y-161324199D01*
X147370190Y-161352477D01*
X147380728Y-161381929D01*
X147388328Y-161412272D01*
X147392918Y-161443214D01*
X147394453Y-161474457D01*
X147394453Y-162111957D01*
X147392918Y-162143200D01*
X147388328Y-162174142D01*
X147380728Y-162204485D01*
X147370190Y-162233937D01*
X147356815Y-162262215D01*
X147340734Y-162289045D01*
X147322100Y-162314170D01*
X147301093Y-162337347D01*
X147277916Y-162358354D01*
X147252791Y-162376988D01*
X147225961Y-162393069D01*
X147197683Y-162406444D01*
X147168231Y-162416982D01*
X147137888Y-162424582D01*
X147106946Y-162429172D01*
X147075703Y-162430707D01*
X146363203Y-162430707D01*
X146331960Y-162429172D01*
X146301018Y-162424582D01*
X146270675Y-162416982D01*
X146241223Y-162406444D01*
X146212945Y-162393069D01*
X146186115Y-162376988D01*
X146160990Y-162358354D01*
X146137813Y-162337347D01*
X146116806Y-162314170D01*
X146098172Y-162289045D01*
X146082091Y-162262215D01*
X146068716Y-162233937D01*
X146058178Y-162204485D01*
X146050578Y-162174142D01*
X146045988Y-162143200D01*
X146044453Y-162111957D01*
X146044453Y-161474457D01*
X146045988Y-161443214D01*
X146050578Y-161412272D01*
X146058178Y-161381929D01*
X146068716Y-161352477D01*
X146082091Y-161324199D01*
X146098172Y-161297369D01*
X146116806Y-161272244D01*
X146137813Y-161249067D01*
X146160990Y-161228060D01*
X146186115Y-161209426D01*
X146212945Y-161193345D01*
X146241223Y-161179970D01*
X146270675Y-161169432D01*
X146301018Y-161161832D01*
X146331960Y-161157242D01*
X146363203Y-161155707D01*
X147075703Y-161155707D01*
X147106946Y-161157242D01*
X147106946Y-161157242D01*
G37*
D11*
X146719453Y-161793207D03*
G04 #@! TD*
D10*
G04 #@! TO.C,R14*
G36*
X151906946Y-158869742D02*
X151937888Y-158874332D01*
X151968231Y-158881932D01*
X151997683Y-158892470D01*
X152025961Y-158905845D01*
X152052791Y-158921926D01*
X152077916Y-158940560D01*
X152101093Y-158961567D01*
X152122100Y-158984744D01*
X152140734Y-159009869D01*
X152156815Y-159036699D01*
X152170190Y-159064977D01*
X152180728Y-159094429D01*
X152188328Y-159124772D01*
X152192918Y-159155714D01*
X152194453Y-159186957D01*
X152194453Y-159824457D01*
X152192918Y-159855700D01*
X152188328Y-159886642D01*
X152180728Y-159916985D01*
X152170190Y-159946437D01*
X152156815Y-159974715D01*
X152140734Y-160001545D01*
X152122100Y-160026670D01*
X152101093Y-160049847D01*
X152077916Y-160070854D01*
X152052791Y-160089488D01*
X152025961Y-160105569D01*
X151997683Y-160118944D01*
X151968231Y-160129482D01*
X151937888Y-160137082D01*
X151906946Y-160141672D01*
X151875703Y-160143207D01*
X151163203Y-160143207D01*
X151131960Y-160141672D01*
X151101018Y-160137082D01*
X151070675Y-160129482D01*
X151041223Y-160118944D01*
X151012945Y-160105569D01*
X150986115Y-160089488D01*
X150960990Y-160070854D01*
X150937813Y-160049847D01*
X150916806Y-160026670D01*
X150898172Y-160001545D01*
X150882091Y-159974715D01*
X150868716Y-159946437D01*
X150858178Y-159916985D01*
X150850578Y-159886642D01*
X150845988Y-159855700D01*
X150844453Y-159824457D01*
X150844453Y-159186957D01*
X150845988Y-159155714D01*
X150850578Y-159124772D01*
X150858178Y-159094429D01*
X150868716Y-159064977D01*
X150882091Y-159036699D01*
X150898172Y-159009869D01*
X150916806Y-158984744D01*
X150937813Y-158961567D01*
X150960990Y-158940560D01*
X150986115Y-158921926D01*
X151012945Y-158905845D01*
X151041223Y-158892470D01*
X151070675Y-158881932D01*
X151101018Y-158874332D01*
X151131960Y-158869742D01*
X151163203Y-158868207D01*
X151875703Y-158868207D01*
X151906946Y-158869742D01*
X151906946Y-158869742D01*
G37*
D11*
X151519453Y-159505707D03*
D10*
G36*
X151906946Y-160444742D02*
X151937888Y-160449332D01*
X151968231Y-160456932D01*
X151997683Y-160467470D01*
X152025961Y-160480845D01*
X152052791Y-160496926D01*
X152077916Y-160515560D01*
X152101093Y-160536567D01*
X152122100Y-160559744D01*
X152140734Y-160584869D01*
X152156815Y-160611699D01*
X152170190Y-160639977D01*
X152180728Y-160669429D01*
X152188328Y-160699772D01*
X152192918Y-160730714D01*
X152194453Y-160761957D01*
X152194453Y-161399457D01*
X152192918Y-161430700D01*
X152188328Y-161461642D01*
X152180728Y-161491985D01*
X152170190Y-161521437D01*
X152156815Y-161549715D01*
X152140734Y-161576545D01*
X152122100Y-161601670D01*
X152101093Y-161624847D01*
X152077916Y-161645854D01*
X152052791Y-161664488D01*
X152025961Y-161680569D01*
X151997683Y-161693944D01*
X151968231Y-161704482D01*
X151937888Y-161712082D01*
X151906946Y-161716672D01*
X151875703Y-161718207D01*
X151163203Y-161718207D01*
X151131960Y-161716672D01*
X151101018Y-161712082D01*
X151070675Y-161704482D01*
X151041223Y-161693944D01*
X151012945Y-161680569D01*
X150986115Y-161664488D01*
X150960990Y-161645854D01*
X150937813Y-161624847D01*
X150916806Y-161601670D01*
X150898172Y-161576545D01*
X150882091Y-161549715D01*
X150868716Y-161521437D01*
X150858178Y-161491985D01*
X150850578Y-161461642D01*
X150845988Y-161430700D01*
X150844453Y-161399457D01*
X150844453Y-160761957D01*
X150845988Y-160730714D01*
X150850578Y-160699772D01*
X150858178Y-160669429D01*
X150868716Y-160639977D01*
X150882091Y-160611699D01*
X150898172Y-160584869D01*
X150916806Y-160559744D01*
X150937813Y-160536567D01*
X150960990Y-160515560D01*
X150986115Y-160496926D01*
X151012945Y-160480845D01*
X151041223Y-160467470D01*
X151070675Y-160456932D01*
X151101018Y-160449332D01*
X151131960Y-160444742D01*
X151163203Y-160443207D01*
X151875703Y-160443207D01*
X151906946Y-160444742D01*
X151906946Y-160444742D01*
G37*
D11*
X151519453Y-161080707D03*
G04 #@! TD*
D12*
G04 #@! TO.C,U1*
X147336711Y-180739193D03*
D10*
G36*
X146770038Y-179957779D02*
X147818599Y-179902827D01*
X147903384Y-181520607D01*
X146854823Y-181575559D01*
X146770038Y-179957779D01*
X146770038Y-179957779D01*
G37*
D12*
X145439315Y-180838631D03*
D10*
G36*
X144872642Y-180057217D02*
X145921203Y-180002265D01*
X146005988Y-181620045D01*
X144957427Y-181674997D01*
X144872642Y-180057217D01*
X144872642Y-180057217D01*
G37*
D12*
X145302195Y-178222221D03*
D10*
G36*
X144735522Y-177440807D02*
X145784083Y-177385855D01*
X145868868Y-179003635D01*
X144820307Y-179058587D01*
X144735522Y-177440807D01*
X144735522Y-177440807D01*
G37*
D12*
X146250893Y-178172502D03*
D10*
G36*
X145684220Y-177391088D02*
X146732781Y-177336136D01*
X146817566Y-178953916D01*
X145769005Y-179008868D01*
X145684220Y-177391088D01*
X145684220Y-177391088D01*
G37*
D12*
X147199591Y-178122783D03*
D10*
G36*
X146632918Y-177341369D02*
X147681479Y-177286417D01*
X147766264Y-178904197D01*
X146717703Y-178959149D01*
X146632918Y-177341369D01*
X146632918Y-177341369D01*
G37*
G04 #@! TD*
D23*
G04 #@! TO.C,U4*
X154656638Y-146610571D03*
D10*
G36*
X154655898Y-145801853D02*
X155357378Y-146206853D01*
X154657378Y-147419289D01*
X153955898Y-147014289D01*
X154655898Y-145801853D01*
X154655898Y-145801853D01*
G37*
D23*
X153989798Y-146225571D03*
D10*
G36*
X153989058Y-145416853D02*
X154690538Y-145821853D01*
X153990538Y-147034289D01*
X153289058Y-146629289D01*
X153989058Y-145416853D01*
X153989058Y-145416853D01*
G37*
D23*
X153331619Y-145845571D03*
D10*
G36*
X153330879Y-145036853D02*
X154032359Y-145441853D01*
X153332359Y-146654289D01*
X152630879Y-146249289D01*
X153330879Y-145036853D01*
X153330879Y-145036853D01*
G37*
D23*
X152673440Y-145465571D03*
D10*
G36*
X152672700Y-144656853D02*
X153374180Y-145061853D01*
X152674180Y-146274289D01*
X151972700Y-145869289D01*
X152672700Y-144656853D01*
X152672700Y-144656853D01*
G37*
D23*
X152015260Y-145085571D03*
D10*
G36*
X152014520Y-144276853D02*
X152716000Y-144681853D01*
X152016000Y-145894289D01*
X151314520Y-145489289D01*
X152014520Y-144276853D01*
X152014520Y-144276853D01*
G37*
D23*
X147916832Y-142084257D03*
D10*
G36*
X147108114Y-142084997D02*
X147513114Y-141383517D01*
X148725550Y-142083517D01*
X148320550Y-142784997D01*
X147108114Y-142084997D01*
X147108114Y-142084997D01*
G37*
D23*
X148296832Y-141426078D03*
D10*
G36*
X147488114Y-141426818D02*
X147893114Y-140725338D01*
X149105550Y-141425338D01*
X148700550Y-142126818D01*
X147488114Y-141426818D01*
X147488114Y-141426818D01*
G37*
D23*
X148681832Y-140759238D03*
D10*
G36*
X147873114Y-140759978D02*
X148278114Y-140058498D01*
X149490550Y-140758498D01*
X149085550Y-141459978D01*
X147873114Y-140759978D01*
X147873114Y-140759978D01*
G37*
D23*
X149061832Y-140101059D03*
D10*
G36*
X148253114Y-140101799D02*
X148658114Y-139400319D01*
X149870550Y-140100319D01*
X149465550Y-140801799D01*
X148253114Y-140101799D01*
X148253114Y-140101799D01*
G37*
D23*
X149441832Y-139442880D03*
D10*
G36*
X148633114Y-139443620D02*
X149038114Y-138742140D01*
X150250550Y-139442140D01*
X149845550Y-140143620D01*
X148633114Y-139443620D01*
X148633114Y-139443620D01*
G37*
D23*
X149821832Y-138784700D03*
D10*
G36*
X149013114Y-138785440D02*
X149418114Y-138083960D01*
X150630550Y-138783960D01*
X150225550Y-139485440D01*
X149013114Y-138785440D01*
X149013114Y-138785440D01*
G37*
D23*
X150201832Y-138126521D03*
D10*
G36*
X149393114Y-138127261D02*
X149798114Y-137425781D01*
X151010550Y-138125781D01*
X150605550Y-138827261D01*
X149393114Y-138127261D01*
X149393114Y-138127261D01*
G37*
D23*
X150586832Y-137459682D03*
D10*
G36*
X149778114Y-137460422D02*
X150183114Y-136758942D01*
X151395550Y-137458942D01*
X150990550Y-138160422D01*
X149778114Y-137460422D01*
X149778114Y-137460422D01*
G37*
D23*
X150966832Y-136801502D03*
D10*
G36*
X150158114Y-136802242D02*
X150563114Y-136100762D01*
X151775550Y-136800762D01*
X151370550Y-137502242D01*
X150158114Y-136802242D01*
X150158114Y-136802242D01*
G37*
D23*
X151346832Y-136143323D03*
D10*
G36*
X150538114Y-136144063D02*
X150943114Y-135442583D01*
X152155550Y-136142583D01*
X151750550Y-136844063D01*
X150538114Y-136144063D01*
X150538114Y-136144063D01*
G37*
D23*
X151726832Y-135485144D03*
D10*
G36*
X150918114Y-135485884D02*
X151323114Y-134784404D01*
X152535550Y-135484404D01*
X152130550Y-136185884D01*
X150918114Y-135485884D01*
X150918114Y-135485884D01*
G37*
D23*
X152106832Y-134826964D03*
D10*
G36*
X151298114Y-134827704D02*
X151703114Y-134126224D01*
X152915550Y-134826224D01*
X152510550Y-135527704D01*
X151298114Y-134827704D01*
X151298114Y-134827704D01*
G37*
D23*
X153460703Y-134961990D03*
D10*
G36*
X153459963Y-134153272D02*
X154161443Y-134558272D01*
X153461443Y-135770708D01*
X152759963Y-135365708D01*
X153459963Y-134153272D01*
X153459963Y-134153272D01*
G37*
D23*
X154118883Y-135341990D03*
D10*
G36*
X154118143Y-134533272D02*
X154819623Y-134938272D01*
X154119623Y-136150708D01*
X153418143Y-135745708D01*
X154118143Y-134533272D01*
X154118143Y-134533272D01*
G37*
D23*
X154777062Y-135721990D03*
D10*
G36*
X154776322Y-134913272D02*
X155477802Y-135318272D01*
X154777802Y-136530708D01*
X154076322Y-136125708D01*
X154776322Y-134913272D01*
X154776322Y-134913272D01*
G37*
D23*
X155435241Y-136101990D03*
D10*
G36*
X155434501Y-135293272D02*
X156135981Y-135698272D01*
X155435981Y-136910708D01*
X154734501Y-136505708D01*
X155434501Y-135293272D01*
X155434501Y-135293272D01*
G37*
D23*
X151357081Y-144705571D03*
D10*
G36*
X151356341Y-143896853D02*
X152057821Y-144301853D01*
X151357821Y-145514289D01*
X150656341Y-145109289D01*
X151356341Y-143896853D01*
X151356341Y-143896853D01*
G37*
G04 #@! TD*
D24*
G04 #@! TO.C,U5*
X150769453Y-177630707D03*
D10*
G36*
X151943506Y-178651295D02*
X149748865Y-178804760D01*
X149595400Y-176610119D01*
X151790041Y-176456654D01*
X151943506Y-178651295D01*
X151943506Y-178651295D01*
G37*
D25*
X150077741Y-176325780D03*
D10*
G36*
X150682731Y-176734574D02*
X149535532Y-176814794D01*
X149472751Y-175916986D01*
X150619950Y-175836766D01*
X150682731Y-176734574D01*
X150682731Y-176734574D01*
G37*
D26*
X150850853Y-176271718D03*
D10*
G36*
X150483218Y-176748524D02*
X150420437Y-175850717D01*
X151218488Y-175794912D01*
X151281269Y-176692719D01*
X150483218Y-176748524D01*
X150483218Y-176748524D01*
G37*
D26*
X151449391Y-176229865D03*
D10*
G36*
X151081756Y-176706671D02*
X151018975Y-175808864D01*
X151817026Y-175753059D01*
X151879807Y-176650866D01*
X151081756Y-176706671D01*
X151081756Y-176706671D01*
G37*
D26*
X151637734Y-178923287D03*
D10*
G36*
X151270099Y-179400093D02*
X151207318Y-178502286D01*
X152005369Y-178446481D01*
X152068150Y-179344288D01*
X151270099Y-179400093D01*
X151270099Y-179400093D01*
G37*
D26*
X151039200Y-178965141D03*
D10*
G36*
X150671565Y-179441947D02*
X150608784Y-178544140D01*
X151406835Y-178488335D01*
X151469616Y-179386142D01*
X150671565Y-179441947D01*
X150671565Y-179441947D01*
G37*
D25*
X150266083Y-179019203D03*
D10*
G36*
X150871073Y-179427997D02*
X149723874Y-179508217D01*
X149661093Y-178610409D01*
X150808292Y-178530189D01*
X150871073Y-179427997D01*
X150871073Y-179427997D01*
G37*
G04 #@! TD*
D27*
G04 #@! TO.C,U6*
X152601687Y-186968602D03*
D10*
G36*
X151807215Y-187640401D02*
X151702628Y-186444968D01*
X153396159Y-186296803D01*
X153500746Y-187492236D01*
X151807215Y-187640401D01*
X151807215Y-187640401D01*
G37*
D27*
X152713246Y-188243731D03*
D10*
G36*
X151918774Y-188915530D02*
X151814187Y-187720097D01*
X153507718Y-187571932D01*
X153612305Y-188767365D01*
X151918774Y-188915530D01*
X151918774Y-188915530D01*
G37*
D27*
X146437219Y-188792812D03*
D10*
G36*
X145642747Y-189464611D02*
X145538160Y-188269178D01*
X147231691Y-188121013D01*
X147336278Y-189316446D01*
X145642747Y-189464611D01*
X145642747Y-189464611D01*
G37*
D27*
X146325660Y-187517683D03*
D10*
G36*
X145531188Y-188189482D02*
X145426601Y-186994049D01*
X147120132Y-186845884D01*
X147224719Y-188041317D01*
X145531188Y-188189482D01*
X145531188Y-188189482D01*
G37*
G04 #@! TD*
D27*
G04 #@! TO.C,U7*
X141861279Y-187683024D03*
D10*
G36*
X142519110Y-188489100D02*
X141322034Y-188572807D01*
X141203448Y-186876948D01*
X142400524Y-186793241D01*
X142519110Y-188489100D01*
X142519110Y-188489100D01*
G37*
D27*
X143138161Y-187593736D03*
D10*
G36*
X143795992Y-188399812D02*
X142598916Y-188483519D01*
X142480330Y-186787660D01*
X143677406Y-186703953D01*
X143795992Y-188399812D01*
X143795992Y-188399812D01*
G37*
D27*
X143577627Y-193878390D03*
D10*
G36*
X144235458Y-194684466D02*
X143038382Y-194768173D01*
X142919796Y-193072314D01*
X144116872Y-192988607D01*
X144235458Y-194684466D01*
X144235458Y-194684466D01*
G37*
D27*
X142300745Y-193967678D03*
D10*
G36*
X142958576Y-194773754D02*
X141761500Y-194857461D01*
X141642914Y-193161602D01*
X142839990Y-193077895D01*
X142958576Y-194773754D01*
X142958576Y-194773754D01*
G37*
G04 #@! TD*
D27*
G04 #@! TO.C,U8*
X145285299Y-195914948D03*
D10*
G36*
X144502672Y-196600510D02*
X144377238Y-195407084D01*
X146067926Y-195229386D01*
X146193360Y-196422812D01*
X144502672Y-196600510D01*
X144502672Y-196600510D01*
G37*
D27*
X145419095Y-197187936D03*
D10*
G36*
X144636468Y-197873498D02*
X144511034Y-196680072D01*
X146201722Y-196502374D01*
X146327156Y-197695800D01*
X144636468Y-197873498D01*
X144636468Y-197873498D01*
G37*
D27*
X139153607Y-197846466D03*
D10*
G36*
X138370980Y-198532028D02*
X138245546Y-197338602D01*
X139936234Y-197160904D01*
X140061668Y-198354330D01*
X138370980Y-198532028D01*
X138370980Y-198532028D01*
G37*
D27*
X139019811Y-196573478D03*
D10*
G36*
X138237184Y-197259040D02*
X138111750Y-196065614D01*
X139802438Y-195887916D01*
X139927872Y-197081342D01*
X138237184Y-197259040D01*
X138237184Y-197259040D01*
G37*
G04 #@! TD*
D27*
G04 #@! TO.C,U9*
X149723708Y-202540251D03*
D10*
G36*
X150552251Y-201910952D02*
X150594130Y-203110221D01*
X148895165Y-203169550D01*
X148853286Y-201970281D01*
X150552251Y-201910952D01*
X150552251Y-201910952D01*
G37*
D27*
X149679036Y-201261030D03*
D10*
G36*
X150507579Y-200631731D02*
X150549458Y-201831000D01*
X148850493Y-201890329D01*
X148808614Y-200691060D01*
X150507579Y-200631731D01*
X150507579Y-200631731D01*
G37*
D27*
X155975198Y-201041163D03*
D10*
G36*
X156803741Y-200411864D02*
X156845620Y-201611133D01*
X155146655Y-201670462D01*
X155104776Y-200471193D01*
X156803741Y-200411864D01*
X156803741Y-200411864D01*
G37*
D27*
X156019870Y-202320384D03*
D10*
G36*
X156848413Y-201691085D02*
X156890292Y-202890354D01*
X155191327Y-202949683D01*
X155149448Y-201750414D01*
X156848413Y-201691085D01*
X156848413Y-201691085D01*
G37*
G04 #@! TD*
G04 #@! TO.C,C15*
G36*
X146181638Y-183646754D02*
X146212437Y-183652220D01*
X146242553Y-183660678D01*
X146271694Y-183672047D01*
X146299581Y-183686218D01*
X146325944Y-183703053D01*
X146350531Y-183722392D01*
X146373103Y-183744048D01*
X146393444Y-183767812D01*
X146411358Y-183793455D01*
X146426672Y-183820730D01*
X146439239Y-183849376D01*
X146448938Y-183879115D01*
X146455675Y-183909661D01*
X146459386Y-183940721D01*
X146509087Y-184651485D01*
X146509735Y-184682759D01*
X146507315Y-184713946D01*
X146501849Y-184744746D01*
X146493391Y-184774861D01*
X146482022Y-184804002D01*
X146467851Y-184831889D01*
X146451015Y-184858253D01*
X146431677Y-184882839D01*
X146410021Y-184905411D01*
X146386257Y-184925752D01*
X146360614Y-184943666D01*
X146333338Y-184958980D01*
X146304693Y-184971547D01*
X146274954Y-184981246D01*
X146244407Y-184987983D01*
X146213348Y-184991694D01*
X145577401Y-185036164D01*
X145546127Y-185036812D01*
X145514940Y-185034392D01*
X145484141Y-185028926D01*
X145454025Y-185020468D01*
X145424884Y-185009099D01*
X145396997Y-184994928D01*
X145370634Y-184978093D01*
X145346047Y-184958754D01*
X145323475Y-184937098D01*
X145303134Y-184913334D01*
X145285220Y-184887691D01*
X145269906Y-184860416D01*
X145257339Y-184831770D01*
X145247640Y-184802031D01*
X145240903Y-184771485D01*
X145237192Y-184740425D01*
X145187491Y-184029661D01*
X145186843Y-183998387D01*
X145189263Y-183967200D01*
X145194729Y-183936400D01*
X145203187Y-183906285D01*
X145214556Y-183877144D01*
X145228727Y-183849257D01*
X145245563Y-183822893D01*
X145264901Y-183798307D01*
X145286557Y-183775735D01*
X145310321Y-183755394D01*
X145335964Y-183737480D01*
X145363240Y-183722166D01*
X145391885Y-183709599D01*
X145421624Y-183699900D01*
X145452171Y-183693163D01*
X145483230Y-183689452D01*
X146119177Y-183644982D01*
X146150451Y-183644334D01*
X146181638Y-183646754D01*
X146181638Y-183646754D01*
G37*
D11*
X145848289Y-184340573D03*
D10*
G36*
X147752802Y-183536888D02*
X147783601Y-183542354D01*
X147813717Y-183550812D01*
X147842858Y-183562181D01*
X147870745Y-183576352D01*
X147897108Y-183593187D01*
X147921695Y-183612526D01*
X147944267Y-183634182D01*
X147964608Y-183657946D01*
X147982522Y-183683589D01*
X147997836Y-183710864D01*
X148010403Y-183739510D01*
X148020102Y-183769249D01*
X148026839Y-183799795D01*
X148030550Y-183830855D01*
X148080251Y-184541619D01*
X148080899Y-184572893D01*
X148078479Y-184604080D01*
X148073013Y-184634880D01*
X148064555Y-184664995D01*
X148053186Y-184694136D01*
X148039015Y-184722023D01*
X148022179Y-184748387D01*
X148002841Y-184772973D01*
X147981185Y-184795545D01*
X147957421Y-184815886D01*
X147931778Y-184833800D01*
X147904502Y-184849114D01*
X147875857Y-184861681D01*
X147846118Y-184871380D01*
X147815571Y-184878117D01*
X147784512Y-184881828D01*
X147148565Y-184926298D01*
X147117291Y-184926946D01*
X147086104Y-184924526D01*
X147055305Y-184919060D01*
X147025189Y-184910602D01*
X146996048Y-184899233D01*
X146968161Y-184885062D01*
X146941798Y-184868227D01*
X146917211Y-184848888D01*
X146894639Y-184827232D01*
X146874298Y-184803468D01*
X146856384Y-184777825D01*
X146841070Y-184750550D01*
X146828503Y-184721904D01*
X146818804Y-184692165D01*
X146812067Y-184661619D01*
X146808356Y-184630559D01*
X146758655Y-183919795D01*
X146758007Y-183888521D01*
X146760427Y-183857334D01*
X146765893Y-183826534D01*
X146774351Y-183796419D01*
X146785720Y-183767278D01*
X146799891Y-183739391D01*
X146816727Y-183713027D01*
X146836065Y-183688441D01*
X146857721Y-183665869D01*
X146881485Y-183645528D01*
X146907128Y-183627614D01*
X146934404Y-183612300D01*
X146963049Y-183599733D01*
X146992788Y-183590034D01*
X147023335Y-183583297D01*
X147054394Y-183579586D01*
X147690341Y-183535116D01*
X147721615Y-183534468D01*
X147752802Y-183536888D01*
X147752802Y-183536888D01*
G37*
D11*
X147419453Y-184230707D03*
G04 #@! TD*
D10*
G04 #@! TO.C,C16*
G36*
X146062219Y-182076820D02*
X146093018Y-182082286D01*
X146123134Y-182090744D01*
X146152275Y-182102113D01*
X146180162Y-182116284D01*
X146206525Y-182133119D01*
X146231112Y-182152458D01*
X146253684Y-182174114D01*
X146274025Y-182197878D01*
X146291939Y-182223521D01*
X146307253Y-182250796D01*
X146319820Y-182279442D01*
X146329519Y-182309181D01*
X146336256Y-182339727D01*
X146339967Y-182370787D01*
X146389668Y-183081551D01*
X146390316Y-183112825D01*
X146387896Y-183144012D01*
X146382430Y-183174812D01*
X146373972Y-183204927D01*
X146362603Y-183234068D01*
X146348432Y-183261955D01*
X146331596Y-183288319D01*
X146312258Y-183312905D01*
X146290602Y-183335477D01*
X146266838Y-183355818D01*
X146241195Y-183373732D01*
X146213919Y-183389046D01*
X146185274Y-183401613D01*
X146155535Y-183411312D01*
X146124988Y-183418049D01*
X146093929Y-183421760D01*
X145457982Y-183466230D01*
X145426708Y-183466878D01*
X145395521Y-183464458D01*
X145364722Y-183458992D01*
X145334606Y-183450534D01*
X145305465Y-183439165D01*
X145277578Y-183424994D01*
X145251215Y-183408159D01*
X145226628Y-183388820D01*
X145204056Y-183367164D01*
X145183715Y-183343400D01*
X145165801Y-183317757D01*
X145150487Y-183290482D01*
X145137920Y-183261836D01*
X145128221Y-183232097D01*
X145121484Y-183201551D01*
X145117773Y-183170491D01*
X145068072Y-182459727D01*
X145067424Y-182428453D01*
X145069844Y-182397266D01*
X145075310Y-182366466D01*
X145083768Y-182336351D01*
X145095137Y-182307210D01*
X145109308Y-182279323D01*
X145126144Y-182252959D01*
X145145482Y-182228373D01*
X145167138Y-182205801D01*
X145190902Y-182185460D01*
X145216545Y-182167546D01*
X145243821Y-182152232D01*
X145272466Y-182139665D01*
X145302205Y-182129966D01*
X145332752Y-182123229D01*
X145363811Y-182119518D01*
X145999758Y-182075048D01*
X146031032Y-182074400D01*
X146062219Y-182076820D01*
X146062219Y-182076820D01*
G37*
D11*
X145728870Y-182770639D03*
D10*
G36*
X147633383Y-181966954D02*
X147664182Y-181972420D01*
X147694298Y-181980878D01*
X147723439Y-181992247D01*
X147751326Y-182006418D01*
X147777689Y-182023253D01*
X147802276Y-182042592D01*
X147824848Y-182064248D01*
X147845189Y-182088012D01*
X147863103Y-182113655D01*
X147878417Y-182140930D01*
X147890984Y-182169576D01*
X147900683Y-182199315D01*
X147907420Y-182229861D01*
X147911131Y-182260921D01*
X147960832Y-182971685D01*
X147961480Y-183002959D01*
X147959060Y-183034146D01*
X147953594Y-183064946D01*
X147945136Y-183095061D01*
X147933767Y-183124202D01*
X147919596Y-183152089D01*
X147902760Y-183178453D01*
X147883422Y-183203039D01*
X147861766Y-183225611D01*
X147838002Y-183245952D01*
X147812359Y-183263866D01*
X147785083Y-183279180D01*
X147756438Y-183291747D01*
X147726699Y-183301446D01*
X147696152Y-183308183D01*
X147665093Y-183311894D01*
X147029146Y-183356364D01*
X146997872Y-183357012D01*
X146966685Y-183354592D01*
X146935886Y-183349126D01*
X146905770Y-183340668D01*
X146876629Y-183329299D01*
X146848742Y-183315128D01*
X146822379Y-183298293D01*
X146797792Y-183278954D01*
X146775220Y-183257298D01*
X146754879Y-183233534D01*
X146736965Y-183207891D01*
X146721651Y-183180616D01*
X146709084Y-183151970D01*
X146699385Y-183122231D01*
X146692648Y-183091685D01*
X146688937Y-183060625D01*
X146639236Y-182349861D01*
X146638588Y-182318587D01*
X146641008Y-182287400D01*
X146646474Y-182256600D01*
X146654932Y-182226485D01*
X146666301Y-182197344D01*
X146680472Y-182169457D01*
X146697308Y-182143093D01*
X146716646Y-182118507D01*
X146738302Y-182095935D01*
X146762066Y-182075594D01*
X146787709Y-182057680D01*
X146814985Y-182042366D01*
X146843630Y-182029799D01*
X146873369Y-182020100D01*
X146903916Y-182013363D01*
X146934975Y-182009652D01*
X147570922Y-181965182D01*
X147602196Y-181964534D01*
X147633383Y-181966954D01*
X147633383Y-181966954D01*
G37*
D11*
X147300034Y-182660773D03*
G04 #@! TD*
D10*
G04 #@! TO.C,C17*
G36*
X156750884Y-154847274D02*
X156782478Y-154851961D01*
X156813461Y-154859722D01*
X156843534Y-154870482D01*
X156872408Y-154884138D01*
X156899804Y-154900559D01*
X156925459Y-154919586D01*
X156949125Y-154941035D01*
X156970574Y-154964701D01*
X156989601Y-154990356D01*
X157006022Y-155017752D01*
X157019678Y-155046626D01*
X157030438Y-155076699D01*
X157038199Y-155107682D01*
X157042886Y-155139276D01*
X157044453Y-155171178D01*
X157044453Y-156245236D01*
X157042886Y-156277138D01*
X157038199Y-156308732D01*
X157030438Y-156339715D01*
X157019678Y-156369788D01*
X157006022Y-156398662D01*
X156989601Y-156426058D01*
X156970574Y-156451713D01*
X156949125Y-156475379D01*
X156925459Y-156496828D01*
X156899804Y-156515855D01*
X156872408Y-156532276D01*
X156843534Y-156545932D01*
X156813461Y-156556692D01*
X156782478Y-156564453D01*
X156750884Y-156569140D01*
X156718982Y-156570707D01*
X154619924Y-156570707D01*
X154588022Y-156569140D01*
X154556428Y-156564453D01*
X154525445Y-156556692D01*
X154495372Y-156545932D01*
X154466498Y-156532276D01*
X154439102Y-156515855D01*
X154413447Y-156496828D01*
X154389781Y-156475379D01*
X154368332Y-156451713D01*
X154349305Y-156426058D01*
X154332884Y-156398662D01*
X154319228Y-156369788D01*
X154308468Y-156339715D01*
X154300707Y-156308732D01*
X154296020Y-156277138D01*
X154294453Y-156245236D01*
X154294453Y-155171178D01*
X154296020Y-155139276D01*
X154300707Y-155107682D01*
X154308468Y-155076699D01*
X154319228Y-155046626D01*
X154332884Y-155017752D01*
X154349305Y-154990356D01*
X154368332Y-154964701D01*
X154389781Y-154941035D01*
X154413447Y-154919586D01*
X154439102Y-154900559D01*
X154466498Y-154884138D01*
X154495372Y-154870482D01*
X154525445Y-154859722D01*
X154556428Y-154851961D01*
X154588022Y-154847274D01*
X154619924Y-154845707D01*
X156718982Y-154845707D01*
X156750884Y-154847274D01*
X156750884Y-154847274D01*
G37*
D28*
X155669453Y-155708207D03*
D10*
G36*
X156750884Y-151772274D02*
X156782478Y-151776961D01*
X156813461Y-151784722D01*
X156843534Y-151795482D01*
X156872408Y-151809138D01*
X156899804Y-151825559D01*
X156925459Y-151844586D01*
X156949125Y-151866035D01*
X156970574Y-151889701D01*
X156989601Y-151915356D01*
X157006022Y-151942752D01*
X157019678Y-151971626D01*
X157030438Y-152001699D01*
X157038199Y-152032682D01*
X157042886Y-152064276D01*
X157044453Y-152096178D01*
X157044453Y-153170236D01*
X157042886Y-153202138D01*
X157038199Y-153233732D01*
X157030438Y-153264715D01*
X157019678Y-153294788D01*
X157006022Y-153323662D01*
X156989601Y-153351058D01*
X156970574Y-153376713D01*
X156949125Y-153400379D01*
X156925459Y-153421828D01*
X156899804Y-153440855D01*
X156872408Y-153457276D01*
X156843534Y-153470932D01*
X156813461Y-153481692D01*
X156782478Y-153489453D01*
X156750884Y-153494140D01*
X156718982Y-153495707D01*
X154619924Y-153495707D01*
X154588022Y-153494140D01*
X154556428Y-153489453D01*
X154525445Y-153481692D01*
X154495372Y-153470932D01*
X154466498Y-153457276D01*
X154439102Y-153440855D01*
X154413447Y-153421828D01*
X154389781Y-153400379D01*
X154368332Y-153376713D01*
X154349305Y-153351058D01*
X154332884Y-153323662D01*
X154319228Y-153294788D01*
X154308468Y-153264715D01*
X154300707Y-153233732D01*
X154296020Y-153202138D01*
X154294453Y-153170236D01*
X154294453Y-152096178D01*
X154296020Y-152064276D01*
X154300707Y-152032682D01*
X154308468Y-152001699D01*
X154319228Y-151971626D01*
X154332884Y-151942752D01*
X154349305Y-151915356D01*
X154368332Y-151889701D01*
X154389781Y-151866035D01*
X154413447Y-151844586D01*
X154439102Y-151825559D01*
X154466498Y-151809138D01*
X154495372Y-151795482D01*
X154525445Y-151784722D01*
X154556428Y-151776961D01*
X154588022Y-151772274D01*
X154619924Y-151770707D01*
X156718982Y-151770707D01*
X156750884Y-151772274D01*
X156750884Y-151772274D01*
G37*
D28*
X155669453Y-152633207D03*
G04 #@! TD*
D29*
G04 #@! TO.C,Q1*
X144919453Y-172790707D03*
X144919453Y-174690707D03*
X146919453Y-173740707D03*
G04 #@! TD*
D10*
G04 #@! TO.C,R15*
G36*
X143719396Y-172054862D02*
X143752765Y-172059812D01*
X143785488Y-172068009D01*
X143817250Y-172079373D01*
X143847746Y-172093797D01*
X143876680Y-172111139D01*
X143903776Y-172131235D01*
X143928771Y-172153889D01*
X143951425Y-172178884D01*
X143971521Y-172205980D01*
X143988863Y-172234914D01*
X144003287Y-172265410D01*
X144014651Y-172297172D01*
X144022848Y-172329895D01*
X144027798Y-172363264D01*
X144029453Y-172396957D01*
X144029453Y-173084457D01*
X144027798Y-173118150D01*
X144022848Y-173151519D01*
X144014651Y-173184242D01*
X144003287Y-173216004D01*
X143988863Y-173246500D01*
X143971521Y-173275434D01*
X143951425Y-173302530D01*
X143928771Y-173327525D01*
X143903776Y-173350179D01*
X143876680Y-173370275D01*
X143847746Y-173387617D01*
X143817250Y-173402041D01*
X143785488Y-173413405D01*
X143752765Y-173421602D01*
X143719396Y-173426552D01*
X143685703Y-173428207D01*
X142573203Y-173428207D01*
X142539510Y-173426552D01*
X142506141Y-173421602D01*
X142473418Y-173413405D01*
X142441656Y-173402041D01*
X142411160Y-173387617D01*
X142382226Y-173370275D01*
X142355130Y-173350179D01*
X142330135Y-173327525D01*
X142307481Y-173302530D01*
X142287385Y-173275434D01*
X142270043Y-173246500D01*
X142255619Y-173216004D01*
X142244255Y-173184242D01*
X142236058Y-173151519D01*
X142231108Y-173118150D01*
X142229453Y-173084457D01*
X142229453Y-172396957D01*
X142231108Y-172363264D01*
X142236058Y-172329895D01*
X142244255Y-172297172D01*
X142255619Y-172265410D01*
X142270043Y-172234914D01*
X142287385Y-172205980D01*
X142307481Y-172178884D01*
X142330135Y-172153889D01*
X142355130Y-172131235D01*
X142382226Y-172111139D01*
X142411160Y-172093797D01*
X142441656Y-172079373D01*
X142473418Y-172068009D01*
X142506141Y-172059812D01*
X142539510Y-172054862D01*
X142573203Y-172053207D01*
X143685703Y-172053207D01*
X143719396Y-172054862D01*
X143719396Y-172054862D01*
G37*
D30*
X143129453Y-172740707D03*
D10*
G36*
X143719396Y-170179862D02*
X143752765Y-170184812D01*
X143785488Y-170193009D01*
X143817250Y-170204373D01*
X143847746Y-170218797D01*
X143876680Y-170236139D01*
X143903776Y-170256235D01*
X143928771Y-170278889D01*
X143951425Y-170303884D01*
X143971521Y-170330980D01*
X143988863Y-170359914D01*
X144003287Y-170390410D01*
X144014651Y-170422172D01*
X144022848Y-170454895D01*
X144027798Y-170488264D01*
X144029453Y-170521957D01*
X144029453Y-171209457D01*
X144027798Y-171243150D01*
X144022848Y-171276519D01*
X144014651Y-171309242D01*
X144003287Y-171341004D01*
X143988863Y-171371500D01*
X143971521Y-171400434D01*
X143951425Y-171427530D01*
X143928771Y-171452525D01*
X143903776Y-171475179D01*
X143876680Y-171495275D01*
X143847746Y-171512617D01*
X143817250Y-171527041D01*
X143785488Y-171538405D01*
X143752765Y-171546602D01*
X143719396Y-171551552D01*
X143685703Y-171553207D01*
X142573203Y-171553207D01*
X142539510Y-171551552D01*
X142506141Y-171546602D01*
X142473418Y-171538405D01*
X142441656Y-171527041D01*
X142411160Y-171512617D01*
X142382226Y-171495275D01*
X142355130Y-171475179D01*
X142330135Y-171452525D01*
X142307481Y-171427530D01*
X142287385Y-171400434D01*
X142270043Y-171371500D01*
X142255619Y-171341004D01*
X142244255Y-171309242D01*
X142236058Y-171276519D01*
X142231108Y-171243150D01*
X142229453Y-171209457D01*
X142229453Y-170521957D01*
X142231108Y-170488264D01*
X142236058Y-170454895D01*
X142244255Y-170422172D01*
X142255619Y-170390410D01*
X142270043Y-170359914D01*
X142287385Y-170330980D01*
X142307481Y-170303884D01*
X142330135Y-170278889D01*
X142355130Y-170256235D01*
X142382226Y-170236139D01*
X142411160Y-170218797D01*
X142441656Y-170204373D01*
X142473418Y-170193009D01*
X142506141Y-170184812D01*
X142539510Y-170179862D01*
X142573203Y-170178207D01*
X143685703Y-170178207D01*
X143719396Y-170179862D01*
X143719396Y-170179862D01*
G37*
D30*
X143129453Y-170865707D03*
G04 #@! TD*
D10*
G04 #@! TO.C,JP2*
G36*
X151311946Y-161747242D02*
X151342888Y-161751832D01*
X151373231Y-161759432D01*
X151402683Y-161769970D01*
X151430961Y-161783345D01*
X151457791Y-161799426D01*
X151482916Y-161818060D01*
X151506093Y-161839067D01*
X151527100Y-161862244D01*
X151545734Y-161887369D01*
X151561815Y-161914199D01*
X151575190Y-161942477D01*
X151585728Y-161971929D01*
X151593328Y-162002272D01*
X151597918Y-162033214D01*
X151599453Y-162064457D01*
X151599453Y-162776957D01*
X151597918Y-162808200D01*
X151593328Y-162839142D01*
X151585728Y-162869485D01*
X151575190Y-162898937D01*
X151561815Y-162927215D01*
X151545734Y-162954045D01*
X151527100Y-162979170D01*
X151506093Y-163002347D01*
X151482916Y-163023354D01*
X151457791Y-163041988D01*
X151430961Y-163058069D01*
X151402683Y-163071444D01*
X151373231Y-163081982D01*
X151342888Y-163089582D01*
X151311946Y-163094172D01*
X151280703Y-163095707D01*
X150643203Y-163095707D01*
X150611960Y-163094172D01*
X150581018Y-163089582D01*
X150550675Y-163081982D01*
X150521223Y-163071444D01*
X150492945Y-163058069D01*
X150466115Y-163041988D01*
X150440990Y-163023354D01*
X150417813Y-163002347D01*
X150396806Y-162979170D01*
X150378172Y-162954045D01*
X150362091Y-162927215D01*
X150348716Y-162898937D01*
X150338178Y-162869485D01*
X150330578Y-162839142D01*
X150325988Y-162808200D01*
X150324453Y-162776957D01*
X150324453Y-162064457D01*
X150325988Y-162033214D01*
X150330578Y-162002272D01*
X150338178Y-161971929D01*
X150348716Y-161942477D01*
X150362091Y-161914199D01*
X150378172Y-161887369D01*
X150396806Y-161862244D01*
X150417813Y-161839067D01*
X150440990Y-161818060D01*
X150466115Y-161799426D01*
X150492945Y-161783345D01*
X150521223Y-161769970D01*
X150550675Y-161759432D01*
X150581018Y-161751832D01*
X150611960Y-161747242D01*
X150643203Y-161745707D01*
X151280703Y-161745707D01*
X151311946Y-161747242D01*
X151311946Y-161747242D01*
G37*
D11*
X150961953Y-162420707D03*
D10*
G36*
X152886946Y-161747242D02*
X152917888Y-161751832D01*
X152948231Y-161759432D01*
X152977683Y-161769970D01*
X153005961Y-161783345D01*
X153032791Y-161799426D01*
X153057916Y-161818060D01*
X153081093Y-161839067D01*
X153102100Y-161862244D01*
X153120734Y-161887369D01*
X153136815Y-161914199D01*
X153150190Y-161942477D01*
X153160728Y-161971929D01*
X153168328Y-162002272D01*
X153172918Y-162033214D01*
X153174453Y-162064457D01*
X153174453Y-162776957D01*
X153172918Y-162808200D01*
X153168328Y-162839142D01*
X153160728Y-162869485D01*
X153150190Y-162898937D01*
X153136815Y-162927215D01*
X153120734Y-162954045D01*
X153102100Y-162979170D01*
X153081093Y-163002347D01*
X153057916Y-163023354D01*
X153032791Y-163041988D01*
X153005961Y-163058069D01*
X152977683Y-163071444D01*
X152948231Y-163081982D01*
X152917888Y-163089582D01*
X152886946Y-163094172D01*
X152855703Y-163095707D01*
X152218203Y-163095707D01*
X152186960Y-163094172D01*
X152156018Y-163089582D01*
X152125675Y-163081982D01*
X152096223Y-163071444D01*
X152067945Y-163058069D01*
X152041115Y-163041988D01*
X152015990Y-163023354D01*
X151992813Y-163002347D01*
X151971806Y-162979170D01*
X151953172Y-162954045D01*
X151937091Y-162927215D01*
X151923716Y-162898937D01*
X151913178Y-162869485D01*
X151905578Y-162839142D01*
X151900988Y-162808200D01*
X151899453Y-162776957D01*
X151899453Y-162064457D01*
X151900988Y-162033214D01*
X151905578Y-162002272D01*
X151913178Y-161971929D01*
X151923716Y-161942477D01*
X151937091Y-161914199D01*
X151953172Y-161887369D01*
X151971806Y-161862244D01*
X151992813Y-161839067D01*
X152015990Y-161818060D01*
X152041115Y-161799426D01*
X152067945Y-161783345D01*
X152096223Y-161769970D01*
X152125675Y-161759432D01*
X152156018Y-161751832D01*
X152186960Y-161747242D01*
X152218203Y-161745707D01*
X152855703Y-161745707D01*
X152886946Y-161747242D01*
X152886946Y-161747242D01*
G37*
D11*
X152536953Y-162420707D03*
G04 #@! TD*
D10*
G04 #@! TO.C,JP3*
G36*
X156876946Y-158662242D02*
X156907888Y-158666832D01*
X156938231Y-158674432D01*
X156967683Y-158684970D01*
X156995961Y-158698345D01*
X157022791Y-158714426D01*
X157047916Y-158733060D01*
X157071093Y-158754067D01*
X157092100Y-158777244D01*
X157110734Y-158802369D01*
X157126815Y-158829199D01*
X157140190Y-158857477D01*
X157150728Y-158886929D01*
X157158328Y-158917272D01*
X157162918Y-158948214D01*
X157164453Y-158979457D01*
X157164453Y-159616957D01*
X157162918Y-159648200D01*
X157158328Y-159679142D01*
X157150728Y-159709485D01*
X157140190Y-159738937D01*
X157126815Y-159767215D01*
X157110734Y-159794045D01*
X157092100Y-159819170D01*
X157071093Y-159842347D01*
X157047916Y-159863354D01*
X157022791Y-159881988D01*
X156995961Y-159898069D01*
X156967683Y-159911444D01*
X156938231Y-159921982D01*
X156907888Y-159929582D01*
X156876946Y-159934172D01*
X156845703Y-159935707D01*
X156133203Y-159935707D01*
X156101960Y-159934172D01*
X156071018Y-159929582D01*
X156040675Y-159921982D01*
X156011223Y-159911444D01*
X155982945Y-159898069D01*
X155956115Y-159881988D01*
X155930990Y-159863354D01*
X155907813Y-159842347D01*
X155886806Y-159819170D01*
X155868172Y-159794045D01*
X155852091Y-159767215D01*
X155838716Y-159738937D01*
X155828178Y-159709485D01*
X155820578Y-159679142D01*
X155815988Y-159648200D01*
X155814453Y-159616957D01*
X155814453Y-158979457D01*
X155815988Y-158948214D01*
X155820578Y-158917272D01*
X155828178Y-158886929D01*
X155838716Y-158857477D01*
X155852091Y-158829199D01*
X155868172Y-158802369D01*
X155886806Y-158777244D01*
X155907813Y-158754067D01*
X155930990Y-158733060D01*
X155956115Y-158714426D01*
X155982945Y-158698345D01*
X156011223Y-158684970D01*
X156040675Y-158674432D01*
X156071018Y-158666832D01*
X156101960Y-158662242D01*
X156133203Y-158660707D01*
X156845703Y-158660707D01*
X156876946Y-158662242D01*
X156876946Y-158662242D01*
G37*
D11*
X156489453Y-159298207D03*
D10*
G36*
X156876946Y-157087242D02*
X156907888Y-157091832D01*
X156938231Y-157099432D01*
X156967683Y-157109970D01*
X156995961Y-157123345D01*
X157022791Y-157139426D01*
X157047916Y-157158060D01*
X157071093Y-157179067D01*
X157092100Y-157202244D01*
X157110734Y-157227369D01*
X157126815Y-157254199D01*
X157140190Y-157282477D01*
X157150728Y-157311929D01*
X157158328Y-157342272D01*
X157162918Y-157373214D01*
X157164453Y-157404457D01*
X157164453Y-158041957D01*
X157162918Y-158073200D01*
X157158328Y-158104142D01*
X157150728Y-158134485D01*
X157140190Y-158163937D01*
X157126815Y-158192215D01*
X157110734Y-158219045D01*
X157092100Y-158244170D01*
X157071093Y-158267347D01*
X157047916Y-158288354D01*
X157022791Y-158306988D01*
X156995961Y-158323069D01*
X156967683Y-158336444D01*
X156938231Y-158346982D01*
X156907888Y-158354582D01*
X156876946Y-158359172D01*
X156845703Y-158360707D01*
X156133203Y-158360707D01*
X156101960Y-158359172D01*
X156071018Y-158354582D01*
X156040675Y-158346982D01*
X156011223Y-158336444D01*
X155982945Y-158323069D01*
X155956115Y-158306988D01*
X155930990Y-158288354D01*
X155907813Y-158267347D01*
X155886806Y-158244170D01*
X155868172Y-158219045D01*
X155852091Y-158192215D01*
X155838716Y-158163937D01*
X155828178Y-158134485D01*
X155820578Y-158104142D01*
X155815988Y-158073200D01*
X155814453Y-158041957D01*
X155814453Y-157404457D01*
X155815988Y-157373214D01*
X155820578Y-157342272D01*
X155828178Y-157311929D01*
X155838716Y-157282477D01*
X155852091Y-157254199D01*
X155868172Y-157227369D01*
X155886806Y-157202244D01*
X155907813Y-157179067D01*
X155930990Y-157158060D01*
X155956115Y-157139426D01*
X155982945Y-157123345D01*
X156011223Y-157109970D01*
X156040675Y-157099432D01*
X156071018Y-157091832D01*
X156101960Y-157087242D01*
X156133203Y-157085707D01*
X156845703Y-157085707D01*
X156876946Y-157087242D01*
X156876946Y-157087242D01*
G37*
D11*
X156489453Y-157723207D03*
G04 #@! TD*
D10*
G04 #@! TO.C,JP5*
G36*
X155386946Y-157107242D02*
X155417888Y-157111832D01*
X155448231Y-157119432D01*
X155477683Y-157129970D01*
X155505961Y-157143345D01*
X155532791Y-157159426D01*
X155557916Y-157178060D01*
X155581093Y-157199067D01*
X155602100Y-157222244D01*
X155620734Y-157247369D01*
X155636815Y-157274199D01*
X155650190Y-157302477D01*
X155660728Y-157331929D01*
X155668328Y-157362272D01*
X155672918Y-157393214D01*
X155674453Y-157424457D01*
X155674453Y-158061957D01*
X155672918Y-158093200D01*
X155668328Y-158124142D01*
X155660728Y-158154485D01*
X155650190Y-158183937D01*
X155636815Y-158212215D01*
X155620734Y-158239045D01*
X155602100Y-158264170D01*
X155581093Y-158287347D01*
X155557916Y-158308354D01*
X155532791Y-158326988D01*
X155505961Y-158343069D01*
X155477683Y-158356444D01*
X155448231Y-158366982D01*
X155417888Y-158374582D01*
X155386946Y-158379172D01*
X155355703Y-158380707D01*
X154643203Y-158380707D01*
X154611960Y-158379172D01*
X154581018Y-158374582D01*
X154550675Y-158366982D01*
X154521223Y-158356444D01*
X154492945Y-158343069D01*
X154466115Y-158326988D01*
X154440990Y-158308354D01*
X154417813Y-158287347D01*
X154396806Y-158264170D01*
X154378172Y-158239045D01*
X154362091Y-158212215D01*
X154348716Y-158183937D01*
X154338178Y-158154485D01*
X154330578Y-158124142D01*
X154325988Y-158093200D01*
X154324453Y-158061957D01*
X154324453Y-157424457D01*
X154325988Y-157393214D01*
X154330578Y-157362272D01*
X154338178Y-157331929D01*
X154348716Y-157302477D01*
X154362091Y-157274199D01*
X154378172Y-157247369D01*
X154396806Y-157222244D01*
X154417813Y-157199067D01*
X154440990Y-157178060D01*
X154466115Y-157159426D01*
X154492945Y-157143345D01*
X154521223Y-157129970D01*
X154550675Y-157119432D01*
X154581018Y-157111832D01*
X154611960Y-157107242D01*
X154643203Y-157105707D01*
X155355703Y-157105707D01*
X155386946Y-157107242D01*
X155386946Y-157107242D01*
G37*
D11*
X154999453Y-157743207D03*
D10*
G36*
X155386946Y-158682242D02*
X155417888Y-158686832D01*
X155448231Y-158694432D01*
X155477683Y-158704970D01*
X155505961Y-158718345D01*
X155532791Y-158734426D01*
X155557916Y-158753060D01*
X155581093Y-158774067D01*
X155602100Y-158797244D01*
X155620734Y-158822369D01*
X155636815Y-158849199D01*
X155650190Y-158877477D01*
X155660728Y-158906929D01*
X155668328Y-158937272D01*
X155672918Y-158968214D01*
X155674453Y-158999457D01*
X155674453Y-159636957D01*
X155672918Y-159668200D01*
X155668328Y-159699142D01*
X155660728Y-159729485D01*
X155650190Y-159758937D01*
X155636815Y-159787215D01*
X155620734Y-159814045D01*
X155602100Y-159839170D01*
X155581093Y-159862347D01*
X155557916Y-159883354D01*
X155532791Y-159901988D01*
X155505961Y-159918069D01*
X155477683Y-159931444D01*
X155448231Y-159941982D01*
X155417888Y-159949582D01*
X155386946Y-159954172D01*
X155355703Y-159955707D01*
X154643203Y-159955707D01*
X154611960Y-159954172D01*
X154581018Y-159949582D01*
X154550675Y-159941982D01*
X154521223Y-159931444D01*
X154492945Y-159918069D01*
X154466115Y-159901988D01*
X154440990Y-159883354D01*
X154417813Y-159862347D01*
X154396806Y-159839170D01*
X154378172Y-159814045D01*
X154362091Y-159787215D01*
X154348716Y-159758937D01*
X154338178Y-159729485D01*
X154330578Y-159699142D01*
X154325988Y-159668200D01*
X154324453Y-159636957D01*
X154324453Y-158999457D01*
X154325988Y-158968214D01*
X154330578Y-158937272D01*
X154338178Y-158906929D01*
X154348716Y-158877477D01*
X154362091Y-158849199D01*
X154378172Y-158822369D01*
X154396806Y-158797244D01*
X154417813Y-158774067D01*
X154440990Y-158753060D01*
X154466115Y-158734426D01*
X154492945Y-158718345D01*
X154521223Y-158704970D01*
X154550675Y-158694432D01*
X154581018Y-158686832D01*
X154611960Y-158682242D01*
X154643203Y-158680707D01*
X155355703Y-158680707D01*
X155386946Y-158682242D01*
X155386946Y-158682242D01*
G37*
D11*
X154999453Y-159318207D03*
G04 #@! TD*
D10*
G04 #@! TO.C,R16*
G36*
X155786946Y-169677242D02*
X155817888Y-169681832D01*
X155848231Y-169689432D01*
X155877683Y-169699970D01*
X155905961Y-169713345D01*
X155932791Y-169729426D01*
X155957916Y-169748060D01*
X155981093Y-169769067D01*
X156002100Y-169792244D01*
X156020734Y-169817369D01*
X156036815Y-169844199D01*
X156050190Y-169872477D01*
X156060728Y-169901929D01*
X156068328Y-169932272D01*
X156072918Y-169963214D01*
X156074453Y-169994457D01*
X156074453Y-170631957D01*
X156072918Y-170663200D01*
X156068328Y-170694142D01*
X156060728Y-170724485D01*
X156050190Y-170753937D01*
X156036815Y-170782215D01*
X156020734Y-170809045D01*
X156002100Y-170834170D01*
X155981093Y-170857347D01*
X155957916Y-170878354D01*
X155932791Y-170896988D01*
X155905961Y-170913069D01*
X155877683Y-170926444D01*
X155848231Y-170936982D01*
X155817888Y-170944582D01*
X155786946Y-170949172D01*
X155755703Y-170950707D01*
X155043203Y-170950707D01*
X155011960Y-170949172D01*
X154981018Y-170944582D01*
X154950675Y-170936982D01*
X154921223Y-170926444D01*
X154892945Y-170913069D01*
X154866115Y-170896988D01*
X154840990Y-170878354D01*
X154817813Y-170857347D01*
X154796806Y-170834170D01*
X154778172Y-170809045D01*
X154762091Y-170782215D01*
X154748716Y-170753937D01*
X154738178Y-170724485D01*
X154730578Y-170694142D01*
X154725988Y-170663200D01*
X154724453Y-170631957D01*
X154724453Y-169994457D01*
X154725988Y-169963214D01*
X154730578Y-169932272D01*
X154738178Y-169901929D01*
X154748716Y-169872477D01*
X154762091Y-169844199D01*
X154778172Y-169817369D01*
X154796806Y-169792244D01*
X154817813Y-169769067D01*
X154840990Y-169748060D01*
X154866115Y-169729426D01*
X154892945Y-169713345D01*
X154921223Y-169699970D01*
X154950675Y-169689432D01*
X154981018Y-169681832D01*
X155011960Y-169677242D01*
X155043203Y-169675707D01*
X155755703Y-169675707D01*
X155786946Y-169677242D01*
X155786946Y-169677242D01*
G37*
D11*
X155399453Y-170313207D03*
D10*
G36*
X155786946Y-171252242D02*
X155817888Y-171256832D01*
X155848231Y-171264432D01*
X155877683Y-171274970D01*
X155905961Y-171288345D01*
X155932791Y-171304426D01*
X155957916Y-171323060D01*
X155981093Y-171344067D01*
X156002100Y-171367244D01*
X156020734Y-171392369D01*
X156036815Y-171419199D01*
X156050190Y-171447477D01*
X156060728Y-171476929D01*
X156068328Y-171507272D01*
X156072918Y-171538214D01*
X156074453Y-171569457D01*
X156074453Y-172206957D01*
X156072918Y-172238200D01*
X156068328Y-172269142D01*
X156060728Y-172299485D01*
X156050190Y-172328937D01*
X156036815Y-172357215D01*
X156020734Y-172384045D01*
X156002100Y-172409170D01*
X155981093Y-172432347D01*
X155957916Y-172453354D01*
X155932791Y-172471988D01*
X155905961Y-172488069D01*
X155877683Y-172501444D01*
X155848231Y-172511982D01*
X155817888Y-172519582D01*
X155786946Y-172524172D01*
X155755703Y-172525707D01*
X155043203Y-172525707D01*
X155011960Y-172524172D01*
X154981018Y-172519582D01*
X154950675Y-172511982D01*
X154921223Y-172501444D01*
X154892945Y-172488069D01*
X154866115Y-172471988D01*
X154840990Y-172453354D01*
X154817813Y-172432347D01*
X154796806Y-172409170D01*
X154778172Y-172384045D01*
X154762091Y-172357215D01*
X154748716Y-172328937D01*
X154738178Y-172299485D01*
X154730578Y-172269142D01*
X154725988Y-172238200D01*
X154724453Y-172206957D01*
X154724453Y-171569457D01*
X154725988Y-171538214D01*
X154730578Y-171507272D01*
X154738178Y-171476929D01*
X154748716Y-171447477D01*
X154762091Y-171419199D01*
X154778172Y-171392369D01*
X154796806Y-171367244D01*
X154817813Y-171344067D01*
X154840990Y-171323060D01*
X154866115Y-171304426D01*
X154892945Y-171288345D01*
X154921223Y-171274970D01*
X154950675Y-171264432D01*
X154981018Y-171256832D01*
X155011960Y-171252242D01*
X155043203Y-171250707D01*
X155755703Y-171250707D01*
X155786946Y-171252242D01*
X155786946Y-171252242D01*
G37*
D11*
X155399453Y-171888207D03*
G04 #@! TD*
D10*
G04 #@! TO.C,R17*
G36*
X155796946Y-166817242D02*
X155827888Y-166821832D01*
X155858231Y-166829432D01*
X155887683Y-166839970D01*
X155915961Y-166853345D01*
X155942791Y-166869426D01*
X155967916Y-166888060D01*
X155991093Y-166909067D01*
X156012100Y-166932244D01*
X156030734Y-166957369D01*
X156046815Y-166984199D01*
X156060190Y-167012477D01*
X156070728Y-167041929D01*
X156078328Y-167072272D01*
X156082918Y-167103214D01*
X156084453Y-167134457D01*
X156084453Y-167771957D01*
X156082918Y-167803200D01*
X156078328Y-167834142D01*
X156070728Y-167864485D01*
X156060190Y-167893937D01*
X156046815Y-167922215D01*
X156030734Y-167949045D01*
X156012100Y-167974170D01*
X155991093Y-167997347D01*
X155967916Y-168018354D01*
X155942791Y-168036988D01*
X155915961Y-168053069D01*
X155887683Y-168066444D01*
X155858231Y-168076982D01*
X155827888Y-168084582D01*
X155796946Y-168089172D01*
X155765703Y-168090707D01*
X155053203Y-168090707D01*
X155021960Y-168089172D01*
X154991018Y-168084582D01*
X154960675Y-168076982D01*
X154931223Y-168066444D01*
X154902945Y-168053069D01*
X154876115Y-168036988D01*
X154850990Y-168018354D01*
X154827813Y-167997347D01*
X154806806Y-167974170D01*
X154788172Y-167949045D01*
X154772091Y-167922215D01*
X154758716Y-167893937D01*
X154748178Y-167864485D01*
X154740578Y-167834142D01*
X154735988Y-167803200D01*
X154734453Y-167771957D01*
X154734453Y-167134457D01*
X154735988Y-167103214D01*
X154740578Y-167072272D01*
X154748178Y-167041929D01*
X154758716Y-167012477D01*
X154772091Y-166984199D01*
X154788172Y-166957369D01*
X154806806Y-166932244D01*
X154827813Y-166909067D01*
X154850990Y-166888060D01*
X154876115Y-166869426D01*
X154902945Y-166853345D01*
X154931223Y-166839970D01*
X154960675Y-166829432D01*
X154991018Y-166821832D01*
X155021960Y-166817242D01*
X155053203Y-166815707D01*
X155765703Y-166815707D01*
X155796946Y-166817242D01*
X155796946Y-166817242D01*
G37*
D11*
X155409453Y-167453207D03*
D10*
G36*
X155796946Y-168392242D02*
X155827888Y-168396832D01*
X155858231Y-168404432D01*
X155887683Y-168414970D01*
X155915961Y-168428345D01*
X155942791Y-168444426D01*
X155967916Y-168463060D01*
X155991093Y-168484067D01*
X156012100Y-168507244D01*
X156030734Y-168532369D01*
X156046815Y-168559199D01*
X156060190Y-168587477D01*
X156070728Y-168616929D01*
X156078328Y-168647272D01*
X156082918Y-168678214D01*
X156084453Y-168709457D01*
X156084453Y-169346957D01*
X156082918Y-169378200D01*
X156078328Y-169409142D01*
X156070728Y-169439485D01*
X156060190Y-169468937D01*
X156046815Y-169497215D01*
X156030734Y-169524045D01*
X156012100Y-169549170D01*
X155991093Y-169572347D01*
X155967916Y-169593354D01*
X155942791Y-169611988D01*
X155915961Y-169628069D01*
X155887683Y-169641444D01*
X155858231Y-169651982D01*
X155827888Y-169659582D01*
X155796946Y-169664172D01*
X155765703Y-169665707D01*
X155053203Y-169665707D01*
X155021960Y-169664172D01*
X154991018Y-169659582D01*
X154960675Y-169651982D01*
X154931223Y-169641444D01*
X154902945Y-169628069D01*
X154876115Y-169611988D01*
X154850990Y-169593354D01*
X154827813Y-169572347D01*
X154806806Y-169549170D01*
X154788172Y-169524045D01*
X154772091Y-169497215D01*
X154758716Y-169468937D01*
X154748178Y-169439485D01*
X154740578Y-169409142D01*
X154735988Y-169378200D01*
X154734453Y-169346957D01*
X154734453Y-168709457D01*
X154735988Y-168678214D01*
X154740578Y-168647272D01*
X154748178Y-168616929D01*
X154758716Y-168587477D01*
X154772091Y-168559199D01*
X154788172Y-168532369D01*
X154806806Y-168507244D01*
X154827813Y-168484067D01*
X154850990Y-168463060D01*
X154876115Y-168444426D01*
X154902945Y-168428345D01*
X154931223Y-168414970D01*
X154960675Y-168404432D01*
X154991018Y-168396832D01*
X155021960Y-168392242D01*
X155053203Y-168390707D01*
X155765703Y-168390707D01*
X155796946Y-168392242D01*
X155796946Y-168392242D01*
G37*
D11*
X155409453Y-169028207D03*
G04 #@! TD*
D31*
G04 #@! TO.C,U10*
X154129453Y-160500707D03*
X154129453Y-161400707D03*
X154129453Y-162300707D03*
X154129453Y-163200707D03*
X155329453Y-163200707D03*
X155329453Y-162300707D03*
X155329453Y-161400707D03*
X155329453Y-160500707D03*
G04 #@! TD*
M02*
