M48
;DRILL file {KiCad (5.0.0)} date 01/29/20 13:40:06
;FORMAT={-:-/ absolute / metric / decimal}
FMAT,2
METRIC,TZ
T1C0.370
T2C0.400
T3C0.500
%
G90
G05
M71
T1
X97.249Y-90.051
X111.467Y-91.153
X116.349Y-247.841
X117.659Y-165.671
X119.509Y-89.071
X119.849Y-128.741
X124.421Y-91.661
X128.424Y-156.416
X128.619Y-175.031
X128.719Y-177.631
X128.869Y-158.181
X129.269Y-167.881
X129.819Y-161.481
X129.929Y-128.831
X130.099Y-156.966
X130.499Y-166.766
X130.619Y-172.631
X131.149Y-167.241
X131.174Y-156.191
X131.619Y-170.731
X131.624Y-148.291
X131.719Y-176.431
X131.724Y-167.766
X131.769Y-163.031
X131.819Y-161.056
X132.424Y-167.216
X132.579Y-133.871
X132.874Y-156.691
X132.919Y-185.381
X134.144Y-151.956
X135.019Y-120.001
X135.194Y-149.556
X135.419Y-167.068
X136.089Y-175.601
X136.219Y-164.561
X136.819Y-160.031
X136.869Y-155.881
X136.974Y-144.741
X137.269Y-161.081
X137.824Y-145.491
X137.869Y-141.041
X138.174Y-150.616
X138.339Y-170.661
X138.399Y-147.916
X138.469Y-179.431
X138.669Y-178.481
X139.444Y-157.756
X139.659Y-143.301
X139.799Y-148.991
X139.919Y-173.431
X139.994Y-154.556
X140.069Y-135.981
X140.189Y-168.891
X140.224Y-139.416
X140.324Y-148.141
X140.589Y-176.921
X140.624Y-139.941
X140.769Y-143.881
X141.009Y-135.972
X141.019Y-162.481
X141.044Y-136.756
X141.319Y-157.481
X141.424Y-139.941
X141.574Y-140.891
X141.719Y-162.181
X142.089Y-152.611
X142.219Y-162.981
X142.474Y-144.791
X142.839Y-147.787
X142.869Y-151.771
X143.019Y-162.381
X143.069Y-186.681
X143.319Y-130.881
X143.389Y-156.261
X143.494Y-149.256
X143.679Y-136.201
X143.99Y-167.981
X144.174Y-141.241
X144.349Y-139.466
X144.419Y-147.681
X144.619Y-186.481
X145.019Y-148.381
X145.319Y-152.081
X145.319Y-184.381
X145.519Y-198.131
X145.61Y-135.867
X146.074Y-140.141
X146.219Y-199.331
X146.319Y-147.981
X146.419Y-158.811
X146.449Y-123.166
X146.461Y-145.499
X146.509Y-146.348
X146.719Y-164.381
X147.019Y-147.781
X147.699Y-154.741
X147.757Y-138.278
X148.113Y-157.178
X148.119Y-147.581
X148.239Y-171.101
X148.574Y-125.791
X148.649Y-178.391
X149.079Y-149.421
X149.319Y-141.081
X149.449Y-133.091
X149.699Y-140.471
X149.974Y-127.616
X149.974Y-131.216
X150.069Y-181.181
X150.119Y-150.456
X150.292Y-154.359
X150.399Y-139.981
X150.519Y-155.781
X151.415Y-180.731
X151.949Y-148.761
X152.309Y-184.601
X152.919Y-135.956
X153.144Y-139.031
X153.477Y-138.395
X153.674Y-136.126
X154.125Y-136.662
X154.349Y-157.021
X154.369Y-171.931
X154.509Y-166.651
X154.647Y-151.097
X155.319Y-156.841
X155.669Y-152.633
X155.889Y-135.311
X156.199Y-161.401
X156.239Y-162.301
X160.599Y-101.551
X164.389Y-83.921
T2
X95.465Y-109.187
X100.389Y-130.731
X100.545Y-148.049
X103.847Y-115.537
X106.641Y-134.333
X107.149Y-129.253
X107.209Y-76.991
X107.657Y-109.187
X111.949Y-208.766
X112.229Y-153.129
X112.239Y-146.131
X112.509Y-75.201
X113.269Y-228.271
X113.699Y-190.501
X113.753Y-126.713
X117.249Y-170.166
X118.149Y-187.181
X118.429Y-129.741
X118.819Y-191.651
X119.369Y-147.451
X120.109Y-225.431
X120.124Y-151.641
X120.489Y-242.301
X120.679Y-64.931
X120.999Y-70.951
X121.549Y-169.016
X121.839Y-61.131
X122.859Y-162.221
X124.099Y-129.711
X124.167Y-126.205
X125.524Y-227.941
X125.649Y-200.116
X125.949Y-130.381
X126.699Y-109.791
X126.769Y-243.511
X126.924Y-198.716
X127.049Y-197.466
X127.149Y-196.041
X129.029Y-100.071
X129.079Y-90.761
X130.099Y-40.401
X130.549Y-197.441
X130.774Y-200.116
X131.199Y-196.016
X132.259Y-79.431
X132.289Y-256.281
X132.979Y-57.941
X133.074Y-200.141
X133.224Y-198.691
X133.829Y-53.201
X134.039Y-253.721
X136.629Y-103.491
X136.669Y-182.481
X136.689Y-61.471
X137.224Y-148.666
X137.269Y-76.461
X138.379Y-241.601
X138.619Y-51.431
X139.309Y-205.941
X141.019Y-197.181
X141.099Y-103.731
X141.319Y-188.481
X141.849Y-58.416
X142.489Y-219.381
X142.549Y-82.516
X143.719Y-194.831
X144.489Y-170.481
X144.569Y-118.301
X144.729Y-237.591
X145.197Y-176.851
X145.619Y-188.981
X145.819Y-195.481
X146.251Y-178.173
X147.119Y-200.781
X147.3Y-182.661
X148.669Y-186.331
X149.163Y-190.911
X149.341Y-196.008
X149.449Y-89.691
X149.769Y-175.431
X149.869Y-185.331
X150.829Y-44.701
X151.574Y-252.541
X151.619Y-130.481
X152.309Y-163.641
X152.669Y-165.341
X152.999Y-175.561
X154.649Y-200.991
X154.799Y-210.316
X154.919Y-52.421
X155.669Y-155.708
X156.119Y-130.481
X156.229Y-223.871
X156.659Y-243.421
X158.339Y-81.121
X158.519Y-229.911
X158.909Y-57.191
X162.939Y-119.771
X166.259Y-41.061
X166.699Y-111.966
X171.439Y-50.811
X173.399Y-98.151
X173.679Y-62.701
X173.699Y-90.016
X173.849Y-69.991
X174.509Y-81.201
T3
X154.64Y-181.233
X154.709Y-182.231
T0
M30
