G04 #@! TF.FileFunction,Copper,L1,Top,Signal*
%FSLAX46Y46*%
G04 Gerber Fmt 4.6, Leading zero omitted, Abs format (unit mm)*
G04 Created by KiCad (PCBNEW 4.0.6) date 04/13/18 15:28:38*
%MOMM*%
%LPD*%
G01*
G04 APERTURE LIST*
%ADD10C,0.100000*%
%ADD11R,0.800000X0.750000*%
%ADD12R,0.750000X0.800000*%
%ADD13R,0.970000X1.270000*%
%ADD14R,0.500000X0.900000*%
%ADD15R,0.900000X0.500000*%
%ADD16R,0.250000X0.675000*%
%ADD17R,0.675000X0.250000*%
%ADD18R,0.650000X1.560000*%
%ADD19R,1.450000X0.450000*%
%ADD20R,1.560000X0.650000*%
%ADD21R,1.000000X0.410000*%
%ADD22R,0.410000X1.000000*%
%ADD23R,0.950000X1.250000*%
%ADD24O,0.950000X1.250000*%
%ADD25R,0.650000X1.500000*%
%ADD26R,1.800000X1.350000*%
%ADD27R,0.700000X1.300000*%
%ADD28C,0.600000*%
%ADD29C,0.250000*%
G04 APERTURE END LIST*
D10*
D11*
X176850000Y-106400000D03*
X178350000Y-106400000D03*
D12*
X170200000Y-109750000D03*
X170200000Y-108250000D03*
X176400000Y-112350000D03*
X176400000Y-110850000D03*
D11*
X181250000Y-109400000D03*
X182750000Y-109400000D03*
D12*
X183600000Y-126550000D03*
X183600000Y-125050000D03*
D13*
X176960000Y-104400000D03*
X178240000Y-104400000D03*
X181140000Y-126800000D03*
X179860000Y-126800000D03*
D14*
X187650000Y-102050000D03*
X189150000Y-102050000D03*
D15*
X181650000Y-116650000D03*
X181650000Y-115150000D03*
D14*
X185750000Y-113300000D03*
X184250000Y-113300000D03*
X169650000Y-103750000D03*
X168150000Y-103750000D03*
X169650000Y-105200000D03*
X168150000Y-105200000D03*
D16*
X166300000Y-107387500D03*
X165800000Y-107387500D03*
X166800000Y-107387500D03*
X165800000Y-109412500D03*
X166300000Y-109412500D03*
X166800000Y-109412500D03*
D17*
X165037500Y-107650000D03*
X165037500Y-108150000D03*
X165037500Y-108650000D03*
X165037500Y-109150000D03*
X167562500Y-109150000D03*
X167562500Y-108650000D03*
X167562500Y-108150000D03*
X167562500Y-107650000D03*
D18*
X178250000Y-115150000D03*
X179200000Y-115150000D03*
X180150000Y-115150000D03*
X180150000Y-112450000D03*
X178250000Y-112450000D03*
X179200000Y-112450000D03*
D19*
X182650000Y-119625000D03*
X182650000Y-120275000D03*
X182650000Y-120925000D03*
X182650000Y-121575000D03*
X188550000Y-121575000D03*
X188550000Y-120925000D03*
X188550000Y-120275000D03*
X188550000Y-119625000D03*
D20*
X188950000Y-126750000D03*
X188950000Y-125800000D03*
X188950000Y-124850000D03*
X186250000Y-124850000D03*
X186250000Y-126750000D03*
D21*
X173940000Y-117250000D03*
X164450000Y-118020000D03*
X164450000Y-118780000D03*
X164450000Y-119540000D03*
X164450000Y-120300000D03*
D22*
X165010000Y-121540000D03*
X165770000Y-121540000D03*
X166530000Y-121540000D03*
X167290000Y-121540000D03*
X168050000Y-121540000D03*
X168820000Y-121540000D03*
X169580000Y-121540000D03*
X170340000Y-121540000D03*
X171100000Y-121540000D03*
X171860000Y-121540000D03*
X172630000Y-121540000D03*
X173390000Y-121540000D03*
D21*
X173940000Y-116490000D03*
X173940000Y-115730000D03*
X173940000Y-114970000D03*
X173940000Y-114210000D03*
X173940000Y-113440000D03*
D23*
X170675000Y-125900000D03*
D24*
X171925000Y-125900000D03*
X173175000Y-125900000D03*
X174425000Y-125900000D03*
D25*
X188905000Y-104100000D03*
X187635000Y-104100000D03*
X186365000Y-104100000D03*
X185095000Y-104100000D03*
X185095000Y-109500000D03*
X186365000Y-109500000D03*
X187635000Y-109500000D03*
X188905000Y-109500000D03*
D26*
X186100000Y-107475000D03*
X187900000Y-107475000D03*
X186100000Y-106125000D03*
X187900000Y-106125000D03*
D27*
X173125000Y-128325000D03*
X171225000Y-128325000D03*
D28*
X178250000Y-102950000D03*
X189200000Y-111200000D03*
X182475000Y-108175000D03*
X178975000Y-128125000D03*
X187500000Y-123800000D03*
X185725000Y-129750000D03*
X184675000Y-127325000D03*
X171650000Y-102750000D03*
X169200000Y-107575000D03*
X162450000Y-107975000D03*
X177300000Y-126050000D03*
X176200000Y-124750000D03*
X175450000Y-120975000D03*
X175050000Y-119575000D03*
X178300000Y-120800000D03*
X169975000Y-119575000D03*
X169850000Y-118300000D03*
X169725000Y-117025000D03*
X170100000Y-115575000D03*
X170100000Y-114350000D03*
X170100000Y-113025000D03*
X166725000Y-111425000D03*
X166575000Y-110300000D03*
X163000000Y-119600000D03*
X167000000Y-106000000D03*
X172375000Y-109175000D03*
X166450000Y-103350000D03*
X173325000Y-109175000D03*
X183300000Y-123650000D03*
X183500000Y-117700000D03*
X174425000Y-109175000D03*
X172050000Y-124700000D03*
X167275000Y-125275000D03*
X186400000Y-111400000D03*
X187600000Y-111400000D03*
X189850000Y-106850000D03*
X183800000Y-106900000D03*
X183775000Y-103900000D03*
X185125000Y-106125000D03*
X184375000Y-106125000D03*
X184375000Y-107475000D03*
X189475000Y-107475000D03*
X189475000Y-106125000D03*
X188750000Y-106150000D03*
X187900000Y-107475000D03*
X188675000Y-107475000D03*
X185125000Y-107475000D03*
X186075000Y-107425000D03*
X186100000Y-106125000D03*
X187875000Y-106150000D03*
D29*
X178240000Y-102940000D02*
X178240000Y-102860000D01*
X178250000Y-102950000D02*
X178240000Y-102940000D01*
X185095000Y-104100000D02*
X185095000Y-103295000D01*
X178400000Y-102700000D02*
X183700000Y-102700000D01*
X178240000Y-102860000D02*
X178400000Y-102700000D01*
X184350000Y-102700000D02*
X183700000Y-102700000D01*
X184500000Y-102700000D02*
X184350000Y-102700000D01*
X185095000Y-103295000D02*
X184500000Y-102700000D01*
X178240000Y-104400000D02*
X178240000Y-102860000D01*
X188905000Y-109500000D02*
X188905000Y-110905000D01*
X188905000Y-110905000D02*
X189200000Y-111200000D01*
X178240000Y-104400000D02*
X178240000Y-106290000D01*
X178240000Y-106290000D02*
X178350000Y-106400000D01*
X181250000Y-109400000D02*
X182475000Y-108175000D01*
X186365000Y-104100000D02*
X186365000Y-102565000D01*
X186365000Y-102565000D02*
X185075000Y-101275000D01*
X188905000Y-104100000D02*
X188905000Y-103095000D01*
X189150000Y-102850000D02*
X189150000Y-102050000D01*
X188905000Y-103095000D02*
X189150000Y-102850000D01*
X170675000Y-125900000D02*
X170675000Y-126725000D01*
X176275000Y-128125000D02*
X178975000Y-128125000D01*
X175225000Y-127075000D02*
X176275000Y-128125000D01*
X171025000Y-127075000D02*
X175225000Y-127075000D01*
X170675000Y-126725000D02*
X171025000Y-127075000D01*
X170675000Y-125900000D02*
X170675000Y-123600000D01*
X170340000Y-123265000D02*
X170340000Y-121540000D01*
X170675000Y-123600000D02*
X170340000Y-123265000D01*
X183600000Y-125050000D02*
X183850000Y-125050000D01*
X183850000Y-125050000D02*
X184600000Y-125800000D01*
X184600000Y-125800000D02*
X188950000Y-125800000D01*
X187500000Y-123800000D02*
X187500000Y-125400000D01*
X187500000Y-125400000D02*
X187900000Y-125800000D01*
X188950000Y-125800000D02*
X187900000Y-125800000D01*
X170200000Y-109750000D02*
X170750000Y-109750000D01*
X172100000Y-108400000D02*
X176225000Y-108400000D01*
X170750000Y-109750000D02*
X172100000Y-108400000D01*
X173940000Y-113440000D02*
X173940000Y-110685000D01*
X173940000Y-110685000D02*
X176225000Y-108400000D01*
X176850000Y-107775000D02*
X176850000Y-106400000D01*
X176225000Y-108400000D02*
X176850000Y-107775000D01*
X187500000Y-123800000D02*
X187500000Y-123500000D01*
X187500000Y-123500000D02*
X187000000Y-123000000D01*
X181650000Y-115150000D02*
X185300000Y-115150000D01*
X187000000Y-116850000D02*
X187000000Y-121200000D01*
X185300000Y-115150000D02*
X187000000Y-116850000D01*
X165037500Y-107650000D02*
X165037500Y-108150000D01*
X165037500Y-108150000D02*
X165037500Y-108650000D01*
X165037500Y-108650000D02*
X165087500Y-108600000D01*
X165087500Y-108600000D02*
X166200000Y-108600000D01*
X166200000Y-108600000D02*
X166300000Y-108700000D01*
X166300000Y-108700000D02*
X166300000Y-109412500D01*
X166300000Y-109412500D02*
X166800000Y-109412500D01*
X166800000Y-109412500D02*
X167137500Y-109750000D01*
X167137500Y-109750000D02*
X170200000Y-109750000D01*
X189150000Y-102050000D02*
X189150000Y-101450000D01*
X176960000Y-102890000D02*
X176960000Y-104400000D01*
X177950000Y-101900000D02*
X176960000Y-102890000D01*
X184450000Y-101900000D02*
X177950000Y-101900000D01*
X185100000Y-101250000D02*
X185075000Y-101275000D01*
X185075000Y-101275000D02*
X184450000Y-101900000D01*
X188950000Y-101250000D02*
X185100000Y-101250000D01*
X189150000Y-101450000D02*
X188950000Y-101250000D01*
X176850000Y-106400000D02*
X176850000Y-107250000D01*
X179000000Y-109400000D02*
X179875000Y-109400000D01*
X176850000Y-107250000D02*
X178500000Y-108900000D01*
X178500000Y-108900000D02*
X179000000Y-109400000D01*
X179875000Y-109400000D02*
X181250000Y-109400000D01*
X188550000Y-120925000D02*
X187275000Y-120925000D01*
X187275000Y-120925000D02*
X187400000Y-120800000D01*
X187000000Y-123300000D02*
X187000000Y-123000000D01*
X187000000Y-123000000D02*
X187000000Y-121200000D01*
X187000000Y-121200000D02*
X187400000Y-120800000D01*
X187400000Y-120800000D02*
X187925000Y-120275000D01*
X187925000Y-120275000D02*
X188550000Y-120275000D01*
X176960000Y-104400000D02*
X176960000Y-106290000D01*
X176960000Y-106290000D02*
X176850000Y-106400000D01*
X175300000Y-128325000D02*
X175300000Y-129125000D01*
X173275000Y-129750000D02*
X166675000Y-129750000D01*
X166675000Y-129750000D02*
X162900000Y-125975000D01*
X162900000Y-125975000D02*
X162900000Y-120450000D01*
X162900000Y-120450000D02*
X162350000Y-119900000D01*
X162350000Y-119900000D02*
X162350000Y-119350000D01*
X162350000Y-119350000D02*
X162600000Y-119100000D01*
X162600000Y-119100000D02*
X162600000Y-110425000D01*
X174675000Y-129750000D02*
X173275000Y-129750000D01*
X175300000Y-129125000D02*
X174675000Y-129750000D01*
X173125000Y-128325000D02*
X175300000Y-128325000D01*
X175325000Y-128350000D02*
X176725000Y-129750000D01*
X176725000Y-129750000D02*
X185725000Y-129750000D01*
X184675000Y-127325000D02*
X185250000Y-126750000D01*
X185250000Y-126750000D02*
X186250000Y-126750000D01*
X175300000Y-128325000D02*
X175325000Y-128350000D01*
X170650000Y-103750000D02*
X171650000Y-102750000D01*
X169650000Y-103750000D02*
X170650000Y-103750000D01*
X183600000Y-126550000D02*
X186050000Y-126550000D01*
X186050000Y-126550000D02*
X186250000Y-126750000D01*
X165800000Y-109412500D02*
X165800000Y-109750000D01*
X165800000Y-109750000D02*
X165125000Y-110425000D01*
X165125000Y-110425000D02*
X162600000Y-110425000D01*
X162600000Y-110425000D02*
X162450000Y-110275000D01*
X169200000Y-107575000D02*
X169875000Y-108250000D01*
X162450000Y-110275000D02*
X162450000Y-107975000D01*
X169875000Y-108250000D02*
X170200000Y-108250000D01*
X170200000Y-108250000D02*
X170200000Y-106550000D01*
X169650000Y-106000000D02*
X169650000Y-105200000D01*
X170200000Y-106550000D02*
X169650000Y-106000000D01*
X170200000Y-108250000D02*
X169550000Y-108250000D01*
X168650000Y-109150000D02*
X167562500Y-109150000D01*
X169550000Y-108250000D02*
X168650000Y-109150000D01*
X169650000Y-105200000D02*
X169650000Y-103750000D01*
X184250000Y-113300000D02*
X184250000Y-112650000D01*
X182450000Y-110850000D02*
X178850000Y-110850000D01*
X184250000Y-112650000D02*
X182450000Y-110850000D01*
X176400000Y-110850000D02*
X178850000Y-110850000D01*
X179200000Y-111200000D02*
X179200000Y-112450000D01*
X178850000Y-110850000D02*
X179200000Y-111200000D01*
X185095000Y-109500000D02*
X185095000Y-111695000D01*
X185750000Y-112350000D02*
X185750000Y-113300000D01*
X185095000Y-111695000D02*
X185750000Y-112350000D01*
X182750000Y-109400000D02*
X183200000Y-109400000D01*
X183300000Y-109500000D02*
X185095000Y-109500000D01*
X183200000Y-109400000D02*
X183300000Y-109500000D01*
X179860000Y-126800000D02*
X179860000Y-128060000D01*
X186600000Y-129100000D02*
X188950000Y-126750000D01*
X180900000Y-129100000D02*
X186600000Y-129100000D01*
X179860000Y-128060000D02*
X180900000Y-129100000D01*
X190500000Y-124600000D02*
X190500000Y-126700000D01*
X190500000Y-126700000D02*
X190450000Y-126750000D01*
X190450000Y-126750000D02*
X188950000Y-126750000D01*
X188950000Y-124850000D02*
X190250000Y-124850000D01*
X190250000Y-124850000D02*
X190500000Y-124600000D01*
X190500000Y-124600000D02*
X190500000Y-124500000D01*
X190400000Y-124400000D02*
X190500000Y-124400000D01*
X190500000Y-124500000D02*
X190400000Y-124400000D01*
X185750000Y-113300000D02*
X186200000Y-113300000D01*
X190500000Y-124400000D02*
X190500000Y-114450000D01*
X190500000Y-114450000D02*
X188650000Y-112600000D01*
X188650000Y-112600000D02*
X186900000Y-112600000D01*
X186200000Y-113300000D02*
X186900000Y-112600000D01*
X188950000Y-124850000D02*
X189650000Y-124850000D01*
X190500000Y-124600000D02*
X190500000Y-124400000D01*
X182850000Y-109300000D02*
X182750000Y-109400000D01*
X179750000Y-126910000D02*
X179860000Y-126800000D01*
X173940000Y-114210000D02*
X176410000Y-114210000D01*
X177300000Y-117100000D02*
X177300000Y-126050000D01*
X176700000Y-116500000D02*
X177300000Y-117100000D01*
X176700000Y-114500000D02*
X176700000Y-116500000D01*
X176410000Y-114210000D02*
X176700000Y-114500000D01*
X173940000Y-114970000D02*
X175819998Y-114970000D01*
X176200000Y-115350002D02*
X176200000Y-124750000D01*
X175819998Y-114970000D02*
X176200000Y-115350002D01*
X173940000Y-115730000D02*
X175330000Y-115730000D01*
X175725000Y-120700000D02*
X175450000Y-120975000D01*
X175725000Y-116125000D02*
X175725000Y-120700000D01*
X175330000Y-115730000D02*
X175725000Y-116125000D01*
X173175000Y-125900000D02*
X173175000Y-123100000D01*
X172630000Y-122555000D02*
X172630000Y-121540000D01*
X173175000Y-123100000D02*
X172630000Y-122555000D01*
X172630000Y-121540000D02*
X172630000Y-120770000D01*
X174625000Y-120000000D02*
X175050000Y-119575000D01*
X173400000Y-120000000D02*
X174625000Y-120000000D01*
X172630000Y-120770000D02*
X173400000Y-120000000D01*
X174425000Y-125900000D02*
X174950000Y-125900000D01*
X178300000Y-126550000D02*
X178300000Y-120800000D01*
X177475000Y-127375000D02*
X178300000Y-126550000D01*
X176425000Y-127375000D02*
X177475000Y-127375000D01*
X174950000Y-125900000D02*
X176425000Y-127375000D01*
X169580000Y-121540000D02*
X169580000Y-119970000D01*
X169580000Y-119970000D02*
X169975000Y-119575000D01*
X168820000Y-121540000D02*
X168820000Y-119330000D01*
X168820000Y-119330000D02*
X169850000Y-118300000D01*
X166530000Y-121540000D02*
X166530000Y-120820000D01*
X168175000Y-118575000D02*
X169725000Y-117025000D01*
X168175000Y-119175000D02*
X168175000Y-118575000D01*
X166530000Y-120820000D02*
X168175000Y-119175000D01*
X165770000Y-121540000D02*
X165770000Y-120943602D01*
X167675000Y-118000000D02*
X170100000Y-115575000D01*
X167675000Y-119038602D02*
X167675000Y-118000000D01*
X165770000Y-120943602D02*
X167675000Y-119038602D01*
X165010000Y-121540000D02*
X165010000Y-121067204D01*
X165010000Y-121067204D02*
X167175000Y-118902204D01*
X169425000Y-115025000D02*
X170100000Y-114350000D01*
X169425000Y-115600000D02*
X169425000Y-115025000D01*
X167175000Y-117850000D02*
X169425000Y-115600000D01*
X167175000Y-118902204D02*
X167175000Y-117850000D01*
X164450000Y-120300000D02*
X165140806Y-120300000D01*
X168950000Y-114175000D02*
X170100000Y-113025000D01*
X168950000Y-115438602D02*
X168950000Y-114175000D01*
X166700000Y-117688602D02*
X168950000Y-115438602D01*
X166700000Y-118740806D02*
X166700000Y-117688602D01*
X165140806Y-120300000D02*
X166700000Y-118740806D01*
X164450000Y-118780000D02*
X165620000Y-118780000D01*
X166225000Y-111925000D02*
X166725000Y-111425000D01*
X166225000Y-118175000D02*
X166225000Y-111925000D01*
X165620000Y-118780000D02*
X166225000Y-118175000D01*
X164450000Y-118020000D02*
X164537500Y-112112500D01*
X166237500Y-110412500D02*
X166575000Y-110300000D01*
X164537500Y-112112500D02*
X166237500Y-110412500D01*
X164450000Y-119540000D02*
X163060000Y-119540000D01*
X163060000Y-119540000D02*
X163000000Y-119600000D01*
X187635000Y-104100000D02*
X187635000Y-102065000D01*
X187635000Y-102065000D02*
X187650000Y-102050000D01*
X187635000Y-102065000D02*
X187650000Y-102050000D01*
X181650000Y-116650000D02*
X179500000Y-116650000D01*
X179200000Y-116350000D02*
X179200000Y-115150000D01*
X179500000Y-116650000D02*
X179200000Y-116350000D01*
X171100000Y-121540000D02*
X171100000Y-110450000D01*
X166800000Y-105800000D02*
X166600000Y-105800000D01*
X167000000Y-106000000D02*
X166800000Y-105800000D01*
X171100000Y-110450000D02*
X172375000Y-109175000D01*
X166300000Y-107387500D02*
X166300000Y-106100000D01*
X167200000Y-105200000D02*
X168150000Y-105200000D01*
X166300000Y-106100000D02*
X166600000Y-105800000D01*
X166600000Y-105800000D02*
X167200000Y-105200000D01*
X171860000Y-121540000D02*
X171860000Y-110640000D01*
X166750000Y-103650000D02*
X166750000Y-103750000D01*
X166450000Y-103350000D02*
X166750000Y-103650000D01*
X171860000Y-110640000D02*
X173325000Y-109175000D01*
X165800000Y-107387500D02*
X165800000Y-104700000D01*
X166750000Y-103750000D02*
X168150000Y-103750000D01*
X165800000Y-104700000D02*
X166750000Y-103750000D01*
X178250000Y-115150000D02*
X178250000Y-116200000D01*
X182650000Y-123000000D02*
X182650000Y-121575000D01*
X183300000Y-123650000D02*
X182650000Y-123000000D01*
X183200000Y-118000000D02*
X183500000Y-117700000D01*
X180050000Y-118000000D02*
X183200000Y-118000000D01*
X178250000Y-116200000D02*
X180050000Y-118000000D01*
X180150000Y-115150000D02*
X180150000Y-114850000D01*
X180150000Y-114850000D02*
X180500000Y-114500000D01*
X180500000Y-114500000D02*
X187100000Y-114500000D01*
X187100000Y-114500000D02*
X189950000Y-117350000D01*
X189950000Y-117350000D02*
X189950000Y-121650000D01*
X189950000Y-121650000D02*
X189450000Y-122150000D01*
X189450000Y-122150000D02*
X189125000Y-122150000D01*
X189125000Y-122150000D02*
X188550000Y-121575000D01*
X181140000Y-126800000D02*
X181140000Y-120460000D01*
X181140000Y-120460000D02*
X181325000Y-120275000D01*
X176400000Y-112350000D02*
X176400000Y-112650000D01*
X176400000Y-112650000D02*
X177200000Y-113450000D01*
X181325000Y-120275000D02*
X182650000Y-120275000D01*
X177200000Y-116150000D02*
X181325000Y-120275000D01*
X177200000Y-113450000D02*
X177200000Y-116150000D01*
X182650000Y-120275000D02*
X181525000Y-120275000D01*
X182650000Y-120275000D02*
X182650000Y-120925000D01*
X176400000Y-112350000D02*
X178150000Y-112350000D01*
X178150000Y-112350000D02*
X178250000Y-112450000D01*
X168050000Y-127025000D02*
X168050000Y-121540000D01*
X169375000Y-128350000D02*
X168050000Y-127025000D01*
X171225000Y-128350000D02*
X169375000Y-128350000D01*
X173940000Y-116490000D02*
X173140000Y-116490000D01*
X173140000Y-116490000D02*
X172525000Y-115875000D01*
X172525000Y-115875000D02*
X172525000Y-111075000D01*
X172525000Y-111075000D02*
X174425000Y-109175000D01*
X167290000Y-121540000D02*
X167290000Y-125260000D01*
X171925000Y-124825000D02*
X171925000Y-125900000D01*
X172050000Y-124700000D02*
X171925000Y-124825000D01*
X167290000Y-125260000D02*
X167275000Y-125275000D01*
X186365000Y-109500000D02*
X186365000Y-111365000D01*
X186365000Y-111365000D02*
X186400000Y-111400000D01*
X186365000Y-111365000D02*
X186400000Y-111400000D01*
X187635000Y-109500000D02*
X187635000Y-111365000D01*
X187635000Y-111365000D02*
X187600000Y-111400000D01*
X187635000Y-111365000D02*
X187600000Y-111400000D01*
X189475000Y-107225000D02*
X189475000Y-107475000D01*
X189850000Y-106850000D02*
X189475000Y-107225000D01*
X183800000Y-103925000D02*
X183800000Y-106900000D01*
X183775000Y-103900000D02*
X183800000Y-103925000D01*
X186100000Y-106125000D02*
X185125000Y-106125000D01*
X185125000Y-106125000D02*
X184375000Y-106125000D01*
X184375000Y-107475000D02*
X185125000Y-107475000D01*
X187900000Y-107475000D02*
X189475000Y-107475000D01*
X189450000Y-106150000D02*
X188750000Y-106150000D01*
X189475000Y-106125000D02*
X189450000Y-106150000D01*
X188750000Y-106150000D02*
X187900000Y-106125000D01*
X188750000Y-106150000D02*
X188675000Y-106225000D01*
X188675000Y-106225000D02*
X188675000Y-107475000D01*
X188675000Y-107475000D02*
X187900000Y-107475000D01*
X188675000Y-107475000D02*
X187900000Y-106700000D01*
X187900000Y-106700000D02*
X187900000Y-106125000D01*
X186100000Y-107475000D02*
X185125000Y-107475000D01*
X186100000Y-107450000D02*
X186075000Y-107425000D01*
X186100000Y-107450000D02*
X186100000Y-107475000D01*
X187900000Y-106125000D02*
X187875000Y-106150000D01*
X185475000Y-107475000D02*
X186100000Y-107475000D01*
D10*
G36*
X190275000Y-108558600D02*
X189756360Y-108567102D01*
X189752424Y-108546182D01*
X189631968Y-108358988D01*
X189448173Y-108233406D01*
X189230000Y-108189225D01*
X188580000Y-108189225D01*
X188376182Y-108227576D01*
X188269814Y-108296022D01*
X188178173Y-108233406D01*
X187960000Y-108189225D01*
X187310000Y-108189225D01*
X187106182Y-108227576D01*
X186999814Y-108296022D01*
X186908173Y-108233406D01*
X186690000Y-108189225D01*
X186040000Y-108189225D01*
X185836182Y-108227576D01*
X185729814Y-108296022D01*
X185638173Y-108233406D01*
X185420000Y-108189225D01*
X184770000Y-108189225D01*
X184566182Y-108227576D01*
X184378988Y-108348032D01*
X184253406Y-108531827D01*
X184227910Y-108657733D01*
X183574144Y-108668450D01*
X183551968Y-108633988D01*
X183368173Y-108508406D01*
X183265553Y-108487625D01*
X183324852Y-108344817D01*
X183325147Y-108006666D01*
X183196015Y-107694143D01*
X182957115Y-107454826D01*
X182644817Y-107325148D01*
X182306666Y-107324853D01*
X181994143Y-107453985D01*
X181754826Y-107692885D01*
X181625148Y-108005183D01*
X181625091Y-108070315D01*
X181231181Y-108464225D01*
X180850000Y-108464225D01*
X180646182Y-108502576D01*
X180458988Y-108623032D01*
X180392315Y-108720611D01*
X180124611Y-108725000D01*
X179279594Y-108725000D01*
X178650000Y-108095406D01*
X178650000Y-107335775D01*
X178750000Y-107335775D01*
X178953818Y-107297424D01*
X179141012Y-107176968D01*
X179266594Y-106993173D01*
X179310775Y-106775000D01*
X179310775Y-106025000D01*
X179272424Y-105821182D01*
X179151968Y-105633988D01*
X178986031Y-105520608D01*
X179116012Y-105436968D01*
X179241594Y-105253173D01*
X179285775Y-105035000D01*
X179285775Y-103765000D01*
X179247424Y-103561182D01*
X179127619Y-103375000D01*
X184209225Y-103375000D01*
X184209225Y-104850000D01*
X184247576Y-105053818D01*
X184368032Y-105241012D01*
X184551827Y-105366594D01*
X184770000Y-105410775D01*
X185420000Y-105410775D01*
X185623818Y-105372424D01*
X185730186Y-105303978D01*
X185821827Y-105366594D01*
X186040000Y-105410775D01*
X186690000Y-105410775D01*
X186893818Y-105372424D01*
X187000186Y-105303978D01*
X187091827Y-105366594D01*
X187310000Y-105410775D01*
X187960000Y-105410775D01*
X188163818Y-105372424D01*
X188270186Y-105303978D01*
X188361827Y-105366594D01*
X188580000Y-105410775D01*
X189230000Y-105410775D01*
X189433818Y-105372424D01*
X189621012Y-105251968D01*
X189746594Y-105068173D01*
X189790775Y-104850000D01*
X189790775Y-103350000D01*
X189752424Y-103146182D01*
X189750408Y-103143049D01*
X189766922Y-103118334D01*
X189773619Y-103108311D01*
X189785218Y-103050000D01*
X190275000Y-103050000D01*
X190275000Y-108558600D01*
X190275000Y-108558600D01*
G37*
X190275000Y-108558600D02*
X189756360Y-108567102D01*
X189752424Y-108546182D01*
X189631968Y-108358988D01*
X189448173Y-108233406D01*
X189230000Y-108189225D01*
X188580000Y-108189225D01*
X188376182Y-108227576D01*
X188269814Y-108296022D01*
X188178173Y-108233406D01*
X187960000Y-108189225D01*
X187310000Y-108189225D01*
X187106182Y-108227576D01*
X186999814Y-108296022D01*
X186908173Y-108233406D01*
X186690000Y-108189225D01*
X186040000Y-108189225D01*
X185836182Y-108227576D01*
X185729814Y-108296022D01*
X185638173Y-108233406D01*
X185420000Y-108189225D01*
X184770000Y-108189225D01*
X184566182Y-108227576D01*
X184378988Y-108348032D01*
X184253406Y-108531827D01*
X184227910Y-108657733D01*
X183574144Y-108668450D01*
X183551968Y-108633988D01*
X183368173Y-108508406D01*
X183265553Y-108487625D01*
X183324852Y-108344817D01*
X183325147Y-108006666D01*
X183196015Y-107694143D01*
X182957115Y-107454826D01*
X182644817Y-107325148D01*
X182306666Y-107324853D01*
X181994143Y-107453985D01*
X181754826Y-107692885D01*
X181625148Y-108005183D01*
X181625091Y-108070315D01*
X181231181Y-108464225D01*
X180850000Y-108464225D01*
X180646182Y-108502576D01*
X180458988Y-108623032D01*
X180392315Y-108720611D01*
X180124611Y-108725000D01*
X179279594Y-108725000D01*
X178650000Y-108095406D01*
X178650000Y-107335775D01*
X178750000Y-107335775D01*
X178953818Y-107297424D01*
X179141012Y-107176968D01*
X179266594Y-106993173D01*
X179310775Y-106775000D01*
X179310775Y-106025000D01*
X179272424Y-105821182D01*
X179151968Y-105633988D01*
X178986031Y-105520608D01*
X179116012Y-105436968D01*
X179241594Y-105253173D01*
X179285775Y-105035000D01*
X179285775Y-103765000D01*
X179247424Y-103561182D01*
X179127619Y-103375000D01*
X184209225Y-103375000D01*
X184209225Y-104850000D01*
X184247576Y-105053818D01*
X184368032Y-105241012D01*
X184551827Y-105366594D01*
X184770000Y-105410775D01*
X185420000Y-105410775D01*
X185623818Y-105372424D01*
X185730186Y-105303978D01*
X185821827Y-105366594D01*
X186040000Y-105410775D01*
X186690000Y-105410775D01*
X186893818Y-105372424D01*
X187000186Y-105303978D01*
X187091827Y-105366594D01*
X187310000Y-105410775D01*
X187960000Y-105410775D01*
X188163818Y-105372424D01*
X188270186Y-105303978D01*
X188361827Y-105366594D01*
X188580000Y-105410775D01*
X189230000Y-105410775D01*
X189433818Y-105372424D01*
X189621012Y-105251968D01*
X189746594Y-105068173D01*
X189790775Y-104850000D01*
X189790775Y-103350000D01*
X189752424Y-103146182D01*
X189750408Y-103143049D01*
X189766922Y-103118334D01*
X189773619Y-103108311D01*
X189785218Y-103050000D01*
X190275000Y-103050000D01*
X190275000Y-108558600D01*
M02*
