M48
;DRILL file {KiCad 4.0.6} date 04/13/18 15:05:50
;FORMAT={-:-/ absolute / metric / decimal}
FMAT,2
METRIC,TZ
T1C0.400
T2C0.600
%
G90
G05
M71
T1
X162.45Y-107.975
X163.Y-119.6
X166.45Y-103.35
X166.575Y-110.3
X166.725Y-111.425
X167.Y-106.
X167.275Y-125.275
X169.2Y-107.575
X169.725Y-117.025
X169.85Y-118.3
X169.975Y-119.575
X170.1Y-113.025
X170.1Y-114.35
X170.1Y-115.575
X171.65Y-102.75
X172.05Y-124.7
X172.375Y-109.175
X173.325Y-109.175
X174.425Y-109.175
X175.05Y-119.575
X175.45Y-120.975
X176.2Y-124.75
X177.3Y-126.05
X178.25Y-102.95
X178.3Y-120.8
X178.975Y-128.125
X182.475Y-108.175
X183.3Y-123.65
X183.5Y-117.7
X183.775Y-103.9
X183.8Y-106.9
X184.375Y-106.125
X184.375Y-107.475
X184.675Y-127.325
X185.125Y-106.125
X185.125Y-107.475
X185.725Y-129.75
X186.075Y-107.425
X186.1Y-106.125
X186.4Y-111.4
X187.5Y-123.8
X187.6Y-111.4
X187.875Y-106.15
X187.9Y-107.475
X188.675Y-107.475
X188.75Y-106.15
X189.2Y-111.2
X189.475Y-106.125
X189.475Y-107.475
X189.85Y-106.85
T2
X170.675Y-125.9
X171.925Y-125.9
X173.175Y-125.9
X174.425Y-125.9
T0
M30
