G04 #@! TF.GenerationSoftware,KiCad,Pcbnew,(5.0.0)*
G04 #@! TF.CreationDate,2020-01-29T13:37:31+01:00*
G04 #@! TF.ProjectId,Insole_PCB,496E736F6C655F5043422E6B69636164,rev?*
G04 #@! TF.SameCoordinates,Original*
G04 #@! TF.FileFunction,Soldermask,Bot*
G04 #@! TF.FilePolarity,Negative*
%FSLAX46Y46*%
G04 Gerber Fmt 4.6, Leading zero omitted, Abs format (unit mm)*
G04 Created by KiCad (PCBNEW (5.0.0)) date 01/29/20 13:37:31*
%MOMM*%
%LPD*%
G01*
G04 APERTURE LIST*
%ADD10C,0.100000*%
%ADD11C,1.275000*%
%ADD12C,1.050000*%
%ADD13C,1.250000*%
%ADD14C,1.250000*%
%ADD15R,1.075000X0.650000*%
%ADD16R,0.650000X1.075000*%
%ADD17C,1.550000*%
%ADD18C,0.850000*%
%ADD19R,1.900000X0.850000*%
%ADD20R,0.850000X1.900000*%
%ADD21R,1.200000X1.300000*%
%ADD22C,0.810000*%
%ADD23C,2.200000*%
%ADD24C,0.900000*%
%ADD25C,0.800000*%
%ADD26C,1.200000*%
%ADD27C,1.725000*%
%ADD28R,1.300000X1.200000*%
%ADD29C,1.375000*%
%ADD30C,1.650000*%
%ADD31R,1.200000X0.900000*%
G04 APERTURE END LIST*
D10*
G04 #@! TO.C,R17*
G36*
X224486946Y-185697242D02*
X224517888Y-185701832D01*
X224548231Y-185709432D01*
X224577683Y-185719970D01*
X224605961Y-185733345D01*
X224632791Y-185749426D01*
X224657916Y-185768060D01*
X224681093Y-185789067D01*
X224702100Y-185812244D01*
X224720734Y-185837369D01*
X224736815Y-185864199D01*
X224750190Y-185892477D01*
X224760728Y-185921929D01*
X224768328Y-185952272D01*
X224772918Y-185983214D01*
X224774453Y-186014457D01*
X224774453Y-186651957D01*
X224772918Y-186683200D01*
X224768328Y-186714142D01*
X224760728Y-186744485D01*
X224750190Y-186773937D01*
X224736815Y-186802215D01*
X224720734Y-186829045D01*
X224702100Y-186854170D01*
X224681093Y-186877347D01*
X224657916Y-186898354D01*
X224632791Y-186916988D01*
X224605961Y-186933069D01*
X224577683Y-186946444D01*
X224548231Y-186956982D01*
X224517888Y-186964582D01*
X224486946Y-186969172D01*
X224455703Y-186970707D01*
X223743203Y-186970707D01*
X223711960Y-186969172D01*
X223681018Y-186964582D01*
X223650675Y-186956982D01*
X223621223Y-186946444D01*
X223592945Y-186933069D01*
X223566115Y-186916988D01*
X223540990Y-186898354D01*
X223517813Y-186877347D01*
X223496806Y-186854170D01*
X223478172Y-186829045D01*
X223462091Y-186802215D01*
X223448716Y-186773937D01*
X223438178Y-186744485D01*
X223430578Y-186714142D01*
X223425988Y-186683200D01*
X223424453Y-186651957D01*
X223424453Y-186014457D01*
X223425988Y-185983214D01*
X223430578Y-185952272D01*
X223438178Y-185921929D01*
X223448716Y-185892477D01*
X223462091Y-185864199D01*
X223478172Y-185837369D01*
X223496806Y-185812244D01*
X223517813Y-185789067D01*
X223540990Y-185768060D01*
X223566115Y-185749426D01*
X223592945Y-185733345D01*
X223621223Y-185719970D01*
X223650675Y-185709432D01*
X223681018Y-185701832D01*
X223711960Y-185697242D01*
X223743203Y-185695707D01*
X224455703Y-185695707D01*
X224486946Y-185697242D01*
X224486946Y-185697242D01*
G37*
D11*
X224099453Y-186333207D03*
D10*
G36*
X224486946Y-187272242D02*
X224517888Y-187276832D01*
X224548231Y-187284432D01*
X224577683Y-187294970D01*
X224605961Y-187308345D01*
X224632791Y-187324426D01*
X224657916Y-187343060D01*
X224681093Y-187364067D01*
X224702100Y-187387244D01*
X224720734Y-187412369D01*
X224736815Y-187439199D01*
X224750190Y-187467477D01*
X224760728Y-187496929D01*
X224768328Y-187527272D01*
X224772918Y-187558214D01*
X224774453Y-187589457D01*
X224774453Y-188226957D01*
X224772918Y-188258200D01*
X224768328Y-188289142D01*
X224760728Y-188319485D01*
X224750190Y-188348937D01*
X224736815Y-188377215D01*
X224720734Y-188404045D01*
X224702100Y-188429170D01*
X224681093Y-188452347D01*
X224657916Y-188473354D01*
X224632791Y-188491988D01*
X224605961Y-188508069D01*
X224577683Y-188521444D01*
X224548231Y-188531982D01*
X224517888Y-188539582D01*
X224486946Y-188544172D01*
X224455703Y-188545707D01*
X223743203Y-188545707D01*
X223711960Y-188544172D01*
X223681018Y-188539582D01*
X223650675Y-188531982D01*
X223621223Y-188521444D01*
X223592945Y-188508069D01*
X223566115Y-188491988D01*
X223540990Y-188473354D01*
X223517813Y-188452347D01*
X223496806Y-188429170D01*
X223478172Y-188404045D01*
X223462091Y-188377215D01*
X223448716Y-188348937D01*
X223438178Y-188319485D01*
X223430578Y-188289142D01*
X223425988Y-188258200D01*
X223424453Y-188226957D01*
X223424453Y-187589457D01*
X223425988Y-187558214D01*
X223430578Y-187527272D01*
X223438178Y-187496929D01*
X223448716Y-187467477D01*
X223462091Y-187439199D01*
X223478172Y-187412369D01*
X223496806Y-187387244D01*
X223517813Y-187364067D01*
X223540990Y-187343060D01*
X223566115Y-187324426D01*
X223592945Y-187308345D01*
X223621223Y-187294970D01*
X223650675Y-187284432D01*
X223681018Y-187276832D01*
X223711960Y-187272242D01*
X223743203Y-187270707D01*
X224455703Y-187270707D01*
X224486946Y-187272242D01*
X224486946Y-187272242D01*
G37*
D11*
X224099453Y-187908207D03*
G04 #@! TD*
D10*
G04 #@! TO.C,C3*
G36*
X218690259Y-190114980D02*
X218721276Y-190119029D01*
X218751748Y-190126099D01*
X218781379Y-190136121D01*
X218809886Y-190149000D01*
X218836993Y-190164611D01*
X218862439Y-190182803D01*
X218885979Y-190203402D01*
X218907387Y-190226210D01*
X218926457Y-190251005D01*
X218943004Y-190277551D01*
X218956870Y-190305591D01*
X218967920Y-190334854D01*
X218976049Y-190365060D01*
X218981179Y-190395918D01*
X218983258Y-190427129D01*
X218995693Y-191139521D01*
X218994704Y-191170786D01*
X218990655Y-191201803D01*
X218983585Y-191232275D01*
X218973563Y-191261906D01*
X218960684Y-191290413D01*
X218945073Y-191317520D01*
X218926881Y-191342966D01*
X218906282Y-191366506D01*
X218883474Y-191387914D01*
X218858679Y-191406984D01*
X218832133Y-191423531D01*
X218804093Y-191437397D01*
X218774830Y-191448447D01*
X218744624Y-191456576D01*
X218713766Y-191461706D01*
X218682555Y-191463785D01*
X218045152Y-191474911D01*
X218013887Y-191473922D01*
X217982870Y-191469873D01*
X217952398Y-191462803D01*
X217922767Y-191452781D01*
X217894260Y-191439902D01*
X217867153Y-191424291D01*
X217841707Y-191406099D01*
X217818167Y-191385500D01*
X217796759Y-191362692D01*
X217777689Y-191337897D01*
X217761142Y-191311351D01*
X217747276Y-191283311D01*
X217736226Y-191254048D01*
X217728097Y-191223842D01*
X217722967Y-191192984D01*
X217720888Y-191161773D01*
X217708453Y-190449381D01*
X217709442Y-190418116D01*
X217713491Y-190387099D01*
X217720561Y-190356627D01*
X217730583Y-190326996D01*
X217743462Y-190298489D01*
X217759073Y-190271382D01*
X217777265Y-190245936D01*
X217797864Y-190222396D01*
X217820672Y-190200988D01*
X217845467Y-190181918D01*
X217872013Y-190165371D01*
X217900053Y-190151505D01*
X217929316Y-190140455D01*
X217959522Y-190132326D01*
X217990380Y-190127196D01*
X218021591Y-190125117D01*
X218658994Y-190113991D01*
X218690259Y-190114980D01*
X218690259Y-190114980D01*
G37*
D11*
X218352073Y-190794451D03*
D10*
G36*
X220265019Y-190087492D02*
X220296036Y-190091541D01*
X220326508Y-190098611D01*
X220356139Y-190108633D01*
X220384646Y-190121512D01*
X220411753Y-190137123D01*
X220437199Y-190155315D01*
X220460739Y-190175914D01*
X220482147Y-190198722D01*
X220501217Y-190223517D01*
X220517764Y-190250063D01*
X220531630Y-190278103D01*
X220542680Y-190307366D01*
X220550809Y-190337572D01*
X220555939Y-190368430D01*
X220558018Y-190399641D01*
X220570453Y-191112033D01*
X220569464Y-191143298D01*
X220565415Y-191174315D01*
X220558345Y-191204787D01*
X220548323Y-191234418D01*
X220535444Y-191262925D01*
X220519833Y-191290032D01*
X220501641Y-191315478D01*
X220481042Y-191339018D01*
X220458234Y-191360426D01*
X220433439Y-191379496D01*
X220406893Y-191396043D01*
X220378853Y-191409909D01*
X220349590Y-191420959D01*
X220319384Y-191429088D01*
X220288526Y-191434218D01*
X220257315Y-191436297D01*
X219619912Y-191447423D01*
X219588647Y-191446434D01*
X219557630Y-191442385D01*
X219527158Y-191435315D01*
X219497527Y-191425293D01*
X219469020Y-191412414D01*
X219441913Y-191396803D01*
X219416467Y-191378611D01*
X219392927Y-191358012D01*
X219371519Y-191335204D01*
X219352449Y-191310409D01*
X219335902Y-191283863D01*
X219322036Y-191255823D01*
X219310986Y-191226560D01*
X219302857Y-191196354D01*
X219297727Y-191165496D01*
X219295648Y-191134285D01*
X219283213Y-190421893D01*
X219284202Y-190390628D01*
X219288251Y-190359611D01*
X219295321Y-190329139D01*
X219305343Y-190299508D01*
X219318222Y-190271001D01*
X219333833Y-190243894D01*
X219352025Y-190218448D01*
X219372624Y-190194908D01*
X219395432Y-190173500D01*
X219420227Y-190154430D01*
X219446773Y-190137883D01*
X219474813Y-190124017D01*
X219504076Y-190112967D01*
X219534282Y-190104838D01*
X219565140Y-190099708D01*
X219596351Y-190097629D01*
X220233754Y-190086503D01*
X220265019Y-190087492D01*
X220265019Y-190087492D01*
G37*
D11*
X219926833Y-190766963D03*
G04 #@! TD*
D12*
G04 #@! TO.C,U3*
X218956735Y-186697486D03*
D10*
G36*
X219495791Y-187498200D02*
X218445951Y-187516525D01*
X218417679Y-185896772D01*
X219467519Y-185878447D01*
X219495791Y-187498200D01*
X219495791Y-187498200D01*
G37*
D12*
X220856446Y-186664327D03*
D10*
G36*
X221395502Y-187465041D02*
X220345662Y-187483366D01*
X220317390Y-185863613D01*
X221367230Y-185845288D01*
X221395502Y-187465041D01*
X221395502Y-187465041D01*
G37*
D12*
X220902171Y-189283928D03*
D10*
G36*
X221441227Y-190084642D02*
X220391387Y-190102967D01*
X220363115Y-188483214D01*
X221412955Y-188464889D01*
X221441227Y-190084642D01*
X221441227Y-190084642D01*
G37*
D12*
X219952316Y-189300507D03*
D10*
G36*
X220491372Y-190101221D02*
X219441532Y-190119546D01*
X219413260Y-188499793D01*
X220463100Y-188481468D01*
X220491372Y-190101221D01*
X220491372Y-190101221D01*
G37*
D12*
X219002460Y-189317087D03*
D10*
G36*
X219541516Y-190117801D02*
X218491676Y-190136126D01*
X218463404Y-188516373D01*
X219513244Y-188498048D01*
X219541516Y-190117801D01*
X219541516Y-190117801D01*
G37*
G04 #@! TD*
D13*
G04 #@! TO.C,J2*
X223329697Y-200113143D03*
D14*
X223329697Y-200113143D02*
X223329697Y-200113143D01*
D13*
X223399453Y-201110707D03*
D10*
G36*
X222819573Y-201777782D02*
X222732378Y-200530827D01*
X223979333Y-200443632D01*
X224066528Y-201690587D01*
X222819573Y-201777782D01*
X222819573Y-201777782D01*
G37*
G04 #@! TD*
D15*
G04 #@! TO.C,U2*
X215771953Y-174710707D03*
X215771953Y-175210707D03*
X215771953Y-175710707D03*
X215771953Y-176210707D03*
X213246953Y-176210707D03*
X213246953Y-175710707D03*
X213246953Y-175210707D03*
X213246953Y-174710707D03*
D16*
X215009453Y-176473207D03*
X214509453Y-176473207D03*
X214009453Y-176473207D03*
X215009453Y-174448207D03*
X214009453Y-174448207D03*
X214509453Y-174448207D03*
G04 #@! TD*
D10*
G04 #@! TO.C,C1*
G36*
X221267759Y-200227263D02*
X221298559Y-200232729D01*
X221328674Y-200241187D01*
X221357815Y-200252556D01*
X221385702Y-200266727D01*
X221412066Y-200283563D01*
X221436652Y-200302901D01*
X221459224Y-200324557D01*
X221479565Y-200348321D01*
X221497479Y-200373964D01*
X221512793Y-200401240D01*
X221525360Y-200429885D01*
X221535059Y-200459624D01*
X221541796Y-200490171D01*
X221545507Y-200521230D01*
X221589977Y-201157177D01*
X221590625Y-201188451D01*
X221588205Y-201219638D01*
X221582739Y-201250437D01*
X221574281Y-201280553D01*
X221562912Y-201309694D01*
X221548741Y-201337581D01*
X221531906Y-201363944D01*
X221512567Y-201388531D01*
X221490911Y-201411103D01*
X221467147Y-201431444D01*
X221441504Y-201449358D01*
X221414229Y-201464672D01*
X221385583Y-201477239D01*
X221355844Y-201486938D01*
X221325298Y-201493675D01*
X221294238Y-201497386D01*
X220583474Y-201547087D01*
X220552200Y-201547735D01*
X220521013Y-201545315D01*
X220490213Y-201539849D01*
X220460098Y-201531391D01*
X220430957Y-201520022D01*
X220403070Y-201505851D01*
X220376706Y-201489015D01*
X220352120Y-201469677D01*
X220329548Y-201448021D01*
X220309207Y-201424257D01*
X220291293Y-201398614D01*
X220275979Y-201371338D01*
X220263412Y-201342693D01*
X220253713Y-201312954D01*
X220246976Y-201282407D01*
X220243265Y-201251348D01*
X220198795Y-200615401D01*
X220198147Y-200584127D01*
X220200567Y-200552940D01*
X220206033Y-200522141D01*
X220214491Y-200492025D01*
X220225860Y-200462884D01*
X220240031Y-200434997D01*
X220256866Y-200408634D01*
X220276205Y-200384047D01*
X220297861Y-200361475D01*
X220321625Y-200341134D01*
X220347268Y-200323220D01*
X220374543Y-200307906D01*
X220403189Y-200295339D01*
X220432928Y-200285640D01*
X220463474Y-200278903D01*
X220494534Y-200275192D01*
X221205298Y-200225491D01*
X221236572Y-200224843D01*
X221267759Y-200227263D01*
X221267759Y-200227263D01*
G37*
D11*
X220894386Y-200886289D03*
D10*
G36*
X221157893Y-198656099D02*
X221188693Y-198661565D01*
X221218808Y-198670023D01*
X221247949Y-198681392D01*
X221275836Y-198695563D01*
X221302200Y-198712399D01*
X221326786Y-198731737D01*
X221349358Y-198753393D01*
X221369699Y-198777157D01*
X221387613Y-198802800D01*
X221402927Y-198830076D01*
X221415494Y-198858721D01*
X221425193Y-198888460D01*
X221431930Y-198919007D01*
X221435641Y-198950066D01*
X221480111Y-199586013D01*
X221480759Y-199617287D01*
X221478339Y-199648474D01*
X221472873Y-199679273D01*
X221464415Y-199709389D01*
X221453046Y-199738530D01*
X221438875Y-199766417D01*
X221422040Y-199792780D01*
X221402701Y-199817367D01*
X221381045Y-199839939D01*
X221357281Y-199860280D01*
X221331638Y-199878194D01*
X221304363Y-199893508D01*
X221275717Y-199906075D01*
X221245978Y-199915774D01*
X221215432Y-199922511D01*
X221184372Y-199926222D01*
X220473608Y-199975923D01*
X220442334Y-199976571D01*
X220411147Y-199974151D01*
X220380347Y-199968685D01*
X220350232Y-199960227D01*
X220321091Y-199948858D01*
X220293204Y-199934687D01*
X220266840Y-199917851D01*
X220242254Y-199898513D01*
X220219682Y-199876857D01*
X220199341Y-199853093D01*
X220181427Y-199827450D01*
X220166113Y-199800174D01*
X220153546Y-199771529D01*
X220143847Y-199741790D01*
X220137110Y-199711243D01*
X220133399Y-199680184D01*
X220088929Y-199044237D01*
X220088281Y-199012963D01*
X220090701Y-198981776D01*
X220096167Y-198950977D01*
X220104625Y-198920861D01*
X220115994Y-198891720D01*
X220130165Y-198863833D01*
X220147000Y-198837470D01*
X220166339Y-198812883D01*
X220187995Y-198790311D01*
X220211759Y-198769970D01*
X220237402Y-198752056D01*
X220264677Y-198736742D01*
X220293323Y-198724175D01*
X220323062Y-198714476D01*
X220353608Y-198707739D01*
X220384668Y-198704028D01*
X221095432Y-198654327D01*
X221126706Y-198653679D01*
X221157893Y-198656099D01*
X221157893Y-198656099D01*
G37*
D11*
X220784520Y-199315125D03*
G04 #@! TD*
D10*
G04 #@! TO.C,C2*
G36*
X197399591Y-194913793D02*
X197430303Y-194919728D01*
X197460286Y-194928645D01*
X197489250Y-194940457D01*
X197516917Y-194955052D01*
X197543021Y-194972289D01*
X197567309Y-194992001D01*
X197589548Y-195013998D01*
X197609524Y-195038070D01*
X197627044Y-195063984D01*
X197641940Y-195091490D01*
X197654068Y-195120324D01*
X197872105Y-195719378D01*
X197881349Y-195749262D01*
X197887618Y-195779908D01*
X197890854Y-195811021D01*
X197891025Y-195842301D01*
X197888128Y-195873447D01*
X197882193Y-195904160D01*
X197873276Y-195934143D01*
X197861463Y-195963107D01*
X197846868Y-195990774D01*
X197829632Y-196016877D01*
X197809920Y-196041165D01*
X197787922Y-196063404D01*
X197763850Y-196083380D01*
X197737937Y-196100900D01*
X197710430Y-196115796D01*
X197681597Y-196127924D01*
X197012066Y-196371614D01*
X196982182Y-196380857D01*
X196951537Y-196387127D01*
X196920424Y-196390363D01*
X196889144Y-196390534D01*
X196857997Y-196387637D01*
X196827285Y-196381702D01*
X196797302Y-196372785D01*
X196768338Y-196360973D01*
X196740671Y-196346378D01*
X196714567Y-196329141D01*
X196690279Y-196309429D01*
X196668040Y-196287432D01*
X196648064Y-196263360D01*
X196630544Y-196237446D01*
X196615648Y-196209940D01*
X196603520Y-196181106D01*
X196385483Y-195582052D01*
X196376239Y-195552168D01*
X196369970Y-195521522D01*
X196366734Y-195490409D01*
X196366563Y-195459129D01*
X196369460Y-195427983D01*
X196375395Y-195397270D01*
X196384312Y-195367287D01*
X196396125Y-195338323D01*
X196410720Y-195310656D01*
X196427956Y-195284553D01*
X196447668Y-195260265D01*
X196469666Y-195238026D01*
X196493738Y-195218050D01*
X196519651Y-195200530D01*
X196547158Y-195185634D01*
X196575991Y-195173506D01*
X197245522Y-194929816D01*
X197275406Y-194920573D01*
X197306051Y-194914303D01*
X197337164Y-194911067D01*
X197368444Y-194910896D01*
X197399591Y-194913793D01*
X197399591Y-194913793D01*
G37*
D11*
X197128794Y-195650715D03*
D10*
G36*
X196860909Y-193433777D02*
X196891621Y-193439712D01*
X196921604Y-193448629D01*
X196950568Y-193460441D01*
X196978235Y-193475036D01*
X197004339Y-193492273D01*
X197028627Y-193511985D01*
X197050866Y-193533982D01*
X197070842Y-193558054D01*
X197088362Y-193583968D01*
X197103258Y-193611474D01*
X197115386Y-193640308D01*
X197333423Y-194239362D01*
X197342667Y-194269246D01*
X197348936Y-194299892D01*
X197352172Y-194331005D01*
X197352343Y-194362285D01*
X197349446Y-194393431D01*
X197343511Y-194424144D01*
X197334594Y-194454127D01*
X197322781Y-194483091D01*
X197308186Y-194510758D01*
X197290950Y-194536861D01*
X197271238Y-194561149D01*
X197249240Y-194583388D01*
X197225168Y-194603364D01*
X197199255Y-194620884D01*
X197171748Y-194635780D01*
X197142915Y-194647908D01*
X196473384Y-194891598D01*
X196443500Y-194900841D01*
X196412855Y-194907111D01*
X196381742Y-194910347D01*
X196350462Y-194910518D01*
X196319315Y-194907621D01*
X196288603Y-194901686D01*
X196258620Y-194892769D01*
X196229656Y-194880957D01*
X196201989Y-194866362D01*
X196175885Y-194849125D01*
X196151597Y-194829413D01*
X196129358Y-194807416D01*
X196109382Y-194783344D01*
X196091862Y-194757430D01*
X196076966Y-194729924D01*
X196064838Y-194701090D01*
X195846801Y-194102036D01*
X195837557Y-194072152D01*
X195831288Y-194041506D01*
X195828052Y-194010393D01*
X195827881Y-193979113D01*
X195830778Y-193947967D01*
X195836713Y-193917254D01*
X195845630Y-193887271D01*
X195857443Y-193858307D01*
X195872038Y-193830640D01*
X195889274Y-193804537D01*
X195908986Y-193780249D01*
X195930984Y-193758010D01*
X195955056Y-193738034D01*
X195980969Y-193720514D01*
X196008476Y-193705618D01*
X196037309Y-193693490D01*
X196706840Y-193449800D01*
X196736724Y-193440557D01*
X196767369Y-193434287D01*
X196798482Y-193431051D01*
X196829762Y-193430880D01*
X196860909Y-193433777D01*
X196860909Y-193433777D01*
G37*
D11*
X196590112Y-194170699D03*
G04 #@! TD*
D10*
G04 #@! TO.C,C4*
G36*
X222711532Y-187393456D02*
X222742549Y-187397505D01*
X222773021Y-187404575D01*
X222802652Y-187414597D01*
X222831159Y-187427476D01*
X222858266Y-187443087D01*
X222883712Y-187461279D01*
X222907252Y-187481878D01*
X222928660Y-187504686D01*
X222947730Y-187529481D01*
X222964277Y-187556027D01*
X222978143Y-187584067D01*
X222989193Y-187613330D01*
X222997322Y-187643536D01*
X223002452Y-187674394D01*
X223004531Y-187705605D01*
X223015657Y-188343008D01*
X223014668Y-188374273D01*
X223010619Y-188405290D01*
X223003549Y-188435762D01*
X222993527Y-188465393D01*
X222980648Y-188493900D01*
X222965037Y-188521007D01*
X222946845Y-188546453D01*
X222926246Y-188569993D01*
X222903438Y-188591401D01*
X222878643Y-188610471D01*
X222852097Y-188627018D01*
X222824057Y-188640884D01*
X222794794Y-188651934D01*
X222764588Y-188660063D01*
X222733730Y-188665193D01*
X222702519Y-188667272D01*
X221990127Y-188679707D01*
X221958862Y-188678718D01*
X221927845Y-188674669D01*
X221897373Y-188667599D01*
X221867742Y-188657577D01*
X221839235Y-188644698D01*
X221812128Y-188629087D01*
X221786682Y-188610895D01*
X221763142Y-188590296D01*
X221741734Y-188567488D01*
X221722664Y-188542693D01*
X221706117Y-188516147D01*
X221692251Y-188488107D01*
X221681201Y-188458844D01*
X221673072Y-188428638D01*
X221667942Y-188397780D01*
X221665863Y-188366569D01*
X221654737Y-187729166D01*
X221655726Y-187697901D01*
X221659775Y-187666884D01*
X221666845Y-187636412D01*
X221676867Y-187606781D01*
X221689746Y-187578274D01*
X221705357Y-187551167D01*
X221723549Y-187525721D01*
X221744148Y-187502181D01*
X221766956Y-187480773D01*
X221791751Y-187461703D01*
X221818297Y-187445156D01*
X221846337Y-187431290D01*
X221875600Y-187420240D01*
X221905806Y-187412111D01*
X221936664Y-187406981D01*
X221967875Y-187404902D01*
X222680267Y-187392467D01*
X222711532Y-187393456D01*
X222711532Y-187393456D01*
G37*
D11*
X222335197Y-188036087D03*
D10*
G36*
X222684044Y-185818696D02*
X222715061Y-185822745D01*
X222745533Y-185829815D01*
X222775164Y-185839837D01*
X222803671Y-185852716D01*
X222830778Y-185868327D01*
X222856224Y-185886519D01*
X222879764Y-185907118D01*
X222901172Y-185929926D01*
X222920242Y-185954721D01*
X222936789Y-185981267D01*
X222950655Y-186009307D01*
X222961705Y-186038570D01*
X222969834Y-186068776D01*
X222974964Y-186099634D01*
X222977043Y-186130845D01*
X222988169Y-186768248D01*
X222987180Y-186799513D01*
X222983131Y-186830530D01*
X222976061Y-186861002D01*
X222966039Y-186890633D01*
X222953160Y-186919140D01*
X222937549Y-186946247D01*
X222919357Y-186971693D01*
X222898758Y-186995233D01*
X222875950Y-187016641D01*
X222851155Y-187035711D01*
X222824609Y-187052258D01*
X222796569Y-187066124D01*
X222767306Y-187077174D01*
X222737100Y-187085303D01*
X222706242Y-187090433D01*
X222675031Y-187092512D01*
X221962639Y-187104947D01*
X221931374Y-187103958D01*
X221900357Y-187099909D01*
X221869885Y-187092839D01*
X221840254Y-187082817D01*
X221811747Y-187069938D01*
X221784640Y-187054327D01*
X221759194Y-187036135D01*
X221735654Y-187015536D01*
X221714246Y-186992728D01*
X221695176Y-186967933D01*
X221678629Y-186941387D01*
X221664763Y-186913347D01*
X221653713Y-186884084D01*
X221645584Y-186853878D01*
X221640454Y-186823020D01*
X221638375Y-186791809D01*
X221627249Y-186154406D01*
X221628238Y-186123141D01*
X221632287Y-186092124D01*
X221639357Y-186061652D01*
X221649379Y-186032021D01*
X221662258Y-186003514D01*
X221677869Y-185976407D01*
X221696061Y-185950961D01*
X221716660Y-185927421D01*
X221739468Y-185906013D01*
X221764263Y-185886943D01*
X221790809Y-185870396D01*
X221818849Y-185856530D01*
X221848112Y-185845480D01*
X221878318Y-185837351D01*
X221909176Y-185832221D01*
X221940387Y-185830142D01*
X222652779Y-185817707D01*
X222684044Y-185818696D01*
X222684044Y-185818696D01*
G37*
D11*
X222307709Y-186461327D03*
G04 #@! TD*
D10*
G04 #@! TO.C,C5*
G36*
X198849591Y-194363793D02*
X198880303Y-194369728D01*
X198910286Y-194378645D01*
X198939250Y-194390457D01*
X198966917Y-194405052D01*
X198993021Y-194422289D01*
X199017309Y-194442001D01*
X199039548Y-194463998D01*
X199059524Y-194488070D01*
X199077044Y-194513984D01*
X199091940Y-194541490D01*
X199104068Y-194570324D01*
X199322105Y-195169378D01*
X199331349Y-195199262D01*
X199337618Y-195229908D01*
X199340854Y-195261021D01*
X199341025Y-195292301D01*
X199338128Y-195323447D01*
X199332193Y-195354160D01*
X199323276Y-195384143D01*
X199311463Y-195413107D01*
X199296868Y-195440774D01*
X199279632Y-195466877D01*
X199259920Y-195491165D01*
X199237922Y-195513404D01*
X199213850Y-195533380D01*
X199187937Y-195550900D01*
X199160430Y-195565796D01*
X199131597Y-195577924D01*
X198462066Y-195821614D01*
X198432182Y-195830857D01*
X198401537Y-195837127D01*
X198370424Y-195840363D01*
X198339144Y-195840534D01*
X198307997Y-195837637D01*
X198277285Y-195831702D01*
X198247302Y-195822785D01*
X198218338Y-195810973D01*
X198190671Y-195796378D01*
X198164567Y-195779141D01*
X198140279Y-195759429D01*
X198118040Y-195737432D01*
X198098064Y-195713360D01*
X198080544Y-195687446D01*
X198065648Y-195659940D01*
X198053520Y-195631106D01*
X197835483Y-195032052D01*
X197826239Y-195002168D01*
X197819970Y-194971522D01*
X197816734Y-194940409D01*
X197816563Y-194909129D01*
X197819460Y-194877983D01*
X197825395Y-194847270D01*
X197834312Y-194817287D01*
X197846125Y-194788323D01*
X197860720Y-194760656D01*
X197877956Y-194734553D01*
X197897668Y-194710265D01*
X197919666Y-194688026D01*
X197943738Y-194668050D01*
X197969651Y-194650530D01*
X197997158Y-194635634D01*
X198025991Y-194623506D01*
X198695522Y-194379816D01*
X198725406Y-194370573D01*
X198756051Y-194364303D01*
X198787164Y-194361067D01*
X198818444Y-194360896D01*
X198849591Y-194363793D01*
X198849591Y-194363793D01*
G37*
D11*
X198578794Y-195100715D03*
D10*
G36*
X198310909Y-192883777D02*
X198341621Y-192889712D01*
X198371604Y-192898629D01*
X198400568Y-192910441D01*
X198428235Y-192925036D01*
X198454339Y-192942273D01*
X198478627Y-192961985D01*
X198500866Y-192983982D01*
X198520842Y-193008054D01*
X198538362Y-193033968D01*
X198553258Y-193061474D01*
X198565386Y-193090308D01*
X198783423Y-193689362D01*
X198792667Y-193719246D01*
X198798936Y-193749892D01*
X198802172Y-193781005D01*
X198802343Y-193812285D01*
X198799446Y-193843431D01*
X198793511Y-193874144D01*
X198784594Y-193904127D01*
X198772781Y-193933091D01*
X198758186Y-193960758D01*
X198740950Y-193986861D01*
X198721238Y-194011149D01*
X198699240Y-194033388D01*
X198675168Y-194053364D01*
X198649255Y-194070884D01*
X198621748Y-194085780D01*
X198592915Y-194097908D01*
X197923384Y-194341598D01*
X197893500Y-194350841D01*
X197862855Y-194357111D01*
X197831742Y-194360347D01*
X197800462Y-194360518D01*
X197769315Y-194357621D01*
X197738603Y-194351686D01*
X197708620Y-194342769D01*
X197679656Y-194330957D01*
X197651989Y-194316362D01*
X197625885Y-194299125D01*
X197601597Y-194279413D01*
X197579358Y-194257416D01*
X197559382Y-194233344D01*
X197541862Y-194207430D01*
X197526966Y-194179924D01*
X197514838Y-194151090D01*
X197296801Y-193552036D01*
X197287557Y-193522152D01*
X197281288Y-193491506D01*
X197278052Y-193460393D01*
X197277881Y-193429113D01*
X197280778Y-193397967D01*
X197286713Y-193367254D01*
X197295630Y-193337271D01*
X197307443Y-193308307D01*
X197322038Y-193280640D01*
X197339274Y-193254537D01*
X197358986Y-193230249D01*
X197380984Y-193208010D01*
X197405056Y-193188034D01*
X197430969Y-193170514D01*
X197458476Y-193155618D01*
X197487309Y-193143490D01*
X198156840Y-192899800D01*
X198186724Y-192890557D01*
X198217369Y-192884287D01*
X198248482Y-192881051D01*
X198279762Y-192880880D01*
X198310909Y-192883777D01*
X198310909Y-192883777D01*
G37*
D11*
X198040112Y-193620699D03*
G04 #@! TD*
D10*
G04 #@! TO.C,C6*
G36*
X205296946Y-183724742D02*
X205327888Y-183729332D01*
X205358231Y-183736932D01*
X205387683Y-183747470D01*
X205415961Y-183760845D01*
X205442791Y-183776926D01*
X205467916Y-183795560D01*
X205491093Y-183816567D01*
X205512100Y-183839744D01*
X205530734Y-183864869D01*
X205546815Y-183891699D01*
X205560190Y-183919977D01*
X205570728Y-183949429D01*
X205578328Y-183979772D01*
X205582918Y-184010714D01*
X205584453Y-184041957D01*
X205584453Y-184679457D01*
X205582918Y-184710700D01*
X205578328Y-184741642D01*
X205570728Y-184771985D01*
X205560190Y-184801437D01*
X205546815Y-184829715D01*
X205530734Y-184856545D01*
X205512100Y-184881670D01*
X205491093Y-184904847D01*
X205467916Y-184925854D01*
X205442791Y-184944488D01*
X205415961Y-184960569D01*
X205387683Y-184973944D01*
X205358231Y-184984482D01*
X205327888Y-184992082D01*
X205296946Y-184996672D01*
X205265703Y-184998207D01*
X204553203Y-184998207D01*
X204521960Y-184996672D01*
X204491018Y-184992082D01*
X204460675Y-184984482D01*
X204431223Y-184973944D01*
X204402945Y-184960569D01*
X204376115Y-184944488D01*
X204350990Y-184925854D01*
X204327813Y-184904847D01*
X204306806Y-184881670D01*
X204288172Y-184856545D01*
X204272091Y-184829715D01*
X204258716Y-184801437D01*
X204248178Y-184771985D01*
X204240578Y-184741642D01*
X204235988Y-184710700D01*
X204234453Y-184679457D01*
X204234453Y-184041957D01*
X204235988Y-184010714D01*
X204240578Y-183979772D01*
X204248178Y-183949429D01*
X204258716Y-183919977D01*
X204272091Y-183891699D01*
X204288172Y-183864869D01*
X204306806Y-183839744D01*
X204327813Y-183816567D01*
X204350990Y-183795560D01*
X204376115Y-183776926D01*
X204402945Y-183760845D01*
X204431223Y-183747470D01*
X204460675Y-183736932D01*
X204491018Y-183729332D01*
X204521960Y-183724742D01*
X204553203Y-183723207D01*
X205265703Y-183723207D01*
X205296946Y-183724742D01*
X205296946Y-183724742D01*
G37*
D11*
X204909453Y-184360707D03*
D10*
G36*
X205296946Y-185299742D02*
X205327888Y-185304332D01*
X205358231Y-185311932D01*
X205387683Y-185322470D01*
X205415961Y-185335845D01*
X205442791Y-185351926D01*
X205467916Y-185370560D01*
X205491093Y-185391567D01*
X205512100Y-185414744D01*
X205530734Y-185439869D01*
X205546815Y-185466699D01*
X205560190Y-185494977D01*
X205570728Y-185524429D01*
X205578328Y-185554772D01*
X205582918Y-185585714D01*
X205584453Y-185616957D01*
X205584453Y-186254457D01*
X205582918Y-186285700D01*
X205578328Y-186316642D01*
X205570728Y-186346985D01*
X205560190Y-186376437D01*
X205546815Y-186404715D01*
X205530734Y-186431545D01*
X205512100Y-186456670D01*
X205491093Y-186479847D01*
X205467916Y-186500854D01*
X205442791Y-186519488D01*
X205415961Y-186535569D01*
X205387683Y-186548944D01*
X205358231Y-186559482D01*
X205327888Y-186567082D01*
X205296946Y-186571672D01*
X205265703Y-186573207D01*
X204553203Y-186573207D01*
X204521960Y-186571672D01*
X204491018Y-186567082D01*
X204460675Y-186559482D01*
X204431223Y-186548944D01*
X204402945Y-186535569D01*
X204376115Y-186519488D01*
X204350990Y-186500854D01*
X204327813Y-186479847D01*
X204306806Y-186456670D01*
X204288172Y-186431545D01*
X204272091Y-186404715D01*
X204258716Y-186376437D01*
X204248178Y-186346985D01*
X204240578Y-186316642D01*
X204235988Y-186285700D01*
X204234453Y-186254457D01*
X204234453Y-185616957D01*
X204235988Y-185585714D01*
X204240578Y-185554772D01*
X204248178Y-185524429D01*
X204258716Y-185494977D01*
X204272091Y-185466699D01*
X204288172Y-185439869D01*
X204306806Y-185414744D01*
X204327813Y-185391567D01*
X204350990Y-185370560D01*
X204376115Y-185351926D01*
X204402945Y-185335845D01*
X204431223Y-185322470D01*
X204460675Y-185311932D01*
X204491018Y-185304332D01*
X204521960Y-185299742D01*
X204553203Y-185298207D01*
X205265703Y-185298207D01*
X205296946Y-185299742D01*
X205296946Y-185299742D01*
G37*
D11*
X204909453Y-185935707D03*
G04 #@! TD*
D10*
G04 #@! TO.C,C7*
G36*
X203696946Y-183737242D02*
X203727888Y-183741832D01*
X203758231Y-183749432D01*
X203787683Y-183759970D01*
X203815961Y-183773345D01*
X203842791Y-183789426D01*
X203867916Y-183808060D01*
X203891093Y-183829067D01*
X203912100Y-183852244D01*
X203930734Y-183877369D01*
X203946815Y-183904199D01*
X203960190Y-183932477D01*
X203970728Y-183961929D01*
X203978328Y-183992272D01*
X203982918Y-184023214D01*
X203984453Y-184054457D01*
X203984453Y-184691957D01*
X203982918Y-184723200D01*
X203978328Y-184754142D01*
X203970728Y-184784485D01*
X203960190Y-184813937D01*
X203946815Y-184842215D01*
X203930734Y-184869045D01*
X203912100Y-184894170D01*
X203891093Y-184917347D01*
X203867916Y-184938354D01*
X203842791Y-184956988D01*
X203815961Y-184973069D01*
X203787683Y-184986444D01*
X203758231Y-184996982D01*
X203727888Y-185004582D01*
X203696946Y-185009172D01*
X203665703Y-185010707D01*
X202953203Y-185010707D01*
X202921960Y-185009172D01*
X202891018Y-185004582D01*
X202860675Y-184996982D01*
X202831223Y-184986444D01*
X202802945Y-184973069D01*
X202776115Y-184956988D01*
X202750990Y-184938354D01*
X202727813Y-184917347D01*
X202706806Y-184894170D01*
X202688172Y-184869045D01*
X202672091Y-184842215D01*
X202658716Y-184813937D01*
X202648178Y-184784485D01*
X202640578Y-184754142D01*
X202635988Y-184723200D01*
X202634453Y-184691957D01*
X202634453Y-184054457D01*
X202635988Y-184023214D01*
X202640578Y-183992272D01*
X202648178Y-183961929D01*
X202658716Y-183932477D01*
X202672091Y-183904199D01*
X202688172Y-183877369D01*
X202706806Y-183852244D01*
X202727813Y-183829067D01*
X202750990Y-183808060D01*
X202776115Y-183789426D01*
X202802945Y-183773345D01*
X202831223Y-183759970D01*
X202860675Y-183749432D01*
X202891018Y-183741832D01*
X202921960Y-183737242D01*
X202953203Y-183735707D01*
X203665703Y-183735707D01*
X203696946Y-183737242D01*
X203696946Y-183737242D01*
G37*
D11*
X203309453Y-184373207D03*
D10*
G36*
X203696946Y-185312242D02*
X203727888Y-185316832D01*
X203758231Y-185324432D01*
X203787683Y-185334970D01*
X203815961Y-185348345D01*
X203842791Y-185364426D01*
X203867916Y-185383060D01*
X203891093Y-185404067D01*
X203912100Y-185427244D01*
X203930734Y-185452369D01*
X203946815Y-185479199D01*
X203960190Y-185507477D01*
X203970728Y-185536929D01*
X203978328Y-185567272D01*
X203982918Y-185598214D01*
X203984453Y-185629457D01*
X203984453Y-186266957D01*
X203982918Y-186298200D01*
X203978328Y-186329142D01*
X203970728Y-186359485D01*
X203960190Y-186388937D01*
X203946815Y-186417215D01*
X203930734Y-186444045D01*
X203912100Y-186469170D01*
X203891093Y-186492347D01*
X203867916Y-186513354D01*
X203842791Y-186531988D01*
X203815961Y-186548069D01*
X203787683Y-186561444D01*
X203758231Y-186571982D01*
X203727888Y-186579582D01*
X203696946Y-186584172D01*
X203665703Y-186585707D01*
X202953203Y-186585707D01*
X202921960Y-186584172D01*
X202891018Y-186579582D01*
X202860675Y-186571982D01*
X202831223Y-186561444D01*
X202802945Y-186548069D01*
X202776115Y-186531988D01*
X202750990Y-186513354D01*
X202727813Y-186492347D01*
X202706806Y-186469170D01*
X202688172Y-186444045D01*
X202672091Y-186417215D01*
X202658716Y-186388937D01*
X202648178Y-186359485D01*
X202640578Y-186329142D01*
X202635988Y-186298200D01*
X202634453Y-186266957D01*
X202634453Y-185629457D01*
X202635988Y-185598214D01*
X202640578Y-185567272D01*
X202648178Y-185536929D01*
X202658716Y-185507477D01*
X202672091Y-185479199D01*
X202688172Y-185452369D01*
X202706806Y-185427244D01*
X202727813Y-185404067D01*
X202750990Y-185383060D01*
X202776115Y-185364426D01*
X202802945Y-185348345D01*
X202831223Y-185334970D01*
X202860675Y-185324432D01*
X202891018Y-185316832D01*
X202921960Y-185312242D01*
X202953203Y-185310707D01*
X203665703Y-185310707D01*
X203696946Y-185312242D01*
X203696946Y-185312242D01*
G37*
D11*
X203309453Y-185948207D03*
G04 #@! TD*
D10*
G04 #@! TO.C,C8*
G36*
X204259446Y-177387242D02*
X204290388Y-177391832D01*
X204320731Y-177399432D01*
X204350183Y-177409970D01*
X204378461Y-177423345D01*
X204405291Y-177439426D01*
X204430416Y-177458060D01*
X204453593Y-177479067D01*
X204474600Y-177502244D01*
X204493234Y-177527369D01*
X204509315Y-177554199D01*
X204522690Y-177582477D01*
X204533228Y-177611929D01*
X204540828Y-177642272D01*
X204545418Y-177673214D01*
X204546953Y-177704457D01*
X204546953Y-178416957D01*
X204545418Y-178448200D01*
X204540828Y-178479142D01*
X204533228Y-178509485D01*
X204522690Y-178538937D01*
X204509315Y-178567215D01*
X204493234Y-178594045D01*
X204474600Y-178619170D01*
X204453593Y-178642347D01*
X204430416Y-178663354D01*
X204405291Y-178681988D01*
X204378461Y-178698069D01*
X204350183Y-178711444D01*
X204320731Y-178721982D01*
X204290388Y-178729582D01*
X204259446Y-178734172D01*
X204228203Y-178735707D01*
X203590703Y-178735707D01*
X203559460Y-178734172D01*
X203528518Y-178729582D01*
X203498175Y-178721982D01*
X203468723Y-178711444D01*
X203440445Y-178698069D01*
X203413615Y-178681988D01*
X203388490Y-178663354D01*
X203365313Y-178642347D01*
X203344306Y-178619170D01*
X203325672Y-178594045D01*
X203309591Y-178567215D01*
X203296216Y-178538937D01*
X203285678Y-178509485D01*
X203278078Y-178479142D01*
X203273488Y-178448200D01*
X203271953Y-178416957D01*
X203271953Y-177704457D01*
X203273488Y-177673214D01*
X203278078Y-177642272D01*
X203285678Y-177611929D01*
X203296216Y-177582477D01*
X203309591Y-177554199D01*
X203325672Y-177527369D01*
X203344306Y-177502244D01*
X203365313Y-177479067D01*
X203388490Y-177458060D01*
X203413615Y-177439426D01*
X203440445Y-177423345D01*
X203468723Y-177409970D01*
X203498175Y-177399432D01*
X203528518Y-177391832D01*
X203559460Y-177387242D01*
X203590703Y-177385707D01*
X204228203Y-177385707D01*
X204259446Y-177387242D01*
X204259446Y-177387242D01*
G37*
D11*
X203909453Y-178060707D03*
D10*
G36*
X205834446Y-177387242D02*
X205865388Y-177391832D01*
X205895731Y-177399432D01*
X205925183Y-177409970D01*
X205953461Y-177423345D01*
X205980291Y-177439426D01*
X206005416Y-177458060D01*
X206028593Y-177479067D01*
X206049600Y-177502244D01*
X206068234Y-177527369D01*
X206084315Y-177554199D01*
X206097690Y-177582477D01*
X206108228Y-177611929D01*
X206115828Y-177642272D01*
X206120418Y-177673214D01*
X206121953Y-177704457D01*
X206121953Y-178416957D01*
X206120418Y-178448200D01*
X206115828Y-178479142D01*
X206108228Y-178509485D01*
X206097690Y-178538937D01*
X206084315Y-178567215D01*
X206068234Y-178594045D01*
X206049600Y-178619170D01*
X206028593Y-178642347D01*
X206005416Y-178663354D01*
X205980291Y-178681988D01*
X205953461Y-178698069D01*
X205925183Y-178711444D01*
X205895731Y-178721982D01*
X205865388Y-178729582D01*
X205834446Y-178734172D01*
X205803203Y-178735707D01*
X205165703Y-178735707D01*
X205134460Y-178734172D01*
X205103518Y-178729582D01*
X205073175Y-178721982D01*
X205043723Y-178711444D01*
X205015445Y-178698069D01*
X204988615Y-178681988D01*
X204963490Y-178663354D01*
X204940313Y-178642347D01*
X204919306Y-178619170D01*
X204900672Y-178594045D01*
X204884591Y-178567215D01*
X204871216Y-178538937D01*
X204860678Y-178509485D01*
X204853078Y-178479142D01*
X204848488Y-178448200D01*
X204846953Y-178416957D01*
X204846953Y-177704457D01*
X204848488Y-177673214D01*
X204853078Y-177642272D01*
X204860678Y-177611929D01*
X204871216Y-177582477D01*
X204884591Y-177554199D01*
X204900672Y-177527369D01*
X204919306Y-177502244D01*
X204940313Y-177479067D01*
X204963490Y-177458060D01*
X204988615Y-177439426D01*
X205015445Y-177423345D01*
X205043723Y-177409970D01*
X205073175Y-177399432D01*
X205103518Y-177391832D01*
X205134460Y-177387242D01*
X205165703Y-177385707D01*
X205803203Y-177385707D01*
X205834446Y-177387242D01*
X205834446Y-177387242D01*
G37*
D11*
X205484453Y-178060707D03*
G04 #@! TD*
D10*
G04 #@! TO.C,C9*
G36*
X204259446Y-175787242D02*
X204290388Y-175791832D01*
X204320731Y-175799432D01*
X204350183Y-175809970D01*
X204378461Y-175823345D01*
X204405291Y-175839426D01*
X204430416Y-175858060D01*
X204453593Y-175879067D01*
X204474600Y-175902244D01*
X204493234Y-175927369D01*
X204509315Y-175954199D01*
X204522690Y-175982477D01*
X204533228Y-176011929D01*
X204540828Y-176042272D01*
X204545418Y-176073214D01*
X204546953Y-176104457D01*
X204546953Y-176816957D01*
X204545418Y-176848200D01*
X204540828Y-176879142D01*
X204533228Y-176909485D01*
X204522690Y-176938937D01*
X204509315Y-176967215D01*
X204493234Y-176994045D01*
X204474600Y-177019170D01*
X204453593Y-177042347D01*
X204430416Y-177063354D01*
X204405291Y-177081988D01*
X204378461Y-177098069D01*
X204350183Y-177111444D01*
X204320731Y-177121982D01*
X204290388Y-177129582D01*
X204259446Y-177134172D01*
X204228203Y-177135707D01*
X203590703Y-177135707D01*
X203559460Y-177134172D01*
X203528518Y-177129582D01*
X203498175Y-177121982D01*
X203468723Y-177111444D01*
X203440445Y-177098069D01*
X203413615Y-177081988D01*
X203388490Y-177063354D01*
X203365313Y-177042347D01*
X203344306Y-177019170D01*
X203325672Y-176994045D01*
X203309591Y-176967215D01*
X203296216Y-176938937D01*
X203285678Y-176909485D01*
X203278078Y-176879142D01*
X203273488Y-176848200D01*
X203271953Y-176816957D01*
X203271953Y-176104457D01*
X203273488Y-176073214D01*
X203278078Y-176042272D01*
X203285678Y-176011929D01*
X203296216Y-175982477D01*
X203309591Y-175954199D01*
X203325672Y-175927369D01*
X203344306Y-175902244D01*
X203365313Y-175879067D01*
X203388490Y-175858060D01*
X203413615Y-175839426D01*
X203440445Y-175823345D01*
X203468723Y-175809970D01*
X203498175Y-175799432D01*
X203528518Y-175791832D01*
X203559460Y-175787242D01*
X203590703Y-175785707D01*
X204228203Y-175785707D01*
X204259446Y-175787242D01*
X204259446Y-175787242D01*
G37*
D11*
X203909453Y-176460707D03*
D10*
G36*
X205834446Y-175787242D02*
X205865388Y-175791832D01*
X205895731Y-175799432D01*
X205925183Y-175809970D01*
X205953461Y-175823345D01*
X205980291Y-175839426D01*
X206005416Y-175858060D01*
X206028593Y-175879067D01*
X206049600Y-175902244D01*
X206068234Y-175927369D01*
X206084315Y-175954199D01*
X206097690Y-175982477D01*
X206108228Y-176011929D01*
X206115828Y-176042272D01*
X206120418Y-176073214D01*
X206121953Y-176104457D01*
X206121953Y-176816957D01*
X206120418Y-176848200D01*
X206115828Y-176879142D01*
X206108228Y-176909485D01*
X206097690Y-176938937D01*
X206084315Y-176967215D01*
X206068234Y-176994045D01*
X206049600Y-177019170D01*
X206028593Y-177042347D01*
X206005416Y-177063354D01*
X205980291Y-177081988D01*
X205953461Y-177098069D01*
X205925183Y-177111444D01*
X205895731Y-177121982D01*
X205865388Y-177129582D01*
X205834446Y-177134172D01*
X205803203Y-177135707D01*
X205165703Y-177135707D01*
X205134460Y-177134172D01*
X205103518Y-177129582D01*
X205073175Y-177121982D01*
X205043723Y-177111444D01*
X205015445Y-177098069D01*
X204988615Y-177081988D01*
X204963490Y-177063354D01*
X204940313Y-177042347D01*
X204919306Y-177019170D01*
X204900672Y-176994045D01*
X204884591Y-176967215D01*
X204871216Y-176938937D01*
X204860678Y-176909485D01*
X204853078Y-176879142D01*
X204848488Y-176848200D01*
X204846953Y-176816957D01*
X204846953Y-176104457D01*
X204848488Y-176073214D01*
X204853078Y-176042272D01*
X204860678Y-176011929D01*
X204871216Y-175982477D01*
X204884591Y-175954199D01*
X204900672Y-175927369D01*
X204919306Y-175902244D01*
X204940313Y-175879067D01*
X204963490Y-175858060D01*
X204988615Y-175839426D01*
X205015445Y-175823345D01*
X205043723Y-175809970D01*
X205073175Y-175799432D01*
X205103518Y-175791832D01*
X205134460Y-175787242D01*
X205165703Y-175785707D01*
X205803203Y-175785707D01*
X205834446Y-175787242D01*
X205834446Y-175787242D01*
G37*
D11*
X205484453Y-176460707D03*
G04 #@! TD*
D10*
G04 #@! TO.C,C10*
G36*
X210671946Y-160599742D02*
X210702888Y-160604332D01*
X210733231Y-160611932D01*
X210762683Y-160622470D01*
X210790961Y-160635845D01*
X210817791Y-160651926D01*
X210842916Y-160670560D01*
X210866093Y-160691567D01*
X210887100Y-160714744D01*
X210905734Y-160739869D01*
X210921815Y-160766699D01*
X210935190Y-160794977D01*
X210945728Y-160824429D01*
X210953328Y-160854772D01*
X210957918Y-160885714D01*
X210959453Y-160916957D01*
X210959453Y-161554457D01*
X210957918Y-161585700D01*
X210953328Y-161616642D01*
X210945728Y-161646985D01*
X210935190Y-161676437D01*
X210921815Y-161704715D01*
X210905734Y-161731545D01*
X210887100Y-161756670D01*
X210866093Y-161779847D01*
X210842916Y-161800854D01*
X210817791Y-161819488D01*
X210790961Y-161835569D01*
X210762683Y-161848944D01*
X210733231Y-161859482D01*
X210702888Y-161867082D01*
X210671946Y-161871672D01*
X210640703Y-161873207D01*
X209928203Y-161873207D01*
X209896960Y-161871672D01*
X209866018Y-161867082D01*
X209835675Y-161859482D01*
X209806223Y-161848944D01*
X209777945Y-161835569D01*
X209751115Y-161819488D01*
X209725990Y-161800854D01*
X209702813Y-161779847D01*
X209681806Y-161756670D01*
X209663172Y-161731545D01*
X209647091Y-161704715D01*
X209633716Y-161676437D01*
X209623178Y-161646985D01*
X209615578Y-161616642D01*
X209610988Y-161585700D01*
X209609453Y-161554457D01*
X209609453Y-160916957D01*
X209610988Y-160885714D01*
X209615578Y-160854772D01*
X209623178Y-160824429D01*
X209633716Y-160794977D01*
X209647091Y-160766699D01*
X209663172Y-160739869D01*
X209681806Y-160714744D01*
X209702813Y-160691567D01*
X209725990Y-160670560D01*
X209751115Y-160651926D01*
X209777945Y-160635845D01*
X209806223Y-160622470D01*
X209835675Y-160611932D01*
X209866018Y-160604332D01*
X209896960Y-160599742D01*
X209928203Y-160598207D01*
X210640703Y-160598207D01*
X210671946Y-160599742D01*
X210671946Y-160599742D01*
G37*
D11*
X210284453Y-161235707D03*
D10*
G36*
X210671946Y-162174742D02*
X210702888Y-162179332D01*
X210733231Y-162186932D01*
X210762683Y-162197470D01*
X210790961Y-162210845D01*
X210817791Y-162226926D01*
X210842916Y-162245560D01*
X210866093Y-162266567D01*
X210887100Y-162289744D01*
X210905734Y-162314869D01*
X210921815Y-162341699D01*
X210935190Y-162369977D01*
X210945728Y-162399429D01*
X210953328Y-162429772D01*
X210957918Y-162460714D01*
X210959453Y-162491957D01*
X210959453Y-163129457D01*
X210957918Y-163160700D01*
X210953328Y-163191642D01*
X210945728Y-163221985D01*
X210935190Y-163251437D01*
X210921815Y-163279715D01*
X210905734Y-163306545D01*
X210887100Y-163331670D01*
X210866093Y-163354847D01*
X210842916Y-163375854D01*
X210817791Y-163394488D01*
X210790961Y-163410569D01*
X210762683Y-163423944D01*
X210733231Y-163434482D01*
X210702888Y-163442082D01*
X210671946Y-163446672D01*
X210640703Y-163448207D01*
X209928203Y-163448207D01*
X209896960Y-163446672D01*
X209866018Y-163442082D01*
X209835675Y-163434482D01*
X209806223Y-163423944D01*
X209777945Y-163410569D01*
X209751115Y-163394488D01*
X209725990Y-163375854D01*
X209702813Y-163354847D01*
X209681806Y-163331670D01*
X209663172Y-163306545D01*
X209647091Y-163279715D01*
X209633716Y-163251437D01*
X209623178Y-163221985D01*
X209615578Y-163191642D01*
X209610988Y-163160700D01*
X209609453Y-163129457D01*
X209609453Y-162491957D01*
X209610988Y-162460714D01*
X209615578Y-162429772D01*
X209623178Y-162399429D01*
X209633716Y-162369977D01*
X209647091Y-162341699D01*
X209663172Y-162314869D01*
X209681806Y-162289744D01*
X209702813Y-162266567D01*
X209725990Y-162245560D01*
X209751115Y-162226926D01*
X209777945Y-162210845D01*
X209806223Y-162197470D01*
X209835675Y-162186932D01*
X209866018Y-162179332D01*
X209896960Y-162174742D01*
X209928203Y-162173207D01*
X210640703Y-162173207D01*
X210671946Y-162174742D01*
X210671946Y-162174742D01*
G37*
D11*
X210284453Y-162810707D03*
G04 #@! TD*
D10*
G04 #@! TO.C,C11*
G36*
X212296946Y-160612242D02*
X212327888Y-160616832D01*
X212358231Y-160624432D01*
X212387683Y-160634970D01*
X212415961Y-160648345D01*
X212442791Y-160664426D01*
X212467916Y-160683060D01*
X212491093Y-160704067D01*
X212512100Y-160727244D01*
X212530734Y-160752369D01*
X212546815Y-160779199D01*
X212560190Y-160807477D01*
X212570728Y-160836929D01*
X212578328Y-160867272D01*
X212582918Y-160898214D01*
X212584453Y-160929457D01*
X212584453Y-161566957D01*
X212582918Y-161598200D01*
X212578328Y-161629142D01*
X212570728Y-161659485D01*
X212560190Y-161688937D01*
X212546815Y-161717215D01*
X212530734Y-161744045D01*
X212512100Y-161769170D01*
X212491093Y-161792347D01*
X212467916Y-161813354D01*
X212442791Y-161831988D01*
X212415961Y-161848069D01*
X212387683Y-161861444D01*
X212358231Y-161871982D01*
X212327888Y-161879582D01*
X212296946Y-161884172D01*
X212265703Y-161885707D01*
X211553203Y-161885707D01*
X211521960Y-161884172D01*
X211491018Y-161879582D01*
X211460675Y-161871982D01*
X211431223Y-161861444D01*
X211402945Y-161848069D01*
X211376115Y-161831988D01*
X211350990Y-161813354D01*
X211327813Y-161792347D01*
X211306806Y-161769170D01*
X211288172Y-161744045D01*
X211272091Y-161717215D01*
X211258716Y-161688937D01*
X211248178Y-161659485D01*
X211240578Y-161629142D01*
X211235988Y-161598200D01*
X211234453Y-161566957D01*
X211234453Y-160929457D01*
X211235988Y-160898214D01*
X211240578Y-160867272D01*
X211248178Y-160836929D01*
X211258716Y-160807477D01*
X211272091Y-160779199D01*
X211288172Y-160752369D01*
X211306806Y-160727244D01*
X211327813Y-160704067D01*
X211350990Y-160683060D01*
X211376115Y-160664426D01*
X211402945Y-160648345D01*
X211431223Y-160634970D01*
X211460675Y-160624432D01*
X211491018Y-160616832D01*
X211521960Y-160612242D01*
X211553203Y-160610707D01*
X212265703Y-160610707D01*
X212296946Y-160612242D01*
X212296946Y-160612242D01*
G37*
D11*
X211909453Y-161248207D03*
D10*
G36*
X212296946Y-162187242D02*
X212327888Y-162191832D01*
X212358231Y-162199432D01*
X212387683Y-162209970D01*
X212415961Y-162223345D01*
X212442791Y-162239426D01*
X212467916Y-162258060D01*
X212491093Y-162279067D01*
X212512100Y-162302244D01*
X212530734Y-162327369D01*
X212546815Y-162354199D01*
X212560190Y-162382477D01*
X212570728Y-162411929D01*
X212578328Y-162442272D01*
X212582918Y-162473214D01*
X212584453Y-162504457D01*
X212584453Y-163141957D01*
X212582918Y-163173200D01*
X212578328Y-163204142D01*
X212570728Y-163234485D01*
X212560190Y-163263937D01*
X212546815Y-163292215D01*
X212530734Y-163319045D01*
X212512100Y-163344170D01*
X212491093Y-163367347D01*
X212467916Y-163388354D01*
X212442791Y-163406988D01*
X212415961Y-163423069D01*
X212387683Y-163436444D01*
X212358231Y-163446982D01*
X212327888Y-163454582D01*
X212296946Y-163459172D01*
X212265703Y-163460707D01*
X211553203Y-163460707D01*
X211521960Y-163459172D01*
X211491018Y-163454582D01*
X211460675Y-163446982D01*
X211431223Y-163436444D01*
X211402945Y-163423069D01*
X211376115Y-163406988D01*
X211350990Y-163388354D01*
X211327813Y-163367347D01*
X211306806Y-163344170D01*
X211288172Y-163319045D01*
X211272091Y-163292215D01*
X211258716Y-163263937D01*
X211248178Y-163234485D01*
X211240578Y-163204142D01*
X211235988Y-163173200D01*
X211234453Y-163141957D01*
X211234453Y-162504457D01*
X211235988Y-162473214D01*
X211240578Y-162442272D01*
X211248178Y-162411929D01*
X211258716Y-162382477D01*
X211272091Y-162354199D01*
X211288172Y-162327369D01*
X211306806Y-162302244D01*
X211327813Y-162279067D01*
X211350990Y-162258060D01*
X211376115Y-162239426D01*
X211402945Y-162223345D01*
X211431223Y-162209970D01*
X211460675Y-162199432D01*
X211491018Y-162191832D01*
X211521960Y-162187242D01*
X211553203Y-162185707D01*
X212265703Y-162185707D01*
X212296946Y-162187242D01*
X212296946Y-162187242D01*
G37*
D11*
X211909453Y-162823207D03*
G04 #@! TD*
D10*
G04 #@! TO.C,C12*
G36*
X213959446Y-178887242D02*
X213990388Y-178891832D01*
X214020731Y-178899432D01*
X214050183Y-178909970D01*
X214078461Y-178923345D01*
X214105291Y-178939426D01*
X214130416Y-178958060D01*
X214153593Y-178979067D01*
X214174600Y-179002244D01*
X214193234Y-179027369D01*
X214209315Y-179054199D01*
X214222690Y-179082477D01*
X214233228Y-179111929D01*
X214240828Y-179142272D01*
X214245418Y-179173214D01*
X214246953Y-179204457D01*
X214246953Y-179916957D01*
X214245418Y-179948200D01*
X214240828Y-179979142D01*
X214233228Y-180009485D01*
X214222690Y-180038937D01*
X214209315Y-180067215D01*
X214193234Y-180094045D01*
X214174600Y-180119170D01*
X214153593Y-180142347D01*
X214130416Y-180163354D01*
X214105291Y-180181988D01*
X214078461Y-180198069D01*
X214050183Y-180211444D01*
X214020731Y-180221982D01*
X213990388Y-180229582D01*
X213959446Y-180234172D01*
X213928203Y-180235707D01*
X213290703Y-180235707D01*
X213259460Y-180234172D01*
X213228518Y-180229582D01*
X213198175Y-180221982D01*
X213168723Y-180211444D01*
X213140445Y-180198069D01*
X213113615Y-180181988D01*
X213088490Y-180163354D01*
X213065313Y-180142347D01*
X213044306Y-180119170D01*
X213025672Y-180094045D01*
X213009591Y-180067215D01*
X212996216Y-180038937D01*
X212985678Y-180009485D01*
X212978078Y-179979142D01*
X212973488Y-179948200D01*
X212971953Y-179916957D01*
X212971953Y-179204457D01*
X212973488Y-179173214D01*
X212978078Y-179142272D01*
X212985678Y-179111929D01*
X212996216Y-179082477D01*
X213009591Y-179054199D01*
X213025672Y-179027369D01*
X213044306Y-179002244D01*
X213065313Y-178979067D01*
X213088490Y-178958060D01*
X213113615Y-178939426D01*
X213140445Y-178923345D01*
X213168723Y-178909970D01*
X213198175Y-178899432D01*
X213228518Y-178891832D01*
X213259460Y-178887242D01*
X213290703Y-178885707D01*
X213928203Y-178885707D01*
X213959446Y-178887242D01*
X213959446Y-178887242D01*
G37*
D11*
X213609453Y-179560707D03*
D10*
G36*
X212384446Y-178887242D02*
X212415388Y-178891832D01*
X212445731Y-178899432D01*
X212475183Y-178909970D01*
X212503461Y-178923345D01*
X212530291Y-178939426D01*
X212555416Y-178958060D01*
X212578593Y-178979067D01*
X212599600Y-179002244D01*
X212618234Y-179027369D01*
X212634315Y-179054199D01*
X212647690Y-179082477D01*
X212658228Y-179111929D01*
X212665828Y-179142272D01*
X212670418Y-179173214D01*
X212671953Y-179204457D01*
X212671953Y-179916957D01*
X212670418Y-179948200D01*
X212665828Y-179979142D01*
X212658228Y-180009485D01*
X212647690Y-180038937D01*
X212634315Y-180067215D01*
X212618234Y-180094045D01*
X212599600Y-180119170D01*
X212578593Y-180142347D01*
X212555416Y-180163354D01*
X212530291Y-180181988D01*
X212503461Y-180198069D01*
X212475183Y-180211444D01*
X212445731Y-180221982D01*
X212415388Y-180229582D01*
X212384446Y-180234172D01*
X212353203Y-180235707D01*
X211715703Y-180235707D01*
X211684460Y-180234172D01*
X211653518Y-180229582D01*
X211623175Y-180221982D01*
X211593723Y-180211444D01*
X211565445Y-180198069D01*
X211538615Y-180181988D01*
X211513490Y-180163354D01*
X211490313Y-180142347D01*
X211469306Y-180119170D01*
X211450672Y-180094045D01*
X211434591Y-180067215D01*
X211421216Y-180038937D01*
X211410678Y-180009485D01*
X211403078Y-179979142D01*
X211398488Y-179948200D01*
X211396953Y-179916957D01*
X211396953Y-179204457D01*
X211398488Y-179173214D01*
X211403078Y-179142272D01*
X211410678Y-179111929D01*
X211421216Y-179082477D01*
X211434591Y-179054199D01*
X211450672Y-179027369D01*
X211469306Y-179002244D01*
X211490313Y-178979067D01*
X211513490Y-178958060D01*
X211538615Y-178939426D01*
X211565445Y-178923345D01*
X211593723Y-178909970D01*
X211623175Y-178899432D01*
X211653518Y-178891832D01*
X211684460Y-178887242D01*
X211715703Y-178885707D01*
X212353203Y-178885707D01*
X212384446Y-178887242D01*
X212384446Y-178887242D01*
G37*
D11*
X212034453Y-179560707D03*
G04 #@! TD*
D10*
G04 #@! TO.C,C13*
G36*
X213959446Y-177287242D02*
X213990388Y-177291832D01*
X214020731Y-177299432D01*
X214050183Y-177309970D01*
X214078461Y-177323345D01*
X214105291Y-177339426D01*
X214130416Y-177358060D01*
X214153593Y-177379067D01*
X214174600Y-177402244D01*
X214193234Y-177427369D01*
X214209315Y-177454199D01*
X214222690Y-177482477D01*
X214233228Y-177511929D01*
X214240828Y-177542272D01*
X214245418Y-177573214D01*
X214246953Y-177604457D01*
X214246953Y-178316957D01*
X214245418Y-178348200D01*
X214240828Y-178379142D01*
X214233228Y-178409485D01*
X214222690Y-178438937D01*
X214209315Y-178467215D01*
X214193234Y-178494045D01*
X214174600Y-178519170D01*
X214153593Y-178542347D01*
X214130416Y-178563354D01*
X214105291Y-178581988D01*
X214078461Y-178598069D01*
X214050183Y-178611444D01*
X214020731Y-178621982D01*
X213990388Y-178629582D01*
X213959446Y-178634172D01*
X213928203Y-178635707D01*
X213290703Y-178635707D01*
X213259460Y-178634172D01*
X213228518Y-178629582D01*
X213198175Y-178621982D01*
X213168723Y-178611444D01*
X213140445Y-178598069D01*
X213113615Y-178581988D01*
X213088490Y-178563354D01*
X213065313Y-178542347D01*
X213044306Y-178519170D01*
X213025672Y-178494045D01*
X213009591Y-178467215D01*
X212996216Y-178438937D01*
X212985678Y-178409485D01*
X212978078Y-178379142D01*
X212973488Y-178348200D01*
X212971953Y-178316957D01*
X212971953Y-177604457D01*
X212973488Y-177573214D01*
X212978078Y-177542272D01*
X212985678Y-177511929D01*
X212996216Y-177482477D01*
X213009591Y-177454199D01*
X213025672Y-177427369D01*
X213044306Y-177402244D01*
X213065313Y-177379067D01*
X213088490Y-177358060D01*
X213113615Y-177339426D01*
X213140445Y-177323345D01*
X213168723Y-177309970D01*
X213198175Y-177299432D01*
X213228518Y-177291832D01*
X213259460Y-177287242D01*
X213290703Y-177285707D01*
X213928203Y-177285707D01*
X213959446Y-177287242D01*
X213959446Y-177287242D01*
G37*
D11*
X213609453Y-177960707D03*
D10*
G36*
X212384446Y-177287242D02*
X212415388Y-177291832D01*
X212445731Y-177299432D01*
X212475183Y-177309970D01*
X212503461Y-177323345D01*
X212530291Y-177339426D01*
X212555416Y-177358060D01*
X212578593Y-177379067D01*
X212599600Y-177402244D01*
X212618234Y-177427369D01*
X212634315Y-177454199D01*
X212647690Y-177482477D01*
X212658228Y-177511929D01*
X212665828Y-177542272D01*
X212670418Y-177573214D01*
X212671953Y-177604457D01*
X212671953Y-178316957D01*
X212670418Y-178348200D01*
X212665828Y-178379142D01*
X212658228Y-178409485D01*
X212647690Y-178438937D01*
X212634315Y-178467215D01*
X212618234Y-178494045D01*
X212599600Y-178519170D01*
X212578593Y-178542347D01*
X212555416Y-178563354D01*
X212530291Y-178581988D01*
X212503461Y-178598069D01*
X212475183Y-178611444D01*
X212445731Y-178621982D01*
X212415388Y-178629582D01*
X212384446Y-178634172D01*
X212353203Y-178635707D01*
X211715703Y-178635707D01*
X211684460Y-178634172D01*
X211653518Y-178629582D01*
X211623175Y-178621982D01*
X211593723Y-178611444D01*
X211565445Y-178598069D01*
X211538615Y-178581988D01*
X211513490Y-178563354D01*
X211490313Y-178542347D01*
X211469306Y-178519170D01*
X211450672Y-178494045D01*
X211434591Y-178467215D01*
X211421216Y-178438937D01*
X211410678Y-178409485D01*
X211403078Y-178379142D01*
X211398488Y-178348200D01*
X211396953Y-178316957D01*
X211396953Y-177604457D01*
X211398488Y-177573214D01*
X211403078Y-177542272D01*
X211410678Y-177511929D01*
X211421216Y-177482477D01*
X211434591Y-177454199D01*
X211450672Y-177427369D01*
X211469306Y-177402244D01*
X211490313Y-177379067D01*
X211513490Y-177358060D01*
X211538615Y-177339426D01*
X211565445Y-177323345D01*
X211593723Y-177309970D01*
X211623175Y-177299432D01*
X211653518Y-177291832D01*
X211684460Y-177287242D01*
X211715703Y-177285707D01*
X212353203Y-177285707D01*
X212384446Y-177287242D01*
X212384446Y-177287242D01*
G37*
D11*
X212034453Y-177960707D03*
G04 #@! TD*
D10*
G04 #@! TO.C,C14*
G36*
X215871946Y-178487242D02*
X215902888Y-178491832D01*
X215933231Y-178499432D01*
X215962683Y-178509970D01*
X215990961Y-178523345D01*
X216017791Y-178539426D01*
X216042916Y-178558060D01*
X216066093Y-178579067D01*
X216087100Y-178602244D01*
X216105734Y-178627369D01*
X216121815Y-178654199D01*
X216135190Y-178682477D01*
X216145728Y-178711929D01*
X216153328Y-178742272D01*
X216157918Y-178773214D01*
X216159453Y-178804457D01*
X216159453Y-179516957D01*
X216157918Y-179548200D01*
X216153328Y-179579142D01*
X216145728Y-179609485D01*
X216135190Y-179638937D01*
X216121815Y-179667215D01*
X216105734Y-179694045D01*
X216087100Y-179719170D01*
X216066093Y-179742347D01*
X216042916Y-179763354D01*
X216017791Y-179781988D01*
X215990961Y-179798069D01*
X215962683Y-179811444D01*
X215933231Y-179821982D01*
X215902888Y-179829582D01*
X215871946Y-179834172D01*
X215840703Y-179835707D01*
X215203203Y-179835707D01*
X215171960Y-179834172D01*
X215141018Y-179829582D01*
X215110675Y-179821982D01*
X215081223Y-179811444D01*
X215052945Y-179798069D01*
X215026115Y-179781988D01*
X215000990Y-179763354D01*
X214977813Y-179742347D01*
X214956806Y-179719170D01*
X214938172Y-179694045D01*
X214922091Y-179667215D01*
X214908716Y-179638937D01*
X214898178Y-179609485D01*
X214890578Y-179579142D01*
X214885988Y-179548200D01*
X214884453Y-179516957D01*
X214884453Y-178804457D01*
X214885988Y-178773214D01*
X214890578Y-178742272D01*
X214898178Y-178711929D01*
X214908716Y-178682477D01*
X214922091Y-178654199D01*
X214938172Y-178627369D01*
X214956806Y-178602244D01*
X214977813Y-178579067D01*
X215000990Y-178558060D01*
X215026115Y-178539426D01*
X215052945Y-178523345D01*
X215081223Y-178509970D01*
X215110675Y-178499432D01*
X215141018Y-178491832D01*
X215171960Y-178487242D01*
X215203203Y-178485707D01*
X215840703Y-178485707D01*
X215871946Y-178487242D01*
X215871946Y-178487242D01*
G37*
D11*
X215521953Y-179160707D03*
D10*
G36*
X217446946Y-178487242D02*
X217477888Y-178491832D01*
X217508231Y-178499432D01*
X217537683Y-178509970D01*
X217565961Y-178523345D01*
X217592791Y-178539426D01*
X217617916Y-178558060D01*
X217641093Y-178579067D01*
X217662100Y-178602244D01*
X217680734Y-178627369D01*
X217696815Y-178654199D01*
X217710190Y-178682477D01*
X217720728Y-178711929D01*
X217728328Y-178742272D01*
X217732918Y-178773214D01*
X217734453Y-178804457D01*
X217734453Y-179516957D01*
X217732918Y-179548200D01*
X217728328Y-179579142D01*
X217720728Y-179609485D01*
X217710190Y-179638937D01*
X217696815Y-179667215D01*
X217680734Y-179694045D01*
X217662100Y-179719170D01*
X217641093Y-179742347D01*
X217617916Y-179763354D01*
X217592791Y-179781988D01*
X217565961Y-179798069D01*
X217537683Y-179811444D01*
X217508231Y-179821982D01*
X217477888Y-179829582D01*
X217446946Y-179834172D01*
X217415703Y-179835707D01*
X216778203Y-179835707D01*
X216746960Y-179834172D01*
X216716018Y-179829582D01*
X216685675Y-179821982D01*
X216656223Y-179811444D01*
X216627945Y-179798069D01*
X216601115Y-179781988D01*
X216575990Y-179763354D01*
X216552813Y-179742347D01*
X216531806Y-179719170D01*
X216513172Y-179694045D01*
X216497091Y-179667215D01*
X216483716Y-179638937D01*
X216473178Y-179609485D01*
X216465578Y-179579142D01*
X216460988Y-179548200D01*
X216459453Y-179516957D01*
X216459453Y-178804457D01*
X216460988Y-178773214D01*
X216465578Y-178742272D01*
X216473178Y-178711929D01*
X216483716Y-178682477D01*
X216497091Y-178654199D01*
X216513172Y-178627369D01*
X216531806Y-178602244D01*
X216552813Y-178579067D01*
X216575990Y-178558060D01*
X216601115Y-178539426D01*
X216627945Y-178523345D01*
X216656223Y-178509970D01*
X216685675Y-178499432D01*
X216716018Y-178491832D01*
X216746960Y-178487242D01*
X216778203Y-178485707D01*
X217415703Y-178485707D01*
X217446946Y-178487242D01*
X217446946Y-178487242D01*
G37*
D11*
X217096953Y-179160707D03*
G04 #@! TD*
D10*
G04 #@! TO.C,L1*
G36*
X220235524Y-165307330D02*
X220268234Y-165312182D01*
X220300310Y-165320216D01*
X220331444Y-165331356D01*
X220361337Y-165345494D01*
X220389700Y-165362494D01*
X220416260Y-165382192D01*
X220440761Y-165404399D01*
X220462968Y-165428900D01*
X220482666Y-165455460D01*
X220499666Y-165483823D01*
X220513804Y-165513716D01*
X220524944Y-165544850D01*
X220532978Y-165576926D01*
X220537830Y-165609636D01*
X220539453Y-165642663D01*
X220539453Y-166518751D01*
X220537830Y-166551778D01*
X220532978Y-166584488D01*
X220524944Y-166616564D01*
X220513804Y-166647698D01*
X220499666Y-166677591D01*
X220482666Y-166705954D01*
X220462968Y-166732514D01*
X220440761Y-166757015D01*
X220416260Y-166779222D01*
X220389700Y-166798920D01*
X220361337Y-166815920D01*
X220331444Y-166830058D01*
X220300310Y-166841198D01*
X220268234Y-166849232D01*
X220235524Y-166854084D01*
X220202497Y-166855707D01*
X219076409Y-166855707D01*
X219043382Y-166854084D01*
X219010672Y-166849232D01*
X218978596Y-166841198D01*
X218947462Y-166830058D01*
X218917569Y-166815920D01*
X218889206Y-166798920D01*
X218862646Y-166779222D01*
X218838145Y-166757015D01*
X218815938Y-166732514D01*
X218796240Y-166705954D01*
X218779240Y-166677591D01*
X218765102Y-166647698D01*
X218753962Y-166616564D01*
X218745928Y-166584488D01*
X218741076Y-166551778D01*
X218739453Y-166518751D01*
X218739453Y-165642663D01*
X218741076Y-165609636D01*
X218745928Y-165576926D01*
X218753962Y-165544850D01*
X218765102Y-165513716D01*
X218779240Y-165483823D01*
X218796240Y-165455460D01*
X218815938Y-165428900D01*
X218838145Y-165404399D01*
X218862646Y-165382192D01*
X218889206Y-165362494D01*
X218917569Y-165345494D01*
X218947462Y-165331356D01*
X218978596Y-165320216D01*
X219010672Y-165312182D01*
X219043382Y-165307330D01*
X219076409Y-165305707D01*
X220202497Y-165305707D01*
X220235524Y-165307330D01*
X220235524Y-165307330D01*
G37*
D17*
X219639453Y-166080707D03*
D10*
G36*
X220235524Y-167357330D02*
X220268234Y-167362182D01*
X220300310Y-167370216D01*
X220331444Y-167381356D01*
X220361337Y-167395494D01*
X220389700Y-167412494D01*
X220416260Y-167432192D01*
X220440761Y-167454399D01*
X220462968Y-167478900D01*
X220482666Y-167505460D01*
X220499666Y-167533823D01*
X220513804Y-167563716D01*
X220524944Y-167594850D01*
X220532978Y-167626926D01*
X220537830Y-167659636D01*
X220539453Y-167692663D01*
X220539453Y-168568751D01*
X220537830Y-168601778D01*
X220532978Y-168634488D01*
X220524944Y-168666564D01*
X220513804Y-168697698D01*
X220499666Y-168727591D01*
X220482666Y-168755954D01*
X220462968Y-168782514D01*
X220440761Y-168807015D01*
X220416260Y-168829222D01*
X220389700Y-168848920D01*
X220361337Y-168865920D01*
X220331444Y-168880058D01*
X220300310Y-168891198D01*
X220268234Y-168899232D01*
X220235524Y-168904084D01*
X220202497Y-168905707D01*
X219076409Y-168905707D01*
X219043382Y-168904084D01*
X219010672Y-168899232D01*
X218978596Y-168891198D01*
X218947462Y-168880058D01*
X218917569Y-168865920D01*
X218889206Y-168848920D01*
X218862646Y-168829222D01*
X218838145Y-168807015D01*
X218815938Y-168782514D01*
X218796240Y-168755954D01*
X218779240Y-168727591D01*
X218765102Y-168697698D01*
X218753962Y-168666564D01*
X218745928Y-168634488D01*
X218741076Y-168601778D01*
X218739453Y-168568751D01*
X218739453Y-167692663D01*
X218741076Y-167659636D01*
X218745928Y-167626926D01*
X218753962Y-167594850D01*
X218765102Y-167563716D01*
X218779240Y-167533823D01*
X218796240Y-167505460D01*
X218815938Y-167478900D01*
X218838145Y-167454399D01*
X218862646Y-167432192D01*
X218889206Y-167412494D01*
X218917569Y-167395494D01*
X218947462Y-167381356D01*
X218978596Y-167370216D01*
X219010672Y-167362182D01*
X219043382Y-167357330D01*
X219076409Y-167355707D01*
X220202497Y-167355707D01*
X220235524Y-167357330D01*
X220235524Y-167357330D01*
G37*
D17*
X219639453Y-168130707D03*
G04 #@! TD*
D10*
G04 #@! TO.C,L2*
G36*
X217247347Y-154388079D02*
X217279880Y-154393998D01*
X217311676Y-154403078D01*
X217342429Y-154415231D01*
X217371843Y-154430340D01*
X218347063Y-154993384D01*
X218374854Y-155011303D01*
X218400756Y-155031859D01*
X218424517Y-155054856D01*
X218445910Y-155080070D01*
X218464729Y-155107260D01*
X218480792Y-155136164D01*
X218493944Y-155166503D01*
X218504060Y-155197985D01*
X218511040Y-155230308D01*
X218514820Y-155263158D01*
X218515361Y-155296221D01*
X218512658Y-155329178D01*
X218506739Y-155361711D01*
X218497659Y-155393507D01*
X218485506Y-155424260D01*
X218470397Y-155453674D01*
X218032353Y-156212388D01*
X218014435Y-156240179D01*
X217993878Y-156266081D01*
X217970881Y-156289842D01*
X217945667Y-156311235D01*
X217918477Y-156330054D01*
X217889573Y-156346117D01*
X217859234Y-156359269D01*
X217827752Y-156369385D01*
X217795430Y-156376365D01*
X217762579Y-156380145D01*
X217729516Y-156380686D01*
X217696559Y-156377983D01*
X217664026Y-156372064D01*
X217632230Y-156362984D01*
X217601477Y-156350831D01*
X217572063Y-156335722D01*
X216596843Y-155772678D01*
X216569052Y-155754759D01*
X216543150Y-155734203D01*
X216519389Y-155711206D01*
X216497996Y-155685992D01*
X216479177Y-155658802D01*
X216463114Y-155629898D01*
X216449962Y-155599559D01*
X216439846Y-155568077D01*
X216432866Y-155535754D01*
X216429086Y-155502904D01*
X216428545Y-155469841D01*
X216431248Y-155436884D01*
X216437167Y-155404351D01*
X216446247Y-155372555D01*
X216458400Y-155341802D01*
X216473509Y-155312388D01*
X216911553Y-154553674D01*
X216929471Y-154525883D01*
X216950028Y-154499981D01*
X216973025Y-154476220D01*
X216998239Y-154454827D01*
X217025429Y-154436008D01*
X217054333Y-154419945D01*
X217084672Y-154406793D01*
X217116154Y-154396677D01*
X217148476Y-154389697D01*
X217181327Y-154385917D01*
X217214390Y-154385376D01*
X217247347Y-154388079D01*
X217247347Y-154388079D01*
G37*
D17*
X217471953Y-155383031D03*
D10*
G36*
X216222347Y-156163431D02*
X216254880Y-156169350D01*
X216286676Y-156178430D01*
X216317429Y-156190583D01*
X216346843Y-156205692D01*
X217322063Y-156768736D01*
X217349854Y-156786655D01*
X217375756Y-156807211D01*
X217399517Y-156830208D01*
X217420910Y-156855422D01*
X217439729Y-156882612D01*
X217455792Y-156911516D01*
X217468944Y-156941855D01*
X217479060Y-156973337D01*
X217486040Y-157005660D01*
X217489820Y-157038510D01*
X217490361Y-157071573D01*
X217487658Y-157104530D01*
X217481739Y-157137063D01*
X217472659Y-157168859D01*
X217460506Y-157199612D01*
X217445397Y-157229026D01*
X217007353Y-157987740D01*
X216989435Y-158015531D01*
X216968878Y-158041433D01*
X216945881Y-158065194D01*
X216920667Y-158086587D01*
X216893477Y-158105406D01*
X216864573Y-158121469D01*
X216834234Y-158134621D01*
X216802752Y-158144737D01*
X216770430Y-158151717D01*
X216737579Y-158155497D01*
X216704516Y-158156038D01*
X216671559Y-158153335D01*
X216639026Y-158147416D01*
X216607230Y-158138336D01*
X216576477Y-158126183D01*
X216547063Y-158111074D01*
X215571843Y-157548030D01*
X215544052Y-157530111D01*
X215518150Y-157509555D01*
X215494389Y-157486558D01*
X215472996Y-157461344D01*
X215454177Y-157434154D01*
X215438114Y-157405250D01*
X215424962Y-157374911D01*
X215414846Y-157343429D01*
X215407866Y-157311106D01*
X215404086Y-157278256D01*
X215403545Y-157245193D01*
X215406248Y-157212236D01*
X215412167Y-157179703D01*
X215421247Y-157147907D01*
X215433400Y-157117154D01*
X215448509Y-157087740D01*
X215886553Y-156329026D01*
X215904471Y-156301235D01*
X215925028Y-156275333D01*
X215948025Y-156251572D01*
X215973239Y-156230179D01*
X216000429Y-156211360D01*
X216029333Y-156195297D01*
X216059672Y-156182145D01*
X216091154Y-156172029D01*
X216123476Y-156165049D01*
X216156327Y-156161269D01*
X216189390Y-156160728D01*
X216222347Y-156163431D01*
X216222347Y-156163431D01*
G37*
D17*
X216446953Y-157158383D03*
G04 #@! TD*
D18*
G04 #@! TO.C,MUX1*
X211904661Y-158352982D03*
D10*
G36*
X212011600Y-157317758D02*
X212747722Y-157742758D01*
X211797722Y-159388206D01*
X211061600Y-158963206D01*
X212011600Y-157317758D01*
X212011600Y-157317758D01*
G37*
D18*
X211341744Y-158027982D03*
D10*
G36*
X211448683Y-156992758D02*
X212184805Y-157417758D01*
X211234805Y-159063206D01*
X210498683Y-158638206D01*
X211448683Y-156992758D01*
X211448683Y-156992758D01*
G37*
D18*
X210778828Y-157702982D03*
D10*
G36*
X210885767Y-156667758D02*
X211621889Y-157092758D01*
X210671889Y-158738206D01*
X209935767Y-158313206D01*
X210885767Y-156667758D01*
X210885767Y-156667758D01*
G37*
D18*
X210215911Y-157377982D03*
D10*
G36*
X210322850Y-156342758D02*
X211058972Y-156767758D01*
X210108972Y-158413206D01*
X209372850Y-157988206D01*
X210322850Y-156342758D01*
X210322850Y-156342758D01*
G37*
D18*
X209652995Y-157052982D03*
D10*
G36*
X209759934Y-156017758D02*
X210496056Y-156442758D01*
X209546056Y-158088206D01*
X208809934Y-157663206D01*
X209759934Y-156017758D01*
X209759934Y-156017758D01*
G37*
D18*
X209090078Y-156727982D03*
D10*
G36*
X209197017Y-155692758D02*
X209933139Y-156117758D01*
X208983139Y-157763206D01*
X208247017Y-157338206D01*
X209197017Y-155692758D01*
X209197017Y-155692758D01*
G37*
D18*
X208527162Y-156402982D03*
D10*
G36*
X208634101Y-155367758D02*
X209370223Y-155792758D01*
X208420223Y-157438206D01*
X207684101Y-157013206D01*
X208634101Y-155367758D01*
X208634101Y-155367758D01*
G37*
D18*
X207964245Y-156077982D03*
D10*
G36*
X208071184Y-155042758D02*
X208807306Y-155467758D01*
X207857306Y-157113206D01*
X207121184Y-156688206D01*
X208071184Y-155042758D01*
X208071184Y-155042758D01*
G37*
D18*
X210914245Y-150968432D03*
D10*
G36*
X211021184Y-149933208D02*
X211757306Y-150358208D01*
X210807306Y-152003656D01*
X210071184Y-151578656D01*
X211021184Y-149933208D01*
X211021184Y-149933208D01*
G37*
D18*
X211477162Y-151293432D03*
D10*
G36*
X211584101Y-150258208D02*
X212320223Y-150683208D01*
X211370223Y-152328656D01*
X210634101Y-151903656D01*
X211584101Y-150258208D01*
X211584101Y-150258208D01*
G37*
D18*
X212040078Y-151618432D03*
D10*
G36*
X212147017Y-150583208D02*
X212883139Y-151008208D01*
X211933139Y-152653656D01*
X211197017Y-152228656D01*
X212147017Y-150583208D01*
X212147017Y-150583208D01*
G37*
D18*
X212602995Y-151943432D03*
D10*
G36*
X212709934Y-150908208D02*
X213446056Y-151333208D01*
X212496056Y-152978656D01*
X211759934Y-152553656D01*
X212709934Y-150908208D01*
X212709934Y-150908208D01*
G37*
D18*
X213165911Y-152268432D03*
D10*
G36*
X213272850Y-151233208D02*
X214008972Y-151658208D01*
X213058972Y-153303656D01*
X212322850Y-152878656D01*
X213272850Y-151233208D01*
X213272850Y-151233208D01*
G37*
D18*
X213728828Y-152593432D03*
D10*
G36*
X213835767Y-151558208D02*
X214571889Y-151983208D01*
X213621889Y-153628656D01*
X212885767Y-153203656D01*
X213835767Y-151558208D01*
X213835767Y-151558208D01*
G37*
D18*
X214291744Y-152918432D03*
D10*
G36*
X214398683Y-151883208D02*
X215134805Y-152308208D01*
X214184805Y-153953656D01*
X213448683Y-153528656D01*
X214398683Y-151883208D01*
X214398683Y-151883208D01*
G37*
D18*
X214854661Y-153243432D03*
D10*
G36*
X214961600Y-152208208D02*
X215697722Y-152633208D01*
X214747722Y-154278656D01*
X214011600Y-153853656D01*
X214961600Y-152208208D01*
X214961600Y-152208208D01*
G37*
G04 #@! TD*
D19*
G04 #@! TO.C,MUX2*
X203859453Y-174735707D03*
X203859453Y-174085707D03*
X203859453Y-173435707D03*
X203859453Y-172785707D03*
X203859453Y-172135707D03*
X203859453Y-171485707D03*
X203859453Y-170835707D03*
X203859453Y-170185707D03*
X209759453Y-170185707D03*
X209759453Y-170835707D03*
X209759453Y-171485707D03*
X209759453Y-172135707D03*
X209759453Y-172785707D03*
X209759453Y-173435707D03*
X209759453Y-174085707D03*
X209759453Y-174735707D03*
G04 #@! TD*
D20*
G04 #@! TO.C,MUX3*
X201784453Y-184360707D03*
X201134453Y-184360707D03*
X200484453Y-184360707D03*
X199834453Y-184360707D03*
X199184453Y-184360707D03*
X198534453Y-184360707D03*
X197884453Y-184360707D03*
X197234453Y-184360707D03*
X197234453Y-178460707D03*
X197884453Y-178460707D03*
X198534453Y-178460707D03*
X199184453Y-178460707D03*
X199834453Y-178460707D03*
X200484453Y-178460707D03*
X201134453Y-178460707D03*
X201784453Y-178460707D03*
G04 #@! TD*
D18*
G04 #@! TO.C,MUX4*
X197812693Y-197716710D03*
D10*
G36*
X198536981Y-198464059D02*
X197738243Y-198754777D01*
X197088405Y-196969361D01*
X197887143Y-196678643D01*
X198536981Y-198464059D01*
X198536981Y-198464059D01*
G37*
D18*
X198423493Y-197494397D03*
D10*
G36*
X199147781Y-198241746D02*
X198349043Y-198532464D01*
X197699205Y-196747048D01*
X198497943Y-196456330D01*
X199147781Y-198241746D01*
X199147781Y-198241746D01*
G37*
D18*
X199034293Y-197272083D03*
D10*
G36*
X199758581Y-198019432D02*
X198959843Y-198310150D01*
X198310005Y-196524734D01*
X199108743Y-196234016D01*
X199758581Y-198019432D01*
X199758581Y-198019432D01*
G37*
D18*
X199645093Y-197049770D03*
D10*
G36*
X200369381Y-197797119D02*
X199570643Y-198087837D01*
X198920805Y-196302421D01*
X199719543Y-196011703D01*
X200369381Y-197797119D01*
X200369381Y-197797119D01*
G37*
D18*
X200255894Y-196827457D03*
D10*
G36*
X200980182Y-197574806D02*
X200181444Y-197865524D01*
X199531606Y-196080108D01*
X200330344Y-195789390D01*
X200980182Y-197574806D01*
X200980182Y-197574806D01*
G37*
D18*
X200866694Y-196605144D03*
D10*
G36*
X201590982Y-197352493D02*
X200792244Y-197643211D01*
X200142406Y-195857795D01*
X200941144Y-195567077D01*
X201590982Y-197352493D01*
X201590982Y-197352493D01*
G37*
D18*
X201477494Y-196382831D03*
D10*
G36*
X202201782Y-197130180D02*
X201403044Y-197420898D01*
X200753206Y-195635482D01*
X201551944Y-195344764D01*
X202201782Y-197130180D01*
X202201782Y-197130180D01*
G37*
D18*
X202088294Y-196160518D03*
D10*
G36*
X202812582Y-196907867D02*
X202013844Y-197198585D01*
X201364006Y-195413169D01*
X202162744Y-195122451D01*
X202812582Y-196907867D01*
X202812582Y-196907867D01*
G37*
D18*
X204106213Y-201704704D03*
D10*
G36*
X204830501Y-202452053D02*
X204031763Y-202742771D01*
X203381925Y-200957355D01*
X204180663Y-200666637D01*
X204830501Y-202452053D01*
X204830501Y-202452053D01*
G37*
D18*
X203495413Y-201927017D03*
D10*
G36*
X204219701Y-202674366D02*
X203420963Y-202965084D01*
X202771125Y-201179668D01*
X203569863Y-200888950D01*
X204219701Y-202674366D01*
X204219701Y-202674366D01*
G37*
D18*
X202884613Y-202149331D03*
D10*
G36*
X203608901Y-202896680D02*
X202810163Y-203187398D01*
X202160325Y-201401982D01*
X202959063Y-201111264D01*
X203608901Y-202896680D01*
X203608901Y-202896680D01*
G37*
D18*
X202273813Y-202371644D03*
D10*
G36*
X202998101Y-203118993D02*
X202199363Y-203409711D01*
X201549525Y-201624295D01*
X202348263Y-201333577D01*
X202998101Y-203118993D01*
X202998101Y-203118993D01*
G37*
D18*
X201663012Y-202593957D03*
D10*
G36*
X202387300Y-203341306D02*
X201588562Y-203632024D01*
X200938724Y-201846608D01*
X201737462Y-201555890D01*
X202387300Y-203341306D01*
X202387300Y-203341306D01*
G37*
D18*
X201052212Y-202816270D03*
D10*
G36*
X201776500Y-203563619D02*
X200977762Y-203854337D01*
X200327924Y-202068921D01*
X201126662Y-201778203D01*
X201776500Y-203563619D01*
X201776500Y-203563619D01*
G37*
D18*
X200441412Y-203038583D03*
D10*
G36*
X201165700Y-203785932D02*
X200366962Y-204076650D01*
X199717124Y-202291234D01*
X200515862Y-202000516D01*
X201165700Y-203785932D01*
X201165700Y-203785932D01*
G37*
D18*
X199830612Y-203260896D03*
D10*
G36*
X200554900Y-204008245D02*
X199756162Y-204298963D01*
X199106324Y-202513547D01*
X199905062Y-202222829D01*
X200554900Y-204008245D01*
X200554900Y-204008245D01*
G37*
G04 #@! TD*
D21*
G04 #@! TO.C,Q2*
X220609453Y-173560707D03*
X221559453Y-175560707D03*
X219659453Y-175560707D03*
G04 #@! TD*
D10*
G04 #@! TO.C,R1*
G36*
X211771841Y-197205456D02*
X211802540Y-197211458D01*
X211832504Y-197220440D01*
X211861442Y-197232316D01*
X211889077Y-197246971D01*
X211915143Y-197264264D01*
X211939388Y-197284029D01*
X211961579Y-197306076D01*
X211981502Y-197330191D01*
X211998966Y-197356143D01*
X212013802Y-197383681D01*
X212025867Y-197412542D01*
X212035045Y-197442445D01*
X212041248Y-197473105D01*
X212044416Y-197504225D01*
X212077780Y-198140851D01*
X212077883Y-198172131D01*
X212074918Y-198203271D01*
X212068916Y-198233971D01*
X212059934Y-198263934D01*
X212048058Y-198292873D01*
X212033403Y-198320508D01*
X212016109Y-198346573D01*
X211996344Y-198370818D01*
X211974298Y-198393009D01*
X211950183Y-198412933D01*
X211924231Y-198430396D01*
X211896692Y-198445232D01*
X211867832Y-198457297D01*
X211837928Y-198466475D01*
X211807269Y-198472678D01*
X211776149Y-198475846D01*
X211064625Y-198513136D01*
X211033345Y-198513239D01*
X211002205Y-198510274D01*
X210971506Y-198504272D01*
X210941542Y-198495290D01*
X210912604Y-198483414D01*
X210884969Y-198468759D01*
X210858903Y-198451466D01*
X210834658Y-198431701D01*
X210812467Y-198409654D01*
X210792544Y-198385539D01*
X210775080Y-198359587D01*
X210760244Y-198332049D01*
X210748179Y-198303188D01*
X210739001Y-198273285D01*
X210732798Y-198242625D01*
X210729630Y-198211505D01*
X210696266Y-197574879D01*
X210696163Y-197543599D01*
X210699128Y-197512459D01*
X210705130Y-197481759D01*
X210714112Y-197451796D01*
X210725988Y-197422857D01*
X210740643Y-197395222D01*
X210757937Y-197369157D01*
X210777702Y-197344912D01*
X210799748Y-197322721D01*
X210823863Y-197302797D01*
X210849815Y-197285334D01*
X210877354Y-197270498D01*
X210906214Y-197258433D01*
X210936118Y-197249255D01*
X210966777Y-197243052D01*
X210997897Y-197239884D01*
X211709421Y-197202594D01*
X211740701Y-197202491D01*
X211771841Y-197205456D01*
X211771841Y-197205456D01*
G37*
D11*
X211387023Y-197857865D03*
D10*
G36*
X211854271Y-198778298D02*
X211884970Y-198784300D01*
X211914934Y-198793282D01*
X211943872Y-198805158D01*
X211971507Y-198819813D01*
X211997573Y-198837106D01*
X212021818Y-198856871D01*
X212044009Y-198878918D01*
X212063932Y-198903033D01*
X212081396Y-198928985D01*
X212096232Y-198956523D01*
X212108297Y-198985384D01*
X212117475Y-199015287D01*
X212123678Y-199045947D01*
X212126846Y-199077067D01*
X212160210Y-199713693D01*
X212160313Y-199744973D01*
X212157348Y-199776113D01*
X212151346Y-199806813D01*
X212142364Y-199836776D01*
X212130488Y-199865715D01*
X212115833Y-199893350D01*
X212098539Y-199919415D01*
X212078774Y-199943660D01*
X212056728Y-199965851D01*
X212032613Y-199985775D01*
X212006661Y-200003238D01*
X211979122Y-200018074D01*
X211950262Y-200030139D01*
X211920358Y-200039317D01*
X211889699Y-200045520D01*
X211858579Y-200048688D01*
X211147055Y-200085978D01*
X211115775Y-200086081D01*
X211084635Y-200083116D01*
X211053936Y-200077114D01*
X211023972Y-200068132D01*
X210995034Y-200056256D01*
X210967399Y-200041601D01*
X210941333Y-200024308D01*
X210917088Y-200004543D01*
X210894897Y-199982496D01*
X210874974Y-199958381D01*
X210857510Y-199932429D01*
X210842674Y-199904891D01*
X210830609Y-199876030D01*
X210821431Y-199846127D01*
X210815228Y-199815467D01*
X210812060Y-199784347D01*
X210778696Y-199147721D01*
X210778593Y-199116441D01*
X210781558Y-199085301D01*
X210787560Y-199054601D01*
X210796542Y-199024638D01*
X210808418Y-198995699D01*
X210823073Y-198968064D01*
X210840367Y-198941999D01*
X210860132Y-198917754D01*
X210882178Y-198895563D01*
X210906293Y-198875639D01*
X210932245Y-198858176D01*
X210959784Y-198843340D01*
X210988644Y-198831275D01*
X211018548Y-198822097D01*
X211049207Y-198815894D01*
X211080327Y-198812726D01*
X211791851Y-198775436D01*
X211823131Y-198775333D01*
X211854271Y-198778298D01*
X211854271Y-198778298D01*
G37*
D11*
X211469453Y-199430707D03*
G04 #@! TD*
D10*
G04 #@! TO.C,R2*
G36*
X215784446Y-169187242D02*
X215815388Y-169191832D01*
X215845731Y-169199432D01*
X215875183Y-169209970D01*
X215903461Y-169223345D01*
X215930291Y-169239426D01*
X215955416Y-169258060D01*
X215978593Y-169279067D01*
X215999600Y-169302244D01*
X216018234Y-169327369D01*
X216034315Y-169354199D01*
X216047690Y-169382477D01*
X216058228Y-169411929D01*
X216065828Y-169442272D01*
X216070418Y-169473214D01*
X216071953Y-169504457D01*
X216071953Y-170216957D01*
X216070418Y-170248200D01*
X216065828Y-170279142D01*
X216058228Y-170309485D01*
X216047690Y-170338937D01*
X216034315Y-170367215D01*
X216018234Y-170394045D01*
X215999600Y-170419170D01*
X215978593Y-170442347D01*
X215955416Y-170463354D01*
X215930291Y-170481988D01*
X215903461Y-170498069D01*
X215875183Y-170511444D01*
X215845731Y-170521982D01*
X215815388Y-170529582D01*
X215784446Y-170534172D01*
X215753203Y-170535707D01*
X215115703Y-170535707D01*
X215084460Y-170534172D01*
X215053518Y-170529582D01*
X215023175Y-170521982D01*
X214993723Y-170511444D01*
X214965445Y-170498069D01*
X214938615Y-170481988D01*
X214913490Y-170463354D01*
X214890313Y-170442347D01*
X214869306Y-170419170D01*
X214850672Y-170394045D01*
X214834591Y-170367215D01*
X214821216Y-170338937D01*
X214810678Y-170309485D01*
X214803078Y-170279142D01*
X214798488Y-170248200D01*
X214796953Y-170216957D01*
X214796953Y-169504457D01*
X214798488Y-169473214D01*
X214803078Y-169442272D01*
X214810678Y-169411929D01*
X214821216Y-169382477D01*
X214834591Y-169354199D01*
X214850672Y-169327369D01*
X214869306Y-169302244D01*
X214890313Y-169279067D01*
X214913490Y-169258060D01*
X214938615Y-169239426D01*
X214965445Y-169223345D01*
X214993723Y-169209970D01*
X215023175Y-169199432D01*
X215053518Y-169191832D01*
X215084460Y-169187242D01*
X215115703Y-169185707D01*
X215753203Y-169185707D01*
X215784446Y-169187242D01*
X215784446Y-169187242D01*
G37*
D11*
X215434453Y-169860707D03*
D10*
G36*
X217359446Y-169187242D02*
X217390388Y-169191832D01*
X217420731Y-169199432D01*
X217450183Y-169209970D01*
X217478461Y-169223345D01*
X217505291Y-169239426D01*
X217530416Y-169258060D01*
X217553593Y-169279067D01*
X217574600Y-169302244D01*
X217593234Y-169327369D01*
X217609315Y-169354199D01*
X217622690Y-169382477D01*
X217633228Y-169411929D01*
X217640828Y-169442272D01*
X217645418Y-169473214D01*
X217646953Y-169504457D01*
X217646953Y-170216957D01*
X217645418Y-170248200D01*
X217640828Y-170279142D01*
X217633228Y-170309485D01*
X217622690Y-170338937D01*
X217609315Y-170367215D01*
X217593234Y-170394045D01*
X217574600Y-170419170D01*
X217553593Y-170442347D01*
X217530416Y-170463354D01*
X217505291Y-170481988D01*
X217478461Y-170498069D01*
X217450183Y-170511444D01*
X217420731Y-170521982D01*
X217390388Y-170529582D01*
X217359446Y-170534172D01*
X217328203Y-170535707D01*
X216690703Y-170535707D01*
X216659460Y-170534172D01*
X216628518Y-170529582D01*
X216598175Y-170521982D01*
X216568723Y-170511444D01*
X216540445Y-170498069D01*
X216513615Y-170481988D01*
X216488490Y-170463354D01*
X216465313Y-170442347D01*
X216444306Y-170419170D01*
X216425672Y-170394045D01*
X216409591Y-170367215D01*
X216396216Y-170338937D01*
X216385678Y-170309485D01*
X216378078Y-170279142D01*
X216373488Y-170248200D01*
X216371953Y-170216957D01*
X216371953Y-169504457D01*
X216373488Y-169473214D01*
X216378078Y-169442272D01*
X216385678Y-169411929D01*
X216396216Y-169382477D01*
X216409591Y-169354199D01*
X216425672Y-169327369D01*
X216444306Y-169302244D01*
X216465313Y-169279067D01*
X216488490Y-169258060D01*
X216513615Y-169239426D01*
X216540445Y-169223345D01*
X216568723Y-169209970D01*
X216598175Y-169199432D01*
X216628518Y-169191832D01*
X216659460Y-169187242D01*
X216690703Y-169185707D01*
X217328203Y-169185707D01*
X217359446Y-169187242D01*
X217359446Y-169187242D01*
G37*
D11*
X217009453Y-169860707D03*
G04 #@! TD*
D10*
G04 #@! TO.C,R3*
G36*
X215771946Y-170787242D02*
X215802888Y-170791832D01*
X215833231Y-170799432D01*
X215862683Y-170809970D01*
X215890961Y-170823345D01*
X215917791Y-170839426D01*
X215942916Y-170858060D01*
X215966093Y-170879067D01*
X215987100Y-170902244D01*
X216005734Y-170927369D01*
X216021815Y-170954199D01*
X216035190Y-170982477D01*
X216045728Y-171011929D01*
X216053328Y-171042272D01*
X216057918Y-171073214D01*
X216059453Y-171104457D01*
X216059453Y-171816957D01*
X216057918Y-171848200D01*
X216053328Y-171879142D01*
X216045728Y-171909485D01*
X216035190Y-171938937D01*
X216021815Y-171967215D01*
X216005734Y-171994045D01*
X215987100Y-172019170D01*
X215966093Y-172042347D01*
X215942916Y-172063354D01*
X215917791Y-172081988D01*
X215890961Y-172098069D01*
X215862683Y-172111444D01*
X215833231Y-172121982D01*
X215802888Y-172129582D01*
X215771946Y-172134172D01*
X215740703Y-172135707D01*
X215103203Y-172135707D01*
X215071960Y-172134172D01*
X215041018Y-172129582D01*
X215010675Y-172121982D01*
X214981223Y-172111444D01*
X214952945Y-172098069D01*
X214926115Y-172081988D01*
X214900990Y-172063354D01*
X214877813Y-172042347D01*
X214856806Y-172019170D01*
X214838172Y-171994045D01*
X214822091Y-171967215D01*
X214808716Y-171938937D01*
X214798178Y-171909485D01*
X214790578Y-171879142D01*
X214785988Y-171848200D01*
X214784453Y-171816957D01*
X214784453Y-171104457D01*
X214785988Y-171073214D01*
X214790578Y-171042272D01*
X214798178Y-171011929D01*
X214808716Y-170982477D01*
X214822091Y-170954199D01*
X214838172Y-170927369D01*
X214856806Y-170902244D01*
X214877813Y-170879067D01*
X214900990Y-170858060D01*
X214926115Y-170839426D01*
X214952945Y-170823345D01*
X214981223Y-170809970D01*
X215010675Y-170799432D01*
X215041018Y-170791832D01*
X215071960Y-170787242D01*
X215103203Y-170785707D01*
X215740703Y-170785707D01*
X215771946Y-170787242D01*
X215771946Y-170787242D01*
G37*
D11*
X215421953Y-171460707D03*
D10*
G36*
X217346946Y-170787242D02*
X217377888Y-170791832D01*
X217408231Y-170799432D01*
X217437683Y-170809970D01*
X217465961Y-170823345D01*
X217492791Y-170839426D01*
X217517916Y-170858060D01*
X217541093Y-170879067D01*
X217562100Y-170902244D01*
X217580734Y-170927369D01*
X217596815Y-170954199D01*
X217610190Y-170982477D01*
X217620728Y-171011929D01*
X217628328Y-171042272D01*
X217632918Y-171073214D01*
X217634453Y-171104457D01*
X217634453Y-171816957D01*
X217632918Y-171848200D01*
X217628328Y-171879142D01*
X217620728Y-171909485D01*
X217610190Y-171938937D01*
X217596815Y-171967215D01*
X217580734Y-171994045D01*
X217562100Y-172019170D01*
X217541093Y-172042347D01*
X217517916Y-172063354D01*
X217492791Y-172081988D01*
X217465961Y-172098069D01*
X217437683Y-172111444D01*
X217408231Y-172121982D01*
X217377888Y-172129582D01*
X217346946Y-172134172D01*
X217315703Y-172135707D01*
X216678203Y-172135707D01*
X216646960Y-172134172D01*
X216616018Y-172129582D01*
X216585675Y-172121982D01*
X216556223Y-172111444D01*
X216527945Y-172098069D01*
X216501115Y-172081988D01*
X216475990Y-172063354D01*
X216452813Y-172042347D01*
X216431806Y-172019170D01*
X216413172Y-171994045D01*
X216397091Y-171967215D01*
X216383716Y-171938937D01*
X216373178Y-171909485D01*
X216365578Y-171879142D01*
X216360988Y-171848200D01*
X216359453Y-171816957D01*
X216359453Y-171104457D01*
X216360988Y-171073214D01*
X216365578Y-171042272D01*
X216373178Y-171011929D01*
X216383716Y-170982477D01*
X216397091Y-170954199D01*
X216413172Y-170927369D01*
X216431806Y-170902244D01*
X216452813Y-170879067D01*
X216475990Y-170858060D01*
X216501115Y-170839426D01*
X216527945Y-170823345D01*
X216556223Y-170809970D01*
X216585675Y-170799432D01*
X216616018Y-170791832D01*
X216646960Y-170787242D01*
X216678203Y-170785707D01*
X217315703Y-170785707D01*
X217346946Y-170787242D01*
X217346946Y-170787242D01*
G37*
D11*
X216996953Y-171460707D03*
G04 #@! TD*
D10*
G04 #@! TO.C,R4*
G36*
X222311998Y-196468626D02*
X222343082Y-196472133D01*
X222373672Y-196478670D01*
X222403474Y-196488174D01*
X222432200Y-196500553D01*
X222459576Y-196515688D01*
X222485336Y-196533434D01*
X222509232Y-196553619D01*
X222531035Y-196576049D01*
X222550534Y-196600508D01*
X222567542Y-196626761D01*
X222581895Y-196654554D01*
X222593455Y-196683621D01*
X222602110Y-196713680D01*
X222607777Y-196744443D01*
X222610401Y-196775614D01*
X222632649Y-197412726D01*
X222632205Y-197444004D01*
X222628698Y-197475087D01*
X222622161Y-197505677D01*
X222612657Y-197535479D01*
X222600278Y-197564206D01*
X222585143Y-197591581D01*
X222567397Y-197617341D01*
X222547212Y-197641237D01*
X222524782Y-197663040D01*
X222500322Y-197682539D01*
X222474070Y-197699547D01*
X222446276Y-197713900D01*
X222417210Y-197725460D01*
X222387150Y-197734115D01*
X222356387Y-197739782D01*
X222325217Y-197742406D01*
X221613151Y-197767272D01*
X221581874Y-197766828D01*
X221550790Y-197763321D01*
X221520200Y-197756784D01*
X221490398Y-197747280D01*
X221461672Y-197734901D01*
X221434296Y-197719766D01*
X221408536Y-197702020D01*
X221384640Y-197681835D01*
X221362837Y-197659405D01*
X221343338Y-197634946D01*
X221326330Y-197608693D01*
X221311977Y-197580900D01*
X221300417Y-197551833D01*
X221291762Y-197521774D01*
X221286095Y-197491011D01*
X221283471Y-197459840D01*
X221261223Y-196822728D01*
X221261667Y-196791450D01*
X221265174Y-196760367D01*
X221271711Y-196729777D01*
X221281215Y-196699975D01*
X221293594Y-196671248D01*
X221308729Y-196643873D01*
X221326475Y-196618113D01*
X221346660Y-196594217D01*
X221369090Y-196572414D01*
X221393550Y-196552915D01*
X221419802Y-196535907D01*
X221447596Y-196521554D01*
X221476662Y-196509994D01*
X221506722Y-196501339D01*
X221537485Y-196495672D01*
X221568655Y-196493048D01*
X222280721Y-196468182D01*
X222311998Y-196468626D01*
X222311998Y-196468626D01*
G37*
D11*
X221946936Y-197117727D03*
D10*
G36*
X222257032Y-194894586D02*
X222288116Y-194898093D01*
X222318706Y-194904630D01*
X222348508Y-194914134D01*
X222377234Y-194926513D01*
X222404610Y-194941648D01*
X222430370Y-194959394D01*
X222454266Y-194979579D01*
X222476069Y-195002009D01*
X222495568Y-195026468D01*
X222512576Y-195052721D01*
X222526929Y-195080514D01*
X222538489Y-195109581D01*
X222547144Y-195139640D01*
X222552811Y-195170403D01*
X222555435Y-195201574D01*
X222577683Y-195838686D01*
X222577239Y-195869964D01*
X222573732Y-195901047D01*
X222567195Y-195931637D01*
X222557691Y-195961439D01*
X222545312Y-195990166D01*
X222530177Y-196017541D01*
X222512431Y-196043301D01*
X222492246Y-196067197D01*
X222469816Y-196089000D01*
X222445356Y-196108499D01*
X222419104Y-196125507D01*
X222391310Y-196139860D01*
X222362244Y-196151420D01*
X222332184Y-196160075D01*
X222301421Y-196165742D01*
X222270251Y-196168366D01*
X221558185Y-196193232D01*
X221526908Y-196192788D01*
X221495824Y-196189281D01*
X221465234Y-196182744D01*
X221435432Y-196173240D01*
X221406706Y-196160861D01*
X221379330Y-196145726D01*
X221353570Y-196127980D01*
X221329674Y-196107795D01*
X221307871Y-196085365D01*
X221288372Y-196060906D01*
X221271364Y-196034653D01*
X221257011Y-196006860D01*
X221245451Y-195977793D01*
X221236796Y-195947734D01*
X221231129Y-195916971D01*
X221228505Y-195885800D01*
X221206257Y-195248688D01*
X221206701Y-195217410D01*
X221210208Y-195186327D01*
X221216745Y-195155737D01*
X221226249Y-195125935D01*
X221238628Y-195097208D01*
X221253763Y-195069833D01*
X221271509Y-195044073D01*
X221291694Y-195020177D01*
X221314124Y-194998374D01*
X221338584Y-194978875D01*
X221364836Y-194961867D01*
X221392630Y-194947514D01*
X221421696Y-194935954D01*
X221451756Y-194927299D01*
X221482519Y-194921632D01*
X221513689Y-194919008D01*
X222225755Y-194894142D01*
X222257032Y-194894586D01*
X222257032Y-194894586D01*
G37*
D11*
X221891970Y-195543687D03*
G04 #@! TD*
D10*
G04 #@! TO.C,R5*
G36*
X207327893Y-208416099D02*
X207358693Y-208421565D01*
X207388808Y-208430023D01*
X207417949Y-208441392D01*
X207445836Y-208455563D01*
X207472200Y-208472399D01*
X207496786Y-208491737D01*
X207519358Y-208513393D01*
X207539699Y-208537157D01*
X207557613Y-208562800D01*
X207572927Y-208590076D01*
X207585494Y-208618721D01*
X207595193Y-208648460D01*
X207601930Y-208679007D01*
X207605641Y-208710066D01*
X207650111Y-209346013D01*
X207650759Y-209377287D01*
X207648339Y-209408474D01*
X207642873Y-209439273D01*
X207634415Y-209469389D01*
X207623046Y-209498530D01*
X207608875Y-209526417D01*
X207592040Y-209552780D01*
X207572701Y-209577367D01*
X207551045Y-209599939D01*
X207527281Y-209620280D01*
X207501638Y-209638194D01*
X207474363Y-209653508D01*
X207445717Y-209666075D01*
X207415978Y-209675774D01*
X207385432Y-209682511D01*
X207354372Y-209686222D01*
X206643608Y-209735923D01*
X206612334Y-209736571D01*
X206581147Y-209734151D01*
X206550347Y-209728685D01*
X206520232Y-209720227D01*
X206491091Y-209708858D01*
X206463204Y-209694687D01*
X206436840Y-209677851D01*
X206412254Y-209658513D01*
X206389682Y-209636857D01*
X206369341Y-209613093D01*
X206351427Y-209587450D01*
X206336113Y-209560174D01*
X206323546Y-209531529D01*
X206313847Y-209501790D01*
X206307110Y-209471243D01*
X206303399Y-209440184D01*
X206258929Y-208804237D01*
X206258281Y-208772963D01*
X206260701Y-208741776D01*
X206266167Y-208710977D01*
X206274625Y-208680861D01*
X206285994Y-208651720D01*
X206300165Y-208623833D01*
X206317000Y-208597470D01*
X206336339Y-208572883D01*
X206357995Y-208550311D01*
X206381759Y-208529970D01*
X206407402Y-208512056D01*
X206434677Y-208496742D01*
X206463323Y-208484175D01*
X206493062Y-208474476D01*
X206523608Y-208467739D01*
X206554668Y-208464028D01*
X207265432Y-208414327D01*
X207296706Y-208413679D01*
X207327893Y-208416099D01*
X207327893Y-208416099D01*
G37*
D11*
X206954520Y-209075125D03*
D10*
G36*
X207437759Y-209987263D02*
X207468559Y-209992729D01*
X207498674Y-210001187D01*
X207527815Y-210012556D01*
X207555702Y-210026727D01*
X207582066Y-210043563D01*
X207606652Y-210062901D01*
X207629224Y-210084557D01*
X207649565Y-210108321D01*
X207667479Y-210133964D01*
X207682793Y-210161240D01*
X207695360Y-210189885D01*
X207705059Y-210219624D01*
X207711796Y-210250171D01*
X207715507Y-210281230D01*
X207759977Y-210917177D01*
X207760625Y-210948451D01*
X207758205Y-210979638D01*
X207752739Y-211010437D01*
X207744281Y-211040553D01*
X207732912Y-211069694D01*
X207718741Y-211097581D01*
X207701906Y-211123944D01*
X207682567Y-211148531D01*
X207660911Y-211171103D01*
X207637147Y-211191444D01*
X207611504Y-211209358D01*
X207584229Y-211224672D01*
X207555583Y-211237239D01*
X207525844Y-211246938D01*
X207495298Y-211253675D01*
X207464238Y-211257386D01*
X206753474Y-211307087D01*
X206722200Y-211307735D01*
X206691013Y-211305315D01*
X206660213Y-211299849D01*
X206630098Y-211291391D01*
X206600957Y-211280022D01*
X206573070Y-211265851D01*
X206546706Y-211249015D01*
X206522120Y-211229677D01*
X206499548Y-211208021D01*
X206479207Y-211184257D01*
X206461293Y-211158614D01*
X206445979Y-211131338D01*
X206433412Y-211102693D01*
X206423713Y-211072954D01*
X206416976Y-211042407D01*
X206413265Y-211011348D01*
X206368795Y-210375401D01*
X206368147Y-210344127D01*
X206370567Y-210312940D01*
X206376033Y-210282141D01*
X206384491Y-210252025D01*
X206395860Y-210222884D01*
X206410031Y-210194997D01*
X206426866Y-210168634D01*
X206446205Y-210144047D01*
X206467861Y-210121475D01*
X206491625Y-210101134D01*
X206517268Y-210083220D01*
X206544543Y-210067906D01*
X206573189Y-210055339D01*
X206602928Y-210045640D01*
X206633474Y-210038903D01*
X206664534Y-210035192D01*
X207375298Y-209985491D01*
X207406572Y-209984843D01*
X207437759Y-209987263D01*
X207437759Y-209987263D01*
G37*
D11*
X207064386Y-210646289D03*
G04 #@! TD*
D10*
G04 #@! TO.C,R6*
G36*
X214184446Y-184087242D02*
X214215388Y-184091832D01*
X214245731Y-184099432D01*
X214275183Y-184109970D01*
X214303461Y-184123345D01*
X214330291Y-184139426D01*
X214355416Y-184158060D01*
X214378593Y-184179067D01*
X214399600Y-184202244D01*
X214418234Y-184227369D01*
X214434315Y-184254199D01*
X214447690Y-184282477D01*
X214458228Y-184311929D01*
X214465828Y-184342272D01*
X214470418Y-184373214D01*
X214471953Y-184404457D01*
X214471953Y-185116957D01*
X214470418Y-185148200D01*
X214465828Y-185179142D01*
X214458228Y-185209485D01*
X214447690Y-185238937D01*
X214434315Y-185267215D01*
X214418234Y-185294045D01*
X214399600Y-185319170D01*
X214378593Y-185342347D01*
X214355416Y-185363354D01*
X214330291Y-185381988D01*
X214303461Y-185398069D01*
X214275183Y-185411444D01*
X214245731Y-185421982D01*
X214215388Y-185429582D01*
X214184446Y-185434172D01*
X214153203Y-185435707D01*
X213515703Y-185435707D01*
X213484460Y-185434172D01*
X213453518Y-185429582D01*
X213423175Y-185421982D01*
X213393723Y-185411444D01*
X213365445Y-185398069D01*
X213338615Y-185381988D01*
X213313490Y-185363354D01*
X213290313Y-185342347D01*
X213269306Y-185319170D01*
X213250672Y-185294045D01*
X213234591Y-185267215D01*
X213221216Y-185238937D01*
X213210678Y-185209485D01*
X213203078Y-185179142D01*
X213198488Y-185148200D01*
X213196953Y-185116957D01*
X213196953Y-184404457D01*
X213198488Y-184373214D01*
X213203078Y-184342272D01*
X213210678Y-184311929D01*
X213221216Y-184282477D01*
X213234591Y-184254199D01*
X213250672Y-184227369D01*
X213269306Y-184202244D01*
X213290313Y-184179067D01*
X213313490Y-184158060D01*
X213338615Y-184139426D01*
X213365445Y-184123345D01*
X213393723Y-184109970D01*
X213423175Y-184099432D01*
X213453518Y-184091832D01*
X213484460Y-184087242D01*
X213515703Y-184085707D01*
X214153203Y-184085707D01*
X214184446Y-184087242D01*
X214184446Y-184087242D01*
G37*
D11*
X213834453Y-184760707D03*
D10*
G36*
X215759446Y-184087242D02*
X215790388Y-184091832D01*
X215820731Y-184099432D01*
X215850183Y-184109970D01*
X215878461Y-184123345D01*
X215905291Y-184139426D01*
X215930416Y-184158060D01*
X215953593Y-184179067D01*
X215974600Y-184202244D01*
X215993234Y-184227369D01*
X216009315Y-184254199D01*
X216022690Y-184282477D01*
X216033228Y-184311929D01*
X216040828Y-184342272D01*
X216045418Y-184373214D01*
X216046953Y-184404457D01*
X216046953Y-185116957D01*
X216045418Y-185148200D01*
X216040828Y-185179142D01*
X216033228Y-185209485D01*
X216022690Y-185238937D01*
X216009315Y-185267215D01*
X215993234Y-185294045D01*
X215974600Y-185319170D01*
X215953593Y-185342347D01*
X215930416Y-185363354D01*
X215905291Y-185381988D01*
X215878461Y-185398069D01*
X215850183Y-185411444D01*
X215820731Y-185421982D01*
X215790388Y-185429582D01*
X215759446Y-185434172D01*
X215728203Y-185435707D01*
X215090703Y-185435707D01*
X215059460Y-185434172D01*
X215028518Y-185429582D01*
X214998175Y-185421982D01*
X214968723Y-185411444D01*
X214940445Y-185398069D01*
X214913615Y-185381988D01*
X214888490Y-185363354D01*
X214865313Y-185342347D01*
X214844306Y-185319170D01*
X214825672Y-185294045D01*
X214809591Y-185267215D01*
X214796216Y-185238937D01*
X214785678Y-185209485D01*
X214778078Y-185179142D01*
X214773488Y-185148200D01*
X214771953Y-185116957D01*
X214771953Y-184404457D01*
X214773488Y-184373214D01*
X214778078Y-184342272D01*
X214785678Y-184311929D01*
X214796216Y-184282477D01*
X214809591Y-184254199D01*
X214825672Y-184227369D01*
X214844306Y-184202244D01*
X214865313Y-184179067D01*
X214888490Y-184158060D01*
X214913615Y-184139426D01*
X214940445Y-184123345D01*
X214968723Y-184109970D01*
X214998175Y-184099432D01*
X215028518Y-184091832D01*
X215059460Y-184087242D01*
X215090703Y-184085707D01*
X215728203Y-184085707D01*
X215759446Y-184087242D01*
X215759446Y-184087242D01*
G37*
D11*
X215409453Y-184760707D03*
G04 #@! TD*
D10*
G04 #@! TO.C,R7*
G36*
X206271946Y-167637242D02*
X206302888Y-167641832D01*
X206333231Y-167649432D01*
X206362683Y-167659970D01*
X206390961Y-167673345D01*
X206417791Y-167689426D01*
X206442916Y-167708060D01*
X206466093Y-167729067D01*
X206487100Y-167752244D01*
X206505734Y-167777369D01*
X206521815Y-167804199D01*
X206535190Y-167832477D01*
X206545728Y-167861929D01*
X206553328Y-167892272D01*
X206557918Y-167923214D01*
X206559453Y-167954457D01*
X206559453Y-168666957D01*
X206557918Y-168698200D01*
X206553328Y-168729142D01*
X206545728Y-168759485D01*
X206535190Y-168788937D01*
X206521815Y-168817215D01*
X206505734Y-168844045D01*
X206487100Y-168869170D01*
X206466093Y-168892347D01*
X206442916Y-168913354D01*
X206417791Y-168931988D01*
X206390961Y-168948069D01*
X206362683Y-168961444D01*
X206333231Y-168971982D01*
X206302888Y-168979582D01*
X206271946Y-168984172D01*
X206240703Y-168985707D01*
X205603203Y-168985707D01*
X205571960Y-168984172D01*
X205541018Y-168979582D01*
X205510675Y-168971982D01*
X205481223Y-168961444D01*
X205452945Y-168948069D01*
X205426115Y-168931988D01*
X205400990Y-168913354D01*
X205377813Y-168892347D01*
X205356806Y-168869170D01*
X205338172Y-168844045D01*
X205322091Y-168817215D01*
X205308716Y-168788937D01*
X205298178Y-168759485D01*
X205290578Y-168729142D01*
X205285988Y-168698200D01*
X205284453Y-168666957D01*
X205284453Y-167954457D01*
X205285988Y-167923214D01*
X205290578Y-167892272D01*
X205298178Y-167861929D01*
X205308716Y-167832477D01*
X205322091Y-167804199D01*
X205338172Y-167777369D01*
X205356806Y-167752244D01*
X205377813Y-167729067D01*
X205400990Y-167708060D01*
X205426115Y-167689426D01*
X205452945Y-167673345D01*
X205481223Y-167659970D01*
X205510675Y-167649432D01*
X205541018Y-167641832D01*
X205571960Y-167637242D01*
X205603203Y-167635707D01*
X206240703Y-167635707D01*
X206271946Y-167637242D01*
X206271946Y-167637242D01*
G37*
D11*
X205921953Y-168310707D03*
D10*
G36*
X207846946Y-167637242D02*
X207877888Y-167641832D01*
X207908231Y-167649432D01*
X207937683Y-167659970D01*
X207965961Y-167673345D01*
X207992791Y-167689426D01*
X208017916Y-167708060D01*
X208041093Y-167729067D01*
X208062100Y-167752244D01*
X208080734Y-167777369D01*
X208096815Y-167804199D01*
X208110190Y-167832477D01*
X208120728Y-167861929D01*
X208128328Y-167892272D01*
X208132918Y-167923214D01*
X208134453Y-167954457D01*
X208134453Y-168666957D01*
X208132918Y-168698200D01*
X208128328Y-168729142D01*
X208120728Y-168759485D01*
X208110190Y-168788937D01*
X208096815Y-168817215D01*
X208080734Y-168844045D01*
X208062100Y-168869170D01*
X208041093Y-168892347D01*
X208017916Y-168913354D01*
X207992791Y-168931988D01*
X207965961Y-168948069D01*
X207937683Y-168961444D01*
X207908231Y-168971982D01*
X207877888Y-168979582D01*
X207846946Y-168984172D01*
X207815703Y-168985707D01*
X207178203Y-168985707D01*
X207146960Y-168984172D01*
X207116018Y-168979582D01*
X207085675Y-168971982D01*
X207056223Y-168961444D01*
X207027945Y-168948069D01*
X207001115Y-168931988D01*
X206975990Y-168913354D01*
X206952813Y-168892347D01*
X206931806Y-168869170D01*
X206913172Y-168844045D01*
X206897091Y-168817215D01*
X206883716Y-168788937D01*
X206873178Y-168759485D01*
X206865578Y-168729142D01*
X206860988Y-168698200D01*
X206859453Y-168666957D01*
X206859453Y-167954457D01*
X206860988Y-167923214D01*
X206865578Y-167892272D01*
X206873178Y-167861929D01*
X206883716Y-167832477D01*
X206897091Y-167804199D01*
X206913172Y-167777369D01*
X206931806Y-167752244D01*
X206952813Y-167729067D01*
X206975990Y-167708060D01*
X207001115Y-167689426D01*
X207027945Y-167673345D01*
X207056223Y-167659970D01*
X207085675Y-167649432D01*
X207116018Y-167641832D01*
X207146960Y-167637242D01*
X207178203Y-167635707D01*
X207815703Y-167635707D01*
X207846946Y-167637242D01*
X207846946Y-167637242D01*
G37*
D11*
X207496953Y-168310707D03*
G04 #@! TD*
D10*
G04 #@! TO.C,R8*
G36*
X221496946Y-147124742D02*
X221527888Y-147129332D01*
X221558231Y-147136932D01*
X221587683Y-147147470D01*
X221615961Y-147160845D01*
X221642791Y-147176926D01*
X221667916Y-147195560D01*
X221691093Y-147216567D01*
X221712100Y-147239744D01*
X221730734Y-147264869D01*
X221746815Y-147291699D01*
X221760190Y-147319977D01*
X221770728Y-147349429D01*
X221778328Y-147379772D01*
X221782918Y-147410714D01*
X221784453Y-147441957D01*
X221784453Y-148079457D01*
X221782918Y-148110700D01*
X221778328Y-148141642D01*
X221770728Y-148171985D01*
X221760190Y-148201437D01*
X221746815Y-148229715D01*
X221730734Y-148256545D01*
X221712100Y-148281670D01*
X221691093Y-148304847D01*
X221667916Y-148325854D01*
X221642791Y-148344488D01*
X221615961Y-148360569D01*
X221587683Y-148373944D01*
X221558231Y-148384482D01*
X221527888Y-148392082D01*
X221496946Y-148396672D01*
X221465703Y-148398207D01*
X220753203Y-148398207D01*
X220721960Y-148396672D01*
X220691018Y-148392082D01*
X220660675Y-148384482D01*
X220631223Y-148373944D01*
X220602945Y-148360569D01*
X220576115Y-148344488D01*
X220550990Y-148325854D01*
X220527813Y-148304847D01*
X220506806Y-148281670D01*
X220488172Y-148256545D01*
X220472091Y-148229715D01*
X220458716Y-148201437D01*
X220448178Y-148171985D01*
X220440578Y-148141642D01*
X220435988Y-148110700D01*
X220434453Y-148079457D01*
X220434453Y-147441957D01*
X220435988Y-147410714D01*
X220440578Y-147379772D01*
X220448178Y-147349429D01*
X220458716Y-147319977D01*
X220472091Y-147291699D01*
X220488172Y-147264869D01*
X220506806Y-147239744D01*
X220527813Y-147216567D01*
X220550990Y-147195560D01*
X220576115Y-147176926D01*
X220602945Y-147160845D01*
X220631223Y-147147470D01*
X220660675Y-147136932D01*
X220691018Y-147129332D01*
X220721960Y-147124742D01*
X220753203Y-147123207D01*
X221465703Y-147123207D01*
X221496946Y-147124742D01*
X221496946Y-147124742D01*
G37*
D11*
X221109453Y-147760707D03*
D10*
G36*
X221496946Y-148699742D02*
X221527888Y-148704332D01*
X221558231Y-148711932D01*
X221587683Y-148722470D01*
X221615961Y-148735845D01*
X221642791Y-148751926D01*
X221667916Y-148770560D01*
X221691093Y-148791567D01*
X221712100Y-148814744D01*
X221730734Y-148839869D01*
X221746815Y-148866699D01*
X221760190Y-148894977D01*
X221770728Y-148924429D01*
X221778328Y-148954772D01*
X221782918Y-148985714D01*
X221784453Y-149016957D01*
X221784453Y-149654457D01*
X221782918Y-149685700D01*
X221778328Y-149716642D01*
X221770728Y-149746985D01*
X221760190Y-149776437D01*
X221746815Y-149804715D01*
X221730734Y-149831545D01*
X221712100Y-149856670D01*
X221691093Y-149879847D01*
X221667916Y-149900854D01*
X221642791Y-149919488D01*
X221615961Y-149935569D01*
X221587683Y-149948944D01*
X221558231Y-149959482D01*
X221527888Y-149967082D01*
X221496946Y-149971672D01*
X221465703Y-149973207D01*
X220753203Y-149973207D01*
X220721960Y-149971672D01*
X220691018Y-149967082D01*
X220660675Y-149959482D01*
X220631223Y-149948944D01*
X220602945Y-149935569D01*
X220576115Y-149919488D01*
X220550990Y-149900854D01*
X220527813Y-149879847D01*
X220506806Y-149856670D01*
X220488172Y-149831545D01*
X220472091Y-149804715D01*
X220458716Y-149776437D01*
X220448178Y-149746985D01*
X220440578Y-149716642D01*
X220435988Y-149685700D01*
X220434453Y-149654457D01*
X220434453Y-149016957D01*
X220435988Y-148985714D01*
X220440578Y-148954772D01*
X220448178Y-148924429D01*
X220458716Y-148894977D01*
X220472091Y-148866699D01*
X220488172Y-148839869D01*
X220506806Y-148814744D01*
X220527813Y-148791567D01*
X220550990Y-148770560D01*
X220576115Y-148751926D01*
X220602945Y-148735845D01*
X220631223Y-148722470D01*
X220660675Y-148711932D01*
X220691018Y-148704332D01*
X220721960Y-148699742D01*
X220753203Y-148698207D01*
X221465703Y-148698207D01*
X221496946Y-148699742D01*
X221496946Y-148699742D01*
G37*
D11*
X221109453Y-149335707D03*
G04 #@! TD*
D10*
G04 #@! TO.C,R9*
G36*
X224496946Y-147137242D02*
X224527888Y-147141832D01*
X224558231Y-147149432D01*
X224587683Y-147159970D01*
X224615961Y-147173345D01*
X224642791Y-147189426D01*
X224667916Y-147208060D01*
X224691093Y-147229067D01*
X224712100Y-147252244D01*
X224730734Y-147277369D01*
X224746815Y-147304199D01*
X224760190Y-147332477D01*
X224770728Y-147361929D01*
X224778328Y-147392272D01*
X224782918Y-147423214D01*
X224784453Y-147454457D01*
X224784453Y-148091957D01*
X224782918Y-148123200D01*
X224778328Y-148154142D01*
X224770728Y-148184485D01*
X224760190Y-148213937D01*
X224746815Y-148242215D01*
X224730734Y-148269045D01*
X224712100Y-148294170D01*
X224691093Y-148317347D01*
X224667916Y-148338354D01*
X224642791Y-148356988D01*
X224615961Y-148373069D01*
X224587683Y-148386444D01*
X224558231Y-148396982D01*
X224527888Y-148404582D01*
X224496946Y-148409172D01*
X224465703Y-148410707D01*
X223753203Y-148410707D01*
X223721960Y-148409172D01*
X223691018Y-148404582D01*
X223660675Y-148396982D01*
X223631223Y-148386444D01*
X223602945Y-148373069D01*
X223576115Y-148356988D01*
X223550990Y-148338354D01*
X223527813Y-148317347D01*
X223506806Y-148294170D01*
X223488172Y-148269045D01*
X223472091Y-148242215D01*
X223458716Y-148213937D01*
X223448178Y-148184485D01*
X223440578Y-148154142D01*
X223435988Y-148123200D01*
X223434453Y-148091957D01*
X223434453Y-147454457D01*
X223435988Y-147423214D01*
X223440578Y-147392272D01*
X223448178Y-147361929D01*
X223458716Y-147332477D01*
X223472091Y-147304199D01*
X223488172Y-147277369D01*
X223506806Y-147252244D01*
X223527813Y-147229067D01*
X223550990Y-147208060D01*
X223576115Y-147189426D01*
X223602945Y-147173345D01*
X223631223Y-147159970D01*
X223660675Y-147149432D01*
X223691018Y-147141832D01*
X223721960Y-147137242D01*
X223753203Y-147135707D01*
X224465703Y-147135707D01*
X224496946Y-147137242D01*
X224496946Y-147137242D01*
G37*
D11*
X224109453Y-147773207D03*
D10*
G36*
X224496946Y-148712242D02*
X224527888Y-148716832D01*
X224558231Y-148724432D01*
X224587683Y-148734970D01*
X224615961Y-148748345D01*
X224642791Y-148764426D01*
X224667916Y-148783060D01*
X224691093Y-148804067D01*
X224712100Y-148827244D01*
X224730734Y-148852369D01*
X224746815Y-148879199D01*
X224760190Y-148907477D01*
X224770728Y-148936929D01*
X224778328Y-148967272D01*
X224782918Y-148998214D01*
X224784453Y-149029457D01*
X224784453Y-149666957D01*
X224782918Y-149698200D01*
X224778328Y-149729142D01*
X224770728Y-149759485D01*
X224760190Y-149788937D01*
X224746815Y-149817215D01*
X224730734Y-149844045D01*
X224712100Y-149869170D01*
X224691093Y-149892347D01*
X224667916Y-149913354D01*
X224642791Y-149931988D01*
X224615961Y-149948069D01*
X224587683Y-149961444D01*
X224558231Y-149971982D01*
X224527888Y-149979582D01*
X224496946Y-149984172D01*
X224465703Y-149985707D01*
X223753203Y-149985707D01*
X223721960Y-149984172D01*
X223691018Y-149979582D01*
X223660675Y-149971982D01*
X223631223Y-149961444D01*
X223602945Y-149948069D01*
X223576115Y-149931988D01*
X223550990Y-149913354D01*
X223527813Y-149892347D01*
X223506806Y-149869170D01*
X223488172Y-149844045D01*
X223472091Y-149817215D01*
X223458716Y-149788937D01*
X223448178Y-149759485D01*
X223440578Y-149729142D01*
X223435988Y-149698200D01*
X223434453Y-149666957D01*
X223434453Y-149029457D01*
X223435988Y-148998214D01*
X223440578Y-148967272D01*
X223448178Y-148936929D01*
X223458716Y-148907477D01*
X223472091Y-148879199D01*
X223488172Y-148852369D01*
X223506806Y-148827244D01*
X223527813Y-148804067D01*
X223550990Y-148783060D01*
X223576115Y-148764426D01*
X223602945Y-148748345D01*
X223631223Y-148734970D01*
X223660675Y-148724432D01*
X223691018Y-148716832D01*
X223721960Y-148712242D01*
X223753203Y-148710707D01*
X224465703Y-148710707D01*
X224496946Y-148712242D01*
X224496946Y-148712242D01*
G37*
D11*
X224109453Y-149348207D03*
G04 #@! TD*
D10*
G04 #@! TO.C,R10*
G36*
X218637446Y-192029242D02*
X218668388Y-192033832D01*
X218698731Y-192041432D01*
X218728183Y-192051970D01*
X218756461Y-192065345D01*
X218783291Y-192081426D01*
X218808416Y-192100060D01*
X218831593Y-192121067D01*
X218852600Y-192144244D01*
X218871234Y-192169369D01*
X218887315Y-192196199D01*
X218900690Y-192224477D01*
X218911228Y-192253929D01*
X218918828Y-192284272D01*
X218923418Y-192315214D01*
X218924953Y-192346457D01*
X218924953Y-193058957D01*
X218923418Y-193090200D01*
X218918828Y-193121142D01*
X218911228Y-193151485D01*
X218900690Y-193180937D01*
X218887315Y-193209215D01*
X218871234Y-193236045D01*
X218852600Y-193261170D01*
X218831593Y-193284347D01*
X218808416Y-193305354D01*
X218783291Y-193323988D01*
X218756461Y-193340069D01*
X218728183Y-193353444D01*
X218698731Y-193363982D01*
X218668388Y-193371582D01*
X218637446Y-193376172D01*
X218606203Y-193377707D01*
X217968703Y-193377707D01*
X217937460Y-193376172D01*
X217906518Y-193371582D01*
X217876175Y-193363982D01*
X217846723Y-193353444D01*
X217818445Y-193340069D01*
X217791615Y-193323988D01*
X217766490Y-193305354D01*
X217743313Y-193284347D01*
X217722306Y-193261170D01*
X217703672Y-193236045D01*
X217687591Y-193209215D01*
X217674216Y-193180937D01*
X217663678Y-193151485D01*
X217656078Y-193121142D01*
X217651488Y-193090200D01*
X217649953Y-193058957D01*
X217649953Y-192346457D01*
X217651488Y-192315214D01*
X217656078Y-192284272D01*
X217663678Y-192253929D01*
X217674216Y-192224477D01*
X217687591Y-192196199D01*
X217703672Y-192169369D01*
X217722306Y-192144244D01*
X217743313Y-192121067D01*
X217766490Y-192100060D01*
X217791615Y-192081426D01*
X217818445Y-192065345D01*
X217846723Y-192051970D01*
X217876175Y-192041432D01*
X217906518Y-192033832D01*
X217937460Y-192029242D01*
X217968703Y-192027707D01*
X218606203Y-192027707D01*
X218637446Y-192029242D01*
X218637446Y-192029242D01*
G37*
D11*
X218287453Y-192702707D03*
D10*
G36*
X220212446Y-192029242D02*
X220243388Y-192033832D01*
X220273731Y-192041432D01*
X220303183Y-192051970D01*
X220331461Y-192065345D01*
X220358291Y-192081426D01*
X220383416Y-192100060D01*
X220406593Y-192121067D01*
X220427600Y-192144244D01*
X220446234Y-192169369D01*
X220462315Y-192196199D01*
X220475690Y-192224477D01*
X220486228Y-192253929D01*
X220493828Y-192284272D01*
X220498418Y-192315214D01*
X220499953Y-192346457D01*
X220499953Y-193058957D01*
X220498418Y-193090200D01*
X220493828Y-193121142D01*
X220486228Y-193151485D01*
X220475690Y-193180937D01*
X220462315Y-193209215D01*
X220446234Y-193236045D01*
X220427600Y-193261170D01*
X220406593Y-193284347D01*
X220383416Y-193305354D01*
X220358291Y-193323988D01*
X220331461Y-193340069D01*
X220303183Y-193353444D01*
X220273731Y-193363982D01*
X220243388Y-193371582D01*
X220212446Y-193376172D01*
X220181203Y-193377707D01*
X219543703Y-193377707D01*
X219512460Y-193376172D01*
X219481518Y-193371582D01*
X219451175Y-193363982D01*
X219421723Y-193353444D01*
X219393445Y-193340069D01*
X219366615Y-193323988D01*
X219341490Y-193305354D01*
X219318313Y-193284347D01*
X219297306Y-193261170D01*
X219278672Y-193236045D01*
X219262591Y-193209215D01*
X219249216Y-193180937D01*
X219238678Y-193151485D01*
X219231078Y-193121142D01*
X219226488Y-193090200D01*
X219224953Y-193058957D01*
X219224953Y-192346457D01*
X219226488Y-192315214D01*
X219231078Y-192284272D01*
X219238678Y-192253929D01*
X219249216Y-192224477D01*
X219262591Y-192196199D01*
X219278672Y-192169369D01*
X219297306Y-192144244D01*
X219318313Y-192121067D01*
X219341490Y-192100060D01*
X219366615Y-192081426D01*
X219393445Y-192065345D01*
X219421723Y-192051970D01*
X219451175Y-192041432D01*
X219481518Y-192033832D01*
X219512460Y-192029242D01*
X219543703Y-192027707D01*
X220181203Y-192027707D01*
X220212446Y-192029242D01*
X220212446Y-192029242D01*
G37*
D11*
X219862453Y-192702707D03*
G04 #@! TD*
D10*
G04 #@! TO.C,R11*
G36*
X221630642Y-203292542D02*
X221661532Y-203297469D01*
X221691791Y-203305400D01*
X221721126Y-203316258D01*
X221749256Y-203329940D01*
X221775909Y-203346313D01*
X221800829Y-203365220D01*
X221823776Y-203386479D01*
X221844529Y-203409884D01*
X221862888Y-203435210D01*
X221878676Y-203462215D01*
X221891741Y-203490636D01*
X221901957Y-203520201D01*
X221909226Y-203550626D01*
X221913478Y-203581616D01*
X221975576Y-204291404D01*
X221976770Y-204322662D01*
X221974894Y-204353886D01*
X221969967Y-204384777D01*
X221962036Y-204415035D01*
X221951177Y-204444371D01*
X221937496Y-204472500D01*
X221921122Y-204499154D01*
X221902216Y-204524074D01*
X221880957Y-204547021D01*
X221857552Y-204567773D01*
X221832225Y-204586132D01*
X221805221Y-204601920D01*
X221776800Y-204614985D01*
X221747234Y-204625201D01*
X221716810Y-204632470D01*
X221685820Y-204636722D01*
X221050746Y-204692284D01*
X221019488Y-204693478D01*
X220988264Y-204691602D01*
X220957374Y-204686675D01*
X220927115Y-204678744D01*
X220897780Y-204667886D01*
X220869650Y-204654204D01*
X220842997Y-204637831D01*
X220818077Y-204618924D01*
X220795130Y-204597665D01*
X220774377Y-204574260D01*
X220756018Y-204548934D01*
X220740230Y-204521929D01*
X220727165Y-204493508D01*
X220716949Y-204463943D01*
X220709680Y-204433518D01*
X220705428Y-204402528D01*
X220643330Y-203692740D01*
X220642136Y-203661482D01*
X220644012Y-203630258D01*
X220648939Y-203599367D01*
X220656870Y-203569109D01*
X220667729Y-203539773D01*
X220681410Y-203511644D01*
X220697784Y-203484990D01*
X220716690Y-203460070D01*
X220737949Y-203437123D01*
X220761354Y-203416371D01*
X220786681Y-203398012D01*
X220813685Y-203382224D01*
X220842106Y-203369159D01*
X220871672Y-203358943D01*
X220902096Y-203351674D01*
X220933086Y-203347422D01*
X221568160Y-203291860D01*
X221599418Y-203290666D01*
X221630642Y-203292542D01*
X221630642Y-203292542D01*
G37*
D11*
X221309453Y-203992072D03*
D10*
G36*
X220061636Y-203429812D02*
X220092526Y-203434739D01*
X220122785Y-203442670D01*
X220152120Y-203453528D01*
X220180250Y-203467210D01*
X220206903Y-203483583D01*
X220231823Y-203502490D01*
X220254770Y-203523749D01*
X220275523Y-203547154D01*
X220293882Y-203572480D01*
X220309670Y-203599485D01*
X220322735Y-203627906D01*
X220332951Y-203657471D01*
X220340220Y-203687896D01*
X220344472Y-203718886D01*
X220406570Y-204428674D01*
X220407764Y-204459932D01*
X220405888Y-204491156D01*
X220400961Y-204522047D01*
X220393030Y-204552305D01*
X220382171Y-204581641D01*
X220368490Y-204609770D01*
X220352116Y-204636424D01*
X220333210Y-204661344D01*
X220311951Y-204684291D01*
X220288546Y-204705043D01*
X220263219Y-204723402D01*
X220236215Y-204739190D01*
X220207794Y-204752255D01*
X220178228Y-204762471D01*
X220147804Y-204769740D01*
X220116814Y-204773992D01*
X219481740Y-204829554D01*
X219450482Y-204830748D01*
X219419258Y-204828872D01*
X219388368Y-204823945D01*
X219358109Y-204816014D01*
X219328774Y-204805156D01*
X219300644Y-204791474D01*
X219273991Y-204775101D01*
X219249071Y-204756194D01*
X219226124Y-204734935D01*
X219205371Y-204711530D01*
X219187012Y-204686204D01*
X219171224Y-204659199D01*
X219158159Y-204630778D01*
X219147943Y-204601213D01*
X219140674Y-204570788D01*
X219136422Y-204539798D01*
X219074324Y-203830010D01*
X219073130Y-203798752D01*
X219075006Y-203767528D01*
X219079933Y-203736637D01*
X219087864Y-203706379D01*
X219098723Y-203677043D01*
X219112404Y-203648914D01*
X219128778Y-203622260D01*
X219147684Y-203597340D01*
X219168943Y-203574393D01*
X219192348Y-203553641D01*
X219217675Y-203535282D01*
X219244679Y-203519494D01*
X219273100Y-203506429D01*
X219302666Y-203496213D01*
X219333090Y-203488944D01*
X219364080Y-203484692D01*
X219999154Y-203429130D01*
X220030412Y-203427936D01*
X220061636Y-203429812D01*
X220061636Y-203429812D01*
G37*
D11*
X219740447Y-204129342D03*
G04 #@! TD*
D10*
G04 #@! TO.C,R12*
G36*
X217496946Y-180024742D02*
X217527888Y-180029332D01*
X217558231Y-180036932D01*
X217587683Y-180047470D01*
X217615961Y-180060845D01*
X217642791Y-180076926D01*
X217667916Y-180095560D01*
X217691093Y-180116567D01*
X217712100Y-180139744D01*
X217730734Y-180164869D01*
X217746815Y-180191699D01*
X217760190Y-180219977D01*
X217770728Y-180249429D01*
X217778328Y-180279772D01*
X217782918Y-180310714D01*
X217784453Y-180341957D01*
X217784453Y-180979457D01*
X217782918Y-181010700D01*
X217778328Y-181041642D01*
X217770728Y-181071985D01*
X217760190Y-181101437D01*
X217746815Y-181129715D01*
X217730734Y-181156545D01*
X217712100Y-181181670D01*
X217691093Y-181204847D01*
X217667916Y-181225854D01*
X217642791Y-181244488D01*
X217615961Y-181260569D01*
X217587683Y-181273944D01*
X217558231Y-181284482D01*
X217527888Y-181292082D01*
X217496946Y-181296672D01*
X217465703Y-181298207D01*
X216753203Y-181298207D01*
X216721960Y-181296672D01*
X216691018Y-181292082D01*
X216660675Y-181284482D01*
X216631223Y-181273944D01*
X216602945Y-181260569D01*
X216576115Y-181244488D01*
X216550990Y-181225854D01*
X216527813Y-181204847D01*
X216506806Y-181181670D01*
X216488172Y-181156545D01*
X216472091Y-181129715D01*
X216458716Y-181101437D01*
X216448178Y-181071985D01*
X216440578Y-181041642D01*
X216435988Y-181010700D01*
X216434453Y-180979457D01*
X216434453Y-180341957D01*
X216435988Y-180310714D01*
X216440578Y-180279772D01*
X216448178Y-180249429D01*
X216458716Y-180219977D01*
X216472091Y-180191699D01*
X216488172Y-180164869D01*
X216506806Y-180139744D01*
X216527813Y-180116567D01*
X216550990Y-180095560D01*
X216576115Y-180076926D01*
X216602945Y-180060845D01*
X216631223Y-180047470D01*
X216660675Y-180036932D01*
X216691018Y-180029332D01*
X216721960Y-180024742D01*
X216753203Y-180023207D01*
X217465703Y-180023207D01*
X217496946Y-180024742D01*
X217496946Y-180024742D01*
G37*
D11*
X217109453Y-180660707D03*
D10*
G36*
X217496946Y-181599742D02*
X217527888Y-181604332D01*
X217558231Y-181611932D01*
X217587683Y-181622470D01*
X217615961Y-181635845D01*
X217642791Y-181651926D01*
X217667916Y-181670560D01*
X217691093Y-181691567D01*
X217712100Y-181714744D01*
X217730734Y-181739869D01*
X217746815Y-181766699D01*
X217760190Y-181794977D01*
X217770728Y-181824429D01*
X217778328Y-181854772D01*
X217782918Y-181885714D01*
X217784453Y-181916957D01*
X217784453Y-182554457D01*
X217782918Y-182585700D01*
X217778328Y-182616642D01*
X217770728Y-182646985D01*
X217760190Y-182676437D01*
X217746815Y-182704715D01*
X217730734Y-182731545D01*
X217712100Y-182756670D01*
X217691093Y-182779847D01*
X217667916Y-182800854D01*
X217642791Y-182819488D01*
X217615961Y-182835569D01*
X217587683Y-182848944D01*
X217558231Y-182859482D01*
X217527888Y-182867082D01*
X217496946Y-182871672D01*
X217465703Y-182873207D01*
X216753203Y-182873207D01*
X216721960Y-182871672D01*
X216691018Y-182867082D01*
X216660675Y-182859482D01*
X216631223Y-182848944D01*
X216602945Y-182835569D01*
X216576115Y-182819488D01*
X216550990Y-182800854D01*
X216527813Y-182779847D01*
X216506806Y-182756670D01*
X216488172Y-182731545D01*
X216472091Y-182704715D01*
X216458716Y-182676437D01*
X216448178Y-182646985D01*
X216440578Y-182616642D01*
X216435988Y-182585700D01*
X216434453Y-182554457D01*
X216434453Y-181916957D01*
X216435988Y-181885714D01*
X216440578Y-181854772D01*
X216448178Y-181824429D01*
X216458716Y-181794977D01*
X216472091Y-181766699D01*
X216488172Y-181739869D01*
X216506806Y-181714744D01*
X216527813Y-181691567D01*
X216550990Y-181670560D01*
X216576115Y-181651926D01*
X216602945Y-181635845D01*
X216631223Y-181622470D01*
X216660675Y-181611932D01*
X216691018Y-181604332D01*
X216721960Y-181599742D01*
X216753203Y-181598207D01*
X217465703Y-181598207D01*
X217496946Y-181599742D01*
X217496946Y-181599742D01*
G37*
D11*
X217109453Y-182235707D03*
G04 #@! TD*
D10*
G04 #@! TO.C,R13*
G36*
X215796946Y-181612242D02*
X215827888Y-181616832D01*
X215858231Y-181624432D01*
X215887683Y-181634970D01*
X215915961Y-181648345D01*
X215942791Y-181664426D01*
X215967916Y-181683060D01*
X215991093Y-181704067D01*
X216012100Y-181727244D01*
X216030734Y-181752369D01*
X216046815Y-181779199D01*
X216060190Y-181807477D01*
X216070728Y-181836929D01*
X216078328Y-181867272D01*
X216082918Y-181898214D01*
X216084453Y-181929457D01*
X216084453Y-182566957D01*
X216082918Y-182598200D01*
X216078328Y-182629142D01*
X216070728Y-182659485D01*
X216060190Y-182688937D01*
X216046815Y-182717215D01*
X216030734Y-182744045D01*
X216012100Y-182769170D01*
X215991093Y-182792347D01*
X215967916Y-182813354D01*
X215942791Y-182831988D01*
X215915961Y-182848069D01*
X215887683Y-182861444D01*
X215858231Y-182871982D01*
X215827888Y-182879582D01*
X215796946Y-182884172D01*
X215765703Y-182885707D01*
X215053203Y-182885707D01*
X215021960Y-182884172D01*
X214991018Y-182879582D01*
X214960675Y-182871982D01*
X214931223Y-182861444D01*
X214902945Y-182848069D01*
X214876115Y-182831988D01*
X214850990Y-182813354D01*
X214827813Y-182792347D01*
X214806806Y-182769170D01*
X214788172Y-182744045D01*
X214772091Y-182717215D01*
X214758716Y-182688937D01*
X214748178Y-182659485D01*
X214740578Y-182629142D01*
X214735988Y-182598200D01*
X214734453Y-182566957D01*
X214734453Y-181929457D01*
X214735988Y-181898214D01*
X214740578Y-181867272D01*
X214748178Y-181836929D01*
X214758716Y-181807477D01*
X214772091Y-181779199D01*
X214788172Y-181752369D01*
X214806806Y-181727244D01*
X214827813Y-181704067D01*
X214850990Y-181683060D01*
X214876115Y-181664426D01*
X214902945Y-181648345D01*
X214931223Y-181634970D01*
X214960675Y-181624432D01*
X214991018Y-181616832D01*
X215021960Y-181612242D01*
X215053203Y-181610707D01*
X215765703Y-181610707D01*
X215796946Y-181612242D01*
X215796946Y-181612242D01*
G37*
D11*
X215409453Y-182248207D03*
D10*
G36*
X215796946Y-180037242D02*
X215827888Y-180041832D01*
X215858231Y-180049432D01*
X215887683Y-180059970D01*
X215915961Y-180073345D01*
X215942791Y-180089426D01*
X215967916Y-180108060D01*
X215991093Y-180129067D01*
X216012100Y-180152244D01*
X216030734Y-180177369D01*
X216046815Y-180204199D01*
X216060190Y-180232477D01*
X216070728Y-180261929D01*
X216078328Y-180292272D01*
X216082918Y-180323214D01*
X216084453Y-180354457D01*
X216084453Y-180991957D01*
X216082918Y-181023200D01*
X216078328Y-181054142D01*
X216070728Y-181084485D01*
X216060190Y-181113937D01*
X216046815Y-181142215D01*
X216030734Y-181169045D01*
X216012100Y-181194170D01*
X215991093Y-181217347D01*
X215967916Y-181238354D01*
X215942791Y-181256988D01*
X215915961Y-181273069D01*
X215887683Y-181286444D01*
X215858231Y-181296982D01*
X215827888Y-181304582D01*
X215796946Y-181309172D01*
X215765703Y-181310707D01*
X215053203Y-181310707D01*
X215021960Y-181309172D01*
X214991018Y-181304582D01*
X214960675Y-181296982D01*
X214931223Y-181286444D01*
X214902945Y-181273069D01*
X214876115Y-181256988D01*
X214850990Y-181238354D01*
X214827813Y-181217347D01*
X214806806Y-181194170D01*
X214788172Y-181169045D01*
X214772091Y-181142215D01*
X214758716Y-181113937D01*
X214748178Y-181084485D01*
X214740578Y-181054142D01*
X214735988Y-181023200D01*
X214734453Y-180991957D01*
X214734453Y-180354457D01*
X214735988Y-180323214D01*
X214740578Y-180292272D01*
X214748178Y-180261929D01*
X214758716Y-180232477D01*
X214772091Y-180204199D01*
X214788172Y-180177369D01*
X214806806Y-180152244D01*
X214827813Y-180129067D01*
X214850990Y-180108060D01*
X214876115Y-180089426D01*
X214902945Y-180073345D01*
X214931223Y-180059970D01*
X214960675Y-180049432D01*
X214991018Y-180041832D01*
X215021960Y-180037242D01*
X215053203Y-180035707D01*
X215765703Y-180035707D01*
X215796946Y-180037242D01*
X215796946Y-180037242D01*
G37*
D11*
X215409453Y-180673207D03*
G04 #@! TD*
D10*
G04 #@! TO.C,R14*
G36*
X220596946Y-177749742D02*
X220627888Y-177754332D01*
X220658231Y-177761932D01*
X220687683Y-177772470D01*
X220715961Y-177785845D01*
X220742791Y-177801926D01*
X220767916Y-177820560D01*
X220791093Y-177841567D01*
X220812100Y-177864744D01*
X220830734Y-177889869D01*
X220846815Y-177916699D01*
X220860190Y-177944977D01*
X220870728Y-177974429D01*
X220878328Y-178004772D01*
X220882918Y-178035714D01*
X220884453Y-178066957D01*
X220884453Y-178704457D01*
X220882918Y-178735700D01*
X220878328Y-178766642D01*
X220870728Y-178796985D01*
X220860190Y-178826437D01*
X220846815Y-178854715D01*
X220830734Y-178881545D01*
X220812100Y-178906670D01*
X220791093Y-178929847D01*
X220767916Y-178950854D01*
X220742791Y-178969488D01*
X220715961Y-178985569D01*
X220687683Y-178998944D01*
X220658231Y-179009482D01*
X220627888Y-179017082D01*
X220596946Y-179021672D01*
X220565703Y-179023207D01*
X219853203Y-179023207D01*
X219821960Y-179021672D01*
X219791018Y-179017082D01*
X219760675Y-179009482D01*
X219731223Y-178998944D01*
X219702945Y-178985569D01*
X219676115Y-178969488D01*
X219650990Y-178950854D01*
X219627813Y-178929847D01*
X219606806Y-178906670D01*
X219588172Y-178881545D01*
X219572091Y-178854715D01*
X219558716Y-178826437D01*
X219548178Y-178796985D01*
X219540578Y-178766642D01*
X219535988Y-178735700D01*
X219534453Y-178704457D01*
X219534453Y-178066957D01*
X219535988Y-178035714D01*
X219540578Y-178004772D01*
X219548178Y-177974429D01*
X219558716Y-177944977D01*
X219572091Y-177916699D01*
X219588172Y-177889869D01*
X219606806Y-177864744D01*
X219627813Y-177841567D01*
X219650990Y-177820560D01*
X219676115Y-177801926D01*
X219702945Y-177785845D01*
X219731223Y-177772470D01*
X219760675Y-177761932D01*
X219791018Y-177754332D01*
X219821960Y-177749742D01*
X219853203Y-177748207D01*
X220565703Y-177748207D01*
X220596946Y-177749742D01*
X220596946Y-177749742D01*
G37*
D11*
X220209453Y-178385707D03*
D10*
G36*
X220596946Y-179324742D02*
X220627888Y-179329332D01*
X220658231Y-179336932D01*
X220687683Y-179347470D01*
X220715961Y-179360845D01*
X220742791Y-179376926D01*
X220767916Y-179395560D01*
X220791093Y-179416567D01*
X220812100Y-179439744D01*
X220830734Y-179464869D01*
X220846815Y-179491699D01*
X220860190Y-179519977D01*
X220870728Y-179549429D01*
X220878328Y-179579772D01*
X220882918Y-179610714D01*
X220884453Y-179641957D01*
X220884453Y-180279457D01*
X220882918Y-180310700D01*
X220878328Y-180341642D01*
X220870728Y-180371985D01*
X220860190Y-180401437D01*
X220846815Y-180429715D01*
X220830734Y-180456545D01*
X220812100Y-180481670D01*
X220791093Y-180504847D01*
X220767916Y-180525854D01*
X220742791Y-180544488D01*
X220715961Y-180560569D01*
X220687683Y-180573944D01*
X220658231Y-180584482D01*
X220627888Y-180592082D01*
X220596946Y-180596672D01*
X220565703Y-180598207D01*
X219853203Y-180598207D01*
X219821960Y-180596672D01*
X219791018Y-180592082D01*
X219760675Y-180584482D01*
X219731223Y-180573944D01*
X219702945Y-180560569D01*
X219676115Y-180544488D01*
X219650990Y-180525854D01*
X219627813Y-180504847D01*
X219606806Y-180481670D01*
X219588172Y-180456545D01*
X219572091Y-180429715D01*
X219558716Y-180401437D01*
X219548178Y-180371985D01*
X219540578Y-180341642D01*
X219535988Y-180310700D01*
X219534453Y-180279457D01*
X219534453Y-179641957D01*
X219535988Y-179610714D01*
X219540578Y-179579772D01*
X219548178Y-179549429D01*
X219558716Y-179519977D01*
X219572091Y-179491699D01*
X219588172Y-179464869D01*
X219606806Y-179439744D01*
X219627813Y-179416567D01*
X219650990Y-179395560D01*
X219676115Y-179376926D01*
X219702945Y-179360845D01*
X219731223Y-179347470D01*
X219760675Y-179336932D01*
X219791018Y-179329332D01*
X219821960Y-179324742D01*
X219853203Y-179323207D01*
X220565703Y-179323207D01*
X220596946Y-179324742D01*
X220596946Y-179324742D01*
G37*
D11*
X220209453Y-179960707D03*
G04 #@! TD*
D12*
G04 #@! TO.C,U1*
X216026711Y-199619193D03*
D10*
G36*
X215460038Y-198837779D02*
X216508599Y-198782827D01*
X216593384Y-200400607D01*
X215544823Y-200455559D01*
X215460038Y-198837779D01*
X215460038Y-198837779D01*
G37*
D12*
X214129315Y-199718631D03*
D10*
G36*
X213562642Y-198937217D02*
X214611203Y-198882265D01*
X214695988Y-200500045D01*
X213647427Y-200554997D01*
X213562642Y-198937217D01*
X213562642Y-198937217D01*
G37*
D12*
X213992195Y-197102221D03*
D10*
G36*
X213425522Y-196320807D02*
X214474083Y-196265855D01*
X214558868Y-197883635D01*
X213510307Y-197938587D01*
X213425522Y-196320807D01*
X213425522Y-196320807D01*
G37*
D12*
X214940893Y-197052502D03*
D10*
G36*
X214374220Y-196271088D02*
X215422781Y-196216136D01*
X215507566Y-197833916D01*
X214459005Y-197888868D01*
X214374220Y-196271088D01*
X214374220Y-196271088D01*
G37*
D12*
X215889591Y-197002783D03*
D10*
G36*
X215322918Y-196221369D02*
X216371479Y-196166417D01*
X216456264Y-197784197D01*
X215407703Y-197839149D01*
X215322918Y-196221369D01*
X215322918Y-196221369D01*
G37*
G04 #@! TD*
D22*
G04 #@! TO.C,U4*
X223346638Y-165490571D03*
D10*
G36*
X223345898Y-164681853D02*
X224047378Y-165086853D01*
X223347378Y-166299289D01*
X222645898Y-165894289D01*
X223345898Y-164681853D01*
X223345898Y-164681853D01*
G37*
D22*
X222679798Y-165105571D03*
D10*
G36*
X222679058Y-164296853D02*
X223380538Y-164701853D01*
X222680538Y-165914289D01*
X221979058Y-165509289D01*
X222679058Y-164296853D01*
X222679058Y-164296853D01*
G37*
D22*
X222021619Y-164725571D03*
D10*
G36*
X222020879Y-163916853D02*
X222722359Y-164321853D01*
X222022359Y-165534289D01*
X221320879Y-165129289D01*
X222020879Y-163916853D01*
X222020879Y-163916853D01*
G37*
D22*
X221363440Y-164345571D03*
D10*
G36*
X221362700Y-163536853D02*
X222064180Y-163941853D01*
X221364180Y-165154289D01*
X220662700Y-164749289D01*
X221362700Y-163536853D01*
X221362700Y-163536853D01*
G37*
D22*
X220705260Y-163965571D03*
D10*
G36*
X220704520Y-163156853D02*
X221406000Y-163561853D01*
X220706000Y-164774289D01*
X220004520Y-164369289D01*
X220704520Y-163156853D01*
X220704520Y-163156853D01*
G37*
D22*
X216606832Y-160964257D03*
D10*
G36*
X215798114Y-160964997D02*
X216203114Y-160263517D01*
X217415550Y-160963517D01*
X217010550Y-161664997D01*
X215798114Y-160964997D01*
X215798114Y-160964997D01*
G37*
D22*
X216986832Y-160306078D03*
D10*
G36*
X216178114Y-160306818D02*
X216583114Y-159605338D01*
X217795550Y-160305338D01*
X217390550Y-161006818D01*
X216178114Y-160306818D01*
X216178114Y-160306818D01*
G37*
D22*
X217371832Y-159639238D03*
D10*
G36*
X216563114Y-159639978D02*
X216968114Y-158938498D01*
X218180550Y-159638498D01*
X217775550Y-160339978D01*
X216563114Y-159639978D01*
X216563114Y-159639978D01*
G37*
D22*
X217751832Y-158981059D03*
D10*
G36*
X216943114Y-158981799D02*
X217348114Y-158280319D01*
X218560550Y-158980319D01*
X218155550Y-159681799D01*
X216943114Y-158981799D01*
X216943114Y-158981799D01*
G37*
D22*
X218131832Y-158322880D03*
D10*
G36*
X217323114Y-158323620D02*
X217728114Y-157622140D01*
X218940550Y-158322140D01*
X218535550Y-159023620D01*
X217323114Y-158323620D01*
X217323114Y-158323620D01*
G37*
D22*
X218511832Y-157664700D03*
D10*
G36*
X217703114Y-157665440D02*
X218108114Y-156963960D01*
X219320550Y-157663960D01*
X218915550Y-158365440D01*
X217703114Y-157665440D01*
X217703114Y-157665440D01*
G37*
D22*
X218891832Y-157006521D03*
D10*
G36*
X218083114Y-157007261D02*
X218488114Y-156305781D01*
X219700550Y-157005781D01*
X219295550Y-157707261D01*
X218083114Y-157007261D01*
X218083114Y-157007261D01*
G37*
D22*
X219276832Y-156339682D03*
D10*
G36*
X218468114Y-156340422D02*
X218873114Y-155638942D01*
X220085550Y-156338942D01*
X219680550Y-157040422D01*
X218468114Y-156340422D01*
X218468114Y-156340422D01*
G37*
D22*
X219656832Y-155681502D03*
D10*
G36*
X218848114Y-155682242D02*
X219253114Y-154980762D01*
X220465550Y-155680762D01*
X220060550Y-156382242D01*
X218848114Y-155682242D01*
X218848114Y-155682242D01*
G37*
D22*
X220036832Y-155023323D03*
D10*
G36*
X219228114Y-155024063D02*
X219633114Y-154322583D01*
X220845550Y-155022583D01*
X220440550Y-155724063D01*
X219228114Y-155024063D01*
X219228114Y-155024063D01*
G37*
D22*
X220416832Y-154365144D03*
D10*
G36*
X219608114Y-154365884D02*
X220013114Y-153664404D01*
X221225550Y-154364404D01*
X220820550Y-155065884D01*
X219608114Y-154365884D01*
X219608114Y-154365884D01*
G37*
D22*
X220796832Y-153706964D03*
D10*
G36*
X219988114Y-153707704D02*
X220393114Y-153006224D01*
X221605550Y-153706224D01*
X221200550Y-154407704D01*
X219988114Y-153707704D01*
X219988114Y-153707704D01*
G37*
D22*
X222150703Y-153841990D03*
D10*
G36*
X222149963Y-153033272D02*
X222851443Y-153438272D01*
X222151443Y-154650708D01*
X221449963Y-154245708D01*
X222149963Y-153033272D01*
X222149963Y-153033272D01*
G37*
D22*
X222808883Y-154221990D03*
D10*
G36*
X222808143Y-153413272D02*
X223509623Y-153818272D01*
X222809623Y-155030708D01*
X222108143Y-154625708D01*
X222808143Y-153413272D01*
X222808143Y-153413272D01*
G37*
D22*
X223467062Y-154601990D03*
D10*
G36*
X223466322Y-153793272D02*
X224167802Y-154198272D01*
X223467802Y-155410708D01*
X222766322Y-155005708D01*
X223466322Y-153793272D01*
X223466322Y-153793272D01*
G37*
D22*
X224125241Y-154981990D03*
D10*
G36*
X224124501Y-154173272D02*
X224825981Y-154578272D01*
X224125981Y-155790708D01*
X223424501Y-155385708D01*
X224124501Y-154173272D01*
X224124501Y-154173272D01*
G37*
D22*
X220047081Y-163585571D03*
D10*
G36*
X220046341Y-162776853D02*
X220747821Y-163181853D01*
X220047821Y-164394289D01*
X219346341Y-163989289D01*
X220046341Y-162776853D01*
X220046341Y-162776853D01*
G37*
G04 #@! TD*
D23*
G04 #@! TO.C,U5*
X219459453Y-196510707D03*
D10*
G36*
X220633506Y-197531295D02*
X218438865Y-197684760D01*
X218285400Y-195490119D01*
X220480041Y-195336654D01*
X220633506Y-197531295D01*
X220633506Y-197531295D01*
G37*
D24*
X218767741Y-195205780D03*
D10*
G36*
X219372731Y-195614574D02*
X218225532Y-195694794D01*
X218162751Y-194796986D01*
X219309950Y-194716766D01*
X219372731Y-195614574D01*
X219372731Y-195614574D01*
G37*
D25*
X219540853Y-195151718D03*
D10*
G36*
X219173218Y-195628524D02*
X219110437Y-194730717D01*
X219908488Y-194674912D01*
X219971269Y-195572719D01*
X219173218Y-195628524D01*
X219173218Y-195628524D01*
G37*
D25*
X220139391Y-195109865D03*
D10*
G36*
X219771756Y-195586671D02*
X219708975Y-194688864D01*
X220507026Y-194633059D01*
X220569807Y-195530866D01*
X219771756Y-195586671D01*
X219771756Y-195586671D01*
G37*
D25*
X220327734Y-197803287D03*
D10*
G36*
X219960099Y-198280093D02*
X219897318Y-197382286D01*
X220695369Y-197326481D01*
X220758150Y-198224288D01*
X219960099Y-198280093D01*
X219960099Y-198280093D01*
G37*
D25*
X219729200Y-197845141D03*
D10*
G36*
X219361565Y-198321947D02*
X219298784Y-197424140D01*
X220096835Y-197368335D01*
X220159616Y-198266142D01*
X219361565Y-198321947D01*
X219361565Y-198321947D01*
G37*
D24*
X218956083Y-197899203D03*
D10*
G36*
X219561073Y-198307997D02*
X218413874Y-198388217D01*
X218351093Y-197490409D01*
X219498292Y-197410189D01*
X219561073Y-198307997D01*
X219561073Y-198307997D01*
G37*
G04 #@! TD*
D26*
G04 #@! TO.C,U6*
X221291687Y-205848602D03*
D10*
G36*
X220497215Y-206520401D02*
X220392628Y-205324968D01*
X222086159Y-205176803D01*
X222190746Y-206372236D01*
X220497215Y-206520401D01*
X220497215Y-206520401D01*
G37*
D26*
X221403246Y-207123731D03*
D10*
G36*
X220608774Y-207795530D02*
X220504187Y-206600097D01*
X222197718Y-206451932D01*
X222302305Y-207647365D01*
X220608774Y-207795530D01*
X220608774Y-207795530D01*
G37*
D26*
X215127219Y-207672812D03*
D10*
G36*
X214332747Y-208344611D02*
X214228160Y-207149178D01*
X215921691Y-207001013D01*
X216026278Y-208196446D01*
X214332747Y-208344611D01*
X214332747Y-208344611D01*
G37*
D26*
X215015660Y-206397683D03*
D10*
G36*
X214221188Y-207069482D02*
X214116601Y-205874049D01*
X215810132Y-205725884D01*
X215914719Y-206921317D01*
X214221188Y-207069482D01*
X214221188Y-207069482D01*
G37*
G04 #@! TD*
D26*
G04 #@! TO.C,U7*
X210551279Y-206563024D03*
D10*
G36*
X211209110Y-207369100D02*
X210012034Y-207452807D01*
X209893448Y-205756948D01*
X211090524Y-205673241D01*
X211209110Y-207369100D01*
X211209110Y-207369100D01*
G37*
D26*
X211828161Y-206473736D03*
D10*
G36*
X212485992Y-207279812D02*
X211288916Y-207363519D01*
X211170330Y-205667660D01*
X212367406Y-205583953D01*
X212485992Y-207279812D01*
X212485992Y-207279812D01*
G37*
D26*
X212267627Y-212758390D03*
D10*
G36*
X212925458Y-213564466D02*
X211728382Y-213648173D01*
X211609796Y-211952314D01*
X212806872Y-211868607D01*
X212925458Y-213564466D01*
X212925458Y-213564466D01*
G37*
D26*
X210990745Y-212847678D03*
D10*
G36*
X211648576Y-213653754D02*
X210451500Y-213737461D01*
X210332914Y-212041602D01*
X211529990Y-211957895D01*
X211648576Y-213653754D01*
X211648576Y-213653754D01*
G37*
G04 #@! TD*
D26*
G04 #@! TO.C,U8*
X213975299Y-214794948D03*
D10*
G36*
X213192672Y-215480510D02*
X213067238Y-214287084D01*
X214757926Y-214109386D01*
X214883360Y-215302812D01*
X213192672Y-215480510D01*
X213192672Y-215480510D01*
G37*
D26*
X214109095Y-216067936D03*
D10*
G36*
X213326468Y-216753498D02*
X213201034Y-215560072D01*
X214891722Y-215382374D01*
X215017156Y-216575800D01*
X213326468Y-216753498D01*
X213326468Y-216753498D01*
G37*
D26*
X207843607Y-216726466D03*
D10*
G36*
X207060980Y-217412028D02*
X206935546Y-216218602D01*
X208626234Y-216040904D01*
X208751668Y-217234330D01*
X207060980Y-217412028D01*
X207060980Y-217412028D01*
G37*
D26*
X207709811Y-215453478D03*
D10*
G36*
X206927184Y-216139040D02*
X206801750Y-214945614D01*
X208492438Y-214767916D01*
X208617872Y-215961342D01*
X206927184Y-216139040D01*
X206927184Y-216139040D01*
G37*
G04 #@! TD*
D26*
G04 #@! TO.C,U9*
X218413708Y-221420251D03*
D10*
G36*
X219242251Y-220790952D02*
X219284130Y-221990221D01*
X217585165Y-222049550D01*
X217543286Y-220850281D01*
X219242251Y-220790952D01*
X219242251Y-220790952D01*
G37*
D26*
X218369036Y-220141030D03*
D10*
G36*
X219197579Y-219511731D02*
X219239458Y-220711000D01*
X217540493Y-220770329D01*
X217498614Y-219571060D01*
X219197579Y-219511731D01*
X219197579Y-219511731D01*
G37*
D26*
X224665198Y-219921163D03*
D10*
G36*
X225493741Y-219291864D02*
X225535620Y-220491133D01*
X223836655Y-220550462D01*
X223794776Y-219351193D01*
X225493741Y-219291864D01*
X225493741Y-219291864D01*
G37*
D26*
X224709870Y-221200384D03*
D10*
G36*
X225538413Y-220571085D02*
X225580292Y-221770354D01*
X223881327Y-221829683D01*
X223839448Y-220630414D01*
X225538413Y-220571085D01*
X225538413Y-220571085D01*
G37*
G04 #@! TD*
G04 #@! TO.C,C15*
G36*
X214871638Y-202526754D02*
X214902437Y-202532220D01*
X214932553Y-202540678D01*
X214961694Y-202552047D01*
X214989581Y-202566218D01*
X215015944Y-202583053D01*
X215040531Y-202602392D01*
X215063103Y-202624048D01*
X215083444Y-202647812D01*
X215101358Y-202673455D01*
X215116672Y-202700730D01*
X215129239Y-202729376D01*
X215138938Y-202759115D01*
X215145675Y-202789661D01*
X215149386Y-202820721D01*
X215199087Y-203531485D01*
X215199735Y-203562759D01*
X215197315Y-203593946D01*
X215191849Y-203624746D01*
X215183391Y-203654861D01*
X215172022Y-203684002D01*
X215157851Y-203711889D01*
X215141015Y-203738253D01*
X215121677Y-203762839D01*
X215100021Y-203785411D01*
X215076257Y-203805752D01*
X215050614Y-203823666D01*
X215023338Y-203838980D01*
X214994693Y-203851547D01*
X214964954Y-203861246D01*
X214934407Y-203867983D01*
X214903348Y-203871694D01*
X214267401Y-203916164D01*
X214236127Y-203916812D01*
X214204940Y-203914392D01*
X214174141Y-203908926D01*
X214144025Y-203900468D01*
X214114884Y-203889099D01*
X214086997Y-203874928D01*
X214060634Y-203858093D01*
X214036047Y-203838754D01*
X214013475Y-203817098D01*
X213993134Y-203793334D01*
X213975220Y-203767691D01*
X213959906Y-203740416D01*
X213947339Y-203711770D01*
X213937640Y-203682031D01*
X213930903Y-203651485D01*
X213927192Y-203620425D01*
X213877491Y-202909661D01*
X213876843Y-202878387D01*
X213879263Y-202847200D01*
X213884729Y-202816400D01*
X213893187Y-202786285D01*
X213904556Y-202757144D01*
X213918727Y-202729257D01*
X213935563Y-202702893D01*
X213954901Y-202678307D01*
X213976557Y-202655735D01*
X214000321Y-202635394D01*
X214025964Y-202617480D01*
X214053240Y-202602166D01*
X214081885Y-202589599D01*
X214111624Y-202579900D01*
X214142171Y-202573163D01*
X214173230Y-202569452D01*
X214809177Y-202524982D01*
X214840451Y-202524334D01*
X214871638Y-202526754D01*
X214871638Y-202526754D01*
G37*
D11*
X214538289Y-203220573D03*
D10*
G36*
X216442802Y-202416888D02*
X216473601Y-202422354D01*
X216503717Y-202430812D01*
X216532858Y-202442181D01*
X216560745Y-202456352D01*
X216587108Y-202473187D01*
X216611695Y-202492526D01*
X216634267Y-202514182D01*
X216654608Y-202537946D01*
X216672522Y-202563589D01*
X216687836Y-202590864D01*
X216700403Y-202619510D01*
X216710102Y-202649249D01*
X216716839Y-202679795D01*
X216720550Y-202710855D01*
X216770251Y-203421619D01*
X216770899Y-203452893D01*
X216768479Y-203484080D01*
X216763013Y-203514880D01*
X216754555Y-203544995D01*
X216743186Y-203574136D01*
X216729015Y-203602023D01*
X216712179Y-203628387D01*
X216692841Y-203652973D01*
X216671185Y-203675545D01*
X216647421Y-203695886D01*
X216621778Y-203713800D01*
X216594502Y-203729114D01*
X216565857Y-203741681D01*
X216536118Y-203751380D01*
X216505571Y-203758117D01*
X216474512Y-203761828D01*
X215838565Y-203806298D01*
X215807291Y-203806946D01*
X215776104Y-203804526D01*
X215745305Y-203799060D01*
X215715189Y-203790602D01*
X215686048Y-203779233D01*
X215658161Y-203765062D01*
X215631798Y-203748227D01*
X215607211Y-203728888D01*
X215584639Y-203707232D01*
X215564298Y-203683468D01*
X215546384Y-203657825D01*
X215531070Y-203630550D01*
X215518503Y-203601904D01*
X215508804Y-203572165D01*
X215502067Y-203541619D01*
X215498356Y-203510559D01*
X215448655Y-202799795D01*
X215448007Y-202768521D01*
X215450427Y-202737334D01*
X215455893Y-202706534D01*
X215464351Y-202676419D01*
X215475720Y-202647278D01*
X215489891Y-202619391D01*
X215506727Y-202593027D01*
X215526065Y-202568441D01*
X215547721Y-202545869D01*
X215571485Y-202525528D01*
X215597128Y-202507614D01*
X215624404Y-202492300D01*
X215653049Y-202479733D01*
X215682788Y-202470034D01*
X215713335Y-202463297D01*
X215744394Y-202459586D01*
X216380341Y-202415116D01*
X216411615Y-202414468D01*
X216442802Y-202416888D01*
X216442802Y-202416888D01*
G37*
D11*
X216109453Y-203110707D03*
G04 #@! TD*
D10*
G04 #@! TO.C,C16*
G36*
X214752219Y-200956820D02*
X214783018Y-200962286D01*
X214813134Y-200970744D01*
X214842275Y-200982113D01*
X214870162Y-200996284D01*
X214896525Y-201013119D01*
X214921112Y-201032458D01*
X214943684Y-201054114D01*
X214964025Y-201077878D01*
X214981939Y-201103521D01*
X214997253Y-201130796D01*
X215009820Y-201159442D01*
X215019519Y-201189181D01*
X215026256Y-201219727D01*
X215029967Y-201250787D01*
X215079668Y-201961551D01*
X215080316Y-201992825D01*
X215077896Y-202024012D01*
X215072430Y-202054812D01*
X215063972Y-202084927D01*
X215052603Y-202114068D01*
X215038432Y-202141955D01*
X215021596Y-202168319D01*
X215002258Y-202192905D01*
X214980602Y-202215477D01*
X214956838Y-202235818D01*
X214931195Y-202253732D01*
X214903919Y-202269046D01*
X214875274Y-202281613D01*
X214845535Y-202291312D01*
X214814988Y-202298049D01*
X214783929Y-202301760D01*
X214147982Y-202346230D01*
X214116708Y-202346878D01*
X214085521Y-202344458D01*
X214054722Y-202338992D01*
X214024606Y-202330534D01*
X213995465Y-202319165D01*
X213967578Y-202304994D01*
X213941215Y-202288159D01*
X213916628Y-202268820D01*
X213894056Y-202247164D01*
X213873715Y-202223400D01*
X213855801Y-202197757D01*
X213840487Y-202170482D01*
X213827920Y-202141836D01*
X213818221Y-202112097D01*
X213811484Y-202081551D01*
X213807773Y-202050491D01*
X213758072Y-201339727D01*
X213757424Y-201308453D01*
X213759844Y-201277266D01*
X213765310Y-201246466D01*
X213773768Y-201216351D01*
X213785137Y-201187210D01*
X213799308Y-201159323D01*
X213816144Y-201132959D01*
X213835482Y-201108373D01*
X213857138Y-201085801D01*
X213880902Y-201065460D01*
X213906545Y-201047546D01*
X213933821Y-201032232D01*
X213962466Y-201019665D01*
X213992205Y-201009966D01*
X214022752Y-201003229D01*
X214053811Y-200999518D01*
X214689758Y-200955048D01*
X214721032Y-200954400D01*
X214752219Y-200956820D01*
X214752219Y-200956820D01*
G37*
D11*
X214418870Y-201650639D03*
D10*
G36*
X216323383Y-200846954D02*
X216354182Y-200852420D01*
X216384298Y-200860878D01*
X216413439Y-200872247D01*
X216441326Y-200886418D01*
X216467689Y-200903253D01*
X216492276Y-200922592D01*
X216514848Y-200944248D01*
X216535189Y-200968012D01*
X216553103Y-200993655D01*
X216568417Y-201020930D01*
X216580984Y-201049576D01*
X216590683Y-201079315D01*
X216597420Y-201109861D01*
X216601131Y-201140921D01*
X216650832Y-201851685D01*
X216651480Y-201882959D01*
X216649060Y-201914146D01*
X216643594Y-201944946D01*
X216635136Y-201975061D01*
X216623767Y-202004202D01*
X216609596Y-202032089D01*
X216592760Y-202058453D01*
X216573422Y-202083039D01*
X216551766Y-202105611D01*
X216528002Y-202125952D01*
X216502359Y-202143866D01*
X216475083Y-202159180D01*
X216446438Y-202171747D01*
X216416699Y-202181446D01*
X216386152Y-202188183D01*
X216355093Y-202191894D01*
X215719146Y-202236364D01*
X215687872Y-202237012D01*
X215656685Y-202234592D01*
X215625886Y-202229126D01*
X215595770Y-202220668D01*
X215566629Y-202209299D01*
X215538742Y-202195128D01*
X215512379Y-202178293D01*
X215487792Y-202158954D01*
X215465220Y-202137298D01*
X215444879Y-202113534D01*
X215426965Y-202087891D01*
X215411651Y-202060616D01*
X215399084Y-202031970D01*
X215389385Y-202002231D01*
X215382648Y-201971685D01*
X215378937Y-201940625D01*
X215329236Y-201229861D01*
X215328588Y-201198587D01*
X215331008Y-201167400D01*
X215336474Y-201136600D01*
X215344932Y-201106485D01*
X215356301Y-201077344D01*
X215370472Y-201049457D01*
X215387308Y-201023093D01*
X215406646Y-200998507D01*
X215428302Y-200975935D01*
X215452066Y-200955594D01*
X215477709Y-200937680D01*
X215504985Y-200922366D01*
X215533630Y-200909799D01*
X215563369Y-200900100D01*
X215593916Y-200893363D01*
X215624975Y-200889652D01*
X216260922Y-200845182D01*
X216292196Y-200844534D01*
X216323383Y-200846954D01*
X216323383Y-200846954D01*
G37*
D11*
X215990034Y-201540773D03*
G04 #@! TD*
D10*
G04 #@! TO.C,C17*
G36*
X225440884Y-173727274D02*
X225472478Y-173731961D01*
X225503461Y-173739722D01*
X225533534Y-173750482D01*
X225562408Y-173764138D01*
X225589804Y-173780559D01*
X225615459Y-173799586D01*
X225639125Y-173821035D01*
X225660574Y-173844701D01*
X225679601Y-173870356D01*
X225696022Y-173897752D01*
X225709678Y-173926626D01*
X225720438Y-173956699D01*
X225728199Y-173987682D01*
X225732886Y-174019276D01*
X225734453Y-174051178D01*
X225734453Y-175125236D01*
X225732886Y-175157138D01*
X225728199Y-175188732D01*
X225720438Y-175219715D01*
X225709678Y-175249788D01*
X225696022Y-175278662D01*
X225679601Y-175306058D01*
X225660574Y-175331713D01*
X225639125Y-175355379D01*
X225615459Y-175376828D01*
X225589804Y-175395855D01*
X225562408Y-175412276D01*
X225533534Y-175425932D01*
X225503461Y-175436692D01*
X225472478Y-175444453D01*
X225440884Y-175449140D01*
X225408982Y-175450707D01*
X223309924Y-175450707D01*
X223278022Y-175449140D01*
X223246428Y-175444453D01*
X223215445Y-175436692D01*
X223185372Y-175425932D01*
X223156498Y-175412276D01*
X223129102Y-175395855D01*
X223103447Y-175376828D01*
X223079781Y-175355379D01*
X223058332Y-175331713D01*
X223039305Y-175306058D01*
X223022884Y-175278662D01*
X223009228Y-175249788D01*
X222998468Y-175219715D01*
X222990707Y-175188732D01*
X222986020Y-175157138D01*
X222984453Y-175125236D01*
X222984453Y-174051178D01*
X222986020Y-174019276D01*
X222990707Y-173987682D01*
X222998468Y-173956699D01*
X223009228Y-173926626D01*
X223022884Y-173897752D01*
X223039305Y-173870356D01*
X223058332Y-173844701D01*
X223079781Y-173821035D01*
X223103447Y-173799586D01*
X223129102Y-173780559D01*
X223156498Y-173764138D01*
X223185372Y-173750482D01*
X223215445Y-173739722D01*
X223246428Y-173731961D01*
X223278022Y-173727274D01*
X223309924Y-173725707D01*
X225408982Y-173725707D01*
X225440884Y-173727274D01*
X225440884Y-173727274D01*
G37*
D27*
X224359453Y-174588207D03*
D10*
G36*
X225440884Y-170652274D02*
X225472478Y-170656961D01*
X225503461Y-170664722D01*
X225533534Y-170675482D01*
X225562408Y-170689138D01*
X225589804Y-170705559D01*
X225615459Y-170724586D01*
X225639125Y-170746035D01*
X225660574Y-170769701D01*
X225679601Y-170795356D01*
X225696022Y-170822752D01*
X225709678Y-170851626D01*
X225720438Y-170881699D01*
X225728199Y-170912682D01*
X225732886Y-170944276D01*
X225734453Y-170976178D01*
X225734453Y-172050236D01*
X225732886Y-172082138D01*
X225728199Y-172113732D01*
X225720438Y-172144715D01*
X225709678Y-172174788D01*
X225696022Y-172203662D01*
X225679601Y-172231058D01*
X225660574Y-172256713D01*
X225639125Y-172280379D01*
X225615459Y-172301828D01*
X225589804Y-172320855D01*
X225562408Y-172337276D01*
X225533534Y-172350932D01*
X225503461Y-172361692D01*
X225472478Y-172369453D01*
X225440884Y-172374140D01*
X225408982Y-172375707D01*
X223309924Y-172375707D01*
X223278022Y-172374140D01*
X223246428Y-172369453D01*
X223215445Y-172361692D01*
X223185372Y-172350932D01*
X223156498Y-172337276D01*
X223129102Y-172320855D01*
X223103447Y-172301828D01*
X223079781Y-172280379D01*
X223058332Y-172256713D01*
X223039305Y-172231058D01*
X223022884Y-172203662D01*
X223009228Y-172174788D01*
X222998468Y-172144715D01*
X222990707Y-172113732D01*
X222986020Y-172082138D01*
X222984453Y-172050236D01*
X222984453Y-170976178D01*
X222986020Y-170944276D01*
X222990707Y-170912682D01*
X222998468Y-170881699D01*
X223009228Y-170851626D01*
X223022884Y-170822752D01*
X223039305Y-170795356D01*
X223058332Y-170769701D01*
X223079781Y-170746035D01*
X223103447Y-170724586D01*
X223129102Y-170705559D01*
X223156498Y-170689138D01*
X223185372Y-170675482D01*
X223215445Y-170664722D01*
X223246428Y-170656961D01*
X223278022Y-170652274D01*
X223309924Y-170650707D01*
X225408982Y-170650707D01*
X225440884Y-170652274D01*
X225440884Y-170652274D01*
G37*
D27*
X224359453Y-171513207D03*
G04 #@! TD*
D28*
G04 #@! TO.C,Q1*
X213609453Y-191670707D03*
X213609453Y-193570707D03*
X215609453Y-192620707D03*
G04 #@! TD*
D10*
G04 #@! TO.C,R15*
G36*
X212409396Y-190934862D02*
X212442765Y-190939812D01*
X212475488Y-190948009D01*
X212507250Y-190959373D01*
X212537746Y-190973797D01*
X212566680Y-190991139D01*
X212593776Y-191011235D01*
X212618771Y-191033889D01*
X212641425Y-191058884D01*
X212661521Y-191085980D01*
X212678863Y-191114914D01*
X212693287Y-191145410D01*
X212704651Y-191177172D01*
X212712848Y-191209895D01*
X212717798Y-191243264D01*
X212719453Y-191276957D01*
X212719453Y-191964457D01*
X212717798Y-191998150D01*
X212712848Y-192031519D01*
X212704651Y-192064242D01*
X212693287Y-192096004D01*
X212678863Y-192126500D01*
X212661521Y-192155434D01*
X212641425Y-192182530D01*
X212618771Y-192207525D01*
X212593776Y-192230179D01*
X212566680Y-192250275D01*
X212537746Y-192267617D01*
X212507250Y-192282041D01*
X212475488Y-192293405D01*
X212442765Y-192301602D01*
X212409396Y-192306552D01*
X212375703Y-192308207D01*
X211263203Y-192308207D01*
X211229510Y-192306552D01*
X211196141Y-192301602D01*
X211163418Y-192293405D01*
X211131656Y-192282041D01*
X211101160Y-192267617D01*
X211072226Y-192250275D01*
X211045130Y-192230179D01*
X211020135Y-192207525D01*
X210997481Y-192182530D01*
X210977385Y-192155434D01*
X210960043Y-192126500D01*
X210945619Y-192096004D01*
X210934255Y-192064242D01*
X210926058Y-192031519D01*
X210921108Y-191998150D01*
X210919453Y-191964457D01*
X210919453Y-191276957D01*
X210921108Y-191243264D01*
X210926058Y-191209895D01*
X210934255Y-191177172D01*
X210945619Y-191145410D01*
X210960043Y-191114914D01*
X210977385Y-191085980D01*
X210997481Y-191058884D01*
X211020135Y-191033889D01*
X211045130Y-191011235D01*
X211072226Y-190991139D01*
X211101160Y-190973797D01*
X211131656Y-190959373D01*
X211163418Y-190948009D01*
X211196141Y-190939812D01*
X211229510Y-190934862D01*
X211263203Y-190933207D01*
X212375703Y-190933207D01*
X212409396Y-190934862D01*
X212409396Y-190934862D01*
G37*
D29*
X211819453Y-191620707D03*
D10*
G36*
X212409396Y-189059862D02*
X212442765Y-189064812D01*
X212475488Y-189073009D01*
X212507250Y-189084373D01*
X212537746Y-189098797D01*
X212566680Y-189116139D01*
X212593776Y-189136235D01*
X212618771Y-189158889D01*
X212641425Y-189183884D01*
X212661521Y-189210980D01*
X212678863Y-189239914D01*
X212693287Y-189270410D01*
X212704651Y-189302172D01*
X212712848Y-189334895D01*
X212717798Y-189368264D01*
X212719453Y-189401957D01*
X212719453Y-190089457D01*
X212717798Y-190123150D01*
X212712848Y-190156519D01*
X212704651Y-190189242D01*
X212693287Y-190221004D01*
X212678863Y-190251500D01*
X212661521Y-190280434D01*
X212641425Y-190307530D01*
X212618771Y-190332525D01*
X212593776Y-190355179D01*
X212566680Y-190375275D01*
X212537746Y-190392617D01*
X212507250Y-190407041D01*
X212475488Y-190418405D01*
X212442765Y-190426602D01*
X212409396Y-190431552D01*
X212375703Y-190433207D01*
X211263203Y-190433207D01*
X211229510Y-190431552D01*
X211196141Y-190426602D01*
X211163418Y-190418405D01*
X211131656Y-190407041D01*
X211101160Y-190392617D01*
X211072226Y-190375275D01*
X211045130Y-190355179D01*
X211020135Y-190332525D01*
X210997481Y-190307530D01*
X210977385Y-190280434D01*
X210960043Y-190251500D01*
X210945619Y-190221004D01*
X210934255Y-190189242D01*
X210926058Y-190156519D01*
X210921108Y-190123150D01*
X210919453Y-190089457D01*
X210919453Y-189401957D01*
X210921108Y-189368264D01*
X210926058Y-189334895D01*
X210934255Y-189302172D01*
X210945619Y-189270410D01*
X210960043Y-189239914D01*
X210977385Y-189210980D01*
X210997481Y-189183884D01*
X211020135Y-189158889D01*
X211045130Y-189136235D01*
X211072226Y-189116139D01*
X211101160Y-189098797D01*
X211131656Y-189084373D01*
X211163418Y-189073009D01*
X211196141Y-189064812D01*
X211229510Y-189059862D01*
X211263203Y-189058207D01*
X212375703Y-189058207D01*
X212409396Y-189059862D01*
X212409396Y-189059862D01*
G37*
D29*
X211819453Y-189745707D03*
G04 #@! TD*
D10*
G04 #@! TO.C,L3*
G36*
X219144198Y-183142690D02*
X219176311Y-183146882D01*
X219207857Y-183154201D01*
X219238535Y-183164577D01*
X219268047Y-183177911D01*
X219296111Y-183194072D01*
X219322455Y-183212907D01*
X219346826Y-183234233D01*
X219368990Y-183257845D01*
X219388733Y-183283516D01*
X219405864Y-183310999D01*
X219420219Y-183340028D01*
X219431659Y-183370325D01*
X219440075Y-183401597D01*
X219445385Y-183433543D01*
X219447539Y-183465856D01*
X219473543Y-184955629D01*
X219472518Y-184987997D01*
X219468326Y-185020109D01*
X219461007Y-185051656D01*
X219450631Y-185082333D01*
X219437298Y-185111846D01*
X219421136Y-185139910D01*
X219402301Y-185166254D01*
X219380975Y-185190625D01*
X219357363Y-185212789D01*
X219331692Y-185232532D01*
X219304209Y-185249663D01*
X219275180Y-185264018D01*
X219244884Y-185275458D01*
X219213612Y-185283874D01*
X219181665Y-185289184D01*
X219149352Y-185291338D01*
X218159502Y-185308615D01*
X218127134Y-185307590D01*
X218095021Y-185303398D01*
X218063475Y-185296079D01*
X218032797Y-185285703D01*
X218003285Y-185272369D01*
X217975221Y-185256208D01*
X217948877Y-185237373D01*
X217924506Y-185216047D01*
X217902342Y-185192435D01*
X217882599Y-185166764D01*
X217865468Y-185139281D01*
X217851113Y-185110252D01*
X217839673Y-185079955D01*
X217831257Y-185048683D01*
X217825947Y-185016737D01*
X217823793Y-184984424D01*
X217797789Y-183494651D01*
X217798814Y-183462283D01*
X217803006Y-183430171D01*
X217810325Y-183398624D01*
X217820701Y-183367947D01*
X217834034Y-183338434D01*
X217850196Y-183310370D01*
X217869031Y-183284026D01*
X217890357Y-183259655D01*
X217913969Y-183237491D01*
X217939640Y-183217748D01*
X217967123Y-183200617D01*
X217996152Y-183186262D01*
X218026448Y-183174822D01*
X218057720Y-183166406D01*
X218089667Y-183161096D01*
X218121980Y-183158942D01*
X219111830Y-183141665D01*
X219144198Y-183142690D01*
X219144198Y-183142690D01*
G37*
D30*
X218635666Y-184225140D03*
D10*
G36*
X221943772Y-183093824D02*
X221975885Y-183098016D01*
X222007431Y-183105335D01*
X222038109Y-183115711D01*
X222067621Y-183129045D01*
X222095685Y-183145206D01*
X222122029Y-183164041D01*
X222146400Y-183185367D01*
X222168564Y-183208979D01*
X222188307Y-183234650D01*
X222205438Y-183262133D01*
X222219793Y-183291162D01*
X222231233Y-183321459D01*
X222239649Y-183352731D01*
X222244959Y-183384677D01*
X222247113Y-183416990D01*
X222273117Y-184906763D01*
X222272092Y-184939131D01*
X222267900Y-184971243D01*
X222260581Y-185002790D01*
X222250205Y-185033467D01*
X222236872Y-185062980D01*
X222220710Y-185091044D01*
X222201875Y-185117388D01*
X222180549Y-185141759D01*
X222156937Y-185163923D01*
X222131266Y-185183666D01*
X222103783Y-185200797D01*
X222074754Y-185215152D01*
X222044458Y-185226592D01*
X222013186Y-185235008D01*
X221981239Y-185240318D01*
X221948926Y-185242472D01*
X220959076Y-185259749D01*
X220926708Y-185258724D01*
X220894595Y-185254532D01*
X220863049Y-185247213D01*
X220832371Y-185236837D01*
X220802859Y-185223503D01*
X220774795Y-185207342D01*
X220748451Y-185188507D01*
X220724080Y-185167181D01*
X220701916Y-185143569D01*
X220682173Y-185117898D01*
X220665042Y-185090415D01*
X220650687Y-185061386D01*
X220639247Y-185031089D01*
X220630831Y-184999817D01*
X220625521Y-184967871D01*
X220623367Y-184935558D01*
X220597363Y-183445785D01*
X220598388Y-183413417D01*
X220602580Y-183381305D01*
X220609899Y-183349758D01*
X220620275Y-183319081D01*
X220633608Y-183289568D01*
X220649770Y-183261504D01*
X220668605Y-183235160D01*
X220689931Y-183210789D01*
X220713543Y-183188625D01*
X220739214Y-183168882D01*
X220766697Y-183151751D01*
X220795726Y-183137396D01*
X220826022Y-183125956D01*
X220857294Y-183117540D01*
X220889241Y-183112230D01*
X220921554Y-183110076D01*
X221911404Y-183092799D01*
X221943772Y-183093824D01*
X221943772Y-183093824D01*
G37*
D30*
X221435240Y-184176274D03*
G04 #@! TD*
D10*
G04 #@! TO.C,JP2*
G36*
X220001946Y-180627242D02*
X220032888Y-180631832D01*
X220063231Y-180639432D01*
X220092683Y-180649970D01*
X220120961Y-180663345D01*
X220147791Y-180679426D01*
X220172916Y-180698060D01*
X220196093Y-180719067D01*
X220217100Y-180742244D01*
X220235734Y-180767369D01*
X220251815Y-180794199D01*
X220265190Y-180822477D01*
X220275728Y-180851929D01*
X220283328Y-180882272D01*
X220287918Y-180913214D01*
X220289453Y-180944457D01*
X220289453Y-181656957D01*
X220287918Y-181688200D01*
X220283328Y-181719142D01*
X220275728Y-181749485D01*
X220265190Y-181778937D01*
X220251815Y-181807215D01*
X220235734Y-181834045D01*
X220217100Y-181859170D01*
X220196093Y-181882347D01*
X220172916Y-181903354D01*
X220147791Y-181921988D01*
X220120961Y-181938069D01*
X220092683Y-181951444D01*
X220063231Y-181961982D01*
X220032888Y-181969582D01*
X220001946Y-181974172D01*
X219970703Y-181975707D01*
X219333203Y-181975707D01*
X219301960Y-181974172D01*
X219271018Y-181969582D01*
X219240675Y-181961982D01*
X219211223Y-181951444D01*
X219182945Y-181938069D01*
X219156115Y-181921988D01*
X219130990Y-181903354D01*
X219107813Y-181882347D01*
X219086806Y-181859170D01*
X219068172Y-181834045D01*
X219052091Y-181807215D01*
X219038716Y-181778937D01*
X219028178Y-181749485D01*
X219020578Y-181719142D01*
X219015988Y-181688200D01*
X219014453Y-181656957D01*
X219014453Y-180944457D01*
X219015988Y-180913214D01*
X219020578Y-180882272D01*
X219028178Y-180851929D01*
X219038716Y-180822477D01*
X219052091Y-180794199D01*
X219068172Y-180767369D01*
X219086806Y-180742244D01*
X219107813Y-180719067D01*
X219130990Y-180698060D01*
X219156115Y-180679426D01*
X219182945Y-180663345D01*
X219211223Y-180649970D01*
X219240675Y-180639432D01*
X219271018Y-180631832D01*
X219301960Y-180627242D01*
X219333203Y-180625707D01*
X219970703Y-180625707D01*
X220001946Y-180627242D01*
X220001946Y-180627242D01*
G37*
D11*
X219651953Y-181300707D03*
D10*
G36*
X221576946Y-180627242D02*
X221607888Y-180631832D01*
X221638231Y-180639432D01*
X221667683Y-180649970D01*
X221695961Y-180663345D01*
X221722791Y-180679426D01*
X221747916Y-180698060D01*
X221771093Y-180719067D01*
X221792100Y-180742244D01*
X221810734Y-180767369D01*
X221826815Y-180794199D01*
X221840190Y-180822477D01*
X221850728Y-180851929D01*
X221858328Y-180882272D01*
X221862918Y-180913214D01*
X221864453Y-180944457D01*
X221864453Y-181656957D01*
X221862918Y-181688200D01*
X221858328Y-181719142D01*
X221850728Y-181749485D01*
X221840190Y-181778937D01*
X221826815Y-181807215D01*
X221810734Y-181834045D01*
X221792100Y-181859170D01*
X221771093Y-181882347D01*
X221747916Y-181903354D01*
X221722791Y-181921988D01*
X221695961Y-181938069D01*
X221667683Y-181951444D01*
X221638231Y-181961982D01*
X221607888Y-181969582D01*
X221576946Y-181974172D01*
X221545703Y-181975707D01*
X220908203Y-181975707D01*
X220876960Y-181974172D01*
X220846018Y-181969582D01*
X220815675Y-181961982D01*
X220786223Y-181951444D01*
X220757945Y-181938069D01*
X220731115Y-181921988D01*
X220705990Y-181903354D01*
X220682813Y-181882347D01*
X220661806Y-181859170D01*
X220643172Y-181834045D01*
X220627091Y-181807215D01*
X220613716Y-181778937D01*
X220603178Y-181749485D01*
X220595578Y-181719142D01*
X220590988Y-181688200D01*
X220589453Y-181656957D01*
X220589453Y-180944457D01*
X220590988Y-180913214D01*
X220595578Y-180882272D01*
X220603178Y-180851929D01*
X220613716Y-180822477D01*
X220627091Y-180794199D01*
X220643172Y-180767369D01*
X220661806Y-180742244D01*
X220682813Y-180719067D01*
X220705990Y-180698060D01*
X220731115Y-180679426D01*
X220757945Y-180663345D01*
X220786223Y-180649970D01*
X220815675Y-180639432D01*
X220846018Y-180631832D01*
X220876960Y-180627242D01*
X220908203Y-180625707D01*
X221545703Y-180625707D01*
X221576946Y-180627242D01*
X221576946Y-180627242D01*
G37*
D11*
X221226953Y-181300707D03*
G04 #@! TD*
D10*
G04 #@! TO.C,JP5*
G36*
X224076946Y-175987242D02*
X224107888Y-175991832D01*
X224138231Y-175999432D01*
X224167683Y-176009970D01*
X224195961Y-176023345D01*
X224222791Y-176039426D01*
X224247916Y-176058060D01*
X224271093Y-176079067D01*
X224292100Y-176102244D01*
X224310734Y-176127369D01*
X224326815Y-176154199D01*
X224340190Y-176182477D01*
X224350728Y-176211929D01*
X224358328Y-176242272D01*
X224362918Y-176273214D01*
X224364453Y-176304457D01*
X224364453Y-176941957D01*
X224362918Y-176973200D01*
X224358328Y-177004142D01*
X224350728Y-177034485D01*
X224340190Y-177063937D01*
X224326815Y-177092215D01*
X224310734Y-177119045D01*
X224292100Y-177144170D01*
X224271093Y-177167347D01*
X224247916Y-177188354D01*
X224222791Y-177206988D01*
X224195961Y-177223069D01*
X224167683Y-177236444D01*
X224138231Y-177246982D01*
X224107888Y-177254582D01*
X224076946Y-177259172D01*
X224045703Y-177260707D01*
X223333203Y-177260707D01*
X223301960Y-177259172D01*
X223271018Y-177254582D01*
X223240675Y-177246982D01*
X223211223Y-177236444D01*
X223182945Y-177223069D01*
X223156115Y-177206988D01*
X223130990Y-177188354D01*
X223107813Y-177167347D01*
X223086806Y-177144170D01*
X223068172Y-177119045D01*
X223052091Y-177092215D01*
X223038716Y-177063937D01*
X223028178Y-177034485D01*
X223020578Y-177004142D01*
X223015988Y-176973200D01*
X223014453Y-176941957D01*
X223014453Y-176304457D01*
X223015988Y-176273214D01*
X223020578Y-176242272D01*
X223028178Y-176211929D01*
X223038716Y-176182477D01*
X223052091Y-176154199D01*
X223068172Y-176127369D01*
X223086806Y-176102244D01*
X223107813Y-176079067D01*
X223130990Y-176058060D01*
X223156115Y-176039426D01*
X223182945Y-176023345D01*
X223211223Y-176009970D01*
X223240675Y-175999432D01*
X223271018Y-175991832D01*
X223301960Y-175987242D01*
X223333203Y-175985707D01*
X224045703Y-175985707D01*
X224076946Y-175987242D01*
X224076946Y-175987242D01*
G37*
D11*
X223689453Y-176623207D03*
D10*
G36*
X224076946Y-177562242D02*
X224107888Y-177566832D01*
X224138231Y-177574432D01*
X224167683Y-177584970D01*
X224195961Y-177598345D01*
X224222791Y-177614426D01*
X224247916Y-177633060D01*
X224271093Y-177654067D01*
X224292100Y-177677244D01*
X224310734Y-177702369D01*
X224326815Y-177729199D01*
X224340190Y-177757477D01*
X224350728Y-177786929D01*
X224358328Y-177817272D01*
X224362918Y-177848214D01*
X224364453Y-177879457D01*
X224364453Y-178516957D01*
X224362918Y-178548200D01*
X224358328Y-178579142D01*
X224350728Y-178609485D01*
X224340190Y-178638937D01*
X224326815Y-178667215D01*
X224310734Y-178694045D01*
X224292100Y-178719170D01*
X224271093Y-178742347D01*
X224247916Y-178763354D01*
X224222791Y-178781988D01*
X224195961Y-178798069D01*
X224167683Y-178811444D01*
X224138231Y-178821982D01*
X224107888Y-178829582D01*
X224076946Y-178834172D01*
X224045703Y-178835707D01*
X223333203Y-178835707D01*
X223301960Y-178834172D01*
X223271018Y-178829582D01*
X223240675Y-178821982D01*
X223211223Y-178811444D01*
X223182945Y-178798069D01*
X223156115Y-178781988D01*
X223130990Y-178763354D01*
X223107813Y-178742347D01*
X223086806Y-178719170D01*
X223068172Y-178694045D01*
X223052091Y-178667215D01*
X223038716Y-178638937D01*
X223028178Y-178609485D01*
X223020578Y-178579142D01*
X223015988Y-178548200D01*
X223014453Y-178516957D01*
X223014453Y-177879457D01*
X223015988Y-177848214D01*
X223020578Y-177817272D01*
X223028178Y-177786929D01*
X223038716Y-177757477D01*
X223052091Y-177729199D01*
X223068172Y-177702369D01*
X223086806Y-177677244D01*
X223107813Y-177654067D01*
X223130990Y-177633060D01*
X223156115Y-177614426D01*
X223182945Y-177598345D01*
X223211223Y-177584970D01*
X223240675Y-177574432D01*
X223271018Y-177566832D01*
X223301960Y-177562242D01*
X223333203Y-177560707D01*
X224045703Y-177560707D01*
X224076946Y-177562242D01*
X224076946Y-177562242D01*
G37*
D11*
X223689453Y-178198207D03*
G04 #@! TD*
D10*
G04 #@! TO.C,R16*
G36*
X224476946Y-188557242D02*
X224507888Y-188561832D01*
X224538231Y-188569432D01*
X224567683Y-188579970D01*
X224595961Y-188593345D01*
X224622791Y-188609426D01*
X224647916Y-188628060D01*
X224671093Y-188649067D01*
X224692100Y-188672244D01*
X224710734Y-188697369D01*
X224726815Y-188724199D01*
X224740190Y-188752477D01*
X224750728Y-188781929D01*
X224758328Y-188812272D01*
X224762918Y-188843214D01*
X224764453Y-188874457D01*
X224764453Y-189511957D01*
X224762918Y-189543200D01*
X224758328Y-189574142D01*
X224750728Y-189604485D01*
X224740190Y-189633937D01*
X224726815Y-189662215D01*
X224710734Y-189689045D01*
X224692100Y-189714170D01*
X224671093Y-189737347D01*
X224647916Y-189758354D01*
X224622791Y-189776988D01*
X224595961Y-189793069D01*
X224567683Y-189806444D01*
X224538231Y-189816982D01*
X224507888Y-189824582D01*
X224476946Y-189829172D01*
X224445703Y-189830707D01*
X223733203Y-189830707D01*
X223701960Y-189829172D01*
X223671018Y-189824582D01*
X223640675Y-189816982D01*
X223611223Y-189806444D01*
X223582945Y-189793069D01*
X223556115Y-189776988D01*
X223530990Y-189758354D01*
X223507813Y-189737347D01*
X223486806Y-189714170D01*
X223468172Y-189689045D01*
X223452091Y-189662215D01*
X223438716Y-189633937D01*
X223428178Y-189604485D01*
X223420578Y-189574142D01*
X223415988Y-189543200D01*
X223414453Y-189511957D01*
X223414453Y-188874457D01*
X223415988Y-188843214D01*
X223420578Y-188812272D01*
X223428178Y-188781929D01*
X223438716Y-188752477D01*
X223452091Y-188724199D01*
X223468172Y-188697369D01*
X223486806Y-188672244D01*
X223507813Y-188649067D01*
X223530990Y-188628060D01*
X223556115Y-188609426D01*
X223582945Y-188593345D01*
X223611223Y-188579970D01*
X223640675Y-188569432D01*
X223671018Y-188561832D01*
X223701960Y-188557242D01*
X223733203Y-188555707D01*
X224445703Y-188555707D01*
X224476946Y-188557242D01*
X224476946Y-188557242D01*
G37*
D11*
X224089453Y-189193207D03*
D10*
G36*
X224476946Y-190132242D02*
X224507888Y-190136832D01*
X224538231Y-190144432D01*
X224567683Y-190154970D01*
X224595961Y-190168345D01*
X224622791Y-190184426D01*
X224647916Y-190203060D01*
X224671093Y-190224067D01*
X224692100Y-190247244D01*
X224710734Y-190272369D01*
X224726815Y-190299199D01*
X224740190Y-190327477D01*
X224750728Y-190356929D01*
X224758328Y-190387272D01*
X224762918Y-190418214D01*
X224764453Y-190449457D01*
X224764453Y-191086957D01*
X224762918Y-191118200D01*
X224758328Y-191149142D01*
X224750728Y-191179485D01*
X224740190Y-191208937D01*
X224726815Y-191237215D01*
X224710734Y-191264045D01*
X224692100Y-191289170D01*
X224671093Y-191312347D01*
X224647916Y-191333354D01*
X224622791Y-191351988D01*
X224595961Y-191368069D01*
X224567683Y-191381444D01*
X224538231Y-191391982D01*
X224507888Y-191399582D01*
X224476946Y-191404172D01*
X224445703Y-191405707D01*
X223733203Y-191405707D01*
X223701960Y-191404172D01*
X223671018Y-191399582D01*
X223640675Y-191391982D01*
X223611223Y-191381444D01*
X223582945Y-191368069D01*
X223556115Y-191351988D01*
X223530990Y-191333354D01*
X223507813Y-191312347D01*
X223486806Y-191289170D01*
X223468172Y-191264045D01*
X223452091Y-191237215D01*
X223438716Y-191208937D01*
X223428178Y-191179485D01*
X223420578Y-191149142D01*
X223415988Y-191118200D01*
X223414453Y-191086957D01*
X223414453Y-190449457D01*
X223415988Y-190418214D01*
X223420578Y-190387272D01*
X223428178Y-190356929D01*
X223438716Y-190327477D01*
X223452091Y-190299199D01*
X223468172Y-190272369D01*
X223486806Y-190247244D01*
X223507813Y-190224067D01*
X223530990Y-190203060D01*
X223556115Y-190184426D01*
X223582945Y-190168345D01*
X223611223Y-190154970D01*
X223640675Y-190144432D01*
X223671018Y-190136832D01*
X223701960Y-190132242D01*
X223733203Y-190130707D01*
X224445703Y-190130707D01*
X224476946Y-190132242D01*
X224476946Y-190132242D01*
G37*
D11*
X224089453Y-190768207D03*
G04 #@! TD*
D31*
G04 #@! TO.C,U10*
X222819453Y-179380707D03*
X222819453Y-180280707D03*
X222819453Y-181180707D03*
X222819453Y-182080707D03*
X224019453Y-182080707D03*
X224019453Y-181180707D03*
X224019453Y-180280707D03*
X224019453Y-179380707D03*
G04 #@! TD*
D10*
G04 #@! TO.C,JP3*
G36*
X225566946Y-177542242D02*
X225597888Y-177546832D01*
X225628231Y-177554432D01*
X225657683Y-177564970D01*
X225685961Y-177578345D01*
X225712791Y-177594426D01*
X225737916Y-177613060D01*
X225761093Y-177634067D01*
X225782100Y-177657244D01*
X225800734Y-177682369D01*
X225816815Y-177709199D01*
X225830190Y-177737477D01*
X225840728Y-177766929D01*
X225848328Y-177797272D01*
X225852918Y-177828214D01*
X225854453Y-177859457D01*
X225854453Y-178496957D01*
X225852918Y-178528200D01*
X225848328Y-178559142D01*
X225840728Y-178589485D01*
X225830190Y-178618937D01*
X225816815Y-178647215D01*
X225800734Y-178674045D01*
X225782100Y-178699170D01*
X225761093Y-178722347D01*
X225737916Y-178743354D01*
X225712791Y-178761988D01*
X225685961Y-178778069D01*
X225657683Y-178791444D01*
X225628231Y-178801982D01*
X225597888Y-178809582D01*
X225566946Y-178814172D01*
X225535703Y-178815707D01*
X224823203Y-178815707D01*
X224791960Y-178814172D01*
X224761018Y-178809582D01*
X224730675Y-178801982D01*
X224701223Y-178791444D01*
X224672945Y-178778069D01*
X224646115Y-178761988D01*
X224620990Y-178743354D01*
X224597813Y-178722347D01*
X224576806Y-178699170D01*
X224558172Y-178674045D01*
X224542091Y-178647215D01*
X224528716Y-178618937D01*
X224518178Y-178589485D01*
X224510578Y-178559142D01*
X224505988Y-178528200D01*
X224504453Y-178496957D01*
X224504453Y-177859457D01*
X224505988Y-177828214D01*
X224510578Y-177797272D01*
X224518178Y-177766929D01*
X224528716Y-177737477D01*
X224542091Y-177709199D01*
X224558172Y-177682369D01*
X224576806Y-177657244D01*
X224597813Y-177634067D01*
X224620990Y-177613060D01*
X224646115Y-177594426D01*
X224672945Y-177578345D01*
X224701223Y-177564970D01*
X224730675Y-177554432D01*
X224761018Y-177546832D01*
X224791960Y-177542242D01*
X224823203Y-177540707D01*
X225535703Y-177540707D01*
X225566946Y-177542242D01*
X225566946Y-177542242D01*
G37*
D11*
X225179453Y-178178207D03*
D10*
G36*
X225566946Y-175967242D02*
X225597888Y-175971832D01*
X225628231Y-175979432D01*
X225657683Y-175989970D01*
X225685961Y-176003345D01*
X225712791Y-176019426D01*
X225737916Y-176038060D01*
X225761093Y-176059067D01*
X225782100Y-176082244D01*
X225800734Y-176107369D01*
X225816815Y-176134199D01*
X225830190Y-176162477D01*
X225840728Y-176191929D01*
X225848328Y-176222272D01*
X225852918Y-176253214D01*
X225854453Y-176284457D01*
X225854453Y-176921957D01*
X225852918Y-176953200D01*
X225848328Y-176984142D01*
X225840728Y-177014485D01*
X225830190Y-177043937D01*
X225816815Y-177072215D01*
X225800734Y-177099045D01*
X225782100Y-177124170D01*
X225761093Y-177147347D01*
X225737916Y-177168354D01*
X225712791Y-177186988D01*
X225685961Y-177203069D01*
X225657683Y-177216444D01*
X225628231Y-177226982D01*
X225597888Y-177234582D01*
X225566946Y-177239172D01*
X225535703Y-177240707D01*
X224823203Y-177240707D01*
X224791960Y-177239172D01*
X224761018Y-177234582D01*
X224730675Y-177226982D01*
X224701223Y-177216444D01*
X224672945Y-177203069D01*
X224646115Y-177186988D01*
X224620990Y-177168354D01*
X224597813Y-177147347D01*
X224576806Y-177124170D01*
X224558172Y-177099045D01*
X224542091Y-177072215D01*
X224528716Y-177043937D01*
X224518178Y-177014485D01*
X224510578Y-176984142D01*
X224505988Y-176953200D01*
X224504453Y-176921957D01*
X224504453Y-176284457D01*
X224505988Y-176253214D01*
X224510578Y-176222272D01*
X224518178Y-176191929D01*
X224528716Y-176162477D01*
X224542091Y-176134199D01*
X224558172Y-176107369D01*
X224576806Y-176082244D01*
X224597813Y-176059067D01*
X224620990Y-176038060D01*
X224646115Y-176019426D01*
X224672945Y-176003345D01*
X224701223Y-175989970D01*
X224730675Y-175979432D01*
X224761018Y-175971832D01*
X224791960Y-175967242D01*
X224823203Y-175965707D01*
X225535703Y-175965707D01*
X225566946Y-175967242D01*
X225566946Y-175967242D01*
G37*
D11*
X225179453Y-176603207D03*
G04 #@! TD*
M02*
