M48
;DRILL file {KiCad (5.0.0)} date 01/29/20 13:37:34
;FORMAT={-:-/ absolute / metric / decimal}
FMAT,2
METRIC,TZ
T1C0.370
T2C0.400
T3C0.500
%
G90
G05
M71
T1
X165.939Y-108.931
X180.157Y-110.033
X187.319Y-266.121
X187.929Y-110.731
X188.379Y-185.301
X188.539Y-147.621
X193.169Y-114.081
X193.919Y-173.881
X197.309Y-193.911
X197.409Y-196.511
X197.559Y-177.061
X197.959Y-186.761
X198.509Y-180.361
X198.619Y-147.711
X198.789Y-175.846
X199.189Y-185.646
X199.309Y-191.511
X199.839Y-186.121
X199.864Y-175.071
X200.309Y-189.611
X200.314Y-167.171
X200.409Y-195.311
X200.414Y-186.646
X200.459Y-181.911
X200.509Y-179.936
X201.114Y-186.096
X201.269Y-152.751
X201.564Y-175.571
X201.609Y-204.261
X202.834Y-170.836
X203.709Y-139.861
X203.884Y-168.436
X204.109Y-185.948
X204.779Y-194.481
X204.909Y-183.441
X205.509Y-178.911
X205.559Y-174.761
X205.664Y-163.621
X205.959Y-179.961
X206.514Y-164.371
X206.559Y-159.921
X206.864Y-169.496
X207.029Y-189.541
X207.089Y-166.796
X207.159Y-198.311
X207.359Y-197.361
X208.134Y-176.636
X208.349Y-162.181
X208.489Y-167.871
X208.609Y-192.311
X208.684Y-173.436
X208.759Y-154.861
X208.914Y-158.296
X209.014Y-167.021
X209.279Y-195.801
X209.314Y-158.821
X209.459Y-162.761
X209.699Y-154.852
X209.709Y-181.361
X209.734Y-155.636
X210.009Y-176.361
X210.114Y-158.821
X210.264Y-159.771
X210.409Y-181.061
X210.779Y-171.491
X210.909Y-181.861
X211.164Y-163.671
X211.529Y-166.667
X211.559Y-170.651
X211.709Y-181.261
X211.759Y-205.561
X212.009Y-149.761
X212.079Y-175.141
X212.184Y-168.136
X212.369Y-155.081
X212.679Y-185.751
X212.68Y-186.861
X212.864Y-160.121
X213.039Y-158.346
X213.109Y-166.561
X213.309Y-205.361
X213.709Y-167.261
X214.009Y-170.961
X214.009Y-203.261
X214.209Y-217.011
X214.3Y-154.747
X214.764Y-159.021
X214.909Y-218.211
X215.009Y-166.861
X215.109Y-177.691
X215.139Y-142.046
X215.151Y-164.379
X215.199Y-165.228
X215.409Y-183.261
X215.709Y-166.661
X216.424Y-173.211
X216.447Y-157.158
X216.803Y-176.058
X216.809Y-166.461
X216.909Y-188.461
X216.929Y-193.241
X217.264Y-144.671
X217.339Y-197.271
X217.769Y-168.301
X217.936Y-188.247
X218.009Y-159.961
X218.139Y-151.971
X218.239Y-169.286
X218.389Y-159.351
X218.664Y-146.496
X218.664Y-150.096
X218.982Y-173.239
X219.089Y-158.861
X219.209Y-174.661
X219.639Y-168.131
X220.999Y-203.481
X221.059Y-155.691
X221.449Y-156.741
X221.519Y-182.521
X221.609Y-154.836
X222.364Y-155.006
X222.815Y-155.542
X222.999Y-190.801
X223.029Y-169.841
X223.439Y-175.771
X223.509Y-185.451
X224.349Y-175.761
X224.359Y-171.513
X224.599Y-154.151
X224.869Y-181.191
X224.879Y-180.261
X229.289Y-120.431
X231.609Y-104.351
T2
X164.155Y-128.067
X169.079Y-149.611
X170.629Y-166.141
X172.537Y-134.417
X175.899Y-95.871
X176.349Y-130.661
X176.459Y-149.551
X177.929Y-153.001
X180.639Y-227.646
X181.259Y-98.051
X181.619Y-245.401
X182.209Y-166.941
X182.389Y-209.381
X182.689Y-171.471
X183.239Y-146.251
X185.939Y-189.046
X186.819Y-206.741
X187.119Y-148.621
X187.139Y-97.031
X187.509Y-210.531
X188.059Y-166.331
X188.814Y-170.521
X189.119Y-243.281
X189.599Y-96.211
X189.809Y-259.841
X190.239Y-187.896
X190.489Y-83.541
X191.549Y-181.101
X192.789Y-148.591
X192.849Y-146.721
X194.214Y-246.821
X194.339Y-218.996
X194.639Y-149.261
X195.614Y-217.596
X195.739Y-216.346
X195.839Y-214.921
X195.899Y-129.891
X196.359Y-259.621
X196.609Y-98.301
X197.699Y-113.621
X197.719Y-118.951
X199.239Y-216.321
X199.464Y-218.996
X199.889Y-214.896
X200.439Y-273.521
X201.349Y-67.961
X201.579Y-72.081
X201.764Y-219.021
X201.914Y-217.571
X203.109Y-76.561
X204.539Y-82.551
X205.319Y-122.371
X205.359Y-201.361
X205.789Y-267.841
X205.914Y-167.546
X205.959Y-257.761
X206.259Y-74.071
X207.009Y-98.991
X208.679Y-223.881
X209.279Y-125.091
X209.709Y-216.061
X210.009Y-207.361
X210.539Y-77.296
X211.239Y-101.396
X212.409Y-213.711
X212.529Y-238.831
X213.039Y-188.771
X213.279Y-140.511
X213.887Y-195.731
X214.309Y-207.861
X214.509Y-214.361
X214.509Y-255.231
X214.941Y-197.053
X215.809Y-219.661
X215.99Y-201.541
X217.359Y-205.211
X217.853Y-209.791
X218.031Y-214.888
X218.139Y-108.571
X218.459Y-194.311
X218.559Y-204.211
X219.519Y-63.581
X220.264Y-271.421
X220.309Y-149.361
X221.849Y-194.611
X222.369Y-227.811
X222.779Y-184.171
X223.339Y-219.871
X224.359Y-174.588
X224.469Y-76.041
X224.809Y-149.361
X225.519Y-241.181
X226.029Y-259.931
X227.599Y-99.991
X227.889Y-73.451
X227.979Y-77.691
X228.519Y-245.661
X230.519Y-141.111
X234.449Y-69.851
X236.759Y-129.741
X238.399Y-74.181
X242.139Y-85.821
X242.149Y-119.281
X242.249Y-91.811
X242.389Y-108.896
X244.559Y-101.641
T3
X223.33Y-200.113
X223.399Y-201.111
T0
M30
