G04 #@! TF.GenerationSoftware,KiCad,Pcbnew,(5.0.0)*
G04 #@! TF.CreationDate,2020-01-29T13:37:31+01:00*
G04 #@! TF.ProjectId,Insole_PCB,496E736F6C655F5043422E6B69636164,rev?*
G04 #@! TF.SameCoordinates,Original*
G04 #@! TF.FileFunction,Legend,Top*
G04 #@! TF.FilePolarity,Positive*
%FSLAX46Y46*%
G04 Gerber Fmt 4.6, Leading zero omitted, Abs format (unit mm)*
G04 Created by KiCad (PCBNEW (5.0.0)) date 01/29/20 13:37:31*
%MOMM*%
%LPD*%
G01*
G04 APERTURE LIST*
%ADD10C,0.100000*%
%ADD11C,0.120000*%
%ADD12C,0.010000*%
%ADD13C,0.150000*%
G04 APERTURE END LIST*
D10*
G04 #@! TO.C,S4*
X235899453Y-66140707D02*
G75*
G03X235899453Y-66140707I-8500000J0D01*
G01*
G04 #@! TO.C,S9*
X203539453Y-76730707D02*
G75*
G03X203539453Y-76730707I-8500000J0D01*
G01*
D11*
G04 #@! TO.C,J2*
X222753929Y-201842519D02*
X223447236Y-201794038D01*
X222706146Y-201159188D02*
X222753929Y-201842519D01*
X223958464Y-200384944D02*
X224044977Y-200378895D01*
X222658363Y-200475856D02*
X222744876Y-200469807D01*
X224044977Y-200378895D02*
X223983940Y-199506026D01*
X222658363Y-200475856D02*
X222597326Y-199602988D01*
X223684165Y-199526989D02*
X223983940Y-199506026D01*
X222597326Y-199602988D02*
X222897101Y-199582026D01*
D12*
G04 #@! TO.C,J1*
X219220969Y-208842742D02*
X217072278Y-208917776D01*
X219511745Y-215736794D02*
X217313085Y-215813573D01*
X218838346Y-216510767D02*
X218512035Y-207166462D01*
D11*
X224045329Y-208023875D02*
X220817297Y-208136601D01*
X219930092Y-209378320D02*
X219967783Y-210457662D01*
X220114234Y-214364932D02*
X220151926Y-215444274D01*
X224331505Y-216218880D02*
X221103473Y-216331606D01*
X219967783Y-210457662D02*
X219538045Y-210472669D01*
D10*
G04 #@! TO.C,S0*
X237499453Y-133600707D02*
G75*
G03X237499453Y-133600707I-8500000J0D01*
G01*
G04 #@! TO.C,S1*
X243239453Y-116110707D02*
G75*
G03X243239453Y-116110707I-8500000J0D01*
G01*
G04 #@! TO.C,S2*
X245639453Y-98560707D02*
G75*
G03X245639453Y-98560707I-8500000J0D01*
G01*
G04 #@! TO.C,S3*
X243809453Y-81470707D02*
G75*
G03X243809453Y-81470707I-8500000J0D01*
G01*
G04 #@! TO.C,S5*
X226509453Y-81510707D02*
G75*
G03X226509453Y-81510707I-8500000J0D01*
G01*
G04 #@! TO.C,S6*
X228209453Y-98940707D02*
G75*
G03X228209453Y-98940707I-8500000J0D01*
G01*
G04 #@! TO.C,S7*
X220649453Y-115100707D02*
G75*
G03X220649453Y-115100707I-8500000J0D01*
G01*
G04 #@! TO.C,S8*
X218139453Y-66490707D02*
G75*
G03X218139453Y-66490707I-8500000J0D01*
G01*
G04 #@! TO.C,S10*
X212659453Y-91600707D02*
G75*
G03X212659453Y-91600707I-8500000J0D01*
G01*
G04 #@! TO.C,S11*
X191799453Y-90150707D02*
G75*
G03X191799453Y-90150707I-8500000J0D01*
G01*
G04 #@! TO.C,S12*
X203399453Y-106080707D02*
G75*
G03X203399453Y-106080707I-8500000J0D01*
G01*
G04 #@! TO.C,S13*
X182159453Y-106080707D02*
G75*
G03X182159453Y-106080707I-8500000J0D01*
G01*
G04 #@! TO.C,S14*
X217379453Y-133440707D02*
G75*
G03X217379453Y-133440707I-8500000J0D01*
G01*
G04 #@! TO.C,S15*
X198059453Y-122310707D02*
G75*
G03X198059453Y-122310707I-8500000J0D01*
G01*
G04 #@! TO.C,S16*
X180459453Y-123890707D02*
G75*
G03X180459453Y-123890707I-8500000J0D01*
G01*
G04 #@! TO.C,S17*
X181249453Y-142440707D02*
G75*
G03X181249453Y-142440707I-8500000J0D01*
G01*
G04 #@! TO.C,S18*
X199729453Y-139440707D02*
G75*
G03X199729453Y-139440707I-8500000J0D01*
G01*
G04 #@! TO.C,S19*
X201949453Y-156900707D02*
G75*
G03X201949453Y-156900707I-8500000J0D01*
G01*
G04 #@! TO.C,S20*
X185189453Y-160590707D02*
G75*
G03X185189453Y-160590707I-8500000J0D01*
G01*
G04 #@! TO.C,S21*
X191059453Y-179580707D02*
G75*
G03X191059453Y-179580707I-8500000J0D01*
G01*
G04 #@! TO.C,S22*
X193499453Y-199170707D02*
G75*
G03X193499453Y-199170707I-8500000J0D01*
G01*
G04 #@! TO.C,S23*
X194949453Y-217890707D02*
G75*
G03X194949453Y-217890707I-8500000J0D01*
G01*
G04 #@! TO.C,S24*
X228449453Y-234790707D02*
G75*
G03X228449453Y-234790707I-8500000J0D01*
G01*
G04 #@! TO.C,S25*
X231049453Y-251810707D02*
G75*
G03X231049453Y-251810707I-8500000J0D01*
G01*
G04 #@! TO.C,S26*
X222359453Y-266660707D02*
G75*
G03X222359453Y-266660707I-8500000J0D01*
G01*
G04 #@! TO.C,S27*
X204349453Y-266790707D02*
G75*
G03X204349453Y-266790707I-8500000J0D01*
G01*
G04 #@! TO.C,S28*
X194759453Y-252540707D02*
G75*
G03X194759453Y-252540707I-8500000J0D01*
G01*
G04 #@! TO.C,S29*
X212669453Y-249110707D02*
G75*
G03X212669453Y-249110707I-8500000J0D01*
G01*
G04 #@! TO.C,S30*
X195329453Y-235260707D02*
G75*
G03X195329453Y-235260707I-8500000J0D01*
G01*
G04 #@! TO.C,S31*
X211889453Y-230570707D02*
G75*
G03X211889453Y-230570707I-8500000J0D01*
G01*
G04 #@! TO.C,S4*
D13*
X226137548Y-75845468D02*
X226280405Y-75893087D01*
X226518500Y-75893087D01*
X226613738Y-75845468D01*
X226661357Y-75797849D01*
X226708976Y-75702611D01*
X226708976Y-75607373D01*
X226661357Y-75512135D01*
X226613738Y-75464516D01*
X226518500Y-75416897D01*
X226328024Y-75369278D01*
X226232786Y-75321659D01*
X226185167Y-75274040D01*
X226137548Y-75178802D01*
X226137548Y-75083564D01*
X226185167Y-74988326D01*
X226232786Y-74940707D01*
X226328024Y-74893087D01*
X226566119Y-74893087D01*
X226708976Y-74940707D01*
X227566119Y-75226421D02*
X227566119Y-75893087D01*
X227328024Y-74845468D02*
X227089929Y-75559754D01*
X227708976Y-75559754D01*
G04 #@! TO.C,S9*
X193777548Y-86435468D02*
X193920405Y-86483087D01*
X194158500Y-86483087D01*
X194253738Y-86435468D01*
X194301357Y-86387849D01*
X194348976Y-86292611D01*
X194348976Y-86197373D01*
X194301357Y-86102135D01*
X194253738Y-86054516D01*
X194158500Y-86006897D01*
X193968024Y-85959278D01*
X193872786Y-85911659D01*
X193825167Y-85864040D01*
X193777548Y-85768802D01*
X193777548Y-85673564D01*
X193825167Y-85578326D01*
X193872786Y-85530707D01*
X193968024Y-85483087D01*
X194206119Y-85483087D01*
X194348976Y-85530707D01*
X194825167Y-86483087D02*
X195015643Y-86483087D01*
X195110881Y-86435468D01*
X195158500Y-86387849D01*
X195253738Y-86244992D01*
X195301357Y-86054516D01*
X195301357Y-85673564D01*
X195253738Y-85578326D01*
X195206119Y-85530707D01*
X195110881Y-85483087D01*
X194920405Y-85483087D01*
X194825167Y-85530707D01*
X194777548Y-85578326D01*
X194729929Y-85673564D01*
X194729929Y-85911659D01*
X194777548Y-86006897D01*
X194825167Y-86054516D01*
X194920405Y-86102135D01*
X195110881Y-86102135D01*
X195206119Y-86054516D01*
X195253738Y-86006897D01*
X195301357Y-85911659D01*
G04 #@! TO.C,J2*
X223137551Y-202143874D02*
X223187377Y-202856419D01*
X223149839Y-203002250D01*
X223061477Y-203103900D01*
X222922289Y-203161368D01*
X222827283Y-203168012D01*
X223571722Y-202208984D02*
X223615903Y-202158159D01*
X223707588Y-202104013D01*
X223945103Y-202087404D01*
X224043431Y-202128264D01*
X224094256Y-202172445D01*
X224148402Y-202264129D01*
X224155046Y-202359135D01*
X224117508Y-202504966D01*
X223587332Y-203114864D01*
X224204872Y-203071681D01*
G04 #@! TO.C,J1*
X214330405Y-212132091D02*
X213616554Y-212157019D01*
X213472122Y-212114414D01*
X213373618Y-212022558D01*
X213321043Y-211881450D01*
X213317719Y-211786270D01*
X213365913Y-213166381D02*
X213345971Y-212595300D01*
X213355942Y-212880841D02*
X214355333Y-212845941D01*
X214209239Y-212755747D01*
X214110735Y-212663890D01*
X214059821Y-212570372D01*
G04 #@! TO.C,S0*
X227737548Y-143305468D02*
X227880405Y-143353087D01*
X228118500Y-143353087D01*
X228213738Y-143305468D01*
X228261357Y-143257849D01*
X228308976Y-143162611D01*
X228308976Y-143067373D01*
X228261357Y-142972135D01*
X228213738Y-142924516D01*
X228118500Y-142876897D01*
X227928024Y-142829278D01*
X227832786Y-142781659D01*
X227785167Y-142734040D01*
X227737548Y-142638802D01*
X227737548Y-142543564D01*
X227785167Y-142448326D01*
X227832786Y-142400707D01*
X227928024Y-142353087D01*
X228166119Y-142353087D01*
X228308976Y-142400707D01*
X228928024Y-142353087D02*
X229023262Y-142353087D01*
X229118500Y-142400707D01*
X229166119Y-142448326D01*
X229213738Y-142543564D01*
X229261357Y-142734040D01*
X229261357Y-142972135D01*
X229213738Y-143162611D01*
X229166119Y-143257849D01*
X229118500Y-143305468D01*
X229023262Y-143353087D01*
X228928024Y-143353087D01*
X228832786Y-143305468D01*
X228785167Y-143257849D01*
X228737548Y-143162611D01*
X228689929Y-142972135D01*
X228689929Y-142734040D01*
X228737548Y-142543564D01*
X228785167Y-142448326D01*
X228832786Y-142400707D01*
X228928024Y-142353087D01*
G04 #@! TO.C,S1*
X233477548Y-125815468D02*
X233620405Y-125863087D01*
X233858500Y-125863087D01*
X233953738Y-125815468D01*
X234001357Y-125767849D01*
X234048976Y-125672611D01*
X234048976Y-125577373D01*
X234001357Y-125482135D01*
X233953738Y-125434516D01*
X233858500Y-125386897D01*
X233668024Y-125339278D01*
X233572786Y-125291659D01*
X233525167Y-125244040D01*
X233477548Y-125148802D01*
X233477548Y-125053564D01*
X233525167Y-124958326D01*
X233572786Y-124910707D01*
X233668024Y-124863087D01*
X233906119Y-124863087D01*
X234048976Y-124910707D01*
X235001357Y-125863087D02*
X234429929Y-125863087D01*
X234715643Y-125863087D02*
X234715643Y-124863087D01*
X234620405Y-125005945D01*
X234525167Y-125101183D01*
X234429929Y-125148802D01*
G04 #@! TO.C,S2*
X235877548Y-108265468D02*
X236020405Y-108313087D01*
X236258500Y-108313087D01*
X236353738Y-108265468D01*
X236401357Y-108217849D01*
X236448976Y-108122611D01*
X236448976Y-108027373D01*
X236401357Y-107932135D01*
X236353738Y-107884516D01*
X236258500Y-107836897D01*
X236068024Y-107789278D01*
X235972786Y-107741659D01*
X235925167Y-107694040D01*
X235877548Y-107598802D01*
X235877548Y-107503564D01*
X235925167Y-107408326D01*
X235972786Y-107360707D01*
X236068024Y-107313087D01*
X236306119Y-107313087D01*
X236448976Y-107360707D01*
X236829929Y-107408326D02*
X236877548Y-107360707D01*
X236972786Y-107313087D01*
X237210881Y-107313087D01*
X237306119Y-107360707D01*
X237353738Y-107408326D01*
X237401357Y-107503564D01*
X237401357Y-107598802D01*
X237353738Y-107741659D01*
X236782310Y-108313087D01*
X237401357Y-108313087D01*
G04 #@! TO.C,S3*
X234607548Y-89575468D02*
X234750405Y-89623087D01*
X234988500Y-89623087D01*
X235083738Y-89575468D01*
X235131357Y-89527849D01*
X235178976Y-89432611D01*
X235178976Y-89337373D01*
X235131357Y-89242135D01*
X235083738Y-89194516D01*
X234988500Y-89146897D01*
X234798024Y-89099278D01*
X234702786Y-89051659D01*
X234655167Y-89004040D01*
X234607548Y-88908802D01*
X234607548Y-88813564D01*
X234655167Y-88718326D01*
X234702786Y-88670707D01*
X234798024Y-88623087D01*
X235036119Y-88623087D01*
X235178976Y-88670707D01*
X235512310Y-88623087D02*
X236131357Y-88623087D01*
X235798024Y-89004040D01*
X235940881Y-89004040D01*
X236036119Y-89051659D01*
X236083738Y-89099278D01*
X236131357Y-89194516D01*
X236131357Y-89432611D01*
X236083738Y-89527849D01*
X236036119Y-89575468D01*
X235940881Y-89623087D01*
X235655167Y-89623087D01*
X235559929Y-89575468D01*
X235512310Y-89527849D01*
G04 #@! TO.C,S5*
X217417548Y-89675468D02*
X217560405Y-89723087D01*
X217798500Y-89723087D01*
X217893738Y-89675468D01*
X217941357Y-89627849D01*
X217988976Y-89532611D01*
X217988976Y-89437373D01*
X217941357Y-89342135D01*
X217893738Y-89294516D01*
X217798500Y-89246897D01*
X217608024Y-89199278D01*
X217512786Y-89151659D01*
X217465167Y-89104040D01*
X217417548Y-89008802D01*
X217417548Y-88913564D01*
X217465167Y-88818326D01*
X217512786Y-88770707D01*
X217608024Y-88723087D01*
X217846119Y-88723087D01*
X217988976Y-88770707D01*
X218893738Y-88723087D02*
X218417548Y-88723087D01*
X218369929Y-89199278D01*
X218417548Y-89151659D01*
X218512786Y-89104040D01*
X218750881Y-89104040D01*
X218846119Y-89151659D01*
X218893738Y-89199278D01*
X218941357Y-89294516D01*
X218941357Y-89532611D01*
X218893738Y-89627849D01*
X218846119Y-89675468D01*
X218750881Y-89723087D01*
X218512786Y-89723087D01*
X218417548Y-89675468D01*
X218369929Y-89627849D01*
G04 #@! TO.C,S6*
X218447548Y-108645468D02*
X218590405Y-108693087D01*
X218828500Y-108693087D01*
X218923738Y-108645468D01*
X218971357Y-108597849D01*
X219018976Y-108502611D01*
X219018976Y-108407373D01*
X218971357Y-108312135D01*
X218923738Y-108264516D01*
X218828500Y-108216897D01*
X218638024Y-108169278D01*
X218542786Y-108121659D01*
X218495167Y-108074040D01*
X218447548Y-107978802D01*
X218447548Y-107883564D01*
X218495167Y-107788326D01*
X218542786Y-107740707D01*
X218638024Y-107693087D01*
X218876119Y-107693087D01*
X219018976Y-107740707D01*
X219876119Y-107693087D02*
X219685643Y-107693087D01*
X219590405Y-107740707D01*
X219542786Y-107788326D01*
X219447548Y-107931183D01*
X219399929Y-108121659D01*
X219399929Y-108502611D01*
X219447548Y-108597849D01*
X219495167Y-108645468D01*
X219590405Y-108693087D01*
X219780881Y-108693087D01*
X219876119Y-108645468D01*
X219923738Y-108597849D01*
X219971357Y-108502611D01*
X219971357Y-108264516D01*
X219923738Y-108169278D01*
X219876119Y-108121659D01*
X219780881Y-108074040D01*
X219590405Y-108074040D01*
X219495167Y-108121659D01*
X219447548Y-108169278D01*
X219399929Y-108264516D01*
G04 #@! TO.C,S7*
X210887548Y-124805468D02*
X211030405Y-124853087D01*
X211268500Y-124853087D01*
X211363738Y-124805468D01*
X211411357Y-124757849D01*
X211458976Y-124662611D01*
X211458976Y-124567373D01*
X211411357Y-124472135D01*
X211363738Y-124424516D01*
X211268500Y-124376897D01*
X211078024Y-124329278D01*
X210982786Y-124281659D01*
X210935167Y-124234040D01*
X210887548Y-124138802D01*
X210887548Y-124043564D01*
X210935167Y-123948326D01*
X210982786Y-123900707D01*
X211078024Y-123853087D01*
X211316119Y-123853087D01*
X211458976Y-123900707D01*
X211792310Y-123853087D02*
X212458976Y-123853087D01*
X212030405Y-124853087D01*
G04 #@! TO.C,S8*
X208377548Y-76195468D02*
X208520405Y-76243087D01*
X208758500Y-76243087D01*
X208853738Y-76195468D01*
X208901357Y-76147849D01*
X208948976Y-76052611D01*
X208948976Y-75957373D01*
X208901357Y-75862135D01*
X208853738Y-75814516D01*
X208758500Y-75766897D01*
X208568024Y-75719278D01*
X208472786Y-75671659D01*
X208425167Y-75624040D01*
X208377548Y-75528802D01*
X208377548Y-75433564D01*
X208425167Y-75338326D01*
X208472786Y-75290707D01*
X208568024Y-75243087D01*
X208806119Y-75243087D01*
X208948976Y-75290707D01*
X209520405Y-75671659D02*
X209425167Y-75624040D01*
X209377548Y-75576421D01*
X209329929Y-75481183D01*
X209329929Y-75433564D01*
X209377548Y-75338326D01*
X209425167Y-75290707D01*
X209520405Y-75243087D01*
X209710881Y-75243087D01*
X209806119Y-75290707D01*
X209853738Y-75338326D01*
X209901357Y-75433564D01*
X209901357Y-75481183D01*
X209853738Y-75576421D01*
X209806119Y-75624040D01*
X209710881Y-75671659D01*
X209520405Y-75671659D01*
X209425167Y-75719278D01*
X209377548Y-75766897D01*
X209329929Y-75862135D01*
X209329929Y-76052611D01*
X209377548Y-76147849D01*
X209425167Y-76195468D01*
X209520405Y-76243087D01*
X209710881Y-76243087D01*
X209806119Y-76195468D01*
X209853738Y-76147849D01*
X209901357Y-76052611D01*
X209901357Y-75862135D01*
X209853738Y-75766897D01*
X209806119Y-75719278D01*
X209710881Y-75671659D01*
G04 #@! TO.C,S10*
X202421357Y-101305468D02*
X202564214Y-101353087D01*
X202802310Y-101353087D01*
X202897548Y-101305468D01*
X202945167Y-101257849D01*
X202992786Y-101162611D01*
X202992786Y-101067373D01*
X202945167Y-100972135D01*
X202897548Y-100924516D01*
X202802310Y-100876897D01*
X202611833Y-100829278D01*
X202516595Y-100781659D01*
X202468976Y-100734040D01*
X202421357Y-100638802D01*
X202421357Y-100543564D01*
X202468976Y-100448326D01*
X202516595Y-100400707D01*
X202611833Y-100353087D01*
X202849929Y-100353087D01*
X202992786Y-100400707D01*
X203945167Y-101353087D02*
X203373738Y-101353087D01*
X203659453Y-101353087D02*
X203659453Y-100353087D01*
X203564214Y-100495945D01*
X203468976Y-100591183D01*
X203373738Y-100638802D01*
X204564214Y-100353087D02*
X204659453Y-100353087D01*
X204754691Y-100400707D01*
X204802310Y-100448326D01*
X204849929Y-100543564D01*
X204897548Y-100734040D01*
X204897548Y-100972135D01*
X204849929Y-101162611D01*
X204802310Y-101257849D01*
X204754691Y-101305468D01*
X204659453Y-101353087D01*
X204564214Y-101353087D01*
X204468976Y-101305468D01*
X204421357Y-101257849D01*
X204373738Y-101162611D01*
X204326119Y-100972135D01*
X204326119Y-100734040D01*
X204373738Y-100543564D01*
X204421357Y-100448326D01*
X204468976Y-100400707D01*
X204564214Y-100353087D01*
G04 #@! TO.C,S11*
X181561357Y-99855468D02*
X181704214Y-99903087D01*
X181942310Y-99903087D01*
X182037548Y-99855468D01*
X182085167Y-99807849D01*
X182132786Y-99712611D01*
X182132786Y-99617373D01*
X182085167Y-99522135D01*
X182037548Y-99474516D01*
X181942310Y-99426897D01*
X181751833Y-99379278D01*
X181656595Y-99331659D01*
X181608976Y-99284040D01*
X181561357Y-99188802D01*
X181561357Y-99093564D01*
X181608976Y-98998326D01*
X181656595Y-98950707D01*
X181751833Y-98903087D01*
X181989929Y-98903087D01*
X182132786Y-98950707D01*
X183085167Y-99903087D02*
X182513738Y-99903087D01*
X182799453Y-99903087D02*
X182799453Y-98903087D01*
X182704214Y-99045945D01*
X182608976Y-99141183D01*
X182513738Y-99188802D01*
X184037548Y-99903087D02*
X183466119Y-99903087D01*
X183751833Y-99903087D02*
X183751833Y-98903087D01*
X183656595Y-99045945D01*
X183561357Y-99141183D01*
X183466119Y-99188802D01*
G04 #@! TO.C,S12*
X193161357Y-115785468D02*
X193304214Y-115833087D01*
X193542310Y-115833087D01*
X193637548Y-115785468D01*
X193685167Y-115737849D01*
X193732786Y-115642611D01*
X193732786Y-115547373D01*
X193685167Y-115452135D01*
X193637548Y-115404516D01*
X193542310Y-115356897D01*
X193351833Y-115309278D01*
X193256595Y-115261659D01*
X193208976Y-115214040D01*
X193161357Y-115118802D01*
X193161357Y-115023564D01*
X193208976Y-114928326D01*
X193256595Y-114880707D01*
X193351833Y-114833087D01*
X193589929Y-114833087D01*
X193732786Y-114880707D01*
X194685167Y-115833087D02*
X194113738Y-115833087D01*
X194399453Y-115833087D02*
X194399453Y-114833087D01*
X194304214Y-114975945D01*
X194208976Y-115071183D01*
X194113738Y-115118802D01*
X195066119Y-114928326D02*
X195113738Y-114880707D01*
X195208976Y-114833087D01*
X195447072Y-114833087D01*
X195542310Y-114880707D01*
X195589929Y-114928326D01*
X195637548Y-115023564D01*
X195637548Y-115118802D01*
X195589929Y-115261659D01*
X195018500Y-115833087D01*
X195637548Y-115833087D01*
G04 #@! TO.C,S13*
X171921357Y-115785468D02*
X172064214Y-115833087D01*
X172302310Y-115833087D01*
X172397548Y-115785468D01*
X172445167Y-115737849D01*
X172492786Y-115642611D01*
X172492786Y-115547373D01*
X172445167Y-115452135D01*
X172397548Y-115404516D01*
X172302310Y-115356897D01*
X172111833Y-115309278D01*
X172016595Y-115261659D01*
X171968976Y-115214040D01*
X171921357Y-115118802D01*
X171921357Y-115023564D01*
X171968976Y-114928326D01*
X172016595Y-114880707D01*
X172111833Y-114833087D01*
X172349929Y-114833087D01*
X172492786Y-114880707D01*
X173445167Y-115833087D02*
X172873738Y-115833087D01*
X173159453Y-115833087D02*
X173159453Y-114833087D01*
X173064214Y-114975945D01*
X172968976Y-115071183D01*
X172873738Y-115118802D01*
X173778500Y-114833087D02*
X174397548Y-114833087D01*
X174064214Y-115214040D01*
X174207072Y-115214040D01*
X174302310Y-115261659D01*
X174349929Y-115309278D01*
X174397548Y-115404516D01*
X174397548Y-115642611D01*
X174349929Y-115737849D01*
X174302310Y-115785468D01*
X174207072Y-115833087D01*
X173921357Y-115833087D01*
X173826119Y-115785468D01*
X173778500Y-115737849D01*
G04 #@! TO.C,S14*
X207141357Y-143145468D02*
X207284214Y-143193087D01*
X207522310Y-143193087D01*
X207617548Y-143145468D01*
X207665167Y-143097849D01*
X207712786Y-143002611D01*
X207712786Y-142907373D01*
X207665167Y-142812135D01*
X207617548Y-142764516D01*
X207522310Y-142716897D01*
X207331833Y-142669278D01*
X207236595Y-142621659D01*
X207188976Y-142574040D01*
X207141357Y-142478802D01*
X207141357Y-142383564D01*
X207188976Y-142288326D01*
X207236595Y-142240707D01*
X207331833Y-142193087D01*
X207569929Y-142193087D01*
X207712786Y-142240707D01*
X208665167Y-143193087D02*
X208093738Y-143193087D01*
X208379453Y-143193087D02*
X208379453Y-142193087D01*
X208284214Y-142335945D01*
X208188976Y-142431183D01*
X208093738Y-142478802D01*
X209522310Y-142526421D02*
X209522310Y-143193087D01*
X209284214Y-142145468D02*
X209046119Y-142859754D01*
X209665167Y-142859754D01*
G04 #@! TO.C,S15*
X188361357Y-130405468D02*
X188504214Y-130453087D01*
X188742310Y-130453087D01*
X188837548Y-130405468D01*
X188885167Y-130357849D01*
X188932786Y-130262611D01*
X188932786Y-130167373D01*
X188885167Y-130072135D01*
X188837548Y-130024516D01*
X188742310Y-129976897D01*
X188551833Y-129929278D01*
X188456595Y-129881659D01*
X188408976Y-129834040D01*
X188361357Y-129738802D01*
X188361357Y-129643564D01*
X188408976Y-129548326D01*
X188456595Y-129500707D01*
X188551833Y-129453087D01*
X188789929Y-129453087D01*
X188932786Y-129500707D01*
X189885167Y-130453087D02*
X189313738Y-130453087D01*
X189599453Y-130453087D02*
X189599453Y-129453087D01*
X189504214Y-129595945D01*
X189408976Y-129691183D01*
X189313738Y-129738802D01*
X190789929Y-129453087D02*
X190313738Y-129453087D01*
X190266119Y-129929278D01*
X190313738Y-129881659D01*
X190408976Y-129834040D01*
X190647072Y-129834040D01*
X190742310Y-129881659D01*
X190789929Y-129929278D01*
X190837548Y-130024516D01*
X190837548Y-130262611D01*
X190789929Y-130357849D01*
X190742310Y-130405468D01*
X190647072Y-130453087D01*
X190408976Y-130453087D01*
X190313738Y-130405468D01*
X190266119Y-130357849D01*
G04 #@! TO.C,S16*
X170221357Y-133595468D02*
X170364214Y-133643087D01*
X170602310Y-133643087D01*
X170697548Y-133595468D01*
X170745167Y-133547849D01*
X170792786Y-133452611D01*
X170792786Y-133357373D01*
X170745167Y-133262135D01*
X170697548Y-133214516D01*
X170602310Y-133166897D01*
X170411833Y-133119278D01*
X170316595Y-133071659D01*
X170268976Y-133024040D01*
X170221357Y-132928802D01*
X170221357Y-132833564D01*
X170268976Y-132738326D01*
X170316595Y-132690707D01*
X170411833Y-132643087D01*
X170649929Y-132643087D01*
X170792786Y-132690707D01*
X171745167Y-133643087D02*
X171173738Y-133643087D01*
X171459453Y-133643087D02*
X171459453Y-132643087D01*
X171364214Y-132785945D01*
X171268976Y-132881183D01*
X171173738Y-132928802D01*
X172602310Y-132643087D02*
X172411833Y-132643087D01*
X172316595Y-132690707D01*
X172268976Y-132738326D01*
X172173738Y-132881183D01*
X172126119Y-133071659D01*
X172126119Y-133452611D01*
X172173738Y-133547849D01*
X172221357Y-133595468D01*
X172316595Y-133643087D01*
X172507072Y-133643087D01*
X172602310Y-133595468D01*
X172649929Y-133547849D01*
X172697548Y-133452611D01*
X172697548Y-133214516D01*
X172649929Y-133119278D01*
X172602310Y-133071659D01*
X172507072Y-133024040D01*
X172316595Y-133024040D01*
X172221357Y-133071659D01*
X172173738Y-133119278D01*
X172126119Y-133214516D01*
G04 #@! TO.C,S17*
X171011357Y-152145468D02*
X171154214Y-152193087D01*
X171392310Y-152193087D01*
X171487548Y-152145468D01*
X171535167Y-152097849D01*
X171582786Y-152002611D01*
X171582786Y-151907373D01*
X171535167Y-151812135D01*
X171487548Y-151764516D01*
X171392310Y-151716897D01*
X171201833Y-151669278D01*
X171106595Y-151621659D01*
X171058976Y-151574040D01*
X171011357Y-151478802D01*
X171011357Y-151383564D01*
X171058976Y-151288326D01*
X171106595Y-151240707D01*
X171201833Y-151193087D01*
X171439929Y-151193087D01*
X171582786Y-151240707D01*
X172535167Y-152193087D02*
X171963738Y-152193087D01*
X172249453Y-152193087D02*
X172249453Y-151193087D01*
X172154214Y-151335945D01*
X172058976Y-151431183D01*
X171963738Y-151478802D01*
X172868500Y-151193087D02*
X173535167Y-151193087D01*
X173106595Y-152193087D01*
G04 #@! TO.C,S18*
X189491357Y-149145468D02*
X189634214Y-149193087D01*
X189872310Y-149193087D01*
X189967548Y-149145468D01*
X190015167Y-149097849D01*
X190062786Y-149002611D01*
X190062786Y-148907373D01*
X190015167Y-148812135D01*
X189967548Y-148764516D01*
X189872310Y-148716897D01*
X189681833Y-148669278D01*
X189586595Y-148621659D01*
X189538976Y-148574040D01*
X189491357Y-148478802D01*
X189491357Y-148383564D01*
X189538976Y-148288326D01*
X189586595Y-148240707D01*
X189681833Y-148193087D01*
X189919929Y-148193087D01*
X190062786Y-148240707D01*
X191015167Y-149193087D02*
X190443738Y-149193087D01*
X190729453Y-149193087D02*
X190729453Y-148193087D01*
X190634214Y-148335945D01*
X190538976Y-148431183D01*
X190443738Y-148478802D01*
X191586595Y-148621659D02*
X191491357Y-148574040D01*
X191443738Y-148526421D01*
X191396119Y-148431183D01*
X191396119Y-148383564D01*
X191443738Y-148288326D01*
X191491357Y-148240707D01*
X191586595Y-148193087D01*
X191777072Y-148193087D01*
X191872310Y-148240707D01*
X191919929Y-148288326D01*
X191967548Y-148383564D01*
X191967548Y-148431183D01*
X191919929Y-148526421D01*
X191872310Y-148574040D01*
X191777072Y-148621659D01*
X191586595Y-148621659D01*
X191491357Y-148669278D01*
X191443738Y-148716897D01*
X191396119Y-148812135D01*
X191396119Y-149002611D01*
X191443738Y-149097849D01*
X191491357Y-149145468D01*
X191586595Y-149193087D01*
X191777072Y-149193087D01*
X191872310Y-149145468D01*
X191919929Y-149097849D01*
X191967548Y-149002611D01*
X191967548Y-148812135D01*
X191919929Y-148716897D01*
X191872310Y-148669278D01*
X191777072Y-148621659D01*
G04 #@! TO.C,S19*
X191711357Y-166605468D02*
X191854214Y-166653087D01*
X192092310Y-166653087D01*
X192187548Y-166605468D01*
X192235167Y-166557849D01*
X192282786Y-166462611D01*
X192282786Y-166367373D01*
X192235167Y-166272135D01*
X192187548Y-166224516D01*
X192092310Y-166176897D01*
X191901833Y-166129278D01*
X191806595Y-166081659D01*
X191758976Y-166034040D01*
X191711357Y-165938802D01*
X191711357Y-165843564D01*
X191758976Y-165748326D01*
X191806595Y-165700707D01*
X191901833Y-165653087D01*
X192139929Y-165653087D01*
X192282786Y-165700707D01*
X193235167Y-166653087D02*
X192663738Y-166653087D01*
X192949453Y-166653087D02*
X192949453Y-165653087D01*
X192854214Y-165795945D01*
X192758976Y-165891183D01*
X192663738Y-165938802D01*
X193711357Y-166653087D02*
X193901833Y-166653087D01*
X193997072Y-166605468D01*
X194044691Y-166557849D01*
X194139929Y-166414992D01*
X194187548Y-166224516D01*
X194187548Y-165843564D01*
X194139929Y-165748326D01*
X194092310Y-165700707D01*
X193997072Y-165653087D01*
X193806595Y-165653087D01*
X193711357Y-165700707D01*
X193663738Y-165748326D01*
X193616119Y-165843564D01*
X193616119Y-166081659D01*
X193663738Y-166176897D01*
X193711357Y-166224516D01*
X193806595Y-166272135D01*
X193997072Y-166272135D01*
X194092310Y-166224516D01*
X194139929Y-166176897D01*
X194187548Y-166081659D01*
G04 #@! TO.C,S20*
X174951357Y-170295468D02*
X175094214Y-170343087D01*
X175332310Y-170343087D01*
X175427548Y-170295468D01*
X175475167Y-170247849D01*
X175522786Y-170152611D01*
X175522786Y-170057373D01*
X175475167Y-169962135D01*
X175427548Y-169914516D01*
X175332310Y-169866897D01*
X175141833Y-169819278D01*
X175046595Y-169771659D01*
X174998976Y-169724040D01*
X174951357Y-169628802D01*
X174951357Y-169533564D01*
X174998976Y-169438326D01*
X175046595Y-169390707D01*
X175141833Y-169343087D01*
X175379929Y-169343087D01*
X175522786Y-169390707D01*
X175903738Y-169438326D02*
X175951357Y-169390707D01*
X176046595Y-169343087D01*
X176284691Y-169343087D01*
X176379929Y-169390707D01*
X176427548Y-169438326D01*
X176475167Y-169533564D01*
X176475167Y-169628802D01*
X176427548Y-169771659D01*
X175856119Y-170343087D01*
X176475167Y-170343087D01*
X177094214Y-169343087D02*
X177189453Y-169343087D01*
X177284691Y-169390707D01*
X177332310Y-169438326D01*
X177379929Y-169533564D01*
X177427548Y-169724040D01*
X177427548Y-169962135D01*
X177379929Y-170152611D01*
X177332310Y-170247849D01*
X177284691Y-170295468D01*
X177189453Y-170343087D01*
X177094214Y-170343087D01*
X176998976Y-170295468D01*
X176951357Y-170247849D01*
X176903738Y-170152611D01*
X176856119Y-169962135D01*
X176856119Y-169724040D01*
X176903738Y-169533564D01*
X176951357Y-169438326D01*
X176998976Y-169390707D01*
X177094214Y-169343087D01*
G04 #@! TO.C,S21*
X180821357Y-189285468D02*
X180964214Y-189333087D01*
X181202310Y-189333087D01*
X181297548Y-189285468D01*
X181345167Y-189237849D01*
X181392786Y-189142611D01*
X181392786Y-189047373D01*
X181345167Y-188952135D01*
X181297548Y-188904516D01*
X181202310Y-188856897D01*
X181011833Y-188809278D01*
X180916595Y-188761659D01*
X180868976Y-188714040D01*
X180821357Y-188618802D01*
X180821357Y-188523564D01*
X180868976Y-188428326D01*
X180916595Y-188380707D01*
X181011833Y-188333087D01*
X181249929Y-188333087D01*
X181392786Y-188380707D01*
X181773738Y-188428326D02*
X181821357Y-188380707D01*
X181916595Y-188333087D01*
X182154691Y-188333087D01*
X182249929Y-188380707D01*
X182297548Y-188428326D01*
X182345167Y-188523564D01*
X182345167Y-188618802D01*
X182297548Y-188761659D01*
X181726119Y-189333087D01*
X182345167Y-189333087D01*
X183297548Y-189333087D02*
X182726119Y-189333087D01*
X183011833Y-189333087D02*
X183011833Y-188333087D01*
X182916595Y-188475945D01*
X182821357Y-188571183D01*
X182726119Y-188618802D01*
G04 #@! TO.C,S22*
X183261357Y-208875468D02*
X183404214Y-208923087D01*
X183642310Y-208923087D01*
X183737548Y-208875468D01*
X183785167Y-208827849D01*
X183832786Y-208732611D01*
X183832786Y-208637373D01*
X183785167Y-208542135D01*
X183737548Y-208494516D01*
X183642310Y-208446897D01*
X183451833Y-208399278D01*
X183356595Y-208351659D01*
X183308976Y-208304040D01*
X183261357Y-208208802D01*
X183261357Y-208113564D01*
X183308976Y-208018326D01*
X183356595Y-207970707D01*
X183451833Y-207923087D01*
X183689929Y-207923087D01*
X183832786Y-207970707D01*
X184213738Y-208018326D02*
X184261357Y-207970707D01*
X184356595Y-207923087D01*
X184594691Y-207923087D01*
X184689929Y-207970707D01*
X184737548Y-208018326D01*
X184785167Y-208113564D01*
X184785167Y-208208802D01*
X184737548Y-208351659D01*
X184166119Y-208923087D01*
X184785167Y-208923087D01*
X185166119Y-208018326D02*
X185213738Y-207970707D01*
X185308976Y-207923087D01*
X185547072Y-207923087D01*
X185642310Y-207970707D01*
X185689929Y-208018326D01*
X185737548Y-208113564D01*
X185737548Y-208208802D01*
X185689929Y-208351659D01*
X185118500Y-208923087D01*
X185737548Y-208923087D01*
G04 #@! TO.C,S23*
X185351357Y-226035468D02*
X185494214Y-226083087D01*
X185732310Y-226083087D01*
X185827548Y-226035468D01*
X185875167Y-225987849D01*
X185922786Y-225892611D01*
X185922786Y-225797373D01*
X185875167Y-225702135D01*
X185827548Y-225654516D01*
X185732310Y-225606897D01*
X185541833Y-225559278D01*
X185446595Y-225511659D01*
X185398976Y-225464040D01*
X185351357Y-225368802D01*
X185351357Y-225273564D01*
X185398976Y-225178326D01*
X185446595Y-225130707D01*
X185541833Y-225083087D01*
X185779929Y-225083087D01*
X185922786Y-225130707D01*
X186303738Y-225178326D02*
X186351357Y-225130707D01*
X186446595Y-225083087D01*
X186684691Y-225083087D01*
X186779929Y-225130707D01*
X186827548Y-225178326D01*
X186875167Y-225273564D01*
X186875167Y-225368802D01*
X186827548Y-225511659D01*
X186256119Y-226083087D01*
X186875167Y-226083087D01*
X187208500Y-225083087D02*
X187827548Y-225083087D01*
X187494214Y-225464040D01*
X187637072Y-225464040D01*
X187732310Y-225511659D01*
X187779929Y-225559278D01*
X187827548Y-225654516D01*
X187827548Y-225892611D01*
X187779929Y-225987849D01*
X187732310Y-226035468D01*
X187637072Y-226083087D01*
X187351357Y-226083087D01*
X187256119Y-226035468D01*
X187208500Y-225987849D01*
G04 #@! TO.C,S24*
X219091357Y-242915468D02*
X219234214Y-242963087D01*
X219472310Y-242963087D01*
X219567548Y-242915468D01*
X219615167Y-242867849D01*
X219662786Y-242772611D01*
X219662786Y-242677373D01*
X219615167Y-242582135D01*
X219567548Y-242534516D01*
X219472310Y-242486897D01*
X219281833Y-242439278D01*
X219186595Y-242391659D01*
X219138976Y-242344040D01*
X219091357Y-242248802D01*
X219091357Y-242153564D01*
X219138976Y-242058326D01*
X219186595Y-242010707D01*
X219281833Y-241963087D01*
X219519929Y-241963087D01*
X219662786Y-242010707D01*
X220043738Y-242058326D02*
X220091357Y-242010707D01*
X220186595Y-241963087D01*
X220424691Y-241963087D01*
X220519929Y-242010707D01*
X220567548Y-242058326D01*
X220615167Y-242153564D01*
X220615167Y-242248802D01*
X220567548Y-242391659D01*
X219996119Y-242963087D01*
X220615167Y-242963087D01*
X221472310Y-242296421D02*
X221472310Y-242963087D01*
X221234214Y-241915468D02*
X220996119Y-242629754D01*
X221615167Y-242629754D01*
G04 #@! TO.C,S25*
X220811357Y-261515468D02*
X220954214Y-261563087D01*
X221192310Y-261563087D01*
X221287548Y-261515468D01*
X221335167Y-261467849D01*
X221382786Y-261372611D01*
X221382786Y-261277373D01*
X221335167Y-261182135D01*
X221287548Y-261134516D01*
X221192310Y-261086897D01*
X221001833Y-261039278D01*
X220906595Y-260991659D01*
X220858976Y-260944040D01*
X220811357Y-260848802D01*
X220811357Y-260753564D01*
X220858976Y-260658326D01*
X220906595Y-260610707D01*
X221001833Y-260563087D01*
X221239929Y-260563087D01*
X221382786Y-260610707D01*
X221763738Y-260658326D02*
X221811357Y-260610707D01*
X221906595Y-260563087D01*
X222144691Y-260563087D01*
X222239929Y-260610707D01*
X222287548Y-260658326D01*
X222335167Y-260753564D01*
X222335167Y-260848802D01*
X222287548Y-260991659D01*
X221716119Y-261563087D01*
X222335167Y-261563087D01*
X223239929Y-260563087D02*
X222763738Y-260563087D01*
X222716119Y-261039278D01*
X222763738Y-260991659D01*
X222858976Y-260944040D01*
X223097072Y-260944040D01*
X223192310Y-260991659D01*
X223239929Y-261039278D01*
X223287548Y-261134516D01*
X223287548Y-261372611D01*
X223239929Y-261467849D01*
X223192310Y-261515468D01*
X223097072Y-261563087D01*
X222858976Y-261563087D01*
X222763738Y-261515468D01*
X222716119Y-261467849D01*
G04 #@! TO.C,S26*
X209991357Y-276335468D02*
X210134214Y-276383087D01*
X210372310Y-276383087D01*
X210467548Y-276335468D01*
X210515167Y-276287849D01*
X210562786Y-276192611D01*
X210562786Y-276097373D01*
X210515167Y-276002135D01*
X210467548Y-275954516D01*
X210372310Y-275906897D01*
X210181833Y-275859278D01*
X210086595Y-275811659D01*
X210038976Y-275764040D01*
X209991357Y-275668802D01*
X209991357Y-275573564D01*
X210038976Y-275478326D01*
X210086595Y-275430707D01*
X210181833Y-275383087D01*
X210419929Y-275383087D01*
X210562786Y-275430707D01*
X210943738Y-275478326D02*
X210991357Y-275430707D01*
X211086595Y-275383087D01*
X211324691Y-275383087D01*
X211419929Y-275430707D01*
X211467548Y-275478326D01*
X211515167Y-275573564D01*
X211515167Y-275668802D01*
X211467548Y-275811659D01*
X210896119Y-276383087D01*
X211515167Y-276383087D01*
X212372310Y-275383087D02*
X212181833Y-275383087D01*
X212086595Y-275430707D01*
X212038976Y-275478326D01*
X211943738Y-275621183D01*
X211896119Y-275811659D01*
X211896119Y-276192611D01*
X211943738Y-276287849D01*
X211991357Y-276335468D01*
X212086595Y-276383087D01*
X212277072Y-276383087D01*
X212372310Y-276335468D01*
X212419929Y-276287849D01*
X212467548Y-276192611D01*
X212467548Y-275954516D01*
X212419929Y-275859278D01*
X212372310Y-275811659D01*
X212277072Y-275764040D01*
X212086595Y-275764040D01*
X211991357Y-275811659D01*
X211943738Y-275859278D01*
X211896119Y-275954516D01*
G04 #@! TO.C,S27*
X197471357Y-276545468D02*
X197614214Y-276593087D01*
X197852310Y-276593087D01*
X197947548Y-276545468D01*
X197995167Y-276497849D01*
X198042786Y-276402611D01*
X198042786Y-276307373D01*
X197995167Y-276212135D01*
X197947548Y-276164516D01*
X197852310Y-276116897D01*
X197661833Y-276069278D01*
X197566595Y-276021659D01*
X197518976Y-275974040D01*
X197471357Y-275878802D01*
X197471357Y-275783564D01*
X197518976Y-275688326D01*
X197566595Y-275640707D01*
X197661833Y-275593087D01*
X197899929Y-275593087D01*
X198042786Y-275640707D01*
X198423738Y-275688326D02*
X198471357Y-275640707D01*
X198566595Y-275593087D01*
X198804691Y-275593087D01*
X198899929Y-275640707D01*
X198947548Y-275688326D01*
X198995167Y-275783564D01*
X198995167Y-275878802D01*
X198947548Y-276021659D01*
X198376119Y-276593087D01*
X198995167Y-276593087D01*
X199328500Y-275593087D02*
X199995167Y-275593087D01*
X199566595Y-276593087D01*
G04 #@! TO.C,S28*
X184521357Y-262245468D02*
X184664214Y-262293087D01*
X184902310Y-262293087D01*
X184997548Y-262245468D01*
X185045167Y-262197849D01*
X185092786Y-262102611D01*
X185092786Y-262007373D01*
X185045167Y-261912135D01*
X184997548Y-261864516D01*
X184902310Y-261816897D01*
X184711833Y-261769278D01*
X184616595Y-261721659D01*
X184568976Y-261674040D01*
X184521357Y-261578802D01*
X184521357Y-261483564D01*
X184568976Y-261388326D01*
X184616595Y-261340707D01*
X184711833Y-261293087D01*
X184949929Y-261293087D01*
X185092786Y-261340707D01*
X185473738Y-261388326D02*
X185521357Y-261340707D01*
X185616595Y-261293087D01*
X185854691Y-261293087D01*
X185949929Y-261340707D01*
X185997548Y-261388326D01*
X186045167Y-261483564D01*
X186045167Y-261578802D01*
X185997548Y-261721659D01*
X185426119Y-262293087D01*
X186045167Y-262293087D01*
X186616595Y-261721659D02*
X186521357Y-261674040D01*
X186473738Y-261626421D01*
X186426119Y-261531183D01*
X186426119Y-261483564D01*
X186473738Y-261388326D01*
X186521357Y-261340707D01*
X186616595Y-261293087D01*
X186807072Y-261293087D01*
X186902310Y-261340707D01*
X186949929Y-261388326D01*
X186997548Y-261483564D01*
X186997548Y-261531183D01*
X186949929Y-261626421D01*
X186902310Y-261674040D01*
X186807072Y-261721659D01*
X186616595Y-261721659D01*
X186521357Y-261769278D01*
X186473738Y-261816897D01*
X186426119Y-261912135D01*
X186426119Y-262102611D01*
X186473738Y-262197849D01*
X186521357Y-262245468D01*
X186616595Y-262293087D01*
X186807072Y-262293087D01*
X186902310Y-262245468D01*
X186949929Y-262197849D01*
X186997548Y-262102611D01*
X186997548Y-261912135D01*
X186949929Y-261816897D01*
X186902310Y-261769278D01*
X186807072Y-261721659D01*
G04 #@! TO.C,S29*
X202431357Y-258815468D02*
X202574214Y-258863087D01*
X202812310Y-258863087D01*
X202907548Y-258815468D01*
X202955167Y-258767849D01*
X203002786Y-258672611D01*
X203002786Y-258577373D01*
X202955167Y-258482135D01*
X202907548Y-258434516D01*
X202812310Y-258386897D01*
X202621833Y-258339278D01*
X202526595Y-258291659D01*
X202478976Y-258244040D01*
X202431357Y-258148802D01*
X202431357Y-258053564D01*
X202478976Y-257958326D01*
X202526595Y-257910707D01*
X202621833Y-257863087D01*
X202859929Y-257863087D01*
X203002786Y-257910707D01*
X203383738Y-257958326D02*
X203431357Y-257910707D01*
X203526595Y-257863087D01*
X203764691Y-257863087D01*
X203859929Y-257910707D01*
X203907548Y-257958326D01*
X203955167Y-258053564D01*
X203955167Y-258148802D01*
X203907548Y-258291659D01*
X203336119Y-258863087D01*
X203955167Y-258863087D01*
X204431357Y-258863087D02*
X204621833Y-258863087D01*
X204717072Y-258815468D01*
X204764691Y-258767849D01*
X204859929Y-258624992D01*
X204907548Y-258434516D01*
X204907548Y-258053564D01*
X204859929Y-257958326D01*
X204812310Y-257910707D01*
X204717072Y-257863087D01*
X204526595Y-257863087D01*
X204431357Y-257910707D01*
X204383738Y-257958326D01*
X204336119Y-258053564D01*
X204336119Y-258291659D01*
X204383738Y-258386897D01*
X204431357Y-258434516D01*
X204526595Y-258482135D01*
X204717072Y-258482135D01*
X204812310Y-258434516D01*
X204859929Y-258386897D01*
X204907548Y-258291659D01*
G04 #@! TO.C,S30*
X185331357Y-243455468D02*
X185474214Y-243503087D01*
X185712310Y-243503087D01*
X185807548Y-243455468D01*
X185855167Y-243407849D01*
X185902786Y-243312611D01*
X185902786Y-243217373D01*
X185855167Y-243122135D01*
X185807548Y-243074516D01*
X185712310Y-243026897D01*
X185521833Y-242979278D01*
X185426595Y-242931659D01*
X185378976Y-242884040D01*
X185331357Y-242788802D01*
X185331357Y-242693564D01*
X185378976Y-242598326D01*
X185426595Y-242550707D01*
X185521833Y-242503087D01*
X185759929Y-242503087D01*
X185902786Y-242550707D01*
X186236119Y-242503087D02*
X186855167Y-242503087D01*
X186521833Y-242884040D01*
X186664691Y-242884040D01*
X186759929Y-242931659D01*
X186807548Y-242979278D01*
X186855167Y-243074516D01*
X186855167Y-243312611D01*
X186807548Y-243407849D01*
X186759929Y-243455468D01*
X186664691Y-243503087D01*
X186378976Y-243503087D01*
X186283738Y-243455468D01*
X186236119Y-243407849D01*
X187474214Y-242503087D02*
X187569453Y-242503087D01*
X187664691Y-242550707D01*
X187712310Y-242598326D01*
X187759929Y-242693564D01*
X187807548Y-242884040D01*
X187807548Y-243122135D01*
X187759929Y-243312611D01*
X187712310Y-243407849D01*
X187664691Y-243455468D01*
X187569453Y-243503087D01*
X187474214Y-243503087D01*
X187378976Y-243455468D01*
X187331357Y-243407849D01*
X187283738Y-243312611D01*
X187236119Y-243122135D01*
X187236119Y-242884040D01*
X187283738Y-242693564D01*
X187331357Y-242598326D01*
X187378976Y-242550707D01*
X187474214Y-242503087D01*
G04 #@! TO.C,S31*
X202161357Y-238685468D02*
X202304214Y-238733087D01*
X202542310Y-238733087D01*
X202637548Y-238685468D01*
X202685167Y-238637849D01*
X202732786Y-238542611D01*
X202732786Y-238447373D01*
X202685167Y-238352135D01*
X202637548Y-238304516D01*
X202542310Y-238256897D01*
X202351833Y-238209278D01*
X202256595Y-238161659D01*
X202208976Y-238114040D01*
X202161357Y-238018802D01*
X202161357Y-237923564D01*
X202208976Y-237828326D01*
X202256595Y-237780707D01*
X202351833Y-237733087D01*
X202589929Y-237733087D01*
X202732786Y-237780707D01*
X203066119Y-237733087D02*
X203685167Y-237733087D01*
X203351833Y-238114040D01*
X203494691Y-238114040D01*
X203589929Y-238161659D01*
X203637548Y-238209278D01*
X203685167Y-238304516D01*
X203685167Y-238542611D01*
X203637548Y-238637849D01*
X203589929Y-238685468D01*
X203494691Y-238733087D01*
X203208976Y-238733087D01*
X203113738Y-238685468D01*
X203066119Y-238637849D01*
X204637548Y-238733087D02*
X204066119Y-238733087D01*
X204351833Y-238733087D02*
X204351833Y-237733087D01*
X204256595Y-237875945D01*
X204161357Y-237971183D01*
X204066119Y-238018802D01*
G04 #@! TD*
M02*
