G04 #@! TF.GenerationSoftware,KiCad,Pcbnew,(5.0.0)*
G04 #@! TF.CreationDate,2020-01-12T10:50:59+01:00*
G04 #@! TF.ProjectId,Insole_PCB,496E736F6C655F5043422E6B69636164,rev?*
G04 #@! TF.SameCoordinates,Original*
G04 #@! TF.FileFunction,Profile,NP*
%FSLAX46Y46*%
G04 Gerber Fmt 4.6, Leading zero omitted, Abs format (unit mm)*
G04 Created by KiCad (PCBNEW (5.0.0)) date 01/12/20 10:50:59*
%MOMM*%
%LPD*%
G01*
G04 APERTURE LIST*
%ADD10C,0.100000*%
G04 APERTURE END LIST*
D10*
X179768983Y-251130985D02*
X181832954Y-255869597D01*
X179320399Y-235807145D02*
X178427297Y-240942490D01*
X192572477Y-266775660D02*
X197383493Y-268783520D01*
X232328467Y-232202871D02*
X232169196Y-228764548D01*
X197383493Y-268783520D02*
X202456920Y-269960870D01*
X232614392Y-235647912D02*
X232328467Y-232202871D01*
X184711799Y-260161430D02*
X188320110Y-263849200D01*
X234730476Y-196841731D02*
X235409048Y-191157554D01*
X234094129Y-202530787D02*
X234730476Y-196841731D01*
X233514951Y-208225146D02*
X234094129Y-202530787D01*
X232587860Y-219631484D02*
X233007880Y-213925237D01*
X232169196Y-228764548D02*
X232269831Y-225344314D01*
X212695726Y-269183590D02*
X217537572Y-267383470D01*
X181832954Y-255869597D02*
X184711799Y-260161430D01*
X178605294Y-246102859D02*
X179768983Y-251130985D01*
X217537572Y-267383470D02*
X221978692Y-264745400D01*
X232359605Y-249267879D02*
X232899577Y-245909656D01*
X202456920Y-269960870D02*
X207614920Y-270068470D01*
X221978692Y-264745400D02*
X225857319Y-261346620D01*
X231280030Y-252575975D02*
X232359605Y-249267879D01*
X229011687Y-257264388D02*
X231280030Y-252575975D01*
X178427297Y-240942490D02*
X178605294Y-246102859D01*
X232269831Y-225344314D02*
X232587860Y-219631484D01*
X233033198Y-242512674D02*
X232893719Y-239088303D01*
X225857319Y-261346620D02*
X229011687Y-257264388D01*
X188320110Y-263849200D02*
X192572477Y-266775660D01*
X232899577Y-245909656D02*
X233033198Y-242512674D01*
X236114906Y-185477829D02*
X236833107Y-179802130D01*
X235409048Y-191157554D02*
X236114906Y-185477829D01*
X233007880Y-213925237D02*
X233514951Y-208225146D01*
X232893719Y-239088303D02*
X232614392Y-235647912D01*
X207614920Y-270068470D02*
X212695726Y-269183590D01*
X184814202Y-175069970D02*
X185240376Y-181590448D01*
X180932466Y-228873795D02*
X180170463Y-232350100D01*
X181613248Y-225380755D02*
X180932466Y-228873795D01*
X183878090Y-168630622D02*
X184814202Y-175069970D01*
X180170463Y-232350100D02*
X179320399Y-235807145D01*
X182758476Y-218354699D02*
X182219640Y-221873538D01*
X183236587Y-214826795D02*
X182758476Y-218354699D01*
X182322428Y-162308887D02*
X183878090Y-168630622D01*
X183660805Y-211292380D02*
X183236587Y-214826795D01*
X180037601Y-156141246D02*
X182322428Y-162308887D01*
X182219640Y-221873538D02*
X181613248Y-225380755D01*
X185240376Y-181590448D02*
X185266226Y-188155573D01*
X185266226Y-188155573D02*
X185001365Y-194728864D01*
X247248445Y-108177301D02*
X247075645Y-104611449D01*
X238392907Y-171267641D02*
X239497422Y-167081587D01*
X169081668Y-59633999D02*
X168052201Y-62573547D01*
X247577772Y-122536934D02*
X247471399Y-117742180D01*
X183722990Y-48557620D02*
X179449738Y-49296010D01*
X240230613Y-84644027D02*
X238135964Y-81746060D01*
X201169319Y-49165260D02*
X196868560Y-48395250D01*
X243369665Y-154662816D02*
X244641158Y-150518196D01*
X239497422Y-167081587D02*
X240736150Y-162929064D01*
X245800280Y-146345314D02*
X246651885Y-141629733D01*
X244641158Y-150518196D02*
X245800280Y-146345314D01*
X237484254Y-175502672D02*
X238392907Y-171267641D01*
X170396916Y-56845450D02*
X169081668Y-59633999D01*
X165096300Y-80664022D02*
X164616415Y-86784988D01*
X205334680Y-50417290D02*
X201169319Y-49165260D01*
X209307731Y-52193300D02*
X205334680Y-50417290D01*
X247498018Y-132115002D02*
X247605462Y-127330279D01*
X216615788Y-57481440D02*
X213031562Y-54535260D01*
X232402379Y-74456471D02*
X229455547Y-70860049D01*
X246651885Y-141629733D02*
X247198979Y-136883891D01*
X244888604Y-94198383D02*
X243608458Y-90890759D01*
X164070857Y-111352276D02*
X164138287Y-117486680D01*
X235288439Y-78094921D02*
X232402379Y-74456471D01*
X213031562Y-54535260D02*
X209307731Y-52193300D01*
X247198979Y-136883891D02*
X247498018Y-132115002D01*
X247075645Y-104611449D02*
X246623722Y-101079298D01*
X166663808Y-68486698D02*
X165769453Y-74562707D01*
X247342805Y-112953232D02*
X247248445Y-108177301D01*
X236833107Y-179802130D02*
X237484254Y-175502672D01*
X226425708Y-67334996D02*
X223290626Y-63910651D01*
X246623722Y-101079298D02*
X245894200Y-97601420D01*
X177751663Y-151429393D02*
X180037601Y-156141246D01*
X166107440Y-127834836D02*
X167966915Y-132718072D01*
X240736150Y-162929064D02*
X242047447Y-158794623D01*
X164781433Y-122773668D02*
X166107440Y-127834836D01*
X242047447Y-158794623D02*
X243369665Y-154662816D01*
X172044646Y-54312640D02*
X170396916Y-56845450D01*
X188088485Y-48133390D02*
X183722990Y-48557620D01*
X176524356Y-50433180D02*
X174071559Y-52140310D01*
X247605462Y-127330279D02*
X247577772Y-122536934D01*
X220028064Y-60616353D02*
X216615788Y-57481440D01*
X247471399Y-117742180D02*
X247342805Y-112953232D01*
X175252233Y-146779035D02*
X177751663Y-151429393D01*
X172688704Y-142142286D02*
X175252233Y-146779035D01*
X170210467Y-137471260D02*
X172688704Y-142142286D01*
X167966915Y-132718072D02*
X170210467Y-137471260D01*
X196868560Y-48395250D02*
X192489312Y-48065290D01*
X168052201Y-62573547D02*
X167261815Y-65559359D01*
X223290626Y-63910651D02*
X220028064Y-60616353D01*
X174071559Y-52140310D02*
X172044646Y-54312640D01*
X243608458Y-90890759D02*
X242055286Y-87699116D01*
X164138287Y-117486680D02*
X164781433Y-122773668D01*
X164057017Y-105209250D02*
X164070857Y-111352276D01*
X164124707Y-99063257D02*
X164057017Y-105209250D01*
X167261815Y-65559359D02*
X166663808Y-68486698D01*
X245894200Y-97601420D02*
X244888604Y-94198383D01*
X179449738Y-49296010D02*
X176524356Y-50433180D01*
X192489312Y-48065290D02*
X188088485Y-48133390D01*
X229455547Y-70860049D02*
X226425708Y-67334996D01*
X242055286Y-87699116D02*
X240230613Y-84644027D01*
X164301862Y-92919951D02*
X164124707Y-99063257D01*
X164616415Y-86784988D02*
X164301862Y-92919951D01*
X238135964Y-81746060D02*
X235288439Y-78094921D01*
X165769453Y-74562707D02*
X165096300Y-80664022D01*
X184163453Y-208690707D02*
X183659453Y-211300707D01*
X189903453Y-207520707D02*
X190153453Y-200390707D01*
X189903452Y-207519361D02*
G75*
G02X189457259Y-207880707I-401061J39080D01*
G01*
X184713453Y-207710707D02*
X189463453Y-207880707D01*
X189873269Y-200092814D02*
G75*
G02X190153453Y-200380707I-26761J-306331D01*
G01*
X184362954Y-208006623D02*
G75*
G02X184713453Y-207710707I320499J-24084D01*
G01*
X185009369Y-199920706D02*
G75*
G02X184713453Y-199570207I24084J320499D01*
G01*
X184363453Y-208010707D02*
X184163453Y-208690707D01*
X185013453Y-199920707D02*
X189873453Y-200090707D01*
X184999453Y-194730707D02*
X184713453Y-199560707D01*
M02*
