G04 #@! TF.FileFunction,Soldermask,Top*
%FSLAX46Y46*%
G04 Gerber Fmt 4.6, Leading zero omitted, Abs format (unit mm)*
G04 Created by KiCad (PCBNEW 4.0.6) date 04/28/18 22:34:54*
%MOMM*%
%LPD*%
G01*
G04 APERTURE LIST*
%ADD10C,0.100000*%
%ADD11R,1.500000X5.300000*%
%ADD12R,15.300000X1.400000*%
%ADD13R,1.400000X25.350000*%
%ADD14R,14.800000X1.400000*%
%ADD15R,1.400000X24.050000*%
%ADD16R,1.400000X15.300000*%
%ADD17R,25.350000X1.400000*%
%ADD18R,1.400000X14.800000*%
%ADD19R,24.050000X1.400000*%
%ADD20C,6.800000*%
G04 APERTURE END LIST*
D10*
G36*
X30770600Y-60924529D02*
X41295158Y-64755155D01*
X40252514Y-65865513D01*
X30855588Y-62445311D01*
X30770600Y-60924529D01*
X30770600Y-60924529D01*
G37*
G36*
X30651755Y-58327247D02*
X43995391Y-63183933D01*
X42952747Y-64294291D01*
X30736743Y-59848029D01*
X30651755Y-58327247D01*
X30651755Y-58327247D01*
G37*
G36*
X30485927Y-55712863D02*
X44863224Y-60945771D01*
X44384395Y-62261341D01*
X30007098Y-57028433D01*
X30485927Y-55712863D01*
X30485927Y-55712863D01*
G37*
G36*
X51819016Y-41981081D02*
X37394734Y-36731072D01*
X38437378Y-35620715D01*
X51734028Y-40460300D01*
X51819016Y-41981081D01*
X51819016Y-41981081D01*
G37*
G36*
X33769321Y-46691814D02*
X48146618Y-51924722D01*
X47667789Y-53240292D01*
X33290492Y-48007384D01*
X33769321Y-46691814D01*
X33769321Y-46691814D01*
G37*
G36*
X32948472Y-48947077D02*
X47325769Y-54179985D01*
X46846940Y-55495555D01*
X32469643Y-50262647D01*
X32948472Y-48947077D01*
X32948472Y-48947077D01*
G37*
G36*
X31306776Y-53457601D02*
X45684073Y-58690509D01*
X45205244Y-60006079D01*
X30827947Y-54773171D01*
X31306776Y-53457601D01*
X31306776Y-53457601D01*
G37*
G36*
X32127624Y-51202339D02*
X46504921Y-56435247D01*
X46026092Y-57750817D01*
X31648795Y-52517909D01*
X32127624Y-51202339D01*
X32127624Y-51202339D01*
G37*
G36*
X35411017Y-42181290D02*
X49788314Y-47414198D01*
X49309485Y-48729768D01*
X34932188Y-43496860D01*
X35411017Y-42181290D01*
X35411017Y-42181290D01*
G37*
G36*
X34590169Y-44436552D02*
X48967466Y-49669460D01*
X48488637Y-50985030D01*
X34111340Y-45752122D01*
X34590169Y-44436552D01*
X34590169Y-44436552D01*
G37*
G36*
X36231866Y-39926027D02*
X50609163Y-45158935D01*
X50130334Y-46474505D01*
X35753037Y-41241597D01*
X36231866Y-39926027D01*
X36231866Y-39926027D01*
G37*
G36*
X37052714Y-37670765D02*
X51430011Y-42903673D01*
X50951182Y-44219243D01*
X36573885Y-38986335D01*
X37052714Y-37670765D01*
X37052714Y-37670765D01*
G37*
G36*
X44005794Y-63931941D02*
X40018040Y-65791462D01*
X39426374Y-64522631D01*
X43414128Y-62663110D01*
X44005794Y-63931941D01*
X44005794Y-63931941D01*
G37*
G36*
X43713139Y-64251797D02*
X42397569Y-63772969D01*
X51067779Y-39951761D01*
X52383349Y-40430589D01*
X43713139Y-64251797D01*
X43713139Y-64251797D01*
G37*
G36*
X51133599Y-41454945D02*
X49599918Y-38165954D01*
X50868749Y-37574289D01*
X52402430Y-40863280D01*
X51133599Y-41454945D01*
X51133599Y-41454945D01*
G37*
G36*
X51183340Y-39195689D02*
X40094967Y-35159851D01*
X41137611Y-34049493D01*
X51098353Y-37674907D01*
X51183340Y-39195689D01*
X51183340Y-39195689D01*
G37*
G36*
X29370733Y-56583979D02*
X43278183Y-61645877D01*
X42799355Y-62961447D01*
X28891905Y-57899549D01*
X29370733Y-56583979D01*
X29370733Y-56583979D01*
G37*
G36*
X31410417Y-49664283D02*
X45787714Y-54897191D01*
X45308885Y-56212761D01*
X30931588Y-50979853D01*
X31410417Y-49664283D01*
X31410417Y-49664283D01*
G37*
G36*
X30589569Y-51919546D02*
X44966866Y-57152454D01*
X44488037Y-58468024D01*
X30110740Y-53235116D01*
X30589569Y-51919546D01*
X30589569Y-51919546D01*
G37*
G36*
X29768720Y-54174808D02*
X44146017Y-59407716D01*
X43667188Y-60723286D01*
X29289891Y-55490378D01*
X29768720Y-54174808D01*
X29768720Y-54174808D01*
G37*
G36*
X32231265Y-47409021D02*
X46608562Y-52641929D01*
X46129733Y-53957499D01*
X31752436Y-48724591D01*
X32231265Y-47409021D01*
X32231265Y-47409021D01*
G37*
G36*
X33052114Y-45153759D02*
X47429411Y-50386667D01*
X46950582Y-51702237D01*
X32573285Y-46469329D01*
X33052114Y-45153759D01*
X33052114Y-45153759D01*
G37*
G36*
X33872962Y-42898497D02*
X48250259Y-48131405D01*
X47771430Y-49446975D01*
X33394133Y-44214067D01*
X33872962Y-42898497D01*
X33872962Y-42898497D01*
G37*
G36*
X34693810Y-40643234D02*
X49071107Y-45876142D01*
X48592278Y-47191712D01*
X34214981Y-41958804D01*
X34693810Y-40643234D01*
X34693810Y-40643234D01*
G37*
G36*
X35514659Y-38387972D02*
X49891956Y-43620880D01*
X49413127Y-44936450D01*
X35035830Y-39703542D01*
X35514659Y-38387972D01*
X35514659Y-38387972D01*
G37*
G36*
X50186991Y-42664087D02*
X36279541Y-37602189D01*
X36758369Y-36286619D01*
X50665819Y-41348517D01*
X50186991Y-42664087D01*
X50186991Y-42664087D01*
G37*
G36*
X50537992Y-40237815D02*
X37946111Y-35654745D01*
X38988755Y-34544387D01*
X50453005Y-38717033D01*
X50537992Y-40237815D01*
X50537992Y-40237815D01*
G37*
G36*
X29982916Y-59360823D02*
X41400182Y-63516368D01*
X40357538Y-64626725D01*
X30067904Y-60881605D01*
X29982916Y-59360823D01*
X29982916Y-59360823D01*
G37*
G36*
X29770599Y-56538074D02*
X31545596Y-60344567D01*
X30276765Y-60936232D01*
X28501768Y-57129739D01*
X29770599Y-56538074D01*
X29770599Y-56538074D01*
G37*
G36*
X36739539Y-34949543D02*
X38055109Y-35428371D01*
X29829525Y-58027979D01*
X28513955Y-57549151D01*
X36739539Y-34949543D01*
X36739539Y-34949543D01*
G37*
G36*
X50494324Y-37667894D02*
X40251674Y-33939874D01*
X41294318Y-32829516D01*
X50409336Y-36147112D01*
X50494324Y-37667894D01*
X50494324Y-37667894D01*
G37*
G36*
X36440508Y-35272373D02*
X41697093Y-32821187D01*
X42288758Y-34090017D01*
X37032173Y-36541203D01*
X36440508Y-35272373D01*
X36440508Y-35272373D01*
G37*
D11*
X52100000Y-209500000D03*
X64100000Y-209500000D03*
X63100000Y-209500000D03*
X62100000Y-209500000D03*
X61100000Y-209500000D03*
X60100000Y-209500000D03*
X59100000Y-209500000D03*
X58100000Y-209500000D03*
X57100000Y-209500000D03*
X56100000Y-209500000D03*
X55100000Y-209500000D03*
X54100000Y-209500000D03*
X53100000Y-209500000D03*
D10*
G36*
X59457302Y-39484033D02*
X54723977Y-49634680D01*
X53708717Y-48499230D01*
X57934900Y-39436152D01*
X59457302Y-39484033D01*
X59457302Y-39484033D01*
G37*
G36*
X62055058Y-39592009D02*
X56053879Y-52461580D01*
X55038619Y-51326130D01*
X60532656Y-39544129D01*
X62055058Y-39592009D01*
X62055058Y-39592009D01*
G37*
G36*
X64673946Y-39654670D02*
X58207887Y-53521179D01*
X56939056Y-52929514D01*
X63405115Y-39063005D01*
X64673946Y-39654670D01*
X64673946Y-39654670D01*
G37*
G36*
X76494173Y-62103383D02*
X82981364Y-48191559D01*
X83996624Y-49327009D01*
X78016575Y-62151264D01*
X76494173Y-62103383D01*
X76494173Y-62103383D01*
G37*
G36*
X73374501Y-43711805D02*
X66908442Y-57578314D01*
X65639611Y-56986649D01*
X72105670Y-43120140D01*
X73374501Y-43711805D01*
X73374501Y-43711805D01*
G37*
G36*
X71199362Y-42697521D02*
X64733303Y-56564030D01*
X63464472Y-55972365D01*
X69930531Y-42105856D01*
X71199362Y-42697521D01*
X71199362Y-42697521D01*
G37*
G36*
X66849085Y-40668953D02*
X60383026Y-54535462D01*
X59114195Y-53943797D01*
X65580254Y-40077288D01*
X66849085Y-40668953D01*
X66849085Y-40668953D01*
G37*
G36*
X69024224Y-41683237D02*
X62558165Y-55549746D01*
X61289334Y-54958081D01*
X67755393Y-41091572D01*
X69024224Y-41683237D01*
X69024224Y-41683237D01*
G37*
G36*
X77724778Y-45740373D02*
X71258719Y-59606882D01*
X69989888Y-59015217D01*
X76455947Y-45148708D01*
X77724778Y-45740373D01*
X77724778Y-45740373D01*
G37*
G36*
X75549640Y-44726089D02*
X69083581Y-58592598D01*
X67814750Y-58000933D01*
X74280809Y-44134424D01*
X75549640Y-44726089D01*
X75549640Y-44726089D01*
G37*
G36*
X79899917Y-46754656D02*
X73433858Y-60621165D01*
X72165027Y-60029500D01*
X78631086Y-46162991D01*
X79899917Y-46754656D01*
X79899917Y-46754656D01*
G37*
G36*
X82075056Y-47768940D02*
X75608997Y-61635449D01*
X74340166Y-61043784D01*
X80806225Y-47177275D01*
X82075056Y-47768940D01*
X82075056Y-47768940D01*
G37*
G36*
X55307810Y-52406750D02*
X53802922Y-48272102D01*
X55118492Y-47793274D01*
X56623380Y-51927922D01*
X55307810Y-52406750D01*
X55307810Y-52406750D01*
G37*
G36*
X55014679Y-52087330D02*
X55606345Y-50818499D01*
X78581247Y-61531872D01*
X77989581Y-62800703D01*
X55014679Y-52087330D01*
X55014679Y-52087330D01*
G37*
G36*
X77078046Y-61466431D02*
X80488190Y-60225240D01*
X80967018Y-61540809D01*
X77556874Y-62782000D01*
X77078046Y-61466431D01*
X77078046Y-61466431D01*
G37*
G36*
X79324371Y-61712890D02*
X84311266Y-51018458D01*
X85326526Y-52153909D01*
X80846773Y-61760771D01*
X79324371Y-61712890D01*
X79324371Y-61712890D01*
G37*
G36*
X63903341Y-38467797D02*
X57648590Y-51881152D01*
X56379759Y-51289487D01*
X62634510Y-37876132D01*
X63903341Y-38467797D01*
X63903341Y-38467797D01*
G37*
G36*
X70618935Y-41102810D02*
X64152876Y-54969319D01*
X62884045Y-54377654D01*
X69350104Y-40511145D01*
X70618935Y-41102810D01*
X70618935Y-41102810D01*
G37*
G36*
X68443796Y-40088526D02*
X61977737Y-53955035D01*
X60708906Y-53363370D01*
X67174965Y-39496861D01*
X68443796Y-40088526D01*
X68443796Y-40088526D01*
G37*
G36*
X66268658Y-39074242D02*
X59802599Y-52940751D01*
X58533768Y-52349086D01*
X64999827Y-38482577D01*
X66268658Y-39074242D01*
X66268658Y-39074242D01*
G37*
G36*
X72794074Y-42117094D02*
X66328015Y-55983603D01*
X65059184Y-55391938D01*
X71525243Y-41525429D01*
X72794074Y-42117094D01*
X72794074Y-42117094D01*
G37*
G36*
X74969212Y-43131377D02*
X68503153Y-56997886D01*
X67234322Y-56406221D01*
X73700381Y-42539712D01*
X74969212Y-43131377D01*
X74969212Y-43131377D01*
G37*
G36*
X77144351Y-44145661D02*
X70678292Y-58012170D01*
X69409461Y-57420505D01*
X75875520Y-43553996D01*
X77144351Y-44145661D01*
X77144351Y-44145661D01*
G37*
G36*
X79319490Y-45159945D02*
X72853431Y-59026454D01*
X71584600Y-58434789D01*
X78050659Y-44568280D01*
X79319490Y-45159945D01*
X79319490Y-45159945D01*
G37*
G36*
X81494628Y-46174229D02*
X75028569Y-60040738D01*
X73759738Y-59449073D01*
X80225797Y-45582564D01*
X81494628Y-46174229D01*
X81494628Y-46174229D01*
G37*
G36*
X75956007Y-60418041D02*
X82210758Y-47004686D01*
X83479589Y-47596351D01*
X77224838Y-61009706D01*
X75956007Y-60418041D01*
X75956007Y-60418041D01*
G37*
G36*
X78342455Y-60979171D02*
X84005540Y-48834647D01*
X85020800Y-49970097D01*
X79864857Y-61027052D01*
X78342455Y-60979171D01*
X78342455Y-60979171D01*
G37*
G36*
X61083709Y-38835633D02*
X55948898Y-49847273D01*
X54933638Y-48711822D01*
X59561308Y-38787752D01*
X61083709Y-38835633D01*
X61083709Y-38835633D01*
G37*
G36*
X63914221Y-38870143D02*
X59967512Y-40306627D01*
X59488683Y-38991057D01*
X63435392Y-37554573D01*
X63914221Y-38870143D01*
X63914221Y-38870143D01*
G37*
G36*
X84813217Y-47694128D02*
X84221551Y-48962959D01*
X62424849Y-38798990D01*
X63016515Y-37530159D01*
X84813217Y-47694128D01*
X84813217Y-47694128D01*
G37*
G36*
X80906403Y-61159652D02*
X85512942Y-51280897D01*
X86528202Y-52416347D01*
X82428805Y-61207533D01*
X80906403Y-61159652D01*
X80906403Y-61159652D01*
G37*
G36*
X84517679Y-47368097D02*
X86501396Y-52818314D01*
X85185827Y-53297143D01*
X83202110Y-47846926D01*
X84517679Y-47368097D01*
X84517679Y-47368097D01*
G37*
G36*
X39400000Y-75200000D02*
X28200000Y-75200000D01*
X28800000Y-73800000D01*
X38800000Y-73800000D01*
X39400000Y-75200000D01*
X39400000Y-75200000D01*
G37*
G36*
X40400000Y-77600000D02*
X26200000Y-77600000D01*
X26800000Y-76200000D01*
X39800000Y-76200000D01*
X40400000Y-77600000D01*
X40400000Y-77600000D01*
G37*
D12*
X33800000Y-79300000D03*
D10*
G36*
X26100000Y-100200000D02*
X41450000Y-100200000D01*
X40850000Y-101600000D01*
X26700000Y-101600000D01*
X26100000Y-100200000D01*
X26100000Y-100200000D01*
G37*
D12*
X33800000Y-88900000D03*
X33800000Y-86500000D03*
X33800000Y-81700000D03*
X33800000Y-84100000D03*
X33800000Y-93700000D03*
X33800000Y-91300000D03*
X33800000Y-96100000D03*
X33800000Y-98500000D03*
D10*
G36*
X25934390Y-76900660D02*
X29045660Y-73789390D01*
X30035610Y-74779340D01*
X26924340Y-77890610D01*
X25934390Y-76900660D01*
X25934390Y-76900660D01*
G37*
D13*
X26800000Y-89175000D03*
D10*
G36*
X26924029Y-100459980D02*
X29490120Y-103026071D01*
X28500171Y-104016020D01*
X25934080Y-101449929D01*
X26924029Y-100459980D01*
X26924029Y-100459980D01*
G37*
G36*
X27650000Y-102600000D02*
X39450000Y-102600000D01*
X38850000Y-104000000D01*
X28250000Y-104000000D01*
X27650000Y-102600000D01*
X27650000Y-102600000D01*
G37*
D14*
X34800000Y-78100000D03*
D12*
X35000000Y-85300000D03*
X35000000Y-82900000D03*
X35000000Y-80500000D03*
X35000000Y-87700000D03*
X35000000Y-90100000D03*
X35000000Y-92500000D03*
X35000000Y-94900000D03*
X35000000Y-97300000D03*
D14*
X34800000Y-99700000D03*
D10*
G36*
X27900000Y-101400000D02*
X41300000Y-101400000D01*
X40700000Y-102800000D01*
X28500000Y-102800000D01*
X27900000Y-101400000D01*
X27900000Y-101400000D01*
G37*
G36*
X40675000Y-76400000D02*
X28525000Y-76400000D01*
X29125000Y-75000000D01*
X40075000Y-75000000D01*
X40675000Y-76400000D01*
X40675000Y-76400000D01*
G37*
G36*
X41839949Y-78979899D02*
X38870101Y-76010051D01*
X39860051Y-75020101D01*
X42829899Y-77989949D01*
X41839949Y-78979899D01*
X41839949Y-78979899D01*
G37*
D15*
X41975000Y-89625000D03*
D10*
G36*
X28820000Y-103800000D02*
X39720000Y-103800000D01*
X39120000Y-105200000D01*
X29420000Y-105200000D01*
X28820000Y-103800000D01*
X28820000Y-103800000D01*
G37*
G36*
X42845584Y-101244365D02*
X38744365Y-105345584D01*
X37754416Y-104355635D01*
X41855635Y-100254416D01*
X42845584Y-101244365D01*
X42845584Y-101244365D01*
G37*
G36*
X65400000Y-81200000D02*
X54200000Y-81200000D01*
X54800000Y-79800000D01*
X64800000Y-79800000D01*
X65400000Y-81200000D01*
X65400000Y-81200000D01*
G37*
G36*
X66400000Y-83600000D02*
X52200000Y-83600000D01*
X52800000Y-82200000D01*
X65800000Y-82200000D01*
X66400000Y-83600000D01*
X66400000Y-83600000D01*
G37*
D12*
X59800000Y-85300000D03*
D10*
G36*
X52100000Y-106200000D02*
X67450000Y-106200000D01*
X66850000Y-107600000D01*
X52700000Y-107600000D01*
X52100000Y-106200000D01*
X52100000Y-106200000D01*
G37*
D12*
X59800000Y-94900000D03*
X59800000Y-92500000D03*
X59800000Y-87700000D03*
X59800000Y-90100000D03*
X59800000Y-99700000D03*
X59800000Y-97300000D03*
X59800000Y-102100000D03*
X59800000Y-104500000D03*
D10*
G36*
X51934390Y-82900660D02*
X55045660Y-79789390D01*
X56035610Y-80779340D01*
X52924340Y-83890610D01*
X51934390Y-82900660D01*
X51934390Y-82900660D01*
G37*
D13*
X52800000Y-95175000D03*
D10*
G36*
X52924029Y-106459980D02*
X55490120Y-109026071D01*
X54500171Y-110016020D01*
X51934080Y-107449929D01*
X52924029Y-106459980D01*
X52924029Y-106459980D01*
G37*
G36*
X53650000Y-108600000D02*
X65450000Y-108600000D01*
X64850000Y-110000000D01*
X54250000Y-110000000D01*
X53650000Y-108600000D01*
X53650000Y-108600000D01*
G37*
D14*
X60800000Y-84100000D03*
D12*
X61000000Y-91300000D03*
X61000000Y-88900000D03*
X61000000Y-86500000D03*
X61000000Y-93700000D03*
X61000000Y-96100000D03*
X61000000Y-98500000D03*
X61000000Y-100900000D03*
X61000000Y-103300000D03*
D14*
X60800000Y-105700000D03*
D10*
G36*
X53900000Y-107400000D02*
X67300000Y-107400000D01*
X66700000Y-108800000D01*
X54500000Y-108800000D01*
X53900000Y-107400000D01*
X53900000Y-107400000D01*
G37*
G36*
X66675000Y-82400000D02*
X54525000Y-82400000D01*
X55125000Y-81000000D01*
X66075000Y-81000000D01*
X66675000Y-82400000D01*
X66675000Y-82400000D01*
G37*
G36*
X67839949Y-84979899D02*
X64870101Y-82010051D01*
X65860051Y-81020101D01*
X68829899Y-83989949D01*
X67839949Y-84979899D01*
X67839949Y-84979899D01*
G37*
D15*
X67975000Y-95625000D03*
D10*
G36*
X54820000Y-109800000D02*
X65720000Y-109800000D01*
X65120000Y-111200000D01*
X55420000Y-111200000D01*
X54820000Y-109800000D01*
X54820000Y-109800000D01*
G37*
G36*
X68845584Y-107244365D02*
X64744365Y-111345584D01*
X63754416Y-110355635D01*
X67855635Y-106254416D01*
X68845584Y-107244365D01*
X68845584Y-107244365D01*
G37*
G36*
X91400000Y-89200000D02*
X80200000Y-89200000D01*
X80800000Y-87800000D01*
X90800000Y-87800000D01*
X91400000Y-89200000D01*
X91400000Y-89200000D01*
G37*
G36*
X92400000Y-91600000D02*
X78200000Y-91600000D01*
X78800000Y-90200000D01*
X91800000Y-90200000D01*
X92400000Y-91600000D01*
X92400000Y-91600000D01*
G37*
D12*
X85800000Y-93300000D03*
D10*
G36*
X78100000Y-114200000D02*
X93450000Y-114200000D01*
X92850000Y-115600000D01*
X78700000Y-115600000D01*
X78100000Y-114200000D01*
X78100000Y-114200000D01*
G37*
D12*
X85800000Y-102900000D03*
X85800000Y-100500000D03*
X85800000Y-95700000D03*
X85800000Y-98100000D03*
X85800000Y-107700000D03*
X85800000Y-105300000D03*
X85800000Y-110100000D03*
X85800000Y-112500000D03*
D10*
G36*
X77934390Y-90900660D02*
X81045660Y-87789390D01*
X82035610Y-88779340D01*
X78924340Y-91890610D01*
X77934390Y-90900660D01*
X77934390Y-90900660D01*
G37*
D13*
X78800000Y-103175000D03*
D10*
G36*
X78924029Y-114459980D02*
X81490120Y-117026071D01*
X80500171Y-118016020D01*
X77934080Y-115449929D01*
X78924029Y-114459980D01*
X78924029Y-114459980D01*
G37*
G36*
X79650000Y-116600000D02*
X91450000Y-116600000D01*
X90850000Y-118000000D01*
X80250000Y-118000000D01*
X79650000Y-116600000D01*
X79650000Y-116600000D01*
G37*
D14*
X86800000Y-92100000D03*
D12*
X87000000Y-99300000D03*
X87000000Y-96900000D03*
X87000000Y-94500000D03*
X87000000Y-101700000D03*
X87000000Y-104100000D03*
X87000000Y-106500000D03*
X87000000Y-108900000D03*
X87000000Y-111300000D03*
D14*
X86800000Y-113700000D03*
D10*
G36*
X79900000Y-115400000D02*
X93300000Y-115400000D01*
X92700000Y-116800000D01*
X80500000Y-116800000D01*
X79900000Y-115400000D01*
X79900000Y-115400000D01*
G37*
G36*
X92675000Y-90400000D02*
X80525000Y-90400000D01*
X81125000Y-89000000D01*
X92075000Y-89000000D01*
X92675000Y-90400000D01*
X92675000Y-90400000D01*
G37*
G36*
X93839949Y-92979899D02*
X90870101Y-90010051D01*
X91860051Y-89020101D01*
X94829899Y-91989949D01*
X93839949Y-92979899D01*
X93839949Y-92979899D01*
G37*
D15*
X93975000Y-103625000D03*
D10*
G36*
X80820000Y-117800000D02*
X91720000Y-117800000D01*
X91120000Y-119200000D01*
X81420000Y-119200000D01*
X80820000Y-117800000D01*
X80820000Y-117800000D01*
G37*
G36*
X94845584Y-115244365D02*
X90744365Y-119345584D01*
X89754416Y-118355635D01*
X93855635Y-114254416D01*
X94845584Y-115244365D01*
X94845584Y-115244365D01*
G37*
G36*
X48900000Y-116700000D02*
X37700000Y-116700000D01*
X38300000Y-115300000D01*
X48300000Y-115300000D01*
X48900000Y-116700000D01*
X48900000Y-116700000D01*
G37*
G36*
X49900000Y-119100000D02*
X35700000Y-119100000D01*
X36300000Y-117700000D01*
X49300000Y-117700000D01*
X49900000Y-119100000D01*
X49900000Y-119100000D01*
G37*
D12*
X43300000Y-120800000D03*
D10*
G36*
X35600000Y-141700000D02*
X50950000Y-141700000D01*
X50350000Y-143100000D01*
X36200000Y-143100000D01*
X35600000Y-141700000D01*
X35600000Y-141700000D01*
G37*
D12*
X43300000Y-130400000D03*
X43300000Y-128000000D03*
X43300000Y-123200000D03*
X43300000Y-125600000D03*
X43300000Y-135200000D03*
X43300000Y-132800000D03*
X43300000Y-137600000D03*
X43300000Y-140000000D03*
D10*
G36*
X35434390Y-118400660D02*
X38545660Y-115289390D01*
X39535610Y-116279340D01*
X36424340Y-119390610D01*
X35434390Y-118400660D01*
X35434390Y-118400660D01*
G37*
D13*
X36300000Y-130675000D03*
D10*
G36*
X36424029Y-141959980D02*
X38990120Y-144526071D01*
X38000171Y-145516020D01*
X35434080Y-142949929D01*
X36424029Y-141959980D01*
X36424029Y-141959980D01*
G37*
G36*
X37150000Y-144100000D02*
X48950000Y-144100000D01*
X48350000Y-145500000D01*
X37750000Y-145500000D01*
X37150000Y-144100000D01*
X37150000Y-144100000D01*
G37*
D14*
X44300000Y-119600000D03*
D12*
X44500000Y-126800000D03*
X44500000Y-124400000D03*
X44500000Y-122000000D03*
X44500000Y-129200000D03*
X44500000Y-131600000D03*
X44500000Y-134000000D03*
X44500000Y-136400000D03*
X44500000Y-138800000D03*
D14*
X44300000Y-141200000D03*
D10*
G36*
X37400000Y-142900000D02*
X50800000Y-142900000D01*
X50200000Y-144300000D01*
X38000000Y-144300000D01*
X37400000Y-142900000D01*
X37400000Y-142900000D01*
G37*
G36*
X50175000Y-117900000D02*
X38025000Y-117900000D01*
X38625000Y-116500000D01*
X49575000Y-116500000D01*
X50175000Y-117900000D01*
X50175000Y-117900000D01*
G37*
G36*
X51339949Y-120479899D02*
X48370101Y-117510051D01*
X49360051Y-116520101D01*
X52329899Y-119489949D01*
X51339949Y-120479899D01*
X51339949Y-120479899D01*
G37*
D15*
X51475000Y-131125000D03*
D10*
G36*
X38320000Y-145300000D02*
X49220000Y-145300000D01*
X48620000Y-146700000D01*
X38920000Y-146700000D01*
X38320000Y-145300000D01*
X38320000Y-145300000D01*
G37*
G36*
X52345584Y-142744365D02*
X48244365Y-146845584D01*
X47254416Y-145855635D01*
X51355635Y-141754416D01*
X52345584Y-142744365D01*
X52345584Y-142744365D01*
G37*
G36*
X71400000Y-129200000D02*
X60200000Y-129200000D01*
X60800000Y-127800000D01*
X70800000Y-127800000D01*
X71400000Y-129200000D01*
X71400000Y-129200000D01*
G37*
G36*
X72400000Y-131600000D02*
X58200000Y-131600000D01*
X58800000Y-130200000D01*
X71800000Y-130200000D01*
X72400000Y-131600000D01*
X72400000Y-131600000D01*
G37*
D12*
X65800000Y-133300000D03*
D10*
G36*
X58100000Y-154200000D02*
X73450000Y-154200000D01*
X72850000Y-155600000D01*
X58700000Y-155600000D01*
X58100000Y-154200000D01*
X58100000Y-154200000D01*
G37*
D12*
X65800000Y-142900000D03*
X65800000Y-140500000D03*
X65800000Y-135700000D03*
X65800000Y-138100000D03*
X65800000Y-147700000D03*
X65800000Y-145300000D03*
X65800000Y-150100000D03*
X65800000Y-152500000D03*
D10*
G36*
X57934390Y-130900660D02*
X61045660Y-127789390D01*
X62035610Y-128779340D01*
X58924340Y-131890610D01*
X57934390Y-130900660D01*
X57934390Y-130900660D01*
G37*
D13*
X58800000Y-143175000D03*
D10*
G36*
X58924029Y-154459980D02*
X61490120Y-157026071D01*
X60500171Y-158016020D01*
X57934080Y-155449929D01*
X58924029Y-154459980D01*
X58924029Y-154459980D01*
G37*
G36*
X59650000Y-156600000D02*
X71450000Y-156600000D01*
X70850000Y-158000000D01*
X60250000Y-158000000D01*
X59650000Y-156600000D01*
X59650000Y-156600000D01*
G37*
D14*
X66800000Y-132100000D03*
D12*
X67000000Y-139300000D03*
X67000000Y-136900000D03*
X67000000Y-134500000D03*
X67000000Y-141700000D03*
X67000000Y-144100000D03*
X67000000Y-146500000D03*
X67000000Y-148900000D03*
X67000000Y-151300000D03*
D14*
X66800000Y-153700000D03*
D10*
G36*
X59900000Y-155400000D02*
X73300000Y-155400000D01*
X72700000Y-156800000D01*
X60500000Y-156800000D01*
X59900000Y-155400000D01*
X59900000Y-155400000D01*
G37*
G36*
X72675000Y-130400000D02*
X60525000Y-130400000D01*
X61125000Y-129000000D01*
X72075000Y-129000000D01*
X72675000Y-130400000D01*
X72675000Y-130400000D01*
G37*
G36*
X73839949Y-132979899D02*
X70870101Y-130010051D01*
X71860051Y-129020101D01*
X74829899Y-131989949D01*
X73839949Y-132979899D01*
X73839949Y-132979899D01*
G37*
D15*
X73975000Y-143625000D03*
D10*
G36*
X60820000Y-157800000D02*
X71720000Y-157800000D01*
X71120000Y-159200000D01*
X61420000Y-159200000D01*
X60820000Y-157800000D01*
X60820000Y-157800000D01*
G37*
G36*
X74845584Y-155244365D02*
X70744365Y-159345584D01*
X69754416Y-158355635D01*
X73855635Y-154254416D01*
X74845584Y-155244365D01*
X74845584Y-155244365D01*
G37*
G36*
X93900000Y-141700000D02*
X82700000Y-141700000D01*
X83300000Y-140300000D01*
X93300000Y-140300000D01*
X93900000Y-141700000D01*
X93900000Y-141700000D01*
G37*
G36*
X94900000Y-144100000D02*
X80700000Y-144100000D01*
X81300000Y-142700000D01*
X94300000Y-142700000D01*
X94900000Y-144100000D01*
X94900000Y-144100000D01*
G37*
D12*
X88300000Y-145800000D03*
D10*
G36*
X80600000Y-166700000D02*
X95950000Y-166700000D01*
X95350000Y-168100000D01*
X81200000Y-168100000D01*
X80600000Y-166700000D01*
X80600000Y-166700000D01*
G37*
D12*
X88300000Y-155400000D03*
X88300000Y-153000000D03*
X88300000Y-148200000D03*
X88300000Y-150600000D03*
X88300000Y-160200000D03*
X88300000Y-157800000D03*
X88300000Y-162600000D03*
X88300000Y-165000000D03*
D10*
G36*
X80434390Y-143400660D02*
X83545660Y-140289390D01*
X84535610Y-141279340D01*
X81424340Y-144390610D01*
X80434390Y-143400660D01*
X80434390Y-143400660D01*
G37*
D13*
X81300000Y-155675000D03*
D10*
G36*
X81424029Y-166959980D02*
X83990120Y-169526071D01*
X83000171Y-170516020D01*
X80434080Y-167949929D01*
X81424029Y-166959980D01*
X81424029Y-166959980D01*
G37*
G36*
X82150000Y-169100000D02*
X93950000Y-169100000D01*
X93350000Y-170500000D01*
X82750000Y-170500000D01*
X82150000Y-169100000D01*
X82150000Y-169100000D01*
G37*
D14*
X89300000Y-144600000D03*
D12*
X89500000Y-151800000D03*
X89500000Y-149400000D03*
X89500000Y-147000000D03*
X89500000Y-154200000D03*
X89500000Y-156600000D03*
X89500000Y-159000000D03*
X89500000Y-161400000D03*
X89500000Y-163800000D03*
D14*
X89300000Y-166200000D03*
D10*
G36*
X82400000Y-167900000D02*
X95800000Y-167900000D01*
X95200000Y-169300000D01*
X83000000Y-169300000D01*
X82400000Y-167900000D01*
X82400000Y-167900000D01*
G37*
G36*
X95175000Y-142900000D02*
X83025000Y-142900000D01*
X83625000Y-141500000D01*
X94575000Y-141500000D01*
X95175000Y-142900000D01*
X95175000Y-142900000D01*
G37*
G36*
X96339949Y-145479899D02*
X93370101Y-142510051D01*
X94360051Y-141520101D01*
X97329899Y-144489949D01*
X96339949Y-145479899D01*
X96339949Y-145479899D01*
G37*
D15*
X96475000Y-156125000D03*
D10*
G36*
X83320000Y-170300000D02*
X94220000Y-170300000D01*
X93620000Y-171700000D01*
X83920000Y-171700000D01*
X83320000Y-170300000D01*
X83320000Y-170300000D01*
G37*
G36*
X97345584Y-167744365D02*
X93244365Y-171845584D01*
X92254416Y-170855635D01*
X96355635Y-166754416D01*
X97345584Y-167744365D01*
X97345584Y-167744365D01*
G37*
G36*
X88400000Y-190200000D02*
X77200000Y-190200000D01*
X77800000Y-188800000D01*
X87800000Y-188800000D01*
X88400000Y-190200000D01*
X88400000Y-190200000D01*
G37*
G36*
X89400000Y-192600000D02*
X75200000Y-192600000D01*
X75800000Y-191200000D01*
X88800000Y-191200000D01*
X89400000Y-192600000D01*
X89400000Y-192600000D01*
G37*
D12*
X82800000Y-194300000D03*
D10*
G36*
X75100000Y-215200000D02*
X90450000Y-215200000D01*
X89850000Y-216600000D01*
X75700000Y-216600000D01*
X75100000Y-215200000D01*
X75100000Y-215200000D01*
G37*
D12*
X82800000Y-203900000D03*
X82800000Y-201500000D03*
X82800000Y-196700000D03*
X82800000Y-199100000D03*
X82800000Y-208700000D03*
X82800000Y-206300000D03*
X82800000Y-211100000D03*
X82800000Y-213500000D03*
D10*
G36*
X74934390Y-191900660D02*
X78045660Y-188789390D01*
X79035610Y-189779340D01*
X75924340Y-192890610D01*
X74934390Y-191900660D01*
X74934390Y-191900660D01*
G37*
D13*
X75800000Y-204175000D03*
D10*
G36*
X75924029Y-215459980D02*
X78490120Y-218026071D01*
X77500171Y-219016020D01*
X74934080Y-216449929D01*
X75924029Y-215459980D01*
X75924029Y-215459980D01*
G37*
G36*
X76650000Y-217600000D02*
X88450000Y-217600000D01*
X87850000Y-219000000D01*
X77250000Y-219000000D01*
X76650000Y-217600000D01*
X76650000Y-217600000D01*
G37*
D14*
X83800000Y-193100000D03*
D12*
X84000000Y-200300000D03*
X84000000Y-197900000D03*
X84000000Y-195500000D03*
X84000000Y-202700000D03*
X84000000Y-205100000D03*
X84000000Y-207500000D03*
X84000000Y-209900000D03*
X84000000Y-212300000D03*
D14*
X83800000Y-214700000D03*
D10*
G36*
X76900000Y-216400000D02*
X90300000Y-216400000D01*
X89700000Y-217800000D01*
X77500000Y-217800000D01*
X76900000Y-216400000D01*
X76900000Y-216400000D01*
G37*
G36*
X89675000Y-191400000D02*
X77525000Y-191400000D01*
X78125000Y-190000000D01*
X89075000Y-190000000D01*
X89675000Y-191400000D01*
X89675000Y-191400000D01*
G37*
G36*
X90839949Y-193979899D02*
X87870101Y-191010051D01*
X88860051Y-190020101D01*
X91829899Y-192989949D01*
X90839949Y-193979899D01*
X90839949Y-193979899D01*
G37*
D15*
X90975000Y-204625000D03*
D10*
G36*
X77820000Y-218800000D02*
X88720000Y-218800000D01*
X88120000Y-220200000D01*
X78420000Y-220200000D01*
X77820000Y-218800000D01*
X77820000Y-218800000D01*
G37*
G36*
X91845584Y-216244365D02*
X87744365Y-220345584D01*
X86754416Y-219355635D01*
X90855635Y-215254416D01*
X91845584Y-216244365D01*
X91845584Y-216244365D01*
G37*
G36*
X55700000Y-241100000D02*
X55700000Y-252300000D01*
X54300000Y-251700000D01*
X54300000Y-241700000D01*
X55700000Y-241100000D01*
X55700000Y-241100000D01*
G37*
G36*
X58100000Y-240100000D02*
X58100000Y-254300000D01*
X56700000Y-253700000D01*
X56700000Y-240700000D01*
X58100000Y-240100000D01*
X58100000Y-240100000D01*
G37*
D16*
X59800000Y-246700000D03*
D10*
G36*
X80700000Y-254400000D02*
X80700000Y-239050000D01*
X82100000Y-239650000D01*
X82100000Y-253800000D01*
X80700000Y-254400000D01*
X80700000Y-254400000D01*
G37*
D16*
X69400000Y-246700000D03*
X67000000Y-246700000D03*
X62200000Y-246700000D03*
X64600000Y-246700000D03*
X74200000Y-246700000D03*
X71800000Y-246700000D03*
X76600000Y-246700000D03*
X79000000Y-246700000D03*
D10*
G36*
X57400660Y-254565610D02*
X54289390Y-251454340D01*
X55279340Y-250464390D01*
X58390610Y-253575660D01*
X57400660Y-254565610D01*
X57400660Y-254565610D01*
G37*
D17*
X69675000Y-253700000D03*
D10*
G36*
X80959980Y-253575971D02*
X83526071Y-251009880D01*
X84516020Y-251999829D01*
X81949929Y-254565920D01*
X80959980Y-253575971D01*
X80959980Y-253575971D01*
G37*
G36*
X83100000Y-252850000D02*
X83100000Y-241050000D01*
X84500000Y-241650000D01*
X84500000Y-252250000D01*
X83100000Y-252850000D01*
X83100000Y-252850000D01*
G37*
D18*
X58600000Y-245700000D03*
D16*
X65800000Y-245500000D03*
X63400000Y-245500000D03*
X61000000Y-245500000D03*
X68200000Y-245500000D03*
X70600000Y-245500000D03*
X73000000Y-245500000D03*
X75400000Y-245500000D03*
X77800000Y-245500000D03*
D18*
X80200000Y-245700000D03*
D10*
G36*
X81900000Y-252600000D02*
X81900000Y-239200000D01*
X83300000Y-239800000D01*
X83300000Y-252000000D01*
X81900000Y-252600000D01*
X81900000Y-252600000D01*
G37*
G36*
X56900000Y-239825000D02*
X56900000Y-251975000D01*
X55500000Y-251375000D01*
X55500000Y-240425000D01*
X56900000Y-239825000D01*
X56900000Y-239825000D01*
G37*
G36*
X59479899Y-238660051D02*
X56510051Y-241629899D01*
X55520101Y-240639949D01*
X58489949Y-237670101D01*
X59479899Y-238660051D01*
X59479899Y-238660051D01*
G37*
D19*
X70125000Y-238525000D03*
D10*
G36*
X84300000Y-251680000D02*
X84300000Y-240780000D01*
X85700000Y-241380000D01*
X85700000Y-251080000D01*
X84300000Y-251680000D01*
X84300000Y-251680000D01*
G37*
G36*
X81744365Y-237654416D02*
X85845584Y-241755635D01*
X84855635Y-242745584D01*
X80754416Y-238644365D01*
X81744365Y-237654416D01*
X81744365Y-237654416D01*
G37*
G36*
X87400000Y-261200000D02*
X76200000Y-261200000D01*
X76800000Y-259800000D01*
X86800000Y-259800000D01*
X87400000Y-261200000D01*
X87400000Y-261200000D01*
G37*
G36*
X88400000Y-263600000D02*
X74200000Y-263600000D01*
X74800000Y-262200000D01*
X87800000Y-262200000D01*
X88400000Y-263600000D01*
X88400000Y-263600000D01*
G37*
D12*
X81800000Y-265300000D03*
D10*
G36*
X74100000Y-286200000D02*
X89450000Y-286200000D01*
X88850000Y-287600000D01*
X74700000Y-287600000D01*
X74100000Y-286200000D01*
X74100000Y-286200000D01*
G37*
D12*
X81800000Y-274900000D03*
X81800000Y-272500000D03*
X81800000Y-267700000D03*
X81800000Y-270100000D03*
X81800000Y-279700000D03*
X81800000Y-277300000D03*
X81800000Y-282100000D03*
X81800000Y-284500000D03*
D10*
G36*
X73934390Y-262900660D02*
X77045660Y-259789390D01*
X78035610Y-260779340D01*
X74924340Y-263890610D01*
X73934390Y-262900660D01*
X73934390Y-262900660D01*
G37*
D13*
X74800000Y-275175000D03*
D10*
G36*
X74924029Y-286459980D02*
X77490120Y-289026071D01*
X76500171Y-290016020D01*
X73934080Y-287449929D01*
X74924029Y-286459980D01*
X74924029Y-286459980D01*
G37*
G36*
X75650000Y-288600000D02*
X87450000Y-288600000D01*
X86850000Y-290000000D01*
X76250000Y-290000000D01*
X75650000Y-288600000D01*
X75650000Y-288600000D01*
G37*
D14*
X82800000Y-264100000D03*
D12*
X83000000Y-271300000D03*
X83000000Y-268900000D03*
X83000000Y-266500000D03*
X83000000Y-273700000D03*
X83000000Y-276100000D03*
X83000000Y-278500000D03*
X83000000Y-280900000D03*
X83000000Y-283300000D03*
D14*
X82800000Y-285700000D03*
D10*
G36*
X75900000Y-287400000D02*
X89300000Y-287400000D01*
X88700000Y-288800000D01*
X76500000Y-288800000D01*
X75900000Y-287400000D01*
X75900000Y-287400000D01*
G37*
G36*
X88675000Y-262400000D02*
X76525000Y-262400000D01*
X77125000Y-261000000D01*
X88075000Y-261000000D01*
X88675000Y-262400000D01*
X88675000Y-262400000D01*
G37*
G36*
X89839949Y-264979899D02*
X86870101Y-262010051D01*
X87860051Y-261020101D01*
X90829899Y-263989949D01*
X89839949Y-264979899D01*
X89839949Y-264979899D01*
G37*
D15*
X89975000Y-275625000D03*
D10*
G36*
X76820000Y-289800000D02*
X87720000Y-289800000D01*
X87120000Y-291200000D01*
X77420000Y-291200000D01*
X76820000Y-289800000D01*
X76820000Y-289800000D01*
G37*
G36*
X90845584Y-287244365D02*
X86744365Y-291345584D01*
X85754416Y-290355635D01*
X89855635Y-286254416D01*
X90845584Y-287244365D01*
X90845584Y-287244365D01*
G37*
G36*
X62400000Y-261200000D02*
X51200000Y-261200000D01*
X51800000Y-259800000D01*
X61800000Y-259800000D01*
X62400000Y-261200000D01*
X62400000Y-261200000D01*
G37*
G36*
X63400000Y-263600000D02*
X49200000Y-263600000D01*
X49800000Y-262200000D01*
X62800000Y-262200000D01*
X63400000Y-263600000D01*
X63400000Y-263600000D01*
G37*
D12*
X56800000Y-265300000D03*
D10*
G36*
X49100000Y-286200000D02*
X64450000Y-286200000D01*
X63850000Y-287600000D01*
X49700000Y-287600000D01*
X49100000Y-286200000D01*
X49100000Y-286200000D01*
G37*
D12*
X56800000Y-274900000D03*
X56800000Y-272500000D03*
X56800000Y-267700000D03*
X56800000Y-270100000D03*
X56800000Y-279700000D03*
X56800000Y-277300000D03*
X56800000Y-282100000D03*
X56800000Y-284500000D03*
D10*
G36*
X48934390Y-262900660D02*
X52045660Y-259789390D01*
X53035610Y-260779340D01*
X49924340Y-263890610D01*
X48934390Y-262900660D01*
X48934390Y-262900660D01*
G37*
D13*
X49800000Y-275175000D03*
D10*
G36*
X49924029Y-286459980D02*
X52490120Y-289026071D01*
X51500171Y-290016020D01*
X48934080Y-287449929D01*
X49924029Y-286459980D01*
X49924029Y-286459980D01*
G37*
G36*
X50650000Y-288600000D02*
X62450000Y-288600000D01*
X61850000Y-290000000D01*
X51250000Y-290000000D01*
X50650000Y-288600000D01*
X50650000Y-288600000D01*
G37*
D14*
X57800000Y-264100000D03*
D12*
X58000000Y-271300000D03*
X58000000Y-268900000D03*
X58000000Y-266500000D03*
X58000000Y-273700000D03*
X58000000Y-276100000D03*
X58000000Y-278500000D03*
X58000000Y-280900000D03*
X58000000Y-283300000D03*
D14*
X57800000Y-285700000D03*
D10*
G36*
X50900000Y-287400000D02*
X64300000Y-287400000D01*
X63700000Y-288800000D01*
X51500000Y-288800000D01*
X50900000Y-287400000D01*
X50900000Y-287400000D01*
G37*
G36*
X63675000Y-262400000D02*
X51525000Y-262400000D01*
X52125000Y-261000000D01*
X63075000Y-261000000D01*
X63675000Y-262400000D01*
X63675000Y-262400000D01*
G37*
G36*
X64839949Y-264979899D02*
X61870101Y-262010051D01*
X62860051Y-261020101D01*
X65829899Y-263989949D01*
X64839949Y-264979899D01*
X64839949Y-264979899D01*
G37*
D15*
X64975000Y-275625000D03*
D10*
G36*
X51820000Y-289800000D02*
X62720000Y-289800000D01*
X62120000Y-291200000D01*
X52420000Y-291200000D01*
X51820000Y-289800000D01*
X51820000Y-289800000D01*
G37*
G36*
X65845584Y-287244365D02*
X61744365Y-291345584D01*
X60754416Y-290355635D01*
X64855635Y-286254416D01*
X65845584Y-287244365D01*
X65845584Y-287244365D01*
G37*
D20*
X69500000Y-294500000D03*
X88500000Y-128500000D03*
X60000000Y-67500000D03*
X83000000Y-227500000D03*
M02*
