<?xml version="1.0" standalone="no"?>
 <!DOCTYPE svg PUBLIC "-//W3C//DTD SVG 1.1//EN" 
 "http://www.w3.org/Graphics/SVG/1.1/DTD/svg11.dtd"> 
<svg xmlns="http://www.w3.org/2000/svg" version="1.1" 
    width="8.9281cm" height="28.0619cm" viewBox="0 0 35150 110480 ">
<title>SVG Picture created as insole_right-brd.svg date 2018/06/25 17:19:08 </title>
  <desc>Picture generated by PCBNEW </desc>
<g style="fill:#000000; fill-opacity:1;stroke:#000000; stroke-opacity:1;
stroke-linecap:round; stroke-linejoin:round; "
 transform="translate(0 0) scale(1 1)">
</g>
<g style="fill:#000000; fill-opacity:0.0; 
stroke:#000000; stroke-width:-0.000393701; stroke-opacity:1; 
stroke-linecap:round; stroke-linejoin:round;">
</g>
<g style="fill:#840084; fill-opacity:0.0; 
stroke:#840084; stroke-width:-0.000393701; stroke-opacity:1; 
stroke-linecap:round; stroke-linejoin:round;">
</g>
<g style="fill:#840084; fill-opacity:0.0; 
stroke:#840084; stroke-width:59.0551; stroke-opacity:1; 
stroke-linecap:round; stroke-linejoin:round;">
<path d="M4958 14263
L5570 15575
" />
<path d="M5570 15575
L5852 16181
" />
<path d="M5852 16181
L6333 16356
" />
<path d="M6333 16356
L9367 17460
" />
<path d="M13255 5971
L14055 7687
" />
<path d="M14055 7687
L10729 16825
" />
<path d="M10729 16825
L9367 17460
" />
<path d="M4958 14263
L8109 5606
" />
<path d="M8109 5606
L9926 4759
" />
<path d="M9926 4759
L13255 5971
" />
<path d="M13708 74948
L13708 75086
" />
<path d="M13708 75086
L14102 75086
" />
<path d="M14102 73235
L13708 73235
" />
<path d="M13708 73235
L13708 73373
" />
<path d="M13708 73373
L13708 74948
" />
<path d="M19220 74948
L19220 75086
" />
<path d="M19220 75086
L18905 75086
" />
<path d="M18905 75086
L14102 75086
" />
<path d="M19220 73373
L19220 73235
" />
<path d="M19220 73235
L14102 73235
" />
<path d="M19220 73373
L19220 74948
" />
<path d="M18461 6604
L17101 7099
" />
<path d="M17101 7099
L16473 7327
" />
<path d="M16473 7327
L16257 7791
" />
<path d="M16257 7791
L14892 10717
" />
<path d="M25999 15592
L24220 16239
" />
<path d="M24220 16239
L15406 12130
" />
<path d="M15406 12130
L14892 10717
" />
<path d="M18461 6604
L26811 10497
" />
<path d="M26811 10497
L27496 12381
" />
<path d="M27496 12381
L25999 15592
" />
<path d="M10283 22349
L9259 21326
" />
<path d="M9259 21326
L8787 20853
" />
<path d="M8787 20853
L8275 20853
" />
<path d="M8275 20853
L5047 20853
" />
<path d="M5322 32979
L3984 31641
" />
<path d="M3984 31641
L3984 21916
" />
<path d="M3984 21916
L5047 20853
" />
<path d="M10283 22349
L10283 31562
" />
<path d="M10283 31562
L8866 32979
" />
<path d="M8866 32979
L5322 32979
" />
<path d="M20519 24712
L19496 23688
" />
<path d="M19496 23688
L19023 23215
" />
<path d="M19023 23215
L18511 23215
" />
<path d="M18511 23215
L15283 23215
" />
<path d="M15559 35341
L14220 34003
" />
<path d="M14220 34003
L14220 24278
" />
<path d="M14220 24278
L15283 23215
" />
<path d="M20519 24712
L20519 33924
" />
<path d="M20519 33924
L19102 35341
" />
<path d="M19102 35341
L15559 35341
" />
<path d="M30755 27861
L29732 26838
" />
<path d="M29732 26838
L29259 26365
" />
<path d="M29259 26365
L28748 26365
" />
<path d="M28748 26365
L25519 26365
" />
<path d="M25795 38491
L24456 37152
" />
<path d="M24456 37152
L24456 27428
" />
<path d="M24456 27428
L25519 26365
" />
<path d="M30755 27861
L30755 37074
" />
<path d="M30755 37074
L29338 38491
" />
<path d="M29338 38491
L25795 38491
" />
<path d="M14023 38688
L13000 37664
" />
<path d="M13000 37664
L12527 37192
" />
<path d="M12527 37192
L12015 37192
" />
<path d="M12015 37192
L8787 37192
" />
<path d="M9063 49318
L7724 47979
" />
<path d="M7724 47979
L7724 38255
" />
<path d="M7724 38255
L8787 37192
" />
<path d="M14023 38688
L14023 47900
" />
<path d="M14023 47900
L12606 49318
" />
<path d="M12606 49318
L9063 49318
" />
<path d="M22881 43609
L21858 42586
" />
<path d="M21858 42586
L21385 42113
" />
<path d="M21385 42113
L20874 42113
" />
<path d="M20874 42113
L17645 42113
" />
<path d="M17921 54239
L16582 52900
" />
<path d="M16582 52900
L16582 43176
" />
<path d="M16582 43176
L17645 42113
" />
<path d="M22881 43609
L22881 52822
" />
<path d="M22881 52822
L21464 54239
" />
<path d="M21464 54239
L17921 54239
" />
<path d="M31740 48530
L30716 47507
" />
<path d="M30716 47507
L30244 47034
" />
<path d="M30244 47034
L29732 47034
" />
<path d="M29732 47034
L26504 47034
" />
<path d="M26779 59160
L25441 57822
" />
<path d="M25441 57822
L25441 48097
" />
<path d="M25441 48097
L26504 47034
" />
<path d="M31740 48530
L31740 57743
" />
<path d="M31740 57743
L30322 59160
" />
<path d="M30322 59160
L26779 59160
" />
<path d="M29574 67625
L28551 66601
" />
<path d="M28551 66601
L28078 66129
" />
<path d="M28078 66129
L27567 66129
" />
<path d="M27567 66129
L24338 66129
" />
<path d="M24614 78255
L23275 76916
" />
<path d="M23275 76916
L23275 67192
" />
<path d="M23275 67192
L24338 66129
" />
<path d="M29574 67625
L29574 76838
" />
<path d="M29574 76838
L28157 78255
" />
<path d="M28157 78255
L24614 78255
" />
<path d="M16582 85420
L15559 86444
" />
<path d="M15559 86444
L15086 86916
" />
<path d="M15086 86916
L15086 87428
" />
<path d="M15086 87428
L15086 90656
" />
<path d="M27212 90381
L25874 91719
" />
<path d="M25874 91719
L16149 91719
" />
<path d="M16149 91719
L15086 90656
" />
<path d="M16582 85420
L25795 85420
" />
<path d="M25795 85420
L27212 86838
" />
<path d="M27212 86838
L27212 90381
" />
<path d="M29181 95578
L28157 94554
" />
<path d="M28157 94554
L27685 94082
" />
<path d="M27685 94082
L27173 94082
" />
<path d="M27173 94082
L23944 94082
" />
<path d="M24220 106208
L22881 104869
" />
<path d="M22881 104869
L22881 95145
" />
<path d="M22881 95145
L23944 94082
" />
<path d="M29181 95578
L29181 104790
" />
<path d="M29181 104790
L27763 106208
" />
<path d="M27763 106208
L24220 106208
" />
<path d="M19338 95578
L18315 94554
" />
<path d="M18315 94554
L17842 94082
" />
<path d="M17842 94082
L17330 94082
" />
<path d="M17330 94082
L14102 94082
" />
<path d="M14378 106208
L13039 104869
" />
<path d="M13039 104869
L13039 95145
" />
<path d="M13039 95145
L14102 94082
" />
<path d="M19338 95578
L19338 104790
" />
<path d="M19338 104790
L17921 106208
" />
<path d="M17921 106208
L14378 106208
" />
</g>
<g style="fill:#840000; fill-opacity:0.0; 
stroke:#840000; stroke-width:59.0551; stroke-opacity:1; 
stroke-linecap:round; stroke-linejoin:round;">
<path d="M16536 71917
L16536 72198
L16555 72255
L16593 72292
L16649 72311
L16686 72311
" />
<path d="M16143 72311
L16368 72311
" />
<path d="M16255 72311
L16255 71917
L16293 71973
L16330 72011
L16368 72030
" />
</g>
<g style="fill:#000000; fill-opacity:0.0; 
stroke:#000000; stroke-width:59.0551; stroke-opacity:1; 
stroke-linecap:round; stroke-linejoin:round;">
</g>
<g style="fill:#008400; fill-opacity:0.0; 
stroke:#008400; stroke-width:59.0551; stroke-opacity:1; 
stroke-linecap:round; stroke-linejoin:round;">
</g>
<g style="fill:#008400; fill-opacity:0.0; 
stroke:#008400; stroke-width:0; stroke-opacity:1; 
stroke-linecap:round; stroke-linejoin:round;">
</g>
<g style="fill:#008400; fill-opacity:1.0; 
stroke:#008400; stroke-width:0; stroke-opacity:1; 
stroke-linecap:round; stroke-linejoin:round;">
<polyline style="fill-rule:evenodd;"
points="5799,15868
9646,17268
9343,17409
5940,16171
5799,15868
" /> 
<polyline style="fill-rule:evenodd;"
points="5752,14845
10709,16650
10407,16791
5893,15148
5752,14845
" /> 
<polyline style="fill-rule:evenodd;"
points="5687,13816
11051,15769
10970,15991
5606,14038
5687,13816
" /> 
<polyline style="fill-rule:evenodd;"
points="13897,8006
8514,6047
8817,5906
13756,7703
13897,8006
" /> 
<polyline style="fill-rule:evenodd;"
points="6979,10264
12344,12217
12263,12439
6898,10486
6979,10264
" /> 
<polyline style="fill-rule:evenodd;"
points="6656,11152
12020,13105
11940,13327
6575,11374
6656,11152
" /> 
<polyline style="fill-rule:evenodd;"
points="6010,12928
11374,14881
11293,15103
5929,13150
6010,12928
" /> 
<polyline style="fill-rule:evenodd;"
points="6333,12040
11697,13993
11617,14215
6252,12262
6333,12040
" /> 
<polyline style="fill-rule:evenodd;"
points="7626,8489
12990,10441
12909,10663
7545,8711
7626,8489
" /> 
<polyline style="fill-rule:evenodd;"
points="7302,9377
12667,11329
12586,11551
7222,9599
7302,9377
" /> 
<polyline style="fill-rule:evenodd;"
points="7949,7601
13313,9553
13232,9775
7868,7823
7949,7601
" /> 
<polyline style="fill-rule:evenodd;"
points="8272,6713
13636,8665
13556,8887
8191,6935
8272,6713
" /> 
<polyline style="fill-rule:evenodd;"
points="10706,16774
9421,17373
9322,17159
10606,16560
10706,16774
" /> 
<polyline style="fill-rule:evenodd;"
points="10706,16774
10484,16693
13790,7611
14012,7692
10706,16774
" /> 
<polyline style="fill-rule:evenodd;"
points="13798,7792
13327,6782
13541,6682
14012,7692
13798,7792
" /> 
<polyline style="fill-rule:evenodd;"
points="13647,6910
9577,5428
9880,5287
13506,6607
13647,6910
" /> 
<polyline style="fill-rule:evenodd;"
points="5248,14159
10427,16044
10346,16266
5167,14381
5248,14159
" /> 
<polyline style="fill-rule:evenodd;"
points="6051,11435
11415,13387
11334,13609
5970,11657
6051,11435
" /> 
<polyline style="fill-rule:evenodd;"
points="5727,12323
11092,14275
11011,14497
5647,12545
5727,12323
" /> 
<polyline style="fill-rule:evenodd;"
points="5404,13211
10769,15163
10688,15385
5323,13433
5404,13211
" /> 
<polyline style="fill-rule:evenodd;"
points="6374,10547
11738,12499
11657,12721
6293,10769
6374,10547
" /> 
<polyline style="fill-rule:evenodd;"
points="6697,9659
12061,11611
11980,11833
6616,9881
6697,9659
" /> 
<polyline style="fill-rule:evenodd;"
points="7020,8771
12384,10724
12304,10945
6939,8993
7020,8771
" /> 
<polyline style="fill-rule:evenodd;"
points="7343,7883
12708,9836
12627,10058
7262,8105
7343,7883
" /> 
<polyline style="fill-rule:evenodd;"
points="7666,6995
13031,8948
12950,9170
7586,7217
7666,6995
" /> 
<polyline style="fill-rule:evenodd;"
points="13255,8275
8075,6390
8156,6168
13335,8053
13255,8275
" /> 
<polyline style="fill-rule:evenodd;"
points="13393,7320
8731,5623
9034,5482
13252,7017
13393,7320
" /> 
<polyline style="fill-rule:evenodd;"
points="5489,15252
9688,16781
9385,16922
5630,15555
5489,15252
" /> 
<polyline style="fill-rule:evenodd;"
points="5235,14148
5800,15362
5586,15461
5021,14248
5235,14148
" /> 
<polyline style="fill-rule:evenodd;"
points="8149,5642
8371,5722
5240,14324
5018,14243
8149,5642
" /> 
<polyline style="fill-rule:evenodd;"
points="13376,6308
9639,4948
9942,4807
13234,6005
13376,6308
" /> 
<polyline style="fill-rule:evenodd;"
points="8146,5643
9930,4811
10030,5025
8246,5857
8146,5643
" /> 
<polyline style="fill-rule:evenodd;"
points="14240,73275
14240,75046
13964,75046
13964,73275
14240,73275
" /> 
<polyline style="fill-rule:evenodd;"
points="18964,73275
18964,75046
18689,75046
18689,73275
18964,73275
" /> 
<polyline style="fill-rule:evenodd;"
points="18570,73275
18570,75046
18295,75046
18295,73275
18570,73275
" /> 
<polyline style="fill-rule:evenodd;"
points="18177,73275
18177,75046
17901,75046
17901,73275
18177,73275
" /> 
<polyline style="fill-rule:evenodd;"
points="17783,73275
17783,75046
17507,75046
17507,73275
17783,73275
" /> 
<polyline style="fill-rule:evenodd;"
points="17389,73275
17389,75046
17114,75046
17114,73275
17389,73275
" /> 
<polyline style="fill-rule:evenodd;"
points="16996,73275
16996,75046
16720,75046
16720,73275
16996,73275
" /> 
<polyline style="fill-rule:evenodd;"
points="16602,73275
16602,75046
16326,75046
16326,73275
16602,73275
" /> 
<polyline style="fill-rule:evenodd;"
points="16208,73275
16208,75046
15933,75046
15933,73275
16208,73275
" /> 
<polyline style="fill-rule:evenodd;"
points="15815,73275
15815,75046
15539,75046
15539,73275
15815,73275
" /> 
<polyline style="fill-rule:evenodd;"
points="15421,73275
15421,75046
15145,75046
15145,73275
15421,73275
" /> 
<polyline style="fill-rule:evenodd;"
points="15027,73275
15027,75046
14752,75046
14752,73275
15027,73275
" /> 
<polyline style="fill-rule:evenodd;"
points="14633,73275
14633,75046
14358,75046
14358,73275
14633,73275
" /> 
<polyline style="fill-rule:evenodd;"
points="16789,7301
15059,11012
14945,10698
16475,7415
16789,7301
" /> 
<polyline style="fill-rule:evenodd;"
points="17812,7344
15582,12125
15468,11811
17498,7458
17812,7344
" /> 
<polyline style="fill-rule:evenodd;"
points="18843,7368
16430,12542
16216,12442
18629,7268
18843,7368
" /> 
<polyline style="fill-rule:evenodd;"
points="23915,16054
26336,10862
26450,11176
24229,15940
23915,16054
" /> 
<polyline style="fill-rule:evenodd;"
points="22268,8966
19856,14139
19642,14040
22054,8866
22268,8966
" /> 
<polyline style="fill-rule:evenodd;"
points="21412,8566
19000,13740
18785,13640
21198,8466
21412,8566
" /> 
<polyline style="fill-rule:evenodd;"
points="19699,7768
17287,12941
17073,12842
19485,7668
19699,7768
" /> 
<polyline style="fill-rule:evenodd;"
points="20556,8167
18143,13341
17929,13241
20342,8067
20556,8167
" /> 
<polyline style="fill-rule:evenodd;"
points="23981,9764
21569,14938
21354,14838
23767,9664
23981,9764
" /> 
<polyline style="fill-rule:evenodd;"
points="23125,9365
20712,14539
20498,14439
22911,9265
23125,9365
" /> 
<polyline style="fill-rule:evenodd;"
points="24838,10164
22425,15337
22211,15238
24623,10064
24838,10164
" /> 
<polyline style="fill-rule:evenodd;"
points="25694,10563
23281,15737
23067,15637
25480,10463
25694,10563
" /> 
<polyline style="fill-rule:evenodd;"
points="15459,12111
14974,10779
15196,10698
15681,12030
15459,12111
" /> 
<polyline style="fill-rule:evenodd;"
points="15459,12111
15559,11897
24318,15981
24219,16195
15459,12111
" /> 
<polyline style="fill-rule:evenodd;"
points="24138,15974
25184,15593
25265,15815
24218,16195
24138,15974
" /> 
<polyline style="fill-rule:evenodd;"
points="25029,15900
26860,11975
26974,12289
25343,15786
25029,15900
" /> 
<polyline style="fill-rule:evenodd;"
points="18540,6901
16210,11896
15996,11797
18326,6801
18540,6901
" /> 
<polyline style="fill-rule:evenodd;"
points="21184,7938
18771,13112
18557,13012
20969,7839
21184,7938
" /> 
<polyline style="fill-rule:evenodd;"
points="20327,7539
17915,12713
17701,12613
20113,7439
20327,7539
" /> 
<polyline style="fill-rule:evenodd;"
points="19471,7140
17058,12314
16844,12214
19257,7040
19471,7140
" /> 
<polyline style="fill-rule:evenodd;"
points="22040,8338
19627,13512
19413,13412
21826,8238
22040,8338
" /> 
<polyline style="fill-rule:evenodd;"
points="22896,8737
20484,13911
20270,13811
22682,8637
22896,8737
" /> 
<polyline style="fill-rule:evenodd;"
points="23753,9136
21340,14310
21126,14210
23539,9037
23753,9136
" /> 
<polyline style="fill-rule:evenodd;"
points="24609,9536
22196,14710
21982,14610
24395,9436
24609,9536
" /> 
<polyline style="fill-rule:evenodd;"
points="25465,9935
23053,15109
22839,15009
25251,9835
25465,9935
" /> 
<polyline style="fill-rule:evenodd;"
points="23703,15390
26033,10395
26247,10495
23917,15490
23703,15390
" /> 
<polyline style="fill-rule:evenodd;"
points="24643,15611
26739,11116
26854,11429
24957,15497
24643,15611
" /> 
<polyline style="fill-rule:evenodd;"
points="17430,7046
15541,11096
15427,10782
17116,7160
17430,7046
" /> 
<polyline style="fill-rule:evenodd;"
points="18551,6889
17294,7347
17213,7125
18471,6667
18551,6889
" /> 
<polyline style="fill-rule:evenodd;"
points="26772,10533
26672,10747
18376,6879
18476,6665
26772,10533
" /> 
<polyline style="fill-rule:evenodd;"
points="25652,15682
27333,12079
27447,12393
25966,15568
25652,15682
" /> 
<polyline style="fill-rule:evenodd;"
points="26771,10531
27444,12381
27222,12461
26549,10612
26771,10531
" /> 
<polyline style="fill-rule:evenodd;"
points="8944,21129
4850,21129
5086,20893
8708,20893
8944,21129
" /> 
<polyline style="fill-rule:evenodd;"
points="9338,22074
4063,22074
4299,21838
9102,21838
9338,22074
" /> 
<polyline style="fill-rule:evenodd;"
points="9752,23019
4043,23019
4043,22782
9752,22782
9752,23019
" /> 
<polyline style="fill-rule:evenodd;"
points="4023,31286
9752,31286
9515,31523
4259,31523
4023,31286
" /> 
<polyline style="fill-rule:evenodd;"
points="9752,26798
4043,26798
4043,26562
9752,26562
9752,26798
" /> 
<polyline style="fill-rule:evenodd;"
points="9752,25853
4043,25853
4043,25617
9752,25617
9752,25853
" /> 
<polyline style="fill-rule:evenodd;"
points="9752,23963
4043,23963
4043,23727
9752,23727
9752,23963
" /> 
<polyline style="fill-rule:evenodd;"
points="9752,24908
4043,24908
4043,24672
9752,24672
9752,24908
" /> 
<polyline style="fill-rule:evenodd;"
points="9752,28688
4043,28688
4043,28452
9752,28452
9752,28688
" /> 
<polyline style="fill-rule:evenodd;"
points="9752,27743
4043,27743
4043,27507
9752,27507
9752,27743
" /> 
<polyline style="fill-rule:evenodd;"
points="9752,29633
4043,29633
4043,29397
9752,29397
9752,29633
" /> 
<polyline style="fill-rule:evenodd;"
points="9752,30578
4043,30578
4043,30341
9752,30341
9752,30578
" /> 
<polyline style="fill-rule:evenodd;"
points="4023,21956
5025,20954
5192,21121
4190,22123
4023,21956
" /> 
<polyline style="fill-rule:evenodd;"
points="4023,21956
4259,21956
4259,31621
4023,31621
4023,21956
" /> 
<polyline style="fill-rule:evenodd;"
points="4190,31454
4978,32241
4811,32408
4023,31621
4190,31454
" /> 
<polyline style="fill-rule:evenodd;"
points="4633,32231
8964,32231
8728,32467
4870,32467
4633,32231
" /> 
<polyline style="fill-rule:evenodd;"
points="10047,22546
4535,22546
4535,22310
10047,22310
10047,22546
" /> 
<polyline style="fill-rule:evenodd;"
points="10224,25381
4515,25381
4515,25145
10224,25145
10224,25381
" /> 
<polyline style="fill-rule:evenodd;"
points="10224,24436
4515,24436
4515,24200
10224,24200
10224,24436
" /> 
<polyline style="fill-rule:evenodd;"
points="10224,23491
4515,23491
4515,23255
10224,23255
10224,23491
" /> 
<polyline style="fill-rule:evenodd;"
points="10224,26326
4515,26326
4515,26089
10224,26089
10224,26326
" /> 
<polyline style="fill-rule:evenodd;"
points="10224,27271
4515,27271
4515,27034
10224,27034
10224,27271
" /> 
<polyline style="fill-rule:evenodd;"
points="10224,28215
4515,28215
4515,27979
10224,27979
10224,28215
" /> 
<polyline style="fill-rule:evenodd;"
points="10224,29160
4515,29160
4515,28924
10224,28924
10224,29160
" /> 
<polyline style="fill-rule:evenodd;"
points="10224,30105
4515,30105
4515,29869
10224,29869
10224,30105
" /> 
<polyline style="fill-rule:evenodd;"
points="4535,30814
10047,30814
10047,31050
4535,31050
4535,30814
" /> 
<polyline style="fill-rule:evenodd;"
points="4732,31759
9692,31759
9456,31995
4968,31995
4732,31759
" /> 
<polyline style="fill-rule:evenodd;"
points="9446,21601
4978,21601
5214,21365
9210,21365
9446,21601
" /> 
<polyline style="fill-rule:evenodd;"
points="10063,22552
9116,21605
9283,21438
10230,22385
10063,22552
" /> 
<polyline style="fill-rule:evenodd;"
points="10234,31542
9998,31542
9998,22389
10234,22389
10234,31542
" /> 
<polyline style="fill-rule:evenodd;"
points="5094,32704
9070,32704
8834,32940
5330,32940
5094,32704
" /> 
<polyline style="fill-rule:evenodd;"
points="10236,31540
8844,32932
8677,32765
10069,31373
10236,31540
" /> 
<polyline style="fill-rule:evenodd;"
points="19181,23491
15086,23491
15322,23255
18944,23255
19181,23491
" /> 
<polyline style="fill-rule:evenodd;"
points="19574,24436
14299,24436
14535,24200
19338,24200
19574,24436
" /> 
<polyline style="fill-rule:evenodd;"
points="19988,25381
14279,25381
14279,25145
19988,25145
19988,25381
" /> 
<polyline style="fill-rule:evenodd;"
points="14259,33649
19988,33649
19752,33885
14496,33885
14259,33649
" /> 
<polyline style="fill-rule:evenodd;"
points="19988,29160
14279,29160
14279,28924
19988,28924
19988,29160
" /> 
<polyline style="fill-rule:evenodd;"
points="19988,28215
14279,28215
14279,27979
19988,27979
19988,28215
" /> 
<polyline style="fill-rule:evenodd;"
points="19988,26326
14279,26326
14279,26089
19988,26089
19988,26326
" /> 
<polyline style="fill-rule:evenodd;"
points="19988,27271
14279,27271
14279,27034
19988,27034
19988,27271
" /> 
<polyline style="fill-rule:evenodd;"
points="19988,31050
14279,31050
14279,30814
19988,30814
19988,31050
" /> 
<polyline style="fill-rule:evenodd;"
points="19988,30105
14279,30105
14279,29869
19988,29869
19988,30105
" /> 
<polyline style="fill-rule:evenodd;"
points="19988,31995
14279,31995
14279,31759
19988,31759
19988,31995
" /> 
<polyline style="fill-rule:evenodd;"
points="19988,32940
14279,32940
14279,32704
19988,32704
19988,32940
" /> 
<polyline style="fill-rule:evenodd;"
points="14259,24318
15262,23316
15429,23483
14426,24485
14259,24318
" /> 
<polyline style="fill-rule:evenodd;"
points="14259,24318
14496,24318
14496,33983
14259,33983
14259,24318
" /> 
<polyline style="fill-rule:evenodd;"
points="14426,33816
15214,34604
15047,34771
14259,33983
14426,33816
" /> 
<polyline style="fill-rule:evenodd;"
points="14870,34593
19200,34593
18964,34830
15106,34830
14870,34593
" /> 
<polyline style="fill-rule:evenodd;"
points="20283,24908
14771,24908
14771,24672
20283,24672
20283,24908
" /> 
<polyline style="fill-rule:evenodd;"
points="20460,27743
14752,27743
14752,27507
20460,27507
20460,27743
" /> 
<polyline style="fill-rule:evenodd;"
points="20460,26798
14752,26798
14752,26562
20460,26562
20460,26798
" /> 
<polyline style="fill-rule:evenodd;"
points="20460,25853
14752,25853
14752,25617
20460,25617
20460,25853
" /> 
<polyline style="fill-rule:evenodd;"
points="20460,28688
14752,28688
14752,28452
20460,28452
20460,28688
" /> 
<polyline style="fill-rule:evenodd;"
points="20460,29633
14752,29633
14752,29397
20460,29397
20460,29633
" /> 
<polyline style="fill-rule:evenodd;"
points="20460,30578
14752,30578
14752,30341
20460,30341
20460,30578
" /> 
<polyline style="fill-rule:evenodd;"
points="20460,31523
14752,31523
14752,31286
20460,31286
20460,31523
" /> 
<polyline style="fill-rule:evenodd;"
points="20460,32467
14752,32467
14752,32231
20460,32231
20460,32467
" /> 
<polyline style="fill-rule:evenodd;"
points="14771,33176
20283,33176
20283,33412
14771,33412
14771,33176
" /> 
<polyline style="fill-rule:evenodd;"
points="14968,34121
19929,34121
19692,34357
15204,34357
14968,34121
" /> 
<polyline style="fill-rule:evenodd;"
points="19683,23963
15214,23963
15450,23727
19446,23727
19683,23963
" /> 
<polyline style="fill-rule:evenodd;"
points="20299,24914
19352,23967
19519,23800
20466,24747
20299,24914
" /> 
<polyline style="fill-rule:evenodd;"
points="20470,33904
20234,33904
20234,24751
20470,24751
20470,33904
" /> 
<polyline style="fill-rule:evenodd;"
points="15330,35066
19307,35066
19070,35302
15567,35302
15330,35066
" /> 
<polyline style="fill-rule:evenodd;"
points="20472,33902
19080,35294
18913,35127
20305,33735
20472,33902
" /> 
<polyline style="fill-rule:evenodd;"
points="29417,26641
25322,26641
25559,26404
29181,26404
29417,26641
" /> 
<polyline style="fill-rule:evenodd;"
points="29811,27586
24535,27586
24771,27349
29574,27349
29811,27586
" /> 
<polyline style="fill-rule:evenodd;"
points="30224,28530
24515,28530
24515,28294
30224,28294
30224,28530
" /> 
<polyline style="fill-rule:evenodd;"
points="24496,36798
30224,36798
29988,37034
24732,37034
24496,36798
" /> 
<polyline style="fill-rule:evenodd;"
points="30224,32310
24515,32310
24515,32074
30224,32074
30224,32310
" /> 
<polyline style="fill-rule:evenodd;"
points="30224,31365
24515,31365
24515,31129
30224,31129
30224,31365
" /> 
<polyline style="fill-rule:evenodd;"
points="30224,29475
24515,29475
24515,29239
30224,29239
30224,29475
" /> 
<polyline style="fill-rule:evenodd;"
points="30224,30420
24515,30420
24515,30184
30224,30184
30224,30420
" /> 
<polyline style="fill-rule:evenodd;"
points="30224,34200
24515,34200
24515,33963
30224,33963
30224,34200
" /> 
<polyline style="fill-rule:evenodd;"
points="30224,33255
24515,33255
24515,33019
30224,33019
30224,33255
" /> 
<polyline style="fill-rule:evenodd;"
points="30224,35145
24515,35145
24515,34908
30224,34908
30224,35145
" /> 
<polyline style="fill-rule:evenodd;"
points="30224,36089
24515,36089
24515,35853
30224,35853
30224,36089
" /> 
<polyline style="fill-rule:evenodd;"
points="24496,27468
25498,26465
25665,26633
24663,27635
24496,27468
" /> 
<polyline style="fill-rule:evenodd;"
points="24496,27467
24732,27467
24732,37133
24496,37133
24496,27467
" /> 
<polyline style="fill-rule:evenodd;"
points="24663,36966
25450,37753
25283,37920
24496,37133
24663,36966
" /> 
<polyline style="fill-rule:evenodd;"
points="25106,37743
29437,37743
29200,37979
25342,37979
25106,37743
" /> 
<polyline style="fill-rule:evenodd;"
points="30519,28058
25007,28058
25007,27822
30519,27822
30519,28058
" /> 
<polyline style="fill-rule:evenodd;"
points="30696,30893
24988,30893
24988,30656
30696,30656
30696,30893
" /> 
<polyline style="fill-rule:evenodd;"
points="30696,29948
24988,29948
24988,29712
30696,29712
30696,29948
" /> 
<polyline style="fill-rule:evenodd;"
points="30696,29003
24988,29003
24988,28767
30696,28767
30696,29003
" /> 
<polyline style="fill-rule:evenodd;"
points="30696,31838
24988,31838
24988,31601
30696,31601
30696,31838
" /> 
<polyline style="fill-rule:evenodd;"
points="30696,32782
24988,32782
24988,32546
30696,32546
30696,32782
" /> 
<polyline style="fill-rule:evenodd;"
points="30696,33727
24988,33727
24988,33491
30696,33491
30696,33727
" /> 
<polyline style="fill-rule:evenodd;"
points="30696,34672
24988,34672
24988,34436
30696,34436
30696,34672
" /> 
<polyline style="fill-rule:evenodd;"
points="30696,35617
24988,35617
24988,35381
30696,35381
30696,35617
" /> 
<polyline style="fill-rule:evenodd;"
points="25007,36326
30519,36326
30519,36562
25007,36562
25007,36326
" /> 
<polyline style="fill-rule:evenodd;"
points="25204,37271
30165,37271
29929,37507
25441,37507
25204,37271
" /> 
<polyline style="fill-rule:evenodd;"
points="29919,27113
25450,27113
25687,26877
29683,26877
29919,27113
" /> 
<polyline style="fill-rule:evenodd;"
points="30535,28064
29588,27117
29756,26950
30702,27897
30535,28064
" /> 
<polyline style="fill-rule:evenodd;"
points="30706,37054
30470,37054
30470,27900
30706,27900
30706,37054
" /> 
<polyline style="fill-rule:evenodd;"
points="25567,38215
29543,38215
29307,38452
25803,38452
25567,38215
" /> 
<polyline style="fill-rule:evenodd;"
points="30708,37052
29316,38444
29149,38277
30541,36885
30708,37052
" /> 
<polyline style="fill-rule:evenodd;"
points="12685,37467
8590,37467
8826,37231
12448,37231
12685,37467
" /> 
<polyline style="fill-rule:evenodd;"
points="13078,38412
7803,38412
8039,38176
12842,38176
13078,38412
" /> 
<polyline style="fill-rule:evenodd;"
points="13492,39357
7783,39357
7783,39121
13492,39121
13492,39357
" /> 
<polyline style="fill-rule:evenodd;"
points="7763,47625
13492,47625
13255,47861
8000,47861
7763,47625
" /> 
<polyline style="fill-rule:evenodd;"
points="13492,43137
7783,43137
7783,42900
13492,42900
13492,43137
" /> 
<polyline style="fill-rule:evenodd;"
points="13492,42192
7783,42192
7783,41956
13492,41956
13492,42192
" /> 
<polyline style="fill-rule:evenodd;"
points="13492,40302
7783,40302
7783,40066
13492,40066
13492,40302
" /> 
<polyline style="fill-rule:evenodd;"
points="13492,41247
7783,41247
7783,41011
13492,41011
13492,41247
" /> 
<polyline style="fill-rule:evenodd;"
points="13492,45026
7783,45026
7783,44790
13492,44790
13492,45026
" /> 
<polyline style="fill-rule:evenodd;"
points="13492,44082
7783,44082
7783,43845
13492,43845
13492,44082
" /> 
<polyline style="fill-rule:evenodd;"
points="13492,45971
7783,45971
7783,45735
13492,45735
13492,45971
" /> 
<polyline style="fill-rule:evenodd;"
points="13492,46916
7783,46916
7783,46680
13492,46680
13492,46916
" /> 
<polyline style="fill-rule:evenodd;"
points="7763,38294
8766,37292
8933,37459
7930,38461
7763,38294
" /> 
<polyline style="fill-rule:evenodd;"
points="7763,38294
8000,38294
8000,47960
7763,47960
7763,38294
" /> 
<polyline style="fill-rule:evenodd;"
points="7930,47792
8718,48580
8551,48747
7763,47960
7930,47792
" /> 
<polyline style="fill-rule:evenodd;"
points="8374,48570
12704,48570
12468,48806
8610,48806
8374,48570
" /> 
<polyline style="fill-rule:evenodd;"
points="13787,38885
8275,38885
8275,38649
13787,38649
13787,38885
" /> 
<polyline style="fill-rule:evenodd;"
points="13964,41719
8255,41719
8255,41483
13964,41483
13964,41719
" /> 
<polyline style="fill-rule:evenodd;"
points="13964,40775
8255,40775
8255,40538
13964,40538
13964,40775
" /> 
<polyline style="fill-rule:evenodd;"
points="13964,39830
8255,39830
8255,39593
13964,39593
13964,39830
" /> 
<polyline style="fill-rule:evenodd;"
points="13964,42664
8255,42664
8255,42428
13964,42428
13964,42664
" /> 
<polyline style="fill-rule:evenodd;"
points="13964,43609
8255,43609
8255,43373
13964,43373
13964,43609
" /> 
<polyline style="fill-rule:evenodd;"
points="13964,44554
8255,44554
8255,44318
13964,44318
13964,44554
" /> 
<polyline style="fill-rule:evenodd;"
points="13964,45499
8255,45499
8255,45263
13964,45263
13964,45499
" /> 
<polyline style="fill-rule:evenodd;"
points="13964,46444
8255,46444
8255,46208
13964,46208
13964,46444
" /> 
<polyline style="fill-rule:evenodd;"
points="8275,47152
13787,47152
13787,47389
8275,47389
8275,47152
" /> 
<polyline style="fill-rule:evenodd;"
points="8472,48097
13433,48097
13196,48334
8708,48334
8472,48097
" /> 
<polyline style="fill-rule:evenodd;"
points="13187,37940
8718,37940
8954,37704
12950,37704
13187,37940
" /> 
<polyline style="fill-rule:evenodd;"
points="13803,38890
12856,37944
13023,37777
13970,38723
13803,38890
" /> 
<polyline style="fill-rule:evenodd;"
points="13974,47881
13738,47881
13738,38727
13974,38727
13974,47881
" /> 
<polyline style="fill-rule:evenodd;"
points="8834,49042
12811,49042
12574,49278
9070,49278
8834,49042
" /> 
<polyline style="fill-rule:evenodd;"
points="13976,47879
12584,49271
12417,49103
13809,47712
13976,47879
" /> 
<polyline style="fill-rule:evenodd;"
points="21543,42389
17448,42389
17685,42152
21307,42152
21543,42389
" /> 
<polyline style="fill-rule:evenodd;"
points="21937,43334
16661,43334
16897,43097
21700,43097
21937,43334
" /> 
<polyline style="fill-rule:evenodd;"
points="22350,44278
16641,44278
16641,44042
22350,44042
22350,44278
" /> 
<polyline style="fill-rule:evenodd;"
points="16622,52546
22350,52546
22114,52782
16858,52782
16622,52546
" /> 
<polyline style="fill-rule:evenodd;"
points="22350,48058
16641,48058
16641,47822
22350,47822
22350,48058
" /> 
<polyline style="fill-rule:evenodd;"
points="22350,47113
16641,47113
16641,46877
22350,46877
22350,47113
" /> 
<polyline style="fill-rule:evenodd;"
points="22350,45223
16641,45223
16641,44987
22350,44987
22350,45223
" /> 
<polyline style="fill-rule:evenodd;"
points="22350,46168
16641,46168
16641,45932
22350,45932
22350,46168
" /> 
<polyline style="fill-rule:evenodd;"
points="22350,49948
16641,49948
16641,49712
22350,49712
22350,49948
" /> 
<polyline style="fill-rule:evenodd;"
points="22350,49003
16641,49003
16641,48767
22350,48767
22350,49003
" /> 
<polyline style="fill-rule:evenodd;"
points="22350,50893
16641,50893
16641,50656
22350,50656
22350,50893
" /> 
<polyline style="fill-rule:evenodd;"
points="22350,51838
16641,51838
16641,51601
22350,51601
22350,51838
" /> 
<polyline style="fill-rule:evenodd;"
points="16622,43216
17624,42214
17791,42381
16789,43383
16622,43216
" /> 
<polyline style="fill-rule:evenodd;"
points="16622,43215
16858,43215
16858,52881
16622,52881
16622,43215
" /> 
<polyline style="fill-rule:evenodd;"
points="16789,52714
17576,53501
17409,53668
16622,52881
16789,52714
" /> 
<polyline style="fill-rule:evenodd;"
points="17232,53491
21563,53491
21326,53727
17468,53727
17232,53491
" /> 
<polyline style="fill-rule:evenodd;"
points="22645,43806
17133,43806
17133,43570
22645,43570
22645,43806
" /> 
<polyline style="fill-rule:evenodd;"
points="22822,46641
17114,46641
17114,46404
22822,46404
22822,46641
" /> 
<polyline style="fill-rule:evenodd;"
points="22822,45696
17114,45696
17114,45460
22822,45460
22822,45696
" /> 
<polyline style="fill-rule:evenodd;"
points="22822,44751
17114,44751
17114,44515
22822,44515
22822,44751
" /> 
<polyline style="fill-rule:evenodd;"
points="22822,47586
17114,47586
17114,47349
22822,47349
22822,47586
" /> 
<polyline style="fill-rule:evenodd;"
points="22822,48530
17114,48530
17114,48294
22822,48294
22822,48530
" /> 
<polyline style="fill-rule:evenodd;"
points="22822,49475
17114,49475
17114,49239
22822,49239
22822,49475
" /> 
<polyline style="fill-rule:evenodd;"
points="22822,50420
17114,50420
17114,50184
22822,50184
22822,50420
" /> 
<polyline style="fill-rule:evenodd;"
points="22822,51365
17114,51365
17114,51129
22822,51129
22822,51365
" /> 
<polyline style="fill-rule:evenodd;"
points="17133,52074
22645,52074
22645,52310
17133,52310
17133,52074
" /> 
<polyline style="fill-rule:evenodd;"
points="17330,53019
22291,53019
22055,53255
17567,53255
17330,53019
" /> 
<polyline style="fill-rule:evenodd;"
points="22045,42861
17576,42861
17813,42625
21809,42625
22045,42861
" /> 
<polyline style="fill-rule:evenodd;"
points="22661,43812
21714,42865
21881,42698
22828,43645
22661,43812
" /> 
<polyline style="fill-rule:evenodd;"
points="22832,52802
22596,52802
22596,43649
22832,43649
22832,52802
" /> 
<polyline style="fill-rule:evenodd;"
points="17692,53963
21669,53963
21433,54200
17929,54200
17692,53963
" /> 
<polyline style="fill-rule:evenodd;"
points="22834,52800
21442,54192
21275,54025
22667,52633
22834,52800
" /> 
<polyline style="fill-rule:evenodd;"
points="30401,47310
26307,47310
26543,47074
30165,47074
30401,47310
" /> 
<polyline style="fill-rule:evenodd;"
points="30795,48255
25519,48255
25755,48019
30559,48019
30795,48255
" /> 
<polyline style="fill-rule:evenodd;"
points="31208,49200
25500,49200
25500,48963
31208,48963
31208,49200
" /> 
<polyline style="fill-rule:evenodd;"
points="25480,57467
31208,57467
30972,57704
25716,57704
25480,57467
" /> 
<polyline style="fill-rule:evenodd;"
points="31208,52979
25500,52979
25500,52743
31208,52743
31208,52979
" /> 
<polyline style="fill-rule:evenodd;"
points="31208,52034
25500,52034
25500,51798
31208,51798
31208,52034
" /> 
<polyline style="fill-rule:evenodd;"
points="31208,50145
25500,50145
25500,49908
31208,49908
31208,50145
" /> 
<polyline style="fill-rule:evenodd;"
points="31208,51089
25500,51089
25500,50853
31208,50853
31208,51089
" /> 
<polyline style="fill-rule:evenodd;"
points="31208,54869
25500,54869
25500,54633
31208,54633
31208,54869
" /> 
<polyline style="fill-rule:evenodd;"
points="31208,53924
25500,53924
25500,53688
31208,53688
31208,53924
" /> 
<polyline style="fill-rule:evenodd;"
points="31208,55814
25500,55814
25500,55578
31208,55578
31208,55814
" /> 
<polyline style="fill-rule:evenodd;"
points="31208,56759
25500,56759
25500,56523
31208,56523
31208,56759
" /> 
<polyline style="fill-rule:evenodd;"
points="25480,48137
26482,47135
26649,47302
25647,48304
25480,48137
" /> 
<polyline style="fill-rule:evenodd;"
points="25480,48137
25716,48137
25716,57802
25480,57802
25480,48137
" /> 
<polyline style="fill-rule:evenodd;"
points="25647,57635
26434,58423
26267,58590
25480,57802
25647,57635
" /> 
<polyline style="fill-rule:evenodd;"
points="26090,58412
30421,58412
30185,58649
26326,58649
26090,58412
" /> 
<polyline style="fill-rule:evenodd;"
points="31504,48727
25992,48727
25992,48491
31504,48491
31504,48727
" /> 
<polyline style="fill-rule:evenodd;"
points="31681,51562
25972,51562
25972,51326
31681,51326
31681,51562
" /> 
<polyline style="fill-rule:evenodd;"
points="31681,50617
25972,50617
25972,50381
31681,50381
31681,50617
" /> 
<polyline style="fill-rule:evenodd;"
points="31681,49672
25972,49672
25972,49436
31681,49436
31681,49672
" /> 
<polyline style="fill-rule:evenodd;"
points="31681,52507
25972,52507
25972,52271
31681,52271
31681,52507
" /> 
<polyline style="fill-rule:evenodd;"
points="31681,53452
25972,53452
25972,53215
31681,53215
31681,53452
" /> 
<polyline style="fill-rule:evenodd;"
points="31681,54397
25972,54397
25972,54160
31681,54160
31681,54397
" /> 
<polyline style="fill-rule:evenodd;"
points="31681,55341
25972,55341
25972,55105
31681,55105
31681,55341
" /> 
<polyline style="fill-rule:evenodd;"
points="31681,56286
25972,56286
25972,56050
31681,56050
31681,56286
" /> 
<polyline style="fill-rule:evenodd;"
points="25992,56995
31504,56995
31504,57231
25992,57231
25992,56995
" /> 
<polyline style="fill-rule:evenodd;"
points="26189,57940
31149,57940
30913,58176
26425,58176
26189,57940
" /> 
<polyline style="fill-rule:evenodd;"
points="30903,47782
26435,47782
26671,47546
30667,47546
30903,47782
" /> 
<polyline style="fill-rule:evenodd;"
points="31519,48733
30573,47786
30740,47619
31686,48566
31519,48733
" /> 
<polyline style="fill-rule:evenodd;"
points="31691,57723
31454,57723
31454,48570
31691,48570
31691,57723
" /> 
<polyline style="fill-rule:evenodd;"
points="26551,58885
30527,58885
30291,59121
26787,59121
26551,58885
" /> 
<polyline style="fill-rule:evenodd;"
points="31692,57721
30301,59113
30133,58946
31525,57554
31692,57721
" /> 
<polyline style="fill-rule:evenodd;"
points="28236,66404
24141,66404
24378,66168
28000,66168
28236,66404
" /> 
<polyline style="fill-rule:evenodd;"
points="28630,67349
23354,67349
23590,67113
28393,67113
28630,67349
" /> 
<polyline style="fill-rule:evenodd;"
points="29043,68294
23334,68294
23334,68058
29043,68058
29043,68294
" /> 
<polyline style="fill-rule:evenodd;"
points="23315,76562
29043,76562
28807,76798
23551,76798
23315,76562
" /> 
<polyline style="fill-rule:evenodd;"
points="29043,72074
23334,72074
23334,71838
29043,71838
29043,72074
" /> 
<polyline style="fill-rule:evenodd;"
points="29043,71129
23334,71129
23334,70893
29043,70893
29043,71129
" /> 
<polyline style="fill-rule:evenodd;"
points="29043,69239
23334,69239
23334,69003
29043,69003
29043,69239
" /> 
<polyline style="fill-rule:evenodd;"
points="29043,70184
23334,70184
23334,69948
29043,69948
29043,70184
" /> 
<polyline style="fill-rule:evenodd;"
points="29043,73963
23334,73963
23334,73727
29043,73727
29043,73963
" /> 
<polyline style="fill-rule:evenodd;"
points="29043,73019
23334,73019
23334,72782
29043,72782
29043,73019
" /> 
<polyline style="fill-rule:evenodd;"
points="29043,74908
23334,74908
23334,74672
29043,74672
29043,74908
" /> 
<polyline style="fill-rule:evenodd;"
points="29043,75853
23334,75853
23334,75617
29043,75617
29043,75853
" /> 
<polyline style="fill-rule:evenodd;"
points="23315,67231
24317,66229
24484,66396
23482,67398
23315,67231
" /> 
<polyline style="fill-rule:evenodd;"
points="23315,67231
23551,67231
23551,76897
23315,76897
23315,67231
" /> 
<polyline style="fill-rule:evenodd;"
points="23481,76729
24269,77517
24102,77684
23314,76897
23481,76729
" /> 
<polyline style="fill-rule:evenodd;"
points="23925,77507
28255,77507
28019,77743
24161,77743
23925,77507
" /> 
<polyline style="fill-rule:evenodd;"
points="29338,67822
23826,67822
23826,67586
29338,67586
29338,67822
" /> 
<polyline style="fill-rule:evenodd;"
points="29515,70656
23807,70656
23807,70420
29515,70420
29515,70656
" /> 
<polyline style="fill-rule:evenodd;"
points="29515,69712
23807,69712
23807,69475
29515,69475
29515,69712
" /> 
<polyline style="fill-rule:evenodd;"
points="29515,68767
23807,68767
23807,68530
29515,68530
29515,68767
" /> 
<polyline style="fill-rule:evenodd;"
points="29515,71601
23807,71601
23807,71365
29515,71365
29515,71601
" /> 
<polyline style="fill-rule:evenodd;"
points="29515,72546
23807,72546
23807,72310
29515,72310
29515,72546
" /> 
<polyline style="fill-rule:evenodd;"
points="29515,73491
23807,73491
23807,73255
29515,73255
29515,73491
" /> 
<polyline style="fill-rule:evenodd;"
points="29515,74436
23807,74436
23807,74200
29515,74200
29515,74436
" /> 
<polyline style="fill-rule:evenodd;"
points="29515,75381
23807,75381
23807,75145
29515,75145
29515,75381
" /> 
<polyline style="fill-rule:evenodd;"
points="23826,76089
29338,76089
29338,76326
23826,76326
23826,76089
" /> 
<polyline style="fill-rule:evenodd;"
points="24023,77034
28984,77034
28748,77271
24259,77271
24023,77034
" /> 
<polyline style="fill-rule:evenodd;"
points="28738,66877
24269,66877
24505,66641
28502,66641
28738,66877
" /> 
<polyline style="fill-rule:evenodd;"
points="29354,67827
28407,66881
28574,66714
29521,67660
29354,67827
" /> 
<polyline style="fill-rule:evenodd;"
points="29525,76818
29289,76818
29289,67664
29525,67664
29525,76818
" /> 
<polyline style="fill-rule:evenodd;"
points="24385,77979
28362,77979
28126,78215
24622,78215
24385,77979
" /> 
<polyline style="fill-rule:evenodd;"
points="29527,76816
28135,78208
27968,78041
29360,76649
29527,76816
" /> 
<polyline style="fill-rule:evenodd;"
points="15362,86759
15362,90853
15126,90617
15126,86995
15362,86759
" /> 
<polyline style="fill-rule:evenodd;"
points="16307,86365
16307,91641
16070,91404
16070,86601
16307,86365
" /> 
<polyline style="fill-rule:evenodd;"
points="17252,85952
17252,91660
17015,91660
17015,85952
17252,85952
" /> 
<polyline style="fill-rule:evenodd;"
points="25519,91680
25519,85952
25755,86188
25755,91444
25519,91680
" /> 
<polyline style="fill-rule:evenodd;"
points="21031,85952
21031,91660
20795,91660
20795,85952
21031,85952
" /> 
<polyline style="fill-rule:evenodd;"
points="20086,85952
20086,91660
19850,91660
19850,85952
20086,85952
" /> 
<polyline style="fill-rule:evenodd;"
points="18196,85952
18196,91660
17960,91660
17960,85952
18196,85952
" /> 
<polyline style="fill-rule:evenodd;"
points="19141,85952
19141,91660
18905,91660
18905,85952
19141,85952
" /> 
<polyline style="fill-rule:evenodd;"
points="22921,85952
22921,91660
22685,91660
22685,85952
22921,85952
" /> 
<polyline style="fill-rule:evenodd;"
points="21976,85952
21976,91660
21740,91660
21740,85952
21976,85952
" /> 
<polyline style="fill-rule:evenodd;"
points="23866,85952
23866,91660
23630,91660
23630,85952
23866,85952
" /> 
<polyline style="fill-rule:evenodd;"
points="24811,85952
24811,91660
24574,91660
24574,85952
24811,85952
" /> 
<polyline style="fill-rule:evenodd;"
points="16189,91680
15187,90678
15354,90511
16356,91513
16189,91680
" /> 
<polyline style="fill-rule:evenodd;"
points="16189,91680
16189,91444
25854,91444
25854,91680
16189,91680
" /> 
<polyline style="fill-rule:evenodd;"
points="25687,91513
26474,90726
26641,90893
25854,91680
25687,91513
" /> 
<polyline style="fill-rule:evenodd;"
points="26464,91070
26464,86739
26700,86975
26700,90834
26464,91070
" /> 
<polyline style="fill-rule:evenodd;"
points="16779,85656
16779,91168
16543,91168
16543,85656
16779,85656
" /> 
<polyline style="fill-rule:evenodd;"
points="19614,85479
19614,91188
19378,91188
19378,85479
19614,85479
" /> 
<polyline style="fill-rule:evenodd;"
points="18669,85479
18669,91188
18433,91188
18433,85479
18669,85479
" /> 
<polyline style="fill-rule:evenodd;"
points="17724,85479
17724,91188
17488,91188
17488,85479
17724,85479
" /> 
<polyline style="fill-rule:evenodd;"
points="20559,85479
20559,91188
20322,91188
20322,85479
20559,85479
" /> 
<polyline style="fill-rule:evenodd;"
points="21504,85479
21504,91188
21267,91188
21267,85479
21504,85479
" /> 
<polyline style="fill-rule:evenodd;"
points="22448,85479
22448,91188
22212,91188
22212,85479
22448,85479
" /> 
<polyline style="fill-rule:evenodd;"
points="23393,85479
23393,91188
23157,91188
23157,85479
23393,85479
" /> 
<polyline style="fill-rule:evenodd;"
points="24338,85479
24338,91188
24102,91188
24102,85479
24338,85479
" /> 
<polyline style="fill-rule:evenodd;"
points="25047,91168
25047,85656
25283,85656
25283,91168
25047,91168
" /> 
<polyline style="fill-rule:evenodd;"
points="25992,90971
25992,86011
26228,86247
26228,90735
25992,90971
" /> 
<polyline style="fill-rule:evenodd;"
points="15834,86257
15834,90725
15598,90489
15598,86493
15834,86257
" /> 
<polyline style="fill-rule:evenodd;"
points="16785,85641
15838,86587
15671,86420
16618,85474
16785,85641
" /> 
<polyline style="fill-rule:evenodd;"
points="25775,85469
25775,85706
16622,85706
16622,85469
25775,85469
" /> 
<polyline style="fill-rule:evenodd;"
points="26937,90609
26937,86633
27173,86869
27173,90373
26937,90609
" /> 
<polyline style="fill-rule:evenodd;"
points="25773,85467
27165,86859
26998,87026
25606,85634
25773,85467
" /> 
<polyline style="fill-rule:evenodd;"
points="27842,94357
23748,94357
23984,94121
27606,94121
27842,94357
" /> 
<polyline style="fill-rule:evenodd;"
points="28236,95302
22960,95302
23196,95066
28000,95066
28236,95302
" /> 
<polyline style="fill-rule:evenodd;"
points="28649,96247
22941,96247
22941,96011
28649,96011
28649,96247
" /> 
<polyline style="fill-rule:evenodd;"
points="22921,104515
28649,104515
28413,104751
23157,104751
22921,104515
" /> 
<polyline style="fill-rule:evenodd;"
points="28649,100026
22941,100026
22941,99790
28649,99790
28649,100026
" /> 
<polyline style="fill-rule:evenodd;"
points="28649,99082
22941,99082
22941,98845
28649,98845
28649,99082
" /> 
<polyline style="fill-rule:evenodd;"
points="28649,97192
22941,97192
22941,96956
28649,96956
28649,97192
" /> 
<polyline style="fill-rule:evenodd;"
points="28649,98137
22941,98137
22941,97900
28649,97900
28649,98137
" /> 
<polyline style="fill-rule:evenodd;"
points="28649,101916
22941,101916
22941,101680
28649,101680
28649,101916
" /> 
<polyline style="fill-rule:evenodd;"
points="28649,100971
22941,100971
22941,100735
28649,100735
28649,100971
" /> 
<polyline style="fill-rule:evenodd;"
points="28649,102861
22941,102861
22941,102625
28649,102625
28649,102861
" /> 
<polyline style="fill-rule:evenodd;"
points="28649,103806
22941,103806
22941,103570
28649,103570
28649,103806
" /> 
<polyline style="fill-rule:evenodd;"
points="22921,95184
23923,94182
24090,94349
23088,95351
22921,95184
" /> 
<polyline style="fill-rule:evenodd;"
points="22921,95184
23157,95184
23157,104849
22921,104849
22921,95184
" /> 
<polyline style="fill-rule:evenodd;"
points="23088,104682
23875,105470
23708,105637
22921,104849
23088,104682
" /> 
<polyline style="fill-rule:evenodd;"
points="23531,105460
27862,105460
27626,105696
23767,105696
23531,105460
" /> 
<polyline style="fill-rule:evenodd;"
points="28944,95775
23433,95775
23433,95538
28944,95538
28944,95775
" /> 
<polyline style="fill-rule:evenodd;"
points="29122,98609
23413,98609
23413,98373
29122,98373
29122,98609
" /> 
<polyline style="fill-rule:evenodd;"
points="29122,97664
23413,97664
23413,97428
29122,97428
29122,97664
" /> 
<polyline style="fill-rule:evenodd;"
points="29122,96719
23413,96719
23413,96483
29122,96483
29122,96719
" /> 
<polyline style="fill-rule:evenodd;"
points="29122,99554
23413,99554
23413,99318
29122,99318
29122,99554
" /> 
<polyline style="fill-rule:evenodd;"
points="29122,100499
23413,100499
23413,100263
29122,100263
29122,100499
" /> 
<polyline style="fill-rule:evenodd;"
points="29122,101444
23413,101444
23413,101208
29122,101208
29122,101444
" /> 
<polyline style="fill-rule:evenodd;"
points="29122,102389
23413,102389
23413,102152
29122,102152
29122,102389
" /> 
<polyline style="fill-rule:evenodd;"
points="29122,103334
23413,103334
23413,103097
29122,103097
29122,103334
" /> 
<polyline style="fill-rule:evenodd;"
points="23433,104042
28944,104042
28944,104278
23433,104278
23433,104042
" /> 
<polyline style="fill-rule:evenodd;"
points="23630,104987
28590,104987
28354,105223
23866,105223
23630,104987
" /> 
<polyline style="fill-rule:evenodd;"
points="28344,94830
23876,94830
24112,94593
28108,94593
28344,94830
" /> 
<polyline style="fill-rule:evenodd;"
points="28960,95780
28014,94834
28181,94667
29127,95613
28960,95780
" /> 
<polyline style="fill-rule:evenodd;"
points="29131,104771
28895,104771
28895,95617
29131,95617
29131,104771
" /> 
<polyline style="fill-rule:evenodd;"
points="23992,105932
27968,105932
27732,106168
24228,106168
23992,105932
" /> 
<polyline style="fill-rule:evenodd;"
points="29133,104768
27741,106160
27574,105993
28966,104601
29133,104768
" /> 
<polyline style="fill-rule:evenodd;"
points="18000,94357
13905,94357
14141,94121
17763,94121
18000,94357
" /> 
<polyline style="fill-rule:evenodd;"
points="18393,95302
13118,95302
13354,95066
18157,95066
18393,95302
" /> 
<polyline style="fill-rule:evenodd;"
points="18807,96247
13098,96247
13098,96011
18807,96011
18807,96247
" /> 
<polyline style="fill-rule:evenodd;"
points="13078,104515
18807,104515
18570,104751
13315,104751
13078,104515
" /> 
<polyline style="fill-rule:evenodd;"
points="18807,100026
13098,100026
13098,99790
18807,99790
18807,100026
" /> 
<polyline style="fill-rule:evenodd;"
points="18807,99082
13098,99082
13098,98845
18807,98845
18807,99082
" /> 
<polyline style="fill-rule:evenodd;"
points="18807,97192
13098,97192
13098,96956
18807,96956
18807,97192
" /> 
<polyline style="fill-rule:evenodd;"
points="18807,98137
13098,98137
13098,97900
18807,97900
18807,98137
" /> 
<polyline style="fill-rule:evenodd;"
points="18807,101916
13098,101916
13098,101680
18807,101680
18807,101916
" /> 
<polyline style="fill-rule:evenodd;"
points="18807,100971
13098,100971
13098,100735
18807,100735
18807,100971
" /> 
<polyline style="fill-rule:evenodd;"
points="18807,102861
13098,102861
13098,102625
18807,102625
18807,102861
" /> 
<polyline style="fill-rule:evenodd;"
points="18807,103806
13098,103806
13098,103570
18807,103570
18807,103806
" /> 
<polyline style="fill-rule:evenodd;"
points="13078,95184
14081,94182
14248,94349
13245,95351
13078,95184
" /> 
<polyline style="fill-rule:evenodd;"
points="13078,95184
13315,95184
13315,104849
13078,104849
13078,95184
" /> 
<polyline style="fill-rule:evenodd;"
points="13245,104682
14033,105470
13866,105637
13078,104849
13245,104682
" /> 
<polyline style="fill-rule:evenodd;"
points="13689,105460
18019,105460
17783,105696
13925,105696
13689,105460
" /> 
<polyline style="fill-rule:evenodd;"
points="19102,95775
13590,95775
13590,95538
19102,95538
19102,95775
" /> 
<polyline style="fill-rule:evenodd;"
points="19279,98609
13570,98609
13570,98373
19279,98373
19279,98609
" /> 
<polyline style="fill-rule:evenodd;"
points="19279,97664
13570,97664
13570,97428
19279,97428
19279,97664
" /> 
<polyline style="fill-rule:evenodd;"
points="19279,96719
13570,96719
13570,96483
19279,96483
19279,96719
" /> 
<polyline style="fill-rule:evenodd;"
points="19279,99554
13570,99554
13570,99318
19279,99318
19279,99554
" /> 
<polyline style="fill-rule:evenodd;"
points="19279,100499
13570,100499
13570,100263
19279,100263
19279,100499
" /> 
<polyline style="fill-rule:evenodd;"
points="19279,101444
13570,101444
13570,101208
19279,101208
19279,101444
" /> 
<polyline style="fill-rule:evenodd;"
points="19279,102389
13570,102389
13570,102152
19279,102152
19279,102389
" /> 
<polyline style="fill-rule:evenodd;"
points="19279,103334
13570,103334
13570,103097
19279,103097
19279,103334
" /> 
<polyline style="fill-rule:evenodd;"
points="13590,104042
19102,104042
19102,104278
13590,104278
13590,104042
" /> 
<polyline style="fill-rule:evenodd;"
points="13787,104987
18748,104987
18511,105223
14023,105223
13787,104987
" /> 
<polyline style="fill-rule:evenodd;"
points="18502,94830
14033,94830
14269,94593
18265,94593
18502,94830
" /> 
<polyline style="fill-rule:evenodd;"
points="19118,95780
18171,94834
18338,94667
19285,95613
19118,95780
" /> 
<polyline style="fill-rule:evenodd;"
points="19289,104771
19053,104771
19053,95617
19289,95617
19289,104771
" /> 
<polyline style="fill-rule:evenodd;"
points="14149,105932
18126,105932
17889,106168
14385,106168
14149,105932
" /> 
<polyline style="fill-rule:evenodd;"
points="19291,104768
17899,106160
17732,105993
19124,104601
19291,104768
" /> 
</g>
<g style="fill:#008400; fill-opacity:1.0; 
stroke:#008400; stroke-width:177.165; stroke-opacity:1; 
stroke-linecap:round; stroke-linejoin:round;">
</g>
<g style="fill:#008400; fill-opacity:0.0; 
stroke:#008400; stroke-width:177.165; stroke-opacity:1; 
stroke-linecap:round; stroke-linejoin:round;">
<path d="M14102 74160
L14102 58609
" />
<path d="M4500 34716
L4500 31931
" />
<path d="M5716 35932
L4500 34716
" />
<path d="M5716 38688
L5716 35932
" />
<path d="M7212 40184
L5716 38688
" />
<path d="M7212 48097
L7212 40184
" />
<path d="M7685 48570
L7212 48097
" />
<path d="M7685 49318
L7685 48570
" />
<path d="M10519 52152
L7685 49318
" />
<path d="M10519 55026
L10519 52152
" />
<path d="M14102 58609
L10519 55026
" />
<path d="M18826 74160
L18826 58580
" />
<path d="M13663 86617
L13663 94767
" />
<path d="M16070 84210
L13663 86617
" />
<path d="M21533 84210
L16070 84210
" />
<path d="M22025 83717
L21533 84210
" />
<path d="M22025 58816
L22025 83717
" />
<path d="M21474 58265
L22025 58816
" />
<path d="M19141 58265
L21474 58265
" />
<path d="M18826 58580
L19141 58265
" />
<path d="M18433 74160
L18433 58048
" />
<path d="M15244 86188
L15244 88806
" />
<path d="M16405 85026
L15244 86188
" />
<path d="M22045 85026
L16405 85026
" />
<path d="M22547 84525
L22045 85026
" />
<path d="M22547 58117
L22547 84525
" />
<path d="M22015 57586
L22547 58117
" />
<path d="M18895 57586
L22015 57586
" />
<path d="M18433 58048
L18895 57586
" />
<path d="M28561 90922
L28561 91473
" />
<path d="M18039 57841
L18649 57231
" />
<path d="M18649 57231
L22852 57231
" />
<path d="M22852 57231
L22881 57261
" />
<path d="M22881 57261
L22881 77428
" />
<path d="M22881 77428
L24604 79150
" />
<path d="M24604 79150
L28039 79150
" />
<path d="M28039 79150
L28561 79672
" />
<path d="M18039 74160
L18039 57841
" />
<path d="M28561 90922
L28561 79672
" />
<path d="M28561 91473
L25795 94239
" />
<path d="M17645 74160
L17645 57418
" />
<path d="M26189 59672
L26189 66286
" />
<path d="M23206 56690
L26189 59672
" />
<path d="M18374 56690
L23206 56690
" />
<path d="M17645 57418
L18374 56690
" />
<path d="M28354 52861
L24171 52861
" />
<path d="M17252 57064
L17252 74160
" />
<path d="M18255 56060
L17252 57064
" />
<path d="M20972 56060
L18255 56060
" />
<path d="M24171 52861
L20972 56060
" />
<path d="M16858 74160
L16858 56660
" />
<path d="M23275 39141
L24973 37443
" />
<path d="M23275 53019
L23275 39141
" />
<path d="M20755 55538
L23275 53019
" />
<path d="M17980 55538
L20755 55538
" />
<path d="M16858 56660
L17980 55538
" />
<path d="M19681 54082
L19681 54566
" />
<path d="M16464 56247
L16464 74160
" />
<path d="M17606 55105
L16464 56247
" />
<path d="M19141 55105
L17606 55105
" />
<path d="M19681 54566
L19141 55105
" />
</g>
<g style="fill:#008400; fill-opacity:0.0; 
stroke:#008400; stroke-width:236.22; stroke-opacity:1; 
stroke-linecap:round; stroke-linejoin:round;">
<path d="M22271 43255
L22271 31247
" />
<path d="M22271 31247
L20352 29328
" />
<path d="M18728 95223
L18728 93511
" />
<path d="M27055 91680
L27055 88621
" />
<path d="M26464 92271
L27055 91680
" />
<path d="M19968 92271
L26464 92271
" />
<path d="M18728 93511
L19968 92271
" />
<path d="M25980 106050
L22724 106050
" />
<path d="M22055 105381
L18511 105381
" />
<path d="M22724 106050
L22055 105381
" />
<path d="M28748 77428
L29732 77428
" />
<path d="M31385 97822
L29013 100194
" />
<path d="M31385 79082
L31385 97822
" />
<path d="M29732 77428
L31385 79082
" />
<path d="M28964 67271
L28964 59428
" />
<path d="M28964 59428
L28539 59003
" />
<path d="M31130 48176
L31130 38865
" />
<path d="M31130 38865
L29929 37664
" />
<path d="M30145 27507
L30145 20302
" />
<path d="M30145 20302
L27055 17212
" />
<path d="M26600 13930
L26600 14060
" />
<path d="M26600 14060
L27055 14515
" />
<path d="M27055 14515
L27055 17212
" />
<path d="M27055 17212
L19909 24357
" />
<path d="M13413 38334
L13413 37487
" />
<path d="M9456 33530
L9456 32152
" />
<path d="M13413 37487
L9456 33530
" />
<path d="M9673 21995
L9673 21149
" />
<path d="M5410 16886
L5410 14805
" />
<path d="M9673 21149
L5410 16886
" />
<path d="M11548 5517
L11548 5218
" />
<path d="M15941 5066
L17882 7007
" />
<path d="M11700 5066
L15941 5066
" />
<path d="M11548 5218
L11700 5066
" />
</g>
<g style="fill:#008400; fill-opacity:0.0; 
stroke:#008400; stroke-width:177.165; stroke-opacity:1; 
stroke-linecap:round; stroke-linejoin:round;">
<path d="M16070 74160
L16070 54219
" />
<path d="M16070 54219
L17099 53191
" />
<path d="M15677 74160
L15677 36326
" />
<path d="M14737 35386
L14737 34293
" />
<path d="M15677 36326
L14737 35386
" />
<path d="M15283 74160
L15283 55460
" />
<path d="M14102 12630
L15328 11404
" />
<path d="M14102 18412
L14102 12630
" />
<path d="M12685 19830
L14102 18412
" />
<path d="M12685 34200
L12685 19830
" />
<path d="M14811 36326
L12685 34200
" />
<path d="M14811 54987
L14811 36326
" />
<path d="M15283 55460
L14811 54987
" />
<path d="M14889 74160
L14889 55775
" />
<path d="M10637 17590
L10014 16966
" />
<path d="M10637 33688
L10637 17590
" />
<path d="M14378 37428
L10637 33688
" />
<path d="M14378 55263
L14378 37428
" />
<path d="M14889 55775
L14378 55263
" />
<path d="M14496 74160
L14496 57271
" />
<path d="M8241 49126
L8241 48270
" />
<path d="M8984 49869
L8241 49126
" />
<path d="M9496 49869
L8984 49869
" />
<path d="M11897 52271
L9496 49869
" />
<path d="M11897 54672
L11897 52271
" />
<path d="M14496 57271
L11897 54672
" />
</g>
<g style="fill:#FFFFFF; fill-opacity:0.0; 
stroke:#FFFFFF; stroke-width:177.165; stroke-opacity:1; 
stroke-linecap:round; stroke-linejoin:round;">
</g>
<g style="fill:#FFFFFF; fill-opacity:1.0; 
stroke:#FFFFFF; stroke-width:0; stroke-opacity:1; 
stroke-linecap:round; stroke-linejoin:round;">
<circle cx="20952.8" cy="107625" r="1181.1" /> 
</g>
<g style="fill:#FFFFFF; fill-opacity:1.0; 
stroke:#FFFFFF; stroke-width:39.3701; stroke-opacity:1; 
stroke-linecap:round; stroke-linejoin:round;">
</g>
<g style="fill:#FFFFFF; fill-opacity:1.0; 
stroke:#FFFFFF; stroke-width:0; stroke-opacity:1; 
stroke-linecap:round; stroke-linejoin:round;">
<circle cx="28433.2" cy="42271.1" r="1181.1" /> 
</g>
<g style="fill:#FFFFFF; fill-opacity:1.0; 
stroke:#FFFFFF; stroke-width:39.3701; stroke-opacity:1; 
stroke-linecap:round; stroke-linejoin:round;">
</g>
<g style="fill:#FFFFFF; fill-opacity:1.0; 
stroke:#FFFFFF; stroke-width:0; stroke-opacity:1; 
stroke-linecap:round; stroke-linejoin:round;">
<circle cx="17212.7" cy="18255.3" r="1181.1" /> 
</g>
<g style="fill:#FFFFFF; fill-opacity:1.0; 
stroke:#FFFFFF; stroke-width:39.3701; stroke-opacity:1; 
stroke-linecap:round; stroke-linejoin:round;">
</g>
<g style="fill:#FFFFFF; fill-opacity:1.0; 
stroke:#FFFFFF; stroke-width:0; stroke-opacity:1; 
stroke-linecap:round; stroke-linejoin:round;">
<circle cx="26267.8" cy="81247.4" r="1181.1" /> 
</g>
<g style="fill:#FFFFFF; fill-opacity:1.0; 
stroke:#FFFFFF; stroke-width:39.3701; stroke-opacity:1; 
stroke-linecap:round; stroke-linejoin:round;">
</g>
<g style="fill:#000000; fill-opacity:1.0; 
stroke:#000000; stroke-width:39.3701; stroke-opacity:1; 
stroke-linecap:round; stroke-linejoin:round;">
</g>
<g style="fill:#C2C200; fill-opacity:1.0; 
stroke:#C2C200; stroke-width:39.3701; stroke-opacity:1; 
stroke-linecap:round; stroke-linejoin:round;">
</g>
<g style="fill:#C2C200; fill-opacity:1.0; 
stroke:#C2C200; stroke-width:59.0551; stroke-opacity:1; 
stroke-linecap:round; stroke-linejoin:round;">
</g>
<g style="fill:#C2C200; fill-opacity:0.0; 
stroke:#C2C200; stroke-width:59.0551; stroke-opacity:1; 
stroke-linecap:round; stroke-linejoin:round;">
<circle cx="20952.8" cy="107625" r="1181.1" /> 
<path d="M29259 104790
L29259 104830
" />
</g>
<g style="fill:#C2C200; fill-opacity:1.0; 
stroke:#C2C200; stroke-width:3.93701; stroke-opacity:1; 
stroke-linecap:round; stroke-linejoin:round;">
<polyline style="fill-rule:evenodd;"
points="14235,260
12740,559
11302,1047
9940,1714
8669,2551
7507,3548
6471,4697
5871,5523
4515,7756
3332,10103
2323,12562
1489,15129
831,17801
351,20574
351,20575
287,21176
236,21942
197,22830
171,23800
159,24809
160,25815
175,26776
203,27649
246,28394
296,28909
551,30674
859,32328
1235,33921
1692,35503
2245,37122
2906,38830
3290,39749
4467,42605
5518,45345
6454,48005
7288,50626
8033,53244
8700,55897
9109,57711
9446,59273
13648,59330
13648,75054
19273,75054
19273,59325
21043,59325
21043,83388
11056,83388
11001,83830
10966,84156
10926,84598
10888,85066
10885,85106
10745,86690
10553,88409
10316,90202
10044,92007
9744,93761
9508,95002
9367,95725
9266,96304
9199,96801
9158,97275
9138,97787
9131,98396
9131,98492
9138,99221
9162,99802
9209,100292
9284,100750
9354,101075
9805,102578
10436,103989
11233,105294
12183,106482
13273,107538
14490,108450
15822,109204
17255,109789
18411,110113
18956,110204
19646,110271
20420,110311
21217,110325
21978,110309
22641,110265
23058,110207
24480,109843
25889,109298
27229,108595
27724,108281
28260,107873
28861,107336
29482,106716
30079,106061
30605,105418
31017,104833
31036,104802
31720,103528
32288,102112
32530,101340
32576,101173
32616,101013
32650,100844
32677,100648
32700,100409
32717,100109
32730,99733
32739,99263
32745,98683
32747,97975
32747,97124
32745,96111
32741,94920
32737,93804
32740,87228
32799,80834
32914,74601
33087,68511
33317,62544
33606,56681
33954,50902
34363,45187
34538,42971
34644,41674
34733,40559
34806,39604
34866,38782
34912,38070
34947,37444
34972,36878
34987,36348
34993,35830
34993,35638
34890,35638
34886,36156
34874,36677
34854,37225
34823,37825
34781,38501
34726,39277
34658,40179
34575,41230
34477,42455
34435,42971
34010,48563
33644,54191
33335,59878
33083,65645
32887,71515
32747,77508
32660,83647
32627,89953
32633,93700
32637,95060
32641,96228
32643,97221
32643,98056
32640,98749
32634,99316
32624,99775
32611,100143
32593,100435
32570,100668
32542,100860
32509,101026
32469,101184
32429,101325
31883,102902
31183,104338
30331,105633
29325,106787
28165,107800
26851,108674
26484,108878
25087,109512
23624,109957
22121,110209
20601,110263
19090,110117
19000,110101
17458,109731
16010,109175
14657,108434
13402,107509
12438,106605
11439,105420
10617,104129
9978,102741
9523,101266
9258,99711
9202,99013
9185,98614
9181,98248
9194,97882
9227,97487
9284,97030
9369,96479
9484,95804
9635,94972
9730,94461
10129,92173
10453,89980
10716,87791
10843,86513
10909,85815
10970,85169
11025,84611
11070,84174
11101,83894
11109,83830
11157,83492
21148,83492
21148,59221
19168,59221
19168,74950
13752,74950
13752,59225
9546,59169
9056,56980
8172,53360
7151,49809
5979,46283
4644,42742
3595,40211
2906,38553
2321,37026
1827,35587
1413,34195
1067,32807
775,31381
527,29874
456,29377
382,28685
325,27830
285,26855
263,25804
258,24720
271,23646
301,22627
348,21704
412,20923
454,20575
939,17800
1602,15124
2443,12551
3461,10084
4653,7726
5922,5631
6862,4381
7934,3285
9119,2349
10403,1578
11768,979
13198,557
14676,320
16187,272
17713,420
19148,744
20588,1268
21938,1979
23192,2872
24347,3946
25397,5194
25599,5471
27284,8017
28823,10700
30208,13500
31428,16395
32474,19365
33337,22389
33370,22518
33859,24637
34242,26669
34527,28678
34724,30728
34839,32883
34866,33856
34879,34513
34887,35098
34890,35638
34993,35638
34993,35300
34986,34732
34975,34103
34970,33856
34868,31341
34661,28951
34343,26627
33904,24311
33335,21941
33111,21113
32173,18110
31048,15158
29748,12281
28282,9502
26663,6844
25695,5419
24668,4133
23531,3018
22292,2080
20959,1323
19542,750
18048,368
16487,179
15771,159
14235,260
" /> 
</g> 
</svg>
