G04 #@! TF.FileFunction,Copper,L1,Top,Signal*
%FSLAX46Y46*%
G04 Gerber Fmt 4.6, Leading zero omitted, Abs format (unit mm)*
G04 Created by KiCad (PCBNEW 4.0.6) date 04/28/18 22:27:00*
%MOMM*%
%LPD*%
G01*
G04 APERTURE LIST*
%ADD10C,0.100000*%
%ADD11R,0.700000X4.500000*%
%ADD12R,14.500000X0.600000*%
%ADD13R,0.600000X24.550000*%
%ADD14R,14.000000X0.600000*%
%ADD15R,0.600000X23.250000*%
%ADD16R,0.600000X14.500000*%
%ADD17R,24.550000X0.600000*%
%ADD18R,0.600000X14.000000*%
%ADD19R,23.250000X0.600000*%
%ADD20C,0.450000*%
%ADD21C,0.600000*%
G04 APERTURE END LIST*
D10*
G36*
X31009669Y-61437214D02*
X40782473Y-64994224D01*
X40013445Y-65352827D01*
X31368273Y-62206242D01*
X31009669Y-61437214D01*
X31009669Y-61437214D01*
G37*
G36*
X30890824Y-58839932D02*
X43482706Y-63423002D01*
X42713678Y-63781606D01*
X31249428Y-59608960D01*
X30890824Y-58839932D01*
X30890824Y-58839932D01*
G37*
G36*
X30724996Y-56225548D02*
X44350539Y-61184840D01*
X44145326Y-61748656D01*
X30519783Y-56789364D01*
X30724996Y-56225548D01*
X30724996Y-56225548D01*
G37*
G36*
X51579947Y-41468396D02*
X37907419Y-36492003D01*
X38676447Y-36133400D01*
X51221343Y-40699369D01*
X51579947Y-41468396D01*
X51579947Y-41468396D01*
G37*
G36*
X34008390Y-47204499D02*
X47633933Y-52163791D01*
X47428720Y-52727607D01*
X33803177Y-47768315D01*
X34008390Y-47204499D01*
X34008390Y-47204499D01*
G37*
G36*
X33187541Y-49459762D02*
X46813084Y-54419054D01*
X46607871Y-54982870D01*
X32982328Y-50023578D01*
X33187541Y-49459762D01*
X33187541Y-49459762D01*
G37*
G36*
X31545845Y-53970286D02*
X45171388Y-58929578D01*
X44966175Y-59493394D01*
X31340632Y-54534102D01*
X31545845Y-53970286D01*
X31545845Y-53970286D01*
G37*
G36*
X32366693Y-51715024D02*
X45992236Y-56674316D01*
X45787023Y-57238132D01*
X32161480Y-52278840D01*
X32366693Y-51715024D01*
X32366693Y-51715024D01*
G37*
G36*
X35650086Y-42693975D02*
X49275629Y-47653267D01*
X49070416Y-48217083D01*
X35444873Y-43257791D01*
X35650086Y-42693975D01*
X35650086Y-42693975D01*
G37*
G36*
X34829238Y-44949237D02*
X48454781Y-49908529D01*
X48249568Y-50472345D01*
X34624025Y-45513053D01*
X34829238Y-44949237D01*
X34829238Y-44949237D01*
G37*
G36*
X36470935Y-40438712D02*
X50096478Y-45398004D01*
X49891265Y-45961820D01*
X36265722Y-41002528D01*
X36470935Y-40438712D01*
X36470935Y-40438712D01*
G37*
G36*
X37291783Y-38183450D02*
X50917326Y-43142742D01*
X50712113Y-43706558D01*
X37086570Y-38747266D01*
X37291783Y-38183450D01*
X37291783Y-38183450D01*
G37*
G36*
X43474223Y-63738465D02*
X40211515Y-65259891D01*
X39957945Y-64716107D01*
X43220653Y-63194681D01*
X43474223Y-63738465D01*
X43474223Y-63738465D01*
G37*
G36*
X43474070Y-63739112D02*
X42910254Y-63533900D01*
X51306848Y-40464446D01*
X51870664Y-40669658D01*
X43474070Y-63739112D01*
X43474070Y-63739112D01*
G37*
G36*
X51327075Y-40923375D02*
X50131488Y-38359430D01*
X50675273Y-38105859D01*
X51870860Y-40669804D01*
X51327075Y-40923375D01*
X51327075Y-40923375D01*
G37*
G36*
X50944271Y-38683004D02*
X40607653Y-34920782D01*
X41376680Y-34562179D01*
X50585668Y-37913976D01*
X50944271Y-38683004D01*
X50944271Y-38683004D01*
G37*
G36*
X29609802Y-57096664D02*
X42765498Y-61884946D01*
X42560286Y-62448762D01*
X29404590Y-57660480D01*
X29609802Y-57096664D01*
X29609802Y-57096664D01*
G37*
G36*
X31649486Y-50176968D02*
X45275029Y-55136260D01*
X45069816Y-55700076D01*
X31444273Y-50740784D01*
X31649486Y-50176968D01*
X31649486Y-50176968D01*
G37*
G36*
X30828638Y-52432231D02*
X44454181Y-57391523D01*
X44248968Y-57955339D01*
X30623425Y-52996047D01*
X30828638Y-52432231D01*
X30828638Y-52432231D01*
G37*
G36*
X30007789Y-54687493D02*
X43633332Y-59646785D01*
X43428119Y-60210601D01*
X29802576Y-55251309D01*
X30007789Y-54687493D01*
X30007789Y-54687493D01*
G37*
G36*
X32470334Y-47921706D02*
X46095877Y-52880998D01*
X45890664Y-53444814D01*
X32265121Y-48485522D01*
X32470334Y-47921706D01*
X32470334Y-47921706D01*
G37*
G36*
X33291183Y-45666444D02*
X46916726Y-50625736D01*
X46711513Y-51189552D01*
X33085970Y-46230260D01*
X33291183Y-45666444D01*
X33291183Y-45666444D01*
G37*
G36*
X34112031Y-43411182D02*
X47737574Y-48370474D01*
X47532361Y-48934290D01*
X33906818Y-43974998D01*
X34112031Y-43411182D01*
X34112031Y-43411182D01*
G37*
G36*
X34932879Y-41155919D02*
X48558422Y-46115211D01*
X48353209Y-46679027D01*
X34727666Y-41719735D01*
X34932879Y-41155919D01*
X34932879Y-41155919D01*
G37*
G36*
X35753728Y-38900657D02*
X49379271Y-43859949D01*
X49174058Y-44423765D01*
X35548515Y-39464473D01*
X35753728Y-38900657D01*
X35753728Y-38900657D01*
G37*
G36*
X49947922Y-42151402D02*
X36792226Y-37363120D01*
X36997438Y-36799304D01*
X50153134Y-41587586D01*
X49947922Y-42151402D01*
X49947922Y-42151402D01*
G37*
G36*
X50298923Y-39725130D02*
X38458796Y-35415676D01*
X39227824Y-35057072D01*
X49940320Y-38956102D01*
X50298923Y-39725130D01*
X50298923Y-39725130D01*
G37*
G36*
X30221985Y-59873508D02*
X40887497Y-63755437D01*
X40118469Y-64114040D01*
X30580589Y-60642536D01*
X30221985Y-59873508D01*
X30221985Y-59873508D01*
G37*
G36*
X29577123Y-57069644D02*
X31014025Y-60151091D01*
X30470241Y-60404662D01*
X29033339Y-57323215D01*
X29577123Y-57069644D01*
X29577123Y-57069644D01*
G37*
G36*
X36978608Y-35462228D02*
X37542424Y-35667440D01*
X29590456Y-57515294D01*
X29026640Y-57310082D01*
X36978608Y-35462228D01*
X36978608Y-35462228D01*
G37*
G36*
X50255255Y-37155209D02*
X40764359Y-33700805D01*
X41533387Y-33342202D01*
X49896651Y-36386181D01*
X50255255Y-37155209D01*
X50255255Y-37155209D01*
G37*
G36*
X36972078Y-35465848D02*
X41503617Y-33352757D01*
X41757188Y-33896542D01*
X37225649Y-36009633D01*
X36972078Y-35465848D01*
X36972078Y-35465848D01*
G37*
D11*
X52100000Y-209500000D03*
X64100000Y-209500000D03*
X63100000Y-209500000D03*
X62100000Y-209500000D03*
X61100000Y-209500000D03*
X60100000Y-209500000D03*
X59100000Y-209500000D03*
X58100000Y-209500000D03*
X57100000Y-209500000D03*
X56100000Y-209500000D03*
X55100000Y-209500000D03*
X54100000Y-209500000D03*
X53100000Y-209500000D03*
D10*
G36*
X58925731Y-39677509D02*
X54530501Y-49103110D01*
X54240288Y-48305754D01*
X58128376Y-39967723D01*
X58925731Y-39677509D01*
X58925731Y-39677509D01*
G37*
G36*
X61523488Y-39785485D02*
X55860403Y-51930010D01*
X55570189Y-51132654D01*
X60726132Y-40075699D01*
X61523488Y-39785485D01*
X61523488Y-39785485D01*
G37*
G36*
X64142376Y-39848146D02*
X58014411Y-52989609D01*
X57470626Y-52736038D01*
X63598591Y-39594575D01*
X64142376Y-39848146D01*
X64142376Y-39848146D01*
G37*
G36*
X77025744Y-61909908D02*
X83174840Y-48723129D01*
X83465053Y-49520485D01*
X77823099Y-61619694D01*
X77025744Y-61909908D01*
X77025744Y-61909908D01*
G37*
G36*
X72842931Y-43905281D02*
X66714966Y-57046744D01*
X66171181Y-56793173D01*
X72299146Y-43651710D01*
X72842931Y-43905281D01*
X72842931Y-43905281D01*
G37*
G36*
X70667792Y-42890997D02*
X64539827Y-56032460D01*
X63996042Y-55778889D01*
X70124007Y-42637426D01*
X70667792Y-42890997D01*
X70667792Y-42890997D01*
G37*
G36*
X66317515Y-40862429D02*
X60189550Y-54003892D01*
X59645765Y-53750321D01*
X65773730Y-40608858D01*
X66317515Y-40862429D01*
X66317515Y-40862429D01*
G37*
G36*
X68492654Y-41876713D02*
X62364689Y-55018176D01*
X61820904Y-54764605D01*
X67948869Y-41623142D01*
X68492654Y-41876713D01*
X68492654Y-41876713D01*
G37*
G36*
X77193208Y-45933849D02*
X71065243Y-59075312D01*
X70521458Y-58821741D01*
X76649423Y-45680278D01*
X77193208Y-45933849D01*
X77193208Y-45933849D01*
G37*
G36*
X75018070Y-44919565D02*
X68890105Y-58061028D01*
X68346320Y-57807457D01*
X74474285Y-44665994D01*
X75018070Y-44919565D01*
X75018070Y-44919565D01*
G37*
G36*
X79368347Y-46948132D02*
X73240382Y-60089595D01*
X72696597Y-59836024D01*
X78824562Y-46694561D01*
X79368347Y-46948132D01*
X79368347Y-46948132D01*
G37*
G36*
X81543486Y-47962416D02*
X75415521Y-61103879D01*
X74871736Y-60850308D01*
X80999701Y-47708845D01*
X81543486Y-47962416D01*
X81543486Y-47962416D01*
G37*
G36*
X55546879Y-51894065D02*
X54315607Y-48511171D01*
X54879423Y-48305959D01*
X56110695Y-51688853D01*
X55546879Y-51894065D01*
X55546879Y-51894065D01*
G37*
G36*
X55546249Y-51893854D02*
X55799820Y-51350070D01*
X78049677Y-61725348D01*
X77796106Y-62269132D01*
X55546249Y-51893854D01*
X55546249Y-51893854D01*
G37*
G36*
X77590731Y-61705500D02*
X80249121Y-60737925D01*
X80454333Y-61301740D01*
X77795943Y-62269315D01*
X77590731Y-61705500D01*
X77590731Y-61705500D01*
G37*
G36*
X79855941Y-61519414D02*
X84504742Y-51550029D01*
X84794956Y-52347384D01*
X80653297Y-61229201D01*
X79855941Y-61519414D01*
X79855941Y-61519414D01*
G37*
G36*
X63371770Y-38661273D02*
X57455115Y-51349582D01*
X56911330Y-51096011D01*
X62827985Y-38407702D01*
X63371770Y-38661273D01*
X63371770Y-38661273D01*
G37*
G36*
X70087365Y-41296286D02*
X63959400Y-54437749D01*
X63415615Y-54184178D01*
X69543580Y-41042715D01*
X70087365Y-41296286D01*
X70087365Y-41296286D01*
G37*
G36*
X67912226Y-40282002D02*
X61784261Y-53423465D01*
X61240476Y-53169894D01*
X67368441Y-40028431D01*
X67912226Y-40282002D01*
X67912226Y-40282002D01*
G37*
G36*
X65737088Y-39267718D02*
X59609123Y-52409181D01*
X59065338Y-52155610D01*
X65193303Y-39014147D01*
X65737088Y-39267718D01*
X65737088Y-39267718D01*
G37*
G36*
X72262504Y-42310570D02*
X66134539Y-55452033D01*
X65590754Y-55198462D01*
X71718719Y-42056999D01*
X72262504Y-42310570D01*
X72262504Y-42310570D01*
G37*
G36*
X74437642Y-43324853D02*
X68309677Y-56466316D01*
X67765892Y-56212745D01*
X73893857Y-43071282D01*
X74437642Y-43324853D01*
X74437642Y-43324853D01*
G37*
G36*
X76612781Y-44339137D02*
X70484816Y-57480600D01*
X69941031Y-57227029D01*
X76068996Y-44085566D01*
X76612781Y-44339137D01*
X76612781Y-44339137D01*
G37*
G36*
X78787920Y-45353421D02*
X72659955Y-58494884D01*
X72116170Y-58241313D01*
X78244135Y-45099850D01*
X78787920Y-45353421D01*
X78787920Y-45353421D01*
G37*
G36*
X80963058Y-46367705D02*
X74835093Y-59509168D01*
X74291308Y-59255597D01*
X80419273Y-46114134D01*
X80963058Y-46367705D01*
X80963058Y-46367705D01*
G37*
G36*
X76487578Y-60224565D02*
X82404233Y-47536256D01*
X82948018Y-47789827D01*
X77031363Y-60478136D01*
X76487578Y-60224565D01*
X76487578Y-60224565D01*
G37*
G36*
X78874026Y-60785696D02*
X84199016Y-49366217D01*
X84489229Y-50163573D01*
X79671381Y-60495482D01*
X78874026Y-60785696D01*
X78874026Y-60785696D01*
G37*
G36*
X60552139Y-39029109D02*
X55755422Y-49315702D01*
X55465208Y-48518347D01*
X59754783Y-39319323D01*
X60552139Y-39029109D01*
X60552139Y-39029109D01*
G37*
G36*
X63401535Y-38631074D02*
X60206581Y-39793942D01*
X60001369Y-39230126D01*
X63196323Y-38067258D01*
X63401535Y-38631074D01*
X63401535Y-38631074D01*
G37*
G36*
X84281647Y-47887604D02*
X84028076Y-48431389D01*
X62956419Y-38605514D01*
X63209990Y-38061729D01*
X84281647Y-47887604D01*
X84281647Y-47887604D01*
G37*
G36*
X81437973Y-60966176D02*
X85706418Y-51812467D01*
X85996632Y-52609823D01*
X82235329Y-60675962D01*
X81437973Y-60966176D01*
X81437973Y-60966176D01*
G37*
G36*
X84278610Y-47880782D02*
X85988711Y-52579246D01*
X85424896Y-52784458D01*
X83714795Y-48085994D01*
X84278610Y-47880782D01*
X84278610Y-47880782D01*
G37*
G36*
X39000000Y-74800000D02*
X28600000Y-74800000D01*
X29200000Y-74200000D01*
X38400000Y-74200000D01*
X39000000Y-74800000D01*
X39000000Y-74800000D01*
G37*
G36*
X40000000Y-77200000D02*
X26600000Y-77200000D01*
X27200000Y-76600000D01*
X39400000Y-76600000D01*
X40000000Y-77200000D01*
X40000000Y-77200000D01*
G37*
D12*
X33800000Y-79300000D03*
D10*
G36*
X26500000Y-100600000D02*
X41050000Y-100600000D01*
X40450000Y-101200000D01*
X27100000Y-101200000D01*
X26500000Y-100600000D01*
X26500000Y-100600000D01*
G37*
D12*
X33800000Y-88900000D03*
X33800000Y-86500000D03*
X33800000Y-81700000D03*
X33800000Y-84100000D03*
X33800000Y-93700000D03*
X33800000Y-91300000D03*
X33800000Y-96100000D03*
X33800000Y-98500000D03*
D10*
G36*
X26500076Y-76900660D02*
X29045660Y-74355076D01*
X29469924Y-74779340D01*
X26924340Y-77324924D01*
X26500076Y-76900660D01*
X26500076Y-76900660D01*
G37*
D13*
X26800000Y-89175000D03*
D10*
G36*
X26924029Y-101025665D02*
X28924435Y-103026071D01*
X28500171Y-103450335D01*
X26499765Y-101449929D01*
X26924029Y-101025665D01*
X26924029Y-101025665D01*
G37*
G36*
X28050000Y-103000000D02*
X39050000Y-103000000D01*
X38450000Y-103600000D01*
X28650000Y-103600000D01*
X28050000Y-103000000D01*
X28050000Y-103000000D01*
G37*
D14*
X34800000Y-78100000D03*
D12*
X35000000Y-85300000D03*
X35000000Y-82900000D03*
X35000000Y-80500000D03*
X35000000Y-87700000D03*
X35000000Y-90100000D03*
X35000000Y-92500000D03*
X35000000Y-94900000D03*
X35000000Y-97300000D03*
D14*
X34800000Y-99700000D03*
D10*
G36*
X28300000Y-101800000D02*
X40900000Y-101800000D01*
X40300000Y-102400000D01*
X28900000Y-102400000D01*
X28300000Y-101800000D01*
X28300000Y-101800000D01*
G37*
G36*
X40275000Y-76000000D02*
X28925000Y-76000000D01*
X29525000Y-75400000D01*
X39675000Y-75400000D01*
X40275000Y-76000000D01*
X40275000Y-76000000D01*
G37*
G36*
X41839949Y-78414214D02*
X39435786Y-76010051D01*
X39860051Y-75585786D01*
X42264214Y-77989949D01*
X41839949Y-78414214D01*
X41839949Y-78414214D01*
G37*
D15*
X41975000Y-89625000D03*
D10*
G36*
X29220000Y-104200000D02*
X39320000Y-104200000D01*
X38720000Y-104800000D01*
X29820000Y-104800000D01*
X29220000Y-104200000D01*
X29220000Y-104200000D01*
G37*
G36*
X42279899Y-101244365D02*
X38744365Y-104779899D01*
X38320101Y-104355635D01*
X41855635Y-100820101D01*
X42279899Y-101244365D01*
X42279899Y-101244365D01*
G37*
G36*
X65000000Y-80800000D02*
X54600000Y-80800000D01*
X55200000Y-80200000D01*
X64400000Y-80200000D01*
X65000000Y-80800000D01*
X65000000Y-80800000D01*
G37*
G36*
X66000000Y-83200000D02*
X52600000Y-83200000D01*
X53200000Y-82600000D01*
X65400000Y-82600000D01*
X66000000Y-83200000D01*
X66000000Y-83200000D01*
G37*
D12*
X59800000Y-85300000D03*
D10*
G36*
X52500000Y-106600000D02*
X67050000Y-106600000D01*
X66450000Y-107200000D01*
X53100000Y-107200000D01*
X52500000Y-106600000D01*
X52500000Y-106600000D01*
G37*
D12*
X59800000Y-94900000D03*
X59800000Y-92500000D03*
X59800000Y-87700000D03*
X59800000Y-90100000D03*
X59800000Y-99700000D03*
X59800000Y-97300000D03*
X59800000Y-102100000D03*
X59800000Y-104500000D03*
D10*
G36*
X52500076Y-82900660D02*
X55045660Y-80355076D01*
X55469924Y-80779340D01*
X52924340Y-83324924D01*
X52500076Y-82900660D01*
X52500076Y-82900660D01*
G37*
D13*
X52800000Y-95175000D03*
D10*
G36*
X52924029Y-107025665D02*
X54924435Y-109026071D01*
X54500171Y-109450335D01*
X52499765Y-107449929D01*
X52924029Y-107025665D01*
X52924029Y-107025665D01*
G37*
G36*
X54050000Y-109000000D02*
X65050000Y-109000000D01*
X64450000Y-109600000D01*
X54650000Y-109600000D01*
X54050000Y-109000000D01*
X54050000Y-109000000D01*
G37*
D14*
X60800000Y-84100000D03*
D12*
X61000000Y-91300000D03*
X61000000Y-88900000D03*
X61000000Y-86500000D03*
X61000000Y-93700000D03*
X61000000Y-96100000D03*
X61000000Y-98500000D03*
X61000000Y-100900000D03*
X61000000Y-103300000D03*
D14*
X60800000Y-105700000D03*
D10*
G36*
X54300000Y-107800000D02*
X66900000Y-107800000D01*
X66300000Y-108400000D01*
X54900000Y-108400000D01*
X54300000Y-107800000D01*
X54300000Y-107800000D01*
G37*
G36*
X66275000Y-82000000D02*
X54925000Y-82000000D01*
X55525000Y-81400000D01*
X65675000Y-81400000D01*
X66275000Y-82000000D01*
X66275000Y-82000000D01*
G37*
G36*
X67839949Y-84414214D02*
X65435786Y-82010051D01*
X65860051Y-81585786D01*
X68264214Y-83989949D01*
X67839949Y-84414214D01*
X67839949Y-84414214D01*
G37*
D15*
X67975000Y-95625000D03*
D10*
G36*
X55220000Y-110200000D02*
X65320000Y-110200000D01*
X64720000Y-110800000D01*
X55820000Y-110800000D01*
X55220000Y-110200000D01*
X55220000Y-110200000D01*
G37*
G36*
X68279899Y-107244365D02*
X64744365Y-110779899D01*
X64320101Y-110355635D01*
X67855635Y-106820101D01*
X68279899Y-107244365D01*
X68279899Y-107244365D01*
G37*
G36*
X91000000Y-88800000D02*
X80600000Y-88800000D01*
X81200000Y-88200000D01*
X90400000Y-88200000D01*
X91000000Y-88800000D01*
X91000000Y-88800000D01*
G37*
G36*
X92000000Y-91200000D02*
X78600000Y-91200000D01*
X79200000Y-90600000D01*
X91400000Y-90600000D01*
X92000000Y-91200000D01*
X92000000Y-91200000D01*
G37*
D12*
X85800000Y-93300000D03*
D10*
G36*
X78500000Y-114600000D02*
X93050000Y-114600000D01*
X92450000Y-115200000D01*
X79100000Y-115200000D01*
X78500000Y-114600000D01*
X78500000Y-114600000D01*
G37*
D12*
X85800000Y-102900000D03*
X85800000Y-100500000D03*
X85800000Y-95700000D03*
X85800000Y-98100000D03*
X85800000Y-107700000D03*
X85800000Y-105300000D03*
X85800000Y-110100000D03*
X85800000Y-112500000D03*
D10*
G36*
X78500076Y-90900660D02*
X81045660Y-88355076D01*
X81469924Y-88779340D01*
X78924340Y-91324924D01*
X78500076Y-90900660D01*
X78500076Y-90900660D01*
G37*
D13*
X78800000Y-103175000D03*
D10*
G36*
X78924029Y-115025665D02*
X80924435Y-117026071D01*
X80500171Y-117450335D01*
X78499765Y-115449929D01*
X78924029Y-115025665D01*
X78924029Y-115025665D01*
G37*
G36*
X80050000Y-117000000D02*
X91050000Y-117000000D01*
X90450000Y-117600000D01*
X80650000Y-117600000D01*
X80050000Y-117000000D01*
X80050000Y-117000000D01*
G37*
D14*
X86800000Y-92100000D03*
D12*
X87000000Y-99300000D03*
X87000000Y-96900000D03*
X87000000Y-94500000D03*
X87000000Y-101700000D03*
X87000000Y-104100000D03*
X87000000Y-106500000D03*
X87000000Y-108900000D03*
X87000000Y-111300000D03*
D14*
X86800000Y-113700000D03*
D10*
G36*
X80300000Y-115800000D02*
X92900000Y-115800000D01*
X92300000Y-116400000D01*
X80900000Y-116400000D01*
X80300000Y-115800000D01*
X80300000Y-115800000D01*
G37*
G36*
X92275000Y-90000000D02*
X80925000Y-90000000D01*
X81525000Y-89400000D01*
X91675000Y-89400000D01*
X92275000Y-90000000D01*
X92275000Y-90000000D01*
G37*
G36*
X93839949Y-92414214D02*
X91435786Y-90010051D01*
X91860051Y-89585786D01*
X94264214Y-91989949D01*
X93839949Y-92414214D01*
X93839949Y-92414214D01*
G37*
D15*
X93975000Y-103625000D03*
D10*
G36*
X81220000Y-118200000D02*
X91320000Y-118200000D01*
X90720000Y-118800000D01*
X81820000Y-118800000D01*
X81220000Y-118200000D01*
X81220000Y-118200000D01*
G37*
G36*
X94279899Y-115244365D02*
X90744365Y-118779899D01*
X90320101Y-118355635D01*
X93855635Y-114820101D01*
X94279899Y-115244365D01*
X94279899Y-115244365D01*
G37*
G36*
X48500000Y-116300000D02*
X38100000Y-116300000D01*
X38700000Y-115700000D01*
X47900000Y-115700000D01*
X48500000Y-116300000D01*
X48500000Y-116300000D01*
G37*
G36*
X49500000Y-118700000D02*
X36100000Y-118700000D01*
X36700000Y-118100000D01*
X48900000Y-118100000D01*
X49500000Y-118700000D01*
X49500000Y-118700000D01*
G37*
D12*
X43300000Y-120800000D03*
D10*
G36*
X36000000Y-142100000D02*
X50550000Y-142100000D01*
X49950000Y-142700000D01*
X36600000Y-142700000D01*
X36000000Y-142100000D01*
X36000000Y-142100000D01*
G37*
D12*
X43300000Y-130400000D03*
X43300000Y-128000000D03*
X43300000Y-123200000D03*
X43300000Y-125600000D03*
X43300000Y-135200000D03*
X43300000Y-132800000D03*
X43300000Y-137600000D03*
X43300000Y-140000000D03*
D10*
G36*
X36000076Y-118400660D02*
X38545660Y-115855076D01*
X38969924Y-116279340D01*
X36424340Y-118824924D01*
X36000076Y-118400660D01*
X36000076Y-118400660D01*
G37*
D13*
X36300000Y-130675000D03*
D10*
G36*
X36424029Y-142525665D02*
X38424435Y-144526071D01*
X38000171Y-144950335D01*
X35999765Y-142949929D01*
X36424029Y-142525665D01*
X36424029Y-142525665D01*
G37*
G36*
X37550000Y-144500000D02*
X48550000Y-144500000D01*
X47950000Y-145100000D01*
X38150000Y-145100000D01*
X37550000Y-144500000D01*
X37550000Y-144500000D01*
G37*
D14*
X44300000Y-119600000D03*
D12*
X44500000Y-126800000D03*
X44500000Y-124400000D03*
X44500000Y-122000000D03*
X44500000Y-129200000D03*
X44500000Y-131600000D03*
X44500000Y-134000000D03*
X44500000Y-136400000D03*
X44500000Y-138800000D03*
D14*
X44300000Y-141200000D03*
D10*
G36*
X37800000Y-143300000D02*
X50400000Y-143300000D01*
X49800000Y-143900000D01*
X38400000Y-143900000D01*
X37800000Y-143300000D01*
X37800000Y-143300000D01*
G37*
G36*
X49775000Y-117500000D02*
X38425000Y-117500000D01*
X39025000Y-116900000D01*
X49175000Y-116900000D01*
X49775000Y-117500000D01*
X49775000Y-117500000D01*
G37*
G36*
X51339949Y-119914214D02*
X48935786Y-117510051D01*
X49360051Y-117085786D01*
X51764214Y-119489949D01*
X51339949Y-119914214D01*
X51339949Y-119914214D01*
G37*
D15*
X51475000Y-131125000D03*
D10*
G36*
X38720000Y-145700000D02*
X48820000Y-145700000D01*
X48220000Y-146300000D01*
X39320000Y-146300000D01*
X38720000Y-145700000D01*
X38720000Y-145700000D01*
G37*
G36*
X51779899Y-142744365D02*
X48244365Y-146279899D01*
X47820101Y-145855635D01*
X51355635Y-142320101D01*
X51779899Y-142744365D01*
X51779899Y-142744365D01*
G37*
G36*
X71000000Y-128800000D02*
X60600000Y-128800000D01*
X61200000Y-128200000D01*
X70400000Y-128200000D01*
X71000000Y-128800000D01*
X71000000Y-128800000D01*
G37*
G36*
X72000000Y-131200000D02*
X58600000Y-131200000D01*
X59200000Y-130600000D01*
X71400000Y-130600000D01*
X72000000Y-131200000D01*
X72000000Y-131200000D01*
G37*
D12*
X65800000Y-133300000D03*
D10*
G36*
X58500000Y-154600000D02*
X73050000Y-154600000D01*
X72450000Y-155200000D01*
X59100000Y-155200000D01*
X58500000Y-154600000D01*
X58500000Y-154600000D01*
G37*
D12*
X65800000Y-142900000D03*
X65800000Y-140500000D03*
X65800000Y-135700000D03*
X65800000Y-138100000D03*
X65800000Y-147700000D03*
X65800000Y-145300000D03*
X65800000Y-150100000D03*
X65800000Y-152500000D03*
D10*
G36*
X58500076Y-130900660D02*
X61045660Y-128355076D01*
X61469924Y-128779340D01*
X58924340Y-131324924D01*
X58500076Y-130900660D01*
X58500076Y-130900660D01*
G37*
D13*
X58800000Y-143175000D03*
D10*
G36*
X58924029Y-155025665D02*
X60924435Y-157026071D01*
X60500171Y-157450335D01*
X58499765Y-155449929D01*
X58924029Y-155025665D01*
X58924029Y-155025665D01*
G37*
G36*
X60050000Y-157000000D02*
X71050000Y-157000000D01*
X70450000Y-157600000D01*
X60650000Y-157600000D01*
X60050000Y-157000000D01*
X60050000Y-157000000D01*
G37*
D14*
X66800000Y-132100000D03*
D12*
X67000000Y-139300000D03*
X67000000Y-136900000D03*
X67000000Y-134500000D03*
X67000000Y-141700000D03*
X67000000Y-144100000D03*
X67000000Y-146500000D03*
X67000000Y-148900000D03*
X67000000Y-151300000D03*
D14*
X66800000Y-153700000D03*
D10*
G36*
X60300000Y-155800000D02*
X72900000Y-155800000D01*
X72300000Y-156400000D01*
X60900000Y-156400000D01*
X60300000Y-155800000D01*
X60300000Y-155800000D01*
G37*
G36*
X72275000Y-130000000D02*
X60925000Y-130000000D01*
X61525000Y-129400000D01*
X71675000Y-129400000D01*
X72275000Y-130000000D01*
X72275000Y-130000000D01*
G37*
G36*
X73839949Y-132414214D02*
X71435786Y-130010051D01*
X71860051Y-129585786D01*
X74264214Y-131989949D01*
X73839949Y-132414214D01*
X73839949Y-132414214D01*
G37*
D15*
X73975000Y-143625000D03*
D10*
G36*
X61220000Y-158200000D02*
X71320000Y-158200000D01*
X70720000Y-158800000D01*
X61820000Y-158800000D01*
X61220000Y-158200000D01*
X61220000Y-158200000D01*
G37*
G36*
X74279899Y-155244365D02*
X70744365Y-158779899D01*
X70320101Y-158355635D01*
X73855635Y-154820101D01*
X74279899Y-155244365D01*
X74279899Y-155244365D01*
G37*
G36*
X93500000Y-141300000D02*
X83100000Y-141300000D01*
X83700000Y-140700000D01*
X92900000Y-140700000D01*
X93500000Y-141300000D01*
X93500000Y-141300000D01*
G37*
G36*
X94500000Y-143700000D02*
X81100000Y-143700000D01*
X81700000Y-143100000D01*
X93900000Y-143100000D01*
X94500000Y-143700000D01*
X94500000Y-143700000D01*
G37*
D12*
X88300000Y-145800000D03*
D10*
G36*
X81000000Y-167100000D02*
X95550000Y-167100000D01*
X94950000Y-167700000D01*
X81600000Y-167700000D01*
X81000000Y-167100000D01*
X81000000Y-167100000D01*
G37*
D12*
X88300000Y-155400000D03*
X88300000Y-153000000D03*
X88300000Y-148200000D03*
X88300000Y-150600000D03*
X88300000Y-160200000D03*
X88300000Y-157800000D03*
X88300000Y-162600000D03*
X88300000Y-165000000D03*
D10*
G36*
X81000076Y-143400660D02*
X83545660Y-140855076D01*
X83969924Y-141279340D01*
X81424340Y-143824924D01*
X81000076Y-143400660D01*
X81000076Y-143400660D01*
G37*
D13*
X81300000Y-155675000D03*
D10*
G36*
X81424029Y-167525665D02*
X83424435Y-169526071D01*
X83000171Y-169950335D01*
X80999765Y-167949929D01*
X81424029Y-167525665D01*
X81424029Y-167525665D01*
G37*
G36*
X82550000Y-169500000D02*
X93550000Y-169500000D01*
X92950000Y-170100000D01*
X83150000Y-170100000D01*
X82550000Y-169500000D01*
X82550000Y-169500000D01*
G37*
D14*
X89300000Y-144600000D03*
D12*
X89500000Y-151800000D03*
X89500000Y-149400000D03*
X89500000Y-147000000D03*
X89500000Y-154200000D03*
X89500000Y-156600000D03*
X89500000Y-159000000D03*
X89500000Y-161400000D03*
X89500000Y-163800000D03*
D14*
X89300000Y-166200000D03*
D10*
G36*
X82800000Y-168300000D02*
X95400000Y-168300000D01*
X94800000Y-168900000D01*
X83400000Y-168900000D01*
X82800000Y-168300000D01*
X82800000Y-168300000D01*
G37*
G36*
X94775000Y-142500000D02*
X83425000Y-142500000D01*
X84025000Y-141900000D01*
X94175000Y-141900000D01*
X94775000Y-142500000D01*
X94775000Y-142500000D01*
G37*
G36*
X96339949Y-144914214D02*
X93935786Y-142510051D01*
X94360051Y-142085786D01*
X96764214Y-144489949D01*
X96339949Y-144914214D01*
X96339949Y-144914214D01*
G37*
D15*
X96475000Y-156125000D03*
D10*
G36*
X83720000Y-170700000D02*
X93820000Y-170700000D01*
X93220000Y-171300000D01*
X84320000Y-171300000D01*
X83720000Y-170700000D01*
X83720000Y-170700000D01*
G37*
G36*
X96779899Y-167744365D02*
X93244365Y-171279899D01*
X92820101Y-170855635D01*
X96355635Y-167320101D01*
X96779899Y-167744365D01*
X96779899Y-167744365D01*
G37*
G36*
X88000000Y-189800000D02*
X77600000Y-189800000D01*
X78200000Y-189200000D01*
X87400000Y-189200000D01*
X88000000Y-189800000D01*
X88000000Y-189800000D01*
G37*
G36*
X89000000Y-192200000D02*
X75600000Y-192200000D01*
X76200000Y-191600000D01*
X88400000Y-191600000D01*
X89000000Y-192200000D01*
X89000000Y-192200000D01*
G37*
D12*
X82800000Y-194300000D03*
D10*
G36*
X75500000Y-215600000D02*
X90050000Y-215600000D01*
X89450000Y-216200000D01*
X76100000Y-216200000D01*
X75500000Y-215600000D01*
X75500000Y-215600000D01*
G37*
D12*
X82800000Y-203900000D03*
X82800000Y-201500000D03*
X82800000Y-196700000D03*
X82800000Y-199100000D03*
X82800000Y-208700000D03*
X82800000Y-206300000D03*
X82800000Y-211100000D03*
X82800000Y-213500000D03*
D10*
G36*
X75500076Y-191900660D02*
X78045660Y-189355076D01*
X78469924Y-189779340D01*
X75924340Y-192324924D01*
X75500076Y-191900660D01*
X75500076Y-191900660D01*
G37*
D13*
X75800000Y-204175000D03*
D10*
G36*
X75924029Y-216025665D02*
X77924435Y-218026071D01*
X77500171Y-218450335D01*
X75499765Y-216449929D01*
X75924029Y-216025665D01*
X75924029Y-216025665D01*
G37*
G36*
X77050000Y-218000000D02*
X88050000Y-218000000D01*
X87450000Y-218600000D01*
X77650000Y-218600000D01*
X77050000Y-218000000D01*
X77050000Y-218000000D01*
G37*
D14*
X83800000Y-193100000D03*
D12*
X84000000Y-200300000D03*
X84000000Y-197900000D03*
X84000000Y-195500000D03*
X84000000Y-202700000D03*
X84000000Y-205100000D03*
X84000000Y-207500000D03*
X84000000Y-209900000D03*
X84000000Y-212300000D03*
D14*
X83800000Y-214700000D03*
D10*
G36*
X77300000Y-216800000D02*
X89900000Y-216800000D01*
X89300000Y-217400000D01*
X77900000Y-217400000D01*
X77300000Y-216800000D01*
X77300000Y-216800000D01*
G37*
G36*
X89275000Y-191000000D02*
X77925000Y-191000000D01*
X78525000Y-190400000D01*
X88675000Y-190400000D01*
X89275000Y-191000000D01*
X89275000Y-191000000D01*
G37*
G36*
X90839949Y-193414214D02*
X88435786Y-191010051D01*
X88860051Y-190585786D01*
X91264214Y-192989949D01*
X90839949Y-193414214D01*
X90839949Y-193414214D01*
G37*
D15*
X90975000Y-204625000D03*
D10*
G36*
X78220000Y-219200000D02*
X88320000Y-219200000D01*
X87720000Y-219800000D01*
X78820000Y-219800000D01*
X78220000Y-219200000D01*
X78220000Y-219200000D01*
G37*
G36*
X91279899Y-216244365D02*
X87744365Y-219779899D01*
X87320101Y-219355635D01*
X90855635Y-215820101D01*
X91279899Y-216244365D01*
X91279899Y-216244365D01*
G37*
G36*
X55300000Y-241500000D02*
X55300000Y-251900000D01*
X54700000Y-251300000D01*
X54700000Y-242100000D01*
X55300000Y-241500000D01*
X55300000Y-241500000D01*
G37*
G36*
X57700000Y-240500000D02*
X57700000Y-253900000D01*
X57100000Y-253300000D01*
X57100000Y-241100000D01*
X57700000Y-240500000D01*
X57700000Y-240500000D01*
G37*
D16*
X59800000Y-246700000D03*
D10*
G36*
X81100000Y-254000000D02*
X81100000Y-239450000D01*
X81700000Y-240050000D01*
X81700000Y-253400000D01*
X81100000Y-254000000D01*
X81100000Y-254000000D01*
G37*
D16*
X69400000Y-246700000D03*
X67000000Y-246700000D03*
X62200000Y-246700000D03*
X64600000Y-246700000D03*
X74200000Y-246700000D03*
X71800000Y-246700000D03*
X76600000Y-246700000D03*
X79000000Y-246700000D03*
D10*
G36*
X57400660Y-253999924D02*
X54855076Y-251454340D01*
X55279340Y-251030076D01*
X57824924Y-253575660D01*
X57400660Y-253999924D01*
X57400660Y-253999924D01*
G37*
D17*
X69675000Y-253700000D03*
D10*
G36*
X81525665Y-253575971D02*
X83526071Y-251575565D01*
X83950335Y-251999829D01*
X81949929Y-254000235D01*
X81525665Y-253575971D01*
X81525665Y-253575971D01*
G37*
G36*
X83500000Y-252450000D02*
X83500000Y-241450000D01*
X84100000Y-242050000D01*
X84100000Y-251850000D01*
X83500000Y-252450000D01*
X83500000Y-252450000D01*
G37*
D18*
X58600000Y-245700000D03*
D16*
X65800000Y-245500000D03*
X63400000Y-245500000D03*
X61000000Y-245500000D03*
X68200000Y-245500000D03*
X70600000Y-245500000D03*
X73000000Y-245500000D03*
X75400000Y-245500000D03*
X77800000Y-245500000D03*
D18*
X80200000Y-245700000D03*
D10*
G36*
X82300000Y-252200000D02*
X82300000Y-239600000D01*
X82900000Y-240200000D01*
X82900000Y-251600000D01*
X82300000Y-252200000D01*
X82300000Y-252200000D01*
G37*
G36*
X56500000Y-240225000D02*
X56500000Y-251575000D01*
X55900000Y-250975000D01*
X55900000Y-240825000D01*
X56500000Y-240225000D01*
X56500000Y-240225000D01*
G37*
G36*
X58914214Y-238660051D02*
X56510051Y-241064214D01*
X56085786Y-240639949D01*
X58489949Y-238235786D01*
X58914214Y-238660051D01*
X58914214Y-238660051D01*
G37*
D19*
X70125000Y-238525000D03*
D10*
G36*
X84700000Y-251280000D02*
X84700000Y-241180000D01*
X85300000Y-241780000D01*
X85300000Y-250680000D01*
X84700000Y-251280000D01*
X84700000Y-251280000D01*
G37*
G36*
X81744365Y-238220101D02*
X85279899Y-241755635D01*
X84855635Y-242179899D01*
X81320101Y-238644365D01*
X81744365Y-238220101D01*
X81744365Y-238220101D01*
G37*
G36*
X87000000Y-260800000D02*
X76600000Y-260800000D01*
X77200000Y-260200000D01*
X86400000Y-260200000D01*
X87000000Y-260800000D01*
X87000000Y-260800000D01*
G37*
G36*
X88000000Y-263200000D02*
X74600000Y-263200000D01*
X75200000Y-262600000D01*
X87400000Y-262600000D01*
X88000000Y-263200000D01*
X88000000Y-263200000D01*
G37*
D12*
X81800000Y-265300000D03*
D10*
G36*
X74500000Y-286600000D02*
X89050000Y-286600000D01*
X88450000Y-287200000D01*
X75100000Y-287200000D01*
X74500000Y-286600000D01*
X74500000Y-286600000D01*
G37*
D12*
X81800000Y-274900000D03*
X81800000Y-272500000D03*
X81800000Y-267700000D03*
X81800000Y-270100000D03*
X81800000Y-279700000D03*
X81800000Y-277300000D03*
X81800000Y-282100000D03*
X81800000Y-284500000D03*
D10*
G36*
X74500076Y-262900660D02*
X77045660Y-260355076D01*
X77469924Y-260779340D01*
X74924340Y-263324924D01*
X74500076Y-262900660D01*
X74500076Y-262900660D01*
G37*
D13*
X74800000Y-275175000D03*
D10*
G36*
X74924029Y-287025665D02*
X76924435Y-289026071D01*
X76500171Y-289450335D01*
X74499765Y-287449929D01*
X74924029Y-287025665D01*
X74924029Y-287025665D01*
G37*
G36*
X76050000Y-289000000D02*
X87050000Y-289000000D01*
X86450000Y-289600000D01*
X76650000Y-289600000D01*
X76050000Y-289000000D01*
X76050000Y-289000000D01*
G37*
D14*
X82800000Y-264100000D03*
D12*
X83000000Y-271300000D03*
X83000000Y-268900000D03*
X83000000Y-266500000D03*
X83000000Y-273700000D03*
X83000000Y-276100000D03*
X83000000Y-278500000D03*
X83000000Y-280900000D03*
X83000000Y-283300000D03*
D14*
X82800000Y-285700000D03*
D10*
G36*
X76300000Y-287800000D02*
X88900000Y-287800000D01*
X88300000Y-288400000D01*
X76900000Y-288400000D01*
X76300000Y-287800000D01*
X76300000Y-287800000D01*
G37*
G36*
X88275000Y-262000000D02*
X76925000Y-262000000D01*
X77525000Y-261400000D01*
X87675000Y-261400000D01*
X88275000Y-262000000D01*
X88275000Y-262000000D01*
G37*
G36*
X89839949Y-264414214D02*
X87435786Y-262010051D01*
X87860051Y-261585786D01*
X90264214Y-263989949D01*
X89839949Y-264414214D01*
X89839949Y-264414214D01*
G37*
D15*
X89975000Y-275625000D03*
D10*
G36*
X77220000Y-290200000D02*
X87320000Y-290200000D01*
X86720000Y-290800000D01*
X77820000Y-290800000D01*
X77220000Y-290200000D01*
X77220000Y-290200000D01*
G37*
G36*
X90279899Y-287244365D02*
X86744365Y-290779899D01*
X86320101Y-290355635D01*
X89855635Y-286820101D01*
X90279899Y-287244365D01*
X90279899Y-287244365D01*
G37*
G36*
X62000000Y-260800000D02*
X51600000Y-260800000D01*
X52200000Y-260200000D01*
X61400000Y-260200000D01*
X62000000Y-260800000D01*
X62000000Y-260800000D01*
G37*
G36*
X63000000Y-263200000D02*
X49600000Y-263200000D01*
X50200000Y-262600000D01*
X62400000Y-262600000D01*
X63000000Y-263200000D01*
X63000000Y-263200000D01*
G37*
D12*
X56800000Y-265300000D03*
D10*
G36*
X49500000Y-286600000D02*
X64050000Y-286600000D01*
X63450000Y-287200000D01*
X50100000Y-287200000D01*
X49500000Y-286600000D01*
X49500000Y-286600000D01*
G37*
D12*
X56800000Y-274900000D03*
X56800000Y-272500000D03*
X56800000Y-267700000D03*
X56800000Y-270100000D03*
X56800000Y-279700000D03*
X56800000Y-277300000D03*
X56800000Y-282100000D03*
X56800000Y-284500000D03*
D10*
G36*
X49500076Y-262900660D02*
X52045660Y-260355076D01*
X52469924Y-260779340D01*
X49924340Y-263324924D01*
X49500076Y-262900660D01*
X49500076Y-262900660D01*
G37*
D13*
X49800000Y-275175000D03*
D10*
G36*
X49924029Y-287025665D02*
X51924435Y-289026071D01*
X51500171Y-289450335D01*
X49499765Y-287449929D01*
X49924029Y-287025665D01*
X49924029Y-287025665D01*
G37*
G36*
X51050000Y-289000000D02*
X62050000Y-289000000D01*
X61450000Y-289600000D01*
X51650000Y-289600000D01*
X51050000Y-289000000D01*
X51050000Y-289000000D01*
G37*
D14*
X57800000Y-264100000D03*
D12*
X58000000Y-271300000D03*
X58000000Y-268900000D03*
X58000000Y-266500000D03*
X58000000Y-273700000D03*
X58000000Y-276100000D03*
X58000000Y-278500000D03*
X58000000Y-280900000D03*
X58000000Y-283300000D03*
D14*
X57800000Y-285700000D03*
D10*
G36*
X51300000Y-287800000D02*
X63900000Y-287800000D01*
X63300000Y-288400000D01*
X51900000Y-288400000D01*
X51300000Y-287800000D01*
X51300000Y-287800000D01*
G37*
G36*
X63275000Y-262000000D02*
X51925000Y-262000000D01*
X52525000Y-261400000D01*
X62675000Y-261400000D01*
X63275000Y-262000000D01*
X63275000Y-262000000D01*
G37*
G36*
X64839949Y-264414214D02*
X62435786Y-262010051D01*
X62860051Y-261585786D01*
X65264214Y-263989949D01*
X64839949Y-264414214D01*
X64839949Y-264414214D01*
G37*
D15*
X64975000Y-275625000D03*
D10*
G36*
X52220000Y-290200000D02*
X62320000Y-290200000D01*
X61720000Y-290800000D01*
X52820000Y-290800000D01*
X52220000Y-290200000D01*
X52220000Y-290200000D01*
G37*
G36*
X65279899Y-287244365D02*
X61744365Y-290779899D01*
X61320101Y-290355635D01*
X64855635Y-286820101D01*
X65279899Y-287244365D01*
X65279899Y-287244365D01*
G37*
D20*
X52100000Y-209500000D02*
X52100000Y-170000000D01*
X27712100Y-109312100D02*
X27712100Y-102238000D01*
X30800000Y-112400000D02*
X27712100Y-109312100D01*
X30800000Y-119400000D02*
X30800000Y-112400000D01*
X34600000Y-123200000D02*
X30800000Y-119400000D01*
X34600000Y-143300000D02*
X34600000Y-123200000D01*
X35800000Y-144500000D02*
X34600000Y-143300000D01*
X35800000Y-146400000D02*
X35800000Y-144500000D01*
X43000000Y-153600000D02*
X35800000Y-146400000D01*
X43000000Y-160900000D02*
X43000000Y-153600000D01*
X52100000Y-170000000D02*
X43000000Y-160900000D01*
X64100000Y-209500000D02*
X64100000Y-169925000D01*
X50985000Y-241140000D02*
X50985000Y-261840000D01*
X57100000Y-235025000D02*
X50985000Y-241140000D01*
X70975000Y-235025000D02*
X57100000Y-235025000D01*
X72225000Y-233775000D02*
X70975000Y-235025000D01*
X72225000Y-170525000D02*
X72225000Y-233775000D01*
X70825000Y-169125000D02*
X72225000Y-170525000D01*
X64900000Y-169125000D02*
X70825000Y-169125000D01*
X64100000Y-169925000D02*
X64900000Y-169125000D01*
X63100000Y-209500000D02*
X63100000Y-168575000D01*
X55000000Y-240050000D02*
X55000000Y-246700000D01*
X57950000Y-237100000D02*
X55000000Y-240050000D01*
X72275000Y-237100000D02*
X57950000Y-237100000D01*
X73549998Y-235825002D02*
X72275000Y-237100000D01*
X73549998Y-168749998D02*
X73549998Y-235825002D01*
X72200000Y-167400000D02*
X73549998Y-168749998D01*
X64275000Y-167400000D02*
X72200000Y-167400000D01*
X63100000Y-168575000D02*
X64275000Y-167400000D01*
X88825000Y-252075000D02*
X88825000Y-253475000D01*
X62100000Y-168050000D02*
X63650000Y-166500000D01*
X63650000Y-166500000D02*
X74325000Y-166500000D01*
X74325000Y-166500000D02*
X74400000Y-166575000D01*
X74400000Y-166575000D02*
X74400000Y-217800000D01*
X74400000Y-217800000D02*
X78775000Y-222175000D01*
X78775000Y-222175000D02*
X87500000Y-222175000D01*
X87500000Y-222175000D02*
X88825000Y-223500000D01*
X62100000Y-209500000D02*
X62100000Y-168050000D01*
X88825000Y-252075000D02*
X88825000Y-223500000D01*
X88825000Y-253475000D02*
X81800000Y-260500000D01*
X61100000Y-209500000D02*
X61100000Y-166975000D01*
X82800000Y-172700000D02*
X82800000Y-189500000D01*
X75225000Y-165125000D02*
X82800000Y-172700000D01*
X62950000Y-165125000D02*
X75225000Y-165125000D01*
X61100000Y-166975000D02*
X62950000Y-165125000D01*
X88300000Y-155400000D02*
X77675000Y-155400000D01*
X60100000Y-166075000D02*
X60100000Y-209500000D01*
X62650000Y-163525000D02*
X60100000Y-166075000D01*
X69550000Y-163525000D02*
X62650000Y-163525000D01*
X77675000Y-155400000D02*
X69550000Y-163525000D01*
X59100000Y-209500000D02*
X59100000Y-165050000D01*
X75400000Y-120550100D02*
X79712100Y-116238000D01*
X75400000Y-155800000D02*
X75400000Y-120550100D01*
X69000000Y-162200000D02*
X75400000Y-155800000D01*
X61950000Y-162200000D02*
X69000000Y-162200000D01*
X59100000Y-165050000D02*
X61950000Y-162200000D01*
X66270000Y-158500000D02*
X66270000Y-159730000D01*
X58100000Y-164000000D02*
X58100000Y-209500000D01*
X61000000Y-161100000D02*
X58100000Y-164000000D01*
X64900000Y-161100000D02*
X61000000Y-161100000D01*
X66270000Y-159730000D02*
X64900000Y-161100000D01*
D21*
X72850000Y-131000000D02*
X72850000Y-100500000D01*
X72850000Y-100500000D02*
X67975000Y-95625000D01*
X63850000Y-263000000D02*
X63850000Y-258650000D01*
X85000000Y-254000000D02*
X85000000Y-246230000D01*
X83500000Y-255500000D02*
X85000000Y-254000000D01*
X67000000Y-255500000D02*
X83500000Y-255500000D01*
X63850000Y-258650000D02*
X67000000Y-255500000D01*
X82270000Y-290500000D02*
X74000000Y-290500000D01*
X72300000Y-288800000D02*
X63300000Y-288800000D01*
X74000000Y-290500000D02*
X72300000Y-288800000D01*
X89300000Y-217800000D02*
X91800000Y-217800000D01*
X96000000Y-269600000D02*
X89975000Y-275625000D01*
X96000000Y-222000000D02*
X96000000Y-269600000D01*
X91800000Y-217800000D02*
X96000000Y-222000000D01*
X89850000Y-192000000D02*
X89850000Y-172080000D01*
X89850000Y-172080000D02*
X88770000Y-171000000D01*
X95350000Y-143500000D02*
X95350000Y-119850000D01*
X95350000Y-119850000D02*
X92300000Y-116800000D01*
X92850000Y-91000000D02*
X92850000Y-72700000D01*
X92850000Y-72700000D02*
X85000000Y-64850000D01*
X83844088Y-56516107D02*
X83844088Y-56844088D01*
X83844088Y-56844088D02*
X85000000Y-58000000D01*
X85000000Y-58000000D02*
X85000000Y-64850000D01*
X85000000Y-64850000D02*
X66850000Y-83000000D01*
X50350000Y-118500000D02*
X50350000Y-116350000D01*
X40300000Y-106300000D02*
X40300000Y-102800000D01*
X50350000Y-116350000D02*
X40300000Y-106300000D01*
X40850000Y-77000000D02*
X40850000Y-74850000D01*
X30023682Y-64023682D02*
X30023682Y-58737153D01*
X40850000Y-74850000D02*
X30023682Y-64023682D01*
X45612413Y-35146099D02*
X45612413Y-34387587D01*
X56770852Y-34000000D02*
X61701452Y-38930600D01*
X46000000Y-34000000D02*
X56770852Y-34000000D01*
X45612413Y-34387587D02*
X46000000Y-34000000D01*
D20*
X57100000Y-209500000D02*
X57100000Y-158850100D01*
X57100000Y-158850100D02*
X59712100Y-156238000D01*
X56100000Y-209500000D02*
X56100000Y-113400000D01*
X53712100Y-111012100D02*
X53712100Y-108238000D01*
X56100000Y-113400000D02*
X53712100Y-111012100D01*
X55100000Y-209500000D02*
X55100000Y-162000000D01*
X52100000Y-53213163D02*
X55213151Y-50100012D01*
X52100000Y-67900000D02*
X52100000Y-53213163D01*
X48500000Y-71500000D02*
X52100000Y-67900000D01*
X48500000Y-108000000D02*
X48500000Y-71500000D01*
X53900000Y-113400000D02*
X48500000Y-108000000D01*
X53900000Y-160800000D02*
X53900000Y-113400000D01*
X55100000Y-162000000D02*
X53900000Y-160800000D01*
X54100000Y-209500000D02*
X54100000Y-162800000D01*
X43300000Y-65811202D02*
X41716084Y-64227286D01*
X43300000Y-106700000D02*
X43300000Y-65811202D01*
X52800000Y-116200000D02*
X43300000Y-106700000D01*
X52800000Y-161500000D02*
X52800000Y-116200000D01*
X54100000Y-162800000D02*
X52800000Y-161500000D01*
X53100000Y-209500000D02*
X53100000Y-166600000D01*
X37212100Y-145912100D02*
X37212100Y-143738000D01*
X39100000Y-147800000D02*
X37212100Y-145912100D01*
X40400000Y-147800000D02*
X39100000Y-147800000D01*
X46500000Y-153900000D02*
X40400000Y-147800000D01*
X46500000Y-160000000D02*
X46500000Y-153900000D01*
X53100000Y-166600000D02*
X46500000Y-160000000D01*
M02*
