G04 #@! TF.FileFunction,Legend,Top*
%FSLAX46Y46*%
G04 Gerber Fmt 4.6, Leading zero omitted, Abs format (unit mm)*
G04 Created by KiCad (PCBNEW 4.0.6) date 04/28/18 23:32:09*
%MOMM*%
%LPD*%
G01*
G04 APERTURE LIST*
%ADD10C,0.100000*%
%ADD11C,0.300000*%
%ADD12C,0.010000*%
%ADD13C,0.150000*%
G04 APERTURE END LIST*
D10*
D11*
X55928572Y-74678571D02*
X55428572Y-73964286D01*
X55071429Y-74678571D02*
X55071429Y-73178571D01*
X55642857Y-73178571D01*
X55785715Y-73250000D01*
X55857143Y-73321429D01*
X55928572Y-73464286D01*
X55928572Y-73678571D01*
X55857143Y-73821429D01*
X55785715Y-73892857D01*
X55642857Y-73964286D01*
X55071429Y-73964286D01*
X57142857Y-74607143D02*
X57000000Y-74678571D01*
X56714286Y-74678571D01*
X56571429Y-74607143D01*
X56500000Y-74464286D01*
X56500000Y-73892857D01*
X56571429Y-73750000D01*
X56714286Y-73678571D01*
X57000000Y-73678571D01*
X57142857Y-73750000D01*
X57214286Y-73892857D01*
X57214286Y-74035714D01*
X56500000Y-74178571D01*
X57714286Y-73678571D02*
X58071429Y-74678571D01*
X58428571Y-73678571D01*
X59000000Y-74535714D02*
X59071428Y-74607143D01*
X59000000Y-74678571D01*
X58928571Y-74607143D01*
X59000000Y-74535714D01*
X59000000Y-74678571D01*
X59000000Y-73750000D02*
X59071428Y-73821429D01*
X59000000Y-73892857D01*
X58928571Y-73821429D01*
X59000000Y-73750000D01*
X59000000Y-73892857D01*
X60785714Y-73321429D02*
X60857143Y-73250000D01*
X61000000Y-73178571D01*
X61357143Y-73178571D01*
X61500000Y-73250000D01*
X61571429Y-73321429D01*
X61642857Y-73464286D01*
X61642857Y-73607143D01*
X61571429Y-73821429D01*
X60714286Y-74678571D01*
X61642857Y-74678571D01*
X62285714Y-74535714D02*
X62357142Y-74607143D01*
X62285714Y-74678571D01*
X62214285Y-74607143D01*
X62285714Y-74535714D01*
X62285714Y-74678571D01*
X63285714Y-73178571D02*
X63428571Y-73178571D01*
X63571428Y-73250000D01*
X63642857Y-73321429D01*
X63714286Y-73464286D01*
X63785714Y-73750000D01*
X63785714Y-74107143D01*
X63714286Y-74392857D01*
X63642857Y-74535714D01*
X63571428Y-74607143D01*
X63428571Y-74678571D01*
X63285714Y-74678571D01*
X63142857Y-74607143D01*
X63071428Y-74535714D01*
X63000000Y-74392857D01*
X62928571Y-74107143D01*
X62928571Y-73750000D01*
X63000000Y-73464286D01*
X63071428Y-73321429D01*
X63142857Y-73250000D01*
X63285714Y-73178571D01*
X65142857Y-74678571D02*
X64428571Y-74678571D01*
X64428571Y-73178571D01*
D12*
G36*
X69627347Y-113783686D02*
X69782972Y-113787883D01*
X69936381Y-113794818D01*
X70084841Y-113804432D01*
X70225620Y-113816666D01*
X70355986Y-113831460D01*
X70406486Y-113838351D01*
X70598005Y-113871230D01*
X70778114Y-113913035D01*
X70946893Y-113963824D01*
X71104423Y-114023653D01*
X71250782Y-114092579D01*
X71386050Y-114170660D01*
X71510306Y-114257952D01*
X71623632Y-114354513D01*
X71726105Y-114460399D01*
X71817805Y-114575668D01*
X71898813Y-114700376D01*
X71969208Y-114834580D01*
X72029069Y-114978338D01*
X72039398Y-115007135D01*
X72076300Y-115127726D01*
X72106783Y-115259260D01*
X72130531Y-115399511D01*
X72147229Y-115546253D01*
X72156559Y-115697260D01*
X72158286Y-115844543D01*
X72158235Y-115906641D01*
X72159886Y-115954448D01*
X72163237Y-115987916D01*
X72165855Y-116000377D01*
X72169534Y-116016134D01*
X72172345Y-116035185D01*
X72174287Y-116058865D01*
X72175363Y-116088509D01*
X72175575Y-116125454D01*
X72174923Y-116171034D01*
X72173410Y-116226586D01*
X72171037Y-116293444D01*
X72167805Y-116372946D01*
X72166343Y-116406971D01*
X72164667Y-116448882D01*
X72163161Y-116494089D01*
X72161818Y-116543429D01*
X72160630Y-116597740D01*
X72159590Y-116657858D01*
X72158691Y-116724620D01*
X72157927Y-116798864D01*
X72157290Y-116881427D01*
X72156773Y-116973146D01*
X72156369Y-117074857D01*
X72156071Y-117187399D01*
X72155872Y-117311608D01*
X72155765Y-117448322D01*
X72155742Y-117598376D01*
X72155756Y-117662457D01*
X72155875Y-117791646D01*
X72156152Y-117922178D01*
X72156577Y-118053241D01*
X72157139Y-118184023D01*
X72157830Y-118313710D01*
X72158641Y-118441490D01*
X72159561Y-118566552D01*
X72160582Y-118688082D01*
X72161694Y-118805267D01*
X72162887Y-118917296D01*
X72164153Y-119023356D01*
X72165481Y-119122634D01*
X72166862Y-119214318D01*
X72168287Y-119297595D01*
X72169747Y-119371653D01*
X72171232Y-119435680D01*
X72172732Y-119488862D01*
X72174238Y-119530387D01*
X72175741Y-119559444D01*
X72177231Y-119575218D01*
X72177993Y-119577898D01*
X72187680Y-119579050D01*
X72209158Y-119576705D01*
X72240270Y-119571373D01*
X72278856Y-119563566D01*
X72322759Y-119553793D01*
X72369820Y-119542566D01*
X72417881Y-119530396D01*
X72464784Y-119517794D01*
X72508370Y-119505270D01*
X72546482Y-119493336D01*
X72570252Y-119485050D01*
X72666413Y-119444391D01*
X72751221Y-119398120D01*
X72824086Y-119346689D01*
X72884418Y-119290552D01*
X72931625Y-119230161D01*
X72953972Y-119190923D01*
X72979429Y-119139286D01*
X73069934Y-118203114D01*
X73081072Y-118087815D01*
X73091817Y-117976405D01*
X73102086Y-117869748D01*
X73111798Y-117768709D01*
X73120869Y-117674153D01*
X73129217Y-117586945D01*
X73136760Y-117507950D01*
X73143414Y-117438032D01*
X73149097Y-117378057D01*
X73153728Y-117328890D01*
X73157222Y-117291395D01*
X73159498Y-117266437D01*
X73160474Y-117254882D01*
X73160505Y-117254243D01*
X73161847Y-117248923D01*
X73167360Y-117245325D01*
X73179372Y-117243120D01*
X73200211Y-117241979D01*
X73232206Y-117241573D01*
X73250484Y-117241543D01*
X73335197Y-117237950D01*
X73416170Y-117226729D01*
X73494861Y-117207216D01*
X73572724Y-117178747D01*
X73651214Y-117140660D01*
X73731787Y-117092290D01*
X73815899Y-117032974D01*
X73905005Y-116962049D01*
X73952567Y-116921430D01*
X74002714Y-116878301D01*
X74043323Y-116845235D01*
X74075374Y-116822290D01*
X74099850Y-116809528D01*
X74117729Y-116807008D01*
X74129992Y-116814791D01*
X74137621Y-116832938D01*
X74141594Y-116861508D01*
X74142894Y-116900561D01*
X74142751Y-116933114D01*
X74142108Y-116948462D01*
X74140423Y-116977416D01*
X74137761Y-117019110D01*
X74134187Y-117072679D01*
X74129764Y-117137256D01*
X74124558Y-117211975D01*
X74118632Y-117295971D01*
X74112051Y-117388377D01*
X74104878Y-117488328D01*
X74097179Y-117594957D01*
X74089018Y-117707399D01*
X74080458Y-117824788D01*
X74071565Y-117946258D01*
X74062402Y-118070943D01*
X74053034Y-118197976D01*
X74043524Y-118326493D01*
X74033939Y-118455626D01*
X74024341Y-118584511D01*
X74014794Y-118712280D01*
X74005364Y-118838069D01*
X73996115Y-118961011D01*
X73987111Y-119080241D01*
X73978415Y-119194891D01*
X73970093Y-119304098D01*
X73962209Y-119406993D01*
X73954827Y-119502712D01*
X73948011Y-119590389D01*
X73941826Y-119669158D01*
X73936336Y-119738152D01*
X73931605Y-119796505D01*
X73927697Y-119843353D01*
X73924678Y-119877828D01*
X73922610Y-119899066D01*
X73922359Y-119901286D01*
X73904295Y-120019479D01*
X73878648Y-120127703D01*
X73844629Y-120228810D01*
X73810235Y-120307788D01*
X73759214Y-120400148D01*
X73698367Y-120485141D01*
X73627254Y-120563049D01*
X73545434Y-120634156D01*
X73452466Y-120698744D01*
X73347910Y-120757098D01*
X73231325Y-120809500D01*
X73102271Y-120856233D01*
X72960307Y-120897580D01*
X72852058Y-120923684D01*
X72783882Y-120937997D01*
X72705925Y-120952902D01*
X72622852Y-120967600D01*
X72539330Y-120981289D01*
X72460024Y-120993170D01*
X72400386Y-121001129D01*
X72361474Y-121006824D01*
X72336745Y-121012497D01*
X72326349Y-121018110D01*
X72326000Y-121019330D01*
X72326798Y-121027537D01*
X72329128Y-121049292D01*
X72332892Y-121083721D01*
X72337991Y-121129948D01*
X72344330Y-121187100D01*
X72351809Y-121254302D01*
X72360332Y-121330680D01*
X72369801Y-121415358D01*
X72380119Y-121507463D01*
X72391187Y-121606119D01*
X72402908Y-121710453D01*
X72415184Y-121819589D01*
X72427704Y-121930742D01*
X72444225Y-122077346D01*
X72459201Y-122210315D01*
X72472706Y-122330437D01*
X72484817Y-122438500D01*
X72495610Y-122535292D01*
X72505160Y-122621603D01*
X72513544Y-122698219D01*
X72520837Y-122765929D01*
X72527115Y-122825521D01*
X72532456Y-122877784D01*
X72536933Y-122923505D01*
X72540624Y-122963473D01*
X72543604Y-122998477D01*
X72545949Y-123029303D01*
X72547736Y-123056741D01*
X72549039Y-123081578D01*
X72549936Y-123104603D01*
X72550502Y-123126605D01*
X72550812Y-123148370D01*
X72550944Y-123170688D01*
X72550972Y-123194346D01*
X72550972Y-123209938D01*
X72546499Y-123362157D01*
X72532987Y-123503340D01*
X72510291Y-123633917D01*
X72478270Y-123754322D01*
X72436781Y-123864983D01*
X72385679Y-123966335D01*
X72324824Y-124058806D01*
X72254071Y-124142830D01*
X72235762Y-124161625D01*
X72155275Y-124233400D01*
X72066660Y-124295811D01*
X71969308Y-124349084D01*
X71862614Y-124393447D01*
X71745970Y-124429125D01*
X71618768Y-124456345D01*
X71480403Y-124475334D01*
X71371686Y-124484148D01*
X71224657Y-124487603D01*
X71086756Y-124479804D01*
X70957907Y-124460719D01*
X70838032Y-124430316D01*
X70727056Y-124388562D01*
X70624901Y-124335426D01*
X70531492Y-124270876D01*
X70446751Y-124194880D01*
X70370603Y-124107406D01*
X70328407Y-124048500D01*
X70278966Y-123968307D01*
X70235329Y-123884521D01*
X70197103Y-123795766D01*
X70163895Y-123700667D01*
X70135311Y-123597850D01*
X70110958Y-123485940D01*
X70090441Y-123363562D01*
X70073368Y-123229342D01*
X70062564Y-123119828D01*
X70060746Y-123101310D01*
X70059291Y-123092028D01*
X70058151Y-123092801D01*
X70057280Y-123104446D01*
X70056631Y-123127781D01*
X70056156Y-123163626D01*
X70055809Y-123212797D01*
X70055681Y-123239571D01*
X70054447Y-123527952D01*
X70053269Y-123802157D01*
X70052145Y-124062526D01*
X70051074Y-124309398D01*
X70050054Y-124543111D01*
X70049083Y-124764006D01*
X70048159Y-124972421D01*
X70047281Y-125168694D01*
X70046447Y-125353166D01*
X70045654Y-125526174D01*
X70044902Y-125688058D01*
X70044189Y-125839158D01*
X70043512Y-125979811D01*
X70042870Y-126110357D01*
X70042261Y-126231136D01*
X70041684Y-126342485D01*
X70041136Y-126444745D01*
X70040616Y-126538253D01*
X70040121Y-126623350D01*
X70039652Y-126700373D01*
X70039204Y-126769663D01*
X70038778Y-126831558D01*
X70038370Y-126886397D01*
X70037979Y-126934519D01*
X70037604Y-126976264D01*
X70037242Y-127011969D01*
X70036892Y-127041975D01*
X70036553Y-127066620D01*
X70036221Y-127086243D01*
X70035896Y-127101183D01*
X70035576Y-127111780D01*
X70035358Y-127116700D01*
X70031346Y-127191086D01*
X69517968Y-127191086D01*
X69426021Y-127191014D01*
X69333078Y-127190807D01*
X69241000Y-127190477D01*
X69151652Y-127190036D01*
X69066897Y-127189497D01*
X68988596Y-127188872D01*
X68918614Y-127188173D01*
X68858812Y-127187413D01*
X68811054Y-127186604D01*
X68798395Y-127186331D01*
X68592200Y-127181577D01*
X68594500Y-126524117D01*
X68594749Y-126433320D01*
X68594912Y-126329660D01*
X68594992Y-126214786D01*
X68594990Y-126090350D01*
X68594910Y-125958002D01*
X68594754Y-125819392D01*
X68594524Y-125676171D01*
X68594225Y-125529990D01*
X68593857Y-125382499D01*
X68593424Y-125235347D01*
X68592928Y-125090187D01*
X68592372Y-124948668D01*
X68591796Y-124820048D01*
X68586791Y-123773439D01*
X68535067Y-123816508D01*
X68507483Y-123839662D01*
X68479910Y-123863115D01*
X68457237Y-123882701D01*
X68452313Y-123887031D01*
X68421282Y-123914486D01*
X68414331Y-125311486D01*
X68413614Y-125456717D01*
X68412916Y-125600294D01*
X68412241Y-125741349D01*
X68411593Y-125879013D01*
X68410975Y-126012420D01*
X68410391Y-126140699D01*
X68409845Y-126262984D01*
X68409341Y-126378406D01*
X68408883Y-126486097D01*
X68408473Y-126585189D01*
X68408117Y-126674813D01*
X68407817Y-126754102D01*
X68407578Y-126822187D01*
X68407403Y-126878200D01*
X68407296Y-126921273D01*
X68407261Y-126946157D01*
X68407143Y-127183828D01*
X67928172Y-127183828D01*
X67928172Y-125681600D01*
X67928159Y-125535050D01*
X67928124Y-125392401D01*
X67928065Y-125254328D01*
X67927986Y-125121506D01*
X67927886Y-124994611D01*
X67927767Y-124874318D01*
X67927630Y-124761302D01*
X67927476Y-124656239D01*
X67927307Y-124559803D01*
X67927124Y-124472670D01*
X67926927Y-124395516D01*
X67926718Y-124329016D01*
X67926498Y-124273845D01*
X67926269Y-124230678D01*
X67926030Y-124200190D01*
X67925785Y-124183058D01*
X67925604Y-124179371D01*
X67918310Y-124181820D01*
X67899762Y-124188597D01*
X67872267Y-124198843D01*
X67838126Y-124211703D01*
X67811304Y-124221879D01*
X67769000Y-124237790D01*
X67727002Y-124253265D01*
X67689116Y-124266922D01*
X67659149Y-124277380D01*
X67648772Y-124280834D01*
X67623192Y-124289557D01*
X67603110Y-124297220D01*
X67592506Y-124302294D01*
X67592107Y-124302611D01*
X67591816Y-124311081D01*
X67594710Y-124331177D01*
X67600332Y-124360476D01*
X67608228Y-124396552D01*
X67615442Y-124426899D01*
X67632403Y-124498262D01*
X67646044Y-124561722D01*
X67656708Y-124620331D01*
X67664739Y-124677137D01*
X67670480Y-124735192D01*
X67674275Y-124797546D01*
X67676467Y-124867249D01*
X67677401Y-124947352D01*
X67677493Y-124977657D01*
X67677477Y-125043405D01*
X67677143Y-125097128D01*
X67676367Y-125141313D01*
X67675023Y-125178447D01*
X67672985Y-125211019D01*
X67670127Y-125241516D01*
X67666325Y-125272426D01*
X67661453Y-125306236D01*
X67660657Y-125311486D01*
X67625789Y-125493964D01*
X67577752Y-125670444D01*
X67516612Y-125840772D01*
X67442438Y-126004795D01*
X67355298Y-126162360D01*
X67255258Y-126313316D01*
X67164456Y-126431078D01*
X67129764Y-126471082D01*
X67086903Y-126517133D01*
X67038625Y-126566546D01*
X66987680Y-126616636D01*
X66936819Y-126664716D01*
X66888794Y-126708103D01*
X66846356Y-126744111D01*
X66832343Y-126755241D01*
X66684893Y-126860787D01*
X66532369Y-126952736D01*
X66374746Y-127031095D01*
X66212002Y-127095874D01*
X66044113Y-127147083D01*
X65871055Y-127184730D01*
X65692806Y-127208825D01*
X65649792Y-127212550D01*
X65570665Y-127217045D01*
X65489738Y-127218686D01*
X65413224Y-127217410D01*
X65373657Y-127215332D01*
X65199024Y-127197349D01*
X65031983Y-127167730D01*
X64870884Y-127126024D01*
X64714073Y-127071783D01*
X64559898Y-127004557D01*
X64513686Y-126981676D01*
X64445938Y-126945109D01*
X64372917Y-126902036D01*
X64298753Y-126855113D01*
X64227571Y-126806999D01*
X64163502Y-126760350D01*
X64133922Y-126737195D01*
X64010031Y-126628426D01*
X63892753Y-126507919D01*
X63783550Y-126377503D01*
X63683887Y-126239013D01*
X63595230Y-126094279D01*
X63546578Y-126002506D01*
X63486389Y-125873492D01*
X63436047Y-125746460D01*
X63394495Y-125617946D01*
X63360674Y-125484487D01*
X63333527Y-125342619D01*
X63322194Y-125267943D01*
X63317751Y-125226228D01*
X63314272Y-125173333D01*
X63311764Y-125112159D01*
X63310232Y-125045603D01*
X63309681Y-124976563D01*
X63309767Y-124963027D01*
X64824083Y-124963027D01*
X64824925Y-125006686D01*
X64833262Y-125153496D01*
X64848626Y-125294485D01*
X64870705Y-125428963D01*
X64899184Y-125556243D01*
X64933750Y-125675636D01*
X64974088Y-125786453D01*
X65019886Y-125888007D01*
X65070830Y-125979609D01*
X65126607Y-126060570D01*
X65186901Y-126130203D01*
X65251401Y-126187820D01*
X65319791Y-126232731D01*
X65391760Y-126264249D01*
X65399057Y-126266612D01*
X65429561Y-126272668D01*
X65468961Y-126275625D01*
X65511982Y-126275523D01*
X65553351Y-126272400D01*
X65587793Y-126266296D01*
X65591869Y-126265175D01*
X65655018Y-126239722D01*
X65717801Y-126200867D01*
X65779124Y-126149707D01*
X65837891Y-126087336D01*
X65893006Y-126014848D01*
X65943374Y-125933338D01*
X65965170Y-125892075D01*
X66014340Y-125783861D01*
X66056460Y-125668966D01*
X66092008Y-125545713D01*
X66121459Y-125412424D01*
X66145290Y-125267423D01*
X66147824Y-125248940D01*
X66151969Y-125210162D01*
X66155294Y-125162961D01*
X66157821Y-125109158D01*
X66159567Y-125050573D01*
X66160555Y-124989025D01*
X66160804Y-124926334D01*
X66160334Y-124864320D01*
X66159165Y-124804803D01*
X66157318Y-124749604D01*
X66154812Y-124700542D01*
X66151668Y-124659437D01*
X66147907Y-124628108D01*
X66143547Y-124608377D01*
X66140668Y-124602877D01*
X66132638Y-124602355D01*
X66112605Y-124603118D01*
X66083010Y-124605015D01*
X66046291Y-124607894D01*
X66014851Y-124610672D01*
X65900214Y-124620757D01*
X65789503Y-124629386D01*
X65679903Y-124636704D01*
X65568600Y-124642859D01*
X65452778Y-124647998D01*
X65329623Y-124652268D01*
X65196319Y-124655816D01*
X65117936Y-124657507D01*
X65056297Y-124658848D01*
X64999282Y-124660294D01*
X64948506Y-124661787D01*
X64905582Y-124663272D01*
X64872126Y-124664691D01*
X64849751Y-124665989D01*
X64840071Y-124667108D01*
X64839833Y-124667234D01*
X64836605Y-124677385D01*
X64833536Y-124699767D01*
X64830726Y-124732096D01*
X64828277Y-124772089D01*
X64826287Y-124817462D01*
X64824858Y-124865931D01*
X64824090Y-124915214D01*
X64824083Y-124963027D01*
X63309767Y-124963027D01*
X63310117Y-124907939D01*
X63311545Y-124842627D01*
X63313971Y-124783529D01*
X63317400Y-124733540D01*
X63321118Y-124700308D01*
X63331308Y-124629788D01*
X63312897Y-124626233D01*
X63300484Y-124624994D01*
X63275911Y-124623494D01*
X63241529Y-124621840D01*
X63199686Y-124620140D01*
X63152734Y-124618504D01*
X63129386Y-124617782D01*
X62964286Y-124612886D01*
X62964286Y-127169314D01*
X62543412Y-127169314D01*
X62541577Y-125875728D01*
X62539743Y-124582143D01*
X62454333Y-124575629D01*
X62420778Y-124573317D01*
X62392921Y-124571866D01*
X62373705Y-124571395D01*
X62366095Y-124572001D01*
X62365768Y-124579443D01*
X62365394Y-124600670D01*
X62364976Y-124634954D01*
X62364519Y-124681566D01*
X62364027Y-124739776D01*
X62363506Y-124808856D01*
X62362959Y-124888077D01*
X62362391Y-124976711D01*
X62361807Y-125074027D01*
X62361212Y-125179299D01*
X62360610Y-125291795D01*
X62360005Y-125410789D01*
X62359402Y-125535550D01*
X62358806Y-125665350D01*
X62358222Y-125799461D01*
X62357918Y-125872100D01*
X62352569Y-127169314D01*
X60903257Y-127169314D01*
X60903183Y-125425786D01*
X60903168Y-125235565D01*
X60903139Y-125059201D01*
X60903090Y-124896035D01*
X60903017Y-124745412D01*
X60902915Y-124606671D01*
X60902780Y-124479157D01*
X60902720Y-124437830D01*
X64872915Y-124437830D01*
X64872915Y-124456180D01*
X65063415Y-124451751D01*
X65127665Y-124450110D01*
X65199097Y-124448038D01*
X65272697Y-124445696D01*
X65343455Y-124443247D01*
X65406359Y-124440851D01*
X65424457Y-124440104D01*
X65494127Y-124436919D01*
X65566379Y-124433186D01*
X65639697Y-124429018D01*
X65712569Y-124424526D01*
X65783479Y-124419825D01*
X65850914Y-124415027D01*
X65913359Y-124410244D01*
X65969300Y-124405590D01*
X66017224Y-124401177D01*
X66055616Y-124397119D01*
X66082961Y-124393528D01*
X66097746Y-124390517D01*
X66099422Y-124389797D01*
X66101861Y-124380156D01*
X66099397Y-124358277D01*
X66092340Y-124325467D01*
X66081003Y-124283035D01*
X66065696Y-124232287D01*
X66051574Y-124188884D01*
X66010670Y-124079405D01*
X65964736Y-123979764D01*
X65914279Y-123890460D01*
X65859807Y-123811991D01*
X65801826Y-123744853D01*
X65740844Y-123689545D01*
X65677368Y-123646564D01*
X65611906Y-123616408D01*
X65544966Y-123599574D01*
X65477053Y-123596561D01*
X65450422Y-123599238D01*
X65387368Y-123613027D01*
X65328757Y-123636523D01*
X65272420Y-123670955D01*
X65216190Y-123717551D01*
X65182069Y-123751368D01*
X65114908Y-123831429D01*
X65053972Y-123924431D01*
X64999372Y-124030151D01*
X64951219Y-124148368D01*
X64909622Y-124278859D01*
X64897756Y-124323012D01*
X64888574Y-124359973D01*
X64880925Y-124393254D01*
X64875503Y-124419644D01*
X64873003Y-124435931D01*
X64872915Y-124437830D01*
X60902720Y-124437830D01*
X60902608Y-124362211D01*
X60902394Y-124255176D01*
X60902133Y-124157394D01*
X60901822Y-124068208D01*
X60901454Y-123986959D01*
X60901027Y-123912990D01*
X60900536Y-123845643D01*
X60899976Y-123784262D01*
X60899342Y-123728187D01*
X60898630Y-123676762D01*
X60897836Y-123629329D01*
X60896955Y-123585230D01*
X60895982Y-123543808D01*
X60894914Y-123504404D01*
X60893745Y-123466362D01*
X60892472Y-123429023D01*
X60891089Y-123391730D01*
X60889592Y-123353825D01*
X60888928Y-123337543D01*
X60873282Y-122880137D01*
X60864280Y-122430750D01*
X60861910Y-121990129D01*
X60866160Y-121559018D01*
X60874015Y-121254663D01*
X61084686Y-121254663D01*
X61717872Y-121256517D01*
X62351057Y-121258371D01*
X62352888Y-122816843D01*
X62353101Y-122994159D01*
X62353308Y-123157531D01*
X62353516Y-123307527D01*
X62353730Y-123444717D01*
X62353955Y-123569669D01*
X62354195Y-123682954D01*
X62354458Y-123785140D01*
X62354747Y-123876796D01*
X62355069Y-123958493D01*
X62355428Y-124030799D01*
X62355829Y-124094284D01*
X62356279Y-124149516D01*
X62356783Y-124197066D01*
X62357344Y-124237502D01*
X62357970Y-124271393D01*
X62358666Y-124299310D01*
X62359435Y-124321821D01*
X62360285Y-124339495D01*
X62361220Y-124352903D01*
X62362245Y-124362612D01*
X62363366Y-124369193D01*
X62364588Y-124373215D01*
X62365917Y-124375246D01*
X62367357Y-124375857D01*
X62367403Y-124375860D01*
X62376733Y-124376276D01*
X62399284Y-124377289D01*
X62433776Y-124378841D01*
X62478933Y-124380875D01*
X62533473Y-124383333D01*
X62596119Y-124386157D01*
X62665592Y-124389290D01*
X62740614Y-124392674D01*
X62819904Y-124396251D01*
X62830029Y-124396708D01*
X62910990Y-124400340D01*
X62988798Y-124403791D01*
X63062044Y-124407001D01*
X63129316Y-124409909D01*
X63189205Y-124412457D01*
X63240302Y-124414583D01*
X63281194Y-124416228D01*
X63310474Y-124417332D01*
X63326729Y-124417835D01*
X63327143Y-124417842D01*
X63374315Y-124418675D01*
X63398374Y-124333494D01*
X63447540Y-124183836D01*
X63509933Y-124034644D01*
X63584351Y-123887916D01*
X63669587Y-123745654D01*
X63764438Y-123609855D01*
X63867699Y-123482520D01*
X63978164Y-123365646D01*
X63986351Y-123357701D01*
X64120537Y-123238053D01*
X64261987Y-123130946D01*
X64410482Y-123036487D01*
X64565802Y-122954779D01*
X64727725Y-122885930D01*
X64896033Y-122830044D01*
X65070506Y-122787227D01*
X65232143Y-122760017D01*
X65290022Y-122754072D01*
X65358491Y-122749933D01*
X65433737Y-122747602D01*
X65511948Y-122747082D01*
X65589311Y-122748376D01*
X65662014Y-122751487D01*
X65726244Y-122756416D01*
X65754657Y-122759651D01*
X65934276Y-122790007D01*
X66107481Y-122833342D01*
X66274156Y-122889600D01*
X66434186Y-122958725D01*
X66587455Y-123040662D01*
X66733848Y-123135356D01*
X66873249Y-123242750D01*
X67000688Y-123358038D01*
X67115489Y-123477261D01*
X67217551Y-123598918D01*
X67308650Y-123725481D01*
X67390563Y-123859423D01*
X67465064Y-124003217D01*
X67467107Y-124007507D01*
X67514200Y-124106616D01*
X67617772Y-124070204D01*
X67781104Y-124009530D01*
X67944961Y-123942405D01*
X68106137Y-123870304D01*
X68261426Y-123794703D01*
X68407625Y-123717079D01*
X68501486Y-123663135D01*
X68592200Y-123609146D01*
X68596542Y-123065130D01*
X68597236Y-122973871D01*
X68597965Y-122870319D01*
X68598715Y-122756693D01*
X68599473Y-122635215D01*
X68600227Y-122508106D01*
X68600964Y-122377586D01*
X68601672Y-122245875D01*
X68602338Y-122115194D01*
X68602661Y-122047711D01*
X70061772Y-122047711D01*
X70061772Y-122489960D01*
X70086927Y-122467874D01*
X70143383Y-122424526D01*
X70210105Y-122383580D01*
X70282847Y-122347226D01*
X70357362Y-122317656D01*
X70408102Y-122302218D01*
X70444677Y-122293496D01*
X70478144Y-122287821D01*
X70513792Y-122284579D01*
X70556912Y-122283153D01*
X70573400Y-122282978D01*
X70674510Y-122288207D01*
X70768792Y-122305725D01*
X70857985Y-122336105D01*
X70943829Y-122379919D01*
X71016287Y-122428770D01*
X71064861Y-122466799D01*
X71101756Y-122500243D01*
X71128095Y-122531359D01*
X71145002Y-122562402D01*
X71153599Y-122595627D01*
X71155010Y-122633290D01*
X71150356Y-122677646D01*
X71147870Y-122693039D01*
X71140164Y-122731432D01*
X71130139Y-122772421D01*
X71119695Y-122808377D01*
X71117469Y-122815028D01*
X71098797Y-122888879D01*
X71090600Y-122969896D01*
X71092489Y-123055620D01*
X71104075Y-123143594D01*
X71124970Y-123231358D01*
X71154784Y-123316453D01*
X71193128Y-123396423D01*
X71215367Y-123433700D01*
X71235352Y-123463195D01*
X71251236Y-123481208D01*
X71265619Y-123489130D01*
X71281098Y-123488354D01*
X71300272Y-123480273D01*
X71301289Y-123479746D01*
X71332096Y-123456454D01*
X71358188Y-123421023D01*
X71379558Y-123373360D01*
X71396200Y-123313369D01*
X71408108Y-123240956D01*
X71415277Y-123156027D01*
X71417699Y-123058488D01*
X71415369Y-122948244D01*
X71408280Y-122825200D01*
X71396427Y-122689263D01*
X71379804Y-122540337D01*
X71358404Y-122378329D01*
X71332220Y-122203144D01*
X71301248Y-122014687D01*
X71265481Y-121812865D01*
X71224913Y-121597582D01*
X71179537Y-121368745D01*
X71157359Y-121260408D01*
X71147135Y-121211173D01*
X71137701Y-121166207D01*
X71129504Y-121127610D01*
X71122993Y-121097483D01*
X71118616Y-121077926D01*
X71117017Y-121071500D01*
X71115607Y-121069070D01*
X71112329Y-121066971D01*
X71106194Y-121065178D01*
X71096210Y-121063667D01*
X71081387Y-121062414D01*
X71060733Y-121061395D01*
X71033258Y-121060587D01*
X70997971Y-121059965D01*
X70953882Y-121059505D01*
X70899999Y-121059183D01*
X70835332Y-121058976D01*
X70758890Y-121058859D01*
X70669682Y-121058809D01*
X70592232Y-121058800D01*
X70071385Y-121058800D01*
X70066578Y-121332130D01*
X70065660Y-121392503D01*
X70064799Y-121464877D01*
X70064013Y-121546738D01*
X70063318Y-121635573D01*
X70062731Y-121728868D01*
X70062269Y-121824111D01*
X70061949Y-121918787D01*
X70061788Y-122010384D01*
X70061772Y-122047711D01*
X68602661Y-122047711D01*
X68602949Y-121987764D01*
X68603493Y-121865806D01*
X68603799Y-121791771D01*
X68606715Y-121062428D01*
X67296800Y-121058800D01*
X65986886Y-121055171D01*
X65954229Y-121035923D01*
X65915041Y-121004526D01*
X65884060Y-120961860D01*
X65861991Y-120909081D01*
X65852668Y-120869371D01*
X65850834Y-120851619D01*
X65849317Y-120821287D01*
X65848114Y-120778106D01*
X65847222Y-120721810D01*
X65846639Y-120652132D01*
X65846362Y-120568804D01*
X65846387Y-120471560D01*
X65846712Y-120360131D01*
X65846827Y-120333086D01*
X65849000Y-119843228D01*
X65865571Y-119802247D01*
X65886152Y-119762785D01*
X65913541Y-119726372D01*
X65944260Y-119697120D01*
X65966738Y-119682674D01*
X65971342Y-119680620D01*
X65976968Y-119678777D01*
X65984408Y-119677129D01*
X65994453Y-119675661D01*
X66007895Y-119674358D01*
X66025523Y-119673205D01*
X66048130Y-119672185D01*
X66076506Y-119671285D01*
X66111443Y-119670488D01*
X66153732Y-119669780D01*
X66204163Y-119669145D01*
X66263529Y-119668567D01*
X66332619Y-119668032D01*
X66412226Y-119667524D01*
X66503141Y-119667029D01*
X66606153Y-119666529D01*
X66722056Y-119666011D01*
X66851639Y-119665459D01*
X66858968Y-119665428D01*
X67723793Y-119661800D01*
X67295631Y-118475257D01*
X67241726Y-118325858D01*
X67192537Y-118189479D01*
X67147846Y-118065491D01*
X67107434Y-117953264D01*
X67071086Y-117852168D01*
X67038581Y-117761573D01*
X67009703Y-117680851D01*
X66984234Y-117609370D01*
X66961955Y-117546502D01*
X66942650Y-117491617D01*
X66926100Y-117444084D01*
X66912087Y-117403275D01*
X66900394Y-117368560D01*
X66890802Y-117339308D01*
X66883095Y-117314890D01*
X66877053Y-117294677D01*
X66872460Y-117278039D01*
X66869097Y-117264345D01*
X66866746Y-117252967D01*
X66865191Y-117243274D01*
X66864212Y-117234638D01*
X66863592Y-117226427D01*
X66863585Y-117226315D01*
X66864336Y-117166305D01*
X66874956Y-117110290D01*
X66896302Y-117056397D01*
X66929232Y-117002750D01*
X66974602Y-116947474D01*
X67005911Y-116914962D01*
X67072327Y-116855454D01*
X67149761Y-116797872D01*
X67238765Y-116741925D01*
X67339891Y-116687323D01*
X67453691Y-116633774D01*
X67580716Y-116580989D01*
X67721517Y-116528676D01*
X67772143Y-116511110D01*
X67925186Y-116462032D01*
X68090214Y-116414964D01*
X68264772Y-116370419D01*
X68446410Y-116328910D01*
X68632674Y-116290950D01*
X68821112Y-116257052D01*
X69009270Y-116227729D01*
X69194696Y-116203496D01*
X69294974Y-116192487D01*
X69344604Y-116187428D01*
X69319385Y-116222814D01*
X69288378Y-116271946D01*
X69256496Y-116332896D01*
X69224854Y-116403103D01*
X69194565Y-116480007D01*
X69166746Y-116561048D01*
X69154122Y-116602282D01*
X69115862Y-116750942D01*
X69084769Y-116911264D01*
X69060885Y-117082263D01*
X69044252Y-117262958D01*
X69034914Y-117452364D01*
X69032913Y-117649498D01*
X69038289Y-117853376D01*
X69051087Y-118063015D01*
X69071349Y-118277432D01*
X69079141Y-118344628D01*
X69104034Y-118530747D01*
X69134663Y-118726417D01*
X69170365Y-118928160D01*
X69210479Y-119132500D01*
X69254342Y-119335960D01*
X69301291Y-119535061D01*
X69320351Y-119611000D01*
X69333331Y-119661800D01*
X69422601Y-119663844D01*
X69511870Y-119665888D01*
X69508443Y-119642073D01*
X69505858Y-119628681D01*
X69500359Y-119603355D01*
X69492444Y-119568268D01*
X69482607Y-119525593D01*
X69471344Y-119477506D01*
X69460828Y-119433200D01*
X69390361Y-119116598D01*
X69331208Y-118803488D01*
X69282647Y-118489487D01*
X69243958Y-118170213D01*
X69230394Y-118032571D01*
X69226509Y-117981719D01*
X69223071Y-117919789D01*
X69220115Y-117849229D01*
X69217677Y-117772486D01*
X69215790Y-117692007D01*
X69214490Y-117610238D01*
X69213812Y-117529627D01*
X69213797Y-117474906D01*
X70296527Y-117474906D01*
X70305396Y-117546543D01*
X70326143Y-117616110D01*
X70358803Y-117681826D01*
X70403408Y-117741909D01*
X70417575Y-117757006D01*
X70474977Y-117805376D01*
X70538580Y-117840865D01*
X70607350Y-117863170D01*
X70680252Y-117871993D01*
X70756253Y-117867034D01*
X70781180Y-117862462D01*
X70847893Y-117841217D01*
X70908471Y-117807958D01*
X70961959Y-117764230D01*
X71007404Y-117711577D01*
X71043849Y-117651544D01*
X71070340Y-117585675D01*
X71085923Y-117515516D01*
X71089641Y-117442610D01*
X71082031Y-117375800D01*
X71060914Y-117301357D01*
X71027871Y-117234829D01*
X70982245Y-117174980D01*
X70965946Y-117158086D01*
X70908324Y-117109792D01*
X70847024Y-117075304D01*
X70780864Y-117054131D01*
X70708661Y-117045780D01*
X70695604Y-117045600D01*
X70620279Y-117051721D01*
X70551725Y-117070411D01*
X70488665Y-117102162D01*
X70429820Y-117147465D01*
X70429168Y-117148062D01*
X70379155Y-117203312D01*
X70340850Y-117265404D01*
X70314288Y-117332555D01*
X70299502Y-117402983D01*
X70296527Y-117474906D01*
X69213797Y-117474906D01*
X69213790Y-117452622D01*
X69214460Y-117381669D01*
X69215856Y-117319214D01*
X69218012Y-117267707D01*
X69219237Y-117248800D01*
X69235802Y-117077529D01*
X69259035Y-116918898D01*
X69289047Y-116772598D01*
X69325948Y-116638319D01*
X69369850Y-116515752D01*
X69420864Y-116404588D01*
X69479101Y-116304518D01*
X69544673Y-116215231D01*
X69617690Y-116136420D01*
X69619958Y-116134251D01*
X69701661Y-116064284D01*
X69796518Y-115997132D01*
X69903362Y-115933258D01*
X70021024Y-115873125D01*
X70148337Y-115817195D01*
X70284132Y-115765932D01*
X70427242Y-115719798D01*
X70576499Y-115679255D01*
X70730734Y-115644768D01*
X70888780Y-115616799D01*
X70947143Y-115608310D01*
X71006280Y-115601575D01*
X71074705Y-115596051D01*
X71149066Y-115591829D01*
X71226006Y-115588999D01*
X71302174Y-115587649D01*
X71374215Y-115587869D01*
X71438776Y-115589750D01*
X71492501Y-115593380D01*
X71495403Y-115593665D01*
X71602167Y-115607756D01*
X71701574Y-115627652D01*
X71791694Y-115652862D01*
X71870597Y-115682898D01*
X71898364Y-115696041D01*
X71920933Y-115706834D01*
X71937916Y-115713831D01*
X71945751Y-115715570D01*
X71945817Y-115715517D01*
X71946394Y-115707606D01*
X71945966Y-115687871D01*
X71944639Y-115658956D01*
X71942521Y-115623508D01*
X71941469Y-115607999D01*
X71924390Y-115440935D01*
X71897168Y-115283657D01*
X71859681Y-115136052D01*
X71811804Y-114998007D01*
X71753414Y-114869412D01*
X71684388Y-114750153D01*
X71604602Y-114640119D01*
X71513932Y-114539197D01*
X71412256Y-114447275D01*
X71299449Y-114364242D01*
X71175388Y-114289984D01*
X71039950Y-114224391D01*
X70893011Y-114167349D01*
X70734448Y-114118747D01*
X70564137Y-114078472D01*
X70381954Y-114046412D01*
X70196029Y-114023286D01*
X70119837Y-114016484D01*
X70033092Y-114010353D01*
X69938188Y-114004953D01*
X69837519Y-114000344D01*
X69733480Y-113996586D01*
X69628464Y-113993739D01*
X69524866Y-113991864D01*
X69425080Y-113991020D01*
X69331500Y-113991268D01*
X69246522Y-113992668D01*
X69172538Y-113995280D01*
X69143743Y-113996850D01*
X68902441Y-114017652D01*
X68654048Y-114050412D01*
X68399242Y-114094826D01*
X68138702Y-114150591D01*
X67873105Y-114217407D01*
X67603131Y-114294968D01*
X67329458Y-114382974D01*
X67052763Y-114481121D01*
X66773726Y-114589108D01*
X66493024Y-114706630D01*
X66211336Y-114833386D01*
X65929340Y-114969073D01*
X65647715Y-115113389D01*
X65367139Y-115266030D01*
X65088290Y-115426695D01*
X64811847Y-115595080D01*
X64538488Y-115770883D01*
X64268891Y-115953802D01*
X64003734Y-116143533D01*
X63743696Y-116339775D01*
X63552094Y-116491322D01*
X63346892Y-116661540D01*
X63144619Y-116838366D01*
X62947246Y-117019915D01*
X62756739Y-117204300D01*
X62575069Y-117389635D01*
X62404203Y-117574035D01*
X62307008Y-117684228D01*
X62141419Y-117882921D01*
X61987750Y-118082111D01*
X61846218Y-118281387D01*
X61717045Y-118480336D01*
X61600449Y-118678545D01*
X61496651Y-118875602D01*
X61405870Y-119071094D01*
X61328325Y-119264609D01*
X61264238Y-119455734D01*
X61213826Y-119644057D01*
X61183207Y-119794047D01*
X61176060Y-119836878D01*
X61169434Y-119880132D01*
X61164007Y-119919143D01*
X61160460Y-119949241D01*
X61160137Y-119952647D01*
X61155118Y-120008027D01*
X61191522Y-119981873D01*
X61246181Y-119947203D01*
X61313379Y-119912285D01*
X61391175Y-119877859D01*
X61477628Y-119844663D01*
X61570796Y-119813437D01*
X61668739Y-119784921D01*
X61769515Y-119759855D01*
X61781372Y-119757188D01*
X61861429Y-119740991D01*
X61942056Y-119727677D01*
X62021316Y-119717372D01*
X62097277Y-119710201D01*
X62168004Y-119706291D01*
X62231563Y-119705766D01*
X62286022Y-119708752D01*
X62329444Y-119715374D01*
X62347413Y-119720433D01*
X62375403Y-119732639D01*
X62391314Y-119746004D01*
X62395047Y-119752514D01*
X62396458Y-119761157D01*
X62397525Y-119779969D01*
X62398246Y-119809410D01*
X62398619Y-119849941D01*
X62398642Y-119902022D01*
X62398314Y-119966114D01*
X62397633Y-120042678D01*
X62396598Y-120132174D01*
X62395206Y-120235064D01*
X62393455Y-120351806D01*
X62392604Y-120405657D01*
X62391046Y-120500368D01*
X62389481Y-120590886D01*
X62387930Y-120676165D01*
X62386417Y-120755159D01*
X62384964Y-120826821D01*
X62383593Y-120890104D01*
X62382328Y-120943963D01*
X62381190Y-120987351D01*
X62380202Y-121019221D01*
X62379387Y-121038527D01*
X62378840Y-121044286D01*
X62371214Y-121044850D01*
X62350116Y-121045439D01*
X62316587Y-121046044D01*
X62271669Y-121046655D01*
X62216404Y-121047261D01*
X62151834Y-121047854D01*
X62079000Y-121048424D01*
X61998944Y-121048961D01*
X61912708Y-121049456D01*
X61821334Y-121049898D01*
X61734548Y-121050247D01*
X61093842Y-121052580D01*
X61089327Y-121090161D01*
X61087173Y-121115706D01*
X61085560Y-121149299D01*
X61084779Y-121184479D01*
X61084749Y-121191203D01*
X61084686Y-121254663D01*
X60874015Y-121254663D01*
X60877022Y-121138164D01*
X60894483Y-120728313D01*
X60918532Y-120330209D01*
X60936126Y-120097228D01*
X60950500Y-119947748D01*
X60968663Y-119809151D01*
X60991277Y-119678148D01*
X61019002Y-119551447D01*
X61052499Y-119425760D01*
X61092430Y-119297796D01*
X61103076Y-119266286D01*
X61179247Y-119063756D01*
X61269517Y-118859412D01*
X61373626Y-118653566D01*
X61491316Y-118446529D01*
X61622327Y-118238612D01*
X61766400Y-118030124D01*
X61923275Y-117821379D01*
X62092694Y-117612685D01*
X62274398Y-117404355D01*
X62468126Y-117196699D01*
X62673621Y-116990029D01*
X62890622Y-116784654D01*
X63118870Y-116580887D01*
X63358107Y-116379038D01*
X63608073Y-116179417D01*
X63795229Y-116036735D01*
X64059771Y-115844150D01*
X64329463Y-115658053D01*
X64603568Y-115478767D01*
X64881348Y-115306612D01*
X65162066Y-115141910D01*
X65444983Y-114984984D01*
X65729361Y-114836154D01*
X66014464Y-114695743D01*
X66299553Y-114564072D01*
X66583890Y-114441462D01*
X66866738Y-114328236D01*
X67147360Y-114224715D01*
X67425017Y-114131221D01*
X67698971Y-114048075D01*
X67968485Y-113975599D01*
X68232822Y-113914115D01*
X68491243Y-113863945D01*
X68743011Y-113825409D01*
X68911630Y-113805856D01*
X69037343Y-113795470D01*
X69174504Y-113788120D01*
X69320380Y-113783745D01*
X69472238Y-113782287D01*
X69627347Y-113783686D01*
X69627347Y-113783686D01*
G37*
X69627347Y-113783686D02*
X69782972Y-113787883D01*
X69936381Y-113794818D01*
X70084841Y-113804432D01*
X70225620Y-113816666D01*
X70355986Y-113831460D01*
X70406486Y-113838351D01*
X70598005Y-113871230D01*
X70778114Y-113913035D01*
X70946893Y-113963824D01*
X71104423Y-114023653D01*
X71250782Y-114092579D01*
X71386050Y-114170660D01*
X71510306Y-114257952D01*
X71623632Y-114354513D01*
X71726105Y-114460399D01*
X71817805Y-114575668D01*
X71898813Y-114700376D01*
X71969208Y-114834580D01*
X72029069Y-114978338D01*
X72039398Y-115007135D01*
X72076300Y-115127726D01*
X72106783Y-115259260D01*
X72130531Y-115399511D01*
X72147229Y-115546253D01*
X72156559Y-115697260D01*
X72158286Y-115844543D01*
X72158235Y-115906641D01*
X72159886Y-115954448D01*
X72163237Y-115987916D01*
X72165855Y-116000377D01*
X72169534Y-116016134D01*
X72172345Y-116035185D01*
X72174287Y-116058865D01*
X72175363Y-116088509D01*
X72175575Y-116125454D01*
X72174923Y-116171034D01*
X72173410Y-116226586D01*
X72171037Y-116293444D01*
X72167805Y-116372946D01*
X72166343Y-116406971D01*
X72164667Y-116448882D01*
X72163161Y-116494089D01*
X72161818Y-116543429D01*
X72160630Y-116597740D01*
X72159590Y-116657858D01*
X72158691Y-116724620D01*
X72157927Y-116798864D01*
X72157290Y-116881427D01*
X72156773Y-116973146D01*
X72156369Y-117074857D01*
X72156071Y-117187399D01*
X72155872Y-117311608D01*
X72155765Y-117448322D01*
X72155742Y-117598376D01*
X72155756Y-117662457D01*
X72155875Y-117791646D01*
X72156152Y-117922178D01*
X72156577Y-118053241D01*
X72157139Y-118184023D01*
X72157830Y-118313710D01*
X72158641Y-118441490D01*
X72159561Y-118566552D01*
X72160582Y-118688082D01*
X72161694Y-118805267D01*
X72162887Y-118917296D01*
X72164153Y-119023356D01*
X72165481Y-119122634D01*
X72166862Y-119214318D01*
X72168287Y-119297595D01*
X72169747Y-119371653D01*
X72171232Y-119435680D01*
X72172732Y-119488862D01*
X72174238Y-119530387D01*
X72175741Y-119559444D01*
X72177231Y-119575218D01*
X72177993Y-119577898D01*
X72187680Y-119579050D01*
X72209158Y-119576705D01*
X72240270Y-119571373D01*
X72278856Y-119563566D01*
X72322759Y-119553793D01*
X72369820Y-119542566D01*
X72417881Y-119530396D01*
X72464784Y-119517794D01*
X72508370Y-119505270D01*
X72546482Y-119493336D01*
X72570252Y-119485050D01*
X72666413Y-119444391D01*
X72751221Y-119398120D01*
X72824086Y-119346689D01*
X72884418Y-119290552D01*
X72931625Y-119230161D01*
X72953972Y-119190923D01*
X72979429Y-119139286D01*
X73069934Y-118203114D01*
X73081072Y-118087815D01*
X73091817Y-117976405D01*
X73102086Y-117869748D01*
X73111798Y-117768709D01*
X73120869Y-117674153D01*
X73129217Y-117586945D01*
X73136760Y-117507950D01*
X73143414Y-117438032D01*
X73149097Y-117378057D01*
X73153728Y-117328890D01*
X73157222Y-117291395D01*
X73159498Y-117266437D01*
X73160474Y-117254882D01*
X73160505Y-117254243D01*
X73161847Y-117248923D01*
X73167360Y-117245325D01*
X73179372Y-117243120D01*
X73200211Y-117241979D01*
X73232206Y-117241573D01*
X73250484Y-117241543D01*
X73335197Y-117237950D01*
X73416170Y-117226729D01*
X73494861Y-117207216D01*
X73572724Y-117178747D01*
X73651214Y-117140660D01*
X73731787Y-117092290D01*
X73815899Y-117032974D01*
X73905005Y-116962049D01*
X73952567Y-116921430D01*
X74002714Y-116878301D01*
X74043323Y-116845235D01*
X74075374Y-116822290D01*
X74099850Y-116809528D01*
X74117729Y-116807008D01*
X74129992Y-116814791D01*
X74137621Y-116832938D01*
X74141594Y-116861508D01*
X74142894Y-116900561D01*
X74142751Y-116933114D01*
X74142108Y-116948462D01*
X74140423Y-116977416D01*
X74137761Y-117019110D01*
X74134187Y-117072679D01*
X74129764Y-117137256D01*
X74124558Y-117211975D01*
X74118632Y-117295971D01*
X74112051Y-117388377D01*
X74104878Y-117488328D01*
X74097179Y-117594957D01*
X74089018Y-117707399D01*
X74080458Y-117824788D01*
X74071565Y-117946258D01*
X74062402Y-118070943D01*
X74053034Y-118197976D01*
X74043524Y-118326493D01*
X74033939Y-118455626D01*
X74024341Y-118584511D01*
X74014794Y-118712280D01*
X74005364Y-118838069D01*
X73996115Y-118961011D01*
X73987111Y-119080241D01*
X73978415Y-119194891D01*
X73970093Y-119304098D01*
X73962209Y-119406993D01*
X73954827Y-119502712D01*
X73948011Y-119590389D01*
X73941826Y-119669158D01*
X73936336Y-119738152D01*
X73931605Y-119796505D01*
X73927697Y-119843353D01*
X73924678Y-119877828D01*
X73922610Y-119899066D01*
X73922359Y-119901286D01*
X73904295Y-120019479D01*
X73878648Y-120127703D01*
X73844629Y-120228810D01*
X73810235Y-120307788D01*
X73759214Y-120400148D01*
X73698367Y-120485141D01*
X73627254Y-120563049D01*
X73545434Y-120634156D01*
X73452466Y-120698744D01*
X73347910Y-120757098D01*
X73231325Y-120809500D01*
X73102271Y-120856233D01*
X72960307Y-120897580D01*
X72852058Y-120923684D01*
X72783882Y-120937997D01*
X72705925Y-120952902D01*
X72622852Y-120967600D01*
X72539330Y-120981289D01*
X72460024Y-120993170D01*
X72400386Y-121001129D01*
X72361474Y-121006824D01*
X72336745Y-121012497D01*
X72326349Y-121018110D01*
X72326000Y-121019330D01*
X72326798Y-121027537D01*
X72329128Y-121049292D01*
X72332892Y-121083721D01*
X72337991Y-121129948D01*
X72344330Y-121187100D01*
X72351809Y-121254302D01*
X72360332Y-121330680D01*
X72369801Y-121415358D01*
X72380119Y-121507463D01*
X72391187Y-121606119D01*
X72402908Y-121710453D01*
X72415184Y-121819589D01*
X72427704Y-121930742D01*
X72444225Y-122077346D01*
X72459201Y-122210315D01*
X72472706Y-122330437D01*
X72484817Y-122438500D01*
X72495610Y-122535292D01*
X72505160Y-122621603D01*
X72513544Y-122698219D01*
X72520837Y-122765929D01*
X72527115Y-122825521D01*
X72532456Y-122877784D01*
X72536933Y-122923505D01*
X72540624Y-122963473D01*
X72543604Y-122998477D01*
X72545949Y-123029303D01*
X72547736Y-123056741D01*
X72549039Y-123081578D01*
X72549936Y-123104603D01*
X72550502Y-123126605D01*
X72550812Y-123148370D01*
X72550944Y-123170688D01*
X72550972Y-123194346D01*
X72550972Y-123209938D01*
X72546499Y-123362157D01*
X72532987Y-123503340D01*
X72510291Y-123633917D01*
X72478270Y-123754322D01*
X72436781Y-123864983D01*
X72385679Y-123966335D01*
X72324824Y-124058806D01*
X72254071Y-124142830D01*
X72235762Y-124161625D01*
X72155275Y-124233400D01*
X72066660Y-124295811D01*
X71969308Y-124349084D01*
X71862614Y-124393447D01*
X71745970Y-124429125D01*
X71618768Y-124456345D01*
X71480403Y-124475334D01*
X71371686Y-124484148D01*
X71224657Y-124487603D01*
X71086756Y-124479804D01*
X70957907Y-124460719D01*
X70838032Y-124430316D01*
X70727056Y-124388562D01*
X70624901Y-124335426D01*
X70531492Y-124270876D01*
X70446751Y-124194880D01*
X70370603Y-124107406D01*
X70328407Y-124048500D01*
X70278966Y-123968307D01*
X70235329Y-123884521D01*
X70197103Y-123795766D01*
X70163895Y-123700667D01*
X70135311Y-123597850D01*
X70110958Y-123485940D01*
X70090441Y-123363562D01*
X70073368Y-123229342D01*
X70062564Y-123119828D01*
X70060746Y-123101310D01*
X70059291Y-123092028D01*
X70058151Y-123092801D01*
X70057280Y-123104446D01*
X70056631Y-123127781D01*
X70056156Y-123163626D01*
X70055809Y-123212797D01*
X70055681Y-123239571D01*
X70054447Y-123527952D01*
X70053269Y-123802157D01*
X70052145Y-124062526D01*
X70051074Y-124309398D01*
X70050054Y-124543111D01*
X70049083Y-124764006D01*
X70048159Y-124972421D01*
X70047281Y-125168694D01*
X70046447Y-125353166D01*
X70045654Y-125526174D01*
X70044902Y-125688058D01*
X70044189Y-125839158D01*
X70043512Y-125979811D01*
X70042870Y-126110357D01*
X70042261Y-126231136D01*
X70041684Y-126342485D01*
X70041136Y-126444745D01*
X70040616Y-126538253D01*
X70040121Y-126623350D01*
X70039652Y-126700373D01*
X70039204Y-126769663D01*
X70038778Y-126831558D01*
X70038370Y-126886397D01*
X70037979Y-126934519D01*
X70037604Y-126976264D01*
X70037242Y-127011969D01*
X70036892Y-127041975D01*
X70036553Y-127066620D01*
X70036221Y-127086243D01*
X70035896Y-127101183D01*
X70035576Y-127111780D01*
X70035358Y-127116700D01*
X70031346Y-127191086D01*
X69517968Y-127191086D01*
X69426021Y-127191014D01*
X69333078Y-127190807D01*
X69241000Y-127190477D01*
X69151652Y-127190036D01*
X69066897Y-127189497D01*
X68988596Y-127188872D01*
X68918614Y-127188173D01*
X68858812Y-127187413D01*
X68811054Y-127186604D01*
X68798395Y-127186331D01*
X68592200Y-127181577D01*
X68594500Y-126524117D01*
X68594749Y-126433320D01*
X68594912Y-126329660D01*
X68594992Y-126214786D01*
X68594990Y-126090350D01*
X68594910Y-125958002D01*
X68594754Y-125819392D01*
X68594524Y-125676171D01*
X68594225Y-125529990D01*
X68593857Y-125382499D01*
X68593424Y-125235347D01*
X68592928Y-125090187D01*
X68592372Y-124948668D01*
X68591796Y-124820048D01*
X68586791Y-123773439D01*
X68535067Y-123816508D01*
X68507483Y-123839662D01*
X68479910Y-123863115D01*
X68457237Y-123882701D01*
X68452313Y-123887031D01*
X68421282Y-123914486D01*
X68414331Y-125311486D01*
X68413614Y-125456717D01*
X68412916Y-125600294D01*
X68412241Y-125741349D01*
X68411593Y-125879013D01*
X68410975Y-126012420D01*
X68410391Y-126140699D01*
X68409845Y-126262984D01*
X68409341Y-126378406D01*
X68408883Y-126486097D01*
X68408473Y-126585189D01*
X68408117Y-126674813D01*
X68407817Y-126754102D01*
X68407578Y-126822187D01*
X68407403Y-126878200D01*
X68407296Y-126921273D01*
X68407261Y-126946157D01*
X68407143Y-127183828D01*
X67928172Y-127183828D01*
X67928172Y-125681600D01*
X67928159Y-125535050D01*
X67928124Y-125392401D01*
X67928065Y-125254328D01*
X67927986Y-125121506D01*
X67927886Y-124994611D01*
X67927767Y-124874318D01*
X67927630Y-124761302D01*
X67927476Y-124656239D01*
X67927307Y-124559803D01*
X67927124Y-124472670D01*
X67926927Y-124395516D01*
X67926718Y-124329016D01*
X67926498Y-124273845D01*
X67926269Y-124230678D01*
X67926030Y-124200190D01*
X67925785Y-124183058D01*
X67925604Y-124179371D01*
X67918310Y-124181820D01*
X67899762Y-124188597D01*
X67872267Y-124198843D01*
X67838126Y-124211703D01*
X67811304Y-124221879D01*
X67769000Y-124237790D01*
X67727002Y-124253265D01*
X67689116Y-124266922D01*
X67659149Y-124277380D01*
X67648772Y-124280834D01*
X67623192Y-124289557D01*
X67603110Y-124297220D01*
X67592506Y-124302294D01*
X67592107Y-124302611D01*
X67591816Y-124311081D01*
X67594710Y-124331177D01*
X67600332Y-124360476D01*
X67608228Y-124396552D01*
X67615442Y-124426899D01*
X67632403Y-124498262D01*
X67646044Y-124561722D01*
X67656708Y-124620331D01*
X67664739Y-124677137D01*
X67670480Y-124735192D01*
X67674275Y-124797546D01*
X67676467Y-124867249D01*
X67677401Y-124947352D01*
X67677493Y-124977657D01*
X67677477Y-125043405D01*
X67677143Y-125097128D01*
X67676367Y-125141313D01*
X67675023Y-125178447D01*
X67672985Y-125211019D01*
X67670127Y-125241516D01*
X67666325Y-125272426D01*
X67661453Y-125306236D01*
X67660657Y-125311486D01*
X67625789Y-125493964D01*
X67577752Y-125670444D01*
X67516612Y-125840772D01*
X67442438Y-126004795D01*
X67355298Y-126162360D01*
X67255258Y-126313316D01*
X67164456Y-126431078D01*
X67129764Y-126471082D01*
X67086903Y-126517133D01*
X67038625Y-126566546D01*
X66987680Y-126616636D01*
X66936819Y-126664716D01*
X66888794Y-126708103D01*
X66846356Y-126744111D01*
X66832343Y-126755241D01*
X66684893Y-126860787D01*
X66532369Y-126952736D01*
X66374746Y-127031095D01*
X66212002Y-127095874D01*
X66044113Y-127147083D01*
X65871055Y-127184730D01*
X65692806Y-127208825D01*
X65649792Y-127212550D01*
X65570665Y-127217045D01*
X65489738Y-127218686D01*
X65413224Y-127217410D01*
X65373657Y-127215332D01*
X65199024Y-127197349D01*
X65031983Y-127167730D01*
X64870884Y-127126024D01*
X64714073Y-127071783D01*
X64559898Y-127004557D01*
X64513686Y-126981676D01*
X64445938Y-126945109D01*
X64372917Y-126902036D01*
X64298753Y-126855113D01*
X64227571Y-126806999D01*
X64163502Y-126760350D01*
X64133922Y-126737195D01*
X64010031Y-126628426D01*
X63892753Y-126507919D01*
X63783550Y-126377503D01*
X63683887Y-126239013D01*
X63595230Y-126094279D01*
X63546578Y-126002506D01*
X63486389Y-125873492D01*
X63436047Y-125746460D01*
X63394495Y-125617946D01*
X63360674Y-125484487D01*
X63333527Y-125342619D01*
X63322194Y-125267943D01*
X63317751Y-125226228D01*
X63314272Y-125173333D01*
X63311764Y-125112159D01*
X63310232Y-125045603D01*
X63309681Y-124976563D01*
X63309767Y-124963027D01*
X64824083Y-124963027D01*
X64824925Y-125006686D01*
X64833262Y-125153496D01*
X64848626Y-125294485D01*
X64870705Y-125428963D01*
X64899184Y-125556243D01*
X64933750Y-125675636D01*
X64974088Y-125786453D01*
X65019886Y-125888007D01*
X65070830Y-125979609D01*
X65126607Y-126060570D01*
X65186901Y-126130203D01*
X65251401Y-126187820D01*
X65319791Y-126232731D01*
X65391760Y-126264249D01*
X65399057Y-126266612D01*
X65429561Y-126272668D01*
X65468961Y-126275625D01*
X65511982Y-126275523D01*
X65553351Y-126272400D01*
X65587793Y-126266296D01*
X65591869Y-126265175D01*
X65655018Y-126239722D01*
X65717801Y-126200867D01*
X65779124Y-126149707D01*
X65837891Y-126087336D01*
X65893006Y-126014848D01*
X65943374Y-125933338D01*
X65965170Y-125892075D01*
X66014340Y-125783861D01*
X66056460Y-125668966D01*
X66092008Y-125545713D01*
X66121459Y-125412424D01*
X66145290Y-125267423D01*
X66147824Y-125248940D01*
X66151969Y-125210162D01*
X66155294Y-125162961D01*
X66157821Y-125109158D01*
X66159567Y-125050573D01*
X66160555Y-124989025D01*
X66160804Y-124926334D01*
X66160334Y-124864320D01*
X66159165Y-124804803D01*
X66157318Y-124749604D01*
X66154812Y-124700542D01*
X66151668Y-124659437D01*
X66147907Y-124628108D01*
X66143547Y-124608377D01*
X66140668Y-124602877D01*
X66132638Y-124602355D01*
X66112605Y-124603118D01*
X66083010Y-124605015D01*
X66046291Y-124607894D01*
X66014851Y-124610672D01*
X65900214Y-124620757D01*
X65789503Y-124629386D01*
X65679903Y-124636704D01*
X65568600Y-124642859D01*
X65452778Y-124647998D01*
X65329623Y-124652268D01*
X65196319Y-124655816D01*
X65117936Y-124657507D01*
X65056297Y-124658848D01*
X64999282Y-124660294D01*
X64948506Y-124661787D01*
X64905582Y-124663272D01*
X64872126Y-124664691D01*
X64849751Y-124665989D01*
X64840071Y-124667108D01*
X64839833Y-124667234D01*
X64836605Y-124677385D01*
X64833536Y-124699767D01*
X64830726Y-124732096D01*
X64828277Y-124772089D01*
X64826287Y-124817462D01*
X64824858Y-124865931D01*
X64824090Y-124915214D01*
X64824083Y-124963027D01*
X63309767Y-124963027D01*
X63310117Y-124907939D01*
X63311545Y-124842627D01*
X63313971Y-124783529D01*
X63317400Y-124733540D01*
X63321118Y-124700308D01*
X63331308Y-124629788D01*
X63312897Y-124626233D01*
X63300484Y-124624994D01*
X63275911Y-124623494D01*
X63241529Y-124621840D01*
X63199686Y-124620140D01*
X63152734Y-124618504D01*
X63129386Y-124617782D01*
X62964286Y-124612886D01*
X62964286Y-127169314D01*
X62543412Y-127169314D01*
X62541577Y-125875728D01*
X62539743Y-124582143D01*
X62454333Y-124575629D01*
X62420778Y-124573317D01*
X62392921Y-124571866D01*
X62373705Y-124571395D01*
X62366095Y-124572001D01*
X62365768Y-124579443D01*
X62365394Y-124600670D01*
X62364976Y-124634954D01*
X62364519Y-124681566D01*
X62364027Y-124739776D01*
X62363506Y-124808856D01*
X62362959Y-124888077D01*
X62362391Y-124976711D01*
X62361807Y-125074027D01*
X62361212Y-125179299D01*
X62360610Y-125291795D01*
X62360005Y-125410789D01*
X62359402Y-125535550D01*
X62358806Y-125665350D01*
X62358222Y-125799461D01*
X62357918Y-125872100D01*
X62352569Y-127169314D01*
X60903257Y-127169314D01*
X60903183Y-125425786D01*
X60903168Y-125235565D01*
X60903139Y-125059201D01*
X60903090Y-124896035D01*
X60903017Y-124745412D01*
X60902915Y-124606671D01*
X60902780Y-124479157D01*
X60902720Y-124437830D01*
X64872915Y-124437830D01*
X64872915Y-124456180D01*
X65063415Y-124451751D01*
X65127665Y-124450110D01*
X65199097Y-124448038D01*
X65272697Y-124445696D01*
X65343455Y-124443247D01*
X65406359Y-124440851D01*
X65424457Y-124440104D01*
X65494127Y-124436919D01*
X65566379Y-124433186D01*
X65639697Y-124429018D01*
X65712569Y-124424526D01*
X65783479Y-124419825D01*
X65850914Y-124415027D01*
X65913359Y-124410244D01*
X65969300Y-124405590D01*
X66017224Y-124401177D01*
X66055616Y-124397119D01*
X66082961Y-124393528D01*
X66097746Y-124390517D01*
X66099422Y-124389797D01*
X66101861Y-124380156D01*
X66099397Y-124358277D01*
X66092340Y-124325467D01*
X66081003Y-124283035D01*
X66065696Y-124232287D01*
X66051574Y-124188884D01*
X66010670Y-124079405D01*
X65964736Y-123979764D01*
X65914279Y-123890460D01*
X65859807Y-123811991D01*
X65801826Y-123744853D01*
X65740844Y-123689545D01*
X65677368Y-123646564D01*
X65611906Y-123616408D01*
X65544966Y-123599574D01*
X65477053Y-123596561D01*
X65450422Y-123599238D01*
X65387368Y-123613027D01*
X65328757Y-123636523D01*
X65272420Y-123670955D01*
X65216190Y-123717551D01*
X65182069Y-123751368D01*
X65114908Y-123831429D01*
X65053972Y-123924431D01*
X64999372Y-124030151D01*
X64951219Y-124148368D01*
X64909622Y-124278859D01*
X64897756Y-124323012D01*
X64888574Y-124359973D01*
X64880925Y-124393254D01*
X64875503Y-124419644D01*
X64873003Y-124435931D01*
X64872915Y-124437830D01*
X60902720Y-124437830D01*
X60902608Y-124362211D01*
X60902394Y-124255176D01*
X60902133Y-124157394D01*
X60901822Y-124068208D01*
X60901454Y-123986959D01*
X60901027Y-123912990D01*
X60900536Y-123845643D01*
X60899976Y-123784262D01*
X60899342Y-123728187D01*
X60898630Y-123676762D01*
X60897836Y-123629329D01*
X60896955Y-123585230D01*
X60895982Y-123543808D01*
X60894914Y-123504404D01*
X60893745Y-123466362D01*
X60892472Y-123429023D01*
X60891089Y-123391730D01*
X60889592Y-123353825D01*
X60888928Y-123337543D01*
X60873282Y-122880137D01*
X60864280Y-122430750D01*
X60861910Y-121990129D01*
X60866160Y-121559018D01*
X60874015Y-121254663D01*
X61084686Y-121254663D01*
X61717872Y-121256517D01*
X62351057Y-121258371D01*
X62352888Y-122816843D01*
X62353101Y-122994159D01*
X62353308Y-123157531D01*
X62353516Y-123307527D01*
X62353730Y-123444717D01*
X62353955Y-123569669D01*
X62354195Y-123682954D01*
X62354458Y-123785140D01*
X62354747Y-123876796D01*
X62355069Y-123958493D01*
X62355428Y-124030799D01*
X62355829Y-124094284D01*
X62356279Y-124149516D01*
X62356783Y-124197066D01*
X62357344Y-124237502D01*
X62357970Y-124271393D01*
X62358666Y-124299310D01*
X62359435Y-124321821D01*
X62360285Y-124339495D01*
X62361220Y-124352903D01*
X62362245Y-124362612D01*
X62363366Y-124369193D01*
X62364588Y-124373215D01*
X62365917Y-124375246D01*
X62367357Y-124375857D01*
X62367403Y-124375860D01*
X62376733Y-124376276D01*
X62399284Y-124377289D01*
X62433776Y-124378841D01*
X62478933Y-124380875D01*
X62533473Y-124383333D01*
X62596119Y-124386157D01*
X62665592Y-124389290D01*
X62740614Y-124392674D01*
X62819904Y-124396251D01*
X62830029Y-124396708D01*
X62910990Y-124400340D01*
X62988798Y-124403791D01*
X63062044Y-124407001D01*
X63129316Y-124409909D01*
X63189205Y-124412457D01*
X63240302Y-124414583D01*
X63281194Y-124416228D01*
X63310474Y-124417332D01*
X63326729Y-124417835D01*
X63327143Y-124417842D01*
X63374315Y-124418675D01*
X63398374Y-124333494D01*
X63447540Y-124183836D01*
X63509933Y-124034644D01*
X63584351Y-123887916D01*
X63669587Y-123745654D01*
X63764438Y-123609855D01*
X63867699Y-123482520D01*
X63978164Y-123365646D01*
X63986351Y-123357701D01*
X64120537Y-123238053D01*
X64261987Y-123130946D01*
X64410482Y-123036487D01*
X64565802Y-122954779D01*
X64727725Y-122885930D01*
X64896033Y-122830044D01*
X65070506Y-122787227D01*
X65232143Y-122760017D01*
X65290022Y-122754072D01*
X65358491Y-122749933D01*
X65433737Y-122747602D01*
X65511948Y-122747082D01*
X65589311Y-122748376D01*
X65662014Y-122751487D01*
X65726244Y-122756416D01*
X65754657Y-122759651D01*
X65934276Y-122790007D01*
X66107481Y-122833342D01*
X66274156Y-122889600D01*
X66434186Y-122958725D01*
X66587455Y-123040662D01*
X66733848Y-123135356D01*
X66873249Y-123242750D01*
X67000688Y-123358038D01*
X67115489Y-123477261D01*
X67217551Y-123598918D01*
X67308650Y-123725481D01*
X67390563Y-123859423D01*
X67465064Y-124003217D01*
X67467107Y-124007507D01*
X67514200Y-124106616D01*
X67617772Y-124070204D01*
X67781104Y-124009530D01*
X67944961Y-123942405D01*
X68106137Y-123870304D01*
X68261426Y-123794703D01*
X68407625Y-123717079D01*
X68501486Y-123663135D01*
X68592200Y-123609146D01*
X68596542Y-123065130D01*
X68597236Y-122973871D01*
X68597965Y-122870319D01*
X68598715Y-122756693D01*
X68599473Y-122635215D01*
X68600227Y-122508106D01*
X68600964Y-122377586D01*
X68601672Y-122245875D01*
X68602338Y-122115194D01*
X68602661Y-122047711D01*
X70061772Y-122047711D01*
X70061772Y-122489960D01*
X70086927Y-122467874D01*
X70143383Y-122424526D01*
X70210105Y-122383580D01*
X70282847Y-122347226D01*
X70357362Y-122317656D01*
X70408102Y-122302218D01*
X70444677Y-122293496D01*
X70478144Y-122287821D01*
X70513792Y-122284579D01*
X70556912Y-122283153D01*
X70573400Y-122282978D01*
X70674510Y-122288207D01*
X70768792Y-122305725D01*
X70857985Y-122336105D01*
X70943829Y-122379919D01*
X71016287Y-122428770D01*
X71064861Y-122466799D01*
X71101756Y-122500243D01*
X71128095Y-122531359D01*
X71145002Y-122562402D01*
X71153599Y-122595627D01*
X71155010Y-122633290D01*
X71150356Y-122677646D01*
X71147870Y-122693039D01*
X71140164Y-122731432D01*
X71130139Y-122772421D01*
X71119695Y-122808377D01*
X71117469Y-122815028D01*
X71098797Y-122888879D01*
X71090600Y-122969896D01*
X71092489Y-123055620D01*
X71104075Y-123143594D01*
X71124970Y-123231358D01*
X71154784Y-123316453D01*
X71193128Y-123396423D01*
X71215367Y-123433700D01*
X71235352Y-123463195D01*
X71251236Y-123481208D01*
X71265619Y-123489130D01*
X71281098Y-123488354D01*
X71300272Y-123480273D01*
X71301289Y-123479746D01*
X71332096Y-123456454D01*
X71358188Y-123421023D01*
X71379558Y-123373360D01*
X71396200Y-123313369D01*
X71408108Y-123240956D01*
X71415277Y-123156027D01*
X71417699Y-123058488D01*
X71415369Y-122948244D01*
X71408280Y-122825200D01*
X71396427Y-122689263D01*
X71379804Y-122540337D01*
X71358404Y-122378329D01*
X71332220Y-122203144D01*
X71301248Y-122014687D01*
X71265481Y-121812865D01*
X71224913Y-121597582D01*
X71179537Y-121368745D01*
X71157359Y-121260408D01*
X71147135Y-121211173D01*
X71137701Y-121166207D01*
X71129504Y-121127610D01*
X71122993Y-121097483D01*
X71118616Y-121077926D01*
X71117017Y-121071500D01*
X71115607Y-121069070D01*
X71112329Y-121066971D01*
X71106194Y-121065178D01*
X71096210Y-121063667D01*
X71081387Y-121062414D01*
X71060733Y-121061395D01*
X71033258Y-121060587D01*
X70997971Y-121059965D01*
X70953882Y-121059505D01*
X70899999Y-121059183D01*
X70835332Y-121058976D01*
X70758890Y-121058859D01*
X70669682Y-121058809D01*
X70592232Y-121058800D01*
X70071385Y-121058800D01*
X70066578Y-121332130D01*
X70065660Y-121392503D01*
X70064799Y-121464877D01*
X70064013Y-121546738D01*
X70063318Y-121635573D01*
X70062731Y-121728868D01*
X70062269Y-121824111D01*
X70061949Y-121918787D01*
X70061788Y-122010384D01*
X70061772Y-122047711D01*
X68602661Y-122047711D01*
X68602949Y-121987764D01*
X68603493Y-121865806D01*
X68603799Y-121791771D01*
X68606715Y-121062428D01*
X67296800Y-121058800D01*
X65986886Y-121055171D01*
X65954229Y-121035923D01*
X65915041Y-121004526D01*
X65884060Y-120961860D01*
X65861991Y-120909081D01*
X65852668Y-120869371D01*
X65850834Y-120851619D01*
X65849317Y-120821287D01*
X65848114Y-120778106D01*
X65847222Y-120721810D01*
X65846639Y-120652132D01*
X65846362Y-120568804D01*
X65846387Y-120471560D01*
X65846712Y-120360131D01*
X65846827Y-120333086D01*
X65849000Y-119843228D01*
X65865571Y-119802247D01*
X65886152Y-119762785D01*
X65913541Y-119726372D01*
X65944260Y-119697120D01*
X65966738Y-119682674D01*
X65971342Y-119680620D01*
X65976968Y-119678777D01*
X65984408Y-119677129D01*
X65994453Y-119675661D01*
X66007895Y-119674358D01*
X66025523Y-119673205D01*
X66048130Y-119672185D01*
X66076506Y-119671285D01*
X66111443Y-119670488D01*
X66153732Y-119669780D01*
X66204163Y-119669145D01*
X66263529Y-119668567D01*
X66332619Y-119668032D01*
X66412226Y-119667524D01*
X66503141Y-119667029D01*
X66606153Y-119666529D01*
X66722056Y-119666011D01*
X66851639Y-119665459D01*
X66858968Y-119665428D01*
X67723793Y-119661800D01*
X67295631Y-118475257D01*
X67241726Y-118325858D01*
X67192537Y-118189479D01*
X67147846Y-118065491D01*
X67107434Y-117953264D01*
X67071086Y-117852168D01*
X67038581Y-117761573D01*
X67009703Y-117680851D01*
X66984234Y-117609370D01*
X66961955Y-117546502D01*
X66942650Y-117491617D01*
X66926100Y-117444084D01*
X66912087Y-117403275D01*
X66900394Y-117368560D01*
X66890802Y-117339308D01*
X66883095Y-117314890D01*
X66877053Y-117294677D01*
X66872460Y-117278039D01*
X66869097Y-117264345D01*
X66866746Y-117252967D01*
X66865191Y-117243274D01*
X66864212Y-117234638D01*
X66863592Y-117226427D01*
X66863585Y-117226315D01*
X66864336Y-117166305D01*
X66874956Y-117110290D01*
X66896302Y-117056397D01*
X66929232Y-117002750D01*
X66974602Y-116947474D01*
X67005911Y-116914962D01*
X67072327Y-116855454D01*
X67149761Y-116797872D01*
X67238765Y-116741925D01*
X67339891Y-116687323D01*
X67453691Y-116633774D01*
X67580716Y-116580989D01*
X67721517Y-116528676D01*
X67772143Y-116511110D01*
X67925186Y-116462032D01*
X68090214Y-116414964D01*
X68264772Y-116370419D01*
X68446410Y-116328910D01*
X68632674Y-116290950D01*
X68821112Y-116257052D01*
X69009270Y-116227729D01*
X69194696Y-116203496D01*
X69294974Y-116192487D01*
X69344604Y-116187428D01*
X69319385Y-116222814D01*
X69288378Y-116271946D01*
X69256496Y-116332896D01*
X69224854Y-116403103D01*
X69194565Y-116480007D01*
X69166746Y-116561048D01*
X69154122Y-116602282D01*
X69115862Y-116750942D01*
X69084769Y-116911264D01*
X69060885Y-117082263D01*
X69044252Y-117262958D01*
X69034914Y-117452364D01*
X69032913Y-117649498D01*
X69038289Y-117853376D01*
X69051087Y-118063015D01*
X69071349Y-118277432D01*
X69079141Y-118344628D01*
X69104034Y-118530747D01*
X69134663Y-118726417D01*
X69170365Y-118928160D01*
X69210479Y-119132500D01*
X69254342Y-119335960D01*
X69301291Y-119535061D01*
X69320351Y-119611000D01*
X69333331Y-119661800D01*
X69422601Y-119663844D01*
X69511870Y-119665888D01*
X69508443Y-119642073D01*
X69505858Y-119628681D01*
X69500359Y-119603355D01*
X69492444Y-119568268D01*
X69482607Y-119525593D01*
X69471344Y-119477506D01*
X69460828Y-119433200D01*
X69390361Y-119116598D01*
X69331208Y-118803488D01*
X69282647Y-118489487D01*
X69243958Y-118170213D01*
X69230394Y-118032571D01*
X69226509Y-117981719D01*
X69223071Y-117919789D01*
X69220115Y-117849229D01*
X69217677Y-117772486D01*
X69215790Y-117692007D01*
X69214490Y-117610238D01*
X69213812Y-117529627D01*
X69213797Y-117474906D01*
X70296527Y-117474906D01*
X70305396Y-117546543D01*
X70326143Y-117616110D01*
X70358803Y-117681826D01*
X70403408Y-117741909D01*
X70417575Y-117757006D01*
X70474977Y-117805376D01*
X70538580Y-117840865D01*
X70607350Y-117863170D01*
X70680252Y-117871993D01*
X70756253Y-117867034D01*
X70781180Y-117862462D01*
X70847893Y-117841217D01*
X70908471Y-117807958D01*
X70961959Y-117764230D01*
X71007404Y-117711577D01*
X71043849Y-117651544D01*
X71070340Y-117585675D01*
X71085923Y-117515516D01*
X71089641Y-117442610D01*
X71082031Y-117375800D01*
X71060914Y-117301357D01*
X71027871Y-117234829D01*
X70982245Y-117174980D01*
X70965946Y-117158086D01*
X70908324Y-117109792D01*
X70847024Y-117075304D01*
X70780864Y-117054131D01*
X70708661Y-117045780D01*
X70695604Y-117045600D01*
X70620279Y-117051721D01*
X70551725Y-117070411D01*
X70488665Y-117102162D01*
X70429820Y-117147465D01*
X70429168Y-117148062D01*
X70379155Y-117203312D01*
X70340850Y-117265404D01*
X70314288Y-117332555D01*
X70299502Y-117402983D01*
X70296527Y-117474906D01*
X69213797Y-117474906D01*
X69213790Y-117452622D01*
X69214460Y-117381669D01*
X69215856Y-117319214D01*
X69218012Y-117267707D01*
X69219237Y-117248800D01*
X69235802Y-117077529D01*
X69259035Y-116918898D01*
X69289047Y-116772598D01*
X69325948Y-116638319D01*
X69369850Y-116515752D01*
X69420864Y-116404588D01*
X69479101Y-116304518D01*
X69544673Y-116215231D01*
X69617690Y-116136420D01*
X69619958Y-116134251D01*
X69701661Y-116064284D01*
X69796518Y-115997132D01*
X69903362Y-115933258D01*
X70021024Y-115873125D01*
X70148337Y-115817195D01*
X70284132Y-115765932D01*
X70427242Y-115719798D01*
X70576499Y-115679255D01*
X70730734Y-115644768D01*
X70888780Y-115616799D01*
X70947143Y-115608310D01*
X71006280Y-115601575D01*
X71074705Y-115596051D01*
X71149066Y-115591829D01*
X71226006Y-115588999D01*
X71302174Y-115587649D01*
X71374215Y-115587869D01*
X71438776Y-115589750D01*
X71492501Y-115593380D01*
X71495403Y-115593665D01*
X71602167Y-115607756D01*
X71701574Y-115627652D01*
X71791694Y-115652862D01*
X71870597Y-115682898D01*
X71898364Y-115696041D01*
X71920933Y-115706834D01*
X71937916Y-115713831D01*
X71945751Y-115715570D01*
X71945817Y-115715517D01*
X71946394Y-115707606D01*
X71945966Y-115687871D01*
X71944639Y-115658956D01*
X71942521Y-115623508D01*
X71941469Y-115607999D01*
X71924390Y-115440935D01*
X71897168Y-115283657D01*
X71859681Y-115136052D01*
X71811804Y-114998007D01*
X71753414Y-114869412D01*
X71684388Y-114750153D01*
X71604602Y-114640119D01*
X71513932Y-114539197D01*
X71412256Y-114447275D01*
X71299449Y-114364242D01*
X71175388Y-114289984D01*
X71039950Y-114224391D01*
X70893011Y-114167349D01*
X70734448Y-114118747D01*
X70564137Y-114078472D01*
X70381954Y-114046412D01*
X70196029Y-114023286D01*
X70119837Y-114016484D01*
X70033092Y-114010353D01*
X69938188Y-114004953D01*
X69837519Y-114000344D01*
X69733480Y-113996586D01*
X69628464Y-113993739D01*
X69524866Y-113991864D01*
X69425080Y-113991020D01*
X69331500Y-113991268D01*
X69246522Y-113992668D01*
X69172538Y-113995280D01*
X69143743Y-113996850D01*
X68902441Y-114017652D01*
X68654048Y-114050412D01*
X68399242Y-114094826D01*
X68138702Y-114150591D01*
X67873105Y-114217407D01*
X67603131Y-114294968D01*
X67329458Y-114382974D01*
X67052763Y-114481121D01*
X66773726Y-114589108D01*
X66493024Y-114706630D01*
X66211336Y-114833386D01*
X65929340Y-114969073D01*
X65647715Y-115113389D01*
X65367139Y-115266030D01*
X65088290Y-115426695D01*
X64811847Y-115595080D01*
X64538488Y-115770883D01*
X64268891Y-115953802D01*
X64003734Y-116143533D01*
X63743696Y-116339775D01*
X63552094Y-116491322D01*
X63346892Y-116661540D01*
X63144619Y-116838366D01*
X62947246Y-117019915D01*
X62756739Y-117204300D01*
X62575069Y-117389635D01*
X62404203Y-117574035D01*
X62307008Y-117684228D01*
X62141419Y-117882921D01*
X61987750Y-118082111D01*
X61846218Y-118281387D01*
X61717045Y-118480336D01*
X61600449Y-118678545D01*
X61496651Y-118875602D01*
X61405870Y-119071094D01*
X61328325Y-119264609D01*
X61264238Y-119455734D01*
X61213826Y-119644057D01*
X61183207Y-119794047D01*
X61176060Y-119836878D01*
X61169434Y-119880132D01*
X61164007Y-119919143D01*
X61160460Y-119949241D01*
X61160137Y-119952647D01*
X61155118Y-120008027D01*
X61191522Y-119981873D01*
X61246181Y-119947203D01*
X61313379Y-119912285D01*
X61391175Y-119877859D01*
X61477628Y-119844663D01*
X61570796Y-119813437D01*
X61668739Y-119784921D01*
X61769515Y-119759855D01*
X61781372Y-119757188D01*
X61861429Y-119740991D01*
X61942056Y-119727677D01*
X62021316Y-119717372D01*
X62097277Y-119710201D01*
X62168004Y-119706291D01*
X62231563Y-119705766D01*
X62286022Y-119708752D01*
X62329444Y-119715374D01*
X62347413Y-119720433D01*
X62375403Y-119732639D01*
X62391314Y-119746004D01*
X62395047Y-119752514D01*
X62396458Y-119761157D01*
X62397525Y-119779969D01*
X62398246Y-119809410D01*
X62398619Y-119849941D01*
X62398642Y-119902022D01*
X62398314Y-119966114D01*
X62397633Y-120042678D01*
X62396598Y-120132174D01*
X62395206Y-120235064D01*
X62393455Y-120351806D01*
X62392604Y-120405657D01*
X62391046Y-120500368D01*
X62389481Y-120590886D01*
X62387930Y-120676165D01*
X62386417Y-120755159D01*
X62384964Y-120826821D01*
X62383593Y-120890104D01*
X62382328Y-120943963D01*
X62381190Y-120987351D01*
X62380202Y-121019221D01*
X62379387Y-121038527D01*
X62378840Y-121044286D01*
X62371214Y-121044850D01*
X62350116Y-121045439D01*
X62316587Y-121046044D01*
X62271669Y-121046655D01*
X62216404Y-121047261D01*
X62151834Y-121047854D01*
X62079000Y-121048424D01*
X61998944Y-121048961D01*
X61912708Y-121049456D01*
X61821334Y-121049898D01*
X61734548Y-121050247D01*
X61093842Y-121052580D01*
X61089327Y-121090161D01*
X61087173Y-121115706D01*
X61085560Y-121149299D01*
X61084779Y-121184479D01*
X61084749Y-121191203D01*
X61084686Y-121254663D01*
X60874015Y-121254663D01*
X60877022Y-121138164D01*
X60894483Y-120728313D01*
X60918532Y-120330209D01*
X60936126Y-120097228D01*
X60950500Y-119947748D01*
X60968663Y-119809151D01*
X60991277Y-119678148D01*
X61019002Y-119551447D01*
X61052499Y-119425760D01*
X61092430Y-119297796D01*
X61103076Y-119266286D01*
X61179247Y-119063756D01*
X61269517Y-118859412D01*
X61373626Y-118653566D01*
X61491316Y-118446529D01*
X61622327Y-118238612D01*
X61766400Y-118030124D01*
X61923275Y-117821379D01*
X62092694Y-117612685D01*
X62274398Y-117404355D01*
X62468126Y-117196699D01*
X62673621Y-116990029D01*
X62890622Y-116784654D01*
X63118870Y-116580887D01*
X63358107Y-116379038D01*
X63608073Y-116179417D01*
X63795229Y-116036735D01*
X64059771Y-115844150D01*
X64329463Y-115658053D01*
X64603568Y-115478767D01*
X64881348Y-115306612D01*
X65162066Y-115141910D01*
X65444983Y-114984984D01*
X65729361Y-114836154D01*
X66014464Y-114695743D01*
X66299553Y-114564072D01*
X66583890Y-114441462D01*
X66866738Y-114328236D01*
X67147360Y-114224715D01*
X67425017Y-114131221D01*
X67698971Y-114048075D01*
X67968485Y-113975599D01*
X68232822Y-113914115D01*
X68491243Y-113863945D01*
X68743011Y-113825409D01*
X68911630Y-113805856D01*
X69037343Y-113795470D01*
X69174504Y-113788120D01*
X69320380Y-113783745D01*
X69472238Y-113782287D01*
X69627347Y-113783686D01*
G36*
X57807180Y-175194705D02*
X58058991Y-175060037D01*
X58064288Y-175057817D01*
X58454782Y-174954264D01*
X58966548Y-174929998D01*
X59163800Y-174938013D01*
X59978382Y-175083575D01*
X60751431Y-175418350D01*
X61472534Y-175930748D01*
X62131279Y-176609179D01*
X62717251Y-177442052D01*
X63220037Y-178417778D01*
X63629225Y-179524766D01*
X63784754Y-180081189D01*
X64008835Y-181150797D01*
X64181346Y-182353862D01*
X64297475Y-183626094D01*
X64352413Y-184903206D01*
X64341349Y-186120907D01*
X64293669Y-186882206D01*
X64217857Y-187553523D01*
X64108431Y-188284141D01*
X63976539Y-189014301D01*
X63833329Y-189684244D01*
X63689948Y-190234210D01*
X63637328Y-190400517D01*
X63507985Y-190755429D01*
X63362402Y-191115800D01*
X63221284Y-191435262D01*
X63105336Y-191667448D01*
X63035264Y-191765988D01*
X63028001Y-191765069D01*
X63036606Y-191658193D01*
X63088639Y-191400279D01*
X63174470Y-191036437D01*
X63231568Y-190811465D01*
X63426307Y-189946420D01*
X63562774Y-189055770D01*
X63644755Y-188095833D01*
X63676040Y-187022927D01*
X63661933Y-185847605D01*
X63546284Y-184018819D01*
X63303226Y-182345172D01*
X62931650Y-180822620D01*
X62430444Y-179447119D01*
X61798495Y-178214625D01*
X61394385Y-177595669D01*
X60840066Y-176927700D01*
X60203376Y-176352704D01*
X59522054Y-175896468D01*
X58833837Y-175584778D01*
X58255532Y-175450880D01*
X57904850Y-175388893D01*
X57755600Y-175303913D01*
X57807180Y-175194705D01*
X57807180Y-175194705D01*
G37*
X57807180Y-175194705D02*
X58058991Y-175060037D01*
X58064288Y-175057817D01*
X58454782Y-174954264D01*
X58966548Y-174929998D01*
X59163800Y-174938013D01*
X59978382Y-175083575D01*
X60751431Y-175418350D01*
X61472534Y-175930748D01*
X62131279Y-176609179D01*
X62717251Y-177442052D01*
X63220037Y-178417778D01*
X63629225Y-179524766D01*
X63784754Y-180081189D01*
X64008835Y-181150797D01*
X64181346Y-182353862D01*
X64297475Y-183626094D01*
X64352413Y-184903206D01*
X64341349Y-186120907D01*
X64293669Y-186882206D01*
X64217857Y-187553523D01*
X64108431Y-188284141D01*
X63976539Y-189014301D01*
X63833329Y-189684244D01*
X63689948Y-190234210D01*
X63637328Y-190400517D01*
X63507985Y-190755429D01*
X63362402Y-191115800D01*
X63221284Y-191435262D01*
X63105336Y-191667448D01*
X63035264Y-191765988D01*
X63028001Y-191765069D01*
X63036606Y-191658193D01*
X63088639Y-191400279D01*
X63174470Y-191036437D01*
X63231568Y-190811465D01*
X63426307Y-189946420D01*
X63562774Y-189055770D01*
X63644755Y-188095833D01*
X63676040Y-187022927D01*
X63661933Y-185847605D01*
X63546284Y-184018819D01*
X63303226Y-182345172D01*
X62931650Y-180822620D01*
X62430444Y-179447119D01*
X61798495Y-178214625D01*
X61394385Y-177595669D01*
X60840066Y-176927700D01*
X60203376Y-176352704D01*
X59522054Y-175896468D01*
X58833837Y-175584778D01*
X58255532Y-175450880D01*
X57904850Y-175388893D01*
X57755600Y-175303913D01*
X57807180Y-175194705D01*
G36*
X62927600Y-191884800D02*
X62978400Y-191935600D01*
X62927600Y-191986400D01*
X62876800Y-191935600D01*
X62927600Y-191884800D01*
X62927600Y-191884800D01*
G37*
X62927600Y-191884800D02*
X62978400Y-191935600D01*
X62927600Y-191986400D01*
X62876800Y-191935600D01*
X62927600Y-191884800D01*
G36*
X54102682Y-188532350D02*
X54263406Y-188385362D01*
X54588949Y-188253784D01*
X55027895Y-188246513D01*
X55603959Y-188363216D01*
X55615658Y-188366430D01*
X55943641Y-188457036D01*
X56390913Y-188580772D01*
X56880955Y-188716465D01*
X57085600Y-188773169D01*
X57931494Y-188961181D01*
X58818477Y-189079612D01*
X59066800Y-189097595D01*
X59649223Y-189133792D01*
X60057740Y-189170196D01*
X60321565Y-189212662D01*
X60469913Y-189267043D01*
X60531999Y-189339191D01*
X60540000Y-189392761D01*
X60443166Y-189527088D01*
X60169537Y-189634617D01*
X59744425Y-189709621D01*
X59193138Y-189746372D01*
X58965200Y-189749132D01*
X58426808Y-189728252D01*
X57880395Y-189660718D01*
X57279628Y-189537292D01*
X56578173Y-189348735D01*
X55878680Y-189133716D01*
X55470600Y-189008687D01*
X55140558Y-188917719D01*
X54932110Y-188872249D01*
X54882729Y-188872204D01*
X54907155Y-188951514D01*
X55081495Y-189097420D01*
X55413948Y-189315281D01*
X55912714Y-189610453D01*
X56585992Y-189988296D01*
X56616661Y-190005200D01*
X57445527Y-190477281D01*
X58086702Y-190877127D01*
X58541945Y-191205985D01*
X58813014Y-191465103D01*
X58898726Y-191624446D01*
X58899948Y-191731625D01*
X58819144Y-191778486D01*
X58611200Y-191776677D01*
X58391393Y-191755447D01*
X58070048Y-191700114D01*
X57621046Y-191595465D01*
X57109112Y-191457600D01*
X56696314Y-191333760D01*
X56244908Y-191192355D01*
X55869139Y-191076653D01*
X55608466Y-190998666D01*
X55502514Y-190970400D01*
X55452341Y-191013078D01*
X55559968Y-191131726D01*
X55801038Y-191312269D01*
X56151192Y-191540628D01*
X56586073Y-191802728D01*
X57081322Y-192084492D01*
X57612582Y-192371842D01*
X58155494Y-192650703D01*
X58685701Y-192906998D01*
X59178845Y-193126649D01*
X59367239Y-193203868D01*
X59963756Y-193451429D01*
X60465005Y-193680417D01*
X60846034Y-193878034D01*
X61081893Y-194031481D01*
X61149600Y-194118137D01*
X61070519Y-194237556D01*
X60953079Y-194319626D01*
X60600482Y-194414145D01*
X60092157Y-194414119D01*
X59450111Y-194323494D01*
X58696353Y-194146215D01*
X57852891Y-193886227D01*
X57188829Y-193644804D01*
X56536388Y-193397278D01*
X56050310Y-193223955D01*
X55710066Y-193119273D01*
X55495131Y-193077667D01*
X55384978Y-193093574D01*
X55358400Y-193148672D01*
X55430138Y-193311122D01*
X55622152Y-193567184D01*
X55899637Y-193879165D01*
X56227790Y-194209372D01*
X56571809Y-194520113D01*
X56779494Y-194687754D01*
X57098187Y-194944710D01*
X57251834Y-195110805D01*
X57247929Y-195202504D01*
X57093968Y-195236276D01*
X57029754Y-195237600D01*
X56743640Y-195193625D01*
X56441026Y-195047850D01*
X56090004Y-194779509D01*
X55658667Y-194367830D01*
X55597660Y-194305408D01*
X55137449Y-193794206D01*
X54836043Y-193365593D01*
X54678997Y-192995979D01*
X54647200Y-192753446D01*
X54664106Y-192596851D01*
X54750342Y-192520684D01*
X54959181Y-192496392D01*
X55129800Y-192494777D01*
X55482928Y-192536184D01*
X55991425Y-192655105D01*
X56626020Y-192844212D01*
X56933200Y-192946246D01*
X57395812Y-193101082D01*
X57765808Y-193218767D01*
X58013715Y-193290431D01*
X58110063Y-193307206D01*
X58101600Y-193297856D01*
X57957081Y-193212341D01*
X57674398Y-193051869D01*
X57293658Y-192839001D01*
X56854965Y-192596298D01*
X56831600Y-192583438D01*
X56006539Y-192109700D01*
X55365511Y-191695943D01*
X54900680Y-191335234D01*
X54604212Y-191020642D01*
X54468274Y-190745233D01*
X54483595Y-190505763D01*
X54555272Y-190408650D01*
X54705887Y-190368034D01*
X54986746Y-190374496D01*
X55131951Y-190386749D01*
X55568570Y-190455051D01*
X56054020Y-190571519D01*
X56320078Y-190654665D01*
X56717896Y-190789070D01*
X56938771Y-190847887D01*
X56981144Y-190829410D01*
X56843455Y-190731928D01*
X56524146Y-190553734D01*
X56021658Y-190293120D01*
X55962846Y-190263257D01*
X55265806Y-189885489D01*
X54753845Y-189551728D01*
X54415481Y-189254480D01*
X54413446Y-189252233D01*
X54157847Y-188937611D01*
X54056413Y-188710098D01*
X54102682Y-188532350D01*
X54102682Y-188532350D01*
G37*
X54102682Y-188532350D02*
X54263406Y-188385362D01*
X54588949Y-188253784D01*
X55027895Y-188246513D01*
X55603959Y-188363216D01*
X55615658Y-188366430D01*
X55943641Y-188457036D01*
X56390913Y-188580772D01*
X56880955Y-188716465D01*
X57085600Y-188773169D01*
X57931494Y-188961181D01*
X58818477Y-189079612D01*
X59066800Y-189097595D01*
X59649223Y-189133792D01*
X60057740Y-189170196D01*
X60321565Y-189212662D01*
X60469913Y-189267043D01*
X60531999Y-189339191D01*
X60540000Y-189392761D01*
X60443166Y-189527088D01*
X60169537Y-189634617D01*
X59744425Y-189709621D01*
X59193138Y-189746372D01*
X58965200Y-189749132D01*
X58426808Y-189728252D01*
X57880395Y-189660718D01*
X57279628Y-189537292D01*
X56578173Y-189348735D01*
X55878680Y-189133716D01*
X55470600Y-189008687D01*
X55140558Y-188917719D01*
X54932110Y-188872249D01*
X54882729Y-188872204D01*
X54907155Y-188951514D01*
X55081495Y-189097420D01*
X55413948Y-189315281D01*
X55912714Y-189610453D01*
X56585992Y-189988296D01*
X56616661Y-190005200D01*
X57445527Y-190477281D01*
X58086702Y-190877127D01*
X58541945Y-191205985D01*
X58813014Y-191465103D01*
X58898726Y-191624446D01*
X58899948Y-191731625D01*
X58819144Y-191778486D01*
X58611200Y-191776677D01*
X58391393Y-191755447D01*
X58070048Y-191700114D01*
X57621046Y-191595465D01*
X57109112Y-191457600D01*
X56696314Y-191333760D01*
X56244908Y-191192355D01*
X55869139Y-191076653D01*
X55608466Y-190998666D01*
X55502514Y-190970400D01*
X55452341Y-191013078D01*
X55559968Y-191131726D01*
X55801038Y-191312269D01*
X56151192Y-191540628D01*
X56586073Y-191802728D01*
X57081322Y-192084492D01*
X57612582Y-192371842D01*
X58155494Y-192650703D01*
X58685701Y-192906998D01*
X59178845Y-193126649D01*
X59367239Y-193203868D01*
X59963756Y-193451429D01*
X60465005Y-193680417D01*
X60846034Y-193878034D01*
X61081893Y-194031481D01*
X61149600Y-194118137D01*
X61070519Y-194237556D01*
X60953079Y-194319626D01*
X60600482Y-194414145D01*
X60092157Y-194414119D01*
X59450111Y-194323494D01*
X58696353Y-194146215D01*
X57852891Y-193886227D01*
X57188829Y-193644804D01*
X56536388Y-193397278D01*
X56050310Y-193223955D01*
X55710066Y-193119273D01*
X55495131Y-193077667D01*
X55384978Y-193093574D01*
X55358400Y-193148672D01*
X55430138Y-193311122D01*
X55622152Y-193567184D01*
X55899637Y-193879165D01*
X56227790Y-194209372D01*
X56571809Y-194520113D01*
X56779494Y-194687754D01*
X57098187Y-194944710D01*
X57251834Y-195110805D01*
X57247929Y-195202504D01*
X57093968Y-195236276D01*
X57029754Y-195237600D01*
X56743640Y-195193625D01*
X56441026Y-195047850D01*
X56090004Y-194779509D01*
X55658667Y-194367830D01*
X55597660Y-194305408D01*
X55137449Y-193794206D01*
X54836043Y-193365593D01*
X54678997Y-192995979D01*
X54647200Y-192753446D01*
X54664106Y-192596851D01*
X54750342Y-192520684D01*
X54959181Y-192496392D01*
X55129800Y-192494777D01*
X55482928Y-192536184D01*
X55991425Y-192655105D01*
X56626020Y-192844212D01*
X56933200Y-192946246D01*
X57395812Y-193101082D01*
X57765808Y-193218767D01*
X58013715Y-193290431D01*
X58110063Y-193307206D01*
X58101600Y-193297856D01*
X57957081Y-193212341D01*
X57674398Y-193051869D01*
X57293658Y-192839001D01*
X56854965Y-192596298D01*
X56831600Y-192583438D01*
X56006539Y-192109700D01*
X55365511Y-191695943D01*
X54900680Y-191335234D01*
X54604212Y-191020642D01*
X54468274Y-190745233D01*
X54483595Y-190505763D01*
X54555272Y-190408650D01*
X54705887Y-190368034D01*
X54986746Y-190374496D01*
X55131951Y-190386749D01*
X55568570Y-190455051D01*
X56054020Y-190571519D01*
X56320078Y-190654665D01*
X56717896Y-190789070D01*
X56938771Y-190847887D01*
X56981144Y-190829410D01*
X56843455Y-190731928D01*
X56524146Y-190553734D01*
X56021658Y-190293120D01*
X55962846Y-190263257D01*
X55265806Y-189885489D01*
X54753845Y-189551728D01*
X54415481Y-189254480D01*
X54413446Y-189252233D01*
X54157847Y-188937611D01*
X54056413Y-188710098D01*
X54102682Y-188532350D01*
G36*
X55314917Y-185979721D02*
X55330522Y-185923232D01*
X55368769Y-185830151D01*
X55431348Y-185750788D01*
X55542978Y-185676090D01*
X55728377Y-185597003D01*
X56012263Y-185504475D01*
X56419353Y-185389451D01*
X56974366Y-185242879D01*
X57692331Y-185058186D01*
X58357870Y-184888244D01*
X58972008Y-184732273D01*
X59502412Y-184598416D01*
X59916748Y-184494818D01*
X60182683Y-184429624D01*
X60249624Y-184414032D01*
X60540000Y-184350255D01*
X60540000Y-185018728D01*
X60533457Y-185379543D01*
X60505171Y-185581662D01*
X60442150Y-185669402D01*
X60344057Y-185687200D01*
X60072558Y-185777509D01*
X59892485Y-186024487D01*
X59830355Y-186380258D01*
X59860442Y-186727483D01*
X59966453Y-186923192D01*
X60177492Y-187013598D01*
X60235200Y-187023158D01*
X60375145Y-187058845D01*
X60455188Y-187149210D01*
X60496272Y-187343674D01*
X60519345Y-187691655D01*
X60519448Y-187693800D01*
X60528693Y-188044801D01*
X60507289Y-188237865D01*
X60445075Y-188317220D01*
X60373577Y-188328800D01*
X60229367Y-188304014D01*
X59917858Y-188234365D01*
X59468205Y-188126920D01*
X58909561Y-187988746D01*
X58569403Y-187902526D01*
X58569403Y-186676676D01*
X58673726Y-186661345D01*
X58786237Y-186522371D01*
X58794525Y-186373455D01*
X58742833Y-186224366D01*
X58604863Y-186160915D01*
X58355600Y-186151836D01*
X57953706Y-186180893D01*
X57629421Y-186244595D01*
X57430257Y-186331065D01*
X57390400Y-186393133D01*
X57480718Y-186464034D01*
X57708516Y-186541369D01*
X58009055Y-186611608D01*
X58317596Y-186661220D01*
X58569403Y-186676676D01*
X58569403Y-187902526D01*
X58271081Y-187826909D01*
X57781348Y-187700491D01*
X55365239Y-187072182D01*
X55300436Y-186640042D01*
X55281157Y-186293818D01*
X55314917Y-185979721D01*
X55314917Y-185979721D01*
G37*
X55314917Y-185979721D02*
X55330522Y-185923232D01*
X55368769Y-185830151D01*
X55431348Y-185750788D01*
X55542978Y-185676090D01*
X55728377Y-185597003D01*
X56012263Y-185504475D01*
X56419353Y-185389451D01*
X56974366Y-185242879D01*
X57692331Y-185058186D01*
X58357870Y-184888244D01*
X58972008Y-184732273D01*
X59502412Y-184598416D01*
X59916748Y-184494818D01*
X60182683Y-184429624D01*
X60249624Y-184414032D01*
X60540000Y-184350255D01*
X60540000Y-185018728D01*
X60533457Y-185379543D01*
X60505171Y-185581662D01*
X60442150Y-185669402D01*
X60344057Y-185687200D01*
X60072558Y-185777509D01*
X59892485Y-186024487D01*
X59830355Y-186380258D01*
X59860442Y-186727483D01*
X59966453Y-186923192D01*
X60177492Y-187013598D01*
X60235200Y-187023158D01*
X60375145Y-187058845D01*
X60455188Y-187149210D01*
X60496272Y-187343674D01*
X60519345Y-187691655D01*
X60519448Y-187693800D01*
X60528693Y-188044801D01*
X60507289Y-188237865D01*
X60445075Y-188317220D01*
X60373577Y-188328800D01*
X60229367Y-188304014D01*
X59917858Y-188234365D01*
X59468205Y-188126920D01*
X58909561Y-187988746D01*
X58569403Y-187902526D01*
X58569403Y-186676676D01*
X58673726Y-186661345D01*
X58786237Y-186522371D01*
X58794525Y-186373455D01*
X58742833Y-186224366D01*
X58604863Y-186160915D01*
X58355600Y-186151836D01*
X57953706Y-186180893D01*
X57629421Y-186244595D01*
X57430257Y-186331065D01*
X57390400Y-186393133D01*
X57480718Y-186464034D01*
X57708516Y-186541369D01*
X58009055Y-186611608D01*
X58317596Y-186661220D01*
X58569403Y-186676676D01*
X58569403Y-187902526D01*
X58271081Y-187826909D01*
X57781348Y-187700491D01*
X55365239Y-187072182D01*
X55300436Y-186640042D01*
X55281157Y-186293818D01*
X55314917Y-185979721D01*
G36*
X56788363Y-180288006D02*
X56831762Y-180200486D01*
X56960498Y-180021220D01*
X57153779Y-179887862D01*
X57439035Y-179794406D01*
X57843699Y-179734846D01*
X58395201Y-179703175D01*
X59120972Y-179693386D01*
X59147848Y-179693367D01*
X60549696Y-179692800D01*
X60489200Y-180962800D01*
X59379751Y-181013600D01*
X58800011Y-181051477D01*
X58421684Y-181102887D01*
X58243420Y-181168037D01*
X58229416Y-181188004D01*
X58269356Y-181246590D01*
X58447861Y-181289440D01*
X58786054Y-181319457D01*
X59305059Y-181339540D01*
X59338865Y-181340404D01*
X60489200Y-181369200D01*
X60489200Y-182588400D01*
X59338865Y-182617197D01*
X58809426Y-182636824D01*
X58461948Y-182666226D01*
X58275307Y-182708304D01*
X58228378Y-182765959D01*
X58229416Y-182769597D01*
X58353908Y-182838490D01*
X58678099Y-182893589D01*
X59203337Y-182935098D01*
X59379751Y-182944000D01*
X60489200Y-182994800D01*
X60549696Y-184264800D01*
X56780800Y-184264800D01*
X56780800Y-183652012D01*
X56796048Y-183277576D01*
X56847866Y-183065371D01*
X56937586Y-182979059D01*
X57040398Y-182912433D01*
X56988686Y-182803216D01*
X56945501Y-182753647D01*
X56806844Y-182528073D01*
X56727543Y-182311558D01*
X56712406Y-182095688D01*
X56812546Y-181896211D01*
X56965812Y-181727358D01*
X57273169Y-181420000D01*
X56976184Y-181123016D01*
X56751347Y-180847531D01*
X56692686Y-180594402D01*
X56788363Y-180288006D01*
X56788363Y-180288006D01*
G37*
X56788363Y-180288006D02*
X56831762Y-180200486D01*
X56960498Y-180021220D01*
X57153779Y-179887862D01*
X57439035Y-179794406D01*
X57843699Y-179734846D01*
X58395201Y-179703175D01*
X59120972Y-179693386D01*
X59147848Y-179693367D01*
X60549696Y-179692800D01*
X60489200Y-180962800D01*
X59379751Y-181013600D01*
X58800011Y-181051477D01*
X58421684Y-181102887D01*
X58243420Y-181168037D01*
X58229416Y-181188004D01*
X58269356Y-181246590D01*
X58447861Y-181289440D01*
X58786054Y-181319457D01*
X59305059Y-181339540D01*
X59338865Y-181340404D01*
X60489200Y-181369200D01*
X60489200Y-182588400D01*
X59338865Y-182617197D01*
X58809426Y-182636824D01*
X58461948Y-182666226D01*
X58275307Y-182708304D01*
X58228378Y-182765959D01*
X58229416Y-182769597D01*
X58353908Y-182838490D01*
X58678099Y-182893589D01*
X59203337Y-182935098D01*
X59379751Y-182944000D01*
X60489200Y-182994800D01*
X60549696Y-184264800D01*
X56780800Y-184264800D01*
X56780800Y-183652012D01*
X56796048Y-183277576D01*
X56847866Y-183065371D01*
X56937586Y-182979059D01*
X57040398Y-182912433D01*
X56988686Y-182803216D01*
X56945501Y-182753647D01*
X56806844Y-182528073D01*
X56727543Y-182311558D01*
X56712406Y-182095688D01*
X56812546Y-181896211D01*
X56965812Y-181727358D01*
X57273169Y-181420000D01*
X56976184Y-181123016D01*
X56751347Y-180847531D01*
X56692686Y-180594402D01*
X56788363Y-180288006D01*
G36*
X60540000Y-177660800D02*
X60540000Y-179083200D01*
X55155200Y-179083200D01*
X55155200Y-177660800D01*
X60540000Y-177660800D01*
X60540000Y-177660800D01*
G37*
X60540000Y-177660800D02*
X60540000Y-179083200D01*
X55155200Y-179083200D01*
X55155200Y-177660800D01*
X60540000Y-177660800D01*
G36*
X51688271Y-186523853D02*
X51774639Y-185292247D01*
X51922415Y-184197971D01*
X52136528Y-183211414D01*
X52421911Y-182302963D01*
X52711538Y-181597800D01*
X52892912Y-181215842D01*
X53015814Y-180990375D01*
X53073570Y-180928253D01*
X53059504Y-181036330D01*
X52966941Y-181321460D01*
X52958942Y-181343800D01*
X52656481Y-182390999D01*
X52440157Y-183584045D01*
X52309347Y-184885037D01*
X52263430Y-186256076D01*
X52301781Y-187659261D01*
X52423779Y-189056692D01*
X52628801Y-190410469D01*
X52916225Y-191682692D01*
X53141044Y-192430378D01*
X53646701Y-193730769D01*
X54230264Y-194844820D01*
X54891380Y-195772143D01*
X55629700Y-196512347D01*
X56444871Y-197065044D01*
X57336542Y-197429846D01*
X57746000Y-197529358D01*
X58355600Y-197649169D01*
X57855445Y-197878304D01*
X57235457Y-198055071D01*
X56575241Y-198050176D01*
X55895461Y-197875819D01*
X55216782Y-197544201D01*
X54559869Y-197067521D01*
X53945388Y-196457980D01*
X53394002Y-195727777D01*
X52979707Y-194999795D01*
X52554575Y-194036362D01*
X52219332Y-193041692D01*
X51968035Y-191983962D01*
X51794743Y-190831351D01*
X51693517Y-189552038D01*
X51658415Y-188114199D01*
X51658379Y-187922400D01*
X51688271Y-186523853D01*
X51688271Y-186523853D01*
G37*
X51688271Y-186523853D02*
X51774639Y-185292247D01*
X51922415Y-184197971D01*
X52136528Y-183211414D01*
X52421911Y-182302963D01*
X52711538Y-181597800D01*
X52892912Y-181215842D01*
X53015814Y-180990375D01*
X53073570Y-180928253D01*
X53059504Y-181036330D01*
X52966941Y-181321460D01*
X52958942Y-181343800D01*
X52656481Y-182390999D01*
X52440157Y-183584045D01*
X52309347Y-184885037D01*
X52263430Y-186256076D01*
X52301781Y-187659261D01*
X52423779Y-189056692D01*
X52628801Y-190410469D01*
X52916225Y-191682692D01*
X53141044Y-192430378D01*
X53646701Y-193730769D01*
X54230264Y-194844820D01*
X54891380Y-195772143D01*
X55629700Y-196512347D01*
X56444871Y-197065044D01*
X57336542Y-197429846D01*
X57746000Y-197529358D01*
X58355600Y-197649169D01*
X57855445Y-197878304D01*
X57235457Y-198055071D01*
X56575241Y-198050176D01*
X55895461Y-197875819D01*
X55216782Y-197544201D01*
X54559869Y-197067521D01*
X53945388Y-196457980D01*
X53394002Y-195727777D01*
X52979707Y-194999795D01*
X52554575Y-194036362D01*
X52219332Y-193041692D01*
X51968035Y-191983962D01*
X51794743Y-190831351D01*
X51693517Y-189552038D01*
X51658415Y-188114199D01*
X51658379Y-187922400D01*
X51688271Y-186523853D01*
D13*
X48506012Y-52493872D02*
X49266715Y-52770745D01*
X49372496Y-52758571D01*
X49433530Y-52730111D01*
X49510851Y-52656903D01*
X49575998Y-52477913D01*
X49563824Y-52372132D01*
X49535363Y-52311098D01*
X49462156Y-52233778D01*
X48701452Y-51956904D01*
X49983165Y-51359232D02*
X49787724Y-51896199D01*
X49885444Y-51627716D02*
X48945752Y-51285696D01*
X49047420Y-51424050D01*
X49104341Y-51546118D01*
X49116515Y-51651899D01*
X66310135Y-57886737D02*
X65968016Y-58620415D01*
X65970924Y-58726854D01*
X65993957Y-58790136D01*
X66060147Y-58873543D01*
X66232778Y-58954042D01*
X66339217Y-58951134D01*
X66402499Y-58928101D01*
X66485906Y-58861911D01*
X66828026Y-58128233D01*
X67176194Y-58395670D02*
X67239476Y-58372637D01*
X67345916Y-58369729D01*
X67561704Y-58470353D01*
X67627894Y-58553759D01*
X67650927Y-58617042D01*
X67653835Y-58723481D01*
X67613586Y-58809796D01*
X67510054Y-58919144D01*
X66750667Y-59195538D01*
X67311715Y-59457159D01*
X24522381Y-90711905D02*
X25331905Y-90711905D01*
X25427143Y-90664286D01*
X25474762Y-90616667D01*
X25522381Y-90521429D01*
X25522381Y-90330952D01*
X25474762Y-90235714D01*
X25427143Y-90188095D01*
X25331905Y-90140476D01*
X24522381Y-90140476D01*
X24522381Y-89759524D02*
X24522381Y-89140476D01*
X24903333Y-89473810D01*
X24903333Y-89330952D01*
X24950952Y-89235714D01*
X24998571Y-89188095D01*
X25093810Y-89140476D01*
X25331905Y-89140476D01*
X25427143Y-89188095D01*
X25474762Y-89235714D01*
X25522381Y-89330952D01*
X25522381Y-89616667D01*
X25474762Y-89711905D01*
X25427143Y-89759524D01*
X50522381Y-96711905D02*
X51331905Y-96711905D01*
X51427143Y-96664286D01*
X51474762Y-96616667D01*
X51522381Y-96521429D01*
X51522381Y-96330952D01*
X51474762Y-96235714D01*
X51427143Y-96188095D01*
X51331905Y-96140476D01*
X50522381Y-96140476D01*
X50855714Y-95235714D02*
X51522381Y-95235714D01*
X50474762Y-95473810D02*
X51189048Y-95711905D01*
X51189048Y-95092857D01*
X76522381Y-104711905D02*
X77331905Y-104711905D01*
X77427143Y-104664286D01*
X77474762Y-104616667D01*
X77522381Y-104521429D01*
X77522381Y-104330952D01*
X77474762Y-104235714D01*
X77427143Y-104188095D01*
X77331905Y-104140476D01*
X76522381Y-104140476D01*
X76522381Y-103188095D02*
X76522381Y-103664286D01*
X76998571Y-103711905D01*
X76950952Y-103664286D01*
X76903333Y-103569048D01*
X76903333Y-103330952D01*
X76950952Y-103235714D01*
X76998571Y-103188095D01*
X77093810Y-103140476D01*
X77331905Y-103140476D01*
X77427143Y-103188095D01*
X77474762Y-103235714D01*
X77522381Y-103330952D01*
X77522381Y-103569048D01*
X77474762Y-103664286D01*
X77427143Y-103711905D01*
X34022381Y-132211905D02*
X34831905Y-132211905D01*
X34927143Y-132164286D01*
X34974762Y-132116667D01*
X35022381Y-132021429D01*
X35022381Y-131830952D01*
X34974762Y-131735714D01*
X34927143Y-131688095D01*
X34831905Y-131640476D01*
X34022381Y-131640476D01*
X34022381Y-130735714D02*
X34022381Y-130926191D01*
X34070000Y-131021429D01*
X34117619Y-131069048D01*
X34260476Y-131164286D01*
X34450952Y-131211905D01*
X34831905Y-131211905D01*
X34927143Y-131164286D01*
X34974762Y-131116667D01*
X35022381Y-131021429D01*
X35022381Y-130830952D01*
X34974762Y-130735714D01*
X34927143Y-130688095D01*
X34831905Y-130640476D01*
X34593810Y-130640476D01*
X34498571Y-130688095D01*
X34450952Y-130735714D01*
X34403333Y-130830952D01*
X34403333Y-131021429D01*
X34450952Y-131116667D01*
X34498571Y-131164286D01*
X34593810Y-131211905D01*
X56522381Y-144711905D02*
X57331905Y-144711905D01*
X57427143Y-144664286D01*
X57474762Y-144616667D01*
X57522381Y-144521429D01*
X57522381Y-144330952D01*
X57474762Y-144235714D01*
X57427143Y-144188095D01*
X57331905Y-144140476D01*
X56522381Y-144140476D01*
X56522381Y-143759524D02*
X56522381Y-143092857D01*
X57522381Y-143521429D01*
X79022381Y-157211905D02*
X79831905Y-157211905D01*
X79927143Y-157164286D01*
X79974762Y-157116667D01*
X80022381Y-157021429D01*
X80022381Y-156830952D01*
X79974762Y-156735714D01*
X79927143Y-156688095D01*
X79831905Y-156640476D01*
X79022381Y-156640476D01*
X79450952Y-156021429D02*
X79403333Y-156116667D01*
X79355714Y-156164286D01*
X79260476Y-156211905D01*
X79212857Y-156211905D01*
X79117619Y-156164286D01*
X79070000Y-156116667D01*
X79022381Y-156021429D01*
X79022381Y-155830952D01*
X79070000Y-155735714D01*
X79117619Y-155688095D01*
X79212857Y-155640476D01*
X79260476Y-155640476D01*
X79355714Y-155688095D01*
X79403333Y-155735714D01*
X79450952Y-155830952D01*
X79450952Y-156021429D01*
X79498571Y-156116667D01*
X79546190Y-156164286D01*
X79641429Y-156211905D01*
X79831905Y-156211905D01*
X79927143Y-156164286D01*
X79974762Y-156116667D01*
X80022381Y-156021429D01*
X80022381Y-155830952D01*
X79974762Y-155735714D01*
X79927143Y-155688095D01*
X79831905Y-155640476D01*
X79641429Y-155640476D01*
X79546190Y-155688095D01*
X79498571Y-155735714D01*
X79450952Y-155830952D01*
X73522381Y-205711905D02*
X74331905Y-205711905D01*
X74427143Y-205664286D01*
X74474762Y-205616667D01*
X74522381Y-205521429D01*
X74522381Y-205330952D01*
X74474762Y-205235714D01*
X74427143Y-205188095D01*
X74331905Y-205140476D01*
X73522381Y-205140476D01*
X74522381Y-204616667D02*
X74522381Y-204426191D01*
X74474762Y-204330952D01*
X74427143Y-204283333D01*
X74284286Y-204188095D01*
X74093810Y-204140476D01*
X73712857Y-204140476D01*
X73617619Y-204188095D01*
X73570000Y-204235714D01*
X73522381Y-204330952D01*
X73522381Y-204521429D01*
X73570000Y-204616667D01*
X73617619Y-204664286D01*
X73712857Y-204711905D01*
X73950952Y-204711905D01*
X74046190Y-204664286D01*
X74093810Y-204616667D01*
X74141429Y-204521429D01*
X74141429Y-204330952D01*
X74093810Y-204235714D01*
X74046190Y-204188095D01*
X73950952Y-204140476D01*
X69211905Y-254882381D02*
X69211905Y-255691905D01*
X69259524Y-255787143D01*
X69307143Y-255834762D01*
X69402381Y-255882381D01*
X69592858Y-255882381D01*
X69688096Y-255834762D01*
X69735715Y-255787143D01*
X69783334Y-255691905D01*
X69783334Y-254882381D01*
X70783334Y-255882381D02*
X70211905Y-255882381D01*
X70497619Y-255882381D02*
X70497619Y-254882381D01*
X70402381Y-255025238D01*
X70307143Y-255120476D01*
X70211905Y-255168095D01*
X71402381Y-254882381D02*
X71497620Y-254882381D01*
X71592858Y-254930000D01*
X71640477Y-254977619D01*
X71688096Y-255072857D01*
X71735715Y-255263333D01*
X71735715Y-255501429D01*
X71688096Y-255691905D01*
X71640477Y-255787143D01*
X71592858Y-255834762D01*
X71497620Y-255882381D01*
X71402381Y-255882381D01*
X71307143Y-255834762D01*
X71259524Y-255787143D01*
X71211905Y-255691905D01*
X71164286Y-255501429D01*
X71164286Y-255263333D01*
X71211905Y-255072857D01*
X71259524Y-254977619D01*
X71307143Y-254930000D01*
X71402381Y-254882381D01*
X72522381Y-277188095D02*
X73331905Y-277188095D01*
X73427143Y-277140476D01*
X73474762Y-277092857D01*
X73522381Y-276997619D01*
X73522381Y-276807142D01*
X73474762Y-276711904D01*
X73427143Y-276664285D01*
X73331905Y-276616666D01*
X72522381Y-276616666D01*
X73522381Y-275616666D02*
X73522381Y-276188095D01*
X73522381Y-275902381D02*
X72522381Y-275902381D01*
X72665238Y-275997619D01*
X72760476Y-276092857D01*
X72808095Y-276188095D01*
X73522381Y-274664285D02*
X73522381Y-275235714D01*
X73522381Y-274950000D02*
X72522381Y-274950000D01*
X72665238Y-275045238D01*
X72760476Y-275140476D01*
X72808095Y-275235714D01*
X47522381Y-277188095D02*
X48331905Y-277188095D01*
X48427143Y-277140476D01*
X48474762Y-277092857D01*
X48522381Y-276997619D01*
X48522381Y-276807142D01*
X48474762Y-276711904D01*
X48427143Y-276664285D01*
X48331905Y-276616666D01*
X47522381Y-276616666D01*
X48522381Y-275616666D02*
X48522381Y-276188095D01*
X48522381Y-275902381D02*
X47522381Y-275902381D01*
X47665238Y-275997619D01*
X47760476Y-276092857D01*
X47808095Y-276188095D01*
X47617619Y-275235714D02*
X47570000Y-275188095D01*
X47522381Y-275092857D01*
X47522381Y-274854761D01*
X47570000Y-274759523D01*
X47617619Y-274711904D01*
X47712857Y-274664285D01*
X47808095Y-274664285D01*
X47950952Y-274711904D01*
X48522381Y-275283333D01*
X48522381Y-274664285D01*
M02*
