M48
;DRILL file {KiCad (5.0.0)} date 10/21/19 14:56:00
;FORMAT={-:-/ absolute / metric / decimal}
FMAT,2
METRIC,TZ
T1C0.370
T2C0.400
T3C0.500
%
G90
G05
M71
T1
X183.019Y-90.621
X183.219Y-107.321
X189.744Y-134.621
X190.014Y-133.202
X190.319Y-147.521
X190.465Y-132.666
X190.662Y-134.935
X190.994Y-135.571
X191.019Y-144.521
X191.019Y-150.021
X191.119Y-59.421
X191.119Y-72.721
X191.219Y-132.496
X191.519Y-118.421
X191.619Y-181.021
X191.719Y-177.171
X192.469Y-231.221
X192.595Y-142.396
X192.724Y-177.271
X193.219Y-163.421
X193.619Y-152.321
X193.719Y-123.121
X193.847Y-150.899
X194.019Y-142.921
X194.069Y-177.721
X194.069Y-215.885
X194.339Y-133.501
X194.439Y-137.011
X194.819Y-137.621
X195.059Y-145.961
X195.369Y-135.621
X195.419Y-174.921
X195.519Y-172.421
X195.669Y-180.871
X195.919Y-169.021
X196.019Y-144.121
X196.719Y-125.321
X197.119Y-144.321
X197.419Y-132.821
X197.419Y-160.921
X197.63Y-142.888
X197.678Y-142.039
X197.719Y-91.121
X197.719Y-155.351
X197.819Y-144.521
X197.919Y-195.871
X197.969Y-173.171
X198.119Y-133.621
X198.519Y-109.021
X198.619Y-194.671
X198.819Y-148.621
X198.819Y-180.921
X198.849Y-138.481
X199.013Y-137.727
X199.119Y-144.921
X199.269Y-230.821
X199.519Y-183.021
X199.719Y-144.221
X199.819Y-137.721
X200.119Y-136.021
X200.149Y-164.521
X200.269Y-171.747
X200.644Y-145.796
X200.749Y-152.801
X200.819Y-127.421
X201.069Y-168.671
X201.069Y-183.221
X201.119Y-158.921
X201.269Y-148.311
X201.3Y-144.327
X201.819Y-90.721
X201.919Y-159.521
X202.019Y-223.121
X202.049Y-149.151
X202.419Y-158.721
X202.819Y-154.021
X203.094Y-133.296
X203.119Y-159.021
X203.129Y-132.512
X203.276Y-137.377
X203.369Y-140.421
X203.393Y-136.434
X203.519Y-172.181
X204.019Y-136.121
X204.069Y-132.521
X204.144Y-151.096
X204.219Y-169.971
X204.34Y-150.424
X204.469Y-145.946
X204.549Y-148.621
X204.694Y-154.296
X204.719Y-57.821
X204.859Y-144.381
X205.469Y-175.021
X205.669Y-175.971
X205.799Y-167.201
X206.078Y-147.107
X206.269Y-137.581
X206.689Y-134.331
X206.744Y-147.321
X206.869Y-157.621
X207.149Y-142.691
X207.269Y-152.421
X207.319Y-156.571
X207.819Y-123.971
X207.919Y-161.101
X208.049Y-172.141
X208.119Y-57.771
X208.469Y-139.046
X208.719Y-163.608
X208.944Y-146.096
X209.159Y-137.031
X209.269Y-140.021
X209.905Y-136.797
X209.909Y-123.691
X209.994Y-148.496
X210.219Y-146.021
X210.294Y-61.821
X210.319Y-182.371
X210.819Y-144.246
X210.869Y-101.521
X211.194Y-145.696
X211.219Y-181.921
X211.369Y-164.671
X211.819Y-147.521
X211.869Y-146.071
X212.069Y-181.921
X212.219Y-164.271
X212.319Y-157.596
X212.369Y-159.571
X212.419Y-172.971
X212.519Y-167.271
X212.849Y-83.561
X212.869Y-163.521
X213.019Y-147.821
X213.519Y-169.171
X213.619Y-149.671
X213.619Y-163.221
X213.769Y-182.421
X214.319Y-158.021
X214.869Y-164.421
X215.119Y-85.621
X215.269Y-154.721
X215.419Y-174.171
X215.469Y-231.171
X215.519Y-171.571
X216.719Y-101.521
X217.419Y-213.821
X217.719Y-227.621
X217.859Y-132.451
X217.859Y-135.141
X218.959Y-148.781
X219.044Y-83.196
X219.694Y-117.746
X219.769Y-164.171
X221.919Y-166.771
X223.099Y-152.921
X223.394Y-69.621
X223.439Y-147.941
X225.469Y-117.696
X226.469Y-98.371
X226.844Y-116.096
X226.969Y-119.596
X228.019Y-126.421
X228.219Y-147.621
X229.019Y-133.996
X229.069Y-115.771
X229.119Y-128.271
X229.944Y-132.346
X231.319Y-185.121
X233.269Y-170.571
X235.819Y-83.571
X236.719Y-158.021
X237.519Y-149.821
X239.569Y-100.121
X241.019Y-118.521
X242.619Y-118.321
T2
X187.719Y-124.921
X188.019Y-127.021
X192.419Y-123.821
X192.519Y-127.021
X192.669Y-195.121
X194.269Y-181.871
X194.369Y-171.971
X195.469Y-182.871
X197.019Y-197.321
X198.319Y-192.021
X198.519Y-185.521
X200.419Y-191.371
X201.719Y-174.221
X202.719Y-202.521
X202.819Y-185.021
X203.119Y-193.721
X207.019Y-233.521
X207.419Y-212.621
X207.469Y-179.021
X208.769Y-182.771
X210.619Y-213.921
X212.439Y-177.001
X213.169Y-178.021
X218.119Y-232.121
X226.619Y-218.671
X227.869Y-202.621
T3
X192.1Y-179.718
X192.169Y-178.721
T0
M30
