G04 #@! TF.GenerationSoftware,KiCad,Pcbnew,(5.0.0)*
G04 #@! TF.CreationDate,2019-10-21T15:10:15+02:00*
G04 #@! TF.ProjectId,Insole_PCB,496E736F6C655F5043422E6B69636164,rev?*
G04 #@! TF.SameCoordinates,Original*
G04 #@! TF.FileFunction,Soldermask,Bot*
G04 #@! TF.FilePolarity,Negative*
%FSLAX46Y46*%
G04 Gerber Fmt 4.6, Leading zero omitted, Abs format (unit mm)*
G04 Created by KiCad (PCBNEW (5.0.0)) date 10/21/19 15:10:15*
%MOMM*%
%LPD*%
G01*
G04 APERTURE LIST*
%ADD10R,1.075000X0.650000*%
%ADD11R,0.650000X1.075000*%
%ADD12C,0.100000*%
%ADD13C,1.275000*%
%ADD14C,1.250000*%
%ADD15C,1.250000*%
%ADD16C,0.500000*%
%ADD17C,1.550000*%
%ADD18C,0.850000*%
%ADD19R,1.900000X0.850000*%
%ADD20R,0.850000X1.900000*%
%ADD21R,1.200000X1.300000*%
%ADD22C,1.050000*%
%ADD23C,0.810000*%
%ADD24C,2.200000*%
%ADD25C,0.900000*%
%ADD26C,0.800000*%
%ADD27C,1.200000*%
G04 APERTURE END LIST*
D10*
G04 #@! TO.C,U2*
X197056953Y-152370707D03*
X197056953Y-152870707D03*
X197056953Y-153370707D03*
X197056953Y-153870707D03*
X199581953Y-153870707D03*
X199581953Y-153370707D03*
X199581953Y-152870707D03*
X199581953Y-152370707D03*
D11*
X197819453Y-154133207D03*
X198319453Y-154133207D03*
X198819453Y-154133207D03*
X197819453Y-152108207D03*
X198819453Y-152108207D03*
X198319453Y-152108207D03*
G04 #@! TD*
D12*
G04 #@! TO.C,C1*
G36*
X194653608Y-178945491D02*
X195364372Y-178995192D01*
X195395431Y-178998903D01*
X195425978Y-179005640D01*
X195455717Y-179015339D01*
X195484362Y-179027906D01*
X195511638Y-179043220D01*
X195537281Y-179061134D01*
X195561045Y-179081475D01*
X195582701Y-179104047D01*
X195602039Y-179128633D01*
X195618875Y-179154997D01*
X195633046Y-179182884D01*
X195644415Y-179212025D01*
X195652873Y-179242140D01*
X195658339Y-179272940D01*
X195660759Y-179304127D01*
X195660111Y-179335401D01*
X195615641Y-179971348D01*
X195611930Y-180002408D01*
X195605193Y-180032954D01*
X195595494Y-180062693D01*
X195582927Y-180091339D01*
X195567613Y-180118614D01*
X195549699Y-180144257D01*
X195529358Y-180168021D01*
X195506786Y-180189677D01*
X195482199Y-180209016D01*
X195455836Y-180225851D01*
X195427949Y-180240022D01*
X195398808Y-180251391D01*
X195368692Y-180259849D01*
X195337893Y-180265315D01*
X195306706Y-180267735D01*
X195275432Y-180267087D01*
X194564668Y-180217386D01*
X194533609Y-180213675D01*
X194503062Y-180206938D01*
X194473323Y-180197239D01*
X194444678Y-180184672D01*
X194417402Y-180169358D01*
X194391759Y-180151444D01*
X194367995Y-180131103D01*
X194346339Y-180108531D01*
X194327001Y-180083945D01*
X194310165Y-180057581D01*
X194295994Y-180029694D01*
X194284625Y-180000553D01*
X194276167Y-179970438D01*
X194270701Y-179939638D01*
X194268281Y-179908451D01*
X194268929Y-179877177D01*
X194313399Y-179241230D01*
X194317110Y-179210170D01*
X194323847Y-179179624D01*
X194333546Y-179149885D01*
X194346113Y-179121239D01*
X194361427Y-179093964D01*
X194379341Y-179068321D01*
X194399682Y-179044557D01*
X194422254Y-179022901D01*
X194446841Y-179003562D01*
X194473204Y-178986727D01*
X194501091Y-178972556D01*
X194530232Y-178961187D01*
X194560348Y-178952729D01*
X194591147Y-178947263D01*
X194622334Y-178944843D01*
X194653608Y-178945491D01*
X194653608Y-178945491D01*
G37*
D13*
X194964520Y-179606289D03*
D12*
G36*
X194763474Y-177374327D02*
X195474238Y-177424028D01*
X195505297Y-177427739D01*
X195535844Y-177434476D01*
X195565583Y-177444175D01*
X195594228Y-177456742D01*
X195621504Y-177472056D01*
X195647147Y-177489970D01*
X195670911Y-177510311D01*
X195692567Y-177532883D01*
X195711905Y-177557469D01*
X195728741Y-177583833D01*
X195742912Y-177611720D01*
X195754281Y-177640861D01*
X195762739Y-177670976D01*
X195768205Y-177701776D01*
X195770625Y-177732963D01*
X195769977Y-177764237D01*
X195725507Y-178400184D01*
X195721796Y-178431244D01*
X195715059Y-178461790D01*
X195705360Y-178491529D01*
X195692793Y-178520175D01*
X195677479Y-178547450D01*
X195659565Y-178573093D01*
X195639224Y-178596857D01*
X195616652Y-178618513D01*
X195592065Y-178637852D01*
X195565702Y-178654687D01*
X195537815Y-178668858D01*
X195508674Y-178680227D01*
X195478558Y-178688685D01*
X195447759Y-178694151D01*
X195416572Y-178696571D01*
X195385298Y-178695923D01*
X194674534Y-178646222D01*
X194643475Y-178642511D01*
X194612928Y-178635774D01*
X194583189Y-178626075D01*
X194554544Y-178613508D01*
X194527268Y-178598194D01*
X194501625Y-178580280D01*
X194477861Y-178559939D01*
X194456205Y-178537367D01*
X194436867Y-178512781D01*
X194420031Y-178486417D01*
X194405860Y-178458530D01*
X194394491Y-178429389D01*
X194386033Y-178399274D01*
X194380567Y-178368474D01*
X194378147Y-178337287D01*
X194378795Y-178306013D01*
X194423265Y-177670066D01*
X194426976Y-177639006D01*
X194433713Y-177608460D01*
X194443412Y-177578721D01*
X194455979Y-177550075D01*
X194471293Y-177522800D01*
X194489207Y-177497157D01*
X194509548Y-177473393D01*
X194532120Y-177451737D01*
X194556707Y-177432398D01*
X194583070Y-177415563D01*
X194610957Y-177401392D01*
X194640098Y-177390023D01*
X194670214Y-177381565D01*
X194701013Y-177376099D01*
X194732200Y-177373679D01*
X194763474Y-177374327D01*
X194763474Y-177374327D01*
G37*
D13*
X195074386Y-178035125D03*
G04 #@! TD*
D12*
G04 #@! TO.C,C2*
G36*
X215491741Y-172571067D02*
X215522854Y-172574303D01*
X215553500Y-172580572D01*
X215583384Y-172589816D01*
X216252915Y-172833506D01*
X216281749Y-172845634D01*
X216309255Y-172860530D01*
X216335169Y-172878050D01*
X216359241Y-172898026D01*
X216381238Y-172920265D01*
X216400950Y-172944553D01*
X216418187Y-172970657D01*
X216432782Y-172998324D01*
X216444594Y-173027288D01*
X216453511Y-173057271D01*
X216459446Y-173087983D01*
X216462343Y-173119130D01*
X216462172Y-173150410D01*
X216458936Y-173181523D01*
X216452666Y-173212168D01*
X216443423Y-173242052D01*
X216225386Y-173841106D01*
X216213258Y-173869939D01*
X216198362Y-173897446D01*
X216180842Y-173923359D01*
X216160866Y-173947431D01*
X216138627Y-173969429D01*
X216114339Y-173989141D01*
X216088236Y-174006377D01*
X216060569Y-174020972D01*
X216031605Y-174032785D01*
X216001622Y-174041702D01*
X215970909Y-174047637D01*
X215939763Y-174050534D01*
X215908483Y-174050363D01*
X215877370Y-174047127D01*
X215846724Y-174040858D01*
X215816840Y-174031614D01*
X215147309Y-173787924D01*
X215118475Y-173775796D01*
X215090969Y-173760900D01*
X215065055Y-173743380D01*
X215040983Y-173723404D01*
X215018986Y-173701165D01*
X214999274Y-173676877D01*
X214982037Y-173650773D01*
X214967442Y-173623106D01*
X214955630Y-173594142D01*
X214946713Y-173564159D01*
X214940778Y-173533447D01*
X214937881Y-173502300D01*
X214938052Y-173471020D01*
X214941288Y-173439907D01*
X214947558Y-173409262D01*
X214956801Y-173379378D01*
X215174838Y-172780324D01*
X215186966Y-172751491D01*
X215201862Y-172723984D01*
X215219382Y-172698071D01*
X215239358Y-172673999D01*
X215261597Y-172652001D01*
X215285885Y-172632289D01*
X215311988Y-172615053D01*
X215339655Y-172600458D01*
X215368619Y-172588645D01*
X215398602Y-172579728D01*
X215429315Y-172573793D01*
X215460461Y-172570896D01*
X215491741Y-172571067D01*
X215491741Y-172571067D01*
G37*
D13*
X215700112Y-173310715D03*
D12*
G36*
X216030423Y-171091051D02*
X216061536Y-171094287D01*
X216092182Y-171100556D01*
X216122066Y-171109800D01*
X216791597Y-171353490D01*
X216820431Y-171365618D01*
X216847937Y-171380514D01*
X216873851Y-171398034D01*
X216897923Y-171418010D01*
X216919920Y-171440249D01*
X216939632Y-171464537D01*
X216956869Y-171490641D01*
X216971464Y-171518308D01*
X216983276Y-171547272D01*
X216992193Y-171577255D01*
X216998128Y-171607967D01*
X217001025Y-171639114D01*
X217000854Y-171670394D01*
X216997618Y-171701507D01*
X216991348Y-171732152D01*
X216982105Y-171762036D01*
X216764068Y-172361090D01*
X216751940Y-172389923D01*
X216737044Y-172417430D01*
X216719524Y-172443343D01*
X216699548Y-172467415D01*
X216677309Y-172489413D01*
X216653021Y-172509125D01*
X216626918Y-172526361D01*
X216599251Y-172540956D01*
X216570287Y-172552769D01*
X216540304Y-172561686D01*
X216509591Y-172567621D01*
X216478445Y-172570518D01*
X216447165Y-172570347D01*
X216416052Y-172567111D01*
X216385406Y-172560842D01*
X216355522Y-172551598D01*
X215685991Y-172307908D01*
X215657157Y-172295780D01*
X215629651Y-172280884D01*
X215603737Y-172263364D01*
X215579665Y-172243388D01*
X215557668Y-172221149D01*
X215537956Y-172196861D01*
X215520719Y-172170757D01*
X215506124Y-172143090D01*
X215494312Y-172114126D01*
X215485395Y-172084143D01*
X215479460Y-172053431D01*
X215476563Y-172022284D01*
X215476734Y-171991004D01*
X215479970Y-171959891D01*
X215486240Y-171929246D01*
X215495483Y-171899362D01*
X215713520Y-171300308D01*
X215725648Y-171271475D01*
X215740544Y-171243968D01*
X215758064Y-171218055D01*
X215778040Y-171193983D01*
X215800279Y-171171985D01*
X215824567Y-171152273D01*
X215850670Y-171135037D01*
X215878337Y-171120442D01*
X215907301Y-171108629D01*
X215937284Y-171099712D01*
X215967997Y-171093777D01*
X215999143Y-171090880D01*
X216030423Y-171091051D01*
X216030423Y-171091051D01*
G37*
D13*
X216238794Y-171830699D03*
G04 #@! TD*
D12*
G04 #@! TO.C,C3*
G36*
X201479485Y-171192594D02*
X202191009Y-171229884D01*
X202222129Y-171233052D01*
X202252789Y-171239255D01*
X202282692Y-171248433D01*
X202311553Y-171260498D01*
X202339091Y-171275334D01*
X202365043Y-171292798D01*
X202389158Y-171312721D01*
X202411205Y-171334912D01*
X202430970Y-171359157D01*
X202448263Y-171385223D01*
X202462918Y-171412858D01*
X202474794Y-171441796D01*
X202483776Y-171471760D01*
X202489778Y-171502459D01*
X202492743Y-171533599D01*
X202492640Y-171564879D01*
X202459276Y-172201505D01*
X202456108Y-172232625D01*
X202449905Y-172263284D01*
X202440727Y-172293188D01*
X202428662Y-172322048D01*
X202413826Y-172349587D01*
X202396363Y-172375539D01*
X202376439Y-172399654D01*
X202354248Y-172421700D01*
X202330003Y-172441465D01*
X202303938Y-172458759D01*
X202276303Y-172473414D01*
X202247364Y-172485290D01*
X202217401Y-172494272D01*
X202186701Y-172500274D01*
X202155561Y-172503239D01*
X202124281Y-172503136D01*
X201412757Y-172465846D01*
X201381637Y-172462678D01*
X201350977Y-172456475D01*
X201321074Y-172447297D01*
X201292213Y-172435232D01*
X201264675Y-172420396D01*
X201238723Y-172402932D01*
X201214608Y-172383009D01*
X201192561Y-172360818D01*
X201172796Y-172336573D01*
X201155503Y-172310507D01*
X201140848Y-172282872D01*
X201128972Y-172253934D01*
X201119990Y-172223970D01*
X201113988Y-172193271D01*
X201111023Y-172162131D01*
X201111126Y-172130851D01*
X201144490Y-171494225D01*
X201147658Y-171463105D01*
X201153861Y-171432446D01*
X201163039Y-171402542D01*
X201175104Y-171373682D01*
X201189940Y-171346143D01*
X201207403Y-171320191D01*
X201227327Y-171296076D01*
X201249518Y-171274030D01*
X201273763Y-171254265D01*
X201299828Y-171236971D01*
X201327463Y-171222316D01*
X201356402Y-171210440D01*
X201386365Y-171201458D01*
X201417065Y-171195456D01*
X201448205Y-171192491D01*
X201479485Y-171192594D01*
X201479485Y-171192594D01*
G37*
D13*
X201801883Y-171847865D03*
D12*
G36*
X201397055Y-172765436D02*
X202108579Y-172802726D01*
X202139699Y-172805894D01*
X202170359Y-172812097D01*
X202200262Y-172821275D01*
X202229123Y-172833340D01*
X202256661Y-172848176D01*
X202282613Y-172865640D01*
X202306728Y-172885563D01*
X202328775Y-172907754D01*
X202348540Y-172931999D01*
X202365833Y-172958065D01*
X202380488Y-172985700D01*
X202392364Y-173014638D01*
X202401346Y-173044602D01*
X202407348Y-173075301D01*
X202410313Y-173106441D01*
X202410210Y-173137721D01*
X202376846Y-173774347D01*
X202373678Y-173805467D01*
X202367475Y-173836126D01*
X202358297Y-173866030D01*
X202346232Y-173894890D01*
X202331396Y-173922429D01*
X202313933Y-173948381D01*
X202294009Y-173972496D01*
X202271818Y-173994542D01*
X202247573Y-174014307D01*
X202221508Y-174031601D01*
X202193873Y-174046256D01*
X202164934Y-174058132D01*
X202134971Y-174067114D01*
X202104271Y-174073116D01*
X202073131Y-174076081D01*
X202041851Y-174075978D01*
X201330327Y-174038688D01*
X201299207Y-174035520D01*
X201268547Y-174029317D01*
X201238644Y-174020139D01*
X201209783Y-174008074D01*
X201182245Y-173993238D01*
X201156293Y-173975774D01*
X201132178Y-173955851D01*
X201110131Y-173933660D01*
X201090366Y-173909415D01*
X201073073Y-173883349D01*
X201058418Y-173855714D01*
X201046542Y-173826776D01*
X201037560Y-173796812D01*
X201031558Y-173766113D01*
X201028593Y-173734973D01*
X201028696Y-173703693D01*
X201062060Y-173067067D01*
X201065228Y-173035947D01*
X201071431Y-173005288D01*
X201080609Y-172975384D01*
X201092674Y-172946524D01*
X201107510Y-172918985D01*
X201124973Y-172893033D01*
X201144897Y-172868918D01*
X201167088Y-172846872D01*
X201191333Y-172827107D01*
X201217398Y-172809813D01*
X201245033Y-172795158D01*
X201273972Y-172783282D01*
X201303935Y-172774300D01*
X201334635Y-172768298D01*
X201365775Y-172765333D01*
X201397055Y-172765436D01*
X201397055Y-172765436D01*
G37*
D13*
X201719453Y-173420707D03*
G04 #@! TD*
D12*
G04 #@! TO.C,C4*
G36*
X200753608Y-166995491D02*
X201464372Y-167045192D01*
X201495431Y-167048903D01*
X201525978Y-167055640D01*
X201555717Y-167065339D01*
X201584362Y-167077906D01*
X201611638Y-167093220D01*
X201637281Y-167111134D01*
X201661045Y-167131475D01*
X201682701Y-167154047D01*
X201702039Y-167178633D01*
X201718875Y-167204997D01*
X201733046Y-167232884D01*
X201744415Y-167262025D01*
X201752873Y-167292140D01*
X201758339Y-167322940D01*
X201760759Y-167354127D01*
X201760111Y-167385401D01*
X201715641Y-168021348D01*
X201711930Y-168052408D01*
X201705193Y-168082954D01*
X201695494Y-168112693D01*
X201682927Y-168141339D01*
X201667613Y-168168614D01*
X201649699Y-168194257D01*
X201629358Y-168218021D01*
X201606786Y-168239677D01*
X201582199Y-168259016D01*
X201555836Y-168275851D01*
X201527949Y-168290022D01*
X201498808Y-168301391D01*
X201468692Y-168309849D01*
X201437893Y-168315315D01*
X201406706Y-168317735D01*
X201375432Y-168317087D01*
X200664668Y-168267386D01*
X200633609Y-168263675D01*
X200603062Y-168256938D01*
X200573323Y-168247239D01*
X200544678Y-168234672D01*
X200517402Y-168219358D01*
X200491759Y-168201444D01*
X200467995Y-168181103D01*
X200446339Y-168158531D01*
X200427001Y-168133945D01*
X200410165Y-168107581D01*
X200395994Y-168079694D01*
X200384625Y-168050553D01*
X200376167Y-168020438D01*
X200370701Y-167989638D01*
X200368281Y-167958451D01*
X200368929Y-167927177D01*
X200413399Y-167291230D01*
X200417110Y-167260170D01*
X200423847Y-167229624D01*
X200433546Y-167199885D01*
X200446113Y-167171239D01*
X200461427Y-167143964D01*
X200479341Y-167118321D01*
X200499682Y-167094557D01*
X200522254Y-167072901D01*
X200546841Y-167053562D01*
X200573204Y-167036727D01*
X200601091Y-167022556D01*
X200630232Y-167011187D01*
X200660348Y-167002729D01*
X200691147Y-166997263D01*
X200722334Y-166994843D01*
X200753608Y-166995491D01*
X200753608Y-166995491D01*
G37*
D13*
X201064520Y-167656289D03*
D12*
G36*
X200863474Y-165424327D02*
X201574238Y-165474028D01*
X201605297Y-165477739D01*
X201635844Y-165484476D01*
X201665583Y-165494175D01*
X201694228Y-165506742D01*
X201721504Y-165522056D01*
X201747147Y-165539970D01*
X201770911Y-165560311D01*
X201792567Y-165582883D01*
X201811905Y-165607469D01*
X201828741Y-165633833D01*
X201842912Y-165661720D01*
X201854281Y-165690861D01*
X201862739Y-165720976D01*
X201868205Y-165751776D01*
X201870625Y-165782963D01*
X201869977Y-165814237D01*
X201825507Y-166450184D01*
X201821796Y-166481244D01*
X201815059Y-166511790D01*
X201805360Y-166541529D01*
X201792793Y-166570175D01*
X201777479Y-166597450D01*
X201759565Y-166623093D01*
X201739224Y-166646857D01*
X201716652Y-166668513D01*
X201692065Y-166687852D01*
X201665702Y-166704687D01*
X201637815Y-166718858D01*
X201608674Y-166730227D01*
X201578558Y-166738685D01*
X201547759Y-166744151D01*
X201516572Y-166746571D01*
X201485298Y-166745923D01*
X200774534Y-166696222D01*
X200743475Y-166692511D01*
X200712928Y-166685774D01*
X200683189Y-166676075D01*
X200654544Y-166663508D01*
X200627268Y-166648194D01*
X200601625Y-166630280D01*
X200577861Y-166609939D01*
X200556205Y-166587367D01*
X200536867Y-166562781D01*
X200520031Y-166536417D01*
X200505860Y-166508530D01*
X200494491Y-166479389D01*
X200486033Y-166449274D01*
X200480567Y-166418474D01*
X200478147Y-166387287D01*
X200478795Y-166356013D01*
X200523265Y-165720066D01*
X200526976Y-165689006D01*
X200533713Y-165658460D01*
X200543412Y-165628721D01*
X200555979Y-165600075D01*
X200571293Y-165572800D01*
X200589207Y-165547157D01*
X200609548Y-165523393D01*
X200632120Y-165501737D01*
X200656707Y-165482398D01*
X200683070Y-165465563D01*
X200710957Y-165451392D01*
X200740098Y-165440023D01*
X200770214Y-165431565D01*
X200801013Y-165426099D01*
X200832200Y-165423679D01*
X200863474Y-165424327D01*
X200863474Y-165424327D01*
G37*
D13*
X201174386Y-166085125D03*
G04 #@! TD*
D12*
G04 #@! TO.C,C5*
G36*
X214041741Y-172021067D02*
X214072854Y-172024303D01*
X214103500Y-172030572D01*
X214133384Y-172039816D01*
X214802915Y-172283506D01*
X214831749Y-172295634D01*
X214859255Y-172310530D01*
X214885169Y-172328050D01*
X214909241Y-172348026D01*
X214931238Y-172370265D01*
X214950950Y-172394553D01*
X214968187Y-172420657D01*
X214982782Y-172448324D01*
X214994594Y-172477288D01*
X215003511Y-172507271D01*
X215009446Y-172537983D01*
X215012343Y-172569130D01*
X215012172Y-172600410D01*
X215008936Y-172631523D01*
X215002666Y-172662168D01*
X214993423Y-172692052D01*
X214775386Y-173291106D01*
X214763258Y-173319939D01*
X214748362Y-173347446D01*
X214730842Y-173373359D01*
X214710866Y-173397431D01*
X214688627Y-173419429D01*
X214664339Y-173439141D01*
X214638236Y-173456377D01*
X214610569Y-173470972D01*
X214581605Y-173482785D01*
X214551622Y-173491702D01*
X214520909Y-173497637D01*
X214489763Y-173500534D01*
X214458483Y-173500363D01*
X214427370Y-173497127D01*
X214396724Y-173490858D01*
X214366840Y-173481614D01*
X213697309Y-173237924D01*
X213668475Y-173225796D01*
X213640969Y-173210900D01*
X213615055Y-173193380D01*
X213590983Y-173173404D01*
X213568986Y-173151165D01*
X213549274Y-173126877D01*
X213532037Y-173100773D01*
X213517442Y-173073106D01*
X213505630Y-173044142D01*
X213496713Y-173014159D01*
X213490778Y-172983447D01*
X213487881Y-172952300D01*
X213488052Y-172921020D01*
X213491288Y-172889907D01*
X213497558Y-172859262D01*
X213506801Y-172829378D01*
X213724838Y-172230324D01*
X213736966Y-172201491D01*
X213751862Y-172173984D01*
X213769382Y-172148071D01*
X213789358Y-172123999D01*
X213811597Y-172102001D01*
X213835885Y-172082289D01*
X213861988Y-172065053D01*
X213889655Y-172050458D01*
X213918619Y-172038645D01*
X213948602Y-172029728D01*
X213979315Y-172023793D01*
X214010461Y-172020896D01*
X214041741Y-172021067D01*
X214041741Y-172021067D01*
G37*
D13*
X214250112Y-172760715D03*
D12*
G36*
X214580423Y-170541051D02*
X214611536Y-170544287D01*
X214642182Y-170550556D01*
X214672066Y-170559800D01*
X215341597Y-170803490D01*
X215370431Y-170815618D01*
X215397937Y-170830514D01*
X215423851Y-170848034D01*
X215447923Y-170868010D01*
X215469920Y-170890249D01*
X215489632Y-170914537D01*
X215506869Y-170940641D01*
X215521464Y-170968308D01*
X215533276Y-170997272D01*
X215542193Y-171027255D01*
X215548128Y-171057967D01*
X215551025Y-171089114D01*
X215550854Y-171120394D01*
X215547618Y-171151507D01*
X215541348Y-171182152D01*
X215532105Y-171212036D01*
X215314068Y-171811090D01*
X215301940Y-171839923D01*
X215287044Y-171867430D01*
X215269524Y-171893343D01*
X215249548Y-171917415D01*
X215227309Y-171939413D01*
X215203021Y-171959125D01*
X215176918Y-171976361D01*
X215149251Y-171990956D01*
X215120287Y-172002769D01*
X215090304Y-172011686D01*
X215059591Y-172017621D01*
X215028445Y-172020518D01*
X214997165Y-172020347D01*
X214966052Y-172017111D01*
X214935406Y-172010842D01*
X214905522Y-172001598D01*
X214235991Y-171757908D01*
X214207157Y-171745780D01*
X214179651Y-171730884D01*
X214153737Y-171713364D01*
X214129665Y-171693388D01*
X214107668Y-171671149D01*
X214087956Y-171646861D01*
X214070719Y-171620757D01*
X214056124Y-171593090D01*
X214044312Y-171564126D01*
X214035395Y-171534143D01*
X214029460Y-171503431D01*
X214026563Y-171472284D01*
X214026734Y-171441004D01*
X214029970Y-171409891D01*
X214036240Y-171379246D01*
X214045483Y-171349362D01*
X214263520Y-170750308D01*
X214275648Y-170721475D01*
X214290544Y-170693968D01*
X214308064Y-170668055D01*
X214328040Y-170643983D01*
X214350279Y-170621985D01*
X214374567Y-170602273D01*
X214400670Y-170585037D01*
X214428337Y-170570442D01*
X214457301Y-170558629D01*
X214487284Y-170549712D01*
X214517997Y-170543777D01*
X214549143Y-170540880D01*
X214580423Y-170541051D01*
X214580423Y-170541051D01*
G37*
D13*
X214788794Y-171280699D03*
G04 #@! TD*
D12*
G04 #@! TO.C,C6*
G36*
X208306946Y-161384742D02*
X208337888Y-161389332D01*
X208368231Y-161396932D01*
X208397683Y-161407470D01*
X208425961Y-161420845D01*
X208452791Y-161436926D01*
X208477916Y-161455560D01*
X208501093Y-161476567D01*
X208522100Y-161499744D01*
X208540734Y-161524869D01*
X208556815Y-161551699D01*
X208570190Y-161579977D01*
X208580728Y-161609429D01*
X208588328Y-161639772D01*
X208592918Y-161670714D01*
X208594453Y-161701957D01*
X208594453Y-162339457D01*
X208592918Y-162370700D01*
X208588328Y-162401642D01*
X208580728Y-162431985D01*
X208570190Y-162461437D01*
X208556815Y-162489715D01*
X208540734Y-162516545D01*
X208522100Y-162541670D01*
X208501093Y-162564847D01*
X208477916Y-162585854D01*
X208452791Y-162604488D01*
X208425961Y-162620569D01*
X208397683Y-162633944D01*
X208368231Y-162644482D01*
X208337888Y-162652082D01*
X208306946Y-162656672D01*
X208275703Y-162658207D01*
X207563203Y-162658207D01*
X207531960Y-162656672D01*
X207501018Y-162652082D01*
X207470675Y-162644482D01*
X207441223Y-162633944D01*
X207412945Y-162620569D01*
X207386115Y-162604488D01*
X207360990Y-162585854D01*
X207337813Y-162564847D01*
X207316806Y-162541670D01*
X207298172Y-162516545D01*
X207282091Y-162489715D01*
X207268716Y-162461437D01*
X207258178Y-162431985D01*
X207250578Y-162401642D01*
X207245988Y-162370700D01*
X207244453Y-162339457D01*
X207244453Y-161701957D01*
X207245988Y-161670714D01*
X207250578Y-161639772D01*
X207258178Y-161609429D01*
X207268716Y-161579977D01*
X207282091Y-161551699D01*
X207298172Y-161524869D01*
X207316806Y-161499744D01*
X207337813Y-161476567D01*
X207360990Y-161455560D01*
X207386115Y-161436926D01*
X207412945Y-161420845D01*
X207441223Y-161407470D01*
X207470675Y-161396932D01*
X207501018Y-161389332D01*
X207531960Y-161384742D01*
X207563203Y-161383207D01*
X208275703Y-161383207D01*
X208306946Y-161384742D01*
X208306946Y-161384742D01*
G37*
D13*
X207919453Y-162020707D03*
D12*
G36*
X208306946Y-162959742D02*
X208337888Y-162964332D01*
X208368231Y-162971932D01*
X208397683Y-162982470D01*
X208425961Y-162995845D01*
X208452791Y-163011926D01*
X208477916Y-163030560D01*
X208501093Y-163051567D01*
X208522100Y-163074744D01*
X208540734Y-163099869D01*
X208556815Y-163126699D01*
X208570190Y-163154977D01*
X208580728Y-163184429D01*
X208588328Y-163214772D01*
X208592918Y-163245714D01*
X208594453Y-163276957D01*
X208594453Y-163914457D01*
X208592918Y-163945700D01*
X208588328Y-163976642D01*
X208580728Y-164006985D01*
X208570190Y-164036437D01*
X208556815Y-164064715D01*
X208540734Y-164091545D01*
X208522100Y-164116670D01*
X208501093Y-164139847D01*
X208477916Y-164160854D01*
X208452791Y-164179488D01*
X208425961Y-164195569D01*
X208397683Y-164208944D01*
X208368231Y-164219482D01*
X208337888Y-164227082D01*
X208306946Y-164231672D01*
X208275703Y-164233207D01*
X207563203Y-164233207D01*
X207531960Y-164231672D01*
X207501018Y-164227082D01*
X207470675Y-164219482D01*
X207441223Y-164208944D01*
X207412945Y-164195569D01*
X207386115Y-164179488D01*
X207360990Y-164160854D01*
X207337813Y-164139847D01*
X207316806Y-164116670D01*
X207298172Y-164091545D01*
X207282091Y-164064715D01*
X207268716Y-164036437D01*
X207258178Y-164006985D01*
X207250578Y-163976642D01*
X207245988Y-163945700D01*
X207244453Y-163914457D01*
X207244453Y-163276957D01*
X207245988Y-163245714D01*
X207250578Y-163214772D01*
X207258178Y-163184429D01*
X207268716Y-163154977D01*
X207282091Y-163126699D01*
X207298172Y-163099869D01*
X207316806Y-163074744D01*
X207337813Y-163051567D01*
X207360990Y-163030560D01*
X207386115Y-163011926D01*
X207412945Y-162995845D01*
X207441223Y-162982470D01*
X207470675Y-162971932D01*
X207501018Y-162964332D01*
X207531960Y-162959742D01*
X207563203Y-162958207D01*
X208275703Y-162958207D01*
X208306946Y-162959742D01*
X208306946Y-162959742D01*
G37*
D13*
X207919453Y-163595707D03*
G04 #@! TD*
D12*
G04 #@! TO.C,C7*
G36*
X209906946Y-161397242D02*
X209937888Y-161401832D01*
X209968231Y-161409432D01*
X209997683Y-161419970D01*
X210025961Y-161433345D01*
X210052791Y-161449426D01*
X210077916Y-161468060D01*
X210101093Y-161489067D01*
X210122100Y-161512244D01*
X210140734Y-161537369D01*
X210156815Y-161564199D01*
X210170190Y-161592477D01*
X210180728Y-161621929D01*
X210188328Y-161652272D01*
X210192918Y-161683214D01*
X210194453Y-161714457D01*
X210194453Y-162351957D01*
X210192918Y-162383200D01*
X210188328Y-162414142D01*
X210180728Y-162444485D01*
X210170190Y-162473937D01*
X210156815Y-162502215D01*
X210140734Y-162529045D01*
X210122100Y-162554170D01*
X210101093Y-162577347D01*
X210077916Y-162598354D01*
X210052791Y-162616988D01*
X210025961Y-162633069D01*
X209997683Y-162646444D01*
X209968231Y-162656982D01*
X209937888Y-162664582D01*
X209906946Y-162669172D01*
X209875703Y-162670707D01*
X209163203Y-162670707D01*
X209131960Y-162669172D01*
X209101018Y-162664582D01*
X209070675Y-162656982D01*
X209041223Y-162646444D01*
X209012945Y-162633069D01*
X208986115Y-162616988D01*
X208960990Y-162598354D01*
X208937813Y-162577347D01*
X208916806Y-162554170D01*
X208898172Y-162529045D01*
X208882091Y-162502215D01*
X208868716Y-162473937D01*
X208858178Y-162444485D01*
X208850578Y-162414142D01*
X208845988Y-162383200D01*
X208844453Y-162351957D01*
X208844453Y-161714457D01*
X208845988Y-161683214D01*
X208850578Y-161652272D01*
X208858178Y-161621929D01*
X208868716Y-161592477D01*
X208882091Y-161564199D01*
X208898172Y-161537369D01*
X208916806Y-161512244D01*
X208937813Y-161489067D01*
X208960990Y-161468060D01*
X208986115Y-161449426D01*
X209012945Y-161433345D01*
X209041223Y-161419970D01*
X209070675Y-161409432D01*
X209101018Y-161401832D01*
X209131960Y-161397242D01*
X209163203Y-161395707D01*
X209875703Y-161395707D01*
X209906946Y-161397242D01*
X209906946Y-161397242D01*
G37*
D13*
X209519453Y-162033207D03*
D12*
G36*
X209906946Y-162972242D02*
X209937888Y-162976832D01*
X209968231Y-162984432D01*
X209997683Y-162994970D01*
X210025961Y-163008345D01*
X210052791Y-163024426D01*
X210077916Y-163043060D01*
X210101093Y-163064067D01*
X210122100Y-163087244D01*
X210140734Y-163112369D01*
X210156815Y-163139199D01*
X210170190Y-163167477D01*
X210180728Y-163196929D01*
X210188328Y-163227272D01*
X210192918Y-163258214D01*
X210194453Y-163289457D01*
X210194453Y-163926957D01*
X210192918Y-163958200D01*
X210188328Y-163989142D01*
X210180728Y-164019485D01*
X210170190Y-164048937D01*
X210156815Y-164077215D01*
X210140734Y-164104045D01*
X210122100Y-164129170D01*
X210101093Y-164152347D01*
X210077916Y-164173354D01*
X210052791Y-164191988D01*
X210025961Y-164208069D01*
X209997683Y-164221444D01*
X209968231Y-164231982D01*
X209937888Y-164239582D01*
X209906946Y-164244172D01*
X209875703Y-164245707D01*
X209163203Y-164245707D01*
X209131960Y-164244172D01*
X209101018Y-164239582D01*
X209070675Y-164231982D01*
X209041223Y-164221444D01*
X209012945Y-164208069D01*
X208986115Y-164191988D01*
X208960990Y-164173354D01*
X208937813Y-164152347D01*
X208916806Y-164129170D01*
X208898172Y-164104045D01*
X208882091Y-164077215D01*
X208868716Y-164048937D01*
X208858178Y-164019485D01*
X208850578Y-163989142D01*
X208845988Y-163958200D01*
X208844453Y-163926957D01*
X208844453Y-163289457D01*
X208845988Y-163258214D01*
X208850578Y-163227272D01*
X208858178Y-163196929D01*
X208868716Y-163167477D01*
X208882091Y-163139199D01*
X208898172Y-163112369D01*
X208916806Y-163087244D01*
X208937813Y-163064067D01*
X208960990Y-163043060D01*
X208986115Y-163024426D01*
X209012945Y-163008345D01*
X209041223Y-162994970D01*
X209070675Y-162984432D01*
X209101018Y-162976832D01*
X209131960Y-162972242D01*
X209163203Y-162970707D01*
X209875703Y-162970707D01*
X209906946Y-162972242D01*
X209906946Y-162972242D01*
G37*
D13*
X209519453Y-163608207D03*
G04 #@! TD*
D12*
G04 #@! TO.C,C8*
G36*
X209269446Y-155047242D02*
X209300388Y-155051832D01*
X209330731Y-155059432D01*
X209360183Y-155069970D01*
X209388461Y-155083345D01*
X209415291Y-155099426D01*
X209440416Y-155118060D01*
X209463593Y-155139067D01*
X209484600Y-155162244D01*
X209503234Y-155187369D01*
X209519315Y-155214199D01*
X209532690Y-155242477D01*
X209543228Y-155271929D01*
X209550828Y-155302272D01*
X209555418Y-155333214D01*
X209556953Y-155364457D01*
X209556953Y-156076957D01*
X209555418Y-156108200D01*
X209550828Y-156139142D01*
X209543228Y-156169485D01*
X209532690Y-156198937D01*
X209519315Y-156227215D01*
X209503234Y-156254045D01*
X209484600Y-156279170D01*
X209463593Y-156302347D01*
X209440416Y-156323354D01*
X209415291Y-156341988D01*
X209388461Y-156358069D01*
X209360183Y-156371444D01*
X209330731Y-156381982D01*
X209300388Y-156389582D01*
X209269446Y-156394172D01*
X209238203Y-156395707D01*
X208600703Y-156395707D01*
X208569460Y-156394172D01*
X208538518Y-156389582D01*
X208508175Y-156381982D01*
X208478723Y-156371444D01*
X208450445Y-156358069D01*
X208423615Y-156341988D01*
X208398490Y-156323354D01*
X208375313Y-156302347D01*
X208354306Y-156279170D01*
X208335672Y-156254045D01*
X208319591Y-156227215D01*
X208306216Y-156198937D01*
X208295678Y-156169485D01*
X208288078Y-156139142D01*
X208283488Y-156108200D01*
X208281953Y-156076957D01*
X208281953Y-155364457D01*
X208283488Y-155333214D01*
X208288078Y-155302272D01*
X208295678Y-155271929D01*
X208306216Y-155242477D01*
X208319591Y-155214199D01*
X208335672Y-155187369D01*
X208354306Y-155162244D01*
X208375313Y-155139067D01*
X208398490Y-155118060D01*
X208423615Y-155099426D01*
X208450445Y-155083345D01*
X208478723Y-155069970D01*
X208508175Y-155059432D01*
X208538518Y-155051832D01*
X208569460Y-155047242D01*
X208600703Y-155045707D01*
X209238203Y-155045707D01*
X209269446Y-155047242D01*
X209269446Y-155047242D01*
G37*
D13*
X208919453Y-155720707D03*
D12*
G36*
X207694446Y-155047242D02*
X207725388Y-155051832D01*
X207755731Y-155059432D01*
X207785183Y-155069970D01*
X207813461Y-155083345D01*
X207840291Y-155099426D01*
X207865416Y-155118060D01*
X207888593Y-155139067D01*
X207909600Y-155162244D01*
X207928234Y-155187369D01*
X207944315Y-155214199D01*
X207957690Y-155242477D01*
X207968228Y-155271929D01*
X207975828Y-155302272D01*
X207980418Y-155333214D01*
X207981953Y-155364457D01*
X207981953Y-156076957D01*
X207980418Y-156108200D01*
X207975828Y-156139142D01*
X207968228Y-156169485D01*
X207957690Y-156198937D01*
X207944315Y-156227215D01*
X207928234Y-156254045D01*
X207909600Y-156279170D01*
X207888593Y-156302347D01*
X207865416Y-156323354D01*
X207840291Y-156341988D01*
X207813461Y-156358069D01*
X207785183Y-156371444D01*
X207755731Y-156381982D01*
X207725388Y-156389582D01*
X207694446Y-156394172D01*
X207663203Y-156395707D01*
X207025703Y-156395707D01*
X206994460Y-156394172D01*
X206963518Y-156389582D01*
X206933175Y-156381982D01*
X206903723Y-156371444D01*
X206875445Y-156358069D01*
X206848615Y-156341988D01*
X206823490Y-156323354D01*
X206800313Y-156302347D01*
X206779306Y-156279170D01*
X206760672Y-156254045D01*
X206744591Y-156227215D01*
X206731216Y-156198937D01*
X206720678Y-156169485D01*
X206713078Y-156139142D01*
X206708488Y-156108200D01*
X206706953Y-156076957D01*
X206706953Y-155364457D01*
X206708488Y-155333214D01*
X206713078Y-155302272D01*
X206720678Y-155271929D01*
X206731216Y-155242477D01*
X206744591Y-155214199D01*
X206760672Y-155187369D01*
X206779306Y-155162244D01*
X206800313Y-155139067D01*
X206823490Y-155118060D01*
X206848615Y-155099426D01*
X206875445Y-155083345D01*
X206903723Y-155069970D01*
X206933175Y-155059432D01*
X206963518Y-155051832D01*
X206994460Y-155047242D01*
X207025703Y-155045707D01*
X207663203Y-155045707D01*
X207694446Y-155047242D01*
X207694446Y-155047242D01*
G37*
D13*
X207344453Y-155720707D03*
G04 #@! TD*
D12*
G04 #@! TO.C,C9*
G36*
X209269446Y-153447242D02*
X209300388Y-153451832D01*
X209330731Y-153459432D01*
X209360183Y-153469970D01*
X209388461Y-153483345D01*
X209415291Y-153499426D01*
X209440416Y-153518060D01*
X209463593Y-153539067D01*
X209484600Y-153562244D01*
X209503234Y-153587369D01*
X209519315Y-153614199D01*
X209532690Y-153642477D01*
X209543228Y-153671929D01*
X209550828Y-153702272D01*
X209555418Y-153733214D01*
X209556953Y-153764457D01*
X209556953Y-154476957D01*
X209555418Y-154508200D01*
X209550828Y-154539142D01*
X209543228Y-154569485D01*
X209532690Y-154598937D01*
X209519315Y-154627215D01*
X209503234Y-154654045D01*
X209484600Y-154679170D01*
X209463593Y-154702347D01*
X209440416Y-154723354D01*
X209415291Y-154741988D01*
X209388461Y-154758069D01*
X209360183Y-154771444D01*
X209330731Y-154781982D01*
X209300388Y-154789582D01*
X209269446Y-154794172D01*
X209238203Y-154795707D01*
X208600703Y-154795707D01*
X208569460Y-154794172D01*
X208538518Y-154789582D01*
X208508175Y-154781982D01*
X208478723Y-154771444D01*
X208450445Y-154758069D01*
X208423615Y-154741988D01*
X208398490Y-154723354D01*
X208375313Y-154702347D01*
X208354306Y-154679170D01*
X208335672Y-154654045D01*
X208319591Y-154627215D01*
X208306216Y-154598937D01*
X208295678Y-154569485D01*
X208288078Y-154539142D01*
X208283488Y-154508200D01*
X208281953Y-154476957D01*
X208281953Y-153764457D01*
X208283488Y-153733214D01*
X208288078Y-153702272D01*
X208295678Y-153671929D01*
X208306216Y-153642477D01*
X208319591Y-153614199D01*
X208335672Y-153587369D01*
X208354306Y-153562244D01*
X208375313Y-153539067D01*
X208398490Y-153518060D01*
X208423615Y-153499426D01*
X208450445Y-153483345D01*
X208478723Y-153469970D01*
X208508175Y-153459432D01*
X208538518Y-153451832D01*
X208569460Y-153447242D01*
X208600703Y-153445707D01*
X209238203Y-153445707D01*
X209269446Y-153447242D01*
X209269446Y-153447242D01*
G37*
D13*
X208919453Y-154120707D03*
D12*
G36*
X207694446Y-153447242D02*
X207725388Y-153451832D01*
X207755731Y-153459432D01*
X207785183Y-153469970D01*
X207813461Y-153483345D01*
X207840291Y-153499426D01*
X207865416Y-153518060D01*
X207888593Y-153539067D01*
X207909600Y-153562244D01*
X207928234Y-153587369D01*
X207944315Y-153614199D01*
X207957690Y-153642477D01*
X207968228Y-153671929D01*
X207975828Y-153702272D01*
X207980418Y-153733214D01*
X207981953Y-153764457D01*
X207981953Y-154476957D01*
X207980418Y-154508200D01*
X207975828Y-154539142D01*
X207968228Y-154569485D01*
X207957690Y-154598937D01*
X207944315Y-154627215D01*
X207928234Y-154654045D01*
X207909600Y-154679170D01*
X207888593Y-154702347D01*
X207865416Y-154723354D01*
X207840291Y-154741988D01*
X207813461Y-154758069D01*
X207785183Y-154771444D01*
X207755731Y-154781982D01*
X207725388Y-154789582D01*
X207694446Y-154794172D01*
X207663203Y-154795707D01*
X207025703Y-154795707D01*
X206994460Y-154794172D01*
X206963518Y-154789582D01*
X206933175Y-154781982D01*
X206903723Y-154771444D01*
X206875445Y-154758069D01*
X206848615Y-154741988D01*
X206823490Y-154723354D01*
X206800313Y-154702347D01*
X206779306Y-154679170D01*
X206760672Y-154654045D01*
X206744591Y-154627215D01*
X206731216Y-154598937D01*
X206720678Y-154569485D01*
X206713078Y-154539142D01*
X206708488Y-154508200D01*
X206706953Y-154476957D01*
X206706953Y-153764457D01*
X206708488Y-153733214D01*
X206713078Y-153702272D01*
X206720678Y-153671929D01*
X206731216Y-153642477D01*
X206744591Y-153614199D01*
X206760672Y-153587369D01*
X206779306Y-153562244D01*
X206800313Y-153539067D01*
X206823490Y-153518060D01*
X206848615Y-153499426D01*
X206875445Y-153483345D01*
X206903723Y-153469970D01*
X206933175Y-153459432D01*
X206963518Y-153451832D01*
X206994460Y-153447242D01*
X207025703Y-153445707D01*
X207663203Y-153445707D01*
X207694446Y-153447242D01*
X207694446Y-153447242D01*
G37*
D13*
X207344453Y-154120707D03*
G04 #@! TD*
D12*
G04 #@! TO.C,C10*
G36*
X202931946Y-138259742D02*
X202962888Y-138264332D01*
X202993231Y-138271932D01*
X203022683Y-138282470D01*
X203050961Y-138295845D01*
X203077791Y-138311926D01*
X203102916Y-138330560D01*
X203126093Y-138351567D01*
X203147100Y-138374744D01*
X203165734Y-138399869D01*
X203181815Y-138426699D01*
X203195190Y-138454977D01*
X203205728Y-138484429D01*
X203213328Y-138514772D01*
X203217918Y-138545714D01*
X203219453Y-138576957D01*
X203219453Y-139214457D01*
X203217918Y-139245700D01*
X203213328Y-139276642D01*
X203205728Y-139306985D01*
X203195190Y-139336437D01*
X203181815Y-139364715D01*
X203165734Y-139391545D01*
X203147100Y-139416670D01*
X203126093Y-139439847D01*
X203102916Y-139460854D01*
X203077791Y-139479488D01*
X203050961Y-139495569D01*
X203022683Y-139508944D01*
X202993231Y-139519482D01*
X202962888Y-139527082D01*
X202931946Y-139531672D01*
X202900703Y-139533207D01*
X202188203Y-139533207D01*
X202156960Y-139531672D01*
X202126018Y-139527082D01*
X202095675Y-139519482D01*
X202066223Y-139508944D01*
X202037945Y-139495569D01*
X202011115Y-139479488D01*
X201985990Y-139460854D01*
X201962813Y-139439847D01*
X201941806Y-139416670D01*
X201923172Y-139391545D01*
X201907091Y-139364715D01*
X201893716Y-139336437D01*
X201883178Y-139306985D01*
X201875578Y-139276642D01*
X201870988Y-139245700D01*
X201869453Y-139214457D01*
X201869453Y-138576957D01*
X201870988Y-138545714D01*
X201875578Y-138514772D01*
X201883178Y-138484429D01*
X201893716Y-138454977D01*
X201907091Y-138426699D01*
X201923172Y-138399869D01*
X201941806Y-138374744D01*
X201962813Y-138351567D01*
X201985990Y-138330560D01*
X202011115Y-138311926D01*
X202037945Y-138295845D01*
X202066223Y-138282470D01*
X202095675Y-138271932D01*
X202126018Y-138264332D01*
X202156960Y-138259742D01*
X202188203Y-138258207D01*
X202900703Y-138258207D01*
X202931946Y-138259742D01*
X202931946Y-138259742D01*
G37*
D13*
X202544453Y-138895707D03*
D12*
G36*
X202931946Y-139834742D02*
X202962888Y-139839332D01*
X202993231Y-139846932D01*
X203022683Y-139857470D01*
X203050961Y-139870845D01*
X203077791Y-139886926D01*
X203102916Y-139905560D01*
X203126093Y-139926567D01*
X203147100Y-139949744D01*
X203165734Y-139974869D01*
X203181815Y-140001699D01*
X203195190Y-140029977D01*
X203205728Y-140059429D01*
X203213328Y-140089772D01*
X203217918Y-140120714D01*
X203219453Y-140151957D01*
X203219453Y-140789457D01*
X203217918Y-140820700D01*
X203213328Y-140851642D01*
X203205728Y-140881985D01*
X203195190Y-140911437D01*
X203181815Y-140939715D01*
X203165734Y-140966545D01*
X203147100Y-140991670D01*
X203126093Y-141014847D01*
X203102916Y-141035854D01*
X203077791Y-141054488D01*
X203050961Y-141070569D01*
X203022683Y-141083944D01*
X202993231Y-141094482D01*
X202962888Y-141102082D01*
X202931946Y-141106672D01*
X202900703Y-141108207D01*
X202188203Y-141108207D01*
X202156960Y-141106672D01*
X202126018Y-141102082D01*
X202095675Y-141094482D01*
X202066223Y-141083944D01*
X202037945Y-141070569D01*
X202011115Y-141054488D01*
X201985990Y-141035854D01*
X201962813Y-141014847D01*
X201941806Y-140991670D01*
X201923172Y-140966545D01*
X201907091Y-140939715D01*
X201893716Y-140911437D01*
X201883178Y-140881985D01*
X201875578Y-140851642D01*
X201870988Y-140820700D01*
X201869453Y-140789457D01*
X201869453Y-140151957D01*
X201870988Y-140120714D01*
X201875578Y-140089772D01*
X201883178Y-140059429D01*
X201893716Y-140029977D01*
X201907091Y-140001699D01*
X201923172Y-139974869D01*
X201941806Y-139949744D01*
X201962813Y-139926567D01*
X201985990Y-139905560D01*
X202011115Y-139886926D01*
X202037945Y-139870845D01*
X202066223Y-139857470D01*
X202095675Y-139846932D01*
X202126018Y-139839332D01*
X202156960Y-139834742D01*
X202188203Y-139833207D01*
X202900703Y-139833207D01*
X202931946Y-139834742D01*
X202931946Y-139834742D01*
G37*
D13*
X202544453Y-140470707D03*
G04 #@! TD*
D12*
G04 #@! TO.C,C11*
G36*
X201306946Y-138272242D02*
X201337888Y-138276832D01*
X201368231Y-138284432D01*
X201397683Y-138294970D01*
X201425961Y-138308345D01*
X201452791Y-138324426D01*
X201477916Y-138343060D01*
X201501093Y-138364067D01*
X201522100Y-138387244D01*
X201540734Y-138412369D01*
X201556815Y-138439199D01*
X201570190Y-138467477D01*
X201580728Y-138496929D01*
X201588328Y-138527272D01*
X201592918Y-138558214D01*
X201594453Y-138589457D01*
X201594453Y-139226957D01*
X201592918Y-139258200D01*
X201588328Y-139289142D01*
X201580728Y-139319485D01*
X201570190Y-139348937D01*
X201556815Y-139377215D01*
X201540734Y-139404045D01*
X201522100Y-139429170D01*
X201501093Y-139452347D01*
X201477916Y-139473354D01*
X201452791Y-139491988D01*
X201425961Y-139508069D01*
X201397683Y-139521444D01*
X201368231Y-139531982D01*
X201337888Y-139539582D01*
X201306946Y-139544172D01*
X201275703Y-139545707D01*
X200563203Y-139545707D01*
X200531960Y-139544172D01*
X200501018Y-139539582D01*
X200470675Y-139531982D01*
X200441223Y-139521444D01*
X200412945Y-139508069D01*
X200386115Y-139491988D01*
X200360990Y-139473354D01*
X200337813Y-139452347D01*
X200316806Y-139429170D01*
X200298172Y-139404045D01*
X200282091Y-139377215D01*
X200268716Y-139348937D01*
X200258178Y-139319485D01*
X200250578Y-139289142D01*
X200245988Y-139258200D01*
X200244453Y-139226957D01*
X200244453Y-138589457D01*
X200245988Y-138558214D01*
X200250578Y-138527272D01*
X200258178Y-138496929D01*
X200268716Y-138467477D01*
X200282091Y-138439199D01*
X200298172Y-138412369D01*
X200316806Y-138387244D01*
X200337813Y-138364067D01*
X200360990Y-138343060D01*
X200386115Y-138324426D01*
X200412945Y-138308345D01*
X200441223Y-138294970D01*
X200470675Y-138284432D01*
X200501018Y-138276832D01*
X200531960Y-138272242D01*
X200563203Y-138270707D01*
X201275703Y-138270707D01*
X201306946Y-138272242D01*
X201306946Y-138272242D01*
G37*
D13*
X200919453Y-138908207D03*
D12*
G36*
X201306946Y-139847242D02*
X201337888Y-139851832D01*
X201368231Y-139859432D01*
X201397683Y-139869970D01*
X201425961Y-139883345D01*
X201452791Y-139899426D01*
X201477916Y-139918060D01*
X201501093Y-139939067D01*
X201522100Y-139962244D01*
X201540734Y-139987369D01*
X201556815Y-140014199D01*
X201570190Y-140042477D01*
X201580728Y-140071929D01*
X201588328Y-140102272D01*
X201592918Y-140133214D01*
X201594453Y-140164457D01*
X201594453Y-140801957D01*
X201592918Y-140833200D01*
X201588328Y-140864142D01*
X201580728Y-140894485D01*
X201570190Y-140923937D01*
X201556815Y-140952215D01*
X201540734Y-140979045D01*
X201522100Y-141004170D01*
X201501093Y-141027347D01*
X201477916Y-141048354D01*
X201452791Y-141066988D01*
X201425961Y-141083069D01*
X201397683Y-141096444D01*
X201368231Y-141106982D01*
X201337888Y-141114582D01*
X201306946Y-141119172D01*
X201275703Y-141120707D01*
X200563203Y-141120707D01*
X200531960Y-141119172D01*
X200501018Y-141114582D01*
X200470675Y-141106982D01*
X200441223Y-141096444D01*
X200412945Y-141083069D01*
X200386115Y-141066988D01*
X200360990Y-141048354D01*
X200337813Y-141027347D01*
X200316806Y-141004170D01*
X200298172Y-140979045D01*
X200282091Y-140952215D01*
X200268716Y-140923937D01*
X200258178Y-140894485D01*
X200250578Y-140864142D01*
X200245988Y-140833200D01*
X200244453Y-140801957D01*
X200244453Y-140164457D01*
X200245988Y-140133214D01*
X200250578Y-140102272D01*
X200258178Y-140071929D01*
X200268716Y-140042477D01*
X200282091Y-140014199D01*
X200298172Y-139987369D01*
X200316806Y-139962244D01*
X200337813Y-139939067D01*
X200360990Y-139918060D01*
X200386115Y-139899426D01*
X200412945Y-139883345D01*
X200441223Y-139869970D01*
X200470675Y-139859432D01*
X200501018Y-139851832D01*
X200531960Y-139847242D01*
X200563203Y-139845707D01*
X201275703Y-139845707D01*
X201306946Y-139847242D01*
X201306946Y-139847242D01*
G37*
D13*
X200919453Y-140483207D03*
G04 #@! TD*
D12*
G04 #@! TO.C,C12*
G36*
X199569446Y-156547242D02*
X199600388Y-156551832D01*
X199630731Y-156559432D01*
X199660183Y-156569970D01*
X199688461Y-156583345D01*
X199715291Y-156599426D01*
X199740416Y-156618060D01*
X199763593Y-156639067D01*
X199784600Y-156662244D01*
X199803234Y-156687369D01*
X199819315Y-156714199D01*
X199832690Y-156742477D01*
X199843228Y-156771929D01*
X199850828Y-156802272D01*
X199855418Y-156833214D01*
X199856953Y-156864457D01*
X199856953Y-157576957D01*
X199855418Y-157608200D01*
X199850828Y-157639142D01*
X199843228Y-157669485D01*
X199832690Y-157698937D01*
X199819315Y-157727215D01*
X199803234Y-157754045D01*
X199784600Y-157779170D01*
X199763593Y-157802347D01*
X199740416Y-157823354D01*
X199715291Y-157841988D01*
X199688461Y-157858069D01*
X199660183Y-157871444D01*
X199630731Y-157881982D01*
X199600388Y-157889582D01*
X199569446Y-157894172D01*
X199538203Y-157895707D01*
X198900703Y-157895707D01*
X198869460Y-157894172D01*
X198838518Y-157889582D01*
X198808175Y-157881982D01*
X198778723Y-157871444D01*
X198750445Y-157858069D01*
X198723615Y-157841988D01*
X198698490Y-157823354D01*
X198675313Y-157802347D01*
X198654306Y-157779170D01*
X198635672Y-157754045D01*
X198619591Y-157727215D01*
X198606216Y-157698937D01*
X198595678Y-157669485D01*
X198588078Y-157639142D01*
X198583488Y-157608200D01*
X198581953Y-157576957D01*
X198581953Y-156864457D01*
X198583488Y-156833214D01*
X198588078Y-156802272D01*
X198595678Y-156771929D01*
X198606216Y-156742477D01*
X198619591Y-156714199D01*
X198635672Y-156687369D01*
X198654306Y-156662244D01*
X198675313Y-156639067D01*
X198698490Y-156618060D01*
X198723615Y-156599426D01*
X198750445Y-156583345D01*
X198778723Y-156569970D01*
X198808175Y-156559432D01*
X198838518Y-156551832D01*
X198869460Y-156547242D01*
X198900703Y-156545707D01*
X199538203Y-156545707D01*
X199569446Y-156547242D01*
X199569446Y-156547242D01*
G37*
D13*
X199219453Y-157220707D03*
D12*
G36*
X201144446Y-156547242D02*
X201175388Y-156551832D01*
X201205731Y-156559432D01*
X201235183Y-156569970D01*
X201263461Y-156583345D01*
X201290291Y-156599426D01*
X201315416Y-156618060D01*
X201338593Y-156639067D01*
X201359600Y-156662244D01*
X201378234Y-156687369D01*
X201394315Y-156714199D01*
X201407690Y-156742477D01*
X201418228Y-156771929D01*
X201425828Y-156802272D01*
X201430418Y-156833214D01*
X201431953Y-156864457D01*
X201431953Y-157576957D01*
X201430418Y-157608200D01*
X201425828Y-157639142D01*
X201418228Y-157669485D01*
X201407690Y-157698937D01*
X201394315Y-157727215D01*
X201378234Y-157754045D01*
X201359600Y-157779170D01*
X201338593Y-157802347D01*
X201315416Y-157823354D01*
X201290291Y-157841988D01*
X201263461Y-157858069D01*
X201235183Y-157871444D01*
X201205731Y-157881982D01*
X201175388Y-157889582D01*
X201144446Y-157894172D01*
X201113203Y-157895707D01*
X200475703Y-157895707D01*
X200444460Y-157894172D01*
X200413518Y-157889582D01*
X200383175Y-157881982D01*
X200353723Y-157871444D01*
X200325445Y-157858069D01*
X200298615Y-157841988D01*
X200273490Y-157823354D01*
X200250313Y-157802347D01*
X200229306Y-157779170D01*
X200210672Y-157754045D01*
X200194591Y-157727215D01*
X200181216Y-157698937D01*
X200170678Y-157669485D01*
X200163078Y-157639142D01*
X200158488Y-157608200D01*
X200156953Y-157576957D01*
X200156953Y-156864457D01*
X200158488Y-156833214D01*
X200163078Y-156802272D01*
X200170678Y-156771929D01*
X200181216Y-156742477D01*
X200194591Y-156714199D01*
X200210672Y-156687369D01*
X200229306Y-156662244D01*
X200250313Y-156639067D01*
X200273490Y-156618060D01*
X200298615Y-156599426D01*
X200325445Y-156583345D01*
X200353723Y-156569970D01*
X200383175Y-156559432D01*
X200413518Y-156551832D01*
X200444460Y-156547242D01*
X200475703Y-156545707D01*
X201113203Y-156545707D01*
X201144446Y-156547242D01*
X201144446Y-156547242D01*
G37*
D13*
X200794453Y-157220707D03*
G04 #@! TD*
D12*
G04 #@! TO.C,C13*
G36*
X199569446Y-154947242D02*
X199600388Y-154951832D01*
X199630731Y-154959432D01*
X199660183Y-154969970D01*
X199688461Y-154983345D01*
X199715291Y-154999426D01*
X199740416Y-155018060D01*
X199763593Y-155039067D01*
X199784600Y-155062244D01*
X199803234Y-155087369D01*
X199819315Y-155114199D01*
X199832690Y-155142477D01*
X199843228Y-155171929D01*
X199850828Y-155202272D01*
X199855418Y-155233214D01*
X199856953Y-155264457D01*
X199856953Y-155976957D01*
X199855418Y-156008200D01*
X199850828Y-156039142D01*
X199843228Y-156069485D01*
X199832690Y-156098937D01*
X199819315Y-156127215D01*
X199803234Y-156154045D01*
X199784600Y-156179170D01*
X199763593Y-156202347D01*
X199740416Y-156223354D01*
X199715291Y-156241988D01*
X199688461Y-156258069D01*
X199660183Y-156271444D01*
X199630731Y-156281982D01*
X199600388Y-156289582D01*
X199569446Y-156294172D01*
X199538203Y-156295707D01*
X198900703Y-156295707D01*
X198869460Y-156294172D01*
X198838518Y-156289582D01*
X198808175Y-156281982D01*
X198778723Y-156271444D01*
X198750445Y-156258069D01*
X198723615Y-156241988D01*
X198698490Y-156223354D01*
X198675313Y-156202347D01*
X198654306Y-156179170D01*
X198635672Y-156154045D01*
X198619591Y-156127215D01*
X198606216Y-156098937D01*
X198595678Y-156069485D01*
X198588078Y-156039142D01*
X198583488Y-156008200D01*
X198581953Y-155976957D01*
X198581953Y-155264457D01*
X198583488Y-155233214D01*
X198588078Y-155202272D01*
X198595678Y-155171929D01*
X198606216Y-155142477D01*
X198619591Y-155114199D01*
X198635672Y-155087369D01*
X198654306Y-155062244D01*
X198675313Y-155039067D01*
X198698490Y-155018060D01*
X198723615Y-154999426D01*
X198750445Y-154983345D01*
X198778723Y-154969970D01*
X198808175Y-154959432D01*
X198838518Y-154951832D01*
X198869460Y-154947242D01*
X198900703Y-154945707D01*
X199538203Y-154945707D01*
X199569446Y-154947242D01*
X199569446Y-154947242D01*
G37*
D13*
X199219453Y-155620707D03*
D12*
G36*
X201144446Y-154947242D02*
X201175388Y-154951832D01*
X201205731Y-154959432D01*
X201235183Y-154969970D01*
X201263461Y-154983345D01*
X201290291Y-154999426D01*
X201315416Y-155018060D01*
X201338593Y-155039067D01*
X201359600Y-155062244D01*
X201378234Y-155087369D01*
X201394315Y-155114199D01*
X201407690Y-155142477D01*
X201418228Y-155171929D01*
X201425828Y-155202272D01*
X201430418Y-155233214D01*
X201431953Y-155264457D01*
X201431953Y-155976957D01*
X201430418Y-156008200D01*
X201425828Y-156039142D01*
X201418228Y-156069485D01*
X201407690Y-156098937D01*
X201394315Y-156127215D01*
X201378234Y-156154045D01*
X201359600Y-156179170D01*
X201338593Y-156202347D01*
X201315416Y-156223354D01*
X201290291Y-156241988D01*
X201263461Y-156258069D01*
X201235183Y-156271444D01*
X201205731Y-156281982D01*
X201175388Y-156289582D01*
X201144446Y-156294172D01*
X201113203Y-156295707D01*
X200475703Y-156295707D01*
X200444460Y-156294172D01*
X200413518Y-156289582D01*
X200383175Y-156281982D01*
X200353723Y-156271444D01*
X200325445Y-156258069D01*
X200298615Y-156241988D01*
X200273490Y-156223354D01*
X200250313Y-156202347D01*
X200229306Y-156179170D01*
X200210672Y-156154045D01*
X200194591Y-156127215D01*
X200181216Y-156098937D01*
X200170678Y-156069485D01*
X200163078Y-156039142D01*
X200158488Y-156008200D01*
X200156953Y-155976957D01*
X200156953Y-155264457D01*
X200158488Y-155233214D01*
X200163078Y-155202272D01*
X200170678Y-155171929D01*
X200181216Y-155142477D01*
X200194591Y-155114199D01*
X200210672Y-155087369D01*
X200229306Y-155062244D01*
X200250313Y-155039067D01*
X200273490Y-155018060D01*
X200298615Y-154999426D01*
X200325445Y-154983345D01*
X200353723Y-154969970D01*
X200383175Y-154959432D01*
X200413518Y-154951832D01*
X200444460Y-154947242D01*
X200475703Y-154945707D01*
X201113203Y-154945707D01*
X201144446Y-154947242D01*
X201144446Y-154947242D01*
G37*
D13*
X200794453Y-155620707D03*
G04 #@! TD*
D12*
G04 #@! TO.C,C14*
G36*
X197656946Y-156147242D02*
X197687888Y-156151832D01*
X197718231Y-156159432D01*
X197747683Y-156169970D01*
X197775961Y-156183345D01*
X197802791Y-156199426D01*
X197827916Y-156218060D01*
X197851093Y-156239067D01*
X197872100Y-156262244D01*
X197890734Y-156287369D01*
X197906815Y-156314199D01*
X197920190Y-156342477D01*
X197930728Y-156371929D01*
X197938328Y-156402272D01*
X197942918Y-156433214D01*
X197944453Y-156464457D01*
X197944453Y-157176957D01*
X197942918Y-157208200D01*
X197938328Y-157239142D01*
X197930728Y-157269485D01*
X197920190Y-157298937D01*
X197906815Y-157327215D01*
X197890734Y-157354045D01*
X197872100Y-157379170D01*
X197851093Y-157402347D01*
X197827916Y-157423354D01*
X197802791Y-157441988D01*
X197775961Y-157458069D01*
X197747683Y-157471444D01*
X197718231Y-157481982D01*
X197687888Y-157489582D01*
X197656946Y-157494172D01*
X197625703Y-157495707D01*
X196988203Y-157495707D01*
X196956960Y-157494172D01*
X196926018Y-157489582D01*
X196895675Y-157481982D01*
X196866223Y-157471444D01*
X196837945Y-157458069D01*
X196811115Y-157441988D01*
X196785990Y-157423354D01*
X196762813Y-157402347D01*
X196741806Y-157379170D01*
X196723172Y-157354045D01*
X196707091Y-157327215D01*
X196693716Y-157298937D01*
X196683178Y-157269485D01*
X196675578Y-157239142D01*
X196670988Y-157208200D01*
X196669453Y-157176957D01*
X196669453Y-156464457D01*
X196670988Y-156433214D01*
X196675578Y-156402272D01*
X196683178Y-156371929D01*
X196693716Y-156342477D01*
X196707091Y-156314199D01*
X196723172Y-156287369D01*
X196741806Y-156262244D01*
X196762813Y-156239067D01*
X196785990Y-156218060D01*
X196811115Y-156199426D01*
X196837945Y-156183345D01*
X196866223Y-156169970D01*
X196895675Y-156159432D01*
X196926018Y-156151832D01*
X196956960Y-156147242D01*
X196988203Y-156145707D01*
X197625703Y-156145707D01*
X197656946Y-156147242D01*
X197656946Y-156147242D01*
G37*
D13*
X197306953Y-156820707D03*
D12*
G36*
X196081946Y-156147242D02*
X196112888Y-156151832D01*
X196143231Y-156159432D01*
X196172683Y-156169970D01*
X196200961Y-156183345D01*
X196227791Y-156199426D01*
X196252916Y-156218060D01*
X196276093Y-156239067D01*
X196297100Y-156262244D01*
X196315734Y-156287369D01*
X196331815Y-156314199D01*
X196345190Y-156342477D01*
X196355728Y-156371929D01*
X196363328Y-156402272D01*
X196367918Y-156433214D01*
X196369453Y-156464457D01*
X196369453Y-157176957D01*
X196367918Y-157208200D01*
X196363328Y-157239142D01*
X196355728Y-157269485D01*
X196345190Y-157298937D01*
X196331815Y-157327215D01*
X196315734Y-157354045D01*
X196297100Y-157379170D01*
X196276093Y-157402347D01*
X196252916Y-157423354D01*
X196227791Y-157441988D01*
X196200961Y-157458069D01*
X196172683Y-157471444D01*
X196143231Y-157481982D01*
X196112888Y-157489582D01*
X196081946Y-157494172D01*
X196050703Y-157495707D01*
X195413203Y-157495707D01*
X195381960Y-157494172D01*
X195351018Y-157489582D01*
X195320675Y-157481982D01*
X195291223Y-157471444D01*
X195262945Y-157458069D01*
X195236115Y-157441988D01*
X195210990Y-157423354D01*
X195187813Y-157402347D01*
X195166806Y-157379170D01*
X195148172Y-157354045D01*
X195132091Y-157327215D01*
X195118716Y-157298937D01*
X195108178Y-157269485D01*
X195100578Y-157239142D01*
X195095988Y-157208200D01*
X195094453Y-157176957D01*
X195094453Y-156464457D01*
X195095988Y-156433214D01*
X195100578Y-156402272D01*
X195108178Y-156371929D01*
X195118716Y-156342477D01*
X195132091Y-156314199D01*
X195148172Y-156287369D01*
X195166806Y-156262244D01*
X195187813Y-156239067D01*
X195210990Y-156218060D01*
X195236115Y-156199426D01*
X195262945Y-156183345D01*
X195291223Y-156169970D01*
X195320675Y-156159432D01*
X195351018Y-156151832D01*
X195381960Y-156147242D01*
X195413203Y-156145707D01*
X196050703Y-156145707D01*
X196081946Y-156147242D01*
X196081946Y-156147242D01*
G37*
D13*
X195731953Y-156820707D03*
G04 #@! TD*
D14*
G04 #@! TO.C,J2*
X192099697Y-179718271D03*
D15*
X192099697Y-179718271D02*
X192099697Y-179718271D01*
D14*
X192169453Y-178720707D03*
D12*
G36*
X191502378Y-179300587D02*
X191589573Y-178053632D01*
X192836528Y-178140827D01*
X192749333Y-179387782D01*
X191502378Y-179300587D01*
X191502378Y-179300587D01*
G37*
G04 #@! TD*
D16*
G04 #@! TO.C,JP1*
X192619453Y-159820707D03*
D12*
G36*
X192613341Y-160770105D02*
X192594919Y-160770105D01*
X192575313Y-160769142D01*
X192526482Y-160764332D01*
X192507073Y-160761453D01*
X192458948Y-160751881D01*
X192439905Y-160747111D01*
X192392950Y-160732867D01*
X192374473Y-160726256D01*
X192329140Y-160707479D01*
X192311392Y-160699084D01*
X192268119Y-160675953D01*
X192251291Y-160665867D01*
X192210492Y-160638607D01*
X192194723Y-160626912D01*
X192156794Y-160595784D01*
X192142253Y-160582604D01*
X192107556Y-160547907D01*
X192094376Y-160533366D01*
X192063248Y-160495437D01*
X192051553Y-160479668D01*
X192024293Y-160438869D01*
X192014207Y-160422041D01*
X191991076Y-160378768D01*
X191982681Y-160361020D01*
X191963904Y-160315687D01*
X191957293Y-160297210D01*
X191943049Y-160250255D01*
X191938279Y-160231212D01*
X191928707Y-160183087D01*
X191925828Y-160163678D01*
X191921018Y-160114847D01*
X191920055Y-160095241D01*
X191920055Y-160076819D01*
X191919453Y-160070707D01*
X191919453Y-159570707D01*
X191920055Y-159564595D01*
X191920055Y-159546173D01*
X191921018Y-159526567D01*
X191925828Y-159477736D01*
X191928707Y-159458327D01*
X191938279Y-159410202D01*
X191943049Y-159391159D01*
X191957293Y-159344204D01*
X191963904Y-159325727D01*
X191982681Y-159280394D01*
X191991076Y-159262646D01*
X192014207Y-159219373D01*
X192024293Y-159202545D01*
X192051553Y-159161746D01*
X192063248Y-159145977D01*
X192094376Y-159108048D01*
X192107556Y-159093507D01*
X192142253Y-159058810D01*
X192156794Y-159045630D01*
X192194723Y-159014502D01*
X192210492Y-159002807D01*
X192251291Y-158975547D01*
X192268119Y-158965461D01*
X192311392Y-158942330D01*
X192329140Y-158933935D01*
X192374473Y-158915158D01*
X192392950Y-158908547D01*
X192439905Y-158894303D01*
X192458948Y-158889533D01*
X192507073Y-158879961D01*
X192526482Y-158877082D01*
X192575313Y-158872272D01*
X192594919Y-158871309D01*
X192613341Y-158871309D01*
X192619453Y-158870707D01*
X193119453Y-158870707D01*
X193158471Y-158874550D01*
X193195990Y-158885931D01*
X193230567Y-158904413D01*
X193260874Y-158929286D01*
X193285747Y-158959593D01*
X193304229Y-158994170D01*
X193315610Y-159031689D01*
X193319453Y-159070707D01*
X193319453Y-160570707D01*
X193315610Y-160609725D01*
X193304229Y-160647244D01*
X193285747Y-160681821D01*
X193260874Y-160712128D01*
X193230567Y-160737001D01*
X193195990Y-160755483D01*
X193158471Y-160766864D01*
X193119453Y-160770707D01*
X192619453Y-160770707D01*
X192613341Y-160770105D01*
X192613341Y-160770105D01*
G37*
D16*
X193919453Y-159820707D03*
D12*
G36*
X193380435Y-160766864D02*
X193342916Y-160755483D01*
X193308339Y-160737001D01*
X193278032Y-160712128D01*
X193253159Y-160681821D01*
X193234677Y-160647244D01*
X193223296Y-160609725D01*
X193219453Y-160570707D01*
X193219453Y-159070707D01*
X193223296Y-159031689D01*
X193234677Y-158994170D01*
X193253159Y-158959593D01*
X193278032Y-158929286D01*
X193308339Y-158904413D01*
X193342916Y-158885931D01*
X193380435Y-158874550D01*
X193419453Y-158870707D01*
X193919453Y-158870707D01*
X193925565Y-158871309D01*
X193943987Y-158871309D01*
X193963593Y-158872272D01*
X194012424Y-158877082D01*
X194031833Y-158879961D01*
X194079958Y-158889533D01*
X194099001Y-158894303D01*
X194145956Y-158908547D01*
X194164433Y-158915158D01*
X194209766Y-158933935D01*
X194227514Y-158942330D01*
X194270787Y-158965461D01*
X194287615Y-158975547D01*
X194328414Y-159002807D01*
X194344183Y-159014502D01*
X194382112Y-159045630D01*
X194396653Y-159058810D01*
X194431350Y-159093507D01*
X194444530Y-159108048D01*
X194475658Y-159145977D01*
X194487353Y-159161746D01*
X194514613Y-159202545D01*
X194524699Y-159219373D01*
X194547830Y-159262646D01*
X194556225Y-159280394D01*
X194575002Y-159325727D01*
X194581613Y-159344204D01*
X194595857Y-159391159D01*
X194600627Y-159410202D01*
X194610199Y-159458327D01*
X194613078Y-159477736D01*
X194617888Y-159526567D01*
X194618851Y-159546173D01*
X194618851Y-159564595D01*
X194619453Y-159570707D01*
X194619453Y-160070707D01*
X194618851Y-160076819D01*
X194618851Y-160095241D01*
X194617888Y-160114847D01*
X194613078Y-160163678D01*
X194610199Y-160183087D01*
X194600627Y-160231212D01*
X194595857Y-160250255D01*
X194581613Y-160297210D01*
X194575002Y-160315687D01*
X194556225Y-160361020D01*
X194547830Y-160378768D01*
X194524699Y-160422041D01*
X194514613Y-160438869D01*
X194487353Y-160479668D01*
X194475658Y-160495437D01*
X194444530Y-160533366D01*
X194431350Y-160547907D01*
X194396653Y-160582604D01*
X194382112Y-160595784D01*
X194344183Y-160626912D01*
X194328414Y-160638607D01*
X194287615Y-160665867D01*
X194270787Y-160675953D01*
X194227514Y-160699084D01*
X194209766Y-160707479D01*
X194164433Y-160726256D01*
X194145956Y-160732867D01*
X194099001Y-160747111D01*
X194079958Y-160751881D01*
X194031833Y-160761453D01*
X194012424Y-160764332D01*
X193963593Y-160769142D01*
X193943987Y-160770105D01*
X193925565Y-160770105D01*
X193919453Y-160770707D01*
X193419453Y-160770707D01*
X193380435Y-160766864D01*
X193380435Y-160766864D01*
G37*
G04 #@! TD*
G04 #@! TO.C,L3*
G36*
X196895257Y-165092343D02*
X197769211Y-165153456D01*
X197802045Y-165157378D01*
X197834336Y-165164500D01*
X197865774Y-165174753D01*
X197896055Y-165188038D01*
X197924889Y-165204226D01*
X197951996Y-165223163D01*
X197977117Y-165244666D01*
X198000010Y-165268528D01*
X198020453Y-165294519D01*
X198038251Y-165322388D01*
X198053231Y-165351867D01*
X198065249Y-165382673D01*
X198074190Y-165414509D01*
X198079968Y-165447068D01*
X198082526Y-165480036D01*
X198081841Y-165513096D01*
X198003289Y-166636441D01*
X197999367Y-166669275D01*
X197992245Y-166701566D01*
X197981992Y-166733004D01*
X197968707Y-166763285D01*
X197952519Y-166792118D01*
X197933582Y-166819226D01*
X197912079Y-166844347D01*
X197888217Y-166867240D01*
X197862226Y-166887683D01*
X197834357Y-166905481D01*
X197804878Y-166920461D01*
X197774072Y-166932479D01*
X197742236Y-166941420D01*
X197709677Y-166947198D01*
X197676709Y-166949756D01*
X197643649Y-166949071D01*
X196769695Y-166887958D01*
X196736861Y-166884036D01*
X196704570Y-166876914D01*
X196673132Y-166866661D01*
X196642851Y-166853376D01*
X196614017Y-166837188D01*
X196586910Y-166818251D01*
X196561789Y-166796748D01*
X196538896Y-166772886D01*
X196518453Y-166746895D01*
X196500655Y-166719026D01*
X196485675Y-166689547D01*
X196473657Y-166658741D01*
X196464716Y-166626905D01*
X196458938Y-166594346D01*
X196456380Y-166561378D01*
X196457065Y-166528318D01*
X196535617Y-165404973D01*
X196539539Y-165372139D01*
X196546661Y-165339848D01*
X196556914Y-165308410D01*
X196570199Y-165278129D01*
X196586387Y-165249296D01*
X196605324Y-165222188D01*
X196626827Y-165197067D01*
X196650689Y-165174174D01*
X196676680Y-165153731D01*
X196704549Y-165135933D01*
X196734028Y-165120953D01*
X196764834Y-165108935D01*
X196796670Y-165099994D01*
X196829229Y-165094216D01*
X196862197Y-165091658D01*
X196895257Y-165092343D01*
X196895257Y-165092343D01*
G37*
D17*
X197269453Y-166020707D03*
D12*
G36*
X198940263Y-165235343D02*
X199814217Y-165296456D01*
X199847051Y-165300378D01*
X199879342Y-165307500D01*
X199910780Y-165317753D01*
X199941061Y-165331038D01*
X199969895Y-165347226D01*
X199997002Y-165366163D01*
X200022123Y-165387666D01*
X200045016Y-165411528D01*
X200065459Y-165437519D01*
X200083257Y-165465388D01*
X200098237Y-165494867D01*
X200110255Y-165525673D01*
X200119196Y-165557509D01*
X200124974Y-165590068D01*
X200127532Y-165623036D01*
X200126847Y-165656096D01*
X200048295Y-166779441D01*
X200044373Y-166812275D01*
X200037251Y-166844566D01*
X200026998Y-166876004D01*
X200013713Y-166906285D01*
X199997525Y-166935118D01*
X199978588Y-166962226D01*
X199957085Y-166987347D01*
X199933223Y-167010240D01*
X199907232Y-167030683D01*
X199879363Y-167048481D01*
X199849884Y-167063461D01*
X199819078Y-167075479D01*
X199787242Y-167084420D01*
X199754683Y-167090198D01*
X199721715Y-167092756D01*
X199688655Y-167092071D01*
X198814701Y-167030958D01*
X198781867Y-167027036D01*
X198749576Y-167019914D01*
X198718138Y-167009661D01*
X198687857Y-166996376D01*
X198659023Y-166980188D01*
X198631916Y-166961251D01*
X198606795Y-166939748D01*
X198583902Y-166915886D01*
X198563459Y-166889895D01*
X198545661Y-166862026D01*
X198530681Y-166832547D01*
X198518663Y-166801741D01*
X198509722Y-166769905D01*
X198503944Y-166737346D01*
X198501386Y-166704378D01*
X198502071Y-166671318D01*
X198580623Y-165547973D01*
X198584545Y-165515139D01*
X198591667Y-165482848D01*
X198601920Y-165451410D01*
X198615205Y-165421129D01*
X198631393Y-165392296D01*
X198650330Y-165365188D01*
X198671833Y-165340067D01*
X198695695Y-165317174D01*
X198721686Y-165296731D01*
X198749555Y-165278933D01*
X198779034Y-165263953D01*
X198809840Y-165251935D01*
X198841676Y-165242994D01*
X198874235Y-165237216D01*
X198907203Y-165234658D01*
X198940263Y-165235343D01*
X198940263Y-165235343D01*
G37*
D17*
X199314459Y-166163707D03*
G04 #@! TD*
D18*
G04 #@! TO.C,MUX1*
X200924245Y-136012982D03*
D12*
G36*
X200081184Y-135402758D02*
X200817306Y-134977758D01*
X201767306Y-136623206D01*
X201031184Y-137048206D01*
X200081184Y-135402758D01*
X200081184Y-135402758D01*
G37*
D18*
X201487162Y-135687982D03*
D12*
G36*
X200644101Y-135077758D02*
X201380223Y-134652758D01*
X202330223Y-136298206D01*
X201594101Y-136723206D01*
X200644101Y-135077758D01*
X200644101Y-135077758D01*
G37*
D18*
X202050078Y-135362982D03*
D12*
G36*
X201207017Y-134752758D02*
X201943139Y-134327758D01*
X202893139Y-135973206D01*
X202157017Y-136398206D01*
X201207017Y-134752758D01*
X201207017Y-134752758D01*
G37*
D18*
X202612995Y-135037982D03*
D12*
G36*
X201769934Y-134427758D02*
X202506056Y-134002758D01*
X203456056Y-135648206D01*
X202719934Y-136073206D01*
X201769934Y-134427758D01*
X201769934Y-134427758D01*
G37*
D18*
X203175911Y-134712982D03*
D12*
G36*
X202332850Y-134102758D02*
X203068972Y-133677758D01*
X204018972Y-135323206D01*
X203282850Y-135748206D01*
X202332850Y-134102758D01*
X202332850Y-134102758D01*
G37*
D18*
X203738828Y-134387982D03*
D12*
G36*
X202895767Y-133777758D02*
X203631889Y-133352758D01*
X204581889Y-134998206D01*
X203845767Y-135423206D01*
X202895767Y-133777758D01*
X202895767Y-133777758D01*
G37*
D18*
X204301744Y-134062982D03*
D12*
G36*
X203458683Y-133452758D02*
X204194805Y-133027758D01*
X205144805Y-134673206D01*
X204408683Y-135098206D01*
X203458683Y-133452758D01*
X203458683Y-133452758D01*
G37*
D18*
X204864661Y-133737982D03*
D12*
G36*
X204021600Y-133127758D02*
X204757722Y-132702758D01*
X205707722Y-134348206D01*
X204971600Y-134773206D01*
X204021600Y-133127758D01*
X204021600Y-133127758D01*
G37*
D18*
X201914661Y-128628432D03*
D12*
G36*
X201071600Y-128018208D02*
X201807722Y-127593208D01*
X202757722Y-129238656D01*
X202021600Y-129663656D01*
X201071600Y-128018208D01*
X201071600Y-128018208D01*
G37*
D18*
X201351744Y-128953432D03*
D12*
G36*
X200508683Y-128343208D02*
X201244805Y-127918208D01*
X202194805Y-129563656D01*
X201458683Y-129988656D01*
X200508683Y-128343208D01*
X200508683Y-128343208D01*
G37*
D18*
X200788828Y-129278432D03*
D12*
G36*
X199945767Y-128668208D02*
X200681889Y-128243208D01*
X201631889Y-129888656D01*
X200895767Y-130313656D01*
X199945767Y-128668208D01*
X199945767Y-128668208D01*
G37*
D18*
X200225911Y-129603432D03*
D12*
G36*
X199382850Y-128993208D02*
X200118972Y-128568208D01*
X201068972Y-130213656D01*
X200332850Y-130638656D01*
X199382850Y-128993208D01*
X199382850Y-128993208D01*
G37*
D18*
X199662995Y-129928432D03*
D12*
G36*
X198819934Y-129318208D02*
X199556056Y-128893208D01*
X200506056Y-130538656D01*
X199769934Y-130963656D01*
X198819934Y-129318208D01*
X198819934Y-129318208D01*
G37*
D18*
X199100078Y-130253432D03*
D12*
G36*
X198257017Y-129643208D02*
X198993139Y-129218208D01*
X199943139Y-130863656D01*
X199207017Y-131288656D01*
X198257017Y-129643208D01*
X198257017Y-129643208D01*
G37*
D18*
X198537162Y-130578432D03*
D12*
G36*
X197694101Y-129968208D02*
X198430223Y-129543208D01*
X199380223Y-131188656D01*
X198644101Y-131613656D01*
X197694101Y-129968208D01*
X197694101Y-129968208D01*
G37*
D18*
X197974245Y-130903432D03*
D12*
G36*
X197131184Y-130293208D02*
X197867306Y-129868208D01*
X198817306Y-131513656D01*
X198081184Y-131938656D01*
X197131184Y-130293208D01*
X197131184Y-130293208D01*
G37*
G04 #@! TD*
D19*
G04 #@! TO.C,MUX2*
X208969453Y-152395707D03*
X208969453Y-151745707D03*
X208969453Y-151095707D03*
X208969453Y-150445707D03*
X208969453Y-149795707D03*
X208969453Y-149145707D03*
X208969453Y-148495707D03*
X208969453Y-147845707D03*
X203069453Y-147845707D03*
X203069453Y-148495707D03*
X203069453Y-149145707D03*
X203069453Y-149795707D03*
X203069453Y-150445707D03*
X203069453Y-151095707D03*
X203069453Y-151745707D03*
X203069453Y-152395707D03*
G04 #@! TD*
D20*
G04 #@! TO.C,MUX3*
X211044453Y-162020707D03*
X211694453Y-162020707D03*
X212344453Y-162020707D03*
X212994453Y-162020707D03*
X213644453Y-162020707D03*
X214294453Y-162020707D03*
X214944453Y-162020707D03*
X215594453Y-162020707D03*
X215594453Y-156120707D03*
X214944453Y-156120707D03*
X214294453Y-156120707D03*
X213644453Y-156120707D03*
X212994453Y-156120707D03*
X212344453Y-156120707D03*
X211694453Y-156120707D03*
X211044453Y-156120707D03*
G04 #@! TD*
D18*
G04 #@! TO.C,MUX4*
X215016213Y-175376710D03*
D12*
G36*
X215090663Y-176414777D02*
X214291925Y-176124059D01*
X214941763Y-174338643D01*
X215740501Y-174629361D01*
X215090663Y-176414777D01*
X215090663Y-176414777D01*
G37*
D18*
X214405413Y-175154397D03*
D12*
G36*
X214479863Y-176192464D02*
X213681125Y-175901746D01*
X214330963Y-174116330D01*
X215129701Y-174407048D01*
X214479863Y-176192464D01*
X214479863Y-176192464D01*
G37*
D18*
X213794613Y-174932083D03*
D12*
G36*
X213869063Y-175970150D02*
X213070325Y-175679432D01*
X213720163Y-173894016D01*
X214518901Y-174184734D01*
X213869063Y-175970150D01*
X213869063Y-175970150D01*
G37*
D18*
X213183813Y-174709770D03*
D12*
G36*
X213258263Y-175747837D02*
X212459525Y-175457119D01*
X213109363Y-173671703D01*
X213908101Y-173962421D01*
X213258263Y-175747837D01*
X213258263Y-175747837D01*
G37*
D18*
X212573012Y-174487457D03*
D12*
G36*
X212647462Y-175525524D02*
X211848724Y-175234806D01*
X212498562Y-173449390D01*
X213297300Y-173740108D01*
X212647462Y-175525524D01*
X212647462Y-175525524D01*
G37*
D18*
X211962212Y-174265144D03*
D12*
G36*
X212036662Y-175303211D02*
X211237924Y-175012493D01*
X211887762Y-173227077D01*
X212686500Y-173517795D01*
X212036662Y-175303211D01*
X212036662Y-175303211D01*
G37*
D18*
X211351412Y-174042831D03*
D12*
G36*
X211425862Y-175080898D02*
X210627124Y-174790180D01*
X211276962Y-173004764D01*
X212075700Y-173295482D01*
X211425862Y-175080898D01*
X211425862Y-175080898D01*
G37*
D18*
X210740612Y-173820518D03*
D12*
G36*
X210815062Y-174858585D02*
X210016324Y-174567867D01*
X210666162Y-172782451D01*
X211464900Y-173073169D01*
X210815062Y-174858585D01*
X210815062Y-174858585D01*
G37*
D18*
X208722693Y-179364704D03*
D12*
G36*
X208797143Y-180402771D02*
X207998405Y-180112053D01*
X208648243Y-178326637D01*
X209446981Y-178617355D01*
X208797143Y-180402771D01*
X208797143Y-180402771D01*
G37*
D18*
X209333493Y-179587017D03*
D12*
G36*
X209407943Y-180625084D02*
X208609205Y-180334366D01*
X209259043Y-178548950D01*
X210057781Y-178839668D01*
X209407943Y-180625084D01*
X209407943Y-180625084D01*
G37*
D18*
X209944293Y-179809331D03*
D12*
G36*
X210018743Y-180847398D02*
X209220005Y-180556680D01*
X209869843Y-178771264D01*
X210668581Y-179061982D01*
X210018743Y-180847398D01*
X210018743Y-180847398D01*
G37*
D18*
X210555093Y-180031644D03*
D12*
G36*
X210629543Y-181069711D02*
X209830805Y-180778993D01*
X210480643Y-178993577D01*
X211279381Y-179284295D01*
X210629543Y-181069711D01*
X210629543Y-181069711D01*
G37*
D18*
X211165894Y-180253957D03*
D12*
G36*
X211240344Y-181292024D02*
X210441606Y-181001306D01*
X211091444Y-179215890D01*
X211890182Y-179506608D01*
X211240344Y-181292024D01*
X211240344Y-181292024D01*
G37*
D18*
X211776694Y-180476270D03*
D12*
G36*
X211851144Y-181514337D02*
X211052406Y-181223619D01*
X211702244Y-179438203D01*
X212500982Y-179728921D01*
X211851144Y-181514337D01*
X211851144Y-181514337D01*
G37*
D18*
X212387494Y-180698583D03*
D12*
G36*
X212461944Y-181736650D02*
X211663206Y-181445932D01*
X212313044Y-179660516D01*
X213111782Y-179951234D01*
X212461944Y-181736650D01*
X212461944Y-181736650D01*
G37*
D18*
X212998294Y-180920896D03*
D12*
G36*
X213072744Y-181958963D02*
X212274006Y-181668245D01*
X212923844Y-179882829D01*
X213722582Y-180173547D01*
X213072744Y-181958963D01*
X213072744Y-181958963D01*
G37*
G04 #@! TD*
D21*
G04 #@! TO.C,Q2*
X192219453Y-151220707D03*
X191269453Y-153220707D03*
X193169453Y-153220707D03*
G04 #@! TD*
D12*
G04 #@! TO.C,R1*
G36*
X202168147Y-175564049D02*
X202804094Y-175608519D01*
X202835154Y-175612230D01*
X202865700Y-175618967D01*
X202895439Y-175628666D01*
X202924085Y-175641233D01*
X202951360Y-175656547D01*
X202977003Y-175674461D01*
X203000767Y-175694802D01*
X203022423Y-175717374D01*
X203041762Y-175741961D01*
X203058597Y-175768324D01*
X203072768Y-175796211D01*
X203084137Y-175825352D01*
X203092595Y-175855468D01*
X203098061Y-175886267D01*
X203100481Y-175917454D01*
X203099833Y-175948728D01*
X203050132Y-176659492D01*
X203046421Y-176690551D01*
X203039684Y-176721098D01*
X203029985Y-176750837D01*
X203017418Y-176779482D01*
X203002104Y-176806758D01*
X202984190Y-176832401D01*
X202963849Y-176856165D01*
X202941277Y-176877821D01*
X202916691Y-176897159D01*
X202890327Y-176913995D01*
X202862440Y-176928166D01*
X202833299Y-176939535D01*
X202803184Y-176947993D01*
X202772384Y-176953459D01*
X202741197Y-176955879D01*
X202709923Y-176955231D01*
X202073976Y-176910761D01*
X202042916Y-176907050D01*
X202012370Y-176900313D01*
X201982631Y-176890614D01*
X201953985Y-176878047D01*
X201926710Y-176862733D01*
X201901067Y-176844819D01*
X201877303Y-176824478D01*
X201855647Y-176801906D01*
X201836308Y-176777319D01*
X201819473Y-176750956D01*
X201805302Y-176723069D01*
X201793933Y-176693928D01*
X201785475Y-176663812D01*
X201780009Y-176633013D01*
X201777589Y-176601826D01*
X201778237Y-176570552D01*
X201827938Y-175859788D01*
X201831649Y-175828729D01*
X201838386Y-175798182D01*
X201848085Y-175768443D01*
X201860652Y-175739798D01*
X201875966Y-175712522D01*
X201893880Y-175686879D01*
X201914221Y-175663115D01*
X201936793Y-175641459D01*
X201961379Y-175622121D01*
X201987743Y-175605285D01*
X202015630Y-175591114D01*
X202044771Y-175579745D01*
X202074886Y-175571287D01*
X202105686Y-175565821D01*
X202136873Y-175563401D01*
X202168147Y-175564049D01*
X202168147Y-175564049D01*
G37*
D13*
X202439035Y-176259640D03*
D12*
G36*
X200596983Y-175454183D02*
X201232930Y-175498653D01*
X201263990Y-175502364D01*
X201294536Y-175509101D01*
X201324275Y-175518800D01*
X201352921Y-175531367D01*
X201380196Y-175546681D01*
X201405839Y-175564595D01*
X201429603Y-175584936D01*
X201451259Y-175607508D01*
X201470598Y-175632095D01*
X201487433Y-175658458D01*
X201501604Y-175686345D01*
X201512973Y-175715486D01*
X201521431Y-175745602D01*
X201526897Y-175776401D01*
X201529317Y-175807588D01*
X201528669Y-175838862D01*
X201478968Y-176549626D01*
X201475257Y-176580685D01*
X201468520Y-176611232D01*
X201458821Y-176640971D01*
X201446254Y-176669616D01*
X201430940Y-176696892D01*
X201413026Y-176722535D01*
X201392685Y-176746299D01*
X201370113Y-176767955D01*
X201345527Y-176787293D01*
X201319163Y-176804129D01*
X201291276Y-176818300D01*
X201262135Y-176829669D01*
X201232020Y-176838127D01*
X201201220Y-176843593D01*
X201170033Y-176846013D01*
X201138759Y-176845365D01*
X200502812Y-176800895D01*
X200471752Y-176797184D01*
X200441206Y-176790447D01*
X200411467Y-176780748D01*
X200382821Y-176768181D01*
X200355546Y-176752867D01*
X200329903Y-176734953D01*
X200306139Y-176714612D01*
X200284483Y-176692040D01*
X200265144Y-176667453D01*
X200248309Y-176641090D01*
X200234138Y-176613203D01*
X200222769Y-176584062D01*
X200214311Y-176553946D01*
X200208845Y-176523147D01*
X200206425Y-176491960D01*
X200207073Y-176460686D01*
X200256774Y-175749922D01*
X200260485Y-175718863D01*
X200267222Y-175688316D01*
X200276921Y-175658577D01*
X200289488Y-175629932D01*
X200304802Y-175602656D01*
X200322716Y-175577013D01*
X200343057Y-175553249D01*
X200365629Y-175531593D01*
X200390215Y-175512255D01*
X200416579Y-175495419D01*
X200444466Y-175481248D01*
X200473607Y-175469879D01*
X200503722Y-175461421D01*
X200534522Y-175455955D01*
X200565709Y-175453535D01*
X200596983Y-175454183D01*
X200596983Y-175454183D01*
G37*
D13*
X200867871Y-176149774D03*
G04 #@! TD*
D12*
G04 #@! TO.C,R2*
G36*
X197744446Y-146847242D02*
X197775388Y-146851832D01*
X197805731Y-146859432D01*
X197835183Y-146869970D01*
X197863461Y-146883345D01*
X197890291Y-146899426D01*
X197915416Y-146918060D01*
X197938593Y-146939067D01*
X197959600Y-146962244D01*
X197978234Y-146987369D01*
X197994315Y-147014199D01*
X198007690Y-147042477D01*
X198018228Y-147071929D01*
X198025828Y-147102272D01*
X198030418Y-147133214D01*
X198031953Y-147164457D01*
X198031953Y-147876957D01*
X198030418Y-147908200D01*
X198025828Y-147939142D01*
X198018228Y-147969485D01*
X198007690Y-147998937D01*
X197994315Y-148027215D01*
X197978234Y-148054045D01*
X197959600Y-148079170D01*
X197938593Y-148102347D01*
X197915416Y-148123354D01*
X197890291Y-148141988D01*
X197863461Y-148158069D01*
X197835183Y-148171444D01*
X197805731Y-148181982D01*
X197775388Y-148189582D01*
X197744446Y-148194172D01*
X197713203Y-148195707D01*
X197075703Y-148195707D01*
X197044460Y-148194172D01*
X197013518Y-148189582D01*
X196983175Y-148181982D01*
X196953723Y-148171444D01*
X196925445Y-148158069D01*
X196898615Y-148141988D01*
X196873490Y-148123354D01*
X196850313Y-148102347D01*
X196829306Y-148079170D01*
X196810672Y-148054045D01*
X196794591Y-148027215D01*
X196781216Y-147998937D01*
X196770678Y-147969485D01*
X196763078Y-147939142D01*
X196758488Y-147908200D01*
X196756953Y-147876957D01*
X196756953Y-147164457D01*
X196758488Y-147133214D01*
X196763078Y-147102272D01*
X196770678Y-147071929D01*
X196781216Y-147042477D01*
X196794591Y-147014199D01*
X196810672Y-146987369D01*
X196829306Y-146962244D01*
X196850313Y-146939067D01*
X196873490Y-146918060D01*
X196898615Y-146899426D01*
X196925445Y-146883345D01*
X196953723Y-146869970D01*
X196983175Y-146859432D01*
X197013518Y-146851832D01*
X197044460Y-146847242D01*
X197075703Y-146845707D01*
X197713203Y-146845707D01*
X197744446Y-146847242D01*
X197744446Y-146847242D01*
G37*
D13*
X197394453Y-147520707D03*
D12*
G36*
X196169446Y-146847242D02*
X196200388Y-146851832D01*
X196230731Y-146859432D01*
X196260183Y-146869970D01*
X196288461Y-146883345D01*
X196315291Y-146899426D01*
X196340416Y-146918060D01*
X196363593Y-146939067D01*
X196384600Y-146962244D01*
X196403234Y-146987369D01*
X196419315Y-147014199D01*
X196432690Y-147042477D01*
X196443228Y-147071929D01*
X196450828Y-147102272D01*
X196455418Y-147133214D01*
X196456953Y-147164457D01*
X196456953Y-147876957D01*
X196455418Y-147908200D01*
X196450828Y-147939142D01*
X196443228Y-147969485D01*
X196432690Y-147998937D01*
X196419315Y-148027215D01*
X196403234Y-148054045D01*
X196384600Y-148079170D01*
X196363593Y-148102347D01*
X196340416Y-148123354D01*
X196315291Y-148141988D01*
X196288461Y-148158069D01*
X196260183Y-148171444D01*
X196230731Y-148181982D01*
X196200388Y-148189582D01*
X196169446Y-148194172D01*
X196138203Y-148195707D01*
X195500703Y-148195707D01*
X195469460Y-148194172D01*
X195438518Y-148189582D01*
X195408175Y-148181982D01*
X195378723Y-148171444D01*
X195350445Y-148158069D01*
X195323615Y-148141988D01*
X195298490Y-148123354D01*
X195275313Y-148102347D01*
X195254306Y-148079170D01*
X195235672Y-148054045D01*
X195219591Y-148027215D01*
X195206216Y-147998937D01*
X195195678Y-147969485D01*
X195188078Y-147939142D01*
X195183488Y-147908200D01*
X195181953Y-147876957D01*
X195181953Y-147164457D01*
X195183488Y-147133214D01*
X195188078Y-147102272D01*
X195195678Y-147071929D01*
X195206216Y-147042477D01*
X195219591Y-147014199D01*
X195235672Y-146987369D01*
X195254306Y-146962244D01*
X195275313Y-146939067D01*
X195298490Y-146918060D01*
X195323615Y-146899426D01*
X195350445Y-146883345D01*
X195378723Y-146869970D01*
X195408175Y-146859432D01*
X195438518Y-146851832D01*
X195469460Y-146847242D01*
X195500703Y-146845707D01*
X196138203Y-146845707D01*
X196169446Y-146847242D01*
X196169446Y-146847242D01*
G37*
D13*
X195819453Y-147520707D03*
G04 #@! TD*
D12*
G04 #@! TO.C,R3*
G36*
X197756946Y-148447242D02*
X197787888Y-148451832D01*
X197818231Y-148459432D01*
X197847683Y-148469970D01*
X197875961Y-148483345D01*
X197902791Y-148499426D01*
X197927916Y-148518060D01*
X197951093Y-148539067D01*
X197972100Y-148562244D01*
X197990734Y-148587369D01*
X198006815Y-148614199D01*
X198020190Y-148642477D01*
X198030728Y-148671929D01*
X198038328Y-148702272D01*
X198042918Y-148733214D01*
X198044453Y-148764457D01*
X198044453Y-149476957D01*
X198042918Y-149508200D01*
X198038328Y-149539142D01*
X198030728Y-149569485D01*
X198020190Y-149598937D01*
X198006815Y-149627215D01*
X197990734Y-149654045D01*
X197972100Y-149679170D01*
X197951093Y-149702347D01*
X197927916Y-149723354D01*
X197902791Y-149741988D01*
X197875961Y-149758069D01*
X197847683Y-149771444D01*
X197818231Y-149781982D01*
X197787888Y-149789582D01*
X197756946Y-149794172D01*
X197725703Y-149795707D01*
X197088203Y-149795707D01*
X197056960Y-149794172D01*
X197026018Y-149789582D01*
X196995675Y-149781982D01*
X196966223Y-149771444D01*
X196937945Y-149758069D01*
X196911115Y-149741988D01*
X196885990Y-149723354D01*
X196862813Y-149702347D01*
X196841806Y-149679170D01*
X196823172Y-149654045D01*
X196807091Y-149627215D01*
X196793716Y-149598937D01*
X196783178Y-149569485D01*
X196775578Y-149539142D01*
X196770988Y-149508200D01*
X196769453Y-149476957D01*
X196769453Y-148764457D01*
X196770988Y-148733214D01*
X196775578Y-148702272D01*
X196783178Y-148671929D01*
X196793716Y-148642477D01*
X196807091Y-148614199D01*
X196823172Y-148587369D01*
X196841806Y-148562244D01*
X196862813Y-148539067D01*
X196885990Y-148518060D01*
X196911115Y-148499426D01*
X196937945Y-148483345D01*
X196966223Y-148469970D01*
X196995675Y-148459432D01*
X197026018Y-148451832D01*
X197056960Y-148447242D01*
X197088203Y-148445707D01*
X197725703Y-148445707D01*
X197756946Y-148447242D01*
X197756946Y-148447242D01*
G37*
D13*
X197406953Y-149120707D03*
D12*
G36*
X196181946Y-148447242D02*
X196212888Y-148451832D01*
X196243231Y-148459432D01*
X196272683Y-148469970D01*
X196300961Y-148483345D01*
X196327791Y-148499426D01*
X196352916Y-148518060D01*
X196376093Y-148539067D01*
X196397100Y-148562244D01*
X196415734Y-148587369D01*
X196431815Y-148614199D01*
X196445190Y-148642477D01*
X196455728Y-148671929D01*
X196463328Y-148702272D01*
X196467918Y-148733214D01*
X196469453Y-148764457D01*
X196469453Y-149476957D01*
X196467918Y-149508200D01*
X196463328Y-149539142D01*
X196455728Y-149569485D01*
X196445190Y-149598937D01*
X196431815Y-149627215D01*
X196415734Y-149654045D01*
X196397100Y-149679170D01*
X196376093Y-149702347D01*
X196352916Y-149723354D01*
X196327791Y-149741988D01*
X196300961Y-149758069D01*
X196272683Y-149771444D01*
X196243231Y-149781982D01*
X196212888Y-149789582D01*
X196181946Y-149794172D01*
X196150703Y-149795707D01*
X195513203Y-149795707D01*
X195481960Y-149794172D01*
X195451018Y-149789582D01*
X195420675Y-149781982D01*
X195391223Y-149771444D01*
X195362945Y-149758069D01*
X195336115Y-149741988D01*
X195310990Y-149723354D01*
X195287813Y-149702347D01*
X195266806Y-149679170D01*
X195248172Y-149654045D01*
X195232091Y-149627215D01*
X195218716Y-149598937D01*
X195208178Y-149569485D01*
X195200578Y-149539142D01*
X195195988Y-149508200D01*
X195194453Y-149476957D01*
X195194453Y-148764457D01*
X195195988Y-148733214D01*
X195200578Y-148702272D01*
X195208178Y-148671929D01*
X195218716Y-148642477D01*
X195232091Y-148614199D01*
X195248172Y-148587369D01*
X195266806Y-148562244D01*
X195287813Y-148539067D01*
X195310990Y-148518060D01*
X195336115Y-148499426D01*
X195362945Y-148483345D01*
X195391223Y-148469970D01*
X195420675Y-148459432D01*
X195451018Y-148451832D01*
X195481960Y-148447242D01*
X195513203Y-148445707D01*
X196150703Y-148445707D01*
X196181946Y-148447242D01*
X196181946Y-148447242D01*
G37*
D13*
X195831953Y-149120707D03*
G04 #@! TD*
D12*
G04 #@! TO.C,R4*
G36*
X193341946Y-166895242D02*
X193372888Y-166899832D01*
X193403231Y-166907432D01*
X193432683Y-166917970D01*
X193460961Y-166931345D01*
X193487791Y-166947426D01*
X193512916Y-166966060D01*
X193536093Y-166987067D01*
X193557100Y-167010244D01*
X193575734Y-167035369D01*
X193591815Y-167062199D01*
X193605190Y-167090477D01*
X193615728Y-167119929D01*
X193623328Y-167150272D01*
X193627918Y-167181214D01*
X193629453Y-167212457D01*
X193629453Y-167924957D01*
X193627918Y-167956200D01*
X193623328Y-167987142D01*
X193615728Y-168017485D01*
X193605190Y-168046937D01*
X193591815Y-168075215D01*
X193575734Y-168102045D01*
X193557100Y-168127170D01*
X193536093Y-168150347D01*
X193512916Y-168171354D01*
X193487791Y-168189988D01*
X193460961Y-168206069D01*
X193432683Y-168219444D01*
X193403231Y-168229982D01*
X193372888Y-168237582D01*
X193341946Y-168242172D01*
X193310703Y-168243707D01*
X192673203Y-168243707D01*
X192641960Y-168242172D01*
X192611018Y-168237582D01*
X192580675Y-168229982D01*
X192551223Y-168219444D01*
X192522945Y-168206069D01*
X192496115Y-168189988D01*
X192470990Y-168171354D01*
X192447813Y-168150347D01*
X192426806Y-168127170D01*
X192408172Y-168102045D01*
X192392091Y-168075215D01*
X192378716Y-168046937D01*
X192368178Y-168017485D01*
X192360578Y-167987142D01*
X192355988Y-167956200D01*
X192354453Y-167924957D01*
X192354453Y-167212457D01*
X192355988Y-167181214D01*
X192360578Y-167150272D01*
X192368178Y-167119929D01*
X192378716Y-167090477D01*
X192392091Y-167062199D01*
X192408172Y-167035369D01*
X192426806Y-167010244D01*
X192447813Y-166987067D01*
X192470990Y-166966060D01*
X192496115Y-166947426D01*
X192522945Y-166931345D01*
X192551223Y-166917970D01*
X192580675Y-166907432D01*
X192611018Y-166899832D01*
X192641960Y-166895242D01*
X192673203Y-166893707D01*
X193310703Y-166893707D01*
X193341946Y-166895242D01*
X193341946Y-166895242D01*
G37*
D13*
X192991953Y-167568707D03*
D12*
G36*
X194916946Y-166895242D02*
X194947888Y-166899832D01*
X194978231Y-166907432D01*
X195007683Y-166917970D01*
X195035961Y-166931345D01*
X195062791Y-166947426D01*
X195087916Y-166966060D01*
X195111093Y-166987067D01*
X195132100Y-167010244D01*
X195150734Y-167035369D01*
X195166815Y-167062199D01*
X195180190Y-167090477D01*
X195190728Y-167119929D01*
X195198328Y-167150272D01*
X195202918Y-167181214D01*
X195204453Y-167212457D01*
X195204453Y-167924957D01*
X195202918Y-167956200D01*
X195198328Y-167987142D01*
X195190728Y-168017485D01*
X195180190Y-168046937D01*
X195166815Y-168075215D01*
X195150734Y-168102045D01*
X195132100Y-168127170D01*
X195111093Y-168150347D01*
X195087916Y-168171354D01*
X195062791Y-168189988D01*
X195035961Y-168206069D01*
X195007683Y-168219444D01*
X194978231Y-168229982D01*
X194947888Y-168237582D01*
X194916946Y-168242172D01*
X194885703Y-168243707D01*
X194248203Y-168243707D01*
X194216960Y-168242172D01*
X194186018Y-168237582D01*
X194155675Y-168229982D01*
X194126223Y-168219444D01*
X194097945Y-168206069D01*
X194071115Y-168189988D01*
X194045990Y-168171354D01*
X194022813Y-168150347D01*
X194001806Y-168127170D01*
X193983172Y-168102045D01*
X193967091Y-168075215D01*
X193953716Y-168046937D01*
X193943178Y-168017485D01*
X193935578Y-167987142D01*
X193930988Y-167956200D01*
X193929453Y-167924957D01*
X193929453Y-167212457D01*
X193930988Y-167181214D01*
X193935578Y-167150272D01*
X193943178Y-167119929D01*
X193953716Y-167090477D01*
X193967091Y-167062199D01*
X193983172Y-167035369D01*
X194001806Y-167010244D01*
X194022813Y-166987067D01*
X194045990Y-166966060D01*
X194071115Y-166947426D01*
X194097945Y-166931345D01*
X194126223Y-166917970D01*
X194155675Y-166907432D01*
X194186018Y-166899832D01*
X194216960Y-166895242D01*
X194248203Y-166893707D01*
X194885703Y-166893707D01*
X194916946Y-166895242D01*
X194916946Y-166895242D01*
G37*
D13*
X194566953Y-167568707D03*
G04 #@! TD*
D12*
G04 #@! TO.C,R5*
G36*
X205563474Y-186074327D02*
X206274238Y-186124028D01*
X206305297Y-186127739D01*
X206335844Y-186134476D01*
X206365583Y-186144175D01*
X206394228Y-186156742D01*
X206421504Y-186172056D01*
X206447147Y-186189970D01*
X206470911Y-186210311D01*
X206492567Y-186232883D01*
X206511905Y-186257469D01*
X206528741Y-186283833D01*
X206542912Y-186311720D01*
X206554281Y-186340861D01*
X206562739Y-186370976D01*
X206568205Y-186401776D01*
X206570625Y-186432963D01*
X206569977Y-186464237D01*
X206525507Y-187100184D01*
X206521796Y-187131244D01*
X206515059Y-187161790D01*
X206505360Y-187191529D01*
X206492793Y-187220175D01*
X206477479Y-187247450D01*
X206459565Y-187273093D01*
X206439224Y-187296857D01*
X206416652Y-187318513D01*
X206392065Y-187337852D01*
X206365702Y-187354687D01*
X206337815Y-187368858D01*
X206308674Y-187380227D01*
X206278558Y-187388685D01*
X206247759Y-187394151D01*
X206216572Y-187396571D01*
X206185298Y-187395923D01*
X205474534Y-187346222D01*
X205443475Y-187342511D01*
X205412928Y-187335774D01*
X205383189Y-187326075D01*
X205354544Y-187313508D01*
X205327268Y-187298194D01*
X205301625Y-187280280D01*
X205277861Y-187259939D01*
X205256205Y-187237367D01*
X205236867Y-187212781D01*
X205220031Y-187186417D01*
X205205860Y-187158530D01*
X205194491Y-187129389D01*
X205186033Y-187099274D01*
X205180567Y-187068474D01*
X205178147Y-187037287D01*
X205178795Y-187006013D01*
X205223265Y-186370066D01*
X205226976Y-186339006D01*
X205233713Y-186308460D01*
X205243412Y-186278721D01*
X205255979Y-186250075D01*
X205271293Y-186222800D01*
X205289207Y-186197157D01*
X205309548Y-186173393D01*
X205332120Y-186151737D01*
X205356707Y-186132398D01*
X205383070Y-186115563D01*
X205410957Y-186101392D01*
X205440098Y-186090023D01*
X205470214Y-186081565D01*
X205501013Y-186076099D01*
X205532200Y-186073679D01*
X205563474Y-186074327D01*
X205563474Y-186074327D01*
G37*
D13*
X205874386Y-186735125D03*
D12*
G36*
X205453608Y-187645491D02*
X206164372Y-187695192D01*
X206195431Y-187698903D01*
X206225978Y-187705640D01*
X206255717Y-187715339D01*
X206284362Y-187727906D01*
X206311638Y-187743220D01*
X206337281Y-187761134D01*
X206361045Y-187781475D01*
X206382701Y-187804047D01*
X206402039Y-187828633D01*
X206418875Y-187854997D01*
X206433046Y-187882884D01*
X206444415Y-187912025D01*
X206452873Y-187942140D01*
X206458339Y-187972940D01*
X206460759Y-188004127D01*
X206460111Y-188035401D01*
X206415641Y-188671348D01*
X206411930Y-188702408D01*
X206405193Y-188732954D01*
X206395494Y-188762693D01*
X206382927Y-188791339D01*
X206367613Y-188818614D01*
X206349699Y-188844257D01*
X206329358Y-188868021D01*
X206306786Y-188889677D01*
X206282199Y-188909016D01*
X206255836Y-188925851D01*
X206227949Y-188940022D01*
X206198808Y-188951391D01*
X206168692Y-188959849D01*
X206137893Y-188965315D01*
X206106706Y-188967735D01*
X206075432Y-188967087D01*
X205364668Y-188917386D01*
X205333609Y-188913675D01*
X205303062Y-188906938D01*
X205273323Y-188897239D01*
X205244678Y-188884672D01*
X205217402Y-188869358D01*
X205191759Y-188851444D01*
X205167995Y-188831103D01*
X205146339Y-188808531D01*
X205127001Y-188783945D01*
X205110165Y-188757581D01*
X205095994Y-188729694D01*
X205084625Y-188700553D01*
X205076167Y-188670438D01*
X205070701Y-188639638D01*
X205068281Y-188608451D01*
X205068929Y-188577177D01*
X205113399Y-187941230D01*
X205117110Y-187910170D01*
X205123847Y-187879624D01*
X205133546Y-187849885D01*
X205146113Y-187821239D01*
X205161427Y-187793964D01*
X205179341Y-187768321D01*
X205199682Y-187744557D01*
X205222254Y-187722901D01*
X205246841Y-187703562D01*
X205273204Y-187686727D01*
X205301091Y-187672556D01*
X205330232Y-187661187D01*
X205360348Y-187652729D01*
X205391147Y-187647263D01*
X205422334Y-187644843D01*
X205453608Y-187645491D01*
X205453608Y-187645491D01*
G37*
D13*
X205764520Y-188306289D03*
G04 #@! TD*
D12*
G04 #@! TO.C,R6*
G36*
X199344446Y-161747242D02*
X199375388Y-161751832D01*
X199405731Y-161759432D01*
X199435183Y-161769970D01*
X199463461Y-161783345D01*
X199490291Y-161799426D01*
X199515416Y-161818060D01*
X199538593Y-161839067D01*
X199559600Y-161862244D01*
X199578234Y-161887369D01*
X199594315Y-161914199D01*
X199607690Y-161942477D01*
X199618228Y-161971929D01*
X199625828Y-162002272D01*
X199630418Y-162033214D01*
X199631953Y-162064457D01*
X199631953Y-162776957D01*
X199630418Y-162808200D01*
X199625828Y-162839142D01*
X199618228Y-162869485D01*
X199607690Y-162898937D01*
X199594315Y-162927215D01*
X199578234Y-162954045D01*
X199559600Y-162979170D01*
X199538593Y-163002347D01*
X199515416Y-163023354D01*
X199490291Y-163041988D01*
X199463461Y-163058069D01*
X199435183Y-163071444D01*
X199405731Y-163081982D01*
X199375388Y-163089582D01*
X199344446Y-163094172D01*
X199313203Y-163095707D01*
X198675703Y-163095707D01*
X198644460Y-163094172D01*
X198613518Y-163089582D01*
X198583175Y-163081982D01*
X198553723Y-163071444D01*
X198525445Y-163058069D01*
X198498615Y-163041988D01*
X198473490Y-163023354D01*
X198450313Y-163002347D01*
X198429306Y-162979170D01*
X198410672Y-162954045D01*
X198394591Y-162927215D01*
X198381216Y-162898937D01*
X198370678Y-162869485D01*
X198363078Y-162839142D01*
X198358488Y-162808200D01*
X198356953Y-162776957D01*
X198356953Y-162064457D01*
X198358488Y-162033214D01*
X198363078Y-162002272D01*
X198370678Y-161971929D01*
X198381216Y-161942477D01*
X198394591Y-161914199D01*
X198410672Y-161887369D01*
X198429306Y-161862244D01*
X198450313Y-161839067D01*
X198473490Y-161818060D01*
X198498615Y-161799426D01*
X198525445Y-161783345D01*
X198553723Y-161769970D01*
X198583175Y-161759432D01*
X198613518Y-161751832D01*
X198644460Y-161747242D01*
X198675703Y-161745707D01*
X199313203Y-161745707D01*
X199344446Y-161747242D01*
X199344446Y-161747242D01*
G37*
D13*
X198994453Y-162420707D03*
D12*
G36*
X197769446Y-161747242D02*
X197800388Y-161751832D01*
X197830731Y-161759432D01*
X197860183Y-161769970D01*
X197888461Y-161783345D01*
X197915291Y-161799426D01*
X197940416Y-161818060D01*
X197963593Y-161839067D01*
X197984600Y-161862244D01*
X198003234Y-161887369D01*
X198019315Y-161914199D01*
X198032690Y-161942477D01*
X198043228Y-161971929D01*
X198050828Y-162002272D01*
X198055418Y-162033214D01*
X198056953Y-162064457D01*
X198056953Y-162776957D01*
X198055418Y-162808200D01*
X198050828Y-162839142D01*
X198043228Y-162869485D01*
X198032690Y-162898937D01*
X198019315Y-162927215D01*
X198003234Y-162954045D01*
X197984600Y-162979170D01*
X197963593Y-163002347D01*
X197940416Y-163023354D01*
X197915291Y-163041988D01*
X197888461Y-163058069D01*
X197860183Y-163071444D01*
X197830731Y-163081982D01*
X197800388Y-163089582D01*
X197769446Y-163094172D01*
X197738203Y-163095707D01*
X197100703Y-163095707D01*
X197069460Y-163094172D01*
X197038518Y-163089582D01*
X197008175Y-163081982D01*
X196978723Y-163071444D01*
X196950445Y-163058069D01*
X196923615Y-163041988D01*
X196898490Y-163023354D01*
X196875313Y-163002347D01*
X196854306Y-162979170D01*
X196835672Y-162954045D01*
X196819591Y-162927215D01*
X196806216Y-162898937D01*
X196795678Y-162869485D01*
X196788078Y-162839142D01*
X196783488Y-162808200D01*
X196781953Y-162776957D01*
X196781953Y-162064457D01*
X196783488Y-162033214D01*
X196788078Y-162002272D01*
X196795678Y-161971929D01*
X196806216Y-161942477D01*
X196819591Y-161914199D01*
X196835672Y-161887369D01*
X196854306Y-161862244D01*
X196875313Y-161839067D01*
X196898490Y-161818060D01*
X196923615Y-161799426D01*
X196950445Y-161783345D01*
X196978723Y-161769970D01*
X197008175Y-161759432D01*
X197038518Y-161751832D01*
X197069460Y-161747242D01*
X197100703Y-161745707D01*
X197738203Y-161745707D01*
X197769446Y-161747242D01*
X197769446Y-161747242D01*
G37*
D13*
X197419453Y-162420707D03*
G04 #@! TD*
D12*
G04 #@! TO.C,R7*
G36*
X207256946Y-145297242D02*
X207287888Y-145301832D01*
X207318231Y-145309432D01*
X207347683Y-145319970D01*
X207375961Y-145333345D01*
X207402791Y-145349426D01*
X207427916Y-145368060D01*
X207451093Y-145389067D01*
X207472100Y-145412244D01*
X207490734Y-145437369D01*
X207506815Y-145464199D01*
X207520190Y-145492477D01*
X207530728Y-145521929D01*
X207538328Y-145552272D01*
X207542918Y-145583214D01*
X207544453Y-145614457D01*
X207544453Y-146326957D01*
X207542918Y-146358200D01*
X207538328Y-146389142D01*
X207530728Y-146419485D01*
X207520190Y-146448937D01*
X207506815Y-146477215D01*
X207490734Y-146504045D01*
X207472100Y-146529170D01*
X207451093Y-146552347D01*
X207427916Y-146573354D01*
X207402791Y-146591988D01*
X207375961Y-146608069D01*
X207347683Y-146621444D01*
X207318231Y-146631982D01*
X207287888Y-146639582D01*
X207256946Y-146644172D01*
X207225703Y-146645707D01*
X206588203Y-146645707D01*
X206556960Y-146644172D01*
X206526018Y-146639582D01*
X206495675Y-146631982D01*
X206466223Y-146621444D01*
X206437945Y-146608069D01*
X206411115Y-146591988D01*
X206385990Y-146573354D01*
X206362813Y-146552347D01*
X206341806Y-146529170D01*
X206323172Y-146504045D01*
X206307091Y-146477215D01*
X206293716Y-146448937D01*
X206283178Y-146419485D01*
X206275578Y-146389142D01*
X206270988Y-146358200D01*
X206269453Y-146326957D01*
X206269453Y-145614457D01*
X206270988Y-145583214D01*
X206275578Y-145552272D01*
X206283178Y-145521929D01*
X206293716Y-145492477D01*
X206307091Y-145464199D01*
X206323172Y-145437369D01*
X206341806Y-145412244D01*
X206362813Y-145389067D01*
X206385990Y-145368060D01*
X206411115Y-145349426D01*
X206437945Y-145333345D01*
X206466223Y-145319970D01*
X206495675Y-145309432D01*
X206526018Y-145301832D01*
X206556960Y-145297242D01*
X206588203Y-145295707D01*
X207225703Y-145295707D01*
X207256946Y-145297242D01*
X207256946Y-145297242D01*
G37*
D13*
X206906953Y-145970707D03*
D12*
G36*
X205681946Y-145297242D02*
X205712888Y-145301832D01*
X205743231Y-145309432D01*
X205772683Y-145319970D01*
X205800961Y-145333345D01*
X205827791Y-145349426D01*
X205852916Y-145368060D01*
X205876093Y-145389067D01*
X205897100Y-145412244D01*
X205915734Y-145437369D01*
X205931815Y-145464199D01*
X205945190Y-145492477D01*
X205955728Y-145521929D01*
X205963328Y-145552272D01*
X205967918Y-145583214D01*
X205969453Y-145614457D01*
X205969453Y-146326957D01*
X205967918Y-146358200D01*
X205963328Y-146389142D01*
X205955728Y-146419485D01*
X205945190Y-146448937D01*
X205931815Y-146477215D01*
X205915734Y-146504045D01*
X205897100Y-146529170D01*
X205876093Y-146552347D01*
X205852916Y-146573354D01*
X205827791Y-146591988D01*
X205800961Y-146608069D01*
X205772683Y-146621444D01*
X205743231Y-146631982D01*
X205712888Y-146639582D01*
X205681946Y-146644172D01*
X205650703Y-146645707D01*
X205013203Y-146645707D01*
X204981960Y-146644172D01*
X204951018Y-146639582D01*
X204920675Y-146631982D01*
X204891223Y-146621444D01*
X204862945Y-146608069D01*
X204836115Y-146591988D01*
X204810990Y-146573354D01*
X204787813Y-146552347D01*
X204766806Y-146529170D01*
X204748172Y-146504045D01*
X204732091Y-146477215D01*
X204718716Y-146448937D01*
X204708178Y-146419485D01*
X204700578Y-146389142D01*
X204695988Y-146358200D01*
X204694453Y-146326957D01*
X204694453Y-145614457D01*
X204695988Y-145583214D01*
X204700578Y-145552272D01*
X204708178Y-145521929D01*
X204718716Y-145492477D01*
X204732091Y-145464199D01*
X204748172Y-145437369D01*
X204766806Y-145412244D01*
X204787813Y-145389067D01*
X204810990Y-145368060D01*
X204836115Y-145349426D01*
X204862945Y-145333345D01*
X204891223Y-145319970D01*
X204920675Y-145309432D01*
X204951018Y-145301832D01*
X204981960Y-145297242D01*
X205013203Y-145295707D01*
X205650703Y-145295707D01*
X205681946Y-145297242D01*
X205681946Y-145297242D01*
G37*
D13*
X205331953Y-145970707D03*
G04 #@! TD*
D12*
G04 #@! TO.C,R8*
G36*
X192106946Y-124784742D02*
X192137888Y-124789332D01*
X192168231Y-124796932D01*
X192197683Y-124807470D01*
X192225961Y-124820845D01*
X192252791Y-124836926D01*
X192277916Y-124855560D01*
X192301093Y-124876567D01*
X192322100Y-124899744D01*
X192340734Y-124924869D01*
X192356815Y-124951699D01*
X192370190Y-124979977D01*
X192380728Y-125009429D01*
X192388328Y-125039772D01*
X192392918Y-125070714D01*
X192394453Y-125101957D01*
X192394453Y-125739457D01*
X192392918Y-125770700D01*
X192388328Y-125801642D01*
X192380728Y-125831985D01*
X192370190Y-125861437D01*
X192356815Y-125889715D01*
X192340734Y-125916545D01*
X192322100Y-125941670D01*
X192301093Y-125964847D01*
X192277916Y-125985854D01*
X192252791Y-126004488D01*
X192225961Y-126020569D01*
X192197683Y-126033944D01*
X192168231Y-126044482D01*
X192137888Y-126052082D01*
X192106946Y-126056672D01*
X192075703Y-126058207D01*
X191363203Y-126058207D01*
X191331960Y-126056672D01*
X191301018Y-126052082D01*
X191270675Y-126044482D01*
X191241223Y-126033944D01*
X191212945Y-126020569D01*
X191186115Y-126004488D01*
X191160990Y-125985854D01*
X191137813Y-125964847D01*
X191116806Y-125941670D01*
X191098172Y-125916545D01*
X191082091Y-125889715D01*
X191068716Y-125861437D01*
X191058178Y-125831985D01*
X191050578Y-125801642D01*
X191045988Y-125770700D01*
X191044453Y-125739457D01*
X191044453Y-125101957D01*
X191045988Y-125070714D01*
X191050578Y-125039772D01*
X191058178Y-125009429D01*
X191068716Y-124979977D01*
X191082091Y-124951699D01*
X191098172Y-124924869D01*
X191116806Y-124899744D01*
X191137813Y-124876567D01*
X191160990Y-124855560D01*
X191186115Y-124836926D01*
X191212945Y-124820845D01*
X191241223Y-124807470D01*
X191270675Y-124796932D01*
X191301018Y-124789332D01*
X191331960Y-124784742D01*
X191363203Y-124783207D01*
X192075703Y-124783207D01*
X192106946Y-124784742D01*
X192106946Y-124784742D01*
G37*
D13*
X191719453Y-125420707D03*
D12*
G36*
X192106946Y-126359742D02*
X192137888Y-126364332D01*
X192168231Y-126371932D01*
X192197683Y-126382470D01*
X192225961Y-126395845D01*
X192252791Y-126411926D01*
X192277916Y-126430560D01*
X192301093Y-126451567D01*
X192322100Y-126474744D01*
X192340734Y-126499869D01*
X192356815Y-126526699D01*
X192370190Y-126554977D01*
X192380728Y-126584429D01*
X192388328Y-126614772D01*
X192392918Y-126645714D01*
X192394453Y-126676957D01*
X192394453Y-127314457D01*
X192392918Y-127345700D01*
X192388328Y-127376642D01*
X192380728Y-127406985D01*
X192370190Y-127436437D01*
X192356815Y-127464715D01*
X192340734Y-127491545D01*
X192322100Y-127516670D01*
X192301093Y-127539847D01*
X192277916Y-127560854D01*
X192252791Y-127579488D01*
X192225961Y-127595569D01*
X192197683Y-127608944D01*
X192168231Y-127619482D01*
X192137888Y-127627082D01*
X192106946Y-127631672D01*
X192075703Y-127633207D01*
X191363203Y-127633207D01*
X191331960Y-127631672D01*
X191301018Y-127627082D01*
X191270675Y-127619482D01*
X191241223Y-127608944D01*
X191212945Y-127595569D01*
X191186115Y-127579488D01*
X191160990Y-127560854D01*
X191137813Y-127539847D01*
X191116806Y-127516670D01*
X191098172Y-127491545D01*
X191082091Y-127464715D01*
X191068716Y-127436437D01*
X191058178Y-127406985D01*
X191050578Y-127376642D01*
X191045988Y-127345700D01*
X191044453Y-127314457D01*
X191044453Y-126676957D01*
X191045988Y-126645714D01*
X191050578Y-126614772D01*
X191058178Y-126584429D01*
X191068716Y-126554977D01*
X191082091Y-126526699D01*
X191098172Y-126499869D01*
X191116806Y-126474744D01*
X191137813Y-126451567D01*
X191160990Y-126430560D01*
X191186115Y-126411926D01*
X191212945Y-126395845D01*
X191241223Y-126382470D01*
X191270675Y-126371932D01*
X191301018Y-126364332D01*
X191331960Y-126359742D01*
X191363203Y-126358207D01*
X192075703Y-126358207D01*
X192106946Y-126359742D01*
X192106946Y-126359742D01*
G37*
D13*
X191719453Y-126995707D03*
G04 #@! TD*
D12*
G04 #@! TO.C,R9*
G36*
X189106946Y-124797242D02*
X189137888Y-124801832D01*
X189168231Y-124809432D01*
X189197683Y-124819970D01*
X189225961Y-124833345D01*
X189252791Y-124849426D01*
X189277916Y-124868060D01*
X189301093Y-124889067D01*
X189322100Y-124912244D01*
X189340734Y-124937369D01*
X189356815Y-124964199D01*
X189370190Y-124992477D01*
X189380728Y-125021929D01*
X189388328Y-125052272D01*
X189392918Y-125083214D01*
X189394453Y-125114457D01*
X189394453Y-125751957D01*
X189392918Y-125783200D01*
X189388328Y-125814142D01*
X189380728Y-125844485D01*
X189370190Y-125873937D01*
X189356815Y-125902215D01*
X189340734Y-125929045D01*
X189322100Y-125954170D01*
X189301093Y-125977347D01*
X189277916Y-125998354D01*
X189252791Y-126016988D01*
X189225961Y-126033069D01*
X189197683Y-126046444D01*
X189168231Y-126056982D01*
X189137888Y-126064582D01*
X189106946Y-126069172D01*
X189075703Y-126070707D01*
X188363203Y-126070707D01*
X188331960Y-126069172D01*
X188301018Y-126064582D01*
X188270675Y-126056982D01*
X188241223Y-126046444D01*
X188212945Y-126033069D01*
X188186115Y-126016988D01*
X188160990Y-125998354D01*
X188137813Y-125977347D01*
X188116806Y-125954170D01*
X188098172Y-125929045D01*
X188082091Y-125902215D01*
X188068716Y-125873937D01*
X188058178Y-125844485D01*
X188050578Y-125814142D01*
X188045988Y-125783200D01*
X188044453Y-125751957D01*
X188044453Y-125114457D01*
X188045988Y-125083214D01*
X188050578Y-125052272D01*
X188058178Y-125021929D01*
X188068716Y-124992477D01*
X188082091Y-124964199D01*
X188098172Y-124937369D01*
X188116806Y-124912244D01*
X188137813Y-124889067D01*
X188160990Y-124868060D01*
X188186115Y-124849426D01*
X188212945Y-124833345D01*
X188241223Y-124819970D01*
X188270675Y-124809432D01*
X188301018Y-124801832D01*
X188331960Y-124797242D01*
X188363203Y-124795707D01*
X189075703Y-124795707D01*
X189106946Y-124797242D01*
X189106946Y-124797242D01*
G37*
D13*
X188719453Y-125433207D03*
D12*
G36*
X189106946Y-126372242D02*
X189137888Y-126376832D01*
X189168231Y-126384432D01*
X189197683Y-126394970D01*
X189225961Y-126408345D01*
X189252791Y-126424426D01*
X189277916Y-126443060D01*
X189301093Y-126464067D01*
X189322100Y-126487244D01*
X189340734Y-126512369D01*
X189356815Y-126539199D01*
X189370190Y-126567477D01*
X189380728Y-126596929D01*
X189388328Y-126627272D01*
X189392918Y-126658214D01*
X189394453Y-126689457D01*
X189394453Y-127326957D01*
X189392918Y-127358200D01*
X189388328Y-127389142D01*
X189380728Y-127419485D01*
X189370190Y-127448937D01*
X189356815Y-127477215D01*
X189340734Y-127504045D01*
X189322100Y-127529170D01*
X189301093Y-127552347D01*
X189277916Y-127573354D01*
X189252791Y-127591988D01*
X189225961Y-127608069D01*
X189197683Y-127621444D01*
X189168231Y-127631982D01*
X189137888Y-127639582D01*
X189106946Y-127644172D01*
X189075703Y-127645707D01*
X188363203Y-127645707D01*
X188331960Y-127644172D01*
X188301018Y-127639582D01*
X188270675Y-127631982D01*
X188241223Y-127621444D01*
X188212945Y-127608069D01*
X188186115Y-127591988D01*
X188160990Y-127573354D01*
X188137813Y-127552347D01*
X188116806Y-127529170D01*
X188098172Y-127504045D01*
X188082091Y-127477215D01*
X188068716Y-127448937D01*
X188058178Y-127419485D01*
X188050578Y-127389142D01*
X188045988Y-127358200D01*
X188044453Y-127326957D01*
X188044453Y-126689457D01*
X188045988Y-126658214D01*
X188050578Y-126627272D01*
X188058178Y-126596929D01*
X188068716Y-126567477D01*
X188082091Y-126539199D01*
X188098172Y-126512369D01*
X188116806Y-126487244D01*
X188137813Y-126464067D01*
X188160990Y-126443060D01*
X188186115Y-126424426D01*
X188212945Y-126408345D01*
X188241223Y-126394970D01*
X188270675Y-126384432D01*
X188301018Y-126376832D01*
X188331960Y-126372242D01*
X188363203Y-126370707D01*
X189075703Y-126370707D01*
X189106946Y-126372242D01*
X189106946Y-126372242D01*
G37*
D13*
X188719453Y-127008207D03*
G04 #@! TD*
D12*
G04 #@! TO.C,R10*
G36*
X194891446Y-169689242D02*
X194922388Y-169693832D01*
X194952731Y-169701432D01*
X194982183Y-169711970D01*
X195010461Y-169725345D01*
X195037291Y-169741426D01*
X195062416Y-169760060D01*
X195085593Y-169781067D01*
X195106600Y-169804244D01*
X195125234Y-169829369D01*
X195141315Y-169856199D01*
X195154690Y-169884477D01*
X195165228Y-169913929D01*
X195172828Y-169944272D01*
X195177418Y-169975214D01*
X195178953Y-170006457D01*
X195178953Y-170718957D01*
X195177418Y-170750200D01*
X195172828Y-170781142D01*
X195165228Y-170811485D01*
X195154690Y-170840937D01*
X195141315Y-170869215D01*
X195125234Y-170896045D01*
X195106600Y-170921170D01*
X195085593Y-170944347D01*
X195062416Y-170965354D01*
X195037291Y-170983988D01*
X195010461Y-171000069D01*
X194982183Y-171013444D01*
X194952731Y-171023982D01*
X194922388Y-171031582D01*
X194891446Y-171036172D01*
X194860203Y-171037707D01*
X194222703Y-171037707D01*
X194191460Y-171036172D01*
X194160518Y-171031582D01*
X194130175Y-171023982D01*
X194100723Y-171013444D01*
X194072445Y-171000069D01*
X194045615Y-170983988D01*
X194020490Y-170965354D01*
X193997313Y-170944347D01*
X193976306Y-170921170D01*
X193957672Y-170896045D01*
X193941591Y-170869215D01*
X193928216Y-170840937D01*
X193917678Y-170811485D01*
X193910078Y-170781142D01*
X193905488Y-170750200D01*
X193903953Y-170718957D01*
X193903953Y-170006457D01*
X193905488Y-169975214D01*
X193910078Y-169944272D01*
X193917678Y-169913929D01*
X193928216Y-169884477D01*
X193941591Y-169856199D01*
X193957672Y-169829369D01*
X193976306Y-169804244D01*
X193997313Y-169781067D01*
X194020490Y-169760060D01*
X194045615Y-169741426D01*
X194072445Y-169725345D01*
X194100723Y-169711970D01*
X194130175Y-169701432D01*
X194160518Y-169693832D01*
X194191460Y-169689242D01*
X194222703Y-169687707D01*
X194860203Y-169687707D01*
X194891446Y-169689242D01*
X194891446Y-169689242D01*
G37*
D13*
X194541453Y-170362707D03*
D12*
G36*
X193316446Y-169689242D02*
X193347388Y-169693832D01*
X193377731Y-169701432D01*
X193407183Y-169711970D01*
X193435461Y-169725345D01*
X193462291Y-169741426D01*
X193487416Y-169760060D01*
X193510593Y-169781067D01*
X193531600Y-169804244D01*
X193550234Y-169829369D01*
X193566315Y-169856199D01*
X193579690Y-169884477D01*
X193590228Y-169913929D01*
X193597828Y-169944272D01*
X193602418Y-169975214D01*
X193603953Y-170006457D01*
X193603953Y-170718957D01*
X193602418Y-170750200D01*
X193597828Y-170781142D01*
X193590228Y-170811485D01*
X193579690Y-170840937D01*
X193566315Y-170869215D01*
X193550234Y-170896045D01*
X193531600Y-170921170D01*
X193510593Y-170944347D01*
X193487416Y-170965354D01*
X193462291Y-170983988D01*
X193435461Y-171000069D01*
X193407183Y-171013444D01*
X193377731Y-171023982D01*
X193347388Y-171031582D01*
X193316446Y-171036172D01*
X193285203Y-171037707D01*
X192647703Y-171037707D01*
X192616460Y-171036172D01*
X192585518Y-171031582D01*
X192555175Y-171023982D01*
X192525723Y-171013444D01*
X192497445Y-171000069D01*
X192470615Y-170983988D01*
X192445490Y-170965354D01*
X192422313Y-170944347D01*
X192401306Y-170921170D01*
X192382672Y-170896045D01*
X192366591Y-170869215D01*
X192353216Y-170840937D01*
X192342678Y-170811485D01*
X192335078Y-170781142D01*
X192330488Y-170750200D01*
X192328953Y-170718957D01*
X192328953Y-170006457D01*
X192330488Y-169975214D01*
X192335078Y-169944272D01*
X192342678Y-169913929D01*
X192353216Y-169884477D01*
X192366591Y-169856199D01*
X192382672Y-169829369D01*
X192401306Y-169804244D01*
X192422313Y-169781067D01*
X192445490Y-169760060D01*
X192470615Y-169741426D01*
X192497445Y-169725345D01*
X192525723Y-169711970D01*
X192555175Y-169701432D01*
X192585518Y-169693832D01*
X192616460Y-169689242D01*
X192647703Y-169687707D01*
X193285203Y-169687707D01*
X193316446Y-169689242D01*
X193316446Y-169689242D01*
G37*
D13*
X192966453Y-170362707D03*
G04 #@! TD*
D12*
G04 #@! TO.C,R11*
G36*
X191260746Y-180951860D02*
X191895820Y-181007422D01*
X191926810Y-181011674D01*
X191957235Y-181018943D01*
X191986800Y-181029159D01*
X192015221Y-181042224D01*
X192042226Y-181058012D01*
X192067552Y-181076371D01*
X192090957Y-181097124D01*
X192112216Y-181120071D01*
X192131123Y-181144991D01*
X192147496Y-181171644D01*
X192161178Y-181199774D01*
X192172036Y-181229109D01*
X192179967Y-181259368D01*
X192184894Y-181290258D01*
X192186770Y-181321482D01*
X192185576Y-181352740D01*
X192123478Y-182062528D01*
X192119226Y-182093518D01*
X192111957Y-182123942D01*
X192101741Y-182153508D01*
X192088676Y-182181929D01*
X192072888Y-182208933D01*
X192054529Y-182234260D01*
X192033777Y-182257665D01*
X192010830Y-182278924D01*
X191985910Y-182297830D01*
X191959256Y-182314204D01*
X191931127Y-182327885D01*
X191901791Y-182338744D01*
X191871533Y-182346675D01*
X191840642Y-182351602D01*
X191809418Y-182353478D01*
X191778160Y-182352284D01*
X191143086Y-182296722D01*
X191112096Y-182292470D01*
X191081671Y-182285201D01*
X191052106Y-182274985D01*
X191023685Y-182261920D01*
X190996680Y-182246132D01*
X190971354Y-182227773D01*
X190947949Y-182207020D01*
X190926690Y-182184073D01*
X190907783Y-182159153D01*
X190891410Y-182132500D01*
X190877728Y-182104370D01*
X190866870Y-182075035D01*
X190858939Y-182044776D01*
X190854012Y-182013886D01*
X190852136Y-181982662D01*
X190853330Y-181951404D01*
X190915428Y-181241616D01*
X190919680Y-181210626D01*
X190926949Y-181180202D01*
X190937165Y-181150636D01*
X190950230Y-181122215D01*
X190966018Y-181095211D01*
X190984377Y-181069884D01*
X191005129Y-181046479D01*
X191028076Y-181025220D01*
X191052996Y-181006314D01*
X191079650Y-180989940D01*
X191107779Y-180976259D01*
X191137115Y-180965400D01*
X191167373Y-180957469D01*
X191198264Y-180952542D01*
X191229488Y-180950666D01*
X191260746Y-180951860D01*
X191260746Y-180951860D01*
G37*
D13*
X191519453Y-181652072D03*
D12*
G36*
X192829752Y-181089130D02*
X193464826Y-181144692D01*
X193495816Y-181148944D01*
X193526241Y-181156213D01*
X193555806Y-181166429D01*
X193584227Y-181179494D01*
X193611232Y-181195282D01*
X193636558Y-181213641D01*
X193659963Y-181234394D01*
X193681222Y-181257341D01*
X193700129Y-181282261D01*
X193716502Y-181308914D01*
X193730184Y-181337044D01*
X193741042Y-181366379D01*
X193748973Y-181396638D01*
X193753900Y-181427528D01*
X193755776Y-181458752D01*
X193754582Y-181490010D01*
X193692484Y-182199798D01*
X193688232Y-182230788D01*
X193680963Y-182261212D01*
X193670747Y-182290778D01*
X193657682Y-182319199D01*
X193641894Y-182346203D01*
X193623535Y-182371530D01*
X193602783Y-182394935D01*
X193579836Y-182416194D01*
X193554916Y-182435100D01*
X193528262Y-182451474D01*
X193500133Y-182465155D01*
X193470797Y-182476014D01*
X193440539Y-182483945D01*
X193409648Y-182488872D01*
X193378424Y-182490748D01*
X193347166Y-182489554D01*
X192712092Y-182433992D01*
X192681102Y-182429740D01*
X192650677Y-182422471D01*
X192621112Y-182412255D01*
X192592691Y-182399190D01*
X192565686Y-182383402D01*
X192540360Y-182365043D01*
X192516955Y-182344290D01*
X192495696Y-182321343D01*
X192476789Y-182296423D01*
X192460416Y-182269770D01*
X192446734Y-182241640D01*
X192435876Y-182212305D01*
X192427945Y-182182046D01*
X192423018Y-182151156D01*
X192421142Y-182119932D01*
X192422336Y-182088674D01*
X192484434Y-181378886D01*
X192488686Y-181347896D01*
X192495955Y-181317472D01*
X192506171Y-181287906D01*
X192519236Y-181259485D01*
X192535024Y-181232481D01*
X192553383Y-181207154D01*
X192574135Y-181183749D01*
X192597082Y-181162490D01*
X192622002Y-181143584D01*
X192648656Y-181127210D01*
X192676785Y-181113529D01*
X192706121Y-181102670D01*
X192736379Y-181094739D01*
X192767270Y-181089812D01*
X192798494Y-181087936D01*
X192829752Y-181089130D01*
X192829752Y-181089130D01*
G37*
D13*
X193088459Y-181789342D03*
G04 #@! TD*
D12*
G04 #@! TO.C,R12*
G36*
X196106946Y-157684742D02*
X196137888Y-157689332D01*
X196168231Y-157696932D01*
X196197683Y-157707470D01*
X196225961Y-157720845D01*
X196252791Y-157736926D01*
X196277916Y-157755560D01*
X196301093Y-157776567D01*
X196322100Y-157799744D01*
X196340734Y-157824869D01*
X196356815Y-157851699D01*
X196370190Y-157879977D01*
X196380728Y-157909429D01*
X196388328Y-157939772D01*
X196392918Y-157970714D01*
X196394453Y-158001957D01*
X196394453Y-158639457D01*
X196392918Y-158670700D01*
X196388328Y-158701642D01*
X196380728Y-158731985D01*
X196370190Y-158761437D01*
X196356815Y-158789715D01*
X196340734Y-158816545D01*
X196322100Y-158841670D01*
X196301093Y-158864847D01*
X196277916Y-158885854D01*
X196252791Y-158904488D01*
X196225961Y-158920569D01*
X196197683Y-158933944D01*
X196168231Y-158944482D01*
X196137888Y-158952082D01*
X196106946Y-158956672D01*
X196075703Y-158958207D01*
X195363203Y-158958207D01*
X195331960Y-158956672D01*
X195301018Y-158952082D01*
X195270675Y-158944482D01*
X195241223Y-158933944D01*
X195212945Y-158920569D01*
X195186115Y-158904488D01*
X195160990Y-158885854D01*
X195137813Y-158864847D01*
X195116806Y-158841670D01*
X195098172Y-158816545D01*
X195082091Y-158789715D01*
X195068716Y-158761437D01*
X195058178Y-158731985D01*
X195050578Y-158701642D01*
X195045988Y-158670700D01*
X195044453Y-158639457D01*
X195044453Y-158001957D01*
X195045988Y-157970714D01*
X195050578Y-157939772D01*
X195058178Y-157909429D01*
X195068716Y-157879977D01*
X195082091Y-157851699D01*
X195098172Y-157824869D01*
X195116806Y-157799744D01*
X195137813Y-157776567D01*
X195160990Y-157755560D01*
X195186115Y-157736926D01*
X195212945Y-157720845D01*
X195241223Y-157707470D01*
X195270675Y-157696932D01*
X195301018Y-157689332D01*
X195331960Y-157684742D01*
X195363203Y-157683207D01*
X196075703Y-157683207D01*
X196106946Y-157684742D01*
X196106946Y-157684742D01*
G37*
D13*
X195719453Y-158320707D03*
D12*
G36*
X196106946Y-159259742D02*
X196137888Y-159264332D01*
X196168231Y-159271932D01*
X196197683Y-159282470D01*
X196225961Y-159295845D01*
X196252791Y-159311926D01*
X196277916Y-159330560D01*
X196301093Y-159351567D01*
X196322100Y-159374744D01*
X196340734Y-159399869D01*
X196356815Y-159426699D01*
X196370190Y-159454977D01*
X196380728Y-159484429D01*
X196388328Y-159514772D01*
X196392918Y-159545714D01*
X196394453Y-159576957D01*
X196394453Y-160214457D01*
X196392918Y-160245700D01*
X196388328Y-160276642D01*
X196380728Y-160306985D01*
X196370190Y-160336437D01*
X196356815Y-160364715D01*
X196340734Y-160391545D01*
X196322100Y-160416670D01*
X196301093Y-160439847D01*
X196277916Y-160460854D01*
X196252791Y-160479488D01*
X196225961Y-160495569D01*
X196197683Y-160508944D01*
X196168231Y-160519482D01*
X196137888Y-160527082D01*
X196106946Y-160531672D01*
X196075703Y-160533207D01*
X195363203Y-160533207D01*
X195331960Y-160531672D01*
X195301018Y-160527082D01*
X195270675Y-160519482D01*
X195241223Y-160508944D01*
X195212945Y-160495569D01*
X195186115Y-160479488D01*
X195160990Y-160460854D01*
X195137813Y-160439847D01*
X195116806Y-160416670D01*
X195098172Y-160391545D01*
X195082091Y-160364715D01*
X195068716Y-160336437D01*
X195058178Y-160306985D01*
X195050578Y-160276642D01*
X195045988Y-160245700D01*
X195044453Y-160214457D01*
X195044453Y-159576957D01*
X195045988Y-159545714D01*
X195050578Y-159514772D01*
X195058178Y-159484429D01*
X195068716Y-159454977D01*
X195082091Y-159426699D01*
X195098172Y-159399869D01*
X195116806Y-159374744D01*
X195137813Y-159351567D01*
X195160990Y-159330560D01*
X195186115Y-159311926D01*
X195212945Y-159295845D01*
X195241223Y-159282470D01*
X195270675Y-159271932D01*
X195301018Y-159264332D01*
X195331960Y-159259742D01*
X195363203Y-159258207D01*
X196075703Y-159258207D01*
X196106946Y-159259742D01*
X196106946Y-159259742D01*
G37*
D13*
X195719453Y-159895707D03*
G04 #@! TD*
D12*
G04 #@! TO.C,R13*
G36*
X197806946Y-159272242D02*
X197837888Y-159276832D01*
X197868231Y-159284432D01*
X197897683Y-159294970D01*
X197925961Y-159308345D01*
X197952791Y-159324426D01*
X197977916Y-159343060D01*
X198001093Y-159364067D01*
X198022100Y-159387244D01*
X198040734Y-159412369D01*
X198056815Y-159439199D01*
X198070190Y-159467477D01*
X198080728Y-159496929D01*
X198088328Y-159527272D01*
X198092918Y-159558214D01*
X198094453Y-159589457D01*
X198094453Y-160226957D01*
X198092918Y-160258200D01*
X198088328Y-160289142D01*
X198080728Y-160319485D01*
X198070190Y-160348937D01*
X198056815Y-160377215D01*
X198040734Y-160404045D01*
X198022100Y-160429170D01*
X198001093Y-160452347D01*
X197977916Y-160473354D01*
X197952791Y-160491988D01*
X197925961Y-160508069D01*
X197897683Y-160521444D01*
X197868231Y-160531982D01*
X197837888Y-160539582D01*
X197806946Y-160544172D01*
X197775703Y-160545707D01*
X197063203Y-160545707D01*
X197031960Y-160544172D01*
X197001018Y-160539582D01*
X196970675Y-160531982D01*
X196941223Y-160521444D01*
X196912945Y-160508069D01*
X196886115Y-160491988D01*
X196860990Y-160473354D01*
X196837813Y-160452347D01*
X196816806Y-160429170D01*
X196798172Y-160404045D01*
X196782091Y-160377215D01*
X196768716Y-160348937D01*
X196758178Y-160319485D01*
X196750578Y-160289142D01*
X196745988Y-160258200D01*
X196744453Y-160226957D01*
X196744453Y-159589457D01*
X196745988Y-159558214D01*
X196750578Y-159527272D01*
X196758178Y-159496929D01*
X196768716Y-159467477D01*
X196782091Y-159439199D01*
X196798172Y-159412369D01*
X196816806Y-159387244D01*
X196837813Y-159364067D01*
X196860990Y-159343060D01*
X196886115Y-159324426D01*
X196912945Y-159308345D01*
X196941223Y-159294970D01*
X196970675Y-159284432D01*
X197001018Y-159276832D01*
X197031960Y-159272242D01*
X197063203Y-159270707D01*
X197775703Y-159270707D01*
X197806946Y-159272242D01*
X197806946Y-159272242D01*
G37*
D13*
X197419453Y-159908207D03*
D12*
G36*
X197806946Y-157697242D02*
X197837888Y-157701832D01*
X197868231Y-157709432D01*
X197897683Y-157719970D01*
X197925961Y-157733345D01*
X197952791Y-157749426D01*
X197977916Y-157768060D01*
X198001093Y-157789067D01*
X198022100Y-157812244D01*
X198040734Y-157837369D01*
X198056815Y-157864199D01*
X198070190Y-157892477D01*
X198080728Y-157921929D01*
X198088328Y-157952272D01*
X198092918Y-157983214D01*
X198094453Y-158014457D01*
X198094453Y-158651957D01*
X198092918Y-158683200D01*
X198088328Y-158714142D01*
X198080728Y-158744485D01*
X198070190Y-158773937D01*
X198056815Y-158802215D01*
X198040734Y-158829045D01*
X198022100Y-158854170D01*
X198001093Y-158877347D01*
X197977916Y-158898354D01*
X197952791Y-158916988D01*
X197925961Y-158933069D01*
X197897683Y-158946444D01*
X197868231Y-158956982D01*
X197837888Y-158964582D01*
X197806946Y-158969172D01*
X197775703Y-158970707D01*
X197063203Y-158970707D01*
X197031960Y-158969172D01*
X197001018Y-158964582D01*
X196970675Y-158956982D01*
X196941223Y-158946444D01*
X196912945Y-158933069D01*
X196886115Y-158916988D01*
X196860990Y-158898354D01*
X196837813Y-158877347D01*
X196816806Y-158854170D01*
X196798172Y-158829045D01*
X196782091Y-158802215D01*
X196768716Y-158773937D01*
X196758178Y-158744485D01*
X196750578Y-158714142D01*
X196745988Y-158683200D01*
X196744453Y-158651957D01*
X196744453Y-158014457D01*
X196745988Y-157983214D01*
X196750578Y-157952272D01*
X196758178Y-157921929D01*
X196768716Y-157892477D01*
X196782091Y-157864199D01*
X196798172Y-157837369D01*
X196816806Y-157812244D01*
X196837813Y-157789067D01*
X196860990Y-157768060D01*
X196886115Y-157749426D01*
X196912945Y-157733345D01*
X196941223Y-157719970D01*
X196970675Y-157709432D01*
X197001018Y-157701832D01*
X197031960Y-157697242D01*
X197063203Y-157695707D01*
X197775703Y-157695707D01*
X197806946Y-157697242D01*
X197806946Y-157697242D01*
G37*
D13*
X197419453Y-158333207D03*
G04 #@! TD*
D12*
G04 #@! TO.C,R14*
G36*
X193006946Y-155409742D02*
X193037888Y-155414332D01*
X193068231Y-155421932D01*
X193097683Y-155432470D01*
X193125961Y-155445845D01*
X193152791Y-155461926D01*
X193177916Y-155480560D01*
X193201093Y-155501567D01*
X193222100Y-155524744D01*
X193240734Y-155549869D01*
X193256815Y-155576699D01*
X193270190Y-155604977D01*
X193280728Y-155634429D01*
X193288328Y-155664772D01*
X193292918Y-155695714D01*
X193294453Y-155726957D01*
X193294453Y-156364457D01*
X193292918Y-156395700D01*
X193288328Y-156426642D01*
X193280728Y-156456985D01*
X193270190Y-156486437D01*
X193256815Y-156514715D01*
X193240734Y-156541545D01*
X193222100Y-156566670D01*
X193201093Y-156589847D01*
X193177916Y-156610854D01*
X193152791Y-156629488D01*
X193125961Y-156645569D01*
X193097683Y-156658944D01*
X193068231Y-156669482D01*
X193037888Y-156677082D01*
X193006946Y-156681672D01*
X192975703Y-156683207D01*
X192263203Y-156683207D01*
X192231960Y-156681672D01*
X192201018Y-156677082D01*
X192170675Y-156669482D01*
X192141223Y-156658944D01*
X192112945Y-156645569D01*
X192086115Y-156629488D01*
X192060990Y-156610854D01*
X192037813Y-156589847D01*
X192016806Y-156566670D01*
X191998172Y-156541545D01*
X191982091Y-156514715D01*
X191968716Y-156486437D01*
X191958178Y-156456985D01*
X191950578Y-156426642D01*
X191945988Y-156395700D01*
X191944453Y-156364457D01*
X191944453Y-155726957D01*
X191945988Y-155695714D01*
X191950578Y-155664772D01*
X191958178Y-155634429D01*
X191968716Y-155604977D01*
X191982091Y-155576699D01*
X191998172Y-155549869D01*
X192016806Y-155524744D01*
X192037813Y-155501567D01*
X192060990Y-155480560D01*
X192086115Y-155461926D01*
X192112945Y-155445845D01*
X192141223Y-155432470D01*
X192170675Y-155421932D01*
X192201018Y-155414332D01*
X192231960Y-155409742D01*
X192263203Y-155408207D01*
X192975703Y-155408207D01*
X193006946Y-155409742D01*
X193006946Y-155409742D01*
G37*
D13*
X192619453Y-156045707D03*
D12*
G36*
X193006946Y-156984742D02*
X193037888Y-156989332D01*
X193068231Y-156996932D01*
X193097683Y-157007470D01*
X193125961Y-157020845D01*
X193152791Y-157036926D01*
X193177916Y-157055560D01*
X193201093Y-157076567D01*
X193222100Y-157099744D01*
X193240734Y-157124869D01*
X193256815Y-157151699D01*
X193270190Y-157179977D01*
X193280728Y-157209429D01*
X193288328Y-157239772D01*
X193292918Y-157270714D01*
X193294453Y-157301957D01*
X193294453Y-157939457D01*
X193292918Y-157970700D01*
X193288328Y-158001642D01*
X193280728Y-158031985D01*
X193270190Y-158061437D01*
X193256815Y-158089715D01*
X193240734Y-158116545D01*
X193222100Y-158141670D01*
X193201093Y-158164847D01*
X193177916Y-158185854D01*
X193152791Y-158204488D01*
X193125961Y-158220569D01*
X193097683Y-158233944D01*
X193068231Y-158244482D01*
X193037888Y-158252082D01*
X193006946Y-158256672D01*
X192975703Y-158258207D01*
X192263203Y-158258207D01*
X192231960Y-158256672D01*
X192201018Y-158252082D01*
X192170675Y-158244482D01*
X192141223Y-158233944D01*
X192112945Y-158220569D01*
X192086115Y-158204488D01*
X192060990Y-158185854D01*
X192037813Y-158164847D01*
X192016806Y-158141670D01*
X191998172Y-158116545D01*
X191982091Y-158089715D01*
X191968716Y-158061437D01*
X191958178Y-158031985D01*
X191950578Y-158001642D01*
X191945988Y-157970700D01*
X191944453Y-157939457D01*
X191944453Y-157301957D01*
X191945988Y-157270714D01*
X191950578Y-157239772D01*
X191958178Y-157209429D01*
X191968716Y-157179977D01*
X191982091Y-157151699D01*
X191998172Y-157124869D01*
X192016806Y-157099744D01*
X192037813Y-157076567D01*
X192060990Y-157055560D01*
X192086115Y-157036926D01*
X192112945Y-157020845D01*
X192141223Y-157007470D01*
X192170675Y-156996932D01*
X192201018Y-156989332D01*
X192231960Y-156984742D01*
X192263203Y-156983207D01*
X192975703Y-156983207D01*
X193006946Y-156984742D01*
X193006946Y-156984742D01*
G37*
D13*
X192619453Y-157620707D03*
G04 #@! TD*
D22*
G04 #@! TO.C,U1*
X196802195Y-177279193D03*
D12*
G36*
X196320307Y-176442827D02*
X197368868Y-176497779D01*
X197284083Y-178115559D01*
X196235522Y-178060607D01*
X196320307Y-176442827D01*
X196320307Y-176442827D01*
G37*
D22*
X198699591Y-177378631D03*
D12*
G36*
X198217703Y-176542265D02*
X199266264Y-176597217D01*
X199181479Y-178214997D01*
X198132918Y-178160045D01*
X198217703Y-176542265D01*
X198217703Y-176542265D01*
G37*
D22*
X198836711Y-174762221D03*
D12*
G36*
X198354823Y-173925855D02*
X199403384Y-173980807D01*
X199318599Y-175598587D01*
X198270038Y-175543635D01*
X198354823Y-173925855D01*
X198354823Y-173925855D01*
G37*
D22*
X197888013Y-174712502D03*
D12*
G36*
X197406125Y-173876136D02*
X198454686Y-173931088D01*
X198369901Y-175548868D01*
X197321340Y-175493916D01*
X197406125Y-173876136D01*
X197406125Y-173876136D01*
G37*
D22*
X196939315Y-174662783D03*
D12*
G36*
X196457427Y-173826417D02*
X197505988Y-173881369D01*
X197421203Y-175499149D01*
X196372642Y-175444197D01*
X196457427Y-173826417D01*
X196457427Y-173826417D01*
G37*
G04 #@! TD*
D22*
G04 #@! TO.C,U3*
X199186711Y-169062221D03*
D12*
G36*
X199668599Y-169898587D02*
X198620038Y-169843635D01*
X198704823Y-168225855D01*
X199753384Y-168280807D01*
X199668599Y-169898587D01*
X199668599Y-169898587D01*
G37*
D22*
X197289315Y-168962783D03*
D12*
G36*
X197771203Y-169799149D02*
X196722642Y-169744197D01*
X196807427Y-168126417D01*
X197855988Y-168181369D01*
X197771203Y-169799149D01*
X197771203Y-169799149D01*
G37*
D22*
X197152195Y-171579193D03*
D12*
G36*
X197634083Y-172415559D02*
X196585522Y-172360607D01*
X196670307Y-170742827D01*
X197718868Y-170797779D01*
X197634083Y-172415559D01*
X197634083Y-172415559D01*
G37*
D22*
X198100893Y-171628912D03*
D12*
G36*
X198582781Y-172465278D02*
X197534220Y-172410326D01*
X197619005Y-170792546D01*
X198667566Y-170847498D01*
X198582781Y-172465278D01*
X198582781Y-172465278D01*
G37*
D22*
X199049591Y-171678631D03*
D12*
G36*
X199531479Y-172514997D02*
X198482918Y-172460045D01*
X198567703Y-170842265D01*
X199616264Y-170897217D01*
X199531479Y-172514997D01*
X199531479Y-172514997D01*
G37*
G04 #@! TD*
D23*
G04 #@! TO.C,U4*
X189490282Y-143154833D03*
D12*
G36*
X188789542Y-142751115D02*
X189491022Y-142346115D01*
X190191022Y-143558551D01*
X189489542Y-143963551D01*
X188789542Y-142751115D01*
X188789542Y-142751115D01*
G37*
D23*
X190157121Y-142769833D03*
D12*
G36*
X189456381Y-142366115D02*
X190157861Y-141961115D01*
X190857861Y-143173551D01*
X190156381Y-143578551D01*
X189456381Y-142366115D01*
X189456381Y-142366115D01*
G37*
D23*
X190815301Y-142389833D03*
D12*
G36*
X190114561Y-141986115D02*
X190816041Y-141581115D01*
X191516041Y-142793551D01*
X190814561Y-143198551D01*
X190114561Y-141986115D01*
X190114561Y-141986115D01*
G37*
D23*
X191473480Y-142009833D03*
D12*
G36*
X190772740Y-141606115D02*
X191474220Y-141201115D01*
X192174220Y-142413551D01*
X191472740Y-142818551D01*
X190772740Y-141606115D01*
X190772740Y-141606115D01*
G37*
D23*
X192131659Y-141629833D03*
D12*
G36*
X191430919Y-141226115D02*
X192132399Y-140821115D01*
X192832399Y-142033551D01*
X192130919Y-142438551D01*
X191430919Y-141226115D01*
X191430919Y-141226115D01*
G37*
D23*
X196230087Y-138628519D03*
D12*
G36*
X196633805Y-137927779D02*
X197038805Y-138629259D01*
X195826369Y-139329259D01*
X195421369Y-138627779D01*
X196633805Y-137927779D01*
X196633805Y-137927779D01*
G37*
D23*
X195850087Y-137970340D03*
D12*
G36*
X196253805Y-137269600D02*
X196658805Y-137971080D01*
X195446369Y-138671080D01*
X195041369Y-137969600D01*
X196253805Y-137269600D01*
X196253805Y-137269600D01*
G37*
D23*
X195465087Y-137303501D03*
D12*
G36*
X195868805Y-136602761D02*
X196273805Y-137304241D01*
X195061369Y-138004241D01*
X194656369Y-137302761D01*
X195868805Y-136602761D01*
X195868805Y-136602761D01*
G37*
D23*
X195085087Y-136645321D03*
D12*
G36*
X195488805Y-135944581D02*
X195893805Y-136646061D01*
X194681369Y-137346061D01*
X194276369Y-136644581D01*
X195488805Y-135944581D01*
X195488805Y-135944581D01*
G37*
D23*
X194705087Y-135987142D03*
D12*
G36*
X195108805Y-135286402D02*
X195513805Y-135987882D01*
X194301369Y-136687882D01*
X193896369Y-135986402D01*
X195108805Y-135286402D01*
X195108805Y-135286402D01*
G37*
D23*
X194325087Y-135328963D03*
D12*
G36*
X194728805Y-134628223D02*
X195133805Y-135329703D01*
X193921369Y-136029703D01*
X193516369Y-135328223D01*
X194728805Y-134628223D01*
X194728805Y-134628223D01*
G37*
D23*
X193945087Y-134670783D03*
D12*
G36*
X194348805Y-133970043D02*
X194753805Y-134671523D01*
X193541369Y-135371523D01*
X193136369Y-134670043D01*
X194348805Y-133970043D01*
X194348805Y-133970043D01*
G37*
D23*
X193560087Y-134003944D03*
D12*
G36*
X193963805Y-133303204D02*
X194368805Y-134004684D01*
X193156369Y-134704684D01*
X192751369Y-134003204D01*
X193963805Y-133303204D01*
X193963805Y-133303204D01*
G37*
D23*
X193180087Y-133345764D03*
D12*
G36*
X193583805Y-132645024D02*
X193988805Y-133346504D01*
X192776369Y-134046504D01*
X192371369Y-133345024D01*
X193583805Y-132645024D01*
X193583805Y-132645024D01*
G37*
D23*
X192800087Y-132687585D03*
D12*
G36*
X193203805Y-131986845D02*
X193608805Y-132688325D01*
X192396369Y-133388325D01*
X191991369Y-132686845D01*
X193203805Y-131986845D01*
X193203805Y-131986845D01*
G37*
D23*
X192420087Y-132029406D03*
D12*
G36*
X192823805Y-131328666D02*
X193228805Y-132030146D01*
X192016369Y-132730146D01*
X191611369Y-132028666D01*
X192823805Y-131328666D01*
X192823805Y-131328666D01*
G37*
D23*
X192040087Y-131371227D03*
D12*
G36*
X192443805Y-130670487D02*
X192848805Y-131371967D01*
X191636369Y-132071967D01*
X191231369Y-131370487D01*
X192443805Y-130670487D01*
X192443805Y-130670487D01*
G37*
D23*
X190686216Y-131506252D03*
D12*
G36*
X189985476Y-131102534D02*
X190686956Y-130697534D01*
X191386956Y-131909970D01*
X190685476Y-132314970D01*
X189985476Y-131102534D01*
X189985476Y-131102534D01*
G37*
D23*
X190028037Y-131886252D03*
D12*
G36*
X189327297Y-131482534D02*
X190028777Y-131077534D01*
X190728777Y-132289970D01*
X190027297Y-132694970D01*
X189327297Y-131482534D01*
X189327297Y-131482534D01*
G37*
D23*
X189369857Y-132266252D03*
D12*
G36*
X188669117Y-131862534D02*
X189370597Y-131457534D01*
X190070597Y-132669970D01*
X189369117Y-133074970D01*
X188669117Y-131862534D01*
X188669117Y-131862534D01*
G37*
D23*
X188711678Y-132646252D03*
D12*
G36*
X188010938Y-132242534D02*
X188712418Y-131837534D01*
X189412418Y-133049970D01*
X188710938Y-133454970D01*
X188010938Y-132242534D01*
X188010938Y-132242534D01*
G37*
D23*
X192789838Y-141249833D03*
D12*
G36*
X192089098Y-140846115D02*
X192790578Y-140441115D01*
X193490578Y-141653551D01*
X192789098Y-142058551D01*
X192089098Y-140846115D01*
X192089098Y-140846115D01*
G37*
G04 #@! TD*
D24*
G04 #@! TO.C,U5*
X193369453Y-174170707D03*
D12*
G36*
X194390041Y-175344760D02*
X192195400Y-175191295D01*
X192348865Y-172996654D01*
X194543506Y-173150119D01*
X194390041Y-175344760D01*
X194390041Y-175344760D01*
G37*
D25*
X194061165Y-172865780D03*
D12*
G36*
X194603374Y-173354794D02*
X193456175Y-173274574D01*
X193518956Y-172376766D01*
X194666155Y-172456986D01*
X194603374Y-173354794D01*
X194603374Y-173354794D01*
G37*
D26*
X193288053Y-172811718D03*
D12*
G36*
X193718469Y-172390717D02*
X193655688Y-173288524D01*
X192857637Y-173232719D01*
X192920418Y-172334912D01*
X193718469Y-172390717D01*
X193718469Y-172390717D01*
G37*
D26*
X192689515Y-172769865D03*
D12*
G36*
X193119931Y-172348864D02*
X193057150Y-173246671D01*
X192259099Y-173190866D01*
X192321880Y-172293059D01*
X193119931Y-172348864D01*
X193119931Y-172348864D01*
G37*
D26*
X192501172Y-175463287D03*
D12*
G36*
X192931588Y-175042286D02*
X192868807Y-175940093D01*
X192070756Y-175884288D01*
X192133537Y-174986481D01*
X192931588Y-175042286D01*
X192931588Y-175042286D01*
G37*
D26*
X193099710Y-175505141D03*
D12*
G36*
X193530126Y-175084140D02*
X193467345Y-175981947D01*
X192669294Y-175926142D01*
X192732075Y-175028335D01*
X193530126Y-175084140D01*
X193530126Y-175084140D01*
G37*
D25*
X193872823Y-175559203D03*
D12*
G36*
X194415032Y-176048217D02*
X193267833Y-175967997D01*
X193330614Y-175070189D01*
X194477813Y-175150409D01*
X194415032Y-176048217D01*
X194415032Y-176048217D01*
G37*
G04 #@! TD*
D27*
G04 #@! TO.C,U6*
X191537219Y-183508602D03*
D12*
G36*
X192436278Y-182984968D02*
X192331691Y-184180401D01*
X190638160Y-184032236D01*
X190742747Y-182836803D01*
X192436278Y-182984968D01*
X192436278Y-182984968D01*
G37*
D27*
X191425660Y-184783731D03*
D12*
G36*
X192324719Y-184260097D02*
X192220132Y-185455530D01*
X190526601Y-185307365D01*
X190631188Y-184111932D01*
X192324719Y-184260097D01*
X192324719Y-184260097D01*
G37*
D27*
X197701687Y-185332812D03*
D12*
G36*
X198600746Y-184809178D02*
X198496159Y-186004611D01*
X196802628Y-185856446D01*
X196907215Y-184661013D01*
X198600746Y-184809178D01*
X198600746Y-184809178D01*
G37*
D27*
X197813246Y-184057683D03*
D12*
G36*
X198712305Y-183534049D02*
X198607718Y-184729482D01*
X196914187Y-184581317D01*
X197018774Y-183385884D01*
X198712305Y-183534049D01*
X198712305Y-183534049D01*
G37*
G04 #@! TD*
D27*
G04 #@! TO.C,U7*
X202277627Y-184223024D03*
D12*
G36*
X202816872Y-185112807D02*
X201619796Y-185029100D01*
X201738382Y-183333241D01*
X202935458Y-183416948D01*
X202816872Y-185112807D01*
X202816872Y-185112807D01*
G37*
D27*
X201000745Y-184133736D03*
D12*
G36*
X201539990Y-185023519D02*
X200342914Y-184939812D01*
X200461500Y-183243953D01*
X201658576Y-183327660D01*
X201539990Y-185023519D01*
X201539990Y-185023519D01*
G37*
D27*
X200561279Y-190418390D03*
D12*
G36*
X201100524Y-191308173D02*
X199903448Y-191224466D01*
X200022034Y-189528607D01*
X201219110Y-189612314D01*
X201100524Y-191308173D01*
X201100524Y-191308173D01*
G37*
D27*
X201838161Y-190507678D03*
D12*
G36*
X202377406Y-191397461D02*
X201180330Y-191313754D01*
X201298916Y-189617895D01*
X202495992Y-189701602D01*
X202377406Y-191397461D01*
X202377406Y-191397461D01*
G37*
G04 #@! TD*
D27*
G04 #@! TO.C,U8*
X198853607Y-192454948D03*
D12*
G36*
X199761668Y-191947084D02*
X199636234Y-193140510D01*
X197945546Y-192962812D01*
X198070980Y-191769386D01*
X199761668Y-191947084D01*
X199761668Y-191947084D01*
G37*
D27*
X198719811Y-193727936D03*
D12*
G36*
X199627872Y-193220072D02*
X199502438Y-194413498D01*
X197811750Y-194235800D01*
X197937184Y-193042374D01*
X199627872Y-193220072D01*
X199627872Y-193220072D01*
G37*
D27*
X204985299Y-194386466D03*
D12*
G36*
X205893360Y-193878602D02*
X205767926Y-195072028D01*
X204077238Y-194894330D01*
X204202672Y-193700904D01*
X205893360Y-193878602D01*
X205893360Y-193878602D01*
G37*
D27*
X205119095Y-193113478D03*
D12*
G36*
X206027156Y-192605614D02*
X205901722Y-193799040D01*
X204211034Y-193621342D01*
X204336468Y-192427916D01*
X206027156Y-192605614D01*
X206027156Y-192605614D01*
G37*
G04 #@! TD*
D27*
G04 #@! TO.C,U9*
X196367977Y-196939825D03*
D12*
G36*
X195451191Y-197431764D02*
X195597434Y-196240708D01*
X197284763Y-196447886D01*
X197138520Y-197638942D01*
X195451191Y-197431764D01*
X195451191Y-197431764D01*
G37*
D27*
X196523970Y-195669366D03*
D12*
G36*
X195607184Y-196161305D02*
X195753427Y-194970249D01*
X197440756Y-195177427D01*
X197294513Y-196368483D01*
X195607184Y-196161305D01*
X195607184Y-196161305D01*
G37*
D27*
X190270929Y-194901589D03*
D12*
G36*
X189354143Y-195393528D02*
X189500386Y-194202472D01*
X191187715Y-194409650D01*
X191041472Y-195600706D01*
X189354143Y-195393528D01*
X189354143Y-195393528D01*
G37*
D27*
X190114936Y-196172048D03*
D12*
G36*
X189198150Y-196663987D02*
X189344393Y-195472931D01*
X191031722Y-195680109D01*
X190885479Y-196871165D01*
X189198150Y-196663987D01*
X189198150Y-196663987D01*
G37*
G04 #@! TD*
G04 #@! TO.C,C15*
G36*
X198019729Y-180184982D02*
X198655676Y-180229452D01*
X198686736Y-180233163D01*
X198717282Y-180239900D01*
X198747021Y-180249599D01*
X198775667Y-180262166D01*
X198802942Y-180277480D01*
X198828585Y-180295394D01*
X198852349Y-180315735D01*
X198874005Y-180338307D01*
X198893344Y-180362894D01*
X198910179Y-180389257D01*
X198924350Y-180417144D01*
X198935719Y-180446285D01*
X198944177Y-180476401D01*
X198949643Y-180507200D01*
X198952063Y-180538387D01*
X198951415Y-180569661D01*
X198901714Y-181280425D01*
X198898003Y-181311484D01*
X198891266Y-181342031D01*
X198881567Y-181371770D01*
X198869000Y-181400415D01*
X198853686Y-181427691D01*
X198835772Y-181453334D01*
X198815431Y-181477098D01*
X198792859Y-181498754D01*
X198768273Y-181518092D01*
X198741909Y-181534928D01*
X198714022Y-181549099D01*
X198684881Y-181560468D01*
X198654766Y-181568926D01*
X198623966Y-181574392D01*
X198592779Y-181576812D01*
X198561505Y-181576164D01*
X197925558Y-181531694D01*
X197894498Y-181527983D01*
X197863952Y-181521246D01*
X197834213Y-181511547D01*
X197805567Y-181498980D01*
X197778292Y-181483666D01*
X197752649Y-181465752D01*
X197728885Y-181445411D01*
X197707229Y-181422839D01*
X197687890Y-181398252D01*
X197671055Y-181371889D01*
X197656884Y-181344002D01*
X197645515Y-181314861D01*
X197637057Y-181284745D01*
X197631591Y-181253946D01*
X197629171Y-181222759D01*
X197629819Y-181191485D01*
X197679520Y-180480721D01*
X197683231Y-180449662D01*
X197689968Y-180419115D01*
X197699667Y-180389376D01*
X197712234Y-180360731D01*
X197727548Y-180333455D01*
X197745462Y-180307812D01*
X197765803Y-180284048D01*
X197788375Y-180262392D01*
X197812961Y-180243054D01*
X197839325Y-180226218D01*
X197867212Y-180212047D01*
X197896353Y-180200678D01*
X197926468Y-180192220D01*
X197957268Y-180186754D01*
X197988455Y-180184334D01*
X198019729Y-180184982D01*
X198019729Y-180184982D01*
G37*
D13*
X198290617Y-180880573D03*
D12*
G36*
X196448565Y-180075116D02*
X197084512Y-180119586D01*
X197115572Y-180123297D01*
X197146118Y-180130034D01*
X197175857Y-180139733D01*
X197204503Y-180152300D01*
X197231778Y-180167614D01*
X197257421Y-180185528D01*
X197281185Y-180205869D01*
X197302841Y-180228441D01*
X197322180Y-180253028D01*
X197339015Y-180279391D01*
X197353186Y-180307278D01*
X197364555Y-180336419D01*
X197373013Y-180366535D01*
X197378479Y-180397334D01*
X197380899Y-180428521D01*
X197380251Y-180459795D01*
X197330550Y-181170559D01*
X197326839Y-181201618D01*
X197320102Y-181232165D01*
X197310403Y-181261904D01*
X197297836Y-181290549D01*
X197282522Y-181317825D01*
X197264608Y-181343468D01*
X197244267Y-181367232D01*
X197221695Y-181388888D01*
X197197109Y-181408226D01*
X197170745Y-181425062D01*
X197142858Y-181439233D01*
X197113717Y-181450602D01*
X197083602Y-181459060D01*
X197052802Y-181464526D01*
X197021615Y-181466946D01*
X196990341Y-181466298D01*
X196354394Y-181421828D01*
X196323334Y-181418117D01*
X196292788Y-181411380D01*
X196263049Y-181401681D01*
X196234403Y-181389114D01*
X196207128Y-181373800D01*
X196181485Y-181355886D01*
X196157721Y-181335545D01*
X196136065Y-181312973D01*
X196116726Y-181288386D01*
X196099891Y-181262023D01*
X196085720Y-181234136D01*
X196074351Y-181204995D01*
X196065893Y-181174879D01*
X196060427Y-181144080D01*
X196058007Y-181112893D01*
X196058655Y-181081619D01*
X196108356Y-180370855D01*
X196112067Y-180339796D01*
X196118804Y-180309249D01*
X196128503Y-180279510D01*
X196141070Y-180250865D01*
X196156384Y-180223589D01*
X196174298Y-180197946D01*
X196194639Y-180174182D01*
X196217211Y-180152526D01*
X196241797Y-180133188D01*
X196268161Y-180116352D01*
X196296048Y-180102181D01*
X196325189Y-180090812D01*
X196355304Y-180082354D01*
X196386104Y-180076888D01*
X196417291Y-180074468D01*
X196448565Y-180075116D01*
X196448565Y-180075116D01*
G37*
D13*
X196719453Y-180770707D03*
G04 #@! TD*
D12*
G04 #@! TO.C,C16*
G36*
X198139148Y-178615048D02*
X198775095Y-178659518D01*
X198806155Y-178663229D01*
X198836701Y-178669966D01*
X198866440Y-178679665D01*
X198895086Y-178692232D01*
X198922361Y-178707546D01*
X198948004Y-178725460D01*
X198971768Y-178745801D01*
X198993424Y-178768373D01*
X199012763Y-178792960D01*
X199029598Y-178819323D01*
X199043769Y-178847210D01*
X199055138Y-178876351D01*
X199063596Y-178906467D01*
X199069062Y-178937266D01*
X199071482Y-178968453D01*
X199070834Y-178999727D01*
X199021133Y-179710491D01*
X199017422Y-179741550D01*
X199010685Y-179772097D01*
X199000986Y-179801836D01*
X198988419Y-179830481D01*
X198973105Y-179857757D01*
X198955191Y-179883400D01*
X198934850Y-179907164D01*
X198912278Y-179928820D01*
X198887692Y-179948158D01*
X198861328Y-179964994D01*
X198833441Y-179979165D01*
X198804300Y-179990534D01*
X198774185Y-179998992D01*
X198743385Y-180004458D01*
X198712198Y-180006878D01*
X198680924Y-180006230D01*
X198044977Y-179961760D01*
X198013917Y-179958049D01*
X197983371Y-179951312D01*
X197953632Y-179941613D01*
X197924986Y-179929046D01*
X197897711Y-179913732D01*
X197872068Y-179895818D01*
X197848304Y-179875477D01*
X197826648Y-179852905D01*
X197807309Y-179828318D01*
X197790474Y-179801955D01*
X197776303Y-179774068D01*
X197764934Y-179744927D01*
X197756476Y-179714811D01*
X197751010Y-179684012D01*
X197748590Y-179652825D01*
X197749238Y-179621551D01*
X197798939Y-178910787D01*
X197802650Y-178879728D01*
X197809387Y-178849181D01*
X197819086Y-178819442D01*
X197831653Y-178790797D01*
X197846967Y-178763521D01*
X197864881Y-178737878D01*
X197885222Y-178714114D01*
X197907794Y-178692458D01*
X197932380Y-178673120D01*
X197958744Y-178656284D01*
X197986631Y-178642113D01*
X198015772Y-178630744D01*
X198045887Y-178622286D01*
X198076687Y-178616820D01*
X198107874Y-178614400D01*
X198139148Y-178615048D01*
X198139148Y-178615048D01*
G37*
D13*
X198410036Y-179310639D03*
D12*
G36*
X196567984Y-178505182D02*
X197203931Y-178549652D01*
X197234991Y-178553363D01*
X197265537Y-178560100D01*
X197295276Y-178569799D01*
X197323922Y-178582366D01*
X197351197Y-178597680D01*
X197376840Y-178615594D01*
X197400604Y-178635935D01*
X197422260Y-178658507D01*
X197441599Y-178683094D01*
X197458434Y-178709457D01*
X197472605Y-178737344D01*
X197483974Y-178766485D01*
X197492432Y-178796601D01*
X197497898Y-178827400D01*
X197500318Y-178858587D01*
X197499670Y-178889861D01*
X197449969Y-179600625D01*
X197446258Y-179631684D01*
X197439521Y-179662231D01*
X197429822Y-179691970D01*
X197417255Y-179720615D01*
X197401941Y-179747891D01*
X197384027Y-179773534D01*
X197363686Y-179797298D01*
X197341114Y-179818954D01*
X197316528Y-179838292D01*
X197290164Y-179855128D01*
X197262277Y-179869299D01*
X197233136Y-179880668D01*
X197203021Y-179889126D01*
X197172221Y-179894592D01*
X197141034Y-179897012D01*
X197109760Y-179896364D01*
X196473813Y-179851894D01*
X196442753Y-179848183D01*
X196412207Y-179841446D01*
X196382468Y-179831747D01*
X196353822Y-179819180D01*
X196326547Y-179803866D01*
X196300904Y-179785952D01*
X196277140Y-179765611D01*
X196255484Y-179743039D01*
X196236145Y-179718452D01*
X196219310Y-179692089D01*
X196205139Y-179664202D01*
X196193770Y-179635061D01*
X196185312Y-179604945D01*
X196179846Y-179574146D01*
X196177426Y-179542959D01*
X196178074Y-179511685D01*
X196227775Y-178800921D01*
X196231486Y-178769862D01*
X196238223Y-178739315D01*
X196247922Y-178709576D01*
X196260489Y-178680931D01*
X196275803Y-178653655D01*
X196293717Y-178628012D01*
X196314058Y-178604248D01*
X196336630Y-178582592D01*
X196361216Y-178563254D01*
X196387580Y-178546418D01*
X196415467Y-178532247D01*
X196444608Y-178520878D01*
X196474723Y-178512420D01*
X196505523Y-178506954D01*
X196536710Y-178504534D01*
X196567984Y-178505182D01*
X196567984Y-178505182D01*
G37*
D13*
X196838872Y-179200773D03*
G04 #@! TD*
M02*
