G04 #@! TF.FileFunction,Profile,NP*
%FSLAX46Y46*%
G04 Gerber Fmt 4.6, Leading zero omitted, Abs format (unit mm)*
G04 Created by KiCad (PCBNEW 4.0.6) date 04/30/18 02:02:33*
%MOMM*%
%LPD*%
G01*
G04 APERTURE LIST*
%ADD10C,0.100000*%
%ADD11C,0.150000*%
%ADD12C,0.010000*%
G04 APERTURE END LIST*
D10*
D11*
X61500000Y-295000000D02*
G75*
G03X61500000Y-295000000I-3000000J0D01*
G01*
X37400000Y-287800000D02*
X37400000Y-287900000D01*
D12*
G36*
X75562251Y-22293896D02*
X79359825Y-23053590D01*
X83011002Y-24292034D01*
X86472365Y-25985704D01*
X89700497Y-28111071D01*
X92651981Y-30644611D01*
X95283400Y-33562797D01*
X96806079Y-35661458D01*
X100250203Y-41332211D01*
X103255719Y-47294938D01*
X105819406Y-53540851D01*
X107938039Y-60061159D01*
X109608394Y-66847074D01*
X110827250Y-73889807D01*
X110827795Y-73893750D01*
X110989531Y-75419705D01*
X111119842Y-77364724D01*
X111218027Y-79622146D01*
X111283385Y-82085312D01*
X111315216Y-84647561D01*
X111312818Y-87202232D01*
X111275491Y-89642665D01*
X111202535Y-91862199D01*
X111093249Y-93754174D01*
X110966852Y-95060417D01*
X110320524Y-99544805D01*
X109537253Y-103746900D01*
X108582128Y-107793134D01*
X107420237Y-111809939D01*
X106016669Y-115923747D01*
X104336513Y-120260991D01*
X103363582Y-122595761D01*
X100372282Y-129850406D01*
X97703230Y-136808359D01*
X95325021Y-143566558D01*
X93206249Y-150221939D01*
X91315506Y-156871442D01*
X89621387Y-163612004D01*
X88582779Y-168217708D01*
X87726541Y-172186458D01*
X77054167Y-172329706D01*
X77054167Y-212270833D01*
X62766667Y-212270833D01*
X62766667Y-172318750D01*
X58268750Y-172318750D01*
X58268750Y-233437500D01*
X83636327Y-233437500D01*
X83776056Y-234561979D01*
X83864833Y-235388018D01*
X83967891Y-236511280D01*
X84064174Y-237701004D01*
X84071764Y-237803125D01*
X84426085Y-241824085D01*
X84915037Y-246191595D01*
X85516516Y-250746783D01*
X86208414Y-255330778D01*
X86968626Y-259784708D01*
X87569181Y-262938541D01*
X87926711Y-264773426D01*
X88182971Y-266245247D01*
X88354450Y-267506836D01*
X88457637Y-268711028D01*
X88509020Y-270010656D01*
X88525090Y-271558553D01*
X88525459Y-271802083D01*
X88508909Y-273655160D01*
X88447277Y-275129252D01*
X88327701Y-276373560D01*
X88137320Y-277537284D01*
X87959925Y-278362738D01*
X86813657Y-282180688D01*
X85212091Y-285764240D01*
X83188266Y-289080420D01*
X80775223Y-292096256D01*
X78006004Y-294778773D01*
X74913648Y-297094998D01*
X71531196Y-299011957D01*
X67891688Y-300496677D01*
X64956258Y-301319757D01*
X63570472Y-301551509D01*
X61817941Y-301720403D01*
X59852193Y-301823327D01*
X57826753Y-301857172D01*
X55895149Y-301818824D01*
X54210908Y-301705173D01*
X53150458Y-301559016D01*
X49538683Y-300633601D01*
X45960097Y-299248773D01*
X42556400Y-297463042D01*
X41299936Y-296665879D01*
X39938124Y-295630771D01*
X38411274Y-294266068D01*
X36833557Y-292691686D01*
X35319141Y-291027542D01*
X33982198Y-289393550D01*
X32936896Y-287909629D01*
X32886672Y-287829159D01*
X31150007Y-284593992D01*
X29707557Y-280997134D01*
X29093954Y-279036771D01*
X28975458Y-278612399D01*
X28874132Y-278206319D01*
X28788797Y-277775815D01*
X28718277Y-277278175D01*
X28661395Y-276670685D01*
X28616972Y-275910629D01*
X28583831Y-274955296D01*
X28560795Y-273761970D01*
X28546686Y-272287938D01*
X28540327Y-270490486D01*
X28540540Y-268326900D01*
X28546148Y-265754465D01*
X28555974Y-262730469D01*
X28566307Y-259895833D01*
X28558750Y-243192638D01*
X28409402Y-226950341D01*
X28116512Y-211119540D01*
X27678331Y-195650833D01*
X27093108Y-180494819D01*
X26359092Y-165602095D01*
X25474533Y-150923259D01*
X24437680Y-136408910D01*
X23991401Y-130779166D01*
X23724057Y-127483635D01*
X23498331Y-124653220D01*
X23311278Y-122225753D01*
X23159955Y-120139064D01*
X23041417Y-118330983D01*
X22952719Y-116739341D01*
X22890918Y-115301967D01*
X22853069Y-113956693D01*
X22836228Y-112641348D01*
X22836671Y-112152587D01*
X23099206Y-112152587D01*
X23108995Y-113468395D01*
X23138631Y-114791461D01*
X23191048Y-116183846D01*
X23269182Y-117707608D01*
X23375970Y-119424806D01*
X23514347Y-121397501D01*
X23687249Y-123687751D01*
X23897612Y-126357615D01*
X24148372Y-129469154D01*
X24254775Y-130779166D01*
X25332811Y-144981524D01*
X26262874Y-159277604D01*
X27046926Y-173722601D01*
X27686926Y-188371714D01*
X28184837Y-203280140D01*
X28542619Y-218503074D01*
X28762233Y-234095715D01*
X28845640Y-250113258D01*
X28832336Y-259631250D01*
X28819766Y-263085136D01*
X28810490Y-266052117D01*
X28805633Y-268574453D01*
X28806323Y-270694402D01*
X28813686Y-272454222D01*
X28828849Y-273896171D01*
X28852938Y-275062507D01*
X28887080Y-275995490D01*
X28932402Y-276737376D01*
X28990031Y-277330425D01*
X29061092Y-277816894D01*
X29146713Y-278239042D01*
X29248021Y-278639128D01*
X29348683Y-278998242D01*
X30736734Y-283004511D01*
X32513204Y-286651538D01*
X34678778Y-289940197D01*
X37234141Y-292871357D01*
X40179981Y-295445890D01*
X43516982Y-297664669D01*
X44448969Y-298183499D01*
X47998165Y-299794100D01*
X51713177Y-300924182D01*
X55531644Y-301563553D01*
X59391204Y-301702021D01*
X63229497Y-301329393D01*
X63458455Y-301290438D01*
X67375604Y-300350082D01*
X71053654Y-298937772D01*
X74488948Y-297055456D01*
X77677830Y-294705081D01*
X80125625Y-292409785D01*
X82663938Y-289398898D01*
X84750645Y-286119676D01*
X86376047Y-282594872D01*
X87530446Y-278847242D01*
X88204144Y-274899540D01*
X88344745Y-273125000D01*
X88387999Y-272111815D01*
X88398174Y-271181564D01*
X88366001Y-270254267D01*
X88282213Y-269249943D01*
X88137541Y-268088614D01*
X87922717Y-266690299D01*
X87628473Y-264975018D01*
X87245541Y-262862792D01*
X87004892Y-261562730D01*
X85992548Y-255750906D01*
X85168778Y-250182878D01*
X84500432Y-244621968D01*
X84177265Y-241375000D01*
X84011304Y-239603195D01*
X83854134Y-237962936D01*
X83714582Y-236543421D01*
X83601475Y-235433848D01*
X83523638Y-234723414D01*
X83503084Y-234561979D01*
X83380189Y-233702083D01*
X58004167Y-233702083D01*
X58004167Y-172054167D01*
X63031250Y-172054167D01*
X63031250Y-212006250D01*
X76789583Y-212006250D01*
X76789583Y-172065123D01*
X87472065Y-171921875D01*
X88716002Y-166362424D01*
X90962764Y-157166718D01*
X93556091Y-148146358D01*
X96531389Y-139192618D01*
X99924067Y-130196771D01*
X102587128Y-123767708D01*
X104337755Y-119556976D01*
X105824191Y-115678208D01*
X107077496Y-112024226D01*
X108128730Y-108487854D01*
X109008954Y-104961915D01*
X109749227Y-101339231D01*
X110380609Y-97512626D01*
X110561467Y-96251042D01*
X110749632Y-94492799D01*
X110893856Y-92320357D01*
X110994121Y-89843972D01*
X111050410Y-87173899D01*
X111062707Y-84420395D01*
X111030993Y-81693714D01*
X110955252Y-79104114D01*
X110835467Y-76761849D01*
X110671621Y-74777175D01*
X110564929Y-73893750D01*
X109334490Y-66844515D01*
X107649452Y-60047303D01*
X105513110Y-53511112D01*
X102928755Y-47244942D01*
X99899680Y-41257792D01*
X96677723Y-35934810D01*
X94288363Y-32761183D01*
X91567058Y-29977374D01*
X88555513Y-27598792D01*
X85295434Y-25640848D01*
X81828525Y-24118950D01*
X78196492Y-23048510D01*
X74441038Y-22444938D01*
X70603871Y-22323642D01*
X66726694Y-22700034D01*
X63082663Y-23521481D01*
X59425341Y-24853203D01*
X55997021Y-26658651D01*
X52810071Y-28928762D01*
X49876857Y-31654471D01*
X47209749Y-34826714D01*
X46698535Y-35529166D01*
X42418410Y-41996212D01*
X38507902Y-48811334D01*
X34990999Y-55921908D01*
X31891692Y-63275310D01*
X29233971Y-70818917D01*
X27041827Y-78500105D01*
X26959546Y-78827970D01*
X25717205Y-84209952D01*
X24744334Y-89370933D01*
X24019466Y-94473600D01*
X23521138Y-99680634D01*
X23227884Y-105154721D01*
X23159553Y-107628125D01*
X23127420Y-109294512D01*
X23106326Y-110781979D01*
X23099206Y-112152587D01*
X22836671Y-112152587D01*
X22837450Y-111293762D01*
X22853790Y-109851766D01*
X22882305Y-108253191D01*
X22894969Y-107628125D01*
X23155360Y-101238233D01*
X23678764Y-95168087D01*
X24487269Y-89266295D01*
X25602966Y-83381462D01*
X27047943Y-77362195D01*
X27617751Y-75259630D01*
X30000106Y-67631647D01*
X32856733Y-60134592D01*
X36159848Y-52827261D01*
X39881669Y-45768447D01*
X43994412Y-39016944D01*
X46454680Y-35396875D01*
X49062174Y-32130224D01*
X51950394Y-29299527D01*
X55097650Y-26916282D01*
X58482251Y-24991985D01*
X62082507Y-23538132D01*
X65876727Y-22566220D01*
X69843221Y-22087745D01*
X71661696Y-22036480D01*
X75562251Y-22293896D01*
X75562251Y-22293896D01*
G37*
X75562251Y-22293896D02*
X79359825Y-23053590D01*
X83011002Y-24292034D01*
X86472365Y-25985704D01*
X89700497Y-28111071D01*
X92651981Y-30644611D01*
X95283400Y-33562797D01*
X96806079Y-35661458D01*
X100250203Y-41332211D01*
X103255719Y-47294938D01*
X105819406Y-53540851D01*
X107938039Y-60061159D01*
X109608394Y-66847074D01*
X110827250Y-73889807D01*
X110827795Y-73893750D01*
X110989531Y-75419705D01*
X111119842Y-77364724D01*
X111218027Y-79622146D01*
X111283385Y-82085312D01*
X111315216Y-84647561D01*
X111312818Y-87202232D01*
X111275491Y-89642665D01*
X111202535Y-91862199D01*
X111093249Y-93754174D01*
X110966852Y-95060417D01*
X110320524Y-99544805D01*
X109537253Y-103746900D01*
X108582128Y-107793134D01*
X107420237Y-111809939D01*
X106016669Y-115923747D01*
X104336513Y-120260991D01*
X103363582Y-122595761D01*
X100372282Y-129850406D01*
X97703230Y-136808359D01*
X95325021Y-143566558D01*
X93206249Y-150221939D01*
X91315506Y-156871442D01*
X89621387Y-163612004D01*
X88582779Y-168217708D01*
X87726541Y-172186458D01*
X77054167Y-172329706D01*
X77054167Y-212270833D01*
X62766667Y-212270833D01*
X62766667Y-172318750D01*
X58268750Y-172318750D01*
X58268750Y-233437500D01*
X83636327Y-233437500D01*
X83776056Y-234561979D01*
X83864833Y-235388018D01*
X83967891Y-236511280D01*
X84064174Y-237701004D01*
X84071764Y-237803125D01*
X84426085Y-241824085D01*
X84915037Y-246191595D01*
X85516516Y-250746783D01*
X86208414Y-255330778D01*
X86968626Y-259784708D01*
X87569181Y-262938541D01*
X87926711Y-264773426D01*
X88182971Y-266245247D01*
X88354450Y-267506836D01*
X88457637Y-268711028D01*
X88509020Y-270010656D01*
X88525090Y-271558553D01*
X88525459Y-271802083D01*
X88508909Y-273655160D01*
X88447277Y-275129252D01*
X88327701Y-276373560D01*
X88137320Y-277537284D01*
X87959925Y-278362738D01*
X86813657Y-282180688D01*
X85212091Y-285764240D01*
X83188266Y-289080420D01*
X80775223Y-292096256D01*
X78006004Y-294778773D01*
X74913648Y-297094998D01*
X71531196Y-299011957D01*
X67891688Y-300496677D01*
X64956258Y-301319757D01*
X63570472Y-301551509D01*
X61817941Y-301720403D01*
X59852193Y-301823327D01*
X57826753Y-301857172D01*
X55895149Y-301818824D01*
X54210908Y-301705173D01*
X53150458Y-301559016D01*
X49538683Y-300633601D01*
X45960097Y-299248773D01*
X42556400Y-297463042D01*
X41299936Y-296665879D01*
X39938124Y-295630771D01*
X38411274Y-294266068D01*
X36833557Y-292691686D01*
X35319141Y-291027542D01*
X33982198Y-289393550D01*
X32936896Y-287909629D01*
X32886672Y-287829159D01*
X31150007Y-284593992D01*
X29707557Y-280997134D01*
X29093954Y-279036771D01*
X28975458Y-278612399D01*
X28874132Y-278206319D01*
X28788797Y-277775815D01*
X28718277Y-277278175D01*
X28661395Y-276670685D01*
X28616972Y-275910629D01*
X28583831Y-274955296D01*
X28560795Y-273761970D01*
X28546686Y-272287938D01*
X28540327Y-270490486D01*
X28540540Y-268326900D01*
X28546148Y-265754465D01*
X28555974Y-262730469D01*
X28566307Y-259895833D01*
X28558750Y-243192638D01*
X28409402Y-226950341D01*
X28116512Y-211119540D01*
X27678331Y-195650833D01*
X27093108Y-180494819D01*
X26359092Y-165602095D01*
X25474533Y-150923259D01*
X24437680Y-136408910D01*
X23991401Y-130779166D01*
X23724057Y-127483635D01*
X23498331Y-124653220D01*
X23311278Y-122225753D01*
X23159955Y-120139064D01*
X23041417Y-118330983D01*
X22952719Y-116739341D01*
X22890918Y-115301967D01*
X22853069Y-113956693D01*
X22836228Y-112641348D01*
X22836671Y-112152587D01*
X23099206Y-112152587D01*
X23108995Y-113468395D01*
X23138631Y-114791461D01*
X23191048Y-116183846D01*
X23269182Y-117707608D01*
X23375970Y-119424806D01*
X23514347Y-121397501D01*
X23687249Y-123687751D01*
X23897612Y-126357615D01*
X24148372Y-129469154D01*
X24254775Y-130779166D01*
X25332811Y-144981524D01*
X26262874Y-159277604D01*
X27046926Y-173722601D01*
X27686926Y-188371714D01*
X28184837Y-203280140D01*
X28542619Y-218503074D01*
X28762233Y-234095715D01*
X28845640Y-250113258D01*
X28832336Y-259631250D01*
X28819766Y-263085136D01*
X28810490Y-266052117D01*
X28805633Y-268574453D01*
X28806323Y-270694402D01*
X28813686Y-272454222D01*
X28828849Y-273896171D01*
X28852938Y-275062507D01*
X28887080Y-275995490D01*
X28932402Y-276737376D01*
X28990031Y-277330425D01*
X29061092Y-277816894D01*
X29146713Y-278239042D01*
X29248021Y-278639128D01*
X29348683Y-278998242D01*
X30736734Y-283004511D01*
X32513204Y-286651538D01*
X34678778Y-289940197D01*
X37234141Y-292871357D01*
X40179981Y-295445890D01*
X43516982Y-297664669D01*
X44448969Y-298183499D01*
X47998165Y-299794100D01*
X51713177Y-300924182D01*
X55531644Y-301563553D01*
X59391204Y-301702021D01*
X63229497Y-301329393D01*
X63458455Y-301290438D01*
X67375604Y-300350082D01*
X71053654Y-298937772D01*
X74488948Y-297055456D01*
X77677830Y-294705081D01*
X80125625Y-292409785D01*
X82663938Y-289398898D01*
X84750645Y-286119676D01*
X86376047Y-282594872D01*
X87530446Y-278847242D01*
X88204144Y-274899540D01*
X88344745Y-273125000D01*
X88387999Y-272111815D01*
X88398174Y-271181564D01*
X88366001Y-270254267D01*
X88282213Y-269249943D01*
X88137541Y-268088614D01*
X87922717Y-266690299D01*
X87628473Y-264975018D01*
X87245541Y-262862792D01*
X87004892Y-261562730D01*
X85992548Y-255750906D01*
X85168778Y-250182878D01*
X84500432Y-244621968D01*
X84177265Y-241375000D01*
X84011304Y-239603195D01*
X83854134Y-237962936D01*
X83714582Y-236543421D01*
X83601475Y-235433848D01*
X83523638Y-234723414D01*
X83503084Y-234561979D01*
X83380189Y-233702083D01*
X58004167Y-233702083D01*
X58004167Y-172054167D01*
X63031250Y-172054167D01*
X63031250Y-212006250D01*
X76789583Y-212006250D01*
X76789583Y-172065123D01*
X87472065Y-171921875D01*
X88716002Y-166362424D01*
X90962764Y-157166718D01*
X93556091Y-148146358D01*
X96531389Y-139192618D01*
X99924067Y-130196771D01*
X102587128Y-123767708D01*
X104337755Y-119556976D01*
X105824191Y-115678208D01*
X107077496Y-112024226D01*
X108128730Y-108487854D01*
X109008954Y-104961915D01*
X109749227Y-101339231D01*
X110380609Y-97512626D01*
X110561467Y-96251042D01*
X110749632Y-94492799D01*
X110893856Y-92320357D01*
X110994121Y-89843972D01*
X111050410Y-87173899D01*
X111062707Y-84420395D01*
X111030993Y-81693714D01*
X110955252Y-79104114D01*
X110835467Y-76761849D01*
X110671621Y-74777175D01*
X110564929Y-73893750D01*
X109334490Y-66844515D01*
X107649452Y-60047303D01*
X105513110Y-53511112D01*
X102928755Y-47244942D01*
X99899680Y-41257792D01*
X96677723Y-35934810D01*
X94288363Y-32761183D01*
X91567058Y-29977374D01*
X88555513Y-27598792D01*
X85295434Y-25640848D01*
X81828525Y-24118950D01*
X78196492Y-23048510D01*
X74441038Y-22444938D01*
X70603871Y-22323642D01*
X66726694Y-22700034D01*
X63082663Y-23521481D01*
X59425341Y-24853203D01*
X55997021Y-26658651D01*
X52810071Y-28928762D01*
X49876857Y-31654471D01*
X47209749Y-34826714D01*
X46698535Y-35529166D01*
X42418410Y-41996212D01*
X38507902Y-48811334D01*
X34990999Y-55921908D01*
X31891692Y-63275310D01*
X29233971Y-70818917D01*
X27041827Y-78500105D01*
X26959546Y-78827970D01*
X25717205Y-84209952D01*
X24744334Y-89370933D01*
X24019466Y-94473600D01*
X23521138Y-99680634D01*
X23227884Y-105154721D01*
X23159553Y-107628125D01*
X23127420Y-109294512D01*
X23106326Y-110781979D01*
X23099206Y-112152587D01*
X22836671Y-112152587D01*
X22837450Y-111293762D01*
X22853790Y-109851766D01*
X22882305Y-108253191D01*
X22894969Y-107628125D01*
X23155360Y-101238233D01*
X23678764Y-95168087D01*
X24487269Y-89266295D01*
X25602966Y-83381462D01*
X27047943Y-77362195D01*
X27617751Y-75259630D01*
X30000106Y-67631647D01*
X32856733Y-60134592D01*
X36159848Y-52827261D01*
X39881669Y-45768447D01*
X43994412Y-39016944D01*
X46454680Y-35396875D01*
X49062174Y-32130224D01*
X51950394Y-29299527D01*
X55097650Y-26916282D01*
X58482251Y-24991985D01*
X62082507Y-23538132D01*
X65876727Y-22566220D01*
X69843221Y-22087745D01*
X71661696Y-22036480D01*
X75562251Y-22293896D01*
M02*
