<!-- Generator: Adobe Illustrator 21.1.0, SVG Export Plug-In . SVG Version: 6.00 Build 0)  -->
<svg version="1.1" xmlns="http://www.w3.org/2000/svg" xmlns:xlink="http://www.w3.org/1999/xlink" x="0px" y="0px"
	 viewBox="0 0 701.8 828.6" style="enable-background:new 0 0 701.8 828.6;" xml:space="preserve">
<style type="text/css">
	.st0{stroke:#008484;stroke-linecap:round;stroke-linejoin:round;}
	.st1{stroke:#C2C200;stroke-linecap:round;stroke-linejoin:round;}
</style>
<g id="Left_Insole">
	<title>SVG Picture created as Insole_PCB-brd.svg date 2020/04/20 12:20:02</title>
	<desc>Insole_PCB Left</desc>
	<g transform="translate(0 0) scale(1 1)">
	</g>

	<g>
		<circle id="LS0" class="st0" [ngStyle]="{'fill': LsensorsColor[0]}" cx="278.9" cy="300.5" r="29.7"/>
		<circle id="LS1" class="st0" [ngStyle]="{'fill': LsensorsColor[1]}" cx="298.9" cy="239.4" r="29.7"/>
		<circle id="LS2" class="st0" [ngStyle]="{'fill': LsensorsColor[2]}" cx="307.3" cy="178" r="29.7"/>
		<circle id="LS3" class="st0" [ngStyle]="{'fill': LsensorsColor[3]}" cx="300.9" cy="118.3" r="29.7"/>
		<circle id="LS4" class="st0" [ngStyle]="{'fill': LsensorsColor[4]}" cx="273.3" cy="64.7" r="29.7"/>
		<circle id="LS5" class="st0" [ngStyle]="{'fill': LsensorsColor[5]}" cx="240.5" cy="118.4" r="29.7"/>
		<circle id="LS6" class="st0" [ngStyle]="{'fill': LsensorsColor[6]}" cx="246.4" cy="179.4" r="29.7"/>
		<circle id="LS7" class="st0" [ngStyle]="{'fill': LsensorsColor[7]}" cx="220" cy="235.9" r="29.7"/>
		<circle id="LS8" class="st0" [ngStyle]="{'fill': LsensorsColor[8]}" cx="211.2" cy="65.9" r="29.7"/>
		<circle id="LS9" class="st0" [ngStyle]="{'fill': LsensorsColor[9]}" cx="160.1" cy="101.7" r="29.7"/>
		<circle id="LS10" class="st0" [ngStyle]="{'fill': LsensorsColor[10]}" cx="192" cy="153.7" r="29.7"/>
		<circle id="LS11" class="st0" [ngStyle]="{'fill': LsensorsColor[11]}" cx="119.1" cy="148.6" r="29.7"/>
		<circle id="LS12" class="st0" [ngStyle]="{'fill': LsensorsColor[12]}" cx="159.7" cy="204.3" r="29.7"/>
		<circle id="LS13" class="st0" [ngStyle]="{'fill': LsensorsColor[13]}" cx="85.4" cy="204.3" r="29.7"/>
		<circle id="LS14" class="st0" [ngStyle]="{'fill': LsensorsColor[14]}" cx="208.5" cy="300" r="29.7"/>
		<circle id="LS15" class="st0" [ngStyle]="{'fill': LsensorsColor[15]}" cx="141" cy="261.1" r="29.7"/>
		<circle id="LS16" class="st0" [ngStyle]="{'fill': LsensorsColor[16]}" cx="79.5" cy="266.6" r="29.7"/>
		<circle id="LS17" class="st0" [ngStyle]="{'fill': LsensorsColor[17]}" cx="82.2" cy="331.5" r="29.7"/>
		<circle id="LS18" class="st0" [ngStyle]="{'fill': LsensorsColor[18]}" cx="146.8" cy="321" r="29.7"/>
		<circle id="LS19" class="st0" [ngStyle]="{'fill': LsensorsColor[19]}" cx="154.6" cy="382" r="29.7"/>
		<circle id="LS20" class="st0" [ngStyle]="{'fill': LsensorsColor[20]}" cx="96" cy="394.9" r="29.7"/>
		<circle id="LS21" class="st0" [ngStyle]="{'fill': LsensorsColor[21]}" cx="116.5" cy="461.3" r="29.7"/>
		<circle id="LS22" class="st0" [ngStyle]="{'fill': LsensorsColor[22]}" cx="125" cy="529.8" r="29.7"/>
		<circle id="LS23" class="st0" [ngStyle]="{'fill': LsensorsColor[23]}" cx="130.1" cy="595.2" r="29.7"/>
		<circle id="LS24" class="st0" [ngStyle]="{'fill': LsensorsColor[24]}" cx="247.2" cy="654.3" r="29.7"/>
		<circle id="LS25" class="st0" [ngStyle]="{'fill': LsensorsColor[25]}" cx="256.3" cy="713.8" r="29.7"/>
		<circle id="LS26" class="st0" [ngStyle]="{'fill': LsensorsColor[26]}" cx="225.9" cy="765.7" r="29.7"/>
		<circle id="LS27" class="st0" [ngStyle]="{'fill': LsensorsColor[27]}" cx="163" cy="766.2" r="29.7"/>
		<circle id="LS28" class="st0" [ngStyle]="{'fill': LsensorsColor[28]}" cx="129.4" cy="716.4" r="29.7"/>
		<circle id="LS29" class="st0" [ngStyle]="{'fill': LsensorsColor[29]}" cx="192.1" cy="704.4" r="29.7"/>
		<circle id="LS30" class="st0" [ngStyle]="{'fill': LsensorsColor[30]}" cx="131.4" cy="656" r="29.7"/>
		<circle id="LS31" class="st0" [ngStyle]="{'fill': LsensorsColor[31]}" cx="189.3" cy="639.6" r="29.7"/>
	</g>
	<g>
		<path class="st0" d="M272.2,95.5l0.5-0.2h0.8l0.3,0.2l0.2,0.2l0.2,0.3v0.3l-0.2,0.3l-0.2,0.2l-0.3,0.2l-0.7,0.2l-0.3,0.2l-0.2,0.2
			l-0.2,0.3v0.3l0.2,0.3l0.2,0.2l0.3,0.2h0.8l0.5-0.2"/>
		<path class="st0" d="M269.2,98.8v-2.3"/>
		<path class="st0" d="M268.7,97.6h2.2l-0.8-2.5"/>
		<path class="st0" d="M159.1,132.5l0.5-0.2h0.8l0.3,0.2l0.2,0.2l0.2,0.3v0.3l-0.2,0.3l-0.2,0.2l-0.3,0.2l-0.7,0.2l-0.3,0.2
			l-0.2,0.2l-0.2,0.3v0.3l0.2,0.3l0.2,0.2l0.3,0.2h0.8l0.5-0.2"/>
		<path class="st0" d="M155.7,133.8l0.2,0.3l0.2,0.2l0.3,0.2h0.7l0.3-0.2l0.2-0.2l0.2-0.3V133l-0.2-0.3l-0.2-0.2l-0.3-0.2h-0.7
			l-0.3,0.2l-0.2,0.2l-0.2,0.3v1.3l0.2,0.7l0.3,0.5l0.2,0.2l0.3,0.2h0.7"/>
		<path class="st0" d="M262.3,543.4l-0.3,0l-0.5-0.1l-0.4-0.3l-0.2-0.5l-0.2-2.5"/>
		<path class="st0" d="M257.5,543.8l2.2-0.2l-2.1-1.9l-0.2-0.5l0-0.3l0.1-0.3l0.2-0.2l0.3-0.2l0.8-0.1l0.3,0.1l0.2,0.2"/>
		<path class="st0" d="M224.2,578.9l0-0.3l0.2-0.5l0.3-0.3l0.5-0.2l2.5-0.1"/>
		<path class="st0" d="M224.1,576.1l-0.1-2"/>
		<path class="st0" d="M226.6,576l0.2-0.3l0.3-0.3l0.5-0.4l-3.5,0.1"/>
		<path class="st0" d="M277.8,331.3l0.5-0.2h0.8l0.3,0.2l0.2,0.2l0.2,0.3v0.3l-0.2,0.3l-0.2,0.2l-0.3,0.2l-0.7,0.2l-0.3,0.2
			l-0.2,0.2l-0.2,0.3v0.3l0.2,0.3l0.2,0.2l0.3,0.2h0.8l0.5-0.2"/>
		<path class="st0" d="M275.6,331.1l0.3,0.2l0.2,0.2l0.2,0.3l0.2,0.7v0.8l-0.2,0.7l-0.2,0.3l-0.2,0.2l-0.3,0.2h-0.3l-0.3-0.2
			l-0.2-0.2l-0.2-0.3l-0.2-0.7v-0.8l0.2-0.7l0.2-0.3l0.2-0.2l0.3-0.2H275.6"/>
		<path class="st0" d="M297.9,270.2l0.5-0.2h0.8l0.3,0.2l0.2,0.2l0.2,0.3v0.3l-0.2,0.3l-0.2,0.2l-0.3,0.2l-0.7,0.2l-0.3,0.2
			l-0.2,0.2l-0.2,0.3v0.3l0.2,0.3l0.2,0.2l0.3,0.2h0.8l0.5-0.2"/>
		<path class="st0" d="M296.5,273.5h-2"/>
		<path class="st0" d="M296.5,271l-0.3-0.2l-0.3-0.3l-0.3-0.5v3.5"/>
		<path class="st0" d="M306.3,208.8l0.5-0.2h0.8l0.3,0.2l0.2,0.2l0.2,0.3v0.3l-0.2,0.3l-0.2,0.2l-0.3,0.2l-0.7,0.2l-0.3,0.2
			l-0.2,0.2l-0.2,0.3v0.3l0.2,0.3l0.2,0.2l0.3,0.2h0.8l0.5-0.2"/>
		<path class="st0" d="M302.9,212.1h2.2l-2-2l-0.2-0.5v-0.3l0.2-0.3l0.2-0.2l0.3-0.2h0.8l0.3,0.2l0.2,0.2"/>
		<path class="st0" d="M301.8,143.5l0.5-0.2h0.8l0.3,0.2l0.2,0.2l0.2,0.3v0.3l-0.2,0.3l-0.2,0.2l-0.3,0.2l-0.7,0.2l-0.3,0.2
			l-0.2,0.2l-0.2,0.3v0.3l0.2,0.3l0.2,0.2l0.3,0.2h0.8l0.5-0.2"/>
		<path class="st0" d="M300.6,146.5l-0.2,0.2l-0.3,0.2h-1l-0.3-0.2l-0.2-0.2l-0.2-0.3v-0.8l0.2-0.3l0.2-0.2l0.3-0.2h0.5l-1.2-1.3
			h2.2"/>
		<path class="st0" d="M241.7,143.8l0.5-0.2h0.8l0.3,0.2l0.2,0.2l0.2,0.3v0.3l-0.2,0.3l-0.2,0.2l-0.3,0.2l-0.7,0.2l-0.3,0.2
			l-0.2,0.2l-0.2,0.3v0.3l0.2,0.3l0.2,0.2l0.3,0.2h0.8l0.5-0.2"/>
		<path class="st0" d="M240.4,146.8l-0.2,0.2l-0.3,0.2h-0.8l-0.3-0.2l-0.2-0.2l-0.2-0.3v-0.8l0.2-0.3l0.2-0.2l0.3-0.2h0.8l0.3,0.2
			l0.2,0.2l-0.2-1.7h-1.7"/>
		<path class="st0" d="M245.3,210.1l0.5-0.2h0.8l0.3,0.2l0.2,0.2l0.2,0.3v0.3l-0.2,0.3l-0.2,0.2l-0.3,0.2l-0.7,0.2l-0.3,0.2
			l-0.2,0.2l-0.2,0.3v0.3l0.2,0.3l0.2,0.2l0.3,0.2h0.8l0.5-0.2"/>
		<path class="st0" d="M244,212l-0.2-0.3l-0.2-0.2l-0.3-0.2h-0.7l-0.3,0.2l-0.2,0.2L242,212v0.8l0.2,0.3l0.2,0.2l0.3,0.2h0.7
			l0.3-0.2l0.2-0.2l0.2-0.3v-1.3l-0.2-0.7l-0.3-0.5l-0.2-0.2L243,210h-0.7"/>
		<path class="st0" d="M218.9,266.6l0.5-0.2h0.8l0.3,0.2l0.2,0.2l0.2,0.3v0.3l-0.2,0.3l-0.2,0.2l-0.3,0.2l-0.7,0.2l-0.3,0.2
			l-0.2,0.2l-0.2,0.3v0.3l0.2,0.3l0.2,0.2l0.3,0.2h0.8l0.5-0.2"/>
		<path class="st0" d="M216.9,270l-1.5-3.5h2.3"/>
		<path class="st0" d="M210.1,96.7l0.5-0.2h0.8l0.3,0.2l0.2,0.2l0.2,0.3v0.3l-0.2,0.3l-0.2,0.2l-0.3,0.2l-0.7,0.2l-0.3,0.2l-0.2,0.2
			l-0.2,0.3v0.3l0.2,0.3l0.2,0.2l0.3,0.2h0.8l0.5-0.2"/>
		<path class="st0" d="M207.4,98l-0.3,0.2l-0.2,0.2l-0.2,0.3v0.7l0.2,0.3l0.2,0.2l0.3,0.2h0.7l0.3-0.2l0.2-0.2l0.2-0.3v-0.7
			l-0.2-0.3l-0.2-0.2l-0.3-0.2H207.4l-0.3-0.2l-0.2-0.2l-0.2-0.3v-0.2l0.2-0.3l0.2-0.2l0.3-0.2h0.7l0.3,0.2l0.2,0.2l0.2,0.3v0.2
			l-0.2,0.3l-0.2,0.2l-0.3,0.2"/>
		<path class="st0" d="M192.6,184.5l0.5-0.2h0.8l0.3,0.2l0.2,0.2l0.2,0.3v0.3l-0.2,0.3l-0.2,0.2L194,186l-0.7,0.2l-0.3,0.2l-0.2,0.2
			l-0.2,0.3v0.3l0.2,0.3l0.2,0.2l0.3,0.2h0.8l0.5-0.2"/>
		<path class="st0" d="M191.3,187.8h-2"/>
		<path class="st0" d="M191.3,185.3l-0.3-0.2l-0.3-0.3l-0.3-0.5v3.5"/>
		<path class="st0" d="M187.1,184.3l0.3,0.2l0.2,0.2l0.2,0.3l0.2,0.7v0.8l-0.2,0.7l-0.2,0.3l-0.2,0.2l-0.3,0.2h-0.3l-0.3-0.2
			l-0.2-0.2l-0.2-0.3l-0.2-0.7v-0.8l0.2-0.7l0.2-0.3l0.2-0.2l0.3-0.2H187.1"/>
		<path class="st0" d="M119.7,179.4l0.5-0.2h0.8l0.3,0.2l0.2,0.2l0.2,0.3v0.3l-0.2,0.3l-0.2,0.2l-0.3,0.2l-0.7,0.2l-0.3,0.2
			l-0.2,0.2l-0.2,0.3v0.3l0.2,0.3l0.2,0.2l0.3,0.2h0.8l0.5-0.2"/>
		<path class="st0" d="M118.4,182.7h-2"/>
		<path class="st0" d="M118.4,180.2l-0.3-0.2l-0.3-0.3l-0.3-0.5v3.5"/>
		<path class="st0" d="M115,182.7h-2"/>
		<path class="st0" d="M115,180.2l-0.3-0.2l-0.3-0.3l-0.3-0.5v3.5"/>
		<path class="st0" d="M160.2,235.1l0.5-0.2h0.8l0.3,0.2l0.2,0.2l0.2,0.3v0.3l-0.2,0.3l-0.2,0.2l-0.3,0.2l-0.7,0.2l-0.3,0.2
			l-0.2,0.2l-0.2,0.3v0.3l0.2,0.3l0.2,0.2l0.3,0.2h0.8l0.5-0.2"/>
		<path class="st0" d="M158.9,238.4h-2"/>
		<path class="st0" d="M158.9,235.9l-0.3-0.2l-0.3-0.3l-0.3-0.5v3.5"/>
		<path class="st0" d="M153.6,238.4h2.2l-2-2l-0.2-0.5v-0.3l0.2-0.3l0.2-0.2l0.3-0.2h0.8l0.3,0.2l0.2,0.2"/>
		<path class="st0" d="M86,235.1l0.5-0.2h0.8l0.3,0.2l0.2,0.2l0.2,0.3v0.3l-0.2,0.3l-0.2,0.2l-0.3,0.2l-0.7,0.2l-0.3,0.2l-0.2,0.2
			l-0.2,0.3v0.3l0.2,0.3l0.2,0.2l0.3,0.2h0.8l0.5-0.2"/>
		<path class="st0" d="M84.7,238.4h-2"/>
		<path class="st0" d="M84.7,235.9l-0.3-0.2l-0.3-0.3l-0.3-0.5v3.5"/>
		<path class="st0" d="M81.5,238.1l-0.2,0.2l-0.3,0.2h-1l-0.3-0.2l-0.2-0.2l-0.2-0.3v-0.8l0.2-0.3l0.2-0.2l0.3-0.2h0.5l-1.2-1.3h2.2
			"/>
		<path class="st0" d="M209.1,330.8l0.5-0.2h0.8l0.3,0.2l0.2,0.2l0.2,0.3v0.3l-0.2,0.3l-0.2,0.2l-0.3,0.2l-0.7,0.2l-0.3,0.2
			l-0.2,0.2l-0.2,0.3v0.3l0.2,0.3l0.2,0.2l0.3,0.2h0.8l0.5-0.2"/>
		<path class="st0" d="M207.8,334.1h-2"/>
		<path class="st0" d="M207.8,331.6l-0.3-0.2l-0.3-0.3l-0.3-0.5v3.5"/>
		<path class="st0" d="M202.8,334.1v-2.3"/>
		<path class="st0" d="M202.3,332.9h2.2l-0.8-2.5"/>
		<path class="st0" d="M143.5,286.2l0.5-0.2h0.8l0.3,0.2l0.2,0.2l0.2,0.3v0.3l-0.2,0.3l-0.2,0.2l-0.3,0.2l-0.7,0.2l-0.3,0.2
			l-0.2,0.2l-0.2,0.3v0.3l0.2,0.3l0.2,0.2l0.3,0.2h0.8l0.5-0.2"/>
		<path class="st0" d="M142.1,289.5h-2"/>
		<path class="st0" d="M142.1,287l-0.3-0.2l-0.3-0.3l-0.3-0.5v3.5"/>
		<path class="st0" d="M138.8,289.2l-0.2,0.2l-0.3,0.2h-0.8l-0.3-0.2l-0.2-0.2l-0.2-0.3V288l0.2-0.3l0.2-0.2l0.3-0.2h0.8l0.3,0.2
			l0.2,0.2l-0.2-1.7H137"/>
		<path class="st0" d="M80,297.4l0.5-0.2h0.8l0.3,0.2l0.2,0.2l0.2,0.3v0.3l-0.2,0.3l-0.2,0.2l-0.3,0.2l-0.7,0.2l-0.3,0.2l-0.2,0.2
			l-0.2,0.3v0.3l0.2,0.3l0.2,0.2l0.3,0.2h0.8l0.5-0.2"/>
		<path class="st0" d="M78.7,300.7h-2"/>
		<path class="st0" d="M78.7,298.2l-0.3-0.2l-0.3-0.3l-0.3-0.5v3.5"/>
		<path class="st0" d="M75.4,299.2l-0.2-0.3l-0.2-0.2l-0.3-0.2h-0.7l-0.3,0.2l-0.2,0.2l-0.2,0.3v0.8l0.2,0.3l0.2,0.2l0.3,0.2h0.7
			l0.3-0.2l0.2-0.2l0.2-0.3v-1.3l-0.2-0.7l-0.3-0.5l-0.2-0.2l-0.3-0.2h-0.7"/>
		<path class="st0" d="M82.8,362.2l0.5-0.2h0.8l0.3,0.2l0.2,0.2l0.2,0.3v0.3l-0.2,0.3l-0.2,0.2l-0.3,0.2l-0.7,0.2l-0.3,0.2l-0.2,0.2
			l-0.2,0.3v0.3l0.2,0.3l0.2,0.2l0.3,0.2h0.8l0.5-0.2"/>
		<path class="st0" d="M81.5,365.5h-2"/>
		<path class="st0" d="M81.5,363.1l-0.3-0.2l-0.3-0.3l-0.3-0.5v3.5"/>
		<path class="st0" d="M77.5,365.5L76,362h2.3"/>
		<path class="st0" d="M147.4,351.7l0.5-0.2h0.8l0.3,0.2l0.2,0.2l0.2,0.3v0.3l-0.2,0.3l-0.2,0.2l-0.3,0.2l-0.7,0.2l-0.3,0.2
			l-0.2,0.2l-0.2,0.3v0.3l0.2,0.3l0.2,0.2l0.3,0.2h0.8l0.5-0.2"/>
		<path class="st0" d="M146.1,355.1h-2"/>
		<path class="st0" d="M146.1,352.6l-0.3-0.2l-0.3-0.3l-0.3-0.5v3.5"/>
		<path class="st0" d="M141.4,353.1l-0.3,0.2l-0.2,0.2l-0.2,0.3v0.7l0.2,0.3l0.2,0.2l0.3,0.2h0.7l0.3-0.2l0.2-0.2l0.2-0.3v-0.7
			l-0.2-0.3l-0.2-0.2l-0.3-0.2H141.4l-0.3-0.2l-0.2-0.2l-0.2-0.3v-0.2l0.2-0.3l0.2-0.2l0.3-0.2h0.7l0.3,0.2l0.2,0.2l0.2,0.3v0.2
			l-0.2,0.3l-0.2,0.2l-0.3,0.2"/>
		<path class="st0" d="M155.2,412.8l0.5-0.2h0.8l0.3,0.2l0.2,0.2l0.2,0.3v0.3l-0.2,0.3l-0.2,0.2l-0.3,0.2l-0.7,0.2l-0.3,0.2
			l-0.2,0.2l-0.2,0.3v0.3l0.2,0.3l0.2,0.2l0.3,0.2h0.8l0.5-0.2"/>
		<path class="st0" d="M153.8,416.1h-2"/>
		<path class="st0" d="M153.8,413.6l-0.3-0.2l-0.3-0.3l-0.3-0.5v3.5"/>
		<path class="st0" d="M148.5,414.1l0.2,0.3l0.2,0.2l0.3,0.2h0.7l0.3-0.2l0.2-0.2l0.2-0.3v-0.8l-0.2-0.3l-0.2-0.2l-0.3-0.2h-0.7
			l-0.3,0.2l-0.2,0.2l-0.2,0.3v1.3l0.2,0.7l0.3,0.5l0.2,0.2l0.3,0.2h0.7"/>
		<path class="st0" d="M96.6,425.7l0.5-0.2h0.8l0.3,0.2l0.2,0.2l0.2,0.3v0.3l-0.2,0.3l-0.2,0.2l-0.3,0.2l-0.7,0.2l-0.3,0.2l-0.2,0.2
			l-0.2,0.3v0.3l0.2,0.3l0.2,0.2l0.3,0.2h0.8l0.5-0.2"/>
		<path class="st0" d="M93.3,429h2.2l-2-2l-0.2-0.5v-0.3l0.2-0.3l0.2-0.2l0.3-0.2h0.8l0.3,0.2l0.2,0.2"/>
		<path class="st0" d="M91.1,425.5l0.3,0.2l0.2,0.2l0.2,0.3l0.2,0.7v0.8l-0.2,0.7l-0.2,0.3l-0.2,0.2l-0.3,0.2h-0.3l-0.3-0.2
			l-0.2-0.2l-0.2-0.3l-0.2-0.7v-0.8l0.2-0.7l0.2-0.3l0.2-0.2l0.3-0.2H91.1"/>
		<path class="st0" d="M117.1,492.1l0.5-0.2h0.8l0.3,0.2l0.2,0.2l0.2,0.3v0.3l-0.2,0.3l-0.2,0.2l-0.3,0.2l-0.7,0.2l-0.3,0.2
			l-0.2,0.2l-0.2,0.3v0.3l0.2,0.3l0.2,0.2l0.3,0.2h0.8l0.5-0.2"/>
		<path class="st0" d="M113.8,495.4h2.2l-2-2l-0.2-0.5v-0.3l0.2-0.3l0.2-0.2l0.3-0.2h0.8l0.3,0.2l0.2,0.2"/>
		<path class="st0" d="M112.4,495.4h-2"/>
		<path class="st0" d="M112.4,492.9l-0.3-0.2l-0.3-0.3l-0.3-0.5v3.5"/>
		<path class="st0" d="M125.6,560.6l0.5-0.2h0.8l0.3,0.2l0.2,0.2l0.2,0.3v0.3l-0.2,0.3l-0.2,0.2l-0.3,0.2l-0.7,0.2l-0.3,0.2
			l-0.2,0.2l-0.2,0.3v0.3l0.2,0.3l0.2,0.2l0.3,0.2h0.8l0.5-0.2"/>
		<path class="st0" d="M122.3,563.9h2.2l-2-2l-0.2-0.5v-0.3l0.2-0.3l0.2-0.2l0.3-0.2h0.8l0.3,0.2l0.2,0.2"/>
		<path class="st0" d="M119,563.9h2.2l-2-2l-0.2-0.5v-0.3l0.2-0.3l0.2-0.2l0.3-0.2h0.8l0.3,0.2l0.2,0.2"/>
		<path class="st0" d="M132.9,620.5l0.5-0.2h0.8l0.3,0.2l0.2,0.2l0.2,0.3v0.3l-0.2,0.3l-0.2,0.2l-0.3,0.2l-0.7,0.2l-0.3,0.2
			l-0.2,0.2l-0.2,0.3v0.3l0.2,0.3l0.2,0.2l0.3,0.2h0.8l0.5-0.2"/>
		<path class="st0" d="M129.6,623.9h2.2l-2-2l-0.2-0.5V621l0.2-0.3l0.2-0.2l0.3-0.2h0.8l0.3,0.2l0.2,0.2"/>
		<path class="st0" d="M128.4,623.5l-0.2,0.2l-0.3,0.2h-1l-0.3-0.2l-0.2-0.2l-0.2-0.3v-0.8l0.2-0.3l0.2-0.2l0.3-0.2h0.5l-1.2-1.3
			h2.2"/>
		<path class="st0" d="M250.9,679.6l0.5-0.2h0.8l0.3,0.2l0.2,0.2l0.2,0.3v0.3l-0.2,0.3l-0.2,0.2l-0.3,0.2l-0.7,0.2l-0.3,0.2
			l-0.2,0.2l-0.2,0.3v0.3l0.2,0.3l0.2,0.2l0.3,0.2h0.8l0.5-0.2"/>
		<path class="st0" d="M247.6,682.9h2.2l-2-2l-0.2-0.5v-0.3l0.2-0.3l0.2-0.2l0.3-0.2h0.8l0.3,0.2l0.2,0.2"/>
		<path class="st0" d="M244.6,682.9v-2.3"/>
		<path class="st0" d="M244.1,681.7h2.2l-0.8-2.5"/>
		<path class="st0" d="M256.9,744.6l0.5-0.2h0.8l0.3,0.2l0.2,0.2l0.2,0.3v0.3l-0.2,0.3l-0.2,0.2l-0.3,0.2l-0.7,0.2l-0.3,0.2
			l-0.2,0.2l-0.2,0.3v0.3l0.2,0.3l0.2,0.2l0.3,0.2h0.8l0.5-0.2"/>
		<path class="st0" d="M253.6,747.9h2.2l-2-2l-0.2-0.5v-0.3l0.2-0.3l0.2-0.2l0.3-0.2h0.8l0.3,0.2l0.2,0.2"/>
		<path class="st0" d="M252.2,747.6l-0.2,0.2l-0.3,0.2h-0.8l-0.3-0.2l-0.2-0.2l-0.2-0.3v-0.8l0.2-0.3l0.2-0.2l0.3-0.2h0.8l0.3,0.2
			l0.2,0.2l-0.2-1.7h-1.7"/>
		<path class="st0" d="M219.1,796.4l0.5-0.2h0.8l0.3,0.2l0.2,0.2l0.2,0.3v0.3l-0.2,0.3l-0.2,0.2l-0.3,0.2l-0.7,0.2l-0.3,0.2
			l-0.2,0.2l-0.2,0.3v0.3l0.2,0.3l0.2,0.2l0.3,0.2h0.8l0.5-0.2"/>
		<path class="st0" d="M215.8,799.7h2.2l-2-2l-0.2-0.5v-0.3l0.2-0.3l0.2-0.2l0.3-0.2h0.8l0.3,0.2l0.2,0.2"/>
		<path class="st0" d="M214.4,798.2l-0.2-0.3l-0.2-0.2l-0.3-0.2h-0.7l-0.3,0.2l-0.2,0.2l-0.2,0.3v0.8l0.2,0.3l0.2,0.2l0.3,0.2h0.7
			l0.3-0.2l0.2-0.2l0.2-0.3v-1.3l-0.2-0.7l-0.3-0.5l-0.2-0.2l-0.3-0.2h-0.7"/>
		<path class="st0" d="M175.3,797.1l0.5-0.2h0.8l0.3,0.2l0.2,0.2l0.2,0.3v0.3l-0.2,0.3l-0.2,0.2l-0.3,0.2l-0.7,0.2l-0.3,0.2
			l-0.2,0.2l-0.2,0.3v0.3l0.2,0.3l0.2,0.2l0.3,0.2h0.8l0.5-0.2"/>
		<path class="st0" d="M172,800.5h2.2l-2-2L172,798v-0.3l0.2-0.3l0.2-0.2l0.3-0.2h0.8l0.3,0.2l0.2,0.2"/>
		<path class="st0" d="M170,800.5l-1.5-3.5h2.3"/>
		<path class="st0" d="M130,747.1l0.5-0.2h0.8l0.3,0.2l0.2,0.2l0.2,0.3v0.3l-0.2,0.3l-0.2,0.2l-0.3,0.2l-0.7,0.2l-0.3,0.2l-0.2,0.2
			l-0.2,0.3v0.3l0.2,0.3l0.2,0.2l0.3,0.2h0.8l0.5-0.2"/>
		<path class="st0" d="M126.7,750.5h2.2l-2-2l-0.2-0.5v-0.3l0.2-0.3l0.2-0.2l0.3-0.2h0.8l0.3,0.2l0.2,0.2"/>
		<path class="st0" d="M124,748.5l-0.3,0.2l-0.2,0.2l-0.2,0.3v0.7l0.2,0.3l0.2,0.2l0.3,0.2h0.7l0.3-0.2l0.2-0.2l0.2-0.3v-0.7
			l-0.2-0.3l-0.2-0.2l-0.3-0.2H124l-0.3-0.2l-0.2-0.2l-0.2-0.3v-0.2l0.2-0.3l0.2-0.2l0.3-0.2h0.7l0.3,0.2l0.2,0.2l0.2,0.3v0.2
			l-0.2,0.3l-0.2,0.2l-0.3,0.2"/>
		<path class="st0" d="M192.7,735.1l0.5-0.2h0.8l0.3,0.2l0.2,0.2l0.2,0.3v0.3l-0.2,0.3l-0.2,0.2l-0.3,0.2l-0.7,0.2L193,737l-0.2,0.2
			l-0.2,0.3v0.3l0.2,0.3l0.2,0.2l0.3,0.2h0.8l0.5-0.2"/>
		<path class="st0" d="M189.3,738.5h2.2l-2-2l-0.2-0.5v-0.3l0.2-0.3l0.2-0.2l0.3-0.2h0.8l0.3,0.2l0.2,0.2"/>
		<path class="st0" d="M186,736.5l0.2,0.3l0.2,0.2l0.3,0.2h0.7l0.3-0.2l0.2-0.2l0.2-0.3v-0.8l-0.2-0.3l-0.2-0.2l-0.3-0.2h-0.7
			l-0.3,0.2l-0.2,0.2l-0.2,0.3v1.3l0.2,0.7l0.3,0.5l0.2,0.2l0.3,0.2h0.7"/>
		<path class="st0" d="M132.9,681.4l0.5-0.2h0.8l0.3,0.2l0.2,0.2l0.2,0.3v0.3l-0.2,0.3l-0.2,0.2l-0.3,0.2l-0.7,0.2l-0.3,0.2
			l-0.2,0.2l-0.2,0.3v0.3l0.2,0.3l0.2,0.2l0.3,0.2h0.8l0.5-0.2"/>
		<path class="st0" d="M131.7,684.4l-0.2,0.2l-0.3,0.2h-1l-0.3-0.2l-0.2-0.2l-0.2-0.3v-0.8l0.2-0.3l0.2-0.2l0.3-0.2h0.5l-1.2-1.3
			h2.2"/>
		<path class="st0" d="M127.4,681.3l0.3,0.2l0.2,0.2l0.2,0.3l0.2,0.7v0.8l-0.2,0.7l-0.2,0.3l-0.2,0.2l-0.3,0.2H127l-0.3-0.2
			l-0.2-0.2l-0.2-0.3l-0.2-0.7v-0.8l0.2-0.7l0.2-0.3l0.2-0.2l0.3-0.2H127.4"/>
		<path class="st0" d="M191.7,664.8l0.5-0.2h0.8l0.3,0.2l0.2,0.2l0.2,0.3v0.3l-0.2,0.3l-0.2,0.2l-0.3,0.2l-0.7,0.2l-0.3,0.2
			l-0.2,0.2l-0.2,0.3v0.3l0.2,0.3l0.2,0.2l0.3,0.2h0.8l0.5-0.2"/>
		<path class="st0" d="M190.5,667.8l-0.2,0.2l-0.3,0.2h-1l-0.3-0.2l-0.2-0.2l-0.2-0.3v-0.8l0.2-0.3l0.2-0.2l0.3-0.2h0.5l-1.2-1.3
			h2.2"/>
		<path class="st0" d="M187,668.1h-2"/>
		<path class="st0" d="M187,665.6l-0.3-0.2l-0.3-0.3l-0.3-0.5v3.5"/>
	</g>
	<g>
		<path class="st1" d="M276.9,756.9l7.2-16.6"/>
		<path class="st1" d="M288.8,704.7l-3.1-18"/>
		<path class="st1" d="M222.5,802l16.8-7"/>
		<path class="st1" d="M100.9,662.1l-0.6,12"/>
		<path class="st1" d="M204.8,806.1l17.7-4.1"/>
		<path class="st1" d="M100.3,674.1l-1,12"/>
		<path class="st1" d="M254.2,784.8l12.6-12.9"/>
		<path class="st1" d="M89.6,530.6l2.4,19.9"/>
		<path class="st1" d="M91.9,550.5l2.2,19.9"/>
		<path class="st1" d="M94.2,570.4l2,19.9"/>
		<path class="st1" d="M98,610.2l1.5,20"/>
		<path class="st1" d="M100.5,650.1l0.3,12"/>
		<path class="st1" d="M152,797.1l16.9,6.3"/>
		<path class="st1" d="M266.8,771.9l10.1-15"/>
		<path class="st1" d="M284.1,740.3l4.1-17.6"/>
		<path class="st1" d="M136.5,787.9l15.5,9.2"/>
		<path class="st1" d="M98.3,722l1.9,11.7"/>
		<path class="st1" d="M186.7,806.5l18-0.4"/>
		<path class="st1" d="M123,776l13.6,11.9"/>
		<path class="st1" d="M100.2,733.8l3.8,11.6"/>
		<path class="st1" d="M104,745.3l7.9,16.4"/>
		<path class="st1" d="M288.2,722.7l0.6-18"/>
		<path class="st1" d="M99.4,630.2l1.1,20"/>
		<path class="st1" d="M98.4,698.2l-0.5,12"/>
		<path class="st1" d="M111.9,761.7l11,14.3"/>
		<path class="st1" d="M239.3,795l14.9-10.2"/>
		<path class="st1" d="M97.9,710.2l0.5,11.9"/>
		<path class="st1" d="M84.6,490.9l2.5,19.8"/>
		<path class="st1" d="M87.1,510.8l2.5,19.9"/>
		<path class="st1" d="M96.2,590.3l1.8,19.9"/>
		<path class="st1" d="M99.3,686.2l-1,12"/>
		<path class="st1" d="M169,803.4l17.8,3.1"/>
		<path class="st1" d="M265,497.2l1.5-22.8"/>
		<path class="st1" d="M282.7,674.6l-2.7-12.2"/>
		<path class="st1" d="M280,662.5l-2.4-12.2"/>
		<path class="st1" d="M266.4,474.4l3.3-22.5"/>
		<path class="st1" d="M285.7,686.7l-3-12.1"/>
		<path class="st1" d="M275.5,638l-1.9-12.3"/>
		<path class="st1" d="M273.6,625.7l-1.7-12.3"/>
		<path class="st1" d="M269.7,451.9l5.4-22.1"/>
		<path class="st1" d="M272,613.4l-1.5-12.4"/>
		<path class="st1" d="M275.2,429.8l8-21.6"/>
		<path class="st1" d="M277.6,650.3l-2.1-12.3"/>
		<path class="st1" d="M264.9,520.1l0.1-23"/>
		<path class="st1" d="M265.8,543.1l-0.9-23"/>
		<path class="st1" d="M48.8,228l-0.6,12.5"/>
		<path class="st1" d="M75.3,446.4l3.9,14.6"/>
		<path class="st1" d="M325,81.1l-3.6-10.3"/>
		<path class="st1" d="M47.4,273.9L47,290.7"/>
		<path class="st1" d="M285.2,34.7l-14.9-2.6"/>
		<path class="st1" d="M80,148.1l-7.3,10.1"/>
		<path class="st1" d="M224.3,31.5l-15,2.7"/>
		<path class="st1" d="M57.3,388.5l4.4,14.5"/>
		<path class="st1" d="M70.9,431.9l4.3,14.5"/>
		<path class="st1" d="M50.3,357.5l3,16.5"/>
		<path class="st1" d="M53.2,373.9l4,14.6"/>
		<path class="st1" d="M79.1,461.1l3.2,14.8"/>
		<path class="st1" d="M321.5,70.8l-4.6-9.8"/>
		<path class="st1" d="M337.1,165.7l-1.7-21.4"/>
		<path class="st1" d="M209.3,34.2l-14.6,4.4"/>
		<path class="st1" d="M194.7,38.6l-13.9,6.2"/>
		<path class="st1" d="M46.9,307.5l0.4,16.7"/>
		<path class="st1" d="M167.8,53l-12.5,10.3"/>
		<path class="st1" d="M110.4,110l-10.3,12.6"/>
		<path class="st1" d="M48.3,340.9l1.9,16.6"/>
		<path class="st1" d="M60.9,180.1l-4.5,11.6"/>
		<path class="st1" d="M338.7,273l0.2-21.4"/>
		<path class="st1" d="M100.1,122.6L90,135.3"/>
		<path class="st1" d="M180.8,44.8l-13,8.2"/>
		<path class="st1" d="M47.3,324.2l1,16.7"/>
		<path class="st1" d="M50.4,215.7L48.8,228"/>
		<path class="st1" d="M333,123l-3.1-21.2"/>
		<path class="st1" d="M48.2,240.5l-0.3,16.7"/>
		<path class="st1" d="M82.3,475.9l2.3,15"/>
		<path class="st1" d="M131.9,85.7l-11,12"/>
		<path class="st1" d="M52.9,203.5l-2.5,12.2"/>
		<path class="st1" d="M283.2,408.2l8-16.5"/>
		<path class="st1" d="M325.4,326.3l6.5-17.1"/>
		<path class="st1" d="M66.4,417.5l4.6,14.5"/>
		<path class="st1" d="M331.9,309.2l4.6-17.7"/>
		<path class="st1" d="M61.7,403l4.6,14.4"/>
		<path class="st1" d="M316.9,61l-5.8-8.9"/>
		<path class="st1" d="M270.3,32.1L255,30.6"/>
		<path class="st1" d="M304,44.6l-8.6-6"/>
		<path class="st1" d="M47,290.7l-0.1,16.8"/>
		<path class="st1" d="M155.3,63.3l-11.9,11"/>
		<path class="st1" d="M47.8,257.2l-0.4,16.7"/>
		<path class="st1" d="M291.1,391.7l8.7-16.3"/>
		<path class="st1" d="M299.9,375.5l9-16.2"/>
		<path class="st1" d="M308.8,359.2l8.7-16.3"/>
		<path class="st1" d="M317.5,342.9l7.8-16.6"/>
		<path class="st1" d="M239.6,30.3l-15.3,1.2"/>
		<path class="st1" d="M327.8,91.5L325,81.1"/>
		<path class="st1" d="M143.3,74.2l-11.4,11.5"/>
		<path class="st1" d="M311.1,52.2l-7.1-7.6"/>
		<path class="st1" d="M66.3,168.9l-5.4,11.2"/>
		<path class="st1" d="M336.5,291.5l2.2-18.5"/>
		<path class="st1" d="M339,251.6l0-21.5"/>
		<path class="st1" d="M339,230.1l-0.2-21.5"/>
		<path class="st1" d="M329.9,101.7l-2.1-10.2"/>
		<path class="st1" d="M56.4,191.6l-3.5,11.9"/>
		<path class="st1" d="M295.4,38.6l-10.2-4"/>
		<path class="st1" d="M255,30.6l-15.4-0.2"/>
		<path class="st1" d="M121,97.7L110.4,110"/>
		<path class="st1" d="M72.7,158.2l-6.4,10.7"/>
		<path class="st1" d="M338.8,208.6l-0.6-21.5"/>
		<path class="st1" d="M338.2,187.2l-1.1-21.4"/>
		<path class="st1" d="M90,135.3l-10,12.8"/>
		<path class="st1" d="M335.4,144.3L333,123"/>
		<path class="st1" d="M270.5,601l-1.8-9.1"/>
		<path class="st1" d="M247.8,562.9l0.9,24.9"/>
		<path class="st1" d="M248.7,587.8C248.7,587.8,248.7,587.8,248.7,587.8c0.1,0.8,0.8,1.4,1.6,1.3"/>
		<path class="st1" d="M250.2,589.1l16.6-0.6"/>
		<path class="st1" d="M248.8,561.9c-0.5,0-0.9,0.5-1,1"/>
		<path class="st1" d="M268,589.5C268,589.5,268,589.5,268,589.5c-0.1-0.6-0.6-1.1-1.2-1"/>
		<path class="st1" d="M265.8,561.3C265.8,561.3,265.8,561.3,265.8,561.3c0.6-0.1,1.1-0.6,1-1.2"/>
		<path class="st1" d="M268.7,591.9l-0.7-2.4"/>
		<path class="st1" d="M248.8,561.9l17-0.6"/>
		<path class="st1" d="M266.8,560l-1-16.9"/>
	</g>
</g>
<g id="Right_Insole">
	<title>SVG Picture created as Insole_PCB-brd.svg date 2020/04/20 12:20:02</title>
	<desc>Insole_PCB right side</desc>
	<g transform="translate(0 0) scale(1 1)">
	</g>
	<g>
		<circle id="RS0" class="st0" [ngStyle]="{'fill': RsensorsColor[0]}" cx="422.1" cy="300.5" r="29.7"/>
		<circle id="RS1" class="st0" [ngStyle]="{'fill': RsensorsColor[1]}" cx="402" cy="239.4" r="29.7"/>
		<circle id="RS2" class="st0" [ngStyle]="{'fill': RsensorsColor[2]}" cx="393.6" cy="178" r="29.7"/>
		<circle id="RS3" class="st0" [ngStyle]="{'fill': RsensorsColor[3]}" cx="400" cy="118.3" r="29.7"/>
		<circle id="RS4" class="st0" [ngStyle]="{'fill': RsensorsColor[4]}" cx="427.7" cy="64.7" r="29.7"/>
		<circle id="RS5" class="st0" [ngStyle]="{'fill': RsensorsColor[5]}" cx="460.5" cy="118.4" r="29.7"/>
		<circle id="RS6" class="st0" [ngStyle]="{'fill': RsensorsColor[6]}" cx="454.5" cy="179.4" r="29.7"/>
		<circle id="RS7" class="st0" [ngStyle]="{'fill': RsensorsColor[7]}" cx="481" cy="235.9" r="29.7"/>
		<circle id="RS8" class="st0" [ngStyle]="{'fill': RsensorsColor[8]}" cx="489.8" cy="65.9" r="29.7"/>
		<circle id="RS9" class="st0" [ngStyle]="{'fill': RsensorsColor[9]}" cx="540.8" cy="101.7" r="29.7"/>
		<circle id="RS10" class="st0" [ngStyle]="{'fill': RsensorsColor[10]}"  cx="508.9" cy="153.7" r="29.7"/>
		<circle id="RS11" class="st0" [ngStyle]="{'fill': RsensorsColor[11]}"  cx="581.8" cy="148.6" r="29.7"/>
		<circle id="RS12" class="st0" [ngStyle]="{'fill': RsensorsColor[12]}"  cx="541.3" cy="204.3" r="29.7"/>
		<circle id="RS13" class="st0" [ngStyle]="{'fill': RsensorsColor[13]}"  cx="615.5" cy="204.3" r="29.7"/>
		<circle id="RS14" class="st0" [ngStyle]="{'fill': RsensorsColor[14]}"  cx="492.4" cy="300" r="29.7"/>
		<circle id="RS15" class="st0" [ngStyle]="{'fill': RsensorsColor[15]}"  cx="560" cy="261.1" r="29.7"/>
		<circle id="RS16" class="st0" [ngStyle]="{'fill': RsensorsColor[16]}"  cx="621.5" cy="266.6" r="29.7"/>
		<circle id="RS17" class="st0" [ngStyle]="{'fill': RsensorsColor[17]}"  cx="618.7" cy="331.5" r="29.7"/>
		<circle id="RS18" class="st0" [ngStyle]="{'fill': RsensorsColor[18]}"  cx="554.1" cy="321" r="29.7"/>
		<circle id="RS19" class="st0" [ngStyle]="{'fill': RsensorsColor[19]}"  cx="546.4" cy="382" r="29.7"/>
		<circle id="RS20" class="st0" [ngStyle]="{'fill': RsensorsColor[20]}"  cx="605" cy="394.9" r="29.7"/>
		<circle id="RS21" class="st0" [ngStyle]="{'fill': RsensorsColor[21]}"  cx="584.4" cy="461.3" r="29.7"/>
		<circle id="RS22" class="st0" [ngStyle]="{'fill': RsensorsColor[22]}"  cx="575.9" cy="529.8" r="29.7"/>
		<circle id="RS23" class="st0" [ngStyle]="{'fill': RsensorsColor[23]}"  cx="570.8" cy="595.2" r="29.7"/>
		<circle id="RS24" class="st0" [ngStyle]="{'fill': RsensorsColor[24]}"  cx="453.7" cy="654.3" r="29.7"/>
		<circle id="RS25" class="st0" [ngStyle]="{'fill': RsensorsColor[25]}"  cx="444.6" cy="713.8" r="29.7"/>
		<circle id="RS26" class="st0" [ngStyle]="{'fill': RsensorsColor[26]}"  cx="475" cy="765.7" r="29.7"/>
		<circle id="RS27" class="st0" [ngStyle]="{'fill': RsensorsColor[27]}"  cx="538" cy="766.2" r="29.7"/>
		<circle id="RS28" class="st0" [ngStyle]="{'fill': RsensorsColor[28]}"  cx="571.5" cy="716.4" r="29.7"/>
		<circle id="RS29" class="st0" [ngStyle]="{'fill': RsensorsColor[29]}"  cx="508.9" cy="704.4" r="29.7"/>
		<circle id="RS30" class="st0" [ngStyle]="{'fill': RsensorsColor[30]}"  cx="569.5" cy="656" r="29.7"/>
		<circle id="RS31" class="st0" [ngStyle]="{'fill': RsensorsColor[31]}"  cx="511.6" cy="639.6" r="29.7"/>
	</g>
	<g>
		<path class="st0" d="M426.7,98.6l0.5,0.2h0.8l0.3-0.2l0.2-0.2l0.2-0.3v-0.3l-0.2-0.3l-0.2-0.2l-0.3-0.2l-0.7-0.2l-0.3-0.2
			l-0.2-0.2l-0.2-0.3V96l0.2-0.3l0.2-0.2l0.3-0.2h0.8l0.5,0.2"/>
		<path class="st0" d="M431.7,96.5v2.3"/>
		<path class="st0" d="M430.9,95.1l-0.8,2.5h2.2"/>
		<path class="st0" d="M539.9,135.6l0.5,0.2h0.8l0.3-0.2l0.2-0.2l0.2-0.3v-0.3l-0.2-0.3l-0.2-0.2l-0.3-0.2l-0.7-0.2l-0.3-0.2
			l-0.2-0.2l-0.2-0.3V133l0.2-0.3l0.2-0.2l0.3-0.2h0.8l0.5,0.2"/>
		<path class="st0" d="M543.5,135.8h0.7l0.3-0.2l0.2-0.2l0.3-0.5l0.2-0.7V133l-0.2-0.3l-0.2-0.2l-0.3-0.2h-0.7l-0.3,0.2l-0.2,0.2
			l-0.2,0.3v0.8l0.2,0.3l0.2,0.2l0.3,0.2h0.7l0.3-0.2l0.2-0.2l0.2-0.3"/>
		<path class="st0" d="M440.2,540l-0.2,2.5l-0.2,0.5l-0.4,0.3l-0.5,0.1l-0.3,0"/>
		<path class="st0" d="M441.7,540.5l0.2-0.2l0.3-0.1l0.8,0.1l0.3,0.2l0.2,0.2l0.1,0.3l0,0.3l-0.2,0.5l-2.1,1.9l2.2,0.2"/>
		<path class="st0" d="M473.3,577.4l2.5,0.1l0.5,0.2l0.3,0.3l0.2,0.5l0,0.3"/>
		<path class="st0" d="M476.9,574.1l-0.1,2"/>
		<path class="st0" d="M476.8,575.1l-3.5-0.1l0.5,0.4l0.3,0.3l0.2,0.3"/>
		<path class="st0" d="M421.1,334.5l0.5,0.2h0.8l0.3-0.2l0.2-0.2l0.2-0.3v-0.3l-0.2-0.3l-0.2-0.2l-0.3-0.2l-0.7-0.2l-0.3-0.2
			l-0.2-0.2l-0.2-0.3v-0.3l0.2-0.3l0.2-0.2l0.3-0.2h0.8l0.5,0.2"/>
		<path class="st0" d="M425.3,331.1h0.3l0.3,0.2l0.2,0.2l0.2,0.3l0.2,0.7v0.8l-0.2,0.7l-0.2,0.3l-0.2,0.2l-0.3,0.2h-0.3l-0.3-0.2
			l-0.2-0.2l-0.2-0.3l-0.2-0.7v-0.8l0.2-0.7l0.2-0.3l0.2-0.2L425.3,331.1"/>
		<path class="st0" d="M401.1,273.3l0.5,0.2h0.8l0.3-0.2l0.2-0.2l0.2-0.3v-0.3l-0.2-0.3l-0.2-0.2l-0.3-0.2l-0.7-0.2l-0.3-0.2
			l-0.2-0.2l-0.2-0.3v-0.3l0.2-0.3l0.2-0.2l0.3-0.2h0.8l0.5,0.2"/>
		<path class="st0" d="M406.4,273.5h-2"/>
		<path class="st0" d="M405.4,273.5V270l-0.3,0.5l-0.3,0.3l-0.3,0.2"/>
		<path class="st0" d="M392.7,212l0.5,0.2h0.8l0.3-0.2l0.2-0.2l0.2-0.3v-0.3l-0.2-0.3l-0.2-0.2l-0.3-0.2l-0.7-0.2l-0.3-0.2l-0.2-0.2
			l-0.2-0.3v-0.3l0.2-0.3l0.2-0.2l0.3-0.2h0.8l0.5,0.2"/>
		<path class="st0" d="M396,209l0.2-0.2l0.3-0.2h0.8l0.3,0.2l0.2,0.2l0.2,0.3v0.3l-0.2,0.5l-2,2h2.2"/>
		<path class="st0" d="M397.1,146.6l0.5,0.2h0.8l0.3-0.2l0.2-0.2l0.2-0.3v-0.3l-0.2-0.3l-0.2-0.2l-0.3-0.2l-0.7-0.2l-0.3-0.2
			l-0.2-0.2l-0.2-0.3V144l0.2-0.3l0.2-0.2l0.3-0.2h0.8l0.5,0.2"/>
		<path class="st0" d="M400.3,143.3h2.2l-1.2,1.3h0.5l0.3,0.2l0.2,0.2l0.2,0.3v0.8l-0.2,0.3l-0.2,0.2l-0.3,0.2h-1l-0.3-0.2l-0.2-0.2
			"/>
		<path class="st0" d="M457.2,147l0.5,0.2h0.8l0.3-0.2l0.2-0.2l0.2-0.3v-0.3l-0.2-0.3l-0.2-0.2l-0.3-0.2l-0.7-0.2l-0.3-0.2l-0.2-0.2
			l-0.2-0.3v-0.3l0.2-0.3l0.2-0.2l0.3-0.2h0.8l0.5,0.2"/>
		<path class="st0" d="M462.4,143.6h-1.7l-0.2,1.7l0.2-0.2l0.3-0.2h0.8l0.3,0.2l0.2,0.2l0.2,0.3v0.8l-0.2,0.3l-0.2,0.2l-0.3,0.2
			h-0.8l-0.3-0.2l-0.2-0.2"/>
		<path class="st0" d="M453.6,213.3l0.5,0.2h0.8l0.3-0.2l0.2-0.2l0.2-0.3v-0.3l-0.2-0.3l-0.2-0.2l-0.3-0.2l-0.7-0.2l-0.3-0.2
			l-0.2-0.2l-0.2-0.3v-0.3l0.2-0.3l0.2-0.2l0.3-0.2h0.8l0.5,0.2"/>
		<path class="st0" d="M458.6,210H458l-0.3,0.2l-0.2,0.2l-0.3,0.5l-0.2,0.7v1.3l0.2,0.3l0.2,0.2l0.3,0.2h0.7l0.3-0.2l0.2-0.2
			l0.2-0.3V212l-0.2-0.3l-0.2-0.2l-0.3-0.2h-0.7l-0.3,0.2l-0.2,0.2L457,212"/>
		<path class="st0" d="M480.1,269.8l0.5,0.2h0.8l0.3-0.2l0.2-0.2l0.2-0.3V269l-0.2-0.3l-0.2-0.2l-0.3-0.2l-0.7-0.2l-0.3-0.2
			l-0.2-0.2l-0.2-0.3v-0.3l0.2-0.3l0.2-0.2l0.3-0.2h0.8l0.5,0.2"/>
		<path class="st0" d="M483.2,266.5h2.3l-1.5,3.5"/>
		<path class="st0" d="M488.8,99.9l0.5,0.2h0.8l0.3-0.2l0.2-0.2l0.2-0.3V99l-0.2-0.3l-0.2-0.2l-0.3-0.2l-0.7-0.2l-0.3-0.2l-0.2-0.2
			l-0.2-0.3v-0.3l0.2-0.3l0.2-0.2l0.3-0.2h0.8l0.5,0.2"/>
		<path class="st0" d="M492.8,98l-0.3-0.2l-0.2-0.2l-0.2-0.3v-0.2l0.2-0.3l0.2-0.2l0.3-0.2h0.7l0.3,0.2l0.2,0.2l0.2,0.3v0.2
			l-0.2,0.3l-0.2,0.2l-0.3,0.2H492.8l-0.3,0.2l-0.2,0.2l-0.2,0.3v0.7l0.2,0.3l0.2,0.2l0.3,0.2h0.7l0.3-0.2l0.2-0.2l0.2-0.3v-0.7
			l-0.2-0.3l-0.2-0.2l-0.3-0.2"/>
		<path class="st0" d="M506.3,187.6l0.5,0.2h0.8l0.3-0.2l0.2-0.2l0.2-0.3v-0.3l-0.2-0.3l-0.2-0.2l-0.3-0.2L507,186l-0.3-0.2
			l-0.2-0.2l-0.2-0.3V185l0.2-0.3l0.2-0.2l0.3-0.2h0.8l0.5,0.2"/>
		<path class="st0" d="M511.7,187.8h-2"/>
		<path class="st0" d="M510.7,187.8v-3.5l-0.3,0.5l-0.3,0.3l-0.3,0.2"/>
		<path class="st0" d="M513.8,184.3h0.3l0.3,0.2l0.2,0.2l0.2,0.3l0.2,0.7v0.8l-0.2,0.7l-0.2,0.3l-0.2,0.2l-0.3,0.2h-0.3l-0.3-0.2
			l-0.2-0.2l-0.2-0.3l-0.2-0.7v-0.8l0.2-0.7l0.2-0.3l0.2-0.2L513.8,184.3"/>
		<path class="st0" d="M579.3,182.6l0.5,0.2h0.8l0.3-0.2l0.2-0.2l0.2-0.3v-0.3l-0.2-0.3l-0.2-0.2l-0.3-0.2l-0.7-0.2l-0.3-0.2
			l-0.2-0.2l-0.2-0.3v-0.3l0.2-0.3l0.2-0.2l0.3-0.2h0.8l0.5,0.2"/>
		<path class="st0" d="M584.6,182.7h-2"/>
		<path class="st0" d="M583.6,182.7v-3.5l-0.3,0.5l-0.3,0.3l-0.3,0.2"/>
		<path class="st0" d="M587.9,182.7h-2"/>
		<path class="st0" d="M586.9,182.7v-3.5l-0.3,0.5l-0.3,0.3l-0.3,0.2"/>
		<path class="st0" d="M538.7,238.3l0.5,0.2h0.8l0.3-0.2l0.2-0.2l0.2-0.3v-0.3l-0.2-0.3l-0.2-0.2l-0.3-0.2l-0.7-0.2l-0.3-0.2
			l-0.2-0.2l-0.2-0.3v-0.3l0.2-0.3l0.2-0.2l0.3-0.2h0.8l0.5,0.2"/>
		<path class="st0" d="M544,238.4h-2"/>
		<path class="st0" d="M543,238.4v-3.5l-0.3,0.5l-0.3,0.3l-0.3,0.2"/>
		<path class="st0" d="M545.4,235.3l0.2-0.2l0.3-0.2h0.8l0.3,0.2l0.2,0.2l0.2,0.3v0.3l-0.2,0.5l-2,2h2.2"/>
		<path class="st0" d="M613,238.3l0.5,0.2h0.8l0.3-0.2l0.2-0.2l0.2-0.3v-0.3l-0.2-0.3l-0.2-0.2l-0.3-0.2l-0.7-0.2l-0.3-0.2l-0.2-0.2
			l-0.2-0.3v-0.3l0.2-0.3l0.2-0.2l0.3-0.2h0.8l0.5,0.2"/>
		<path class="st0" d="M618.3,238.4h-2"/>
		<path class="st0" d="M617.3,238.4v-3.5l-0.3,0.5l-0.3,0.3l-0.3,0.2"/>
		<path class="st0" d="M619.4,234.9h2.2l-1.2,1.3h0.5l0.3,0.2l0.2,0.2l0.2,0.3v0.8l-0.2,0.3l-0.2,0.2l-0.3,0.2h-1l-0.3-0.2l-0.2-0.2
			"/>
		<path class="st0" d="M489.8,333.9l0.5,0.2h0.8l0.3-0.2l0.2-0.2l0.2-0.3v-0.3l-0.2-0.3l-0.2-0.2l-0.3-0.2l-0.7-0.2l-0.3-0.2
			l-0.2-0.2l-0.2-0.3v-0.3l0.2-0.3l0.2-0.2l0.3-0.2h0.8l0.5,0.2"/>
		<path class="st0" d="M495.2,334.1h-2"/>
		<path class="st0" d="M494.2,334.1v-3.5l-0.3,0.5l-0.3,0.3l-0.3,0.2"/>
		<path class="st0" d="M498.2,331.7v2.3"/>
		<path class="st0" d="M497.3,330.4l-0.8,2.5h2.2"/>
		<path class="st0" d="M555.5,289.4l0.5,0.2h0.8l0.3-0.2l0.2-0.2l0.2-0.3v-0.3l-0.2-0.3l-0.2-0.2l-0.3-0.2l-0.7-0.2l-0.3-0.2
			l-0.2-0.2l-0.2-0.3v-0.3l0.2-0.3l0.2-0.2l0.3-0.2h0.8l0.5,0.2"/>
		<path class="st0" d="M560.8,289.5h-2"/>
		<path class="st0" d="M559.8,289.5V286l-0.3,0.5l-0.3,0.3l-0.3,0.2"/>
		<path class="st0" d="M564,286h-1.7l-0.2,1.7l0.2-0.2l0.3-0.2h0.8l0.3,0.2l0.2,0.2l0.2,0.3v0.8l-0.2,0.3l-0.2,0.2l-0.3,0.2h-0.8
			l-0.3-0.2l-0.2-0.2"/>
		<path class="st0" d="M618.9,300.5l0.5,0.2h0.8l0.3-0.2l0.2-0.2l0.2-0.3v-0.3l-0.2-0.3l-0.2-0.2l-0.3-0.2l-0.7-0.2l-0.3-0.2
			l-0.2-0.2l-0.2-0.3v-0.3l0.2-0.3l0.2-0.2l0.3-0.2h0.8l0.5,0.2"/>
		<path class="st0" d="M624.2,300.7h-2"/>
		<path class="st0" d="M623.2,300.7v-3.5l-0.3,0.5l-0.3,0.3l-0.3,0.2"/>
		<path class="st0" d="M627.2,297.2h-0.7l-0.3,0.2l-0.2,0.2l-0.3,0.5l-0.2,0.7v1.3l0.2,0.3l0.2,0.2l0.3,0.2h0.7l0.3-0.2l0.2-0.2
			l0.2-0.3v-0.8l-0.2-0.3l-0.2-0.2l-0.3-0.2h-0.7l-0.3,0.2l-0.2,0.2l-0.2,0.3"/>
		<path class="st0" d="M616.1,365.4l0.5,0.2h0.8l0.3-0.2l0.2-0.2l0.2-0.3v-0.3l-0.2-0.3l-0.2-0.2l-0.3-0.2l-0.7-0.2l-0.3-0.2
			l-0.2-0.2l-0.2-0.3v-0.3l0.2-0.3l0.2-0.2l0.3-0.2h0.8l0.5,0.2"/>
		<path class="st0" d="M621.5,365.5h-2"/>
		<path class="st0" d="M620.5,365.5V362l-0.3,0.5l-0.3,0.3l-0.3,0.2"/>
		<path class="st0" d="M622.6,362h2.3l-1.5,3.5"/>
		<path class="st0" d="M551.5,354.9l0.5,0.2h0.8l0.3-0.2l0.2-0.2l0.2-0.3v-0.3l-0.2-0.3l-0.2-0.2l-0.3-0.2l-0.7-0.2l-0.3-0.2
			l-0.2-0.2l-0.2-0.3v-0.3l0.2-0.3l0.2-0.2l0.3-0.2h0.8l0.5,0.2"/>
		<path class="st0" d="M556.9,355.1h-2"/>
		<path class="st0" d="M555.9,355.1v-3.5l-0.3,0.5l-0.3,0.3l-0.3,0.2"/>
		<path class="st0" d="M558.9,353.1l-0.3-0.2l-0.2-0.2l-0.2-0.3v-0.2l0.2-0.3l0.2-0.2l0.3-0.2h0.7l0.3,0.2l0.2,0.2l0.2,0.3v0.2
			l-0.2,0.3l-0.2,0.2l-0.3,0.2H558.9l-0.3,0.2l-0.2,0.2l-0.2,0.3v0.7l0.2,0.3l0.2,0.2l0.3,0.2h0.7l0.3-0.2l0.2-0.2l0.2-0.3v-0.7
			l-0.2-0.3l-0.2-0.2l-0.3-0.2"/>
		<path class="st0" d="M543.8,415.9l0.5,0.2h0.8l0.3-0.2l0.2-0.2l0.2-0.3v-0.3l-0.2-0.3l-0.2-0.2l-0.3-0.2l-0.7-0.2l-0.3-0.2
			l-0.2-0.2l-0.2-0.3v-0.3l0.2-0.3l0.2-0.2l0.3-0.2h0.8l0.5,0.2"/>
		<path class="st0" d="M549.1,416.1h-2"/>
		<path class="st0" d="M548.1,416.1v-3.5l-0.3,0.5l-0.3,0.3l-0.3,0.2"/>
		<path class="st0" d="M550.8,416.1h0.7l0.3-0.2l0.2-0.2l0.3-0.5l0.2-0.7v-1.3l-0.2-0.3l-0.2-0.2l-0.3-0.2h-0.7l-0.3,0.2l-0.2,0.2
			l-0.2,0.3v0.8l0.2,0.3l0.2,0.2l0.3,0.2h0.7l0.3-0.2l0.2-0.2l0.2-0.3"/>
		<path class="st0" d="M602.4,428.8l0.5,0.2h0.8l0.3-0.2l0.2-0.2l0.2-0.3V428l-0.2-0.3l-0.2-0.2l-0.3-0.2l-0.7-0.2l-0.3-0.2
			l-0.2-0.2l-0.2-0.3v-0.3l0.2-0.3l0.2-0.2l0.3-0.2h0.8l0.5,0.2"/>
		<path class="st0" d="M605.7,425.8l0.2-0.2l0.3-0.2h0.8l0.3,0.2l0.2,0.2l0.2,0.3v0.3l-0.2,0.5l-2,2h2.2"/>
		<path class="st0" d="M609.9,425.5h0.3l0.3,0.2l0.2,0.2l0.2,0.3l0.2,0.7v0.8l-0.2,0.7l-0.2,0.3l-0.2,0.2l-0.3,0.2h-0.3l-0.3-0.2
			l-0.2-0.2l-0.2-0.3l-0.2-0.7v-0.8l0.2-0.7l0.2-0.3l0.2-0.2L609.9,425.5"/>
		<path class="st0" d="M581.8,495.2l0.5,0.2h0.8l0.3-0.2l0.2-0.2l0.2-0.3v-0.3l-0.2-0.3l-0.2-0.2l-0.3-0.2l-0.7-0.2l-0.3-0.2
			l-0.2-0.2l-0.2-0.3v-0.3l0.2-0.3l0.2-0.2l0.3-0.2h0.8l0.5,0.2"/>
		<path class="st0" d="M585.2,492.2l0.2-0.2l0.3-0.2h0.8l0.3,0.2l0.2,0.2l0.2,0.3v0.3l-0.2,0.5l-2,2h2.2"/>
		<path class="st0" d="M590.5,495.4h-2"/>
		<path class="st0" d="M589.5,495.4v-3.5l-0.3,0.5l-0.3,0.3l-0.3,0.2"/>
		<path class="st0" d="M573.3,563.7l0.5,0.2h0.8l0.3-0.2l0.2-0.2l0.2-0.3v-0.3l-0.2-0.3l-0.2-0.2l-0.3-0.2l-0.7-0.2l-0.3-0.2
			l-0.2-0.2l-0.2-0.3v-0.3l0.2-0.3l0.2-0.2l0.3-0.2h0.8l0.5,0.2"/>
		<path class="st0" d="M576.6,560.7l0.2-0.2l0.3-0.2h0.8l0.3,0.2l0.2,0.2l0.2,0.3v0.3l-0.2,0.5l-2,2h2.2"/>
		<path class="st0" d="M580,560.7l0.2-0.2l0.3-0.2h0.8l0.3,0.2l0.2,0.2l0.2,0.3v0.3l-0.2,0.5l-2,2h2.2"/>
		<path class="st0" d="M566,623.7l0.5,0.2h0.8l0.3-0.2l0.2-0.2l0.2-0.3v-0.3l-0.2-0.3l-0.2-0.2l-0.3-0.2l-0.7-0.2l-0.3-0.2l-0.2-0.2
			l-0.2-0.3V621l0.2-0.3l0.2-0.2l0.3-0.2h0.8l0.5,0.2"/>
		<path class="st0" d="M569.3,620.7l0.2-0.2l0.3-0.2h0.8l0.3,0.2l0.2,0.2l0.2,0.3v0.3l-0.2,0.5l-2,2h2.2"/>
		<path class="st0" d="M572.5,620.4h2.2l-1.2,1.3h0.5l0.3,0.2l0.2,0.2l0.2,0.3v0.8l-0.2,0.3l-0.2,0.2l-0.3,0.2h-1l-0.3-0.2l-0.2-0.2
			"/>
		<path class="st0" d="M448,682.7l0.5,0.2h0.8l0.3-0.2l0.2-0.2l0.2-0.3v-0.3l-0.2-0.3l-0.2-0.2l-0.3-0.2l-0.7-0.2l-0.3-0.2l-0.2-0.2
			l-0.2-0.3v-0.3l0.2-0.3l0.2-0.2l0.3-0.2h0.8l0.5,0.2"/>
		<path class="st0" d="M451.4,679.7l0.2-0.2l0.3-0.2h0.8l0.3,0.2l0.2,0.2l0.2,0.3v0.3l-0.2,0.5l-2,2h2.2"/>
		<path class="st0" d="M456.4,680.6v2.3"/>
		<path class="st0" d="M455.5,679.2l-0.8,2.5h2.2"/>
		<path class="st0" d="M442,747.7l0.5,0.2h0.8l0.3-0.2l0.2-0.2l0.2-0.3v-0.3l-0.2-0.3l-0.2-0.2l-0.3-0.2l-0.7-0.2l-0.3-0.2l-0.2-0.2
			l-0.2-0.3v-0.3l0.2-0.3l0.2-0.2l0.3-0.2h0.8l0.5,0.2"/>
		<path class="st0" d="M445.4,744.8l0.2-0.2l0.3-0.2h0.8l0.3,0.2l0.2,0.2l0.2,0.3v0.3l-0.2,0.5l-2,2h2.2"/>
		<path class="st0" d="M450.5,744.4h-1.7l-0.2,1.7l0.2-0.2l0.3-0.2h0.8l0.3,0.2l0.2,0.2l0.2,0.3v0.8l-0.2,0.3l-0.2,0.2l-0.3,0.2
			h-0.8l-0.3-0.2l-0.2-0.2"/>
		<path class="st0" d="M479.9,799.6l0.5,0.2h0.8l0.3-0.2l0.2-0.2l0.2-0.3v-0.3l-0.2-0.3l-0.2-0.2l-0.3-0.2l-0.7-0.2l-0.3-0.2
			l-0.2-0.2l-0.2-0.3v-0.3l0.2-0.3l0.2-0.2l0.3-0.2h0.8l0.5,0.2"/>
		<path class="st0" d="M483.2,796.6l0.2-0.2l0.3-0.2h0.8l0.3,0.2l0.2,0.2l0.2,0.3v0.3l-0.2,0.5l-2,2h2.2"/>
		<path class="st0" d="M488.2,796.2h-0.7l-0.3,0.2l-0.2,0.2l-0.3,0.5l-0.2,0.7v1.3l0.2,0.3l0.2,0.2l0.3,0.2h0.7l0.3-0.2l0.2-0.2
			l0.2-0.3v-0.8l-0.2-0.3l-0.2-0.2l-0.3-0.2h-0.7l-0.3,0.2l-0.2,0.2l-0.2,0.3"/>
		<path class="st0" d="M523.6,800.3l0.5,0.2h0.8l0.3-0.2l0.2-0.2l0.2-0.3v-0.3l-0.2-0.3l-0.2-0.2l-0.3-0.2l-0.7-0.2l-0.3-0.2
			l-0.2-0.2l-0.2-0.3v-0.3l0.2-0.3l0.2-0.2l0.3-0.2h0.8l0.5,0.2"/>
		<path class="st0" d="M527,797.3l0.2-0.2l0.3-0.2h0.8l0.3,0.2l0.2,0.2l0.2,0.3v0.3l-0.2,0.5l-2,2h2.2"/>
		<path class="st0" d="M530.1,797h2.3l-1.5,3.5"/>
		<path class="st0" d="M568.9,750.3l0.5,0.2h0.8l0.3-0.2l0.2-0.2l0.2-0.3v-0.3l-0.2-0.3l-0.2-0.2l-0.3-0.2l-0.7-0.2l-0.3-0.2
			l-0.2-0.2l-0.2-0.3v-0.3l0.2-0.3l0.2-0.2l0.3-0.2h0.8l0.5,0.2"/>
		<path class="st0" d="M572.2,747.3l0.2-0.2l0.3-0.2h0.8l0.3,0.2l0.2,0.2l0.2,0.3v0.3l-0.2,0.5l-2,2h2.2"/>
		<path class="st0" d="M576.2,748.5l-0.3-0.2l-0.2-0.2l-0.2-0.3v-0.2l0.2-0.3l0.2-0.2l0.3-0.2h0.7l0.3,0.2l0.2,0.2l0.2,0.3v0.2
			l-0.2,0.3l-0.2,0.2l-0.3,0.2H576.2l-0.3,0.2l-0.2,0.2l-0.2,0.3v0.7l0.2,0.3l0.2,0.2l0.3,0.2h0.7l0.3-0.2l0.2-0.2l0.2-0.3v-0.7
			l-0.2-0.3l-0.2-0.2l-0.3-0.2"/>
		<path class="st0" d="M506.3,738.3l0.5,0.2h0.8l0.3-0.2l0.2-0.2l0.2-0.3v-0.3l-0.2-0.3L508,737l-0.3-0.2l-0.7-0.2l-0.3-0.2
			l-0.2-0.2l-0.2-0.3v-0.3l0.2-0.3l0.2-0.2l0.3-0.2h0.8l0.5,0.2"/>
		<path class="st0" d="M509.6,735.3l0.2-0.2l0.3-0.2h0.8l0.3,0.2l0.2,0.2l0.2,0.3v0.3l-0.2,0.5l-2,2h2.2"/>
		<path class="st0" d="M513.3,738.5h0.7l0.3-0.2l0.2-0.2l0.3-0.5l0.2-0.7v-1.3l-0.2-0.3l-0.2-0.2l-0.3-0.2h-0.7l-0.3,0.2l-0.2,0.2
			l-0.2,0.3v0.8l0.2,0.3l0.2,0.2l0.3,0.2h0.7l0.3-0.2l0.2-0.2l0.2-0.3"/>
		<path class="st0" d="M566.1,684.6l0.5,0.2h0.8l0.3-0.2l0.2-0.2l0.2-0.3v-0.3l-0.2-0.3l-0.2-0.2l-0.3-0.2l-0.7-0.2l-0.3-0.2
			l-0.2-0.2l-0.2-0.3v-0.3l0.2-0.3l0.2-0.2l0.3-0.2h0.8l0.5,0.2"/>
		<path class="st0" d="M569.2,681.3h2.2l-1.2,1.3h0.5l0.3,0.2l0.2,0.2l0.2,0.3v0.8l-0.2,0.3l-0.2,0.2l-0.3,0.2h-1l-0.3-0.2l-0.2-0.2
			"/>
		<path class="st0" d="M573.6,681.3h0.3l0.3,0.2l0.2,0.2l0.2,0.3l0.2,0.7v0.8l-0.2,0.7l-0.2,0.3l-0.2,0.2l-0.3,0.2h-0.3l-0.3-0.2
			l-0.2-0.2l-0.2-0.3l-0.2-0.7v-0.8l0.2-0.7l0.2-0.3l0.2-0.2L573.6,681.3"/>
		<path class="st0" d="M507.2,667.9l0.5,0.2h0.8l0.3-0.2l0.2-0.2l0.2-0.3v-0.3l-0.2-0.3l-0.2-0.2l-0.3-0.2l-0.7-0.2l-0.3-0.2
			l-0.2-0.2l-0.2-0.3v-0.3l0.2-0.3l0.2-0.2l0.3-0.2h0.8l0.5,0.2"/>
		<path class="st0" d="M510.4,664.6h2.2l-1.2,1.3h0.5l0.3,0.2l0.2,0.2l0.2,0.3v0.8l-0.2,0.3l-0.2,0.2l-0.3,0.2h-1l-0.3-0.2l-0.2-0.2
			"/>
		<path class="st0" d="M515.9,668.1h-2"/>
		<path class="st0" d="M514.9,668.1v-3.5l-0.3,0.5l-0.3,0.3l-0.3,0.2"/>
	</g>
	<g>
		<path class="st1" d="M416.9,740.3l7.2,16.6"/>
		<path class="st1" d="M415.3,686.7l-3.1,18"/>
		<path class="st1" d="M461.6,795l16.8,7"/>
		<path class="st1" d="M600.6,674.1l-0.6-12"/>
		<path class="st1" d="M478.4,802l17.7,4.1"/>
		<path class="st1" d="M601.6,686.2l-1-12"/>
		<path class="st1" d="M434.1,771.9l12.6,12.9"/>
		<path class="st1" d="M609,550.5l2.4-19.9"/>
		<path class="st1" d="M606.8,570.4l2.2-19.9"/>
		<path class="st1" d="M604.8,590.3l2-19.9"/>
		<path class="st1" d="M601.5,630.2l1.5-20"/>
		<path class="st1" d="M600.1,662.1l0.3-12"/>
		<path class="st1" d="M532,803.4l16.9-6.3"/>
		<path class="st1" d="M424.1,756.9l10.1,15"/>
		<path class="st1" d="M412.8,722.7l4.1,17.6"/>
		<path class="st1" d="M548.9,797.1l15.5-9.2"/>
		<path class="st1" d="M600.7,733.8l1.9-11.7"/>
		<path class="st1" d="M496.2,806.1l18,0.4"/>
		<path class="st1" d="M564.4,787.9L578,776"/>
		<path class="st1" d="M596.9,745.3l3.8-11.6"/>
		<path class="st1" d="M589,761.7l7.9-16.4"/>
		<path class="st1" d="M412.2,704.7l0.6,18"/>
		<path class="st1" d="M600.4,650.1l1.1-20"/>
		<path class="st1" d="M603.1,710.2l-0.5-12"/>
		<path class="st1" d="M578,776l11-14.3"/>
		<path class="st1" d="M446.7,784.8l14.9,10.2"/>
		<path class="st1" d="M602.6,722l0.5-11.9"/>
		<path class="st1" d="M613.8,510.8l2.5-19.8"/>
		<path class="st1" d="M611.4,530.6l2.5-19.9"/>
		<path class="st1" d="M603,610.2l1.8-19.9"/>
		<path class="st1" d="M602.6,698.2l-1-12"/>
		<path class="st1" d="M514.2,806.5l17.8-3.1"/>
		<path class="st1" d="M434.5,474.4l1.5,22.8"/>
		<path class="st1" d="M420.9,662.5l-2.7,12.2"/>
		<path class="st1" d="M423.3,650.3l-2.4,12.2"/>
		<path class="st1" d="M431.2,451.9l3.3,22.5"/>
		<path class="st1" d="M418.3,674.6l-3,12.1"/>
		<path class="st1" d="M427.3,625.7l-1.9,12.3"/>
		<path class="st1" d="M429,613.4l-1.7,12.3"/>
		<path class="st1" d="M425.8,429.8l5.4,22.1"/>
		<path class="st1" d="M430.5,601l-1.5,12.4"/>
		<path class="st1" d="M417.8,408.2l8,21.6"/>
		<path class="st1" d="M425.4,638l-2.1,12.3"/>
		<path class="st1" d="M436,497.2l0.1,23"/>
		<path class="st1" d="M436.1,520.1l-0.9,23"/>
		<path class="st1" d="M652.8,240.5l-0.6-12.5"/>
		<path class="st1" d="M621.8,461.1l3.9-14.6"/>
		<path class="st1" d="M379.5,70.8l-3.6,10.3"/>
		<path class="st1" d="M653.9,290.7l-0.4-16.8"/>
		<path class="st1" d="M430.7,32.1l-14.9,2.6"/>
		<path class="st1" d="M628.2,158.2l-7.3-10.1"/>
		<path class="st1" d="M491.7,34.2l-15-2.7"/>
		<path class="st1" d="M639.2,403l4.4-14.5"/>
		<path class="st1" d="M625.7,446.4l4.3-14.5"/>
		<path class="st1" d="M647.7,373.9l3-16.5"/>
		<path class="st1" d="M643.7,388.5l4-14.6"/>
		<path class="st1" d="M618.6,475.9l3.2-14.8"/>
		<path class="st1" d="M384.1,61l-4.6,9.8"/>
		<path class="st1" d="M365.6,144.3l-1.7,21.4"/>
		<path class="st1" d="M506.2,38.6l-14.6-4.4"/>
		<path class="st1" d="M520.1,44.8l-13.9-6.2"/>
		<path class="st1" d="M653.6,324.2l0.4-16.7"/>
		<path class="st1" d="M545.7,63.3L533.1,53"/>
		<path class="st1" d="M600.9,122.6L590.6,110"/>
		<path class="st1" d="M650.7,357.5l1.9-16.6"/>
		<path class="st1" d="M644.5,191.6l-4.5-11.6"/>
		<path class="st1" d="M362,251.6l0.2,21.4"/>
		<path class="st1" d="M611,135.3l-10.1-12.7"/>
		<path class="st1" d="M533.1,53l-13-8.2"/>
		<path class="st1" d="M652.6,340.9l1-16.7"/>
		<path class="st1" d="M652.2,228l-1.6-12.3"/>
		<path class="st1" d="M371,101.7l-3.1,21.2"/>
		<path class="st1" d="M653.1,257.2l-0.3-16.7"/>
		<path class="st1" d="M616.4,490.9l2.3-15"/>
		<path class="st1" d="M580,97.7l-11-12"/>
		<path class="st1" d="M650.6,215.7l-2.5-12.2"/>
		<path class="st1" d="M409.8,391.7l8,16.5"/>
		<path class="st1" d="M369.1,309.2l6.5,17.1"/>
		<path class="st1" d="M630,431.9l4.6-14.5"/>
		<path class="st1" d="M364.5,291.5l4.6,17.7"/>
		<path class="st1" d="M634.6,417.5l4.6-14.4"/>
		<path class="st1" d="M389.9,52.2l-5.8,8.9"/>
		<path class="st1" d="M445.9,30.6l-15.3,1.5"/>
		<path class="st1" d="M405.5,38.6l-8.6,6"/>
		<path class="st1" d="M654,307.5l-0.1-16.8"/>
		<path class="st1" d="M557.6,74.2l-11.9-11"/>
		<path class="st1" d="M653.5,273.9l-0.4-16.7"/>
		<path class="st1" d="M401.1,375.5l8.7,16.3"/>
		<path class="st1" d="M392.1,359.2l9,16.2"/>
		<path class="st1" d="M383.4,342.9l8.7,16.3"/>
		<path class="st1" d="M375.6,326.3l7.8,16.6"/>
		<path class="st1" d="M476.6,31.5l-15.3-1.2"/>
		<path class="st1" d="M375.9,81.1l-2.8,10.4"/>
		<path class="st1" d="M569,85.7l-11.4-11.5"/>
		<path class="st1" d="M396.9,44.6l-7.1,7.6"/>
		<path class="st1" d="M640,180.1l-5.4-11.2"/>
		<path class="st1" d="M362.2,273l2.2,18.5"/>
		<path class="st1" d="M361.9,230.1l0,21.5"/>
		<path class="st1" d="M362.2,208.6l-0.2,21.5"/>
		<path class="st1" d="M373.1,91.5l-2.1,10.2"/>
		<path class="st1" d="M648,203.5l-3.5-11.9"/>
		<path class="st1" d="M415.7,34.7l-10.2,4"/>
		<path class="st1" d="M461.3,30.3l-15.4,0.2"/>
		<path class="st1" d="M590.6,110L580,97.7"/>
		<path class="st1" d="M634.6,168.9l-6.4-10.7"/>
		<path class="st1" d="M362.8,187.2l-0.6,21.5"/>
		<path class="st1" d="M363.9,165.7l-1.1,21.4"/>
		<path class="st1" d="M620.9,148.1l-10-12.8"/>
		<path class="st1" d="M367.9,123l-2.4,21.3"/>
		<path class="st1" d="M432.2,591.9l-1.8,9.1"/>
		<path class="st1" d="M452.3,587.8l0.9-24.9"/>
		<path class="st1" d="M450.7,589.1c0.8,0.1,1.5-0.5,1.6-1.2c0,0,0,0,0,0"/>
		<path class="st1" d="M434.1,588.5l16.6,0.6"/>
		<path class="st1" d="M453.2,562.9c0-0.5-0.4-1-1-1"/>
		<path class="st1" d="M434.1,588.5c-0.6-0.1-1.2,0.4-1.2,1c0,0,0,0,0,0"/>
		<path class="st1" d="M434.1,560c-0.1,0.6,0.4,1.2,1,1.2c0,0,0,0,0,0"/>
		<path class="st1" d="M432.9,589.5l-0.7,2.4"/>
		<path class="st1" d="M435.2,561.3l17,0.6"/>
		<path class="st1" d="M435.1,543.1l-1,16.9"/>
	</g>
</g>
</svg>
