  0
SECTION
  2
HEADER
  9
$ACADVER
  1
AC1014
  9
$HANDSEED
  5
FFFF
  9
$MEASUREMENT
 70
     1
  0
ENDSEC
  0
SECTION
  2
TABLES
  0
TABLE
  2
VPORT
  5
8
330
0
100
AcDbSymbolTable
 70
     4
  0
VPORT
  5
2E
330
8
100
AcDbSymbolTableRecord
100
AcDbViewportTableRecord
  2
*ACTIVE
 70
     0
 10
0.0
 20
0.0
 11
1.0
 21
1.0
 12
210.0
 22
148.5
 13
0.0
 23
0.0
 14
10.0
 24
10.0
 15
10.0
 25
10.0
 16
0.0
 26
0.0
 36
1.0
 17
0.0
 27
0.0
 37
0.0
 40
341.0
 41
1.24
 42
50.0
 43
0.0
 44
0.0
 50
0.0
 51
0.0
 71
     0
 72
   100
 73
     1
 74
     3
 75
     0
 76
     0
 77
     0
 78
     0
  0
ENDTAB
  0
TABLE
  2
LTYPE
  5
5
330
0
100
AcDbSymbolTable
 70
     1
  0
LTYPE
  5
14
330
5
100
AcDbSymbolTableRecord
100
AcDbLinetypeTableRecord
  2
BYBLOCK
 70
     0
  3

 72
    65
 73
     0
 40
0.0
  0
LTYPE
  5
15
330
5
100
AcDbSymbolTableRecord
100
AcDbLinetypeTableRecord
  2
BYLAYER
 70
     0
  3

 72
    65
 73
     0
 40
0.0
  0
LTYPE
  5
16
330
5
100
AcDbSymbolTableRecord
100
AcDbLinetypeTableRecord
  2
CONTINUOUS
 70
     0
  3
Solid line
 72
    65
 73
     0
 40
0.0
  0
ENDTAB
  0
TABLE
  2
LAYER
  5
2
100
AcDbSymbolTable
 70
1
  0
LAYER
  5
50
100
AcDbSymbolTableRecord
100
AcDbLayerTableRecord
  2
0
 70
0
  6
CONTINUOUS
  0
ENDTAB
  0
TABLE
  2
STYLE
  5
3
330
0
100
AcDbSymbolTable
 70
     1
  0
STYLE
  5
11
330
3
100
AcDbSymbolTableRecord
100
AcDbTextStyleTableRecord
  2
STANDARD
 70
     0
 40
0.0
 41
1.0
 50
0.0
 71
     0
 42
2.5
  3
txt
  4

  0
ENDTAB
  0
TABLE
  2
VIEW
  5
6
330
0
100
AcDbSymbolTable
 70
     0
  0
ENDTAB
  0
TABLE
  2
UCS
  5
7
330
0
100
AcDbSymbolTable
 70
     0
  0
ENDTAB
  0
TABLE
  2
APPID
  5
9
330
0
100
AcDbSymbolTable
 70
     2
  0
APPID
  5
12
330
9
100
AcDbSymbolTableRecord
100
AcDbRegAppTableRecord
  2
ACAD
 70
     0
  0
ENDTAB
  0
TABLE
  2
DIMSTYLE
  5
A
330
0
100
AcDbSymbolTable
 70
     1
  0
DIMSTYLE
105
27
330
A
100
AcDbSymbolTableRecord
100
AcDbDimStyleTableRecord
  2
ISO-25
 70
     0
  3

  4

  5

  6

  7

 40
1.0
 41
2.5
 42
0.625
 43
3.75
 44
1.25
 45
0.0
 46
0.0
 47
0.0
 48
0.0
140
2.5
141
2.5
142
0.0
143
0.03937007874016
144
1.0
145
0.0
146
1.0
147
0.625
 71
     0
 72
     0
 73
     0
 74
     0
 75
     0
 76
     0
 77
     1
 78
     8
170
     0
171
     3
172
     1
173
     0
174
     0
175
     0
176
     0
177
     0
178
     0
270
     2
271
     2
272
     2
273
     2
274
     3
340
11
275
     0
280
     0
281
     0
282
     0
283
     0
284
     8
285
     0
286
     0
287
     3
288
     0
  0
ENDTAB
  0
TABLE
  2
BLOCK_RECORD
  5
1
330
0
100
AcDbSymbolTable
 70
     1
  0
BLOCK_RECORD
  5
1F
330
1
100
AcDbSymbolTableRecord
100
AcDbBlockTableRecord
  2
*MODEL_SPACE
  0
BLOCK_RECORD
  5
1B
330
1
100
AcDbSymbolTableRecord
100
AcDbBlockTableRecord
  2
*PAPER_SPACE
  0
ENDTAB
  0
ENDSEC
  0
SECTION
  2
BLOCKS
  0
BLOCK
  5
20
330
1F
100
AcDbEntity
  8
0
100
AcDbBlockBegin
  2
*MODEL_SPACE
 70
     0
 10
0.0
 20
0.0
 30
0.0
  3
*MODEL_SPACE
  1

  0
ENDBLK
  5
21
330
1F
100
AcDbEntity
  8
0
100
AcDbBlockEnd
  0
BLOCK
  5
1C
330
1B
100
AcDbEntity
 67
     1
  8
0
100
AcDbBlockBegin
  2
*PAPER_SPACE
  1

  0
ENDBLK
  5
1D
330
1B
100
AcDbEntity
 67
     1
  8
0
100
AcDbBlockEnd
  0
ENDSEC
  0
SECTION
  2
ENTITIES
  0
LWPOLYLINE
  5
100
100
AcDbEntity
  8
0
 62
1
100
AcDbPolyline
 90
308
 70
1
 10
21.294157
 20
50.498934
 30
0.0
 10
21.678617
 20
52.619021
 30
0.0
 10
22.034947
 20
54.773325
 30
0.0
 10
22.363997
 20
56.960932
 30
0.0
 10
22.666777
 20
59.180796
 30
0.0
 10
22.944377
 20
61.431696
 30
0.0
 10
23.198007
 20
63.712298
 30
0.0
 10
23.428897
 20
66.021128
 30
0.0
 10
23.638287
 20
68.356570
 30
0.0
 10
23.827357
 20
70.716906
 30
0.0
 10
24.148777
 20
75.504698
 30
0.0
 10
24.400027
 20
80.368243
 30
0.0
 10
24.585417
 20
85.289797
 30
0.0
 10
24.706937
 20
90.250727
 30
0.0
 10
24.764437
 20
95.232108
 30
0.0
 10
24.754037
 20
100.214747
 30
0.0
 10
24.664837
 20
105.178532
 30
0.0
 10
24.584537
 20
107.646637
 30
0.0
 10
24.475527
 20
110.101756
 30
0.0
 10
24.333487
 20
112.540997
 30
0.0
 10
24.153707
 20
114.961556
 30
0.0
 10
23.931367
 20
117.360798
 30
0.0
 10
23.661717
 20
119.736350
 30
0.0
 10
23.340367
 20
122.086193
 30
0.0
 10
22.963407
 20
124.408745
 30
0.0
 10
22.527637
 20
126.702909
 30
0.0
 10
22.030657
 20
128.968091
 30
0.0
 10
21.471057
 20
131.204260
 30
0.0
 10
20.848547
 20
133.411953
 30
0.0
 10
20.164067
 20
135.592328
 30
0.0
 10
19.419977
 20
137.747179
 30
0.0
 10
18.619967
 20
139.878906
 30
0.0
 10
17.768897
 20
141.990449
 30
0.0
 10
16.872607
 20
144.085206
 30
0.0
 10
15.937777
 20
146.166956
 30
0.0
 10
13.982107
 20
150.307996
 30
0.0
 10
11.964887
 20
154.448611
 30
0.0
 10
9.953174
 20
158.625931
 30
0.0
 10
8.970988
 20
160.740258
 30
0.0
 10
8.016250
 20
162.878079
 30
0.0
 10
7.097701
 20
165.044140
 30
0.0
 10
6.223975
 20
167.243111
 30
0.0
 10
5.403483
 20
169.479518
 30
0.0
 10
4.644317
 20
171.757697
 30
0.0
 10
3.954127
 20
174.081751
 30
0.0
 10
3.340030
 20
176.455477
 30
0.0
 10
2.808478
 20
178.882330
 30
0.0
 10
2.365180
 20
181.365359
 30
0.0
 10
2.015002
 20
183.907176
 30
0.0
 10
1.761897
 20
186.509890
 30
0.0
 10
1.672697
 20
187.834597
 30
0.0
 10
1.608787
 20
189.175078
 30
0.0
 10
1.570357
 20
190.531428
 30
0.0
 10
1.557527
 20
191.903716
 30
0.0
 10
1.563727
 20
195.376799
 30
0.0
 10
1.582357
 20
198.749796
 30
0.0
 10
1.613677
 20
202.024165
 30
0.0
 10
1.657907
 20
205.201342
 30
0.0
 10
1.715277
 20
208.282794
 30
0.0
 10
1.786007
 20
211.269976
 30
0.0
 10
1.870327
 20
214.164324
 30
0.0
 10
1.968447
 20
216.967310
 30
0.0
 10
2.080595
 20
219.680377
 30
0.0
 10
2.207003
 20
222.304972
 30
0.0
 10
2.347883
 20
224.842555
 30
0.0
 10
2.503466
 20
227.294581
 30
0.0
 10
2.673971
 20
229.662501
 30
0.0
 10
2.859621
 20
231.947756
 30
0.0
 10
3.060644
 20
234.151820
 30
0.0
 10
3.277254
 20
236.276125
 30
0.0
 10
3.509684
 20
238.322137
 30
0.0
 10
3.758154
 20
240.291317
 30
0.0
 10
4.022887
 20
242.185077
 30
0.0
 10
4.304102
 20
244.004917
 30
0.0
 10
4.602026
 20
245.752257
 30
0.0
 10
4.916884
 20
247.428567
 30
0.0
 10
5.248896
 20
249.035297
 30
0.0
 10
5.598288
 20
250.573887
 30
0.0
 10
5.965277
 20
252.045817
 30
0.0
 10
6.350096
 20
253.452507
 30
0.0
 10
6.752962
 20
254.795437
 30
0.0
 10
7.174097
 20
256.076047
 30
0.0
 10
7.613730
 20
257.295777
 30
0.0
 10
8.072077
 20
258.456097
 30
0.0
 10
8.549364
 20
259.558467
 30
0.0
 10
9.045821
 20
260.604317
 30
0.0
 10
9.561659
 20
261.595117
 30
0.0
 10
10.097109
 20
262.532307
 30
0.0
 10
10.652396
 20
263.417347
 30
0.0
 10
11.227736
 20
264.251697
 30
0.0
 10
11.823357
 20
265.036787
 30
0.0
 10
12.439487
 20
265.774087
 30
0.0
 10
13.076337
 20
266.465047
 30
0.0
 10
13.734137
 20
267.111127
 30
0.0
 10
14.413107
 20
267.713767
 30
0.0
 10
15.113477
 20
268.274417
 30
0.0
 10
15.835467
 20
268.794547
 30
0.0
 10
16.579307
 20
269.275597
 30
0.0
 10
17.345197
 20
269.719017
 30
0.0
 10
18.133387
 20
270.126257
 30
0.0
 10
18.944087
 20
270.498787
 30
0.0
 10
19.777517
 20
270.838047
 30
0.0
 10
20.633917
 20
271.145497
 30
0.0
 10
21.513487
 20
271.422587
 30
0.0
 10
22.416467
 20
271.670757
 30
0.0
 10
23.343077
 20
271.891477
 30
0.0
 10
24.293537
 20
272.086177
 30
0.0
 10
25.268077
 20
272.256337
 30
0.0
 10
26.266907
 20
272.403387
 30
0.0
 10
27.290257
 20
272.528797
 30
0.0
 10
28.338357
 20
272.634027
 30
0.0
 10
29.411427
 20
272.720527
 30
0.0
 10
30.509677
 20
272.789727
 30
0.0
 10
31.633347
 20
272.843127
 30
0.0
 10
33.957827
 20
272.908127
 30
0.0
 10
36.386627
 20
272.927227
 30
0.0
 10
38.083947
 20
272.904727
 30
0.0
 10
39.714887
 20
272.838427
 30
0.0
 10
41.282567
 20
272.730497
 30
0.0
 10
42.790007
 20
272.582887
 30
0.0
 10
44.240107
 20
272.397527
 30
0.0
 10
45.635687
 20
272.176237
 30
0.0
 10
46.979477
 20
271.920867
 30
0.0
 10
48.274107
 20
271.633107
 30
0.0
 10
49.522107
 20
271.314647
 30
0.0
 10
50.725937
 20
270.967117
 30
0.0
 10
51.887947
 20
270.592057
 30
0.0
 10
53.010417
 20
270.190967
 30
0.0
 10
54.095527
 20
269.765307
 30
0.0
 10
55.145387
 20
269.316457
 30
0.0
 10
56.162017
 20
268.845767
 30
0.0
 10
57.147357
 20
268.354527
 30
0.0
 10
58.103267
 20
267.843947
 30
0.0
 10
59.031517
 20
267.315247
 30
0.0
 10
60.811817
 20
266.207947
 30
0.0
 10
62.500997
 20
265.041127
 30
0.0
 10
64.110657
 20
263.822597
 30
0.0
 10
65.651257
 20
262.559467
 30
0.0
 10
67.132237
 20
261.258137
 30
0.0
 10
68.561987
 20
259.924457
 30
0.0
 10
69.947947
 20
258.563607
 30
0.0
 10
71.296627
 20
257.180257
 30
0.0
 10
72.613677
 20
255.778527
 30
0.0
 10
75.171407
 20
252.933987
 30
0.0
 10
77.650647
 20
250.053777
 30
0.0
 10
80.070027
 20
247.155407
 30
0.0
 10
82.438727
 20
244.251317
 30
0.0
 10
84.758107
 20
241.349827
 30
0.0
 10
87.023127
 20
238.456347
 30
0.0
 10
89.223897
 20
235.574450
 30
0.0
 10
91.347207
 20
232.706897
 30
0.0
 10
93.377867
 20
229.855952
 30
0.0
 10
94.353397
 20
228.436908
 30
0.0
 10
95.299647
 20
227.021777
 30
0.0
 10
96.214567
 20
225.609851
 30
0.0
 10
97.096107
 20
224.199977
 30
0.0
 10
97.942337
 20
222.790507
 30
0.0
 10
98.751367
 20
221.379191
 30
0.0
 10
99.521427
 20
219.963130
 30
0.0
 10
100.250897
 20
218.538661
 30
0.0
 10
100.938287
 20
217.101329
 30
0.0
 10
101.582327
 20
215.645770
 30
0.0
 10
102.181927
 20
214.165660
 30
0.0
 10
102.736237
 20
212.653628
 30
0.0
 10
103.244677
 20
211.101184
 30
0.0
 10
103.706927
 20
209.498637
 30
0.0
 10
104.123007
 20
207.835025
 30
0.0
 10
104.493247
 20
206.098040
 30
0.0
 10
104.818337
 20
204.273936
 30
0.0
 10
104.964277
 20
203.324527
 30
0.0
 10
105.099357
 20
202.347491
 30
0.0
 10
105.223787
 20
201.340701
 30
0.0
 10
105.337777
 20
200.301883
 30
0.0
 10
105.441597
 20
199.228686
 30
0.0
 10
105.535497
 20
198.118636
 30
0.0
 10
105.619797
 20
196.969161
 30
0.0
 10
105.694897
 20
195.777560
 30
0.0
 10
105.761097
 20
194.541034
 30
0.0
 10
105.818797
 20
193.256652
 30
0.0
 10
105.868497
 20
191.921367
 30
0.0
 10
105.910697
 20
190.532016
 30
0.0
 10
105.945797
 20
189.085303
 30
0.0
 10
105.974397
 20
187.577815
 30
0.0
 10
105.996997
 20
186.005996
 30
0.0
 10
106.014297
 20
184.366168
 30
0.0
 10
106.026897
 20
182.654513
 30
0.0
 10
106.035897
 20
180.867083
 30
0.0
 10
106.040897
 20
178.999789
 30
0.0
 10
106.043897
 20
177.048392
 30
0.0
 10
106.044897
 20
175.008521
 30
0.0
 10
106.045047
 20
172.875647
 30
0.0
 10
106.038047
 20
171.510493
 30
0.0
 10
106.018447
 20
170.171790
 30
0.0
 10
105.940147
 20
167.573117
 30
0.0
 10
105.810677
 20
165.077533
 30
0.0
 10
105.631387
 20
162.681729
 30
0.0
 10
105.404137
 20
160.381274
 30
0.0
 10
105.131207
 20
158.170714
 30
0.0
 10
104.815287
 20
156.043668
 30
0.0
 10
104.459427
 20
153.992932
 30
0.0
 10
104.066937
 20
152.010613
 30
0.0
 10
103.641437
 20
150.088252
 30
0.0
 10
103.186687
 20
148.216975
 30
0.0
 10
102.706627
 20
146.387644
 30
0.0
 10
101.686627
 20
142.817764
 30
0.0
 10
100.613627
 20
139.305250
 30
0.0
 10
99.519267
 20
135.779635
 30
0.0
 10
98.433897
 20
132.175044
 30
0.0
 10
97.903567
 20
130.324218
 30
0.0
 10
97.385887
 20
128.432060
 30
0.0
 10
96.883787
 20
126.492923
 30
0.0
 10
96.399817
 20
124.502336
 30
0.0
 10
95.935957
 20
122.457288
 30
0.0
 10
95.493617
 20
120.356473
 30
0.0
 10
95.073467
 20
118.200545
 30
0.0
 10
94.675507
 20
115.992135
 30
0.0
 10
94.299077
 20
113.735616
 30
0.0
 10
93.942987
 20
111.436833
 30
0.0
 10
93.605607
 20
109.102822
 30
0.0
 10
93.284997
 20
106.741519
 30
0.0
 10
92.685137
 20
101.971667
 30
0.0
 10
92.124947
 20
97.198035
 30
0.0
 10
91.587507
 20
92.486571
 30
0.0
 10
91.323387
 20
90.170886
 30
0.0
 10
91.061217
 20
87.888068
 30
0.0
 10
90.800857
 20
85.640769
 30
0.0
 10
90.542627
 20
83.430282
 30
0.0
 10
90.287287
 20
81.256732
 30
0.0
 10
90.035907
 20
79.119330
 30
0.0
 10
89.789787
 20
77.016578
 30
0.0
 10
89.550397
 20
74.946475
 30
0.0
 10
89.319317
 20
72.906703
 30
0.0
 10
89.098217
 20
70.894641
 30
0.0
 10
88.693017
 20
66.941707
 30
0.0
 10
88.349747
 20
63.061084
 30
0.0
 10
88.084437
 20
59.222049
 30
0.0
 10
87.913617
 20
55.391330
 30
0.0
 10
87.868617
 20
53.468707
 30
0.0
 10
87.853117
 20
51.536021
 30
0.0
 10
87.868617
 20
49.589740
 30
0.0
 10
87.916717
 20
47.626712
 30
0.0
 10
87.998717
 20
45.644252
 30
0.0
 10
88.115547
 20
43.640155
 30
0.0
 10
88.268027
 20
41.612765
 30
0.0
 10
88.456627
 20
39.561035
 30
0.0
 10
88.598207
 20
37.578871
 30
0.0
 10
88.626507
 20
35.591877
 30
0.0
 10
88.541407
 20
33.606487
 30
0.0
 10
88.343237
 20
31.629187
 30
0.0
 10
88.032617
 20
29.666407
 30
0.0
 10
87.610567
 20
27.724537
 30
0.0
 10
87.078447
 20
25.809897
 30
0.0
 10
86.437997
 20
23.928717
 30
0.0
 10
85.691307
 20
22.087137
 30
0.0
 10
84.840797
 20
20.291127
 30
0.0
 10
83.889237
 20
18.546567
 30
0.0
 10
82.839727
 20
16.859097
 30
0.0
 10
81.695687
 20
15.234237
 30
0.0
 10
80.460847
 20
13.677267
 30
0.0
 10
79.139207
 20
12.193257
 30
0.0
 10
77.735087
 20
10.787047
 30
0.0
 10
76.253057
 20
9.463207
 30
0.0
 10
74.697927
 20
8.226047
 30
0.0
 10
73.074777
 20
7.079577
 30
0.0
 10
71.388877
 20
6.027557
 30
0.0
 10
69.645727
 20
5.073407
 30
0.0
 10
67.850997
 20
4.220217
 30
0.0
 10
66.010517
 20
3.470777
 30
0.0
 10
64.130307
 20
2.827527
 30
0.0
 10
62.216457
 20
2.292557
 30
0.0
 10
60.275217
 20
1.867617
 30
0.0
 10
58.312897
 20
1.554077
 30
0.0
 10
56.335897
 20
1.352947
 30
0.0
 10
54.350637
 20
1.264947
 30
0.0
 10
52.363597
 20
1.290247
 30
0.0
 10
50.381227
 20
1.428867
 30
0.0
 10
48.409997
 20
1.680317
 30
0.0
 10
46.456307
 20
2.043797
 30
0.0
 10
44.526537
 20
2.518107
 30
0.0
 10
42.626947
 20
3.101687
 30
0.0
 10
40.763747
 20
3.792667
 30
0.0
 10
38.942977
 20
4.588777
 30
0.0
 10
37.170577
 20
5.487447
 30
0.0
 10
35.452317
 20
6.485737
 30
0.0
 10
33.793797
 20
7.580407
 30
0.0
 10
32.200397
 20
8.767877
 30
0.0
 10
30.677327
 20
10.044287
 30
0.0
 10
29.229517
 20
11.405487
 30
0.0
 10
27.861707
 20
12.847047
 30
0.0
 10
26.578337
 20
14.364267
 30
0.0
 10
25.383597
 20
15.952207
 30
0.0
 10
24.281357
 20
17.605707
 30
0.0
 10
23.275217
 20
19.319387
 30
0.0
 10
22.368447
 20
21.087657
 30
0.0
 10
21.563997
 20
22.904757
 30
0.0
 10
20.864507
 20
24.764787
 30
0.0
 10
20.272227
 20
26.661677
 30
0.0
 10
19.789097
 20
28.589257
 30
0.0
 10
19.416687
 20
30.541257
 30
0.0
 10
19.156217
 20
32.511317
 30
0.0
 10
19.008527
 20
34.493037
 30
0.0
 10
18.974127
 20
36.479937
 30
0.0
 10
19.053127
 20
38.465565
 30
0.0
 10
19.245197
 20
40.443475
 30
0.0
 10
19.549747
 20
42.407204
 30
0.0
 10
19.965817
 20
44.350365
 30
0.0
 10
20.438177
 20
46.364235
 30
0.0
 10
20.880827
 20
48.413910
 30
0.0
  0
ENDSEC
  0
SECTION
  2
OBJECTS
  0
DICTIONARY
  5
C
330
0
100
AcDbDictionary
  3
ACAD_GROUP
350
D
  3
ACAD_MLINESTYLE
350
17
  0
DICTIONARY
  5
D
330
C
100
AcDbDictionary
  0
DICTIONARY
  5
1A
330
C
100
AcDbDictionary
  0
DICTIONARY
  5
17
330
C
100
AcDbDictionary
  3
STANDARD
350
18
  0
DICTIONARY
  5
19
330
C
100
AcDbDictionary
  0
ENDSEC
  0
EOF
