<?xml version="1.0" encoding="UTF-8" standalone="no"?>
<svg
   xmlns:dc="http://purl.org/dc/elements/1.1/"
   xmlns:cc="http://creativecommons.org/ns#"
   xmlns:rdf="http://www.w3.org/1999/02/22-rdf-syntax-ns#"
   xmlns:svg="http://www.w3.org/2000/svg"
   xmlns="http://www.w3.org/2000/svg"
   xmlns:sodipodi="http://sodipodi.sourceforge.net/DTD/sodipodi-0.dtd"
   xmlns:inkscape="http://www.inkscape.org/namespaces/inkscape"
   width="106.57692627mm"
   height="273.75206665mm"
   viewBox="0 0 106.57692627 273.75206665"
   version="1.1"
   id="svg623"
   sodipodi:docname="plantilla43_interior.svg"
   inkscape:version="0.92.3 (2405546, 2018-03-11)">
  <metadata
     id="metadata629">
    <rdf:RDF>
      <cc:Work
         rdf:about="">
        <dc:format>image/svg+xml</dc:format>
        <dc:type
           rdf:resource="http://purl.org/dc/dcmitype/StillImage" />
        <dc:title></dc:title>
      </cc:Work>
    </rdf:RDF>
  </metadata>
  <defs
     id="defs627" />
  <sodipodi:namedview
     pagecolor="#ffffff"
     bordercolor="#666666"
     borderopacity="1"
     objecttolerance="10"
     gridtolerance="10"
     guidetolerance="10"
     inkscape:pageopacity="0"
     inkscape:pageshadow="2"
     inkscape:window-width="1755"
     inkscape:window-height="961"
     id="namedview625"
     showgrid="false"
     inkscape:measure-start="-62.0009,542.508"
     inkscape:measure-end="0,0"
     inkscape:zoom="0.64515202"
     inkscape:cx="213.62828"
     inkscape:cy="499.30681"
     inkscape:window-x="0"
     inkscape:window-y="0"
     inkscape:window-maximized="0"
     inkscape:current-layer="insole43001001_solid" />
  <g
     id="insole43001001_solid"
     transform="translate(53.288463,136.878200) scale(1,-1)">
    <path
       id="insole43001001_solid_f0308"
       d="m -31.783296,-94.892023 -0.29125,-1.914539 -0.17785,-1.928387 -0.0638,-1.935511 0.0504,-1.93592 0.16447,-1.92957 0.27795,-1.91653 0.39048,-1.8968 0.50164,-1.87047 0.61105,-1.83763 0.71835,-1.79842 0.82314,-1.75293 0.92507,-1.70134 1.02377,-1.64384 1.11892,-1.58061 1.21017,-1.51188 1.29722,-1.43789 1.37974,-1.35891 1.45747,-1.27519 1.53012,-1.18703 1.59745,-1.09475 1.65922,-0.99864 1.71522,-0.89908 1.76525,-0.79637 1.80913,-0.6909 1.8467197,-0.58304 1.87789,-0.47311 1.90252,-0.36157 1.92053,-0.24877 1.93185998,-0.13508 1.93645002,-0.0209 1.93433,0.0933 1.92546,0.20717 1.90989,0.32034 1.88769,0.43239 1.8589003,0.54296 1.82365,0.65161 1.78206,0.75801 1.73426,0.86177 1.68044,0.96252 1.62075,1.05994 1.55544,1.15366 1.4847,1.24337 1.40881,1.32874 1.32801,1.40951 1.24259,1.48535 1.15285,1.55604 1.05909,1.62131 0.96165,1.68093 0.86085,1.73472 0.75708,1.78246 0.65066,1.82399 0.54198,1.85919 0.4314,1.88791 0.31934,1.91005 0.20617,1.92557 0.0923,1.93437 -0.022,1.936444 -0.1361,1.931774 -0.19091,2.083188 -0.15357,2.058159 -0.11748,2.035385 -0.0826,2.014839 -0.049,1.996513 -0.0166,1.980423 0.0145,1.966568 0.0444,1.954933 0.17234,3.886002 0.26709,3.885689 0.34532,3.915832 0.40795,3.974541 0.455,4.061794 0.24027,2.072544 0.24608,2.105347 0.25031,2.140732 0.25409,2.175773 0.25748,2.210331 0.26047,2.244408 0.26307,2.278004 0.26527,2.311115 0.53796,4.713402 0.56194,4.784614 0.60355,4.789704 0.66254,4.729156 0.35884,2.32136 0.38011,2.281607 0.40371,2.233121 0.42733,2.181088 0.44954,2.128787 0.47039,2.076217 0.48984,2.0233786 0.5079,1.9702728 0.52428,1.9172992 0.5365,1.8694857 0.54467,1.8295738 0.54896,1.79750115 1.09544,3.53014265 1.0664,3.4959267 1.00647,3.5249654 0.47106,1.797665 0.44504,1.83495 0.41586,1.881499 0.3835,1.937311 0.34796,2.002386 0.30924,2.076725 0.26735,2.160326 0.2224,2.252716 0.17545,2.350203 0.12707,2.451181 0.045,1.264549 0.0323,1.291106 0.0195,1.3181 0.006,1.345523 -3.7e-4,2.133187 -0.002,2.040252 -0.003,1.951119 -0.006,1.865768 -0.009,1.784222 -0.0127,1.706459 -0.0171,1.632496 -0.0222,1.562317 -0.0279,1.495941 -0.0342,1.43335 -0.0412,1.374553 -0.0488,1.319554 -0.0571,1.268234 -0.0656,1.2197 -0.0743,1.173549 -0.0833,1.129792 -0.0924,1.088428 -0.10168,1.049458 -0.11119,1.012882 -0.12088,0.978699 -0.13077,0.946907 -0.14085,0.917518 -0.31271,1.756417 -0.35536,1.667556 -0.39912,1.596634 -0.44296,1.537323 -0.48684,1.48761 -0.53075,1.447479 -0.57469,1.416954 -0.61866,1.396019 -0.66267,1.384659 -0.70632,1.380287 -0.74835,1.377945 -0.78851,1.377144 -0.82679,1.377899 -0.8632,1.380196 -0.89774,1.384033 -0.9304,1.389427 -0.96117,1.396355 -2.00603,2.816841 -2.10174,2.841805 -2.18392,2.861232 -2.25302,2.87576 -2.30906,2.88539 -2.35298,2.88994 -2.39988,2.88054 -2.45784,2.85183 -2.52688,2.80375 -1.29299,1.37746 -1.31795,1.35559 -1.34981,1.32851 -1.3886,1.29622 -1.43434,1.25874 -1.4869903,1.21603 -1.54658,1.16812 -1.61323,1.11513 -1.69151,1.0559 -0.88026,0.50313 -0.90603,0.48515 -0.9339,0.46614 -0.96386,0.44603 -0.99589002,0.4249 -1.03001,0.40266 -1.06622998,0.37938 -1.10452,0.35503 -1.14491,0.32962 -1.1876,0.30305 -1.23374,0.27468 -1.28303,0.24432 -1.33541,0.21205 -1.3908897,0.17784 -1.44946,0.1417 -1.5111,0.1036 -1.57585,0.0636 -1.64369,0.0216 -1.21203,-0.005 -1.18227,-0.0151 -1.15262,-0.0266 -1.12311,-0.0392 -1.09374,-0.0529 -1.0645,-0.0678 -1.03539,-0.0839 -1.00642,-0.10109 -0.97758,-0.11946 -0.94887,-0.13895 -0.92029,-0.15961 -0.89186,-0.18139 -0.86354,-0.20435 -0.83536,-0.22844 -0.80733,-0.25369 -0.77979,-0.27944 -0.7538,-0.30516 -0.72892,-0.33267 -0.70515,-0.36207 -0.68245,-0.39334 -0.66087,-0.42649 -0.64035,-0.46148 -0.62094,-0.49837 -0.60261,-0.53714 -0.58539,-0.57775 -0.56924,-0.62026 -0.55419,-0.66463 -0.53983,-0.712 -0.52521,-0.76288 -0.51048,-0.81537 -0.495608,-0.86945 -0.480641,-0.92514 -0.465549,-0.98241 -0.45034,-1.04128 -0.435017,-1.10174 -0.419575,-1.16379 -0.404014,-1.22744 -0.388336,-1.29268 -0.372548,-1.35952 -0.356639,-1.42794 -0.340611,-1.49796 -0.324467,-1.56956 -0.3082,-1.64189 -0.292038,-1.71513 -0.276055,-1.78973 -0.260254,-1.86572 -0.244621,-1.94306 -0.229176,-2.021735 -0.213905,-2.101792 -0.198814,-2.183212 -0.183899,-2.265984 -0.169163,-2.350128 -0.154606,-2.435623 -0.140224,-2.522484 -0.126026,-2.61071 -0.112004,-2.700295 -0.09816,-2.791236 -0.08449,-2.883545 -0.071,-2.977211 -0.0577,-3.072243 -0.04456,-3.168633 -0.03161,-3.266384 -0.01884,-3.365493 -0.0062,-3.465973 0.01292,-1.334404 0.03843,-1.317322 0.06344,-1.300671 0.08798,-1.28445 0.247589,-2.522007 0.339855,-2.462376 0.428215,-2.406227 0.512665,-2.353565 0.593216,-2.304394 0.669826,-2.258766 0.740582,-2.218659 0.803146,-2.183904 0.857468,-2.153828 0.90356,-2.128433 0.941418,-2.107718 0.97104,-2.091684 1.998,-4.153986 2.01767,-4.146013 1.97146,-4.175483 0.94776,-2.110507 0.90958,-2.1319537 0.86494,-2.1555407 0.81585,-2.1804249 0.76231,-2.20660665 0.70431,-2.23408505 0.64186,-2.2628606 0.57501,-2.2928908 0.50701,-2.322375 0.44283,-2.3496456 0.38285,-2.374759 0.32708,-2.397717 0.27549,-2.418522 0.22812,-2.437172 0.18493,-2.453663 0.14595,-2.468004 0.11116,-2.480189 0.0822,-2.48998 0.0956,-4.999522 0.0121,-5.011749 -0.0619,-5.007396 -0.12647,-4.986458 -0.18477,-4.946999 -0.24924,-4.889377 -0.32197,-4.818306 -0.19082,-2.378327 -0.21207,-2.355545 -0.23436,-2.331093 -0.25767,-2.304977 -0.282,-2.277176 -0.30737,-2.247711 -0.33376,-2.216576 -0.36133,-2.184036 -0.39026,-2.151222 -0.41981,-2.117813 -0.44987,-2.083741 -0.48048,-2.049019 z"
       style="fill:none;fill-rule:evenodd;stroke:#191919;stroke-width:0.34999999;stroke-miterlimit:4;stroke-dasharray:none"
       inkscape:connector-curvature="0"
       sodipodi:nodetypes="ccccccccccccccccccccccccccccccccccccccccccccccccccccccccccccccccccccccccccccccccccccccccccccccccccccccccccccccccccccccccccccccccccccccccccccccccccccccccccccccccccccccccccccccccccccccccccccccccccccccccccccccccccccccccccccccccccccccccccccccccccccccccccccccccccccccccccccccccccccccccccccccccccccccccccccccccccccc" />
    <title
       id="title620">insole43002 (Solid)</title>
  </g>
</svg>
