G04 #@! TF.FileFunction,Copper,L2,Bot,Signal*
%FSLAX46Y46*%
G04 Gerber Fmt 4.6, Leading zero omitted, Abs format (unit mm)*
G04 Created by KiCad (PCBNEW 4.0.6) date 04/13/18 15:31:21*
%MOMM*%
%LPD*%
G01*
G04 APERTURE LIST*
%ADD10C,0.100000*%
%ADD11R,2.000000X0.610000*%
%ADD12R,3.600000X2.680000*%
%ADD13R,0.850000X0.850000*%
%ADD14O,0.850000X0.700000*%
%ADD15R,0.410000X1.000000*%
%ADD16R,1.000000X0.410000*%
%ADD17R,1.300000X0.700000*%
%ADD18C,0.600000*%
%ADD19C,0.250000*%
G04 APERTURE END LIST*
D10*
D11*
X167600000Y-86000000D03*
X167600000Y-87000000D03*
X167600000Y-88000000D03*
X167600000Y-89000000D03*
X167600000Y-90000000D03*
X167600000Y-91000000D03*
X167600000Y-92000000D03*
X167600000Y-93000000D03*
X167600000Y-94000000D03*
X167600000Y-95000000D03*
X167600000Y-96000000D03*
X167600000Y-97000000D03*
X167600000Y-98000000D03*
D12*
X170400000Y-83010000D03*
X170400000Y-100990000D03*
D13*
X151200000Y-82500000D03*
D14*
X151200000Y-83500000D03*
X151200000Y-84500000D03*
X151200000Y-85500000D03*
D15*
X155400000Y-87685000D03*
X154630000Y-97175000D03*
X153870000Y-97175000D03*
X153110000Y-97175000D03*
X152350000Y-97175000D03*
D16*
X151110000Y-96615000D03*
X151110000Y-95855000D03*
X151110000Y-95095000D03*
X151110000Y-94335000D03*
X151110000Y-93575000D03*
X151110000Y-92805000D03*
X151110000Y-92045000D03*
X151110000Y-91285000D03*
X151110000Y-90525000D03*
X151110000Y-89765000D03*
X151110000Y-88995000D03*
X151110000Y-88235000D03*
D15*
X156160000Y-87685000D03*
X156920000Y-87685000D03*
X157680000Y-87685000D03*
X158440000Y-87685000D03*
X159210000Y-87685000D03*
D17*
X156475000Y-82950000D03*
X156475000Y-84850000D03*
X153825000Y-82925000D03*
X153825000Y-84825000D03*
D18*
X172325000Y-86050000D03*
X161525000Y-82100000D03*
X165450000Y-82625000D03*
X152600000Y-91400000D03*
X162100000Y-87775000D03*
X165100000Y-87775000D03*
X160625000Y-86575000D03*
X155100000Y-85900000D03*
X164750000Y-84075000D03*
X164950000Y-85650000D03*
X160250000Y-85525000D03*
X157650000Y-86125000D03*
X165000000Y-86975000D03*
X164950000Y-88575000D03*
X164775000Y-89925000D03*
X164775000Y-91375000D03*
X166400000Y-98800000D03*
X151300000Y-98800000D03*
X161300000Y-94900000D03*
X164800000Y-94025000D03*
X157600000Y-99500000D03*
X161300000Y-96400000D03*
X164900000Y-95075000D03*
X165150000Y-95975000D03*
X165600000Y-96875000D03*
X165275000Y-99000000D03*
X155725000Y-90950000D03*
X155825000Y-89775000D03*
X167300000Y-99500000D03*
X172350000Y-96000000D03*
X173050000Y-90450000D03*
X163400000Y-103150000D03*
X170900000Y-95600000D03*
X169400000Y-94850000D03*
X153825000Y-88150000D03*
X154775000Y-92900000D03*
X154125000Y-93525000D03*
X171075000Y-85825000D03*
X171050000Y-86525000D03*
X169300000Y-85700000D03*
X169900000Y-86125000D03*
D19*
X172325000Y-86050000D02*
X173250000Y-86050000D01*
X166025000Y-82625000D02*
X165450000Y-82625000D01*
X168300000Y-84900000D02*
X166025000Y-82625000D01*
X173300000Y-84900000D02*
X168300000Y-84900000D01*
X173600000Y-85200000D02*
X173300000Y-84900000D01*
X173600000Y-85700000D02*
X173600000Y-85200000D01*
X173250000Y-86050000D02*
X173600000Y-85700000D01*
X165450000Y-82625000D02*
X162050000Y-82625000D01*
X162050000Y-82625000D02*
X161525000Y-82100000D01*
X152485000Y-91285000D02*
X152600000Y-91400000D01*
X152485000Y-91285000D02*
X151110000Y-91285000D01*
X165100000Y-87775000D02*
X162100000Y-87775000D01*
X159210000Y-87685000D02*
X159210000Y-86865000D01*
X159210000Y-86865000D02*
X159500000Y-86575000D01*
X159500000Y-86575000D02*
X160625000Y-86575000D01*
X155100000Y-85900000D02*
X155100000Y-83150000D01*
X155100000Y-83150000D02*
X155300000Y-82950000D01*
X156475000Y-82950000D02*
X155300000Y-82950000D01*
X155300000Y-82950000D02*
X153850000Y-82950000D01*
X153850000Y-82950000D02*
X153825000Y-82925000D01*
X164750000Y-84075000D02*
X165675000Y-84075000D01*
X158440000Y-87685000D02*
X158440000Y-85685000D01*
X165675000Y-84075000D02*
X167600000Y-86000000D01*
X160050000Y-84075000D02*
X164750000Y-84075000D01*
X158440000Y-85685000D02*
X160050000Y-84075000D01*
X164950000Y-85650000D02*
X165100000Y-85650000D01*
X166450000Y-87000000D02*
X167600000Y-87000000D01*
X165100000Y-85650000D02*
X166450000Y-87000000D01*
X157680000Y-87685000D02*
X157680000Y-86155000D01*
X160375000Y-85650000D02*
X164950000Y-85650000D01*
X160250000Y-85525000D02*
X160375000Y-85650000D01*
X157680000Y-86155000D02*
X157650000Y-86125000D01*
X165000000Y-86975000D02*
X165250000Y-86975000D01*
X166275000Y-88000000D02*
X167600000Y-88000000D01*
X165250000Y-86975000D02*
X166275000Y-88000000D01*
X156920000Y-87685000D02*
X156920000Y-88920000D01*
X161600000Y-86950000D02*
X165000000Y-86975000D01*
X159500000Y-89050000D02*
X161600000Y-86950000D01*
X157050000Y-89050000D02*
X159500000Y-89050000D01*
X156920000Y-88920000D02*
X157050000Y-89050000D01*
X151200000Y-84500000D02*
X151750000Y-84500000D01*
X152100000Y-84850000D02*
X152100000Y-88995000D01*
X151750000Y-84500000D02*
X152100000Y-84850000D01*
X151110000Y-88995000D02*
X152100000Y-88995000D01*
X152100000Y-88995000D02*
X156295000Y-88995000D01*
X161025000Y-88575000D02*
X164950000Y-88575000D01*
X160000000Y-89600000D02*
X161025000Y-88575000D01*
X156900000Y-89600000D02*
X160000000Y-89600000D01*
X156295000Y-88995000D02*
X156900000Y-89600000D01*
X165150000Y-88625000D02*
X165150000Y-88550000D01*
X165075000Y-88550000D02*
X165150000Y-88625000D01*
X164975000Y-88550000D02*
X165075000Y-88550000D01*
X164950000Y-88575000D02*
X164975000Y-88550000D01*
X165775000Y-89000000D02*
X167600000Y-89000000D01*
X165325000Y-88550000D02*
X165775000Y-89000000D01*
X165150000Y-88550000D02*
X165325000Y-88550000D01*
X151110000Y-92045000D02*
X152955000Y-92045000D01*
X162775000Y-89925000D02*
X164775000Y-89925000D01*
X161000000Y-91700000D02*
X162775000Y-89925000D01*
X153300000Y-91700000D02*
X161000000Y-91700000D01*
X152955000Y-92045000D02*
X153300000Y-91700000D01*
X151200000Y-85500000D02*
X150475000Y-85500000D01*
X150120000Y-92045000D02*
X151110000Y-92045000D01*
X150000000Y-91925000D02*
X150120000Y-92045000D01*
X150000000Y-85975000D02*
X150000000Y-91925000D01*
X150475000Y-85500000D02*
X150000000Y-85975000D01*
X164775000Y-89925000D02*
X164975000Y-89925000D01*
X164975000Y-89925000D02*
X167525000Y-89925000D01*
X167525000Y-89925000D02*
X167600000Y-90000000D01*
X151110000Y-92805000D02*
X152995000Y-92805000D01*
X162125000Y-91375000D02*
X164775000Y-91375000D01*
X161300000Y-92200000D02*
X162125000Y-91375000D01*
X153600000Y-92200000D02*
X161300000Y-92200000D01*
X152995000Y-92805000D02*
X153600000Y-92200000D01*
X164775000Y-91375000D02*
X164850000Y-91375000D01*
X165675000Y-91000000D02*
X167600000Y-91000000D01*
X165300000Y-91375000D02*
X165675000Y-91000000D01*
X164850000Y-91375000D02*
X165300000Y-91375000D01*
X166400000Y-98800000D02*
X166200000Y-99000000D01*
X153110000Y-97175000D02*
X153110000Y-98310000D01*
X165400000Y-99800000D02*
X166200000Y-99000000D01*
X166200000Y-99000000D02*
X167200000Y-98000000D01*
X159000000Y-99800000D02*
X165400000Y-99800000D01*
X157800000Y-98600000D02*
X159000000Y-99800000D01*
X153400000Y-98600000D02*
X157800000Y-98600000D01*
X153110000Y-98310000D02*
X153400000Y-98600000D01*
X167200000Y-98000000D02*
X167600000Y-98000000D01*
X150045000Y-95855000D02*
X150000000Y-95900000D01*
X150000000Y-95900000D02*
X150000000Y-97200000D01*
X150000000Y-97200000D02*
X151300000Y-98500000D01*
X151300000Y-98500000D02*
X151300000Y-98800000D01*
X161300000Y-94900000D02*
X161975000Y-94025000D01*
X164800000Y-94025000D02*
X161975000Y-94025000D01*
X150045000Y-95855000D02*
X151110000Y-95855000D01*
X164800000Y-94025000D02*
X164825000Y-94025000D01*
X165850000Y-93000000D02*
X167600000Y-93000000D01*
X164825000Y-94025000D02*
X165850000Y-93000000D01*
X164837500Y-93987500D02*
X164837500Y-93962500D01*
X164800000Y-94025000D02*
X164837500Y-93987500D01*
X164725000Y-94075000D02*
X164837500Y-93962500D01*
X151110000Y-97510000D02*
X153100000Y-99500000D01*
X153100000Y-99500000D02*
X157600000Y-99500000D01*
X151110000Y-96615000D02*
X151110000Y-97510000D01*
X163475000Y-96500000D02*
X164900000Y-95075000D01*
X161300000Y-96500000D02*
X163475000Y-96500000D01*
X161300000Y-96400000D02*
X161300000Y-96500000D01*
X165975000Y-94000000D02*
X167600000Y-94000000D01*
X164900000Y-95075000D02*
X165975000Y-94000000D01*
X165237500Y-95887500D02*
X165537500Y-95887500D01*
X165150000Y-95975000D02*
X165237500Y-95887500D01*
X152350000Y-97175000D02*
X152350000Y-96425000D01*
X166425000Y-95000000D02*
X167600000Y-95000000D01*
X164250000Y-97175000D02*
X165537500Y-95887500D01*
X165537500Y-95887500D02*
X166425000Y-95000000D01*
X159700000Y-97175000D02*
X164250000Y-97175000D01*
X157525000Y-95000000D02*
X159700000Y-97175000D01*
X153775000Y-95000000D02*
X157525000Y-95000000D01*
X152350000Y-96425000D02*
X153775000Y-95000000D01*
X165600000Y-96875000D02*
X165912500Y-96562500D01*
X165912500Y-96562500D02*
X165900000Y-96550000D01*
X165900000Y-96550000D02*
X165900000Y-96575000D01*
X153870000Y-97175000D02*
X153870000Y-96105000D01*
X166475000Y-96000000D02*
X167600000Y-96000000D01*
X163875000Y-98600000D02*
X165900000Y-96575000D01*
X165900000Y-96575000D02*
X166475000Y-96000000D01*
X159750000Y-98600000D02*
X163875000Y-98600000D01*
X156825000Y-95675000D02*
X159750000Y-98600000D01*
X154300000Y-95675000D02*
X156825000Y-95675000D01*
X153870000Y-96105000D02*
X154300000Y-95675000D01*
X154630000Y-97175000D02*
X157475000Y-97175000D01*
X165075000Y-99200000D02*
X165275000Y-99000000D01*
X159500000Y-99200000D02*
X165075000Y-99200000D01*
X157475000Y-97175000D02*
X159500000Y-99200000D01*
X165075000Y-98800000D02*
X165075000Y-98650000D01*
X165275000Y-99000000D02*
X165075000Y-98800000D01*
X166375000Y-97000000D02*
X167600000Y-97000000D01*
X165075000Y-98300000D02*
X166375000Y-97000000D01*
X165075000Y-98650000D02*
X165075000Y-98300000D01*
X151110000Y-95095000D02*
X152905000Y-95095000D01*
X165500000Y-92000000D02*
X167600000Y-92000000D01*
X164400000Y-93100000D02*
X165500000Y-92000000D01*
X161000000Y-93100000D02*
X164400000Y-93100000D01*
X159800000Y-94300000D02*
X161000000Y-93100000D01*
X153700000Y-94300000D02*
X159800000Y-94300000D01*
X152905000Y-95095000D02*
X153700000Y-94300000D01*
X151110000Y-90525000D02*
X152900000Y-90525000D01*
X153325000Y-90950000D02*
X155725000Y-90950000D01*
X152900000Y-90525000D02*
X153325000Y-90950000D01*
X151110000Y-89765000D02*
X155265000Y-89765000D01*
X155275000Y-89775000D02*
X155825000Y-89775000D01*
X155265000Y-89765000D02*
X155275000Y-89775000D01*
X167300000Y-99500000D02*
X167800000Y-99000000D01*
X167800000Y-99000000D02*
X169350000Y-99000000D01*
X169350000Y-99000000D02*
X172350000Y-96000000D01*
X173700000Y-91100000D02*
X173050000Y-90450000D01*
X173700000Y-102500000D02*
X173700000Y-91100000D01*
X173050000Y-103150000D02*
X173700000Y-102500000D01*
X163400000Y-103150000D02*
X173050000Y-103150000D01*
X170150000Y-95600000D02*
X170900000Y-95600000D01*
X169400000Y-94850000D02*
X170150000Y-95600000D01*
X151110000Y-93575000D02*
X152075000Y-93575000D01*
X153800000Y-88125000D02*
X153800000Y-88200000D01*
X153825000Y-88150000D02*
X153800000Y-88125000D01*
X154525002Y-92650002D02*
X154775000Y-92900000D01*
X153786396Y-92650002D02*
X154525002Y-92650002D01*
X153181396Y-93255002D02*
X153786396Y-92650002D01*
X152394998Y-93255002D02*
X153181396Y-93255002D01*
X152075000Y-93575000D02*
X152394998Y-93255002D01*
X153800000Y-88200000D02*
X153800000Y-85150000D01*
X153800000Y-85150000D02*
X153700000Y-85050000D01*
X153800000Y-88200000D02*
X153875000Y-88125000D01*
X156500000Y-85050000D02*
X156500000Y-86100000D01*
X156500000Y-86100000D02*
X156160000Y-86440000D01*
X156160000Y-86440000D02*
X156160000Y-87685000D01*
X152790000Y-94335000D02*
X153600000Y-93525000D01*
X153600000Y-93525000D02*
X154125000Y-93525000D01*
X152790000Y-94335000D02*
X151110000Y-94335000D01*
X171075000Y-86500000D02*
X171075000Y-85825000D01*
X171050000Y-86525000D02*
X171075000Y-86500000D01*
X169450000Y-85800000D02*
X169400000Y-85800000D01*
X169400000Y-85800000D02*
X169300000Y-85700000D01*
X169900000Y-86125000D02*
X169900000Y-86000000D01*
D10*
G36*
X171475148Y-85880183D02*
X171474853Y-86218334D01*
X171603985Y-86530857D01*
X171842885Y-86770174D01*
X172155183Y-86899852D01*
X172493334Y-86900147D01*
X172805857Y-86771015D01*
X172851952Y-86725000D01*
X173250000Y-86725000D01*
X173508312Y-86673619D01*
X173727297Y-86527297D01*
X173775000Y-86479594D01*
X173775000Y-89978787D01*
X173771015Y-89969143D01*
X173532115Y-89729826D01*
X173219817Y-89600148D01*
X172881666Y-89599853D01*
X172569143Y-89728985D01*
X172329826Y-89967885D01*
X172200148Y-90280183D01*
X172199853Y-90618334D01*
X172328985Y-90930857D01*
X172567885Y-91170174D01*
X172880183Y-91299852D01*
X172945315Y-91299909D01*
X173025000Y-91379594D01*
X173025000Y-94950000D01*
X171452167Y-94950000D01*
X171382115Y-94879826D01*
X171069817Y-94750148D01*
X170731666Y-94749853D01*
X170419143Y-94878985D01*
X170401345Y-94896751D01*
X170250091Y-94745497D01*
X170250147Y-94681666D01*
X170121015Y-94369143D01*
X169882115Y-94129826D01*
X169569817Y-94000148D01*
X169231666Y-93999853D01*
X169160775Y-94029145D01*
X169160775Y-93695000D01*
X169122736Y-93492842D01*
X169160775Y-93305000D01*
X169160775Y-92695000D01*
X169122736Y-92492842D01*
X169160775Y-92305000D01*
X169160775Y-91695000D01*
X169122736Y-91492842D01*
X169160775Y-91305000D01*
X169160775Y-90695000D01*
X169122736Y-90492842D01*
X169160775Y-90305000D01*
X169160775Y-89695000D01*
X169122736Y-89492842D01*
X169160775Y-89305000D01*
X169160775Y-88695000D01*
X169122736Y-88492842D01*
X169160775Y-88305000D01*
X169160775Y-87695000D01*
X169122736Y-87492842D01*
X169160775Y-87305000D01*
X169160775Y-86695000D01*
X169122736Y-86492842D01*
X169160775Y-86305000D01*
X169160775Y-85695000D01*
X169138195Y-85575000D01*
X171601872Y-85575000D01*
X171475148Y-85880183D01*
X171475148Y-85880183D01*
G37*
X171475148Y-85880183D02*
X171474853Y-86218334D01*
X171603985Y-86530857D01*
X171842885Y-86770174D01*
X172155183Y-86899852D01*
X172493334Y-86900147D01*
X172805857Y-86771015D01*
X172851952Y-86725000D01*
X173250000Y-86725000D01*
X173508312Y-86673619D01*
X173727297Y-86527297D01*
X173775000Y-86479594D01*
X173775000Y-89978787D01*
X173771015Y-89969143D01*
X173532115Y-89729826D01*
X173219817Y-89600148D01*
X172881666Y-89599853D01*
X172569143Y-89728985D01*
X172329826Y-89967885D01*
X172200148Y-90280183D01*
X172199853Y-90618334D01*
X172328985Y-90930857D01*
X172567885Y-91170174D01*
X172880183Y-91299852D01*
X172945315Y-91299909D01*
X173025000Y-91379594D01*
X173025000Y-94950000D01*
X171452167Y-94950000D01*
X171382115Y-94879826D01*
X171069817Y-94750148D01*
X170731666Y-94749853D01*
X170419143Y-94878985D01*
X170401345Y-94896751D01*
X170250091Y-94745497D01*
X170250147Y-94681666D01*
X170121015Y-94369143D01*
X169882115Y-94129826D01*
X169569817Y-94000148D01*
X169231666Y-93999853D01*
X169160775Y-94029145D01*
X169160775Y-93695000D01*
X169122736Y-93492842D01*
X169160775Y-93305000D01*
X169160775Y-92695000D01*
X169122736Y-92492842D01*
X169160775Y-92305000D01*
X169160775Y-91695000D01*
X169122736Y-91492842D01*
X169160775Y-91305000D01*
X169160775Y-90695000D01*
X169122736Y-90492842D01*
X169160775Y-90305000D01*
X169160775Y-89695000D01*
X169122736Y-89492842D01*
X169160775Y-89305000D01*
X169160775Y-88695000D01*
X169122736Y-88492842D01*
X169160775Y-88305000D01*
X169160775Y-87695000D01*
X169122736Y-87492842D01*
X169160775Y-87305000D01*
X169160775Y-86695000D01*
X169122736Y-86492842D01*
X169160775Y-86305000D01*
X169160775Y-85695000D01*
X169138195Y-85575000D01*
X171601872Y-85575000D01*
X171475148Y-85880183D01*
M02*
