M48
;DRILL file {KiCad 4.0.6} date 04/13/18 14:58:53
;FORMAT={-:-/ absolute / metric / decimal}
FMAT,2
METRIC,TZ
T1C0.400
T2C0.500
%
G90
G05
M71
T1
X151.3Y-98.8
X152.6Y-91.4
X153.825Y-88.15
X154.125Y-93.525
X154.775Y-92.9
X155.1Y-85.9
X155.725Y-90.95
X155.825Y-89.775
X157.6Y-99.5
X157.65Y-86.125
X160.25Y-85.525
X160.625Y-86.575
X161.3Y-94.9
X161.3Y-96.4
X161.525Y-82.1
X162.1Y-87.775
X163.4Y-103.15
X164.75Y-84.075
X164.775Y-89.925
X164.775Y-91.375
X164.8Y-94.025
X164.9Y-95.075
X164.95Y-85.65
X164.95Y-88.575
X165.Y-86.975
X165.1Y-87.775
X165.15Y-95.975
X165.275Y-99.
X165.45Y-82.625
X165.6Y-96.875
X166.4Y-98.8
X167.3Y-99.5
X169.3Y-85.7
X169.4Y-94.85
X169.9Y-86.125
X170.9Y-95.6
X171.05Y-86.525
X171.075Y-85.825
X172.325Y-86.05
X172.35Y-96.
X173.05Y-90.45
T2
X151.2Y-82.5
X151.2Y-83.5
X151.2Y-84.5
X151.2Y-85.5
T0
M30
