G04 #@! TF.FileFunction,Legend,Bot*
%FSLAX46Y46*%
G04 Gerber Fmt 4.6, Leading zero omitted, Abs format (unit mm)*
G04 Created by KiCad (PCBNEW 4.0.6) date 04/13/18 15:31:21*
%MOMM*%
%LPD*%
G01*
G04 APERTURE LIST*
%ADD10C,0.100000*%
%ADD11C,0.200000*%
%ADD12C,0.120000*%
%ADD13C,0.150000*%
G04 APERTURE END LIST*
D10*
D11*
X162877381Y-89465477D02*
X162401190Y-89132143D01*
X162877381Y-88894048D02*
X161877381Y-88894048D01*
X161877381Y-89275001D01*
X161925000Y-89370239D01*
X161972619Y-89417858D01*
X162067857Y-89465477D01*
X162210714Y-89465477D01*
X162305952Y-89417858D01*
X162353571Y-89370239D01*
X162401190Y-89275001D01*
X162401190Y-88894048D01*
X162829762Y-90275001D02*
X162877381Y-90179763D01*
X162877381Y-89989286D01*
X162829762Y-89894048D01*
X162734524Y-89846429D01*
X162353571Y-89846429D01*
X162258333Y-89894048D01*
X162210714Y-89989286D01*
X162210714Y-90179763D01*
X162258333Y-90275001D01*
X162353571Y-90322620D01*
X162448810Y-90322620D01*
X162544048Y-89846429D01*
X162210714Y-90655953D02*
X162877381Y-90894048D01*
X162210714Y-91132144D01*
X162782143Y-91513096D02*
X162829762Y-91560715D01*
X162877381Y-91513096D01*
X162829762Y-91465477D01*
X162782143Y-91513096D01*
X162877381Y-91513096D01*
X162258333Y-91513096D02*
X162305952Y-91560715D01*
X162353571Y-91513096D01*
X162305952Y-91465477D01*
X162258333Y-91513096D01*
X162353571Y-91513096D01*
X161877381Y-92655953D02*
X161877381Y-93275001D01*
X162258333Y-92941667D01*
X162258333Y-93084525D01*
X162305952Y-93179763D01*
X162353571Y-93227382D01*
X162448810Y-93275001D01*
X162686905Y-93275001D01*
X162782143Y-93227382D01*
X162829762Y-93179763D01*
X162877381Y-93084525D01*
X162877381Y-92798810D01*
X162829762Y-92703572D01*
X162782143Y-92655953D01*
X162782143Y-93703572D02*
X162829762Y-93751191D01*
X162877381Y-93703572D01*
X162829762Y-93655953D01*
X162782143Y-93703572D01*
X162877381Y-93703572D01*
X161877381Y-94370238D02*
X161877381Y-94465477D01*
X161925000Y-94560715D01*
X161972619Y-94608334D01*
X162067857Y-94655953D01*
X162258333Y-94703572D01*
X162496429Y-94703572D01*
X162686905Y-94655953D01*
X162782143Y-94608334D01*
X162829762Y-94560715D01*
X162877381Y-94465477D01*
X162877381Y-94370238D01*
X162829762Y-94275000D01*
X162782143Y-94227381D01*
X162686905Y-94179762D01*
X162496429Y-94132143D01*
X162258333Y-94132143D01*
X162067857Y-94179762D01*
X161972619Y-94227381D01*
X161925000Y-94275000D01*
X161877381Y-94370238D01*
D12*
X172560000Y-101555000D02*
X172990000Y-101555000D01*
X172990000Y-101555000D02*
X172990000Y-102580000D01*
X172990000Y-102580000D02*
X174120000Y-102580000D01*
X174120000Y-102580000D02*
X174120000Y-81420000D01*
X174120000Y-81420000D02*
X172990000Y-81420000D01*
X172990000Y-81420000D02*
X172990000Y-82445000D01*
X172990000Y-82445000D02*
X172560000Y-82445000D01*
X168480000Y-84710000D02*
X168480000Y-85335000D01*
X168480000Y-85335000D02*
X166680000Y-85335000D01*
X168480000Y-98665000D02*
X168480000Y-99290000D01*
D13*
X160850000Y-87425000D02*
X160850000Y-97425000D01*
X160850000Y-97425000D02*
X150850000Y-97425000D01*
X150850000Y-97425000D02*
X150850000Y-87425000D01*
X150850000Y-87425000D02*
X160850000Y-87425000D01*
D12*
X157355000Y-84500000D02*
X157355000Y-83300000D01*
X155595000Y-83300000D02*
X155595000Y-84500000D01*
X154705000Y-84475000D02*
X154705000Y-83275000D01*
X152945000Y-83275000D02*
X152945000Y-84475000D01*
D10*
X165126190Y-91833334D02*
X165483333Y-91833334D01*
X165554762Y-91809524D01*
X165602381Y-91761905D01*
X165626190Y-91690477D01*
X165626190Y-91642858D01*
X165126190Y-92023810D02*
X165126190Y-92333333D01*
X165316667Y-92166667D01*
X165316667Y-92238095D01*
X165340476Y-92285714D01*
X165364286Y-92309524D01*
X165411905Y-92333333D01*
X165530952Y-92333333D01*
X165578571Y-92309524D01*
X165602381Y-92285714D01*
X165626190Y-92238095D01*
X165626190Y-92095238D01*
X165602381Y-92047619D01*
X165578571Y-92023810D01*
X155980952Y-98126190D02*
X155980952Y-98530952D01*
X155957143Y-98578571D01*
X155933333Y-98602381D01*
X155885714Y-98626190D01*
X155790476Y-98626190D01*
X155742857Y-98602381D01*
X155719048Y-98578571D01*
X155695238Y-98530952D01*
X155695238Y-98126190D01*
X155242857Y-98126190D02*
X155338095Y-98126190D01*
X155385714Y-98150000D01*
X155409523Y-98173810D01*
X155457142Y-98245238D01*
X155480952Y-98340476D01*
X155480952Y-98530952D01*
X155457142Y-98578571D01*
X155433333Y-98602381D01*
X155385714Y-98626190D01*
X155290476Y-98626190D01*
X155242857Y-98602381D01*
X155219047Y-98578571D01*
X155195238Y-98530952D01*
X155195238Y-98411905D01*
X155219047Y-98364286D01*
X155242857Y-98340476D01*
X155290476Y-98316667D01*
X155385714Y-98316667D01*
X155433333Y-98340476D01*
X155457142Y-98364286D01*
X155480952Y-98411905D01*
X156726190Y-85641667D02*
X156726190Y-85403572D01*
X156226190Y-85403572D01*
X156726190Y-86070238D02*
X156726190Y-85784524D01*
X156726190Y-85927381D02*
X156226190Y-85927381D01*
X156297619Y-85879762D01*
X156345238Y-85832143D01*
X156369048Y-85784524D01*
X154051190Y-85641667D02*
X154051190Y-85403572D01*
X153551190Y-85403572D01*
X153598810Y-85784524D02*
X153575000Y-85808334D01*
X153551190Y-85855953D01*
X153551190Y-85975000D01*
X153575000Y-86022619D01*
X153598810Y-86046429D01*
X153646429Y-86070238D01*
X153694048Y-86070238D01*
X153765476Y-86046429D01*
X154051190Y-85760715D01*
X154051190Y-86070238D01*
M02*
