G04 #@! TF.FileFunction,Legend,Top*
%FSLAX46Y46*%
G04 Gerber Fmt 4.6, Leading zero omitted, Abs format (unit mm)*
G04 Created by KiCad (PCBNEW 4.0.6) date 04/13/18 15:31:21*
%MOMM*%
%LPD*%
G01*
G04 APERTURE LIST*
%ADD10C,0.100000*%
%ADD11C,0.200000*%
%ADD12C,0.120000*%
%ADD13C,0.150000*%
%ADD14C,0.010000*%
G04 APERTURE END LIST*
D10*
D11*
X167777381Y-97659523D02*
X167301190Y-97992857D01*
X167777381Y-98230952D02*
X166777381Y-98230952D01*
X166777381Y-97849999D01*
X166825000Y-97754761D01*
X166872619Y-97707142D01*
X166967857Y-97659523D01*
X167110714Y-97659523D01*
X167205952Y-97707142D01*
X167253571Y-97754761D01*
X167301190Y-97849999D01*
X167301190Y-98230952D01*
X167729762Y-96849999D02*
X167777381Y-96945237D01*
X167777381Y-97135714D01*
X167729762Y-97230952D01*
X167634524Y-97278571D01*
X167253571Y-97278571D01*
X167158333Y-97230952D01*
X167110714Y-97135714D01*
X167110714Y-96945237D01*
X167158333Y-96849999D01*
X167253571Y-96802380D01*
X167348810Y-96802380D01*
X167444048Y-97278571D01*
X167110714Y-96469047D02*
X167777381Y-96230952D01*
X167110714Y-95992856D01*
X167682143Y-95611904D02*
X167729762Y-95564285D01*
X167777381Y-95611904D01*
X167729762Y-95659523D01*
X167682143Y-95611904D01*
X167777381Y-95611904D01*
X167158333Y-95611904D02*
X167205952Y-95564285D01*
X167253571Y-95611904D01*
X167205952Y-95659523D01*
X167158333Y-95611904D01*
X167253571Y-95611904D01*
X166777381Y-94469047D02*
X166777381Y-93849999D01*
X167158333Y-94183333D01*
X167158333Y-94040475D01*
X167205952Y-93945237D01*
X167253571Y-93897618D01*
X167348810Y-93849999D01*
X167586905Y-93849999D01*
X167682143Y-93897618D01*
X167729762Y-93945237D01*
X167777381Y-94040475D01*
X167777381Y-94326190D01*
X167729762Y-94421428D01*
X167682143Y-94469047D01*
X167682143Y-93421428D02*
X167729762Y-93373809D01*
X167777381Y-93421428D01*
X167729762Y-93469047D01*
X167682143Y-93421428D01*
X167777381Y-93421428D01*
X166777381Y-92754762D02*
X166777381Y-92659523D01*
X166825000Y-92564285D01*
X166872619Y-92516666D01*
X166967857Y-92469047D01*
X167158333Y-92421428D01*
X167396429Y-92421428D01*
X167586905Y-92469047D01*
X167682143Y-92516666D01*
X167729762Y-92564285D01*
X167777381Y-92659523D01*
X167777381Y-92754762D01*
X167729762Y-92850000D01*
X167682143Y-92897619D01*
X167586905Y-92945238D01*
X167396429Y-92992857D01*
X167158333Y-92992857D01*
X166967857Y-92945238D01*
X166872619Y-92897619D01*
X166825000Y-92850000D01*
X166777381Y-92754762D01*
D12*
X171700000Y-88550000D02*
X171700000Y-87850000D01*
X172900000Y-87850000D02*
X172900000Y-88550000D01*
X160725000Y-89650000D02*
X160025000Y-89650000D01*
X160025000Y-88450000D02*
X160725000Y-88450000D01*
X171650000Y-100500000D02*
X170950000Y-100500000D01*
X170950000Y-99300000D02*
X171650000Y-99300000D01*
X158450000Y-85050000D02*
X157750000Y-85050000D01*
X157750000Y-83850000D02*
X158450000Y-83850000D01*
X157250000Y-87100000D02*
X157950000Y-87100000D01*
X157950000Y-88300000D02*
X157250000Y-88300000D01*
X158330000Y-83090000D02*
X160870000Y-83090000D01*
X160870000Y-81310000D02*
X158330000Y-81310000D01*
X160870000Y-81310000D02*
X160870000Y-83090000D01*
X158330000Y-83090000D02*
X158330000Y-81310000D01*
X171530000Y-103440000D02*
X174070000Y-103440000D01*
X174070000Y-101660000D02*
X171530000Y-101660000D01*
X174070000Y-101660000D02*
X174070000Y-103440000D01*
X171530000Y-103440000D02*
X171530000Y-101660000D01*
X150505000Y-86060000D02*
X150805507Y-86060000D01*
X151594493Y-86060000D02*
X151895000Y-86060000D01*
X150505000Y-83185000D02*
X150505000Y-86060000D01*
X151895000Y-83185000D02*
X151895000Y-86060000D01*
X150505000Y-83185000D02*
X150591724Y-83185000D01*
X151808276Y-83185000D02*
X151895000Y-83185000D01*
X150505000Y-82500000D02*
X150505000Y-81815000D01*
X150505000Y-81815000D02*
X151200000Y-81815000D01*
X167670000Y-90900000D02*
X167670000Y-89900000D01*
X169030000Y-89900000D02*
X169030000Y-90900000D01*
X162600000Y-101170000D02*
X163600000Y-101170000D01*
X163600000Y-102530000D02*
X162600000Y-102530000D01*
X169270000Y-102350000D02*
X169270000Y-101350000D01*
X170630000Y-101350000D02*
X170630000Y-102350000D01*
X163550000Y-84755000D02*
X162550000Y-84755000D01*
X162550000Y-83395000D02*
X163550000Y-83395000D01*
X163550000Y-86230000D02*
X162550000Y-86230000D01*
X162550000Y-84870000D02*
X163550000Y-84870000D01*
X163550000Y-87680000D02*
X162550000Y-87680000D01*
X162550000Y-86320000D02*
X163550000Y-86320000D01*
X163550000Y-89130000D02*
X162550000Y-89130000D01*
X162550000Y-87770000D02*
X163550000Y-87770000D01*
X163575000Y-90555000D02*
X162575000Y-90555000D01*
X162575000Y-89195000D02*
X163575000Y-89195000D01*
X163550000Y-92005000D02*
X162550000Y-92005000D01*
X162550000Y-90645000D02*
X163550000Y-90645000D01*
X163550000Y-93455000D02*
X162550000Y-93455000D01*
X162550000Y-92095000D02*
X163550000Y-92095000D01*
X163550000Y-94905000D02*
X162550000Y-94905000D01*
X162550000Y-93545000D02*
X163550000Y-93545000D01*
X163550000Y-96355000D02*
X162550000Y-96355000D01*
X162550000Y-94995000D02*
X163550000Y-94995000D01*
X163550000Y-97805000D02*
X162550000Y-97805000D01*
X162550000Y-96445000D02*
X163550000Y-96445000D01*
X163550000Y-99255000D02*
X162550000Y-99255000D01*
X162550000Y-97895000D02*
X163550000Y-97895000D01*
X163575000Y-100705000D02*
X162575000Y-100705000D01*
X162575000Y-99345000D02*
X163575000Y-99345000D01*
X156800000Y-89195000D02*
X157800000Y-89195000D01*
X157800000Y-90555000D02*
X156800000Y-90555000D01*
X156800000Y-90495000D02*
X157800000Y-90495000D01*
X157800000Y-91855000D02*
X156800000Y-91855000D01*
D10*
X160275000Y-95075000D02*
X159455000Y-95075000D01*
X160175000Y-92375000D02*
X159455000Y-92375000D01*
X160175000Y-92375000D02*
X160175000Y-92595000D01*
X156975000Y-92595000D02*
X156975000Y-92375000D01*
X156975000Y-92375000D02*
X157695000Y-92375000D01*
X157695000Y-95075000D02*
X156975000Y-95075000D01*
X156975000Y-95075000D02*
X156975000Y-94855000D01*
D12*
X165900000Y-103460000D02*
X167700000Y-103460000D01*
X167700000Y-100240000D02*
X164750000Y-100240000D01*
D13*
X169775000Y-97325000D02*
X169875000Y-97325000D01*
X169775000Y-92675000D02*
X169975000Y-92675000D01*
X173025000Y-92675000D02*
X172825000Y-92675000D01*
X173025000Y-97325000D02*
X172825000Y-97325000D01*
X169775000Y-97325000D02*
X169775000Y-92675000D01*
X173025000Y-97325000D02*
X173025000Y-92675000D01*
X169875000Y-97325000D02*
X169875000Y-98675000D01*
D12*
X153240000Y-83475000D02*
X153240000Y-85275000D01*
X156460000Y-85275000D02*
X156460000Y-82825000D01*
D13*
X166425000Y-87525000D02*
X166625000Y-87525000D01*
X166425000Y-83375000D02*
X166625000Y-83375000D01*
X171575000Y-83375000D02*
X171375000Y-83375000D01*
X171575000Y-87525000D02*
X171375000Y-87525000D01*
X166425000Y-87525000D02*
X166425000Y-83375000D01*
X171575000Y-87525000D02*
X171575000Y-83375000D01*
X166625000Y-87525000D02*
X166625000Y-88825000D01*
D14*
G36*
X155363287Y-95037372D02*
X155410395Y-95038204D01*
X155457832Y-95039587D01*
X155504717Y-95041499D01*
X155550172Y-95043918D01*
X155593317Y-95046822D01*
X155633273Y-95050189D01*
X155669162Y-95053996D01*
X155678489Y-95055154D01*
X155753076Y-95066616D01*
X155823070Y-95081217D01*
X155888607Y-95099012D01*
X155949822Y-95120059D01*
X156006852Y-95144413D01*
X156059831Y-95172131D01*
X156108896Y-95203269D01*
X156154181Y-95237883D01*
X156184730Y-95265187D01*
X156222646Y-95305173D01*
X156257076Y-95349351D01*
X156287760Y-95397283D01*
X156314439Y-95448531D01*
X156336852Y-95502654D01*
X156351207Y-95546587D01*
X156359430Y-95576553D01*
X156366324Y-95605513D01*
X156372014Y-95634403D01*
X156376627Y-95664162D01*
X156380286Y-95695727D01*
X156383117Y-95730034D01*
X156385244Y-95768021D01*
X156386794Y-95810625D01*
X156386893Y-95814145D01*
X156387604Y-95836386D01*
X156388457Y-95857609D01*
X156389404Y-95876930D01*
X156390396Y-95893461D01*
X156391384Y-95906318D01*
X156392318Y-95914613D01*
X156392512Y-95915745D01*
X156393638Y-95923785D01*
X156394260Y-95934132D01*
X156394378Y-95947553D01*
X156393997Y-95964816D01*
X156393116Y-95986689D01*
X156392731Y-95994767D01*
X156390738Y-96040894D01*
X156389018Y-96092521D01*
X156387574Y-96149509D01*
X156386406Y-96211720D01*
X156385518Y-96279016D01*
X156384909Y-96351259D01*
X156384582Y-96428310D01*
X156384539Y-96510031D01*
X156384781Y-96596283D01*
X156384985Y-96636823D01*
X156385235Y-96676616D01*
X156385536Y-96717879D01*
X156385884Y-96760241D01*
X156386274Y-96803332D01*
X156386700Y-96846785D01*
X156387158Y-96890230D01*
X156387642Y-96933297D01*
X156388147Y-96975617D01*
X156388668Y-97016822D01*
X156389200Y-97056542D01*
X156389737Y-97094409D01*
X156390276Y-97130051D01*
X156390809Y-97163102D01*
X156391333Y-97193191D01*
X156391843Y-97219950D01*
X156392332Y-97243008D01*
X156392796Y-97261998D01*
X156393230Y-97276550D01*
X156393629Y-97286294D01*
X156393987Y-97290862D01*
X156394076Y-97291159D01*
X156397425Y-97291355D01*
X156405375Y-97290374D01*
X156417048Y-97288381D01*
X156431562Y-97285544D01*
X156448039Y-97282031D01*
X156465597Y-97278008D01*
X156474355Y-97275896D01*
X156519201Y-97263574D01*
X156558797Y-97249864D01*
X156593401Y-97234626D01*
X156623267Y-97217723D01*
X156648652Y-97199014D01*
X156669811Y-97178361D01*
X156681895Y-97163166D01*
X156685074Y-97158800D01*
X156687936Y-97154899D01*
X156690524Y-97151166D01*
X156692879Y-97147301D01*
X156695046Y-97143005D01*
X156697067Y-97137980D01*
X156698985Y-97131927D01*
X156700844Y-97124547D01*
X156702685Y-97115541D01*
X156704553Y-97104611D01*
X156706490Y-97091457D01*
X156708539Y-97075780D01*
X156710744Y-97057283D01*
X156713146Y-97035666D01*
X156715789Y-97010630D01*
X156718717Y-96981877D01*
X156721971Y-96949107D01*
X156725596Y-96912022D01*
X156729633Y-96870324D01*
X156734127Y-96823713D01*
X156739120Y-96771890D01*
X156741029Y-96752097D01*
X156745358Y-96707219D01*
X156749534Y-96663902D01*
X156753527Y-96622476D01*
X156757303Y-96583273D01*
X156760831Y-96546625D01*
X156764080Y-96512861D01*
X156767017Y-96482313D01*
X156769611Y-96455312D01*
X156771830Y-96432190D01*
X156773641Y-96413276D01*
X156775014Y-96398904D01*
X156775916Y-96389403D01*
X156776316Y-96385104D01*
X156776333Y-96384880D01*
X156778993Y-96384338D01*
X156786328Y-96383700D01*
X156797372Y-96383030D01*
X156811156Y-96382389D01*
X156819372Y-96382079D01*
X156850705Y-96379901D01*
X156880190Y-96375430D01*
X156908459Y-96368368D01*
X156936141Y-96358418D01*
X156963867Y-96345281D01*
X156992268Y-96328662D01*
X157021973Y-96308261D01*
X157053612Y-96283781D01*
X157086788Y-96255823D01*
X157102987Y-96241813D01*
X157115612Y-96231180D01*
X157125265Y-96223502D01*
X157132549Y-96218359D01*
X157138067Y-96215330D01*
X157142419Y-96213993D01*
X157146209Y-96213928D01*
X157146644Y-96213985D01*
X157152598Y-96217602D01*
X157156876Y-96226326D01*
X157159369Y-96239841D01*
X157159996Y-96252358D01*
X157159802Y-96256978D01*
X157159202Y-96266899D01*
X157158222Y-96281793D01*
X157156885Y-96301333D01*
X157155215Y-96325191D01*
X157153239Y-96353040D01*
X157150979Y-96384552D01*
X157148461Y-96419400D01*
X157145708Y-96457257D01*
X157142746Y-96497795D01*
X157139599Y-96540686D01*
X157136291Y-96585603D01*
X157132847Y-96632219D01*
X157129292Y-96680206D01*
X157125649Y-96729237D01*
X157121944Y-96778985D01*
X157118200Y-96829121D01*
X157114443Y-96879319D01*
X157110696Y-96929250D01*
X157106985Y-96978589D01*
X157103333Y-97027006D01*
X157099766Y-97074175D01*
X157096307Y-97119768D01*
X157092982Y-97163458D01*
X157089814Y-97204917D01*
X157086828Y-97243818D01*
X157084049Y-97279834D01*
X157081501Y-97312636D01*
X157079209Y-97341898D01*
X157077197Y-97367292D01*
X157075490Y-97388491D01*
X157074111Y-97405167D01*
X157073086Y-97416992D01*
X157072439Y-97423640D01*
X157072370Y-97424223D01*
X157063639Y-97475403D01*
X157050822Y-97522721D01*
X157033849Y-97566280D01*
X157012648Y-97606184D01*
X156987150Y-97642537D01*
X156957282Y-97675445D01*
X156922974Y-97705012D01*
X156884155Y-97731341D01*
X156851484Y-97749304D01*
X156808680Y-97768656D01*
X156760710Y-97786383D01*
X156707834Y-97802419D01*
X156650314Y-97816696D01*
X156588409Y-97829147D01*
X156522379Y-97839704D01*
X156482822Y-97844869D01*
X156470599Y-97846380D01*
X156460682Y-97847680D01*
X156454263Y-97848607D01*
X156452456Y-97848965D01*
X156452670Y-97851781D01*
X156453481Y-97859857D01*
X156454848Y-97872844D01*
X156456735Y-97890396D01*
X156459103Y-97912162D01*
X156461913Y-97937796D01*
X156465127Y-97966948D01*
X156468707Y-97999269D01*
X156472614Y-98034413D01*
X156476810Y-98072030D01*
X156481257Y-98111772D01*
X156485916Y-98153290D01*
X156488538Y-98176607D01*
X156493430Y-98220083D01*
X156498227Y-98262724D01*
X156502881Y-98304110D01*
X156507345Y-98343818D01*
X156511572Y-98381429D01*
X156515514Y-98416520D01*
X156519124Y-98448671D01*
X156522355Y-98477460D01*
X156525160Y-98502466D01*
X156527490Y-98523268D01*
X156529300Y-98539446D01*
X156530541Y-98550577D01*
X156530822Y-98553111D01*
X156536734Y-98616579D01*
X156539853Y-98675474D01*
X156540140Y-98730154D01*
X156537553Y-98780975D01*
X156532051Y-98828294D01*
X156523593Y-98872467D01*
X156512139Y-98913851D01*
X156497646Y-98952801D01*
X156480861Y-98988192D01*
X156457722Y-99026397D01*
X156430583Y-99060791D01*
X156399412Y-99091394D01*
X156364175Y-99118219D01*
X156324840Y-99141286D01*
X156281373Y-99160610D01*
X156233742Y-99176208D01*
X156181914Y-99188097D01*
X156125855Y-99196293D01*
X156065533Y-99200814D01*
X156060900Y-99201002D01*
X156005042Y-99200991D01*
X155952630Y-99196513D01*
X155903647Y-99187560D01*
X155858072Y-99174120D01*
X155815888Y-99156183D01*
X155777075Y-99133740D01*
X155741615Y-99106780D01*
X155709488Y-99075291D01*
X155680676Y-99039266D01*
X155655161Y-98998691D01*
X155640759Y-98970767D01*
X155620087Y-98921677D01*
X155602958Y-98868705D01*
X155589536Y-98812495D01*
X155579989Y-98753687D01*
X155576720Y-98723498D01*
X155575348Y-98709461D01*
X155573970Y-98697251D01*
X155572736Y-98688085D01*
X155571796Y-98683181D01*
X155571710Y-98682934D01*
X155571534Y-98683247D01*
X155571360Y-98685161D01*
X155571187Y-98688825D01*
X155571014Y-98694388D01*
X155570840Y-98701997D01*
X155570665Y-98711803D01*
X155570486Y-98723953D01*
X155570304Y-98738597D01*
X155570117Y-98755883D01*
X155569924Y-98775959D01*
X155569724Y-98798976D01*
X155569516Y-98825080D01*
X155569299Y-98854421D01*
X155569072Y-98887149D01*
X155568835Y-98923410D01*
X155568585Y-98963355D01*
X155568323Y-99007131D01*
X155568047Y-99054888D01*
X155567756Y-99106775D01*
X155567449Y-99162940D01*
X155567126Y-99223531D01*
X155566784Y-99288698D01*
X155566424Y-99358589D01*
X155566044Y-99433353D01*
X155565643Y-99513138D01*
X155565220Y-99598094D01*
X155564775Y-99688370D01*
X155564306Y-99784112D01*
X155564215Y-99802650D01*
X155562021Y-100252089D01*
X155276649Y-100251999D01*
X155229584Y-100251976D01*
X155187866Y-100251933D01*
X155151197Y-100251868D01*
X155119281Y-100251775D01*
X155091821Y-100251651D01*
X155068518Y-100251492D01*
X155049076Y-100251293D01*
X155033197Y-100251049D01*
X155020584Y-100250758D01*
X155010939Y-100250414D01*
X155003966Y-100250013D01*
X154999367Y-100249551D01*
X154996845Y-100249025D01*
X154996102Y-100248429D01*
X154996393Y-100248031D01*
X154996951Y-100247458D01*
X154997465Y-100246476D01*
X154997937Y-100244871D01*
X154998367Y-100242428D01*
X154998757Y-100238935D01*
X154999108Y-100234177D01*
X154999420Y-100227941D01*
X154999694Y-100220012D01*
X154999932Y-100210177D01*
X155000134Y-100198222D01*
X155000302Y-100183932D01*
X155000436Y-100167095D01*
X155000538Y-100147497D01*
X155000609Y-100124923D01*
X155000648Y-100099159D01*
X155000658Y-100069993D01*
X155000640Y-100037209D01*
X155000594Y-100000595D01*
X155000521Y-99959935D01*
X155000423Y-99915018D01*
X155000301Y-99865627D01*
X155000154Y-99811551D01*
X154999985Y-99752574D01*
X154999795Y-99688483D01*
X154999583Y-99619065D01*
X154999475Y-99583757D01*
X154997441Y-98923361D01*
X154965896Y-98950042D01*
X154934352Y-98976723D01*
X154932476Y-99256451D01*
X154932194Y-99300291D01*
X154931925Y-99345749D01*
X154931672Y-99392085D01*
X154931439Y-99438555D01*
X154931227Y-99484418D01*
X154931040Y-99528931D01*
X154930883Y-99571354D01*
X154930756Y-99610943D01*
X154930665Y-99646956D01*
X154930611Y-99678652D01*
X154930598Y-99700106D01*
X154930564Y-99734026D01*
X154930470Y-99772431D01*
X154930319Y-99814162D01*
X154930120Y-99858058D01*
X154929877Y-99902961D01*
X154929597Y-99947712D01*
X154929286Y-99991151D01*
X154928950Y-100032119D01*
X154928723Y-100056650D01*
X154926851Y-100249267D01*
X154741511Y-100249267D01*
X154741511Y-99664765D01*
X154741509Y-99597113D01*
X154741503Y-99534881D01*
X154741491Y-99477845D01*
X154741470Y-99425779D01*
X154741439Y-99378459D01*
X154741395Y-99335660D01*
X154741338Y-99297158D01*
X154741265Y-99262729D01*
X154741173Y-99232147D01*
X154741062Y-99205188D01*
X154740930Y-99181627D01*
X154740774Y-99161240D01*
X154740592Y-99143802D01*
X154740383Y-99129089D01*
X154740145Y-99116876D01*
X154739875Y-99106938D01*
X154739573Y-99099050D01*
X154739235Y-99092989D01*
X154738861Y-99088530D01*
X154738447Y-99085447D01*
X154737994Y-99083517D01*
X154737497Y-99082514D01*
X154736956Y-99082214D01*
X154736572Y-99082293D01*
X154726737Y-99086194D01*
X154713064Y-99091431D01*
X154697036Y-99097453D01*
X154680135Y-99103714D01*
X154663843Y-99109663D01*
X154649644Y-99114751D01*
X154639020Y-99118430D01*
X154638500Y-99118604D01*
X154627670Y-99122327D01*
X154618712Y-99125632D01*
X154613144Y-99127952D01*
X154612346Y-99128380D01*
X154611164Y-99130526D01*
X154611170Y-99135251D01*
X154612477Y-99143297D01*
X154615199Y-99155403D01*
X154618557Y-99168841D01*
X154629676Y-99216898D01*
X154637751Y-99263091D01*
X154643019Y-99309339D01*
X154645718Y-99357562D01*
X154646205Y-99392723D01*
X154643745Y-99462682D01*
X154636415Y-99530104D01*
X154624094Y-99595508D01*
X154606658Y-99659412D01*
X154583984Y-99722335D01*
X154555950Y-99784794D01*
X154550937Y-99794824D01*
X154517307Y-99855143D01*
X154479387Y-99912080D01*
X154437435Y-99965443D01*
X154391708Y-100015044D01*
X154342463Y-100060692D01*
X154289958Y-100102198D01*
X154234450Y-100139371D01*
X154176196Y-100172022D01*
X154115453Y-100199961D01*
X154052479Y-100222999D01*
X153987530Y-100240944D01*
X153931533Y-100251961D01*
X153869172Y-100259677D01*
X153806155Y-100262976D01*
X153744150Y-100261793D01*
X153721278Y-100260162D01*
X153654129Y-100251558D01*
X153588263Y-100237561D01*
X153523956Y-100218335D01*
X153461487Y-100194041D01*
X153401133Y-100164842D01*
X153343173Y-100130899D01*
X153287884Y-100092376D01*
X153235545Y-100049434D01*
X153186433Y-100002235D01*
X153140827Y-99950943D01*
X153100389Y-99897700D01*
X153063688Y-99840476D01*
X153031582Y-99780089D01*
X153004166Y-99716782D01*
X152981538Y-99650802D01*
X152963792Y-99582393D01*
X152952192Y-99519723D01*
X152947824Y-99482877D01*
X152945139Y-99442119D01*
X152944142Y-99398929D01*
X152944420Y-99381310D01*
X153534558Y-99381310D01*
X153536656Y-99440576D01*
X153542264Y-99499939D01*
X153551230Y-99558095D01*
X153563399Y-99613739D01*
X153574882Y-99654132D01*
X153590922Y-99699403D01*
X153609004Y-99740548D01*
X153628975Y-99777370D01*
X153650681Y-99809670D01*
X153673968Y-99837252D01*
X153698682Y-99859917D01*
X153724670Y-99877467D01*
X153751779Y-99889706D01*
X153760124Y-99892317D01*
X153776003Y-99895058D01*
X153794871Y-99895674D01*
X153814535Y-99894278D01*
X153832804Y-99890988D01*
X153842633Y-99887984D01*
X153869286Y-99875065D01*
X153894806Y-99856874D01*
X153919036Y-99833701D01*
X153941814Y-99805834D01*
X153962981Y-99773562D01*
X153982378Y-99737173D01*
X153999844Y-99696958D01*
X154015221Y-99653204D01*
X154028348Y-99606200D01*
X154039065Y-99556235D01*
X154044596Y-99522769D01*
X154052088Y-99455984D01*
X154055142Y-99388837D01*
X154054692Y-99346156D01*
X154053864Y-99325754D01*
X154052802Y-99305994D01*
X154051575Y-99287699D01*
X154050252Y-99271690D01*
X154048901Y-99258789D01*
X154047590Y-99249819D01*
X154046389Y-99245600D01*
X154046298Y-99245491D01*
X154043256Y-99245373D01*
X154035588Y-99245771D01*
X154024282Y-99246617D01*
X154010327Y-99247838D01*
X154001769Y-99248656D01*
X153945759Y-99253598D01*
X153884285Y-99257952D01*
X153817497Y-99261709D01*
X153745546Y-99264862D01*
X153668582Y-99267403D01*
X153618275Y-99268671D01*
X153597964Y-99269150D01*
X153579587Y-99269630D01*
X153563874Y-99270087D01*
X153551553Y-99270499D01*
X153543353Y-99270844D01*
X153540004Y-99271098D01*
X153539966Y-99271115D01*
X153539580Y-99274018D01*
X153538932Y-99281658D01*
X153538091Y-99293139D01*
X153537120Y-99307562D01*
X153536123Y-99323445D01*
X153534558Y-99381310D01*
X152944420Y-99381310D01*
X152944840Y-99354784D01*
X152947239Y-99311163D01*
X152951163Y-99271028D01*
X152952922Y-99256577D01*
X152934933Y-99254893D01*
X152926197Y-99254245D01*
X152913133Y-99253492D01*
X152897057Y-99252700D01*
X152879282Y-99251935D01*
X152864028Y-99251361D01*
X152811111Y-99249513D01*
X152811111Y-100243623D01*
X152648319Y-100243623D01*
X152646672Y-99742326D01*
X152646486Y-99689550D01*
X152646280Y-99638290D01*
X152646056Y-99588832D01*
X152645817Y-99541461D01*
X152645565Y-99496462D01*
X152645301Y-99454120D01*
X152645030Y-99414720D01*
X152644752Y-99378547D01*
X152644469Y-99345887D01*
X152644185Y-99317024D01*
X152643902Y-99292244D01*
X152643621Y-99271832D01*
X152643344Y-99256072D01*
X152643075Y-99245250D01*
X152642816Y-99239652D01*
X152642696Y-99238904D01*
X152639089Y-99237892D01*
X152631081Y-99236767D01*
X152619909Y-99235676D01*
X152608617Y-99234871D01*
X152576867Y-99232964D01*
X152576864Y-99541443D01*
X152576844Y-99587917D01*
X152576787Y-99636382D01*
X152576696Y-99686094D01*
X152576573Y-99736306D01*
X152576421Y-99786276D01*
X152576243Y-99835258D01*
X152576042Y-99882507D01*
X152575820Y-99927279D01*
X152575580Y-99968829D01*
X152575326Y-100006412D01*
X152575059Y-100039285D01*
X152574989Y-100046773D01*
X152573117Y-100243623D01*
X152009836Y-100243623D01*
X152008715Y-99528895D01*
X152008571Y-99444343D01*
X152008409Y-99364375D01*
X152008230Y-99289062D01*
X152008035Y-99218476D01*
X152007921Y-99182472D01*
X153553355Y-99182472D01*
X153553932Y-99183959D01*
X153556128Y-99185044D01*
X153560640Y-99185771D01*
X153568167Y-99186183D01*
X153579404Y-99186325D01*
X153595051Y-99186239D01*
X153610505Y-99186045D01*
X153629794Y-99185703D01*
X153653124Y-99185175D01*
X153678897Y-99184506D01*
X153705515Y-99183739D01*
X153731379Y-99182916D01*
X153746678Y-99182384D01*
X153772594Y-99181349D01*
X153799955Y-99180077D01*
X153828183Y-99178611D01*
X153856702Y-99176990D01*
X153884938Y-99175257D01*
X153912313Y-99173452D01*
X153938251Y-99171617D01*
X153962177Y-99169792D01*
X153983515Y-99168020D01*
X154001688Y-99166340D01*
X154016120Y-99164796D01*
X154026236Y-99163427D01*
X154031459Y-99162274D01*
X154031980Y-99161983D01*
X154031764Y-99158888D01*
X154030162Y-99151443D01*
X154027464Y-99140688D01*
X154023960Y-99127663D01*
X154019939Y-99113409D01*
X154015691Y-99098965D01*
X154011506Y-99085372D01*
X154007673Y-99073669D01*
X154006242Y-99069578D01*
X153990476Y-99030423D01*
X153972480Y-98994220D01*
X153952568Y-98961349D01*
X153931052Y-98932189D01*
X153908246Y-98907119D01*
X153884464Y-98886520D01*
X153860019Y-98870772D01*
X153835224Y-98860254D01*
X153832949Y-98859566D01*
X153813383Y-98855899D01*
X153791451Y-98855113D01*
X153769596Y-98857140D01*
X153750383Y-98861870D01*
X153724084Y-98874029D01*
X153698629Y-98891500D01*
X153674254Y-98913982D01*
X153651194Y-98941176D01*
X153629686Y-98972781D01*
X153609964Y-99008496D01*
X153592266Y-99048022D01*
X153581607Y-99076634D01*
X153577102Y-99090379D01*
X153572293Y-99106180D01*
X153567472Y-99122945D01*
X153562930Y-99139582D01*
X153558959Y-99155001D01*
X153555850Y-99168110D01*
X153553894Y-99177817D01*
X153553355Y-99182472D01*
X152007921Y-99182472D01*
X152007825Y-99152686D01*
X152007598Y-99091764D01*
X152007357Y-99035782D01*
X152007101Y-98984808D01*
X152006830Y-98938916D01*
X152006545Y-98898175D01*
X152006247Y-98862657D01*
X152005935Y-98832433D01*
X152005611Y-98807573D01*
X152005274Y-98788148D01*
X152004925Y-98774229D01*
X152004584Y-98766189D01*
X152002971Y-98736864D01*
X152001473Y-98702476D01*
X152000095Y-98663607D01*
X151998842Y-98620837D01*
X151997718Y-98574747D01*
X151996729Y-98525918D01*
X151995878Y-98474932D01*
X151995171Y-98422368D01*
X151994613Y-98368808D01*
X151994207Y-98314832D01*
X151993959Y-98261023D01*
X151993873Y-98207959D01*
X151993954Y-98156223D01*
X151994207Y-98106396D01*
X151994637Y-98059057D01*
X151995248Y-98014789D01*
X151996044Y-97974171D01*
X151996875Y-97943511D01*
X152080155Y-97943511D01*
X152574044Y-97943511D01*
X152574044Y-99157067D01*
X152584628Y-99157264D01*
X152589274Y-99157424D01*
X152599043Y-99157815D01*
X152613418Y-99158417D01*
X152631883Y-99159206D01*
X152653923Y-99160160D01*
X152679021Y-99161257D01*
X152706661Y-99162475D01*
X152736326Y-99163790D01*
X152767502Y-99165182D01*
X152771600Y-99165365D01*
X152802935Y-99166768D01*
X152832830Y-99168102D01*
X152860767Y-99169346D01*
X152886231Y-99170476D01*
X152908704Y-99171470D01*
X152927671Y-99172304D01*
X152942615Y-99172957D01*
X152953019Y-99173404D01*
X152958367Y-99173624D01*
X152958661Y-99173635D01*
X152966360Y-99173009D01*
X152970209Y-99170780D01*
X152970328Y-99170473D01*
X152971482Y-99166764D01*
X152974083Y-99158606D01*
X152977837Y-99146919D01*
X152982448Y-99132622D01*
X152987321Y-99117556D01*
X153010502Y-99053551D01*
X153037402Y-98993506D01*
X153068362Y-98936859D01*
X153103727Y-98883046D01*
X153143839Y-98831505D01*
X153189040Y-98781673D01*
X153196288Y-98774302D01*
X153224295Y-98746904D01*
X153250488Y-98723075D01*
X153276204Y-98701702D01*
X153302781Y-98681672D01*
X153330970Y-98662260D01*
X153389403Y-98626864D01*
X153449844Y-98596616D01*
X153511981Y-98571519D01*
X153575501Y-98551577D01*
X153640091Y-98536793D01*
X153705438Y-98527170D01*
X153771230Y-98522711D01*
X153837153Y-98523420D01*
X153902894Y-98529301D01*
X153968141Y-98540355D01*
X154032581Y-98556588D01*
X154095900Y-98578001D01*
X154157786Y-98604599D01*
X154217925Y-98636384D01*
X154244800Y-98652674D01*
X154300754Y-98691334D01*
X154353479Y-98734487D01*
X154402688Y-98781806D01*
X154448094Y-98832965D01*
X154489410Y-98887640D01*
X154526348Y-98945504D01*
X154558622Y-99006232D01*
X154560889Y-99010983D01*
X154567464Y-99024438D01*
X154573444Y-99035871D01*
X154578332Y-99044392D01*
X154581633Y-99049117D01*
X154582549Y-99049778D01*
X154587932Y-99048770D01*
X154597831Y-99045843D01*
X154611557Y-99041257D01*
X154628420Y-99035273D01*
X154647728Y-99028152D01*
X154668794Y-99020156D01*
X154690926Y-99011545D01*
X154713436Y-99002580D01*
X154735632Y-98993522D01*
X154756825Y-98984632D01*
X154771144Y-98978451D01*
X154790988Y-98969506D01*
X154813046Y-98959115D01*
X154836603Y-98947652D01*
X154860943Y-98935493D01*
X154885348Y-98923014D01*
X154909103Y-98910591D01*
X154931490Y-98898599D01*
X154951795Y-98887414D01*
X154969299Y-98877412D01*
X154983288Y-98868967D01*
X154993044Y-98862457D01*
X154994592Y-98861289D01*
X155000729Y-98856500D01*
X155002756Y-98361906D01*
X155002900Y-98326657D01*
X155571348Y-98326657D01*
X155571408Y-98353591D01*
X155571569Y-98375784D01*
X155571832Y-98393366D01*
X155572197Y-98406464D01*
X155572665Y-98415209D01*
X155573235Y-98419729D01*
X155573629Y-98420467D01*
X155577127Y-98418581D01*
X155581009Y-98414948D01*
X155585484Y-98411000D01*
X155593359Y-98404972D01*
X155603305Y-98397861D01*
X155609026Y-98393951D01*
X155644311Y-98373375D01*
X155681009Y-98357959D01*
X155718670Y-98347739D01*
X155756840Y-98342753D01*
X155795068Y-98343035D01*
X155832901Y-98348622D01*
X155869887Y-98359551D01*
X155896183Y-98370967D01*
X155915682Y-98381603D01*
X155934631Y-98393687D01*
X155952265Y-98406577D01*
X155967819Y-98419634D01*
X155980530Y-98432217D01*
X155989633Y-98443686D01*
X155994311Y-98453201D01*
X155996854Y-98468991D01*
X155996455Y-98487878D01*
X155993058Y-98510291D01*
X155986604Y-98536660D01*
X155980358Y-98557325D01*
X155976928Y-98568173D01*
X155974530Y-98576775D01*
X155973020Y-98584498D01*
X155972255Y-98592711D01*
X155972094Y-98602782D01*
X155972393Y-98616078D01*
X155972843Y-98629292D01*
X155974355Y-98655918D01*
X155977049Y-98678769D01*
X155981254Y-98699648D01*
X155987301Y-98720359D01*
X155991778Y-98732996D01*
X155997983Y-98748001D01*
X156005787Y-98764521D01*
X156014214Y-98780652D01*
X156022290Y-98794488D01*
X156026464Y-98800761D01*
X156033884Y-98809207D01*
X156041074Y-98812448D01*
X156049310Y-98810719D01*
X156056867Y-98806353D01*
X156068568Y-98795159D01*
X156078290Y-98778682D01*
X156086032Y-98756922D01*
X156091793Y-98729880D01*
X156095575Y-98697554D01*
X156097376Y-98659944D01*
X156097198Y-98617051D01*
X156095040Y-98568874D01*
X156090901Y-98515413D01*
X156084783Y-98456668D01*
X156076684Y-98392639D01*
X156066605Y-98323324D01*
X156054547Y-98248725D01*
X156040508Y-98168841D01*
X156024489Y-98083672D01*
X156006489Y-97993217D01*
X155998579Y-97954800D01*
X155994393Y-97934708D01*
X155990515Y-97916183D01*
X155987114Y-97900020D01*
X155984355Y-97887012D01*
X155982408Y-97877954D01*
X155981445Y-97873661D01*
X155979855Y-97867311D01*
X155574993Y-97867311D01*
X155573119Y-98058277D01*
X155572571Y-98116364D01*
X155572125Y-98168936D01*
X155571779Y-98216122D01*
X155571534Y-98258052D01*
X155571390Y-98294854D01*
X155571348Y-98326657D01*
X155002900Y-98326657D01*
X155004782Y-97867311D01*
X153988865Y-97867311D01*
X153976427Y-97860756D01*
X153964956Y-97852429D01*
X153953647Y-97840257D01*
X153943866Y-97825910D01*
X153937942Y-97813689D01*
X153936972Y-97810827D01*
X153936132Y-97807304D01*
X153935409Y-97802706D01*
X153934793Y-97796616D01*
X153934270Y-97788620D01*
X153933831Y-97778301D01*
X153933462Y-97765245D01*
X153933152Y-97749035D01*
X153932889Y-97729258D01*
X153932662Y-97705496D01*
X153932459Y-97677336D01*
X153932268Y-97644360D01*
X153932078Y-97606256D01*
X153931900Y-97566488D01*
X153931783Y-97531942D01*
X153931747Y-97502196D01*
X153931813Y-97476829D01*
X153932001Y-97455417D01*
X153932331Y-97437540D01*
X153932823Y-97422774D01*
X153933498Y-97410699D01*
X153934376Y-97400891D01*
X153935477Y-97392929D01*
X153936821Y-97386391D01*
X153938429Y-97380855D01*
X153940321Y-97375898D01*
X153942517Y-97371099D01*
X153943455Y-97369189D01*
X153951022Y-97357213D01*
X153961220Y-97345304D01*
X153972200Y-97335470D01*
X153978100Y-97331562D01*
X153979726Y-97330850D01*
X153982107Y-97330208D01*
X153985545Y-97329632D01*
X153990342Y-97329117D01*
X153996800Y-97328657D01*
X154005221Y-97328247D01*
X154015906Y-97327881D01*
X154029159Y-97327554D01*
X154045280Y-97327260D01*
X154064572Y-97326996D01*
X154087336Y-97326754D01*
X154113875Y-97326530D01*
X154144490Y-97326318D01*
X154179484Y-97326113D01*
X154219158Y-97325910D01*
X154263815Y-97325703D01*
X154313756Y-97325488D01*
X154324016Y-97325445D01*
X154661466Y-97324034D01*
X154495360Y-96862600D01*
X154473817Y-96802695D01*
X154453524Y-96746147D01*
X154434535Y-96693104D01*
X154416903Y-96643719D01*
X154400679Y-96598141D01*
X154385918Y-96556521D01*
X154372673Y-96519009D01*
X154360995Y-96485756D01*
X154350939Y-96456912D01*
X154342558Y-96432628D01*
X154335904Y-96413054D01*
X154331030Y-96398340D01*
X154327990Y-96388638D01*
X154326853Y-96384234D01*
X154325869Y-96362575D01*
X154329295Y-96340803D01*
X154337349Y-96317784D01*
X154341194Y-96309445D01*
X154346862Y-96298505D01*
X154352739Y-96289075D01*
X154359837Y-96279836D01*
X154369167Y-96269468D01*
X154381379Y-96257012D01*
X154406182Y-96234493D01*
X154434678Y-96212818D01*
X154467168Y-96191825D01*
X154503957Y-96171349D01*
X154545347Y-96151226D01*
X154591642Y-96131292D01*
X154643145Y-96111385D01*
X154666722Y-96102879D01*
X154712840Y-96087480D01*
X154763671Y-96072182D01*
X154818287Y-96057205D01*
X154875757Y-96042767D01*
X154935153Y-96029087D01*
X154995544Y-96016384D01*
X155056001Y-96004877D01*
X155115596Y-95994785D01*
X155143678Y-95990500D01*
X155161222Y-95988005D01*
X155180507Y-95985400D01*
X155200588Y-95982798D01*
X155220516Y-95980313D01*
X155239347Y-95978060D01*
X155256134Y-95976152D01*
X155269930Y-95974702D01*
X155279790Y-95973826D01*
X155284026Y-95973613D01*
X155291730Y-95973600D01*
X155278749Y-95993667D01*
X155259570Y-96027242D01*
X155242058Y-96066002D01*
X155226274Y-96109720D01*
X155212275Y-96158170D01*
X155200120Y-96211126D01*
X155189869Y-96268363D01*
X155181580Y-96329655D01*
X155175701Y-96389878D01*
X155174601Y-96407542D01*
X155173727Y-96429824D01*
X155173079Y-96455703D01*
X155172658Y-96484156D01*
X155172462Y-96514161D01*
X155172491Y-96544697D01*
X155172746Y-96574742D01*
X155173226Y-96603273D01*
X155173930Y-96629270D01*
X155174859Y-96651710D01*
X155175767Y-96666456D01*
X155185382Y-96770753D01*
X155198769Y-96877975D01*
X155215738Y-96987024D01*
X155236103Y-97096800D01*
X155259676Y-97206205D01*
X155286270Y-97314140D01*
X155286459Y-97314861D01*
X155289240Y-97325445D01*
X155321675Y-97325445D01*
X155336624Y-97325274D01*
X155346708Y-97324703D01*
X155352702Y-97323647D01*
X155355376Y-97322016D01*
X155355574Y-97321630D01*
X155355432Y-97317657D01*
X155354052Y-97309302D01*
X155351647Y-97297637D01*
X155348428Y-97283737D01*
X155346880Y-97277478D01*
X155328058Y-97198962D01*
X155310835Y-97119451D01*
X155295286Y-97039532D01*
X155281482Y-96959788D01*
X155269498Y-96880803D01*
X155259405Y-96803162D01*
X155251278Y-96727450D01*
X155245188Y-96654251D01*
X155241208Y-96584149D01*
X155239413Y-96517730D01*
X155239848Y-96458955D01*
X155663484Y-96458955D01*
X155664487Y-96488473D01*
X155670560Y-96517330D01*
X155680464Y-96542158D01*
X155696114Y-96567467D01*
X155715577Y-96588824D01*
X155738427Y-96605904D01*
X155764235Y-96618385D01*
X155790710Y-96625614D01*
X155806341Y-96627055D01*
X155824838Y-96626644D01*
X155843809Y-96624575D01*
X155860858Y-96621041D01*
X155865732Y-96619560D01*
X155887308Y-96610662D01*
X155905828Y-96599107D01*
X155923481Y-96583519D01*
X155924218Y-96582774D01*
X155941902Y-96560914D01*
X155955491Y-96535903D01*
X155964770Y-96508686D01*
X155969526Y-96480209D01*
X155969547Y-96451417D01*
X155964618Y-96423256D01*
X155962087Y-96414907D01*
X155950034Y-96387074D01*
X155933982Y-96362839D01*
X155914364Y-96342522D01*
X155891608Y-96326441D01*
X155866145Y-96314917D01*
X155838406Y-96308268D01*
X155816211Y-96306672D01*
X155788331Y-96309332D01*
X155761506Y-96317191D01*
X155736550Y-96329808D01*
X155714275Y-96346741D01*
X155695494Y-96367551D01*
X155690395Y-96374896D01*
X155676488Y-96401320D01*
X155667502Y-96429621D01*
X155663484Y-96458955D01*
X155239848Y-96458955D01*
X155239874Y-96455577D01*
X155240890Y-96428024D01*
X155245222Y-96362017D01*
X155251791Y-96300928D01*
X155260673Y-96244458D01*
X155271945Y-96192310D01*
X155285682Y-96144188D01*
X155301962Y-96099792D01*
X155320859Y-96058827D01*
X155342452Y-96020994D01*
X155347200Y-96013625D01*
X155370383Y-95982978D01*
X155398888Y-95953310D01*
X155432450Y-95924786D01*
X155470805Y-95897569D01*
X155513689Y-95871824D01*
X155560839Y-95847717D01*
X155611989Y-95825410D01*
X155666877Y-95805070D01*
X155698244Y-95794879D01*
X155757834Y-95777934D01*
X155817199Y-95763984D01*
X155875916Y-95753036D01*
X155933562Y-95745097D01*
X155989713Y-95740175D01*
X156043947Y-95738275D01*
X156095840Y-95739407D01*
X156144968Y-95743576D01*
X156190910Y-95750790D01*
X156233240Y-95761056D01*
X156271537Y-95774381D01*
X156294373Y-95784841D01*
X156304890Y-95790203D01*
X156303679Y-95782419D01*
X156303049Y-95776493D01*
X156302275Y-95766431D01*
X156301462Y-95753736D01*
X156300838Y-95742312D01*
X156295542Y-95683161D01*
X156285793Y-95625598D01*
X156271754Y-95570108D01*
X156253588Y-95517179D01*
X156231459Y-95467299D01*
X156205529Y-95420955D01*
X156181225Y-95385506D01*
X156149618Y-95347335D01*
X156114498Y-95312356D01*
X156075723Y-95280508D01*
X156033147Y-95251730D01*
X155986626Y-95225961D01*
X155936018Y-95203141D01*
X155881178Y-95183208D01*
X155821963Y-95166101D01*
X155758227Y-95151760D01*
X155689828Y-95140124D01*
X155616621Y-95131131D01*
X155570508Y-95126993D01*
X155552236Y-95125779D01*
X155529346Y-95124601D01*
X155502798Y-95123483D01*
X155473553Y-95122447D01*
X155442569Y-95121516D01*
X155410807Y-95120712D01*
X155379226Y-95120059D01*
X155348788Y-95119579D01*
X155320452Y-95119296D01*
X155295177Y-95119231D01*
X155273924Y-95119407D01*
X155262211Y-95119678D01*
X155171667Y-95124857D01*
X155078157Y-95134633D01*
X154981891Y-95148937D01*
X154883077Y-95167700D01*
X154781925Y-95190851D01*
X154678641Y-95218322D01*
X154573437Y-95250041D01*
X154466520Y-95285941D01*
X154358099Y-95325951D01*
X154248383Y-95370001D01*
X154137580Y-95418023D01*
X154025900Y-95469945D01*
X153913551Y-95525698D01*
X153800742Y-95585214D01*
X153701491Y-95640509D01*
X153584813Y-95709202D01*
X153470614Y-95780569D01*
X153359168Y-95854385D01*
X153250749Y-95930425D01*
X153145630Y-96008464D01*
X153044084Y-96088277D01*
X152946386Y-96169639D01*
X152852808Y-96252326D01*
X152763624Y-96336112D01*
X152679108Y-96420772D01*
X152599532Y-96506082D01*
X152525172Y-96591816D01*
X152485235Y-96640775D01*
X152427081Y-96716637D01*
X152373428Y-96792568D01*
X152324381Y-96868366D01*
X152280046Y-96943823D01*
X152240528Y-97018735D01*
X152205932Y-97092896D01*
X152176364Y-97166102D01*
X152151930Y-97238146D01*
X152132734Y-97308825D01*
X152125662Y-97340967D01*
X152122251Y-97358527D01*
X152118967Y-97376855D01*
X152115936Y-97395074D01*
X152113285Y-97412309D01*
X152111144Y-97427685D01*
X152109638Y-97440326D01*
X152108894Y-97449357D01*
X152109041Y-97453902D01*
X152109199Y-97454206D01*
X152112070Y-97453473D01*
X152118250Y-97450165D01*
X152126450Y-97444980D01*
X152127161Y-97444500D01*
X152153216Y-97428856D01*
X152184086Y-97413749D01*
X152218948Y-97399412D01*
X152256982Y-97386078D01*
X152297366Y-97373979D01*
X152339278Y-97363349D01*
X152381897Y-97354419D01*
X152424401Y-97347423D01*
X152465968Y-97342594D01*
X152493682Y-97340647D01*
X152520272Y-97340119D01*
X152543313Y-97341287D01*
X152562388Y-97344072D01*
X152577081Y-97348397D01*
X152586974Y-97354185D01*
X152590601Y-97358635D01*
X152591037Y-97362363D01*
X152591339Y-97371495D01*
X152591508Y-97385792D01*
X152591546Y-97405014D01*
X152591453Y-97428922D01*
X152591231Y-97457278D01*
X152590881Y-97489843D01*
X152590404Y-97526376D01*
X152589802Y-97566640D01*
X152589387Y-97592145D01*
X152588787Y-97628158D01*
X152588213Y-97662967D01*
X152587673Y-97696096D01*
X152587174Y-97727071D01*
X152586723Y-97755416D01*
X152586328Y-97780657D01*
X152585997Y-97802318D01*
X152585737Y-97819925D01*
X152585555Y-97833002D01*
X152585458Y-97841075D01*
X152585446Y-97842617D01*
X152585333Y-97864489D01*
X152083829Y-97864489D01*
X152082007Y-97892006D01*
X152081196Y-97905487D01*
X152080567Y-97918283D01*
X152080214Y-97928378D01*
X152080170Y-97931517D01*
X152080155Y-97943511D01*
X151996875Y-97943511D01*
X151997031Y-97937786D01*
X151997722Y-97918111D01*
X151999967Y-97863048D01*
X152002404Y-97808669D01*
X152005005Y-97755427D01*
X152007740Y-97703772D01*
X152010581Y-97654153D01*
X152013498Y-97607023D01*
X152016462Y-97562830D01*
X152019444Y-97522027D01*
X152022416Y-97485063D01*
X152025348Y-97452388D01*
X152028210Y-97424455D01*
X152030976Y-97401712D01*
X152030985Y-97401645D01*
X152043920Y-97326080D01*
X152062347Y-97249595D01*
X152086202Y-97172282D01*
X152115424Y-97094231D01*
X152149951Y-97015533D01*
X152189721Y-96936280D01*
X152234672Y-96856563D01*
X152284741Y-96776473D01*
X152339866Y-96696101D01*
X152399986Y-96615538D01*
X152465038Y-96534876D01*
X152534960Y-96454206D01*
X152609691Y-96373619D01*
X152689168Y-96293206D01*
X152773328Y-96213058D01*
X152862111Y-96133266D01*
X152939730Y-96066988D01*
X153048753Y-95978862D01*
X153161841Y-95893006D01*
X153278515Y-95809688D01*
X153398298Y-95729179D01*
X153520712Y-95651746D01*
X153645279Y-95577659D01*
X153771520Y-95507188D01*
X153898958Y-95440601D01*
X154027114Y-95378167D01*
X154155511Y-95320156D01*
X154283671Y-95266836D01*
X154411115Y-95218477D01*
X154504444Y-95186123D01*
X154614504Y-95151363D01*
X154721698Y-95121226D01*
X154826308Y-95095650D01*
X154928617Y-95074575D01*
X155028907Y-95057937D01*
X155127460Y-95045676D01*
X155163433Y-95042246D01*
X155195715Y-95039993D01*
X155232720Y-95038401D01*
X155273570Y-95037448D01*
X155317385Y-95037113D01*
X155363287Y-95037372D01*
X155363287Y-95037372D01*
G37*
X155363287Y-95037372D02*
X155410395Y-95038204D01*
X155457832Y-95039587D01*
X155504717Y-95041499D01*
X155550172Y-95043918D01*
X155593317Y-95046822D01*
X155633273Y-95050189D01*
X155669162Y-95053996D01*
X155678489Y-95055154D01*
X155753076Y-95066616D01*
X155823070Y-95081217D01*
X155888607Y-95099012D01*
X155949822Y-95120059D01*
X156006852Y-95144413D01*
X156059831Y-95172131D01*
X156108896Y-95203269D01*
X156154181Y-95237883D01*
X156184730Y-95265187D01*
X156222646Y-95305173D01*
X156257076Y-95349351D01*
X156287760Y-95397283D01*
X156314439Y-95448531D01*
X156336852Y-95502654D01*
X156351207Y-95546587D01*
X156359430Y-95576553D01*
X156366324Y-95605513D01*
X156372014Y-95634403D01*
X156376627Y-95664162D01*
X156380286Y-95695727D01*
X156383117Y-95730034D01*
X156385244Y-95768021D01*
X156386794Y-95810625D01*
X156386893Y-95814145D01*
X156387604Y-95836386D01*
X156388457Y-95857609D01*
X156389404Y-95876930D01*
X156390396Y-95893461D01*
X156391384Y-95906318D01*
X156392318Y-95914613D01*
X156392512Y-95915745D01*
X156393638Y-95923785D01*
X156394260Y-95934132D01*
X156394378Y-95947553D01*
X156393997Y-95964816D01*
X156393116Y-95986689D01*
X156392731Y-95994767D01*
X156390738Y-96040894D01*
X156389018Y-96092521D01*
X156387574Y-96149509D01*
X156386406Y-96211720D01*
X156385518Y-96279016D01*
X156384909Y-96351259D01*
X156384582Y-96428310D01*
X156384539Y-96510031D01*
X156384781Y-96596283D01*
X156384985Y-96636823D01*
X156385235Y-96676616D01*
X156385536Y-96717879D01*
X156385884Y-96760241D01*
X156386274Y-96803332D01*
X156386700Y-96846785D01*
X156387158Y-96890230D01*
X156387642Y-96933297D01*
X156388147Y-96975617D01*
X156388668Y-97016822D01*
X156389200Y-97056542D01*
X156389737Y-97094409D01*
X156390276Y-97130051D01*
X156390809Y-97163102D01*
X156391333Y-97193191D01*
X156391843Y-97219950D01*
X156392332Y-97243008D01*
X156392796Y-97261998D01*
X156393230Y-97276550D01*
X156393629Y-97286294D01*
X156393987Y-97290862D01*
X156394076Y-97291159D01*
X156397425Y-97291355D01*
X156405375Y-97290374D01*
X156417048Y-97288381D01*
X156431562Y-97285544D01*
X156448039Y-97282031D01*
X156465597Y-97278008D01*
X156474355Y-97275896D01*
X156519201Y-97263574D01*
X156558797Y-97249864D01*
X156593401Y-97234626D01*
X156623267Y-97217723D01*
X156648652Y-97199014D01*
X156669811Y-97178361D01*
X156681895Y-97163166D01*
X156685074Y-97158800D01*
X156687936Y-97154899D01*
X156690524Y-97151166D01*
X156692879Y-97147301D01*
X156695046Y-97143005D01*
X156697067Y-97137980D01*
X156698985Y-97131927D01*
X156700844Y-97124547D01*
X156702685Y-97115541D01*
X156704553Y-97104611D01*
X156706490Y-97091457D01*
X156708539Y-97075780D01*
X156710744Y-97057283D01*
X156713146Y-97035666D01*
X156715789Y-97010630D01*
X156718717Y-96981877D01*
X156721971Y-96949107D01*
X156725596Y-96912022D01*
X156729633Y-96870324D01*
X156734127Y-96823713D01*
X156739120Y-96771890D01*
X156741029Y-96752097D01*
X156745358Y-96707219D01*
X156749534Y-96663902D01*
X156753527Y-96622476D01*
X156757303Y-96583273D01*
X156760831Y-96546625D01*
X156764080Y-96512861D01*
X156767017Y-96482313D01*
X156769611Y-96455312D01*
X156771830Y-96432190D01*
X156773641Y-96413276D01*
X156775014Y-96398904D01*
X156775916Y-96389403D01*
X156776316Y-96385104D01*
X156776333Y-96384880D01*
X156778993Y-96384338D01*
X156786328Y-96383700D01*
X156797372Y-96383030D01*
X156811156Y-96382389D01*
X156819372Y-96382079D01*
X156850705Y-96379901D01*
X156880190Y-96375430D01*
X156908459Y-96368368D01*
X156936141Y-96358418D01*
X156963867Y-96345281D01*
X156992268Y-96328662D01*
X157021973Y-96308261D01*
X157053612Y-96283781D01*
X157086788Y-96255823D01*
X157102987Y-96241813D01*
X157115612Y-96231180D01*
X157125265Y-96223502D01*
X157132549Y-96218359D01*
X157138067Y-96215330D01*
X157142419Y-96213993D01*
X157146209Y-96213928D01*
X157146644Y-96213985D01*
X157152598Y-96217602D01*
X157156876Y-96226326D01*
X157159369Y-96239841D01*
X157159996Y-96252358D01*
X157159802Y-96256978D01*
X157159202Y-96266899D01*
X157158222Y-96281793D01*
X157156885Y-96301333D01*
X157155215Y-96325191D01*
X157153239Y-96353040D01*
X157150979Y-96384552D01*
X157148461Y-96419400D01*
X157145708Y-96457257D01*
X157142746Y-96497795D01*
X157139599Y-96540686D01*
X157136291Y-96585603D01*
X157132847Y-96632219D01*
X157129292Y-96680206D01*
X157125649Y-96729237D01*
X157121944Y-96778985D01*
X157118200Y-96829121D01*
X157114443Y-96879319D01*
X157110696Y-96929250D01*
X157106985Y-96978589D01*
X157103333Y-97027006D01*
X157099766Y-97074175D01*
X157096307Y-97119768D01*
X157092982Y-97163458D01*
X157089814Y-97204917D01*
X157086828Y-97243818D01*
X157084049Y-97279834D01*
X157081501Y-97312636D01*
X157079209Y-97341898D01*
X157077197Y-97367292D01*
X157075490Y-97388491D01*
X157074111Y-97405167D01*
X157073086Y-97416992D01*
X157072439Y-97423640D01*
X157072370Y-97424223D01*
X157063639Y-97475403D01*
X157050822Y-97522721D01*
X157033849Y-97566280D01*
X157012648Y-97606184D01*
X156987150Y-97642537D01*
X156957282Y-97675445D01*
X156922974Y-97705012D01*
X156884155Y-97731341D01*
X156851484Y-97749304D01*
X156808680Y-97768656D01*
X156760710Y-97786383D01*
X156707834Y-97802419D01*
X156650314Y-97816696D01*
X156588409Y-97829147D01*
X156522379Y-97839704D01*
X156482822Y-97844869D01*
X156470599Y-97846380D01*
X156460682Y-97847680D01*
X156454263Y-97848607D01*
X156452456Y-97848965D01*
X156452670Y-97851781D01*
X156453481Y-97859857D01*
X156454848Y-97872844D01*
X156456735Y-97890396D01*
X156459103Y-97912162D01*
X156461913Y-97937796D01*
X156465127Y-97966948D01*
X156468707Y-97999269D01*
X156472614Y-98034413D01*
X156476810Y-98072030D01*
X156481257Y-98111772D01*
X156485916Y-98153290D01*
X156488538Y-98176607D01*
X156493430Y-98220083D01*
X156498227Y-98262724D01*
X156502881Y-98304110D01*
X156507345Y-98343818D01*
X156511572Y-98381429D01*
X156515514Y-98416520D01*
X156519124Y-98448671D01*
X156522355Y-98477460D01*
X156525160Y-98502466D01*
X156527490Y-98523268D01*
X156529300Y-98539446D01*
X156530541Y-98550577D01*
X156530822Y-98553111D01*
X156536734Y-98616579D01*
X156539853Y-98675474D01*
X156540140Y-98730154D01*
X156537553Y-98780975D01*
X156532051Y-98828294D01*
X156523593Y-98872467D01*
X156512139Y-98913851D01*
X156497646Y-98952801D01*
X156480861Y-98988192D01*
X156457722Y-99026397D01*
X156430583Y-99060791D01*
X156399412Y-99091394D01*
X156364175Y-99118219D01*
X156324840Y-99141286D01*
X156281373Y-99160610D01*
X156233742Y-99176208D01*
X156181914Y-99188097D01*
X156125855Y-99196293D01*
X156065533Y-99200814D01*
X156060900Y-99201002D01*
X156005042Y-99200991D01*
X155952630Y-99196513D01*
X155903647Y-99187560D01*
X155858072Y-99174120D01*
X155815888Y-99156183D01*
X155777075Y-99133740D01*
X155741615Y-99106780D01*
X155709488Y-99075291D01*
X155680676Y-99039266D01*
X155655161Y-98998691D01*
X155640759Y-98970767D01*
X155620087Y-98921677D01*
X155602958Y-98868705D01*
X155589536Y-98812495D01*
X155579989Y-98753687D01*
X155576720Y-98723498D01*
X155575348Y-98709461D01*
X155573970Y-98697251D01*
X155572736Y-98688085D01*
X155571796Y-98683181D01*
X155571710Y-98682934D01*
X155571534Y-98683247D01*
X155571360Y-98685161D01*
X155571187Y-98688825D01*
X155571014Y-98694388D01*
X155570840Y-98701997D01*
X155570665Y-98711803D01*
X155570486Y-98723953D01*
X155570304Y-98738597D01*
X155570117Y-98755883D01*
X155569924Y-98775959D01*
X155569724Y-98798976D01*
X155569516Y-98825080D01*
X155569299Y-98854421D01*
X155569072Y-98887149D01*
X155568835Y-98923410D01*
X155568585Y-98963355D01*
X155568323Y-99007131D01*
X155568047Y-99054888D01*
X155567756Y-99106775D01*
X155567449Y-99162940D01*
X155567126Y-99223531D01*
X155566784Y-99288698D01*
X155566424Y-99358589D01*
X155566044Y-99433353D01*
X155565643Y-99513138D01*
X155565220Y-99598094D01*
X155564775Y-99688370D01*
X155564306Y-99784112D01*
X155564215Y-99802650D01*
X155562021Y-100252089D01*
X155276649Y-100251999D01*
X155229584Y-100251976D01*
X155187866Y-100251933D01*
X155151197Y-100251868D01*
X155119281Y-100251775D01*
X155091821Y-100251651D01*
X155068518Y-100251492D01*
X155049076Y-100251293D01*
X155033197Y-100251049D01*
X155020584Y-100250758D01*
X155010939Y-100250414D01*
X155003966Y-100250013D01*
X154999367Y-100249551D01*
X154996845Y-100249025D01*
X154996102Y-100248429D01*
X154996393Y-100248031D01*
X154996951Y-100247458D01*
X154997465Y-100246476D01*
X154997937Y-100244871D01*
X154998367Y-100242428D01*
X154998757Y-100238935D01*
X154999108Y-100234177D01*
X154999420Y-100227941D01*
X154999694Y-100220012D01*
X154999932Y-100210177D01*
X155000134Y-100198222D01*
X155000302Y-100183932D01*
X155000436Y-100167095D01*
X155000538Y-100147497D01*
X155000609Y-100124923D01*
X155000648Y-100099159D01*
X155000658Y-100069993D01*
X155000640Y-100037209D01*
X155000594Y-100000595D01*
X155000521Y-99959935D01*
X155000423Y-99915018D01*
X155000301Y-99865627D01*
X155000154Y-99811551D01*
X154999985Y-99752574D01*
X154999795Y-99688483D01*
X154999583Y-99619065D01*
X154999475Y-99583757D01*
X154997441Y-98923361D01*
X154965896Y-98950042D01*
X154934352Y-98976723D01*
X154932476Y-99256451D01*
X154932194Y-99300291D01*
X154931925Y-99345749D01*
X154931672Y-99392085D01*
X154931439Y-99438555D01*
X154931227Y-99484418D01*
X154931040Y-99528931D01*
X154930883Y-99571354D01*
X154930756Y-99610943D01*
X154930665Y-99646956D01*
X154930611Y-99678652D01*
X154930598Y-99700106D01*
X154930564Y-99734026D01*
X154930470Y-99772431D01*
X154930319Y-99814162D01*
X154930120Y-99858058D01*
X154929877Y-99902961D01*
X154929597Y-99947712D01*
X154929286Y-99991151D01*
X154928950Y-100032119D01*
X154928723Y-100056650D01*
X154926851Y-100249267D01*
X154741511Y-100249267D01*
X154741511Y-99664765D01*
X154741509Y-99597113D01*
X154741503Y-99534881D01*
X154741491Y-99477845D01*
X154741470Y-99425779D01*
X154741439Y-99378459D01*
X154741395Y-99335660D01*
X154741338Y-99297158D01*
X154741265Y-99262729D01*
X154741173Y-99232147D01*
X154741062Y-99205188D01*
X154740930Y-99181627D01*
X154740774Y-99161240D01*
X154740592Y-99143802D01*
X154740383Y-99129089D01*
X154740145Y-99116876D01*
X154739875Y-99106938D01*
X154739573Y-99099050D01*
X154739235Y-99092989D01*
X154738861Y-99088530D01*
X154738447Y-99085447D01*
X154737994Y-99083517D01*
X154737497Y-99082514D01*
X154736956Y-99082214D01*
X154736572Y-99082293D01*
X154726737Y-99086194D01*
X154713064Y-99091431D01*
X154697036Y-99097453D01*
X154680135Y-99103714D01*
X154663843Y-99109663D01*
X154649644Y-99114751D01*
X154639020Y-99118430D01*
X154638500Y-99118604D01*
X154627670Y-99122327D01*
X154618712Y-99125632D01*
X154613144Y-99127952D01*
X154612346Y-99128380D01*
X154611164Y-99130526D01*
X154611170Y-99135251D01*
X154612477Y-99143297D01*
X154615199Y-99155403D01*
X154618557Y-99168841D01*
X154629676Y-99216898D01*
X154637751Y-99263091D01*
X154643019Y-99309339D01*
X154645718Y-99357562D01*
X154646205Y-99392723D01*
X154643745Y-99462682D01*
X154636415Y-99530104D01*
X154624094Y-99595508D01*
X154606658Y-99659412D01*
X154583984Y-99722335D01*
X154555950Y-99784794D01*
X154550937Y-99794824D01*
X154517307Y-99855143D01*
X154479387Y-99912080D01*
X154437435Y-99965443D01*
X154391708Y-100015044D01*
X154342463Y-100060692D01*
X154289958Y-100102198D01*
X154234450Y-100139371D01*
X154176196Y-100172022D01*
X154115453Y-100199961D01*
X154052479Y-100222999D01*
X153987530Y-100240944D01*
X153931533Y-100251961D01*
X153869172Y-100259677D01*
X153806155Y-100262976D01*
X153744150Y-100261793D01*
X153721278Y-100260162D01*
X153654129Y-100251558D01*
X153588263Y-100237561D01*
X153523956Y-100218335D01*
X153461487Y-100194041D01*
X153401133Y-100164842D01*
X153343173Y-100130899D01*
X153287884Y-100092376D01*
X153235545Y-100049434D01*
X153186433Y-100002235D01*
X153140827Y-99950943D01*
X153100389Y-99897700D01*
X153063688Y-99840476D01*
X153031582Y-99780089D01*
X153004166Y-99716782D01*
X152981538Y-99650802D01*
X152963792Y-99582393D01*
X152952192Y-99519723D01*
X152947824Y-99482877D01*
X152945139Y-99442119D01*
X152944142Y-99398929D01*
X152944420Y-99381310D01*
X153534558Y-99381310D01*
X153536656Y-99440576D01*
X153542264Y-99499939D01*
X153551230Y-99558095D01*
X153563399Y-99613739D01*
X153574882Y-99654132D01*
X153590922Y-99699403D01*
X153609004Y-99740548D01*
X153628975Y-99777370D01*
X153650681Y-99809670D01*
X153673968Y-99837252D01*
X153698682Y-99859917D01*
X153724670Y-99877467D01*
X153751779Y-99889706D01*
X153760124Y-99892317D01*
X153776003Y-99895058D01*
X153794871Y-99895674D01*
X153814535Y-99894278D01*
X153832804Y-99890988D01*
X153842633Y-99887984D01*
X153869286Y-99875065D01*
X153894806Y-99856874D01*
X153919036Y-99833701D01*
X153941814Y-99805834D01*
X153962981Y-99773562D01*
X153982378Y-99737173D01*
X153999844Y-99696958D01*
X154015221Y-99653204D01*
X154028348Y-99606200D01*
X154039065Y-99556235D01*
X154044596Y-99522769D01*
X154052088Y-99455984D01*
X154055142Y-99388837D01*
X154054692Y-99346156D01*
X154053864Y-99325754D01*
X154052802Y-99305994D01*
X154051575Y-99287699D01*
X154050252Y-99271690D01*
X154048901Y-99258789D01*
X154047590Y-99249819D01*
X154046389Y-99245600D01*
X154046298Y-99245491D01*
X154043256Y-99245373D01*
X154035588Y-99245771D01*
X154024282Y-99246617D01*
X154010327Y-99247838D01*
X154001769Y-99248656D01*
X153945759Y-99253598D01*
X153884285Y-99257952D01*
X153817497Y-99261709D01*
X153745546Y-99264862D01*
X153668582Y-99267403D01*
X153618275Y-99268671D01*
X153597964Y-99269150D01*
X153579587Y-99269630D01*
X153563874Y-99270087D01*
X153551553Y-99270499D01*
X153543353Y-99270844D01*
X153540004Y-99271098D01*
X153539966Y-99271115D01*
X153539580Y-99274018D01*
X153538932Y-99281658D01*
X153538091Y-99293139D01*
X153537120Y-99307562D01*
X153536123Y-99323445D01*
X153534558Y-99381310D01*
X152944420Y-99381310D01*
X152944840Y-99354784D01*
X152947239Y-99311163D01*
X152951163Y-99271028D01*
X152952922Y-99256577D01*
X152934933Y-99254893D01*
X152926197Y-99254245D01*
X152913133Y-99253492D01*
X152897057Y-99252700D01*
X152879282Y-99251935D01*
X152864028Y-99251361D01*
X152811111Y-99249513D01*
X152811111Y-100243623D01*
X152648319Y-100243623D01*
X152646672Y-99742326D01*
X152646486Y-99689550D01*
X152646280Y-99638290D01*
X152646056Y-99588832D01*
X152645817Y-99541461D01*
X152645565Y-99496462D01*
X152645301Y-99454120D01*
X152645030Y-99414720D01*
X152644752Y-99378547D01*
X152644469Y-99345887D01*
X152644185Y-99317024D01*
X152643902Y-99292244D01*
X152643621Y-99271832D01*
X152643344Y-99256072D01*
X152643075Y-99245250D01*
X152642816Y-99239652D01*
X152642696Y-99238904D01*
X152639089Y-99237892D01*
X152631081Y-99236767D01*
X152619909Y-99235676D01*
X152608617Y-99234871D01*
X152576867Y-99232964D01*
X152576864Y-99541443D01*
X152576844Y-99587917D01*
X152576787Y-99636382D01*
X152576696Y-99686094D01*
X152576573Y-99736306D01*
X152576421Y-99786276D01*
X152576243Y-99835258D01*
X152576042Y-99882507D01*
X152575820Y-99927279D01*
X152575580Y-99968829D01*
X152575326Y-100006412D01*
X152575059Y-100039285D01*
X152574989Y-100046773D01*
X152573117Y-100243623D01*
X152009836Y-100243623D01*
X152008715Y-99528895D01*
X152008571Y-99444343D01*
X152008409Y-99364375D01*
X152008230Y-99289062D01*
X152008035Y-99218476D01*
X152007921Y-99182472D01*
X153553355Y-99182472D01*
X153553932Y-99183959D01*
X153556128Y-99185044D01*
X153560640Y-99185771D01*
X153568167Y-99186183D01*
X153579404Y-99186325D01*
X153595051Y-99186239D01*
X153610505Y-99186045D01*
X153629794Y-99185703D01*
X153653124Y-99185175D01*
X153678897Y-99184506D01*
X153705515Y-99183739D01*
X153731379Y-99182916D01*
X153746678Y-99182384D01*
X153772594Y-99181349D01*
X153799955Y-99180077D01*
X153828183Y-99178611D01*
X153856702Y-99176990D01*
X153884938Y-99175257D01*
X153912313Y-99173452D01*
X153938251Y-99171617D01*
X153962177Y-99169792D01*
X153983515Y-99168020D01*
X154001688Y-99166340D01*
X154016120Y-99164796D01*
X154026236Y-99163427D01*
X154031459Y-99162274D01*
X154031980Y-99161983D01*
X154031764Y-99158888D01*
X154030162Y-99151443D01*
X154027464Y-99140688D01*
X154023960Y-99127663D01*
X154019939Y-99113409D01*
X154015691Y-99098965D01*
X154011506Y-99085372D01*
X154007673Y-99073669D01*
X154006242Y-99069578D01*
X153990476Y-99030423D01*
X153972480Y-98994220D01*
X153952568Y-98961349D01*
X153931052Y-98932189D01*
X153908246Y-98907119D01*
X153884464Y-98886520D01*
X153860019Y-98870772D01*
X153835224Y-98860254D01*
X153832949Y-98859566D01*
X153813383Y-98855899D01*
X153791451Y-98855113D01*
X153769596Y-98857140D01*
X153750383Y-98861870D01*
X153724084Y-98874029D01*
X153698629Y-98891500D01*
X153674254Y-98913982D01*
X153651194Y-98941176D01*
X153629686Y-98972781D01*
X153609964Y-99008496D01*
X153592266Y-99048022D01*
X153581607Y-99076634D01*
X153577102Y-99090379D01*
X153572293Y-99106180D01*
X153567472Y-99122945D01*
X153562930Y-99139582D01*
X153558959Y-99155001D01*
X153555850Y-99168110D01*
X153553894Y-99177817D01*
X153553355Y-99182472D01*
X152007921Y-99182472D01*
X152007825Y-99152686D01*
X152007598Y-99091764D01*
X152007357Y-99035782D01*
X152007101Y-98984808D01*
X152006830Y-98938916D01*
X152006545Y-98898175D01*
X152006247Y-98862657D01*
X152005935Y-98832433D01*
X152005611Y-98807573D01*
X152005274Y-98788148D01*
X152004925Y-98774229D01*
X152004584Y-98766189D01*
X152002971Y-98736864D01*
X152001473Y-98702476D01*
X152000095Y-98663607D01*
X151998842Y-98620837D01*
X151997718Y-98574747D01*
X151996729Y-98525918D01*
X151995878Y-98474932D01*
X151995171Y-98422368D01*
X151994613Y-98368808D01*
X151994207Y-98314832D01*
X151993959Y-98261023D01*
X151993873Y-98207959D01*
X151993954Y-98156223D01*
X151994207Y-98106396D01*
X151994637Y-98059057D01*
X151995248Y-98014789D01*
X151996044Y-97974171D01*
X151996875Y-97943511D01*
X152080155Y-97943511D01*
X152574044Y-97943511D01*
X152574044Y-99157067D01*
X152584628Y-99157264D01*
X152589274Y-99157424D01*
X152599043Y-99157815D01*
X152613418Y-99158417D01*
X152631883Y-99159206D01*
X152653923Y-99160160D01*
X152679021Y-99161257D01*
X152706661Y-99162475D01*
X152736326Y-99163790D01*
X152767502Y-99165182D01*
X152771600Y-99165365D01*
X152802935Y-99166768D01*
X152832830Y-99168102D01*
X152860767Y-99169346D01*
X152886231Y-99170476D01*
X152908704Y-99171470D01*
X152927671Y-99172304D01*
X152942615Y-99172957D01*
X152953019Y-99173404D01*
X152958367Y-99173624D01*
X152958661Y-99173635D01*
X152966360Y-99173009D01*
X152970209Y-99170780D01*
X152970328Y-99170473D01*
X152971482Y-99166764D01*
X152974083Y-99158606D01*
X152977837Y-99146919D01*
X152982448Y-99132622D01*
X152987321Y-99117556D01*
X153010502Y-99053551D01*
X153037402Y-98993506D01*
X153068362Y-98936859D01*
X153103727Y-98883046D01*
X153143839Y-98831505D01*
X153189040Y-98781673D01*
X153196288Y-98774302D01*
X153224295Y-98746904D01*
X153250488Y-98723075D01*
X153276204Y-98701702D01*
X153302781Y-98681672D01*
X153330970Y-98662260D01*
X153389403Y-98626864D01*
X153449844Y-98596616D01*
X153511981Y-98571519D01*
X153575501Y-98551577D01*
X153640091Y-98536793D01*
X153705438Y-98527170D01*
X153771230Y-98522711D01*
X153837153Y-98523420D01*
X153902894Y-98529301D01*
X153968141Y-98540355D01*
X154032581Y-98556588D01*
X154095900Y-98578001D01*
X154157786Y-98604599D01*
X154217925Y-98636384D01*
X154244800Y-98652674D01*
X154300754Y-98691334D01*
X154353479Y-98734487D01*
X154402688Y-98781806D01*
X154448094Y-98832965D01*
X154489410Y-98887640D01*
X154526348Y-98945504D01*
X154558622Y-99006232D01*
X154560889Y-99010983D01*
X154567464Y-99024438D01*
X154573444Y-99035871D01*
X154578332Y-99044392D01*
X154581633Y-99049117D01*
X154582549Y-99049778D01*
X154587932Y-99048770D01*
X154597831Y-99045843D01*
X154611557Y-99041257D01*
X154628420Y-99035273D01*
X154647728Y-99028152D01*
X154668794Y-99020156D01*
X154690926Y-99011545D01*
X154713436Y-99002580D01*
X154735632Y-98993522D01*
X154756825Y-98984632D01*
X154771144Y-98978451D01*
X154790988Y-98969506D01*
X154813046Y-98959115D01*
X154836603Y-98947652D01*
X154860943Y-98935493D01*
X154885348Y-98923014D01*
X154909103Y-98910591D01*
X154931490Y-98898599D01*
X154951795Y-98887414D01*
X154969299Y-98877412D01*
X154983288Y-98868967D01*
X154993044Y-98862457D01*
X154994592Y-98861289D01*
X155000729Y-98856500D01*
X155002756Y-98361906D01*
X155002900Y-98326657D01*
X155571348Y-98326657D01*
X155571408Y-98353591D01*
X155571569Y-98375784D01*
X155571832Y-98393366D01*
X155572197Y-98406464D01*
X155572665Y-98415209D01*
X155573235Y-98419729D01*
X155573629Y-98420467D01*
X155577127Y-98418581D01*
X155581009Y-98414948D01*
X155585484Y-98411000D01*
X155593359Y-98404972D01*
X155603305Y-98397861D01*
X155609026Y-98393951D01*
X155644311Y-98373375D01*
X155681009Y-98357959D01*
X155718670Y-98347739D01*
X155756840Y-98342753D01*
X155795068Y-98343035D01*
X155832901Y-98348622D01*
X155869887Y-98359551D01*
X155896183Y-98370967D01*
X155915682Y-98381603D01*
X155934631Y-98393687D01*
X155952265Y-98406577D01*
X155967819Y-98419634D01*
X155980530Y-98432217D01*
X155989633Y-98443686D01*
X155994311Y-98453201D01*
X155996854Y-98468991D01*
X155996455Y-98487878D01*
X155993058Y-98510291D01*
X155986604Y-98536660D01*
X155980358Y-98557325D01*
X155976928Y-98568173D01*
X155974530Y-98576775D01*
X155973020Y-98584498D01*
X155972255Y-98592711D01*
X155972094Y-98602782D01*
X155972393Y-98616078D01*
X155972843Y-98629292D01*
X155974355Y-98655918D01*
X155977049Y-98678769D01*
X155981254Y-98699648D01*
X155987301Y-98720359D01*
X155991778Y-98732996D01*
X155997983Y-98748001D01*
X156005787Y-98764521D01*
X156014214Y-98780652D01*
X156022290Y-98794488D01*
X156026464Y-98800761D01*
X156033884Y-98809207D01*
X156041074Y-98812448D01*
X156049310Y-98810719D01*
X156056867Y-98806353D01*
X156068568Y-98795159D01*
X156078290Y-98778682D01*
X156086032Y-98756922D01*
X156091793Y-98729880D01*
X156095575Y-98697554D01*
X156097376Y-98659944D01*
X156097198Y-98617051D01*
X156095040Y-98568874D01*
X156090901Y-98515413D01*
X156084783Y-98456668D01*
X156076684Y-98392639D01*
X156066605Y-98323324D01*
X156054547Y-98248725D01*
X156040508Y-98168841D01*
X156024489Y-98083672D01*
X156006489Y-97993217D01*
X155998579Y-97954800D01*
X155994393Y-97934708D01*
X155990515Y-97916183D01*
X155987114Y-97900020D01*
X155984355Y-97887012D01*
X155982408Y-97877954D01*
X155981445Y-97873661D01*
X155979855Y-97867311D01*
X155574993Y-97867311D01*
X155573119Y-98058277D01*
X155572571Y-98116364D01*
X155572125Y-98168936D01*
X155571779Y-98216122D01*
X155571534Y-98258052D01*
X155571390Y-98294854D01*
X155571348Y-98326657D01*
X155002900Y-98326657D01*
X155004782Y-97867311D01*
X153988865Y-97867311D01*
X153976427Y-97860756D01*
X153964956Y-97852429D01*
X153953647Y-97840257D01*
X153943866Y-97825910D01*
X153937942Y-97813689D01*
X153936972Y-97810827D01*
X153936132Y-97807304D01*
X153935409Y-97802706D01*
X153934793Y-97796616D01*
X153934270Y-97788620D01*
X153933831Y-97778301D01*
X153933462Y-97765245D01*
X153933152Y-97749035D01*
X153932889Y-97729258D01*
X153932662Y-97705496D01*
X153932459Y-97677336D01*
X153932268Y-97644360D01*
X153932078Y-97606256D01*
X153931900Y-97566488D01*
X153931783Y-97531942D01*
X153931747Y-97502196D01*
X153931813Y-97476829D01*
X153932001Y-97455417D01*
X153932331Y-97437540D01*
X153932823Y-97422774D01*
X153933498Y-97410699D01*
X153934376Y-97400891D01*
X153935477Y-97392929D01*
X153936821Y-97386391D01*
X153938429Y-97380855D01*
X153940321Y-97375898D01*
X153942517Y-97371099D01*
X153943455Y-97369189D01*
X153951022Y-97357213D01*
X153961220Y-97345304D01*
X153972200Y-97335470D01*
X153978100Y-97331562D01*
X153979726Y-97330850D01*
X153982107Y-97330208D01*
X153985545Y-97329632D01*
X153990342Y-97329117D01*
X153996800Y-97328657D01*
X154005221Y-97328247D01*
X154015906Y-97327881D01*
X154029159Y-97327554D01*
X154045280Y-97327260D01*
X154064572Y-97326996D01*
X154087336Y-97326754D01*
X154113875Y-97326530D01*
X154144490Y-97326318D01*
X154179484Y-97326113D01*
X154219158Y-97325910D01*
X154263815Y-97325703D01*
X154313756Y-97325488D01*
X154324016Y-97325445D01*
X154661466Y-97324034D01*
X154495360Y-96862600D01*
X154473817Y-96802695D01*
X154453524Y-96746147D01*
X154434535Y-96693104D01*
X154416903Y-96643719D01*
X154400679Y-96598141D01*
X154385918Y-96556521D01*
X154372673Y-96519009D01*
X154360995Y-96485756D01*
X154350939Y-96456912D01*
X154342558Y-96432628D01*
X154335904Y-96413054D01*
X154331030Y-96398340D01*
X154327990Y-96388638D01*
X154326853Y-96384234D01*
X154325869Y-96362575D01*
X154329295Y-96340803D01*
X154337349Y-96317784D01*
X154341194Y-96309445D01*
X154346862Y-96298505D01*
X154352739Y-96289075D01*
X154359837Y-96279836D01*
X154369167Y-96269468D01*
X154381379Y-96257012D01*
X154406182Y-96234493D01*
X154434678Y-96212818D01*
X154467168Y-96191825D01*
X154503957Y-96171349D01*
X154545347Y-96151226D01*
X154591642Y-96131292D01*
X154643145Y-96111385D01*
X154666722Y-96102879D01*
X154712840Y-96087480D01*
X154763671Y-96072182D01*
X154818287Y-96057205D01*
X154875757Y-96042767D01*
X154935153Y-96029087D01*
X154995544Y-96016384D01*
X155056001Y-96004877D01*
X155115596Y-95994785D01*
X155143678Y-95990500D01*
X155161222Y-95988005D01*
X155180507Y-95985400D01*
X155200588Y-95982798D01*
X155220516Y-95980313D01*
X155239347Y-95978060D01*
X155256134Y-95976152D01*
X155269930Y-95974702D01*
X155279790Y-95973826D01*
X155284026Y-95973613D01*
X155291730Y-95973600D01*
X155278749Y-95993667D01*
X155259570Y-96027242D01*
X155242058Y-96066002D01*
X155226274Y-96109720D01*
X155212275Y-96158170D01*
X155200120Y-96211126D01*
X155189869Y-96268363D01*
X155181580Y-96329655D01*
X155175701Y-96389878D01*
X155174601Y-96407542D01*
X155173727Y-96429824D01*
X155173079Y-96455703D01*
X155172658Y-96484156D01*
X155172462Y-96514161D01*
X155172491Y-96544697D01*
X155172746Y-96574742D01*
X155173226Y-96603273D01*
X155173930Y-96629270D01*
X155174859Y-96651710D01*
X155175767Y-96666456D01*
X155185382Y-96770753D01*
X155198769Y-96877975D01*
X155215738Y-96987024D01*
X155236103Y-97096800D01*
X155259676Y-97206205D01*
X155286270Y-97314140D01*
X155286459Y-97314861D01*
X155289240Y-97325445D01*
X155321675Y-97325445D01*
X155336624Y-97325274D01*
X155346708Y-97324703D01*
X155352702Y-97323647D01*
X155355376Y-97322016D01*
X155355574Y-97321630D01*
X155355432Y-97317657D01*
X155354052Y-97309302D01*
X155351647Y-97297637D01*
X155348428Y-97283737D01*
X155346880Y-97277478D01*
X155328058Y-97198962D01*
X155310835Y-97119451D01*
X155295286Y-97039532D01*
X155281482Y-96959788D01*
X155269498Y-96880803D01*
X155259405Y-96803162D01*
X155251278Y-96727450D01*
X155245188Y-96654251D01*
X155241208Y-96584149D01*
X155239413Y-96517730D01*
X155239848Y-96458955D01*
X155663484Y-96458955D01*
X155664487Y-96488473D01*
X155670560Y-96517330D01*
X155680464Y-96542158D01*
X155696114Y-96567467D01*
X155715577Y-96588824D01*
X155738427Y-96605904D01*
X155764235Y-96618385D01*
X155790710Y-96625614D01*
X155806341Y-96627055D01*
X155824838Y-96626644D01*
X155843809Y-96624575D01*
X155860858Y-96621041D01*
X155865732Y-96619560D01*
X155887308Y-96610662D01*
X155905828Y-96599107D01*
X155923481Y-96583519D01*
X155924218Y-96582774D01*
X155941902Y-96560914D01*
X155955491Y-96535903D01*
X155964770Y-96508686D01*
X155969526Y-96480209D01*
X155969547Y-96451417D01*
X155964618Y-96423256D01*
X155962087Y-96414907D01*
X155950034Y-96387074D01*
X155933982Y-96362839D01*
X155914364Y-96342522D01*
X155891608Y-96326441D01*
X155866145Y-96314917D01*
X155838406Y-96308268D01*
X155816211Y-96306672D01*
X155788331Y-96309332D01*
X155761506Y-96317191D01*
X155736550Y-96329808D01*
X155714275Y-96346741D01*
X155695494Y-96367551D01*
X155690395Y-96374896D01*
X155676488Y-96401320D01*
X155667502Y-96429621D01*
X155663484Y-96458955D01*
X155239848Y-96458955D01*
X155239874Y-96455577D01*
X155240890Y-96428024D01*
X155245222Y-96362017D01*
X155251791Y-96300928D01*
X155260673Y-96244458D01*
X155271945Y-96192310D01*
X155285682Y-96144188D01*
X155301962Y-96099792D01*
X155320859Y-96058827D01*
X155342452Y-96020994D01*
X155347200Y-96013625D01*
X155370383Y-95982978D01*
X155398888Y-95953310D01*
X155432450Y-95924786D01*
X155470805Y-95897569D01*
X155513689Y-95871824D01*
X155560839Y-95847717D01*
X155611989Y-95825410D01*
X155666877Y-95805070D01*
X155698244Y-95794879D01*
X155757834Y-95777934D01*
X155817199Y-95763984D01*
X155875916Y-95753036D01*
X155933562Y-95745097D01*
X155989713Y-95740175D01*
X156043947Y-95738275D01*
X156095840Y-95739407D01*
X156144968Y-95743576D01*
X156190910Y-95750790D01*
X156233240Y-95761056D01*
X156271537Y-95774381D01*
X156294373Y-95784841D01*
X156304890Y-95790203D01*
X156303679Y-95782419D01*
X156303049Y-95776493D01*
X156302275Y-95766431D01*
X156301462Y-95753736D01*
X156300838Y-95742312D01*
X156295542Y-95683161D01*
X156285793Y-95625598D01*
X156271754Y-95570108D01*
X156253588Y-95517179D01*
X156231459Y-95467299D01*
X156205529Y-95420955D01*
X156181225Y-95385506D01*
X156149618Y-95347335D01*
X156114498Y-95312356D01*
X156075723Y-95280508D01*
X156033147Y-95251730D01*
X155986626Y-95225961D01*
X155936018Y-95203141D01*
X155881178Y-95183208D01*
X155821963Y-95166101D01*
X155758227Y-95151760D01*
X155689828Y-95140124D01*
X155616621Y-95131131D01*
X155570508Y-95126993D01*
X155552236Y-95125779D01*
X155529346Y-95124601D01*
X155502798Y-95123483D01*
X155473553Y-95122447D01*
X155442569Y-95121516D01*
X155410807Y-95120712D01*
X155379226Y-95120059D01*
X155348788Y-95119579D01*
X155320452Y-95119296D01*
X155295177Y-95119231D01*
X155273924Y-95119407D01*
X155262211Y-95119678D01*
X155171667Y-95124857D01*
X155078157Y-95134633D01*
X154981891Y-95148937D01*
X154883077Y-95167700D01*
X154781925Y-95190851D01*
X154678641Y-95218322D01*
X154573437Y-95250041D01*
X154466520Y-95285941D01*
X154358099Y-95325951D01*
X154248383Y-95370001D01*
X154137580Y-95418023D01*
X154025900Y-95469945D01*
X153913551Y-95525698D01*
X153800742Y-95585214D01*
X153701491Y-95640509D01*
X153584813Y-95709202D01*
X153470614Y-95780569D01*
X153359168Y-95854385D01*
X153250749Y-95930425D01*
X153145630Y-96008464D01*
X153044084Y-96088277D01*
X152946386Y-96169639D01*
X152852808Y-96252326D01*
X152763624Y-96336112D01*
X152679108Y-96420772D01*
X152599532Y-96506082D01*
X152525172Y-96591816D01*
X152485235Y-96640775D01*
X152427081Y-96716637D01*
X152373428Y-96792568D01*
X152324381Y-96868366D01*
X152280046Y-96943823D01*
X152240528Y-97018735D01*
X152205932Y-97092896D01*
X152176364Y-97166102D01*
X152151930Y-97238146D01*
X152132734Y-97308825D01*
X152125662Y-97340967D01*
X152122251Y-97358527D01*
X152118967Y-97376855D01*
X152115936Y-97395074D01*
X152113285Y-97412309D01*
X152111144Y-97427685D01*
X152109638Y-97440326D01*
X152108894Y-97449357D01*
X152109041Y-97453902D01*
X152109199Y-97454206D01*
X152112070Y-97453473D01*
X152118250Y-97450165D01*
X152126450Y-97444980D01*
X152127161Y-97444500D01*
X152153216Y-97428856D01*
X152184086Y-97413749D01*
X152218948Y-97399412D01*
X152256982Y-97386078D01*
X152297366Y-97373979D01*
X152339278Y-97363349D01*
X152381897Y-97354419D01*
X152424401Y-97347423D01*
X152465968Y-97342594D01*
X152493682Y-97340647D01*
X152520272Y-97340119D01*
X152543313Y-97341287D01*
X152562388Y-97344072D01*
X152577081Y-97348397D01*
X152586974Y-97354185D01*
X152590601Y-97358635D01*
X152591037Y-97362363D01*
X152591339Y-97371495D01*
X152591508Y-97385792D01*
X152591546Y-97405014D01*
X152591453Y-97428922D01*
X152591231Y-97457278D01*
X152590881Y-97489843D01*
X152590404Y-97526376D01*
X152589802Y-97566640D01*
X152589387Y-97592145D01*
X152588787Y-97628158D01*
X152588213Y-97662967D01*
X152587673Y-97696096D01*
X152587174Y-97727071D01*
X152586723Y-97755416D01*
X152586328Y-97780657D01*
X152585997Y-97802318D01*
X152585737Y-97819925D01*
X152585555Y-97833002D01*
X152585458Y-97841075D01*
X152585446Y-97842617D01*
X152585333Y-97864489D01*
X152083829Y-97864489D01*
X152082007Y-97892006D01*
X152081196Y-97905487D01*
X152080567Y-97918283D01*
X152080214Y-97928378D01*
X152080170Y-97931517D01*
X152080155Y-97943511D01*
X151996875Y-97943511D01*
X151997031Y-97937786D01*
X151997722Y-97918111D01*
X151999967Y-97863048D01*
X152002404Y-97808669D01*
X152005005Y-97755427D01*
X152007740Y-97703772D01*
X152010581Y-97654153D01*
X152013498Y-97607023D01*
X152016462Y-97562830D01*
X152019444Y-97522027D01*
X152022416Y-97485063D01*
X152025348Y-97452388D01*
X152028210Y-97424455D01*
X152030976Y-97401712D01*
X152030985Y-97401645D01*
X152043920Y-97326080D01*
X152062347Y-97249595D01*
X152086202Y-97172282D01*
X152115424Y-97094231D01*
X152149951Y-97015533D01*
X152189721Y-96936280D01*
X152234672Y-96856563D01*
X152284741Y-96776473D01*
X152339866Y-96696101D01*
X152399986Y-96615538D01*
X152465038Y-96534876D01*
X152534960Y-96454206D01*
X152609691Y-96373619D01*
X152689168Y-96293206D01*
X152773328Y-96213058D01*
X152862111Y-96133266D01*
X152939730Y-96066988D01*
X153048753Y-95978862D01*
X153161841Y-95893006D01*
X153278515Y-95809688D01*
X153398298Y-95729179D01*
X153520712Y-95651746D01*
X153645279Y-95577659D01*
X153771520Y-95507188D01*
X153898958Y-95440601D01*
X154027114Y-95378167D01*
X154155511Y-95320156D01*
X154283671Y-95266836D01*
X154411115Y-95218477D01*
X154504444Y-95186123D01*
X154614504Y-95151363D01*
X154721698Y-95121226D01*
X154826308Y-95095650D01*
X154928617Y-95074575D01*
X155028907Y-95057937D01*
X155127460Y-95045676D01*
X155163433Y-95042246D01*
X155195715Y-95039993D01*
X155232720Y-95038401D01*
X155273570Y-95037448D01*
X155317385Y-95037113D01*
X155363287Y-95037372D01*
D10*
X173478571Y-88183333D02*
X173502381Y-88207143D01*
X173526190Y-88278571D01*
X173526190Y-88326190D01*
X173502381Y-88397619D01*
X173454762Y-88445238D01*
X173407143Y-88469047D01*
X173311905Y-88492857D01*
X173240476Y-88492857D01*
X173145238Y-88469047D01*
X173097619Y-88445238D01*
X173050000Y-88397619D01*
X173026190Y-88326190D01*
X173026190Y-88278571D01*
X173050000Y-88207143D01*
X173073810Y-88183333D01*
X173526190Y-87707143D02*
X173526190Y-87992857D01*
X173526190Y-87850000D02*
X173026190Y-87850000D01*
X173097619Y-87897619D01*
X173145238Y-87945238D01*
X173169048Y-87992857D01*
X160216667Y-88278571D02*
X160192857Y-88302381D01*
X160121429Y-88326190D01*
X160073810Y-88326190D01*
X160002381Y-88302381D01*
X159954762Y-88254762D01*
X159930953Y-88207143D01*
X159907143Y-88111905D01*
X159907143Y-88040476D01*
X159930953Y-87945238D01*
X159954762Y-87897619D01*
X160002381Y-87850000D01*
X160073810Y-87826190D01*
X160121429Y-87826190D01*
X160192857Y-87850000D01*
X160216667Y-87873810D01*
X160407143Y-87873810D02*
X160430953Y-87850000D01*
X160478572Y-87826190D01*
X160597619Y-87826190D01*
X160645238Y-87850000D01*
X160669048Y-87873810D01*
X160692857Y-87921429D01*
X160692857Y-87969048D01*
X160669048Y-88040476D01*
X160383334Y-88326190D01*
X160692857Y-88326190D01*
X169516667Y-99978571D02*
X169492857Y-100002381D01*
X169421429Y-100026190D01*
X169373810Y-100026190D01*
X169302381Y-100002381D01*
X169254762Y-99954762D01*
X169230953Y-99907143D01*
X169207143Y-99811905D01*
X169207143Y-99740476D01*
X169230953Y-99645238D01*
X169254762Y-99597619D01*
X169302381Y-99550000D01*
X169373810Y-99526190D01*
X169421429Y-99526190D01*
X169492857Y-99550000D01*
X169516667Y-99573810D01*
X169683334Y-99526190D02*
X169992857Y-99526190D01*
X169826191Y-99716667D01*
X169897619Y-99716667D01*
X169945238Y-99740476D01*
X169969048Y-99764286D01*
X169992857Y-99811905D01*
X169992857Y-99930952D01*
X169969048Y-99978571D01*
X169945238Y-100002381D01*
X169897619Y-100026190D01*
X169754762Y-100026190D01*
X169707143Y-100002381D01*
X169683334Y-99978571D01*
X158016667Y-85478571D02*
X157992857Y-85502381D01*
X157921429Y-85526190D01*
X157873810Y-85526190D01*
X157802381Y-85502381D01*
X157754762Y-85454762D01*
X157730953Y-85407143D01*
X157707143Y-85311905D01*
X157707143Y-85240476D01*
X157730953Y-85145238D01*
X157754762Y-85097619D01*
X157802381Y-85050000D01*
X157873810Y-85026190D01*
X157921429Y-85026190D01*
X157992857Y-85050000D01*
X158016667Y-85073810D01*
X158445238Y-85192857D02*
X158445238Y-85526190D01*
X158326191Y-85002381D02*
X158207143Y-85359524D01*
X158516667Y-85359524D01*
X157516667Y-86878571D02*
X157492857Y-86902381D01*
X157421429Y-86926190D01*
X157373810Y-86926190D01*
X157302381Y-86902381D01*
X157254762Y-86854762D01*
X157230953Y-86807143D01*
X157207143Y-86711905D01*
X157207143Y-86640476D01*
X157230953Y-86545238D01*
X157254762Y-86497619D01*
X157302381Y-86450000D01*
X157373810Y-86426190D01*
X157421429Y-86426190D01*
X157492857Y-86450000D01*
X157516667Y-86473810D01*
X157969048Y-86426190D02*
X157730953Y-86426190D01*
X157707143Y-86664286D01*
X157730953Y-86640476D01*
X157778572Y-86616667D01*
X157897619Y-86616667D01*
X157945238Y-86640476D01*
X157969048Y-86664286D01*
X157992857Y-86711905D01*
X157992857Y-86830952D01*
X157969048Y-86878571D01*
X157945238Y-86902381D01*
X157897619Y-86926190D01*
X157778572Y-86926190D01*
X157730953Y-86902381D01*
X157707143Y-86878571D01*
X162233334Y-81976190D02*
X162233334Y-82333333D01*
X162209524Y-82404762D01*
X162161905Y-82452381D01*
X162090477Y-82476190D01*
X162042858Y-82476190D01*
X162733333Y-82476190D02*
X162447619Y-82476190D01*
X162590476Y-82476190D02*
X162590476Y-81976190D01*
X162542857Y-82047619D01*
X162495238Y-82095238D01*
X162447619Y-82119048D01*
X172633334Y-101126190D02*
X172633334Y-101483333D01*
X172609524Y-101554762D01*
X172561905Y-101602381D01*
X172490477Y-101626190D01*
X172442858Y-101626190D01*
X172847619Y-101173810D02*
X172871429Y-101150000D01*
X172919048Y-101126190D01*
X173038095Y-101126190D01*
X173085714Y-101150000D01*
X173109524Y-101173810D01*
X173133333Y-101221429D01*
X173133333Y-101269048D01*
X173109524Y-101340476D01*
X172823810Y-101626190D01*
X173133333Y-101626190D01*
X151033334Y-86226190D02*
X151033334Y-86583333D01*
X151009524Y-86654762D01*
X150961905Y-86702381D01*
X150890477Y-86726190D01*
X150842858Y-86726190D01*
X151509524Y-86226190D02*
X151271429Y-86226190D01*
X151247619Y-86464286D01*
X151271429Y-86440476D01*
X151319048Y-86416667D01*
X151438095Y-86416667D01*
X151485714Y-86440476D01*
X151509524Y-86464286D01*
X151533333Y-86511905D01*
X151533333Y-86630952D01*
X151509524Y-86678571D01*
X151485714Y-86702381D01*
X151438095Y-86726190D01*
X151319048Y-86726190D01*
X151271429Y-86702381D01*
X151247619Y-86678571D01*
X167526190Y-90483333D02*
X167288095Y-90650000D01*
X167526190Y-90769047D02*
X167026190Y-90769047D01*
X167026190Y-90578571D01*
X167050000Y-90530952D01*
X167073810Y-90507143D01*
X167121429Y-90483333D01*
X167192857Y-90483333D01*
X167240476Y-90507143D01*
X167264286Y-90530952D01*
X167288095Y-90578571D01*
X167288095Y-90769047D01*
X167026190Y-90316666D02*
X167026190Y-90007143D01*
X167216667Y-90173809D01*
X167216667Y-90102381D01*
X167240476Y-90054762D01*
X167264286Y-90030952D01*
X167311905Y-90007143D01*
X167430952Y-90007143D01*
X167478571Y-90030952D01*
X167502381Y-90054762D01*
X167526190Y-90102381D01*
X167526190Y-90245238D01*
X167502381Y-90292857D01*
X167478571Y-90316666D01*
X162316667Y-103226190D02*
X162150000Y-102988095D01*
X162030953Y-103226190D02*
X162030953Y-102726190D01*
X162221429Y-102726190D01*
X162269048Y-102750000D01*
X162292857Y-102773810D01*
X162316667Y-102821429D01*
X162316667Y-102892857D01*
X162292857Y-102940476D01*
X162269048Y-102964286D01*
X162221429Y-102988095D01*
X162030953Y-102988095D01*
X162745238Y-102892857D02*
X162745238Y-103226190D01*
X162626191Y-102702381D02*
X162507143Y-103059524D01*
X162816667Y-103059524D01*
X171226190Y-101883333D02*
X170988095Y-102050000D01*
X171226190Y-102169047D02*
X170726190Y-102169047D01*
X170726190Y-101978571D01*
X170750000Y-101930952D01*
X170773810Y-101907143D01*
X170821429Y-101883333D01*
X170892857Y-101883333D01*
X170940476Y-101907143D01*
X170964286Y-101930952D01*
X170988095Y-101978571D01*
X170988095Y-102169047D01*
X170726190Y-101430952D02*
X170726190Y-101669047D01*
X170964286Y-101692857D01*
X170940476Y-101669047D01*
X170916667Y-101621428D01*
X170916667Y-101502381D01*
X170940476Y-101454762D01*
X170964286Y-101430952D01*
X171011905Y-101407143D01*
X171130952Y-101407143D01*
X171178571Y-101430952D01*
X171202381Y-101454762D01*
X171226190Y-101502381D01*
X171226190Y-101621428D01*
X171202381Y-101669047D01*
X171178571Y-101692857D01*
X161316667Y-84226190D02*
X161150000Y-83988095D01*
X161030953Y-84226190D02*
X161030953Y-83726190D01*
X161221429Y-83726190D01*
X161269048Y-83750000D01*
X161292857Y-83773810D01*
X161316667Y-83821429D01*
X161316667Y-83892857D01*
X161292857Y-83940476D01*
X161269048Y-83964286D01*
X161221429Y-83988095D01*
X161030953Y-83988095D01*
X161745238Y-83726190D02*
X161650000Y-83726190D01*
X161602381Y-83750000D01*
X161578572Y-83773810D01*
X161530953Y-83845238D01*
X161507143Y-83940476D01*
X161507143Y-84130952D01*
X161530953Y-84178571D01*
X161554762Y-84202381D01*
X161602381Y-84226190D01*
X161697619Y-84226190D01*
X161745238Y-84202381D01*
X161769048Y-84178571D01*
X161792857Y-84130952D01*
X161792857Y-84011905D01*
X161769048Y-83964286D01*
X161745238Y-83940476D01*
X161697619Y-83916667D01*
X161602381Y-83916667D01*
X161554762Y-83940476D01*
X161530953Y-83964286D01*
X161507143Y-84011905D01*
X161316667Y-85726190D02*
X161150000Y-85488095D01*
X161030953Y-85726190D02*
X161030953Y-85226190D01*
X161221429Y-85226190D01*
X161269048Y-85250000D01*
X161292857Y-85273810D01*
X161316667Y-85321429D01*
X161316667Y-85392857D01*
X161292857Y-85440476D01*
X161269048Y-85464286D01*
X161221429Y-85488095D01*
X161030953Y-85488095D01*
X161483334Y-85226190D02*
X161816667Y-85226190D01*
X161602381Y-85726190D01*
X161316667Y-87226190D02*
X161150000Y-86988095D01*
X161030953Y-87226190D02*
X161030953Y-86726190D01*
X161221429Y-86726190D01*
X161269048Y-86750000D01*
X161292857Y-86773810D01*
X161316667Y-86821429D01*
X161316667Y-86892857D01*
X161292857Y-86940476D01*
X161269048Y-86964286D01*
X161221429Y-86988095D01*
X161030953Y-86988095D01*
X161602381Y-86940476D02*
X161554762Y-86916667D01*
X161530953Y-86892857D01*
X161507143Y-86845238D01*
X161507143Y-86821429D01*
X161530953Y-86773810D01*
X161554762Y-86750000D01*
X161602381Y-86726190D01*
X161697619Y-86726190D01*
X161745238Y-86750000D01*
X161769048Y-86773810D01*
X161792857Y-86821429D01*
X161792857Y-86845238D01*
X161769048Y-86892857D01*
X161745238Y-86916667D01*
X161697619Y-86940476D01*
X161602381Y-86940476D01*
X161554762Y-86964286D01*
X161530953Y-86988095D01*
X161507143Y-87035714D01*
X161507143Y-87130952D01*
X161530953Y-87178571D01*
X161554762Y-87202381D01*
X161602381Y-87226190D01*
X161697619Y-87226190D01*
X161745238Y-87202381D01*
X161769048Y-87178571D01*
X161792857Y-87130952D01*
X161792857Y-87035714D01*
X161769048Y-86988095D01*
X161745238Y-86964286D01*
X161697619Y-86940476D01*
X161316667Y-88476190D02*
X161150000Y-88238095D01*
X161030953Y-88476190D02*
X161030953Y-87976190D01*
X161221429Y-87976190D01*
X161269048Y-88000000D01*
X161292857Y-88023810D01*
X161316667Y-88071429D01*
X161316667Y-88142857D01*
X161292857Y-88190476D01*
X161269048Y-88214286D01*
X161221429Y-88238095D01*
X161030953Y-88238095D01*
X161554762Y-88476190D02*
X161650000Y-88476190D01*
X161697619Y-88452381D01*
X161721429Y-88428571D01*
X161769048Y-88357143D01*
X161792857Y-88261905D01*
X161792857Y-88071429D01*
X161769048Y-88023810D01*
X161745238Y-88000000D01*
X161697619Y-87976190D01*
X161602381Y-87976190D01*
X161554762Y-88000000D01*
X161530953Y-88023810D01*
X161507143Y-88071429D01*
X161507143Y-88190476D01*
X161530953Y-88238095D01*
X161554762Y-88261905D01*
X161602381Y-88285714D01*
X161697619Y-88285714D01*
X161745238Y-88261905D01*
X161769048Y-88238095D01*
X161792857Y-88190476D01*
X160828572Y-90226190D02*
X160661905Y-89988095D01*
X160542858Y-90226190D02*
X160542858Y-89726190D01*
X160733334Y-89726190D01*
X160780953Y-89750000D01*
X160804762Y-89773810D01*
X160828572Y-89821429D01*
X160828572Y-89892857D01*
X160804762Y-89940476D01*
X160780953Y-89964286D01*
X160733334Y-89988095D01*
X160542858Y-89988095D01*
X161304762Y-90226190D02*
X161019048Y-90226190D01*
X161161905Y-90226190D02*
X161161905Y-89726190D01*
X161114286Y-89797619D01*
X161066667Y-89845238D01*
X161019048Y-89869048D01*
X161614286Y-89726190D02*
X161661905Y-89726190D01*
X161709524Y-89750000D01*
X161733333Y-89773810D01*
X161757143Y-89821429D01*
X161780952Y-89916667D01*
X161780952Y-90035714D01*
X161757143Y-90130952D01*
X161733333Y-90178571D01*
X161709524Y-90202381D01*
X161661905Y-90226190D01*
X161614286Y-90226190D01*
X161566667Y-90202381D01*
X161542857Y-90178571D01*
X161519048Y-90130952D01*
X161495238Y-90035714D01*
X161495238Y-89916667D01*
X161519048Y-89821429D01*
X161542857Y-89773810D01*
X161566667Y-89750000D01*
X161614286Y-89726190D01*
X160828572Y-91476190D02*
X160661905Y-91238095D01*
X160542858Y-91476190D02*
X160542858Y-90976190D01*
X160733334Y-90976190D01*
X160780953Y-91000000D01*
X160804762Y-91023810D01*
X160828572Y-91071429D01*
X160828572Y-91142857D01*
X160804762Y-91190476D01*
X160780953Y-91214286D01*
X160733334Y-91238095D01*
X160542858Y-91238095D01*
X161304762Y-91476190D02*
X161019048Y-91476190D01*
X161161905Y-91476190D02*
X161161905Y-90976190D01*
X161114286Y-91047619D01*
X161066667Y-91095238D01*
X161019048Y-91119048D01*
X161780952Y-91476190D02*
X161495238Y-91476190D01*
X161638095Y-91476190D02*
X161638095Y-90976190D01*
X161590476Y-91047619D01*
X161542857Y-91095238D01*
X161495238Y-91119048D01*
X160828572Y-92976190D02*
X160661905Y-92738095D01*
X160542858Y-92976190D02*
X160542858Y-92476190D01*
X160733334Y-92476190D01*
X160780953Y-92500000D01*
X160804762Y-92523810D01*
X160828572Y-92571429D01*
X160828572Y-92642857D01*
X160804762Y-92690476D01*
X160780953Y-92714286D01*
X160733334Y-92738095D01*
X160542858Y-92738095D01*
X161304762Y-92976190D02*
X161019048Y-92976190D01*
X161161905Y-92976190D02*
X161161905Y-92476190D01*
X161114286Y-92547619D01*
X161066667Y-92595238D01*
X161019048Y-92619048D01*
X161495238Y-92523810D02*
X161519048Y-92500000D01*
X161566667Y-92476190D01*
X161685714Y-92476190D01*
X161733333Y-92500000D01*
X161757143Y-92523810D01*
X161780952Y-92571429D01*
X161780952Y-92619048D01*
X161757143Y-92690476D01*
X161471429Y-92976190D01*
X161780952Y-92976190D01*
X160828572Y-94476190D02*
X160661905Y-94238095D01*
X160542858Y-94476190D02*
X160542858Y-93976190D01*
X160733334Y-93976190D01*
X160780953Y-94000000D01*
X160804762Y-94023810D01*
X160828572Y-94071429D01*
X160828572Y-94142857D01*
X160804762Y-94190476D01*
X160780953Y-94214286D01*
X160733334Y-94238095D01*
X160542858Y-94238095D01*
X161304762Y-94476190D02*
X161019048Y-94476190D01*
X161161905Y-94476190D02*
X161161905Y-93976190D01*
X161114286Y-94047619D01*
X161066667Y-94095238D01*
X161019048Y-94119048D01*
X161471429Y-93976190D02*
X161780952Y-93976190D01*
X161614286Y-94166667D01*
X161685714Y-94166667D01*
X161733333Y-94190476D01*
X161757143Y-94214286D01*
X161780952Y-94261905D01*
X161780952Y-94380952D01*
X161757143Y-94428571D01*
X161733333Y-94452381D01*
X161685714Y-94476190D01*
X161542857Y-94476190D01*
X161495238Y-94452381D01*
X161471429Y-94428571D01*
X160878572Y-95826190D02*
X160711905Y-95588095D01*
X160592858Y-95826190D02*
X160592858Y-95326190D01*
X160783334Y-95326190D01*
X160830953Y-95350000D01*
X160854762Y-95373810D01*
X160878572Y-95421429D01*
X160878572Y-95492857D01*
X160854762Y-95540476D01*
X160830953Y-95564286D01*
X160783334Y-95588095D01*
X160592858Y-95588095D01*
X161354762Y-95826190D02*
X161069048Y-95826190D01*
X161211905Y-95826190D02*
X161211905Y-95326190D01*
X161164286Y-95397619D01*
X161116667Y-95445238D01*
X161069048Y-95469048D01*
X161783333Y-95492857D02*
X161783333Y-95826190D01*
X161664286Y-95302381D02*
X161545238Y-95659524D01*
X161854762Y-95659524D01*
X160878572Y-97426190D02*
X160711905Y-97188095D01*
X160592858Y-97426190D02*
X160592858Y-96926190D01*
X160783334Y-96926190D01*
X160830953Y-96950000D01*
X160854762Y-96973810D01*
X160878572Y-97021429D01*
X160878572Y-97092857D01*
X160854762Y-97140476D01*
X160830953Y-97164286D01*
X160783334Y-97188095D01*
X160592858Y-97188095D01*
X161354762Y-97426190D02*
X161069048Y-97426190D01*
X161211905Y-97426190D02*
X161211905Y-96926190D01*
X161164286Y-96997619D01*
X161116667Y-97045238D01*
X161069048Y-97069048D01*
X161807143Y-96926190D02*
X161569048Y-96926190D01*
X161545238Y-97164286D01*
X161569048Y-97140476D01*
X161616667Y-97116667D01*
X161735714Y-97116667D01*
X161783333Y-97140476D01*
X161807143Y-97164286D01*
X161830952Y-97211905D01*
X161830952Y-97330952D01*
X161807143Y-97378571D01*
X161783333Y-97402381D01*
X161735714Y-97426190D01*
X161616667Y-97426190D01*
X161569048Y-97402381D01*
X161545238Y-97378571D01*
X160878572Y-98826190D02*
X160711905Y-98588095D01*
X160592858Y-98826190D02*
X160592858Y-98326190D01*
X160783334Y-98326190D01*
X160830953Y-98350000D01*
X160854762Y-98373810D01*
X160878572Y-98421429D01*
X160878572Y-98492857D01*
X160854762Y-98540476D01*
X160830953Y-98564286D01*
X160783334Y-98588095D01*
X160592858Y-98588095D01*
X161354762Y-98826190D02*
X161069048Y-98826190D01*
X161211905Y-98826190D02*
X161211905Y-98326190D01*
X161164286Y-98397619D01*
X161116667Y-98445238D01*
X161069048Y-98469048D01*
X161521429Y-98326190D02*
X161854762Y-98326190D01*
X161640476Y-98826190D01*
X160878572Y-100226190D02*
X160711905Y-99988095D01*
X160592858Y-100226190D02*
X160592858Y-99726190D01*
X160783334Y-99726190D01*
X160830953Y-99750000D01*
X160854762Y-99773810D01*
X160878572Y-99821429D01*
X160878572Y-99892857D01*
X160854762Y-99940476D01*
X160830953Y-99964286D01*
X160783334Y-99988095D01*
X160592858Y-99988095D01*
X161354762Y-100226190D02*
X161069048Y-100226190D01*
X161211905Y-100226190D02*
X161211905Y-99726190D01*
X161164286Y-99797619D01*
X161116667Y-99845238D01*
X161069048Y-99869048D01*
X161640476Y-99940476D02*
X161592857Y-99916667D01*
X161569048Y-99892857D01*
X161545238Y-99845238D01*
X161545238Y-99821429D01*
X161569048Y-99773810D01*
X161592857Y-99750000D01*
X161640476Y-99726190D01*
X161735714Y-99726190D01*
X161783333Y-99750000D01*
X161807143Y-99773810D01*
X161830952Y-99821429D01*
X161830952Y-99845238D01*
X161807143Y-99892857D01*
X161783333Y-99916667D01*
X161735714Y-99940476D01*
X161640476Y-99940476D01*
X161592857Y-99964286D01*
X161569048Y-99988095D01*
X161545238Y-100035714D01*
X161545238Y-100130952D01*
X161569048Y-100178571D01*
X161592857Y-100202381D01*
X161640476Y-100226190D01*
X161735714Y-100226190D01*
X161783333Y-100202381D01*
X161807143Y-100178571D01*
X161830952Y-100130952D01*
X161830952Y-100035714D01*
X161807143Y-99988095D01*
X161783333Y-99964286D01*
X161735714Y-99940476D01*
X154478572Y-90026190D02*
X154311905Y-89788095D01*
X154192858Y-90026190D02*
X154192858Y-89526190D01*
X154383334Y-89526190D01*
X154430953Y-89550000D01*
X154454762Y-89573810D01*
X154478572Y-89621429D01*
X154478572Y-89692857D01*
X154454762Y-89740476D01*
X154430953Y-89764286D01*
X154383334Y-89788095D01*
X154192858Y-89788095D01*
X154954762Y-90026190D02*
X154669048Y-90026190D01*
X154811905Y-90026190D02*
X154811905Y-89526190D01*
X154764286Y-89597619D01*
X154716667Y-89645238D01*
X154669048Y-89669048D01*
X155192857Y-90026190D02*
X155288095Y-90026190D01*
X155335714Y-90002381D01*
X155359524Y-89978571D01*
X155407143Y-89907143D01*
X155430952Y-89811905D01*
X155430952Y-89621429D01*
X155407143Y-89573810D01*
X155383333Y-89550000D01*
X155335714Y-89526190D01*
X155240476Y-89526190D01*
X155192857Y-89550000D01*
X155169048Y-89573810D01*
X155145238Y-89621429D01*
X155145238Y-89740476D01*
X155169048Y-89788095D01*
X155192857Y-89811905D01*
X155240476Y-89835714D01*
X155335714Y-89835714D01*
X155383333Y-89811905D01*
X155407143Y-89788095D01*
X155430952Y-89740476D01*
X154478572Y-91326190D02*
X154311905Y-91088095D01*
X154192858Y-91326190D02*
X154192858Y-90826190D01*
X154383334Y-90826190D01*
X154430953Y-90850000D01*
X154454762Y-90873810D01*
X154478572Y-90921429D01*
X154478572Y-90992857D01*
X154454762Y-91040476D01*
X154430953Y-91064286D01*
X154383334Y-91088095D01*
X154192858Y-91088095D01*
X154669048Y-90873810D02*
X154692858Y-90850000D01*
X154740477Y-90826190D01*
X154859524Y-90826190D01*
X154907143Y-90850000D01*
X154930953Y-90873810D01*
X154954762Y-90921429D01*
X154954762Y-90969048D01*
X154930953Y-91040476D01*
X154645239Y-91326190D01*
X154954762Y-91326190D01*
X155264286Y-90826190D02*
X155311905Y-90826190D01*
X155359524Y-90850000D01*
X155383333Y-90873810D01*
X155407143Y-90921429D01*
X155430952Y-91016667D01*
X155430952Y-91135714D01*
X155407143Y-91230952D01*
X155383333Y-91278571D01*
X155359524Y-91302381D01*
X155311905Y-91326190D01*
X155264286Y-91326190D01*
X155216667Y-91302381D01*
X155192857Y-91278571D01*
X155169048Y-91230952D01*
X155145238Y-91135714D01*
X155145238Y-91016667D01*
X155169048Y-90921429D01*
X155192857Y-90873810D01*
X155216667Y-90850000D01*
X155264286Y-90826190D01*
X158319048Y-95526190D02*
X158319048Y-95930952D01*
X158342857Y-95978571D01*
X158366667Y-96002381D01*
X158414286Y-96026190D01*
X158509524Y-96026190D01*
X158557143Y-96002381D01*
X158580952Y-95978571D01*
X158604762Y-95930952D01*
X158604762Y-95526190D01*
X158819048Y-95573810D02*
X158842858Y-95550000D01*
X158890477Y-95526190D01*
X159009524Y-95526190D01*
X159057143Y-95550000D01*
X159080953Y-95573810D01*
X159104762Y-95621429D01*
X159104762Y-95669048D01*
X159080953Y-95740476D01*
X158795239Y-96026190D01*
X159104762Y-96026190D01*
X166019048Y-99426190D02*
X166019048Y-99830952D01*
X166042857Y-99878571D01*
X166066667Y-99902381D01*
X166114286Y-99926190D01*
X166209524Y-99926190D01*
X166257143Y-99902381D01*
X166280952Y-99878571D01*
X166304762Y-99830952D01*
X166304762Y-99426190D01*
X166495239Y-99426190D02*
X166804762Y-99426190D01*
X166638096Y-99616667D01*
X166709524Y-99616667D01*
X166757143Y-99640476D01*
X166780953Y-99664286D01*
X166804762Y-99711905D01*
X166804762Y-99830952D01*
X166780953Y-99878571D01*
X166757143Y-99902381D01*
X166709524Y-99926190D01*
X166566667Y-99926190D01*
X166519048Y-99902381D01*
X166495239Y-99878571D01*
X173226190Y-95080952D02*
X173630952Y-95080952D01*
X173678571Y-95057143D01*
X173702381Y-95033333D01*
X173726190Y-94985714D01*
X173726190Y-94890476D01*
X173702381Y-94842857D01*
X173678571Y-94819048D01*
X173630952Y-94795238D01*
X173226190Y-94795238D01*
X173392857Y-94342857D02*
X173726190Y-94342857D01*
X173202381Y-94461904D02*
X173559524Y-94580952D01*
X173559524Y-94271428D01*
X154419048Y-86826190D02*
X154419048Y-87230952D01*
X154442857Y-87278571D01*
X154466667Y-87302381D01*
X154514286Y-87326190D01*
X154609524Y-87326190D01*
X154657143Y-87302381D01*
X154680952Y-87278571D01*
X154704762Y-87230952D01*
X154704762Y-86826190D01*
X155180953Y-86826190D02*
X154942858Y-86826190D01*
X154919048Y-87064286D01*
X154942858Y-87040476D01*
X154990477Y-87016667D01*
X155109524Y-87016667D01*
X155157143Y-87040476D01*
X155180953Y-87064286D01*
X155204762Y-87111905D01*
X155204762Y-87230952D01*
X155180953Y-87278571D01*
X155157143Y-87302381D01*
X155109524Y-87326190D01*
X154990477Y-87326190D01*
X154942858Y-87302381D01*
X154919048Y-87278571D01*
X165726190Y-85980952D02*
X166130952Y-85980952D01*
X166178571Y-85957143D01*
X166202381Y-85933333D01*
X166226190Y-85885714D01*
X166226190Y-85790476D01*
X166202381Y-85742857D01*
X166178571Y-85719048D01*
X166130952Y-85695238D01*
X165726190Y-85695238D01*
X166226190Y-85195238D02*
X166226190Y-85480952D01*
X166226190Y-85338095D02*
X165726190Y-85338095D01*
X165797619Y-85385714D01*
X165845238Y-85433333D01*
X165869048Y-85480952D01*
M02*
