G04 #@! TF.FileFunction,Soldermask,Bot*
%FSLAX46Y46*%
G04 Gerber Fmt 4.6, Leading zero omitted, Abs format (unit mm)*
G04 Created by KiCad (PCBNEW 4.0.6) date 04/13/18 15:31:21*
%MOMM*%
%LPD*%
G01*
G04 APERTURE LIST*
%ADD10C,0.100000*%
%ADD11R,2.400000X1.010000*%
%ADD12R,4.000000X3.080000*%
%ADD13R,1.250000X1.250000*%
%ADD14O,1.250000X1.100000*%
%ADD15R,0.810000X1.400000*%
%ADD16R,1.400000X0.810000*%
%ADD17R,1.700000X1.100000*%
G04 APERTURE END LIST*
D10*
D11*
X167600000Y-86000000D03*
X167600000Y-87000000D03*
X167600000Y-88000000D03*
X167600000Y-89000000D03*
X167600000Y-90000000D03*
X167600000Y-91000000D03*
X167600000Y-92000000D03*
X167600000Y-93000000D03*
X167600000Y-94000000D03*
X167600000Y-95000000D03*
X167600000Y-96000000D03*
X167600000Y-97000000D03*
X167600000Y-98000000D03*
D12*
X170400000Y-83010000D03*
X170400000Y-100990000D03*
D13*
X151200000Y-82500000D03*
D14*
X151200000Y-83500000D03*
X151200000Y-84500000D03*
X151200000Y-85500000D03*
D15*
X155400000Y-87685000D03*
X154630000Y-97175000D03*
X153870000Y-97175000D03*
X153110000Y-97175000D03*
X152350000Y-97175000D03*
D16*
X151110000Y-96615000D03*
X151110000Y-95855000D03*
X151110000Y-95095000D03*
X151110000Y-94335000D03*
X151110000Y-93575000D03*
X151110000Y-92805000D03*
X151110000Y-92045000D03*
X151110000Y-91285000D03*
X151110000Y-90525000D03*
X151110000Y-89765000D03*
X151110000Y-88995000D03*
X151110000Y-88235000D03*
D15*
X156160000Y-87685000D03*
X156920000Y-87685000D03*
X157680000Y-87685000D03*
X158440000Y-87685000D03*
X159210000Y-87685000D03*
D17*
X156475000Y-82950000D03*
X156475000Y-84850000D03*
X153825000Y-82925000D03*
X153825000Y-84825000D03*
M02*
