<?xml version="1.0" encoding="UTF-8" standalone="no"?>
<!-- Created with Inkscape (http://www.inkscape.org/) -->

<svg
   xmlns:dc="http://purl.org/dc/elements/1.1/"
   xmlns:cc="http://creativecommons.org/ns#"
   xmlns:rdf="http://www.w3.org/1999/02/22-rdf-syntax-ns#"
   xmlns:svg="http://www.w3.org/2000/svg"
   xmlns="http://www.w3.org/2000/svg"
   xmlns:sodipodi="http://sodipodi.sourceforge.net/DTD/sodipodi-0.dtd"
   xmlns:inkscape="http://www.inkscape.org/namespaces/inkscape"
   id="svg2"
   version="1.1"
   inkscape:version="0.91 r13725"
   width="230.41052"
   height="127.66287"
   viewBox="0 0 230.41052 127.66287"
   sodipodi:docname="logoMAmI_colores.svg">
  <metadata
     id="metadata8">
    <rdf:RDF>
      <cc:Work
         rdf:about="">
        <dc:format>image/svg+xml</dc:format>
        <dc:type
           rdf:resource="http://purl.org/dc/dcmitype/StillImage" />
        <dc:title></dc:title>
      </cc:Work>
    </rdf:RDF>
  </metadata>
  <defs
     id="defs6" />
  <sodipodi:namedview
     pagecolor="#ffffff"
     bordercolor="#666666"
     borderopacity="1"
     objecttolerance="10"
     gridtolerance="10"
     guidetolerance="10"
     inkscape:pageopacity="0"
     inkscape:pageshadow="2"
     inkscape:window-width="1366"
     inkscape:window-height="716"
     id="namedview4"
     showgrid="false"
     inkscape:zoom="2.5000001"
     inkscape:cx="169.21489"
     inkscape:cy="69.465118"
     inkscape:window-x="0"
     inkscape:window-y="0"
     inkscape:window-maximized="1"
     inkscape:current-layer="svg2"
     fit-margin-top="0.7"
     fit-margin-left="0.7"
     fit-margin-right="0.7"
     fit-margin-bottom="0.7" />
  <g
     id="g4238"
     transform="translate(-13.389037,-3.208394)">
    <g
       transform="translate(266,0.07071068)"
       id="g4193">
      <path
         style="fill:#000000"
         d="m -64.969849,65.604202 0,-26.147269 c 4.683899,-0.593073 9.362009,-0.874699 14.26619,0.100685 0,0 0.08082,13.794126 0.10352,27.419838 l 0.0446,24.880082 -7.20718,0 -7.20716,0 0,-26.253336 z"
         id="path4191"
         inkscape:connector-curvature="0"
         sodipodi:nodetypes="cccsccccc" />
      <path
         style="fill:#000000"
         d="m -116.84063,91.002583 c -9.43958,-64.40172 -4.71979,-32.20086 0,0 z m 1.30162,-17.62828 0,-18.45 6.3,0 c 6.06667,0 6.3,0.0808 6.3,2.18077 l 0.10607,2.216125 2.5247,-2.666125 c 1.740442,-1.837933 3.383802,-2.177217 5.499487,-2.177217 1.618171,0 3.831763,0.180104 6.269741,4.905537 0.878718,1.703184 1.46717,0.99447 2.66824,-1.24974 0.64481,-1.20486 2.32539,-2.66824 3.73461,-3.25195 4.558944,-1.573974 8.830795,1.325159 10.12903,4.50984 1.14317,2.85704 1.46812,6.85246 1.46812,18.05097 l 0,14.38179 -6.3,0 -6.3,0 0,-11.19689 c 0,-7.24441 -0.659899,-11.207072 -1.342041,-11.54459 -2.0468,-1.01274 -2.415314,0.847621 -2.444179,12.36648 l -0.02591,10.339645 -6.087868,0.03535 -6.3,0 0,-11.1 c 0,-6.105 0.0813,-10.519033 -0.88032,-11.330058 -0.62286,-0.525313 -0.84758,-0.503252 -1.51187,0.04807 -0.88636,0.73561 -1.20781,3.84742 -1.20781,11.69219 l 0,10.6898 -6.3,0 -6.3,0 z"
         id="path4189"
         inkscape:connector-curvature="0"
         sodipodi:nodetypes="ccccsscssssccscccssscccsssscccc" />
      <g
         id="g4272"
         transform="translate(4,-2)">
        <g
           id="g3348">
          <path
             style="fill:#110d0c;fill-opacity:1;stroke:none;stroke-width:0.39999998;stroke-linecap:round;stroke-linejoin:round;stroke-miterlimit:4;stroke-dasharray:none;stroke-opacity:0.33689838"
             d="m -159.57391,93.869185 c -0.81463,-0.178168 -0.80236,-0.194104 0.71323,-5.9744 0.84817,-3.234824 3.34354,-12.901496 5.54525,-21.481495 2.20171,-8.58 4.47033,-17.265 5.04136,-19.3 l 1.03825,-3.7 c 2.19847,-0.897067 4.34694,-0.894133 7.04541,-0.8912 2.74847,-0.197067 4.89693,0.0059 7.0454,0.9088 l 3.37246,13.491186 c 1.85485,7.420152 4.74334,18.711185 6.41886,25.091185 l 2.9214,11.671447 -1.49386,0.02035 c -0.90263,0.0123 -3.89735,0.108692 -6.68217,0.125 l -5.06331,0.02965 -0.3044,-3.572932 c -0.26019,-3.053962 -3.98405,-2.674163 -4.45745,-2.964403 -4.27896,0.08923 -7.85357,-0.476195 -8.41884,2.910334 l -0.18353,3.580554 -4.45458,0.0044 c -2.45002,0.0024 -5.07967,0.07569 -5.85458,0.0744 -0.77,-0.0013 -1.71998,0.0061 -2.2289,-0.02292 5.36194,5.231177 5.36206,5.231286 0,4.4e-5 z m 21.72857,-17.614496 c 1.16276,-0.354072 -0.54799,-7.471848 -0.84192,-9.151022 -0.66754,-3.233027 -0.90513,-3.948838 -1.50653,-4.320524 -0.85898,-0.530874 -1.45151,0.973516 -2.15638,4.450597 l -1.09587,5.405834 c -0.43489,2.145295 -0.18817,3.588497 0.62545,3.889429 1.79455,0.663744 3.36502,0.455346 4.97525,-0.274314 z"
             id="path3387"
             inkscape:connector-curvature="0"
             sodipodi:nodetypes="cssscccsscsscscccssccccssssc" />
        </g>
      </g>
      <path
         style="fill:#4356a2;fill-opacity:1;stroke:none;stroke-width:0.28299999;stroke-linecap:round;stroke-linejoin:round;stroke-miterlimit:4;stroke-dasharray:none;stroke-opacity:0.33689838"
         d="m -35.91835,104.68738 c -16.01887,15.02118 -40.62264,23.14264 -76.11192,25.12376 -25.05279,1.39853 -54.27279,-2.37816 -69.79861,-9.02149 -4.86143,-2.08015 -10.10234,-4.69899 -12.22577,-6.10911 -1.845,-1.22522 -1.74344,-1.20528 4.16698,0.81791 9.0112,3.08462 17.19883,5.02849 25.67292,6.09514 28.85411,3.63193 60.618,1.04607 84.85281,-6.90775 31.54061,-10.35157 49.46118,-27.599177 50.99324,-49.078307 l 0.21184,-2.96985 c 11.023923,11.443332 2.896947,31.534011 -7.76149,42.049697 z"
         id="path4158"
         inkscape:connector-curvature="0"
         sodipodi:nodetypes="cssssssscc" />
      <path
         sodipodi:nodetypes="cssssssscc"
         inkscape:connector-curvature="0"
         id="path4160"
         d="m -238.89306,29.250862 c 16.01887,-15.02118 40.62264,-23.14264 76.11192,-25.12376 25.05279,-1.39853 54.27279,2.37816 69.798611,9.02149 4.86143,2.08015 10.10234,4.69899 12.22577,6.10911 1.845,1.22522 1.74344,1.20528 -4.16698,-0.81791 -9.0112,-3.08462 -17.198831,-5.02849 -25.672921,-6.09514 -28.85411,-3.63193 -60.618,-1.04607 -84.85281,6.90775 -31.54061,10.35157 -49.46118,27.599178 -50.99324,49.078308 l -0.21184,2.96985 c -11.02392,-11.44333 -2.89695,-31.534012 7.76149,-42.049698 z"
         style="fill:#4356a2;fill-opacity:1;stroke:none;stroke-width:0.28299999;stroke-linecap:round;stroke-linejoin:round;stroke-miterlimit:4;stroke-dasharray:none;stroke-opacity:0.33689838" />
      <path
         sodipodi:nodetypes="ccsccccsccccsssscssccccc"
         inkscape:connector-curvature="0"
         id="path4234"
         d="m -154.5891,36.137119 c 0.16802,-14.975198 -12.33169,-5.95908 -17.02604,4.489583 -1.80049,3.215947 -2.66201,5.079497 -3.61122,7.120062 -5.16732,11.108562 -5.41723,11.601516 -5.41723,11.601516 -1.45173,0.351529 2.47373,-7.643188 4.34611,-14.985762 0,0 4.64584,-19.864846 -7.34342,-10.106675 -3.2804,2.739786 -14.49024,20.161686 -21.36741,35.346433 -2.09812,0.199146 16.88818,-38.464344 4.91829,-35.972995 -10.65129,2.216902 -22.0386,17.976277 -22.0386,17.976277 -2.59054,4.370265 -2.45057,13.291461 1.79356,6.273127 0,0 11.19688,-14.82879 18.23547,-17.277608 0,0 0.86236,1.578554 -8.41447,24.708824 0,0 -7.6732,21.109766 -4.82984,29.940982 3.82066,11.866617 9.78956,-12.061066 16.09676,-24.227767 14.06639,-27.134364 18.03697,-31.810042 17.33564,-28.527974 -1.55757,7.289052 -4.90932,15.885268 -6.27031,20.936246 -3.60078,13.363355 -0.51076,13.473227 -0.51076,13.473227 0,0 2.5146,1.348003 11.47018,-13.743389 5.2576,-8.859788 11.64902,-22.236048 15.58605,-26.927882 1.31713,-1.569658 0.13796,3.968003 -0.90215,6.603255 -7.84147,20.810046 -8.05679,34.521175 -7.50796,38.197702 1.60957,18.38269 7.44324,10.504781 6.64941,5.990072 0.32797,-11.290781 -0.52612,-17.31084 6.43226,-38.927861 2.6058,-7.53129 2.37568,-11.959393 2.37568,-11.959393 z"
         style="fill:#e20004;fill-opacity:1;fill-rule:evenodd;stroke:none;stroke-width:1px;stroke-linecap:butt;stroke-linejoin:miter;stroke-opacity:1" />
    </g>
  </g>
</svg>
