<?xml version="1.0" encoding="UTF-8" standalone="no"?>
<!-- Generator: Adobe Illustrator 19.0.0, SVG Export Plug-In . SVG Version: 6.00 Build 0)  -->

<svg
   xmlns:dc="http://purl.org/dc/elements/1.1/"
   xmlns:cc="http://creativecommons.org/ns#"
   xmlns:rdf="http://www.w3.org/1999/02/22-rdf-syntax-ns#"
   xmlns:svg="http://www.w3.org/2000/svg"
   xmlns="http://www.w3.org/2000/svg"
   xmlns:sodipodi="http://sodipodi.sourceforge.net/DTD/sodipodi-0.dtd"
   xmlns:inkscape="http://www.inkscape.org/namespaces/inkscape"
   version="1.1"
   id="Layer_1"
   x="0px"
   y="0px"
   viewBox="0 0 2155.6917 884.3945"
   xml:space="preserve"
   sodipodi:docname="MAmIoT.svg"
   inkscape:version="0.92.1 r15371"
   width="2155.6917"
   height="884.39453"
   inkscape:export-filename="/home/ivan/Imágenes/logo.png"
   inkscape:export-xdpi="50.025566"
   inkscape:export-ydpi="50.025566"><metadata
     id="metadata48"><rdf:RDF><cc:Work
         rdf:about=""><dc:format>image/svg+xml</dc:format><dc:type
           rdf:resource="http://purl.org/dc/dcmitype/StillImage" /><dc:title /></cc:Work></rdf:RDF></metadata><defs
     id="defs46" /><sodipodi:namedview
     pagecolor="#ffffff"
     bordercolor="#666666"
     borderopacity="1"
     objecttolerance="10"
     gridtolerance="10"
     guidetolerance="10"
     inkscape:pageopacity="0"
     inkscape:pageshadow="2"
     inkscape:window-width="2100"
     inkscape:window-height="1234"
     id="namedview44"
     showgrid="false"
     inkscape:zoom="0.90509671"
     inkscape:cx="1284.2286"
     inkscape:cy="369.61701"
     inkscape:window-x="2391"
     inkscape:window-y="22"
     inkscape:window-maximized="1"
     inkscape:current-layer="g135"
     fit-margin-top="0"
     fit-margin-left="0"
     fit-margin-right="0"
     fit-margin-bottom="0" /><g
     id="XMLID_1153_"
     transform="translate(2856.3591,113.11384)"><g
       id="g989"
       transform="translate(-80)" /><g
       id="g1025"
       transform="matrix(1.0478956,0,0,0.95108949,-24.546396,2.2933518)"
       style="fill:#44aa00" /><g
       transform="matrix(2.3462292,0,0,2.3462292,1917.9054,-1420.7818)"
       id="g1709"><g
         id="g1705"
         transform="matrix(1.0412662,0,0,1,-1541.9608,0)"
         style="stroke:#000000;stroke-opacity:1"><g
           style="fill:#ffffff;fill-opacity:1;stroke:#000000;stroke-opacity:1"
           transform="matrix(1.066479,0,0,0.99497953,-31.704241,-0.97886878)"
           id="g1677" /></g></g><g
       id="g1870"><g
         transform="matrix(2.4098677,0,0,2.3462292,-1684.2994,-160.78176)"
         id="g894" /><g
         id="g1925"
         inkscape:export-filename="/home/ivan/logo.png"
         inkscape:export-xdpi="79.989479"
         inkscape:export-ydpi="79.989479"
         transform="matrix(1,0,0,1.0852646,0,-65.762932)"><g
           id="g135"><g
             id="g73"><rect
               ry="0"
               y="593.10016"
               x="-1479.5554"
               height="174.98906"
               width="37.57093"
               id="rect44"
               style="fill:#4d4d4d;fill-opacity:1;stroke:none;stroke-width:1.18272579;stroke-miterlimit:10;stroke-dasharray:none;stroke-dashoffset:0;stroke-opacity:1" /><polygon
               transform="matrix(1.3030596,0,0,1.9621752,-1453.889,-45.226708)"
               points="264,282.5 320,295 320,415 264,415 "
               style="fill:#4d4d4d;fill-opacity:1;stroke-width:1.00754201"
               id="XMLID_1154_" /><g
               style="fill:#e6e6e6;fill-opacity:1;stroke-width:1.05412662"
               transform="matrix(2.6722728,0,0,2.33445,-1889.2575,-163.07841)"
               id="g42"><path
                 id="XMLID_1156_"
                 style="fill:#e6e6e6;fill-opacity:1;stroke-width:0.94150048"
                 d="M 221.10483,81.581428 C 158.53278,95.084434 120.48077,142.25 118.34661,202.1535 v 83.21388 21.43985 90.30449 l 25.50113,-70.49197 c 0,0 21.03669,3.76795 28.66155,4.386 24.95156,2.02252 69.07704,-0.78576 69.07704,-0.78576 l 15.72569,-128.79878 z"
                 inkscape:connector-curvature="0"
                 sodipodi:nodetypes="ccccccsccc" /><path
                 id="XMLID_1157_"
                 style="fill:#e6e6e6;fill-opacity:1;stroke-width:1.02832901"
                 d="m 395.14196,108.60586 c 0,-1.1823 0.16528,-1.67079 0.16528,-2.09154 -2e-5,-33.565946 -26.46293,-55.346953 -60.71451,-55.346953 -6.2874,0 -12.35537,0.916285 -18.07033,2.627307 L 221.10483,81.581428 175.6386,330.27305 c 75.99897,1.40624 93.351,6.1048 141.34818,-27.64055 l 9.2407,-83.58875 z"
                 inkscape:connector-curvature="0"
                 sodipodi:nodetypes="csscccccc" /></g><rect
               height="28.549599"
               width="31.99437"
               style="fill:#ff5555;fill-opacity:0;stroke-width:1.00743151"
               y="230.57239"
               x="187.9691"
               id="XMLID_1160_"
               transform="matrix(2.4098677,0,0,2.3462292,-1684.2994,-160.78176)" /><path
               sodipodi:nodetypes="ssccccs"
               inkscape:connector-curvature="0"
               d="m -1073.6978,110.58673 c -39.433,9.15519 -113.5595,18.05005 -100.1761,54.55623 l 64.5845,162.79127 104.858,0.11687 3.4599,-134.01667 -3.4599,-99.529127 z"
               style="fill:#333333;stroke-width:2.48445845"
               id="XMLID_1161_" /><path
               id="XMLID_1163_"
               style="fill:#ec4c51;fill-opacity:1;stroke-width:1.56438291"
               d="m -1071.0363,769.35453 2.1263,-384.61001 96.66446,0.12496 -2.12628,384.61002 z"
               inkscape:connector-curvature="0"
               sodipodi:nodetypes="ccccc" /><rect
               ry="14.926201"
               height="85.130646"
               width="403.98367"
               style="fill:#ec4c51;fill-opacity:1;stroke-width:2.48920274"
               y="310.95529"
               x="-1251.4874"
               id="rect1017"
               rx="12.39517" /><path
               id="path1019"
               style="fill:#999999;fill-opacity:1;stroke-width:2.40526462"
               d="m -859.6439,396.23867 c -172.092,-125.41716 59.21591,-57.47536 81.68221,-117.5944 l 12.12876,-115.59432 c 47.91633,4.99027 67.8297,-50.17222 64.8817,-13.95925 l -13.97623,171.68248 c -4.70877,57.84201 -51.18941,69.24965 -144.71644,75.46549 z"
               inkscape:connector-curvature="0"
               sodipodi:nodetypes="cccssc" /><path
               sodipodi:nodetypes="cacccsssssscccsc"
               inkscape:connector-curvature="0"
               d="m -832.78641,94.505123 c 3.43992,-53.687267 -129.45945,-36.483964 -169.99609,0 -56.0432,50.440227 -5.5243,216.500197 -5.5243,216.500197 l 84.39924,0.62151 12.57275,254.40521 c 0,18.13735 -14.06677,32.89723 -34.15062,32.89723 -20.08384,0 -42.25338,-15.64526 -42.25338,-33.78263 0,0 7.63835,-16.89165 2.07094,-22.19862 -21.31403,-20.31705 -51.54143,-19.24836 -72.85553,0 -5.7241,5.16928 2.0709,21.93145 2.0709,21.93145 0,54.41202 54.1313,99.84426 114.38277,99.84426 60.25151,0 109.28326,-44.27966 109.28326,-98.69169 l -0.0244,-254.40521 h 0.0244 c 0,0 -4.07071,-153.58973 0,-217.121707 z"
               style="fill:#4d4d4d;stroke-width:2.39521146"
               id="XMLID_1162_" /><path
               style="fill:#ec4c51;fill-opacity:1;stroke:none;stroke-width:3.26877499;stroke-miterlimit:10;stroke-dasharray:none;stroke-dashoffset:0;stroke-opacity:1"
               d="m -1274.6833,498.47855 c -80.2414,0 -144.8399,60.83479 -144.8399,136.40107 0,75.56628 64.5985,136.40107 144.8399,136.40107 80.2414,0 144.8398,-60.83479 144.8398,-136.40107 0,-75.56628 -64.5984,-136.40107 -144.8398,-136.40107 z m -0.025,51.98005 c 24.5317,0 44.2793,36.44525 44.2793,81.7161 0,45.27086 -19.7476,81.71611 -44.2793,81.71611 -24.5317,0 -44.2813,-36.44525 -44.2813,-81.71611 0,-45.27085 19.7496,-81.7161 44.2813,-81.7161 z"
               id="rect1066"
               inkscape:connector-curvature="0" /><rect
               ry="25.095678"
               y="151.41087"
               x="-957.22565"
               height="50.191357"
               width="52.376968"
               id="rect858"
               style="fill:#ffffff;fill-opacity:1;stroke:none;stroke-width:0.62018692;stroke-miterlimit:10;stroke-dasharray:none;stroke-dashoffset:0;stroke-opacity:1"
               rx="25.390234" /><text
               transform="scale(1.0707502,0.93392469)"
               id="text839"
               y="822.0849"
               x="-2260.5383"
               style="font-style:normal;font-variant:normal;font-weight:normal;font-stretch:normal;font-size:593.62689209px;line-height:1.25;font-family:Oswald;-inkscape-font-specification:Oswald;letter-spacing:0px;word-spacing:0px;fill:#181d1f;fill-opacity:1;stroke:none;stroke-width:15.02970123"
               xml:space="preserve"><tspan
                 style="font-style:normal;font-variant:normal;font-weight:800;font-stretch:normal;line-height:1.25;font-family:Oswald;-inkscape-font-specification:'Oswald weight=280';fill:#181d1f;fill-opacity:1;stroke-width:15.02970123"
                 y="822.0849"
                 x="-2260.5383"
                 id="tspan837"
                 sodipodi:role="line">Am</tspan></text>
<text
               xml:space="preserve"
               style="font-style:normal;font-variant:normal;font-weight:normal;font-stretch:normal;font-size:615.31347656px;line-height:1.25;font-family:Oswald;-inkscape-font-specification:Oswald;letter-spacing:0px;word-spacing:0px;fill:#ec4c51;fill-opacity:1;stroke:none;stroke-width:18.20417023"
               x="-2605.7688"
               y="853.3172"
               id="text843"
               transform="scale(1.1111229,0.89999042)"><tspan
                 sodipodi:role="line"
                 id="tspan841"
                 x="-2605.7688"
                 y="853.3172"
                 style="font-style:normal;font-variant:normal;font-weight:800;font-stretch:normal;line-height:1.25;font-family:Oswald;-inkscape-font-specification:'Oswald weight=280';fill:#ec4c51;fill-opacity:1;stroke-width:18.20417023">M</tspan></text>
<g
               id="g1766"
               transform="matrix(-0.92780883,0,0,1.0715909,-2841.265,-54.988211)"
               style="fill:#181d1f;fill-opacity:1;stroke-width:1.12611294"><rect
                 ry="0"
                 y="431.99261"
                 x="-1469.015"
                 height="336.09665"
                 width="102.13249"
                 id="rect1760"
                 style="fill:#ec4c51;fill-opacity:1;stroke:none;stroke-width:3.58133054;stroke-miterlimit:10;stroke-dasharray:none;stroke-dashoffset:0;stroke-opacity:1" /><rect
                 transform="matrix(2.4430492,0,0,2.3462292,-1699.8881,-160.78176)"
                 style="fill:#000000;fill-opacity:0;stroke:none;stroke-width:1.24084401;stroke-miterlimit:10;stroke-dasharray:none;stroke-dashoffset:0;stroke-opacity:1"
                 id="rect1762"
                 width="41.805336"
                 height="99.31955"
                 x="94.502029"
                 y="296.57996"
                 ry="0" /><path
                 style="fill:#181d1f;fill-opacity:1;stroke:none;stroke-width:2.224159px;stroke-linecap:butt;stroke-linejoin:miter;stroke-opacity:1"
                 d="m -1366.8826,421.53975 c 0,0 0.9367,-17.98356 -1.3636,-47.26154 -1.767,-22.49058 -100.7416,-41.06928 -100.7448,-30.72458 l -0.024,77.98612 z"
                 id="path1764"
                 inkscape:connector-curvature="0"
                 sodipodi:nodetypes="csscc" /></g></g></g></g></g></g><g
     id="g13"
     transform="translate(2856.3591,113.11384)" /><g
     id="g15"
     transform="translate(2856.3591,113.11384)" /><g
     id="g17"
     transform="translate(2856.3591,113.11384)" /><g
     id="g19"
     transform="translate(2856.3591,113.11384)" /><g
     id="g21"
     transform="translate(2856.3591,113.11384)" /><g
     id="g23"
     transform="translate(2856.3591,113.11384)" /><g
     id="g25"
     transform="translate(2856.3591,113.11384)" /><g
     id="g27"
     transform="translate(2856.3591,113.11384)" /><g
     id="g29"
     transform="translate(2856.3591,113.11384)" /><g
     id="g31"
     transform="translate(2856.3591,113.11384)" /><g
     id="g33"
     transform="translate(2856.3591,113.11384)" /><g
     id="g35"
     transform="translate(2856.3591,113.11384)" /><g
     id="g37"
     transform="translate(2856.3591,113.11384)" /><g
     id="g39"
     transform="translate(2856.3591,113.11384)" /><g
     id="g41"
     transform="translate(2856.3591,113.11384)" /></svg>