  0
SECTION
  2
HEADER
  9
$ACADVER
  1
AC1014
  9
$HANDSEED
  5
FFFF
  9
$MEASUREMENT
 70
     1
  0
ENDSEC
  0
SECTION
  2
TABLES
  0
TABLE
  2
VPORT
  5
8
330
0
100
AcDbSymbolTable
 70
     4
  0
VPORT
  5
2E
330
8
100
AcDbSymbolTableRecord
100
AcDbViewportTableRecord
  2
*ACTIVE
 70
     0
 10
0.0
 20
0.0
 11
1.0
 21
1.0
 12
210.0
 22
148.5
 13
0.0
 23
0.0
 14
10.0
 24
10.0
 15
10.0
 25
10.0
 16
0.0
 26
0.0
 36
1.0
 17
0.0
 27
0.0
 37
0.0
 40
341.0
 41
1.24
 42
50.0
 43
0.0
 44
0.0
 50
0.0
 51
0.0
 71
     0
 72
   100
 73
     1
 74
     3
 75
     0
 76
     0
 77
     0
 78
     0
  0
ENDTAB
  0
TABLE
  2
LTYPE
  5
5
330
0
100
AcDbSymbolTable
 70
     1
  0
LTYPE
  5
14
330
5
100
AcDbSymbolTableRecord
100
AcDbLinetypeTableRecord
  2
BYBLOCK
 70
     0
  3

 72
    65
 73
     0
 40
0.0
  0
LTYPE
  5
15
330
5
100
AcDbSymbolTableRecord
100
AcDbLinetypeTableRecord
  2
BYLAYER
 70
     0
  3

 72
    65
 73
     0
 40
0.0
  0
LTYPE
  5
16
330
5
100
AcDbSymbolTableRecord
100
AcDbLinetypeTableRecord
  2
CONTINUOUS
 70
     0
  3
Solid line
 72
    65
 73
     0
 40
0.0
  0
ENDTAB
  0
TABLE
  2
LAYER
  5
2
100
AcDbSymbolTable
 70
1
  0
LAYER
  5
50
100
AcDbSymbolTableRecord
100
AcDbLayerTableRecord
  2
0
 70
0
  6
CONTINUOUS
  0
ENDTAB
  0
TABLE
  2
STYLE
  5
3
330
0
100
AcDbSymbolTable
 70
     1
  0
STYLE
  5
11
330
3
100
AcDbSymbolTableRecord
100
AcDbTextStyleTableRecord
  2
STANDARD
 70
     0
 40
0.0
 41
1.0
 50
0.0
 71
     0
 42
2.5
  3
txt
  4

  0
ENDTAB
  0
TABLE
  2
VIEW
  5
6
330
0
100
AcDbSymbolTable
 70
     0
  0
ENDTAB
  0
TABLE
  2
UCS
  5
7
330
0
100
AcDbSymbolTable
 70
     0
  0
ENDTAB
  0
TABLE
  2
APPID
  5
9
330
0
100
AcDbSymbolTable
 70
     2
  0
APPID
  5
12
330
9
100
AcDbSymbolTableRecord
100
AcDbRegAppTableRecord
  2
ACAD
 70
     0
  0
ENDTAB
  0
TABLE
  2
DIMSTYLE
  5
A
330
0
100
AcDbSymbolTable
 70
     1
  0
DIMSTYLE
105
27
330
A
100
AcDbSymbolTableRecord
100
AcDbDimStyleTableRecord
  2
ISO-25
 70
     0
  3

  4

  5

  6

  7

 40
1.0
 41
2.5
 42
0.625
 43
3.75
 44
1.25
 45
0.0
 46
0.0
 47
0.0
 48
0.0
140
2.5
141
2.5
142
0.0
143
0.03937007874016
144
1.0
145
0.0
146
1.0
147
0.625
 71
     0
 72
     0
 73
     0
 74
     0
 75
     0
 76
     0
 77
     1
 78
     8
170
     0
171
     3
172
     1
173
     0
174
     0
175
     0
176
     0
177
     0
178
     0
270
     2
271
     2
272
     2
273
     2
274
     3
340
11
275
     0
280
     0
281
     0
282
     0
283
     0
284
     8
285
     0
286
     0
287
     3
288
     0
  0
ENDTAB
  0
TABLE
  2
BLOCK_RECORD
  5
1
330
0
100
AcDbSymbolTable
 70
     1
  0
BLOCK_RECORD
  5
1F
330
1
100
AcDbSymbolTableRecord
100
AcDbBlockTableRecord
  2
*MODEL_SPACE
  0
BLOCK_RECORD
  5
1B
330
1
100
AcDbSymbolTableRecord
100
AcDbBlockTableRecord
  2
*PAPER_SPACE
  0
ENDTAB
  0
ENDSEC
  0
SECTION
  2
BLOCKS
  0
BLOCK
  5
20
330
1F
100
AcDbEntity
  8
0
100
AcDbBlockBegin
  2
*MODEL_SPACE
 70
     0
 10
0.0
 20
0.0
 30
0.0
  3
*MODEL_SPACE
  1

  0
ENDBLK
  5
21
330
1F
100
AcDbEntity
  8
0
100
AcDbBlockEnd
  0
BLOCK
  5
1C
330
1B
100
AcDbEntity
 67
     1
  8
0
100
AcDbBlockBegin
  2
*PAPER_SPACE
  1

  0
ENDBLK
  5
1D
330
1B
100
AcDbEntity
 67
     1
  8
0
100
AcDbBlockEnd
  0
ENDSEC
  0
SECTION
  2
ENTITIES
  0
LWPOLYLINE
  5
100
100
AcDbEntity
  8
0
 62
1
100
AcDbPolyline
 90
320
 70
1
 10
16.867445
 20
41.723586
 30
0.0
 10
17.223404
 20
43.394592
 30
0.0
 10
17.566233
 20
45.090495
 30
0.0
 10
17.896139
 20
46.810706
 30
0.0
 10
18.213343
 20
48.554534
 30
0.0
 10
18.518067
 20
50.321212
 30
0.0
 10
18.810501
 20
52.109889
 30
0.0
 10
19.090782
 20
53.919605
 30
0.0
 10
19.358956
 20
55.749317
 30
0.0
 10
19.858563
 20
59.463970
 30
0.0
 10
20.306971
 20
63.243282
 30
0.0
 10
20.699511
 20
67.075145
 30
0.0
 10
21.029640
 20
70.946388
 30
0.0
 10
21.289326
 20
74.843200
 30
0.0
 10
21.468104
 20
78.750886
 30
0.0
 10
21.522614
 20
80.703723
 30
0.0
 10
21.550584
 20
82.652833
 30
0.0
 10
21.548884
 20
84.595659
 30
0.0
 10
21.513844
 20
86.529435
 30
0.0
 10
21.441454
 20
88.451291
 30
0.0
 10
21.327511
 20
90.358339
 30
0.0
 10
21.167830
 20
92.247779
 30
0.0
 10
20.958422
 20
94.116998
 30
0.0
 10
20.695677
 20
95.963667
 30
0.0
 10
20.376539
 20
97.785830
 30
0.0
 10
19.998625
 20
99.581965
 30
0.0
 10
19.560333
 20
101.351031
 30
0.0
 10
19.060957
 20
103.092516
 30
0.0
 10
18.500792
 20
104.806490
 30
0.0
 10
17.881241
 20
106.493647
 30
0.0
 10
17.204901
 20
108.155348
 30
0.0
 10
16.475527
 20
109.793591
 30
0.0
 10
15.697884
 20
111.410939
 30
0.0
 10
14.877596
 20
113.010435
 30
0.0
 10
14.020989
 20
114.595519
 30
0.0
 10
13.134936
 20
116.169947
 30
0.0
 10
12.226704
 20
117.737707
 30
0.0
 10
10.374081
 20
120.869981
 30
0.0
 10
8.525688
 20
124.027000
 30
0.0
 10
7.623161
 20
125.625959
 30
0.0
 10
6.745892
 20
127.244573
 30
0.0
 10
5.901936
 20
128.887342
 30
0.0
 10
5.099251
 20
130.558700
 30
0.0
 10
4.345562
 20
132.262966
 30
0.0
 10
3.648293
 20
134.004279
 30
0.0
 10
3.014454
 20
135.786565
 30
0.0
 10
2.450550
 20
137.613466
 30
0.0
 10
2.196697
 20
138.544692
 30
0.0
 10
1.962490
 20
139.488284
 30
0.0
 10
1.748566
 20
140.444599
 30
0.0
 10
1.555500
 20
141.413955
 30
0.0
 10
1.383827
 20
142.396659
 30
0.0
 10
1.234028
 20
143.392978
 30
0.0
 10
1.106522
 20
144.403144
 30
0.0
 10
1.001679
 20
145.427375
 30
0.0
 10
0.919809
 20
146.465831
 30
0.0
 10
0.861149
 20
147.518657
 30
0.0
 10
0.825879
 20
148.585952
 30
0.0
 10
0.814109
 20
149.667774
 30
0.0
 10
0.818909
 20
152.373798
 30
0.0
 10
0.833419
 20
155.001838
 30
0.0
 10
0.857819
 20
157.553027
 30
0.0
 10
0.892289
 20
160.028503
 30
0.0
 10
0.936989
 20
162.429389
 30
0.0
 10
0.992099
 20
164.756820
 30
0.0
 10
1.057789
 20
167.011932
 30
0.0
 10
1.134239
 20
169.195850
 30
0.0
 10
1.221619
 20
171.309707
 30
0.0
 10
1.320109
 20
173.354644
 30
0.0
 10
1.429877
 20
175.331779
 30
0.0
 10
1.551097
 20
177.242256
 30
0.0
 10
1.683943
 20
179.087196
 30
0.0
 10
1.828593
 20
180.867736
 30
0.0
 10
1.985217
 20
182.585006
 30
0.0
 10
2.153990
 20
184.240142
 30
0.0
 10
2.335086
 20
185.834274
 30
0.0
 10
2.528678
 20
187.368530
 30
0.0
 10
2.734938
 20
188.844047
 30
0.0
 10
2.954047
 20
190.261947
 30
0.0
 10
3.186171
 20
191.623374
 30
0.0
 10
3.431491
 20
192.929458
 30
0.0
 10
3.690173
 20
194.181327
 30
0.0
 10
3.962397
 20
195.380111
 30
0.0
 10
4.248339
 20
196.526946
 30
0.0
 10
4.548163
 20
197.622962
 30
0.0
 10
4.862052
 20
198.669288
 30
0.0
 10
5.190177
 20
199.667060
 30
0.0
 10
5.532714
 20
200.617408
 30
0.0
 10
5.889830
 20
201.521461
 30
0.0
 10
6.261706
 20
202.380355
 30
0.0
 10
6.648513
 20
203.195228
 30
0.0
 10
7.050425
 20
203.967193
 30
0.0
 10
7.467620
 20
204.697402
 30
0.0
 10
7.900263
 20
205.386970
 30
0.0
 10
8.348536
 20
206.037048
 30
0.0
 10
8.812609
 20
206.648743
 30
0.0
 10
9.292658
 20
207.223213
 30
0.0
 10
9.788855
 20
207.761563
 30
0.0
 10
10.301375
 20
208.264953
 30
0.0
 10
10.830392
 20
208.734483
 30
0.0
 10
11.376078
 20
209.171313
 30
0.0
 10
11.938611
 20
209.576563
 30
0.0
 10
12.518160
 20
209.951363
 30
0.0
 10
13.114903
 20
210.296853
 30
0.0
 10
13.729012
 20
210.614163
 30
0.0
 10
14.360661
 20
210.904413
 30
0.0
 10
15.010026
 20
211.168743
 30
0.0
 10
15.677277
 20
211.408293
 30
0.0
 10
16.362590
 20
211.624173
 30
0.0
 10
17.066138
 20
211.817543
 30
0.0
 10
17.788098
 20
211.989503
 30
0.0
 10
18.528639
 20
212.141213
 30
0.0
 10
19.287940
 20
212.273793
 30
0.0
 10
20.066170
 20
212.388373
 30
0.0
 10
20.863507
 20
212.486073
 30
0.0
 10
21.680123
 20
212.568073
 30
0.0
 10
22.516190
 20
212.635473
 30
0.0
 10
23.371890
 20
212.689373
 30
0.0
 10
24.247390
 20
212.730973
 30
0.0
 10
26.058480
 20
212.781673
 30
0.0
 10
27.950860
 20
212.796573
 30
0.0
 10
29.273310
 20
212.780773
 30
0.0
 10
30.544040
 20
212.734373
 30
0.0
 10
31.765490
 20
212.658773
 30
0.0
 10
32.939990
 20
212.555343
 30
0.0
 10
34.069830
 20
212.425463
 30
0.0
 10
35.157180
 20
212.270413
 30
0.0
 10
36.204190
 20
212.091473
 30
0.0
 10
37.212880
 20
211.889843
 30
0.0
 10
38.185250
 20
211.666703
 30
0.0
 10
39.123210
 20
211.423183
 30
0.0
 10
40.028580
 20
211.160373
 30
0.0
 10
40.903140
 20
210.879333
 30
0.0
 10
41.748600
 20
210.581063
 30
0.0
 10
42.566590
 20
210.266553
 30
0.0
 10
43.358680
 20
209.936733
 30
0.0
 10
44.126400
 20
209.592503
 30
0.0
 10
44.871180
 20
209.234723
 30
0.0
 10
45.594430
 20
208.864233
 30
0.0
 10
46.981530
 20
208.088253
 30
0.0
 10
48.297640
 20
207.270543
 30
0.0
 10
49.551790
 20
206.416530
 30
0.0
 10
50.752140
 20
205.531177
 30
0.0
 10
51.906030
 20
204.618976
 30
0.0
 10
53.020010
 20
203.683956
 30
0.0
 10
54.099860
 20
202.729763
 30
0.0
 10
55.150670
 20
201.759601
 30
0.0
 10
56.176850
 20
200.776332
 30
0.0
 10
58.169680
 20
198.780162
 30
0.0
 10
60.101360
 20
196.757511
 30
0.0
 10
61.986390
 20
194.720165
 30
0.0
 10
63.831950
 20
192.676227
 30
0.0
 10
65.639070
 20
190.630855
 30
0.0
 10
67.403840
 20
188.587032
 30
0.0
 10
69.118550
 20
186.546306
 30
0.0
 10
70.772910
 20
184.509548
 30
0.0
 10
72.355080
 20
182.476993
 30
0.0
 10
73.115160
 20
181.461811
 30
0.0
 10
73.852420
 20
180.446621
 30
0.0
 10
74.565260
 20
179.430431
 30
0.0
 10
75.252120
 20
178.411830
 30
0.0
 10
75.911440
 20
177.388897
 30
0.0
 10
76.541790
 20
176.359134
 30
0.0
 10
77.141780
 20
175.319400
 30
0.0
 10
77.710140
 20
174.265827
 30
0.0
 10
78.245720
 20
173.193752
 30
0.0
 10
78.747510
 20
172.097644
 30
0.0
 10
79.214680
 20
170.971027
 30
0.0
 10
79.646570
 20
169.806427
 30
0.0
 10
80.042710
 20
168.595264
 30
0.0
 10
80.402880
 20
167.327812
 30
0.0
 10
80.727060
 20
165.993106
 30
0.0
 10
80.875730
 20
165.296756
 30
0.0
 10
81.015530
 20
164.578888
 30
0.0
 10
81.146530
 20
163.837753
 30
0.0
 10
81.268820
 20
163.071510
 30
0.0
 10
81.382520
 20
162.278225
 30
0.0
 10
81.487770
 20
161.455875
 30
0.0
 10
81.584770
 20
160.602333
 30
0.0
 10
81.673570
 20
159.715370
 30
0.0
 10
81.754470
 20
158.792667
 30
0.0
 10
81.827670
 20
157.831783
 30
0.0
 10
81.893370
 20
156.830188
 30
0.0
 10
81.951870
 20
155.785232
 30
0.0
 10
82.003470
 20
154.694160
 30
0.0
 10
82.048470
 20
153.554096
 30
0.0
 10
82.087170
 20
152.362056
 30
0.0
 10
82.119970
 20
151.114936
 30
0.0
 10
82.147270
 20
149.809509
 30
0.0
 10
82.169570
 20
148.442428
 30
0.0
 10
82.187170
 20
147.010223
 30
0.0
 10
82.200670
 20
145.509288
 30
0.0
 10
82.210670
 20
143.935905
 30
0.0
 10
82.217670
 20
142.286205
 30
0.0
 10
82.221670
 20
140.556198
 30
0.0
 10
82.223670
 20
138.741754
 30
0.0
 10
82.224480
 20
136.838602
 30
0.0
 10
82.224580
 20
135.852388
 30
0.0
 10
82.224590
 20
134.842332
 30
0.0
 10
82.218590
 20
133.781726
 30
0.0
 10
82.201590
 20
132.742038
 30
0.0
 10
82.173290
 20
131.723156
 30
0.0
 10
82.133690
 20
130.724906
 30
0.0
 10
82.082990
 20
129.747047
 30
0.0
 10
82.021290
 20
128.789283
 30
0.0
 10
81.865730
 20
126.932552
 30
0.0
 10
81.668590
 20
125.151208
 30
0.0
 10
81.431880
 20
123.440942
 30
0.0
 10
81.157980
 20
121.796710
 30
0.0
 10
80.849550
 20
120.212815
 30
0.0
 10
80.509530
 20
118.683015
 30
0.0
 10
80.141130
 20
117.200413
 30
0.0
 10
79.747600
 20
115.758415
 30
0.0
 10
79.332440
 20
114.349581
 30
0.0
 10
78.899190
 20
112.966581
 30
0.0
 10
78.451420
 20
111.602094
 30
0.0
 10
77.526560
 20
108.899917
 30
0.0
 10
76.585920
 20
106.187280
 30
0.0
 10
75.656500
 20
103.412025
 30
0.0
 10
75.203980
 20
101.985935
 30
0.0
 10
74.763540
 20
100.527088
 30
0.0
 10
74.337800
 20
99.031003
 30
0.0
 10
73.929060
 20
97.494133
 30
0.0
 10
73.539140
 20
95.914073
 30
0.0
 10
73.169330
 20
94.289770
 30
0.0
 10
72.820360
 20
92.621711
 30
0.0
 10
72.492310
 20
90.911945
 30
0.0
 10
72.184720
 20
89.163894
 30
0.0
 10
71.896680
 20
87.382146
 30
0.0
 10
71.626860
 20
85.572223
 30
0.0
 10
71.373680
 20
83.740365
 30
0.0
 10
70.909690
 20
80.038101
 30
0.0
 10
70.488960
 20
76.331062
 30
0.0
 10
70.096680
 20
72.671249
 30
0.0
 10
69.907610
 20
70.872264
 30
0.0
 10
69.722150
 20
69.098773
 30
0.0
 10
69.539990
 20
67.352893
 30
0.0
 10
69.361260
 20
65.635661
 30
0.0
 10
69.186400
 20
63.947204
 30
0.0
 10
69.016110
 20
62.286933
 30
0.0
 10
68.851280
 20
60.653686
 30
0.0
 10
68.692940
 20
59.045932
 30
0.0
 10
68.542200
 20
57.461871
 30
0.0
 10
68.400240
 20
55.899471
 30
0.0
 10
68.147750
 20
52.830390
 30
0.0
 10
67.946280
 20
49.818004
 30
0.0
 10
67.807630
 20
46.838386
 30
0.0
 10
67.744130
 20
43.865569
 30
0.0
 10
67.744280
 20
42.373603
 30
0.0
 10
67.767580
 20
40.873855
 30
0.0
 10
67.815280
 20
39.363571
 30
0.0
 10
67.888480
 20
37.840278
 30
0.0
 10
67.988180
 20
36.301879
 30
0.0
 10
68.115110
 20
34.746658
 30
0.0
 10
68.269880
 20
33.173324
 30
0.0
 10
68.452840
 20
31.581039
 30
0.0
 10
68.599340
 20
30.019477
 30
0.0
 10
68.655340
 20
28.452049
 30
0.0
 10
68.620740
 20
26.884010
 30
0.0
 10
68.495610
 20
25.320579
 30
0.0
 10
68.280350
 20
23.766998
 30
0.0
 10
67.975710
 20
22.228439
 30
0.0
 10
67.582680
 20
20.710060
 30
0.0
 10
67.102590
 20
19.216918
 30
0.0
 10
66.537030
 20
17.754005
 30
0.0
 10
65.887910
 20
16.326209
 30
0.0
 10
65.157380
 20
14.938308
 30
0.0
 10
64.347890
 20
13.594924
 30
0.0
 10
63.462140
 20
12.300544
 30
0.0
 10
62.503090
 20
11.059509
 30
0.0
 10
61.473940
 20
9.875947
 30
0.0
 10
60.378130
 20
8.753817
 30
0.0
 10
59.219330
 20
7.696877
 30
0.0
 10
58.001400
 20
6.708647
 30
0.0
 10
56.728400
 20
5.792433
 30
0.0
 10
55.404610
 20
4.951293
 30
0.0
 10
54.034430
 20
4.188033
 30
0.0
 10
52.622440
 20
3.505203
 30
0.0
 10
51.173360
 20
2.905103
 30
0.0
 10
49.692030
 20
2.389713
 30
0.0
 10
48.183400
 20
1.960763
 30
0.0
 10
46.652510
 20
1.619693
 30
0.0
 10
45.104470
 20
1.367643
 30
0.0
 10
43.544450
 20
1.205433
 30
0.0
 10
41.977670
 20
1.133633
 30
0.0
 10
40.409360
 20
1.152433
 30
0.0
 10
38.844760
 20
1.261843
 30
0.0
 10
37.289080
 20
1.461463
 30
0.0
 10
35.747550
 20
1.750623
 30
0.0
 10
34.225290
 20
2.128353
 30
0.0
 10
32.727390
 20
2.593403
 30
0.0
 10
31.258870
 20
3.144213
 30
0.0
 10
29.824620
 20
3.778953
 30
0.0
 10
28.429430
 20
4.495483
 30
0.0
 10
27.077970
 20
5.291423
 30
0.0
 10
25.774760
 20
6.164113
 30
0.0
 10
24.524140
 20
7.110637
 30
0.0
 10
23.330290
 20
8.127827
 30
0.0
 10
22.197190
 20
9.212297
 30
0.0
 10
21.128651
 20
10.360407
 30
0.0
 10
20.128222
 20
11.568344
 30
0.0
 10
19.199250
 20
12.832054
 30
0.0
 10
18.344837
 20
14.147324
 30
0.0
 10
17.567839
 20
15.509758
 30
0.0
 10
16.870850
 20
16.914810
 30
0.0
 10
16.256199
 20
18.357780
 30
0.0
 10
15.725939
 20
19.833847
 30
0.0
 10
15.281842
 20
21.338089
 30
0.0
 10
14.925391
 20
22.865471
 30
0.0
 10
14.657776
 20
24.410896
 30
0.0
 10
14.479893
 20
25.969208
 30
0.0
 10
14.392333
 20
27.535187
 30
0.0
 10
14.395433
 20
29.103607
 30
0.0
 10
14.489103
 20
30.669235
 30
0.0
 10
14.673063
 20
32.226829
 30
0.0
 10
14.946704
 20
33.771202
 30
0.0
 10
15.309112
 20
35.297180
 30
0.0
 10
15.719140
 20
36.864548
 30
0.0
 10
16.115478
 20
38.458198
 30
0.0
 10
16.498218
 20
40.077972
 30
0.0
  0
ENDSEC
  0
SECTION
  2
OBJECTS
  0
DICTIONARY
  5
C
330
0
100
AcDbDictionary
  3
ACAD_GROUP
350
D
  3
ACAD_MLINESTYLE
350
17
  0
DICTIONARY
  5
D
330
C
100
AcDbDictionary
  0
DICTIONARY
  5
1A
330
C
100
AcDbDictionary
  0
DICTIONARY
  5
17
330
C
100
AcDbDictionary
  3
STANDARD
350
18
  0
DICTIONARY
  5
19
330
C
100
AcDbDictionary
  0
ENDSEC
  0
EOF
