G04 #@! TF.GenerationSoftware,KiCad,Pcbnew,(5.0.0)*
G04 #@! TF.CreationDate,2019-11-18T10:46:29+01:00*
G04 #@! TF.ProjectId,Insole_PCB,496E736F6C655F5043422E6B69636164,rev?*
G04 #@! TF.SameCoordinates,Original*
G04 #@! TF.FileFunction,Paste,Bot*
G04 #@! TF.FilePolarity,Positive*
%FSLAX46Y46*%
G04 Gerber Fmt 4.6, Leading zero omitted, Abs format (unit mm)*
G04 Created by KiCad (PCBNEW (5.0.0)) date 11/18/19 10:46:29*
%MOMM*%
%LPD*%
G01*
G04 APERTURE LIST*
%ADD10R,0.675000X0.250000*%
%ADD11R,0.250000X0.675000*%
%ADD12C,0.100000*%
%ADD13C,0.875000*%
%ADD14C,1.150000*%
%ADD15C,0.450000*%
%ADD16R,1.500000X0.450000*%
%ADD17R,0.450000X1.500000*%
%ADD18R,0.800000X0.900000*%
%ADD19C,0.650000*%
%ADD20C,0.410000*%
%ADD21C,1.800000*%
%ADD22C,0.500000*%
%ADD23C,0.400000*%
%ADD24C,0.800000*%
G04 APERTURE END LIST*
D10*
G04 #@! TO.C,U2*
X194486953Y-166460707D03*
X194486953Y-166960707D03*
X194486953Y-167460707D03*
X194486953Y-167960707D03*
X197011953Y-167960707D03*
X197011953Y-167460707D03*
X197011953Y-166960707D03*
X197011953Y-166460707D03*
D11*
X195249453Y-168223207D03*
X195749453Y-168223207D03*
X196249453Y-168223207D03*
X195249453Y-166198207D03*
X196249453Y-166198207D03*
X195749453Y-166198207D03*
G04 #@! TD*
D12*
G04 #@! TO.C,C1*
G36*
X192169412Y-193241980D02*
X192680664Y-193277730D01*
X192701980Y-193280276D01*
X192722943Y-193284900D01*
X192743352Y-193291556D01*
X192763011Y-193300180D01*
X192781729Y-193310690D01*
X192799327Y-193322984D01*
X192815636Y-193336943D01*
X192830498Y-193352434D01*
X192843769Y-193369307D01*
X192855323Y-193387400D01*
X192865048Y-193406538D01*
X192872851Y-193426537D01*
X192878655Y-193447204D01*
X192882406Y-193468341D01*
X192884067Y-193489744D01*
X192883622Y-193511206D01*
X192853104Y-193947640D01*
X192850558Y-193968956D01*
X192845934Y-193989919D01*
X192839278Y-194010328D01*
X192830654Y-194029987D01*
X192820144Y-194048705D01*
X192807850Y-194066303D01*
X192793891Y-194082612D01*
X192778400Y-194097474D01*
X192761527Y-194110745D01*
X192743435Y-194122299D01*
X192724297Y-194132024D01*
X192704298Y-194139827D01*
X192683630Y-194145631D01*
X192662493Y-194149382D01*
X192641090Y-194151043D01*
X192619628Y-194150598D01*
X192108376Y-194114848D01*
X192087060Y-194112302D01*
X192066097Y-194107678D01*
X192045688Y-194101022D01*
X192026029Y-194092398D01*
X192007311Y-194081888D01*
X191989713Y-194069594D01*
X191973404Y-194055635D01*
X191958542Y-194040144D01*
X191945271Y-194023271D01*
X191933717Y-194005178D01*
X191923992Y-193986040D01*
X191916189Y-193966041D01*
X191910385Y-193945374D01*
X191906634Y-193924237D01*
X191904973Y-193902834D01*
X191905418Y-193881372D01*
X191935936Y-193444938D01*
X191938482Y-193423622D01*
X191943106Y-193402659D01*
X191949762Y-193382250D01*
X191958386Y-193362591D01*
X191968896Y-193343873D01*
X191981190Y-193326275D01*
X191995149Y-193309966D01*
X192010640Y-193295104D01*
X192027513Y-193281833D01*
X192045605Y-193270279D01*
X192064743Y-193260554D01*
X192084742Y-193252751D01*
X192105410Y-193246947D01*
X192126547Y-193243196D01*
X192147950Y-193241535D01*
X192169412Y-193241980D01*
X192169412Y-193241980D01*
G37*
D13*
X192394520Y-193696289D03*
D12*
G36*
X192279278Y-191670816D02*
X192790530Y-191706566D01*
X192811846Y-191709112D01*
X192832809Y-191713736D01*
X192853218Y-191720392D01*
X192872877Y-191729016D01*
X192891595Y-191739526D01*
X192909193Y-191751820D01*
X192925502Y-191765779D01*
X192940364Y-191781270D01*
X192953635Y-191798143D01*
X192965189Y-191816236D01*
X192974914Y-191835374D01*
X192982717Y-191855373D01*
X192988521Y-191876040D01*
X192992272Y-191897177D01*
X192993933Y-191918580D01*
X192993488Y-191940042D01*
X192962970Y-192376476D01*
X192960424Y-192397792D01*
X192955800Y-192418755D01*
X192949144Y-192439164D01*
X192940520Y-192458823D01*
X192930010Y-192477541D01*
X192917716Y-192495139D01*
X192903757Y-192511448D01*
X192888266Y-192526310D01*
X192871393Y-192539581D01*
X192853301Y-192551135D01*
X192834163Y-192560860D01*
X192814164Y-192568663D01*
X192793496Y-192574467D01*
X192772359Y-192578218D01*
X192750956Y-192579879D01*
X192729494Y-192579434D01*
X192218242Y-192543684D01*
X192196926Y-192541138D01*
X192175963Y-192536514D01*
X192155554Y-192529858D01*
X192135895Y-192521234D01*
X192117177Y-192510724D01*
X192099579Y-192498430D01*
X192083270Y-192484471D01*
X192068408Y-192468980D01*
X192055137Y-192452107D01*
X192043583Y-192434014D01*
X192033858Y-192414876D01*
X192026055Y-192394877D01*
X192020251Y-192374210D01*
X192016500Y-192353073D01*
X192014839Y-192331670D01*
X192015284Y-192310208D01*
X192045802Y-191873774D01*
X192048348Y-191852458D01*
X192052972Y-191831495D01*
X192059628Y-191811086D01*
X192068252Y-191791427D01*
X192078762Y-191772709D01*
X192091056Y-191755111D01*
X192105015Y-191738802D01*
X192120506Y-191723940D01*
X192137379Y-191710669D01*
X192155471Y-191699115D01*
X192174609Y-191689390D01*
X192194608Y-191681587D01*
X192215276Y-191675783D01*
X192236413Y-191672032D01*
X192257816Y-191670371D01*
X192279278Y-191670816D01*
X192279278Y-191670816D01*
G37*
D13*
X192504386Y-192125125D03*
G04 #@! TD*
D12*
G04 #@! TO.C,C2*
G36*
X212976058Y-186889090D02*
X212997410Y-186891311D01*
X213018442Y-186895614D01*
X213038950Y-186901957D01*
X213520542Y-187077242D01*
X213540330Y-187085565D01*
X213559207Y-187095788D01*
X213576991Y-187107812D01*
X213593510Y-187121521D01*
X213608607Y-187136783D01*
X213622135Y-187153451D01*
X213633964Y-187171365D01*
X213643980Y-187190352D01*
X213652087Y-187210230D01*
X213658206Y-187230806D01*
X213662279Y-187251883D01*
X213664267Y-187273258D01*
X213664150Y-187294725D01*
X213661929Y-187316077D01*
X213657626Y-187337108D01*
X213651283Y-187357617D01*
X213501649Y-187768732D01*
X213493326Y-187788520D01*
X213483103Y-187807397D01*
X213471079Y-187825181D01*
X213457370Y-187841700D01*
X213442108Y-187856797D01*
X213425440Y-187870325D01*
X213407526Y-187882154D01*
X213388539Y-187892170D01*
X213368661Y-187900277D01*
X213348085Y-187906396D01*
X213327007Y-187910469D01*
X213305633Y-187912457D01*
X213284166Y-187912340D01*
X213262814Y-187910119D01*
X213241782Y-187905816D01*
X213221274Y-187899473D01*
X212739682Y-187724188D01*
X212719894Y-187715865D01*
X212701017Y-187705642D01*
X212683233Y-187693618D01*
X212666714Y-187679909D01*
X212651617Y-187664647D01*
X212638089Y-187647979D01*
X212626260Y-187630065D01*
X212616244Y-187611078D01*
X212608137Y-187591200D01*
X212602018Y-187570624D01*
X212597945Y-187549547D01*
X212595957Y-187528172D01*
X212596074Y-187506705D01*
X212598295Y-187485353D01*
X212602598Y-187464322D01*
X212608941Y-187443813D01*
X212758575Y-187032698D01*
X212766898Y-187012910D01*
X212777121Y-186994033D01*
X212789145Y-186976249D01*
X212802854Y-186959730D01*
X212818116Y-186944633D01*
X212834784Y-186931105D01*
X212852698Y-186919276D01*
X212871685Y-186909260D01*
X212891563Y-186901153D01*
X212912139Y-186895034D01*
X212933217Y-186890961D01*
X212954591Y-186888973D01*
X212976058Y-186889090D01*
X212976058Y-186889090D01*
G37*
D13*
X213130112Y-187400715D03*
D12*
G36*
X213514740Y-185409074D02*
X213536092Y-185411295D01*
X213557124Y-185415598D01*
X213577632Y-185421941D01*
X214059224Y-185597226D01*
X214079012Y-185605549D01*
X214097889Y-185615772D01*
X214115673Y-185627796D01*
X214132192Y-185641505D01*
X214147289Y-185656767D01*
X214160817Y-185673435D01*
X214172646Y-185691349D01*
X214182662Y-185710336D01*
X214190769Y-185730214D01*
X214196888Y-185750790D01*
X214200961Y-185771867D01*
X214202949Y-185793242D01*
X214202832Y-185814709D01*
X214200611Y-185836061D01*
X214196308Y-185857092D01*
X214189965Y-185877601D01*
X214040331Y-186288716D01*
X214032008Y-186308504D01*
X214021785Y-186327381D01*
X214009761Y-186345165D01*
X213996052Y-186361684D01*
X213980790Y-186376781D01*
X213964122Y-186390309D01*
X213946208Y-186402138D01*
X213927221Y-186412154D01*
X213907343Y-186420261D01*
X213886767Y-186426380D01*
X213865689Y-186430453D01*
X213844315Y-186432441D01*
X213822848Y-186432324D01*
X213801496Y-186430103D01*
X213780464Y-186425800D01*
X213759956Y-186419457D01*
X213278364Y-186244172D01*
X213258576Y-186235849D01*
X213239699Y-186225626D01*
X213221915Y-186213602D01*
X213205396Y-186199893D01*
X213190299Y-186184631D01*
X213176771Y-186167963D01*
X213164942Y-186150049D01*
X213154926Y-186131062D01*
X213146819Y-186111184D01*
X213140700Y-186090608D01*
X213136627Y-186069531D01*
X213134639Y-186048156D01*
X213134756Y-186026689D01*
X213136977Y-186005337D01*
X213141280Y-185984306D01*
X213147623Y-185963797D01*
X213297257Y-185552682D01*
X213305580Y-185532894D01*
X213315803Y-185514017D01*
X213327827Y-185496233D01*
X213341536Y-185479714D01*
X213356798Y-185464617D01*
X213373466Y-185451089D01*
X213391380Y-185439260D01*
X213410367Y-185429244D01*
X213430245Y-185421137D01*
X213450821Y-185415018D01*
X213471899Y-185410945D01*
X213493273Y-185408957D01*
X213514740Y-185409074D01*
X213514740Y-185409074D01*
G37*
D13*
X213668794Y-185920699D03*
G04 #@! TD*
D12*
G04 #@! TO.C,C3*
G36*
X197768881Y-185357554D02*
X198280678Y-185384376D01*
X198302035Y-185386550D01*
X198323076Y-185390807D01*
X198343598Y-185397105D01*
X198363404Y-185405385D01*
X198382303Y-185415567D01*
X198400113Y-185427552D01*
X198416663Y-185441225D01*
X198431793Y-185456454D01*
X198445357Y-185473092D01*
X198457225Y-185490981D01*
X198467283Y-185509946D01*
X198475433Y-185529806D01*
X198481597Y-185550369D01*
X198485716Y-185571437D01*
X198487750Y-185592807D01*
X198487680Y-185614275D01*
X198464783Y-186051175D01*
X198462609Y-186072531D01*
X198458352Y-186093572D01*
X198452053Y-186114094D01*
X198443774Y-186133900D01*
X198433592Y-186152799D01*
X198421607Y-186170610D01*
X198407934Y-186187159D01*
X198392705Y-186202289D01*
X198376067Y-186215853D01*
X198358178Y-186227721D01*
X198339213Y-186237779D01*
X198319353Y-186245929D01*
X198298790Y-186252093D01*
X198277722Y-186256212D01*
X198256351Y-186258246D01*
X198234885Y-186258176D01*
X197723088Y-186231354D01*
X197701731Y-186229180D01*
X197680690Y-186224923D01*
X197660168Y-186218625D01*
X197640362Y-186210345D01*
X197621463Y-186200163D01*
X197603653Y-186188178D01*
X197587103Y-186174505D01*
X197571973Y-186159276D01*
X197558409Y-186142638D01*
X197546541Y-186124749D01*
X197536483Y-186105784D01*
X197528333Y-186085924D01*
X197522169Y-186065361D01*
X197518050Y-186044293D01*
X197516016Y-186022923D01*
X197516086Y-186001455D01*
X197538983Y-185564555D01*
X197541157Y-185543199D01*
X197545414Y-185522158D01*
X197551713Y-185501636D01*
X197559992Y-185481830D01*
X197570174Y-185462931D01*
X197582159Y-185445120D01*
X197595832Y-185428571D01*
X197611061Y-185413441D01*
X197627699Y-185399877D01*
X197645588Y-185388009D01*
X197664553Y-185377951D01*
X197684413Y-185369801D01*
X197704976Y-185363637D01*
X197726044Y-185359518D01*
X197747415Y-185357484D01*
X197768881Y-185357554D01*
X197768881Y-185357554D01*
G37*
D13*
X198001883Y-185807865D03*
D12*
G36*
X197686451Y-186930396D02*
X198198248Y-186957218D01*
X198219605Y-186959392D01*
X198240646Y-186963649D01*
X198261168Y-186969947D01*
X198280974Y-186978227D01*
X198299873Y-186988409D01*
X198317683Y-187000394D01*
X198334233Y-187014067D01*
X198349363Y-187029296D01*
X198362927Y-187045934D01*
X198374795Y-187063823D01*
X198384853Y-187082788D01*
X198393003Y-187102648D01*
X198399167Y-187123211D01*
X198403286Y-187144279D01*
X198405320Y-187165649D01*
X198405250Y-187187117D01*
X198382353Y-187624017D01*
X198380179Y-187645373D01*
X198375922Y-187666414D01*
X198369623Y-187686936D01*
X198361344Y-187706742D01*
X198351162Y-187725641D01*
X198339177Y-187743452D01*
X198325504Y-187760001D01*
X198310275Y-187775131D01*
X198293637Y-187788695D01*
X198275748Y-187800563D01*
X198256783Y-187810621D01*
X198236923Y-187818771D01*
X198216360Y-187824935D01*
X198195292Y-187829054D01*
X198173921Y-187831088D01*
X198152455Y-187831018D01*
X197640658Y-187804196D01*
X197619301Y-187802022D01*
X197598260Y-187797765D01*
X197577738Y-187791467D01*
X197557932Y-187783187D01*
X197539033Y-187773005D01*
X197521223Y-187761020D01*
X197504673Y-187747347D01*
X197489543Y-187732118D01*
X197475979Y-187715480D01*
X197464111Y-187697591D01*
X197454053Y-187678626D01*
X197445903Y-187658766D01*
X197439739Y-187638203D01*
X197435620Y-187617135D01*
X197433586Y-187595765D01*
X197433656Y-187574297D01*
X197456553Y-187137397D01*
X197458727Y-187116041D01*
X197462984Y-187095000D01*
X197469283Y-187074478D01*
X197477562Y-187054672D01*
X197487744Y-187035773D01*
X197499729Y-187017962D01*
X197513402Y-187001413D01*
X197528631Y-186986283D01*
X197545269Y-186972719D01*
X197563158Y-186960851D01*
X197582123Y-186950793D01*
X197601983Y-186942643D01*
X197622546Y-186936479D01*
X197643614Y-186932360D01*
X197664985Y-186930326D01*
X197686451Y-186930396D01*
X197686451Y-186930396D01*
G37*
D13*
X197919453Y-187380707D03*
G04 #@! TD*
D12*
G04 #@! TO.C,C4*
G36*
X192993206Y-177761739D02*
X193429640Y-177792257D01*
X193450956Y-177794803D01*
X193471919Y-177799427D01*
X193492328Y-177806083D01*
X193511987Y-177814707D01*
X193530705Y-177825217D01*
X193548303Y-177837511D01*
X193564612Y-177851470D01*
X193579474Y-177866961D01*
X193592745Y-177883834D01*
X193604299Y-177901926D01*
X193614024Y-177921064D01*
X193621827Y-177941063D01*
X193627631Y-177961731D01*
X193631382Y-177982868D01*
X193633043Y-178004271D01*
X193632598Y-178025733D01*
X193596848Y-178536985D01*
X193594302Y-178558301D01*
X193589678Y-178579264D01*
X193583022Y-178599673D01*
X193574398Y-178619332D01*
X193563888Y-178638050D01*
X193551594Y-178655648D01*
X193537635Y-178671957D01*
X193522144Y-178686819D01*
X193505271Y-178700090D01*
X193487178Y-178711644D01*
X193468040Y-178721369D01*
X193448041Y-178729172D01*
X193427374Y-178734976D01*
X193406237Y-178738727D01*
X193384834Y-178740388D01*
X193363372Y-178739943D01*
X192926938Y-178709425D01*
X192905622Y-178706879D01*
X192884659Y-178702255D01*
X192864250Y-178695599D01*
X192844591Y-178686975D01*
X192825873Y-178676465D01*
X192808275Y-178664171D01*
X192791966Y-178650212D01*
X192777104Y-178634721D01*
X192763833Y-178617848D01*
X192752279Y-178599756D01*
X192742554Y-178580618D01*
X192734751Y-178560619D01*
X192728947Y-178539951D01*
X192725196Y-178518814D01*
X192723535Y-178497411D01*
X192723980Y-178475949D01*
X192759730Y-177964697D01*
X192762276Y-177943381D01*
X192766900Y-177922418D01*
X192773556Y-177902009D01*
X192782180Y-177882350D01*
X192792690Y-177863632D01*
X192804984Y-177846034D01*
X192818943Y-177829725D01*
X192834434Y-177814863D01*
X192851307Y-177801592D01*
X192869400Y-177790038D01*
X192888538Y-177780313D01*
X192908537Y-177772510D01*
X192929204Y-177766706D01*
X192950341Y-177762955D01*
X192971744Y-177761294D01*
X192993206Y-177761739D01*
X192993206Y-177761739D01*
G37*
D13*
X193178289Y-178250841D03*
D12*
G36*
X194564370Y-177871605D02*
X195000804Y-177902123D01*
X195022120Y-177904669D01*
X195043083Y-177909293D01*
X195063492Y-177915949D01*
X195083151Y-177924573D01*
X195101869Y-177935083D01*
X195119467Y-177947377D01*
X195135776Y-177961336D01*
X195150638Y-177976827D01*
X195163909Y-177993700D01*
X195175463Y-178011792D01*
X195185188Y-178030930D01*
X195192991Y-178050929D01*
X195198795Y-178071597D01*
X195202546Y-178092734D01*
X195204207Y-178114137D01*
X195203762Y-178135599D01*
X195168012Y-178646851D01*
X195165466Y-178668167D01*
X195160842Y-178689130D01*
X195154186Y-178709539D01*
X195145562Y-178729198D01*
X195135052Y-178747916D01*
X195122758Y-178765514D01*
X195108799Y-178781823D01*
X195093308Y-178796685D01*
X195076435Y-178809956D01*
X195058342Y-178821510D01*
X195039204Y-178831235D01*
X195019205Y-178839038D01*
X194998538Y-178844842D01*
X194977401Y-178848593D01*
X194955998Y-178850254D01*
X194934536Y-178849809D01*
X194498102Y-178819291D01*
X194476786Y-178816745D01*
X194455823Y-178812121D01*
X194435414Y-178805465D01*
X194415755Y-178796841D01*
X194397037Y-178786331D01*
X194379439Y-178774037D01*
X194363130Y-178760078D01*
X194348268Y-178744587D01*
X194334997Y-178727714D01*
X194323443Y-178709622D01*
X194313718Y-178690484D01*
X194305915Y-178670485D01*
X194300111Y-178649817D01*
X194296360Y-178628680D01*
X194294699Y-178607277D01*
X194295144Y-178585815D01*
X194330894Y-178074563D01*
X194333440Y-178053247D01*
X194338064Y-178032284D01*
X194344720Y-178011875D01*
X194353344Y-177992216D01*
X194363854Y-177973498D01*
X194376148Y-177955900D01*
X194390107Y-177939591D01*
X194405598Y-177924729D01*
X194422471Y-177911458D01*
X194440564Y-177899904D01*
X194459702Y-177890179D01*
X194479701Y-177882376D01*
X194500368Y-177876572D01*
X194521505Y-177872821D01*
X194542908Y-177871160D01*
X194564370Y-177871605D01*
X194564370Y-177871605D01*
G37*
D13*
X194749453Y-178360707D03*
G04 #@! TD*
D12*
G04 #@! TO.C,C5*
G36*
X211526058Y-186339090D02*
X211547410Y-186341311D01*
X211568442Y-186345614D01*
X211588950Y-186351957D01*
X212070542Y-186527242D01*
X212090330Y-186535565D01*
X212109207Y-186545788D01*
X212126991Y-186557812D01*
X212143510Y-186571521D01*
X212158607Y-186586783D01*
X212172135Y-186603451D01*
X212183964Y-186621365D01*
X212193980Y-186640352D01*
X212202087Y-186660230D01*
X212208206Y-186680806D01*
X212212279Y-186701883D01*
X212214267Y-186723258D01*
X212214150Y-186744725D01*
X212211929Y-186766077D01*
X212207626Y-186787108D01*
X212201283Y-186807617D01*
X212051649Y-187218732D01*
X212043326Y-187238520D01*
X212033103Y-187257397D01*
X212021079Y-187275181D01*
X212007370Y-187291700D01*
X211992108Y-187306797D01*
X211975440Y-187320325D01*
X211957526Y-187332154D01*
X211938539Y-187342170D01*
X211918661Y-187350277D01*
X211898085Y-187356396D01*
X211877007Y-187360469D01*
X211855633Y-187362457D01*
X211834166Y-187362340D01*
X211812814Y-187360119D01*
X211791782Y-187355816D01*
X211771274Y-187349473D01*
X211289682Y-187174188D01*
X211269894Y-187165865D01*
X211251017Y-187155642D01*
X211233233Y-187143618D01*
X211216714Y-187129909D01*
X211201617Y-187114647D01*
X211188089Y-187097979D01*
X211176260Y-187080065D01*
X211166244Y-187061078D01*
X211158137Y-187041200D01*
X211152018Y-187020624D01*
X211147945Y-186999547D01*
X211145957Y-186978172D01*
X211146074Y-186956705D01*
X211148295Y-186935353D01*
X211152598Y-186914322D01*
X211158941Y-186893813D01*
X211308575Y-186482698D01*
X211316898Y-186462910D01*
X211327121Y-186444033D01*
X211339145Y-186426249D01*
X211352854Y-186409730D01*
X211368116Y-186394633D01*
X211384784Y-186381105D01*
X211402698Y-186369276D01*
X211421685Y-186359260D01*
X211441563Y-186351153D01*
X211462139Y-186345034D01*
X211483217Y-186340961D01*
X211504591Y-186338973D01*
X211526058Y-186339090D01*
X211526058Y-186339090D01*
G37*
D13*
X211680112Y-186850715D03*
D12*
G36*
X212064740Y-184859074D02*
X212086092Y-184861295D01*
X212107124Y-184865598D01*
X212127632Y-184871941D01*
X212609224Y-185047226D01*
X212629012Y-185055549D01*
X212647889Y-185065772D01*
X212665673Y-185077796D01*
X212682192Y-185091505D01*
X212697289Y-185106767D01*
X212710817Y-185123435D01*
X212722646Y-185141349D01*
X212732662Y-185160336D01*
X212740769Y-185180214D01*
X212746888Y-185200790D01*
X212750961Y-185221867D01*
X212752949Y-185243242D01*
X212752832Y-185264709D01*
X212750611Y-185286061D01*
X212746308Y-185307092D01*
X212739965Y-185327601D01*
X212590331Y-185738716D01*
X212582008Y-185758504D01*
X212571785Y-185777381D01*
X212559761Y-185795165D01*
X212546052Y-185811684D01*
X212530790Y-185826781D01*
X212514122Y-185840309D01*
X212496208Y-185852138D01*
X212477221Y-185862154D01*
X212457343Y-185870261D01*
X212436767Y-185876380D01*
X212415689Y-185880453D01*
X212394315Y-185882441D01*
X212372848Y-185882324D01*
X212351496Y-185880103D01*
X212330464Y-185875800D01*
X212309956Y-185869457D01*
X211828364Y-185694172D01*
X211808576Y-185685849D01*
X211789699Y-185675626D01*
X211771915Y-185663602D01*
X211755396Y-185649893D01*
X211740299Y-185634631D01*
X211726771Y-185617963D01*
X211714942Y-185600049D01*
X211704926Y-185581062D01*
X211696819Y-185561184D01*
X211690700Y-185540608D01*
X211686627Y-185519531D01*
X211684639Y-185498156D01*
X211684756Y-185476689D01*
X211686977Y-185455337D01*
X211691280Y-185434306D01*
X211697623Y-185413797D01*
X211847257Y-185002682D01*
X211855580Y-184982894D01*
X211865803Y-184964017D01*
X211877827Y-184946233D01*
X211891536Y-184929714D01*
X211906798Y-184914617D01*
X211923466Y-184901089D01*
X211941380Y-184889260D01*
X211960367Y-184879244D01*
X211980245Y-184871137D01*
X212000821Y-184865018D01*
X212021899Y-184860945D01*
X212043273Y-184858957D01*
X212064740Y-184859074D01*
X212064740Y-184859074D01*
G37*
D13*
X212218794Y-185370699D03*
G04 #@! TD*
D12*
G04 #@! TO.C,C6*
G36*
X205627144Y-175674260D02*
X205648379Y-175677410D01*
X205669203Y-175682626D01*
X205689415Y-175689858D01*
X205708821Y-175699037D01*
X205727234Y-175710073D01*
X205744477Y-175722861D01*
X205760383Y-175737277D01*
X205774799Y-175753183D01*
X205787587Y-175770426D01*
X205798623Y-175788839D01*
X205807802Y-175808245D01*
X205815034Y-175828457D01*
X205820250Y-175849281D01*
X205823400Y-175870516D01*
X205824453Y-175891957D01*
X205824453Y-176329457D01*
X205823400Y-176350898D01*
X205820250Y-176372133D01*
X205815034Y-176392957D01*
X205807802Y-176413169D01*
X205798623Y-176432575D01*
X205787587Y-176450988D01*
X205774799Y-176468231D01*
X205760383Y-176484137D01*
X205744477Y-176498553D01*
X205727234Y-176511341D01*
X205708821Y-176522377D01*
X205689415Y-176531556D01*
X205669203Y-176538788D01*
X205648379Y-176544004D01*
X205627144Y-176547154D01*
X205605703Y-176548207D01*
X205093203Y-176548207D01*
X205071762Y-176547154D01*
X205050527Y-176544004D01*
X205029703Y-176538788D01*
X205009491Y-176531556D01*
X204990085Y-176522377D01*
X204971672Y-176511341D01*
X204954429Y-176498553D01*
X204938523Y-176484137D01*
X204924107Y-176468231D01*
X204911319Y-176450988D01*
X204900283Y-176432575D01*
X204891104Y-176413169D01*
X204883872Y-176392957D01*
X204878656Y-176372133D01*
X204875506Y-176350898D01*
X204874453Y-176329457D01*
X204874453Y-175891957D01*
X204875506Y-175870516D01*
X204878656Y-175849281D01*
X204883872Y-175828457D01*
X204891104Y-175808245D01*
X204900283Y-175788839D01*
X204911319Y-175770426D01*
X204924107Y-175753183D01*
X204938523Y-175737277D01*
X204954429Y-175722861D01*
X204971672Y-175710073D01*
X204990085Y-175699037D01*
X205009491Y-175689858D01*
X205029703Y-175682626D01*
X205050527Y-175677410D01*
X205071762Y-175674260D01*
X205093203Y-175673207D01*
X205605703Y-175673207D01*
X205627144Y-175674260D01*
X205627144Y-175674260D01*
G37*
D13*
X205349453Y-176110707D03*
D12*
G36*
X205627144Y-177249260D02*
X205648379Y-177252410D01*
X205669203Y-177257626D01*
X205689415Y-177264858D01*
X205708821Y-177274037D01*
X205727234Y-177285073D01*
X205744477Y-177297861D01*
X205760383Y-177312277D01*
X205774799Y-177328183D01*
X205787587Y-177345426D01*
X205798623Y-177363839D01*
X205807802Y-177383245D01*
X205815034Y-177403457D01*
X205820250Y-177424281D01*
X205823400Y-177445516D01*
X205824453Y-177466957D01*
X205824453Y-177904457D01*
X205823400Y-177925898D01*
X205820250Y-177947133D01*
X205815034Y-177967957D01*
X205807802Y-177988169D01*
X205798623Y-178007575D01*
X205787587Y-178025988D01*
X205774799Y-178043231D01*
X205760383Y-178059137D01*
X205744477Y-178073553D01*
X205727234Y-178086341D01*
X205708821Y-178097377D01*
X205689415Y-178106556D01*
X205669203Y-178113788D01*
X205648379Y-178119004D01*
X205627144Y-178122154D01*
X205605703Y-178123207D01*
X205093203Y-178123207D01*
X205071762Y-178122154D01*
X205050527Y-178119004D01*
X205029703Y-178113788D01*
X205009491Y-178106556D01*
X204990085Y-178097377D01*
X204971672Y-178086341D01*
X204954429Y-178073553D01*
X204938523Y-178059137D01*
X204924107Y-178043231D01*
X204911319Y-178025988D01*
X204900283Y-178007575D01*
X204891104Y-177988169D01*
X204883872Y-177967957D01*
X204878656Y-177947133D01*
X204875506Y-177925898D01*
X204874453Y-177904457D01*
X204874453Y-177466957D01*
X204875506Y-177445516D01*
X204878656Y-177424281D01*
X204883872Y-177403457D01*
X204891104Y-177383245D01*
X204900283Y-177363839D01*
X204911319Y-177345426D01*
X204924107Y-177328183D01*
X204938523Y-177312277D01*
X204954429Y-177297861D01*
X204971672Y-177285073D01*
X204990085Y-177274037D01*
X205009491Y-177264858D01*
X205029703Y-177257626D01*
X205050527Y-177252410D01*
X205071762Y-177249260D01*
X205093203Y-177248207D01*
X205605703Y-177248207D01*
X205627144Y-177249260D01*
X205627144Y-177249260D01*
G37*
D13*
X205349453Y-177685707D03*
G04 #@! TD*
D12*
G04 #@! TO.C,C7*
G36*
X207227144Y-175686760D02*
X207248379Y-175689910D01*
X207269203Y-175695126D01*
X207289415Y-175702358D01*
X207308821Y-175711537D01*
X207327234Y-175722573D01*
X207344477Y-175735361D01*
X207360383Y-175749777D01*
X207374799Y-175765683D01*
X207387587Y-175782926D01*
X207398623Y-175801339D01*
X207407802Y-175820745D01*
X207415034Y-175840957D01*
X207420250Y-175861781D01*
X207423400Y-175883016D01*
X207424453Y-175904457D01*
X207424453Y-176341957D01*
X207423400Y-176363398D01*
X207420250Y-176384633D01*
X207415034Y-176405457D01*
X207407802Y-176425669D01*
X207398623Y-176445075D01*
X207387587Y-176463488D01*
X207374799Y-176480731D01*
X207360383Y-176496637D01*
X207344477Y-176511053D01*
X207327234Y-176523841D01*
X207308821Y-176534877D01*
X207289415Y-176544056D01*
X207269203Y-176551288D01*
X207248379Y-176556504D01*
X207227144Y-176559654D01*
X207205703Y-176560707D01*
X206693203Y-176560707D01*
X206671762Y-176559654D01*
X206650527Y-176556504D01*
X206629703Y-176551288D01*
X206609491Y-176544056D01*
X206590085Y-176534877D01*
X206571672Y-176523841D01*
X206554429Y-176511053D01*
X206538523Y-176496637D01*
X206524107Y-176480731D01*
X206511319Y-176463488D01*
X206500283Y-176445075D01*
X206491104Y-176425669D01*
X206483872Y-176405457D01*
X206478656Y-176384633D01*
X206475506Y-176363398D01*
X206474453Y-176341957D01*
X206474453Y-175904457D01*
X206475506Y-175883016D01*
X206478656Y-175861781D01*
X206483872Y-175840957D01*
X206491104Y-175820745D01*
X206500283Y-175801339D01*
X206511319Y-175782926D01*
X206524107Y-175765683D01*
X206538523Y-175749777D01*
X206554429Y-175735361D01*
X206571672Y-175722573D01*
X206590085Y-175711537D01*
X206609491Y-175702358D01*
X206629703Y-175695126D01*
X206650527Y-175689910D01*
X206671762Y-175686760D01*
X206693203Y-175685707D01*
X207205703Y-175685707D01*
X207227144Y-175686760D01*
X207227144Y-175686760D01*
G37*
D13*
X206949453Y-176123207D03*
D12*
G36*
X207227144Y-177261760D02*
X207248379Y-177264910D01*
X207269203Y-177270126D01*
X207289415Y-177277358D01*
X207308821Y-177286537D01*
X207327234Y-177297573D01*
X207344477Y-177310361D01*
X207360383Y-177324777D01*
X207374799Y-177340683D01*
X207387587Y-177357926D01*
X207398623Y-177376339D01*
X207407802Y-177395745D01*
X207415034Y-177415957D01*
X207420250Y-177436781D01*
X207423400Y-177458016D01*
X207424453Y-177479457D01*
X207424453Y-177916957D01*
X207423400Y-177938398D01*
X207420250Y-177959633D01*
X207415034Y-177980457D01*
X207407802Y-178000669D01*
X207398623Y-178020075D01*
X207387587Y-178038488D01*
X207374799Y-178055731D01*
X207360383Y-178071637D01*
X207344477Y-178086053D01*
X207327234Y-178098841D01*
X207308821Y-178109877D01*
X207289415Y-178119056D01*
X207269203Y-178126288D01*
X207248379Y-178131504D01*
X207227144Y-178134654D01*
X207205703Y-178135707D01*
X206693203Y-178135707D01*
X206671762Y-178134654D01*
X206650527Y-178131504D01*
X206629703Y-178126288D01*
X206609491Y-178119056D01*
X206590085Y-178109877D01*
X206571672Y-178098841D01*
X206554429Y-178086053D01*
X206538523Y-178071637D01*
X206524107Y-178055731D01*
X206511319Y-178038488D01*
X206500283Y-178020075D01*
X206491104Y-178000669D01*
X206483872Y-177980457D01*
X206478656Y-177959633D01*
X206475506Y-177938398D01*
X206474453Y-177916957D01*
X206474453Y-177479457D01*
X206475506Y-177458016D01*
X206478656Y-177436781D01*
X206483872Y-177415957D01*
X206491104Y-177395745D01*
X206500283Y-177376339D01*
X206511319Y-177357926D01*
X206524107Y-177340683D01*
X206538523Y-177324777D01*
X206554429Y-177310361D01*
X206571672Y-177297573D01*
X206590085Y-177286537D01*
X206609491Y-177277358D01*
X206629703Y-177270126D01*
X206650527Y-177264910D01*
X206671762Y-177261760D01*
X206693203Y-177260707D01*
X207205703Y-177260707D01*
X207227144Y-177261760D01*
X207227144Y-177261760D01*
G37*
D13*
X206949453Y-177698207D03*
G04 #@! TD*
D12*
G04 #@! TO.C,C8*
G36*
X206589644Y-169336760D02*
X206610879Y-169339910D01*
X206631703Y-169345126D01*
X206651915Y-169352358D01*
X206671321Y-169361537D01*
X206689734Y-169372573D01*
X206706977Y-169385361D01*
X206722883Y-169399777D01*
X206737299Y-169415683D01*
X206750087Y-169432926D01*
X206761123Y-169451339D01*
X206770302Y-169470745D01*
X206777534Y-169490957D01*
X206782750Y-169511781D01*
X206785900Y-169533016D01*
X206786953Y-169554457D01*
X206786953Y-170066957D01*
X206785900Y-170088398D01*
X206782750Y-170109633D01*
X206777534Y-170130457D01*
X206770302Y-170150669D01*
X206761123Y-170170075D01*
X206750087Y-170188488D01*
X206737299Y-170205731D01*
X206722883Y-170221637D01*
X206706977Y-170236053D01*
X206689734Y-170248841D01*
X206671321Y-170259877D01*
X206651915Y-170269056D01*
X206631703Y-170276288D01*
X206610879Y-170281504D01*
X206589644Y-170284654D01*
X206568203Y-170285707D01*
X206130703Y-170285707D01*
X206109262Y-170284654D01*
X206088027Y-170281504D01*
X206067203Y-170276288D01*
X206046991Y-170269056D01*
X206027585Y-170259877D01*
X206009172Y-170248841D01*
X205991929Y-170236053D01*
X205976023Y-170221637D01*
X205961607Y-170205731D01*
X205948819Y-170188488D01*
X205937783Y-170170075D01*
X205928604Y-170150669D01*
X205921372Y-170130457D01*
X205916156Y-170109633D01*
X205913006Y-170088398D01*
X205911953Y-170066957D01*
X205911953Y-169554457D01*
X205913006Y-169533016D01*
X205916156Y-169511781D01*
X205921372Y-169490957D01*
X205928604Y-169470745D01*
X205937783Y-169451339D01*
X205948819Y-169432926D01*
X205961607Y-169415683D01*
X205976023Y-169399777D01*
X205991929Y-169385361D01*
X206009172Y-169372573D01*
X206027585Y-169361537D01*
X206046991Y-169352358D01*
X206067203Y-169345126D01*
X206088027Y-169339910D01*
X206109262Y-169336760D01*
X206130703Y-169335707D01*
X206568203Y-169335707D01*
X206589644Y-169336760D01*
X206589644Y-169336760D01*
G37*
D13*
X206349453Y-169810707D03*
D12*
G36*
X205014644Y-169336760D02*
X205035879Y-169339910D01*
X205056703Y-169345126D01*
X205076915Y-169352358D01*
X205096321Y-169361537D01*
X205114734Y-169372573D01*
X205131977Y-169385361D01*
X205147883Y-169399777D01*
X205162299Y-169415683D01*
X205175087Y-169432926D01*
X205186123Y-169451339D01*
X205195302Y-169470745D01*
X205202534Y-169490957D01*
X205207750Y-169511781D01*
X205210900Y-169533016D01*
X205211953Y-169554457D01*
X205211953Y-170066957D01*
X205210900Y-170088398D01*
X205207750Y-170109633D01*
X205202534Y-170130457D01*
X205195302Y-170150669D01*
X205186123Y-170170075D01*
X205175087Y-170188488D01*
X205162299Y-170205731D01*
X205147883Y-170221637D01*
X205131977Y-170236053D01*
X205114734Y-170248841D01*
X205096321Y-170259877D01*
X205076915Y-170269056D01*
X205056703Y-170276288D01*
X205035879Y-170281504D01*
X205014644Y-170284654D01*
X204993203Y-170285707D01*
X204555703Y-170285707D01*
X204534262Y-170284654D01*
X204513027Y-170281504D01*
X204492203Y-170276288D01*
X204471991Y-170269056D01*
X204452585Y-170259877D01*
X204434172Y-170248841D01*
X204416929Y-170236053D01*
X204401023Y-170221637D01*
X204386607Y-170205731D01*
X204373819Y-170188488D01*
X204362783Y-170170075D01*
X204353604Y-170150669D01*
X204346372Y-170130457D01*
X204341156Y-170109633D01*
X204338006Y-170088398D01*
X204336953Y-170066957D01*
X204336953Y-169554457D01*
X204338006Y-169533016D01*
X204341156Y-169511781D01*
X204346372Y-169490957D01*
X204353604Y-169470745D01*
X204362783Y-169451339D01*
X204373819Y-169432926D01*
X204386607Y-169415683D01*
X204401023Y-169399777D01*
X204416929Y-169385361D01*
X204434172Y-169372573D01*
X204452585Y-169361537D01*
X204471991Y-169352358D01*
X204492203Y-169345126D01*
X204513027Y-169339910D01*
X204534262Y-169336760D01*
X204555703Y-169335707D01*
X204993203Y-169335707D01*
X205014644Y-169336760D01*
X205014644Y-169336760D01*
G37*
D13*
X204774453Y-169810707D03*
G04 #@! TD*
D12*
G04 #@! TO.C,C9*
G36*
X206589644Y-167736760D02*
X206610879Y-167739910D01*
X206631703Y-167745126D01*
X206651915Y-167752358D01*
X206671321Y-167761537D01*
X206689734Y-167772573D01*
X206706977Y-167785361D01*
X206722883Y-167799777D01*
X206737299Y-167815683D01*
X206750087Y-167832926D01*
X206761123Y-167851339D01*
X206770302Y-167870745D01*
X206777534Y-167890957D01*
X206782750Y-167911781D01*
X206785900Y-167933016D01*
X206786953Y-167954457D01*
X206786953Y-168466957D01*
X206785900Y-168488398D01*
X206782750Y-168509633D01*
X206777534Y-168530457D01*
X206770302Y-168550669D01*
X206761123Y-168570075D01*
X206750087Y-168588488D01*
X206737299Y-168605731D01*
X206722883Y-168621637D01*
X206706977Y-168636053D01*
X206689734Y-168648841D01*
X206671321Y-168659877D01*
X206651915Y-168669056D01*
X206631703Y-168676288D01*
X206610879Y-168681504D01*
X206589644Y-168684654D01*
X206568203Y-168685707D01*
X206130703Y-168685707D01*
X206109262Y-168684654D01*
X206088027Y-168681504D01*
X206067203Y-168676288D01*
X206046991Y-168669056D01*
X206027585Y-168659877D01*
X206009172Y-168648841D01*
X205991929Y-168636053D01*
X205976023Y-168621637D01*
X205961607Y-168605731D01*
X205948819Y-168588488D01*
X205937783Y-168570075D01*
X205928604Y-168550669D01*
X205921372Y-168530457D01*
X205916156Y-168509633D01*
X205913006Y-168488398D01*
X205911953Y-168466957D01*
X205911953Y-167954457D01*
X205913006Y-167933016D01*
X205916156Y-167911781D01*
X205921372Y-167890957D01*
X205928604Y-167870745D01*
X205937783Y-167851339D01*
X205948819Y-167832926D01*
X205961607Y-167815683D01*
X205976023Y-167799777D01*
X205991929Y-167785361D01*
X206009172Y-167772573D01*
X206027585Y-167761537D01*
X206046991Y-167752358D01*
X206067203Y-167745126D01*
X206088027Y-167739910D01*
X206109262Y-167736760D01*
X206130703Y-167735707D01*
X206568203Y-167735707D01*
X206589644Y-167736760D01*
X206589644Y-167736760D01*
G37*
D13*
X206349453Y-168210707D03*
D12*
G36*
X205014644Y-167736760D02*
X205035879Y-167739910D01*
X205056703Y-167745126D01*
X205076915Y-167752358D01*
X205096321Y-167761537D01*
X205114734Y-167772573D01*
X205131977Y-167785361D01*
X205147883Y-167799777D01*
X205162299Y-167815683D01*
X205175087Y-167832926D01*
X205186123Y-167851339D01*
X205195302Y-167870745D01*
X205202534Y-167890957D01*
X205207750Y-167911781D01*
X205210900Y-167933016D01*
X205211953Y-167954457D01*
X205211953Y-168466957D01*
X205210900Y-168488398D01*
X205207750Y-168509633D01*
X205202534Y-168530457D01*
X205195302Y-168550669D01*
X205186123Y-168570075D01*
X205175087Y-168588488D01*
X205162299Y-168605731D01*
X205147883Y-168621637D01*
X205131977Y-168636053D01*
X205114734Y-168648841D01*
X205096321Y-168659877D01*
X205076915Y-168669056D01*
X205056703Y-168676288D01*
X205035879Y-168681504D01*
X205014644Y-168684654D01*
X204993203Y-168685707D01*
X204555703Y-168685707D01*
X204534262Y-168684654D01*
X204513027Y-168681504D01*
X204492203Y-168676288D01*
X204471991Y-168669056D01*
X204452585Y-168659877D01*
X204434172Y-168648841D01*
X204416929Y-168636053D01*
X204401023Y-168621637D01*
X204386607Y-168605731D01*
X204373819Y-168588488D01*
X204362783Y-168570075D01*
X204353604Y-168550669D01*
X204346372Y-168530457D01*
X204341156Y-168509633D01*
X204338006Y-168488398D01*
X204336953Y-168466957D01*
X204336953Y-167954457D01*
X204338006Y-167933016D01*
X204341156Y-167911781D01*
X204346372Y-167890957D01*
X204353604Y-167870745D01*
X204362783Y-167851339D01*
X204373819Y-167832926D01*
X204386607Y-167815683D01*
X204401023Y-167799777D01*
X204416929Y-167785361D01*
X204434172Y-167772573D01*
X204452585Y-167761537D01*
X204471991Y-167752358D01*
X204492203Y-167745126D01*
X204513027Y-167739910D01*
X204534262Y-167736760D01*
X204555703Y-167735707D01*
X204993203Y-167735707D01*
X205014644Y-167736760D01*
X205014644Y-167736760D01*
G37*
D13*
X204774453Y-168210707D03*
G04 #@! TD*
D12*
G04 #@! TO.C,C10*
G36*
X200252144Y-152549260D02*
X200273379Y-152552410D01*
X200294203Y-152557626D01*
X200314415Y-152564858D01*
X200333821Y-152574037D01*
X200352234Y-152585073D01*
X200369477Y-152597861D01*
X200385383Y-152612277D01*
X200399799Y-152628183D01*
X200412587Y-152645426D01*
X200423623Y-152663839D01*
X200432802Y-152683245D01*
X200440034Y-152703457D01*
X200445250Y-152724281D01*
X200448400Y-152745516D01*
X200449453Y-152766957D01*
X200449453Y-153204457D01*
X200448400Y-153225898D01*
X200445250Y-153247133D01*
X200440034Y-153267957D01*
X200432802Y-153288169D01*
X200423623Y-153307575D01*
X200412587Y-153325988D01*
X200399799Y-153343231D01*
X200385383Y-153359137D01*
X200369477Y-153373553D01*
X200352234Y-153386341D01*
X200333821Y-153397377D01*
X200314415Y-153406556D01*
X200294203Y-153413788D01*
X200273379Y-153419004D01*
X200252144Y-153422154D01*
X200230703Y-153423207D01*
X199718203Y-153423207D01*
X199696762Y-153422154D01*
X199675527Y-153419004D01*
X199654703Y-153413788D01*
X199634491Y-153406556D01*
X199615085Y-153397377D01*
X199596672Y-153386341D01*
X199579429Y-153373553D01*
X199563523Y-153359137D01*
X199549107Y-153343231D01*
X199536319Y-153325988D01*
X199525283Y-153307575D01*
X199516104Y-153288169D01*
X199508872Y-153267957D01*
X199503656Y-153247133D01*
X199500506Y-153225898D01*
X199499453Y-153204457D01*
X199499453Y-152766957D01*
X199500506Y-152745516D01*
X199503656Y-152724281D01*
X199508872Y-152703457D01*
X199516104Y-152683245D01*
X199525283Y-152663839D01*
X199536319Y-152645426D01*
X199549107Y-152628183D01*
X199563523Y-152612277D01*
X199579429Y-152597861D01*
X199596672Y-152585073D01*
X199615085Y-152574037D01*
X199634491Y-152564858D01*
X199654703Y-152557626D01*
X199675527Y-152552410D01*
X199696762Y-152549260D01*
X199718203Y-152548207D01*
X200230703Y-152548207D01*
X200252144Y-152549260D01*
X200252144Y-152549260D01*
G37*
D13*
X199974453Y-152985707D03*
D12*
G36*
X200252144Y-154124260D02*
X200273379Y-154127410D01*
X200294203Y-154132626D01*
X200314415Y-154139858D01*
X200333821Y-154149037D01*
X200352234Y-154160073D01*
X200369477Y-154172861D01*
X200385383Y-154187277D01*
X200399799Y-154203183D01*
X200412587Y-154220426D01*
X200423623Y-154238839D01*
X200432802Y-154258245D01*
X200440034Y-154278457D01*
X200445250Y-154299281D01*
X200448400Y-154320516D01*
X200449453Y-154341957D01*
X200449453Y-154779457D01*
X200448400Y-154800898D01*
X200445250Y-154822133D01*
X200440034Y-154842957D01*
X200432802Y-154863169D01*
X200423623Y-154882575D01*
X200412587Y-154900988D01*
X200399799Y-154918231D01*
X200385383Y-154934137D01*
X200369477Y-154948553D01*
X200352234Y-154961341D01*
X200333821Y-154972377D01*
X200314415Y-154981556D01*
X200294203Y-154988788D01*
X200273379Y-154994004D01*
X200252144Y-154997154D01*
X200230703Y-154998207D01*
X199718203Y-154998207D01*
X199696762Y-154997154D01*
X199675527Y-154994004D01*
X199654703Y-154988788D01*
X199634491Y-154981556D01*
X199615085Y-154972377D01*
X199596672Y-154961341D01*
X199579429Y-154948553D01*
X199563523Y-154934137D01*
X199549107Y-154918231D01*
X199536319Y-154900988D01*
X199525283Y-154882575D01*
X199516104Y-154863169D01*
X199508872Y-154842957D01*
X199503656Y-154822133D01*
X199500506Y-154800898D01*
X199499453Y-154779457D01*
X199499453Y-154341957D01*
X199500506Y-154320516D01*
X199503656Y-154299281D01*
X199508872Y-154278457D01*
X199516104Y-154258245D01*
X199525283Y-154238839D01*
X199536319Y-154220426D01*
X199549107Y-154203183D01*
X199563523Y-154187277D01*
X199579429Y-154172861D01*
X199596672Y-154160073D01*
X199615085Y-154149037D01*
X199634491Y-154139858D01*
X199654703Y-154132626D01*
X199675527Y-154127410D01*
X199696762Y-154124260D01*
X199718203Y-154123207D01*
X200230703Y-154123207D01*
X200252144Y-154124260D01*
X200252144Y-154124260D01*
G37*
D13*
X199974453Y-154560707D03*
G04 #@! TD*
D12*
G04 #@! TO.C,C11*
G36*
X198627144Y-152561760D02*
X198648379Y-152564910D01*
X198669203Y-152570126D01*
X198689415Y-152577358D01*
X198708821Y-152586537D01*
X198727234Y-152597573D01*
X198744477Y-152610361D01*
X198760383Y-152624777D01*
X198774799Y-152640683D01*
X198787587Y-152657926D01*
X198798623Y-152676339D01*
X198807802Y-152695745D01*
X198815034Y-152715957D01*
X198820250Y-152736781D01*
X198823400Y-152758016D01*
X198824453Y-152779457D01*
X198824453Y-153216957D01*
X198823400Y-153238398D01*
X198820250Y-153259633D01*
X198815034Y-153280457D01*
X198807802Y-153300669D01*
X198798623Y-153320075D01*
X198787587Y-153338488D01*
X198774799Y-153355731D01*
X198760383Y-153371637D01*
X198744477Y-153386053D01*
X198727234Y-153398841D01*
X198708821Y-153409877D01*
X198689415Y-153419056D01*
X198669203Y-153426288D01*
X198648379Y-153431504D01*
X198627144Y-153434654D01*
X198605703Y-153435707D01*
X198093203Y-153435707D01*
X198071762Y-153434654D01*
X198050527Y-153431504D01*
X198029703Y-153426288D01*
X198009491Y-153419056D01*
X197990085Y-153409877D01*
X197971672Y-153398841D01*
X197954429Y-153386053D01*
X197938523Y-153371637D01*
X197924107Y-153355731D01*
X197911319Y-153338488D01*
X197900283Y-153320075D01*
X197891104Y-153300669D01*
X197883872Y-153280457D01*
X197878656Y-153259633D01*
X197875506Y-153238398D01*
X197874453Y-153216957D01*
X197874453Y-152779457D01*
X197875506Y-152758016D01*
X197878656Y-152736781D01*
X197883872Y-152715957D01*
X197891104Y-152695745D01*
X197900283Y-152676339D01*
X197911319Y-152657926D01*
X197924107Y-152640683D01*
X197938523Y-152624777D01*
X197954429Y-152610361D01*
X197971672Y-152597573D01*
X197990085Y-152586537D01*
X198009491Y-152577358D01*
X198029703Y-152570126D01*
X198050527Y-152564910D01*
X198071762Y-152561760D01*
X198093203Y-152560707D01*
X198605703Y-152560707D01*
X198627144Y-152561760D01*
X198627144Y-152561760D01*
G37*
D13*
X198349453Y-152998207D03*
D12*
G36*
X198627144Y-154136760D02*
X198648379Y-154139910D01*
X198669203Y-154145126D01*
X198689415Y-154152358D01*
X198708821Y-154161537D01*
X198727234Y-154172573D01*
X198744477Y-154185361D01*
X198760383Y-154199777D01*
X198774799Y-154215683D01*
X198787587Y-154232926D01*
X198798623Y-154251339D01*
X198807802Y-154270745D01*
X198815034Y-154290957D01*
X198820250Y-154311781D01*
X198823400Y-154333016D01*
X198824453Y-154354457D01*
X198824453Y-154791957D01*
X198823400Y-154813398D01*
X198820250Y-154834633D01*
X198815034Y-154855457D01*
X198807802Y-154875669D01*
X198798623Y-154895075D01*
X198787587Y-154913488D01*
X198774799Y-154930731D01*
X198760383Y-154946637D01*
X198744477Y-154961053D01*
X198727234Y-154973841D01*
X198708821Y-154984877D01*
X198689415Y-154994056D01*
X198669203Y-155001288D01*
X198648379Y-155006504D01*
X198627144Y-155009654D01*
X198605703Y-155010707D01*
X198093203Y-155010707D01*
X198071762Y-155009654D01*
X198050527Y-155006504D01*
X198029703Y-155001288D01*
X198009491Y-154994056D01*
X197990085Y-154984877D01*
X197971672Y-154973841D01*
X197954429Y-154961053D01*
X197938523Y-154946637D01*
X197924107Y-154930731D01*
X197911319Y-154913488D01*
X197900283Y-154895075D01*
X197891104Y-154875669D01*
X197883872Y-154855457D01*
X197878656Y-154834633D01*
X197875506Y-154813398D01*
X197874453Y-154791957D01*
X197874453Y-154354457D01*
X197875506Y-154333016D01*
X197878656Y-154311781D01*
X197883872Y-154290957D01*
X197891104Y-154270745D01*
X197900283Y-154251339D01*
X197911319Y-154232926D01*
X197924107Y-154215683D01*
X197938523Y-154199777D01*
X197954429Y-154185361D01*
X197971672Y-154172573D01*
X197990085Y-154161537D01*
X198009491Y-154152358D01*
X198029703Y-154145126D01*
X198050527Y-154139910D01*
X198071762Y-154136760D01*
X198093203Y-154135707D01*
X198605703Y-154135707D01*
X198627144Y-154136760D01*
X198627144Y-154136760D01*
G37*
D13*
X198349453Y-154573207D03*
G04 #@! TD*
D12*
G04 #@! TO.C,C12*
G36*
X196889644Y-170836760D02*
X196910879Y-170839910D01*
X196931703Y-170845126D01*
X196951915Y-170852358D01*
X196971321Y-170861537D01*
X196989734Y-170872573D01*
X197006977Y-170885361D01*
X197022883Y-170899777D01*
X197037299Y-170915683D01*
X197050087Y-170932926D01*
X197061123Y-170951339D01*
X197070302Y-170970745D01*
X197077534Y-170990957D01*
X197082750Y-171011781D01*
X197085900Y-171033016D01*
X197086953Y-171054457D01*
X197086953Y-171566957D01*
X197085900Y-171588398D01*
X197082750Y-171609633D01*
X197077534Y-171630457D01*
X197070302Y-171650669D01*
X197061123Y-171670075D01*
X197050087Y-171688488D01*
X197037299Y-171705731D01*
X197022883Y-171721637D01*
X197006977Y-171736053D01*
X196989734Y-171748841D01*
X196971321Y-171759877D01*
X196951915Y-171769056D01*
X196931703Y-171776288D01*
X196910879Y-171781504D01*
X196889644Y-171784654D01*
X196868203Y-171785707D01*
X196430703Y-171785707D01*
X196409262Y-171784654D01*
X196388027Y-171781504D01*
X196367203Y-171776288D01*
X196346991Y-171769056D01*
X196327585Y-171759877D01*
X196309172Y-171748841D01*
X196291929Y-171736053D01*
X196276023Y-171721637D01*
X196261607Y-171705731D01*
X196248819Y-171688488D01*
X196237783Y-171670075D01*
X196228604Y-171650669D01*
X196221372Y-171630457D01*
X196216156Y-171609633D01*
X196213006Y-171588398D01*
X196211953Y-171566957D01*
X196211953Y-171054457D01*
X196213006Y-171033016D01*
X196216156Y-171011781D01*
X196221372Y-170990957D01*
X196228604Y-170970745D01*
X196237783Y-170951339D01*
X196248819Y-170932926D01*
X196261607Y-170915683D01*
X196276023Y-170899777D01*
X196291929Y-170885361D01*
X196309172Y-170872573D01*
X196327585Y-170861537D01*
X196346991Y-170852358D01*
X196367203Y-170845126D01*
X196388027Y-170839910D01*
X196409262Y-170836760D01*
X196430703Y-170835707D01*
X196868203Y-170835707D01*
X196889644Y-170836760D01*
X196889644Y-170836760D01*
G37*
D13*
X196649453Y-171310707D03*
D12*
G36*
X198464644Y-170836760D02*
X198485879Y-170839910D01*
X198506703Y-170845126D01*
X198526915Y-170852358D01*
X198546321Y-170861537D01*
X198564734Y-170872573D01*
X198581977Y-170885361D01*
X198597883Y-170899777D01*
X198612299Y-170915683D01*
X198625087Y-170932926D01*
X198636123Y-170951339D01*
X198645302Y-170970745D01*
X198652534Y-170990957D01*
X198657750Y-171011781D01*
X198660900Y-171033016D01*
X198661953Y-171054457D01*
X198661953Y-171566957D01*
X198660900Y-171588398D01*
X198657750Y-171609633D01*
X198652534Y-171630457D01*
X198645302Y-171650669D01*
X198636123Y-171670075D01*
X198625087Y-171688488D01*
X198612299Y-171705731D01*
X198597883Y-171721637D01*
X198581977Y-171736053D01*
X198564734Y-171748841D01*
X198546321Y-171759877D01*
X198526915Y-171769056D01*
X198506703Y-171776288D01*
X198485879Y-171781504D01*
X198464644Y-171784654D01*
X198443203Y-171785707D01*
X198005703Y-171785707D01*
X197984262Y-171784654D01*
X197963027Y-171781504D01*
X197942203Y-171776288D01*
X197921991Y-171769056D01*
X197902585Y-171759877D01*
X197884172Y-171748841D01*
X197866929Y-171736053D01*
X197851023Y-171721637D01*
X197836607Y-171705731D01*
X197823819Y-171688488D01*
X197812783Y-171670075D01*
X197803604Y-171650669D01*
X197796372Y-171630457D01*
X197791156Y-171609633D01*
X197788006Y-171588398D01*
X197786953Y-171566957D01*
X197786953Y-171054457D01*
X197788006Y-171033016D01*
X197791156Y-171011781D01*
X197796372Y-170990957D01*
X197803604Y-170970745D01*
X197812783Y-170951339D01*
X197823819Y-170932926D01*
X197836607Y-170915683D01*
X197851023Y-170899777D01*
X197866929Y-170885361D01*
X197884172Y-170872573D01*
X197902585Y-170861537D01*
X197921991Y-170852358D01*
X197942203Y-170845126D01*
X197963027Y-170839910D01*
X197984262Y-170836760D01*
X198005703Y-170835707D01*
X198443203Y-170835707D01*
X198464644Y-170836760D01*
X198464644Y-170836760D01*
G37*
D13*
X198224453Y-171310707D03*
G04 #@! TD*
D12*
G04 #@! TO.C,C13*
G36*
X196889644Y-169236760D02*
X196910879Y-169239910D01*
X196931703Y-169245126D01*
X196951915Y-169252358D01*
X196971321Y-169261537D01*
X196989734Y-169272573D01*
X197006977Y-169285361D01*
X197022883Y-169299777D01*
X197037299Y-169315683D01*
X197050087Y-169332926D01*
X197061123Y-169351339D01*
X197070302Y-169370745D01*
X197077534Y-169390957D01*
X197082750Y-169411781D01*
X197085900Y-169433016D01*
X197086953Y-169454457D01*
X197086953Y-169966957D01*
X197085900Y-169988398D01*
X197082750Y-170009633D01*
X197077534Y-170030457D01*
X197070302Y-170050669D01*
X197061123Y-170070075D01*
X197050087Y-170088488D01*
X197037299Y-170105731D01*
X197022883Y-170121637D01*
X197006977Y-170136053D01*
X196989734Y-170148841D01*
X196971321Y-170159877D01*
X196951915Y-170169056D01*
X196931703Y-170176288D01*
X196910879Y-170181504D01*
X196889644Y-170184654D01*
X196868203Y-170185707D01*
X196430703Y-170185707D01*
X196409262Y-170184654D01*
X196388027Y-170181504D01*
X196367203Y-170176288D01*
X196346991Y-170169056D01*
X196327585Y-170159877D01*
X196309172Y-170148841D01*
X196291929Y-170136053D01*
X196276023Y-170121637D01*
X196261607Y-170105731D01*
X196248819Y-170088488D01*
X196237783Y-170070075D01*
X196228604Y-170050669D01*
X196221372Y-170030457D01*
X196216156Y-170009633D01*
X196213006Y-169988398D01*
X196211953Y-169966957D01*
X196211953Y-169454457D01*
X196213006Y-169433016D01*
X196216156Y-169411781D01*
X196221372Y-169390957D01*
X196228604Y-169370745D01*
X196237783Y-169351339D01*
X196248819Y-169332926D01*
X196261607Y-169315683D01*
X196276023Y-169299777D01*
X196291929Y-169285361D01*
X196309172Y-169272573D01*
X196327585Y-169261537D01*
X196346991Y-169252358D01*
X196367203Y-169245126D01*
X196388027Y-169239910D01*
X196409262Y-169236760D01*
X196430703Y-169235707D01*
X196868203Y-169235707D01*
X196889644Y-169236760D01*
X196889644Y-169236760D01*
G37*
D13*
X196649453Y-169710707D03*
D12*
G36*
X198464644Y-169236760D02*
X198485879Y-169239910D01*
X198506703Y-169245126D01*
X198526915Y-169252358D01*
X198546321Y-169261537D01*
X198564734Y-169272573D01*
X198581977Y-169285361D01*
X198597883Y-169299777D01*
X198612299Y-169315683D01*
X198625087Y-169332926D01*
X198636123Y-169351339D01*
X198645302Y-169370745D01*
X198652534Y-169390957D01*
X198657750Y-169411781D01*
X198660900Y-169433016D01*
X198661953Y-169454457D01*
X198661953Y-169966957D01*
X198660900Y-169988398D01*
X198657750Y-170009633D01*
X198652534Y-170030457D01*
X198645302Y-170050669D01*
X198636123Y-170070075D01*
X198625087Y-170088488D01*
X198612299Y-170105731D01*
X198597883Y-170121637D01*
X198581977Y-170136053D01*
X198564734Y-170148841D01*
X198546321Y-170159877D01*
X198526915Y-170169056D01*
X198506703Y-170176288D01*
X198485879Y-170181504D01*
X198464644Y-170184654D01*
X198443203Y-170185707D01*
X198005703Y-170185707D01*
X197984262Y-170184654D01*
X197963027Y-170181504D01*
X197942203Y-170176288D01*
X197921991Y-170169056D01*
X197902585Y-170159877D01*
X197884172Y-170148841D01*
X197866929Y-170136053D01*
X197851023Y-170121637D01*
X197836607Y-170105731D01*
X197823819Y-170088488D01*
X197812783Y-170070075D01*
X197803604Y-170050669D01*
X197796372Y-170030457D01*
X197791156Y-170009633D01*
X197788006Y-169988398D01*
X197786953Y-169966957D01*
X197786953Y-169454457D01*
X197788006Y-169433016D01*
X197791156Y-169411781D01*
X197796372Y-169390957D01*
X197803604Y-169370745D01*
X197812783Y-169351339D01*
X197823819Y-169332926D01*
X197836607Y-169315683D01*
X197851023Y-169299777D01*
X197866929Y-169285361D01*
X197884172Y-169272573D01*
X197902585Y-169261537D01*
X197921991Y-169252358D01*
X197942203Y-169245126D01*
X197963027Y-169239910D01*
X197984262Y-169236760D01*
X198005703Y-169235707D01*
X198443203Y-169235707D01*
X198464644Y-169236760D01*
X198464644Y-169236760D01*
G37*
D13*
X198224453Y-169710707D03*
G04 #@! TD*
D12*
G04 #@! TO.C,C14*
G36*
X194977144Y-170436760D02*
X194998379Y-170439910D01*
X195019203Y-170445126D01*
X195039415Y-170452358D01*
X195058821Y-170461537D01*
X195077234Y-170472573D01*
X195094477Y-170485361D01*
X195110383Y-170499777D01*
X195124799Y-170515683D01*
X195137587Y-170532926D01*
X195148623Y-170551339D01*
X195157802Y-170570745D01*
X195165034Y-170590957D01*
X195170250Y-170611781D01*
X195173400Y-170633016D01*
X195174453Y-170654457D01*
X195174453Y-171166957D01*
X195173400Y-171188398D01*
X195170250Y-171209633D01*
X195165034Y-171230457D01*
X195157802Y-171250669D01*
X195148623Y-171270075D01*
X195137587Y-171288488D01*
X195124799Y-171305731D01*
X195110383Y-171321637D01*
X195094477Y-171336053D01*
X195077234Y-171348841D01*
X195058821Y-171359877D01*
X195039415Y-171369056D01*
X195019203Y-171376288D01*
X194998379Y-171381504D01*
X194977144Y-171384654D01*
X194955703Y-171385707D01*
X194518203Y-171385707D01*
X194496762Y-171384654D01*
X194475527Y-171381504D01*
X194454703Y-171376288D01*
X194434491Y-171369056D01*
X194415085Y-171359877D01*
X194396672Y-171348841D01*
X194379429Y-171336053D01*
X194363523Y-171321637D01*
X194349107Y-171305731D01*
X194336319Y-171288488D01*
X194325283Y-171270075D01*
X194316104Y-171250669D01*
X194308872Y-171230457D01*
X194303656Y-171209633D01*
X194300506Y-171188398D01*
X194299453Y-171166957D01*
X194299453Y-170654457D01*
X194300506Y-170633016D01*
X194303656Y-170611781D01*
X194308872Y-170590957D01*
X194316104Y-170570745D01*
X194325283Y-170551339D01*
X194336319Y-170532926D01*
X194349107Y-170515683D01*
X194363523Y-170499777D01*
X194379429Y-170485361D01*
X194396672Y-170472573D01*
X194415085Y-170461537D01*
X194434491Y-170452358D01*
X194454703Y-170445126D01*
X194475527Y-170439910D01*
X194496762Y-170436760D01*
X194518203Y-170435707D01*
X194955703Y-170435707D01*
X194977144Y-170436760D01*
X194977144Y-170436760D01*
G37*
D13*
X194736953Y-170910707D03*
D12*
G36*
X193402144Y-170436760D02*
X193423379Y-170439910D01*
X193444203Y-170445126D01*
X193464415Y-170452358D01*
X193483821Y-170461537D01*
X193502234Y-170472573D01*
X193519477Y-170485361D01*
X193535383Y-170499777D01*
X193549799Y-170515683D01*
X193562587Y-170532926D01*
X193573623Y-170551339D01*
X193582802Y-170570745D01*
X193590034Y-170590957D01*
X193595250Y-170611781D01*
X193598400Y-170633016D01*
X193599453Y-170654457D01*
X193599453Y-171166957D01*
X193598400Y-171188398D01*
X193595250Y-171209633D01*
X193590034Y-171230457D01*
X193582802Y-171250669D01*
X193573623Y-171270075D01*
X193562587Y-171288488D01*
X193549799Y-171305731D01*
X193535383Y-171321637D01*
X193519477Y-171336053D01*
X193502234Y-171348841D01*
X193483821Y-171359877D01*
X193464415Y-171369056D01*
X193444203Y-171376288D01*
X193423379Y-171381504D01*
X193402144Y-171384654D01*
X193380703Y-171385707D01*
X192943203Y-171385707D01*
X192921762Y-171384654D01*
X192900527Y-171381504D01*
X192879703Y-171376288D01*
X192859491Y-171369056D01*
X192840085Y-171359877D01*
X192821672Y-171348841D01*
X192804429Y-171336053D01*
X192788523Y-171321637D01*
X192774107Y-171305731D01*
X192761319Y-171288488D01*
X192750283Y-171270075D01*
X192741104Y-171250669D01*
X192733872Y-171230457D01*
X192728656Y-171209633D01*
X192725506Y-171188398D01*
X192724453Y-171166957D01*
X192724453Y-170654457D01*
X192725506Y-170633016D01*
X192728656Y-170611781D01*
X192733872Y-170590957D01*
X192741104Y-170570745D01*
X192750283Y-170551339D01*
X192761319Y-170532926D01*
X192774107Y-170515683D01*
X192788523Y-170499777D01*
X192804429Y-170485361D01*
X192821672Y-170472573D01*
X192840085Y-170461537D01*
X192859491Y-170452358D01*
X192879703Y-170445126D01*
X192900527Y-170439910D01*
X192921762Y-170436760D01*
X192943203Y-170435707D01*
X193380703Y-170435707D01*
X193402144Y-170436760D01*
X193402144Y-170436760D01*
G37*
D13*
X193161953Y-170910707D03*
G04 #@! TD*
D12*
G04 #@! TO.C,L3*
G36*
X194424073Y-179389741D02*
X195072492Y-179435083D01*
X195096853Y-179437993D01*
X195120811Y-179443277D01*
X195144135Y-179450884D01*
X195166602Y-179460740D01*
X195187995Y-179472751D01*
X195208107Y-179486801D01*
X195226745Y-179502755D01*
X195243730Y-179520459D01*
X195258897Y-179539742D01*
X195272102Y-179560419D01*
X195283216Y-179582291D01*
X195292133Y-179605147D01*
X195298767Y-179628767D01*
X195303053Y-179652923D01*
X195304951Y-179677384D01*
X195304443Y-179701912D01*
X195241662Y-180599722D01*
X195238752Y-180624083D01*
X195233468Y-180648041D01*
X195225861Y-180671365D01*
X195216005Y-180693832D01*
X195203994Y-180715225D01*
X195189944Y-180735337D01*
X195173990Y-180753975D01*
X195156286Y-180770960D01*
X195137003Y-180786127D01*
X195116326Y-180799332D01*
X195094454Y-180810446D01*
X195071598Y-180819363D01*
X195047978Y-180825997D01*
X195023822Y-180830283D01*
X194999361Y-180832181D01*
X194974833Y-180831673D01*
X194326414Y-180786331D01*
X194302053Y-180783421D01*
X194278095Y-180778137D01*
X194254771Y-180770530D01*
X194232304Y-180760674D01*
X194210911Y-180748663D01*
X194190799Y-180734613D01*
X194172161Y-180718659D01*
X194155176Y-180700955D01*
X194140009Y-180681672D01*
X194126804Y-180660995D01*
X194115690Y-180639123D01*
X194106773Y-180616267D01*
X194100139Y-180592647D01*
X194095853Y-180568491D01*
X194093955Y-180544030D01*
X194094463Y-180519502D01*
X194157244Y-179621692D01*
X194160154Y-179597331D01*
X194165438Y-179573373D01*
X194173045Y-179550049D01*
X194182901Y-179527582D01*
X194194912Y-179506189D01*
X194208962Y-179486077D01*
X194224916Y-179467439D01*
X194242620Y-179450454D01*
X194261903Y-179435287D01*
X194282580Y-179422082D01*
X194304452Y-179410968D01*
X194327308Y-179402051D01*
X194350928Y-179395417D01*
X194375084Y-179391131D01*
X194399545Y-179389233D01*
X194424073Y-179389741D01*
X194424073Y-179389741D01*
G37*
D14*
X194699453Y-180110707D03*
D12*
G36*
X196469079Y-179532741D02*
X197117498Y-179578083D01*
X197141859Y-179580993D01*
X197165817Y-179586277D01*
X197189141Y-179593884D01*
X197211608Y-179603740D01*
X197233001Y-179615751D01*
X197253113Y-179629801D01*
X197271751Y-179645755D01*
X197288736Y-179663459D01*
X197303903Y-179682742D01*
X197317108Y-179703419D01*
X197328222Y-179725291D01*
X197337139Y-179748147D01*
X197343773Y-179771767D01*
X197348059Y-179795923D01*
X197349957Y-179820384D01*
X197349449Y-179844912D01*
X197286668Y-180742722D01*
X197283758Y-180767083D01*
X197278474Y-180791041D01*
X197270867Y-180814365D01*
X197261011Y-180836832D01*
X197249000Y-180858225D01*
X197234950Y-180878337D01*
X197218996Y-180896975D01*
X197201292Y-180913960D01*
X197182009Y-180929127D01*
X197161332Y-180942332D01*
X197139460Y-180953446D01*
X197116604Y-180962363D01*
X197092984Y-180968997D01*
X197068828Y-180973283D01*
X197044367Y-180975181D01*
X197019839Y-180974673D01*
X196371420Y-180929331D01*
X196347059Y-180926421D01*
X196323101Y-180921137D01*
X196299777Y-180913530D01*
X196277310Y-180903674D01*
X196255917Y-180891663D01*
X196235805Y-180877613D01*
X196217167Y-180861659D01*
X196200182Y-180843955D01*
X196185015Y-180824672D01*
X196171810Y-180803995D01*
X196160696Y-180782123D01*
X196151779Y-180759267D01*
X196145145Y-180735647D01*
X196140859Y-180711491D01*
X196138961Y-180687030D01*
X196139469Y-180662502D01*
X196202250Y-179764692D01*
X196205160Y-179740331D01*
X196210444Y-179716373D01*
X196218051Y-179693049D01*
X196227907Y-179670582D01*
X196239918Y-179649189D01*
X196253968Y-179629077D01*
X196269922Y-179610439D01*
X196287626Y-179593454D01*
X196306909Y-179578287D01*
X196327586Y-179565082D01*
X196349458Y-179553968D01*
X196372314Y-179545051D01*
X196395934Y-179538417D01*
X196420090Y-179534131D01*
X196444551Y-179532233D01*
X196469079Y-179532741D01*
X196469079Y-179532741D01*
G37*
D14*
X196744459Y-180253707D03*
G04 #@! TD*
D15*
G04 #@! TO.C,MUX1*
X198354245Y-150102982D03*
D12*
G36*
X197784389Y-149565963D02*
X198174101Y-149340963D01*
X198924101Y-150640001D01*
X198534389Y-150865001D01*
X197784389Y-149565963D01*
X197784389Y-149565963D01*
G37*
D15*
X198917162Y-149777982D03*
D12*
G36*
X198347306Y-149240963D02*
X198737018Y-149015963D01*
X199487018Y-150315001D01*
X199097306Y-150540001D01*
X198347306Y-149240963D01*
X198347306Y-149240963D01*
G37*
D15*
X199480078Y-149452982D03*
D12*
G36*
X198910222Y-148915963D02*
X199299934Y-148690963D01*
X200049934Y-149990001D01*
X199660222Y-150215001D01*
X198910222Y-148915963D01*
X198910222Y-148915963D01*
G37*
D15*
X200042995Y-149127982D03*
D12*
G36*
X199473139Y-148590963D02*
X199862851Y-148365963D01*
X200612851Y-149665001D01*
X200223139Y-149890001D01*
X199473139Y-148590963D01*
X199473139Y-148590963D01*
G37*
D15*
X200605911Y-148802982D03*
D12*
G36*
X200036055Y-148265963D02*
X200425767Y-148040963D01*
X201175767Y-149340001D01*
X200786055Y-149565001D01*
X200036055Y-148265963D01*
X200036055Y-148265963D01*
G37*
D15*
X201168828Y-148477982D03*
D12*
G36*
X200598972Y-147940963D02*
X200988684Y-147715963D01*
X201738684Y-149015001D01*
X201348972Y-149240001D01*
X200598972Y-147940963D01*
X200598972Y-147940963D01*
G37*
D15*
X201731744Y-148152982D03*
D12*
G36*
X201161888Y-147615963D02*
X201551600Y-147390963D01*
X202301600Y-148690001D01*
X201911888Y-148915001D01*
X201161888Y-147615963D01*
X201161888Y-147615963D01*
G37*
D15*
X202294661Y-147827982D03*
D12*
G36*
X201724805Y-147290963D02*
X202114517Y-147065963D01*
X202864517Y-148365001D01*
X202474805Y-148590001D01*
X201724805Y-147290963D01*
X201724805Y-147290963D01*
G37*
D15*
X199344661Y-142718432D03*
D12*
G36*
X198774805Y-142181413D02*
X199164517Y-141956413D01*
X199914517Y-143255451D01*
X199524805Y-143480451D01*
X198774805Y-142181413D01*
X198774805Y-142181413D01*
G37*
D15*
X198781744Y-143043432D03*
D12*
G36*
X198211888Y-142506413D02*
X198601600Y-142281413D01*
X199351600Y-143580451D01*
X198961888Y-143805451D01*
X198211888Y-142506413D01*
X198211888Y-142506413D01*
G37*
D15*
X198218828Y-143368432D03*
D12*
G36*
X197648972Y-142831413D02*
X198038684Y-142606413D01*
X198788684Y-143905451D01*
X198398972Y-144130451D01*
X197648972Y-142831413D01*
X197648972Y-142831413D01*
G37*
D15*
X197655911Y-143693432D03*
D12*
G36*
X197086055Y-143156413D02*
X197475767Y-142931413D01*
X198225767Y-144230451D01*
X197836055Y-144455451D01*
X197086055Y-143156413D01*
X197086055Y-143156413D01*
G37*
D15*
X197092995Y-144018432D03*
D12*
G36*
X196523139Y-143481413D02*
X196912851Y-143256413D01*
X197662851Y-144555451D01*
X197273139Y-144780451D01*
X196523139Y-143481413D01*
X196523139Y-143481413D01*
G37*
D15*
X196530078Y-144343432D03*
D12*
G36*
X195960222Y-143806413D02*
X196349934Y-143581413D01*
X197099934Y-144880451D01*
X196710222Y-145105451D01*
X195960222Y-143806413D01*
X195960222Y-143806413D01*
G37*
D15*
X195967162Y-144668432D03*
D12*
G36*
X195397306Y-144131413D02*
X195787018Y-143906413D01*
X196537018Y-145205451D01*
X196147306Y-145430451D01*
X195397306Y-144131413D01*
X195397306Y-144131413D01*
G37*
D15*
X195404245Y-144993432D03*
D12*
G36*
X194834389Y-144456413D02*
X195224101Y-144231413D01*
X195974101Y-145530451D01*
X195584389Y-145755451D01*
X194834389Y-144456413D01*
X194834389Y-144456413D01*
G37*
G04 #@! TD*
D16*
G04 #@! TO.C,MUX2*
X206399453Y-166485707D03*
X206399453Y-165835707D03*
X206399453Y-165185707D03*
X206399453Y-164535707D03*
X206399453Y-163885707D03*
X206399453Y-163235707D03*
X206399453Y-162585707D03*
X206399453Y-161935707D03*
X200499453Y-161935707D03*
X200499453Y-162585707D03*
X200499453Y-163235707D03*
X200499453Y-163885707D03*
X200499453Y-164535707D03*
X200499453Y-165185707D03*
X200499453Y-165835707D03*
X200499453Y-166485707D03*
G04 #@! TD*
D17*
G04 #@! TO.C,MUX3*
X208474453Y-176110707D03*
X209124453Y-176110707D03*
X209774453Y-176110707D03*
X210424453Y-176110707D03*
X211074453Y-176110707D03*
X211724453Y-176110707D03*
X212374453Y-176110707D03*
X213024453Y-176110707D03*
X213024453Y-170210707D03*
X212374453Y-170210707D03*
X211724453Y-170210707D03*
X211074453Y-170210707D03*
X210424453Y-170210707D03*
X209774453Y-170210707D03*
X209124453Y-170210707D03*
X208474453Y-170210707D03*
G04 #@! TD*
D15*
G04 #@! TO.C,MUX4*
X212446213Y-189466710D03*
D12*
G36*
X212401129Y-190248434D02*
X211978267Y-190094525D01*
X212491297Y-188684986D01*
X212914159Y-188838895D01*
X212401129Y-190248434D01*
X212401129Y-190248434D01*
G37*
D15*
X211835413Y-189244397D03*
D12*
G36*
X211790329Y-190026121D02*
X211367467Y-189872212D01*
X211880497Y-188462673D01*
X212303359Y-188616582D01*
X211790329Y-190026121D01*
X211790329Y-190026121D01*
G37*
D15*
X211224613Y-189022083D03*
D12*
G36*
X211179529Y-189803807D02*
X210756667Y-189649898D01*
X211269697Y-188240359D01*
X211692559Y-188394268D01*
X211179529Y-189803807D01*
X211179529Y-189803807D01*
G37*
D15*
X210613813Y-188799770D03*
D12*
G36*
X210568729Y-189581494D02*
X210145867Y-189427585D01*
X210658897Y-188018046D01*
X211081759Y-188171955D01*
X210568729Y-189581494D01*
X210568729Y-189581494D01*
G37*
D15*
X210003012Y-188577457D03*
D12*
G36*
X209957928Y-189359181D02*
X209535066Y-189205272D01*
X210048096Y-187795733D01*
X210470958Y-187949642D01*
X209957928Y-189359181D01*
X209957928Y-189359181D01*
G37*
D15*
X209392212Y-188355144D03*
D12*
G36*
X209347128Y-189136868D02*
X208924266Y-188982959D01*
X209437296Y-187573420D01*
X209860158Y-187727329D01*
X209347128Y-189136868D01*
X209347128Y-189136868D01*
G37*
D15*
X208781412Y-188132831D03*
D12*
G36*
X208736328Y-188914555D02*
X208313466Y-188760646D01*
X208826496Y-187351107D01*
X209249358Y-187505016D01*
X208736328Y-188914555D01*
X208736328Y-188914555D01*
G37*
D15*
X208170612Y-187910518D03*
D12*
G36*
X208125528Y-188692242D02*
X207702666Y-188538333D01*
X208215696Y-187128794D01*
X208638558Y-187282703D01*
X208125528Y-188692242D01*
X208125528Y-188692242D01*
G37*
D15*
X206152693Y-193454704D03*
D12*
G36*
X206107609Y-194236428D02*
X205684747Y-194082519D01*
X206197777Y-192672980D01*
X206620639Y-192826889D01*
X206107609Y-194236428D01*
X206107609Y-194236428D01*
G37*
D15*
X206763493Y-193677017D03*
D12*
G36*
X206718409Y-194458741D02*
X206295547Y-194304832D01*
X206808577Y-192895293D01*
X207231439Y-193049202D01*
X206718409Y-194458741D01*
X206718409Y-194458741D01*
G37*
D15*
X207374293Y-193899331D03*
D12*
G36*
X207329209Y-194681055D02*
X206906347Y-194527146D01*
X207419377Y-193117607D01*
X207842239Y-193271516D01*
X207329209Y-194681055D01*
X207329209Y-194681055D01*
G37*
D15*
X207985093Y-194121644D03*
D12*
G36*
X207940009Y-194903368D02*
X207517147Y-194749459D01*
X208030177Y-193339920D01*
X208453039Y-193493829D01*
X207940009Y-194903368D01*
X207940009Y-194903368D01*
G37*
D15*
X208595894Y-194343957D03*
D12*
G36*
X208550810Y-195125681D02*
X208127948Y-194971772D01*
X208640978Y-193562233D01*
X209063840Y-193716142D01*
X208550810Y-195125681D01*
X208550810Y-195125681D01*
G37*
D15*
X209206694Y-194566270D03*
D12*
G36*
X209161610Y-195347994D02*
X208738748Y-195194085D01*
X209251778Y-193784546D01*
X209674640Y-193938455D01*
X209161610Y-195347994D01*
X209161610Y-195347994D01*
G37*
D15*
X209817494Y-194788583D03*
D12*
G36*
X209772410Y-195570307D02*
X209349548Y-195416398D01*
X209862578Y-194006859D01*
X210285440Y-194160768D01*
X209772410Y-195570307D01*
X209772410Y-195570307D01*
G37*
D15*
X210428294Y-195010896D03*
D12*
G36*
X210383210Y-195792620D02*
X209960348Y-195638711D01*
X210473378Y-194229172D01*
X210896240Y-194383081D01*
X210383210Y-195792620D01*
X210383210Y-195792620D01*
G37*
G04 #@! TD*
D18*
G04 #@! TO.C,Q2*
X189649453Y-165310707D03*
X188699453Y-167310707D03*
X190599453Y-167310707D03*
G04 #@! TD*
D12*
G04 #@! TO.C,R1*
G36*
X199683952Y-189860538D02*
X200120386Y-189891056D01*
X200141702Y-189893602D01*
X200162665Y-189898226D01*
X200183074Y-189904882D01*
X200202733Y-189913506D01*
X200221451Y-189924016D01*
X200239049Y-189936310D01*
X200255358Y-189950269D01*
X200270220Y-189965760D01*
X200283491Y-189982633D01*
X200295045Y-190000725D01*
X200304770Y-190019863D01*
X200312573Y-190039862D01*
X200318377Y-190060530D01*
X200322128Y-190081667D01*
X200323789Y-190103070D01*
X200323344Y-190124532D01*
X200287594Y-190635784D01*
X200285048Y-190657100D01*
X200280424Y-190678063D01*
X200273768Y-190698472D01*
X200265144Y-190718131D01*
X200254634Y-190736849D01*
X200242340Y-190754447D01*
X200228381Y-190770756D01*
X200212890Y-190785618D01*
X200196017Y-190798889D01*
X200177924Y-190810443D01*
X200158786Y-190820168D01*
X200138787Y-190827971D01*
X200118120Y-190833775D01*
X200096983Y-190837526D01*
X200075580Y-190839187D01*
X200054118Y-190838742D01*
X199617684Y-190808224D01*
X199596368Y-190805678D01*
X199575405Y-190801054D01*
X199554996Y-190794398D01*
X199535337Y-190785774D01*
X199516619Y-190775264D01*
X199499021Y-190762970D01*
X199482712Y-190749011D01*
X199467850Y-190733520D01*
X199454579Y-190716647D01*
X199443025Y-190698555D01*
X199433300Y-190679417D01*
X199425497Y-190659418D01*
X199419693Y-190638750D01*
X199415942Y-190617613D01*
X199414281Y-190596210D01*
X199414726Y-190574748D01*
X199450476Y-190063496D01*
X199453022Y-190042180D01*
X199457646Y-190021217D01*
X199464302Y-190000808D01*
X199472926Y-189981149D01*
X199483436Y-189962431D01*
X199495730Y-189944833D01*
X199509689Y-189928524D01*
X199525180Y-189913662D01*
X199542053Y-189900391D01*
X199560146Y-189888837D01*
X199579284Y-189879112D01*
X199599283Y-189871309D01*
X199619950Y-189865505D01*
X199641087Y-189861754D01*
X199662490Y-189860093D01*
X199683952Y-189860538D01*
X199683952Y-189860538D01*
G37*
D13*
X199869035Y-190349640D03*
D12*
G36*
X198112788Y-189750672D02*
X198549222Y-189781190D01*
X198570538Y-189783736D01*
X198591501Y-189788360D01*
X198611910Y-189795016D01*
X198631569Y-189803640D01*
X198650287Y-189814150D01*
X198667885Y-189826444D01*
X198684194Y-189840403D01*
X198699056Y-189855894D01*
X198712327Y-189872767D01*
X198723881Y-189890859D01*
X198733606Y-189909997D01*
X198741409Y-189929996D01*
X198747213Y-189950664D01*
X198750964Y-189971801D01*
X198752625Y-189993204D01*
X198752180Y-190014666D01*
X198716430Y-190525918D01*
X198713884Y-190547234D01*
X198709260Y-190568197D01*
X198702604Y-190588606D01*
X198693980Y-190608265D01*
X198683470Y-190626983D01*
X198671176Y-190644581D01*
X198657217Y-190660890D01*
X198641726Y-190675752D01*
X198624853Y-190689023D01*
X198606760Y-190700577D01*
X198587622Y-190710302D01*
X198567623Y-190718105D01*
X198546956Y-190723909D01*
X198525819Y-190727660D01*
X198504416Y-190729321D01*
X198482954Y-190728876D01*
X198046520Y-190698358D01*
X198025204Y-190695812D01*
X198004241Y-190691188D01*
X197983832Y-190684532D01*
X197964173Y-190675908D01*
X197945455Y-190665398D01*
X197927857Y-190653104D01*
X197911548Y-190639145D01*
X197896686Y-190623654D01*
X197883415Y-190606781D01*
X197871861Y-190588689D01*
X197862136Y-190569551D01*
X197854333Y-190549552D01*
X197848529Y-190528884D01*
X197844778Y-190507747D01*
X197843117Y-190486344D01*
X197843562Y-190464882D01*
X197879312Y-189953630D01*
X197881858Y-189932314D01*
X197886482Y-189911351D01*
X197893138Y-189890942D01*
X197901762Y-189871283D01*
X197912272Y-189852565D01*
X197924566Y-189834967D01*
X197938525Y-189818658D01*
X197954016Y-189803796D01*
X197970889Y-189790525D01*
X197988982Y-189778971D01*
X198008120Y-189769246D01*
X198028119Y-189761443D01*
X198048786Y-189755639D01*
X198069923Y-189751888D01*
X198091326Y-189750227D01*
X198112788Y-189750672D01*
X198112788Y-189750672D01*
G37*
D13*
X198297871Y-190239774D03*
G04 #@! TD*
D12*
G04 #@! TO.C,R2*
G36*
X195064644Y-161136760D02*
X195085879Y-161139910D01*
X195106703Y-161145126D01*
X195126915Y-161152358D01*
X195146321Y-161161537D01*
X195164734Y-161172573D01*
X195181977Y-161185361D01*
X195197883Y-161199777D01*
X195212299Y-161215683D01*
X195225087Y-161232926D01*
X195236123Y-161251339D01*
X195245302Y-161270745D01*
X195252534Y-161290957D01*
X195257750Y-161311781D01*
X195260900Y-161333016D01*
X195261953Y-161354457D01*
X195261953Y-161866957D01*
X195260900Y-161888398D01*
X195257750Y-161909633D01*
X195252534Y-161930457D01*
X195245302Y-161950669D01*
X195236123Y-161970075D01*
X195225087Y-161988488D01*
X195212299Y-162005731D01*
X195197883Y-162021637D01*
X195181977Y-162036053D01*
X195164734Y-162048841D01*
X195146321Y-162059877D01*
X195126915Y-162069056D01*
X195106703Y-162076288D01*
X195085879Y-162081504D01*
X195064644Y-162084654D01*
X195043203Y-162085707D01*
X194605703Y-162085707D01*
X194584262Y-162084654D01*
X194563027Y-162081504D01*
X194542203Y-162076288D01*
X194521991Y-162069056D01*
X194502585Y-162059877D01*
X194484172Y-162048841D01*
X194466929Y-162036053D01*
X194451023Y-162021637D01*
X194436607Y-162005731D01*
X194423819Y-161988488D01*
X194412783Y-161970075D01*
X194403604Y-161950669D01*
X194396372Y-161930457D01*
X194391156Y-161909633D01*
X194388006Y-161888398D01*
X194386953Y-161866957D01*
X194386953Y-161354457D01*
X194388006Y-161333016D01*
X194391156Y-161311781D01*
X194396372Y-161290957D01*
X194403604Y-161270745D01*
X194412783Y-161251339D01*
X194423819Y-161232926D01*
X194436607Y-161215683D01*
X194451023Y-161199777D01*
X194466929Y-161185361D01*
X194484172Y-161172573D01*
X194502585Y-161161537D01*
X194521991Y-161152358D01*
X194542203Y-161145126D01*
X194563027Y-161139910D01*
X194584262Y-161136760D01*
X194605703Y-161135707D01*
X195043203Y-161135707D01*
X195064644Y-161136760D01*
X195064644Y-161136760D01*
G37*
D13*
X194824453Y-161610707D03*
D12*
G36*
X193489644Y-161136760D02*
X193510879Y-161139910D01*
X193531703Y-161145126D01*
X193551915Y-161152358D01*
X193571321Y-161161537D01*
X193589734Y-161172573D01*
X193606977Y-161185361D01*
X193622883Y-161199777D01*
X193637299Y-161215683D01*
X193650087Y-161232926D01*
X193661123Y-161251339D01*
X193670302Y-161270745D01*
X193677534Y-161290957D01*
X193682750Y-161311781D01*
X193685900Y-161333016D01*
X193686953Y-161354457D01*
X193686953Y-161866957D01*
X193685900Y-161888398D01*
X193682750Y-161909633D01*
X193677534Y-161930457D01*
X193670302Y-161950669D01*
X193661123Y-161970075D01*
X193650087Y-161988488D01*
X193637299Y-162005731D01*
X193622883Y-162021637D01*
X193606977Y-162036053D01*
X193589734Y-162048841D01*
X193571321Y-162059877D01*
X193551915Y-162069056D01*
X193531703Y-162076288D01*
X193510879Y-162081504D01*
X193489644Y-162084654D01*
X193468203Y-162085707D01*
X193030703Y-162085707D01*
X193009262Y-162084654D01*
X192988027Y-162081504D01*
X192967203Y-162076288D01*
X192946991Y-162069056D01*
X192927585Y-162059877D01*
X192909172Y-162048841D01*
X192891929Y-162036053D01*
X192876023Y-162021637D01*
X192861607Y-162005731D01*
X192848819Y-161988488D01*
X192837783Y-161970075D01*
X192828604Y-161950669D01*
X192821372Y-161930457D01*
X192816156Y-161909633D01*
X192813006Y-161888398D01*
X192811953Y-161866957D01*
X192811953Y-161354457D01*
X192813006Y-161333016D01*
X192816156Y-161311781D01*
X192821372Y-161290957D01*
X192828604Y-161270745D01*
X192837783Y-161251339D01*
X192848819Y-161232926D01*
X192861607Y-161215683D01*
X192876023Y-161199777D01*
X192891929Y-161185361D01*
X192909172Y-161172573D01*
X192927585Y-161161537D01*
X192946991Y-161152358D01*
X192967203Y-161145126D01*
X192988027Y-161139910D01*
X193009262Y-161136760D01*
X193030703Y-161135707D01*
X193468203Y-161135707D01*
X193489644Y-161136760D01*
X193489644Y-161136760D01*
G37*
D13*
X193249453Y-161610707D03*
G04 #@! TD*
D12*
G04 #@! TO.C,R3*
G36*
X195077144Y-162736760D02*
X195098379Y-162739910D01*
X195119203Y-162745126D01*
X195139415Y-162752358D01*
X195158821Y-162761537D01*
X195177234Y-162772573D01*
X195194477Y-162785361D01*
X195210383Y-162799777D01*
X195224799Y-162815683D01*
X195237587Y-162832926D01*
X195248623Y-162851339D01*
X195257802Y-162870745D01*
X195265034Y-162890957D01*
X195270250Y-162911781D01*
X195273400Y-162933016D01*
X195274453Y-162954457D01*
X195274453Y-163466957D01*
X195273400Y-163488398D01*
X195270250Y-163509633D01*
X195265034Y-163530457D01*
X195257802Y-163550669D01*
X195248623Y-163570075D01*
X195237587Y-163588488D01*
X195224799Y-163605731D01*
X195210383Y-163621637D01*
X195194477Y-163636053D01*
X195177234Y-163648841D01*
X195158821Y-163659877D01*
X195139415Y-163669056D01*
X195119203Y-163676288D01*
X195098379Y-163681504D01*
X195077144Y-163684654D01*
X195055703Y-163685707D01*
X194618203Y-163685707D01*
X194596762Y-163684654D01*
X194575527Y-163681504D01*
X194554703Y-163676288D01*
X194534491Y-163669056D01*
X194515085Y-163659877D01*
X194496672Y-163648841D01*
X194479429Y-163636053D01*
X194463523Y-163621637D01*
X194449107Y-163605731D01*
X194436319Y-163588488D01*
X194425283Y-163570075D01*
X194416104Y-163550669D01*
X194408872Y-163530457D01*
X194403656Y-163509633D01*
X194400506Y-163488398D01*
X194399453Y-163466957D01*
X194399453Y-162954457D01*
X194400506Y-162933016D01*
X194403656Y-162911781D01*
X194408872Y-162890957D01*
X194416104Y-162870745D01*
X194425283Y-162851339D01*
X194436319Y-162832926D01*
X194449107Y-162815683D01*
X194463523Y-162799777D01*
X194479429Y-162785361D01*
X194496672Y-162772573D01*
X194515085Y-162761537D01*
X194534491Y-162752358D01*
X194554703Y-162745126D01*
X194575527Y-162739910D01*
X194596762Y-162736760D01*
X194618203Y-162735707D01*
X195055703Y-162735707D01*
X195077144Y-162736760D01*
X195077144Y-162736760D01*
G37*
D13*
X194836953Y-163210707D03*
D12*
G36*
X193502144Y-162736760D02*
X193523379Y-162739910D01*
X193544203Y-162745126D01*
X193564415Y-162752358D01*
X193583821Y-162761537D01*
X193602234Y-162772573D01*
X193619477Y-162785361D01*
X193635383Y-162799777D01*
X193649799Y-162815683D01*
X193662587Y-162832926D01*
X193673623Y-162851339D01*
X193682802Y-162870745D01*
X193690034Y-162890957D01*
X193695250Y-162911781D01*
X193698400Y-162933016D01*
X193699453Y-162954457D01*
X193699453Y-163466957D01*
X193698400Y-163488398D01*
X193695250Y-163509633D01*
X193690034Y-163530457D01*
X193682802Y-163550669D01*
X193673623Y-163570075D01*
X193662587Y-163588488D01*
X193649799Y-163605731D01*
X193635383Y-163621637D01*
X193619477Y-163636053D01*
X193602234Y-163648841D01*
X193583821Y-163659877D01*
X193564415Y-163669056D01*
X193544203Y-163676288D01*
X193523379Y-163681504D01*
X193502144Y-163684654D01*
X193480703Y-163685707D01*
X193043203Y-163685707D01*
X193021762Y-163684654D01*
X193000527Y-163681504D01*
X192979703Y-163676288D01*
X192959491Y-163669056D01*
X192940085Y-163659877D01*
X192921672Y-163648841D01*
X192904429Y-163636053D01*
X192888523Y-163621637D01*
X192874107Y-163605731D01*
X192861319Y-163588488D01*
X192850283Y-163570075D01*
X192841104Y-163550669D01*
X192833872Y-163530457D01*
X192828656Y-163509633D01*
X192825506Y-163488398D01*
X192824453Y-163466957D01*
X192824453Y-162954457D01*
X192825506Y-162933016D01*
X192828656Y-162911781D01*
X192833872Y-162890957D01*
X192841104Y-162870745D01*
X192850283Y-162851339D01*
X192861319Y-162832926D01*
X192874107Y-162815683D01*
X192888523Y-162799777D01*
X192904429Y-162785361D01*
X192921672Y-162772573D01*
X192940085Y-162761537D01*
X192959491Y-162752358D01*
X192979703Y-162745126D01*
X193000527Y-162739910D01*
X193021762Y-162736760D01*
X193043203Y-162735707D01*
X193480703Y-162735707D01*
X193502144Y-162736760D01*
X193502144Y-162736760D01*
G37*
D13*
X193261953Y-163210707D03*
G04 #@! TD*
D12*
G04 #@! TO.C,R4*
G36*
X190662144Y-181184760D02*
X190683379Y-181187910D01*
X190704203Y-181193126D01*
X190724415Y-181200358D01*
X190743821Y-181209537D01*
X190762234Y-181220573D01*
X190779477Y-181233361D01*
X190795383Y-181247777D01*
X190809799Y-181263683D01*
X190822587Y-181280926D01*
X190833623Y-181299339D01*
X190842802Y-181318745D01*
X190850034Y-181338957D01*
X190855250Y-181359781D01*
X190858400Y-181381016D01*
X190859453Y-181402457D01*
X190859453Y-181914957D01*
X190858400Y-181936398D01*
X190855250Y-181957633D01*
X190850034Y-181978457D01*
X190842802Y-181998669D01*
X190833623Y-182018075D01*
X190822587Y-182036488D01*
X190809799Y-182053731D01*
X190795383Y-182069637D01*
X190779477Y-182084053D01*
X190762234Y-182096841D01*
X190743821Y-182107877D01*
X190724415Y-182117056D01*
X190704203Y-182124288D01*
X190683379Y-182129504D01*
X190662144Y-182132654D01*
X190640703Y-182133707D01*
X190203203Y-182133707D01*
X190181762Y-182132654D01*
X190160527Y-182129504D01*
X190139703Y-182124288D01*
X190119491Y-182117056D01*
X190100085Y-182107877D01*
X190081672Y-182096841D01*
X190064429Y-182084053D01*
X190048523Y-182069637D01*
X190034107Y-182053731D01*
X190021319Y-182036488D01*
X190010283Y-182018075D01*
X190001104Y-181998669D01*
X189993872Y-181978457D01*
X189988656Y-181957633D01*
X189985506Y-181936398D01*
X189984453Y-181914957D01*
X189984453Y-181402457D01*
X189985506Y-181381016D01*
X189988656Y-181359781D01*
X189993872Y-181338957D01*
X190001104Y-181318745D01*
X190010283Y-181299339D01*
X190021319Y-181280926D01*
X190034107Y-181263683D01*
X190048523Y-181247777D01*
X190064429Y-181233361D01*
X190081672Y-181220573D01*
X190100085Y-181209537D01*
X190119491Y-181200358D01*
X190139703Y-181193126D01*
X190160527Y-181187910D01*
X190181762Y-181184760D01*
X190203203Y-181183707D01*
X190640703Y-181183707D01*
X190662144Y-181184760D01*
X190662144Y-181184760D01*
G37*
D13*
X190421953Y-181658707D03*
D12*
G36*
X192237144Y-181184760D02*
X192258379Y-181187910D01*
X192279203Y-181193126D01*
X192299415Y-181200358D01*
X192318821Y-181209537D01*
X192337234Y-181220573D01*
X192354477Y-181233361D01*
X192370383Y-181247777D01*
X192384799Y-181263683D01*
X192397587Y-181280926D01*
X192408623Y-181299339D01*
X192417802Y-181318745D01*
X192425034Y-181338957D01*
X192430250Y-181359781D01*
X192433400Y-181381016D01*
X192434453Y-181402457D01*
X192434453Y-181914957D01*
X192433400Y-181936398D01*
X192430250Y-181957633D01*
X192425034Y-181978457D01*
X192417802Y-181998669D01*
X192408623Y-182018075D01*
X192397587Y-182036488D01*
X192384799Y-182053731D01*
X192370383Y-182069637D01*
X192354477Y-182084053D01*
X192337234Y-182096841D01*
X192318821Y-182107877D01*
X192299415Y-182117056D01*
X192279203Y-182124288D01*
X192258379Y-182129504D01*
X192237144Y-182132654D01*
X192215703Y-182133707D01*
X191778203Y-182133707D01*
X191756762Y-182132654D01*
X191735527Y-182129504D01*
X191714703Y-182124288D01*
X191694491Y-182117056D01*
X191675085Y-182107877D01*
X191656672Y-182096841D01*
X191639429Y-182084053D01*
X191623523Y-182069637D01*
X191609107Y-182053731D01*
X191596319Y-182036488D01*
X191585283Y-182018075D01*
X191576104Y-181998669D01*
X191568872Y-181978457D01*
X191563656Y-181957633D01*
X191560506Y-181936398D01*
X191559453Y-181914957D01*
X191559453Y-181402457D01*
X191560506Y-181381016D01*
X191563656Y-181359781D01*
X191568872Y-181338957D01*
X191576104Y-181318745D01*
X191585283Y-181299339D01*
X191596319Y-181280926D01*
X191609107Y-181263683D01*
X191623523Y-181247777D01*
X191639429Y-181233361D01*
X191656672Y-181220573D01*
X191675085Y-181209537D01*
X191694491Y-181200358D01*
X191714703Y-181193126D01*
X191735527Y-181187910D01*
X191756762Y-181184760D01*
X191778203Y-181183707D01*
X192215703Y-181183707D01*
X192237144Y-181184760D01*
X192237144Y-181184760D01*
G37*
D13*
X191996953Y-181658707D03*
G04 #@! TD*
D12*
G04 #@! TO.C,R5*
G36*
X203079278Y-200370816D02*
X203590530Y-200406566D01*
X203611846Y-200409112D01*
X203632809Y-200413736D01*
X203653218Y-200420392D01*
X203672877Y-200429016D01*
X203691595Y-200439526D01*
X203709193Y-200451820D01*
X203725502Y-200465779D01*
X203740364Y-200481270D01*
X203753635Y-200498143D01*
X203765189Y-200516236D01*
X203774914Y-200535374D01*
X203782717Y-200555373D01*
X203788521Y-200576040D01*
X203792272Y-200597177D01*
X203793933Y-200618580D01*
X203793488Y-200640042D01*
X203762970Y-201076476D01*
X203760424Y-201097792D01*
X203755800Y-201118755D01*
X203749144Y-201139164D01*
X203740520Y-201158823D01*
X203730010Y-201177541D01*
X203717716Y-201195139D01*
X203703757Y-201211448D01*
X203688266Y-201226310D01*
X203671393Y-201239581D01*
X203653301Y-201251135D01*
X203634163Y-201260860D01*
X203614164Y-201268663D01*
X203593496Y-201274467D01*
X203572359Y-201278218D01*
X203550956Y-201279879D01*
X203529494Y-201279434D01*
X203018242Y-201243684D01*
X202996926Y-201241138D01*
X202975963Y-201236514D01*
X202955554Y-201229858D01*
X202935895Y-201221234D01*
X202917177Y-201210724D01*
X202899579Y-201198430D01*
X202883270Y-201184471D01*
X202868408Y-201168980D01*
X202855137Y-201152107D01*
X202843583Y-201134014D01*
X202833858Y-201114876D01*
X202826055Y-201094877D01*
X202820251Y-201074210D01*
X202816500Y-201053073D01*
X202814839Y-201031670D01*
X202815284Y-201010208D01*
X202845802Y-200573774D01*
X202848348Y-200552458D01*
X202852972Y-200531495D01*
X202859628Y-200511086D01*
X202868252Y-200491427D01*
X202878762Y-200472709D01*
X202891056Y-200455111D01*
X202905015Y-200438802D01*
X202920506Y-200423940D01*
X202937379Y-200410669D01*
X202955471Y-200399115D01*
X202974609Y-200389390D01*
X202994608Y-200381587D01*
X203015276Y-200375783D01*
X203036413Y-200372032D01*
X203057816Y-200370371D01*
X203079278Y-200370816D01*
X203079278Y-200370816D01*
G37*
D13*
X203304386Y-200825125D03*
D12*
G36*
X202969412Y-201941980D02*
X203480664Y-201977730D01*
X203501980Y-201980276D01*
X203522943Y-201984900D01*
X203543352Y-201991556D01*
X203563011Y-202000180D01*
X203581729Y-202010690D01*
X203599327Y-202022984D01*
X203615636Y-202036943D01*
X203630498Y-202052434D01*
X203643769Y-202069307D01*
X203655323Y-202087400D01*
X203665048Y-202106538D01*
X203672851Y-202126537D01*
X203678655Y-202147204D01*
X203682406Y-202168341D01*
X203684067Y-202189744D01*
X203683622Y-202211206D01*
X203653104Y-202647640D01*
X203650558Y-202668956D01*
X203645934Y-202689919D01*
X203639278Y-202710328D01*
X203630654Y-202729987D01*
X203620144Y-202748705D01*
X203607850Y-202766303D01*
X203593891Y-202782612D01*
X203578400Y-202797474D01*
X203561527Y-202810745D01*
X203543435Y-202822299D01*
X203524297Y-202832024D01*
X203504298Y-202839827D01*
X203483630Y-202845631D01*
X203462493Y-202849382D01*
X203441090Y-202851043D01*
X203419628Y-202850598D01*
X202908376Y-202814848D01*
X202887060Y-202812302D01*
X202866097Y-202807678D01*
X202845688Y-202801022D01*
X202826029Y-202792398D01*
X202807311Y-202781888D01*
X202789713Y-202769594D01*
X202773404Y-202755635D01*
X202758542Y-202740144D01*
X202745271Y-202723271D01*
X202733717Y-202705178D01*
X202723992Y-202686040D01*
X202716189Y-202666041D01*
X202710385Y-202645374D01*
X202706634Y-202624237D01*
X202704973Y-202602834D01*
X202705418Y-202581372D01*
X202735936Y-202144938D01*
X202738482Y-202123622D01*
X202743106Y-202102659D01*
X202749762Y-202082250D01*
X202758386Y-202062591D01*
X202768896Y-202043873D01*
X202781190Y-202026275D01*
X202795149Y-202009966D01*
X202810640Y-201995104D01*
X202827513Y-201981833D01*
X202845605Y-201970279D01*
X202864743Y-201960554D01*
X202884742Y-201952751D01*
X202905410Y-201946947D01*
X202926547Y-201943196D01*
X202947950Y-201941535D01*
X202969412Y-201941980D01*
X202969412Y-201941980D01*
G37*
D13*
X203194520Y-202396289D03*
G04 #@! TD*
D12*
G04 #@! TO.C,R6*
G36*
X196664644Y-176036760D02*
X196685879Y-176039910D01*
X196706703Y-176045126D01*
X196726915Y-176052358D01*
X196746321Y-176061537D01*
X196764734Y-176072573D01*
X196781977Y-176085361D01*
X196797883Y-176099777D01*
X196812299Y-176115683D01*
X196825087Y-176132926D01*
X196836123Y-176151339D01*
X196845302Y-176170745D01*
X196852534Y-176190957D01*
X196857750Y-176211781D01*
X196860900Y-176233016D01*
X196861953Y-176254457D01*
X196861953Y-176766957D01*
X196860900Y-176788398D01*
X196857750Y-176809633D01*
X196852534Y-176830457D01*
X196845302Y-176850669D01*
X196836123Y-176870075D01*
X196825087Y-176888488D01*
X196812299Y-176905731D01*
X196797883Y-176921637D01*
X196781977Y-176936053D01*
X196764734Y-176948841D01*
X196746321Y-176959877D01*
X196726915Y-176969056D01*
X196706703Y-176976288D01*
X196685879Y-176981504D01*
X196664644Y-176984654D01*
X196643203Y-176985707D01*
X196205703Y-176985707D01*
X196184262Y-176984654D01*
X196163027Y-176981504D01*
X196142203Y-176976288D01*
X196121991Y-176969056D01*
X196102585Y-176959877D01*
X196084172Y-176948841D01*
X196066929Y-176936053D01*
X196051023Y-176921637D01*
X196036607Y-176905731D01*
X196023819Y-176888488D01*
X196012783Y-176870075D01*
X196003604Y-176850669D01*
X195996372Y-176830457D01*
X195991156Y-176809633D01*
X195988006Y-176788398D01*
X195986953Y-176766957D01*
X195986953Y-176254457D01*
X195988006Y-176233016D01*
X195991156Y-176211781D01*
X195996372Y-176190957D01*
X196003604Y-176170745D01*
X196012783Y-176151339D01*
X196023819Y-176132926D01*
X196036607Y-176115683D01*
X196051023Y-176099777D01*
X196066929Y-176085361D01*
X196084172Y-176072573D01*
X196102585Y-176061537D01*
X196121991Y-176052358D01*
X196142203Y-176045126D01*
X196163027Y-176039910D01*
X196184262Y-176036760D01*
X196205703Y-176035707D01*
X196643203Y-176035707D01*
X196664644Y-176036760D01*
X196664644Y-176036760D01*
G37*
D13*
X196424453Y-176510707D03*
D12*
G36*
X195089644Y-176036760D02*
X195110879Y-176039910D01*
X195131703Y-176045126D01*
X195151915Y-176052358D01*
X195171321Y-176061537D01*
X195189734Y-176072573D01*
X195206977Y-176085361D01*
X195222883Y-176099777D01*
X195237299Y-176115683D01*
X195250087Y-176132926D01*
X195261123Y-176151339D01*
X195270302Y-176170745D01*
X195277534Y-176190957D01*
X195282750Y-176211781D01*
X195285900Y-176233016D01*
X195286953Y-176254457D01*
X195286953Y-176766957D01*
X195285900Y-176788398D01*
X195282750Y-176809633D01*
X195277534Y-176830457D01*
X195270302Y-176850669D01*
X195261123Y-176870075D01*
X195250087Y-176888488D01*
X195237299Y-176905731D01*
X195222883Y-176921637D01*
X195206977Y-176936053D01*
X195189734Y-176948841D01*
X195171321Y-176959877D01*
X195151915Y-176969056D01*
X195131703Y-176976288D01*
X195110879Y-176981504D01*
X195089644Y-176984654D01*
X195068203Y-176985707D01*
X194630703Y-176985707D01*
X194609262Y-176984654D01*
X194588027Y-176981504D01*
X194567203Y-176976288D01*
X194546991Y-176969056D01*
X194527585Y-176959877D01*
X194509172Y-176948841D01*
X194491929Y-176936053D01*
X194476023Y-176921637D01*
X194461607Y-176905731D01*
X194448819Y-176888488D01*
X194437783Y-176870075D01*
X194428604Y-176850669D01*
X194421372Y-176830457D01*
X194416156Y-176809633D01*
X194413006Y-176788398D01*
X194411953Y-176766957D01*
X194411953Y-176254457D01*
X194413006Y-176233016D01*
X194416156Y-176211781D01*
X194421372Y-176190957D01*
X194428604Y-176170745D01*
X194437783Y-176151339D01*
X194448819Y-176132926D01*
X194461607Y-176115683D01*
X194476023Y-176099777D01*
X194491929Y-176085361D01*
X194509172Y-176072573D01*
X194527585Y-176061537D01*
X194546991Y-176052358D01*
X194567203Y-176045126D01*
X194588027Y-176039910D01*
X194609262Y-176036760D01*
X194630703Y-176035707D01*
X195068203Y-176035707D01*
X195089644Y-176036760D01*
X195089644Y-176036760D01*
G37*
D13*
X194849453Y-176510707D03*
G04 #@! TD*
D12*
G04 #@! TO.C,R7*
G36*
X204577144Y-159586760D02*
X204598379Y-159589910D01*
X204619203Y-159595126D01*
X204639415Y-159602358D01*
X204658821Y-159611537D01*
X204677234Y-159622573D01*
X204694477Y-159635361D01*
X204710383Y-159649777D01*
X204724799Y-159665683D01*
X204737587Y-159682926D01*
X204748623Y-159701339D01*
X204757802Y-159720745D01*
X204765034Y-159740957D01*
X204770250Y-159761781D01*
X204773400Y-159783016D01*
X204774453Y-159804457D01*
X204774453Y-160316957D01*
X204773400Y-160338398D01*
X204770250Y-160359633D01*
X204765034Y-160380457D01*
X204757802Y-160400669D01*
X204748623Y-160420075D01*
X204737587Y-160438488D01*
X204724799Y-160455731D01*
X204710383Y-160471637D01*
X204694477Y-160486053D01*
X204677234Y-160498841D01*
X204658821Y-160509877D01*
X204639415Y-160519056D01*
X204619203Y-160526288D01*
X204598379Y-160531504D01*
X204577144Y-160534654D01*
X204555703Y-160535707D01*
X204118203Y-160535707D01*
X204096762Y-160534654D01*
X204075527Y-160531504D01*
X204054703Y-160526288D01*
X204034491Y-160519056D01*
X204015085Y-160509877D01*
X203996672Y-160498841D01*
X203979429Y-160486053D01*
X203963523Y-160471637D01*
X203949107Y-160455731D01*
X203936319Y-160438488D01*
X203925283Y-160420075D01*
X203916104Y-160400669D01*
X203908872Y-160380457D01*
X203903656Y-160359633D01*
X203900506Y-160338398D01*
X203899453Y-160316957D01*
X203899453Y-159804457D01*
X203900506Y-159783016D01*
X203903656Y-159761781D01*
X203908872Y-159740957D01*
X203916104Y-159720745D01*
X203925283Y-159701339D01*
X203936319Y-159682926D01*
X203949107Y-159665683D01*
X203963523Y-159649777D01*
X203979429Y-159635361D01*
X203996672Y-159622573D01*
X204015085Y-159611537D01*
X204034491Y-159602358D01*
X204054703Y-159595126D01*
X204075527Y-159589910D01*
X204096762Y-159586760D01*
X204118203Y-159585707D01*
X204555703Y-159585707D01*
X204577144Y-159586760D01*
X204577144Y-159586760D01*
G37*
D13*
X204336953Y-160060707D03*
D12*
G36*
X203002144Y-159586760D02*
X203023379Y-159589910D01*
X203044203Y-159595126D01*
X203064415Y-159602358D01*
X203083821Y-159611537D01*
X203102234Y-159622573D01*
X203119477Y-159635361D01*
X203135383Y-159649777D01*
X203149799Y-159665683D01*
X203162587Y-159682926D01*
X203173623Y-159701339D01*
X203182802Y-159720745D01*
X203190034Y-159740957D01*
X203195250Y-159761781D01*
X203198400Y-159783016D01*
X203199453Y-159804457D01*
X203199453Y-160316957D01*
X203198400Y-160338398D01*
X203195250Y-160359633D01*
X203190034Y-160380457D01*
X203182802Y-160400669D01*
X203173623Y-160420075D01*
X203162587Y-160438488D01*
X203149799Y-160455731D01*
X203135383Y-160471637D01*
X203119477Y-160486053D01*
X203102234Y-160498841D01*
X203083821Y-160509877D01*
X203064415Y-160519056D01*
X203044203Y-160526288D01*
X203023379Y-160531504D01*
X203002144Y-160534654D01*
X202980703Y-160535707D01*
X202543203Y-160535707D01*
X202521762Y-160534654D01*
X202500527Y-160531504D01*
X202479703Y-160526288D01*
X202459491Y-160519056D01*
X202440085Y-160509877D01*
X202421672Y-160498841D01*
X202404429Y-160486053D01*
X202388523Y-160471637D01*
X202374107Y-160455731D01*
X202361319Y-160438488D01*
X202350283Y-160420075D01*
X202341104Y-160400669D01*
X202333872Y-160380457D01*
X202328656Y-160359633D01*
X202325506Y-160338398D01*
X202324453Y-160316957D01*
X202324453Y-159804457D01*
X202325506Y-159783016D01*
X202328656Y-159761781D01*
X202333872Y-159740957D01*
X202341104Y-159720745D01*
X202350283Y-159701339D01*
X202361319Y-159682926D01*
X202374107Y-159665683D01*
X202388523Y-159649777D01*
X202404429Y-159635361D01*
X202421672Y-159622573D01*
X202440085Y-159611537D01*
X202459491Y-159602358D01*
X202479703Y-159595126D01*
X202500527Y-159589910D01*
X202521762Y-159586760D01*
X202543203Y-159585707D01*
X202980703Y-159585707D01*
X203002144Y-159586760D01*
X203002144Y-159586760D01*
G37*
D13*
X202761953Y-160060707D03*
G04 #@! TD*
D12*
G04 #@! TO.C,R8*
G36*
X189427144Y-139074260D02*
X189448379Y-139077410D01*
X189469203Y-139082626D01*
X189489415Y-139089858D01*
X189508821Y-139099037D01*
X189527234Y-139110073D01*
X189544477Y-139122861D01*
X189560383Y-139137277D01*
X189574799Y-139153183D01*
X189587587Y-139170426D01*
X189598623Y-139188839D01*
X189607802Y-139208245D01*
X189615034Y-139228457D01*
X189620250Y-139249281D01*
X189623400Y-139270516D01*
X189624453Y-139291957D01*
X189624453Y-139729457D01*
X189623400Y-139750898D01*
X189620250Y-139772133D01*
X189615034Y-139792957D01*
X189607802Y-139813169D01*
X189598623Y-139832575D01*
X189587587Y-139850988D01*
X189574799Y-139868231D01*
X189560383Y-139884137D01*
X189544477Y-139898553D01*
X189527234Y-139911341D01*
X189508821Y-139922377D01*
X189489415Y-139931556D01*
X189469203Y-139938788D01*
X189448379Y-139944004D01*
X189427144Y-139947154D01*
X189405703Y-139948207D01*
X188893203Y-139948207D01*
X188871762Y-139947154D01*
X188850527Y-139944004D01*
X188829703Y-139938788D01*
X188809491Y-139931556D01*
X188790085Y-139922377D01*
X188771672Y-139911341D01*
X188754429Y-139898553D01*
X188738523Y-139884137D01*
X188724107Y-139868231D01*
X188711319Y-139850988D01*
X188700283Y-139832575D01*
X188691104Y-139813169D01*
X188683872Y-139792957D01*
X188678656Y-139772133D01*
X188675506Y-139750898D01*
X188674453Y-139729457D01*
X188674453Y-139291957D01*
X188675506Y-139270516D01*
X188678656Y-139249281D01*
X188683872Y-139228457D01*
X188691104Y-139208245D01*
X188700283Y-139188839D01*
X188711319Y-139170426D01*
X188724107Y-139153183D01*
X188738523Y-139137277D01*
X188754429Y-139122861D01*
X188771672Y-139110073D01*
X188790085Y-139099037D01*
X188809491Y-139089858D01*
X188829703Y-139082626D01*
X188850527Y-139077410D01*
X188871762Y-139074260D01*
X188893203Y-139073207D01*
X189405703Y-139073207D01*
X189427144Y-139074260D01*
X189427144Y-139074260D01*
G37*
D13*
X189149453Y-139510707D03*
D12*
G36*
X189427144Y-140649260D02*
X189448379Y-140652410D01*
X189469203Y-140657626D01*
X189489415Y-140664858D01*
X189508821Y-140674037D01*
X189527234Y-140685073D01*
X189544477Y-140697861D01*
X189560383Y-140712277D01*
X189574799Y-140728183D01*
X189587587Y-140745426D01*
X189598623Y-140763839D01*
X189607802Y-140783245D01*
X189615034Y-140803457D01*
X189620250Y-140824281D01*
X189623400Y-140845516D01*
X189624453Y-140866957D01*
X189624453Y-141304457D01*
X189623400Y-141325898D01*
X189620250Y-141347133D01*
X189615034Y-141367957D01*
X189607802Y-141388169D01*
X189598623Y-141407575D01*
X189587587Y-141425988D01*
X189574799Y-141443231D01*
X189560383Y-141459137D01*
X189544477Y-141473553D01*
X189527234Y-141486341D01*
X189508821Y-141497377D01*
X189489415Y-141506556D01*
X189469203Y-141513788D01*
X189448379Y-141519004D01*
X189427144Y-141522154D01*
X189405703Y-141523207D01*
X188893203Y-141523207D01*
X188871762Y-141522154D01*
X188850527Y-141519004D01*
X188829703Y-141513788D01*
X188809491Y-141506556D01*
X188790085Y-141497377D01*
X188771672Y-141486341D01*
X188754429Y-141473553D01*
X188738523Y-141459137D01*
X188724107Y-141443231D01*
X188711319Y-141425988D01*
X188700283Y-141407575D01*
X188691104Y-141388169D01*
X188683872Y-141367957D01*
X188678656Y-141347133D01*
X188675506Y-141325898D01*
X188674453Y-141304457D01*
X188674453Y-140866957D01*
X188675506Y-140845516D01*
X188678656Y-140824281D01*
X188683872Y-140803457D01*
X188691104Y-140783245D01*
X188700283Y-140763839D01*
X188711319Y-140745426D01*
X188724107Y-140728183D01*
X188738523Y-140712277D01*
X188754429Y-140697861D01*
X188771672Y-140685073D01*
X188790085Y-140674037D01*
X188809491Y-140664858D01*
X188829703Y-140657626D01*
X188850527Y-140652410D01*
X188871762Y-140649260D01*
X188893203Y-140648207D01*
X189405703Y-140648207D01*
X189427144Y-140649260D01*
X189427144Y-140649260D01*
G37*
D13*
X189149453Y-141085707D03*
G04 #@! TD*
D12*
G04 #@! TO.C,R9*
G36*
X186427144Y-139086760D02*
X186448379Y-139089910D01*
X186469203Y-139095126D01*
X186489415Y-139102358D01*
X186508821Y-139111537D01*
X186527234Y-139122573D01*
X186544477Y-139135361D01*
X186560383Y-139149777D01*
X186574799Y-139165683D01*
X186587587Y-139182926D01*
X186598623Y-139201339D01*
X186607802Y-139220745D01*
X186615034Y-139240957D01*
X186620250Y-139261781D01*
X186623400Y-139283016D01*
X186624453Y-139304457D01*
X186624453Y-139741957D01*
X186623400Y-139763398D01*
X186620250Y-139784633D01*
X186615034Y-139805457D01*
X186607802Y-139825669D01*
X186598623Y-139845075D01*
X186587587Y-139863488D01*
X186574799Y-139880731D01*
X186560383Y-139896637D01*
X186544477Y-139911053D01*
X186527234Y-139923841D01*
X186508821Y-139934877D01*
X186489415Y-139944056D01*
X186469203Y-139951288D01*
X186448379Y-139956504D01*
X186427144Y-139959654D01*
X186405703Y-139960707D01*
X185893203Y-139960707D01*
X185871762Y-139959654D01*
X185850527Y-139956504D01*
X185829703Y-139951288D01*
X185809491Y-139944056D01*
X185790085Y-139934877D01*
X185771672Y-139923841D01*
X185754429Y-139911053D01*
X185738523Y-139896637D01*
X185724107Y-139880731D01*
X185711319Y-139863488D01*
X185700283Y-139845075D01*
X185691104Y-139825669D01*
X185683872Y-139805457D01*
X185678656Y-139784633D01*
X185675506Y-139763398D01*
X185674453Y-139741957D01*
X185674453Y-139304457D01*
X185675506Y-139283016D01*
X185678656Y-139261781D01*
X185683872Y-139240957D01*
X185691104Y-139220745D01*
X185700283Y-139201339D01*
X185711319Y-139182926D01*
X185724107Y-139165683D01*
X185738523Y-139149777D01*
X185754429Y-139135361D01*
X185771672Y-139122573D01*
X185790085Y-139111537D01*
X185809491Y-139102358D01*
X185829703Y-139095126D01*
X185850527Y-139089910D01*
X185871762Y-139086760D01*
X185893203Y-139085707D01*
X186405703Y-139085707D01*
X186427144Y-139086760D01*
X186427144Y-139086760D01*
G37*
D13*
X186149453Y-139523207D03*
D12*
G36*
X186427144Y-140661760D02*
X186448379Y-140664910D01*
X186469203Y-140670126D01*
X186489415Y-140677358D01*
X186508821Y-140686537D01*
X186527234Y-140697573D01*
X186544477Y-140710361D01*
X186560383Y-140724777D01*
X186574799Y-140740683D01*
X186587587Y-140757926D01*
X186598623Y-140776339D01*
X186607802Y-140795745D01*
X186615034Y-140815957D01*
X186620250Y-140836781D01*
X186623400Y-140858016D01*
X186624453Y-140879457D01*
X186624453Y-141316957D01*
X186623400Y-141338398D01*
X186620250Y-141359633D01*
X186615034Y-141380457D01*
X186607802Y-141400669D01*
X186598623Y-141420075D01*
X186587587Y-141438488D01*
X186574799Y-141455731D01*
X186560383Y-141471637D01*
X186544477Y-141486053D01*
X186527234Y-141498841D01*
X186508821Y-141509877D01*
X186489415Y-141519056D01*
X186469203Y-141526288D01*
X186448379Y-141531504D01*
X186427144Y-141534654D01*
X186405703Y-141535707D01*
X185893203Y-141535707D01*
X185871762Y-141534654D01*
X185850527Y-141531504D01*
X185829703Y-141526288D01*
X185809491Y-141519056D01*
X185790085Y-141509877D01*
X185771672Y-141498841D01*
X185754429Y-141486053D01*
X185738523Y-141471637D01*
X185724107Y-141455731D01*
X185711319Y-141438488D01*
X185700283Y-141420075D01*
X185691104Y-141400669D01*
X185683872Y-141380457D01*
X185678656Y-141359633D01*
X185675506Y-141338398D01*
X185674453Y-141316957D01*
X185674453Y-140879457D01*
X185675506Y-140858016D01*
X185678656Y-140836781D01*
X185683872Y-140815957D01*
X185691104Y-140795745D01*
X185700283Y-140776339D01*
X185711319Y-140757926D01*
X185724107Y-140740683D01*
X185738523Y-140724777D01*
X185754429Y-140710361D01*
X185771672Y-140697573D01*
X185790085Y-140686537D01*
X185809491Y-140677358D01*
X185829703Y-140670126D01*
X185850527Y-140664910D01*
X185871762Y-140661760D01*
X185893203Y-140660707D01*
X186405703Y-140660707D01*
X186427144Y-140661760D01*
X186427144Y-140661760D01*
G37*
D13*
X186149453Y-141098207D03*
G04 #@! TD*
D12*
G04 #@! TO.C,R10*
G36*
X192211644Y-183978760D02*
X192232879Y-183981910D01*
X192253703Y-183987126D01*
X192273915Y-183994358D01*
X192293321Y-184003537D01*
X192311734Y-184014573D01*
X192328977Y-184027361D01*
X192344883Y-184041777D01*
X192359299Y-184057683D01*
X192372087Y-184074926D01*
X192383123Y-184093339D01*
X192392302Y-184112745D01*
X192399534Y-184132957D01*
X192404750Y-184153781D01*
X192407900Y-184175016D01*
X192408953Y-184196457D01*
X192408953Y-184708957D01*
X192407900Y-184730398D01*
X192404750Y-184751633D01*
X192399534Y-184772457D01*
X192392302Y-184792669D01*
X192383123Y-184812075D01*
X192372087Y-184830488D01*
X192359299Y-184847731D01*
X192344883Y-184863637D01*
X192328977Y-184878053D01*
X192311734Y-184890841D01*
X192293321Y-184901877D01*
X192273915Y-184911056D01*
X192253703Y-184918288D01*
X192232879Y-184923504D01*
X192211644Y-184926654D01*
X192190203Y-184927707D01*
X191752703Y-184927707D01*
X191731262Y-184926654D01*
X191710027Y-184923504D01*
X191689203Y-184918288D01*
X191668991Y-184911056D01*
X191649585Y-184901877D01*
X191631172Y-184890841D01*
X191613929Y-184878053D01*
X191598023Y-184863637D01*
X191583607Y-184847731D01*
X191570819Y-184830488D01*
X191559783Y-184812075D01*
X191550604Y-184792669D01*
X191543372Y-184772457D01*
X191538156Y-184751633D01*
X191535006Y-184730398D01*
X191533953Y-184708957D01*
X191533953Y-184196457D01*
X191535006Y-184175016D01*
X191538156Y-184153781D01*
X191543372Y-184132957D01*
X191550604Y-184112745D01*
X191559783Y-184093339D01*
X191570819Y-184074926D01*
X191583607Y-184057683D01*
X191598023Y-184041777D01*
X191613929Y-184027361D01*
X191631172Y-184014573D01*
X191649585Y-184003537D01*
X191668991Y-183994358D01*
X191689203Y-183987126D01*
X191710027Y-183981910D01*
X191731262Y-183978760D01*
X191752703Y-183977707D01*
X192190203Y-183977707D01*
X192211644Y-183978760D01*
X192211644Y-183978760D01*
G37*
D13*
X191971453Y-184452707D03*
D12*
G36*
X190636644Y-183978760D02*
X190657879Y-183981910D01*
X190678703Y-183987126D01*
X190698915Y-183994358D01*
X190718321Y-184003537D01*
X190736734Y-184014573D01*
X190753977Y-184027361D01*
X190769883Y-184041777D01*
X190784299Y-184057683D01*
X190797087Y-184074926D01*
X190808123Y-184093339D01*
X190817302Y-184112745D01*
X190824534Y-184132957D01*
X190829750Y-184153781D01*
X190832900Y-184175016D01*
X190833953Y-184196457D01*
X190833953Y-184708957D01*
X190832900Y-184730398D01*
X190829750Y-184751633D01*
X190824534Y-184772457D01*
X190817302Y-184792669D01*
X190808123Y-184812075D01*
X190797087Y-184830488D01*
X190784299Y-184847731D01*
X190769883Y-184863637D01*
X190753977Y-184878053D01*
X190736734Y-184890841D01*
X190718321Y-184901877D01*
X190698915Y-184911056D01*
X190678703Y-184918288D01*
X190657879Y-184923504D01*
X190636644Y-184926654D01*
X190615203Y-184927707D01*
X190177703Y-184927707D01*
X190156262Y-184926654D01*
X190135027Y-184923504D01*
X190114203Y-184918288D01*
X190093991Y-184911056D01*
X190074585Y-184901877D01*
X190056172Y-184890841D01*
X190038929Y-184878053D01*
X190023023Y-184863637D01*
X190008607Y-184847731D01*
X189995819Y-184830488D01*
X189984783Y-184812075D01*
X189975604Y-184792669D01*
X189968372Y-184772457D01*
X189963156Y-184751633D01*
X189960006Y-184730398D01*
X189958953Y-184708957D01*
X189958953Y-184196457D01*
X189960006Y-184175016D01*
X189963156Y-184153781D01*
X189968372Y-184132957D01*
X189975604Y-184112745D01*
X189984783Y-184093339D01*
X189995819Y-184074926D01*
X190008607Y-184057683D01*
X190023023Y-184041777D01*
X190038929Y-184027361D01*
X190056172Y-184014573D01*
X190074585Y-184003537D01*
X190093991Y-183994358D01*
X190114203Y-183987126D01*
X190135027Y-183981910D01*
X190156262Y-183978760D01*
X190177703Y-183977707D01*
X190615203Y-183977707D01*
X190636644Y-183978760D01*
X190636644Y-183978760D01*
G37*
D13*
X190396453Y-184452707D03*
G04 #@! TD*
D12*
G04 #@! TO.C,R11*
G36*
X188772934Y-195249814D02*
X189208769Y-195287944D01*
X189230037Y-195290862D01*
X189250916Y-195295851D01*
X189271206Y-195302862D01*
X189290711Y-195311828D01*
X189309243Y-195322663D01*
X189326625Y-195335262D01*
X189342687Y-195349504D01*
X189357276Y-195365252D01*
X189370251Y-195382354D01*
X189381488Y-195400645D01*
X189390877Y-195419950D01*
X189398329Y-195440082D01*
X189403772Y-195460848D01*
X189407154Y-195482047D01*
X189408441Y-195503476D01*
X189407622Y-195524927D01*
X189362955Y-196035477D01*
X189360037Y-196056745D01*
X189355048Y-196077624D01*
X189348037Y-196097914D01*
X189339071Y-196117419D01*
X189328236Y-196135952D01*
X189315637Y-196153333D01*
X189301395Y-196169395D01*
X189285647Y-196183984D01*
X189268545Y-196196959D01*
X189250253Y-196208196D01*
X189230949Y-196217585D01*
X189210817Y-196225038D01*
X189190051Y-196230480D01*
X189168852Y-196233862D01*
X189147423Y-196235149D01*
X189125972Y-196234330D01*
X188690137Y-196196200D01*
X188668869Y-196193282D01*
X188647990Y-196188293D01*
X188627700Y-196181282D01*
X188608195Y-196172316D01*
X188589663Y-196161481D01*
X188572281Y-196148882D01*
X188556219Y-196134640D01*
X188541630Y-196118892D01*
X188528655Y-196101790D01*
X188517418Y-196083499D01*
X188508029Y-196064194D01*
X188500577Y-196044062D01*
X188495134Y-196023296D01*
X188491752Y-196002097D01*
X188490465Y-195980668D01*
X188491284Y-195959217D01*
X188535951Y-195448667D01*
X188538869Y-195427399D01*
X188543858Y-195406520D01*
X188550869Y-195386230D01*
X188559835Y-195366725D01*
X188570670Y-195348192D01*
X188583269Y-195330811D01*
X188597511Y-195314749D01*
X188613259Y-195300160D01*
X188630361Y-195287185D01*
X188648653Y-195275948D01*
X188667957Y-195266559D01*
X188688089Y-195259106D01*
X188708855Y-195253664D01*
X188730054Y-195250282D01*
X188751483Y-195248995D01*
X188772934Y-195249814D01*
X188772934Y-195249814D01*
G37*
D13*
X188949453Y-195742072D03*
D12*
G36*
X190341940Y-195387084D02*
X190777775Y-195425214D01*
X190799043Y-195428132D01*
X190819922Y-195433121D01*
X190840212Y-195440132D01*
X190859717Y-195449098D01*
X190878249Y-195459933D01*
X190895631Y-195472532D01*
X190911693Y-195486774D01*
X190926282Y-195502522D01*
X190939257Y-195519624D01*
X190950494Y-195537915D01*
X190959883Y-195557220D01*
X190967335Y-195577352D01*
X190972778Y-195598118D01*
X190976160Y-195619317D01*
X190977447Y-195640746D01*
X190976628Y-195662197D01*
X190931961Y-196172747D01*
X190929043Y-196194015D01*
X190924054Y-196214894D01*
X190917043Y-196235184D01*
X190908077Y-196254689D01*
X190897242Y-196273222D01*
X190884643Y-196290603D01*
X190870401Y-196306665D01*
X190854653Y-196321254D01*
X190837551Y-196334229D01*
X190819259Y-196345466D01*
X190799955Y-196354855D01*
X190779823Y-196362308D01*
X190759057Y-196367750D01*
X190737858Y-196371132D01*
X190716429Y-196372419D01*
X190694978Y-196371600D01*
X190259143Y-196333470D01*
X190237875Y-196330552D01*
X190216996Y-196325563D01*
X190196706Y-196318552D01*
X190177201Y-196309586D01*
X190158669Y-196298751D01*
X190141287Y-196286152D01*
X190125225Y-196271910D01*
X190110636Y-196256162D01*
X190097661Y-196239060D01*
X190086424Y-196220769D01*
X190077035Y-196201464D01*
X190069583Y-196181332D01*
X190064140Y-196160566D01*
X190060758Y-196139367D01*
X190059471Y-196117938D01*
X190060290Y-196096487D01*
X190104957Y-195585937D01*
X190107875Y-195564669D01*
X190112864Y-195543790D01*
X190119875Y-195523500D01*
X190128841Y-195503995D01*
X190139676Y-195485462D01*
X190152275Y-195468081D01*
X190166517Y-195452019D01*
X190182265Y-195437430D01*
X190199367Y-195424455D01*
X190217659Y-195413218D01*
X190236963Y-195403829D01*
X190257095Y-195396376D01*
X190277861Y-195390934D01*
X190299060Y-195387552D01*
X190320489Y-195386265D01*
X190341940Y-195387084D01*
X190341940Y-195387084D01*
G37*
D13*
X190518459Y-195879342D03*
G04 #@! TD*
D12*
G04 #@! TO.C,R12*
G36*
X193427144Y-171974260D02*
X193448379Y-171977410D01*
X193469203Y-171982626D01*
X193489415Y-171989858D01*
X193508821Y-171999037D01*
X193527234Y-172010073D01*
X193544477Y-172022861D01*
X193560383Y-172037277D01*
X193574799Y-172053183D01*
X193587587Y-172070426D01*
X193598623Y-172088839D01*
X193607802Y-172108245D01*
X193615034Y-172128457D01*
X193620250Y-172149281D01*
X193623400Y-172170516D01*
X193624453Y-172191957D01*
X193624453Y-172629457D01*
X193623400Y-172650898D01*
X193620250Y-172672133D01*
X193615034Y-172692957D01*
X193607802Y-172713169D01*
X193598623Y-172732575D01*
X193587587Y-172750988D01*
X193574799Y-172768231D01*
X193560383Y-172784137D01*
X193544477Y-172798553D01*
X193527234Y-172811341D01*
X193508821Y-172822377D01*
X193489415Y-172831556D01*
X193469203Y-172838788D01*
X193448379Y-172844004D01*
X193427144Y-172847154D01*
X193405703Y-172848207D01*
X192893203Y-172848207D01*
X192871762Y-172847154D01*
X192850527Y-172844004D01*
X192829703Y-172838788D01*
X192809491Y-172831556D01*
X192790085Y-172822377D01*
X192771672Y-172811341D01*
X192754429Y-172798553D01*
X192738523Y-172784137D01*
X192724107Y-172768231D01*
X192711319Y-172750988D01*
X192700283Y-172732575D01*
X192691104Y-172713169D01*
X192683872Y-172692957D01*
X192678656Y-172672133D01*
X192675506Y-172650898D01*
X192674453Y-172629457D01*
X192674453Y-172191957D01*
X192675506Y-172170516D01*
X192678656Y-172149281D01*
X192683872Y-172128457D01*
X192691104Y-172108245D01*
X192700283Y-172088839D01*
X192711319Y-172070426D01*
X192724107Y-172053183D01*
X192738523Y-172037277D01*
X192754429Y-172022861D01*
X192771672Y-172010073D01*
X192790085Y-171999037D01*
X192809491Y-171989858D01*
X192829703Y-171982626D01*
X192850527Y-171977410D01*
X192871762Y-171974260D01*
X192893203Y-171973207D01*
X193405703Y-171973207D01*
X193427144Y-171974260D01*
X193427144Y-171974260D01*
G37*
D13*
X193149453Y-172410707D03*
D12*
G36*
X193427144Y-173549260D02*
X193448379Y-173552410D01*
X193469203Y-173557626D01*
X193489415Y-173564858D01*
X193508821Y-173574037D01*
X193527234Y-173585073D01*
X193544477Y-173597861D01*
X193560383Y-173612277D01*
X193574799Y-173628183D01*
X193587587Y-173645426D01*
X193598623Y-173663839D01*
X193607802Y-173683245D01*
X193615034Y-173703457D01*
X193620250Y-173724281D01*
X193623400Y-173745516D01*
X193624453Y-173766957D01*
X193624453Y-174204457D01*
X193623400Y-174225898D01*
X193620250Y-174247133D01*
X193615034Y-174267957D01*
X193607802Y-174288169D01*
X193598623Y-174307575D01*
X193587587Y-174325988D01*
X193574799Y-174343231D01*
X193560383Y-174359137D01*
X193544477Y-174373553D01*
X193527234Y-174386341D01*
X193508821Y-174397377D01*
X193489415Y-174406556D01*
X193469203Y-174413788D01*
X193448379Y-174419004D01*
X193427144Y-174422154D01*
X193405703Y-174423207D01*
X192893203Y-174423207D01*
X192871762Y-174422154D01*
X192850527Y-174419004D01*
X192829703Y-174413788D01*
X192809491Y-174406556D01*
X192790085Y-174397377D01*
X192771672Y-174386341D01*
X192754429Y-174373553D01*
X192738523Y-174359137D01*
X192724107Y-174343231D01*
X192711319Y-174325988D01*
X192700283Y-174307575D01*
X192691104Y-174288169D01*
X192683872Y-174267957D01*
X192678656Y-174247133D01*
X192675506Y-174225898D01*
X192674453Y-174204457D01*
X192674453Y-173766957D01*
X192675506Y-173745516D01*
X192678656Y-173724281D01*
X192683872Y-173703457D01*
X192691104Y-173683245D01*
X192700283Y-173663839D01*
X192711319Y-173645426D01*
X192724107Y-173628183D01*
X192738523Y-173612277D01*
X192754429Y-173597861D01*
X192771672Y-173585073D01*
X192790085Y-173574037D01*
X192809491Y-173564858D01*
X192829703Y-173557626D01*
X192850527Y-173552410D01*
X192871762Y-173549260D01*
X192893203Y-173548207D01*
X193405703Y-173548207D01*
X193427144Y-173549260D01*
X193427144Y-173549260D01*
G37*
D13*
X193149453Y-173985707D03*
G04 #@! TD*
D12*
G04 #@! TO.C,R13*
G36*
X195127144Y-173561760D02*
X195148379Y-173564910D01*
X195169203Y-173570126D01*
X195189415Y-173577358D01*
X195208821Y-173586537D01*
X195227234Y-173597573D01*
X195244477Y-173610361D01*
X195260383Y-173624777D01*
X195274799Y-173640683D01*
X195287587Y-173657926D01*
X195298623Y-173676339D01*
X195307802Y-173695745D01*
X195315034Y-173715957D01*
X195320250Y-173736781D01*
X195323400Y-173758016D01*
X195324453Y-173779457D01*
X195324453Y-174216957D01*
X195323400Y-174238398D01*
X195320250Y-174259633D01*
X195315034Y-174280457D01*
X195307802Y-174300669D01*
X195298623Y-174320075D01*
X195287587Y-174338488D01*
X195274799Y-174355731D01*
X195260383Y-174371637D01*
X195244477Y-174386053D01*
X195227234Y-174398841D01*
X195208821Y-174409877D01*
X195189415Y-174419056D01*
X195169203Y-174426288D01*
X195148379Y-174431504D01*
X195127144Y-174434654D01*
X195105703Y-174435707D01*
X194593203Y-174435707D01*
X194571762Y-174434654D01*
X194550527Y-174431504D01*
X194529703Y-174426288D01*
X194509491Y-174419056D01*
X194490085Y-174409877D01*
X194471672Y-174398841D01*
X194454429Y-174386053D01*
X194438523Y-174371637D01*
X194424107Y-174355731D01*
X194411319Y-174338488D01*
X194400283Y-174320075D01*
X194391104Y-174300669D01*
X194383872Y-174280457D01*
X194378656Y-174259633D01*
X194375506Y-174238398D01*
X194374453Y-174216957D01*
X194374453Y-173779457D01*
X194375506Y-173758016D01*
X194378656Y-173736781D01*
X194383872Y-173715957D01*
X194391104Y-173695745D01*
X194400283Y-173676339D01*
X194411319Y-173657926D01*
X194424107Y-173640683D01*
X194438523Y-173624777D01*
X194454429Y-173610361D01*
X194471672Y-173597573D01*
X194490085Y-173586537D01*
X194509491Y-173577358D01*
X194529703Y-173570126D01*
X194550527Y-173564910D01*
X194571762Y-173561760D01*
X194593203Y-173560707D01*
X195105703Y-173560707D01*
X195127144Y-173561760D01*
X195127144Y-173561760D01*
G37*
D13*
X194849453Y-173998207D03*
D12*
G36*
X195127144Y-171986760D02*
X195148379Y-171989910D01*
X195169203Y-171995126D01*
X195189415Y-172002358D01*
X195208821Y-172011537D01*
X195227234Y-172022573D01*
X195244477Y-172035361D01*
X195260383Y-172049777D01*
X195274799Y-172065683D01*
X195287587Y-172082926D01*
X195298623Y-172101339D01*
X195307802Y-172120745D01*
X195315034Y-172140957D01*
X195320250Y-172161781D01*
X195323400Y-172183016D01*
X195324453Y-172204457D01*
X195324453Y-172641957D01*
X195323400Y-172663398D01*
X195320250Y-172684633D01*
X195315034Y-172705457D01*
X195307802Y-172725669D01*
X195298623Y-172745075D01*
X195287587Y-172763488D01*
X195274799Y-172780731D01*
X195260383Y-172796637D01*
X195244477Y-172811053D01*
X195227234Y-172823841D01*
X195208821Y-172834877D01*
X195189415Y-172844056D01*
X195169203Y-172851288D01*
X195148379Y-172856504D01*
X195127144Y-172859654D01*
X195105703Y-172860707D01*
X194593203Y-172860707D01*
X194571762Y-172859654D01*
X194550527Y-172856504D01*
X194529703Y-172851288D01*
X194509491Y-172844056D01*
X194490085Y-172834877D01*
X194471672Y-172823841D01*
X194454429Y-172811053D01*
X194438523Y-172796637D01*
X194424107Y-172780731D01*
X194411319Y-172763488D01*
X194400283Y-172745075D01*
X194391104Y-172725669D01*
X194383872Y-172705457D01*
X194378656Y-172684633D01*
X194375506Y-172663398D01*
X194374453Y-172641957D01*
X194374453Y-172204457D01*
X194375506Y-172183016D01*
X194378656Y-172161781D01*
X194383872Y-172140957D01*
X194391104Y-172120745D01*
X194400283Y-172101339D01*
X194411319Y-172082926D01*
X194424107Y-172065683D01*
X194438523Y-172049777D01*
X194454429Y-172035361D01*
X194471672Y-172022573D01*
X194490085Y-172011537D01*
X194509491Y-172002358D01*
X194529703Y-171995126D01*
X194550527Y-171989910D01*
X194571762Y-171986760D01*
X194593203Y-171985707D01*
X195105703Y-171985707D01*
X195127144Y-171986760D01*
X195127144Y-171986760D01*
G37*
D13*
X194849453Y-172423207D03*
G04 #@! TD*
D12*
G04 #@! TO.C,R14*
G36*
X190327144Y-169699260D02*
X190348379Y-169702410D01*
X190369203Y-169707626D01*
X190389415Y-169714858D01*
X190408821Y-169724037D01*
X190427234Y-169735073D01*
X190444477Y-169747861D01*
X190460383Y-169762277D01*
X190474799Y-169778183D01*
X190487587Y-169795426D01*
X190498623Y-169813839D01*
X190507802Y-169833245D01*
X190515034Y-169853457D01*
X190520250Y-169874281D01*
X190523400Y-169895516D01*
X190524453Y-169916957D01*
X190524453Y-170354457D01*
X190523400Y-170375898D01*
X190520250Y-170397133D01*
X190515034Y-170417957D01*
X190507802Y-170438169D01*
X190498623Y-170457575D01*
X190487587Y-170475988D01*
X190474799Y-170493231D01*
X190460383Y-170509137D01*
X190444477Y-170523553D01*
X190427234Y-170536341D01*
X190408821Y-170547377D01*
X190389415Y-170556556D01*
X190369203Y-170563788D01*
X190348379Y-170569004D01*
X190327144Y-170572154D01*
X190305703Y-170573207D01*
X189793203Y-170573207D01*
X189771762Y-170572154D01*
X189750527Y-170569004D01*
X189729703Y-170563788D01*
X189709491Y-170556556D01*
X189690085Y-170547377D01*
X189671672Y-170536341D01*
X189654429Y-170523553D01*
X189638523Y-170509137D01*
X189624107Y-170493231D01*
X189611319Y-170475988D01*
X189600283Y-170457575D01*
X189591104Y-170438169D01*
X189583872Y-170417957D01*
X189578656Y-170397133D01*
X189575506Y-170375898D01*
X189574453Y-170354457D01*
X189574453Y-169916957D01*
X189575506Y-169895516D01*
X189578656Y-169874281D01*
X189583872Y-169853457D01*
X189591104Y-169833245D01*
X189600283Y-169813839D01*
X189611319Y-169795426D01*
X189624107Y-169778183D01*
X189638523Y-169762277D01*
X189654429Y-169747861D01*
X189671672Y-169735073D01*
X189690085Y-169724037D01*
X189709491Y-169714858D01*
X189729703Y-169707626D01*
X189750527Y-169702410D01*
X189771762Y-169699260D01*
X189793203Y-169698207D01*
X190305703Y-169698207D01*
X190327144Y-169699260D01*
X190327144Y-169699260D01*
G37*
D13*
X190049453Y-170135707D03*
D12*
G36*
X190327144Y-171274260D02*
X190348379Y-171277410D01*
X190369203Y-171282626D01*
X190389415Y-171289858D01*
X190408821Y-171299037D01*
X190427234Y-171310073D01*
X190444477Y-171322861D01*
X190460383Y-171337277D01*
X190474799Y-171353183D01*
X190487587Y-171370426D01*
X190498623Y-171388839D01*
X190507802Y-171408245D01*
X190515034Y-171428457D01*
X190520250Y-171449281D01*
X190523400Y-171470516D01*
X190524453Y-171491957D01*
X190524453Y-171929457D01*
X190523400Y-171950898D01*
X190520250Y-171972133D01*
X190515034Y-171992957D01*
X190507802Y-172013169D01*
X190498623Y-172032575D01*
X190487587Y-172050988D01*
X190474799Y-172068231D01*
X190460383Y-172084137D01*
X190444477Y-172098553D01*
X190427234Y-172111341D01*
X190408821Y-172122377D01*
X190389415Y-172131556D01*
X190369203Y-172138788D01*
X190348379Y-172144004D01*
X190327144Y-172147154D01*
X190305703Y-172148207D01*
X189793203Y-172148207D01*
X189771762Y-172147154D01*
X189750527Y-172144004D01*
X189729703Y-172138788D01*
X189709491Y-172131556D01*
X189690085Y-172122377D01*
X189671672Y-172111341D01*
X189654429Y-172098553D01*
X189638523Y-172084137D01*
X189624107Y-172068231D01*
X189611319Y-172050988D01*
X189600283Y-172032575D01*
X189591104Y-172013169D01*
X189583872Y-171992957D01*
X189578656Y-171972133D01*
X189575506Y-171950898D01*
X189574453Y-171929457D01*
X189574453Y-171491957D01*
X189575506Y-171470516D01*
X189578656Y-171449281D01*
X189583872Y-171428457D01*
X189591104Y-171408245D01*
X189600283Y-171388839D01*
X189611319Y-171370426D01*
X189624107Y-171353183D01*
X189638523Y-171337277D01*
X189654429Y-171322861D01*
X189671672Y-171310073D01*
X189690085Y-171299037D01*
X189709491Y-171289858D01*
X189729703Y-171282626D01*
X189750527Y-171277410D01*
X189771762Y-171274260D01*
X189793203Y-171273207D01*
X190305703Y-171273207D01*
X190327144Y-171274260D01*
X190327144Y-171274260D01*
G37*
D13*
X190049453Y-171710707D03*
G04 #@! TD*
D19*
G04 #@! TO.C,U1*
X194232195Y-191369193D03*
D12*
G36*
X193939565Y-190743020D02*
X194588675Y-190777038D01*
X194524825Y-191995366D01*
X193875715Y-191961348D01*
X193939565Y-190743020D01*
X193939565Y-190743020D01*
G37*
D19*
X196129591Y-191468631D03*
D12*
G36*
X195836961Y-190842458D02*
X196486071Y-190876476D01*
X196422221Y-192094804D01*
X195773111Y-192060786D01*
X195836961Y-190842458D01*
X195836961Y-190842458D01*
G37*
D19*
X196266711Y-188852221D03*
D12*
G36*
X195974081Y-188226048D02*
X196623191Y-188260066D01*
X196559341Y-189478394D01*
X195910231Y-189444376D01*
X195974081Y-188226048D01*
X195974081Y-188226048D01*
G37*
D19*
X195318013Y-188802502D03*
D12*
G36*
X195025383Y-188176329D02*
X195674493Y-188210347D01*
X195610643Y-189428675D01*
X194961533Y-189394657D01*
X195025383Y-188176329D01*
X195025383Y-188176329D01*
G37*
D19*
X194369315Y-188752783D03*
D12*
G36*
X194076685Y-188126610D02*
X194725795Y-188160628D01*
X194661945Y-189378956D01*
X194012835Y-189344938D01*
X194076685Y-188126610D01*
X194076685Y-188126610D01*
G37*
G04 #@! TD*
D19*
G04 #@! TO.C,U3*
X196616711Y-183152221D03*
D12*
G36*
X196909341Y-183778394D02*
X196260231Y-183744376D01*
X196324081Y-182526048D01*
X196973191Y-182560066D01*
X196909341Y-183778394D01*
X196909341Y-183778394D01*
G37*
D19*
X194719315Y-183052783D03*
D12*
G36*
X195011945Y-183678956D02*
X194362835Y-183644938D01*
X194426685Y-182426610D01*
X195075795Y-182460628D01*
X195011945Y-183678956D01*
X195011945Y-183678956D01*
G37*
D19*
X194582195Y-185669193D03*
D12*
G36*
X194874825Y-186295366D02*
X194225715Y-186261348D01*
X194289565Y-185043020D01*
X194938675Y-185077038D01*
X194874825Y-186295366D01*
X194874825Y-186295366D01*
G37*
D19*
X195530893Y-185718912D03*
D12*
G36*
X195823523Y-186345085D02*
X195174413Y-186311067D01*
X195238263Y-185092739D01*
X195887373Y-185126757D01*
X195823523Y-186345085D01*
X195823523Y-186345085D01*
G37*
D19*
X196479591Y-185768631D03*
D12*
G36*
X196772221Y-186394804D02*
X196123111Y-186360786D01*
X196186961Y-185142458D01*
X196836071Y-185176476D01*
X196772221Y-186394804D01*
X196772221Y-186394804D01*
G37*
G04 #@! TD*
D20*
G04 #@! TO.C,U4*
X186912268Y-157240571D03*
D12*
G36*
X186484733Y-156910058D02*
X186839803Y-156705058D01*
X187339803Y-157571084D01*
X186984733Y-157776084D01*
X186484733Y-156910058D01*
X186484733Y-156910058D01*
G37*
D20*
X187579108Y-156855571D03*
D12*
G36*
X187151573Y-156525058D02*
X187506643Y-156320058D01*
X188006643Y-157186084D01*
X187651573Y-157391084D01*
X187151573Y-156525058D01*
X187151573Y-156525058D01*
G37*
D20*
X188237287Y-156475571D03*
D12*
G36*
X187809752Y-156145058D02*
X188164822Y-155940058D01*
X188664822Y-156806084D01*
X188309752Y-157011084D01*
X187809752Y-156145058D01*
X187809752Y-156145058D01*
G37*
D20*
X188895466Y-156095571D03*
D12*
G36*
X188467931Y-155765058D02*
X188823001Y-155560058D01*
X189323001Y-156426084D01*
X188967931Y-156631084D01*
X188467931Y-155765058D01*
X188467931Y-155765058D01*
G37*
D20*
X189553646Y-155715571D03*
D12*
G36*
X189126111Y-155385058D02*
X189481181Y-155180058D01*
X189981181Y-156046084D01*
X189626111Y-156251084D01*
X189126111Y-155385058D01*
X189126111Y-155385058D01*
G37*
D20*
X193652074Y-152714257D03*
D12*
G36*
X193982587Y-152286722D02*
X194187587Y-152641792D01*
X193321561Y-153141792D01*
X193116561Y-152786722D01*
X193982587Y-152286722D01*
X193982587Y-152286722D01*
G37*
D20*
X193272074Y-152056078D03*
D12*
G36*
X193602587Y-151628543D02*
X193807587Y-151983613D01*
X192941561Y-152483613D01*
X192736561Y-152128543D01*
X193602587Y-151628543D01*
X193602587Y-151628543D01*
G37*
D20*
X192887074Y-151389238D03*
D12*
G36*
X193217587Y-150961703D02*
X193422587Y-151316773D01*
X192556561Y-151816773D01*
X192351561Y-151461703D01*
X193217587Y-150961703D01*
X193217587Y-150961703D01*
G37*
D20*
X192507074Y-150731059D03*
D12*
G36*
X192837587Y-150303524D02*
X193042587Y-150658594D01*
X192176561Y-151158594D01*
X191971561Y-150803524D01*
X192837587Y-150303524D01*
X192837587Y-150303524D01*
G37*
D20*
X192127074Y-150072880D03*
D12*
G36*
X192457587Y-149645345D02*
X192662587Y-150000415D01*
X191796561Y-150500415D01*
X191591561Y-150145345D01*
X192457587Y-149645345D01*
X192457587Y-149645345D01*
G37*
D20*
X191747074Y-149414700D03*
D12*
G36*
X192077587Y-148987165D02*
X192282587Y-149342235D01*
X191416561Y-149842235D01*
X191211561Y-149487165D01*
X192077587Y-148987165D01*
X192077587Y-148987165D01*
G37*
D20*
X191367074Y-148756521D03*
D12*
G36*
X191697587Y-148328986D02*
X191902587Y-148684056D01*
X191036561Y-149184056D01*
X190831561Y-148828986D01*
X191697587Y-148328986D01*
X191697587Y-148328986D01*
G37*
D20*
X190982074Y-148089682D03*
D12*
G36*
X191312587Y-147662147D02*
X191517587Y-148017217D01*
X190651561Y-148517217D01*
X190446561Y-148162147D01*
X191312587Y-147662147D01*
X191312587Y-147662147D01*
G37*
D20*
X190602074Y-147431502D03*
D12*
G36*
X190932587Y-147003967D02*
X191137587Y-147359037D01*
X190271561Y-147859037D01*
X190066561Y-147503967D01*
X190932587Y-147003967D01*
X190932587Y-147003967D01*
G37*
D20*
X190222074Y-146773323D03*
D12*
G36*
X190552587Y-146345788D02*
X190757587Y-146700858D01*
X189891561Y-147200858D01*
X189686561Y-146845788D01*
X190552587Y-146345788D01*
X190552587Y-146345788D01*
G37*
D20*
X189842074Y-146115144D03*
D12*
G36*
X190172587Y-145687609D02*
X190377587Y-146042679D01*
X189511561Y-146542679D01*
X189306561Y-146187609D01*
X190172587Y-145687609D01*
X190172587Y-145687609D01*
G37*
D20*
X189462074Y-145456964D03*
D12*
G36*
X189792587Y-145029429D02*
X189997587Y-145384499D01*
X189131561Y-145884499D01*
X188926561Y-145529429D01*
X189792587Y-145029429D01*
X189792587Y-145029429D01*
G37*
D20*
X188108203Y-145591990D03*
D12*
G36*
X187680668Y-145261477D02*
X188035738Y-145056477D01*
X188535738Y-145922503D01*
X188180668Y-146127503D01*
X187680668Y-145261477D01*
X187680668Y-145261477D01*
G37*
D20*
X187450023Y-145971990D03*
D12*
G36*
X187022488Y-145641477D02*
X187377558Y-145436477D01*
X187877558Y-146302503D01*
X187522488Y-146507503D01*
X187022488Y-145641477D01*
X187022488Y-145641477D01*
G37*
D20*
X186791844Y-146351990D03*
D12*
G36*
X186364309Y-146021477D02*
X186719379Y-145816477D01*
X187219379Y-146682503D01*
X186864309Y-146887503D01*
X186364309Y-146021477D01*
X186364309Y-146021477D01*
G37*
D20*
X186133665Y-146731990D03*
D12*
G36*
X185706130Y-146401477D02*
X186061200Y-146196477D01*
X186561200Y-147062503D01*
X186206130Y-147267503D01*
X185706130Y-146401477D01*
X185706130Y-146401477D01*
G37*
D20*
X190211825Y-155335571D03*
D12*
G36*
X189784290Y-155005058D02*
X190139360Y-154800058D01*
X190639360Y-155666084D01*
X190284290Y-155871084D01*
X189784290Y-155005058D01*
X189784290Y-155005058D01*
G37*
G04 #@! TD*
D21*
G04 #@! TO.C,U5*
X190799453Y-188260707D03*
D12*
G36*
X191634480Y-189221295D02*
X189838865Y-189095734D01*
X189964426Y-187300119D01*
X191760041Y-187425680D01*
X191634480Y-189221295D01*
X191634480Y-189221295D01*
G37*
D22*
X191491165Y-186955780D03*
D12*
G36*
X191847812Y-187231330D02*
X191099639Y-187179012D01*
X191134518Y-186680230D01*
X191882691Y-186732548D01*
X191847812Y-187231330D01*
X191847812Y-187231330D01*
G37*
D23*
X190718053Y-186901718D03*
D12*
G36*
X190935005Y-186666278D02*
X190900127Y-187165060D01*
X190501101Y-187137158D01*
X190535979Y-186638376D01*
X190935005Y-186666278D01*
X190935005Y-186666278D01*
G37*
D23*
X190119515Y-186859865D03*
D12*
G36*
X190336467Y-186624425D02*
X190301589Y-187123207D01*
X189902563Y-187095305D01*
X189937441Y-186596523D01*
X190336467Y-186624425D01*
X190336467Y-186624425D01*
G37*
D23*
X189931172Y-189553287D03*
D12*
G36*
X190148124Y-189317847D02*
X190113246Y-189816629D01*
X189714220Y-189788727D01*
X189749098Y-189289945D01*
X190148124Y-189317847D01*
X190148124Y-189317847D01*
G37*
D23*
X190529708Y-189595141D03*
D12*
G36*
X190746660Y-189359701D02*
X190711782Y-189858483D01*
X190312756Y-189830581D01*
X190347634Y-189331799D01*
X190746660Y-189359701D01*
X190746660Y-189359701D01*
G37*
D22*
X191302823Y-189649203D03*
D12*
G36*
X191659470Y-189924753D02*
X190911297Y-189872435D01*
X190946176Y-189373653D01*
X191694349Y-189425971D01*
X191659470Y-189924753D01*
X191659470Y-189924753D01*
G37*
G04 #@! TD*
D24*
G04 #@! TO.C,U6*
X188967219Y-197598602D03*
D12*
G36*
X189649608Y-197256775D02*
X189579883Y-198053731D01*
X188284830Y-197940429D01*
X188354555Y-197143473D01*
X189649608Y-197256775D01*
X189649608Y-197256775D01*
G37*
D24*
X188855660Y-198873731D03*
D12*
G36*
X189538049Y-198531904D02*
X189468324Y-199328860D01*
X188173271Y-199215558D01*
X188242996Y-198418602D01*
X189538049Y-198531904D01*
X189538049Y-198531904D01*
G37*
D24*
X195131687Y-199422812D03*
D12*
G36*
X195814076Y-199080985D02*
X195744351Y-199877941D01*
X194449298Y-199764639D01*
X194519023Y-198967683D01*
X195814076Y-199080985D01*
X195814076Y-199080985D01*
G37*
D24*
X195243246Y-198147683D03*
D12*
G36*
X195925635Y-197805856D02*
X195855910Y-198602812D01*
X194560857Y-198489510D01*
X194630582Y-197692554D01*
X195925635Y-197805856D01*
X195925635Y-197805856D01*
G37*
G04 #@! TD*
D24*
G04 #@! TO.C,U7*
X199707627Y-198313024D03*
D12*
G36*
X200061311Y-198989343D02*
X199263260Y-198933538D01*
X199353943Y-197636705D01*
X200151994Y-197692510D01*
X200061311Y-198989343D01*
X200061311Y-198989343D01*
G37*
D24*
X198430745Y-198223736D03*
D12*
G36*
X198784429Y-198900055D02*
X197986378Y-198844250D01*
X198077061Y-197547417D01*
X198875112Y-197603222D01*
X198784429Y-198900055D01*
X198784429Y-198900055D01*
G37*
D24*
X197991279Y-204508390D03*
D12*
G36*
X198344963Y-205184709D02*
X197546912Y-205128904D01*
X197637595Y-203832071D01*
X198435646Y-203887876D01*
X198344963Y-205184709D01*
X198344963Y-205184709D01*
G37*
D24*
X199268161Y-204597678D03*
D12*
G36*
X199621845Y-205273997D02*
X198823794Y-205218192D01*
X198914477Y-203921359D01*
X199712528Y-203977164D01*
X199621845Y-205273997D01*
X199621845Y-205273997D01*
G37*
G04 #@! TD*
D24*
G04 #@! TO.C,U8*
X196283607Y-206544948D03*
D12*
G36*
X196971858Y-206215083D02*
X196888235Y-207010700D01*
X195595356Y-206874813D01*
X195678979Y-206079196D01*
X196971858Y-206215083D01*
X196971858Y-206215083D01*
G37*
D24*
X196149811Y-207817936D03*
D12*
G36*
X196838062Y-207488071D02*
X196754439Y-208283688D01*
X195461560Y-208147801D01*
X195545183Y-207352184D01*
X196838062Y-207488071D01*
X196838062Y-207488071D01*
G37*
D24*
X202415299Y-208476466D03*
D12*
G36*
X203103550Y-208146601D02*
X203019927Y-208942218D01*
X201727048Y-208806331D01*
X201810671Y-208010714D01*
X203103550Y-208146601D01*
X203103550Y-208146601D01*
G37*
D24*
X202549095Y-207203478D03*
D12*
G36*
X203237346Y-206873613D02*
X203153723Y-207669230D01*
X201860844Y-207533343D01*
X201944467Y-206737726D01*
X203237346Y-206873613D01*
X203237346Y-206873613D01*
G37*
G04 #@! TD*
D24*
G04 #@! TO.C,U9*
X193797977Y-211029825D03*
D12*
G36*
X193104074Y-211347628D02*
X193201570Y-210553591D01*
X194491880Y-210712022D01*
X194394384Y-211506059D01*
X193104074Y-211347628D01*
X193104074Y-211347628D01*
G37*
D24*
X193953970Y-209759366D03*
D12*
G36*
X193260067Y-210077169D02*
X193357563Y-209283132D01*
X194647873Y-209441563D01*
X194550377Y-210235600D01*
X193260067Y-210077169D01*
X193260067Y-210077169D01*
G37*
D24*
X187700929Y-208991589D03*
D12*
G36*
X187007026Y-209309392D02*
X187104522Y-208515355D01*
X188394832Y-208673786D01*
X188297336Y-209467823D01*
X187007026Y-209309392D01*
X187007026Y-209309392D01*
G37*
D24*
X187544936Y-210262048D03*
D12*
G36*
X186851033Y-210579851D02*
X186948529Y-209785814D01*
X188238839Y-209944245D01*
X188141343Y-210738282D01*
X186851033Y-210579851D01*
X186851033Y-210579851D01*
G37*
G04 #@! TD*
G04 #@! TO.C,C15*
G36*
X195535534Y-194481471D02*
X195971968Y-194511989D01*
X195993284Y-194514535D01*
X196014247Y-194519159D01*
X196034656Y-194525815D01*
X196054315Y-194534439D01*
X196073033Y-194544949D01*
X196090631Y-194557243D01*
X196106940Y-194571202D01*
X196121802Y-194586693D01*
X196135073Y-194603566D01*
X196146627Y-194621658D01*
X196156352Y-194640796D01*
X196164155Y-194660795D01*
X196169959Y-194681463D01*
X196173710Y-194702600D01*
X196175371Y-194724003D01*
X196174926Y-194745465D01*
X196139176Y-195256717D01*
X196136630Y-195278033D01*
X196132006Y-195298996D01*
X196125350Y-195319405D01*
X196116726Y-195339064D01*
X196106216Y-195357782D01*
X196093922Y-195375380D01*
X196079963Y-195391689D01*
X196064472Y-195406551D01*
X196047599Y-195419822D01*
X196029506Y-195431376D01*
X196010368Y-195441101D01*
X195990369Y-195448904D01*
X195969702Y-195454708D01*
X195948565Y-195458459D01*
X195927162Y-195460120D01*
X195905700Y-195459675D01*
X195469266Y-195429157D01*
X195447950Y-195426611D01*
X195426987Y-195421987D01*
X195406578Y-195415331D01*
X195386919Y-195406707D01*
X195368201Y-195396197D01*
X195350603Y-195383903D01*
X195334294Y-195369944D01*
X195319432Y-195354453D01*
X195306161Y-195337580D01*
X195294607Y-195319488D01*
X195284882Y-195300350D01*
X195277079Y-195280351D01*
X195271275Y-195259683D01*
X195267524Y-195238546D01*
X195265863Y-195217143D01*
X195266308Y-195195681D01*
X195302058Y-194684429D01*
X195304604Y-194663113D01*
X195309228Y-194642150D01*
X195315884Y-194621741D01*
X195324508Y-194602082D01*
X195335018Y-194583364D01*
X195347312Y-194565766D01*
X195361271Y-194549457D01*
X195376762Y-194534595D01*
X195393635Y-194521324D01*
X195411728Y-194509770D01*
X195430866Y-194500045D01*
X195450865Y-194492242D01*
X195471532Y-194486438D01*
X195492669Y-194482687D01*
X195514072Y-194481026D01*
X195535534Y-194481471D01*
X195535534Y-194481471D01*
G37*
D13*
X195720617Y-194970573D03*
D12*
G36*
X193964370Y-194371605D02*
X194400804Y-194402123D01*
X194422120Y-194404669D01*
X194443083Y-194409293D01*
X194463492Y-194415949D01*
X194483151Y-194424573D01*
X194501869Y-194435083D01*
X194519467Y-194447377D01*
X194535776Y-194461336D01*
X194550638Y-194476827D01*
X194563909Y-194493700D01*
X194575463Y-194511792D01*
X194585188Y-194530930D01*
X194592991Y-194550929D01*
X194598795Y-194571597D01*
X194602546Y-194592734D01*
X194604207Y-194614137D01*
X194603762Y-194635599D01*
X194568012Y-195146851D01*
X194565466Y-195168167D01*
X194560842Y-195189130D01*
X194554186Y-195209539D01*
X194545562Y-195229198D01*
X194535052Y-195247916D01*
X194522758Y-195265514D01*
X194508799Y-195281823D01*
X194493308Y-195296685D01*
X194476435Y-195309956D01*
X194458342Y-195321510D01*
X194439204Y-195331235D01*
X194419205Y-195339038D01*
X194398538Y-195344842D01*
X194377401Y-195348593D01*
X194355998Y-195350254D01*
X194334536Y-195349809D01*
X193898102Y-195319291D01*
X193876786Y-195316745D01*
X193855823Y-195312121D01*
X193835414Y-195305465D01*
X193815755Y-195296841D01*
X193797037Y-195286331D01*
X193779439Y-195274037D01*
X193763130Y-195260078D01*
X193748268Y-195244587D01*
X193734997Y-195227714D01*
X193723443Y-195209622D01*
X193713718Y-195190484D01*
X193705915Y-195170485D01*
X193700111Y-195149817D01*
X193696360Y-195128680D01*
X193694699Y-195107277D01*
X193695144Y-195085815D01*
X193730894Y-194574563D01*
X193733440Y-194553247D01*
X193738064Y-194532284D01*
X193744720Y-194511875D01*
X193753344Y-194492216D01*
X193763854Y-194473498D01*
X193776148Y-194455900D01*
X193790107Y-194439591D01*
X193805598Y-194424729D01*
X193822471Y-194411458D01*
X193840564Y-194399904D01*
X193859702Y-194390179D01*
X193879701Y-194382376D01*
X193900368Y-194376572D01*
X193921505Y-194372821D01*
X193942908Y-194371160D01*
X193964370Y-194371605D01*
X193964370Y-194371605D01*
G37*
D13*
X194149453Y-194860707D03*
G04 #@! TD*
D12*
G04 #@! TO.C,C16*
G36*
X195654953Y-192911537D02*
X196091387Y-192942055D01*
X196112703Y-192944601D01*
X196133666Y-192949225D01*
X196154075Y-192955881D01*
X196173734Y-192964505D01*
X196192452Y-192975015D01*
X196210050Y-192987309D01*
X196226359Y-193001268D01*
X196241221Y-193016759D01*
X196254492Y-193033632D01*
X196266046Y-193051724D01*
X196275771Y-193070862D01*
X196283574Y-193090861D01*
X196289378Y-193111529D01*
X196293129Y-193132666D01*
X196294790Y-193154069D01*
X196294345Y-193175531D01*
X196258595Y-193686783D01*
X196256049Y-193708099D01*
X196251425Y-193729062D01*
X196244769Y-193749471D01*
X196236145Y-193769130D01*
X196225635Y-193787848D01*
X196213341Y-193805446D01*
X196199382Y-193821755D01*
X196183891Y-193836617D01*
X196167018Y-193849888D01*
X196148925Y-193861442D01*
X196129787Y-193871167D01*
X196109788Y-193878970D01*
X196089121Y-193884774D01*
X196067984Y-193888525D01*
X196046581Y-193890186D01*
X196025119Y-193889741D01*
X195588685Y-193859223D01*
X195567369Y-193856677D01*
X195546406Y-193852053D01*
X195525997Y-193845397D01*
X195506338Y-193836773D01*
X195487620Y-193826263D01*
X195470022Y-193813969D01*
X195453713Y-193800010D01*
X195438851Y-193784519D01*
X195425580Y-193767646D01*
X195414026Y-193749554D01*
X195404301Y-193730416D01*
X195396498Y-193710417D01*
X195390694Y-193689749D01*
X195386943Y-193668612D01*
X195385282Y-193647209D01*
X195385727Y-193625747D01*
X195421477Y-193114495D01*
X195424023Y-193093179D01*
X195428647Y-193072216D01*
X195435303Y-193051807D01*
X195443927Y-193032148D01*
X195454437Y-193013430D01*
X195466731Y-192995832D01*
X195480690Y-192979523D01*
X195496181Y-192964661D01*
X195513054Y-192951390D01*
X195531147Y-192939836D01*
X195550285Y-192930111D01*
X195570284Y-192922308D01*
X195590951Y-192916504D01*
X195612088Y-192912753D01*
X195633491Y-192911092D01*
X195654953Y-192911537D01*
X195654953Y-192911537D01*
G37*
D13*
X195840036Y-193400639D03*
D12*
G36*
X194083789Y-192801671D02*
X194520223Y-192832189D01*
X194541539Y-192834735D01*
X194562502Y-192839359D01*
X194582911Y-192846015D01*
X194602570Y-192854639D01*
X194621288Y-192865149D01*
X194638886Y-192877443D01*
X194655195Y-192891402D01*
X194670057Y-192906893D01*
X194683328Y-192923766D01*
X194694882Y-192941858D01*
X194704607Y-192960996D01*
X194712410Y-192980995D01*
X194718214Y-193001663D01*
X194721965Y-193022800D01*
X194723626Y-193044203D01*
X194723181Y-193065665D01*
X194687431Y-193576917D01*
X194684885Y-193598233D01*
X194680261Y-193619196D01*
X194673605Y-193639605D01*
X194664981Y-193659264D01*
X194654471Y-193677982D01*
X194642177Y-193695580D01*
X194628218Y-193711889D01*
X194612727Y-193726751D01*
X194595854Y-193740022D01*
X194577761Y-193751576D01*
X194558623Y-193761301D01*
X194538624Y-193769104D01*
X194517957Y-193774908D01*
X194496820Y-193778659D01*
X194475417Y-193780320D01*
X194453955Y-193779875D01*
X194017521Y-193749357D01*
X193996205Y-193746811D01*
X193975242Y-193742187D01*
X193954833Y-193735531D01*
X193935174Y-193726907D01*
X193916456Y-193716397D01*
X193898858Y-193704103D01*
X193882549Y-193690144D01*
X193867687Y-193674653D01*
X193854416Y-193657780D01*
X193842862Y-193639688D01*
X193833137Y-193620550D01*
X193825334Y-193600551D01*
X193819530Y-193579883D01*
X193815779Y-193558746D01*
X193814118Y-193537343D01*
X193814563Y-193515881D01*
X193850313Y-193004629D01*
X193852859Y-192983313D01*
X193857483Y-192962350D01*
X193864139Y-192941941D01*
X193872763Y-192922282D01*
X193883273Y-192903564D01*
X193895567Y-192885966D01*
X193909526Y-192869657D01*
X193925017Y-192854795D01*
X193941890Y-192841524D01*
X193959983Y-192829970D01*
X193979121Y-192820245D01*
X193999120Y-192812442D01*
X194019787Y-192806638D01*
X194040924Y-192802887D01*
X194062327Y-192801226D01*
X194083789Y-192801671D01*
X194083789Y-192801671D01*
G37*
D13*
X194268872Y-193290773D03*
G04 #@! TD*
M02*
