M48
;DRILL file {KiCad (5.0.0)} date 01/29/20 13:46:17
;FORMAT={-:-/ absolute / metric / decimal}
FMAT,2
METRIC,TZ
T1C0.370
T2C0.400
T3C0.500
%
G90
G05
M71
T1
X133.059Y-108.611
X134.029Y-87.051
X138.639Y-150.151
X139.559Y-129.791
X141.939Y-64.531
X143.309Y-165.561
X146.869Y-105.651
X147.639Y-85.931
X147.989Y-176.571
X148.109Y-112.861
X149.519Y-216.141
X149.709Y-237.471
X149.939Y-74.431
X151.589Y-194.911
X154.709Y-129.081
X154.859Y-139.641
X155.039Y-42.631
X155.489Y-261.711
X155.639Y-66.731
X156.839Y-93.231
X157.369Y-114.591
X158.839Y-51.931
X160.439Y-151.301
X161.029Y-155.581
X161.419Y-133.401
X162.139Y-71.531
X162.589Y-174.391
X163.419Y-112.981
X163.739Y-92.431
X163.759Y-165.901
X163.869Y-231.301
X164.289Y-135.951
X164.809Y-255.721
X164.899Y-188.561
X165.109Y-249.071
X165.372Y-178.131
X165.439Y-69.431
X166.019Y-197.061
X166.769Y-237.501
X167.539Y-47.931
X167.705Y-175.291
X168.019Y-154.691
X169.139Y-51.431
X169.999Y-228.991
X170.019Y-233.101
X170.239Y-94.531
X171.619Y-252.311
X171.939Y-25.631
X172.829Y-113.231
X173.039Y-103.431
X173.139Y-72.331
X173.799Y-209.281
X173.829Y-203.461
X173.919Y-206.721
X173.929Y-202.281
X175.239Y-182.581
X175.339Y-185.181
X175.489Y-165.731
X175.839Y-37.631
X175.839Y-163.661
X175.889Y-175.431
X176.289Y-158.261
X176.439Y-169.031
X176.819Y-165.091
X176.889Y-208.921
X176.919Y-263.161
X177.099Y-174.501
X177.139Y-202.761
X177.239Y-180.181
X177.389Y-204.161
X177.539Y-206.491
X177.719Y-174.951
X177.759Y-201.951
X177.849Y-81.761
X178.129Y-163.431
X178.239Y-178.281
X178.339Y-183.981
X178.389Y-170.581
X178.419Y-175.541
X178.439Y-168.606
X179.039Y-156.481
X179.099Y-174.861
X179.469Y-132.681
X179.539Y-192.931
X180.439Y-125.631
X180.764Y-159.506
X181.239Y-106.531
X181.269Y-54.061
X181.729Y-129.821
X181.729Y-146.901
X181.814Y-157.106
X181.839Y-33.931
X182.039Y-174.618
X182.709Y-183.151
X182.839Y-172.111
X183.439Y-167.581
X183.489Y-163.431
X183.609Y-153.701
X183.889Y-168.631
X184.009Y-216.171
X184.224Y-158.363
X184.489Y-148.591
X184.959Y-178.211
X185.089Y-186.981
X185.099Y-158.711
X185.289Y-186.031
X185.769Y-231.591
X186.064Y-165.306
X186.279Y-150.851
X186.419Y-156.541
X186.539Y-180.981
X186.614Y-162.106
X186.689Y-143.531
X186.769Y-147.101
X187.089Y-148.801
X187.209Y-184.471
X187.382Y-147.439
X187.389Y-151.431
X187.429Y-155.991
X187.629Y-143.522
X187.639Y-170.031
X187.664Y-144.306
X187.939Y-165.031
X188.189Y-251.711
X188.339Y-169.731
X188.409Y-148.181
X188.709Y-160.161
X188.839Y-170.531
X189.419Y-176.711
X189.459Y-155.337
X189.489Y-159.321
X189.639Y-169.931
X189.689Y-194.231
X189.869Y-216.581
X189.939Y-138.431
X190.009Y-163.811
X190.114Y-156.806
X190.299Y-143.751
X190.639Y-101.921
X191.039Y-155.231
X191.214Y-150.171
X191.229Y-147.081
X191.239Y-194.031
X191.539Y-174.831
X191.639Y-155.931
X191.939Y-159.631
X191.939Y-191.931
X192.139Y-205.681
X192.23Y-143.417
X192.839Y-206.881
X192.939Y-155.531
X193.039Y-166.361
X193.081Y-153.049
X193.129Y-153.898
X193.339Y-171.931
X193.639Y-149.161
X193.639Y-155.331
X194.249Y-161.981
X194.377Y-145.828
X194.733Y-164.728
X194.739Y-155.131
X194.829Y-181.791
X195.319Y-187.711
X195.699Y-156.971
X195.789Y-177.211
X195.939Y-148.631
X196.319Y-148.021
X196.349Y-129.021
X196.499Y-158.006
X196.689Y-188.731
X196.912Y-161.909
X196.979Y-123.715
X197.019Y-147.531
X197.139Y-163.331
X197.289Y-263.061
X197.569Y-156.801
X197.639Y-39.331
X197.741Y-31.005
X198.035Y-188.281
X198.569Y-255.951
X198.739Y-86.931
X198.929Y-192.151
X198.939Y-171.341
X199.364Y-172.797
X199.519Y-134.637
X199.539Y-143.506
X199.764Y-146.581
X200.039Y-63.831
X200.097Y-145.945
X200.294Y-143.676
X200.535Y-126.509
X200.745Y-144.212
X201.019Y-179.421
X201.129Y-174.121
X201.149Y-158.401
X201.249Y-164.551
X202.289Y-160.183
X202.339Y-237.431
X202.379Y-164.481
X202.479Y-142.981
X202.559Y-232.201
X202.679Y-47.741
X202.829Y-168.961
X202.859Y-169.781
X204.939Y-34.431
X205.829Y-70.711
X206.339Y-37.631
X207.393Y-129.049
X209.139Y-59.631
X209.339Y-55.231
X209.939Y-82.831
X210.839Y-77.331
X212.539Y-102.231
X215.539Y-108.631
X219.539Y-101.631
T2
X183.289Y-190.031
X187.639Y-204.731
X187.939Y-196.031
X190.339Y-202.381
X191.059Y-178.491
X191.817Y-184.401
X192.239Y-196.531
X192.439Y-203.031
X192.871Y-185.723
X193.739Y-208.331
X193.92Y-190.211
X195.289Y-193.881
X195.783Y-198.461
X195.961Y-203.558
X196.389Y-182.981
X196.489Y-192.881
X198.239Y-138.031
X199.789Y-183.151
X201.269Y-208.541
X202.289Y-163.258
X202.739Y-138.031
T3
X201.26Y-188.783
X201.329Y-189.781
T0
M30
