G04 #@! TF.GenerationSoftware,KiCad,Pcbnew,(5.0.0)*
G04 #@! TF.CreationDate,2020-01-29T13:46:14+01:00*
G04 #@! TF.ProjectId,Insole_PCB,496E736F6C655F5043422E6B69636164,rev?*
G04 #@! TF.SameCoordinates,Original*
G04 #@! TF.FileFunction,Profile,NP*
%FSLAX46Y46*%
G04 Gerber Fmt 4.6, Leading zero omitted, Abs format (unit mm)*
G04 Created by KiCad (PCBNEW (5.0.0)) date 01/29/20 13:46:14*
%MOMM*%
%LPD*%
G01*
G04 APERTURE LIST*
%ADD10C,0.100000*%
G04 APERTURE END LIST*
D10*
X198299453Y-204450707D02*
X198049453Y-197320707D01*
X198299454Y-204449361D02*
G75*
G03X198745647Y-204810707I401061J39080D01*
G01*
X203489453Y-204640707D02*
X198739453Y-204810707D01*
X198329637Y-197022814D02*
G75*
G03X198049453Y-197310707I26761J-306331D01*
G01*
X203839952Y-204936623D02*
G75*
G03X203489453Y-204640707I-320499J-24084D01*
G01*
X203193537Y-196850706D02*
G75*
G03X203489453Y-196500207I-24084J320499D01*
G01*
X203504293Y-174862495D02*
X203422093Y-177352475D01*
X219289503Y-121018413D02*
X218318463Y-123110097D01*
X206109713Y-153160449D02*
X205602703Y-155482824D01*
X224205503Y-107967105D02*
X223535677Y-110225871D01*
X223535677Y-110225871D02*
X222795095Y-112444530D01*
X222795095Y-112444530D02*
X221991949Y-114628434D01*
X224798719Y-105662711D02*
X224205503Y-107967105D01*
X206684723Y-150867558D02*
X206109713Y-153160449D01*
X208030893Y-146370612D02*
X207326583Y-148604697D01*
X204777023Y-160207228D02*
X204449943Y-162604945D01*
X204174453Y-165023467D02*
X203946333Y-167460639D01*
X206828383Y-232458945D02*
X207248193Y-234576758D01*
X205159873Y-157832469D02*
X204777023Y-160207228D01*
X205602703Y-155482824D02*
X205159873Y-157832469D01*
X203615453Y-172382306D02*
X203504293Y-174862495D01*
X204895993Y-219077247D02*
X205153663Y-221382224D01*
X203839453Y-204940707D02*
X203936773Y-207193976D01*
X210473993Y-139828040D02*
X209609053Y-141983581D01*
X208793203Y-144164006D02*
X208030893Y-146370612D01*
X205153663Y-221382224D02*
X205435663Y-223659400D01*
X206076793Y-228123687D02*
X206438123Y-230307723D01*
X218318463Y-123110097D02*
X216320463Y-127264083D01*
X220230921Y-118910695D02*
X219289503Y-121018413D01*
X225311384Y-103309146D02*
X224798719Y-105662711D01*
X203936773Y-207193976D02*
X204258743Y-212012282D01*
X203761403Y-169914302D02*
X203615453Y-172382306D01*
X204661633Y-216746154D02*
X204895993Y-219077247D01*
X203946333Y-167460639D02*
X203761403Y-169914302D01*
X203326493Y-182351997D02*
X203314393Y-187363746D01*
X221991949Y-114628434D02*
X221134481Y-116782262D01*
X208178543Y-238709518D02*
X208581413Y-240603381D01*
X207698063Y-236660499D02*
X208178543Y-238709518D01*
X216320463Y-127264083D02*
X214302793Y-131410096D01*
X204449563Y-214390609D02*
X204661633Y-216746154D01*
X212331333Y-135585579D02*
X211383573Y-137696086D01*
X221134481Y-116782262D02*
X220230921Y-118910695D01*
X214302793Y-131410096D02*
X212331333Y-135585579D01*
X207248193Y-234576758D02*
X207698063Y-236660499D01*
X207326583Y-148604697D02*
X206684723Y-150867558D01*
X206438123Y-230307723D02*
X206828383Y-232458945D01*
X204449943Y-162604945D02*
X204174453Y-165023467D01*
X209609053Y-141983581D02*
X208793203Y-144164006D01*
X211383573Y-137696086D02*
X210473993Y-139828040D01*
X205743033Y-225907111D02*
X206076793Y-228123687D01*
X205435663Y-223659400D02*
X205743033Y-225907111D01*
X204258743Y-212012282D02*
X204449563Y-214390609D01*
X203189453Y-196850707D02*
X198329453Y-197020707D01*
X203369453Y-191970707D02*
X203489453Y-196490707D01*
X203314393Y-187363746D02*
X203369453Y-191990707D01*
X203422093Y-177352475D02*
X203326493Y-182351997D01*
X226117253Y-65690971D02*
X226215413Y-68482207D01*
X211078213Y-14252788D02*
X211783363Y-14614858D01*
X224084561Y-40690228D02*
X224344815Y-42555948D01*
X210349293Y-13920118D02*
X211078213Y-14252788D01*
X225032517Y-48622535D02*
X225231331Y-50805747D01*
X203548453Y-12169088D02*
X204497323Y-12308038D01*
X223516468Y-37185368D02*
X223808506Y-38900498D01*
X214990583Y-16931678D02*
X215575973Y-17509428D01*
X201564453Y-11948538D02*
X202570873Y-12049628D01*
X226504773Y-83850223D02*
X226523613Y-87215716D01*
X224818612Y-46520743D02*
X225032517Y-48622535D01*
X221814003Y-29688498D02*
X222186551Y-31048018D01*
X221425667Y-28395818D02*
X221814003Y-29688498D01*
X213767033Y-15896168D02*
X214387973Y-16394538D01*
X213126683Y-15434688D02*
X213767033Y-15896168D01*
X208815703Y-13335518D02*
X209595493Y-13614958D01*
X204497323Y-12308038D02*
X205417613Y-12467648D01*
X226473163Y-80583839D02*
X226504773Y-83850223D01*
X219716721Y-23861568D02*
X220167061Y-24902848D01*
X226370903Y-74342963D02*
X226428603Y-77415206D01*
X223808506Y-38900498D02*
X224084561Y-40690228D01*
X209595493Y-13614958D02*
X210349293Y-13920118D01*
X226428603Y-77415206D02*
X226473163Y-80583839D01*
X217764443Y-20269198D02*
X218274923Y-21084568D01*
X216145213Y-18129688D02*
X216699403Y-18794318D01*
X211783363Y-14614858D02*
X212465813Y-15008198D01*
X223208268Y-35543478D02*
X223516468Y-37185368D01*
X222543190Y-32475958D02*
X222883801Y-33973918D01*
X226005249Y-62990676D02*
X226117253Y-65690971D01*
X224344815Y-42555948D02*
X224589436Y-44499008D01*
X222186551Y-31048018D02*
X222543190Y-32475958D01*
X215575973Y-17509428D02*
X216145213Y-18129688D01*
X205417613Y-12467648D02*
X206309473Y-12649038D01*
X225738999Y-57857482D02*
X225879223Y-60379966D01*
X208008373Y-13081828D02*
X208815703Y-13335518D01*
X225739599Y-100902919D02*
X225311384Y-103309146D01*
X226079454Y-98440543D02*
X225739599Y-100902919D01*
X225879223Y-60379966D02*
X226005249Y-62990676D01*
X218770531Y-21954018D02*
X219251172Y-22879158D01*
X226327043Y-95918536D02*
X226079454Y-98440543D01*
X226415023Y-94634086D02*
X226327043Y-95918536D01*
X226478463Y-93333415D02*
X226415023Y-94634086D01*
X225584393Y-55421859D02*
X225738999Y-57857482D01*
X226523613Y-87215716D02*
X226529813Y-90681689D01*
X220167061Y-24902848D02*
X220602078Y-26004588D01*
X226516893Y-92016093D02*
X226478463Y-93333415D01*
X220602078Y-26004588D02*
X221021653Y-27168378D01*
X214387973Y-16394538D02*
X214990583Y-16931678D01*
X207173013Y-12853388D02*
X208008373Y-13081828D01*
X219251172Y-22879158D02*
X219716721Y-23861568D01*
X226215413Y-68482207D02*
X226299903Y-71365752D01*
X225415230Y-53071731D02*
X225584393Y-55421859D01*
X225231331Y-50805747D02*
X225415230Y-53071731D01*
X226299903Y-71365752D02*
X226370903Y-74342963D01*
X224589436Y-44499008D02*
X224818612Y-46520743D01*
X221021653Y-27168378D02*
X221425667Y-28395818D01*
X217239233Y-19506318D02*
X217764443Y-20269198D01*
X212465813Y-15008198D02*
X213126683Y-15434688D01*
X222883801Y-33973918D02*
X223208268Y-35543478D01*
X218274923Y-21084568D02*
X218770531Y-21954018D01*
X216699403Y-18794318D02*
X217239233Y-19506318D01*
X202570873Y-12049628D02*
X203548453Y-12169088D01*
X206309473Y-12649038D02*
X207173013Y-12853388D01*
X226529813Y-90681689D02*
X226516893Y-92016093D01*
X128312013Y-73604636D02*
X128754973Y-72067313D01*
X146895773Y-42475668D02*
X149204833Y-39590278D01*
X133871763Y-60799216D02*
X134698553Y-59421317D01*
X133083253Y-62176360D02*
X133871763Y-60799216D01*
X129772563Y-69132224D02*
X130347253Y-67715270D01*
X167213093Y-20331668D02*
X168759673Y-19163548D01*
X162903163Y-24102658D02*
X164291763Y-22806438D01*
X184794393Y-12378428D02*
X186129803Y-12166378D01*
X182277623Y-12897428D02*
X183511363Y-12622748D01*
X190481253Y-11743238D02*
X192057103Y-11679638D01*
X149204833Y-39590278D02*
X151557813Y-36700338D01*
X197247713Y-11704738D02*
X198370823Y-11743938D01*
X188970153Y-11846838D02*
X190481253Y-11743238D01*
X187520693Y-11988538D02*
X188970153Y-11846838D01*
X160235403Y-26786758D02*
X161553353Y-25431168D01*
X200529063Y-11864638D02*
X201564453Y-11948538D01*
X199464563Y-11796838D02*
X200529063Y-11864638D01*
X198370823Y-11743938D02*
X199464563Y-11796838D01*
X178840593Y-13885128D02*
X179945113Y-13530098D01*
X181090023Y-13200478D02*
X182277623Y-12897428D01*
X137389893Y-55267661D02*
X138351063Y-53871306D01*
X132334903Y-63554305D02*
X133083253Y-62176360D01*
X196095093Y-11678138D02*
X197247713Y-11704738D01*
X194912823Y-11663038D02*
X196095093Y-11678138D01*
X193700793Y-11658038D02*
X194912823Y-11663038D01*
X173850703Y-16004238D02*
X174784603Y-15538098D01*
X142458833Y-48212660D02*
X144642753Y-45351428D01*
X172064413Y-16992518D02*
X172944673Y-16489388D01*
X127912893Y-75201270D02*
X128312013Y-73604636D01*
X161553353Y-25431168D02*
X162903163Y-24102658D01*
X138351063Y-53871306D02*
X140357093Y-51054465D01*
X140357093Y-51054465D02*
X142458833Y-48212660D01*
X192057103Y-11679638D02*
X193700793Y-11658038D01*
X186129803Y-12166378D02*
X187520693Y-11988538D01*
X183511363Y-12622748D02*
X184794393Y-12378428D01*
X179945113Y-13530098D02*
X181090023Y-13200478D01*
X177774363Y-14264508D02*
X178840593Y-13885128D01*
X176744353Y-14667168D02*
X177774363Y-14264508D01*
X175748463Y-15092068D02*
X176744353Y-14667168D01*
X174784603Y-15538098D02*
X175748463Y-15092068D01*
X168759673Y-19163548D02*
X170372903Y-18048418D01*
X172944673Y-16489388D02*
X173850703Y-16004238D01*
X158942413Y-28164218D02*
X160235403Y-26786758D01*
X144642753Y-45351428D02*
X146895773Y-42475668D01*
X126852323Y-81468367D02*
X126973203Y-80489668D01*
X127244823Y-78625243D02*
X127557533Y-76868826D01*
X126741133Y-82481249D02*
X126852323Y-81468367D01*
X153957693Y-33819798D02*
X156415533Y-30967968D01*
X170372903Y-18048418D02*
X172064413Y-16992518D01*
X165726103Y-21547698D02*
X167213093Y-20331668D01*
X135561753Y-58041121D02*
X136459493Y-56657088D01*
X127103973Y-79542761D02*
X127244823Y-78625243D01*
X151557813Y-36700338D02*
X153957693Y-33819798D01*
X130965913Y-66319251D02*
X131628583Y-64934592D01*
X130347253Y-67715270D02*
X130965913Y-66319251D01*
X136459493Y-56657088D02*
X137389893Y-55267661D01*
X131628583Y-64934592D02*
X132334903Y-63554305D01*
X126973203Y-80489668D02*
X127103973Y-79542761D01*
X128754973Y-72067313D02*
X129241813Y-70579703D01*
X164291763Y-22806438D02*
X165726103Y-21547698D01*
X156415533Y-30967968D02*
X158942413Y-28164218D01*
X134698553Y-59421317D02*
X135561753Y-58041121D01*
X129241813Y-70579703D02*
X129772563Y-69132224D01*
X127557533Y-76868826D02*
X127912893Y-75201270D01*
X168014743Y-278265788D02*
X166155843Y-277722828D01*
X208231013Y-254060638D02*
X207729373Y-255931108D01*
X160815873Y-275451438D02*
X159135433Y-274488918D01*
X208621493Y-252163838D02*
X208231013Y-254060638D01*
X147321543Y-261950068D02*
X146460693Y-260215348D01*
X171812323Y-279018518D02*
X169902433Y-278698178D01*
X203627993Y-264665268D02*
X202509073Y-266245878D01*
X162550133Y-276313208D02*
X160815873Y-275451438D01*
X145052953Y-256608898D02*
X144510973Y-254749708D01*
X183363473Y-278552668D02*
X181460953Y-278914238D01*
X149342283Y-265252308D02*
X148283193Y-263630998D01*
X205576833Y-261320088D02*
X204651763Y-263021428D01*
X181460953Y-278914238D02*
X179540423Y-279163008D01*
X206399973Y-259567158D02*
X205576833Y-261320088D01*
X190662463Y-276009248D02*
X188897213Y-276805618D01*
X150495133Y-266808348D02*
X149342283Y-265252308D01*
X169902433Y-278698178D02*
X168014743Y-278265788D01*
X173737783Y-279225688D02*
X171812323Y-279018518D01*
X208899443Y-250247308D02*
X208621493Y-252163838D01*
X177608563Y-279298088D02*
X175672113Y-279318988D01*
X201298903Y-267757758D02*
X200001683Y-269195648D01*
X207729373Y-255931108D02*
X207118323Y-257768738D01*
X197164473Y-271829748D02*
X195634353Y-273016778D01*
X146460693Y-260215348D02*
X145703613Y-258432888D01*
X166155843Y-277722828D02*
X164332193Y-277071218D01*
X179540423Y-279163008D02*
X177608563Y-279298088D01*
X151737723Y-268293698D02*
X150495133Y-266808348D01*
X202509073Y-266245878D02*
X201298903Y-267757758D01*
X154474543Y-271031948D02*
X153065733Y-269703208D01*
X143964343Y-239082243D02*
X144081823Y-237046858D01*
X143619863Y-243223590D02*
X143810773Y-241140402D01*
X153065733Y-269703208D02*
X151737723Y-268293698D01*
X194036903Y-274111528D02*
X192377683Y-275110168D01*
X143810773Y-241140402D02*
X143964343Y-239082243D01*
X143483763Y-245155364D02*
X143619863Y-243223590D01*
X155959243Y-272275318D02*
X154474543Y-271031948D01*
X143461763Y-247091808D02*
X143483763Y-245155364D01*
X188897213Y-276805618D02*
X187088083Y-277496518D01*
X143554063Y-249026178D02*
X143461763Y-247091808D01*
X187088083Y-277496518D02*
X185241363Y-278079558D01*
X143760233Y-250951748D02*
X143554063Y-249026178D01*
X192377683Y-275110168D02*
X190662463Y-276009248D01*
X204651763Y-263021428D02*
X203627993Y-264665268D01*
X144079573Y-252861798D02*
X143760233Y-250951748D01*
X157514683Y-273428978D02*
X155959243Y-272275318D01*
X159135433Y-274488918D02*
X157514683Y-273428978D01*
X144510973Y-254749708D02*
X144079573Y-252861798D01*
X164332193Y-277071218D02*
X162550133Y-276313208D01*
X185241363Y-278079558D02*
X183363473Y-278552668D01*
X198621943Y-270554558D02*
X197164473Y-271829748D01*
X207118323Y-257768738D02*
X206399973Y-259567158D01*
X145703613Y-258432888D02*
X145052953Y-256608898D01*
X200001683Y-269195648D02*
X198621943Y-270554558D01*
X175672113Y-279318988D02*
X173737783Y-279225688D01*
X148283193Y-263630998D02*
X147321543Y-261950068D01*
X195634353Y-273016778D02*
X194036903Y-274111528D01*
X209063913Y-248317738D02*
X208899443Y-250247308D01*
X209114313Y-246381818D02*
X209063913Y-248317738D01*
X209050513Y-244446307D02*
X209114313Y-246381818D01*
X208872663Y-242517920D02*
X209050513Y-244446307D01*
X208581413Y-240603381D02*
X208872663Y-242517920D01*
X144081823Y-237046858D02*
X144164423Y-235032019D01*
X137381443Y-166251627D02*
X136977733Y-164018506D01*
X141275193Y-196704997D02*
X141014723Y-194460589D01*
X141532673Y-198915328D02*
X141275193Y-196704997D01*
X142978423Y-211471518D02*
X142523423Y-207409724D01*
X131382883Y-142694760D02*
X130316483Y-139198834D01*
X133571953Y-149851978D02*
X133027283Y-148022404D01*
X126048283Y-111055151D02*
X126042283Y-109709628D01*
X126100083Y-113664357D02*
X126067783Y-112373251D01*
X126266753Y-89410410D02*
X126323853Y-88142176D01*
X136977733Y-164018506D02*
X136550403Y-161837418D01*
X126217953Y-90729964D02*
X126266753Y-89410410D01*
X126044653Y-105536189D02*
X126047653Y-103585070D01*
X126042653Y-107576441D02*
X126044653Y-105536189D01*
X134632733Y-153638763D02*
X134108453Y-151721464D01*
X126176753Y-92104517D02*
X126217953Y-90729964D01*
X126142553Y-93537867D02*
X126176753Y-92104517D01*
X126114653Y-95033808D02*
X126142553Y-93537867D01*
X126447603Y-119730290D02*
X126272153Y-117380087D01*
X126145083Y-114928906D02*
X126100083Y-113664357D01*
X139948423Y-185158068D02*
X139386483Y-180373454D01*
X141786763Y-201091101D02*
X141532673Y-198915328D01*
X126092453Y-96596125D02*
X126114653Y-95033808D01*
X126075353Y-98228621D02*
X126092453Y-96596125D01*
X126062653Y-99935080D02*
X126075353Y-98228621D01*
X127978053Y-130159754D02*
X127594553Y-128222443D01*
X138120393Y-170854594D02*
X137761553Y-168533234D01*
X128838953Y-133876203D02*
X128393913Y-132041253D01*
X144171123Y-227133582D02*
X143998783Y-223247580D01*
X134108453Y-151721464D02*
X133571953Y-149851978D01*
X139386483Y-180373454D02*
X138782933Y-175583750D01*
X138782933Y-175583750D02*
X138120393Y-170854594D01*
X126053653Y-101719302D02*
X126062653Y-99935080D01*
X126047653Y-103585070D02*
X126053653Y-101719302D01*
X126042283Y-109709628D02*
X126042653Y-107576441D01*
X126067783Y-112373251D02*
X126048283Y-111055151D01*
X126272153Y-117380087D02*
X126145083Y-114928906D01*
X126670003Y-121983006D02*
X126447603Y-119730290D01*
X126937353Y-124143332D02*
X126670003Y-121983006D01*
X127246593Y-126220057D02*
X126937353Y-124143332D01*
X130316483Y-139198834D02*
X129310013Y-135673868D01*
X127594553Y-128222443D02*
X127246593Y-126220057D01*
X135140633Y-155609036D02*
X134632733Y-153638763D01*
X128393913Y-132041253D02*
X127978053Y-130159754D01*
X137761553Y-168533234D02*
X137381443Y-166251627D01*
X129310013Y-135673868D02*
X128838953Y-133876203D01*
X144230023Y-231055083D02*
X144215523Y-229088515D01*
X136100863Y-159708631D02*
X135630473Y-157632414D01*
X132478323Y-146224903D02*
X131382883Y-142694760D01*
X133027283Y-148022404D02*
X132478323Y-146224903D01*
X140751653Y-192182585D02*
X140486383Y-189871470D01*
X144213423Y-233035506D02*
X144230023Y-231055083D01*
X136550403Y-161837418D02*
X136100863Y-159708631D01*
X142283153Y-205337180D02*
X142037073Y-203231833D01*
X142523423Y-207409724D02*
X142283153Y-205337180D01*
X140486383Y-189871470D02*
X139948423Y-185158068D01*
X142037073Y-203231833D02*
X141786763Y-201091101D01*
X144164423Y-235032019D02*
X144213423Y-233035506D01*
X143731693Y-219361891D02*
X143386373Y-215446059D01*
X135630473Y-157632414D02*
X135140633Y-155609036D01*
X141014723Y-194460589D02*
X140751653Y-192182585D01*
X143386373Y-215446059D02*
X142978423Y-211471518D01*
X143998783Y-223247580D02*
X143731693Y-219361891D01*
X144215523Y-229088515D02*
X144171123Y-227133582D01*
X126547053Y-84619135D02*
X126639453Y-83530707D01*
X126463753Y-85748927D02*
X126547053Y-84619135D01*
X126323853Y-88142176D02*
X126389453Y-86922476D01*
X126389453Y-86922476D02*
X126463753Y-85748927D01*
X126639453Y-83530707D02*
X126741133Y-82481249D01*
M02*
