G04 #@! TF.GenerationSoftware,KiCad,Pcbnew,(5.0.0)*
G04 #@! TF.CreationDate,2020-01-29T13:46:14+01:00*
G04 #@! TF.ProjectId,Insole_PCB,496E736F6C655F5043422E6B69636164,rev?*
G04 #@! TF.SameCoordinates,Original*
G04 #@! TF.FileFunction,Legend,Top*
G04 #@! TF.FilePolarity,Positive*
%FSLAX46Y46*%
G04 Gerber Fmt 4.6, Leading zero omitted, Abs format (unit mm)*
G04 Created by KiCad (PCBNEW (5.0.0)) date 01/29/20 13:46:14*
%MOMM*%
%LPD*%
G01*
G04 APERTURE LIST*
%ADD10C,0.120000*%
%ADD11C,0.010000*%
%ADD12C,0.200000*%
%ADD13C,0.150000*%
G04 APERTURE END LIST*
D10*
G04 #@! TO.C,J2*
X200683929Y-190512519D02*
X201377236Y-190464038D01*
X200636146Y-189829188D02*
X200683929Y-190512519D01*
X201888464Y-189054944D02*
X201974977Y-189048895D01*
X200588363Y-189145856D02*
X200674876Y-189139807D01*
X201974977Y-189048895D02*
X201913940Y-188176026D01*
X200588363Y-189145856D02*
X200527326Y-188272988D01*
X201614165Y-188196989D02*
X201913940Y-188176026D01*
X200527326Y-188272988D02*
X200827101Y-188252026D01*
D11*
G04 #@! TO.C,J1*
X197150969Y-197512742D02*
X195002278Y-197587776D01*
X197441745Y-204406794D02*
X195243085Y-204483573D01*
X196768346Y-205180767D02*
X196442035Y-195836462D01*
D10*
X201975329Y-196693875D02*
X198747297Y-196806601D01*
X197860092Y-198048320D02*
X197897783Y-199127662D01*
X198044234Y-203034932D02*
X198081926Y-204114274D01*
X202261505Y-204888880D02*
X199033473Y-205001606D01*
X197897783Y-199127662D02*
X197468045Y-199142669D01*
D12*
G04 #@! TO.C,S0*
X217939453Y-116030707D02*
G75*
G03X217939453Y-116030707I-10500000J0D01*
G01*
G04 #@! TO.C,S1*
X225939453Y-91980707D02*
G75*
G03X225939453Y-91980707I-10500000J0D01*
G01*
G04 #@! TO.C,S2*
X225939453Y-68030707D02*
G75*
G03X225939453Y-68030707I-10500000J0D01*
G01*
G04 #@! TO.C,S3*
X223939453Y-46030707D02*
G75*
G03X223939453Y-46030707I-10500000J0D01*
G01*
G04 #@! TO.C,S4*
X216939453Y-25030707D02*
G75*
G03X216939453Y-25030707I-10500000J0D01*
G01*
G04 #@! TO.C,S5*
X200289453Y-46030707D02*
G75*
G03X200289453Y-46030707I-10500000J0D01*
G01*
G04 #@! TO.C,S6*
X201729453Y-69020707D02*
G75*
G03X201729453Y-69020707I-10500000J0D01*
G01*
G04 #@! TO.C,S7*
X199939453Y-92030707D02*
G75*
G03X199939453Y-92030707I-10500000J0D01*
G01*
G04 #@! TO.C,S8*
X194939453Y-24030707D02*
G75*
G03X194939453Y-24030707I-10500000J0D01*
G01*
G04 #@! TO.C,S9*
X175939453Y-38030707D02*
G75*
G03X175939453Y-38030707I-10500000J0D01*
G01*
G04 #@! TO.C,S10*
X181939453Y-61030707D02*
G75*
G03X181939453Y-61030707I-10500000J0D01*
G01*
G04 #@! TO.C,S11*
X160939453Y-58030707D02*
G75*
G03X160939453Y-58030707I-10500000J0D01*
G01*
G04 #@! TO.C,S12*
X173939453Y-81030707D02*
G75*
G03X173939453Y-81030707I-10500000J0D01*
G01*
G04 #@! TO.C,S13*
X150939453Y-78030707D02*
G75*
G03X150939453Y-78030707I-10500000J0D01*
G01*
G04 #@! TO.C,S14*
X195939453Y-116030707D02*
G75*
G03X195939453Y-116030707I-10500000J0D01*
G01*
G04 #@! TO.C,S15*
X172939453Y-102030707D02*
G75*
G03X172939453Y-102030707I-10500000J0D01*
G01*
G04 #@! TO.C,S16*
X148939453Y-99030707D02*
G75*
G03X148939453Y-99030707I-10500000J0D01*
G01*
G04 #@! TO.C,S17*
X149939453Y-120030707D02*
G75*
G03X149939453Y-120030707I-10500000J0D01*
G01*
G04 #@! TO.C,S18*
X173939453Y-124030707D02*
G75*
G03X173939453Y-124030707I-10500000J0D01*
G01*
G04 #@! TO.C,S19*
X178939453Y-145030707D02*
G75*
G03X178939453Y-145030707I-10500000J0D01*
G01*
G04 #@! TO.C,S20*
X154939453Y-142030707D02*
G75*
G03X154939453Y-142030707I-10500000J0D01*
G01*
G04 #@! TO.C,S21*
X163489453Y-162680707D02*
G75*
G03X163489453Y-162680707I-10500000J0D01*
G01*
G04 #@! TO.C,S22*
X166519453Y-183660707D02*
G75*
G03X166519453Y-183660707I-10500000J0D01*
G01*
G04 #@! TO.C,S23*
X167739453Y-204910707D02*
G75*
G03X167739453Y-204910707I-10500000J0D01*
G01*
G04 #@! TO.C,S24*
X205059453Y-225650707D02*
G75*
G03X205059453Y-225650707I-10500000J0D01*
G01*
G04 #@! TO.C,S25*
X208269453Y-246520707D02*
G75*
G03X208269453Y-246520707I-10500000J0D01*
G01*
G04 #@! TO.C,S26*
X197939453Y-265180707D02*
G75*
G03X197939453Y-265180707I-10500000J0D01*
G01*
G04 #@! TO.C,S27*
X176039453Y-265280707D02*
G75*
G03X176039453Y-265280707I-10500000J0D01*
G01*
G04 #@! TO.C,S28*
X164689453Y-247400707D02*
G75*
G03X164689453Y-247400707I-10500000J0D01*
G01*
G04 #@! TO.C,S29*
X186439453Y-242230707D02*
G75*
G03X186439453Y-242230707I-10500000J0D01*
G01*
G04 #@! TO.C,S30*
X165239453Y-226230707D02*
G75*
G03X165239453Y-226230707I-10500000J0D01*
G01*
G04 #@! TO.C,S31*
X185019453Y-218630707D02*
G75*
G03X185019453Y-218630707I-10500000J0D01*
G01*
G04 #@! TO.C,J2*
D13*
X201067551Y-190813874D02*
X201117377Y-191526419D01*
X201079839Y-191672250D01*
X200991477Y-191773900D01*
X200852289Y-191831368D01*
X200757283Y-191838012D01*
X201501722Y-190878984D02*
X201545903Y-190828159D01*
X201637588Y-190774013D01*
X201875103Y-190757404D01*
X201973431Y-190798264D01*
X202024256Y-190842445D01*
X202078402Y-190934129D01*
X202085046Y-191029135D01*
X202047508Y-191174966D01*
X201517332Y-191784864D01*
X202134872Y-191741681D01*
G04 #@! TO.C,J1*
X192260405Y-200802091D02*
X191546554Y-200827019D01*
X191402122Y-200784414D01*
X191303618Y-200692558D01*
X191251043Y-200551450D01*
X191247719Y-200456270D01*
X191295913Y-201836381D02*
X191275971Y-201265300D01*
X191285942Y-201550841D02*
X192285333Y-201515941D01*
X192139239Y-201425747D01*
X192040735Y-201333890D01*
X191989821Y-201240372D01*
G04 #@! TO.C,S0*
X206677548Y-126635468D02*
X206820405Y-126683087D01*
X207058500Y-126683087D01*
X207153738Y-126635468D01*
X207201357Y-126587849D01*
X207248976Y-126492611D01*
X207248976Y-126397373D01*
X207201357Y-126302135D01*
X207153738Y-126254516D01*
X207058500Y-126206897D01*
X206868024Y-126159278D01*
X206772786Y-126111659D01*
X206725167Y-126064040D01*
X206677548Y-125968802D01*
X206677548Y-125873564D01*
X206725167Y-125778326D01*
X206772786Y-125730707D01*
X206868024Y-125683087D01*
X207106119Y-125683087D01*
X207248976Y-125730707D01*
X207868024Y-125683087D02*
X207963262Y-125683087D01*
X208058500Y-125730707D01*
X208106119Y-125778326D01*
X208153738Y-125873564D01*
X208201357Y-126064040D01*
X208201357Y-126302135D01*
X208153738Y-126492611D01*
X208106119Y-126587849D01*
X208058500Y-126635468D01*
X207963262Y-126683087D01*
X207868024Y-126683087D01*
X207772786Y-126635468D01*
X207725167Y-126587849D01*
X207677548Y-126492611D01*
X207629929Y-126302135D01*
X207629929Y-126064040D01*
X207677548Y-125873564D01*
X207725167Y-125778326D01*
X207772786Y-125730707D01*
X207868024Y-125683087D01*
G04 #@! TO.C,S1*
X214677548Y-102585468D02*
X214820405Y-102633087D01*
X215058500Y-102633087D01*
X215153738Y-102585468D01*
X215201357Y-102537849D01*
X215248976Y-102442611D01*
X215248976Y-102347373D01*
X215201357Y-102252135D01*
X215153738Y-102204516D01*
X215058500Y-102156897D01*
X214868024Y-102109278D01*
X214772786Y-102061659D01*
X214725167Y-102014040D01*
X214677548Y-101918802D01*
X214677548Y-101823564D01*
X214725167Y-101728326D01*
X214772786Y-101680707D01*
X214868024Y-101633087D01*
X215106119Y-101633087D01*
X215248976Y-101680707D01*
X216201357Y-102633087D02*
X215629929Y-102633087D01*
X215915643Y-102633087D02*
X215915643Y-101633087D01*
X215820405Y-101775945D01*
X215725167Y-101871183D01*
X215629929Y-101918802D01*
G04 #@! TO.C,S2*
X214677548Y-78635468D02*
X214820405Y-78683087D01*
X215058500Y-78683087D01*
X215153738Y-78635468D01*
X215201357Y-78587849D01*
X215248976Y-78492611D01*
X215248976Y-78397373D01*
X215201357Y-78302135D01*
X215153738Y-78254516D01*
X215058500Y-78206897D01*
X214868024Y-78159278D01*
X214772786Y-78111659D01*
X214725167Y-78064040D01*
X214677548Y-77968802D01*
X214677548Y-77873564D01*
X214725167Y-77778326D01*
X214772786Y-77730707D01*
X214868024Y-77683087D01*
X215106119Y-77683087D01*
X215248976Y-77730707D01*
X215629929Y-77778326D02*
X215677548Y-77730707D01*
X215772786Y-77683087D01*
X216010881Y-77683087D01*
X216106119Y-77730707D01*
X216153738Y-77778326D01*
X216201357Y-77873564D01*
X216201357Y-77968802D01*
X216153738Y-78111659D01*
X215582310Y-78683087D01*
X216201357Y-78683087D01*
G04 #@! TO.C,S3*
X212677548Y-56635468D02*
X212820405Y-56683087D01*
X213058500Y-56683087D01*
X213153738Y-56635468D01*
X213201357Y-56587849D01*
X213248976Y-56492611D01*
X213248976Y-56397373D01*
X213201357Y-56302135D01*
X213153738Y-56254516D01*
X213058500Y-56206897D01*
X212868024Y-56159278D01*
X212772786Y-56111659D01*
X212725167Y-56064040D01*
X212677548Y-55968802D01*
X212677548Y-55873564D01*
X212725167Y-55778326D01*
X212772786Y-55730707D01*
X212868024Y-55683087D01*
X213106119Y-55683087D01*
X213248976Y-55730707D01*
X213582310Y-55683087D02*
X214201357Y-55683087D01*
X213868024Y-56064040D01*
X214010881Y-56064040D01*
X214106119Y-56111659D01*
X214153738Y-56159278D01*
X214201357Y-56254516D01*
X214201357Y-56492611D01*
X214153738Y-56587849D01*
X214106119Y-56635468D01*
X214010881Y-56683087D01*
X213725167Y-56683087D01*
X213629929Y-56635468D01*
X213582310Y-56587849D01*
G04 #@! TO.C,S4*
X205677548Y-35635468D02*
X205820405Y-35683087D01*
X206058500Y-35683087D01*
X206153738Y-35635468D01*
X206201357Y-35587849D01*
X206248976Y-35492611D01*
X206248976Y-35397373D01*
X206201357Y-35302135D01*
X206153738Y-35254516D01*
X206058500Y-35206897D01*
X205868024Y-35159278D01*
X205772786Y-35111659D01*
X205725167Y-35064040D01*
X205677548Y-34968802D01*
X205677548Y-34873564D01*
X205725167Y-34778326D01*
X205772786Y-34730707D01*
X205868024Y-34683087D01*
X206106119Y-34683087D01*
X206248976Y-34730707D01*
X207106119Y-35016421D02*
X207106119Y-35683087D01*
X206868024Y-34635468D02*
X206629929Y-35349754D01*
X207248976Y-35349754D01*
G04 #@! TO.C,S5*
X189027548Y-56635468D02*
X189170405Y-56683087D01*
X189408500Y-56683087D01*
X189503738Y-56635468D01*
X189551357Y-56587849D01*
X189598976Y-56492611D01*
X189598976Y-56397373D01*
X189551357Y-56302135D01*
X189503738Y-56254516D01*
X189408500Y-56206897D01*
X189218024Y-56159278D01*
X189122786Y-56111659D01*
X189075167Y-56064040D01*
X189027548Y-55968802D01*
X189027548Y-55873564D01*
X189075167Y-55778326D01*
X189122786Y-55730707D01*
X189218024Y-55683087D01*
X189456119Y-55683087D01*
X189598976Y-55730707D01*
X190503738Y-55683087D02*
X190027548Y-55683087D01*
X189979929Y-56159278D01*
X190027548Y-56111659D01*
X190122786Y-56064040D01*
X190360881Y-56064040D01*
X190456119Y-56111659D01*
X190503738Y-56159278D01*
X190551357Y-56254516D01*
X190551357Y-56492611D01*
X190503738Y-56587849D01*
X190456119Y-56635468D01*
X190360881Y-56683087D01*
X190122786Y-56683087D01*
X190027548Y-56635468D01*
X189979929Y-56587849D01*
G04 #@! TO.C,S6*
X190467548Y-79625468D02*
X190610405Y-79673087D01*
X190848500Y-79673087D01*
X190943738Y-79625468D01*
X190991357Y-79577849D01*
X191038976Y-79482611D01*
X191038976Y-79387373D01*
X190991357Y-79292135D01*
X190943738Y-79244516D01*
X190848500Y-79196897D01*
X190658024Y-79149278D01*
X190562786Y-79101659D01*
X190515167Y-79054040D01*
X190467548Y-78958802D01*
X190467548Y-78863564D01*
X190515167Y-78768326D01*
X190562786Y-78720707D01*
X190658024Y-78673087D01*
X190896119Y-78673087D01*
X191038976Y-78720707D01*
X191896119Y-78673087D02*
X191705643Y-78673087D01*
X191610405Y-78720707D01*
X191562786Y-78768326D01*
X191467548Y-78911183D01*
X191419929Y-79101659D01*
X191419929Y-79482611D01*
X191467548Y-79577849D01*
X191515167Y-79625468D01*
X191610405Y-79673087D01*
X191800881Y-79673087D01*
X191896119Y-79625468D01*
X191943738Y-79577849D01*
X191991357Y-79482611D01*
X191991357Y-79244516D01*
X191943738Y-79149278D01*
X191896119Y-79101659D01*
X191800881Y-79054040D01*
X191610405Y-79054040D01*
X191515167Y-79101659D01*
X191467548Y-79149278D01*
X191419929Y-79244516D01*
G04 #@! TO.C,S7*
X188677548Y-102635468D02*
X188820405Y-102683087D01*
X189058500Y-102683087D01*
X189153738Y-102635468D01*
X189201357Y-102587849D01*
X189248976Y-102492611D01*
X189248976Y-102397373D01*
X189201357Y-102302135D01*
X189153738Y-102254516D01*
X189058500Y-102206897D01*
X188868024Y-102159278D01*
X188772786Y-102111659D01*
X188725167Y-102064040D01*
X188677548Y-101968802D01*
X188677548Y-101873564D01*
X188725167Y-101778326D01*
X188772786Y-101730707D01*
X188868024Y-101683087D01*
X189106119Y-101683087D01*
X189248976Y-101730707D01*
X189582310Y-101683087D02*
X190248976Y-101683087D01*
X189820405Y-102683087D01*
G04 #@! TO.C,S8*
X183677548Y-34635468D02*
X183820405Y-34683087D01*
X184058500Y-34683087D01*
X184153738Y-34635468D01*
X184201357Y-34587849D01*
X184248976Y-34492611D01*
X184248976Y-34397373D01*
X184201357Y-34302135D01*
X184153738Y-34254516D01*
X184058500Y-34206897D01*
X183868024Y-34159278D01*
X183772786Y-34111659D01*
X183725167Y-34064040D01*
X183677548Y-33968802D01*
X183677548Y-33873564D01*
X183725167Y-33778326D01*
X183772786Y-33730707D01*
X183868024Y-33683087D01*
X184106119Y-33683087D01*
X184248976Y-33730707D01*
X184820405Y-34111659D02*
X184725167Y-34064040D01*
X184677548Y-34016421D01*
X184629929Y-33921183D01*
X184629929Y-33873564D01*
X184677548Y-33778326D01*
X184725167Y-33730707D01*
X184820405Y-33683087D01*
X185010881Y-33683087D01*
X185106119Y-33730707D01*
X185153738Y-33778326D01*
X185201357Y-33873564D01*
X185201357Y-33921183D01*
X185153738Y-34016421D01*
X185106119Y-34064040D01*
X185010881Y-34111659D01*
X184820405Y-34111659D01*
X184725167Y-34159278D01*
X184677548Y-34206897D01*
X184629929Y-34302135D01*
X184629929Y-34492611D01*
X184677548Y-34587849D01*
X184725167Y-34635468D01*
X184820405Y-34683087D01*
X185010881Y-34683087D01*
X185106119Y-34635468D01*
X185153738Y-34587849D01*
X185201357Y-34492611D01*
X185201357Y-34302135D01*
X185153738Y-34206897D01*
X185106119Y-34159278D01*
X185010881Y-34111659D01*
G04 #@! TO.C,S9*
X164677548Y-48635468D02*
X164820405Y-48683087D01*
X165058500Y-48683087D01*
X165153738Y-48635468D01*
X165201357Y-48587849D01*
X165248976Y-48492611D01*
X165248976Y-48397373D01*
X165201357Y-48302135D01*
X165153738Y-48254516D01*
X165058500Y-48206897D01*
X164868024Y-48159278D01*
X164772786Y-48111659D01*
X164725167Y-48064040D01*
X164677548Y-47968802D01*
X164677548Y-47873564D01*
X164725167Y-47778326D01*
X164772786Y-47730707D01*
X164868024Y-47683087D01*
X165106119Y-47683087D01*
X165248976Y-47730707D01*
X165725167Y-48683087D02*
X165915643Y-48683087D01*
X166010881Y-48635468D01*
X166058500Y-48587849D01*
X166153738Y-48444992D01*
X166201357Y-48254516D01*
X166201357Y-47873564D01*
X166153738Y-47778326D01*
X166106119Y-47730707D01*
X166010881Y-47683087D01*
X165820405Y-47683087D01*
X165725167Y-47730707D01*
X165677548Y-47778326D01*
X165629929Y-47873564D01*
X165629929Y-48111659D01*
X165677548Y-48206897D01*
X165725167Y-48254516D01*
X165820405Y-48302135D01*
X166010881Y-48302135D01*
X166106119Y-48254516D01*
X166153738Y-48206897D01*
X166201357Y-48111659D01*
G04 #@! TO.C,S10*
X170201357Y-71635468D02*
X170344214Y-71683087D01*
X170582310Y-71683087D01*
X170677548Y-71635468D01*
X170725167Y-71587849D01*
X170772786Y-71492611D01*
X170772786Y-71397373D01*
X170725167Y-71302135D01*
X170677548Y-71254516D01*
X170582310Y-71206897D01*
X170391833Y-71159278D01*
X170296595Y-71111659D01*
X170248976Y-71064040D01*
X170201357Y-70968802D01*
X170201357Y-70873564D01*
X170248976Y-70778326D01*
X170296595Y-70730707D01*
X170391833Y-70683087D01*
X170629929Y-70683087D01*
X170772786Y-70730707D01*
X171725167Y-71683087D02*
X171153738Y-71683087D01*
X171439453Y-71683087D02*
X171439453Y-70683087D01*
X171344214Y-70825945D01*
X171248976Y-70921183D01*
X171153738Y-70968802D01*
X172344214Y-70683087D02*
X172439453Y-70683087D01*
X172534691Y-70730707D01*
X172582310Y-70778326D01*
X172629929Y-70873564D01*
X172677548Y-71064040D01*
X172677548Y-71302135D01*
X172629929Y-71492611D01*
X172582310Y-71587849D01*
X172534691Y-71635468D01*
X172439453Y-71683087D01*
X172344214Y-71683087D01*
X172248976Y-71635468D01*
X172201357Y-71587849D01*
X172153738Y-71492611D01*
X172106119Y-71302135D01*
X172106119Y-71064040D01*
X172153738Y-70873564D01*
X172201357Y-70778326D01*
X172248976Y-70730707D01*
X172344214Y-70683087D01*
G04 #@! TO.C,S11*
X149201357Y-68635468D02*
X149344214Y-68683087D01*
X149582310Y-68683087D01*
X149677548Y-68635468D01*
X149725167Y-68587849D01*
X149772786Y-68492611D01*
X149772786Y-68397373D01*
X149725167Y-68302135D01*
X149677548Y-68254516D01*
X149582310Y-68206897D01*
X149391833Y-68159278D01*
X149296595Y-68111659D01*
X149248976Y-68064040D01*
X149201357Y-67968802D01*
X149201357Y-67873564D01*
X149248976Y-67778326D01*
X149296595Y-67730707D01*
X149391833Y-67683087D01*
X149629929Y-67683087D01*
X149772786Y-67730707D01*
X150725167Y-68683087D02*
X150153738Y-68683087D01*
X150439453Y-68683087D02*
X150439453Y-67683087D01*
X150344214Y-67825945D01*
X150248976Y-67921183D01*
X150153738Y-67968802D01*
X151677548Y-68683087D02*
X151106119Y-68683087D01*
X151391833Y-68683087D02*
X151391833Y-67683087D01*
X151296595Y-67825945D01*
X151201357Y-67921183D01*
X151106119Y-67968802D01*
G04 #@! TO.C,S12*
X162201357Y-91635468D02*
X162344214Y-91683087D01*
X162582310Y-91683087D01*
X162677548Y-91635468D01*
X162725167Y-91587849D01*
X162772786Y-91492611D01*
X162772786Y-91397373D01*
X162725167Y-91302135D01*
X162677548Y-91254516D01*
X162582310Y-91206897D01*
X162391833Y-91159278D01*
X162296595Y-91111659D01*
X162248976Y-91064040D01*
X162201357Y-90968802D01*
X162201357Y-90873564D01*
X162248976Y-90778326D01*
X162296595Y-90730707D01*
X162391833Y-90683087D01*
X162629929Y-90683087D01*
X162772786Y-90730707D01*
X163725167Y-91683087D02*
X163153738Y-91683087D01*
X163439453Y-91683087D02*
X163439453Y-90683087D01*
X163344214Y-90825945D01*
X163248976Y-90921183D01*
X163153738Y-90968802D01*
X164106119Y-90778326D02*
X164153738Y-90730707D01*
X164248976Y-90683087D01*
X164487072Y-90683087D01*
X164582310Y-90730707D01*
X164629929Y-90778326D01*
X164677548Y-90873564D01*
X164677548Y-90968802D01*
X164629929Y-91111659D01*
X164058500Y-91683087D01*
X164677548Y-91683087D01*
G04 #@! TO.C,S13*
X139201357Y-88635468D02*
X139344214Y-88683087D01*
X139582310Y-88683087D01*
X139677548Y-88635468D01*
X139725167Y-88587849D01*
X139772786Y-88492611D01*
X139772786Y-88397373D01*
X139725167Y-88302135D01*
X139677548Y-88254516D01*
X139582310Y-88206897D01*
X139391833Y-88159278D01*
X139296595Y-88111659D01*
X139248976Y-88064040D01*
X139201357Y-87968802D01*
X139201357Y-87873564D01*
X139248976Y-87778326D01*
X139296595Y-87730707D01*
X139391833Y-87683087D01*
X139629929Y-87683087D01*
X139772786Y-87730707D01*
X140725167Y-88683087D02*
X140153738Y-88683087D01*
X140439453Y-88683087D02*
X140439453Y-87683087D01*
X140344214Y-87825945D01*
X140248976Y-87921183D01*
X140153738Y-87968802D01*
X141058500Y-87683087D02*
X141677548Y-87683087D01*
X141344214Y-88064040D01*
X141487072Y-88064040D01*
X141582310Y-88111659D01*
X141629929Y-88159278D01*
X141677548Y-88254516D01*
X141677548Y-88492611D01*
X141629929Y-88587849D01*
X141582310Y-88635468D01*
X141487072Y-88683087D01*
X141201357Y-88683087D01*
X141106119Y-88635468D01*
X141058500Y-88587849D01*
G04 #@! TO.C,S14*
X184201357Y-126635468D02*
X184344214Y-126683087D01*
X184582310Y-126683087D01*
X184677548Y-126635468D01*
X184725167Y-126587849D01*
X184772786Y-126492611D01*
X184772786Y-126397373D01*
X184725167Y-126302135D01*
X184677548Y-126254516D01*
X184582310Y-126206897D01*
X184391833Y-126159278D01*
X184296595Y-126111659D01*
X184248976Y-126064040D01*
X184201357Y-125968802D01*
X184201357Y-125873564D01*
X184248976Y-125778326D01*
X184296595Y-125730707D01*
X184391833Y-125683087D01*
X184629929Y-125683087D01*
X184772786Y-125730707D01*
X185725167Y-126683087D02*
X185153738Y-126683087D01*
X185439453Y-126683087D02*
X185439453Y-125683087D01*
X185344214Y-125825945D01*
X185248976Y-125921183D01*
X185153738Y-125968802D01*
X186582310Y-126016421D02*
X186582310Y-126683087D01*
X186344214Y-125635468D02*
X186106119Y-126349754D01*
X186725167Y-126349754D01*
G04 #@! TO.C,S15*
X161201357Y-112635468D02*
X161344214Y-112683087D01*
X161582310Y-112683087D01*
X161677548Y-112635468D01*
X161725167Y-112587849D01*
X161772786Y-112492611D01*
X161772786Y-112397373D01*
X161725167Y-112302135D01*
X161677548Y-112254516D01*
X161582310Y-112206897D01*
X161391833Y-112159278D01*
X161296595Y-112111659D01*
X161248976Y-112064040D01*
X161201357Y-111968802D01*
X161201357Y-111873564D01*
X161248976Y-111778326D01*
X161296595Y-111730707D01*
X161391833Y-111683087D01*
X161629929Y-111683087D01*
X161772786Y-111730707D01*
X162725167Y-112683087D02*
X162153738Y-112683087D01*
X162439453Y-112683087D02*
X162439453Y-111683087D01*
X162344214Y-111825945D01*
X162248976Y-111921183D01*
X162153738Y-111968802D01*
X163629929Y-111683087D02*
X163153738Y-111683087D01*
X163106119Y-112159278D01*
X163153738Y-112111659D01*
X163248976Y-112064040D01*
X163487072Y-112064040D01*
X163582310Y-112111659D01*
X163629929Y-112159278D01*
X163677548Y-112254516D01*
X163677548Y-112492611D01*
X163629929Y-112587849D01*
X163582310Y-112635468D01*
X163487072Y-112683087D01*
X163248976Y-112683087D01*
X163153738Y-112635468D01*
X163106119Y-112587849D01*
G04 #@! TO.C,S16*
X137201357Y-109635468D02*
X137344214Y-109683087D01*
X137582310Y-109683087D01*
X137677548Y-109635468D01*
X137725167Y-109587849D01*
X137772786Y-109492611D01*
X137772786Y-109397373D01*
X137725167Y-109302135D01*
X137677548Y-109254516D01*
X137582310Y-109206897D01*
X137391833Y-109159278D01*
X137296595Y-109111659D01*
X137248976Y-109064040D01*
X137201357Y-108968802D01*
X137201357Y-108873564D01*
X137248976Y-108778326D01*
X137296595Y-108730707D01*
X137391833Y-108683087D01*
X137629929Y-108683087D01*
X137772786Y-108730707D01*
X138725167Y-109683087D02*
X138153738Y-109683087D01*
X138439453Y-109683087D02*
X138439453Y-108683087D01*
X138344214Y-108825945D01*
X138248976Y-108921183D01*
X138153738Y-108968802D01*
X139582310Y-108683087D02*
X139391833Y-108683087D01*
X139296595Y-108730707D01*
X139248976Y-108778326D01*
X139153738Y-108921183D01*
X139106119Y-109111659D01*
X139106119Y-109492611D01*
X139153738Y-109587849D01*
X139201357Y-109635468D01*
X139296595Y-109683087D01*
X139487072Y-109683087D01*
X139582310Y-109635468D01*
X139629929Y-109587849D01*
X139677548Y-109492611D01*
X139677548Y-109254516D01*
X139629929Y-109159278D01*
X139582310Y-109111659D01*
X139487072Y-109064040D01*
X139296595Y-109064040D01*
X139201357Y-109111659D01*
X139153738Y-109159278D01*
X139106119Y-109254516D01*
G04 #@! TO.C,S17*
X138201357Y-130635468D02*
X138344214Y-130683087D01*
X138582310Y-130683087D01*
X138677548Y-130635468D01*
X138725167Y-130587849D01*
X138772786Y-130492611D01*
X138772786Y-130397373D01*
X138725167Y-130302135D01*
X138677548Y-130254516D01*
X138582310Y-130206897D01*
X138391833Y-130159278D01*
X138296595Y-130111659D01*
X138248976Y-130064040D01*
X138201357Y-129968802D01*
X138201357Y-129873564D01*
X138248976Y-129778326D01*
X138296595Y-129730707D01*
X138391833Y-129683087D01*
X138629929Y-129683087D01*
X138772786Y-129730707D01*
X139725167Y-130683087D02*
X139153738Y-130683087D01*
X139439453Y-130683087D02*
X139439453Y-129683087D01*
X139344214Y-129825945D01*
X139248976Y-129921183D01*
X139153738Y-129968802D01*
X140058500Y-129683087D02*
X140725167Y-129683087D01*
X140296595Y-130683087D01*
G04 #@! TO.C,S18*
X162201357Y-134635468D02*
X162344214Y-134683087D01*
X162582310Y-134683087D01*
X162677548Y-134635468D01*
X162725167Y-134587849D01*
X162772786Y-134492611D01*
X162772786Y-134397373D01*
X162725167Y-134302135D01*
X162677548Y-134254516D01*
X162582310Y-134206897D01*
X162391833Y-134159278D01*
X162296595Y-134111659D01*
X162248976Y-134064040D01*
X162201357Y-133968802D01*
X162201357Y-133873564D01*
X162248976Y-133778326D01*
X162296595Y-133730707D01*
X162391833Y-133683087D01*
X162629929Y-133683087D01*
X162772786Y-133730707D01*
X163725167Y-134683087D02*
X163153738Y-134683087D01*
X163439453Y-134683087D02*
X163439453Y-133683087D01*
X163344214Y-133825945D01*
X163248976Y-133921183D01*
X163153738Y-133968802D01*
X164296595Y-134111659D02*
X164201357Y-134064040D01*
X164153738Y-134016421D01*
X164106119Y-133921183D01*
X164106119Y-133873564D01*
X164153738Y-133778326D01*
X164201357Y-133730707D01*
X164296595Y-133683087D01*
X164487072Y-133683087D01*
X164582310Y-133730707D01*
X164629929Y-133778326D01*
X164677548Y-133873564D01*
X164677548Y-133921183D01*
X164629929Y-134016421D01*
X164582310Y-134064040D01*
X164487072Y-134111659D01*
X164296595Y-134111659D01*
X164201357Y-134159278D01*
X164153738Y-134206897D01*
X164106119Y-134302135D01*
X164106119Y-134492611D01*
X164153738Y-134587849D01*
X164201357Y-134635468D01*
X164296595Y-134683087D01*
X164487072Y-134683087D01*
X164582310Y-134635468D01*
X164629929Y-134587849D01*
X164677548Y-134492611D01*
X164677548Y-134302135D01*
X164629929Y-134206897D01*
X164582310Y-134159278D01*
X164487072Y-134111659D01*
G04 #@! TO.C,S19*
X167201357Y-155635468D02*
X167344214Y-155683087D01*
X167582310Y-155683087D01*
X167677548Y-155635468D01*
X167725167Y-155587849D01*
X167772786Y-155492611D01*
X167772786Y-155397373D01*
X167725167Y-155302135D01*
X167677548Y-155254516D01*
X167582310Y-155206897D01*
X167391833Y-155159278D01*
X167296595Y-155111659D01*
X167248976Y-155064040D01*
X167201357Y-154968802D01*
X167201357Y-154873564D01*
X167248976Y-154778326D01*
X167296595Y-154730707D01*
X167391833Y-154683087D01*
X167629929Y-154683087D01*
X167772786Y-154730707D01*
X168725167Y-155683087D02*
X168153738Y-155683087D01*
X168439453Y-155683087D02*
X168439453Y-154683087D01*
X168344214Y-154825945D01*
X168248976Y-154921183D01*
X168153738Y-154968802D01*
X169201357Y-155683087D02*
X169391833Y-155683087D01*
X169487072Y-155635468D01*
X169534691Y-155587849D01*
X169629929Y-155444992D01*
X169677548Y-155254516D01*
X169677548Y-154873564D01*
X169629929Y-154778326D01*
X169582310Y-154730707D01*
X169487072Y-154683087D01*
X169296595Y-154683087D01*
X169201357Y-154730707D01*
X169153738Y-154778326D01*
X169106119Y-154873564D01*
X169106119Y-155111659D01*
X169153738Y-155206897D01*
X169201357Y-155254516D01*
X169296595Y-155302135D01*
X169487072Y-155302135D01*
X169582310Y-155254516D01*
X169629929Y-155206897D01*
X169677548Y-155111659D01*
G04 #@! TO.C,S20*
X143201357Y-152635468D02*
X143344214Y-152683087D01*
X143582310Y-152683087D01*
X143677548Y-152635468D01*
X143725167Y-152587849D01*
X143772786Y-152492611D01*
X143772786Y-152397373D01*
X143725167Y-152302135D01*
X143677548Y-152254516D01*
X143582310Y-152206897D01*
X143391833Y-152159278D01*
X143296595Y-152111659D01*
X143248976Y-152064040D01*
X143201357Y-151968802D01*
X143201357Y-151873564D01*
X143248976Y-151778326D01*
X143296595Y-151730707D01*
X143391833Y-151683087D01*
X143629929Y-151683087D01*
X143772786Y-151730707D01*
X144153738Y-151778326D02*
X144201357Y-151730707D01*
X144296595Y-151683087D01*
X144534691Y-151683087D01*
X144629929Y-151730707D01*
X144677548Y-151778326D01*
X144725167Y-151873564D01*
X144725167Y-151968802D01*
X144677548Y-152111659D01*
X144106119Y-152683087D01*
X144725167Y-152683087D01*
X145344214Y-151683087D02*
X145439453Y-151683087D01*
X145534691Y-151730707D01*
X145582310Y-151778326D01*
X145629929Y-151873564D01*
X145677548Y-152064040D01*
X145677548Y-152302135D01*
X145629929Y-152492611D01*
X145582310Y-152587849D01*
X145534691Y-152635468D01*
X145439453Y-152683087D01*
X145344214Y-152683087D01*
X145248976Y-152635468D01*
X145201357Y-152587849D01*
X145153738Y-152492611D01*
X145106119Y-152302135D01*
X145106119Y-152064040D01*
X145153738Y-151873564D01*
X145201357Y-151778326D01*
X145248976Y-151730707D01*
X145344214Y-151683087D01*
G04 #@! TO.C,S21*
X151751357Y-173285468D02*
X151894214Y-173333087D01*
X152132310Y-173333087D01*
X152227548Y-173285468D01*
X152275167Y-173237849D01*
X152322786Y-173142611D01*
X152322786Y-173047373D01*
X152275167Y-172952135D01*
X152227548Y-172904516D01*
X152132310Y-172856897D01*
X151941833Y-172809278D01*
X151846595Y-172761659D01*
X151798976Y-172714040D01*
X151751357Y-172618802D01*
X151751357Y-172523564D01*
X151798976Y-172428326D01*
X151846595Y-172380707D01*
X151941833Y-172333087D01*
X152179929Y-172333087D01*
X152322786Y-172380707D01*
X152703738Y-172428326D02*
X152751357Y-172380707D01*
X152846595Y-172333087D01*
X153084691Y-172333087D01*
X153179929Y-172380707D01*
X153227548Y-172428326D01*
X153275167Y-172523564D01*
X153275167Y-172618802D01*
X153227548Y-172761659D01*
X152656119Y-173333087D01*
X153275167Y-173333087D01*
X154227548Y-173333087D02*
X153656119Y-173333087D01*
X153941833Y-173333087D02*
X153941833Y-172333087D01*
X153846595Y-172475945D01*
X153751357Y-172571183D01*
X153656119Y-172618802D01*
G04 #@! TO.C,S22*
X154781357Y-194265468D02*
X154924214Y-194313087D01*
X155162310Y-194313087D01*
X155257548Y-194265468D01*
X155305167Y-194217849D01*
X155352786Y-194122611D01*
X155352786Y-194027373D01*
X155305167Y-193932135D01*
X155257548Y-193884516D01*
X155162310Y-193836897D01*
X154971833Y-193789278D01*
X154876595Y-193741659D01*
X154828976Y-193694040D01*
X154781357Y-193598802D01*
X154781357Y-193503564D01*
X154828976Y-193408326D01*
X154876595Y-193360707D01*
X154971833Y-193313087D01*
X155209929Y-193313087D01*
X155352786Y-193360707D01*
X155733738Y-193408326D02*
X155781357Y-193360707D01*
X155876595Y-193313087D01*
X156114691Y-193313087D01*
X156209929Y-193360707D01*
X156257548Y-193408326D01*
X156305167Y-193503564D01*
X156305167Y-193598802D01*
X156257548Y-193741659D01*
X155686119Y-194313087D01*
X156305167Y-194313087D01*
X156686119Y-193408326D02*
X156733738Y-193360707D01*
X156828976Y-193313087D01*
X157067072Y-193313087D01*
X157162310Y-193360707D01*
X157209929Y-193408326D01*
X157257548Y-193503564D01*
X157257548Y-193598802D01*
X157209929Y-193741659D01*
X156638500Y-194313087D01*
X157257548Y-194313087D01*
G04 #@! TO.C,S23*
X156001357Y-215515468D02*
X156144214Y-215563087D01*
X156382310Y-215563087D01*
X156477548Y-215515468D01*
X156525167Y-215467849D01*
X156572786Y-215372611D01*
X156572786Y-215277373D01*
X156525167Y-215182135D01*
X156477548Y-215134516D01*
X156382310Y-215086897D01*
X156191833Y-215039278D01*
X156096595Y-214991659D01*
X156048976Y-214944040D01*
X156001357Y-214848802D01*
X156001357Y-214753564D01*
X156048976Y-214658326D01*
X156096595Y-214610707D01*
X156191833Y-214563087D01*
X156429929Y-214563087D01*
X156572786Y-214610707D01*
X156953738Y-214658326D02*
X157001357Y-214610707D01*
X157096595Y-214563087D01*
X157334691Y-214563087D01*
X157429929Y-214610707D01*
X157477548Y-214658326D01*
X157525167Y-214753564D01*
X157525167Y-214848802D01*
X157477548Y-214991659D01*
X156906119Y-215563087D01*
X157525167Y-215563087D01*
X157858500Y-214563087D02*
X158477548Y-214563087D01*
X158144214Y-214944040D01*
X158287072Y-214944040D01*
X158382310Y-214991659D01*
X158429929Y-215039278D01*
X158477548Y-215134516D01*
X158477548Y-215372611D01*
X158429929Y-215467849D01*
X158382310Y-215515468D01*
X158287072Y-215563087D01*
X158001357Y-215563087D01*
X157906119Y-215515468D01*
X157858500Y-215467849D01*
G04 #@! TO.C,S24*
X193321357Y-236255468D02*
X193464214Y-236303087D01*
X193702310Y-236303087D01*
X193797548Y-236255468D01*
X193845167Y-236207849D01*
X193892786Y-236112611D01*
X193892786Y-236017373D01*
X193845167Y-235922135D01*
X193797548Y-235874516D01*
X193702310Y-235826897D01*
X193511833Y-235779278D01*
X193416595Y-235731659D01*
X193368976Y-235684040D01*
X193321357Y-235588802D01*
X193321357Y-235493564D01*
X193368976Y-235398326D01*
X193416595Y-235350707D01*
X193511833Y-235303087D01*
X193749929Y-235303087D01*
X193892786Y-235350707D01*
X194273738Y-235398326D02*
X194321357Y-235350707D01*
X194416595Y-235303087D01*
X194654691Y-235303087D01*
X194749929Y-235350707D01*
X194797548Y-235398326D01*
X194845167Y-235493564D01*
X194845167Y-235588802D01*
X194797548Y-235731659D01*
X194226119Y-236303087D01*
X194845167Y-236303087D01*
X195702310Y-235636421D02*
X195702310Y-236303087D01*
X195464214Y-235255468D02*
X195226119Y-235969754D01*
X195845167Y-235969754D01*
G04 #@! TO.C,S25*
X196531357Y-257125468D02*
X196674214Y-257173087D01*
X196912310Y-257173087D01*
X197007548Y-257125468D01*
X197055167Y-257077849D01*
X197102786Y-256982611D01*
X197102786Y-256887373D01*
X197055167Y-256792135D01*
X197007548Y-256744516D01*
X196912310Y-256696897D01*
X196721833Y-256649278D01*
X196626595Y-256601659D01*
X196578976Y-256554040D01*
X196531357Y-256458802D01*
X196531357Y-256363564D01*
X196578976Y-256268326D01*
X196626595Y-256220707D01*
X196721833Y-256173087D01*
X196959929Y-256173087D01*
X197102786Y-256220707D01*
X197483738Y-256268326D02*
X197531357Y-256220707D01*
X197626595Y-256173087D01*
X197864691Y-256173087D01*
X197959929Y-256220707D01*
X198007548Y-256268326D01*
X198055167Y-256363564D01*
X198055167Y-256458802D01*
X198007548Y-256601659D01*
X197436119Y-257173087D01*
X198055167Y-257173087D01*
X198959929Y-256173087D02*
X198483738Y-256173087D01*
X198436119Y-256649278D01*
X198483738Y-256601659D01*
X198578976Y-256554040D01*
X198817072Y-256554040D01*
X198912310Y-256601659D01*
X198959929Y-256649278D01*
X199007548Y-256744516D01*
X199007548Y-256982611D01*
X198959929Y-257077849D01*
X198912310Y-257125468D01*
X198817072Y-257173087D01*
X198578976Y-257173087D01*
X198483738Y-257125468D01*
X198436119Y-257077849D01*
G04 #@! TO.C,S26*
X186201357Y-275785468D02*
X186344214Y-275833087D01*
X186582310Y-275833087D01*
X186677548Y-275785468D01*
X186725167Y-275737849D01*
X186772786Y-275642611D01*
X186772786Y-275547373D01*
X186725167Y-275452135D01*
X186677548Y-275404516D01*
X186582310Y-275356897D01*
X186391833Y-275309278D01*
X186296595Y-275261659D01*
X186248976Y-275214040D01*
X186201357Y-275118802D01*
X186201357Y-275023564D01*
X186248976Y-274928326D01*
X186296595Y-274880707D01*
X186391833Y-274833087D01*
X186629929Y-274833087D01*
X186772786Y-274880707D01*
X187153738Y-274928326D02*
X187201357Y-274880707D01*
X187296595Y-274833087D01*
X187534691Y-274833087D01*
X187629929Y-274880707D01*
X187677548Y-274928326D01*
X187725167Y-275023564D01*
X187725167Y-275118802D01*
X187677548Y-275261659D01*
X187106119Y-275833087D01*
X187725167Y-275833087D01*
X188582310Y-274833087D02*
X188391833Y-274833087D01*
X188296595Y-274880707D01*
X188248976Y-274928326D01*
X188153738Y-275071183D01*
X188106119Y-275261659D01*
X188106119Y-275642611D01*
X188153738Y-275737849D01*
X188201357Y-275785468D01*
X188296595Y-275833087D01*
X188487072Y-275833087D01*
X188582310Y-275785468D01*
X188629929Y-275737849D01*
X188677548Y-275642611D01*
X188677548Y-275404516D01*
X188629929Y-275309278D01*
X188582310Y-275261659D01*
X188487072Y-275214040D01*
X188296595Y-275214040D01*
X188201357Y-275261659D01*
X188153738Y-275309278D01*
X188106119Y-275404516D01*
G04 #@! TO.C,S27*
X164301357Y-275885468D02*
X164444214Y-275933087D01*
X164682310Y-275933087D01*
X164777548Y-275885468D01*
X164825167Y-275837849D01*
X164872786Y-275742611D01*
X164872786Y-275647373D01*
X164825167Y-275552135D01*
X164777548Y-275504516D01*
X164682310Y-275456897D01*
X164491833Y-275409278D01*
X164396595Y-275361659D01*
X164348976Y-275314040D01*
X164301357Y-275218802D01*
X164301357Y-275123564D01*
X164348976Y-275028326D01*
X164396595Y-274980707D01*
X164491833Y-274933087D01*
X164729929Y-274933087D01*
X164872786Y-274980707D01*
X165253738Y-275028326D02*
X165301357Y-274980707D01*
X165396595Y-274933087D01*
X165634691Y-274933087D01*
X165729929Y-274980707D01*
X165777548Y-275028326D01*
X165825167Y-275123564D01*
X165825167Y-275218802D01*
X165777548Y-275361659D01*
X165206119Y-275933087D01*
X165825167Y-275933087D01*
X166158500Y-274933087D02*
X166825167Y-274933087D01*
X166396595Y-275933087D01*
G04 #@! TO.C,S28*
X152951357Y-258005468D02*
X153094214Y-258053087D01*
X153332310Y-258053087D01*
X153427548Y-258005468D01*
X153475167Y-257957849D01*
X153522786Y-257862611D01*
X153522786Y-257767373D01*
X153475167Y-257672135D01*
X153427548Y-257624516D01*
X153332310Y-257576897D01*
X153141833Y-257529278D01*
X153046595Y-257481659D01*
X152998976Y-257434040D01*
X152951357Y-257338802D01*
X152951357Y-257243564D01*
X152998976Y-257148326D01*
X153046595Y-257100707D01*
X153141833Y-257053087D01*
X153379929Y-257053087D01*
X153522786Y-257100707D01*
X153903738Y-257148326D02*
X153951357Y-257100707D01*
X154046595Y-257053087D01*
X154284691Y-257053087D01*
X154379929Y-257100707D01*
X154427548Y-257148326D01*
X154475167Y-257243564D01*
X154475167Y-257338802D01*
X154427548Y-257481659D01*
X153856119Y-258053087D01*
X154475167Y-258053087D01*
X155046595Y-257481659D02*
X154951357Y-257434040D01*
X154903738Y-257386421D01*
X154856119Y-257291183D01*
X154856119Y-257243564D01*
X154903738Y-257148326D01*
X154951357Y-257100707D01*
X155046595Y-257053087D01*
X155237072Y-257053087D01*
X155332310Y-257100707D01*
X155379929Y-257148326D01*
X155427548Y-257243564D01*
X155427548Y-257291183D01*
X155379929Y-257386421D01*
X155332310Y-257434040D01*
X155237072Y-257481659D01*
X155046595Y-257481659D01*
X154951357Y-257529278D01*
X154903738Y-257576897D01*
X154856119Y-257672135D01*
X154856119Y-257862611D01*
X154903738Y-257957849D01*
X154951357Y-258005468D01*
X155046595Y-258053087D01*
X155237072Y-258053087D01*
X155332310Y-258005468D01*
X155379929Y-257957849D01*
X155427548Y-257862611D01*
X155427548Y-257672135D01*
X155379929Y-257576897D01*
X155332310Y-257529278D01*
X155237072Y-257481659D01*
G04 #@! TO.C,S29*
X174701357Y-252835468D02*
X174844214Y-252883087D01*
X175082310Y-252883087D01*
X175177548Y-252835468D01*
X175225167Y-252787849D01*
X175272786Y-252692611D01*
X175272786Y-252597373D01*
X175225167Y-252502135D01*
X175177548Y-252454516D01*
X175082310Y-252406897D01*
X174891833Y-252359278D01*
X174796595Y-252311659D01*
X174748976Y-252264040D01*
X174701357Y-252168802D01*
X174701357Y-252073564D01*
X174748976Y-251978326D01*
X174796595Y-251930707D01*
X174891833Y-251883087D01*
X175129929Y-251883087D01*
X175272786Y-251930707D01*
X175653738Y-251978326D02*
X175701357Y-251930707D01*
X175796595Y-251883087D01*
X176034691Y-251883087D01*
X176129929Y-251930707D01*
X176177548Y-251978326D01*
X176225167Y-252073564D01*
X176225167Y-252168802D01*
X176177548Y-252311659D01*
X175606119Y-252883087D01*
X176225167Y-252883087D01*
X176701357Y-252883087D02*
X176891833Y-252883087D01*
X176987072Y-252835468D01*
X177034691Y-252787849D01*
X177129929Y-252644992D01*
X177177548Y-252454516D01*
X177177548Y-252073564D01*
X177129929Y-251978326D01*
X177082310Y-251930707D01*
X176987072Y-251883087D01*
X176796595Y-251883087D01*
X176701357Y-251930707D01*
X176653738Y-251978326D01*
X176606119Y-252073564D01*
X176606119Y-252311659D01*
X176653738Y-252406897D01*
X176701357Y-252454516D01*
X176796595Y-252502135D01*
X176987072Y-252502135D01*
X177082310Y-252454516D01*
X177129929Y-252406897D01*
X177177548Y-252311659D01*
G04 #@! TO.C,S30*
X153501357Y-236835468D02*
X153644214Y-236883087D01*
X153882310Y-236883087D01*
X153977548Y-236835468D01*
X154025167Y-236787849D01*
X154072786Y-236692611D01*
X154072786Y-236597373D01*
X154025167Y-236502135D01*
X153977548Y-236454516D01*
X153882310Y-236406897D01*
X153691833Y-236359278D01*
X153596595Y-236311659D01*
X153548976Y-236264040D01*
X153501357Y-236168802D01*
X153501357Y-236073564D01*
X153548976Y-235978326D01*
X153596595Y-235930707D01*
X153691833Y-235883087D01*
X153929929Y-235883087D01*
X154072786Y-235930707D01*
X154406119Y-235883087D02*
X155025167Y-235883087D01*
X154691833Y-236264040D01*
X154834691Y-236264040D01*
X154929929Y-236311659D01*
X154977548Y-236359278D01*
X155025167Y-236454516D01*
X155025167Y-236692611D01*
X154977548Y-236787849D01*
X154929929Y-236835468D01*
X154834691Y-236883087D01*
X154548976Y-236883087D01*
X154453738Y-236835468D01*
X154406119Y-236787849D01*
X155644214Y-235883087D02*
X155739453Y-235883087D01*
X155834691Y-235930707D01*
X155882310Y-235978326D01*
X155929929Y-236073564D01*
X155977548Y-236264040D01*
X155977548Y-236502135D01*
X155929929Y-236692611D01*
X155882310Y-236787849D01*
X155834691Y-236835468D01*
X155739453Y-236883087D01*
X155644214Y-236883087D01*
X155548976Y-236835468D01*
X155501357Y-236787849D01*
X155453738Y-236692611D01*
X155406119Y-236502135D01*
X155406119Y-236264040D01*
X155453738Y-236073564D01*
X155501357Y-235978326D01*
X155548976Y-235930707D01*
X155644214Y-235883087D01*
G04 #@! TO.C,S31*
X173281357Y-229235468D02*
X173424214Y-229283087D01*
X173662310Y-229283087D01*
X173757548Y-229235468D01*
X173805167Y-229187849D01*
X173852786Y-229092611D01*
X173852786Y-228997373D01*
X173805167Y-228902135D01*
X173757548Y-228854516D01*
X173662310Y-228806897D01*
X173471833Y-228759278D01*
X173376595Y-228711659D01*
X173328976Y-228664040D01*
X173281357Y-228568802D01*
X173281357Y-228473564D01*
X173328976Y-228378326D01*
X173376595Y-228330707D01*
X173471833Y-228283087D01*
X173709929Y-228283087D01*
X173852786Y-228330707D01*
X174186119Y-228283087D02*
X174805167Y-228283087D01*
X174471833Y-228664040D01*
X174614691Y-228664040D01*
X174709929Y-228711659D01*
X174757548Y-228759278D01*
X174805167Y-228854516D01*
X174805167Y-229092611D01*
X174757548Y-229187849D01*
X174709929Y-229235468D01*
X174614691Y-229283087D01*
X174328976Y-229283087D01*
X174233738Y-229235468D01*
X174186119Y-229187849D01*
X175757548Y-229283087D02*
X175186119Y-229283087D01*
X175471833Y-229283087D02*
X175471833Y-228283087D01*
X175376595Y-228425945D01*
X175281357Y-228521183D01*
X175186119Y-228568802D01*
G04 #@! TD*
M02*
