G04 #@! TF.GenerationSoftware,KiCad,Pcbnew,(5.0.0)*
G04 #@! TF.CreationDate,2020-01-29T13:46:14+01:00*
G04 #@! TF.ProjectId,Insole_PCB,496E736F6C655F5043422E6B69636164,rev?*
G04 #@! TF.SameCoordinates,Original*
G04 #@! TF.FileFunction,Glue,Top*
G04 #@! TF.FilePolarity,Positive*
%FSLAX46Y46*%
G04 Gerber Fmt 4.6, Leading zero omitted, Abs format (unit mm)*
G04 Created by KiCad (PCBNEW (5.0.0)) date 01/29/20 13:46:14*
%MOMM*%
%LPD*%
G01*
G04 APERTURE LIST*
%ADD10C,0.100000*%
G04 APERTURE END LIST*
D10*
X147907045Y-99030707D02*
G75*
G03X147907045Y-99030707I-9467592J0D01*
G01*
X171940385Y-102030707D02*
G75*
G03X171940385Y-102030707I-9500932J0D01*
G01*
X215899231Y-25030707D02*
G75*
G03X215899231Y-25030707I-9459778J0D01*
G01*
X193930343Y-24030707D02*
G75*
G03X193930343Y-24030707I-9490890J0D01*
G01*
X174953028Y-38030707D02*
G75*
G03X174953028Y-38030707I-9513575J0D01*
G01*
X199268904Y-46030707D02*
G75*
G03X199268904Y-46030707I-9479451J0D01*
G01*
X222909981Y-46030707D02*
G75*
G03X222909981Y-46030707I-9470528J0D01*
G01*
X224901657Y-68030707D02*
G75*
G03X224901657Y-68030707I-9462204J0D01*
G01*
X200690346Y-69020707D02*
G75*
G03X200690346Y-69020707I-9460893J0D01*
G01*
X180937816Y-61030707D02*
G75*
G03X180937816Y-61030707I-9498363J0D01*
G01*
X159923524Y-58030707D02*
G75*
G03X159923524Y-58030707I-9484071J0D01*
G01*
X149927830Y-78030707D02*
G75*
G03X149927830Y-78030707I-9488377J0D01*
G01*
X172909089Y-81030707D02*
G75*
G03X172909089Y-81030707I-9469636J0D01*
G01*
X198895504Y-92030707D02*
G75*
G03X198895504Y-92030707I-9456051J0D01*
G01*
X224924583Y-91980707D02*
G75*
G03X224924583Y-91980707I-9485130J0D01*
G01*
X216922670Y-116030707D02*
G75*
G03X216922670Y-116030707I-9483217J0D01*
G01*
X194920318Y-116030707D02*
G75*
G03X194920318Y-116030707I-9480865J0D01*
G01*
X148924620Y-120030707D02*
G75*
G03X148924620Y-120030707I-9485167J0D01*
G01*
X172939942Y-124030707D02*
G75*
G03X172939942Y-124030707I-9500489J0D01*
G01*
X177908265Y-145030707D02*
G75*
G03X177908265Y-145030707I-9468812J0D01*
G01*
X153933246Y-142030707D02*
G75*
G03X153933246Y-142030707I-9493793J0D01*
G01*
X162478067Y-162680707D02*
G75*
G03X162478067Y-162680707I-9488614J0D01*
G01*
X183990488Y-218630707D02*
G75*
G03X183990488Y-218630707I-9471035J0D01*
G01*
X204069180Y-225650707D02*
G75*
G03X204069180Y-225650707I-9509727J0D01*
G01*
X185415507Y-242230707D02*
G75*
G03X185415507Y-242230707I-9476054J0D01*
G01*
X207235334Y-246520707D02*
G75*
G03X207235334Y-246520707I-9465881J0D01*
G01*
X196925538Y-265180707D02*
G75*
G03X196925538Y-265180707I-9486085J0D01*
G01*
X175038190Y-265280707D02*
G75*
G03X175038190Y-265280707I-9498737J0D01*
G01*
X163688127Y-247400707D02*
G75*
G03X163688127Y-247400707I-9498674J0D01*
G01*
X164228352Y-226230707D02*
G75*
G03X164228352Y-226230707I-9488899J0D01*
G01*
X166699950Y-204910707D02*
G75*
G03X166699950Y-204910707I-9460497J0D01*
G01*
X165491332Y-183660707D02*
G75*
G03X165491332Y-183660707I-9471879J0D01*
G01*
X215958356Y-128427841D02*
G75*
G03X177939453Y-197030707I481097J-45102866D01*
G01*
X177939453Y-197030707D02*
G75*
G03X204434786Y-214257384I22873048J6190891D01*
G01*
X209087533Y-244428836D02*
X209151333Y-246364347D01*
X207766393Y-255913637D02*
X207155343Y-257751267D01*
X205613853Y-261302617D02*
X204688783Y-263003957D01*
X208618433Y-240585910D02*
X208909683Y-242500449D01*
X206436993Y-259549687D02*
X205613853Y-261302617D01*
X209100933Y-248300267D02*
X208936463Y-250229837D01*
X209151333Y-246364347D02*
X209100933Y-248300267D01*
X197201493Y-271812277D02*
X195671373Y-272999307D01*
X202546093Y-266228407D02*
X201335923Y-267740287D01*
X204688783Y-263003957D02*
X203665013Y-264647797D01*
X208658513Y-252146367D02*
X208268033Y-254043167D01*
X208936463Y-250229837D02*
X208658513Y-252146367D01*
X208909683Y-242500449D02*
X209087533Y-244428836D01*
X207155343Y-257751267D02*
X206436993Y-259549687D01*
X208268033Y-254043167D02*
X207766393Y-255913637D01*
X190699483Y-275991777D02*
X188934233Y-276788147D01*
X192414703Y-275092697D02*
X190699483Y-275991777D01*
X198658963Y-270537087D02*
X197201493Y-271812277D01*
X203665013Y-264647797D02*
X202546093Y-266228407D01*
X194073923Y-274094057D02*
X192414703Y-275092697D01*
X195671373Y-272999307D02*
X194073923Y-274094057D01*
X200038703Y-269178177D02*
X198658963Y-270537087D01*
X201335923Y-267740287D02*
X200038703Y-269178177D01*
X226364063Y-95901065D02*
X226116474Y-98423072D01*
X221171501Y-116764791D02*
X220267941Y-118893224D01*
X222028969Y-114610963D02*
X221171501Y-116764791D01*
X225776619Y-100885448D02*
X225348404Y-103291675D01*
X226116474Y-98423072D02*
X225776619Y-100885448D01*
X226515483Y-93315944D02*
X226452043Y-94616615D01*
X224835739Y-105645240D02*
X224242523Y-107949634D01*
X225348404Y-103291675D02*
X224835739Y-105645240D01*
X218355483Y-123092626D02*
X215959453Y-128420707D01*
X226452043Y-94616615D02*
X226364063Y-95901065D01*
X220267941Y-118893224D02*
X219326523Y-121000942D01*
X222832115Y-112427059D02*
X222028969Y-114610963D01*
X224242523Y-107949634D02*
X223572697Y-110208400D01*
X219326523Y-121000942D02*
X218355483Y-123092626D01*
X223572697Y-110208400D02*
X222832115Y-112427059D01*
X206113813Y-228106216D02*
X206475143Y-230290252D01*
X204698653Y-216728683D02*
X204933013Y-219059776D01*
X207285213Y-234559287D02*
X207735083Y-236643028D01*
X207735083Y-236643028D02*
X208215563Y-238692047D01*
X205472683Y-223641929D02*
X205780053Y-225889640D01*
X205190683Y-221364753D02*
X205472683Y-223641929D01*
X204933013Y-219059776D02*
X205190683Y-221364753D01*
X204459453Y-214250707D02*
X204699453Y-216740707D01*
X208215563Y-238692047D02*
X208618433Y-240585910D01*
X205780053Y-225889640D02*
X206113813Y-228106216D01*
X206475143Y-230290252D02*
X206865403Y-232441474D01*
X206865403Y-232441474D02*
X207285213Y-234559287D01*
X225268351Y-50788276D02*
X225452250Y-53054260D01*
X226553913Y-91998622D02*
X226515483Y-93315944D01*
X226541793Y-83832752D02*
X226560633Y-87198245D01*
X222580210Y-32458487D02*
X222920821Y-33956447D01*
X226566833Y-90664218D02*
X226553913Y-91998622D01*
X221851023Y-29671027D02*
X222223571Y-31030547D01*
X226560633Y-87198245D02*
X226566833Y-90664218D01*
X222920821Y-33956447D02*
X223245288Y-35526007D01*
X223845526Y-38883027D02*
X224121581Y-40672757D01*
X225452250Y-53054260D02*
X225621413Y-55404388D01*
X224381835Y-42538477D02*
X224626456Y-44481537D01*
X223245288Y-35526007D02*
X223553488Y-37167897D01*
X226510183Y-80566368D02*
X226541793Y-83832752D01*
X225916243Y-60362495D02*
X226042269Y-62973205D01*
X224626456Y-44481537D02*
X224855632Y-46503272D01*
X223553488Y-37167897D02*
X223845526Y-38883027D01*
X226465623Y-77397735D02*
X226510183Y-80566368D01*
X226407923Y-74325492D02*
X226465623Y-77397735D01*
X225776019Y-57840011D02*
X225916243Y-60362495D01*
X226336923Y-71348281D02*
X226407923Y-74325492D01*
X225621413Y-55404388D02*
X225776019Y-57840011D01*
X226252433Y-68464736D02*
X226336923Y-71348281D01*
X226042269Y-62973205D02*
X226154273Y-65673500D01*
X226154273Y-65673500D02*
X226252433Y-68464736D01*
X224855632Y-46503272D02*
X225069537Y-48605064D01*
X224121581Y-40672757D02*
X224381835Y-42538477D01*
X222223571Y-31030547D02*
X222580210Y-32458487D01*
X225069537Y-48605064D02*
X225268351Y-50788276D01*
X208852723Y-13318047D02*
X209632513Y-13597487D01*
X194949843Y-11645567D02*
X196132113Y-11660667D01*
X208045393Y-13064357D02*
X208852723Y-13318047D01*
X205454633Y-12450177D02*
X206346493Y-12631567D01*
X181127043Y-13183007D02*
X182314643Y-12879957D01*
X198407843Y-11726467D02*
X199501583Y-11779367D01*
X182314643Y-12879957D02*
X183548383Y-12605277D01*
X160272423Y-26769287D02*
X161590373Y-25413697D01*
X174821623Y-15520627D02*
X175785483Y-15074597D01*
X168796693Y-19146077D02*
X170409923Y-18030947D01*
X161590373Y-25413697D02*
X162940183Y-24085187D01*
X193737813Y-11640567D02*
X194949843Y-11645567D01*
X177811383Y-14247037D02*
X178877613Y-13867657D01*
X165763123Y-21530227D02*
X167250113Y-20314197D01*
X192094123Y-11662167D02*
X193737813Y-11640567D01*
X200566083Y-11847167D02*
X201601473Y-11931067D01*
X178877613Y-13867657D02*
X179982133Y-13512627D01*
X172981693Y-16471917D02*
X173887723Y-15986767D01*
X206346493Y-12631567D02*
X207210033Y-12835917D01*
X187557713Y-11971067D02*
X189007173Y-11829367D01*
X218807551Y-21936547D02*
X219288192Y-22861687D01*
X217801463Y-20251727D02*
X218311943Y-21067097D01*
X211820383Y-14597387D02*
X212502833Y-14990727D01*
X186166823Y-12148907D02*
X187557713Y-11971067D01*
X219753741Y-23844097D02*
X220204081Y-24885377D01*
X219288192Y-22861687D02*
X219753741Y-23844097D01*
X214424993Y-16377067D02*
X215027603Y-16914207D01*
X197284733Y-11687267D02*
X198407843Y-11726467D01*
X209632513Y-13597487D02*
X210386313Y-13902647D01*
X183548383Y-12605277D02*
X184831413Y-12360957D01*
X203585473Y-12151617D02*
X204534343Y-12290567D01*
X189007173Y-11829367D02*
X190518273Y-11725767D01*
X202607893Y-12032157D02*
X203585473Y-12151617D01*
X220639098Y-25987117D02*
X221058673Y-27150907D01*
X172101433Y-16975047D02*
X172981693Y-16471917D01*
X215612993Y-17491957D02*
X216182233Y-18112217D01*
X221058673Y-27150907D02*
X221462687Y-28378347D01*
X215027603Y-16914207D02*
X215612993Y-17491957D01*
X196132113Y-11660667D02*
X197284733Y-11687267D01*
X199501583Y-11779367D02*
X200566083Y-11847167D01*
X170409923Y-18030947D02*
X172101433Y-16975047D01*
X167250113Y-20314197D02*
X168796693Y-19146077D01*
X221462687Y-28378347D02*
X221851023Y-29671027D01*
X213163703Y-15417217D02*
X213804053Y-15878697D01*
X207210033Y-12835917D02*
X208045393Y-13064357D01*
X204534343Y-12290567D02*
X205454633Y-12450177D01*
X179982133Y-13512627D02*
X181127043Y-13183007D01*
X184831413Y-12360957D02*
X186166823Y-12148907D01*
X173887723Y-15986767D02*
X174821623Y-15520627D01*
X162940183Y-24085187D02*
X164328783Y-22788967D01*
X190518273Y-11725767D02*
X192094123Y-11662167D01*
X220204081Y-24885377D02*
X220639098Y-25987117D01*
X218311943Y-21067097D02*
X218807551Y-21936547D01*
X175785483Y-15074597D02*
X176781373Y-14649697D01*
X212502833Y-14990727D02*
X213163703Y-15417217D01*
X216736423Y-18776847D02*
X217276253Y-19488847D01*
X211115233Y-14235317D02*
X211820383Y-14597387D01*
X216182233Y-18112217D02*
X216736423Y-18776847D01*
X217276253Y-19488847D02*
X217801463Y-20251727D01*
X213804053Y-15878697D02*
X214424993Y-16377067D01*
X201601473Y-11931067D02*
X202607893Y-12032157D01*
X176781373Y-14649697D02*
X177811383Y-14247037D01*
X164328783Y-22788967D02*
X165763123Y-21530227D01*
X210386313Y-13902647D02*
X211115233Y-14235317D01*
X133120273Y-62158889D02*
X133908783Y-60781745D01*
X128791993Y-72049842D02*
X129278833Y-70562232D01*
X127281843Y-78607772D02*
X127594553Y-76851355D01*
X158979433Y-28146747D02*
X160272423Y-26769287D01*
X156452553Y-30950497D02*
X158979433Y-28146747D01*
X127594553Y-76851355D02*
X127949913Y-75183799D01*
X127949913Y-75183799D02*
X128349033Y-73587165D01*
X146932793Y-42458197D02*
X149241853Y-39572807D01*
X153994713Y-33802327D02*
X156452553Y-30950497D01*
X128349033Y-73587165D02*
X128791993Y-72049842D01*
X151594833Y-36682867D02*
X153994713Y-33802327D01*
X129278833Y-70562232D02*
X129809583Y-69114753D01*
X149241853Y-39572807D02*
X151594833Y-36682867D01*
X142495853Y-48195189D02*
X144679773Y-45333957D01*
X135598773Y-58023650D02*
X136496513Y-56639617D01*
X127140993Y-79525290D02*
X127281843Y-78607772D01*
X132371923Y-63536834D02*
X133120273Y-62158889D01*
X134735573Y-59403846D02*
X135598773Y-58023650D01*
X137426913Y-55250190D02*
X138388083Y-53853835D01*
X129809583Y-69114753D02*
X130384273Y-67697799D01*
X131002933Y-66301780D02*
X131665603Y-64917121D01*
X144679773Y-45333957D02*
X146932793Y-42458197D01*
X140394113Y-51036994D02*
X142495853Y-48195189D01*
X138388083Y-53853835D02*
X140394113Y-51036994D01*
X136496513Y-56639617D02*
X137426913Y-55250190D01*
X133908783Y-60781745D02*
X134735573Y-59403846D01*
X131665603Y-64917121D02*
X132371923Y-63536834D01*
X130384273Y-67697799D02*
X131002933Y-66301780D01*
X126081673Y-105518718D02*
X126084673Y-103567599D01*
X126151673Y-95016337D02*
X126179573Y-93520396D01*
X126099673Y-99917609D02*
X126112373Y-98211150D01*
X141823783Y-201073630D02*
X141569693Y-198897857D01*
X140788673Y-192165114D02*
X140523403Y-189853999D01*
X134669753Y-153621292D02*
X134145473Y-151703993D01*
X126090673Y-101701831D02*
X126099673Y-99917609D01*
X141051743Y-194443118D02*
X140788673Y-192165114D01*
X127283613Y-126202586D02*
X126974373Y-124125861D01*
X126079673Y-107558970D02*
X126081673Y-105518718D01*
X139985443Y-185140597D02*
X139423503Y-180355983D01*
X128015073Y-130142283D02*
X127631573Y-128204972D01*
X130353503Y-139181363D02*
X129347033Y-135656397D01*
X133608973Y-149834507D02*
X133064303Y-148004933D01*
X137418463Y-166234156D02*
X137014753Y-164001035D01*
X126084673Y-103567599D02*
X126090673Y-101701831D01*
X143423393Y-215428588D02*
X143015443Y-211454047D01*
X126974373Y-124125861D02*
X126707023Y-121965535D01*
X126309173Y-117362616D02*
X126182103Y-114911435D01*
X141569693Y-198897857D02*
X141312213Y-196687526D01*
X126137103Y-113646886D02*
X126104803Y-112355780D01*
X133064303Y-148004933D02*
X132515343Y-146207432D01*
X134145473Y-151703993D02*
X133608973Y-149834507D01*
X138819953Y-175566279D02*
X138157413Y-170837123D01*
X126707023Y-121965535D02*
X126484623Y-119712819D01*
X128430933Y-132023782D02*
X128015073Y-130142283D01*
X126500773Y-85731456D02*
X126584073Y-84601664D01*
X132515343Y-146207432D02*
X131419903Y-142677289D01*
X131419903Y-142677289D02*
X130353503Y-139181363D01*
X137014753Y-164001035D02*
X136587423Y-161819947D01*
X140523403Y-189853999D02*
X139985443Y-185140597D01*
X142320173Y-205319709D02*
X142074093Y-203214362D01*
X142560443Y-207392253D02*
X142320173Y-205319709D01*
X126303773Y-89392939D02*
X126360873Y-88124705D01*
X129347033Y-135656397D02*
X128875973Y-133858732D01*
X136137883Y-159691160D02*
X135667493Y-157614943D01*
X126484623Y-119712819D02*
X126309173Y-117362616D01*
X127010223Y-80472197D02*
X127140993Y-79525290D01*
X128875973Y-133858732D02*
X128430933Y-132023782D01*
X126584073Y-84601664D02*
X126676473Y-83513236D01*
X126085303Y-111037680D02*
X126079303Y-109692157D01*
X136587423Y-161819947D02*
X136137883Y-159691160D01*
X126889343Y-81450896D02*
X127010223Y-80472197D01*
X126778153Y-82463778D02*
X126889343Y-81450896D01*
X141312213Y-196687526D02*
X141051743Y-194443118D01*
X126676473Y-83513236D02*
X126778153Y-82463778D01*
X142074093Y-203214362D02*
X141823783Y-201073630D01*
X137798573Y-168515763D02*
X137418463Y-166234156D01*
X126426473Y-86905005D02*
X126500773Y-85731456D01*
X126360873Y-88124705D02*
X126426473Y-86905005D01*
X126213773Y-92087046D02*
X126254973Y-90712493D01*
X126104803Y-112355780D02*
X126085303Y-111037680D01*
X126129473Y-96578654D02*
X126151673Y-95016337D01*
X126112373Y-98211150D02*
X126129473Y-96578654D01*
X138157413Y-170837123D02*
X137798573Y-168515763D01*
X135177653Y-155591565D02*
X134669753Y-153621292D01*
X139423503Y-180355983D02*
X138819953Y-175566279D01*
X135667493Y-157614943D02*
X135177653Y-155591565D01*
X126079303Y-109692157D02*
X126079673Y-107558970D01*
X126182103Y-114911435D02*
X126137103Y-113646886D01*
X127631573Y-128204972D02*
X127283613Y-126202586D01*
X143015443Y-211454047D02*
X142560443Y-207392253D01*
X126254973Y-90712493D02*
X126303773Y-89392939D01*
X126179573Y-93520396D02*
X126213773Y-92087046D01*
X150532153Y-266790877D02*
X149379303Y-265234837D01*
X168051763Y-278248317D02*
X166192863Y-277705357D01*
X185278383Y-278062087D02*
X183400493Y-278535197D01*
X175709133Y-279301517D02*
X173774803Y-279208217D01*
X149379303Y-265234837D02*
X148320213Y-263613527D01*
X153102753Y-269685737D02*
X151774743Y-268276227D01*
X143591083Y-249008707D02*
X143498783Y-247074337D01*
X145089973Y-256591427D02*
X144547993Y-254732237D01*
X143797253Y-250934277D02*
X143591083Y-249008707D01*
X143847793Y-241122931D02*
X144001363Y-239064772D01*
X179577443Y-279145537D02*
X177645583Y-279280617D01*
X181497973Y-278896767D02*
X179577443Y-279145537D01*
X146497713Y-260197877D02*
X145740633Y-258415417D01*
X157551703Y-273411507D02*
X155996263Y-272257847D01*
X171849343Y-279001047D02*
X169939453Y-278680707D01*
X145740633Y-258415417D02*
X145089973Y-256591427D01*
X151774743Y-268276227D02*
X150532153Y-266790877D01*
X160852893Y-275433967D02*
X159172453Y-274471447D01*
X143498783Y-247074337D02*
X143520783Y-245137893D01*
X155996263Y-272257847D02*
X154511563Y-271014477D01*
X144116593Y-252844327D02*
X143797253Y-250934277D01*
X143768713Y-219344420D02*
X143423393Y-215428588D01*
X144035803Y-223230109D02*
X143768713Y-219344420D01*
X144208143Y-227116111D02*
X144035803Y-223230109D01*
X144252543Y-229071044D02*
X144208143Y-227116111D01*
X144267043Y-231037612D02*
X144252543Y-229071044D01*
X164369213Y-277053747D02*
X162587153Y-276295737D01*
X166192863Y-277705357D02*
X164369213Y-277053747D01*
X147358563Y-261932597D02*
X146497713Y-260197877D01*
X162587153Y-276295737D02*
X160852893Y-275433967D01*
X144250443Y-233018035D02*
X144267043Y-231037612D01*
X144201443Y-235014548D02*
X144250443Y-233018035D01*
X144118843Y-237029387D02*
X144201443Y-235014548D01*
X187125103Y-277479047D02*
X185278383Y-278062087D01*
X188934233Y-276788147D02*
X187125103Y-277479047D01*
X144001363Y-239064772D02*
X144118843Y-237029387D01*
X183400493Y-278535197D02*
X181497973Y-278896767D01*
X173774803Y-279208217D02*
X171849343Y-279001047D01*
X143656883Y-243206119D02*
X143847793Y-241122931D01*
X143520783Y-245137893D02*
X143656883Y-243206119D01*
X144547993Y-254732237D02*
X144116593Y-252844327D01*
X159172453Y-274471447D02*
X157551703Y-273411507D01*
X177645583Y-279280617D02*
X175709133Y-279301517D01*
X148320213Y-263613527D02*
X147358563Y-261932597D01*
X154511563Y-271014477D02*
X153102753Y-269685737D01*
X169939453Y-278680707D02*
X168051763Y-278248317D01*
G04 #@! TO.C,S0*
X216939453Y-116030707D02*
G75*
G03X216939453Y-116030707I-9500000J0D01*
G01*
G04 #@! TO.C,S1*
X224939453Y-91980707D02*
G75*
G03X224939453Y-91980707I-9500000J0D01*
G01*
G04 #@! TO.C,S2*
X224939453Y-68030707D02*
G75*
G03X224939453Y-68030707I-9500000J0D01*
G01*
G04 #@! TO.C,S3*
X222939453Y-46030707D02*
G75*
G03X222939453Y-46030707I-9500000J0D01*
G01*
G04 #@! TO.C,S4*
X215939453Y-25030707D02*
G75*
G03X215939453Y-25030707I-9500000J0D01*
G01*
G04 #@! TO.C,S5*
X199289453Y-46030707D02*
G75*
G03X199289453Y-46030707I-9500000J0D01*
G01*
G04 #@! TO.C,S6*
X200729453Y-69020707D02*
G75*
G03X200729453Y-69020707I-9500000J0D01*
G01*
G04 #@! TO.C,S7*
X198939453Y-92030707D02*
G75*
G03X198939453Y-92030707I-9500000J0D01*
G01*
G04 #@! TO.C,S8*
X193939453Y-24030707D02*
G75*
G03X193939453Y-24030707I-9500000J0D01*
G01*
G04 #@! TO.C,S9*
X174939453Y-38030707D02*
G75*
G03X174939453Y-38030707I-9500000J0D01*
G01*
G04 #@! TO.C,S10*
X180939453Y-61030707D02*
G75*
G03X180939453Y-61030707I-9500000J0D01*
G01*
G04 #@! TO.C,S11*
X159939453Y-58030707D02*
G75*
G03X159939453Y-58030707I-9500000J0D01*
G01*
G04 #@! TO.C,S12*
X172939453Y-81030707D02*
G75*
G03X172939453Y-81030707I-9500000J0D01*
G01*
G04 #@! TO.C,S13*
X149939453Y-78030707D02*
G75*
G03X149939453Y-78030707I-9500000J0D01*
G01*
G04 #@! TO.C,S14*
X194939453Y-116030707D02*
G75*
G03X194939453Y-116030707I-9500000J0D01*
G01*
G04 #@! TO.C,S15*
X171939453Y-102030707D02*
G75*
G03X171939453Y-102030707I-9500000J0D01*
G01*
G04 #@! TO.C,S16*
X147939453Y-99030707D02*
G75*
G03X147939453Y-99030707I-9500000J0D01*
G01*
G04 #@! TO.C,S17*
X148939453Y-120030707D02*
G75*
G03X148939453Y-120030707I-9500000J0D01*
G01*
G04 #@! TO.C,S18*
X172939453Y-124030707D02*
G75*
G03X172939453Y-124030707I-9500000J0D01*
G01*
G04 #@! TO.C,S19*
X177939453Y-145030707D02*
G75*
G03X177939453Y-145030707I-9500000J0D01*
G01*
G04 #@! TO.C,S20*
X153939453Y-142030707D02*
G75*
G03X153939453Y-142030707I-9500000J0D01*
G01*
G04 #@! TO.C,S21*
X162489453Y-162680707D02*
G75*
G03X162489453Y-162680707I-9500000J0D01*
G01*
G04 #@! TO.C,S22*
X165519453Y-183660707D02*
G75*
G03X165519453Y-183660707I-9500000J0D01*
G01*
G04 #@! TO.C,S23*
X166739453Y-204910707D02*
G75*
G03X166739453Y-204910707I-9500000J0D01*
G01*
G04 #@! TO.C,S24*
X204059453Y-225650707D02*
G75*
G03X204059453Y-225650707I-9500000J0D01*
G01*
G04 #@! TO.C,S25*
X207269453Y-246520707D02*
G75*
G03X207269453Y-246520707I-9500000J0D01*
G01*
G04 #@! TO.C,S26*
X196939453Y-265180707D02*
G75*
G03X196939453Y-265180707I-9500000J0D01*
G01*
G04 #@! TO.C,S27*
X175039453Y-265280707D02*
G75*
G03X175039453Y-265280707I-9500000J0D01*
G01*
G04 #@! TO.C,S28*
X163689453Y-247400707D02*
G75*
G03X163689453Y-247400707I-9500000J0D01*
G01*
G04 #@! TO.C,S29*
X185439453Y-242230707D02*
G75*
G03X185439453Y-242230707I-9500000J0D01*
G01*
G04 #@! TO.C,S30*
X164239453Y-226230707D02*
G75*
G03X164239453Y-226230707I-9500000J0D01*
G01*
G04 #@! TO.C,S31*
X184019453Y-218630707D02*
G75*
G03X184019453Y-218630707I-9500000J0D01*
G01*
G04 #@! TD*
M02*
