G04 #@! TF.GenerationSoftware,KiCad,Pcbnew,(5.0.0)*
G04 #@! TF.CreationDate,2020-01-29T13:46:14+01:00*
G04 #@! TF.ProjectId,Insole_PCB,496E736F6C655F5043422E6B69636164,rev?*
G04 #@! TF.SameCoordinates,Original*
G04 #@! TF.FileFunction,Legend,Bot*
G04 #@! TF.FilePolarity,Positive*
%FSLAX46Y46*%
G04 Gerber Fmt 4.6, Leading zero omitted, Abs format (unit mm)*
G04 Created by KiCad (PCBNEW (5.0.0)) date 01/29/20 13:46:14*
%MOMM*%
%LPD*%
G01*
G04 APERTURE LIST*
%ADD10C,0.200000*%
%ADD11C,0.100000*%
%ADD12C,0.120000*%
%ADD13C,0.400000*%
%ADD14C,0.150000*%
%ADD15C,0.300000*%
G04 APERTURE END LIST*
D10*
G04 #@! TO.C,U2*
X191639453Y-163380707D02*
G75*
G03X191639453Y-163380707I0J0D01*
G01*
D11*
X194039453Y-162780707D02*
X194039453Y-163000707D01*
X193319453Y-162780707D02*
X194039453Y-162780707D01*
X194039453Y-165480707D02*
X193319453Y-165480707D01*
X194039453Y-165260707D02*
X194039453Y-165480707D01*
X190839453Y-165480707D02*
X190839453Y-165260707D01*
X190839453Y-165480707D02*
X191559453Y-165480707D01*
X191139453Y-163180707D02*
X191489453Y-162830707D01*
D12*
G04 #@! TO.C,C1*
X195219340Y-189703900D02*
X195242050Y-190028665D01*
X196236856Y-189632749D02*
X196259566Y-189957514D01*
G04 #@! TO.C,C2*
X174254536Y-183602175D02*
X174365883Y-183908099D01*
X175213023Y-183253315D02*
X175324370Y-183559239D01*
G04 #@! TO.C,C3*
X197258700Y-179951489D02*
X196933588Y-179968527D01*
X197205318Y-178932887D02*
X196880206Y-178949925D01*
G04 #@! TO.C,C4*
X199731340Y-175791900D02*
X199754050Y-176116665D01*
X200748856Y-175720749D02*
X200771566Y-176045514D01*
G04 #@! TO.C,C5*
X175704536Y-183052175D02*
X175815883Y-183358099D01*
X176663023Y-182703315D02*
X176774370Y-183009239D01*
G04 #@! TO.C,C6*
X183349453Y-173980986D02*
X183349453Y-173655428D01*
X182329453Y-173980986D02*
X182329453Y-173655428D01*
G04 #@! TO.C,C7*
X181749453Y-173993486D02*
X181749453Y-173667928D01*
X180729453Y-173993486D02*
X180729453Y-173667928D01*
G04 #@! TO.C,C8*
X182789732Y-166220707D02*
X182464174Y-166220707D01*
X182789732Y-167240707D02*
X182464174Y-167240707D01*
G04 #@! TO.C,C9*
X182789732Y-164620707D02*
X182464174Y-164620707D01*
X182789732Y-165640707D02*
X182464174Y-165640707D01*
G04 #@! TO.C,C10*
X188724453Y-150855986D02*
X188724453Y-150530428D01*
X187704453Y-150855986D02*
X187704453Y-150530428D01*
G04 #@! TO.C,C11*
X190349453Y-150868486D02*
X190349453Y-150542928D01*
X189329453Y-150868486D02*
X189329453Y-150542928D01*
G04 #@! TO.C,C12*
X190589174Y-168740707D02*
X190914732Y-168740707D01*
X190589174Y-167720707D02*
X190914732Y-167720707D01*
G04 #@! TO.C,C13*
X190589174Y-167140707D02*
X190914732Y-167140707D01*
X190589174Y-166120707D02*
X190914732Y-166120707D01*
G04 #@! TO.C,C14*
X194402232Y-167320707D02*
X194076674Y-167320707D01*
X194402232Y-168340707D02*
X194076674Y-168340707D01*
G04 #@! TO.C,L1*
X198279453Y-156036959D02*
X198279453Y-155514455D01*
X196859453Y-156036959D02*
X196859453Y-155514455D01*
G04 #@! TO.C,L2*
X195373705Y-145521958D02*
X195634957Y-145069456D01*
X194143949Y-144811958D02*
X194405201Y-144359456D01*
D13*
G04 #@! TO.C,MUX1*
X192339425Y-143008464D02*
G75*
G03X192339425Y-143008464I-158114J0D01*
G01*
D14*
X193651824Y-141461461D02*
X190664324Y-146635963D01*
X188079534Y-140062951D02*
X185879534Y-143873463D01*
D13*
G04 #@! TO.C,MUX2*
X186597567Y-163430707D02*
G75*
G03X186597567Y-163430707I-158114J0D01*
G01*
D14*
X188514453Y-163930707D02*
X182539453Y-163930707D01*
X186939453Y-158405707D02*
X182539453Y-158405707D01*
D13*
G04 #@! TO.C,MUX3*
X179897567Y-168380707D02*
G75*
G03X179897567Y-168380707I-158114J0D01*
G01*
D14*
X180239453Y-166305707D02*
X180239453Y-172280707D01*
X174714453Y-167880707D02*
X174714453Y-172280707D01*
D13*
G04 #@! TO.C,MUX4*
X177467708Y-190764831D02*
G75*
G03X177467708Y-190764831I-158114J0D01*
G01*
D14*
X177549440Y-192885703D02*
X175505869Y-187271040D01*
X182202560Y-189516026D02*
X180697671Y-185381378D01*
D12*
G04 #@! TO.C,Q2*
X200119453Y-162470707D02*
X200119453Y-163930707D01*
X196959453Y-162470707D02*
X196959453Y-164630707D01*
X196959453Y-162470707D02*
X197889453Y-162470707D01*
X200119453Y-162470707D02*
X199189453Y-162470707D01*
G04 #@! TO.C,R1*
X189876058Y-187450151D02*
X189859020Y-187125039D01*
X188857456Y-187503533D02*
X188840418Y-187178421D01*
G04 #@! TO.C,R2*
X194314732Y-158020707D02*
X193989174Y-158020707D01*
X194314732Y-159040707D02*
X193989174Y-159040707D01*
G04 #@! TO.C,R3*
X194302232Y-159620707D02*
X193976674Y-159620707D01*
X194302232Y-160640707D02*
X193976674Y-160640707D01*
G04 #@! TO.C,R4*
X199339453Y-184837928D02*
X199339453Y-185163486D01*
X200359453Y-184837928D02*
X200359453Y-185163486D01*
G04 #@! TO.C,R5*
X185459566Y-198657514D02*
X185436856Y-198332749D01*
X184442050Y-198728665D02*
X184419340Y-198403900D01*
G04 #@! TO.C,R6*
X192714732Y-172920707D02*
X192389174Y-172920707D01*
X192714732Y-173940707D02*
X192389174Y-173940707D01*
G04 #@! TO.C,R7*
X184802232Y-156470707D02*
X184476674Y-156470707D01*
X184802232Y-157490707D02*
X184476674Y-157490707D01*
G04 #@! TO.C,R8*
X199549453Y-137380986D02*
X199549453Y-137055428D01*
X198529453Y-137380986D02*
X198529453Y-137055428D01*
G04 #@! TO.C,R9*
X202549453Y-137393486D02*
X202549453Y-137067928D01*
X201529453Y-137393486D02*
X201529453Y-137067928D01*
G04 #@! TO.C,R10*
X197167732Y-180862707D02*
X196842174Y-180862707D01*
X197167732Y-181882707D02*
X196842174Y-181882707D01*
G04 #@! TO.C,R11*
X198337240Y-193252953D02*
X198661559Y-193224579D01*
X198248341Y-192236835D02*
X198572660Y-192208461D01*
G04 #@! TO.C,R12*
X195549453Y-170280986D02*
X195549453Y-169955428D01*
X194529453Y-170280986D02*
X194529453Y-169955428D01*
G04 #@! TO.C,R13*
X192829453Y-169967928D02*
X192829453Y-170293486D01*
X193849453Y-169967928D02*
X193849453Y-170293486D01*
G04 #@! TO.C,R14*
X198649453Y-168005986D02*
X198649453Y-167680428D01*
X197629453Y-168005986D02*
X197629453Y-167680428D01*
D13*
G04 #@! TO.C,U1*
X193867217Y-186581536D02*
G75*
G03X193867217Y-186581536I0J0D01*
G01*
D12*
X194493439Y-187830474D02*
X194366263Y-185403804D01*
X191335535Y-186233557D02*
X191427647Y-187991145D01*
D13*
G04 #@! TO.C,U3*
X196931689Y-177109878D02*
G75*
G03X196931689Y-177109878I0J0D01*
G01*
D12*
X196305467Y-175860940D02*
X196432643Y-178287610D01*
X199463371Y-177457857D02*
X199371259Y-175700269D01*
D15*
G04 #@! TO.C,U4*
X201612977Y-153558014D02*
G75*
G03X201612977Y-153558014I0J0D01*
G01*
D14*
X193906665Y-150205738D02*
X202566919Y-155205738D01*
X198906665Y-141545484D02*
X193906665Y-150205738D01*
X207566919Y-146545484D02*
X198906665Y-141545484D01*
X202566919Y-155205738D02*
X207566919Y-146545484D01*
D10*
G04 #@! TO.C,U5*
X196830672Y-187224665D02*
G75*
G03X197030184Y-187210713I99756J6976D01*
G01*
X197030185Y-187210713D02*
G75*
G03X196830671Y-187224665I-99757J-6976D01*
G01*
X197030184Y-187210713D02*
X197030184Y-187210713D01*
X196830671Y-187224665D02*
X196830671Y-187224665D01*
D11*
X198317261Y-184113386D02*
X198456774Y-186108515D01*
X196322132Y-184252899D02*
X196461645Y-186248028D01*
D13*
G04 #@! TO.C,U6*
X194260742Y-194948776D02*
G75*
G03X194260742Y-194948776I-70710J0D01*
G01*
D12*
X193888906Y-197243754D02*
X198670641Y-196825407D01*
X193610008Y-194055931D02*
X198391743Y-193637584D01*
X193644870Y-194454409D02*
X192250198Y-194576427D01*
X193610008Y-194055931D02*
X193644870Y-194454409D01*
D13*
G04 #@! TO.C,U7*
X188894284Y-200271420D02*
G75*
G03X188894284Y-200271420I-70710J0D01*
G01*
D12*
X191112947Y-200612553D02*
X190778116Y-195824245D01*
X187920742Y-200835774D02*
X187585911Y-196047466D01*
X188319767Y-200807871D02*
X188417426Y-202204461D01*
X187920742Y-200835774D02*
X188319767Y-200807871D01*
D13*
G04 #@! TO.C,U8*
X186952628Y-203982872D02*
G75*
G03X186952628Y-203982872I-70710J0D01*
G01*
D12*
X186620891Y-206282756D02*
X191394596Y-205781019D01*
X186286400Y-203100285D02*
X191060105Y-202598549D01*
X186328212Y-203498094D02*
X184935881Y-203644434D01*
X186286400Y-203100285D02*
X186328212Y-203498094D01*
D13*
G04 #@! TO.C,U9*
X201461691Y-209924002D02*
G75*
G03X201461691Y-209924002I-70711J0D01*
G01*
D12*
X201811803Y-207647929D02*
X197014727Y-207815447D01*
X201923481Y-210845980D02*
X197126405Y-211013497D01*
X201909521Y-210446223D02*
X203308669Y-210397364D01*
X201923481Y-210845980D02*
X201909521Y-210446223D01*
G04 #@! TO.C,C15*
X193380678Y-191315527D02*
X193055913Y-191338237D01*
X193451829Y-192333043D02*
X193127064Y-192355753D01*
G04 #@! TO.C,C16*
X193261259Y-189745593D02*
X192936494Y-189768303D01*
X193332410Y-190763109D02*
X193007645Y-190785819D01*
G04 #@! TO.C,C17*
X203799453Y-163470707D02*
X203799453Y-159260707D01*
X203799453Y-159260707D02*
X200779453Y-159260707D01*
X200779453Y-159260707D02*
X200779453Y-163470707D01*
G04 #@! TO.C,L3*
X197316588Y-171993464D02*
X198519066Y-171930445D01*
X197411840Y-173810969D02*
X198614318Y-173747950D01*
G04 #@! TO.C,Q1*
X193299453Y-182870707D02*
X193299453Y-181940707D01*
X193299453Y-179710707D02*
X193299453Y-180640707D01*
X193299453Y-179710707D02*
X191139453Y-179710707D01*
X193299453Y-182870707D02*
X191839453Y-182870707D01*
G04 #@! TO.C,R15*
X190459453Y-179094629D02*
X190459453Y-179611785D01*
X189039453Y-179094629D02*
X189039453Y-179611785D01*
G04 #@! TO.C,JP2*
X198206674Y-169460707D02*
X198532232Y-169460707D01*
X198206674Y-170480707D02*
X198532232Y-170480707D01*
G04 #@! TO.C,JP3*
X202599453Y-166223486D02*
X202599453Y-165897928D01*
X203619453Y-166223486D02*
X203619453Y-165897928D01*
G04 #@! TO.C,JP5*
X202129453Y-166243486D02*
X202129453Y-165917928D01*
X201109453Y-166243486D02*
X201109453Y-165917928D01*
G04 #@! TO.C,R16*
X202529453Y-178487928D02*
X202529453Y-178813486D01*
X201509453Y-178487928D02*
X201509453Y-178813486D01*
G04 #@! TO.C,R17*
X202539453Y-175953486D02*
X202539453Y-175627928D01*
X201519453Y-175953486D02*
X201519453Y-175627928D01*
D10*
G04 #@! TO.C,U10*
X200005453Y-168058707D02*
G75*
G03X200005453Y-168058707I-25000J0D01*
G01*
G04 #@! TO.C,U2*
D14*
X193201357Y-161083087D02*
X193201357Y-161892611D01*
X193153738Y-161987849D01*
X193106119Y-162035468D01*
X193010881Y-162083087D01*
X192820405Y-162083087D01*
X192725167Y-162035468D01*
X192677548Y-161987849D01*
X192629929Y-161892611D01*
X192629929Y-161083087D01*
X192201357Y-161178326D02*
X192153738Y-161130707D01*
X192058500Y-161083087D01*
X191820405Y-161083087D01*
X191725167Y-161130707D01*
X191677548Y-161178326D01*
X191629929Y-161273564D01*
X191629929Y-161368802D01*
X191677548Y-161511659D01*
X192248976Y-162083087D01*
X191629929Y-162083087D01*
G04 #@! TO.C,C1*
X196821323Y-189922128D02*
X196777141Y-189972953D01*
X196739604Y-190118784D01*
X196746247Y-190213790D01*
X196803715Y-190352977D01*
X196905365Y-190441340D01*
X197003693Y-190482200D01*
X197197027Y-190516416D01*
X197339536Y-190506450D01*
X197526226Y-190445660D01*
X197617911Y-190391514D01*
X197706273Y-190289864D01*
X197743811Y-190144034D01*
X197737168Y-190049027D01*
X197679699Y-189909840D01*
X197628875Y-189865659D01*
X196659882Y-188978711D02*
X196699743Y-189548747D01*
X196679812Y-189263729D02*
X197677376Y-189193973D01*
X197541511Y-189298944D01*
X197453148Y-189400593D01*
X197412288Y-189498921D01*
G04 #@! TO.C,C2*
X173660851Y-181509472D02*
X173632391Y-181570506D01*
X173636504Y-181721034D01*
X173669077Y-181810529D01*
X173762684Y-181928484D01*
X173884752Y-181985405D01*
X173990533Y-181997579D01*
X174185809Y-181977180D01*
X174320051Y-181928320D01*
X174482753Y-181818426D01*
X174555961Y-181741105D01*
X174612882Y-181619037D01*
X174608769Y-181468509D01*
X174576196Y-181379014D01*
X174482589Y-181261059D01*
X174421555Y-181232599D01*
X174291262Y-180874620D02*
X174319722Y-180813586D01*
X174331896Y-180707805D01*
X174250463Y-180484069D01*
X174173142Y-180410861D01*
X174112108Y-180382400D01*
X174006327Y-180370227D01*
X173916832Y-180402800D01*
X173798877Y-180496407D01*
X173457350Y-181228814D01*
X173245623Y-180647100D01*
G04 #@! TO.C,C3*
X194734582Y-180058637D02*
X194784628Y-180103699D01*
X194929782Y-180143776D01*
X195024889Y-180138792D01*
X195165058Y-180083761D01*
X195255182Y-179983669D01*
X195297751Y-179886070D01*
X195335336Y-179693362D01*
X195327860Y-179550701D01*
X195270337Y-179362978D01*
X195217799Y-179270363D01*
X195117707Y-179180239D01*
X194972553Y-179140162D01*
X194877446Y-179145147D01*
X194737277Y-179200177D01*
X194692215Y-179250223D01*
X194354354Y-179172561D02*
X193736155Y-179204959D01*
X194088969Y-179567944D01*
X193946307Y-179575421D01*
X193853692Y-179627959D01*
X193808631Y-179678005D01*
X193766061Y-179775605D01*
X193778522Y-180013373D01*
X193831060Y-180105989D01*
X193881106Y-180151050D01*
X193978706Y-180193620D01*
X194264029Y-180178667D01*
X194356644Y-180126129D01*
X194401706Y-180076083D01*
G04 #@! TO.C,C4*
X199984806Y-178731880D02*
X199940624Y-178782705D01*
X199903087Y-178928536D01*
X199909730Y-179023542D01*
X199967198Y-179162729D01*
X200068848Y-179251092D01*
X200167176Y-179291952D01*
X200360510Y-179326168D01*
X200503019Y-179316202D01*
X200689709Y-179255412D01*
X200781394Y-179201266D01*
X200869756Y-179099616D01*
X200907294Y-178953786D01*
X200900651Y-178858779D01*
X200843182Y-178719592D01*
X200792358Y-178675411D01*
X200495051Y-177836964D02*
X199830008Y-177883469D01*
X200891684Y-178047906D02*
X200195747Y-178335247D01*
X200152564Y-177717707D01*
G04 #@! TO.C,C5*
X175010851Y-181109472D02*
X174982391Y-181170506D01*
X174986504Y-181321034D01*
X175019077Y-181410529D01*
X175112684Y-181528484D01*
X175234752Y-181585405D01*
X175340533Y-181597579D01*
X175535809Y-181577180D01*
X175670051Y-181528320D01*
X175832753Y-181418426D01*
X175905961Y-181341105D01*
X175962882Y-181219037D01*
X175958769Y-181068509D01*
X175926196Y-180979014D01*
X175832589Y-180861059D01*
X175771555Y-180832599D01*
X175551603Y-179949827D02*
X175714469Y-180397300D01*
X175283283Y-180604914D01*
X175311744Y-180543880D01*
X175323918Y-180438099D01*
X175242485Y-180214362D01*
X175165164Y-180141154D01*
X175104130Y-180112694D01*
X174998349Y-180100520D01*
X174774612Y-180181953D01*
X174701405Y-180259274D01*
X174672944Y-180320308D01*
X174660770Y-180426089D01*
X174742203Y-180649825D01*
X174819524Y-180723033D01*
X174880558Y-180751494D01*
G04 #@! TO.C,C6*
X183196595Y-176164040D02*
X183244214Y-176116421D01*
X183291833Y-175973564D01*
X183291833Y-175878326D01*
X183244214Y-175735468D01*
X183148976Y-175640230D01*
X183053738Y-175592611D01*
X182863262Y-175544992D01*
X182720405Y-175544992D01*
X182529929Y-175592611D01*
X182434691Y-175640230D01*
X182339453Y-175735468D01*
X182291833Y-175878326D01*
X182291833Y-175973564D01*
X182339453Y-176116421D01*
X182387072Y-176164040D01*
X182291833Y-177021183D02*
X182291833Y-176830707D01*
X182339453Y-176735468D01*
X182387072Y-176687849D01*
X182529929Y-176592611D01*
X182720405Y-176544992D01*
X183101357Y-176544992D01*
X183196595Y-176592611D01*
X183244214Y-176640230D01*
X183291833Y-176735468D01*
X183291833Y-176925945D01*
X183244214Y-177021183D01*
X183196595Y-177068802D01*
X183101357Y-177116421D01*
X182863262Y-177116421D01*
X182768024Y-177068802D01*
X182720405Y-177021183D01*
X182672786Y-176925945D01*
X182672786Y-176735468D01*
X182720405Y-176640230D01*
X182768024Y-176592611D01*
X182863262Y-176544992D01*
G04 #@! TO.C,C7*
X181596595Y-176164040D02*
X181644214Y-176116421D01*
X181691833Y-175973564D01*
X181691833Y-175878326D01*
X181644214Y-175735468D01*
X181548976Y-175640230D01*
X181453738Y-175592611D01*
X181263262Y-175544992D01*
X181120405Y-175544992D01*
X180929929Y-175592611D01*
X180834691Y-175640230D01*
X180739453Y-175735468D01*
X180691833Y-175878326D01*
X180691833Y-175973564D01*
X180739453Y-176116421D01*
X180787072Y-176164040D01*
X180691833Y-176497373D02*
X180691833Y-177164040D01*
X181691833Y-176735468D01*
G04 #@! TO.C,C8*
X185106119Y-167087849D02*
X185153738Y-167135468D01*
X185296595Y-167183087D01*
X185391833Y-167183087D01*
X185534691Y-167135468D01*
X185629929Y-167040230D01*
X185677548Y-166944992D01*
X185725167Y-166754516D01*
X185725167Y-166611659D01*
X185677548Y-166421183D01*
X185629929Y-166325945D01*
X185534691Y-166230707D01*
X185391833Y-166183087D01*
X185296595Y-166183087D01*
X185153738Y-166230707D01*
X185106119Y-166278326D01*
X184534691Y-166611659D02*
X184629929Y-166564040D01*
X184677548Y-166516421D01*
X184725167Y-166421183D01*
X184725167Y-166373564D01*
X184677548Y-166278326D01*
X184629929Y-166230707D01*
X184534691Y-166183087D01*
X184344214Y-166183087D01*
X184248976Y-166230707D01*
X184201357Y-166278326D01*
X184153738Y-166373564D01*
X184153738Y-166421183D01*
X184201357Y-166516421D01*
X184248976Y-166564040D01*
X184344214Y-166611659D01*
X184534691Y-166611659D01*
X184629929Y-166659278D01*
X184677548Y-166706897D01*
X184725167Y-166802135D01*
X184725167Y-166992611D01*
X184677548Y-167087849D01*
X184629929Y-167135468D01*
X184534691Y-167183087D01*
X184344214Y-167183087D01*
X184248976Y-167135468D01*
X184201357Y-167087849D01*
X184153738Y-166992611D01*
X184153738Y-166802135D01*
X184201357Y-166706897D01*
X184248976Y-166659278D01*
X184344214Y-166611659D01*
G04 #@! TO.C,C9*
X180406119Y-165487849D02*
X180453738Y-165535468D01*
X180596595Y-165583087D01*
X180691833Y-165583087D01*
X180834691Y-165535468D01*
X180929929Y-165440230D01*
X180977548Y-165344992D01*
X181025167Y-165154516D01*
X181025167Y-165011659D01*
X180977548Y-164821183D01*
X180929929Y-164725945D01*
X180834691Y-164630707D01*
X180691833Y-164583087D01*
X180596595Y-164583087D01*
X180453738Y-164630707D01*
X180406119Y-164678326D01*
X179929929Y-165583087D02*
X179739453Y-165583087D01*
X179644214Y-165535468D01*
X179596595Y-165487849D01*
X179501357Y-165344992D01*
X179453738Y-165154516D01*
X179453738Y-164773564D01*
X179501357Y-164678326D01*
X179548976Y-164630707D01*
X179644214Y-164583087D01*
X179834691Y-164583087D01*
X179929929Y-164630707D01*
X179977548Y-164678326D01*
X180025167Y-164773564D01*
X180025167Y-165011659D01*
X179977548Y-165106897D01*
X179929929Y-165154516D01*
X179834691Y-165202135D01*
X179644214Y-165202135D01*
X179548976Y-165154516D01*
X179501357Y-165106897D01*
X179453738Y-165011659D01*
G04 #@! TO.C,C10*
X188496595Y-152987849D02*
X188544214Y-152940230D01*
X188591833Y-152797373D01*
X188591833Y-152702135D01*
X188544214Y-152559278D01*
X188448976Y-152464040D01*
X188353738Y-152416421D01*
X188163262Y-152368802D01*
X188020405Y-152368802D01*
X187829929Y-152416421D01*
X187734691Y-152464040D01*
X187639453Y-152559278D01*
X187591833Y-152702135D01*
X187591833Y-152797373D01*
X187639453Y-152940230D01*
X187687072Y-152987849D01*
X188591833Y-153940230D02*
X188591833Y-153368802D01*
X188591833Y-153654516D02*
X187591833Y-153654516D01*
X187734691Y-153559278D01*
X187829929Y-153464040D01*
X187877548Y-153368802D01*
X187591833Y-154559278D02*
X187591833Y-154654516D01*
X187639453Y-154749754D01*
X187687072Y-154797373D01*
X187782310Y-154844992D01*
X187972786Y-154892611D01*
X188210881Y-154892611D01*
X188401357Y-154844992D01*
X188496595Y-154797373D01*
X188544214Y-154749754D01*
X188591833Y-154654516D01*
X188591833Y-154559278D01*
X188544214Y-154464040D01*
X188496595Y-154416421D01*
X188401357Y-154368802D01*
X188210881Y-154321183D01*
X187972786Y-154321183D01*
X187782310Y-154368802D01*
X187687072Y-154416421D01*
X187639453Y-154464040D01*
X187591833Y-154559278D01*
G04 #@! TO.C,C11*
X190121595Y-153012849D02*
X190169214Y-152965230D01*
X190216833Y-152822373D01*
X190216833Y-152727135D01*
X190169214Y-152584278D01*
X190073976Y-152489040D01*
X189978738Y-152441421D01*
X189788262Y-152393802D01*
X189645405Y-152393802D01*
X189454929Y-152441421D01*
X189359691Y-152489040D01*
X189264453Y-152584278D01*
X189216833Y-152727135D01*
X189216833Y-152822373D01*
X189264453Y-152965230D01*
X189312072Y-153012849D01*
X190216833Y-153965230D02*
X190216833Y-153393802D01*
X190216833Y-153679516D02*
X189216833Y-153679516D01*
X189359691Y-153584278D01*
X189454929Y-153489040D01*
X189502548Y-153393802D01*
X190216833Y-154917611D02*
X190216833Y-154346183D01*
X190216833Y-154631897D02*
X189216833Y-154631897D01*
X189359691Y-154536659D01*
X189454929Y-154441421D01*
X189502548Y-154346183D01*
G04 #@! TO.C,C12*
X188482310Y-168687849D02*
X188529929Y-168735468D01*
X188672786Y-168783087D01*
X188768024Y-168783087D01*
X188910881Y-168735468D01*
X189006119Y-168640230D01*
X189053738Y-168544992D01*
X189101357Y-168354516D01*
X189101357Y-168211659D01*
X189053738Y-168021183D01*
X189006119Y-167925945D01*
X188910881Y-167830707D01*
X188768024Y-167783087D01*
X188672786Y-167783087D01*
X188529929Y-167830707D01*
X188482310Y-167878326D01*
X187529929Y-168783087D02*
X188101357Y-168783087D01*
X187815643Y-168783087D02*
X187815643Y-167783087D01*
X187910881Y-167925945D01*
X188006119Y-168021183D01*
X188101357Y-168068802D01*
X187148976Y-167878326D02*
X187101357Y-167830707D01*
X187006119Y-167783087D01*
X186768024Y-167783087D01*
X186672786Y-167830707D01*
X186625167Y-167878326D01*
X186577548Y-167973564D01*
X186577548Y-168068802D01*
X186625167Y-168211659D01*
X187196595Y-168783087D01*
X186577548Y-168783087D01*
G04 #@! TO.C,C13*
X188472310Y-167017849D02*
X188519929Y-167065468D01*
X188662786Y-167113087D01*
X188758024Y-167113087D01*
X188900881Y-167065468D01*
X188996119Y-166970230D01*
X189043738Y-166874992D01*
X189091357Y-166684516D01*
X189091357Y-166541659D01*
X189043738Y-166351183D01*
X188996119Y-166255945D01*
X188900881Y-166160707D01*
X188758024Y-166113087D01*
X188662786Y-166113087D01*
X188519929Y-166160707D01*
X188472310Y-166208326D01*
X187519929Y-167113087D02*
X188091357Y-167113087D01*
X187805643Y-167113087D02*
X187805643Y-166113087D01*
X187900881Y-166255945D01*
X187996119Y-166351183D01*
X188091357Y-166398802D01*
X187186595Y-166113087D02*
X186567548Y-166113087D01*
X186900881Y-166494040D01*
X186758024Y-166494040D01*
X186662786Y-166541659D01*
X186615167Y-166589278D01*
X186567548Y-166684516D01*
X186567548Y-166922611D01*
X186615167Y-167017849D01*
X186662786Y-167065468D01*
X186758024Y-167113087D01*
X187043738Y-167113087D01*
X187138976Y-167065468D01*
X187186595Y-167017849D01*
G04 #@! TO.C,C14*
X194662310Y-166837849D02*
X194709929Y-166885468D01*
X194852786Y-166933087D01*
X194948024Y-166933087D01*
X195090881Y-166885468D01*
X195186119Y-166790230D01*
X195233738Y-166694992D01*
X195281357Y-166504516D01*
X195281357Y-166361659D01*
X195233738Y-166171183D01*
X195186119Y-166075945D01*
X195090881Y-165980707D01*
X194948024Y-165933087D01*
X194852786Y-165933087D01*
X194709929Y-165980707D01*
X194662310Y-166028326D01*
X193709929Y-166933087D02*
X194281357Y-166933087D01*
X193995643Y-166933087D02*
X193995643Y-165933087D01*
X194090881Y-166075945D01*
X194186119Y-166171183D01*
X194281357Y-166218802D01*
X192852786Y-166266421D02*
X192852786Y-166933087D01*
X193090881Y-165885468D02*
X193328976Y-166599754D01*
X192709929Y-166599754D01*
G04 #@! TO.C,L1*
X196371833Y-155609040D02*
X196371833Y-155132849D01*
X195371833Y-155132849D01*
X196371833Y-156466183D02*
X196371833Y-155894754D01*
X196371833Y-156180468D02*
X195371833Y-156180468D01*
X195514691Y-156085230D01*
X195609929Y-155989992D01*
X195657548Y-155894754D01*
G04 #@! TO.C,L2*
X193935617Y-144197559D02*
X194173712Y-143785166D01*
X193307687Y-143285166D01*
X193009213Y-143992614D02*
X192944164Y-144010044D01*
X192855306Y-144068713D01*
X192736258Y-144274910D01*
X192729879Y-144381198D01*
X192747309Y-144446247D01*
X192805978Y-144535105D01*
X192888456Y-144582724D01*
X193035984Y-144612913D01*
X193816570Y-144403756D01*
X193507046Y-144939867D01*
G04 #@! TO.C,MUX1*
X193710378Y-143764803D02*
X192844352Y-143264803D01*
X193296275Y-143910621D01*
X192511019Y-143842154D01*
X193377044Y-144342154D01*
X192272924Y-144254547D02*
X192973992Y-144659309D01*
X193032661Y-144748167D01*
X193050091Y-144813216D01*
X193043711Y-144919504D01*
X192948473Y-145084461D01*
X192859615Y-145143130D01*
X192794566Y-145160560D01*
X192688278Y-145154180D01*
X191987210Y-144749418D01*
X191796733Y-145079333D02*
X192329425Y-146156683D01*
X191463400Y-145656683D02*
X192662759Y-145579333D01*
X191877044Y-146940230D02*
X192162759Y-146445358D01*
X192019902Y-146692794D02*
X191153876Y-146192794D01*
X191325213Y-146181744D01*
X191455311Y-146146884D01*
X191544169Y-146088215D01*
G04 #@! TO.C,MUX2*
X188248976Y-165183087D02*
X188248976Y-164183087D01*
X187915643Y-164897373D01*
X187582310Y-164183087D01*
X187582310Y-165183087D01*
X187106119Y-164183087D02*
X187106119Y-164992611D01*
X187058500Y-165087849D01*
X187010881Y-165135468D01*
X186915643Y-165183087D01*
X186725167Y-165183087D01*
X186629929Y-165135468D01*
X186582310Y-165087849D01*
X186534691Y-164992611D01*
X186534691Y-164183087D01*
X186153738Y-164183087D02*
X185487072Y-165183087D01*
X185487072Y-164183087D02*
X186153738Y-165183087D01*
X185153738Y-164278326D02*
X185106119Y-164230707D01*
X185010881Y-164183087D01*
X184772786Y-164183087D01*
X184677548Y-164230707D01*
X184629929Y-164278326D01*
X184582310Y-164373564D01*
X184582310Y-164468802D01*
X184629929Y-164611659D01*
X185201357Y-165183087D01*
X184582310Y-165183087D01*
G04 #@! TO.C,MUX3*
X181441833Y-168271183D02*
X180441833Y-168271183D01*
X181156119Y-168604516D01*
X180441833Y-168937849D01*
X181441833Y-168937849D01*
X180441833Y-169414040D02*
X181251357Y-169414040D01*
X181346595Y-169461659D01*
X181394214Y-169509278D01*
X181441833Y-169604516D01*
X181441833Y-169794992D01*
X181394214Y-169890230D01*
X181346595Y-169937849D01*
X181251357Y-169985468D01*
X180441833Y-169985468D01*
X180441833Y-170366421D02*
X181441833Y-171033087D01*
X180441833Y-171033087D02*
X181441833Y-170366421D01*
X180441833Y-171318802D02*
X180441833Y-171937849D01*
X180822786Y-171604516D01*
X180822786Y-171747373D01*
X180870405Y-171842611D01*
X180918024Y-171890230D01*
X181013262Y-171937849D01*
X181251357Y-171937849D01*
X181346595Y-171890230D01*
X181394214Y-171842611D01*
X181441833Y-171747373D01*
X181441833Y-171461659D01*
X181394214Y-171366421D01*
X181346595Y-171318802D01*
G04 #@! TO.C,MUX4*
X175747338Y-191449998D02*
X176687031Y-191107978D01*
X175901815Y-191039047D01*
X176459017Y-190481516D01*
X175519325Y-190823536D01*
X176296151Y-190034044D02*
X175535447Y-190310917D01*
X175429666Y-190298743D01*
X175368632Y-190270282D01*
X175291311Y-190197075D01*
X175226164Y-190018086D01*
X175238338Y-189912304D01*
X175266799Y-189851270D01*
X175340007Y-189773950D01*
X176100710Y-189497076D01*
X175970417Y-189139098D02*
X174802711Y-188854657D01*
X175742404Y-188512636D02*
X175030724Y-189481118D01*
X175152299Y-187865940D02*
X174525838Y-188093953D01*
X175591711Y-187959383D02*
X175001935Y-188427419D01*
X174790208Y-187845704D01*
G04 #@! TO.C,Q2*
X198604691Y-166208326D02*
X198699929Y-166160707D01*
X198795167Y-166065468D01*
X198938024Y-165922611D01*
X199033262Y-165874992D01*
X199128500Y-165874992D01*
X199080881Y-166113087D02*
X199176119Y-166065468D01*
X199271357Y-165970230D01*
X199318976Y-165779754D01*
X199318976Y-165446421D01*
X199271357Y-165255945D01*
X199176119Y-165160707D01*
X199080881Y-165113087D01*
X198890405Y-165113087D01*
X198795167Y-165160707D01*
X198699929Y-165255945D01*
X198652310Y-165446421D01*
X198652310Y-165779754D01*
X198699929Y-165970230D01*
X198795167Y-166065468D01*
X198890405Y-166113087D01*
X199080881Y-166113087D01*
X198271357Y-165208326D02*
X198223738Y-165160707D01*
X198128500Y-165113087D01*
X197890405Y-165113087D01*
X197795167Y-165160707D01*
X197747548Y-165208326D01*
X197699929Y-165303564D01*
X197699929Y-165398802D01*
X197747548Y-165541659D01*
X198318976Y-166113087D01*
X197699929Y-166113087D01*
G04 #@! TO.C,R1*
X187487159Y-187579240D02*
X187980142Y-187887194D01*
X187517065Y-188149885D02*
X188515695Y-188097549D01*
X188495757Y-187717119D01*
X188443219Y-187624503D01*
X188393173Y-187579442D01*
X188295574Y-187536872D01*
X188152912Y-187544349D01*
X188060297Y-187596887D01*
X188015235Y-187646933D01*
X187972666Y-187744533D01*
X187992603Y-188124963D01*
X187437315Y-186628164D02*
X187467222Y-187198809D01*
X187452269Y-186913487D02*
X188450898Y-186861151D01*
X188313221Y-186963735D01*
X188223098Y-187063827D01*
X188180528Y-187161426D01*
G04 #@! TO.C,R2*
X196806119Y-159083087D02*
X197139453Y-158606897D01*
X197377548Y-159083087D02*
X197377548Y-158083087D01*
X196996595Y-158083087D01*
X196901357Y-158130707D01*
X196853738Y-158178326D01*
X196806119Y-158273564D01*
X196806119Y-158416421D01*
X196853738Y-158511659D01*
X196901357Y-158559278D01*
X196996595Y-158606897D01*
X197377548Y-158606897D01*
X196425167Y-158178326D02*
X196377548Y-158130707D01*
X196282310Y-158083087D01*
X196044214Y-158083087D01*
X195948976Y-158130707D01*
X195901357Y-158178326D01*
X195853738Y-158273564D01*
X195853738Y-158368802D01*
X195901357Y-158511659D01*
X196472786Y-159083087D01*
X195853738Y-159083087D01*
G04 #@! TO.C,R3*
X196706119Y-160583087D02*
X197039453Y-160106897D01*
X197277548Y-160583087D02*
X197277548Y-159583087D01*
X196896595Y-159583087D01*
X196801357Y-159630707D01*
X196753738Y-159678326D01*
X196706119Y-159773564D01*
X196706119Y-159916421D01*
X196753738Y-160011659D01*
X196801357Y-160059278D01*
X196896595Y-160106897D01*
X197277548Y-160106897D01*
X196372786Y-159583087D02*
X195753738Y-159583087D01*
X196087072Y-159964040D01*
X195944214Y-159964040D01*
X195848976Y-160011659D01*
X195801357Y-160059278D01*
X195753738Y-160154516D01*
X195753738Y-160392611D01*
X195801357Y-160487849D01*
X195848976Y-160535468D01*
X195944214Y-160583087D01*
X196229929Y-160583087D01*
X196325167Y-160535468D01*
X196372786Y-160487849D01*
G04 #@! TO.C,R4*
X201731833Y-184834040D02*
X201255643Y-184500707D01*
X201731833Y-184262611D02*
X200731833Y-184262611D01*
X200731833Y-184643564D01*
X200779453Y-184738802D01*
X200827072Y-184786421D01*
X200922310Y-184834040D01*
X201065167Y-184834040D01*
X201160405Y-184786421D01*
X201208024Y-184738802D01*
X201255643Y-184643564D01*
X201255643Y-184262611D01*
X201065167Y-185691183D02*
X201731833Y-185691183D01*
X200684214Y-185453087D02*
X201398500Y-185214992D01*
X201398500Y-185834040D01*
G04 #@! TO.C,R5*
X183073283Y-198828276D02*
X183571565Y-199127580D01*
X183113143Y-199398312D02*
X184110707Y-199328556D01*
X184084134Y-198948531D01*
X184029987Y-198856847D01*
X183979162Y-198812666D01*
X183880834Y-198771806D01*
X183738325Y-198781771D01*
X183646641Y-198835918D01*
X183602460Y-198886743D01*
X183561600Y-198985071D01*
X183588174Y-199365095D01*
X184007734Y-197855961D02*
X184040951Y-198330992D01*
X183569242Y-198411712D01*
X183613424Y-198360887D01*
X183654283Y-198262560D01*
X183637674Y-198025044D01*
X183583528Y-197933360D01*
X183532703Y-197889179D01*
X183434375Y-197848319D01*
X183196860Y-197864928D01*
X183105176Y-197919074D01*
X183060994Y-197969899D01*
X183020135Y-198068227D01*
X183036743Y-198305742D01*
X183090890Y-198397426D01*
X183141715Y-198441608D01*
G04 #@! TO.C,R6*
X190206119Y-173883087D02*
X190539453Y-173406897D01*
X190777548Y-173883087D02*
X190777548Y-172883087D01*
X190396595Y-172883087D01*
X190301357Y-172930707D01*
X190253738Y-172978326D01*
X190206119Y-173073564D01*
X190206119Y-173216421D01*
X190253738Y-173311659D01*
X190301357Y-173359278D01*
X190396595Y-173406897D01*
X190777548Y-173406897D01*
X189348976Y-172883087D02*
X189539453Y-172883087D01*
X189634691Y-172930707D01*
X189682310Y-172978326D01*
X189777548Y-173121183D01*
X189825167Y-173311659D01*
X189825167Y-173692611D01*
X189777548Y-173787849D01*
X189729929Y-173835468D01*
X189634691Y-173883087D01*
X189444214Y-173883087D01*
X189348976Y-173835468D01*
X189301357Y-173787849D01*
X189253738Y-173692611D01*
X189253738Y-173454516D01*
X189301357Y-173359278D01*
X189348976Y-173311659D01*
X189444214Y-173264040D01*
X189634691Y-173264040D01*
X189729929Y-173311659D01*
X189777548Y-173359278D01*
X189825167Y-173454516D01*
G04 #@! TO.C,R7*
X182306119Y-157483087D02*
X182639453Y-157006897D01*
X182877548Y-157483087D02*
X182877548Y-156483087D01*
X182496595Y-156483087D01*
X182401357Y-156530707D01*
X182353738Y-156578326D01*
X182306119Y-156673564D01*
X182306119Y-156816421D01*
X182353738Y-156911659D01*
X182401357Y-156959278D01*
X182496595Y-157006897D01*
X182877548Y-157006897D01*
X181972786Y-156483087D02*
X181306119Y-156483087D01*
X181734691Y-157483087D01*
G04 #@! TO.C,R8*
X198061833Y-137051540D02*
X197585643Y-136718207D01*
X198061833Y-136480111D02*
X197061833Y-136480111D01*
X197061833Y-136861064D01*
X197109453Y-136956302D01*
X197157072Y-137003921D01*
X197252310Y-137051540D01*
X197395167Y-137051540D01*
X197490405Y-137003921D01*
X197538024Y-136956302D01*
X197585643Y-136861064D01*
X197585643Y-136480111D01*
X197490405Y-137622968D02*
X197442786Y-137527730D01*
X197395167Y-137480111D01*
X197299929Y-137432492D01*
X197252310Y-137432492D01*
X197157072Y-137480111D01*
X197109453Y-137527730D01*
X197061833Y-137622968D01*
X197061833Y-137813445D01*
X197109453Y-137908683D01*
X197157072Y-137956302D01*
X197252310Y-138003921D01*
X197299929Y-138003921D01*
X197395167Y-137956302D01*
X197442786Y-137908683D01*
X197490405Y-137813445D01*
X197490405Y-137622968D01*
X197538024Y-137527730D01*
X197585643Y-137480111D01*
X197680881Y-137432492D01*
X197871357Y-137432492D01*
X197966595Y-137480111D01*
X198014214Y-137527730D01*
X198061833Y-137622968D01*
X198061833Y-137813445D01*
X198014214Y-137908683D01*
X197966595Y-137956302D01*
X197871357Y-138003921D01*
X197680881Y-138003921D01*
X197585643Y-137956302D01*
X197538024Y-137908683D01*
X197490405Y-137813445D01*
G04 #@! TO.C,R9*
X201061833Y-137064040D02*
X200585643Y-136730707D01*
X201061833Y-136492611D02*
X200061833Y-136492611D01*
X200061833Y-136873564D01*
X200109453Y-136968802D01*
X200157072Y-137016421D01*
X200252310Y-137064040D01*
X200395167Y-137064040D01*
X200490405Y-137016421D01*
X200538024Y-136968802D01*
X200585643Y-136873564D01*
X200585643Y-136492611D01*
X201061833Y-137540230D02*
X201061833Y-137730707D01*
X201014214Y-137825945D01*
X200966595Y-137873564D01*
X200823738Y-137968802D01*
X200633262Y-138016421D01*
X200252310Y-138016421D01*
X200157072Y-137968802D01*
X200109453Y-137921183D01*
X200061833Y-137825945D01*
X200061833Y-137635468D01*
X200109453Y-137540230D01*
X200157072Y-137492611D01*
X200252310Y-137444992D01*
X200490405Y-137444992D01*
X200585643Y-137492611D01*
X200633262Y-137540230D01*
X200680881Y-137635468D01*
X200680881Y-137825945D01*
X200633262Y-137921183D01*
X200585643Y-137968802D01*
X200490405Y-138016421D01*
G04 #@! TO.C,R10*
X199735167Y-181682135D02*
X199935167Y-181396421D01*
X200078024Y-181682135D02*
X200078024Y-181082135D01*
X199849453Y-181082135D01*
X199792310Y-181110707D01*
X199763738Y-181139278D01*
X199735167Y-181196421D01*
X199735167Y-181282135D01*
X199763738Y-181339278D01*
X199792310Y-181367849D01*
X199849453Y-181396421D01*
X200078024Y-181396421D01*
X199163738Y-181682135D02*
X199506595Y-181682135D01*
X199335167Y-181682135D02*
X199335167Y-181082135D01*
X199392310Y-181167849D01*
X199449453Y-181224992D01*
X199506595Y-181253564D01*
X198792310Y-181082135D02*
X198735167Y-181082135D01*
X198678024Y-181110707D01*
X198649453Y-181139278D01*
X198620881Y-181196421D01*
X198592310Y-181310707D01*
X198592310Y-181453564D01*
X198620881Y-181567849D01*
X198649453Y-181624992D01*
X198678024Y-181653564D01*
X198735167Y-181682135D01*
X198792310Y-181682135D01*
X198849453Y-181653564D01*
X198878024Y-181624992D01*
X198906595Y-181567849D01*
X198935167Y-181453564D01*
X198935167Y-181310707D01*
X198906595Y-181196421D01*
X198878024Y-181139278D01*
X198849453Y-181110707D01*
X198792310Y-181082135D01*
G04 #@! TO.C,R11*
X196319291Y-193625337D02*
X196609853Y-193121907D01*
X196888545Y-193575534D02*
X196801389Y-192579339D01*
X196421887Y-192612542D01*
X196331161Y-192668280D01*
X196287874Y-192719868D01*
X196248736Y-192818894D01*
X196261187Y-192961208D01*
X196316926Y-193051933D01*
X196368514Y-193095220D01*
X196467540Y-193134358D01*
X196847042Y-193101156D01*
X195370534Y-193708343D02*
X195939788Y-193658540D01*
X195655161Y-193683441D02*
X195568005Y-192687246D01*
X195675332Y-192821259D01*
X195778508Y-192907835D01*
X195877534Y-192946972D01*
X194421777Y-193791348D02*
X194991031Y-193741545D01*
X194706404Y-193766447D02*
X194619249Y-192770252D01*
X194726575Y-192904265D01*
X194829751Y-192990840D01*
X194928777Y-193029977D01*
G04 #@! TO.C,R12*
X195391833Y-172387849D02*
X194915643Y-172054516D01*
X195391833Y-171816421D02*
X194391833Y-171816421D01*
X194391833Y-172197373D01*
X194439453Y-172292611D01*
X194487072Y-172340230D01*
X194582310Y-172387849D01*
X194725167Y-172387849D01*
X194820405Y-172340230D01*
X194868024Y-172292611D01*
X194915643Y-172197373D01*
X194915643Y-171816421D01*
X195391833Y-173340230D02*
X195391833Y-172768802D01*
X195391833Y-173054516D02*
X194391833Y-173054516D01*
X194534691Y-172959278D01*
X194629929Y-172864040D01*
X194677548Y-172768802D01*
X194487072Y-173721183D02*
X194439453Y-173768802D01*
X194391833Y-173864040D01*
X194391833Y-174102135D01*
X194439453Y-174197373D01*
X194487072Y-174244992D01*
X194582310Y-174292611D01*
X194677548Y-174292611D01*
X194820405Y-174244992D01*
X195391833Y-173673564D01*
X195391833Y-174292611D01*
G04 #@! TO.C,R13*
X192391833Y-169587849D02*
X191915643Y-169254516D01*
X192391833Y-169016421D02*
X191391833Y-169016421D01*
X191391833Y-169397373D01*
X191439453Y-169492611D01*
X191487072Y-169540230D01*
X191582310Y-169587849D01*
X191725167Y-169587849D01*
X191820405Y-169540230D01*
X191868024Y-169492611D01*
X191915643Y-169397373D01*
X191915643Y-169016421D01*
X192391833Y-170540230D02*
X192391833Y-169968802D01*
X192391833Y-170254516D02*
X191391833Y-170254516D01*
X191534691Y-170159278D01*
X191629929Y-170064040D01*
X191677548Y-169968802D01*
X191391833Y-170873564D02*
X191391833Y-171492611D01*
X191772786Y-171159278D01*
X191772786Y-171302135D01*
X191820405Y-171397373D01*
X191868024Y-171444992D01*
X191963262Y-171492611D01*
X192201357Y-171492611D01*
X192296595Y-171444992D01*
X192344214Y-171397373D01*
X192391833Y-171302135D01*
X192391833Y-171016421D01*
X192344214Y-170921183D01*
X192296595Y-170873564D01*
G04 #@! TO.C,R14*
X197260881Y-167594992D02*
X196975167Y-167394992D01*
X197260881Y-167252135D02*
X196660881Y-167252135D01*
X196660881Y-167480707D01*
X196689453Y-167537849D01*
X196718024Y-167566421D01*
X196775167Y-167594992D01*
X196860881Y-167594992D01*
X196918024Y-167566421D01*
X196946595Y-167537849D01*
X196975167Y-167480707D01*
X196975167Y-167252135D01*
X197260881Y-168166421D02*
X197260881Y-167823564D01*
X197260881Y-167994992D02*
X196660881Y-167994992D01*
X196746595Y-167937849D01*
X196803738Y-167880707D01*
X196832310Y-167823564D01*
X196860881Y-168680707D02*
X197260881Y-168680707D01*
X196632310Y-168537849D02*
X197060881Y-168394992D01*
X197060881Y-168766421D01*
G04 #@! TO.C,U1*
X193498433Y-183902637D02*
X193536563Y-184630210D01*
X193498251Y-184718050D01*
X193457695Y-184763091D01*
X193374342Y-184810376D01*
X193203148Y-184819348D01*
X193115308Y-184781035D01*
X193070267Y-184740480D01*
X193022982Y-184657126D01*
X192984852Y-183929553D01*
X192133188Y-184875422D02*
X192646769Y-184848506D01*
X192389978Y-184861964D02*
X192342876Y-183963197D01*
X192435202Y-184087107D01*
X192525284Y-184168218D01*
X192613124Y-184206530D01*
G04 #@! TO.C,U3*
X195798433Y-176132637D02*
X195836563Y-176860210D01*
X195798251Y-176948050D01*
X195757695Y-176993091D01*
X195674342Y-177040376D01*
X195503148Y-177049348D01*
X195415308Y-177011035D01*
X195370267Y-176970480D01*
X195322982Y-176887126D01*
X195284852Y-176159553D01*
X194942465Y-176177497D02*
X194386085Y-176206655D01*
X194703618Y-176533342D01*
X194575223Y-176540071D01*
X194491869Y-176587355D01*
X194451314Y-176632396D01*
X194413001Y-176720236D01*
X194424216Y-176934228D01*
X194471500Y-177017582D01*
X194516542Y-177058138D01*
X194604381Y-177096450D01*
X194861172Y-177082992D01*
X194944526Y-177035708D01*
X194985081Y-176990666D01*
G04 #@! TO.C,U4*
X190117823Y-136572966D02*
X190818891Y-136977728D01*
X190877560Y-137066586D01*
X190894990Y-137131635D01*
X190888610Y-137237923D01*
X190793372Y-137402881D01*
X190704514Y-137461550D01*
X190639465Y-137478979D01*
X190533177Y-137472600D01*
X189832109Y-137067838D01*
X189668403Y-138018051D02*
X190245753Y-138351385D01*
X189457536Y-137621379D02*
X190195173Y-137772325D01*
X189885649Y-138308436D01*
G04 #@! TO.C,U5*
X195978942Y-185980366D02*
X195252145Y-186031189D01*
X195163650Y-185994415D01*
X195117908Y-185954652D01*
X195069176Y-185872136D01*
X195057218Y-185701125D01*
X195093992Y-185612630D01*
X195133755Y-185566888D01*
X195216271Y-185518156D01*
X195943067Y-185467334D01*
X195883276Y-184612279D02*
X195913172Y-185039806D01*
X195488634Y-185112454D01*
X195528397Y-185066712D01*
X195565171Y-184978217D01*
X195550223Y-184764453D01*
X195501491Y-184681937D01*
X195455749Y-184642174D01*
X195367254Y-184605401D01*
X195153490Y-184620348D01*
X195070974Y-184669080D01*
X195031211Y-184714823D01*
X194994437Y-184803318D01*
X195009385Y-185017081D01*
X195058117Y-185099597D01*
X195103859Y-185139360D01*
G04 #@! TO.C,U6*
X195550730Y-197418767D02*
X195621284Y-198225210D01*
X195582147Y-198324236D01*
X195538860Y-198375824D01*
X195448134Y-198431563D01*
X195258383Y-198448164D01*
X195159357Y-198409027D01*
X195107769Y-198365739D01*
X195052030Y-198275014D01*
X194981476Y-197468570D01*
X194080157Y-197547425D02*
X194269908Y-197530824D01*
X194368934Y-197569962D01*
X194420522Y-197613249D01*
X194527849Y-197747262D01*
X194591888Y-197932863D01*
X194625090Y-198312366D01*
X194585952Y-198411392D01*
X194542665Y-198462980D01*
X194451940Y-198518718D01*
X194262188Y-198535320D01*
X194163162Y-198496182D01*
X194111574Y-198452895D01*
X194055836Y-198362169D01*
X194035084Y-198124980D01*
X194074222Y-198025954D01*
X194117509Y-197974366D01*
X194208235Y-197918628D01*
X194397986Y-197902027D01*
X194497012Y-197941164D01*
X194548600Y-197984451D01*
X194604338Y-198075177D01*
G04 #@! TO.C,U7*
X187544731Y-199219971D02*
X186737180Y-199276441D01*
X186638852Y-199235581D01*
X186588027Y-199191400D01*
X186533880Y-199099716D01*
X186520593Y-198909703D01*
X186561453Y-198811376D01*
X186605634Y-198760551D01*
X186697319Y-198706404D01*
X187504871Y-198649935D01*
X187478297Y-198269910D02*
X187431792Y-197604868D01*
X186464124Y-198102152D01*
G04 #@! TO.C,U8*
X190039942Y-206206447D02*
X190124560Y-207011536D01*
X190087157Y-207111230D01*
X190044776Y-207163565D01*
X189955037Y-207220879D01*
X189765605Y-207240789D01*
X189665911Y-207203386D01*
X189613575Y-207161005D01*
X189556262Y-207071266D01*
X189471643Y-206266177D01*
X188900785Y-206757109D02*
X188990524Y-206699796D01*
X189032904Y-206647460D01*
X189070308Y-206547766D01*
X189065330Y-206500408D01*
X189008017Y-206410669D01*
X188955681Y-206368288D01*
X188855987Y-206330885D01*
X188666554Y-206350795D01*
X188576815Y-206408109D01*
X188534435Y-206460444D01*
X188497032Y-206560138D01*
X188502009Y-206607497D01*
X188559323Y-206697235D01*
X188611658Y-206739616D01*
X188711352Y-206777019D01*
X188900785Y-206757109D01*
X189000479Y-206794512D01*
X189052815Y-206836893D01*
X189110128Y-206926632D01*
X189130038Y-207116064D01*
X189092635Y-207215758D01*
X189050254Y-207268094D01*
X188960516Y-207325407D01*
X188771083Y-207345317D01*
X188671389Y-207307914D01*
X188619053Y-207265534D01*
X188561740Y-207175795D01*
X188541830Y-206986362D01*
X188579233Y-206886668D01*
X188621613Y-206834332D01*
X188711352Y-206777019D01*
G04 #@! TO.C,U9*
X200295541Y-211165369D02*
X200323792Y-211974400D01*
X200279526Y-212071242D01*
X200233598Y-212120494D01*
X200140080Y-212171407D01*
X199949720Y-212178055D01*
X199852878Y-212133789D01*
X199803626Y-212087860D01*
X199752712Y-211994342D01*
X199724460Y-211185312D01*
X199235869Y-212202983D02*
X199045509Y-212209631D01*
X198948667Y-212165364D01*
X198899415Y-212119436D01*
X198799249Y-211979990D01*
X198745012Y-211791291D01*
X198731717Y-211410571D01*
X198775983Y-211313729D01*
X198821911Y-211264477D01*
X198915429Y-211213563D01*
X199105790Y-211206916D01*
X199202631Y-211251182D01*
X199251883Y-211297110D01*
X199302797Y-211390629D01*
X199311107Y-211628579D01*
X199266840Y-211725421D01*
X199220912Y-211774673D01*
X199127394Y-211825586D01*
X198937034Y-211832234D01*
X198840192Y-211787968D01*
X198790940Y-211742040D01*
X198740026Y-211648521D01*
G04 #@! TO.C,C15*
X190843428Y-192517589D02*
X190894252Y-192561770D01*
X191040083Y-192599308D01*
X191135089Y-192592665D01*
X191274277Y-192535196D01*
X191362640Y-192433547D01*
X191403499Y-192335219D01*
X191437715Y-192141885D01*
X191427750Y-191999376D01*
X191366960Y-191812685D01*
X191312813Y-191721001D01*
X191211164Y-191632638D01*
X191065333Y-191595101D01*
X190970327Y-191601744D01*
X190831139Y-191659212D01*
X190786958Y-191710037D01*
X189900010Y-192679030D02*
X190470047Y-192639169D01*
X190185028Y-192659099D02*
X190115272Y-191661535D01*
X190220243Y-191797401D01*
X190321893Y-191885764D01*
X190420221Y-191926623D01*
X188927696Y-191744579D02*
X189402726Y-191711361D01*
X189483447Y-192183070D01*
X189432622Y-192138889D01*
X189334294Y-192098029D01*
X189096779Y-192114638D01*
X189005094Y-192168784D01*
X188960913Y-192219609D01*
X188920054Y-192317937D01*
X188936662Y-192555452D01*
X188990809Y-192647137D01*
X189041634Y-192691318D01*
X189139961Y-192732178D01*
X189377477Y-192715569D01*
X189469161Y-192661422D01*
X189513342Y-192610598D01*
G04 #@! TO.C,C16*
X190764121Y-190804508D02*
X190814945Y-190848689D01*
X190960776Y-190886227D01*
X191055782Y-190879584D01*
X191194970Y-190822115D01*
X191283333Y-190720466D01*
X191324192Y-190622138D01*
X191358408Y-190428804D01*
X191348443Y-190286295D01*
X191287653Y-190099604D01*
X191233506Y-190007920D01*
X191131857Y-189919557D01*
X190986026Y-189882020D01*
X190891020Y-189888663D01*
X190751832Y-189946131D01*
X190707651Y-189996956D01*
X189820703Y-190965949D02*
X190390740Y-190926088D01*
X190105721Y-190946018D02*
X190035965Y-189948454D01*
X190140936Y-190084320D01*
X190242586Y-190172683D01*
X190340914Y-190213542D01*
X188895892Y-190028176D02*
X189085904Y-190014889D01*
X189184232Y-190055749D01*
X189235057Y-190099930D01*
X189340028Y-190235796D01*
X189400818Y-190422486D01*
X189427392Y-190802510D01*
X189386532Y-190900838D01*
X189342351Y-190951663D01*
X189250667Y-191005810D01*
X189060654Y-191019097D01*
X188962327Y-190978237D01*
X188911502Y-190934056D01*
X188857355Y-190842371D01*
X188840747Y-190604856D01*
X188881606Y-190506528D01*
X188925787Y-190455703D01*
X189017472Y-190401557D01*
X189207484Y-190388270D01*
X189305812Y-190429130D01*
X189356637Y-190473311D01*
X189410783Y-190564995D01*
G04 #@! TO.C,C17*
X200323738Y-160694992D02*
X200352310Y-160666421D01*
X200380881Y-160580707D01*
X200380881Y-160523564D01*
X200352310Y-160437849D01*
X200295167Y-160380707D01*
X200238024Y-160352135D01*
X200123738Y-160323564D01*
X200038024Y-160323564D01*
X199923738Y-160352135D01*
X199866595Y-160380707D01*
X199809453Y-160437849D01*
X199780881Y-160523564D01*
X199780881Y-160580707D01*
X199809453Y-160666421D01*
X199838024Y-160694992D01*
X200380881Y-161266421D02*
X200380881Y-160923564D01*
X200380881Y-161094992D02*
X199780881Y-161094992D01*
X199866595Y-161037849D01*
X199923738Y-160980707D01*
X199952310Y-160923564D01*
X199780881Y-161466421D02*
X199780881Y-161866421D01*
X200380881Y-161609278D01*
G04 #@! TO.C,L3*
X198109567Y-171703745D02*
X198585104Y-171678823D01*
X198532768Y-170680193D01*
X197819462Y-170717576D02*
X197201262Y-170749975D01*
X197554076Y-171112960D01*
X197411415Y-171120436D01*
X197318800Y-171172974D01*
X197273738Y-171223020D01*
X197231169Y-171320620D01*
X197243630Y-171558389D01*
X197296168Y-171651004D01*
X197346214Y-171696066D01*
X197443814Y-171738635D01*
X197729136Y-171723682D01*
X197821752Y-171671144D01*
X197866813Y-171621098D01*
G04 #@! TO.C,Q1*
X192634691Y-179338326D02*
X192729929Y-179290707D01*
X192825167Y-179195468D01*
X192968024Y-179052611D01*
X193063262Y-179004992D01*
X193158500Y-179004992D01*
X193110881Y-179243087D02*
X193206119Y-179195468D01*
X193301357Y-179100230D01*
X193348976Y-178909754D01*
X193348976Y-178576421D01*
X193301357Y-178385945D01*
X193206119Y-178290707D01*
X193110881Y-178243087D01*
X192920405Y-178243087D01*
X192825167Y-178290707D01*
X192729929Y-178385945D01*
X192682310Y-178576421D01*
X192682310Y-178909754D01*
X192729929Y-179100230D01*
X192825167Y-179195468D01*
X192920405Y-179243087D01*
X193110881Y-179243087D01*
X191729929Y-179243087D02*
X192301357Y-179243087D01*
X192015643Y-179243087D02*
X192015643Y-178243087D01*
X192110881Y-178385945D01*
X192206119Y-178481183D01*
X192301357Y-178528802D01*
G04 #@! TO.C,R15*
X188411833Y-178897849D02*
X187935643Y-178564516D01*
X188411833Y-178326421D02*
X187411833Y-178326421D01*
X187411833Y-178707373D01*
X187459453Y-178802611D01*
X187507072Y-178850230D01*
X187602310Y-178897849D01*
X187745167Y-178897849D01*
X187840405Y-178850230D01*
X187888024Y-178802611D01*
X187935643Y-178707373D01*
X187935643Y-178326421D01*
X188411833Y-179850230D02*
X188411833Y-179278802D01*
X188411833Y-179564516D02*
X187411833Y-179564516D01*
X187554691Y-179469278D01*
X187649929Y-179374040D01*
X187697548Y-179278802D01*
X187411833Y-180754992D02*
X187411833Y-180278802D01*
X187888024Y-180231183D01*
X187840405Y-180278802D01*
X187792786Y-180374040D01*
X187792786Y-180612135D01*
X187840405Y-180707373D01*
X187888024Y-180754992D01*
X187983262Y-180802611D01*
X188221357Y-180802611D01*
X188316595Y-180754992D01*
X188364214Y-180707373D01*
X188411833Y-180612135D01*
X188411833Y-180374040D01*
X188364214Y-180278802D01*
X188316595Y-180231183D01*
G04 #@! TO.C,JP2*
X196648024Y-170580707D02*
X196219453Y-170580707D01*
X196133738Y-170609278D01*
X196076595Y-170666421D01*
X196048024Y-170752135D01*
X196048024Y-170809278D01*
X196048024Y-170294992D02*
X196648024Y-170294992D01*
X196648024Y-170066421D01*
X196619453Y-170009278D01*
X196590881Y-169980707D01*
X196533738Y-169952135D01*
X196448024Y-169952135D01*
X196390881Y-169980707D01*
X196362310Y-170009278D01*
X196333738Y-170066421D01*
X196333738Y-170294992D01*
X196590881Y-169723564D02*
X196619453Y-169694992D01*
X196648024Y-169637849D01*
X196648024Y-169494992D01*
X196619453Y-169437849D01*
X196590881Y-169409278D01*
X196533738Y-169380707D01*
X196476595Y-169380707D01*
X196390881Y-169409278D01*
X196048024Y-169752135D01*
X196048024Y-169380707D01*
G04 #@! TO.C,JP3*
X202850881Y-167820707D02*
X203279453Y-167820707D01*
X203365167Y-167792135D01*
X203422310Y-167734992D01*
X203450881Y-167649278D01*
X203450881Y-167592135D01*
X203450881Y-168106421D02*
X202850881Y-168106421D01*
X202850881Y-168334992D01*
X202879453Y-168392135D01*
X202908024Y-168420707D01*
X202965167Y-168449278D01*
X203050881Y-168449278D01*
X203108024Y-168420707D01*
X203136595Y-168392135D01*
X203165167Y-168334992D01*
X203165167Y-168106421D01*
X202850881Y-168649278D02*
X202850881Y-169020707D01*
X203079453Y-168820707D01*
X203079453Y-168906421D01*
X203108024Y-168963564D01*
X203136595Y-168992135D01*
X203193738Y-169020707D01*
X203336595Y-169020707D01*
X203393738Y-168992135D01*
X203422310Y-168963564D01*
X203450881Y-168906421D01*
X203450881Y-168734992D01*
X203422310Y-168677849D01*
X203393738Y-168649278D01*
G04 #@! TO.C,JP5*
X199860881Y-165580707D02*
X200289453Y-165580707D01*
X200375167Y-165552135D01*
X200432310Y-165494992D01*
X200460881Y-165409278D01*
X200460881Y-165352135D01*
X200460881Y-165866421D02*
X199860881Y-165866421D01*
X199860881Y-166094992D01*
X199889453Y-166152135D01*
X199918024Y-166180707D01*
X199975167Y-166209278D01*
X200060881Y-166209278D01*
X200118024Y-166180707D01*
X200146595Y-166152135D01*
X200175167Y-166094992D01*
X200175167Y-165866421D01*
X199860881Y-166752135D02*
X199860881Y-166466421D01*
X200146595Y-166437849D01*
X200118024Y-166466421D01*
X200089453Y-166523564D01*
X200089453Y-166666421D01*
X200118024Y-166723564D01*
X200146595Y-166752135D01*
X200203738Y-166780707D01*
X200346595Y-166780707D01*
X200403738Y-166752135D01*
X200432310Y-166723564D01*
X200460881Y-166666421D01*
X200460881Y-166523564D01*
X200432310Y-166466421D01*
X200403738Y-166437849D01*
G04 #@! TO.C,R16*
X202220881Y-180744992D02*
X201935167Y-180544992D01*
X202220881Y-180402135D02*
X201620881Y-180402135D01*
X201620881Y-180630707D01*
X201649453Y-180687849D01*
X201678024Y-180716421D01*
X201735167Y-180744992D01*
X201820881Y-180744992D01*
X201878024Y-180716421D01*
X201906595Y-180687849D01*
X201935167Y-180630707D01*
X201935167Y-180402135D01*
X202220881Y-181316421D02*
X202220881Y-180973564D01*
X202220881Y-181144992D02*
X201620881Y-181144992D01*
X201706595Y-181087849D01*
X201763738Y-181030707D01*
X201792310Y-180973564D01*
X201620881Y-181830707D02*
X201620881Y-181716421D01*
X201649453Y-181659278D01*
X201678024Y-181630707D01*
X201763738Y-181573564D01*
X201878024Y-181544992D01*
X202106595Y-181544992D01*
X202163738Y-181573564D01*
X202192310Y-181602135D01*
X202220881Y-181659278D01*
X202220881Y-181773564D01*
X202192310Y-181830707D01*
X202163738Y-181859278D01*
X202106595Y-181887849D01*
X201963738Y-181887849D01*
X201906595Y-181859278D01*
X201878024Y-181830707D01*
X201849453Y-181773564D01*
X201849453Y-181659278D01*
X201878024Y-181602135D01*
X201906595Y-181573564D01*
X201963738Y-181544992D01*
G04 #@! TO.C,R17*
X202160881Y-172494992D02*
X201875167Y-172294992D01*
X202160881Y-172152135D02*
X201560881Y-172152135D01*
X201560881Y-172380707D01*
X201589453Y-172437849D01*
X201618024Y-172466421D01*
X201675167Y-172494992D01*
X201760881Y-172494992D01*
X201818024Y-172466421D01*
X201846595Y-172437849D01*
X201875167Y-172380707D01*
X201875167Y-172152135D01*
X202160881Y-173066421D02*
X202160881Y-172723564D01*
X202160881Y-172894992D02*
X201560881Y-172894992D01*
X201646595Y-172837849D01*
X201703738Y-172780707D01*
X201732310Y-172723564D01*
X201560881Y-173266421D02*
X201560881Y-173666421D01*
X202160881Y-173409278D01*
G04 #@! TO.C,U10*
X202700881Y-170017849D02*
X203186595Y-170017849D01*
X203243738Y-170046421D01*
X203272310Y-170074992D01*
X203300881Y-170132135D01*
X203300881Y-170246421D01*
X203272310Y-170303564D01*
X203243738Y-170332135D01*
X203186595Y-170360707D01*
X202700881Y-170360707D01*
X203300881Y-170960707D02*
X203300881Y-170617849D01*
X203300881Y-170789278D02*
X202700881Y-170789278D01*
X202786595Y-170732135D01*
X202843738Y-170674992D01*
X202872310Y-170617849D01*
X202700881Y-171332135D02*
X202700881Y-171389278D01*
X202729453Y-171446421D01*
X202758024Y-171474992D01*
X202815167Y-171503564D01*
X202929453Y-171532135D01*
X203072310Y-171532135D01*
X203186595Y-171503564D01*
X203243738Y-171474992D01*
X203272310Y-171446421D01*
X203300881Y-171389278D01*
X203300881Y-171332135D01*
X203272310Y-171274992D01*
X203243738Y-171246421D01*
X203186595Y-171217849D01*
X203072310Y-171189278D01*
X202929453Y-171189278D01*
X202815167Y-171217849D01*
X202758024Y-171246421D01*
X202729453Y-171274992D01*
X202700881Y-171332135D01*
G04 #@! TD*
M02*
