<?xml version="1.0"?>
<!DOCTYPE svg PUBLIC "-//W3C//DTD SVG 1.1//EN" "http://www.w3.org/Graphics/SVG/1.1/DTD/svg11.dtd">
<svg width="85.9204185296mm" height="277.315345446mm" viewBox="0 0 85.9204185296 277.315345446" xmlns="http://www.w3.org/2000/svg" version="1.1">
<g id="Offset2D" transform="translate(34.277243,138.685326) scale(1,-1)">
<path id="Offset2D_w0000"  d="M 43.1724151914 41.0042323224 A 88.5155 88.5155 0 0 1 36.587 125.068A 28 28 0 0 1 -9.75349 126.05A 2 2 0 0 0 -9.75349 126.05A 128.762 128.762 0 0 1 -33.0076 40.3656A 2 2 0 0 0 -33.0076 40.3656A 1400.38 1400.38 0 0 0 -27.9944 -109.249A 28 28 0 1 1 27.4293 -104.184A 2.0 2.0 0 0 0 27.4292757894 -104.18365003 A 239.167 239.167 0 0 0 43.1724 41.0042" stroke="#000000" stroke-width="0.35 px" style="stroke-width:0.35;stroke-miterlimit:4;stroke-dasharray:none;fill:none;fill-rule: evenodd "/>
<title>Offset2D</title>
</g>
</svg>