  0
SECTION
  2
HEADER
  9
$ACADVER
  1
AC1014
  9
$HANDSEED
  5
FFFF
  9
$MEASUREMENT
 70
     1
  0
ENDSEC
  0
SECTION
  2
TABLES
  0
TABLE
  2
VPORT
  5
8
330
0
100
AcDbSymbolTable
 70
     4
  0
VPORT
  5
2E
330
8
100
AcDbSymbolTableRecord
100
AcDbViewportTableRecord
  2
*ACTIVE
 70
     0
 10
0.0
 20
0.0
 11
1.0
 21
1.0
 12
210.0
 22
148.5
 13
0.0
 23
0.0
 14
10.0
 24
10.0
 15
10.0
 25
10.0
 16
0.0
 26
0.0
 36
1.0
 17
0.0
 27
0.0
 37
0.0
 40
341.0
 41
1.24
 42
50.0
 43
0.0
 44
0.0
 50
0.0
 51
0.0
 71
     0
 72
   100
 73
     1
 74
     3
 75
     0
 76
     0
 77
     0
 78
     0
  0
ENDTAB
  0
TABLE
  2
LTYPE
  5
5
330
0
100
AcDbSymbolTable
 70
     1
  0
LTYPE
  5
14
330
5
100
AcDbSymbolTableRecord
100
AcDbLinetypeTableRecord
  2
BYBLOCK
 70
     0
  3

 72
    65
 73
     0
 40
0.0
  0
LTYPE
  5
15
330
5
100
AcDbSymbolTableRecord
100
AcDbLinetypeTableRecord
  2
BYLAYER
 70
     0
  3

 72
    65
 73
     0
 40
0.0
  0
LTYPE
  5
16
330
5
100
AcDbSymbolTableRecord
100
AcDbLinetypeTableRecord
  2
CONTINUOUS
 70
     0
  3
Solid line
 72
    65
 73
     0
 40
0.0
  0
ENDTAB
  0
TABLE
  2
LAYER
  5
2
100
AcDbSymbolTable
 70
1
  0
LAYER
  5
50
100
AcDbSymbolTableRecord
100
AcDbLayerTableRecord
  2
0
 70
0
  6
CONTINUOUS
  0
ENDTAB
  0
TABLE
  2
STYLE
  5
3
330
0
100
AcDbSymbolTable
 70
     1
  0
STYLE
  5
11
330
3
100
AcDbSymbolTableRecord
100
AcDbTextStyleTableRecord
  2
STANDARD
 70
     0
 40
0.0
 41
1.0
 50
0.0
 71
     0
 42
2.5
  3
txt
  4

  0
ENDTAB
  0
TABLE
  2
VIEW
  5
6
330
0
100
AcDbSymbolTable
 70
     0
  0
ENDTAB
  0
TABLE
  2
UCS
  5
7
330
0
100
AcDbSymbolTable
 70
     0
  0
ENDTAB
  0
TABLE
  2
APPID
  5
9
330
0
100
AcDbSymbolTable
 70
     2
  0
APPID
  5
12
330
9
100
AcDbSymbolTableRecord
100
AcDbRegAppTableRecord
  2
ACAD
 70
     0
  0
ENDTAB
  0
TABLE
  2
DIMSTYLE
  5
A
330
0
100
AcDbSymbolTable
 70
     1
  0
DIMSTYLE
105
27
330
A
100
AcDbSymbolTableRecord
100
AcDbDimStyleTableRecord
  2
ISO-25
 70
     0
  3

  4

  5

  6

  7

 40
1.0
 41
2.5
 42
0.625
 43
3.75
 44
1.25
 45
0.0
 46
0.0
 47
0.0
 48
0.0
140
2.5
141
2.5
142
0.0
143
0.03937007874016
144
1.0
145
0.0
146
1.0
147
0.625
 71
     0
 72
     0
 73
     0
 74
     0
 75
     0
 76
     0
 77
     1
 78
     8
170
     0
171
     3
172
     1
173
     0
174
     0
175
     0
176
     0
177
     0
178
     0
270
     2
271
     2
272
     2
273
     2
274
     3
340
11
275
     0
280
     0
281
     0
282
     0
283
     0
284
     8
285
     0
286
     0
287
     3
288
     0
  0
ENDTAB
  0
TABLE
  2
BLOCK_RECORD
  5
1
330
0
100
AcDbSymbolTable
 70
     1
  0
BLOCK_RECORD
  5
1F
330
1
100
AcDbSymbolTableRecord
100
AcDbBlockTableRecord
  2
*MODEL_SPACE
  0
BLOCK_RECORD
  5
1B
330
1
100
AcDbSymbolTableRecord
100
AcDbBlockTableRecord
  2
*PAPER_SPACE
  0
ENDTAB
  0
ENDSEC
  0
SECTION
  2
BLOCKS
  0
BLOCK
  5
20
330
1F
100
AcDbEntity
  8
0
100
AcDbBlockBegin
  2
*MODEL_SPACE
 70
     0
 10
0.0
 20
0.0
 30
0.0
  3
*MODEL_SPACE
  1

  0
ENDBLK
  5
21
330
1F
100
AcDbEntity
  8
0
100
AcDbBlockEnd
  0
BLOCK
  5
1C
330
1B
100
AcDbEntity
 67
     1
  8
0
100
AcDbBlockBegin
  2
*PAPER_SPACE
  1

  0
ENDBLK
  5
1D
330
1B
100
AcDbEntity
 67
     1
  8
0
100
AcDbBlockEnd
  0
ENDSEC
  0
SECTION
  2
ENTITIES
  0
LWPOLYLINE
  5
100
100
AcDbEntity
  8
0
 62
7
100
AcDbPolyline
 90
112
 70
1
 10
80.877830
 20
180.740435
 30
0.0
 10
83.032353
 20
186.030030
 30
0.0
 10
84.837573
 20
191.406203
 30
0.0
 10
86.294758
 20
196.852776
 30
0.0
 10
87.405176
 20
202.353570
 30
0.0
 10
88.170093
 20
207.892407
 30
0.0
 10
88.590778
 20
213.453110
 30
0.0
 10
88.668498
 20
219.019501
 30
0.0
 10
88.404519
 20
224.575401
 30
0.0
 10
87.800109
 20
230.104632
 30
0.0
 10
86.856535
 20
235.591016
 30
0.0
 10
85.575065
 20
241.018376
 30
0.0
 10
83.956967
 20
246.370536
 30
0.0
 10
82.003507
 20
251.631306
 30
0.0
 10
79.715953
 20
256.784526
 30
0.0
 10
77.095572
 20
261.814006
 30
0.0
 10
74.143632
 20
266.703566
 30
0.0
 10
71.821348
 20
269.838916
 30
0.0
 10
69.204145
 20
272.569036
 30
0.0
 10
66.332908
 20
274.893046
 30
0.0
 10
63.248525
 20
276.810086
 30
0.0
 10
59.991881
 20
278.319296
 30
0.0
 10
56.603864
 20
279.419796
 30
0.0
 10
53.125359
 20
280.110726
 30
0.0
 10
49.597253
 20
280.391226
 30
0.0
 10
46.060432
 20
280.260416
 30
0.0
 10
42.555783
 20
279.717446
 30
0.0
 10
39.124192
 20
278.761436
 30
0.0
 10
35.806545
 20
277.391536
 30
0.0
 10
32.643730
 20
275.606856
 30
0.0
 10
29.676631
 20
273.406546
 30
0.0
 10
26.946137
 20
270.789736
 30
0.0
 10
24.493132
 20
267.755566
 30
0.0
 10
21.242110
 20
262.950336
 30
0.0
 10
18.217554
 20
258.023056
 30
0.0
 10
15.421650
 20
252.981786
 30
0.0
 10
12.856588
 20
247.834586
 30
0.0
 10
10.524554
 20
242.589526
 30
0.0
 10
8.427737
 20
237.254665
 30
0.0
 10
6.568325
 20
231.838061
 30
0.0
 10
4.948506
 20
226.347778
 30
0.0
 10
3.570467
 20
220.791877
 30
0.0
 10
2.436396
 20
215.178421
 30
0.0
 10
1.548482
 20
209.515470
 30
0.0
 10
0.908912
 20
203.811087
 30
0.0
 10
0.519874
 20
198.073333
 30
0.0
 10
0.383556
 20
192.310271
 30
0.0
 10
0.502146
 20
186.529961
 30
0.0
 10
0.877832
 20
180.740466
 30
0.0
 10
1.658751
 20
171.424077
 30
0.0
 10
2.377313
 20
162.103405
 30
0.0
 10
3.033507
 20
152.778763
 30
0.0
 10
3.627324
 20
143.450464
 30
0.0
 10
4.158752
 20
134.118820
 30
0.0
 10
4.627781
 20
124.784145
 30
0.0
 10
5.034401
 20
115.446753
 30
0.0
 10
5.378602
 20
106.106956
 30
0.0
 10
5.660372
 20
96.765066
 30
0.0
 10
5.879701
 20
87.421398
 30
0.0
 10
6.036579
 20
78.076264
 30
0.0
 10
6.130999
 20
68.729978
 30
0.0
 10
6.162939
 20
59.382852
 30
0.0
 10
6.132399
 20
50.035199
 30
0.0
 10
6.039369
 20
40.687333
 30
0.0
 10
5.883833
 20
31.339566
 30
0.0
 10
5.996771
 20
28.032526
 30
0.0
 10
6.456807
 20
24.829156
 30
0.0
 10
7.244774
 20
21.747326
 30
0.0
 10
8.341501
 20
18.804866
 30
0.0
 10
9.727821
 20
16.019646
 30
0.0
 10
11.384564
 20
13.409496
 30
0.0
 10
13.292563
 20
10.992296
 30
0.0
 10
15.432647
 20
8.785866
 30
0.0
 10
17.785650
 20
6.808076
 30
0.0
 10
20.332400
 20
5.076766
 30
0.0
 10
23.053731
 20
3.609796
 30
0.0
 10
25.930474
 20
2.425016
 30
0.0
 10
28.943458
 20
1.540266
 30
0.0
 10
32.073517
 20
0.973406
 30
0.0
 10
35.301481
 20
0.742286
 30
0.0
 10
38.608181
 20
0.864756
 30
0.0
 10
41.882302
 20
1.343716
 30
0.0
 10
45.014896
 20
2.156126
 30
0.0
 10
47.990349
 20
3.280966
 30
0.0
 10
50.793044
 20
4.697216
 30
0.0
 10
53.407367
 20
6.383836
 30
0.0
 10
55.817701
 20
8.319786
 30
0.0
 10
58.008433
 20
10.484056
 30
0.0
 10
59.963945
 20
12.855606
 30
0.0
 10
61.668624
 20
15.413406
 30
0.0
 10
63.106853
 20
18.136426
 30
0.0
 10
64.263018
 20
21.003646
 30
0.0
 10
65.121503
 20
23.994026
 30
0.0
 10
65.666692
 20
27.086536
 30
0.0
 10
65.882970
 20
30.260146
 30
0.0
 10
65.754722
 20
33.493836
 30
0.0
 10
65.266333
 20
36.766566
 30
0.0
 10
63.583919
 20
45.870512
 30
0.0
 10
62.261143
 20
55.008523
 30
0.0
 10
61.296886
 20
64.170281
 30
0.0
 10
60.690029
 20
73.345472
 30
0.0
 10
60.439455
 20
82.523778
 30
0.0
 10
60.544044
 20
91.694885
 30
0.0
 10
61.002678
 20
100.848477
 30
0.0
 10
61.814238
 20
109.974236
 30
0.0
 10
62.977605
 20
119.061848
 30
0.0
 10
64.491662
 20
128.100997
 30
0.0
 10
66.355290
 20
137.081367
 30
0.0
 10
68.567369
 20
145.992641
 30
0.0
 10
71.126781
 20
154.824504
 30
0.0
 10
74.032409
 20
163.566639
 30
0.0
 10
77.283132
 20
172.208732
 30
0.0
  0
ENDSEC
  0
SECTION
  2
OBJECTS
  0
DICTIONARY
  5
C
330
0
100
AcDbDictionary
  3
ACAD_GROUP
350
D
  3
ACAD_MLINESTYLE
350
17
  0
DICTIONARY
  5
D
330
C
100
AcDbDictionary
  0
DICTIONARY
  5
1A
330
C
100
AcDbDictionary
  0
DICTIONARY
  5
17
330
C
100
AcDbDictionary
  3
STANDARD
350
18
  0
DICTIONARY
  5
19
330
C
100
AcDbDictionary
  0
ENDSEC
  0
EOF
