  0
SECTION
  2
HEADER
  9
$ACADVER
  1
AC1014
  9
$HANDSEED
  5
FFFF
  9
$MEASUREMENT
 70
     1
  0
ENDSEC
  0
SECTION
  2
TABLES
  0
TABLE
  2
VPORT
  5
8
330
0
100
AcDbSymbolTable
 70
     4
  0
VPORT
  5
2E
330
8
100
AcDbSymbolTableRecord
100
AcDbViewportTableRecord
  2
*ACTIVE
 70
     0
 10
0.0
 20
0.0
 11
1.0
 21
1.0
 12
210.0
 22
148.5
 13
0.0
 23
0.0
 14
10.0
 24
10.0
 15
10.0
 25
10.0
 16
0.0
 26
0.0
 36
1.0
 17
0.0
 27
0.0
 37
0.0
 40
341.0
 41
1.24
 42
50.0
 43
0.0
 44
0.0
 50
0.0
 51
0.0
 71
     0
 72
   100
 73
     1
 74
     3
 75
     0
 76
     0
 77
     0
 78
     0
  0
ENDTAB
  0
TABLE
  2
LTYPE
  5
5
330
0
100
AcDbSymbolTable
 70
     1
  0
LTYPE
  5
14
330
5
100
AcDbSymbolTableRecord
100
AcDbLinetypeTableRecord
  2
BYBLOCK
 70
     0
  3

 72
    65
 73
     0
 40
0.0
  0
LTYPE
  5
15
330
5
100
AcDbSymbolTableRecord
100
AcDbLinetypeTableRecord
  2
BYLAYER
 70
     0
  3

 72
    65
 73
     0
 40
0.0
  0
LTYPE
  5
16
330
5
100
AcDbSymbolTableRecord
100
AcDbLinetypeTableRecord
  2
CONTINUOUS
 70
     0
  3
Solid line
 72
    65
 73
     0
 40
0.0
  0
ENDTAB
  0
TABLE
  2
LAYER
  5
2
100
AcDbSymbolTable
 70
1
  0
LAYER
  5
50
100
AcDbSymbolTableRecord
100
AcDbLayerTableRecord
  2
0
 70
0
  6
CONTINUOUS
  0
ENDTAB
  0
TABLE
  2
STYLE
  5
3
330
0
100
AcDbSymbolTable
 70
     1
  0
STYLE
  5
11
330
3
100
AcDbSymbolTableRecord
100
AcDbTextStyleTableRecord
  2
STANDARD
 70
     0
 40
0.0
 41
1.0
 50
0.0
 71
     0
 42
2.5
  3
txt
  4

  0
ENDTAB
  0
TABLE
  2
VIEW
  5
6
330
0
100
AcDbSymbolTable
 70
     0
  0
ENDTAB
  0
TABLE
  2
UCS
  5
7
330
0
100
AcDbSymbolTable
 70
     0
  0
ENDTAB
  0
TABLE
  2
APPID
  5
9
330
0
100
AcDbSymbolTable
 70
     2
  0
APPID
  5
12
330
9
100
AcDbSymbolTableRecord
100
AcDbRegAppTableRecord
  2
ACAD
 70
     0
  0
ENDTAB
  0
TABLE
  2
DIMSTYLE
  5
A
330
0
100
AcDbSymbolTable
 70
     1
  0
DIMSTYLE
105
27
330
A
100
AcDbSymbolTableRecord
100
AcDbDimStyleTableRecord
  2
ISO-25
 70
     0
  3

  4

  5

  6

  7

 40
1.0
 41
2.5
 42
0.625
 43
3.75
 44
1.25
 45
0.0
 46
0.0
 47
0.0
 48
0.0
140
2.5
141
2.5
142
0.0
143
0.03937007874016
144
1.0
145
0.0
146
1.0
147
0.625
 71
     0
 72
     0
 73
     0
 74
     0
 75
     0
 76
     0
 77
     1
 78
     8
170
     0
171
     3
172
     1
173
     0
174
     0
175
     0
176
     0
177
     0
178
     0
270
     2
271
     2
272
     2
273
     2
274
     3
340
11
275
     0
280
     0
281
     0
282
     0
283
     0
284
     8
285
     0
286
     0
287
     3
288
     0
  0
ENDTAB
  0
TABLE
  2
BLOCK_RECORD
  5
1
330
0
100
AcDbSymbolTable
 70
     1
  0
BLOCK_RECORD
  5
1F
330
1
100
AcDbSymbolTableRecord
100
AcDbBlockTableRecord
  2
*MODEL_SPACE
  0
BLOCK_RECORD
  5
1B
330
1
100
AcDbSymbolTableRecord
100
AcDbBlockTableRecord
  2
*PAPER_SPACE
  0
ENDTAB
  0
ENDSEC
  0
SECTION
  2
BLOCKS
  0
BLOCK
  5
20
330
1F
100
AcDbEntity
  8
0
100
AcDbBlockBegin
  2
*MODEL_SPACE
 70
     0
 10
0.0
 20
0.0
 30
0.0
  3
*MODEL_SPACE
  1

  0
ENDBLK
  5
21
330
1F
100
AcDbEntity
  8
0
100
AcDbBlockEnd
  0
BLOCK
  5
1C
330
1B
100
AcDbEntity
 67
     1
  8
0
100
AcDbBlockBegin
  2
*PAPER_SPACE
  1

  0
ENDBLK
  5
1D
330
1B
100
AcDbEntity
 67
     1
  8
0
100
AcDbBlockEnd
  0
ENDSEC
  0
SECTION
  2
ENTITIES
  0
LWPOLYLINE
  5
100
100
AcDbEntity
  8
0
 62
7
100
AcDbPolyline
 90
256
 70
1
 10
77.449658
 20
179.634251
 30
0.0
 10
78.545894
 20
182.209040
 30
0.0
 10
79.556578
 20
184.806972
 30
0.0
 10
80.481866
 20
187.426071
 30
0.0
 10
81.321913
 20
190.064358
 30
0.0
 10
82.076873
 20
192.719856
 30
0.0
 10
82.746902
 20
195.390588
 30
0.0
 10
83.332154
 20
198.074576
 30
0.0
 10
83.832785
 20
200.769842
 30
0.0
 10
84.248949
 20
203.474409
 30
0.0
 10
84.580802
 20
206.186299
 30
0.0
 10
84.828498
 20
208.903534
 30
0.0
 10
84.992191
 20
211.624138
 30
0.0
 10
85.072041
 20
214.346132
 30
0.0
 10
85.068241
 20
217.067539
 30
0.0
 10
84.980861
 20
219.786381
 30
0.0
 10
84.810097
 20
222.500681
 30
0.0
 10
84.556105
 20
225.208461
 30
0.0
 10
84.219040
 20
227.907743
 30
0.0
 10
83.799058
 20
230.596551
 30
0.0
 10
83.296314
 20
233.272905
 30
0.0
 10
82.710962
 20
235.934830
 30
0.0
 10
82.043157
 20
238.580347
 30
0.0
 10
81.293055
 20
241.207479
 30
0.0
 10
80.460809
 20
243.814249
 30
0.0
 10
79.546576
 20
246.398679
 30
0.0
 10
78.550510
 20
248.958789
 30
0.0
 10
77.472765
 20
251.492599
 30
0.0
 10
76.313498
 20
253.998139
 30
0.0
 10
75.072862
 20
256.473429
 30
0.0
 10
73.751013
 20
258.916489
 30
0.0
 10
72.348105
 20
261.325349
 30
0.0
 10
70.864294
 20
263.698019
 30
0.0
 10
69.817358
 20
265.208419
 30
0.0
 10
68.696838
 20
266.624359
 30
0.0
 10
67.507502
 20
267.945749
 30
0.0
 10
66.254121
 20
269.172479
 30
0.0
 10
64.941466
 20
270.304449
 30
0.0
 10
63.574305
 20
271.341569
 30
0.0
 10
62.157411
 20
272.283719
 30
0.0
 10
60.695551
 20
273.130819
 30
0.0
 10
59.193497
 20
273.882749
 30
0.0
 10
57.656019
 20
274.539419
 30
0.0
 10
56.087887
 20
275.100719
 30
0.0
 10
54.493870
 20
275.566559
 30
0.0
 10
52.878739
 20
275.936839
 30
0.0
 10
51.247265
 20
276.211449
 30
0.0
 10
49.604216
 20
276.390279
 30
0.0
 10
47.954364
 20
276.473279
 30
0.0
 10
46.302478
 20
276.460279
 30
0.0
 10
44.653328
 20
276.351209
 30
0.0
 10
43.011685
 20
276.145959
 30
0.0
 10
41.382318
 20
275.844439
 30
0.0
 10
39.769998
 20
275.446549
 30
0.0
 10
38.179495
 20
274.952179
 30
0.0
 10
36.615579
 20
274.361229
 30
0.0
 10
35.083019
 20
273.673599
 30
0.0
 10
33.586587
 20
272.889199
 30
0.0
 10
32.131051
 20
272.007909
 30
0.0
 10
30.721183
 20
271.029639
 30
0.0
 10
29.361752
 20
269.954289
 30
0.0
 10
28.057529
 20
268.781759
 30
0.0
 10
26.813283
 20
267.511939
 30
0.0
 10
25.633785
 20
266.144739
 30
0.0
 10
24.523804
 20
264.680049
 30
0.0
 10
22.895411
 20
262.329699
 30
0.0
 10
21.322498
 20
259.948299
 30
0.0
 10
19.805337
 20
257.536869
 30
0.0
 10
18.344195
 20
255.096379
 30
0.0
 10
16.939343
 20
252.627819
 30
0.0
 10
15.591049
 20
250.132199
 30
0.0
 10
14.299583
 20
247.610499
 30
0.0
 10
13.065214
 20
245.063719
 30
0.0
 10
11.888211
 20
242.492849
 30
0.0
 10
10.768844
 20
239.898869
 30
0.0
 10
9.707383
 20
237.282789
 30
0.0
 10
8.704095
 20
234.645592
 30
0.0
 10
7.759252
 20
231.988273
 30
0.0
 10
6.873121
 20
229.311823
 30
0.0
 10
6.045972
 20
226.617234
 30
0.0
 10
5.278075
 20
223.905500
 30
0.0
 10
4.569699
 20
221.177613
 30
0.0
 10
3.921114
 20
218.434564
 30
0.0
 10
3.332587
 20
215.677347
 30
0.0
 10
2.804390
 20
212.906952
 30
0.0
 10
2.336790
 20
210.124374
 30
0.0
 10
1.930058
 20
207.330603
 30
0.0
 10
1.584463
 20
204.526633
 30
0.0
 10
1.300274
 20
201.713456
 30
0.0
 10
1.077760
 20
198.892063
 30
0.0
 10
0.917191
 20
196.063448
 30
0.0
 10
0.818841
 20
193.228602
 30
0.0
 10
0.782971
 20
190.388519
 30
0.0
 10
0.809851
 20
187.544189
 30
0.0
 10
0.899751
 20
184.696606
 30
0.0
 10
1.052945
 20
181.846762
 30
0.0
 10
1.269699
 20
178.995649
 30
0.0
 10
1.668523
 20
174.331347
 30
0.0
 10
2.051737
 20
169.665934
 30
0.0
 10
2.419340
 20
164.999449
 30
0.0
 10
2.771329
 20
160.331930
 30
0.0
 10
3.107705
 20
155.663418
 30
0.0
 10
3.428465
 20
150.993950
 30
0.0
 10
3.733608
 20
146.323568
 30
0.0
 10
4.023133
 20
141.652308
 30
0.0
 10
4.297039
 20
136.980212
 30
0.0
 10
4.555324
 20
132.307317
 30
0.0
 10
4.797987
 20
127.633663
 30
0.0
 10
5.025027
 20
122.959290
 30
0.0
 10
5.236442
 20
118.284237
 30
0.0
 10
5.432231
 20
113.608542
 30
0.0
 10
5.612393
 20
108.932245
 30
0.0
 10
5.776927
 20
104.255385
 30
0.0
 10
5.925830
 20
99.578001
 30
0.0
 10
6.059102
 20
94.900133
 30
0.0
 10
6.176742
 20
90.221820
 30
0.0
 10
6.278747
 20
85.543100
 30
0.0
 10
6.365117
 20
80.864014
 30
0.0
 10
6.435847
 20
76.184599
 30
0.0
 10
6.490947
 20
71.504896
 30
0.0
 10
6.530407
 20
66.824944
 30
0.0
 10
6.554227
 20
62.144781
 30
0.0
 10
6.562427
 20
57.464448
 30
0.0
 10
6.554927
 20
52.783982
 30
0.0
 10
6.531817
 20
48.103424
 30
0.0
 10
6.493057
 20
43.422813
 30
0.0
 10
6.438657
 20
38.742187
 30
0.0
 10
6.368607
 20
34.061589
 30
0.0
 10
6.282907
 20
29.381049
 30
0.0
 10
6.293997
 20
27.826709
 30
0.0
 10
6.388317
 20
26.294479
 30
0.0
 10
6.563623
 20
24.786439
 30
0.0
 10
6.817682
 20
23.304679
 30
0.0
 10
7.148258
 20
21.851269
 30
0.0
 10
7.553114
 20
20.428299
 30
0.0
 10
8.030013
 20
19.037849
 30
0.0
 10
8.576721
 20
17.682009
 30
0.0
 10
9.190999
 20
16.362859
 30
0.0
 10
9.870613
 20
15.082469
 30
0.0
 10
10.613325
 20
13.842939
 30
0.0
 10
11.416900
 20
12.646339
 30
0.0
 10
12.279100
 20
11.494759
 30
0.0
 10
13.197690
 20
10.390269
 30
0.0
 10
14.170433
 20
9.334979
 30
0.0
 10
15.195094
 20
8.330939
 30
0.0
 10
16.269435
 20
7.380259
 30
0.0
 10
17.391220
 20
6.484999
 30
0.0
 10
18.558213
 20
5.647259
 30
0.0
 10
19.768179
 20
4.869109
 30
0.0
 10
21.018879
 20
4.152639
 30
0.0
 10
22.308079
 20
3.499929
 30
0.0
 10
23.633541
 20
2.913069
 30
0.0
 10
24.993030
 20
2.394129
 30
0.0
 10
26.384308
 20
1.945199
 30
0.0
 10
27.805141
 20
1.568359
 30
0.0
 10
29.253291
 20
1.265689
 30
0.0
 10
30.726522
 20
1.039279
 30
0.0
 10
32.222598
 20
0.891209
 30
0.0
 10
33.739282
 20
0.823609
 30
0.0
 10
35.274339
 20
0.838409
 30
0.0
 10
36.825531
 20
0.937809
 30
0.0
 10
38.369053
 20
1.121189
 30
0.0
 10
39.881374
 20
1.384819
 30
0.0
 10
41.360673
 20
1.726269
 30
0.0
 10
42.805127
 20
2.143059
 30
0.0
 10
44.212916
 20
2.632759
 30
0.0
 10
45.582216
 20
3.192909
 30
0.0
 10
46.911207
 20
3.821049
 30
0.0
 10
48.198067
 20
4.514719
 30
0.0
 10
49.440973
 20
5.271489
 30
0.0
 10
50.638105
 20
6.088879
 30
0.0
 10
51.787640
 20
6.964459
 30
0.0
 10
52.887756
 20
7.895769
 30
0.0
 10
53.936631
 20
8.880339
 30
0.0
 10
54.932445
 20
9.915739
 30
0.0
 10
55.873374
 20
10.999499
 30
0.0
 10
56.757598
 20
12.129169
 30
0.0
 10
57.583294
 20
13.302299
 30
0.0
 10
58.348641
 20
14.516439
 30
0.0
 10
59.051817
 20
15.769129
 30
0.0
 10
59.690999
 20
17.057919
 30
0.0
 10
60.264367
 20
18.380349
 30
0.0
 10
60.770099
 20
19.733979
 30
0.0
 10
61.206372
 20
21.116339
 30
0.0
 10
61.571365
 20
22.524989
 30
0.0
 10
61.863256
 20
23.957469
 30
0.0
 10
62.080223
 20
25.411319
 30
0.0
 10
62.220445
 20
26.884109
 30
0.0
 10
62.282095
 20
28.373359
 30
0.0
 10
62.263365
 20
29.876629
 30
0.0
 10
62.162419
 20
31.391459
 30
0.0
 10
61.977441
 20
32.915409
 30
0.0
 10
61.706608
 20
34.446009
 30
0.0
 10
61.706607
 20
34.446019
 30
0.0
 10
61.706606
 20
34.446029
 30
0.0
 10
61.706606
 20
34.446039
 30
0.0
 10
61.706605
 20
34.446049
 30
0.0
 10
61.706604
 20
34.446059
 30
0.0
 10
61.706603
 20
34.446079
 30
0.0
 10
61.706603
 20
34.446089
 30
0.0
 10
61.706602
 20
34.446099
 30
0.0
 10
61.706601
 20
34.446109
 30
0.0
 10
61.706600
 20
34.446119
 30
0.0
 10
61.706600
 20
34.446129
 30
0.0
 10
61.706599
 20
34.446139
 30
0.0
 10
61.706598
 20
34.446149
 30
0.0
 10
61.706597
 20
34.446159
 30
0.0
 10
61.706597
 20
34.446169
 30
0.0
 10
61.706596
 20
34.446179
 30
0.0
 10
61.706595
 20
34.446199
 30
0.0
 10
61.706594
 20
34.446209
 30
0.0
 10
61.706594
 20
34.446219
 30
0.0
 10
61.706593
 20
34.446229
 30
0.0
 10
61.706592
 20
34.446239
 30
0.0
 10
61.706591
 20
34.446249
 30
0.0
 10
61.706591
 20
34.446259
 30
0.0
 10
61.706590
 20
34.446269
 30
0.0
 10
61.706589
 20
34.446279
 30
0.0
 10
61.706588
 20
34.446289
 30
0.0
 10
61.706588
 20
34.446309
 30
0.0
 10
61.706587
 20
34.446319
 30
0.0
 10
61.706586
 20
34.446329
 30
0.0
 10
61.706585
 20
34.446339
 30
0.0
 10
61.706585
 20
34.446349
 30
0.0
 10
61.706584
 20
34.446359
 30
0.0
 10
60.812881
 20
39.031769
 30
0.0
 10
60.009987
 20
43.627067
 30
0.0
 10
59.297760
 20
48.230953
 30
0.0
 10
58.676060
 20
52.842127
 30
0.0
 10
58.144745
 20
57.459287
 30
0.0
 10
57.703674
 20
62.081135
 30
0.0
 10
57.352707
 20
66.706368
 30
0.0
 10
57.091702
 20
71.333688
 30
0.0
 10
56.920519
 20
75.961793
 30
0.0
 10
56.839019
 20
80.589383
 30
0.0
 10
56.847019
 20
85.215158
 30
0.0
 10
56.944459
 20
89.837818
 30
0.0
 10
57.131152
 20
94.456062
 30
0.0
 10
57.406960
 20
99.068590
 30
0.0
 10
57.771744
 20
103.674101
 30
0.0
 10
58.225363
 20
108.271295
 30
0.0
 10
58.767675
 20
112.858872
 30
0.0
 10
59.398539
 20
117.435531
 30
0.0
 10
60.117815
 20
121.999973
 30
0.0
 10
60.925361
 20
126.550896
 30
0.0
 10
61.821036
 20
131.087000
 30
0.0
 10
62.804700
 20
135.606986
 30
0.0
 10
63.876212
 20
140.109551
 30
0.0
 10
65.035429
 20
144.593397
 30
0.0
 10
66.282212
 20
149.057223
 30
0.0
 10
67.616420
 20
153.499728
 30
0.0
 10
69.037910
 20
157.919612
 30
0.0
 10
70.546544
 20
162.315576
 30
0.0
 10
72.142178
 20
166.686317
 30
0.0
 10
73.824673
 20
171.030537
 30
0.0
 10
75.593887
 20
175.346934
 30
0.0
  0
ENDSEC
  0
SECTION
  2
OBJECTS
  0
DICTIONARY
  5
C
330
0
100
AcDbDictionary
  3
ACAD_GROUP
350
D
  3
ACAD_MLINESTYLE
350
17
  0
DICTIONARY
  5
D
330
C
100
AcDbDictionary
  0
DICTIONARY
  5
1A
330
C
100
AcDbDictionary
  0
DICTIONARY
  5
17
330
C
100
AcDbDictionary
  3
STANDARD
350
18
  0
DICTIONARY
  5
19
330
C
100
AcDbDictionary
  0
ENDSEC
  0
EOF
