  0
SECTION
  2
HEADER
  9
$ACADVER
  1
AC1014
  9
$HANDSEED
  5
FFFF
  9
$MEASUREMENT
 70
     1
  0
ENDSEC
  0
SECTION
  2
TABLES
  0
TABLE
  2
VPORT
  5
8
330
0
100
AcDbSymbolTable
 70
     4
  0
VPORT
  5
2E
330
8
100
AcDbSymbolTableRecord
100
AcDbViewportTableRecord
  2
*ACTIVE
 70
     0
 10
0.0
 20
0.0
 11
1.0
 21
1.0
 12
210.0
 22
148.5
 13
0.0
 23
0.0
 14
10.0
 24
10.0
 15
10.0
 25
10.0
 16
0.0
 26
0.0
 36
1.0
 17
0.0
 27
0.0
 37
0.0
 40
341.0
 41
1.24
 42
50.0
 43
0.0
 44
0.0
 50
0.0
 51
0.0
 71
     0
 72
   100
 73
     1
 74
     3
 75
     0
 76
     0
 77
     0
 78
     0
  0
ENDTAB
  0
TABLE
  2
LTYPE
  5
5
330
0
100
AcDbSymbolTable
 70
     1
  0
LTYPE
  5
14
330
5
100
AcDbSymbolTableRecord
100
AcDbLinetypeTableRecord
  2
BYBLOCK
 70
     0
  3

 72
    65
 73
     0
 40
0.0
  0
LTYPE
  5
15
330
5
100
AcDbSymbolTableRecord
100
AcDbLinetypeTableRecord
  2
BYLAYER
 70
     0
  3

 72
    65
 73
     0
 40
0.0
  0
LTYPE
  5
16
330
5
100
AcDbSymbolTableRecord
100
AcDbLinetypeTableRecord
  2
CONTINUOUS
 70
     0
  3
Solid line
 72
    65
 73
     0
 40
0.0
  0
ENDTAB
  0
TABLE
  2
LAYER
  5
2
100
AcDbSymbolTable
 70
1
  0
LAYER
  5
50
100
AcDbSymbolTableRecord
100
AcDbLayerTableRecord
  2
0
 70
0
  6
CONTINUOUS
  0
ENDTAB
  0
TABLE
  2
STYLE
  5
3
330
0
100
AcDbSymbolTable
 70
     1
  0
STYLE
  5
11
330
3
100
AcDbSymbolTableRecord
100
AcDbTextStyleTableRecord
  2
STANDARD
 70
     0
 40
0.0
 41
1.0
 50
0.0
 71
     0
 42
2.5
  3
txt
  4

  0
ENDTAB
  0
TABLE
  2
VIEW
  5
6
330
0
100
AcDbSymbolTable
 70
     0
  0
ENDTAB
  0
TABLE
  2
UCS
  5
7
330
0
100
AcDbSymbolTable
 70
     0
  0
ENDTAB
  0
TABLE
  2
APPID
  5
9
330
0
100
AcDbSymbolTable
 70
     2
  0
APPID
  5
12
330
9
100
AcDbSymbolTableRecord
100
AcDbRegAppTableRecord
  2
ACAD
 70
     0
  0
ENDTAB
  0
TABLE
  2
DIMSTYLE
  5
A
330
0
100
AcDbSymbolTable
 70
     1
  0
DIMSTYLE
105
27
330
A
100
AcDbSymbolTableRecord
100
AcDbDimStyleTableRecord
  2
ISO-25
 70
     0
  3

  4

  5

  6

  7

 40
1.0
 41
2.5
 42
0.625
 43
3.75
 44
1.25
 45
0.0
 46
0.0
 47
0.0
 48
0.0
140
2.5
141
2.5
142
0.0
143
0.03937007874016
144
1.0
145
0.0
146
1.0
147
0.625
 71
     0
 72
     0
 73
     0
 74
     0
 75
     0
 76
     0
 77
     1
 78
     8
170
     0
171
     3
172
     1
173
     0
174
     0
175
     0
176
     0
177
     0
178
     0
270
     2
271
     2
272
     2
273
     2
274
     3
340
11
275
     0
280
     0
281
     0
282
     0
283
     0
284
     8
285
     0
286
     0
287
     3
288
     0
  0
ENDTAB
  0
TABLE
  2
BLOCK_RECORD
  5
1
330
0
100
AcDbSymbolTable
 70
     1
  0
BLOCK_RECORD
  5
1F
330
1
100
AcDbSymbolTableRecord
100
AcDbBlockTableRecord
  2
*MODEL_SPACE
  0
BLOCK_RECORD
  5
1B
330
1
100
AcDbSymbolTableRecord
100
AcDbBlockTableRecord
  2
*PAPER_SPACE
  0
ENDTAB
  0
ENDSEC
  0
SECTION
  2
BLOCKS
  0
BLOCK
  5
20
330
1F
100
AcDbEntity
  8
0
100
AcDbBlockBegin
  2
*MODEL_SPACE
 70
     0
 10
0.0
 20
0.0
 30
0.0
  3
*MODEL_SPACE
  1

  0
ENDBLK
  5
21
330
1F
100
AcDbEntity
  8
0
100
AcDbBlockEnd
  0
BLOCK
  5
1C
330
1B
100
AcDbEntity
 67
     1
  8
0
100
AcDbBlockBegin
  2
*PAPER_SPACE
  1

  0
ENDBLK
  5
1D
330
1B
100
AcDbEntity
 67
     1
  8
0
100
AcDbBlockEnd
  0
ENDSEC
  0
SECTION
  2
ENTITIES
  0
LWPOLYLINE
  5
100
100
AcDbEntity
  8
0
 62
7
100
AcDbPolyline
 90
225
 70
0
 10
75.414133
 20
176.880712
 30
0.0
 10
76.459155
 20
179.457332
 30
0.0
 10
77.422623
 20
182.057113
 30
0.0
 10
78.304684
 20
184.678075
 30
0.0
 10
79.105487
 20
187.318239
 30
0.0
 10
79.825177
 20
189.975625
 30
0.0
 10
80.463905
 20
192.648258
 30
0.0
 10
81.021816
 20
195.334153
 30
0.0
 10
81.499059
 20
198.031337
 30
0.0
 10
81.895782
 20
200.737827
 30
0.0
 10
82.212131
 20
203.451646
 30
0.0
 10
82.448254
 20
206.170814
 30
0.0
 10
82.604302
 20
208.893352
 30
0.0
 10
82.680412
 20
211.617284
 30
0.0
 10
82.676812
 20
214.340626
 30
0.0
 10
82.593512
 20
217.061402
 30
0.0
 10
82.430725
 20
219.777633
 30
0.0
 10
82.188599
 20
222.487338
 30
0.0
 10
81.867282
 20
225.188540
 30
0.0
 10
81.466920
 20
227.879261
 30
0.0
 10
80.987662
 20
230.557519
 30
0.0
 10
80.429656
 20
233.221337
 30
0.0
 10
79.793049
 20
235.868740
 30
0.0
 10
79.077989
 20
238.497734
 30
0.0
 10
78.284624
 20
241.106366
 30
0.0
 10
77.413102
 20
243.692626
 30
0.0
 10
76.463569
 20
246.254546
 30
0.0
 10
75.436174
 20
248.790176
 30
0.0
 10
74.331064
 20
251.297506
 30
0.0
 10
73.148387
 20
253.774556
 30
0.0
 10
71.888290
 20
256.219346
 30
0.0
 10
70.550923
 20
258.629916
 30
0.0
 10
69.136430
 20
261.004276
 30
0.0
 10
68.090738
 20
262.587916
 30
0.0
 10
66.971550
 20
264.072526
 30
0.0
 10
65.783628
 20
265.458006
 30
0.0
 10
64.531739
 20
266.744226
 30
0.0
 10
63.220645
 20
267.931096
 30
0.0
 10
61.855113
 20
269.018506
 30
0.0
 10
60.439904
 20
270.006356
 30
0.0
 10
58.979787
 20
270.894516
 30
0.0
 10
57.479522
 20
271.682926
 30
0.0
 10
55.943876
 20
272.371436
 30
0.0
 10
54.377613
 20
272.959956
 30
0.0
 10
52.785496
 20
273.448386
 30
0.0
 10
51.172291
 20
273.836606
 30
0.0
 10
49.542762
 20
274.124526
 30
0.0
 10
47.901672
 20
274.312036
 30
0.0
 10
46.253789
 20
274.399036
 30
0.0
 10
44.603873
 20
274.385436
 30
0.0
 10
42.956691
 20
274.271066
 30
0.0
 10
41.317006
 20
274.055856
 30
0.0
 10
39.689584
 20
273.739716
 30
0.0
 10
38.079189
 20
273.322516
 30
0.0
 10
36.490584
 20
272.804166
 30
0.0
 10
34.928535
 20
272.184556
 30
0.0
 10
33.397805
 20
271.463586
 30
0.0
 10
31.903160
 20
270.641126
 30
0.0
 10
30.449363
 20
269.717086
 30
0.0
 10
29.041179
 20
268.691366
 30
0.0
 10
27.683373
 20
267.563856
 30
0.0
 10
26.380708
 20
266.334456
 30
0.0
 10
25.137949
 20
265.003056
 30
0.0
 10
23.959861
 20
263.569546
 30
0.0
 10
22.851208
 20
262.033816
 30
0.0
 10
21.309611
 20
259.698036
 30
0.0
 10
19.820537
 20
257.331406
 30
0.0
 10
18.384244
 20
254.934926
 30
0.0
 10
17.000984
 20
252.509576
 30
0.0
 10
15.671013
 20
250.056326
 30
0.0
 10
14.394585
 20
247.576186
 30
0.0
 10
13.171956
 20
245.070126
 30
0.0
 10
12.003381
 20
242.539136
 30
0.0
 10
10.889114
 20
239.984204
 30
0.0
 10
9.829410
 20
237.406309
 30
0.0
 10
8.824525
 20
234.806457
 30
0.0
 10
7.874714
 20
232.185616
 30
0.0
 10
6.980231
 20
229.544776
 30
0.0
 10
6.141332
 20
226.884924
 30
0.0
 10
5.358271
 20
224.207048
 30
0.0
 10
4.631303
 20
221.512130
 30
0.0
 10
3.960683
 20
218.801160
 30
0.0
 10
3.346667
 20
216.075123
 30
0.0
 10
2.789508
 20
213.335005
 30
0.0
 10
2.289462
 20
210.581792
 30
0.0
 10
1.846785
 20
207.816470
 30
0.0
 10
1.461730
 20
205.040025
 30
0.0
 10
1.134553
 20
202.253443
 30
0.0
 10
0.865510
 20
199.457713
 30
0.0
 10
0.654854
 20
196.653817
 30
0.0
 10
0.502841
 20
193.842744
 30
0.0
 10
0.409721
 20
191.025479
 30
0.0
 10
0.375761
 20
188.203009
 30
0.0
 10
0.401211
 20
185.376318
 30
0.0
 10
0.486311
 20
182.546394
 30
0.0
 10
0.631336
 20
179.714223
 30
0.0
 10
0.836510
 20
176.880742
 30
0.0
 10
1.207769
 20
172.322775
 30
0.0
 10
1.564498
 20
167.763720
 30
0.0
 10
1.906694
 20
163.203618
 30
0.0
 10
2.234356
 20
158.642506
 30
0.0
 10
2.547483
 20
154.080422
 30
0.0
 10
2.846074
 20
149.517406
 30
0.0
 10
3.130127
 20
144.953495
 30
0.0
 10
3.399643
 20
140.388727
 30
0.0
 10
3.654617
 20
135.823142
 30
0.0
 10
3.895051
 20
131.256776
 30
0.0
 10
4.120942
 20
126.689669
 30
0.0
 10
4.332289
 20
122.121859
 30
0.0
 10
4.529092
 20
117.553383
 30
0.0
 10
4.711349
 20
112.984282
 30
0.0
 10
4.879059
 20
108.414591
 30
0.0
 10
5.032220
 20
103.844351
 30
0.0
 10
5.170831
 20
99.273599
 30
0.0
 10
5.294892
 20
94.702373
 30
0.0
 10
5.404399
 20
90.130712
 30
0.0
 10
5.499349
 20
85.558655
 30
0.0
 10
5.579749
 20
80.986239
 30
0.0
 10
5.645589
 20
76.413502
 30
0.0
 10
5.696879
 20
71.840485
 30
0.0
 10
5.733609
 20
67.267222
 30
0.0
 10
5.755779
 20
62.693754
 30
0.0
 10
5.763379
 20
58.120119
 30
0.0
 10
5.756379
 20
53.546356
 30
0.0
 10
5.734859
 20
48.972502
 30
0.0
 10
5.698779
 20
44.398595
 30
0.0
 10
5.648129
 20
39.824676
 30
0.0
 10
5.582919
 20
35.250776
 30
0.0
 10
5.503149
 20
30.676936
 30
0.0
 10
5.514219
 20
29.047206
 30
0.0
 10
5.608419
 20
27.440676
 30
0.0
 10
5.783518
 20
25.859486
 30
0.0
 10
6.037274
 20
24.305856
 30
0.0
 10
6.367458
 20
22.781966
 30
0.0
 10
6.771834
 20
21.289976
 30
0.0
 10
7.248167
 20
19.832086
 30
0.0
 10
7.794226
 20
18.410476
 30
0.0
 10
8.407775
 20
17.027346
 30
0.0
 10
9.086582
 20
15.684856
 30
0.0
 10
9.828412
 20
14.385206
 30
0.0
 10
10.631032
 20
13.130566
 30
0.0
 10
11.492209
 20
11.923146
 30
0.0
 10
12.409708
 20
10.765096
 30
0.0
 10
13.381296
 20
9.658616
 30
0.0
 10
14.404739
 20
8.605886
 30
0.0
 10
15.477803
 20
7.609096
 30
0.0
 10
16.598257
 20
6.670416
 30
0.0
 10
17.763862
 20
5.792046
 30
0.0
 10
18.972390
 20
4.976156
 30
0.0
 10
20.221604
 20
4.224946
 30
0.0
 10
21.509271
 20
3.540576
 30
0.0
 10
22.833157
 20
2.925256
 30
0.0
 10
24.191030
 20
2.381156
 30
0.0
 10
25.580654
 20
1.910446
 30
0.0
 10
26.999797
 20
1.515336
 30
0.0
 10
28.446224
 20
1.197986
 30
0.0
 10
29.917702
 20
0.960606
 30
0.0
 10
31.411998
 20
0.805366
 30
0.0
 10
32.926877
 20
0.734466
 30
0.0
 10
34.460106
 20
0.750066
 30
0.0
 10
36.009451
 20
0.854346
 30
0.0
 10
37.551135
 20
1.046616
 30
0.0
 10
39.061654
 20
1.323056
 30
0.0
 10
40.539190
 20
1.681056
 30
0.0
 10
41.981923
 20
2.118076
 30
0.0
 10
43.388034
 20
2.631536
 30
0.0
 10
44.755702
 20
3.218846
 30
0.0
 10
46.083108
 20
3.877456
 30
0.0
 10
47.368432
 20
4.604786
 30
0.0
 10
48.609856
 20
5.398266
 30
0.0
 10
49.805559
 20
6.255316
 30
0.0
 10
50.953719
 20
7.173366
 30
0.0
 10
52.052522
 20
8.149836
 30
0.0
 10
53.100144
 20
9.182176
 30
0.0
 10
54.094767
 20
10.267786
 30
0.0
 10
55.034571
 20
11.404116
 30
0.0
 10
55.917736
 20
12.588596
 30
0.0
 10
56.742444
 20
13.818626
 30
0.0
 10
57.506873
 20
15.091656
 30
0.0
 10
58.209205
 20
16.405106
 30
0.0
 10
58.847620
 20
17.756406
 30
0.0
 10
59.420299
 20
19.142986
 30
0.0
 10
59.925421
 20
20.562266
 30
0.0
 10
60.361167
 20
22.011686
 30
0.0
 10
60.725718
 20
23.488656
 30
0.0
 10
61.017254
 20
24.990606
 30
0.0
 10
61.233954
 20
26.514986
 30
0.0
 10
61.374002
 20
28.059206
 30
0.0
 10
61.435572
 20
29.620686
 30
0.0
 10
61.416852
 20
31.196866
 30
0.0
 10
61.316018
 20
32.785176
 30
0.0
 10
61.131251
 20
34.383036
 30
0.0
 10
60.860732
 20
35.987876
 30
0.0
 10
60.034567
 20
40.437636
 30
0.0
 10
59.292351
 20
44.896997
 30
0.0
 10
58.633949
 20
49.364692
 30
0.0
 10
58.059231
 20
53.839459
 30
0.0
 10
57.568068
 20
58.320036
 30
0.0
 10
57.160330
 20
62.805161
 30
0.0
 10
56.835886
 20
67.293572
 30
0.0
 10
56.594606
 20
71.784007
 30
0.0
 10
56.436359
 20
76.275204
 30
0.0
 10
56.361019
 20
80.765902
 30
0.0
 10
56.368519
 20
85.254839
 30
0.0
 10
56.458589
 20
89.740752
 30
0.0
 10
56.631173
 20
94.222381
 30
0.0
 10
56.886138
 20
98.698462
 30
0.0
 10
57.223354
 20
103.167734
 30
0.0
 10
57.642691
 20
107.628934
 30
0.0
 10
58.144019
 20
112.080804
 30
0.0
 10
58.727206
 20
116.522077
 30
0.0
 10
59.392124
 20
120.951493
 30
0.0
 10
60.138641
 20
125.367792
 30
0.0
 10
60.966628
 20
129.769710
 30
0.0
 10
61.875954
 20
134.155987
 30
0.0
 10
62.866487
 20
138.525358
 30
0.0
 10
63.938100
 20
142.876564
 30
0.0
 10
65.090659
 20
147.208342
 30
0.0
 10
66.324036
 20
151.519429
 30
0.0
 10
67.638101
 20
155.808566
 30
0.0
 10
69.032723
 20
160.074488
 30
0.0
 10
70.507770
 20
164.315935
 30
0.0
 10
72.063114
 20
168.531644
 30
0.0
 10
73.698623
 20
172.720355
 30
0.0
 10
75.414131
 20
176.880842
 30
0.0
  0
ENDSEC
  0
SECTION
  2
OBJECTS
  0
DICTIONARY
  5
C
330
0
100
AcDbDictionary
  3
ACAD_GROUP
350
D
  3
ACAD_MLINESTYLE
350
17
  0
DICTIONARY
  5
D
330
C
100
AcDbDictionary
  0
DICTIONARY
  5
1A
330
C
100
AcDbDictionary
  0
DICTIONARY
  5
17
330
C
100
AcDbDictionary
  3
STANDARD
350
18
  0
DICTIONARY
  5
19
330
C
100
AcDbDictionary
  0
ENDSEC
  0
EOF
