<?xml version="1.0" encoding="UTF-8" standalone="no"?>
<svg
   xmlns:dc="http://purl.org/dc/elements/1.1/"
   xmlns:cc="http://creativecommons.org/ns#"
   xmlns:rdf="http://www.w3.org/1999/02/22-rdf-syntax-ns#"
   xmlns:svg="http://www.w3.org/2000/svg"
   xmlns="http://www.w3.org/2000/svg"
   xmlns:sodipodi="http://sodipodi.sourceforge.net/DTD/sodipodi-0.dtd"
   xmlns:inkscape="http://www.inkscape.org/namespaces/inkscape"
   width="89.5386383579mm"
   height="280.823596216mm"
   viewBox="0 0 89.5386383579 280.823596216"
   version="1.1"
   id="svg6"
   sodipodi:docname="kicad.svg"
   inkscape:version="0.92.3 (2405546, 2018-03-11)">
  <metadata
     id="metadata12">
    <rdf:RDF>
      <cc:Work
         rdf:about="">
        <dc:format>image/svg+xml</dc:format>
        <dc:type
           rdf:resource="http://purl.org/dc/dcmitype/StillImage" />
        <dc:title></dc:title>
      </cc:Work>
    </rdf:RDF>
  </metadata>
  <defs
     id="defs10" />
  <sodipodi:namedview
     pagecolor="#ffffff"
     bordercolor="#666666"
     borderopacity="1"
     objecttolerance="10"
     gridtolerance="10"
     guidetolerance="10"
     inkscape:pageopacity="0"
     inkscape:pageshadow="2"
     inkscape:window-width="1920"
     inkscape:window-height="1001"
     id="namedview8"
     showgrid="false"
     inkscape:zoom="0.5759723"
     inkscape:cx="236.33398"
     inkscape:cy="609.59558"
     inkscape:window-x="-9"
     inkscape:window-y="-9"
     inkscape:window-maximized="1"
     inkscape:current-layer="Sketch" />
  <g
     id="Sketch"
     transform="translate(35.877830,140.275030) scale(1,-1)">
    <path
       id="Sketch_w0000"
       d="m 45,40.191869 c 0.776532,1.746971 1.494636,3.511069 2.154523,5.289595 0.659886,1.778527 1.261556,3.571483 1.80522,5.376173 0.543664,1.80469 1.029322,3.621113 1.457185,5.446573 0.427864,1.825459 0.797932,3.659956 1.110418,5.500794 0.312485,1.840837 0.567387,3.688015 0.764917,5.538837 0.19753,1.850822 0.337688,3.705289 0.420685,5.560703 0.083,1.855415 0.108832,3.711777 0.07772,5.566391 -0.03111,1.854614 -0.119177,3.707479 -0.263979,5.5559 -0.144802,1.84842 -0.346342,3.692396 -0.60441,5.529231 -0.258068,1.836834 -0.572663,3.666528 -0.943574,5.486384 -0.370911,1.819856 -0.798138,3.629875 -1.28147,5.42736 -0.483332,1.79748 -1.022768,3.58243 -1.618098,5.35216 -0.59533,1.76972 -1.246554,3.52421 -1.95346,5.26077 -0.706906,1.73657 -1.469495,3.4552 -2.287554,5.15322 -0.81806,1.69801 -1.69159,3.3754 -2.620381,5.02948 -0.928791,1.65407 -1.912841,3.28482 -2.95194,4.88956 -0.720398,1.11256 -1.496765,2.15773 -2.322284,3.13535 -0.825519,0.97763 -1.700192,1.88772 -2.617203,2.73012 -0.917012,0.8424 -1.876362,1.61712 -2.871237,2.32401 -0.994875,0.70689 -2.025274,1.34595 -3.084383,1.91704 -1.05911,0.57109 -2.146929,1.07421 -3.256644,1.50921 -1.109715,0.435 -2.241325,0.80188 -3.388017,1.1005 -1.146692,0.29862 -2.308465,0.52898 -3.478505,0.69093 -1.17004,0.16195 -2.348347,0.2555 -3.528106,0.2805 -1.17976,0.025 -2.360971,-0.0186 -3.536821,-0.13081 -1.17585,-0.11224 -2.3463378,-0.29319 -3.5046493,-0.54297 -1.1583115,-0.24978 -2.3044466,-0.5684 -3.431591,-0.95601 -1.1271444,-0.3876 -2.2352981,-0.84419 -3.31764656,-1.3699 -1.08234844,-0.52572 -2.13889184,-1.12056 -3.16281564,-1.78468 -1.0239238,-0.66412 -2.015228,-1.3975 -2.9670983,-2.20031 -0.9518703,-0.8028 -1.8643067,-1.67502 -2.7304947,-2.61681 -0.866188,-0.94178 -1.6861275,-1.95312 -2.4530045,-3.03417 -1.121175,-1.58051 -2.20497,-3.1827 -3.251022,-4.80523 -1.046051,-1.62253 -2.054358,-3.26541 -3.024556,-4.92728 -0.970198,-1.66188 -1.902288,-3.34275 -2.795904,-5.04127 -0.893616,-1.69853 -1.748758,-3.41471 -2.565062,-5.1472 -0.816304,-1.73249 -1.59377,-3.48129 -2.332034,-5.24506 -0.738263,-1.76377 -1.437323,-3.542502 -2.096817,-5.334861 -0.659493,-1.792359 -1.279418,-3.598341 -1.859412,-5.416604 -0.579993,-1.818262 -1.120054,-3.648804 -1.619819,-5.490283 -0.499765,-1.841478 -0.959233,-3.693893 -1.378039,-5.555901 -0.418807,-1.862007 -0.796952,-3.733607 -1.134071,-5.613456 -0.337119,-1.87985 -0.633212,-3.767948 -0.887914,-5.662951 -0.254702,-1.895004 -0.468014,-3.796913 -0.63957,-5.704383 -0.171556,-1.907471 -0.301357,-3.820503 -0.389038,-5.737754 -0.08768,-1.917251 -0.133242,-3.838719 -0.136318,-5.763062 -0.0031,-1.924344 0.03633,-3.851561 0.11859,-5.78031 0.08226,-1.928749 0.207365,-3.859028 0.375686,-5.789495 0.270698,-3.104714 0.531005,-6.210195 0.780919,-9.316389 0.249914,-3.106194 0.489435,-6.213102 0.718562,-9.320672 0.229126,-3.10757 0.447858,-6.215801 0.656194,-9.324642 0.208336,-3.1088412 0.406275,-6.2182917 0.593817,-9.3282996 0.187541,-3.11000786 0.364684,-6.2205731 0.531428,-9.3316435 0.166743,-3.1110704 0.323087,-6.2226459 0.469029,-9.3346749 0.145942,-3.112028 0.281483,-6.22451 0.40662,-9.337392 0.125138,-3.112882 0.239872,-6.226166 0.344201,-9.339797 0.104329,-3.113632 0.198253,-6.227613 0.28177,-9.34189 0.08352,-3.114277 0.156627,-6.22885 0.219329,-9.343668 0.0627,-3.114817 0.114995,-6.229879 0.156878,-9.345134 0.04188,-3.115254 0.07335,-6.2307 0.09442,-9.346286 0.02106,-3.115586 0.03171,-6.231312 0.03194,-9.347126 2.35e-4,-3.115814 -0.0099,-6.231716 -0.03054,-9.347653 -0.0206,-3.115937 -0.0516,-6.23191 -0.09303,-9.347866 -0.04143,-3.115957 -0.09327,-6.231897 -0.155536,-9.347767 -0.02233,-1.11764 0.01638,-2.22098 0.112938,-3.30704 0.09656,-1.08606 0.250971,-2.15484 0.460036,-3.20337 0.209066,-1.04852 0.472786,-2.07679 0.787967,-3.08183 0.31518,-1.00504 0.681821,-1.98685 1.096727,-2.94246 0.414906,-0.9556 0.878078,-1.885 1.38632,-2.78522 0.508242,-0.90022 1.061555,-1.77126 1.656743,-2.61015 0.595189,-0.83888 1.232253,-1.64561 1.907999,-2.4172 0.675745,-0.7716 1.390172,-1.50807 2.140084,-2.20643 0.749913,-0.69836 1.535312,-1.35862 2.353003,-1.97779 0.81769,-0.61918 1.667672,-1.19727 2.54675,-1.73131 0.879079,-0.53404 1.787254,-1.02402 2.721331,-1.46697 0.934077,-0.44295 1.894056,-0.83887 2.8767426,-1.18478 0.9826861,-0.34592 1.9880793,-0.64182 3.0129848,-0.88475 1.0249055,-0.24293 2.0693233,-0.43287 3.1300587,-0.56686 1.0607353,-0.13399 2.1377882,-0.21202 3.22796383,-0.23112 1.09017562,-0.0191 2.19347397,0.0207 3.30670027,0.12247 1.1132263,0.10174 2.2054674,0.26256 3.2741208,0.47896 1.0686534,0.21639 2.113719,0.48837 3.1325943,0.81241 1.0188757,0.32405 2.0115607,0.70016 2.9754527,1.12484 0.963892,0.42469 1.898991,0.89794 2.802695,1.41625 0.903704,0.51831 1.776012,1.08169 2.614323,1.68662 0.83831,0.60493 1.642622,1.25141 2.410334,1.93595 0.767712,0.68454 1.498823,1.40713 2.190732,2.16427 0.691908,0.75714 1.344613,1.54882 1.955512,2.37155 0.6109,0.82273 1.179994,1.67649 1.704679,2.5578 0.524686,0.88131 1.004963,1.79015 1.438229,2.72302 0.433267,0.93288 0.819523,1.88978 1.156165,2.86722 0.336643,0.97743 0.623672,1.97539 0.858485,2.99038 0.234813,1.01498 0.41741,2.04698 0.545189,3.09251 0.127779,1.04552 0.200739,2.10456 0.216278,3.17361 0.01554,1.06905 -0.02634,2.14812 -0.128248,3.23369 -0.101905,1.08557 -0.263834,2.17765 -0.488389,3.27273 -0.620869,3.02783 -1.181611,6.063047 -1.682414,9.103946 -0.500803,3.0409 -0.941666,6.087476 -1.322776,9.138011 -0.38111,3.050534 -0.702467,6.105027 -0.964257,9.161758 -0.26179,3.056731 -0.464014,6.115701 -0.606857,9.175191 -0.142843,3.059489 -0.226305,6.119498 -0.250574,9.178306 -0.02427,3.058809 0.01066,6.116418 0.104589,9.171107 0.09393,3.05469 0.246873,6.10646 0.458634,9.153592 0.211761,3.047131 0.482343,6.089624 0.81156,9.125759 0.329216,3.036135 0.717068,6.065912 1.163367,9.087612 0.4463,3.0217 0.951048,6.035323 1.514057,9.039149 0.56301,3.0038263 1.184281,5.9978559 1.863628,8.9803696 0.679346,2.98251366 1.416768,5.9535115 2.212079,8.9112741 0.795311,2.9577626 1.64851,5.9022903 2.559412,8.8318633 0.910902,2.929573 1.879507,5.844191 2.905628,8.742135 1.02612,2.897945 2.109757,5.779216 3.250723,8.642093 C 42.546265,34.523044 43.744561,37.367528 45,40.1919"
       style="fill:none;fill-rule:evenodd;stroke:#000000;stroke-width:0.34999999;stroke-miterlimit:4;stroke-dasharray:none"
       inkscape:connector-curvature="0"
       sodipodi:nodetypes="cssssssssssssssscssssssssssssssscssssssssssssssscssssssssssssssssssssssssssssssssssssssssssssssscsssssssssssssssc" />
    <title
       id="title3">Sketch</title>
  </g>
</svg>
