  0
SECTION
  2
HEADER
  9
$ANGBASE
  50
0.0
  9
$ANGDIR
  70
  1
  9
$MEASUREMENT
  70
0
  0
ENDSEC
  0
SECTION
  2
TABLES
  0
TABLE
  2
LTYPE
  70
4
  0
LTYPE
  5
40F
  2
CONTINUOUS
  70
0
  3
Solid line
  72
65
  73
0
  40
0.0
  0
LTYPE
  5
410
  2
DASHDOT
 70
0
  3
Dash Dot ____ _ ____ _
 72
65
 73
4
 40
2.0
 49
1.25
 49
-0.25
 49
0.25
 49
-0.25
  0
LTYPE
  5
411
  2
DASHED
 70
0
  3
Dashed __ __ __ __ __
 72
65
 73
2
 40
0.75
 49
0.5
 49
-0.25
  0
LTYPE
  5
43B
  2
DOTTED
 70
0
  3
Dotted .  .  .  .
 72
65
 73
2
 40
0.2
 49
0.0
 49
-0.2
  0
ENDTAB
  0
TABLE
  2
STYLE
  70
4
  0
STYLE
  2
KICAD
  70
0
  40
0
  41
1
  42
1
  50
0
  71
0
  3
isocp.shx
  0
STYLE
  2
KICADB
  70
0
  40
0
  41
1
  42
1
  50
0
  71
0
  3
isocp.shx
  0
STYLE
  2
KICADI
  70
0
  40
0
  41
1
  42
1
  50
15
  71
0
  3
isocp.shx
  0
STYLE
  2
KICADBI
  70
0
  40
0
  41
1
  42
1
  50
15
  71
0
  3
isocp.shx
  0
ENDTAB
  0
TABLE
  2
LAYER
  70
30
  0
LAYER
  2
BLACK
  70
0
  62
7
  6
CONTINUOUS
  0
LAYER
  2
GRAY1
  70
0
  62
251
  6
CONTINUOUS
  0
LAYER
  2
GRAY2
  70
0
  62
8
  6
CONTINUOUS
  0
LAYER
  2
GRAY3
  70
0
  62
9
  6
CONTINUOUS
  0
LAYER
  2
WHITE
  70
0
  62
7
  6
CONTINUOUS
  0
LAYER
  2
LYELLOW
  70
0
  62
51
  6
CONTINUOUS
  0
LAYER
  2
BLUE1
  70
0
  62
178
  6
CONTINUOUS
  0
LAYER
  2
GREEN1
  70
0
  62
98
  6
CONTINUOUS
  0
LAYER
  2
CYAN1
  70
0
  62
138
  6
CONTINUOUS
  0
LAYER
  2
RED1
  70
0
  62
18
  6
CONTINUOUS
  0
LAYER
  2
MAGENTA1
  70
0
  62
228
  6
CONTINUOUS
  0
LAYER
  2
BROWN1
  70
0
  62
58
  6
CONTINUOUS
  0
LAYER
  2
BLUE2
  70
0
  62
5
  6
CONTINUOUS
  0
LAYER
  2
GREEN2
  70
0
  62
3
  6
CONTINUOUS
  0
LAYER
  2
CYAN2
  70
0
  62
4
  6
CONTINUOUS
  0
LAYER
  2
RED2
  70
0
  62
1
  6
CONTINUOUS
  0
LAYER
  2
MAGENTA2
  70
0
  62
6
  6
CONTINUOUS
  0
LAYER
  2
BROWN2
  70
0
  62
54
  6
CONTINUOUS
  0
LAYER
  2
BLUE3
  70
0
  62
171
  6
CONTINUOUS
  0
LAYER
  2
GREEN3
  70
0
  62
91
  6
CONTINUOUS
  0
LAYER
  2
CYAN3
  70
0
  62
131
  6
CONTINUOUS
  0
LAYER
  2
RED3
  70
0
  62
11
  6
CONTINUOUS
  0
LAYER
  2
MAGENTA3
  70
0
  62
221
  6
CONTINUOUS
  0
LAYER
  2
YELLOW3
  70
0
  62
2
  6
CONTINUOUS
  0
LAYER
  2
BLUE4
  70
0
  62
5
  6
CONTINUOUS
  0
LAYER
  2
GREEN4
  70
0
  62
3
  6
CONTINUOUS
  0
LAYER
  2
CYAN4
  70
0
  62
4
  6
CONTINUOUS
  0
LAYER
  2
RED4
  70
0
  62
1
  6
CONTINUOUS
  0
LAYER
  2
MAGENTA4
  70
0
  62
6
  6
CONTINUOUS
  0
LAYER
  2
YELLOW4
  70
0
  62
2
  6
CONTINUOUS
  0
ENDTAB
  0
ENDSEC
  0
SECTION
  2
ENTITIES
0
LINE
8
BLACK
6
CONTINUOUS
10
83.9302
20
-38.2764
11
85.5704
21
-38.2893
0
LINE
8
BLACK
6
CONTINUOUS
10
85.5704
20
-38.2893
11
85.5733
21
-38.289
0
LINE
8
BLACK
6
CONTINUOUS
10
85.5733
20
-38.289
11
85.5791
21
-38.2894
0
LINE
8
BLACK
6
CONTINUOUS
10
85.5791
20
-38.2894
11
85.585
21
-38.2894
0
LINE
8
BLACK
6
CONTINUOUS
10
85.585
20
-38.2894
11
85.5878
21
-38.2899
0
LINE
8
BLACK
6
CONTINUOUS
10
85.5878
20
-38.2899
11
87.2254
21
-38.3982
0
LINE
8
BLACK
6
CONTINUOUS
10
87.2254
20
-38.3982
11
87.2283
21
-38.3981
0
LINE
8
BLACK
6
CONTINUOUS
10
87.2283
20
-38.3981
11
87.2341
21
-38.3988
0
LINE
8
BLACK
6
CONTINUOUS
10
87.2341
20
-38.3988
11
87.2399
21
-38.3992
0
LINE
8
BLACK
6
CONTINUOUS
10
87.2399
20
-38.3992
11
87.2428
21
-38.3999
0
LINE
8
BLACK
6
CONTINUOUS
10
87.2428
20
-38.3999
11
88.8729
21
-38.6037
0
LINE
8
BLACK
6
CONTINUOUS
10
88.8729
20
-38.6037
11
88.8758
21
-38.6037
0
LINE
8
BLACK
6
CONTINUOUS
10
88.8758
20
-38.6037
11
88.8815
21
-38.6048
0
LINE
8
BLACK
6
CONTINUOUS
10
88.8815
20
-38.6048
11
88.8873
21
-38.6055
0
LINE
8
BLACK
6
CONTINUOUS
10
88.8873
20
-38.6055
11
88.8901
21
-38.6064
0
LINE
8
BLACK
6
CONTINUOUS
10
88.8901
20
-38.6064
11
90.5081
21
-38.9058
0
LINE
8
BLACK
6
CONTINUOUS
10
90.5081
20
-38.9058
11
90.5111
21
-38.906
0
LINE
8
BLACK
6
CONTINUOUS
10
90.5111
20
-38.906
11
90.5167
21
-38.9074
0
LINE
8
BLACK
6
CONTINUOUS
10
90.5167
20
-38.9074
11
90.5224
21
-38.9084
0
LINE
8
BLACK
6
CONTINUOUS
10
90.5224
20
-38.9084
11
90.5252
21
-38.9095
0
LINE
8
BLACK
6
CONTINUOUS
10
90.5252
20
-38.9095
11
92.1263
21
-39.3046
0
LINE
8
BLACK
6
CONTINUOUS
10
92.1263
20
-39.3046
11
92.1292
21
-39.305
0
LINE
8
BLACK
6
CONTINUOUS
10
92.1292
20
-39.305
11
92.1347
21
-39.3067
0
LINE
8
BLACK
6
CONTINUOUS
10
92.1347
20
-39.3067
11
92.1404
21
-39.3081
0
LINE
8
BLACK
6
CONTINUOUS
10
92.1404
20
-39.3081
11
92.1431
21
-39.3093
0
LINE
8
BLACK
6
CONTINUOUS
10
92.1431
20
-39.3093
11
93.7226
21
-39.8002
0
LINE
8
BLACK
6
CONTINUOUS
10
93.7226
20
-39.8002
11
93.7256
21
-39.8008
0
LINE
8
BLACK
6
CONTINUOUS
10
93.7256
20
-39.8008
11
93.7309
21
-39.8028
0
LINE
8
BLACK
6
CONTINUOUS
10
93.7309
20
-39.8028
11
93.7364
21
-39.8045
0
LINE
8
BLACK
6
CONTINUOUS
10
93.7364
20
-39.8045
11
93.7391
21
-39.8059
0
LINE
8
BLACK
6
CONTINUOUS
10
93.7391
20
-39.8059
11
95.2923
21
-40.3928
0
LINE
8
BLACK
6
CONTINUOUS
10
95.2923
20
-40.3928
11
95.2953
21
-40.3936
0
LINE
8
BLACK
6
CONTINUOUS
10
95.2953
20
-40.3936
11
95.3005
21
-40.3959
0
LINE
8
BLACK
6
CONTINUOUS
10
95.3005
20
-40.3959
11
95.3059
21
-40.3979
0
LINE
8
BLACK
6
CONTINUOUS
10
95.3059
20
-40.3979
11
95.3085
21
-40.3995
0
LINE
8
BLACK
6
CONTINUOUS
10
95.3085
20
-40.3995
11
96.8307
21
-41.0825
0
LINE
8
BLACK
6
CONTINUOUS
10
96.8307
20
-41.0825
11
96.8336
21
-41.0834
0
LINE
8
BLACK
6
CONTINUOUS
10
96.8336
20
-41.0834
11
96.8386
21
-41.086
0
LINE
8
BLACK
6
CONTINUOUS
10
96.8386
20
-41.086
11
96.8438
21
-41.0884
0
LINE
8
BLACK
6
CONTINUOUS
10
96.8438
20
-41.0884
11
96.8463
21
-41.0901
0
LINE
8
BLACK
6
CONTINUOUS
10
96.8463
20
-41.0901
11
98.3328
21
-41.8692
0
LINE
8
BLACK
6
CONTINUOUS
10
98.3328
20
-41.8692
11
98.3356
21
-41.8703
0
LINE
8
BLACK
6
CONTINUOUS
10
98.3356
20
-41.8703
11
98.3405
21
-41.8733
0
LINE
8
BLACK
6
CONTINUOUS
10
98.3405
20
-41.8733
11
98.3455
21
-41.8759
0
LINE
8
BLACK
6
CONTINUOUS
10
98.3455
20
-41.8759
11
98.348
21
-41.8778
0
LINE
8
BLACK
6
CONTINUOUS
10
98.348
20
-41.8778
11
99.7939
21
-42.7533
0
LINE
8
BLACK
6
CONTINUOUS
10
99.7939
20
-42.7533
11
99.7967
21
-42.7546
0
LINE
8
BLACK
6
CONTINUOUS
10
99.7967
20
-42.7546
11
99.8013
21
-42.7578
0
LINE
8
BLACK
6
CONTINUOUS
10
99.8013
20
-42.7578
11
99.8061
21
-42.7607
0
LINE
8
BLACK
6
CONTINUOUS
10
99.8061
20
-42.7607
11
99.8085
21
-42.7627
0
LINE
8
BLACK
6
CONTINUOUS
10
99.8085
20
-42.7627
11
101.209
21
-43.7346
0
LINE
8
BLACK
6
CONTINUOUS
10
101.209
20
-43.7346
11
101.212
21
-43.7361
0
LINE
8
BLACK
6
CONTINUOUS
10
101.212
20
-43.7361
11
101.216
21
-43.7396
0
LINE
8
BLACK
6
CONTINUOUS
10
101.216
20
-43.7396
11
101.221
21
-43.7428
0
LINE
8
BLACK
6
CONTINUOUS
10
101.221
20
-43.7428
11
101.223
21
-43.745
0
LINE
8
BLACK
6
CONTINUOUS
10
101.223
20
-43.745
11
102.574
21
-44.8134
0
LINE
8
BLACK
6
CONTINUOUS
10
102.574
20
-44.8134
11
102.577
21
-44.8151
0
LINE
8
BLACK
6
CONTINUOUS
10
102.577
20
-44.8151
11
102.581
21
-44.8189
0
LINE
8
BLACK
6
CONTINUOUS
10
102.581
20
-44.8189
11
102.585
21
-44.8223
0
LINE
8
BLACK
6
CONTINUOUS
10
102.585
20
-44.8223
11
102.587
21
-44.8247
0
LINE
8
BLACK
6
CONTINUOUS
10
102.587
20
-44.8247
11
103.883
21
-45.9898
0
LINE
8
BLACK
6
CONTINUOUS
10
103.883
20
-45.9898
11
103.886
21
-45.9916
0
LINE
8
BLACK
6
CONTINUOUS
10
103.886
20
-45.9916
11
103.89
21
-45.9956
0
LINE
8
BLACK
6
CONTINUOUS
10
103.89
20
-45.9956
11
103.894
21
-45.9993
0
LINE
8
BLACK
6
CONTINUOUS
10
103.894
20
-45.9993
11
103.896
21
-46.0018
0
LINE
8
BLACK
6
CONTINUOUS
10
103.896
20
-46.0018
11
105.132
21
-47.2637
0
LINE
8
BLACK
6
CONTINUOUS
10
105.132
20
-47.2637
11
105.135
21
-47.2657
0
LINE
8
BLACK
6
CONTINUOUS
10
105.135
20
-47.2657
11
105.138
21
-47.2699
0
LINE
8
BLACK
6
CONTINUOUS
10
105.138
20
-47.2699
11
105.142
21
-47.2739
0
LINE
8
BLACK
6
CONTINUOUS
10
105.142
20
-47.2739
11
105.144
21
-47.2766
0
LINE
8
BLACK
6
CONTINUOUS
10
105.144
20
-47.2766
11
106.316
21
-48.6353
0
LINE
8
BLACK
6
CONTINUOUS
10
106.316
20
-48.6353
11
106.319
21
-48.6375
0
LINE
8
BLACK
6
CONTINUOUS
10
106.319
20
-48.6375
11
106.322
21
-48.6419
0
LINE
8
BLACK
6
CONTINUOUS
10
106.322
20
-48.6419
11
106.326
21
-48.6462
0
LINE
8
BLACK
6
CONTINUOUS
10
106.326
20
-48.6462
11
106.327
21
-48.6489
0
LINE
8
BLACK
6
CONTINUOUS
10
106.327
20
-48.6489
11
107.43
21
-50.1039
0
LINE
8
BLACK
6
CONTINUOUS
10
107.43
20
-50.1039
11
107.431
21
-50.1054
0
LINE
8
BLACK
6
CONTINUOUS
10
107.431
20
-50.1054
11
107.435
21
-50.1108
0
LINE
8
BLACK
6
CONTINUOUS
10
107.435
20
-50.1108
11
107.439
21
-50.1161
0
LINE
8
BLACK
6
CONTINUOUS
10
107.439
20
-50.1161
11
107.44
21
-50.118
0
LINE
8
BLACK
6
CONTINUOUS
10
107.44
20
-50.118
11
109.06
21
-52.4567
0
LINE
8
BLACK
6
CONTINUOUS
10
109.06
20
-52.4567
11
109.061
21
-52.4575
0
LINE
8
BLACK
6
CONTINUOUS
10
109.061
20
-52.4575
11
109.065
21
-52.4639
0
LINE
8
BLACK
6
CONTINUOUS
10
109.065
20
-52.4639
11
109.07
21
-52.4702
0
LINE
8
BLACK
6
CONTINUOUS
10
109.07
20
-52.4702
11
109.07
21
-52.4712
0
LINE
8
BLACK
6
CONTINUOUS
10
109.07
20
-52.4712
11
110.635
21
-54.8398
0
LINE
8
BLACK
6
CONTINUOUS
10
110.635
20
-54.8398
11
110.635
21
-54.8407
0
LINE
8
BLACK
6
CONTINUOUS
10
110.635
20
-54.8407
11
110.639
21
-54.8471
0
LINE
8
BLACK
6
CONTINUOUS
10
110.639
20
-54.8471
11
110.644
21
-54.8535
0
LINE
8
BLACK
6
CONTINUOUS
10
110.644
20
-54.8535
11
110.644
21
-54.8545
0
LINE
8
BLACK
6
CONTINUOUS
10
110.644
20
-54.8545
11
112.153
21
-57.253
0
LINE
8
BLACK
6
CONTINUOUS
10
112.153
20
-57.253
11
112.154
21
-57.2539
0
LINE
8
BLACK
6
CONTINUOUS
10
112.154
20
-57.2539
11
112.158
21
-57.2604
0
LINE
8
BLACK
6
CONTINUOUS
10
112.158
20
-57.2604
11
112.162
21
-57.2669
0
LINE
8
BLACK
6
CONTINUOUS
10
112.162
20
-57.2669
11
112.162
21
-57.2679
0
LINE
8
BLACK
6
CONTINUOUS
10
112.162
20
-57.2679
11
113.616
21
-59.6953
0
LINE
8
BLACK
6
CONTINUOUS
10
113.616
20
-59.6953
11
113.616
21
-59.6962
0
LINE
8
BLACK
6
CONTINUOUS
10
113.616
20
-59.6962
11
113.62
21
-59.7028
0
LINE
8
BLACK
6
CONTINUOUS
10
113.62
20
-59.7028
11
113.624
21
-59.7094
0
LINE
8
BLACK
6
CONTINUOUS
10
113.624
20
-59.7094
11
113.624
21
-59.7104
0
LINE
8
BLACK
6
CONTINUOUS
10
113.624
20
-59.7104
11
115.022
21
-62.1657
0
LINE
8
BLACK
6
CONTINUOUS
10
115.022
20
-62.1657
11
115.022
21
-62.1666
0
LINE
8
BLACK
6
CONTINUOUS
10
115.022
20
-62.1666
11
115.026
21
-62.1733
0
LINE
8
BLACK
6
CONTINUOUS
10
115.026
20
-62.1733
11
115.03
21
-62.1799
0
LINE
8
BLACK
6
CONTINUOUS
10
115.03
20
-62.1799
11
115.03
21
-62.181
0
LINE
8
BLACK
6
CONTINUOUS
10
115.03
20
-62.181
11
116.371
21
-64.6632
0
LINE
8
BLACK
6
CONTINUOUS
10
116.371
20
-64.6632
11
116.372
21
-64.664
0
LINE
8
BLACK
6
CONTINUOUS
10
116.372
20
-64.664
11
116.375
21
-64.6708
0
LINE
8
BLACK
6
CONTINUOUS
10
116.375
20
-64.6708
11
116.379
21
-64.6776
0
LINE
8
BLACK
6
CONTINUOUS
10
116.379
20
-64.6776
11
116.379
21
-64.6786
0
LINE
8
BLACK
6
CONTINUOUS
10
116.379
20
-64.6786
11
117.664
21
-67.1867
0
LINE
8
BLACK
6
CONTINUOUS
10
117.664
20
-67.1867
11
117.664
21
-67.1876
0
LINE
8
BLACK
6
CONTINUOUS
10
117.664
20
-67.1876
11
117.668
21
-67.1945
0
LINE
8
BLACK
6
CONTINUOUS
10
117.668
20
-67.1945
11
117.671
21
-67.2013
0
LINE
8
BLACK
6
CONTINUOUS
10
117.671
20
-67.2013
11
117.672
21
-67.2024
0
LINE
8
BLACK
6
CONTINUOUS
10
117.672
20
-67.2024
11
118.899
21
-69.7354
0
LINE
8
BLACK
6
CONTINUOUS
10
118.899
20
-69.7354
11
118.9
21
-69.7363
0
LINE
8
BLACK
6
CONTINUOUS
10
118.9
20
-69.7363
11
118.903
21
-69.7432
0
LINE
8
BLACK
6
CONTINUOUS
10
118.903
20
-69.7432
11
118.906
21
-69.7501
0
LINE
8
BLACK
6
CONTINUOUS
10
118.906
20
-69.7501
11
118.907
21
-69.7512
0
LINE
8
BLACK
6
CONTINUOUS
10
118.907
20
-69.7512
11
120.077
21
-72.3082
0
LINE
8
BLACK
6
CONTINUOUS
10
120.077
20
-72.3082
11
120.078
21
-72.3091
0
LINE
8
BLACK
6
CONTINUOUS
10
120.078
20
-72.3091
11
120.081
21
-72.3161
0
LINE
8
BLACK
6
CONTINUOUS
10
120.081
20
-72.3161
11
120.084
21
-72.3231
0
LINE
8
BLACK
6
CONTINUOUS
10
120.084
20
-72.3231
11
120.085
21
-72.3242
0
LINE
8
BLACK
6
CONTINUOUS
10
120.085
20
-72.3242
11
121.198
21
-74.9041
0
LINE
8
BLACK
6
CONTINUOUS
10
121.198
20
-74.9041
11
121.198
21
-74.905
0
LINE
8
BLACK
6
CONTINUOUS
10
121.198
20
-74.905
11
121.201
21
-74.9121
0
LINE
8
BLACK
6
CONTINUOUS
10
121.201
20
-74.9121
11
121.204
21
-74.9192
0
LINE
8
BLACK
6
CONTINUOUS
10
121.204
20
-74.9192
11
121.205
21
-74.9202
0
LINE
8
BLACK
6
CONTINUOUS
10
121.205
20
-74.9202
11
122.26
21
-77.5221
0
LINE
8
BLACK
6
CONTINUOUS
10
122.26
20
-77.5221
11
122.261
21
-77.5231
0
LINE
8
BLACK
6
CONTINUOUS
10
122.261
20
-77.5231
11
122.264
21
-77.5302
0
LINE
8
BLACK
6
CONTINUOUS
10
122.264
20
-77.5302
11
122.266
21
-77.5373
0
LINE
8
BLACK
6
CONTINUOUS
10
122.266
20
-77.5373
11
122.267
21
-77.5384
0
LINE
8
BLACK
6
CONTINUOUS
10
122.267
20
-77.5384
11
123.265
21
-80.1613
0
LINE
8
BLACK
6
CONTINUOUS
10
123.265
20
-80.1613
11
123.265
21
-80.1623
0
LINE
8
BLACK
6
CONTINUOUS
10
123.265
20
-80.1623
11
123.268
21
-80.1695
0
LINE
8
BLACK
6
CONTINUOUS
10
123.268
20
-80.1695
11
123.27
21
-80.1766
0
LINE
8
BLACK
6
CONTINUOUS
10
123.27
20
-80.1766
11
123.271
21
-80.1777
0
LINE
8
BLACK
6
CONTINUOUS
10
123.271
20
-80.1777
11
124.21
21
-82.8206
0
LINE
8
BLACK
6
CONTINUOUS
10
124.21
20
-82.8206
11
124.211
21
-82.8216
0
LINE
8
BLACK
6
CONTINUOUS
10
124.211
20
-82.8216
11
124.213
21
-82.8288
0
LINE
8
BLACK
6
CONTINUOUS
10
124.213
20
-82.8288
11
124.216
21
-82.8361
0
LINE
8
BLACK
6
CONTINUOUS
10
124.216
20
-82.8361
11
124.216
21
-82.8372
0
LINE
8
BLACK
6
CONTINUOUS
10
124.216
20
-82.8372
11
125.097
21
-85.4991
0
LINE
8
BLACK
6
CONTINUOUS
10
125.097
20
-85.4991
11
125.098
21
-85.5001
0
LINE
8
BLACK
6
CONTINUOUS
10
125.098
20
-85.5001
11
125.1
21
-85.5074
0
LINE
8
BLACK
6
CONTINUOUS
10
125.1
20
-85.5074
11
125.102
21
-85.5147
0
LINE
8
BLACK
6
CONTINUOUS
10
125.102
20
-85.5147
11
125.103
21
-85.5157
0
LINE
8
BLACK
6
CONTINUOUS
10
125.103
20
-85.5157
11
125.925
21
-88.1957
0
LINE
8
BLACK
6
CONTINUOUS
10
125.925
20
-88.1957
11
125.926
21
-88.1967
0
LINE
8
BLACK
6
CONTINUOUS
10
125.926
20
-88.1967
11
125.928
21
-88.204
0
LINE
8
BLACK
6
CONTINUOUS
10
125.928
20
-88.204
11
125.93
21
-88.2114
0
LINE
8
BLACK
6
CONTINUOUS
10
125.93
20
-88.2114
11
125.93
21
-88.2125
0
LINE
8
BLACK
6
CONTINUOUS
10
125.93
20
-88.2125
11
126.694
21
-90.9095
0
LINE
8
BLACK
6
CONTINUOUS
10
126.694
20
-90.9095
11
126.694
21
-90.9105
0
LINE
8
BLACK
6
CONTINUOUS
10
126.694
20
-90.9105
11
126.696
21
-90.9179
0
LINE
8
BLACK
6
CONTINUOUS
10
126.696
20
-90.9179
11
126.698
21
-90.9253
0
LINE
8
BLACK
6
CONTINUOUS
10
126.698
20
-90.9253
11
126.699
21
-90.9264
0
LINE
8
BLACK
6
CONTINUOUS
10
126.699
20
-90.9264
11
127.403
21
-93.6395
0
LINE
8
BLACK
6
CONTINUOUS
10
127.403
20
-93.6395
11
127.404
21
-93.6405
0
LINE
8
BLACK
6
CONTINUOUS
10
127.404
20
-93.6405
11
127.405
21
-93.6479
0
LINE
8
BLACK
6
CONTINUOUS
10
127.405
20
-93.6479
11
127.407
21
-93.6553
0
LINE
8
BLACK
6
CONTINUOUS
10
127.407
20
-93.6553
11
127.407
21
-93.6564
0
LINE
8
BLACK
6
CONTINUOUS
10
127.407
20
-93.6564
11
128.052
21
-96.3846
0
LINE
8
BLACK
6
CONTINUOUS
10
128.052
20
-96.3846
11
128.053
21
-96.3856
0
LINE
8
BLACK
6
CONTINUOUS
10
128.053
20
-96.3856
11
128.054
21
-96.3931
0
LINE
8
BLACK
6
CONTINUOUS
10
128.054
20
-96.3931
11
128.056
21
-96.4005
0
LINE
8
BLACK
6
CONTINUOUS
10
128.056
20
-96.4005
11
128.056
21
-96.4016
0
LINE
8
BLACK
6
CONTINUOUS
10
128.056
20
-96.4016
11
128.642
21
-99.1439
0
LINE
8
BLACK
6
CONTINUOUS
10
128.642
20
-99.1439
11
128.642
21
-99.1449
0
LINE
8
BLACK
6
CONTINUOUS
10
128.642
20
-99.1449
11
128.643
21
-99.1524
0
LINE
8
BLACK
6
CONTINUOUS
10
128.643
20
-99.1524
11
128.645
21
-99.1599
0
LINE
8
BLACK
6
CONTINUOUS
10
128.645
20
-99.1599
11
128.645
21
-99.161
0
LINE
8
BLACK
6
CONTINUOUS
10
128.645
20
-99.161
11
129.17
21
-101.916
0
LINE
8
BLACK
6
CONTINUOUS
10
129.17
20
-101.916
11
129.171
21
-101.917
0
LINE
8
BLACK
6
CONTINUOUS
10
129.171
20
-101.917
11
129.172
21
-101.925
0
LINE
8
BLACK
6
CONTINUOUS
10
129.172
20
-101.925
11
129.173
21
-101.933
0
LINE
8
BLACK
6
CONTINUOUS
10
129.173
20
-101.933
11
129.173
21
-101.934
0
LINE
8
BLACK
6
CONTINUOUS
10
129.173
20
-101.934
11
129.638
21
-104.701
0
LINE
8
BLACK
6
CONTINUOUS
10
129.638
20
-104.701
11
129.639
21
-104.702
0
LINE
8
BLACK
6
CONTINUOUS
10
129.639
20
-104.702
11
129.64
21
-104.71
0
LINE
8
BLACK
6
CONTINUOUS
10
129.64
20
-104.71
11
129.641
21
-104.717
0
LINE
8
BLACK
6
CONTINUOUS
10
129.641
20
-104.717
11
129.641
21
-104.718
0
LINE
8
BLACK
6
CONTINUOUS
10
129.641
20
-104.718
11
130.046
21
-107.497
0
LINE
8
BLACK
6
CONTINUOUS
10
130.046
20
-107.497
11
130.046
21
-107.498
0
LINE
8
BLACK
6
CONTINUOUS
10
130.046
20
-107.498
11
130.047
21
-107.506
0
LINE
8
BLACK
6
CONTINUOUS
10
130.047
20
-107.506
11
130.048
21
-107.513
0
LINE
8
BLACK
6
CONTINUOUS
10
130.048
20
-107.513
11
130.048
21
-107.514
0
LINE
8
BLACK
6
CONTINUOUS
10
130.048
20
-107.514
11
130.392
21
-110.303
0
LINE
8
BLACK
6
CONTINUOUS
10
130.392
20
-110.303
11
130.392
21
-110.304
0
LINE
8
BLACK
6
CONTINUOUS
10
130.392
20
-110.304
11
130.393
21
-110.312
0
LINE
8
BLACK
6
CONTINUOUS
10
130.393
20
-110.312
11
130.394
21
-110.319
0
LINE
8
BLACK
6
CONTINUOUS
10
130.394
20
-110.319
11
130.394
21
-110.321
0
LINE
8
BLACK
6
CONTINUOUS
10
130.394
20
-110.321
11
130.676
21
-113.119
0
LINE
8
BLACK
6
CONTINUOUS
10
130.676
20
-113.119
11
130.677
21
-113.12
0
LINE
8
BLACK
6
CONTINUOUS
10
130.677
20
-113.12
11
130.677
21
-113.127
0
LINE
8
BLACK
6
CONTINUOUS
10
130.677
20
-113.127
11
130.678
21
-113.135
0
LINE
8
BLACK
6
CONTINUOUS
10
130.678
20
-113.135
11
130.678
21
-113.136
0
LINE
8
BLACK
6
CONTINUOUS
10
130.678
20
-113.136
11
130.899
21
-115.942
0
LINE
8
BLACK
6
CONTINUOUS
10
130.899
20
-115.942
11
130.899
21
-115.943
0
LINE
8
BLACK
6
CONTINUOUS
10
130.899
20
-115.943
11
130.9
21
-115.951
0
LINE
8
BLACK
6
CONTINUOUS
10
130.9
20
-115.951
11
130.901
21
-115.958
0
LINE
8
BLACK
6
CONTINUOUS
10
130.901
20
-115.958
11
130.9
21
-115.96
0
LINE
8
BLACK
6
CONTINUOUS
10
130.9
20
-115.96
11
131.06
21
-118.773
0
LINE
8
BLACK
6
CONTINUOUS
10
131.06
20
-118.773
11
131.06
21
-118.774
0
LINE
8
BLACK
6
CONTINUOUS
10
131.06
20
-118.774
11
131.061
21
-118.782
0
LINE
8
BLACK
6
CONTINUOUS
10
131.061
20
-118.782
11
131.061
21
-118.789
0
LINE
8
BLACK
6
CONTINUOUS
10
131.061
20
-118.789
11
131.061
21
-118.79
0
LINE
8
BLACK
6
CONTINUOUS
10
131.061
20
-118.79
11
131.159
21
-121.61
0
LINE
8
BLACK
6
CONTINUOUS
10
131.159
20
-121.61
11
131.159
21
-121.611
0
LINE
8
BLACK
6
CONTINUOUS
10
131.159
20
-121.611
11
131.159
21
-121.619
0
LINE
8
BLACK
6
CONTINUOUS
10
131.159
20
-121.619
11
131.159
21
-121.626
0
LINE
8
BLACK
6
CONTINUOUS
10
131.159
20
-121.626
11
131.159
21
-121.627
0
LINE
8
BLACK
6
CONTINUOUS
10
131.159
20
-121.627
11
131.195
21
-124.452
0
LINE
8
BLACK
6
CONTINUOUS
10
131.195
20
-124.452
11
131.195
21
-124.453
0
LINE
8
BLACK
6
CONTINUOUS
10
131.195
20
-124.453
11
131.195
21
-124.461
0
LINE
8
BLACK
6
CONTINUOUS
10
131.195
20
-124.461
11
131.195
21
-124.469
0
LINE
8
BLACK
6
CONTINUOUS
10
131.195
20
-124.469
11
131.195
21
-124.47
0
LINE
8
BLACK
6
CONTINUOUS
10
131.195
20
-124.47
11
131.168
21
-127.299
0
LINE
8
BLACK
6
CONTINUOUS
10
131.168
20
-127.299
11
131.168
21
-127.3
0
LINE
8
BLACK
6
CONTINUOUS
10
131.168
20
-127.3
11
131.168
21
-127.308
0
LINE
8
BLACK
6
CONTINUOUS
10
131.168
20
-127.308
11
131.168
21
-127.315
0
LINE
8
BLACK
6
CONTINUOUS
10
131.168
20
-127.315
11
131.168
21
-127.316
0
LINE
8
BLACK
6
CONTINUOUS
10
131.168
20
-127.316
11
131.078
21
-130.149
0
LINE
8
BLACK
6
CONTINUOUS
10
131.078
20
-130.149
11
131.078
21
-130.15
0
LINE
8
BLACK
6
CONTINUOUS
10
131.078
20
-130.15
11
131.078
21
-130.157
0
LINE
8
BLACK
6
CONTINUOUS
10
131.078
20
-130.157
11
131.078
21
-130.165
0
LINE
8
BLACK
6
CONTINUOUS
10
131.078
20
-130.165
11
131.078
21
-130.166
0
LINE
8
BLACK
6
CONTINUOUS
10
131.078
20
-130.166
11
130.925
21
-133.001
0
LINE
8
BLACK
6
CONTINUOUS
10
130.925
20
-133.001
11
130.925
21
-133.002
0
LINE
8
BLACK
6
CONTINUOUS
10
130.925
20
-133.002
11
130.925
21
-133.009
0
LINE
8
BLACK
6
CONTINUOUS
10
130.925
20
-133.009
11
130.924
21
-133.017
0
LINE
8
BLACK
6
CONTINUOUS
10
130.924
20
-133.017
11
130.924
21
-133.018
0
LINE
8
BLACK
6
CONTINUOUS
10
130.924
20
-133.018
11
130.709
21
-135.853
0
LINE
8
BLACK
6
CONTINUOUS
10
130.709
20
-135.853
11
130.709
21
-135.854
0
LINE
8
BLACK
6
CONTINUOUS
10
130.709
20
-135.854
11
130.708
21
-135.862
0
LINE
8
BLACK
6
CONTINUOUS
10
130.708
20
-135.862
11
130.707
21
-135.87
0
LINE
8
BLACK
6
CONTINUOUS
10
130.707
20
-135.87
11
130.707
21
-135.871
0
LINE
8
BLACK
6
CONTINUOUS
10
130.707
20
-135.871
11
130.309
21
-140.527
0
LINE
8
BLACK
6
CONTINUOUS
10
130.309
20
-140.527
11
129.926
21
-145.192
0
LINE
8
BLACK
6
CONTINUOUS
10
129.926
20
-145.192
11
129.558
21
-149.858
0
LINE
8
BLACK
6
CONTINUOUS
10
129.558
20
-149.858
11
129.206
21
-154.525
0
LINE
8
BLACK
6
CONTINUOUS
10
129.206
20
-154.525
11
128.87
21
-159.193
0
LINE
8
BLACK
6
CONTINUOUS
10
128.87
20
-159.193
11
128.549
21
-163.862
0
LINE
8
BLACK
6
CONTINUOUS
10
128.549
20
-163.862
11
128.244
21
-168.532
0
LINE
8
BLACK
6
CONTINUOUS
10
128.244
20
-168.532
11
127.955
21
-173.203
0
LINE
8
BLACK
6
CONTINUOUS
10
127.955
20
-173.203
11
127.681
21
-177.875
0
LINE
8
BLACK
6
CONTINUOUS
10
127.681
20
-177.875
11
127.422
21
-182.548
0
LINE
8
BLACK
6
CONTINUOUS
10
127.422
20
-182.548
11
127.18
21
-187.221
0
LINE
8
BLACK
6
CONTINUOUS
10
127.18
20
-187.221
11
126.953
21
-191.895
0
LINE
8
BLACK
6
CONTINUOUS
10
126.953
20
-191.895
11
126.741
21
-196.57
0
LINE
8
BLACK
6
CONTINUOUS
10
126.741
20
-196.57
11
126.546
21
-201.245
0
LINE
8
BLACK
6
CONTINUOUS
10
126.546
20
-201.245
11
126.365
21
-205.921
0
LINE
8
BLACK
6
CONTINUOUS
10
126.365
20
-205.921
11
126.201
21
-210.598
0
LINE
8
BLACK
6
CONTINUOUS
10
126.201
20
-210.598
11
126.052
21
-215.275
0
LINE
8
BLACK
6
CONTINUOUS
10
126.052
20
-215.275
11
125.919
21
-219.952
0
LINE
8
BLACK
6
CONTINUOUS
10
125.919
20
-219.952
11
125.801
21
-224.63
0
LINE
8
BLACK
6
CONTINUOUS
10
125.801
20
-224.63
11
125.699
21
-229.308
0
LINE
8
BLACK
6
CONTINUOUS
10
125.699
20
-229.308
11
125.613
21
-233.987
0
LINE
8
BLACK
6
CONTINUOUS
10
125.613
20
-233.987
11
125.542
21
-238.666
0
LINE
8
BLACK
6
CONTINUOUS
10
125.542
20
-238.666
11
125.487
21
-243.346
0
LINE
8
BLACK
6
CONTINUOUS
10
125.487
20
-243.346
11
125.448
21
-248.025
0
LINE
8
BLACK
6
CONTINUOUS
10
125.448
20
-248.025
11
125.424
21
-252.705
0
LINE
8
BLACK
6
CONTINUOUS
10
125.424
20
-252.705
11
125.415
21
-257.385
0
LINE
8
BLACK
6
CONTINUOUS
10
125.415
20
-257.385
11
125.423
21
-262.065
0
LINE
8
BLACK
6
CONTINUOUS
10
125.423
20
-262.065
11
125.446
21
-266.745
0
LINE
8
BLACK
6
CONTINUOUS
10
125.446
20
-266.745
11
125.485
21
-271.426
0
LINE
8
BLACK
6
CONTINUOUS
10
125.485
20
-271.426
11
125.539
21
-276.106
0
LINE
8
BLACK
6
CONTINUOUS
10
125.539
20
-276.106
11
125.609
21
-280.786
0
LINE
8
BLACK
6
CONTINUOUS
10
125.609
20
-280.786
11
125.695
21
-285.459
0
LINE
8
BLACK
6
CONTINUOUS
10
125.695
20
-285.459
11
125.695
21
-285.461
0
LINE
8
BLACK
6
CONTINUOUS
10
125.695
20
-285.461
11
125.695
21
-285.468
0
LINE
8
BLACK
6
CONTINUOUS
10
125.695
20
-285.468
11
125.695
21
-285.475
0
LINE
8
BLACK
6
CONTINUOUS
10
125.695
20
-285.475
11
125.695
21
-285.477
0
LINE
8
BLACK
6
CONTINUOUS
10
125.695
20
-285.477
11
125.684
21
-287.018
0
LINE
8
BLACK
6
CONTINUOUS
10
125.684
20
-287.018
11
125.684
21
-287.02
0
LINE
8
BLACK
6
CONTINUOUS
10
125.684
20
-287.02
11
125.684
21
-287.026
0
LINE
8
BLACK
6
CONTINUOUS
10
125.684
20
-287.026
11
125.684
21
-287.032
0
LINE
8
BLACK
6
CONTINUOUS
10
125.684
20
-287.032
11
125.683
21
-287.035
0
LINE
8
BLACK
6
CONTINUOUS
10
125.683
20
-287.035
11
125.59
21
-288.555
0
LINE
8
BLACK
6
CONTINUOUS
10
125.59
20
-288.555
11
125.59
21
-288.558
0
LINE
8
BLACK
6
CONTINUOUS
10
125.59
20
-288.558
11
125.589
21
-288.564
0
LINE
8
BLACK
6
CONTINUOUS
10
125.589
20
-288.564
11
125.589
21
-288.57
0
LINE
8
BLACK
6
CONTINUOUS
10
125.589
20
-288.57
11
125.588
21
-288.573
0
LINE
8
BLACK
6
CONTINUOUS
10
125.588
20
-288.573
11
125.414
21
-290.069
0
LINE
8
BLACK
6
CONTINUOUS
10
125.414
20
-290.069
11
125.414
21
-290.071
0
LINE
8
BLACK
6
CONTINUOUS
10
125.414
20
-290.071
11
125.413
21
-290.077
0
LINE
8
BLACK
6
CONTINUOUS
10
125.413
20
-290.077
11
125.413
21
-290.083
0
LINE
8
BLACK
6
CONTINUOUS
10
125.413
20
-290.083
11
125.412
21
-290.086
0
LINE
8
BLACK
6
CONTINUOUS
10
125.412
20
-290.086
11
125.16
21
-291.556
0
LINE
8
BLACK
6
CONTINUOUS
10
125.16
20
-291.556
11
125.16
21
-291.559
0
LINE
8
BLACK
6
CONTINUOUS
10
125.16
20
-291.559
11
125.158
21
-291.564
0
LINE
8
BLACK
6
CONTINUOUS
10
125.158
20
-291.564
11
125.157
21
-291.57
0
LINE
8
BLACK
6
CONTINUOUS
10
125.157
20
-291.57
11
125.156
21
-291.573
0
LINE
8
BLACK
6
CONTINUOUS
10
125.156
20
-291.573
11
124.829
21
-293.015
0
LINE
8
BLACK
6
CONTINUOUS
10
124.829
20
-293.015
11
124.828
21
-293.017
0
LINE
8
BLACK
6
CONTINUOUS
10
124.828
20
-293.017
11
124.827
21
-293.023
0
LINE
8
BLACK
6
CONTINUOUS
10
124.827
20
-293.023
11
124.825
21
-293.029
0
LINE
8
BLACK
6
CONTINUOUS
10
124.825
20
-293.029
11
124.824
21
-293.032
0
LINE
8
BLACK
6
CONTINUOUS
10
124.824
20
-293.032
11
124.423
21
-294.443
0
LINE
8
BLACK
6
CONTINUOUS
10
124.423
20
-294.443
11
124.422
21
-294.445
0
LINE
8
BLACK
6
CONTINUOUS
10
124.422
20
-294.445
11
124.42
21
-294.451
0
LINE
8
BLACK
6
CONTINUOUS
10
124.42
20
-294.451
11
124.419
21
-294.457
0
LINE
8
BLACK
6
CONTINUOUS
10
124.419
20
-294.457
11
124.417
21
-294.459
0
LINE
8
BLACK
6
CONTINUOUS
10
124.417
20
-294.459
11
123.944
21
-295.838
0
LINE
8
BLACK
6
CONTINUOUS
10
123.944
20
-295.838
11
123.944
21
-295.841
0
LINE
8
BLACK
6
CONTINUOUS
10
123.944
20
-295.841
11
123.942
21
-295.847
0
LINE
8
BLACK
6
CONTINUOUS
10
123.942
20
-295.847
11
123.94
21
-295.852
0
LINE
8
BLACK
6
CONTINUOUS
10
123.94
20
-295.852
11
123.938
21
-295.855
0
LINE
8
BLACK
6
CONTINUOUS
10
123.938
20
-295.855
11
123.396
21
-297.199
0
LINE
8
BLACK
6
CONTINUOUS
10
123.396
20
-297.199
11
123.396
21
-297.202
0
LINE
8
BLACK
6
CONTINUOUS
10
123.396
20
-297.202
11
123.393
21
-297.207
0
LINE
8
BLACK
6
CONTINUOUS
10
123.393
20
-297.207
11
123.391
21
-297.213
0
LINE
8
BLACK
6
CONTINUOUS
10
123.391
20
-297.213
11
123.389
21
-297.215
0
LINE
8
BLACK
6
CONTINUOUS
10
123.389
20
-297.215
11
122.78
21
-298.523
0
LINE
8
BLACK
6
CONTINUOUS
10
122.78
20
-298.523
11
122.779
21
-298.526
0
LINE
8
BLACK
6
CONTINUOUS
10
122.779
20
-298.526
11
122.776
21
-298.531
0
LINE
8
BLACK
6
CONTINUOUS
10
122.776
20
-298.531
11
122.774
21
-298.537
0
LINE
8
BLACK
6
CONTINUOUS
10
122.774
20
-298.537
11
122.772
21
-298.539
0
LINE
8
BLACK
6
CONTINUOUS
10
122.772
20
-298.539
11
122.099
21
-299.809
0
LINE
8
BLACK
6
CONTINUOUS
10
122.099
20
-299.809
11
122.098
21
-299.811
0
LINE
8
BLACK
6
CONTINUOUS
10
122.098
20
-299.811
11
122.094
21
-299.816
0
LINE
8
BLACK
6
CONTINUOUS
10
122.094
20
-299.816
11
122.092
21
-299.822
0
LINE
8
BLACK
6
CONTINUOUS
10
122.092
20
-299.822
11
122.09
21
-299.824
0
LINE
8
BLACK
6
CONTINUOUS
10
122.09
20
-299.824
11
121.354
21
-301.053
0
LINE
8
BLACK
6
CONTINUOUS
10
121.354
20
-301.053
11
121.352
21
-301.055
0
LINE
8
BLACK
6
CONTINUOUS
10
121.352
20
-301.055
11
121.349
21
-301.06
0
LINE
8
BLACK
6
CONTINUOUS
10
121.349
20
-301.06
11
121.346
21
-301.066
0
LINE
8
BLACK
6
CONTINUOUS
10
121.346
20
-301.066
11
121.344
21
-301.068
0
LINE
8
BLACK
6
CONTINUOUS
10
121.344
20
-301.068
11
120.547
21
-302.254
0
LINE
8
BLACK
6
CONTINUOUS
10
120.547
20
-302.254
11
120.546
21
-302.256
0
LINE
8
BLACK
6
CONTINUOUS
10
120.546
20
-302.256
11
120.543
21
-302.261
0
LINE
8
BLACK
6
CONTINUOUS
10
120.543
20
-302.261
11
120.539
21
-302.266
0
LINE
8
BLACK
6
CONTINUOUS
10
120.539
20
-302.266
11
120.537
21
-302.268
0
LINE
8
BLACK
6
CONTINUOUS
10
120.537
20
-302.268
11
119.683
21
-303.41
0
LINE
8
BLACK
6
CONTINUOUS
10
119.683
20
-303.41
11
119.681
21
-303.412
0
LINE
8
BLACK
6
CONTINUOUS
10
119.681
20
-303.412
11
119.677
21
-303.417
0
LINE
8
BLACK
6
CONTINUOUS
10
119.677
20
-303.417
11
119.674
21
-303.422
0
LINE
8
BLACK
6
CONTINUOUS
10
119.674
20
-303.422
11
119.672
21
-303.424
0
LINE
8
BLACK
6
CONTINUOUS
10
119.672
20
-303.424
11
118.761
21
-304.519
0
LINE
8
BLACK
6
CONTINUOUS
10
118.761
20
-304.519
11
118.76
21
-304.521
0
LINE
8
BLACK
6
CONTINUOUS
10
118.76
20
-304.521
11
118.755
21
-304.525
0
LINE
8
BLACK
6
CONTINUOUS
10
118.755
20
-304.525
11
118.752
21
-304.53
0
LINE
8
BLACK
6
CONTINUOUS
10
118.752
20
-304.53
11
118.75
21
-304.532
0
LINE
8
BLACK
6
CONTINUOUS
10
118.75
20
-304.532
11
117.785
21
-305.578
0
LINE
8
BLACK
6
CONTINUOUS
10
117.785
20
-305.578
11
117.784
21
-305.58
0
LINE
8
BLACK
6
CONTINUOUS
10
117.784
20
-305.58
11
117.779
21
-305.584
0
LINE
8
BLACK
6
CONTINUOUS
10
117.779
20
-305.584
11
117.775
21
-305.589
0
LINE
8
BLACK
6
CONTINUOUS
10
117.775
20
-305.589
11
117.773
21
-305.59
0
LINE
8
BLACK
6
CONTINUOUS
10
117.773
20
-305.59
11
116.757
21
-306.586
0
LINE
8
BLACK
6
CONTINUOUS
10
116.757
20
-306.586
11
116.756
21
-306.588
0
LINE
8
BLACK
6
CONTINUOUS
10
116.756
20
-306.588
11
116.751
21
-306.592
0
LINE
8
BLACK
6
CONTINUOUS
10
116.751
20
-306.592
11
116.747
21
-306.596
0
LINE
8
BLACK
6
CONTINUOUS
10
116.747
20
-306.596
11
116.744
21
-306.598
0
LINE
8
BLACK
6
CONTINUOUS
10
116.744
20
-306.598
11
115.679
21
-307.54
0
LINE
8
BLACK
6
CONTINUOUS
10
115.679
20
-307.54
11
115.678
21
-307.542
0
LINE
8
BLACK
6
CONTINUOUS
10
115.678
20
-307.542
11
115.673
21
-307.546
0
LINE
8
BLACK
6
CONTINUOUS
10
115.673
20
-307.546
11
115.668
21
-307.55
0
LINE
8
BLACK
6
CONTINUOUS
10
115.668
20
-307.55
11
115.666
21
-307.551
0
LINE
8
BLACK
6
CONTINUOUS
10
115.666
20
-307.551
11
114.554
21
-308.439
0
LINE
8
BLACK
6
CONTINUOUS
10
114.554
20
-308.439
11
114.552
21
-308.441
0
LINE
8
BLACK
6
CONTINUOUS
10
114.552
20
-308.441
11
114.547
21
-308.444
0
LINE
8
BLACK
6
CONTINUOUS
10
114.547
20
-308.444
11
114.542
21
-308.448
0
LINE
8
BLACK
6
CONTINUOUS
10
114.542
20
-308.448
11
114.54
21
-308.449
0
LINE
8
BLACK
6
CONTINUOUS
10
114.54
20
-308.449
11
113.383
21
-309.28
0
LINE
8
BLACK
6
CONTINUOUS
10
113.383
20
-309.28
11
113.381
21
-309.282
0
LINE
8
BLACK
6
CONTINUOUS
10
113.381
20
-309.282
11
113.376
21
-309.285
0
LINE
8
BLACK
6
CONTINUOUS
10
113.376
20
-309.285
11
113.371
21
-309.289
0
LINE
8
BLACK
6
CONTINUOUS
10
113.371
20
-309.289
11
113.369
21
-309.29
0
LINE
8
BLACK
6
CONTINUOUS
10
113.369
20
-309.29
11
112.169
21
-310.061
0
LINE
8
BLACK
6
CONTINUOUS
10
112.169
20
-310.061
11
112.167
21
-310.063
0
LINE
8
BLACK
6
CONTINUOUS
10
112.167
20
-310.063
11
112.162
21
-310.066
0
LINE
8
BLACK
6
CONTINUOUS
10
112.162
20
-310.066
11
112.156
21
-310.069
0
LINE
8
BLACK
6
CONTINUOUS
10
112.156
20
-310.069
11
112.154
21
-310.07
0
LINE
8
BLACK
6
CONTINUOUS
10
112.154
20
-310.07
11
110.914
21
-310.781
0
LINE
8
BLACK
6
CONTINUOUS
10
110.914
20
-310.781
11
110.912
21
-310.782
0
LINE
8
BLACK
6
CONTINUOUS
10
110.912
20
-310.782
11
110.906
21
-310.785
0
LINE
8
BLACK
6
CONTINUOUS
10
110.906
20
-310.785
11
110.901
21
-310.788
0
LINE
8
BLACK
6
CONTINUOUS
10
110.901
20
-310.788
11
110.899
21
-310.789
0
LINE
8
BLACK
6
CONTINUOUS
10
110.899
20
-310.789
11
109.62
21
-311.436
0
LINE
8
BLACK
6
CONTINUOUS
10
109.62
20
-311.436
11
109.618
21
-311.438
0
LINE
8
BLACK
6
CONTINUOUS
10
109.618
20
-311.438
11
109.613
21
-311.44
0
LINE
8
BLACK
6
CONTINUOUS
10
109.613
20
-311.44
11
109.607
21
-311.443
0
LINE
8
BLACK
6
CONTINUOUS
10
109.607
20
-311.443
11
109.605
21
-311.444
0
LINE
8
BLACK
6
CONTINUOUS
10
109.605
20
-311.444
11
108.29
21
-312.025
0
LINE
8
BLACK
6
CONTINUOUS
10
108.29
20
-312.025
11
108.288
21
-312.027
0
LINE
8
BLACK
6
CONTINUOUS
10
108.288
20
-312.027
11
108.282
21
-312.029
0
LINE
8
BLACK
6
CONTINUOUS
10
108.282
20
-312.029
11
108.277
21
-312.032
0
LINE
8
BLACK
6
CONTINUOUS
10
108.277
20
-312.032
11
108.274
21
-312.032
0
LINE
8
BLACK
6
CONTINUOUS
10
108.274
20
-312.032
11
106.926
21
-312.547
0
LINE
8
BLACK
6
CONTINUOUS
10
106.926
20
-312.547
11
106.924
21
-312.548
0
LINE
8
BLACK
6
CONTINUOUS
10
106.924
20
-312.548
11
106.918
21
-312.55
0
LINE
8
BLACK
6
CONTINUOUS
10
106.918
20
-312.55
11
106.912
21
-312.552
0
LINE
8
BLACK
6
CONTINUOUS
10
106.912
20
-312.552
11
106.91
21
-312.553
0
LINE
8
BLACK
6
CONTINUOUS
10
106.91
20
-312.553
11
105.53
21
-312.998
0
LINE
8
BLACK
6
CONTINUOUS
10
105.53
20
-312.998
11
105.528
21
-312.999
0
LINE
8
BLACK
6
CONTINUOUS
10
105.528
20
-312.999
11
105.522
21
-313
0
LINE
8
BLACK
6
CONTINUOUS
10
105.522
20
-313
11
105.516
21
-313.002
0
LINE
8
BLACK
6
CONTINUOUS
10
105.516
20
-313.002
11
105.513
21
-313.003
0
LINE
8
BLACK
6
CONTINUOUS
10
105.513
20
-313.003
11
104.104
21
-313.376
0
LINE
8
BLACK
6
CONTINUOUS
10
104.104
20
-313.376
11
104.102
21
-313.377
0
LINE
8
BLACK
6
CONTINUOUS
10
104.102
20
-313.377
11
104.096
21
-313.379
0
LINE
8
BLACK
6
CONTINUOUS
10
104.096
20
-313.379
11
104.09
21
-313.38
0
LINE
8
BLACK
6
CONTINUOUS
10
104.09
20
-313.38
11
104.087
21
-313.38
0
LINE
8
BLACK
6
CONTINUOUS
10
104.087
20
-313.38
11
102.651
21
-313.681
0
LINE
8
BLACK
6
CONTINUOUS
10
102.651
20
-313.681
11
102.648
21
-313.681
0
LINE
8
BLACK
6
CONTINUOUS
10
102.648
20
-313.681
11
102.642
21
-313.682
0
LINE
8
BLACK
6
CONTINUOUS
10
102.642
20
-313.682
11
102.637
21
-313.684
0
LINE
8
BLACK
6
CONTINUOUS
10
102.637
20
-313.684
11
102.634
21
-313.684
0
LINE
8
BLACK
6
CONTINUOUS
10
102.634
20
-313.684
11
101.173
21
-313.908
0
LINE
8
BLACK
6
CONTINUOUS
10
101.173
20
-313.908
11
101.17
21
-313.909
0
LINE
8
BLACK
6
CONTINUOUS
10
101.17
20
-313.909
11
101.164
21
-313.91
0
LINE
8
BLACK
6
CONTINUOUS
10
101.164
20
-313.91
11
101.158
21
-313.911
0
LINE
8
BLACK
6
CONTINUOUS
10
101.158
20
-313.911
11
101.155
21
-313.91
0
LINE
8
BLACK
6
CONTINUOUS
10
101.155
20
-313.91
11
99.6712
21
-314.057
0
LINE
8
BLACK
6
CONTINUOUS
10
99.6712
20
-314.057
11
99.6685
21
-314.058
0
LINE
8
BLACK
6
CONTINUOUS
10
99.6685
20
-314.058
11
99.6625
21
-314.058
0
LINE
8
BLACK
6
CONTINUOUS
10
99.6625
20
-314.058
11
99.6565
21
-314.059
0
LINE
8
BLACK
6
CONTINUOUS
10
99.6565
20
-314.059
11
99.6537
21
-314.059
0
LINE
8
BLACK
6
CONTINUOUS
10
99.6537
20
-314.059
11
98.1491
21
-314.126
0
LINE
8
BLACK
6
CONTINUOUS
10
98.1491
20
-314.126
11
98.1464
21
-314.126
0
LINE
8
BLACK
6
CONTINUOUS
10
98.1464
20
-314.126
11
98.1404
21
-314.126
0
LINE
8
BLACK
6
CONTINUOUS
10
98.1404
20
-314.126
11
98.1343
21
-314.126
0
LINE
8
BLACK
6
CONTINUOUS
10
98.1343
20
-314.126
11
98.1316
21
-314.126
0
LINE
8
BLACK
6
CONTINUOUS
10
98.1316
20
-314.126
11
96.6086
21
-314.111
0
LINE
8
BLACK
6
CONTINUOUS
10
96.6086
20
-314.111
11
96.6059
21
-314.112
0
LINE
8
BLACK
6
CONTINUOUS
10
96.6059
20
-314.112
11
96.5999
21
-314.111
0
LINE
8
BLACK
6
CONTINUOUS
10
96.5999
20
-314.111
11
96.5939
21
-314.111
0
LINE
8
BLACK
6
CONTINUOUS
10
96.5939
20
-314.111
11
96.5912
21
-314.111
0
LINE
8
BLACK
6
CONTINUOUS
10
96.5912
20
-314.111
11
95.052
21
-314.012
0
LINE
8
BLACK
6
CONTINUOUS
10
95.052
20
-314.012
11
95.0493
21
-314.012
0
LINE
8
BLACK
6
CONTINUOUS
10
95.0493
20
-314.012
11
95.0433
21
-314.011
0
LINE
8
BLACK
6
CONTINUOUS
10
95.0433
20
-314.011
11
95.0373
21
-314.011
0
LINE
8
BLACK
6
CONTINUOUS
10
95.0373
20
-314.011
11
95.0346
21
-314.01
0
LINE
8
BLACK
6
CONTINUOUS
10
95.0346
20
-314.01
11
93.503
21
-313.828
0
LINE
8
BLACK
6
CONTINUOUS
10
93.503
20
-313.828
11
93.5003
21
-313.828
0
LINE
8
BLACK
6
CONTINUOUS
10
93.5003
20
-313.828
11
93.4943
21
-313.827
0
LINE
8
BLACK
6
CONTINUOUS
10
93.4943
20
-313.827
11
93.4884
21
-313.827
0
LINE
8
BLACK
6
CONTINUOUS
10
93.4884
20
-313.827
11
93.4858
21
-313.826
0
LINE
8
BLACK
6
CONTINUOUS
10
93.4858
20
-313.826
11
91.9853
21
-313.564
0
LINE
8
BLACK
6
CONTINUOUS
10
91.9853
20
-313.564
11
91.9826
21
-313.564
0
LINE
8
BLACK
6
CONTINUOUS
10
91.9826
20
-313.564
11
91.9767
21
-313.563
0
LINE
8
BLACK
6
CONTINUOUS
10
91.9767
20
-313.563
11
91.9707
21
-313.562
0
LINE
8
BLACK
6
CONTINUOUS
10
91.9707
20
-313.562
11
91.9682
21
-313.561
0
LINE
8
BLACK
6
CONTINUOUS
10
91.9682
20
-313.561
11
90.5006
21
-313.222
0
LINE
8
BLACK
6
CONTINUOUS
10
90.5006
20
-313.222
11
90.4979
21
-313.222
0
LINE
8
BLACK
6
CONTINUOUS
10
90.4979
20
-313.222
11
90.4921
21
-313.22
0
LINE
8
BLACK
6
CONTINUOUS
10
90.4921
20
-313.22
11
90.4862
21
-313.219
0
LINE
8
BLACK
6
CONTINUOUS
10
90.4862
20
-313.219
11
90.4837
21
-313.218
0
LINE
8
BLACK
6
CONTINUOUS
10
90.4837
20
-313.218
11
89.0509
21
-312.804
0
LINE
8
BLACK
6
CONTINUOUS
10
89.0509
20
-312.804
11
89.0482
21
-312.804
0
LINE
8
BLACK
6
CONTINUOUS
10
89.0482
20
-312.804
11
89.0425
21
-312.802
0
LINE
8
BLACK
6
CONTINUOUS
10
89.0425
20
-312.802
11
89.0367
21
-312.8
0
LINE
8
BLACK
6
CONTINUOUS
10
89.0367
20
-312.8
11
89.0342
21
-312.799
0
LINE
8
BLACK
6
CONTINUOUS
10
89.0342
20
-312.799
11
87.6379
21
-312.313
0
LINE
8
BLACK
6
CONTINUOUS
10
87.6379
20
-312.313
11
87.6352
21
-312.313
0
LINE
8
BLACK
6
CONTINUOUS
10
87.6352
20
-312.313
11
87.6296
21
-312.31
0
LINE
8
BLACK
6
CONTINUOUS
10
87.6296
20
-312.31
11
87.6239
21
-312.308
0
LINE
8
BLACK
6
CONTINUOUS
10
87.6239
20
-312.308
11
87.6215
21
-312.307
0
LINE
8
BLACK
6
CONTINUOUS
10
87.6215
20
-312.307
11
86.2634
21
-311.752
0
LINE
8
BLACK
6
CONTINUOUS
10
86.2634
20
-311.752
11
86.2609
21
-311.751
0
LINE
8
BLACK
6
CONTINUOUS
10
86.2609
20
-311.751
11
86.2554
21
-311.748
0
LINE
8
BLACK
6
CONTINUOUS
10
86.2554
20
-311.748
11
86.2497
21
-311.746
0
LINE
8
BLACK
6
CONTINUOUS
10
86.2497
20
-311.746
11
86.2475
21
-311.745
0
LINE
8
BLACK
6
CONTINUOUS
10
86.2475
20
-311.745
11
84.9295
21
-311.122
0
LINE
8
BLACK
6
CONTINUOUS
10
84.9295
20
-311.122
11
84.927
21
-311.121
0
LINE
8
BLACK
6
CONTINUOUS
10
84.927
20
-311.121
11
84.9216
21
-311.118
0
LINE
8
BLACK
6
CONTINUOUS
10
84.9216
20
-311.118
11
84.9161
21
-311.115
0
LINE
8
BLACK
6
CONTINUOUS
10
84.9161
20
-311.115
11
84.9139
21
-311.114
0
LINE
8
BLACK
6
CONTINUOUS
10
84.9139
20
-311.114
11
83.6378
21
-310.426
0
LINE
8
BLACK
6
CONTINUOUS
10
83.6378
20
-310.426
11
83.6353
21
-310.425
0
LINE
8
BLACK
6
CONTINUOUS
10
83.6353
20
-310.425
11
83.6301
21
-310.422
0
LINE
8
BLACK
6
CONTINUOUS
10
83.6301
20
-310.422
11
83.6247
21
-310.419
0
LINE
8
BLACK
6
CONTINUOUS
10
83.6247
20
-310.419
11
83.6226
21
-310.417
0
LINE
8
BLACK
6
CONTINUOUS
10
83.6226
20
-310.417
11
82.3902
21
-309.667
0
LINE
8
BLACK
6
CONTINUOUS
10
82.3902
20
-309.667
11
82.3878
21
-309.666
0
LINE
8
BLACK
6
CONTINUOUS
10
82.3878
20
-309.666
11
82.3827
21
-309.662
0
LINE
8
BLACK
6
CONTINUOUS
10
82.3827
20
-309.662
11
82.3775
21
-309.659
0
LINE
8
BLACK
6
CONTINUOUS
10
82.3775
20
-309.659
11
82.3755
21
-309.657
0
LINE
8
BLACK
6
CONTINUOUS
10
82.3755
20
-309.657
11
81.1885
21
-308.847
0
LINE
8
BLACK
6
CONTINUOUS
10
81.1885
20
-308.847
11
81.1862
21
-308.846
0
LINE
8
BLACK
6
CONTINUOUS
10
81.1862
20
-308.846
11
81.1813
21
-308.842
0
LINE
8
BLACK
6
CONTINUOUS
10
81.1813
20
-308.842
11
81.1762
21
-308.838
0
LINE
8
BLACK
6
CONTINUOUS
10
81.1762
20
-308.838
11
81.1743
21
-308.837
0
LINE
8
BLACK
6
CONTINUOUS
10
81.1743
20
-308.837
11
80.0346
21
-307.968
0
LINE
8
BLACK
6
CONTINUOUS
10
80.0346
20
-307.968
11
80.0323
21
-307.967
0
LINE
8
BLACK
6
CONTINUOUS
10
80.0323
20
-307.967
11
80.0276
21
-307.963
0
LINE
8
BLACK
6
CONTINUOUS
10
80.0276
20
-307.963
11
80.0227
21
-307.959
0
LINE
8
BLACK
6
CONTINUOUS
10
80.0227
20
-307.959
11
80.021
21
-307.958
0
LINE
8
BLACK
6
CONTINUOUS
10
80.021
20
-307.958
11
78.9302
21
-307.034
0
LINE
8
BLACK
6
CONTINUOUS
10
78.9302
20
-307.034
11
78.9281
21
-307.033
0
LINE
8
BLACK
6
CONTINUOUS
10
78.9281
20
-307.033
11
78.9236
21
-307.029
0
LINE
8
BLACK
6
CONTINUOUS
10
78.9236
20
-307.029
11
78.9189
21
-307.025
0
LINE
8
BLACK
6
CONTINUOUS
10
78.9189
20
-307.025
11
78.9172
21
-307.023
0
LINE
8
BLACK
6
CONTINUOUS
10
78.9172
20
-307.023
11
77.8773
21
-306.046
0
LINE
8
BLACK
6
CONTINUOUS
10
77.8773
20
-306.046
11
77.8753
21
-306.045
0
LINE
8
BLACK
6
CONTINUOUS
10
77.8753
20
-306.045
11
77.871
21
-306.04
0
LINE
8
BLACK
6
CONTINUOUS
10
77.871
20
-306.04
11
77.8665
21
-306.036
0
LINE
8
BLACK
6
CONTINUOUS
10
77.8665
20
-306.036
11
77.8649
21
-306.034
0
LINE
8
BLACK
6
CONTINUOUS
10
77.8649
20
-306.034
11
76.8777
21
-305.008
0
LINE
8
BLACK
6
CONTINUOUS
10
76.8777
20
-305.008
11
76.8757
21
-305.006
0
LINE
8
BLACK
6
CONTINUOUS
10
76.8757
20
-305.006
11
76.8716
21
-305.001
0
LINE
8
BLACK
6
CONTINUOUS
10
76.8716
20
-305.001
11
76.8673
21
-304.997
0
LINE
8
BLACK
6
CONTINUOUS
10
76.8673
20
-304.997
11
76.8659
21
-304.995
0
LINE
8
BLACK
6
CONTINUOUS
10
76.8659
20
-304.995
11
75.9331
21
-303.92
0
LINE
8
BLACK
6
CONTINUOUS
10
75.9331
20
-303.92
11
75.9312
21
-303.919
0
LINE
8
BLACK
6
CONTINUOUS
10
75.9312
20
-303.919
11
75.9273
21
-303.914
0
LINE
8
BLACK
6
CONTINUOUS
10
75.9273
20
-303.914
11
75.9233
21
-303.909
0
LINE
8
BLACK
6
CONTINUOUS
10
75.9233
20
-303.909
11
75.922
21
-303.907
0
LINE
8
BLACK
6
CONTINUOUS
10
75.922
20
-303.907
11
75.0454
21
-302.787
0
LINE
8
BLACK
6
CONTINUOUS
10
75.0454
20
-302.787
11
75.0436
21
-302.785
0
LINE
8
BLACK
6
CONTINUOUS
10
75.0436
20
-302.785
11
75.04
21
-302.78
0
LINE
8
BLACK
6
CONTINUOUS
10
75.04
20
-302.78
11
75.0362
21
-302.775
0
LINE
8
BLACK
6
CONTINUOUS
10
75.0362
20
-302.775
11
75.035
21
-302.773
0
LINE
8
BLACK
6
CONTINUOUS
10
75.035
20
-302.773
11
74.2164
21
-301.61
0
LINE
8
BLACK
6
CONTINUOUS
10
74.2164
20
-301.61
11
74.2147
21
-301.608
0
LINE
8
BLACK
6
CONTINUOUS
10
74.2147
20
-301.608
11
74.2114
21
-301.603
0
LINE
8
BLACK
6
CONTINUOUS
10
74.2114
20
-301.603
11
74.2078
21
-301.598
0
LINE
8
BLACK
6
CONTINUOUS
10
74.2078
20
-301.598
11
74.2067
21
-301.595
0
LINE
8
BLACK
6
CONTINUOUS
10
74.2067
20
-301.595
11
73.448
21
-300.392
0
LINE
8
BLACK
6
CONTINUOUS
10
73.448
20
-300.392
11
73.4463
21
-300.39
0
LINE
8
BLACK
6
CONTINUOUS
10
73.4463
20
-300.39
11
73.4433
21
-300.384
0
LINE
8
BLACK
6
CONTINUOUS
10
73.4433
20
-300.384
11
73.44
21
-300.379
0
LINE
8
BLACK
6
CONTINUOUS
10
73.44
20
-300.379
11
73.439
21
-300.377
0
LINE
8
BLACK
6
CONTINUOUS
10
73.439
20
-300.377
11
72.7419
21
-299.135
0
LINE
8
BLACK
6
CONTINUOUS
10
72.7419
20
-299.135
11
72.7404
21
-299.133
0
LINE
8
BLACK
6
CONTINUOUS
10
72.7404
20
-299.133
11
72.7376
21
-299.127
0
LINE
8
BLACK
6
CONTINUOUS
10
72.7376
20
-299.127
11
72.7346
21
-299.122
0
LINE
8
BLACK
6
CONTINUOUS
10
72.7346
20
-299.122
11
72.7338
21
-299.119
0
LINE
8
BLACK
6
CONTINUOUS
10
72.7338
20
-299.119
11
72.1001
21
-297.842
0
LINE
8
BLACK
6
CONTINUOUS
10
72.1001
20
-297.842
11
72.0986
21
-297.839
0
LINE
8
BLACK
6
CONTINUOUS
10
72.0986
20
-297.839
11
72.0962
21
-297.834
0
LINE
8
BLACK
6
CONTINUOUS
10
72.0962
20
-297.834
11
72.0934
21
-297.828
0
LINE
8
BLACK
6
CONTINUOUS
10
72.0934
20
-297.828
11
72.0927
21
-297.826
0
LINE
8
BLACK
6
CONTINUOUS
10
72.0927
20
-297.826
11
71.5242
21
-296.515
0
LINE
8
BLACK
6
CONTINUOUS
10
71.5242
20
-296.515
11
71.5229
21
-296.512
0
LINE
8
BLACK
6
CONTINUOUS
10
71.5229
20
-296.512
11
71.5208
21
-296.507
0
LINE
8
BLACK
6
CONTINUOUS
10
71.5208
20
-296.507
11
71.5183
21
-296.501
0
LINE
8
BLACK
6
CONTINUOUS
10
71.5183
20
-296.501
11
71.5177
21
-296.499
0
LINE
8
BLACK
6
CONTINUOUS
10
71.5177
20
-296.499
11
71.0163
21
-295.156
0
LINE
8
BLACK
6
CONTINUOUS
10
71.0163
20
-295.156
11
71.0151
21
-295.154
0
LINE
8
BLACK
6
CONTINUOUS
10
71.0151
20
-295.154
11
71.0132
21
-295.148
0
LINE
8
BLACK
6
CONTINUOUS
10
71.0132
20
-295.148
11
71.0111
21
-295.142
0
LINE
8
BLACK
6
CONTINUOUS
10
71.0111
20
-295.142
11
71.0106
21
-295.14
0
LINE
8
BLACK
6
CONTINUOUS
10
71.0106
20
-295.14
11
70.578
21
-293.769
0
LINE
8
BLACK
6
CONTINUOUS
10
70.578
20
-293.769
11
70.5769
21
-293.767
0
LINE
8
BLACK
6
CONTINUOUS
10
70.5769
20
-293.767
11
70.5754
21
-293.761
0
LINE
8
BLACK
6
CONTINUOUS
10
70.5754
20
-293.761
11
70.5735
21
-293.755
0
LINE
8
BLACK
6
CONTINUOUS
10
70.5735
20
-293.755
11
70.5732
21
-293.752
0
LINE
8
BLACK
6
CONTINUOUS
10
70.5732
20
-293.752
11
70.2113
21
-292.356
0
LINE
8
BLACK
6
CONTINUOUS
10
70.2113
20
-292.356
11
70.2103
21
-292.353
0
LINE
8
BLACK
6
CONTINUOUS
10
70.2103
20
-292.353
11
70.2091
21
-292.347
0
LINE
8
BLACK
6
CONTINUOUS
10
70.2091
20
-292.347
11
70.2075
21
-292.341
0
LINE
8
BLACK
6
CONTINUOUS
10
70.2075
20
-292.341
11
70.2073
21
-292.339
0
LINE
8
BLACK
6
CONTINUOUS
10
70.2073
20
-292.339
11
69.9179
21
-290.918
0
LINE
8
BLACK
6
CONTINUOUS
10
69.9179
20
-290.918
11
69.917
21
-290.916
0
LINE
8
BLACK
6
CONTINUOUS
10
69.917
20
-290.916
11
69.9161
21
-290.91
0
LINE
8
BLACK
6
CONTINUOUS
10
69.9161
20
-290.91
11
69.9149
21
-290.904
0
LINE
8
BLACK
6
CONTINUOUS
10
69.9149
20
-290.904
11
69.9149
21
-290.901
0
LINE
8
BLACK
6
CONTINUOUS
10
69.9149
20
-290.901
11
69.6997
21
-289.459
0
LINE
8
BLACK
6
CONTINUOUS
10
69.6997
20
-289.459
11
69.699
21
-289.456
0
LINE
8
BLACK
6
CONTINUOUS
10
69.699
20
-289.456
11
69.6984
21
-289.45
0
LINE
8
BLACK
6
CONTINUOUS
10
69.6984
20
-289.45
11
69.6975
21
-289.444
0
LINE
8
BLACK
6
CONTINUOUS
10
69.6975
20
-289.444
11
69.6976
21
-289.442
0
LINE
8
BLACK
6
CONTINUOUS
10
69.6976
20
-289.442
11
69.5585
21
-287.981
0
LINE
8
BLACK
6
CONTINUOUS
10
69.5585
20
-287.981
11
69.5579
21
-287.978
0
LINE
8
BLACK
6
CONTINUOUS
10
69.5579
20
-287.978
11
69.5577
21
-287.972
0
LINE
8
BLACK
6
CONTINUOUS
10
69.5577
20
-287.972
11
69.5571
21
-287.966
0
LINE
8
BLACK
6
CONTINUOUS
10
69.5571
20
-287.966
11
69.5573
21
-287.964
0
LINE
8
BLACK
6
CONTINUOUS
10
69.5573
20
-287.964
11
69.4962
21
-286.486
0
LINE
8
BLACK
6
CONTINUOUS
10
69.4962
20
-286.486
11
69.4957
21
-286.484
0
LINE
8
BLACK
6
CONTINUOUS
10
69.4957
20
-286.484
11
69.4958
21
-286.478
0
LINE
8
BLACK
6
CONTINUOUS
10
69.4958
20
-286.478
11
69.4955
21
-286.472
0
LINE
8
BLACK
6
CONTINUOUS
10
69.4955
20
-286.472
11
69.4959
21
-286.469
0
LINE
8
BLACK
6
CONTINUOUS
10
69.4959
20
-286.469
11
69.5145
21
-284.978
0
LINE
8
BLACK
6
CONTINUOUS
10
69.5145
20
-284.978
11
69.5142
21
-284.975
0
LINE
8
BLACK
6
CONTINUOUS
10
69.5142
20
-284.975
11
69.5146
21
-284.969
0
LINE
8
BLACK
6
CONTINUOUS
10
69.5146
20
-284.969
11
69.5147
21
-284.963
0
LINE
8
BLACK
6
CONTINUOUS
10
69.5147
20
-284.963
11
69.5152
21
-284.96
0
LINE
8
BLACK
6
CONTINUOUS
10
69.5152
20
-284.96
11
69.6153
21
-283.457
0
LINE
8
BLACK
6
CONTINUOUS
10
69.6153
20
-283.457
11
69.6152
21
-283.455
0
LINE
8
BLACK
6
CONTINUOUS
10
69.6152
20
-283.455
11
69.6159
21
-283.449
0
LINE
8
BLACK
6
CONTINUOUS
10
69.6159
20
-283.449
11
69.6163
21
-283.443
0
LINE
8
BLACK
6
CONTINUOUS
10
69.6163
20
-283.443
11
69.6169
21
-283.44
0
LINE
8
BLACK
6
CONTINUOUS
10
69.6169
20
-283.44
11
69.8005
21
-281.928
0
LINE
8
BLACK
6
CONTINUOUS
10
69.8005
20
-281.928
11
69.8005
21
-281.925
0
LINE
8
BLACK
6
CONTINUOUS
10
69.8005
20
-281.925
11
69.8015
21
-281.919
0
LINE
8
BLACK
6
CONTINUOUS
10
69.8015
20
-281.919
11
69.8023
21
-281.913
0
LINE
8
BLACK
6
CONTINUOUS
10
69.8023
20
-281.913
11
69.803
21
-281.911
0
LINE
8
BLACK
6
CONTINUOUS
10
69.803
20
-281.911
11
70.0713
21
-280.395
0
LINE
8
BLACK
6
CONTINUOUS
10
70.0713
20
-280.395
11
70.0713
21
-280.395
0
LINE
8
BLACK
6
CONTINUOUS
10
70.0713
20
-280.395
11
70.0713
21
-280.395
0
LINE
8
BLACK
6
CONTINUOUS
10
70.0713
20
-280.395
11
70.0713
21
-280.395
0
LINE
8
BLACK
6
CONTINUOUS
10
70.0713
20
-280.395
11
70.0713
21
-280.395
0
LINE
8
BLACK
6
CONTINUOUS
10
70.0713
20
-280.395
11
70.0713
21
-280.395
0
LINE
8
BLACK
6
CONTINUOUS
10
70.0713
20
-280.395
11
70.0713
21
-280.395
0
LINE
8
BLACK
6
CONTINUOUS
10
70.0713
20
-280.395
11
70.0713
21
-280.395
0
LINE
8
BLACK
6
CONTINUOUS
10
70.0713
20
-280.395
11
70.0713
21
-280.395
0
LINE
8
BLACK
6
CONTINUOUS
10
70.0713
20
-280.395
11
70.0713
21
-280.395
0
LINE
8
BLACK
6
CONTINUOUS
10
70.0713
20
-280.395
11
70.0713
21
-280.395
0
LINE
8
BLACK
6
CONTINUOUS
10
70.0713
20
-280.395
11
70.0713
21
-280.395
0
LINE
8
BLACK
6
CONTINUOUS
10
70.0713
20
-280.395
11
70.0713
21
-280.395
0
LINE
8
BLACK
6
CONTINUOUS
10
70.0713
20
-280.395
11
70.0713
21
-280.395
0
LINE
8
BLACK
6
CONTINUOUS
10
70.0713
20
-280.395
11
70.0715
21
-280.394
0
LINE
8
BLACK
6
CONTINUOUS
10
70.0715
20
-280.394
11
70.0715
21
-280.393
0
LINE
8
BLACK
6
CONTINUOUS
10
70.0715
20
-280.393
11
70.0718
21
-280.391
0
LINE
8
BLACK
6
CONTINUOUS
10
70.0718
20
-280.391
11
70.0719
21
-280.39
0
LINE
8
BLACK
6
CONTINUOUS
10
70.0719
20
-280.39
11
70.0719
21
-280.39
0
LINE
8
BLACK
6
CONTINUOUS
10
70.0719
20
-280.39
11
70.0719
21
-280.39
0
LINE
8
BLACK
6
CONTINUOUS
10
70.0719
20
-280.39
11
70.0724
21
-280.387
0
LINE
8
BLACK
6
CONTINUOUS
10
70.0724
20
-280.387
11
70.0727
21
-280.385
0
LINE
8
BLACK
6
CONTINUOUS
10
70.0727
20
-280.385
11
70.0737
21
-280.381
0
LINE
8
BLACK
6
CONTINUOUS
10
70.0737
20
-280.381
11
70.0759
21
-280.369
0
LINE
8
BLACK
6
CONTINUOUS
10
70.0759
20
-280.369
11
70.0764
21
-280.368
0
LINE
8
BLACK
6
CONTINUOUS
10
70.0764
20
-280.368
11
70.9667
21
-275.8
0
LINE
8
BLACK
6
CONTINUOUS
10
70.9667
20
-275.8
11
71.7693
21
-271.206
0
LINE
8
BLACK
6
CONTINUOUS
10
71.7693
20
-271.206
11
72.4812
21
-266.604
0
LINE
8
BLACK
6
CONTINUOUS
10
72.4812
20
-266.604
11
73.1026
21
-261.995
0
LINE
8
BLACK
6
CONTINUOUS
10
73.1026
20
-261.995
11
73.6337
21
-257.38
0
LINE
8
BLACK
6
CONTINUOUS
10
73.6337
20
-257.38
11
74.0747
21
-252.759
0
LINE
8
BLACK
6
CONTINUOUS
10
74.0747
20
-252.759
11
74.3395
21
-249.881
0
LINE
8
BLACK
6
CONTINUOUS
10
74.3395
20
-249.881
11
74.3386
21
-249.874
0
LINE
8
BLACK
6
CONTINUOUS
10
74.3386
20
-249.874
11
74.3411
21
-249.864
0
LINE
8
BLACK
6
CONTINUOUS
10
74.3411
20
-249.864
11
74.3412
21
-249.862
0
LINE
8
BLACK
6
CONTINUOUS
10
74.3412
20
-249.862
11
74.3431
21
-249.855
0
LINE
8
BLACK
6
CONTINUOUS
10
74.3431
20
-249.855
11
74.3468
21
-249.84
0
LINE
8
BLACK
6
CONTINUOUS
10
74.3468
20
-249.84
11
74.3477
21
-249.838
0
LINE
8
BLACK
6
CONTINUOUS
10
74.3477
20
-249.838
11
74.3482
21
-249.837
0
LINE
8
BLACK
6
CONTINUOUS
10
74.3482
20
-249.837
11
74.3574
21
-249.824
0
LINE
8
BLACK
6
CONTINUOUS
10
74.3574
20
-249.824
11
74.3612
21
-249.818
0
LINE
8
BLACK
6
CONTINUOUS
10
74.3612
20
-249.818
11
74.3624
21
-249.817
0
LINE
8
BLACK
6
CONTINUOUS
10
74.3624
20
-249.817
11
74.3685
21
-249.808
0
LINE
8
BLACK
6
CONTINUOUS
10
74.3685
20
-249.808
11
74.3744
21
-249.804
0
LINE
8
BLACK
6
CONTINUOUS
10
74.3744
20
-249.804
11
76.0153
21
-248.063
0
LINE
8
BLACK
6
CONTINUOUS
10
76.0153
20
-248.063
11
76.0247
21
-248.052
0
LINE
8
BLACK
6
CONTINUOUS
10
76.0247
20
-248.052
11
76.0349
21
-248.046
0
LINE
8
BLACK
6
CONTINUOUS
10
76.0349
20
-248.046
11
76.0444
21
-248.039
0
LINE
8
BLACK
6
CONTINUOUS
10
76.0444
20
-248.039
11
76.0501
21
-248.038
0
LINE
8
BLACK
6
CONTINUOUS
10
76.0501
20
-248.038
11
76.0553
21
-248.035
0
LINE
8
BLACK
6
CONTINUOUS
10
76.0553
20
-248.035
11
76.0669
21
-248.033
0
LINE
8
BLACK
6
CONTINUOUS
10
76.0669
20
-248.033
11
76.0782
21
-248.029
0
LINE
8
BLACK
6
CONTINUOUS
10
76.0782
20
-248.029
11
76.0929
21
-248.03
0
LINE
8
BLACK
6
CONTINUOUS
10
76.0929
20
-248.03
11
102.095
21
-248.03
0
LINE
8
BLACK
6
CONTINUOUS
10
102.095
20
-248.03
11
102.74
21
-247.292
0
LINE
8
BLACK
6
CONTINUOUS
10
102.74
20
-247.292
11
102.74
21
-179.858
0
LINE
8
BLACK
6
CONTINUOUS
10
102.74
20
-179.858
11
102.483
21
-179.43
0
LINE
8
BLACK
6
CONTINUOUS
10
102.483
20
-179.43
11
101.781
21
-179.43
0
LINE
8
BLACK
6
CONTINUOUS
10
101.781
20
-179.43
11
101.431
21
-179.78
0
LINE
8
BLACK
6
CONTINUOUS
10
101.431
20
-179.78
11
98.44
21
-193.541
0
LINE
8
BLACK
6
CONTINUOUS
10
98.44
20
-193.541
11
98.44
21
-223.939
0
LINE
8
BLACK
6
CONTINUOUS
10
98.44
20
-223.939
11
98.44
21
-223.939
0
LINE
8
BLACK
6
CONTINUOUS
10
98.44
20
-223.939
11
98.44
21
-223.948
0
LINE
8
BLACK
6
CONTINUOUS
10
98.44
20
-223.948
11
98.437
21
-223.956
0
LINE
8
BLACK
6
CONTINUOUS
10
98.437
20
-223.956
11
98.4354
21
-223.965
0
LINE
8
BLACK
6
CONTINUOUS
10
98.4354
20
-223.965
11
98.431
21
-223.972
0
LINE
8
BLACK
6
CONTINUOUS
10
98.431
20
-223.972
11
98.4279
21
-223.981
0
LINE
8
BLACK
6
CONTINUOUS
10
98.4279
20
-223.981
11
98.4222
21
-223.988
0
LINE
8
BLACK
6
CONTINUOUS
10
98.4222
20
-223.988
11
98.4178
21
-223.995
0
LINE
8
BLACK
6
CONTINUOUS
10
98.4178
20
-223.995
11
98.411
21
-224.001
0
LINE
8
BLACK
6
CONTINUOUS
10
98.411
20
-224.001
11
98.4053
21
-224.008
0
LINE
8
BLACK
6
CONTINUOUS
10
98.4053
20
-224.008
11
98.3976
21
-224.012
0
LINE
8
BLACK
6
CONTINUOUS
10
98.3976
20
-224.012
11
98.3908
21
-224.018
0
LINE
8
BLACK
6
CONTINUOUS
10
98.3908
20
-224.018
11
98.3824
21
-224.021
0
LINE
8
BLACK
6
CONTINUOUS
10
98.3824
20
-224.021
11
98.3747
21
-224.025
0
LINE
8
BLACK
6
CONTINUOUS
10
98.3747
20
-224.025
11
98.366
21
-224.027
0
LINE
8
BLACK
6
CONTINUOUS
10
98.366
20
-224.027
11
98.3576
21
-224.03
0
LINE
8
BLACK
6
CONTINUOUS
10
98.3576
20
-224.03
11
98.3488
21
-224.03
0
LINE
8
BLACK
6
CONTINUOUS
10
98.3488
20
-224.03
11
98.3487
21
-224.03
0
LINE
8
BLACK
6
CONTINUOUS
10
98.3487
20
-224.03
11
79.8313
21
-224.03
0
LINE
8
BLACK
6
CONTINUOUS
10
79.8313
20
-224.03
11
79.8312
21
-224.03
0
LINE
8
BLACK
6
CONTINUOUS
10
79.8312
20
-224.03
11
79.8224
21
-224.03
0
LINE
8
BLACK
6
CONTINUOUS
10
79.8224
20
-224.03
11
79.814
21
-224.027
0
LINE
8
BLACK
6
CONTINUOUS
10
79.814
20
-224.027
11
79.8053
21
-224.025
0
LINE
8
BLACK
6
CONTINUOUS
10
79.8053
20
-224.025
11
79.7976
21
-224.021
0
LINE
8
BLACK
6
CONTINUOUS
10
79.7976
20
-224.021
11
79.7892
21
-224.018
0
LINE
8
BLACK
6
CONTINUOUS
10
79.7892
20
-224.018
11
79.7824
21
-224.012
0
LINE
8
BLACK
6
CONTINUOUS
10
79.7824
20
-224.012
11
79.7747
21
-224.008
0
LINE
8
BLACK
6
CONTINUOUS
10
79.7747
20
-224.008
11
79.769
21
-224.001
0
LINE
8
BLACK
6
CONTINUOUS
10
79.769
20
-224.001
11
79.7622
21
-223.995
0
LINE
8
BLACK
6
CONTINUOUS
10
79.7622
20
-223.995
11
79.7578
21
-223.988
0
LINE
8
BLACK
6
CONTINUOUS
10
79.7578
20
-223.988
11
79.7521
21
-223.981
0
LINE
8
BLACK
6
CONTINUOUS
10
79.7521
20
-223.981
11
79.749
21
-223.972
0
LINE
8
BLACK
6
CONTINUOUS
10
79.749
20
-223.972
11
79.7446
21
-223.965
0
LINE
8
BLACK
6
CONTINUOUS
10
79.7446
20
-223.965
11
79.743
21
-223.956
0
LINE
8
BLACK
6
CONTINUOUS
10
79.743
20
-223.956
11
79.74
21
-223.948
0
LINE
8
BLACK
6
CONTINUOUS
10
79.74
20
-223.948
11
79.74
21
-223.939
0
LINE
8
BLACK
6
CONTINUOUS
10
79.74
20
-223.939
11
79.74
21
-223.939
0
LINE
8
BLACK
6
CONTINUOUS
10
79.74
20
-223.939
11
79.74
21
-193.554
0
LINE
8
BLACK
6
CONTINUOUS
10
79.74
20
-193.554
11
72.5784
21
-179.33
0
LINE
8
BLACK
6
CONTINUOUS
10
72.5784
20
-179.33
11
70.1485
21
-179.33
0
LINE
8
BLACK
6
CONTINUOUS
10
70.1485
20
-179.33
11
70.1396
21
-179.332
0
LINE
8
BLACK
6
CONTINUOUS
10
70.1396
20
-179.332
11
70.1225
21
-179.328
0
LINE
8
BLACK
6
CONTINUOUS
10
70.1225
20
-179.328
11
70.1053
21
-179.325
0
LINE
8
BLACK
6
CONTINUOUS
10
70.1053
20
-179.325
11
70.1051
21
-179.325
0
LINE
8
BLACK
6
CONTINUOUS
10
70.1051
20
-179.325
11
70.1049
21
-179.325
0
LINE
8
BLACK
6
CONTINUOUS
10
70.1049
20
-179.325
11
70.0899
21
-179.317
0
LINE
8
BLACK
6
CONTINUOUS
10
70.0899
20
-179.317
11
70.0747
21
-179.308
0
LINE
8
BLACK
6
CONTINUOUS
10
70.0747
20
-179.308
11
70.0689
21
-179.301
0
LINE
8
BLACK
6
CONTINUOUS
10
70.0689
20
-179.301
11
68.7849
21
-178.214
0
LINE
8
BLACK
6
CONTINUOUS
10
68.7849
20
-178.214
11
68.7802
21
-178.212
0
LINE
8
BLACK
6
CONTINUOUS
10
68.7802
20
-178.212
11
68.7715
21
-178.203
0
LINE
8
BLACK
6
CONTINUOUS
10
68.7715
20
-178.203
11
68.7687
21
-178.201
0
LINE
8
BLACK
6
CONTINUOUS
10
68.7687
20
-178.201
11
68.7654
21
-178.197
0
LINE
8
BLACK
6
CONTINUOUS
10
68.7654
20
-178.197
11
68.7557
21
-178.187
0
LINE
8
BLACK
6
CONTINUOUS
10
68.7557
20
-178.187
11
68.7542
21
-178.183
0
LINE
8
BLACK
6
CONTINUOUS
10
68.7542
20
-178.183
11
68.7519
21
-178.18
0
LINE
8
BLACK
6
CONTINUOUS
10
68.7519
20
-178.18
11
68.7471
21
-178.167
0
LINE
8
BLACK
6
CONTINUOUS
10
68.7471
20
-178.167
11
68.745
21
-178.162
0
LINE
8
BLACK
6
CONTINUOUS
10
68.745
20
-178.162
11
68.7442
21
-178.159
0
LINE
8
BLACK
6
CONTINUOUS
10
68.7442
20
-178.159
11
68.7399
21
-178.147
0
LINE
8
BLACK
6
CONTINUOUS
10
68.7399
20
-178.147
11
68.74
21
-178.142
0
LINE
8
BLACK
6
CONTINUOUS
10
68.74
20
-178.142
11
67.9048
21
-174.765
0
LINE
8
BLACK
6
CONTINUOUS
10
67.9048
20
-174.765
11
66.7459
21
-170.282
0
LINE
8
BLACK
6
CONTINUOUS
10
66.7459
20
-170.282
11
65.4997
21
-165.82
0
LINE
8
BLACK
6
CONTINUOUS
10
65.4997
20
-165.82
11
64.166
21
-161.38
0
LINE
8
BLACK
6
CONTINUOUS
10
64.166
20
-161.38
11
62.7451
21
-156.962
0
LINE
8
BLACK
6
CONTINUOUS
10
62.7451
20
-156.962
11
61.2371
21
-152.567
0
LINE
8
BLACK
6
CONTINUOUS
10
61.2371
20
-152.567
11
59.6422
21
-148.199
0
LINE
8
BLACK
6
CONTINUOUS
10
59.6422
20
-148.199
11
57.9604
21
-143.856
0
LINE
8
BLACK
6
CONTINUOUS
10
57.9604
20
-143.856
11
56.1919
21
-139.542
0
LINE
8
BLACK
6
CONTINUOUS
10
56.1919
20
-139.542
11
54.3398
21
-135.263
0
LINE
8
BLACK
6
CONTINUOUS
10
54.3398
20
-135.263
11
54.3397
21
-135.263
0
LINE
8
BLACK
6
CONTINUOUS
10
54.3397
20
-135.263
11
54.3363
21
-135.255
0
LINE
8
BLACK
6
CONTINUOUS
10
54.3363
20
-135.255
11
54.333
21
-135.247
0
LINE
8
BLACK
6
CONTINUOUS
10
54.333
20
-135.247
11
54.3329
21
-135.247
0
LINE
8
BLACK
6
CONTINUOUS
10
54.3329
20
-135.247
11
53.2428
21
-132.686
0
LINE
8
BLACK
6
CONTINUOUS
10
53.2428
20
-132.686
11
53.242
21
-132.685
0
LINE
8
BLACK
6
CONTINUOUS
10
53.242
20
-132.685
11
53.2394
21
-132.678
0
LINE
8
BLACK
6
CONTINUOUS
10
53.2394
20
-132.678
11
53.2366
21
-132.672
0
LINE
8
BLACK
6
CONTINUOUS
10
53.2366
20
-132.672
11
53.2362
21
-132.67
0
LINE
8
BLACK
6
CONTINUOUS
10
53.2362
20
-132.67
11
52.2307
21
-130.086
0
LINE
8
BLACK
6
CONTINUOUS
10
52.2307
20
-130.086
11
52.23
21
-130.084
0
LINE
8
BLACK
6
CONTINUOUS
10
52.23
20
-130.084
11
52.2276
21
-130.077
0
LINE
8
BLACK
6
CONTINUOUS
10
52.2276
20
-130.077
11
52.225
21
-130.071
0
LINE
8
BLACK
6
CONTINUOUS
10
52.225
20
-130.071
11
52.2247
21
-130.069
0
LINE
8
BLACK
6
CONTINUOUS
10
52.2247
20
-130.069
11
51.3041
21
-127.464
0
LINE
8
BLACK
6
CONTINUOUS
10
51.3041
20
-127.464
11
51.3034
21
-127.462
0
LINE
8
BLACK
6
CONTINUOUS
10
51.3034
20
-127.462
11
51.3012
21
-127.455
0
LINE
8
BLACK
6
CONTINUOUS
10
51.3012
20
-127.455
11
51.2988
21
-127.449
0
LINE
8
BLACK
6
CONTINUOUS
10
51.2988
20
-127.449
11
51.2986
21
-127.447
0
LINE
8
BLACK
6
CONTINUOUS
10
51.2986
20
-127.447
11
50.4629
21
-124.822
0
LINE
8
BLACK
6
CONTINUOUS
10
50.4629
20
-124.822
11
50.4622
21
-124.821
0
LINE
8
BLACK
6
CONTINUOUS
10
50.4622
20
-124.821
11
50.4602
21
-124.814
0
LINE
8
BLACK
6
CONTINUOUS
10
50.4602
20
-124.814
11
50.4581
21
-124.807
0
LINE
8
BLACK
6
CONTINUOUS
10
50.4581
20
-124.807
11
50.4578
21
-124.806
0
LINE
8
BLACK
6
CONTINUOUS
10
50.4578
20
-124.806
11
49.7068
21
-122.164
0
LINE
8
BLACK
6
CONTINUOUS
10
49.7068
20
-122.164
11
49.7062
21
-122.163
0
LINE
8
BLACK
6
CONTINUOUS
10
49.7062
20
-122.163
11
49.7044
21
-122.156
0
LINE
8
BLACK
6
CONTINUOUS
10
49.7044
20
-122.156
11
49.7025
21
-122.149
0
LINE
8
BLACK
6
CONTINUOUS
10
49.7025
20
-122.149
11
49.7023
21
-122.147
0
LINE
8
BLACK
6
CONTINUOUS
10
49.7023
20
-122.147
11
49.0358
21
-119.49
0
LINE
8
BLACK
6
CONTINUOUS
10
49.0358
20
-119.49
11
49.0352
21
-119.489
0
LINE
8
BLACK
6
CONTINUOUS
10
49.0352
20
-119.489
11
49.0336
21
-119.482
0
LINE
8
BLACK
6
CONTINUOUS
10
49.0336
20
-119.482
11
49.0319
21
-119.475
0
LINE
8
BLACK
6
CONTINUOUS
10
49.0319
20
-119.475
11
49.0318
21
-119.473
0
LINE
8
BLACK
6
CONTINUOUS
10
49.0318
20
-119.473
11
48.4496
21
-116.803
0
LINE
8
BLACK
6
CONTINUOUS
10
48.4496
20
-116.803
11
48.449
21
-116.802
0
LINE
8
BLACK
6
CONTINUOUS
10
48.449
20
-116.802
11
48.4477
21
-116.795
0
LINE
8
BLACK
6
CONTINUOUS
10
48.4477
20
-116.795
11
48.4462
21
-116.788
0
LINE
8
BLACK
6
CONTINUOUS
10
48.4462
20
-116.788
11
48.4461
21
-116.786
0
LINE
8
BLACK
6
CONTINUOUS
10
48.4461
20
-116.786
11
47.9481
21
-114.105
0
LINE
8
BLACK
6
CONTINUOUS
10
47.9481
20
-114.105
11
47.9476
21
-114.104
0
LINE
8
BLACK
6
CONTINUOUS
10
47.9476
20
-114.104
11
47.9465
21
-114.096
0
LINE
8
BLACK
6
CONTINUOUS
10
47.9465
20
-114.096
11
47.9452
21
-114.089
0
LINE
8
BLACK
6
CONTINUOUS
10
47.9452
20
-114.089
11
47.9452
21
-114.088
0
LINE
8
BLACK
6
CONTINUOUS
10
47.9452
20
-114.088
11
47.5312
21
-111.398
0
LINE
8
BLACK
6
CONTINUOUS
10
47.5312
20
-111.398
11
47.5308
21
-111.396
0
LINE
8
BLACK
6
CONTINUOUS
10
47.5308
20
-111.396
11
47.5299
21
-111.389
0
LINE
8
BLACK
6
CONTINUOUS
10
47.5299
20
-111.389
11
47.5288
21
-111.382
0
LINE
8
BLACK
6
CONTINUOUS
10
47.5288
20
-111.382
11
47.5288
21
-111.38
0
LINE
8
BLACK
6
CONTINUOUS
10
47.5288
20
-111.38
11
47.1987
21
-108.683
0
LINE
8
BLACK
6
CONTINUOUS
10
47.1987
20
-108.683
11
47.1983
21
-108.681
0
LINE
8
BLACK
6
CONTINUOUS
10
47.1983
20
-108.681
11
47.1977
21
-108.674
0
LINE
8
BLACK
6
CONTINUOUS
10
47.1977
20
-108.674
11
47.1968
21
-108.667
0
LINE
8
BLACK
6
CONTINUOUS
10
47.1968
20
-108.667
11
47.1969
21
-108.665
0
LINE
8
BLACK
6
CONTINUOUS
10
47.1969
20
-108.665
11
46.9505
21
-105.962
0
LINE
8
BLACK
6
CONTINUOUS
10
46.9505
20
-105.962
11
46.9501
21
-105.961
0
LINE
8
BLACK
6
CONTINUOUS
10
46.9501
20
-105.961
11
46.9497
21
-105.954
0
LINE
8
BLACK
6
CONTINUOUS
10
46.9497
20
-105.954
11
46.949
21
-105.946
0
LINE
8
BLACK
6
CONTINUOUS
10
46.949
20
-105.946
11
46.9492
21
-105.945
0
LINE
8
BLACK
6
CONTINUOUS
10
46.9492
20
-105.945
11
46.7863
21
-103.239
0
LINE
8
BLACK
6
CONTINUOUS
10
46.7863
20
-103.239
11
46.786
21
-103.237
0
LINE
8
BLACK
6
CONTINUOUS
10
46.786
20
-103.237
11
46.7858
21
-103.23
0
LINE
8
BLACK
6
CONTINUOUS
10
46.7858
20
-103.23
11
46.7854
21
-103.223
0
LINE
8
BLACK
6
CONTINUOUS
10
46.7854
20
-103.223
11
46.7856
21
-103.221
0
LINE
8
BLACK
6
CONTINUOUS
10
46.7856
20
-103.221
11
46.7061
21
-100.514
0
LINE
8
BLACK
6
CONTINUOUS
10
46.7061
20
-100.514
11
46.7059
21
-100.512
0
LINE
8
BLACK
6
CONTINUOUS
10
46.7059
20
-100.512
11
46.7059
21
-100.505
0
LINE
8
BLACK
6
CONTINUOUS
10
46.7059
20
-100.505
11
46.7057
21
-100.498
0
LINE
8
BLACK
6
CONTINUOUS
10
46.7057
20
-100.498
11
46.7059
21
-100.496
0
LINE
8
BLACK
6
CONTINUOUS
10
46.7059
20
-100.496
11
46.7097
21
-97.7891
0
LINE
8
BLACK
6
CONTINUOUS
10
46.7097
20
-97.7891
11
46.7094
21
-97.7876
0
LINE
8
BLACK
6
CONTINUOUS
10
46.7094
20
-97.7876
11
46.7097
21
-97.7804
0
LINE
8
BLACK
6
CONTINUOUS
10
46.7097
20
-97.7804
11
46.7097
21
-97.7732
0
LINE
8
BLACK
6
CONTINUOUS
10
46.7097
20
-97.7732
11
46.71
21
-97.7717
0
LINE
8
BLACK
6
CONTINUOUS
10
46.71
20
-97.7717
11
46.7969
21
-95.0672
0
LINE
8
BLACK
6
CONTINUOUS
10
46.7969
20
-95.0672
11
46.7967
21
-95.0657
0
LINE
8
BLACK
6
CONTINUOUS
10
46.7967
20
-95.0657
11
46.7971
21
-95.0585
0
LINE
8
BLACK
6
CONTINUOUS
10
46.7971
20
-95.0585
11
46.7974
21
-95.0513
0
LINE
8
BLACK
6
CONTINUOUS
10
46.7974
20
-95.0513
11
46.7977
21
-95.0498
0
LINE
8
BLACK
6
CONTINUOUS
10
46.7977
20
-95.0498
11
46.9676
21
-92.3498
0
LINE
8
BLACK
6
CONTINUOUS
10
46.9676
20
-92.3498
11
46.9674
21
-92.3483
0
LINE
8
BLACK
6
CONTINUOUS
10
46.9674
20
-92.3483
11
46.9681
21
-92.3412
0
LINE
8
BLACK
6
CONTINUOUS
10
46.9681
20
-92.3412
11
46.9686
21
-92.3339
0
LINE
8
BLACK
6
CONTINUOUS
10
46.9686
20
-92.3339
11
46.9689
21
-92.3324
0
LINE
8
BLACK
6
CONTINUOUS
10
46.9689
20
-92.3324
11
47.2216
21
-89.639
0
LINE
8
BLACK
6
CONTINUOUS
10
47.2216
20
-89.639
11
47.2215
21
-89.6374
0
LINE
8
BLACK
6
CONTINUOUS
10
47.2215
20
-89.6374
11
47.2224
21
-89.6303
0
LINE
8
BLACK
6
CONTINUOUS
10
47.2224
20
-89.6303
11
47.2231
21
-89.6231
0
LINE
8
BLACK
6
CONTINUOUS
10
47.2231
20
-89.6231
11
47.2235
21
-89.6216
0
LINE
8
BLACK
6
CONTINUOUS
10
47.2235
20
-89.6216
11
47.5587
21
-86.9366
0
LINE
8
BLACK
6
CONTINUOUS
10
47.5587
20
-86.9366
11
47.5587
21
-86.9351
0
LINE
8
BLACK
6
CONTINUOUS
10
47.5587
20
-86.9351
11
47.5598
21
-86.928
0
LINE
8
BLACK
6
CONTINUOUS
10
47.5598
20
-86.928
11
47.5607
21
-86.9208
0
LINE
8
BLACK
6
CONTINUOUS
10
47.5607
20
-86.9208
11
47.5612
21
-86.9193
0
LINE
8
BLACK
6
CONTINUOUS
10
47.5612
20
-86.9193
11
47.9789
21
-84.2447
0
LINE
8
BLACK
6
CONTINUOUS
10
47.9789
20
-84.2447
11
47.979
21
-84.2432
0
LINE
8
BLACK
6
CONTINUOUS
10
47.979
20
-84.2432
11
47.9803
21
-84.2361
0
LINE
8
BLACK
6
CONTINUOUS
10
47.9803
20
-84.2361
11
47.9814
21
-84.229
0
LINE
8
BLACK
6
CONTINUOUS
10
47.9814
20
-84.229
11
47.9819
21
-84.2275
0
LINE
8
BLACK
6
CONTINUOUS
10
47.9819
20
-84.2275
11
48.482
21
-81.5653
0
LINE
8
BLACK
6
CONTINUOUS
10
48.482
20
-81.5653
11
48.4821
21
-81.5638
0
LINE
8
BLACK
6
CONTINUOUS
10
48.4821
20
-81.5638
11
48.4836
21
-81.5568
0
LINE
8
BLACK
6
CONTINUOUS
10
48.4836
20
-81.5568
11
48.4849
21
-81.5497
0
LINE
8
BLACK
6
CONTINUOUS
10
48.4849
20
-81.5497
11
48.4855
21
-81.5482
0
LINE
8
BLACK
6
CONTINUOUS
10
48.4855
20
-81.5482
11
49.0677
21
-78.9003
0
LINE
8
BLACK
6
CONTINUOUS
10
49.0677
20
-78.9003
11
49.0678
21
-78.8988
0
LINE
8
BLACK
6
CONTINUOUS
10
49.0678
20
-78.8988
11
49.0696
21
-78.8918
0
LINE
8
BLACK
6
CONTINUOUS
10
49.0696
20
-78.8918
11
49.0712
21
-78.8848
0
LINE
8
BLACK
6
CONTINUOUS
10
49.0712
20
-78.8848
11
49.0718
21
-78.8833
0
LINE
8
BLACK
6
CONTINUOUS
10
49.0718
20
-78.8833
11
49.736
21
-76.2518
0
LINE
8
BLACK
6
CONTINUOUS
10
49.736
20
-76.2518
11
49.7362
21
-76.2502
0
LINE
8
BLACK
6
CONTINUOUS
10
49.7362
20
-76.2502
11
49.7382
21
-76.2433
0
LINE
8
BLACK
6
CONTINUOUS
10
49.7382
20
-76.2433
11
49.7399
21
-76.2363
0
LINE
8
BLACK
6
CONTINUOUS
10
49.7399
20
-76.2363
11
49.7406
21
-76.2349
0
LINE
8
BLACK
6
CONTINUOUS
10
49.7406
20
-76.2349
11
50.4867
21
-73.6216
0
LINE
8
BLACK
6
CONTINUOUS
10
50.4867
20
-73.6216
11
50.4869
21
-73.62
0
LINE
8
BLACK
6
CONTINUOUS
10
50.4869
20
-73.62
11
50.4891
21
-73.6132
0
LINE
8
BLACK
6
CONTINUOUS
10
50.4891
20
-73.6132
11
50.4911
21
-73.6063
0
LINE
8
BLACK
6
CONTINUOUS
10
50.4911
20
-73.6063
11
50.4918
21
-73.6049
0
LINE
8
BLACK
6
CONTINUOUS
10
50.4918
20
-73.6049
11
51.3197
21
-71.0118
0
LINE
8
BLACK
6
CONTINUOUS
10
51.3197
20
-71.0118
11
51.3199
21
-71.0103
0
LINE
8
BLACK
6
CONTINUOUS
10
51.3199
20
-71.0103
11
51.3223
21
-71.0035
0
LINE
8
BLACK
6
CONTINUOUS
10
51.3223
20
-71.0035
11
51.3245
21
-70.9966
0
LINE
8
BLACK
6
CONTINUOUS
10
51.3245
20
-70.9966
11
51.3252
21
-70.9952
0
LINE
8
BLACK
6
CONTINUOUS
10
51.3252
20
-70.9952
11
52.2347
21
-68.4244
0
LINE
8
BLACK
6
CONTINUOUS
10
52.2347
20
-68.4244
11
52.235
21
-68.4228
0
LINE
8
BLACK
6
CONTINUOUS
10
52.235
20
-68.4228
11
52.2376
21
-68.4161
0
LINE
8
BLACK
6
CONTINUOUS
10
52.2376
20
-68.4161
11
52.24
21
-68.4093
0
LINE
8
BLACK
6
CONTINUOUS
10
52.24
20
-68.4093
11
52.2407
21
-68.408
0
LINE
8
BLACK
6
CONTINUOUS
10
52.2407
20
-68.408
11
53.2316
21
-65.8612
0
LINE
8
BLACK
6
CONTINUOUS
10
53.2316
20
-65.8612
11
53.232
21
-65.8597
0
LINE
8
BLACK
6
CONTINUOUS
10
53.232
20
-65.8597
11
53.2348
21
-65.8531
0
LINE
8
BLACK
6
CONTINUOUS
10
53.2348
20
-65.8531
11
53.2374
21
-65.8464
0
LINE
8
BLACK
6
CONTINUOUS
10
53.2374
20
-65.8464
11
53.2382
21
-65.8451
0
LINE
8
BLACK
6
CONTINUOUS
10
53.2382
20
-65.8451
11
54.3103
21
-63.3245
0
LINE
8
BLACK
6
CONTINUOUS
10
54.3103
20
-63.3245
11
54.3107
21
-63.323
0
LINE
8
BLACK
6
CONTINUOUS
10
54.3107
20
-63.323
11
54.3137
21
-63.3165
0
LINE
8
BLACK
6
CONTINUOUS
10
54.3137
20
-63.3165
11
54.3165
21
-63.3098
0
LINE
8
BLACK
6
CONTINUOUS
10
54.3165
20
-63.3098
11
54.3174
21
-63.3085
0
LINE
8
BLACK
6
CONTINUOUS
10
54.3174
20
-63.3085
11
55.4706
21
-60.816
0
LINE
8
BLACK
6
CONTINUOUS
10
55.4706
20
-60.816
11
55.4711
21
-60.8145
0
LINE
8
BLACK
6
CONTINUOUS
10
55.4711
20
-60.8145
11
55.4743
21
-60.8081
0
LINE
8
BLACK
6
CONTINUOUS
10
55.4743
20
-60.8081
11
55.4773
21
-60.8015
0
LINE
8
BLACK
6
CONTINUOUS
10
55.4773
20
-60.8015
11
55.4782
21
-60.8002
0
LINE
8
BLACK
6
CONTINUOUS
10
55.4782
20
-60.8002
11
56.7124
21
-58.3378
0
LINE
8
BLACK
6
CONTINUOUS
10
56.7124
20
-58.3378
11
56.7129
21
-58.3363
0
LINE
8
BLACK
6
CONTINUOUS
10
56.7129
20
-58.3363
11
56.7163
21
-58.33
0
LINE
8
BLACK
6
CONTINUOUS
10
56.7163
20
-58.33
11
56.7196
21
-58.3236
0
LINE
8
BLACK
6
CONTINUOUS
10
56.7196
20
-58.3236
11
56.7205
21
-58.3223
0
LINE
8
BLACK
6
CONTINUOUS
10
56.7205
20
-58.3223
11
58.0355
21
-55.8918
0
LINE
8
BLACK
6
CONTINUOUS
10
58.0355
20
-55.8918
11
58.0361
21
-55.8904
0
LINE
8
BLACK
6
CONTINUOUS
10
58.0361
20
-55.8904
11
58.0397
21
-55.8842
0
LINE
8
BLACK
6
CONTINUOUS
10
58.0397
20
-55.8842
11
58.0431
21
-55.8778
0
LINE
8
BLACK
6
CONTINUOUS
10
58.0431
20
-55.8778
11
58.0441
21
-55.8766
0
LINE
8
BLACK
6
CONTINUOUS
10
58.0441
20
-55.8766
11
59.4398
21
-53.4801
0
LINE
8
BLACK
6
CONTINUOUS
10
59.4398
20
-53.4801
11
59.4404
21
-53.4787
0
LINE
8
BLACK
6
CONTINUOUS
10
59.4404
20
-53.4787
11
59.4442
21
-53.4726
0
LINE
8
BLACK
6
CONTINUOUS
10
59.4442
20
-53.4726
11
59.4478
21
-53.4664
0
LINE
8
BLACK
6
CONTINUOUS
10
59.4478
20
-53.4664
11
59.4488
21
-53.4652
0
LINE
8
BLACK
6
CONTINUOUS
10
59.4488
20
-53.4652
11
60.9255
21
-51.104
0
LINE
8
BLACK
6
CONTINUOUS
10
60.9255
20
-51.104
11
60.9264
21
-51.1018
0
LINE
8
BLACK
6
CONTINUOUS
10
60.9264
20
-51.1018
11
60.9301
21
-51.0966
0
LINE
8
BLACK
6
CONTINUOUS
10
60.9301
20
-51.0966
11
60.9335
21
-51.0912
0
LINE
8
BLACK
6
CONTINUOUS
10
60.9335
20
-51.0912
11
60.9351
21
-51.0894
0
LINE
8
BLACK
6
CONTINUOUS
10
60.9351
20
-51.0894
11
61.9752
21
-49.5888
0
LINE
8
BLACK
6
CONTINUOUS
10
61.9752
20
-49.5888
11
61.9767
21
-49.586
0
LINE
8
BLACK
6
CONTINUOUS
10
61.9767
20
-49.586
11
61.9802
21
-49.5816
0
LINE
8
BLACK
6
CONTINUOUS
10
61.9802
20
-49.5816
11
61.9833
21
-49.577
0
LINE
8
BLACK
6
CONTINUOUS
10
61.9833
20
-49.577
11
61.9856
21
-49.5748
0
LINE
8
BLACK
6
CONTINUOUS
10
61.9856
20
-49.5748
11
63.0992
21
-48.1675
0
LINE
8
BLACK
6
CONTINUOUS
10
63.0992
20
-48.1675
11
63.1009
21
-48.1649
0
LINE
8
BLACK
6
CONTINUOUS
10
63.1009
20
-48.1649
11
63.1046
21
-48.1607
0
LINE
8
BLACK
6
CONTINUOUS
10
63.1046
20
-48.1607
11
63.1081
21
-48.1563
0
LINE
8
BLACK
6
CONTINUOUS
10
63.1081
20
-48.1563
11
63.1105
21
-48.1542
0
LINE
8
BLACK
6
CONTINUOUS
10
63.1105
20
-48.1542
11
64.2924
21
-46.8411
0
LINE
8
BLACK
6
CONTINUOUS
10
64.2924
20
-46.8411
11
64.2942
21
-46.8385
0
LINE
8
BLACK
6
CONTINUOUS
10
64.2942
20
-46.8385
11
64.2982
21
-46.8346
0
LINE
8
BLACK
6
CONTINUOUS
10
64.2982
20
-46.8346
11
64.3019
21
-46.8305
0
LINE
8
BLACK
6
CONTINUOUS
10
64.3019
20
-46.8305
11
64.3044
21
-46.8285
0
LINE
8
BLACK
6
CONTINUOUS
10
64.3044
20
-46.8285
11
65.5499
21
-45.6096
0
LINE
8
BLACK
6
CONTINUOUS
10
65.5499
20
-45.6096
11
65.5519
21
-45.6071
0
LINE
8
BLACK
6
CONTINUOUS
10
65.5519
20
-45.6071
11
65.5561
21
-45.6035
0
LINE
8
BLACK
6
CONTINUOUS
10
65.5561
20
-45.6035
11
65.5601
21
-45.5996
0
LINE
8
BLACK
6
CONTINUOUS
10
65.5601
20
-45.5996
11
65.5627
21
-45.5978
0
LINE
8
BLACK
6
CONTINUOUS
10
65.5627
20
-45.5978
11
66.8669
21
-44.4731
0
LINE
8
BLACK
6
CONTINUOUS
10
66.8669
20
-44.4731
11
66.869
21
-44.4708
0
LINE
8
BLACK
6
CONTINUOUS
10
66.869
20
-44.4708
11
66.8735
21
-44.4674
0
LINE
8
BLACK
6
CONTINUOUS
10
66.8735
20
-44.4674
11
66.8778
21
-44.4637
0
LINE
8
BLACK
6
CONTINUOUS
10
66.8778
20
-44.4637
11
66.8805
21
-44.4621
0
LINE
8
BLACK
6
CONTINUOUS
10
66.8805
20
-44.4621
11
68.2387
21
-43.4318
0
LINE
8
BLACK
6
CONTINUOUS
10
68.2387
20
-43.4318
11
68.241
21
-43.4296
0
LINE
8
BLACK
6
CONTINUOUS
10
68.241
20
-43.4296
11
68.2456
21
-43.4265
0
LINE
8
BLACK
6
CONTINUOUS
10
68.2456
20
-43.4265
11
68.2501
21
-43.4231
0
LINE
8
BLACK
6
CONTINUOUS
10
68.2501
20
-43.4231
11
68.2529
21
-43.4217
0
LINE
8
BLACK
6
CONTINUOUS
10
68.2529
20
-43.4217
11
69.6604
21
-42.4857
0
LINE
8
BLACK
6
CONTINUOUS
10
69.6604
20
-42.4857
11
69.6628
21
-42.4838
0
LINE
8
BLACK
6
CONTINUOUS
10
69.6628
20
-42.4838
11
69.6677
21
-42.4809
0
LINE
8
BLACK
6
CONTINUOUS
10
69.6677
20
-42.4809
11
69.6724
21
-42.4778
0
LINE
8
BLACK
6
CONTINUOUS
10
69.6724
20
-42.4778
11
69.6753
21
-42.4765
0
LINE
8
BLACK
6
CONTINUOUS
10
69.6753
20
-42.4765
11
71.1273
21
-41.6351
0
LINE
8
BLACK
6
CONTINUOUS
10
71.1273
20
-41.6351
11
71.1298
21
-41.6333
0
LINE
8
BLACK
6
CONTINUOUS
10
71.1298
20
-41.6333
11
71.1349
21
-41.6307
0
LINE
8
BLACK
6
CONTINUOUS
10
71.1349
20
-41.6307
11
71.1398
21
-41.6279
0
LINE
8
BLACK
6
CONTINUOUS
10
71.1398
20
-41.6279
11
71.1427
21
-41.6268
0
LINE
8
BLACK
6
CONTINUOUS
10
71.1427
20
-41.6268
11
72.6345
21
-40.88
0
LINE
8
BLACK
6
CONTINUOUS
10
72.6345
20
-40.88
11
72.6371
21
-40.8783
0
LINE
8
BLACK
6
CONTINUOUS
10
72.6371
20
-40.8783
11
72.6424
21
-40.8761
0
LINE
8
BLACK
6
CONTINUOUS
10
72.6424
20
-40.8761
11
72.6475
21
-40.8735
0
LINE
8
BLACK
6
CONTINUOUS
10
72.6475
20
-40.8735
11
72.6504
21
-40.8727
0
LINE
8
BLACK
6
CONTINUOUS
10
72.6504
20
-40.8727
11
74.1773
21
-40.2205
0
LINE
8
BLACK
6
CONTINUOUS
10
74.1773
20
-40.2205
11
74.18
21
-40.219
0
LINE
8
BLACK
6
CONTINUOUS
10
74.18
20
-40.219
11
74.1854
21
-40.2171
0
LINE
8
BLACK
6
CONTINUOUS
10
74.1854
20
-40.2171
11
74.1907
21
-40.2148
0
LINE
8
BLACK
6
CONTINUOUS
10
74.1907
20
-40.2148
11
74.1936
21
-40.2141
0
LINE
8
BLACK
6
CONTINUOUS
10
74.1936
20
-40.2141
11
75.7509
21
-39.6567
0
LINE
8
BLACK
6
CONTINUOUS
10
75.7509
20
-39.6567
11
75.7536
21
-39.6554
0
LINE
8
BLACK
6
CONTINUOUS
10
75.7536
20
-39.6554
11
75.7591
21
-39.6537
0
LINE
8
BLACK
6
CONTINUOUS
10
75.7591
20
-39.6537
11
75.7646
21
-39.6518
0
LINE
8
BLACK
6
CONTINUOUS
10
75.7646
20
-39.6518
11
75.7675
21
-39.6513
0
LINE
8
BLACK
6
CONTINUOUS
10
75.7675
20
-39.6513
11
77.3504
21
-39.1887
0
LINE
8
BLACK
6
CONTINUOUS
10
77.3504
20
-39.1887
11
77.3532
21
-39.1875
0
LINE
8
BLACK
6
CONTINUOUS
10
77.3532
20
-39.1875
11
77.3588
21
-39.1862
0
LINE
8
BLACK
6
CONTINUOUS
10
77.3588
20
-39.1862
11
77.3644
21
-39.1846
0
LINE
8
BLACK
6
CONTINUOUS
10
77.3644
20
-39.1846
11
77.3673
21
-39.1843
0
LINE
8
BLACK
6
CONTINUOUS
10
77.3673
20
-39.1843
11
78.9712
21
-38.8166
0
LINE
8
BLACK
6
CONTINUOUS
10
78.9712
20
-38.8166
11
78.9739
21
-38.8156
0
LINE
8
BLACK
6
CONTINUOUS
10
78.9739
20
-38.8156
11
78.9797
21
-38.8146
0
LINE
8
BLACK
6
CONTINUOUS
10
78.9797
20
-38.8146
11
78.9853
21
-38.8133
0
LINE
8
BLACK
6
CONTINUOUS
10
78.9853
20
-38.8133
11
78.9883
21
-38.8132
0
LINE
8
BLACK
6
CONTINUOUS
10
78.9883
20
-38.8132
11
80.6083
21
-38.5405
0
LINE
8
BLACK
6
CONTINUOUS
10
80.6083
20
-38.5405
11
80.6111
21
-38.5397
0
LINE
8
BLACK
6
CONTINUOUS
10
80.6111
20
-38.5397
11
80.6169
21
-38.5391
0
LINE
8
BLACK
6
CONTINUOUS
10
80.6169
20
-38.5391
11
80.6227
21
-38.5381
0
LINE
8
BLACK
6
CONTINUOUS
10
80.6227
20
-38.5381
11
80.6256
21
-38.5381
0
LINE
8
BLACK
6
CONTINUOUS
10
80.6256
20
-38.5381
11
82.2571
21
-38.3605
0
LINE
8
BLACK
6
CONTINUOUS
10
82.2571
20
-38.3605
11
82.2599
21
-38.3599
0
LINE
8
BLACK
6
CONTINUOUS
10
82.2599
20
-38.3599
11
82.2658
21
-38.3596
0
LINE
8
BLACK
6
CONTINUOUS
10
82.2658
20
-38.3596
11
82.2716
21
-38.359
0
LINE
8
BLACK
6
CONTINUOUS
10
82.2716
20
-38.359
11
82.2745
21
-38.3592
0
LINE
8
BLACK
6
CONTINUOUS
10
82.2745
20
-38.3592
11
83.9127
21
-38.2768
0
LINE
8
BLACK
6
CONTINUOUS
10
83.9127
20
-38.2768
11
83.9156
21
-38.2763
0
LINE
8
BLACK
6
CONTINUOUS
10
83.9156
20
-38.2763
11
83.9214
21
-38.2763
0
LINE
8
BLACK
6
CONTINUOUS
10
83.9214
20
-38.2763
11
83.9273
21
-38.276
0
LINE
8
BLACK
6
CONTINUOUS
10
83.9273
20
-38.276
11
83.9302
21
-38.2764
0
LINE
8
BLACK
6
CONTINUOUS
10
82.2816
20
-38.5591
11
80.6444
21
-38.7373
0
LINE
8
BLACK
6
CONTINUOUS
10
80.6444
20
-38.7373
11
79.0187
21
-39.0109
0
LINE
8
BLACK
6
CONTINUOUS
10
79.0187
20
-39.0109
11
77.4093
21
-39.3799
0
LINE
8
BLACK
6
CONTINUOUS
10
77.4093
20
-39.3799
11
75.8209
21
-39.844
0
LINE
8
BLACK
6
CONTINUOUS
10
75.8209
20
-39.844
11
74.2584
21
-40.4033
0
LINE
8
BLACK
6
CONTINUOUS
10
74.2584
20
-40.4033
11
72.7265
21
-41.0576
0
LINE
8
BLACK
6
CONTINUOUS
10
72.7265
20
-41.0576
11
71.2299
21
-41.8068
0
LINE
8
BLACK
6
CONTINUOUS
10
71.2299
20
-41.8068
11
69.7733
21
-42.6509
0
LINE
8
BLACK
6
CONTINUOUS
10
69.7733
20
-42.6509
11
68.3616
21
-43.5896
0
LINE
8
BLACK
6
CONTINUOUS
10
68.3616
20
-43.5896
11
66.9994
21
-44.6229
0
LINE
8
BLACK
6
CONTINUOUS
10
66.9994
20
-44.6229
11
65.6915
21
-45.7508
0
LINE
8
BLACK
6
CONTINUOUS
10
65.6915
20
-45.7508
11
64.4426
21
-46.9731
0
LINE
8
BLACK
6
CONTINUOUS
10
64.4426
20
-46.9731
11
63.2575
21
-48.2898
0
LINE
8
BLACK
6
CONTINUOUS
10
63.2575
20
-48.2898
11
62.1409
21
-49.7008
0
LINE
8
BLACK
6
CONTINUOUS
10
62.1409
20
-49.7008
11
61.0972
21
-51.2066
0
LINE
8
BLACK
6
CONTINUOUS
10
61.0972
20
-51.2066
11
59.6154
21
-53.5759
0
LINE
8
BLACK
6
CONTINUOUS
10
59.6154
20
-53.5759
11
58.2141
21
-55.9821
0
LINE
8
BLACK
6
CONTINUOUS
10
58.2141
20
-55.9821
11
56.8938
21
-58.4224
0
LINE
8
BLACK
6
CONTINUOUS
10
56.8938
20
-58.4224
11
55.6545
21
-60.8949
0
LINE
8
BLACK
6
CONTINUOUS
10
55.6545
20
-60.8949
11
54.4966
21
-63.3976
0
LINE
8
BLACK
6
CONTINUOUS
10
54.4966
20
-63.3976
11
53.42
21
-65.9285
0
LINE
8
BLACK
6
CONTINUOUS
10
53.42
20
-65.9285
11
52.4251
21
-68.4857
0
LINE
8
BLACK
6
CONTINUOUS
10
52.4251
20
-68.4857
11
51.5119
21
-71.0672
0
LINE
8
BLACK
6
CONTINUOUS
10
51.5119
20
-71.0672
11
50.6806
21
-73.6711
0
LINE
8
BLACK
6
CONTINUOUS
10
50.6806
20
-73.6711
11
49.9313
21
-76.2952
0
LINE
8
BLACK
6
CONTINUOUS
10
49.9313
20
-76.2952
11
49.2643
21
-78.9378
0
LINE
8
BLACK
6
CONTINUOUS
10
49.2643
20
-78.9378
11
48.6796
21
-81.5967
0
LINE
8
BLACK
6
CONTINUOUS
10
48.6796
20
-81.5967
11
48.1774
21
-84.27
0
LINE
8
BLACK
6
CONTINUOUS
10
48.1774
20
-84.27
11
47.7579
21
-86.9558
0
LINE
8
BLACK
6
CONTINUOUS
10
47.7579
20
-86.9558
11
47.4212
21
-89.652
0
LINE
8
BLACK
6
CONTINUOUS
10
47.4212
20
-89.652
11
47.1675
21
-92.3568
0
LINE
8
BLACK
6
CONTINUOUS
10
47.1675
20
-92.3568
11
46.9969
21
-95.068
0
LINE
8
BLACK
6
CONTINUOUS
10
46.9969
20
-95.068
11
46.9097
21
-97.7837
0
LINE
8
BLACK
6
CONTINUOUS
10
46.9097
20
-97.7837
11
46.9059
21
-100.502
0
LINE
8
BLACK
6
CONTINUOUS
10
46.9059
20
-100.502
11
46.9856
21
-103.221
0
LINE
8
BLACK
6
CONTINUOUS
10
46.9856
20
-103.221
11
47.1491
21
-105.939
0
LINE
8
BLACK
6
CONTINUOUS
10
47.1491
20
-105.939
11
47.3966
21
-108.653
0
LINE
8
BLACK
6
CONTINUOUS
10
47.3966
20
-108.653
11
47.728
21
-111.362
0
LINE
8
BLACK
6
CONTINUOUS
10
47.728
20
-111.362
11
48.1437
21
-114.063
0
LINE
8
BLACK
6
CONTINUOUS
10
48.1437
20
-114.063
11
48.6438
21
-116.755
0
LINE
8
BLACK
6
CONTINUOUS
10
48.6438
20
-116.755
11
49.2284
21
-119.436
0
LINE
8
BLACK
6
CONTINUOUS
10
49.2284
20
-119.436
11
49.8977
21
-122.104
0
LINE
8
BLACK
6
CONTINUOUS
10
49.8977
20
-122.104
11
50.6518
21
-124.756
0
LINE
8
BLACK
6
CONTINUOUS
10
50.6518
20
-124.756
11
51.4909
21
-127.392
0
LINE
8
BLACK
6
CONTINUOUS
10
51.4909
20
-127.392
11
52.4151
21
-130.008
0
LINE
8
BLACK
6
CONTINUOUS
10
52.4151
20
-130.008
11
53.4246
21
-132.603
0
LINE
8
BLACK
6
CONTINUOUS
10
53.4246
20
-132.603
11
54.5202
21
-135.176
0
LINE
8
BLACK
6
CONTINUOUS
10
54.5202
20
-135.176
11
56.3727
21
-139.456
0
LINE
8
BLACK
6
CONTINUOUS
10
56.3727
20
-139.456
11
56.3732
21
-139.457
0
LINE
8
BLACK
6
CONTINUOUS
10
56.3732
20
-139.457
11
56.3762
21
-139.464
0
LINE
8
BLACK
6
CONTINUOUS
10
56.3762
20
-139.464
11
56.3793
21
-139.471
0
LINE
8
BLACK
6
CONTINUOUS
10
56.3793
20
-139.471
11
56.3795
21
-139.472
0
LINE
8
BLACK
6
CONTINUOUS
10
56.3795
20
-139.472
11
58.1428
21
-143.774
0
LINE
8
BLACK
6
CONTINUOUS
10
58.1428
20
-143.774
11
58.1433
21
-143.775
0
LINE
8
BLACK
6
CONTINUOUS
10
58.1433
20
-143.775
11
58.1461
21
-143.782
0
LINE
8
BLACK
6
CONTINUOUS
10
58.1461
20
-143.782
11
58.1491
21
-143.789
0
LINE
8
BLACK
6
CONTINUOUS
10
58.1491
20
-143.789
11
58.1493
21
-143.79
0
LINE
8
BLACK
6
CONTINUOUS
10
58.1493
20
-143.79
11
59.8262
21
-148.12
0
LINE
8
BLACK
6
CONTINUOUS
10
59.8262
20
-148.12
11
59.8267
21
-148.121
0
LINE
8
BLACK
6
CONTINUOUS
10
59.8267
20
-148.121
11
59.8293
21
-148.128
0
LINE
8
BLACK
6
CONTINUOUS
10
59.8293
20
-148.128
11
59.8321
21
-148.135
0
LINE
8
BLACK
6
CONTINUOUS
10
59.8321
20
-148.135
11
59.8323
21
-148.136
0
LINE
8
BLACK
6
CONTINUOUS
10
59.8323
20
-148.136
11
61.4226
21
-152.492
0
LINE
8
BLACK
6
CONTINUOUS
10
61.4226
20
-152.492
11
61.4231
21
-152.493
0
LINE
8
BLACK
6
CONTINUOUS
10
61.4231
20
-152.493
11
61.4256
21
-152.501
0
LINE
8
BLACK
6
CONTINUOUS
10
61.4256
20
-152.501
11
61.4283
21
-152.508
0
LINE
8
BLACK
6
CONTINUOUS
10
61.4283
20
-152.508
11
61.4285
21
-152.509
0
LINE
8
BLACK
6
CONTINUOUS
10
61.4285
20
-152.509
11
62.9321
21
-156.89
0
LINE
8
BLACK
6
CONTINUOUS
10
62.9321
20
-156.89
11
62.9325
21
-156.891
0
LINE
8
BLACK
6
CONTINUOUS
10
62.9325
20
-156.891
11
62.9349
21
-156.898
0
LINE
8
BLACK
6
CONTINUOUS
10
62.9349
20
-156.898
11
62.9374
21
-156.906
0
LINE
8
BLACK
6
CONTINUOUS
10
62.9374
20
-156.906
11
62.9376
21
-156.907
0
LINE
8
BLACK
6
CONTINUOUS
10
62.9376
20
-156.907
11
64.3543
21
-161.312
0
LINE
8
BLACK
6
CONTINUOUS
10
64.3543
20
-161.312
11
64.3547
21
-161.313
0
LINE
8
BLACK
6
CONTINUOUS
10
64.3547
20
-161.313
11
64.357
21
-161.32
0
LINE
8
BLACK
6
CONTINUOUS
10
64.357
20
-161.32
11
64.3594
21
-161.328
0
LINE
8
BLACK
6
CONTINUOUS
10
64.3594
20
-161.328
11
64.3595
21
-161.329
0
LINE
8
BLACK
6
CONTINUOUS
10
64.3595
20
-161.329
11
65.6892
21
-165.756
0
LINE
8
BLACK
6
CONTINUOUS
10
65.6892
20
-165.756
11
65.6897
21
-165.757
0
LINE
8
BLACK
6
CONTINUOUS
10
65.6897
20
-165.757
11
65.6917
21
-165.765
0
LINE
8
BLACK
6
CONTINUOUS
10
65.6917
20
-165.765
11
65.694
21
-165.772
0
LINE
8
BLACK
6
CONTINUOUS
10
65.694
20
-165.772
11
65.6941
21
-165.773
0
LINE
8
BLACK
6
CONTINUOUS
10
65.6941
20
-165.773
11
66.9367
21
-170.222
0
LINE
8
BLACK
6
CONTINUOUS
10
66.9367
20
-170.222
11
66.9371
21
-170.223
0
LINE
8
BLACK
6
CONTINUOUS
10
66.9371
20
-170.223
11
66.939
21
-170.23
0
LINE
8
BLACK
6
CONTINUOUS
10
66.939
20
-170.23
11
66.9411
21
-170.238
0
LINE
8
BLACK
6
CONTINUOUS
10
66.9411
20
-170.238
11
66.9412
21
-170.239
0
LINE
8
BLACK
6
CONTINUOUS
10
66.9412
20
-170.239
11
68.0965
21
-174.707
0
LINE
8
BLACK
6
CONTINUOUS
10
68.0965
20
-174.707
11
68.0967
21
-174.708
0
LINE
8
BLACK
6
CONTINUOUS
10
68.0967
20
-174.708
11
68.0986
21
-174.716
0
LINE
8
BLACK
6
CONTINUOUS
10
68.0986
20
-174.716
11
68.1007
21
-174.723
0
LINE
8
BLACK
6
CONTINUOUS
10
68.1007
20
-174.723
11
68.1007
21
-174.724
0
LINE
8
BLACK
6
CONTINUOUS
10
68.1007
20
-174.724
11
68.9293
21
-178.075
0
LINE
8
BLACK
6
CONTINUOUS
10
68.9293
20
-178.075
11
70.1766
21
-179.13
0
LINE
8
BLACK
6
CONTINUOUS
10
70.1766
20
-179.13
11
72.6341
21
-179.13
0
LINE
8
BLACK
6
CONTINUOUS
10
72.6341
20
-179.13
11
72.6458
21
-179.129
0
LINE
8
BLACK
6
CONTINUOUS
10
72.6458
20
-179.129
11
72.6602
21
-179.132
0
LINE
8
BLACK
6
CONTINUOUS
10
72.6602
20
-179.132
11
72.6747
21
-179.135
0
LINE
8
BLACK
6
CONTINUOUS
10
72.6747
20
-179.135
11
72.6773
21
-179.136
0
LINE
8
BLACK
6
CONTINUOUS
10
72.6773
20
-179.136
11
72.6801
21
-179.137
0
LINE
8
BLACK
6
CONTINUOUS
10
72.6801
20
-179.137
11
72.6925
21
-179.145
0
LINE
8
BLACK
6
CONTINUOUS
10
72.6925
20
-179.145
11
72.7053
21
-179.152
0
LINE
8
BLACK
6
CONTINUOUS
10
72.7053
20
-179.152
11
72.7072
21
-179.154
0
LINE
8
BLACK
6
CONTINUOUS
10
72.7072
20
-179.154
11
72.7096
21
-179.156
0
LINE
8
BLACK
6
CONTINUOUS
10
72.7096
20
-179.156
11
72.7184
21
-179.168
0
LINE
8
BLACK
6
CONTINUOUS
10
72.7184
20
-179.168
11
72.7279
21
-179.179
0
LINE
8
BLACK
6
CONTINUOUS
10
72.7279
20
-179.179
11
72.732
21
-179.19
0
LINE
8
BLACK
6
CONTINUOUS
10
72.732
20
-179.19
11
79.928
21
-193.482
0
LINE
8
BLACK
6
CONTINUOUS
10
79.928
20
-193.482
11
79.9354
21
-193.495
0
LINE
8
BLACK
6
CONTINUOUS
10
79.9354
20
-193.495
11
79.9375
21
-193.507
0
LINE
8
BLACK
6
CONTINUOUS
10
79.9375
20
-193.507
11
79.9408
21
-193.518
0
LINE
8
BLACK
6
CONTINUOUS
10
79.9408
20
-193.518
11
79.94
21
-193.533
0
LINE
8
BLACK
6
CONTINUOUS
10
79.94
20
-193.533
11
79.94
21
-223.83
0
LINE
8
BLACK
6
CONTINUOUS
10
79.94
20
-223.83
11
98.24
21
-223.83
0
LINE
8
BLACK
6
CONTINUOUS
10
98.24
20
-223.83
11
98.24
21
-193.546
0
LINE
8
BLACK
6
CONTINUOUS
10
98.24
20
-193.546
11
98.2394
21
-193.544
0
LINE
8
BLACK
6
CONTINUOUS
10
98.2394
20
-193.544
11
98.24
21
-193.528
0
LINE
8
BLACK
6
CONTINUOUS
10
98.24
20
-193.528
11
98.24
21
-193.521
0
LINE
8
BLACK
6
CONTINUOUS
10
98.24
20
-193.521
11
98.2403
21
-193.519
0
LINE
8
BLACK
6
CONTINUOUS
10
98.2403
20
-193.519
11
98.2404
21
-193.517
0
LINE
8
BLACK
6
CONTINUOUS
10
98.2404
20
-193.517
11
98.2419
21
-193.511
0
LINE
8
BLACK
6
CONTINUOUS
10
98.2419
20
-193.511
11
98.2446
21
-193.495
0
LINE
8
BLACK
6
CONTINUOUS
10
98.2446
20
-193.495
11
98.2456
21
-193.494
0
LINE
8
BLACK
6
CONTINUOUS
10
98.2456
20
-193.494
11
101.239
21
-179.724
0
LINE
8
BLACK
6
CONTINUOUS
10
101.239
20
-179.724
11
101.239
21
-179.721
0
LINE
8
BLACK
6
CONTINUOUS
10
101.239
20
-179.721
11
101.243
21
-179.706
0
LINE
8
BLACK
6
CONTINUOUS
10
101.243
20
-179.706
11
101.244
21
-179.7
0
LINE
8
BLACK
6
CONTINUOUS
10
101.244
20
-179.7
11
101.245
21
-179.698
0
LINE
8
BLACK
6
CONTINUOUS
10
101.245
20
-179.698
11
101.248
21
-179.687
0
LINE
8
BLACK
6
CONTINUOUS
10
101.248
20
-179.687
11
101.252
21
-179.682
0
LINE
8
BLACK
6
CONTINUOUS
10
101.252
20
-179.682
11
101.254
21
-179.676
0
LINE
8
BLACK
6
CONTINUOUS
10
101.254
20
-179.676
11
101.262
21
-179.667
0
LINE
8
BLACK
6
CONTINUOUS
10
101.262
20
-179.667
11
101.263
21
-179.665
0
LINE
8
BLACK
6
CONTINUOUS
10
101.263
20
-179.665
11
101.268
21
-179.661
0
LINE
8
BLACK
6
CONTINUOUS
10
101.268
20
-179.661
11
101.278
21
-179.65
0
LINE
8
BLACK
6
CONTINUOUS
10
101.278
20
-179.65
11
101.28
21
-179.649
0
LINE
8
BLACK
6
CONTINUOUS
10
101.28
20
-179.649
11
101.666
21
-179.262
0
LINE
8
BLACK
6
CONTINUOUS
10
101.666
20
-179.262
11
101.675
21
-179.252
0
LINE
8
BLACK
6
CONTINUOUS
10
101.675
20
-179.252
11
101.686
21
-179.246
0
LINE
8
BLACK
6
CONTINUOUS
10
101.686
20
-179.246
11
101.697
21
-179.238
0
LINE
8
BLACK
6
CONTINUOUS
10
101.697
20
-179.238
11
101.701
21
-179.237
0
LINE
8
BLACK
6
CONTINUOUS
10
101.701
20
-179.237
11
101.705
21
-179.235
0
LINE
8
BLACK
6
CONTINUOUS
10
101.705
20
-179.235
11
101.718
21
-179.232
0
LINE
8
BLACK
6
CONTINUOUS
10
101.718
20
-179.232
11
101.731
21
-179.229
0
LINE
8
BLACK
6
CONTINUOUS
10
101.731
20
-179.229
11
101.744
21
-179.23
0
LINE
8
BLACK
6
CONTINUOUS
10
101.744
20
-179.23
11
102.53
21
-179.23
0
LINE
8
BLACK
6
CONTINUOUS
10
102.53
20
-179.23
11
102.538
21
-179.228
0
LINE
8
BLACK
6
CONTINUOUS
10
102.538
20
-179.228
11
102.548
21
-179.23
0
LINE
8
BLACK
6
CONTINUOUS
10
102.548
20
-179.23
11
102.549
21
-179.23
0
LINE
8
BLACK
6
CONTINUOUS
10
102.549
20
-179.23
11
102.557
21
-179.231
0
LINE
8
BLACK
6
CONTINUOUS
10
102.557
20
-179.231
11
102.573
21
-179.234
0
LINE
8
BLACK
6
CONTINUOUS
10
102.573
20
-179.234
11
102.574
21
-179.234
0
LINE
8
BLACK
6
CONTINUOUS
10
102.574
20
-179.234
11
102.575
21
-179.235
0
LINE
8
BLACK
6
CONTINUOUS
10
102.575
20
-179.235
11
102.589
21
-179.243
0
LINE
8
BLACK
6
CONTINUOUS
10
102.589
20
-179.243
11
102.604
21
-179.251
0
LINE
8
BLACK
6
CONTINUOUS
10
102.604
20
-179.251
11
102.605
21
-179.252
0
LINE
8
BLACK
6
CONTINUOUS
10
102.605
20
-179.252
11
102.605
21
-179.252
0
LINE
8
BLACK
6
CONTINUOUS
10
102.605
20
-179.252
11
102.616
21
-179.265
0
LINE
8
BLACK
6
CONTINUOUS
10
102.616
20
-179.265
11
102.621
21
-179.271
0
LINE
8
BLACK
6
CONTINUOUS
10
102.621
20
-179.271
11
102.622
21
-179.272
0
LINE
8
BLACK
6
CONTINUOUS
10
102.622
20
-179.272
11
102.628
21
-179.279
0
LINE
8
BLACK
6
CONTINUOUS
10
102.628
20
-179.279
11
102.631
21
-179.287
0
LINE
8
BLACK
6
CONTINUOUS
10
102.631
20
-179.287
11
102.917
21
-179.764
0
LINE
8
BLACK
6
CONTINUOUS
10
102.917
20
-179.764
11
102.918
21
-179.765
0
LINE
8
BLACK
6
CONTINUOUS
10
102.918
20
-179.765
11
102.926
21
-179.779
0
LINE
8
BLACK
6
CONTINUOUS
10
102.926
20
-179.779
11
102.93
21
-179.786
0
LINE
8
BLACK
6
CONTINUOUS
10
102.93
20
-179.786
11
102.931
21
-179.787
0
LINE
8
BLACK
6
CONTINUOUS
10
102.931
20
-179.787
11
102.935
21
-179.795
0
LINE
8
BLACK
6
CONTINUOUS
10
102.935
20
-179.795
11
102.937
21
-179.803
0
LINE
8
BLACK
6
CONTINUOUS
10
102.937
20
-179.803
11
102.94
21
-179.811
0
LINE
8
BLACK
6
CONTINUOUS
10
102.94
20
-179.811
11
102.94
21
-179.82
0
LINE
8
BLACK
6
CONTINUOUS
10
102.94
20
-179.82
11
102.94
21
-179.821
0
LINE
8
BLACK
6
CONTINUOUS
10
102.94
20
-179.821
11
102.94
21
-179.829
0
LINE
8
BLACK
6
CONTINUOUS
10
102.94
20
-179.829
11
102.94
21
-179.846
0
LINE
8
BLACK
6
CONTINUOUS
10
102.94
20
-179.846
11
102.94
21
-179.847
0
LINE
8
BLACK
6
CONTINUOUS
10
102.94
20
-179.847
11
102.94
21
-247.322
0
LINE
8
BLACK
6
CONTINUOUS
10
102.94
20
-247.322
11
102.942
21
-247.332
0
LINE
8
BLACK
6
CONTINUOUS
10
102.942
20
-247.332
11
102.938
21
-247.348
0
LINE
8
BLACK
6
CONTINUOUS
10
102.938
20
-247.348
11
102.935
21
-247.365
0
LINE
8
BLACK
6
CONTINUOUS
10
102.935
20
-247.365
11
102.935
21
-247.366
0
LINE
8
BLACK
6
CONTINUOUS
10
102.935
20
-247.366
11
102.935
21
-247.367
0
LINE
8
BLACK
6
CONTINUOUS
10
102.935
20
-247.367
11
102.926
21
-247.381
0
LINE
8
BLACK
6
CONTINUOUS
10
102.926
20
-247.381
11
102.918
21
-247.395
0
LINE
8
BLACK
6
CONTINUOUS
10
102.918
20
-247.395
11
102.91
21
-247.402
0
LINE
8
BLACK
6
CONTINUOUS
10
102.91
20
-247.402
11
102.216
21
-248.195
0
LINE
8
BLACK
6
CONTINUOUS
10
102.216
20
-248.195
11
102.205
21
-248.208
0
LINE
8
BLACK
6
CONTINUOUS
10
102.205
20
-248.208
11
102.197
21
-248.213
0
LINE
8
BLACK
6
CONTINUOUS
10
102.197
20
-248.213
11
102.189
21
-248.219
0
LINE
8
BLACK
6
CONTINUOUS
10
102.189
20
-248.219
11
102.182
21
-248.221
0
LINE
8
BLACK
6
CONTINUOUS
10
102.182
20
-248.221
11
102.175
21
-248.225
0
LINE
8
BLACK
6
CONTINUOUS
10
102.175
20
-248.225
11
102.165
21
-248.227
0
LINE
8
BLACK
6
CONTINUOUS
10
102.165
20
-248.227
11
102.156
21
-248.23
0
LINE
8
BLACK
6
CONTINUOUS
10
102.156
20
-248.23
11
102.139
21
-248.23
0
LINE
8
BLACK
6
CONTINUOUS
10
102.139
20
-248.23
11
76.1332
21
-248.23
0
LINE
8
BLACK
6
CONTINUOUS
10
76.1332
20
-248.23
11
74.5364
21
-249.924
0
LINE
8
BLACK
6
CONTINUOUS
10
74.5364
20
-249.924
11
74.2746
21
-252.769
0
LINE
8
BLACK
6
CONTINUOUS
10
74.2746
20
-252.769
11
74.2746
21
-252.769
0
LINE
8
BLACK
6
CONTINUOUS
10
74.2746
20
-252.769
11
74.2738
21
-252.778
0
LINE
8
BLACK
6
CONTINUOUS
10
74.2738
20
-252.778
11
74.273
21
-252.786
0
LINE
8
BLACK
6
CONTINUOUS
10
74.273
20
-252.786
11
74.273
21
-252.787
0
LINE
8
BLACK
6
CONTINUOUS
10
74.273
20
-252.787
11
73.8334
21
-257.392
0
LINE
8
BLACK
6
CONTINUOUS
10
73.8334
20
-257.392
11
73.8335
21
-257.393
0
LINE
8
BLACK
6
CONTINUOUS
10
73.8335
20
-257.393
11
73.8326
21
-257.401
0
LINE
8
BLACK
6
CONTINUOUS
10
73.8326
20
-257.401
11
73.8319
21
-257.409
0
LINE
8
BLACK
6
CONTINUOUS
10
73.8319
20
-257.409
11
73.8316
21
-257.409
0
LINE
8
BLACK
6
CONTINUOUS
10
73.8316
20
-257.409
11
73.3021
21
-262.011
0
LINE
8
BLACK
6
CONTINUOUS
10
73.3021
20
-262.011
11
73.3021
21
-262.012
0
LINE
8
BLACK
6
CONTINUOUS
10
73.3021
20
-262.012
11
73.3011
21
-262.02
0
LINE
8
BLACK
6
CONTINUOUS
10
73.3011
20
-262.02
11
73.3002
21
-262.028
0
LINE
8
BLACK
6
CONTINUOUS
10
73.3002
20
-262.028
11
73.2999
21
-262.029
0
LINE
8
BLACK
6
CONTINUOUS
10
73.2999
20
-262.029
11
72.6803
21
-266.624
0
LINE
8
BLACK
6
CONTINUOUS
10
72.6803
20
-266.624
11
72.6803
21
-266.625
0
LINE
8
BLACK
6
CONTINUOUS
10
72.6803
20
-266.625
11
72.6791
21
-266.633
0
LINE
8
BLACK
6
CONTINUOUS
10
72.6791
20
-266.633
11
72.6781
21
-266.641
0
LINE
8
BLACK
6
CONTINUOUS
10
72.6781
20
-266.641
11
72.6778
21
-266.642
0
LINE
8
BLACK
6
CONTINUOUS
10
72.6778
20
-266.642
11
71.9679
21
-271.23
0
LINE
8
BLACK
6
CONTINUOUS
10
71.9679
20
-271.23
11
71.9679
21
-271.231
0
LINE
8
BLACK
6
CONTINUOUS
10
71.9679
20
-271.231
11
71.9666
21
-271.239
0
LINE
8
BLACK
6
CONTINUOUS
10
71.9666
20
-271.239
11
71.9654
21
-271.246
0
LINE
8
BLACK
6
CONTINUOUS
10
71.9654
20
-271.246
11
71.9651
21
-271.247
0
LINE
8
BLACK
6
CONTINUOUS
10
71.9651
20
-271.247
11
71.1649
21
-275.827
0
LINE
8
BLACK
6
CONTINUOUS
10
71.1649
20
-275.827
11
71.1649
21
-275.828
0
LINE
8
BLACK
6
CONTINUOUS
10
71.1649
20
-275.828
11
71.1634
21
-275.836
0
LINE
8
BLACK
6
CONTINUOUS
10
71.1634
20
-275.836
11
71.162
21
-275.844
0
LINE
8
BLACK
6
CONTINUOUS
10
71.162
20
-275.844
11
71.1617
21
-275.845
0
LINE
8
BLACK
6
CONTINUOUS
10
71.1617
20
-275.845
11
70.2708
21
-280.415
0
LINE
8
BLACK
6
CONTINUOUS
10
70.2708
20
-280.415
11
70.2708
21
-280.417
0
LINE
8
BLACK
6
CONTINUOUS
10
70.2708
20
-280.417
11
70.2707
21
-280.417
0
LINE
8
BLACK
6
CONTINUOUS
10
70.2707
20
-280.417
11
70.2707
21
-280.417
0
LINE
8
BLACK
6
CONTINUOUS
10
70.2707
20
-280.417
11
70.2702
21
-280.42
0
LINE
8
BLACK
6
CONTINUOUS
10
70.2702
20
-280.42
11
70.2699
21
-280.422
0
LINE
8
BLACK
6
CONTINUOUS
10
70.2699
20
-280.422
11
70.2689
21
-280.426
0
LINE
8
BLACK
6
CONTINUOUS
10
70.2689
20
-280.426
11
70.2667
21
-280.438
0
LINE
8
BLACK
6
CONTINUOUS
10
70.2667
20
-280.438
11
70.2667
21
-280.438
0
LINE
8
BLACK
6
CONTINUOUS
10
70.2667
20
-280.438
11
69.9994
21
-281.949
0
LINE
8
BLACK
6
CONTINUOUS
10
69.9994
20
-281.949
11
69.8151
21
-283.467
0
LINE
8
BLACK
6
CONTINUOUS
10
69.8151
20
-283.467
11
69.7145
21
-284.977
0
LINE
8
BLACK
6
CONTINUOUS
10
69.7145
20
-284.977
11
69.6958
21
-286.475
0
LINE
8
BLACK
6
CONTINUOUS
10
69.6958
20
-286.475
11
69.7573
21
-287.959
0
LINE
8
BLACK
6
CONTINUOUS
10
69.7573
20
-287.959
11
69.897
21
-289.426
0
LINE
8
BLACK
6
CONTINUOUS
10
69.897
20
-289.426
11
70.1132
21
-290.875
0
LINE
8
BLACK
6
CONTINUOUS
10
70.1132
20
-290.875
11
70.404
21
-292.302
0
LINE
8
BLACK
6
CONTINUOUS
10
70.404
20
-292.302
11
70.7677
21
-293.706
0
LINE
8
BLACK
6
CONTINUOUS
10
70.7677
20
-293.706
11
71.2024
21
-295.083
0
LINE
8
BLACK
6
CONTINUOUS
10
71.2024
20
-295.083
11
71.7063
21
-296.432
0
LINE
8
BLACK
6
CONTINUOUS
10
71.7063
20
-296.432
11
72.2776
21
-297.75
0
LINE
8
BLACK
6
CONTINUOUS
10
72.2776
20
-297.75
11
72.9145
21
-299.034
0
LINE
8
BLACK
6
CONTINUOUS
10
72.9145
20
-299.034
11
73.6152
21
-300.282
0
LINE
8
BLACK
6
CONTINUOUS
10
73.6152
20
-300.282
11
74.3779
21
-301.492
0
LINE
8
BLACK
6
CONTINUOUS
10
74.3779
20
-301.492
11
75.2006
21
-302.661
0
LINE
8
BLACK
6
CONTINUOUS
10
75.2006
20
-302.661
11
76.0817
21
-303.786
0
LINE
8
BLACK
6
CONTINUOUS
10
76.0817
20
-303.786
11
77.0193
21
-304.866
0
LINE
8
BLACK
6
CONTINUOUS
10
77.0193
20
-304.866
11
78.0116
21
-305.898
0
LINE
8
BLACK
6
CONTINUOUS
10
78.0116
20
-305.898
11
79.0567
21
-306.879
0
LINE
8
BLACK
6
CONTINUOUS
10
79.0567
20
-306.879
11
80.1529
21
-307.807
0
LINE
8
BLACK
6
CONTINUOUS
10
80.1529
20
-307.807
11
81.2983
21
-308.68
0
LINE
8
BLACK
6
CONTINUOUS
10
81.2983
20
-308.68
11
82.4912
21
-309.494
0
LINE
8
BLACK
6
CONTINUOUS
10
82.4912
20
-309.494
11
83.7296
21
-310.248
0
LINE
8
BLACK
6
CONTINUOUS
10
83.7296
20
-310.248
11
85.0118
21
-310.939
0
LINE
8
BLACK
6
CONTINUOUS
10
85.0118
20
-310.939
11
86.336
21
-311.565
0
LINE
8
BLACK
6
CONTINUOUS
10
86.336
20
-311.565
11
87.7004
21
-312.123
0
LINE
8
BLACK
6
CONTINUOUS
10
87.7004
20
-312.123
11
89.1031
21
-312.611
0
LINE
8
BLACK
6
CONTINUOUS
10
89.1031
20
-312.611
11
90.5424
21
-313.027
0
LINE
8
BLACK
6
CONTINUOUS
10
90.5424
20
-313.027
11
92.0164
21
-313.367
0
LINE
8
BLACK
6
CONTINUOUS
10
92.0164
20
-313.367
11
93.5234
21
-313.629
0
LINE
8
BLACK
6
CONTINUOUS
10
93.5234
20
-313.629
11
95.0615
21
-313.812
0
LINE
8
BLACK
6
CONTINUOUS
10
95.0615
20
-313.812
11
96.6073
21
-313.911
0
LINE
8
BLACK
6
CONTINUOUS
10
96.6073
20
-313.911
11
98.1369
21
-313.926
0
LINE
8
BLACK
6
CONTINUOUS
10
98.1369
20
-313.926
11
99.6482
21
-313.859
0
LINE
8
BLACK
6
CONTINUOUS
10
99.6482
20
-313.859
11
101.139
21
-313.711
0
LINE
8
BLACK
6
CONTINUOUS
10
101.139
20
-313.711
11
102.607
21
-313.485
0
LINE
8
BLACK
6
CONTINUOUS
10
102.607
20
-313.485
11
104.05
21
-313.184
0
LINE
8
BLACK
6
CONTINUOUS
10
104.05
20
-313.184
11
105.465
21
-312.808
0
LINE
8
BLACK
6
CONTINUOUS
10
105.465
20
-312.808
11
106.852
21
-312.361
0
LINE
8
BLACK
6
CONTINUOUS
10
106.852
20
-312.361
11
108.206
21
-311.844
0
LINE
8
BLACK
6
CONTINUOUS
10
108.206
20
-311.844
11
109.527
21
-311.259
0
LINE
8
BLACK
6
CONTINUOUS
10
109.527
20
-311.259
11
110.812
21
-310.609
0
LINE
8
BLACK
6
CONTINUOUS
10
110.812
20
-310.609
11
112.058
21
-309.895
0
LINE
8
BLACK
6
CONTINUOUS
10
112.058
20
-309.895
11
113.263
21
-309.12
0
LINE
8
BLACK
6
CONTINUOUS
10
113.263
20
-309.12
11
114.426
21
-308.285
0
LINE
8
BLACK
6
CONTINUOUS
10
114.426
20
-308.285
11
115.544
21
-307.393
0
LINE
8
BLACK
6
CONTINUOUS
10
115.544
20
-307.393
11
116.615
21
-306.445
0
LINE
8
BLACK
6
CONTINUOUS
10
116.615
20
-306.445
11
117.636
21
-305.445
0
LINE
8
BLACK
6
CONTINUOUS
10
117.636
20
-305.445
11
118.605
21
-304.393
0
LINE
8
BLACK
6
CONTINUOUS
10
118.605
20
-304.393
11
119.52
21
-303.293
0
LINE
8
BLACK
6
CONTINUOUS
10
119.52
20
-303.293
11
120.379
21
-302.145
0
LINE
8
BLACK
6
CONTINUOUS
10
120.379
20
-302.145
11
121.18
21
-300.953
0
LINE
8
BLACK
6
CONTINUOUS
10
121.18
20
-300.953
11
121.92
21
-299.718
0
LINE
8
BLACK
6
CONTINUOUS
10
121.92
20
-299.718
11
122.597
21
-298.442
0
LINE
8
BLACK
6
CONTINUOUS
10
122.597
20
-298.442
11
123.209
21
-297.128
0
LINE
8
BLACK
6
CONTINUOUS
10
123.209
20
-297.128
11
123.754
21
-295.777
0
LINE
8
BLACK
6
CONTINUOUS
10
123.754
20
-295.777
11
124.229
21
-294.391
0
LINE
8
BLACK
6
CONTINUOUS
10
124.229
20
-294.391
11
124.633
21
-292.974
0
LINE
8
BLACK
6
CONTINUOUS
10
124.633
20
-292.974
11
124.962
21
-291.525
0
LINE
8
BLACK
6
CONTINUOUS
10
124.962
20
-291.525
11
125.215
21
-290.049
0
LINE
8
BLACK
6
CONTINUOUS
10
125.215
20
-290.049
11
125.39
21
-288.546
0
LINE
8
BLACK
6
CONTINUOUS
10
125.39
20
-288.546
11
125.484
21
-287.019
0
LINE
8
BLACK
6
CONTINUOUS
10
125.484
20
-287.019
11
125.495
21
-285.469
0
LINE
8
BLACK
6
CONTINUOUS
10
125.495
20
-285.469
11
125.409
21
-280.798
0
LINE
8
BLACK
6
CONTINUOUS
10
125.409
20
-280.798
11
125.409
21
-280.798
0
LINE
8
BLACK
6
CONTINUOUS
10
125.409
20
-280.798
11
125.409
21
-280.79
0
LINE
8
BLACK
6
CONTINUOUS
10
125.409
20
-280.79
11
125.409
21
-280.781
0
LINE
8
BLACK
6
CONTINUOUS
10
125.409
20
-280.781
11
125.409
21
-280.781
0
LINE
8
BLACK
6
CONTINUOUS
10
125.409
20
-280.781
11
125.339
21
-276.117
0
LINE
8
BLACK
6
CONTINUOUS
10
125.339
20
-276.117
11
125.339
21
-276.117
0
LINE
8
BLACK
6
CONTINUOUS
10
125.339
20
-276.117
11
125.339
21
-276.109
0
LINE
8
BLACK
6
CONTINUOUS
10
125.339
20
-276.109
11
125.339
21
-276.1
0
LINE
8
BLACK
6
CONTINUOUS
10
125.339
20
-276.1
11
125.339
21
-276.1
0
LINE
8
BLACK
6
CONTINUOUS
10
125.339
20
-276.1
11
125.285
21
-271.437
0
LINE
8
BLACK
6
CONTINUOUS
10
125.285
20
-271.437
11
125.285
21
-271.436
0
LINE
8
BLACK
6
CONTINUOUS
10
125.285
20
-271.436
11
125.285
21
-271.428
0
LINE
8
BLACK
6
CONTINUOUS
10
125.285
20
-271.428
11
125.285
21
-271.419
0
LINE
8
BLACK
6
CONTINUOUS
10
125.285
20
-271.419
11
125.285
21
-271.419
0
LINE
8
BLACK
6
CONTINUOUS
10
125.285
20
-271.419
11
125.246
21
-266.756
0
LINE
8
BLACK
6
CONTINUOUS
10
125.246
20
-266.756
11
125.246
21
-266.755
0
LINE
8
BLACK
6
CONTINUOUS
10
125.246
20
-266.755
11
125.246
21
-266.747
0
LINE
8
BLACK
6
CONTINUOUS
10
125.246
20
-266.747
11
125.246
21
-266.738
0
LINE
8
BLACK
6
CONTINUOUS
10
125.246
20
-266.738
11
125.246
21
-266.738
0
LINE
8
BLACK
6
CONTINUOUS
10
125.246
20
-266.738
11
125.223
21
-262.075
0
LINE
8
BLACK
6
CONTINUOUS
10
125.223
20
-262.075
11
125.223
21
-262.075
0
LINE
8
BLACK
6
CONTINUOUS
10
125.223
20
-262.075
11
125.223
21
-262.066
0
LINE
8
BLACK
6
CONTINUOUS
10
125.223
20
-262.066
11
125.223
21
-262.057
0
LINE
8
BLACK
6
CONTINUOUS
10
125.223
20
-262.057
11
125.223
21
-262.057
0
LINE
8
BLACK
6
CONTINUOUS
10
125.223
20
-262.057
11
125.215
21
-257.394
0
LINE
8
BLACK
6
CONTINUOUS
10
125.215
20
-257.394
11
125.215
21
-257.394
0
LINE
8
BLACK
6
CONTINUOUS
10
125.215
20
-257.394
11
125.215
21
-257.385
0
LINE
8
BLACK
6
CONTINUOUS
10
125.215
20
-257.385
11
125.215
21
-257.377
0
LINE
8
BLACK
6
CONTINUOUS
10
125.215
20
-257.377
11
125.215
21
-257.376
0
LINE
8
BLACK
6
CONTINUOUS
10
125.215
20
-257.376
11
125.224
21
-252.713
0
LINE
8
BLACK
6
CONTINUOUS
10
125.224
20
-252.713
11
125.224
21
-252.713
0
LINE
8
BLACK
6
CONTINUOUS
10
125.224
20
-252.713
11
125.224
21
-252.704
0
LINE
8
BLACK
6
CONTINUOUS
10
125.224
20
-252.704
11
125.224
21
-252.696
0
LINE
8
BLACK
6
CONTINUOUS
10
125.224
20
-252.696
11
125.224
21
-252.696
0
LINE
8
BLACK
6
CONTINUOUS
10
125.224
20
-252.696
11
125.247
21
-248.033
0
LINE
8
BLACK
6
CONTINUOUS
10
125.247
20
-248.033
11
125.247
21
-248.033
0
LINE
8
BLACK
6
CONTINUOUS
10
125.247
20
-248.033
11
125.248
21
-248.024
0
LINE
8
BLACK
6
CONTINUOUS
10
125.248
20
-248.024
11
125.248
21
-248.015
0
LINE
8
BLACK
6
CONTINUOUS
10
125.248
20
-248.015
11
125.248
21
-248.015
0
LINE
8
BLACK
6
CONTINUOUS
10
125.248
20
-248.015
11
125.287
21
-243.352
0
LINE
8
BLACK
6
CONTINUOUS
10
125.287
20
-243.352
11
125.287
21
-243.352
0
LINE
8
BLACK
6
CONTINUOUS
10
125.287
20
-243.352
11
125.287
21
-243.343
0
LINE
8
BLACK
6
CONTINUOUS
10
125.287
20
-243.343
11
125.287
21
-243.335
0
LINE
8
BLACK
6
CONTINUOUS
10
125.287
20
-243.335
11
125.287
21
-243.335
0
LINE
8
BLACK
6
CONTINUOUS
10
125.287
20
-243.335
11
125.342
21
-238.672
0
LINE
8
BLACK
6
CONTINUOUS
10
125.342
20
-238.672
11
125.342
21
-238.672
0
LINE
8
BLACK
6
CONTINUOUS
10
125.342
20
-238.672
11
125.342
21
-238.664
0
LINE
8
BLACK
6
CONTINUOUS
10
125.342
20
-238.664
11
125.342
21
-238.655
0
LINE
8
BLACK
6
CONTINUOUS
10
125.342
20
-238.655
11
125.342
21
-238.655
0
LINE
8
BLACK
6
CONTINUOUS
10
125.342
20
-238.655
11
125.413
21
-233.993
0
LINE
8
BLACK
6
CONTINUOUS
10
125.413
20
-233.993
11
125.413
21
-233.992
0
LINE
8
BLACK
6
CONTINUOUS
10
125.413
20
-233.992
11
125.413
21
-233.984
0
LINE
8
BLACK
6
CONTINUOUS
10
125.413
20
-233.984
11
125.413
21
-233.975
0
LINE
8
BLACK
6
CONTINUOUS
10
125.413
20
-233.975
11
125.413
21
-233.975
0
LINE
8
BLACK
6
CONTINUOUS
10
125.413
20
-233.975
11
125.499
21
-229.313
0
LINE
8
BLACK
6
CONTINUOUS
10
125.499
20
-229.313
11
125.499
21
-229.313
0
LINE
8
BLACK
6
CONTINUOUS
10
125.499
20
-229.313
11
125.499
21
-229.305
0
LINE
8
BLACK
6
CONTINUOUS
10
125.499
20
-229.305
11
125.499
21
-229.296
0
LINE
8
BLACK
6
CONTINUOUS
10
125.499
20
-229.296
11
125.499
21
-229.296
0
LINE
8
BLACK
6
CONTINUOUS
10
125.499
20
-229.296
11
125.601
21
-224.634
0
LINE
8
BLACK
6
CONTINUOUS
10
125.601
20
-224.634
11
125.601
21
-224.634
0
LINE
8
BLACK
6
CONTINUOUS
10
125.601
20
-224.634
11
125.601
21
-224.626
0
LINE
8
BLACK
6
CONTINUOUS
10
125.601
20
-224.626
11
125.601
21
-224.617
0
LINE
8
BLACK
6
CONTINUOUS
10
125.601
20
-224.617
11
125.601
21
-224.617
0
LINE
8
BLACK
6
CONTINUOUS
10
125.601
20
-224.617
11
125.719
21
-219.956
0
LINE
8
BLACK
6
CONTINUOUS
10
125.719
20
-219.956
11
125.719
21
-219.955
0
LINE
8
BLACK
6
CONTINUOUS
10
125.719
20
-219.955
11
125.719
21
-219.947
0
LINE
8
BLACK
6
CONTINUOUS
10
125.719
20
-219.947
11
125.719
21
-219.938
0
LINE
8
BLACK
6
CONTINUOUS
10
125.719
20
-219.938
11
125.719
21
-219.938
0
LINE
8
BLACK
6
CONTINUOUS
10
125.719
20
-219.938
11
125.852
21
-215.277
0
LINE
8
BLACK
6
CONTINUOUS
10
125.852
20
-215.277
11
125.852
21
-215.277
0
LINE
8
BLACK
6
CONTINUOUS
10
125.852
20
-215.277
11
125.852
21
-215.269
0
LINE
8
BLACK
6
CONTINUOUS
10
125.852
20
-215.269
11
125.852
21
-215.26
0
LINE
8
BLACK
6
CONTINUOUS
10
125.852
20
-215.26
11
125.852
21
-215.26
0
LINE
8
BLACK
6
CONTINUOUS
10
125.852
20
-215.26
11
126.001
21
-210.6
0
LINE
8
BLACK
6
CONTINUOUS
10
126.001
20
-210.6
11
126.001
21
-210.599
0
LINE
8
BLACK
6
CONTINUOUS
10
126.001
20
-210.599
11
126.001
21
-210.591
0
LINE
8
BLACK
6
CONTINUOUS
10
126.001
20
-210.591
11
126.001
21
-210.582
0
LINE
8
BLACK
6
CONTINUOUS
10
126.001
20
-210.582
11
126.001
21
-210.582
0
LINE
8
BLACK
6
CONTINUOUS
10
126.001
20
-210.582
11
126.165
21
-205.922
0
LINE
8
BLACK
6
CONTINUOUS
10
126.165
20
-205.922
11
126.165
21
-205.922
0
LINE
8
BLACK
6
CONTINUOUS
10
126.165
20
-205.922
11
126.166
21
-205.914
0
LINE
8
BLACK
6
CONTINUOUS
10
126.166
20
-205.914
11
126.166
21
-205.905
0
LINE
8
BLACK
6
CONTINUOUS
10
126.166
20
-205.905
11
126.166
21
-205.905
0
LINE
8
BLACK
6
CONTINUOUS
10
126.166
20
-205.905
11
126.345
21
-201.246
0
LINE
8
BLACK
6
CONTINUOUS
10
126.345
20
-201.246
11
126.345
21
-201.246
0
LINE
8
BLACK
6
CONTINUOUS
10
126.345
20
-201.246
11
126.346
21
-201.237
0
LINE
8
BLACK
6
CONTINUOUS
10
126.346
20
-201.237
11
126.346
21
-201.228
0
LINE
8
BLACK
6
CONTINUOUS
10
126.346
20
-201.228
11
126.346
21
-201.228
0
LINE
8
BLACK
6
CONTINUOUS
10
126.346
20
-201.228
11
126.541
21
-196.57
0
LINE
8
BLACK
6
CONTINUOUS
10
126.541
20
-196.57
11
126.541
21
-196.57
0
LINE
8
BLACK
6
CONTINUOUS
10
126.541
20
-196.57
11
126.542
21
-196.561
0
LINE
8
BLACK
6
CONTINUOUS
10
126.542
20
-196.561
11
126.542
21
-196.552
0
LINE
8
BLACK
6
CONTINUOUS
10
126.542
20
-196.552
11
126.542
21
-196.552
0
LINE
8
BLACK
6
CONTINUOUS
10
126.542
20
-196.552
11
126.753
21
-191.894
0
LINE
8
BLACK
6
CONTINUOUS
10
126.753
20
-191.894
11
126.753
21
-191.894
0
LINE
8
BLACK
6
CONTINUOUS
10
126.753
20
-191.894
11
126.753
21
-191.886
0
LINE
8
BLACK
6
CONTINUOUS
10
126.753
20
-191.886
11
126.753
21
-191.877
0
LINE
8
BLACK
6
CONTINUOUS
10
126.753
20
-191.877
11
126.753
21
-191.877
0
LINE
8
BLACK
6
CONTINUOUS
10
126.753
20
-191.877
11
126.98
21
-187.22
0
LINE
8
BLACK
6
CONTINUOUS
10
126.98
20
-187.22
11
126.98
21
-187.219
0
LINE
8
BLACK
6
CONTINUOUS
10
126.98
20
-187.219
11
126.98
21
-187.211
0
LINE
8
BLACK
6
CONTINUOUS
10
126.98
20
-187.211
11
126.98
21
-187.202
0
LINE
8
BLACK
6
CONTINUOUS
10
126.98
20
-187.202
11
126.981
21
-187.202
0
LINE
8
BLACK
6
CONTINUOUS
10
126.981
20
-187.202
11
127.222
21
-182.546
0
LINE
8
BLACK
6
CONTINUOUS
10
127.222
20
-182.546
11
127.222
21
-182.546
0
LINE
8
BLACK
6
CONTINUOUS
10
127.222
20
-182.546
11
127.223
21
-182.537
0
LINE
8
BLACK
6
CONTINUOUS
10
127.223
20
-182.537
11
127.223
21
-182.528
0
LINE
8
BLACK
6
CONTINUOUS
10
127.223
20
-182.528
11
127.223
21
-182.528
0
LINE
8
BLACK
6
CONTINUOUS
10
127.223
20
-182.528
11
127.481
21
-177.872
0
LINE
8
BLACK
6
CONTINUOUS
10
127.481
20
-177.872
11
127.481
21
-177.872
0
LINE
8
BLACK
6
CONTINUOUS
10
127.481
20
-177.872
11
127.481
21
-177.864
0
LINE
8
BLACK
6
CONTINUOUS
10
127.481
20
-177.864
11
127.482
21
-177.855
0
LINE
8
BLACK
6
CONTINUOUS
10
127.482
20
-177.855
11
127.482
21
-177.855
0
LINE
8
BLACK
6
CONTINUOUS
10
127.482
20
-177.855
11
127.754
21
-173.2
0
LINE
8
BLACK
6
CONTINUOUS
10
127.754
20
-173.2
11
127.754
21
-173.2
0
LINE
8
BLACK
6
CONTINUOUS
10
127.754
20
-173.2
11
127.755
21
-173.191
0
LINE
8
BLACK
6
CONTINUOUS
10
127.755
20
-173.191
11
127.755
21
-173.183
0
LINE
8
BLACK
6
CONTINUOUS
10
127.755
20
-173.183
11
127.755
21
-173.183
0
LINE
8
BLACK
6
CONTINUOUS
10
127.755
20
-173.183
11
128.044
21
-168.528
0
LINE
8
BLACK
6
CONTINUOUS
10
128.044
20
-168.528
11
128.044
21
-168.528
0
LINE
8
BLACK
6
CONTINUOUS
10
128.044
20
-168.528
11
128.044
21
-168.52
0
LINE
8
BLACK
6
CONTINUOUS
10
128.044
20
-168.52
11
128.045
21
-168.511
0
LINE
8
BLACK
6
CONTINUOUS
10
128.045
20
-168.511
11
128.045
21
-168.511
0
LINE
8
BLACK
6
CONTINUOUS
10
128.045
20
-168.511
11
128.349
21
-163.858
0
LINE
8
BLACK
6
CONTINUOUS
10
128.349
20
-163.858
11
128.349
21
-163.858
0
LINE
8
BLACK
6
CONTINUOUS
10
128.349
20
-163.858
11
128.35
21
-163.849
0
LINE
8
BLACK
6
CONTINUOUS
10
128.35
20
-163.849
11
128.35
21
-163.84
0
LINE
8
BLACK
6
CONTINUOUS
10
128.35
20
-163.84
11
128.35
21
-163.84
0
LINE
8
BLACK
6
CONTINUOUS
10
128.35
20
-163.84
11
128.67
21
-159.188
0
LINE
8
BLACK
6
CONTINUOUS
10
128.67
20
-159.188
11
128.67
21
-159.188
0
LINE
8
BLACK
6
CONTINUOUS
10
128.67
20
-159.188
11
128.67
21
-159.18
0
LINE
8
BLACK
6
CONTINUOUS
10
128.67
20
-159.18
11
128.671
21
-159.171
0
LINE
8
BLACK
6
CONTINUOUS
10
128.671
20
-159.171
11
128.671
21
-159.17
0
LINE
8
BLACK
6
CONTINUOUS
10
128.671
20
-159.17
11
129.006
21
-154.519
0
LINE
8
BLACK
6
CONTINUOUS
10
129.006
20
-154.519
11
129.006
21
-154.519
0
LINE
8
BLACK
6
CONTINUOUS
10
129.006
20
-154.519
11
129.007
21
-154.51
0
LINE
8
BLACK
6
CONTINUOUS
10
129.007
20
-154.51
11
129.007
21
-154.502
0
LINE
8
BLACK
6
CONTINUOUS
10
129.007
20
-154.502
11
129.008
21
-154.502
0
LINE
8
BLACK
6
CONTINUOUS
10
129.008
20
-154.502
11
129.358
21
-149.851
0
LINE
8
BLACK
6
CONTINUOUS
10
129.358
20
-149.851
11
129.358
21
-149.851
0
LINE
8
BLACK
6
CONTINUOUS
10
129.358
20
-149.851
11
129.359
21
-149.843
0
LINE
8
BLACK
6
CONTINUOUS
10
129.359
20
-149.843
11
129.36
21
-149.834
0
LINE
8
BLACK
6
CONTINUOUS
10
129.36
20
-149.834
11
129.36
21
-149.834
0
LINE
8
BLACK
6
CONTINUOUS
10
129.36
20
-149.834
11
129.726
21
-145.184
0
LINE
8
BLACK
6
CONTINUOUS
10
129.726
20
-145.184
11
129.726
21
-145.184
0
LINE
8
BLACK
6
CONTINUOUS
10
129.726
20
-145.184
11
129.726
21
-145.176
0
LINE
8
BLACK
6
CONTINUOUS
10
129.726
20
-145.176
11
129.727
21
-145.167
0
LINE
8
BLACK
6
CONTINUOUS
10
129.727
20
-145.167
11
129.727
21
-145.167
0
LINE
8
BLACK
6
CONTINUOUS
10
129.727
20
-145.167
11
130.109
21
-140.519
0
LINE
8
BLACK
6
CONTINUOUS
10
130.109
20
-140.519
11
130.109
21
-140.518
0
LINE
8
BLACK
6
CONTINUOUS
10
130.109
20
-140.518
11
130.11
21
-140.51
0
LINE
8
BLACK
6
CONTINUOUS
10
130.11
20
-140.51
11
130.11
21
-140.501
0
LINE
8
BLACK
6
CONTINUOUS
10
130.11
20
-140.501
11
130.11
21
-140.501
0
LINE
8
BLACK
6
CONTINUOUS
10
130.11
20
-140.501
11
130.509
21
-135.846
0
LINE
8
BLACK
6
CONTINUOUS
10
130.509
20
-135.846
11
130.725
21
-132.996
0
LINE
8
BLACK
6
CONTINUOUS
10
130.725
20
-132.996
11
130.878
21
-130.149
0
LINE
8
BLACK
6
CONTINUOUS
10
130.878
20
-130.149
11
130.968
21
-127.303
0
LINE
8
BLACK
6
CONTINUOUS
10
130.968
20
-127.303
11
130.995
21
-124.461
0
LINE
8
BLACK
6
CONTINUOUS
10
130.995
20
-124.461
11
130.959
21
-121.623
0
LINE
8
BLACK
6
CONTINUOUS
10
130.959
20
-121.623
11
130.861
21
-118.791
0
LINE
8
BLACK
6
CONTINUOUS
10
130.861
20
-118.791
11
130.7
21
-115.964
0
LINE
8
BLACK
6
CONTINUOUS
10
130.7
20
-115.964
11
130.478
21
-113.145
0
LINE
8
BLACK
6
CONTINUOUS
10
130.478
20
-113.145
11
130.194
21
-110.334
0
LINE
8
BLACK
6
CONTINUOUS
10
130.194
20
-110.334
11
129.849
21
-107.532
0
LINE
8
BLACK
6
CONTINUOUS
10
129.849
20
-107.532
11
129.442
21
-104.741
0
LINE
8
BLACK
6
CONTINUOUS
10
129.442
20
-104.741
11
128.975
21
-101.96
0
LINE
8
BLACK
6
CONTINUOUS
10
128.975
20
-101.96
11
128.447
21
-99.1921
0
LINE
8
BLACK
6
CONTINUOUS
10
128.447
20
-99.1921
11
127.859
21
-96.437
0
LINE
8
BLACK
6
CONTINUOUS
10
127.859
20
-96.437
11
127.211
21
-93.6961
0
LINE
8
BLACK
6
CONTINUOUS
10
127.211
20
-93.6961
11
126.503
21
-90.9704
0
LINE
8
BLACK
6
CONTINUOUS
10
126.503
20
-90.9704
11
125.736
21
-88.2607
0
LINE
8
BLACK
6
CONTINUOUS
10
125.736
20
-88.2607
11
124.91
21
-85.5682
0
LINE
8
BLACK
6
CONTINUOUS
10
124.91
20
-85.5682
11
124.024
21
-82.8939
0
LINE
8
BLACK
6
CONTINUOUS
10
124.024
20
-82.8939
11
123.08
21
-80.2386
0
LINE
8
BLACK
6
CONTINUOUS
10
123.08
20
-80.2386
11
122.077
21
-77.6034
0
LINE
8
BLACK
6
CONTINUOUS
10
122.077
20
-77.6034
11
121.017
21
-74.9894
0
LINE
8
BLACK
6
CONTINUOUS
10
121.017
20
-74.9894
11
119.898
21
-72.3974
0
LINE
8
BLACK
6
CONTINUOUS
10
119.898
20
-72.3974
11
118.722
21
-69.8286
0
LINE
8
BLACK
6
CONTINUOUS
10
118.722
20
-69.8286
11
117.489
21
-67.2837
0
LINE
8
BLACK
6
CONTINUOUS
10
117.489
20
-67.2837
11
116.198
21
-64.764
0
LINE
8
BLACK
6
CONTINUOUS
10
116.198
20
-64.764
11
114.851
21
-62.2704
0
LINE
8
BLACK
6
CONTINUOUS
10
114.851
20
-62.2704
11
113.447
21
-59.8037
0
LINE
8
BLACK
6
CONTINUOUS
10
113.447
20
-59.8037
11
111.987
21
-57.3651
0
LINE
8
BLACK
6
CONTINUOUS
10
111.987
20
-57.3651
11
110.471
21
-54.9555
0
LINE
8
BLACK
6
CONTINUOUS
10
110.471
20
-54.9555
11
108.9
21
-52.576
0
LINE
8
BLACK
6
CONTINUOUS
10
108.9
20
-52.576
11
107.273
21
-50.2283
0
LINE
8
BLACK
6
CONTINUOUS
10
107.273
20
-50.2283
11
106.166
21
-48.7678
0
LINE
8
BLACK
6
CONTINUOUS
10
106.166
20
-48.7678
11
104.991
21
-47.4054
0
LINE
8
BLACK
6
CONTINUOUS
10
104.991
20
-47.4054
11
103.751
21
-46.1401
0
LINE
8
BLACK
6
CONTINUOUS
10
103.751
20
-46.1401
11
102.452
21
-44.9718
0
LINE
8
BLACK
6
CONTINUOUS
10
102.452
20
-44.9718
11
101.097
21
-43.9004
0
LINE
8
BLACK
6
CONTINUOUS
10
101.097
20
-43.9004
11
99.6924
21
-42.9256
0
LINE
8
BLACK
6
CONTINUOUS
10
99.6924
20
-42.9256
11
98.2422
21
-42.0476
0
LINE
8
BLACK
6
CONTINUOUS
10
98.2422
20
-42.0476
11
96.7512
21
-41.266
0
LINE
8
BLACK
6
CONTINUOUS
10
96.7512
20
-41.266
11
95.2242
21
-40.5809
0
LINE
8
BLACK
6
CONTINUOUS
10
95.2242
20
-40.5809
11
93.6659
21
-39.992
0
LINE
8
BLACK
6
CONTINUOUS
10
93.6659
20
-39.992
11
92.0811
21
-39.4994
0
LINE
8
BLACK
6
CONTINUOUS
10
92.0811
20
-39.4994
11
90.4745
21
-39.103
0
LINE
8
BLACK
6
CONTINUOUS
10
90.4745
20
-39.103
11
88.8509
21
-38.8025
0
LINE
8
BLACK
6
CONTINUOUS
10
88.8509
20
-38.8025
11
87.2151
21
-38.598
0
LINE
8
BLACK
6
CONTINUOUS
10
87.2151
20
-38.598
11
85.5717
21
-38.4893
0
LINE
8
BLACK
6
CONTINUOUS
10
85.5717
20
-38.4893
11
83.9257
21
-38.4764
0
LINE
8
BLACK
6
CONTINUOUS
10
83.9257
20
-38.4764
11
82.2816
21
-38.5591
  0
ENDSEC
  0
EOF
