G04 #@! TF.GenerationSoftware,KiCad,Pcbnew,(5.0.0)*
G04 #@! TF.CreationDate,2019-11-18T10:43:10+01:00*
G04 #@! TF.ProjectId,Insole_PCB,496E736F6C655F5043422E6B69636164,rev?*
G04 #@! TF.SameCoordinates,Original*
G04 #@! TF.FileFunction,Legend,Top*
G04 #@! TF.FilePolarity,Positive*
%FSLAX46Y46*%
G04 Gerber Fmt 4.6, Leading zero omitted, Abs format (unit mm)*
G04 Created by KiCad (PCBNEW (5.0.0)) date 11/18/19 10:43:10*
%MOMM*%
%LPD*%
G01*
G04 APERTURE LIST*
%ADD10C,0.010000*%
%ADD11C,0.200000*%
%ADD12C,0.120000*%
%ADD13C,0.150000*%
G04 APERTURE END LIST*
D10*
G04 #@! TO.C,G\002A\002A\002A*
G36*
X184845600Y-132958978D02*
X186077206Y-133045346D01*
X187171482Y-133193122D01*
X188158039Y-133407235D01*
X189066490Y-133692618D01*
X189771653Y-133982245D01*
X190153611Y-134163619D01*
X190379078Y-134286521D01*
X190441200Y-134344277D01*
X190333123Y-134330211D01*
X190047993Y-134237648D01*
X190025653Y-134229649D01*
X188978454Y-133927188D01*
X187785408Y-133710864D01*
X186484416Y-133580054D01*
X185113377Y-133534137D01*
X183710192Y-133572488D01*
X182312761Y-133694486D01*
X180958984Y-133899508D01*
X179686761Y-134186932D01*
X178939075Y-134411751D01*
X177638684Y-134917408D01*
X176524633Y-135500971D01*
X175597310Y-136162087D01*
X174857106Y-136900407D01*
X174304409Y-137715578D01*
X173939607Y-138607249D01*
X173840095Y-139016707D01*
X173720284Y-139626307D01*
X173491149Y-139126152D01*
X173314382Y-138506164D01*
X173319277Y-137845948D01*
X173493634Y-137166168D01*
X173825252Y-136487489D01*
X174301932Y-135830576D01*
X174911473Y-135216095D01*
X175641676Y-134664709D01*
X176369658Y-134250414D01*
X177333091Y-133825282D01*
X178327761Y-133490039D01*
X179385491Y-133238742D01*
X180538102Y-133065450D01*
X181817415Y-132964224D01*
X183255254Y-132929122D01*
X183447053Y-132929086D01*
X184845600Y-132958978D01*
X184845600Y-132958978D01*
G37*
X184845600Y-132958978D02*
X186077206Y-133045346D01*
X187171482Y-133193122D01*
X188158039Y-133407235D01*
X189066490Y-133692618D01*
X189771653Y-133982245D01*
X190153611Y-134163619D01*
X190379078Y-134286521D01*
X190441200Y-134344277D01*
X190333123Y-134330211D01*
X190047993Y-134237648D01*
X190025653Y-134229649D01*
X188978454Y-133927188D01*
X187785408Y-133710864D01*
X186484416Y-133580054D01*
X185113377Y-133534137D01*
X183710192Y-133572488D01*
X182312761Y-133694486D01*
X180958984Y-133899508D01*
X179686761Y-134186932D01*
X178939075Y-134411751D01*
X177638684Y-134917408D01*
X176524633Y-135500971D01*
X175597310Y-136162087D01*
X174857106Y-136900407D01*
X174304409Y-137715578D01*
X173939607Y-138607249D01*
X173840095Y-139016707D01*
X173720284Y-139626307D01*
X173491149Y-139126152D01*
X173314382Y-138506164D01*
X173319277Y-137845948D01*
X173493634Y-137166168D01*
X173825252Y-136487489D01*
X174301932Y-135830576D01*
X174911473Y-135216095D01*
X175641676Y-134664709D01*
X176369658Y-134250414D01*
X177333091Y-133825282D01*
X178327761Y-133490039D01*
X179385491Y-133238742D01*
X180538102Y-133065450D01*
X181817415Y-132964224D01*
X183255254Y-132929122D01*
X183447053Y-132929086D01*
X184845600Y-132958978D01*
G36*
X193708653Y-141810707D02*
X192286253Y-141810707D01*
X192286253Y-136425907D01*
X193708653Y-136425907D01*
X193708653Y-141810707D01*
X193708653Y-141810707D01*
G37*
X193708653Y-141810707D02*
X192286253Y-141810707D01*
X192286253Y-136425907D01*
X193708653Y-136425907D01*
X193708653Y-141810707D01*
G36*
X191081447Y-138059070D02*
X191168967Y-138102469D01*
X191348233Y-138231205D01*
X191481591Y-138424486D01*
X191575047Y-138709742D01*
X191634607Y-139114406D01*
X191666278Y-139665908D01*
X191676067Y-140391679D01*
X191676086Y-140418555D01*
X191676653Y-141820403D01*
X190406653Y-141759907D01*
X190355853Y-140650458D01*
X190317976Y-140070718D01*
X190266566Y-139692391D01*
X190201416Y-139514127D01*
X190181449Y-139500123D01*
X190122863Y-139540063D01*
X190080013Y-139718568D01*
X190049996Y-140056761D01*
X190029913Y-140575766D01*
X190029049Y-140609572D01*
X190000253Y-141759907D01*
X188781053Y-141759907D01*
X188752256Y-140609572D01*
X188732629Y-140080133D01*
X188703227Y-139732655D01*
X188661149Y-139546014D01*
X188603494Y-139499085D01*
X188599856Y-139500123D01*
X188530963Y-139624615D01*
X188475864Y-139948806D01*
X188434355Y-140474044D01*
X188425453Y-140650458D01*
X188374653Y-141759907D01*
X187104653Y-141820403D01*
X187104653Y-138051507D01*
X187717441Y-138051507D01*
X188091877Y-138066755D01*
X188304082Y-138118573D01*
X188390394Y-138208293D01*
X188457020Y-138311105D01*
X188566237Y-138259393D01*
X188615806Y-138216208D01*
X188841380Y-138077551D01*
X189057895Y-137998250D01*
X189273765Y-137983113D01*
X189473242Y-138083253D01*
X189642095Y-138236519D01*
X189949453Y-138543876D01*
X190246437Y-138246891D01*
X190521922Y-138022054D01*
X190775051Y-137963393D01*
X191081447Y-138059070D01*
X191081447Y-138059070D01*
G37*
X191081447Y-138059070D02*
X191168967Y-138102469D01*
X191348233Y-138231205D01*
X191481591Y-138424486D01*
X191575047Y-138709742D01*
X191634607Y-139114406D01*
X191666278Y-139665908D01*
X191676067Y-140391679D01*
X191676086Y-140418555D01*
X191676653Y-141820403D01*
X190406653Y-141759907D01*
X190355853Y-140650458D01*
X190317976Y-140070718D01*
X190266566Y-139692391D01*
X190201416Y-139514127D01*
X190181449Y-139500123D01*
X190122863Y-139540063D01*
X190080013Y-139718568D01*
X190049996Y-140056761D01*
X190029913Y-140575766D01*
X190029049Y-140609572D01*
X190000253Y-141759907D01*
X188781053Y-141759907D01*
X188752256Y-140609572D01*
X188732629Y-140080133D01*
X188703227Y-139732655D01*
X188661149Y-139546014D01*
X188603494Y-139499085D01*
X188599856Y-139500123D01*
X188530963Y-139624615D01*
X188475864Y-139948806D01*
X188434355Y-140474044D01*
X188425453Y-140650458D01*
X188374653Y-141759907D01*
X187104653Y-141820403D01*
X187104653Y-138051507D01*
X187717441Y-138051507D01*
X188091877Y-138066755D01*
X188304082Y-138118573D01*
X188390394Y-138208293D01*
X188457020Y-138311105D01*
X188566237Y-138259393D01*
X188615806Y-138216208D01*
X188841380Y-138077551D01*
X189057895Y-137998250D01*
X189273765Y-137983113D01*
X189473242Y-138083253D01*
X189642095Y-138236519D01*
X189949453Y-138543876D01*
X190246437Y-138246891D01*
X190521922Y-138022054D01*
X190775051Y-137963393D01*
X191081447Y-138059070D01*
G36*
X185389732Y-136585624D02*
X185446221Y-136601229D01*
X185539302Y-136639476D01*
X185618665Y-136702055D01*
X185693363Y-136813685D01*
X185772450Y-136999084D01*
X185864978Y-137282970D01*
X185980002Y-137690060D01*
X186126574Y-138245073D01*
X186311267Y-138963038D01*
X186481209Y-139628577D01*
X186637180Y-140242715D01*
X186771037Y-140773119D01*
X186874635Y-141187455D01*
X186939829Y-141453390D01*
X186955421Y-141520331D01*
X187019198Y-141810707D01*
X186350725Y-141810707D01*
X185989910Y-141804164D01*
X185787791Y-141775878D01*
X185700051Y-141712857D01*
X185682253Y-141614764D01*
X185591944Y-141343265D01*
X185344966Y-141163192D01*
X184989195Y-141101062D01*
X184641970Y-141131149D01*
X184446261Y-141237160D01*
X184355855Y-141448199D01*
X184346295Y-141505907D01*
X184310608Y-141645852D01*
X184220243Y-141725895D01*
X184025779Y-141766979D01*
X183677798Y-141790052D01*
X183675653Y-141790155D01*
X183324652Y-141799400D01*
X183131588Y-141777996D01*
X183052233Y-141715782D01*
X183040653Y-141644284D01*
X183065439Y-141500074D01*
X183135088Y-141188565D01*
X183242533Y-140738912D01*
X183380707Y-140180268D01*
X183466927Y-139840110D01*
X184692777Y-139840110D01*
X184708108Y-139944433D01*
X184847082Y-140056944D01*
X184995998Y-140065232D01*
X185145087Y-140013540D01*
X185208538Y-139875570D01*
X185217617Y-139626307D01*
X185188560Y-139224413D01*
X185124858Y-138900128D01*
X185038388Y-138700964D01*
X184976320Y-138661107D01*
X184905419Y-138751425D01*
X184828084Y-138979223D01*
X184757845Y-139279762D01*
X184708233Y-139588303D01*
X184692777Y-139840110D01*
X183466927Y-139840110D01*
X183542544Y-139541788D01*
X183668962Y-139052055D01*
X184297271Y-136635946D01*
X184729411Y-136571143D01*
X185075635Y-136551864D01*
X185389732Y-136585624D01*
X185389732Y-136585624D01*
G37*
X185389732Y-136585624D02*
X185446221Y-136601229D01*
X185539302Y-136639476D01*
X185618665Y-136702055D01*
X185693363Y-136813685D01*
X185772450Y-136999084D01*
X185864978Y-137282970D01*
X185980002Y-137690060D01*
X186126574Y-138245073D01*
X186311267Y-138963038D01*
X186481209Y-139628577D01*
X186637180Y-140242715D01*
X186771037Y-140773119D01*
X186874635Y-141187455D01*
X186939829Y-141453390D01*
X186955421Y-141520331D01*
X187019198Y-141810707D01*
X186350725Y-141810707D01*
X185989910Y-141804164D01*
X185787791Y-141775878D01*
X185700051Y-141712857D01*
X185682253Y-141614764D01*
X185591944Y-141343265D01*
X185344966Y-141163192D01*
X184989195Y-141101062D01*
X184641970Y-141131149D01*
X184446261Y-141237160D01*
X184355855Y-141448199D01*
X184346295Y-141505907D01*
X184310608Y-141645852D01*
X184220243Y-141725895D01*
X184025779Y-141766979D01*
X183677798Y-141790052D01*
X183675653Y-141790155D01*
X183324652Y-141799400D01*
X183131588Y-141777996D01*
X183052233Y-141715782D01*
X183040653Y-141644284D01*
X183065439Y-141500074D01*
X183135088Y-141188565D01*
X183242533Y-140738912D01*
X183380707Y-140180268D01*
X183466927Y-139840110D01*
X184692777Y-139840110D01*
X184708108Y-139944433D01*
X184847082Y-140056944D01*
X184995998Y-140065232D01*
X185145087Y-140013540D01*
X185208538Y-139875570D01*
X185217617Y-139626307D01*
X185188560Y-139224413D01*
X185124858Y-138900128D01*
X185038388Y-138700964D01*
X184976320Y-138661107D01*
X184905419Y-138751425D01*
X184828084Y-138979223D01*
X184757845Y-139279762D01*
X184708233Y-139588303D01*
X184692777Y-139840110D01*
X183466927Y-139840110D01*
X183542544Y-139541788D01*
X183668962Y-139052055D01*
X184297271Y-136635946D01*
X184729411Y-136571143D01*
X185075635Y-136551864D01*
X185389732Y-136585624D01*
G36*
X182837103Y-135373389D02*
X182984091Y-135534113D01*
X183115669Y-135859656D01*
X183122940Y-136298602D01*
X183006237Y-136874666D01*
X183003023Y-136886365D01*
X182912417Y-137214348D01*
X182788681Y-137661620D01*
X182652988Y-138151662D01*
X182596284Y-138356307D01*
X182408272Y-139202201D01*
X182289841Y-140089184D01*
X182271858Y-140337507D01*
X182235661Y-140919930D01*
X182199257Y-141328447D01*
X182156791Y-141592272D01*
X182102410Y-141740620D01*
X182030262Y-141802706D01*
X181976692Y-141810707D01*
X181842365Y-141713873D01*
X181734836Y-141440244D01*
X181659832Y-141015132D01*
X181623081Y-140463845D01*
X181620321Y-140235907D01*
X181641201Y-139697515D01*
X181708735Y-139151102D01*
X181832161Y-138550335D01*
X182020718Y-137848880D01*
X182235737Y-137149387D01*
X182360766Y-136741307D01*
X182451734Y-136411265D01*
X182497204Y-136202817D01*
X182497249Y-136153436D01*
X182417939Y-136177862D01*
X182272033Y-136352202D01*
X182054172Y-136684655D01*
X181759000Y-137183421D01*
X181381157Y-137856699D01*
X181364253Y-137887368D01*
X180892172Y-138716234D01*
X180492326Y-139357409D01*
X180163468Y-139812652D01*
X179904350Y-140083721D01*
X179745007Y-140169433D01*
X179637828Y-140170655D01*
X179590967Y-140089851D01*
X179592776Y-139881907D01*
X179614006Y-139662100D01*
X179669339Y-139340755D01*
X179773988Y-138891753D01*
X179911853Y-138379819D01*
X180035693Y-137967021D01*
X180177098Y-137515615D01*
X180292800Y-137139846D01*
X180370787Y-136879173D01*
X180399053Y-136773221D01*
X180356375Y-136723048D01*
X180237727Y-136830675D01*
X180057184Y-137071745D01*
X179828825Y-137421899D01*
X179566725Y-137856780D01*
X179284961Y-138352029D01*
X178997611Y-138883289D01*
X178718750Y-139426201D01*
X178462455Y-139956408D01*
X178242804Y-140449552D01*
X178165585Y-140637946D01*
X177918024Y-141234463D01*
X177689036Y-141735712D01*
X177491419Y-142116741D01*
X177337972Y-142352600D01*
X177251316Y-142420307D01*
X177131897Y-142341226D01*
X177049827Y-142223786D01*
X176955308Y-141871189D01*
X176955334Y-141362864D01*
X177045959Y-140720818D01*
X177223238Y-139967060D01*
X177483226Y-139123598D01*
X177724649Y-138459536D01*
X177972175Y-137807095D01*
X178145498Y-137321017D01*
X178250180Y-136980773D01*
X178291786Y-136765838D01*
X178275879Y-136655685D01*
X178220781Y-136629107D01*
X178058331Y-136700845D01*
X177802269Y-136892859D01*
X177490288Y-137170344D01*
X177160081Y-137498497D01*
X176849340Y-137842516D01*
X176681699Y-138050201D01*
X176424743Y-138368894D01*
X176258648Y-138522541D01*
X176166949Y-138518636D01*
X176133177Y-138364675D01*
X176131853Y-138300461D01*
X176175828Y-138014347D01*
X176321603Y-137711733D01*
X176589944Y-137360711D01*
X177001623Y-136929374D01*
X177064045Y-136868367D01*
X177575247Y-136408156D01*
X178003860Y-136106750D01*
X178373474Y-135949704D01*
X178616007Y-135917907D01*
X178772602Y-135934813D01*
X178848769Y-136021049D01*
X178873061Y-136229888D01*
X178874676Y-136400507D01*
X178833269Y-136753635D01*
X178714348Y-137262132D01*
X178525241Y-137896727D01*
X178423207Y-138203907D01*
X178268371Y-138666519D01*
X178150686Y-139036515D01*
X178079022Y-139284422D01*
X178062247Y-139380770D01*
X178071597Y-139372307D01*
X178157112Y-139227788D01*
X178317584Y-138945105D01*
X178530452Y-138564365D01*
X178773155Y-138125672D01*
X178786015Y-138102307D01*
X179259753Y-137277246D01*
X179673510Y-136636218D01*
X180034219Y-136171387D01*
X180348811Y-135874919D01*
X180624220Y-135738981D01*
X180863690Y-135754302D01*
X180960803Y-135825979D01*
X181001419Y-135976594D01*
X180994957Y-136257453D01*
X180982704Y-136402658D01*
X180914402Y-136839277D01*
X180797934Y-137324727D01*
X180714788Y-137590785D01*
X180580383Y-137988603D01*
X180521566Y-138209478D01*
X180540043Y-138251851D01*
X180637525Y-138114162D01*
X180815719Y-137794853D01*
X181076333Y-137292365D01*
X181106196Y-137233553D01*
X181483964Y-136536513D01*
X181817725Y-136024552D01*
X182114973Y-135686188D01*
X182117220Y-135684153D01*
X182431842Y-135428554D01*
X182659355Y-135327120D01*
X182837103Y-135373389D01*
X182837103Y-135373389D01*
G37*
X182837103Y-135373389D02*
X182984091Y-135534113D01*
X183115669Y-135859656D01*
X183122940Y-136298602D01*
X183006237Y-136874666D01*
X183003023Y-136886365D01*
X182912417Y-137214348D01*
X182788681Y-137661620D01*
X182652988Y-138151662D01*
X182596284Y-138356307D01*
X182408272Y-139202201D01*
X182289841Y-140089184D01*
X182271858Y-140337507D01*
X182235661Y-140919930D01*
X182199257Y-141328447D01*
X182156791Y-141592272D01*
X182102410Y-141740620D01*
X182030262Y-141802706D01*
X181976692Y-141810707D01*
X181842365Y-141713873D01*
X181734836Y-141440244D01*
X181659832Y-141015132D01*
X181623081Y-140463845D01*
X181620321Y-140235907D01*
X181641201Y-139697515D01*
X181708735Y-139151102D01*
X181832161Y-138550335D01*
X182020718Y-137848880D01*
X182235737Y-137149387D01*
X182360766Y-136741307D01*
X182451734Y-136411265D01*
X182497204Y-136202817D01*
X182497249Y-136153436D01*
X182417939Y-136177862D01*
X182272033Y-136352202D01*
X182054172Y-136684655D01*
X181759000Y-137183421D01*
X181381157Y-137856699D01*
X181364253Y-137887368D01*
X180892172Y-138716234D01*
X180492326Y-139357409D01*
X180163468Y-139812652D01*
X179904350Y-140083721D01*
X179745007Y-140169433D01*
X179637828Y-140170655D01*
X179590967Y-140089851D01*
X179592776Y-139881907D01*
X179614006Y-139662100D01*
X179669339Y-139340755D01*
X179773988Y-138891753D01*
X179911853Y-138379819D01*
X180035693Y-137967021D01*
X180177098Y-137515615D01*
X180292800Y-137139846D01*
X180370787Y-136879173D01*
X180399053Y-136773221D01*
X180356375Y-136723048D01*
X180237727Y-136830675D01*
X180057184Y-137071745D01*
X179828825Y-137421899D01*
X179566725Y-137856780D01*
X179284961Y-138352029D01*
X178997611Y-138883289D01*
X178718750Y-139426201D01*
X178462455Y-139956408D01*
X178242804Y-140449552D01*
X178165585Y-140637946D01*
X177918024Y-141234463D01*
X177689036Y-141735712D01*
X177491419Y-142116741D01*
X177337972Y-142352600D01*
X177251316Y-142420307D01*
X177131897Y-142341226D01*
X177049827Y-142223786D01*
X176955308Y-141871189D01*
X176955334Y-141362864D01*
X177045959Y-140720818D01*
X177223238Y-139967060D01*
X177483226Y-139123598D01*
X177724649Y-138459536D01*
X177972175Y-137807095D01*
X178145498Y-137321017D01*
X178250180Y-136980773D01*
X178291786Y-136765838D01*
X178275879Y-136655685D01*
X178220781Y-136629107D01*
X178058331Y-136700845D01*
X177802269Y-136892859D01*
X177490288Y-137170344D01*
X177160081Y-137498497D01*
X176849340Y-137842516D01*
X176681699Y-138050201D01*
X176424743Y-138368894D01*
X176258648Y-138522541D01*
X176166949Y-138518636D01*
X176133177Y-138364675D01*
X176131853Y-138300461D01*
X176175828Y-138014347D01*
X176321603Y-137711733D01*
X176589944Y-137360711D01*
X177001623Y-136929374D01*
X177064045Y-136868367D01*
X177575247Y-136408156D01*
X178003860Y-136106750D01*
X178373474Y-135949704D01*
X178616007Y-135917907D01*
X178772602Y-135934813D01*
X178848769Y-136021049D01*
X178873061Y-136229888D01*
X178874676Y-136400507D01*
X178833269Y-136753635D01*
X178714348Y-137262132D01*
X178525241Y-137896727D01*
X178423207Y-138203907D01*
X178268371Y-138666519D01*
X178150686Y-139036515D01*
X178079022Y-139284422D01*
X178062247Y-139380770D01*
X178071597Y-139372307D01*
X178157112Y-139227788D01*
X178317584Y-138945105D01*
X178530452Y-138564365D01*
X178773155Y-138125672D01*
X178786015Y-138102307D01*
X179259753Y-137277246D01*
X179673510Y-136636218D01*
X180034219Y-136171387D01*
X180348811Y-135874919D01*
X180624220Y-135738981D01*
X180863690Y-135754302D01*
X180960803Y-135825979D01*
X181001419Y-135976594D01*
X180994957Y-136257453D01*
X180982704Y-136402658D01*
X180914402Y-136839277D01*
X180797934Y-137324727D01*
X180714788Y-137590785D01*
X180580383Y-137988603D01*
X180521566Y-138209478D01*
X180540043Y-138251851D01*
X180637525Y-138114162D01*
X180815719Y-137794853D01*
X181076333Y-137292365D01*
X181106196Y-137233553D01*
X181483964Y-136536513D01*
X181817725Y-136024552D01*
X182114973Y-135686188D01*
X182117220Y-135684153D01*
X182431842Y-135428554D01*
X182659355Y-135327120D01*
X182837103Y-135373389D01*
G36*
X179484653Y-144198307D02*
X179433853Y-144249107D01*
X179383053Y-144198307D01*
X179433853Y-144147507D01*
X179484653Y-144198307D01*
X179484653Y-144198307D01*
G37*
X179484653Y-144198307D02*
X179433853Y-144249107D01*
X179383053Y-144198307D01*
X179433853Y-144147507D01*
X179484653Y-144198307D01*
G36*
X196174748Y-139077887D02*
X196309416Y-139329698D01*
X196311636Y-139334995D01*
X196415189Y-139725489D01*
X196439455Y-140237255D01*
X196431440Y-140434507D01*
X196285878Y-141249089D01*
X195951103Y-142022138D01*
X195438705Y-142743241D01*
X194760274Y-143401986D01*
X193927401Y-143987958D01*
X192951675Y-144490744D01*
X191844687Y-144899932D01*
X191288264Y-145055461D01*
X190218656Y-145279542D01*
X189015591Y-145452053D01*
X187743359Y-145568182D01*
X186466247Y-145623120D01*
X185248546Y-145612056D01*
X184487247Y-145564376D01*
X183815930Y-145488564D01*
X183085312Y-145379138D01*
X182355152Y-145247246D01*
X181685209Y-145104036D01*
X181135243Y-144960655D01*
X180968936Y-144908035D01*
X180614024Y-144778692D01*
X180253653Y-144633109D01*
X179934191Y-144491991D01*
X179702005Y-144376043D01*
X179603465Y-144305971D01*
X179604384Y-144298708D01*
X179711260Y-144307313D01*
X179969174Y-144359346D01*
X180333016Y-144445177D01*
X180557988Y-144502275D01*
X181423033Y-144697014D01*
X182313683Y-144833481D01*
X183273620Y-144915462D01*
X184346526Y-144946747D01*
X185521848Y-144932640D01*
X187350634Y-144816991D01*
X189024281Y-144573933D01*
X190546833Y-144202357D01*
X191922334Y-143701151D01*
X193154828Y-143069202D01*
X193773784Y-142665092D01*
X194441753Y-142110773D01*
X195016749Y-141474083D01*
X195472985Y-140792761D01*
X195784675Y-140104544D01*
X195918573Y-139526239D01*
X195980560Y-139175557D01*
X196065540Y-139026307D01*
X196174748Y-139077887D01*
X196174748Y-139077887D01*
G37*
X196174748Y-139077887D02*
X196309416Y-139329698D01*
X196311636Y-139334995D01*
X196415189Y-139725489D01*
X196439455Y-140237255D01*
X196431440Y-140434507D01*
X196285878Y-141249089D01*
X195951103Y-142022138D01*
X195438705Y-142743241D01*
X194760274Y-143401986D01*
X193927401Y-143987958D01*
X192951675Y-144490744D01*
X191844687Y-144899932D01*
X191288264Y-145055461D01*
X190218656Y-145279542D01*
X189015591Y-145452053D01*
X187743359Y-145568182D01*
X186466247Y-145623120D01*
X185248546Y-145612056D01*
X184487247Y-145564376D01*
X183815930Y-145488564D01*
X183085312Y-145379138D01*
X182355152Y-145247246D01*
X181685209Y-145104036D01*
X181135243Y-144960655D01*
X180968936Y-144908035D01*
X180614024Y-144778692D01*
X180253653Y-144633109D01*
X179934191Y-144491991D01*
X179702005Y-144376043D01*
X179603465Y-144305971D01*
X179604384Y-144298708D01*
X179711260Y-144307313D01*
X179969174Y-144359346D01*
X180333016Y-144445177D01*
X180557988Y-144502275D01*
X181423033Y-144697014D01*
X182313683Y-144833481D01*
X183273620Y-144915462D01*
X184346526Y-144946747D01*
X185521848Y-144932640D01*
X187350634Y-144816991D01*
X189024281Y-144573933D01*
X190546833Y-144202357D01*
X191922334Y-143701151D01*
X193154828Y-143069202D01*
X193773784Y-142665092D01*
X194441753Y-142110773D01*
X195016749Y-141474083D01*
X195472985Y-140792761D01*
X195784675Y-140104544D01*
X195918573Y-139526239D01*
X195980560Y-139175557D01*
X196065540Y-139026307D01*
X196174748Y-139077887D01*
G36*
X181556800Y-196804393D02*
X181712425Y-196808590D01*
X181865834Y-196815525D01*
X182014294Y-196825139D01*
X182155073Y-196837373D01*
X182285439Y-196852167D01*
X182335939Y-196859058D01*
X182527458Y-196891937D01*
X182707567Y-196933742D01*
X182876346Y-196984531D01*
X183033876Y-197044360D01*
X183180235Y-197113286D01*
X183315503Y-197191367D01*
X183439759Y-197278659D01*
X183553085Y-197375220D01*
X183655558Y-197481106D01*
X183747258Y-197596375D01*
X183828266Y-197721083D01*
X183898661Y-197855287D01*
X183958522Y-197999045D01*
X183968851Y-198027842D01*
X184005753Y-198148433D01*
X184036236Y-198279967D01*
X184059984Y-198420218D01*
X184076682Y-198566960D01*
X184086012Y-198717967D01*
X184087739Y-198865250D01*
X184087688Y-198927348D01*
X184089339Y-198975155D01*
X184092690Y-199008623D01*
X184095308Y-199021084D01*
X184098987Y-199036841D01*
X184101798Y-199055892D01*
X184103740Y-199079572D01*
X184104816Y-199109216D01*
X184105028Y-199146161D01*
X184104376Y-199191741D01*
X184102863Y-199247293D01*
X184100490Y-199314151D01*
X184097258Y-199393653D01*
X184095796Y-199427678D01*
X184094120Y-199469589D01*
X184092614Y-199514796D01*
X184091271Y-199564136D01*
X184090083Y-199618447D01*
X184089043Y-199678565D01*
X184088144Y-199745327D01*
X184087380Y-199819571D01*
X184086743Y-199902134D01*
X184086226Y-199993853D01*
X184085822Y-200095564D01*
X184085524Y-200208106D01*
X184085325Y-200332315D01*
X184085218Y-200469029D01*
X184085195Y-200619083D01*
X184085209Y-200683164D01*
X184085328Y-200812353D01*
X184085605Y-200942885D01*
X184086030Y-201073948D01*
X184086592Y-201204730D01*
X184087283Y-201334417D01*
X184088094Y-201462197D01*
X184089014Y-201587259D01*
X184090035Y-201708789D01*
X184091147Y-201825974D01*
X184092340Y-201938003D01*
X184093606Y-202044063D01*
X184094934Y-202143341D01*
X184096315Y-202235025D01*
X184097740Y-202318302D01*
X184099200Y-202392360D01*
X184100685Y-202456387D01*
X184102185Y-202509569D01*
X184103691Y-202551094D01*
X184105194Y-202580151D01*
X184106684Y-202595925D01*
X184107446Y-202598605D01*
X184117133Y-202599757D01*
X184138611Y-202597412D01*
X184169723Y-202592080D01*
X184208309Y-202584273D01*
X184252212Y-202574500D01*
X184299273Y-202563273D01*
X184347334Y-202551103D01*
X184394237Y-202538501D01*
X184437823Y-202525977D01*
X184475935Y-202514043D01*
X184499705Y-202505757D01*
X184595866Y-202465098D01*
X184680674Y-202418827D01*
X184753539Y-202367396D01*
X184813871Y-202311259D01*
X184861078Y-202250868D01*
X184883425Y-202211630D01*
X184908882Y-202159993D01*
X184999387Y-201223821D01*
X185010525Y-201108522D01*
X185021270Y-200997112D01*
X185031539Y-200890455D01*
X185041251Y-200789416D01*
X185050322Y-200694860D01*
X185058670Y-200607652D01*
X185066213Y-200528657D01*
X185072867Y-200458739D01*
X185078550Y-200398764D01*
X185083181Y-200349597D01*
X185086675Y-200312102D01*
X185088951Y-200287144D01*
X185089927Y-200275589D01*
X185089958Y-200274950D01*
X185091300Y-200269630D01*
X185096813Y-200266032D01*
X185108825Y-200263827D01*
X185129664Y-200262686D01*
X185161659Y-200262280D01*
X185179937Y-200262250D01*
X185264650Y-200258657D01*
X185345623Y-200247436D01*
X185424314Y-200227923D01*
X185502177Y-200199454D01*
X185580667Y-200161367D01*
X185661240Y-200112997D01*
X185745352Y-200053681D01*
X185834458Y-199982756D01*
X185882020Y-199942137D01*
X185932167Y-199899008D01*
X185972776Y-199865942D01*
X186004827Y-199842997D01*
X186029303Y-199830235D01*
X186047182Y-199827715D01*
X186059445Y-199835498D01*
X186067074Y-199853645D01*
X186071047Y-199882215D01*
X186072347Y-199921268D01*
X186072204Y-199953821D01*
X186071561Y-199969169D01*
X186069876Y-199998123D01*
X186067214Y-200039817D01*
X186063640Y-200093386D01*
X186059217Y-200157963D01*
X186054011Y-200232682D01*
X186048085Y-200316678D01*
X186041504Y-200409084D01*
X186034331Y-200509035D01*
X186026632Y-200615664D01*
X186018471Y-200728106D01*
X186009911Y-200845495D01*
X186001018Y-200966965D01*
X185991855Y-201091650D01*
X185982487Y-201218683D01*
X185972977Y-201347200D01*
X185963392Y-201476333D01*
X185953794Y-201605218D01*
X185944247Y-201732987D01*
X185934817Y-201858776D01*
X185925568Y-201981718D01*
X185916564Y-202100948D01*
X185907868Y-202215598D01*
X185899546Y-202324805D01*
X185891662Y-202427700D01*
X185884280Y-202523419D01*
X185877464Y-202611096D01*
X185871279Y-202689865D01*
X185865789Y-202758859D01*
X185861058Y-202817212D01*
X185857150Y-202864060D01*
X185854131Y-202898535D01*
X185852063Y-202919773D01*
X185851812Y-202921993D01*
X185833748Y-203040186D01*
X185808101Y-203148410D01*
X185774082Y-203249517D01*
X185739688Y-203328495D01*
X185688667Y-203420855D01*
X185627820Y-203505848D01*
X185556707Y-203583756D01*
X185474887Y-203654863D01*
X185381919Y-203719451D01*
X185277363Y-203777805D01*
X185160778Y-203830207D01*
X185031724Y-203876940D01*
X184889760Y-203918287D01*
X184781511Y-203944391D01*
X184713335Y-203958704D01*
X184635378Y-203973609D01*
X184552305Y-203988307D01*
X184468783Y-204001996D01*
X184389477Y-204013877D01*
X184329839Y-204021836D01*
X184290927Y-204027531D01*
X184266198Y-204033204D01*
X184255802Y-204038817D01*
X184255453Y-204040037D01*
X184256251Y-204048244D01*
X184258581Y-204069999D01*
X184262345Y-204104428D01*
X184267444Y-204150655D01*
X184273783Y-204207807D01*
X184281262Y-204275009D01*
X184289785Y-204351387D01*
X184299254Y-204436065D01*
X184309572Y-204528170D01*
X184320640Y-204626826D01*
X184332361Y-204731160D01*
X184344637Y-204840296D01*
X184357157Y-204951449D01*
X184373678Y-205098053D01*
X184388654Y-205231022D01*
X184402159Y-205351144D01*
X184414270Y-205459207D01*
X184425063Y-205555999D01*
X184434613Y-205642310D01*
X184442997Y-205718926D01*
X184450290Y-205786636D01*
X184456568Y-205846228D01*
X184461909Y-205898491D01*
X184466386Y-205944212D01*
X184470077Y-205984180D01*
X184473057Y-206019184D01*
X184475402Y-206050010D01*
X184477189Y-206077448D01*
X184478492Y-206102285D01*
X184479389Y-206125310D01*
X184479955Y-206147312D01*
X184480265Y-206169077D01*
X184480397Y-206191395D01*
X184480425Y-206215053D01*
X184480425Y-206230645D01*
X184475952Y-206382864D01*
X184462440Y-206524047D01*
X184439744Y-206654624D01*
X184407723Y-206775029D01*
X184366234Y-206885690D01*
X184315132Y-206987042D01*
X184254277Y-207079513D01*
X184183524Y-207163537D01*
X184165215Y-207182332D01*
X184084728Y-207254107D01*
X183996113Y-207316518D01*
X183898761Y-207369791D01*
X183792067Y-207414154D01*
X183675423Y-207449832D01*
X183548221Y-207477052D01*
X183409856Y-207496041D01*
X183301139Y-207504855D01*
X183154110Y-207508310D01*
X183016209Y-207500511D01*
X182887360Y-207481426D01*
X182767485Y-207451023D01*
X182656509Y-207409269D01*
X182554354Y-207356133D01*
X182460945Y-207291583D01*
X182376204Y-207215587D01*
X182300056Y-207128113D01*
X182257860Y-207069207D01*
X182208419Y-206989014D01*
X182164782Y-206905228D01*
X182126556Y-206816473D01*
X182093348Y-206721374D01*
X182064764Y-206618557D01*
X182040411Y-206506647D01*
X182019894Y-206384269D01*
X182002821Y-206250049D01*
X181992017Y-206140535D01*
X181990199Y-206122017D01*
X181988744Y-206112735D01*
X181987604Y-206113508D01*
X181986733Y-206125153D01*
X181986084Y-206148488D01*
X181985609Y-206184333D01*
X181985262Y-206233504D01*
X181985134Y-206260278D01*
X181983900Y-206548659D01*
X181982722Y-206822864D01*
X181981598Y-207083233D01*
X181980527Y-207330105D01*
X181979507Y-207563818D01*
X181978536Y-207784713D01*
X181977612Y-207993128D01*
X181976734Y-208189401D01*
X181975900Y-208373873D01*
X181975107Y-208546881D01*
X181974355Y-208708765D01*
X181973642Y-208859865D01*
X181972965Y-209000518D01*
X181972323Y-209131064D01*
X181971714Y-209251843D01*
X181971137Y-209363192D01*
X181970589Y-209465452D01*
X181970069Y-209558960D01*
X181969574Y-209644057D01*
X181969105Y-209721080D01*
X181968657Y-209790370D01*
X181968231Y-209852265D01*
X181967823Y-209907104D01*
X181967432Y-209955226D01*
X181967057Y-209996971D01*
X181966695Y-210032676D01*
X181966345Y-210062682D01*
X181966006Y-210087327D01*
X181965674Y-210106950D01*
X181965349Y-210121890D01*
X181965029Y-210132487D01*
X181964811Y-210137407D01*
X181960799Y-210211793D01*
X181447421Y-210211793D01*
X181355474Y-210211721D01*
X181262531Y-210211514D01*
X181170453Y-210211184D01*
X181081105Y-210210743D01*
X180996350Y-210210204D01*
X180918049Y-210209579D01*
X180848067Y-210208880D01*
X180788265Y-210208120D01*
X180740507Y-210207311D01*
X180727848Y-210207038D01*
X180521653Y-210202284D01*
X180523953Y-209544824D01*
X180524202Y-209454027D01*
X180524365Y-209350367D01*
X180524445Y-209235493D01*
X180524443Y-209111057D01*
X180524363Y-208978709D01*
X180524207Y-208840099D01*
X180523977Y-208696878D01*
X180523678Y-208550697D01*
X180523310Y-208403206D01*
X180522877Y-208256054D01*
X180522381Y-208110894D01*
X180521825Y-207969375D01*
X180521249Y-207840755D01*
X180516244Y-206794146D01*
X180464520Y-206837215D01*
X180436936Y-206860369D01*
X180409363Y-206883822D01*
X180386690Y-206903408D01*
X180381766Y-206907738D01*
X180350735Y-206935193D01*
X180343784Y-208332193D01*
X180343067Y-208477424D01*
X180342369Y-208621001D01*
X180341694Y-208762056D01*
X180341046Y-208899720D01*
X180340428Y-209033127D01*
X180339844Y-209161406D01*
X180339298Y-209283691D01*
X180338794Y-209399113D01*
X180338336Y-209506804D01*
X180337926Y-209605896D01*
X180337570Y-209695520D01*
X180337270Y-209774809D01*
X180337031Y-209842894D01*
X180336856Y-209898907D01*
X180336749Y-209941980D01*
X180336714Y-209966864D01*
X180336596Y-210204535D01*
X179857625Y-210204535D01*
X179857625Y-208702307D01*
X179857612Y-208555757D01*
X179857577Y-208413108D01*
X179857518Y-208275035D01*
X179857439Y-208142213D01*
X179857339Y-208015318D01*
X179857220Y-207895025D01*
X179857083Y-207782009D01*
X179856929Y-207676946D01*
X179856760Y-207580510D01*
X179856577Y-207493377D01*
X179856380Y-207416223D01*
X179856171Y-207349723D01*
X179855951Y-207294552D01*
X179855722Y-207251385D01*
X179855483Y-207220897D01*
X179855238Y-207203765D01*
X179855057Y-207200078D01*
X179847763Y-207202527D01*
X179829215Y-207209304D01*
X179801720Y-207219550D01*
X179767579Y-207232410D01*
X179740757Y-207242586D01*
X179698453Y-207258497D01*
X179656455Y-207273972D01*
X179618569Y-207287629D01*
X179588602Y-207298087D01*
X179578225Y-207301541D01*
X179552645Y-207310264D01*
X179532563Y-207317927D01*
X179521959Y-207323001D01*
X179521560Y-207323318D01*
X179521269Y-207331788D01*
X179524163Y-207351884D01*
X179529785Y-207381183D01*
X179537681Y-207417259D01*
X179544895Y-207447606D01*
X179561856Y-207518969D01*
X179575497Y-207582429D01*
X179586161Y-207641038D01*
X179594192Y-207697844D01*
X179599933Y-207755899D01*
X179603728Y-207818253D01*
X179605920Y-207887956D01*
X179606854Y-207968059D01*
X179606946Y-207998364D01*
X179606930Y-208064112D01*
X179606596Y-208117835D01*
X179605820Y-208162020D01*
X179604476Y-208199154D01*
X179602438Y-208231726D01*
X179599580Y-208262223D01*
X179595778Y-208293133D01*
X179590906Y-208326943D01*
X179590110Y-208332193D01*
X179555242Y-208514671D01*
X179507205Y-208691151D01*
X179446065Y-208861479D01*
X179371891Y-209025502D01*
X179284751Y-209183067D01*
X179184711Y-209334023D01*
X179093909Y-209451785D01*
X179059217Y-209491789D01*
X179016356Y-209537840D01*
X178968078Y-209587253D01*
X178917133Y-209637343D01*
X178866272Y-209685423D01*
X178818247Y-209728810D01*
X178775809Y-209764818D01*
X178761796Y-209775948D01*
X178614346Y-209881494D01*
X178461822Y-209973443D01*
X178304199Y-210051802D01*
X178141455Y-210116581D01*
X177973566Y-210167790D01*
X177800508Y-210205437D01*
X177622259Y-210229532D01*
X177579245Y-210233257D01*
X177500118Y-210237752D01*
X177419191Y-210239393D01*
X177342677Y-210238117D01*
X177303110Y-210236039D01*
X177128477Y-210218056D01*
X176961436Y-210188437D01*
X176800337Y-210146731D01*
X176643526Y-210092490D01*
X176489351Y-210025264D01*
X176443139Y-210002383D01*
X176375391Y-209965816D01*
X176302370Y-209922743D01*
X176228206Y-209875820D01*
X176157024Y-209827706D01*
X176092955Y-209781057D01*
X176063375Y-209757902D01*
X175939484Y-209649133D01*
X175822206Y-209528626D01*
X175713003Y-209398210D01*
X175613340Y-209259720D01*
X175524683Y-209114986D01*
X175476031Y-209023213D01*
X175415842Y-208894199D01*
X175365500Y-208767167D01*
X175323948Y-208638653D01*
X175290127Y-208505194D01*
X175262980Y-208363326D01*
X175251647Y-208288650D01*
X175247204Y-208246935D01*
X175243725Y-208194040D01*
X175241217Y-208132866D01*
X175239685Y-208066310D01*
X175239134Y-207997270D01*
X175239220Y-207983734D01*
X176753536Y-207983734D01*
X176754378Y-208027393D01*
X176762715Y-208174203D01*
X176778079Y-208315192D01*
X176800158Y-208449670D01*
X176828637Y-208576950D01*
X176863203Y-208696343D01*
X176903541Y-208807160D01*
X176949339Y-208908714D01*
X177000283Y-209000316D01*
X177056060Y-209081277D01*
X177116354Y-209150910D01*
X177180854Y-209208527D01*
X177249244Y-209253438D01*
X177321213Y-209284956D01*
X177328510Y-209287319D01*
X177359014Y-209293375D01*
X177398414Y-209296332D01*
X177441435Y-209296230D01*
X177482804Y-209293107D01*
X177517246Y-209287003D01*
X177521322Y-209285882D01*
X177584471Y-209260429D01*
X177647254Y-209221574D01*
X177708577Y-209170414D01*
X177767344Y-209108043D01*
X177822459Y-209035555D01*
X177872827Y-208954045D01*
X177894623Y-208912782D01*
X177943793Y-208804568D01*
X177985913Y-208689673D01*
X178021461Y-208566420D01*
X178050912Y-208433131D01*
X178074743Y-208288130D01*
X178077277Y-208269647D01*
X178081422Y-208230869D01*
X178084747Y-208183668D01*
X178087274Y-208129865D01*
X178089020Y-208071280D01*
X178090008Y-208009732D01*
X178090257Y-207947041D01*
X178089787Y-207885027D01*
X178088618Y-207825510D01*
X178086771Y-207770311D01*
X178084265Y-207721249D01*
X178081121Y-207680144D01*
X178077360Y-207648815D01*
X178073000Y-207629084D01*
X178070121Y-207623584D01*
X178062091Y-207623062D01*
X178042058Y-207623825D01*
X178012463Y-207625722D01*
X177975744Y-207628601D01*
X177944304Y-207631379D01*
X177829667Y-207641464D01*
X177718956Y-207650093D01*
X177609356Y-207657411D01*
X177498053Y-207663566D01*
X177382231Y-207668705D01*
X177259076Y-207672975D01*
X177125772Y-207676523D01*
X177047389Y-207678214D01*
X176985750Y-207679555D01*
X176928735Y-207681001D01*
X176877959Y-207682494D01*
X176835035Y-207683979D01*
X176801579Y-207685398D01*
X176779204Y-207686696D01*
X176769524Y-207687815D01*
X176769286Y-207687941D01*
X176766058Y-207698092D01*
X176762989Y-207720474D01*
X176760179Y-207752803D01*
X176757730Y-207792796D01*
X176755740Y-207838169D01*
X176754311Y-207886638D01*
X176753543Y-207935921D01*
X176753536Y-207983734D01*
X175239220Y-207983734D01*
X175239570Y-207928646D01*
X175240998Y-207863334D01*
X175243424Y-207804236D01*
X175246853Y-207754247D01*
X175250571Y-207721015D01*
X175260761Y-207650495D01*
X175242350Y-207646940D01*
X175229937Y-207645701D01*
X175205364Y-207644201D01*
X175170982Y-207642547D01*
X175129139Y-207640847D01*
X175082187Y-207639211D01*
X175058839Y-207638489D01*
X174893739Y-207633593D01*
X174893739Y-210190021D01*
X174472865Y-210190021D01*
X174471030Y-208896435D01*
X174469196Y-207602850D01*
X174383786Y-207596336D01*
X174350231Y-207594024D01*
X174322374Y-207592573D01*
X174303158Y-207592102D01*
X174295548Y-207592708D01*
X174295221Y-207600150D01*
X174294847Y-207621377D01*
X174294429Y-207655661D01*
X174293972Y-207702273D01*
X174293480Y-207760483D01*
X174292959Y-207829563D01*
X174292412Y-207908784D01*
X174291844Y-207997418D01*
X174291260Y-208094734D01*
X174290665Y-208200006D01*
X174290063Y-208312502D01*
X174289458Y-208431496D01*
X174288855Y-208556257D01*
X174288259Y-208686057D01*
X174287675Y-208820168D01*
X174287371Y-208892807D01*
X174282022Y-210190021D01*
X172832710Y-210190021D01*
X172832636Y-208446493D01*
X172832621Y-208256272D01*
X172832592Y-208079908D01*
X172832543Y-207916742D01*
X172832470Y-207766119D01*
X172832368Y-207627378D01*
X172832233Y-207499864D01*
X172832173Y-207458537D01*
X176802368Y-207458537D01*
X176802368Y-207476887D01*
X176992868Y-207472458D01*
X177057118Y-207470817D01*
X177128550Y-207468745D01*
X177202150Y-207466403D01*
X177272908Y-207463954D01*
X177335812Y-207461558D01*
X177353910Y-207460811D01*
X177423580Y-207457626D01*
X177495832Y-207453893D01*
X177569150Y-207449725D01*
X177642022Y-207445233D01*
X177712932Y-207440532D01*
X177780367Y-207435734D01*
X177842812Y-207430951D01*
X177898753Y-207426297D01*
X177946677Y-207421884D01*
X177985069Y-207417826D01*
X178012414Y-207414235D01*
X178027199Y-207411224D01*
X178028875Y-207410504D01*
X178031314Y-207400863D01*
X178028850Y-207378984D01*
X178021793Y-207346174D01*
X178010456Y-207303742D01*
X177995149Y-207252994D01*
X177981027Y-207209591D01*
X177940123Y-207100112D01*
X177894189Y-207000471D01*
X177843732Y-206911167D01*
X177789260Y-206832698D01*
X177731279Y-206765560D01*
X177670297Y-206710252D01*
X177606821Y-206667271D01*
X177541359Y-206637115D01*
X177474419Y-206620281D01*
X177406506Y-206617268D01*
X177379875Y-206619945D01*
X177316821Y-206633734D01*
X177258210Y-206657230D01*
X177201873Y-206691662D01*
X177145643Y-206738258D01*
X177111522Y-206772075D01*
X177044361Y-206852136D01*
X176983425Y-206945138D01*
X176928825Y-207050858D01*
X176880672Y-207169075D01*
X176839075Y-207299566D01*
X176827209Y-207343719D01*
X176818027Y-207380680D01*
X176810378Y-207413961D01*
X176804956Y-207440351D01*
X176802456Y-207456638D01*
X176802368Y-207458537D01*
X172832173Y-207458537D01*
X172832061Y-207382918D01*
X172831847Y-207275883D01*
X172831586Y-207178101D01*
X172831275Y-207088915D01*
X172830907Y-207007666D01*
X172830480Y-206933697D01*
X172829989Y-206866350D01*
X172829429Y-206804969D01*
X172828795Y-206748894D01*
X172828083Y-206697469D01*
X172827289Y-206650036D01*
X172826408Y-206605937D01*
X172825435Y-206564515D01*
X172824367Y-206525111D01*
X172823198Y-206487069D01*
X172821925Y-206449730D01*
X172820542Y-206412437D01*
X172819045Y-206374532D01*
X172818381Y-206358250D01*
X172802735Y-205900844D01*
X172793733Y-205451457D01*
X172791363Y-205010836D01*
X172795613Y-204579725D01*
X172803468Y-204275370D01*
X173014139Y-204275370D01*
X173647325Y-204277224D01*
X174280510Y-204279078D01*
X174282341Y-205837550D01*
X174282554Y-206014866D01*
X174282761Y-206178238D01*
X174282969Y-206328234D01*
X174283183Y-206465424D01*
X174283408Y-206590376D01*
X174283648Y-206703661D01*
X174283911Y-206805847D01*
X174284200Y-206897503D01*
X174284522Y-206979200D01*
X174284881Y-207051506D01*
X174285282Y-207114991D01*
X174285732Y-207170223D01*
X174286236Y-207217773D01*
X174286797Y-207258209D01*
X174287423Y-207292100D01*
X174288119Y-207320017D01*
X174288888Y-207342528D01*
X174289738Y-207360202D01*
X174290673Y-207373610D01*
X174291698Y-207383319D01*
X174292819Y-207389900D01*
X174294041Y-207393922D01*
X174295370Y-207395953D01*
X174296810Y-207396564D01*
X174296856Y-207396567D01*
X174306186Y-207396983D01*
X174328737Y-207397996D01*
X174363229Y-207399548D01*
X174408386Y-207401582D01*
X174462926Y-207404040D01*
X174525572Y-207406864D01*
X174595045Y-207409997D01*
X174670067Y-207413381D01*
X174749357Y-207416958D01*
X174759482Y-207417415D01*
X174840443Y-207421047D01*
X174918251Y-207424498D01*
X174991497Y-207427708D01*
X175058769Y-207430616D01*
X175118658Y-207433164D01*
X175169755Y-207435290D01*
X175210647Y-207436935D01*
X175239927Y-207438039D01*
X175256182Y-207438542D01*
X175256596Y-207438549D01*
X175303768Y-207439382D01*
X175327827Y-207354201D01*
X175376993Y-207204543D01*
X175439386Y-207055351D01*
X175513804Y-206908623D01*
X175599040Y-206766361D01*
X175693891Y-206630562D01*
X175797152Y-206503227D01*
X175907617Y-206386353D01*
X175915804Y-206378408D01*
X176049990Y-206258760D01*
X176191440Y-206151653D01*
X176339935Y-206057194D01*
X176495255Y-205975486D01*
X176657178Y-205906637D01*
X176825486Y-205850751D01*
X176999959Y-205807934D01*
X177161596Y-205780724D01*
X177219475Y-205774779D01*
X177287944Y-205770640D01*
X177363190Y-205768309D01*
X177441401Y-205767789D01*
X177518764Y-205769083D01*
X177591467Y-205772194D01*
X177655697Y-205777123D01*
X177684110Y-205780358D01*
X177863729Y-205810714D01*
X178036934Y-205854049D01*
X178203609Y-205910307D01*
X178363639Y-205979432D01*
X178516908Y-206061369D01*
X178663301Y-206156063D01*
X178802702Y-206263457D01*
X178930141Y-206378745D01*
X179044942Y-206497968D01*
X179147004Y-206619625D01*
X179238103Y-206746188D01*
X179320016Y-206880130D01*
X179394517Y-207023924D01*
X179396560Y-207028214D01*
X179443653Y-207127323D01*
X179547225Y-207090911D01*
X179710557Y-207030237D01*
X179874414Y-206963112D01*
X180035590Y-206891011D01*
X180190879Y-206815410D01*
X180337078Y-206737786D01*
X180430939Y-206683842D01*
X180521653Y-206629853D01*
X180525995Y-206085837D01*
X180526689Y-205994578D01*
X180527418Y-205891026D01*
X180528168Y-205777400D01*
X180528926Y-205655922D01*
X180529680Y-205528813D01*
X180530417Y-205398293D01*
X180531125Y-205266582D01*
X180531791Y-205135901D01*
X180532114Y-205068418D01*
X181991225Y-205068418D01*
X181991225Y-205510667D01*
X182016380Y-205488581D01*
X182072836Y-205445233D01*
X182139558Y-205404287D01*
X182212300Y-205367933D01*
X182286815Y-205338363D01*
X182337555Y-205322925D01*
X182374130Y-205314203D01*
X182407597Y-205308528D01*
X182443245Y-205305286D01*
X182486365Y-205303860D01*
X182502853Y-205303685D01*
X182603963Y-205308914D01*
X182698245Y-205326432D01*
X182787438Y-205356812D01*
X182873282Y-205400626D01*
X182945740Y-205449477D01*
X182994314Y-205487506D01*
X183031209Y-205520950D01*
X183057548Y-205552066D01*
X183074455Y-205583109D01*
X183083052Y-205616334D01*
X183084463Y-205653997D01*
X183079809Y-205698353D01*
X183077323Y-205713746D01*
X183069617Y-205752139D01*
X183059592Y-205793128D01*
X183049148Y-205829084D01*
X183046922Y-205835735D01*
X183028250Y-205909586D01*
X183020053Y-205990603D01*
X183021942Y-206076327D01*
X183033528Y-206164301D01*
X183054423Y-206252065D01*
X183084237Y-206337160D01*
X183122581Y-206417130D01*
X183144820Y-206454407D01*
X183164805Y-206483902D01*
X183180689Y-206501915D01*
X183195072Y-206509837D01*
X183210551Y-206509061D01*
X183229725Y-206500980D01*
X183230742Y-206500453D01*
X183261549Y-206477161D01*
X183287641Y-206441730D01*
X183309011Y-206394067D01*
X183325653Y-206334076D01*
X183337561Y-206261663D01*
X183344730Y-206176734D01*
X183347152Y-206079195D01*
X183344822Y-205968951D01*
X183337733Y-205845907D01*
X183325880Y-205709970D01*
X183309257Y-205561044D01*
X183287857Y-205399036D01*
X183261673Y-205223851D01*
X183230701Y-205035394D01*
X183194934Y-204833572D01*
X183154366Y-204618289D01*
X183108990Y-204389452D01*
X183086812Y-204281115D01*
X183076588Y-204231880D01*
X183067154Y-204186914D01*
X183058957Y-204148317D01*
X183052446Y-204118190D01*
X183048069Y-204098633D01*
X183046470Y-204092207D01*
X183045060Y-204089777D01*
X183041782Y-204087678D01*
X183035647Y-204085885D01*
X183025663Y-204084374D01*
X183010840Y-204083121D01*
X182990186Y-204082102D01*
X182962711Y-204081294D01*
X182927424Y-204080672D01*
X182883335Y-204080212D01*
X182829452Y-204079890D01*
X182764785Y-204079683D01*
X182688343Y-204079566D01*
X182599135Y-204079516D01*
X182521685Y-204079507D01*
X182000838Y-204079507D01*
X181996031Y-204352837D01*
X181995113Y-204413210D01*
X181994252Y-204485584D01*
X181993466Y-204567445D01*
X181992771Y-204656280D01*
X181992184Y-204749575D01*
X181991722Y-204844818D01*
X181991402Y-204939494D01*
X181991241Y-205031091D01*
X181991225Y-205068418D01*
X180532114Y-205068418D01*
X180532402Y-205008471D01*
X180532946Y-204886513D01*
X180533252Y-204812478D01*
X180536168Y-204083135D01*
X179226253Y-204079507D01*
X177916339Y-204075878D01*
X177883682Y-204056630D01*
X177844494Y-204025233D01*
X177813513Y-203982567D01*
X177791444Y-203929788D01*
X177782121Y-203890078D01*
X177780287Y-203872326D01*
X177778770Y-203841994D01*
X177777567Y-203798813D01*
X177776675Y-203742517D01*
X177776092Y-203672839D01*
X177775815Y-203589511D01*
X177775840Y-203492267D01*
X177776165Y-203380838D01*
X177776280Y-203353793D01*
X177778453Y-202863935D01*
X177795024Y-202822954D01*
X177815605Y-202783492D01*
X177842994Y-202747079D01*
X177873713Y-202717827D01*
X177896191Y-202703381D01*
X177900795Y-202701327D01*
X177906421Y-202699484D01*
X177913861Y-202697836D01*
X177923906Y-202696368D01*
X177937348Y-202695065D01*
X177954976Y-202693912D01*
X177977583Y-202692892D01*
X178005959Y-202691992D01*
X178040896Y-202691195D01*
X178083185Y-202690487D01*
X178133616Y-202689852D01*
X178192982Y-202689274D01*
X178262072Y-202688739D01*
X178341679Y-202688231D01*
X178432594Y-202687736D01*
X178535606Y-202687236D01*
X178651509Y-202686718D01*
X178781092Y-202686166D01*
X178788421Y-202686135D01*
X179653246Y-202682507D01*
X179225084Y-201495964D01*
X179171179Y-201346565D01*
X179121990Y-201210186D01*
X179077299Y-201086198D01*
X179036887Y-200973971D01*
X179000539Y-200872875D01*
X178968034Y-200782280D01*
X178939156Y-200701558D01*
X178913687Y-200630077D01*
X178891408Y-200567209D01*
X178872103Y-200512324D01*
X178855553Y-200464791D01*
X178841540Y-200423982D01*
X178829847Y-200389267D01*
X178820255Y-200360015D01*
X178812548Y-200335597D01*
X178806506Y-200315384D01*
X178801913Y-200298746D01*
X178798550Y-200285052D01*
X178796199Y-200273674D01*
X178794644Y-200263981D01*
X178793665Y-200255345D01*
X178793045Y-200247134D01*
X178793038Y-200247022D01*
X178793789Y-200187012D01*
X178804409Y-200130997D01*
X178825755Y-200077104D01*
X178858685Y-200023457D01*
X178904055Y-199968181D01*
X178935364Y-199935669D01*
X179001780Y-199876161D01*
X179079214Y-199818579D01*
X179168218Y-199762632D01*
X179269344Y-199708030D01*
X179383144Y-199654481D01*
X179510169Y-199601696D01*
X179650970Y-199549383D01*
X179701596Y-199531817D01*
X179854639Y-199482739D01*
X180019667Y-199435671D01*
X180194225Y-199391126D01*
X180375863Y-199349617D01*
X180562127Y-199311657D01*
X180750565Y-199277759D01*
X180938723Y-199248436D01*
X181124149Y-199224203D01*
X181224427Y-199213194D01*
X181274057Y-199208135D01*
X181248838Y-199243521D01*
X181217831Y-199292653D01*
X181185949Y-199353603D01*
X181154307Y-199423810D01*
X181124018Y-199500714D01*
X181096199Y-199581755D01*
X181083575Y-199622989D01*
X181045315Y-199771649D01*
X181014222Y-199931971D01*
X180990338Y-200102970D01*
X180973705Y-200283665D01*
X180964367Y-200473071D01*
X180962366Y-200670205D01*
X180967742Y-200874083D01*
X180980540Y-201083722D01*
X181000802Y-201298139D01*
X181008594Y-201365335D01*
X181033487Y-201551454D01*
X181064116Y-201747124D01*
X181099818Y-201948867D01*
X181139932Y-202153207D01*
X181183795Y-202356667D01*
X181230744Y-202555768D01*
X181249804Y-202631707D01*
X181262784Y-202682507D01*
X181352054Y-202684551D01*
X181441323Y-202686595D01*
X181437896Y-202662780D01*
X181435311Y-202649388D01*
X181429812Y-202624062D01*
X181421897Y-202588975D01*
X181412060Y-202546300D01*
X181400797Y-202498213D01*
X181390281Y-202453907D01*
X181319814Y-202137305D01*
X181260661Y-201824195D01*
X181212100Y-201510194D01*
X181173411Y-201190920D01*
X181159847Y-201053278D01*
X181155962Y-201002426D01*
X181152524Y-200940496D01*
X181149568Y-200869936D01*
X181147130Y-200793193D01*
X181145243Y-200712714D01*
X181143943Y-200630945D01*
X181143265Y-200550334D01*
X181143250Y-200495613D01*
X182225980Y-200495613D01*
X182234849Y-200567250D01*
X182255596Y-200636817D01*
X182288256Y-200702533D01*
X182332861Y-200762616D01*
X182347028Y-200777713D01*
X182404430Y-200826083D01*
X182468033Y-200861572D01*
X182536803Y-200883877D01*
X182609705Y-200892700D01*
X182685706Y-200887741D01*
X182710633Y-200883169D01*
X182777346Y-200861924D01*
X182837924Y-200828665D01*
X182891412Y-200784937D01*
X182936857Y-200732284D01*
X182973302Y-200672251D01*
X182999793Y-200606382D01*
X183015376Y-200536223D01*
X183019094Y-200463317D01*
X183011484Y-200396507D01*
X182990367Y-200322064D01*
X182957324Y-200255536D01*
X182911698Y-200195687D01*
X182895399Y-200178793D01*
X182837777Y-200130499D01*
X182776477Y-200096011D01*
X182710317Y-200074838D01*
X182638114Y-200066487D01*
X182625057Y-200066307D01*
X182549732Y-200072428D01*
X182481178Y-200091118D01*
X182418118Y-200122869D01*
X182359273Y-200168172D01*
X182358621Y-200168769D01*
X182308608Y-200224019D01*
X182270303Y-200286111D01*
X182243741Y-200353262D01*
X182228955Y-200423690D01*
X182225980Y-200495613D01*
X181143250Y-200495613D01*
X181143243Y-200473329D01*
X181143913Y-200402376D01*
X181145309Y-200339921D01*
X181147465Y-200288414D01*
X181148690Y-200269507D01*
X181165255Y-200098236D01*
X181188488Y-199939605D01*
X181218500Y-199793305D01*
X181255401Y-199659026D01*
X181299303Y-199536459D01*
X181350317Y-199425295D01*
X181408554Y-199325225D01*
X181474126Y-199235938D01*
X181547143Y-199157127D01*
X181549411Y-199154958D01*
X181631114Y-199084991D01*
X181725971Y-199017839D01*
X181832815Y-198953965D01*
X181950477Y-198893832D01*
X182077790Y-198837902D01*
X182213585Y-198786639D01*
X182356695Y-198740505D01*
X182505952Y-198699962D01*
X182660187Y-198665475D01*
X182818233Y-198637506D01*
X182876596Y-198629017D01*
X182935733Y-198622282D01*
X183004158Y-198616758D01*
X183078519Y-198612536D01*
X183155459Y-198609706D01*
X183231627Y-198608356D01*
X183303668Y-198608576D01*
X183368229Y-198610457D01*
X183421954Y-198614087D01*
X183424856Y-198614372D01*
X183531620Y-198628463D01*
X183631027Y-198648359D01*
X183721147Y-198673569D01*
X183800050Y-198703605D01*
X183827817Y-198716748D01*
X183850386Y-198727541D01*
X183867369Y-198734538D01*
X183875204Y-198736277D01*
X183875270Y-198736224D01*
X183875847Y-198728313D01*
X183875419Y-198708578D01*
X183874092Y-198679663D01*
X183871974Y-198644215D01*
X183870922Y-198628706D01*
X183853843Y-198461642D01*
X183826621Y-198304364D01*
X183789134Y-198156759D01*
X183741257Y-198018714D01*
X183682867Y-197890119D01*
X183613841Y-197770860D01*
X183534055Y-197660826D01*
X183443385Y-197559904D01*
X183341709Y-197467982D01*
X183228902Y-197384949D01*
X183104841Y-197310691D01*
X182969403Y-197245098D01*
X182822464Y-197188056D01*
X182663901Y-197139454D01*
X182493590Y-197099179D01*
X182311407Y-197067119D01*
X182125482Y-197043993D01*
X182049290Y-197037191D01*
X181962545Y-197031060D01*
X181867641Y-197025660D01*
X181766972Y-197021051D01*
X181662933Y-197017293D01*
X181557917Y-197014446D01*
X181454319Y-197012571D01*
X181354533Y-197011727D01*
X181260953Y-197011975D01*
X181175975Y-197013375D01*
X181101991Y-197015987D01*
X181073196Y-197017557D01*
X180831894Y-197038359D01*
X180583501Y-197071119D01*
X180328695Y-197115533D01*
X180068155Y-197171298D01*
X179802558Y-197238114D01*
X179532584Y-197315675D01*
X179258911Y-197403681D01*
X178982216Y-197501828D01*
X178703179Y-197609815D01*
X178422477Y-197727337D01*
X178140789Y-197854093D01*
X177858793Y-197989780D01*
X177577168Y-198134096D01*
X177296592Y-198286737D01*
X177017743Y-198447402D01*
X176741300Y-198615787D01*
X176467941Y-198791590D01*
X176198344Y-198974509D01*
X175933187Y-199164240D01*
X175673149Y-199360482D01*
X175481547Y-199512029D01*
X175276345Y-199682247D01*
X175074072Y-199859073D01*
X174876699Y-200040622D01*
X174686192Y-200225007D01*
X174504522Y-200410342D01*
X174333656Y-200594742D01*
X174236461Y-200704935D01*
X174070872Y-200903628D01*
X173917203Y-201102818D01*
X173775671Y-201302094D01*
X173646498Y-201501043D01*
X173529902Y-201699252D01*
X173426104Y-201896309D01*
X173335323Y-202091801D01*
X173257778Y-202285316D01*
X173193691Y-202476441D01*
X173143279Y-202664764D01*
X173112660Y-202814754D01*
X173105513Y-202857585D01*
X173098887Y-202900839D01*
X173093460Y-202939850D01*
X173089913Y-202969948D01*
X173089590Y-202973354D01*
X173084571Y-203028734D01*
X173120975Y-203002580D01*
X173175634Y-202967910D01*
X173242832Y-202932992D01*
X173320628Y-202898566D01*
X173407081Y-202865370D01*
X173500249Y-202834144D01*
X173598192Y-202805628D01*
X173698968Y-202780562D01*
X173710825Y-202777895D01*
X173790882Y-202761698D01*
X173871509Y-202748384D01*
X173950769Y-202738079D01*
X174026730Y-202730908D01*
X174097457Y-202726998D01*
X174161016Y-202726473D01*
X174215475Y-202729459D01*
X174258897Y-202736081D01*
X174276866Y-202741140D01*
X174304856Y-202753346D01*
X174320767Y-202766711D01*
X174324500Y-202773221D01*
X174325911Y-202781864D01*
X174326978Y-202800676D01*
X174327699Y-202830117D01*
X174328072Y-202870648D01*
X174328095Y-202922729D01*
X174327767Y-202986821D01*
X174327086Y-203063385D01*
X174326051Y-203152881D01*
X174324659Y-203255771D01*
X174322908Y-203372513D01*
X174322057Y-203426364D01*
X174320499Y-203521075D01*
X174318934Y-203611593D01*
X174317383Y-203696872D01*
X174315870Y-203775866D01*
X174314417Y-203847528D01*
X174313046Y-203910811D01*
X174311781Y-203964670D01*
X174310643Y-204008058D01*
X174309655Y-204039928D01*
X174308840Y-204059234D01*
X174308293Y-204064993D01*
X174300667Y-204065557D01*
X174279569Y-204066146D01*
X174246040Y-204066751D01*
X174201122Y-204067362D01*
X174145857Y-204067968D01*
X174081287Y-204068561D01*
X174008453Y-204069131D01*
X173928397Y-204069668D01*
X173842161Y-204070163D01*
X173750787Y-204070605D01*
X173664001Y-204070954D01*
X173023295Y-204073287D01*
X173018780Y-204110868D01*
X173016626Y-204136413D01*
X173015013Y-204170006D01*
X173014232Y-204205186D01*
X173014202Y-204211910D01*
X173014139Y-204275370D01*
X172803468Y-204275370D01*
X172806475Y-204158871D01*
X172823936Y-203749020D01*
X172847985Y-203350916D01*
X172865579Y-203117935D01*
X172879953Y-202968455D01*
X172898116Y-202829858D01*
X172920730Y-202698855D01*
X172948455Y-202572154D01*
X172981952Y-202446467D01*
X173021883Y-202318503D01*
X173032529Y-202286993D01*
X173108700Y-202084463D01*
X173198970Y-201880119D01*
X173303079Y-201674273D01*
X173420769Y-201467236D01*
X173551780Y-201259319D01*
X173695853Y-201050831D01*
X173852728Y-200842086D01*
X174022147Y-200633392D01*
X174203851Y-200425062D01*
X174397579Y-200217406D01*
X174603074Y-200010736D01*
X174820075Y-199805361D01*
X175048323Y-199601594D01*
X175287560Y-199399745D01*
X175537526Y-199200124D01*
X175724682Y-199057442D01*
X175989224Y-198864857D01*
X176258916Y-198678760D01*
X176533021Y-198499474D01*
X176810801Y-198327319D01*
X177091519Y-198162617D01*
X177374436Y-198005691D01*
X177658814Y-197856861D01*
X177943917Y-197716450D01*
X178229006Y-197584779D01*
X178513343Y-197462169D01*
X178796191Y-197348943D01*
X179076813Y-197245422D01*
X179354470Y-197151928D01*
X179628424Y-197068782D01*
X179897938Y-196996306D01*
X180162275Y-196934822D01*
X180420696Y-196884652D01*
X180672464Y-196846116D01*
X180841083Y-196826563D01*
X180966796Y-196816177D01*
X181103957Y-196808827D01*
X181249833Y-196804452D01*
X181401691Y-196802994D01*
X181556800Y-196804393D01*
X181556800Y-196804393D01*
G37*
X181556800Y-196804393D02*
X181712425Y-196808590D01*
X181865834Y-196815525D01*
X182014294Y-196825139D01*
X182155073Y-196837373D01*
X182285439Y-196852167D01*
X182335939Y-196859058D01*
X182527458Y-196891937D01*
X182707567Y-196933742D01*
X182876346Y-196984531D01*
X183033876Y-197044360D01*
X183180235Y-197113286D01*
X183315503Y-197191367D01*
X183439759Y-197278659D01*
X183553085Y-197375220D01*
X183655558Y-197481106D01*
X183747258Y-197596375D01*
X183828266Y-197721083D01*
X183898661Y-197855287D01*
X183958522Y-197999045D01*
X183968851Y-198027842D01*
X184005753Y-198148433D01*
X184036236Y-198279967D01*
X184059984Y-198420218D01*
X184076682Y-198566960D01*
X184086012Y-198717967D01*
X184087739Y-198865250D01*
X184087688Y-198927348D01*
X184089339Y-198975155D01*
X184092690Y-199008623D01*
X184095308Y-199021084D01*
X184098987Y-199036841D01*
X184101798Y-199055892D01*
X184103740Y-199079572D01*
X184104816Y-199109216D01*
X184105028Y-199146161D01*
X184104376Y-199191741D01*
X184102863Y-199247293D01*
X184100490Y-199314151D01*
X184097258Y-199393653D01*
X184095796Y-199427678D01*
X184094120Y-199469589D01*
X184092614Y-199514796D01*
X184091271Y-199564136D01*
X184090083Y-199618447D01*
X184089043Y-199678565D01*
X184088144Y-199745327D01*
X184087380Y-199819571D01*
X184086743Y-199902134D01*
X184086226Y-199993853D01*
X184085822Y-200095564D01*
X184085524Y-200208106D01*
X184085325Y-200332315D01*
X184085218Y-200469029D01*
X184085195Y-200619083D01*
X184085209Y-200683164D01*
X184085328Y-200812353D01*
X184085605Y-200942885D01*
X184086030Y-201073948D01*
X184086592Y-201204730D01*
X184087283Y-201334417D01*
X184088094Y-201462197D01*
X184089014Y-201587259D01*
X184090035Y-201708789D01*
X184091147Y-201825974D01*
X184092340Y-201938003D01*
X184093606Y-202044063D01*
X184094934Y-202143341D01*
X184096315Y-202235025D01*
X184097740Y-202318302D01*
X184099200Y-202392360D01*
X184100685Y-202456387D01*
X184102185Y-202509569D01*
X184103691Y-202551094D01*
X184105194Y-202580151D01*
X184106684Y-202595925D01*
X184107446Y-202598605D01*
X184117133Y-202599757D01*
X184138611Y-202597412D01*
X184169723Y-202592080D01*
X184208309Y-202584273D01*
X184252212Y-202574500D01*
X184299273Y-202563273D01*
X184347334Y-202551103D01*
X184394237Y-202538501D01*
X184437823Y-202525977D01*
X184475935Y-202514043D01*
X184499705Y-202505757D01*
X184595866Y-202465098D01*
X184680674Y-202418827D01*
X184753539Y-202367396D01*
X184813871Y-202311259D01*
X184861078Y-202250868D01*
X184883425Y-202211630D01*
X184908882Y-202159993D01*
X184999387Y-201223821D01*
X185010525Y-201108522D01*
X185021270Y-200997112D01*
X185031539Y-200890455D01*
X185041251Y-200789416D01*
X185050322Y-200694860D01*
X185058670Y-200607652D01*
X185066213Y-200528657D01*
X185072867Y-200458739D01*
X185078550Y-200398764D01*
X185083181Y-200349597D01*
X185086675Y-200312102D01*
X185088951Y-200287144D01*
X185089927Y-200275589D01*
X185089958Y-200274950D01*
X185091300Y-200269630D01*
X185096813Y-200266032D01*
X185108825Y-200263827D01*
X185129664Y-200262686D01*
X185161659Y-200262280D01*
X185179937Y-200262250D01*
X185264650Y-200258657D01*
X185345623Y-200247436D01*
X185424314Y-200227923D01*
X185502177Y-200199454D01*
X185580667Y-200161367D01*
X185661240Y-200112997D01*
X185745352Y-200053681D01*
X185834458Y-199982756D01*
X185882020Y-199942137D01*
X185932167Y-199899008D01*
X185972776Y-199865942D01*
X186004827Y-199842997D01*
X186029303Y-199830235D01*
X186047182Y-199827715D01*
X186059445Y-199835498D01*
X186067074Y-199853645D01*
X186071047Y-199882215D01*
X186072347Y-199921268D01*
X186072204Y-199953821D01*
X186071561Y-199969169D01*
X186069876Y-199998123D01*
X186067214Y-200039817D01*
X186063640Y-200093386D01*
X186059217Y-200157963D01*
X186054011Y-200232682D01*
X186048085Y-200316678D01*
X186041504Y-200409084D01*
X186034331Y-200509035D01*
X186026632Y-200615664D01*
X186018471Y-200728106D01*
X186009911Y-200845495D01*
X186001018Y-200966965D01*
X185991855Y-201091650D01*
X185982487Y-201218683D01*
X185972977Y-201347200D01*
X185963392Y-201476333D01*
X185953794Y-201605218D01*
X185944247Y-201732987D01*
X185934817Y-201858776D01*
X185925568Y-201981718D01*
X185916564Y-202100948D01*
X185907868Y-202215598D01*
X185899546Y-202324805D01*
X185891662Y-202427700D01*
X185884280Y-202523419D01*
X185877464Y-202611096D01*
X185871279Y-202689865D01*
X185865789Y-202758859D01*
X185861058Y-202817212D01*
X185857150Y-202864060D01*
X185854131Y-202898535D01*
X185852063Y-202919773D01*
X185851812Y-202921993D01*
X185833748Y-203040186D01*
X185808101Y-203148410D01*
X185774082Y-203249517D01*
X185739688Y-203328495D01*
X185688667Y-203420855D01*
X185627820Y-203505848D01*
X185556707Y-203583756D01*
X185474887Y-203654863D01*
X185381919Y-203719451D01*
X185277363Y-203777805D01*
X185160778Y-203830207D01*
X185031724Y-203876940D01*
X184889760Y-203918287D01*
X184781511Y-203944391D01*
X184713335Y-203958704D01*
X184635378Y-203973609D01*
X184552305Y-203988307D01*
X184468783Y-204001996D01*
X184389477Y-204013877D01*
X184329839Y-204021836D01*
X184290927Y-204027531D01*
X184266198Y-204033204D01*
X184255802Y-204038817D01*
X184255453Y-204040037D01*
X184256251Y-204048244D01*
X184258581Y-204069999D01*
X184262345Y-204104428D01*
X184267444Y-204150655D01*
X184273783Y-204207807D01*
X184281262Y-204275009D01*
X184289785Y-204351387D01*
X184299254Y-204436065D01*
X184309572Y-204528170D01*
X184320640Y-204626826D01*
X184332361Y-204731160D01*
X184344637Y-204840296D01*
X184357157Y-204951449D01*
X184373678Y-205098053D01*
X184388654Y-205231022D01*
X184402159Y-205351144D01*
X184414270Y-205459207D01*
X184425063Y-205555999D01*
X184434613Y-205642310D01*
X184442997Y-205718926D01*
X184450290Y-205786636D01*
X184456568Y-205846228D01*
X184461909Y-205898491D01*
X184466386Y-205944212D01*
X184470077Y-205984180D01*
X184473057Y-206019184D01*
X184475402Y-206050010D01*
X184477189Y-206077448D01*
X184478492Y-206102285D01*
X184479389Y-206125310D01*
X184479955Y-206147312D01*
X184480265Y-206169077D01*
X184480397Y-206191395D01*
X184480425Y-206215053D01*
X184480425Y-206230645D01*
X184475952Y-206382864D01*
X184462440Y-206524047D01*
X184439744Y-206654624D01*
X184407723Y-206775029D01*
X184366234Y-206885690D01*
X184315132Y-206987042D01*
X184254277Y-207079513D01*
X184183524Y-207163537D01*
X184165215Y-207182332D01*
X184084728Y-207254107D01*
X183996113Y-207316518D01*
X183898761Y-207369791D01*
X183792067Y-207414154D01*
X183675423Y-207449832D01*
X183548221Y-207477052D01*
X183409856Y-207496041D01*
X183301139Y-207504855D01*
X183154110Y-207508310D01*
X183016209Y-207500511D01*
X182887360Y-207481426D01*
X182767485Y-207451023D01*
X182656509Y-207409269D01*
X182554354Y-207356133D01*
X182460945Y-207291583D01*
X182376204Y-207215587D01*
X182300056Y-207128113D01*
X182257860Y-207069207D01*
X182208419Y-206989014D01*
X182164782Y-206905228D01*
X182126556Y-206816473D01*
X182093348Y-206721374D01*
X182064764Y-206618557D01*
X182040411Y-206506647D01*
X182019894Y-206384269D01*
X182002821Y-206250049D01*
X181992017Y-206140535D01*
X181990199Y-206122017D01*
X181988744Y-206112735D01*
X181987604Y-206113508D01*
X181986733Y-206125153D01*
X181986084Y-206148488D01*
X181985609Y-206184333D01*
X181985262Y-206233504D01*
X181985134Y-206260278D01*
X181983900Y-206548659D01*
X181982722Y-206822864D01*
X181981598Y-207083233D01*
X181980527Y-207330105D01*
X181979507Y-207563818D01*
X181978536Y-207784713D01*
X181977612Y-207993128D01*
X181976734Y-208189401D01*
X181975900Y-208373873D01*
X181975107Y-208546881D01*
X181974355Y-208708765D01*
X181973642Y-208859865D01*
X181972965Y-209000518D01*
X181972323Y-209131064D01*
X181971714Y-209251843D01*
X181971137Y-209363192D01*
X181970589Y-209465452D01*
X181970069Y-209558960D01*
X181969574Y-209644057D01*
X181969105Y-209721080D01*
X181968657Y-209790370D01*
X181968231Y-209852265D01*
X181967823Y-209907104D01*
X181967432Y-209955226D01*
X181967057Y-209996971D01*
X181966695Y-210032676D01*
X181966345Y-210062682D01*
X181966006Y-210087327D01*
X181965674Y-210106950D01*
X181965349Y-210121890D01*
X181965029Y-210132487D01*
X181964811Y-210137407D01*
X181960799Y-210211793D01*
X181447421Y-210211793D01*
X181355474Y-210211721D01*
X181262531Y-210211514D01*
X181170453Y-210211184D01*
X181081105Y-210210743D01*
X180996350Y-210210204D01*
X180918049Y-210209579D01*
X180848067Y-210208880D01*
X180788265Y-210208120D01*
X180740507Y-210207311D01*
X180727848Y-210207038D01*
X180521653Y-210202284D01*
X180523953Y-209544824D01*
X180524202Y-209454027D01*
X180524365Y-209350367D01*
X180524445Y-209235493D01*
X180524443Y-209111057D01*
X180524363Y-208978709D01*
X180524207Y-208840099D01*
X180523977Y-208696878D01*
X180523678Y-208550697D01*
X180523310Y-208403206D01*
X180522877Y-208256054D01*
X180522381Y-208110894D01*
X180521825Y-207969375D01*
X180521249Y-207840755D01*
X180516244Y-206794146D01*
X180464520Y-206837215D01*
X180436936Y-206860369D01*
X180409363Y-206883822D01*
X180386690Y-206903408D01*
X180381766Y-206907738D01*
X180350735Y-206935193D01*
X180343784Y-208332193D01*
X180343067Y-208477424D01*
X180342369Y-208621001D01*
X180341694Y-208762056D01*
X180341046Y-208899720D01*
X180340428Y-209033127D01*
X180339844Y-209161406D01*
X180339298Y-209283691D01*
X180338794Y-209399113D01*
X180338336Y-209506804D01*
X180337926Y-209605896D01*
X180337570Y-209695520D01*
X180337270Y-209774809D01*
X180337031Y-209842894D01*
X180336856Y-209898907D01*
X180336749Y-209941980D01*
X180336714Y-209966864D01*
X180336596Y-210204535D01*
X179857625Y-210204535D01*
X179857625Y-208702307D01*
X179857612Y-208555757D01*
X179857577Y-208413108D01*
X179857518Y-208275035D01*
X179857439Y-208142213D01*
X179857339Y-208015318D01*
X179857220Y-207895025D01*
X179857083Y-207782009D01*
X179856929Y-207676946D01*
X179856760Y-207580510D01*
X179856577Y-207493377D01*
X179856380Y-207416223D01*
X179856171Y-207349723D01*
X179855951Y-207294552D01*
X179855722Y-207251385D01*
X179855483Y-207220897D01*
X179855238Y-207203765D01*
X179855057Y-207200078D01*
X179847763Y-207202527D01*
X179829215Y-207209304D01*
X179801720Y-207219550D01*
X179767579Y-207232410D01*
X179740757Y-207242586D01*
X179698453Y-207258497D01*
X179656455Y-207273972D01*
X179618569Y-207287629D01*
X179588602Y-207298087D01*
X179578225Y-207301541D01*
X179552645Y-207310264D01*
X179532563Y-207317927D01*
X179521959Y-207323001D01*
X179521560Y-207323318D01*
X179521269Y-207331788D01*
X179524163Y-207351884D01*
X179529785Y-207381183D01*
X179537681Y-207417259D01*
X179544895Y-207447606D01*
X179561856Y-207518969D01*
X179575497Y-207582429D01*
X179586161Y-207641038D01*
X179594192Y-207697844D01*
X179599933Y-207755899D01*
X179603728Y-207818253D01*
X179605920Y-207887956D01*
X179606854Y-207968059D01*
X179606946Y-207998364D01*
X179606930Y-208064112D01*
X179606596Y-208117835D01*
X179605820Y-208162020D01*
X179604476Y-208199154D01*
X179602438Y-208231726D01*
X179599580Y-208262223D01*
X179595778Y-208293133D01*
X179590906Y-208326943D01*
X179590110Y-208332193D01*
X179555242Y-208514671D01*
X179507205Y-208691151D01*
X179446065Y-208861479D01*
X179371891Y-209025502D01*
X179284751Y-209183067D01*
X179184711Y-209334023D01*
X179093909Y-209451785D01*
X179059217Y-209491789D01*
X179016356Y-209537840D01*
X178968078Y-209587253D01*
X178917133Y-209637343D01*
X178866272Y-209685423D01*
X178818247Y-209728810D01*
X178775809Y-209764818D01*
X178761796Y-209775948D01*
X178614346Y-209881494D01*
X178461822Y-209973443D01*
X178304199Y-210051802D01*
X178141455Y-210116581D01*
X177973566Y-210167790D01*
X177800508Y-210205437D01*
X177622259Y-210229532D01*
X177579245Y-210233257D01*
X177500118Y-210237752D01*
X177419191Y-210239393D01*
X177342677Y-210238117D01*
X177303110Y-210236039D01*
X177128477Y-210218056D01*
X176961436Y-210188437D01*
X176800337Y-210146731D01*
X176643526Y-210092490D01*
X176489351Y-210025264D01*
X176443139Y-210002383D01*
X176375391Y-209965816D01*
X176302370Y-209922743D01*
X176228206Y-209875820D01*
X176157024Y-209827706D01*
X176092955Y-209781057D01*
X176063375Y-209757902D01*
X175939484Y-209649133D01*
X175822206Y-209528626D01*
X175713003Y-209398210D01*
X175613340Y-209259720D01*
X175524683Y-209114986D01*
X175476031Y-209023213D01*
X175415842Y-208894199D01*
X175365500Y-208767167D01*
X175323948Y-208638653D01*
X175290127Y-208505194D01*
X175262980Y-208363326D01*
X175251647Y-208288650D01*
X175247204Y-208246935D01*
X175243725Y-208194040D01*
X175241217Y-208132866D01*
X175239685Y-208066310D01*
X175239134Y-207997270D01*
X175239220Y-207983734D01*
X176753536Y-207983734D01*
X176754378Y-208027393D01*
X176762715Y-208174203D01*
X176778079Y-208315192D01*
X176800158Y-208449670D01*
X176828637Y-208576950D01*
X176863203Y-208696343D01*
X176903541Y-208807160D01*
X176949339Y-208908714D01*
X177000283Y-209000316D01*
X177056060Y-209081277D01*
X177116354Y-209150910D01*
X177180854Y-209208527D01*
X177249244Y-209253438D01*
X177321213Y-209284956D01*
X177328510Y-209287319D01*
X177359014Y-209293375D01*
X177398414Y-209296332D01*
X177441435Y-209296230D01*
X177482804Y-209293107D01*
X177517246Y-209287003D01*
X177521322Y-209285882D01*
X177584471Y-209260429D01*
X177647254Y-209221574D01*
X177708577Y-209170414D01*
X177767344Y-209108043D01*
X177822459Y-209035555D01*
X177872827Y-208954045D01*
X177894623Y-208912782D01*
X177943793Y-208804568D01*
X177985913Y-208689673D01*
X178021461Y-208566420D01*
X178050912Y-208433131D01*
X178074743Y-208288130D01*
X178077277Y-208269647D01*
X178081422Y-208230869D01*
X178084747Y-208183668D01*
X178087274Y-208129865D01*
X178089020Y-208071280D01*
X178090008Y-208009732D01*
X178090257Y-207947041D01*
X178089787Y-207885027D01*
X178088618Y-207825510D01*
X178086771Y-207770311D01*
X178084265Y-207721249D01*
X178081121Y-207680144D01*
X178077360Y-207648815D01*
X178073000Y-207629084D01*
X178070121Y-207623584D01*
X178062091Y-207623062D01*
X178042058Y-207623825D01*
X178012463Y-207625722D01*
X177975744Y-207628601D01*
X177944304Y-207631379D01*
X177829667Y-207641464D01*
X177718956Y-207650093D01*
X177609356Y-207657411D01*
X177498053Y-207663566D01*
X177382231Y-207668705D01*
X177259076Y-207672975D01*
X177125772Y-207676523D01*
X177047389Y-207678214D01*
X176985750Y-207679555D01*
X176928735Y-207681001D01*
X176877959Y-207682494D01*
X176835035Y-207683979D01*
X176801579Y-207685398D01*
X176779204Y-207686696D01*
X176769524Y-207687815D01*
X176769286Y-207687941D01*
X176766058Y-207698092D01*
X176762989Y-207720474D01*
X176760179Y-207752803D01*
X176757730Y-207792796D01*
X176755740Y-207838169D01*
X176754311Y-207886638D01*
X176753543Y-207935921D01*
X176753536Y-207983734D01*
X175239220Y-207983734D01*
X175239570Y-207928646D01*
X175240998Y-207863334D01*
X175243424Y-207804236D01*
X175246853Y-207754247D01*
X175250571Y-207721015D01*
X175260761Y-207650495D01*
X175242350Y-207646940D01*
X175229937Y-207645701D01*
X175205364Y-207644201D01*
X175170982Y-207642547D01*
X175129139Y-207640847D01*
X175082187Y-207639211D01*
X175058839Y-207638489D01*
X174893739Y-207633593D01*
X174893739Y-210190021D01*
X174472865Y-210190021D01*
X174471030Y-208896435D01*
X174469196Y-207602850D01*
X174383786Y-207596336D01*
X174350231Y-207594024D01*
X174322374Y-207592573D01*
X174303158Y-207592102D01*
X174295548Y-207592708D01*
X174295221Y-207600150D01*
X174294847Y-207621377D01*
X174294429Y-207655661D01*
X174293972Y-207702273D01*
X174293480Y-207760483D01*
X174292959Y-207829563D01*
X174292412Y-207908784D01*
X174291844Y-207997418D01*
X174291260Y-208094734D01*
X174290665Y-208200006D01*
X174290063Y-208312502D01*
X174289458Y-208431496D01*
X174288855Y-208556257D01*
X174288259Y-208686057D01*
X174287675Y-208820168D01*
X174287371Y-208892807D01*
X174282022Y-210190021D01*
X172832710Y-210190021D01*
X172832636Y-208446493D01*
X172832621Y-208256272D01*
X172832592Y-208079908D01*
X172832543Y-207916742D01*
X172832470Y-207766119D01*
X172832368Y-207627378D01*
X172832233Y-207499864D01*
X172832173Y-207458537D01*
X176802368Y-207458537D01*
X176802368Y-207476887D01*
X176992868Y-207472458D01*
X177057118Y-207470817D01*
X177128550Y-207468745D01*
X177202150Y-207466403D01*
X177272908Y-207463954D01*
X177335812Y-207461558D01*
X177353910Y-207460811D01*
X177423580Y-207457626D01*
X177495832Y-207453893D01*
X177569150Y-207449725D01*
X177642022Y-207445233D01*
X177712932Y-207440532D01*
X177780367Y-207435734D01*
X177842812Y-207430951D01*
X177898753Y-207426297D01*
X177946677Y-207421884D01*
X177985069Y-207417826D01*
X178012414Y-207414235D01*
X178027199Y-207411224D01*
X178028875Y-207410504D01*
X178031314Y-207400863D01*
X178028850Y-207378984D01*
X178021793Y-207346174D01*
X178010456Y-207303742D01*
X177995149Y-207252994D01*
X177981027Y-207209591D01*
X177940123Y-207100112D01*
X177894189Y-207000471D01*
X177843732Y-206911167D01*
X177789260Y-206832698D01*
X177731279Y-206765560D01*
X177670297Y-206710252D01*
X177606821Y-206667271D01*
X177541359Y-206637115D01*
X177474419Y-206620281D01*
X177406506Y-206617268D01*
X177379875Y-206619945D01*
X177316821Y-206633734D01*
X177258210Y-206657230D01*
X177201873Y-206691662D01*
X177145643Y-206738258D01*
X177111522Y-206772075D01*
X177044361Y-206852136D01*
X176983425Y-206945138D01*
X176928825Y-207050858D01*
X176880672Y-207169075D01*
X176839075Y-207299566D01*
X176827209Y-207343719D01*
X176818027Y-207380680D01*
X176810378Y-207413961D01*
X176804956Y-207440351D01*
X176802456Y-207456638D01*
X176802368Y-207458537D01*
X172832173Y-207458537D01*
X172832061Y-207382918D01*
X172831847Y-207275883D01*
X172831586Y-207178101D01*
X172831275Y-207088915D01*
X172830907Y-207007666D01*
X172830480Y-206933697D01*
X172829989Y-206866350D01*
X172829429Y-206804969D01*
X172828795Y-206748894D01*
X172828083Y-206697469D01*
X172827289Y-206650036D01*
X172826408Y-206605937D01*
X172825435Y-206564515D01*
X172824367Y-206525111D01*
X172823198Y-206487069D01*
X172821925Y-206449730D01*
X172820542Y-206412437D01*
X172819045Y-206374532D01*
X172818381Y-206358250D01*
X172802735Y-205900844D01*
X172793733Y-205451457D01*
X172791363Y-205010836D01*
X172795613Y-204579725D01*
X172803468Y-204275370D01*
X173014139Y-204275370D01*
X173647325Y-204277224D01*
X174280510Y-204279078D01*
X174282341Y-205837550D01*
X174282554Y-206014866D01*
X174282761Y-206178238D01*
X174282969Y-206328234D01*
X174283183Y-206465424D01*
X174283408Y-206590376D01*
X174283648Y-206703661D01*
X174283911Y-206805847D01*
X174284200Y-206897503D01*
X174284522Y-206979200D01*
X174284881Y-207051506D01*
X174285282Y-207114991D01*
X174285732Y-207170223D01*
X174286236Y-207217773D01*
X174286797Y-207258209D01*
X174287423Y-207292100D01*
X174288119Y-207320017D01*
X174288888Y-207342528D01*
X174289738Y-207360202D01*
X174290673Y-207373610D01*
X174291698Y-207383319D01*
X174292819Y-207389900D01*
X174294041Y-207393922D01*
X174295370Y-207395953D01*
X174296810Y-207396564D01*
X174296856Y-207396567D01*
X174306186Y-207396983D01*
X174328737Y-207397996D01*
X174363229Y-207399548D01*
X174408386Y-207401582D01*
X174462926Y-207404040D01*
X174525572Y-207406864D01*
X174595045Y-207409997D01*
X174670067Y-207413381D01*
X174749357Y-207416958D01*
X174759482Y-207417415D01*
X174840443Y-207421047D01*
X174918251Y-207424498D01*
X174991497Y-207427708D01*
X175058769Y-207430616D01*
X175118658Y-207433164D01*
X175169755Y-207435290D01*
X175210647Y-207436935D01*
X175239927Y-207438039D01*
X175256182Y-207438542D01*
X175256596Y-207438549D01*
X175303768Y-207439382D01*
X175327827Y-207354201D01*
X175376993Y-207204543D01*
X175439386Y-207055351D01*
X175513804Y-206908623D01*
X175599040Y-206766361D01*
X175693891Y-206630562D01*
X175797152Y-206503227D01*
X175907617Y-206386353D01*
X175915804Y-206378408D01*
X176049990Y-206258760D01*
X176191440Y-206151653D01*
X176339935Y-206057194D01*
X176495255Y-205975486D01*
X176657178Y-205906637D01*
X176825486Y-205850751D01*
X176999959Y-205807934D01*
X177161596Y-205780724D01*
X177219475Y-205774779D01*
X177287944Y-205770640D01*
X177363190Y-205768309D01*
X177441401Y-205767789D01*
X177518764Y-205769083D01*
X177591467Y-205772194D01*
X177655697Y-205777123D01*
X177684110Y-205780358D01*
X177863729Y-205810714D01*
X178036934Y-205854049D01*
X178203609Y-205910307D01*
X178363639Y-205979432D01*
X178516908Y-206061369D01*
X178663301Y-206156063D01*
X178802702Y-206263457D01*
X178930141Y-206378745D01*
X179044942Y-206497968D01*
X179147004Y-206619625D01*
X179238103Y-206746188D01*
X179320016Y-206880130D01*
X179394517Y-207023924D01*
X179396560Y-207028214D01*
X179443653Y-207127323D01*
X179547225Y-207090911D01*
X179710557Y-207030237D01*
X179874414Y-206963112D01*
X180035590Y-206891011D01*
X180190879Y-206815410D01*
X180337078Y-206737786D01*
X180430939Y-206683842D01*
X180521653Y-206629853D01*
X180525995Y-206085837D01*
X180526689Y-205994578D01*
X180527418Y-205891026D01*
X180528168Y-205777400D01*
X180528926Y-205655922D01*
X180529680Y-205528813D01*
X180530417Y-205398293D01*
X180531125Y-205266582D01*
X180531791Y-205135901D01*
X180532114Y-205068418D01*
X181991225Y-205068418D01*
X181991225Y-205510667D01*
X182016380Y-205488581D01*
X182072836Y-205445233D01*
X182139558Y-205404287D01*
X182212300Y-205367933D01*
X182286815Y-205338363D01*
X182337555Y-205322925D01*
X182374130Y-205314203D01*
X182407597Y-205308528D01*
X182443245Y-205305286D01*
X182486365Y-205303860D01*
X182502853Y-205303685D01*
X182603963Y-205308914D01*
X182698245Y-205326432D01*
X182787438Y-205356812D01*
X182873282Y-205400626D01*
X182945740Y-205449477D01*
X182994314Y-205487506D01*
X183031209Y-205520950D01*
X183057548Y-205552066D01*
X183074455Y-205583109D01*
X183083052Y-205616334D01*
X183084463Y-205653997D01*
X183079809Y-205698353D01*
X183077323Y-205713746D01*
X183069617Y-205752139D01*
X183059592Y-205793128D01*
X183049148Y-205829084D01*
X183046922Y-205835735D01*
X183028250Y-205909586D01*
X183020053Y-205990603D01*
X183021942Y-206076327D01*
X183033528Y-206164301D01*
X183054423Y-206252065D01*
X183084237Y-206337160D01*
X183122581Y-206417130D01*
X183144820Y-206454407D01*
X183164805Y-206483902D01*
X183180689Y-206501915D01*
X183195072Y-206509837D01*
X183210551Y-206509061D01*
X183229725Y-206500980D01*
X183230742Y-206500453D01*
X183261549Y-206477161D01*
X183287641Y-206441730D01*
X183309011Y-206394067D01*
X183325653Y-206334076D01*
X183337561Y-206261663D01*
X183344730Y-206176734D01*
X183347152Y-206079195D01*
X183344822Y-205968951D01*
X183337733Y-205845907D01*
X183325880Y-205709970D01*
X183309257Y-205561044D01*
X183287857Y-205399036D01*
X183261673Y-205223851D01*
X183230701Y-205035394D01*
X183194934Y-204833572D01*
X183154366Y-204618289D01*
X183108990Y-204389452D01*
X183086812Y-204281115D01*
X183076588Y-204231880D01*
X183067154Y-204186914D01*
X183058957Y-204148317D01*
X183052446Y-204118190D01*
X183048069Y-204098633D01*
X183046470Y-204092207D01*
X183045060Y-204089777D01*
X183041782Y-204087678D01*
X183035647Y-204085885D01*
X183025663Y-204084374D01*
X183010840Y-204083121D01*
X182990186Y-204082102D01*
X182962711Y-204081294D01*
X182927424Y-204080672D01*
X182883335Y-204080212D01*
X182829452Y-204079890D01*
X182764785Y-204079683D01*
X182688343Y-204079566D01*
X182599135Y-204079516D01*
X182521685Y-204079507D01*
X182000838Y-204079507D01*
X181996031Y-204352837D01*
X181995113Y-204413210D01*
X181994252Y-204485584D01*
X181993466Y-204567445D01*
X181992771Y-204656280D01*
X181992184Y-204749575D01*
X181991722Y-204844818D01*
X181991402Y-204939494D01*
X181991241Y-205031091D01*
X181991225Y-205068418D01*
X180532114Y-205068418D01*
X180532402Y-205008471D01*
X180532946Y-204886513D01*
X180533252Y-204812478D01*
X180536168Y-204083135D01*
X179226253Y-204079507D01*
X177916339Y-204075878D01*
X177883682Y-204056630D01*
X177844494Y-204025233D01*
X177813513Y-203982567D01*
X177791444Y-203929788D01*
X177782121Y-203890078D01*
X177780287Y-203872326D01*
X177778770Y-203841994D01*
X177777567Y-203798813D01*
X177776675Y-203742517D01*
X177776092Y-203672839D01*
X177775815Y-203589511D01*
X177775840Y-203492267D01*
X177776165Y-203380838D01*
X177776280Y-203353793D01*
X177778453Y-202863935D01*
X177795024Y-202822954D01*
X177815605Y-202783492D01*
X177842994Y-202747079D01*
X177873713Y-202717827D01*
X177896191Y-202703381D01*
X177900795Y-202701327D01*
X177906421Y-202699484D01*
X177913861Y-202697836D01*
X177923906Y-202696368D01*
X177937348Y-202695065D01*
X177954976Y-202693912D01*
X177977583Y-202692892D01*
X178005959Y-202691992D01*
X178040896Y-202691195D01*
X178083185Y-202690487D01*
X178133616Y-202689852D01*
X178192982Y-202689274D01*
X178262072Y-202688739D01*
X178341679Y-202688231D01*
X178432594Y-202687736D01*
X178535606Y-202687236D01*
X178651509Y-202686718D01*
X178781092Y-202686166D01*
X178788421Y-202686135D01*
X179653246Y-202682507D01*
X179225084Y-201495964D01*
X179171179Y-201346565D01*
X179121990Y-201210186D01*
X179077299Y-201086198D01*
X179036887Y-200973971D01*
X179000539Y-200872875D01*
X178968034Y-200782280D01*
X178939156Y-200701558D01*
X178913687Y-200630077D01*
X178891408Y-200567209D01*
X178872103Y-200512324D01*
X178855553Y-200464791D01*
X178841540Y-200423982D01*
X178829847Y-200389267D01*
X178820255Y-200360015D01*
X178812548Y-200335597D01*
X178806506Y-200315384D01*
X178801913Y-200298746D01*
X178798550Y-200285052D01*
X178796199Y-200273674D01*
X178794644Y-200263981D01*
X178793665Y-200255345D01*
X178793045Y-200247134D01*
X178793038Y-200247022D01*
X178793789Y-200187012D01*
X178804409Y-200130997D01*
X178825755Y-200077104D01*
X178858685Y-200023457D01*
X178904055Y-199968181D01*
X178935364Y-199935669D01*
X179001780Y-199876161D01*
X179079214Y-199818579D01*
X179168218Y-199762632D01*
X179269344Y-199708030D01*
X179383144Y-199654481D01*
X179510169Y-199601696D01*
X179650970Y-199549383D01*
X179701596Y-199531817D01*
X179854639Y-199482739D01*
X180019667Y-199435671D01*
X180194225Y-199391126D01*
X180375863Y-199349617D01*
X180562127Y-199311657D01*
X180750565Y-199277759D01*
X180938723Y-199248436D01*
X181124149Y-199224203D01*
X181224427Y-199213194D01*
X181274057Y-199208135D01*
X181248838Y-199243521D01*
X181217831Y-199292653D01*
X181185949Y-199353603D01*
X181154307Y-199423810D01*
X181124018Y-199500714D01*
X181096199Y-199581755D01*
X181083575Y-199622989D01*
X181045315Y-199771649D01*
X181014222Y-199931971D01*
X180990338Y-200102970D01*
X180973705Y-200283665D01*
X180964367Y-200473071D01*
X180962366Y-200670205D01*
X180967742Y-200874083D01*
X180980540Y-201083722D01*
X181000802Y-201298139D01*
X181008594Y-201365335D01*
X181033487Y-201551454D01*
X181064116Y-201747124D01*
X181099818Y-201948867D01*
X181139932Y-202153207D01*
X181183795Y-202356667D01*
X181230744Y-202555768D01*
X181249804Y-202631707D01*
X181262784Y-202682507D01*
X181352054Y-202684551D01*
X181441323Y-202686595D01*
X181437896Y-202662780D01*
X181435311Y-202649388D01*
X181429812Y-202624062D01*
X181421897Y-202588975D01*
X181412060Y-202546300D01*
X181400797Y-202498213D01*
X181390281Y-202453907D01*
X181319814Y-202137305D01*
X181260661Y-201824195D01*
X181212100Y-201510194D01*
X181173411Y-201190920D01*
X181159847Y-201053278D01*
X181155962Y-201002426D01*
X181152524Y-200940496D01*
X181149568Y-200869936D01*
X181147130Y-200793193D01*
X181145243Y-200712714D01*
X181143943Y-200630945D01*
X181143265Y-200550334D01*
X181143250Y-200495613D01*
X182225980Y-200495613D01*
X182234849Y-200567250D01*
X182255596Y-200636817D01*
X182288256Y-200702533D01*
X182332861Y-200762616D01*
X182347028Y-200777713D01*
X182404430Y-200826083D01*
X182468033Y-200861572D01*
X182536803Y-200883877D01*
X182609705Y-200892700D01*
X182685706Y-200887741D01*
X182710633Y-200883169D01*
X182777346Y-200861924D01*
X182837924Y-200828665D01*
X182891412Y-200784937D01*
X182936857Y-200732284D01*
X182973302Y-200672251D01*
X182999793Y-200606382D01*
X183015376Y-200536223D01*
X183019094Y-200463317D01*
X183011484Y-200396507D01*
X182990367Y-200322064D01*
X182957324Y-200255536D01*
X182911698Y-200195687D01*
X182895399Y-200178793D01*
X182837777Y-200130499D01*
X182776477Y-200096011D01*
X182710317Y-200074838D01*
X182638114Y-200066487D01*
X182625057Y-200066307D01*
X182549732Y-200072428D01*
X182481178Y-200091118D01*
X182418118Y-200122869D01*
X182359273Y-200168172D01*
X182358621Y-200168769D01*
X182308608Y-200224019D01*
X182270303Y-200286111D01*
X182243741Y-200353262D01*
X182228955Y-200423690D01*
X182225980Y-200495613D01*
X181143250Y-200495613D01*
X181143243Y-200473329D01*
X181143913Y-200402376D01*
X181145309Y-200339921D01*
X181147465Y-200288414D01*
X181148690Y-200269507D01*
X181165255Y-200098236D01*
X181188488Y-199939605D01*
X181218500Y-199793305D01*
X181255401Y-199659026D01*
X181299303Y-199536459D01*
X181350317Y-199425295D01*
X181408554Y-199325225D01*
X181474126Y-199235938D01*
X181547143Y-199157127D01*
X181549411Y-199154958D01*
X181631114Y-199084991D01*
X181725971Y-199017839D01*
X181832815Y-198953965D01*
X181950477Y-198893832D01*
X182077790Y-198837902D01*
X182213585Y-198786639D01*
X182356695Y-198740505D01*
X182505952Y-198699962D01*
X182660187Y-198665475D01*
X182818233Y-198637506D01*
X182876596Y-198629017D01*
X182935733Y-198622282D01*
X183004158Y-198616758D01*
X183078519Y-198612536D01*
X183155459Y-198609706D01*
X183231627Y-198608356D01*
X183303668Y-198608576D01*
X183368229Y-198610457D01*
X183421954Y-198614087D01*
X183424856Y-198614372D01*
X183531620Y-198628463D01*
X183631027Y-198648359D01*
X183721147Y-198673569D01*
X183800050Y-198703605D01*
X183827817Y-198716748D01*
X183850386Y-198727541D01*
X183867369Y-198734538D01*
X183875204Y-198736277D01*
X183875270Y-198736224D01*
X183875847Y-198728313D01*
X183875419Y-198708578D01*
X183874092Y-198679663D01*
X183871974Y-198644215D01*
X183870922Y-198628706D01*
X183853843Y-198461642D01*
X183826621Y-198304364D01*
X183789134Y-198156759D01*
X183741257Y-198018714D01*
X183682867Y-197890119D01*
X183613841Y-197770860D01*
X183534055Y-197660826D01*
X183443385Y-197559904D01*
X183341709Y-197467982D01*
X183228902Y-197384949D01*
X183104841Y-197310691D01*
X182969403Y-197245098D01*
X182822464Y-197188056D01*
X182663901Y-197139454D01*
X182493590Y-197099179D01*
X182311407Y-197067119D01*
X182125482Y-197043993D01*
X182049290Y-197037191D01*
X181962545Y-197031060D01*
X181867641Y-197025660D01*
X181766972Y-197021051D01*
X181662933Y-197017293D01*
X181557917Y-197014446D01*
X181454319Y-197012571D01*
X181354533Y-197011727D01*
X181260953Y-197011975D01*
X181175975Y-197013375D01*
X181101991Y-197015987D01*
X181073196Y-197017557D01*
X180831894Y-197038359D01*
X180583501Y-197071119D01*
X180328695Y-197115533D01*
X180068155Y-197171298D01*
X179802558Y-197238114D01*
X179532584Y-197315675D01*
X179258911Y-197403681D01*
X178982216Y-197501828D01*
X178703179Y-197609815D01*
X178422477Y-197727337D01*
X178140789Y-197854093D01*
X177858793Y-197989780D01*
X177577168Y-198134096D01*
X177296592Y-198286737D01*
X177017743Y-198447402D01*
X176741300Y-198615787D01*
X176467941Y-198791590D01*
X176198344Y-198974509D01*
X175933187Y-199164240D01*
X175673149Y-199360482D01*
X175481547Y-199512029D01*
X175276345Y-199682247D01*
X175074072Y-199859073D01*
X174876699Y-200040622D01*
X174686192Y-200225007D01*
X174504522Y-200410342D01*
X174333656Y-200594742D01*
X174236461Y-200704935D01*
X174070872Y-200903628D01*
X173917203Y-201102818D01*
X173775671Y-201302094D01*
X173646498Y-201501043D01*
X173529902Y-201699252D01*
X173426104Y-201896309D01*
X173335323Y-202091801D01*
X173257778Y-202285316D01*
X173193691Y-202476441D01*
X173143279Y-202664764D01*
X173112660Y-202814754D01*
X173105513Y-202857585D01*
X173098887Y-202900839D01*
X173093460Y-202939850D01*
X173089913Y-202969948D01*
X173089590Y-202973354D01*
X173084571Y-203028734D01*
X173120975Y-203002580D01*
X173175634Y-202967910D01*
X173242832Y-202932992D01*
X173320628Y-202898566D01*
X173407081Y-202865370D01*
X173500249Y-202834144D01*
X173598192Y-202805628D01*
X173698968Y-202780562D01*
X173710825Y-202777895D01*
X173790882Y-202761698D01*
X173871509Y-202748384D01*
X173950769Y-202738079D01*
X174026730Y-202730908D01*
X174097457Y-202726998D01*
X174161016Y-202726473D01*
X174215475Y-202729459D01*
X174258897Y-202736081D01*
X174276866Y-202741140D01*
X174304856Y-202753346D01*
X174320767Y-202766711D01*
X174324500Y-202773221D01*
X174325911Y-202781864D01*
X174326978Y-202800676D01*
X174327699Y-202830117D01*
X174328072Y-202870648D01*
X174328095Y-202922729D01*
X174327767Y-202986821D01*
X174327086Y-203063385D01*
X174326051Y-203152881D01*
X174324659Y-203255771D01*
X174322908Y-203372513D01*
X174322057Y-203426364D01*
X174320499Y-203521075D01*
X174318934Y-203611593D01*
X174317383Y-203696872D01*
X174315870Y-203775866D01*
X174314417Y-203847528D01*
X174313046Y-203910811D01*
X174311781Y-203964670D01*
X174310643Y-204008058D01*
X174309655Y-204039928D01*
X174308840Y-204059234D01*
X174308293Y-204064993D01*
X174300667Y-204065557D01*
X174279569Y-204066146D01*
X174246040Y-204066751D01*
X174201122Y-204067362D01*
X174145857Y-204067968D01*
X174081287Y-204068561D01*
X174008453Y-204069131D01*
X173928397Y-204069668D01*
X173842161Y-204070163D01*
X173750787Y-204070605D01*
X173664001Y-204070954D01*
X173023295Y-204073287D01*
X173018780Y-204110868D01*
X173016626Y-204136413D01*
X173015013Y-204170006D01*
X173014232Y-204205186D01*
X173014202Y-204211910D01*
X173014139Y-204275370D01*
X172803468Y-204275370D01*
X172806475Y-204158871D01*
X172823936Y-203749020D01*
X172847985Y-203350916D01*
X172865579Y-203117935D01*
X172879953Y-202968455D01*
X172898116Y-202829858D01*
X172920730Y-202698855D01*
X172948455Y-202572154D01*
X172981952Y-202446467D01*
X173021883Y-202318503D01*
X173032529Y-202286993D01*
X173108700Y-202084463D01*
X173198970Y-201880119D01*
X173303079Y-201674273D01*
X173420769Y-201467236D01*
X173551780Y-201259319D01*
X173695853Y-201050831D01*
X173852728Y-200842086D01*
X174022147Y-200633392D01*
X174203851Y-200425062D01*
X174397579Y-200217406D01*
X174603074Y-200010736D01*
X174820075Y-199805361D01*
X175048323Y-199601594D01*
X175287560Y-199399745D01*
X175537526Y-199200124D01*
X175724682Y-199057442D01*
X175989224Y-198864857D01*
X176258916Y-198678760D01*
X176533021Y-198499474D01*
X176810801Y-198327319D01*
X177091519Y-198162617D01*
X177374436Y-198005691D01*
X177658814Y-197856861D01*
X177943917Y-197716450D01*
X178229006Y-197584779D01*
X178513343Y-197462169D01*
X178796191Y-197348943D01*
X179076813Y-197245422D01*
X179354470Y-197151928D01*
X179628424Y-197068782D01*
X179897938Y-196996306D01*
X180162275Y-196934822D01*
X180420696Y-196884652D01*
X180672464Y-196846116D01*
X180841083Y-196826563D01*
X180966796Y-196816177D01*
X181103957Y-196808827D01*
X181249833Y-196804452D01*
X181401691Y-196802994D01*
X181556800Y-196804393D01*
D11*
G04 #@! TO.C,S0*
X213529453Y-118850707D02*
G75*
G03X213529453Y-118850707I-10500000J0D01*
G01*
G04 #@! TO.C,S1*
X221529453Y-94800707D02*
G75*
G03X221529453Y-94800707I-10500000J0D01*
G01*
G04 #@! TO.C,S2*
X221529453Y-70850707D02*
G75*
G03X221529453Y-70850707I-10500000J0D01*
G01*
G04 #@! TO.C,S3*
X219529453Y-48850707D02*
G75*
G03X219529453Y-48850707I-10500000J0D01*
G01*
G04 #@! TO.C,S4*
X212529453Y-27850707D02*
G75*
G03X212529453Y-27850707I-10500000J0D01*
G01*
G04 #@! TO.C,S5*
X195879453Y-48850707D02*
G75*
G03X195879453Y-48850707I-10500000J0D01*
G01*
G04 #@! TO.C,S6*
X197319453Y-71840707D02*
G75*
G03X197319453Y-71840707I-10500000J0D01*
G01*
G04 #@! TO.C,S7*
X195529453Y-94850707D02*
G75*
G03X195529453Y-94850707I-10500000J0D01*
G01*
G04 #@! TO.C,S8*
X190529453Y-26850707D02*
G75*
G03X190529453Y-26850707I-10500000J0D01*
G01*
G04 #@! TO.C,S9*
X171529453Y-40850707D02*
G75*
G03X171529453Y-40850707I-10500000J0D01*
G01*
G04 #@! TO.C,S10*
X177529453Y-63850707D02*
G75*
G03X177529453Y-63850707I-10500000J0D01*
G01*
G04 #@! TO.C,S11*
X156529453Y-60850707D02*
G75*
G03X156529453Y-60850707I-10500000J0D01*
G01*
G04 #@! TO.C,S12*
X169529453Y-83850707D02*
G75*
G03X169529453Y-83850707I-10500000J0D01*
G01*
G04 #@! TO.C,S13*
X146529453Y-80850707D02*
G75*
G03X146529453Y-80850707I-10500000J0D01*
G01*
G04 #@! TO.C,S14*
X191529453Y-118850707D02*
G75*
G03X191529453Y-118850707I-10500000J0D01*
G01*
G04 #@! TO.C,S15*
X168529453Y-104850707D02*
G75*
G03X168529453Y-104850707I-10500000J0D01*
G01*
G04 #@! TO.C,S16*
X144529453Y-101850707D02*
G75*
G03X144529453Y-101850707I-10500000J0D01*
G01*
G04 #@! TO.C,S17*
X145529453Y-122850707D02*
G75*
G03X145529453Y-122850707I-10500000J0D01*
G01*
G04 #@! TO.C,S18*
X169529453Y-126850707D02*
G75*
G03X169529453Y-126850707I-10500000J0D01*
G01*
G04 #@! TO.C,S19*
X174529453Y-147850707D02*
G75*
G03X174529453Y-147850707I-10500000J0D01*
G01*
G04 #@! TO.C,S20*
X150529453Y-144850707D02*
G75*
G03X150529453Y-144850707I-10500000J0D01*
G01*
G04 #@! TO.C,S21*
X159079453Y-165500707D02*
G75*
G03X159079453Y-165500707I-10500000J0D01*
G01*
G04 #@! TO.C,S22*
X162109453Y-186480707D02*
G75*
G03X162109453Y-186480707I-10500000J0D01*
G01*
G04 #@! TO.C,S23*
X163329453Y-207730707D02*
G75*
G03X163329453Y-207730707I-10500000J0D01*
G01*
G04 #@! TO.C,S24*
X200649453Y-228470707D02*
G75*
G03X200649453Y-228470707I-10500000J0D01*
G01*
G04 #@! TO.C,S25*
X203859453Y-249340707D02*
G75*
G03X203859453Y-249340707I-10500000J0D01*
G01*
G04 #@! TO.C,S26*
X193529453Y-268000707D02*
G75*
G03X193529453Y-268000707I-10500000J0D01*
G01*
G04 #@! TO.C,S27*
X171629453Y-268100707D02*
G75*
G03X171629453Y-268100707I-10500000J0D01*
G01*
G04 #@! TO.C,S28*
X160279453Y-250220707D02*
G75*
G03X160279453Y-250220707I-10500000J0D01*
G01*
G04 #@! TO.C,S29*
X182029453Y-245050707D02*
G75*
G03X182029453Y-245050707I-10500000J0D01*
G01*
G04 #@! TO.C,S30*
X160829453Y-229050707D02*
G75*
G03X160829453Y-229050707I-10500000J0D01*
G01*
G04 #@! TO.C,S31*
X180609453Y-221450707D02*
G75*
G03X180609453Y-221450707I-10500000J0D01*
G01*
D12*
G04 #@! TO.C,J2*
X197594977Y-191778895D02*
X196901670Y-191827376D01*
X197642760Y-192462226D02*
X197594977Y-191778895D01*
X196390442Y-193236470D02*
X196303929Y-193242519D01*
X197690543Y-193145558D02*
X197604030Y-193151607D01*
X196303929Y-193242519D02*
X196364966Y-194115388D01*
X197690543Y-193145558D02*
X197751580Y-194018426D01*
X196664741Y-194094425D02*
X196364966Y-194115388D01*
X197751580Y-194018426D02*
X197451805Y-194039388D01*
G04 #@! TO.C,L1*
X194513028Y-157483711D02*
X194060526Y-157222459D01*
X195223028Y-156253955D02*
X194770526Y-155992703D01*
G04 #@! TO.C,L2*
X191570526Y-146712703D02*
X192023028Y-146973955D01*
X190860526Y-147942459D02*
X191313028Y-148203711D01*
D10*
G04 #@! TO.C,J1*
X192740969Y-200332742D02*
X190592278Y-200407776D01*
X193031745Y-207226794D02*
X190833085Y-207303573D01*
X192358346Y-208000767D02*
X192032035Y-198656462D01*
D12*
X197565329Y-199513875D02*
X194337297Y-199626601D01*
X193450092Y-200868320D02*
X193487783Y-201947662D01*
X193634234Y-205854932D02*
X193671926Y-206934274D01*
X197851505Y-207708880D02*
X194623473Y-207821606D01*
X193487783Y-201947662D02*
X193058045Y-201962669D01*
G04 #@! TO.C,S0*
D13*
X202237548Y-128925468D02*
X202380405Y-128973087D01*
X202618500Y-128973087D01*
X202713738Y-128925468D01*
X202761357Y-128877849D01*
X202808976Y-128782611D01*
X202808976Y-128687373D01*
X202761357Y-128592135D01*
X202713738Y-128544516D01*
X202618500Y-128496897D01*
X202428024Y-128449278D01*
X202332786Y-128401659D01*
X202285167Y-128354040D01*
X202237548Y-128258802D01*
X202237548Y-128163564D01*
X202285167Y-128068326D01*
X202332786Y-128020707D01*
X202428024Y-127973087D01*
X202666119Y-127973087D01*
X202808976Y-128020707D01*
X203428024Y-127973087D02*
X203523262Y-127973087D01*
X203618500Y-128020707D01*
X203666119Y-128068326D01*
X203713738Y-128163564D01*
X203761357Y-128354040D01*
X203761357Y-128592135D01*
X203713738Y-128782611D01*
X203666119Y-128877849D01*
X203618500Y-128925468D01*
X203523262Y-128973087D01*
X203428024Y-128973087D01*
X203332786Y-128925468D01*
X203285167Y-128877849D01*
X203237548Y-128782611D01*
X203189929Y-128592135D01*
X203189929Y-128354040D01*
X203237548Y-128163564D01*
X203285167Y-128068326D01*
X203332786Y-128020707D01*
X203428024Y-127973087D01*
G04 #@! TO.C,S1*
X210267548Y-104895468D02*
X210410405Y-104943087D01*
X210648500Y-104943087D01*
X210743738Y-104895468D01*
X210791357Y-104847849D01*
X210838976Y-104752611D01*
X210838976Y-104657373D01*
X210791357Y-104562135D01*
X210743738Y-104514516D01*
X210648500Y-104466897D01*
X210458024Y-104419278D01*
X210362786Y-104371659D01*
X210315167Y-104324040D01*
X210267548Y-104228802D01*
X210267548Y-104133564D01*
X210315167Y-104038326D01*
X210362786Y-103990707D01*
X210458024Y-103943087D01*
X210696119Y-103943087D01*
X210838976Y-103990707D01*
X211791357Y-104943087D02*
X211219929Y-104943087D01*
X211505643Y-104943087D02*
X211505643Y-103943087D01*
X211410405Y-104085945D01*
X211315167Y-104181183D01*
X211219929Y-104228802D01*
G04 #@! TO.C,S2*
X210247548Y-80975468D02*
X210390405Y-81023087D01*
X210628500Y-81023087D01*
X210723738Y-80975468D01*
X210771357Y-80927849D01*
X210818976Y-80832611D01*
X210818976Y-80737373D01*
X210771357Y-80642135D01*
X210723738Y-80594516D01*
X210628500Y-80546897D01*
X210438024Y-80499278D01*
X210342786Y-80451659D01*
X210295167Y-80404040D01*
X210247548Y-80308802D01*
X210247548Y-80213564D01*
X210295167Y-80118326D01*
X210342786Y-80070707D01*
X210438024Y-80023087D01*
X210676119Y-80023087D01*
X210818976Y-80070707D01*
X211199929Y-80118326D02*
X211247548Y-80070707D01*
X211342786Y-80023087D01*
X211580881Y-80023087D01*
X211676119Y-80070707D01*
X211723738Y-80118326D01*
X211771357Y-80213564D01*
X211771357Y-80308802D01*
X211723738Y-80451659D01*
X211152310Y-81023087D01*
X211771357Y-81023087D01*
G04 #@! TO.C,S3*
X208247548Y-58905468D02*
X208390405Y-58953087D01*
X208628500Y-58953087D01*
X208723738Y-58905468D01*
X208771357Y-58857849D01*
X208818976Y-58762611D01*
X208818976Y-58667373D01*
X208771357Y-58572135D01*
X208723738Y-58524516D01*
X208628500Y-58476897D01*
X208438024Y-58429278D01*
X208342786Y-58381659D01*
X208295167Y-58334040D01*
X208247548Y-58238802D01*
X208247548Y-58143564D01*
X208295167Y-58048326D01*
X208342786Y-58000707D01*
X208438024Y-57953087D01*
X208676119Y-57953087D01*
X208818976Y-58000707D01*
X209152310Y-57953087D02*
X209771357Y-57953087D01*
X209438024Y-58334040D01*
X209580881Y-58334040D01*
X209676119Y-58381659D01*
X209723738Y-58429278D01*
X209771357Y-58524516D01*
X209771357Y-58762611D01*
X209723738Y-58857849D01*
X209676119Y-58905468D01*
X209580881Y-58953087D01*
X209295167Y-58953087D01*
X209199929Y-58905468D01*
X209152310Y-58857849D01*
G04 #@! TO.C,S4*
X201137548Y-37885468D02*
X201280405Y-37933087D01*
X201518500Y-37933087D01*
X201613738Y-37885468D01*
X201661357Y-37837849D01*
X201708976Y-37742611D01*
X201708976Y-37647373D01*
X201661357Y-37552135D01*
X201613738Y-37504516D01*
X201518500Y-37456897D01*
X201328024Y-37409278D01*
X201232786Y-37361659D01*
X201185167Y-37314040D01*
X201137548Y-37218802D01*
X201137548Y-37123564D01*
X201185167Y-37028326D01*
X201232786Y-36980707D01*
X201328024Y-36933087D01*
X201566119Y-36933087D01*
X201708976Y-36980707D01*
X202566119Y-37266421D02*
X202566119Y-37933087D01*
X202328024Y-36885468D02*
X202089929Y-37599754D01*
X202708976Y-37599754D01*
G04 #@! TO.C,S5*
X184587548Y-59005468D02*
X184730405Y-59053087D01*
X184968500Y-59053087D01*
X185063738Y-59005468D01*
X185111357Y-58957849D01*
X185158976Y-58862611D01*
X185158976Y-58767373D01*
X185111357Y-58672135D01*
X185063738Y-58624516D01*
X184968500Y-58576897D01*
X184778024Y-58529278D01*
X184682786Y-58481659D01*
X184635167Y-58434040D01*
X184587548Y-58338802D01*
X184587548Y-58243564D01*
X184635167Y-58148326D01*
X184682786Y-58100707D01*
X184778024Y-58053087D01*
X185016119Y-58053087D01*
X185158976Y-58100707D01*
X186063738Y-58053087D02*
X185587548Y-58053087D01*
X185539929Y-58529278D01*
X185587548Y-58481659D01*
X185682786Y-58434040D01*
X185920881Y-58434040D01*
X186016119Y-58481659D01*
X186063738Y-58529278D01*
X186111357Y-58624516D01*
X186111357Y-58862611D01*
X186063738Y-58957849D01*
X186016119Y-59005468D01*
X185920881Y-59053087D01*
X185682786Y-59053087D01*
X185587548Y-59005468D01*
X185539929Y-58957849D01*
G04 #@! TO.C,S6*
X185927548Y-81965468D02*
X186070405Y-82013087D01*
X186308500Y-82013087D01*
X186403738Y-81965468D01*
X186451357Y-81917849D01*
X186498976Y-81822611D01*
X186498976Y-81727373D01*
X186451357Y-81632135D01*
X186403738Y-81584516D01*
X186308500Y-81536897D01*
X186118024Y-81489278D01*
X186022786Y-81441659D01*
X185975167Y-81394040D01*
X185927548Y-81298802D01*
X185927548Y-81203564D01*
X185975167Y-81108326D01*
X186022786Y-81060707D01*
X186118024Y-81013087D01*
X186356119Y-81013087D01*
X186498976Y-81060707D01*
X187356119Y-81013087D02*
X187165643Y-81013087D01*
X187070405Y-81060707D01*
X187022786Y-81108326D01*
X186927548Y-81251183D01*
X186879929Y-81441659D01*
X186879929Y-81822611D01*
X186927548Y-81917849D01*
X186975167Y-81965468D01*
X187070405Y-82013087D01*
X187260881Y-82013087D01*
X187356119Y-81965468D01*
X187403738Y-81917849D01*
X187451357Y-81822611D01*
X187451357Y-81584516D01*
X187403738Y-81489278D01*
X187356119Y-81441659D01*
X187260881Y-81394040D01*
X187070405Y-81394040D01*
X186975167Y-81441659D01*
X186927548Y-81489278D01*
X186879929Y-81584516D01*
G04 #@! TO.C,S7*
X184167548Y-104985468D02*
X184310405Y-105033087D01*
X184548500Y-105033087D01*
X184643738Y-104985468D01*
X184691357Y-104937849D01*
X184738976Y-104842611D01*
X184738976Y-104747373D01*
X184691357Y-104652135D01*
X184643738Y-104604516D01*
X184548500Y-104556897D01*
X184358024Y-104509278D01*
X184262786Y-104461659D01*
X184215167Y-104414040D01*
X184167548Y-104318802D01*
X184167548Y-104223564D01*
X184215167Y-104128326D01*
X184262786Y-104080707D01*
X184358024Y-104033087D01*
X184596119Y-104033087D01*
X184738976Y-104080707D01*
X185072310Y-104033087D02*
X185738976Y-104033087D01*
X185310405Y-105033087D01*
G04 #@! TO.C,S8*
X179167548Y-36925468D02*
X179310405Y-36973087D01*
X179548500Y-36973087D01*
X179643738Y-36925468D01*
X179691357Y-36877849D01*
X179738976Y-36782611D01*
X179738976Y-36687373D01*
X179691357Y-36592135D01*
X179643738Y-36544516D01*
X179548500Y-36496897D01*
X179358024Y-36449278D01*
X179262786Y-36401659D01*
X179215167Y-36354040D01*
X179167548Y-36258802D01*
X179167548Y-36163564D01*
X179215167Y-36068326D01*
X179262786Y-36020707D01*
X179358024Y-35973087D01*
X179596119Y-35973087D01*
X179738976Y-36020707D01*
X180310405Y-36401659D02*
X180215167Y-36354040D01*
X180167548Y-36306421D01*
X180119929Y-36211183D01*
X180119929Y-36163564D01*
X180167548Y-36068326D01*
X180215167Y-36020707D01*
X180310405Y-35973087D01*
X180500881Y-35973087D01*
X180596119Y-36020707D01*
X180643738Y-36068326D01*
X180691357Y-36163564D01*
X180691357Y-36211183D01*
X180643738Y-36306421D01*
X180596119Y-36354040D01*
X180500881Y-36401659D01*
X180310405Y-36401659D01*
X180215167Y-36449278D01*
X180167548Y-36496897D01*
X180119929Y-36592135D01*
X180119929Y-36782611D01*
X180167548Y-36877849D01*
X180215167Y-36925468D01*
X180310405Y-36973087D01*
X180500881Y-36973087D01*
X180596119Y-36925468D01*
X180643738Y-36877849D01*
X180691357Y-36782611D01*
X180691357Y-36592135D01*
X180643738Y-36496897D01*
X180596119Y-36449278D01*
X180500881Y-36401659D01*
G04 #@! TO.C,S9*
X160307548Y-50955468D02*
X160450405Y-51003087D01*
X160688500Y-51003087D01*
X160783738Y-50955468D01*
X160831357Y-50907849D01*
X160878976Y-50812611D01*
X160878976Y-50717373D01*
X160831357Y-50622135D01*
X160783738Y-50574516D01*
X160688500Y-50526897D01*
X160498024Y-50479278D01*
X160402786Y-50431659D01*
X160355167Y-50384040D01*
X160307548Y-50288802D01*
X160307548Y-50193564D01*
X160355167Y-50098326D01*
X160402786Y-50050707D01*
X160498024Y-50003087D01*
X160736119Y-50003087D01*
X160878976Y-50050707D01*
X161355167Y-51003087D02*
X161545643Y-51003087D01*
X161640881Y-50955468D01*
X161688500Y-50907849D01*
X161783738Y-50764992D01*
X161831357Y-50574516D01*
X161831357Y-50193564D01*
X161783738Y-50098326D01*
X161736119Y-50050707D01*
X161640881Y-50003087D01*
X161450405Y-50003087D01*
X161355167Y-50050707D01*
X161307548Y-50098326D01*
X161259929Y-50193564D01*
X161259929Y-50431659D01*
X161307548Y-50526897D01*
X161355167Y-50574516D01*
X161450405Y-50622135D01*
X161640881Y-50622135D01*
X161736119Y-50574516D01*
X161783738Y-50526897D01*
X161831357Y-50431659D01*
G04 #@! TO.C,S10*
X165801357Y-73915468D02*
X165944214Y-73963087D01*
X166182310Y-73963087D01*
X166277548Y-73915468D01*
X166325167Y-73867849D01*
X166372786Y-73772611D01*
X166372786Y-73677373D01*
X166325167Y-73582135D01*
X166277548Y-73534516D01*
X166182310Y-73486897D01*
X165991833Y-73439278D01*
X165896595Y-73391659D01*
X165848976Y-73344040D01*
X165801357Y-73248802D01*
X165801357Y-73153564D01*
X165848976Y-73058326D01*
X165896595Y-73010707D01*
X165991833Y-72963087D01*
X166229929Y-72963087D01*
X166372786Y-73010707D01*
X167325167Y-73963087D02*
X166753738Y-73963087D01*
X167039453Y-73963087D02*
X167039453Y-72963087D01*
X166944214Y-73105945D01*
X166848976Y-73201183D01*
X166753738Y-73248802D01*
X167944214Y-72963087D02*
X168039453Y-72963087D01*
X168134691Y-73010707D01*
X168182310Y-73058326D01*
X168229929Y-73153564D01*
X168277548Y-73344040D01*
X168277548Y-73582135D01*
X168229929Y-73772611D01*
X168182310Y-73867849D01*
X168134691Y-73915468D01*
X168039453Y-73963087D01*
X167944214Y-73963087D01*
X167848976Y-73915468D01*
X167801357Y-73867849D01*
X167753738Y-73772611D01*
X167706119Y-73582135D01*
X167706119Y-73344040D01*
X167753738Y-73153564D01*
X167801357Y-73058326D01*
X167848976Y-73010707D01*
X167944214Y-72963087D01*
G04 #@! TO.C,S11*
X144851357Y-70925468D02*
X144994214Y-70973087D01*
X145232310Y-70973087D01*
X145327548Y-70925468D01*
X145375167Y-70877849D01*
X145422786Y-70782611D01*
X145422786Y-70687373D01*
X145375167Y-70592135D01*
X145327548Y-70544516D01*
X145232310Y-70496897D01*
X145041833Y-70449278D01*
X144946595Y-70401659D01*
X144898976Y-70354040D01*
X144851357Y-70258802D01*
X144851357Y-70163564D01*
X144898976Y-70068326D01*
X144946595Y-70020707D01*
X145041833Y-69973087D01*
X145279929Y-69973087D01*
X145422786Y-70020707D01*
X146375167Y-70973087D02*
X145803738Y-70973087D01*
X146089453Y-70973087D02*
X146089453Y-69973087D01*
X145994214Y-70115945D01*
X145898976Y-70211183D01*
X145803738Y-70258802D01*
X147327548Y-70973087D02*
X146756119Y-70973087D01*
X147041833Y-70973087D02*
X147041833Y-69973087D01*
X146946595Y-70115945D01*
X146851357Y-70211183D01*
X146756119Y-70258802D01*
G04 #@! TO.C,S12*
X157741357Y-93875468D02*
X157884214Y-93923087D01*
X158122310Y-93923087D01*
X158217548Y-93875468D01*
X158265167Y-93827849D01*
X158312786Y-93732611D01*
X158312786Y-93637373D01*
X158265167Y-93542135D01*
X158217548Y-93494516D01*
X158122310Y-93446897D01*
X157931833Y-93399278D01*
X157836595Y-93351659D01*
X157788976Y-93304040D01*
X157741357Y-93208802D01*
X157741357Y-93113564D01*
X157788976Y-93018326D01*
X157836595Y-92970707D01*
X157931833Y-92923087D01*
X158169929Y-92923087D01*
X158312786Y-92970707D01*
X159265167Y-93923087D02*
X158693738Y-93923087D01*
X158979453Y-93923087D02*
X158979453Y-92923087D01*
X158884214Y-93065945D01*
X158788976Y-93161183D01*
X158693738Y-93208802D01*
X159646119Y-93018326D02*
X159693738Y-92970707D01*
X159788976Y-92923087D01*
X160027072Y-92923087D01*
X160122310Y-92970707D01*
X160169929Y-93018326D01*
X160217548Y-93113564D01*
X160217548Y-93208802D01*
X160169929Y-93351659D01*
X159598500Y-93923087D01*
X160217548Y-93923087D01*
G04 #@! TO.C,S13*
X134261357Y-90865468D02*
X134404214Y-90913087D01*
X134642310Y-90913087D01*
X134737548Y-90865468D01*
X134785167Y-90817849D01*
X134832786Y-90722611D01*
X134832786Y-90627373D01*
X134785167Y-90532135D01*
X134737548Y-90484516D01*
X134642310Y-90436897D01*
X134451833Y-90389278D01*
X134356595Y-90341659D01*
X134308976Y-90294040D01*
X134261357Y-90198802D01*
X134261357Y-90103564D01*
X134308976Y-90008326D01*
X134356595Y-89960707D01*
X134451833Y-89913087D01*
X134689929Y-89913087D01*
X134832786Y-89960707D01*
X135785167Y-90913087D02*
X135213738Y-90913087D01*
X135499453Y-90913087D02*
X135499453Y-89913087D01*
X135404214Y-90055945D01*
X135308976Y-90151183D01*
X135213738Y-90198802D01*
X136118500Y-89913087D02*
X136737548Y-89913087D01*
X136404214Y-90294040D01*
X136547072Y-90294040D01*
X136642310Y-90341659D01*
X136689929Y-90389278D01*
X136737548Y-90484516D01*
X136737548Y-90722611D01*
X136689929Y-90817849D01*
X136642310Y-90865468D01*
X136547072Y-90913087D01*
X136261357Y-90913087D01*
X136166119Y-90865468D01*
X136118500Y-90817849D01*
G04 #@! TO.C,S14*
X179781357Y-128885468D02*
X179924214Y-128933087D01*
X180162310Y-128933087D01*
X180257548Y-128885468D01*
X180305167Y-128837849D01*
X180352786Y-128742611D01*
X180352786Y-128647373D01*
X180305167Y-128552135D01*
X180257548Y-128504516D01*
X180162310Y-128456897D01*
X179971833Y-128409278D01*
X179876595Y-128361659D01*
X179828976Y-128314040D01*
X179781357Y-128218802D01*
X179781357Y-128123564D01*
X179828976Y-128028326D01*
X179876595Y-127980707D01*
X179971833Y-127933087D01*
X180209929Y-127933087D01*
X180352786Y-127980707D01*
X181305167Y-128933087D02*
X180733738Y-128933087D01*
X181019453Y-128933087D02*
X181019453Y-127933087D01*
X180924214Y-128075945D01*
X180828976Y-128171183D01*
X180733738Y-128218802D01*
X182162310Y-128266421D02*
X182162310Y-128933087D01*
X181924214Y-127885468D02*
X181686119Y-128599754D01*
X182305167Y-128599754D01*
G04 #@! TO.C,S15*
X156891357Y-114905468D02*
X157034214Y-114953087D01*
X157272310Y-114953087D01*
X157367548Y-114905468D01*
X157415167Y-114857849D01*
X157462786Y-114762611D01*
X157462786Y-114667373D01*
X157415167Y-114572135D01*
X157367548Y-114524516D01*
X157272310Y-114476897D01*
X157081833Y-114429278D01*
X156986595Y-114381659D01*
X156938976Y-114334040D01*
X156891357Y-114238802D01*
X156891357Y-114143564D01*
X156938976Y-114048326D01*
X156986595Y-114000707D01*
X157081833Y-113953087D01*
X157319929Y-113953087D01*
X157462786Y-114000707D01*
X158415167Y-114953087D02*
X157843738Y-114953087D01*
X158129453Y-114953087D02*
X158129453Y-113953087D01*
X158034214Y-114095945D01*
X157938976Y-114191183D01*
X157843738Y-114238802D01*
X159319929Y-113953087D02*
X158843738Y-113953087D01*
X158796119Y-114429278D01*
X158843738Y-114381659D01*
X158938976Y-114334040D01*
X159177072Y-114334040D01*
X159272310Y-114381659D01*
X159319929Y-114429278D01*
X159367548Y-114524516D01*
X159367548Y-114762611D01*
X159319929Y-114857849D01*
X159272310Y-114905468D01*
X159177072Y-114953087D01*
X158938976Y-114953087D01*
X158843738Y-114905468D01*
X158796119Y-114857849D01*
G04 #@! TO.C,S16*
X132801357Y-111945468D02*
X132944214Y-111993087D01*
X133182310Y-111993087D01*
X133277548Y-111945468D01*
X133325167Y-111897849D01*
X133372786Y-111802611D01*
X133372786Y-111707373D01*
X133325167Y-111612135D01*
X133277548Y-111564516D01*
X133182310Y-111516897D01*
X132991833Y-111469278D01*
X132896595Y-111421659D01*
X132848976Y-111374040D01*
X132801357Y-111278802D01*
X132801357Y-111183564D01*
X132848976Y-111088326D01*
X132896595Y-111040707D01*
X132991833Y-110993087D01*
X133229929Y-110993087D01*
X133372786Y-111040707D01*
X134325167Y-111993087D02*
X133753738Y-111993087D01*
X134039453Y-111993087D02*
X134039453Y-110993087D01*
X133944214Y-111135945D01*
X133848976Y-111231183D01*
X133753738Y-111278802D01*
X135182310Y-110993087D02*
X134991833Y-110993087D01*
X134896595Y-111040707D01*
X134848976Y-111088326D01*
X134753738Y-111231183D01*
X134706119Y-111421659D01*
X134706119Y-111802611D01*
X134753738Y-111897849D01*
X134801357Y-111945468D01*
X134896595Y-111993087D01*
X135087072Y-111993087D01*
X135182310Y-111945468D01*
X135229929Y-111897849D01*
X135277548Y-111802611D01*
X135277548Y-111564516D01*
X135229929Y-111469278D01*
X135182310Y-111421659D01*
X135087072Y-111374040D01*
X134896595Y-111374040D01*
X134801357Y-111421659D01*
X134753738Y-111469278D01*
X134706119Y-111564516D01*
G04 #@! TO.C,S17*
X133571357Y-132905468D02*
X133714214Y-132953087D01*
X133952310Y-132953087D01*
X134047548Y-132905468D01*
X134095167Y-132857849D01*
X134142786Y-132762611D01*
X134142786Y-132667373D01*
X134095167Y-132572135D01*
X134047548Y-132524516D01*
X133952310Y-132476897D01*
X133761833Y-132429278D01*
X133666595Y-132381659D01*
X133618976Y-132334040D01*
X133571357Y-132238802D01*
X133571357Y-132143564D01*
X133618976Y-132048326D01*
X133666595Y-132000707D01*
X133761833Y-131953087D01*
X133999929Y-131953087D01*
X134142786Y-132000707D01*
X135095167Y-132953087D02*
X134523738Y-132953087D01*
X134809453Y-132953087D02*
X134809453Y-131953087D01*
X134714214Y-132095945D01*
X134618976Y-132191183D01*
X134523738Y-132238802D01*
X135428500Y-131953087D02*
X136095167Y-131953087D01*
X135666595Y-132953087D01*
G04 #@! TO.C,S18*
X157591357Y-136915468D02*
X157734214Y-136963087D01*
X157972310Y-136963087D01*
X158067548Y-136915468D01*
X158115167Y-136867849D01*
X158162786Y-136772611D01*
X158162786Y-136677373D01*
X158115167Y-136582135D01*
X158067548Y-136534516D01*
X157972310Y-136486897D01*
X157781833Y-136439278D01*
X157686595Y-136391659D01*
X157638976Y-136344040D01*
X157591357Y-136248802D01*
X157591357Y-136153564D01*
X157638976Y-136058326D01*
X157686595Y-136010707D01*
X157781833Y-135963087D01*
X158019929Y-135963087D01*
X158162786Y-136010707D01*
X159115167Y-136963087D02*
X158543738Y-136963087D01*
X158829453Y-136963087D02*
X158829453Y-135963087D01*
X158734214Y-136105945D01*
X158638976Y-136201183D01*
X158543738Y-136248802D01*
X159686595Y-136391659D02*
X159591357Y-136344040D01*
X159543738Y-136296421D01*
X159496119Y-136201183D01*
X159496119Y-136153564D01*
X159543738Y-136058326D01*
X159591357Y-136010707D01*
X159686595Y-135963087D01*
X159877072Y-135963087D01*
X159972310Y-136010707D01*
X160019929Y-136058326D01*
X160067548Y-136153564D01*
X160067548Y-136201183D01*
X160019929Y-136296421D01*
X159972310Y-136344040D01*
X159877072Y-136391659D01*
X159686595Y-136391659D01*
X159591357Y-136439278D01*
X159543738Y-136486897D01*
X159496119Y-136582135D01*
X159496119Y-136772611D01*
X159543738Y-136867849D01*
X159591357Y-136915468D01*
X159686595Y-136963087D01*
X159877072Y-136963087D01*
X159972310Y-136915468D01*
X160019929Y-136867849D01*
X160067548Y-136772611D01*
X160067548Y-136582135D01*
X160019929Y-136486897D01*
X159972310Y-136439278D01*
X159877072Y-136391659D01*
G04 #@! TO.C,S19*
X162711357Y-157875468D02*
X162854214Y-157923087D01*
X163092310Y-157923087D01*
X163187548Y-157875468D01*
X163235167Y-157827849D01*
X163282786Y-157732611D01*
X163282786Y-157637373D01*
X163235167Y-157542135D01*
X163187548Y-157494516D01*
X163092310Y-157446897D01*
X162901833Y-157399278D01*
X162806595Y-157351659D01*
X162758976Y-157304040D01*
X162711357Y-157208802D01*
X162711357Y-157113564D01*
X162758976Y-157018326D01*
X162806595Y-156970707D01*
X162901833Y-156923087D01*
X163139929Y-156923087D01*
X163282786Y-156970707D01*
X164235167Y-157923087D02*
X163663738Y-157923087D01*
X163949453Y-157923087D02*
X163949453Y-156923087D01*
X163854214Y-157065945D01*
X163758976Y-157161183D01*
X163663738Y-157208802D01*
X164711357Y-157923087D02*
X164901833Y-157923087D01*
X164997072Y-157875468D01*
X165044691Y-157827849D01*
X165139929Y-157684992D01*
X165187548Y-157494516D01*
X165187548Y-157113564D01*
X165139929Y-157018326D01*
X165092310Y-156970707D01*
X164997072Y-156923087D01*
X164806595Y-156923087D01*
X164711357Y-156970707D01*
X164663738Y-157018326D01*
X164616119Y-157113564D01*
X164616119Y-157351659D01*
X164663738Y-157446897D01*
X164711357Y-157494516D01*
X164806595Y-157542135D01*
X164997072Y-157542135D01*
X165092310Y-157494516D01*
X165139929Y-157446897D01*
X165187548Y-157351659D01*
G04 #@! TO.C,S20*
X138781357Y-154875468D02*
X138924214Y-154923087D01*
X139162310Y-154923087D01*
X139257548Y-154875468D01*
X139305167Y-154827849D01*
X139352786Y-154732611D01*
X139352786Y-154637373D01*
X139305167Y-154542135D01*
X139257548Y-154494516D01*
X139162310Y-154446897D01*
X138971833Y-154399278D01*
X138876595Y-154351659D01*
X138828976Y-154304040D01*
X138781357Y-154208802D01*
X138781357Y-154113564D01*
X138828976Y-154018326D01*
X138876595Y-153970707D01*
X138971833Y-153923087D01*
X139209929Y-153923087D01*
X139352786Y-153970707D01*
X139733738Y-154018326D02*
X139781357Y-153970707D01*
X139876595Y-153923087D01*
X140114691Y-153923087D01*
X140209929Y-153970707D01*
X140257548Y-154018326D01*
X140305167Y-154113564D01*
X140305167Y-154208802D01*
X140257548Y-154351659D01*
X139686119Y-154923087D01*
X140305167Y-154923087D01*
X140924214Y-153923087D02*
X141019453Y-153923087D01*
X141114691Y-153970707D01*
X141162310Y-154018326D01*
X141209929Y-154113564D01*
X141257548Y-154304040D01*
X141257548Y-154542135D01*
X141209929Y-154732611D01*
X141162310Y-154827849D01*
X141114691Y-154875468D01*
X141019453Y-154923087D01*
X140924214Y-154923087D01*
X140828976Y-154875468D01*
X140781357Y-154827849D01*
X140733738Y-154732611D01*
X140686119Y-154542135D01*
X140686119Y-154304040D01*
X140733738Y-154113564D01*
X140781357Y-154018326D01*
X140828976Y-153970707D01*
X140924214Y-153923087D01*
G04 #@! TO.C,S21*
X147341357Y-175535468D02*
X147484214Y-175583087D01*
X147722310Y-175583087D01*
X147817548Y-175535468D01*
X147865167Y-175487849D01*
X147912786Y-175392611D01*
X147912786Y-175297373D01*
X147865167Y-175202135D01*
X147817548Y-175154516D01*
X147722310Y-175106897D01*
X147531833Y-175059278D01*
X147436595Y-175011659D01*
X147388976Y-174964040D01*
X147341357Y-174868802D01*
X147341357Y-174773564D01*
X147388976Y-174678326D01*
X147436595Y-174630707D01*
X147531833Y-174583087D01*
X147769929Y-174583087D01*
X147912786Y-174630707D01*
X148293738Y-174678326D02*
X148341357Y-174630707D01*
X148436595Y-174583087D01*
X148674691Y-174583087D01*
X148769929Y-174630707D01*
X148817548Y-174678326D01*
X148865167Y-174773564D01*
X148865167Y-174868802D01*
X148817548Y-175011659D01*
X148246119Y-175583087D01*
X148865167Y-175583087D01*
X149817548Y-175583087D02*
X149246119Y-175583087D01*
X149531833Y-175583087D02*
X149531833Y-174583087D01*
X149436595Y-174725945D01*
X149341357Y-174821183D01*
X149246119Y-174868802D01*
G04 #@! TO.C,S22*
X150381357Y-196555468D02*
X150524214Y-196603087D01*
X150762310Y-196603087D01*
X150857548Y-196555468D01*
X150905167Y-196507849D01*
X150952786Y-196412611D01*
X150952786Y-196317373D01*
X150905167Y-196222135D01*
X150857548Y-196174516D01*
X150762310Y-196126897D01*
X150571833Y-196079278D01*
X150476595Y-196031659D01*
X150428976Y-195984040D01*
X150381357Y-195888802D01*
X150381357Y-195793564D01*
X150428976Y-195698326D01*
X150476595Y-195650707D01*
X150571833Y-195603087D01*
X150809929Y-195603087D01*
X150952786Y-195650707D01*
X151333738Y-195698326D02*
X151381357Y-195650707D01*
X151476595Y-195603087D01*
X151714691Y-195603087D01*
X151809929Y-195650707D01*
X151857548Y-195698326D01*
X151905167Y-195793564D01*
X151905167Y-195888802D01*
X151857548Y-196031659D01*
X151286119Y-196603087D01*
X151905167Y-196603087D01*
X152286119Y-195698326D02*
X152333738Y-195650707D01*
X152428976Y-195603087D01*
X152667072Y-195603087D01*
X152762310Y-195650707D01*
X152809929Y-195698326D01*
X152857548Y-195793564D01*
X152857548Y-195888802D01*
X152809929Y-196031659D01*
X152238500Y-196603087D01*
X152857548Y-196603087D01*
G04 #@! TO.C,S23*
X151571357Y-217825468D02*
X151714214Y-217873087D01*
X151952310Y-217873087D01*
X152047548Y-217825468D01*
X152095167Y-217777849D01*
X152142786Y-217682611D01*
X152142786Y-217587373D01*
X152095167Y-217492135D01*
X152047548Y-217444516D01*
X151952310Y-217396897D01*
X151761833Y-217349278D01*
X151666595Y-217301659D01*
X151618976Y-217254040D01*
X151571357Y-217158802D01*
X151571357Y-217063564D01*
X151618976Y-216968326D01*
X151666595Y-216920707D01*
X151761833Y-216873087D01*
X151999929Y-216873087D01*
X152142786Y-216920707D01*
X152523738Y-216968326D02*
X152571357Y-216920707D01*
X152666595Y-216873087D01*
X152904691Y-216873087D01*
X152999929Y-216920707D01*
X153047548Y-216968326D01*
X153095167Y-217063564D01*
X153095167Y-217158802D01*
X153047548Y-217301659D01*
X152476119Y-217873087D01*
X153095167Y-217873087D01*
X153428500Y-216873087D02*
X154047548Y-216873087D01*
X153714214Y-217254040D01*
X153857072Y-217254040D01*
X153952310Y-217301659D01*
X153999929Y-217349278D01*
X154047548Y-217444516D01*
X154047548Y-217682611D01*
X153999929Y-217777849D01*
X153952310Y-217825468D01*
X153857072Y-217873087D01*
X153571357Y-217873087D01*
X153476119Y-217825468D01*
X153428500Y-217777849D01*
G04 #@! TO.C,S24*
X188891357Y-238485468D02*
X189034214Y-238533087D01*
X189272310Y-238533087D01*
X189367548Y-238485468D01*
X189415167Y-238437849D01*
X189462786Y-238342611D01*
X189462786Y-238247373D01*
X189415167Y-238152135D01*
X189367548Y-238104516D01*
X189272310Y-238056897D01*
X189081833Y-238009278D01*
X188986595Y-237961659D01*
X188938976Y-237914040D01*
X188891357Y-237818802D01*
X188891357Y-237723564D01*
X188938976Y-237628326D01*
X188986595Y-237580707D01*
X189081833Y-237533087D01*
X189319929Y-237533087D01*
X189462786Y-237580707D01*
X189843738Y-237628326D02*
X189891357Y-237580707D01*
X189986595Y-237533087D01*
X190224691Y-237533087D01*
X190319929Y-237580707D01*
X190367548Y-237628326D01*
X190415167Y-237723564D01*
X190415167Y-237818802D01*
X190367548Y-237961659D01*
X189796119Y-238533087D01*
X190415167Y-238533087D01*
X191272310Y-237866421D02*
X191272310Y-238533087D01*
X191034214Y-237485468D02*
X190796119Y-238199754D01*
X191415167Y-238199754D01*
G04 #@! TO.C,S25*
X192021357Y-259455468D02*
X192164214Y-259503087D01*
X192402310Y-259503087D01*
X192497548Y-259455468D01*
X192545167Y-259407849D01*
X192592786Y-259312611D01*
X192592786Y-259217373D01*
X192545167Y-259122135D01*
X192497548Y-259074516D01*
X192402310Y-259026897D01*
X192211833Y-258979278D01*
X192116595Y-258931659D01*
X192068976Y-258884040D01*
X192021357Y-258788802D01*
X192021357Y-258693564D01*
X192068976Y-258598326D01*
X192116595Y-258550707D01*
X192211833Y-258503087D01*
X192449929Y-258503087D01*
X192592786Y-258550707D01*
X192973738Y-258598326D02*
X193021357Y-258550707D01*
X193116595Y-258503087D01*
X193354691Y-258503087D01*
X193449929Y-258550707D01*
X193497548Y-258598326D01*
X193545167Y-258693564D01*
X193545167Y-258788802D01*
X193497548Y-258931659D01*
X192926119Y-259503087D01*
X193545167Y-259503087D01*
X194449929Y-258503087D02*
X193973738Y-258503087D01*
X193926119Y-258979278D01*
X193973738Y-258931659D01*
X194068976Y-258884040D01*
X194307072Y-258884040D01*
X194402310Y-258931659D01*
X194449929Y-258979278D01*
X194497548Y-259074516D01*
X194497548Y-259312611D01*
X194449929Y-259407849D01*
X194402310Y-259455468D01*
X194307072Y-259503087D01*
X194068976Y-259503087D01*
X193973738Y-259455468D01*
X193926119Y-259407849D01*
G04 #@! TO.C,S26*
X181681357Y-278075468D02*
X181824214Y-278123087D01*
X182062310Y-278123087D01*
X182157548Y-278075468D01*
X182205167Y-278027849D01*
X182252786Y-277932611D01*
X182252786Y-277837373D01*
X182205167Y-277742135D01*
X182157548Y-277694516D01*
X182062310Y-277646897D01*
X181871833Y-277599278D01*
X181776595Y-277551659D01*
X181728976Y-277504040D01*
X181681357Y-277408802D01*
X181681357Y-277313564D01*
X181728976Y-277218326D01*
X181776595Y-277170707D01*
X181871833Y-277123087D01*
X182109929Y-277123087D01*
X182252786Y-277170707D01*
X182633738Y-277218326D02*
X182681357Y-277170707D01*
X182776595Y-277123087D01*
X183014691Y-277123087D01*
X183109929Y-277170707D01*
X183157548Y-277218326D01*
X183205167Y-277313564D01*
X183205167Y-277408802D01*
X183157548Y-277551659D01*
X182586119Y-278123087D01*
X183205167Y-278123087D01*
X184062310Y-277123087D02*
X183871833Y-277123087D01*
X183776595Y-277170707D01*
X183728976Y-277218326D01*
X183633738Y-277361183D01*
X183586119Y-277551659D01*
X183586119Y-277932611D01*
X183633738Y-278027849D01*
X183681357Y-278075468D01*
X183776595Y-278123087D01*
X183967072Y-278123087D01*
X184062310Y-278075468D01*
X184109929Y-278027849D01*
X184157548Y-277932611D01*
X184157548Y-277694516D01*
X184109929Y-277599278D01*
X184062310Y-277551659D01*
X183967072Y-277504040D01*
X183776595Y-277504040D01*
X183681357Y-277551659D01*
X183633738Y-277599278D01*
X183586119Y-277694516D01*
G04 #@! TO.C,S27*
X159441357Y-278155468D02*
X159584214Y-278203087D01*
X159822310Y-278203087D01*
X159917548Y-278155468D01*
X159965167Y-278107849D01*
X160012786Y-278012611D01*
X160012786Y-277917373D01*
X159965167Y-277822135D01*
X159917548Y-277774516D01*
X159822310Y-277726897D01*
X159631833Y-277679278D01*
X159536595Y-277631659D01*
X159488976Y-277584040D01*
X159441357Y-277488802D01*
X159441357Y-277393564D01*
X159488976Y-277298326D01*
X159536595Y-277250707D01*
X159631833Y-277203087D01*
X159869929Y-277203087D01*
X160012786Y-277250707D01*
X160393738Y-277298326D02*
X160441357Y-277250707D01*
X160536595Y-277203087D01*
X160774691Y-277203087D01*
X160869929Y-277250707D01*
X160917548Y-277298326D01*
X160965167Y-277393564D01*
X160965167Y-277488802D01*
X160917548Y-277631659D01*
X160346119Y-278203087D01*
X160965167Y-278203087D01*
X161298500Y-277203087D02*
X161965167Y-277203087D01*
X161536595Y-278203087D01*
G04 #@! TO.C,S28*
X148411357Y-260285468D02*
X148554214Y-260333087D01*
X148792310Y-260333087D01*
X148887548Y-260285468D01*
X148935167Y-260237849D01*
X148982786Y-260142611D01*
X148982786Y-260047373D01*
X148935167Y-259952135D01*
X148887548Y-259904516D01*
X148792310Y-259856897D01*
X148601833Y-259809278D01*
X148506595Y-259761659D01*
X148458976Y-259714040D01*
X148411357Y-259618802D01*
X148411357Y-259523564D01*
X148458976Y-259428326D01*
X148506595Y-259380707D01*
X148601833Y-259333087D01*
X148839929Y-259333087D01*
X148982786Y-259380707D01*
X149363738Y-259428326D02*
X149411357Y-259380707D01*
X149506595Y-259333087D01*
X149744691Y-259333087D01*
X149839929Y-259380707D01*
X149887548Y-259428326D01*
X149935167Y-259523564D01*
X149935167Y-259618802D01*
X149887548Y-259761659D01*
X149316119Y-260333087D01*
X149935167Y-260333087D01*
X150506595Y-259761659D02*
X150411357Y-259714040D01*
X150363738Y-259666421D01*
X150316119Y-259571183D01*
X150316119Y-259523564D01*
X150363738Y-259428326D01*
X150411357Y-259380707D01*
X150506595Y-259333087D01*
X150697072Y-259333087D01*
X150792310Y-259380707D01*
X150839929Y-259428326D01*
X150887548Y-259523564D01*
X150887548Y-259571183D01*
X150839929Y-259666421D01*
X150792310Y-259714040D01*
X150697072Y-259761659D01*
X150506595Y-259761659D01*
X150411357Y-259809278D01*
X150363738Y-259856897D01*
X150316119Y-259952135D01*
X150316119Y-260142611D01*
X150363738Y-260237849D01*
X150411357Y-260285468D01*
X150506595Y-260333087D01*
X150697072Y-260333087D01*
X150792310Y-260285468D01*
X150839929Y-260237849D01*
X150887548Y-260142611D01*
X150887548Y-259952135D01*
X150839929Y-259856897D01*
X150792310Y-259809278D01*
X150697072Y-259761659D01*
G04 #@! TO.C,S29*
X170071357Y-255105468D02*
X170214214Y-255153087D01*
X170452310Y-255153087D01*
X170547548Y-255105468D01*
X170595167Y-255057849D01*
X170642786Y-254962611D01*
X170642786Y-254867373D01*
X170595167Y-254772135D01*
X170547548Y-254724516D01*
X170452310Y-254676897D01*
X170261833Y-254629278D01*
X170166595Y-254581659D01*
X170118976Y-254534040D01*
X170071357Y-254438802D01*
X170071357Y-254343564D01*
X170118976Y-254248326D01*
X170166595Y-254200707D01*
X170261833Y-254153087D01*
X170499929Y-254153087D01*
X170642786Y-254200707D01*
X171023738Y-254248326D02*
X171071357Y-254200707D01*
X171166595Y-254153087D01*
X171404691Y-254153087D01*
X171499929Y-254200707D01*
X171547548Y-254248326D01*
X171595167Y-254343564D01*
X171595167Y-254438802D01*
X171547548Y-254581659D01*
X170976119Y-255153087D01*
X171595167Y-255153087D01*
X172071357Y-255153087D02*
X172261833Y-255153087D01*
X172357072Y-255105468D01*
X172404691Y-255057849D01*
X172499929Y-254914992D01*
X172547548Y-254724516D01*
X172547548Y-254343564D01*
X172499929Y-254248326D01*
X172452310Y-254200707D01*
X172357072Y-254153087D01*
X172166595Y-254153087D01*
X172071357Y-254200707D01*
X172023738Y-254248326D01*
X171976119Y-254343564D01*
X171976119Y-254581659D01*
X172023738Y-254676897D01*
X172071357Y-254724516D01*
X172166595Y-254772135D01*
X172357072Y-254772135D01*
X172452310Y-254724516D01*
X172499929Y-254676897D01*
X172547548Y-254581659D01*
G04 #@! TO.C,S30*
X149001357Y-239125468D02*
X149144214Y-239173087D01*
X149382310Y-239173087D01*
X149477548Y-239125468D01*
X149525167Y-239077849D01*
X149572786Y-238982611D01*
X149572786Y-238887373D01*
X149525167Y-238792135D01*
X149477548Y-238744516D01*
X149382310Y-238696897D01*
X149191833Y-238649278D01*
X149096595Y-238601659D01*
X149048976Y-238554040D01*
X149001357Y-238458802D01*
X149001357Y-238363564D01*
X149048976Y-238268326D01*
X149096595Y-238220707D01*
X149191833Y-238173087D01*
X149429929Y-238173087D01*
X149572786Y-238220707D01*
X149906119Y-238173087D02*
X150525167Y-238173087D01*
X150191833Y-238554040D01*
X150334691Y-238554040D01*
X150429929Y-238601659D01*
X150477548Y-238649278D01*
X150525167Y-238744516D01*
X150525167Y-238982611D01*
X150477548Y-239077849D01*
X150429929Y-239125468D01*
X150334691Y-239173087D01*
X150048976Y-239173087D01*
X149953738Y-239125468D01*
X149906119Y-239077849D01*
X151144214Y-238173087D02*
X151239453Y-238173087D01*
X151334691Y-238220707D01*
X151382310Y-238268326D01*
X151429929Y-238363564D01*
X151477548Y-238554040D01*
X151477548Y-238792135D01*
X151429929Y-238982611D01*
X151382310Y-239077849D01*
X151334691Y-239125468D01*
X151239453Y-239173087D01*
X151144214Y-239173087D01*
X151048976Y-239125468D01*
X151001357Y-239077849D01*
X150953738Y-238982611D01*
X150906119Y-238792135D01*
X150906119Y-238554040D01*
X150953738Y-238363564D01*
X151001357Y-238268326D01*
X151048976Y-238220707D01*
X151144214Y-238173087D01*
G04 #@! TO.C,S31*
X168681357Y-231535468D02*
X168824214Y-231583087D01*
X169062310Y-231583087D01*
X169157548Y-231535468D01*
X169205167Y-231487849D01*
X169252786Y-231392611D01*
X169252786Y-231297373D01*
X169205167Y-231202135D01*
X169157548Y-231154516D01*
X169062310Y-231106897D01*
X168871833Y-231059278D01*
X168776595Y-231011659D01*
X168728976Y-230964040D01*
X168681357Y-230868802D01*
X168681357Y-230773564D01*
X168728976Y-230678326D01*
X168776595Y-230630707D01*
X168871833Y-230583087D01*
X169109929Y-230583087D01*
X169252786Y-230630707D01*
X169586119Y-230583087D02*
X170205167Y-230583087D01*
X169871833Y-230964040D01*
X170014691Y-230964040D01*
X170109929Y-231011659D01*
X170157548Y-231059278D01*
X170205167Y-231154516D01*
X170205167Y-231392611D01*
X170157548Y-231487849D01*
X170109929Y-231535468D01*
X170014691Y-231583087D01*
X169728976Y-231583087D01*
X169633738Y-231535468D01*
X169586119Y-231487849D01*
X171157548Y-231583087D02*
X170586119Y-231583087D01*
X170871833Y-231583087D02*
X170871833Y-230583087D01*
X170776595Y-230725945D01*
X170681357Y-230821183D01*
X170586119Y-230868802D01*
G04 #@! TO.C,J2*
X197134954Y-190384969D02*
X197184780Y-191097515D01*
X197242248Y-191236702D01*
X197343898Y-191325065D01*
X197489729Y-191362603D01*
X197584735Y-191355959D01*
X196714070Y-190509871D02*
X196663245Y-190465690D01*
X196564917Y-190424830D01*
X196327402Y-190441439D01*
X196235718Y-190495585D01*
X196191536Y-190546410D01*
X196150677Y-190644738D01*
X196157320Y-190739744D01*
X196214789Y-190878931D01*
X196824686Y-191409107D01*
X196207146Y-191452290D01*
G04 #@! TO.C,L1*
X195384924Y-155784371D02*
X195797317Y-156022466D01*
X196297317Y-155156441D01*
X194642616Y-155355800D02*
X195137488Y-155641514D01*
X194890052Y-155498657D02*
X195390052Y-154632632D01*
X195401102Y-154803969D01*
X195435962Y-154934066D01*
X195494631Y-155022925D01*
G04 #@! TO.C,L2*
X190534924Y-149362255D02*
X190947317Y-149600350D01*
X191447317Y-148734325D01*
X190739869Y-148435851D02*
X190722439Y-148370802D01*
X190663770Y-148281944D01*
X190457573Y-148162896D01*
X190351285Y-148156517D01*
X190286236Y-148173947D01*
X190197378Y-148232616D01*
X190149759Y-148315094D01*
X190119570Y-148462622D01*
X190328727Y-149243208D01*
X189792616Y-148933684D01*
G04 #@! TO.C,J1*
X187873671Y-204288351D02*
X187159821Y-204313279D01*
X187018712Y-204365855D01*
X186926856Y-204464359D01*
X186884252Y-204608791D01*
X186887575Y-204703971D01*
X186839381Y-203323860D02*
X186859323Y-203894940D01*
X186849352Y-203609400D02*
X187848743Y-203574501D01*
X187709297Y-203674666D01*
X187617440Y-203773170D01*
X187573174Y-203870012D01*
G04 #@! TD*
M02*
