G04 #@! TF.GenerationSoftware,KiCad,Pcbnew,(5.0.0)*
G04 #@! TF.CreationDate,2019-11-18T10:43:10+01:00*
G04 #@! TF.ProjectId,Insole_PCB,496E736F6C655F5043422E6B69636164,rev?*
G04 #@! TF.SameCoordinates,Original*
G04 #@! TF.FileFunction,Other,User*
%FSLAX46Y46*%
G04 Gerber Fmt 4.6, Leading zero omitted, Abs format (unit mm)*
G04 Created by KiCad (PCBNEW (5.0.0)) date 11/18/19 10:43:10*
%MOMM*%
%LPD*%
G01*
G04 APERTURE LIST*
%ADD10C,0.100000*%
G04 APERTURE END LIST*
D10*
X188269453Y-148190707D02*
X192319453Y-150520707D01*
X190399453Y-144480707D02*
X188269453Y-148190707D01*
X194579453Y-146830707D02*
X190399453Y-144480707D01*
X192319453Y-150520707D02*
X194579453Y-146830707D01*
X191749453Y-157570707D02*
X195799453Y-159900707D01*
X193879453Y-153860707D02*
X191749453Y-157570707D01*
X198059453Y-156210707D02*
X193879453Y-153860707D01*
X195799453Y-159900707D02*
X198059453Y-156210707D01*
X193879453Y-153860707D02*
X191749453Y-157570707D01*
X198059453Y-156210707D02*
X193879453Y-153860707D01*
X195799453Y-159900707D02*
X198059453Y-156210707D01*
X191749453Y-157570707D02*
X195799453Y-159900707D01*
X211548356Y-131247841D02*
G75*
G03X173529453Y-199850707I481097J-45102866D01*
G01*
X173529453Y-199850707D02*
G75*
G03X200024786Y-217077384I22873048J6190891D01*
G01*
X189919454Y-210020707D02*
G75*
G03X190365647Y-210382053I401061J39080D01*
G01*
X189563786Y-197634496D02*
G75*
G03X189489453Y-197820707I227154J-198619D01*
G01*
X199094293Y-177682495D02*
X199012093Y-180172475D01*
X201699713Y-155980449D02*
X201192703Y-158302824D01*
X202274723Y-153687558D02*
X201699713Y-155980449D01*
X203620893Y-149190612D02*
X202916583Y-151424697D01*
X200367023Y-163027228D02*
X200039943Y-165424945D01*
X199764453Y-167843467D02*
X199536333Y-170280639D01*
X200749873Y-160652469D02*
X200367023Y-163027228D01*
X201192703Y-158302824D02*
X200749873Y-160652469D01*
X199205453Y-175202306D02*
X199094293Y-177682495D01*
X190379453Y-210380707D02*
X199526773Y-210013976D01*
X206063993Y-142648040D02*
X205199053Y-144803581D01*
X204383203Y-146984006D02*
X203620893Y-149190612D01*
X199526773Y-210013976D02*
X199848743Y-214832282D01*
X199351403Y-172734302D02*
X199205453Y-175202306D01*
X199536333Y-170280639D02*
X199351403Y-172734302D01*
X198916493Y-185171997D02*
X198904393Y-190183746D01*
X211549453Y-131250707D02*
X209892793Y-134230096D01*
X207921333Y-138405579D02*
X206973573Y-140516086D01*
X209892793Y-134230096D02*
X207921333Y-138405579D01*
X202916583Y-151424697D02*
X202274723Y-153687558D01*
X200039943Y-165424945D02*
X199764453Y-167843467D01*
X205199053Y-144803581D02*
X204383203Y-146984006D01*
X206973573Y-140516086D02*
X206063993Y-142648040D01*
X199848743Y-214832282D02*
X200029453Y-217080707D01*
X189489453Y-197830707D02*
X189919453Y-210020707D01*
X195339453Y-190170707D02*
X189559453Y-197640707D01*
X198904393Y-190183746D02*
X195339453Y-190170707D01*
X199012093Y-180172475D02*
X198916493Y-185171997D01*
M02*
