G04 #@! TF.GenerationSoftware,KiCad,Pcbnew,(5.0.0)*
G04 #@! TF.CreationDate,2019-11-18T10:43:10+01:00*
G04 #@! TF.ProjectId,Insole_PCB,496E736F6C655F5043422E6B69636164,rev?*
G04 #@! TF.SameCoordinates,Original*
G04 #@! TF.FileFunction,Paste,Top*
G04 #@! TF.FilePolarity,Positive*
%FSLAX46Y46*%
G04 Gerber Fmt 4.6, Leading zero omitted, Abs format (unit mm)*
G04 Created by KiCad (PCBNEW (5.0.0)) date 11/18/19 10:43:10*
%MOMM*%
%LPD*%
G01*
G04 APERTURE LIST*
%ADD10C,0.100000*%
%ADD11C,1.150000*%
%ADD12C,1.600000*%
%ADD13C,1.500000*%
%ADD14C,0.400000*%
G04 APERTURE END LIST*
D10*
G04 #@! TO.C,L1*
G36*
X193730273Y-155425634D02*
X193754411Y-155430026D01*
X193778001Y-155436762D01*
X193800818Y-155445779D01*
X193822641Y-155456988D01*
X194385560Y-155781989D01*
X194406180Y-155795284D01*
X194425397Y-155810536D01*
X194443026Y-155827598D01*
X194458898Y-155846305D01*
X194472861Y-155866478D01*
X194484778Y-155887923D01*
X194494536Y-155910433D01*
X194502041Y-155933790D01*
X194507221Y-155957771D01*
X194510025Y-155982144D01*
X194510426Y-156006675D01*
X194508421Y-156031126D01*
X194504029Y-156055264D01*
X194497293Y-156078854D01*
X194488276Y-156101671D01*
X194477067Y-156123494D01*
X194027066Y-156902919D01*
X194013771Y-156923539D01*
X193998519Y-156942756D01*
X193981457Y-156960385D01*
X193962750Y-156976258D01*
X193942576Y-156990220D01*
X193921132Y-157002137D01*
X193898622Y-157011896D01*
X193875265Y-157019400D01*
X193851284Y-157024580D01*
X193826911Y-157027384D01*
X193802380Y-157027785D01*
X193777929Y-157025780D01*
X193753791Y-157021388D01*
X193730201Y-157014652D01*
X193707384Y-157005635D01*
X193685561Y-156994426D01*
X193122642Y-156669425D01*
X193102022Y-156656130D01*
X193082805Y-156640878D01*
X193065176Y-156623816D01*
X193049304Y-156605109D01*
X193035341Y-156584936D01*
X193023424Y-156563491D01*
X193013666Y-156540981D01*
X193006161Y-156517624D01*
X193000981Y-156493643D01*
X192998177Y-156469270D01*
X192997776Y-156444739D01*
X192999781Y-156420288D01*
X193004173Y-156396150D01*
X193010909Y-156372560D01*
X193019926Y-156349743D01*
X193031135Y-156327920D01*
X193481136Y-155548495D01*
X193494431Y-155527875D01*
X193509683Y-155508658D01*
X193526745Y-155491029D01*
X193545452Y-155475156D01*
X193565626Y-155461194D01*
X193587070Y-155449277D01*
X193609580Y-155439518D01*
X193632937Y-155432014D01*
X193656918Y-155426834D01*
X193681291Y-155424030D01*
X193705822Y-155423629D01*
X193730273Y-155425634D01*
X193730273Y-155425634D01*
G37*
D11*
X193754101Y-156225707D03*
D10*
G36*
X195505625Y-156450634D02*
X195529763Y-156455026D01*
X195553353Y-156461762D01*
X195576170Y-156470779D01*
X195597993Y-156481988D01*
X196160912Y-156806989D01*
X196181532Y-156820284D01*
X196200749Y-156835536D01*
X196218378Y-156852598D01*
X196234250Y-156871305D01*
X196248213Y-156891478D01*
X196260130Y-156912923D01*
X196269888Y-156935433D01*
X196277393Y-156958790D01*
X196282573Y-156982771D01*
X196285377Y-157007144D01*
X196285778Y-157031675D01*
X196283773Y-157056126D01*
X196279381Y-157080264D01*
X196272645Y-157103854D01*
X196263628Y-157126671D01*
X196252419Y-157148494D01*
X195802418Y-157927919D01*
X195789123Y-157948539D01*
X195773871Y-157967756D01*
X195756809Y-157985385D01*
X195738102Y-158001258D01*
X195717928Y-158015220D01*
X195696484Y-158027137D01*
X195673974Y-158036896D01*
X195650617Y-158044400D01*
X195626636Y-158049580D01*
X195602263Y-158052384D01*
X195577732Y-158052785D01*
X195553281Y-158050780D01*
X195529143Y-158046388D01*
X195505553Y-158039652D01*
X195482736Y-158030635D01*
X195460913Y-158019426D01*
X194897994Y-157694425D01*
X194877374Y-157681130D01*
X194858157Y-157665878D01*
X194840528Y-157648816D01*
X194824656Y-157630109D01*
X194810693Y-157609936D01*
X194798776Y-157588491D01*
X194789018Y-157565981D01*
X194781513Y-157542624D01*
X194776333Y-157518643D01*
X194773529Y-157494270D01*
X194773128Y-157469739D01*
X194775133Y-157445288D01*
X194779525Y-157421150D01*
X194786261Y-157397560D01*
X194795278Y-157374743D01*
X194806487Y-157352920D01*
X195256488Y-156573495D01*
X195269783Y-156552875D01*
X195285035Y-156533658D01*
X195302097Y-156516029D01*
X195320804Y-156500156D01*
X195340978Y-156486194D01*
X195362422Y-156474277D01*
X195384932Y-156464518D01*
X195408289Y-156457014D01*
X195432270Y-156451834D01*
X195456643Y-156449030D01*
X195481174Y-156448629D01*
X195505625Y-156450634D01*
X195505625Y-156450634D01*
G37*
D11*
X195529453Y-157250707D03*
G04 #@! TD*
D10*
G04 #@! TO.C,L2*
G36*
X192305625Y-147170634D02*
X192329763Y-147175026D01*
X192353353Y-147181762D01*
X192376170Y-147190779D01*
X192397993Y-147201988D01*
X192960912Y-147526989D01*
X192981532Y-147540284D01*
X193000749Y-147555536D01*
X193018378Y-147572598D01*
X193034250Y-147591305D01*
X193048213Y-147611478D01*
X193060130Y-147632923D01*
X193069888Y-147655433D01*
X193077393Y-147678790D01*
X193082573Y-147702771D01*
X193085377Y-147727144D01*
X193085778Y-147751675D01*
X193083773Y-147776126D01*
X193079381Y-147800264D01*
X193072645Y-147823854D01*
X193063628Y-147846671D01*
X193052419Y-147868494D01*
X192602418Y-148647919D01*
X192589123Y-148668539D01*
X192573871Y-148687756D01*
X192556809Y-148705385D01*
X192538102Y-148721258D01*
X192517928Y-148735220D01*
X192496484Y-148747137D01*
X192473974Y-148756896D01*
X192450617Y-148764400D01*
X192426636Y-148769580D01*
X192402263Y-148772384D01*
X192377732Y-148772785D01*
X192353281Y-148770780D01*
X192329143Y-148766388D01*
X192305553Y-148759652D01*
X192282736Y-148750635D01*
X192260913Y-148739426D01*
X191697994Y-148414425D01*
X191677374Y-148401130D01*
X191658157Y-148385878D01*
X191640528Y-148368816D01*
X191624656Y-148350109D01*
X191610693Y-148329936D01*
X191598776Y-148308491D01*
X191589018Y-148285981D01*
X191581513Y-148262624D01*
X191576333Y-148238643D01*
X191573529Y-148214270D01*
X191573128Y-148189739D01*
X191575133Y-148165288D01*
X191579525Y-148141150D01*
X191586261Y-148117560D01*
X191595278Y-148094743D01*
X191606487Y-148072920D01*
X192056488Y-147293495D01*
X192069783Y-147272875D01*
X192085035Y-147253658D01*
X192102097Y-147236029D01*
X192120804Y-147220156D01*
X192140978Y-147206194D01*
X192162422Y-147194277D01*
X192184932Y-147184518D01*
X192208289Y-147177014D01*
X192232270Y-147171834D01*
X192256643Y-147169030D01*
X192281174Y-147168629D01*
X192305625Y-147170634D01*
X192305625Y-147170634D01*
G37*
D11*
X192329453Y-147970707D03*
D10*
G36*
X190530273Y-146145634D02*
X190554411Y-146150026D01*
X190578001Y-146156762D01*
X190600818Y-146165779D01*
X190622641Y-146176988D01*
X191185560Y-146501989D01*
X191206180Y-146515284D01*
X191225397Y-146530536D01*
X191243026Y-146547598D01*
X191258898Y-146566305D01*
X191272861Y-146586478D01*
X191284778Y-146607923D01*
X191294536Y-146630433D01*
X191302041Y-146653790D01*
X191307221Y-146677771D01*
X191310025Y-146702144D01*
X191310426Y-146726675D01*
X191308421Y-146751126D01*
X191304029Y-146775264D01*
X191297293Y-146798854D01*
X191288276Y-146821671D01*
X191277067Y-146843494D01*
X190827066Y-147622919D01*
X190813771Y-147643539D01*
X190798519Y-147662756D01*
X190781457Y-147680385D01*
X190762750Y-147696258D01*
X190742576Y-147710220D01*
X190721132Y-147722137D01*
X190698622Y-147731896D01*
X190675265Y-147739400D01*
X190651284Y-147744580D01*
X190626911Y-147747384D01*
X190602380Y-147747785D01*
X190577929Y-147745780D01*
X190553791Y-147741388D01*
X190530201Y-147734652D01*
X190507384Y-147725635D01*
X190485561Y-147714426D01*
X189922642Y-147389425D01*
X189902022Y-147376130D01*
X189882805Y-147360878D01*
X189865176Y-147343816D01*
X189849304Y-147325109D01*
X189835341Y-147304936D01*
X189823424Y-147283491D01*
X189813666Y-147260981D01*
X189806161Y-147237624D01*
X189800981Y-147213643D01*
X189798177Y-147189270D01*
X189797776Y-147164739D01*
X189799781Y-147140288D01*
X189804173Y-147116150D01*
X189810909Y-147092560D01*
X189819926Y-147069743D01*
X189831135Y-147047920D01*
X190281136Y-146268495D01*
X190294431Y-146247875D01*
X190309683Y-146228658D01*
X190326745Y-146211029D01*
X190345452Y-146195156D01*
X190365626Y-146181194D01*
X190387070Y-146169277D01*
X190409580Y-146159518D01*
X190432937Y-146152014D01*
X190456918Y-146146834D01*
X190481291Y-146144030D01*
X190505822Y-146143629D01*
X190530273Y-146145634D01*
X190530273Y-146145634D01*
G37*
D11*
X190554101Y-146945707D03*
G04 #@! TD*
D12*
G04 #@! TO.C,J1*
X193229559Y-198564613D03*
D10*
G36*
X193457357Y-199357146D02*
X193490511Y-200306567D01*
X192690999Y-200334487D01*
X192066062Y-199630868D01*
X192002370Y-197806980D01*
X194400908Y-197723221D01*
X194456748Y-199322246D01*
X193457357Y-199357146D01*
X193457357Y-199357146D01*
G37*
D12*
X193592514Y-208958278D03*
D10*
G36*
X192421165Y-209799670D02*
X192357473Y-207975782D01*
X192931805Y-207230284D01*
X193731318Y-207202364D01*
X193764473Y-208151785D01*
X194763863Y-208116886D01*
X194819703Y-209715911D01*
X192421165Y-209799670D01*
X192421165Y-209799670D01*
G37*
D13*
X191551218Y-206377946D03*
D10*
G36*
X190770265Y-205504669D02*
X192269352Y-205452320D01*
X192332171Y-207251223D01*
X190833084Y-207303572D01*
X190770265Y-205504669D01*
X190770265Y-205504669D01*
G37*
D13*
X191373231Y-201281053D03*
D10*
G36*
X190592278Y-200407776D02*
X192091365Y-200355427D01*
X192154184Y-202154330D01*
X190655097Y-202206679D01*
X190592278Y-200407776D01*
X190592278Y-200407776D01*
G37*
D12*
X197888150Y-208758241D03*
D10*
G36*
X196660961Y-208000608D02*
X199059499Y-207916849D01*
X199115339Y-209515874D01*
X196716801Y-209599633D01*
X196660961Y-208000608D01*
X196660961Y-208000608D01*
G37*
D12*
X197528685Y-198464515D03*
D10*
G36*
X196301496Y-197706882D02*
X198700034Y-197623123D01*
X198755874Y-199222148D01*
X196357336Y-199305907D01*
X196301496Y-197706882D01*
X196301496Y-197706882D01*
G37*
D14*
X193131604Y-205071996D03*
D10*
G36*
X192599944Y-204890440D02*
X193649304Y-204853796D01*
X193663264Y-205253552D01*
X192613904Y-205290196D01*
X192599944Y-204890440D01*
X192599944Y-204890440D01*
G37*
D14*
X193108920Y-204422392D03*
D10*
G36*
X192577260Y-204240836D02*
X193626620Y-204204192D01*
X193640580Y-204603948D01*
X192591220Y-204640592D01*
X192577260Y-204240836D01*
X192577260Y-204240836D01*
G37*
D14*
X193086235Y-203772788D03*
D10*
G36*
X192554575Y-203591232D02*
X193603935Y-203554588D01*
X193617895Y-203954344D01*
X192568535Y-203990988D01*
X192554575Y-203591232D01*
X192554575Y-203591232D01*
G37*
D14*
X193063550Y-203123184D03*
D10*
G36*
X192531890Y-202941628D02*
X193581250Y-202904984D01*
X193595210Y-203304740D01*
X192545850Y-203341384D01*
X192531890Y-202941628D01*
X192531890Y-202941628D01*
G37*
D14*
X193040865Y-202473580D03*
D10*
G36*
X192509205Y-202292024D02*
X193558565Y-202255380D01*
X193572525Y-202655136D01*
X192523165Y-202691780D01*
X192509205Y-202292024D01*
X192509205Y-202292024D01*
G37*
G04 #@! TD*
M02*
