G04 #@! TF.GenerationSoftware,KiCad,Pcbnew,(5.0.0)*
G04 #@! TF.CreationDate,2019-11-18T10:43:10+01:00*
G04 #@! TF.ProjectId,Insole_PCB,496E736F6C655F5043422E6B69636164,rev?*
G04 #@! TF.SameCoordinates,Original*
G04 #@! TF.FileFunction,Soldermask,Bot*
G04 #@! TF.FilePolarity,Negative*
%FSLAX46Y46*%
G04 Gerber Fmt 4.6, Leading zero omitted, Abs format (unit mm)*
G04 Created by KiCad (PCBNEW (5.0.0)) date 11/18/19 10:43:10*
%MOMM*%
%LPD*%
G01*
G04 APERTURE LIST*
%ADD10C,1.250000*%
%ADD11C,1.250000*%
%ADD12C,0.100000*%
%ADD13R,1.075000X0.650000*%
%ADD14R,0.650000X1.075000*%
%ADD15C,1.275000*%
%ADD16C,0.500000*%
%ADD17C,1.550000*%
%ADD18C,0.850000*%
%ADD19R,1.900000X0.850000*%
%ADD20R,0.850000X1.900000*%
%ADD21R,1.200000X1.300000*%
%ADD22C,1.050000*%
%ADD23C,0.810000*%
%ADD24C,2.200000*%
%ADD25C,0.900000*%
%ADD26C,0.800000*%
%ADD27C,1.200000*%
G04 APERTURE END LIST*
D10*
G04 #@! TO.C,J2*
X197019209Y-193508271D03*
D11*
X197019209Y-193508271D02*
X197019209Y-193508271D01*
D10*
X196949453Y-192510707D03*
D12*
G36*
X197529333Y-191843632D02*
X197616528Y-193090587D01*
X196369573Y-193177782D01*
X196282378Y-191930827D01*
X197529333Y-191843632D01*
X197529333Y-191843632D01*
G37*
G04 #@! TD*
D13*
G04 #@! TO.C,U2*
X189291953Y-166200707D03*
X189291953Y-166700707D03*
X189291953Y-167200707D03*
X189291953Y-167700707D03*
X186766953Y-167700707D03*
X186766953Y-167200707D03*
X186766953Y-166700707D03*
X186766953Y-166200707D03*
D14*
X188529453Y-167963207D03*
X188029453Y-167963207D03*
X187529453Y-167963207D03*
X188529453Y-165938207D03*
X187529453Y-165938207D03*
X188029453Y-165938207D03*
G04 #@! TD*
D12*
G04 #@! TO.C,C1*
G36*
X191757759Y-192777263D02*
X191788559Y-192782729D01*
X191818674Y-192791187D01*
X191847815Y-192802556D01*
X191875702Y-192816727D01*
X191902066Y-192833563D01*
X191926652Y-192852901D01*
X191949224Y-192874557D01*
X191969565Y-192898321D01*
X191987479Y-192923964D01*
X192002793Y-192951240D01*
X192015360Y-192979885D01*
X192025059Y-193009624D01*
X192031796Y-193040171D01*
X192035507Y-193071230D01*
X192079977Y-193707177D01*
X192080625Y-193738451D01*
X192078205Y-193769638D01*
X192072739Y-193800437D01*
X192064281Y-193830553D01*
X192052912Y-193859694D01*
X192038741Y-193887581D01*
X192021906Y-193913944D01*
X192002567Y-193938531D01*
X191980911Y-193961103D01*
X191957147Y-193981444D01*
X191931504Y-193999358D01*
X191904229Y-194014672D01*
X191875583Y-194027239D01*
X191845844Y-194036938D01*
X191815298Y-194043675D01*
X191784238Y-194047386D01*
X191073474Y-194097087D01*
X191042200Y-194097735D01*
X191011013Y-194095315D01*
X190980213Y-194089849D01*
X190950098Y-194081391D01*
X190920957Y-194070022D01*
X190893070Y-194055851D01*
X190866706Y-194039015D01*
X190842120Y-194019677D01*
X190819548Y-193998021D01*
X190799207Y-193974257D01*
X190781293Y-193948614D01*
X190765979Y-193921338D01*
X190753412Y-193892693D01*
X190743713Y-193862954D01*
X190736976Y-193832407D01*
X190733265Y-193801348D01*
X190688795Y-193165401D01*
X190688147Y-193134127D01*
X190690567Y-193102940D01*
X190696033Y-193072141D01*
X190704491Y-193042025D01*
X190715860Y-193012884D01*
X190730031Y-192984997D01*
X190746866Y-192958634D01*
X190766205Y-192934047D01*
X190787861Y-192911475D01*
X190811625Y-192891134D01*
X190837268Y-192873220D01*
X190864543Y-192857906D01*
X190893189Y-192845339D01*
X190922928Y-192835640D01*
X190953474Y-192828903D01*
X190984534Y-192825192D01*
X191695298Y-192775491D01*
X191726572Y-192774843D01*
X191757759Y-192777263D01*
X191757759Y-192777263D01*
G37*
D15*
X191384386Y-193436289D03*
D12*
G36*
X191647893Y-191206099D02*
X191678693Y-191211565D01*
X191708808Y-191220023D01*
X191737949Y-191231392D01*
X191765836Y-191245563D01*
X191792200Y-191262399D01*
X191816786Y-191281737D01*
X191839358Y-191303393D01*
X191859699Y-191327157D01*
X191877613Y-191352800D01*
X191892927Y-191380076D01*
X191905494Y-191408721D01*
X191915193Y-191438460D01*
X191921930Y-191469007D01*
X191925641Y-191500066D01*
X191970111Y-192136013D01*
X191970759Y-192167287D01*
X191968339Y-192198474D01*
X191962873Y-192229273D01*
X191954415Y-192259389D01*
X191943046Y-192288530D01*
X191928875Y-192316417D01*
X191912040Y-192342780D01*
X191892701Y-192367367D01*
X191871045Y-192389939D01*
X191847281Y-192410280D01*
X191821638Y-192428194D01*
X191794363Y-192443508D01*
X191765717Y-192456075D01*
X191735978Y-192465774D01*
X191705432Y-192472511D01*
X191674372Y-192476222D01*
X190963608Y-192525923D01*
X190932334Y-192526571D01*
X190901147Y-192524151D01*
X190870347Y-192518685D01*
X190840232Y-192510227D01*
X190811091Y-192498858D01*
X190783204Y-192484687D01*
X190756840Y-192467851D01*
X190732254Y-192448513D01*
X190709682Y-192426857D01*
X190689341Y-192403093D01*
X190671427Y-192377450D01*
X190656113Y-192350174D01*
X190643546Y-192321529D01*
X190633847Y-192291790D01*
X190627110Y-192261243D01*
X190623399Y-192230184D01*
X190578929Y-191594237D01*
X190578281Y-191562963D01*
X190580701Y-191531776D01*
X190586167Y-191500977D01*
X190594625Y-191470861D01*
X190605994Y-191441720D01*
X190620165Y-191413833D01*
X190637000Y-191387470D01*
X190656339Y-191362883D01*
X190677995Y-191340311D01*
X190701759Y-191319970D01*
X190727402Y-191302056D01*
X190754677Y-191286742D01*
X190783323Y-191274175D01*
X190813062Y-191264476D01*
X190843608Y-191257739D01*
X190874668Y-191254028D01*
X191585432Y-191204327D01*
X191616706Y-191203679D01*
X191647893Y-191206099D01*
X191647893Y-191206099D01*
G37*
D15*
X191274520Y-191865125D03*
G04 #@! TD*
D12*
G04 #@! TO.C,C2*
G36*
X170919591Y-186403793D02*
X170950303Y-186409728D01*
X170980286Y-186418645D01*
X171009250Y-186430457D01*
X171036917Y-186445052D01*
X171063021Y-186462289D01*
X171087309Y-186482001D01*
X171109548Y-186503998D01*
X171129524Y-186528070D01*
X171147044Y-186553984D01*
X171161940Y-186581490D01*
X171174068Y-186610324D01*
X171392105Y-187209378D01*
X171401349Y-187239262D01*
X171407618Y-187269908D01*
X171410854Y-187301021D01*
X171411025Y-187332301D01*
X171408128Y-187363447D01*
X171402193Y-187394160D01*
X171393276Y-187424143D01*
X171381463Y-187453107D01*
X171366868Y-187480774D01*
X171349632Y-187506877D01*
X171329920Y-187531165D01*
X171307922Y-187553404D01*
X171283850Y-187573380D01*
X171257937Y-187590900D01*
X171230430Y-187605796D01*
X171201597Y-187617924D01*
X170532066Y-187861614D01*
X170502182Y-187870857D01*
X170471537Y-187877127D01*
X170440424Y-187880363D01*
X170409144Y-187880534D01*
X170377997Y-187877637D01*
X170347285Y-187871702D01*
X170317302Y-187862785D01*
X170288338Y-187850973D01*
X170260671Y-187836378D01*
X170234567Y-187819141D01*
X170210279Y-187799429D01*
X170188040Y-187777432D01*
X170168064Y-187753360D01*
X170150544Y-187727446D01*
X170135648Y-187699940D01*
X170123520Y-187671106D01*
X169905483Y-187072052D01*
X169896239Y-187042168D01*
X169889970Y-187011522D01*
X169886734Y-186980409D01*
X169886563Y-186949129D01*
X169889460Y-186917983D01*
X169895395Y-186887270D01*
X169904312Y-186857287D01*
X169916125Y-186828323D01*
X169930720Y-186800656D01*
X169947956Y-186774553D01*
X169967668Y-186750265D01*
X169989666Y-186728026D01*
X170013738Y-186708050D01*
X170039651Y-186690530D01*
X170067158Y-186675634D01*
X170095991Y-186663506D01*
X170765522Y-186419816D01*
X170795406Y-186410573D01*
X170826051Y-186404303D01*
X170857164Y-186401067D01*
X170888444Y-186400896D01*
X170919591Y-186403793D01*
X170919591Y-186403793D01*
G37*
D15*
X170648794Y-187140715D03*
D12*
G36*
X170380909Y-184923777D02*
X170411621Y-184929712D01*
X170441604Y-184938629D01*
X170470568Y-184950441D01*
X170498235Y-184965036D01*
X170524339Y-184982273D01*
X170548627Y-185001985D01*
X170570866Y-185023982D01*
X170590842Y-185048054D01*
X170608362Y-185073968D01*
X170623258Y-185101474D01*
X170635386Y-185130308D01*
X170853423Y-185729362D01*
X170862667Y-185759246D01*
X170868936Y-185789892D01*
X170872172Y-185821005D01*
X170872343Y-185852285D01*
X170869446Y-185883431D01*
X170863511Y-185914144D01*
X170854594Y-185944127D01*
X170842781Y-185973091D01*
X170828186Y-186000758D01*
X170810950Y-186026861D01*
X170791238Y-186051149D01*
X170769240Y-186073388D01*
X170745168Y-186093364D01*
X170719255Y-186110884D01*
X170691748Y-186125780D01*
X170662915Y-186137908D01*
X169993384Y-186381598D01*
X169963500Y-186390841D01*
X169932855Y-186397111D01*
X169901742Y-186400347D01*
X169870462Y-186400518D01*
X169839315Y-186397621D01*
X169808603Y-186391686D01*
X169778620Y-186382769D01*
X169749656Y-186370957D01*
X169721989Y-186356362D01*
X169695885Y-186339125D01*
X169671597Y-186319413D01*
X169649358Y-186297416D01*
X169629382Y-186273344D01*
X169611862Y-186247430D01*
X169596966Y-186219924D01*
X169584838Y-186191090D01*
X169366801Y-185592036D01*
X169357557Y-185562152D01*
X169351288Y-185531506D01*
X169348052Y-185500393D01*
X169347881Y-185469113D01*
X169350778Y-185437967D01*
X169356713Y-185407254D01*
X169365630Y-185377271D01*
X169377443Y-185348307D01*
X169392038Y-185320640D01*
X169409274Y-185294537D01*
X169428986Y-185270249D01*
X169450984Y-185248010D01*
X169475056Y-185228034D01*
X169500969Y-185210514D01*
X169528476Y-185195618D01*
X169557309Y-185183490D01*
X170226840Y-184939800D01*
X170256724Y-184930557D01*
X170287369Y-184924287D01*
X170318482Y-184921051D01*
X170349762Y-184920880D01*
X170380909Y-184923777D01*
X170380909Y-184923777D01*
G37*
D15*
X170110112Y-185660699D03*
G04 #@! TD*
D12*
G04 #@! TO.C,C3*
G36*
X186161841Y-184895456D02*
X186192540Y-184901458D01*
X186222504Y-184910440D01*
X186251442Y-184922316D01*
X186279077Y-184936971D01*
X186305143Y-184954264D01*
X186329388Y-184974029D01*
X186351579Y-184996076D01*
X186371502Y-185020191D01*
X186388966Y-185046143D01*
X186403802Y-185073681D01*
X186415867Y-185102542D01*
X186425045Y-185132445D01*
X186431248Y-185163105D01*
X186434416Y-185194225D01*
X186467780Y-185830851D01*
X186467883Y-185862131D01*
X186464918Y-185893271D01*
X186458916Y-185923971D01*
X186449934Y-185953934D01*
X186438058Y-185982873D01*
X186423403Y-186010508D01*
X186406109Y-186036573D01*
X186386344Y-186060818D01*
X186364298Y-186083009D01*
X186340183Y-186102933D01*
X186314231Y-186120396D01*
X186286692Y-186135232D01*
X186257832Y-186147297D01*
X186227928Y-186156475D01*
X186197269Y-186162678D01*
X186166149Y-186165846D01*
X185454625Y-186203136D01*
X185423345Y-186203239D01*
X185392205Y-186200274D01*
X185361506Y-186194272D01*
X185331542Y-186185290D01*
X185302604Y-186173414D01*
X185274969Y-186158759D01*
X185248903Y-186141466D01*
X185224658Y-186121701D01*
X185202467Y-186099654D01*
X185182544Y-186075539D01*
X185165080Y-186049587D01*
X185150244Y-186022049D01*
X185138179Y-185993188D01*
X185129001Y-185963285D01*
X185122798Y-185932625D01*
X185119630Y-185901505D01*
X185086266Y-185264879D01*
X185086163Y-185233599D01*
X185089128Y-185202459D01*
X185095130Y-185171759D01*
X185104112Y-185141796D01*
X185115988Y-185112857D01*
X185130643Y-185085222D01*
X185147937Y-185059157D01*
X185167702Y-185034912D01*
X185189748Y-185012721D01*
X185213863Y-184992797D01*
X185239815Y-184975334D01*
X185267354Y-184960498D01*
X185296214Y-184948433D01*
X185326118Y-184939255D01*
X185356777Y-184933052D01*
X185387897Y-184929884D01*
X186099421Y-184892594D01*
X186130701Y-184892491D01*
X186161841Y-184895456D01*
X186161841Y-184895456D01*
G37*
D15*
X185777023Y-185547865D03*
D12*
G36*
X186244271Y-186468298D02*
X186274970Y-186474300D01*
X186304934Y-186483282D01*
X186333872Y-186495158D01*
X186361507Y-186509813D01*
X186387573Y-186527106D01*
X186411818Y-186546871D01*
X186434009Y-186568918D01*
X186453932Y-186593033D01*
X186471396Y-186618985D01*
X186486232Y-186646523D01*
X186498297Y-186675384D01*
X186507475Y-186705287D01*
X186513678Y-186735947D01*
X186516846Y-186767067D01*
X186550210Y-187403693D01*
X186550313Y-187434973D01*
X186547348Y-187466113D01*
X186541346Y-187496813D01*
X186532364Y-187526776D01*
X186520488Y-187555715D01*
X186505833Y-187583350D01*
X186488539Y-187609415D01*
X186468774Y-187633660D01*
X186446728Y-187655851D01*
X186422613Y-187675775D01*
X186396661Y-187693238D01*
X186369122Y-187708074D01*
X186340262Y-187720139D01*
X186310358Y-187729317D01*
X186279699Y-187735520D01*
X186248579Y-187738688D01*
X185537055Y-187775978D01*
X185505775Y-187776081D01*
X185474635Y-187773116D01*
X185443936Y-187767114D01*
X185413972Y-187758132D01*
X185385034Y-187746256D01*
X185357399Y-187731601D01*
X185331333Y-187714308D01*
X185307088Y-187694543D01*
X185284897Y-187672496D01*
X185264974Y-187648381D01*
X185247510Y-187622429D01*
X185232674Y-187594891D01*
X185220609Y-187566030D01*
X185211431Y-187536127D01*
X185205228Y-187505467D01*
X185202060Y-187474347D01*
X185168696Y-186837721D01*
X185168593Y-186806441D01*
X185171558Y-186775301D01*
X185177560Y-186744601D01*
X185186542Y-186714638D01*
X185198418Y-186685699D01*
X185213073Y-186658064D01*
X185230367Y-186631999D01*
X185250132Y-186607754D01*
X185272178Y-186585563D01*
X185296293Y-186565639D01*
X185322245Y-186548176D01*
X185349784Y-186533340D01*
X185378644Y-186521275D01*
X185408548Y-186512097D01*
X185439207Y-186505894D01*
X185470327Y-186502726D01*
X186181851Y-186465436D01*
X186213131Y-186465333D01*
X186244271Y-186468298D01*
X186244271Y-186468298D01*
G37*
D15*
X185859453Y-187120707D03*
G04 #@! TD*
D12*
G04 #@! TO.C,C4*
G36*
X190933966Y-177297022D02*
X190964765Y-177302488D01*
X190994881Y-177310946D01*
X191024022Y-177322315D01*
X191051909Y-177336486D01*
X191078272Y-177353321D01*
X191102859Y-177372660D01*
X191125431Y-177394316D01*
X191145772Y-177418080D01*
X191163686Y-177443723D01*
X191179000Y-177470998D01*
X191191567Y-177499644D01*
X191201266Y-177529383D01*
X191208003Y-177559929D01*
X191211714Y-177590989D01*
X191261415Y-178301753D01*
X191262063Y-178333027D01*
X191259643Y-178364214D01*
X191254177Y-178395014D01*
X191245719Y-178425129D01*
X191234350Y-178454270D01*
X191220179Y-178482157D01*
X191203343Y-178508521D01*
X191184005Y-178533107D01*
X191162349Y-178555679D01*
X191138585Y-178576020D01*
X191112942Y-178593934D01*
X191085666Y-178609248D01*
X191057021Y-178621815D01*
X191027282Y-178631514D01*
X190996735Y-178638251D01*
X190965676Y-178641962D01*
X190329729Y-178686432D01*
X190298455Y-178687080D01*
X190267268Y-178684660D01*
X190236469Y-178679194D01*
X190206353Y-178670736D01*
X190177212Y-178659367D01*
X190149325Y-178645196D01*
X190122962Y-178628361D01*
X190098375Y-178609022D01*
X190075803Y-178587366D01*
X190055462Y-178563602D01*
X190037548Y-178537959D01*
X190022234Y-178510684D01*
X190009667Y-178482038D01*
X189999968Y-178452299D01*
X189993231Y-178421753D01*
X189989520Y-178390693D01*
X189939819Y-177679929D01*
X189939171Y-177648655D01*
X189941591Y-177617468D01*
X189947057Y-177586668D01*
X189955515Y-177556553D01*
X189966884Y-177527412D01*
X189981055Y-177499525D01*
X189997891Y-177473161D01*
X190017229Y-177448575D01*
X190038885Y-177426003D01*
X190062649Y-177405662D01*
X190088292Y-177387748D01*
X190115568Y-177372434D01*
X190144213Y-177359867D01*
X190173952Y-177350168D01*
X190204499Y-177343431D01*
X190235558Y-177339720D01*
X190871505Y-177295250D01*
X190902779Y-177294602D01*
X190933966Y-177297022D01*
X190933966Y-177297022D01*
G37*
D15*
X190600617Y-177990841D03*
D12*
G36*
X189362802Y-177406888D02*
X189393601Y-177412354D01*
X189423717Y-177420812D01*
X189452858Y-177432181D01*
X189480745Y-177446352D01*
X189507108Y-177463187D01*
X189531695Y-177482526D01*
X189554267Y-177504182D01*
X189574608Y-177527946D01*
X189592522Y-177553589D01*
X189607836Y-177580864D01*
X189620403Y-177609510D01*
X189630102Y-177639249D01*
X189636839Y-177669795D01*
X189640550Y-177700855D01*
X189690251Y-178411619D01*
X189690899Y-178442893D01*
X189688479Y-178474080D01*
X189683013Y-178504880D01*
X189674555Y-178534995D01*
X189663186Y-178564136D01*
X189649015Y-178592023D01*
X189632179Y-178618387D01*
X189612841Y-178642973D01*
X189591185Y-178665545D01*
X189567421Y-178685886D01*
X189541778Y-178703800D01*
X189514502Y-178719114D01*
X189485857Y-178731681D01*
X189456118Y-178741380D01*
X189425571Y-178748117D01*
X189394512Y-178751828D01*
X188758565Y-178796298D01*
X188727291Y-178796946D01*
X188696104Y-178794526D01*
X188665305Y-178789060D01*
X188635189Y-178780602D01*
X188606048Y-178769233D01*
X188578161Y-178755062D01*
X188551798Y-178738227D01*
X188527211Y-178718888D01*
X188504639Y-178697232D01*
X188484298Y-178673468D01*
X188466384Y-178647825D01*
X188451070Y-178620550D01*
X188438503Y-178591904D01*
X188428804Y-178562165D01*
X188422067Y-178531619D01*
X188418356Y-178500559D01*
X188368655Y-177789795D01*
X188368007Y-177758521D01*
X188370427Y-177727334D01*
X188375893Y-177696534D01*
X188384351Y-177666419D01*
X188395720Y-177637278D01*
X188409891Y-177609391D01*
X188426727Y-177583027D01*
X188446065Y-177558441D01*
X188467721Y-177535869D01*
X188491485Y-177515528D01*
X188517128Y-177497614D01*
X188544404Y-177482300D01*
X188573049Y-177469733D01*
X188602788Y-177460034D01*
X188633335Y-177453297D01*
X188664394Y-177449586D01*
X189300341Y-177405116D01*
X189331615Y-177404468D01*
X189362802Y-177406888D01*
X189362802Y-177406888D01*
G37*
D15*
X189029453Y-178100707D03*
G04 #@! TD*
D12*
G04 #@! TO.C,C5*
G36*
X172369591Y-185853793D02*
X172400303Y-185859728D01*
X172430286Y-185868645D01*
X172459250Y-185880457D01*
X172486917Y-185895052D01*
X172513021Y-185912289D01*
X172537309Y-185932001D01*
X172559548Y-185953998D01*
X172579524Y-185978070D01*
X172597044Y-186003984D01*
X172611940Y-186031490D01*
X172624068Y-186060324D01*
X172842105Y-186659378D01*
X172851349Y-186689262D01*
X172857618Y-186719908D01*
X172860854Y-186751021D01*
X172861025Y-186782301D01*
X172858128Y-186813447D01*
X172852193Y-186844160D01*
X172843276Y-186874143D01*
X172831463Y-186903107D01*
X172816868Y-186930774D01*
X172799632Y-186956877D01*
X172779920Y-186981165D01*
X172757922Y-187003404D01*
X172733850Y-187023380D01*
X172707937Y-187040900D01*
X172680430Y-187055796D01*
X172651597Y-187067924D01*
X171982066Y-187311614D01*
X171952182Y-187320857D01*
X171921537Y-187327127D01*
X171890424Y-187330363D01*
X171859144Y-187330534D01*
X171827997Y-187327637D01*
X171797285Y-187321702D01*
X171767302Y-187312785D01*
X171738338Y-187300973D01*
X171710671Y-187286378D01*
X171684567Y-187269141D01*
X171660279Y-187249429D01*
X171638040Y-187227432D01*
X171618064Y-187203360D01*
X171600544Y-187177446D01*
X171585648Y-187149940D01*
X171573520Y-187121106D01*
X171355483Y-186522052D01*
X171346239Y-186492168D01*
X171339970Y-186461522D01*
X171336734Y-186430409D01*
X171336563Y-186399129D01*
X171339460Y-186367983D01*
X171345395Y-186337270D01*
X171354312Y-186307287D01*
X171366125Y-186278323D01*
X171380720Y-186250656D01*
X171397956Y-186224553D01*
X171417668Y-186200265D01*
X171439666Y-186178026D01*
X171463738Y-186158050D01*
X171489651Y-186140530D01*
X171517158Y-186125634D01*
X171545991Y-186113506D01*
X172215522Y-185869816D01*
X172245406Y-185860573D01*
X172276051Y-185854303D01*
X172307164Y-185851067D01*
X172338444Y-185850896D01*
X172369591Y-185853793D01*
X172369591Y-185853793D01*
G37*
D15*
X172098794Y-186590715D03*
D12*
G36*
X171830909Y-184373777D02*
X171861621Y-184379712D01*
X171891604Y-184388629D01*
X171920568Y-184400441D01*
X171948235Y-184415036D01*
X171974339Y-184432273D01*
X171998627Y-184451985D01*
X172020866Y-184473982D01*
X172040842Y-184498054D01*
X172058362Y-184523968D01*
X172073258Y-184551474D01*
X172085386Y-184580308D01*
X172303423Y-185179362D01*
X172312667Y-185209246D01*
X172318936Y-185239892D01*
X172322172Y-185271005D01*
X172322343Y-185302285D01*
X172319446Y-185333431D01*
X172313511Y-185364144D01*
X172304594Y-185394127D01*
X172292781Y-185423091D01*
X172278186Y-185450758D01*
X172260950Y-185476861D01*
X172241238Y-185501149D01*
X172219240Y-185523388D01*
X172195168Y-185543364D01*
X172169255Y-185560884D01*
X172141748Y-185575780D01*
X172112915Y-185587908D01*
X171443384Y-185831598D01*
X171413500Y-185840841D01*
X171382855Y-185847111D01*
X171351742Y-185850347D01*
X171320462Y-185850518D01*
X171289315Y-185847621D01*
X171258603Y-185841686D01*
X171228620Y-185832769D01*
X171199656Y-185820957D01*
X171171989Y-185806362D01*
X171145885Y-185789125D01*
X171121597Y-185769413D01*
X171099358Y-185747416D01*
X171079382Y-185723344D01*
X171061862Y-185697430D01*
X171046966Y-185669924D01*
X171034838Y-185641090D01*
X170816801Y-185042036D01*
X170807557Y-185012152D01*
X170801288Y-184981506D01*
X170798052Y-184950393D01*
X170797881Y-184919113D01*
X170800778Y-184887967D01*
X170806713Y-184857254D01*
X170815630Y-184827271D01*
X170827443Y-184798307D01*
X170842038Y-184770640D01*
X170859274Y-184744537D01*
X170878986Y-184720249D01*
X170900984Y-184698010D01*
X170925056Y-184678034D01*
X170950969Y-184660514D01*
X170978476Y-184645618D01*
X171007309Y-184633490D01*
X171676840Y-184389800D01*
X171706724Y-184380557D01*
X171737369Y-184374287D01*
X171768482Y-184371051D01*
X171799762Y-184370880D01*
X171830909Y-184373777D01*
X171830909Y-184373777D01*
G37*
D15*
X171560112Y-185110699D03*
G04 #@! TD*
D12*
G04 #@! TO.C,C6*
G36*
X178816946Y-175214742D02*
X178847888Y-175219332D01*
X178878231Y-175226932D01*
X178907683Y-175237470D01*
X178935961Y-175250845D01*
X178962791Y-175266926D01*
X178987916Y-175285560D01*
X179011093Y-175306567D01*
X179032100Y-175329744D01*
X179050734Y-175354869D01*
X179066815Y-175381699D01*
X179080190Y-175409977D01*
X179090728Y-175439429D01*
X179098328Y-175469772D01*
X179102918Y-175500714D01*
X179104453Y-175531957D01*
X179104453Y-176169457D01*
X179102918Y-176200700D01*
X179098328Y-176231642D01*
X179090728Y-176261985D01*
X179080190Y-176291437D01*
X179066815Y-176319715D01*
X179050734Y-176346545D01*
X179032100Y-176371670D01*
X179011093Y-176394847D01*
X178987916Y-176415854D01*
X178962791Y-176434488D01*
X178935961Y-176450569D01*
X178907683Y-176463944D01*
X178878231Y-176474482D01*
X178847888Y-176482082D01*
X178816946Y-176486672D01*
X178785703Y-176488207D01*
X178073203Y-176488207D01*
X178041960Y-176486672D01*
X178011018Y-176482082D01*
X177980675Y-176474482D01*
X177951223Y-176463944D01*
X177922945Y-176450569D01*
X177896115Y-176434488D01*
X177870990Y-176415854D01*
X177847813Y-176394847D01*
X177826806Y-176371670D01*
X177808172Y-176346545D01*
X177792091Y-176319715D01*
X177778716Y-176291437D01*
X177768178Y-176261985D01*
X177760578Y-176231642D01*
X177755988Y-176200700D01*
X177754453Y-176169457D01*
X177754453Y-175531957D01*
X177755988Y-175500714D01*
X177760578Y-175469772D01*
X177768178Y-175439429D01*
X177778716Y-175409977D01*
X177792091Y-175381699D01*
X177808172Y-175354869D01*
X177826806Y-175329744D01*
X177847813Y-175306567D01*
X177870990Y-175285560D01*
X177896115Y-175266926D01*
X177922945Y-175250845D01*
X177951223Y-175237470D01*
X177980675Y-175226932D01*
X178011018Y-175219332D01*
X178041960Y-175214742D01*
X178073203Y-175213207D01*
X178785703Y-175213207D01*
X178816946Y-175214742D01*
X178816946Y-175214742D01*
G37*
D15*
X178429453Y-175850707D03*
D12*
G36*
X178816946Y-176789742D02*
X178847888Y-176794332D01*
X178878231Y-176801932D01*
X178907683Y-176812470D01*
X178935961Y-176825845D01*
X178962791Y-176841926D01*
X178987916Y-176860560D01*
X179011093Y-176881567D01*
X179032100Y-176904744D01*
X179050734Y-176929869D01*
X179066815Y-176956699D01*
X179080190Y-176984977D01*
X179090728Y-177014429D01*
X179098328Y-177044772D01*
X179102918Y-177075714D01*
X179104453Y-177106957D01*
X179104453Y-177744457D01*
X179102918Y-177775700D01*
X179098328Y-177806642D01*
X179090728Y-177836985D01*
X179080190Y-177866437D01*
X179066815Y-177894715D01*
X179050734Y-177921545D01*
X179032100Y-177946670D01*
X179011093Y-177969847D01*
X178987916Y-177990854D01*
X178962791Y-178009488D01*
X178935961Y-178025569D01*
X178907683Y-178038944D01*
X178878231Y-178049482D01*
X178847888Y-178057082D01*
X178816946Y-178061672D01*
X178785703Y-178063207D01*
X178073203Y-178063207D01*
X178041960Y-178061672D01*
X178011018Y-178057082D01*
X177980675Y-178049482D01*
X177951223Y-178038944D01*
X177922945Y-178025569D01*
X177896115Y-178009488D01*
X177870990Y-177990854D01*
X177847813Y-177969847D01*
X177826806Y-177946670D01*
X177808172Y-177921545D01*
X177792091Y-177894715D01*
X177778716Y-177866437D01*
X177768178Y-177836985D01*
X177760578Y-177806642D01*
X177755988Y-177775700D01*
X177754453Y-177744457D01*
X177754453Y-177106957D01*
X177755988Y-177075714D01*
X177760578Y-177044772D01*
X177768178Y-177014429D01*
X177778716Y-176984977D01*
X177792091Y-176956699D01*
X177808172Y-176929869D01*
X177826806Y-176904744D01*
X177847813Y-176881567D01*
X177870990Y-176860560D01*
X177896115Y-176841926D01*
X177922945Y-176825845D01*
X177951223Y-176812470D01*
X177980675Y-176801932D01*
X178011018Y-176794332D01*
X178041960Y-176789742D01*
X178073203Y-176788207D01*
X178785703Y-176788207D01*
X178816946Y-176789742D01*
X178816946Y-176789742D01*
G37*
D15*
X178429453Y-177425707D03*
G04 #@! TD*
D12*
G04 #@! TO.C,C7*
G36*
X177216946Y-175227242D02*
X177247888Y-175231832D01*
X177278231Y-175239432D01*
X177307683Y-175249970D01*
X177335961Y-175263345D01*
X177362791Y-175279426D01*
X177387916Y-175298060D01*
X177411093Y-175319067D01*
X177432100Y-175342244D01*
X177450734Y-175367369D01*
X177466815Y-175394199D01*
X177480190Y-175422477D01*
X177490728Y-175451929D01*
X177498328Y-175482272D01*
X177502918Y-175513214D01*
X177504453Y-175544457D01*
X177504453Y-176181957D01*
X177502918Y-176213200D01*
X177498328Y-176244142D01*
X177490728Y-176274485D01*
X177480190Y-176303937D01*
X177466815Y-176332215D01*
X177450734Y-176359045D01*
X177432100Y-176384170D01*
X177411093Y-176407347D01*
X177387916Y-176428354D01*
X177362791Y-176446988D01*
X177335961Y-176463069D01*
X177307683Y-176476444D01*
X177278231Y-176486982D01*
X177247888Y-176494582D01*
X177216946Y-176499172D01*
X177185703Y-176500707D01*
X176473203Y-176500707D01*
X176441960Y-176499172D01*
X176411018Y-176494582D01*
X176380675Y-176486982D01*
X176351223Y-176476444D01*
X176322945Y-176463069D01*
X176296115Y-176446988D01*
X176270990Y-176428354D01*
X176247813Y-176407347D01*
X176226806Y-176384170D01*
X176208172Y-176359045D01*
X176192091Y-176332215D01*
X176178716Y-176303937D01*
X176168178Y-176274485D01*
X176160578Y-176244142D01*
X176155988Y-176213200D01*
X176154453Y-176181957D01*
X176154453Y-175544457D01*
X176155988Y-175513214D01*
X176160578Y-175482272D01*
X176168178Y-175451929D01*
X176178716Y-175422477D01*
X176192091Y-175394199D01*
X176208172Y-175367369D01*
X176226806Y-175342244D01*
X176247813Y-175319067D01*
X176270990Y-175298060D01*
X176296115Y-175279426D01*
X176322945Y-175263345D01*
X176351223Y-175249970D01*
X176380675Y-175239432D01*
X176411018Y-175231832D01*
X176441960Y-175227242D01*
X176473203Y-175225707D01*
X177185703Y-175225707D01*
X177216946Y-175227242D01*
X177216946Y-175227242D01*
G37*
D15*
X176829453Y-175863207D03*
D12*
G36*
X177216946Y-176802242D02*
X177247888Y-176806832D01*
X177278231Y-176814432D01*
X177307683Y-176824970D01*
X177335961Y-176838345D01*
X177362791Y-176854426D01*
X177387916Y-176873060D01*
X177411093Y-176894067D01*
X177432100Y-176917244D01*
X177450734Y-176942369D01*
X177466815Y-176969199D01*
X177480190Y-176997477D01*
X177490728Y-177026929D01*
X177498328Y-177057272D01*
X177502918Y-177088214D01*
X177504453Y-177119457D01*
X177504453Y-177756957D01*
X177502918Y-177788200D01*
X177498328Y-177819142D01*
X177490728Y-177849485D01*
X177480190Y-177878937D01*
X177466815Y-177907215D01*
X177450734Y-177934045D01*
X177432100Y-177959170D01*
X177411093Y-177982347D01*
X177387916Y-178003354D01*
X177362791Y-178021988D01*
X177335961Y-178038069D01*
X177307683Y-178051444D01*
X177278231Y-178061982D01*
X177247888Y-178069582D01*
X177216946Y-178074172D01*
X177185703Y-178075707D01*
X176473203Y-178075707D01*
X176441960Y-178074172D01*
X176411018Y-178069582D01*
X176380675Y-178061982D01*
X176351223Y-178051444D01*
X176322945Y-178038069D01*
X176296115Y-178021988D01*
X176270990Y-178003354D01*
X176247813Y-177982347D01*
X176226806Y-177959170D01*
X176208172Y-177934045D01*
X176192091Y-177907215D01*
X176178716Y-177878937D01*
X176168178Y-177849485D01*
X176160578Y-177819142D01*
X176155988Y-177788200D01*
X176154453Y-177756957D01*
X176154453Y-177119457D01*
X176155988Y-177088214D01*
X176160578Y-177057272D01*
X176168178Y-177026929D01*
X176178716Y-176997477D01*
X176192091Y-176969199D01*
X176208172Y-176942369D01*
X176226806Y-176917244D01*
X176247813Y-176894067D01*
X176270990Y-176873060D01*
X176296115Y-176854426D01*
X176322945Y-176838345D01*
X176351223Y-176824970D01*
X176380675Y-176814432D01*
X176411018Y-176806832D01*
X176441960Y-176802242D01*
X176473203Y-176800707D01*
X177185703Y-176800707D01*
X177216946Y-176802242D01*
X177216946Y-176802242D01*
G37*
D15*
X176829453Y-177438207D03*
G04 #@! TD*
D12*
G04 #@! TO.C,C8*
G36*
X177779446Y-168877242D02*
X177810388Y-168881832D01*
X177840731Y-168889432D01*
X177870183Y-168899970D01*
X177898461Y-168913345D01*
X177925291Y-168929426D01*
X177950416Y-168948060D01*
X177973593Y-168969067D01*
X177994600Y-168992244D01*
X178013234Y-169017369D01*
X178029315Y-169044199D01*
X178042690Y-169072477D01*
X178053228Y-169101929D01*
X178060828Y-169132272D01*
X178065418Y-169163214D01*
X178066953Y-169194457D01*
X178066953Y-169906957D01*
X178065418Y-169938200D01*
X178060828Y-169969142D01*
X178053228Y-169999485D01*
X178042690Y-170028937D01*
X178029315Y-170057215D01*
X178013234Y-170084045D01*
X177994600Y-170109170D01*
X177973593Y-170132347D01*
X177950416Y-170153354D01*
X177925291Y-170171988D01*
X177898461Y-170188069D01*
X177870183Y-170201444D01*
X177840731Y-170211982D01*
X177810388Y-170219582D01*
X177779446Y-170224172D01*
X177748203Y-170225707D01*
X177110703Y-170225707D01*
X177079460Y-170224172D01*
X177048518Y-170219582D01*
X177018175Y-170211982D01*
X176988723Y-170201444D01*
X176960445Y-170188069D01*
X176933615Y-170171988D01*
X176908490Y-170153354D01*
X176885313Y-170132347D01*
X176864306Y-170109170D01*
X176845672Y-170084045D01*
X176829591Y-170057215D01*
X176816216Y-170028937D01*
X176805678Y-169999485D01*
X176798078Y-169969142D01*
X176793488Y-169938200D01*
X176791953Y-169906957D01*
X176791953Y-169194457D01*
X176793488Y-169163214D01*
X176798078Y-169132272D01*
X176805678Y-169101929D01*
X176816216Y-169072477D01*
X176829591Y-169044199D01*
X176845672Y-169017369D01*
X176864306Y-168992244D01*
X176885313Y-168969067D01*
X176908490Y-168948060D01*
X176933615Y-168929426D01*
X176960445Y-168913345D01*
X176988723Y-168899970D01*
X177018175Y-168889432D01*
X177048518Y-168881832D01*
X177079460Y-168877242D01*
X177110703Y-168875707D01*
X177748203Y-168875707D01*
X177779446Y-168877242D01*
X177779446Y-168877242D01*
G37*
D15*
X177429453Y-169550707D03*
D12*
G36*
X179354446Y-168877242D02*
X179385388Y-168881832D01*
X179415731Y-168889432D01*
X179445183Y-168899970D01*
X179473461Y-168913345D01*
X179500291Y-168929426D01*
X179525416Y-168948060D01*
X179548593Y-168969067D01*
X179569600Y-168992244D01*
X179588234Y-169017369D01*
X179604315Y-169044199D01*
X179617690Y-169072477D01*
X179628228Y-169101929D01*
X179635828Y-169132272D01*
X179640418Y-169163214D01*
X179641953Y-169194457D01*
X179641953Y-169906957D01*
X179640418Y-169938200D01*
X179635828Y-169969142D01*
X179628228Y-169999485D01*
X179617690Y-170028937D01*
X179604315Y-170057215D01*
X179588234Y-170084045D01*
X179569600Y-170109170D01*
X179548593Y-170132347D01*
X179525416Y-170153354D01*
X179500291Y-170171988D01*
X179473461Y-170188069D01*
X179445183Y-170201444D01*
X179415731Y-170211982D01*
X179385388Y-170219582D01*
X179354446Y-170224172D01*
X179323203Y-170225707D01*
X178685703Y-170225707D01*
X178654460Y-170224172D01*
X178623518Y-170219582D01*
X178593175Y-170211982D01*
X178563723Y-170201444D01*
X178535445Y-170188069D01*
X178508615Y-170171988D01*
X178483490Y-170153354D01*
X178460313Y-170132347D01*
X178439306Y-170109170D01*
X178420672Y-170084045D01*
X178404591Y-170057215D01*
X178391216Y-170028937D01*
X178380678Y-169999485D01*
X178373078Y-169969142D01*
X178368488Y-169938200D01*
X178366953Y-169906957D01*
X178366953Y-169194457D01*
X178368488Y-169163214D01*
X178373078Y-169132272D01*
X178380678Y-169101929D01*
X178391216Y-169072477D01*
X178404591Y-169044199D01*
X178420672Y-169017369D01*
X178439306Y-168992244D01*
X178460313Y-168969067D01*
X178483490Y-168948060D01*
X178508615Y-168929426D01*
X178535445Y-168913345D01*
X178563723Y-168899970D01*
X178593175Y-168889432D01*
X178623518Y-168881832D01*
X178654460Y-168877242D01*
X178685703Y-168875707D01*
X179323203Y-168875707D01*
X179354446Y-168877242D01*
X179354446Y-168877242D01*
G37*
D15*
X179004453Y-169550707D03*
G04 #@! TD*
D12*
G04 #@! TO.C,C9*
G36*
X177779446Y-167277242D02*
X177810388Y-167281832D01*
X177840731Y-167289432D01*
X177870183Y-167299970D01*
X177898461Y-167313345D01*
X177925291Y-167329426D01*
X177950416Y-167348060D01*
X177973593Y-167369067D01*
X177994600Y-167392244D01*
X178013234Y-167417369D01*
X178029315Y-167444199D01*
X178042690Y-167472477D01*
X178053228Y-167501929D01*
X178060828Y-167532272D01*
X178065418Y-167563214D01*
X178066953Y-167594457D01*
X178066953Y-168306957D01*
X178065418Y-168338200D01*
X178060828Y-168369142D01*
X178053228Y-168399485D01*
X178042690Y-168428937D01*
X178029315Y-168457215D01*
X178013234Y-168484045D01*
X177994600Y-168509170D01*
X177973593Y-168532347D01*
X177950416Y-168553354D01*
X177925291Y-168571988D01*
X177898461Y-168588069D01*
X177870183Y-168601444D01*
X177840731Y-168611982D01*
X177810388Y-168619582D01*
X177779446Y-168624172D01*
X177748203Y-168625707D01*
X177110703Y-168625707D01*
X177079460Y-168624172D01*
X177048518Y-168619582D01*
X177018175Y-168611982D01*
X176988723Y-168601444D01*
X176960445Y-168588069D01*
X176933615Y-168571988D01*
X176908490Y-168553354D01*
X176885313Y-168532347D01*
X176864306Y-168509170D01*
X176845672Y-168484045D01*
X176829591Y-168457215D01*
X176816216Y-168428937D01*
X176805678Y-168399485D01*
X176798078Y-168369142D01*
X176793488Y-168338200D01*
X176791953Y-168306957D01*
X176791953Y-167594457D01*
X176793488Y-167563214D01*
X176798078Y-167532272D01*
X176805678Y-167501929D01*
X176816216Y-167472477D01*
X176829591Y-167444199D01*
X176845672Y-167417369D01*
X176864306Y-167392244D01*
X176885313Y-167369067D01*
X176908490Y-167348060D01*
X176933615Y-167329426D01*
X176960445Y-167313345D01*
X176988723Y-167299970D01*
X177018175Y-167289432D01*
X177048518Y-167281832D01*
X177079460Y-167277242D01*
X177110703Y-167275707D01*
X177748203Y-167275707D01*
X177779446Y-167277242D01*
X177779446Y-167277242D01*
G37*
D15*
X177429453Y-167950707D03*
D12*
G36*
X179354446Y-167277242D02*
X179385388Y-167281832D01*
X179415731Y-167289432D01*
X179445183Y-167299970D01*
X179473461Y-167313345D01*
X179500291Y-167329426D01*
X179525416Y-167348060D01*
X179548593Y-167369067D01*
X179569600Y-167392244D01*
X179588234Y-167417369D01*
X179604315Y-167444199D01*
X179617690Y-167472477D01*
X179628228Y-167501929D01*
X179635828Y-167532272D01*
X179640418Y-167563214D01*
X179641953Y-167594457D01*
X179641953Y-168306957D01*
X179640418Y-168338200D01*
X179635828Y-168369142D01*
X179628228Y-168399485D01*
X179617690Y-168428937D01*
X179604315Y-168457215D01*
X179588234Y-168484045D01*
X179569600Y-168509170D01*
X179548593Y-168532347D01*
X179525416Y-168553354D01*
X179500291Y-168571988D01*
X179473461Y-168588069D01*
X179445183Y-168601444D01*
X179415731Y-168611982D01*
X179385388Y-168619582D01*
X179354446Y-168624172D01*
X179323203Y-168625707D01*
X178685703Y-168625707D01*
X178654460Y-168624172D01*
X178623518Y-168619582D01*
X178593175Y-168611982D01*
X178563723Y-168601444D01*
X178535445Y-168588069D01*
X178508615Y-168571988D01*
X178483490Y-168553354D01*
X178460313Y-168532347D01*
X178439306Y-168509170D01*
X178420672Y-168484045D01*
X178404591Y-168457215D01*
X178391216Y-168428937D01*
X178380678Y-168399485D01*
X178373078Y-168369142D01*
X178368488Y-168338200D01*
X178366953Y-168306957D01*
X178366953Y-167594457D01*
X178368488Y-167563214D01*
X178373078Y-167532272D01*
X178380678Y-167501929D01*
X178391216Y-167472477D01*
X178404591Y-167444199D01*
X178420672Y-167417369D01*
X178439306Y-167392244D01*
X178460313Y-167369067D01*
X178483490Y-167348060D01*
X178508615Y-167329426D01*
X178535445Y-167313345D01*
X178563723Y-167299970D01*
X178593175Y-167289432D01*
X178623518Y-167281832D01*
X178654460Y-167277242D01*
X178685703Y-167275707D01*
X179323203Y-167275707D01*
X179354446Y-167277242D01*
X179354446Y-167277242D01*
G37*
D15*
X179004453Y-167950707D03*
G04 #@! TD*
D12*
G04 #@! TO.C,C10*
G36*
X184191946Y-152089742D02*
X184222888Y-152094332D01*
X184253231Y-152101932D01*
X184282683Y-152112470D01*
X184310961Y-152125845D01*
X184337791Y-152141926D01*
X184362916Y-152160560D01*
X184386093Y-152181567D01*
X184407100Y-152204744D01*
X184425734Y-152229869D01*
X184441815Y-152256699D01*
X184455190Y-152284977D01*
X184465728Y-152314429D01*
X184473328Y-152344772D01*
X184477918Y-152375714D01*
X184479453Y-152406957D01*
X184479453Y-153044457D01*
X184477918Y-153075700D01*
X184473328Y-153106642D01*
X184465728Y-153136985D01*
X184455190Y-153166437D01*
X184441815Y-153194715D01*
X184425734Y-153221545D01*
X184407100Y-153246670D01*
X184386093Y-153269847D01*
X184362916Y-153290854D01*
X184337791Y-153309488D01*
X184310961Y-153325569D01*
X184282683Y-153338944D01*
X184253231Y-153349482D01*
X184222888Y-153357082D01*
X184191946Y-153361672D01*
X184160703Y-153363207D01*
X183448203Y-153363207D01*
X183416960Y-153361672D01*
X183386018Y-153357082D01*
X183355675Y-153349482D01*
X183326223Y-153338944D01*
X183297945Y-153325569D01*
X183271115Y-153309488D01*
X183245990Y-153290854D01*
X183222813Y-153269847D01*
X183201806Y-153246670D01*
X183183172Y-153221545D01*
X183167091Y-153194715D01*
X183153716Y-153166437D01*
X183143178Y-153136985D01*
X183135578Y-153106642D01*
X183130988Y-153075700D01*
X183129453Y-153044457D01*
X183129453Y-152406957D01*
X183130988Y-152375714D01*
X183135578Y-152344772D01*
X183143178Y-152314429D01*
X183153716Y-152284977D01*
X183167091Y-152256699D01*
X183183172Y-152229869D01*
X183201806Y-152204744D01*
X183222813Y-152181567D01*
X183245990Y-152160560D01*
X183271115Y-152141926D01*
X183297945Y-152125845D01*
X183326223Y-152112470D01*
X183355675Y-152101932D01*
X183386018Y-152094332D01*
X183416960Y-152089742D01*
X183448203Y-152088207D01*
X184160703Y-152088207D01*
X184191946Y-152089742D01*
X184191946Y-152089742D01*
G37*
D15*
X183804453Y-152725707D03*
D12*
G36*
X184191946Y-153664742D02*
X184222888Y-153669332D01*
X184253231Y-153676932D01*
X184282683Y-153687470D01*
X184310961Y-153700845D01*
X184337791Y-153716926D01*
X184362916Y-153735560D01*
X184386093Y-153756567D01*
X184407100Y-153779744D01*
X184425734Y-153804869D01*
X184441815Y-153831699D01*
X184455190Y-153859977D01*
X184465728Y-153889429D01*
X184473328Y-153919772D01*
X184477918Y-153950714D01*
X184479453Y-153981957D01*
X184479453Y-154619457D01*
X184477918Y-154650700D01*
X184473328Y-154681642D01*
X184465728Y-154711985D01*
X184455190Y-154741437D01*
X184441815Y-154769715D01*
X184425734Y-154796545D01*
X184407100Y-154821670D01*
X184386093Y-154844847D01*
X184362916Y-154865854D01*
X184337791Y-154884488D01*
X184310961Y-154900569D01*
X184282683Y-154913944D01*
X184253231Y-154924482D01*
X184222888Y-154932082D01*
X184191946Y-154936672D01*
X184160703Y-154938207D01*
X183448203Y-154938207D01*
X183416960Y-154936672D01*
X183386018Y-154932082D01*
X183355675Y-154924482D01*
X183326223Y-154913944D01*
X183297945Y-154900569D01*
X183271115Y-154884488D01*
X183245990Y-154865854D01*
X183222813Y-154844847D01*
X183201806Y-154821670D01*
X183183172Y-154796545D01*
X183167091Y-154769715D01*
X183153716Y-154741437D01*
X183143178Y-154711985D01*
X183135578Y-154681642D01*
X183130988Y-154650700D01*
X183129453Y-154619457D01*
X183129453Y-153981957D01*
X183130988Y-153950714D01*
X183135578Y-153919772D01*
X183143178Y-153889429D01*
X183153716Y-153859977D01*
X183167091Y-153831699D01*
X183183172Y-153804869D01*
X183201806Y-153779744D01*
X183222813Y-153756567D01*
X183245990Y-153735560D01*
X183271115Y-153716926D01*
X183297945Y-153700845D01*
X183326223Y-153687470D01*
X183355675Y-153676932D01*
X183386018Y-153669332D01*
X183416960Y-153664742D01*
X183448203Y-153663207D01*
X184160703Y-153663207D01*
X184191946Y-153664742D01*
X184191946Y-153664742D01*
G37*
D15*
X183804453Y-154300707D03*
G04 #@! TD*
D12*
G04 #@! TO.C,C11*
G36*
X185816946Y-152102242D02*
X185847888Y-152106832D01*
X185878231Y-152114432D01*
X185907683Y-152124970D01*
X185935961Y-152138345D01*
X185962791Y-152154426D01*
X185987916Y-152173060D01*
X186011093Y-152194067D01*
X186032100Y-152217244D01*
X186050734Y-152242369D01*
X186066815Y-152269199D01*
X186080190Y-152297477D01*
X186090728Y-152326929D01*
X186098328Y-152357272D01*
X186102918Y-152388214D01*
X186104453Y-152419457D01*
X186104453Y-153056957D01*
X186102918Y-153088200D01*
X186098328Y-153119142D01*
X186090728Y-153149485D01*
X186080190Y-153178937D01*
X186066815Y-153207215D01*
X186050734Y-153234045D01*
X186032100Y-153259170D01*
X186011093Y-153282347D01*
X185987916Y-153303354D01*
X185962791Y-153321988D01*
X185935961Y-153338069D01*
X185907683Y-153351444D01*
X185878231Y-153361982D01*
X185847888Y-153369582D01*
X185816946Y-153374172D01*
X185785703Y-153375707D01*
X185073203Y-153375707D01*
X185041960Y-153374172D01*
X185011018Y-153369582D01*
X184980675Y-153361982D01*
X184951223Y-153351444D01*
X184922945Y-153338069D01*
X184896115Y-153321988D01*
X184870990Y-153303354D01*
X184847813Y-153282347D01*
X184826806Y-153259170D01*
X184808172Y-153234045D01*
X184792091Y-153207215D01*
X184778716Y-153178937D01*
X184768178Y-153149485D01*
X184760578Y-153119142D01*
X184755988Y-153088200D01*
X184754453Y-153056957D01*
X184754453Y-152419457D01*
X184755988Y-152388214D01*
X184760578Y-152357272D01*
X184768178Y-152326929D01*
X184778716Y-152297477D01*
X184792091Y-152269199D01*
X184808172Y-152242369D01*
X184826806Y-152217244D01*
X184847813Y-152194067D01*
X184870990Y-152173060D01*
X184896115Y-152154426D01*
X184922945Y-152138345D01*
X184951223Y-152124970D01*
X184980675Y-152114432D01*
X185011018Y-152106832D01*
X185041960Y-152102242D01*
X185073203Y-152100707D01*
X185785703Y-152100707D01*
X185816946Y-152102242D01*
X185816946Y-152102242D01*
G37*
D15*
X185429453Y-152738207D03*
D12*
G36*
X185816946Y-153677242D02*
X185847888Y-153681832D01*
X185878231Y-153689432D01*
X185907683Y-153699970D01*
X185935961Y-153713345D01*
X185962791Y-153729426D01*
X185987916Y-153748060D01*
X186011093Y-153769067D01*
X186032100Y-153792244D01*
X186050734Y-153817369D01*
X186066815Y-153844199D01*
X186080190Y-153872477D01*
X186090728Y-153901929D01*
X186098328Y-153932272D01*
X186102918Y-153963214D01*
X186104453Y-153994457D01*
X186104453Y-154631957D01*
X186102918Y-154663200D01*
X186098328Y-154694142D01*
X186090728Y-154724485D01*
X186080190Y-154753937D01*
X186066815Y-154782215D01*
X186050734Y-154809045D01*
X186032100Y-154834170D01*
X186011093Y-154857347D01*
X185987916Y-154878354D01*
X185962791Y-154896988D01*
X185935961Y-154913069D01*
X185907683Y-154926444D01*
X185878231Y-154936982D01*
X185847888Y-154944582D01*
X185816946Y-154949172D01*
X185785703Y-154950707D01*
X185073203Y-154950707D01*
X185041960Y-154949172D01*
X185011018Y-154944582D01*
X184980675Y-154936982D01*
X184951223Y-154926444D01*
X184922945Y-154913069D01*
X184896115Y-154896988D01*
X184870990Y-154878354D01*
X184847813Y-154857347D01*
X184826806Y-154834170D01*
X184808172Y-154809045D01*
X184792091Y-154782215D01*
X184778716Y-154753937D01*
X184768178Y-154724485D01*
X184760578Y-154694142D01*
X184755988Y-154663200D01*
X184754453Y-154631957D01*
X184754453Y-153994457D01*
X184755988Y-153963214D01*
X184760578Y-153932272D01*
X184768178Y-153901929D01*
X184778716Y-153872477D01*
X184792091Y-153844199D01*
X184808172Y-153817369D01*
X184826806Y-153792244D01*
X184847813Y-153769067D01*
X184870990Y-153748060D01*
X184896115Y-153729426D01*
X184922945Y-153713345D01*
X184951223Y-153699970D01*
X184980675Y-153689432D01*
X185011018Y-153681832D01*
X185041960Y-153677242D01*
X185073203Y-153675707D01*
X185785703Y-153675707D01*
X185816946Y-153677242D01*
X185816946Y-153677242D01*
G37*
D15*
X185429453Y-154313207D03*
G04 #@! TD*
D12*
G04 #@! TO.C,C12*
G36*
X187479446Y-170377242D02*
X187510388Y-170381832D01*
X187540731Y-170389432D01*
X187570183Y-170399970D01*
X187598461Y-170413345D01*
X187625291Y-170429426D01*
X187650416Y-170448060D01*
X187673593Y-170469067D01*
X187694600Y-170492244D01*
X187713234Y-170517369D01*
X187729315Y-170544199D01*
X187742690Y-170572477D01*
X187753228Y-170601929D01*
X187760828Y-170632272D01*
X187765418Y-170663214D01*
X187766953Y-170694457D01*
X187766953Y-171406957D01*
X187765418Y-171438200D01*
X187760828Y-171469142D01*
X187753228Y-171499485D01*
X187742690Y-171528937D01*
X187729315Y-171557215D01*
X187713234Y-171584045D01*
X187694600Y-171609170D01*
X187673593Y-171632347D01*
X187650416Y-171653354D01*
X187625291Y-171671988D01*
X187598461Y-171688069D01*
X187570183Y-171701444D01*
X187540731Y-171711982D01*
X187510388Y-171719582D01*
X187479446Y-171724172D01*
X187448203Y-171725707D01*
X186810703Y-171725707D01*
X186779460Y-171724172D01*
X186748518Y-171719582D01*
X186718175Y-171711982D01*
X186688723Y-171701444D01*
X186660445Y-171688069D01*
X186633615Y-171671988D01*
X186608490Y-171653354D01*
X186585313Y-171632347D01*
X186564306Y-171609170D01*
X186545672Y-171584045D01*
X186529591Y-171557215D01*
X186516216Y-171528937D01*
X186505678Y-171499485D01*
X186498078Y-171469142D01*
X186493488Y-171438200D01*
X186491953Y-171406957D01*
X186491953Y-170694457D01*
X186493488Y-170663214D01*
X186498078Y-170632272D01*
X186505678Y-170601929D01*
X186516216Y-170572477D01*
X186529591Y-170544199D01*
X186545672Y-170517369D01*
X186564306Y-170492244D01*
X186585313Y-170469067D01*
X186608490Y-170448060D01*
X186633615Y-170429426D01*
X186660445Y-170413345D01*
X186688723Y-170399970D01*
X186718175Y-170389432D01*
X186748518Y-170381832D01*
X186779460Y-170377242D01*
X186810703Y-170375707D01*
X187448203Y-170375707D01*
X187479446Y-170377242D01*
X187479446Y-170377242D01*
G37*
D15*
X187129453Y-171050707D03*
D12*
G36*
X185904446Y-170377242D02*
X185935388Y-170381832D01*
X185965731Y-170389432D01*
X185995183Y-170399970D01*
X186023461Y-170413345D01*
X186050291Y-170429426D01*
X186075416Y-170448060D01*
X186098593Y-170469067D01*
X186119600Y-170492244D01*
X186138234Y-170517369D01*
X186154315Y-170544199D01*
X186167690Y-170572477D01*
X186178228Y-170601929D01*
X186185828Y-170632272D01*
X186190418Y-170663214D01*
X186191953Y-170694457D01*
X186191953Y-171406957D01*
X186190418Y-171438200D01*
X186185828Y-171469142D01*
X186178228Y-171499485D01*
X186167690Y-171528937D01*
X186154315Y-171557215D01*
X186138234Y-171584045D01*
X186119600Y-171609170D01*
X186098593Y-171632347D01*
X186075416Y-171653354D01*
X186050291Y-171671988D01*
X186023461Y-171688069D01*
X185995183Y-171701444D01*
X185965731Y-171711982D01*
X185935388Y-171719582D01*
X185904446Y-171724172D01*
X185873203Y-171725707D01*
X185235703Y-171725707D01*
X185204460Y-171724172D01*
X185173518Y-171719582D01*
X185143175Y-171711982D01*
X185113723Y-171701444D01*
X185085445Y-171688069D01*
X185058615Y-171671988D01*
X185033490Y-171653354D01*
X185010313Y-171632347D01*
X184989306Y-171609170D01*
X184970672Y-171584045D01*
X184954591Y-171557215D01*
X184941216Y-171528937D01*
X184930678Y-171499485D01*
X184923078Y-171469142D01*
X184918488Y-171438200D01*
X184916953Y-171406957D01*
X184916953Y-170694457D01*
X184918488Y-170663214D01*
X184923078Y-170632272D01*
X184930678Y-170601929D01*
X184941216Y-170572477D01*
X184954591Y-170544199D01*
X184970672Y-170517369D01*
X184989306Y-170492244D01*
X185010313Y-170469067D01*
X185033490Y-170448060D01*
X185058615Y-170429426D01*
X185085445Y-170413345D01*
X185113723Y-170399970D01*
X185143175Y-170389432D01*
X185173518Y-170381832D01*
X185204460Y-170377242D01*
X185235703Y-170375707D01*
X185873203Y-170375707D01*
X185904446Y-170377242D01*
X185904446Y-170377242D01*
G37*
D15*
X185554453Y-171050707D03*
G04 #@! TD*
D12*
G04 #@! TO.C,C13*
G36*
X187479446Y-168777242D02*
X187510388Y-168781832D01*
X187540731Y-168789432D01*
X187570183Y-168799970D01*
X187598461Y-168813345D01*
X187625291Y-168829426D01*
X187650416Y-168848060D01*
X187673593Y-168869067D01*
X187694600Y-168892244D01*
X187713234Y-168917369D01*
X187729315Y-168944199D01*
X187742690Y-168972477D01*
X187753228Y-169001929D01*
X187760828Y-169032272D01*
X187765418Y-169063214D01*
X187766953Y-169094457D01*
X187766953Y-169806957D01*
X187765418Y-169838200D01*
X187760828Y-169869142D01*
X187753228Y-169899485D01*
X187742690Y-169928937D01*
X187729315Y-169957215D01*
X187713234Y-169984045D01*
X187694600Y-170009170D01*
X187673593Y-170032347D01*
X187650416Y-170053354D01*
X187625291Y-170071988D01*
X187598461Y-170088069D01*
X187570183Y-170101444D01*
X187540731Y-170111982D01*
X187510388Y-170119582D01*
X187479446Y-170124172D01*
X187448203Y-170125707D01*
X186810703Y-170125707D01*
X186779460Y-170124172D01*
X186748518Y-170119582D01*
X186718175Y-170111982D01*
X186688723Y-170101444D01*
X186660445Y-170088069D01*
X186633615Y-170071988D01*
X186608490Y-170053354D01*
X186585313Y-170032347D01*
X186564306Y-170009170D01*
X186545672Y-169984045D01*
X186529591Y-169957215D01*
X186516216Y-169928937D01*
X186505678Y-169899485D01*
X186498078Y-169869142D01*
X186493488Y-169838200D01*
X186491953Y-169806957D01*
X186491953Y-169094457D01*
X186493488Y-169063214D01*
X186498078Y-169032272D01*
X186505678Y-169001929D01*
X186516216Y-168972477D01*
X186529591Y-168944199D01*
X186545672Y-168917369D01*
X186564306Y-168892244D01*
X186585313Y-168869067D01*
X186608490Y-168848060D01*
X186633615Y-168829426D01*
X186660445Y-168813345D01*
X186688723Y-168799970D01*
X186718175Y-168789432D01*
X186748518Y-168781832D01*
X186779460Y-168777242D01*
X186810703Y-168775707D01*
X187448203Y-168775707D01*
X187479446Y-168777242D01*
X187479446Y-168777242D01*
G37*
D15*
X187129453Y-169450707D03*
D12*
G36*
X185904446Y-168777242D02*
X185935388Y-168781832D01*
X185965731Y-168789432D01*
X185995183Y-168799970D01*
X186023461Y-168813345D01*
X186050291Y-168829426D01*
X186075416Y-168848060D01*
X186098593Y-168869067D01*
X186119600Y-168892244D01*
X186138234Y-168917369D01*
X186154315Y-168944199D01*
X186167690Y-168972477D01*
X186178228Y-169001929D01*
X186185828Y-169032272D01*
X186190418Y-169063214D01*
X186191953Y-169094457D01*
X186191953Y-169806957D01*
X186190418Y-169838200D01*
X186185828Y-169869142D01*
X186178228Y-169899485D01*
X186167690Y-169928937D01*
X186154315Y-169957215D01*
X186138234Y-169984045D01*
X186119600Y-170009170D01*
X186098593Y-170032347D01*
X186075416Y-170053354D01*
X186050291Y-170071988D01*
X186023461Y-170088069D01*
X185995183Y-170101444D01*
X185965731Y-170111982D01*
X185935388Y-170119582D01*
X185904446Y-170124172D01*
X185873203Y-170125707D01*
X185235703Y-170125707D01*
X185204460Y-170124172D01*
X185173518Y-170119582D01*
X185143175Y-170111982D01*
X185113723Y-170101444D01*
X185085445Y-170088069D01*
X185058615Y-170071988D01*
X185033490Y-170053354D01*
X185010313Y-170032347D01*
X184989306Y-170009170D01*
X184970672Y-169984045D01*
X184954591Y-169957215D01*
X184941216Y-169928937D01*
X184930678Y-169899485D01*
X184923078Y-169869142D01*
X184918488Y-169838200D01*
X184916953Y-169806957D01*
X184916953Y-169094457D01*
X184918488Y-169063214D01*
X184923078Y-169032272D01*
X184930678Y-169001929D01*
X184941216Y-168972477D01*
X184954591Y-168944199D01*
X184970672Y-168917369D01*
X184989306Y-168892244D01*
X185010313Y-168869067D01*
X185033490Y-168848060D01*
X185058615Y-168829426D01*
X185085445Y-168813345D01*
X185113723Y-168799970D01*
X185143175Y-168789432D01*
X185173518Y-168781832D01*
X185204460Y-168777242D01*
X185235703Y-168775707D01*
X185873203Y-168775707D01*
X185904446Y-168777242D01*
X185904446Y-168777242D01*
G37*
D15*
X185554453Y-169450707D03*
G04 #@! TD*
D12*
G04 #@! TO.C,C14*
G36*
X189391946Y-169977242D02*
X189422888Y-169981832D01*
X189453231Y-169989432D01*
X189482683Y-169999970D01*
X189510961Y-170013345D01*
X189537791Y-170029426D01*
X189562916Y-170048060D01*
X189586093Y-170069067D01*
X189607100Y-170092244D01*
X189625734Y-170117369D01*
X189641815Y-170144199D01*
X189655190Y-170172477D01*
X189665728Y-170201929D01*
X189673328Y-170232272D01*
X189677918Y-170263214D01*
X189679453Y-170294457D01*
X189679453Y-171006957D01*
X189677918Y-171038200D01*
X189673328Y-171069142D01*
X189665728Y-171099485D01*
X189655190Y-171128937D01*
X189641815Y-171157215D01*
X189625734Y-171184045D01*
X189607100Y-171209170D01*
X189586093Y-171232347D01*
X189562916Y-171253354D01*
X189537791Y-171271988D01*
X189510961Y-171288069D01*
X189482683Y-171301444D01*
X189453231Y-171311982D01*
X189422888Y-171319582D01*
X189391946Y-171324172D01*
X189360703Y-171325707D01*
X188723203Y-171325707D01*
X188691960Y-171324172D01*
X188661018Y-171319582D01*
X188630675Y-171311982D01*
X188601223Y-171301444D01*
X188572945Y-171288069D01*
X188546115Y-171271988D01*
X188520990Y-171253354D01*
X188497813Y-171232347D01*
X188476806Y-171209170D01*
X188458172Y-171184045D01*
X188442091Y-171157215D01*
X188428716Y-171128937D01*
X188418178Y-171099485D01*
X188410578Y-171069142D01*
X188405988Y-171038200D01*
X188404453Y-171006957D01*
X188404453Y-170294457D01*
X188405988Y-170263214D01*
X188410578Y-170232272D01*
X188418178Y-170201929D01*
X188428716Y-170172477D01*
X188442091Y-170144199D01*
X188458172Y-170117369D01*
X188476806Y-170092244D01*
X188497813Y-170069067D01*
X188520990Y-170048060D01*
X188546115Y-170029426D01*
X188572945Y-170013345D01*
X188601223Y-169999970D01*
X188630675Y-169989432D01*
X188661018Y-169981832D01*
X188691960Y-169977242D01*
X188723203Y-169975707D01*
X189360703Y-169975707D01*
X189391946Y-169977242D01*
X189391946Y-169977242D01*
G37*
D15*
X189041953Y-170650707D03*
D12*
G36*
X190966946Y-169977242D02*
X190997888Y-169981832D01*
X191028231Y-169989432D01*
X191057683Y-169999970D01*
X191085961Y-170013345D01*
X191112791Y-170029426D01*
X191137916Y-170048060D01*
X191161093Y-170069067D01*
X191182100Y-170092244D01*
X191200734Y-170117369D01*
X191216815Y-170144199D01*
X191230190Y-170172477D01*
X191240728Y-170201929D01*
X191248328Y-170232272D01*
X191252918Y-170263214D01*
X191254453Y-170294457D01*
X191254453Y-171006957D01*
X191252918Y-171038200D01*
X191248328Y-171069142D01*
X191240728Y-171099485D01*
X191230190Y-171128937D01*
X191216815Y-171157215D01*
X191200734Y-171184045D01*
X191182100Y-171209170D01*
X191161093Y-171232347D01*
X191137916Y-171253354D01*
X191112791Y-171271988D01*
X191085961Y-171288069D01*
X191057683Y-171301444D01*
X191028231Y-171311982D01*
X190997888Y-171319582D01*
X190966946Y-171324172D01*
X190935703Y-171325707D01*
X190298203Y-171325707D01*
X190266960Y-171324172D01*
X190236018Y-171319582D01*
X190205675Y-171311982D01*
X190176223Y-171301444D01*
X190147945Y-171288069D01*
X190121115Y-171271988D01*
X190095990Y-171253354D01*
X190072813Y-171232347D01*
X190051806Y-171209170D01*
X190033172Y-171184045D01*
X190017091Y-171157215D01*
X190003716Y-171128937D01*
X189993178Y-171099485D01*
X189985578Y-171069142D01*
X189980988Y-171038200D01*
X189979453Y-171006957D01*
X189979453Y-170294457D01*
X189980988Y-170263214D01*
X189985578Y-170232272D01*
X189993178Y-170201929D01*
X190003716Y-170172477D01*
X190017091Y-170144199D01*
X190033172Y-170117369D01*
X190051806Y-170092244D01*
X190072813Y-170069067D01*
X190095990Y-170048060D01*
X190121115Y-170029426D01*
X190147945Y-170013345D01*
X190176223Y-169999970D01*
X190205675Y-169989432D01*
X190236018Y-169981832D01*
X190266960Y-169977242D01*
X190298203Y-169975707D01*
X190935703Y-169975707D01*
X190966946Y-169977242D01*
X190966946Y-169977242D01*
G37*
D15*
X190616953Y-170650707D03*
G04 #@! TD*
D16*
G04 #@! TO.C,JP1*
X193729453Y-173650707D03*
D12*
G36*
X193735565Y-172701309D02*
X193753987Y-172701309D01*
X193773593Y-172702272D01*
X193822424Y-172707082D01*
X193841833Y-172709961D01*
X193889958Y-172719533D01*
X193909001Y-172724303D01*
X193955956Y-172738547D01*
X193974433Y-172745158D01*
X194019766Y-172763935D01*
X194037514Y-172772330D01*
X194080787Y-172795461D01*
X194097615Y-172805547D01*
X194138414Y-172832807D01*
X194154183Y-172844502D01*
X194192112Y-172875630D01*
X194206653Y-172888810D01*
X194241350Y-172923507D01*
X194254530Y-172938048D01*
X194285658Y-172975977D01*
X194297353Y-172991746D01*
X194324613Y-173032545D01*
X194334699Y-173049373D01*
X194357830Y-173092646D01*
X194366225Y-173110394D01*
X194385002Y-173155727D01*
X194391613Y-173174204D01*
X194405857Y-173221159D01*
X194410627Y-173240202D01*
X194420199Y-173288327D01*
X194423078Y-173307736D01*
X194427888Y-173356567D01*
X194428851Y-173376173D01*
X194428851Y-173394595D01*
X194429453Y-173400707D01*
X194429453Y-173900707D01*
X194428851Y-173906819D01*
X194428851Y-173925241D01*
X194427888Y-173944847D01*
X194423078Y-173993678D01*
X194420199Y-174013087D01*
X194410627Y-174061212D01*
X194405857Y-174080255D01*
X194391613Y-174127210D01*
X194385002Y-174145687D01*
X194366225Y-174191020D01*
X194357830Y-174208768D01*
X194334699Y-174252041D01*
X194324613Y-174268869D01*
X194297353Y-174309668D01*
X194285658Y-174325437D01*
X194254530Y-174363366D01*
X194241350Y-174377907D01*
X194206653Y-174412604D01*
X194192112Y-174425784D01*
X194154183Y-174456912D01*
X194138414Y-174468607D01*
X194097615Y-174495867D01*
X194080787Y-174505953D01*
X194037514Y-174529084D01*
X194019766Y-174537479D01*
X193974433Y-174556256D01*
X193955956Y-174562867D01*
X193909001Y-174577111D01*
X193889958Y-174581881D01*
X193841833Y-174591453D01*
X193822424Y-174594332D01*
X193773593Y-174599142D01*
X193753987Y-174600105D01*
X193735565Y-174600105D01*
X193729453Y-174600707D01*
X193229453Y-174600707D01*
X193190435Y-174596864D01*
X193152916Y-174585483D01*
X193118339Y-174567001D01*
X193088032Y-174542128D01*
X193063159Y-174511821D01*
X193044677Y-174477244D01*
X193033296Y-174439725D01*
X193029453Y-174400707D01*
X193029453Y-172900707D01*
X193033296Y-172861689D01*
X193044677Y-172824170D01*
X193063159Y-172789593D01*
X193088032Y-172759286D01*
X193118339Y-172734413D01*
X193152916Y-172715931D01*
X193190435Y-172704550D01*
X193229453Y-172700707D01*
X193729453Y-172700707D01*
X193735565Y-172701309D01*
X193735565Y-172701309D01*
G37*
D16*
X192429453Y-173650707D03*
D12*
G36*
X192968471Y-172704550D02*
X193005990Y-172715931D01*
X193040567Y-172734413D01*
X193070874Y-172759286D01*
X193095747Y-172789593D01*
X193114229Y-172824170D01*
X193125610Y-172861689D01*
X193129453Y-172900707D01*
X193129453Y-174400707D01*
X193125610Y-174439725D01*
X193114229Y-174477244D01*
X193095747Y-174511821D01*
X193070874Y-174542128D01*
X193040567Y-174567001D01*
X193005990Y-174585483D01*
X192968471Y-174596864D01*
X192929453Y-174600707D01*
X192429453Y-174600707D01*
X192423341Y-174600105D01*
X192404919Y-174600105D01*
X192385313Y-174599142D01*
X192336482Y-174594332D01*
X192317073Y-174591453D01*
X192268948Y-174581881D01*
X192249905Y-174577111D01*
X192202950Y-174562867D01*
X192184473Y-174556256D01*
X192139140Y-174537479D01*
X192121392Y-174529084D01*
X192078119Y-174505953D01*
X192061291Y-174495867D01*
X192020492Y-174468607D01*
X192004723Y-174456912D01*
X191966794Y-174425784D01*
X191952253Y-174412604D01*
X191917556Y-174377907D01*
X191904376Y-174363366D01*
X191873248Y-174325437D01*
X191861553Y-174309668D01*
X191834293Y-174268869D01*
X191824207Y-174252041D01*
X191801076Y-174208768D01*
X191792681Y-174191020D01*
X191773904Y-174145687D01*
X191767293Y-174127210D01*
X191753049Y-174080255D01*
X191748279Y-174061212D01*
X191738707Y-174013087D01*
X191735828Y-173993678D01*
X191731018Y-173944847D01*
X191730055Y-173925241D01*
X191730055Y-173906819D01*
X191729453Y-173900707D01*
X191729453Y-173400707D01*
X191730055Y-173394595D01*
X191730055Y-173376173D01*
X191731018Y-173356567D01*
X191735828Y-173307736D01*
X191738707Y-173288327D01*
X191748279Y-173240202D01*
X191753049Y-173221159D01*
X191767293Y-173174204D01*
X191773904Y-173155727D01*
X191792681Y-173110394D01*
X191801076Y-173092646D01*
X191824207Y-173049373D01*
X191834293Y-173032545D01*
X191861553Y-172991746D01*
X191873248Y-172975977D01*
X191904376Y-172938048D01*
X191917556Y-172923507D01*
X191952253Y-172888810D01*
X191966794Y-172875630D01*
X192004723Y-172844502D01*
X192020492Y-172832807D01*
X192061291Y-172805547D01*
X192078119Y-172795461D01*
X192121392Y-172772330D01*
X192139140Y-172763935D01*
X192184473Y-172745158D01*
X192202950Y-172738547D01*
X192249905Y-172724303D01*
X192268948Y-172719533D01*
X192317073Y-172709961D01*
X192336482Y-172707082D01*
X192385313Y-172702272D01*
X192404919Y-172701309D01*
X192423341Y-172701309D01*
X192429453Y-172700707D01*
X192929453Y-172700707D01*
X192968471Y-172704550D01*
X192968471Y-172704550D01*
G37*
G04 #@! TD*
G04 #@! TO.C,L3*
G36*
X189519677Y-178924216D02*
X189552236Y-178929994D01*
X189584072Y-178938935D01*
X189614878Y-178950953D01*
X189644357Y-178965933D01*
X189672226Y-178983731D01*
X189698217Y-179004174D01*
X189722079Y-179027067D01*
X189743582Y-179052188D01*
X189762519Y-179079295D01*
X189778707Y-179108129D01*
X189791992Y-179138410D01*
X189802245Y-179169848D01*
X189809367Y-179202139D01*
X189813289Y-179234973D01*
X189891841Y-180358318D01*
X189892526Y-180391378D01*
X189889968Y-180424346D01*
X189884190Y-180456905D01*
X189875249Y-180488741D01*
X189863231Y-180519547D01*
X189848251Y-180549026D01*
X189830453Y-180576895D01*
X189810010Y-180602886D01*
X189787117Y-180626748D01*
X189761996Y-180648251D01*
X189734888Y-180667188D01*
X189706055Y-180683376D01*
X189675774Y-180696661D01*
X189644336Y-180706914D01*
X189612045Y-180714036D01*
X189579211Y-180717958D01*
X188705257Y-180779071D01*
X188672197Y-180779756D01*
X188639229Y-180777198D01*
X188606670Y-180771420D01*
X188574834Y-180762479D01*
X188544028Y-180750461D01*
X188514549Y-180735481D01*
X188486680Y-180717683D01*
X188460689Y-180697240D01*
X188436827Y-180674347D01*
X188415324Y-180649226D01*
X188396387Y-180622119D01*
X188380199Y-180593285D01*
X188366914Y-180563004D01*
X188356661Y-180531566D01*
X188349539Y-180499275D01*
X188345617Y-180466441D01*
X188267065Y-179343096D01*
X188266380Y-179310036D01*
X188268938Y-179277068D01*
X188274716Y-179244509D01*
X188283657Y-179212673D01*
X188295675Y-179181867D01*
X188310655Y-179152388D01*
X188328453Y-179124519D01*
X188348896Y-179098528D01*
X188371789Y-179074666D01*
X188396910Y-179053163D01*
X188424018Y-179034226D01*
X188452851Y-179018038D01*
X188483132Y-179004753D01*
X188514570Y-178994500D01*
X188546861Y-178987378D01*
X188579695Y-178983456D01*
X189453649Y-178922343D01*
X189486709Y-178921658D01*
X189519677Y-178924216D01*
X189519677Y-178924216D01*
G37*
D17*
X189079453Y-179850707D03*
D12*
G36*
X187474671Y-179067216D02*
X187507230Y-179072994D01*
X187539066Y-179081935D01*
X187569872Y-179093953D01*
X187599351Y-179108933D01*
X187627220Y-179126731D01*
X187653211Y-179147174D01*
X187677073Y-179170067D01*
X187698576Y-179195188D01*
X187717513Y-179222295D01*
X187733701Y-179251129D01*
X187746986Y-179281410D01*
X187757239Y-179312848D01*
X187764361Y-179345139D01*
X187768283Y-179377973D01*
X187846835Y-180501318D01*
X187847520Y-180534378D01*
X187844962Y-180567346D01*
X187839184Y-180599905D01*
X187830243Y-180631741D01*
X187818225Y-180662547D01*
X187803245Y-180692026D01*
X187785447Y-180719895D01*
X187765004Y-180745886D01*
X187742111Y-180769748D01*
X187716990Y-180791251D01*
X187689882Y-180810188D01*
X187661049Y-180826376D01*
X187630768Y-180839661D01*
X187599330Y-180849914D01*
X187567039Y-180857036D01*
X187534205Y-180860958D01*
X186660251Y-180922071D01*
X186627191Y-180922756D01*
X186594223Y-180920198D01*
X186561664Y-180914420D01*
X186529828Y-180905479D01*
X186499022Y-180893461D01*
X186469543Y-180878481D01*
X186441674Y-180860683D01*
X186415683Y-180840240D01*
X186391821Y-180817347D01*
X186370318Y-180792226D01*
X186351381Y-180765119D01*
X186335193Y-180736285D01*
X186321908Y-180706004D01*
X186311655Y-180674566D01*
X186304533Y-180642275D01*
X186300611Y-180609441D01*
X186222059Y-179486096D01*
X186221374Y-179453036D01*
X186223932Y-179420068D01*
X186229710Y-179387509D01*
X186238651Y-179355673D01*
X186250669Y-179324867D01*
X186265649Y-179295388D01*
X186283447Y-179267519D01*
X186303890Y-179241528D01*
X186326783Y-179217666D01*
X186351904Y-179196163D01*
X186379012Y-179177226D01*
X186407845Y-179161038D01*
X186438126Y-179147753D01*
X186469564Y-179137500D01*
X186501855Y-179130378D01*
X186534689Y-179126456D01*
X187408643Y-179065343D01*
X187441703Y-179064658D01*
X187474671Y-179067216D01*
X187474671Y-179067216D01*
G37*
D17*
X187034447Y-179993707D03*
G04 #@! TD*
D18*
G04 #@! TO.C,MUX1*
X185424661Y-149842982D03*
D12*
G36*
X185531600Y-148807758D02*
X186267722Y-149232758D01*
X185317722Y-150878206D01*
X184581600Y-150453206D01*
X185531600Y-148807758D01*
X185531600Y-148807758D01*
G37*
D18*
X184861744Y-149517982D03*
D12*
G36*
X184968683Y-148482758D02*
X185704805Y-148907758D01*
X184754805Y-150553206D01*
X184018683Y-150128206D01*
X184968683Y-148482758D01*
X184968683Y-148482758D01*
G37*
D18*
X184298828Y-149192982D03*
D12*
G36*
X184405767Y-148157758D02*
X185141889Y-148582758D01*
X184191889Y-150228206D01*
X183455767Y-149803206D01*
X184405767Y-148157758D01*
X184405767Y-148157758D01*
G37*
D18*
X183735911Y-148867982D03*
D12*
G36*
X183842850Y-147832758D02*
X184578972Y-148257758D01*
X183628972Y-149903206D01*
X182892850Y-149478206D01*
X183842850Y-147832758D01*
X183842850Y-147832758D01*
G37*
D18*
X183172995Y-148542982D03*
D12*
G36*
X183279934Y-147507758D02*
X184016056Y-147932758D01*
X183066056Y-149578206D01*
X182329934Y-149153206D01*
X183279934Y-147507758D01*
X183279934Y-147507758D01*
G37*
D18*
X182610078Y-148217982D03*
D12*
G36*
X182717017Y-147182758D02*
X183453139Y-147607758D01*
X182503139Y-149253206D01*
X181767017Y-148828206D01*
X182717017Y-147182758D01*
X182717017Y-147182758D01*
G37*
D18*
X182047162Y-147892982D03*
D12*
G36*
X182154101Y-146857758D02*
X182890223Y-147282758D01*
X181940223Y-148928206D01*
X181204101Y-148503206D01*
X182154101Y-146857758D01*
X182154101Y-146857758D01*
G37*
D18*
X181484245Y-147567982D03*
D12*
G36*
X181591184Y-146532758D02*
X182327306Y-146957758D01*
X181377306Y-148603206D01*
X180641184Y-148178206D01*
X181591184Y-146532758D01*
X181591184Y-146532758D01*
G37*
D18*
X184434245Y-142458432D03*
D12*
G36*
X184541184Y-141423208D02*
X185277306Y-141848208D01*
X184327306Y-143493656D01*
X183591184Y-143068656D01*
X184541184Y-141423208D01*
X184541184Y-141423208D01*
G37*
D18*
X184997162Y-142783432D03*
D12*
G36*
X185104101Y-141748208D02*
X185840223Y-142173208D01*
X184890223Y-143818656D01*
X184154101Y-143393656D01*
X185104101Y-141748208D01*
X185104101Y-141748208D01*
G37*
D18*
X185560078Y-143108432D03*
D12*
G36*
X185667017Y-142073208D02*
X186403139Y-142498208D01*
X185453139Y-144143656D01*
X184717017Y-143718656D01*
X185667017Y-142073208D01*
X185667017Y-142073208D01*
G37*
D18*
X186122995Y-143433432D03*
D12*
G36*
X186229934Y-142398208D02*
X186966056Y-142823208D01*
X186016056Y-144468656D01*
X185279934Y-144043656D01*
X186229934Y-142398208D01*
X186229934Y-142398208D01*
G37*
D18*
X186685911Y-143758432D03*
D12*
G36*
X186792850Y-142723208D02*
X187528972Y-143148208D01*
X186578972Y-144793656D01*
X185842850Y-144368656D01*
X186792850Y-142723208D01*
X186792850Y-142723208D01*
G37*
D18*
X187248828Y-144083432D03*
D12*
G36*
X187355767Y-143048208D02*
X188091889Y-143473208D01*
X187141889Y-145118656D01*
X186405767Y-144693656D01*
X187355767Y-143048208D01*
X187355767Y-143048208D01*
G37*
D18*
X187811744Y-144408432D03*
D12*
G36*
X187918683Y-143373208D02*
X188654805Y-143798208D01*
X187704805Y-145443656D01*
X186968683Y-145018656D01*
X187918683Y-143373208D01*
X187918683Y-143373208D01*
G37*
D18*
X188374661Y-144733432D03*
D12*
G36*
X188481600Y-143698208D02*
X189217722Y-144123208D01*
X188267722Y-145768656D01*
X187531600Y-145343656D01*
X188481600Y-143698208D01*
X188481600Y-143698208D01*
G37*
G04 #@! TD*
D19*
G04 #@! TO.C,MUX2*
X177379453Y-166225707D03*
X177379453Y-165575707D03*
X177379453Y-164925707D03*
X177379453Y-164275707D03*
X177379453Y-163625707D03*
X177379453Y-162975707D03*
X177379453Y-162325707D03*
X177379453Y-161675707D03*
X183279453Y-161675707D03*
X183279453Y-162325707D03*
X183279453Y-162975707D03*
X183279453Y-163625707D03*
X183279453Y-164275707D03*
X183279453Y-164925707D03*
X183279453Y-165575707D03*
X183279453Y-166225707D03*
G04 #@! TD*
D20*
G04 #@! TO.C,MUX3*
X175304453Y-175850707D03*
X174654453Y-175850707D03*
X174004453Y-175850707D03*
X173354453Y-175850707D03*
X172704453Y-175850707D03*
X172054453Y-175850707D03*
X171404453Y-175850707D03*
X170754453Y-175850707D03*
X170754453Y-169950707D03*
X171404453Y-169950707D03*
X172054453Y-169950707D03*
X172704453Y-169950707D03*
X173354453Y-169950707D03*
X174004453Y-169950707D03*
X174654453Y-169950707D03*
X175304453Y-169950707D03*
G04 #@! TD*
D18*
G04 #@! TO.C,MUX4*
X171332693Y-189206710D03*
D12*
G36*
X172056981Y-189954059D02*
X171258243Y-190244777D01*
X170608405Y-188459361D01*
X171407143Y-188168643D01*
X172056981Y-189954059D01*
X172056981Y-189954059D01*
G37*
D18*
X171943493Y-188984397D03*
D12*
G36*
X172667781Y-189731746D02*
X171869043Y-190022464D01*
X171219205Y-188237048D01*
X172017943Y-187946330D01*
X172667781Y-189731746D01*
X172667781Y-189731746D01*
G37*
D18*
X172554293Y-188762083D03*
D12*
G36*
X173278581Y-189509432D02*
X172479843Y-189800150D01*
X171830005Y-188014734D01*
X172628743Y-187724016D01*
X173278581Y-189509432D01*
X173278581Y-189509432D01*
G37*
D18*
X173165093Y-188539770D03*
D12*
G36*
X173889381Y-189287119D02*
X173090643Y-189577837D01*
X172440805Y-187792421D01*
X173239543Y-187501703D01*
X173889381Y-189287119D01*
X173889381Y-189287119D01*
G37*
D18*
X173775894Y-188317457D03*
D12*
G36*
X174500182Y-189064806D02*
X173701444Y-189355524D01*
X173051606Y-187570108D01*
X173850344Y-187279390D01*
X174500182Y-189064806D01*
X174500182Y-189064806D01*
G37*
D18*
X174386694Y-188095144D03*
D12*
G36*
X175110982Y-188842493D02*
X174312244Y-189133211D01*
X173662406Y-187347795D01*
X174461144Y-187057077D01*
X175110982Y-188842493D01*
X175110982Y-188842493D01*
G37*
D18*
X174997494Y-187872831D03*
D12*
G36*
X175721782Y-188620180D02*
X174923044Y-188910898D01*
X174273206Y-187125482D01*
X175071944Y-186834764D01*
X175721782Y-188620180D01*
X175721782Y-188620180D01*
G37*
D18*
X175608294Y-187650518D03*
D12*
G36*
X176332582Y-188397867D02*
X175533844Y-188688585D01*
X174884006Y-186903169D01*
X175682744Y-186612451D01*
X176332582Y-188397867D01*
X176332582Y-188397867D01*
G37*
D18*
X177626213Y-193194704D03*
D12*
G36*
X178350501Y-193942053D02*
X177551763Y-194232771D01*
X176901925Y-192447355D01*
X177700663Y-192156637D01*
X178350501Y-193942053D01*
X178350501Y-193942053D01*
G37*
D18*
X177015413Y-193417017D03*
D12*
G36*
X177739701Y-194164366D02*
X176940963Y-194455084D01*
X176291125Y-192669668D01*
X177089863Y-192378950D01*
X177739701Y-194164366D01*
X177739701Y-194164366D01*
G37*
D18*
X176404613Y-193639331D03*
D12*
G36*
X177128901Y-194386680D02*
X176330163Y-194677398D01*
X175680325Y-192891982D01*
X176479063Y-192601264D01*
X177128901Y-194386680D01*
X177128901Y-194386680D01*
G37*
D18*
X175793813Y-193861644D03*
D12*
G36*
X176518101Y-194608993D02*
X175719363Y-194899711D01*
X175069525Y-193114295D01*
X175868263Y-192823577D01*
X176518101Y-194608993D01*
X176518101Y-194608993D01*
G37*
D18*
X175183012Y-194083957D03*
D12*
G36*
X175907300Y-194831306D02*
X175108562Y-195122024D01*
X174458724Y-193336608D01*
X175257462Y-193045890D01*
X175907300Y-194831306D01*
X175907300Y-194831306D01*
G37*
D18*
X174572212Y-194306270D03*
D12*
G36*
X175296500Y-195053619D02*
X174497762Y-195344337D01*
X173847924Y-193558921D01*
X174646662Y-193268203D01*
X175296500Y-195053619D01*
X175296500Y-195053619D01*
G37*
D18*
X173961412Y-194528583D03*
D12*
G36*
X174685700Y-195275932D02*
X173886962Y-195566650D01*
X173237124Y-193781234D01*
X174035862Y-193490516D01*
X174685700Y-195275932D01*
X174685700Y-195275932D01*
G37*
D18*
X173350612Y-194750896D03*
D12*
G36*
X174074900Y-195498245D02*
X173276162Y-195788963D01*
X172626324Y-194003547D01*
X173425062Y-193712829D01*
X174074900Y-195498245D01*
X174074900Y-195498245D01*
G37*
G04 #@! TD*
D21*
G04 #@! TO.C,Q2*
X194129453Y-165050707D03*
X195079453Y-167050707D03*
X193179453Y-167050707D03*
G04 #@! TD*
D12*
G04 #@! TO.C,R1*
G36*
X184243220Y-189395821D02*
X184274019Y-189401287D01*
X184304135Y-189409745D01*
X184333276Y-189421114D01*
X184361163Y-189435285D01*
X184387526Y-189452120D01*
X184412113Y-189471459D01*
X184434685Y-189493115D01*
X184455026Y-189516879D01*
X184472940Y-189542522D01*
X184488254Y-189569797D01*
X184500821Y-189598443D01*
X184510520Y-189628182D01*
X184517257Y-189658728D01*
X184520968Y-189689788D01*
X184570669Y-190400552D01*
X184571317Y-190431826D01*
X184568897Y-190463013D01*
X184563431Y-190493813D01*
X184554973Y-190523928D01*
X184543604Y-190553069D01*
X184529433Y-190580956D01*
X184512597Y-190607320D01*
X184493259Y-190631906D01*
X184471603Y-190654478D01*
X184447839Y-190674819D01*
X184422196Y-190692733D01*
X184394920Y-190708047D01*
X184366275Y-190720614D01*
X184336536Y-190730313D01*
X184305989Y-190737050D01*
X184274930Y-190740761D01*
X183638983Y-190785231D01*
X183607709Y-190785879D01*
X183576522Y-190783459D01*
X183545723Y-190777993D01*
X183515607Y-190769535D01*
X183486466Y-190758166D01*
X183458579Y-190743995D01*
X183432216Y-190727160D01*
X183407629Y-190707821D01*
X183385057Y-190686165D01*
X183364716Y-190662401D01*
X183346802Y-190636758D01*
X183331488Y-190609483D01*
X183318921Y-190580837D01*
X183309222Y-190551098D01*
X183302485Y-190520552D01*
X183298774Y-190489492D01*
X183249073Y-189778728D01*
X183248425Y-189747454D01*
X183250845Y-189716267D01*
X183256311Y-189685467D01*
X183264769Y-189655352D01*
X183276138Y-189626211D01*
X183290309Y-189598324D01*
X183307145Y-189571960D01*
X183326483Y-189547374D01*
X183348139Y-189524802D01*
X183371903Y-189504461D01*
X183397546Y-189486547D01*
X183424822Y-189471233D01*
X183453467Y-189458666D01*
X183483206Y-189448967D01*
X183513753Y-189442230D01*
X183544812Y-189438519D01*
X184180759Y-189394049D01*
X184212033Y-189393401D01*
X184243220Y-189395821D01*
X184243220Y-189395821D01*
G37*
D15*
X183909871Y-190089640D03*
D12*
G36*
X185814384Y-189285955D02*
X185845183Y-189291421D01*
X185875299Y-189299879D01*
X185904440Y-189311248D01*
X185932327Y-189325419D01*
X185958690Y-189342254D01*
X185983277Y-189361593D01*
X186005849Y-189383249D01*
X186026190Y-189407013D01*
X186044104Y-189432656D01*
X186059418Y-189459931D01*
X186071985Y-189488577D01*
X186081684Y-189518316D01*
X186088421Y-189548862D01*
X186092132Y-189579922D01*
X186141833Y-190290686D01*
X186142481Y-190321960D01*
X186140061Y-190353147D01*
X186134595Y-190383947D01*
X186126137Y-190414062D01*
X186114768Y-190443203D01*
X186100597Y-190471090D01*
X186083761Y-190497454D01*
X186064423Y-190522040D01*
X186042767Y-190544612D01*
X186019003Y-190564953D01*
X185993360Y-190582867D01*
X185966084Y-190598181D01*
X185937439Y-190610748D01*
X185907700Y-190620447D01*
X185877153Y-190627184D01*
X185846094Y-190630895D01*
X185210147Y-190675365D01*
X185178873Y-190676013D01*
X185147686Y-190673593D01*
X185116887Y-190668127D01*
X185086771Y-190659669D01*
X185057630Y-190648300D01*
X185029743Y-190634129D01*
X185003380Y-190617294D01*
X184978793Y-190597955D01*
X184956221Y-190576299D01*
X184935880Y-190552535D01*
X184917966Y-190526892D01*
X184902652Y-190499617D01*
X184890085Y-190470971D01*
X184880386Y-190441232D01*
X184873649Y-190410686D01*
X184869938Y-190379626D01*
X184820237Y-189668862D01*
X184819589Y-189637588D01*
X184822009Y-189606401D01*
X184827475Y-189575601D01*
X184835933Y-189545486D01*
X184847302Y-189516345D01*
X184861473Y-189488458D01*
X184878309Y-189462094D01*
X184897647Y-189437508D01*
X184919303Y-189414936D01*
X184943067Y-189394595D01*
X184968710Y-189376681D01*
X184995986Y-189361367D01*
X185024631Y-189348800D01*
X185054370Y-189339101D01*
X185084917Y-189332364D01*
X185115976Y-189328653D01*
X185751923Y-189284183D01*
X185783197Y-189283535D01*
X185814384Y-189285955D01*
X185814384Y-189285955D01*
G37*
D15*
X185481035Y-189979774D03*
G04 #@! TD*
D12*
G04 #@! TO.C,R2*
G36*
X189304446Y-160677242D02*
X189335388Y-160681832D01*
X189365731Y-160689432D01*
X189395183Y-160699970D01*
X189423461Y-160713345D01*
X189450291Y-160729426D01*
X189475416Y-160748060D01*
X189498593Y-160769067D01*
X189519600Y-160792244D01*
X189538234Y-160817369D01*
X189554315Y-160844199D01*
X189567690Y-160872477D01*
X189578228Y-160901929D01*
X189585828Y-160932272D01*
X189590418Y-160963214D01*
X189591953Y-160994457D01*
X189591953Y-161706957D01*
X189590418Y-161738200D01*
X189585828Y-161769142D01*
X189578228Y-161799485D01*
X189567690Y-161828937D01*
X189554315Y-161857215D01*
X189538234Y-161884045D01*
X189519600Y-161909170D01*
X189498593Y-161932347D01*
X189475416Y-161953354D01*
X189450291Y-161971988D01*
X189423461Y-161988069D01*
X189395183Y-162001444D01*
X189365731Y-162011982D01*
X189335388Y-162019582D01*
X189304446Y-162024172D01*
X189273203Y-162025707D01*
X188635703Y-162025707D01*
X188604460Y-162024172D01*
X188573518Y-162019582D01*
X188543175Y-162011982D01*
X188513723Y-162001444D01*
X188485445Y-161988069D01*
X188458615Y-161971988D01*
X188433490Y-161953354D01*
X188410313Y-161932347D01*
X188389306Y-161909170D01*
X188370672Y-161884045D01*
X188354591Y-161857215D01*
X188341216Y-161828937D01*
X188330678Y-161799485D01*
X188323078Y-161769142D01*
X188318488Y-161738200D01*
X188316953Y-161706957D01*
X188316953Y-160994457D01*
X188318488Y-160963214D01*
X188323078Y-160932272D01*
X188330678Y-160901929D01*
X188341216Y-160872477D01*
X188354591Y-160844199D01*
X188370672Y-160817369D01*
X188389306Y-160792244D01*
X188410313Y-160769067D01*
X188433490Y-160748060D01*
X188458615Y-160729426D01*
X188485445Y-160713345D01*
X188513723Y-160699970D01*
X188543175Y-160689432D01*
X188573518Y-160681832D01*
X188604460Y-160677242D01*
X188635703Y-160675707D01*
X189273203Y-160675707D01*
X189304446Y-160677242D01*
X189304446Y-160677242D01*
G37*
D15*
X188954453Y-161350707D03*
D12*
G36*
X190879446Y-160677242D02*
X190910388Y-160681832D01*
X190940731Y-160689432D01*
X190970183Y-160699970D01*
X190998461Y-160713345D01*
X191025291Y-160729426D01*
X191050416Y-160748060D01*
X191073593Y-160769067D01*
X191094600Y-160792244D01*
X191113234Y-160817369D01*
X191129315Y-160844199D01*
X191142690Y-160872477D01*
X191153228Y-160901929D01*
X191160828Y-160932272D01*
X191165418Y-160963214D01*
X191166953Y-160994457D01*
X191166953Y-161706957D01*
X191165418Y-161738200D01*
X191160828Y-161769142D01*
X191153228Y-161799485D01*
X191142690Y-161828937D01*
X191129315Y-161857215D01*
X191113234Y-161884045D01*
X191094600Y-161909170D01*
X191073593Y-161932347D01*
X191050416Y-161953354D01*
X191025291Y-161971988D01*
X190998461Y-161988069D01*
X190970183Y-162001444D01*
X190940731Y-162011982D01*
X190910388Y-162019582D01*
X190879446Y-162024172D01*
X190848203Y-162025707D01*
X190210703Y-162025707D01*
X190179460Y-162024172D01*
X190148518Y-162019582D01*
X190118175Y-162011982D01*
X190088723Y-162001444D01*
X190060445Y-161988069D01*
X190033615Y-161971988D01*
X190008490Y-161953354D01*
X189985313Y-161932347D01*
X189964306Y-161909170D01*
X189945672Y-161884045D01*
X189929591Y-161857215D01*
X189916216Y-161828937D01*
X189905678Y-161799485D01*
X189898078Y-161769142D01*
X189893488Y-161738200D01*
X189891953Y-161706957D01*
X189891953Y-160994457D01*
X189893488Y-160963214D01*
X189898078Y-160932272D01*
X189905678Y-160901929D01*
X189916216Y-160872477D01*
X189929591Y-160844199D01*
X189945672Y-160817369D01*
X189964306Y-160792244D01*
X189985313Y-160769067D01*
X190008490Y-160748060D01*
X190033615Y-160729426D01*
X190060445Y-160713345D01*
X190088723Y-160699970D01*
X190118175Y-160689432D01*
X190148518Y-160681832D01*
X190179460Y-160677242D01*
X190210703Y-160675707D01*
X190848203Y-160675707D01*
X190879446Y-160677242D01*
X190879446Y-160677242D01*
G37*
D15*
X190529453Y-161350707D03*
G04 #@! TD*
D12*
G04 #@! TO.C,R3*
G36*
X189291946Y-162277242D02*
X189322888Y-162281832D01*
X189353231Y-162289432D01*
X189382683Y-162299970D01*
X189410961Y-162313345D01*
X189437791Y-162329426D01*
X189462916Y-162348060D01*
X189486093Y-162369067D01*
X189507100Y-162392244D01*
X189525734Y-162417369D01*
X189541815Y-162444199D01*
X189555190Y-162472477D01*
X189565728Y-162501929D01*
X189573328Y-162532272D01*
X189577918Y-162563214D01*
X189579453Y-162594457D01*
X189579453Y-163306957D01*
X189577918Y-163338200D01*
X189573328Y-163369142D01*
X189565728Y-163399485D01*
X189555190Y-163428937D01*
X189541815Y-163457215D01*
X189525734Y-163484045D01*
X189507100Y-163509170D01*
X189486093Y-163532347D01*
X189462916Y-163553354D01*
X189437791Y-163571988D01*
X189410961Y-163588069D01*
X189382683Y-163601444D01*
X189353231Y-163611982D01*
X189322888Y-163619582D01*
X189291946Y-163624172D01*
X189260703Y-163625707D01*
X188623203Y-163625707D01*
X188591960Y-163624172D01*
X188561018Y-163619582D01*
X188530675Y-163611982D01*
X188501223Y-163601444D01*
X188472945Y-163588069D01*
X188446115Y-163571988D01*
X188420990Y-163553354D01*
X188397813Y-163532347D01*
X188376806Y-163509170D01*
X188358172Y-163484045D01*
X188342091Y-163457215D01*
X188328716Y-163428937D01*
X188318178Y-163399485D01*
X188310578Y-163369142D01*
X188305988Y-163338200D01*
X188304453Y-163306957D01*
X188304453Y-162594457D01*
X188305988Y-162563214D01*
X188310578Y-162532272D01*
X188318178Y-162501929D01*
X188328716Y-162472477D01*
X188342091Y-162444199D01*
X188358172Y-162417369D01*
X188376806Y-162392244D01*
X188397813Y-162369067D01*
X188420990Y-162348060D01*
X188446115Y-162329426D01*
X188472945Y-162313345D01*
X188501223Y-162299970D01*
X188530675Y-162289432D01*
X188561018Y-162281832D01*
X188591960Y-162277242D01*
X188623203Y-162275707D01*
X189260703Y-162275707D01*
X189291946Y-162277242D01*
X189291946Y-162277242D01*
G37*
D15*
X188941953Y-162950707D03*
D12*
G36*
X190866946Y-162277242D02*
X190897888Y-162281832D01*
X190928231Y-162289432D01*
X190957683Y-162299970D01*
X190985961Y-162313345D01*
X191012791Y-162329426D01*
X191037916Y-162348060D01*
X191061093Y-162369067D01*
X191082100Y-162392244D01*
X191100734Y-162417369D01*
X191116815Y-162444199D01*
X191130190Y-162472477D01*
X191140728Y-162501929D01*
X191148328Y-162532272D01*
X191152918Y-162563214D01*
X191154453Y-162594457D01*
X191154453Y-163306957D01*
X191152918Y-163338200D01*
X191148328Y-163369142D01*
X191140728Y-163399485D01*
X191130190Y-163428937D01*
X191116815Y-163457215D01*
X191100734Y-163484045D01*
X191082100Y-163509170D01*
X191061093Y-163532347D01*
X191037916Y-163553354D01*
X191012791Y-163571988D01*
X190985961Y-163588069D01*
X190957683Y-163601444D01*
X190928231Y-163611982D01*
X190897888Y-163619582D01*
X190866946Y-163624172D01*
X190835703Y-163625707D01*
X190198203Y-163625707D01*
X190166960Y-163624172D01*
X190136018Y-163619582D01*
X190105675Y-163611982D01*
X190076223Y-163601444D01*
X190047945Y-163588069D01*
X190021115Y-163571988D01*
X189995990Y-163553354D01*
X189972813Y-163532347D01*
X189951806Y-163509170D01*
X189933172Y-163484045D01*
X189917091Y-163457215D01*
X189903716Y-163428937D01*
X189893178Y-163399485D01*
X189885578Y-163369142D01*
X189880988Y-163338200D01*
X189879453Y-163306957D01*
X189879453Y-162594457D01*
X189880988Y-162563214D01*
X189885578Y-162532272D01*
X189893178Y-162501929D01*
X189903716Y-162472477D01*
X189917091Y-162444199D01*
X189933172Y-162417369D01*
X189951806Y-162392244D01*
X189972813Y-162369067D01*
X189995990Y-162348060D01*
X190021115Y-162329426D01*
X190047945Y-162313345D01*
X190076223Y-162299970D01*
X190105675Y-162289432D01*
X190136018Y-162281832D01*
X190166960Y-162277242D01*
X190198203Y-162275707D01*
X190835703Y-162275707D01*
X190866946Y-162277242D01*
X190866946Y-162277242D01*
G37*
D15*
X190516953Y-162950707D03*
G04 #@! TD*
D12*
G04 #@! TO.C,R4*
G36*
X193706946Y-180725242D02*
X193737888Y-180729832D01*
X193768231Y-180737432D01*
X193797683Y-180747970D01*
X193825961Y-180761345D01*
X193852791Y-180777426D01*
X193877916Y-180796060D01*
X193901093Y-180817067D01*
X193922100Y-180840244D01*
X193940734Y-180865369D01*
X193956815Y-180892199D01*
X193970190Y-180920477D01*
X193980728Y-180949929D01*
X193988328Y-180980272D01*
X193992918Y-181011214D01*
X193994453Y-181042457D01*
X193994453Y-181754957D01*
X193992918Y-181786200D01*
X193988328Y-181817142D01*
X193980728Y-181847485D01*
X193970190Y-181876937D01*
X193956815Y-181905215D01*
X193940734Y-181932045D01*
X193922100Y-181957170D01*
X193901093Y-181980347D01*
X193877916Y-182001354D01*
X193852791Y-182019988D01*
X193825961Y-182036069D01*
X193797683Y-182049444D01*
X193768231Y-182059982D01*
X193737888Y-182067582D01*
X193706946Y-182072172D01*
X193675703Y-182073707D01*
X193038203Y-182073707D01*
X193006960Y-182072172D01*
X192976018Y-182067582D01*
X192945675Y-182059982D01*
X192916223Y-182049444D01*
X192887945Y-182036069D01*
X192861115Y-182019988D01*
X192835990Y-182001354D01*
X192812813Y-181980347D01*
X192791806Y-181957170D01*
X192773172Y-181932045D01*
X192757091Y-181905215D01*
X192743716Y-181876937D01*
X192733178Y-181847485D01*
X192725578Y-181817142D01*
X192720988Y-181786200D01*
X192719453Y-181754957D01*
X192719453Y-181042457D01*
X192720988Y-181011214D01*
X192725578Y-180980272D01*
X192733178Y-180949929D01*
X192743716Y-180920477D01*
X192757091Y-180892199D01*
X192773172Y-180865369D01*
X192791806Y-180840244D01*
X192812813Y-180817067D01*
X192835990Y-180796060D01*
X192861115Y-180777426D01*
X192887945Y-180761345D01*
X192916223Y-180747970D01*
X192945675Y-180737432D01*
X192976018Y-180729832D01*
X193006960Y-180725242D01*
X193038203Y-180723707D01*
X193675703Y-180723707D01*
X193706946Y-180725242D01*
X193706946Y-180725242D01*
G37*
D15*
X193356953Y-181398707D03*
D12*
G36*
X192131946Y-180725242D02*
X192162888Y-180729832D01*
X192193231Y-180737432D01*
X192222683Y-180747970D01*
X192250961Y-180761345D01*
X192277791Y-180777426D01*
X192302916Y-180796060D01*
X192326093Y-180817067D01*
X192347100Y-180840244D01*
X192365734Y-180865369D01*
X192381815Y-180892199D01*
X192395190Y-180920477D01*
X192405728Y-180949929D01*
X192413328Y-180980272D01*
X192417918Y-181011214D01*
X192419453Y-181042457D01*
X192419453Y-181754957D01*
X192417918Y-181786200D01*
X192413328Y-181817142D01*
X192405728Y-181847485D01*
X192395190Y-181876937D01*
X192381815Y-181905215D01*
X192365734Y-181932045D01*
X192347100Y-181957170D01*
X192326093Y-181980347D01*
X192302916Y-182001354D01*
X192277791Y-182019988D01*
X192250961Y-182036069D01*
X192222683Y-182049444D01*
X192193231Y-182059982D01*
X192162888Y-182067582D01*
X192131946Y-182072172D01*
X192100703Y-182073707D01*
X191463203Y-182073707D01*
X191431960Y-182072172D01*
X191401018Y-182067582D01*
X191370675Y-182059982D01*
X191341223Y-182049444D01*
X191312945Y-182036069D01*
X191286115Y-182019988D01*
X191260990Y-182001354D01*
X191237813Y-181980347D01*
X191216806Y-181957170D01*
X191198172Y-181932045D01*
X191182091Y-181905215D01*
X191168716Y-181876937D01*
X191158178Y-181847485D01*
X191150578Y-181817142D01*
X191145988Y-181786200D01*
X191144453Y-181754957D01*
X191144453Y-181042457D01*
X191145988Y-181011214D01*
X191150578Y-180980272D01*
X191158178Y-180949929D01*
X191168716Y-180920477D01*
X191182091Y-180892199D01*
X191198172Y-180865369D01*
X191216806Y-180840244D01*
X191237813Y-180817067D01*
X191260990Y-180796060D01*
X191286115Y-180777426D01*
X191312945Y-180761345D01*
X191341223Y-180747970D01*
X191370675Y-180737432D01*
X191401018Y-180729832D01*
X191431960Y-180725242D01*
X191463203Y-180723707D01*
X192100703Y-180723707D01*
X192131946Y-180725242D01*
X192131946Y-180725242D01*
G37*
D15*
X191781953Y-181398707D03*
G04 #@! TD*
D12*
G04 #@! TO.C,R5*
G36*
X180847893Y-199906099D02*
X180878693Y-199911565D01*
X180908808Y-199920023D01*
X180937949Y-199931392D01*
X180965836Y-199945563D01*
X180992200Y-199962399D01*
X181016786Y-199981737D01*
X181039358Y-200003393D01*
X181059699Y-200027157D01*
X181077613Y-200052800D01*
X181092927Y-200080076D01*
X181105494Y-200108721D01*
X181115193Y-200138460D01*
X181121930Y-200169007D01*
X181125641Y-200200066D01*
X181170111Y-200836013D01*
X181170759Y-200867287D01*
X181168339Y-200898474D01*
X181162873Y-200929273D01*
X181154415Y-200959389D01*
X181143046Y-200988530D01*
X181128875Y-201016417D01*
X181112040Y-201042780D01*
X181092701Y-201067367D01*
X181071045Y-201089939D01*
X181047281Y-201110280D01*
X181021638Y-201128194D01*
X180994363Y-201143508D01*
X180965717Y-201156075D01*
X180935978Y-201165774D01*
X180905432Y-201172511D01*
X180874372Y-201176222D01*
X180163608Y-201225923D01*
X180132334Y-201226571D01*
X180101147Y-201224151D01*
X180070347Y-201218685D01*
X180040232Y-201210227D01*
X180011091Y-201198858D01*
X179983204Y-201184687D01*
X179956840Y-201167851D01*
X179932254Y-201148513D01*
X179909682Y-201126857D01*
X179889341Y-201103093D01*
X179871427Y-201077450D01*
X179856113Y-201050174D01*
X179843546Y-201021529D01*
X179833847Y-200991790D01*
X179827110Y-200961243D01*
X179823399Y-200930184D01*
X179778929Y-200294237D01*
X179778281Y-200262963D01*
X179780701Y-200231776D01*
X179786167Y-200200977D01*
X179794625Y-200170861D01*
X179805994Y-200141720D01*
X179820165Y-200113833D01*
X179837000Y-200087470D01*
X179856339Y-200062883D01*
X179877995Y-200040311D01*
X179901759Y-200019970D01*
X179927402Y-200002056D01*
X179954677Y-199986742D01*
X179983323Y-199974175D01*
X180013062Y-199964476D01*
X180043608Y-199957739D01*
X180074668Y-199954028D01*
X180785432Y-199904327D01*
X180816706Y-199903679D01*
X180847893Y-199906099D01*
X180847893Y-199906099D01*
G37*
D15*
X180474520Y-200565125D03*
D12*
G36*
X180957759Y-201477263D02*
X180988559Y-201482729D01*
X181018674Y-201491187D01*
X181047815Y-201502556D01*
X181075702Y-201516727D01*
X181102066Y-201533563D01*
X181126652Y-201552901D01*
X181149224Y-201574557D01*
X181169565Y-201598321D01*
X181187479Y-201623964D01*
X181202793Y-201651240D01*
X181215360Y-201679885D01*
X181225059Y-201709624D01*
X181231796Y-201740171D01*
X181235507Y-201771230D01*
X181279977Y-202407177D01*
X181280625Y-202438451D01*
X181278205Y-202469638D01*
X181272739Y-202500437D01*
X181264281Y-202530553D01*
X181252912Y-202559694D01*
X181238741Y-202587581D01*
X181221906Y-202613944D01*
X181202567Y-202638531D01*
X181180911Y-202661103D01*
X181157147Y-202681444D01*
X181131504Y-202699358D01*
X181104229Y-202714672D01*
X181075583Y-202727239D01*
X181045844Y-202736938D01*
X181015298Y-202743675D01*
X180984238Y-202747386D01*
X180273474Y-202797087D01*
X180242200Y-202797735D01*
X180211013Y-202795315D01*
X180180213Y-202789849D01*
X180150098Y-202781391D01*
X180120957Y-202770022D01*
X180093070Y-202755851D01*
X180066706Y-202739015D01*
X180042120Y-202719677D01*
X180019548Y-202698021D01*
X179999207Y-202674257D01*
X179981293Y-202648614D01*
X179965979Y-202621338D01*
X179953412Y-202592693D01*
X179943713Y-202562954D01*
X179936976Y-202532407D01*
X179933265Y-202501348D01*
X179888795Y-201865401D01*
X179888147Y-201834127D01*
X179890567Y-201802940D01*
X179896033Y-201772141D01*
X179904491Y-201742025D01*
X179915860Y-201712884D01*
X179930031Y-201684997D01*
X179946866Y-201658634D01*
X179966205Y-201634047D01*
X179987861Y-201611475D01*
X180011625Y-201591134D01*
X180037268Y-201573220D01*
X180064543Y-201557906D01*
X180093189Y-201545339D01*
X180122928Y-201535640D01*
X180153474Y-201528903D01*
X180184534Y-201525192D01*
X180895298Y-201475491D01*
X180926572Y-201474843D01*
X180957759Y-201477263D01*
X180957759Y-201477263D01*
G37*
D15*
X180584386Y-202136289D03*
G04 #@! TD*
D12*
G04 #@! TO.C,R6*
G36*
X187704446Y-175577242D02*
X187735388Y-175581832D01*
X187765731Y-175589432D01*
X187795183Y-175599970D01*
X187823461Y-175613345D01*
X187850291Y-175629426D01*
X187875416Y-175648060D01*
X187898593Y-175669067D01*
X187919600Y-175692244D01*
X187938234Y-175717369D01*
X187954315Y-175744199D01*
X187967690Y-175772477D01*
X187978228Y-175801929D01*
X187985828Y-175832272D01*
X187990418Y-175863214D01*
X187991953Y-175894457D01*
X187991953Y-176606957D01*
X187990418Y-176638200D01*
X187985828Y-176669142D01*
X187978228Y-176699485D01*
X187967690Y-176728937D01*
X187954315Y-176757215D01*
X187938234Y-176784045D01*
X187919600Y-176809170D01*
X187898593Y-176832347D01*
X187875416Y-176853354D01*
X187850291Y-176871988D01*
X187823461Y-176888069D01*
X187795183Y-176901444D01*
X187765731Y-176911982D01*
X187735388Y-176919582D01*
X187704446Y-176924172D01*
X187673203Y-176925707D01*
X187035703Y-176925707D01*
X187004460Y-176924172D01*
X186973518Y-176919582D01*
X186943175Y-176911982D01*
X186913723Y-176901444D01*
X186885445Y-176888069D01*
X186858615Y-176871988D01*
X186833490Y-176853354D01*
X186810313Y-176832347D01*
X186789306Y-176809170D01*
X186770672Y-176784045D01*
X186754591Y-176757215D01*
X186741216Y-176728937D01*
X186730678Y-176699485D01*
X186723078Y-176669142D01*
X186718488Y-176638200D01*
X186716953Y-176606957D01*
X186716953Y-175894457D01*
X186718488Y-175863214D01*
X186723078Y-175832272D01*
X186730678Y-175801929D01*
X186741216Y-175772477D01*
X186754591Y-175744199D01*
X186770672Y-175717369D01*
X186789306Y-175692244D01*
X186810313Y-175669067D01*
X186833490Y-175648060D01*
X186858615Y-175629426D01*
X186885445Y-175613345D01*
X186913723Y-175599970D01*
X186943175Y-175589432D01*
X186973518Y-175581832D01*
X187004460Y-175577242D01*
X187035703Y-175575707D01*
X187673203Y-175575707D01*
X187704446Y-175577242D01*
X187704446Y-175577242D01*
G37*
D15*
X187354453Y-176250707D03*
D12*
G36*
X189279446Y-175577242D02*
X189310388Y-175581832D01*
X189340731Y-175589432D01*
X189370183Y-175599970D01*
X189398461Y-175613345D01*
X189425291Y-175629426D01*
X189450416Y-175648060D01*
X189473593Y-175669067D01*
X189494600Y-175692244D01*
X189513234Y-175717369D01*
X189529315Y-175744199D01*
X189542690Y-175772477D01*
X189553228Y-175801929D01*
X189560828Y-175832272D01*
X189565418Y-175863214D01*
X189566953Y-175894457D01*
X189566953Y-176606957D01*
X189565418Y-176638200D01*
X189560828Y-176669142D01*
X189553228Y-176699485D01*
X189542690Y-176728937D01*
X189529315Y-176757215D01*
X189513234Y-176784045D01*
X189494600Y-176809170D01*
X189473593Y-176832347D01*
X189450416Y-176853354D01*
X189425291Y-176871988D01*
X189398461Y-176888069D01*
X189370183Y-176901444D01*
X189340731Y-176911982D01*
X189310388Y-176919582D01*
X189279446Y-176924172D01*
X189248203Y-176925707D01*
X188610703Y-176925707D01*
X188579460Y-176924172D01*
X188548518Y-176919582D01*
X188518175Y-176911982D01*
X188488723Y-176901444D01*
X188460445Y-176888069D01*
X188433615Y-176871988D01*
X188408490Y-176853354D01*
X188385313Y-176832347D01*
X188364306Y-176809170D01*
X188345672Y-176784045D01*
X188329591Y-176757215D01*
X188316216Y-176728937D01*
X188305678Y-176699485D01*
X188298078Y-176669142D01*
X188293488Y-176638200D01*
X188291953Y-176606957D01*
X188291953Y-175894457D01*
X188293488Y-175863214D01*
X188298078Y-175832272D01*
X188305678Y-175801929D01*
X188316216Y-175772477D01*
X188329591Y-175744199D01*
X188345672Y-175717369D01*
X188364306Y-175692244D01*
X188385313Y-175669067D01*
X188408490Y-175648060D01*
X188433615Y-175629426D01*
X188460445Y-175613345D01*
X188488723Y-175599970D01*
X188518175Y-175589432D01*
X188548518Y-175581832D01*
X188579460Y-175577242D01*
X188610703Y-175575707D01*
X189248203Y-175575707D01*
X189279446Y-175577242D01*
X189279446Y-175577242D01*
G37*
D15*
X188929453Y-176250707D03*
G04 #@! TD*
D12*
G04 #@! TO.C,R7*
G36*
X179791946Y-159127242D02*
X179822888Y-159131832D01*
X179853231Y-159139432D01*
X179882683Y-159149970D01*
X179910961Y-159163345D01*
X179937791Y-159179426D01*
X179962916Y-159198060D01*
X179986093Y-159219067D01*
X180007100Y-159242244D01*
X180025734Y-159267369D01*
X180041815Y-159294199D01*
X180055190Y-159322477D01*
X180065728Y-159351929D01*
X180073328Y-159382272D01*
X180077918Y-159413214D01*
X180079453Y-159444457D01*
X180079453Y-160156957D01*
X180077918Y-160188200D01*
X180073328Y-160219142D01*
X180065728Y-160249485D01*
X180055190Y-160278937D01*
X180041815Y-160307215D01*
X180025734Y-160334045D01*
X180007100Y-160359170D01*
X179986093Y-160382347D01*
X179962916Y-160403354D01*
X179937791Y-160421988D01*
X179910961Y-160438069D01*
X179882683Y-160451444D01*
X179853231Y-160461982D01*
X179822888Y-160469582D01*
X179791946Y-160474172D01*
X179760703Y-160475707D01*
X179123203Y-160475707D01*
X179091960Y-160474172D01*
X179061018Y-160469582D01*
X179030675Y-160461982D01*
X179001223Y-160451444D01*
X178972945Y-160438069D01*
X178946115Y-160421988D01*
X178920990Y-160403354D01*
X178897813Y-160382347D01*
X178876806Y-160359170D01*
X178858172Y-160334045D01*
X178842091Y-160307215D01*
X178828716Y-160278937D01*
X178818178Y-160249485D01*
X178810578Y-160219142D01*
X178805988Y-160188200D01*
X178804453Y-160156957D01*
X178804453Y-159444457D01*
X178805988Y-159413214D01*
X178810578Y-159382272D01*
X178818178Y-159351929D01*
X178828716Y-159322477D01*
X178842091Y-159294199D01*
X178858172Y-159267369D01*
X178876806Y-159242244D01*
X178897813Y-159219067D01*
X178920990Y-159198060D01*
X178946115Y-159179426D01*
X178972945Y-159163345D01*
X179001223Y-159149970D01*
X179030675Y-159139432D01*
X179061018Y-159131832D01*
X179091960Y-159127242D01*
X179123203Y-159125707D01*
X179760703Y-159125707D01*
X179791946Y-159127242D01*
X179791946Y-159127242D01*
G37*
D15*
X179441953Y-159800707D03*
D12*
G36*
X181366946Y-159127242D02*
X181397888Y-159131832D01*
X181428231Y-159139432D01*
X181457683Y-159149970D01*
X181485961Y-159163345D01*
X181512791Y-159179426D01*
X181537916Y-159198060D01*
X181561093Y-159219067D01*
X181582100Y-159242244D01*
X181600734Y-159267369D01*
X181616815Y-159294199D01*
X181630190Y-159322477D01*
X181640728Y-159351929D01*
X181648328Y-159382272D01*
X181652918Y-159413214D01*
X181654453Y-159444457D01*
X181654453Y-160156957D01*
X181652918Y-160188200D01*
X181648328Y-160219142D01*
X181640728Y-160249485D01*
X181630190Y-160278937D01*
X181616815Y-160307215D01*
X181600734Y-160334045D01*
X181582100Y-160359170D01*
X181561093Y-160382347D01*
X181537916Y-160403354D01*
X181512791Y-160421988D01*
X181485961Y-160438069D01*
X181457683Y-160451444D01*
X181428231Y-160461982D01*
X181397888Y-160469582D01*
X181366946Y-160474172D01*
X181335703Y-160475707D01*
X180698203Y-160475707D01*
X180666960Y-160474172D01*
X180636018Y-160469582D01*
X180605675Y-160461982D01*
X180576223Y-160451444D01*
X180547945Y-160438069D01*
X180521115Y-160421988D01*
X180495990Y-160403354D01*
X180472813Y-160382347D01*
X180451806Y-160359170D01*
X180433172Y-160334045D01*
X180417091Y-160307215D01*
X180403716Y-160278937D01*
X180393178Y-160249485D01*
X180385578Y-160219142D01*
X180380988Y-160188200D01*
X180379453Y-160156957D01*
X180379453Y-159444457D01*
X180380988Y-159413214D01*
X180385578Y-159382272D01*
X180393178Y-159351929D01*
X180403716Y-159322477D01*
X180417091Y-159294199D01*
X180433172Y-159267369D01*
X180451806Y-159242244D01*
X180472813Y-159219067D01*
X180495990Y-159198060D01*
X180521115Y-159179426D01*
X180547945Y-159163345D01*
X180576223Y-159149970D01*
X180605675Y-159139432D01*
X180636018Y-159131832D01*
X180666960Y-159127242D01*
X180698203Y-159125707D01*
X181335703Y-159125707D01*
X181366946Y-159127242D01*
X181366946Y-159127242D01*
G37*
D15*
X181016953Y-159800707D03*
G04 #@! TD*
D12*
G04 #@! TO.C,R8*
G36*
X195016946Y-138614742D02*
X195047888Y-138619332D01*
X195078231Y-138626932D01*
X195107683Y-138637470D01*
X195135961Y-138650845D01*
X195162791Y-138666926D01*
X195187916Y-138685560D01*
X195211093Y-138706567D01*
X195232100Y-138729744D01*
X195250734Y-138754869D01*
X195266815Y-138781699D01*
X195280190Y-138809977D01*
X195290728Y-138839429D01*
X195298328Y-138869772D01*
X195302918Y-138900714D01*
X195304453Y-138931957D01*
X195304453Y-139569457D01*
X195302918Y-139600700D01*
X195298328Y-139631642D01*
X195290728Y-139661985D01*
X195280190Y-139691437D01*
X195266815Y-139719715D01*
X195250734Y-139746545D01*
X195232100Y-139771670D01*
X195211093Y-139794847D01*
X195187916Y-139815854D01*
X195162791Y-139834488D01*
X195135961Y-139850569D01*
X195107683Y-139863944D01*
X195078231Y-139874482D01*
X195047888Y-139882082D01*
X195016946Y-139886672D01*
X194985703Y-139888207D01*
X194273203Y-139888207D01*
X194241960Y-139886672D01*
X194211018Y-139882082D01*
X194180675Y-139874482D01*
X194151223Y-139863944D01*
X194122945Y-139850569D01*
X194096115Y-139834488D01*
X194070990Y-139815854D01*
X194047813Y-139794847D01*
X194026806Y-139771670D01*
X194008172Y-139746545D01*
X193992091Y-139719715D01*
X193978716Y-139691437D01*
X193968178Y-139661985D01*
X193960578Y-139631642D01*
X193955988Y-139600700D01*
X193954453Y-139569457D01*
X193954453Y-138931957D01*
X193955988Y-138900714D01*
X193960578Y-138869772D01*
X193968178Y-138839429D01*
X193978716Y-138809977D01*
X193992091Y-138781699D01*
X194008172Y-138754869D01*
X194026806Y-138729744D01*
X194047813Y-138706567D01*
X194070990Y-138685560D01*
X194096115Y-138666926D01*
X194122945Y-138650845D01*
X194151223Y-138637470D01*
X194180675Y-138626932D01*
X194211018Y-138619332D01*
X194241960Y-138614742D01*
X194273203Y-138613207D01*
X194985703Y-138613207D01*
X195016946Y-138614742D01*
X195016946Y-138614742D01*
G37*
D15*
X194629453Y-139250707D03*
D12*
G36*
X195016946Y-140189742D02*
X195047888Y-140194332D01*
X195078231Y-140201932D01*
X195107683Y-140212470D01*
X195135961Y-140225845D01*
X195162791Y-140241926D01*
X195187916Y-140260560D01*
X195211093Y-140281567D01*
X195232100Y-140304744D01*
X195250734Y-140329869D01*
X195266815Y-140356699D01*
X195280190Y-140384977D01*
X195290728Y-140414429D01*
X195298328Y-140444772D01*
X195302918Y-140475714D01*
X195304453Y-140506957D01*
X195304453Y-141144457D01*
X195302918Y-141175700D01*
X195298328Y-141206642D01*
X195290728Y-141236985D01*
X195280190Y-141266437D01*
X195266815Y-141294715D01*
X195250734Y-141321545D01*
X195232100Y-141346670D01*
X195211093Y-141369847D01*
X195187916Y-141390854D01*
X195162791Y-141409488D01*
X195135961Y-141425569D01*
X195107683Y-141438944D01*
X195078231Y-141449482D01*
X195047888Y-141457082D01*
X195016946Y-141461672D01*
X194985703Y-141463207D01*
X194273203Y-141463207D01*
X194241960Y-141461672D01*
X194211018Y-141457082D01*
X194180675Y-141449482D01*
X194151223Y-141438944D01*
X194122945Y-141425569D01*
X194096115Y-141409488D01*
X194070990Y-141390854D01*
X194047813Y-141369847D01*
X194026806Y-141346670D01*
X194008172Y-141321545D01*
X193992091Y-141294715D01*
X193978716Y-141266437D01*
X193968178Y-141236985D01*
X193960578Y-141206642D01*
X193955988Y-141175700D01*
X193954453Y-141144457D01*
X193954453Y-140506957D01*
X193955988Y-140475714D01*
X193960578Y-140444772D01*
X193968178Y-140414429D01*
X193978716Y-140384977D01*
X193992091Y-140356699D01*
X194008172Y-140329869D01*
X194026806Y-140304744D01*
X194047813Y-140281567D01*
X194070990Y-140260560D01*
X194096115Y-140241926D01*
X194122945Y-140225845D01*
X194151223Y-140212470D01*
X194180675Y-140201932D01*
X194211018Y-140194332D01*
X194241960Y-140189742D01*
X194273203Y-140188207D01*
X194985703Y-140188207D01*
X195016946Y-140189742D01*
X195016946Y-140189742D01*
G37*
D15*
X194629453Y-140825707D03*
G04 #@! TD*
D12*
G04 #@! TO.C,R9*
G36*
X198016946Y-138627242D02*
X198047888Y-138631832D01*
X198078231Y-138639432D01*
X198107683Y-138649970D01*
X198135961Y-138663345D01*
X198162791Y-138679426D01*
X198187916Y-138698060D01*
X198211093Y-138719067D01*
X198232100Y-138742244D01*
X198250734Y-138767369D01*
X198266815Y-138794199D01*
X198280190Y-138822477D01*
X198290728Y-138851929D01*
X198298328Y-138882272D01*
X198302918Y-138913214D01*
X198304453Y-138944457D01*
X198304453Y-139581957D01*
X198302918Y-139613200D01*
X198298328Y-139644142D01*
X198290728Y-139674485D01*
X198280190Y-139703937D01*
X198266815Y-139732215D01*
X198250734Y-139759045D01*
X198232100Y-139784170D01*
X198211093Y-139807347D01*
X198187916Y-139828354D01*
X198162791Y-139846988D01*
X198135961Y-139863069D01*
X198107683Y-139876444D01*
X198078231Y-139886982D01*
X198047888Y-139894582D01*
X198016946Y-139899172D01*
X197985703Y-139900707D01*
X197273203Y-139900707D01*
X197241960Y-139899172D01*
X197211018Y-139894582D01*
X197180675Y-139886982D01*
X197151223Y-139876444D01*
X197122945Y-139863069D01*
X197096115Y-139846988D01*
X197070990Y-139828354D01*
X197047813Y-139807347D01*
X197026806Y-139784170D01*
X197008172Y-139759045D01*
X196992091Y-139732215D01*
X196978716Y-139703937D01*
X196968178Y-139674485D01*
X196960578Y-139644142D01*
X196955988Y-139613200D01*
X196954453Y-139581957D01*
X196954453Y-138944457D01*
X196955988Y-138913214D01*
X196960578Y-138882272D01*
X196968178Y-138851929D01*
X196978716Y-138822477D01*
X196992091Y-138794199D01*
X197008172Y-138767369D01*
X197026806Y-138742244D01*
X197047813Y-138719067D01*
X197070990Y-138698060D01*
X197096115Y-138679426D01*
X197122945Y-138663345D01*
X197151223Y-138649970D01*
X197180675Y-138639432D01*
X197211018Y-138631832D01*
X197241960Y-138627242D01*
X197273203Y-138625707D01*
X197985703Y-138625707D01*
X198016946Y-138627242D01*
X198016946Y-138627242D01*
G37*
D15*
X197629453Y-139263207D03*
D12*
G36*
X198016946Y-140202242D02*
X198047888Y-140206832D01*
X198078231Y-140214432D01*
X198107683Y-140224970D01*
X198135961Y-140238345D01*
X198162791Y-140254426D01*
X198187916Y-140273060D01*
X198211093Y-140294067D01*
X198232100Y-140317244D01*
X198250734Y-140342369D01*
X198266815Y-140369199D01*
X198280190Y-140397477D01*
X198290728Y-140426929D01*
X198298328Y-140457272D01*
X198302918Y-140488214D01*
X198304453Y-140519457D01*
X198304453Y-141156957D01*
X198302918Y-141188200D01*
X198298328Y-141219142D01*
X198290728Y-141249485D01*
X198280190Y-141278937D01*
X198266815Y-141307215D01*
X198250734Y-141334045D01*
X198232100Y-141359170D01*
X198211093Y-141382347D01*
X198187916Y-141403354D01*
X198162791Y-141421988D01*
X198135961Y-141438069D01*
X198107683Y-141451444D01*
X198078231Y-141461982D01*
X198047888Y-141469582D01*
X198016946Y-141474172D01*
X197985703Y-141475707D01*
X197273203Y-141475707D01*
X197241960Y-141474172D01*
X197211018Y-141469582D01*
X197180675Y-141461982D01*
X197151223Y-141451444D01*
X197122945Y-141438069D01*
X197096115Y-141421988D01*
X197070990Y-141403354D01*
X197047813Y-141382347D01*
X197026806Y-141359170D01*
X197008172Y-141334045D01*
X196992091Y-141307215D01*
X196978716Y-141278937D01*
X196968178Y-141249485D01*
X196960578Y-141219142D01*
X196955988Y-141188200D01*
X196954453Y-141156957D01*
X196954453Y-140519457D01*
X196955988Y-140488214D01*
X196960578Y-140457272D01*
X196968178Y-140426929D01*
X196978716Y-140397477D01*
X196992091Y-140369199D01*
X197008172Y-140342369D01*
X197026806Y-140317244D01*
X197047813Y-140294067D01*
X197070990Y-140273060D01*
X197096115Y-140254426D01*
X197122945Y-140238345D01*
X197151223Y-140224970D01*
X197180675Y-140214432D01*
X197211018Y-140206832D01*
X197241960Y-140202242D01*
X197273203Y-140200707D01*
X197985703Y-140200707D01*
X198016946Y-140202242D01*
X198016946Y-140202242D01*
G37*
D15*
X197629453Y-140838207D03*
G04 #@! TD*
D12*
G04 #@! TO.C,R10*
G36*
X192157446Y-183519242D02*
X192188388Y-183523832D01*
X192218731Y-183531432D01*
X192248183Y-183541970D01*
X192276461Y-183555345D01*
X192303291Y-183571426D01*
X192328416Y-183590060D01*
X192351593Y-183611067D01*
X192372600Y-183634244D01*
X192391234Y-183659369D01*
X192407315Y-183686199D01*
X192420690Y-183714477D01*
X192431228Y-183743929D01*
X192438828Y-183774272D01*
X192443418Y-183805214D01*
X192444953Y-183836457D01*
X192444953Y-184548957D01*
X192443418Y-184580200D01*
X192438828Y-184611142D01*
X192431228Y-184641485D01*
X192420690Y-184670937D01*
X192407315Y-184699215D01*
X192391234Y-184726045D01*
X192372600Y-184751170D01*
X192351593Y-184774347D01*
X192328416Y-184795354D01*
X192303291Y-184813988D01*
X192276461Y-184830069D01*
X192248183Y-184843444D01*
X192218731Y-184853982D01*
X192188388Y-184861582D01*
X192157446Y-184866172D01*
X192126203Y-184867707D01*
X191488703Y-184867707D01*
X191457460Y-184866172D01*
X191426518Y-184861582D01*
X191396175Y-184853982D01*
X191366723Y-184843444D01*
X191338445Y-184830069D01*
X191311615Y-184813988D01*
X191286490Y-184795354D01*
X191263313Y-184774347D01*
X191242306Y-184751170D01*
X191223672Y-184726045D01*
X191207591Y-184699215D01*
X191194216Y-184670937D01*
X191183678Y-184641485D01*
X191176078Y-184611142D01*
X191171488Y-184580200D01*
X191169953Y-184548957D01*
X191169953Y-183836457D01*
X191171488Y-183805214D01*
X191176078Y-183774272D01*
X191183678Y-183743929D01*
X191194216Y-183714477D01*
X191207591Y-183686199D01*
X191223672Y-183659369D01*
X191242306Y-183634244D01*
X191263313Y-183611067D01*
X191286490Y-183590060D01*
X191311615Y-183571426D01*
X191338445Y-183555345D01*
X191366723Y-183541970D01*
X191396175Y-183531432D01*
X191426518Y-183523832D01*
X191457460Y-183519242D01*
X191488703Y-183517707D01*
X192126203Y-183517707D01*
X192157446Y-183519242D01*
X192157446Y-183519242D01*
G37*
D15*
X191807453Y-184192707D03*
D12*
G36*
X193732446Y-183519242D02*
X193763388Y-183523832D01*
X193793731Y-183531432D01*
X193823183Y-183541970D01*
X193851461Y-183555345D01*
X193878291Y-183571426D01*
X193903416Y-183590060D01*
X193926593Y-183611067D01*
X193947600Y-183634244D01*
X193966234Y-183659369D01*
X193982315Y-183686199D01*
X193995690Y-183714477D01*
X194006228Y-183743929D01*
X194013828Y-183774272D01*
X194018418Y-183805214D01*
X194019953Y-183836457D01*
X194019953Y-184548957D01*
X194018418Y-184580200D01*
X194013828Y-184611142D01*
X194006228Y-184641485D01*
X193995690Y-184670937D01*
X193982315Y-184699215D01*
X193966234Y-184726045D01*
X193947600Y-184751170D01*
X193926593Y-184774347D01*
X193903416Y-184795354D01*
X193878291Y-184813988D01*
X193851461Y-184830069D01*
X193823183Y-184843444D01*
X193793731Y-184853982D01*
X193763388Y-184861582D01*
X193732446Y-184866172D01*
X193701203Y-184867707D01*
X193063703Y-184867707D01*
X193032460Y-184866172D01*
X193001518Y-184861582D01*
X192971175Y-184853982D01*
X192941723Y-184843444D01*
X192913445Y-184830069D01*
X192886615Y-184813988D01*
X192861490Y-184795354D01*
X192838313Y-184774347D01*
X192817306Y-184751170D01*
X192798672Y-184726045D01*
X192782591Y-184699215D01*
X192769216Y-184670937D01*
X192758678Y-184641485D01*
X192751078Y-184611142D01*
X192746488Y-184580200D01*
X192744953Y-184548957D01*
X192744953Y-183836457D01*
X192746488Y-183805214D01*
X192751078Y-183774272D01*
X192758678Y-183743929D01*
X192769216Y-183714477D01*
X192782591Y-183686199D01*
X192798672Y-183659369D01*
X192817306Y-183634244D01*
X192838313Y-183611067D01*
X192861490Y-183590060D01*
X192886615Y-183571426D01*
X192913445Y-183555345D01*
X192941723Y-183541970D01*
X192971175Y-183531432D01*
X193001518Y-183523832D01*
X193032460Y-183519242D01*
X193063703Y-183517707D01*
X193701203Y-183517707D01*
X193732446Y-183519242D01*
X193732446Y-183519242D01*
G37*
D15*
X193382453Y-184192707D03*
G04 #@! TD*
D12*
G04 #@! TO.C,R11*
G36*
X195150642Y-194782542D02*
X195181532Y-194787469D01*
X195211791Y-194795400D01*
X195241126Y-194806258D01*
X195269256Y-194819940D01*
X195295909Y-194836313D01*
X195320829Y-194855220D01*
X195343776Y-194876479D01*
X195364529Y-194899884D01*
X195382888Y-194925210D01*
X195398676Y-194952215D01*
X195411741Y-194980636D01*
X195421957Y-195010201D01*
X195429226Y-195040626D01*
X195433478Y-195071616D01*
X195495576Y-195781404D01*
X195496770Y-195812662D01*
X195494894Y-195843886D01*
X195489967Y-195874777D01*
X195482036Y-195905035D01*
X195471177Y-195934371D01*
X195457496Y-195962500D01*
X195441122Y-195989154D01*
X195422216Y-196014074D01*
X195400957Y-196037021D01*
X195377552Y-196057773D01*
X195352225Y-196076132D01*
X195325221Y-196091920D01*
X195296800Y-196104985D01*
X195267234Y-196115201D01*
X195236810Y-196122470D01*
X195205820Y-196126722D01*
X194570746Y-196182284D01*
X194539488Y-196183478D01*
X194508264Y-196181602D01*
X194477374Y-196176675D01*
X194447115Y-196168744D01*
X194417780Y-196157886D01*
X194389650Y-196144204D01*
X194362997Y-196127831D01*
X194338077Y-196108924D01*
X194315130Y-196087665D01*
X194294377Y-196064260D01*
X194276018Y-196038934D01*
X194260230Y-196011929D01*
X194247165Y-195983508D01*
X194236949Y-195953943D01*
X194229680Y-195923518D01*
X194225428Y-195892528D01*
X194163330Y-195182740D01*
X194162136Y-195151482D01*
X194164012Y-195120258D01*
X194168939Y-195089367D01*
X194176870Y-195059109D01*
X194187729Y-195029773D01*
X194201410Y-195001644D01*
X194217784Y-194974990D01*
X194236690Y-194950070D01*
X194257949Y-194927123D01*
X194281354Y-194906371D01*
X194306681Y-194888012D01*
X194333685Y-194872224D01*
X194362106Y-194859159D01*
X194391672Y-194848943D01*
X194422096Y-194841674D01*
X194453086Y-194837422D01*
X195088160Y-194781860D01*
X195119418Y-194780666D01*
X195150642Y-194782542D01*
X195150642Y-194782542D01*
G37*
D15*
X194829453Y-195482072D03*
D12*
G36*
X193581636Y-194919812D02*
X193612526Y-194924739D01*
X193642785Y-194932670D01*
X193672120Y-194943528D01*
X193700250Y-194957210D01*
X193726903Y-194973583D01*
X193751823Y-194992490D01*
X193774770Y-195013749D01*
X193795523Y-195037154D01*
X193813882Y-195062480D01*
X193829670Y-195089485D01*
X193842735Y-195117906D01*
X193852951Y-195147471D01*
X193860220Y-195177896D01*
X193864472Y-195208886D01*
X193926570Y-195918674D01*
X193927764Y-195949932D01*
X193925888Y-195981156D01*
X193920961Y-196012047D01*
X193913030Y-196042305D01*
X193902171Y-196071641D01*
X193888490Y-196099770D01*
X193872116Y-196126424D01*
X193853210Y-196151344D01*
X193831951Y-196174291D01*
X193808546Y-196195043D01*
X193783219Y-196213402D01*
X193756215Y-196229190D01*
X193727794Y-196242255D01*
X193698228Y-196252471D01*
X193667804Y-196259740D01*
X193636814Y-196263992D01*
X193001740Y-196319554D01*
X192970482Y-196320748D01*
X192939258Y-196318872D01*
X192908368Y-196313945D01*
X192878109Y-196306014D01*
X192848774Y-196295156D01*
X192820644Y-196281474D01*
X192793991Y-196265101D01*
X192769071Y-196246194D01*
X192746124Y-196224935D01*
X192725371Y-196201530D01*
X192707012Y-196176204D01*
X192691224Y-196149199D01*
X192678159Y-196120778D01*
X192667943Y-196091213D01*
X192660674Y-196060788D01*
X192656422Y-196029798D01*
X192594324Y-195320010D01*
X192593130Y-195288752D01*
X192595006Y-195257528D01*
X192599933Y-195226637D01*
X192607864Y-195196379D01*
X192618723Y-195167043D01*
X192632404Y-195138914D01*
X192648778Y-195112260D01*
X192667684Y-195087340D01*
X192688943Y-195064393D01*
X192712348Y-195043641D01*
X192737675Y-195025282D01*
X192764679Y-195009494D01*
X192793100Y-194996429D01*
X192822666Y-194986213D01*
X192853090Y-194978944D01*
X192884080Y-194974692D01*
X193519154Y-194919130D01*
X193550412Y-194917936D01*
X193581636Y-194919812D01*
X193581636Y-194919812D01*
G37*
D15*
X193260447Y-195619342D03*
G04 #@! TD*
D12*
G04 #@! TO.C,R12*
G36*
X191016946Y-171514742D02*
X191047888Y-171519332D01*
X191078231Y-171526932D01*
X191107683Y-171537470D01*
X191135961Y-171550845D01*
X191162791Y-171566926D01*
X191187916Y-171585560D01*
X191211093Y-171606567D01*
X191232100Y-171629744D01*
X191250734Y-171654869D01*
X191266815Y-171681699D01*
X191280190Y-171709977D01*
X191290728Y-171739429D01*
X191298328Y-171769772D01*
X191302918Y-171800714D01*
X191304453Y-171831957D01*
X191304453Y-172469457D01*
X191302918Y-172500700D01*
X191298328Y-172531642D01*
X191290728Y-172561985D01*
X191280190Y-172591437D01*
X191266815Y-172619715D01*
X191250734Y-172646545D01*
X191232100Y-172671670D01*
X191211093Y-172694847D01*
X191187916Y-172715854D01*
X191162791Y-172734488D01*
X191135961Y-172750569D01*
X191107683Y-172763944D01*
X191078231Y-172774482D01*
X191047888Y-172782082D01*
X191016946Y-172786672D01*
X190985703Y-172788207D01*
X190273203Y-172788207D01*
X190241960Y-172786672D01*
X190211018Y-172782082D01*
X190180675Y-172774482D01*
X190151223Y-172763944D01*
X190122945Y-172750569D01*
X190096115Y-172734488D01*
X190070990Y-172715854D01*
X190047813Y-172694847D01*
X190026806Y-172671670D01*
X190008172Y-172646545D01*
X189992091Y-172619715D01*
X189978716Y-172591437D01*
X189968178Y-172561985D01*
X189960578Y-172531642D01*
X189955988Y-172500700D01*
X189954453Y-172469457D01*
X189954453Y-171831957D01*
X189955988Y-171800714D01*
X189960578Y-171769772D01*
X189968178Y-171739429D01*
X189978716Y-171709977D01*
X189992091Y-171681699D01*
X190008172Y-171654869D01*
X190026806Y-171629744D01*
X190047813Y-171606567D01*
X190070990Y-171585560D01*
X190096115Y-171566926D01*
X190122945Y-171550845D01*
X190151223Y-171537470D01*
X190180675Y-171526932D01*
X190211018Y-171519332D01*
X190241960Y-171514742D01*
X190273203Y-171513207D01*
X190985703Y-171513207D01*
X191016946Y-171514742D01*
X191016946Y-171514742D01*
G37*
D15*
X190629453Y-172150707D03*
D12*
G36*
X191016946Y-173089742D02*
X191047888Y-173094332D01*
X191078231Y-173101932D01*
X191107683Y-173112470D01*
X191135961Y-173125845D01*
X191162791Y-173141926D01*
X191187916Y-173160560D01*
X191211093Y-173181567D01*
X191232100Y-173204744D01*
X191250734Y-173229869D01*
X191266815Y-173256699D01*
X191280190Y-173284977D01*
X191290728Y-173314429D01*
X191298328Y-173344772D01*
X191302918Y-173375714D01*
X191304453Y-173406957D01*
X191304453Y-174044457D01*
X191302918Y-174075700D01*
X191298328Y-174106642D01*
X191290728Y-174136985D01*
X191280190Y-174166437D01*
X191266815Y-174194715D01*
X191250734Y-174221545D01*
X191232100Y-174246670D01*
X191211093Y-174269847D01*
X191187916Y-174290854D01*
X191162791Y-174309488D01*
X191135961Y-174325569D01*
X191107683Y-174338944D01*
X191078231Y-174349482D01*
X191047888Y-174357082D01*
X191016946Y-174361672D01*
X190985703Y-174363207D01*
X190273203Y-174363207D01*
X190241960Y-174361672D01*
X190211018Y-174357082D01*
X190180675Y-174349482D01*
X190151223Y-174338944D01*
X190122945Y-174325569D01*
X190096115Y-174309488D01*
X190070990Y-174290854D01*
X190047813Y-174269847D01*
X190026806Y-174246670D01*
X190008172Y-174221545D01*
X189992091Y-174194715D01*
X189978716Y-174166437D01*
X189968178Y-174136985D01*
X189960578Y-174106642D01*
X189955988Y-174075700D01*
X189954453Y-174044457D01*
X189954453Y-173406957D01*
X189955988Y-173375714D01*
X189960578Y-173344772D01*
X189968178Y-173314429D01*
X189978716Y-173284977D01*
X189992091Y-173256699D01*
X190008172Y-173229869D01*
X190026806Y-173204744D01*
X190047813Y-173181567D01*
X190070990Y-173160560D01*
X190096115Y-173141926D01*
X190122945Y-173125845D01*
X190151223Y-173112470D01*
X190180675Y-173101932D01*
X190211018Y-173094332D01*
X190241960Y-173089742D01*
X190273203Y-173088207D01*
X190985703Y-173088207D01*
X191016946Y-173089742D01*
X191016946Y-173089742D01*
G37*
D15*
X190629453Y-173725707D03*
G04 #@! TD*
D12*
G04 #@! TO.C,R13*
G36*
X189316946Y-173102242D02*
X189347888Y-173106832D01*
X189378231Y-173114432D01*
X189407683Y-173124970D01*
X189435961Y-173138345D01*
X189462791Y-173154426D01*
X189487916Y-173173060D01*
X189511093Y-173194067D01*
X189532100Y-173217244D01*
X189550734Y-173242369D01*
X189566815Y-173269199D01*
X189580190Y-173297477D01*
X189590728Y-173326929D01*
X189598328Y-173357272D01*
X189602918Y-173388214D01*
X189604453Y-173419457D01*
X189604453Y-174056957D01*
X189602918Y-174088200D01*
X189598328Y-174119142D01*
X189590728Y-174149485D01*
X189580190Y-174178937D01*
X189566815Y-174207215D01*
X189550734Y-174234045D01*
X189532100Y-174259170D01*
X189511093Y-174282347D01*
X189487916Y-174303354D01*
X189462791Y-174321988D01*
X189435961Y-174338069D01*
X189407683Y-174351444D01*
X189378231Y-174361982D01*
X189347888Y-174369582D01*
X189316946Y-174374172D01*
X189285703Y-174375707D01*
X188573203Y-174375707D01*
X188541960Y-174374172D01*
X188511018Y-174369582D01*
X188480675Y-174361982D01*
X188451223Y-174351444D01*
X188422945Y-174338069D01*
X188396115Y-174321988D01*
X188370990Y-174303354D01*
X188347813Y-174282347D01*
X188326806Y-174259170D01*
X188308172Y-174234045D01*
X188292091Y-174207215D01*
X188278716Y-174178937D01*
X188268178Y-174149485D01*
X188260578Y-174119142D01*
X188255988Y-174088200D01*
X188254453Y-174056957D01*
X188254453Y-173419457D01*
X188255988Y-173388214D01*
X188260578Y-173357272D01*
X188268178Y-173326929D01*
X188278716Y-173297477D01*
X188292091Y-173269199D01*
X188308172Y-173242369D01*
X188326806Y-173217244D01*
X188347813Y-173194067D01*
X188370990Y-173173060D01*
X188396115Y-173154426D01*
X188422945Y-173138345D01*
X188451223Y-173124970D01*
X188480675Y-173114432D01*
X188511018Y-173106832D01*
X188541960Y-173102242D01*
X188573203Y-173100707D01*
X189285703Y-173100707D01*
X189316946Y-173102242D01*
X189316946Y-173102242D01*
G37*
D15*
X188929453Y-173738207D03*
D12*
G36*
X189316946Y-171527242D02*
X189347888Y-171531832D01*
X189378231Y-171539432D01*
X189407683Y-171549970D01*
X189435961Y-171563345D01*
X189462791Y-171579426D01*
X189487916Y-171598060D01*
X189511093Y-171619067D01*
X189532100Y-171642244D01*
X189550734Y-171667369D01*
X189566815Y-171694199D01*
X189580190Y-171722477D01*
X189590728Y-171751929D01*
X189598328Y-171782272D01*
X189602918Y-171813214D01*
X189604453Y-171844457D01*
X189604453Y-172481957D01*
X189602918Y-172513200D01*
X189598328Y-172544142D01*
X189590728Y-172574485D01*
X189580190Y-172603937D01*
X189566815Y-172632215D01*
X189550734Y-172659045D01*
X189532100Y-172684170D01*
X189511093Y-172707347D01*
X189487916Y-172728354D01*
X189462791Y-172746988D01*
X189435961Y-172763069D01*
X189407683Y-172776444D01*
X189378231Y-172786982D01*
X189347888Y-172794582D01*
X189316946Y-172799172D01*
X189285703Y-172800707D01*
X188573203Y-172800707D01*
X188541960Y-172799172D01*
X188511018Y-172794582D01*
X188480675Y-172786982D01*
X188451223Y-172776444D01*
X188422945Y-172763069D01*
X188396115Y-172746988D01*
X188370990Y-172728354D01*
X188347813Y-172707347D01*
X188326806Y-172684170D01*
X188308172Y-172659045D01*
X188292091Y-172632215D01*
X188278716Y-172603937D01*
X188268178Y-172574485D01*
X188260578Y-172544142D01*
X188255988Y-172513200D01*
X188254453Y-172481957D01*
X188254453Y-171844457D01*
X188255988Y-171813214D01*
X188260578Y-171782272D01*
X188268178Y-171751929D01*
X188278716Y-171722477D01*
X188292091Y-171694199D01*
X188308172Y-171667369D01*
X188326806Y-171642244D01*
X188347813Y-171619067D01*
X188370990Y-171598060D01*
X188396115Y-171579426D01*
X188422945Y-171563345D01*
X188451223Y-171549970D01*
X188480675Y-171539432D01*
X188511018Y-171531832D01*
X188541960Y-171527242D01*
X188573203Y-171525707D01*
X189285703Y-171525707D01*
X189316946Y-171527242D01*
X189316946Y-171527242D01*
G37*
D15*
X188929453Y-172163207D03*
G04 #@! TD*
D12*
G04 #@! TO.C,R14*
G36*
X194116946Y-169239742D02*
X194147888Y-169244332D01*
X194178231Y-169251932D01*
X194207683Y-169262470D01*
X194235961Y-169275845D01*
X194262791Y-169291926D01*
X194287916Y-169310560D01*
X194311093Y-169331567D01*
X194332100Y-169354744D01*
X194350734Y-169379869D01*
X194366815Y-169406699D01*
X194380190Y-169434977D01*
X194390728Y-169464429D01*
X194398328Y-169494772D01*
X194402918Y-169525714D01*
X194404453Y-169556957D01*
X194404453Y-170194457D01*
X194402918Y-170225700D01*
X194398328Y-170256642D01*
X194390728Y-170286985D01*
X194380190Y-170316437D01*
X194366815Y-170344715D01*
X194350734Y-170371545D01*
X194332100Y-170396670D01*
X194311093Y-170419847D01*
X194287916Y-170440854D01*
X194262791Y-170459488D01*
X194235961Y-170475569D01*
X194207683Y-170488944D01*
X194178231Y-170499482D01*
X194147888Y-170507082D01*
X194116946Y-170511672D01*
X194085703Y-170513207D01*
X193373203Y-170513207D01*
X193341960Y-170511672D01*
X193311018Y-170507082D01*
X193280675Y-170499482D01*
X193251223Y-170488944D01*
X193222945Y-170475569D01*
X193196115Y-170459488D01*
X193170990Y-170440854D01*
X193147813Y-170419847D01*
X193126806Y-170396670D01*
X193108172Y-170371545D01*
X193092091Y-170344715D01*
X193078716Y-170316437D01*
X193068178Y-170286985D01*
X193060578Y-170256642D01*
X193055988Y-170225700D01*
X193054453Y-170194457D01*
X193054453Y-169556957D01*
X193055988Y-169525714D01*
X193060578Y-169494772D01*
X193068178Y-169464429D01*
X193078716Y-169434977D01*
X193092091Y-169406699D01*
X193108172Y-169379869D01*
X193126806Y-169354744D01*
X193147813Y-169331567D01*
X193170990Y-169310560D01*
X193196115Y-169291926D01*
X193222945Y-169275845D01*
X193251223Y-169262470D01*
X193280675Y-169251932D01*
X193311018Y-169244332D01*
X193341960Y-169239742D01*
X193373203Y-169238207D01*
X194085703Y-169238207D01*
X194116946Y-169239742D01*
X194116946Y-169239742D01*
G37*
D15*
X193729453Y-169875707D03*
D12*
G36*
X194116946Y-170814742D02*
X194147888Y-170819332D01*
X194178231Y-170826932D01*
X194207683Y-170837470D01*
X194235961Y-170850845D01*
X194262791Y-170866926D01*
X194287916Y-170885560D01*
X194311093Y-170906567D01*
X194332100Y-170929744D01*
X194350734Y-170954869D01*
X194366815Y-170981699D01*
X194380190Y-171009977D01*
X194390728Y-171039429D01*
X194398328Y-171069772D01*
X194402918Y-171100714D01*
X194404453Y-171131957D01*
X194404453Y-171769457D01*
X194402918Y-171800700D01*
X194398328Y-171831642D01*
X194390728Y-171861985D01*
X194380190Y-171891437D01*
X194366815Y-171919715D01*
X194350734Y-171946545D01*
X194332100Y-171971670D01*
X194311093Y-171994847D01*
X194287916Y-172015854D01*
X194262791Y-172034488D01*
X194235961Y-172050569D01*
X194207683Y-172063944D01*
X194178231Y-172074482D01*
X194147888Y-172082082D01*
X194116946Y-172086672D01*
X194085703Y-172088207D01*
X193373203Y-172088207D01*
X193341960Y-172086672D01*
X193311018Y-172082082D01*
X193280675Y-172074482D01*
X193251223Y-172063944D01*
X193222945Y-172050569D01*
X193196115Y-172034488D01*
X193170990Y-172015854D01*
X193147813Y-171994847D01*
X193126806Y-171971670D01*
X193108172Y-171946545D01*
X193092091Y-171919715D01*
X193078716Y-171891437D01*
X193068178Y-171861985D01*
X193060578Y-171831642D01*
X193055988Y-171800700D01*
X193054453Y-171769457D01*
X193054453Y-171131957D01*
X193055988Y-171100714D01*
X193060578Y-171069772D01*
X193068178Y-171039429D01*
X193078716Y-171009977D01*
X193092091Y-170981699D01*
X193108172Y-170954869D01*
X193126806Y-170929744D01*
X193147813Y-170906567D01*
X193170990Y-170885560D01*
X193196115Y-170866926D01*
X193222945Y-170850845D01*
X193251223Y-170837470D01*
X193280675Y-170826932D01*
X193311018Y-170819332D01*
X193341960Y-170814742D01*
X193373203Y-170813207D01*
X194085703Y-170813207D01*
X194116946Y-170814742D01*
X194116946Y-170814742D01*
G37*
D15*
X193729453Y-171450707D03*
G04 #@! TD*
D22*
G04 #@! TO.C,U1*
X189546711Y-191109193D03*
D12*
G36*
X188980038Y-190327779D02*
X190028599Y-190272827D01*
X190113384Y-191890607D01*
X189064823Y-191945559D01*
X188980038Y-190327779D01*
X188980038Y-190327779D01*
G37*
D22*
X187649315Y-191208631D03*
D12*
G36*
X187082642Y-190427217D02*
X188131203Y-190372265D01*
X188215988Y-191990045D01*
X187167427Y-192044997D01*
X187082642Y-190427217D01*
X187082642Y-190427217D01*
G37*
D22*
X187512195Y-188592221D03*
D12*
G36*
X186945522Y-187810807D02*
X187994083Y-187755855D01*
X188078868Y-189373635D01*
X187030307Y-189428587D01*
X186945522Y-187810807D01*
X186945522Y-187810807D01*
G37*
D22*
X188460893Y-188542502D03*
D12*
G36*
X187894220Y-187761088D02*
X188942781Y-187706136D01*
X189027566Y-189323916D01*
X187979005Y-189378868D01*
X187894220Y-187761088D01*
X187894220Y-187761088D01*
G37*
D22*
X189409591Y-188492783D03*
D12*
G36*
X188842918Y-187711369D02*
X189891479Y-187656417D01*
X189976264Y-189274197D01*
X188927703Y-189329149D01*
X188842918Y-187711369D01*
X188842918Y-187711369D01*
G37*
G04 #@! TD*
D22*
G04 #@! TO.C,U3*
X187162195Y-182892221D03*
D12*
G36*
X187728868Y-183673635D02*
X186680307Y-183728587D01*
X186595522Y-182110807D01*
X187644083Y-182055855D01*
X187728868Y-183673635D01*
X187728868Y-183673635D01*
G37*
D22*
X189059591Y-182792783D03*
D12*
G36*
X189626264Y-183574197D02*
X188577703Y-183629149D01*
X188492918Y-182011369D01*
X189541479Y-181956417D01*
X189626264Y-183574197D01*
X189626264Y-183574197D01*
G37*
D22*
X189196711Y-185409193D03*
D12*
G36*
X189763384Y-186190607D02*
X188714823Y-186245559D01*
X188630038Y-184627779D01*
X189678599Y-184572827D01*
X189763384Y-186190607D01*
X189763384Y-186190607D01*
G37*
D22*
X188248013Y-185458912D03*
D12*
G36*
X188814686Y-186240326D02*
X187766125Y-186295278D01*
X187681340Y-184677498D01*
X188729901Y-184622546D01*
X188814686Y-186240326D01*
X188814686Y-186240326D01*
G37*
D22*
X187299315Y-185508631D03*
D12*
G36*
X187865988Y-186290045D02*
X186817427Y-186344997D01*
X186732642Y-184727217D01*
X187781203Y-184672265D01*
X187865988Y-186290045D01*
X187865988Y-186290045D01*
G37*
G04 #@! TD*
D23*
G04 #@! TO.C,U4*
X196866638Y-156980571D03*
D12*
G36*
X196865898Y-156171853D02*
X197567378Y-156576853D01*
X196867378Y-157789289D01*
X196165898Y-157384289D01*
X196865898Y-156171853D01*
X196865898Y-156171853D01*
G37*
D23*
X196199798Y-156595571D03*
D12*
G36*
X196199058Y-155786853D02*
X196900538Y-156191853D01*
X196200538Y-157404289D01*
X195499058Y-156999289D01*
X196199058Y-155786853D01*
X196199058Y-155786853D01*
G37*
D23*
X195541619Y-156215571D03*
D12*
G36*
X195540879Y-155406853D02*
X196242359Y-155811853D01*
X195542359Y-157024289D01*
X194840879Y-156619289D01*
X195540879Y-155406853D01*
X195540879Y-155406853D01*
G37*
D23*
X194883440Y-155835571D03*
D12*
G36*
X194882700Y-155026853D02*
X195584180Y-155431853D01*
X194884180Y-156644289D01*
X194182700Y-156239289D01*
X194882700Y-155026853D01*
X194882700Y-155026853D01*
G37*
D23*
X194225260Y-155455571D03*
D12*
G36*
X194224520Y-154646853D02*
X194926000Y-155051853D01*
X194226000Y-156264289D01*
X193524520Y-155859289D01*
X194224520Y-154646853D01*
X194224520Y-154646853D01*
G37*
D23*
X190126832Y-152454257D03*
D12*
G36*
X189318114Y-152454997D02*
X189723114Y-151753517D01*
X190935550Y-152453517D01*
X190530550Y-153154997D01*
X189318114Y-152454997D01*
X189318114Y-152454997D01*
G37*
D23*
X190506832Y-151796078D03*
D12*
G36*
X189698114Y-151796818D02*
X190103114Y-151095338D01*
X191315550Y-151795338D01*
X190910550Y-152496818D01*
X189698114Y-151796818D01*
X189698114Y-151796818D01*
G37*
D23*
X190891832Y-151129238D03*
D12*
G36*
X190083114Y-151129978D02*
X190488114Y-150428498D01*
X191700550Y-151128498D01*
X191295550Y-151829978D01*
X190083114Y-151129978D01*
X190083114Y-151129978D01*
G37*
D23*
X191271832Y-150471059D03*
D12*
G36*
X190463114Y-150471799D02*
X190868114Y-149770319D01*
X192080550Y-150470319D01*
X191675550Y-151171799D01*
X190463114Y-150471799D01*
X190463114Y-150471799D01*
G37*
D23*
X191651832Y-149812880D03*
D12*
G36*
X190843114Y-149813620D02*
X191248114Y-149112140D01*
X192460550Y-149812140D01*
X192055550Y-150513620D01*
X190843114Y-149813620D01*
X190843114Y-149813620D01*
G37*
D23*
X192031832Y-149154700D03*
D12*
G36*
X191223114Y-149155440D02*
X191628114Y-148453960D01*
X192840550Y-149153960D01*
X192435550Y-149855440D01*
X191223114Y-149155440D01*
X191223114Y-149155440D01*
G37*
D23*
X192411832Y-148496521D03*
D12*
G36*
X191603114Y-148497261D02*
X192008114Y-147795781D01*
X193220550Y-148495781D01*
X192815550Y-149197261D01*
X191603114Y-148497261D01*
X191603114Y-148497261D01*
G37*
D23*
X192796832Y-147829682D03*
D12*
G36*
X191988114Y-147830422D02*
X192393114Y-147128942D01*
X193605550Y-147828942D01*
X193200550Y-148530422D01*
X191988114Y-147830422D01*
X191988114Y-147830422D01*
G37*
D23*
X193176832Y-147171502D03*
D12*
G36*
X192368114Y-147172242D02*
X192773114Y-146470762D01*
X193985550Y-147170762D01*
X193580550Y-147872242D01*
X192368114Y-147172242D01*
X192368114Y-147172242D01*
G37*
D23*
X193556832Y-146513323D03*
D12*
G36*
X192748114Y-146514063D02*
X193153114Y-145812583D01*
X194365550Y-146512583D01*
X193960550Y-147214063D01*
X192748114Y-146514063D01*
X192748114Y-146514063D01*
G37*
D23*
X193936832Y-145855144D03*
D12*
G36*
X193128114Y-145855884D02*
X193533114Y-145154404D01*
X194745550Y-145854404D01*
X194340550Y-146555884D01*
X193128114Y-145855884D01*
X193128114Y-145855884D01*
G37*
D23*
X194316832Y-145196964D03*
D12*
G36*
X193508114Y-145197704D02*
X193913114Y-144496224D01*
X195125550Y-145196224D01*
X194720550Y-145897704D01*
X193508114Y-145197704D01*
X193508114Y-145197704D01*
G37*
D23*
X195670703Y-145331990D03*
D12*
G36*
X195669963Y-144523272D02*
X196371443Y-144928272D01*
X195671443Y-146140708D01*
X194969963Y-145735708D01*
X195669963Y-144523272D01*
X195669963Y-144523272D01*
G37*
D23*
X196328883Y-145711990D03*
D12*
G36*
X196328143Y-144903272D02*
X197029623Y-145308272D01*
X196329623Y-146520708D01*
X195628143Y-146115708D01*
X196328143Y-144903272D01*
X196328143Y-144903272D01*
G37*
D23*
X196987062Y-146091990D03*
D12*
G36*
X196986322Y-145283272D02*
X197687802Y-145688272D01*
X196987802Y-146900708D01*
X196286322Y-146495708D01*
X196986322Y-145283272D01*
X196986322Y-145283272D01*
G37*
D23*
X197645241Y-146471990D03*
D12*
G36*
X197644501Y-145663272D02*
X198345981Y-146068272D01*
X197645981Y-147280708D01*
X196944501Y-146875708D01*
X197644501Y-145663272D01*
X197644501Y-145663272D01*
G37*
D23*
X193567081Y-155075571D03*
D12*
G36*
X193566341Y-154266853D02*
X194267821Y-154671853D01*
X193567821Y-155884289D01*
X192866341Y-155479289D01*
X193566341Y-154266853D01*
X193566341Y-154266853D01*
G37*
G04 #@! TD*
D24*
G04 #@! TO.C,U5*
X192979453Y-188000707D03*
D12*
G36*
X194153506Y-189021295D02*
X191958865Y-189174760D01*
X191805400Y-186980119D01*
X194000041Y-186826654D01*
X194153506Y-189021295D01*
X194153506Y-189021295D01*
G37*
D25*
X192287741Y-186695780D03*
D12*
G36*
X192892731Y-187104574D02*
X191745532Y-187184794D01*
X191682751Y-186286986D01*
X192829950Y-186206766D01*
X192892731Y-187104574D01*
X192892731Y-187104574D01*
G37*
D26*
X193060853Y-186641718D03*
D12*
G36*
X192693218Y-187118524D02*
X192630437Y-186220717D01*
X193428488Y-186164912D01*
X193491269Y-187062719D01*
X192693218Y-187118524D01*
X192693218Y-187118524D01*
G37*
D26*
X193659391Y-186599865D03*
D12*
G36*
X193291756Y-187076671D02*
X193228975Y-186178864D01*
X194027026Y-186123059D01*
X194089807Y-187020866D01*
X193291756Y-187076671D01*
X193291756Y-187076671D01*
G37*
D26*
X193847734Y-189293287D03*
D12*
G36*
X193480099Y-189770093D02*
X193417318Y-188872286D01*
X194215369Y-188816481D01*
X194278150Y-189714288D01*
X193480099Y-189770093D01*
X193480099Y-189770093D01*
G37*
D26*
X193249200Y-189335141D03*
D12*
G36*
X192881565Y-189811947D02*
X192818784Y-188914140D01*
X193616835Y-188858335D01*
X193679616Y-189756142D01*
X192881565Y-189811947D01*
X192881565Y-189811947D01*
G37*
D25*
X192476083Y-189389203D03*
D12*
G36*
X193081073Y-189797997D02*
X191933874Y-189878217D01*
X191871093Y-188980409D01*
X193018292Y-188900189D01*
X193081073Y-189797997D01*
X193081073Y-189797997D01*
G37*
G04 #@! TD*
D27*
G04 #@! TO.C,U6*
X194811687Y-197338602D03*
D12*
G36*
X194017215Y-198010401D02*
X193912628Y-196814968D01*
X195606159Y-196666803D01*
X195710746Y-197862236D01*
X194017215Y-198010401D01*
X194017215Y-198010401D01*
G37*
D27*
X194923246Y-198613731D03*
D12*
G36*
X194128774Y-199285530D02*
X194024187Y-198090097D01*
X195717718Y-197941932D01*
X195822305Y-199137365D01*
X194128774Y-199285530D01*
X194128774Y-199285530D01*
G37*
D27*
X188647219Y-199162812D03*
D12*
G36*
X187852747Y-199834611D02*
X187748160Y-198639178D01*
X189441691Y-198491013D01*
X189546278Y-199686446D01*
X187852747Y-199834611D01*
X187852747Y-199834611D01*
G37*
D27*
X188535660Y-197887683D03*
D12*
G36*
X187741188Y-198559482D02*
X187636601Y-197364049D01*
X189330132Y-197215884D01*
X189434719Y-198411317D01*
X187741188Y-198559482D01*
X187741188Y-198559482D01*
G37*
G04 #@! TD*
D27*
G04 #@! TO.C,U7*
X184071279Y-198053024D03*
D12*
G36*
X184729110Y-198859100D02*
X183532034Y-198942807D01*
X183413448Y-197246948D01*
X184610524Y-197163241D01*
X184729110Y-198859100D01*
X184729110Y-198859100D01*
G37*
D27*
X185348161Y-197963736D03*
D12*
G36*
X186005992Y-198769812D02*
X184808916Y-198853519D01*
X184690330Y-197157660D01*
X185887406Y-197073953D01*
X186005992Y-198769812D01*
X186005992Y-198769812D01*
G37*
D27*
X185787627Y-204248390D03*
D12*
G36*
X186445458Y-205054466D02*
X185248382Y-205138173D01*
X185129796Y-203442314D01*
X186326872Y-203358607D01*
X186445458Y-205054466D01*
X186445458Y-205054466D01*
G37*
D27*
X184510745Y-204337678D03*
D12*
G36*
X185168576Y-205143754D02*
X183971500Y-205227461D01*
X183852914Y-203531602D01*
X185049990Y-203447895D01*
X185168576Y-205143754D01*
X185168576Y-205143754D01*
G37*
G04 #@! TD*
D27*
G04 #@! TO.C,U8*
X187495299Y-206284948D03*
D12*
G36*
X186712672Y-206970510D02*
X186587238Y-205777084D01*
X188277926Y-205599386D01*
X188403360Y-206792812D01*
X186712672Y-206970510D01*
X186712672Y-206970510D01*
G37*
D27*
X187629095Y-207557936D03*
D12*
G36*
X186846468Y-208243498D02*
X186721034Y-207050072D01*
X188411722Y-206872374D01*
X188537156Y-208065800D01*
X186846468Y-208243498D01*
X186846468Y-208243498D01*
G37*
D27*
X181363607Y-208216466D03*
D12*
G36*
X180580980Y-208902028D02*
X180455546Y-207708602D01*
X182146234Y-207530904D01*
X182271668Y-208724330D01*
X180580980Y-208902028D01*
X180580980Y-208902028D01*
G37*
D27*
X181229811Y-206943478D03*
D12*
G36*
X180447184Y-207629040D02*
X180321750Y-206435614D01*
X182012438Y-206257916D01*
X182137872Y-207451342D01*
X180447184Y-207629040D01*
X180447184Y-207629040D01*
G37*
G04 #@! TD*
D27*
G04 #@! TO.C,U9*
X189980929Y-210769825D03*
D12*
G36*
X190751472Y-210070708D02*
X190897715Y-211261764D01*
X189210386Y-211468942D01*
X189064143Y-210277886D01*
X190751472Y-210070708D01*
X190751472Y-210070708D01*
G37*
D27*
X189824936Y-209499366D03*
D12*
G36*
X190595479Y-208800249D02*
X190741722Y-209991305D01*
X189054393Y-210198483D01*
X188908150Y-209007427D01*
X190595479Y-208800249D01*
X190595479Y-208800249D01*
G37*
D27*
X196077977Y-208731589D03*
D12*
G36*
X196848520Y-208032472D02*
X196994763Y-209223528D01*
X195307434Y-209430706D01*
X195161191Y-208239650D01*
X196848520Y-208032472D01*
X196848520Y-208032472D01*
G37*
D27*
X196233970Y-210002048D03*
D12*
G36*
X197004513Y-209302931D02*
X197150756Y-210493987D01*
X195463427Y-210701165D01*
X195317184Y-209510109D01*
X197004513Y-209302931D01*
X197004513Y-209302931D01*
G37*
G04 #@! TD*
G04 #@! TO.C,C15*
G36*
X188391638Y-194016754D02*
X188422437Y-194022220D01*
X188452553Y-194030678D01*
X188481694Y-194042047D01*
X188509581Y-194056218D01*
X188535944Y-194073053D01*
X188560531Y-194092392D01*
X188583103Y-194114048D01*
X188603444Y-194137812D01*
X188621358Y-194163455D01*
X188636672Y-194190730D01*
X188649239Y-194219376D01*
X188658938Y-194249115D01*
X188665675Y-194279661D01*
X188669386Y-194310721D01*
X188719087Y-195021485D01*
X188719735Y-195052759D01*
X188717315Y-195083946D01*
X188711849Y-195114746D01*
X188703391Y-195144861D01*
X188692022Y-195174002D01*
X188677851Y-195201889D01*
X188661015Y-195228253D01*
X188641677Y-195252839D01*
X188620021Y-195275411D01*
X188596257Y-195295752D01*
X188570614Y-195313666D01*
X188543338Y-195328980D01*
X188514693Y-195341547D01*
X188484954Y-195351246D01*
X188454407Y-195357983D01*
X188423348Y-195361694D01*
X187787401Y-195406164D01*
X187756127Y-195406812D01*
X187724940Y-195404392D01*
X187694141Y-195398926D01*
X187664025Y-195390468D01*
X187634884Y-195379099D01*
X187606997Y-195364928D01*
X187580634Y-195348093D01*
X187556047Y-195328754D01*
X187533475Y-195307098D01*
X187513134Y-195283334D01*
X187495220Y-195257691D01*
X187479906Y-195230416D01*
X187467339Y-195201770D01*
X187457640Y-195172031D01*
X187450903Y-195141485D01*
X187447192Y-195110425D01*
X187397491Y-194399661D01*
X187396843Y-194368387D01*
X187399263Y-194337200D01*
X187404729Y-194306400D01*
X187413187Y-194276285D01*
X187424556Y-194247144D01*
X187438727Y-194219257D01*
X187455563Y-194192893D01*
X187474901Y-194168307D01*
X187496557Y-194145735D01*
X187520321Y-194125394D01*
X187545964Y-194107480D01*
X187573240Y-194092166D01*
X187601885Y-194079599D01*
X187631624Y-194069900D01*
X187662171Y-194063163D01*
X187693230Y-194059452D01*
X188329177Y-194014982D01*
X188360451Y-194014334D01*
X188391638Y-194016754D01*
X188391638Y-194016754D01*
G37*
D15*
X188058289Y-194710573D03*
D12*
G36*
X189962802Y-193906888D02*
X189993601Y-193912354D01*
X190023717Y-193920812D01*
X190052858Y-193932181D01*
X190080745Y-193946352D01*
X190107108Y-193963187D01*
X190131695Y-193982526D01*
X190154267Y-194004182D01*
X190174608Y-194027946D01*
X190192522Y-194053589D01*
X190207836Y-194080864D01*
X190220403Y-194109510D01*
X190230102Y-194139249D01*
X190236839Y-194169795D01*
X190240550Y-194200855D01*
X190290251Y-194911619D01*
X190290899Y-194942893D01*
X190288479Y-194974080D01*
X190283013Y-195004880D01*
X190274555Y-195034995D01*
X190263186Y-195064136D01*
X190249015Y-195092023D01*
X190232179Y-195118387D01*
X190212841Y-195142973D01*
X190191185Y-195165545D01*
X190167421Y-195185886D01*
X190141778Y-195203800D01*
X190114502Y-195219114D01*
X190085857Y-195231681D01*
X190056118Y-195241380D01*
X190025571Y-195248117D01*
X189994512Y-195251828D01*
X189358565Y-195296298D01*
X189327291Y-195296946D01*
X189296104Y-195294526D01*
X189265305Y-195289060D01*
X189235189Y-195280602D01*
X189206048Y-195269233D01*
X189178161Y-195255062D01*
X189151798Y-195238227D01*
X189127211Y-195218888D01*
X189104639Y-195197232D01*
X189084298Y-195173468D01*
X189066384Y-195147825D01*
X189051070Y-195120550D01*
X189038503Y-195091904D01*
X189028804Y-195062165D01*
X189022067Y-195031619D01*
X189018356Y-195000559D01*
X188968655Y-194289795D01*
X188968007Y-194258521D01*
X188970427Y-194227334D01*
X188975893Y-194196534D01*
X188984351Y-194166419D01*
X188995720Y-194137278D01*
X189009891Y-194109391D01*
X189026727Y-194083027D01*
X189046065Y-194058441D01*
X189067721Y-194035869D01*
X189091485Y-194015528D01*
X189117128Y-193997614D01*
X189144404Y-193982300D01*
X189173049Y-193969733D01*
X189202788Y-193960034D01*
X189233335Y-193953297D01*
X189264394Y-193949586D01*
X189900341Y-193905116D01*
X189931615Y-193904468D01*
X189962802Y-193906888D01*
X189962802Y-193906888D01*
G37*
D15*
X189629453Y-194600707D03*
G04 #@! TD*
D12*
G04 #@! TO.C,C16*
G36*
X188272219Y-192446820D02*
X188303018Y-192452286D01*
X188333134Y-192460744D01*
X188362275Y-192472113D01*
X188390162Y-192486284D01*
X188416525Y-192503119D01*
X188441112Y-192522458D01*
X188463684Y-192544114D01*
X188484025Y-192567878D01*
X188501939Y-192593521D01*
X188517253Y-192620796D01*
X188529820Y-192649442D01*
X188539519Y-192679181D01*
X188546256Y-192709727D01*
X188549967Y-192740787D01*
X188599668Y-193451551D01*
X188600316Y-193482825D01*
X188597896Y-193514012D01*
X188592430Y-193544812D01*
X188583972Y-193574927D01*
X188572603Y-193604068D01*
X188558432Y-193631955D01*
X188541596Y-193658319D01*
X188522258Y-193682905D01*
X188500602Y-193705477D01*
X188476838Y-193725818D01*
X188451195Y-193743732D01*
X188423919Y-193759046D01*
X188395274Y-193771613D01*
X188365535Y-193781312D01*
X188334988Y-193788049D01*
X188303929Y-193791760D01*
X187667982Y-193836230D01*
X187636708Y-193836878D01*
X187605521Y-193834458D01*
X187574722Y-193828992D01*
X187544606Y-193820534D01*
X187515465Y-193809165D01*
X187487578Y-193794994D01*
X187461215Y-193778159D01*
X187436628Y-193758820D01*
X187414056Y-193737164D01*
X187393715Y-193713400D01*
X187375801Y-193687757D01*
X187360487Y-193660482D01*
X187347920Y-193631836D01*
X187338221Y-193602097D01*
X187331484Y-193571551D01*
X187327773Y-193540491D01*
X187278072Y-192829727D01*
X187277424Y-192798453D01*
X187279844Y-192767266D01*
X187285310Y-192736466D01*
X187293768Y-192706351D01*
X187305137Y-192677210D01*
X187319308Y-192649323D01*
X187336144Y-192622959D01*
X187355482Y-192598373D01*
X187377138Y-192575801D01*
X187400902Y-192555460D01*
X187426545Y-192537546D01*
X187453821Y-192522232D01*
X187482466Y-192509665D01*
X187512205Y-192499966D01*
X187542752Y-192493229D01*
X187573811Y-192489518D01*
X188209758Y-192445048D01*
X188241032Y-192444400D01*
X188272219Y-192446820D01*
X188272219Y-192446820D01*
G37*
D15*
X187938870Y-193140639D03*
D12*
G36*
X189843383Y-192336954D02*
X189874182Y-192342420D01*
X189904298Y-192350878D01*
X189933439Y-192362247D01*
X189961326Y-192376418D01*
X189987689Y-192393253D01*
X190012276Y-192412592D01*
X190034848Y-192434248D01*
X190055189Y-192458012D01*
X190073103Y-192483655D01*
X190088417Y-192510930D01*
X190100984Y-192539576D01*
X190110683Y-192569315D01*
X190117420Y-192599861D01*
X190121131Y-192630921D01*
X190170832Y-193341685D01*
X190171480Y-193372959D01*
X190169060Y-193404146D01*
X190163594Y-193434946D01*
X190155136Y-193465061D01*
X190143767Y-193494202D01*
X190129596Y-193522089D01*
X190112760Y-193548453D01*
X190093422Y-193573039D01*
X190071766Y-193595611D01*
X190048002Y-193615952D01*
X190022359Y-193633866D01*
X189995083Y-193649180D01*
X189966438Y-193661747D01*
X189936699Y-193671446D01*
X189906152Y-193678183D01*
X189875093Y-193681894D01*
X189239146Y-193726364D01*
X189207872Y-193727012D01*
X189176685Y-193724592D01*
X189145886Y-193719126D01*
X189115770Y-193710668D01*
X189086629Y-193699299D01*
X189058742Y-193685128D01*
X189032379Y-193668293D01*
X189007792Y-193648954D01*
X188985220Y-193627298D01*
X188964879Y-193603534D01*
X188946965Y-193577891D01*
X188931651Y-193550616D01*
X188919084Y-193521970D01*
X188909385Y-193492231D01*
X188902648Y-193461685D01*
X188898937Y-193430625D01*
X188849236Y-192719861D01*
X188848588Y-192688587D01*
X188851008Y-192657400D01*
X188856474Y-192626600D01*
X188864932Y-192596485D01*
X188876301Y-192567344D01*
X188890472Y-192539457D01*
X188907308Y-192513093D01*
X188926646Y-192488507D01*
X188948302Y-192465935D01*
X188972066Y-192445594D01*
X188997709Y-192427680D01*
X189024985Y-192412366D01*
X189053630Y-192399799D01*
X189083369Y-192390100D01*
X189113916Y-192383363D01*
X189144975Y-192379652D01*
X189780922Y-192335182D01*
X189812196Y-192334534D01*
X189843383Y-192336954D01*
X189843383Y-192336954D01*
G37*
D15*
X189510034Y-193030773D03*
G04 #@! TD*
M02*
