G04 #@! TF.GenerationSoftware,KiCad,Pcbnew,(5.0.0)*
G04 #@! TF.CreationDate,2019-11-18T10:43:10+01:00*
G04 #@! TF.ProjectId,Insole_PCB,496E736F6C655F5043422E6B69636164,rev?*
G04 #@! TF.SameCoordinates,Original*
G04 #@! TF.FileFunction,Other,ECO1*
%FSLAX46Y46*%
G04 Gerber Fmt 4.6, Leading zero omitted, Abs format (unit mm)*
G04 Created by KiCad (PCBNEW (5.0.0)) date 11/18/19 10:43:10*
%MOMM*%
%LPD*%
G01*
G04 APERTURE LIST*
%ADD10C,0.100000*%
G04 APERTURE END LIST*
D10*
X143497045Y-101850707D02*
G75*
G03X143497045Y-101850707I-9467592J0D01*
G01*
X167530385Y-104850707D02*
G75*
G03X167530385Y-104850707I-9500932J0D01*
G01*
X211489231Y-27850707D02*
G75*
G03X211489231Y-27850707I-9459778J0D01*
G01*
X189520343Y-26850707D02*
G75*
G03X189520343Y-26850707I-9490890J0D01*
G01*
X170543028Y-40850707D02*
G75*
G03X170543028Y-40850707I-9513575J0D01*
G01*
X194858904Y-48850707D02*
G75*
G03X194858904Y-48850707I-9479451J0D01*
G01*
X218499981Y-48850707D02*
G75*
G03X218499981Y-48850707I-9470528J0D01*
G01*
X220491657Y-70850707D02*
G75*
G03X220491657Y-70850707I-9462204J0D01*
G01*
X196280346Y-71840707D02*
G75*
G03X196280346Y-71840707I-9460893J0D01*
G01*
X176527816Y-63850707D02*
G75*
G03X176527816Y-63850707I-9498363J0D01*
G01*
X155513524Y-60850707D02*
G75*
G03X155513524Y-60850707I-9484071J0D01*
G01*
X145517830Y-80850707D02*
G75*
G03X145517830Y-80850707I-9488377J0D01*
G01*
X168499089Y-83850707D02*
G75*
G03X168499089Y-83850707I-9469636J0D01*
G01*
X194485504Y-94850707D02*
G75*
G03X194485504Y-94850707I-9456051J0D01*
G01*
X220514583Y-94800707D02*
G75*
G03X220514583Y-94800707I-9485130J0D01*
G01*
X212512670Y-118850707D02*
G75*
G03X212512670Y-118850707I-9483217J0D01*
G01*
X190510318Y-118850707D02*
G75*
G03X190510318Y-118850707I-9480865J0D01*
G01*
X144514620Y-122850707D02*
G75*
G03X144514620Y-122850707I-9485167J0D01*
G01*
X168529942Y-126850707D02*
G75*
G03X168529942Y-126850707I-9500489J0D01*
G01*
X173498265Y-147850707D02*
G75*
G03X173498265Y-147850707I-9468812J0D01*
G01*
X149523246Y-144850707D02*
G75*
G03X149523246Y-144850707I-9493793J0D01*
G01*
X158068067Y-165500707D02*
G75*
G03X158068067Y-165500707I-9488614J0D01*
G01*
X179580488Y-221450707D02*
G75*
G03X179580488Y-221450707I-9471035J0D01*
G01*
X199659180Y-228470707D02*
G75*
G03X199659180Y-228470707I-9509727J0D01*
G01*
X181005507Y-245050707D02*
G75*
G03X181005507Y-245050707I-9476054J0D01*
G01*
X202825334Y-249340707D02*
G75*
G03X202825334Y-249340707I-9465881J0D01*
G01*
X192515538Y-268000707D02*
G75*
G03X192515538Y-268000707I-9486085J0D01*
G01*
X170628190Y-268100707D02*
G75*
G03X170628190Y-268100707I-9498737J0D01*
G01*
X159278127Y-250220707D02*
G75*
G03X159278127Y-250220707I-9498674J0D01*
G01*
X159818352Y-229050707D02*
G75*
G03X159818352Y-229050707I-9488899J0D01*
G01*
X162289950Y-207730707D02*
G75*
G03X162289950Y-207730707I-9460497J0D01*
G01*
X161081332Y-186480707D02*
G75*
G03X161081332Y-186480707I-9471879J0D01*
G01*
X211548356Y-131247841D02*
G75*
G03X173529453Y-199850707I481097J-45102866D01*
G01*
X173529453Y-199850707D02*
G75*
G03X200024786Y-217077384I22873048J6190891D01*
G01*
X204677533Y-247248836D02*
X204741333Y-249184347D01*
X203356393Y-258733637D02*
X202745343Y-260571267D01*
X201203853Y-264122617D02*
X200278783Y-265823957D01*
X204208433Y-243405910D02*
X204499683Y-245320449D01*
X202026993Y-262369687D02*
X201203853Y-264122617D01*
X204690933Y-251120267D02*
X204526463Y-253049837D01*
X204741333Y-249184347D02*
X204690933Y-251120267D01*
X192791493Y-274632277D02*
X191261373Y-275819307D01*
X198136093Y-269048407D02*
X196925923Y-270560287D01*
X200278783Y-265823957D02*
X199255013Y-267467797D01*
X204248513Y-254966367D02*
X203858033Y-256863167D01*
X204526463Y-253049837D02*
X204248513Y-254966367D01*
X204499683Y-245320449D02*
X204677533Y-247248836D01*
X202745343Y-260571267D02*
X202026993Y-262369687D01*
X203858033Y-256863167D02*
X203356393Y-258733637D01*
X186289483Y-278811777D02*
X184524233Y-279608147D01*
X188004703Y-277912697D02*
X186289483Y-278811777D01*
X194248963Y-273357087D02*
X192791493Y-274632277D01*
X199255013Y-267467797D02*
X198136093Y-269048407D01*
X189663923Y-276914057D02*
X188004703Y-277912697D01*
X191261373Y-275819307D02*
X189663923Y-276914057D01*
X195628703Y-271998177D02*
X194248963Y-273357087D01*
X196925923Y-270560287D02*
X195628703Y-271998177D01*
X221954063Y-98721065D02*
X221706474Y-101243072D01*
X216761501Y-119584791D02*
X215857941Y-121713224D01*
X217618969Y-117430963D02*
X216761501Y-119584791D01*
X221366619Y-103705448D02*
X220938404Y-106111675D01*
X221706474Y-101243072D02*
X221366619Y-103705448D01*
X222105483Y-96135944D02*
X222042043Y-97436615D01*
X220425739Y-108465240D02*
X219832523Y-110769634D01*
X220938404Y-106111675D02*
X220425739Y-108465240D01*
X213945483Y-125912626D02*
X211549453Y-131240707D01*
X222042043Y-97436615D02*
X221954063Y-98721065D01*
X215857941Y-121713224D02*
X214916523Y-123820942D01*
X218422115Y-115247059D02*
X217618969Y-117430963D01*
X219832523Y-110769634D02*
X219162697Y-113028400D01*
X214916523Y-123820942D02*
X213945483Y-125912626D01*
X219162697Y-113028400D02*
X218422115Y-115247059D01*
X201703813Y-230926216D02*
X202065143Y-233110252D01*
X200288653Y-219548683D02*
X200523013Y-221879776D01*
X202875213Y-237379287D02*
X203325083Y-239463028D01*
X203325083Y-239463028D02*
X203805563Y-241512047D01*
X201062683Y-226461929D02*
X201370053Y-228709640D01*
X200780683Y-224184753D02*
X201062683Y-226461929D01*
X200523013Y-221879776D02*
X200780683Y-224184753D01*
X200049453Y-217070707D02*
X200289453Y-219560707D01*
X203805563Y-241512047D02*
X204208433Y-243405910D01*
X201370053Y-228709640D02*
X201703813Y-230926216D01*
X202065143Y-233110252D02*
X202455403Y-235261474D01*
X202455403Y-235261474D02*
X202875213Y-237379287D01*
X220858351Y-53608276D02*
X221042250Y-55874260D01*
X222143913Y-94818622D02*
X222105483Y-96135944D01*
X222131793Y-86652752D02*
X222150633Y-90018245D01*
X218170210Y-35278487D02*
X218510821Y-36776447D01*
X222156833Y-93484218D02*
X222143913Y-94818622D01*
X217441023Y-32491027D02*
X217813571Y-33850547D01*
X222150633Y-90018245D02*
X222156833Y-93484218D01*
X218510821Y-36776447D02*
X218835288Y-38346007D01*
X219435526Y-41703027D02*
X219711581Y-43492757D01*
X221042250Y-55874260D02*
X221211413Y-58224388D01*
X219971835Y-45358477D02*
X220216456Y-47301537D01*
X218835288Y-38346007D02*
X219143488Y-39987897D01*
X222100183Y-83386368D02*
X222131793Y-86652752D01*
X221506243Y-63182495D02*
X221632269Y-65793205D01*
X220216456Y-47301537D02*
X220445632Y-49323272D01*
X219143488Y-39987897D02*
X219435526Y-41703027D01*
X222055623Y-80217735D02*
X222100183Y-83386368D01*
X221997923Y-77145492D02*
X222055623Y-80217735D01*
X221366019Y-60660011D02*
X221506243Y-63182495D01*
X221926923Y-74168281D02*
X221997923Y-77145492D01*
X221211413Y-58224388D02*
X221366019Y-60660011D01*
X221842433Y-71284736D02*
X221926923Y-74168281D01*
X221632269Y-65793205D02*
X221744273Y-68493500D01*
X221744273Y-68493500D02*
X221842433Y-71284736D01*
X220445632Y-49323272D02*
X220659537Y-51425064D01*
X219711581Y-43492757D02*
X219971835Y-45358477D01*
X217813571Y-33850547D02*
X218170210Y-35278487D01*
X220659537Y-51425064D02*
X220858351Y-53608276D01*
X204442723Y-16138047D02*
X205222513Y-16417487D01*
X190539843Y-14465567D02*
X191722113Y-14480667D01*
X203635393Y-15884357D02*
X204442723Y-16138047D01*
X201044633Y-15270177D02*
X201936493Y-15451567D01*
X176717043Y-16003007D02*
X177904643Y-15699957D01*
X193997843Y-14546467D02*
X195091583Y-14599367D01*
X177904643Y-15699957D02*
X179138383Y-15425277D01*
X155862423Y-29589287D02*
X157180373Y-28233697D01*
X170411623Y-18340627D02*
X171375483Y-17894597D01*
X164386693Y-21966077D02*
X165999923Y-20850947D01*
X157180373Y-28233697D02*
X158530183Y-26905187D01*
X189327813Y-14460567D02*
X190539843Y-14465567D01*
X173401383Y-17067037D02*
X174467613Y-16687657D01*
X161353123Y-24350227D02*
X162840113Y-23134197D01*
X187684123Y-14482167D02*
X189327813Y-14460567D01*
X196156083Y-14667167D02*
X197191473Y-14751067D01*
X174467613Y-16687657D02*
X175572133Y-16332627D01*
X168571693Y-19291917D02*
X169477723Y-18806767D01*
X201936493Y-15451567D02*
X202800033Y-15655917D01*
X183147713Y-14791067D02*
X184597173Y-14649367D01*
X214397551Y-24756547D02*
X214878192Y-25681687D01*
X213391463Y-23071727D02*
X213901943Y-23887097D01*
X207410383Y-17417387D02*
X208092833Y-17810727D01*
X181756823Y-14968907D02*
X183147713Y-14791067D01*
X215343741Y-26664097D02*
X215794081Y-27705377D01*
X214878192Y-25681687D02*
X215343741Y-26664097D01*
X210014993Y-19197067D02*
X210617603Y-19734207D01*
X192874733Y-14507267D02*
X193997843Y-14546467D01*
X205222513Y-16417487D02*
X205976313Y-16722647D01*
X179138383Y-15425277D02*
X180421413Y-15180957D01*
X199175473Y-14971617D02*
X200124343Y-15110567D01*
X184597173Y-14649367D02*
X186108273Y-14545767D01*
X198197893Y-14852157D02*
X199175473Y-14971617D01*
X216229098Y-28807117D02*
X216648673Y-29970907D01*
X167691433Y-19795047D02*
X168571693Y-19291917D01*
X211202993Y-20311957D02*
X211772233Y-20932217D01*
X216648673Y-29970907D02*
X217052687Y-31198347D01*
X210617603Y-19734207D02*
X211202993Y-20311957D01*
X191722113Y-14480667D02*
X192874733Y-14507267D01*
X195091583Y-14599367D02*
X196156083Y-14667167D01*
X165999923Y-20850947D02*
X167691433Y-19795047D01*
X162840113Y-23134197D02*
X164386693Y-21966077D01*
X217052687Y-31198347D02*
X217441023Y-32491027D01*
X208753703Y-18237217D02*
X209394053Y-18698697D01*
X202800033Y-15655917D02*
X203635393Y-15884357D01*
X200124343Y-15110567D02*
X201044633Y-15270177D01*
X175572133Y-16332627D02*
X176717043Y-16003007D01*
X180421413Y-15180957D02*
X181756823Y-14968907D01*
X169477723Y-18806767D02*
X170411623Y-18340627D01*
X158530183Y-26905187D02*
X159918783Y-25608967D01*
X186108273Y-14545767D02*
X187684123Y-14482167D01*
X215794081Y-27705377D02*
X216229098Y-28807117D01*
X213901943Y-23887097D02*
X214397551Y-24756547D01*
X171375483Y-17894597D02*
X172371373Y-17469697D01*
X208092833Y-17810727D02*
X208753703Y-18237217D01*
X212326423Y-21596847D02*
X212866253Y-22308847D01*
X206705233Y-17055317D02*
X207410383Y-17417387D01*
X211772233Y-20932217D02*
X212326423Y-21596847D01*
X212866253Y-22308847D02*
X213391463Y-23071727D01*
X209394053Y-18698697D02*
X210014993Y-19197067D01*
X197191473Y-14751067D02*
X198197893Y-14852157D01*
X172371373Y-17469697D02*
X173401383Y-17067037D01*
X159918783Y-25608967D02*
X161353123Y-24350227D01*
X205976313Y-16722647D02*
X206705233Y-17055317D01*
X128710273Y-64978889D02*
X129498783Y-63601745D01*
X124381993Y-74869842D02*
X124868833Y-73382232D01*
X122871843Y-81427772D02*
X123184553Y-79671355D01*
X154569433Y-30966747D02*
X155862423Y-29589287D01*
X152042553Y-33770497D02*
X154569433Y-30966747D01*
X123184553Y-79671355D02*
X123539913Y-78003799D01*
X123539913Y-78003799D02*
X123939033Y-76407165D01*
X142522793Y-45278197D02*
X144831853Y-42392807D01*
X149584713Y-36622327D02*
X152042553Y-33770497D01*
X123939033Y-76407165D02*
X124381993Y-74869842D01*
X147184833Y-39502867D02*
X149584713Y-36622327D01*
X124868833Y-73382232D02*
X125399583Y-71934753D01*
X144831853Y-42392807D02*
X147184833Y-39502867D01*
X138085853Y-51015189D02*
X140269773Y-48153957D01*
X131188773Y-60843650D02*
X132086513Y-59459617D01*
X122730993Y-82345290D02*
X122871843Y-81427772D01*
X127961923Y-66356834D02*
X128710273Y-64978889D01*
X130325573Y-62223846D02*
X131188773Y-60843650D01*
X133016913Y-58070190D02*
X133978083Y-56673835D01*
X125399583Y-71934753D02*
X125974273Y-70517799D01*
X126592933Y-69121780D02*
X127255603Y-67737121D01*
X140269773Y-48153957D02*
X142522793Y-45278197D01*
X135984113Y-53856994D02*
X138085853Y-51015189D01*
X133978083Y-56673835D02*
X135984113Y-53856994D01*
X132086513Y-59459617D02*
X133016913Y-58070190D01*
X129498783Y-63601745D02*
X130325573Y-62223846D01*
X127255603Y-67737121D02*
X127961923Y-66356834D01*
X125974273Y-70517799D02*
X126592933Y-69121780D01*
X121671673Y-108338718D02*
X121674673Y-106387599D01*
X121741673Y-97836337D02*
X121769573Y-96340396D01*
X121689673Y-102737609D02*
X121702373Y-101031150D01*
X137413783Y-203893630D02*
X137159693Y-201717857D01*
X136378673Y-194985114D02*
X136113403Y-192673999D01*
X130259753Y-156441292D02*
X129735473Y-154523993D01*
X121680673Y-104521831D02*
X121689673Y-102737609D01*
X136641743Y-197263118D02*
X136378673Y-194985114D01*
X122873613Y-129022586D02*
X122564373Y-126945861D01*
X121669673Y-110378970D02*
X121671673Y-108338718D01*
X135575443Y-187960597D02*
X135013503Y-183175983D01*
X123605073Y-132962283D02*
X123221573Y-131024972D01*
X125943503Y-142001363D02*
X124937033Y-138476397D01*
X129198973Y-152654507D02*
X128654303Y-150824933D01*
X133008463Y-169054156D02*
X132604753Y-166821035D01*
X121674673Y-106387599D02*
X121680673Y-104521831D01*
X139013393Y-218248588D02*
X138605443Y-214274047D01*
X122564373Y-126945861D02*
X122297023Y-124785535D01*
X121899173Y-120182616D02*
X121772103Y-117731435D01*
X137159693Y-201717857D02*
X136902213Y-199507526D01*
X121727103Y-116466886D02*
X121694803Y-115175780D01*
X128654303Y-150824933D02*
X128105343Y-149027432D01*
X129735473Y-154523993D02*
X129198973Y-152654507D01*
X134409953Y-178386279D02*
X133747413Y-173657123D01*
X122297023Y-124785535D02*
X122074623Y-122532819D01*
X124020933Y-134843782D02*
X123605073Y-132962283D01*
X122090773Y-88551456D02*
X122174073Y-87421664D01*
X128105343Y-149027432D02*
X127009903Y-145497289D01*
X127009903Y-145497289D02*
X125943503Y-142001363D01*
X132604753Y-166821035D02*
X132177423Y-164639947D01*
X136113403Y-192673999D02*
X135575443Y-187960597D01*
X137910173Y-208139709D02*
X137664093Y-206034362D01*
X138150443Y-210212253D02*
X137910173Y-208139709D01*
X121893773Y-92212939D02*
X121950873Y-90944705D01*
X124937033Y-138476397D02*
X124465973Y-136678732D01*
X131727883Y-162511160D02*
X131257493Y-160434943D01*
X122074623Y-122532819D02*
X121899173Y-120182616D01*
X122600223Y-83292197D02*
X122730993Y-82345290D01*
X124465973Y-136678732D02*
X124020933Y-134843782D01*
X122174073Y-87421664D02*
X122266473Y-86333236D01*
X121675303Y-113857680D02*
X121669303Y-112512157D01*
X132177423Y-164639947D02*
X131727883Y-162511160D01*
X122479343Y-84270896D02*
X122600223Y-83292197D01*
X122368153Y-85283778D02*
X122479343Y-84270896D01*
X136902213Y-199507526D02*
X136641743Y-197263118D01*
X122266473Y-86333236D02*
X122368153Y-85283778D01*
X137664093Y-206034362D02*
X137413783Y-203893630D01*
X133388573Y-171335763D02*
X133008463Y-169054156D01*
X122016473Y-89725005D02*
X122090773Y-88551456D01*
X121950873Y-90944705D02*
X122016473Y-89725005D01*
X121803773Y-94907046D02*
X121844973Y-93532493D01*
X121694803Y-115175780D02*
X121675303Y-113857680D01*
X121719473Y-99398654D02*
X121741673Y-97836337D01*
X121702373Y-101031150D02*
X121719473Y-99398654D01*
X133747413Y-173657123D02*
X133388573Y-171335763D01*
X130767653Y-158411565D02*
X130259753Y-156441292D01*
X135013503Y-183175983D02*
X134409953Y-178386279D01*
X131257493Y-160434943D02*
X130767653Y-158411565D01*
X121669303Y-112512157D02*
X121669673Y-110378970D01*
X121772103Y-117731435D02*
X121727103Y-116466886D01*
X123221573Y-131024972D02*
X122873613Y-129022586D01*
X138605443Y-214274047D02*
X138150443Y-210212253D01*
X121844973Y-93532493D02*
X121893773Y-92212939D01*
X121769573Y-96340396D02*
X121803773Y-94907046D01*
X146122153Y-269610877D02*
X144969303Y-268054837D01*
X163641763Y-281068317D02*
X161782863Y-280525357D01*
X180868383Y-280882087D02*
X178990493Y-281355197D01*
X171299133Y-282121517D02*
X169364803Y-282028217D01*
X144969303Y-268054837D02*
X143910213Y-266433527D01*
X148692753Y-272505737D02*
X147364743Y-271096227D01*
X139181083Y-251828707D02*
X139088783Y-249894337D01*
X140679973Y-259411427D02*
X140137993Y-257552237D01*
X139387253Y-253754277D02*
X139181083Y-251828707D01*
X139437793Y-243942931D02*
X139591363Y-241884772D01*
X175167443Y-281965537D02*
X173235583Y-282100617D01*
X177087973Y-281716767D02*
X175167443Y-281965537D01*
X142087713Y-263017877D02*
X141330633Y-261235417D01*
X153141703Y-276231507D02*
X151586263Y-275077847D01*
X167439343Y-281821047D02*
X165529453Y-281500707D01*
X141330633Y-261235417D02*
X140679973Y-259411427D01*
X147364743Y-271096227D02*
X146122153Y-269610877D01*
X156442893Y-278253967D02*
X154762453Y-277291447D01*
X139088783Y-249894337D02*
X139110783Y-247957893D01*
X151586263Y-275077847D02*
X150101563Y-273834477D01*
X139706593Y-255664327D02*
X139387253Y-253754277D01*
X139358713Y-222164420D02*
X139013393Y-218248588D01*
X139625803Y-226050109D02*
X139358713Y-222164420D01*
X139798143Y-229936111D02*
X139625803Y-226050109D01*
X139842543Y-231891044D02*
X139798143Y-229936111D01*
X139857043Y-233857612D02*
X139842543Y-231891044D01*
X159959213Y-279873747D02*
X158177153Y-279115737D01*
X161782863Y-280525357D02*
X159959213Y-279873747D01*
X142948563Y-264752597D02*
X142087713Y-263017877D01*
X158177153Y-279115737D02*
X156442893Y-278253967D01*
X139840443Y-235838035D02*
X139857043Y-233857612D01*
X139791443Y-237834548D02*
X139840443Y-235838035D01*
X139708843Y-239849387D02*
X139791443Y-237834548D01*
X182715103Y-280299047D02*
X180868383Y-280882087D01*
X184524233Y-279608147D02*
X182715103Y-280299047D01*
X139591363Y-241884772D02*
X139708843Y-239849387D01*
X178990493Y-281355197D02*
X177087973Y-281716767D01*
X169364803Y-282028217D02*
X167439343Y-281821047D01*
X139246883Y-246026119D02*
X139437793Y-243942931D01*
X139110783Y-247957893D02*
X139246883Y-246026119D01*
X140137993Y-257552237D02*
X139706593Y-255664327D01*
X154762453Y-277291447D02*
X153141703Y-276231507D01*
X173235583Y-282100617D02*
X171299133Y-282121517D01*
X143910213Y-266433527D02*
X142948563Y-264752597D01*
X150101563Y-273834477D02*
X148692753Y-272505737D01*
X165529453Y-281500707D02*
X163641763Y-281068317D01*
M02*
