M48
;DRILL file {KiCad (5.0.0)} date 11/06/19 13:34:17
;FORMAT={-:-/ absolute / metric / decimal}
FMAT,2
METRIC,TZ
T1C0.370
T2C0.400
T3C0.500
%
G90
G05
M71
T1
X128.649Y-111.431
X129.619Y-89.871
X134.229Y-152.971
X135.149Y-132.611
X137.529Y-67.351
X138.899Y-168.381
X142.459Y-108.471
X143.229Y-88.751
X143.579Y-179.391
X143.699Y-115.681
X145.109Y-218.961
X145.299Y-240.291
X145.529Y-77.251
X147.179Y-197.731
X150.299Y-131.901
X150.449Y-142.461
X150.629Y-45.451
X151.079Y-264.531
X151.229Y-69.551
X152.429Y-96.051
X152.959Y-117.411
X154.429Y-54.751
X156.029Y-154.121
X156.619Y-158.401
X157.009Y-136.221
X157.729Y-74.351
X158.179Y-177.211
X159.009Y-115.801
X159.329Y-95.251
X159.349Y-168.721
X159.459Y-234.121
X159.879Y-138.771
X160.399Y-258.541
X160.489Y-191.381
X160.699Y-251.891
X160.962Y-180.951
X161.029Y-72.251
X161.609Y-199.881
X162.359Y-240.321
X163.129Y-50.751
X163.295Y-178.111
X163.609Y-157.511
X164.729Y-54.251
X165.589Y-231.811
X165.609Y-235.921
X165.829Y-97.351
X167.209Y-255.131
X167.529Y-28.451
X168.419Y-116.051
X168.629Y-106.251
X168.729Y-75.151
X169.389Y-212.101
X169.419Y-206.281
X169.509Y-209.541
X169.519Y-205.101
X170.829Y-185.401
X170.929Y-188.001
X171.079Y-168.551
X171.429Y-40.451
X171.429Y-166.481
X171.479Y-178.251
X171.879Y-161.081
X172.029Y-171.851
X172.409Y-167.911
X172.479Y-211.741
X172.509Y-265.981
X172.689Y-177.321
X172.729Y-205.581
X172.829Y-183.001
X172.979Y-206.981
X173.129Y-209.311
X173.309Y-177.771
X173.349Y-204.771
X173.439Y-84.581
X173.719Y-166.251
X173.829Y-181.101
X173.929Y-186.801
X173.979Y-173.401
X174.009Y-178.361
X174.029Y-171.426
X174.629Y-159.301
X174.689Y-177.681
X175.059Y-135.501
X175.129Y-195.751
X176.029Y-128.451
X176.354Y-162.326
X176.829Y-109.351
X176.859Y-56.881
X177.319Y-132.641
X177.319Y-149.721
X177.404Y-159.926
X177.429Y-36.751
X177.629Y-177.438
X178.299Y-185.971
X178.429Y-174.931
X179.029Y-170.401
X179.079Y-166.251
X179.199Y-156.521
X179.479Y-171.451
X179.599Y-218.991
X179.814Y-161.183
X180.079Y-151.411
X180.549Y-181.031
X180.679Y-189.801
X180.689Y-161.531
X180.879Y-188.851
X181.359Y-234.411
X181.654Y-168.126
X181.869Y-153.671
X182.009Y-159.361
X182.129Y-183.801
X182.204Y-164.926
X182.279Y-146.351
X182.359Y-149.921
X182.679Y-151.621
X182.799Y-187.291
X182.972Y-150.259
X182.979Y-154.251
X183.019Y-158.811
X183.219Y-146.342
X183.229Y-172.851
X183.254Y-147.126
X183.529Y-167.851
X183.779Y-254.531
X183.929Y-172.551
X183.999Y-151.001
X184.299Y-162.981
X184.429Y-173.351
X185.049Y-158.157
X185.079Y-162.141
X185.229Y-172.751
X185.279Y-197.051
X185.459Y-219.401
X185.529Y-141.251
X185.599Y-166.631
X185.704Y-159.626
X186.079Y-185.577
X186.2Y-178.351
X186.229Y-104.741
X186.229Y-149.851
X186.629Y-158.051
X186.804Y-151.001
X186.804Y-152.991
X186.829Y-196.851
X187.229Y-158.751
X187.499Y-152.311
X187.529Y-162.451
X187.529Y-194.751
X187.729Y-208.501
X188.229Y-147.451
X188.379Y-187.001
X188.429Y-209.701
X188.529Y-158.351
X188.629Y-169.181
X188.671Y-155.869
X188.719Y-156.718
X188.929Y-146.651
X188.929Y-174.751
X189.229Y-158.151
X190.323Y-167.548
X190.329Y-157.951
X190.429Y-182.851
X190.549Y-185.911
X190.679Y-194.701
X190.859Y-188.761
X190.979Y-149.451
X191.289Y-159.791
X191.529Y-151.451
X191.909Y-150.841
X191.939Y-131.841
X192.009Y-147.331
X192.279Y-191.551
X192.502Y-164.729
X192.569Y-126.535
X192.729Y-166.151
X192.879Y-265.881
X193.129Y-177.251
X193.229Y-42.151
X193.331Y-33.825
X193.625Y-191.101
X193.754Y-156.226
X194.159Y-258.771
X194.329Y-89.751
X194.519Y-194.971
X194.629Y-191.001
X195.109Y-137.457
X195.129Y-146.326
X195.329Y-158.351
X195.329Y-163.851
X195.354Y-149.401
X195.629Y-66.651
X195.687Y-148.765
X195.884Y-146.496
X196.029Y-161.351
X196.125Y-129.329
X196.335Y-147.032
X197.929Y-240.251
X198.149Y-235.021
X198.269Y-50.561
X200.529Y-37.251
X201.419Y-73.531
X201.929Y-40.451
X202.983Y-131.869
X204.729Y-62.451
X204.929Y-58.051
X205.529Y-85.651
X206.429Y-80.151
X208.129Y-105.051
X211.129Y-111.451
X215.129Y-104.451
T2
X178.879Y-192.851
X183.229Y-207.551
X183.529Y-198.851
X184.629Y-188.051
X185.929Y-205.201
X187.829Y-199.351
X188.029Y-205.851
X189.329Y-211.151
X190.879Y-196.701
X191.979Y-185.801
X192.079Y-195.701
X193.829Y-140.851
X196.078Y-208.732
X198.329Y-140.851
T3
X196.949Y-192.511
X197.019Y-193.508
T0
M30
