G04 #@! TF.GenerationSoftware,KiCad,Pcbnew,(5.0.0)*
G04 #@! TF.CreationDate,2019-11-18T10:43:10+01:00*
G04 #@! TF.ProjectId,Insole_PCB,496E736F6C655F5043422E6B69636164,rev?*
G04 #@! TF.SameCoordinates,Original*
G04 #@! TF.FileFunction,Profile,NP*
%FSLAX46Y46*%
G04 Gerber Fmt 4.6, Leading zero omitted, Abs format (unit mm)*
G04 Created by KiCad (PCBNEW (5.0.0)) date 11/18/19 10:43:10*
%MOMM*%
%LPD*%
G01*
G04 APERTURE LIST*
%ADD10C,0.100000*%
G04 APERTURE END LIST*
D10*
X193889453Y-207270707D02*
X193639453Y-200140707D01*
X193889454Y-207269361D02*
G75*
G03X194335647Y-207630707I401061J39080D01*
G01*
X199079453Y-207460707D02*
X194329453Y-207630707D01*
X193919637Y-199842814D02*
G75*
G03X193639453Y-200130707I26761J-306331D01*
G01*
X199429952Y-207756623D02*
G75*
G03X199079453Y-207460707I-320499J-24084D01*
G01*
X198783537Y-199670706D02*
G75*
G03X199079453Y-199320207I-24084J320499D01*
G01*
X199094293Y-177682495D02*
X199012093Y-180172475D01*
X214879503Y-123838413D02*
X213908463Y-125930097D01*
X201699713Y-155980449D02*
X201192703Y-158302824D01*
X219795503Y-110787105D02*
X219125677Y-113045871D01*
X219125677Y-113045871D02*
X218385095Y-115264530D01*
X218385095Y-115264530D02*
X217581949Y-117448434D01*
X220388719Y-108482711D02*
X219795503Y-110787105D01*
X202274723Y-153687558D02*
X201699713Y-155980449D01*
X203620893Y-149190612D02*
X202916583Y-151424697D01*
X200367023Y-163027228D02*
X200039943Y-165424945D01*
X199764453Y-167843467D02*
X199536333Y-170280639D01*
X202418383Y-235278945D02*
X202838193Y-237396758D01*
X200749873Y-160652469D02*
X200367023Y-163027228D01*
X201192703Y-158302824D02*
X200749873Y-160652469D01*
X199205453Y-175202306D02*
X199094293Y-177682495D01*
X200485993Y-221897247D02*
X200743663Y-224202224D01*
X199429453Y-207760707D02*
X199526773Y-210013976D01*
X206063993Y-142648040D02*
X205199053Y-144803581D01*
X204383203Y-146984006D02*
X203620893Y-149190612D01*
X200743663Y-224202224D02*
X201025663Y-226479400D01*
X201666793Y-230943687D02*
X202028123Y-233127723D01*
X213908463Y-125930097D02*
X211910463Y-130084083D01*
X215820921Y-121730695D02*
X214879503Y-123838413D01*
X220901384Y-106129146D02*
X220388719Y-108482711D01*
X199526773Y-210013976D02*
X199848743Y-214832282D01*
X199351403Y-172734302D02*
X199205453Y-175202306D01*
X200251633Y-219566154D02*
X200485993Y-221897247D01*
X199536333Y-170280639D02*
X199351403Y-172734302D01*
X198916493Y-185171997D02*
X198904393Y-190183746D01*
X217581949Y-117448434D02*
X216724481Y-119602262D01*
X203768543Y-241529518D02*
X204171413Y-243423381D01*
X203288063Y-239480499D02*
X203768543Y-241529518D01*
X211910463Y-130084083D02*
X209892793Y-134230096D01*
X200039563Y-217210609D02*
X200251633Y-219566154D01*
X207921333Y-138405579D02*
X206973573Y-140516086D01*
X216724481Y-119602262D02*
X215820921Y-121730695D01*
X209892793Y-134230096D02*
X207921333Y-138405579D01*
X202838193Y-237396758D02*
X203288063Y-239480499D01*
X202916583Y-151424697D02*
X202274723Y-153687558D01*
X202028123Y-233127723D02*
X202418383Y-235278945D01*
X200039943Y-165424945D02*
X199764453Y-167843467D01*
X205199053Y-144803581D02*
X204383203Y-146984006D01*
X206973573Y-140516086D02*
X206063993Y-142648040D01*
X201333033Y-228727111D02*
X201666793Y-230943687D01*
X201025663Y-226479400D02*
X201333033Y-228727111D01*
X199848743Y-214832282D02*
X200039563Y-217210609D01*
X198779453Y-199670707D02*
X193919453Y-199840707D01*
X198959453Y-194790707D02*
X199079453Y-199310707D01*
X198904393Y-190183746D02*
X198959453Y-194810707D01*
X199012093Y-180172475D02*
X198916493Y-185171997D01*
X221707253Y-68510971D02*
X221805413Y-71302207D01*
X206668213Y-17072788D02*
X207373363Y-17434858D01*
X219674561Y-43510228D02*
X219934815Y-45375948D01*
X205939293Y-16740118D02*
X206668213Y-17072788D01*
X220622517Y-51442535D02*
X220821331Y-53625747D01*
X199138453Y-14989088D02*
X200087323Y-15128038D01*
X219106468Y-40005368D02*
X219398506Y-41720498D01*
X210580583Y-19751678D02*
X211165973Y-20329428D01*
X197154453Y-14768538D02*
X198160873Y-14869628D01*
X222094773Y-86670223D02*
X222113613Y-90035716D01*
X220408612Y-49340743D02*
X220622517Y-51442535D01*
X217404003Y-32508498D02*
X217776551Y-33868018D01*
X217015667Y-31215818D02*
X217404003Y-32508498D01*
X209357033Y-18716168D02*
X209977973Y-19214538D01*
X208716683Y-18254688D02*
X209357033Y-18716168D01*
X204405703Y-16155518D02*
X205185493Y-16434958D01*
X200087323Y-15128038D02*
X201007613Y-15287648D01*
X222063163Y-83403839D02*
X222094773Y-86670223D01*
X215306721Y-26681568D02*
X215757061Y-27722848D01*
X221960903Y-77162963D02*
X222018603Y-80235206D01*
X219398506Y-41720498D02*
X219674561Y-43510228D01*
X205185493Y-16434958D02*
X205939293Y-16740118D01*
X222018603Y-80235206D02*
X222063163Y-83403839D01*
X213354443Y-23089198D02*
X213864923Y-23904568D01*
X211735213Y-20949688D02*
X212289403Y-21614318D01*
X207373363Y-17434858D02*
X208055813Y-17828198D01*
X218798268Y-38363478D02*
X219106468Y-40005368D01*
X218133190Y-35295958D02*
X218473801Y-36793918D01*
X221595249Y-65810676D02*
X221707253Y-68510971D01*
X219934815Y-45375948D02*
X220179436Y-47319008D01*
X217776551Y-33868018D02*
X218133190Y-35295958D01*
X211165973Y-20329428D02*
X211735213Y-20949688D01*
X201007613Y-15287648D02*
X201899473Y-15469038D01*
X221328999Y-60677482D02*
X221469223Y-63199966D01*
X203598373Y-15901828D02*
X204405703Y-16155518D01*
X221329599Y-103722919D02*
X220901384Y-106129146D01*
X221669454Y-101260543D02*
X221329599Y-103722919D01*
X221469223Y-63199966D02*
X221595249Y-65810676D01*
X214360531Y-24774018D02*
X214841172Y-25699158D01*
X221917043Y-98738536D02*
X221669454Y-101260543D01*
X222005023Y-97454086D02*
X221917043Y-98738536D01*
X222068463Y-96153415D02*
X222005023Y-97454086D01*
X221174393Y-58241859D02*
X221328999Y-60677482D01*
X222113613Y-90035716D02*
X222119813Y-93501689D01*
X215757061Y-27722848D02*
X216192078Y-28824588D01*
X222106893Y-94836093D02*
X222068463Y-96153415D01*
X216192078Y-28824588D02*
X216611653Y-29988378D01*
X209977973Y-19214538D02*
X210580583Y-19751678D01*
X202763013Y-15673388D02*
X203598373Y-15901828D01*
X214841172Y-25699158D02*
X215306721Y-26681568D01*
X221805413Y-71302207D02*
X221889903Y-74185752D01*
X221005230Y-55891731D02*
X221174393Y-58241859D01*
X220821331Y-53625747D02*
X221005230Y-55891731D01*
X221889903Y-74185752D02*
X221960903Y-77162963D01*
X220179436Y-47319008D02*
X220408612Y-49340743D01*
X216611653Y-29988378D02*
X217015667Y-31215818D01*
X212829233Y-22326318D02*
X213354443Y-23089198D01*
X208055813Y-17828198D02*
X208716683Y-18254688D01*
X218473801Y-36793918D02*
X218798268Y-38363478D01*
X213864923Y-23904568D02*
X214360531Y-24774018D01*
X212289403Y-21614318D02*
X212829233Y-22326318D01*
X198160873Y-14869628D02*
X199138453Y-14989088D01*
X201899473Y-15469038D02*
X202763013Y-15673388D01*
X222119813Y-93501689D02*
X222106893Y-94836093D01*
X123902013Y-76424636D02*
X124344973Y-74887313D01*
X142485773Y-45295668D02*
X144794833Y-42410278D01*
X129461763Y-63619216D02*
X130288553Y-62241317D01*
X128673253Y-64996360D02*
X129461763Y-63619216D01*
X125362563Y-71952224D02*
X125937253Y-70535270D01*
X162803093Y-23151668D02*
X164349673Y-21983548D01*
X158493163Y-26922658D02*
X159881763Y-25626438D01*
X180384393Y-15198428D02*
X181719803Y-14986378D01*
X177867623Y-15717428D02*
X179101363Y-15442748D01*
X186071253Y-14563238D02*
X187647103Y-14499638D01*
X144794833Y-42410278D02*
X147147813Y-39520338D01*
X192837713Y-14524738D02*
X193960823Y-14563938D01*
X184560153Y-14666838D02*
X186071253Y-14563238D01*
X183110693Y-14808538D02*
X184560153Y-14666838D01*
X155825403Y-29606758D02*
X157143353Y-28251168D01*
X196119063Y-14684638D02*
X197154453Y-14768538D01*
X195054563Y-14616838D02*
X196119063Y-14684638D01*
X193960823Y-14563938D02*
X195054563Y-14616838D01*
X174430593Y-16705128D02*
X175535113Y-16350098D01*
X176680023Y-16020478D02*
X177867623Y-15717428D01*
X132979893Y-58087661D02*
X133941063Y-56691306D01*
X127924903Y-66374305D02*
X128673253Y-64996360D01*
X191685093Y-14498138D02*
X192837713Y-14524738D01*
X190502823Y-14483038D02*
X191685093Y-14498138D01*
X189290793Y-14478038D02*
X190502823Y-14483038D01*
X169440703Y-18824238D02*
X170374603Y-18358098D01*
X138048833Y-51032660D02*
X140232753Y-48171428D01*
X167654413Y-19812518D02*
X168534673Y-19309388D01*
X123502893Y-78021270D02*
X123902013Y-76424636D01*
X157143353Y-28251168D02*
X158493163Y-26922658D01*
X133941063Y-56691306D02*
X135947093Y-53874465D01*
X135947093Y-53874465D02*
X138048833Y-51032660D01*
X187647103Y-14499638D02*
X189290793Y-14478038D01*
X181719803Y-14986378D02*
X183110693Y-14808538D01*
X179101363Y-15442748D02*
X180384393Y-15198428D01*
X175535113Y-16350098D02*
X176680023Y-16020478D01*
X173364363Y-17084508D02*
X174430593Y-16705128D01*
X172334353Y-17487168D02*
X173364363Y-17084508D01*
X171338463Y-17912068D02*
X172334353Y-17487168D01*
X170374603Y-18358098D02*
X171338463Y-17912068D01*
X164349673Y-21983548D02*
X165962903Y-20868418D01*
X168534673Y-19309388D02*
X169440703Y-18824238D01*
X154532413Y-30984218D02*
X155825403Y-29606758D01*
X140232753Y-48171428D02*
X142485773Y-45295668D01*
X122442323Y-84288367D02*
X122563203Y-83309668D01*
X122834823Y-81445243D02*
X123147533Y-79688826D01*
X122331133Y-85301249D02*
X122442323Y-84288367D01*
X149547693Y-36639798D02*
X152005533Y-33787968D01*
X165962903Y-20868418D02*
X167654413Y-19812518D01*
X161316103Y-24367698D02*
X162803093Y-23151668D01*
X131151753Y-60861121D02*
X132049493Y-59477088D01*
X122693973Y-82362761D02*
X122834823Y-81445243D01*
X147147813Y-39520338D02*
X149547693Y-36639798D01*
X126555913Y-69139251D02*
X127218583Y-67754592D01*
X125937253Y-70535270D02*
X126555913Y-69139251D01*
X132049493Y-59477088D02*
X132979893Y-58087661D01*
X127218583Y-67754592D02*
X127924903Y-66374305D01*
X122563203Y-83309668D02*
X122693973Y-82362761D01*
X124344973Y-74887313D02*
X124831813Y-73399703D01*
X159881763Y-25626438D02*
X161316103Y-24367698D01*
X152005533Y-33787968D02*
X154532413Y-30984218D01*
X130288553Y-62241317D02*
X131151753Y-60861121D01*
X124831813Y-73399703D02*
X125362563Y-71952224D01*
X123147533Y-79688826D02*
X123502893Y-78021270D01*
X163604743Y-281085788D02*
X161745843Y-280542828D01*
X203821013Y-256880638D02*
X203319373Y-258751108D01*
X156405873Y-278271438D02*
X154725433Y-277308918D01*
X204211493Y-254983838D02*
X203821013Y-256880638D01*
X142911543Y-264770068D02*
X142050693Y-263035348D01*
X167402323Y-281838518D02*
X165492433Y-281518178D01*
X199217993Y-267485268D02*
X198099073Y-269065878D01*
X158140133Y-279133208D02*
X156405873Y-278271438D01*
X140642953Y-259428898D02*
X140100973Y-257569708D01*
X178953473Y-281372668D02*
X177050953Y-281734238D01*
X144932283Y-268072308D02*
X143873193Y-266450998D01*
X201166833Y-264140088D02*
X200241763Y-265841428D01*
X177050953Y-281734238D02*
X175130423Y-281983008D01*
X201989973Y-262387158D02*
X201166833Y-264140088D01*
X186252463Y-278829248D02*
X184487213Y-279625618D01*
X146085133Y-269628348D02*
X144932283Y-268072308D01*
X165492433Y-281518178D02*
X163604743Y-281085788D01*
X169327783Y-282045688D02*
X167402323Y-281838518D01*
X204489443Y-253067308D02*
X204211493Y-254983838D01*
X173198563Y-282118088D02*
X171262113Y-282138988D01*
X196888903Y-270577758D02*
X195591683Y-272015648D01*
X203319373Y-258751108D02*
X202708323Y-260588738D01*
X192754473Y-274649748D02*
X191224353Y-275836778D01*
X142050693Y-263035348D02*
X141293613Y-261252888D01*
X161745843Y-280542828D02*
X159922193Y-279891218D01*
X175130423Y-281983008D02*
X173198563Y-282118088D01*
X147327723Y-271113698D02*
X146085133Y-269628348D01*
X198099073Y-269065878D02*
X196888903Y-270577758D01*
X150064543Y-273851948D02*
X148655733Y-272523208D01*
X139554343Y-241902243D02*
X139671823Y-239866858D01*
X139209863Y-246043590D02*
X139400773Y-243960402D01*
X148655733Y-272523208D02*
X147327723Y-271113698D01*
X189626903Y-276931528D02*
X187967683Y-277930168D01*
X139400773Y-243960402D02*
X139554343Y-241902243D01*
X139073763Y-247975364D02*
X139209863Y-246043590D01*
X151549243Y-275095318D02*
X150064543Y-273851948D01*
X139051763Y-249911808D02*
X139073763Y-247975364D01*
X184487213Y-279625618D02*
X182678083Y-280316518D01*
X139144063Y-251846178D02*
X139051763Y-249911808D01*
X182678083Y-280316518D02*
X180831363Y-280899558D01*
X139350233Y-253771748D02*
X139144063Y-251846178D01*
X187967683Y-277930168D02*
X186252463Y-278829248D01*
X200241763Y-265841428D02*
X199217993Y-267485268D01*
X139669573Y-255681798D02*
X139350233Y-253771748D01*
X153104683Y-276248978D02*
X151549243Y-275095318D01*
X154725433Y-277308918D02*
X153104683Y-276248978D01*
X140100973Y-257569708D02*
X139669573Y-255681798D01*
X159922193Y-279891218D02*
X158140133Y-279133208D01*
X180831363Y-280899558D02*
X178953473Y-281372668D01*
X194211943Y-273374558D02*
X192754473Y-274649748D01*
X202708323Y-260588738D02*
X201989973Y-262387158D01*
X141293613Y-261252888D02*
X140642953Y-259428898D01*
X195591683Y-272015648D02*
X194211943Y-273374558D01*
X171262113Y-282138988D02*
X169327783Y-282045688D01*
X143873193Y-266450998D02*
X142911543Y-264770068D01*
X191224353Y-275836778D02*
X189626903Y-276931528D01*
X204653913Y-251137738D02*
X204489443Y-253067308D01*
X204704313Y-249201818D02*
X204653913Y-251137738D01*
X204640513Y-247266307D02*
X204704313Y-249201818D01*
X204462663Y-245337920D02*
X204640513Y-247266307D01*
X204171413Y-243423381D02*
X204462663Y-245337920D01*
X139671823Y-239866858D02*
X139754423Y-237852019D01*
X132971443Y-169071627D02*
X132567733Y-166838506D01*
X136865193Y-199524997D02*
X136604723Y-197280589D01*
X137122673Y-201735328D02*
X136865193Y-199524997D01*
X138568423Y-214291518D02*
X138113423Y-210229724D01*
X126972883Y-145514760D02*
X125906483Y-142018834D01*
X129161953Y-152671978D02*
X128617283Y-150842404D01*
X121638283Y-113875151D02*
X121632283Y-112529628D01*
X121690083Y-116484357D02*
X121657783Y-115193251D01*
X121856753Y-92230410D02*
X121913853Y-90962176D01*
X132567733Y-166838506D02*
X132140403Y-164657418D01*
X121807953Y-93549964D02*
X121856753Y-92230410D01*
X121634653Y-108356189D02*
X121637653Y-106405070D01*
X121632653Y-110396441D02*
X121634653Y-108356189D01*
X130222733Y-156458763D02*
X129698453Y-154541464D01*
X121766753Y-94924517D02*
X121807953Y-93549964D01*
X121732553Y-96357867D02*
X121766753Y-94924517D01*
X121704653Y-97853808D02*
X121732553Y-96357867D01*
X122037603Y-122550290D02*
X121862153Y-120200087D01*
X121735083Y-117748906D02*
X121690083Y-116484357D01*
X135538423Y-187978068D02*
X134976483Y-183193454D01*
X137376763Y-203911101D02*
X137122673Y-201735328D01*
X121682453Y-99416125D02*
X121704653Y-97853808D01*
X121665353Y-101048621D02*
X121682453Y-99416125D01*
X121652653Y-102755080D02*
X121665353Y-101048621D01*
X123568053Y-132979754D02*
X123184553Y-131042443D01*
X133710393Y-173674594D02*
X133351553Y-171353234D01*
X124428953Y-136696203D02*
X123983913Y-134861253D01*
X139761123Y-229953582D02*
X139588783Y-226067580D01*
X129698453Y-154541464D02*
X129161953Y-152671978D01*
X134976483Y-183193454D02*
X134372933Y-178403750D01*
X134372933Y-178403750D02*
X133710393Y-173674594D01*
X121643653Y-104539302D02*
X121652653Y-102755080D01*
X121637653Y-106405070D02*
X121643653Y-104539302D01*
X121632283Y-112529628D02*
X121632653Y-110396441D01*
X121657783Y-115193251D02*
X121638283Y-113875151D01*
X121862153Y-120200087D02*
X121735083Y-117748906D01*
X122260003Y-124803006D02*
X122037603Y-122550290D01*
X122527353Y-126963332D02*
X122260003Y-124803006D01*
X122836593Y-129040057D02*
X122527353Y-126963332D01*
X125906483Y-142018834D02*
X124900013Y-138493868D01*
X123184553Y-131042443D02*
X122836593Y-129040057D01*
X130730633Y-158429036D02*
X130222733Y-156458763D01*
X123983913Y-134861253D02*
X123568053Y-132979754D01*
X133351553Y-171353234D02*
X132971443Y-169071627D01*
X124900013Y-138493868D02*
X124428953Y-136696203D01*
X139820023Y-233875083D02*
X139805523Y-231908515D01*
X131690863Y-162528631D02*
X131220473Y-160452414D01*
X128068323Y-149044903D02*
X126972883Y-145514760D01*
X128617283Y-150842404D02*
X128068323Y-149044903D01*
X136341653Y-195002585D02*
X136076383Y-192691470D01*
X139803423Y-235855506D02*
X139820023Y-233875083D01*
X132140403Y-164657418D02*
X131690863Y-162528631D01*
X137873153Y-208157180D02*
X137627073Y-206051833D01*
X138113423Y-210229724D02*
X137873153Y-208157180D01*
X136076383Y-192691470D02*
X135538423Y-187978068D01*
X137627073Y-206051833D02*
X137376763Y-203911101D01*
X139754423Y-237852019D02*
X139803423Y-235855506D01*
X139321693Y-222181891D02*
X138976373Y-218266059D01*
X131220473Y-160452414D02*
X130730633Y-158429036D01*
X136604723Y-197280589D02*
X136341653Y-195002585D01*
X138976373Y-218266059D02*
X138568423Y-214291518D01*
X139588783Y-226067580D02*
X139321693Y-222181891D01*
X139805523Y-231908515D02*
X139761123Y-229953582D01*
X122137053Y-87439135D02*
X122229453Y-86350707D01*
X122053753Y-88568927D02*
X122137053Y-87439135D01*
X121913853Y-90962176D02*
X121979453Y-89742476D01*
X121979453Y-89742476D02*
X122053753Y-88568927D01*
X122229453Y-86350707D02*
X122331133Y-85301249D01*
M02*
