G04 #@! TF.GenerationSoftware,KiCad,Pcbnew,(5.0.0)*
G04 #@! TF.CreationDate,2019-11-18T10:43:10+01:00*
G04 #@! TF.ProjectId,Insole_PCB,496E736F6C655F5043422E6B69636164,rev?*
G04 #@! TF.SameCoordinates,Original*
G04 #@! TF.FileFunction,Paste,Bot*
G04 #@! TF.FilePolarity,Positive*
%FSLAX46Y46*%
G04 Gerber Fmt 4.6, Leading zero omitted, Abs format (unit mm)*
G04 Created by KiCad (PCBNEW (5.0.0)) date 11/18/19 10:43:10*
%MOMM*%
%LPD*%
G01*
G04 APERTURE LIST*
%ADD10R,0.675000X0.250000*%
%ADD11R,0.250000X0.675000*%
%ADD12C,0.100000*%
%ADD13C,0.875000*%
%ADD14C,1.150000*%
%ADD15C,0.450000*%
%ADD16R,1.500000X0.450000*%
%ADD17R,0.450000X1.500000*%
%ADD18R,0.800000X0.900000*%
%ADD19C,0.650000*%
%ADD20C,0.410000*%
%ADD21C,1.800000*%
%ADD22C,0.500000*%
%ADD23C,0.400000*%
%ADD24C,0.800000*%
G04 APERTURE END LIST*
D10*
G04 #@! TO.C,U2*
X189291953Y-166200707D03*
X189291953Y-166700707D03*
X189291953Y-167200707D03*
X189291953Y-167700707D03*
X186766953Y-167700707D03*
X186766953Y-167200707D03*
X186766953Y-166700707D03*
X186766953Y-166200707D03*
D11*
X188529453Y-167963207D03*
X188029453Y-167963207D03*
X187529453Y-167963207D03*
X188529453Y-165938207D03*
X187529453Y-165938207D03*
X188029453Y-165938207D03*
G04 #@! TD*
D12*
G04 #@! TO.C,C1*
G36*
X191652359Y-192983196D02*
X191673496Y-192986947D01*
X191694163Y-192992751D01*
X191714162Y-193000554D01*
X191733300Y-193010279D01*
X191751393Y-193021833D01*
X191768266Y-193035104D01*
X191783757Y-193049966D01*
X191797716Y-193066275D01*
X191810010Y-193083873D01*
X191820520Y-193102591D01*
X191829144Y-193122250D01*
X191835800Y-193142659D01*
X191840424Y-193163622D01*
X191842970Y-193184938D01*
X191873488Y-193621372D01*
X191873933Y-193642834D01*
X191872272Y-193664237D01*
X191868521Y-193685374D01*
X191862717Y-193706042D01*
X191854914Y-193726041D01*
X191845189Y-193745179D01*
X191833635Y-193763271D01*
X191820364Y-193780144D01*
X191805502Y-193795635D01*
X191789193Y-193809594D01*
X191771595Y-193821888D01*
X191752877Y-193832398D01*
X191733218Y-193841022D01*
X191712809Y-193847678D01*
X191691846Y-193852302D01*
X191670530Y-193854848D01*
X191159278Y-193890598D01*
X191137816Y-193891043D01*
X191116413Y-193889382D01*
X191095276Y-193885631D01*
X191074609Y-193879827D01*
X191054610Y-193872024D01*
X191035472Y-193862299D01*
X191017379Y-193850745D01*
X191000506Y-193837474D01*
X190985015Y-193822612D01*
X190971056Y-193806303D01*
X190958762Y-193788705D01*
X190948252Y-193769987D01*
X190939628Y-193750328D01*
X190932972Y-193729919D01*
X190928348Y-193708956D01*
X190925802Y-193687640D01*
X190895284Y-193251206D01*
X190894839Y-193229744D01*
X190896500Y-193208341D01*
X190900251Y-193187204D01*
X190906055Y-193166536D01*
X190913858Y-193146537D01*
X190923583Y-193127399D01*
X190935137Y-193109307D01*
X190948408Y-193092434D01*
X190963270Y-193076943D01*
X190979579Y-193062984D01*
X190997177Y-193050690D01*
X191015895Y-193040180D01*
X191035554Y-193031556D01*
X191055963Y-193024900D01*
X191076926Y-193020276D01*
X191098242Y-193017730D01*
X191609494Y-192981980D01*
X191630956Y-192981535D01*
X191652359Y-192983196D01*
X191652359Y-192983196D01*
G37*
D13*
X191384386Y-193436289D03*
D12*
G36*
X191542493Y-191412032D02*
X191563630Y-191415783D01*
X191584297Y-191421587D01*
X191604296Y-191429390D01*
X191623434Y-191439115D01*
X191641527Y-191450669D01*
X191658400Y-191463940D01*
X191673891Y-191478802D01*
X191687850Y-191495111D01*
X191700144Y-191512709D01*
X191710654Y-191531427D01*
X191719278Y-191551086D01*
X191725934Y-191571495D01*
X191730558Y-191592458D01*
X191733104Y-191613774D01*
X191763622Y-192050208D01*
X191764067Y-192071670D01*
X191762406Y-192093073D01*
X191758655Y-192114210D01*
X191752851Y-192134878D01*
X191745048Y-192154877D01*
X191735323Y-192174015D01*
X191723769Y-192192107D01*
X191710498Y-192208980D01*
X191695636Y-192224471D01*
X191679327Y-192238430D01*
X191661729Y-192250724D01*
X191643011Y-192261234D01*
X191623352Y-192269858D01*
X191602943Y-192276514D01*
X191581980Y-192281138D01*
X191560664Y-192283684D01*
X191049412Y-192319434D01*
X191027950Y-192319879D01*
X191006547Y-192318218D01*
X190985410Y-192314467D01*
X190964743Y-192308663D01*
X190944744Y-192300860D01*
X190925606Y-192291135D01*
X190907513Y-192279581D01*
X190890640Y-192266310D01*
X190875149Y-192251448D01*
X190861190Y-192235139D01*
X190848896Y-192217541D01*
X190838386Y-192198823D01*
X190829762Y-192179164D01*
X190823106Y-192158755D01*
X190818482Y-192137792D01*
X190815936Y-192116476D01*
X190785418Y-191680042D01*
X190784973Y-191658580D01*
X190786634Y-191637177D01*
X190790385Y-191616040D01*
X190796189Y-191595372D01*
X190803992Y-191575373D01*
X190813717Y-191556235D01*
X190825271Y-191538143D01*
X190838542Y-191521270D01*
X190853404Y-191505779D01*
X190869713Y-191491820D01*
X190887311Y-191479526D01*
X190906029Y-191469016D01*
X190925688Y-191460392D01*
X190946097Y-191453736D01*
X190967060Y-191449112D01*
X190988376Y-191446566D01*
X191499628Y-191410816D01*
X191521090Y-191410371D01*
X191542493Y-191412032D01*
X191542493Y-191412032D01*
G37*
D13*
X191274520Y-191865125D03*
G04 #@! TD*
D12*
G04 #@! TO.C,C2*
G36*
X170845690Y-186630961D02*
X170866767Y-186635034D01*
X170887343Y-186641153D01*
X170907221Y-186649260D01*
X170926208Y-186659276D01*
X170944122Y-186671105D01*
X170960790Y-186684633D01*
X170976052Y-186699730D01*
X170989761Y-186716249D01*
X171001785Y-186734033D01*
X171012008Y-186752910D01*
X171020331Y-186772698D01*
X171169965Y-187183813D01*
X171176308Y-187204321D01*
X171180611Y-187225353D01*
X171182832Y-187246705D01*
X171182949Y-187268172D01*
X171180961Y-187289546D01*
X171176888Y-187310624D01*
X171170769Y-187331200D01*
X171162662Y-187351078D01*
X171152646Y-187370065D01*
X171140817Y-187387979D01*
X171127289Y-187404647D01*
X171112192Y-187419909D01*
X171095673Y-187433618D01*
X171077889Y-187445642D01*
X171059012Y-187455865D01*
X171039224Y-187464188D01*
X170557632Y-187639473D01*
X170537123Y-187645816D01*
X170516092Y-187650119D01*
X170494740Y-187652340D01*
X170473273Y-187652457D01*
X170451898Y-187650469D01*
X170430821Y-187646396D01*
X170410245Y-187640277D01*
X170390367Y-187632170D01*
X170371380Y-187622154D01*
X170353466Y-187610325D01*
X170336798Y-187596797D01*
X170321536Y-187581700D01*
X170307827Y-187565181D01*
X170295803Y-187547397D01*
X170285580Y-187528520D01*
X170277257Y-187508732D01*
X170127623Y-187097617D01*
X170121280Y-187077109D01*
X170116977Y-187056077D01*
X170114756Y-187034725D01*
X170114639Y-187013258D01*
X170116627Y-186991884D01*
X170120700Y-186970806D01*
X170126819Y-186950230D01*
X170134926Y-186930352D01*
X170144942Y-186911365D01*
X170156771Y-186893451D01*
X170170299Y-186876783D01*
X170185396Y-186861521D01*
X170201915Y-186847812D01*
X170219699Y-186835788D01*
X170238576Y-186825565D01*
X170258364Y-186817242D01*
X170739956Y-186641957D01*
X170760465Y-186635614D01*
X170781496Y-186631311D01*
X170802848Y-186629090D01*
X170824315Y-186628973D01*
X170845690Y-186630961D01*
X170845690Y-186630961D01*
G37*
D13*
X170648794Y-187140715D03*
D12*
G36*
X170307008Y-185150945D02*
X170328085Y-185155018D01*
X170348661Y-185161137D01*
X170368539Y-185169244D01*
X170387526Y-185179260D01*
X170405440Y-185191089D01*
X170422108Y-185204617D01*
X170437370Y-185219714D01*
X170451079Y-185236233D01*
X170463103Y-185254017D01*
X170473326Y-185272894D01*
X170481649Y-185292682D01*
X170631283Y-185703797D01*
X170637626Y-185724305D01*
X170641929Y-185745337D01*
X170644150Y-185766689D01*
X170644267Y-185788156D01*
X170642279Y-185809530D01*
X170638206Y-185830608D01*
X170632087Y-185851184D01*
X170623980Y-185871062D01*
X170613964Y-185890049D01*
X170602135Y-185907963D01*
X170588607Y-185924631D01*
X170573510Y-185939893D01*
X170556991Y-185953602D01*
X170539207Y-185965626D01*
X170520330Y-185975849D01*
X170500542Y-185984172D01*
X170018950Y-186159457D01*
X169998441Y-186165800D01*
X169977410Y-186170103D01*
X169956058Y-186172324D01*
X169934591Y-186172441D01*
X169913216Y-186170453D01*
X169892139Y-186166380D01*
X169871563Y-186160261D01*
X169851685Y-186152154D01*
X169832698Y-186142138D01*
X169814784Y-186130309D01*
X169798116Y-186116781D01*
X169782854Y-186101684D01*
X169769145Y-186085165D01*
X169757121Y-186067381D01*
X169746898Y-186048504D01*
X169738575Y-186028716D01*
X169588941Y-185617601D01*
X169582598Y-185597093D01*
X169578295Y-185576061D01*
X169576074Y-185554709D01*
X169575957Y-185533242D01*
X169577945Y-185511868D01*
X169582018Y-185490790D01*
X169588137Y-185470214D01*
X169596244Y-185450336D01*
X169606260Y-185431349D01*
X169618089Y-185413435D01*
X169631617Y-185396767D01*
X169646714Y-185381505D01*
X169663233Y-185367796D01*
X169681017Y-185355772D01*
X169699894Y-185345549D01*
X169719682Y-185337226D01*
X170201274Y-185161941D01*
X170221783Y-185155598D01*
X170242814Y-185151295D01*
X170264166Y-185149074D01*
X170285633Y-185148957D01*
X170307008Y-185150945D01*
X170307008Y-185150945D01*
G37*
D13*
X170110112Y-185660699D03*
G04 #@! TD*
D12*
G04 #@! TO.C,C3*
G36*
X186052862Y-185099518D02*
X186073930Y-185103637D01*
X186094493Y-185109801D01*
X186114353Y-185117951D01*
X186133318Y-185128009D01*
X186151207Y-185139877D01*
X186167845Y-185153441D01*
X186183074Y-185168571D01*
X186196747Y-185185121D01*
X186208732Y-185202931D01*
X186218914Y-185221830D01*
X186227194Y-185241636D01*
X186233492Y-185262158D01*
X186237749Y-185283199D01*
X186239923Y-185304555D01*
X186262820Y-185741455D01*
X186262890Y-185762922D01*
X186260856Y-185784293D01*
X186256737Y-185805361D01*
X186250573Y-185825924D01*
X186242423Y-185845784D01*
X186232365Y-185864749D01*
X186220497Y-185882638D01*
X186206933Y-185899276D01*
X186191803Y-185914505D01*
X186175254Y-185928178D01*
X186157443Y-185940163D01*
X186138544Y-185950345D01*
X186118738Y-185958624D01*
X186098216Y-185964923D01*
X186077175Y-185969180D01*
X186055818Y-185971354D01*
X185544021Y-185998176D01*
X185522554Y-185998246D01*
X185501184Y-185996212D01*
X185480116Y-185992093D01*
X185459553Y-185985929D01*
X185439693Y-185977779D01*
X185420728Y-185967721D01*
X185402839Y-185955853D01*
X185386201Y-185942289D01*
X185370972Y-185927159D01*
X185357299Y-185910609D01*
X185345314Y-185892799D01*
X185335132Y-185873900D01*
X185326852Y-185854094D01*
X185320554Y-185833572D01*
X185316297Y-185812531D01*
X185314123Y-185791175D01*
X185291226Y-185354275D01*
X185291156Y-185332808D01*
X185293190Y-185311437D01*
X185297309Y-185290369D01*
X185303473Y-185269806D01*
X185311623Y-185249946D01*
X185321681Y-185230981D01*
X185333549Y-185213092D01*
X185347113Y-185196454D01*
X185362243Y-185181225D01*
X185378792Y-185167552D01*
X185396603Y-185155567D01*
X185415502Y-185145385D01*
X185435308Y-185137106D01*
X185455830Y-185130807D01*
X185476871Y-185126550D01*
X185498228Y-185124376D01*
X186010025Y-185097554D01*
X186031492Y-185097484D01*
X186052862Y-185099518D01*
X186052862Y-185099518D01*
G37*
D13*
X185777023Y-185547865D03*
D12*
G36*
X186135292Y-186672360D02*
X186156360Y-186676479D01*
X186176923Y-186682643D01*
X186196783Y-186690793D01*
X186215748Y-186700851D01*
X186233637Y-186712719D01*
X186250275Y-186726283D01*
X186265504Y-186741413D01*
X186279177Y-186757963D01*
X186291162Y-186775773D01*
X186301344Y-186794672D01*
X186309624Y-186814478D01*
X186315922Y-186835000D01*
X186320179Y-186856041D01*
X186322353Y-186877397D01*
X186345250Y-187314297D01*
X186345320Y-187335764D01*
X186343286Y-187357135D01*
X186339167Y-187378203D01*
X186333003Y-187398766D01*
X186324853Y-187418626D01*
X186314795Y-187437591D01*
X186302927Y-187455480D01*
X186289363Y-187472118D01*
X186274233Y-187487347D01*
X186257684Y-187501020D01*
X186239873Y-187513005D01*
X186220974Y-187523187D01*
X186201168Y-187531466D01*
X186180646Y-187537765D01*
X186159605Y-187542022D01*
X186138248Y-187544196D01*
X185626451Y-187571018D01*
X185604984Y-187571088D01*
X185583614Y-187569054D01*
X185562546Y-187564935D01*
X185541983Y-187558771D01*
X185522123Y-187550621D01*
X185503158Y-187540563D01*
X185485269Y-187528695D01*
X185468631Y-187515131D01*
X185453402Y-187500001D01*
X185439729Y-187483451D01*
X185427744Y-187465641D01*
X185417562Y-187446742D01*
X185409282Y-187426936D01*
X185402984Y-187406414D01*
X185398727Y-187385373D01*
X185396553Y-187364017D01*
X185373656Y-186927117D01*
X185373586Y-186905650D01*
X185375620Y-186884279D01*
X185379739Y-186863211D01*
X185385903Y-186842648D01*
X185394053Y-186822788D01*
X185404111Y-186803823D01*
X185415979Y-186785934D01*
X185429543Y-186769296D01*
X185444673Y-186754067D01*
X185461222Y-186740394D01*
X185479033Y-186728409D01*
X185497932Y-186718227D01*
X185517738Y-186709948D01*
X185538260Y-186703649D01*
X185559301Y-186699392D01*
X185580658Y-186697218D01*
X186092455Y-186670396D01*
X186113922Y-186670326D01*
X186135292Y-186672360D01*
X186135292Y-186672360D01*
G37*
D13*
X185859453Y-187120707D03*
G04 #@! TD*
D12*
G04 #@! TO.C,C4*
G36*
X190828565Y-177502955D02*
X190849702Y-177506706D01*
X190870370Y-177512510D01*
X190890369Y-177520313D01*
X190909507Y-177530038D01*
X190927599Y-177541592D01*
X190944472Y-177554863D01*
X190959963Y-177569725D01*
X190973922Y-177586034D01*
X190986216Y-177603632D01*
X190996726Y-177622350D01*
X191005350Y-177642009D01*
X191012006Y-177662418D01*
X191016630Y-177683381D01*
X191019176Y-177704697D01*
X191054926Y-178215949D01*
X191055371Y-178237411D01*
X191053710Y-178258814D01*
X191049959Y-178279951D01*
X191044155Y-178300618D01*
X191036352Y-178320617D01*
X191026627Y-178339755D01*
X191015073Y-178357848D01*
X191001802Y-178374721D01*
X190986940Y-178390212D01*
X190970631Y-178404171D01*
X190953033Y-178416465D01*
X190934315Y-178426975D01*
X190914656Y-178435599D01*
X190894247Y-178442255D01*
X190873284Y-178446879D01*
X190851968Y-178449425D01*
X190415534Y-178479943D01*
X190394072Y-178480388D01*
X190372669Y-178478727D01*
X190351532Y-178474976D01*
X190330864Y-178469172D01*
X190310865Y-178461369D01*
X190291727Y-178451644D01*
X190273635Y-178440090D01*
X190256762Y-178426819D01*
X190241271Y-178411957D01*
X190227312Y-178395648D01*
X190215018Y-178378050D01*
X190204508Y-178359332D01*
X190195884Y-178339673D01*
X190189228Y-178319264D01*
X190184604Y-178298301D01*
X190182058Y-178276985D01*
X190146308Y-177765733D01*
X190145863Y-177744271D01*
X190147524Y-177722868D01*
X190151275Y-177701731D01*
X190157079Y-177681064D01*
X190164882Y-177661065D01*
X190174607Y-177641927D01*
X190186161Y-177623834D01*
X190199432Y-177606961D01*
X190214294Y-177591470D01*
X190230603Y-177577511D01*
X190248201Y-177565217D01*
X190266919Y-177554707D01*
X190286578Y-177546083D01*
X190306987Y-177539427D01*
X190327950Y-177534803D01*
X190349266Y-177532257D01*
X190785700Y-177501739D01*
X190807162Y-177501294D01*
X190828565Y-177502955D01*
X190828565Y-177502955D01*
G37*
D13*
X190600617Y-177990841D03*
D12*
G36*
X189257401Y-177612821D02*
X189278538Y-177616572D01*
X189299206Y-177622376D01*
X189319205Y-177630179D01*
X189338343Y-177639904D01*
X189356435Y-177651458D01*
X189373308Y-177664729D01*
X189388799Y-177679591D01*
X189402758Y-177695900D01*
X189415052Y-177713498D01*
X189425562Y-177732216D01*
X189434186Y-177751875D01*
X189440842Y-177772284D01*
X189445466Y-177793247D01*
X189448012Y-177814563D01*
X189483762Y-178325815D01*
X189484207Y-178347277D01*
X189482546Y-178368680D01*
X189478795Y-178389817D01*
X189472991Y-178410484D01*
X189465188Y-178430483D01*
X189455463Y-178449621D01*
X189443909Y-178467714D01*
X189430638Y-178484587D01*
X189415776Y-178500078D01*
X189399467Y-178514037D01*
X189381869Y-178526331D01*
X189363151Y-178536841D01*
X189343492Y-178545465D01*
X189323083Y-178552121D01*
X189302120Y-178556745D01*
X189280804Y-178559291D01*
X188844370Y-178589809D01*
X188822908Y-178590254D01*
X188801505Y-178588593D01*
X188780368Y-178584842D01*
X188759700Y-178579038D01*
X188739701Y-178571235D01*
X188720563Y-178561510D01*
X188702471Y-178549956D01*
X188685598Y-178536685D01*
X188670107Y-178521823D01*
X188656148Y-178505514D01*
X188643854Y-178487916D01*
X188633344Y-178469198D01*
X188624720Y-178449539D01*
X188618064Y-178429130D01*
X188613440Y-178408167D01*
X188610894Y-178386851D01*
X188575144Y-177875599D01*
X188574699Y-177854137D01*
X188576360Y-177832734D01*
X188580111Y-177811597D01*
X188585915Y-177790930D01*
X188593718Y-177770931D01*
X188603443Y-177751793D01*
X188614997Y-177733700D01*
X188628268Y-177716827D01*
X188643130Y-177701336D01*
X188659439Y-177687377D01*
X188677037Y-177675083D01*
X188695755Y-177664573D01*
X188715414Y-177655949D01*
X188735823Y-177649293D01*
X188756786Y-177644669D01*
X188778102Y-177642123D01*
X189214536Y-177611605D01*
X189235998Y-177611160D01*
X189257401Y-177612821D01*
X189257401Y-177612821D01*
G37*
D13*
X189029453Y-178100707D03*
G04 #@! TD*
D12*
G04 #@! TO.C,C5*
G36*
X172295690Y-186080961D02*
X172316767Y-186085034D01*
X172337343Y-186091153D01*
X172357221Y-186099260D01*
X172376208Y-186109276D01*
X172394122Y-186121105D01*
X172410790Y-186134633D01*
X172426052Y-186149730D01*
X172439761Y-186166249D01*
X172451785Y-186184033D01*
X172462008Y-186202910D01*
X172470331Y-186222698D01*
X172619965Y-186633813D01*
X172626308Y-186654321D01*
X172630611Y-186675353D01*
X172632832Y-186696705D01*
X172632949Y-186718172D01*
X172630961Y-186739546D01*
X172626888Y-186760624D01*
X172620769Y-186781200D01*
X172612662Y-186801078D01*
X172602646Y-186820065D01*
X172590817Y-186837979D01*
X172577289Y-186854647D01*
X172562192Y-186869909D01*
X172545673Y-186883618D01*
X172527889Y-186895642D01*
X172509012Y-186905865D01*
X172489224Y-186914188D01*
X172007632Y-187089473D01*
X171987123Y-187095816D01*
X171966092Y-187100119D01*
X171944740Y-187102340D01*
X171923273Y-187102457D01*
X171901898Y-187100469D01*
X171880821Y-187096396D01*
X171860245Y-187090277D01*
X171840367Y-187082170D01*
X171821380Y-187072154D01*
X171803466Y-187060325D01*
X171786798Y-187046797D01*
X171771536Y-187031700D01*
X171757827Y-187015181D01*
X171745803Y-186997397D01*
X171735580Y-186978520D01*
X171727257Y-186958732D01*
X171577623Y-186547617D01*
X171571280Y-186527109D01*
X171566977Y-186506077D01*
X171564756Y-186484725D01*
X171564639Y-186463258D01*
X171566627Y-186441884D01*
X171570700Y-186420806D01*
X171576819Y-186400230D01*
X171584926Y-186380352D01*
X171594942Y-186361365D01*
X171606771Y-186343451D01*
X171620299Y-186326783D01*
X171635396Y-186311521D01*
X171651915Y-186297812D01*
X171669699Y-186285788D01*
X171688576Y-186275565D01*
X171708364Y-186267242D01*
X172189956Y-186091957D01*
X172210465Y-186085614D01*
X172231496Y-186081311D01*
X172252848Y-186079090D01*
X172274315Y-186078973D01*
X172295690Y-186080961D01*
X172295690Y-186080961D01*
G37*
D13*
X172098794Y-186590715D03*
D12*
G36*
X171757008Y-184600945D02*
X171778085Y-184605018D01*
X171798661Y-184611137D01*
X171818539Y-184619244D01*
X171837526Y-184629260D01*
X171855440Y-184641089D01*
X171872108Y-184654617D01*
X171887370Y-184669714D01*
X171901079Y-184686233D01*
X171913103Y-184704017D01*
X171923326Y-184722894D01*
X171931649Y-184742682D01*
X172081283Y-185153797D01*
X172087626Y-185174305D01*
X172091929Y-185195337D01*
X172094150Y-185216689D01*
X172094267Y-185238156D01*
X172092279Y-185259530D01*
X172088206Y-185280608D01*
X172082087Y-185301184D01*
X172073980Y-185321062D01*
X172063964Y-185340049D01*
X172052135Y-185357963D01*
X172038607Y-185374631D01*
X172023510Y-185389893D01*
X172006991Y-185403602D01*
X171989207Y-185415626D01*
X171970330Y-185425849D01*
X171950542Y-185434172D01*
X171468950Y-185609457D01*
X171448441Y-185615800D01*
X171427410Y-185620103D01*
X171406058Y-185622324D01*
X171384591Y-185622441D01*
X171363216Y-185620453D01*
X171342139Y-185616380D01*
X171321563Y-185610261D01*
X171301685Y-185602154D01*
X171282698Y-185592138D01*
X171264784Y-185580309D01*
X171248116Y-185566781D01*
X171232854Y-185551684D01*
X171219145Y-185535165D01*
X171207121Y-185517381D01*
X171196898Y-185498504D01*
X171188575Y-185478716D01*
X171038941Y-185067601D01*
X171032598Y-185047093D01*
X171028295Y-185026061D01*
X171026074Y-185004709D01*
X171025957Y-184983242D01*
X171027945Y-184961868D01*
X171032018Y-184940790D01*
X171038137Y-184920214D01*
X171046244Y-184900336D01*
X171056260Y-184881349D01*
X171068089Y-184863435D01*
X171081617Y-184846767D01*
X171096714Y-184831505D01*
X171113233Y-184817796D01*
X171131017Y-184805772D01*
X171149894Y-184795549D01*
X171169682Y-184787226D01*
X171651274Y-184611941D01*
X171671783Y-184605598D01*
X171692814Y-184601295D01*
X171714166Y-184599074D01*
X171735633Y-184598957D01*
X171757008Y-184600945D01*
X171757008Y-184600945D01*
G37*
D13*
X171560112Y-185110699D03*
G04 #@! TD*
D12*
G04 #@! TO.C,C6*
G36*
X178707144Y-175414260D02*
X178728379Y-175417410D01*
X178749203Y-175422626D01*
X178769415Y-175429858D01*
X178788821Y-175439037D01*
X178807234Y-175450073D01*
X178824477Y-175462861D01*
X178840383Y-175477277D01*
X178854799Y-175493183D01*
X178867587Y-175510426D01*
X178878623Y-175528839D01*
X178887802Y-175548245D01*
X178895034Y-175568457D01*
X178900250Y-175589281D01*
X178903400Y-175610516D01*
X178904453Y-175631957D01*
X178904453Y-176069457D01*
X178903400Y-176090898D01*
X178900250Y-176112133D01*
X178895034Y-176132957D01*
X178887802Y-176153169D01*
X178878623Y-176172575D01*
X178867587Y-176190988D01*
X178854799Y-176208231D01*
X178840383Y-176224137D01*
X178824477Y-176238553D01*
X178807234Y-176251341D01*
X178788821Y-176262377D01*
X178769415Y-176271556D01*
X178749203Y-176278788D01*
X178728379Y-176284004D01*
X178707144Y-176287154D01*
X178685703Y-176288207D01*
X178173203Y-176288207D01*
X178151762Y-176287154D01*
X178130527Y-176284004D01*
X178109703Y-176278788D01*
X178089491Y-176271556D01*
X178070085Y-176262377D01*
X178051672Y-176251341D01*
X178034429Y-176238553D01*
X178018523Y-176224137D01*
X178004107Y-176208231D01*
X177991319Y-176190988D01*
X177980283Y-176172575D01*
X177971104Y-176153169D01*
X177963872Y-176132957D01*
X177958656Y-176112133D01*
X177955506Y-176090898D01*
X177954453Y-176069457D01*
X177954453Y-175631957D01*
X177955506Y-175610516D01*
X177958656Y-175589281D01*
X177963872Y-175568457D01*
X177971104Y-175548245D01*
X177980283Y-175528839D01*
X177991319Y-175510426D01*
X178004107Y-175493183D01*
X178018523Y-175477277D01*
X178034429Y-175462861D01*
X178051672Y-175450073D01*
X178070085Y-175439037D01*
X178089491Y-175429858D01*
X178109703Y-175422626D01*
X178130527Y-175417410D01*
X178151762Y-175414260D01*
X178173203Y-175413207D01*
X178685703Y-175413207D01*
X178707144Y-175414260D01*
X178707144Y-175414260D01*
G37*
D13*
X178429453Y-175850707D03*
D12*
G36*
X178707144Y-176989260D02*
X178728379Y-176992410D01*
X178749203Y-176997626D01*
X178769415Y-177004858D01*
X178788821Y-177014037D01*
X178807234Y-177025073D01*
X178824477Y-177037861D01*
X178840383Y-177052277D01*
X178854799Y-177068183D01*
X178867587Y-177085426D01*
X178878623Y-177103839D01*
X178887802Y-177123245D01*
X178895034Y-177143457D01*
X178900250Y-177164281D01*
X178903400Y-177185516D01*
X178904453Y-177206957D01*
X178904453Y-177644457D01*
X178903400Y-177665898D01*
X178900250Y-177687133D01*
X178895034Y-177707957D01*
X178887802Y-177728169D01*
X178878623Y-177747575D01*
X178867587Y-177765988D01*
X178854799Y-177783231D01*
X178840383Y-177799137D01*
X178824477Y-177813553D01*
X178807234Y-177826341D01*
X178788821Y-177837377D01*
X178769415Y-177846556D01*
X178749203Y-177853788D01*
X178728379Y-177859004D01*
X178707144Y-177862154D01*
X178685703Y-177863207D01*
X178173203Y-177863207D01*
X178151762Y-177862154D01*
X178130527Y-177859004D01*
X178109703Y-177853788D01*
X178089491Y-177846556D01*
X178070085Y-177837377D01*
X178051672Y-177826341D01*
X178034429Y-177813553D01*
X178018523Y-177799137D01*
X178004107Y-177783231D01*
X177991319Y-177765988D01*
X177980283Y-177747575D01*
X177971104Y-177728169D01*
X177963872Y-177707957D01*
X177958656Y-177687133D01*
X177955506Y-177665898D01*
X177954453Y-177644457D01*
X177954453Y-177206957D01*
X177955506Y-177185516D01*
X177958656Y-177164281D01*
X177963872Y-177143457D01*
X177971104Y-177123245D01*
X177980283Y-177103839D01*
X177991319Y-177085426D01*
X178004107Y-177068183D01*
X178018523Y-177052277D01*
X178034429Y-177037861D01*
X178051672Y-177025073D01*
X178070085Y-177014037D01*
X178089491Y-177004858D01*
X178109703Y-176997626D01*
X178130527Y-176992410D01*
X178151762Y-176989260D01*
X178173203Y-176988207D01*
X178685703Y-176988207D01*
X178707144Y-176989260D01*
X178707144Y-176989260D01*
G37*
D13*
X178429453Y-177425707D03*
G04 #@! TD*
D12*
G04 #@! TO.C,C7*
G36*
X177107144Y-175426760D02*
X177128379Y-175429910D01*
X177149203Y-175435126D01*
X177169415Y-175442358D01*
X177188821Y-175451537D01*
X177207234Y-175462573D01*
X177224477Y-175475361D01*
X177240383Y-175489777D01*
X177254799Y-175505683D01*
X177267587Y-175522926D01*
X177278623Y-175541339D01*
X177287802Y-175560745D01*
X177295034Y-175580957D01*
X177300250Y-175601781D01*
X177303400Y-175623016D01*
X177304453Y-175644457D01*
X177304453Y-176081957D01*
X177303400Y-176103398D01*
X177300250Y-176124633D01*
X177295034Y-176145457D01*
X177287802Y-176165669D01*
X177278623Y-176185075D01*
X177267587Y-176203488D01*
X177254799Y-176220731D01*
X177240383Y-176236637D01*
X177224477Y-176251053D01*
X177207234Y-176263841D01*
X177188821Y-176274877D01*
X177169415Y-176284056D01*
X177149203Y-176291288D01*
X177128379Y-176296504D01*
X177107144Y-176299654D01*
X177085703Y-176300707D01*
X176573203Y-176300707D01*
X176551762Y-176299654D01*
X176530527Y-176296504D01*
X176509703Y-176291288D01*
X176489491Y-176284056D01*
X176470085Y-176274877D01*
X176451672Y-176263841D01*
X176434429Y-176251053D01*
X176418523Y-176236637D01*
X176404107Y-176220731D01*
X176391319Y-176203488D01*
X176380283Y-176185075D01*
X176371104Y-176165669D01*
X176363872Y-176145457D01*
X176358656Y-176124633D01*
X176355506Y-176103398D01*
X176354453Y-176081957D01*
X176354453Y-175644457D01*
X176355506Y-175623016D01*
X176358656Y-175601781D01*
X176363872Y-175580957D01*
X176371104Y-175560745D01*
X176380283Y-175541339D01*
X176391319Y-175522926D01*
X176404107Y-175505683D01*
X176418523Y-175489777D01*
X176434429Y-175475361D01*
X176451672Y-175462573D01*
X176470085Y-175451537D01*
X176489491Y-175442358D01*
X176509703Y-175435126D01*
X176530527Y-175429910D01*
X176551762Y-175426760D01*
X176573203Y-175425707D01*
X177085703Y-175425707D01*
X177107144Y-175426760D01*
X177107144Y-175426760D01*
G37*
D13*
X176829453Y-175863207D03*
D12*
G36*
X177107144Y-177001760D02*
X177128379Y-177004910D01*
X177149203Y-177010126D01*
X177169415Y-177017358D01*
X177188821Y-177026537D01*
X177207234Y-177037573D01*
X177224477Y-177050361D01*
X177240383Y-177064777D01*
X177254799Y-177080683D01*
X177267587Y-177097926D01*
X177278623Y-177116339D01*
X177287802Y-177135745D01*
X177295034Y-177155957D01*
X177300250Y-177176781D01*
X177303400Y-177198016D01*
X177304453Y-177219457D01*
X177304453Y-177656957D01*
X177303400Y-177678398D01*
X177300250Y-177699633D01*
X177295034Y-177720457D01*
X177287802Y-177740669D01*
X177278623Y-177760075D01*
X177267587Y-177778488D01*
X177254799Y-177795731D01*
X177240383Y-177811637D01*
X177224477Y-177826053D01*
X177207234Y-177838841D01*
X177188821Y-177849877D01*
X177169415Y-177859056D01*
X177149203Y-177866288D01*
X177128379Y-177871504D01*
X177107144Y-177874654D01*
X177085703Y-177875707D01*
X176573203Y-177875707D01*
X176551762Y-177874654D01*
X176530527Y-177871504D01*
X176509703Y-177866288D01*
X176489491Y-177859056D01*
X176470085Y-177849877D01*
X176451672Y-177838841D01*
X176434429Y-177826053D01*
X176418523Y-177811637D01*
X176404107Y-177795731D01*
X176391319Y-177778488D01*
X176380283Y-177760075D01*
X176371104Y-177740669D01*
X176363872Y-177720457D01*
X176358656Y-177699633D01*
X176355506Y-177678398D01*
X176354453Y-177656957D01*
X176354453Y-177219457D01*
X176355506Y-177198016D01*
X176358656Y-177176781D01*
X176363872Y-177155957D01*
X176371104Y-177135745D01*
X176380283Y-177116339D01*
X176391319Y-177097926D01*
X176404107Y-177080683D01*
X176418523Y-177064777D01*
X176434429Y-177050361D01*
X176451672Y-177037573D01*
X176470085Y-177026537D01*
X176489491Y-177017358D01*
X176509703Y-177010126D01*
X176530527Y-177004910D01*
X176551762Y-177001760D01*
X176573203Y-177000707D01*
X177085703Y-177000707D01*
X177107144Y-177001760D01*
X177107144Y-177001760D01*
G37*
D13*
X176829453Y-177438207D03*
G04 #@! TD*
D12*
G04 #@! TO.C,C8*
G36*
X177669644Y-169076760D02*
X177690879Y-169079910D01*
X177711703Y-169085126D01*
X177731915Y-169092358D01*
X177751321Y-169101537D01*
X177769734Y-169112573D01*
X177786977Y-169125361D01*
X177802883Y-169139777D01*
X177817299Y-169155683D01*
X177830087Y-169172926D01*
X177841123Y-169191339D01*
X177850302Y-169210745D01*
X177857534Y-169230957D01*
X177862750Y-169251781D01*
X177865900Y-169273016D01*
X177866953Y-169294457D01*
X177866953Y-169806957D01*
X177865900Y-169828398D01*
X177862750Y-169849633D01*
X177857534Y-169870457D01*
X177850302Y-169890669D01*
X177841123Y-169910075D01*
X177830087Y-169928488D01*
X177817299Y-169945731D01*
X177802883Y-169961637D01*
X177786977Y-169976053D01*
X177769734Y-169988841D01*
X177751321Y-169999877D01*
X177731915Y-170009056D01*
X177711703Y-170016288D01*
X177690879Y-170021504D01*
X177669644Y-170024654D01*
X177648203Y-170025707D01*
X177210703Y-170025707D01*
X177189262Y-170024654D01*
X177168027Y-170021504D01*
X177147203Y-170016288D01*
X177126991Y-170009056D01*
X177107585Y-169999877D01*
X177089172Y-169988841D01*
X177071929Y-169976053D01*
X177056023Y-169961637D01*
X177041607Y-169945731D01*
X177028819Y-169928488D01*
X177017783Y-169910075D01*
X177008604Y-169890669D01*
X177001372Y-169870457D01*
X176996156Y-169849633D01*
X176993006Y-169828398D01*
X176991953Y-169806957D01*
X176991953Y-169294457D01*
X176993006Y-169273016D01*
X176996156Y-169251781D01*
X177001372Y-169230957D01*
X177008604Y-169210745D01*
X177017783Y-169191339D01*
X177028819Y-169172926D01*
X177041607Y-169155683D01*
X177056023Y-169139777D01*
X177071929Y-169125361D01*
X177089172Y-169112573D01*
X177107585Y-169101537D01*
X177126991Y-169092358D01*
X177147203Y-169085126D01*
X177168027Y-169079910D01*
X177189262Y-169076760D01*
X177210703Y-169075707D01*
X177648203Y-169075707D01*
X177669644Y-169076760D01*
X177669644Y-169076760D01*
G37*
D13*
X177429453Y-169550707D03*
D12*
G36*
X179244644Y-169076760D02*
X179265879Y-169079910D01*
X179286703Y-169085126D01*
X179306915Y-169092358D01*
X179326321Y-169101537D01*
X179344734Y-169112573D01*
X179361977Y-169125361D01*
X179377883Y-169139777D01*
X179392299Y-169155683D01*
X179405087Y-169172926D01*
X179416123Y-169191339D01*
X179425302Y-169210745D01*
X179432534Y-169230957D01*
X179437750Y-169251781D01*
X179440900Y-169273016D01*
X179441953Y-169294457D01*
X179441953Y-169806957D01*
X179440900Y-169828398D01*
X179437750Y-169849633D01*
X179432534Y-169870457D01*
X179425302Y-169890669D01*
X179416123Y-169910075D01*
X179405087Y-169928488D01*
X179392299Y-169945731D01*
X179377883Y-169961637D01*
X179361977Y-169976053D01*
X179344734Y-169988841D01*
X179326321Y-169999877D01*
X179306915Y-170009056D01*
X179286703Y-170016288D01*
X179265879Y-170021504D01*
X179244644Y-170024654D01*
X179223203Y-170025707D01*
X178785703Y-170025707D01*
X178764262Y-170024654D01*
X178743027Y-170021504D01*
X178722203Y-170016288D01*
X178701991Y-170009056D01*
X178682585Y-169999877D01*
X178664172Y-169988841D01*
X178646929Y-169976053D01*
X178631023Y-169961637D01*
X178616607Y-169945731D01*
X178603819Y-169928488D01*
X178592783Y-169910075D01*
X178583604Y-169890669D01*
X178576372Y-169870457D01*
X178571156Y-169849633D01*
X178568006Y-169828398D01*
X178566953Y-169806957D01*
X178566953Y-169294457D01*
X178568006Y-169273016D01*
X178571156Y-169251781D01*
X178576372Y-169230957D01*
X178583604Y-169210745D01*
X178592783Y-169191339D01*
X178603819Y-169172926D01*
X178616607Y-169155683D01*
X178631023Y-169139777D01*
X178646929Y-169125361D01*
X178664172Y-169112573D01*
X178682585Y-169101537D01*
X178701991Y-169092358D01*
X178722203Y-169085126D01*
X178743027Y-169079910D01*
X178764262Y-169076760D01*
X178785703Y-169075707D01*
X179223203Y-169075707D01*
X179244644Y-169076760D01*
X179244644Y-169076760D01*
G37*
D13*
X179004453Y-169550707D03*
G04 #@! TD*
D12*
G04 #@! TO.C,C9*
G36*
X177669644Y-167476760D02*
X177690879Y-167479910D01*
X177711703Y-167485126D01*
X177731915Y-167492358D01*
X177751321Y-167501537D01*
X177769734Y-167512573D01*
X177786977Y-167525361D01*
X177802883Y-167539777D01*
X177817299Y-167555683D01*
X177830087Y-167572926D01*
X177841123Y-167591339D01*
X177850302Y-167610745D01*
X177857534Y-167630957D01*
X177862750Y-167651781D01*
X177865900Y-167673016D01*
X177866953Y-167694457D01*
X177866953Y-168206957D01*
X177865900Y-168228398D01*
X177862750Y-168249633D01*
X177857534Y-168270457D01*
X177850302Y-168290669D01*
X177841123Y-168310075D01*
X177830087Y-168328488D01*
X177817299Y-168345731D01*
X177802883Y-168361637D01*
X177786977Y-168376053D01*
X177769734Y-168388841D01*
X177751321Y-168399877D01*
X177731915Y-168409056D01*
X177711703Y-168416288D01*
X177690879Y-168421504D01*
X177669644Y-168424654D01*
X177648203Y-168425707D01*
X177210703Y-168425707D01*
X177189262Y-168424654D01*
X177168027Y-168421504D01*
X177147203Y-168416288D01*
X177126991Y-168409056D01*
X177107585Y-168399877D01*
X177089172Y-168388841D01*
X177071929Y-168376053D01*
X177056023Y-168361637D01*
X177041607Y-168345731D01*
X177028819Y-168328488D01*
X177017783Y-168310075D01*
X177008604Y-168290669D01*
X177001372Y-168270457D01*
X176996156Y-168249633D01*
X176993006Y-168228398D01*
X176991953Y-168206957D01*
X176991953Y-167694457D01*
X176993006Y-167673016D01*
X176996156Y-167651781D01*
X177001372Y-167630957D01*
X177008604Y-167610745D01*
X177017783Y-167591339D01*
X177028819Y-167572926D01*
X177041607Y-167555683D01*
X177056023Y-167539777D01*
X177071929Y-167525361D01*
X177089172Y-167512573D01*
X177107585Y-167501537D01*
X177126991Y-167492358D01*
X177147203Y-167485126D01*
X177168027Y-167479910D01*
X177189262Y-167476760D01*
X177210703Y-167475707D01*
X177648203Y-167475707D01*
X177669644Y-167476760D01*
X177669644Y-167476760D01*
G37*
D13*
X177429453Y-167950707D03*
D12*
G36*
X179244644Y-167476760D02*
X179265879Y-167479910D01*
X179286703Y-167485126D01*
X179306915Y-167492358D01*
X179326321Y-167501537D01*
X179344734Y-167512573D01*
X179361977Y-167525361D01*
X179377883Y-167539777D01*
X179392299Y-167555683D01*
X179405087Y-167572926D01*
X179416123Y-167591339D01*
X179425302Y-167610745D01*
X179432534Y-167630957D01*
X179437750Y-167651781D01*
X179440900Y-167673016D01*
X179441953Y-167694457D01*
X179441953Y-168206957D01*
X179440900Y-168228398D01*
X179437750Y-168249633D01*
X179432534Y-168270457D01*
X179425302Y-168290669D01*
X179416123Y-168310075D01*
X179405087Y-168328488D01*
X179392299Y-168345731D01*
X179377883Y-168361637D01*
X179361977Y-168376053D01*
X179344734Y-168388841D01*
X179326321Y-168399877D01*
X179306915Y-168409056D01*
X179286703Y-168416288D01*
X179265879Y-168421504D01*
X179244644Y-168424654D01*
X179223203Y-168425707D01*
X178785703Y-168425707D01*
X178764262Y-168424654D01*
X178743027Y-168421504D01*
X178722203Y-168416288D01*
X178701991Y-168409056D01*
X178682585Y-168399877D01*
X178664172Y-168388841D01*
X178646929Y-168376053D01*
X178631023Y-168361637D01*
X178616607Y-168345731D01*
X178603819Y-168328488D01*
X178592783Y-168310075D01*
X178583604Y-168290669D01*
X178576372Y-168270457D01*
X178571156Y-168249633D01*
X178568006Y-168228398D01*
X178566953Y-168206957D01*
X178566953Y-167694457D01*
X178568006Y-167673016D01*
X178571156Y-167651781D01*
X178576372Y-167630957D01*
X178583604Y-167610745D01*
X178592783Y-167591339D01*
X178603819Y-167572926D01*
X178616607Y-167555683D01*
X178631023Y-167539777D01*
X178646929Y-167525361D01*
X178664172Y-167512573D01*
X178682585Y-167501537D01*
X178701991Y-167492358D01*
X178722203Y-167485126D01*
X178743027Y-167479910D01*
X178764262Y-167476760D01*
X178785703Y-167475707D01*
X179223203Y-167475707D01*
X179244644Y-167476760D01*
X179244644Y-167476760D01*
G37*
D13*
X179004453Y-167950707D03*
G04 #@! TD*
D12*
G04 #@! TO.C,C10*
G36*
X184082144Y-152289260D02*
X184103379Y-152292410D01*
X184124203Y-152297626D01*
X184144415Y-152304858D01*
X184163821Y-152314037D01*
X184182234Y-152325073D01*
X184199477Y-152337861D01*
X184215383Y-152352277D01*
X184229799Y-152368183D01*
X184242587Y-152385426D01*
X184253623Y-152403839D01*
X184262802Y-152423245D01*
X184270034Y-152443457D01*
X184275250Y-152464281D01*
X184278400Y-152485516D01*
X184279453Y-152506957D01*
X184279453Y-152944457D01*
X184278400Y-152965898D01*
X184275250Y-152987133D01*
X184270034Y-153007957D01*
X184262802Y-153028169D01*
X184253623Y-153047575D01*
X184242587Y-153065988D01*
X184229799Y-153083231D01*
X184215383Y-153099137D01*
X184199477Y-153113553D01*
X184182234Y-153126341D01*
X184163821Y-153137377D01*
X184144415Y-153146556D01*
X184124203Y-153153788D01*
X184103379Y-153159004D01*
X184082144Y-153162154D01*
X184060703Y-153163207D01*
X183548203Y-153163207D01*
X183526762Y-153162154D01*
X183505527Y-153159004D01*
X183484703Y-153153788D01*
X183464491Y-153146556D01*
X183445085Y-153137377D01*
X183426672Y-153126341D01*
X183409429Y-153113553D01*
X183393523Y-153099137D01*
X183379107Y-153083231D01*
X183366319Y-153065988D01*
X183355283Y-153047575D01*
X183346104Y-153028169D01*
X183338872Y-153007957D01*
X183333656Y-152987133D01*
X183330506Y-152965898D01*
X183329453Y-152944457D01*
X183329453Y-152506957D01*
X183330506Y-152485516D01*
X183333656Y-152464281D01*
X183338872Y-152443457D01*
X183346104Y-152423245D01*
X183355283Y-152403839D01*
X183366319Y-152385426D01*
X183379107Y-152368183D01*
X183393523Y-152352277D01*
X183409429Y-152337861D01*
X183426672Y-152325073D01*
X183445085Y-152314037D01*
X183464491Y-152304858D01*
X183484703Y-152297626D01*
X183505527Y-152292410D01*
X183526762Y-152289260D01*
X183548203Y-152288207D01*
X184060703Y-152288207D01*
X184082144Y-152289260D01*
X184082144Y-152289260D01*
G37*
D13*
X183804453Y-152725707D03*
D12*
G36*
X184082144Y-153864260D02*
X184103379Y-153867410D01*
X184124203Y-153872626D01*
X184144415Y-153879858D01*
X184163821Y-153889037D01*
X184182234Y-153900073D01*
X184199477Y-153912861D01*
X184215383Y-153927277D01*
X184229799Y-153943183D01*
X184242587Y-153960426D01*
X184253623Y-153978839D01*
X184262802Y-153998245D01*
X184270034Y-154018457D01*
X184275250Y-154039281D01*
X184278400Y-154060516D01*
X184279453Y-154081957D01*
X184279453Y-154519457D01*
X184278400Y-154540898D01*
X184275250Y-154562133D01*
X184270034Y-154582957D01*
X184262802Y-154603169D01*
X184253623Y-154622575D01*
X184242587Y-154640988D01*
X184229799Y-154658231D01*
X184215383Y-154674137D01*
X184199477Y-154688553D01*
X184182234Y-154701341D01*
X184163821Y-154712377D01*
X184144415Y-154721556D01*
X184124203Y-154728788D01*
X184103379Y-154734004D01*
X184082144Y-154737154D01*
X184060703Y-154738207D01*
X183548203Y-154738207D01*
X183526762Y-154737154D01*
X183505527Y-154734004D01*
X183484703Y-154728788D01*
X183464491Y-154721556D01*
X183445085Y-154712377D01*
X183426672Y-154701341D01*
X183409429Y-154688553D01*
X183393523Y-154674137D01*
X183379107Y-154658231D01*
X183366319Y-154640988D01*
X183355283Y-154622575D01*
X183346104Y-154603169D01*
X183338872Y-154582957D01*
X183333656Y-154562133D01*
X183330506Y-154540898D01*
X183329453Y-154519457D01*
X183329453Y-154081957D01*
X183330506Y-154060516D01*
X183333656Y-154039281D01*
X183338872Y-154018457D01*
X183346104Y-153998245D01*
X183355283Y-153978839D01*
X183366319Y-153960426D01*
X183379107Y-153943183D01*
X183393523Y-153927277D01*
X183409429Y-153912861D01*
X183426672Y-153900073D01*
X183445085Y-153889037D01*
X183464491Y-153879858D01*
X183484703Y-153872626D01*
X183505527Y-153867410D01*
X183526762Y-153864260D01*
X183548203Y-153863207D01*
X184060703Y-153863207D01*
X184082144Y-153864260D01*
X184082144Y-153864260D01*
G37*
D13*
X183804453Y-154300707D03*
G04 #@! TD*
D12*
G04 #@! TO.C,C11*
G36*
X185707144Y-152301760D02*
X185728379Y-152304910D01*
X185749203Y-152310126D01*
X185769415Y-152317358D01*
X185788821Y-152326537D01*
X185807234Y-152337573D01*
X185824477Y-152350361D01*
X185840383Y-152364777D01*
X185854799Y-152380683D01*
X185867587Y-152397926D01*
X185878623Y-152416339D01*
X185887802Y-152435745D01*
X185895034Y-152455957D01*
X185900250Y-152476781D01*
X185903400Y-152498016D01*
X185904453Y-152519457D01*
X185904453Y-152956957D01*
X185903400Y-152978398D01*
X185900250Y-152999633D01*
X185895034Y-153020457D01*
X185887802Y-153040669D01*
X185878623Y-153060075D01*
X185867587Y-153078488D01*
X185854799Y-153095731D01*
X185840383Y-153111637D01*
X185824477Y-153126053D01*
X185807234Y-153138841D01*
X185788821Y-153149877D01*
X185769415Y-153159056D01*
X185749203Y-153166288D01*
X185728379Y-153171504D01*
X185707144Y-153174654D01*
X185685703Y-153175707D01*
X185173203Y-153175707D01*
X185151762Y-153174654D01*
X185130527Y-153171504D01*
X185109703Y-153166288D01*
X185089491Y-153159056D01*
X185070085Y-153149877D01*
X185051672Y-153138841D01*
X185034429Y-153126053D01*
X185018523Y-153111637D01*
X185004107Y-153095731D01*
X184991319Y-153078488D01*
X184980283Y-153060075D01*
X184971104Y-153040669D01*
X184963872Y-153020457D01*
X184958656Y-152999633D01*
X184955506Y-152978398D01*
X184954453Y-152956957D01*
X184954453Y-152519457D01*
X184955506Y-152498016D01*
X184958656Y-152476781D01*
X184963872Y-152455957D01*
X184971104Y-152435745D01*
X184980283Y-152416339D01*
X184991319Y-152397926D01*
X185004107Y-152380683D01*
X185018523Y-152364777D01*
X185034429Y-152350361D01*
X185051672Y-152337573D01*
X185070085Y-152326537D01*
X185089491Y-152317358D01*
X185109703Y-152310126D01*
X185130527Y-152304910D01*
X185151762Y-152301760D01*
X185173203Y-152300707D01*
X185685703Y-152300707D01*
X185707144Y-152301760D01*
X185707144Y-152301760D01*
G37*
D13*
X185429453Y-152738207D03*
D12*
G36*
X185707144Y-153876760D02*
X185728379Y-153879910D01*
X185749203Y-153885126D01*
X185769415Y-153892358D01*
X185788821Y-153901537D01*
X185807234Y-153912573D01*
X185824477Y-153925361D01*
X185840383Y-153939777D01*
X185854799Y-153955683D01*
X185867587Y-153972926D01*
X185878623Y-153991339D01*
X185887802Y-154010745D01*
X185895034Y-154030957D01*
X185900250Y-154051781D01*
X185903400Y-154073016D01*
X185904453Y-154094457D01*
X185904453Y-154531957D01*
X185903400Y-154553398D01*
X185900250Y-154574633D01*
X185895034Y-154595457D01*
X185887802Y-154615669D01*
X185878623Y-154635075D01*
X185867587Y-154653488D01*
X185854799Y-154670731D01*
X185840383Y-154686637D01*
X185824477Y-154701053D01*
X185807234Y-154713841D01*
X185788821Y-154724877D01*
X185769415Y-154734056D01*
X185749203Y-154741288D01*
X185728379Y-154746504D01*
X185707144Y-154749654D01*
X185685703Y-154750707D01*
X185173203Y-154750707D01*
X185151762Y-154749654D01*
X185130527Y-154746504D01*
X185109703Y-154741288D01*
X185089491Y-154734056D01*
X185070085Y-154724877D01*
X185051672Y-154713841D01*
X185034429Y-154701053D01*
X185018523Y-154686637D01*
X185004107Y-154670731D01*
X184991319Y-154653488D01*
X184980283Y-154635075D01*
X184971104Y-154615669D01*
X184963872Y-154595457D01*
X184958656Y-154574633D01*
X184955506Y-154553398D01*
X184954453Y-154531957D01*
X184954453Y-154094457D01*
X184955506Y-154073016D01*
X184958656Y-154051781D01*
X184963872Y-154030957D01*
X184971104Y-154010745D01*
X184980283Y-153991339D01*
X184991319Y-153972926D01*
X185004107Y-153955683D01*
X185018523Y-153939777D01*
X185034429Y-153925361D01*
X185051672Y-153912573D01*
X185070085Y-153901537D01*
X185089491Y-153892358D01*
X185109703Y-153885126D01*
X185130527Y-153879910D01*
X185151762Y-153876760D01*
X185173203Y-153875707D01*
X185685703Y-153875707D01*
X185707144Y-153876760D01*
X185707144Y-153876760D01*
G37*
D13*
X185429453Y-154313207D03*
G04 #@! TD*
D12*
G04 #@! TO.C,C12*
G36*
X187369644Y-170576760D02*
X187390879Y-170579910D01*
X187411703Y-170585126D01*
X187431915Y-170592358D01*
X187451321Y-170601537D01*
X187469734Y-170612573D01*
X187486977Y-170625361D01*
X187502883Y-170639777D01*
X187517299Y-170655683D01*
X187530087Y-170672926D01*
X187541123Y-170691339D01*
X187550302Y-170710745D01*
X187557534Y-170730957D01*
X187562750Y-170751781D01*
X187565900Y-170773016D01*
X187566953Y-170794457D01*
X187566953Y-171306957D01*
X187565900Y-171328398D01*
X187562750Y-171349633D01*
X187557534Y-171370457D01*
X187550302Y-171390669D01*
X187541123Y-171410075D01*
X187530087Y-171428488D01*
X187517299Y-171445731D01*
X187502883Y-171461637D01*
X187486977Y-171476053D01*
X187469734Y-171488841D01*
X187451321Y-171499877D01*
X187431915Y-171509056D01*
X187411703Y-171516288D01*
X187390879Y-171521504D01*
X187369644Y-171524654D01*
X187348203Y-171525707D01*
X186910703Y-171525707D01*
X186889262Y-171524654D01*
X186868027Y-171521504D01*
X186847203Y-171516288D01*
X186826991Y-171509056D01*
X186807585Y-171499877D01*
X186789172Y-171488841D01*
X186771929Y-171476053D01*
X186756023Y-171461637D01*
X186741607Y-171445731D01*
X186728819Y-171428488D01*
X186717783Y-171410075D01*
X186708604Y-171390669D01*
X186701372Y-171370457D01*
X186696156Y-171349633D01*
X186693006Y-171328398D01*
X186691953Y-171306957D01*
X186691953Y-170794457D01*
X186693006Y-170773016D01*
X186696156Y-170751781D01*
X186701372Y-170730957D01*
X186708604Y-170710745D01*
X186717783Y-170691339D01*
X186728819Y-170672926D01*
X186741607Y-170655683D01*
X186756023Y-170639777D01*
X186771929Y-170625361D01*
X186789172Y-170612573D01*
X186807585Y-170601537D01*
X186826991Y-170592358D01*
X186847203Y-170585126D01*
X186868027Y-170579910D01*
X186889262Y-170576760D01*
X186910703Y-170575707D01*
X187348203Y-170575707D01*
X187369644Y-170576760D01*
X187369644Y-170576760D01*
G37*
D13*
X187129453Y-171050707D03*
D12*
G36*
X185794644Y-170576760D02*
X185815879Y-170579910D01*
X185836703Y-170585126D01*
X185856915Y-170592358D01*
X185876321Y-170601537D01*
X185894734Y-170612573D01*
X185911977Y-170625361D01*
X185927883Y-170639777D01*
X185942299Y-170655683D01*
X185955087Y-170672926D01*
X185966123Y-170691339D01*
X185975302Y-170710745D01*
X185982534Y-170730957D01*
X185987750Y-170751781D01*
X185990900Y-170773016D01*
X185991953Y-170794457D01*
X185991953Y-171306957D01*
X185990900Y-171328398D01*
X185987750Y-171349633D01*
X185982534Y-171370457D01*
X185975302Y-171390669D01*
X185966123Y-171410075D01*
X185955087Y-171428488D01*
X185942299Y-171445731D01*
X185927883Y-171461637D01*
X185911977Y-171476053D01*
X185894734Y-171488841D01*
X185876321Y-171499877D01*
X185856915Y-171509056D01*
X185836703Y-171516288D01*
X185815879Y-171521504D01*
X185794644Y-171524654D01*
X185773203Y-171525707D01*
X185335703Y-171525707D01*
X185314262Y-171524654D01*
X185293027Y-171521504D01*
X185272203Y-171516288D01*
X185251991Y-171509056D01*
X185232585Y-171499877D01*
X185214172Y-171488841D01*
X185196929Y-171476053D01*
X185181023Y-171461637D01*
X185166607Y-171445731D01*
X185153819Y-171428488D01*
X185142783Y-171410075D01*
X185133604Y-171390669D01*
X185126372Y-171370457D01*
X185121156Y-171349633D01*
X185118006Y-171328398D01*
X185116953Y-171306957D01*
X185116953Y-170794457D01*
X185118006Y-170773016D01*
X185121156Y-170751781D01*
X185126372Y-170730957D01*
X185133604Y-170710745D01*
X185142783Y-170691339D01*
X185153819Y-170672926D01*
X185166607Y-170655683D01*
X185181023Y-170639777D01*
X185196929Y-170625361D01*
X185214172Y-170612573D01*
X185232585Y-170601537D01*
X185251991Y-170592358D01*
X185272203Y-170585126D01*
X185293027Y-170579910D01*
X185314262Y-170576760D01*
X185335703Y-170575707D01*
X185773203Y-170575707D01*
X185794644Y-170576760D01*
X185794644Y-170576760D01*
G37*
D13*
X185554453Y-171050707D03*
G04 #@! TD*
D12*
G04 #@! TO.C,C13*
G36*
X187369644Y-168976760D02*
X187390879Y-168979910D01*
X187411703Y-168985126D01*
X187431915Y-168992358D01*
X187451321Y-169001537D01*
X187469734Y-169012573D01*
X187486977Y-169025361D01*
X187502883Y-169039777D01*
X187517299Y-169055683D01*
X187530087Y-169072926D01*
X187541123Y-169091339D01*
X187550302Y-169110745D01*
X187557534Y-169130957D01*
X187562750Y-169151781D01*
X187565900Y-169173016D01*
X187566953Y-169194457D01*
X187566953Y-169706957D01*
X187565900Y-169728398D01*
X187562750Y-169749633D01*
X187557534Y-169770457D01*
X187550302Y-169790669D01*
X187541123Y-169810075D01*
X187530087Y-169828488D01*
X187517299Y-169845731D01*
X187502883Y-169861637D01*
X187486977Y-169876053D01*
X187469734Y-169888841D01*
X187451321Y-169899877D01*
X187431915Y-169909056D01*
X187411703Y-169916288D01*
X187390879Y-169921504D01*
X187369644Y-169924654D01*
X187348203Y-169925707D01*
X186910703Y-169925707D01*
X186889262Y-169924654D01*
X186868027Y-169921504D01*
X186847203Y-169916288D01*
X186826991Y-169909056D01*
X186807585Y-169899877D01*
X186789172Y-169888841D01*
X186771929Y-169876053D01*
X186756023Y-169861637D01*
X186741607Y-169845731D01*
X186728819Y-169828488D01*
X186717783Y-169810075D01*
X186708604Y-169790669D01*
X186701372Y-169770457D01*
X186696156Y-169749633D01*
X186693006Y-169728398D01*
X186691953Y-169706957D01*
X186691953Y-169194457D01*
X186693006Y-169173016D01*
X186696156Y-169151781D01*
X186701372Y-169130957D01*
X186708604Y-169110745D01*
X186717783Y-169091339D01*
X186728819Y-169072926D01*
X186741607Y-169055683D01*
X186756023Y-169039777D01*
X186771929Y-169025361D01*
X186789172Y-169012573D01*
X186807585Y-169001537D01*
X186826991Y-168992358D01*
X186847203Y-168985126D01*
X186868027Y-168979910D01*
X186889262Y-168976760D01*
X186910703Y-168975707D01*
X187348203Y-168975707D01*
X187369644Y-168976760D01*
X187369644Y-168976760D01*
G37*
D13*
X187129453Y-169450707D03*
D12*
G36*
X185794644Y-168976760D02*
X185815879Y-168979910D01*
X185836703Y-168985126D01*
X185856915Y-168992358D01*
X185876321Y-169001537D01*
X185894734Y-169012573D01*
X185911977Y-169025361D01*
X185927883Y-169039777D01*
X185942299Y-169055683D01*
X185955087Y-169072926D01*
X185966123Y-169091339D01*
X185975302Y-169110745D01*
X185982534Y-169130957D01*
X185987750Y-169151781D01*
X185990900Y-169173016D01*
X185991953Y-169194457D01*
X185991953Y-169706957D01*
X185990900Y-169728398D01*
X185987750Y-169749633D01*
X185982534Y-169770457D01*
X185975302Y-169790669D01*
X185966123Y-169810075D01*
X185955087Y-169828488D01*
X185942299Y-169845731D01*
X185927883Y-169861637D01*
X185911977Y-169876053D01*
X185894734Y-169888841D01*
X185876321Y-169899877D01*
X185856915Y-169909056D01*
X185836703Y-169916288D01*
X185815879Y-169921504D01*
X185794644Y-169924654D01*
X185773203Y-169925707D01*
X185335703Y-169925707D01*
X185314262Y-169924654D01*
X185293027Y-169921504D01*
X185272203Y-169916288D01*
X185251991Y-169909056D01*
X185232585Y-169899877D01*
X185214172Y-169888841D01*
X185196929Y-169876053D01*
X185181023Y-169861637D01*
X185166607Y-169845731D01*
X185153819Y-169828488D01*
X185142783Y-169810075D01*
X185133604Y-169790669D01*
X185126372Y-169770457D01*
X185121156Y-169749633D01*
X185118006Y-169728398D01*
X185116953Y-169706957D01*
X185116953Y-169194457D01*
X185118006Y-169173016D01*
X185121156Y-169151781D01*
X185126372Y-169130957D01*
X185133604Y-169110745D01*
X185142783Y-169091339D01*
X185153819Y-169072926D01*
X185166607Y-169055683D01*
X185181023Y-169039777D01*
X185196929Y-169025361D01*
X185214172Y-169012573D01*
X185232585Y-169001537D01*
X185251991Y-168992358D01*
X185272203Y-168985126D01*
X185293027Y-168979910D01*
X185314262Y-168976760D01*
X185335703Y-168975707D01*
X185773203Y-168975707D01*
X185794644Y-168976760D01*
X185794644Y-168976760D01*
G37*
D13*
X185554453Y-169450707D03*
G04 #@! TD*
D12*
G04 #@! TO.C,C14*
G36*
X189282144Y-170176760D02*
X189303379Y-170179910D01*
X189324203Y-170185126D01*
X189344415Y-170192358D01*
X189363821Y-170201537D01*
X189382234Y-170212573D01*
X189399477Y-170225361D01*
X189415383Y-170239777D01*
X189429799Y-170255683D01*
X189442587Y-170272926D01*
X189453623Y-170291339D01*
X189462802Y-170310745D01*
X189470034Y-170330957D01*
X189475250Y-170351781D01*
X189478400Y-170373016D01*
X189479453Y-170394457D01*
X189479453Y-170906957D01*
X189478400Y-170928398D01*
X189475250Y-170949633D01*
X189470034Y-170970457D01*
X189462802Y-170990669D01*
X189453623Y-171010075D01*
X189442587Y-171028488D01*
X189429799Y-171045731D01*
X189415383Y-171061637D01*
X189399477Y-171076053D01*
X189382234Y-171088841D01*
X189363821Y-171099877D01*
X189344415Y-171109056D01*
X189324203Y-171116288D01*
X189303379Y-171121504D01*
X189282144Y-171124654D01*
X189260703Y-171125707D01*
X188823203Y-171125707D01*
X188801762Y-171124654D01*
X188780527Y-171121504D01*
X188759703Y-171116288D01*
X188739491Y-171109056D01*
X188720085Y-171099877D01*
X188701672Y-171088841D01*
X188684429Y-171076053D01*
X188668523Y-171061637D01*
X188654107Y-171045731D01*
X188641319Y-171028488D01*
X188630283Y-171010075D01*
X188621104Y-170990669D01*
X188613872Y-170970457D01*
X188608656Y-170949633D01*
X188605506Y-170928398D01*
X188604453Y-170906957D01*
X188604453Y-170394457D01*
X188605506Y-170373016D01*
X188608656Y-170351781D01*
X188613872Y-170330957D01*
X188621104Y-170310745D01*
X188630283Y-170291339D01*
X188641319Y-170272926D01*
X188654107Y-170255683D01*
X188668523Y-170239777D01*
X188684429Y-170225361D01*
X188701672Y-170212573D01*
X188720085Y-170201537D01*
X188739491Y-170192358D01*
X188759703Y-170185126D01*
X188780527Y-170179910D01*
X188801762Y-170176760D01*
X188823203Y-170175707D01*
X189260703Y-170175707D01*
X189282144Y-170176760D01*
X189282144Y-170176760D01*
G37*
D13*
X189041953Y-170650707D03*
D12*
G36*
X190857144Y-170176760D02*
X190878379Y-170179910D01*
X190899203Y-170185126D01*
X190919415Y-170192358D01*
X190938821Y-170201537D01*
X190957234Y-170212573D01*
X190974477Y-170225361D01*
X190990383Y-170239777D01*
X191004799Y-170255683D01*
X191017587Y-170272926D01*
X191028623Y-170291339D01*
X191037802Y-170310745D01*
X191045034Y-170330957D01*
X191050250Y-170351781D01*
X191053400Y-170373016D01*
X191054453Y-170394457D01*
X191054453Y-170906957D01*
X191053400Y-170928398D01*
X191050250Y-170949633D01*
X191045034Y-170970457D01*
X191037802Y-170990669D01*
X191028623Y-171010075D01*
X191017587Y-171028488D01*
X191004799Y-171045731D01*
X190990383Y-171061637D01*
X190974477Y-171076053D01*
X190957234Y-171088841D01*
X190938821Y-171099877D01*
X190919415Y-171109056D01*
X190899203Y-171116288D01*
X190878379Y-171121504D01*
X190857144Y-171124654D01*
X190835703Y-171125707D01*
X190398203Y-171125707D01*
X190376762Y-171124654D01*
X190355527Y-171121504D01*
X190334703Y-171116288D01*
X190314491Y-171109056D01*
X190295085Y-171099877D01*
X190276672Y-171088841D01*
X190259429Y-171076053D01*
X190243523Y-171061637D01*
X190229107Y-171045731D01*
X190216319Y-171028488D01*
X190205283Y-171010075D01*
X190196104Y-170990669D01*
X190188872Y-170970457D01*
X190183656Y-170949633D01*
X190180506Y-170928398D01*
X190179453Y-170906957D01*
X190179453Y-170394457D01*
X190180506Y-170373016D01*
X190183656Y-170351781D01*
X190188872Y-170330957D01*
X190196104Y-170310745D01*
X190205283Y-170291339D01*
X190216319Y-170272926D01*
X190229107Y-170255683D01*
X190243523Y-170239777D01*
X190259429Y-170225361D01*
X190276672Y-170212573D01*
X190295085Y-170201537D01*
X190314491Y-170192358D01*
X190334703Y-170185126D01*
X190355527Y-170179910D01*
X190376762Y-170176760D01*
X190398203Y-170175707D01*
X190835703Y-170175707D01*
X190857144Y-170176760D01*
X190857144Y-170176760D01*
G37*
D13*
X190616953Y-170650707D03*
G04 #@! TD*
D12*
G04 #@! TO.C,L3*
G36*
X189403822Y-179131131D02*
X189427978Y-179135417D01*
X189451598Y-179142051D01*
X189474454Y-179150968D01*
X189496326Y-179162082D01*
X189517003Y-179175287D01*
X189536286Y-179190454D01*
X189553990Y-179207439D01*
X189569944Y-179226077D01*
X189583994Y-179246189D01*
X189596005Y-179267582D01*
X189605861Y-179290049D01*
X189613468Y-179313373D01*
X189618752Y-179337331D01*
X189621662Y-179361692D01*
X189684443Y-180259502D01*
X189684951Y-180284030D01*
X189683053Y-180308491D01*
X189678767Y-180332647D01*
X189672133Y-180356267D01*
X189663216Y-180379123D01*
X189652102Y-180400995D01*
X189638897Y-180421672D01*
X189623730Y-180440955D01*
X189606745Y-180458659D01*
X189588107Y-180474613D01*
X189567995Y-180488663D01*
X189546602Y-180500674D01*
X189524135Y-180510530D01*
X189500811Y-180518137D01*
X189476853Y-180523421D01*
X189452492Y-180526331D01*
X188804073Y-180571673D01*
X188779545Y-180572181D01*
X188755084Y-180570283D01*
X188730928Y-180565997D01*
X188707308Y-180559363D01*
X188684452Y-180550446D01*
X188662580Y-180539332D01*
X188641903Y-180526127D01*
X188622620Y-180510960D01*
X188604916Y-180493975D01*
X188588962Y-180475337D01*
X188574912Y-180455225D01*
X188562901Y-180433832D01*
X188553045Y-180411365D01*
X188545438Y-180388041D01*
X188540154Y-180364083D01*
X188537244Y-180339722D01*
X188474463Y-179441912D01*
X188473955Y-179417384D01*
X188475853Y-179392923D01*
X188480139Y-179368767D01*
X188486773Y-179345147D01*
X188495690Y-179322291D01*
X188506804Y-179300419D01*
X188520009Y-179279742D01*
X188535176Y-179260459D01*
X188552161Y-179242755D01*
X188570799Y-179226801D01*
X188590911Y-179212751D01*
X188612304Y-179200740D01*
X188634771Y-179190884D01*
X188658095Y-179183277D01*
X188682053Y-179177993D01*
X188706414Y-179175083D01*
X189354833Y-179129741D01*
X189379361Y-179129233D01*
X189403822Y-179131131D01*
X189403822Y-179131131D01*
G37*
D14*
X189079453Y-179850707D03*
D12*
G36*
X187358816Y-179274131D02*
X187382972Y-179278417D01*
X187406592Y-179285051D01*
X187429448Y-179293968D01*
X187451320Y-179305082D01*
X187471997Y-179318287D01*
X187491280Y-179333454D01*
X187508984Y-179350439D01*
X187524938Y-179369077D01*
X187538988Y-179389189D01*
X187550999Y-179410582D01*
X187560855Y-179433049D01*
X187568462Y-179456373D01*
X187573746Y-179480331D01*
X187576656Y-179504692D01*
X187639437Y-180402502D01*
X187639945Y-180427030D01*
X187638047Y-180451491D01*
X187633761Y-180475647D01*
X187627127Y-180499267D01*
X187618210Y-180522123D01*
X187607096Y-180543995D01*
X187593891Y-180564672D01*
X187578724Y-180583955D01*
X187561739Y-180601659D01*
X187543101Y-180617613D01*
X187522989Y-180631663D01*
X187501596Y-180643674D01*
X187479129Y-180653530D01*
X187455805Y-180661137D01*
X187431847Y-180666421D01*
X187407486Y-180669331D01*
X186759067Y-180714673D01*
X186734539Y-180715181D01*
X186710078Y-180713283D01*
X186685922Y-180708997D01*
X186662302Y-180702363D01*
X186639446Y-180693446D01*
X186617574Y-180682332D01*
X186596897Y-180669127D01*
X186577614Y-180653960D01*
X186559910Y-180636975D01*
X186543956Y-180618337D01*
X186529906Y-180598225D01*
X186517895Y-180576832D01*
X186508039Y-180554365D01*
X186500432Y-180531041D01*
X186495148Y-180507083D01*
X186492238Y-180482722D01*
X186429457Y-179584912D01*
X186428949Y-179560384D01*
X186430847Y-179535923D01*
X186435133Y-179511767D01*
X186441767Y-179488147D01*
X186450684Y-179465291D01*
X186461798Y-179443419D01*
X186475003Y-179422742D01*
X186490170Y-179403459D01*
X186507155Y-179385755D01*
X186525793Y-179369801D01*
X186545905Y-179355751D01*
X186567298Y-179343740D01*
X186589765Y-179333884D01*
X186613089Y-179326277D01*
X186637047Y-179320993D01*
X186661408Y-179318083D01*
X187309827Y-179272741D01*
X187334355Y-179272233D01*
X187358816Y-179274131D01*
X187358816Y-179274131D01*
G37*
D14*
X187034447Y-179993707D03*
G04 #@! TD*
D15*
G04 #@! TO.C,MUX1*
X185424661Y-149842982D03*
D12*
G36*
X185604805Y-149080963D02*
X185994517Y-149305963D01*
X185244517Y-150605001D01*
X184854805Y-150380001D01*
X185604805Y-149080963D01*
X185604805Y-149080963D01*
G37*
D15*
X184861744Y-149517982D03*
D12*
G36*
X185041888Y-148755963D02*
X185431600Y-148980963D01*
X184681600Y-150280001D01*
X184291888Y-150055001D01*
X185041888Y-148755963D01*
X185041888Y-148755963D01*
G37*
D15*
X184298828Y-149192982D03*
D12*
G36*
X184478972Y-148430963D02*
X184868684Y-148655963D01*
X184118684Y-149955001D01*
X183728972Y-149730001D01*
X184478972Y-148430963D01*
X184478972Y-148430963D01*
G37*
D15*
X183735911Y-148867982D03*
D12*
G36*
X183916055Y-148105963D02*
X184305767Y-148330963D01*
X183555767Y-149630001D01*
X183166055Y-149405001D01*
X183916055Y-148105963D01*
X183916055Y-148105963D01*
G37*
D15*
X183172995Y-148542982D03*
D12*
G36*
X183353139Y-147780963D02*
X183742851Y-148005963D01*
X182992851Y-149305001D01*
X182603139Y-149080001D01*
X183353139Y-147780963D01*
X183353139Y-147780963D01*
G37*
D15*
X182610078Y-148217982D03*
D12*
G36*
X182790222Y-147455963D02*
X183179934Y-147680963D01*
X182429934Y-148980001D01*
X182040222Y-148755001D01*
X182790222Y-147455963D01*
X182790222Y-147455963D01*
G37*
D15*
X182047162Y-147892982D03*
D12*
G36*
X182227306Y-147130963D02*
X182617018Y-147355963D01*
X181867018Y-148655001D01*
X181477306Y-148430001D01*
X182227306Y-147130963D01*
X182227306Y-147130963D01*
G37*
D15*
X181484245Y-147567982D03*
D12*
G36*
X181664389Y-146805963D02*
X182054101Y-147030963D01*
X181304101Y-148330001D01*
X180914389Y-148105001D01*
X181664389Y-146805963D01*
X181664389Y-146805963D01*
G37*
D15*
X184434245Y-142458432D03*
D12*
G36*
X184614389Y-141696413D02*
X185004101Y-141921413D01*
X184254101Y-143220451D01*
X183864389Y-142995451D01*
X184614389Y-141696413D01*
X184614389Y-141696413D01*
G37*
D15*
X184997162Y-142783432D03*
D12*
G36*
X185177306Y-142021413D02*
X185567018Y-142246413D01*
X184817018Y-143545451D01*
X184427306Y-143320451D01*
X185177306Y-142021413D01*
X185177306Y-142021413D01*
G37*
D15*
X185560078Y-143108432D03*
D12*
G36*
X185740222Y-142346413D02*
X186129934Y-142571413D01*
X185379934Y-143870451D01*
X184990222Y-143645451D01*
X185740222Y-142346413D01*
X185740222Y-142346413D01*
G37*
D15*
X186122995Y-143433432D03*
D12*
G36*
X186303139Y-142671413D02*
X186692851Y-142896413D01*
X185942851Y-144195451D01*
X185553139Y-143970451D01*
X186303139Y-142671413D01*
X186303139Y-142671413D01*
G37*
D15*
X186685911Y-143758432D03*
D12*
G36*
X186866055Y-142996413D02*
X187255767Y-143221413D01*
X186505767Y-144520451D01*
X186116055Y-144295451D01*
X186866055Y-142996413D01*
X186866055Y-142996413D01*
G37*
D15*
X187248828Y-144083432D03*
D12*
G36*
X187428972Y-143321413D02*
X187818684Y-143546413D01*
X187068684Y-144845451D01*
X186678972Y-144620451D01*
X187428972Y-143321413D01*
X187428972Y-143321413D01*
G37*
D15*
X187811744Y-144408432D03*
D12*
G36*
X187991888Y-143646413D02*
X188381600Y-143871413D01*
X187631600Y-145170451D01*
X187241888Y-144945451D01*
X187991888Y-143646413D01*
X187991888Y-143646413D01*
G37*
D15*
X188374661Y-144733432D03*
D12*
G36*
X188554805Y-143971413D02*
X188944517Y-144196413D01*
X188194517Y-145495451D01*
X187804805Y-145270451D01*
X188554805Y-143971413D01*
X188554805Y-143971413D01*
G37*
G04 #@! TD*
D16*
G04 #@! TO.C,MUX2*
X177379453Y-166225707D03*
X177379453Y-165575707D03*
X177379453Y-164925707D03*
X177379453Y-164275707D03*
X177379453Y-163625707D03*
X177379453Y-162975707D03*
X177379453Y-162325707D03*
X177379453Y-161675707D03*
X183279453Y-161675707D03*
X183279453Y-162325707D03*
X183279453Y-162975707D03*
X183279453Y-163625707D03*
X183279453Y-164275707D03*
X183279453Y-164925707D03*
X183279453Y-165575707D03*
X183279453Y-166225707D03*
G04 #@! TD*
D17*
G04 #@! TO.C,MUX3*
X175304453Y-175850707D03*
X174654453Y-175850707D03*
X174004453Y-175850707D03*
X173354453Y-175850707D03*
X172704453Y-175850707D03*
X172054453Y-175850707D03*
X171404453Y-175850707D03*
X170754453Y-175850707D03*
X170754453Y-169950707D03*
X171404453Y-169950707D03*
X172054453Y-169950707D03*
X172704453Y-169950707D03*
X173354453Y-169950707D03*
X174004453Y-169950707D03*
X174654453Y-169950707D03*
X175304453Y-169950707D03*
G04 #@! TD*
D15*
G04 #@! TO.C,MUX4*
X171332693Y-189206710D03*
D12*
G36*
X171800639Y-189834525D02*
X171377777Y-189988434D01*
X170864747Y-188578895D01*
X171287609Y-188424986D01*
X171800639Y-189834525D01*
X171800639Y-189834525D01*
G37*
D15*
X171943493Y-188984397D03*
D12*
G36*
X172411439Y-189612212D02*
X171988577Y-189766121D01*
X171475547Y-188356582D01*
X171898409Y-188202673D01*
X172411439Y-189612212D01*
X172411439Y-189612212D01*
G37*
D15*
X172554293Y-188762083D03*
D12*
G36*
X173022239Y-189389898D02*
X172599377Y-189543807D01*
X172086347Y-188134268D01*
X172509209Y-187980359D01*
X173022239Y-189389898D01*
X173022239Y-189389898D01*
G37*
D15*
X173165093Y-188539770D03*
D12*
G36*
X173633039Y-189167585D02*
X173210177Y-189321494D01*
X172697147Y-187911955D01*
X173120009Y-187758046D01*
X173633039Y-189167585D01*
X173633039Y-189167585D01*
G37*
D15*
X173775894Y-188317457D03*
D12*
G36*
X174243840Y-188945272D02*
X173820978Y-189099181D01*
X173307948Y-187689642D01*
X173730810Y-187535733D01*
X174243840Y-188945272D01*
X174243840Y-188945272D01*
G37*
D15*
X174386694Y-188095144D03*
D12*
G36*
X174854640Y-188722959D02*
X174431778Y-188876868D01*
X173918748Y-187467329D01*
X174341610Y-187313420D01*
X174854640Y-188722959D01*
X174854640Y-188722959D01*
G37*
D15*
X174997494Y-187872831D03*
D12*
G36*
X175465440Y-188500646D02*
X175042578Y-188654555D01*
X174529548Y-187245016D01*
X174952410Y-187091107D01*
X175465440Y-188500646D01*
X175465440Y-188500646D01*
G37*
D15*
X175608294Y-187650518D03*
D12*
G36*
X176076240Y-188278333D02*
X175653378Y-188432242D01*
X175140348Y-187022703D01*
X175563210Y-186868794D01*
X176076240Y-188278333D01*
X176076240Y-188278333D01*
G37*
D15*
X177626213Y-193194704D03*
D12*
G36*
X178094159Y-193822519D02*
X177671297Y-193976428D01*
X177158267Y-192566889D01*
X177581129Y-192412980D01*
X178094159Y-193822519D01*
X178094159Y-193822519D01*
G37*
D15*
X177015413Y-193417017D03*
D12*
G36*
X177483359Y-194044832D02*
X177060497Y-194198741D01*
X176547467Y-192789202D01*
X176970329Y-192635293D01*
X177483359Y-194044832D01*
X177483359Y-194044832D01*
G37*
D15*
X176404613Y-193639331D03*
D12*
G36*
X176872559Y-194267146D02*
X176449697Y-194421055D01*
X175936667Y-193011516D01*
X176359529Y-192857607D01*
X176872559Y-194267146D01*
X176872559Y-194267146D01*
G37*
D15*
X175793813Y-193861644D03*
D12*
G36*
X176261759Y-194489459D02*
X175838897Y-194643368D01*
X175325867Y-193233829D01*
X175748729Y-193079920D01*
X176261759Y-194489459D01*
X176261759Y-194489459D01*
G37*
D15*
X175183012Y-194083957D03*
D12*
G36*
X175650958Y-194711772D02*
X175228096Y-194865681D01*
X174715066Y-193456142D01*
X175137928Y-193302233D01*
X175650958Y-194711772D01*
X175650958Y-194711772D01*
G37*
D15*
X174572212Y-194306270D03*
D12*
G36*
X175040158Y-194934085D02*
X174617296Y-195087994D01*
X174104266Y-193678455D01*
X174527128Y-193524546D01*
X175040158Y-194934085D01*
X175040158Y-194934085D01*
G37*
D15*
X173961412Y-194528583D03*
D12*
G36*
X174429358Y-195156398D02*
X174006496Y-195310307D01*
X173493466Y-193900768D01*
X173916328Y-193746859D01*
X174429358Y-195156398D01*
X174429358Y-195156398D01*
G37*
D15*
X173350612Y-194750896D03*
D12*
G36*
X173818558Y-195378711D02*
X173395696Y-195532620D01*
X172882666Y-194123081D01*
X173305528Y-193969172D01*
X173818558Y-195378711D01*
X173818558Y-195378711D01*
G37*
G04 #@! TD*
D18*
G04 #@! TO.C,Q2*
X194129453Y-165050707D03*
X195079453Y-167050707D03*
X193179453Y-167050707D03*
G04 #@! TD*
D12*
G04 #@! TO.C,R1*
G36*
X184137819Y-189601754D02*
X184158956Y-189605505D01*
X184179624Y-189611309D01*
X184199623Y-189619112D01*
X184218761Y-189628837D01*
X184236853Y-189640391D01*
X184253726Y-189653662D01*
X184269217Y-189668524D01*
X184283176Y-189684833D01*
X184295470Y-189702431D01*
X184305980Y-189721149D01*
X184314604Y-189740808D01*
X184321260Y-189761217D01*
X184325884Y-189782180D01*
X184328430Y-189803496D01*
X184364180Y-190314748D01*
X184364625Y-190336210D01*
X184362964Y-190357613D01*
X184359213Y-190378750D01*
X184353409Y-190399417D01*
X184345606Y-190419416D01*
X184335881Y-190438554D01*
X184324327Y-190456647D01*
X184311056Y-190473520D01*
X184296194Y-190489011D01*
X184279885Y-190502970D01*
X184262287Y-190515264D01*
X184243569Y-190525774D01*
X184223910Y-190534398D01*
X184203501Y-190541054D01*
X184182538Y-190545678D01*
X184161222Y-190548224D01*
X183724788Y-190578742D01*
X183703326Y-190579187D01*
X183681923Y-190577526D01*
X183660786Y-190573775D01*
X183640118Y-190567971D01*
X183620119Y-190560168D01*
X183600981Y-190550443D01*
X183582889Y-190538889D01*
X183566016Y-190525618D01*
X183550525Y-190510756D01*
X183536566Y-190494447D01*
X183524272Y-190476849D01*
X183513762Y-190458131D01*
X183505138Y-190438472D01*
X183498482Y-190418063D01*
X183493858Y-190397100D01*
X183491312Y-190375784D01*
X183455562Y-189864532D01*
X183455117Y-189843070D01*
X183456778Y-189821667D01*
X183460529Y-189800530D01*
X183466333Y-189779863D01*
X183474136Y-189759864D01*
X183483861Y-189740726D01*
X183495415Y-189722633D01*
X183508686Y-189705760D01*
X183523548Y-189690269D01*
X183539857Y-189676310D01*
X183557455Y-189664016D01*
X183576173Y-189653506D01*
X183595832Y-189644882D01*
X183616241Y-189638226D01*
X183637204Y-189633602D01*
X183658520Y-189631056D01*
X184094954Y-189600538D01*
X184116416Y-189600093D01*
X184137819Y-189601754D01*
X184137819Y-189601754D01*
G37*
D13*
X183909871Y-190089640D03*
D12*
G36*
X185708983Y-189491888D02*
X185730120Y-189495639D01*
X185750788Y-189501443D01*
X185770787Y-189509246D01*
X185789925Y-189518971D01*
X185808017Y-189530525D01*
X185824890Y-189543796D01*
X185840381Y-189558658D01*
X185854340Y-189574967D01*
X185866634Y-189592565D01*
X185877144Y-189611283D01*
X185885768Y-189630942D01*
X185892424Y-189651351D01*
X185897048Y-189672314D01*
X185899594Y-189693630D01*
X185935344Y-190204882D01*
X185935789Y-190226344D01*
X185934128Y-190247747D01*
X185930377Y-190268884D01*
X185924573Y-190289551D01*
X185916770Y-190309550D01*
X185907045Y-190328688D01*
X185895491Y-190346781D01*
X185882220Y-190363654D01*
X185867358Y-190379145D01*
X185851049Y-190393104D01*
X185833451Y-190405398D01*
X185814733Y-190415908D01*
X185795074Y-190424532D01*
X185774665Y-190431188D01*
X185753702Y-190435812D01*
X185732386Y-190438358D01*
X185295952Y-190468876D01*
X185274490Y-190469321D01*
X185253087Y-190467660D01*
X185231950Y-190463909D01*
X185211282Y-190458105D01*
X185191283Y-190450302D01*
X185172145Y-190440577D01*
X185154053Y-190429023D01*
X185137180Y-190415752D01*
X185121689Y-190400890D01*
X185107730Y-190384581D01*
X185095436Y-190366983D01*
X185084926Y-190348265D01*
X185076302Y-190328606D01*
X185069646Y-190308197D01*
X185065022Y-190287234D01*
X185062476Y-190265918D01*
X185026726Y-189754666D01*
X185026281Y-189733204D01*
X185027942Y-189711801D01*
X185031693Y-189690664D01*
X185037497Y-189669997D01*
X185045300Y-189649998D01*
X185055025Y-189630860D01*
X185066579Y-189612767D01*
X185079850Y-189595894D01*
X185094712Y-189580403D01*
X185111021Y-189566444D01*
X185128619Y-189554150D01*
X185147337Y-189543640D01*
X185166996Y-189535016D01*
X185187405Y-189528360D01*
X185208368Y-189523736D01*
X185229684Y-189521190D01*
X185666118Y-189490672D01*
X185687580Y-189490227D01*
X185708983Y-189491888D01*
X185708983Y-189491888D01*
G37*
D13*
X185481035Y-189979774D03*
G04 #@! TD*
D12*
G04 #@! TO.C,R2*
G36*
X189194644Y-160876760D02*
X189215879Y-160879910D01*
X189236703Y-160885126D01*
X189256915Y-160892358D01*
X189276321Y-160901537D01*
X189294734Y-160912573D01*
X189311977Y-160925361D01*
X189327883Y-160939777D01*
X189342299Y-160955683D01*
X189355087Y-160972926D01*
X189366123Y-160991339D01*
X189375302Y-161010745D01*
X189382534Y-161030957D01*
X189387750Y-161051781D01*
X189390900Y-161073016D01*
X189391953Y-161094457D01*
X189391953Y-161606957D01*
X189390900Y-161628398D01*
X189387750Y-161649633D01*
X189382534Y-161670457D01*
X189375302Y-161690669D01*
X189366123Y-161710075D01*
X189355087Y-161728488D01*
X189342299Y-161745731D01*
X189327883Y-161761637D01*
X189311977Y-161776053D01*
X189294734Y-161788841D01*
X189276321Y-161799877D01*
X189256915Y-161809056D01*
X189236703Y-161816288D01*
X189215879Y-161821504D01*
X189194644Y-161824654D01*
X189173203Y-161825707D01*
X188735703Y-161825707D01*
X188714262Y-161824654D01*
X188693027Y-161821504D01*
X188672203Y-161816288D01*
X188651991Y-161809056D01*
X188632585Y-161799877D01*
X188614172Y-161788841D01*
X188596929Y-161776053D01*
X188581023Y-161761637D01*
X188566607Y-161745731D01*
X188553819Y-161728488D01*
X188542783Y-161710075D01*
X188533604Y-161690669D01*
X188526372Y-161670457D01*
X188521156Y-161649633D01*
X188518006Y-161628398D01*
X188516953Y-161606957D01*
X188516953Y-161094457D01*
X188518006Y-161073016D01*
X188521156Y-161051781D01*
X188526372Y-161030957D01*
X188533604Y-161010745D01*
X188542783Y-160991339D01*
X188553819Y-160972926D01*
X188566607Y-160955683D01*
X188581023Y-160939777D01*
X188596929Y-160925361D01*
X188614172Y-160912573D01*
X188632585Y-160901537D01*
X188651991Y-160892358D01*
X188672203Y-160885126D01*
X188693027Y-160879910D01*
X188714262Y-160876760D01*
X188735703Y-160875707D01*
X189173203Y-160875707D01*
X189194644Y-160876760D01*
X189194644Y-160876760D01*
G37*
D13*
X188954453Y-161350707D03*
D12*
G36*
X190769644Y-160876760D02*
X190790879Y-160879910D01*
X190811703Y-160885126D01*
X190831915Y-160892358D01*
X190851321Y-160901537D01*
X190869734Y-160912573D01*
X190886977Y-160925361D01*
X190902883Y-160939777D01*
X190917299Y-160955683D01*
X190930087Y-160972926D01*
X190941123Y-160991339D01*
X190950302Y-161010745D01*
X190957534Y-161030957D01*
X190962750Y-161051781D01*
X190965900Y-161073016D01*
X190966953Y-161094457D01*
X190966953Y-161606957D01*
X190965900Y-161628398D01*
X190962750Y-161649633D01*
X190957534Y-161670457D01*
X190950302Y-161690669D01*
X190941123Y-161710075D01*
X190930087Y-161728488D01*
X190917299Y-161745731D01*
X190902883Y-161761637D01*
X190886977Y-161776053D01*
X190869734Y-161788841D01*
X190851321Y-161799877D01*
X190831915Y-161809056D01*
X190811703Y-161816288D01*
X190790879Y-161821504D01*
X190769644Y-161824654D01*
X190748203Y-161825707D01*
X190310703Y-161825707D01*
X190289262Y-161824654D01*
X190268027Y-161821504D01*
X190247203Y-161816288D01*
X190226991Y-161809056D01*
X190207585Y-161799877D01*
X190189172Y-161788841D01*
X190171929Y-161776053D01*
X190156023Y-161761637D01*
X190141607Y-161745731D01*
X190128819Y-161728488D01*
X190117783Y-161710075D01*
X190108604Y-161690669D01*
X190101372Y-161670457D01*
X190096156Y-161649633D01*
X190093006Y-161628398D01*
X190091953Y-161606957D01*
X190091953Y-161094457D01*
X190093006Y-161073016D01*
X190096156Y-161051781D01*
X190101372Y-161030957D01*
X190108604Y-161010745D01*
X190117783Y-160991339D01*
X190128819Y-160972926D01*
X190141607Y-160955683D01*
X190156023Y-160939777D01*
X190171929Y-160925361D01*
X190189172Y-160912573D01*
X190207585Y-160901537D01*
X190226991Y-160892358D01*
X190247203Y-160885126D01*
X190268027Y-160879910D01*
X190289262Y-160876760D01*
X190310703Y-160875707D01*
X190748203Y-160875707D01*
X190769644Y-160876760D01*
X190769644Y-160876760D01*
G37*
D13*
X190529453Y-161350707D03*
G04 #@! TD*
D12*
G04 #@! TO.C,R3*
G36*
X189182144Y-162476760D02*
X189203379Y-162479910D01*
X189224203Y-162485126D01*
X189244415Y-162492358D01*
X189263821Y-162501537D01*
X189282234Y-162512573D01*
X189299477Y-162525361D01*
X189315383Y-162539777D01*
X189329799Y-162555683D01*
X189342587Y-162572926D01*
X189353623Y-162591339D01*
X189362802Y-162610745D01*
X189370034Y-162630957D01*
X189375250Y-162651781D01*
X189378400Y-162673016D01*
X189379453Y-162694457D01*
X189379453Y-163206957D01*
X189378400Y-163228398D01*
X189375250Y-163249633D01*
X189370034Y-163270457D01*
X189362802Y-163290669D01*
X189353623Y-163310075D01*
X189342587Y-163328488D01*
X189329799Y-163345731D01*
X189315383Y-163361637D01*
X189299477Y-163376053D01*
X189282234Y-163388841D01*
X189263821Y-163399877D01*
X189244415Y-163409056D01*
X189224203Y-163416288D01*
X189203379Y-163421504D01*
X189182144Y-163424654D01*
X189160703Y-163425707D01*
X188723203Y-163425707D01*
X188701762Y-163424654D01*
X188680527Y-163421504D01*
X188659703Y-163416288D01*
X188639491Y-163409056D01*
X188620085Y-163399877D01*
X188601672Y-163388841D01*
X188584429Y-163376053D01*
X188568523Y-163361637D01*
X188554107Y-163345731D01*
X188541319Y-163328488D01*
X188530283Y-163310075D01*
X188521104Y-163290669D01*
X188513872Y-163270457D01*
X188508656Y-163249633D01*
X188505506Y-163228398D01*
X188504453Y-163206957D01*
X188504453Y-162694457D01*
X188505506Y-162673016D01*
X188508656Y-162651781D01*
X188513872Y-162630957D01*
X188521104Y-162610745D01*
X188530283Y-162591339D01*
X188541319Y-162572926D01*
X188554107Y-162555683D01*
X188568523Y-162539777D01*
X188584429Y-162525361D01*
X188601672Y-162512573D01*
X188620085Y-162501537D01*
X188639491Y-162492358D01*
X188659703Y-162485126D01*
X188680527Y-162479910D01*
X188701762Y-162476760D01*
X188723203Y-162475707D01*
X189160703Y-162475707D01*
X189182144Y-162476760D01*
X189182144Y-162476760D01*
G37*
D13*
X188941953Y-162950707D03*
D12*
G36*
X190757144Y-162476760D02*
X190778379Y-162479910D01*
X190799203Y-162485126D01*
X190819415Y-162492358D01*
X190838821Y-162501537D01*
X190857234Y-162512573D01*
X190874477Y-162525361D01*
X190890383Y-162539777D01*
X190904799Y-162555683D01*
X190917587Y-162572926D01*
X190928623Y-162591339D01*
X190937802Y-162610745D01*
X190945034Y-162630957D01*
X190950250Y-162651781D01*
X190953400Y-162673016D01*
X190954453Y-162694457D01*
X190954453Y-163206957D01*
X190953400Y-163228398D01*
X190950250Y-163249633D01*
X190945034Y-163270457D01*
X190937802Y-163290669D01*
X190928623Y-163310075D01*
X190917587Y-163328488D01*
X190904799Y-163345731D01*
X190890383Y-163361637D01*
X190874477Y-163376053D01*
X190857234Y-163388841D01*
X190838821Y-163399877D01*
X190819415Y-163409056D01*
X190799203Y-163416288D01*
X190778379Y-163421504D01*
X190757144Y-163424654D01*
X190735703Y-163425707D01*
X190298203Y-163425707D01*
X190276762Y-163424654D01*
X190255527Y-163421504D01*
X190234703Y-163416288D01*
X190214491Y-163409056D01*
X190195085Y-163399877D01*
X190176672Y-163388841D01*
X190159429Y-163376053D01*
X190143523Y-163361637D01*
X190129107Y-163345731D01*
X190116319Y-163328488D01*
X190105283Y-163310075D01*
X190096104Y-163290669D01*
X190088872Y-163270457D01*
X190083656Y-163249633D01*
X190080506Y-163228398D01*
X190079453Y-163206957D01*
X190079453Y-162694457D01*
X190080506Y-162673016D01*
X190083656Y-162651781D01*
X190088872Y-162630957D01*
X190096104Y-162610745D01*
X190105283Y-162591339D01*
X190116319Y-162572926D01*
X190129107Y-162555683D01*
X190143523Y-162539777D01*
X190159429Y-162525361D01*
X190176672Y-162512573D01*
X190195085Y-162501537D01*
X190214491Y-162492358D01*
X190234703Y-162485126D01*
X190255527Y-162479910D01*
X190276762Y-162476760D01*
X190298203Y-162475707D01*
X190735703Y-162475707D01*
X190757144Y-162476760D01*
X190757144Y-162476760D01*
G37*
D13*
X190516953Y-162950707D03*
G04 #@! TD*
D12*
G04 #@! TO.C,R4*
G36*
X193597144Y-180924760D02*
X193618379Y-180927910D01*
X193639203Y-180933126D01*
X193659415Y-180940358D01*
X193678821Y-180949537D01*
X193697234Y-180960573D01*
X193714477Y-180973361D01*
X193730383Y-180987777D01*
X193744799Y-181003683D01*
X193757587Y-181020926D01*
X193768623Y-181039339D01*
X193777802Y-181058745D01*
X193785034Y-181078957D01*
X193790250Y-181099781D01*
X193793400Y-181121016D01*
X193794453Y-181142457D01*
X193794453Y-181654957D01*
X193793400Y-181676398D01*
X193790250Y-181697633D01*
X193785034Y-181718457D01*
X193777802Y-181738669D01*
X193768623Y-181758075D01*
X193757587Y-181776488D01*
X193744799Y-181793731D01*
X193730383Y-181809637D01*
X193714477Y-181824053D01*
X193697234Y-181836841D01*
X193678821Y-181847877D01*
X193659415Y-181857056D01*
X193639203Y-181864288D01*
X193618379Y-181869504D01*
X193597144Y-181872654D01*
X193575703Y-181873707D01*
X193138203Y-181873707D01*
X193116762Y-181872654D01*
X193095527Y-181869504D01*
X193074703Y-181864288D01*
X193054491Y-181857056D01*
X193035085Y-181847877D01*
X193016672Y-181836841D01*
X192999429Y-181824053D01*
X192983523Y-181809637D01*
X192969107Y-181793731D01*
X192956319Y-181776488D01*
X192945283Y-181758075D01*
X192936104Y-181738669D01*
X192928872Y-181718457D01*
X192923656Y-181697633D01*
X192920506Y-181676398D01*
X192919453Y-181654957D01*
X192919453Y-181142457D01*
X192920506Y-181121016D01*
X192923656Y-181099781D01*
X192928872Y-181078957D01*
X192936104Y-181058745D01*
X192945283Y-181039339D01*
X192956319Y-181020926D01*
X192969107Y-181003683D01*
X192983523Y-180987777D01*
X192999429Y-180973361D01*
X193016672Y-180960573D01*
X193035085Y-180949537D01*
X193054491Y-180940358D01*
X193074703Y-180933126D01*
X193095527Y-180927910D01*
X193116762Y-180924760D01*
X193138203Y-180923707D01*
X193575703Y-180923707D01*
X193597144Y-180924760D01*
X193597144Y-180924760D01*
G37*
D13*
X193356953Y-181398707D03*
D12*
G36*
X192022144Y-180924760D02*
X192043379Y-180927910D01*
X192064203Y-180933126D01*
X192084415Y-180940358D01*
X192103821Y-180949537D01*
X192122234Y-180960573D01*
X192139477Y-180973361D01*
X192155383Y-180987777D01*
X192169799Y-181003683D01*
X192182587Y-181020926D01*
X192193623Y-181039339D01*
X192202802Y-181058745D01*
X192210034Y-181078957D01*
X192215250Y-181099781D01*
X192218400Y-181121016D01*
X192219453Y-181142457D01*
X192219453Y-181654957D01*
X192218400Y-181676398D01*
X192215250Y-181697633D01*
X192210034Y-181718457D01*
X192202802Y-181738669D01*
X192193623Y-181758075D01*
X192182587Y-181776488D01*
X192169799Y-181793731D01*
X192155383Y-181809637D01*
X192139477Y-181824053D01*
X192122234Y-181836841D01*
X192103821Y-181847877D01*
X192084415Y-181857056D01*
X192064203Y-181864288D01*
X192043379Y-181869504D01*
X192022144Y-181872654D01*
X192000703Y-181873707D01*
X191563203Y-181873707D01*
X191541762Y-181872654D01*
X191520527Y-181869504D01*
X191499703Y-181864288D01*
X191479491Y-181857056D01*
X191460085Y-181847877D01*
X191441672Y-181836841D01*
X191424429Y-181824053D01*
X191408523Y-181809637D01*
X191394107Y-181793731D01*
X191381319Y-181776488D01*
X191370283Y-181758075D01*
X191361104Y-181738669D01*
X191353872Y-181718457D01*
X191348656Y-181697633D01*
X191345506Y-181676398D01*
X191344453Y-181654957D01*
X191344453Y-181142457D01*
X191345506Y-181121016D01*
X191348656Y-181099781D01*
X191353872Y-181078957D01*
X191361104Y-181058745D01*
X191370283Y-181039339D01*
X191381319Y-181020926D01*
X191394107Y-181003683D01*
X191408523Y-180987777D01*
X191424429Y-180973361D01*
X191441672Y-180960573D01*
X191460085Y-180949537D01*
X191479491Y-180940358D01*
X191499703Y-180933126D01*
X191520527Y-180927910D01*
X191541762Y-180924760D01*
X191563203Y-180923707D01*
X192000703Y-180923707D01*
X192022144Y-180924760D01*
X192022144Y-180924760D01*
G37*
D13*
X191781953Y-181398707D03*
G04 #@! TD*
D12*
G04 #@! TO.C,R5*
G36*
X180742493Y-200112032D02*
X180763630Y-200115783D01*
X180784297Y-200121587D01*
X180804296Y-200129390D01*
X180823434Y-200139115D01*
X180841527Y-200150669D01*
X180858400Y-200163940D01*
X180873891Y-200178802D01*
X180887850Y-200195111D01*
X180900144Y-200212709D01*
X180910654Y-200231427D01*
X180919278Y-200251086D01*
X180925934Y-200271495D01*
X180930558Y-200292458D01*
X180933104Y-200313774D01*
X180963622Y-200750208D01*
X180964067Y-200771670D01*
X180962406Y-200793073D01*
X180958655Y-200814210D01*
X180952851Y-200834878D01*
X180945048Y-200854877D01*
X180935323Y-200874015D01*
X180923769Y-200892107D01*
X180910498Y-200908980D01*
X180895636Y-200924471D01*
X180879327Y-200938430D01*
X180861729Y-200950724D01*
X180843011Y-200961234D01*
X180823352Y-200969858D01*
X180802943Y-200976514D01*
X180781980Y-200981138D01*
X180760664Y-200983684D01*
X180249412Y-201019434D01*
X180227950Y-201019879D01*
X180206547Y-201018218D01*
X180185410Y-201014467D01*
X180164743Y-201008663D01*
X180144744Y-201000860D01*
X180125606Y-200991135D01*
X180107513Y-200979581D01*
X180090640Y-200966310D01*
X180075149Y-200951448D01*
X180061190Y-200935139D01*
X180048896Y-200917541D01*
X180038386Y-200898823D01*
X180029762Y-200879164D01*
X180023106Y-200858755D01*
X180018482Y-200837792D01*
X180015936Y-200816476D01*
X179985418Y-200380042D01*
X179984973Y-200358580D01*
X179986634Y-200337177D01*
X179990385Y-200316040D01*
X179996189Y-200295372D01*
X180003992Y-200275373D01*
X180013717Y-200256235D01*
X180025271Y-200238143D01*
X180038542Y-200221270D01*
X180053404Y-200205779D01*
X180069713Y-200191820D01*
X180087311Y-200179526D01*
X180106029Y-200169016D01*
X180125688Y-200160392D01*
X180146097Y-200153736D01*
X180167060Y-200149112D01*
X180188376Y-200146566D01*
X180699628Y-200110816D01*
X180721090Y-200110371D01*
X180742493Y-200112032D01*
X180742493Y-200112032D01*
G37*
D13*
X180474520Y-200565125D03*
D12*
G36*
X180852359Y-201683196D02*
X180873496Y-201686947D01*
X180894163Y-201692751D01*
X180914162Y-201700554D01*
X180933300Y-201710279D01*
X180951393Y-201721833D01*
X180968266Y-201735104D01*
X180983757Y-201749966D01*
X180997716Y-201766275D01*
X181010010Y-201783873D01*
X181020520Y-201802591D01*
X181029144Y-201822250D01*
X181035800Y-201842659D01*
X181040424Y-201863622D01*
X181042970Y-201884938D01*
X181073488Y-202321372D01*
X181073933Y-202342834D01*
X181072272Y-202364237D01*
X181068521Y-202385374D01*
X181062717Y-202406042D01*
X181054914Y-202426041D01*
X181045189Y-202445179D01*
X181033635Y-202463271D01*
X181020364Y-202480144D01*
X181005502Y-202495635D01*
X180989193Y-202509594D01*
X180971595Y-202521888D01*
X180952877Y-202532398D01*
X180933218Y-202541022D01*
X180912809Y-202547678D01*
X180891846Y-202552302D01*
X180870530Y-202554848D01*
X180359278Y-202590598D01*
X180337816Y-202591043D01*
X180316413Y-202589382D01*
X180295276Y-202585631D01*
X180274609Y-202579827D01*
X180254610Y-202572024D01*
X180235472Y-202562299D01*
X180217379Y-202550745D01*
X180200506Y-202537474D01*
X180185015Y-202522612D01*
X180171056Y-202506303D01*
X180158762Y-202488705D01*
X180148252Y-202469987D01*
X180139628Y-202450328D01*
X180132972Y-202429919D01*
X180128348Y-202408956D01*
X180125802Y-202387640D01*
X180095284Y-201951206D01*
X180094839Y-201929744D01*
X180096500Y-201908341D01*
X180100251Y-201887204D01*
X180106055Y-201866536D01*
X180113858Y-201846537D01*
X180123583Y-201827399D01*
X180135137Y-201809307D01*
X180148408Y-201792434D01*
X180163270Y-201776943D01*
X180179579Y-201762984D01*
X180197177Y-201750690D01*
X180215895Y-201740180D01*
X180235554Y-201731556D01*
X180255963Y-201724900D01*
X180276926Y-201720276D01*
X180298242Y-201717730D01*
X180809494Y-201681980D01*
X180830956Y-201681535D01*
X180852359Y-201683196D01*
X180852359Y-201683196D01*
G37*
D13*
X180584386Y-202136289D03*
G04 #@! TD*
D12*
G04 #@! TO.C,R6*
G36*
X187594644Y-175776760D02*
X187615879Y-175779910D01*
X187636703Y-175785126D01*
X187656915Y-175792358D01*
X187676321Y-175801537D01*
X187694734Y-175812573D01*
X187711977Y-175825361D01*
X187727883Y-175839777D01*
X187742299Y-175855683D01*
X187755087Y-175872926D01*
X187766123Y-175891339D01*
X187775302Y-175910745D01*
X187782534Y-175930957D01*
X187787750Y-175951781D01*
X187790900Y-175973016D01*
X187791953Y-175994457D01*
X187791953Y-176506957D01*
X187790900Y-176528398D01*
X187787750Y-176549633D01*
X187782534Y-176570457D01*
X187775302Y-176590669D01*
X187766123Y-176610075D01*
X187755087Y-176628488D01*
X187742299Y-176645731D01*
X187727883Y-176661637D01*
X187711977Y-176676053D01*
X187694734Y-176688841D01*
X187676321Y-176699877D01*
X187656915Y-176709056D01*
X187636703Y-176716288D01*
X187615879Y-176721504D01*
X187594644Y-176724654D01*
X187573203Y-176725707D01*
X187135703Y-176725707D01*
X187114262Y-176724654D01*
X187093027Y-176721504D01*
X187072203Y-176716288D01*
X187051991Y-176709056D01*
X187032585Y-176699877D01*
X187014172Y-176688841D01*
X186996929Y-176676053D01*
X186981023Y-176661637D01*
X186966607Y-176645731D01*
X186953819Y-176628488D01*
X186942783Y-176610075D01*
X186933604Y-176590669D01*
X186926372Y-176570457D01*
X186921156Y-176549633D01*
X186918006Y-176528398D01*
X186916953Y-176506957D01*
X186916953Y-175994457D01*
X186918006Y-175973016D01*
X186921156Y-175951781D01*
X186926372Y-175930957D01*
X186933604Y-175910745D01*
X186942783Y-175891339D01*
X186953819Y-175872926D01*
X186966607Y-175855683D01*
X186981023Y-175839777D01*
X186996929Y-175825361D01*
X187014172Y-175812573D01*
X187032585Y-175801537D01*
X187051991Y-175792358D01*
X187072203Y-175785126D01*
X187093027Y-175779910D01*
X187114262Y-175776760D01*
X187135703Y-175775707D01*
X187573203Y-175775707D01*
X187594644Y-175776760D01*
X187594644Y-175776760D01*
G37*
D13*
X187354453Y-176250707D03*
D12*
G36*
X189169644Y-175776760D02*
X189190879Y-175779910D01*
X189211703Y-175785126D01*
X189231915Y-175792358D01*
X189251321Y-175801537D01*
X189269734Y-175812573D01*
X189286977Y-175825361D01*
X189302883Y-175839777D01*
X189317299Y-175855683D01*
X189330087Y-175872926D01*
X189341123Y-175891339D01*
X189350302Y-175910745D01*
X189357534Y-175930957D01*
X189362750Y-175951781D01*
X189365900Y-175973016D01*
X189366953Y-175994457D01*
X189366953Y-176506957D01*
X189365900Y-176528398D01*
X189362750Y-176549633D01*
X189357534Y-176570457D01*
X189350302Y-176590669D01*
X189341123Y-176610075D01*
X189330087Y-176628488D01*
X189317299Y-176645731D01*
X189302883Y-176661637D01*
X189286977Y-176676053D01*
X189269734Y-176688841D01*
X189251321Y-176699877D01*
X189231915Y-176709056D01*
X189211703Y-176716288D01*
X189190879Y-176721504D01*
X189169644Y-176724654D01*
X189148203Y-176725707D01*
X188710703Y-176725707D01*
X188689262Y-176724654D01*
X188668027Y-176721504D01*
X188647203Y-176716288D01*
X188626991Y-176709056D01*
X188607585Y-176699877D01*
X188589172Y-176688841D01*
X188571929Y-176676053D01*
X188556023Y-176661637D01*
X188541607Y-176645731D01*
X188528819Y-176628488D01*
X188517783Y-176610075D01*
X188508604Y-176590669D01*
X188501372Y-176570457D01*
X188496156Y-176549633D01*
X188493006Y-176528398D01*
X188491953Y-176506957D01*
X188491953Y-175994457D01*
X188493006Y-175973016D01*
X188496156Y-175951781D01*
X188501372Y-175930957D01*
X188508604Y-175910745D01*
X188517783Y-175891339D01*
X188528819Y-175872926D01*
X188541607Y-175855683D01*
X188556023Y-175839777D01*
X188571929Y-175825361D01*
X188589172Y-175812573D01*
X188607585Y-175801537D01*
X188626991Y-175792358D01*
X188647203Y-175785126D01*
X188668027Y-175779910D01*
X188689262Y-175776760D01*
X188710703Y-175775707D01*
X189148203Y-175775707D01*
X189169644Y-175776760D01*
X189169644Y-175776760D01*
G37*
D13*
X188929453Y-176250707D03*
G04 #@! TD*
D12*
G04 #@! TO.C,R7*
G36*
X179682144Y-159326760D02*
X179703379Y-159329910D01*
X179724203Y-159335126D01*
X179744415Y-159342358D01*
X179763821Y-159351537D01*
X179782234Y-159362573D01*
X179799477Y-159375361D01*
X179815383Y-159389777D01*
X179829799Y-159405683D01*
X179842587Y-159422926D01*
X179853623Y-159441339D01*
X179862802Y-159460745D01*
X179870034Y-159480957D01*
X179875250Y-159501781D01*
X179878400Y-159523016D01*
X179879453Y-159544457D01*
X179879453Y-160056957D01*
X179878400Y-160078398D01*
X179875250Y-160099633D01*
X179870034Y-160120457D01*
X179862802Y-160140669D01*
X179853623Y-160160075D01*
X179842587Y-160178488D01*
X179829799Y-160195731D01*
X179815383Y-160211637D01*
X179799477Y-160226053D01*
X179782234Y-160238841D01*
X179763821Y-160249877D01*
X179744415Y-160259056D01*
X179724203Y-160266288D01*
X179703379Y-160271504D01*
X179682144Y-160274654D01*
X179660703Y-160275707D01*
X179223203Y-160275707D01*
X179201762Y-160274654D01*
X179180527Y-160271504D01*
X179159703Y-160266288D01*
X179139491Y-160259056D01*
X179120085Y-160249877D01*
X179101672Y-160238841D01*
X179084429Y-160226053D01*
X179068523Y-160211637D01*
X179054107Y-160195731D01*
X179041319Y-160178488D01*
X179030283Y-160160075D01*
X179021104Y-160140669D01*
X179013872Y-160120457D01*
X179008656Y-160099633D01*
X179005506Y-160078398D01*
X179004453Y-160056957D01*
X179004453Y-159544457D01*
X179005506Y-159523016D01*
X179008656Y-159501781D01*
X179013872Y-159480957D01*
X179021104Y-159460745D01*
X179030283Y-159441339D01*
X179041319Y-159422926D01*
X179054107Y-159405683D01*
X179068523Y-159389777D01*
X179084429Y-159375361D01*
X179101672Y-159362573D01*
X179120085Y-159351537D01*
X179139491Y-159342358D01*
X179159703Y-159335126D01*
X179180527Y-159329910D01*
X179201762Y-159326760D01*
X179223203Y-159325707D01*
X179660703Y-159325707D01*
X179682144Y-159326760D01*
X179682144Y-159326760D01*
G37*
D13*
X179441953Y-159800707D03*
D12*
G36*
X181257144Y-159326760D02*
X181278379Y-159329910D01*
X181299203Y-159335126D01*
X181319415Y-159342358D01*
X181338821Y-159351537D01*
X181357234Y-159362573D01*
X181374477Y-159375361D01*
X181390383Y-159389777D01*
X181404799Y-159405683D01*
X181417587Y-159422926D01*
X181428623Y-159441339D01*
X181437802Y-159460745D01*
X181445034Y-159480957D01*
X181450250Y-159501781D01*
X181453400Y-159523016D01*
X181454453Y-159544457D01*
X181454453Y-160056957D01*
X181453400Y-160078398D01*
X181450250Y-160099633D01*
X181445034Y-160120457D01*
X181437802Y-160140669D01*
X181428623Y-160160075D01*
X181417587Y-160178488D01*
X181404799Y-160195731D01*
X181390383Y-160211637D01*
X181374477Y-160226053D01*
X181357234Y-160238841D01*
X181338821Y-160249877D01*
X181319415Y-160259056D01*
X181299203Y-160266288D01*
X181278379Y-160271504D01*
X181257144Y-160274654D01*
X181235703Y-160275707D01*
X180798203Y-160275707D01*
X180776762Y-160274654D01*
X180755527Y-160271504D01*
X180734703Y-160266288D01*
X180714491Y-160259056D01*
X180695085Y-160249877D01*
X180676672Y-160238841D01*
X180659429Y-160226053D01*
X180643523Y-160211637D01*
X180629107Y-160195731D01*
X180616319Y-160178488D01*
X180605283Y-160160075D01*
X180596104Y-160140669D01*
X180588872Y-160120457D01*
X180583656Y-160099633D01*
X180580506Y-160078398D01*
X180579453Y-160056957D01*
X180579453Y-159544457D01*
X180580506Y-159523016D01*
X180583656Y-159501781D01*
X180588872Y-159480957D01*
X180596104Y-159460745D01*
X180605283Y-159441339D01*
X180616319Y-159422926D01*
X180629107Y-159405683D01*
X180643523Y-159389777D01*
X180659429Y-159375361D01*
X180676672Y-159362573D01*
X180695085Y-159351537D01*
X180714491Y-159342358D01*
X180734703Y-159335126D01*
X180755527Y-159329910D01*
X180776762Y-159326760D01*
X180798203Y-159325707D01*
X181235703Y-159325707D01*
X181257144Y-159326760D01*
X181257144Y-159326760D01*
G37*
D13*
X181016953Y-159800707D03*
G04 #@! TD*
D12*
G04 #@! TO.C,R8*
G36*
X194907144Y-138814260D02*
X194928379Y-138817410D01*
X194949203Y-138822626D01*
X194969415Y-138829858D01*
X194988821Y-138839037D01*
X195007234Y-138850073D01*
X195024477Y-138862861D01*
X195040383Y-138877277D01*
X195054799Y-138893183D01*
X195067587Y-138910426D01*
X195078623Y-138928839D01*
X195087802Y-138948245D01*
X195095034Y-138968457D01*
X195100250Y-138989281D01*
X195103400Y-139010516D01*
X195104453Y-139031957D01*
X195104453Y-139469457D01*
X195103400Y-139490898D01*
X195100250Y-139512133D01*
X195095034Y-139532957D01*
X195087802Y-139553169D01*
X195078623Y-139572575D01*
X195067587Y-139590988D01*
X195054799Y-139608231D01*
X195040383Y-139624137D01*
X195024477Y-139638553D01*
X195007234Y-139651341D01*
X194988821Y-139662377D01*
X194969415Y-139671556D01*
X194949203Y-139678788D01*
X194928379Y-139684004D01*
X194907144Y-139687154D01*
X194885703Y-139688207D01*
X194373203Y-139688207D01*
X194351762Y-139687154D01*
X194330527Y-139684004D01*
X194309703Y-139678788D01*
X194289491Y-139671556D01*
X194270085Y-139662377D01*
X194251672Y-139651341D01*
X194234429Y-139638553D01*
X194218523Y-139624137D01*
X194204107Y-139608231D01*
X194191319Y-139590988D01*
X194180283Y-139572575D01*
X194171104Y-139553169D01*
X194163872Y-139532957D01*
X194158656Y-139512133D01*
X194155506Y-139490898D01*
X194154453Y-139469457D01*
X194154453Y-139031957D01*
X194155506Y-139010516D01*
X194158656Y-138989281D01*
X194163872Y-138968457D01*
X194171104Y-138948245D01*
X194180283Y-138928839D01*
X194191319Y-138910426D01*
X194204107Y-138893183D01*
X194218523Y-138877277D01*
X194234429Y-138862861D01*
X194251672Y-138850073D01*
X194270085Y-138839037D01*
X194289491Y-138829858D01*
X194309703Y-138822626D01*
X194330527Y-138817410D01*
X194351762Y-138814260D01*
X194373203Y-138813207D01*
X194885703Y-138813207D01*
X194907144Y-138814260D01*
X194907144Y-138814260D01*
G37*
D13*
X194629453Y-139250707D03*
D12*
G36*
X194907144Y-140389260D02*
X194928379Y-140392410D01*
X194949203Y-140397626D01*
X194969415Y-140404858D01*
X194988821Y-140414037D01*
X195007234Y-140425073D01*
X195024477Y-140437861D01*
X195040383Y-140452277D01*
X195054799Y-140468183D01*
X195067587Y-140485426D01*
X195078623Y-140503839D01*
X195087802Y-140523245D01*
X195095034Y-140543457D01*
X195100250Y-140564281D01*
X195103400Y-140585516D01*
X195104453Y-140606957D01*
X195104453Y-141044457D01*
X195103400Y-141065898D01*
X195100250Y-141087133D01*
X195095034Y-141107957D01*
X195087802Y-141128169D01*
X195078623Y-141147575D01*
X195067587Y-141165988D01*
X195054799Y-141183231D01*
X195040383Y-141199137D01*
X195024477Y-141213553D01*
X195007234Y-141226341D01*
X194988821Y-141237377D01*
X194969415Y-141246556D01*
X194949203Y-141253788D01*
X194928379Y-141259004D01*
X194907144Y-141262154D01*
X194885703Y-141263207D01*
X194373203Y-141263207D01*
X194351762Y-141262154D01*
X194330527Y-141259004D01*
X194309703Y-141253788D01*
X194289491Y-141246556D01*
X194270085Y-141237377D01*
X194251672Y-141226341D01*
X194234429Y-141213553D01*
X194218523Y-141199137D01*
X194204107Y-141183231D01*
X194191319Y-141165988D01*
X194180283Y-141147575D01*
X194171104Y-141128169D01*
X194163872Y-141107957D01*
X194158656Y-141087133D01*
X194155506Y-141065898D01*
X194154453Y-141044457D01*
X194154453Y-140606957D01*
X194155506Y-140585516D01*
X194158656Y-140564281D01*
X194163872Y-140543457D01*
X194171104Y-140523245D01*
X194180283Y-140503839D01*
X194191319Y-140485426D01*
X194204107Y-140468183D01*
X194218523Y-140452277D01*
X194234429Y-140437861D01*
X194251672Y-140425073D01*
X194270085Y-140414037D01*
X194289491Y-140404858D01*
X194309703Y-140397626D01*
X194330527Y-140392410D01*
X194351762Y-140389260D01*
X194373203Y-140388207D01*
X194885703Y-140388207D01*
X194907144Y-140389260D01*
X194907144Y-140389260D01*
G37*
D13*
X194629453Y-140825707D03*
G04 #@! TD*
D12*
G04 #@! TO.C,R9*
G36*
X197907144Y-138826760D02*
X197928379Y-138829910D01*
X197949203Y-138835126D01*
X197969415Y-138842358D01*
X197988821Y-138851537D01*
X198007234Y-138862573D01*
X198024477Y-138875361D01*
X198040383Y-138889777D01*
X198054799Y-138905683D01*
X198067587Y-138922926D01*
X198078623Y-138941339D01*
X198087802Y-138960745D01*
X198095034Y-138980957D01*
X198100250Y-139001781D01*
X198103400Y-139023016D01*
X198104453Y-139044457D01*
X198104453Y-139481957D01*
X198103400Y-139503398D01*
X198100250Y-139524633D01*
X198095034Y-139545457D01*
X198087802Y-139565669D01*
X198078623Y-139585075D01*
X198067587Y-139603488D01*
X198054799Y-139620731D01*
X198040383Y-139636637D01*
X198024477Y-139651053D01*
X198007234Y-139663841D01*
X197988821Y-139674877D01*
X197969415Y-139684056D01*
X197949203Y-139691288D01*
X197928379Y-139696504D01*
X197907144Y-139699654D01*
X197885703Y-139700707D01*
X197373203Y-139700707D01*
X197351762Y-139699654D01*
X197330527Y-139696504D01*
X197309703Y-139691288D01*
X197289491Y-139684056D01*
X197270085Y-139674877D01*
X197251672Y-139663841D01*
X197234429Y-139651053D01*
X197218523Y-139636637D01*
X197204107Y-139620731D01*
X197191319Y-139603488D01*
X197180283Y-139585075D01*
X197171104Y-139565669D01*
X197163872Y-139545457D01*
X197158656Y-139524633D01*
X197155506Y-139503398D01*
X197154453Y-139481957D01*
X197154453Y-139044457D01*
X197155506Y-139023016D01*
X197158656Y-139001781D01*
X197163872Y-138980957D01*
X197171104Y-138960745D01*
X197180283Y-138941339D01*
X197191319Y-138922926D01*
X197204107Y-138905683D01*
X197218523Y-138889777D01*
X197234429Y-138875361D01*
X197251672Y-138862573D01*
X197270085Y-138851537D01*
X197289491Y-138842358D01*
X197309703Y-138835126D01*
X197330527Y-138829910D01*
X197351762Y-138826760D01*
X197373203Y-138825707D01*
X197885703Y-138825707D01*
X197907144Y-138826760D01*
X197907144Y-138826760D01*
G37*
D13*
X197629453Y-139263207D03*
D12*
G36*
X197907144Y-140401760D02*
X197928379Y-140404910D01*
X197949203Y-140410126D01*
X197969415Y-140417358D01*
X197988821Y-140426537D01*
X198007234Y-140437573D01*
X198024477Y-140450361D01*
X198040383Y-140464777D01*
X198054799Y-140480683D01*
X198067587Y-140497926D01*
X198078623Y-140516339D01*
X198087802Y-140535745D01*
X198095034Y-140555957D01*
X198100250Y-140576781D01*
X198103400Y-140598016D01*
X198104453Y-140619457D01*
X198104453Y-141056957D01*
X198103400Y-141078398D01*
X198100250Y-141099633D01*
X198095034Y-141120457D01*
X198087802Y-141140669D01*
X198078623Y-141160075D01*
X198067587Y-141178488D01*
X198054799Y-141195731D01*
X198040383Y-141211637D01*
X198024477Y-141226053D01*
X198007234Y-141238841D01*
X197988821Y-141249877D01*
X197969415Y-141259056D01*
X197949203Y-141266288D01*
X197928379Y-141271504D01*
X197907144Y-141274654D01*
X197885703Y-141275707D01*
X197373203Y-141275707D01*
X197351762Y-141274654D01*
X197330527Y-141271504D01*
X197309703Y-141266288D01*
X197289491Y-141259056D01*
X197270085Y-141249877D01*
X197251672Y-141238841D01*
X197234429Y-141226053D01*
X197218523Y-141211637D01*
X197204107Y-141195731D01*
X197191319Y-141178488D01*
X197180283Y-141160075D01*
X197171104Y-141140669D01*
X197163872Y-141120457D01*
X197158656Y-141099633D01*
X197155506Y-141078398D01*
X197154453Y-141056957D01*
X197154453Y-140619457D01*
X197155506Y-140598016D01*
X197158656Y-140576781D01*
X197163872Y-140555957D01*
X197171104Y-140535745D01*
X197180283Y-140516339D01*
X197191319Y-140497926D01*
X197204107Y-140480683D01*
X197218523Y-140464777D01*
X197234429Y-140450361D01*
X197251672Y-140437573D01*
X197270085Y-140426537D01*
X197289491Y-140417358D01*
X197309703Y-140410126D01*
X197330527Y-140404910D01*
X197351762Y-140401760D01*
X197373203Y-140400707D01*
X197885703Y-140400707D01*
X197907144Y-140401760D01*
X197907144Y-140401760D01*
G37*
D13*
X197629453Y-140838207D03*
G04 #@! TD*
D12*
G04 #@! TO.C,R10*
G36*
X192047644Y-183718760D02*
X192068879Y-183721910D01*
X192089703Y-183727126D01*
X192109915Y-183734358D01*
X192129321Y-183743537D01*
X192147734Y-183754573D01*
X192164977Y-183767361D01*
X192180883Y-183781777D01*
X192195299Y-183797683D01*
X192208087Y-183814926D01*
X192219123Y-183833339D01*
X192228302Y-183852745D01*
X192235534Y-183872957D01*
X192240750Y-183893781D01*
X192243900Y-183915016D01*
X192244953Y-183936457D01*
X192244953Y-184448957D01*
X192243900Y-184470398D01*
X192240750Y-184491633D01*
X192235534Y-184512457D01*
X192228302Y-184532669D01*
X192219123Y-184552075D01*
X192208087Y-184570488D01*
X192195299Y-184587731D01*
X192180883Y-184603637D01*
X192164977Y-184618053D01*
X192147734Y-184630841D01*
X192129321Y-184641877D01*
X192109915Y-184651056D01*
X192089703Y-184658288D01*
X192068879Y-184663504D01*
X192047644Y-184666654D01*
X192026203Y-184667707D01*
X191588703Y-184667707D01*
X191567262Y-184666654D01*
X191546027Y-184663504D01*
X191525203Y-184658288D01*
X191504991Y-184651056D01*
X191485585Y-184641877D01*
X191467172Y-184630841D01*
X191449929Y-184618053D01*
X191434023Y-184603637D01*
X191419607Y-184587731D01*
X191406819Y-184570488D01*
X191395783Y-184552075D01*
X191386604Y-184532669D01*
X191379372Y-184512457D01*
X191374156Y-184491633D01*
X191371006Y-184470398D01*
X191369953Y-184448957D01*
X191369953Y-183936457D01*
X191371006Y-183915016D01*
X191374156Y-183893781D01*
X191379372Y-183872957D01*
X191386604Y-183852745D01*
X191395783Y-183833339D01*
X191406819Y-183814926D01*
X191419607Y-183797683D01*
X191434023Y-183781777D01*
X191449929Y-183767361D01*
X191467172Y-183754573D01*
X191485585Y-183743537D01*
X191504991Y-183734358D01*
X191525203Y-183727126D01*
X191546027Y-183721910D01*
X191567262Y-183718760D01*
X191588703Y-183717707D01*
X192026203Y-183717707D01*
X192047644Y-183718760D01*
X192047644Y-183718760D01*
G37*
D13*
X191807453Y-184192707D03*
D12*
G36*
X193622644Y-183718760D02*
X193643879Y-183721910D01*
X193664703Y-183727126D01*
X193684915Y-183734358D01*
X193704321Y-183743537D01*
X193722734Y-183754573D01*
X193739977Y-183767361D01*
X193755883Y-183781777D01*
X193770299Y-183797683D01*
X193783087Y-183814926D01*
X193794123Y-183833339D01*
X193803302Y-183852745D01*
X193810534Y-183872957D01*
X193815750Y-183893781D01*
X193818900Y-183915016D01*
X193819953Y-183936457D01*
X193819953Y-184448957D01*
X193818900Y-184470398D01*
X193815750Y-184491633D01*
X193810534Y-184512457D01*
X193803302Y-184532669D01*
X193794123Y-184552075D01*
X193783087Y-184570488D01*
X193770299Y-184587731D01*
X193755883Y-184603637D01*
X193739977Y-184618053D01*
X193722734Y-184630841D01*
X193704321Y-184641877D01*
X193684915Y-184651056D01*
X193664703Y-184658288D01*
X193643879Y-184663504D01*
X193622644Y-184666654D01*
X193601203Y-184667707D01*
X193163703Y-184667707D01*
X193142262Y-184666654D01*
X193121027Y-184663504D01*
X193100203Y-184658288D01*
X193079991Y-184651056D01*
X193060585Y-184641877D01*
X193042172Y-184630841D01*
X193024929Y-184618053D01*
X193009023Y-184603637D01*
X192994607Y-184587731D01*
X192981819Y-184570488D01*
X192970783Y-184552075D01*
X192961604Y-184532669D01*
X192954372Y-184512457D01*
X192949156Y-184491633D01*
X192946006Y-184470398D01*
X192944953Y-184448957D01*
X192944953Y-183936457D01*
X192946006Y-183915016D01*
X192949156Y-183893781D01*
X192954372Y-183872957D01*
X192961604Y-183852745D01*
X192970783Y-183833339D01*
X192981819Y-183814926D01*
X192994607Y-183797683D01*
X193009023Y-183781777D01*
X193024929Y-183767361D01*
X193042172Y-183754573D01*
X193060585Y-183743537D01*
X193079991Y-183734358D01*
X193100203Y-183727126D01*
X193121027Y-183721910D01*
X193142262Y-183718760D01*
X193163703Y-183717707D01*
X193601203Y-183717707D01*
X193622644Y-183718760D01*
X193622644Y-183718760D01*
G37*
D13*
X193382453Y-184192707D03*
G04 #@! TD*
D12*
G04 #@! TO.C,R11*
G36*
X195048852Y-194990282D02*
X195070051Y-194993664D01*
X195090817Y-194999107D01*
X195110949Y-195006559D01*
X195130254Y-195015948D01*
X195148545Y-195027185D01*
X195165647Y-195040160D01*
X195181395Y-195054749D01*
X195195637Y-195070811D01*
X195208236Y-195088193D01*
X195219071Y-195106725D01*
X195228037Y-195126230D01*
X195235048Y-195146520D01*
X195240037Y-195167399D01*
X195242955Y-195188667D01*
X195287622Y-195699217D01*
X195288441Y-195720668D01*
X195287154Y-195742097D01*
X195283772Y-195763296D01*
X195278330Y-195784062D01*
X195270877Y-195804194D01*
X195261488Y-195823498D01*
X195250251Y-195841790D01*
X195237276Y-195858892D01*
X195222687Y-195874640D01*
X195206625Y-195888882D01*
X195189244Y-195901481D01*
X195170711Y-195912316D01*
X195151206Y-195921282D01*
X195130916Y-195928293D01*
X195110037Y-195933282D01*
X195088769Y-195936200D01*
X194652934Y-195974330D01*
X194631483Y-195975149D01*
X194610054Y-195973862D01*
X194588855Y-195970480D01*
X194568089Y-195965037D01*
X194547957Y-195957585D01*
X194528652Y-195948196D01*
X194510361Y-195936959D01*
X194493259Y-195923984D01*
X194477511Y-195909395D01*
X194463269Y-195893333D01*
X194450670Y-195875951D01*
X194439835Y-195857419D01*
X194430869Y-195837914D01*
X194423858Y-195817624D01*
X194418869Y-195796745D01*
X194415951Y-195775477D01*
X194371284Y-195264927D01*
X194370465Y-195243476D01*
X194371752Y-195222047D01*
X194375134Y-195200848D01*
X194380576Y-195180082D01*
X194388029Y-195159950D01*
X194397418Y-195140646D01*
X194408655Y-195122354D01*
X194421630Y-195105252D01*
X194436219Y-195089504D01*
X194452281Y-195075262D01*
X194469662Y-195062663D01*
X194488195Y-195051828D01*
X194507700Y-195042862D01*
X194527990Y-195035851D01*
X194548869Y-195030862D01*
X194570137Y-195027944D01*
X195005972Y-194989814D01*
X195027423Y-194988995D01*
X195048852Y-194990282D01*
X195048852Y-194990282D01*
G37*
D13*
X194829453Y-195482072D03*
D12*
G36*
X193479846Y-195127552D02*
X193501045Y-195130934D01*
X193521811Y-195136377D01*
X193541943Y-195143829D01*
X193561248Y-195153218D01*
X193579539Y-195164455D01*
X193596641Y-195177430D01*
X193612389Y-195192019D01*
X193626631Y-195208081D01*
X193639230Y-195225463D01*
X193650065Y-195243995D01*
X193659031Y-195263500D01*
X193666042Y-195283790D01*
X193671031Y-195304669D01*
X193673949Y-195325937D01*
X193718616Y-195836487D01*
X193719435Y-195857938D01*
X193718148Y-195879367D01*
X193714766Y-195900566D01*
X193709324Y-195921332D01*
X193701871Y-195941464D01*
X193692482Y-195960768D01*
X193681245Y-195979060D01*
X193668270Y-195996162D01*
X193653681Y-196011910D01*
X193637619Y-196026152D01*
X193620238Y-196038751D01*
X193601705Y-196049586D01*
X193582200Y-196058552D01*
X193561910Y-196065563D01*
X193541031Y-196070552D01*
X193519763Y-196073470D01*
X193083928Y-196111600D01*
X193062477Y-196112419D01*
X193041048Y-196111132D01*
X193019849Y-196107750D01*
X192999083Y-196102307D01*
X192978951Y-196094855D01*
X192959646Y-196085466D01*
X192941355Y-196074229D01*
X192924253Y-196061254D01*
X192908505Y-196046665D01*
X192894263Y-196030603D01*
X192881664Y-196013221D01*
X192870829Y-195994689D01*
X192861863Y-195975184D01*
X192854852Y-195954894D01*
X192849863Y-195934015D01*
X192846945Y-195912747D01*
X192802278Y-195402197D01*
X192801459Y-195380746D01*
X192802746Y-195359317D01*
X192806128Y-195338118D01*
X192811570Y-195317352D01*
X192819023Y-195297220D01*
X192828412Y-195277916D01*
X192839649Y-195259624D01*
X192852624Y-195242522D01*
X192867213Y-195226774D01*
X192883275Y-195212532D01*
X192900656Y-195199933D01*
X192919189Y-195189098D01*
X192938694Y-195180132D01*
X192958984Y-195173121D01*
X192979863Y-195168132D01*
X193001131Y-195165214D01*
X193436966Y-195127084D01*
X193458417Y-195126265D01*
X193479846Y-195127552D01*
X193479846Y-195127552D01*
G37*
D13*
X193260447Y-195619342D03*
G04 #@! TD*
D12*
G04 #@! TO.C,R12*
G36*
X190907144Y-171714260D02*
X190928379Y-171717410D01*
X190949203Y-171722626D01*
X190969415Y-171729858D01*
X190988821Y-171739037D01*
X191007234Y-171750073D01*
X191024477Y-171762861D01*
X191040383Y-171777277D01*
X191054799Y-171793183D01*
X191067587Y-171810426D01*
X191078623Y-171828839D01*
X191087802Y-171848245D01*
X191095034Y-171868457D01*
X191100250Y-171889281D01*
X191103400Y-171910516D01*
X191104453Y-171931957D01*
X191104453Y-172369457D01*
X191103400Y-172390898D01*
X191100250Y-172412133D01*
X191095034Y-172432957D01*
X191087802Y-172453169D01*
X191078623Y-172472575D01*
X191067587Y-172490988D01*
X191054799Y-172508231D01*
X191040383Y-172524137D01*
X191024477Y-172538553D01*
X191007234Y-172551341D01*
X190988821Y-172562377D01*
X190969415Y-172571556D01*
X190949203Y-172578788D01*
X190928379Y-172584004D01*
X190907144Y-172587154D01*
X190885703Y-172588207D01*
X190373203Y-172588207D01*
X190351762Y-172587154D01*
X190330527Y-172584004D01*
X190309703Y-172578788D01*
X190289491Y-172571556D01*
X190270085Y-172562377D01*
X190251672Y-172551341D01*
X190234429Y-172538553D01*
X190218523Y-172524137D01*
X190204107Y-172508231D01*
X190191319Y-172490988D01*
X190180283Y-172472575D01*
X190171104Y-172453169D01*
X190163872Y-172432957D01*
X190158656Y-172412133D01*
X190155506Y-172390898D01*
X190154453Y-172369457D01*
X190154453Y-171931957D01*
X190155506Y-171910516D01*
X190158656Y-171889281D01*
X190163872Y-171868457D01*
X190171104Y-171848245D01*
X190180283Y-171828839D01*
X190191319Y-171810426D01*
X190204107Y-171793183D01*
X190218523Y-171777277D01*
X190234429Y-171762861D01*
X190251672Y-171750073D01*
X190270085Y-171739037D01*
X190289491Y-171729858D01*
X190309703Y-171722626D01*
X190330527Y-171717410D01*
X190351762Y-171714260D01*
X190373203Y-171713207D01*
X190885703Y-171713207D01*
X190907144Y-171714260D01*
X190907144Y-171714260D01*
G37*
D13*
X190629453Y-172150707D03*
D12*
G36*
X190907144Y-173289260D02*
X190928379Y-173292410D01*
X190949203Y-173297626D01*
X190969415Y-173304858D01*
X190988821Y-173314037D01*
X191007234Y-173325073D01*
X191024477Y-173337861D01*
X191040383Y-173352277D01*
X191054799Y-173368183D01*
X191067587Y-173385426D01*
X191078623Y-173403839D01*
X191087802Y-173423245D01*
X191095034Y-173443457D01*
X191100250Y-173464281D01*
X191103400Y-173485516D01*
X191104453Y-173506957D01*
X191104453Y-173944457D01*
X191103400Y-173965898D01*
X191100250Y-173987133D01*
X191095034Y-174007957D01*
X191087802Y-174028169D01*
X191078623Y-174047575D01*
X191067587Y-174065988D01*
X191054799Y-174083231D01*
X191040383Y-174099137D01*
X191024477Y-174113553D01*
X191007234Y-174126341D01*
X190988821Y-174137377D01*
X190969415Y-174146556D01*
X190949203Y-174153788D01*
X190928379Y-174159004D01*
X190907144Y-174162154D01*
X190885703Y-174163207D01*
X190373203Y-174163207D01*
X190351762Y-174162154D01*
X190330527Y-174159004D01*
X190309703Y-174153788D01*
X190289491Y-174146556D01*
X190270085Y-174137377D01*
X190251672Y-174126341D01*
X190234429Y-174113553D01*
X190218523Y-174099137D01*
X190204107Y-174083231D01*
X190191319Y-174065988D01*
X190180283Y-174047575D01*
X190171104Y-174028169D01*
X190163872Y-174007957D01*
X190158656Y-173987133D01*
X190155506Y-173965898D01*
X190154453Y-173944457D01*
X190154453Y-173506957D01*
X190155506Y-173485516D01*
X190158656Y-173464281D01*
X190163872Y-173443457D01*
X190171104Y-173423245D01*
X190180283Y-173403839D01*
X190191319Y-173385426D01*
X190204107Y-173368183D01*
X190218523Y-173352277D01*
X190234429Y-173337861D01*
X190251672Y-173325073D01*
X190270085Y-173314037D01*
X190289491Y-173304858D01*
X190309703Y-173297626D01*
X190330527Y-173292410D01*
X190351762Y-173289260D01*
X190373203Y-173288207D01*
X190885703Y-173288207D01*
X190907144Y-173289260D01*
X190907144Y-173289260D01*
G37*
D13*
X190629453Y-173725707D03*
G04 #@! TD*
D12*
G04 #@! TO.C,R13*
G36*
X189207144Y-173301760D02*
X189228379Y-173304910D01*
X189249203Y-173310126D01*
X189269415Y-173317358D01*
X189288821Y-173326537D01*
X189307234Y-173337573D01*
X189324477Y-173350361D01*
X189340383Y-173364777D01*
X189354799Y-173380683D01*
X189367587Y-173397926D01*
X189378623Y-173416339D01*
X189387802Y-173435745D01*
X189395034Y-173455957D01*
X189400250Y-173476781D01*
X189403400Y-173498016D01*
X189404453Y-173519457D01*
X189404453Y-173956957D01*
X189403400Y-173978398D01*
X189400250Y-173999633D01*
X189395034Y-174020457D01*
X189387802Y-174040669D01*
X189378623Y-174060075D01*
X189367587Y-174078488D01*
X189354799Y-174095731D01*
X189340383Y-174111637D01*
X189324477Y-174126053D01*
X189307234Y-174138841D01*
X189288821Y-174149877D01*
X189269415Y-174159056D01*
X189249203Y-174166288D01*
X189228379Y-174171504D01*
X189207144Y-174174654D01*
X189185703Y-174175707D01*
X188673203Y-174175707D01*
X188651762Y-174174654D01*
X188630527Y-174171504D01*
X188609703Y-174166288D01*
X188589491Y-174159056D01*
X188570085Y-174149877D01*
X188551672Y-174138841D01*
X188534429Y-174126053D01*
X188518523Y-174111637D01*
X188504107Y-174095731D01*
X188491319Y-174078488D01*
X188480283Y-174060075D01*
X188471104Y-174040669D01*
X188463872Y-174020457D01*
X188458656Y-173999633D01*
X188455506Y-173978398D01*
X188454453Y-173956957D01*
X188454453Y-173519457D01*
X188455506Y-173498016D01*
X188458656Y-173476781D01*
X188463872Y-173455957D01*
X188471104Y-173435745D01*
X188480283Y-173416339D01*
X188491319Y-173397926D01*
X188504107Y-173380683D01*
X188518523Y-173364777D01*
X188534429Y-173350361D01*
X188551672Y-173337573D01*
X188570085Y-173326537D01*
X188589491Y-173317358D01*
X188609703Y-173310126D01*
X188630527Y-173304910D01*
X188651762Y-173301760D01*
X188673203Y-173300707D01*
X189185703Y-173300707D01*
X189207144Y-173301760D01*
X189207144Y-173301760D01*
G37*
D13*
X188929453Y-173738207D03*
D12*
G36*
X189207144Y-171726760D02*
X189228379Y-171729910D01*
X189249203Y-171735126D01*
X189269415Y-171742358D01*
X189288821Y-171751537D01*
X189307234Y-171762573D01*
X189324477Y-171775361D01*
X189340383Y-171789777D01*
X189354799Y-171805683D01*
X189367587Y-171822926D01*
X189378623Y-171841339D01*
X189387802Y-171860745D01*
X189395034Y-171880957D01*
X189400250Y-171901781D01*
X189403400Y-171923016D01*
X189404453Y-171944457D01*
X189404453Y-172381957D01*
X189403400Y-172403398D01*
X189400250Y-172424633D01*
X189395034Y-172445457D01*
X189387802Y-172465669D01*
X189378623Y-172485075D01*
X189367587Y-172503488D01*
X189354799Y-172520731D01*
X189340383Y-172536637D01*
X189324477Y-172551053D01*
X189307234Y-172563841D01*
X189288821Y-172574877D01*
X189269415Y-172584056D01*
X189249203Y-172591288D01*
X189228379Y-172596504D01*
X189207144Y-172599654D01*
X189185703Y-172600707D01*
X188673203Y-172600707D01*
X188651762Y-172599654D01*
X188630527Y-172596504D01*
X188609703Y-172591288D01*
X188589491Y-172584056D01*
X188570085Y-172574877D01*
X188551672Y-172563841D01*
X188534429Y-172551053D01*
X188518523Y-172536637D01*
X188504107Y-172520731D01*
X188491319Y-172503488D01*
X188480283Y-172485075D01*
X188471104Y-172465669D01*
X188463872Y-172445457D01*
X188458656Y-172424633D01*
X188455506Y-172403398D01*
X188454453Y-172381957D01*
X188454453Y-171944457D01*
X188455506Y-171923016D01*
X188458656Y-171901781D01*
X188463872Y-171880957D01*
X188471104Y-171860745D01*
X188480283Y-171841339D01*
X188491319Y-171822926D01*
X188504107Y-171805683D01*
X188518523Y-171789777D01*
X188534429Y-171775361D01*
X188551672Y-171762573D01*
X188570085Y-171751537D01*
X188589491Y-171742358D01*
X188609703Y-171735126D01*
X188630527Y-171729910D01*
X188651762Y-171726760D01*
X188673203Y-171725707D01*
X189185703Y-171725707D01*
X189207144Y-171726760D01*
X189207144Y-171726760D01*
G37*
D13*
X188929453Y-172163207D03*
G04 #@! TD*
D12*
G04 #@! TO.C,R14*
G36*
X194007144Y-169439260D02*
X194028379Y-169442410D01*
X194049203Y-169447626D01*
X194069415Y-169454858D01*
X194088821Y-169464037D01*
X194107234Y-169475073D01*
X194124477Y-169487861D01*
X194140383Y-169502277D01*
X194154799Y-169518183D01*
X194167587Y-169535426D01*
X194178623Y-169553839D01*
X194187802Y-169573245D01*
X194195034Y-169593457D01*
X194200250Y-169614281D01*
X194203400Y-169635516D01*
X194204453Y-169656957D01*
X194204453Y-170094457D01*
X194203400Y-170115898D01*
X194200250Y-170137133D01*
X194195034Y-170157957D01*
X194187802Y-170178169D01*
X194178623Y-170197575D01*
X194167587Y-170215988D01*
X194154799Y-170233231D01*
X194140383Y-170249137D01*
X194124477Y-170263553D01*
X194107234Y-170276341D01*
X194088821Y-170287377D01*
X194069415Y-170296556D01*
X194049203Y-170303788D01*
X194028379Y-170309004D01*
X194007144Y-170312154D01*
X193985703Y-170313207D01*
X193473203Y-170313207D01*
X193451762Y-170312154D01*
X193430527Y-170309004D01*
X193409703Y-170303788D01*
X193389491Y-170296556D01*
X193370085Y-170287377D01*
X193351672Y-170276341D01*
X193334429Y-170263553D01*
X193318523Y-170249137D01*
X193304107Y-170233231D01*
X193291319Y-170215988D01*
X193280283Y-170197575D01*
X193271104Y-170178169D01*
X193263872Y-170157957D01*
X193258656Y-170137133D01*
X193255506Y-170115898D01*
X193254453Y-170094457D01*
X193254453Y-169656957D01*
X193255506Y-169635516D01*
X193258656Y-169614281D01*
X193263872Y-169593457D01*
X193271104Y-169573245D01*
X193280283Y-169553839D01*
X193291319Y-169535426D01*
X193304107Y-169518183D01*
X193318523Y-169502277D01*
X193334429Y-169487861D01*
X193351672Y-169475073D01*
X193370085Y-169464037D01*
X193389491Y-169454858D01*
X193409703Y-169447626D01*
X193430527Y-169442410D01*
X193451762Y-169439260D01*
X193473203Y-169438207D01*
X193985703Y-169438207D01*
X194007144Y-169439260D01*
X194007144Y-169439260D01*
G37*
D13*
X193729453Y-169875707D03*
D12*
G36*
X194007144Y-171014260D02*
X194028379Y-171017410D01*
X194049203Y-171022626D01*
X194069415Y-171029858D01*
X194088821Y-171039037D01*
X194107234Y-171050073D01*
X194124477Y-171062861D01*
X194140383Y-171077277D01*
X194154799Y-171093183D01*
X194167587Y-171110426D01*
X194178623Y-171128839D01*
X194187802Y-171148245D01*
X194195034Y-171168457D01*
X194200250Y-171189281D01*
X194203400Y-171210516D01*
X194204453Y-171231957D01*
X194204453Y-171669457D01*
X194203400Y-171690898D01*
X194200250Y-171712133D01*
X194195034Y-171732957D01*
X194187802Y-171753169D01*
X194178623Y-171772575D01*
X194167587Y-171790988D01*
X194154799Y-171808231D01*
X194140383Y-171824137D01*
X194124477Y-171838553D01*
X194107234Y-171851341D01*
X194088821Y-171862377D01*
X194069415Y-171871556D01*
X194049203Y-171878788D01*
X194028379Y-171884004D01*
X194007144Y-171887154D01*
X193985703Y-171888207D01*
X193473203Y-171888207D01*
X193451762Y-171887154D01*
X193430527Y-171884004D01*
X193409703Y-171878788D01*
X193389491Y-171871556D01*
X193370085Y-171862377D01*
X193351672Y-171851341D01*
X193334429Y-171838553D01*
X193318523Y-171824137D01*
X193304107Y-171808231D01*
X193291319Y-171790988D01*
X193280283Y-171772575D01*
X193271104Y-171753169D01*
X193263872Y-171732957D01*
X193258656Y-171712133D01*
X193255506Y-171690898D01*
X193254453Y-171669457D01*
X193254453Y-171231957D01*
X193255506Y-171210516D01*
X193258656Y-171189281D01*
X193263872Y-171168457D01*
X193271104Y-171148245D01*
X193280283Y-171128839D01*
X193291319Y-171110426D01*
X193304107Y-171093183D01*
X193318523Y-171077277D01*
X193334429Y-171062861D01*
X193351672Y-171050073D01*
X193370085Y-171039037D01*
X193389491Y-171029858D01*
X193409703Y-171022626D01*
X193430527Y-171017410D01*
X193451762Y-171014260D01*
X193473203Y-171013207D01*
X193985703Y-171013207D01*
X194007144Y-171014260D01*
X194007144Y-171014260D01*
G37*
D13*
X193729453Y-171450707D03*
G04 #@! TD*
D19*
G04 #@! TO.C,U1*
X189546711Y-191109193D03*
D12*
G36*
X189190231Y-190517038D02*
X189839341Y-190483020D01*
X189903191Y-191701348D01*
X189254081Y-191735366D01*
X189190231Y-190517038D01*
X189190231Y-190517038D01*
G37*
D19*
X187649315Y-191208631D03*
D12*
G36*
X187292835Y-190616476D02*
X187941945Y-190582458D01*
X188005795Y-191800786D01*
X187356685Y-191834804D01*
X187292835Y-190616476D01*
X187292835Y-190616476D01*
G37*
D19*
X187512195Y-188592221D03*
D12*
G36*
X187155715Y-188000066D02*
X187804825Y-187966048D01*
X187868675Y-189184376D01*
X187219565Y-189218394D01*
X187155715Y-188000066D01*
X187155715Y-188000066D01*
G37*
D19*
X188460893Y-188542502D03*
D12*
G36*
X188104413Y-187950347D02*
X188753523Y-187916329D01*
X188817373Y-189134657D01*
X188168263Y-189168675D01*
X188104413Y-187950347D01*
X188104413Y-187950347D01*
G37*
D19*
X189409591Y-188492783D03*
D12*
G36*
X189053111Y-187900628D02*
X189702221Y-187866610D01*
X189766071Y-189084938D01*
X189116961Y-189118956D01*
X189053111Y-187900628D01*
X189053111Y-187900628D01*
G37*
G04 #@! TD*
D19*
G04 #@! TO.C,U3*
X187162195Y-182892221D03*
D12*
G36*
X187518675Y-183484376D02*
X186869565Y-183518394D01*
X186805715Y-182300066D01*
X187454825Y-182266048D01*
X187518675Y-183484376D01*
X187518675Y-183484376D01*
G37*
D19*
X189059591Y-182792783D03*
D12*
G36*
X189416071Y-183384938D02*
X188766961Y-183418956D01*
X188703111Y-182200628D01*
X189352221Y-182166610D01*
X189416071Y-183384938D01*
X189416071Y-183384938D01*
G37*
D19*
X189196711Y-185409193D03*
D12*
G36*
X189553191Y-186001348D02*
X188904081Y-186035366D01*
X188840231Y-184817038D01*
X189489341Y-184783020D01*
X189553191Y-186001348D01*
X189553191Y-186001348D01*
G37*
D19*
X188248013Y-185458912D03*
D12*
G36*
X188604493Y-186051067D02*
X187955383Y-186085085D01*
X187891533Y-184866757D01*
X188540643Y-184832739D01*
X188604493Y-186051067D01*
X188604493Y-186051067D01*
G37*
D19*
X187299315Y-185508631D03*
D12*
G36*
X187655795Y-186100786D02*
X187006685Y-186134804D01*
X186942835Y-184916476D01*
X187591945Y-184882458D01*
X187655795Y-186100786D01*
X187655795Y-186100786D01*
G37*
G04 #@! TD*
D20*
G04 #@! TO.C,U4*
X196866638Y-156980571D03*
D12*
G36*
X196939103Y-156445058D02*
X197294173Y-156650058D01*
X196794173Y-157516084D01*
X196439103Y-157311084D01*
X196939103Y-156445058D01*
X196939103Y-156445058D01*
G37*
D20*
X196199798Y-156595571D03*
D12*
G36*
X196272263Y-156060058D02*
X196627333Y-156265058D01*
X196127333Y-157131084D01*
X195772263Y-156926084D01*
X196272263Y-156060058D01*
X196272263Y-156060058D01*
G37*
D20*
X195541619Y-156215571D03*
D12*
G36*
X195614084Y-155680058D02*
X195969154Y-155885058D01*
X195469154Y-156751084D01*
X195114084Y-156546084D01*
X195614084Y-155680058D01*
X195614084Y-155680058D01*
G37*
D20*
X194883440Y-155835571D03*
D12*
G36*
X194955905Y-155300058D02*
X195310975Y-155505058D01*
X194810975Y-156371084D01*
X194455905Y-156166084D01*
X194955905Y-155300058D01*
X194955905Y-155300058D01*
G37*
D20*
X194225260Y-155455571D03*
D12*
G36*
X194297725Y-154920058D02*
X194652795Y-155125058D01*
X194152795Y-155991084D01*
X193797725Y-155786084D01*
X194297725Y-154920058D01*
X194297725Y-154920058D01*
G37*
D20*
X190126832Y-152454257D03*
D12*
G36*
X189591319Y-152381792D02*
X189796319Y-152026722D01*
X190662345Y-152526722D01*
X190457345Y-152881792D01*
X189591319Y-152381792D01*
X189591319Y-152381792D01*
G37*
D20*
X190506832Y-151796078D03*
D12*
G36*
X189971319Y-151723613D02*
X190176319Y-151368543D01*
X191042345Y-151868543D01*
X190837345Y-152223613D01*
X189971319Y-151723613D01*
X189971319Y-151723613D01*
G37*
D20*
X190891832Y-151129238D03*
D12*
G36*
X190356319Y-151056773D02*
X190561319Y-150701703D01*
X191427345Y-151201703D01*
X191222345Y-151556773D01*
X190356319Y-151056773D01*
X190356319Y-151056773D01*
G37*
D20*
X191271832Y-150471059D03*
D12*
G36*
X190736319Y-150398594D02*
X190941319Y-150043524D01*
X191807345Y-150543524D01*
X191602345Y-150898594D01*
X190736319Y-150398594D01*
X190736319Y-150398594D01*
G37*
D20*
X191651832Y-149812880D03*
D12*
G36*
X191116319Y-149740415D02*
X191321319Y-149385345D01*
X192187345Y-149885345D01*
X191982345Y-150240415D01*
X191116319Y-149740415D01*
X191116319Y-149740415D01*
G37*
D20*
X192031832Y-149154700D03*
D12*
G36*
X191496319Y-149082235D02*
X191701319Y-148727165D01*
X192567345Y-149227165D01*
X192362345Y-149582235D01*
X191496319Y-149082235D01*
X191496319Y-149082235D01*
G37*
D20*
X192411832Y-148496521D03*
D12*
G36*
X191876319Y-148424056D02*
X192081319Y-148068986D01*
X192947345Y-148568986D01*
X192742345Y-148924056D01*
X191876319Y-148424056D01*
X191876319Y-148424056D01*
G37*
D20*
X192796832Y-147829682D03*
D12*
G36*
X192261319Y-147757217D02*
X192466319Y-147402147D01*
X193332345Y-147902147D01*
X193127345Y-148257217D01*
X192261319Y-147757217D01*
X192261319Y-147757217D01*
G37*
D20*
X193176832Y-147171502D03*
D12*
G36*
X192641319Y-147099037D02*
X192846319Y-146743967D01*
X193712345Y-147243967D01*
X193507345Y-147599037D01*
X192641319Y-147099037D01*
X192641319Y-147099037D01*
G37*
D20*
X193556832Y-146513323D03*
D12*
G36*
X193021319Y-146440858D02*
X193226319Y-146085788D01*
X194092345Y-146585788D01*
X193887345Y-146940858D01*
X193021319Y-146440858D01*
X193021319Y-146440858D01*
G37*
D20*
X193936832Y-145855144D03*
D12*
G36*
X193401319Y-145782679D02*
X193606319Y-145427609D01*
X194472345Y-145927609D01*
X194267345Y-146282679D01*
X193401319Y-145782679D01*
X193401319Y-145782679D01*
G37*
D20*
X194316832Y-145196964D03*
D12*
G36*
X193781319Y-145124499D02*
X193986319Y-144769429D01*
X194852345Y-145269429D01*
X194647345Y-145624499D01*
X193781319Y-145124499D01*
X193781319Y-145124499D01*
G37*
D20*
X195670703Y-145331990D03*
D12*
G36*
X195743168Y-144796477D02*
X196098238Y-145001477D01*
X195598238Y-145867503D01*
X195243168Y-145662503D01*
X195743168Y-144796477D01*
X195743168Y-144796477D01*
G37*
D20*
X196328883Y-145711990D03*
D12*
G36*
X196401348Y-145176477D02*
X196756418Y-145381477D01*
X196256418Y-146247503D01*
X195901348Y-146042503D01*
X196401348Y-145176477D01*
X196401348Y-145176477D01*
G37*
D20*
X196987062Y-146091990D03*
D12*
G36*
X197059527Y-145556477D02*
X197414597Y-145761477D01*
X196914597Y-146627503D01*
X196559527Y-146422503D01*
X197059527Y-145556477D01*
X197059527Y-145556477D01*
G37*
D20*
X197645241Y-146471990D03*
D12*
G36*
X197717706Y-145936477D02*
X198072776Y-146141477D01*
X197572776Y-147007503D01*
X197217706Y-146802503D01*
X197717706Y-145936477D01*
X197717706Y-145936477D01*
G37*
D20*
X193567081Y-155075571D03*
D12*
G36*
X193639546Y-154540058D02*
X193994616Y-154745058D01*
X193494616Y-155611084D01*
X193139546Y-155406084D01*
X193639546Y-154540058D01*
X193639546Y-154540058D01*
G37*
G04 #@! TD*
D21*
G04 #@! TO.C,U5*
X192979453Y-188000707D03*
D12*
G36*
X193940041Y-188835734D02*
X192144426Y-188961295D01*
X192018865Y-187165680D01*
X193814480Y-187040119D01*
X193940041Y-188835734D01*
X193940041Y-188835734D01*
G37*
D22*
X192287741Y-186695780D03*
D12*
G36*
X192679267Y-186919012D02*
X191931094Y-186971330D01*
X191896215Y-186472548D01*
X192644388Y-186420230D01*
X192679267Y-186919012D01*
X192679267Y-186919012D01*
G37*
D23*
X193060853Y-186641718D03*
D12*
G36*
X192878779Y-186905060D02*
X192843901Y-186406278D01*
X193242927Y-186378376D01*
X193277805Y-186877158D01*
X192878779Y-186905060D01*
X192878779Y-186905060D01*
G37*
D23*
X193659391Y-186599865D03*
D12*
G36*
X193477317Y-186863207D02*
X193442439Y-186364425D01*
X193841465Y-186336523D01*
X193876343Y-186835305D01*
X193477317Y-186863207D01*
X193477317Y-186863207D01*
G37*
D23*
X193847734Y-189293287D03*
D12*
G36*
X193665660Y-189556629D02*
X193630782Y-189057847D01*
X194029808Y-189029945D01*
X194064686Y-189528727D01*
X193665660Y-189556629D01*
X193665660Y-189556629D01*
G37*
D23*
X193249200Y-189335141D03*
D12*
G36*
X193067126Y-189598483D02*
X193032248Y-189099701D01*
X193431274Y-189071799D01*
X193466152Y-189570581D01*
X193067126Y-189598483D01*
X193067126Y-189598483D01*
G37*
D22*
X192476083Y-189389203D03*
D12*
G36*
X192867609Y-189612435D02*
X192119436Y-189664753D01*
X192084557Y-189165971D01*
X192832730Y-189113653D01*
X192867609Y-189612435D01*
X192867609Y-189612435D01*
G37*
G04 #@! TD*
D24*
G04 #@! TO.C,U6*
X194811687Y-197338602D03*
D12*
G36*
X194199023Y-197793731D02*
X194129298Y-196996775D01*
X195424351Y-196883473D01*
X195494076Y-197680429D01*
X194199023Y-197793731D01*
X194199023Y-197793731D01*
G37*
D24*
X194923246Y-198613731D03*
D12*
G36*
X194310582Y-199068860D02*
X194240857Y-198271904D01*
X195535910Y-198158602D01*
X195605635Y-198955558D01*
X194310582Y-199068860D01*
X194310582Y-199068860D01*
G37*
D24*
X188647219Y-199162812D03*
D12*
G36*
X188034555Y-199617941D02*
X187964830Y-198820985D01*
X189259883Y-198707683D01*
X189329608Y-199504639D01*
X188034555Y-199617941D01*
X188034555Y-199617941D01*
G37*
D24*
X188535660Y-197887683D03*
D12*
G36*
X187922996Y-198342812D02*
X187853271Y-197545856D01*
X189148324Y-197432554D01*
X189218049Y-198229510D01*
X187922996Y-198342812D01*
X187922996Y-198342812D01*
G37*
G04 #@! TD*
D24*
G04 #@! TO.C,U7*
X184071279Y-198053024D03*
D12*
G36*
X184515646Y-198673538D02*
X183717595Y-198729343D01*
X183626912Y-197432510D01*
X184424963Y-197376705D01*
X184515646Y-198673538D01*
X184515646Y-198673538D01*
G37*
D24*
X185348161Y-197963736D03*
D12*
G36*
X185792528Y-198584250D02*
X184994477Y-198640055D01*
X184903794Y-197343222D01*
X185701845Y-197287417D01*
X185792528Y-198584250D01*
X185792528Y-198584250D01*
G37*
D24*
X185787627Y-204248390D03*
D12*
G36*
X186231994Y-204868904D02*
X185433943Y-204924709D01*
X185343260Y-203627876D01*
X186141311Y-203572071D01*
X186231994Y-204868904D01*
X186231994Y-204868904D01*
G37*
D24*
X184510745Y-204337678D03*
D12*
G36*
X184955112Y-204958192D02*
X184157061Y-205013997D01*
X184066378Y-203717164D01*
X184864429Y-203661359D01*
X184955112Y-204958192D01*
X184955112Y-204958192D01*
G37*
G04 #@! TD*
D24*
G04 #@! TO.C,U8*
X187495299Y-206284948D03*
D12*
G36*
X186890671Y-206750700D02*
X186807048Y-205955083D01*
X188099927Y-205819196D01*
X188183550Y-206614813D01*
X186890671Y-206750700D01*
X186890671Y-206750700D01*
G37*
D24*
X187629095Y-207557936D03*
D12*
G36*
X187024467Y-208023688D02*
X186940844Y-207228071D01*
X188233723Y-207092184D01*
X188317346Y-207887801D01*
X187024467Y-208023688D01*
X187024467Y-208023688D01*
G37*
D24*
X181363607Y-208216466D03*
D12*
G36*
X180758979Y-208682218D02*
X180675356Y-207886601D01*
X181968235Y-207750714D01*
X182051858Y-208546331D01*
X180758979Y-208682218D01*
X180758979Y-208682218D01*
G37*
D24*
X181229811Y-206943478D03*
D12*
G36*
X180625183Y-207409230D02*
X180541560Y-206613613D01*
X181834439Y-206477726D01*
X181918062Y-207273343D01*
X180625183Y-207409230D01*
X180625183Y-207409230D01*
G37*
G04 #@! TD*
D24*
G04 #@! TO.C,U9*
X189980929Y-210769825D03*
D12*
G36*
X190577336Y-210293591D02*
X190674832Y-211087628D01*
X189384522Y-211246059D01*
X189287026Y-210452022D01*
X190577336Y-210293591D01*
X190577336Y-210293591D01*
G37*
D24*
X189824936Y-209499366D03*
D12*
G36*
X190421343Y-209023132D02*
X190518839Y-209817169D01*
X189228529Y-209975600D01*
X189131033Y-209181563D01*
X190421343Y-209023132D01*
X190421343Y-209023132D01*
G37*
D24*
X196077977Y-208731589D03*
D12*
G36*
X196674384Y-208255355D02*
X196771880Y-209049392D01*
X195481570Y-209207823D01*
X195384074Y-208413786D01*
X196674384Y-208255355D01*
X196674384Y-208255355D01*
G37*
D24*
X196233970Y-210002048D03*
D12*
G36*
X196830377Y-209525814D02*
X196927873Y-210319851D01*
X195637563Y-210478282D01*
X195540067Y-209684245D01*
X196830377Y-209525814D01*
X196830377Y-209525814D01*
G37*
G04 #@! TD*
G04 #@! TO.C,C15*
G36*
X188286237Y-194222687D02*
X188307374Y-194226438D01*
X188328042Y-194232242D01*
X188348041Y-194240045D01*
X188367179Y-194249770D01*
X188385271Y-194261324D01*
X188402144Y-194274595D01*
X188417635Y-194289457D01*
X188431594Y-194305766D01*
X188443888Y-194323364D01*
X188454398Y-194342082D01*
X188463022Y-194361741D01*
X188469678Y-194382150D01*
X188474302Y-194403113D01*
X188476848Y-194424429D01*
X188512598Y-194935681D01*
X188513043Y-194957143D01*
X188511382Y-194978546D01*
X188507631Y-194999683D01*
X188501827Y-195020350D01*
X188494024Y-195040349D01*
X188484299Y-195059487D01*
X188472745Y-195077580D01*
X188459474Y-195094453D01*
X188444612Y-195109944D01*
X188428303Y-195123903D01*
X188410705Y-195136197D01*
X188391987Y-195146707D01*
X188372328Y-195155331D01*
X188351919Y-195161987D01*
X188330956Y-195166611D01*
X188309640Y-195169157D01*
X187873206Y-195199675D01*
X187851744Y-195200120D01*
X187830341Y-195198459D01*
X187809204Y-195194708D01*
X187788536Y-195188904D01*
X187768537Y-195181101D01*
X187749399Y-195171376D01*
X187731307Y-195159822D01*
X187714434Y-195146551D01*
X187698943Y-195131689D01*
X187684984Y-195115380D01*
X187672690Y-195097782D01*
X187662180Y-195079064D01*
X187653556Y-195059405D01*
X187646900Y-195038996D01*
X187642276Y-195018033D01*
X187639730Y-194996717D01*
X187603980Y-194485465D01*
X187603535Y-194464003D01*
X187605196Y-194442600D01*
X187608947Y-194421463D01*
X187614751Y-194400796D01*
X187622554Y-194380797D01*
X187632279Y-194361659D01*
X187643833Y-194343566D01*
X187657104Y-194326693D01*
X187671966Y-194311202D01*
X187688275Y-194297243D01*
X187705873Y-194284949D01*
X187724591Y-194274439D01*
X187744250Y-194265815D01*
X187764659Y-194259159D01*
X187785622Y-194254535D01*
X187806938Y-194251989D01*
X188243372Y-194221471D01*
X188264834Y-194221026D01*
X188286237Y-194222687D01*
X188286237Y-194222687D01*
G37*
D13*
X188058289Y-194710573D03*
D12*
G36*
X189857401Y-194112821D02*
X189878538Y-194116572D01*
X189899206Y-194122376D01*
X189919205Y-194130179D01*
X189938343Y-194139904D01*
X189956435Y-194151458D01*
X189973308Y-194164729D01*
X189988799Y-194179591D01*
X190002758Y-194195900D01*
X190015052Y-194213498D01*
X190025562Y-194232216D01*
X190034186Y-194251875D01*
X190040842Y-194272284D01*
X190045466Y-194293247D01*
X190048012Y-194314563D01*
X190083762Y-194825815D01*
X190084207Y-194847277D01*
X190082546Y-194868680D01*
X190078795Y-194889817D01*
X190072991Y-194910484D01*
X190065188Y-194930483D01*
X190055463Y-194949621D01*
X190043909Y-194967714D01*
X190030638Y-194984587D01*
X190015776Y-195000078D01*
X189999467Y-195014037D01*
X189981869Y-195026331D01*
X189963151Y-195036841D01*
X189943492Y-195045465D01*
X189923083Y-195052121D01*
X189902120Y-195056745D01*
X189880804Y-195059291D01*
X189444370Y-195089809D01*
X189422908Y-195090254D01*
X189401505Y-195088593D01*
X189380368Y-195084842D01*
X189359700Y-195079038D01*
X189339701Y-195071235D01*
X189320563Y-195061510D01*
X189302471Y-195049956D01*
X189285598Y-195036685D01*
X189270107Y-195021823D01*
X189256148Y-195005514D01*
X189243854Y-194987916D01*
X189233344Y-194969198D01*
X189224720Y-194949539D01*
X189218064Y-194929130D01*
X189213440Y-194908167D01*
X189210894Y-194886851D01*
X189175144Y-194375599D01*
X189174699Y-194354137D01*
X189176360Y-194332734D01*
X189180111Y-194311597D01*
X189185915Y-194290930D01*
X189193718Y-194270931D01*
X189203443Y-194251793D01*
X189214997Y-194233700D01*
X189228268Y-194216827D01*
X189243130Y-194201336D01*
X189259439Y-194187377D01*
X189277037Y-194175083D01*
X189295755Y-194164573D01*
X189315414Y-194155949D01*
X189335823Y-194149293D01*
X189356786Y-194144669D01*
X189378102Y-194142123D01*
X189814536Y-194111605D01*
X189835998Y-194111160D01*
X189857401Y-194112821D01*
X189857401Y-194112821D01*
G37*
D13*
X189629453Y-194600707D03*
G04 #@! TD*
D12*
G04 #@! TO.C,C16*
G36*
X188166818Y-192652753D02*
X188187955Y-192656504D01*
X188208623Y-192662308D01*
X188228622Y-192670111D01*
X188247760Y-192679836D01*
X188265852Y-192691390D01*
X188282725Y-192704661D01*
X188298216Y-192719523D01*
X188312175Y-192735832D01*
X188324469Y-192753430D01*
X188334979Y-192772148D01*
X188343603Y-192791807D01*
X188350259Y-192812216D01*
X188354883Y-192833179D01*
X188357429Y-192854495D01*
X188393179Y-193365747D01*
X188393624Y-193387209D01*
X188391963Y-193408612D01*
X188388212Y-193429749D01*
X188382408Y-193450416D01*
X188374605Y-193470415D01*
X188364880Y-193489553D01*
X188353326Y-193507646D01*
X188340055Y-193524519D01*
X188325193Y-193540010D01*
X188308884Y-193553969D01*
X188291286Y-193566263D01*
X188272568Y-193576773D01*
X188252909Y-193585397D01*
X188232500Y-193592053D01*
X188211537Y-193596677D01*
X188190221Y-193599223D01*
X187753787Y-193629741D01*
X187732325Y-193630186D01*
X187710922Y-193628525D01*
X187689785Y-193624774D01*
X187669117Y-193618970D01*
X187649118Y-193611167D01*
X187629980Y-193601442D01*
X187611888Y-193589888D01*
X187595015Y-193576617D01*
X187579524Y-193561755D01*
X187565565Y-193545446D01*
X187553271Y-193527848D01*
X187542761Y-193509130D01*
X187534137Y-193489471D01*
X187527481Y-193469062D01*
X187522857Y-193448099D01*
X187520311Y-193426783D01*
X187484561Y-192915531D01*
X187484116Y-192894069D01*
X187485777Y-192872666D01*
X187489528Y-192851529D01*
X187495332Y-192830862D01*
X187503135Y-192810863D01*
X187512860Y-192791725D01*
X187524414Y-192773632D01*
X187537685Y-192756759D01*
X187552547Y-192741268D01*
X187568856Y-192727309D01*
X187586454Y-192715015D01*
X187605172Y-192704505D01*
X187624831Y-192695881D01*
X187645240Y-192689225D01*
X187666203Y-192684601D01*
X187687519Y-192682055D01*
X188123953Y-192651537D01*
X188145415Y-192651092D01*
X188166818Y-192652753D01*
X188166818Y-192652753D01*
G37*
D13*
X187938870Y-193140639D03*
D12*
G36*
X189737982Y-192542887D02*
X189759119Y-192546638D01*
X189779787Y-192552442D01*
X189799786Y-192560245D01*
X189818924Y-192569970D01*
X189837016Y-192581524D01*
X189853889Y-192594795D01*
X189869380Y-192609657D01*
X189883339Y-192625966D01*
X189895633Y-192643564D01*
X189906143Y-192662282D01*
X189914767Y-192681941D01*
X189921423Y-192702350D01*
X189926047Y-192723313D01*
X189928593Y-192744629D01*
X189964343Y-193255881D01*
X189964788Y-193277343D01*
X189963127Y-193298746D01*
X189959376Y-193319883D01*
X189953572Y-193340550D01*
X189945769Y-193360549D01*
X189936044Y-193379687D01*
X189924490Y-193397780D01*
X189911219Y-193414653D01*
X189896357Y-193430144D01*
X189880048Y-193444103D01*
X189862450Y-193456397D01*
X189843732Y-193466907D01*
X189824073Y-193475531D01*
X189803664Y-193482187D01*
X189782701Y-193486811D01*
X189761385Y-193489357D01*
X189324951Y-193519875D01*
X189303489Y-193520320D01*
X189282086Y-193518659D01*
X189260949Y-193514908D01*
X189240281Y-193509104D01*
X189220282Y-193501301D01*
X189201144Y-193491576D01*
X189183052Y-193480022D01*
X189166179Y-193466751D01*
X189150688Y-193451889D01*
X189136729Y-193435580D01*
X189124435Y-193417982D01*
X189113925Y-193399264D01*
X189105301Y-193379605D01*
X189098645Y-193359196D01*
X189094021Y-193338233D01*
X189091475Y-193316917D01*
X189055725Y-192805665D01*
X189055280Y-192784203D01*
X189056941Y-192762800D01*
X189060692Y-192741663D01*
X189066496Y-192720996D01*
X189074299Y-192700997D01*
X189084024Y-192681859D01*
X189095578Y-192663766D01*
X189108849Y-192646893D01*
X189123711Y-192631402D01*
X189140020Y-192617443D01*
X189157618Y-192605149D01*
X189176336Y-192594639D01*
X189195995Y-192586015D01*
X189216404Y-192579359D01*
X189237367Y-192574735D01*
X189258683Y-192572189D01*
X189695117Y-192541671D01*
X189716579Y-192541226D01*
X189737982Y-192542887D01*
X189737982Y-192542887D01*
G37*
D13*
X189510034Y-193030773D03*
G04 #@! TD*
M02*
