G04 #@! TF.GenerationSoftware,KiCad,Pcbnew,(5.0.0)*
G04 #@! TF.CreationDate,2020-01-29T13:43:46+01:00*
G04 #@! TF.ProjectId,Insole_PCB,496E736F6C655F5043422E6B69636164,rev?*
G04 #@! TF.SameCoordinates,Original*
G04 #@! TF.FileFunction,Profile,NP*
%FSLAX46Y46*%
G04 Gerber Fmt 4.6, Leading zero omitted, Abs format (unit mm)*
G04 Created by KiCad (PCBNEW (5.0.0)) date 01/29/20 13:43:46*
%MOMM*%
%LPD*%
G01*
G04 APERTURE LIST*
%ADD10C,0.100000*%
G04 APERTURE END LIST*
D10*
X124822224Y-132579395D02*
X124490904Y-130733200D01*
X125584346Y-136096733D02*
X125187716Y-134364257D01*
X123730009Y-124746098D02*
X123562328Y-122578257D01*
X123942188Y-126823821D02*
X123730009Y-124746098D01*
X124196650Y-128817244D02*
X123942188Y-126823821D01*
X124490904Y-130733200D02*
X124196650Y-128817244D01*
X126008966Y-137786087D02*
X125584346Y-136096733D01*
X125187716Y-134364257D02*
X124822224Y-132579395D01*
X137250170Y-191724565D02*
X137011024Y-189581776D01*
X138406022Y-201949793D02*
X138181482Y-199971595D01*
X138625759Y-203900899D02*
X138625422Y-203897599D01*
X141329619Y-252637310D02*
X140779202Y-250993700D01*
X140779202Y-250993700D02*
X140323785Y-249321270D01*
X140119818Y-220463121D02*
X139896690Y-216910735D01*
X139477209Y-242454159D02*
X139512819Y-240721201D01*
X137486766Y-193836303D02*
X137250170Y-191724565D01*
X143531288Y-257341920D02*
X142707923Y-255816640D01*
X137721047Y-195914982D02*
X137486766Y-193836303D01*
X138181422Y-199971293D02*
X137952812Y-197959912D01*
X138181482Y-199971595D02*
X138181422Y-199971293D01*
X138406196Y-201951493D02*
X138406022Y-201949793D01*
X139893790Y-216871725D02*
X139597626Y-213280698D01*
X139043322Y-207709664D02*
X138838869Y-205821885D01*
X140290999Y-227697615D02*
X140288599Y-225909334D01*
X150163190Y-265288350D02*
X148874016Y-264129710D01*
X139703606Y-245911986D02*
X139540879Y-244186314D01*
X146505011Y-261600750D02*
X145432951Y-260238730D01*
X140323785Y-249321270D02*
X139964860Y-247625507D01*
X139595126Y-213252128D02*
X139240522Y-209594054D01*
X136004850Y-180776303D02*
X135450322Y-176362849D01*
X140117323Y-233247915D02*
X140205493Y-231413582D01*
X138625422Y-203897599D02*
X138406196Y-201951493D01*
X134491503Y-169808396D02*
X134138082Y-167721589D01*
X145432951Y-260238730D02*
X144440627Y-258817560D01*
X137011024Y-189581776D02*
X137010922Y-189580576D01*
X126458328Y-139441710D02*
X126008966Y-137786087D01*
X126929063Y-141072917D02*
X126458328Y-139441710D01*
X147653291Y-262899160D02*
X146505011Y-261600750D01*
X127416897Y-142686062D02*
X126929063Y-141072917D01*
X131028759Y-154244567D02*
X130524375Y-152535404D01*
X128435561Y-145912646D02*
X127416897Y-142686062D01*
X139540879Y-244186314D02*
X139477209Y-242454159D01*
X142707923Y-255816640D02*
X141973231Y-254246710D01*
X129477352Y-149163014D02*
X128435561Y-145912646D01*
X135146824Y-174139096D02*
X134832048Y-171979987D01*
X139838676Y-237045411D02*
X139992369Y-235169493D01*
X137010922Y-189580576D02*
X136521719Y-185220205D01*
X132011777Y-157835347D02*
X131535206Y-156044016D01*
X137952812Y-197959912D02*
X137721047Y-195914982D01*
X139994869Y-235136013D02*
X140115423Y-233281625D01*
X140257296Y-224057019D02*
X140119453Y-220460707D01*
X130516175Y-152508387D02*
X129482852Y-149180379D01*
X140288316Y-225878514D02*
X140258496Y-224099549D01*
X141973231Y-254246710D02*
X141329619Y-252637310D01*
X131527706Y-156016357D02*
X131035759Y-154268739D01*
X132478389Y-159704706D02*
X132019577Y-157865449D01*
X148874016Y-264129710D02*
X147653291Y-262899160D01*
X144440627Y-258817560D02*
X143531288Y-257341920D01*
X139239022Y-209578824D02*
X139044097Y-207716764D01*
X132925171Y-161626002D02*
X132485989Y-159736096D01*
X136520822Y-185212205D02*
X136007050Y-180794603D01*
X133350396Y-163599498D02*
X132932271Y-161657682D01*
X140264297Y-229530612D02*
X140290807Y-227729735D01*
X139512819Y-240721201D02*
X139650437Y-238956424D01*
X135447522Y-176341799D02*
X135149424Y-174157206D01*
X139964860Y-247625507D02*
X139703606Y-245911986D01*
X134133282Y-167694699D02*
X133758712Y-165652705D01*
X138838322Y-205816785D02*
X138625759Y-203900899D01*
X139650437Y-238956424D02*
X139835676Y-237078381D01*
X133753112Y-165623495D02*
X133356796Y-163630378D01*
X140206793Y-231380012D02*
X140263563Y-229563652D01*
X134828848Y-171958797D02*
X134495503Y-169832576D01*
X159084889Y-270535380D02*
X157480687Y-269878890D01*
X164085592Y-271940240D02*
X162392760Y-271567740D01*
X170986061Y-272447560D02*
X169252871Y-272469260D01*
X167521279Y-272391760D02*
X165796968Y-272215210D01*
X181102385Y-270259420D02*
X179477873Y-270863890D01*
X191149513Y-263599860D02*
X189889779Y-264790450D01*
X198912575Y-250265110D02*
X198403522Y-251922000D01*
X199860476Y-245158039D02*
X199642248Y-246877571D01*
X199743089Y-238239933D02*
X199921113Y-239964098D01*
X199642248Y-246877571D02*
X199325936Y-248581789D01*
X174434510Y-272106940D02*
X172715163Y-272326640D01*
X151516583Y-266371290D02*
X150163190Y-265288350D01*
X169252871Y-272469260D02*
X167521279Y-272391760D01*
X176138458Y-271789170D02*
X174434510Y-272106940D01*
X194491982Y-259623860D02*
X193454392Y-261012320D01*
X189889779Y-264790450D02*
X188563950Y-265906960D01*
X198403522Y-251922000D02*
X197800448Y-253547030D01*
X199466651Y-236528796D02*
X199743089Y-238239933D01*
X154398067Y-268296090D02*
X152929751Y-267374960D01*
X162392760Y-271567740D02*
X160724036Y-271098950D01*
X179477873Y-270863890D02*
X177821420Y-271374360D01*
X199979903Y-243428829D02*
X199860476Y-245158039D01*
X182689628Y-269562940D02*
X181102385Y-270259420D01*
X197800448Y-253547030D02*
X197105330Y-255134860D01*
X185731614Y-267903380D02*
X184234391Y-268776740D01*
X187176381Y-266945740D02*
X185731614Y-267903380D01*
X188563950Y-265906960D02*
X187176381Y-266945740D01*
X192339017Y-262339110D02*
X191149513Y-263599860D01*
X199921113Y-239964098D02*
X200000143Y-241695623D01*
X195448379Y-258178270D02*
X194491982Y-259623860D01*
X197105330Y-255134860D02*
X196320449Y-256680310D01*
X196320449Y-256680310D02*
X195448379Y-258178270D01*
X200000143Y-241695623D02*
X199979903Y-243428829D01*
X152929751Y-267374960D02*
X151516583Y-266371290D01*
X172715163Y-272326640D02*
X170986061Y-272447560D01*
X199325936Y-248581789D02*
X198912575Y-250265110D01*
X157480687Y-269878890D02*
X155916705Y-269131650D01*
X165796968Y-272215210D02*
X164085592Y-271940240D01*
X155916705Y-269131650D02*
X154398067Y-268296090D01*
X177821420Y-271374360D02*
X176138458Y-271789170D01*
X184234391Y-268776740D02*
X182689628Y-269562940D01*
X160724036Y-271098950D02*
X159084889Y-270535380D01*
X193454392Y-261012320D02*
X192339017Y-262339110D01*
X193148194Y-25070957D02*
X194077814Y-25164257D01*
X170207515Y-27512247D02*
X171157091Y-27150267D01*
X166699929Y-29146437D02*
X167537207Y-28711847D01*
X149154159Y-44717057D02*
X151426263Y-42150497D01*
X154957899Y-38387777D02*
X156178724Y-37170637D01*
X181498676Y-24978257D02*
X182895659Y-24884757D01*
X173158547Y-26489487D02*
X174215129Y-26193067D01*
X167537207Y-28711847D02*
X168399621Y-28294017D01*
X201905058Y-27200147D02*
X202551643Y-27534227D01*
X157428333Y-35978087D02*
X158711898Y-34814397D01*
X138508883Y-57681062D02*
X140530564Y-55101345D01*
X191206650Y-24931857D02*
X192191148Y-24993857D01*
X201236143Y-26892767D02*
X201905058Y-27200147D01*
X200543796Y-26610947D02*
X201236143Y-26892767D01*
X190200627Y-24884057D02*
X191206650Y-24931857D01*
X168399621Y-28294017D02*
X169289062Y-27893827D01*
X199827070Y-26353637D02*
X200543796Y-26610947D01*
X161405895Y-32592117D02*
X162831310Y-31543457D01*
X174215129Y-26193067D02*
X175312250Y-25921017D01*
X156178724Y-37170637D02*
X157428333Y-35978087D01*
X194980039Y-25274817D02*
X195854951Y-25403637D01*
X151426263Y-42150497D02*
X153765950Y-39620907D01*
X177638483Y-25455697D02*
X178872976Y-25265487D01*
X146930431Y-47307977D02*
X149154159Y-44717057D01*
X182895659Y-24884757D02*
X184352685Y-24827257D01*
X172140001Y-26808967D02*
X173158547Y-26489487D01*
X180158756Y-25105757D02*
X181498676Y-24978257D01*
X153765950Y-39620907D02*
X154957899Y-38387777D01*
X175312250Y-25921017D02*
X176452485Y-25674727D01*
X142614491Y-52508929D02*
X144750035Y-49908741D01*
X199085181Y-26119927D02*
X199827070Y-26353637D01*
X184352685Y-24827257D02*
X185877720Y-24807557D01*
X164320901Y-30543507D02*
X165896802Y-29590967D01*
X198317469Y-25908927D02*
X199085181Y-26119927D01*
X178872976Y-25265487D02*
X180158756Y-25105757D01*
X197523439Y-25719797D02*
X198317469Y-25908927D01*
X169289062Y-27893827D02*
X170207515Y-27512247D01*
X144750035Y-49908741D02*
X146930431Y-47307977D01*
X140530564Y-55101345D02*
X142614491Y-52508929D01*
X176452485Y-25674727D02*
X177638483Y-25455697D01*
X136562669Y-60244319D02*
X138508883Y-57681062D01*
X196702696Y-25551657D02*
X197523439Y-25719797D01*
X195854951Y-25403637D02*
X196702696Y-25551657D01*
X171157091Y-27150267D02*
X172140001Y-26808967D01*
X162831310Y-31543457D02*
X164320901Y-30543507D01*
X194077814Y-25164257D02*
X194980039Y-25274817D01*
X185877720Y-24807557D02*
X188086850Y-24824957D01*
X192191148Y-24993857D02*
X193148194Y-25070957D01*
X188086850Y-24824957D02*
X190200627Y-24884057D01*
X165896802Y-29590967D02*
X166699929Y-29146437D01*
X160035432Y-33684117D02*
X161405895Y-32592117D01*
X158711898Y-34814397D02*
X160035432Y-33684117D01*
X132956119Y-65311094D02*
X133816749Y-64052606D01*
X132126073Y-66564662D02*
X132956119Y-65311094D01*
X129838302Y-70306630D02*
X130565406Y-69060818D01*
X125440828Y-80766479D02*
X125848828Y-79346045D01*
X131328558Y-67814132D02*
X132126073Y-66564662D01*
X130565406Y-69060818D02*
X131328558Y-67814132D01*
X127886861Y-74069414D02*
X128497924Y-72806986D01*
X127316192Y-75347056D02*
X127886861Y-74069414D01*
X126786278Y-76646683D02*
X127316192Y-75347056D01*
X123343902Y-111413483D02*
X123346402Y-109509945D01*
X123349012Y-116736679D02*
X123342812Y-115488412D01*
X123504832Y-97021090D02*
X123550382Y-95747705D01*
X126297209Y-77976478D02*
X126786278Y-76646683D01*
X123562328Y-122578257D02*
X123440722Y-120310088D01*
X123987702Y-89118000D02*
X124090511Y-88155950D01*
X123342812Y-115488412D02*
X123342949Y-113406511D01*
X125848828Y-79346045D02*
X126297209Y-77976478D01*
X125072773Y-82250326D02*
X125440828Y-80766479D01*
X123407592Y-101190347D02*
X123433892Y-99739146D01*
X124744143Y-83811562D02*
X125072773Y-82250326D01*
X124452985Y-85473013D02*
X124744143Y-83811562D01*
X123550382Y-95747705D02*
X123603202Y-94527246D01*
X123346402Y-109509945D02*
X123351302Y-107691631D01*
X124090511Y-88155950D02*
X124202434Y-87227978D01*
X123893822Y-90116561D02*
X123987702Y-89118000D01*
X123367472Y-117954814D02*
X123349012Y-116736679D01*
X123732042Y-92233283D02*
X123808682Y-91154123D01*
X123351302Y-107691631D02*
X123359202Y-105954425D01*
X123663642Y-93356734D02*
X123732042Y-92233283D01*
X123603202Y-94527246D02*
X123663642Y-93356734D01*
X123466142Y-98350502D02*
X123504832Y-97021090D01*
X123440722Y-120310088D02*
X123398152Y-119147774D01*
X123386752Y-102707557D02*
X123407592Y-101190347D01*
X123359202Y-105954425D02*
X123370812Y-104294345D01*
X123370812Y-104294345D02*
X123386752Y-102707557D01*
X123398152Y-119147774D02*
X123367472Y-117954814D01*
X129148728Y-71554195D02*
X129838302Y-70306630D01*
X123342949Y-113406511D02*
X123343902Y-111413483D01*
X134702887Y-62793162D02*
X136562669Y-60244319D01*
X133816749Y-64052606D02*
X134702887Y-62793162D01*
X128497924Y-72806986D02*
X129148728Y-71554195D01*
X124202434Y-87227978D02*
X124323619Y-86331735D01*
X123808682Y-91154123D02*
X123893822Y-90116561D01*
X124323619Y-86331735D02*
X124452985Y-85473013D01*
X123433892Y-99739146D02*
X123466142Y-98350502D01*
X198637252Y-232955686D02*
X199084426Y-234800309D01*
X194080354Y-171068891D02*
X193961571Y-173334851D01*
X195569701Y-214532288D02*
X195821069Y-216667989D01*
X198144453Y-149160707D02*
X197444453Y-151310707D01*
X195019453Y-162010707D02*
X194694453Y-164260707D01*
X195117344Y-210150492D02*
X195332668Y-212334289D01*
X200519453Y-143110707D02*
X199687280Y-145057439D01*
X197045575Y-225054781D02*
X197401946Y-227047906D01*
X195794453Y-157635707D02*
X195369453Y-159785707D01*
X195334568Y-212352389D02*
X195567501Y-214512918D01*
X194694453Y-164260707D02*
X194444453Y-166485707D01*
X198894453Y-147085707D02*
X198144453Y-149160707D01*
X196097123Y-218820386D02*
X196387959Y-220902425D01*
X206232042Y-131522789D02*
X204271657Y-135324125D01*
X193960171Y-173365691D02*
X193875891Y-175646204D01*
X196391459Y-220926085D02*
X196703308Y-222979453D01*
X195369453Y-159785707D02*
X195019453Y-162010707D01*
X199084426Y-234800309D02*
X199466651Y-236528796D01*
X198202471Y-231026891D02*
X198629952Y-232924146D01*
X204259917Y-135347285D02*
X202344453Y-139185707D01*
X194240301Y-168785090D02*
X194082554Y-171033621D01*
X195823569Y-216688689D02*
X196094223Y-218798236D01*
X194719453Y-205635707D02*
X195115044Y-210125402D01*
X202340121Y-139192555D02*
X201444453Y-141110707D01*
X193820469Y-177998495D02*
X193788459Y-182607269D01*
X196707308Y-223004583D02*
X197041075Y-225028261D01*
X196843331Y-153353554D02*
X196294453Y-155435707D01*
X197792496Y-229066788D02*
X198195871Y-230996491D01*
X193875068Y-175672894D02*
X193820968Y-177965215D01*
X196294453Y-155435707D02*
X195794453Y-157635707D01*
X199694453Y-145060707D02*
X198894453Y-147085707D01*
X197407146Y-227075886D02*
X197786696Y-229037558D01*
X201444453Y-141110707D02*
X200519453Y-143110707D01*
X193788564Y-182643899D02*
X193844453Y-187285707D01*
X194444453Y-166485707D02*
X194243501Y-168745110D01*
X197444957Y-151310965D02*
X196843331Y-153353554D01*
X215926692Y-79978199D02*
X215991972Y-82734961D01*
X216029142Y-101524225D02*
X215945292Y-102711885D01*
X215538668Y-69806346D02*
X215655087Y-72223590D01*
X212763383Y-45364217D02*
X213063335Y-46815807D01*
X213619125Y-49921230D02*
X213875059Y-51577448D01*
X207062705Y-31363227D02*
X207558615Y-32016897D01*
X216131932Y-94655830D02*
X216137632Y-97857923D01*
X216125462Y-99101430D02*
X216089272Y-100320829D01*
X204938915Y-29166567D02*
X205492087Y-29657547D01*
X215409004Y-67470794D02*
X215538668Y-69806346D01*
X214116453Y-53304271D02*
X214343401Y-55102894D01*
X208510671Y-33464987D02*
X208966856Y-34263437D01*
X211416606Y-40204137D02*
X211775247Y-41399637D01*
X205492087Y-29657547D02*
X206029944Y-30185817D01*
X215655087Y-72223590D02*
X215758442Y-74723804D01*
X214938795Y-60941725D02*
X215109233Y-63039738D01*
X213875059Y-51577448D02*
X214116453Y-53304271D01*
X214754441Y-58920398D02*
X214938795Y-60941725D01*
X214556021Y-56974536D02*
X214754441Y-58920398D01*
X213348572Y-48334417D02*
X213619125Y-49921230D01*
X215758442Y-74723804D02*
X215848912Y-77308245D01*
X213063335Y-46815807D02*
X213348572Y-48334417D01*
X206029944Y-30185817D02*
X206553286Y-30753617D01*
X202551643Y-27534227D02*
X203177063Y-27896317D01*
X216044932Y-85579809D02*
X216085782Y-88514038D01*
X215109233Y-63039738D02*
X215265917Y-65215677D01*
X208966856Y-34263437D02*
X209409672Y-35113977D01*
X208180831Y-127701513D02*
X206232042Y-131522789D01*
X209123301Y-125785406D02*
X208180831Y-127701513D01*
X210037185Y-123852151D02*
X209123301Y-125785406D01*
X210913014Y-121900070D02*
X210037185Y-123852151D01*
X210254483Y-36978037D02*
X210656065Y-37994657D01*
X215991972Y-82734961D02*
X216044932Y-85579809D01*
X211743044Y-119924448D02*
X210913014Y-121900070D01*
X208041244Y-32716797D02*
X208510671Y-33464987D01*
X216089272Y-100320829D02*
X216029142Y-101524225D01*
X215265917Y-65215677D02*
X215409004Y-67470794D01*
X211775247Y-41399637D02*
X212119302Y-42657337D01*
X211043496Y-39069567D02*
X211416606Y-40204137D01*
X209409672Y-35113977D02*
X209838952Y-36018317D01*
X214343401Y-55102894D02*
X214556021Y-56974536D01*
X212119302Y-42657337D02*
X212448699Y-43978467D01*
X203782574Y-28287907D02*
X204369453Y-28710707D01*
X214962647Y-109527455D02*
X214463631Y-111691639D01*
X215554428Y-106183666D02*
X215380555Y-107301593D01*
X212519871Y-117920536D02*
X211743044Y-119924448D01*
X210656065Y-37994657D02*
X211043496Y-39069567D01*
X213236504Y-115883577D02*
X212519871Y-117920536D01*
X206553286Y-30753617D02*
X207062705Y-31363227D01*
X213886429Y-113808834D02*
X213236504Y-115883577D01*
X215848912Y-77308245D02*
X215926692Y-79978199D01*
X216085782Y-88514038D02*
X216114712Y-91538946D01*
X209838952Y-36018317D02*
X210254483Y-36978037D01*
X214463631Y-111691639D02*
X213886429Y-113808834D01*
X215380555Y-107301593D02*
X214962647Y-109527455D01*
X215707580Y-105041235D02*
X215554428Y-106183666D01*
X203177063Y-27896317D02*
X203782574Y-28287907D01*
X207558615Y-32016897D02*
X208041244Y-32716797D01*
X215837995Y-103884103D02*
X215707580Y-105041235D01*
X216137632Y-97857923D02*
X216125462Y-99101430D01*
X212448699Y-43978467D02*
X212763383Y-45364217D01*
X215945292Y-102711885D02*
X215837995Y-103884103D01*
X216114712Y-91538946D02*
X216131932Y-94655830D01*
X204369453Y-28710707D02*
X204938915Y-29166567D01*
X188729453Y-201320707D02*
X188479453Y-194190707D01*
X188729454Y-201319361D02*
G75*
G03X189175647Y-201680707I401061J39080D01*
G01*
X193919453Y-201510707D02*
X189169453Y-201680707D01*
X188759637Y-193892814D02*
G75*
G03X188479453Y-194180707I26761J-306331D01*
G01*
X194269952Y-201806623D02*
G75*
G03X193919453Y-201510707I-320499J-24084D01*
G01*
X193623537Y-193720706D02*
G75*
G03X193919453Y-193370207I-24084J320499D01*
G01*
X194269453Y-201810707D02*
X194366773Y-204063976D01*
X194366773Y-204063976D02*
X194719453Y-205635707D01*
X193619453Y-193720707D02*
X188759453Y-193890707D01*
X193844453Y-187285707D02*
X193919453Y-193360707D01*
M02*
