G04 #@! TF.GenerationSoftware,KiCad,Pcbnew,(5.0.0)*
G04 #@! TF.CreationDate,2020-01-29T13:43:46+01:00*
G04 #@! TF.ProjectId,Insole_PCB,496E736F6C655F5043422E6B69636164,rev?*
G04 #@! TF.SameCoordinates,Original*
G04 #@! TF.FileFunction,Glue,Top*
G04 #@! TF.FilePolarity,Positive*
%FSLAX46Y46*%
G04 Gerber Fmt 4.6, Leading zero omitted, Abs format (unit mm)*
G04 Created by KiCad (PCBNEW (5.0.0)) date 01/29/20 13:43:46*
%MOMM*%
%LPD*%
G01*
G04 APERTURE LIST*
%ADD10C,0.100000*%
%ADD11C,0.200000*%
G04 APERTURE END LIST*
D10*
X195338085Y-212356307D02*
X195571018Y-214516836D01*
X196710825Y-223008501D02*
X197044592Y-225032179D01*
X195573218Y-214536206D02*
X195824586Y-216671907D01*
X198205988Y-231030809D02*
X198633469Y-232928064D01*
X194859453Y-207360707D02*
X195118561Y-210129320D01*
X198640769Y-232959604D02*
X199087943Y-234804227D01*
X199087943Y-234804227D02*
X199470168Y-236532714D01*
X197049092Y-225058699D02*
X197405463Y-227051824D01*
X196100640Y-218824304D02*
X196391476Y-220906343D01*
X195120861Y-210154410D02*
X195336185Y-212338207D01*
X196394976Y-220930003D02*
X196706825Y-222983371D01*
X195827086Y-216692607D02*
X196097740Y-218802154D01*
X197410663Y-227079804D02*
X197790213Y-229041476D01*
X197796013Y-229070706D02*
X198199388Y-231000409D01*
X211746561Y-119928366D02*
X210916531Y-121903988D01*
X214559538Y-56978454D02*
X214757958Y-58924316D01*
X213622642Y-49925148D02*
X213878576Y-51581366D01*
X209413189Y-35117895D02*
X209842469Y-36022235D01*
X212452216Y-43982385D02*
X212766900Y-45368135D01*
X215384072Y-107305511D02*
X214966164Y-109531373D01*
X215930209Y-79982117D02*
X215995489Y-82738879D01*
X216141149Y-97861841D02*
X216128979Y-99105348D01*
X212523388Y-117924454D02*
X211746561Y-119928366D01*
X210916531Y-121903988D02*
X210040702Y-123856069D01*
X215711097Y-105045153D02*
X215557945Y-106187584D01*
X210659582Y-37998575D02*
X211047013Y-39073485D01*
X215761959Y-74727722D02*
X215852429Y-77312163D01*
X213240021Y-115887495D02*
X212523388Y-117924454D01*
X216092789Y-100324747D02*
X216032659Y-101528143D01*
X209842469Y-36022235D02*
X210258000Y-36981955D01*
X215948809Y-102715803D02*
X215841512Y-103888021D01*
X215852429Y-77312163D02*
X215930209Y-79982117D01*
X214346918Y-55106812D02*
X214559538Y-56978454D01*
X216118229Y-91542864D02*
X216135449Y-94659748D01*
X215269434Y-65219595D02*
X215412521Y-67474712D01*
X213352089Y-48338335D02*
X213622642Y-49925148D01*
X213066852Y-46819725D02*
X213352089Y-48338335D01*
X210258000Y-36981955D02*
X210659582Y-37998575D01*
X211778764Y-41403555D02*
X212122819Y-42661255D01*
X215542185Y-69810264D02*
X215658604Y-72227508D01*
X216032659Y-101528143D02*
X215948809Y-102715803D01*
X214757958Y-58924316D02*
X214942312Y-60945643D01*
X214119970Y-53308189D02*
X214346918Y-55106812D01*
X215658604Y-72227508D02*
X215761959Y-74727722D01*
X214966164Y-109531373D02*
X214467148Y-111695557D01*
X214942312Y-60945643D02*
X215112750Y-63043656D01*
X215841512Y-103888021D02*
X215711097Y-105045153D01*
X216128979Y-99105348D02*
X216092789Y-100324747D01*
X216089299Y-88517956D02*
X216118229Y-91542864D01*
X212766900Y-45368135D02*
X213066852Y-46819725D01*
X210040702Y-123856069D02*
X209126818Y-125789324D01*
X211420123Y-40208055D02*
X211778764Y-41403555D01*
X216135449Y-94659748D02*
X216141149Y-97861841D01*
X213878576Y-51581366D02*
X214119970Y-53308189D01*
X212122819Y-42661255D02*
X212452216Y-43982385D01*
X209126818Y-125789324D02*
X207769453Y-128480707D01*
X214467148Y-111695557D02*
X213889946Y-113812752D01*
X215557945Y-106187584D02*
X215384072Y-107305511D01*
X216048449Y-85583727D02*
X216089299Y-88517956D01*
X215412521Y-67474712D02*
X215542185Y-69810264D01*
X211047013Y-39073485D02*
X211420123Y-40208055D01*
X213889946Y-113812752D02*
X213240021Y-115887495D01*
X215995489Y-82738879D02*
X216048449Y-85583727D01*
X215112750Y-63043656D02*
X215269434Y-65219595D01*
X170211032Y-27516165D02*
X171160608Y-27154185D01*
X168403138Y-28297935D02*
X169292579Y-27897745D01*
X194983556Y-25278735D02*
X195858468Y-25407555D01*
X181502193Y-24982175D02*
X182899176Y-24888675D01*
X153769467Y-39624825D02*
X154961416Y-38391695D01*
X178876493Y-25269405D02*
X180162273Y-25109675D01*
X167540724Y-28715765D02*
X168403138Y-28297935D01*
X158715415Y-34818315D02*
X160038949Y-33688035D01*
X142618008Y-52512847D02*
X144753552Y-49912659D01*
X208970373Y-34267355D02*
X209413189Y-35117895D01*
X208514188Y-33468905D02*
X208970373Y-34267355D01*
X195858468Y-25407555D02*
X196706213Y-25555575D01*
X201908575Y-27204065D02*
X202555160Y-27538145D01*
X200547313Y-26614865D02*
X201239660Y-26896685D01*
X171160608Y-27154185D02*
X172143518Y-26812885D01*
X190204144Y-24887975D02*
X191210167Y-24935775D01*
X199830587Y-26357555D02*
X200547313Y-26614865D01*
X154961416Y-38391695D02*
X156182241Y-37174555D01*
X191210167Y-24935775D02*
X192194665Y-24997775D01*
X172143518Y-26812885D02*
X173162064Y-26493405D01*
X161409412Y-32596035D02*
X162834827Y-31547375D01*
X206033461Y-30189735D02*
X206556803Y-30757535D01*
X205495604Y-29661465D02*
X206033461Y-30189735D01*
X203180580Y-27900235D02*
X203786091Y-28291825D01*
X199088698Y-26123845D02*
X199830587Y-26357555D01*
X196706213Y-25555575D02*
X197526956Y-25723715D01*
X194081331Y-25168175D02*
X194983556Y-25278735D01*
X157431850Y-35982005D02*
X158715415Y-34818315D01*
X173162064Y-26493405D02*
X174218646Y-26196985D01*
X138512400Y-57684980D02*
X140534081Y-55105263D01*
X177642000Y-25459615D02*
X178876493Y-25269405D01*
X166703446Y-29150355D02*
X167540724Y-28715765D01*
X162834827Y-31547375D02*
X164324418Y-30547425D01*
X144753552Y-49912659D02*
X146933948Y-47311895D01*
X140534081Y-55105263D02*
X142618008Y-52512847D01*
X204942432Y-29170485D02*
X205495604Y-29661465D01*
X188090367Y-24828875D02*
X190204144Y-24887975D01*
X184356202Y-24831175D02*
X185881237Y-24811475D01*
X165900319Y-29594885D02*
X166703446Y-29150355D01*
X160038949Y-33688035D02*
X161409412Y-32596035D01*
X203786091Y-28291825D02*
X204372970Y-28714625D01*
X193151711Y-25074875D02*
X194081331Y-25168175D01*
X182899176Y-24888675D02*
X184356202Y-24831175D01*
X176456002Y-25678645D02*
X177642000Y-25459615D01*
X169292579Y-27897745D02*
X170211032Y-27516165D01*
X146933948Y-47311895D02*
X149157676Y-44720975D01*
X174218646Y-26196985D02*
X175315767Y-25924935D01*
X198320986Y-25912845D02*
X199088698Y-26123845D01*
X185881237Y-24811475D02*
X188090367Y-24828875D01*
X156182241Y-37174555D02*
X157431850Y-35982005D01*
X180162273Y-25109675D02*
X181502193Y-24982175D01*
X175315767Y-25924935D02*
X176456002Y-25678645D01*
X151429780Y-42154415D02*
X153769467Y-39624825D01*
X149157676Y-44720975D02*
X151429780Y-42154415D01*
X204372970Y-28714625D02*
X204942432Y-29170485D01*
X208044761Y-32720715D02*
X208514188Y-33468905D01*
X201239660Y-26896685D02*
X201908575Y-27204065D01*
X207562132Y-32020815D02*
X208044761Y-32720715D01*
X206556803Y-30757535D02*
X207066222Y-31367145D01*
X164324418Y-30547425D02*
X165900319Y-29594885D01*
X207066222Y-31367145D02*
X207562132Y-32020815D01*
X202555160Y-27538145D02*
X203180580Y-27900235D01*
X192194665Y-24997775D02*
X193151711Y-25074875D01*
X197526956Y-25723715D02*
X198320986Y-25912845D01*
X125076290Y-82254244D02*
X125444345Y-80770397D01*
X124094028Y-88159868D02*
X124205951Y-87231896D01*
X123991219Y-89121918D02*
X124094028Y-88159868D01*
X123437409Y-99743064D02*
X123469659Y-98354420D01*
X123553899Y-95751623D02*
X123606719Y-94531164D01*
X123390269Y-102711475D02*
X123411109Y-101194265D01*
X123374329Y-104298263D02*
X123390269Y-102711475D01*
X123362719Y-105958343D02*
X123374329Y-104298263D01*
X124825741Y-132583313D02*
X124494421Y-130737118D01*
X123352529Y-116740597D02*
X123346329Y-115492330D01*
X125191233Y-134368175D02*
X124825741Y-132583313D01*
X132481906Y-159708624D02*
X132023094Y-157869367D01*
X133820266Y-64056524D02*
X134706404Y-62797080D01*
X129841819Y-70310548D02*
X130568923Y-69064736D01*
X129152245Y-71558113D02*
X129841819Y-70310548D01*
X123411109Y-101194265D02*
X123437409Y-99743064D01*
X124200167Y-128821162D02*
X123945705Y-126827739D01*
X126300726Y-77980396D02*
X126789795Y-76650601D01*
X125852345Y-79349963D02*
X126300726Y-77980396D01*
X123565845Y-122582175D02*
X123444239Y-120314006D01*
X126932580Y-141076835D02*
X126461845Y-139445628D01*
X132129590Y-66568580D02*
X132959636Y-65315012D01*
X127890378Y-74073332D02*
X128501441Y-72810904D01*
X123469659Y-98354420D02*
X123508349Y-97025008D01*
X123401669Y-119151692D02*
X123370989Y-117958732D01*
X126789795Y-76650601D02*
X127319709Y-75350974D01*
X125444345Y-80770397D02*
X125852345Y-79349963D01*
X123897339Y-90120479D02*
X123991219Y-89121918D01*
X124205951Y-87231896D02*
X124327136Y-86335653D01*
X123812199Y-91158041D02*
X123897339Y-90120479D01*
X123735559Y-92237201D02*
X123812199Y-91158041D01*
X123347419Y-111417401D02*
X123349919Y-109513863D01*
X123945705Y-126827739D02*
X123733526Y-124750016D01*
X123346466Y-113410429D02*
X123347419Y-111417401D01*
X126461845Y-139445628D02*
X126012483Y-137790005D01*
X128439078Y-145916564D02*
X127420414Y-142689980D01*
X129480869Y-149166932D02*
X128439078Y-145916564D01*
X131032276Y-154248485D02*
X130527892Y-152539322D01*
X132015294Y-157839265D02*
X131538723Y-156047934D01*
X124456502Y-85476931D02*
X124747660Y-83815480D01*
X123354819Y-107695549D02*
X123362719Y-105958343D01*
X131332075Y-67818050D02*
X132129590Y-66568580D01*
X123667159Y-93360652D02*
X123735559Y-92237201D01*
X124747660Y-83815480D02*
X125076290Y-82254244D01*
X123508349Y-97025008D02*
X123553899Y-95751623D01*
X132959636Y-65315012D02*
X133820266Y-64056524D01*
X127319709Y-75350974D02*
X127890378Y-74073332D01*
X136566186Y-60248237D02*
X138512400Y-57684980D01*
X123606719Y-94531164D02*
X123667159Y-93360652D01*
X130519692Y-152512305D02*
X129486369Y-149184297D01*
X123349919Y-109513863D02*
X123354819Y-107695549D01*
X126012483Y-137790005D02*
X125587863Y-136100651D01*
X127420414Y-142689980D02*
X126932580Y-141076835D01*
X131531223Y-156020275D02*
X131039276Y-154272657D01*
X134706404Y-62797080D02*
X136566186Y-60248237D01*
X130568923Y-69064736D02*
X131332075Y-67818050D01*
X123370989Y-117958732D02*
X123352529Y-116740597D01*
X123444239Y-120314006D02*
X123401669Y-119151692D01*
X124494421Y-130737118D02*
X124200167Y-128821162D01*
X124327136Y-86335653D02*
X124456502Y-85476931D01*
X123733526Y-124750016D02*
X123565845Y-122582175D01*
X125587863Y-136100651D02*
X125191233Y-134368175D01*
X123346329Y-115492330D02*
X123346466Y-113410429D01*
X128501441Y-72810904D02*
X129152245Y-71558113D01*
X162396277Y-271571658D02*
X160727553Y-271102868D01*
X135150341Y-174143014D02*
X134835565Y-171983905D01*
X137490283Y-193840221D02*
X137253687Y-191728483D01*
X139046839Y-207713582D02*
X138842386Y-205825803D01*
X139707123Y-245915904D02*
X139544396Y-244190232D01*
X141333136Y-252641228D02*
X140782719Y-250997618D01*
X154401584Y-268300008D02*
X152933268Y-267378878D01*
X144444144Y-258821478D02*
X143534805Y-257345838D01*
X132928688Y-161629920D02*
X132489506Y-159740014D01*
X133353913Y-163603416D02*
X132935788Y-161661600D01*
X134495020Y-169812314D02*
X134141599Y-167725507D01*
X135451039Y-176345717D02*
X135152941Y-174161124D01*
X136524339Y-185216123D02*
X136010567Y-180798521D01*
X139897307Y-216875643D02*
X139601143Y-213284616D01*
X137014439Y-189584494D02*
X136525236Y-185224123D01*
X150166707Y-265292268D02*
X148877533Y-264133628D01*
X140210310Y-231383930D02*
X140267080Y-229567570D01*
X137253687Y-191728483D02*
X137014541Y-189585694D01*
X140260813Y-224060937D02*
X140125835Y-220516319D01*
X140291833Y-225882432D02*
X140262013Y-224103467D01*
X152933268Y-267378878D02*
X151520100Y-266375208D01*
X137014541Y-189585694D02*
X137014439Y-189584494D01*
X138629276Y-203904817D02*
X138628939Y-203901517D01*
X139968377Y-247629425D02*
X139707123Y-245915904D01*
X140294516Y-227701533D02*
X140292116Y-225913252D01*
X139653954Y-238960342D02*
X139839193Y-237082299D01*
X141976748Y-254250628D02*
X141333136Y-252641228D01*
X142711440Y-255820558D02*
X141976748Y-254250628D01*
X151520100Y-266375208D02*
X150166707Y-265292268D01*
X146508528Y-261604668D02*
X145436468Y-260242648D01*
X133756629Y-165627413D02*
X133360313Y-163634296D01*
X134136799Y-167698617D02*
X133762229Y-165656623D01*
X139842193Y-237049329D02*
X139995886Y-235173411D01*
X138628939Y-203901517D02*
X138409713Y-201955411D01*
X140123335Y-220467039D02*
X139900207Y-216914653D01*
X165800485Y-272219128D02*
X164089109Y-271944158D01*
X139242539Y-209582742D02*
X139047614Y-207720682D01*
X139544396Y-244190232D02*
X139480726Y-242458077D01*
X140327302Y-249325188D02*
X139968377Y-247629425D01*
X134832365Y-171962715D02*
X134499020Y-169836494D01*
X136008367Y-180780221D02*
X135453839Y-176366767D01*
X139480726Y-242458077D02*
X139516336Y-240725119D01*
X137956329Y-197963830D02*
X137724564Y-195918900D01*
X138841839Y-205820703D02*
X138629276Y-203904817D01*
X140267814Y-229534530D02*
X140294324Y-227733653D01*
X143534805Y-257345838D02*
X142711440Y-255820558D01*
X140120840Y-233251833D02*
X140209010Y-231417500D01*
X147656808Y-262903078D02*
X146508528Y-261604668D01*
X139998386Y-235139931D02*
X140118940Y-233285543D01*
X140782719Y-250997618D02*
X140327302Y-249325188D01*
X145436468Y-260242648D02*
X144444144Y-258821478D01*
X157484204Y-269882808D02*
X155920222Y-269135568D01*
X137724564Y-195918900D02*
X137490283Y-193840221D01*
X138184939Y-199975211D02*
X137956329Y-197963830D01*
X138184999Y-199975513D02*
X138184939Y-199975211D01*
X159088406Y-270539298D02*
X157484204Y-269882808D01*
X138409713Y-201955411D02*
X138409539Y-201953711D01*
X148877533Y-264133628D02*
X147656808Y-262903078D01*
X164089109Y-271944158D02*
X162396277Y-271571658D01*
X138409539Y-201953711D02*
X138184999Y-199975513D01*
X139598643Y-213256046D02*
X139244039Y-209597972D01*
X155920222Y-269135568D02*
X154401584Y-268300008D01*
X139516336Y-240725119D02*
X139653954Y-238960342D01*
X160727553Y-271102868D02*
X159088406Y-270539298D01*
X169256388Y-272473178D02*
X167524796Y-272395678D01*
X176141975Y-271793088D02*
X174438027Y-272110858D01*
X177824937Y-271378278D02*
X176141975Y-271793088D01*
X170989578Y-272451478D02*
X169256388Y-272473178D01*
X172718680Y-272330558D02*
X170989578Y-272451478D01*
X174438027Y-272110858D02*
X172718680Y-272330558D01*
X167524796Y-272395678D02*
X165800485Y-272219128D01*
X199863993Y-245161957D02*
X199645765Y-246881489D01*
X192342534Y-262343028D02*
X191153030Y-263603778D01*
X199983420Y-243432747D02*
X199863993Y-245161957D01*
X199470168Y-236532714D02*
X199746606Y-238243851D01*
X188567467Y-265910878D02*
X187179898Y-266949658D01*
X179481390Y-270867808D02*
X177824937Y-271378278D01*
X181105902Y-270263338D02*
X179481390Y-270867808D01*
X182693145Y-269566858D02*
X181105902Y-270263338D01*
X197108847Y-255138778D02*
X196323966Y-256684228D01*
X198407039Y-251925918D02*
X197803965Y-253550948D01*
X184237908Y-268780658D02*
X182693145Y-269566858D01*
X185735131Y-267907298D02*
X184237908Y-268780658D01*
X193457909Y-261016238D02*
X192342534Y-262343028D01*
X198916092Y-250269028D02*
X198407039Y-251925918D01*
X200003660Y-241699541D02*
X199983420Y-243432747D01*
X199746606Y-238243851D02*
X199924630Y-239968016D01*
X197803965Y-253550948D02*
X197108847Y-255138778D01*
X187179898Y-266949658D02*
X185735131Y-267907298D01*
X199645765Y-246881489D02*
X199329453Y-248585707D01*
X199924630Y-239968016D02*
X200003660Y-241699541D01*
X189893296Y-264794368D02*
X188567467Y-265910878D01*
X191153030Y-263603778D02*
X189893296Y-264794368D01*
X194495499Y-259627778D02*
X193457909Y-261016238D01*
X195451896Y-258182188D02*
X194495499Y-259627778D01*
X196323966Y-256684228D02*
X195451896Y-258182188D01*
X199329453Y-248585707D02*
X198916092Y-250269028D01*
X162620231Y-188164503D02*
G75*
G03X194859453Y-207360707I24812068J5000516D01*
G01*
X207768979Y-128476062D02*
G75*
G03X162619453Y-188160707I-3885383J-43980241D01*
G01*
D11*
G04 #@! TO.C,S0*
X204094453Y-119910707D02*
G75*
G03X204094453Y-119910707I-8800000J0D01*
G01*
G04 #@! TO.C,S1*
X213009453Y-101260707D02*
G75*
G03X213009453Y-101260707I-8800000J0D01*
G01*
G04 #@! TO.C,S2*
X213994453Y-79785707D02*
G75*
G03X213994453Y-79785707I-8800000J0D01*
G01*
G04 #@! TO.C,S3*
X213119453Y-59385707D02*
G75*
G03X213119453Y-59385707I-8800000J0D01*
G01*
G04 #@! TO.C,S4*
X208094453Y-38635707D02*
G75*
G03X208094453Y-38635707I-8800000J0D01*
G01*
G04 #@! TO.C,S5*
X193219453Y-55035707D02*
G75*
G03X193219453Y-55035707I-8800000J0D01*
G01*
G04 #@! TO.C,S6*
X193494453Y-78810707D02*
G75*
G03X193494453Y-78810707I-8800000J0D01*
G01*
G04 #@! TO.C,S7*
X186619453Y-98985707D02*
G75*
G03X186619453Y-98985707I-8800000J0D01*
G01*
G04 #@! TO.C,S8*
X187444453Y-35685707D02*
G75*
G03X187444453Y-35685707I-8800000J0D01*
G01*
G04 #@! TO.C,S9*
X170244453Y-46710707D02*
G75*
G03X170244453Y-46710707I-8800000J0D01*
G01*
G04 #@! TO.C,S10*
X176894453Y-66960707D02*
G75*
G03X176894453Y-66960707I-8800000J0D01*
G01*
G04 #@! TO.C,S11*
X156694453Y-62435707D02*
G75*
G03X156694453Y-62435707I-8800000J0D01*
G01*
G04 #@! TO.C,S12*
X166344453Y-84360707D02*
G75*
G03X166344453Y-84360707I-8800000J0D01*
G01*
G04 #@! TO.C,S13*
X145694453Y-80035707D02*
G75*
G03X145694453Y-80035707I-8800000J0D01*
G01*
G04 #@! TO.C,S14*
X183069453Y-120760707D02*
G75*
G03X183069453Y-120760707I-8800000J0D01*
G01*
G04 #@! TO.C,S15*
X163244453Y-104685707D02*
G75*
G03X163244453Y-104685707I-8800000J0D01*
G01*
G04 #@! TO.C,S16*
X142869453Y-100335707D02*
G75*
G03X142869453Y-100335707I-8800000J0D01*
G01*
G04 #@! TO.C,S17*
X142669453Y-121035707D02*
G75*
G03X142669453Y-121035707I-8800000J0D01*
G01*
G04 #@! TO.C,S18*
X162644453Y-125510707D02*
G75*
G03X162644453Y-125510707I-8800000J0D01*
G01*
G04 #@! TO.C,S19*
X166769453Y-145610707D02*
G75*
G03X166769453Y-145610707I-8800000J0D01*
G01*
G04 #@! TO.C,S20*
X146994453Y-141135707D02*
G75*
G03X146994453Y-141135707I-8800000J0D01*
G01*
G04 #@! TO.C,S21*
X152169453Y-160785707D02*
G75*
G03X152169453Y-160785707I-8800000J0D01*
G01*
G04 #@! TO.C,S22*
X155869453Y-180810707D02*
G75*
G03X155869453Y-180810707I-8800000J0D01*
G01*
G04 #@! TO.C,S23*
X158844453Y-200960707D02*
G75*
G03X158844453Y-200960707I-8800000J0D01*
G01*
G04 #@! TO.C,S24*
X195119453Y-221810707D02*
G75*
G03X195119453Y-221810707I-8800000J0D01*
G01*
G04 #@! TO.C,S25*
X198169453Y-241635707D02*
G75*
G03X198169453Y-241635707I-8800000J0D01*
G01*
G04 #@! TO.C,S26*
X188469453Y-259435707D02*
G75*
G03X188469453Y-259435707I-8800000J0D01*
G01*
G04 #@! TO.C,S27*
X168369453Y-259360707D02*
G75*
G03X168369453Y-259360707I-8800000J0D01*
G01*
G04 #@! TO.C,S28*
X158619453Y-241685707D02*
G75*
G03X158619453Y-241685707I-8800000J0D01*
G01*
G04 #@! TO.C,S29*
X178394453Y-237835707D02*
G75*
G03X178394453Y-237835707I-8800000J0D01*
G01*
G04 #@! TO.C,S30*
X159044453Y-221610707D02*
G75*
G03X159044453Y-221610707I-8800000J0D01*
G01*
G04 #@! TO.C,S31*
X177119453Y-213210707D02*
G75*
G03X177119453Y-213210707I-8800000J0D01*
G01*
G04 #@! TD*
M02*
