G04 #@! TF.GenerationSoftware,KiCad,Pcbnew,(5.0.0)*
G04 #@! TF.CreationDate,2020-01-29T13:43:46+01:00*
G04 #@! TF.ProjectId,Insole_PCB,496E736F6C655F5043422E6B69636164,rev?*
G04 #@! TF.SameCoordinates,Original*
G04 #@! TF.FileFunction,Legend,Top*
G04 #@! TF.FilePolarity,Positive*
%FSLAX46Y46*%
G04 Gerber Fmt 4.6, Leading zero omitted, Abs format (unit mm)*
G04 Created by KiCad (PCBNEW (5.0.0)) date 01/29/20 13:43:46*
%MOMM*%
%LPD*%
G01*
G04 APERTURE LIST*
%ADD10C,0.120000*%
%ADD11C,0.010000*%
%ADD12C,0.200000*%
%ADD13C,0.150000*%
G04 APERTURE END LIST*
D10*
G04 #@! TO.C,J2*
X191133929Y-187382519D02*
X191827236Y-187334038D01*
X191086146Y-186699188D02*
X191133929Y-187382519D01*
X192338464Y-185924944D02*
X192424977Y-185918895D01*
X191038363Y-186015856D02*
X191124876Y-186009807D01*
X192424977Y-185918895D02*
X192363940Y-185046026D01*
X191038363Y-186015856D02*
X190977326Y-185142988D01*
X192064165Y-185066989D02*
X192363940Y-185046026D01*
X190977326Y-185142988D02*
X191277101Y-185122026D01*
D11*
G04 #@! TO.C,J1*
X187600969Y-194382742D02*
X185452278Y-194457776D01*
X187891745Y-201276794D02*
X185693085Y-201353573D01*
X187218346Y-202050767D02*
X186892035Y-192706462D01*
D10*
X192425329Y-193563875D02*
X189197297Y-193676601D01*
X188310092Y-194918320D02*
X188347783Y-195997662D01*
X188494234Y-199904932D02*
X188531926Y-200984274D01*
X192711505Y-201758880D02*
X189483473Y-201871606D01*
X188347783Y-195997662D02*
X187918045Y-196012669D01*
D12*
G04 #@! TO.C,S0*
X205296453Y-119910707D02*
G75*
G03X205296453Y-119910707I-10002000J0D01*
G01*
G04 #@! TO.C,S1*
X214211453Y-101260707D02*
G75*
G03X214211453Y-101260707I-10002000J0D01*
G01*
G04 #@! TO.C,S2*
X215196453Y-79785707D02*
G75*
G03X215196453Y-79785707I-10002000J0D01*
G01*
G04 #@! TO.C,S3*
X214321453Y-59385707D02*
G75*
G03X214321453Y-59385707I-10002000J0D01*
G01*
G04 #@! TO.C,S4*
X209296453Y-38635707D02*
G75*
G03X209296453Y-38635707I-10002000J0D01*
G01*
G04 #@! TO.C,S5*
X194421453Y-55035707D02*
G75*
G03X194421453Y-55035707I-10002000J0D01*
G01*
G04 #@! TO.C,S6*
X194696453Y-78810707D02*
G75*
G03X194696453Y-78810707I-10002000J0D01*
G01*
G04 #@! TO.C,S7*
X187821453Y-98985707D02*
G75*
G03X187821453Y-98985707I-10002000J0D01*
G01*
G04 #@! TO.C,S8*
X188646453Y-35685707D02*
G75*
G03X188646453Y-35685707I-10002000J0D01*
G01*
G04 #@! TO.C,S9*
X171446453Y-46710707D02*
G75*
G03X171446453Y-46710707I-10002000J0D01*
G01*
G04 #@! TO.C,S10*
X178096453Y-66960707D02*
G75*
G03X178096453Y-66960707I-10002000J0D01*
G01*
G04 #@! TO.C,S11*
X157896453Y-62435707D02*
G75*
G03X157896453Y-62435707I-10002000J0D01*
G01*
G04 #@! TO.C,S12*
X167546453Y-84360707D02*
G75*
G03X167546453Y-84360707I-10002000J0D01*
G01*
G04 #@! TO.C,S13*
X146896453Y-80035707D02*
G75*
G03X146896453Y-80035707I-10002000J0D01*
G01*
G04 #@! TO.C,S14*
X184271453Y-120760707D02*
G75*
G03X184271453Y-120760707I-10002000J0D01*
G01*
G04 #@! TO.C,S15*
X164446453Y-104685707D02*
G75*
G03X164446453Y-104685707I-10002000J0D01*
G01*
G04 #@! TO.C,S16*
X144071453Y-100335707D02*
G75*
G03X144071453Y-100335707I-10002000J0D01*
G01*
G04 #@! TO.C,S17*
X143871453Y-121035707D02*
G75*
G03X143871453Y-121035707I-10002000J0D01*
G01*
G04 #@! TO.C,S18*
X163846453Y-125510707D02*
G75*
G03X163846453Y-125510707I-10002000J0D01*
G01*
G04 #@! TO.C,S19*
X167971453Y-145610707D02*
G75*
G03X167971453Y-145610707I-10002000J0D01*
G01*
G04 #@! TO.C,S20*
X148196453Y-141135707D02*
G75*
G03X148196453Y-141135707I-10002000J0D01*
G01*
G04 #@! TO.C,S21*
X153371453Y-160785707D02*
G75*
G03X153371453Y-160785707I-10002000J0D01*
G01*
G04 #@! TO.C,S22*
X157071453Y-180810707D02*
G75*
G03X157071453Y-180810707I-10002000J0D01*
G01*
G04 #@! TO.C,S23*
X160046453Y-200960707D02*
G75*
G03X160046453Y-200960707I-10002000J0D01*
G01*
G04 #@! TO.C,S24*
X196321453Y-221810707D02*
G75*
G03X196321453Y-221810707I-10002000J0D01*
G01*
G04 #@! TO.C,S25*
X199371453Y-241635707D02*
G75*
G03X199371453Y-241635707I-10002000J0D01*
G01*
G04 #@! TO.C,S26*
X189671453Y-259435707D02*
G75*
G03X189671453Y-259435707I-10002000J0D01*
G01*
G04 #@! TO.C,S27*
X169571453Y-259360707D02*
G75*
G03X169571453Y-259360707I-10002000J0D01*
G01*
G04 #@! TO.C,S28*
X159821453Y-241685707D02*
G75*
G03X159821453Y-241685707I-10002000J0D01*
G01*
G04 #@! TO.C,S29*
X179596453Y-237835707D02*
G75*
G03X179596453Y-237835707I-10002000J0D01*
G01*
G04 #@! TO.C,S30*
X160246453Y-221610707D02*
G75*
G03X160246453Y-221610707I-10002000J0D01*
G01*
G04 #@! TO.C,S31*
X178321453Y-213210707D02*
G75*
G03X178321453Y-213210707I-10002000J0D01*
G01*
G04 #@! TO.C,J2*
D13*
X191517551Y-187683874D02*
X191567377Y-188396419D01*
X191529839Y-188542250D01*
X191441477Y-188643900D01*
X191302289Y-188701368D01*
X191207283Y-188708012D01*
X191951722Y-187748984D02*
X191995903Y-187698159D01*
X192087588Y-187644013D01*
X192325103Y-187627404D01*
X192423431Y-187668264D01*
X192474256Y-187712445D01*
X192528402Y-187804129D01*
X192535046Y-187899135D01*
X192497508Y-188044966D01*
X191967332Y-188654864D01*
X192584872Y-188611681D01*
G04 #@! TO.C,J1*
X182710405Y-197672091D02*
X181996554Y-197697019D01*
X181852122Y-197654414D01*
X181753618Y-197562558D01*
X181701043Y-197421450D01*
X181697719Y-197326270D01*
X181745913Y-198706381D02*
X181725971Y-198135300D01*
X181735942Y-198420841D02*
X182735333Y-198385941D01*
X182589239Y-198295747D01*
X182490735Y-198203890D01*
X182439821Y-198110372D01*
G04 #@! TO.C,S0*
X194332548Y-129315468D02*
X194475405Y-129363087D01*
X194713500Y-129363087D01*
X194808738Y-129315468D01*
X194856357Y-129267849D01*
X194903976Y-129172611D01*
X194903976Y-129077373D01*
X194856357Y-128982135D01*
X194808738Y-128934516D01*
X194713500Y-128886897D01*
X194523024Y-128839278D01*
X194427786Y-128791659D01*
X194380167Y-128744040D01*
X194332548Y-128648802D01*
X194332548Y-128553564D01*
X194380167Y-128458326D01*
X194427786Y-128410707D01*
X194523024Y-128363087D01*
X194761119Y-128363087D01*
X194903976Y-128410707D01*
X195523024Y-128363087D02*
X195618262Y-128363087D01*
X195713500Y-128410707D01*
X195761119Y-128458326D01*
X195808738Y-128553564D01*
X195856357Y-128744040D01*
X195856357Y-128982135D01*
X195808738Y-129172611D01*
X195761119Y-129267849D01*
X195713500Y-129315468D01*
X195618262Y-129363087D01*
X195523024Y-129363087D01*
X195427786Y-129315468D01*
X195380167Y-129267849D01*
X195332548Y-129172611D01*
X195284929Y-128982135D01*
X195284929Y-128744040D01*
X195332548Y-128553564D01*
X195380167Y-128458326D01*
X195427786Y-128410707D01*
X195523024Y-128363087D01*
G04 #@! TO.C,S1*
X203247548Y-110665468D02*
X203390405Y-110713087D01*
X203628500Y-110713087D01*
X203723738Y-110665468D01*
X203771357Y-110617849D01*
X203818976Y-110522611D01*
X203818976Y-110427373D01*
X203771357Y-110332135D01*
X203723738Y-110284516D01*
X203628500Y-110236897D01*
X203438024Y-110189278D01*
X203342786Y-110141659D01*
X203295167Y-110094040D01*
X203247548Y-109998802D01*
X203247548Y-109903564D01*
X203295167Y-109808326D01*
X203342786Y-109760707D01*
X203438024Y-109713087D01*
X203676119Y-109713087D01*
X203818976Y-109760707D01*
X204771357Y-110713087D02*
X204199929Y-110713087D01*
X204485643Y-110713087D02*
X204485643Y-109713087D01*
X204390405Y-109855945D01*
X204295167Y-109951183D01*
X204199929Y-109998802D01*
G04 #@! TO.C,S2*
X204232548Y-89190468D02*
X204375405Y-89238087D01*
X204613500Y-89238087D01*
X204708738Y-89190468D01*
X204756357Y-89142849D01*
X204803976Y-89047611D01*
X204803976Y-88952373D01*
X204756357Y-88857135D01*
X204708738Y-88809516D01*
X204613500Y-88761897D01*
X204423024Y-88714278D01*
X204327786Y-88666659D01*
X204280167Y-88619040D01*
X204232548Y-88523802D01*
X204232548Y-88428564D01*
X204280167Y-88333326D01*
X204327786Y-88285707D01*
X204423024Y-88238087D01*
X204661119Y-88238087D01*
X204803976Y-88285707D01*
X205184929Y-88333326D02*
X205232548Y-88285707D01*
X205327786Y-88238087D01*
X205565881Y-88238087D01*
X205661119Y-88285707D01*
X205708738Y-88333326D01*
X205756357Y-88428564D01*
X205756357Y-88523802D01*
X205708738Y-88666659D01*
X205137310Y-89238087D01*
X205756357Y-89238087D01*
G04 #@! TO.C,S3*
X203357548Y-68790468D02*
X203500405Y-68838087D01*
X203738500Y-68838087D01*
X203833738Y-68790468D01*
X203881357Y-68742849D01*
X203928976Y-68647611D01*
X203928976Y-68552373D01*
X203881357Y-68457135D01*
X203833738Y-68409516D01*
X203738500Y-68361897D01*
X203548024Y-68314278D01*
X203452786Y-68266659D01*
X203405167Y-68219040D01*
X203357548Y-68123802D01*
X203357548Y-68028564D01*
X203405167Y-67933326D01*
X203452786Y-67885707D01*
X203548024Y-67838087D01*
X203786119Y-67838087D01*
X203928976Y-67885707D01*
X204262310Y-67838087D02*
X204881357Y-67838087D01*
X204548024Y-68219040D01*
X204690881Y-68219040D01*
X204786119Y-68266659D01*
X204833738Y-68314278D01*
X204881357Y-68409516D01*
X204881357Y-68647611D01*
X204833738Y-68742849D01*
X204786119Y-68790468D01*
X204690881Y-68838087D01*
X204405167Y-68838087D01*
X204309929Y-68790468D01*
X204262310Y-68742849D01*
G04 #@! TO.C,S4*
X198332548Y-48040468D02*
X198475405Y-48088087D01*
X198713500Y-48088087D01*
X198808738Y-48040468D01*
X198856357Y-47992849D01*
X198903976Y-47897611D01*
X198903976Y-47802373D01*
X198856357Y-47707135D01*
X198808738Y-47659516D01*
X198713500Y-47611897D01*
X198523024Y-47564278D01*
X198427786Y-47516659D01*
X198380167Y-47469040D01*
X198332548Y-47373802D01*
X198332548Y-47278564D01*
X198380167Y-47183326D01*
X198427786Y-47135707D01*
X198523024Y-47088087D01*
X198761119Y-47088087D01*
X198903976Y-47135707D01*
X199761119Y-47421421D02*
X199761119Y-48088087D01*
X199523024Y-47040468D02*
X199284929Y-47754754D01*
X199903976Y-47754754D01*
G04 #@! TO.C,S5*
X183457548Y-64440468D02*
X183600405Y-64488087D01*
X183838500Y-64488087D01*
X183933738Y-64440468D01*
X183981357Y-64392849D01*
X184028976Y-64297611D01*
X184028976Y-64202373D01*
X183981357Y-64107135D01*
X183933738Y-64059516D01*
X183838500Y-64011897D01*
X183648024Y-63964278D01*
X183552786Y-63916659D01*
X183505167Y-63869040D01*
X183457548Y-63773802D01*
X183457548Y-63678564D01*
X183505167Y-63583326D01*
X183552786Y-63535707D01*
X183648024Y-63488087D01*
X183886119Y-63488087D01*
X184028976Y-63535707D01*
X184933738Y-63488087D02*
X184457548Y-63488087D01*
X184409929Y-63964278D01*
X184457548Y-63916659D01*
X184552786Y-63869040D01*
X184790881Y-63869040D01*
X184886119Y-63916659D01*
X184933738Y-63964278D01*
X184981357Y-64059516D01*
X184981357Y-64297611D01*
X184933738Y-64392849D01*
X184886119Y-64440468D01*
X184790881Y-64488087D01*
X184552786Y-64488087D01*
X184457548Y-64440468D01*
X184409929Y-64392849D01*
G04 #@! TO.C,S6*
X183732548Y-88215468D02*
X183875405Y-88263087D01*
X184113500Y-88263087D01*
X184208738Y-88215468D01*
X184256357Y-88167849D01*
X184303976Y-88072611D01*
X184303976Y-87977373D01*
X184256357Y-87882135D01*
X184208738Y-87834516D01*
X184113500Y-87786897D01*
X183923024Y-87739278D01*
X183827786Y-87691659D01*
X183780167Y-87644040D01*
X183732548Y-87548802D01*
X183732548Y-87453564D01*
X183780167Y-87358326D01*
X183827786Y-87310707D01*
X183923024Y-87263087D01*
X184161119Y-87263087D01*
X184303976Y-87310707D01*
X185161119Y-87263087D02*
X184970643Y-87263087D01*
X184875405Y-87310707D01*
X184827786Y-87358326D01*
X184732548Y-87501183D01*
X184684929Y-87691659D01*
X184684929Y-88072611D01*
X184732548Y-88167849D01*
X184780167Y-88215468D01*
X184875405Y-88263087D01*
X185065881Y-88263087D01*
X185161119Y-88215468D01*
X185208738Y-88167849D01*
X185256357Y-88072611D01*
X185256357Y-87834516D01*
X185208738Y-87739278D01*
X185161119Y-87691659D01*
X185065881Y-87644040D01*
X184875405Y-87644040D01*
X184780167Y-87691659D01*
X184732548Y-87739278D01*
X184684929Y-87834516D01*
G04 #@! TO.C,S7*
X176857548Y-108390468D02*
X177000405Y-108438087D01*
X177238500Y-108438087D01*
X177333738Y-108390468D01*
X177381357Y-108342849D01*
X177428976Y-108247611D01*
X177428976Y-108152373D01*
X177381357Y-108057135D01*
X177333738Y-108009516D01*
X177238500Y-107961897D01*
X177048024Y-107914278D01*
X176952786Y-107866659D01*
X176905167Y-107819040D01*
X176857548Y-107723802D01*
X176857548Y-107628564D01*
X176905167Y-107533326D01*
X176952786Y-107485707D01*
X177048024Y-107438087D01*
X177286119Y-107438087D01*
X177428976Y-107485707D01*
X177762310Y-107438087D02*
X178428976Y-107438087D01*
X178000405Y-108438087D01*
G04 #@! TO.C,S8*
X177682548Y-45090468D02*
X177825405Y-45138087D01*
X178063500Y-45138087D01*
X178158738Y-45090468D01*
X178206357Y-45042849D01*
X178253976Y-44947611D01*
X178253976Y-44852373D01*
X178206357Y-44757135D01*
X178158738Y-44709516D01*
X178063500Y-44661897D01*
X177873024Y-44614278D01*
X177777786Y-44566659D01*
X177730167Y-44519040D01*
X177682548Y-44423802D01*
X177682548Y-44328564D01*
X177730167Y-44233326D01*
X177777786Y-44185707D01*
X177873024Y-44138087D01*
X178111119Y-44138087D01*
X178253976Y-44185707D01*
X178825405Y-44566659D02*
X178730167Y-44519040D01*
X178682548Y-44471421D01*
X178634929Y-44376183D01*
X178634929Y-44328564D01*
X178682548Y-44233326D01*
X178730167Y-44185707D01*
X178825405Y-44138087D01*
X179015881Y-44138087D01*
X179111119Y-44185707D01*
X179158738Y-44233326D01*
X179206357Y-44328564D01*
X179206357Y-44376183D01*
X179158738Y-44471421D01*
X179111119Y-44519040D01*
X179015881Y-44566659D01*
X178825405Y-44566659D01*
X178730167Y-44614278D01*
X178682548Y-44661897D01*
X178634929Y-44757135D01*
X178634929Y-44947611D01*
X178682548Y-45042849D01*
X178730167Y-45090468D01*
X178825405Y-45138087D01*
X179015881Y-45138087D01*
X179111119Y-45090468D01*
X179158738Y-45042849D01*
X179206357Y-44947611D01*
X179206357Y-44757135D01*
X179158738Y-44661897D01*
X179111119Y-44614278D01*
X179015881Y-44566659D01*
G04 #@! TO.C,S9*
X160482548Y-56115468D02*
X160625405Y-56163087D01*
X160863500Y-56163087D01*
X160958738Y-56115468D01*
X161006357Y-56067849D01*
X161053976Y-55972611D01*
X161053976Y-55877373D01*
X161006357Y-55782135D01*
X160958738Y-55734516D01*
X160863500Y-55686897D01*
X160673024Y-55639278D01*
X160577786Y-55591659D01*
X160530167Y-55544040D01*
X160482548Y-55448802D01*
X160482548Y-55353564D01*
X160530167Y-55258326D01*
X160577786Y-55210707D01*
X160673024Y-55163087D01*
X160911119Y-55163087D01*
X161053976Y-55210707D01*
X161530167Y-56163087D02*
X161720643Y-56163087D01*
X161815881Y-56115468D01*
X161863500Y-56067849D01*
X161958738Y-55924992D01*
X162006357Y-55734516D01*
X162006357Y-55353564D01*
X161958738Y-55258326D01*
X161911119Y-55210707D01*
X161815881Y-55163087D01*
X161625405Y-55163087D01*
X161530167Y-55210707D01*
X161482548Y-55258326D01*
X161434929Y-55353564D01*
X161434929Y-55591659D01*
X161482548Y-55686897D01*
X161530167Y-55734516D01*
X161625405Y-55782135D01*
X161815881Y-55782135D01*
X161911119Y-55734516D01*
X161958738Y-55686897D01*
X162006357Y-55591659D01*
G04 #@! TO.C,S10*
X166656357Y-76365468D02*
X166799214Y-76413087D01*
X167037310Y-76413087D01*
X167132548Y-76365468D01*
X167180167Y-76317849D01*
X167227786Y-76222611D01*
X167227786Y-76127373D01*
X167180167Y-76032135D01*
X167132548Y-75984516D01*
X167037310Y-75936897D01*
X166846833Y-75889278D01*
X166751595Y-75841659D01*
X166703976Y-75794040D01*
X166656357Y-75698802D01*
X166656357Y-75603564D01*
X166703976Y-75508326D01*
X166751595Y-75460707D01*
X166846833Y-75413087D01*
X167084929Y-75413087D01*
X167227786Y-75460707D01*
X168180167Y-76413087D02*
X167608738Y-76413087D01*
X167894453Y-76413087D02*
X167894453Y-75413087D01*
X167799214Y-75555945D01*
X167703976Y-75651183D01*
X167608738Y-75698802D01*
X168799214Y-75413087D02*
X168894453Y-75413087D01*
X168989691Y-75460707D01*
X169037310Y-75508326D01*
X169084929Y-75603564D01*
X169132548Y-75794040D01*
X169132548Y-76032135D01*
X169084929Y-76222611D01*
X169037310Y-76317849D01*
X168989691Y-76365468D01*
X168894453Y-76413087D01*
X168799214Y-76413087D01*
X168703976Y-76365468D01*
X168656357Y-76317849D01*
X168608738Y-76222611D01*
X168561119Y-76032135D01*
X168561119Y-75794040D01*
X168608738Y-75603564D01*
X168656357Y-75508326D01*
X168703976Y-75460707D01*
X168799214Y-75413087D01*
G04 #@! TO.C,S11*
X146456357Y-71840468D02*
X146599214Y-71888087D01*
X146837310Y-71888087D01*
X146932548Y-71840468D01*
X146980167Y-71792849D01*
X147027786Y-71697611D01*
X147027786Y-71602373D01*
X146980167Y-71507135D01*
X146932548Y-71459516D01*
X146837310Y-71411897D01*
X146646833Y-71364278D01*
X146551595Y-71316659D01*
X146503976Y-71269040D01*
X146456357Y-71173802D01*
X146456357Y-71078564D01*
X146503976Y-70983326D01*
X146551595Y-70935707D01*
X146646833Y-70888087D01*
X146884929Y-70888087D01*
X147027786Y-70935707D01*
X147980167Y-71888087D02*
X147408738Y-71888087D01*
X147694453Y-71888087D02*
X147694453Y-70888087D01*
X147599214Y-71030945D01*
X147503976Y-71126183D01*
X147408738Y-71173802D01*
X148932548Y-71888087D02*
X148361119Y-71888087D01*
X148646833Y-71888087D02*
X148646833Y-70888087D01*
X148551595Y-71030945D01*
X148456357Y-71126183D01*
X148361119Y-71173802D01*
G04 #@! TO.C,S12*
X156106357Y-93765468D02*
X156249214Y-93813087D01*
X156487310Y-93813087D01*
X156582548Y-93765468D01*
X156630167Y-93717849D01*
X156677786Y-93622611D01*
X156677786Y-93527373D01*
X156630167Y-93432135D01*
X156582548Y-93384516D01*
X156487310Y-93336897D01*
X156296833Y-93289278D01*
X156201595Y-93241659D01*
X156153976Y-93194040D01*
X156106357Y-93098802D01*
X156106357Y-93003564D01*
X156153976Y-92908326D01*
X156201595Y-92860707D01*
X156296833Y-92813087D01*
X156534929Y-92813087D01*
X156677786Y-92860707D01*
X157630167Y-93813087D02*
X157058738Y-93813087D01*
X157344453Y-93813087D02*
X157344453Y-92813087D01*
X157249214Y-92955945D01*
X157153976Y-93051183D01*
X157058738Y-93098802D01*
X158011119Y-92908326D02*
X158058738Y-92860707D01*
X158153976Y-92813087D01*
X158392072Y-92813087D01*
X158487310Y-92860707D01*
X158534929Y-92908326D01*
X158582548Y-93003564D01*
X158582548Y-93098802D01*
X158534929Y-93241659D01*
X157963500Y-93813087D01*
X158582548Y-93813087D01*
G04 #@! TO.C,S13*
X135456357Y-89440468D02*
X135599214Y-89488087D01*
X135837310Y-89488087D01*
X135932548Y-89440468D01*
X135980167Y-89392849D01*
X136027786Y-89297611D01*
X136027786Y-89202373D01*
X135980167Y-89107135D01*
X135932548Y-89059516D01*
X135837310Y-89011897D01*
X135646833Y-88964278D01*
X135551595Y-88916659D01*
X135503976Y-88869040D01*
X135456357Y-88773802D01*
X135456357Y-88678564D01*
X135503976Y-88583326D01*
X135551595Y-88535707D01*
X135646833Y-88488087D01*
X135884929Y-88488087D01*
X136027786Y-88535707D01*
X136980167Y-89488087D02*
X136408738Y-89488087D01*
X136694453Y-89488087D02*
X136694453Y-88488087D01*
X136599214Y-88630945D01*
X136503976Y-88726183D01*
X136408738Y-88773802D01*
X137313500Y-88488087D02*
X137932548Y-88488087D01*
X137599214Y-88869040D01*
X137742072Y-88869040D01*
X137837310Y-88916659D01*
X137884929Y-88964278D01*
X137932548Y-89059516D01*
X137932548Y-89297611D01*
X137884929Y-89392849D01*
X137837310Y-89440468D01*
X137742072Y-89488087D01*
X137456357Y-89488087D01*
X137361119Y-89440468D01*
X137313500Y-89392849D01*
G04 #@! TO.C,S14*
X172831357Y-130165468D02*
X172974214Y-130213087D01*
X173212310Y-130213087D01*
X173307548Y-130165468D01*
X173355167Y-130117849D01*
X173402786Y-130022611D01*
X173402786Y-129927373D01*
X173355167Y-129832135D01*
X173307548Y-129784516D01*
X173212310Y-129736897D01*
X173021833Y-129689278D01*
X172926595Y-129641659D01*
X172878976Y-129594040D01*
X172831357Y-129498802D01*
X172831357Y-129403564D01*
X172878976Y-129308326D01*
X172926595Y-129260707D01*
X173021833Y-129213087D01*
X173259929Y-129213087D01*
X173402786Y-129260707D01*
X174355167Y-130213087D02*
X173783738Y-130213087D01*
X174069453Y-130213087D02*
X174069453Y-129213087D01*
X173974214Y-129355945D01*
X173878976Y-129451183D01*
X173783738Y-129498802D01*
X175212310Y-129546421D02*
X175212310Y-130213087D01*
X174974214Y-129165468D02*
X174736119Y-129879754D01*
X175355167Y-129879754D01*
G04 #@! TO.C,S15*
X153006357Y-114090468D02*
X153149214Y-114138087D01*
X153387310Y-114138087D01*
X153482548Y-114090468D01*
X153530167Y-114042849D01*
X153577786Y-113947611D01*
X153577786Y-113852373D01*
X153530167Y-113757135D01*
X153482548Y-113709516D01*
X153387310Y-113661897D01*
X153196833Y-113614278D01*
X153101595Y-113566659D01*
X153053976Y-113519040D01*
X153006357Y-113423802D01*
X153006357Y-113328564D01*
X153053976Y-113233326D01*
X153101595Y-113185707D01*
X153196833Y-113138087D01*
X153434929Y-113138087D01*
X153577786Y-113185707D01*
X154530167Y-114138087D02*
X153958738Y-114138087D01*
X154244453Y-114138087D02*
X154244453Y-113138087D01*
X154149214Y-113280945D01*
X154053976Y-113376183D01*
X153958738Y-113423802D01*
X155434929Y-113138087D02*
X154958738Y-113138087D01*
X154911119Y-113614278D01*
X154958738Y-113566659D01*
X155053976Y-113519040D01*
X155292072Y-113519040D01*
X155387310Y-113566659D01*
X155434929Y-113614278D01*
X155482548Y-113709516D01*
X155482548Y-113947611D01*
X155434929Y-114042849D01*
X155387310Y-114090468D01*
X155292072Y-114138087D01*
X155053976Y-114138087D01*
X154958738Y-114090468D01*
X154911119Y-114042849D01*
G04 #@! TO.C,S16*
X132631357Y-109740468D02*
X132774214Y-109788087D01*
X133012310Y-109788087D01*
X133107548Y-109740468D01*
X133155167Y-109692849D01*
X133202786Y-109597611D01*
X133202786Y-109502373D01*
X133155167Y-109407135D01*
X133107548Y-109359516D01*
X133012310Y-109311897D01*
X132821833Y-109264278D01*
X132726595Y-109216659D01*
X132678976Y-109169040D01*
X132631357Y-109073802D01*
X132631357Y-108978564D01*
X132678976Y-108883326D01*
X132726595Y-108835707D01*
X132821833Y-108788087D01*
X133059929Y-108788087D01*
X133202786Y-108835707D01*
X134155167Y-109788087D02*
X133583738Y-109788087D01*
X133869453Y-109788087D02*
X133869453Y-108788087D01*
X133774214Y-108930945D01*
X133678976Y-109026183D01*
X133583738Y-109073802D01*
X135012310Y-108788087D02*
X134821833Y-108788087D01*
X134726595Y-108835707D01*
X134678976Y-108883326D01*
X134583738Y-109026183D01*
X134536119Y-109216659D01*
X134536119Y-109597611D01*
X134583738Y-109692849D01*
X134631357Y-109740468D01*
X134726595Y-109788087D01*
X134917072Y-109788087D01*
X135012310Y-109740468D01*
X135059929Y-109692849D01*
X135107548Y-109597611D01*
X135107548Y-109359516D01*
X135059929Y-109264278D01*
X135012310Y-109216659D01*
X134917072Y-109169040D01*
X134726595Y-109169040D01*
X134631357Y-109216659D01*
X134583738Y-109264278D01*
X134536119Y-109359516D01*
G04 #@! TO.C,S17*
X132431357Y-130440468D02*
X132574214Y-130488087D01*
X132812310Y-130488087D01*
X132907548Y-130440468D01*
X132955167Y-130392849D01*
X133002786Y-130297611D01*
X133002786Y-130202373D01*
X132955167Y-130107135D01*
X132907548Y-130059516D01*
X132812310Y-130011897D01*
X132621833Y-129964278D01*
X132526595Y-129916659D01*
X132478976Y-129869040D01*
X132431357Y-129773802D01*
X132431357Y-129678564D01*
X132478976Y-129583326D01*
X132526595Y-129535707D01*
X132621833Y-129488087D01*
X132859929Y-129488087D01*
X133002786Y-129535707D01*
X133955167Y-130488087D02*
X133383738Y-130488087D01*
X133669453Y-130488087D02*
X133669453Y-129488087D01*
X133574214Y-129630945D01*
X133478976Y-129726183D01*
X133383738Y-129773802D01*
X134288500Y-129488087D02*
X134955167Y-129488087D01*
X134526595Y-130488087D01*
G04 #@! TO.C,S18*
X152406357Y-134915468D02*
X152549214Y-134963087D01*
X152787310Y-134963087D01*
X152882548Y-134915468D01*
X152930167Y-134867849D01*
X152977786Y-134772611D01*
X152977786Y-134677373D01*
X152930167Y-134582135D01*
X152882548Y-134534516D01*
X152787310Y-134486897D01*
X152596833Y-134439278D01*
X152501595Y-134391659D01*
X152453976Y-134344040D01*
X152406357Y-134248802D01*
X152406357Y-134153564D01*
X152453976Y-134058326D01*
X152501595Y-134010707D01*
X152596833Y-133963087D01*
X152834929Y-133963087D01*
X152977786Y-134010707D01*
X153930167Y-134963087D02*
X153358738Y-134963087D01*
X153644453Y-134963087D02*
X153644453Y-133963087D01*
X153549214Y-134105945D01*
X153453976Y-134201183D01*
X153358738Y-134248802D01*
X154501595Y-134391659D02*
X154406357Y-134344040D01*
X154358738Y-134296421D01*
X154311119Y-134201183D01*
X154311119Y-134153564D01*
X154358738Y-134058326D01*
X154406357Y-134010707D01*
X154501595Y-133963087D01*
X154692072Y-133963087D01*
X154787310Y-134010707D01*
X154834929Y-134058326D01*
X154882548Y-134153564D01*
X154882548Y-134201183D01*
X154834929Y-134296421D01*
X154787310Y-134344040D01*
X154692072Y-134391659D01*
X154501595Y-134391659D01*
X154406357Y-134439278D01*
X154358738Y-134486897D01*
X154311119Y-134582135D01*
X154311119Y-134772611D01*
X154358738Y-134867849D01*
X154406357Y-134915468D01*
X154501595Y-134963087D01*
X154692072Y-134963087D01*
X154787310Y-134915468D01*
X154834929Y-134867849D01*
X154882548Y-134772611D01*
X154882548Y-134582135D01*
X154834929Y-134486897D01*
X154787310Y-134439278D01*
X154692072Y-134391659D01*
G04 #@! TO.C,S19*
X156531357Y-155015468D02*
X156674214Y-155063087D01*
X156912310Y-155063087D01*
X157007548Y-155015468D01*
X157055167Y-154967849D01*
X157102786Y-154872611D01*
X157102786Y-154777373D01*
X157055167Y-154682135D01*
X157007548Y-154634516D01*
X156912310Y-154586897D01*
X156721833Y-154539278D01*
X156626595Y-154491659D01*
X156578976Y-154444040D01*
X156531357Y-154348802D01*
X156531357Y-154253564D01*
X156578976Y-154158326D01*
X156626595Y-154110707D01*
X156721833Y-154063087D01*
X156959929Y-154063087D01*
X157102786Y-154110707D01*
X158055167Y-155063087D02*
X157483738Y-155063087D01*
X157769453Y-155063087D02*
X157769453Y-154063087D01*
X157674214Y-154205945D01*
X157578976Y-154301183D01*
X157483738Y-154348802D01*
X158531357Y-155063087D02*
X158721833Y-155063087D01*
X158817072Y-155015468D01*
X158864691Y-154967849D01*
X158959929Y-154824992D01*
X159007548Y-154634516D01*
X159007548Y-154253564D01*
X158959929Y-154158326D01*
X158912310Y-154110707D01*
X158817072Y-154063087D01*
X158626595Y-154063087D01*
X158531357Y-154110707D01*
X158483738Y-154158326D01*
X158436119Y-154253564D01*
X158436119Y-154491659D01*
X158483738Y-154586897D01*
X158531357Y-154634516D01*
X158626595Y-154682135D01*
X158817072Y-154682135D01*
X158912310Y-154634516D01*
X158959929Y-154586897D01*
X159007548Y-154491659D01*
G04 #@! TO.C,S20*
X136756357Y-150540468D02*
X136899214Y-150588087D01*
X137137310Y-150588087D01*
X137232548Y-150540468D01*
X137280167Y-150492849D01*
X137327786Y-150397611D01*
X137327786Y-150302373D01*
X137280167Y-150207135D01*
X137232548Y-150159516D01*
X137137310Y-150111897D01*
X136946833Y-150064278D01*
X136851595Y-150016659D01*
X136803976Y-149969040D01*
X136756357Y-149873802D01*
X136756357Y-149778564D01*
X136803976Y-149683326D01*
X136851595Y-149635707D01*
X136946833Y-149588087D01*
X137184929Y-149588087D01*
X137327786Y-149635707D01*
X137708738Y-149683326D02*
X137756357Y-149635707D01*
X137851595Y-149588087D01*
X138089691Y-149588087D01*
X138184929Y-149635707D01*
X138232548Y-149683326D01*
X138280167Y-149778564D01*
X138280167Y-149873802D01*
X138232548Y-150016659D01*
X137661119Y-150588087D01*
X138280167Y-150588087D01*
X138899214Y-149588087D02*
X138994453Y-149588087D01*
X139089691Y-149635707D01*
X139137310Y-149683326D01*
X139184929Y-149778564D01*
X139232548Y-149969040D01*
X139232548Y-150207135D01*
X139184929Y-150397611D01*
X139137310Y-150492849D01*
X139089691Y-150540468D01*
X138994453Y-150588087D01*
X138899214Y-150588087D01*
X138803976Y-150540468D01*
X138756357Y-150492849D01*
X138708738Y-150397611D01*
X138661119Y-150207135D01*
X138661119Y-149969040D01*
X138708738Y-149778564D01*
X138756357Y-149683326D01*
X138803976Y-149635707D01*
X138899214Y-149588087D01*
G04 #@! TO.C,S21*
X141931357Y-170190468D02*
X142074214Y-170238087D01*
X142312310Y-170238087D01*
X142407548Y-170190468D01*
X142455167Y-170142849D01*
X142502786Y-170047611D01*
X142502786Y-169952373D01*
X142455167Y-169857135D01*
X142407548Y-169809516D01*
X142312310Y-169761897D01*
X142121833Y-169714278D01*
X142026595Y-169666659D01*
X141978976Y-169619040D01*
X141931357Y-169523802D01*
X141931357Y-169428564D01*
X141978976Y-169333326D01*
X142026595Y-169285707D01*
X142121833Y-169238087D01*
X142359929Y-169238087D01*
X142502786Y-169285707D01*
X142883738Y-169333326D02*
X142931357Y-169285707D01*
X143026595Y-169238087D01*
X143264691Y-169238087D01*
X143359929Y-169285707D01*
X143407548Y-169333326D01*
X143455167Y-169428564D01*
X143455167Y-169523802D01*
X143407548Y-169666659D01*
X142836119Y-170238087D01*
X143455167Y-170238087D01*
X144407548Y-170238087D02*
X143836119Y-170238087D01*
X144121833Y-170238087D02*
X144121833Y-169238087D01*
X144026595Y-169380945D01*
X143931357Y-169476183D01*
X143836119Y-169523802D01*
G04 #@! TO.C,S22*
X145631357Y-190215468D02*
X145774214Y-190263087D01*
X146012310Y-190263087D01*
X146107548Y-190215468D01*
X146155167Y-190167849D01*
X146202786Y-190072611D01*
X146202786Y-189977373D01*
X146155167Y-189882135D01*
X146107548Y-189834516D01*
X146012310Y-189786897D01*
X145821833Y-189739278D01*
X145726595Y-189691659D01*
X145678976Y-189644040D01*
X145631357Y-189548802D01*
X145631357Y-189453564D01*
X145678976Y-189358326D01*
X145726595Y-189310707D01*
X145821833Y-189263087D01*
X146059929Y-189263087D01*
X146202786Y-189310707D01*
X146583738Y-189358326D02*
X146631357Y-189310707D01*
X146726595Y-189263087D01*
X146964691Y-189263087D01*
X147059929Y-189310707D01*
X147107548Y-189358326D01*
X147155167Y-189453564D01*
X147155167Y-189548802D01*
X147107548Y-189691659D01*
X146536119Y-190263087D01*
X147155167Y-190263087D01*
X147536119Y-189358326D02*
X147583738Y-189310707D01*
X147678976Y-189263087D01*
X147917072Y-189263087D01*
X148012310Y-189310707D01*
X148059929Y-189358326D01*
X148107548Y-189453564D01*
X148107548Y-189548802D01*
X148059929Y-189691659D01*
X147488500Y-190263087D01*
X148107548Y-190263087D01*
G04 #@! TO.C,S23*
X148606357Y-210365468D02*
X148749214Y-210413087D01*
X148987310Y-210413087D01*
X149082548Y-210365468D01*
X149130167Y-210317849D01*
X149177786Y-210222611D01*
X149177786Y-210127373D01*
X149130167Y-210032135D01*
X149082548Y-209984516D01*
X148987310Y-209936897D01*
X148796833Y-209889278D01*
X148701595Y-209841659D01*
X148653976Y-209794040D01*
X148606357Y-209698802D01*
X148606357Y-209603564D01*
X148653976Y-209508326D01*
X148701595Y-209460707D01*
X148796833Y-209413087D01*
X149034929Y-209413087D01*
X149177786Y-209460707D01*
X149558738Y-209508326D02*
X149606357Y-209460707D01*
X149701595Y-209413087D01*
X149939691Y-209413087D01*
X150034929Y-209460707D01*
X150082548Y-209508326D01*
X150130167Y-209603564D01*
X150130167Y-209698802D01*
X150082548Y-209841659D01*
X149511119Y-210413087D01*
X150130167Y-210413087D01*
X150463500Y-209413087D02*
X151082548Y-209413087D01*
X150749214Y-209794040D01*
X150892072Y-209794040D01*
X150987310Y-209841659D01*
X151034929Y-209889278D01*
X151082548Y-209984516D01*
X151082548Y-210222611D01*
X151034929Y-210317849D01*
X150987310Y-210365468D01*
X150892072Y-210413087D01*
X150606357Y-210413087D01*
X150511119Y-210365468D01*
X150463500Y-210317849D01*
G04 #@! TO.C,S24*
X184881357Y-231215468D02*
X185024214Y-231263087D01*
X185262310Y-231263087D01*
X185357548Y-231215468D01*
X185405167Y-231167849D01*
X185452786Y-231072611D01*
X185452786Y-230977373D01*
X185405167Y-230882135D01*
X185357548Y-230834516D01*
X185262310Y-230786897D01*
X185071833Y-230739278D01*
X184976595Y-230691659D01*
X184928976Y-230644040D01*
X184881357Y-230548802D01*
X184881357Y-230453564D01*
X184928976Y-230358326D01*
X184976595Y-230310707D01*
X185071833Y-230263087D01*
X185309929Y-230263087D01*
X185452786Y-230310707D01*
X185833738Y-230358326D02*
X185881357Y-230310707D01*
X185976595Y-230263087D01*
X186214691Y-230263087D01*
X186309929Y-230310707D01*
X186357548Y-230358326D01*
X186405167Y-230453564D01*
X186405167Y-230548802D01*
X186357548Y-230691659D01*
X185786119Y-231263087D01*
X186405167Y-231263087D01*
X187262310Y-230596421D02*
X187262310Y-231263087D01*
X187024214Y-230215468D02*
X186786119Y-230929754D01*
X187405167Y-230929754D01*
G04 #@! TO.C,S25*
X187931357Y-251040468D02*
X188074214Y-251088087D01*
X188312310Y-251088087D01*
X188407548Y-251040468D01*
X188455167Y-250992849D01*
X188502786Y-250897611D01*
X188502786Y-250802373D01*
X188455167Y-250707135D01*
X188407548Y-250659516D01*
X188312310Y-250611897D01*
X188121833Y-250564278D01*
X188026595Y-250516659D01*
X187978976Y-250469040D01*
X187931357Y-250373802D01*
X187931357Y-250278564D01*
X187978976Y-250183326D01*
X188026595Y-250135707D01*
X188121833Y-250088087D01*
X188359929Y-250088087D01*
X188502786Y-250135707D01*
X188883738Y-250183326D02*
X188931357Y-250135707D01*
X189026595Y-250088087D01*
X189264691Y-250088087D01*
X189359929Y-250135707D01*
X189407548Y-250183326D01*
X189455167Y-250278564D01*
X189455167Y-250373802D01*
X189407548Y-250516659D01*
X188836119Y-251088087D01*
X189455167Y-251088087D01*
X190359929Y-250088087D02*
X189883738Y-250088087D01*
X189836119Y-250564278D01*
X189883738Y-250516659D01*
X189978976Y-250469040D01*
X190217072Y-250469040D01*
X190312310Y-250516659D01*
X190359929Y-250564278D01*
X190407548Y-250659516D01*
X190407548Y-250897611D01*
X190359929Y-250992849D01*
X190312310Y-251040468D01*
X190217072Y-251088087D01*
X189978976Y-251088087D01*
X189883738Y-251040468D01*
X189836119Y-250992849D01*
G04 #@! TO.C,S26*
X178231357Y-268840468D02*
X178374214Y-268888087D01*
X178612310Y-268888087D01*
X178707548Y-268840468D01*
X178755167Y-268792849D01*
X178802786Y-268697611D01*
X178802786Y-268602373D01*
X178755167Y-268507135D01*
X178707548Y-268459516D01*
X178612310Y-268411897D01*
X178421833Y-268364278D01*
X178326595Y-268316659D01*
X178278976Y-268269040D01*
X178231357Y-268173802D01*
X178231357Y-268078564D01*
X178278976Y-267983326D01*
X178326595Y-267935707D01*
X178421833Y-267888087D01*
X178659929Y-267888087D01*
X178802786Y-267935707D01*
X179183738Y-267983326D02*
X179231357Y-267935707D01*
X179326595Y-267888087D01*
X179564691Y-267888087D01*
X179659929Y-267935707D01*
X179707548Y-267983326D01*
X179755167Y-268078564D01*
X179755167Y-268173802D01*
X179707548Y-268316659D01*
X179136119Y-268888087D01*
X179755167Y-268888087D01*
X180612310Y-267888087D02*
X180421833Y-267888087D01*
X180326595Y-267935707D01*
X180278976Y-267983326D01*
X180183738Y-268126183D01*
X180136119Y-268316659D01*
X180136119Y-268697611D01*
X180183738Y-268792849D01*
X180231357Y-268840468D01*
X180326595Y-268888087D01*
X180517072Y-268888087D01*
X180612310Y-268840468D01*
X180659929Y-268792849D01*
X180707548Y-268697611D01*
X180707548Y-268459516D01*
X180659929Y-268364278D01*
X180612310Y-268316659D01*
X180517072Y-268269040D01*
X180326595Y-268269040D01*
X180231357Y-268316659D01*
X180183738Y-268364278D01*
X180136119Y-268459516D01*
G04 #@! TO.C,S27*
X158131357Y-268765468D02*
X158274214Y-268813087D01*
X158512310Y-268813087D01*
X158607548Y-268765468D01*
X158655167Y-268717849D01*
X158702786Y-268622611D01*
X158702786Y-268527373D01*
X158655167Y-268432135D01*
X158607548Y-268384516D01*
X158512310Y-268336897D01*
X158321833Y-268289278D01*
X158226595Y-268241659D01*
X158178976Y-268194040D01*
X158131357Y-268098802D01*
X158131357Y-268003564D01*
X158178976Y-267908326D01*
X158226595Y-267860707D01*
X158321833Y-267813087D01*
X158559929Y-267813087D01*
X158702786Y-267860707D01*
X159083738Y-267908326D02*
X159131357Y-267860707D01*
X159226595Y-267813087D01*
X159464691Y-267813087D01*
X159559929Y-267860707D01*
X159607548Y-267908326D01*
X159655167Y-268003564D01*
X159655167Y-268098802D01*
X159607548Y-268241659D01*
X159036119Y-268813087D01*
X159655167Y-268813087D01*
X159988500Y-267813087D02*
X160655167Y-267813087D01*
X160226595Y-268813087D01*
G04 #@! TO.C,S28*
X148381357Y-251090468D02*
X148524214Y-251138087D01*
X148762310Y-251138087D01*
X148857548Y-251090468D01*
X148905167Y-251042849D01*
X148952786Y-250947611D01*
X148952786Y-250852373D01*
X148905167Y-250757135D01*
X148857548Y-250709516D01*
X148762310Y-250661897D01*
X148571833Y-250614278D01*
X148476595Y-250566659D01*
X148428976Y-250519040D01*
X148381357Y-250423802D01*
X148381357Y-250328564D01*
X148428976Y-250233326D01*
X148476595Y-250185707D01*
X148571833Y-250138087D01*
X148809929Y-250138087D01*
X148952786Y-250185707D01*
X149333738Y-250233326D02*
X149381357Y-250185707D01*
X149476595Y-250138087D01*
X149714691Y-250138087D01*
X149809929Y-250185707D01*
X149857548Y-250233326D01*
X149905167Y-250328564D01*
X149905167Y-250423802D01*
X149857548Y-250566659D01*
X149286119Y-251138087D01*
X149905167Y-251138087D01*
X150476595Y-250566659D02*
X150381357Y-250519040D01*
X150333738Y-250471421D01*
X150286119Y-250376183D01*
X150286119Y-250328564D01*
X150333738Y-250233326D01*
X150381357Y-250185707D01*
X150476595Y-250138087D01*
X150667072Y-250138087D01*
X150762310Y-250185707D01*
X150809929Y-250233326D01*
X150857548Y-250328564D01*
X150857548Y-250376183D01*
X150809929Y-250471421D01*
X150762310Y-250519040D01*
X150667072Y-250566659D01*
X150476595Y-250566659D01*
X150381357Y-250614278D01*
X150333738Y-250661897D01*
X150286119Y-250757135D01*
X150286119Y-250947611D01*
X150333738Y-251042849D01*
X150381357Y-251090468D01*
X150476595Y-251138087D01*
X150667072Y-251138087D01*
X150762310Y-251090468D01*
X150809929Y-251042849D01*
X150857548Y-250947611D01*
X150857548Y-250757135D01*
X150809929Y-250661897D01*
X150762310Y-250614278D01*
X150667072Y-250566659D01*
G04 #@! TO.C,S29*
X168156357Y-247240468D02*
X168299214Y-247288087D01*
X168537310Y-247288087D01*
X168632548Y-247240468D01*
X168680167Y-247192849D01*
X168727786Y-247097611D01*
X168727786Y-247002373D01*
X168680167Y-246907135D01*
X168632548Y-246859516D01*
X168537310Y-246811897D01*
X168346833Y-246764278D01*
X168251595Y-246716659D01*
X168203976Y-246669040D01*
X168156357Y-246573802D01*
X168156357Y-246478564D01*
X168203976Y-246383326D01*
X168251595Y-246335707D01*
X168346833Y-246288087D01*
X168584929Y-246288087D01*
X168727786Y-246335707D01*
X169108738Y-246383326D02*
X169156357Y-246335707D01*
X169251595Y-246288087D01*
X169489691Y-246288087D01*
X169584929Y-246335707D01*
X169632548Y-246383326D01*
X169680167Y-246478564D01*
X169680167Y-246573802D01*
X169632548Y-246716659D01*
X169061119Y-247288087D01*
X169680167Y-247288087D01*
X170156357Y-247288087D02*
X170346833Y-247288087D01*
X170442072Y-247240468D01*
X170489691Y-247192849D01*
X170584929Y-247049992D01*
X170632548Y-246859516D01*
X170632548Y-246478564D01*
X170584929Y-246383326D01*
X170537310Y-246335707D01*
X170442072Y-246288087D01*
X170251595Y-246288087D01*
X170156357Y-246335707D01*
X170108738Y-246383326D01*
X170061119Y-246478564D01*
X170061119Y-246716659D01*
X170108738Y-246811897D01*
X170156357Y-246859516D01*
X170251595Y-246907135D01*
X170442072Y-246907135D01*
X170537310Y-246859516D01*
X170584929Y-246811897D01*
X170632548Y-246716659D01*
G04 #@! TO.C,S30*
X148806357Y-231015468D02*
X148949214Y-231063087D01*
X149187310Y-231063087D01*
X149282548Y-231015468D01*
X149330167Y-230967849D01*
X149377786Y-230872611D01*
X149377786Y-230777373D01*
X149330167Y-230682135D01*
X149282548Y-230634516D01*
X149187310Y-230586897D01*
X148996833Y-230539278D01*
X148901595Y-230491659D01*
X148853976Y-230444040D01*
X148806357Y-230348802D01*
X148806357Y-230253564D01*
X148853976Y-230158326D01*
X148901595Y-230110707D01*
X148996833Y-230063087D01*
X149234929Y-230063087D01*
X149377786Y-230110707D01*
X149711119Y-230063087D02*
X150330167Y-230063087D01*
X149996833Y-230444040D01*
X150139691Y-230444040D01*
X150234929Y-230491659D01*
X150282548Y-230539278D01*
X150330167Y-230634516D01*
X150330167Y-230872611D01*
X150282548Y-230967849D01*
X150234929Y-231015468D01*
X150139691Y-231063087D01*
X149853976Y-231063087D01*
X149758738Y-231015468D01*
X149711119Y-230967849D01*
X150949214Y-230063087D02*
X151044453Y-230063087D01*
X151139691Y-230110707D01*
X151187310Y-230158326D01*
X151234929Y-230253564D01*
X151282548Y-230444040D01*
X151282548Y-230682135D01*
X151234929Y-230872611D01*
X151187310Y-230967849D01*
X151139691Y-231015468D01*
X151044453Y-231063087D01*
X150949214Y-231063087D01*
X150853976Y-231015468D01*
X150806357Y-230967849D01*
X150758738Y-230872611D01*
X150711119Y-230682135D01*
X150711119Y-230444040D01*
X150758738Y-230253564D01*
X150806357Y-230158326D01*
X150853976Y-230110707D01*
X150949214Y-230063087D01*
G04 #@! TO.C,S31*
X166881357Y-222615468D02*
X167024214Y-222663087D01*
X167262310Y-222663087D01*
X167357548Y-222615468D01*
X167405167Y-222567849D01*
X167452786Y-222472611D01*
X167452786Y-222377373D01*
X167405167Y-222282135D01*
X167357548Y-222234516D01*
X167262310Y-222186897D01*
X167071833Y-222139278D01*
X166976595Y-222091659D01*
X166928976Y-222044040D01*
X166881357Y-221948802D01*
X166881357Y-221853564D01*
X166928976Y-221758326D01*
X166976595Y-221710707D01*
X167071833Y-221663087D01*
X167309929Y-221663087D01*
X167452786Y-221710707D01*
X167786119Y-221663087D02*
X168405167Y-221663087D01*
X168071833Y-222044040D01*
X168214691Y-222044040D01*
X168309929Y-222091659D01*
X168357548Y-222139278D01*
X168405167Y-222234516D01*
X168405167Y-222472611D01*
X168357548Y-222567849D01*
X168309929Y-222615468D01*
X168214691Y-222663087D01*
X167928976Y-222663087D01*
X167833738Y-222615468D01*
X167786119Y-222567849D01*
X169357548Y-222663087D02*
X168786119Y-222663087D01*
X169071833Y-222663087D02*
X169071833Y-221663087D01*
X168976595Y-221805945D01*
X168881357Y-221901183D01*
X168786119Y-221948802D01*
G04 #@! TD*
M02*
