M48
;DRILL file {KiCad (5.0.0)} date 01/29/20 13:43:48
;FORMAT={-:-/ absolute / metric / decimal}
FMAT,2
METRIC,TZ
T1C0.370
T2C0.400
T3C0.500
%
G90
G05
M71
T1
X142.344Y-87.786
X148.944Y-93.411
X150.094Y-167.036
X153.419Y-252.261
X155.069Y-93.111
X157.019Y-134.061
X161.469Y-94.961
X165.444Y-134.061
X165.494Y-160.836
X165.689Y-179.451
X165.789Y-182.051
X165.939Y-162.601
X166.339Y-172.301
X166.889Y-165.901
X167.169Y-161.386
X167.569Y-171.186
X167.689Y-177.051
X168.219Y-171.661
X168.244Y-160.611
X168.689Y-175.151
X168.694Y-152.711
X168.789Y-180.851
X168.794Y-172.186
X168.839Y-167.451
X168.889Y-165.476
X169.494Y-171.636
X169.944Y-161.111
X169.989Y-189.801
X170.309Y-139.211
X171.214Y-156.376
X172.264Y-153.976
X172.489Y-171.488
X172.644Y-130.061
X173.159Y-180.021
X173.289Y-168.981
X173.889Y-164.451
X173.939Y-160.301
X174.044Y-149.161
X174.339Y-165.501
X174.894Y-149.911
X174.939Y-145.461
X175.244Y-155.036
X175.409Y-175.081
X175.469Y-152.336
X175.539Y-183.851
X175.739Y-182.901
X176.514Y-162.176
X176.729Y-147.721
X176.869Y-153.411
X176.989Y-177.851
X177.064Y-158.976
X177.139Y-140.401
X177.294Y-143.836
X177.394Y-152.561
X177.659Y-181.341
X177.694Y-144.361
X177.839Y-148.301
X178.079Y-140.392
X178.089Y-166.901
X178.114Y-141.176
X178.389Y-161.901
X178.494Y-144.361
X178.644Y-145.311
X178.789Y-166.601
X179.159Y-157.031
X179.289Y-167.401
X179.544Y-149.211
X179.909Y-152.207
X179.939Y-156.191
X180.089Y-166.801
X180.139Y-191.101
X180.389Y-135.301
X180.459Y-160.681
X180.564Y-153.676
X180.749Y-140.621
X181.06Y-172.401
X181.244Y-145.661
X181.419Y-143.886
X181.489Y-152.101
X181.689Y-190.901
X182.089Y-152.801
X182.389Y-156.501
X182.389Y-188.801
X182.589Y-202.551
X182.68Y-140.287
X183.144Y-144.561
X183.289Y-203.751
X183.389Y-152.401
X183.489Y-163.231
X183.519Y-127.586
X183.531Y-149.919
X183.579Y-150.768
X183.659Y-171.821
X183.789Y-168.801
X184.089Y-152.201
X184.729Y-159.111
X184.827Y-142.698
X185.044Y-162.311
X185.189Y-152.001
X185.269Y-178.686
X185.644Y-130.211
X185.719Y-182.811
X185.939Y-174.261
X186.149Y-153.841
X186.389Y-145.501
X186.519Y-137.511
X186.769Y-144.891
X186.829Y-154.876
X187.044Y-132.036
X187.044Y-135.636
X187.139Y-185.601
X187.362Y-158.779
X187.469Y-144.401
X187.589Y-160.201
X188.019Y-153.671
X188.485Y-185.151
X189.379Y-189.021
X189.669Y-168.211
X189.814Y-169.667
X189.989Y-140.376
X190.214Y-143.451
X190.547Y-142.815
X190.744Y-140.546
X191.195Y-141.082
X191.494Y-161.286
X191.529Y-176.281
X191.619Y-155.461
X191.639Y-171.061
X191.719Y-157.061
X192.639Y-161.291
X192.969Y-139.851
X193.319Y-166.781
X193.329Y-165.851
X197.719Y-108.036
X201.994Y-88.511
T2
X130.969Y-108.711
X132.769Y-149.686
X135.894Y-129.261
X140.144Y-113.886
X140.194Y-107.461
X142.119Y-126.286
X143.469Y-132.411
X143.819Y-73.936
X144.994Y-147.686
X148.519Y-153.361
X149.019Y-213.186
X149.269Y-133.661
X149.594Y-72.086
X150.079Y-233.121
X151.619Y-166.636
X152.069Y-192.236
X154.319Y-174.586
X154.369Y-69.386
X154.569Y-188.386
X156.044Y-193.636
X156.719Y-228.861
X157.194Y-156.061
X157.416Y-136.786
X157.769Y-247.711
X158.069Y-73.886
X158.619Y-173.436
X158.694Y-153.886
X158.944Y-57.611
X161.044Y-132.436
X161.144Y-136.786
X162.594Y-232.361
X162.719Y-204.536
X163.194Y-137.611
X163.769Y-114.211
X163.794Y-55.836
X163.894Y-91.661
X163.994Y-203.136
X164.119Y-104.536
X164.119Y-201.886
X164.219Y-200.461
X164.544Y-251.636
X167.044Y-83.686
X167.619Y-201.861
X167.844Y-204.536
X168.119Y-53.611
X168.269Y-200.436
X168.944Y-260.561
X170.144Y-204.561
X170.169Y-258.161
X170.294Y-203.111
X172.844Y-43.486
X173.739Y-186.901
X173.769Y-108.186
X173.919Y-59.561
X174.194Y-74.511
X174.294Y-153.086
X175.544Y-246.761
X176.594Y-221.786
X176.994Y-209.836
X178.089Y-201.601
X178.389Y-192.901
X178.569Y-109.761
X178.919Y-62.836
X179.619Y-86.936
X179.794Y-242.186
X180.789Y-199.251
X181.239Y-174.301
X181.244Y-127.411
X182.267Y-181.271
X182.689Y-193.401
X182.889Y-199.901
X183.321Y-182.593
X184.189Y-205.201
X184.37Y-187.081
X184.969Y-42.611
X185.739Y-190.751
X186.233Y-195.331
X186.411Y-200.428
X186.519Y-94.111
X186.839Y-179.851
X186.939Y-189.751
X188.644Y-256.961
X188.689Y-134.901
X190.259Y-179.971
X191.719Y-205.411
X191.869Y-214.736
X192.619Y-83.561
X192.739Y-160.128
X192.744Y-45.711
X192.769Y-227.936
X193.189Y-134.901
X193.219Y-52.561
X195.119Y-61.611
X195.294Y-249.761
X195.344Y-234.611
X201.594Y-126.686
X203.769Y-116.386
X205.619Y-45.436
X210.469Y-52.636
X210.569Y-66.286
X210.594Y-107.986
X210.769Y-94.436
X211.369Y-86.711
X211.519Y-72.986
T3
X191.71Y-185.653
X191.779Y-186.651
T0
M30
