G04 #@! TF.GenerationSoftware,KiCad,Pcbnew,(5.0.0)*
G04 #@! TF.CreationDate,2018-11-24T01:34:47+01:00*
G04 #@! TF.ProjectId,Insole_flex_32s,496E736F6C655F666C65785F3332732E,rev?*
G04 #@! TF.SameCoordinates,Original*
G04 #@! TF.FileFunction,Legend,Top*
G04 #@! TF.FilePolarity,Positive*
%FSLAX46Y46*%
G04 Gerber Fmt 4.6, Leading zero omitted, Abs format (unit mm)*
G04 Created by KiCad (PCBNEW (5.0.0)) date 11/24/18 01:34:47*
%MOMM*%
%LPD*%
G01*
G04 APERTURE LIST*
%ADD10C,0.100000*%
%ADD11C,0.010000*%
%ADD12C,0.150000*%
G04 APERTURE END LIST*
D10*
G04 #@! TO.C,J1*
X67650000Y-197500000D02*
X67650000Y-201500000D01*
X49650000Y-197500000D02*
X67650000Y-197500000D01*
X49650000Y-201500000D02*
X49650000Y-197500000D01*
D11*
G04 #@! TO.C,G\002A\002A\002A*
G36*
X61417347Y-181323686D02*
X61572972Y-181327883D01*
X61726381Y-181334818D01*
X61874841Y-181344432D01*
X62015620Y-181356666D01*
X62145986Y-181371460D01*
X62196486Y-181378351D01*
X62388005Y-181411230D01*
X62568114Y-181453035D01*
X62736893Y-181503824D01*
X62894423Y-181563653D01*
X63040782Y-181632579D01*
X63176050Y-181710660D01*
X63300306Y-181797952D01*
X63413632Y-181894513D01*
X63516105Y-182000399D01*
X63607805Y-182115668D01*
X63688813Y-182240376D01*
X63759208Y-182374580D01*
X63819069Y-182518338D01*
X63829398Y-182547135D01*
X63866300Y-182667726D01*
X63896783Y-182799260D01*
X63920531Y-182939511D01*
X63937229Y-183086253D01*
X63946559Y-183237260D01*
X63948286Y-183384543D01*
X63948235Y-183446641D01*
X63949886Y-183494448D01*
X63953237Y-183527916D01*
X63955855Y-183540377D01*
X63959534Y-183556134D01*
X63962345Y-183575185D01*
X63964287Y-183598865D01*
X63965363Y-183628509D01*
X63965575Y-183665454D01*
X63964923Y-183711034D01*
X63963410Y-183766586D01*
X63961037Y-183833444D01*
X63957805Y-183912946D01*
X63956343Y-183946971D01*
X63954667Y-183988882D01*
X63953161Y-184034089D01*
X63951818Y-184083429D01*
X63950630Y-184137740D01*
X63949590Y-184197858D01*
X63948691Y-184264620D01*
X63947927Y-184338864D01*
X63947290Y-184421427D01*
X63946773Y-184513146D01*
X63946369Y-184614857D01*
X63946071Y-184727399D01*
X63945872Y-184851608D01*
X63945765Y-184988322D01*
X63945742Y-185138376D01*
X63945756Y-185202457D01*
X63945875Y-185331646D01*
X63946152Y-185462178D01*
X63946577Y-185593241D01*
X63947139Y-185724023D01*
X63947830Y-185853710D01*
X63948641Y-185981490D01*
X63949561Y-186106552D01*
X63950582Y-186228082D01*
X63951694Y-186345267D01*
X63952887Y-186457296D01*
X63954153Y-186563356D01*
X63955481Y-186662634D01*
X63956862Y-186754318D01*
X63958287Y-186837595D01*
X63959747Y-186911653D01*
X63961232Y-186975680D01*
X63962732Y-187028862D01*
X63964238Y-187070387D01*
X63965741Y-187099444D01*
X63967231Y-187115218D01*
X63967993Y-187117898D01*
X63977680Y-187119050D01*
X63999158Y-187116705D01*
X64030270Y-187111373D01*
X64068856Y-187103566D01*
X64112759Y-187093793D01*
X64159820Y-187082566D01*
X64207881Y-187070396D01*
X64254784Y-187057794D01*
X64298370Y-187045270D01*
X64336482Y-187033336D01*
X64360252Y-187025050D01*
X64456413Y-186984391D01*
X64541221Y-186938120D01*
X64614086Y-186886689D01*
X64674418Y-186830552D01*
X64721625Y-186770161D01*
X64743972Y-186730923D01*
X64769429Y-186679286D01*
X64859934Y-185743114D01*
X64871072Y-185627815D01*
X64881817Y-185516405D01*
X64892086Y-185409748D01*
X64901798Y-185308709D01*
X64910869Y-185214153D01*
X64919217Y-185126945D01*
X64926760Y-185047950D01*
X64933414Y-184978032D01*
X64939097Y-184918057D01*
X64943728Y-184868890D01*
X64947222Y-184831395D01*
X64949498Y-184806437D01*
X64950474Y-184794882D01*
X64950505Y-184794243D01*
X64951847Y-184788923D01*
X64957360Y-184785325D01*
X64969372Y-184783120D01*
X64990211Y-184781979D01*
X65022206Y-184781573D01*
X65040484Y-184781543D01*
X65125197Y-184777950D01*
X65206170Y-184766729D01*
X65284861Y-184747216D01*
X65362724Y-184718747D01*
X65441214Y-184680660D01*
X65521787Y-184632290D01*
X65605899Y-184572974D01*
X65695005Y-184502049D01*
X65742567Y-184461430D01*
X65792714Y-184418301D01*
X65833323Y-184385235D01*
X65865374Y-184362290D01*
X65889850Y-184349528D01*
X65907729Y-184347008D01*
X65919992Y-184354791D01*
X65927621Y-184372938D01*
X65931594Y-184401508D01*
X65932894Y-184440561D01*
X65932751Y-184473114D01*
X65932108Y-184488462D01*
X65930423Y-184517416D01*
X65927761Y-184559110D01*
X65924187Y-184612679D01*
X65919764Y-184677256D01*
X65914558Y-184751975D01*
X65908632Y-184835971D01*
X65902051Y-184928377D01*
X65894878Y-185028328D01*
X65887179Y-185134957D01*
X65879018Y-185247399D01*
X65870458Y-185364788D01*
X65861565Y-185486258D01*
X65852402Y-185610943D01*
X65843034Y-185737976D01*
X65833524Y-185866493D01*
X65823939Y-185995626D01*
X65814341Y-186124511D01*
X65804794Y-186252280D01*
X65795364Y-186378069D01*
X65786115Y-186501011D01*
X65777111Y-186620241D01*
X65768415Y-186734891D01*
X65760093Y-186844098D01*
X65752209Y-186946993D01*
X65744827Y-187042712D01*
X65738011Y-187130389D01*
X65731826Y-187209158D01*
X65726336Y-187278152D01*
X65721605Y-187336505D01*
X65717697Y-187383353D01*
X65714678Y-187417828D01*
X65712610Y-187439066D01*
X65712359Y-187441286D01*
X65694295Y-187559479D01*
X65668648Y-187667703D01*
X65634629Y-187768810D01*
X65600235Y-187847788D01*
X65549214Y-187940148D01*
X65488367Y-188025141D01*
X65417254Y-188103049D01*
X65335434Y-188174156D01*
X65242466Y-188238744D01*
X65137910Y-188297098D01*
X65021325Y-188349500D01*
X64892271Y-188396233D01*
X64750307Y-188437580D01*
X64642058Y-188463684D01*
X64573882Y-188477997D01*
X64495925Y-188492902D01*
X64412852Y-188507600D01*
X64329330Y-188521289D01*
X64250024Y-188533170D01*
X64190386Y-188541129D01*
X64151474Y-188546824D01*
X64126745Y-188552497D01*
X64116349Y-188558110D01*
X64116000Y-188559330D01*
X64116798Y-188567537D01*
X64119128Y-188589292D01*
X64122892Y-188623721D01*
X64127991Y-188669948D01*
X64134330Y-188727100D01*
X64141809Y-188794302D01*
X64150332Y-188870680D01*
X64159801Y-188955358D01*
X64170119Y-189047463D01*
X64181187Y-189146119D01*
X64192908Y-189250453D01*
X64205184Y-189359589D01*
X64217704Y-189470742D01*
X64234225Y-189617346D01*
X64249201Y-189750315D01*
X64262706Y-189870437D01*
X64274817Y-189978500D01*
X64285610Y-190075292D01*
X64295160Y-190161603D01*
X64303544Y-190238219D01*
X64310837Y-190305929D01*
X64317115Y-190365521D01*
X64322456Y-190417784D01*
X64326933Y-190463505D01*
X64330624Y-190503473D01*
X64333604Y-190538477D01*
X64335949Y-190569303D01*
X64337736Y-190596741D01*
X64339039Y-190621578D01*
X64339936Y-190644603D01*
X64340502Y-190666605D01*
X64340812Y-190688370D01*
X64340944Y-190710688D01*
X64340972Y-190734346D01*
X64340972Y-190749938D01*
X64336499Y-190902157D01*
X64322987Y-191043340D01*
X64300291Y-191173917D01*
X64268270Y-191294322D01*
X64226781Y-191404983D01*
X64175679Y-191506335D01*
X64114824Y-191598806D01*
X64044071Y-191682830D01*
X64025762Y-191701625D01*
X63945275Y-191773400D01*
X63856660Y-191835811D01*
X63759308Y-191889084D01*
X63652614Y-191933447D01*
X63535970Y-191969125D01*
X63408768Y-191996345D01*
X63270403Y-192015334D01*
X63161686Y-192024148D01*
X63014657Y-192027603D01*
X62876756Y-192019804D01*
X62747907Y-192000719D01*
X62628032Y-191970316D01*
X62517056Y-191928562D01*
X62414901Y-191875426D01*
X62321492Y-191810876D01*
X62236751Y-191734880D01*
X62160603Y-191647406D01*
X62118407Y-191588500D01*
X62068966Y-191508307D01*
X62025329Y-191424521D01*
X61987103Y-191335766D01*
X61953895Y-191240667D01*
X61925311Y-191137850D01*
X61900958Y-191025940D01*
X61880441Y-190903562D01*
X61863368Y-190769342D01*
X61852564Y-190659828D01*
X61850746Y-190641310D01*
X61849291Y-190632028D01*
X61848151Y-190632801D01*
X61847280Y-190644446D01*
X61846631Y-190667781D01*
X61846156Y-190703626D01*
X61845809Y-190752797D01*
X61845681Y-190779571D01*
X61844447Y-191067952D01*
X61843269Y-191342157D01*
X61842145Y-191602526D01*
X61841074Y-191849398D01*
X61840054Y-192083111D01*
X61839083Y-192304006D01*
X61838159Y-192512421D01*
X61837281Y-192708694D01*
X61836447Y-192893166D01*
X61835654Y-193066174D01*
X61834902Y-193228058D01*
X61834189Y-193379158D01*
X61833512Y-193519811D01*
X61832870Y-193650357D01*
X61832261Y-193771136D01*
X61831684Y-193882485D01*
X61831136Y-193984745D01*
X61830616Y-194078253D01*
X61830121Y-194163350D01*
X61829652Y-194240373D01*
X61829204Y-194309663D01*
X61828778Y-194371558D01*
X61828370Y-194426397D01*
X61827979Y-194474519D01*
X61827604Y-194516264D01*
X61827242Y-194551969D01*
X61826892Y-194581975D01*
X61826553Y-194606620D01*
X61826221Y-194626243D01*
X61825896Y-194641183D01*
X61825576Y-194651780D01*
X61825358Y-194656700D01*
X61821346Y-194731086D01*
X61307968Y-194731086D01*
X61216021Y-194731014D01*
X61123078Y-194730807D01*
X61031000Y-194730477D01*
X60941652Y-194730036D01*
X60856897Y-194729497D01*
X60778596Y-194728872D01*
X60708614Y-194728173D01*
X60648812Y-194727413D01*
X60601054Y-194726604D01*
X60588395Y-194726331D01*
X60382200Y-194721577D01*
X60384500Y-194064117D01*
X60384749Y-193973320D01*
X60384912Y-193869660D01*
X60384992Y-193754786D01*
X60384990Y-193630350D01*
X60384910Y-193498002D01*
X60384754Y-193359392D01*
X60384524Y-193216171D01*
X60384225Y-193069990D01*
X60383857Y-192922499D01*
X60383424Y-192775347D01*
X60382928Y-192630187D01*
X60382372Y-192488668D01*
X60381796Y-192360048D01*
X60376791Y-191313439D01*
X60325067Y-191356508D01*
X60297483Y-191379662D01*
X60269910Y-191403115D01*
X60247237Y-191422701D01*
X60242313Y-191427031D01*
X60211282Y-191454486D01*
X60204331Y-192851486D01*
X60203614Y-192996717D01*
X60202916Y-193140294D01*
X60202241Y-193281349D01*
X60201593Y-193419013D01*
X60200975Y-193552420D01*
X60200391Y-193680699D01*
X60199845Y-193802984D01*
X60199341Y-193918406D01*
X60198883Y-194026097D01*
X60198473Y-194125189D01*
X60198117Y-194214813D01*
X60197817Y-194294102D01*
X60197578Y-194362187D01*
X60197403Y-194418200D01*
X60197296Y-194461273D01*
X60197261Y-194486157D01*
X60197143Y-194723828D01*
X59718172Y-194723828D01*
X59718172Y-193221600D01*
X59718159Y-193075050D01*
X59718124Y-192932401D01*
X59718065Y-192794328D01*
X59717986Y-192661506D01*
X59717886Y-192534611D01*
X59717767Y-192414318D01*
X59717630Y-192301302D01*
X59717476Y-192196239D01*
X59717307Y-192099803D01*
X59717124Y-192012670D01*
X59716927Y-191935516D01*
X59716718Y-191869016D01*
X59716498Y-191813845D01*
X59716269Y-191770678D01*
X59716030Y-191740190D01*
X59715785Y-191723058D01*
X59715604Y-191719371D01*
X59708310Y-191721820D01*
X59689762Y-191728597D01*
X59662267Y-191738843D01*
X59628126Y-191751703D01*
X59601304Y-191761879D01*
X59559000Y-191777790D01*
X59517002Y-191793265D01*
X59479116Y-191806922D01*
X59449149Y-191817380D01*
X59438772Y-191820834D01*
X59413192Y-191829557D01*
X59393110Y-191837220D01*
X59382506Y-191842294D01*
X59382107Y-191842611D01*
X59381816Y-191851081D01*
X59384710Y-191871177D01*
X59390332Y-191900476D01*
X59398228Y-191936552D01*
X59405442Y-191966899D01*
X59422403Y-192038262D01*
X59436044Y-192101722D01*
X59446708Y-192160331D01*
X59454739Y-192217137D01*
X59460480Y-192275192D01*
X59464275Y-192337546D01*
X59466467Y-192407249D01*
X59467401Y-192487352D01*
X59467493Y-192517657D01*
X59467477Y-192583405D01*
X59467143Y-192637128D01*
X59466367Y-192681313D01*
X59465023Y-192718447D01*
X59462985Y-192751019D01*
X59460127Y-192781516D01*
X59456325Y-192812426D01*
X59451453Y-192846236D01*
X59450657Y-192851486D01*
X59415789Y-193033964D01*
X59367752Y-193210444D01*
X59306612Y-193380772D01*
X59232438Y-193544795D01*
X59145298Y-193702360D01*
X59045258Y-193853316D01*
X58954456Y-193971078D01*
X58919764Y-194011082D01*
X58876903Y-194057133D01*
X58828625Y-194106546D01*
X58777680Y-194156636D01*
X58726819Y-194204716D01*
X58678794Y-194248103D01*
X58636356Y-194284111D01*
X58622343Y-194295241D01*
X58474893Y-194400787D01*
X58322369Y-194492736D01*
X58164746Y-194571095D01*
X58002002Y-194635874D01*
X57834113Y-194687083D01*
X57661055Y-194724730D01*
X57482806Y-194748825D01*
X57439792Y-194752550D01*
X57360665Y-194757045D01*
X57279738Y-194758686D01*
X57203224Y-194757410D01*
X57163657Y-194755332D01*
X56989024Y-194737349D01*
X56821983Y-194707730D01*
X56660884Y-194666024D01*
X56504073Y-194611783D01*
X56349898Y-194544557D01*
X56303686Y-194521676D01*
X56235938Y-194485109D01*
X56162917Y-194442036D01*
X56088753Y-194395113D01*
X56017571Y-194346999D01*
X55953502Y-194300350D01*
X55923922Y-194277195D01*
X55800031Y-194168426D01*
X55682753Y-194047919D01*
X55573550Y-193917503D01*
X55473887Y-193779013D01*
X55385230Y-193634279D01*
X55336578Y-193542506D01*
X55276389Y-193413492D01*
X55226047Y-193286460D01*
X55184495Y-193157946D01*
X55150674Y-193024487D01*
X55123527Y-192882619D01*
X55112194Y-192807943D01*
X55107751Y-192766228D01*
X55104272Y-192713333D01*
X55101764Y-192652159D01*
X55100232Y-192585603D01*
X55099681Y-192516563D01*
X55099767Y-192503027D01*
X56614083Y-192503027D01*
X56614925Y-192546686D01*
X56623262Y-192693496D01*
X56638626Y-192834485D01*
X56660705Y-192968963D01*
X56689184Y-193096243D01*
X56723750Y-193215636D01*
X56764088Y-193326453D01*
X56809886Y-193428007D01*
X56860830Y-193519609D01*
X56916607Y-193600570D01*
X56976901Y-193670203D01*
X57041401Y-193727820D01*
X57109791Y-193772731D01*
X57181760Y-193804249D01*
X57189057Y-193806612D01*
X57219561Y-193812668D01*
X57258961Y-193815625D01*
X57301982Y-193815523D01*
X57343351Y-193812400D01*
X57377793Y-193806296D01*
X57381869Y-193805175D01*
X57445018Y-193779722D01*
X57507801Y-193740867D01*
X57569124Y-193689707D01*
X57627891Y-193627336D01*
X57683006Y-193554848D01*
X57733374Y-193473338D01*
X57755170Y-193432075D01*
X57804340Y-193323861D01*
X57846460Y-193208966D01*
X57882008Y-193085713D01*
X57911459Y-192952424D01*
X57935290Y-192807423D01*
X57937824Y-192788940D01*
X57941969Y-192750162D01*
X57945294Y-192702961D01*
X57947821Y-192649158D01*
X57949567Y-192590573D01*
X57950555Y-192529025D01*
X57950804Y-192466334D01*
X57950334Y-192404320D01*
X57949165Y-192344803D01*
X57947318Y-192289604D01*
X57944812Y-192240542D01*
X57941668Y-192199437D01*
X57937907Y-192168108D01*
X57933547Y-192148377D01*
X57930668Y-192142877D01*
X57922638Y-192142355D01*
X57902605Y-192143118D01*
X57873010Y-192145015D01*
X57836291Y-192147894D01*
X57804851Y-192150672D01*
X57690214Y-192160757D01*
X57579503Y-192169386D01*
X57469903Y-192176704D01*
X57358600Y-192182859D01*
X57242778Y-192187998D01*
X57119623Y-192192268D01*
X56986319Y-192195816D01*
X56907936Y-192197507D01*
X56846297Y-192198848D01*
X56789282Y-192200294D01*
X56738506Y-192201787D01*
X56695582Y-192203272D01*
X56662126Y-192204691D01*
X56639751Y-192205989D01*
X56630071Y-192207108D01*
X56629833Y-192207234D01*
X56626605Y-192217385D01*
X56623536Y-192239767D01*
X56620726Y-192272096D01*
X56618277Y-192312089D01*
X56616287Y-192357462D01*
X56614858Y-192405931D01*
X56614090Y-192455214D01*
X56614083Y-192503027D01*
X55099767Y-192503027D01*
X55100117Y-192447939D01*
X55101545Y-192382627D01*
X55103971Y-192323529D01*
X55107400Y-192273540D01*
X55111118Y-192240308D01*
X55121308Y-192169788D01*
X55102897Y-192166233D01*
X55090484Y-192164994D01*
X55065911Y-192163494D01*
X55031529Y-192161840D01*
X54989686Y-192160140D01*
X54942734Y-192158504D01*
X54919386Y-192157782D01*
X54754286Y-192152886D01*
X54754286Y-194709314D01*
X54333412Y-194709314D01*
X54331577Y-193415728D01*
X54329743Y-192122143D01*
X54244333Y-192115629D01*
X54210778Y-192113317D01*
X54182921Y-192111866D01*
X54163705Y-192111395D01*
X54156095Y-192112001D01*
X54155768Y-192119443D01*
X54155394Y-192140670D01*
X54154976Y-192174954D01*
X54154519Y-192221566D01*
X54154027Y-192279776D01*
X54153506Y-192348856D01*
X54152959Y-192428077D01*
X54152391Y-192516711D01*
X54151807Y-192614027D01*
X54151212Y-192719299D01*
X54150610Y-192831795D01*
X54150005Y-192950789D01*
X54149402Y-193075550D01*
X54148806Y-193205350D01*
X54148222Y-193339461D01*
X54147918Y-193412100D01*
X54142569Y-194709314D01*
X52693257Y-194709314D01*
X52693183Y-192965786D01*
X52693168Y-192775565D01*
X52693139Y-192599201D01*
X52693090Y-192436035D01*
X52693017Y-192285412D01*
X52692915Y-192146671D01*
X52692780Y-192019157D01*
X52692720Y-191977830D01*
X56662915Y-191977830D01*
X56662915Y-191996180D01*
X56853415Y-191991751D01*
X56917665Y-191990110D01*
X56989097Y-191988038D01*
X57062697Y-191985696D01*
X57133455Y-191983247D01*
X57196359Y-191980851D01*
X57214457Y-191980104D01*
X57284127Y-191976919D01*
X57356379Y-191973186D01*
X57429697Y-191969018D01*
X57502569Y-191964526D01*
X57573479Y-191959825D01*
X57640914Y-191955027D01*
X57703359Y-191950244D01*
X57759300Y-191945590D01*
X57807224Y-191941177D01*
X57845616Y-191937119D01*
X57872961Y-191933528D01*
X57887746Y-191930517D01*
X57889422Y-191929797D01*
X57891861Y-191920156D01*
X57889397Y-191898277D01*
X57882340Y-191865467D01*
X57871003Y-191823035D01*
X57855696Y-191772287D01*
X57841574Y-191728884D01*
X57800670Y-191619405D01*
X57754736Y-191519764D01*
X57704279Y-191430460D01*
X57649807Y-191351991D01*
X57591826Y-191284853D01*
X57530844Y-191229545D01*
X57467368Y-191186564D01*
X57401906Y-191156408D01*
X57334966Y-191139574D01*
X57267053Y-191136561D01*
X57240422Y-191139238D01*
X57177368Y-191153027D01*
X57118757Y-191176523D01*
X57062420Y-191210955D01*
X57006190Y-191257551D01*
X56972069Y-191291368D01*
X56904908Y-191371429D01*
X56843972Y-191464431D01*
X56789372Y-191570151D01*
X56741219Y-191688368D01*
X56699622Y-191818859D01*
X56687756Y-191863012D01*
X56678574Y-191899973D01*
X56670925Y-191933254D01*
X56665503Y-191959644D01*
X56663003Y-191975931D01*
X56662915Y-191977830D01*
X52692720Y-191977830D01*
X52692608Y-191902211D01*
X52692394Y-191795176D01*
X52692133Y-191697394D01*
X52691822Y-191608208D01*
X52691454Y-191526959D01*
X52691027Y-191452990D01*
X52690536Y-191385643D01*
X52689976Y-191324262D01*
X52689342Y-191268187D01*
X52688630Y-191216762D01*
X52687836Y-191169329D01*
X52686955Y-191125230D01*
X52685982Y-191083808D01*
X52684914Y-191044404D01*
X52683745Y-191006362D01*
X52682472Y-190969023D01*
X52681089Y-190931730D01*
X52679592Y-190893825D01*
X52678928Y-190877543D01*
X52663282Y-190420137D01*
X52654280Y-189970750D01*
X52651910Y-189530129D01*
X52656160Y-189099018D01*
X52664015Y-188794663D01*
X52874686Y-188794663D01*
X53507872Y-188796517D01*
X54141057Y-188798371D01*
X54142888Y-190356843D01*
X54143101Y-190534159D01*
X54143308Y-190697531D01*
X54143516Y-190847527D01*
X54143730Y-190984717D01*
X54143955Y-191109669D01*
X54144195Y-191222954D01*
X54144458Y-191325140D01*
X54144747Y-191416796D01*
X54145069Y-191498493D01*
X54145428Y-191570799D01*
X54145829Y-191634284D01*
X54146279Y-191689516D01*
X54146783Y-191737066D01*
X54147344Y-191777502D01*
X54147970Y-191811393D01*
X54148666Y-191839310D01*
X54149435Y-191861821D01*
X54150285Y-191879495D01*
X54151220Y-191892903D01*
X54152245Y-191902612D01*
X54153366Y-191909193D01*
X54154588Y-191913215D01*
X54155917Y-191915246D01*
X54157357Y-191915857D01*
X54157403Y-191915860D01*
X54166733Y-191916276D01*
X54189284Y-191917289D01*
X54223776Y-191918841D01*
X54268933Y-191920875D01*
X54323473Y-191923333D01*
X54386119Y-191926157D01*
X54455592Y-191929290D01*
X54530614Y-191932674D01*
X54609904Y-191936251D01*
X54620029Y-191936708D01*
X54700990Y-191940340D01*
X54778798Y-191943791D01*
X54852044Y-191947001D01*
X54919316Y-191949909D01*
X54979205Y-191952457D01*
X55030302Y-191954583D01*
X55071194Y-191956228D01*
X55100474Y-191957332D01*
X55116729Y-191957835D01*
X55117143Y-191957842D01*
X55164315Y-191958675D01*
X55188374Y-191873494D01*
X55237540Y-191723836D01*
X55299933Y-191574644D01*
X55374351Y-191427916D01*
X55459587Y-191285654D01*
X55554438Y-191149855D01*
X55657699Y-191022520D01*
X55768164Y-190905646D01*
X55776351Y-190897701D01*
X55910537Y-190778053D01*
X56051987Y-190670946D01*
X56200482Y-190576487D01*
X56355802Y-190494779D01*
X56517725Y-190425930D01*
X56686033Y-190370044D01*
X56860506Y-190327227D01*
X57022143Y-190300017D01*
X57080022Y-190294072D01*
X57148491Y-190289933D01*
X57223737Y-190287602D01*
X57301948Y-190287082D01*
X57379311Y-190288376D01*
X57452014Y-190291487D01*
X57516244Y-190296416D01*
X57544657Y-190299651D01*
X57724276Y-190330007D01*
X57897481Y-190373342D01*
X58064156Y-190429600D01*
X58224186Y-190498725D01*
X58377455Y-190580662D01*
X58523848Y-190675356D01*
X58663249Y-190782750D01*
X58790688Y-190898038D01*
X58905489Y-191017261D01*
X59007551Y-191138918D01*
X59098650Y-191265481D01*
X59180563Y-191399423D01*
X59255064Y-191543217D01*
X59257107Y-191547507D01*
X59304200Y-191646616D01*
X59407772Y-191610204D01*
X59571104Y-191549530D01*
X59734961Y-191482405D01*
X59896137Y-191410304D01*
X60051426Y-191334703D01*
X60197625Y-191257079D01*
X60291486Y-191203135D01*
X60382200Y-191149146D01*
X60386542Y-190605130D01*
X60387236Y-190513871D01*
X60387965Y-190410319D01*
X60388715Y-190296693D01*
X60389473Y-190175215D01*
X60390227Y-190048106D01*
X60390964Y-189917586D01*
X60391672Y-189785875D01*
X60392338Y-189655194D01*
X60392661Y-189587711D01*
X61851772Y-189587711D01*
X61851772Y-190029960D01*
X61876927Y-190007874D01*
X61933383Y-189964526D01*
X62000105Y-189923580D01*
X62072847Y-189887226D01*
X62147362Y-189857656D01*
X62198102Y-189842218D01*
X62234677Y-189833496D01*
X62268144Y-189827821D01*
X62303792Y-189824579D01*
X62346912Y-189823153D01*
X62363400Y-189822978D01*
X62464510Y-189828207D01*
X62558792Y-189845725D01*
X62647985Y-189876105D01*
X62733829Y-189919919D01*
X62806287Y-189968770D01*
X62854861Y-190006799D01*
X62891756Y-190040243D01*
X62918095Y-190071359D01*
X62935002Y-190102402D01*
X62943599Y-190135627D01*
X62945010Y-190173290D01*
X62940356Y-190217646D01*
X62937870Y-190233039D01*
X62930164Y-190271432D01*
X62920139Y-190312421D01*
X62909695Y-190348377D01*
X62907469Y-190355028D01*
X62888797Y-190428879D01*
X62880600Y-190509896D01*
X62882489Y-190595620D01*
X62894075Y-190683594D01*
X62914970Y-190771358D01*
X62944784Y-190856453D01*
X62983128Y-190936423D01*
X63005367Y-190973700D01*
X63025352Y-191003195D01*
X63041236Y-191021208D01*
X63055619Y-191029130D01*
X63071098Y-191028354D01*
X63090272Y-191020273D01*
X63091289Y-191019746D01*
X63122096Y-190996454D01*
X63148188Y-190961023D01*
X63169558Y-190913360D01*
X63186200Y-190853369D01*
X63198108Y-190780956D01*
X63205277Y-190696027D01*
X63207699Y-190598488D01*
X63205369Y-190488244D01*
X63198280Y-190365200D01*
X63186427Y-190229263D01*
X63169804Y-190080337D01*
X63148404Y-189918329D01*
X63122220Y-189743144D01*
X63091248Y-189554687D01*
X63055481Y-189352865D01*
X63014913Y-189137582D01*
X62969537Y-188908745D01*
X62947359Y-188800408D01*
X62937135Y-188751173D01*
X62927701Y-188706207D01*
X62919504Y-188667610D01*
X62912993Y-188637483D01*
X62908616Y-188617926D01*
X62907017Y-188611500D01*
X62905607Y-188609070D01*
X62902329Y-188606971D01*
X62896194Y-188605178D01*
X62886210Y-188603667D01*
X62871387Y-188602414D01*
X62850733Y-188601395D01*
X62823258Y-188600587D01*
X62787971Y-188599965D01*
X62743882Y-188599505D01*
X62689999Y-188599183D01*
X62625332Y-188598976D01*
X62548890Y-188598859D01*
X62459682Y-188598809D01*
X62382232Y-188598800D01*
X61861385Y-188598800D01*
X61856578Y-188872130D01*
X61855660Y-188932503D01*
X61854799Y-189004877D01*
X61854013Y-189086738D01*
X61853318Y-189175573D01*
X61852731Y-189268868D01*
X61852269Y-189364111D01*
X61851949Y-189458787D01*
X61851788Y-189550384D01*
X61851772Y-189587711D01*
X60392661Y-189587711D01*
X60392949Y-189527764D01*
X60393493Y-189405806D01*
X60393799Y-189331771D01*
X60396715Y-188602428D01*
X59086800Y-188598800D01*
X57776886Y-188595171D01*
X57744229Y-188575923D01*
X57705041Y-188544526D01*
X57674060Y-188501860D01*
X57651991Y-188449081D01*
X57642668Y-188409371D01*
X57640834Y-188391619D01*
X57639317Y-188361287D01*
X57638114Y-188318106D01*
X57637222Y-188261810D01*
X57636639Y-188192132D01*
X57636362Y-188108804D01*
X57636387Y-188011560D01*
X57636712Y-187900131D01*
X57636827Y-187873086D01*
X57639000Y-187383228D01*
X57655571Y-187342247D01*
X57676152Y-187302785D01*
X57703541Y-187266372D01*
X57734260Y-187237120D01*
X57756738Y-187222674D01*
X57761342Y-187220620D01*
X57766968Y-187218777D01*
X57774408Y-187217129D01*
X57784453Y-187215661D01*
X57797895Y-187214358D01*
X57815523Y-187213205D01*
X57838130Y-187212185D01*
X57866506Y-187211285D01*
X57901443Y-187210488D01*
X57943732Y-187209780D01*
X57994163Y-187209145D01*
X58053529Y-187208567D01*
X58122619Y-187208032D01*
X58202226Y-187207524D01*
X58293141Y-187207029D01*
X58396153Y-187206529D01*
X58512056Y-187206011D01*
X58641639Y-187205459D01*
X58648968Y-187205428D01*
X59513793Y-187201800D01*
X59085631Y-186015257D01*
X59031726Y-185865858D01*
X58982537Y-185729479D01*
X58937846Y-185605491D01*
X58897434Y-185493264D01*
X58861086Y-185392168D01*
X58828581Y-185301573D01*
X58799703Y-185220851D01*
X58774234Y-185149370D01*
X58751955Y-185086502D01*
X58732650Y-185031617D01*
X58716100Y-184984084D01*
X58702087Y-184943275D01*
X58690394Y-184908560D01*
X58680802Y-184879308D01*
X58673095Y-184854890D01*
X58667053Y-184834677D01*
X58662460Y-184818039D01*
X58659097Y-184804345D01*
X58656746Y-184792967D01*
X58655191Y-184783274D01*
X58654212Y-184774638D01*
X58653592Y-184766427D01*
X58653585Y-184766315D01*
X58654336Y-184706305D01*
X58664956Y-184650290D01*
X58686302Y-184596397D01*
X58719232Y-184542750D01*
X58764602Y-184487474D01*
X58795911Y-184454962D01*
X58862327Y-184395454D01*
X58939761Y-184337872D01*
X59028765Y-184281925D01*
X59129891Y-184227323D01*
X59243691Y-184173774D01*
X59370716Y-184120989D01*
X59511517Y-184068676D01*
X59562143Y-184051110D01*
X59715186Y-184002032D01*
X59880214Y-183954964D01*
X60054772Y-183910419D01*
X60236410Y-183868910D01*
X60422674Y-183830950D01*
X60611112Y-183797052D01*
X60799270Y-183767729D01*
X60984696Y-183743496D01*
X61084974Y-183732487D01*
X61134604Y-183727428D01*
X61109385Y-183762814D01*
X61078378Y-183811946D01*
X61046496Y-183872896D01*
X61014854Y-183943103D01*
X60984565Y-184020007D01*
X60956746Y-184101048D01*
X60944122Y-184142282D01*
X60905862Y-184290942D01*
X60874769Y-184451264D01*
X60850885Y-184622263D01*
X60834252Y-184802958D01*
X60824914Y-184992364D01*
X60822913Y-185189498D01*
X60828289Y-185393376D01*
X60841087Y-185603015D01*
X60861349Y-185817432D01*
X60869141Y-185884628D01*
X60894034Y-186070747D01*
X60924663Y-186266417D01*
X60960365Y-186468160D01*
X61000479Y-186672500D01*
X61044342Y-186875960D01*
X61091291Y-187075061D01*
X61110351Y-187151000D01*
X61123331Y-187201800D01*
X61212601Y-187203844D01*
X61301870Y-187205888D01*
X61298443Y-187182073D01*
X61295858Y-187168681D01*
X61290359Y-187143355D01*
X61282444Y-187108268D01*
X61272607Y-187065593D01*
X61261344Y-187017506D01*
X61250828Y-186973200D01*
X61180361Y-186656598D01*
X61121208Y-186343488D01*
X61072647Y-186029487D01*
X61033958Y-185710213D01*
X61020394Y-185572571D01*
X61016509Y-185521719D01*
X61013071Y-185459789D01*
X61010115Y-185389229D01*
X61007677Y-185312486D01*
X61005790Y-185232007D01*
X61004490Y-185150238D01*
X61003812Y-185069627D01*
X61003797Y-185014906D01*
X62086527Y-185014906D01*
X62095396Y-185086543D01*
X62116143Y-185156110D01*
X62148803Y-185221826D01*
X62193408Y-185281909D01*
X62207575Y-185297006D01*
X62264977Y-185345376D01*
X62328580Y-185380865D01*
X62397350Y-185403170D01*
X62470252Y-185411993D01*
X62546253Y-185407034D01*
X62571180Y-185402462D01*
X62637893Y-185381217D01*
X62698471Y-185347958D01*
X62751959Y-185304230D01*
X62797404Y-185251577D01*
X62833849Y-185191544D01*
X62860340Y-185125675D01*
X62875923Y-185055516D01*
X62879641Y-184982610D01*
X62872031Y-184915800D01*
X62850914Y-184841357D01*
X62817871Y-184774829D01*
X62772245Y-184714980D01*
X62755946Y-184698086D01*
X62698324Y-184649792D01*
X62637024Y-184615304D01*
X62570864Y-184594131D01*
X62498661Y-184585780D01*
X62485604Y-184585600D01*
X62410279Y-184591721D01*
X62341725Y-184610411D01*
X62278665Y-184642162D01*
X62219820Y-184687465D01*
X62219168Y-184688062D01*
X62169155Y-184743312D01*
X62130850Y-184805404D01*
X62104288Y-184872555D01*
X62089502Y-184942983D01*
X62086527Y-185014906D01*
X61003797Y-185014906D01*
X61003790Y-184992622D01*
X61004460Y-184921669D01*
X61005856Y-184859214D01*
X61008012Y-184807707D01*
X61009237Y-184788800D01*
X61025802Y-184617529D01*
X61049035Y-184458898D01*
X61079047Y-184312598D01*
X61115948Y-184178319D01*
X61159850Y-184055752D01*
X61210864Y-183944588D01*
X61269101Y-183844518D01*
X61334673Y-183755231D01*
X61407690Y-183676420D01*
X61409958Y-183674251D01*
X61491661Y-183604284D01*
X61586518Y-183537132D01*
X61693362Y-183473258D01*
X61811024Y-183413125D01*
X61938337Y-183357195D01*
X62074132Y-183305932D01*
X62217242Y-183259798D01*
X62366499Y-183219255D01*
X62520734Y-183184768D01*
X62678780Y-183156799D01*
X62737143Y-183148310D01*
X62796280Y-183141575D01*
X62864705Y-183136051D01*
X62939066Y-183131829D01*
X63016006Y-183128999D01*
X63092174Y-183127649D01*
X63164215Y-183127869D01*
X63228776Y-183129750D01*
X63282501Y-183133380D01*
X63285403Y-183133665D01*
X63392167Y-183147756D01*
X63491574Y-183167652D01*
X63581694Y-183192862D01*
X63660597Y-183222898D01*
X63688364Y-183236041D01*
X63710933Y-183246834D01*
X63727916Y-183253831D01*
X63735751Y-183255570D01*
X63735817Y-183255517D01*
X63736394Y-183247606D01*
X63735966Y-183227871D01*
X63734639Y-183198956D01*
X63732521Y-183163508D01*
X63731469Y-183147999D01*
X63714390Y-182980935D01*
X63687168Y-182823657D01*
X63649681Y-182676052D01*
X63601804Y-182538007D01*
X63543414Y-182409412D01*
X63474388Y-182290153D01*
X63394602Y-182180119D01*
X63303932Y-182079197D01*
X63202256Y-181987275D01*
X63089449Y-181904242D01*
X62965388Y-181829984D01*
X62829950Y-181764391D01*
X62683011Y-181707349D01*
X62524448Y-181658747D01*
X62354137Y-181618472D01*
X62171954Y-181586412D01*
X61986029Y-181563286D01*
X61909837Y-181556484D01*
X61823092Y-181550353D01*
X61728188Y-181544953D01*
X61627519Y-181540344D01*
X61523480Y-181536586D01*
X61418464Y-181533739D01*
X61314866Y-181531864D01*
X61215080Y-181531020D01*
X61121500Y-181531268D01*
X61036522Y-181532668D01*
X60962538Y-181535280D01*
X60933743Y-181536850D01*
X60692441Y-181557652D01*
X60444048Y-181590412D01*
X60189242Y-181634826D01*
X59928702Y-181690591D01*
X59663105Y-181757407D01*
X59393131Y-181834968D01*
X59119458Y-181922974D01*
X58842763Y-182021121D01*
X58563726Y-182129108D01*
X58283024Y-182246630D01*
X58001336Y-182373386D01*
X57719340Y-182509073D01*
X57437715Y-182653389D01*
X57157139Y-182806030D01*
X56878290Y-182966695D01*
X56601847Y-183135080D01*
X56328488Y-183310883D01*
X56058891Y-183493802D01*
X55793734Y-183683533D01*
X55533696Y-183879775D01*
X55342094Y-184031322D01*
X55136892Y-184201540D01*
X54934619Y-184378366D01*
X54737246Y-184559915D01*
X54546739Y-184744300D01*
X54365069Y-184929635D01*
X54194203Y-185114035D01*
X54097008Y-185224228D01*
X53931419Y-185422921D01*
X53777750Y-185622111D01*
X53636218Y-185821387D01*
X53507045Y-186020336D01*
X53390449Y-186218545D01*
X53286651Y-186415602D01*
X53195870Y-186611094D01*
X53118325Y-186804609D01*
X53054238Y-186995734D01*
X53003826Y-187184057D01*
X52973207Y-187334047D01*
X52966060Y-187376878D01*
X52959434Y-187420132D01*
X52954007Y-187459143D01*
X52950460Y-187489241D01*
X52950137Y-187492647D01*
X52945118Y-187548027D01*
X52981522Y-187521873D01*
X53036181Y-187487203D01*
X53103379Y-187452285D01*
X53181175Y-187417859D01*
X53267628Y-187384663D01*
X53360796Y-187353437D01*
X53458739Y-187324921D01*
X53559515Y-187299855D01*
X53571372Y-187297188D01*
X53651429Y-187280991D01*
X53732056Y-187267677D01*
X53811316Y-187257372D01*
X53887277Y-187250201D01*
X53958004Y-187246291D01*
X54021563Y-187245766D01*
X54076022Y-187248752D01*
X54119444Y-187255374D01*
X54137413Y-187260433D01*
X54165403Y-187272639D01*
X54181314Y-187286004D01*
X54185047Y-187292514D01*
X54186458Y-187301157D01*
X54187525Y-187319969D01*
X54188246Y-187349410D01*
X54188619Y-187389941D01*
X54188642Y-187442022D01*
X54188314Y-187506114D01*
X54187633Y-187582678D01*
X54186598Y-187672174D01*
X54185206Y-187775064D01*
X54183455Y-187891806D01*
X54182604Y-187945657D01*
X54181046Y-188040368D01*
X54179481Y-188130886D01*
X54177930Y-188216165D01*
X54176417Y-188295159D01*
X54174964Y-188366821D01*
X54173593Y-188430104D01*
X54172328Y-188483963D01*
X54171190Y-188527351D01*
X54170202Y-188559221D01*
X54169387Y-188578527D01*
X54168840Y-188584286D01*
X54161214Y-188584850D01*
X54140116Y-188585439D01*
X54106587Y-188586044D01*
X54061669Y-188586655D01*
X54006404Y-188587261D01*
X53941834Y-188587854D01*
X53869000Y-188588424D01*
X53788944Y-188588961D01*
X53702708Y-188589456D01*
X53611334Y-188589898D01*
X53524548Y-188590247D01*
X52883842Y-188592580D01*
X52879327Y-188630161D01*
X52877173Y-188655706D01*
X52875560Y-188689299D01*
X52874779Y-188724479D01*
X52874749Y-188731203D01*
X52874686Y-188794663D01*
X52664015Y-188794663D01*
X52667022Y-188678164D01*
X52684483Y-188268313D01*
X52708532Y-187870209D01*
X52726126Y-187637228D01*
X52740500Y-187487748D01*
X52758663Y-187349151D01*
X52781277Y-187218148D01*
X52809002Y-187091447D01*
X52842499Y-186965760D01*
X52882430Y-186837796D01*
X52893076Y-186806286D01*
X52969247Y-186603756D01*
X53059517Y-186399412D01*
X53163626Y-186193566D01*
X53281316Y-185986529D01*
X53412327Y-185778612D01*
X53556400Y-185570124D01*
X53713275Y-185361379D01*
X53882694Y-185152685D01*
X54064398Y-184944355D01*
X54258126Y-184736699D01*
X54463621Y-184530029D01*
X54680622Y-184324654D01*
X54908870Y-184120887D01*
X55148107Y-183919038D01*
X55398073Y-183719417D01*
X55585229Y-183576735D01*
X55849771Y-183384150D01*
X56119463Y-183198053D01*
X56393568Y-183018767D01*
X56671348Y-182846612D01*
X56952066Y-182681910D01*
X57234983Y-182524984D01*
X57519361Y-182376154D01*
X57804464Y-182235743D01*
X58089553Y-182104072D01*
X58373890Y-181981462D01*
X58656738Y-181868236D01*
X58937360Y-181764715D01*
X59215017Y-181671221D01*
X59488971Y-181588075D01*
X59758485Y-181515599D01*
X60022822Y-181454115D01*
X60281243Y-181403945D01*
X60533011Y-181365409D01*
X60701630Y-181345856D01*
X60827343Y-181335470D01*
X60964504Y-181328120D01*
X61110380Y-181323745D01*
X61262238Y-181322287D01*
X61417347Y-181323686D01*
X61417347Y-181323686D01*
G37*
X61417347Y-181323686D02*
X61572972Y-181327883D01*
X61726381Y-181334818D01*
X61874841Y-181344432D01*
X62015620Y-181356666D01*
X62145986Y-181371460D01*
X62196486Y-181378351D01*
X62388005Y-181411230D01*
X62568114Y-181453035D01*
X62736893Y-181503824D01*
X62894423Y-181563653D01*
X63040782Y-181632579D01*
X63176050Y-181710660D01*
X63300306Y-181797952D01*
X63413632Y-181894513D01*
X63516105Y-182000399D01*
X63607805Y-182115668D01*
X63688813Y-182240376D01*
X63759208Y-182374580D01*
X63819069Y-182518338D01*
X63829398Y-182547135D01*
X63866300Y-182667726D01*
X63896783Y-182799260D01*
X63920531Y-182939511D01*
X63937229Y-183086253D01*
X63946559Y-183237260D01*
X63948286Y-183384543D01*
X63948235Y-183446641D01*
X63949886Y-183494448D01*
X63953237Y-183527916D01*
X63955855Y-183540377D01*
X63959534Y-183556134D01*
X63962345Y-183575185D01*
X63964287Y-183598865D01*
X63965363Y-183628509D01*
X63965575Y-183665454D01*
X63964923Y-183711034D01*
X63963410Y-183766586D01*
X63961037Y-183833444D01*
X63957805Y-183912946D01*
X63956343Y-183946971D01*
X63954667Y-183988882D01*
X63953161Y-184034089D01*
X63951818Y-184083429D01*
X63950630Y-184137740D01*
X63949590Y-184197858D01*
X63948691Y-184264620D01*
X63947927Y-184338864D01*
X63947290Y-184421427D01*
X63946773Y-184513146D01*
X63946369Y-184614857D01*
X63946071Y-184727399D01*
X63945872Y-184851608D01*
X63945765Y-184988322D01*
X63945742Y-185138376D01*
X63945756Y-185202457D01*
X63945875Y-185331646D01*
X63946152Y-185462178D01*
X63946577Y-185593241D01*
X63947139Y-185724023D01*
X63947830Y-185853710D01*
X63948641Y-185981490D01*
X63949561Y-186106552D01*
X63950582Y-186228082D01*
X63951694Y-186345267D01*
X63952887Y-186457296D01*
X63954153Y-186563356D01*
X63955481Y-186662634D01*
X63956862Y-186754318D01*
X63958287Y-186837595D01*
X63959747Y-186911653D01*
X63961232Y-186975680D01*
X63962732Y-187028862D01*
X63964238Y-187070387D01*
X63965741Y-187099444D01*
X63967231Y-187115218D01*
X63967993Y-187117898D01*
X63977680Y-187119050D01*
X63999158Y-187116705D01*
X64030270Y-187111373D01*
X64068856Y-187103566D01*
X64112759Y-187093793D01*
X64159820Y-187082566D01*
X64207881Y-187070396D01*
X64254784Y-187057794D01*
X64298370Y-187045270D01*
X64336482Y-187033336D01*
X64360252Y-187025050D01*
X64456413Y-186984391D01*
X64541221Y-186938120D01*
X64614086Y-186886689D01*
X64674418Y-186830552D01*
X64721625Y-186770161D01*
X64743972Y-186730923D01*
X64769429Y-186679286D01*
X64859934Y-185743114D01*
X64871072Y-185627815D01*
X64881817Y-185516405D01*
X64892086Y-185409748D01*
X64901798Y-185308709D01*
X64910869Y-185214153D01*
X64919217Y-185126945D01*
X64926760Y-185047950D01*
X64933414Y-184978032D01*
X64939097Y-184918057D01*
X64943728Y-184868890D01*
X64947222Y-184831395D01*
X64949498Y-184806437D01*
X64950474Y-184794882D01*
X64950505Y-184794243D01*
X64951847Y-184788923D01*
X64957360Y-184785325D01*
X64969372Y-184783120D01*
X64990211Y-184781979D01*
X65022206Y-184781573D01*
X65040484Y-184781543D01*
X65125197Y-184777950D01*
X65206170Y-184766729D01*
X65284861Y-184747216D01*
X65362724Y-184718747D01*
X65441214Y-184680660D01*
X65521787Y-184632290D01*
X65605899Y-184572974D01*
X65695005Y-184502049D01*
X65742567Y-184461430D01*
X65792714Y-184418301D01*
X65833323Y-184385235D01*
X65865374Y-184362290D01*
X65889850Y-184349528D01*
X65907729Y-184347008D01*
X65919992Y-184354791D01*
X65927621Y-184372938D01*
X65931594Y-184401508D01*
X65932894Y-184440561D01*
X65932751Y-184473114D01*
X65932108Y-184488462D01*
X65930423Y-184517416D01*
X65927761Y-184559110D01*
X65924187Y-184612679D01*
X65919764Y-184677256D01*
X65914558Y-184751975D01*
X65908632Y-184835971D01*
X65902051Y-184928377D01*
X65894878Y-185028328D01*
X65887179Y-185134957D01*
X65879018Y-185247399D01*
X65870458Y-185364788D01*
X65861565Y-185486258D01*
X65852402Y-185610943D01*
X65843034Y-185737976D01*
X65833524Y-185866493D01*
X65823939Y-185995626D01*
X65814341Y-186124511D01*
X65804794Y-186252280D01*
X65795364Y-186378069D01*
X65786115Y-186501011D01*
X65777111Y-186620241D01*
X65768415Y-186734891D01*
X65760093Y-186844098D01*
X65752209Y-186946993D01*
X65744827Y-187042712D01*
X65738011Y-187130389D01*
X65731826Y-187209158D01*
X65726336Y-187278152D01*
X65721605Y-187336505D01*
X65717697Y-187383353D01*
X65714678Y-187417828D01*
X65712610Y-187439066D01*
X65712359Y-187441286D01*
X65694295Y-187559479D01*
X65668648Y-187667703D01*
X65634629Y-187768810D01*
X65600235Y-187847788D01*
X65549214Y-187940148D01*
X65488367Y-188025141D01*
X65417254Y-188103049D01*
X65335434Y-188174156D01*
X65242466Y-188238744D01*
X65137910Y-188297098D01*
X65021325Y-188349500D01*
X64892271Y-188396233D01*
X64750307Y-188437580D01*
X64642058Y-188463684D01*
X64573882Y-188477997D01*
X64495925Y-188492902D01*
X64412852Y-188507600D01*
X64329330Y-188521289D01*
X64250024Y-188533170D01*
X64190386Y-188541129D01*
X64151474Y-188546824D01*
X64126745Y-188552497D01*
X64116349Y-188558110D01*
X64116000Y-188559330D01*
X64116798Y-188567537D01*
X64119128Y-188589292D01*
X64122892Y-188623721D01*
X64127991Y-188669948D01*
X64134330Y-188727100D01*
X64141809Y-188794302D01*
X64150332Y-188870680D01*
X64159801Y-188955358D01*
X64170119Y-189047463D01*
X64181187Y-189146119D01*
X64192908Y-189250453D01*
X64205184Y-189359589D01*
X64217704Y-189470742D01*
X64234225Y-189617346D01*
X64249201Y-189750315D01*
X64262706Y-189870437D01*
X64274817Y-189978500D01*
X64285610Y-190075292D01*
X64295160Y-190161603D01*
X64303544Y-190238219D01*
X64310837Y-190305929D01*
X64317115Y-190365521D01*
X64322456Y-190417784D01*
X64326933Y-190463505D01*
X64330624Y-190503473D01*
X64333604Y-190538477D01*
X64335949Y-190569303D01*
X64337736Y-190596741D01*
X64339039Y-190621578D01*
X64339936Y-190644603D01*
X64340502Y-190666605D01*
X64340812Y-190688370D01*
X64340944Y-190710688D01*
X64340972Y-190734346D01*
X64340972Y-190749938D01*
X64336499Y-190902157D01*
X64322987Y-191043340D01*
X64300291Y-191173917D01*
X64268270Y-191294322D01*
X64226781Y-191404983D01*
X64175679Y-191506335D01*
X64114824Y-191598806D01*
X64044071Y-191682830D01*
X64025762Y-191701625D01*
X63945275Y-191773400D01*
X63856660Y-191835811D01*
X63759308Y-191889084D01*
X63652614Y-191933447D01*
X63535970Y-191969125D01*
X63408768Y-191996345D01*
X63270403Y-192015334D01*
X63161686Y-192024148D01*
X63014657Y-192027603D01*
X62876756Y-192019804D01*
X62747907Y-192000719D01*
X62628032Y-191970316D01*
X62517056Y-191928562D01*
X62414901Y-191875426D01*
X62321492Y-191810876D01*
X62236751Y-191734880D01*
X62160603Y-191647406D01*
X62118407Y-191588500D01*
X62068966Y-191508307D01*
X62025329Y-191424521D01*
X61987103Y-191335766D01*
X61953895Y-191240667D01*
X61925311Y-191137850D01*
X61900958Y-191025940D01*
X61880441Y-190903562D01*
X61863368Y-190769342D01*
X61852564Y-190659828D01*
X61850746Y-190641310D01*
X61849291Y-190632028D01*
X61848151Y-190632801D01*
X61847280Y-190644446D01*
X61846631Y-190667781D01*
X61846156Y-190703626D01*
X61845809Y-190752797D01*
X61845681Y-190779571D01*
X61844447Y-191067952D01*
X61843269Y-191342157D01*
X61842145Y-191602526D01*
X61841074Y-191849398D01*
X61840054Y-192083111D01*
X61839083Y-192304006D01*
X61838159Y-192512421D01*
X61837281Y-192708694D01*
X61836447Y-192893166D01*
X61835654Y-193066174D01*
X61834902Y-193228058D01*
X61834189Y-193379158D01*
X61833512Y-193519811D01*
X61832870Y-193650357D01*
X61832261Y-193771136D01*
X61831684Y-193882485D01*
X61831136Y-193984745D01*
X61830616Y-194078253D01*
X61830121Y-194163350D01*
X61829652Y-194240373D01*
X61829204Y-194309663D01*
X61828778Y-194371558D01*
X61828370Y-194426397D01*
X61827979Y-194474519D01*
X61827604Y-194516264D01*
X61827242Y-194551969D01*
X61826892Y-194581975D01*
X61826553Y-194606620D01*
X61826221Y-194626243D01*
X61825896Y-194641183D01*
X61825576Y-194651780D01*
X61825358Y-194656700D01*
X61821346Y-194731086D01*
X61307968Y-194731086D01*
X61216021Y-194731014D01*
X61123078Y-194730807D01*
X61031000Y-194730477D01*
X60941652Y-194730036D01*
X60856897Y-194729497D01*
X60778596Y-194728872D01*
X60708614Y-194728173D01*
X60648812Y-194727413D01*
X60601054Y-194726604D01*
X60588395Y-194726331D01*
X60382200Y-194721577D01*
X60384500Y-194064117D01*
X60384749Y-193973320D01*
X60384912Y-193869660D01*
X60384992Y-193754786D01*
X60384990Y-193630350D01*
X60384910Y-193498002D01*
X60384754Y-193359392D01*
X60384524Y-193216171D01*
X60384225Y-193069990D01*
X60383857Y-192922499D01*
X60383424Y-192775347D01*
X60382928Y-192630187D01*
X60382372Y-192488668D01*
X60381796Y-192360048D01*
X60376791Y-191313439D01*
X60325067Y-191356508D01*
X60297483Y-191379662D01*
X60269910Y-191403115D01*
X60247237Y-191422701D01*
X60242313Y-191427031D01*
X60211282Y-191454486D01*
X60204331Y-192851486D01*
X60203614Y-192996717D01*
X60202916Y-193140294D01*
X60202241Y-193281349D01*
X60201593Y-193419013D01*
X60200975Y-193552420D01*
X60200391Y-193680699D01*
X60199845Y-193802984D01*
X60199341Y-193918406D01*
X60198883Y-194026097D01*
X60198473Y-194125189D01*
X60198117Y-194214813D01*
X60197817Y-194294102D01*
X60197578Y-194362187D01*
X60197403Y-194418200D01*
X60197296Y-194461273D01*
X60197261Y-194486157D01*
X60197143Y-194723828D01*
X59718172Y-194723828D01*
X59718172Y-193221600D01*
X59718159Y-193075050D01*
X59718124Y-192932401D01*
X59718065Y-192794328D01*
X59717986Y-192661506D01*
X59717886Y-192534611D01*
X59717767Y-192414318D01*
X59717630Y-192301302D01*
X59717476Y-192196239D01*
X59717307Y-192099803D01*
X59717124Y-192012670D01*
X59716927Y-191935516D01*
X59716718Y-191869016D01*
X59716498Y-191813845D01*
X59716269Y-191770678D01*
X59716030Y-191740190D01*
X59715785Y-191723058D01*
X59715604Y-191719371D01*
X59708310Y-191721820D01*
X59689762Y-191728597D01*
X59662267Y-191738843D01*
X59628126Y-191751703D01*
X59601304Y-191761879D01*
X59559000Y-191777790D01*
X59517002Y-191793265D01*
X59479116Y-191806922D01*
X59449149Y-191817380D01*
X59438772Y-191820834D01*
X59413192Y-191829557D01*
X59393110Y-191837220D01*
X59382506Y-191842294D01*
X59382107Y-191842611D01*
X59381816Y-191851081D01*
X59384710Y-191871177D01*
X59390332Y-191900476D01*
X59398228Y-191936552D01*
X59405442Y-191966899D01*
X59422403Y-192038262D01*
X59436044Y-192101722D01*
X59446708Y-192160331D01*
X59454739Y-192217137D01*
X59460480Y-192275192D01*
X59464275Y-192337546D01*
X59466467Y-192407249D01*
X59467401Y-192487352D01*
X59467493Y-192517657D01*
X59467477Y-192583405D01*
X59467143Y-192637128D01*
X59466367Y-192681313D01*
X59465023Y-192718447D01*
X59462985Y-192751019D01*
X59460127Y-192781516D01*
X59456325Y-192812426D01*
X59451453Y-192846236D01*
X59450657Y-192851486D01*
X59415789Y-193033964D01*
X59367752Y-193210444D01*
X59306612Y-193380772D01*
X59232438Y-193544795D01*
X59145298Y-193702360D01*
X59045258Y-193853316D01*
X58954456Y-193971078D01*
X58919764Y-194011082D01*
X58876903Y-194057133D01*
X58828625Y-194106546D01*
X58777680Y-194156636D01*
X58726819Y-194204716D01*
X58678794Y-194248103D01*
X58636356Y-194284111D01*
X58622343Y-194295241D01*
X58474893Y-194400787D01*
X58322369Y-194492736D01*
X58164746Y-194571095D01*
X58002002Y-194635874D01*
X57834113Y-194687083D01*
X57661055Y-194724730D01*
X57482806Y-194748825D01*
X57439792Y-194752550D01*
X57360665Y-194757045D01*
X57279738Y-194758686D01*
X57203224Y-194757410D01*
X57163657Y-194755332D01*
X56989024Y-194737349D01*
X56821983Y-194707730D01*
X56660884Y-194666024D01*
X56504073Y-194611783D01*
X56349898Y-194544557D01*
X56303686Y-194521676D01*
X56235938Y-194485109D01*
X56162917Y-194442036D01*
X56088753Y-194395113D01*
X56017571Y-194346999D01*
X55953502Y-194300350D01*
X55923922Y-194277195D01*
X55800031Y-194168426D01*
X55682753Y-194047919D01*
X55573550Y-193917503D01*
X55473887Y-193779013D01*
X55385230Y-193634279D01*
X55336578Y-193542506D01*
X55276389Y-193413492D01*
X55226047Y-193286460D01*
X55184495Y-193157946D01*
X55150674Y-193024487D01*
X55123527Y-192882619D01*
X55112194Y-192807943D01*
X55107751Y-192766228D01*
X55104272Y-192713333D01*
X55101764Y-192652159D01*
X55100232Y-192585603D01*
X55099681Y-192516563D01*
X55099767Y-192503027D01*
X56614083Y-192503027D01*
X56614925Y-192546686D01*
X56623262Y-192693496D01*
X56638626Y-192834485D01*
X56660705Y-192968963D01*
X56689184Y-193096243D01*
X56723750Y-193215636D01*
X56764088Y-193326453D01*
X56809886Y-193428007D01*
X56860830Y-193519609D01*
X56916607Y-193600570D01*
X56976901Y-193670203D01*
X57041401Y-193727820D01*
X57109791Y-193772731D01*
X57181760Y-193804249D01*
X57189057Y-193806612D01*
X57219561Y-193812668D01*
X57258961Y-193815625D01*
X57301982Y-193815523D01*
X57343351Y-193812400D01*
X57377793Y-193806296D01*
X57381869Y-193805175D01*
X57445018Y-193779722D01*
X57507801Y-193740867D01*
X57569124Y-193689707D01*
X57627891Y-193627336D01*
X57683006Y-193554848D01*
X57733374Y-193473338D01*
X57755170Y-193432075D01*
X57804340Y-193323861D01*
X57846460Y-193208966D01*
X57882008Y-193085713D01*
X57911459Y-192952424D01*
X57935290Y-192807423D01*
X57937824Y-192788940D01*
X57941969Y-192750162D01*
X57945294Y-192702961D01*
X57947821Y-192649158D01*
X57949567Y-192590573D01*
X57950555Y-192529025D01*
X57950804Y-192466334D01*
X57950334Y-192404320D01*
X57949165Y-192344803D01*
X57947318Y-192289604D01*
X57944812Y-192240542D01*
X57941668Y-192199437D01*
X57937907Y-192168108D01*
X57933547Y-192148377D01*
X57930668Y-192142877D01*
X57922638Y-192142355D01*
X57902605Y-192143118D01*
X57873010Y-192145015D01*
X57836291Y-192147894D01*
X57804851Y-192150672D01*
X57690214Y-192160757D01*
X57579503Y-192169386D01*
X57469903Y-192176704D01*
X57358600Y-192182859D01*
X57242778Y-192187998D01*
X57119623Y-192192268D01*
X56986319Y-192195816D01*
X56907936Y-192197507D01*
X56846297Y-192198848D01*
X56789282Y-192200294D01*
X56738506Y-192201787D01*
X56695582Y-192203272D01*
X56662126Y-192204691D01*
X56639751Y-192205989D01*
X56630071Y-192207108D01*
X56629833Y-192207234D01*
X56626605Y-192217385D01*
X56623536Y-192239767D01*
X56620726Y-192272096D01*
X56618277Y-192312089D01*
X56616287Y-192357462D01*
X56614858Y-192405931D01*
X56614090Y-192455214D01*
X56614083Y-192503027D01*
X55099767Y-192503027D01*
X55100117Y-192447939D01*
X55101545Y-192382627D01*
X55103971Y-192323529D01*
X55107400Y-192273540D01*
X55111118Y-192240308D01*
X55121308Y-192169788D01*
X55102897Y-192166233D01*
X55090484Y-192164994D01*
X55065911Y-192163494D01*
X55031529Y-192161840D01*
X54989686Y-192160140D01*
X54942734Y-192158504D01*
X54919386Y-192157782D01*
X54754286Y-192152886D01*
X54754286Y-194709314D01*
X54333412Y-194709314D01*
X54331577Y-193415728D01*
X54329743Y-192122143D01*
X54244333Y-192115629D01*
X54210778Y-192113317D01*
X54182921Y-192111866D01*
X54163705Y-192111395D01*
X54156095Y-192112001D01*
X54155768Y-192119443D01*
X54155394Y-192140670D01*
X54154976Y-192174954D01*
X54154519Y-192221566D01*
X54154027Y-192279776D01*
X54153506Y-192348856D01*
X54152959Y-192428077D01*
X54152391Y-192516711D01*
X54151807Y-192614027D01*
X54151212Y-192719299D01*
X54150610Y-192831795D01*
X54150005Y-192950789D01*
X54149402Y-193075550D01*
X54148806Y-193205350D01*
X54148222Y-193339461D01*
X54147918Y-193412100D01*
X54142569Y-194709314D01*
X52693257Y-194709314D01*
X52693183Y-192965786D01*
X52693168Y-192775565D01*
X52693139Y-192599201D01*
X52693090Y-192436035D01*
X52693017Y-192285412D01*
X52692915Y-192146671D01*
X52692780Y-192019157D01*
X52692720Y-191977830D01*
X56662915Y-191977830D01*
X56662915Y-191996180D01*
X56853415Y-191991751D01*
X56917665Y-191990110D01*
X56989097Y-191988038D01*
X57062697Y-191985696D01*
X57133455Y-191983247D01*
X57196359Y-191980851D01*
X57214457Y-191980104D01*
X57284127Y-191976919D01*
X57356379Y-191973186D01*
X57429697Y-191969018D01*
X57502569Y-191964526D01*
X57573479Y-191959825D01*
X57640914Y-191955027D01*
X57703359Y-191950244D01*
X57759300Y-191945590D01*
X57807224Y-191941177D01*
X57845616Y-191937119D01*
X57872961Y-191933528D01*
X57887746Y-191930517D01*
X57889422Y-191929797D01*
X57891861Y-191920156D01*
X57889397Y-191898277D01*
X57882340Y-191865467D01*
X57871003Y-191823035D01*
X57855696Y-191772287D01*
X57841574Y-191728884D01*
X57800670Y-191619405D01*
X57754736Y-191519764D01*
X57704279Y-191430460D01*
X57649807Y-191351991D01*
X57591826Y-191284853D01*
X57530844Y-191229545D01*
X57467368Y-191186564D01*
X57401906Y-191156408D01*
X57334966Y-191139574D01*
X57267053Y-191136561D01*
X57240422Y-191139238D01*
X57177368Y-191153027D01*
X57118757Y-191176523D01*
X57062420Y-191210955D01*
X57006190Y-191257551D01*
X56972069Y-191291368D01*
X56904908Y-191371429D01*
X56843972Y-191464431D01*
X56789372Y-191570151D01*
X56741219Y-191688368D01*
X56699622Y-191818859D01*
X56687756Y-191863012D01*
X56678574Y-191899973D01*
X56670925Y-191933254D01*
X56665503Y-191959644D01*
X56663003Y-191975931D01*
X56662915Y-191977830D01*
X52692720Y-191977830D01*
X52692608Y-191902211D01*
X52692394Y-191795176D01*
X52692133Y-191697394D01*
X52691822Y-191608208D01*
X52691454Y-191526959D01*
X52691027Y-191452990D01*
X52690536Y-191385643D01*
X52689976Y-191324262D01*
X52689342Y-191268187D01*
X52688630Y-191216762D01*
X52687836Y-191169329D01*
X52686955Y-191125230D01*
X52685982Y-191083808D01*
X52684914Y-191044404D01*
X52683745Y-191006362D01*
X52682472Y-190969023D01*
X52681089Y-190931730D01*
X52679592Y-190893825D01*
X52678928Y-190877543D01*
X52663282Y-190420137D01*
X52654280Y-189970750D01*
X52651910Y-189530129D01*
X52656160Y-189099018D01*
X52664015Y-188794663D01*
X52874686Y-188794663D01*
X53507872Y-188796517D01*
X54141057Y-188798371D01*
X54142888Y-190356843D01*
X54143101Y-190534159D01*
X54143308Y-190697531D01*
X54143516Y-190847527D01*
X54143730Y-190984717D01*
X54143955Y-191109669D01*
X54144195Y-191222954D01*
X54144458Y-191325140D01*
X54144747Y-191416796D01*
X54145069Y-191498493D01*
X54145428Y-191570799D01*
X54145829Y-191634284D01*
X54146279Y-191689516D01*
X54146783Y-191737066D01*
X54147344Y-191777502D01*
X54147970Y-191811393D01*
X54148666Y-191839310D01*
X54149435Y-191861821D01*
X54150285Y-191879495D01*
X54151220Y-191892903D01*
X54152245Y-191902612D01*
X54153366Y-191909193D01*
X54154588Y-191913215D01*
X54155917Y-191915246D01*
X54157357Y-191915857D01*
X54157403Y-191915860D01*
X54166733Y-191916276D01*
X54189284Y-191917289D01*
X54223776Y-191918841D01*
X54268933Y-191920875D01*
X54323473Y-191923333D01*
X54386119Y-191926157D01*
X54455592Y-191929290D01*
X54530614Y-191932674D01*
X54609904Y-191936251D01*
X54620029Y-191936708D01*
X54700990Y-191940340D01*
X54778798Y-191943791D01*
X54852044Y-191947001D01*
X54919316Y-191949909D01*
X54979205Y-191952457D01*
X55030302Y-191954583D01*
X55071194Y-191956228D01*
X55100474Y-191957332D01*
X55116729Y-191957835D01*
X55117143Y-191957842D01*
X55164315Y-191958675D01*
X55188374Y-191873494D01*
X55237540Y-191723836D01*
X55299933Y-191574644D01*
X55374351Y-191427916D01*
X55459587Y-191285654D01*
X55554438Y-191149855D01*
X55657699Y-191022520D01*
X55768164Y-190905646D01*
X55776351Y-190897701D01*
X55910537Y-190778053D01*
X56051987Y-190670946D01*
X56200482Y-190576487D01*
X56355802Y-190494779D01*
X56517725Y-190425930D01*
X56686033Y-190370044D01*
X56860506Y-190327227D01*
X57022143Y-190300017D01*
X57080022Y-190294072D01*
X57148491Y-190289933D01*
X57223737Y-190287602D01*
X57301948Y-190287082D01*
X57379311Y-190288376D01*
X57452014Y-190291487D01*
X57516244Y-190296416D01*
X57544657Y-190299651D01*
X57724276Y-190330007D01*
X57897481Y-190373342D01*
X58064156Y-190429600D01*
X58224186Y-190498725D01*
X58377455Y-190580662D01*
X58523848Y-190675356D01*
X58663249Y-190782750D01*
X58790688Y-190898038D01*
X58905489Y-191017261D01*
X59007551Y-191138918D01*
X59098650Y-191265481D01*
X59180563Y-191399423D01*
X59255064Y-191543217D01*
X59257107Y-191547507D01*
X59304200Y-191646616D01*
X59407772Y-191610204D01*
X59571104Y-191549530D01*
X59734961Y-191482405D01*
X59896137Y-191410304D01*
X60051426Y-191334703D01*
X60197625Y-191257079D01*
X60291486Y-191203135D01*
X60382200Y-191149146D01*
X60386542Y-190605130D01*
X60387236Y-190513871D01*
X60387965Y-190410319D01*
X60388715Y-190296693D01*
X60389473Y-190175215D01*
X60390227Y-190048106D01*
X60390964Y-189917586D01*
X60391672Y-189785875D01*
X60392338Y-189655194D01*
X60392661Y-189587711D01*
X61851772Y-189587711D01*
X61851772Y-190029960D01*
X61876927Y-190007874D01*
X61933383Y-189964526D01*
X62000105Y-189923580D01*
X62072847Y-189887226D01*
X62147362Y-189857656D01*
X62198102Y-189842218D01*
X62234677Y-189833496D01*
X62268144Y-189827821D01*
X62303792Y-189824579D01*
X62346912Y-189823153D01*
X62363400Y-189822978D01*
X62464510Y-189828207D01*
X62558792Y-189845725D01*
X62647985Y-189876105D01*
X62733829Y-189919919D01*
X62806287Y-189968770D01*
X62854861Y-190006799D01*
X62891756Y-190040243D01*
X62918095Y-190071359D01*
X62935002Y-190102402D01*
X62943599Y-190135627D01*
X62945010Y-190173290D01*
X62940356Y-190217646D01*
X62937870Y-190233039D01*
X62930164Y-190271432D01*
X62920139Y-190312421D01*
X62909695Y-190348377D01*
X62907469Y-190355028D01*
X62888797Y-190428879D01*
X62880600Y-190509896D01*
X62882489Y-190595620D01*
X62894075Y-190683594D01*
X62914970Y-190771358D01*
X62944784Y-190856453D01*
X62983128Y-190936423D01*
X63005367Y-190973700D01*
X63025352Y-191003195D01*
X63041236Y-191021208D01*
X63055619Y-191029130D01*
X63071098Y-191028354D01*
X63090272Y-191020273D01*
X63091289Y-191019746D01*
X63122096Y-190996454D01*
X63148188Y-190961023D01*
X63169558Y-190913360D01*
X63186200Y-190853369D01*
X63198108Y-190780956D01*
X63205277Y-190696027D01*
X63207699Y-190598488D01*
X63205369Y-190488244D01*
X63198280Y-190365200D01*
X63186427Y-190229263D01*
X63169804Y-190080337D01*
X63148404Y-189918329D01*
X63122220Y-189743144D01*
X63091248Y-189554687D01*
X63055481Y-189352865D01*
X63014913Y-189137582D01*
X62969537Y-188908745D01*
X62947359Y-188800408D01*
X62937135Y-188751173D01*
X62927701Y-188706207D01*
X62919504Y-188667610D01*
X62912993Y-188637483D01*
X62908616Y-188617926D01*
X62907017Y-188611500D01*
X62905607Y-188609070D01*
X62902329Y-188606971D01*
X62896194Y-188605178D01*
X62886210Y-188603667D01*
X62871387Y-188602414D01*
X62850733Y-188601395D01*
X62823258Y-188600587D01*
X62787971Y-188599965D01*
X62743882Y-188599505D01*
X62689999Y-188599183D01*
X62625332Y-188598976D01*
X62548890Y-188598859D01*
X62459682Y-188598809D01*
X62382232Y-188598800D01*
X61861385Y-188598800D01*
X61856578Y-188872130D01*
X61855660Y-188932503D01*
X61854799Y-189004877D01*
X61854013Y-189086738D01*
X61853318Y-189175573D01*
X61852731Y-189268868D01*
X61852269Y-189364111D01*
X61851949Y-189458787D01*
X61851788Y-189550384D01*
X61851772Y-189587711D01*
X60392661Y-189587711D01*
X60392949Y-189527764D01*
X60393493Y-189405806D01*
X60393799Y-189331771D01*
X60396715Y-188602428D01*
X59086800Y-188598800D01*
X57776886Y-188595171D01*
X57744229Y-188575923D01*
X57705041Y-188544526D01*
X57674060Y-188501860D01*
X57651991Y-188449081D01*
X57642668Y-188409371D01*
X57640834Y-188391619D01*
X57639317Y-188361287D01*
X57638114Y-188318106D01*
X57637222Y-188261810D01*
X57636639Y-188192132D01*
X57636362Y-188108804D01*
X57636387Y-188011560D01*
X57636712Y-187900131D01*
X57636827Y-187873086D01*
X57639000Y-187383228D01*
X57655571Y-187342247D01*
X57676152Y-187302785D01*
X57703541Y-187266372D01*
X57734260Y-187237120D01*
X57756738Y-187222674D01*
X57761342Y-187220620D01*
X57766968Y-187218777D01*
X57774408Y-187217129D01*
X57784453Y-187215661D01*
X57797895Y-187214358D01*
X57815523Y-187213205D01*
X57838130Y-187212185D01*
X57866506Y-187211285D01*
X57901443Y-187210488D01*
X57943732Y-187209780D01*
X57994163Y-187209145D01*
X58053529Y-187208567D01*
X58122619Y-187208032D01*
X58202226Y-187207524D01*
X58293141Y-187207029D01*
X58396153Y-187206529D01*
X58512056Y-187206011D01*
X58641639Y-187205459D01*
X58648968Y-187205428D01*
X59513793Y-187201800D01*
X59085631Y-186015257D01*
X59031726Y-185865858D01*
X58982537Y-185729479D01*
X58937846Y-185605491D01*
X58897434Y-185493264D01*
X58861086Y-185392168D01*
X58828581Y-185301573D01*
X58799703Y-185220851D01*
X58774234Y-185149370D01*
X58751955Y-185086502D01*
X58732650Y-185031617D01*
X58716100Y-184984084D01*
X58702087Y-184943275D01*
X58690394Y-184908560D01*
X58680802Y-184879308D01*
X58673095Y-184854890D01*
X58667053Y-184834677D01*
X58662460Y-184818039D01*
X58659097Y-184804345D01*
X58656746Y-184792967D01*
X58655191Y-184783274D01*
X58654212Y-184774638D01*
X58653592Y-184766427D01*
X58653585Y-184766315D01*
X58654336Y-184706305D01*
X58664956Y-184650290D01*
X58686302Y-184596397D01*
X58719232Y-184542750D01*
X58764602Y-184487474D01*
X58795911Y-184454962D01*
X58862327Y-184395454D01*
X58939761Y-184337872D01*
X59028765Y-184281925D01*
X59129891Y-184227323D01*
X59243691Y-184173774D01*
X59370716Y-184120989D01*
X59511517Y-184068676D01*
X59562143Y-184051110D01*
X59715186Y-184002032D01*
X59880214Y-183954964D01*
X60054772Y-183910419D01*
X60236410Y-183868910D01*
X60422674Y-183830950D01*
X60611112Y-183797052D01*
X60799270Y-183767729D01*
X60984696Y-183743496D01*
X61084974Y-183732487D01*
X61134604Y-183727428D01*
X61109385Y-183762814D01*
X61078378Y-183811946D01*
X61046496Y-183872896D01*
X61014854Y-183943103D01*
X60984565Y-184020007D01*
X60956746Y-184101048D01*
X60944122Y-184142282D01*
X60905862Y-184290942D01*
X60874769Y-184451264D01*
X60850885Y-184622263D01*
X60834252Y-184802958D01*
X60824914Y-184992364D01*
X60822913Y-185189498D01*
X60828289Y-185393376D01*
X60841087Y-185603015D01*
X60861349Y-185817432D01*
X60869141Y-185884628D01*
X60894034Y-186070747D01*
X60924663Y-186266417D01*
X60960365Y-186468160D01*
X61000479Y-186672500D01*
X61044342Y-186875960D01*
X61091291Y-187075061D01*
X61110351Y-187151000D01*
X61123331Y-187201800D01*
X61212601Y-187203844D01*
X61301870Y-187205888D01*
X61298443Y-187182073D01*
X61295858Y-187168681D01*
X61290359Y-187143355D01*
X61282444Y-187108268D01*
X61272607Y-187065593D01*
X61261344Y-187017506D01*
X61250828Y-186973200D01*
X61180361Y-186656598D01*
X61121208Y-186343488D01*
X61072647Y-186029487D01*
X61033958Y-185710213D01*
X61020394Y-185572571D01*
X61016509Y-185521719D01*
X61013071Y-185459789D01*
X61010115Y-185389229D01*
X61007677Y-185312486D01*
X61005790Y-185232007D01*
X61004490Y-185150238D01*
X61003812Y-185069627D01*
X61003797Y-185014906D01*
X62086527Y-185014906D01*
X62095396Y-185086543D01*
X62116143Y-185156110D01*
X62148803Y-185221826D01*
X62193408Y-185281909D01*
X62207575Y-185297006D01*
X62264977Y-185345376D01*
X62328580Y-185380865D01*
X62397350Y-185403170D01*
X62470252Y-185411993D01*
X62546253Y-185407034D01*
X62571180Y-185402462D01*
X62637893Y-185381217D01*
X62698471Y-185347958D01*
X62751959Y-185304230D01*
X62797404Y-185251577D01*
X62833849Y-185191544D01*
X62860340Y-185125675D01*
X62875923Y-185055516D01*
X62879641Y-184982610D01*
X62872031Y-184915800D01*
X62850914Y-184841357D01*
X62817871Y-184774829D01*
X62772245Y-184714980D01*
X62755946Y-184698086D01*
X62698324Y-184649792D01*
X62637024Y-184615304D01*
X62570864Y-184594131D01*
X62498661Y-184585780D01*
X62485604Y-184585600D01*
X62410279Y-184591721D01*
X62341725Y-184610411D01*
X62278665Y-184642162D01*
X62219820Y-184687465D01*
X62219168Y-184688062D01*
X62169155Y-184743312D01*
X62130850Y-184805404D01*
X62104288Y-184872555D01*
X62089502Y-184942983D01*
X62086527Y-185014906D01*
X61003797Y-185014906D01*
X61003790Y-184992622D01*
X61004460Y-184921669D01*
X61005856Y-184859214D01*
X61008012Y-184807707D01*
X61009237Y-184788800D01*
X61025802Y-184617529D01*
X61049035Y-184458898D01*
X61079047Y-184312598D01*
X61115948Y-184178319D01*
X61159850Y-184055752D01*
X61210864Y-183944588D01*
X61269101Y-183844518D01*
X61334673Y-183755231D01*
X61407690Y-183676420D01*
X61409958Y-183674251D01*
X61491661Y-183604284D01*
X61586518Y-183537132D01*
X61693362Y-183473258D01*
X61811024Y-183413125D01*
X61938337Y-183357195D01*
X62074132Y-183305932D01*
X62217242Y-183259798D01*
X62366499Y-183219255D01*
X62520734Y-183184768D01*
X62678780Y-183156799D01*
X62737143Y-183148310D01*
X62796280Y-183141575D01*
X62864705Y-183136051D01*
X62939066Y-183131829D01*
X63016006Y-183128999D01*
X63092174Y-183127649D01*
X63164215Y-183127869D01*
X63228776Y-183129750D01*
X63282501Y-183133380D01*
X63285403Y-183133665D01*
X63392167Y-183147756D01*
X63491574Y-183167652D01*
X63581694Y-183192862D01*
X63660597Y-183222898D01*
X63688364Y-183236041D01*
X63710933Y-183246834D01*
X63727916Y-183253831D01*
X63735751Y-183255570D01*
X63735817Y-183255517D01*
X63736394Y-183247606D01*
X63735966Y-183227871D01*
X63734639Y-183198956D01*
X63732521Y-183163508D01*
X63731469Y-183147999D01*
X63714390Y-182980935D01*
X63687168Y-182823657D01*
X63649681Y-182676052D01*
X63601804Y-182538007D01*
X63543414Y-182409412D01*
X63474388Y-182290153D01*
X63394602Y-182180119D01*
X63303932Y-182079197D01*
X63202256Y-181987275D01*
X63089449Y-181904242D01*
X62965388Y-181829984D01*
X62829950Y-181764391D01*
X62683011Y-181707349D01*
X62524448Y-181658747D01*
X62354137Y-181618472D01*
X62171954Y-181586412D01*
X61986029Y-181563286D01*
X61909837Y-181556484D01*
X61823092Y-181550353D01*
X61728188Y-181544953D01*
X61627519Y-181540344D01*
X61523480Y-181536586D01*
X61418464Y-181533739D01*
X61314866Y-181531864D01*
X61215080Y-181531020D01*
X61121500Y-181531268D01*
X61036522Y-181532668D01*
X60962538Y-181535280D01*
X60933743Y-181536850D01*
X60692441Y-181557652D01*
X60444048Y-181590412D01*
X60189242Y-181634826D01*
X59928702Y-181690591D01*
X59663105Y-181757407D01*
X59393131Y-181834968D01*
X59119458Y-181922974D01*
X58842763Y-182021121D01*
X58563726Y-182129108D01*
X58283024Y-182246630D01*
X58001336Y-182373386D01*
X57719340Y-182509073D01*
X57437715Y-182653389D01*
X57157139Y-182806030D01*
X56878290Y-182966695D01*
X56601847Y-183135080D01*
X56328488Y-183310883D01*
X56058891Y-183493802D01*
X55793734Y-183683533D01*
X55533696Y-183879775D01*
X55342094Y-184031322D01*
X55136892Y-184201540D01*
X54934619Y-184378366D01*
X54737246Y-184559915D01*
X54546739Y-184744300D01*
X54365069Y-184929635D01*
X54194203Y-185114035D01*
X54097008Y-185224228D01*
X53931419Y-185422921D01*
X53777750Y-185622111D01*
X53636218Y-185821387D01*
X53507045Y-186020336D01*
X53390449Y-186218545D01*
X53286651Y-186415602D01*
X53195870Y-186611094D01*
X53118325Y-186804609D01*
X53054238Y-186995734D01*
X53003826Y-187184057D01*
X52973207Y-187334047D01*
X52966060Y-187376878D01*
X52959434Y-187420132D01*
X52954007Y-187459143D01*
X52950460Y-187489241D01*
X52950137Y-187492647D01*
X52945118Y-187548027D01*
X52981522Y-187521873D01*
X53036181Y-187487203D01*
X53103379Y-187452285D01*
X53181175Y-187417859D01*
X53267628Y-187384663D01*
X53360796Y-187353437D01*
X53458739Y-187324921D01*
X53559515Y-187299855D01*
X53571372Y-187297188D01*
X53651429Y-187280991D01*
X53732056Y-187267677D01*
X53811316Y-187257372D01*
X53887277Y-187250201D01*
X53958004Y-187246291D01*
X54021563Y-187245766D01*
X54076022Y-187248752D01*
X54119444Y-187255374D01*
X54137413Y-187260433D01*
X54165403Y-187272639D01*
X54181314Y-187286004D01*
X54185047Y-187292514D01*
X54186458Y-187301157D01*
X54187525Y-187319969D01*
X54188246Y-187349410D01*
X54188619Y-187389941D01*
X54188642Y-187442022D01*
X54188314Y-187506114D01*
X54187633Y-187582678D01*
X54186598Y-187672174D01*
X54185206Y-187775064D01*
X54183455Y-187891806D01*
X54182604Y-187945657D01*
X54181046Y-188040368D01*
X54179481Y-188130886D01*
X54177930Y-188216165D01*
X54176417Y-188295159D01*
X54174964Y-188366821D01*
X54173593Y-188430104D01*
X54172328Y-188483963D01*
X54171190Y-188527351D01*
X54170202Y-188559221D01*
X54169387Y-188578527D01*
X54168840Y-188584286D01*
X54161214Y-188584850D01*
X54140116Y-188585439D01*
X54106587Y-188586044D01*
X54061669Y-188586655D01*
X54006404Y-188587261D01*
X53941834Y-188587854D01*
X53869000Y-188588424D01*
X53788944Y-188588961D01*
X53702708Y-188589456D01*
X53611334Y-188589898D01*
X53524548Y-188590247D01*
X52883842Y-188592580D01*
X52879327Y-188630161D01*
X52877173Y-188655706D01*
X52875560Y-188689299D01*
X52874779Y-188724479D01*
X52874749Y-188731203D01*
X52874686Y-188794663D01*
X52664015Y-188794663D01*
X52667022Y-188678164D01*
X52684483Y-188268313D01*
X52708532Y-187870209D01*
X52726126Y-187637228D01*
X52740500Y-187487748D01*
X52758663Y-187349151D01*
X52781277Y-187218148D01*
X52809002Y-187091447D01*
X52842499Y-186965760D01*
X52882430Y-186837796D01*
X52893076Y-186806286D01*
X52969247Y-186603756D01*
X53059517Y-186399412D01*
X53163626Y-186193566D01*
X53281316Y-185986529D01*
X53412327Y-185778612D01*
X53556400Y-185570124D01*
X53713275Y-185361379D01*
X53882694Y-185152685D01*
X54064398Y-184944355D01*
X54258126Y-184736699D01*
X54463621Y-184530029D01*
X54680622Y-184324654D01*
X54908870Y-184120887D01*
X55148107Y-183919038D01*
X55398073Y-183719417D01*
X55585229Y-183576735D01*
X55849771Y-183384150D01*
X56119463Y-183198053D01*
X56393568Y-183018767D01*
X56671348Y-182846612D01*
X56952066Y-182681910D01*
X57234983Y-182524984D01*
X57519361Y-182376154D01*
X57804464Y-182235743D01*
X58089553Y-182104072D01*
X58373890Y-181981462D01*
X58656738Y-181868236D01*
X58937360Y-181764715D01*
X59215017Y-181671221D01*
X59488971Y-181588075D01*
X59758485Y-181515599D01*
X60022822Y-181454115D01*
X60281243Y-181403945D01*
X60533011Y-181365409D01*
X60701630Y-181345856D01*
X60827343Y-181335470D01*
X60964504Y-181328120D01*
X61110380Y-181323745D01*
X61262238Y-181322287D01*
X61417347Y-181323686D01*
G36*
X59236147Y-155918271D02*
X60467753Y-156004639D01*
X61562029Y-156152415D01*
X62548586Y-156366528D01*
X63457037Y-156651911D01*
X64162200Y-156941538D01*
X64544158Y-157122912D01*
X64769625Y-157245814D01*
X64831747Y-157303570D01*
X64723670Y-157289504D01*
X64438540Y-157196941D01*
X64416200Y-157188942D01*
X63369001Y-156886481D01*
X62175955Y-156670157D01*
X60874963Y-156539347D01*
X59503924Y-156493430D01*
X58100739Y-156531781D01*
X56703308Y-156653779D01*
X55349531Y-156858801D01*
X54077308Y-157146225D01*
X53329622Y-157371044D01*
X52029231Y-157876701D01*
X50915180Y-158460264D01*
X49987857Y-159121380D01*
X49247653Y-159859700D01*
X48694956Y-160674871D01*
X48330154Y-161566542D01*
X48230642Y-161976000D01*
X48110831Y-162585600D01*
X47881696Y-162085445D01*
X47704929Y-161465457D01*
X47709824Y-160805241D01*
X47884181Y-160125461D01*
X48215799Y-159446782D01*
X48692479Y-158789869D01*
X49302020Y-158175388D01*
X50032223Y-157624002D01*
X50760205Y-157209707D01*
X51723638Y-156784575D01*
X52718308Y-156449332D01*
X53776038Y-156198035D01*
X54928649Y-156024743D01*
X56207962Y-155923517D01*
X57645801Y-155888415D01*
X57837600Y-155888379D01*
X59236147Y-155918271D01*
X59236147Y-155918271D01*
G37*
X59236147Y-155918271D02*
X60467753Y-156004639D01*
X61562029Y-156152415D01*
X62548586Y-156366528D01*
X63457037Y-156651911D01*
X64162200Y-156941538D01*
X64544158Y-157122912D01*
X64769625Y-157245814D01*
X64831747Y-157303570D01*
X64723670Y-157289504D01*
X64438540Y-157196941D01*
X64416200Y-157188942D01*
X63369001Y-156886481D01*
X62175955Y-156670157D01*
X60874963Y-156539347D01*
X59503924Y-156493430D01*
X58100739Y-156531781D01*
X56703308Y-156653779D01*
X55349531Y-156858801D01*
X54077308Y-157146225D01*
X53329622Y-157371044D01*
X52029231Y-157876701D01*
X50915180Y-158460264D01*
X49987857Y-159121380D01*
X49247653Y-159859700D01*
X48694956Y-160674871D01*
X48330154Y-161566542D01*
X48230642Y-161976000D01*
X48110831Y-162585600D01*
X47881696Y-162085445D01*
X47704929Y-161465457D01*
X47709824Y-160805241D01*
X47884181Y-160125461D01*
X48215799Y-159446782D01*
X48692479Y-158789869D01*
X49302020Y-158175388D01*
X50032223Y-157624002D01*
X50760205Y-157209707D01*
X51723638Y-156784575D01*
X52718308Y-156449332D01*
X53776038Y-156198035D01*
X54928649Y-156024743D01*
X56207962Y-155923517D01*
X57645801Y-155888415D01*
X57837600Y-155888379D01*
X59236147Y-155918271D01*
G36*
X68099200Y-164770000D02*
X66676800Y-164770000D01*
X66676800Y-159385200D01*
X68099200Y-159385200D01*
X68099200Y-164770000D01*
X68099200Y-164770000D01*
G37*
X68099200Y-164770000D02*
X66676800Y-164770000D01*
X66676800Y-159385200D01*
X68099200Y-159385200D01*
X68099200Y-164770000D01*
G36*
X65471994Y-161018363D02*
X65559514Y-161061762D01*
X65738780Y-161190498D01*
X65872138Y-161383779D01*
X65965594Y-161669035D01*
X66025154Y-162073699D01*
X66056825Y-162625201D01*
X66066614Y-163350972D01*
X66066633Y-163377848D01*
X66067200Y-164779696D01*
X64797200Y-164719200D01*
X64746400Y-163609751D01*
X64708523Y-163030011D01*
X64657113Y-162651684D01*
X64591963Y-162473420D01*
X64571996Y-162459416D01*
X64513410Y-162499356D01*
X64470560Y-162677861D01*
X64440543Y-163016054D01*
X64420460Y-163535059D01*
X64419596Y-163568865D01*
X64390800Y-164719200D01*
X63171600Y-164719200D01*
X63142803Y-163568865D01*
X63123176Y-163039426D01*
X63093774Y-162691948D01*
X63051696Y-162505307D01*
X62994041Y-162458378D01*
X62990403Y-162459416D01*
X62921510Y-162583908D01*
X62866411Y-162908099D01*
X62824902Y-163433337D01*
X62816000Y-163609751D01*
X62765200Y-164719200D01*
X61495200Y-164779696D01*
X61495200Y-161010800D01*
X62107988Y-161010800D01*
X62482424Y-161026048D01*
X62694629Y-161077866D01*
X62780941Y-161167586D01*
X62847567Y-161270398D01*
X62956784Y-161218686D01*
X63006353Y-161175501D01*
X63231927Y-161036844D01*
X63448442Y-160957543D01*
X63664312Y-160942406D01*
X63863789Y-161042546D01*
X64032642Y-161195812D01*
X64340000Y-161503169D01*
X64636984Y-161206184D01*
X64912469Y-160981347D01*
X65165598Y-160922686D01*
X65471994Y-161018363D01*
X65471994Y-161018363D01*
G37*
X65471994Y-161018363D02*
X65559514Y-161061762D01*
X65738780Y-161190498D01*
X65872138Y-161383779D01*
X65965594Y-161669035D01*
X66025154Y-162073699D01*
X66056825Y-162625201D01*
X66066614Y-163350972D01*
X66066633Y-163377848D01*
X66067200Y-164779696D01*
X64797200Y-164719200D01*
X64746400Y-163609751D01*
X64708523Y-163030011D01*
X64657113Y-162651684D01*
X64591963Y-162473420D01*
X64571996Y-162459416D01*
X64513410Y-162499356D01*
X64470560Y-162677861D01*
X64440543Y-163016054D01*
X64420460Y-163535059D01*
X64419596Y-163568865D01*
X64390800Y-164719200D01*
X63171600Y-164719200D01*
X63142803Y-163568865D01*
X63123176Y-163039426D01*
X63093774Y-162691948D01*
X63051696Y-162505307D01*
X62994041Y-162458378D01*
X62990403Y-162459416D01*
X62921510Y-162583908D01*
X62866411Y-162908099D01*
X62824902Y-163433337D01*
X62816000Y-163609751D01*
X62765200Y-164719200D01*
X61495200Y-164779696D01*
X61495200Y-161010800D01*
X62107988Y-161010800D01*
X62482424Y-161026048D01*
X62694629Y-161077866D01*
X62780941Y-161167586D01*
X62847567Y-161270398D01*
X62956784Y-161218686D01*
X63006353Y-161175501D01*
X63231927Y-161036844D01*
X63448442Y-160957543D01*
X63664312Y-160942406D01*
X63863789Y-161042546D01*
X64032642Y-161195812D01*
X64340000Y-161503169D01*
X64636984Y-161206184D01*
X64912469Y-160981347D01*
X65165598Y-160922686D01*
X65471994Y-161018363D01*
G36*
X59780279Y-159544917D02*
X59836768Y-159560522D01*
X59929849Y-159598769D01*
X60009212Y-159661348D01*
X60083910Y-159772978D01*
X60162997Y-159958377D01*
X60255525Y-160242263D01*
X60370549Y-160649353D01*
X60517121Y-161204366D01*
X60701814Y-161922331D01*
X60871756Y-162587870D01*
X61027727Y-163202008D01*
X61161584Y-163732412D01*
X61265182Y-164146748D01*
X61330376Y-164412683D01*
X61345968Y-164479624D01*
X61409745Y-164770000D01*
X60741272Y-164770000D01*
X60380457Y-164763457D01*
X60178338Y-164735171D01*
X60090598Y-164672150D01*
X60072800Y-164574057D01*
X59982491Y-164302558D01*
X59735513Y-164122485D01*
X59379742Y-164060355D01*
X59032517Y-164090442D01*
X58836808Y-164196453D01*
X58746402Y-164407492D01*
X58736842Y-164465200D01*
X58701155Y-164605145D01*
X58610790Y-164685188D01*
X58416326Y-164726272D01*
X58068345Y-164749345D01*
X58066200Y-164749448D01*
X57715199Y-164758693D01*
X57522135Y-164737289D01*
X57442780Y-164675075D01*
X57431200Y-164603577D01*
X57455986Y-164459367D01*
X57525635Y-164147858D01*
X57633080Y-163698205D01*
X57771254Y-163139561D01*
X57857474Y-162799403D01*
X59083324Y-162799403D01*
X59098655Y-162903726D01*
X59237629Y-163016237D01*
X59386545Y-163024525D01*
X59535634Y-162972833D01*
X59599085Y-162834863D01*
X59608164Y-162585600D01*
X59579107Y-162183706D01*
X59515405Y-161859421D01*
X59428935Y-161660257D01*
X59366867Y-161620400D01*
X59295966Y-161710718D01*
X59218631Y-161938516D01*
X59148392Y-162239055D01*
X59098780Y-162547596D01*
X59083324Y-162799403D01*
X57857474Y-162799403D01*
X57933091Y-162501081D01*
X58059509Y-162011348D01*
X58687818Y-159595239D01*
X59119958Y-159530436D01*
X59466182Y-159511157D01*
X59780279Y-159544917D01*
X59780279Y-159544917D01*
G37*
X59780279Y-159544917D02*
X59836768Y-159560522D01*
X59929849Y-159598769D01*
X60009212Y-159661348D01*
X60083910Y-159772978D01*
X60162997Y-159958377D01*
X60255525Y-160242263D01*
X60370549Y-160649353D01*
X60517121Y-161204366D01*
X60701814Y-161922331D01*
X60871756Y-162587870D01*
X61027727Y-163202008D01*
X61161584Y-163732412D01*
X61265182Y-164146748D01*
X61330376Y-164412683D01*
X61345968Y-164479624D01*
X61409745Y-164770000D01*
X60741272Y-164770000D01*
X60380457Y-164763457D01*
X60178338Y-164735171D01*
X60090598Y-164672150D01*
X60072800Y-164574057D01*
X59982491Y-164302558D01*
X59735513Y-164122485D01*
X59379742Y-164060355D01*
X59032517Y-164090442D01*
X58836808Y-164196453D01*
X58746402Y-164407492D01*
X58736842Y-164465200D01*
X58701155Y-164605145D01*
X58610790Y-164685188D01*
X58416326Y-164726272D01*
X58068345Y-164749345D01*
X58066200Y-164749448D01*
X57715199Y-164758693D01*
X57522135Y-164737289D01*
X57442780Y-164675075D01*
X57431200Y-164603577D01*
X57455986Y-164459367D01*
X57525635Y-164147858D01*
X57633080Y-163698205D01*
X57771254Y-163139561D01*
X57857474Y-162799403D01*
X59083324Y-162799403D01*
X59098655Y-162903726D01*
X59237629Y-163016237D01*
X59386545Y-163024525D01*
X59535634Y-162972833D01*
X59599085Y-162834863D01*
X59608164Y-162585600D01*
X59579107Y-162183706D01*
X59515405Y-161859421D01*
X59428935Y-161660257D01*
X59366867Y-161620400D01*
X59295966Y-161710718D01*
X59218631Y-161938516D01*
X59148392Y-162239055D01*
X59098780Y-162547596D01*
X59083324Y-162799403D01*
X57857474Y-162799403D01*
X57933091Y-162501081D01*
X58059509Y-162011348D01*
X58687818Y-159595239D01*
X59119958Y-159530436D01*
X59466182Y-159511157D01*
X59780279Y-159544917D01*
G36*
X57227650Y-158332682D02*
X57374638Y-158493406D01*
X57506216Y-158818949D01*
X57513487Y-159257895D01*
X57396784Y-159833959D01*
X57393570Y-159845658D01*
X57302964Y-160173641D01*
X57179228Y-160620913D01*
X57043535Y-161110955D01*
X56986831Y-161315600D01*
X56798819Y-162161494D01*
X56680388Y-163048477D01*
X56662405Y-163296800D01*
X56626208Y-163879223D01*
X56589804Y-164287740D01*
X56547338Y-164551565D01*
X56492957Y-164699913D01*
X56420809Y-164761999D01*
X56367239Y-164770000D01*
X56232912Y-164673166D01*
X56125383Y-164399537D01*
X56050379Y-163974425D01*
X56013628Y-163423138D01*
X56010868Y-163195200D01*
X56031748Y-162656808D01*
X56099282Y-162110395D01*
X56222708Y-161509628D01*
X56411265Y-160808173D01*
X56626284Y-160108680D01*
X56751313Y-159700600D01*
X56842281Y-159370558D01*
X56887751Y-159162110D01*
X56887796Y-159112729D01*
X56808486Y-159137155D01*
X56662580Y-159311495D01*
X56444719Y-159643948D01*
X56149547Y-160142714D01*
X55771704Y-160815992D01*
X55754800Y-160846661D01*
X55282719Y-161675527D01*
X54882873Y-162316702D01*
X54554015Y-162771945D01*
X54294897Y-163043014D01*
X54135554Y-163128726D01*
X54028375Y-163129948D01*
X53981514Y-163049144D01*
X53983323Y-162841200D01*
X54004553Y-162621393D01*
X54059886Y-162300048D01*
X54164535Y-161851046D01*
X54302400Y-161339112D01*
X54426240Y-160926314D01*
X54567645Y-160474908D01*
X54683347Y-160099139D01*
X54761334Y-159838466D01*
X54789600Y-159732514D01*
X54746922Y-159682341D01*
X54628274Y-159789968D01*
X54447731Y-160031038D01*
X54219372Y-160381192D01*
X53957272Y-160816073D01*
X53675508Y-161311322D01*
X53388158Y-161842582D01*
X53109297Y-162385494D01*
X52853002Y-162915701D01*
X52633351Y-163408845D01*
X52556132Y-163597239D01*
X52308571Y-164193756D01*
X52079583Y-164695005D01*
X51881966Y-165076034D01*
X51728519Y-165311893D01*
X51641863Y-165379600D01*
X51522444Y-165300519D01*
X51440374Y-165183079D01*
X51345855Y-164830482D01*
X51345881Y-164322157D01*
X51436506Y-163680111D01*
X51613785Y-162926353D01*
X51873773Y-162082891D01*
X52115196Y-161418829D01*
X52362722Y-160766388D01*
X52536045Y-160280310D01*
X52640727Y-159940066D01*
X52682333Y-159725131D01*
X52666426Y-159614978D01*
X52611328Y-159588400D01*
X52448878Y-159660138D01*
X52192816Y-159852152D01*
X51880835Y-160129637D01*
X51550628Y-160457790D01*
X51239887Y-160801809D01*
X51072246Y-161009494D01*
X50815290Y-161328187D01*
X50649195Y-161481834D01*
X50557496Y-161477929D01*
X50523724Y-161323968D01*
X50522400Y-161259754D01*
X50566375Y-160973640D01*
X50712150Y-160671026D01*
X50980491Y-160320004D01*
X51392170Y-159888667D01*
X51454592Y-159827660D01*
X51965794Y-159367449D01*
X52394407Y-159066043D01*
X52764021Y-158908997D01*
X53006554Y-158877200D01*
X53163149Y-158894106D01*
X53239316Y-158980342D01*
X53263608Y-159189181D01*
X53265223Y-159359800D01*
X53223816Y-159712928D01*
X53104895Y-160221425D01*
X52915788Y-160856020D01*
X52813754Y-161163200D01*
X52658918Y-161625812D01*
X52541233Y-161995808D01*
X52469569Y-162243715D01*
X52452794Y-162340063D01*
X52462144Y-162331600D01*
X52547659Y-162187081D01*
X52708131Y-161904398D01*
X52920999Y-161523658D01*
X53163702Y-161084965D01*
X53176562Y-161061600D01*
X53650300Y-160236539D01*
X54064057Y-159595511D01*
X54424766Y-159130680D01*
X54739358Y-158834212D01*
X55014767Y-158698274D01*
X55254237Y-158713595D01*
X55351350Y-158785272D01*
X55391966Y-158935887D01*
X55385504Y-159216746D01*
X55373251Y-159361951D01*
X55304949Y-159798570D01*
X55188481Y-160284020D01*
X55105335Y-160550078D01*
X54970930Y-160947896D01*
X54912113Y-161168771D01*
X54930590Y-161211144D01*
X55028072Y-161073455D01*
X55206266Y-160754146D01*
X55466880Y-160251658D01*
X55496743Y-160192846D01*
X55874511Y-159495806D01*
X56208272Y-158983845D01*
X56505520Y-158645481D01*
X56507767Y-158643446D01*
X56822389Y-158387847D01*
X57049902Y-158286413D01*
X57227650Y-158332682D01*
X57227650Y-158332682D01*
G37*
X57227650Y-158332682D02*
X57374638Y-158493406D01*
X57506216Y-158818949D01*
X57513487Y-159257895D01*
X57396784Y-159833959D01*
X57393570Y-159845658D01*
X57302964Y-160173641D01*
X57179228Y-160620913D01*
X57043535Y-161110955D01*
X56986831Y-161315600D01*
X56798819Y-162161494D01*
X56680388Y-163048477D01*
X56662405Y-163296800D01*
X56626208Y-163879223D01*
X56589804Y-164287740D01*
X56547338Y-164551565D01*
X56492957Y-164699913D01*
X56420809Y-164761999D01*
X56367239Y-164770000D01*
X56232912Y-164673166D01*
X56125383Y-164399537D01*
X56050379Y-163974425D01*
X56013628Y-163423138D01*
X56010868Y-163195200D01*
X56031748Y-162656808D01*
X56099282Y-162110395D01*
X56222708Y-161509628D01*
X56411265Y-160808173D01*
X56626284Y-160108680D01*
X56751313Y-159700600D01*
X56842281Y-159370558D01*
X56887751Y-159162110D01*
X56887796Y-159112729D01*
X56808486Y-159137155D01*
X56662580Y-159311495D01*
X56444719Y-159643948D01*
X56149547Y-160142714D01*
X55771704Y-160815992D01*
X55754800Y-160846661D01*
X55282719Y-161675527D01*
X54882873Y-162316702D01*
X54554015Y-162771945D01*
X54294897Y-163043014D01*
X54135554Y-163128726D01*
X54028375Y-163129948D01*
X53981514Y-163049144D01*
X53983323Y-162841200D01*
X54004553Y-162621393D01*
X54059886Y-162300048D01*
X54164535Y-161851046D01*
X54302400Y-161339112D01*
X54426240Y-160926314D01*
X54567645Y-160474908D01*
X54683347Y-160099139D01*
X54761334Y-159838466D01*
X54789600Y-159732514D01*
X54746922Y-159682341D01*
X54628274Y-159789968D01*
X54447731Y-160031038D01*
X54219372Y-160381192D01*
X53957272Y-160816073D01*
X53675508Y-161311322D01*
X53388158Y-161842582D01*
X53109297Y-162385494D01*
X52853002Y-162915701D01*
X52633351Y-163408845D01*
X52556132Y-163597239D01*
X52308571Y-164193756D01*
X52079583Y-164695005D01*
X51881966Y-165076034D01*
X51728519Y-165311893D01*
X51641863Y-165379600D01*
X51522444Y-165300519D01*
X51440374Y-165183079D01*
X51345855Y-164830482D01*
X51345881Y-164322157D01*
X51436506Y-163680111D01*
X51613785Y-162926353D01*
X51873773Y-162082891D01*
X52115196Y-161418829D01*
X52362722Y-160766388D01*
X52536045Y-160280310D01*
X52640727Y-159940066D01*
X52682333Y-159725131D01*
X52666426Y-159614978D01*
X52611328Y-159588400D01*
X52448878Y-159660138D01*
X52192816Y-159852152D01*
X51880835Y-160129637D01*
X51550628Y-160457790D01*
X51239887Y-160801809D01*
X51072246Y-161009494D01*
X50815290Y-161328187D01*
X50649195Y-161481834D01*
X50557496Y-161477929D01*
X50523724Y-161323968D01*
X50522400Y-161259754D01*
X50566375Y-160973640D01*
X50712150Y-160671026D01*
X50980491Y-160320004D01*
X51392170Y-159888667D01*
X51454592Y-159827660D01*
X51965794Y-159367449D01*
X52394407Y-159066043D01*
X52764021Y-158908997D01*
X53006554Y-158877200D01*
X53163149Y-158894106D01*
X53239316Y-158980342D01*
X53263608Y-159189181D01*
X53265223Y-159359800D01*
X53223816Y-159712928D01*
X53104895Y-160221425D01*
X52915788Y-160856020D01*
X52813754Y-161163200D01*
X52658918Y-161625812D01*
X52541233Y-161995808D01*
X52469569Y-162243715D01*
X52452794Y-162340063D01*
X52462144Y-162331600D01*
X52547659Y-162187081D01*
X52708131Y-161904398D01*
X52920999Y-161523658D01*
X53163702Y-161084965D01*
X53176562Y-161061600D01*
X53650300Y-160236539D01*
X54064057Y-159595511D01*
X54424766Y-159130680D01*
X54739358Y-158834212D01*
X55014767Y-158698274D01*
X55254237Y-158713595D01*
X55351350Y-158785272D01*
X55391966Y-158935887D01*
X55385504Y-159216746D01*
X55373251Y-159361951D01*
X55304949Y-159798570D01*
X55188481Y-160284020D01*
X55105335Y-160550078D01*
X54970930Y-160947896D01*
X54912113Y-161168771D01*
X54930590Y-161211144D01*
X55028072Y-161073455D01*
X55206266Y-160754146D01*
X55466880Y-160251658D01*
X55496743Y-160192846D01*
X55874511Y-159495806D01*
X56208272Y-158983845D01*
X56505520Y-158645481D01*
X56507767Y-158643446D01*
X56822389Y-158387847D01*
X57049902Y-158286413D01*
X57227650Y-158332682D01*
G36*
X53875200Y-167157600D02*
X53824400Y-167208400D01*
X53773600Y-167157600D01*
X53824400Y-167106800D01*
X53875200Y-167157600D01*
X53875200Y-167157600D01*
G37*
X53875200Y-167157600D02*
X53824400Y-167208400D01*
X53773600Y-167157600D01*
X53824400Y-167106800D01*
X53875200Y-167157600D01*
G36*
X70565295Y-162037180D02*
X70699963Y-162288991D01*
X70702183Y-162294288D01*
X70805736Y-162684782D01*
X70830002Y-163196548D01*
X70821987Y-163393800D01*
X70676425Y-164208382D01*
X70341650Y-164981431D01*
X69829252Y-165702534D01*
X69150821Y-166361279D01*
X68317948Y-166947251D01*
X67342222Y-167450037D01*
X66235234Y-167859225D01*
X65678811Y-168014754D01*
X64609203Y-168238835D01*
X63406138Y-168411346D01*
X62133906Y-168527475D01*
X60856794Y-168582413D01*
X59639093Y-168571349D01*
X58877794Y-168523669D01*
X58206477Y-168447857D01*
X57475859Y-168338431D01*
X56745699Y-168206539D01*
X56075756Y-168063329D01*
X55525790Y-167919948D01*
X55359483Y-167867328D01*
X55004571Y-167737985D01*
X54644200Y-167592402D01*
X54324738Y-167451284D01*
X54092552Y-167335336D01*
X53994012Y-167265264D01*
X53994931Y-167258001D01*
X54101807Y-167266606D01*
X54359721Y-167318639D01*
X54723563Y-167404470D01*
X54948535Y-167461568D01*
X55813580Y-167656307D01*
X56704230Y-167792774D01*
X57664167Y-167874755D01*
X58737073Y-167906040D01*
X59912395Y-167891933D01*
X61741181Y-167776284D01*
X63414828Y-167533226D01*
X64937380Y-167161650D01*
X66312881Y-166660444D01*
X67545375Y-166028495D01*
X68164331Y-165624385D01*
X68832300Y-165070066D01*
X69407296Y-164433376D01*
X69863532Y-163752054D01*
X70175222Y-163063837D01*
X70309120Y-162485532D01*
X70371107Y-162134850D01*
X70456087Y-161985600D01*
X70565295Y-162037180D01*
X70565295Y-162037180D01*
G37*
X70565295Y-162037180D02*
X70699963Y-162288991D01*
X70702183Y-162294288D01*
X70805736Y-162684782D01*
X70830002Y-163196548D01*
X70821987Y-163393800D01*
X70676425Y-164208382D01*
X70341650Y-164981431D01*
X69829252Y-165702534D01*
X69150821Y-166361279D01*
X68317948Y-166947251D01*
X67342222Y-167450037D01*
X66235234Y-167859225D01*
X65678811Y-168014754D01*
X64609203Y-168238835D01*
X63406138Y-168411346D01*
X62133906Y-168527475D01*
X60856794Y-168582413D01*
X59639093Y-168571349D01*
X58877794Y-168523669D01*
X58206477Y-168447857D01*
X57475859Y-168338431D01*
X56745699Y-168206539D01*
X56075756Y-168063329D01*
X55525790Y-167919948D01*
X55359483Y-167867328D01*
X55004571Y-167737985D01*
X54644200Y-167592402D01*
X54324738Y-167451284D01*
X54092552Y-167335336D01*
X53994012Y-167265264D01*
X53994931Y-167258001D01*
X54101807Y-167266606D01*
X54359721Y-167318639D01*
X54723563Y-167404470D01*
X54948535Y-167461568D01*
X55813580Y-167656307D01*
X56704230Y-167792774D01*
X57664167Y-167874755D01*
X58737073Y-167906040D01*
X59912395Y-167891933D01*
X61741181Y-167776284D01*
X63414828Y-167533226D01*
X64937380Y-167161650D01*
X66312881Y-166660444D01*
X67545375Y-166028495D01*
X68164331Y-165624385D01*
X68832300Y-165070066D01*
X69407296Y-164433376D01*
X69863532Y-163752054D01*
X70175222Y-163063837D01*
X70309120Y-162485532D01*
X70371107Y-162134850D01*
X70456087Y-161985600D01*
X70565295Y-162037180D01*
G04 #@! TO.C,U30*
D12*
X54581904Y-135662380D02*
X54581904Y-136471904D01*
X54629523Y-136567142D01*
X54677142Y-136614761D01*
X54772380Y-136662380D01*
X54962857Y-136662380D01*
X55058095Y-136614761D01*
X55105714Y-136567142D01*
X55153333Y-136471904D01*
X55153333Y-135662380D01*
X55534285Y-135662380D02*
X56153333Y-135662380D01*
X55820000Y-136043333D01*
X55962857Y-136043333D01*
X56058095Y-136090952D01*
X56105714Y-136138571D01*
X56153333Y-136233809D01*
X56153333Y-136471904D01*
X56105714Y-136567142D01*
X56058095Y-136614761D01*
X55962857Y-136662380D01*
X55677142Y-136662380D01*
X55581904Y-136614761D01*
X55534285Y-136567142D01*
X56772380Y-135662380D02*
X56867619Y-135662380D01*
X56962857Y-135710000D01*
X57010476Y-135757619D01*
X57058095Y-135852857D01*
X57105714Y-136043333D01*
X57105714Y-136281428D01*
X57058095Y-136471904D01*
X57010476Y-136567142D01*
X56962857Y-136614761D01*
X56867619Y-136662380D01*
X56772380Y-136662380D01*
X56677142Y-136614761D01*
X56629523Y-136567142D01*
X56581904Y-136471904D01*
X56534285Y-136281428D01*
X56534285Y-136043333D01*
X56581904Y-135852857D01*
X56629523Y-135757619D01*
X56677142Y-135710000D01*
X56772380Y-135662380D01*
G04 #@! TO.C,U1*
X49668095Y-248402380D02*
X49668095Y-249211904D01*
X49715714Y-249307142D01*
X49763333Y-249354761D01*
X49858571Y-249402380D01*
X50049047Y-249402380D01*
X50144285Y-249354761D01*
X50191904Y-249307142D01*
X50239523Y-249211904D01*
X50239523Y-248402380D01*
X51239523Y-249402380D02*
X50668095Y-249402380D01*
X50953809Y-249402380D02*
X50953809Y-248402380D01*
X50858571Y-248545238D01*
X50763333Y-248640476D01*
X50668095Y-248688095D01*
G04 #@! TO.C,U2*
X66438095Y-262402380D02*
X66438095Y-263211904D01*
X66485714Y-263307142D01*
X66533333Y-263354761D01*
X66628571Y-263402380D01*
X66819047Y-263402380D01*
X66914285Y-263354761D01*
X66961904Y-263307142D01*
X67009523Y-263211904D01*
X67009523Y-262402380D01*
X67438095Y-262497619D02*
X67485714Y-262450000D01*
X67580952Y-262402380D01*
X67819047Y-262402380D01*
X67914285Y-262450000D01*
X67961904Y-262497619D01*
X68009523Y-262592857D01*
X68009523Y-262688095D01*
X67961904Y-262830952D01*
X67390476Y-263402380D01*
X68009523Y-263402380D01*
G04 #@! TO.C,U3*
X60508095Y-286522380D02*
X60508095Y-287331904D01*
X60555714Y-287427142D01*
X60603333Y-287474761D01*
X60698571Y-287522380D01*
X60889047Y-287522380D01*
X60984285Y-287474761D01*
X61031904Y-287427142D01*
X61079523Y-287331904D01*
X61079523Y-286522380D01*
X61460476Y-286522380D02*
X62079523Y-286522380D01*
X61746190Y-286903333D01*
X61889047Y-286903333D01*
X61984285Y-286950952D01*
X62031904Y-286998571D01*
X62079523Y-287093809D01*
X62079523Y-287331904D01*
X62031904Y-287427142D01*
X61984285Y-287474761D01*
X61889047Y-287522380D01*
X61603333Y-287522380D01*
X61508095Y-287474761D01*
X61460476Y-287427142D01*
G04 #@! TO.C,U4*
X38208095Y-286422380D02*
X38208095Y-287231904D01*
X38255714Y-287327142D01*
X38303333Y-287374761D01*
X38398571Y-287422380D01*
X38589047Y-287422380D01*
X38684285Y-287374761D01*
X38731904Y-287327142D01*
X38779523Y-287231904D01*
X38779523Y-286422380D01*
X39684285Y-286755714D02*
X39684285Y-287422380D01*
X39446190Y-286374761D02*
X39208095Y-287089047D01*
X39827142Y-287089047D01*
G04 #@! TO.C,U5*
X31138095Y-262512380D02*
X31138095Y-263321904D01*
X31185714Y-263417142D01*
X31233333Y-263464761D01*
X31328571Y-263512380D01*
X31519047Y-263512380D01*
X31614285Y-263464761D01*
X31661904Y-263417142D01*
X31709523Y-263321904D01*
X31709523Y-262512380D01*
X32661904Y-262512380D02*
X32185714Y-262512380D01*
X32138095Y-262988571D01*
X32185714Y-262940952D01*
X32280952Y-262893333D01*
X32519047Y-262893333D01*
X32614285Y-262940952D01*
X32661904Y-262988571D01*
X32709523Y-263083809D01*
X32709523Y-263321904D01*
X32661904Y-263417142D01*
X32614285Y-263464761D01*
X32519047Y-263512380D01*
X32280952Y-263512380D01*
X32185714Y-263464761D01*
X32138095Y-263417142D01*
G04 #@! TO.C,U6*
X49168095Y-270332380D02*
X49168095Y-271141904D01*
X49215714Y-271237142D01*
X49263333Y-271284761D01*
X49358571Y-271332380D01*
X49549047Y-271332380D01*
X49644285Y-271284761D01*
X49691904Y-271237142D01*
X49739523Y-271141904D01*
X49739523Y-270332380D01*
X50644285Y-270332380D02*
X50453809Y-270332380D01*
X50358571Y-270380000D01*
X50310952Y-270427619D01*
X50215714Y-270570476D01*
X50168095Y-270760952D01*
X50168095Y-271141904D01*
X50215714Y-271237142D01*
X50263333Y-271284761D01*
X50358571Y-271332380D01*
X50549047Y-271332380D01*
X50644285Y-271284761D01*
X50691904Y-271237142D01*
X50739523Y-271141904D01*
X50739523Y-270903809D01*
X50691904Y-270808571D01*
X50644285Y-270760952D01*
X50549047Y-270713333D01*
X50358571Y-270713333D01*
X50263333Y-270760952D01*
X50215714Y-270808571D01*
X50168095Y-270903809D01*
G04 #@! TO.C,U7*
X33448095Y-237372380D02*
X33448095Y-238181904D01*
X33495714Y-238277142D01*
X33543333Y-238324761D01*
X33638571Y-238372380D01*
X33829047Y-238372380D01*
X33924285Y-238324761D01*
X33971904Y-238277142D01*
X34019523Y-238181904D01*
X34019523Y-237372380D01*
X34400476Y-237372380D02*
X35067142Y-237372380D01*
X34638571Y-238372380D01*
G04 #@! TO.C,U8*
X32928095Y-216592380D02*
X32928095Y-217401904D01*
X32975714Y-217497142D01*
X33023333Y-217544761D01*
X33118571Y-217592380D01*
X33309047Y-217592380D01*
X33404285Y-217544761D01*
X33451904Y-217497142D01*
X33499523Y-217401904D01*
X33499523Y-216592380D01*
X34118571Y-217020952D02*
X34023333Y-216973333D01*
X33975714Y-216925714D01*
X33928095Y-216830476D01*
X33928095Y-216782857D01*
X33975714Y-216687619D01*
X34023333Y-216640000D01*
X34118571Y-216592380D01*
X34309047Y-216592380D01*
X34404285Y-216640000D01*
X34451904Y-216687619D01*
X34499523Y-216782857D01*
X34499523Y-216830476D01*
X34451904Y-216925714D01*
X34404285Y-216973333D01*
X34309047Y-217020952D01*
X34118571Y-217020952D01*
X34023333Y-217068571D01*
X33975714Y-217116190D01*
X33928095Y-217211428D01*
X33928095Y-217401904D01*
X33975714Y-217497142D01*
X34023333Y-217544761D01*
X34118571Y-217592380D01*
X34309047Y-217592380D01*
X34404285Y-217544761D01*
X34451904Y-217497142D01*
X34499523Y-217401904D01*
X34499523Y-217211428D01*
X34451904Y-217116190D01*
X34404285Y-217068571D01*
X34309047Y-217020952D01*
G04 #@! TO.C,U9*
X32938095Y-195612380D02*
X32938095Y-196421904D01*
X32985714Y-196517142D01*
X33033333Y-196564761D01*
X33128571Y-196612380D01*
X33319047Y-196612380D01*
X33414285Y-196564761D01*
X33461904Y-196517142D01*
X33509523Y-196421904D01*
X33509523Y-195612380D01*
X34033333Y-196612380D02*
X34223809Y-196612380D01*
X34319047Y-196564761D01*
X34366666Y-196517142D01*
X34461904Y-196374285D01*
X34509523Y-196183809D01*
X34509523Y-195802857D01*
X34461904Y-195707619D01*
X34414285Y-195660000D01*
X34319047Y-195612380D01*
X34128571Y-195612380D01*
X34033333Y-195660000D01*
X33985714Y-195707619D01*
X33938095Y-195802857D01*
X33938095Y-196040952D01*
X33985714Y-196136190D01*
X34033333Y-196183809D01*
X34128571Y-196231428D01*
X34319047Y-196231428D01*
X34414285Y-196183809D01*
X34461904Y-196136190D01*
X34509523Y-196040952D01*
G04 #@! TO.C,U10*
X32261904Y-173452380D02*
X32261904Y-174261904D01*
X32309523Y-174357142D01*
X32357142Y-174404761D01*
X32452380Y-174452380D01*
X32642857Y-174452380D01*
X32738095Y-174404761D01*
X32785714Y-174357142D01*
X32833333Y-174261904D01*
X32833333Y-173452380D01*
X33833333Y-174452380D02*
X33261904Y-174452380D01*
X33547619Y-174452380D02*
X33547619Y-173452380D01*
X33452380Y-173595238D01*
X33357142Y-173690476D01*
X33261904Y-173738095D01*
X34452380Y-173452380D02*
X34547619Y-173452380D01*
X34642857Y-173500000D01*
X34690476Y-173547619D01*
X34738095Y-173642857D01*
X34785714Y-173833333D01*
X34785714Y-174071428D01*
X34738095Y-174261904D01*
X34690476Y-174357142D01*
X34642857Y-174404761D01*
X34547619Y-174452380D01*
X34452380Y-174452380D01*
X34357142Y-174404761D01*
X34309523Y-174357142D01*
X34261904Y-174261904D01*
X34214285Y-174071428D01*
X34214285Y-173833333D01*
X34261904Y-173642857D01*
X34309523Y-173547619D01*
X34357142Y-173500000D01*
X34452380Y-173452380D01*
G04 #@! TO.C,U11*
X28571904Y-150822380D02*
X28571904Y-151631904D01*
X28619523Y-151727142D01*
X28667142Y-151774761D01*
X28762380Y-151822380D01*
X28952857Y-151822380D01*
X29048095Y-151774761D01*
X29095714Y-151727142D01*
X29143333Y-151631904D01*
X29143333Y-150822380D01*
X30143333Y-151822380D02*
X29571904Y-151822380D01*
X29857619Y-151822380D02*
X29857619Y-150822380D01*
X29762380Y-150965238D01*
X29667142Y-151060476D01*
X29571904Y-151108095D01*
X31095714Y-151822380D02*
X30524285Y-151822380D01*
X30810000Y-151822380D02*
X30810000Y-150822380D01*
X30714761Y-150965238D01*
X30619523Y-151060476D01*
X30524285Y-151108095D01*
G04 #@! TO.C,U12*
X26851904Y-128702380D02*
X26851904Y-129511904D01*
X26899523Y-129607142D01*
X26947142Y-129654761D01*
X27042380Y-129702380D01*
X27232857Y-129702380D01*
X27328095Y-129654761D01*
X27375714Y-129607142D01*
X27423333Y-129511904D01*
X27423333Y-128702380D01*
X28423333Y-129702380D02*
X27851904Y-129702380D01*
X28137619Y-129702380D02*
X28137619Y-128702380D01*
X28042380Y-128845238D01*
X27947142Y-128940476D01*
X27851904Y-128988095D01*
X28804285Y-128797619D02*
X28851904Y-128750000D01*
X28947142Y-128702380D01*
X29185238Y-128702380D01*
X29280476Y-128750000D01*
X29328095Y-128797619D01*
X29375714Y-128892857D01*
X29375714Y-128988095D01*
X29328095Y-129130952D01*
X28756666Y-129702380D01*
X29375714Y-129702380D01*
G04 #@! TO.C,U13*
X25761904Y-106342380D02*
X25761904Y-107151904D01*
X25809523Y-107247142D01*
X25857142Y-107294761D01*
X25952380Y-107342380D01*
X26142857Y-107342380D01*
X26238095Y-107294761D01*
X26285714Y-107247142D01*
X26333333Y-107151904D01*
X26333333Y-106342380D01*
X27333333Y-107342380D02*
X26761904Y-107342380D01*
X27047619Y-107342380D02*
X27047619Y-106342380D01*
X26952380Y-106485238D01*
X26857142Y-106580476D01*
X26761904Y-106628095D01*
X27666666Y-106342380D02*
X28285714Y-106342380D01*
X27952380Y-106723333D01*
X28095238Y-106723333D01*
X28190476Y-106770952D01*
X28238095Y-106818571D01*
X28285714Y-106913809D01*
X28285714Y-107151904D01*
X28238095Y-107247142D01*
X28190476Y-107294761D01*
X28095238Y-107342380D01*
X27809523Y-107342380D01*
X27714285Y-107294761D01*
X27666666Y-107247142D01*
G04 #@! TO.C,U14*
X28961904Y-83802380D02*
X28961904Y-84611904D01*
X29009523Y-84707142D01*
X29057142Y-84754761D01*
X29152380Y-84802380D01*
X29342857Y-84802380D01*
X29438095Y-84754761D01*
X29485714Y-84707142D01*
X29533333Y-84611904D01*
X29533333Y-83802380D01*
X30533333Y-84802380D02*
X29961904Y-84802380D01*
X30247619Y-84802380D02*
X30247619Y-83802380D01*
X30152380Y-83945238D01*
X30057142Y-84040476D01*
X29961904Y-84088095D01*
X31390476Y-84135714D02*
X31390476Y-84802380D01*
X31152380Y-83754761D02*
X30914285Y-84469047D01*
X31533333Y-84469047D01*
G04 #@! TO.C,U15*
X36561904Y-62762380D02*
X36561904Y-63571904D01*
X36609523Y-63667142D01*
X36657142Y-63714761D01*
X36752380Y-63762380D01*
X36942857Y-63762380D01*
X37038095Y-63714761D01*
X37085714Y-63667142D01*
X37133333Y-63571904D01*
X37133333Y-62762380D01*
X38133333Y-63762380D02*
X37561904Y-63762380D01*
X37847619Y-63762380D02*
X37847619Y-62762380D01*
X37752380Y-62905238D01*
X37657142Y-63000476D01*
X37561904Y-63048095D01*
X39038095Y-62762380D02*
X38561904Y-62762380D01*
X38514285Y-63238571D01*
X38561904Y-63190952D01*
X38657142Y-63143333D01*
X38895238Y-63143333D01*
X38990476Y-63190952D01*
X39038095Y-63238571D01*
X39085714Y-63333809D01*
X39085714Y-63571904D01*
X39038095Y-63667142D01*
X38990476Y-63714761D01*
X38895238Y-63762380D01*
X38657142Y-63762380D01*
X38561904Y-63714761D01*
X38514285Y-63667142D01*
G04 #@! TO.C,U16*
X45351904Y-43572380D02*
X45351904Y-44381904D01*
X45399523Y-44477142D01*
X45447142Y-44524761D01*
X45542380Y-44572380D01*
X45732857Y-44572380D01*
X45828095Y-44524761D01*
X45875714Y-44477142D01*
X45923333Y-44381904D01*
X45923333Y-43572380D01*
X46923333Y-44572380D02*
X46351904Y-44572380D01*
X46637619Y-44572380D02*
X46637619Y-43572380D01*
X46542380Y-43715238D01*
X46447142Y-43810476D01*
X46351904Y-43858095D01*
X47780476Y-43572380D02*
X47590000Y-43572380D01*
X47494761Y-43620000D01*
X47447142Y-43667619D01*
X47351904Y-43810476D01*
X47304285Y-44000952D01*
X47304285Y-44381904D01*
X47351904Y-44477142D01*
X47399523Y-44524761D01*
X47494761Y-44572380D01*
X47685238Y-44572380D01*
X47780476Y-44524761D01*
X47828095Y-44477142D01*
X47875714Y-44381904D01*
X47875714Y-44143809D01*
X47828095Y-44048571D01*
X47780476Y-44000952D01*
X47685238Y-43953333D01*
X47494761Y-43953333D01*
X47399523Y-44000952D01*
X47351904Y-44048571D01*
X47304285Y-44143809D01*
G04 #@! TO.C,U17*
X62431904Y-33532380D02*
X62431904Y-34341904D01*
X62479523Y-34437142D01*
X62527142Y-34484761D01*
X62622380Y-34532380D01*
X62812857Y-34532380D01*
X62908095Y-34484761D01*
X62955714Y-34437142D01*
X63003333Y-34341904D01*
X63003333Y-33532380D01*
X64003333Y-34532380D02*
X63431904Y-34532380D01*
X63717619Y-34532380D02*
X63717619Y-33532380D01*
X63622380Y-33675238D01*
X63527142Y-33770476D01*
X63431904Y-33818095D01*
X64336666Y-33532380D02*
X65003333Y-33532380D01*
X64574761Y-34532380D01*
G04 #@! TO.C,U18*
X78761904Y-44552380D02*
X78761904Y-45361904D01*
X78809523Y-45457142D01*
X78857142Y-45504761D01*
X78952380Y-45552380D01*
X79142857Y-45552380D01*
X79238095Y-45504761D01*
X79285714Y-45457142D01*
X79333333Y-45361904D01*
X79333333Y-44552380D01*
X80333333Y-45552380D02*
X79761904Y-45552380D01*
X80047619Y-45552380D02*
X80047619Y-44552380D01*
X79952380Y-44695238D01*
X79857142Y-44790476D01*
X79761904Y-44838095D01*
X80904761Y-44980952D02*
X80809523Y-44933333D01*
X80761904Y-44885714D01*
X80714285Y-44790476D01*
X80714285Y-44742857D01*
X80761904Y-44647619D01*
X80809523Y-44600000D01*
X80904761Y-44552380D01*
X81095238Y-44552380D01*
X81190476Y-44600000D01*
X81238095Y-44647619D01*
X81285714Y-44742857D01*
X81285714Y-44790476D01*
X81238095Y-44885714D01*
X81190476Y-44933333D01*
X81095238Y-44980952D01*
X80904761Y-44980952D01*
X80809523Y-45028571D01*
X80761904Y-45076190D01*
X80714285Y-45171428D01*
X80714285Y-45361904D01*
X80761904Y-45457142D01*
X80809523Y-45504761D01*
X80904761Y-45552380D01*
X81095238Y-45552380D01*
X81190476Y-45504761D01*
X81238095Y-45457142D01*
X81285714Y-45361904D01*
X81285714Y-45171428D01*
X81238095Y-45076190D01*
X81190476Y-45028571D01*
X81095238Y-44980952D01*
G04 #@! TO.C,U19*
X60981904Y-57832380D02*
X60981904Y-58641904D01*
X61029523Y-58737142D01*
X61077142Y-58784761D01*
X61172380Y-58832380D01*
X61362857Y-58832380D01*
X61458095Y-58784761D01*
X61505714Y-58737142D01*
X61553333Y-58641904D01*
X61553333Y-57832380D01*
X62553333Y-58832380D02*
X61981904Y-58832380D01*
X62267619Y-58832380D02*
X62267619Y-57832380D01*
X62172380Y-57975238D01*
X62077142Y-58070476D01*
X61981904Y-58118095D01*
X63029523Y-58832380D02*
X63220000Y-58832380D01*
X63315238Y-58784761D01*
X63362857Y-58737142D01*
X63458095Y-58594285D01*
X63505714Y-58403809D01*
X63505714Y-58022857D01*
X63458095Y-57927619D01*
X63410476Y-57880000D01*
X63315238Y-57832380D01*
X63124761Y-57832380D01*
X63029523Y-57880000D01*
X62981904Y-57927619D01*
X62934285Y-58022857D01*
X62934285Y-58260952D01*
X62981904Y-58356190D01*
X63029523Y-58403809D01*
X63124761Y-58451428D01*
X63315238Y-58451428D01*
X63410476Y-58403809D01*
X63458095Y-58356190D01*
X63505714Y-58260952D01*
G04 #@! TO.C,U20*
X49381904Y-78492380D02*
X49381904Y-79301904D01*
X49429523Y-79397142D01*
X49477142Y-79444761D01*
X49572380Y-79492380D01*
X49762857Y-79492380D01*
X49858095Y-79444761D01*
X49905714Y-79397142D01*
X49953333Y-79301904D01*
X49953333Y-78492380D01*
X50381904Y-78587619D02*
X50429523Y-78540000D01*
X50524761Y-78492380D01*
X50762857Y-78492380D01*
X50858095Y-78540000D01*
X50905714Y-78587619D01*
X50953333Y-78682857D01*
X50953333Y-78778095D01*
X50905714Y-78920952D01*
X50334285Y-79492380D01*
X50953333Y-79492380D01*
X51572380Y-78492380D02*
X51667619Y-78492380D01*
X51762857Y-78540000D01*
X51810476Y-78587619D01*
X51858095Y-78682857D01*
X51905714Y-78873333D01*
X51905714Y-79111428D01*
X51858095Y-79301904D01*
X51810476Y-79397142D01*
X51762857Y-79444761D01*
X51667619Y-79492380D01*
X51572380Y-79492380D01*
X51477142Y-79444761D01*
X51429523Y-79397142D01*
X51381904Y-79301904D01*
X51334285Y-79111428D01*
X51334285Y-78873333D01*
X51381904Y-78682857D01*
X51429523Y-78587619D01*
X51477142Y-78540000D01*
X51572380Y-78492380D01*
G04 #@! TO.C,U21*
X86461904Y-64482380D02*
X86461904Y-65291904D01*
X86509523Y-65387142D01*
X86557142Y-65434761D01*
X86652380Y-65482380D01*
X86842857Y-65482380D01*
X86938095Y-65434761D01*
X86985714Y-65387142D01*
X87033333Y-65291904D01*
X87033333Y-64482380D01*
X87461904Y-64577619D02*
X87509523Y-64530000D01*
X87604761Y-64482380D01*
X87842857Y-64482380D01*
X87938095Y-64530000D01*
X87985714Y-64577619D01*
X88033333Y-64672857D01*
X88033333Y-64768095D01*
X87985714Y-64910952D01*
X87414285Y-65482380D01*
X88033333Y-65482380D01*
X88985714Y-65482380D02*
X88414285Y-65482380D01*
X88700000Y-65482380D02*
X88700000Y-64482380D01*
X88604761Y-64625238D01*
X88509523Y-64720476D01*
X88414285Y-64768095D01*
G04 #@! TO.C,U22*
X69261904Y-74952380D02*
X69261904Y-75761904D01*
X69309523Y-75857142D01*
X69357142Y-75904761D01*
X69452380Y-75952380D01*
X69642857Y-75952380D01*
X69738095Y-75904761D01*
X69785714Y-75857142D01*
X69833333Y-75761904D01*
X69833333Y-74952380D01*
X70261904Y-75047619D02*
X70309523Y-75000000D01*
X70404761Y-74952380D01*
X70642857Y-74952380D01*
X70738095Y-75000000D01*
X70785714Y-75047619D01*
X70833333Y-75142857D01*
X70833333Y-75238095D01*
X70785714Y-75380952D01*
X70214285Y-75952380D01*
X70833333Y-75952380D01*
X71214285Y-75047619D02*
X71261904Y-75000000D01*
X71357142Y-74952380D01*
X71595238Y-74952380D01*
X71690476Y-75000000D01*
X71738095Y-75047619D01*
X71785714Y-75142857D01*
X71785714Y-75238095D01*
X71738095Y-75380952D01*
X71166666Y-75952380D01*
X71785714Y-75952380D01*
G04 #@! TO.C,U23*
X89471904Y-85072380D02*
X89471904Y-85881904D01*
X89519523Y-85977142D01*
X89567142Y-86024761D01*
X89662380Y-86072380D01*
X89852857Y-86072380D01*
X89948095Y-86024761D01*
X89995714Y-85977142D01*
X90043333Y-85881904D01*
X90043333Y-85072380D01*
X90471904Y-85167619D02*
X90519523Y-85120000D01*
X90614761Y-85072380D01*
X90852857Y-85072380D01*
X90948095Y-85120000D01*
X90995714Y-85167619D01*
X91043333Y-85262857D01*
X91043333Y-85358095D01*
X90995714Y-85500952D01*
X90424285Y-86072380D01*
X91043333Y-86072380D01*
X91376666Y-85072380D02*
X91995714Y-85072380D01*
X91662380Y-85453333D01*
X91805238Y-85453333D01*
X91900476Y-85500952D01*
X91948095Y-85548571D01*
X91995714Y-85643809D01*
X91995714Y-85881904D01*
X91948095Y-85977142D01*
X91900476Y-86024761D01*
X91805238Y-86072380D01*
X91519523Y-86072380D01*
X91424285Y-86024761D01*
X91376666Y-85977142D01*
G04 #@! TO.C,U24*
X44201904Y-97672380D02*
X44201904Y-98481904D01*
X44249523Y-98577142D01*
X44297142Y-98624761D01*
X44392380Y-98672380D01*
X44582857Y-98672380D01*
X44678095Y-98624761D01*
X44725714Y-98577142D01*
X44773333Y-98481904D01*
X44773333Y-97672380D01*
X45201904Y-97767619D02*
X45249523Y-97720000D01*
X45344761Y-97672380D01*
X45582857Y-97672380D01*
X45678095Y-97720000D01*
X45725714Y-97767619D01*
X45773333Y-97862857D01*
X45773333Y-97958095D01*
X45725714Y-98100952D01*
X45154285Y-98672380D01*
X45773333Y-98672380D01*
X46630476Y-98005714D02*
X46630476Y-98672380D01*
X46392380Y-97624761D02*
X46154285Y-98339047D01*
X46773333Y-98339047D01*
G04 #@! TO.C,U25*
X64261904Y-94482380D02*
X64261904Y-95291904D01*
X64309523Y-95387142D01*
X64357142Y-95434761D01*
X64452380Y-95482380D01*
X64642857Y-95482380D01*
X64738095Y-95434761D01*
X64785714Y-95387142D01*
X64833333Y-95291904D01*
X64833333Y-94482380D01*
X65261904Y-94577619D02*
X65309523Y-94530000D01*
X65404761Y-94482380D01*
X65642857Y-94482380D01*
X65738095Y-94530000D01*
X65785714Y-94577619D01*
X65833333Y-94672857D01*
X65833333Y-94768095D01*
X65785714Y-94910952D01*
X65214285Y-95482380D01*
X65833333Y-95482380D01*
X66738095Y-94482380D02*
X66261904Y-94482380D01*
X66214285Y-94958571D01*
X66261904Y-94910952D01*
X66357142Y-94863333D01*
X66595238Y-94863333D01*
X66690476Y-94910952D01*
X66738095Y-94958571D01*
X66785714Y-95053809D01*
X66785714Y-95291904D01*
X66738095Y-95387142D01*
X66690476Y-95434761D01*
X66595238Y-95482380D01*
X66357142Y-95482380D01*
X66261904Y-95434761D01*
X66214285Y-95387142D01*
G04 #@! TO.C,U26*
X86771904Y-105452380D02*
X86771904Y-106261904D01*
X86819523Y-106357142D01*
X86867142Y-106404761D01*
X86962380Y-106452380D01*
X87152857Y-106452380D01*
X87248095Y-106404761D01*
X87295714Y-106357142D01*
X87343333Y-106261904D01*
X87343333Y-105452380D01*
X87771904Y-105547619D02*
X87819523Y-105500000D01*
X87914761Y-105452380D01*
X88152857Y-105452380D01*
X88248095Y-105500000D01*
X88295714Y-105547619D01*
X88343333Y-105642857D01*
X88343333Y-105738095D01*
X88295714Y-105880952D01*
X87724285Y-106452380D01*
X88343333Y-106452380D01*
X89200476Y-105452380D02*
X89010000Y-105452380D01*
X88914761Y-105500000D01*
X88867142Y-105547619D01*
X88771904Y-105690476D01*
X88724285Y-105880952D01*
X88724285Y-106261904D01*
X88771904Y-106357142D01*
X88819523Y-106404761D01*
X88914761Y-106452380D01*
X89105238Y-106452380D01*
X89200476Y-106404761D01*
X89248095Y-106357142D01*
X89295714Y-106261904D01*
X89295714Y-106023809D01*
X89248095Y-105928571D01*
X89200476Y-105880952D01*
X89105238Y-105833333D01*
X88914761Y-105833333D01*
X88819523Y-105880952D01*
X88771904Y-105928571D01*
X88724285Y-106023809D01*
G04 #@! TO.C,U27*
X68261904Y-114292380D02*
X68261904Y-115101904D01*
X68309523Y-115197142D01*
X68357142Y-115244761D01*
X68452380Y-115292380D01*
X68642857Y-115292380D01*
X68738095Y-115244761D01*
X68785714Y-115197142D01*
X68833333Y-115101904D01*
X68833333Y-114292380D01*
X69261904Y-114387619D02*
X69309523Y-114340000D01*
X69404761Y-114292380D01*
X69642857Y-114292380D01*
X69738095Y-114340000D01*
X69785714Y-114387619D01*
X69833333Y-114482857D01*
X69833333Y-114578095D01*
X69785714Y-114720952D01*
X69214285Y-115292380D01*
X69833333Y-115292380D01*
X70166666Y-114292380D02*
X70833333Y-114292380D01*
X70404761Y-115292380D01*
G04 #@! TO.C,U28*
X45861904Y-119252380D02*
X45861904Y-120061904D01*
X45909523Y-120157142D01*
X45957142Y-120204761D01*
X46052380Y-120252380D01*
X46242857Y-120252380D01*
X46338095Y-120204761D01*
X46385714Y-120157142D01*
X46433333Y-120061904D01*
X46433333Y-119252380D01*
X46861904Y-119347619D02*
X46909523Y-119300000D01*
X47004761Y-119252380D01*
X47242857Y-119252380D01*
X47338095Y-119300000D01*
X47385714Y-119347619D01*
X47433333Y-119442857D01*
X47433333Y-119538095D01*
X47385714Y-119680952D01*
X46814285Y-120252380D01*
X47433333Y-120252380D01*
X48004761Y-119680952D02*
X47909523Y-119633333D01*
X47861904Y-119585714D01*
X47814285Y-119490476D01*
X47814285Y-119442857D01*
X47861904Y-119347619D01*
X47909523Y-119300000D01*
X48004761Y-119252380D01*
X48195238Y-119252380D01*
X48290476Y-119300000D01*
X48338095Y-119347619D01*
X48385714Y-119442857D01*
X48385714Y-119490476D01*
X48338095Y-119585714D01*
X48290476Y-119633333D01*
X48195238Y-119680952D01*
X48004761Y-119680952D01*
X47909523Y-119728571D01*
X47861904Y-119776190D01*
X47814285Y-119871428D01*
X47814285Y-120061904D01*
X47861904Y-120157142D01*
X47909523Y-120204761D01*
X48004761Y-120252380D01*
X48195238Y-120252380D01*
X48290476Y-120204761D01*
X48338095Y-120157142D01*
X48385714Y-120061904D01*
X48385714Y-119871428D01*
X48338095Y-119776190D01*
X48290476Y-119728571D01*
X48195238Y-119680952D01*
G04 #@! TO.C,U29*
X75861904Y-132872380D02*
X75861904Y-133681904D01*
X75909523Y-133777142D01*
X75957142Y-133824761D01*
X76052380Y-133872380D01*
X76242857Y-133872380D01*
X76338095Y-133824761D01*
X76385714Y-133777142D01*
X76433333Y-133681904D01*
X76433333Y-132872380D01*
X76861904Y-132967619D02*
X76909523Y-132920000D01*
X77004761Y-132872380D01*
X77242857Y-132872380D01*
X77338095Y-132920000D01*
X77385714Y-132967619D01*
X77433333Y-133062857D01*
X77433333Y-133158095D01*
X77385714Y-133300952D01*
X76814285Y-133872380D01*
X77433333Y-133872380D01*
X77909523Y-133872380D02*
X78100000Y-133872380D01*
X78195238Y-133824761D01*
X78242857Y-133777142D01*
X78338095Y-133634285D01*
X78385714Y-133443809D01*
X78385714Y-133062857D01*
X78338095Y-132967619D01*
X78290476Y-132920000D01*
X78195238Y-132872380D01*
X78004761Y-132872380D01*
X77909523Y-132920000D01*
X77861904Y-132967619D01*
X77814285Y-133062857D01*
X77814285Y-133300952D01*
X77861904Y-133396190D01*
X77909523Y-133443809D01*
X78004761Y-133491428D01*
X78195238Y-133491428D01*
X78290476Y-133443809D01*
X78338095Y-133396190D01*
X78385714Y-133300952D01*
G04 #@! TO.C,U31*
X48411904Y-156132380D02*
X48411904Y-156941904D01*
X48459523Y-157037142D01*
X48507142Y-157084761D01*
X48602380Y-157132380D01*
X48792857Y-157132380D01*
X48888095Y-157084761D01*
X48935714Y-157037142D01*
X48983333Y-156941904D01*
X48983333Y-156132380D01*
X49364285Y-156132380D02*
X49983333Y-156132380D01*
X49650000Y-156513333D01*
X49792857Y-156513333D01*
X49888095Y-156560952D01*
X49935714Y-156608571D01*
X49983333Y-156703809D01*
X49983333Y-156941904D01*
X49935714Y-157037142D01*
X49888095Y-157084761D01*
X49792857Y-157132380D01*
X49507142Y-157132380D01*
X49411904Y-157084761D01*
X49364285Y-157037142D01*
X50935714Y-157132380D02*
X50364285Y-157132380D01*
X50650000Y-157132380D02*
X50650000Y-156132380D01*
X50554761Y-156275238D01*
X50459523Y-156370476D01*
X50364285Y-156418095D01*
G04 #@! TO.C,U32*
X69461904Y-155772380D02*
X69461904Y-156581904D01*
X69509523Y-156677142D01*
X69557142Y-156724761D01*
X69652380Y-156772380D01*
X69842857Y-156772380D01*
X69938095Y-156724761D01*
X69985714Y-156677142D01*
X70033333Y-156581904D01*
X70033333Y-155772380D01*
X70414285Y-155772380D02*
X71033333Y-155772380D01*
X70700000Y-156153333D01*
X70842857Y-156153333D01*
X70938095Y-156200952D01*
X70985714Y-156248571D01*
X71033333Y-156343809D01*
X71033333Y-156581904D01*
X70985714Y-156677142D01*
X70938095Y-156724761D01*
X70842857Y-156772380D01*
X70557142Y-156772380D01*
X70461904Y-156724761D01*
X70414285Y-156677142D01*
X71414285Y-155867619D02*
X71461904Y-155820000D01*
X71557142Y-155772380D01*
X71795238Y-155772380D01*
X71890476Y-155820000D01*
X71938095Y-155867619D01*
X71985714Y-155962857D01*
X71985714Y-156058095D01*
X71938095Y-156200952D01*
X71366666Y-156772380D01*
X71985714Y-156772380D01*
G04 #@! TO.C,*
G04 #@! TO.C,REF\002A\002A*
X53066666Y-125652380D02*
X52733333Y-125176190D01*
X52495238Y-125652380D02*
X52495238Y-124652380D01*
X52876190Y-124652380D01*
X52971428Y-124700000D01*
X53019047Y-124747619D01*
X53066666Y-124842857D01*
X53066666Y-124985714D01*
X53019047Y-125080952D01*
X52971428Y-125128571D01*
X52876190Y-125176190D01*
X52495238Y-125176190D01*
X53495238Y-125128571D02*
X53828571Y-125128571D01*
X53971428Y-125652380D02*
X53495238Y-125652380D01*
X53495238Y-124652380D01*
X53971428Y-124652380D01*
X54733333Y-125128571D02*
X54400000Y-125128571D01*
X54400000Y-125652380D02*
X54400000Y-124652380D01*
X54876190Y-124652380D01*
X55400000Y-124652380D02*
X55400000Y-124890476D01*
X55161904Y-124795238D02*
X55400000Y-124890476D01*
X55638095Y-124795238D01*
X55257142Y-125080952D02*
X55400000Y-124890476D01*
X55542857Y-125080952D01*
X56161904Y-124652380D02*
X56161904Y-124890476D01*
X55923809Y-124795238D02*
X56161904Y-124890476D01*
X56400000Y-124795238D01*
X56019047Y-125080952D02*
X56161904Y-124890476D01*
X56304761Y-125080952D01*
G04 #@! TO.C,J1*
X58126666Y-195152380D02*
X58126666Y-195866666D01*
X58079047Y-196009523D01*
X57983809Y-196104761D01*
X57840952Y-196152380D01*
X57745714Y-196152380D01*
X59126666Y-196152380D02*
X58555238Y-196152380D01*
X58840952Y-196152380D02*
X58840952Y-195152380D01*
X58745714Y-195295238D01*
X58650476Y-195390476D01*
X58555238Y-195438095D01*
G04 #@! TO.C,*
G04 #@! TD*
M02*
