G04 #@! TF.GenerationSoftware,KiCad,Pcbnew,(5.0.0)*
G04 #@! TF.CreationDate,2018-11-24T01:34:47+01:00*
G04 #@! TF.ProjectId,Insole_flex_32s,496E736F6C655F666C65785F3332732E,rev?*
G04 #@! TF.SameCoordinates,Original*
G04 #@! TF.FileFunction,Copper,L2,Bot,Signal*
G04 #@! TF.FilePolarity,Positive*
%FSLAX46Y46*%
G04 Gerber Fmt 4.6, Leading zero omitted, Abs format (unit mm)*
G04 Created by KiCad (PCBNEW (5.0.0)) date 11/24/18 01:34:47*
%MOMM*%
%LPD*%
G01*
G04 APERTURE LIST*
G04 #@! TA.AperFunction,ViaPad*
%ADD10C,0.800000*%
G04 #@! TD*
G04 #@! TA.AperFunction,Conductor*
%ADD11C,0.250000*%
G04 #@! TD*
G04 APERTURE END LIST*
D10*
G04 #@! TO.N,Net-(J1-Pad1)*
X47000000Y-231500000D03*
X48330000Y-159990000D03*
G04 #@! TO.N,Net-(J1-Pad2)*
X75600000Y-260300000D03*
X47900000Y-156600000D03*
G04 #@! TO.N,Net-(J1-Pad3)*
X71100000Y-277800000D03*
X48680000Y-155580000D03*
G04 #@! TO.N,Net-(J1-Pad4)*
X49700000Y-278000000D03*
X50120000Y-158190000D03*
G04 #@! TO.N,Net-(J1-Pad5)*
X41800000Y-253000000D03*
X51225000Y-156700000D03*
G04 #@! TO.N,Net-(J1-Pad6)*
X60600000Y-262000000D03*
X52100000Y-155700000D03*
G04 #@! TO.N,Net-(J1-Pad7)*
X35000000Y-219700000D03*
X53100000Y-155300000D03*
G04 #@! TO.N,Net-(J1-Pad8)*
X33500000Y-199000000D03*
X53625000Y-156900000D03*
G04 #@! TO.N,Net-(J1-Pad9)*
X32100000Y-178100000D03*
X54125000Y-158400000D03*
G04 #@! TO.N,Net-(J1-Pad10)*
X30600000Y-155200000D03*
X55100000Y-156100000D03*
G04 #@! TO.N,Net-(J1-Pad11)*
X40100000Y-138100000D03*
X56200000Y-154200000D03*
G04 #@! TO.N,Net-(J1-Pad12)*
X37900000Y-122800000D03*
X57000000Y-152200000D03*
G04 #@! TO.N,Net-(J1-Pad13)*
X36000000Y-103500000D03*
X57025153Y-157500153D03*
G04 #@! TO.N,Net-(J1-Pad14)*
X39600000Y-79200000D03*
X58450001Y-156200000D03*
G04 #@! TO.N,Net-(J1-Pad15)*
X47600000Y-56700000D03*
X58425153Y-158400153D03*
G04 #@! TO.N,Net-(J1-Pad16)*
X56700000Y-36600000D03*
X59020000Y-147320000D03*
G04 #@! TO.N,Net-(J1-Pad17)*
X30300000Y-198400000D03*
X36000000Y-130400000D03*
X44900000Y-127800000D03*
X58710000Y-145510000D03*
G04 #@! TO.N,Net-(J1-Pad18)*
X60725000Y-158000000D03*
X45200000Y-100300000D03*
G04 #@! TO.N,Net-(J1-Pad19)*
X46200000Y-98900000D03*
X61925000Y-151300000D03*
G04 #@! TO.N,Net-(J1-Pad20)*
X61710000Y-141620000D03*
X59780000Y-139590000D03*
G04 #@! TO.N,Net-(J1-Pad21)*
X75500000Y-25000000D03*
X62812653Y-155512653D03*
G04 #@! TO.N,Net-(J1-Pad22)*
X89600000Y-39700000D03*
X63225020Y-158100000D03*
G04 #@! TO.N,Net-(J1-Pad23)*
X64400000Y-154900000D03*
X72100000Y-49400000D03*
G04 #@! TO.N,Net-(J1-Pad24)*
X64925000Y-157300000D03*
X60600000Y-70000000D03*
G04 #@! TO.N,Net-(J1-Pad25)*
X62125153Y-162300153D03*
X97000000Y-56000000D03*
G04 #@! TO.N,Net-(J1-Pad26)*
X62912653Y-161512653D03*
X78600000Y-72100000D03*
G04 #@! TO.N,Net-(J1-Pad27)*
X63125000Y-163500000D03*
X98800000Y-82700000D03*
G04 #@! TO.N,Net-(J1-Pad28)*
X71200000Y-78100000D03*
X67475010Y-155700000D03*
G04 #@! TO.N,Net-(J1-Pad29)*
X64625000Y-161500000D03*
X75800000Y-86100000D03*
G04 #@! TO.N,Net-(J1-Pad30)*
X65280000Y-162960000D03*
X96280000Y-91690000D03*
G04 #@! TO.N,Net-(J1-Pad31)*
X66005000Y-162236654D03*
X79140000Y-106000000D03*
G04 #@! TO.N,Net-(J1-Pad32)*
X69835000Y-115810000D03*
X62700000Y-115470000D03*
X57130000Y-109600000D03*
X67910000Y-160780000D03*
G04 #@! TO.N,Net-(J1-Pad33)*
X85460000Y-119380000D03*
X69740000Y-160900000D03*
G04 #@! TO.N,Net-(J1-Pad34)*
X70960000Y-136280000D03*
X67110000Y-165840000D03*
G04 #@! TO.N,Net-(J1-Pad35)*
X71590000Y-137910000D03*
X67340000Y-168180000D03*
G04 #@! TD*
D11*
G04 #@! TO.N,Net-(J1-Pad1)*
X41300000Y-156500000D02*
X41300000Y-225800000D01*
X41300000Y-225800000D02*
X47000000Y-231500000D01*
X48000000Y-158034315D02*
X45965685Y-156000000D01*
X41800000Y-156000000D02*
X41300000Y-156500000D01*
X45965685Y-156000000D02*
X41800000Y-156000000D01*
X48000000Y-159094315D02*
X48000000Y-158034315D01*
X48330000Y-159424315D02*
X48000000Y-159094315D01*
X48330000Y-159990000D02*
X48330000Y-159424315D01*
G04 #@! TO.N,Net-(J1-Pad2)*
X74700000Y-260300000D02*
X75600000Y-260300000D01*
X40600000Y-155900000D02*
X40600000Y-226200000D01*
X40600000Y-226200000D02*
X74700000Y-260300000D01*
X47900000Y-156034315D02*
X46365685Y-154500000D01*
X47900000Y-156600000D02*
X47900000Y-156034315D01*
X42000000Y-154500000D02*
X40600000Y-155900000D01*
X46365685Y-154500000D02*
X42000000Y-154500000D01*
G04 #@! TO.N,Net-(J1-Pad3)*
X39600000Y-154800000D02*
X39600000Y-230700000D01*
X39600000Y-230700000D02*
X71100000Y-262200000D01*
X71100000Y-262200000D02*
X71100000Y-277800000D01*
X40900000Y-153500000D02*
X39600000Y-154800000D01*
X46600000Y-153500000D02*
X40900000Y-153500000D01*
X48680000Y-155580000D02*
X46600000Y-153500000D01*
G04 #@! TO.N,Net-(J1-Pad4)*
X57000000Y-278000000D02*
X49700000Y-278000000D01*
X64600000Y-270400000D02*
X57000000Y-278000000D01*
X64600000Y-259400000D02*
X64600000Y-270400000D01*
X38500000Y-153300000D02*
X38500000Y-233300000D01*
X38500000Y-233300000D02*
X64600000Y-259400000D01*
X39700000Y-152100000D02*
X38500000Y-153300000D01*
X46300000Y-152100000D02*
X39700000Y-152100000D01*
X46300000Y-152126998D02*
X46300000Y-152100000D01*
X50120000Y-155946998D02*
X46300000Y-152126998D01*
X50120000Y-158190000D02*
X50120000Y-155946998D01*
G04 #@! TO.N,Net-(J1-Pad5)*
X37500000Y-152100000D02*
X37500000Y-248700000D01*
X37500000Y-248700000D02*
X41800000Y-253000000D01*
X51225000Y-156134315D02*
X45890685Y-150800000D01*
X51225000Y-156700000D02*
X51225000Y-156134315D01*
X38800000Y-150800000D02*
X37500000Y-152100000D01*
X45890685Y-150800000D02*
X38800000Y-150800000D01*
G04 #@! TO.N,Net-(J1-Pad6)*
X36400000Y-150600000D02*
X36400000Y-258200000D01*
X36400000Y-258200000D02*
X40200000Y-262000000D01*
X40200000Y-262000000D02*
X60600000Y-262000000D01*
X52100000Y-155700000D02*
X46100000Y-149700000D01*
X37300000Y-149700000D02*
X36400000Y-150600000D01*
X46100000Y-149700000D02*
X37300000Y-149700000D01*
G04 #@! TO.N,Net-(J1-Pad7)*
X35000000Y-149500000D02*
X35000000Y-219700000D01*
X53100000Y-155300000D02*
X46300000Y-148500000D01*
X36000000Y-148500000D02*
X35000000Y-149500000D01*
X46300000Y-148500000D02*
X36000000Y-148500000D01*
G04 #@! TO.N,Net-(J1-Pad8)*
X33500000Y-148500000D02*
X33500000Y-199000000D01*
X53825001Y-155648001D02*
X53825001Y-154225001D01*
X53625000Y-156900000D02*
X53625000Y-155848002D01*
X53625000Y-155848002D02*
X53825001Y-155648001D01*
X53825001Y-154225001D02*
X46900000Y-147300000D01*
X34700000Y-147300000D02*
X33500000Y-148500000D01*
X46900000Y-147300000D02*
X34700000Y-147300000D01*
G04 #@! TO.N,Net-(J1-Pad9)*
X32100000Y-147800000D02*
X32100000Y-178100000D01*
X54350001Y-157609314D02*
X54350001Y-153250001D01*
X54125000Y-158400000D02*
X54125000Y-157834315D01*
X54125000Y-157834315D02*
X54350001Y-157609314D01*
X54350001Y-153250001D02*
X46700000Y-145600000D01*
X34300000Y-145600000D02*
X32100000Y-147800000D01*
X46700000Y-145600000D02*
X34300000Y-145600000D01*
G04 #@! TO.N,Net-(J1-Pad10)*
X30600000Y-146800000D02*
X30600000Y-155200000D01*
X55100000Y-156100000D02*
X55100000Y-152400000D01*
X55100000Y-152400000D02*
X46700000Y-144000000D01*
X33400000Y-144000000D02*
X30600000Y-146800000D01*
X46700000Y-144000000D02*
X33400000Y-144000000D01*
G04 #@! TO.N,Net-(J1-Pad11)*
X40665685Y-138100000D02*
X40100000Y-138100000D01*
X41436410Y-138100000D02*
X40665685Y-138100000D01*
X56200000Y-152863590D02*
X41436410Y-138100000D01*
X56200000Y-154200000D02*
X56200000Y-152863590D01*
G04 #@! TO.N,Net-(J1-Pad12)*
X37900000Y-133000000D02*
X37900000Y-122800000D01*
X37900000Y-133100000D02*
X37900000Y-133000000D01*
X57000000Y-152200000D02*
X37900000Y-133100000D01*
G04 #@! TO.N,Net-(J1-Pad13)*
X39400000Y-130800000D02*
X39400000Y-113400000D01*
X39400000Y-113400000D02*
X36000000Y-110000000D01*
X36000000Y-110000000D02*
X36000000Y-103500000D01*
X57725001Y-156800305D02*
X57725001Y-151225001D01*
X57025153Y-157500153D02*
X57725001Y-156800305D01*
X39400000Y-132900000D02*
X39400000Y-130800000D01*
X57725001Y-151225001D02*
X39400000Y-132900000D01*
G04 #@! TO.N,Net-(J1-Pad14)*
X41400000Y-129300000D02*
X41400000Y-114763590D01*
X41400000Y-114763590D02*
X41400000Y-100600000D01*
X41400000Y-100600000D02*
X37200000Y-96400000D01*
X37200000Y-96400000D02*
X37200000Y-81600000D01*
X37200000Y-81600000D02*
X39600000Y-79200000D01*
X58450001Y-156200000D02*
X58450001Y-150150001D01*
X41400000Y-133100000D02*
X41400000Y-129300000D01*
X58450001Y-150150001D02*
X41400000Y-133100000D01*
G04 #@! TO.N,Net-(J1-Pad15)*
X43100000Y-118763590D02*
X43100000Y-61200000D01*
X43100000Y-61200000D02*
X47600000Y-56700000D01*
X58425153Y-158400153D02*
X58425153Y-157374847D01*
X59175002Y-156624998D02*
X59175002Y-149175002D01*
X58425153Y-157374847D02*
X59175002Y-156624998D01*
X43100000Y-133100000D02*
X43100000Y-118763590D01*
X59175002Y-149175002D02*
X43100000Y-133100000D01*
G04 #@! TO.N,Net-(J1-Pad16)*
X50000000Y-44900000D02*
X56700000Y-38200000D01*
X56700000Y-38200000D02*
X56700000Y-36600000D01*
X44000000Y-61373002D02*
X48973002Y-56400000D01*
X44000000Y-132300000D02*
X44000000Y-61373002D01*
X48973002Y-45926998D02*
X50000000Y-44900000D01*
X48973002Y-56400000D02*
X48973002Y-45926998D01*
X59020000Y-147320000D02*
X44000000Y-132300000D01*
G04 #@! TO.N,Net-(J1-Pad17)*
X30300000Y-198400000D02*
X31800000Y-196900000D01*
X31800000Y-196900000D02*
X31800000Y-182500000D01*
X31800000Y-182500000D02*
X28700000Y-179400000D01*
X28700000Y-179400000D02*
X28700000Y-145700000D01*
X28700000Y-145700000D02*
X36000000Y-138400000D01*
X36000000Y-138400000D02*
X36000000Y-130400000D01*
X44900000Y-131700000D02*
X44900000Y-127800000D01*
X58710000Y-145510000D02*
X44900000Y-131700000D01*
G04 #@! TO.N,Net-(J1-Pad18)*
X60725000Y-157434315D02*
X61200000Y-156959315D01*
X60725000Y-158000000D02*
X60725000Y-157434315D01*
X61200000Y-156959315D02*
X61200000Y-146200000D01*
X61200000Y-146200000D02*
X46500000Y-131500000D01*
X46500000Y-101600000D02*
X45200000Y-100300000D01*
X46500000Y-131500000D02*
X46500000Y-101600000D01*
G04 #@! TO.N,Net-(J1-Pad19)*
X47400000Y-100100000D02*
X46200000Y-98900000D01*
X47400000Y-130800000D02*
X47400000Y-100100000D01*
X61925000Y-151300000D02*
X61925000Y-145325000D01*
X61925000Y-145325000D02*
X47400000Y-130800000D01*
G04 #@! TO.N,Net-(J1-Pad20)*
X61710000Y-141620000D02*
X59780000Y-139690000D01*
X59780000Y-139690000D02*
X59780000Y-139590000D01*
G04 #@! TO.N,Net-(J1-Pad21)*
X62812653Y-155512653D02*
X62812653Y-144212653D01*
X62812653Y-144212653D02*
X48500000Y-129900000D01*
X48500000Y-129900000D02*
X48500000Y-58600000D01*
X48500000Y-58600000D02*
X50500000Y-56600000D01*
X50500000Y-56600000D02*
X50500000Y-46700000D01*
X50500000Y-46700000D02*
X58000000Y-39200000D01*
X58000000Y-39200000D02*
X58000000Y-34300000D01*
X67300000Y-25000000D02*
X75500000Y-25000000D01*
X58000000Y-34300000D02*
X67300000Y-25000000D01*
G04 #@! TO.N,Net-(J1-Pad22)*
X54600000Y-54600000D02*
X69500000Y-39700000D01*
X69500000Y-39700000D02*
X89600000Y-39700000D01*
X50400000Y-58800000D02*
X54600000Y-54600000D01*
X50400000Y-129000000D02*
X50400000Y-58800000D01*
X63537654Y-142137654D02*
X50400000Y-129000000D01*
X63537654Y-157221681D02*
X63537654Y-142137654D01*
X63225020Y-158100000D02*
X63225020Y-157534315D01*
X63225020Y-157534315D02*
X63537654Y-157221681D01*
G04 #@! TO.N,Net-(J1-Pad23)*
X64400000Y-154900000D02*
X64400000Y-154334315D01*
X64400000Y-154334315D02*
X64400000Y-139300000D01*
X64400000Y-139300000D02*
X51800000Y-126700000D01*
X51800000Y-126700000D02*
X51800000Y-60100000D01*
X51800000Y-60100000D02*
X62500000Y-49400000D01*
X62500000Y-49400000D02*
X72100000Y-49400000D01*
G04 #@! TO.N,Net-(J1-Pad24)*
X64925000Y-156734315D02*
X65300000Y-156359315D01*
X64925000Y-157300000D02*
X64925000Y-156734315D01*
X65300000Y-156359315D02*
X65300000Y-137400000D01*
X65300000Y-137400000D02*
X52900000Y-125000000D01*
X52900000Y-125000000D02*
X52900000Y-77700000D01*
X52900000Y-77700000D02*
X60600000Y-70000000D01*
G04 #@! TO.N,Net-(J1-Pad25)*
X62125153Y-162300153D02*
X62125153Y-161274847D01*
X65750009Y-157649991D02*
X65750009Y-63249991D01*
X62125153Y-161274847D02*
X65750009Y-157649991D01*
X65750009Y-63249991D02*
X72900000Y-56100000D01*
X72900000Y-56100000D02*
X96900000Y-56100000D01*
X96900000Y-56100000D02*
X97000000Y-56000000D01*
G04 #@! TO.N,Net-(J1-Pad26)*
X76000000Y-69500000D02*
X78600000Y-72100000D01*
X69400000Y-69500000D02*
X76000000Y-69500000D01*
X66300000Y-72600000D02*
X69400000Y-69500000D01*
X62912653Y-161512653D02*
X66300000Y-158125306D01*
X66300000Y-158125306D02*
X66300000Y-72600000D01*
G04 #@! TO.N,Net-(J1-Pad27)*
X70200000Y-77100000D02*
X93200000Y-77100000D01*
X93200000Y-77100000D02*
X98800000Y-82700000D01*
X66750010Y-80549990D02*
X70200000Y-77100000D01*
X66750010Y-158311706D02*
X66750010Y-80549990D01*
X64100000Y-160961716D02*
X66750010Y-158311706D01*
X64100000Y-161000000D02*
X64100000Y-160961716D01*
X63125000Y-162934315D02*
X63300000Y-162759315D01*
X63300000Y-162759315D02*
X63300000Y-162198308D01*
X63300000Y-162198308D02*
X63900000Y-161598308D01*
X63900000Y-161598308D02*
X63900000Y-161200000D01*
X63125000Y-163500000D02*
X63125000Y-162934315D01*
X63900000Y-161200000D02*
X64100000Y-161000000D01*
G04 #@! TO.N,Net-(J1-Pad28)*
X67475010Y-155675010D02*
X67500000Y-155650020D01*
X67475010Y-155700000D02*
X67475010Y-155675010D01*
X67500000Y-81800000D02*
X69300000Y-80000000D01*
X67500000Y-155650020D02*
X67500000Y-81800000D01*
X69225000Y-80075000D02*
X69300000Y-80000000D01*
X69300000Y-80000000D02*
X71200000Y-78100000D01*
G04 #@! TO.N,Net-(J1-Pad29)*
X65024999Y-161100001D02*
X65024999Y-160673127D01*
X64625000Y-161500000D02*
X65024999Y-161100001D01*
X65024999Y-160673127D02*
X67200020Y-158498106D01*
X67200020Y-158498106D02*
X67200020Y-157099980D01*
X68200011Y-156099989D02*
X68200011Y-154800011D01*
X67200020Y-157099980D02*
X68200011Y-156099989D01*
X68200011Y-154800011D02*
X67950010Y-154550010D01*
X67950010Y-154550010D02*
X67950010Y-88149990D01*
X67950010Y-88149990D02*
X70000000Y-86100000D01*
X70000000Y-86100000D02*
X75800000Y-86100000D01*
G04 #@! TO.N,Net-(J1-Pad30)*
X65280000Y-161918002D02*
X65550000Y-161648002D01*
X65280000Y-162960000D02*
X65280000Y-161918002D01*
X65550000Y-161648002D02*
X65550000Y-160784536D01*
X67650030Y-158684506D02*
X67650030Y-157286380D01*
X65550000Y-160784536D02*
X67650030Y-158684506D01*
X68650021Y-156286389D02*
X68650021Y-154120021D01*
X67650030Y-157286380D02*
X68650021Y-156286389D01*
X68650021Y-154120021D02*
X68650000Y-154120000D01*
X68650000Y-154120000D02*
X68650000Y-101740000D01*
X68650000Y-101740000D02*
X78700000Y-91690000D01*
X78700000Y-91690000D02*
X96280000Y-91690000D01*
G04 #@! TO.N,Net-(J1-Pad31)*
X66005000Y-162236654D02*
X66005000Y-161935000D01*
X66005000Y-161935000D02*
X66220000Y-161720000D01*
X66220000Y-160750946D02*
X68100039Y-158870907D01*
X66220000Y-161720000D02*
X66220000Y-160750946D01*
X68100039Y-158870907D02*
X68100039Y-157472781D01*
X68100039Y-157472781D02*
X69110000Y-156462820D01*
X69110000Y-156462820D02*
X69110000Y-110010000D01*
X69110000Y-110010000D02*
X73120000Y-106000000D01*
X73120000Y-106000000D02*
X79140000Y-106000000D01*
G04 #@! TO.N,Net-(J1-Pad32)*
X62700000Y-115470000D02*
X57130000Y-109900000D01*
X57130000Y-109900000D02*
X57130000Y-109600000D01*
X69580000Y-116065000D02*
X69835000Y-115810000D01*
X69580000Y-156650000D02*
X69580000Y-116065000D01*
X68550048Y-157679952D02*
X69580000Y-156650000D01*
X67910000Y-160780000D02*
X68550048Y-160139952D01*
X68550048Y-160139952D02*
X68550048Y-157679952D01*
G04 #@! TO.N,Net-(J1-Pad33)*
X70050000Y-125400000D02*
X76070000Y-119380000D01*
X70050000Y-152380000D02*
X70050000Y-125400000D01*
X70040000Y-152390000D02*
X70050000Y-152380000D01*
X70040000Y-156850000D02*
X70040000Y-152390000D01*
X69020000Y-159625306D02*
X69020000Y-157870000D01*
X69020000Y-157870000D02*
X70040000Y-156850000D01*
X76070000Y-119380000D02*
X85460000Y-119380000D01*
X69020000Y-159625306D02*
X69020000Y-160180000D01*
X69020000Y-160180000D02*
X69740000Y-160900000D01*
G04 #@! TO.N,Net-(J1-Pad34)*
X70500010Y-136739990D02*
X70960000Y-136280000D01*
X70500010Y-152566400D02*
X70500010Y-136739990D01*
X70490010Y-152576400D02*
X70500010Y-152566400D01*
X70490010Y-161138189D02*
X70490010Y-152576400D01*
X67110000Y-165840000D02*
X70485510Y-161146827D01*
X70485510Y-161146827D02*
X70490010Y-161138189D01*
G04 #@! TO.N,Net-(J1-Pad35)*
X71020000Y-138480000D02*
X71590000Y-137910000D01*
X67340000Y-168160000D02*
X70960000Y-161210000D01*
X70960000Y-161210000D02*
X71020000Y-138480000D01*
G04 #@! TD*
M02*
