M48
;DRILL file {KiCad (5.0.0)} date 11/24/18 01:34:52
;FORMAT={-:-/ absolute / inch / decimal}
FMAT,2
INCH,TZ
T1C0.0157
%
G90
G05
M72
T1
X1.1929Y-7.811
X1.2047Y-6.1102
X1.2638Y-7.0118
X1.3189Y-7.8346
X1.378Y-8.6496
X1.4173Y-4.0748
X1.4173Y-5.1339
X1.4921Y-4.8346
X1.5591Y-3.1181
X1.5787Y-5.437
X1.6457Y-9.9606
X1.7677Y-5.0315
X1.7795Y-3.9488
X1.8189Y-3.8937
X1.8504Y-9.1142
X1.874Y-2.2323
X1.8858Y-6.1654
X1.9028Y-6.2988
X1.9165Y-6.1252
X1.9567Y-10.9449
X1.9732Y-6.228
X2.0167Y-6.1693
X2.0512Y-6.1299
X2.0906Y-6.1142
X2.1112Y-6.1772
X2.1309Y-6.2362
X2.1693Y-6.1457
X2.2126Y-6.0709
X2.2323Y-1.4409
X2.2441Y-5.9921
X2.2451Y-6.2008
X2.2492Y-4.315
X2.3002Y-6.2362
X2.3012Y-6.1496
X2.3114Y-5.7287
X2.3236Y-5.8
X2.3535Y-5.4957
X2.3858Y-2.7559
X2.3858Y-10.315
X2.3907Y-6.2205
X2.4295Y-5.5756
X2.438Y-5.9567
X2.4459Y-6.3898
X2.4685Y-4.5461
X2.4729Y-6.1225
X2.4769Y-6.3588
X2.4852Y-6.437
X2.4892Y-6.2244
X2.5354Y-6.0984
X2.5443Y-6.3583
X2.5561Y-6.1929
X2.5701Y-6.4157
X2.5986Y-6.3873
X2.6421Y-6.5291
X2.6512Y-6.6213
X2.6565Y-6.1299
X2.6736Y-6.3299
X2.7457Y-6.3346
X2.7494Y-4.5594
X2.7937Y-5.3654
X2.7992Y-10.937
X2.8031Y-3.0748
X2.8185Y-5.4295
X2.8386Y-1.9449
X2.9724Y-0.9843
X2.9764Y-10.248
X2.9843Y-3.3898
X3.0945Y-2.8386
X3.1157Y-4.1732
X3.3646Y-4.7
X3.5276Y-1.563
X3.7906Y-3.6098
X3.8189Y-2.2047
X3.8898Y-3.2559
T0
M30
